<svg width="24" height="24" viewBox="0 0 24 24" fill="none" xmlns="http://www.w3.org/2000/svg">
<path fill-rule="evenodd" clip-rule="evenodd" d="M8.5 15C4.9 15 2 12.1 2 8.5C2 4.9 4.9 2 8.5 2C12.1 2 15 4.9 15 8.5C15 8.92811 14.9589 9.31516 14.905 9.63907C14.8251 10.1184 14.7851 10.3581 14.8023 10.5006C14.8208 10.6544 14.8434 10.7246 14.9176 10.8605C14.9865 10.9865 15.1204 11.1204 15.3882 11.3882L20.0941 16.0941C20.613 16.613 20.8724 16.8724 21.0579 17.1751C21.2224 17.4436 21.3436 17.7362 21.4171 18.0423C21.5 18.3876 21.5 18.7545 21.5 19.4882V19.6C21.5 20.4401 21.5 20.8601 21.3365 21.181C21.1927 21.4632 20.9632 21.6927 20.681 21.8365C20.3601 22 19.9401 22 19.1 22H17.7C17.28 22 17.0699 22 16.9095 21.9183C16.7684 21.8463 16.6537 21.7316 16.5817 21.5905C16.5 21.4301 16.5 21.22 16.5 20.8V20.7C16.5 20.28 16.5 20.0699 16.4183 19.9095C16.3463 19.7684 16.2316 19.6537 16.0905 19.5817C15.9301 19.5 15.72 19.5 15.3 19.5H15.2C14.78 19.5 14.5699 19.5 14.4095 19.4183C14.2684 19.3463 14.1537 19.2316 14.0817 19.0905C14 18.9301 14 18.72 14 18.3V18.2C14 17.78 14 17.5699 13.9183 17.4095C13.8463 17.2684 13.7316 17.1537 13.5905 17.0817C13.4301 17 13.22 17 12.8 17H12.5607C12.2715 17 12.1269 17 12.0103 16.9607C11.7884 16.8858 11.6142 16.7116 11.5393 16.4897C11.5 16.3731 11.5 16.2285 11.5 15.9393V15.8877C11.5 15.812 11.5 15.7741 11.4964 15.7377C11.482 15.5897 11.4238 15.4493 11.3294 15.3344C11.3062 15.3062 11.2794 15.2794 11.2258 15.2258C11.0966 15.0966 11.032 15.032 10.9839 14.9944C10.7519 14.8131 10.5854 14.7628 10.2918 14.7852C10.2309 14.7899 10.1091 14.8144 9.86538 14.8634L9.86527 14.8634L9.86526 14.8634C9.5022 14.9364 9.0329 15 8.5 15ZM7.75 9.5C8.7165 9.5 9.5 8.7165 9.5 7.75C9.5 6.7835 8.7165 6 7.75 6C6.7835 6 6 6.7835 6 7.75C6 8.7165 6.7835 9.5 7.75 9.5Z" fill="black"/>
</svg>
