<svg width="48" height="48" viewBox="0 0 24 24" fill="none" xmlns="http://www.w3.org/2000/svg">
<path fill-rule="evenodd" clip-rule="evenodd" d="M12 5.125C8.20304 5.125 5.125 8.20304 5.125 12C5.125 15.797 8.20304 18.875 12 18.875C12.7402 18.875 13.4508 18.7585 14.1157 18.5437C14.7727 18.3314 15.4773 18.6919 15.6895 19.3489C15.9017 20.0058 15.5412 20.7104 14.8843 20.9226C13.974 21.2166 13.0043 21.375 12 21.375C6.82233 21.375 2.625 17.1777 2.625 12C2.625 6.82233 6.82233 2.625 12 2.625C17.1781 2.625 21.375 6.82671 21.375 12C21.375 13.318 21.0771 14.4499 20.4423 15.2832C19.7828 16.1489 18.8379 16.5833 17.8333 16.5833C16.8058 16.5833 15.8205 16.2102 15.1098 15.3669C14.2928 16.122 13.2003 16.5834 12 16.5834C9.4687 16.5834 7.41667 14.5313 7.41667 12C7.41667 9.46872 9.4687 7.41669 12 7.41669C14.5313 7.41669 16.5833 9.46872 16.5833 12L16.5833 12.0032C16.5838 12.9776 16.8076 13.492 17.008 13.7395C17.1797 13.9517 17.4244 14.0833 17.8333 14.0833C18.0788 14.0833 18.2797 13.9966 18.4536 13.7683C18.6521 13.5077 18.875 12.973 18.875 12C18.875 8.20662 15.7966 5.125 12 5.125ZM12 14.08C13.1488 14.08 14.08 13.1487 14.08 12C14.08 10.8512 13.1488 9.91998 12 9.91998C10.8512 9.91998 9.92 10.8512 9.92 12C9.92 13.1487 10.8512 14.08 12 14.08Z" fill="black"/>
</svg>
