<svg width="24" height="24" viewBox="0 0 24 24" fill="none" xmlns="http://www.w3.org/2000/svg">
<path fill-rule="evenodd" clip-rule="evenodd" d="M21.125 6.11534L13.35 15.2499C13.35 15.2499 13 13.4999 11.75 12.2499C10.5 10.9999 8.75 10.6499 8.75 10.6499L17.8846 2.87491C18.797 2.09834 20.1528 2.15276 21 2.99995C21.8472 3.84714 21.9016 5.20298 21.125 6.11534ZM7.5 20.5C9.70007 20.2999 11.5 18.7091 11.5 16.4999C11.5 14.2908 9.70914 12.4999 7.5 12.4999C5.29086 12.4999 3.5 14.2908 3.5 16.4999C3.5 17.4152 2.76701 17.5975 1.97191 17.526C1.27604 17.4634 0.763097 18.1159 1.27774 18.5884C2.42418 19.6411 4.40957 20.7809 7.5 20.5Z" fill="black"/>
</svg>
