<svg xmlns="http://www.w3.org/2000/svg" width="24" height="24" viewBox="0 0 24 24">
    <g fill="none" fill-rule="nonzero">
        <path fill="#FFF" fill-opacity=".01" d="M0 0h24v24H0z"/>
        <path fill="#000" d="M12 3C6.477 3 2 6.788 2 11.462c0 2.59 1.38 4.906 3.547 6.458.056 1.182-.128 2.813-1.758 3.566a.385.385 0 0 0 .167.744c1.872-.013 3.462-1.025 4.558-2.094.348-.339.833-.506 1.31-.416.7.133 1.428.203 2.176.203 5.523 0 10-3.788 10-8.461C22 6.788 17.523 3 12 3zm0 3.077a3.08 3.08 0 0 1 3.077 3.077c0 1.32-.824 2.08-1.486 2.692-.51.47-.822.779-.822 1.154h-1.538c0-1.068.73-1.743 1.316-2.285.614-.568.991-.947.991-1.561A1.54 1.54 0 0 0 12 7.615a1.54 1.54 0 0 0-1.538 1.539H8.923A3.08 3.08 0 0 1 12 6.077zm0 8.846a1.154 1.154 0 1 1 0 2.309 1.154 1.154 0 0 1 0-2.309z"/>
    </g>
</svg>
