<svg xmlns="http://www.w3.org/2000/svg" xmlns:xlink="http://www.w3.org/1999/xlink" width="24" height="24" viewBox="0 0 24 24">
    <defs>
        <path id="a" d="M0 0h24v24H0z"/>
    </defs>
    <g fill="none" fill-rule="evenodd">
        <mask id="b" fill="#fff">
            <use xlink:href="#a"/>
        </mask>
        <g fill="#B9C1CD" mask="url(#b)">
            <path d="M21.753 2.404c-2.992-3.16-7.859-3.16-10.85 0l-9.3 9.826c-2.137 2.258-2.137 5.931 0 8.188 1.068 1.13 2.471 1.694 3.875 1.694 1.403 0 2.806-.565 3.875-1.694l8.525-9.007c1.282-1.354 1.282-3.558 0-4.913a3.168 3.168 0 0 0-4.65 0l-5.575 5.89a1.205 1.205 0 0 0 0 1.638 1.055 1.055 0 0 0 1.55 0l5.575-5.89a1.056 1.056 0 0 1 1.55 0 1.206 1.206 0 0 1 0 1.637l-8.525 9.008a3.169 3.169 0 0 1-4.65 0c-1.282-1.355-1.283-3.559 0-4.913l9.3-9.827c2.136-2.257 5.613-2.257 7.75 0 1.035 1.094 1.605 2.548 1.605 4.095 0 1.546-.57 3-1.605 4.094l-9.3 9.826a1.205 1.205 0 0 0 0 1.638c.214.226.494.34.775.34.28 0 .56-.114.775-.34l9.3-9.826C23.202 12.337 24 10.3 24 8.136c0-2.166-.798-4.201-2.247-5.732z"/>
        </g>
    </g>
</svg>
