<svg width="24" height="24" viewBox="0 0 24 24" fill="none" xmlns="http://www.w3.org/2000/svg">
<g clip-path="url(#clip0)">
<path fill-rule="evenodd" clip-rule="evenodd" d="M5 4.25C4.30964 4.25 3.75 4.80964 3.75 5.5C3.75 6.19036 4.30964 6.75 5 6.75H19C19.6904 6.75 20.25 6.19036 20.25 5.5C20.25 4.80964 19.6904 4.25 19 4.25H5ZM3.75 12C3.75 11.3096 4.30964 10.75 5 10.75H19C19.6904 10.75 20.25 11.3096 20.25 12C20.25 12.6904 19.6904 13.25 19 13.25H5C4.30964 13.25 3.75 12.6904 3.75 12ZM3.75 18.5C3.75 17.8096 4.30964 17.25 5 17.25H19C19.6904 17.25 20.25 17.8096 20.25 18.5C20.25 19.1904 19.6904 19.75 19 19.75H5C4.30964 19.75 3.75 19.1904 3.75 18.5Z" fill="black"/>
</g>
<defs>
<clipPath id="clip0">
<path d="M0 0H24V24H0V0Z" fill="white"/>
</clipPath>
</defs>
</svg>
