<?xml version="1.0" encoding="utf-8"?>
<!-- Generator: Adobe Illustrator 22.1.0, SVG Export Plug-In . SVG Version: 6.00 Build 0)  -->
<svg version="1.1" id="Слой_1" xmlns="http://www.w3.org/2000/svg" xmlns:xlink="http://www.w3.org/1999/xlink" x="0px" y="0px"
	 viewBox="0 0 24 24" style="enable-background:new 0 0 24 24;" xml:space="preserve">
<style type="text/css">
	.st0{fill:#676D7A;}
</style>
<path class="st0" d="M17,8h-0.5V5.5C16.5,3,14.5,1,12,1S7.5,3,7.5,5.5V8H7c-1.7,0-3,1.3-3,3v7c0,1.7,1.3,3,3,3h10c1.7,0,3-1.3,3-3
	v-7C20,9.3,18.7,8,17,8z M9.5,5.5C9.5,4.1,10.6,3,12,3c1.4,0,2.5,1.1,2.5,2.5V8h-5V5.5z M18,18c0,0.6-0.4,1-1,1H7c-0.6,0-1-0.4-1-1
	v-7c0-0.6,0.4-1,1-1h1.5h7H17c0.6,0,1,0.4,1,1V18z"/>
</svg>
