<svg xmlns="http://www.w3.org/2000/svg" xmlns:xlink="http://www.w3.org/1999/xlink" width="36" height="36" viewBox="0 0 36 36">
    <defs>
        <path id="a" d="M0 0h36v36H0z"/>
    </defs>
    <g fill="none" fill-rule="evenodd">
        <mask id="b" fill="#fff">
            <use xlink:href="#a"/>
        </mask>
        <use fill="#000" fill-opacity=".01" xlink:href="#a"/>
        <path fill="#000" fill-rule="nonzero" d="M13.156 30.093c.02-.875.072-1.977.194-2.672.133-.753.392-1.659.59-2.296.156-.5.018-1.045-.351-1.416l-3.061-3.079a21.356 21.356 0 0 1 3.878-5.275 21.356 21.356 0 0 1 5.275-3.877l3.08 3.06c.372.37.915.508 1.415.352.637-.197 1.543-.457 2.296-.59.696-.122 1.796-.174 2.672-.195a1.389 1.389 0 0 0 1.356-1.391V7.839c0-.609-.456-1.39-1.389-1.39-6.304 0-12.325 2.556-16.714 6.898C8.056 17.736 5.5 23.757 5.5 30.061c0 .933.78 1.389 1.389 1.389h4.875c.757 0 1.373-.6 1.392-1.357z" mask="url(#b)" transform="rotate(45 18 18.95)"/>
    </g>
</svg>
