<svg xmlns="http://www.w3.org/2000/svg" xmlns:xlink="http://www.w3.org/1999/xlink" width="24" height="24" viewBox="0 0 24 24">
    <defs>
        <path id="a" d="M0 0h23.956v24H0z"/>
    </defs>
    <g fill="none" fill-rule="evenodd">
        <mask id="b" fill="#fff">
            <use xlink:href="#a"/>
        </mask>
        <use fill="#FFF" fill-opacity=".01" fill-rule="nonzero" xlink:href="#a"/>
        <path fill="#40A3FF" fill-rule="nonzero" d="M9.913 16.934l.618.103c.486.08.98.12 1.469.12 4.035 0 7.2-2.63 7.2-5.678C19.2 8.43 16.035 5.8 12 5.8s-7.2 2.63-7.2 5.679c0 1.584.832 3.096 2.358 4.193l.75.539v1.834l2.005-1.11zM6.108 21.1v-3.966C4.128 15.711 3 13.666 3 11.479 3 7.355 7.037 4 12 4s9 3.355 9 7.479c0 4.124-4.037 7.479-9 7.479-.588 0-1.18-.049-1.763-.146L6.107 21.1z" mask="url(#b)"/>
    </g>
</svg>
