<svg width="24" height="24" viewBox="0 0 24 24" fill="none" xmlns="http://www.w3.org/2000/svg">
<path fill-rule="evenodd" clip-rule="evenodd" d="M16.3797 19.8572C18.2446 19.9669 19.75 19.1058 21.0497 17.8061C21.4403 17.4155 21.4403 16.7824 21.0497 16.3918L18.7296 14.0717C18.2536 13.5957 17.4819 13.5957 17.0059 14.0717C16.0142 15.0635 14.3889 15.6571 12.9056 14.8204C12.2664 14.4599 11.5298 13.9429 10.7967 13.2099C10.0636 12.4768 9.54667 11.7401 9.18613 11.101C8.34943 9.61766 8.9431 7.99239 9.93488 7.00061C10.4108 6.52464 10.4108 5.75294 9.93488 5.27697L7.61472 2.95681C7.2242 2.56629 6.59103 2.56629 6.20051 2.95681C4.90074 4.25658 4.03968 5.76192 4.14938 7.62687C4.26135 9.53038 5.39623 12.052 8.67538 15.3312C11.9545 18.6103 14.4762 19.7452 16.3797 19.8572ZM16.2622 21.8537C13.658 21.7005 10.6995 20.1838 7.26117 16.7454C3.8228 13.307 2.30603 10.3486 2.15283 7.74431C1.99737 5.10145 3.25763 3.07126 4.78629 1.5426C5.95787 0.371025 7.85736 0.371025 9.02893 1.5426L11.3491 3.86276C12.6061 5.11978 12.6061 7.15781 11.3491 8.41483C10.7671 8.99678 10.6713 9.66317 10.9281 10.1183C11.2097 10.6175 11.62 11.2048 12.2109 11.7956C12.8018 12.3865 13.3891 12.7969 13.8882 13.0785C14.3434 13.3352 15.0098 13.2394 15.5917 12.6575C16.8488 11.4004 18.8868 11.4004 20.1438 12.6575L22.464 14.9776C23.6355 16.1492 23.6355 18.0487 22.464 19.2203C20.9353 20.7489 18.9051 22.0092 16.2622 21.8537Z" fill="black"/>
</svg>
