<svg width="24" height="24" viewBox="0 0 24 24" fill="none" xmlns="http://www.w3.org/2000/svg">
<g clip-path="url(#clip0)">
<path d="M15.7 3H8.3C6.61984 3 5.77976 3 5.13803 3.32698C4.57354 3.6146 4.1146 4.07354 3.82698 4.63803C3.5 5.27976 3.5 6.11984 3.5 7.8V13.129C3.5 13.9387 3.5 14.3435 3.57765 14.6781C3.83637 15.7931 4.70694 16.6636 5.82186 16.9223C6.15648 17 6.56131 17 7.37097 17C7.39796 17 7.41145 17 7.4226 17.0026C7.45977 17.0112 7.48879 17.0402 7.49741 17.0774C7.5 17.0885 7.5 17.102 7.5 17.129V21.5343C7.5 21.8372 7.5 21.9887 7.5599 22.0588C7.61187 22.1197 7.68984 22.152 7.76961 22.1457C7.86156 22.1384 7.96865 22.0313 8.18284 21.8172L11.5941 18.4059C12.113 17.887 12.3724 17.6276 12.6751 17.4421C12.9436 17.2776 13.2362 17.1564 13.5423 17.0829C13.8876 17 14.2545 17 14.9882 17H15.7C17.3802 17 18.2202 17 18.862 16.673C19.4265 16.3854 19.8854 15.9265 20.173 15.362C20.5 14.7202 20.5 13.8802 20.5 12.2V7.8C20.5 6.11984 20.5 5.27976 20.173 4.63803C19.8854 4.07354 19.4265 3.6146 18.862 3.32698C18.2202 3 17.3802 3 15.7 3Z" stroke="black" stroke-width="2" stroke-linecap="round" stroke-linejoin="round"/>
</g>
<defs>
<clipPath id="clip0">
<rect width="24" height="24" fill="white"/>
</clipPath>
</defs>
</svg>
