<svg width="24" height="24" viewBox="0 0 24 24" fill="none" xmlns="http://www.w3.org/2000/svg">
<g clip-path="url(#clip0)">
<path fill-rule="evenodd" clip-rule="evenodd" d="M13 4.50002V2.6171C13 1.97858 13.747 1.63212 14.2345 2.04456L18.8234 5.92748C19.1774 6.22707 19.1774 6.77298 18.8234 7.07256L14.2345 10.9555C13.747 11.3679 13 11.0215 13 10.3829V8.50002C9.29162 8.50002 7.30225 8.50002 3.84453 11.289C3.51016 11.5587 3.00905 11.3229 3.04709 10.895C3.61558 4.50002 9.20698 4.50002 13 4.50002ZM11 19.5V21.3829C11 22.0215 10.253 22.3679 9.76554 21.9555L5.17664 18.0726C4.82258 17.773 4.82258 17.2271 5.17664 16.9275L9.76554 13.0446C10.253 12.6321 11 12.9786 11 13.6171V15.5C14.7084 15.5 16.6978 15.5 20.1555 12.7111C20.4898 12.4414 20.991 12.6772 20.9529 13.1051C20.3844 19.5 14.793 19.5 11 19.5Z" fill="black"/>
</g>
<defs>
<clipPath id="clip0">
<path d="M0 0H24V24H0V0Z" fill="white"/>
</clipPath>
</defs>
</svg>
