<svg width="24" height="24" viewBox="0 0 24 24" fill="none" xmlns="http://www.w3.org/2000/svg">
<path d="M16.328 4.29498L13.1674 6.27038C12.7331 6.5418 12.5159 6.67752 12.283 6.77355C12.0762 6.85879 11.8605 6.92065 11.64 6.95796C11.3916 6.99998 11.1355 6.99998 10.6234 6.99998H6C3.5 6.99998 2 8.99998 2 11C2 13 3.5 15 6 15V20C6 21.1046 6.89543 22 8 22C9.10457 22 10 21.1046 10 20V15H10.6234C11.1355 15 11.3916 15 11.64 15.042C11.8605 15.0793 12.0762 15.1412 12.283 15.2264C12.5159 15.3225 12.7331 15.4582 13.1674 15.7296L16.328 17.705C17.5265 18.454 18.1257 18.8285 18.6202 18.7888C19.0512 18.7541 19.4464 18.5351 19.7042 18.188C20 17.7897 20 17.0831 20 15.6698V6.33018C20 4.9169 20 4.21025 19.7042 3.81198C19.4464 3.46482 19.0512 3.24583 18.6202 3.21118C18.1257 3.17142 17.5265 3.54594 16.328 4.29498Z" fill="black"/>
</svg>
