<svg width="24" height="24" viewBox="0 0 24 24" fill="none" xmlns="http://www.w3.org/2000/svg">
<g clip-path="url(#clip0)">
<path d="M16.25 4H7.75C6.58515 4 6.00272 4 5.54329 4.1903C4.93072 4.44404 4.44404 4.93072 4.1903 5.54329C4 6.00272 4 6.58515 4 7.75V13.25C4 14.4149 4 14.9973 4.1903 15.4567C4.44404 16.0693 4.93072 16.556 5.54329 16.8097C6.00272 17 6.58515 17 7.75 17H7.985C7.98966 17 7.99199 17 7.99383 17.0008C7.99628 17.0018 7.99822 17.0037 7.99924 17.0062C8 17.008 8 17.0103 8 17.015V21.0947C8 21.3464 8 21.4723 8.04213 21.5353C8.09831 21.6194 8.1996 21.6614 8.29877 21.6416C8.37315 21.6268 8.46216 21.5378 8.64016 21.3598L12.1213 17.8787C12.4094 17.5906 12.5535 17.4465 12.7173 17.3371C12.9357 17.1911 13.1806 17.0897 13.4382 17.0384C13.6314 17 13.8352 17 14.2426 17H16.25C17.4149 17 17.9973 17 18.4567 16.8097C19.0693 16.556 19.556 16.0693 19.8097 15.4567C20 14.9973 20 14.4149 20 13.25V7.75C20 6.58515 20 6.00272 19.8097 5.54329C19.556 4.93072 19.0693 4.44404 18.4567 4.1903C17.9973 4 17.4149 4 16.25 4Z" stroke="#78808F" stroke-width="2" stroke-linecap="round" stroke-linejoin="round"/>
</g>
<defs>
<clipPath id="clip0">
<rect width="24" height="24" fill="white"/>
</clipPath>
</defs>
</svg>
