<svg xmlns="http://www.w3.org/2000/svg" xmlns:xlink="http://www.w3.org/1999/xlink" width="20" height="20" viewBox="0 0 20 20">
    <defs>
        <path id="a" d="M0 0h20v20H0z"/>
    </defs>
    <g fill="none" fill-rule="evenodd">
        <mask id="b" fill="#fff">
            <use xlink:href="#a"/>
        </mask>
        <use fill="#000" fill-opacity=".01" xlink:href="#a"/>
        <path fill="#000" fill-rule="nonzero" d="M14.978 12.947a1.117 1.117 0 0 0-1.138.006l-1.78 1.06c-.397.237-.895.21-1.26-.076-.631-.493-1.648-1.322-2.532-2.207-.885-.884-1.714-1.9-2.207-2.532a1.114 1.114 0 0 1-.076-1.26l1.06-1.78c.21-.351.212-.789.005-1.142L4.44.557A1.125 1.125 0 0 0 3.196.033C2.725.148 2.112.428 1.47 1.07-.543 3.083-1.611 6.477 5.956 14.044c7.567 7.567 10.96 6.5 12.973 4.486.644-.644.923-1.258 1.039-1.731a1.12 1.12 0 0 0-.522-1.237c-1.075-.628-3.393-1.986-4.468-2.615z" mask="url(#b)"/>
    </g>
</svg>
