<svg width="24" height="24" viewBox="0 0 24 24" fill="none" xmlns="http://www.w3.org/2000/svg">
<path fill-rule="evenodd" clip-rule="evenodd" d="M15.6399 20.5933C17.5048 20.703 19.0102 19.8419 20.3099 18.5421C20.7005 18.1516 20.7005 17.5184 20.3099 17.1279L17.9898 14.8078C17.5138 14.3318 16.7421 14.3318 16.2661 14.8078C15.2744 15.7995 13.6491 16.3932 12.1658 15.5565C11.5266 15.196 10.79 14.679 10.0569 13.9459C9.32382 13.2129 8.80686 12.4762 8.44632 11.837C7.60962 10.3537 8.2033 8.72846 9.19507 7.73669C9.67104 7.26072 9.67104 6.48902 9.19507 6.01304L6.87491 3.69289C6.48439 3.30236 5.85122 3.30236 5.4607 3.69289C4.16093 4.99265 3.29987 6.498 3.40957 8.36294C3.52154 10.2665 4.65642 12.7881 7.93557 16.0673C11.2147 19.3464 13.7364 20.4813 15.6399 20.5933ZM15.5224 22.5898C12.9181 22.4366 9.95972 20.9198 6.52136 17.4815C3.08299 14.0431 1.56622 11.0847 1.41302 8.48039C1.25756 5.83753 2.51782 3.80734 4.04648 2.27867C5.21806 1.1071 7.11755 1.1071 8.28912 2.27867L10.6093 4.59883C11.8663 5.85585 11.8663 7.89388 10.6093 9.1509C10.0273 9.73286 9.93154 10.3992 10.1883 10.8544C10.4698 11.3535 10.8802 11.9408 11.4711 12.5317C12.062 13.1226 12.6493 13.533 13.1484 13.8145C13.6036 14.0713 14.27 13.9755 14.8519 13.3935C16.1089 12.1365 18.147 12.1365 19.404 13.3935L21.7242 15.7137C22.8957 16.8853 22.8957 18.7848 21.7242 19.9563C20.1955 21.485 18.1653 22.7453 15.5224 22.5898Z" fill="black"/>
</svg>
