<svg xmlns="http://www.w3.org/2000/svg" width="24" height="24" viewBox="0 0 24 24">
    <g fill="none" fill-rule="evenodd">
        <path fill="#FFF" fill-opacity=".01" d="M0 0h24v24H0z"/>
        <path fill="#000" fill-rule="nonzero" d="M9.6 13.399a1 1 0 0 1 1.6-1.198 3 3 0 0 0 4.525.324l2.388-2.388a3 3 0 0 0-.037-4.205 2.997 2.997 0 0 0-4.195-.047l-1.376 1.368a1 1 0 1 1-1.41-1.418l1.386-1.378a5 5 0 0 1 7.058 7.082l-2.4 2.4a5 5 0 0 1-7.54-.54zm4.8-2.798a1 1 0 1 1-1.6 1.198 3 3 0 0 0-4.525-.324l-2.388 2.388a3 3 0 0 0 .037 4.205 2.997 2.997 0 0 0 4.193.049l1.368-1.368a1 1 0 0 1 1.414 1.414l-1.38 1.38a5 5 0 0 1-7.058-7.082l2.4-2.4a5 5 0 0 1 7.54.54z"/>
    </g>
</svg>
