<svg width="24" height="24" viewBox="0 0 24 24" fill="none" xmlns="http://www.w3.org/2000/svg">
<g clip-path="url(#clip0)">
<path fill-rule="evenodd" clip-rule="evenodd" d="M12 22.75C17.9371 22.75 22.75 17.9371 22.75 12C22.75 6.06294 17.9371 1.25 12 1.25C6.06294 1.25 1.25 6.06294 1.25 12C1.25 17.9371 6.06294 22.75 12 22.75ZM8.64639 14.256L9.92681 12.122C10.2336 11.6106 10.387 11.355 10.5739 11.1273C10.7398 10.9252 10.9252 10.7398 11.1273 10.5739C11.355 10.387 11.6106 10.2336 12.122 9.92681L14.256 8.64638C15.0621 8.16274 15.4651 7.92091 15.6684 7.97392C15.8436 8.01959 15.9804 8.1564 16.0261 8.33158C16.0791 8.53485 15.8373 8.93789 15.3536 9.74398L14.0732 11.878C13.7664 12.3894 13.613 12.645 13.4261 12.8727C13.2602 13.0748 13.0748 13.2602 12.8727 13.4261C12.645 13.613 12.3894 13.7664 11.878 14.0732L9.74397 15.3536C8.93789 15.8373 8.53485 16.0791 8.33158 16.0261C8.1564 15.9804 8.01959 15.8436 7.97392 15.6684C7.92091 15.4651 8.16274 15.0621 8.64639 14.256Z" fill="black"/>
</g>
<defs>
<clipPath id="clip0">
<rect width="24" height="24" fill="white"/>
</clipPath>
</defs>
</svg>
