<svg width="24" height="24" viewBox="0 0 24 24" fill="none" xmlns="http://www.w3.org/2000/svg">
<g clip-path="url(#clip0)">
<path d="M13 6.5V6.6412C14.1556 6.97564 15.0748 7.8762 15.3871 9.04104C15.5301 9.57448 15.2136 10.1229 14.6802 10.2659C14.1468 10.4089 13.5984 10.0924 13.4554 9.55896C13.2985 8.97408 12.7261 8.5 12 8.5H11.7508C11.0211 8.5 10.5 9.05778 10.5 9.66079C10.5 10.1762 10.8781 10.6676 11.4753 10.793L12.8676 11.0854C14.3768 11.4023 15.5 12.7016 15.5 14.2561C15.5 15.794 14.4169 17.0384 13 17.3962V17.5C13 18.0523 12.5523 18.5 12 18.5C11.4477 18.5 11 18.0523 11 17.5V17.3588C9.84441 17.0244 8.92517 16.1238 8.61287 14.959C8.46985 14.4255 8.78636 13.8771 9.3198 13.7341C9.85324 13.5911 10.4016 13.9076 10.5446 14.441C10.7015 15.0259 11.2739 15.5 12 15.5H12.1626C12.9401 15.5 13.5 14.905 13.5 14.2561C13.5 13.7016 13.0935 13.1765 12.4566 13.0427L11.0643 12.7503C9.5949 12.4417 8.5 11.1762 8.5 9.66079C8.5 8.13822 9.58876 6.91197 11 6.58552V6.5C11 5.94772 11.4477 5.5 12 5.5C12.5523 5.5 13 5.94772 13 6.5Z" fill="#000000"/>
<path fill-rule="evenodd" clip-rule="evenodd" d="M12 1C5.92487 1 1 5.92487 1 12C1 18.0751 5.92487 23 12 23C18.0751 23 23 18.0751 23 12C23 5.92487 18.0751 1 12 1ZM3 12C3 7.02944 7.02944 3 12 3C16.9706 3 21 7.02944 21 12C21 16.9706 16.9706 21 12 21C7.02944 21 3 16.9706 3 12Z" fill="#71747A"/>
</g>
<defs>
<clipPath id="clip0">
<rect width="24" height="24" fill="white"/>
</clipPath>
</defs>
</svg>
