<svg width="24" height="24" viewBox="0 0 24 24" fill="none" xmlns="http://www.w3.org/2000/svg">
<g clip-path="url(#clip0)">
<path d="M2 5H4M22 5H20M4 5L5.10314 17.1346C5.24323 18.6756 5.31328 19.4461 5.65838 20.0288C5.9623 20.5419 6.41229 20.9529 6.95087 21.2091C7.56242 21.5 8.33609 21.5 9.88343 21.5H14.1166C15.6639 21.5 16.4376 21.5 17.0491 21.2091C17.5877 20.9529 18.0377 20.5419 18.3416 20.0288C18.6867 19.4461 18.7568 18.6756 18.8969 17.1346L20 5M4 5H8.5M20 5H15.5M8.5 5C8.5 5 9 1.5 12 1.5C15 1.5 15.5 5 15.5 5M8.5 5H15.5" stroke="black" stroke-width="2" stroke-linecap="round" stroke-linejoin="round"/>
</g>
<defs>
<clipPath id="clip0">
<rect width="24" height="24" fill="white"/>
</clipPath>
</defs>
</svg>
