<svg width="12" height="12" viewBox="0 0 12 12" fill="none" xmlns="http://www.w3.org/2000/svg">
<path fill-rule="evenodd" clip-rule="evenodd" d="M5.07043 2H6.92957C6.73551 1.71015 6.45772 1.5 6 1.5C5.54228 1.5 5.26449 1.71015 5.07043 2ZM8.58336 2C8.51984 1.81361 8.43138 1.5995 8.30893 1.38202C7.94239 0.731059 7.22994 0 6 0C4.77006 0 4.05761 0.731059 3.69107 1.38202C3.56862 1.5995 3.48016 1.81361 3.41664 2H1C0.585786 2 0.25 2.33579 0.25 2.75C0.25 3.16421 0.585786 3.5 1 3.5H1.31702L1.80182 8.67119C1.83565 9.03215 1.86499 9.34521 1.90966 9.60282C1.95703 9.87599 2.03024 10.1448 2.18227 10.4004C2.41053 10.7841 2.74777 11.0912 3.15109 11.2826C3.4197 11.4101 3.69421 11.4579 3.97061 11.4796C4.23126 11.5 4.5457 11.5 4.90825 11.5H7.09175C7.4543 11.5 7.76874 11.5 8.02939 11.4796C8.30579 11.4579 8.5803 11.4101 8.84891 11.2826C9.25223 11.0912 9.58947 10.7841 9.81773 10.4004C9.96976 10.1448 10.043 9.87599 10.0903 9.60282C10.135 9.3452 10.1644 9.03213 10.1982 8.67115L10.683 3.5H11C11.4142 3.5 11.75 3.16421 11.75 2.75C11.75 2.33579 11.4142 2 11 2H8.58336ZM9.1764 3.5H2.8236L3.29273 8.50401C3.32984 8.89988 3.35418 9.15381 3.3876 9.34652C3.41944 9.53011 3.45063 9.59856 3.47139 9.63346C3.54748 9.76135 3.65989 9.86372 3.79433 9.92754C3.83101 9.94495 3.90208 9.96962 4.08784 9.98418C4.28283 9.99946 4.53792 10 4.93552 10H7.06448C7.46208 10 7.71717 9.99946 7.91216 9.98418C8.09792 9.96962 8.16899 9.94495 8.20567 9.92754C8.34011 9.86372 8.45252 9.76135 8.52861 9.63346C8.54937 9.59856 8.58056 9.53011 8.6124 9.34652C8.64582 9.15381 8.67016 8.89988 8.70727 8.50401L9.1764 3.5Z" fill="#000000"/>
</svg>
