<svg width="16" height="16" viewBox="0 0 16 16" fill="none" xmlns="http://www.w3.org/2000/svg">
<path fill-rule="evenodd" clip-rule="evenodd" d="M2.5753 1.91866C3.0501 1.33728 3.761 1 4.51163 1H11.4883C12.2389 1 12.9499 1.33728 13.4247 1.91866L15.2579 4.1635C15.8592 4.89972 15.8592 5.95742 15.2579 6.69364L9.16177 14.1583C8.56158 14.8933 7.43837 14.8933 6.83818 14.1583L0.742012 6.69364C0.140765 5.95742 0.140765 4.89972 0.742012 4.1635L2.5753 1.91866ZM4.51163 3C4.3615 3 4.21932 3.06746 4.12436 3.18373L2.29108 5.42857L2.34941 5.5H13.6505L13.7089 5.42857L11.8756 3.18373C11.7806 3.06746 11.6384 3 11.4883 3H4.51163Z" fill="black"/>
</svg>
