<svg width="24" height="24" viewBox="0 0 24 24" fill="none" xmlns="http://www.w3.org/2000/svg">
<g clip-path="url(#clip0)">
<path d="M5 6.75C5 5.58515 5 5.00272 5.1903 4.54329C5.44404 3.93072 5.93072 3.44404 6.54329 3.1903C7.00272 3 7.58515 3 8.75 3H11.4467C11.956 3 12.2107 3 12.4522 3.04804C12.7742 3.11209 13.0804 3.23893 13.3534 3.42133C13.5581 3.55812 13.7382 3.7382 14.0983 4.09835L17.9017 7.90165C18.2618 8.2618 18.4419 8.44188 18.5787 8.64661C18.7611 8.91958 18.8879 9.22581 18.952 9.54781C19 9.78931 19 10.044 19 10.5533V17.25C19 18.4149 19 18.9973 18.8097 19.4567C18.556 20.0693 18.0693 20.556 17.4567 20.8097C16.9973 21 16.4149 21 15.25 21H8.75C7.58515 21 7.00272 21 6.54329 20.8097C5.93072 20.556 5.44404 20.0693 5.1903 19.4567C5 18.9973 5 18.4149 5 17.25V6.75Z" stroke="black" stroke-width="2" stroke-linecap="round" stroke-linejoin="round"/>
<path d="M13 9V8.41421L13.5858 9H13Z" stroke="black" stroke-width="2" stroke-linejoin="round"/>
</g>
<defs>
<clipPath id="clip0">
<rect width="24" height="24" fill="white"/>
</clipPath>
</defs>
</svg>
