<svg width="24" height="24" viewBox="0 0 24 24" fill="none" xmlns="http://www.w3.org/2000/svg">
<g clip-path="url(#clip0)">
<path fill-rule="evenodd" clip-rule="evenodd" d="M16.3519 1.55679C17.087 1.25231 17.913 1.25231 18.6481 1.55679C18.974 1.6918 19.2423 1.89007 19.4914 2.10738C19.728 2.31377 19.9956 2.5814 20.3058 2.89157L21.1084 3.69419C21.4186 4.00435 21.6862 4.27198 21.8926 4.5086C22.1099 4.75774 22.3082 5.02602 22.4432 5.35195C22.7477 6.08704 22.7477 6.91297 22.4432 7.64805C22.3082 7.97398 22.1099 8.24227 21.8926 8.49141C21.6862 8.72803 21.4186 8.99566 21.1084 9.30583L11.7005 18.7137C9.27617 21.138 5.98811 22.5 2.55964 22.5C1.97442 22.5 1.5 22.0256 1.5 21.4404C1.5 18.0119 2.86196 14.7238 5.28626 12.2995L14.6942 2.89162C15.0043 2.58143 15.272 2.31378 15.5086 2.10738C15.7577 1.89007 16.026 1.6918 16.3519 1.55679ZM17.8827 3.40455C17.6377 3.30306 17.3623 3.30306 17.1173 3.40455C17.0757 3.42179 16.9955 3.46437 16.8233 3.61458C16.6443 3.77072 16.4249 3.98928 16.0858 4.32843L15.4142 5L19 8.58579L19.6716 7.91422C20.0107 7.57507 20.2293 7.35574 20.3854 7.17674C20.5356 7.00452 20.5782 6.9243 20.5955 6.88269C20.6969 6.63766 20.6969 6.36235 20.5955 6.11732C20.5782 6.07571 20.5356 5.99549 20.3854 5.82327C20.2293 5.64426 20.0107 5.42494 19.6716 5.08579L18.9142 4.32843C18.5751 3.98928 18.3557 3.77072 18.1767 3.61458C18.0045 3.46437 17.9243 3.42179 17.8827 3.40455ZM17.5858 10L14 6.41422L6.70047 13.7137C4.88467 15.5296 3.77392 17.9186 3.54444 20.4556C6.08138 20.2261 8.47045 19.1153 10.2863 17.2995L17.5858 10Z" fill="black"/>
</g>
<defs>
<clipPath id="clip0">
<rect width="24" height="24" fill="white"/>
</clipPath>
</defs>
</svg>
