<svg width="24" height="24" viewBox="0 0 24 24" fill="none" xmlns="http://www.w3.org/2000/svg">
<g clip-path="url(#clip0)">
<path d="M14.5 4.5L5.49336 13.5066C3.2566 15.7434 2 18.7771 2 21.9404V21.9404C2 21.9733 2.0267 22 2.05964 22V22C5.2229 22 8.2566 20.7434 10.4934 18.5066L19.5 9.5M14.5 4.5L15.8787 3.12132C16.5376 2.46238 16.8671 2.13291 17.2346 1.98067C17.7247 1.77768 18.2753 1.77768 18.7654 1.98067C19.1329 2.13291 19.4624 2.46238 20.1213 3.12132L20.8787 3.87868C21.5376 4.53762 21.8671 4.86709 22.0193 5.23463C22.2223 5.72469 22.2223 6.27531 22.0193 6.76537C21.8671 7.13291 21.5376 7.46238 20.8787 8.12132L19.5 9.5M14.5 4.5L19.5 9.5" stroke="black" stroke-width="2" stroke-linecap="round" stroke-linejoin="round"/>
</g>
<defs>
<clipPath id="clip0">
<rect width="24" height="24" fill="white"/>
</clipPath>
</defs>
</svg>
