<svg width="24" height="24" viewBox="0 0 24 24" fill="none" xmlns="http://www.w3.org/2000/svg">
<g clip-path="url(#clip0)">
<path fill-rule="evenodd" clip-rule="evenodd" d="M1.25 11.9999C1.25 6.06282 6.06294 1.24988 12 1.24988C17.9371 1.24988 22.75 6.06282 22.75 11.9999C22.75 17.9369 17.9371 22.7499 12 22.7499C6.06294 22.7499 1.25 17.9369 1.25 11.9999ZM12 3.24988C7.16751 3.24988 3.25 7.16739 3.25 11.9999C3.25 16.4942 6.63843 20.1971 11 20.6934V14H9.5C8.94772 14 8.5 13.5523 8.5 13C8.5 12.4477 8.94772 12 9.5 12H11V10C11 8.067 12.567 6.5 14.5 6.5H15C15.5523 6.5 16 6.94772 16 7.5C16 8.05228 15.5523 8.5 15 8.5H14.5C13.6716 8.5 13 9.17157 13 10V12H14.5C15.0523 12 15.5 12.4477 15.5 13C15.5 13.5523 15.0523 14 14.5 14H13V20.6934C17.3616 20.1971 20.75 16.4942 20.75 11.9999C20.75 7.16739 16.8325 3.24988 12 3.24988Z" fill="black"/>
</g>
<defs>
<clipPath id="clip0">
<rect width="24" height="24" fill="white"/>
</clipPath>
</defs>
</svg>
