<svg width="24" height="24" viewBox="0 0 24 24" fill="none" xmlns="http://www.w3.org/2000/svg">
<g clip-path="url(#clip0)">
<path fill-rule="evenodd" clip-rule="evenodd" d="M5.31623 1.55132C5.31628 1.55133 5.31618 1.5513 5.31623 1.55132L5.32186 1.55318L5.3442 1.5605C5.3645 1.56712 5.39543 1.57713 5.43602 1.59004C5.51722 1.61588 5.63691 1.65329 5.78735 1.69842C6.0887 1.78883 6.51089 1.90945 6.99254 2.02986C7.97843 2.27633 9.12913 2.5 10 2.5C10.8216 2.5 11.4342 2.30118 12.1838 2.05132L12.2137 2.04133C12.9578 1.79324 13.8373 1.5 15 1.5C16.1291 1.5 17.4784 1.77633 18.4925 2.02986C19.0109 2.15945 19.4637 2.28883 19.7873 2.38592C19.9494 2.43454 20.0797 2.47526 20.1704 2.50411C20.2157 2.51853 20.2512 2.53001 20.2758 2.53804L20.3045 2.54744L20.3125 2.55009L20.316 2.55124C20.3161 2.55128 20.3162 2.55132 20 3.5L20.316 2.55124C20.7243 2.68736 21 3.06957 21 3.5V15.5C21 15.8214 20.8455 16.1233 20.5847 16.3112C20.3239 16.4992 19.9887 16.5503 19.6838 16.4487L19.6781 16.4468L19.6558 16.4395C19.6355 16.4329 19.6046 16.4229 19.564 16.41C19.4828 16.3841 19.3631 16.3467 19.2127 16.3016C18.9113 16.2112 18.4891 16.0906 18.0075 15.9701C17.0216 15.7237 15.8709 15.5 15 15.5C14.1784 15.5 13.5658 15.6988 12.8162 15.9487L12.7863 15.9587C12.0422 16.2068 11.1627 16.5 10 16.5C8.87088 16.5 7.52157 16.2237 6.50746 15.9701C6.32975 15.9257 6.15974 15.8813 6 15.8382V22C6 22.5523 5.55228 23 5 23C4.44772 23 4 22.5523 4 22V2.5C4 2.17856 4.15452 1.87671 4.41529 1.68876C4.67601 1.50084 5.01133 1.44975 5.31623 1.55132ZM6 13.7612C6.27475 13.8412 6.61542 13.9356 6.99254 14.0299C7.97843 14.2763 9.12913 14.5 10 14.5C10.8216 14.5 11.4342 14.3012 12.1838 14.0513L12.2137 14.0413C12.9578 13.7932 13.8373 13.5 15 13.5C16.1291 13.5 17.4784 13.7763 18.4925 14.0299C18.6702 14.0743 18.8403 14.1187 19 14.1618V4.23876C18.7252 4.15883 18.3846 4.06442 18.0075 3.97014C17.0216 3.72367 15.8709 3.5 15 3.5C14.1784 3.5 13.5658 3.69882 12.8162 3.94868L12.7863 3.95867C12.0422 4.20676 11.1627 4.5 10 4.5C8.87088 4.5 7.52157 4.22367 6.50746 3.97014C6.32975 3.92571 6.15974 3.88131 6 3.83822V13.7612Z" fill="black"/>
</g>
<defs>
<clipPath id="clip0">
<rect width="24" height="24" fill="white"/>
</clipPath>
</defs>
</svg>
