<svg width="24" height="24" viewBox="0 0 24 24" fill="none" xmlns="http://www.w3.org/2000/svg">
<path fill-rule="evenodd" clip-rule="evenodd" d="M13.277 0.539158C13.5734 0.624638 13.8138 0.842162 13.9284 1.12861C14.7211 3.11021 16.1085 4.47507 17.5785 5.92116C17.7869 6.12611 17.9969 6.33269 18.2071 6.54289C19.8494 8.18523 21.4999 10.0649 21.4999 13C21.4999 18.5134 17.5903 22.75 11.9999 22.75C6.32348 22.75 2.63653 17.5005 2.50041 13.0304C2.43033 10.7289 3.2762 8.78464 4.10241 7.44593C4.51819 6.77225 4.93803 6.23697 5.25611 5.86775C5.41551 5.68271 5.55039 5.53818 5.64788 5.4376C5.69665 5.38727 5.73616 5.34785 5.76481 5.31976C5.77914 5.30572 5.79076 5.29449 5.79948 5.28615L5.81036 5.27579L5.81412 5.27224L5.81557 5.27087C5.81722 5.26933 5.81674 5.26978 5.81674 5.26978C6.08896 5.01509 6.48025 4.93296 6.8319 5.05671C7.1833 5.18037 7.4368 5.48909 7.48978 5.85777L7.49157 5.86974L7.4993 5.9188C7.50655 5.96357 7.51805 6.03181 7.53428 6.12014C7.56676 6.29699 7.61795 6.55324 7.6915 6.86214C7.83951 7.48379 8.07371 8.3002 8.41909 9.10609C8.77843 9.94456 9.20308 10.6523 9.69746 11.158C9.49462 10.4941 9.30623 9.71833 9.19598 8.88046C8.85772 6.30968 9.25008 2.99067 12.4117 0.691272C12.6613 0.509811 12.9806 0.453677 13.277 0.539158Z" fill="#1885F2"/>
</svg>
