<svg width="24" height="24" viewBox="0 0 24 24" fill="none" xmlns="http://www.w3.org/2000/svg">
<g clip-path="url(#clip0)">
<path d="M4 16V16.25C4 17.4149 4 17.9973 4.1903 18.4567C4.44404 19.0693 4.93072 19.556 5.54329 19.8097C6.00272 20 6.58515 20 7.75 20H16.25C17.4149 20 17.9973 20 18.4567 19.8097C19.0693 19.556 19.556 19.0693 19.8097 18.4567C20 17.9973 20 17.4149 20 16.25V14M4 16V7.75C4 6.58515 4 6.00272 4.1903 5.54329C4.44404 4.93072 4.93072 4.44404 5.54329 4.1903C6.00272 4 6.58515 4 7.75 4H16.25C17.4149 4 17.9973 4 18.4567 4.1903C19.0693 4.44404 19.556 4.93072 19.8097 5.54329C20 6.00272 20 6.58515 20 7.75V14M4 16L7.5 12.5L10.5 15.5L16 10L20 14" stroke="black" stroke-width="2" stroke-linecap="round" stroke-linejoin="round"/>
<circle cx="9.5" cy="8.5" r="1.5" fill="black"/>
</g>
<defs>
<clipPath id="clip0">
<rect width="24" height="24" fill="white"/>
</clipPath>
</defs>
</svg>
