<svg width="24" height="24" viewBox="0 0 24 24" fill="none" xmlns="http://www.w3.org/2000/svg">
<g clip-path="url(#clip0)">
<path fill-rule="evenodd" clip-rule="evenodd" d="M6.75012 5.74994C6.75012 4.5073 7.75748 3.49994 9.00012 3.49994C10.2428 3.49994 11.2501 4.5073 11.2501 5.74994C11.2501 6.99258 10.2428 7.99994 9.00012 7.99994C7.75748 7.99994 6.75012 6.99258 6.75012 5.74994ZM9.00012 1.49994C6.65291 1.49994 4.75012 3.40273 4.75012 5.74994C4.75012 8.09715 6.65291 9.99994 9.00012 9.99994C11.3473 9.99994 13.2501 8.09715 13.2501 5.74994C13.2501 3.40273 11.3473 1.49994 9.00012 1.49994ZM9.00012 11.9999C2.49679 11.9999 0.00012207 16.3999 0.00012207 18.4999C0.00012207 19.4772 0.330236 20.3693 0.980515 21.0195C1.63079 21.6698 2.52287 21.9999 3.50012 21.9999H3.50899H3.518H3.52716H3.53646H3.54591H3.55551H3.56526H3.57515H3.58518H3.59535H3.60567H3.61614H3.62674H3.63748H3.64837H3.65939H3.67056H3.68186H3.6933H3.70488H3.7166H3.72845H3.74044H3.75257H3.76483H3.77722H3.78975H3.80241H3.8152H3.82813H3.84118H3.85437H3.86769H3.88113H3.89471H3.90841H3.92225H3.93621H3.95029H3.9645H3.97884H3.9933H4.00789H4.0226H4.03744H4.05239H4.06747H4.08267H4.09799H4.11343H4.129H4.14468H4.16047H4.17639H4.19243H4.20858H4.22484H4.24123H4.25772H4.27434H4.29106H4.3079H4.32485H4.34192H4.3591H4.37638H4.39378H4.41129H4.4289H4.44663H4.46446H4.4824H4.50045H4.5186H4.53686H4.55523H4.5737H4.59227H4.61095H4.62973H4.64861H4.6676H4.68668H4.70587H4.72515H4.74454H4.76402H4.7836H4.80328H4.82306H4.84293H4.8629H4.88297H4.90313H4.92338H4.94373H4.96417H4.9847H5.00532H5.02604H5.04684H5.06774H5.08872H5.1098H5.13096H5.15221H5.17355H5.19497H5.21648H5.23808H5.25976H5.28152H5.30337H5.3253H5.34732H5.36941H5.39159H5.41385H5.43619H5.45861H5.4811H5.50368H5.52633H5.54906H5.57187H5.59475H5.61771H5.64075H5.66386H5.68704H5.71029H5.73362H5.75702H5.78049H5.80404H5.82765H5.85133H5.87508H5.8989H5.92279H5.94675H5.97077H5.99486H6.01901H6.04323H6.06752H6.09186H6.11628H6.14075H6.16529H6.18988H6.21454H6.23926H6.26404H6.28888H6.31378H6.33873H6.36374H6.38881H6.41394H6.43912H6.46436H6.48965H6.515H6.5404H6.56585H6.59135H6.61691H6.64252H6.66817H6.69388H6.71964H6.74545H6.7713H6.7972H6.82315H6.84915H6.87519H6.90127H6.92741H6.95358H6.9798H7.00606H7.03237H7.05871H7.0851H7.11153H7.138H7.16451H7.19105H7.21764H7.24426H7.27092H7.29762H7.32435H7.35112H7.37792H7.40476H7.43163H7.45854H7.48548H7.51244H7.53944H7.56648H7.59354H7.62063H7.64775H7.6749H7.70207H7.72928H7.75651H7.78376H7.81105H7.83835H7.86568H7.89304H7.92042H7.94782H7.97524H8.00269H8.03015H8.05764H8.08515H8.11267H8.14021H8.16778H8.19536H8.22295H8.25056H8.27819H8.30583H8.33349H8.36116H8.38885H8.41655H8.44426H8.47198H8.49971H8.52745H8.55521H8.58297H8.61074H8.63852H8.66631H8.6941H8.7219H8.7497H8.77752H8.80533H8.83315H8.86097H8.8888H8.91663H8.94446H8.97229H9.00012H9.02795H9.05579H9.08362H9.11144H9.13927H9.16709H9.19491H9.22273H9.25054H9.27835H9.30615H9.33394H9.36173H9.3895H9.41728H9.44504H9.47279H9.50053H9.52827H9.55599H9.5837H9.6114H9.63908H9.66675H9.69441H9.72205H9.74968H9.77729H9.80489H9.83247H9.86003H9.88757H9.9151H9.9426H9.97009H9.99756H10.025H10.0524H10.0798H10.1072H10.1346H10.1619H10.1892H10.2165H10.2437H10.271H10.2982H10.3253H10.3525H10.3796H10.4067H10.4338H10.4608H10.4878H10.5148H10.5417H10.5686H10.5955H10.6223H10.6491H10.6759H10.7026H10.7293H10.756H10.7826H10.8092H10.8357H10.8622H10.8887H10.9151H10.9415H10.9679H10.9942H11.0204H11.0467H11.0728H11.099H11.1251H11.1511H11.1771H11.203H11.2289H11.2548H11.2806H11.3064H11.3321H11.3577H11.3833H11.4089H11.4344H11.4598H11.4852H11.5106H11.5359H11.5611H11.5863H11.6114H11.6365H11.6615H11.6865H11.7114H11.7362H11.761H11.7857H11.8104H11.835H11.8595H11.884H11.9084H11.9327H11.957H11.9812H12.0054H12.0295H12.0535H12.0775H12.1013H12.1252H12.1489H12.1726H12.1962H12.2198H12.2432H12.2666H12.29H12.3132H12.3364H12.3595H12.3825H12.4055H12.4284H12.4512H12.4739H12.4966H12.5191H12.5416H12.5641H12.5864H12.6087H12.6308H12.6529H12.6749H12.6969H12.7187H12.7405H12.7622H12.7838H12.8053H12.8267H12.848H12.8693H12.8904H12.9115H12.9325H12.9534H12.9742H12.9949H13.0155H13.0361H13.0565H13.0769H13.0971H13.1173H13.1373H13.1573H13.1772H13.197H13.2166H13.2362H13.2557H13.2751H13.2944H13.3136H13.3326H13.3516H13.3705H13.3893H13.408H13.4265H13.445H13.4634H13.4816H13.4998H13.5178H13.5358H13.5536H13.5713H13.589H13.6065H13.6239H13.6411H13.6583H13.6754H13.6923H13.7092H13.7259H13.7425H13.759H13.7754H13.7917H13.8078H13.8239H13.8398H13.8556H13.8712H13.8868H13.9023H13.9176H13.9328H13.9479H13.9628H13.9776H13.9924H14.0069H14.0214H14.0357H14.05H14.064H14.078H14.0918H14.1055H14.1191H14.1326H14.1459H14.1591H14.1721H14.185H14.1978H14.2105H14.223H14.2354H14.2477H14.2598H14.2718H14.2836H14.2954H14.3069H14.3184H14.3297H14.3409H14.3519H14.3628H14.3735H14.3841H14.3946H14.4049H14.4151H14.4251H14.435H14.4447H14.4543H14.4638H14.4731H14.4822H14.4913H14.5001C15.4774 21.9999 16.3694 21.6698 17.0197 21.0195C17.67 20.3693 18.0001 19.4772 18.0001 18.4999C18.0001 16.3999 15.5035 11.9999 9.00012 11.9999ZM2.00012 18.4999C2.00012 17.5999 3.50345 13.9999 9.00012 13.9999C9.76274 13.9999 10.4485 14.0692 11.064 14.191C12.1669 14.4092 13.0443 14.7958 13.7345 15.2541C15.4358 16.3836 16.0001 17.9485 16.0001 18.4999C16.0001 19.0227 15.8302 19.3806 15.6055 19.6053C15.3808 19.8301 15.0229 19.9999 14.5001 19.9999H14.4931H14.4913H14.4822H14.4731H14.4708H14.4638H14.4543H14.4485H14.4447H14.435H14.4263H14.4251H14.4151H14.4049H14.404H14.3946H14.3841H14.3818H14.3735H14.3628H14.3597H14.3519H14.3409H14.3375H14.3297H14.3184H14.3154H14.3069H14.2954H14.2934H14.2836H14.2718H14.2713H14.2598H14.2493H14.2477H14.2354H14.2273H14.223H14.2105H14.2054H14.1978H14.185H14.1835H14.1721H14.1616H14.1591H14.1459H14.1397H14.1326H14.1191H14.1179H14.1055H14.0961H14.0918H14.078H14.0744H14.064H14.0527H14.05H14.0357H14.031H14.0214H14.0094H14.0069H13.9924H13.9878H13.9776H13.9663H13.9628H13.9479H13.9447H13.9328H13.9233H13.9176H13.9023H13.9018H13.8868H13.8804H13.8712H13.8591H13.8556H13.8398H13.8378H13.8239H13.8165H13.8078H13.7953H13.7917H13.7754H13.7741H13.759H13.7529H13.7425H13.7318H13.7259H13.7108H13.7092H13.6923H13.6897H13.6754H13.6688H13.6583H13.6479H13.6411H13.627H13.6239H13.6065H13.6061H13.589H13.5853H13.5713H13.5646H13.5536H13.5439H13.5358H13.5233H13.5178H13.5027H13.4998H13.4821H13.4816H13.4634H13.4616H13.445H13.4412H13.4265H13.4208H13.408H13.4004H13.3893H13.3801H13.3705H13.3599H13.3516H13.3397H13.3326H13.3195H13.3136H13.2994H13.2944H13.2794H13.2751H13.2594H13.2557H13.2395H13.2362H13.2196H13.2166H13.1998H13.197H13.18H13.1772H13.1603H13.1573H13.1406H13.1373H13.121H13.1173H13.1015H13.0971H13.082H13.0769H13.0626H13.0565H13.0432H13.0361H13.0239H13.0155H13.0047H12.9949H12.9855H12.9742H12.9663H12.9534H12.9473H12.9325H12.9283H12.9115H12.9093H12.8904H12.8716H12.8693H12.8529H12.848H12.8342H12.8267H12.8156H12.8053H12.797H12.7838H12.7785H12.7622H12.7601H12.7417H12.7405H12.7234H12.7187H12.7052H12.6969H12.687H12.6749H12.6689H12.6529H12.6509H12.6329H12.6308H12.615H12.6087H12.5972H12.5864H12.5794H12.5641H12.5618H12.5442H12.5416H12.5266H12.5191H12.5091H12.4966H12.4917H12.4744H12.4739H12.4572H12.4512H12.44H12.4284H12.4229H12.4059H12.4055H12.3889H12.3825H12.372H12.3595H12.3552H12.3385H12.3364H12.3219H12.3132H12.3053H12.29H12.2888H12.2724H12.2666H12.2561H12.2432H12.2398H12.2236H12.2198H12.2075H12.1962H12.1915H12.1756H12.1726H12.1597H12.1489H12.1439H12.1282H12.1252H12.1126H12.1013H12.0971H12.0817H12.0775H12.0663H12.0535H12.051H12.0359H12.0295H12.0208H12.0057H12.0054H11.9908H11.9812H11.976H11.9612H11.957H11.9465H11.9327H11.932H11.9175H11.9084H11.9031H11.8888H11.884H11.8745H11.8604H11.8595H11.8464H11.835H11.8324H11.8186H11.8104H11.8048H11.7911H11.7857H11.7775H11.7641H11.761H11.7507H11.7374H11.7362H11.7242H11.7114H11.7111H11.6981H11.6865H11.6851H11.6723H11.6615H11.6596H11.647H11.6365H11.6345H11.622H11.6114H11.6097H11.5975H11.5863H11.5854H11.5733H11.5614H11.5611H11.5496H11.5379H11.5359H11.5263H11.5147H11.5106H11.5033H11.492H11.4852H11.4808H11.4697H11.4598H11.4587H11.4478H11.437H11.4344H11.4264H11.4158H11.4089H11.4053H11.395H11.3847H11.3833H11.3746H11.3646H11.3577H11.3547H11.3448H11.3351H11.3321H11.3256H11.3161H11.3067H11.3064H11.2975H11.2883H11.2806H11.2793H11.2704H11.2616H11.2548H11.2529H11.2443H11.2359H11.2289H11.2275H11.2193H11.2112H11.2032H11.203H11.1954H11.1876H8.19914H8.19536H8.16778H8.14021H8.11267H8.08515H8.05764H8.03015H8.00269H7.97524H7.94782H7.92042H7.89304H7.86568H7.83835H7.81105H7.78376H7.75651H7.72928H7.70207H7.6749H7.64775H7.62063H7.59354H7.56648H7.53944H7.51244H7.48548H7.45854H7.43163H7.40476H7.37792H7.35112H7.32435H7.29762H7.27092H7.24426H7.21764H7.19105H7.16451H7.138H7.11153H7.0851H7.05871H7.03237H7.00606H6.9798H6.95358H6.92741H6.90127H6.87519H6.84915H6.82315H6.7972H6.7713H6.74545H6.71964H6.69388H6.66817H6.64252H6.61691H6.59135H6.56585H6.5404H6.515H6.48965H6.46436H6.43912H6.41394H6.38881H6.36374H6.33873H6.31378H6.28888H6.26404H6.23926H6.21454H6.18988H6.16529H6.14075H6.11628H6.09186H6.06752H6.04323H6.01901H5.99486H5.97077H5.94675H5.92279H5.8989H5.87508H5.85133H5.82765H5.80404H5.78049H5.75702H5.73362H5.71029H5.68704H5.66386H5.64075H5.61771H5.59475H5.57187H5.54906H5.52633H5.50368H5.4811H5.45861H5.43619H5.41385H5.39159H5.36941H5.34732H5.3253H5.30337H5.28152H5.25976H5.23808H5.21648H5.19497H5.17355H5.15221H5.13096H5.1098H5.08872H5.06774H5.04684H5.02604H5.00532H4.9847H4.96417H4.94373H4.92338H4.90313H4.88297H4.8629H4.84293H4.82306H4.80328H4.7836H4.76402H4.74454H4.72515H4.70587H4.68668H4.6676H4.64861H4.62973H4.61095H4.59227H4.5737H4.55523H4.53686H4.5186H4.50045H4.4824H4.46446H4.44663H4.4289H4.41129H4.39378H4.37638H4.3591H4.34192H4.32485H4.3079H4.29106H4.27434H4.25772H4.24123H4.22484H4.20858H4.19243H4.17639H4.16047H4.14468H4.129H4.11343H4.09799H4.08267H4.06747H4.05239H4.03744H4.0226H4.00789H3.9933H3.97884H3.9645H3.95029H3.93621H3.92225H3.90841H3.89471H3.88113H3.86769H3.85437H3.84118H3.82813H3.8152H3.80241H3.78975H3.77722H3.76483H3.75257H3.74044H3.72845H3.7166H3.70488H3.6933H3.68186H3.67056H3.65939H3.64837H3.63748H3.62674H3.61614H3.60567H3.59535H3.58518H3.57515H3.56526H3.55551H3.54591H3.53646H3.52716H3.518H3.50899H3.50012C2.97737 19.9999 2.61945 19.8301 2.39473 19.6053C2.17001 19.3806 2.00012 19.0227 2.00012 18.4999ZM13.522 10.0645C14.1828 10.6467 15.0502 10.9999 16.0001 10.9999C18.0712 10.9999 19.7501 9.32101 19.7501 7.24994C19.7501 5.17887 18.0712 3.49994 16.0001 3.49994C15.6152 3.49994 15.2438 3.55795 14.8942 3.66569C15.1161 4.29335 15.2407 4.96704 15.2496 5.66859C15.477 5.56045 15.7315 5.49994 16.0001 5.49994C16.9666 5.49994 17.7501 6.28344 17.7501 7.24994C17.7501 8.21644 16.9666 8.99994 16.0001 8.99994C15.4671 8.99994 14.9897 8.76164 14.6688 8.38577C14.3791 9.00776 13.99 9.57413 13.522 10.0645ZM18.8218 21.9999H18.8291H18.8481H18.867H18.8858H18.9046H18.9233H18.942H18.9606H18.9791H18.9976H19.016H19.0343H19.0525H19.0707H19.0889H19.1069H19.1249H19.1428H19.1607H19.1785H19.1962H19.2138H19.2314H19.2489H19.2663H19.2837H19.301H19.3182H19.3353H19.3524H19.3693H19.3862H19.4031H19.4198H19.4365H19.4531H19.4696H19.4861H19.5025H19.5188H19.535H19.5511H19.5672H19.5831H19.599H19.6148H19.6305H19.6462H19.6617H19.6772H19.6926H19.7079H19.7231H19.7383H19.7533H19.7683H19.7832H19.798H19.8127H19.8273H19.8418H19.8563H19.8706H19.8849H19.899H19.9131H19.9271H19.941H19.9548H19.9685H19.9821H19.9957H20.0091H20.0224H20.0357H20.0488H20.0619H20.0748H20.0877H20.1004H20.1131H20.1257H20.1381H20.1505H20.1628H20.1749H20.187H20.199H20.2108H20.2226H20.2343H20.2458H20.2573H20.2686H20.2799H20.291H20.3021H20.313H20.3238H20.3345H20.3452H20.3557H20.3661H20.3764H20.3865H20.3966H20.4066H20.4164H20.4262H20.4358H20.4453H20.4548H20.4641H20.4732H20.4823H20.4913H20.5001C21.4774 21.9999 22.3694 21.6698 23.0197 21.0195C23.67 20.3693 24.0001 19.4772 24.0001 18.4999C24.0001 16.7658 22.2806 13.5748 17.3751 13.0684C18.1676 13.8302 18.7764 14.6708 19.2072 15.5134C21.4802 16.372 22.0001 18.0498 22.0001 18.4999C22.0001 19.0227 21.8302 19.3806 21.6055 19.6053C21.3808 19.8301 21.0229 19.9999 20.5001 19.9999H20.4913H20.4823H20.4732H20.4641H20.4548H20.4453H20.4358H20.4262H20.4164H20.4066H20.3966H20.3865H20.3764H20.3661H20.3557H20.3452H20.3345H20.3238H20.313H20.3021H20.291H20.2799H20.2686H20.2573H20.2458H20.2343H20.2226H20.2108H20.199H20.187H20.1749H20.1628H20.1505H20.1381H20.1257H20.1131H20.1004H20.0877H20.0748H20.0619H20.0488H20.0357H20.0224H20.0091H19.9957H19.9821H19.9685H19.9548H19.941H19.9271H19.9131H19.899H19.8849H19.8706H19.8563H19.8418H19.8273H19.8127H19.8124C19.6269 20.7167 19.3012 21.3993 18.8218 21.9999Z" fill="black"/>
</g>
<defs>
<clipPath id="clip0">
<rect width="24" height="24" fill="white" transform="translate(0.00012207)"/>
</clipPath>
</defs>
</svg>
