<svg width="24" height="24" viewBox="0 0 24 24" fill="none" xmlns="http://www.w3.org/2000/svg">
<g clip-path="url(#clip0)">
<path fill-rule="evenodd" clip-rule="evenodd" d="M13.0128 1.54822C12.6795 1.51632 12.3417 1.5 12 1.5C11.6583 1.5 11.3205 1.51632 10.9872 1.54822C10.7679 2.17305 10.4908 3.01945 10.2135 4.0176C9.9648 4.91298 9.71802 5.9233 9.5126 6.99996H14.4874C14.282 5.9233 14.0352 4.91298 13.7865 4.0176C13.5092 3.01945 13.2321 2.17305 13.0128 1.54822ZM8.72078 2.02221C6.15867 2.86375 4.03168 4.66461 2.76464 6.99996H7.47859C7.71003 5.71174 7.99945 4.51564 8.28648 3.48231C8.4338 2.95198 8.58115 2.4622 8.72078 2.02221ZM1.93483 8.99996C1.65192 9.95053 1.5 10.9575 1.5 12C1.5 13.0424 1.65191 14.0494 1.93481 15H7.18159C7.068 14.0205 7 13.0117 7 12C7 10.9882 7.068 9.97944 7.18159 8.99996H1.93483ZM2.7646 17C4.03163 19.3354 6.15866 21.1363 8.72081 21.9778C8.58117 21.5378 8.43381 21.048 8.28648 20.5176C7.99945 19.4843 7.71003 18.2882 7.47859 17H2.7646ZM10.9872 22.4518C11.3205 22.4837 11.6583 22.5 12 22.5C12.3417 22.5 12.6795 22.4837 13.0128 22.4518C13.2321 21.8269 13.5092 20.9805 13.7865 19.9823C14.0352 19.0869 14.282 18.0766 14.4874 17H9.5126C9.71802 18.0766 9.9648 19.0869 10.2135 19.9823C10.4908 20.9805 10.7679 21.8269 10.9872 22.4518ZM15.2792 21.9778C17.8413 21.1363 19.9684 19.3354 21.2354 17H16.5214C16.29 18.2882 16.0006 19.4843 15.7135 20.5176C15.5662 21.048 15.4188 21.5378 15.2792 21.9778ZM22.0652 15C22.3481 14.0494 22.5 13.0424 22.5 12C22.5 10.9575 22.3481 9.95053 22.0652 8.99996H16.8184C16.932 9.97944 17 10.9882 17 12C17 13.0117 16.932 14.0205 16.8184 15H22.0652ZM21.2354 6.99996C19.9683 4.66461 17.8413 2.86375 15.2792 2.02221C15.4189 2.4622 15.5662 2.95198 15.7135 3.48231C16.0006 4.51564 16.29 5.71174 16.5214 6.99996H21.2354ZM9 12C9 10.9931 9.07375 9.98269 9.19592 8.99996H14.8041C14.9263 9.98269 15 10.9931 15 12C15 13.0068 14.9263 14.0172 14.8041 15H9.19592C9.07375 14.0172 9 13.0068 9 12Z" fill="black"/>
</g>
<defs>
<clipPath id="clip0">
<rect width="24" height="24" fill="white"/>
</clipPath>
</defs>
</svg>
