<svg width="16" height="24" viewBox="0 0 16 24" fill="none" xmlns="http://www.w3.org/2000/svg">
<g clip-path="url(#clip0)">
<path fill-rule="evenodd" clip-rule="evenodd" d="M8 7.5C9.10457 7.5 10 6.60457 10 5.5C10 4.39543 9.10457 3.5 8 3.5C6.89543 3.5 6 4.39543 6 5.5C6 6.60457 6.89543 7.5 8 7.5ZM10 12C10 13.1046 9.10457 14 8 14C6.89543 14 6 13.1046 6 12C6 10.8954 6.89543 10 8 10C9.10457 10 10 10.8954 10 12ZM10 18.5C10 19.6046 9.10457 20.5 8 20.5C6.89543 20.5 6 19.6046 6 18.5C6 17.3954 6.89543 16.5 8 16.5C9.10457 16.5 10 17.3954 10 18.5Z" fill="#676D7A"/>
</g>
<defs>
<clipPath id="clip0">
<rect width="16" height="24" fill="white"/>
</clipPath>
</defs>
</svg>
