<?xml version="1.0" encoding="utf-8"?>
<!-- Generator: Adobe Illustrator 22.1.0, SVG Export Plug-In . SVG Version: 6.00 Build 0)  -->
<svg version="1.1" id="Слой_1" xmlns="http://www.w3.org/2000/svg" xmlns:xlink="http://www.w3.org/1999/xlink" x="0px" y="0px"
	 viewBox="0 0 26 26" style="enable-background:new 0 0 26 26;" xml:space="preserve">
<path d="M21.4,15c-1-1.5-1.1-2-1.1-2v-2.5c0-4.1-3.2-7.2-7.2-7.2s-7.2,3.2-7.2,7.2l0,2.4c0,0-0.1,0.5-1.1,2h0
	c-0.3,0.5-0.5,1-0.5,1.5c0,1.5,1.2,2.8,2.8,2.8h1.8c0.1,2,1.6,4,4.2,4c2.7,0,4.1-2,4.2-4h1.8c0.5,0,1.1-0.2,1.5-0.5
	c0.6-0.4,1-1,1.2-1.7C21.9,16.3,21.8,15.6,21.4,15z M13,20.8c-1.2,0-1.6-0.8-1.7-1.5h3.5C14.6,20,14.2,20.8,13,20.8z M19.3,16.5
	c0,0,0,0.1-0.1,0.2c0,0-0.1,0-0.1,0H6.9c-0.1,0-0.2-0.1-0.2-0.2c0,0,0-0.1,0-0.1c1.4-2,1.5-2.8,1.5-3.4v-2.5c0-2.7,2-4.8,4.8-4.8
	s4.8,2,4.8,4.8V13c0,0.5,0.2,1.3,1.5,3.4C19.3,16.4,19.3,16.5,19.3,16.5z"/>
</svg>
