<svg width="24" height="24" viewBox="0 0 24 24" fill="none" xmlns="http://www.w3.org/2000/svg">
<g clip-path="url(#clip0)">
<path fill-rule="evenodd" clip-rule="evenodd" d="M11.2924 4.22182C10.9019 4.61234 10.9019 5.24551 11.2924 5.63603C11.6829 6.02655 12.3161 6.02655 12.7066 5.63603L13.9441 4.39859C15.5062 2.8365 18.0388 2.8365 19.6009 4.39859C21.163 5.96069 21.163 8.49335 19.6009 10.0554L16.4189 13.2374C14.8568 14.7995 12.3242 14.7995 10.7621 13.2374C10.3716 12.8469 9.7384 12.8469 9.34787 13.2374C8.95735 13.628 8.95735 14.2611 9.34787 14.6516C11.691 16.9948 15.49 16.9948 17.8332 14.6516L21.0151 11.4697C23.3583 9.12651 23.3583 5.32752 21.0151 2.98438C18.672 0.641234 14.873 0.641234 12.5299 2.98438L11.2924 4.22182ZM2.98392 12.5303C0.640776 14.8735 0.640776 18.6724 2.98392 21.0156C5.32707 23.3587 9.12606 23.3587 11.4692 21.0156L12.7066 19.7782C13.0972 19.3876 13.0972 18.7545 12.7066 18.3639C12.3161 17.9734 11.683 17.9734 11.2924 18.3639L10.055 19.6014C8.49289 21.1635 5.96023 21.1635 4.39814 19.6014C2.83604 18.0393 2.83604 15.5066 4.39814 13.9445L7.58012 10.7625C9.14221 9.20045 11.6749 9.20045 13.237 10.7625C13.6275 11.1531 14.2607 11.1531 14.6512 10.7625C15.0417 10.372 15.0417 9.73886 14.6512 9.34833C12.308 7.00519 8.50905 7.00519 6.1659 9.34833L2.98392 12.5303Z" fill="black"/>
</g>
<defs>
<clipPath id="clip0">
<rect width="24" height="24" fill="white"/>
</clipPath>
</defs>
</svg>
