<svg width="24" height="24" viewBox="0 0 24 24" fill="none" xmlns="http://www.w3.org/2000/svg">
<path d="M12 2.001C12 1.44816 11.5509 0.995272 11.0003 1.04551C8.91646 1.23565 6.92237 2.0173 5.25802 3.30829C3.32909 4.80453 1.95269 6.8999 1.34558 9.26441C0.738482 11.6289 0.935181 14.1282 1.9047 16.3686C2.87422 18.6091 4.56147 20.4633 6.70071 21.6394C8.83995 22.8154 11.3096 23.2465 13.7208 22.8646C16.1319 22.4827 18.3475 21.3096 20.0187 19.53C21.6898 17.7505 22.7214 15.4656 22.9512 13.0352C23.1494 10.9382 22.7409 8.83569 21.7848 6.97434C21.5323 6.48258 20.9092 6.34604 20.4424 6.64227C19.9757 6.93849 19.843 7.55512 20.0856 8.0519C20.8091 9.5337 21.1145 11.1923 20.9581 12.8468C20.7701 14.8348 19.9262 16.7039 18.5593 18.1596C17.1923 19.6152 15.3799 20.5748 13.4076 20.8872C11.4353 21.1996 9.41508 20.847 7.66518 19.885C5.91528 18.923 4.53511 17.4062 3.74204 15.5735C2.94898 13.7409 2.78808 11.6965 3.28469 9.76229C3.7813 7.82812 4.9072 6.1141 6.48506 4.89018C7.79817 3.87164 9.36219 3.24068 11.001 3.05761C11.5504 2.99624 12 2.55384 12 2.001Z" fill="#C4C7CC"/>
</svg>
