<svg width="24" height="24" viewBox="0 0 24 24" fill="none" xmlns="http://www.w3.org/2000/svg">
<path fill-rule="evenodd" clip-rule="evenodd" d="M18.1872 5.81273C19.2611 6.88667 19.2611 8.62787 18.1872 9.70182L15.0052 12.8838C14.0143 13.8747 12.4532 13.9517 11.3754 13.1129C10.8306 12.6889 10.0452 12.7869 9.62124 13.3317C9.19725 13.8765 9.29519 14.6619 9.84001 15.0859C11.9006 16.6895 14.8792 16.5453 16.773 14.6516L19.9549 11.4696C22.0052 9.41933 22.0052 6.09521 19.9549 4.04496C17.9047 1.99471 14.5806 1.99471 12.5303 4.04496L12.1768 4.39852C11.6886 4.88667 11.6886 5.67813 12.1768 6.16628C12.6649 6.65444 13.4564 6.65444 13.9445 6.16628L14.2981 5.81273C15.372 4.73879 17.1132 4.73879 18.1872 5.81273ZM5.81285 18.1871C4.73891 17.1132 4.73891 15.372 5.81285 14.2981L8.99483 11.1161C9.98578 10.1251 11.5468 10.0482 12.6246 10.887C13.1694 11.3109 13.9548 11.213 14.3788 10.6682C14.8028 10.1234 14.7048 9.338 14.16 8.91401C12.0994 7.31038 9.12082 7.45456 7.22707 9.34831L4.04509 12.5303C1.99483 14.5805 1.99483 17.9047 4.04509 19.9549C6.09534 22.0052 9.41946 22.0052 11.4697 19.9549L11.8233 19.6014C12.3114 19.1132 12.3114 18.3217 11.8233 17.8336C11.3351 17.3454 10.5436 17.3454 10.0555 17.8336L9.70194 18.1871C8.628 19.2611 6.8868 19.2611 5.81285 18.1871Z" fill="black"/>
</svg>
