<svg width="24" height="24" viewBox="0 0 24 24" fill="none" xmlns="http://www.w3.org/2000/svg">
<g clip-path="url(#clip0)">
<path fill-rule="evenodd" clip-rule="evenodd" d="M5 5C5 5.82843 4.32843 6.5 3.5 6.5C2.67157 6.5 2 5.82843 2 5C2 4.17157 2.67157 3.5 3.5 3.5C4.32843 3.5 5 4.17157 5 5ZM3.5 13.5C4.32843 13.5 5 12.8284 5 12C5 11.1716 4.32843 10.5 3.5 10.5C2.67157 10.5 2 11.1716 2 12C2 12.8284 2.67157 13.5 3.5 13.5ZM3.5 20.5C4.32843 20.5 5 19.8284 5 19C5 18.1716 4.32843 17.5 3.5 17.5C2.67157 17.5 2 18.1716 2 19C2 19.8284 2.67157 20.5 3.5 20.5ZM8 4C7.44772 4 7 4.44772 7 5C7 5.55228 7.44772 6 8 6H21C21.5523 6 22 5.55228 22 5C22 4.44772 21.5523 4 21 4H8ZM8 11C7.44772 11 7 11.4477 7 12C7 12.5523 7.44772 13 8 13H21C21.5523 13 22 12.5523 22 12C22 11.4477 21.5523 11 21 11H8ZM8 18C7.44772 18 7 18.4477 7 19C7 19.5523 7.44772 20 8 20H21C21.5523 20 22 19.5523 22 19C22 18.4477 21.5523 18 21 18H8Z" fill="black"/>
</g>
<defs>
<clipPath id="clip0">
<rect width="24" height="24" fill="white"/>
</clipPath>
</defs>
</svg>
