<svg width="32" height="32" viewBox="0 0 32 32" fill="none" xmlns="http://www.w3.org/2000/svg">
<path d="M16 0C12.8355 0 9.74206 0.938383 7.11088 2.69649C4.47969 4.45459 2.42893 6.95345 1.21793 9.87707C0.00692534 12.8007 -0.309928 16.0177 0.307436 19.1214C0.924799 22.2251 2.44865 25.0761 4.68629 27.3137C6.92393 29.5513 9.77486 31.0752 12.8786 31.6926C15.9823 32.3099 19.1993 31.9931 22.1229 30.7821C25.0466 29.5711 27.5454 27.5203 29.3035 24.8891C31.0616 22.2579 32 19.1645 32 16H30C30 18.7689 29.1789 21.4757 27.6406 23.778C26.1022 26.0803 23.9157 27.8747 21.3576 28.9343C18.7994 29.9939 15.9845 30.2712 13.2687 29.731C10.553 29.1908 8.05844 27.8574 6.10051 25.8995C4.14257 23.9416 2.8092 21.447 2.26901 18.7313C1.72881 16.0155 2.00606 13.2006 3.06569 10.6424C4.12531 8.08427 5.91973 5.89777 8.22202 4.35942C10.5243 2.82108 13.2311 2 16 2V0Z" fill="#A9AEB8"/>
</svg>
