<svg width="16" height="16" viewBox="0 0 16 16" fill="none" xmlns="http://www.w3.org/2000/svg">
<path fill-rule="evenodd" clip-rule="evenodd" d="M8 0.5C4.27208 0.5 1.25 3.52208 1.25 7.25V10.25C1.25 10.2789 1.25164 10.3075 1.25483 10.3356C1.25163 10.39 1.25 10.4448 1.25 10.5V11.5C1.25 13.0188 2.48122 14.25 4 14.25H4.58333C5.36574 14.25 6 13.6157 6 12.8333V9.16667C6 8.38426 5.36574 7.75 4.58333 7.75H4C3.54989 7.75 3.12503 7.85814 2.75 8.04985V7.25C2.75 4.35051 5.10051 2 8 2C10.8995 2 13.25 4.35051 13.25 7.25V8.04985C12.875 7.85814 12.4501 7.75 12 7.75H11.4167C10.6343 7.75 10 8.38426 10 9.16667V12.8333C10 13.6157 10.6343 14.25 11.4167 14.25H12C13.5188 14.25 14.75 13.0188 14.75 11.5V10.5C14.75 10.4448 14.7484 10.39 14.7452 10.3356C14.7484 10.3075 14.75 10.2789 14.75 10.25V7.25C14.75 3.52208 11.7279 0.5 8 0.5ZM4 9.25C3.30964 9.25 2.75 9.80964 2.75 10.5V11.5C2.75 12.1904 3.30964 12.75 4 12.75H4.5V9.25H4ZM12 9.25C12.6904 9.25 13.25 9.80964 13.25 10.5V11.5C13.25 12.1904 12.6904 12.75 12 12.75H11.5V9.25H12Z" fill="black"/>
</svg>
