<svg width="14" height="14" viewBox="0 0 14 14" fill="none" xmlns="http://www.w3.org/2000/svg">
<path d="M0.700012 6.3C0.700012 2.82061 3.52062 0 7.00001 0C10.4794 0 13.3 2.82061 13.3 6.3V8.29694L13.3 8.3V11.3C13.3 12.2941 12.4941 13.1 11.5 13.1H10C9.55819 13.1 9.20002 12.7418 9.20002 12.3V8.3C9.20002 7.85817 9.55819 7.5 10 7.5H11.7V6.3C11.7 3.70426 9.59575 1.6 7.00001 1.6C4.40427 1.6 2.30001 3.70426 2.30001 6.3V7.5H4.00001C4.44184 7.5 4.80001 7.85817 4.80001 8.3V12.3C4.80001 12.7418 4.44184 13.1 4.00001 13.1H2.50001C1.5059 13.1 0.700012 12.2941 0.700012 11.3V6.3Z" fill="black"/>
</svg>
