<svg width="24" height="24" viewBox="0 0 24 24" fill="none" xmlns="http://www.w3.org/2000/svg">
<g clip-path="url(#clip0)">
<path fill-rule="evenodd" clip-rule="evenodd" d="M8 7.3C8 5.61984 8 4.77976 8.32698 4.13803C8.6146 3.57354 9.07354 3.1146 9.63803 2.82698C10.2798 2.5 11.1198 2.5 12.8 2.5H15.2C16.8802 2.5 17.7202 2.5 18.362 2.82698C18.9265 3.1146 19.3854 3.57354 19.673 4.13803C20 4.77976 20 5.61984 20 7.3V16.7C20 18.3802 20 19.2202 19.673 19.862C19.3854 20.4265 18.9265 20.8854 18.362 21.173C17.7202 21.5 16.8802 21.5 15.2 21.5H12.8C11.1198 21.5 10.2798 21.5 9.63803 21.173C9.07354 20.8854 8.6146 20.4265 8.32698 19.862C8 19.2202 8 18.3802 8 16.7V15.25H12C13.7949 15.25 15.25 13.7949 15.25 12C15.25 10.2051 13.7949 8.75 12 8.75H8V7.3ZM5.38388 9.88388C5.87204 9.39573 5.87204 8.60427 5.38388 8.11612C4.89573 7.62796 4.10427 7.62796 3.61612 8.11612L0.616117 11.1161C0.127961 11.6043 0.127961 12.3957 0.616117 12.8839L3.61612 15.8839C4.10427 16.372 4.89573 16.372 5.38388 15.8839C5.87204 15.3957 5.87204 14.6043 5.38388 14.1161L4.51777 13.25H12C12.6904 13.25 13.25 12.6904 13.25 12C13.25 11.3096 12.6904 10.75 12 10.75H4.51777L5.38388 9.88388Z" fill="black"/>
</g>
<defs>
<clipPath id="clip0">
<rect width="24" height="24" fill="white"/>
</clipPath>
</defs>
</svg>
