<svg xmlns="http://www.w3.org/2000/svg" width="24" height="24" viewBox="0 0 24 24">
    <g fill="none" fill-rule="evenodd">
        <path fill="#FFF" fill-opacity=".01" d="M0 0h24v24H0z"/>
        <path fill="#000" fill-rule="nonzero" d="M12 .8c4.015 0 7.675 2.166 9.676 5.6l.175.3h-2.543l-.16-.08C17.457 4.38 14.834 3.034 12 3.034 7.069 3.033 3.033 7.07 3.033 12c0 4.931 4.036 8.967 8.967 8.967 2.832 0 5.457-1.348 7.149-3.588l.16-.079h2.542l-.175.3c-2 3.434-5.66 5.6-9.676 5.6C5.84 23.2.8 18.16.8 12 .8 5.84 5.84.8 12 .8zm5.3 10.083V7.946L23.001 12 17.3 16.054v-2.937H9.05v-2.234h8.25z"/>
    </g>
</svg>
