<svg xmlns="http://www.w3.org/2000/svg" width="18" height="18" viewBox="0 0 18 18">
    <g fill="none" fill-rule="nonzero">
        <path fill="#FFF" fill-opacity=".01" d="M0 0h18v18H0z"/>
        <path fill="#000" d="M6.299 8.622h5.578V6.474c0-.79-.272-1.466-.817-2.025a2.652 2.652 0 0 0-1.972-.839c-.77 0-1.427.28-1.972.84a2.797 2.797 0 0 0-.817 2.024v2.148zm9.064 1.073v6.444c0 .298-.101.551-.305.76a.996.996 0 0 1-.74.313H3.857a.996.996 0 0 1-.74-.313 1.05 1.05 0 0 1-.305-.76V9.695c0-.298.101-.551.305-.76a.996.996 0 0 1 .74-.313h.349V6.474c0-1.372.48-2.55 1.438-3.535.959-.984 2.106-1.477 3.443-1.477 1.336 0 2.484.493 3.443 1.477.958.984 1.438 2.163 1.438 3.535v2.148h.348c.29 0 .538.104.741.313.204.209.305.462.305.76z"/>
    </g>
</svg>
