<svg width="24" height="24" viewBox="0 0 24 24" fill="none" xmlns="http://www.w3.org/2000/svg">
<g clip-path="url(#clip0)">
<path d="M8.5 15.5L12.9978 19.9978C13.6718 20.6718 14.8218 20.3738 15.0836 19.4573L16.3576 14.9983C16.451 14.6715 16.6261 14.3739 16.8665 14.1335L20.2322 10.7678C21.2085 9.79146 21.2085 8.20855 20.2322 7.23223L16.7678 3.76777C15.7915 2.79146 14.2085 2.79146 13.2322 3.76777L9.86646 7.13354C9.62612 7.37388 9.3285 7.549 9.00169 7.64237L4.54266 8.91638C3.62622 9.17822 3.32823 10.3282 4.00217 11.0022L8.5 15.5ZM8.5 15.5L3 21" stroke="black" stroke-width="2" stroke-linecap="round" stroke-linejoin="round"/>
</g>
<defs>
<clipPath id="clip0">
<rect width="24" height="24" fill="white"/>
</clipPath>
</defs>
</svg>
