<svg xmlns="http://www.w3.org/2000/svg" width="24" height="24" viewBox="0 0 24 24">
    <g fill="none" fill-rule="evenodd">
        <path fill="#FFF" fill-opacity=".01" d="M0 0h24v24H0z"/>
        <path fill="#000" fill-rule="nonzero" d="M6.873 9.273h2.182v2.182H6.873zM10.909 9.273h2.182v2.182h-2.182zM14.945 9.273h2.182v2.182h-2.182z"/>
        <path fill="#000" fill-rule="nonzero" d="M20.734 10.445c0-3.962-3.489-7.172-7.794-7.172-.095 0-2.061.001-2.155.004-4.175.137-7.512 3.294-7.512 7.168 0 2.048.938 3.891 2.435 5.198l-.26 3.993 3.702-2.249c.552.13 1.124.21 1.715.225a834 834 0 0 0 2.075.003c4.305 0 7.794-3.21 7.794-7.17zM2.997 23.678l.47-7.182c-1.513-1.665-2.376-3.79-2.376-6.051 0-5.083 4.299-9.173 9.622-9.348.111-.004 1.546-.006 2.227-.006 5.471 0 9.976 4.145 9.976 9.354 0 5.208-4.505 9.353-9.976 9.351-.662 0-2.048 0-2.13-.003-.417-.01-.83-.047-1.242-.107l-6.571 3.992z"/>
    </g>
</svg>
