<?xml version="1.0" encoding="utf-8"?>
<!-- Generator: Adobe Illustrator 22.1.0, SVG Export Plug-In . SVG Version: 6.00 Build 0)  -->
<svg version="1.1" id="Слой_1" xmlns="http://www.w3.org/2000/svg" xmlns:xlink="http://www.w3.org/1999/xlink" x="0px" y="0px"
	 viewBox="0 0 18 18" style="enable-background:new 0 0 18 18;" xml:space="preserve">
<path d="M9,2C5.1,2,2,5.1,2,9s3.1,7,7,7c0.8,0,1.6-0.1,2.4-0.4c0.5-0.2,0.7-0.7,0.5-1.1c-0.2-0.5-0.7-0.7-1.1-0.5
	c-0.6,0.2-1.2,0.3-1.8,0.3c-2.9,0-5.3-2.3-5.3-5.2s2.4-5.2,5.2-5.2c0.4,0,0.7,0,1.1,0.1c2.8,0.6,4.7,3.4,4.1,6.2
	c-0.1,0.5-0.6,0.8-1,0.7c-0.2,0-0.4-0.2-0.6-0.4c-0.1-0.2-0.2-0.4-0.1-0.7l0,0c0-0.2,0.1-0.5,0.1-0.7c0-1.9-1.6-3.5-3.5-3.5
	S5.5,7.1,5.5,9s1.6,3.5,3.5,3.5c0.9,0,1.7-0.3,2.3-0.9c0.4,0.4,0.9,0.7,1.4,0.9c1.4,0.3,2.8-0.6,3.1-2.1C16,10,16,9.5,16,9
	C16,5.1,12.9,2,9,2z M9,10.8C8,10.8,7.2,10,7.2,9S8,7.2,9,7.2S10.8,8,10.8,9S10,10.8,9,10.8z"/>
</svg>
