<svg width="24" height="24" viewBox="0 0 24 24" fill="none" xmlns="http://www.w3.org/2000/svg">
<g clip-path="url(#clip0)">
<path fill-rule="evenodd" clip-rule="evenodd" d="M12.2 2C12.0689 2.64622 12 3.31507 12 4L8.3 4C7.44342 4 6.86113 4.00078 6.41104 4.03755C5.97262 4.07337 5.74842 4.1383 5.59202 4.21799C5.2157 4.40974 4.90973 4.7157 4.71799 5.09202C4.6383 5.24842 4.57337 5.47262 4.53755 5.91104C4.50078 6.36113 4.5 6.94342 4.5 7.8V13.129C4.5 13.9945 4.50653 14.2571 4.55177 14.4521C4.72425 15.1954 5.30462 15.7758 6.0479 15.9482C6.24287 15.9935 6.50547 16 7.37097 16L7.37287 16C7.38198 16 7.41248 15.9999 7.44243 16.0011C7.47961 16.0026 7.55602 16.007 7.64865 16.0285C8.05746 16.1233 8.37666 16.4425 8.47153 16.8513C8.49303 16.944 8.49741 17.0204 8.49889 17.0576C8.50008 17.0875 8.50002 17.118 8.5 17.1271L8.5 17.129V20.0858L10.887 17.6988L10.959 17.6267C11.4078 17.1775 11.7469 16.8381 12.1526 16.5894C12.5105 16.3701 12.9007 16.2085 13.3089 16.1105C13.7716 15.9994 14.2513 15.9997 14.8863 16L14.9882 16H15.7C16.5566 16 17.1389 15.9992 17.589 15.9624C18.0274 15.9266 18.2516 15.8617 18.408 15.782C18.7843 15.5903 19.0903 15.2843 19.282 14.908C19.3617 14.7516 19.4266 14.5274 19.4624 14.089C19.4726 13.9642 19.4801 13.8293 19.4855 13.6812C20.1256 13.847 20.7905 13.951 21.4736 13.9864C21.4687 14.078 21.4628 14.1664 21.4558 14.2518C21.4099 14.8139 21.3113 15.3306 21.064 15.816C20.6805 16.5686 20.0686 17.1805 19.316 17.564C18.8306 17.8113 18.3139 17.9099 17.7518 17.9558C17.2106 18 16.5463 18 15.7413 18H15.7413H14.9882C14.2069 18 13.9792 18.0064 13.7758 18.0553C13.5717 18.1043 13.3766 18.1851 13.1976 18.2947C13.0193 18.404 12.8537 18.5605 12.3012 19.113L8.88995 22.5243L8.87126 22.543C8.78145 22.6329 8.67248 22.7419 8.57232 22.8258C8.48975 22.8949 8.2298 23.1126 7.84807 23.1426C7.44918 23.174 7.05936 23.0125 6.79949 22.7083C6.55082 22.4171 6.52097 22.0802 6.51146 21.9729C6.49993 21.8428 6.49993 21.6878 6.49999 21.5608L6.5 21.5343V17.9938C6.15866 17.9839 5.86547 17.959 5.59581 17.8965C4.10925 17.5515 2.9485 16.3908 2.60354 14.9042C2.49939 14.4554 2.49964 13.9415 2.49996 13.2488L2.5 13.129L2.5 7.7587C2.49999 6.95373 2.49998 6.28937 2.54419 5.74818C2.59012 5.18608 2.68868 4.66938 2.93597 4.18404C3.31947 3.43139 3.93139 2.81947 4.68404 2.43598C5.16937 2.18868 5.68608 2.09012 6.24817 2.0442C6.78936 1.99998 7.45371 1.99999 8.25867 2H8.2587H12.2Z" fill="black"/>
</g>
<defs>
<clipPath id="clip0">
<rect width="24" height="24" fill="white"/>
</clipPath>
</defs>
</svg>
