<svg width="24" height="24" viewBox="0 0 24 24" fill="none" xmlns="http://www.w3.org/2000/svg">
<g clip-path="url(#clip0)">
<path fill-rule="evenodd" clip-rule="evenodd" d="M5.70711 2.29289C5.31658 1.90237 4.68342 1.90237 4.29289 2.29289C3.90237 2.68342 3.90237 3.31658 4.29289 3.70711L20.2929 19.7071C20.6834 20.0976 21.3166 20.0976 21.7071 19.7071C22.0976 19.3166 22.0976 18.6834 21.7071 18.2929L17.9257 14.5114C17.9598 14.4622 17.9983 14.4159 18.041 14.3732L20.9393 11.4749C22.3062 10.108 22.3062 7.89195 20.9393 6.52512L17.4749 3.06065C16.108 1.69382 13.892 1.69381 12.5251 3.06065L9.62674 5.95903C9.5841 6.00168 9.53783 6.04024 9.48854 6.07433L5.70711 2.29289ZM10.9104 7.4962L16.5038 13.0896C16.5434 13.0449 16.5844 13.0014 16.6267 12.959L19.5251 10.0606C20.1109 9.47486 20.1109 8.52512 19.5251 7.93933L16.0607 4.47486C15.4749 3.88908 14.5251 3.88908 13.9393 4.47486L11.041 7.37325C10.9986 7.41559 10.9551 7.45659 10.9104 7.4962ZM5.29877 7.51297L6.87991 9.09411L4.73498 9.80909C4.55867 9.86786 4.50585 10.0916 4.63726 10.223L9.20711 14.7929L13.777 19.3627C13.9084 19.4941 14.1321 19.4413 14.1909 19.265L14.9059 17.1201L16.487 18.7012L16.0883 19.8975C15.5593 21.4842 13.5455 21.9597 12.3627 20.7769L8.5 16.9142L3.70711 21.7071C3.31658 22.0976 2.68342 22.0976 2.29289 21.7071C1.90237 21.3166 1.90237 20.6834 2.29289 20.2929L7.08579 15.5L3.22305 11.6373C2.04033 10.4545 2.51575 8.44065 4.10252 7.91172L5.29877 7.51297Z" fill="black"/>
</g>
<defs>
<clipPath id="clip0">
<rect width="24" height="24" fill="white"/>
</clipPath>
</defs>
</svg>
