<svg width="16" height="16" viewBox="0 0 16 16" fill="none" xmlns="http://www.w3.org/2000/svg">
<path fill-rule="evenodd" clip-rule="evenodd" d="M8.00102 0.999878C6.52826 0.999878 5.33435 2.19378 5.33435 3.66654V6.99988C5.33435 8.47264 6.52826 9.66654 8.00102 9.66654C9.47378 9.66654 10.6677 8.47264 10.6677 6.99988V3.66654C10.6677 2.19378 9.47378 0.999878 8.00102 0.999878ZM3.1688 7.8838C3.59922 7.79318 4.02164 8.06701 4.11521 8.49604L4.1177 8.50625C4.12081 8.51855 4.12677 8.54105 4.13617 8.5723C4.15502 8.63496 4.18734 8.73164 4.23758 8.85098C4.33865 9.09102 4.50829 9.41334 4.77887 9.73466C5.29965 10.3531 6.24559 11.0333 8.00028 11.0333C9.75497 11.0333 10.7009 10.3531 11.2217 9.73466C11.4923 9.41334 11.6619 9.09102 11.763 8.85098C11.8132 8.73164 11.8455 8.63496 11.8644 8.5723C11.8738 8.54105 11.8797 8.51855 11.8828 8.50625L11.8853 8.49602C11.9789 8.067 12.4013 7.79318 12.8318 7.8838C13.2641 7.97482 13.5408 8.3991 13.4498 8.83145L12.6669 8.66664C13.4498 8.83145 13.4497 8.83192 13.4496 8.83241L13.4494 8.83345L13.4489 8.83574L13.4477 8.84123L13.4444 8.85571C13.4418 8.86688 13.4384 8.8811 13.4341 8.89815C13.4255 8.93223 13.4132 8.97777 13.3966 9.03311C13.3633 9.14363 13.3123 9.29434 13.2376 9.47187C13.0887 9.82559 12.8416 10.2949 12.4455 10.7653C11.7342 11.6099 10.5824 12.4073 8.80028 12.5929V14.4999C8.80028 14.9418 8.4421 15.2999 8.00028 15.2999C7.55845 15.2999 7.20028 14.9418 7.20028 14.4999V12.5929C5.4181 12.4073 4.26631 11.6099 3.55501 10.7653C3.15893 10.2949 2.9119 9.82559 2.76297 9.47187C2.68822 9.29434 2.6372 9.14363 2.60397 9.03311C2.58732 8.97777 2.57505 8.93223 2.56644 8.89815C2.56213 8.8811 2.55873 8.86688 2.55615 8.85571L2.55288 8.84123L2.55169 8.83574L2.55119 8.83345L2.55097 8.83241C2.55087 8.83192 2.55077 8.83145 3.33361 8.66664L2.55077 8.83145C2.45975 8.3991 2.73645 7.97482 3.1688 7.8838Z" fill="#000000"/>
</svg>
