<svg width="24" height="24" viewBox="0 0 24 24" fill="none" xmlns="http://www.w3.org/2000/svg">
<g clip-path="url(#clip0)">
<path fill-rule="evenodd" clip-rule="evenodd" d="M12.2 2C12.0689 2.64622 12 3.31507 12 4C12 9.34628 16.1955 13.7127 21.4736 13.9864C21.4687 14.078 21.4628 14.1664 21.4558 14.2518C21.4099 14.8139 21.3113 15.3306 21.064 15.816C20.6805 16.5686 20.0686 17.1805 19.316 17.564C18.8306 17.8113 18.3139 17.9099 17.7518 17.9558C17.2106 18 16.5463 18 15.7413 18H15.7413H14.9882C14.2069 18 13.9792 18.0064 13.7758 18.0553C13.5717 18.1043 13.3766 18.1851 13.1976 18.2947C13.0193 18.404 12.8537 18.5605 12.3012 19.113L8.88995 22.5243L8.87127 22.543L8.87123 22.543C8.78142 22.6329 8.67247 22.7419 8.57232 22.8258C8.48975 22.8949 8.2298 23.1126 7.84808 23.1426C7.44918 23.174 7.05936 23.0125 6.7995 22.7083C6.55082 22.4171 6.52097 22.0802 6.51146 21.9729C6.49993 21.8428 6.49993 21.6878 6.49999 21.5608L6.5 21.5343V17.9938C6.15866 17.9839 5.86547 17.959 5.59581 17.8965C4.10925 17.5515 2.9485 16.3908 2.60354 14.9042C2.49939 14.4554 2.49964 13.9415 2.49996 13.2488L2.5 13.129L2.5 7.7587C2.49999 6.95373 2.49998 6.28937 2.54419 5.74818C2.59012 5.18608 2.68868 4.66937 2.93597 4.18404C3.31947 3.43139 3.93139 2.81947 4.68404 2.43598C5.16937 2.18868 5.68608 2.09012 6.24817 2.04419C6.78937 1.99998 7.45372 1.99999 8.25869 2H8.2587H12.2Z" fill="black"/>
</g>
<defs>
<clipPath id="clip0">
<rect width="24" height="24" fill="white"/>
</clipPath>
</defs>
</svg>
