<svg width="24" height="24" viewBox="0 0 24 24" fill="none" xmlns="http://www.w3.org/2000/svg">
<g clip-path="url(#clip0)">
<path fill-rule="evenodd" clip-rule="evenodd" d="M12.0001 0.5C9.2387 0.5 7.00012 2.73858 7.00012 5.5V11C7.00012 13.7614 9.2387 16 12.0001 16C14.7615 16 17.0001 13.7614 17.0001 11V5.5C17.0001 2.73858 14.7615 0.5 12.0001 0.5ZM9.00012 5.5C9.00012 3.84315 10.3433 2.5 12.0001 2.5C13.657 2.5 15.0001 3.84315 15.0001 5.5V11C15.0001 12.6569 13.657 14 12.0001 14C10.3433 14 9.00012 12.6569 9.00012 11V5.5ZM4.74411 11.8904C4.68374 11.3428 4.19171 10.947 3.64361 11.0057C3.09447 11.0646 2.697 11.5574 2.75584 12.1066L3.75014 12C2.75584 12.1066 2.75596 12.1077 2.75596 12.1077L2.75609 12.1089L2.75643 12.112L2.75734 12.12L2.76018 12.1436C2.76255 12.1626 2.76591 12.1883 2.77045 12.2201C2.77953 12.2836 2.79335 12.3719 2.81347 12.4815C2.85366 12.7003 2.91927 13.0054 3.023 13.3685C3.22951 14.0913 3.59252 15.0624 4.22148 16.0408C5.39912 17.8727 7.48052 19.6719 11.0002 19.96V23C11.0002 23.5523 11.4479 24 12.0002 24C12.5524 24 13.0002 23.5523 13.0002 23V19.96C16.5198 19.6719 18.6012 17.8727 19.7788 16.0408C20.4078 15.0624 20.7708 14.0913 20.9773 13.3685C21.081 13.0054 21.1466 12.7002 21.1868 12.4815C21.2069 12.3719 21.2208 12.2836 21.2298 12.2201C21.2344 12.1883 21.2377 12.1626 21.2401 12.1436L21.243 12.12L21.2439 12.112L21.2443 12.1077C21.2443 12.1077 21.2445 12.1066 20.2553 12.0006L21.2445 12.1066C21.3033 11.5574 20.9058 11.0645 20.3567 11.0057C19.8086 10.947 19.3165 11.3431 19.2561 11.8906L19.256 11.8917L19.2554 11.8966C19.2545 11.9041 19.2527 11.9177 19.2499 11.9372C19.2444 11.9762 19.2348 12.0383 19.2197 12.1202C19.1896 12.2842 19.138 12.5259 19.0542 12.8191C18.8858 13.4088 18.5925 14.1876 18.0965 14.9593C17.1316 16.4602 15.3679 18 12.0002 18C8.63236 18 6.86872 16.4602 5.90383 14.9593C5.40779 14.1876 5.11454 13.4088 4.94605 12.819C4.86227 12.5258 4.81069 12.2842 4.78057 12.1201C4.76553 12.0383 4.75592 11.9762 4.75035 11.9372C4.74756 11.9177 4.7458 11.9041 4.74487 11.8966L4.74411 11.8904ZM20.2501 12C19.2668 11.8947 19.256 11.8917 19.256 11.8917L19.2558 11.8935L20.2501 12Z" fill="black"/>
</g>
<defs>
<clipPath id="clip0">
<rect width="24" height="24" fill="white" transform="translate(0.00012207)"/>
</clipPath>
</defs>
</svg>
