<svg width="24" height="24" viewBox="0 0 24 24" fill="none" xmlns="http://www.w3.org/2000/svg">
<g clip-path="url(#clip0)">
<path fill-rule="evenodd" clip-rule="evenodd" d="M2.82698 5.63803C2.5 6.27976 2.5 7.11984 2.5 8.8V15.2C2.5 16.8802 2.5 17.7202 2.82698 18.362C3.1146 18.9265 3.57354 19.3854 4.13803 19.673C4.77976 20 5.61984 20 7.3 20H16.7C18.3802 20 19.2202 20 19.862 19.673C20.4265 19.3854 20.8854 18.9265 21.173 18.362C21.5 17.7202 21.5 16.8802 21.5 15.2V8.8C21.5 7.11984 21.5 6.27976 21.173 5.63803C20.8854 5.07354 20.4265 4.6146 19.862 4.32698C19.2202 4 18.3802 4 16.7 4H7.3C5.61984 4 4.77976 4 4.13803 4.32698C3.57354 4.6146 3.1146 5.07354 2.82698 5.63803ZM18.6717 8.37021C19.0142 8.13729 19.1031 7.6708 18.8702 7.32828C18.6373 6.98576 18.1708 6.8969 17.8283 7.12982L12.0181 11.0807L6.69578 7.14688C6.36268 6.90068 5.89306 6.97112 5.64686 7.30422C5.40065 7.63732 5.47109 8.10694 5.80419 8.35314L11.5542 12.6031C11.8104 12.7925 12.1583 12.7994 12.4217 12.6202L18.6717 8.37021Z" fill="black"/>
</g>
<defs>
<clipPath id="clip0">
<rect width="24" height="24" fill="white"/>
</clipPath>
</defs>
</svg>
