<svg xmlns="http://www.w3.org/2000/svg" width="16" height="16" viewBox="0 0 16 16">
    <g fill="none" fill-rule="evenodd">
        <path fill="#FFF" d="M0 0h16v16H0z" opacity=".01"/>
        <path fill="#000" fill-rule="nonzero" d="M8.037 9.018c3.307 0 5.3 2.285 6.034 5.357A1.318 1.318 0 0 1 12.789 16H3.435a1.435 1.435 0 0 1-1.386-1.806c.799-2.98 2.747-5.176 5.988-5.176zm0-1.314a3.858 3.858 0 0 1-3.864-3.852A3.858 3.858 0 0 1 8.037 0a3.858 3.858 0 0 1 3.864 3.852 3.858 3.858 0 0 1-3.864 3.852z"/>
    </g>
</svg>
