<svg width="24" height="24" viewBox="0 0 24 24" fill="none" xmlns="http://www.w3.org/2000/svg">
<g clip-path="url(#clip0)">
<path fill-rule="evenodd" clip-rule="evenodd" d="M8.25877 2H15.7414C16.5463 1.99999 17.2107 1.99998 17.7519 2.04419C18.314 2.09012 18.8307 2.18868 19.316 2.43597C20.0687 2.81947 20.6806 3.43139 21.0641 4.18404C21.3114 4.66937 21.41 5.18608 21.4559 5.74817C21.5001 6.28936 21.5001 6.95372 21.5001 7.75868V12.2413C21.5001 13.0463 21.5001 13.7106 21.4559 14.2518C21.41 14.8139 21.3114 15.3306 21.0641 15.816C20.6806 16.5686 20.0687 17.1805 19.316 17.564C18.8307 17.8113 18.314 17.9099 17.7519 17.9558C17.2107 18 16.5463 18 15.7413 18H14.9883C14.2069 18 13.9792 18.0064 13.7758 18.0553C13.5718 18.1043 13.3767 18.1851 13.1977 18.2947C13.0194 18.404 12.8538 18.5605 12.3013 19.113L8.89002 22.5243C8.88389 22.5304 8.87766 22.5366 8.87133 22.543C8.78152 22.6329 8.67256 22.7419 8.57239 22.8258C8.48982 22.8949 8.22987 23.1126 7.84815 23.1426C7.44925 23.174 7.05943 23.0125 6.79957 22.7083C6.55089 22.4171 6.52104 22.0802 6.51153 21.9729C6.5 21.8428 6.50001 21.6878 6.50006 21.5608C6.50007 21.5518 6.50007 21.543 6.50007 21.5343V17.9938C6.15873 17.9839 5.86554 17.959 5.59588 17.8965C4.10932 17.5515 2.94857 16.3908 2.60361 14.9042C2.49947 14.4554 2.49971 13.9415 2.50004 13.2488C2.50005 13.2095 2.50007 13.1696 2.50007 13.129L2.50007 7.7587C2.50006 6.95373 2.50005 6.28937 2.54427 5.74818C2.59019 5.18608 2.68876 4.66937 2.93605 4.18404C3.31954 3.43139 3.93146 2.81947 4.68411 2.43597C5.16945 2.18868 5.68615 2.09012 6.24825 2.04419C6.78944 1.99998 7.4538 1.99999 8.25877 2ZM6.41111 4.03755C5.9727 4.07337 5.74849 4.1383 5.59209 4.21799C5.21577 4.40973 4.90981 4.7157 4.71806 5.09202C4.63837 5.24842 4.57344 5.47262 4.53762 5.91104C4.50085 6.36113 4.50007 6.94342 4.50007 7.8V13.129C4.50007 13.9945 4.5066 14.2571 4.55184 14.4521C4.72432 15.1954 5.3047 15.7758 6.04798 15.9482C6.24294 15.9935 6.50554 16 7.37104 16L7.37294 16C7.38206 16 7.41256 15.9999 7.44251 16.0011C7.47969 16.0026 7.55609 16.007 7.64873 16.0285C8.05753 16.1233 8.37674 16.4425 8.4716 16.8513C8.4931 16.944 8.49748 17.0204 8.49896 17.0576C8.50015 17.0875 8.50009 17.118 8.50008 17.1271L8.50007 17.129V20.0858L10.8871 17.6988C10.9114 17.6745 10.9354 17.6504 10.9591 17.6267C11.4079 17.1775 11.747 16.8381 12.1527 16.5894C12.5106 16.3701 12.9008 16.2085 13.3089 16.1105C13.7716 15.9994 14.2514 15.9997 14.8864 16C14.9199 16 14.9539 16 14.9883 16H15.7001C16.5567 16 17.1389 15.9992 17.589 15.9624C18.0275 15.9266 18.2517 15.8617 18.4081 15.782C18.7844 15.5903 19.0903 15.2843 19.2821 14.908C19.3618 14.7516 19.4267 14.5274 19.4625 14.089C19.4993 13.6389 19.5001 13.0566 19.5001 12.2V7.8C19.5001 6.94342 19.4993 6.36113 19.4625 5.91104C19.4267 5.47262 19.3618 5.24842 19.2821 5.09202C19.0903 4.7157 18.7844 4.40973 18.4081 4.21799C18.2517 4.1383 18.0275 4.07337 17.589 4.03755C17.1389 4.00078 16.5567 4 15.7001 4H8.30007C7.44349 4 6.8612 4.00078 6.41111 4.03755ZM8.50361 21.7949C8.50363 21.7952 8.50359 21.7947 8.50361 21.7949V21.7949Z" fill="#969AA3"/>
</g>
<defs>
<clipPath id="clip0">
<rect width="24" height="24" fill="white"/>
</clipPath>
</defs>
</svg>
