<svg width="24" height="24" viewBox="0 0 24 24" fill="none" xmlns="http://www.w3.org/2000/svg">
<g clip-path="url(#clip0)">
<path fill-rule="evenodd" clip-rule="evenodd" d="M4.00001 8.00074C4.00001 3.58259 7.58159 -2.50339e-06 12 0C16.4184 2.5034e-06 20 3.5826 20 8.00074V10.8268L21.3799 14.6906C21.53 15.1107 21.661 15.4776 21.7451 15.7841C21.8321 16.1012 21.9003 16.458 21.8486 16.8375C21.7388 17.6431 21.2442 18.345 20.5225 18.7193C20.1825 18.8956 19.8235 18.9514 19.4957 18.9761C19.1787 19 18.7891 19 18.3431 19L16 19C16 21.2091 14.2091 23 12 23C9.79086 23 8 21.2091 8 19L5.65692 19C5.21092 19 4.82129 19 4.50433 18.9761C4.17652 18.9514 3.81752 18.8956 3.47749 18.7193C2.75579 18.345 2.26117 17.6431 2.1514 16.8375C2.09969 16.458 2.16794 16.1012 2.25489 15.7841C2.33896 15.4776 2.47001 15.1107 2.62004 14.6907L4.00001 10.8268V8.00074ZM10 19C10 20.1046 10.8954 21 12 21C13.1046 21 14 20.1046 14 19H10Z" fill="black"/>
</g>
<defs>
<clipPath id="clip0">
<rect width="24" height="24" fill="white"/>
</clipPath>
</defs>
</svg>
