<svg xmlns="http://www.w3.org/2000/svg" width="24" height="24" viewBox="0 0 24 24">
    <g fill="none" fill-rule="evenodd">
        <path fill="#FFF" fill-opacity=".01" d="M0 0h24v24H0z"/>
        <path fill="#000" fill-rule="nonzero" d="M3.273 3.273c-1.202 0-2.182.98-2.182 2.182v8.727c0 1.202.98 2.182 2.182 2.182H8.83l-2.182-2.182H3.273V5.455h17.454v8.727h-5.59l2.181 2.182h3.41c1.201 0 2.181-.98 2.181-2.182V5.455c0-1.202-.98-2.182-2.182-2.182H3.273zm3.272 6.545v2.727l7.091 7.091 2.728-2.727-7.091-7.09H6.545zm10.637 7.943l-2.693 2.694 1.159 1.159c.264.264.69.264.954 0l1.739-1.739a.674.674 0 0 0 0-.955l-1.16-1.159z"/>
    </g>
</svg>
