<svg width="24" height="24" viewBox="0 0 24 24" fill="none" xmlns="http://www.w3.org/2000/svg">
<g clip-path="url(#clip0)">
<path fill-rule="evenodd" clip-rule="evenodd" d="M12 0.5C7.34772 0.5 3.5 4.34772 3.5 9C3.5 11.4244 4.70318 13.0344 5.75629 14.206C5.97122 14.4451 6.1647 14.6509 6.34132 14.8388L6.34137 14.8388C6.62861 15.1444 6.87127 15.4025 7.08913 15.6793C7.42279 16.1033 7.5 16.3427 7.5 16.5V21C7.5 22.3807 8.61929 23.5 10 23.5H14C15.3807 23.5 16.5 22.3807 16.5 21V16.5C16.5 16.3427 16.5772 16.1033 16.9109 15.6793C17.1287 15.4025 17.3714 15.1444 17.6586 14.8388L17.6586 14.8388C17.8353 14.6509 18.0288 14.4451 18.2437 14.206C19.2968 13.0344 20.5 11.4244 20.5 9C20.5 4.34771 16.6523 0.5 12 0.5ZM9.5 21V19.5H14.5V21C14.5 21.2761 14.2761 21.5 14 21.5H10C9.72386 21.5 9.5 21.2761 9.5 21ZM10 9C9.44772 9 9 9.44771 9 10C9 10.5523 9.44772 11 10 11C10.325 11 10.5023 11.0784 10.6016 11.1446C10.7071 11.2149 10.7899 11.3158 10.8556 11.4472C10.9232 11.5825 10.962 11.7299 10.9824 11.8519C10.9921 11.9105 10.9966 11.9572 10.9986 11.9853C10.9991 11.992 10.9994 11.9976 10.9997 12.0018C10.9998 12.0049 10.9999 12.0073 11 12.009V14.5C11 15.0523 11.4477 15.5 12 15.5C12.5523 15.5 13 15.0523 13 14.5V12.009C13.0002 12.005 13.0005 11.997 13.0014 11.9853C13.0034 11.9572 13.0079 11.9105 13.0176 11.8519C13.038 11.7299 13.0768 11.5825 13.1444 11.4472C13.2101 11.3158 13.2929 11.2149 13.3984 11.1446C13.4977 11.0784 13.675 11 14 11C14.5523 11 15 10.5523 15 10C15 9.44771 14.5523 9 14 9C13.325 9 12.7523 9.17162 12.2891 9.48045C12.1843 9.55031 12.0881 9.62513 12 9.70341C11.9119 9.62513 11.8157 9.55031 11.711 9.48045C11.2477 9.17162 10.675 9 10 9Z" fill="black"/>
</g>
<defs>
<clipPath id="clip0">
<rect width="24" height="24" fill="white"/>
</clipPath>
</defs>
</svg>
