<svg width="24" height="24" viewBox="0 0 24 24" fill="none" xmlns="http://www.w3.org/2000/svg">
<g clip-path="url(#clip0)">
<path fill-rule="evenodd" clip-rule="evenodd" d="M1.68046 2.26721C1.27574 1.89141 0.643014 1.91484 0.267211 2.31955C-0.108592 2.72426 -0.0851575 3.35699 0.319553 3.7328L2.03659 5.32719L4.01006 19.1414C4.08043 19.6341 4.50235 20 5 20H17.8381L21.3196 23.2328C21.7243 23.6086 22.357 23.5852 22.7328 23.1805C23.1086 22.7757 23.0852 22.143 22.6805 21.7672L1.68046 2.26721ZM15.6842 18L4.36589 7.49011L5.8673 18H15.6842Z" fill="black"/>
<path d="M21.6852 7.13285L20.2695 17.0427L22.0532 18.699L23.99 5.14143C24.0462 4.74745 23.8635 4.35761 23.5248 4.14876C23.186 3.93992 22.7556 3.95183 22.4289 4.1791L17.4929 7.61286L13.816 2.42199C13.6286 2.15731 13.3244 2 13 2C12.6757 2 12.3715 2.15731 12.184 2.42199L9.14477 6.71264L10.6232 8.0855L13 4.73006L16.434 9.57802C16.7513 10.026 17.3704 10.1344 17.8211 9.82091L21.6852 7.13285Z" fill="black"/>
</g>
<defs>
<clipPath id="clip0">
<rect width="24" height="24" fill="white"/>
</clipPath>
</defs>
</svg>
