<svg width="24" height="24" viewBox="0 0 24 24" fill="none" xmlns="http://www.w3.org/2000/svg">
<g clip-path="url(#clip0)">
<path d="M20.07 9.942L9.63479 3.68086C8.44508 2.96703 7.85023 2.61012 7.36078 2.65574C6.934 2.69552 6.54463 2.91598 6.29094 3.26148C6 3.6577 6 4.35141 6 5.73884V18.2611C6 19.6486 6 20.3423 6.29094 20.7385C6.54463 21.084 6.934 21.3044 7.36078 21.3442C7.85023 21.3898 8.44508 21.0329 9.63479 20.3191L20.07 14.058C21.2014 13.3792 21.767 13.0398 21.9589 12.6009C22.1264 12.2178 22.1264 11.7822 21.9589 11.3991C21.767 10.9602 21.2014 10.6208 20.07 9.942Z" fill="black"/>
</g>
<defs>
<clipPath id="clip0">
<rect width="24" height="24" fill="white"/>
</clipPath>
</defs>
</svg>
