<svg width="24" height="24" viewBox="0 0 24 24" fill="none" xmlns="http://www.w3.org/2000/svg">
<g clip-path="url(#clip0)">
<path fill-rule="evenodd" clip-rule="evenodd" d="M12 2C12.3243 2 12.6285 2.15731 12.816 2.42198L16.4929 7.61286L21.4289 4.17909C21.7556 3.95183 22.186 3.93991 22.5248 4.14876C22.8635 4.3576 23.0462 4.74745 22.99 5.14142L20.99 19.1414C20.9196 19.6341 20.4977 20 20 20H4C3.50235 20 3.08043 19.6341 3.01005 19.1414L1.01005 5.14142C0.953769 4.74745 1.13646 4.3576 1.47523 4.14876C1.814 3.93991 2.24437 3.95183 2.57106 4.17909L7.5071 7.61286L11.184 2.42198C11.3715 2.15731 11.6757 2 12 2ZM12 4.73005L8.56602 9.57802C8.24871 10.026 7.62959 10.1344 7.17894 9.82091L3.31484 7.13284L4.8673 18H19.1327L20.6852 7.13284L16.8211 9.82091C16.3704 10.1344 15.7513 10.026 15.434 9.57802L12 4.73005Z" fill="black"/>
</g>
<defs>
<clipPath id="clip0">
<rect width="24" height="24" fill="white"/>
</clipPath>
</defs>
</svg>
