<?xml version="1.0" encoding="utf-8"?>
<!-- Generator: Adobe Illustrator 22.1.0, SVG Export Plug-In . SVG Version: 6.00 Build 0)  -->
<svg version="1.1" id="Слой_1" xmlns="http://www.w3.org/2000/svg" xmlns:xlink="http://www.w3.org/1999/xlink" x="0px" y="0px"
	 viewBox="0 0 16 16" style="enable-background:new 0 0 16 16;" xml:space="preserve">
<path d="M12.2,4c-0.5,0-0.9-0.2-1.2-0.5l-0.9-0.9C9.7,2.2,9.2,2,8.7,2H7.3c-0.5,0-1,0.2-1.4,0.6L5,3.5C4.7,3.8,4.2,4,3.8,4
	C2.8,4,2,4.8,2,5.8V11c0,1.1,0.9,2,2,2h8c1.1,0,2-0.9,2-2V5.8C14,4.8,13.2,4,12.2,4z M8,10.2c-1.2,0-2.2-1-2.2-2.2s1-2.2,2.2-2.2
	s2.2,1,2.2,2.2S9.2,10.2,8,10.2z"/>
</svg>
