<svg width="24" height="24" viewBox="0 0 24 24" fill="none" xmlns="http://www.w3.org/2000/svg">
<g clip-path="url(#clip0)">
<path d="M8.5 15.5L13.0698 20.0698C13.7269 20.7269 14.8457 20.4628 15.1396 19.5812L16.8507 14.4479C16.9489 14.1534 17.1143 13.8857 17.3339 13.6661L20.2322 10.7678C21.2085 9.79146 21.2085 8.20855 20.2322 7.23223L16.7678 3.76777C15.7915 2.79146 14.2085 2.79145 13.2322 3.76776L10.3339 6.66615C10.1143 6.8857 9.84665 7.05112 9.55209 7.1493L4.41875 8.86042C3.53721 9.15426 3.27309 10.2731 3.93015 10.9302L8.5 15.5ZM8.5 15.5L3 21" stroke="black" stroke-width="2" stroke-linecap="round" stroke-linejoin="round"/>
</g>
<defs>
<clipPath id="clip0">
<rect width="24" height="24" fill="white"/>
</clipPath>
</defs>
</svg>
