<svg width="24" height="24" viewBox="0 0 24 24" fill="none" xmlns="http://www.w3.org/2000/svg">
<g clip-path="url(#clip0)">
<path fill-rule="evenodd" clip-rule="evenodd" d="M16.118 3.84053C15.7163 3.71002 15.2837 3.71002 14.882 3.84053C14.715 3.89477 14.5106 4.0074 14.1752 4.29208C13.831 4.58434 13.4187 4.99553 12.813 5.60123L11.777 6.63721C11.7585 6.6557 11.7403 6.67395 11.7223 6.69197C11.3779 7.03663 11.1175 7.29722 10.8131 7.50641C10.5444 7.69114 10.254 7.84231 9.94856 7.95655C9.60266 8.08591 9.23985 8.1498 8.76 8.2343C8.73491 8.23872 8.70949 8.24319 8.68374 8.24774L6.21322 8.68371C5.45906 8.8168 4.96205 8.90553 4.60646 9.00237C4.32091 9.08015 4.23502 9.1372 4.22359 9.14492C4.12943 9.25118 4.08489 9.3925 4.10109 9.53355C4.10602 9.54642 4.14367 9.64242 4.333 9.86989C4.56878 10.1531 4.92506 10.5108 5.46657 11.0524L12.9476 18.5334C13.4892 19.0749 13.8469 19.4312 14.1301 19.667C14.3576 19.8563 14.4536 19.894 14.4665 19.8989C14.6075 19.9151 14.7488 19.8706 14.8551 19.7764C14.8628 19.765 14.9199 19.6791 14.9976 19.3935C15.0945 19.0379 15.1832 18.5409 15.3163 17.7868L15.7523 15.3163C15.7568 15.2905 15.7613 15.2651 15.7657 15.24C15.8502 14.7602 15.9141 14.3973 16.0435 14.0514C16.1577 13.746 16.3089 13.4556 16.4936 13.1869C16.7028 12.8825 16.9634 12.6221 17.308 12.2777C17.326 12.2597 17.3443 12.2415 17.3628 12.223L18.3988 11.187C19.0045 10.5813 19.4157 10.169 19.7079 9.82476C19.9926 9.48942 20.1052 9.28498 20.1595 9.11804C20.29 8.71635 20.29 8.28366 20.1595 7.88197C20.1052 7.71503 19.9926 7.51058 19.7079 7.17525C19.4157 6.83099 19.0045 6.41869 18.3988 5.813L18.187 5.60122C17.5813 4.99553 17.169 4.58434 16.8248 4.29208C16.4894 4.0074 16.285 3.89477 16.118 3.84053ZM14.2639 1.93842C15.0673 1.67739 15.9327 1.67739 16.7361 1.93842C17.2541 2.10674 17.6892 2.40241 18.1191 2.7674C18.5331 3.11882 19.0028 3.58859 19.572 4.1578L19.8423 4.42805C20.4114 4.99721 20.8812 5.46696 21.2326 5.8809C21.5976 6.31083 21.8933 6.74589 22.0616 7.26394C22.3226 8.06731 22.3226 8.9327 22.0616 9.73607C21.8933 10.2541 21.5976 10.6892 21.2326 11.1191C20.8812 11.5331 20.4114 12.0028 19.8422 12.572L18.777 13.6372C18.3542 14.06 18.2339 14.1858 18.1418 14.3198C18.0494 14.4541 17.9739 14.5993 17.9167 14.752C17.8598 14.9043 17.8257 15.0751 17.7218 15.6638L17.2776 18.1813C17.155 18.8758 17.0512 19.4644 16.9273 19.9191C16.8039 20.3724 16.6171 20.8747 16.2123 21.2455C15.6674 21.7447 14.9297 21.9773 14.1971 21.8808C13.6527 21.8091 13.2117 21.5047 12.8506 21.2042C12.4884 20.9027 12.0658 20.4801 11.5672 19.9814L8.5 16.9142L3.70711 21.7071C3.31658 22.0976 2.68342 22.0976 2.29289 21.7071C1.90237 21.3166 1.90237 20.6834 2.29289 20.2929L7.08579 15.5L4.01869 12.4329C3.51997 11.9342 3.09735 11.5116 2.79582 11.1494C2.49529 10.7883 2.19091 10.3473 2.11922 9.80293C2.02274 9.07032 2.2553 8.33256 2.75446 7.78771C3.12535 7.38288 3.62763 7.19611 4.08089 7.07267C4.53563 6.94881 5.12419 6.84497 5.81871 6.72243L8.33617 6.27817C8.92495 6.17427 9.09568 6.14023 9.24796 6.08327C9.4007 6.02615 9.54587 5.95057 9.68025 5.8582C9.81423 5.76611 9.94003 5.64576 10.3628 5.223L11.428 4.15782C11.9972 3.5886 12.4669 3.11882 12.8809 2.7674C13.3108 2.40241 13.7459 2.10674 14.2639 1.93842Z" fill="black"/>
</g>
<defs>
<clipPath id="clip0">
<rect width="24" height="24" fill="white"/>
</clipPath>
</defs>
</svg>
