<svg width="16" height="16" viewBox="0 0 16 16" fill="none" xmlns="http://www.w3.org/2000/svg">
<path fill-rule="evenodd" clip-rule="evenodd" d="M14.5 8C14.5 11.5899 11.5899 14.5 8 14.5C4.41015 14.5 1.5 11.5899 1.5 8C1.5 4.41015 4.41015 1.5 8 1.5C11.5899 1.5 14.5 4.41015 14.5 8ZM16 8C16 12.4183 12.4183 16 8 16C3.58172 16 0 12.4183 0 8C0 3.58172 3.58172 0 8 0C12.4183 0 16 3.58172 16 8ZM8.75 4.5C8.75 4.08579 8.41421 3.75 8 3.75C7.58579 3.75 7.25 4.08579 7.25 4.5V8C7.25 8.19891 7.32902 8.38968 7.46967 8.53033L9.96967 11.0303C10.2626 11.3232 10.7374 11.3232 11.0303 11.0303C11.3232 10.7374 11.3232 10.2626 11.0303 9.96967L8.75 7.68934V4.5Z" fill="black"/>
</svg>
