<svg width="24" height="24" viewBox="0 0 24 24" fill="none" xmlns="http://www.w3.org/2000/svg">
<g clip-path="url(#clip0)">
<path fill-rule="evenodd" clip-rule="evenodd" d="M11.1063 0.649333C11.6945 0.514513 12.3055 0.514513 12.8937 0.649333C13.5625 0.802634 14.1654 1.18403 14.9654 1.69005L15.0971 1.77333L19.7971 4.74175L19.912 4.81424C20.617 5.25887 21.1489 5.59436 21.5458 6.06063C21.8953 6.47117 22.1582 6.94812 22.3187 7.46283C22.5009 8.0474 22.5006 8.67629 22.5 9.50975L22.5 9.64559V14.3544L22.5 14.4902C22.5006 15.3237 22.5009 15.9525 22.3187 16.5371C22.1582 17.0518 21.8953 17.5288 21.5458 17.9393C21.1489 18.4056 20.617 18.7411 19.912 19.1857L19.7971 19.2582L15.0971 22.2266L14.9654 22.3099C14.1655 22.8159 13.5625 23.1973 12.8937 23.3506C12.3055 23.4854 11.6945 23.4854 11.1063 23.3506C10.4375 23.1973 9.83453 22.8159 9.03456 22.3099L8.90283 22.2266L4.20282 19.2582L4.08795 19.1857C3.383 18.7411 2.85107 18.4056 2.45415 17.9393C2.10467 17.5288 1.84179 17.0518 1.6813 16.5371C1.49903 15.9525 1.49942 15.3237 1.49993 14.4902L1.49999 14.3544V9.64559L1.49993 9.50975C1.49942 8.67629 1.49903 8.0474 1.6813 7.46283C1.84179 6.94812 2.10467 6.47117 2.45415 6.06063C2.85107 5.59436 3.38299 5.25887 4.08795 4.81424L4.20283 4.74175L8.90283 1.77333L9.03455 1.69005C9.83453 1.18403 10.4375 0.802634 11.1063 0.649333ZM12.4468 2.59878C12.1528 2.53137 11.8472 2.53137 11.5531 2.59878C11.2603 2.6659 10.9628 2.83776 9.97082 3.4643L5.27081 6.43273C4.39979 6.98284 4.15114 7.15257 3.97707 7.35705C3.80233 7.56232 3.67089 7.8008 3.59064 8.05815C3.51071 8.31452 3.49999 8.61539 3.49999 9.64559V14.3544C3.49999 15.3846 3.51071 15.6854 3.59064 15.9418C3.67089 16.1992 3.80233 16.4376 3.97707 16.6429C4.15114 16.8474 4.39979 17.0171 5.27081 17.5672L9.97081 20.5356C10.9628 21.1622 11.2603 21.334 11.5531 21.4012C11.8472 21.4686 12.1528 21.4686 12.4468 21.4012C12.7397 21.334 13.0371 21.1622 14.0292 20.5356L18.7292 17.5672C19.6002 17.0171 19.8488 16.8474 20.0229 16.6429C20.1976 16.4376 20.3291 16.1992 20.4093 15.9418C20.4893 15.6854 20.5 15.3846 20.5 14.3544V9.64559C20.5 8.61539 20.4893 8.31452 20.4093 8.05815C20.3291 7.8008 20.1976 7.56232 20.0229 7.35705C19.8488 7.15257 19.6002 6.98285 18.7292 6.43273L14.0292 3.46431C13.0371 2.83776 12.7397 2.6659 12.4468 2.59878ZM13.5 16.5C13.5 17.3284 12.8284 18 12 18C11.1716 18 10.5 17.3284 10.5 16.5C10.5 15.6715 11.1716 15 12 15C12.8284 15 13.5 15.6715 13.5 16.5ZM13 6.99997C13 6.44769 12.5523 5.99997 12 5.99997C11.4477 5.99997 11 6.44769 11 6.99997V12.5C11 13.0523 11.4477 13.5 12 13.5C12.5523 13.5 13 13.0523 13 12.5V6.99997Z" fill="black"/>
</g>
<defs>
<clipPath id="clip0">
<rect width="24" height="24" fill="white"/>
</clipPath>
</defs>
</svg>
