<svg xmlns="http://www.w3.org/2000/svg" width="24" height="24" viewBox="0 0 24 24">
    <g fill="#FFF" fill-rule="nonzero">
        <path fill-opacity=".01" d="M0 0h24v24H0z"/>
        <path d="M8.15 3C5.708 3 4.3 4.905 4.3 7.2c0 .773.37 1.55.37 1.55-.15.086-.393.357-.332.838.115.899.504 1.126.752 1.145.095.838.995 1.91 1.31 2.067v1.4c-.7 2.1-4.9.7-4.9 5.6h6.3c0-2.923 1.305-4.208 2.579-4.905A1.55 1.55 0 0 1 9.9 14.2v-1.4c.268-.132.954-.926 1.214-1.676-.22-.349-.392-.789-.465-1.36-.06-.473.011-.885.156-1.227A4.933 4.933 0 0 1 10.6 7.2c0-.97.2-1.86.56-2.63a1.717 1.717 0 0 0-1.26-.52S9.638 3 8.15 3zm7.7.001C13.408 3.001 12 4.905 12 7.2c0 .773.37 1.55.37 1.55-.15.086-.393.357-.332.838.115.899.504 1.126.752 1.145.095.838.995 1.91 1.31 2.067v1.4c-.7 2.1-4.9.7-4.9 5.6h13.3c0-4.9-4.2-3.5-4.9-5.6v-1.4c.315-.156 1.215-1.228 1.31-2.066.248-.019.637-.247.752-1.146.061-.482-.183-.752-.331-.838 0 0 .369-.7.369-1.549 0-1.7-.667-3.15-2.1-3.15 0 0-.262-1.05-1.75-1.05z"/>
    </g>
</svg>
