<svg xmlns="http://www.w3.org/2000/svg" width="24" height="24" viewBox="0 0 24 24">
    <g fill="none" fill-rule="evenodd">
        <path fill="#FFF" fill-opacity=".01" d="M0 0h24v24H0z"/>
        <path fill="#000" fill-rule="nonzero" d="M3.444 1A2.463 2.463 0 0 0 1 3.444v17.112A2.463 2.463 0 0 0 3.444 23h17.112A2.463 2.463 0 0 0 23 20.556V3.444A2.463 2.463 0 0 0 20.556 1H3.444zm0 2.444h17.112v17.112H3.444V3.444zm4.89 2.445v2.444H5.888v2.445h2.444v2.444H5.89v2.445h2.444v2.444h2.445v-2.444h2.444v2.444h2.445v-2.444h2.444v-2.445h-2.444v-2.444h2.444V8.333h-2.444V5.89h-2.445v2.444h-2.444V5.89H8.333zm2.444 4.889h2.444v2.444h-2.444v-2.444z"/>
    </g>
</svg>
