<svg width="24" height="24" viewBox="0 0 24 24" fill="none" xmlns="http://www.w3.org/2000/svg">
<g clip-path="url(#clip0)">
<path fill-rule="evenodd" clip-rule="evenodd" d="M14.8226 5.59186C14.3566 5.3862 13.9867 5.0105 13.7882 4.54139L13.0536 2.80518C12.9754 2.62019 12.794 2.5 12.5932 2.5H11.4068C11.206 2.5 11.0246 2.62019 10.9464 2.80518L10.2118 4.54138C10.0133 5.0105 9.64336 5.3862 9.17735 5.59185C8.71195 5.79724 8.27255 6.0522 7.86595 6.35038C7.45455 6.65207 6.94341 6.78515 6.43713 6.72237L4.56387 6.49011C4.36453 6.4654 4.16976 6.56236 4.06933 6.73631L3.47618 7.76369C3.37575 7.93764 3.38916 8.1548 3.51023 8.31507L4.64787 9.82105C4.95454 10.227 5.09496 10.7346 5.04056 11.2404C5.01379 11.4893 4.99999 11.7427 4.99999 12C4.99999 12.2573 5.01379 12.5107 5.04056 12.7596C5.09496 13.2654 4.95454 13.773 4.64787 14.1789L3.51023 15.6849L1.91438 14.4794L3.05203 12.9734C3.01764 12.6537 2.99999 12.3289 2.99999 12C2.99999 11.6711 3.01764 11.3463 3.05203 11.0266L1.91438 9.52059C1.30903 8.71924 1.24198 7.63343 1.74413 6.76369L2.33728 5.73631C2.83943 4.86657 3.81329 4.38174 4.80996 4.50531L6.68322 4.73757C7.20545 4.35461 7.77051 4.02661 8.36987 3.7621L9.10442 2.0259C9.49574 1.10098 10.4025 0.5 11.4068 0.5H12.5932C13.5974 0.5 14.5043 1.10098 14.8956 2.0259L15.6301 3.76211C16.2295 4.02661 16.7945 4.35461 17.3168 4.73757L19.19 4.50531C20.1867 4.38174 21.1606 4.86657 21.6627 5.73631L19.9307 6.73631C19.8302 6.56236 19.6355 6.4654 19.4361 6.49011L17.5629 6.72237C17.0566 6.78515 16.5454 6.65207 16.134 6.35038C15.7274 6.0522 15.288 5.79724 14.8226 5.59186ZM20.948 11.0266L22.0856 9.52059C22.691 8.71924 22.758 7.63343 22.2559 6.76369L21.6627 5.73631L19.9307 6.73631L20.5238 7.76369C20.6242 7.93764 20.6108 8.1548 20.4898 8.31507L19.3521 9.82105C19.0455 10.227 18.905 10.7346 18.9594 11.2404C18.9862 11.4893 19 11.7427 19 12C19 12.2573 18.9862 12.5107 18.9594 12.7596C18.905 13.2654 19.0455 13.773 19.3521 14.1789L20.4898 15.6849C20.6108 15.8452 20.6242 16.0624 20.5238 16.2363L19.9307 17.2637C19.8302 17.4376 19.6355 17.5346 19.4361 17.5099L17.5629 17.2776C17.0566 17.2149 16.5454 17.3479 16.134 17.6496C15.7274 17.9478 15.288 18.2028 14.8226 18.4081C14.3566 18.6138 13.9867 18.9895 13.7882 19.4586L13.0536 21.1948C12.9754 21.3798 12.794 21.5 12.5931 21.5H11.4068C11.206 21.5 11.0246 21.3798 10.9464 21.1948L10.2118 19.4586C10.0133 18.9895 9.64336 18.6138 9.17735 18.4081C8.71195 18.2028 8.27255 17.9478 7.86595 17.6496C7.45455 17.3479 6.94341 17.2149 6.43713 17.2776L4.56387 17.5099C4.36453 17.5346 4.16976 17.4376 4.06933 17.2637L3.47618 16.2363L1.74413 17.2363L3.47618 16.2363C3.37575 16.0624 3.38916 15.8452 3.51023 15.6849L1.91438 14.4794C1.30903 15.2808 1.24198 16.3666 1.74413 17.2363L2.33728 18.2637C2.83943 19.1334 3.81329 19.6183 4.80996 19.4947L6.68322 19.2624C7.20545 19.6454 7.77051 19.9734 8.36987 20.2379L9.10442 21.9741C9.49574 22.899 10.4025 23.5 11.4068 23.5H12.5931C13.5974 23.5 14.5043 22.899 14.8956 21.9741L15.6301 20.2379C16.2295 19.9734 16.7945 19.6454 17.3168 19.2624L19.19 19.4947C20.1867 19.6183 21.1606 19.1334 21.6627 18.2637L22.2559 17.2363C22.758 16.3666 22.691 15.2808 22.0856 14.4794L20.948 12.9734C20.9824 12.6537 21 12.3289 21 12C21 11.6711 20.9824 11.3463 20.948 11.0266ZM16.5 12C16.5 14.4853 14.4853 16.5 12 16.5C9.51471 16.5 7.49999 14.4853 7.49999 12C7.49999 9.51472 9.51471 7.5 12 7.5C14.4853 7.5 16.5 9.51472 16.5 12ZM14.5 12C14.5 13.3807 13.3807 14.5 12 14.5C10.6193 14.5 9.49999 13.3807 9.49999 12C9.49999 10.6193 10.6193 9.5 12 9.5C13.3807 9.5 14.5 10.6193 14.5 12Z" fill="black"/>
</g>
<defs>
<clipPath id="clip0">
<rect width="24" height="24" fill="white"/>
</clipPath>
</defs>
</svg>
