<svg width="24" height="24" viewBox="0 0 24 24" fill="none" xmlns="http://www.w3.org/2000/svg">
<g clip-path="url(#clip0)">
<path fill-rule="evenodd" clip-rule="evenodd" d="M12.647 7.54617C12.4357 7.51575 12.2197 7.5 12 7.5C9.51471 7.5 7.49999 9.51472 7.49999 12C7.49999 14.4853 9.51471 16.5 12 16.5C14.3694 16.5 16.3111 14.6688 16.487 12.3444C14.7519 11.1957 13.3959 9.52033 12.647 7.54617ZM12 14.5C13.3807 14.5 14.5 13.3807 14.5 12C14.5 10.6193 13.3807 9.5 12 9.5C10.6193 9.5 9.49999 10.6193 9.49999 12C9.49999 13.3807 10.6193 14.5 12 14.5Z" fill="black"/>
<path d="M19.2471 13.6163C19.3956 14.0766 19.6193 14.5327 19.94 14.9571L20.4898 15.6849C20.6108 15.8452 20.6242 16.0624 20.5238 16.2363L19.9307 17.2637C19.8302 17.4376 19.6355 17.5346 19.4361 17.5099L18.5324 17.3978C17.3743 17.2542 16.3193 17.5897 15.4998 18.064C14.6873 18.5342 13.8636 19.2803 13.4082 20.3568L13.0536 21.1948C12.9754 21.3798 12.794 21.5 12.5931 21.5H11.4068C11.206 21.5 11.0246 21.3798 10.9464 21.1948L10.5918 20.3568C10.1364 19.2803 9.31265 18.5342 8.50015 18.064C7.68069 17.5897 6.62567 17.2542 5.46761 17.3978L4.56387 17.5099C4.36453 17.5346 4.16976 17.4376 4.06933 17.2637L3.47618 16.2363C3.37575 16.0624 3.38916 15.8452 3.51023 15.6849L4.06001 14.9571C4.76274 14.0269 4.99999 12.9444 4.99999 12C4.99999 11.0556 4.76274 9.97311 4.06001 9.04285L3.51023 8.31507C3.38916 8.1548 3.37575 7.93764 3.47618 7.76369L4.06933 6.73631C4.16976 6.56236 4.36453 6.4654 4.56387 6.49011L5.46761 6.60217C6.62568 6.74575 7.68069 6.41027 8.50015 5.936C9.31265 5.46576 10.1364 4.71967 10.5918 3.64316L10.9464 2.80518C11.0246 2.62019 11.206 2.5 11.4068 2.5H12.1118C12.2159 1.80762 12.391 1.1385 12.6295 0.500263C12.6174 0.500088 12.6053 0.5 12.5932 0.5H11.4068C10.4025 0.5 9.49574 1.10098 9.10442 2.0259L8.74989 2.86388C8.50579 3.44085 8.04054 3.89119 7.49833 4.205C6.95526 4.51931 6.33639 4.69457 5.7137 4.61736L4.80996 4.50531C3.81329 4.38174 2.83943 4.86657 2.33728 5.73631L1.74413 6.76369C1.24198 7.63343 1.30903 8.71924 1.91438 9.52059L2.46416 10.2484C2.84181 10.7483 2.99999 11.3735 2.99999 12C2.99999 12.6265 2.84181 13.2517 2.46416 13.7516L1.91438 14.4794C1.30903 15.2808 1.24198 16.3666 1.74413 17.2363L2.33728 18.2637C2.83943 19.1334 3.81329 19.6183 4.80996 19.4947L5.7137 19.3826C6.33639 19.3054 6.95526 19.4807 7.49833 19.795C8.04054 20.1088 8.50579 20.5592 8.74989 21.1361L9.10442 21.9741C9.49574 22.899 10.4025 23.5 11.4068 23.5H12.5931C13.5974 23.5 14.5043 22.899 14.8956 21.9741L15.2501 21.1361C15.4942 20.5592 15.9594 20.1088 16.5017 19.795C17.0447 19.4807 17.6636 19.3054 18.2863 19.3826L19.19 19.4947C20.1867 19.6183 21.1606 19.1334 21.6627 18.2637L22.2559 17.2363C22.758 16.3666 22.691 15.2808 22.0856 14.4794L21.7206 13.9962C20.8649 13.9727 20.0361 13.8417 19.2471 13.6163Z" fill="black"/>
</g>
<defs>
<clipPath id="clip0">
<rect width="24" height="24" fill="white"/>
</clipPath>
</defs>
</svg>
