<svg width="24" height="24" viewBox="0 0 24 24" fill="none" xmlns="http://www.w3.org/2000/svg">
<g clip-path="url(#clip0)">
<path fill-rule="evenodd" clip-rule="evenodd" d="M12.6255 0.511052C12.221 1.59731 12 2.77284 12 4C12 5.69928 12.4238 7.29956 13.1716 8.7009C12.8053 8.57081 12.4109 8.5 12 8.5C10.067 8.5 8.5 10.067 8.5 12C8.5 13.933 10.067 15.5 12 15.5C13.933 15.5 15.5 13.933 15.5 12C15.5 11.8572 15.4914 11.7163 15.4748 11.5779C17.2262 13.0874 19.5065 14 22 14C22.4563 14 22.9054 13.9694 23.3455 13.9103C23.3348 14.0021 23.319 14.094 23.2979 14.1855L23.1224 14.9459C22.9018 15.9011 22.1433 16.6393 21.1825 16.8338L19.3421 17.2064C19.1448 17.4842 18.9321 17.7503 18.7052 18.0035L18.7559 19.8692C18.7825 20.8492 18.2339 21.7543 17.3527 22.1841L16.6513 22.5262C15.7701 22.956 14.7191 22.8311 13.9633 22.2067L12.4866 20.9871C12.3255 20.9957 12.1633 21 12 21C11.8367 21 11.6745 20.9957 11.5134 20.9871L10.0367 22.2067C9.28087 22.8311 8.22986 22.956 7.34872 22.5262L6.64727 22.1841C5.76613 21.7543 5.2175 20.8492 5.24412 19.8692L5.29481 18.0035C5.06795 17.7503 4.85522 17.4842 4.65787 17.2064L2.81755 16.8338C1.85668 16.6393 1.09818 15.9011 0.877644 14.9459L0.702084 14.1855C0.481552 13.2302 0.839693 12.2343 1.61805 11.6382L3.12741 10.4824C3.1824 10.1586 3.25469 9.84063 3.34329 9.52958L2.48287 7.80807C2.04458 6.93114 2.15929 5.87897 2.77625 5.11709L3.2674 4.51058C3.88436 3.7487 4.88969 3.41773 5.83858 3.66412L7.63121 4.1296C7.92847 3.96424 8.23608 3.81523 8.55282 3.68379L9.33387 1.96549C9.73954 1.07301 10.6294 0.5 11.6098 0.5H12.3902C12.4693 0.5 12.5478 0.503728 12.6255 0.511052Z" fill="black"/>
</g>
<defs>
<clipPath id="clip0">
<rect width="24" height="24" fill="white"/>
</clipPath>
</defs>
</svg>
