<svg width="24" height="24" viewBox="0 0 24 24" fill="none" xmlns="http://www.w3.org/2000/svg">
<g clip-path="url(#clip0)">
<path fill-rule="evenodd" clip-rule="evenodd" d="M12.647 7.54617C12.4357 7.51575 12.2197 7.5 12 7.5C9.51472 7.5 7.5 9.51472 7.5 12C7.5 14.4853 9.51472 16.5 12 16.5C14.3694 16.5 16.3111 14.6688 16.487 12.3444C14.7519 11.1957 13.3959 9.52033 12.647 7.54617ZM21.2938 13.9754L21.1736 14.496C21.1295 14.687 20.9778 14.8347 20.7856 14.8736L18.9453 15.2461C18.4471 15.347 18.006 15.6337 17.7117 16.0481C17.558 16.2643 17.3924 16.4716 17.2156 16.6689C16.8744 17.0497 16.6921 17.5467 16.7059 18.0578L16.7566 19.9235C16.7619 20.1195 16.6522 20.3006 16.476 20.3865L15.7745 20.7286C15.5983 20.8146 15.3881 20.7896 15.2369 20.6647L13.7603 19.4451C13.3736 19.1257 12.881 18.9632 12.3802 18.9899C12.2545 18.9966 12.1278 19 12 19C11.8722 19 11.7455 18.9966 11.6198 18.9899C11.119 18.9632 10.6264 19.1257 10.2397 19.4451L8.76307 20.6647C8.61189 20.7896 8.40169 20.8146 8.22547 20.7286L7.52401 20.3865C7.34779 20.3006 7.23806 20.1195 7.24339 19.9235L7.29407 18.0578C7.30795 17.5467 7.12557 17.0497 6.78438 16.6689C6.60764 16.4716 6.44197 16.2643 6.28834 16.0481C5.99397 15.6337 5.55287 15.347 5.05469 15.2461L3.21436 14.8736C3.02219 14.8347 2.87049 14.687 2.82638 14.496L2.65082 13.7356C2.60672 13.5445 2.67835 13.3453 2.83402 13.2261L4.34338 12.0703C4.74456 11.7631 5.01459 11.3154 5.09918 10.8172C5.14191 10.5656 5.19804 10.3188 5.26678 10.0775C5.40367 9.59686 5.35569 9.08242 5.13228 8.63543L4.27187 6.91393C4.18421 6.73854 4.20715 6.5281 4.33054 6.37573L4.82169 5.76922C4.94508 5.61684 5.14615 5.55065 5.33592 5.59993L7.12856 6.0654C7.62609 6.19459 8.15426 6.12726 8.60346 5.87738C8.83455 5.74883 9.07351 5.63309 9.3194 5.53105C9.78722 5.33691 10.164 4.9725 10.3736 4.5114L11.1546 2.7931C11.2357 2.6146 11.4137 2.5 11.6098 2.5H12.1118C12.2153 1.81153 12.3891 1.14604 12.6255 0.511052C12.5478 0.503728 12.4693 0.5 12.3902 0.5H11.6098C10.6294 0.5 9.73954 1.07301 9.33387 1.96549L8.55282 3.68379C8.23608 3.81523 7.92847 3.96424 7.63121 4.1296L5.83858 3.66412C4.88969 3.41773 3.88436 3.7487 3.2674 4.51058L2.77625 5.11709C2.15929 5.87897 2.04458 6.93114 2.48287 7.80807L3.34329 9.52958C3.25469 9.84063 3.1824 10.1586 3.12741 10.4824L1.61805 11.6382C0.839693 12.2343 0.481552 13.2302 0.702084 14.1855L0.877644 14.9459C1.09818 15.9011 1.85668 16.6393 2.81755 16.8338L4.65787 17.2064C4.85522 17.4842 5.06795 17.7503 5.29481 18.0035L5.24412 19.8692C5.2175 20.8492 5.76613 21.7543 6.64727 22.1841L7.34872 22.5262C8.22986 22.956 9.28087 22.8311 10.0367 22.2067L11.5134 20.9871C11.6745 20.9957 11.8367 21 12 21C12.1633 21 12.3255 20.9957 12.4866 20.9871L13.9633 22.2067C14.7191 22.8311 15.7701 22.956 16.6513 22.5262L17.3527 22.1841C18.2339 21.7543 18.7825 20.8492 18.7559 19.8692L18.7052 18.0035C18.9321 17.7503 19.1448 17.4842 19.3421 17.2064L21.1825 16.8338C22.1433 16.6393 22.9018 15.9011 23.1224 14.9459L23.2979 14.1855C23.319 14.094 23.3348 14.0021 23.3455 13.9103C22.9054 13.9694 22.4563 14 22 14C21.7626 14 21.5271 13.9917 21.2938 13.9754ZM12 14.5C13.3807 14.5 14.5 13.3807 14.5 12C14.5 10.6193 13.3807 9.5 12 9.5C10.6193 9.5 9.5 10.6193 9.5 12C9.5 13.3807 10.6193 14.5 12 14.5Z" fill="black"/>
</g>
<defs>
<clipPath id="clip0">
<rect width="24" height="24" fill="white"/>
</clipPath>
</defs>
</svg>
