<svg width="24" height="24" viewBox="0 0 24 24" fill="none" xmlns="http://www.w3.org/2000/svg">
<g clip-path="url(#clip0)">
<path fill-rule="evenodd" clip-rule="evenodd" d="M22.7018 10.9756C19.2582 10.7013 17.0304 9.86619 15.5821 8.41791C14.1338 6.96963 13.2987 4.74178 13.0244 1.2982C18.1438 1.78216 22.2179 5.85623 22.7018 10.9756ZM22.7058 12.9818C18.9702 12.7048 16.1294 11.7937 14.1679 9.83212C12.2064 7.87058 11.2952 5.02982 11.0182 1.29425C5.86464 1.76083 1.76082 5.86466 1.29424 11.0183C5.02981 11.2952 7.87056 12.2064 9.83211 14.1679C11.7937 16.1295 12.7048 18.9702 12.9818 22.7058C18.1354 22.2392 22.2392 18.1354 22.7058 12.9818ZM1.29818 13.0245C1.78215 18.1438 5.85622 22.2179 10.9756 22.7018C10.7013 19.2583 9.86618 17.0304 8.4179 15.5821C6.96962 14.1338 4.74177 13.2988 1.29818 13.0245Z" fill="black"/>
</g>
<defs>
<clipPath id="clip0">
<rect width="24" height="24" fill="white"/>
</clipPath>
</defs>
</svg>
