<svg width="24" height="24" viewBox="0 0 24 24" fill="none" xmlns="http://www.w3.org/2000/svg">
<g clip-path="url(#clip0)">
<path fill-rule="evenodd" clip-rule="evenodd" d="M12.7835 7.88679C12.5352 7.96045 12.2722 8 12 8C10.4812 8 9.25 6.76878 9.25 5.25C9.25 3.73122 10.4812 2.5 12 2.5C12.0373 2.5 12.0745 2.50075 12.1114 2.50222C12.2134 1.82321 12.3837 1.16655 12.615 0.539443C12.4137 0.51342 12.2084 0.5 12 0.5C9.37665 0.5 7.25 2.62665 7.25 5.25C7.25 7.87335 9.37665 10 12 10C12.6209 10 13.214 9.88085 13.7577 9.66418C13.3758 9.10959 13.0485 8.51454 12.7835 7.88679ZM17.2445 12.7991C15.8384 12.3069 14.1068 12 12 12C4.13498 12 1.5 16.2774 1.5 18.5C1.5 19.4772 1.83011 20.3693 2.48039 21.0196C3.13067 21.6699 4.02275 22 5 22H19C19.9772 22 20.8693 21.6699 21.5196 21.0196C22.1699 20.3693 22.5 19.4772 22.5 18.5C22.5 17.1102 21.4696 14.9168 18.7744 13.4684C18.2429 13.2873 17.7315 13.0628 17.2445 12.7991ZM12 14C4.86502 14 3.5 17.7226 3.5 18.5C3.5 19.0228 3.66989 19.3807 3.89461 19.6054C4.11933 19.8301 4.47725 20 5 20H19C19.5228 20 19.8807 19.8301 20.1054 19.6054C20.3301 19.3807 20.5 19.0228 20.5 18.5C20.5 17.7226 19.135 14 12 14Z" fill="black"/>
</g>
<defs>
<clipPath id="clip0">
<path d="M0 0H24V24H0V0Z" fill="white"/>
</clipPath>
</defs>
</svg>
