<svg width="24" height="24" viewBox="0 0 24 24" fill="none" xmlns="http://www.w3.org/2000/svg">
<g clip-path="url(#clip0)">
<path fill-rule="evenodd" clip-rule="evenodd" d="M8.10927 2.79936L18.6239 9.10813C19.1559 9.42733 19.6133 9.70171 19.9574 9.95357C20.3075 10.2098 20.6717 10.533 20.8752 10.9985C21.1543 11.637 21.1543 12.363 20.8752 13.0014C20.6717 13.4669 20.3075 13.7901 19.9574 14.0464C19.6133 14.2983 19.1559 14.5727 18.6239 14.8919L8.1093 21.2006C7.54863 21.537 7.06947 21.8245 6.66919 22.0174C6.2652 22.212 5.79053 22.3886 5.26797 22.3399C4.55667 22.2736 3.90772 21.9062 3.4849 21.3304C3.17428 20.9073 3.08152 20.4094 3.04055 19.9629C2.99996 19.5204 2.99998 18.9617 3 18.3078V5.69217C2.99998 5.03833 2.99996 4.47954 3.04055 4.0371C3.08152 3.59055 3.17428 3.09265 3.4849 2.66962C3.90772 2.0938 4.55667 1.72637 5.26797 1.66007C5.79053 1.61136 6.2652 1.78798 6.66919 1.9826C7.06947 2.17543 7.54861 2.46294 8.10927 2.79936ZM5.44759 3.65203C5.30969 3.66656 5.18399 3.73773 5.10058 3.84851C5.09504 3.86044 5.05715 3.94777 5.03219 4.21983C5.00101 4.55966 5 5.02537 5 5.73885V18.2611C5 18.9746 5.00101 19.4403 5.03219 19.7802C5.05715 20.0522 5.09504 20.1395 5.10058 20.1515C5.184 20.2623 5.30969 20.3334 5.4476 20.348C5.46069 20.3466 5.55509 20.3341 5.80119 20.2156C6.10864 20.0674 6.5085 19.8287 7.1203 19.4616L17.5555 13.2005C18.138 12.851 18.5151 12.6236 18.7761 12.4325C18.9849 12.2797 19.0374 12.2066 19.0445 12.196C19.0979 12.0708 19.0979 11.9292 19.0445 11.804C19.0374 11.7934 18.9849 11.7202 18.7761 11.5675C18.5151 11.3764 18.138 11.149 17.5555 10.7995L7.1203 4.53836C6.5085 4.17128 6.10864 3.93253 5.80119 3.78443C5.55506 3.66586 5.46067 3.65342 5.44759 3.65203Z" fill="black"/>
</g>
<defs>
<clipPath id="clip0">
<rect width="24" height="24" fill="white"/>
</clipPath>
</defs>
</svg>
