<svg width="16" height="16" viewBox="0 0 16 16" fill="none" xmlns="http://www.w3.org/2000/svg">
<path fill-rule="evenodd" clip-rule="evenodd" d="M8 15C11.866 15 15 11.866 15 8C15 4.13401 11.866 1 8 1C4.13401 1 1 4.13401 1 8C1 11.866 4.13401 15 8 15ZM11.2803 6.53033C11.5732 6.23744 11.5732 5.76256 11.2803 5.46967C10.9874 5.17678 10.5126 5.17678 10.2197 5.46967L6.75 8.93934L5.53033 7.71967C5.23744 7.42678 4.76256 7.42678 4.46967 7.71967C4.17678 8.01256 4.17678 8.48744 4.46967 8.78033L6.21967 10.5303C6.51256 10.8232 6.98744 10.8232 7.28033 10.5303L11.2803 6.53033Z" fill="black"/>
</svg>
