<svg width="24" height="24" viewBox="0 0 24 24" fill="none" xmlns="http://www.w3.org/2000/svg">
<g clip-path="url(#clip0)">
<path fill-rule="evenodd" clip-rule="evenodd" d="M2.50169 8C2.50979 6.83507 2.55658 6.16873 2.82698 5.63803C3.1146 5.07354 3.57354 4.6146 4.13803 4.32698C4.77976 4 5.61984 4 7.3 4H16.7C18.3802 4 19.2202 4 19.862 4.32698C20.4265 4.6146 20.8854 5.07354 21.173 5.63803C21.4434 6.16873 21.4902 6.83507 21.4983 8H2.50169ZM2.5 10V15.2C2.5 16.8802 2.5 17.7202 2.82698 18.362C3.1146 18.9265 3.57354 19.3854 4.13803 19.673C4.77976 20 5.61984 20 7.3 20H16.7C18.3802 20 19.2202 20 19.862 19.673C20.4265 19.3854 20.8854 18.9265 21.173 18.362C21.5 17.7202 21.5 16.8802 21.5 15.2V10H2.5ZM4.5 13C4.5 12.4477 4.94772 12 5.5 12H11.5C12.0523 12 12.5 12.4477 12.5 13C12.5 13.5523 12.0523 14 11.5 14H5.5C4.94772 14 4.5 13.5523 4.5 13Z" fill="black"/>
</g>
<defs>
<clipPath id="clip0">
<path d="M0 0H24V24H0V0Z" fill="white"/>
</clipPath>
</defs>
</svg>
