<svg width="19" height="23" viewBox="0 0 19 23" fill="none" xmlns="http://www.w3.org/2000/svg">
<path fill-rule="evenodd" clip-rule="evenodd" d="M5.9481 5.09869C5.9481 2.40064 6.93179 0.500244 9.4255 0.500244C12.715 0.500244 13.1939 3.67062 13.3734 4.85924L13.38 4.90278C13.6078 6.81122 14.7101 8.32281 15.7836 9.79479C16.9199 11.353 18.0238 12.8668 18.0238 14.76C18.0238 14.7771 18.0229 14.7949 18.022 14.8126C18.0211 14.8303 18.0202 14.848 18.0202 14.8652C17.5901 14.5949 17.0878 14.4316 16.5436 14.4316C16.1544 14.4316 15.7708 14.516 15.4225 14.6711C15.0715 14.516 14.6905 14.4316 14.3069 14.4316C14.0469 14.4316 13.8001 14.4781 13.5614 14.5459C13.2215 12.1311 12.3399 10.4699 11.5932 9.46494C11.4097 9.2174 11.2343 8.97671 11.0726 8.73028C11.0425 8.75194 11.0108 8.77696 10.9806 8.80083L10.9805 8.80092C10.9627 8.81497 10.9454 8.82862 10.9293 8.84093C10.8542 8.89825 10.7736 8.97089 10.6855 9.05033C10.3368 9.36482 9.86965 9.78602 9.15341 9.78602C8.58965 9.78527 8.1806 9.36522 7.86911 9.0441C7.72433 9.42897 7.46744 9.86992 7.13989 10.4209C6.52133 11.4621 5.77342 13.5291 5.64154 14.847C5.25889 14.652 4.8303 14.5387 4.38263 14.5387C4.1263 14.5387 3.86874 14.5751 3.62076 14.6457C3.46101 14.6912 3.31043 14.7573 3.16182 14.8307V14.8253C3.16182 12.1491 4.53416 10.1351 5.4003 8.86401C5.79966 8.27794 6.0914 7.84979 6.0914 7.58747C6.0914 7.17255 6.0557 6.76024 6.01993 6.34724C5.98405 5.93287 5.9481 5.51779 5.9481 5.09869ZM8.94758 5.0473C8.94758 4.25786 8.52184 3.28592 7.99524 3.28592C7.37854 3.28592 7.0429 4.15012 7.0429 5.0473C7.0429 5.83881 7.35714 6.60786 7.78481 6.8377L7.8024 6.82183C8.07654 6.5744 8.43162 6.25392 8.87502 6.13569C8.90577 5.88239 8.94758 5.18577 8.94758 5.0473ZM10.378 3.28803C10.9046 3.28803 11.283 4.26182 11.3304 5.0494C11.3585 5.52256 11.2283 6.38088 10.7662 6.80897C10.6342 6.7429 10.5011 6.65909 10.3636 6.57251C10.1014 6.40736 9.82307 6.2321 9.50551 6.15049C9.46942 5.83783 9.42388 5.19859 9.42388 5.0494C9.42388 4.25996 9.85143 3.28803 10.378 3.28803ZM7.51909 5.47385C7.51909 5.07913 7.73333 4.75914 7.99617 4.75914C8.25901 4.75914 8.47325 5.08006 8.47325 5.47385C8.47325 5.86764 8.25901 6.18675 7.99617 6.18675C7.73333 6.18675 7.51909 5.86764 7.51909 5.47385ZM10.3776 4.75914C10.1148 4.75914 9.90054 5.07913 9.90054 5.47385C9.90054 5.86764 10.1148 6.18675 10.3776 6.18675C10.6405 6.18675 10.8529 5.86764 10.8529 5.47385C10.8529 5.08006 10.6405 4.75914 10.3776 4.75914ZM13.3787 17.2178C13.3787 16.7051 13.7948 16.289 14.3075 16.289C14.5424 16.289 14.7749 16.3985 14.9151 16.5285C15.0768 16.6789 15.2573 16.7689 15.4412 16.7679C15.6325 16.767 15.8125 16.6505 15.9527 16.5158C16.093 16.3811 16.3166 16.289 16.5441 16.289C17.0568 16.289 17.4729 16.7051 17.4729 17.2178C17.4729 17.3023 17.4384 17.4663 17.4384 17.4663C17.3929 17.6874 17.4704 17.8516 17.5763 17.976C17.6803 18.0986 17.9025 18.1466 18.0298 18.1466C18.5424 18.1466 18.9585 18.5626 18.9585 19.0753C18.9585 19.4236 18.7575 19.7146 18.4742 19.8735C18.4751 19.8744 18.4765 19.8771 18.4778 19.8798L18.4778 19.8798C18.4792 19.8825 18.4805 19.8852 18.4814 19.8862C17.6762 20.3515 17.5673 20.4303 17.0593 20.8585C16.4352 21.3832 15.9985 21.854 15.6734 22.2153C15.3873 22.5636 14.9601 22.7903 14.4744 22.7903C13.6134 22.7903 12.9161 22.0931 12.9161 21.2321C12.9161 21.0288 12.9617 20.8633 13.0241 20.6362C13.1608 20.1393 13.3787 19.3474 13.3787 17.2178ZM4.49507 16.4032C4.37537 16.3883 4.25012 16.3953 4.12683 16.4304C3.90114 16.4945 3.70741 16.6624 3.60803 16.8258C3.49379 17.0153 3.34463 17.1521 3.16723 17.2013C2.98241 17.2524 2.7776 17.1917 2.60671 17.0997C2.43582 17.0078 2.19463 16.9795 1.97545 17.0417C1.48228 17.1819 1.19487 17.6968 1.33511 18.1899C1.35833 18.2726 1.43851 18.4185 1.43851 18.4185C1.54253 18.6191 1.51175 18.7996 1.44395 18.9482C1.37801 19.094 1.17743 19.2004 1.05576 19.2348C0.562587 19.375 0.27518 19.8881 0.415422 20.3812C0.510156 20.7156 0.781702 20.9436 1.09748 21.0179C1.09702 21.0193 1.09679 21.0218 1.09657 21.0243C1.09635 21.0268 1.09613 21.0293 1.09567 21.0306C1.99749 21.2582 2.1227 21.3036 2.72825 21.5767C3.47126 21.911 4.02014 22.2463 4.43158 22.5054C4.80122 22.7627 5.27592 22.8632 5.74309 22.7303C6.57061 22.4954 7.05194 21.6342 6.81697 20.8057C6.76138 20.6104 6.67242 20.4639 6.55039 20.2629C6.28295 19.8225 5.85672 19.1205 5.27508 17.0707C5.1699 16.7008 4.85415 16.4478 4.49507 16.4032ZM8.47525 19.965C8.46729 19.9471 8.45932 19.9293 8.45139 19.9112C8.88884 20.005 9.36504 20.0618 9.89351 20.0618C10.4006 20.0618 10.864 20.0067 11.2903 19.9167L11.2888 19.9223C11.269 20.0019 11.2504 20.0763 11.2322 20.1416L11.2303 20.1485C11.1526 20.4306 11.0563 20.7804 11.0563 21.2318C11.0563 21.4473 11.0817 21.6569 11.1198 21.8612H8.66181C8.75933 21.3476 8.75051 20.8167 8.60377 20.2994C8.56733 20.1719 8.52139 20.0687 8.47525 19.965Z" fill="white"/>
</svg>
