<svg width="20" height="23" viewBox="0 0 20 23" fill="none" xmlns="http://www.w3.org/2000/svg">
<path fill-rule="evenodd" clip-rule="evenodd" d="M17.3957 0.782564C17.5582 0.754508 17.7208 0.744682 17.8818 0.752182C18.3649 0.774682 18.8303 0.953345 19.2078 1.27084C19.7111 1.69418 19.9999 2.31446 19.9999 2.97223V10.75H9.99985V2.07163L17.3957 0.782564ZM1.83997 3.49335L7.77747 2.45819V10.7503H-0.000305176V5.68301C-0.000305176 4.60079 0.774417 3.68001 1.83997 3.49335ZM-0.000305176 12.972V18.0393C-0.000305176 19.1215 0.774417 20.0423 1.83997 20.2289L7.77747 21.2641V12.972H-0.000305176ZM9.99985 21.6504V12.972H19.9999V20.7498C19.9999 21.4064 19.7111 22.0257 19.2078 22.449C18.8033 22.789 18.2987 22.972 17.7798 22.972C17.652 22.972 17.5235 22.9617 17.3957 22.9394L9.99985 21.6504Z" fill="white"/>
</svg>
