<svg width="22" height="22" viewBox="0 0 22 22" fill="none" xmlns="http://www.w3.org/2000/svg">
<path d="M19.4796 5.70134C19.9485 5.40838 20.5705 5.54926 20.8197 6.04277C21.7627 7.91075 22.1565 10.0161 21.9437 12.1116C21.697 14.5403 20.6494 16.818 18.9659 18.5858C17.2824 20.3537 15.0586 21.5113 12.6449 21.8763C10.2311 22.2414 7.76452 21.7931 5.63354 20.6021C3.50256 19.4112 1.8283 17.5452 0.874446 15.298C-0.0794076 13.0509 -0.258652 10.5503 0.364943 8.19009C0.988539 5.82988 2.37954 3.74416 4.31887 2.26144C5.99219 0.98209 7.99168 0.214382 10.0768 0.0387934C10.6277 -0.00759631 11.0737 0.44842 11.0698 1.00124C11.0659 1.55407 10.6133 1.99332 10.0635 2.05086C8.42341 2.22248 6.85502 2.8425 5.53483 3.85186C3.94846 5.06473 2.81062 6.77084 2.30052 8.7015C1.79042 10.6322 1.93704 12.6776 2.7173 14.5158C3.49755 16.354 4.8671 17.8803 6.61024 18.8546C8.35338 19.8288 10.3711 20.1954 12.3455 19.8968C14.32 19.5982 16.139 18.6513 17.5161 17.2052C18.8932 15.7591 19.7501 13.896 19.9519 11.9093C20.1199 10.256 19.8261 8.59525 19.113 7.10844C18.8739 6.60998 19.0108 5.9943 19.4796 5.70134Z" fill="#676D7A"/>
</svg>
