<svg width="24" height="24" viewBox="0 0 24 24" fill="none" xmlns="http://www.w3.org/2000/svg">
<g clip-path="url(#clip0)">
<path fill-rule="evenodd" clip-rule="evenodd" d="M13.2579 -0.0346852C13.7567 -0.116287 14.2631 0.0588622 14.605 0.431236C14.9227 0.777291 14.9638 1.22236 14.98 1.4144C15.0001 1.65211 15 1.95385 15 2.27429L15 8.99998L19.3893 8.99998C19.6222 8.99993 19.8601 8.99988 20.0554 9.01764C20.243 9.03471 20.595 9.07991 20.904 9.32521C21.2603 9.6081 21.469 10.0374 21.4713 10.4924C21.4733 10.8869 21.2913 11.1916 21.1888 11.3497C21.0822 11.5142 20.9351 11.7013 20.7912 11.8843L12.1915 22.8295C11.9935 23.0815 11.8071 23.3187 11.6445 23.4933C11.5131 23.6342 11.2058 23.9588 10.7422 24.0347C10.2433 24.1163 9.73688 23.9411 9.39503 23.5687C9.07734 23.2227 9.03623 22.7776 9.02002 22.5856C8.99995 22.3479 8.99998 22.0461 9.00001 21.7257L9.00001 15L4.61069 15C4.37787 15 4.13991 15.0001 3.94465 14.9823C3.757 14.9653 3.40503 14.9201 3.09606 14.6748C2.73973 14.3919 2.53107 13.9625 2.52876 13.5076C2.52677 13.1131 2.70869 12.8084 2.8112 12.6503C2.91787 12.4858 3.06493 12.2987 3.2088 12.1157C3.21608 12.1064 3.22335 12.0971 3.23061 12.0879L11.8086 1.1705C12.0065 0.91851 12.1929 0.681221 12.3556 0.506704C12.487 0.365717 12.7943 0.0411492 13.2579 -0.0346852ZM13 2.8913L5.05748 13H9.20001C9.20761 13 9.21533 13 9.22314 13C9.34226 12.9999 9.48452 12.9999 9.60984 13.0101C9.75506 13.022 9.96305 13.0524 10.181 13.1635C10.4632 13.3073 10.6927 13.5368 10.8365 13.819C10.9476 14.0369 10.978 14.2449 10.9899 14.3902C11.0001 14.5155 11.0001 14.6577 11 14.7769C11 14.7847 11 14.7924 11 14.8V21.1087L18.9425 11H14.8C14.7924 11 14.7847 11 14.7769 11C14.6578 11 14.5155 11.0001 14.3902 10.9898C14.245 10.978 14.037 10.9475 13.819 10.8365C13.5368 10.6927 13.3073 10.4632 13.1635 10.181C13.0525 9.96302 13.022 9.75503 13.0101 9.60981C12.9999 9.48449 13 9.34223 13 9.22311C13 9.2153 13 9.20758 13 9.19998V2.8913Z" fill="#676D7A" />
</g>
<defs>
<clipPath id="clip0">
<path d="M0 0H24V24H0V0Z" fill="white"/>
</clipPath>
</defs>
</svg>
