<svg width="24" height="24" viewBox="0 0 24 24" fill="none" xmlns="http://www.w3.org/2000/svg">
<path d="M11.0595 0.785276C11.6703 0.583619 12.3298 0.583619 12.9406 0.785276C13.2698 0.893964 13.5457 1.06521 13.8053 1.25805C14.0497 1.43963 14.3262 1.67667 14.644 1.94909L23.1508 9.24073C23.4686 9.51307 23.5831 9.95445 23.4379 10.3469C23.2927 10.7394 22.9185 11 22.5 11C22.2239 11 22 11.2238 22 11.5V17.9352C22.0001 18.4181 22.0001 18.8347 21.9743 19.1787C21.9471 19.5413 21.8872 19.903 21.7245 20.256C21.4254 20.9047 20.9047 21.4254 20.256 21.7244C19.9031 21.8871 19.5414 21.947 19.1787 21.9742C18.8347 22 18.4181 22 17.9353 22H15.5C15.2348 22 14.9805 21.8946 14.7929 21.7071C14.6054 21.5196 14.5 21.2652 14.5 21L14.5 16.6C14.5 16.5893 14.5 16.5787 14.5 16.5682C14.5 16.0582 14.499 15.7258 14.4799 15.4708C14.4611 15.2209 14.4292 15.1269 14.4082 15.0813C14.3085 14.8651 14.1349 14.6915 13.9187 14.5918C13.8731 14.5708 13.7792 14.5389 13.5292 14.5202C13.269 14.5006 12.9281 14.5 12.4 14.5H11.6C11.072 14.5 10.7311 14.5006 10.4709 14.5201C10.2209 14.5389 10.127 14.5708 10.0814 14.5918C9.86516 14.6915 9.69159 14.8651 9.5919 15.0813C9.5709 15.1269 9.53895 15.2209 9.52021 15.4708C9.5007 15.7311 9.50005 16.072 9.50005 16.6V21C9.50005 21.5523 9.05233 22 8.50005 22H6.0648C5.58195 22 5.16536 22 4.82136 21.9742C4.45874 21.947 4.09701 21.8871 3.74407 21.7244C3.09537 21.4254 2.57467 20.9047 2.27562 20.256C2.11291 19.903 2.053 19.5413 2.02581 19.1787C2.00002 18.8347 2.00003 18.4181 2.00005 17.9352L2.00005 11.5C2.00005 11.2238 1.77619 11 1.50005 11C1.08157 11 0.707354 10.7394 0.562164 10.3469C0.416974 9.95445 0.531523 9.51307 0.849251 9.24073L9.35605 1.94909C9.67385 1.67667 9.95038 1.43963 10.1948 1.25805C10.4544 1.06521 10.7303 0.893964 11.0595 0.785276Z" fill="var(--accentPrimary)"/>
</svg>
