<svg width="24" height="24" viewBox="0 0 24 24" fill="none" xmlns="http://www.w3.org/2000/svg">
<g clip-path="url(#clip0)">
<path fill-rule="evenodd" clip-rule="evenodd" d="M9.10442 2.0259C9.49574 1.10098 10.4025 0.5 11.4068 0.5H12.5932C13.5974 0.5 14.5043 1.10098 14.8956 2.0259L15.2501 2.86388C15.4942 3.44085 15.9594 3.89119 16.5017 4.205C17.0447 4.51931 17.6636 4.69457 18.2863 4.61736L19.19 4.50531C20.1867 4.38174 21.1606 4.86657 21.6627 5.73631L22.2559 6.76369C22.758 7.63343 22.691 8.71924 22.0856 9.52059L21.5358 10.2484C21.1582 10.7483 21 11.3735 21 12C21 12.6265 21.1582 13.2517 21.5358 13.7516L22.0856 14.4794C22.691 15.2808 22.758 16.3666 22.2559 17.2363L21.6627 18.2637C21.1606 19.1334 20.1867 19.6183 19.19 19.4947L18.2863 19.3826C17.6636 19.3054 17.0447 19.4807 16.5017 19.795C15.9594 20.1088 15.4942 20.5592 15.2501 21.1361L14.8956 21.9741C14.5043 22.899 13.5974 23.5 12.5931 23.5H11.4068C10.4025 23.5 9.49574 22.899 9.10442 21.9741L8.74989 21.1361C8.50579 20.5592 8.04054 20.1088 7.49833 19.795C6.95526 19.4807 6.33639 19.3054 5.7137 19.3826L4.80996 19.4947C3.81329 19.6183 2.83943 19.1334 2.33728 18.2637L1.74413 17.2363C1.24198 16.3666 1.30903 15.2808 1.91438 14.4794L2.46416 13.7516C2.84181 13.2517 2.99999 12.6265 2.99999 12C2.99999 11.3735 2.84181 10.7483 2.46416 10.2484L1.91438 9.52059C1.30903 8.71924 1.24198 7.63343 1.74413 6.76369L2.33728 5.73631C2.83943 4.86657 3.81329 4.38174 4.80996 4.50531L5.7137 4.61736C6.33639 4.69457 6.95526 4.51931 7.49833 4.205C8.04054 3.89119 8.50579 3.44085 8.74989 2.86388L9.10442 2.0259ZM12 15.5C13.933 15.5 15.5 13.933 15.5 12C15.5 10.067 13.933 8.5 12 8.5C10.067 8.5 8.49999 10.067 8.49999 12C8.49999 13.933 10.067 15.5 12 15.5Z" fill="#71747A"/>
</g>
<defs>
<clipPath id="clip0">
<rect width="24" height="24" fill="white"/>
</clipPath>
</defs>
</svg>
