<svg width="24" height="24" viewBox="0 0 24 24" fill="none" xmlns="http://www.w3.org/2000/svg">
<g clip-path="url(#clip0)">
<path fill-rule="evenodd" clip-rule="evenodd" d="M10.3736 4.5114C10.164 4.9725 9.78722 5.33691 9.3194 5.53105C9.07351 5.63309 8.83455 5.74883 8.60346 5.87738C8.15426 6.12726 7.62609 6.19459 7.12856 6.0654L5.33592 5.59993C5.14615 5.55065 4.94508 5.61684 4.82169 5.76922L4.33054 6.37573C4.20715 6.5281 4.18421 6.73854 4.27187 6.91393L5.13228 8.63543C5.35569 9.08242 5.40367 9.59686 5.26678 10.0775C5.19804 10.3188 5.14191 10.5656 5.09918 10.8172C5.01459 11.3154 4.74456 11.7631 4.34338 12.0703L2.83402 13.2261C2.67835 13.3453 2.60672 13.5445 2.65082 13.7356L2.82638 14.496C2.87049 14.687 3.02219 14.8347 3.21436 14.8736L5.05469 15.2461C5.55287 15.347 5.99397 15.6337 6.28834 16.0481C6.44197 16.2643 6.60764 16.4716 6.78438 16.6689C7.12557 17.0497 7.30795 17.5467 7.29407 18.0578L7.24339 19.9235C7.23806 20.1195 7.34779 20.3006 7.52401 20.3865L8.22547 20.7286C8.40169 20.8146 8.61189 20.7896 8.76307 20.6647L10.2397 19.4451C10.6264 19.1257 11.119 18.9632 11.6198 18.9899C11.7455 18.9966 11.8722 19 12 19C12.1278 19 12.2545 18.9966 12.3802 18.9899C12.881 18.9632 13.3736 19.1257 13.7603 19.4451L15.2369 20.6647C15.3881 20.7896 15.5983 20.8146 15.7745 20.7286L16.476 20.3865C16.6522 20.3006 16.7619 20.1195 16.7566 19.9235L16.7059 18.0578C16.6921 17.5467 16.8744 17.0497 17.2156 16.6689C17.3924 16.4716 17.558 16.2643 17.7117 16.0481C18.006 15.6337 18.4471 15.347 18.9453 15.2461L20.7856 14.8736C20.9778 14.8347 21.1295 14.687 21.1736 14.496L21.3492 13.7356C21.3933 13.5445 21.3217 13.3453 21.166 13.2261L19.6566 12.0703C19.2554 11.7631 18.9854 11.3154 18.9008 10.8172C18.8581 10.5656 18.802 10.3188 18.7332 10.0775C18.5963 9.59685 18.6443 9.08242 18.8677 8.63543L19.7281 6.91393C19.8158 6.73854 19.7928 6.52811 19.6695 6.37573L21.1719 5.1591L19.6695 6.37573L19.1783 5.76922C19.0549 5.61684 18.8539 5.55065 18.6641 5.59993L16.8714 6.06541C16.3739 6.19459 15.8457 6.12726 15.3965 5.87738C15.1655 5.74883 14.9265 5.63309 14.6806 5.53105C14.2128 5.33691 13.836 4.9725 13.6264 4.5114L12.8454 2.7931C12.7643 2.6146 12.5863 2.5 12.3902 2.5H11.6098C11.4137 2.5 11.2357 2.6146 11.1546 2.7931L10.3736 4.5114ZM15.4472 3.68379L14.6661 1.96549C14.2605 1.07301 13.3706 0.5 12.3902 0.5H11.6098C10.6294 0.5 9.73954 1.07301 9.33387 1.96549L8.55282 3.68379C8.23608 3.81523 7.92847 3.96424 7.63121 4.1296L5.83858 3.66412C4.88969 3.41773 3.88436 3.7487 3.2674 4.51058L2.77625 5.11709C2.15929 5.87897 2.04458 6.93114 2.48287 7.80807L3.34329 9.52958C3.25469 9.84063 3.1824 10.1586 3.12741 10.4824L1.61805 11.6382C0.839693 12.2343 0.481552 13.2302 0.702084 14.1855L0.877644 14.9459C1.09818 15.9011 1.85668 16.6393 2.81755 16.8338L4.65787 17.2064C4.85522 17.4842 5.06795 17.7503 5.29481 18.0035L5.24412 19.8692C5.2175 20.8492 5.76613 21.7543 6.64727 22.1841L7.34872 22.5262C8.22986 22.956 9.28087 22.8311 10.0367 22.2067L11.5134 20.9871C11.6745 20.9957 11.8367 21 12 21C12.1633 21 12.3255 20.9957 12.4866 20.9871L13.9633 22.2067C14.7191 22.8311 15.7701 22.956 16.6513 22.5262L17.3527 22.1841C18.2339 21.7543 18.7825 20.8492 18.7559 19.8692L18.7052 18.0035C18.9321 17.7503 19.1448 17.4842 19.3421 17.2064L21.1825 16.8338C22.1433 16.6393 22.9018 15.9011 23.1224 14.9459L23.2979 14.1855C23.5184 13.2302 23.1603 12.2343 22.382 11.6382L20.8726 10.4824C20.8176 10.1586 20.7453 9.84063 20.6567 9.52958L21.5171 7.80807C21.9554 6.93114 21.8407 5.87897 21.2237 5.11709L20.7326 4.51058C20.1156 3.7487 19.1103 3.41773 18.1614 3.66412L16.3688 4.1296C16.0715 3.96424 15.7639 3.81523 15.4472 3.68379ZM16.5 12C16.5 14.4853 14.4853 16.5 12 16.5C9.51472 16.5 7.5 14.4853 7.5 12C7.5 9.51472 9.51472 7.5 12 7.5C14.4853 7.5 16.5 9.51472 16.5 12ZM14.5 12C14.5 13.3807 13.3807 14.5 12 14.5C10.6193 14.5 9.5 13.3807 9.5 12C9.5 10.6193 10.6193 9.5 12 9.5C13.3807 9.5 14.5 10.6193 14.5 12Z" fill="#71747A"/>
</g>
<defs>
<clipPath id="clip0">
<rect width="24" height="24" fill="white"/>
</clipPath>
</defs>
</svg>
