<svg width="18" height="18" viewBox="0 0 18 18" fill="none" xmlns="http://www.w3.org/2000/svg">
<g opacity="0.6">
<g clip-path="url(#clip0)">
<path d="M5.92503 3.13135C4.36385 3.13135 3.09375 4.43592 3.09375 6.03944C3.09375 7.64297 4.36385 8.94754 5.92503 8.94754C7.48621 8.94754 8.75634 7.64297 8.75634 6.03944C8.75634 4.43592 7.48624 3.13135 5.92503 3.13135Z" fill="#9393A7"/>
<path d="M12.8465 3.54785C12.8401 3.54785 12.8337 3.54788 12.8273 3.54791C12.1721 3.55316 11.5601 3.82115 11.1041 4.30257C10.6561 4.77547 10.4125 5.39935 10.4181 6.05923C10.4237 6.71912 10.6779 7.33901 11.1339 7.80472C11.5935 8.27404 12.2023 8.53179 12.8502 8.53179C12.8567 8.53179 12.8632 8.53176 12.8698 8.53173C13.5249 8.52648 14.1369 8.25846 14.5929 7.77707C15.041 7.30417 15.2846 6.68029 15.279 6.02038C15.2673 4.65288 14.178 3.54785 12.8465 3.54785Z" fill="#9393A7"/>
<path d="M12.9654 9.0083H12.7303C11.6354 9.0083 10.6362 9.41156 9.88184 10.0725C10.0706 10.2128 10.2502 10.3657 10.4205 10.5306C10.9228 11.0173 11.3173 11.5843 11.593 12.2159C11.8414 12.7847 11.9832 13.384 12.0162 14.0012H16.338C16.8222 14.0012 17.2147 13.6087 17.2147 13.1245C17.2147 10.855 15.3084 9.0083 12.9654 9.0083Z" fill="#9393A7"/>
<path d="M10.6211 14.0004C10.5354 12.6623 9.83523 11.4854 8.79032 10.7311C8.03019 10.1823 7.08738 9.85742 6.0661 9.85742H5.78314C3.26221 9.85745 1.21875 11.837 1.21875 14.2792C1.21875 14.569 1.45369 14.8039 1.74351 14.8039H10.1054C10.3952 14.8039 10.6302 14.569 10.6302 14.2792C10.6302 14.1856 10.6272 14.0925 10.6211 14.0004Z" fill="#9393A7"/>
</g>
</g>
<defs>
<clipPath id="clip0">
<rect width="15.9963" height="15.0268" fill="white" transform="translate(1.21777 1.45459)"/>
</clipPath>
</defs>
</svg>
