<svg width="18" height="18" viewBox="0 0 18 18" fill="none" xmlns="http://www.w3.org/2000/svg">
<g opacity="0.6" clip-path="url(#clip0)">
<path fill-rule="evenodd" clip-rule="evenodd" d="M6.19408 1.5H11.806C12.4098 1.49999 12.908 1.49998 13.3139 1.53315C13.7355 1.56759 14.123 1.64151 14.487 1.82698C15.0515 2.1146 15.5105 2.57354 15.7981 3.13803C15.9835 3.50203 16.0575 3.88956 16.0919 4.31113C16.1251 4.71702 16.1251 5.21529 16.1251 5.81901V9.18099C16.1251 9.78471 16.1251 10.283 16.0919 10.6889C16.0575 11.1104 15.9835 11.498 15.7981 11.862C15.5105 12.4265 15.0515 12.8854 14.487 13.173C14.123 13.3585 13.7355 13.4324 13.3139 13.4669C12.908 13.5 12.4097 13.5 11.806 13.5H11.2412C10.6552 13.5 10.4844 13.5048 10.3319 13.5414C10.1788 13.5782 10.0325 13.6388 9.89829 13.721C9.76452 13.803 9.64035 13.9204 9.22597 14.3347L6.66752 16.8932C6.66292 16.8978 6.65825 16.9025 6.65351 16.9072C6.58614 16.9746 6.50442 17.0564 6.42929 17.1193C6.36736 17.1712 6.1724 17.3344 5.88611 17.3569C5.58694 17.3805 5.29458 17.2594 5.09968 17.0312C4.91317 16.8128 4.89078 16.5601 4.88365 16.4797C4.875 16.3821 4.875 16.2659 4.87505 16.1706C4.87505 16.1639 4.87505 16.1572 4.87505 16.1507V13.4953C4.61905 13.4879 4.39916 13.4693 4.19691 13.4223C3.08199 13.1636 2.21143 12.2931 1.95271 11.1781C1.8746 10.8416 1.87478 10.4561 1.87503 9.93663C1.87504 9.90712 1.87505 9.87717 1.87505 9.84677L1.87505 5.81903C1.87505 5.2153 1.87504 4.71703 1.9082 4.31113C1.94264 3.88956 2.01657 3.50203 2.20204 3.13803C2.48966 2.57354 2.9486 2.1146 3.51308 1.82698C3.87708 1.64151 4.26461 1.56759 4.68619 1.53315C5.09208 1.49998 5.59035 1.49999 6.19408 1.5Z" fill="#9393A7"/>
</g>
<defs>
<clipPath id="clip0">
<rect width="18" height="18" fill="white"/>
</clipPath>
</defs>
</svg>
