<svg xmlns="http://www.w3.org/2000/svg" xmlns:xlink="http://www.w3.org/1999/xlink" width="432" height="333" viewBox="0 0 432 333">
    <defs>
        <linearGradient id="a" x1="50%" x2="50%" y1="71.878%" y2="98.555%">
            <stop offset="0%" stop-color="#D4E1F8"/>
            <stop offset="100%" stop-color="#FFF"/>
        </linearGradient>
        <linearGradient id="b" x1="203.728%" x2="-41.694%" y1="-74.473%" y2="165.564%">
            <stop offset="0%" stop-color="#D2E0F9" stop-opacity="0"/>
            <stop offset="100%" stop-color="#B1C6E7" stop-opacity=".465"/>
        </linearGradient>
        <linearGradient id="c" x1="59.934%" x2="50%" y1="-8.552%" y2="83.495%">
            <stop offset="0%" stop-color="#9CB4E0"/>
            <stop offset="100%" stop-color="#FFF" stop-opacity="0"/>
        </linearGradient>
        <filter id="d" width="372.2%" height="388.2%" x="-141.7%" y="-138.2%" filterUnits="objectBoundingBox">
            <feOffset dx="-1" dy="1" in="SourceAlpha" result="shadowOffsetOuter1"/>
            <feGaussianBlur in="shadowOffsetOuter1" result="shadowBlurOuter1" stdDeviation="8"/>
            <feColorMatrix in="shadowBlurOuter1" result="shadowMatrixOuter1" values="0 0 0 0 0.563270621 0 0 0 0 0.0744315542 0 0 0 0 0.0744315542 0 0 0 0.5 0"/>
            <feMerge>
                <feMergeNode in="shadowMatrixOuter1"/>
                <feMergeNode in="SourceGraphic"/>
            </feMerge>
        </filter>
        <linearGradient id="e" x1="0%" x2="106.166%" y1="71.67%" y2="56.892%">
            <stop offset="0%" stop-color="#FDC86B"/>
            <stop offset="100%" stop-color="#FAE539"/>
        </linearGradient>
        <linearGradient id="f" x1="0%" x2="106.166%" y1="71.67%" y2="56.892%">
            <stop offset="0%" stop-color="#FDAE6B"/>
            <stop offset="100%" stop-color="#FAE539"/>
        </linearGradient>
        <filter id="g" width="216.7%" height="275%" x="-60.7%" y="-83.9%" filterUnits="objectBoundingBox">
            <feOffset dx="-1" dy="1" in="SourceAlpha" result="shadowOffsetOuter1"/>
            <feGaussianBlur in="shadowOffsetOuter1" result="shadowBlurOuter1" stdDeviation="8"/>
            <feColorMatrix in="shadowBlurOuter1" result="shadowMatrixOuter1" values="0 0 0 0 0.563270621 0 0 0 0 0.0744315542 0 0 0 0 0.0744315542 0 0 0 0.5 0"/>
            <feMerge>
                <feMergeNode in="shadowMatrixOuter1"/>
                <feMergeNode in="SourceGraphic"/>
            </feMerge>
        </filter>
        <filter id="h" width="216.7%" height="275%" x="-60.7%" y="-83.9%" filterUnits="objectBoundingBox">
            <feOffset dx="-1" dy="1" in="SourceAlpha" result="shadowOffsetOuter1"/>
            <feGaussianBlur in="shadowOffsetOuter1" result="shadowBlurOuter1" stdDeviation="8"/>
            <feColorMatrix in="shadowBlurOuter1" result="shadowMatrixOuter1" values="0 0 0 0 0.563270621 0 0 0 0 0.0744315542 0 0 0 0 0.0744315542 0 0 0 0.5 0"/>
            <feMerge>
                <feMergeNode in="shadowMatrixOuter1"/>
                <feMergeNode in="SourceGraphic"/>
            </feMerge>
        </filter>
        <filter id="i" width="216.7%" height="275%" x="-60.7%" y="-83.9%" filterUnits="objectBoundingBox">
            <feOffset dx="-1" dy="1" in="SourceAlpha" result="shadowOffsetOuter1"/>
            <feGaussianBlur in="shadowOffsetOuter1" result="shadowBlurOuter1" stdDeviation="8"/>
            <feColorMatrix in="shadowBlurOuter1" result="shadowMatrixOuter1" values="0 0 0 0 0.563270621 0 0 0 0 0.0744315542 0 0 0 0 0.0744315542 0 0 0 0.5 0"/>
            <feMerge>
                <feMergeNode in="shadowMatrixOuter1"/>
                <feMergeNode in="SourceGraphic"/>
            </feMerge>
        </filter>
        <filter id="j" width="216.7%" height="275%" x="-60.7%" y="-83.9%" filterUnits="objectBoundingBox">
            <feOffset dx="-1" dy="1" in="SourceAlpha" result="shadowOffsetOuter1"/>
            <feGaussianBlur in="shadowOffsetOuter1" result="shadowBlurOuter1" stdDeviation="8"/>
            <feColorMatrix in="shadowBlurOuter1" result="shadowMatrixOuter1" values="0 0 0 0 0.563270621 0 0 0 0 0.0744315542 0 0 0 0 0.0744315542 0 0 0 0.5 0"/>
            <feMerge>
                <feMergeNode in="shadowMatrixOuter1"/>
                <feMergeNode in="SourceGraphic"/>
            </feMerge>
        </filter>
        <filter id="k" width="216.7%" height="275%" x="-60.7%" y="-83.9%" filterUnits="objectBoundingBox">
            <feOffset dx="-1" dy="1" in="SourceAlpha" result="shadowOffsetOuter1"/>
            <feGaussianBlur in="shadowOffsetOuter1" result="shadowBlurOuter1" stdDeviation="8"/>
            <feColorMatrix in="shadowBlurOuter1" result="shadowMatrixOuter1" values="0 0 0 0 0.563270621 0 0 0 0 0.0744315542 0 0 0 0 0.0744315542 0 0 0 0.5 0"/>
            <feMerge>
                <feMergeNode in="shadowMatrixOuter1"/>
                <feMergeNode in="SourceGraphic"/>
            </feMerge>
        </filter>
        <filter id="l" width="216.7%" height="269%" x="-60.7%" y="-81%" filterUnits="objectBoundingBox">
            <feOffset dx="-1" dy="1" in="SourceAlpha" result="shadowOffsetOuter1"/>
            <feGaussianBlur in="shadowOffsetOuter1" result="shadowBlurOuter1" stdDeviation="8"/>
            <feColorMatrix in="shadowBlurOuter1" result="shadowMatrixOuter1" values="0 0 0 0 0.563270621 0 0 0 0 0.0744315542 0 0 0 0 0.0744315542 0 0 0 0.5 0"/>
            <feMerge>
                <feMergeNode in="shadowMatrixOuter1"/>
                <feMergeNode in="SourceGraphic"/>
            </feMerge>
        </filter>
        <linearGradient id="m" x1="7.297%" x2="77.884%" y1="-11.313%" y2="85.449%">
            <stop offset="0%" stop-color="#A6C4F4"/>
            <stop offset="100%" stop-color="#C6D4EE"/>
        </linearGradient>
        <linearGradient id="n" x1="19.71%" x2="91.975%" y1="16.829%" y2="100%">
            <stop offset="0%" stop-color="#EDF3FD"/>
            <stop offset="100%" stop-color="#D0DAEA"/>
        </linearGradient>
        <linearGradient id="o" x1="50%" x2="50%" y1="0%" y2="100%">
            <stop offset="0%" stop-color="#EDF3FD"/>
            <stop offset="100%" stop-color="#D6E3FA"/>
        </linearGradient>
        <linearGradient id="p" x1="50%" x2="82.831%" y1="-17.216%" y2="127.709%">
            <stop offset="0%" stop-color="#E5ECF8"/>
            <stop offset="100%" stop-color="#C6D4EE"/>
        </linearGradient>
        <linearGradient id="q" x1="24.884%" x2="58.188%" y1="100%" y2="-44.943%">
            <stop offset="0%" stop-color="#D9E5F6" stop-opacity="0"/>
            <stop offset="100%" stop-color="#B2C6EA"/>
        </linearGradient>
        <linearGradient id="r" x1="100%" x2="23.229%" y1="100%" y2="67.759%">
            <stop offset="0%" stop-color="#ACC5E9"/>
            <stop offset="62.747%" stop-color="#D3E3FB"/>
            <stop offset="100%" stop-color="#EAF2FF"/>
        </linearGradient>
        <linearGradient id="s" x1="77.599%" x2="40.27%" y1="0%" y2="146.301%">
            <stop offset="0%" stop-color="#86A8D9"/>
            <stop offset="100%" stop-color="#BCD0F2"/>
        </linearGradient>
        <linearGradient id="t" x1="34.233%" x2="78.602%" y1="5.042%" y2="100%">
            <stop offset="0%" stop-color="#B1FFBE"/>
            <stop offset="44.421%" stop-color="#5CDB8E"/>
            <stop offset="100%" stop-color="#149654"/>
        </linearGradient>
        <path id="u" d="M46.639 77.523c-1.504-10.43-5.639-25.49-18.07-41.71C21.244 26.256 21.22 2.986 20.163.42 25.91 2.402 36.233 7.51 46.639 21.91c10.908 15.094 3.988 45.878 0 55.614z"/>
        <filter id="v" width="161.9%" height="125.9%" x="-30.9%" y="-13%" filterUnits="objectBoundingBox">
            <feGaussianBlur in="SourceAlpha" result="shadowBlurInner1" stdDeviation="7"/>
            <feOffset dy="-6" in="shadowBlurInner1" result="shadowOffsetInner1"/>
            <feComposite in="shadowOffsetInner1" in2="SourceAlpha" k2="-1" k3="1" operator="arithmetic" result="shadowInnerInner1"/>
            <feColorMatrix in="shadowInnerInner1" values="0 0 0 0 0.221483195 0 0 0 0 0.778539541 0 0 0 0 0.610041349 0 0 0 1 0"/>
        </filter>
        <linearGradient id="w" x1="78.601%" x2="90.361%" y1="-9.302%" y2="88.816%">
            <stop offset="0%" stop-color="#B1FFBE"/>
            <stop offset="44.421%" stop-color="#5CDB8E"/>
            <stop offset="100%" stop-color="#149654"/>
        </linearGradient>
        <path id="x" d="M46.692 88.243c-4.644-7.447-12.849-17.54-27.774-25.722C10.126 57.7 2.306 39.963.638 38.362c5.05-.424 14.639-.007 27.407 7.47 13.385 7.836 18.426 33.643 18.647 42.411z"/>
        <filter id="y" width="143.4%" height="140%" x="-21.7%" y="-20%" filterUnits="objectBoundingBox">
            <feGaussianBlur in="SourceAlpha" result="shadowBlurInner1" stdDeviation="7"/>
            <feOffset dy="-6" in="shadowBlurInner1" result="shadowOffsetInner1"/>
            <feComposite in="shadowOffsetInner1" in2="SourceAlpha" k2="-1" k3="1" operator="arithmetic" result="shadowInnerInner1"/>
            <feColorMatrix in="shadowInnerInner1" values="0 0 0 0 0.221483195 0 0 0 0 0.778539541 0 0 0 0 0.610041349 0 0 0 1 0"/>
        </filter>
        <path id="z" d="M50.17 88.962c3.66-8.015 10.527-19.125 24.335-29.203 8.133-5.937 13.627-24.61 15.08-26.419-5.084.23-14.581 1.886-26.332 10.98-12.317 9.535-13.998 35.883-13.084 44.642z"/>
        <filter id="A" width="150.5%" height="136%" x="-25.2%" y="-18%" filterUnits="objectBoundingBox">
            <feGaussianBlur in="SourceAlpha" result="shadowBlurInner1" stdDeviation="7"/>
            <feOffset dy="-6" in="shadowBlurInner1" result="shadowOffsetInner1"/>
            <feComposite in="shadowOffsetInner1" in2="SourceAlpha" k2="-1" k3="1" operator="arithmetic" result="shadowInnerInner1"/>
            <feColorMatrix in="shadowInnerInner1" values="0 0 0 0 0.221483195 0 0 0 0 0.778539541 0 0 0 0 0.610041349 0 0 0 1 0"/>
        </filter>
        <linearGradient id="C" x1="50.542%" x2="73.282%" y1="119.017%" y2="61.56%">
            <stop offset="0%" stop-color="#8FC3F2"/>
            <stop offset="100%" stop-color="#7DABF3"/>
        </linearGradient>
        <path id="B" d="M2.159 4.426c0 6.319-5.207 18.7 1.583 21.91 4.526 2.14 8.79-2.348 12.793-13.462C16.19 4.712 13.972.63 9.88.63c-6.138 0-7.721-2.523-7.721 3.795z"/>
        <linearGradient id="E" x1="-25.803%" x2="42.446%" y1="100%" y2="30.427%">
            <stop offset="0%" stop-color="#47689B"/>
            <stop offset="100%" stop-color="#223762"/>
        </linearGradient>
        <linearGradient id="F" x1=".986%" x2="28.554%" y1="103.075%" y2="0%">
            <stop offset="0%" stop-color="#1790FF"/>
            <stop offset="100%" stop-color="#77B8F2"/>
        </linearGradient>
        <linearGradient id="G" x1="89.265%" x2="79.854%" y1="83.22%" y2="25.681%">
            <stop offset="0%" stop-color="#CFDDF3" stop-opacity=".478"/>
            <stop offset="100%" stop-color="#A1B8E3"/>
        </linearGradient>
        <linearGradient id="H" x1="118.802%" x2="68.986%" y1="0%" y2="49.472%">
            <stop offset="0%" stop-color="#99C8F3"/>
            <stop offset="100%" stop-color="#71A0EC"/>
        </linearGradient>
        <linearGradient id="I" x1="50%" x2="81.44%" y1="0%" y2="56.409%">
            <stop offset="0%" stop-color="#164898"/>
            <stop offset="100%" stop-color="#223762"/>
        </linearGradient>
        <linearGradient id="J" x1="0%" x2="75.513%" y1="50%" y2="33.469%">
            <stop offset="0%" stop-color="#EDF3FD"/>
            <stop offset="100%" stop-color="#D6E3FA"/>
        </linearGradient>
        <path id="K" d="M29.554.578c6.284 1.657 11.277 4.676 14.98 9.056 5.554 6.57 4.316 26.334 5.889 38.097 1.573 11.763 8.418 20.314-2.155 26.953-10.573 6.638-40.466 5.13-42.911 0C3.727 71.263 1.983 59.04.126 38.017c0-18.922 1.113-29.181 3.339-30.776C5.69 5.646 9.402 3.307 14.599.224c-.116.47 1.079.936 3.586 1.401 2.507.465 6.296.116 11.369-1.047z"/>
        <linearGradient id="L" x1="44.736%" x2="67.424%" y1="57.782%" y2="23.718%">
            <stop offset="0%" stop-color="#CFDDF3"/>
            <stop offset="100%" stop-color="#A1B8E3"/>
        </linearGradient>
        <linearGradient id="N" x1="86.223%" x2="56.964%" y1="231.608%" y2="-57.141%">
            <stop offset="0%" stop-color="#CFDDF3"/>
            <stop offset="100%" stop-color="#A1B8E3"/>
        </linearGradient>
        <linearGradient id="O" x1="50%" x2="50%" y1="166.803%" y2="24.303%">
            <stop offset="0%" stop-color="#B7D5F0"/>
            <stop offset="100%" stop-color="#A0C2F8"/>
        </linearGradient>
        <linearGradient id="P" x1="22.107%" x2="22.107%" y1="11.214%" y2="79.611%">
            <stop offset="0%" stop-color="#F7F7F8"/>
            <stop offset="100%" stop-color="#ECF3FF"/>
        </linearGradient>
    </defs>
    <g fill="none" fill-rule="evenodd">
        <path fill="url(#a)" d="M284.267 33.57c53.041.72 96.911 24.793 108.242 64.245 15.227 53.015-34.072 113.727-110.113 135.604-51.932 14.94-102.906 7.903-134.86-14.949-69.614 8.704-130.717-17.077-144.449-64.887C-12.93 97.81 41.576 33.183 124.831 9.23 189.08-9.252 251.674 1.89 284.267 33.57z" opacity=".2" transform="translate(-.285 .11)"/>
        <path stroke="url(#b)" stroke-linecap="round" stroke-linejoin="round" stroke-width="8" d="M53.924 109.16L90.23 81.356M53.924 122.618l28.637-21.932M209.257 119.632l36.307-27.806M209.257 133.895l28.637-21.932M302.617 91.44l36.308-27.806M302.617 105.703l28.638-21.932" opacity=".473" transform="translate(-.285 .11)"/>
        <g>
            <path fill="url(#c)" d="M.507 150.166l156.656-29.152 155.046 12.879-192.904 98.86" opacity=".201" transform="translate(83 119)"/>
            <path fill="#FFF" d="M9.07 16.09c-16.838-9.327-4.66-20.922 0-13.113 4.66-7.809 16.838 3.786 0 13.113z" filter="url(#d)" transform="translate(275.667 173.7)"/>
            <g transform="rotate(-12 816.65 -1058.289)">
                <rect width="41.657" height="27.521" fill="url(#e)" rx="5.04"/>
                <g fill="#FFF" fill-rule="nonzero">
                    <path d="M15.008 12.027c.21.148.841.587 1.895 1.318 1.054.73 1.862 1.293 2.422 1.688.062.043.193.137.393.282.2.145.367.262.5.352.132.09.292.19.48.3.188.111.366.195.532.25.166.055.32.083.462.083h.019c.142 0 .296-.028.462-.083.167-.055.344-.139.532-.25.188-.11.348-.21.48-.3.133-.09.3-.207.5-.352s.331-.239.393-.282l4.327-3.006c.45-.315.825-.694 1.127-1.138.303-.444.454-.91.454-1.397 0-.407-.147-.755-.44-1.045a1.429 1.429 0 0 0-1.04-.435h-13.61c-.474 0-.839.16-1.095.481-.256.32-.383.722-.383 1.203 0 .388.17.81.508 1.262.339.454.7.81 1.082 1.069z"/>
                    <path d="M29.06 13.016a192.148 192.148 0 0 0-4.603 3.192c-.352.259-.637.46-.855.606-.22.145-.51.293-.874.444a2.66 2.66 0 0 1-1.017.226h-.019a2.66 2.66 0 0 1-1.017-.226 5.28 5.28 0 0 1-.873-.444 21.896 21.896 0 0 1-.856-.606c-.832-.61-2.363-1.675-4.595-3.192a4.898 4.898 0 0 1-.933-.804v7.344c0 .408.144.756.434 1.046.29.29.638.435 1.045.435h13.61c.406 0 .754-.145 1.044-.435.29-.29.435-.638.435-1.046v-7.344a5.1 5.1 0 0 1-.925.804z"/>
                </g>
                <rect width="41.657" height="27.521" x="5.447" y="18.575" fill="url(#f)" rx="5.04"/>
            </g>
            <rect width="41.657" height="27.521" fill="url(#e)" filter="url(#g)" rx="5.04" transform="translate(340.951 176.189)"/>
            <rect width="41.657" height="27.521" fill="url(#e)" filter="url(#h)" rx="5.04" transform="translate(288.724 170.59)"/>
            <g transform="rotate(13 -471.556 1671.483)">
                <rect width="41.657" height="27.521" fill="url(#e)" rx="5.04"/>
                <g fill="#FFF" fill-rule="nonzero">
                    <path d="M13.373 11.435c.21.148.841.587 1.895 1.318 1.054.73 1.862 1.293 2.423 1.688l.393.282c.2.145.366.263.499.352.132.09.293.19.48.3.189.111.366.195.532.25.167.056.32.083.463.083h.019c.14 0 .295-.027.461-.083.167-.055.344-.139.532-.25.188-.11.348-.21.48-.3.133-.09.3-.207.5-.352s.331-.239.393-.282l4.327-3.006c.45-.315.826-.694 1.128-1.138.302-.444.453-.91.453-1.397 0-.407-.147-.755-.44-1.045a1.429 1.429 0 0 0-1.04-.435H13.262c-.474 0-.84.16-1.096.481-.255.32-.383.722-.383 1.203 0 .388.17.81.508 1.262.34.454.7.81 1.082 1.069z"/>
                    <path d="M27.426 12.425a192.148 192.148 0 0 0-4.604 3.191c-.351.259-.636.461-.855.606-.219.145-.51.293-.874.444a2.66 2.66 0 0 1-1.017.226H20.058a2.66 2.66 0 0 1-1.017-.226 5.28 5.28 0 0 1-.874-.444 21.896 21.896 0 0 1-.855-.606c-.832-.61-2.364-1.674-4.595-3.191a4.898 4.898 0 0 1-.934-.805v7.344c0 .408.145.756.434 1.046.29.29.638.435 1.045.435h13.61c.406 0 .755-.145 1.044-.435.29-.29.435-.638.435-1.046V11.62a5.1 5.1 0 0 1-.925.805z"/>
                </g>
            </g>
            <g transform="rotate(15 -363.815 1115.716)">
                <rect width="41.657" height="27.521" fill="url(#e)" rx="5.04"/>
                <g fill="#FFF" fill-rule="nonzero">
                    <path d="M13.243 11.71c.21.149.842.588 1.896 1.319 1.054.73 1.861 1.293 2.422 1.688.062.043.192.137.393.282.2.145.367.262.499.352.132.09.293.19.48.3.189.111.366.195.532.25.167.056.321.083.463.083h.019c.141 0 .295-.027.462-.083.166-.055.343-.139.531-.25.188-.11.348-.21.481-.3s.299-.207.5-.352c.2-.145.33-.239.392-.282l4.327-3.006c.45-.315.826-.694 1.128-1.138.302-.444.453-.91.453-1.397 0-.407-.146-.755-.44-1.045a1.429 1.429 0 0 0-1.04-.435H13.133c-.474 0-.84.16-1.095.481-.256.32-.384.722-.384 1.203 0 .388.17.81.509 1.262.338.454.7.81 1.081 1.069z"/>
                    <path d="M27.296 12.7a192.148 192.148 0 0 0-4.604 3.192c-.351.259-.636.461-.855.606-.219.145-.51.293-.874.444a2.66 2.66 0 0 1-1.017.226h-.019a2.66 2.66 0 0 1-1.016-.226 5.28 5.28 0 0 1-.874-.444 21.896 21.896 0 0 1-.855-.606c-.832-.61-2.364-1.674-4.595-3.191a4.898 4.898 0 0 1-.934-.805v7.344c0 .408.145.756.435 1.046.29.29.638.435 1.044.435h13.61c.407 0 .755-.145 1.045-.435.29-.29.434-.638.434-1.046v-7.344a5.1 5.1 0 0 1-.925.805z"/>
                </g>
            </g>
            <g filter="url(#i)" transform="rotate(-10 1075.463 -1464.12)">
                <rect width="41.657" height="27.521" fill="url(#e)" rx="5.04"/>
                <g fill="#FFF" fill-rule="nonzero">
                    <path d="M13.908 12.197c.21.147.841.587 1.895 1.318 1.054.73 1.862 1.293 2.422 1.688.062.043.193.137.393.282.2.145.367.262.5.352.132.089.292.19.48.3.188.111.366.194.532.25.166.055.32.083.462.083h.019c.142 0 .296-.028.462-.083.167-.056.344-.14.532-.25.188-.111.348-.211.48-.3.133-.09.3-.207.5-.352s.331-.239.393-.282l4.327-3.007c.45-.314.825-.693 1.127-1.137.303-.444.454-.91.454-1.397 0-.407-.147-.756-.44-1.045a1.429 1.429 0 0 0-1.04-.435h-13.61c-.474 0-.839.16-1.095.48-.256.322-.383.722-.383 1.203 0 .389.17.81.508 1.263.339.453.7.81 1.082 1.069z"/>
                    <path d="M27.96 13.186a192.148 192.148 0 0 0-4.603 3.192c-.352.259-.637.46-.855.605-.22.145-.51.293-.874.444a2.66 2.66 0 0 1-1.017.227h-.019a2.66 2.66 0 0 1-1.017-.227 5.28 5.28 0 0 1-.873-.444 21.896 21.896 0 0 1-.855-.605c-.833-.61-2.364-1.675-4.595-3.192a4.898 4.898 0 0 1-.934-.805v7.345c0 .407.144.756.434 1.045.29.29.638.435 1.045.435h13.61c.406 0 .754-.145 1.044-.435.29-.29.435-.638.435-1.045v-7.345a5.1 5.1 0 0 1-.925.805z"/>
                </g>
            </g>
            <g transform="rotate(-145 198.942 29.502)">
                <rect width="41.657" height="27.521" fill="url(#e)" rx="5.04"/>
                <g fill="#FFF" fill-rule="nonzero">
                    <path d="M14.49 9.62c.21.148.841.587 1.895 1.318 1.054.73 1.862 1.293 2.423 1.688l.393.282c.2.145.366.262.499.352.132.089.293.19.48.3.189.111.366.194.532.25.167.055.32.083.463.083h.019c.141 0 .295-.028.462-.083.166-.056.343-.14.531-.25.188-.111.348-.211.48-.3.133-.09.3-.207.5-.352s.331-.239.393-.282l4.327-3.007c.45-.314.826-.693 1.128-1.137.302-.444.453-.91.453-1.397 0-.407-.147-.756-.44-1.045a1.429 1.429 0 0 0-1.04-.435H14.38c-.474 0-.84.16-1.095.48-.256.322-.384.722-.384 1.203 0 .389.17.81.508 1.263.34.453.7.81 1.082 1.069z"/>
                    <path d="M28.543 10.61a192.148 192.148 0 0 0-4.604 3.19c-.351.26-.636.462-.855.607-.219.144-.51.292-.874.443a2.66 2.66 0 0 1-1.017.227H21.175a2.66 2.66 0 0 1-1.017-.227 5.28 5.28 0 0 1-.874-.443 21.896 21.896 0 0 1-.855-.606c-.832-.61-2.364-1.675-4.595-3.192a4.898 4.898 0 0 1-.934-.805v7.345c0 .407.145.756.434 1.045.29.29.638.435 1.045.435h13.61c.406 0 .755-.145 1.044-.435.29-.29.435-.638.435-1.045V9.804a5.1 5.1 0 0 1-.925.805z"/>
                </g>
            </g>
            <g filter="url(#j)" transform="rotate(1 -8280.623 17702.462)">
                <rect width="41.657" height="27.521" fill="url(#e)" rx="5.04"/>
                <g fill="#FFF" fill-rule="nonzero">
                    <path d="M13.404 11.517c.21.148.84.587 1.895 1.318 1.054.731 1.861 1.294 2.422 1.688.062.043.193.138.393.282.2.145.367.263.5.352.132.09.292.19.48.3.188.111.365.195.532.25.166.056.32.083.462.083h.019c.141 0 .296-.027.462-.083.166-.055.344-.139.532-.25.188-.11.348-.21.48-.3.133-.09.3-.207.5-.352s.33-.239.393-.282l4.326-3.006c.45-.315.826-.694 1.128-1.138.302-.444.453-.91.453-1.397 0-.407-.146-.755-.439-1.045a1.429 1.429 0 0 0-1.04-.435h-13.61c-.474 0-.84.16-1.095.481-.256.321-.384.722-.384 1.203 0 .388.17.81.509 1.263.339.453.7.81 1.082 1.068z"/>
                    <path d="M27.457 12.507a192.148 192.148 0 0 0-4.604 3.191c-.352.26-.637.461-.856.606-.219.145-.51.293-.873.444a2.66 2.66 0 0 1-1.017.227h-.019a2.66 2.66 0 0 1-1.017-.227 5.28 5.28 0 0 1-.874-.444 21.896 21.896 0 0 1-.855-.606c-.832-.61-2.364-1.674-4.595-3.191a4.898 4.898 0 0 1-.934-.805v7.345c0 .407.145.755.435 1.045.29.29.638.435 1.045.435h13.61c.406 0 .754-.145 1.044-.435.29-.29.434-.638.434-1.045v-7.345a5.1 5.1 0 0 1-.924.805z"/>
                </g>
            </g>
            <g filter="url(#k)" transform="rotate(4 -2232.387 4501.906)">
                <rect width="41.657" height="27.521" fill="url(#e)" rx="5.04"/>
                <g fill="#FFF" fill-rule="nonzero">
                    <path d="M12.615 11.387c.21.148.841.587 1.895 1.318 1.054.73 1.862 1.294 2.423 1.688l.393.282c.2.145.366.263.499.352.132.09.293.19.48.3.189.111.366.195.532.25.167.056.32.083.463.083h.019c.14 0 .295-.027.462-.083.166-.055.343-.139.531-.25.188-.11.348-.21.48-.3.133-.09.3-.207.5-.352s.331-.239.393-.282l4.327-3.006c.45-.315.826-.694 1.128-1.138.302-.444.453-.91.453-1.397 0-.407-.147-.755-.44-1.045a1.429 1.429 0 0 0-1.04-.435H12.505c-.474 0-.84.16-1.095.481-.256.321-.384.722-.384 1.203 0 .388.17.81.508 1.263.34.453.7.809 1.082 1.068z"/>
                    <path d="M26.668 12.377a192.148 192.148 0 0 0-4.604 3.191c-.351.259-.636.461-.855.606-.219.145-.51.293-.874.444a2.66 2.66 0 0 1-1.017.227H19.3a2.66 2.66 0 0 1-1.017-.227 5.28 5.28 0 0 1-.874-.444 21.896 21.896 0 0 1-.855-.606c-.832-.61-2.364-1.674-4.595-3.191a4.898 4.898 0 0 1-.934-.805v7.345c0 .407.145.755.434 1.045.29.29.638.435 1.045.435h13.61c.406 0 .755-.145 1.044-.435.29-.29.435-.638.435-1.045v-7.345a5.1 5.1 0 0 1-.925.805z"/>
                </g>
            </g>
            <g filter="url(#l)" transform="rotate(-24 540.566 -690.346)">
                <rect width="41.657" height="27.521" x=".116" y=".515" fill="url(#e)" rx="5.04"/>
                <g fill="#FFF" fill-rule="nonzero">
                    <path d="M14.055 12.114c.21.148.84.588 1.895 1.318 1.054.731 1.861 1.294 2.422 1.688l.393.283c.2.145.367.262.5.351.132.09.292.19.48.3.188.112.365.195.532.25.166.056.32.084.462.084h.019c.141 0 .296-.028.462-.084.166-.055.344-.138.532-.25.188-.11.348-.21.48-.3.133-.09.3-.206.5-.351s.33-.24.393-.283l4.326-3.006c.45-.314.826-.694 1.128-1.138.302-.444.453-.91.453-1.396 0-.407-.146-.756-.439-1.046a1.429 1.429 0 0 0-1.04-.434h-13.61c-.474 0-.84.16-1.095.48-.256.321-.384.722-.384 1.203 0 .389.17.81.509 1.263.339.453.7.81 1.082 1.068z"/>
                    <path d="M28.108 13.104a192.148 192.148 0 0 0-4.604 3.191c-.352.26-.637.461-.856.606-.219.145-.51.293-.873.444a2.66 2.66 0 0 1-1.017.227h-.019a2.66 2.66 0 0 1-1.017-.227 5.28 5.28 0 0 1-.874-.444 21.896 21.896 0 0 1-.855-.606c-.832-.61-2.364-1.674-4.595-3.191a4.898 4.898 0 0 1-.934-.805v7.345c0 .407.145.755.435 1.045.29.29.638.435 1.045.435h13.61c.406 0 .754-.145 1.044-.435.29-.29.434-.638.434-1.045v-7.345a5.1 5.1 0 0 1-.924.805z"/>
                </g>
            </g>
            <path fill="url(#m)" d="M29.844 41.962l75.232 33.71v80.753l-72.785-37.698z" transform="translate(208.518 119.919)"/>
            <path fill="url(#n)" d="M0 0l87.045 18.823v80.71L1.637 74.702z" transform="matrix(-1 0 0 1 400.64 176.81)"/>
            <path fill="url(#o)" d="M29.975 41.34L0 72.35l74.327 36.797 30.127-33.68z" transform="translate(208.518 119.919)"/>
            <path fill="url(#p)" d="M136.946 56.892l-31.87 33.524 86.111 19.353 32.022-34.324z" transform="matrix(-1 0 0 1 536.803 119.919)"/>
        </g>
        <g>
            <path fill="url(#q)" d="M25.561 27.537c13.886 0 25.143 4.699 25.143 10.495 0 5.795-11.257 10.494-25.143 10.494C11.676 48.526.42 43.827.42 38.032c0-5.796 11.257-10.495 25.142-10.495z" opacity=".389" transform="translate(29.333 217.833)"/>
            <path fill="url(#r)" d="M57.81 1.42c1.891 3.332 2.95 7.066 2.95 11.009 0 14.078-13.507 25.49-30.17 25.49-16.663 0-30.17-11.412-30.17-25.49 0-4.172 1.186-8.11 3.29-11.587 13.365 2.128 39.968 1.99 54.1.578z" transform="translate(29.59 222.468)"/>
            <path fill="url(#s)" d="M28.285.421c15.159 0 27.447 2.924 27.447 6.53 0 3.607-12.288 6.531-27.447 6.531-15.158 0-27.447-2.924-27.447-6.53 0-3.607 12.289-6.53 27.447-6.53z" transform="translate(32.105 217.833)"/>
            <g transform="translate(12 142)">
                <use fill="url(#t)" xlink:href="#u"/>
                <use fill="#000" filter="url(#v)" xlink:href="#u"/>
            </g>
            <path fill="#489C71" fill-opacity=".5" fill-rule="nonzero" d="M48.284 172.392c4.651 9.576 6.884 20.181 7.203 34.172l2.731 12.959c1.148-25.352-2-41.352-11.9-56.457l1.966 9.326z"/>
            <g transform="translate(12 142)">
                <use fill="url(#w)" xlink:href="#x"/>
                <use fill="#000" filter="url(#y)" xlink:href="#x"/>
            </g>
            <path fill="#489C71" fill-opacity=".5" fill-rule="nonzero" d="M36.25 199.547l-5.888-8.209c12.617 8.185 20.385 19.327 28.01 39.047l-8.061-11.238c-4.168-8.39-8.624-14.601-14.061-19.6z"/>
            <g transform="translate(12 142)">
                <use fill="url(#t)" xlink:href="#z"/>
                <use fill="#000" filter="url(#A)" xlink:href="#z"/>
            </g>
            <path fill="#489C71" fill-opacity=".5" fill-rule="nonzero" d="M67.641 218.784l-6.537 12.161c5.043-20.622 11.337-32.72 22.846-42.501l-4.773 8.88c-4.803 5.707-8.456 12.504-11.536 21.46z"/>
        </g>
        <g>
            <g transform="translate(162.204 43.248)">
                <rect width="42.468" height="27.617" fill="url(#e)" rx="5.04"/>
                <g fill-rule="nonzero">
                    <path d="M11.242 3.745h19.985v19.976H11.242z"/>
                    <g fill="#FFF">
                        <path d="M14.504 11.13c.21.148.845.59 1.904 1.323s1.87 1.298 2.433 1.694c.062.043.194.137.395.283.201.145.368.263.501.353.133.09.294.19.483.301.19.111.367.195.534.25.168.056.322.084.465.084h.019c.142 0 .297-.028.464-.084.167-.055.345-.139.534-.25.189-.111.35-.212.483-.301.133-.09.3-.208.501-.353.201-.146.333-.24.395-.283l4.346-3.017a4.41 4.41 0 0 0 1.133-1.142c.303-.445.455-.913.455-1.401 0-.409-.147-.759-.441-1.05a1.436 1.436 0 0 0-1.045-.436h-13.67c-.477 0-.844.161-1.1.483-.258.322-.386.724-.386 1.207 0 .39.17.812.51 1.267.341.455.704.812 1.087 1.072z"/>
                        <path d="M28.62 12.123a193.012 193.012 0 0 0-4.624 3.202c-.353.26-.64.463-.86.608-.22.146-.512.294-.877.446a2.673 2.673 0 0 1-1.021.227h-.02c-.315 0-.656-.075-1.02-.227a5.305 5.305 0 0 1-.878-.446c-.22-.145-.507-.348-.86-.608-.835-.612-2.374-1.68-4.615-3.202a4.919 4.919 0 0 1-.938-.808v7.37c0 .41.145.759.436 1.05.291.29.641.436 1.05.436h13.67a1.43 1.43 0 0 0 1.05-.436 1.43 1.43 0 0 0 .436-1.05v-7.37a5.12 5.12 0 0 1-.929.808z"/>
                    </g>
                </g>
            </g>
            <g transform="translate(101.358 125.17)">
                <mask id="D" fill="#fff">
                    <use xlink:href="#B"/>
                </mask>
                <use fill="url(#C)" xlink:href="#B"/>
                <path fill="#3D82F0" fill-opacity=".34" d="M1.768 7.256c.548 1.112 8.009 6.995 9.242 8.386 1.234 1.39 1.516 5.027 2.225 4.651.472-.25.472-3.93 0-11.041C5.225 7.18 1.403 6.514 1.768 7.256z" mask="url(#D)" opacity=".5" style="mix-blend-mode:multiply"/>
            </g>
            <path fill="url(#E)" d="M.375 4.576c0 3.266-.844 7.345 0 8.967.844 1.621 5.027 2.474 6.407 2.474s1.841-2.326 3.984-1.13c2.143 1.197 14.357 1.13 15.15-3.726.794-4.855-5.398-4.855-8.152-4.855-2.754 0-5.67-1.34-9.76-4.822C3.914-1.996.375 1.311.375 4.576z" transform="translate(114.717 269.319)"/>
            <g stroke="#FFF" stroke-linecap="round" stroke-width="1.68">
                <path d="M129.85 277.391c-.627-2.192-.627-3.037-2.393-3.87M133.387 278.098c-.626-2.192-1.514-2.925-3.867-2.192"/>
            </g>
            <path fill="url(#E)" d="M.415 4.576c0 3.266-.934 7.345 0 8.967.934 1.621 5.565 2.474 7.093 2.474 1.527 0 2.038-2.326 4.41-1.13 2.373 1.197 15.895 1.13 16.773-3.726.879-4.855-5.976-4.855-9.025-4.855-3.049 0-6.278-1.34-10.805-4.822C4.334-1.996.415 1.311.415 4.576z" transform="translate(175.995 276.141)"/>
            <g stroke="#FFF" stroke-linecap="round" stroke-width="1.68">
                <path d="M193.604 284.567c-.626-2.192-1.116-3.206-3.116-4.127M196.788 284.92c-.626-2.192-1.514-2.925-3.866-2.192"/>
            </g>
            <path fill="url(#F)" d="M50.575 1.202c8.89 32.557 13.913 52.54 15.07 59.947 1.737 11.112 5.986 48.673 5.386 54.73-2.902 2.958-8.13 1.187-9.04.645-.911-.542-6.522-31.446-11.416-43.434C45.68 61.1 34.665 50.068 27.408 38.006c0 5.234-1.868 14.854-5.605 28.86-5.448 24.734-9.099 39.103-10.953 43.106-1.32 2.13-7.981.569-10.565 0 0-5.627 5.571-34.056 5.571-43.925S4.316 38.292 3.74 30.96c-.576-7.332-1.982-21.557 0-29.758h46.835z" transform="translate(115.153 161.647)"/>
            <path stroke="#FFF" stroke-linecap="round" stroke-width="1.68" d="M138.692 192.002c.69 2.893 3.347 6.913 4.573 9.31"/>
            <path fill="url(#G)" d="M6.826 9.361c3.117 1.676 15.324 8.808 31.053 5.95 7.772-1.412 12.771-3.26 15.014-5.95 0-1.325-1.885-6.897-2.412-9.028C49.955-1.8 3.008 7.309 6.826 9.36z" opacity=".5" style="mix-blend-mode:multiply" transform="translate(115.153 161.647)"/>
            <path fill="url(#H)" d="M16.377.342c1.202 2.326 2.82 3.982 4.854 4.97 2.035.987 3.56 1.723 4.577 2.206l-1.297 5.03c1.612 4.932 2.045 8.229 1.297 9.891-1.12 2.494-4.577 4.151-6.589 6.375-1.34 1.482-2.631 4.738-3.871 9.767H2.088l-.6-9.767C-.869 19.418-.048 12.319 3.952 7.518c4-4.802 8.141-7.194 12.425-7.176z" transform="translate(125.765 58.7)"/>
            <path fill="url(#I)" d="M26.25 45.02C14.56 34.096 5.303 24.776 13.286 11.788 21.27-1.2 39.846-5.565 43.318 10.223c0 4.516-1.668 7.98-5.004 10.393-.625 1.269-.114 2.577 1.531 3.923 1.646 1.347 1.646 2.577 0 3.69-3.249-2.09-5.297-1.743-6.146 1.039-1.273 4.172 3.425 5.666 3.425 6.71 1.08 2.559.506 5.009-1.722 7.35-1.14 1.127-4.191 1.691-9.152 1.691z" transform="translate(101.004 42.082)"/>
            <path fill="url(#J)" d="M14.192 59.752C5.849 74.382 1.174 83.305.167 86.524c-1.006 3.219 3.668 5.76 14.025 7.62l6.482-27.601-6.482-6.79z" transform="translate(101.004 42.082)"/>
            <g transform="translate(112.677 93.702)">
                <mask id="M" fill="#fff">
                    <use xlink:href="#K"/>
                </mask>
                <use fill="#EEF3FC" xlink:href="#K"/>
                <path fill="url(#L)" d="M37.382 23.03c3.39 15.836 6.104 25.238 8.144 28.206 3.06 4.452 5.048 17.925 7.497 19.531 2.449 1.606 5.967-16.772 4.208-23.064-1.173-4.195-4.402-11.43-9.687-21.705l-10.162-2.967z" mask="url(#M)" opacity=".5"/>
                <path fill="url(#N)" d="M16.838 1.851c2.263 1.5 8.159 2.313 13.114 2.313 4.956 0 6.506.052 8.877-.67 2.372-.72 1.452-1.643 0-1.643-1.451 0-5.955-1.057-8.378-1.057-2.424 0-15.876-.443-13.613 1.057z" mask="url(#M)" opacity=".5"/>
            </g>
            <path fill="#E1ECFF" d="M126.848 94.28c-.195-2.422-.292-4.024-.292-4.805 0-1.172 9.763.483 16.788 1.14.763 2.923.628 3.116.628 3.665 0 .274-1.755 2.626-11.194 1.863-2.298-.185-4.274-.806-5.93-1.863z"/>
            <g>
                <path fill="#A1B8E3" d="M175.654 122.4c2.106-4.73 3.298-12.034 1.068-13.027-2.23-.993-5.392 4.046-7.498 8.775-2.106 4.73-.799 7.793.492 9.068 1.447.299 3.833-.087 5.938-4.816z"/>
                <path fill="url(#O)" d="M15.711 44.062l8.596 6.329c9.432-13.695 14.565-21.48 15.398-23.354 1.249-2.813 0-7.532 0-9.103 0-1.572.928-5.039 2.277-6.056 1.35-1.017 1.508-.494 2.326-.494 4.23 1.532 10.753-5.378 12.349-5.964 1.596-.585 2.126 2.853 2.149 4.957.022 2.103-.913 7.05-2.531 9.821-1.619 2.772-6.997 7.187-6.997 8.411 0 1.224-8.937 19.74-12.179 27.228-3.242 7.488-6.3 12.544-12.792 10.446C19.98 64.884 13.863 60.6 5.96 53.433c1.545-3.653 3.066-6.054 4.563-7.204 1.498-1.15 3.228-1.873 5.19-2.167z" transform="rotate(-14 355.89 -565.053)"/>
                <path stroke="#223762" stroke-linecap="round" stroke-width="1.68" d="M182.838 112.037c.556.255 1.61.652 2.553 1.96"/>
                <path fill="url(#P)" d="M14.251 55.864c3.439-4.511 8.235-10.688 14.246-12.854-11.276-13.115-14.71-17.49-18.264-21.595-3.554-4.105-13.8 6.528-8.29 16.988 5.51 10.46 10.44 15.247 12.308 17.46z" transform="rotate(-26 246.386 -244.981)"/>
            </g>
        </g>
    </g>
</svg>
