<svg xmlns="http://www.w3.org/2000/svg" width="17" height="17" viewBox="0 0 17 17">
    <path fill="#000" fill-rule="nonzero" d="M8.493 0C3.8 0 0 3.808 0 8.5 0 13.191 3.8 17 8.493 17 13.193 17 17 13.191 17 8.5 17 3.808 13.193 0 8.493 0zM8.5 15.3a6.8 6.8 0 0 1-6.801-6.8A6.8 6.8 0 0 1 8.5 1.7a6.8 6.8 0 0 1 6.801 6.8A6.8 6.8 0 0 1 8.5 15.3zm2.974-7.65c.707 0 1.276-.57 1.276-1.275s-.569-1.276-1.276-1.276a1.275 1.275 0 1 0 0 2.552zm-5.948 0a1.275 1.275 0 1 0 0-2.55 1.275 1.275 0 0 0 0 2.55zM8.5 13.176c1.98 0 3.665-1.24 4.344-2.974H4.156A4.672 4.672 0 0 0 8.5 13.175z" opacity=".2"/>
</svg>
