<svg xmlns="http://www.w3.org/2000/svg" width="20" height="20" viewBox="0 0 20 20">
    <g fill="none" fill-rule="evenodd">
        <path fill="#BCC3CC" fill-rule="nonzero" d="M10 .833a9.168 9.168 0 0 1 0 18.333A9.167 9.167 0 0 1 10 .834zm1.684 14.104l.15-.632a2.562 2.562 0 0 1-.374.13 1.712 1.712 0 0 1-.461.074c-.29 0-.494-.05-.61-.149-.118-.098-.177-.284-.177-.556 0-.108.018-.268.054-.478.037-.21.078-.399.123-.563l.559-2.048c.054-.189.092-.395.112-.62.02-.225.03-.382.03-.472 0-.43-.147-.781-.438-1.051-.293-.27-.709-.405-1.248-.405-.299 0-.616.055-.951.166-.336.11-.688.243-1.055.398l-.148.633c.108-.042.239-.086.39-.134.153-.047.302-.069.446-.069.296 0 .494.05.6.154.104.103.156.286.156.548 0 .146-.016.308-.05.483a10.86 10.86 0 0 1-.126.56l-.561 2.054c-.05.216-.086.408-.109.58a3.93 3.93 0 0 0-.033.503c0 .423.15.77.45 1.045.302.274.724.412 1.267.412.353 0 .664-.048.93-.144a28.11 28.11 0 0 0 1.074-.42zm-.254-8.088a1.32 1.32 0 0 0 .403-.97c0-.38-.134-.705-.403-.974a1.314 1.314 0 0 0-.969-.405c-.377 0-.702.134-.973.405-.268.27-.405.595-.405.973 0 .38.136.704.405.971.271.267.596.401.973.401.378 0 .701-.134.97-.4z"/>
    </g>
</svg>
