<svg xmlns="http://www.w3.org/2000/svg" width="13" height="16" viewBox="0 0 13 16">
    <path fill="#BCC3CC" fill-rule="nonzero" d="M11.285 0H1.579C.708 0 0 .692 0 1.563v11.923c0 .87.708 1.578 1.579 1.578h9.706a1.58 1.58 0 0 0 1.578-1.578V1.563c0-.87-.708-1.563-1.578-1.563zM9.87 11.721H3.15c-.38 0-.69-.224-.69-.5s.31-.5.69-.5h6.72c.382 0 .69.224.69.5s-.308.5-.69.5zm0-3.246H3.15c-.38 0-.69-.224-.69-.5s.31-.5.69-.5h6.72c.382 0 .69.224.69.5s-.308.5-.69.5zm0-3.262H3.15c-.38 0-.69-.223-.69-.5 0-.276.31-.5.69-.5h6.72c.382 0 .69.224.69.5 0 .277-.308.5-.69.5z"/>
</svg>
