<svg xmlns="http://www.w3.org/2000/svg" width="19" height="19" viewBox="0 0 19 19">
    <g fill="#CCC" fill-rule="nonzero">
        <path d="M7.98 3C3.57 3 0 6.578 0 10.987c0 4.408 3.57 7.987 7.98 7.987 4.417 0 7.994-3.579 7.994-7.987C15.974 6.578 12.397 3 7.98 3zm.007 14.377a6.39 6.39 0 0 1-6.39-6.39 6.39 6.39 0 0 1 6.39-6.39 6.39 6.39 0 0 1 6.391 6.39 6.39 6.39 0 0 1-6.39 6.39zm2.795-7.188c.664 0 1.199-.536 1.199-1.199s-.535-1.198-1.2-1.198a1.198 1.198 0 1 0 0 2.397zm-5.59 0a1.198 1.198 0 1 0 0-2.397 1.198 1.198 0 0 0 0 2.397zm2.795 5.191a4.39 4.39 0 0 0 4.082-2.795H3.905a4.39 4.39 0 0 0 4.082 2.795z"/>
        <path stroke="#F3F3F3" stroke-width="1.3" d="M15.464 3.688h.95a1.388 1.388 0 0 1 0 2.776h-.95v.95a1.388 1.388 0 1 1-2.776 0v-.95h-.95a1.388 1.388 0 0 1 0-2.776h.95v-.95a1.388 1.388 0 1 1 2.776 0v.95z"/>
    </g>
</svg>
