<?xml version="1.0" encoding="UTF-8"?>
<svg width="12px" height="15px" viewBox="0 0 12 15" version="1.1" xmlns="http://www.w3.org/2000/svg" xmlns:xlink="http://www.w3.org/1999/xlink">
    <!-- Generator: Sketch 51.2 (57519) - http://www.bohemiancoding.com/sketch -->
    <title>ic_file_download</title>
    <desc>Created with Sketch.</desc>
    <defs></defs>
    <g id="Messenger" stroke="none" stroke-width="1" fill="none" fill-rule="evenodd">
        <g id="Messenger-»-Chat-(Image-lightbox)" transform="translate(-1117.000000, -267.000000)">
            <g id="Group-6" transform="translate(281.000000, 237.000000)">
                <g id="Group-8" transform="translate(824.000000, 20.000000)">
                    <g id="ic_file_download" transform="translate(8.181818, 8.181818)">
                        <g id="Icon-24px">
                            <polygon id="Shape" points="0 0 19.6363636 0 19.6363636 19.6363636 0 19.6363636"></polygon>
                            <path d="M12.2727273,7.36363636 L12.2727273,3.44797325 C12.2727273,2.89931823 11.8196911,2.45454545 11.2792995,2.45454545 L8.35706416,2.45454545 C7.80840914,2.45454545 7.36363636,2.90758168 7.36363636,3.44797325 L7.36363636,7.36363636 L5.09061813,7.36363636 C4.53849408,7.36363636 4.40699017,7.67971744 4.79318515,8.06591242 L9.11590576,12.388633 C9.50376212,12.7764894 10.1342629,12.774828 10.5204579,12.388633 L14.8431785,8.06591242 C15.2310348,7.67805606 15.0903958,7.36363636 14.5457455,7.36363636 L12.2727273,7.36363636 Z" id="Path" fill="#FFFFFF" fill-rule="nonzero"></path>
                            <path d="M4.09090909,15.5454545 C4.09090909,15.9973239 4.45904898,16.3636364 4.91469175,16.3636364 L14.7216719,16.3636364 C15.1766345,16.3636364 15.5454545,16.0004742 15.5454545,15.5454545 L15.5454545,15.5454545 C15.5454545,15.0935852 15.1773147,14.7272727 14.7216719,14.7272727 L4.91469175,14.7272727 C4.45972915,14.7272727 4.09090909,15.0904349 4.09090909,15.5454545 L4.09090909,15.5454545 Z" id="Path" fill="#FFFFFF" fill-rule="nonzero"></path>
                        </g>
                    </g>
                </g>
            </g>
        </g>
    </g>
</svg>