<svg xmlns="http://www.w3.org/2000/svg" width="17" height="17" viewBox="0 0 17 17">
    <g fill="none" fill-rule="evenodd">
        <path d="M-2-3h21.433v21.433H-2z"/>
        <path fill="#8038B3" fill-rule="nonzero" d="M7.782 12.86h1.87c.37 0 .672.302.672.673v2.145a.612.612 0 0 1-.611.612H7.72a.612.612 0 0 1-.612-.612v-2.145c0-.371.301-.672.673-.672z"/>
        <path fill="#8038B3" fill-rule="nonzero" d="M.68 2.691v10.822a2.563 2.563 0 0 0 2.562 2.563h1.34c.675 0 1.222-.548 1.222-1.223v-2.63c0-.27.19-.486.434-.486h4.958c.243 0 .433.216.433.486v2.63c0 .675.548 1.223 1.223 1.223h1.34a2.563 2.563 0 0 0 2.562-2.563V2.691a2.69 2.69 0 0 0-2.69-2.69H3.37A2.69 2.69 0 0 0 .68 2.69zm4.105 6.56H3.646a.612.612 0 0 1-.611-.61V7.5c0-.337.273-.611.611-.611h1.14c.337 0 .61.274.61.611v1.14a.612.612 0 0 1-.61.61zm0-4.421H3.646a.612.612 0 0 1-.611-.612V3.062c0-.338.273-.612.611-.612h1.14c.337 0 .61.274.61.612v1.156a.612.612 0 0 1-.61.612zm2.9 3.81V7.501c0-.337.274-.611.612-.611h1.14c.337 0 .61.274.61.611v1.14a.612.612 0 0 1-.61.61h-1.14a.612.612 0 0 1-.611-.61zM9.45 4.83H8.297a.612.612 0 0 1-.611-.612V3.062c0-.338.273-.612.611-.612h1.144c.336 0 .609.271.611.607l.009 1.157a.612.612 0 0 1-.612.616zm4.565 4.422h-1.151a.612.612 0 0 1-.612-.612V7.501c0-.337.274-.611.612-.611h1.143c.336 0 .609.27.611.607l.009 1.139a.612.612 0 0 1-.612.616zm0-4.422h-1.151a.612.612 0 0 1-.612-.612V3.062c0-.338.274-.612.612-.612h1.143c.336 0 .609.271.611.607l.009 1.157a.612.612 0 0 1-.612.616z"/>
    </g>
</svg>
