<svg xmlns="http://www.w3.org/2000/svg" width="16" height="16" viewBox="0 0 16 16">
    <path fill="#334562" fill-rule="nonzero" d="M15.117 12.52l-3.965-3.954a5.87 5.87 0 0 0 .641-2.67 5.858 5.858 0 0 0-1.727-4.169A5.857 5.857 0 0 0 5.896 0a5.858 5.858 0 0 0-4.169 1.727A5.86 5.86 0 0 0 0 5.897c0 1.574.614 3.055 1.727 4.168a5.857 5.857 0 0 0 4.17 1.727 5.87 5.87 0 0 0 2.669-.64l3.955 3.966a1.832 1.832 0 0 0 2.596 0 1.836 1.836 0 0 0 0-2.597zM3.285 8.508a3.669 3.669 0 0 1-1.082-2.61c0-.987.384-1.914 1.082-2.612a3.669 3.669 0 0 1 2.611-1.082c.987 0 1.914.384 2.612 1.082A3.669 3.669 0 0 1 9.59 5.896a3.67 3.67 0 0 1-1.082 2.611A3.67 3.67 0 0 1 5.896 9.59a3.67 3.67 0 0 1-2.611-1.082z" opacity=".4"/>
</svg>
