<svg xmlns="http://www.w3.org/2000/svg" width="64" height="64" viewBox="0 0 64 64"><path fill="#AB5C10" d="M37.605 30.384h-4.431c-.432 0-.432-2.04 0-2.04h4.431c.432 0 .432 2.04 0 2.04z"/><path fill="#EA8800" d="M32.957 32.297c-.35.242-2.201.061-1.853-.183.385-.269.905-.92 1.27-2.3.667-2.526-.114-5.463-.114-5.463h1.826s.642 2.537.051 5.463c-.286 1.417-.768 2.198-1.18 2.483zM38.032 31.693h-1.361c-.432 0-.432-4.658 0-4.658h1.361c.432 0 .432 4.658 0 4.658z"/><path fill="#A6E639" d="M61.882 52.239c-2.135-5.748-6.589-17.516-7.911-21.378-1.785-5.213 4.435-6.868 6.701-9.634 2.667-3.256-1.544-10.885-4.28-10.885H6.007c-.294 0-.534.41-.722 1.076H3.507v9.612h1.707c.195.8.458 1.308.793 1.308 8.232 0 11.925 4.075 14.165 9.491.786 1.898 3.228 5.232 6.007 5.232h12.868s2.574 10.49 3.896 15.307c.442 1.607.985 2.632 2.825 2.632h14.434c1.089 0 2.16-1.471 1.68-2.761zM35.95 34.85h-9.548c-3.236 0-5.021-2.783-5.021-5.311v-1.354c0-3.682 2.569-3.833 5.738-3.833h5.961c2.435 0 4.304 2.504 4.304 5v2.687c.001 1.314.123 2.811-1.434 2.811z"/><path fill="#C5F73D" d="M52.597 31.549c-1.139-3.355-.398-6.049 2.236-7.518H37.666c1.109 4.29 5.713 22.9 6.741 26.645.393 1.428.875 2.338 2.511 2.338h11.22c.969 0 1.922-1.308 1.495-2.454-1.9-5.112-5.869-15.574-7.036-19.011z"/><path fill="#A9EB3A" d="M55.086 38.402c-4.844-1.666-8.256 2.5-13.807 0l.652 2.585 13.659-1.236-.504-1.349z"/><path fill="#AEF23C" d="M55.388 39.207c-4.844-1.666-8.327 2.609-13.878.109 0 0 2.409 9.58 2.897 11.359.393 1.428.875 2.338 2.511 2.338h11.22c.969 0 1.922-1.308 1.495-2.454-1.127-3.032-4.245-11.352-4.245-11.352z"/><path fill="#C5F73D" d="M55.584 11.802H6.448v7.476s7.224-.289 8.882 1.754h43.168c3.64-.001.726-9.23-2.914-9.23z"/><path fill="#A6E639" d="M48.421 12.914c-.247-.791-1.343-.328-1.095.462l2.05 6.543c.248.791 1.343.328 1.096-.463l-2.051-6.542zM50.701 12.914c-.247-.791-1.342-.328-1.095.462l2.05 6.543c.247.791 1.342.328 1.095-.463l-2.05-6.542zM52.981 12.914c-.248-.791-1.343-.328-1.096.462l2.05 6.543c.249.791 1.343.328 1.096-.463l-2.05-6.542zM57.312 19.456l-2.05-6.542c-.247-.791-1.343-.328-1.095.462l2.049 6.543c.248.791 1.343.328 1.096-.463z"/><path fill="#A4E337" d="M43.73 27.354c0-10.428-21.45-10.332-40.617-10.332-.34 0-.37-1.672 0-1.672 23.452 0 42.032 1.247 42.032 12.004.001.159-1.415.292-1.415 0z"/><path fill="#7AB51D" d="M43.923 9H49.9v1.344h-5.977z"/><path fill="#A4E337" d="M49.919 44.738c0-3.802-4.722-8.316-4.722-11.047 0-.072-1.455-.134-1.455 0 0 2.73 4.723 8.09 4.723 11.047 0 .375 1.454.375 1.454 0z"/><path fill="#A6E639" d="M49.104 33.937H38.829l-1-8.995h11.275c1.7-.001 1.7 8.995 0 8.995z"/><path fill="#EA8800" d="M2 12.753h1.507v6.944H2z"/><path fill="#A9EB3A" d="M50.919 48.006c0 2-3 2-3 0s3-2 3 0zM53.578 50.6c0 .875-1.313.875-1.313 0s1.313-.875 1.313 0zM52.615 42.351c0 .875-1.313.875-1.313 0s1.313-.875 1.313 0zM54.865 45.912c0 1.458-2.188 1.458-2.188 0 .001-1.459 2.188-1.459 2.188 0z"/></svg>