<svg width="180" height="61" viewBox="0 0 180 61" fill="none" xmlns="http://www.w3.org/2000/svg">
<path fill-rule="evenodd" clip-rule="evenodd" d="M22.9375 54.6892C25.9425 54.6892 28.8077 54.0921 31.4205 53.0102C31.4205 53.0102 18.6278 46.9594 23.4285 36.1811C23.4285 36.1811 28.3655 37.7097 32.266 38.9301C36.1666 40.1505 38.5669 38.6852 39.9034 36.7799C41.2672 34.8747 41.6764 31.9535 39.3033 29.1045C36.9303 26.2556 31.6114 19.7416 31.6114 19.7416L44.9223 4.28194L42.1401 2.32227L27.7654 11.0142C26.2113 10.6694 24.5957 10.4876 22.9375 10.4876C10.7053 10.4876 0.789062 20.3825 0.789062 32.5884C0.789062 44.7943 10.7053 54.6892 22.9375 54.6892Z" fill="url(#paint0_linear)"/>
<path fill-rule="evenodd" clip-rule="evenodd" d="M15.5006 25.6117C15.4552 24.5327 15.6165 23.3074 16.0631 21.9189C16.0629 21.9193 16.0627 21.9196 16.0625 21.9199C15.6162 23.308 15.4551 24.5329 15.5006 25.6117ZM16.061 21.9221C13.2865 27.3302 13.3167 32.0674 19.5113 34.8654C19.9852 35.0794 20.3942 35.2319 20.6948 35.3335C20.7744 35.3604 20.8469 35.3839 20.9113 35.4042C19.5957 38.5078 19.4601 41.4057 20.1115 43.9941C20.7706 46.6128 22.1917 48.7502 23.6834 50.3922C24.1958 50.9563 24.7254 51.4718 25.2503 51.9385C15.184 48.6014 7.33736 34.8747 16.061 21.9221Z" fill="#DAE4F2"/>
<path d="M22.9371 13.1011C12.1511 13.1011 3.40723 21.8262 3.40723 32.589C3.40723 43.3519 12.1511 52.0769 22.9371 52.0769C23.7613 52.0769 24.4593 52.0394 25.2556 51.9409C15.1861 48.6063 7.33503 34.8753 16.0635 21.9197C13.2267 30.7382 21.9029 32.9738 21.9029 32.9738L33.0491 36.4376C34.5514 36.9076 35.5303 36.7958 36.1568 36.5701C36.8002 36.3383 37.3295 35.8928 37.7579 35.2822L37.765 35.272L37.7723 35.2619C38.1634 34.7155 38.3989 34.0493 38.3862 33.3437C38.374 32.666 38.1306 31.7855 37.2892 30.7753C34.2319 27.1049 31.2184 23.3978 28.1971 19.6978L38.7743 7.41309L24.5192 15.714L25.2829 13.24C24.5146 13.1484 23.7318 13.1011 22.9371 13.1011Z" fill="white"/>
<path fill-rule="evenodd" clip-rule="evenodd" d="M24.2472 21.3757C22.9291 21.1565 21.8468 21.8112 21.5195 23.1176C23.2652 22.8999 24.9564 23.5531 26.0474 24.4241C26.3747 22.8999 25.5564 21.5934 24.2472 21.3757Z" fill="#7373BF"/>
<path opacity="0.7" fill-rule="evenodd" clip-rule="evenodd" d="M68.6263 32.0694C68.6263 31.0099 68.4372 30.0029 68.0588 29.0483C67.6805 28.0938 67.1364 27.2442 66.4264 26.4997C65.7352 25.7647 64.9342 25.1991 64.0234 24.803C63.1126 24.4069 62.1528 24.2088 61.1439 24.2088C60.135 24.2088 59.1752 24.4045 58.2644 24.7958C57.3536 25.1872 56.5433 25.7551 55.8333 26.4997C55.1234 27.2347 54.5816 28.0794 54.2079 29.034C53.8343 29.9885 53.6475 31.0003 53.6475 32.0694C53.6475 33.129 53.8343 34.1312 54.2079 35.0762C54.5816 36.0212 55.1234 36.866 55.8333 37.6105C56.5433 38.3551 57.3513 38.923 58.2574 39.3144C59.1635 39.7057 60.1257 39.9014 61.1439 39.9014C62.1434 39.9014 63.0939 39.7057 63.9953 39.3144C64.8968 38.923 65.7071 38.3551 66.4264 37.6105C67.1364 36.866 67.6805 36.0188 68.0588 35.0691C68.4372 34.1193 68.6263 33.1194 68.6263 32.0694ZM72.0682 32.1129C72.0682 33.5999 71.7953 35.0059 71.2495 36.3308C70.7037 37.6558 69.9084 38.8377 68.8635 39.8767C67.8092 40.9157 66.6197 41.7116 65.2949 42.2645C63.9701 42.8173 62.58 43.0938 61.1246 43.0938C59.6505 43.0938 58.2441 42.815 56.9053 42.2573C55.5665 41.6997 54.384 40.9062 53.3577 39.8767C52.3128 38.8377 51.5198 37.6605 50.9787 36.3451C50.4375 35.0297 50.167 33.619 50.167 32.1129C50.167 30.6164 50.4375 29.2057 50.9787 27.8807C51.5198 26.5558 52.3128 25.369 53.3577 24.3205C54.4026 23.2815 55.5875 22.4904 56.9123 21.947C58.2371 21.4037 59.6412 21.1321 61.1246 21.1321C62.5987 21.1321 63.9958 21.4037 65.3159 21.947C66.636 22.4904 67.8186 23.2815 68.8635 24.3205C69.9084 25.3786 70.7037 26.5724 71.2495 27.9022C71.7953 29.2319 72.0682 30.6354 72.0682 32.1129ZM78.5993 35.7227C78.5993 37.1237 78.9406 38.2437 79.6232 39.0824C80.3058 39.9212 81.2043 40.3405 82.3187 40.3405C83.461 40.3405 84.3456 39.9498 84.9725 39.1682C85.5993 38.3866 85.9128 37.2762 85.9128 35.837C85.9128 34.4073 85.5854 33.2898 84.9307 32.4844C84.2759 31.679 83.3774 31.2763 82.2351 31.2763C81.0929 31.2763 80.2013 31.6671 79.5605 32.4487C78.9197 33.2302 78.5993 34.3216 78.5993 35.7227ZM75.6269 48.9263V28.9548H78.6705V31.1754C79.0258 30.3158 79.5938 29.652 80.3746 29.184C81.1554 28.716 82.0881 28.482 83.1727 28.482C84.94 28.482 86.3729 29.1482 87.4716 30.4806C88.5703 31.813 89.1196 33.5632 89.1196 35.7313C89.1196 38.0141 88.5796 39.8121 87.4997 41.1254C86.4197 42.4387 84.94 43.0953 83.0605 43.0953C82.1255 43.0953 81.2956 42.9043 80.571 42.5222C79.8463 42.1402 79.2128 41.5576 78.6705 40.7744V48.9263H75.6269ZM105.155 36.2047H94.5393C94.614 37.4752 94.9828 38.4662 95.6456 39.1778C96.3085 39.8894 97.1908 40.2452 98.2925 40.2452C99.2728 40.2452 100.09 40.0351 100.743 39.6148C101.397 39.1945 101.966 38.5163 102.452 37.5802L105.015 39.0417C104.268 40.4076 103.343 41.4249 102.242 42.0935C101.14 42.7622 99.847 43.0965 98.3625 43.0965C96.2338 43.0965 94.5393 42.4326 93.2789 41.1049C92.0185 39.7772 91.3883 38.0053 91.3883 35.7892C91.3883 33.6591 92.0395 31.9088 93.3419 30.538C94.6443 29.1673 96.3179 28.482 98.3625 28.482C100.501 28.482 102.167 29.1076 103.362 30.3589C104.557 31.6103 105.155 33.363 105.155 35.6173V36.2047ZM101.987 34.1112C101.865 33.1368 101.501 32.3941 100.893 31.883C100.286 31.372 99.4543 31.1164 98.3984 31.1164C97.3986 31.1164 96.5951 31.3648 95.9877 31.8615C95.3803 32.3583 94.9552 33.1082 94.7122 34.1112H101.987ZM108.322 42.5375V28.9548H111.182V31.1756C111.79 30.2395 112.505 29.5566 113.327 29.1267C114.15 28.6969 115.15 28.482 116.327 28.482C117.318 28.482 118.162 28.642 118.858 28.962C119.554 29.2819 120.099 29.7571 120.491 30.3876C120.725 30.7601 120.893 31.1947 120.996 31.6914C121.099 32.1881 121.15 33.0573 121.15 34.299V42.5375H118.08V35.5599C118.08 33.7737 117.867 32.5869 117.442 31.9994C117.017 31.412 116.262 31.1183 115.178 31.1183C114.467 31.1183 113.834 31.252 113.278 31.5195C112.722 31.7869 112.285 32.1642 111.967 32.6513C111.743 32.9761 111.586 33.394 111.498 33.905C111.409 34.416 111.364 35.2303 111.364 36.3479V42.5375H108.322ZM125.296 42.5372V20.3359H128.346V42.5372H125.296ZM145.202 42.5377H142.159V40.7754C141.616 41.5586 140.983 42.1413 140.258 42.5234C139.534 42.9055 138.704 43.0965 137.769 43.0965C135.889 43.0965 134.41 42.4398 133.33 41.1264C132.25 39.813 131.71 38.0149 131.71 35.7319C131.71 33.5636 132.261 31.8132 133.365 30.4807C134.468 29.1482 135.908 28.482 137.685 28.482C138.769 28.482 139.697 28.7136 140.469 29.1769C141.24 29.6402 141.803 30.3064 142.159 31.1756V28.9548H145.202V42.5377ZM142.23 35.7227C142.23 34.3216 141.912 33.2302 141.274 32.4487C140.637 31.6671 139.746 31.2763 138.601 31.2763C137.457 31.2763 136.557 31.679 135.901 32.4844C135.245 33.2898 134.917 34.4073 134.917 35.837C134.917 37.2762 135.233 38.3866 135.866 39.1682C136.499 39.9498 137.392 40.3405 138.546 40.3405C139.634 40.3405 140.521 39.9164 141.204 39.0681C141.888 38.2198 142.23 37.1047 142.23 35.7227ZM149.348 42.5375V28.9548H152.208V31.1756C152.815 30.2395 153.53 29.5566 154.353 29.1267C155.175 28.6969 156.175 28.482 157.353 28.482C158.344 28.482 159.187 28.642 159.884 28.962C160.58 29.2819 161.124 29.7571 161.517 30.3876C161.75 30.7601 161.919 31.1947 162.022 31.6914C162.124 32.1881 162.176 33.0573 162.176 34.299V42.5375H159.105V35.5599C159.105 33.7737 158.893 32.5869 158.468 31.9994C158.042 31.412 157.288 31.1183 156.203 31.1183C155.493 31.1183 154.86 31.252 154.304 31.5195C153.748 31.7869 153.311 32.1642 152.993 32.6513C152.769 32.9761 152.612 33.394 152.523 33.905C152.435 34.416 152.39 35.2303 152.39 36.3479V42.5375H149.348ZM175.747 35.7227C175.747 34.3216 175.428 33.2302 174.791 32.4487C174.153 31.6671 173.262 31.2763 172.118 31.2763C170.973 31.2763 170.073 31.679 169.417 32.4844C168.761 33.2898 168.433 34.4073 168.433 35.837C168.433 37.2762 168.75 38.3866 169.382 39.1682C170.015 39.9498 170.908 40.3405 172.062 40.3405C173.16 40.3405 174.049 39.9188 174.728 39.0753C175.407 38.2317 175.747 37.1142 175.747 35.7227ZM175.715 20.3359H178.758V42.5376H175.715V40.7758C175.173 41.5588 174.539 42.1413 173.814 42.5233C173.09 42.9053 172.26 43.0962 171.325 43.0962C169.445 43.0962 167.966 42.4397 166.886 41.1267C165.806 39.8137 165.266 38.0161 165.266 35.7339C165.266 33.5662 165.817 31.8164 166.921 30.4843C168.024 29.1521 169.464 28.4861 171.241 28.4861C172.325 28.4861 173.253 28.7177 174.025 29.1808C174.796 29.6439 175.36 30.31 175.715 31.179V20.3359Z" fill="#171A1F"/>
<defs>
<linearGradient id="paint0_linear" x1="44.921" y1="4.10776" x2="5.45336" y2="45.6557" gradientUnits="userSpaceOnUse">
<stop stop-color="#FEC519"/>
<stop offset="0.278985" stop-color="#E62E5C"/>
<stop offset="0.760754" stop-color="#45A3E6"/>
<stop offset="1" stop-color="#5CE6C3"/>
</linearGradient>
</defs>
</svg>
