<svg width="155" height="52" viewBox="0 0 155 52" fill="none" xmlns="http://www.w3.org/2000/svg">
<path fill-rule="evenodd" clip-rule="evenodd" d="M19.752 47.0938C22.3396 47.0938 24.8068 46.5795 27.0567 45.6479C27.0567 45.6479 16.0408 40.4375 20.1747 31.1562C20.1747 31.1562 24.4261 32.4725 27.7849 33.5234C31.1436 34.5744 33.2106 33.3125 34.3615 31.6719C35.5359 30.0312 35.8882 27.5157 33.8448 25.0625C31.8013 22.6093 27.2211 17 27.2211 17L38.6833 3.6875L36.2875 2L23.9093 9.4847C22.5711 9.18782 21.1798 9.03125 19.752 9.03125C9.21863 9.03125 0.679688 17.5518 0.679688 28.0625C0.679688 38.5732 9.21863 47.0938 19.752 47.0938Z" fill="url(#paint0_linear)"/>
<path fill-rule="evenodd" clip-rule="evenodd" d="M13.3427 21.6585C13.3529 20.8285 13.5019 19.9038 13.8329 18.875C13.8327 18.8752 13.8326 18.8754 13.8324 18.8757C13.5017 19.9042 13.3529 20.8287 13.3427 21.6585ZM13.8313 18.8773C11.4419 23.5345 11.4678 27.614 16.8022 30.0234C17.2102 30.2077 17.5625 30.3389 17.8213 30.4265C17.8899 30.4497 17.9522 30.4699 18.0077 30.4873C16.8748 33.1599 16.7581 35.6553 17.319 37.8841C17.8865 40.1392 19.1102 41.9797 20.3948 43.3937C20.836 43.8794 21.2921 44.3233 21.7441 44.7252C13.0757 41.8515 6.31885 30.0311 13.8313 18.8773Z" fill="#DAE4F2"/>
<path d="M19.752 11.2814C10.464 11.2814 2.93457 18.7946 2.93457 28.0626C2.93457 37.3307 10.464 44.8439 19.752 44.8439C20.4617 44.8439 21.0628 44.8116 21.7485 44.7267C13.0775 41.8553 6.31684 30.0314 13.833 18.8751C11.3903 26.4689 18.8614 28.3939 18.8614 28.3939L28.4595 31.3766C29.7532 31.7814 30.5961 31.6851 31.1356 31.4908C31.6897 31.2912 32.1454 30.9075 32.5143 30.3817L32.5204 30.3729L32.5267 30.3642C32.8635 29.8937 33.0663 29.3201 33.0554 28.7125C33.0449 28.1289 32.8353 27.3707 32.1107 26.5008C29.478 23.3402 26.8831 20.1479 24.2814 16.9619L33.3895 6.38333L21.1143 13.5314L21.772 11.401C21.1104 11.3221 20.4363 11.2814 19.752 11.2814Z" fill="white"/>
<path fill-rule="evenodd" clip-rule="evenodd" d="M20.8793 18.4067C19.7443 18.218 18.8124 18.7817 18.5305 19.9067C20.0338 19.7192 21.49 20.2817 22.4295 21.0317C22.7114 19.7192 22.0067 18.5942 20.8793 18.4067Z" fill="#7373BF"/>
<path fill-rule="evenodd" clip-rule="evenodd" d="M59.095 27.616C59.095 26.7036 58.9321 25.8365 58.6063 25.0145C58.2805 24.1925 57.812 23.461 57.2006 22.8199C56.6054 22.1869 55.9156 21.6999 55.1313 21.3588C54.347 21.0177 53.5205 20.8471 52.6518 20.8471C51.783 20.8471 50.9565 21.0156 50.1722 21.3526C49.3879 21.6897 48.6901 22.1787 48.0788 22.8199C47.4674 23.4528 47.0009 24.1802 46.6791 25.0022C46.3574 25.8241 46.1965 26.6954 46.1965 27.616C46.1965 28.5284 46.3574 29.3915 46.6791 30.2052C47.0009 31.019 47.4674 31.7464 48.0788 32.3875C48.6901 33.0287 49.3859 33.5177 50.1662 33.8547C50.9465 34.1917 51.775 34.3602 52.6518 34.3602C53.5125 34.3602 54.3309 34.1917 55.1072 33.8547C55.8834 33.5177 56.5812 33.0287 57.2006 32.3875C57.812 31.7464 58.2805 31.0169 58.6063 30.199C58.9321 29.3812 59.095 28.5202 59.095 27.616ZM62.0586 27.6529C62.0586 28.9333 61.8236 30.144 61.3536 31.285C60.8836 32.4259 60.1988 33.4437 59.299 34.3384C58.3911 35.2331 57.3668 35.9184 56.226 36.3945C55.0852 36.8706 53.8882 37.1086 52.6349 37.1086C51.3656 37.1086 50.1545 36.8685 49.0016 36.3883C47.8488 35.9082 46.8305 35.2248 45.9468 34.3384C45.047 33.4437 44.3641 32.43 43.8982 31.2973C43.4322 30.1645 43.1992 28.9498 43.1992 27.6529C43.1992 26.3642 43.4322 25.1494 43.8982 24.0085C44.3641 22.8675 45.047 21.8456 45.9468 20.9427C46.8466 20.0481 47.8669 19.3668 49.0077 18.8989C50.1485 18.4311 51.3575 18.1971 52.6349 18.1971C53.9043 18.1971 55.1073 18.4311 56.2441 18.8989C57.3809 19.3668 58.3992 20.0481 59.299 20.9427C60.1988 21.8538 60.8836 22.8819 61.3536 24.0269C61.8236 25.172 62.0586 26.3806 62.0586 27.6529ZM67.6827 30.7613C67.6827 31.9678 67.9766 32.9322 68.5644 33.6544C69.1522 34.3767 69.9259 34.7378 70.8855 34.7378C71.8692 34.7378 72.6309 34.4013 73.1707 33.7283C73.7105 33.0553 73.9804 32.0991 73.9804 30.8598C73.9804 29.6287 73.6985 28.6664 73.1347 27.9728C72.5709 27.2793 71.7972 26.9326 70.8135 26.9326C69.8299 26.9326 69.0622 27.2691 68.5104 27.9421C67.9586 28.6151 67.6827 29.5548 67.6827 30.7613ZM65.1232 42.1312V24.9334H67.7441V26.8457C68.0501 26.1054 68.5392 25.5338 69.2115 25.1308C69.8839 24.7278 70.687 24.5263 71.621 24.5263C73.1428 24.5263 74.3767 25.1 75.3228 26.2473C76.2689 27.3947 76.742 28.9018 76.742 30.7688C76.742 32.7345 76.277 34.2828 75.347 35.4137C74.417 36.5446 73.1428 37.11 71.5244 37.11C70.7192 37.11 70.0046 36.9455 69.3806 36.6165C68.7566 36.2875 68.2111 35.7858 67.7441 35.1114V42.1312H65.1232ZM90.5497 31.1765H81.4086C81.4729 32.2704 81.7905 33.1238 82.3613 33.7366C82.9321 34.3494 83.6919 34.6558 84.6405 34.6558C85.4847 34.6558 86.1882 34.4748 86.751 34.1129C87.3137 33.751 87.8041 33.167 88.2222 32.3609L90.4291 33.6194C89.7859 34.7956 88.99 35.6716 88.0413 36.2474C87.0926 36.8231 85.9792 37.111 84.7008 37.111C82.8678 37.111 81.4086 36.5394 80.3233 35.396C79.2379 34.2527 78.6952 32.7269 78.6952 30.8187C78.6952 28.9844 79.256 27.4771 80.3775 26.2968C81.4991 25.1165 82.9402 24.5263 84.7008 24.5263C86.5419 24.5263 87.977 25.0651 89.0061 26.1426C90.0352 27.2201 90.5497 28.7294 90.5497 30.6706V31.1765ZM87.8218 29.3739C87.7172 28.5348 87.4034 27.8953 86.8804 27.4552C86.3574 27.0151 85.6413 26.7951 84.732 26.7951C83.8711 26.7951 83.1791 27.0089 82.6561 27.4367C82.1331 27.8644 81.767 28.5102 81.5578 29.3739H87.8218ZM93.2776 36.6296V24.9334H95.7403V26.8458C96.2635 26.0397 96.8791 25.4516 97.5874 25.0815C98.2956 24.7114 99.1568 24.5263 100.171 24.5263C101.024 24.5263 101.75 24.6641 102.35 24.9396C102.95 25.2152 103.418 25.6244 103.756 26.1672C103.958 26.488 104.102 26.8622 104.191 27.29C104.28 27.7177 104.324 28.4662 104.324 29.5354V36.6296H101.68V30.6212C101.68 29.083 101.497 28.0611 101.131 27.5552C100.764 27.0494 100.115 26.7964 99.1809 26.7964C98.5693 26.7964 98.024 26.9116 97.5451 27.1419C97.0663 27.3722 96.69 27.6971 96.4164 28.1166C96.2232 28.3962 96.0884 28.7561 96.012 29.1961C95.9355 29.6362 95.8973 30.3374 95.8973 31.2997V36.6296H93.2776ZM107.894 36.6295V17.5117H110.52V36.6295H107.894ZM125.035 36.6298H122.415V35.1123C121.948 35.7867 121.402 36.2885 120.778 36.6175C120.154 36.9465 119.439 37.111 118.634 37.111C117.016 37.111 115.742 36.5455 114.812 35.4145C113.882 34.2836 113.417 32.7352 113.417 30.7693C113.417 28.9022 113.892 27.3949 114.842 26.2474C115.792 25.1 117.032 24.5263 118.562 24.5263C119.496 24.5263 120.295 24.7258 120.959 25.1247C121.623 25.5236 122.109 26.0973 122.415 26.8458V24.9335H125.035V36.6298ZM122.476 30.7613C122.476 29.5548 122.201 28.6151 121.653 27.9421C121.104 27.2691 120.337 26.9326 119.351 26.9326C118.366 26.9326 117.59 27.2793 117.026 27.9728C116.461 28.6664 116.178 29.6287 116.178 30.8598C116.178 32.0991 116.451 33.0553 116.995 33.7283C117.54 34.4013 118.309 34.7378 119.303 34.7378C120.24 34.7378 121.004 34.3726 121.593 33.6421C122.181 32.9117 122.476 31.9514 122.476 30.7613ZM128.605 36.6296V24.9334H131.068V26.8458C131.591 26.0397 132.207 25.4516 132.915 25.0815C133.623 24.7114 134.484 24.5263 135.498 24.5263C136.352 24.5263 137.078 24.6641 137.678 24.9396C138.277 25.2152 138.746 25.6244 139.084 26.1672C139.285 26.488 139.43 26.8622 139.519 27.29C139.607 27.7177 139.651 28.4662 139.651 29.5354V36.6296H137.008V30.6212C137.008 29.083 136.824 28.0611 136.458 27.5552C136.092 27.0494 135.442 26.7964 134.509 26.7964C133.897 26.7964 133.352 26.9116 132.873 27.1419C132.394 27.3722 132.018 27.6971 131.744 28.1166C131.551 28.3962 131.416 28.7561 131.34 29.1961C131.263 29.6362 131.225 30.3374 131.225 31.2997V36.6296H128.605ZM151.337 30.7613C151.337 29.5548 151.063 28.6151 150.514 27.9421C149.965 27.2691 149.198 26.9326 148.213 26.9326C147.227 26.9326 146.452 27.2793 145.887 27.9728C145.322 28.6664 145.04 29.6287 145.04 30.8598C145.04 32.0991 145.312 33.0553 145.857 33.7283C146.402 34.4013 147.171 34.7378 148.165 34.7378C149.11 34.7378 149.875 34.3747 150.46 33.6483C151.045 32.9219 151.337 31.9596 151.337 30.7613ZM151.31 17.5117H153.931V36.6298H151.31V35.1127C150.843 35.787 150.297 36.2886 149.673 36.6175C149.049 36.9464 148.335 37.1109 147.529 37.1109C145.911 37.1109 144.637 36.5456 143.707 35.4149C142.777 34.2843 142.312 32.7363 142.312 30.7711C142.312 28.9045 142.787 27.3976 143.737 26.2505C144.687 25.1035 145.927 24.5299 147.457 24.5299C148.391 24.5299 149.19 24.7293 149.854 25.1281C150.519 25.5269 151.004 26.1005 151.31 26.8488V17.5117Z" fill="#272750"/>
<defs>
<linearGradient id="paint0_linear" x1="38.6822" y1="3.53751" x2="4.69617" y2="39.3149" gradientUnits="userSpaceOnUse">
<stop stop-color="#FEC519"/>
<stop offset="0.278985" stop-color="#E62E5C"/>
<stop offset="0.760754" stop-color="#45A3E6"/>
<stop offset="1" stop-color="#5CE6C3"/>
</linearGradient>
</defs>
</svg>
