<svg width="52" height="62" viewBox="0 0 52 62" fill="none" xmlns="http://www.w3.org/2000/svg">
<path fill-rule="evenodd" clip-rule="evenodd" d="M26.4717 61.6222C29.961 61.6222 33.2879 60.9288 36.3218 59.6726C36.3218 59.6726 21.4675 52.6466 27.0418 40.1314C27.0418 40.1314 32.7745 41.9063 37.3036 43.3234C41.8327 44.7405 44.6199 43.039 46.1718 40.8267C47.7554 38.6144 48.2305 35.2224 45.475 31.9143C42.7196 28.6063 36.5435 21.0425 36.5435 21.0425L51.9995 3.09141L48.7689 0.815918L32.0777 10.9086C30.2731 10.5083 28.3971 10.2971 26.4717 10.2971C12.2682 10.2971 0.753906 21.7866 0.753906 35.9597C0.753906 50.1327 12.2682 61.6222 26.4717 61.6222Z" fill="url(#paint0_linear)"/>
<path fill-rule="evenodd" clip-rule="evenodd" d="M27.3389 56.6299C27.9339 57.2848 28.5488 57.8834 29.1583 58.4253C17.4688 54.5501 8.35709 38.609 18.4905 23.5679C18.4899 23.57 18.4892 23.5721 18.4885 23.5742C15.2667 29.8541 15.3016 35.3549 22.4947 38.6038C23.0449 38.8524 23.5199 39.0293 23.8688 39.1473C23.9608 39.1785 24.0445 39.2056 24.1189 39.229C22.5924 42.8318 22.4352 46.1958 23.1914 49.2006C23.9567 52.2414 25.6068 54.7231 27.3389 56.6299ZM25.3606 36.4332L25.3613 36.4315L25.271 36.4034C25.271 36.4034 18.3994 34.6328 17.8621 28.248C18.3981 34.6345 25.2712 36.4054 25.2712 36.4054L25.3606 36.4332Z" fill="#DAE4F2"/>
<path d="M26.4722 13.3298C13.9479 13.3298 3.79492 23.461 3.79492 35.9583C3.79492 48.4557 13.9479 58.5869 26.4722 58.5869C27.4292 58.5869 28.2397 58.5433 29.1644 58.4288C17.4721 54.557 8.35572 38.6131 18.4908 23.5695C15.1969 33.8093 25.2713 36.4051 25.2713 36.4051L38.2138 40.4271C39.9582 40.9729 41.0948 40.843 41.8223 40.581C42.5695 40.3119 43.184 39.7945 43.6814 39.0855L43.6897 39.0737L43.6981 39.0619C44.1523 38.4275 44.4258 37.654 44.411 36.8346C44.3969 36.0477 44.1142 35.0253 43.1372 33.8524C39.5872 29.5904 36.088 25.2858 32.5798 20.9896L44.8616 6.7251L28.3092 16.3638L29.196 13.4911C28.3039 13.3847 27.395 13.3298 26.4722 13.3298Z" fill="white"/>
<path fill-rule="evenodd" clip-rule="evenodd" d="M27.9924 22.9371C26.4619 22.6825 25.2053 23.4427 24.8252 24.9597C26.8522 24.7069 28.8159 25.4654 30.0828 26.4767C30.4628 24.7069 29.5127 23.1899 27.9924 22.9371Z" fill="#7373BF"/>
<defs>
<linearGradient id="paint0_linear" x1="51.998" y1="2.88916" x2="6.16989" y2="51.1328" gradientUnits="userSpaceOnUse">
<stop stop-color="#FEC519"/>
<stop offset="0.278985" stop-color="#E62E5C"/>
<stop offset="0.760754" stop-color="#45A3E6"/>
<stop offset="1" stop-color="#5CE6C3"/>
</linearGradient>
</defs>
</svg>
