<svg width="38" height="28" viewBox="0 0 38 28" fill="none" xmlns="http://www.w3.org/2000/svg">
<path d="M1.565 26.61C0.725 24.72 0.305 22.41 0.305 19.68C0.305 15.41 1.46 11.63 3.77 8.34C6.15 4.98 9.65 2.46 14.27 0.779994C16.16 1.75999 17.105 3.22999 17.105 5.18999V6.13499C12.415 8.305 9.965 11.28 9.755 15.06C12.205 15.2 13.71 15.725 14.27 16.635C14.9 17.545 15.215 19.155 15.215 21.465C15.215 23.075 15.04 24.335 14.69 25.245C14.41 26.085 13.955 26.715 13.325 27.135C12.695 27.555 11.89 27.8 10.91 27.87C10 27.94 8.915 27.975 7.655 27.975C4.785 27.975 2.755 27.52 1.565 26.61ZM21.935 26.61C21.095 24.72 20.675 22.41 20.675 19.68C20.675 15.41 21.83 11.63 24.14 8.34C26.52 4.98 30.02 2.46 34.64 0.779994C36.53 1.75999 37.475 3.22999 37.475 5.18999V6.13499C32.785 8.305 30.335 11.28 30.125 15.06C32.575 15.2 34.08 15.725 34.64 16.635C35.27 17.545 35.585 19.155 35.585 21.465C35.585 23.075 35.41 24.335 35.06 25.245C34.78 26.085 34.325 26.715 33.695 27.135C33.065 27.555 32.26 27.8 31.28 27.87C30.37 27.94 29.285 27.975 28.025 27.975C25.155 27.975 23.125 27.52 21.935 26.61Z" fill="url(#paint0_linear)"/>
<defs>
<linearGradient id="paint0_linear" x1="-4" y1="25" x2="38.9556" y2="69.9535" gradientUnits="userSpaceOnUse">
<stop stop-color="#EB3577"/>
<stop offset="1" stop-color="#F08432"/>
</linearGradient>
</defs>
</svg>
