<?xml version="1.0" encoding="utf-8"?>
<!-- Generator: Adobe Illustrator 15.0.0, SVG Export Plug-In . SVG Version: 6.00 Build 0)  -->
<!DOCTYPE svg PUBLIC "-//W3C//DTD SVG 1.1//EN" "http://www.w3.org/Graphics/SVG/1.1/DTD/svg11.dtd" [
	<!ENTITY ns_flows "http://ns.adobe.com/Flows/1.0/">
	<!ENTITY ns_extend "http://ns.adobe.com/Extensibility/1.0/">
	<!ENTITY ns_ai "http://ns.adobe.com/AdobeIllustrator/10.0/">
	<!ENTITY ns_graphs "http://ns.adobe.com/Graphs/1.0/">
]>
<svg version="1.1" id="Layer_1" xmlns:x="&ns_extend;" xmlns:i="&ns_ai;" xmlns:graph="&ns_graphs;"
	 xmlns="http://www.w3.org/2000/svg" xmlns:xlink="http://www.w3.org/1999/xlink" xmlns:a="http://ns.adobe.com/AdobeSVGViewerExtensions/3.0/"
	 x="0px" y="0px" width="64px" height="64px" viewBox="0 0 64 64" enable-background="new 0 0 64 64" xml:space="preserve">
<path fill="#302C3B" d="M10.412,52.718c2.503-1.288,12.949-4.543,12.949-4.543l15.221-0.037c0,0,10.537,3.284,13.023,4.577
	c3.615,1.873,4.375,4.429,4.375,6.845c0,3.254-50,3.254-50,0C5.981,57.141,6.788,54.584,10.412,52.718z"/>
<polygon fill="#E6EBEF" points="22.286,47.785 39.676,47.785 38.227,62 23.644,62 "/>
<polygon fill="#F5BB51" points="21.606,49.949 30.981,54.781 40.355,49.949 40.355,41.914 21.606,41.914 "/>
<path fill="#1A1626" d="M32.985,57.844c-0.539-1.393-3.467-1.393-4.006,0c-0.43,1.105-0.789,2.559-1.091,4.156h6.186
	C33.771,60.402,33.412,58.949,32.985,57.844z"/>
<path fill="#302C3B" d="M32.831,57.844c-0.417,0.504-3.329,0.559-3.697,0c-0.874-1.324-2.311-3.945-2.311-3.945
	s3.627-1.781,4.158-1.781c0.535,0,4.16,1.781,4.16,1.781S33.836,56.631,32.831,57.844z"/>
<path fill="#FFFFFF" d="M40.355,46.91l1.555,1.131c0,0-1.049,2.949-2.609,10.191l-8.32-6.115
	C30.981,52.117,37.686,52.229,40.355,46.91z"/>
<path fill="#FFFFFF" d="M21.606,46.91l-1.553,1.131c0,0,1.048,2.949,2.608,10.191l8.319-6.115
	C30.981,52.117,24.277,52.229,21.606,46.91z"/>
<path fill="#404754" d="M41.023,61.815c0,0,3.297-4.28,5.332-8.562l-2.758-4.248l3.24-1.59c0,0-2.703-4.104-6.482-5.502
	c0,0-0.729,12.541-4.418,20.086L41.023,61.815z"/>
<path fill="#404754" d="M20.941,61.815c0,0-3.296-4.28-5.331-8.562l2.757-4.248l-3.238-1.59c0,0,2.701-4.104,6.481-5.502
	c0,0,0.729,12.541,4.42,20.086L20.941,61.815z"/>
<path fill="#3A3D4A" d="M58.488,49.972c-0.223-0.652-3.883-0.797-7.229,0.817c-1.654,0.8-0.576,10.339-0.576,10.339
	s9.336-0.541,9.336-2.894C60.02,56.27,59.105,51.783,58.488,49.972z"/>
<path fill="#473834" d="M46.193,38.785c1.082,0.715,2.33,1.248,3.787,1.521c-2.586-5.889,1.314-18.238-6.682-27.311
	c-11.269,0.336-12.828,36.721,2.883,31.883c-1-0.434-1.629-1.316-1.996-2.43c1.211,0.346,2.627,0.357,4.275-0.148
	C47.148,41.734,46.48,40.398,46.193,38.785z"/>
<path fill="#473834" d="M17.903,12.996c-7.996,9.072-3.334,21.422-5.922,27.311c1.457-0.273,2.707-0.807,3.789-1.521
	c-0.289,1.613-0.957,2.949-2.27,3.516c1.648,0.506,3.063,0.494,4.273,0.148c-0.367,1.113-0.992,1.996-1.992,2.43
	C31.491,49.717,29.174,13.332,17.903,12.996z"/>
<path id="Path_865_" fill="#FFC940" d="M47.424,25.393c-2.547,0.307-4.383,8.816-2.783,11.061c0.225,0.314,1.535,0.814,2.508-1.168
	c0.539-1.096,2.094-2.012,2.574-4.275C50.34,28.109,49.957,25.086,47.424,25.393z"/>
<path id="Path_864_" fill="#FFC940" d="M14.54,25.393c2.547,0.307,4.385,8.816,2.783,11.061c-0.225,0.314-1.537,0.814-2.508-1.168
	c-0.539-1.096-2.094-2.012-2.574-4.275C11.624,28.109,12.008,25.086,14.54,25.393z"/>
<path id="Path_863_" fill="#F0A429" d="M47.354,27.023c-0.664,0.209-1.389,1.219-1.781,2.896c2.322-0.498,1.742,3.361-0.275,3.436
	c0.018,0.387,0.045,0.787,0.092,1.207c0.973-1.41,1.959-0.844,2.938-2.939C49.207,29.732,48.998,26.508,47.354,27.023z"/>
<path id="Path_862_" fill="#F0A429" d="M16.391,29.916c-0.395-1.674-1.117-2.686-1.781-2.893c-1.645-0.516-1.855,2.709-0.975,4.6
	c0.979,2.096,1.967,1.529,2.939,2.939c0.049-0.422,0.074-0.82,0.092-1.209C14.668,33.258,14.098,29.445,16.391,29.916z"/>
<path fill="#FFC940" d="M30.981,9.035c-11.029,0-16.342,8.965-15.678,20.492c0.137,2.318,0.783,5.66,1.58,8.525
	C18.538,44.006,27.264,50,30.981,50c3.716,0,12.443-5.994,14.099-11.947c0.797-2.865,1.441-6.207,1.578-8.525
	C47.322,18,42.012,9.035,30.981,9.035z"/>
<path id="Path_803_" fill="#966F42" d="M42.963,24.543c-2.521-1.334-7.35-1.398-9.146-0.471c-0.387,0.18-0.131,1.443,0.193,1.324
	c2.504-0.99,6.547-1.012,8.893,0.084C43.215,25.623,43.346,24.729,42.963,24.543z"/>
<path id="Path_801_" fill="#966F42" d="M19,24.543c2.521-1.334,7.346-1.398,9.146-0.471c0.383,0.18,0.131,1.443-0.193,1.324
	c-2.51-0.99-6.547-1.012-8.895,0.084C18.747,25.623,18.618,24.729,19,24.543z"/>
<path id="Path_791_" fill="#F0A429" d="M33.957,36.107c-0.314-0.219-1.052,0.119-2.976,0.119c-1.92,0-2.66-0.338-2.977-0.119
	c-0.375,0.266,0.225,1.463,2.977,1.463C33.734,37.57,34.336,36.373,33.957,36.107z"/>
<path id="Path_790_" fill="#F0A429" d="M30.981,40.645c-2.48-0.727-6.156,0.346-6.156,0.346c1.4,1.523,2.426,3.496,6.156,3.496
	c4.273,0,5.001-2.24,6.158-3.496C37.139,40.99,33.461,39.914,30.981,40.645z"/>
<path id="Path_778_" fill="#FFFFFF" d="M25.749,41.248c2.602,2.178,7.851,2.193,10.466,0C33.443,41.367,28.54,41.367,25.749,41.248z
	"/>
<linearGradient id="SVGID_1_" gradientUnits="userSpaceOnUse" x1="30.8179" y1="31.8184" x2="30.8179" y2="6">
	<stop  offset="0" style="stop-color:#473834"/>
	<stop  offset="0.2717" style="stop-color:#594640"/>
	<stop  offset="0.7226" style="stop-color:#715950"/>
	<stop  offset="1" style="stop-color:#7A6056"/>
	<a:midPointStop  offset="0" style="stop-color:#473834"/>
	<a:midPointStop  offset="0.4" style="stop-color:#473834"/>
	<a:midPointStop  offset="1" style="stop-color:#7A6056"/>
</linearGradient>
<path fill="url(#SVGID_1_)" d="M30.983,6c-6.711,0-10.064,3.035-10.744,4.473c-8.113,1.852-10.723,15.516-4.648,21.346
	c0.754-6.211,1.48-10.201,5.617-14.404c2.412,3.227,7.424,5.041,11.91,5.041c-2.125-1.541-3.574-3.051-4.71-4.457
	c7.494,3.432,15.884,5.629,17.968,13.82C53.584,20.359,47.596,6,30.983,6z"/>
<path id="Path_869_" fill="#FFFFFF" d="M33.871,29.09c-0.105,0.822,0.451,1.797,2,2.527c0.982,0.465,3.025,1.01,5.709-0.121
	c1.207-0.506,2.379-2.082,2.271-2.957C42.396,25.799,35.232,25.398,33.871,29.09z"/>
<linearGradient id="Oval_1_" gradientUnits="userSpaceOnUse" x1="-425.2358" y1="477.417" x2="-425.2358" y2="478.2725" gradientTransform="matrix(6.5701 0 0 -6.5701 2832.511 3168.5281)">
	<stop  offset="0" style="stop-color:#A6694A"/>
	<stop  offset="1" style="stop-color:#4F2A1E"/>
	<a:midPointStop  offset="0" style="stop-color:#A6694A"/>
	<a:midPointStop  offset="0.5" style="stop-color:#A6694A"/>
	<a:midPointStop  offset="1" style="stop-color:#4F2A1E"/>
</linearGradient>
<circle id="Oval_120_" fill="url(#Oval_1_)" cx="38.668" cy="29.036" r="2.81"/>
<path id="Path_868_" fill="#1A1626" d="M37.262,28.984c0,1.943,2.814,1.943,2.814,0C40.076,27.18,37.262,27.18,37.262,28.984z"/>
<path id="Path_867_" fill="#AB968C" d="M36.832,28.195c0,0.814,1.182,0.814,1.182,0C38.014,27.441,36.832,27.441,36.832,28.195z"/>
<path id="Path_866_" fill="#F0A429" d="M33.859,29.197c1.141-3.662,8.928-3.139,9.992-0.658
	C43.457,25.385,34.832,24.549,33.859,29.197z"/>
<path fill="#FFC940" d="M45.469,39.844c-0.873-1.279,2.57-2.223,3.139,0.023c0.229,0.908,9.631,0.668,10.381,2.01
	c1.352,2.41-1.748,7.166-1.293,8.145c0.453,0.979-6.324,2.516-6.191,1.285c0.436-4.033-1.584-2.508-2.449-5.9
	C48.402,42.855,46.635,41.555,45.469,39.844z"/>
<linearGradient id="SVGID_2_" gradientUnits="userSpaceOnUse" x1="40.3096" y1="37.6846" x2="40.3096" y2="20.1011">
	<stop  offset="0" style="stop-color:#FFFFFF;stop-opacity:0"/>
	<stop  offset="1" style="stop-color:#FFFFFF"/>
	<a:midPointStop  offset="0" style="stop-color:#FFFFFF;stop-opacity:0"/>
	<a:midPointStop  offset="0.5" style="stop-color:#FFFFFF;stop-opacity:0"/>
	<a:midPointStop  offset="1" style="stop-color:#FFFFFF"/>
</linearGradient>
<circle opacity="0.65" fill="url(#SVGID_2_)" cx="40.311" cy="28.893" r="8.79"/>
<polygon fill="#BEC3CF" points="48.197,38.977 50.393,36.785 48.043,34.436 45.85,36.633 "/>
<path fill="#BEC3CF" d="M47.215,35.801c3.816-3.816,3.816-9.998,0.002-13.816c-3.814-3.814-10-3.816-13.814,0
	c-3.814,3.814-3.814,10.004,0,13.816C37.217,39.615,43.404,39.615,47.215,35.801z M34.633,34.57
	c-3.138-3.133-3.136-8.223,0.002-11.357c3.133-3.137,8.217-3.135,11.352,0c3.139,3.137,3.139,8.225,0,11.359
	C42.852,37.709,37.766,37.709,34.633,34.57z"/>
<rect x="51" y="36.019" transform="matrix(-0.7071 0.7071 -0.7071 -0.7071 120.0521 33.5853)" fill="#302C3B" width="4.14" height="11.275"/>
<path fill="#BEC3CF" d="M55.314,47.682c0.48,0.48,4.262-3.297,3.779-3.783l-0.295-0.293c-0.482-0.482-4.264,3.297-3.781,3.777
	L55.314,47.682z"/>
<path fill="#FFC940" d="M53.691,36.953c1.752-0.063,2.166,1.357,2.166,1.357c1.59,0.176,2.189,1.715,2.189,1.715
	c3.057,1.551-1.414,7.902-2.428,4.652c-1.293,1.6-3.145,0.502-2.047-1.363c-1.412,1.916-3.018-0.215-2.219-1.396
	c0.301-0.443,0.516-0.99,0.869-1.498c-1.463,1.926-2.885-0.063-2.396-1.27c0.543-1.338,1.365-2.551,1.787-2.836
	C52.453,35.75,53.465,36.541,53.691,36.953z"/>
<path fill="#F0A429" d="M50.168,40.838c1.529,1.74,3.1-1.988,3.15-2.719C52.326,40.594,50.826,41.439,50.168,40.838z"/>
<path fill="#F0A429" d="M51.547,43.688c1.529,1.74,3.387-1.918,3.82-4.061C54.041,43.465,52.203,44.291,51.547,43.688z"/>
<path fill="#F0A429" d="M53.568,45.193c1.529,1.74,3.502-1.943,3.936-4.086C56.18,44.945,54.227,45.795,53.568,45.193z"/>
<path fill="#302C3B" d="M57.98,20.541c0,2.146-12.092,4.416-27,4.416c-14.914,0-27-2.27-27-4.416s12.086-3.887,27-3.887
	C45.889,16.654,57.98,18.395,57.98,20.541z"/>
<path fill="#302C3B" d="M48.889,17.08c0,4.111-35.816,4.111-35.816,0c0-22.012,8.016-13.436,17.908-13.436
	C40.869,3.645,48.889-4.932,48.889,17.08z"/>
<path fill="#1A1626" d="M30.981,5.061c-4.965,0-13.561-3.377-10.658-0.627c3.813,3.607,17.64,3.477,21.314,0
	C44.541,1.684,35.941,5.061,30.981,5.061z"/>
<path fill="#1A1626" d="M13.073,15.324v3.889c6.996,2.561,28.818,2.561,35.816,0v-3.889C41.898,17.887,20.059,17.887,13.073,15.324z
	"/>
<path fill="#A6772C" d="M20.793,29.975c1.664-0.945,4.658-1.008,6.457,0c0.414,0.234,1.105,0.072,0.951-0.201
	c-1.572-2.77-6.793-2.766-8.359,0C19.688,30.047,20.379,30.211,20.793,29.975z"/>
</svg>
