<?xml version="1.0" encoding="utf-8"?>
<!-- Generator: Adobe Illustrator 22.1.0, SVG Export Plug-In . SVG Version: 6.00 Build 0)  -->
<svg version="1.1" width="22" height="22" id="Слой_1" xmlns="http://www.w3.org/2000/svg" xmlns:xlink="http://www.w3.org/1999/xlink" x="0px" y="0px"
	 viewBox="0 0 22 22" style="enable-background:new 0 0 22 22;" xml:space="preserve">
<path d="M20.2,5c-0.8-1.3-1.8-2.3-3.1-3.1C15.3,0.6,13.2,0,11,0S6.7,0.6,5,1.8C3.7,2.7,2.7,3.7,1.8,5C0.6,6.7,0,8.7,0,11
	s0.6,4.3,1.8,6c0.8,1.3,1.8,2.3,3.1,3.1c1.7,1.2,3.8,1.8,6,1.8s4.3-0.6,6-1.8c1.2-0.8,2.3-1.8,3.1-3.1c1.2-1.7,1.8-3.8,1.8-6
	S21.4,6.7,20.2,5z M15.6,11.9h-3.7v3.7c0,0.5-0.4,0.9-0.9,0.9s-0.9-0.4-0.9-0.9v-3.7H6.4c-0.5,0-0.9-0.4-0.9-0.9s0.4-0.9,0.9-0.9
	h3.7V6.4c0-0.5,0.4-0.9,0.9-0.9s0.9,0.4,0.9,0.9v3.7h3.7c0.5,0,0.9,0.4,0.9,0.9S16.1,11.9,15.6,11.9z"/>
</svg>
