<svg xmlns="http://www.w3.org/2000/svg" width="20" height="20" viewBox="0 0 20 20">
    <g fill="none" fill-rule="evenodd">
        <path fill-rule="nonzero" d="M6.987 11.453H5.554a.923.923 0 1 0 0 1.846h1.433v1.433a.923.923 0 0 0 1.847 0V13.3h2.671v1.433a.923.923 0 0 0 1.847 0V13.3h1.433a.923.923 0 0 0 0-1.846h-1.433V8.78h1.433a.923.923 0 0 0 0-1.846h-1.433V5.502a.923.923 0 1 0-1.847 0v1.433H8.834V5.502a.923.923 0 0 0-1.846 0v1.433H5.553a.923.923 0 0 0 0 1.846h1.433v2.672zm1.847 0V8.78h2.671v2.672H8.834zM4 0h12a4 4 0 0 1 4 4v12a4 4 0 0 1-4 4H4a4 4 0 0 1-4-4V4a4 4 0 0 1 4-4z"/>
    </g>
</svg>
