<svg xmlns="http://www.w3.org/2000/svg" width="26" height="21" viewBox="0 0 26 21">
    <g fill="none" fill-rule="nonzero" transform="translate(0 -3)">
        <!-- <path d="M0 0h28v28H0z"/> -->
        <rect width="20" height="2.5" x="6" y="13.5" fill="#654BFA" rx="1"/>
        <path fill="#654BFA" d="M12.568 8.5H25a1 1 0 0 1 1 1v.5a1 1 0 0 1-1 1H12.568a1 1 0 0 1-1-1v-.5a1 1 0 0 1 1-1z"/>
        <rect width="20" height="2.5" x="6" y="18.5" fill="#654BFA" rx="1"/>
        <path fill="#654BFA" stroke="#F9FAFB" stroke-width="1.5" d="M6.639 12.205h4.722v-1.637c0-.683-.227-1.244-.698-1.725-.467-.478-1.007-.707-1.663-.707-.656 0-1.196.23-1.663.707a2.352 2.352 0 0 0-.698 1.725v1.637zm-3.833.032v-1.669c0-1.72.611-3.218 1.817-4.452C5.833 4.88 7.306 4.25 9 4.25s3.167.63 4.377 1.866c1.206 1.234 1.817 2.731 1.817 4.452v1.67c.38.07.72.252 1.002.54.365.373.554.843.554 1.37v7.159c0 .526-.19.996-.554 1.37a1.862 1.862 0 0 1-1.363.573H3.167c-.526 0-.995-.197-1.363-.574a1.913 1.913 0 0 1-.554-1.37v-7.158c0-.527.19-.997.554-1.37.281-.288.622-.47 1.002-.54z"/>
    </g>
</svg>
