<?xml version="1.0" encoding="utf-8"?>
<!-- Generator: Adobe Illustrator 22.1.0, SVG Export Plug-In . SVG Version: 6.00 Build 0)  -->
<svg version="1.1" id="Слой_1" width="24" height="18" xmlns="http://www.w3.org/2000/svg" xmlns:xlink="http://www.w3.org/1999/xlink" x="0px" y="0px"
	 viewBox="0 0 24 18" style="enable-background:new 0 0 24 18;" xml:space="preserve">
<style type="text/css">
	.st0{fill:#654BFA;}
</style>
<g>
	<path class="st0" d="M23,8.7h-7.6c0.1,0.2,0.1,0.4,0.1,0.6v1.9H23c0.6,0,1-0.4,1-1V9.7C24,9.2,23.6,8.7,23,8.7z"/>
	<path class="st0" d="M23,3.7h-9.3c0.2,0.7,0.3,1.3,0.3,2.1v0.4H23c0.6,0,1-0.4,1-1V4.7C24,4.2,23.6,3.7,23,3.7z"/>
	<path class="st0" d="M23,13.7h-7.5v2.5H23c0.6,0,1-0.4,1-1v-0.5C24,14.2,23.6,13.7,23,13.7z"/>
	<path class="st0" d="M13.7,8.6c-0.2-0.2-0.4-0.3-0.6-0.3l-0.6-0.1V6.2V5.8c0-0.7-0.1-1.4-0.4-2.1c-0.3-0.7-0.7-1.3-1.2-1.9
		C9.8,0.8,8.5,0.2,7,0.2S4.2,0.8,3.2,1.9C2.1,3,1.6,4.3,1.6,5.8v2.3L0.9,8.2c-0.2,0-0.4,0.2-0.6,0.3C0.1,8.8,0,9.1,0,9.4v7.2
		c0,0.3,0.1,0.6,0.3,0.8c0.2,0.2,0.5,0.4,0.8,0.4h11.7c0.3,0,0.6-0.1,0.8-0.3c0.2-0.2,0.3-0.5,0.3-0.9v-0.3v-2.5v-2.5V9.4
		c0-0.2-0.1-0.5-0.2-0.6C13.7,8.7,13.7,8.6,13.7,8.6z M3.9,5.8c0-0.8,0.3-1.7,0.9-2.3C5.4,2.9,6.1,2.6,7,2.6c0.9,0,1.6,0.3,2.2,0.9
		C9.4,3.8,9.6,4,9.7,4.3c0.3,0.5,0.4,1,0.4,1.5v0.3v2.1H3.9V5.8z"/>
</g>
</svg>
