<svg xmlns="http://www.w3.org/2000/svg" width="20" height="15.7" viewBox="0 0 20 15.7">
	<g fill="none" fill-rule="evenodd">
		<path fill="black" fill-rule="nonzero" d="M1.9,4.8c0.3,0.2,1,0.7,2.3,1.6s2.2,1.6,2.9,2c0.1,0.1,0.2,0.2,0.5,0.3C7.8,9,8,9.1,8.2,9.2c0.2,0.1,0.4,0.2,0.6,0.4 C9,9.7,9.2,9.8,9.4,9.9C9.6,10,9.8,10,10,10h0h0c0.2,0,0.4,0,0.6-0.1c0.2-0.1,0.4-0.2,0.6-0.3c0.2-0.1,0.4-0.3,0.6-0.4 c0.2-0.1,0.4-0.2,0.6-0.4c0.2-0.2,0.4-0.3,0.5-0.3c0.7-0.5,2.4-1.7,5.2-3.6c0.5-0.4,1-0.8,1.4-1.4C19.8,2.9,20,2.4,20,1.8 c0-0.5-0.2-0.9-0.5-1.3C19.1,0.2,18.7,0,18.2,0H1.8c-0.6,0-1,0.2-1.3,0.6C0.2,1,0,1.4,0,2c0,0.5,0.2,1,0.6,1.5 C1,4.1,1.5,4.5,1.9,4.8z"/>
		<path fill="black" fill-rule="nonzero" d="M13.3,9.9c-0.4,0.3-0.8,0.6-1,0.7c-0.3,0.2-0.6,0.4-1.1,0.5c-0.4,0.2-0.8,0.3-1.2,0.3h0h0c-0.4,0-0.8-0.1-1.2-0.3 C8.3,11,8,10.8,7.7,10.6c-0.3-0.2-0.6-0.4-1-0.7c-1-0.7-2.9-2-5.5-3.8C0.7,5.8,0.3,5.4,0,5.1v8.9c0,0.5,0.2,0.9,0.5,1.3 c0.3,0.3,0.8,0.5,1.3,0.5h16.4c0.5,0,0.9-0.2,1.3-0.5c0.3-0.3,0.5-0.8,0.5-1.3V5.1c-0.3,0.4-0.7,0.7-1.1,1 C16.4,7.7,14.6,9,13.3,9.9z"/>
	</g>
</svg>