<?xml version="1.0" encoding="utf-8"?>
<!-- Generator: Adobe Illustrator 17.0.0, SVG Export Plug-In . SVG Version: 6.00 Build 0)  -->
<!DOCTYPE svg PUBLIC "-//W3C//DTD SVG 1.1//EN" "http://www.w3.org/Graphics/SVG/1.1/DTD/svg11.dtd">
<svg version="1.1" id="Layer_1" xmlns="http://www.w3.org/2000/svg" xmlns:xlink="http://www.w3.org/1999/xlink" x="0px" y="0px"
	 width="32px" height="32px" viewBox="0 0 32 32" enable-background="new 0 0 32 32" xml:space="preserve">
<path fill="#B56CFF" d="M16,0C7.163,0,0,7.164,0,16s7.163,16,16,16c8.836,0,16-7.164,16-16S24.836,0,16,0z M23,21
	c0,1.104-3.135,2-7,2c-3.866,0-7-0.896-7-2v-2.516c1.649,0.916,4.155,1.515,7,1.515s5.351-0.599,7-1.515V21z M23,16
	c0,1.104-3.135,2-7,2c-3.866,0-7-0.896-7-2.001v-2.515c1.649,0.916,4.155,1.515,7,1.515s5.351-0.599,7-1.515V16z M16,12.999
	c-3.866,0-7-0.895-7-1.999c0-1.105,3.134-2,7-2c3.866,0,7,0.895,7,2C23,12.103,19.866,12.999,16,12.999z"/>
</svg>
