<?xml version="1.0" encoding="utf-8"?>
<!-- Generator: Adobe Illustrator 17.0.0, SVG Export Plug-In . SVG Version: 6.00 Build 0)  -->
<!DOCTYPE svg PUBLIC "-//W3C//DTD SVG 1.1//EN" "http://www.w3.org/Graphics/SVG/1.1/DTD/svg11.dtd">
<svg version="1.1" id="Layer_1" xmlns="http://www.w3.org/2000/svg" xmlns:xlink="http://www.w3.org/1999/xlink" x="0px" y="0px"
	 width="14px" height="14px" viewBox="0 0 14 14" enable-background="new 0 0 14 14" xml:space="preserve">
<path d="M7,0C3.134,0,0,3.134,0,7c0,3.866,3.134,7,7,7c3.866,0,7-3.134,7-7C14,3.134,10.866,0,7,0z M7.727,10.711
	C7.539,10.9,7.3,10.994,7.009,10.994c-0.298,0-0.54-0.094-0.728-0.283c-0.188-0.188-0.282-0.432-0.282-0.73
	c0-0.292,0.094-0.53,0.282-0.716c0.188-0.185,0.43-0.277,0.728-0.277c0.291,0,0.53,0.093,0.718,0.277
	C7.914,9.45,8.009,9.688,8.009,9.98C8.009,10.279,7.914,10.522,7.727,10.711z M9.683,5.972C9.476,6.229,9.212,6.488,8.807,6.783
	C8.338,7.128,8,7.503,8,8H6c0-0.634,0.764-1.494,1.184-1.779c0.487-0.337,0.58-0.505,0.58-0.796c0-0.559-0.799-0.675-0.699-0.675
	C6.277,4.75,6,5.09,6,5.594H4c0,0-0.217-0.962,0.824-1.874c0.544-0.477,1.3-0.716,2.268-0.716c0.915,0,1.628,0.174,2.138,0.52
	c0.51,0.347,0.765,0.837,0.765,1.47C9.994,5.389,9.891,5.714,9.683,5.972z"/>
</svg>
