<?xml version="1.0" encoding="utf-8"?>
<!-- Generator: Adobe Illustrator 16.0.0, SVG Export Plug-In . SVG Version: 6.00 Build 0)  -->
<!DOCTYPE svg PUBLIC "-//W3C//DTD SVG 1.1//EN" "http://www.w3.org/Graphics/SVG/1.1/DTD/svg11.dtd">
<svg version="1.1" id="Layer_1" xmlns="http://www.w3.org/2000/svg" xmlns:xlink="http://www.w3.org/1999/xlink" x="0px" y="0px"
	 width="14px" height="14px" viewBox="0 0 14 14" enable-background="new 0 0 14 14" xml:space="preserve">
<g>
	<g>
		<path fill-rule="evenodd" clip-rule="evenodd" d="M0,4.484v2.515C0,8.104,3.134,9,7,9c3.865,0,7-0.896,7-2V4.484
			C12.351,5.4,9.845,5.999,7,5.999C4.155,5.999,1.649,5.4,0,4.484z M0,9.484V12c0,1.104,3.134,2,7,2c3.865,0,7-0.896,7-2V9.484
			c-1.649,0.916-4.155,1.515-7,1.515C4.155,10.999,1.649,10.4,0,9.484z M7,3.999c3.866,0,7-0.896,7-1.999c0-1.105-3.134-2-7-2
			S0,0.895,0,2C0,3.104,3.134,3.999,7,3.999z"/>
	</g>
</g>
</svg>
