<?xml version="1.0" encoding="utf-8"?>
<!-- Generator: Adobe Illustrator 17.0.0, SVG Export Plug-In . SVG Version: 6.00 Build 0)  -->
<!DOCTYPE svg PUBLIC "-//W3C//DTD SVG 1.1//EN" "http://www.w3.org/Graphics/SVG/1.1/DTD/svg11.dtd">
<svg version="1.1" id="Layer_1" xmlns="http://www.w3.org/2000/svg" xmlns:xlink="http://www.w3.org/1999/xlink" x="0px" y="0px"
	 width="32px" height="32px" viewBox="0 0 32 32" enable-background="new 0 0 32 32" xml:space="preserve">
<g>
	<polygon fill="#00D75B" points="18,12.999 21,12.999 18,10 	"/>
	<rect x="12" y="18" fill="#00D75B" width="6" height="1"/>
	<rect x="12" y="15" fill="#00D75B" width="8" height="1"/>
	<path fill="#00D75B" d="M16,0C7.163,0,0,7.164,0,16s7.163,16,16,16c8.836,0,16-7.164,16-16S24.836,0,16,0z M22,22
		c0,0.552-0.448,1-1,1H11c-0.553,0-1-0.448-1-1V10c0-0.553,0.447-1,1-1h8l3,2.999V22z"/>
</g>
</svg>
