<?xml version="1.0" encoding="utf-8"?>
<!-- Generator: Adobe Illustrator 16.0.0, SVG Export Plug-In . SVG Version: 6.00 Build 0)  -->
<!DOCTYPE svg PUBLIC "-//W3C//DTD SVG 1.1//EN" "http://www.w3.org/Graphics/SVG/1.1/DTD/svg11.dtd">
<svg version="1.1" id="Layer_1" xmlns="http://www.w3.org/2000/svg" xmlns:xlink="http://www.w3.org/1999/xlink" x="0px" y="0px"
	 width="14px" height="14px" viewBox="0 0 14 14" enable-background="new 0 0 14 14" xml:space="preserve">
<path d="M2.823,11.178c-1.191-1.19-1.19-2.987,0-4.178l1.392-1.393L2.823,4.214L1.431,5.607c-1.922,1.922-1.922,5.042,0,6.963
	c1.921,1.921,5.04,1.921,6.962,0l1.393-1.393L8.393,9.785L7,11.178C5.81,12.368,4.014,12.368,2.823,11.178z M6.304,9.089
	l2.785-2.786L7.696,4.911L4.911,7.696L6.304,9.089z M5.607,1.43L4.215,2.823l1.393,1.392L7,2.823c1.19-1.191,2.987-1.191,4.178,0
	c1.19,1.19,1.19,2.986,0,4.177L9.785,8.393l1.393,1.393l1.393-1.393c1.921-1.922,1.921-5.042,0-6.962
	C10.648-0.492,7.529-0.492,5.607,1.43z"/>
</svg>
