<svg xmlns="http://www.w3.org/2000/svg" xmlns:xlink="http://www.w3.org/1999/xlink" width="133" height="100" viewBox="0 0 133 100">
    <defs>
        <rect id="a" width="133" height="100" rx="4.167"/>
        <path id="c" d="M202.158 99.61l14.645 8.781a.507.507 0 0 1 0 .87l-14.645 8.781c-.32.192-.722.192-1.042 0l-14.645-8.781a.507.507 0 0 1 0-.87l14.645-8.78c.32-.193.721-.193 1.042 0z"/>
        <path id="d" d="M240.623 99.61l14.645 8.781a.507.507 0 0 1 0 .87l-14.645 8.781c-.32.192-.721.192-1.042 0l-14.645-8.781a.507.507 0 0 1 0-.87l14.645-8.78c.32-.193.722-.193 1.042 0z"/>
        <path id="e" d="M259.35 110.756l14.644 8.781a.507.507 0 0 1 0 .87l-14.644 8.78c-.321.193-.722.193-1.043 0l-14.644-8.78a.507.507 0 0 1 0-.87l14.644-8.781c.321-.193.722-.193 1.043 0z"/>
        <path id="f" d="M220.885 110.756l33.713 20.215a.507.507 0 0 1 0 .87l-14.645 8.78c-.32.193-.721.193-1.042 0l-33.713-20.215a.507.507 0 0 1 0-.869l14.644-8.781c.321-.193.722-.193 1.043 0z"/>
        <path id="g" d="M202.664 76.812l33.713 20.216a.507.507 0 0 1 0 .87l-14.644 8.78c-.32.193-.722.193-1.043 0l-33.713-20.215a.507.507 0 0 1 0-.87l14.645-8.78c.32-.193.721-.193 1.042 0z"/>
        <path id="h" d="M272.003 95.05l14.644 8.782a.507.507 0 0 1 0 .87l-14.644 8.78c-.321.193-.722.193-1.043 0l-14.644-8.78a.507.507 0 0 1 0-.87l14.644-8.781c.321-.193.722-.193 1.043 0z"/>
        <path id="i" d="M310.468 95.05l14.644 8.782a.507.507 0 0 1 0 .87l-14.644 8.78c-.32.193-.722.193-1.043 0l-14.644-8.78a.507.507 0 0 1 0-.87l14.644-8.781c.321-.193.722-.193 1.043 0z"/>
        <path id="j" d="M329.195 106.196l14.644 8.781a.507.507 0 0 1 0 .87l-14.644 8.781c-.321.193-.722.193-1.043 0l-14.644-8.781a.507.507 0 0 1 0-.87l14.644-8.78c.32-.193.722-.193 1.043 0z"/>
        <path id="k" d="M290.73 106.196l33.712 20.216a.507.507 0 0 1 0 .87l-14.644 8.78c-.32.193-.722.193-1.043 0l-33.713-20.215a.507.507 0 0 1 0-.87l14.645-8.78c.32-.193.721-.193 1.042 0z"/>
        <path id="l" d="M272.509 72.253l33.713 20.215a.507.507 0 0 1 0 .87l-14.644 8.78c-.321.193-.722.193-1.043 0l-33.713-20.215a.507.507 0 0 1 0-.87l14.644-8.78c.321-.193.722-.193 1.043 0z"/>
        <path id="m" d="M234.044 72.253l33.713 20.215a.507.507 0 0 1 0 .87l-14.644 8.78c-.321.193-.722.193-1.043 0l-33.713-20.215a.507.507 0 0 1 0-.87L233 72.254c.321-.193.722-.193 1.043 0z"/>
        <path id="n" d="M296.984 156.025l14.644 8.781a.507.507 0 0 1 0 .87l-14.644 8.78c-.321.193-.722.193-1.043 0l-14.644-8.78a.507.507 0 0 1 0-.87l14.644-8.781c.321-.192.722-.192 1.043 0z"/>
        <path id="o" d="M355.007 168.004l33.713 20.215a.507.507 0 0 1 0 .87l-14.645 8.781c-.32.192-.721.192-1.042 0l-33.713-20.215a.507.507 0 0 1 0-.87l14.644-8.781c.32-.192.722-.192 1.043 0z"/>
        <path id="p" d="M316.216 144.373l33.713 20.215a.507.507 0 0 1 0 .87l-14.644 8.78c-.32.193-.722.193-1.043 0l-33.713-20.215a.507.507 0 0 1 0-.87l14.645-8.78c.32-.193.721-.193 1.042 0z"/>
        <path id="q" d="M315.71 167.17l33.713 20.216a.507.507 0 0 1 0 .87l-14.644 8.78c-.32.193-.722.193-1.043 0l-33.713-20.215a.507.507 0 0 1 0-.87l14.645-8.78c.32-.193.721-.193 1.042 0z"/>
        <path id="r" d="M329.7 128.994l14.645 8.781a.507.507 0 0 1 0 .87l-14.644 8.781c-.321.192-.722.192-1.043 0l-14.644-8.781a.507.507 0 0 1 0-.87l14.644-8.78c.32-.193.722-.193 1.043 0z"/>
        <path id="s" d="M348.933 117.342l33.713 20.215a.507.507 0 0 1 0 .87l-14.644 8.78c-.32.193-.722.193-1.043 0l-33.713-20.214a.507.507 0 0 1 0-.87l14.645-8.781c.32-.192.721-.192 1.042 0z"/>
        <path id="t" d="M348.427 140.14l33.713 20.215a.507.507 0 0 1 0 .87l-14.644 8.78c-.321.193-.722.193-1.043 0L332.74 149.79a.507.507 0 0 1 0-.869l14.644-8.781c.321-.193.722-.193 1.043 0z"/>
        <path id="u" d="M201.347 145.05l14.644 8.782a.507.507 0 0 1 0 .87l-14.644 8.78c-.321.193-.722.193-1.043 0l-14.644-8.78a.507.507 0 0 1 0-.87l14.644-8.781c.32-.193.722-.193 1.043 0z"/>
        <path id="v" d="M239.812 145.05l14.644 8.782a.507.507 0 0 1 0 .87l-14.644 8.78c-.321.193-.722.193-1.043 0l-14.644-8.78a.507.507 0 0 1 0-.87l14.644-8.781c.321-.193.722-.193 1.043 0z"/>
        <path id="w" d="M258.538 156.196l14.645 8.781a.507.507 0 0 1 0 .87l-14.645 8.781c-.32.193-.721.193-1.042 0l-14.645-8.781a.507.507 0 0 1 0-.87l14.645-8.78c.32-.193.721-.193 1.042 0z"/>
        <path id="x" d="M205.73 171.717l14.645 8.781a.507.507 0 0 1 0 .87l-14.644 8.781c-.321.193-.722.193-1.043 0l-14.644-8.781a.507.507 0 0 1 0-.87l14.644-8.78c.32-.193.722-.193 1.043 0z"/>
        <path id="y" d="M220.073 156.196l33.713 20.216a.507.507 0 0 1 0 .87l-14.644 8.78c-.321.193-.722.193-1.043 0l-33.713-20.215a.507.507 0 0 1 0-.87l14.644-8.78c.321-.193.722-.193 1.043 0z"/>
        <path id="z" d="M201.853 122.253l33.713 20.215a.507.507 0 0 1 0 .87l-14.644 8.78c-.321.193-.722.193-1.043 0l-33.713-20.215a.507.507 0 0 1 0-.87l14.644-8.78c.321-.193.722-.193 1.043 0z"/>
        <path id="A" d="M259.044 178.994l14.645 8.781a.507.507 0 0 1 0 .87l-14.645 8.781c-.32.192-.721.192-1.042 0l-14.645-8.781a.507.507 0 0 1 0-.87l14.645-8.78c.32-.193.721-.193 1.042 0z"/>
        <path id="B" d="M278.277 167.342l33.713 20.215a.507.507 0 0 1 0 .87l-14.644 8.78c-.321.193-.722.193-1.043 0l-33.713-20.214a.507.507 0 0 1 0-.87l14.644-8.781c.321-.192.722-.192 1.043 0z"/>
        <path id="C" d="M286.174 57.416l33.713 20.216a.507.507 0 0 1 0 .87l-14.644 8.78c-.32.193-.722.193-1.043 0l-33.713-20.215a.507.507 0 0 1 0-.87l14.645-8.78c.32-.193.721-.193 1.042 0z"/>
        <path id="D" d="M325.146 80.214l14.644 8.782a.507.507 0 0 1 0 .869l-14.644 8.781c-.321.193-.722.193-1.043 0l-14.644-8.781a.507.507 0 0 1 0-.87l14.644-8.78c.32-.193.722-.193 1.043 0z"/>
        <path id="E" d="M344.378 68.562l33.713 20.215a.507.507 0 0 1 0 .87l-14.644 8.781c-.321.193-.722.193-1.043 0l-33.713-20.215a.507.507 0 0 1 0-.87l14.644-8.78c.321-.193.722-.193 1.043 0z"/>
        <path id="F" d="M343.872 91.36l33.713 20.215a.507.507 0 0 1 0 .87l-14.644 8.781c-.321.192-.722.192-1.043 0l-33.713-20.215a.507.507 0 0 1 0-.87l14.644-8.78c.321-.193.722-.193 1.043 0z"/>
        <linearGradient id="I" x1="0%" x2="90.709%" y1="25.381%" y2="105.493%">
            <stop offset="0%" stop-color="#FFDC79"/>
            <stop offset="100%" stop-color="#F7A64C"/>
        </linearGradient>
        <path id="H" d="M36.007 1.144l34.433 20.9v6.589a.507.507 0 0 1-.247.435L36 49.446c-.32.19-.72.19-1.04-.002L.76 28.937a.507.507 0 0 1-.247-.422c-.11-4.246-.107-6.403.007-6.471l34.434-20.9a1.014 1.014 0 0 1 1.052 0z"/>
        <filter id="G" width="124.3%" height="137%" x="-12.1%" y="-9.3%" filterUnits="objectBoundingBox">
            <feOffset dy="5" in="SourceAlpha" result="shadowOffsetOuter1"/>
            <feGaussianBlur in="shadowOffsetOuter1" result="shadowBlurOuter1" stdDeviation="2"/>
            <feColorMatrix in="shadowBlurOuter1" values="0 0 0 0 0 0 0 0 0 0 0 0 0 0 0 0 0 0 0.1 0"/>
        </filter>
        <linearGradient id="J" x1="6.047%" x2="119.755%" y1="23.058%" y2="106.671%">
            <stop offset="0%" stop-color="#F7CF54"/>
            <stop offset="100%" stop-color="#F67541"/>
        </linearGradient>
    </defs>
    <g fill="none" fill-rule="evenodd">
        <mask id="b" fill="#fff">
            <use xlink:href="#a"/>
        </mask>
        <use fill="#FFF" xlink:href="#a"/>
        <rect width="132.167" height="99.167" x=".417" y=".417" stroke="#DCDEE4" stroke-opacity=".8" stroke-width=".833" rx="4.167"/>
        <g mask="url(#b)" opacity=".8">
            <g transform="translate(-208.644 -81.167)">
                <use fill="#F0F0F0" fill-opacity=".5" xlink:href="#c"/>
                <path stroke="#DBDCDF" stroke-width=".667" d="M201.987 99.896a.68.68 0 0 0-.7 0l-14.644 8.781a.174.174 0 0 0 0 .298l14.644 8.781a.68.68 0 0 0 .7 0l14.644-8.781a.174.174 0 0 0 0-.298l-14.644-8.78z"/>
            </g>
            <g transform="translate(-208.644 -81.167)">
                <use fill="#F0F0F0" fill-opacity=".5" xlink:href="#d"/>
                <path stroke="#DBDCDF" stroke-width=".667" d="M240.452 99.896a.68.68 0 0 0-.7 0l-14.644 8.781a.174.174 0 0 0 0 .298l14.644 8.781a.68.68 0 0 0 .7 0l14.644-8.781a.174.174 0 0 0 0-.298l-14.644-8.78z"/>
            </g>
            <g transform="translate(-208.644 -81.167)">
                <use fill="#F0F0F0" fill-opacity=".5" xlink:href="#e"/>
                <path stroke="#DBDCDF" stroke-width=".667" d="M259.178 111.042a.68.68 0 0 0-.7 0l-14.644 8.78a.174.174 0 0 0 0 .299l14.645 8.78a.68.68 0 0 0 .7 0l14.644-8.78a.174.174 0 0 0 0-.298l-14.645-8.781z"/>
            </g>
            <g transform="translate(-208.644 -81.167)">
                <use fill="#F0F0F0" fill-opacity=".5" xlink:href="#f"/>
                <path stroke="#DBDCDF" stroke-width=".667" d="M220.713 111.042a.68.68 0 0 0-.7 0l-14.644 8.78a.174.174 0 0 0 0 .299l33.713 20.215a.68.68 0 0 0 .7 0l14.644-8.781a.174.174 0 0 0 0-.298l-33.713-20.215z"/>
            </g>
            <g transform="translate(-208.644 -81.167)">
                <use fill="#F0F0F0" fill-opacity=".5" xlink:href="#g"/>
                <path stroke="#DBDCDF" stroke-width=".667" d="M202.493 77.098a.68.68 0 0 0-.7 0L187.15 85.88a.174.174 0 0 0 0 .298l33.713 20.215a.68.68 0 0 0 .7 0l14.644-8.78a.174.174 0 0 0 0-.298l-33.713-20.216z"/>
            </g>
            <g transform="translate(-208.644 -81.167)">
                <use fill="#F0F0F0" fill-opacity=".5" xlink:href="#h"/>
                <path stroke="#DBDCDF" stroke-width=".667" d="M271.831 95.337a.68.68 0 0 0-.7 0l-14.644 8.78a.174.174 0 0 0 0 .298l14.645 8.782a.68.68 0 0 0 .7 0l14.644-8.782a.174.174 0 0 0 0-.297l-14.645-8.781z"/>
            </g>
            <g transform="translate(-208.644 -81.167)">
                <use fill="#F0F0F0" fill-opacity=".5" xlink:href="#i"/>
                <path stroke="#DBDCDF" stroke-width=".667" d="M310.297 95.337a.68.68 0 0 0-.7 0l-14.644 8.78a.174.174 0 0 0 0 .298l14.644 8.782a.68.68 0 0 0 .7 0l14.644-8.782a.174.174 0 0 0 0-.297l-14.644-8.781z"/>
            </g>
            <g transform="translate(-208.644 -81.167)">
                <use fill="#F0F0F0" fill-opacity=".5" xlink:href="#j"/>
                <path stroke="#DBDCDF" stroke-width=".667" d="M329.023 106.482a.68.68 0 0 0-.7 0l-14.644 8.781a.174.174 0 0 0 0 .298l14.644 8.781a.68.68 0 0 0 .7 0l14.644-8.781a.174.174 0 0 0 0-.298l-14.644-8.78z"/>
            </g>
            <g transform="translate(-208.644 -81.167)">
                <use fill="#F0F0F0" fill-opacity=".5" xlink:href="#k"/>
                <path stroke="#DBDCDF" stroke-width=".667" d="M290.558 106.482a.68.68 0 0 0-.7 0l-14.644 8.781a.174.174 0 0 0 0 .298l33.713 20.215a.68.68 0 0 0 .7 0l14.644-8.78a.174.174 0 0 0 0-.298l-33.713-20.216z"/>
            </g>
            <g transform="translate(-208.644 -81.167)">
                <use fill="#F0F0F0" fill-opacity=".5" xlink:href="#l"/>
                <path stroke="#DBDCDF" stroke-width=".667" d="M272.338 72.539a.68.68 0 0 0-.7 0l-14.645 8.78a.174.174 0 0 0 0 .298l33.714 20.216a.68.68 0 0 0 .7 0l14.644-8.781a.174.174 0 0 0 0-.298l-33.713-20.215z"/>
            </g>
            <g transform="translate(-208.644 -81.167)">
                <use fill="#F0F0F0" fill-opacity=".5" xlink:href="#m"/>
                <path stroke="#DBDCDF" stroke-width=".667" d="M233.872 72.539a.68.68 0 0 0-.7 0l-14.644 8.78a.174.174 0 0 0 0 .298l33.713 20.216a.68.68 0 0 0 .7 0l14.644-8.781a.174.174 0 0 0 0-.298l-33.713-20.215z"/>
            </g>
            <g transform="translate(-208.644 -81.167)">
                <use fill="#F0F0F0" fill-opacity=".5" xlink:href="#n"/>
                <path stroke="#DBDCDF" stroke-width=".667" d="M296.812 156.31a.68.68 0 0 0-.7 0l-14.644 8.782a.174.174 0 0 0 0 .298l14.645 8.78a.68.68 0 0 0 .7 0l14.644-8.78a.174.174 0 0 0 0-.298l-14.645-8.781z"/>
            </g>
            <g transform="translate(-208.644 -81.167)">
                <use fill="#F0F0F0" fill-opacity=".5" xlink:href="#o"/>
                <path stroke="#DBDCDF" stroke-width=".667" d="M354.835 168.29a.68.68 0 0 0-.7 0l-14.644 8.781a.174.174 0 0 0 0 .298l33.713 20.215a.68.68 0 0 0 .7 0l14.644-8.781a.174.174 0 0 0 0-.298l-33.713-20.215z"/>
            </g>
            <g transform="translate(-208.644 -81.167)">
                <use fill="#F0F0F0" fill-opacity=".5" xlink:href="#p"/>
                <path stroke="#DBDCDF" stroke-width=".667" d="M316.045 144.659a.68.68 0 0 0-.7 0l-14.644 8.78a.174.174 0 0 0 0 .298l33.713 20.216a.68.68 0 0 0 .7 0l14.644-8.781a.174.174 0 0 0 0-.298l-33.713-20.215z"/>
            </g>
            <g transform="translate(-208.644 -81.167)">
                <use fill="#F0F0F0" fill-opacity=".5" xlink:href="#q"/>
                <path stroke="#DBDCDF" stroke-width=".667" d="M315.539 167.457a.68.68 0 0 0-.7 0l-14.644 8.78a.174.174 0 0 0 0 .298l33.713 20.216a.68.68 0 0 0 .7 0l14.644-8.781a.174.174 0 0 0 0-.298l-33.713-20.215z"/>
            </g>
            <g transform="translate(-208.644 -81.167)">
                <use fill="#F0F0F0" fill-opacity=".5" xlink:href="#r"/>
                <path stroke="#DBDCDF" stroke-width=".667" d="M329.53 129.28a.68.68 0 0 0-.7 0l-14.645 8.781a.174.174 0 0 0 0 .298l14.644 8.781a.68.68 0 0 0 .7 0l14.645-8.781a.174.174 0 0 0 0-.298l-14.645-8.78z"/>
            </g>
            <g transform="translate(-208.644 -81.167)">
                <use fill="#F0F0F0" fill-opacity=".5" xlink:href="#s"/>
                <path stroke="#DBDCDF" stroke-width=".667" d="M348.762 117.628a.68.68 0 0 0-.7 0l-14.644 8.781a.174.174 0 0 0 0 .298l33.713 20.215a.68.68 0 0 0 .7 0l14.644-8.781a.174.174 0 0 0 0-.298l-33.713-20.215z"/>
            </g>
            <g transform="translate(-208.644 -81.167)">
                <use fill="#F0F0F0" fill-opacity=".5" xlink:href="#t"/>
                <path stroke="#DBDCDF" stroke-width=".667" d="M348.256 140.426a.68.68 0 0 0-.7 0l-14.644 8.78a.174.174 0 0 0 0 .299l33.713 20.215a.68.68 0 0 0 .7 0l14.644-8.781a.174.174 0 0 0 0-.298l-33.713-20.215z"/>
            </g>
            <g transform="translate(-208.644 -81.167)">
                <use fill="#F0F0F0" fill-opacity=".5" xlink:href="#u"/>
                <path stroke="#DBDCDF" stroke-width=".667" d="M201.175 145.337a.68.68 0 0 0-.7 0l-14.644 8.78a.174.174 0 0 0 0 .298l14.644 8.782a.68.68 0 0 0 .7 0l14.645-8.782a.174.174 0 0 0 0-.297l-14.645-8.781z"/>
            </g>
            <g transform="translate(-208.644 -81.167)">
                <use fill="#F0F0F0" fill-opacity=".5" xlink:href="#v"/>
                <path stroke="#DBDCDF" stroke-width=".667" d="M239.64 145.337a.68.68 0 0 0-.7 0l-14.644 8.78a.174.174 0 0 0 0 .298l14.645 8.782a.68.68 0 0 0 .7 0l14.644-8.782a.174.174 0 0 0 0-.297l-14.645-8.781z"/>
            </g>
            <g transform="translate(-208.644 -81.167)">
                <use fill="#F0F0F0" fill-opacity=".5" xlink:href="#w"/>
                <path stroke="#DBDCDF" stroke-width=".667" d="M258.367 156.482a.68.68 0 0 0-.7 0l-14.644 8.781a.174.174 0 0 0 0 .298l14.644 8.781a.68.68 0 0 0 .7 0l14.644-8.781a.174.174 0 0 0 0-.298l-14.644-8.78z"/>
            </g>
            <g transform="translate(-208.644 -81.167)">
                <use fill="#F0F0F0" fill-opacity=".5" xlink:href="#x"/>
                <path stroke="#DBDCDF" stroke-width=".667" d="M205.56 172.003a.68.68 0 0 0-.7 0l-14.645 8.781a.174.174 0 0 0 0 .298l14.644 8.781a.68.68 0 0 0 .7 0l14.644-8.781a.174.174 0 0 0 0-.298l-14.644-8.78z"/>
            </g>
            <g transform="translate(-208.644 -81.167)">
                <use fill="#F0F0F0" fill-opacity=".5" xlink:href="#y"/>
                <path stroke="#DBDCDF" stroke-width=".667" d="M219.902 156.482a.68.68 0 0 0-.7 0l-14.644 8.781a.174.174 0 0 0 0 .298l33.713 20.215a.68.68 0 0 0 .7 0l14.644-8.78a.174.174 0 0 0 0-.298l-33.713-20.216z"/>
            </g>
            <g transform="translate(-208.644 -81.167)">
                <use fill="#F0F0F0" fill-opacity=".5" xlink:href="#z"/>
                <path stroke="#DBDCDF" stroke-width=".667" d="M201.681 122.539a.68.68 0 0 0-.7 0l-14.644 8.78a.174.174 0 0 0 0 .298l33.713 20.216a.68.68 0 0 0 .7 0l14.644-8.781a.174.174 0 0 0 0-.298l-33.713-20.215z"/>
            </g>
            <g transform="translate(-208.644 -81.167)">
                <use fill="#F0F0F0" fill-opacity=".5" xlink:href="#A"/>
                <path stroke="#DBDCDF" stroke-width=".667" d="M258.873 179.28a.68.68 0 0 0-.7 0l-14.644 8.781a.174.174 0 0 0 0 .298l14.644 8.781a.68.68 0 0 0 .7 0l14.644-8.781a.174.174 0 0 0 0-.298l-14.644-8.78z"/>
            </g>
            <g transform="translate(-208.644 -81.167)">
                <use fill="#F0F0F0" fill-opacity=".5" xlink:href="#B"/>
                <path stroke="#DBDCDF" stroke-width=".667" d="M278.106 167.628a.68.68 0 0 0-.7 0l-14.645 8.781a.174.174 0 0 0 0 .298l33.713 20.215a.68.68 0 0 0 .7 0l14.645-8.781a.174.174 0 0 0 0-.298l-33.713-20.215z"/>
            </g>
            <g transform="translate(-208.644 -81.167)">
                <use fill="#F0F0F0" fill-opacity=".5" xlink:href="#C"/>
                <path stroke="#DBDCDF" stroke-width=".667" d="M286.003 57.702a.68.68 0 0 0-.7 0l-14.644 8.782a.174.174 0 0 0 0 .297l33.713 20.216a.68.68 0 0 0 .7 0l14.644-8.782a.174.174 0 0 0 0-.297l-33.713-20.216z"/>
            </g>
            <g transform="translate(-208.644 -81.167)">
                <use fill="#F0F0F0" fill-opacity=".5" xlink:href="#D"/>
                <path stroke="#DBDCDF" stroke-width=".667" d="M324.974 80.5a.68.68 0 0 0-.7 0l-14.644 8.781a.174.174 0 0 0 0 .298l14.644 8.781a.68.68 0 0 0 .7 0l14.644-8.78a.174.174 0 0 0 0-.299l-14.644-8.78z"/>
            </g>
            <g transform="translate(-208.644 -81.167)">
                <use fill="#F0F0F0" fill-opacity=".5" xlink:href="#E"/>
                <path stroke="#DBDCDF" stroke-width=".667" d="M344.207 68.848a.68.68 0 0 0-.7 0l-14.644 8.781a.174.174 0 0 0 0 .298l33.713 20.215a.68.68 0 0 0 .7 0l14.644-8.781a.174.174 0 0 0 0-.298l-33.713-20.215z"/>
            </g>
            <g transform="translate(-208.644 -81.167)">
                <use fill="#F0F0F0" fill-opacity=".5" xlink:href="#F"/>
                <path stroke="#DBDCDF" stroke-width=".667" d="M343.7 91.646a.68.68 0 0 0-.7 0l-14.644 8.781a.174.174 0 0 0 0 .298l33.714 20.215a.68.68 0 0 0 .7 0l14.644-8.781a.174.174 0 0 0 0-.298L343.7 91.646z"/>
            </g>
        </g>
        <g mask="url(#b)">
            <g transform="translate(33 27)">
                <use fill="#000" filter="url(#G)" xlink:href="#H"/>
                <use fill="url(#I)" xlink:href="#H"/>
            </g>
            <path fill="#ED8E3D" d="M70.02 28.76l33.42 20.284v6.589a.507.507 0 0 1-.247.435L69.017 76.437a1 1 0 0 1-.383.132l-.153.02V29.626a1.014 1.014 0 0 1 1.54-.866z"/>
            <path fill="url(#J)" d="M36.006 1.15l34.445 20.905-34.454 20.396a1.014 1.014 0 0 1-1.033 0L.484 22.055 34.954 1.15a1.014 1.014 0 0 1 1.052 0z" transform="translate(33 27)"/>
        </g>
    </g>
</svg>
