<svg width="131" height="40" viewBox="0 0 131 40" fill="none" xmlns="http://www.w3.org/2000/svg">
<path d="M12.3258 8.43094C12.1644 8.40789 11.9984 8.42633 11.8462 8.46783L22.7649 19.3865L25.4946 16.6937L12.7684 8.61538C12.6163 8.51855 12.4872 8.454 12.3258 8.43094ZM10.9978 9.31624C10.9702 9.41307 10.9609 9.50529 10.9609 9.61134V30.8585C10.9609 30.9646 10.9702 31.0568 10.9978 31.1536L21.9165 20.2349L10.9978 9.31624ZM26.4906 17.3208L23.6134 20.2349L26.4906 23.1491L29.4785 21.2309C30.1978 20.7652 30.1978 19.7047 29.4785 19.239L26.4906 17.3208ZM22.7649 21.0834L11.8462 32.0021C12.1506 32.0851 12.4641 32.0482 12.7684 31.8545L25.4946 23.7761L22.7649 21.0834Z" fill="white"/>
<path fill-rule="evenodd" clip-rule="evenodd" d="M68.1311 13.2201C67.5366 13.8301 66.801 14.1301 65.9142 14.1301C65.0274 14.1301 64.2918 13.8301 63.6973 13.2201C63.1027 12.6101 62.8105 11.8701 62.8105 11.0001C62.8105 10.1301 63.1027 9.38012 63.6973 8.78012C64.2918 8.17012 65.0274 7.87012 65.9142 7.87012C66.7909 7.87012 67.5265 8.17012 68.1311 8.78012C68.7257 9.39012 69.028 10.1301 69.028 11.0001C69.0179 11.8801 68.7257 12.6201 68.1311 13.2201ZM64.2717 12.7201C64.715 13.1701 65.2693 13.3901 65.9142 13.3901C66.5591 13.3901 67.1133 13.1701 67.5567 12.7201C68.0001 12.2701 68.2319 11.7001 68.2319 11.0001C68.2319 10.3001 68.0102 9.73012 67.5567 9.28012C67.1133 8.83012 66.5591 8.61012 65.9142 8.61012C65.2693 8.61012 64.715 8.83012 64.2717 9.28012C63.8283 9.73012 63.5965 10.3001 63.5965 11.0001C63.5965 11.7001 63.8283 12.2701 64.2717 12.7201ZM41.7388 11.2408C41.7388 12.0808 41.4868 12.7508 40.983 13.2408C40.4187 13.8308 39.673 14.1308 38.7661 14.1308C37.8894 14.1308 37.1538 13.8308 36.5391 13.2308C35.9244 12.6308 35.6221 11.8808 35.6221 11.0008C35.6221 10.1108 35.9244 9.37075 36.5391 8.77075C37.1538 8.17075 37.8894 7.87075 38.7661 7.87075C39.1994 7.87075 39.6125 7.95075 40.0055 8.12075C40.3985 8.29075 40.7109 8.51075 40.9528 8.79075L40.4187 9.32075C40.0156 8.85075 39.4715 8.61075 38.7661 8.61075C38.1312 8.61075 37.577 8.83075 37.1135 9.28075C36.6499 9.72075 36.4181 10.3008 36.4181 11.0108C36.4181 11.7208 36.6499 12.3008 37.1135 12.7408C37.577 13.1808 38.1312 13.4108 38.7661 13.4108C39.4412 13.4108 40.0055 13.1908 40.459 12.7408C40.7512 12.4508 40.9225 12.0408 40.9628 11.5208H38.7661V10.8008H41.6985C41.7186 10.9508 41.7388 11.1008 41.7388 11.2408ZM46.3843 8.73899H43.6333V10.639H46.1123V11.359H43.6333V13.259H46.3843V13.999H42.8574V7.99899H46.3843V8.73899ZM48.8837 13.999H49.6495V8.73899H51.3424V7.99899H47.1907V8.73899H48.8837V13.999ZM54.3551 13.999V7.99899H55.1311V13.999H54.3551ZM57.8023 13.999H58.5682V8.73899H60.2611V7.99899H56.1094V8.73899H57.8023V13.999ZM70.1164 7.99899V13.999H70.9024V10.269L70.8722 9.10899H70.9024L73.9759 13.999H74.782V7.99899H74.0061V11.509L74.0363 12.669H74.0061L71.0636 7.99899H70.1164Z" fill="white"/>
<path d="M62.6171 22.7498C60.249 22.7498 58.3142 24.5398 58.3142 26.9998C58.3142 29.4498 60.249 31.2498 62.6171 31.2498C64.9851 31.2498 66.9199 29.4498 66.9199 26.9998C66.9199 24.5398 64.9851 22.7498 62.6171 22.7498ZM62.6171 29.5798C61.3171 29.5798 60.1986 28.5198 60.1986 26.9998C60.1986 25.4698 61.3171 24.4198 62.6171 24.4198C63.917 24.4198 65.0355 25.4698 65.0355 26.9998C65.0355 28.5198 63.9069 29.5798 62.6171 29.5798ZM53.2254 22.7498C50.8573 22.7498 48.9225 24.5398 48.9225 26.9998C48.9225 29.4498 50.8573 31.2498 53.2254 31.2498C55.5934 31.2498 57.5282 29.4498 57.5282 26.9998C57.5282 24.5398 55.5934 22.7498 53.2254 22.7498ZM53.2254 29.5798C51.9254 29.5798 50.8069 28.5198 50.8069 26.9998C50.8069 25.4698 51.9254 24.4198 53.2254 24.4198C54.5253 24.4198 55.6438 25.4698 55.6438 26.9998C55.6438 28.5198 54.5253 29.5798 53.2254 29.5798ZM42.0601 24.0598V25.8598H46.4134C46.2824 26.8698 45.9397 27.6198 45.4258 28.1298C44.791 28.7598 43.8034 29.4498 42.0702 29.4498C39.3897 29.4498 37.2937 27.3098 37.2937 24.6498C37.2937 21.9898 39.3897 19.8498 42.0702 19.8498C43.5112 19.8498 44.5693 20.4098 45.3452 21.1398L46.625 19.8698C45.5367 18.8398 44.0957 18.0498 42.0601 18.0498C38.3921 18.0498 35.3086 21.0098 35.3086 24.6598C35.3086 28.2998 38.3921 31.2698 42.0601 31.2698C44.0453 31.2698 45.5367 30.6298 46.7056 29.4198C47.9047 28.2298 48.2776 26.5498 48.2776 25.1998C48.2776 24.7798 48.2474 24.3898 48.1768 24.0698H42.0601V24.0598ZM87.7187 25.4598C87.366 24.5098 86.2777 22.7498 84.0507 22.7498C81.8438 22.7498 80.0098 24.4698 80.0098 26.9998C80.0098 29.3798 81.8237 31.2498 84.2623 31.2498C86.2273 31.2498 87.366 30.0598 87.8295 29.3698L86.3684 28.3998C85.8847 29.1098 85.2196 29.5798 84.2623 29.5798C83.305 29.5798 82.6197 29.1398 82.1864 28.2898L87.9202 25.9398L87.7187 25.4598ZM81.8741 26.8798C81.8237 25.2398 83.1538 24.3998 84.1111 24.3998C84.8568 24.3998 85.4917 24.7698 85.7033 25.2998L81.8741 26.8798ZM77.2185 30.9998H79.1029V18.4998H77.2185V30.9998ZM74.135 23.6998H74.0644C73.6412 23.1998 72.8351 22.7498 71.8072 22.7498C69.6608 22.7498 67.6958 24.6198 67.6958 27.0198C67.6958 29.3998 69.6608 31.2598 71.8072 31.2598C72.825 31.2598 73.6412 30.8098 74.0644 30.2898H74.1249V30.8998C74.1249 32.5298 73.2482 33.3998 71.8374 33.3998C70.6887 33.3998 69.9732 32.5798 69.681 31.8898L68.0384 32.5698C68.5121 33.6998 69.7616 35.0798 71.8374 35.0798C74.0443 35.0798 75.9085 33.7898 75.9085 30.6498V23.0098H74.1249V23.6998H74.135ZM71.9684 29.5798C70.6685 29.5798 69.5802 28.4998 69.5802 27.0198C69.5802 25.5198 70.6685 24.4298 71.9684 24.4298C73.2482 24.4298 74.2559 25.5298 74.2559 27.0198C74.266 28.4998 73.2583 29.5798 71.9684 29.5798ZM96.5461 18.4998H92.0417V30.9998H93.9261V26.2598H96.5561C98.6421 26.2598 100.688 24.7598 100.688 22.3798C100.688 19.9998 98.6219 18.4998 96.5461 18.4998ZM96.5864 24.5198H93.916V20.2298H96.5864C97.9971 20.2298 98.7932 21.3898 98.7932 22.3698C98.7932 23.3498 97.9971 24.5198 96.5864 24.5198ZM108.215 22.7298C106.855 22.7298 105.444 23.3298 104.86 24.6398L106.532 25.3298C106.885 24.6398 107.55 24.4098 108.245 24.4098C109.213 24.4098 110.21 24.9898 110.22 26.0198V26.1498C109.878 25.9598 109.152 25.6698 108.255 25.6698C106.452 25.6698 104.628 26.6498 104.628 28.4798C104.628 30.1498 106.099 31.2298 107.752 31.2298C109.011 31.2298 109.717 30.6698 110.15 30.0098H110.21V30.9798H112.024V26.1898C112.034 23.9698 110.362 22.7298 108.215 22.7298ZM107.983 29.5798C107.369 29.5798 106.512 29.2698 106.512 28.5198C106.512 27.5598 107.58 27.1898 108.507 27.1898C109.334 27.1898 109.727 27.3698 110.22 27.6098C110.079 28.7598 109.072 29.5798 107.983 29.5798ZM118.645 22.9998L116.488 28.4198H116.428L114.191 22.9998H112.165L115.521 30.5798L113.606 34.7898H115.571L120.741 22.9998H118.645ZM101.716 30.9998H103.6V18.4998H101.716V30.9998Z" fill="white"/>
</svg>
