<svg width="16px" height="19px" viewBox="0 0 16 19" version="1.1" xmlns="http://www.w3.org/2000/svg" xmlns:xlink="http://www.w3.org/1999/xlink">
    <g id="Directory-" stroke="none" stroke-width="1" fill="none" fill-rule="evenodd">
        <g id="Directory-»-Channels" transform="translate(-80.000000, -161.000000)">
            <g id="Bitmap" transform="translate(63.000000, 0.000000)">
                <g id="Group-6">
                    <g transform="translate(1.000000, 105.000000)">
                        <g id="Group-51" transform="translate(0.000000, 44.000000)">
                            <g id="Group-7" transform="translate(16.000000, 12.000000)">
                                <path d="M7.79580952,0 C3.49003175,0 0,3.48495238 0,7.78412698 C0,12.0502857 3.43669841,15.511873 7.69625397,15.5657143 L7.69625397,17.9580952 C7.69625397,18.1688889 7.86692063,18.3390476 8.07720635,18.3390476 C8.17828571,18.3390476 8.27479365,18.2989206 8.3464127,18.2283175 L13.024,13.5583492 C14.6011429,12.1351111 15.592127,10.0749206 15.592127,7.78412698 C15.592127,3.48495238 12.1015873,0 7.79580952,0" id="Fill-3" fill="#BCC3CC"></path>
                                <path d="M11.7228698,5.86778413 L11.4622984,6.93089524 C11.4409651,7.00708571 11.393219,7.04467302 11.3185524,7.04467302 L9.8008381,7.04467302 L9.50369524,8.26016508 L10.9477587,8.26016508 C10.993473,8.26016508 11.0325841,8.27895873 11.0635683,8.31705397 C11.0945524,8.36124444 11.1036952,8.40543492 11.0915048,8.4496254 L10.8314413,9.51324444 C10.8156952,9.58892698 10.7679492,9.62702222 10.6871873,9.62702222 L9.16947302,9.62702222 L8.79309206,11.1838476 C8.77125079,11.2600381 8.72350476,11.2981333 8.64934603,11.2981333 L7.60909206,11.2981333 C7.55982222,11.2981333 7.51969524,11.2788317 7.48871111,11.2412444 C7.4607746,11.2026413 7.45163175,11.1589587 7.4607746,11.1081651 L7.82293333,9.62702222 L6.64350476,9.62702222 L6.26763175,11.1838476 C6.24629841,11.2600381 6.19804444,11.2981333 6.12388571,11.2981333 L5.07906032,11.2981333 C5.0328381,11.2981333 4.99372698,11.2788317 4.96274286,11.2412444 C4.93531429,11.2026413 4.92617143,11.1589587 4.93531429,11.1081651 L5.29747302,9.62702222 L3.85340952,9.62702222 C3.8071873,9.62702222 3.76807619,9.60822857 3.7376,9.57013333 C3.70966349,9.5320381 3.70052063,9.48784762 3.70966349,9.43705397 L3.96972698,8.37394286 C3.99106032,8.29826032 4.03931429,8.26016508 4.11347302,8.26016508 L5.63169524,8.26016508 L5.9288381,7.04467302 L4.4847746,7.04467302 C4.43855238,7.04467302 4.39994921,7.02587937 4.36845714,6.98778413 C4.33798095,6.94359365 4.32833016,6.89940317 4.34102857,6.85470476 L4.60109206,5.79159365 C4.61633016,5.71591111 4.66458413,5.67781587 4.7448381,5.67781587 L6.26306032,5.67781587 L6.63893333,4.12099048 C6.6607746,4.0448 6.71004444,4.00670476 6.78725079,4.00670476 L7.82750476,4.00670476 C7.87423492,4.00670476 7.9128381,4.02600635 7.94382222,4.06410159 C7.97125079,4.10168889 7.98090159,4.1463873 7.97125079,4.19667302 L7.60909206,5.67781587 L8.78852063,5.67781587 L9.16490159,4.12099048 C9.18623492,4.0448 9.2360127,4.00670476 9.31321905,4.00670476 L10.353473,4.00670476 C10.3996952,4.00670476 10.4382984,4.02600635 10.4692825,4.06410159 C10.497219,4.10168889 10.505854,4.1463873 10.497219,4.19667302 L10.1350603,5.67781587 L11.5786159,5.67781587 C11.625346,5.67781587 11.6639492,5.69711746 11.6944254,5.73470476 C11.7228698,5.7728 11.7320127,5.81699048 11.7228698,5.86778413 Z M8.15715556,8.26016508 L8.45429841,7.04467302 L7.27486984,7.04467302 L6.97772698,8.26016508 L8.15715556,8.26016508 Z" id="Fill-5" fill="#F9F9F9"></path>
                            </g>
                        </g>
                    </g>
                </g>
            </g>
        </g>
    </g>
</svg>