<?xml version="1.0" encoding="utf-8"?>
<!-- Generator: Adobe Illustrator 22.1.0, SVG Export Plug-In . SVG Version: 6.00 Build 0)  -->
<svg version="1.1" id="Слой_1" xmlns="http://www.w3.org/2000/svg" xmlns:xlink="http://www.w3.org/1999/xlink" x="0px" y="0px"
	 viewBox="0 0 18 15" width="18" height="15" style="enable-background:new 0 0 18 15;" xml:space="preserve">
<path d="M15.1,9.4c-0.3,0-0.6,0.1-0.8,0.1l-3.1-4.8C11.7,4.2,12,3.6,12,2.8C12,1.3,10.7,0,9,0C7.4,0,6.1,1.3,6.1,2.8
	c0,0.7,0.3,1.4,0.8,1.9L3.8,9.5C3.5,9.4,3.2,9.4,2.9,9.4C1.3,9.4,0,10.6,0,12.2S1.3,15,2.9,15c1.3,0,2.4-0.9,2.8-2h6.5
	c0.4,1.2,1.5,2,2.8,2c1.6,0,2.9-1.3,2.9-2.8S16.7,9.4,15.1,9.4z M5.1,10.3l3.1-4.8C8.5,5.6,8.8,5.6,9,5.6c0.3,0,0.5,0,0.8-0.1
	l3.1,4.8c-0.3,0.3-0.6,0.7-0.7,1.2H5.8C5.6,11,5.4,10.7,5.1,10.3z"/>
</svg>
