<?xml version="1.0" encoding="utf-8"?>
<!-- Generator: Adobe Illustrator 22.1.0, SVG Export Plug-In . SVG Version: 6.00 Build 0)  -->
<svg version="1.1" id="Слой_1" xmlns="http://www.w3.org/2000/svg" xmlns:xlink="http://www.w3.org/1999/xlink" x="0px" y="0px"
	 viewBox="0 0 18 13" width="18" height="13" style="enable-background:new 0 0 18 13;" xml:space="preserve">
<g>
	<path d="M14,6.2c1.5,0,2.7-1.1,2.7-2.5S15.5,1.2,14,1.2s-2.7,1.1-2.7,2.5S12.6,6.2,14,6.2z"/>
	<path d="M18,10.8c-0.6-1.9-2.1-3.3-4.3-3.3l0,0c-1.3,0-2.1,0.5-2.9,1.2c0.8,0.9,1.4,2.1,1.7,3.3H17c0.6,0,1-0.4,1-0.9
		C18,10.9,18,10.8,18,10.8z"/>
	<path d="M5.3,7.3c-2.8,0-4.5,1.8-5.2,4.2c-0.2,0.6,0.2,1.3,0.9,1.4c0.1,0,0.2,0,0.3,0h8.1c0.6,0,1.2-0.5,1.2-1.1c0-0.1,0-0.2,0-0.2
		C9.9,9.2,8.1,7.3,5.3,7.3z"/>
	<path d="M5.3,6.3c1.9,0,3.4-1.4,3.4-3.1C8.6,1.4,7.1,0,5.3,0S1.9,1.4,1.9,3.1C1.9,4.9,3.4,6.3,5.3,6.3z"/>
</g>
</svg>
