<svg xmlns="http://www.w3.org/2000/svg" width="18" height="13" viewBox="0 0 18 13">
    <g fill="#BCC3CC" fill-rule="nonzero">
        <ellipse cx="13.961" cy="3.671" rx="2.627" ry="2.447"/>
        <path d="M13.56 7.33c-1.237 0-2.047.457-2.893 1.178a6.968 6.968 0 0 1 1.65 3.273h4.537c.546 0 .989-.41.989-.917 0-.08-.012-.16-.034-.238-.546-1.889-2.048-3.295-4.248-3.295zM5.329 7.255C2.554 7.255.886 9.01.203 11.393c-.176.614.216 1.243.877 1.406.104.026.21.039.318.039h7.99c.629 0 1.137-.473 1.137-1.055a.984.984 0 0 0-.03-.244c-.63-2.457-2.335-4.284-5.166-4.284z"/>
        <ellipse cx="5.329" cy="3.124" rx="3.308" ry="3.08"/>
    </g>
</svg>
