<?xml version="1.0" encoding="UTF-8"?>
<svg width="62px" height="62px" viewBox="0 0 62 62" version="1.1" xmlns="http://www.w3.org/2000/svg" xmlns:xlink="http://www.w3.org/1999/xlink">
    <!-- Generator: sketchtool 51 (57462) - http://www.bohemiancoding.com/sketch -->
    <title>79C12A12-448B-4D70-B418-14519C6D1EA7</title>
    <desc>Created with sketchtool.</desc>
    <defs></defs>
    <g id="Organizations" stroke="none" stroke-width="1" fill="none" fill-rule="evenodd">
        <g id="Organizations/no-results" transform="translate(-846.000000, -381.000000)">
            <g id="Group-7" transform="translate(401.000000, 297.000000)">
                <g id="overview">
                    <g id="Combined-Shape">
                        <g id="Group-16" transform="translate(259.000000, 85.000000)">
                            <g id="Group-14" transform="translate(151.000000, 0.000000)">
                                <g id="Group-5">
                                    <g id="img_profile_1" transform="translate(36.000000, 0.000000)">
                                        <path d="M55.0829519,29.759303 C55.0829519,43.2556162 44.1738719,54.1958649 30.7160098,54.1958649 C17.2593661,54.1958649 6.34906778,43.2556162 6.34906778,29.759303 C6.34906778,16.2642117 17.2593661,5.32274116 30.7160098,5.32274116 C44.1738719,5.32274116 55.0829519,16.2642117 55.0829519,29.759303" id="Fill-215" fill="#654BFA" opacity="0.100000001"></path>
                                        <path d="M30.4886949,11.6186818 C40.901615,11.6186818 49.3408992,20.0600611 49.3408992,30.4729812 C49.3408992,40.8848538 40.901615,49.3272807 30.4886949,49.3272807 C20.0747272,49.3272807 11.6323003,40.8848538 11.6323003,30.4729812 C11.6323003,20.0600611 20.0747272,11.6186818 30.4886949,11.6186818" id="Fill-179" fill="#FFFFFE"></path>
                                        <g id="Group" transform="translate(12.000000, 20.000000)" fill="#9381FA" stroke="#9381FA">
                                            <path d="M13.205673,3.62797703 C11.20565,5.38014324 10.1851919,7.82843108 10.1845676,10.2948243 C10.1845676,12.3663324 10.90535,14.4428351 12.3771946,16.125077 C14.1284243,18.1238514 16.5770243,19.1449338 19.0427932,19.1455581 C21.11555,19.1449338 23.1920527,18.4241514 24.8733581,16.9523068 C26.8730689,15.1998284 27.893527,12.7518527 27.8941514,10.2867081 C27.893527,8.21457568 27.1733689,6.13807297 25.7009,4.45676757 C23.9487338,2.45580811 21.5010703,1.43535 19.0353014,1.43472568 C16.9637932,1.43535 14.8872905,2.15613243 13.205673,3.62797703 Z M19.0427932,20.2381257 C16.2770365,20.23875 13.5203324,19.0881203 11.5552716,16.8446108 C9.90362162,14.958527 9.09137568,12.6188716 9.092,10.2948243 C9.09075135,7.52844324 10.2413811,4.77236351 12.4864514,2.80636622 C14.3715986,1.15471622 16.7106297,0.341533784 19.0353014,0.342158108 C21.8010581,0.341533784 24.5571378,1.49153919 26.5234473,3.73723378 C28.1750973,5.62269324 28.9873432,7.96234865 28.9867189,10.2867081 C28.9873432,13.0518405 27.8373378,15.8079203 25.5935162,17.7742297 C23.7083689,19.4252554 21.3699622,20.2381257 19.0456027,20.2381257 C19.0446662,20.2381257 19.0437297,20.2381257 19.0427932,20.2381257 Z" id="Fill-216"></path>
                                            <polyline id="Fill-217" points="8.2330973 19.1519459 10.6061541 17.0735703 11.3266243 17.8954932 8.95294324 19.9738689 8.2330973 19.1519459"></polyline>
                                            <path d="M0.890731081,24.266723 L0.891043243,24.2664108 L0.891355405,24.266723 L0.890731081,24.266723 Z M9.38403919,20.9122284 L7.36060405,18.6003554 L3.38134766,22.1876452 L2.84790039,21.0146176 L7.46299324,17.0588986 L10.9258081,21.0146176 L7.21263919,24.266723 L6.49248108,23.4441757 L9.38403919,20.9122284 Z" id="Fill-218"></path>
                                        </g>
                                        <path d="M30.4886949,11.6186818 C40.901615,11.6186818 49.3408992,20.0600611 49.3408992,30.4729812 C49.3408992,40.8848538 40.901615,49.3272807 30.4886949,49.3272807 C20.0747272,49.3272807 11.6323003,40.8848538 11.6323003,30.4729812 C11.6323003,20.0600611 20.0747272,11.6186818 30.4886949,11.6186818 Z" id="Stroke-180" stroke="#9381FA" stroke-width="2.09515495"></path>
                                        <path d="M28.7601921,0.0995198603 C12.2807508,0.766826713 -0.537407246,14.6681798 0.129899607,31.1476211 C0.158184199,31.8474029 0.218943693,32.538804 0.294369271,33.2249673 M41.9649062,2.58646879 C52.0824094,7.03343518 59.330598,16.9435181 59.8082933,28.7298123 C60.0282846,34.1656918 58.7732868,39.3176779 56.4109996,43.8096901 M47.6584897,54.0026189 C43.0250546,57.4145788 37.358708,59.5275426 31.1769533,59.7779136 C20.1344391,60.2252292 10.2557835,54.6112615 4.7350502,45.9027499 M11.858577,13.5870799 C2.76141423,23.452117 3.38367525,38.8253165 13.2497599,47.9224793 C13.6687909,48.3090354 14.1014404,48.6714972 14.5393278,49.0234832" id="Stroke-181" stroke="#654BFA" stroke-width="2.09515495" opacity="0.700000048" stroke-linecap="round"></path>
                                    </g>
                                </g>
                            </g>
                        </g>
                    </g>
                </g>
            </g>
        </g>
    </g>
</svg>