<?xml version="1.0" encoding="UTF-8"?>
<svg width="678px" height="200px" viewBox="0 0 678 200" version="1.1" xmlns="http://www.w3.org/2000/svg" xmlns:xlink="http://www.w3.org/1999/xlink">
    <!-- Generator: Sketch 50.2 (55047) - http://www.bohemiancoding.com/sketch -->
    <title>logotype</title>
    <desc>Created with Sketch.</desc>
    <defs></defs>
    <g id="logotype" stroke="none" stroke-width="1" fill="none" fill-rule="evenodd">
        <g id="Logotype" transform="translate(20.000000, 20.000000)">
            <g id="Logo" transform="translate(13.000000, 0.000000)" fill="#522BFF">
                <path d="M81.4145324,32.414566 L116.281454,53.3347189 L79.9178175,75.1529007 L43.5541811,53.3347189 L78.4211025,32.414566 C79.3423604,31.8618113 80.4932745,31.8618113 81.4145324,32.414566 Z" id="Mask"></path>
                <path d="M123.554181,58.4235496 L155.760276,77.7472066 C157.137964,78.5738194 157.584699,80.3607583 156.758086,81.7384464 C156.512414,82.1478998 156.169729,82.4905843 155.760276,82.7362563 L123.554181,102.059913 L87.1905447,80.2417315 L123.554181,58.4235496 Z" id="Mask"></path>
                <path d="M36.5280014,58.4235496 L116.528001,106.42355 L81.66108,127.343703 C80.7398222,127.896457 79.588908,127.896457 78.6676502,127.343703 L4.32190654,82.7362563 C2.94421849,81.9096435 2.49748376,80.1227046 3.32409659,78.7450165 C3.56976862,78.3355631 3.91245314,77.9928786 4.32190654,77.7472066 L36.5280014,58.4235496 Z" id="Mask"></path>
            </g>
            <path d="M261.527832,82.8959961 C261.527832,79.5356277 260.914801,76.341812 259.688721,73.3144531 C258.46264,70.2870942 256.69923,67.5927852 254.398438,65.2314453 C252.158192,62.900379 249.562271,61.1066957 246.610596,59.8503418 C243.658921,58.5939879 240.548356,57.9658203 237.278809,57.9658203 C234.009261,57.9658203 230.898696,58.5864196 227.947021,59.8276367 C224.995347,61.0688539 222.369152,62.8701054 220.068359,65.2314453 C217.767567,67.5625117 216.011725,70.2416841 214.800781,73.269043 C213.589838,76.2964019 212.984375,79.5053541 212.984375,82.8959961 C212.984375,86.2563645 213.589838,89.4350436 214.800781,92.4321289 C216.011725,95.4292142 217.767567,98.1083866 220.068359,100.469727 C222.369152,102.831066 224.987778,104.632318 227.924316,105.873535 C230.860855,107.114752 233.978987,107.735352 237.278809,107.735352 C240.518083,107.735352 243.598374,107.114752 246.519775,105.873535 C249.441177,104.632318 252.067371,102.831066 254.398438,100.469727 C256.69923,98.1083866 258.46264,95.4216459 259.688721,92.4094238 C260.914801,89.3972017 261.527832,86.2260909 261.527832,82.8959961 Z M272.789551,82.8959961 C272.789551,87.618676 271.904062,92.0839633 270.133057,96.2919922 C268.362052,100.500021 265.781267,104.25389 262.390625,107.553711 C258.969709,110.853532 255.109885,113.381339 250.811035,115.137207 C246.512186,116.893075 242.001488,117.770996 237.278809,117.770996 C232.495582,117.770996 227.931906,116.885507 223.587646,115.114502 C219.243386,113.343497 215.406267,110.823259 212.076172,107.553711 C208.68553,104.25389 206.112313,100.515158 204.356445,96.3374023 C202.600577,92.1596471 201.722656,87.6792231 201.722656,82.8959961 C201.722656,78.1430426 202.600577,73.6626187 204.356445,69.4545898 C206.112313,65.246561 208.68553,61.4775557 212.076172,58.1474609 C215.466814,54.8476398 219.311502,52.3349696 223.610352,50.609375 C227.909201,48.8837804 232.465308,48.0209961 237.278809,48.0209961 C242.062036,48.0209961 246.595438,48.8837804 250.87915,50.609375 C255.162863,52.3349696 258.999983,54.8476398 262.390625,58.1474609 C265.781267,61.5078293 268.362052,65.2995394 270.133057,69.5227051 C271.904062,73.7458707 272.789551,78.2035898 272.789551,82.8959961 Z M293.905273,94.3393555 C293.905273,98.789573 295.017811,102.346666 297.24292,105.010742 C299.468029,107.674818 302.396954,109.006836 306.029785,109.006836 C309.753437,109.006836 312.636953,107.765637 314.68042,105.283203 C316.723887,102.800769 317.745605,99.2739486 317.745605,94.7026367 C317.745605,90.1615984 316.678477,86.6120733 314.544189,84.0539551 C312.409901,81.4958368 309.480976,80.2167969 305.757324,80.2167969 C302.033673,80.2167969 299.127452,81.4579954 297.038574,83.9404297 C294.949697,86.422864 293.905273,89.8891379 293.905273,94.3393555 Z M284.369141,136.25293 L284.369141,72.9511719 L294.223145,72.9511719 L294.223145,79.9897461 C295.373541,77.2651231 297.212634,75.1611402 299.740479,73.6777344 C302.268323,72.1943285 305.288068,71.4526367 308.799805,71.4526367 C314.521513,71.4526367 319.160871,73.5641879 322.718018,77.7873535 C326.275164,82.0105192 328.053711,87.5580711 328.053711,94.4301758 C328.053711,101.665564 326.305437,107.364481 322.808838,111.5271 C319.312238,115.689718 314.521515,117.770996 308.436523,117.770996 C305.409165,117.770996 302.722424,117.165533 300.376221,115.95459 C298.030018,114.743646 295.979013,112.896985 294.223145,110.414551 L294.223145,136.25293 L284.369141,136.25293 Z M379.95752,95.9287109 L345.536621,95.9287109 C345.77881,99.9550983 346.974599,103.095936 349.124023,105.351318 C351.273448,107.606701 354.134259,108.734375 357.706543,108.734375 C360.88527,108.734375 363.534169,108.068366 365.65332,106.736328 C367.772472,105.40429 369.619133,103.254898 371.193359,100.288086 L379.503418,104.919922 C377.081531,109.249045 374.084491,112.473134 370.512207,114.592285 C366.939924,116.711436 362.747094,117.770996 357.933594,117.770996 C351.031215,117.770996 345.536642,115.667013 341.449707,111.458984 C337.362773,107.250956 335.319336,101.635289 335.319336,94.6118164 C335.319336,87.8608061 337.430887,82.3132541 341.654053,77.9689941 C345.877218,73.6247341 351.303678,71.4526367 357.933594,71.4526367 C364.866246,71.4526367 370.27,73.435527 374.14502,77.4013672 C378.020039,81.3672073 379.95752,86.9223276 379.95752,94.0668945 L379.95752,95.9287109 Z M369.740234,89.2988281 C369.346678,86.2109221 368.166025,83.8571858 366.198242,82.2375488 C364.230459,80.6179118 361.53615,79.8081055 358.115234,79.8081055 C354.87596,79.8081055 352.272471,80.595207 350.304688,82.1694336 C348.336904,83.7436602 346.959477,86.1201013 346.172363,89.2988281 L369.740234,89.2988281 Z M390.220215,116 L390.220215,72.9511719 L399.483887,72.9511719 L399.483887,79.9897461 C401.45167,77.0229344 403.767565,74.8584052 406.431641,73.4960938 C409.095716,72.1337823 412.334942,71.4526367 416.149414,71.4526367 C419.358414,71.4526367 422.090565,71.9597117 424.345947,72.973877 C426.60133,73.9880422 428.36474,75.4941306 429.63623,77.4921875 C430.39307,78.6728575 430.937987,80.0502851 431.270996,81.6245117 C431.604006,83.1987383 431.770508,85.9535936 431.770508,89.8891602 L431.770508,116 L421.825684,116 L421.825684,93.8852539 C421.825684,88.2240928 421.13697,84.4626558 419.759521,82.6008301 C418.382073,80.7390044 415.937518,79.8081055 412.425781,79.8081055 C410.124988,79.8081055 408.073984,80.2319294 406.272705,81.0795898 C404.471427,81.9272503 403.056157,83.1230392 402.026855,84.6669922 C401.300289,85.6962942 400.793214,87.0207439 400.505615,88.6403809 C400.218016,90.2600179 400.074219,92.8408026 400.074219,96.3828125 L400.074219,116 L390.220215,116 Z M445.348145,116 L445.348145,45.6142578 L455.202148,45.6142578 L455.202148,116 L445.348145,116 Z M509.785156,116 L499.931152,116 L499.931152,110.414551 C498.175284,112.896985 496.124279,114.743646 493.778076,115.95459 C491.431873,117.165533 488.745132,117.770996 485.717773,117.770996 C479.632782,117.770996 474.842058,115.689718 471.345459,111.5271 C467.848859,107.364481 466.100586,101.665564 466.100586,94.4301758 C466.100586,87.5580711 467.886701,82.0105192 471.458984,77.7873535 C475.031268,73.5641879 479.693331,71.4526367 485.445312,71.4526367 C488.957049,71.4526367 491.961657,72.1867602 494.459229,73.6550293 C496.9568,75.1232984 498.780756,77.2348495 499.931152,79.9897461 L499.931152,72.9511719 L509.785156,72.9511719 L509.785156,116 Z M500.203613,94.3393555 C500.203613,89.8891379 499.166758,86.422864 497.093018,83.9404297 C495.019277,81.4579954 492.120624,80.2167969 488.396973,80.2167969 C484.673321,80.2167969 481.744395,81.4958368 479.610107,84.0539551 C477.475819,86.6120733 476.408691,90.1615984 476.408691,94.7026367 C476.408691,99.2739486 477.437978,102.800769 479.496582,105.283203 C481.555186,107.765637 484.461407,109.006836 488.215332,109.006836 C491.757342,109.006836 494.640858,107.659681 496.865967,104.965332 C499.091076,102.270983 500.203613,98.7290259 500.203613,94.3393555 Z M523.408203,116 L523.408203,72.9511719 L532.671875,72.9511719 L532.671875,79.9897461 C534.639658,77.0229344 536.955553,74.8584052 539.619629,73.4960938 C542.283705,72.1337823 545.52293,71.4526367 549.337402,71.4526367 C552.546403,71.4526367 555.278553,71.9597117 557.533936,72.973877 C559.789318,73.9880422 561.552728,75.4941306 562.824219,77.4921875 C563.581058,78.6728575 564.125975,80.0502851 564.458984,81.6245117 C564.791994,83.1987383 564.958496,85.9535936 564.958496,89.8891602 L564.958496,116 L555.013672,116 L555.013672,93.8852539 C555.013672,88.2240928 554.324958,84.4626558 552.94751,82.6008301 C551.570061,80.7390044 549.125506,79.8081055 545.61377,79.8081055 C543.312977,79.8081055 541.261972,80.2319294 539.460693,81.0795898 C537.659415,81.9272503 536.244146,83.1230392 535.214844,84.6669922 C534.488278,85.6962942 533.981203,87.0207439 533.693604,88.6403809 C533.406004,90.2600179 533.262207,92.8408026 533.262207,96.3828125 L533.262207,116 L523.408203,116 Z M609.006348,94.3393555 C609.006348,89.8891379 607.969493,86.422864 605.895752,83.9404297 C603.822011,81.4579954 600.923358,80.2167969 597.199707,80.2167969 C593.476056,80.2167969 590.54713,81.4958368 588.412842,84.0539551 C586.278554,86.6120733 585.211426,90.1615984 585.211426,94.7026367 C585.211426,99.2739486 586.240712,102.800769 588.299316,105.283203 C590.35792,107.765637 593.264141,109.006836 597.018066,109.006836 C600.59035,109.006836 603.481434,107.66725 605.691406,104.988037 C607.901378,102.308824 609.006348,98.7592994 609.006348,94.3393555 Z M608.733887,45.6142578 L618.587891,45.6142578 L618.587891,116 L608.733887,116 L608.733887,110.414551 C606.978019,112.896985 604.927014,114.743646 602.580811,115.95459 C600.234607,117.165533 597.547867,117.770996 594.520508,117.770996 C588.435516,117.770996 583.644793,115.689718 580.148193,111.5271 C576.651594,107.364481 574.90332,101.665564 574.90332,94.4301758 C574.90332,87.5580711 576.689435,82.0105192 580.261719,77.7873535 C583.834002,73.5641879 588.496065,71.4526367 594.248047,71.4526367 C597.759783,71.4526367 600.764392,72.1867602 603.261963,73.6550293 C605.759534,75.1232984 607.58349,77.2348495 608.733887,79.9897461 L608.733887,45.6142578 Z" id="Openland" fill="#000000"></path>
        </g>
    </g>
</svg>
