<?xml version="1.0" encoding="utf-8"?>
<!-- Generator: Adobe Illustrator 21.0.0, SVG Export Plug-In . SVG Version: 6.00 Build 0)  -->
<svg version="1.1" id="Слой_1" xmlns="http://www.w3.org/2000/svg" xmlns:xlink="http://www.w3.org/1999/xlink" x="0px" y="0px"
	 viewBox="0 0 22 21" style="enable-background:new 0 0 22 21;" xml:space="preserve">
<g>
	<path d="M13.1,11.3c0.2-0.3,0.4-0.6,0.6-0.8c0.3,0.2,0.5,0.4,0.8,0.7c1.2-1.2,2.4-2.4,3.6-3.6c-2.4-2.5-4.8-4.9-7.1-7.3
		C9.7,1.5,8.5,2.7,7.4,3.9C7.7,4.2,7.8,4.4,8,4.5c-1,1-1.9,1.9-2.8,2.9C4.9,7.3,4.7,7.1,4.5,6.9C3.3,8.1,2.2,9.2,1,10.5
		c2.4,2.4,4.7,4.8,7,7.1c1.2-1.2,2.4-2.3,3.5-3.5c-0.2-0.2-0.4-0.4-0.6-0.7c0.2-0.3,0.4-0.5,0.7-0.8c0.2,0.2,0.3,0.4,0.5,0.6
		c2.1,2.1,4.2,4.3,6.3,6.4c1.3,1.3,1.3,1.3,2.6-0.2C18.3,16.7,15.7,13.9,13.1,11.3z M10.9,3.3C12.3,4.7,13.6,6,15,7.4
		c-0.2,0.2-0.4,0.5-0.5,0.7C13,6.7,11.6,5.4,10.1,4C10.4,3.7,10.6,3.5,10.9,3.3z M8.2,14.7c-1.4-1.4-2.8-2.9-4.2-4.4
		c0-0.1,0.2-0.3,0.3-0.4c1.5,1.3,3,2.7,4.5,4C8.5,14.3,8.3,14.5,8.2,14.7z M9.3,11.7c-0.8-0.9-1.6-1.8-2.5-2.9C7.6,8,8.4,7,9.4,6
		c1,1,1.8,2,2.8,3C11.2,10,10.3,10.8,9.3,11.7z"/>
	<path d="M1,20.7c2.4,0,4.7,0,7,0c0-0.7,0-1.3,0-1.9c-2.3,0-4.6,0-7,0C1,19.5,1,20.1,1,20.7z"/>
</g>
</svg>
