<?xml version="1.0" encoding="utf-8"?>
<!-- Generator: Adobe Illustrator 21.0.0, SVG Export Plug-In . SVG Version: 6.00 Build 0)  -->
<svg version="1.1" id="Слой_1" xmlns="http://www.w3.org/2000/svg" xmlns:xlink="http://www.w3.org/1999/xlink" x="0px" y="0px"
	 viewBox="0 0 22 21" style="enable-background:new 0 0 22 21;" xml:space="preserve">
<style type="text/css">
	.st0{fill:#979797;}
</style>
<title>Group 10</title>
<desc>Created with Sketch.</desc>
<g>
	<path class="st0" d="M17.5,0h-13c-2.2,0-4,1.8-4,4v13c0,2.2,1.8,4,4,4h13c2.2,0,4-1.8,4-4V4C21.5,1.8,19.7,0,17.5,0z M19.5,17
		c0,1.1-0.9,2-2,2h-13c-1.1,0-2-0.9-2-2V4c0-1.1,0.9-2,2-2h13c1.1,0,2,0.9,2,2V17z"/>
	<polygon class="st0" points="14.5,5.3 10.7,9.2 6.8,5.3 5.4,6.7 9.3,10.6 5.4,14.4 6.8,15.8 10.7,12 14.5,15.8 15.9,14.4 
		12.1,10.6 15.9,6.7 	"/>
</g>
</svg>
