<?xml version="1.0" encoding="utf-8"?>
<!-- Generator: Adobe Illustrator 17.0.0, SVG Export Plug-In . SVG Version: 6.00 Build 0)  -->
<!DOCTYPE svg PUBLIC "-//W3C//DTD SVG 1.1//EN" "http://www.w3.org/Graphics/SVG/1.1/DTD/svg11.dtd">
<svg version="1.1" id="Layer_1" xmlns="http://www.w3.org/2000/svg" xmlns:xlink="http://www.w3.org/1999/xlink" x="0px" y="0px"
	 width="16px" height="16px" viewBox="0 0 16 16" enable-background="new 0 0 16 16" xml:space="preserve">
<g>
	<ellipse cx="8" cy="3" rx="8" ry="3"/>
	<path d="M0,5.991V8c0,1.656,3.582,3,8,3c4.418,0,8-1.344,8-3V5.991C14.176,7.208,11.276,8,8,8C4.723,8,1.824,7.208,0,5.991z"/>
	<path d="M0,10.99V13c0,1.656,3.582,3,8,3c4.418,0,8-1.344,8-3v-2.01C14.176,12.208,11.276,13,8,13C4.723,13,1.824,12.208,0,10.99z"
		/>
</g>
</svg>
