<?xml version="1.0" encoding="utf-8"?>
<!-- Generator: Adobe Illustrator 21.0.0, SVG Export Plug-In . SVG Version: 6.00 Build 0)  -->
<svg version="1.1" id="Слой_1" xmlns="http://www.w3.org/2000/svg" xmlns:xlink="http://www.w3.org/1999/xlink" x="0px" y="0px"
	 viewBox="0 0 20 20" style="enable-background:new 0 0 20 20;" xml:space="preserve">
<style type="text/css">
	.st0{fill:#6B50FF;}
</style>
<title>Shape</title>
<desc>Created with Sketch.</desc>
<g>
	<path class="st0" d="M14.7,0H5.3C2.4,0,0,2.4,0,5.3v9.4C0,17.6,2.4,20,5.3,20h9.4c2.9,0,5.3-2.4,5.3-5.3V5.3C20,2.4,17.6,0,14.7,0z
		 M10,15.6c-3.1,0-5.6-2.5-5.6-5.6c0-3.1,2.5-5.6,5.6-5.6s5.6,2.5,5.6,5.6C15.6,13.1,13.1,15.6,10,15.6z M15.9,5.3
		c-0.6,0-1.2-0.5-1.2-1.2c0-0.6,0.5-1.2,1.2-1.2c0.6,0,1.2,0.5,1.2,1.2C17.1,4.8,16.5,5.3,15.9,5.3z"/>
	<circle class="st0" cx="10" cy="10" r="4.4"/>
</g>
</svg>
