<?xml version="1.0" encoding="utf-8"?>
<!-- Generator: Adobe Illustrator 21.0.0, SVG Export Plug-In . SVG Version: 6.00 Build 0)  -->
<svg version="1.1" id="Слой_1" xmlns="http://www.w3.org/2000/svg" xmlns:xlink="http://www.w3.org/1999/xlink" x="0px" y="0px"
	 viewBox="0 0 15.6 15.6" style="enable-background:new 0 0 15.6 15.6;" xml:space="preserve">
<title>search</title>
<desc>Created with Sketch.</desc>
<path d="M15.3,14.2l-3.5-3.5c0.9-1.1,1.4-2.5,1.4-4.1c0-3.6-3-6.6-6.6-6.6C3,0,0,3,0,6.6c0,3.6,3,6.6,6.6,6.6c1.5,0,3-0.5,4.1-1.4
	l3.5,3.5c0.2,0.2,0.4,0.2,0.5,0.2s0.4-0.1,0.5-0.2C15.6,15,15.6,14.5,15.3,14.2z M1.6,6.6c0-2.8,2.3-5.1,5.1-5.1s5.1,2.3,5.1,5.1
	c0,1.4-0.6,2.7-1.5,3.6c0,0,0,0,0,0c0,0,0,0,0,0c-0.9,0.9-2.2,1.5-3.6,1.5C3.8,11.7,1.6,9.4,1.6,6.6z"/>
</svg>
