<?xml version="1.0" encoding="utf-8"?>
<!-- Generator: Adobe Illustrator 21.0.0, SVG Export Plug-In . SVG Version: 6.00 Build 0)  -->
<svg version="1.1" id="Слой_1" xmlns="http://www.w3.org/2000/svg" xmlns:xlink="http://www.w3.org/1999/xlink" x="0px" y="0px"
	 viewBox="0 0 22 21" style="enable-background:new 0 0 22 21;" xml:space="preserve">
<g>
	<g>
		<path d="M3,7.6C3.5,8,3.9,8.5,4.4,9c-0.9,0.9-1.3,1.9-1.3,3.1c0,1.5,0.7,2.7,2,3.5c0.7,0.5,1.5,0.6,2.3,0.6c2.5,0,5.1,0,7.6,0
			c1.8,0,3.8-1.8,4-3.6c0.2-2.1-0.8-3.9-2.8-4.5C15.9,8,15.7,8,15.4,7.9c-0.2,0-0.5,0-0.7,0c-1.9,0-3.8,0-5.8,0c0.5,0.6,1,1,1.4,1.5
			c-0.4,0.5-0.9,1-1.3,1.5C7.7,9.5,6.4,8.2,5.1,6.8c1.3-1.4,2.6-2.7,3.9-4c0.5,0.5,0.9,1,1.3,1.5C9.9,4.7,9.4,5.2,9,5.8
			c0.3,0,0.5,0,0.7,0c1.7,0,3.4,0,5.2,0c1.3,0,2.5,0.3,3.6,1.1c2.5,1.9,3.3,5,2,7.8c-1.1,2.4-3,3.6-5.6,3.5c-2.5,0-5.1,0-7.6,0
			c-1.4,0-2.7-0.4-3.7-1.3c-1.8-1.5-2.5-3.5-2.2-5.8C1.3,9.9,1.7,8.9,2.5,8c0.1-0.1,0.2-0.2,0.3-0.3C2.9,7.6,2.9,7.6,3,7.6z"/>
	</g>
</g>
</svg>
