<svg width="24" height="24" viewBox="0 0 24 24" fill="none" xmlns="http://www.w3.org/2000/svg">
    <g clip-path="url(#ic-arrow-down-24_svg__clip0)">
        <path fill-rule="evenodd" clip-rule="evenodd" d="M12 1.5C12.5523 1.5 13 1.94772 13 2.5V19.0858L19.7929 12.2929C20.1834 11.9024 20.8166 11.9024 21.2071 12.2929C21.5976 12.6834 21.5976 13.3166 21.2071 13.7071L12.7071 22.2071C12.3166 22.5976 11.6834 22.5976 11.2929 22.2071L2.79289 13.7071C2.40237 13.3166 2.40237 12.6834 2.79289 12.2929C3.18342 11.9024 3.81658 11.9024 4.20711 12.2929L11 19.0858V2.5C11 1.94772 11.4477 1.5 12 1.5Z" fill="black"/>
    </g>
    <defs>
        <clipPath id="ic-arrow-down-24_svg__clip0">
            <path d="M0 0H24V24H0V0Z" fill="white"/>
        </clipPath>
    </defs>
</svg>
