<svg width="24" height="24" viewBox="0 0 24 24" fill="none" xmlns="http://www.w3.org/2000/svg">
    <g clip-path="url(#ic-attach-24_svg__clip0)">
        <path fill-rule="evenodd" clip-rule="evenodd" d="M3.86827 8.11091L9.87868 2.1005C12.4357 -0.456504 16.2524 -0.0110496 18.364 2.1005C20.4755 4.21206 20.9209 8.02876 18.364 10.5858L12.3535 16.5962C10.8572 18.0925 8.63148 17.8239 7.40381 16.5962C6.17614 15.3685 5.90746 13.1428 7.40381 11.6464L11.2929 7.75735C11.6834 7.36683 12.3166 7.36683 12.7071 7.75735C13.0976 8.14788 13.0976 8.78104 12.7071 9.17157L8.81802 13.0607C8.19304 13.6856 8.27792 14.6419 8.81802 15.182C9.35811 15.7221 10.3143 15.8069 10.9393 15.182L16.9497 9.17157C18.6354 7.48591 18.3737 4.93869 16.9497 3.51471C15.5258 2.09073 12.9785 1.82907 11.2929 3.51471L5.28249 9.52512C2.52167 12.2859 2.81322 16.2482 5.28249 18.7175C7.75175 21.1868 11.7141 21.4783 14.4749 18.7175L18.364 14.8284C18.7545 14.4379 19.3876 14.4379 19.7782 14.8284C20.1687 15.2189 20.1687 15.8521 19.7782 16.2426L15.8891 20.1317C12.2859 23.7349 7.05586 23.3193 3.86827 20.1317C0.68068 16.9441 0.265128 11.714 3.86827 8.11091Z" fill="black"/>
    </g>
    <defs>
        <clipPath id="ic-attach-24_svg__clip0">
            <rect width="24" height="24" fill="white"/>
        </clipPath>
    </defs>
</svg>
