<svg width="24" height="24" viewBox="0 0 24 24" xmlns="http://www.w3.org/2000/svg">
<path fill-rule="evenodd" clip-rule="evenodd" d="M21.125 6.1154L13.35 15.25C13.35 15.25 13 13.5 11.75 12.25C10.5 11 8.75 10.65 8.75 10.65L17.8846 2.87497C18.797 2.0984 20.1528 2.15282 21 3.00001C21.8472 3.8472 21.9016 5.20304 21.125 6.1154ZM7.5 20.5C9.70007 20.3 11.5 18.7092 11.5 16.5C11.5 14.2909 9.70914 12.5 7.5 12.5C5.29086 12.5 3.5 14.2909 3.5 16.5C3.5 17.4153 2.76701 17.5975 1.97191 17.526C1.27605 17.4634 0.763098 18.116 1.27774 18.5885C2.42418 19.6411 4.40957 20.781 7.5 20.5Z"/>
</svg>
