<svg width="24" height="24" viewBox="0 0 24 24" fill="none" xmlns="http://www.w3.org/2000/svg">
<g clip-path="url(#clip0)">
<path d="M12.3376 7.17309C9.676 6.98698 7.35921 9.00094 7.17309 11.6625C6.98698 14.324 9.00094 16.6408 11.6625 16.8269C13.3605 16.9457 14.917 16.1682 15.8706 14.8992C16.4599 15.5169 17.2718 15.9257 18.1884 15.9898C20.1402 16.1263 21.8392 14.6494 21.9757 12.6976C22.3603 7.19703 18.1982 2.40902 12.6976 2.02438C7.19695 1.63974 2.40901 5.8019 2.02438 11.3025C1.63974 16.803 5.80182 21.591 11.3025 21.9757C13.967 22.162 16.5447 21.2995 18.5606 19.5471L17.2908 18.0864C15.6651 19.4996 13.5864 20.1952 11.4375 20.0449C7.00154 19.7347 3.64494 15.8734 3.95513 11.4375C4.26532 7.0015 8.12665 3.64494 12.5626 3.95513C16.9985 4.26532 20.3551 8.12665 20.0449 12.5626C19.9829 13.4497 19.2106 14.1211 18.3234 14.059C17.4363 13.997 16.7649 13.2247 16.827 12.3376C17.0131 9.67604 14.9991 7.35921 12.3376 7.17309ZM11.7975 14.8962C10.2005 14.7845 8.99218 13.3945 9.10385 11.7975C9.21552 10.2005 10.6055 8.99217 12.2025 9.10385C13.7996 9.21552 15.0079 10.6056 14.8962 12.2025C14.7845 13.7995 13.3945 15.0079 11.7975 14.8962Z" fill="#171B1F"/>
</g>
<defs>
<clipPath id="clip0">
<rect width="24" height="24" fill="white"/>
</clipPath>
</defs>
</svg>
