<svg width="24" height="24" viewBox="0 0 24 24" fill="none" xmlns="http://www.w3.org/2000/svg">
<g clip-path="url(#clip0)">
<path fill-rule="evenodd" clip-rule="evenodd" d="M8.7587 1.5H15.2413C16.0463 1.49999 16.7106 1.49998 17.2518 1.54419C17.8139 1.59012 18.3306 1.68868 18.816 1.93597C19.5686 2.31947 20.1805 2.93139 20.564 3.68404C20.8113 4.16937 20.9099 4.68608 20.9558 5.24817C21 5.78936 21 6.45372 21 7.25868V17.755C21 18.6219 21 19.34 20.9512 19.8914C20.9043 20.4202 20.8001 21.0351 20.401 21.5023C19.8813 22.1108 19.1017 22.4338 18.3039 22.371C17.6913 22.3228 17.1828 21.9617 16.7757 21.6209C16.3513 21.2656 15.8436 20.7578 15.2306 20.1448L12.9899 17.9042C12.6813 17.5955 12.4917 17.407 12.3388 17.2772C12.2675 17.2167 12.2209 17.1836 12.191 17.1651C12.1768 17.1563 12.1675 17.1515 12.1623 17.1491C12.1573 17.1467 12.1549 17.1459 12.1545 17.1458C12.0541 17.1132 11.9459 17.1132 11.8455 17.1458C11.8451 17.1459 11.8427 17.1467 11.8377 17.1491C11.8326 17.1515 11.8232 17.1563 11.809 17.1651C11.7791 17.1836 11.7325 17.2167 11.6612 17.2772C11.5083 17.407 11.3187 17.5955 11.0101 17.9042L8.76937 20.1448C8.15641 20.7578 7.64868 21.2656 7.22426 21.6209C6.81716 21.9617 6.30868 22.3228 5.69615 22.371C4.89835 22.4338 4.11872 22.1108 3.59899 21.5023C3.19995 21.0351 3.09569 20.4202 3.04883 19.8914C2.99997 19.34 2.99998 18.6219 3 17.755L3 7.2587C2.99999 6.45373 2.99998 5.78937 3.04419 5.24817C3.09012 4.68608 3.18868 4.16937 3.43598 3.68404C3.81947 2.93139 4.43139 2.31947 5.18404 1.93597C5.66937 1.68868 6.18608 1.59012 6.74818 1.54419C7.28937 1.49998 7.95373 1.49999 8.7587 1.5ZM6.91104 3.53755C6.47262 3.57337 6.24842 3.6383 6.09202 3.71799C5.7157 3.90973 5.40973 4.2157 5.21799 4.59202C5.1383 4.74842 5.07337 4.97262 5.03755 5.41104C5.00078 5.86113 5 6.44342 5 7.3V17.7059C5 18.6344 5.00095 19.2627 5.04102 19.7148C5.07372 20.0839 5.12521 20.2011 5.13051 20.2155C5.23066 20.3254 5.37458 20.385 5.52307 20.3781C5.53706 20.3716 5.65632 20.3252 5.9404 20.0874C6.28846 19.796 6.73339 19.3524 7.38995 18.6958L9.62139 16.4644C9.89649 16.1893 10.144 15.9417 10.3669 15.7525C10.6055 15.55 10.8807 15.3564 11.2275 15.2437C11.7296 15.0805 12.2704 15.0805 12.7725 15.2437C13.1193 15.3564 13.3945 15.55 13.6331 15.7525C13.856 15.9417 14.1035 16.1893 14.3787 16.4644L16.6101 18.6958C17.2666 19.3524 17.7115 19.796 18.0596 20.0874C18.3437 20.3252 18.4629 20.3716 18.4769 20.3781C18.6254 20.385 18.7693 20.3254 18.8695 20.2155C18.8748 20.2011 18.9263 20.0839 18.959 19.7148C18.999 19.2627 19 18.6344 19 17.7059V7.3C19 6.44342 18.9992 5.86113 18.9624 5.41104C18.9266 4.97262 18.8617 4.74842 18.782 4.59202C18.5903 4.2157 18.2843 3.90973 17.908 3.71799C17.7516 3.6383 17.5274 3.57337 17.089 3.53755C16.6389 3.50078 16.0566 3.5 15.2 3.5H8.8C7.94342 3.5 7.36113 3.50078 6.91104 3.53755Z" fill="black"/>
</g>
<defs>
<clipPath id="clip0">
<rect width="24" height="24" fill="white"/>
</clipPath>
</defs>
</svg>
