<svg width="24" height="24" viewBox="0 0 24 24" fill="none" xmlns="http://www.w3.org/2000/svg">
<g clip-path="url(#clip0)">
<path d="M4 7.3C4 5.61984 4 4.77976 4.32698 4.13803C4.6146 3.57354 5.07354 3.1146 5.63803 2.82698C6.27976 2.5 7.11984 2.5 8.8 2.5H15.2C16.8802 2.5 17.7202 2.5 18.362 2.82698C18.9265 3.1146 19.3854 3.57354 19.673 4.13803C20 4.77976 20 5.61984 20 7.3V17.7059C20 19.5233 20 20.4321 19.6406 20.8529C19.3288 21.218 18.861 21.4117 18.3823 21.3741C17.8306 21.3306 17.1881 20.6881 15.9029 19.4029L13.6971 17.1971C13.103 16.603 12.806 16.306 12.4635 16.1947C12.1623 16.0968 11.8377 16.0968 11.5365 16.1947C11.194 16.306 10.897 16.603 10.3029 17.1971L8.09705 19.4029C6.81193 20.6881 6.16936 21.3306 5.61769 21.3741C5.13901 21.4117 4.67123 21.218 4.35939 20.8529C4 20.4321 4 19.5233 4 17.7059V7.3Z" fill="white"/>
</g>
<defs>
<clipPath id="clip0">
<rect width="24" height="24" fill="white"/>
</clipPath>
</defs>
</svg>
