<svg width="36" height="36" viewBox="0 0 36 36" fill="none" xmlns="http://www.w3.org/2000/svg">
    <g>
        <path fill-rule="evenodd" clip-rule="evenodd" d="M11.2246 6.62237L12.0906 5.64807L12.0906 5.64806C12.7935 4.85732 13.1449 4.46195 13.5678 4.17826C13.9426 3.92684 14.3572 3.74065 14.7941 3.62758C15.287 3.5 15.816 3.5 16.874 3.5H19.126C20.184 3.5 20.713 3.5 21.2059 3.62758C21.6428 3.74065 22.0574 3.92684 22.4322 4.17826C22.8551 4.46195 23.2065 4.85732 23.9094 5.64806L23.9094 5.64807L24.7754 6.62237C24.806 6.65675 24.8213 6.67394 24.8361 6.69027C25.5839 7.51306 26.6404 7.98749 27.7521 7.99976C27.7742 8 27.7972 8 27.8432 8C27.9888 8 28.0616 8 28.1231 8.00126C31.3404 8.06731 33.9327 10.6596 33.9987 13.8769C34 13.9384 34 14.0112 34 14.1568V22.4C34 25.7603 34 27.4405 33.346 28.7239C32.7708 29.8529 31.8529 30.7708 30.7239 31.346C29.4405 32 27.7603 32 24.4 32H11.6C8.23969 32 6.55953 32 5.27606 31.346C4.14708 30.7708 3.2292 29.8529 2.65396 28.7239C2 27.4405 2 25.7603 2 22.4V14.1568C2 14.0112 2 13.9384 2.00126 13.8769C2.0673 10.6596 4.65961 8.06731 7.87686 8.00126C7.93843 8 8.01121 8 8.1568 8C8.2028 8 8.2258 8 8.24785 7.99976C9.35961 7.98749 10.4161 7.51306 11.1639 6.69027C11.1787 6.67401 11.1939 6.65689 11.2242 6.62277L11.2242 6.62274L11.2246 6.62237ZM13 19C13 16.2386 15.2386 14 18 14C20.7614 14 23 16.2386 23 19C23 21.7614 20.7614 24 18 24C15.2386 24 13 21.7614 13 19ZM18 12C14.134 12 11 15.134 11 19C11 22.866 14.134 26 18 26C21.866 26 25 22.866 25 19C25 15.134 21.866 12 18 12Z" fill="black"/>
    </g>
</svg>
