<svg width="24" height="24" viewBox="0 0 24 24" fill="none" xmlns="http://www.w3.org/2000/svg">
<g>
<path fill-rule="evenodd" clip-rule="evenodd" d="M19 3.80423L13.6974 7.11837C13.6772 7.13097 13.6573 7.14341 13.6377 7.1557C13.2611 7.39126 12.9763 7.56938 12.6641 7.69806C12.3884 7.81173 12.1008 7.8942 11.8068 7.94394C11.4739 8.00026 11.138 8.00014 10.6938 7.99999C10.6706 7.99999 10.6472 7.99998 10.6234 7.99998H6C4.13241 7.99998 3 9.46858 3 11C3 12.5314 4.13241 14 6 14C6.55228 14 7 14.4477 7 15V20C7 20.5523 7.44772 21 8 21C8.55228 21 9 20.5523 9 20V15C9 14.4477 9.44772 14 10 14H10.6234C10.6472 14 10.6706 14 10.6938 14C11.138 13.9998 11.4739 13.9997 11.8068 14.056C12.1008 14.1058 12.3884 14.1882 12.6641 14.3019C12.9763 14.4306 13.2611 14.6087 13.6377 14.8442C13.6573 14.8565 13.6772 14.869 13.6974 14.8816L19 18.1957V3.80423ZM18.7957 1.59288C18.9599 1.51004 19.2558 1.37763 19.6202 1.40692C20.0512 1.44158 20.4464 1.66057 20.7042 2.00773C20.9222 2.30125 20.9667 2.62228 20.9835 2.80546C21.0001 2.98656 21.0001 3.20396 21 3.40998V18.59C21.0001 18.796 21.0001 19.0134 20.9835 19.1945C20.9667 19.3777 20.9222 19.6987 20.7042 19.9922C20.4464 20.3394 20.0512 20.5584 19.6202 20.593C19.2558 20.6223 18.9599 20.4899 18.7957 20.4071C18.6333 20.3252 18.449 20.2099 18.2743 20.1007L12.6374 16.5776C12.1755 16.2889 12.0393 16.2076 11.9019 16.1509C11.764 16.0941 11.6202 16.0529 11.4732 16.028C11.3679 16.0102 11.2564 16.0035 11 16.0012V20C11 21.6568 9.65685 23 8 23C6.34315 23 5 21.6568 5 20V15.9091C2.47425 15.4361 1 13.1933 1 11C1 8.53138 2.86759 5.99998 6 5.99998H10.6234C11.1681 5.99998 11.3266 5.99676 11.4732 5.97196C11.6202 5.94709 11.764 5.90585 11.9019 5.84902C12.0393 5.79235 12.1755 5.71106 12.6374 5.42237L18.246 1.91698C18.2554 1.9111 18.2648 1.9052 18.2743 1.89928C18.449 1.79004 18.6333 1.67478 18.7957 1.59288Z" fill="black"/>
</g>
</svg>
