<svg width="12" height="12" viewBox="0 0 12 12" fill="none" xmlns="http://www.w3.org/2000/svg">
<path d="M3.93086 8.06689C7.11284 11.2489 9.58771 10.8953 10.6484 9.83465C11.2342 9.24887 11.2342 8.29912 10.6484 7.71333L9.9308 6.99576C9.54605 6.61102 8.92226 6.61102 8.53752 6.99576C8.09774 7.43554 7.44285 7.58764 6.91344 7.26125C6.55503 7.04028 6.12683 6.72732 5.69863 6.29912C5.27043 5.87092 4.95747 5.44272 4.7365 5.08431C4.4101 4.5549 4.56221 3.9 5.00199 3.46023C5.38673 3.07548 5.38673 2.45169 5.00199 2.06695L4.28441 1.34937C3.69862 0.763588 2.74888 0.763588 2.16309 1.34937C1.10243 2.41003 0.748879 4.88491 3.93086 8.06689Z" fill="black"/>
</svg>
