<svg width="24" height="24" viewBox="0 0 24 24" fill="none" xmlns="http://www.w3.org/2000/svg">
<g clip-path="url(#clip0)">
<path d="M8.25 4L7.91891 4.3973L7.91887 4.39736C7.89994 4.42007 7.89047 4.43143 7.88132 4.44221C7.31772 5.1057 6.4937 5.49165 5.62318 5.49987C5.60903 5.5 5.59422 5.5 5.56461 5.5C5.50462 5.5 5.47463 5.5 5.44926 5.50043C3.83213 5.52779 2.52779 6.83213 2.50043 8.44926C2.5 8.47463 2.5 8.50462 2.5 8.56461V16.2C2.5 17.8802 2.5 18.7202 2.82698 19.362C3.1146 19.9265 3.57354 20.3854 4.13803 20.673C4.77976 21 5.61984 21 7.3 21H16.7C18.3802 21 19.2202 21 19.862 20.673C20.4265 20.3854 20.8854 19.9265 21.173 19.362C21.5 18.7202 21.5 17.8802 21.5 16.2V8.56461C21.5 8.50462 21.5 8.47463 21.4996 8.44926C21.4722 6.83213 20.1679 5.52779 18.5507 5.50043C18.5254 5.5 18.4954 5.5 18.4354 5.5C18.4058 5.5 18.391 5.5 18.3768 5.49987C17.5063 5.49165 16.6823 5.1057 16.1187 4.44221C16.1096 4.43148 16.1001 4.42016 16.0814 4.39764L16.0811 4.39731L15.75 4C15.4068 3.58821 15.2353 3.38231 15.0399 3.21595C14.6303 2.86717 14.1345 2.63494 13.6044 2.54358C13.3515 2.5 13.0835 2.5 12.5474 2.5H11.4526C10.9165 2.5 10.6485 2.5 10.3956 2.54358C9.8655 2.63494 9.36968 2.86717 8.96011 3.21595C8.76474 3.38231 8.59316 3.58821 8.25 4L8.25 4Z" stroke="black" stroke-width="2" stroke-linecap="round" stroke-linejoin="round"/>
<circle cx="12" cy="12.5" r="3.5" stroke="black" stroke-width="2" stroke-linecap="round" stroke-linejoin="round"/>
</g>
<defs>
<clipPath id="clip0">
<rect width="24" height="24" fill="white"/>
</clipPath>
</defs>
</svg>
