<svg width="16" height="16" viewBox="0 0 16 16" fill="none" xmlns="http://www.w3.org/2000/svg">
<path fill-rule="evenodd" clip-rule="evenodd" d="M5.01777 3.48223L5.91421 2.58579C6.28929 2.21071 6.79799 2 7.32843 2H8.67157C9.20201 2 9.71071 2.21071 10.0858 2.58579L10.9822 3.48223C11.3138 3.81375 11.7634 4 12.2322 4C13.2085 4 14 4.79146 14 5.76777V11C14 12.1046 13.1046 13 12 13H4C2.89543 13 2 12.1046 2 11V5.76777C2 4.79146 2.79146 4 3.76777 4C4.23661 4 4.68625 3.81375 5.01777 3.48223ZM8 10.25C9.24264 10.25 10.25 9.24264 10.25 8C10.25 6.75736 9.24264 5.75 8 5.75C6.75736 5.75 5.75 6.75736 5.75 8C5.75 9.24264 6.75736 10.25 8 10.25Z" fill="black"/>
</svg>
