<svg width="24" height="24" viewBox="0 0 24 24" fill="none" xmlns="http://www.w3.org/2000/svg">
<path d="M13.2 4H6.8C5.11984 4 4.27976 4 3.63803 4.32698C3.07354 4.6146 2.6146 5.07354 2.32698 5.63803C2 6.27976 2 7.11984 2 8.8V15.2C2 16.8802 2 17.7202 2.32698 18.362C2.6146 18.9265 3.07354 19.3854 3.63803 19.673C4.27976 20 5.11984 20 6.8 20H13.2C14.8802 20 15.7202 20 16.362 19.673C16.9265 19.3854 17.3854 18.9265 17.673 18.362C18 17.7202 18 16.8802 18 15.2V14.5L21.7412 17.1189C22.1486 17.404 22.3523 17.5466 22.5219 17.5392C22.6695 17.5327 22.8067 17.4613 22.8967 17.344C23 17.2094 23 16.9608 23 16.4635V7.53652C23 7.03925 23 6.79061 22.8967 6.65596C22.8067 6.53871 22.6695 6.46727 22.5219 6.46081C22.3523 6.45339 22.1486 6.59597 21.7412 6.88114L18 9.5V8.8C18 7.11984 18 6.27976 17.673 5.63803C17.3854 5.07354 16.9265 4.6146 16.362 4.32698C15.7202 4 14.8802 4 13.2 4Z" />
</svg>
