<svg width="16" height="16" viewBox="0 0 16 16" fill="none" xmlns="http://www.w3.org/2000/svg">
    <path fill-rule="evenodd" clip-rule="evenodd" d="M6.70969 2.58333C6.71777 2.56846 6.72605 2.5536 6.73453 2.53877C6.98653 2.09776 7.36002 1.75 8.00001 1.75C8.64 1.75 9.01349 2.09776 9.26549 2.53877C9.27397 2.5536 9.28225 2.56846 9.29033 2.58333H6.70969ZM10.916 2.58333C10.8399 2.35265 10.7286 2.07578 10.5679 1.79456C10.1532 1.0689 9.36002 0.25 8.00001 0.25C6.64 0.25 5.84682 1.0689 5.43216 1.79456C5.27147 2.07578 5.16014 2.35265 5.08405 2.58333H1.33334C0.91913 2.58333 0.583344 2.91912 0.583344 3.33333C0.583344 3.74755 0.91913 4.08333 1.33334 4.08333H1.98177L2.65779 11.5197C2.70226 12.0089 2.73952 12.4189 2.79662 12.7535C2.85637 13.1037 2.94635 13.4297 3.12695 13.7347C3.40554 14.2051 3.81803 14.5818 4.31173 14.8166C4.63177 14.9689 4.96459 15.029 5.3188 15.0568C5.65719 15.0834 6.06888 15.0833 6.56013 15.0833H9.43989C9.93114 15.0833 10.3428 15.0834 10.6812 15.0568C11.0354 15.029 11.3683 14.9689 11.6883 14.8166C12.182 14.5818 12.5945 14.2051 12.8731 13.7347C13.0537 13.4297 13.1436 13.1037 13.2034 12.7535C13.2605 12.4189 13.2978 12.0089 13.3422 11.5196L14.0183 4.08333H14.6667C15.0809 4.08333 15.4167 3.74755 15.4167 3.33333C15.4167 2.91912 15.0809 2.58333 14.6667 2.58333H10.916ZM12.5121 4.08333H3.48795L4.14902 11.3551C4.19679 11.8805 4.22924 12.2315 4.27525 12.5012C4.3197 12.7617 4.36811 12.8868 4.41758 12.9703C4.54421 13.1841 4.73171 13.3554 4.95612 13.4621C5.04378 13.5038 5.17269 13.5407 5.43619 13.5614C5.7089 13.5828 6.0614 13.5833 6.58896 13.5833H9.41106C9.93862 13.5833 10.2911 13.5828 10.5638 13.5614C10.8273 13.5407 10.9562 13.5038 11.0439 13.4621C11.2683 13.3554 11.4558 13.1841 11.5824 12.9703C11.6319 12.8868 11.6803 12.7617 11.7248 12.5012C11.7708 12.2315 11.8032 11.8805 11.851 11.3551L12.5121 4.08333Z" fill="black"/>
</svg>
