<svg width="24" height="24" viewBox="0 0 24 24" fill="none" xmlns="http://www.w3.org/2000/svg">
<g clip-path="url(#clip0)">
<circle cx="12" cy="12" r="9.75" stroke="black" stroke-width="2"/>
<path d="M9.92681 12.122L8.64639 14.256C8.16274 15.0621 7.92091 15.4651 7.97392 15.6684C8.01959 15.8436 8.1564 15.9804 8.33158 16.0261C8.53485 16.0791 8.93789 15.8373 9.74397 15.3536L11.878 14.0732C12.3894 13.7664 12.645 13.613 12.8727 13.4261C13.0748 13.2602 13.2602 13.0748 13.4261 12.8727C13.613 12.645 13.7664 12.3894 14.0732 11.878L15.3536 9.74398C15.8373 8.93789 16.0791 8.53485 16.0261 8.33158C15.9804 8.1564 15.8436 8.01959 15.6684 7.97392C15.4651 7.92091 15.0621 8.16274 14.256 8.64638L12.122 9.92681C11.6106 10.2336 11.355 10.387 11.1273 10.5739C10.9252 10.7398 10.7398 10.9252 10.5739 11.1273C10.387 11.355 10.2336 11.6106 9.92681 12.122Z" fill="black"/>
</g>
<defs>
<clipPath id="clip0">
<rect width="24" height="24" fill="white"/>
</clipPath>
</defs>
</svg>
