<svg width="24" height="24" viewBox="0 0 24 24" fill="none" xmlns="http://www.w3.org/2000/svg">
<g clip-path="url(#clip0)">
<path fill-rule="evenodd" clip-rule="evenodd" d="M9.86048 4C9.9008 3.91569 9.94496 3.83064 9.99324 3.74614C10.3848 3.06091 10.98 2.5 12 2.5C13.02 2.5 13.6152 3.06091 14.0068 3.74614C14.055 3.83064 14.0992 3.91569 14.1395 4H9.86048ZM16.2829 4C16.1707 3.64406 15.9995 3.20238 15.7432 2.75386C15.1348 1.68909 13.98 0.5 12 0.5C10.02 0.5 8.86519 1.68909 8.25676 2.75386C8.00046 3.20238 7.82932 3.64406 7.71708 4H2C1.44772 4 1 4.44772 1 5C1 5.55228 1.44772 6 2 6H3.08679L4.11079 17.2641C4.17781 18.0015 4.23333 18.6122 4.31813 19.1092C4.40649 19.6271 4.53799 20.0994 4.79796 20.5383C5.20319 21.2226 5.80317 21.7705 6.52128 22.1121C6.98197 22.3313 7.46421 22.4195 7.98797 22.4606C8.49061 22.5 9.1039 22.5 9.84431 22.5H14.1557C14.8961 22.5 15.5094 22.5 16.012 22.4606C16.5358 22.4195 17.018 22.3313 17.4787 22.1121C18.1968 21.7705 18.7968 21.2226 19.202 20.5383C19.462 20.0994 19.5935 19.6271 19.6819 19.1092C19.7667 18.6122 19.8222 18.0015 19.8892 17.2641L20.9132 6H22C22.5523 6 23 5.55228 23 5C23 4.44772 22.5523 4 22 4H16.2829ZM18.905 6H5.09503L6.09904 17.044C6.1705 17.8302 6.2196 18.3624 6.28964 18.7728C6.35759 19.1711 6.43367 19.3754 6.5188 19.5192C6.72142 19.8613 7.02141 20.1352 7.38046 20.306C7.53132 20.3778 7.74168 20.4351 8.14448 20.4667C8.55958 20.4993 9.09405 20.5 9.88343 20.5H14.1166C14.906 20.5 15.4404 20.4993 15.8555 20.4667C16.2583 20.4351 16.4687 20.3778 16.6195 20.306C16.9786 20.1352 17.2786 19.8613 17.4812 19.5192C17.5663 19.3754 17.6424 19.1711 17.7104 18.7728C17.7804 18.3624 17.8295 17.8302 17.901 17.044L18.905 6Z" fill="black"/>
</g>
<defs>
<clipPath id="clip0">
<rect width="24" height="24" fill="white"/>
</clipPath>
</defs>
</svg>
