<svg width="22" height="22" viewBox="0 0 22 22" fill="none" xmlns="http://www.w3.org/2000/svg">
<path fill-rule="evenodd" clip-rule="evenodd" d="M2.25 11C2.25 6.16751 6.16751 2.25 11 2.25C15.8325 2.25 19.75 6.16751 19.75 11C19.75 15.321 16.6178 18.9105 12.5 19.6219V13.5001H15L15.5 11.5001L12.5 11.5001V9.50016C12.5 8.63239 12.6911 8.2337 12.8377 8.05369C12.9715 7.88951 13.1687 7.78371 13.499 7.74242C13.8489 7.69869 14.2617 7.73983 14.7106 7.81466C14.8504 7.83796 14.9596 7.85811 15.071 7.87868C15.1571 7.89459 15.2446 7.91074 15.3486 7.92878C15.5358 7.96126 15.7783 8.00014 16 8.00013L16 6.00013C15.9995 6.00014 16.0004 6.00014 15.9999 6.00013H15.9997C15.9998 6.00014 15.9997 6.00013 15.9997 6.00013L15.9995 6.00013L15.9982 6.00011L15.9932 5.99994C15.9888 5.99975 15.9826 5.99941 15.9744 5.9988C15.9579 5.99755 15.9361 5.99539 15.908 5.9919C15.8505 5.98476 15.7796 5.97368 15.6904 5.95821C15.6355 5.94867 15.5599 5.93485 15.4751 5.91935L15.4751 5.91935L15.4751 5.91934L15.475 5.91932C15.3375 5.89417 15.176 5.86463 15.0394 5.84187C14.5508 5.76045 13.9011 5.67659 13.251 5.75786C12.5813 5.84158 11.841 6.11077 11.2873 6.79035C10.7464 7.4541 10.5 8.36792 10.5 9.50016V11.5001L8 11.5001V13.5001L10.5 13.5001V19.736C5.90016 19.4768 2.25 15.6647 2.25 11ZM11 0.25C5.06294 0.25 0.25 5.06294 0.25 11C0.25 16.9371 5.06294 21.75 11 21.75C16.9371 21.75 21.75 16.9371 21.75 11C21.75 5.06294 16.9371 0.25 11 0.25Z" fill="#71747A"/>
</svg>
