<svg width="24" height="24" viewBox="0 0 24 24" fill="none" xmlns="http://www.w3.org/2000/svg">
<path fill-rule="evenodd" clip-rule="evenodd" d="M1.31623 0.551317C1.31628 0.551333 1.31618 0.5513 1.31623 0.551317L1.32186 0.55318L1.3442 0.560501C1.3645 0.56712 1.39543 0.577128 1.43602 0.590043C1.51722 0.615882 1.63691 0.653294 1.78735 0.698424C2.0887 0.788829 2.51089 0.909446 2.99254 1.02986C3.97843 1.27633 5.12913 1.5 6 1.5C6.82162 1.5 7.43417 1.30118 8.18377 1.05132L8.21373 1.04133C8.95778 0.793242 9.83726 0.5 11 0.5C12.1291 0.5 13.4784 0.77633 14.4925 1.02986C15.0109 1.15945 15.4637 1.28883 15.7873 1.38592C15.9494 1.43454 16.0797 1.47526 16.1704 1.50411C16.2157 1.51853 16.2512 1.53001 16.2758 1.53804L16.3045 1.54744L16.3125 1.55009L16.316 1.55124C16.3161 1.55128 16.3162 1.55132 16 2.5L16.316 1.55124C16.7243 1.68736 17 2.06957 17 2.5V14.5C17 14.8214 16.8455 15.1233 16.5847 15.3112C16.3239 15.4992 15.9887 15.5503 15.6838 15.4487L15.6781 15.4468L15.6558 15.4395C15.6355 15.4329 15.6046 15.4229 15.564 15.41C15.4828 15.3841 15.3631 15.3467 15.2127 15.3016C14.9113 15.2112 14.4891 15.0906 14.0075 14.9701C13.0216 14.7237 11.8709 14.5 11 14.5C10.1784 14.5 9.56583 14.6988 8.81623 14.9487L8.78627 14.9587C8.04222 15.2068 7.16274 15.5 6 15.5C4.87088 15.5 3.52157 15.2237 2.50746 14.9701C2.32975 14.9257 2.15974 14.8813 2 14.8382V21C2 21.5523 1.55228 22 1 22C0.447715 22 0 21.5523 0 21V1.5C0 1.17856 0.154521 0.876709 0.41529 0.688758C0.676008 0.500843 1.01133 0.449746 1.31623 0.551317ZM2 12.7612C2.27475 12.8412 2.61542 12.9356 2.99254 13.0299C3.97843 13.2763 5.12913 13.5 6 13.5C6.82162 13.5 7.43417 13.3012 8.18377 13.0513L8.21373 13.0413C8.95778 12.7932 9.83726 12.5 11 12.5C12.1291 12.5 13.4784 12.7763 14.4925 13.0299C14.6702 13.0743 14.8403 13.1187 15 13.1618V3.23876C14.7252 3.15883 14.3846 3.06442 14.0075 2.97014C13.0216 2.72367 11.8709 2.5 11 2.5C10.1784 2.5 9.56583 2.69882 8.81623 2.94868L8.78628 2.95867C8.04222 3.20676 7.16274 3.5 6 3.5C4.87088 3.5 3.52157 3.22367 2.50746 2.97014C2.32975 2.92571 2.15974 2.88131 2 2.83822V12.7612Z" fill="#71747A"/>
</svg>
