<svg width="24" height="24" viewBox="0 0 24 24" fill="none" xmlns="http://www.w3.org/2000/svg">
<path fill-rule="evenodd" clip-rule="evenodd" d="M3.5 10.5C3.50008 5.58624 7.51771 2 12 2C16.4823 2 20.5001 5.58626 20.5 10.5C20.5 13.2782 19.2226 15.552 17.5768 17.3354C15.9264 19.1239 13.9577 20.3589 12.7291 21.0246C12.3754 21.2163 12.3254 21.2369 12.1973 21.2626L12.1975 21.2626C12.1975 21.2626 12.1923 21.2636 12.1814 21.265C12.1697 21.2665 12.1542 21.2681 12.1349 21.2696C12.0959 21.2727 12.0494 21.2745 12 21.2745C11.9506 21.2745 11.9041 21.2727 11.865 21.2696C11.8458 21.2681 11.8303 21.2665 11.8186 21.265C11.8076 21.2636 11.8025 21.2626 11.8025 21.2626C11.6745 21.2368 11.6245 21.2162 11.2709 21.0246C10.0422 20.3589 8.0735 19.1239 6.42307 17.3355C4.77726 15.552 3.49995 13.2783 3.5 10.5ZM12 0C6.48229 0 1.5001 4.41376 1.5 10.5C1.49994 13.9386 3.09117 16.674 4.95327 18.6918C6.81076 20.7046 8.98933 22.0631 10.3181 22.7831L10.3565 22.8039C10.676 22.9773 10.9653 23.1342 11.4081 23.2233C11.7471 23.2916 12.2529 23.2916 12.5919 23.2233C13.0347 23.1342 13.324 22.9772 13.6435 22.8039L13.6819 22.7831C15.0106 22.0631 17.1892 20.7046 19.0466 18.6918C20.9087 16.674 22.4999 13.9386 22.5 10.5C22.5001 4.41374 17.5177 0 12 0ZM9.50012 10.4999C9.50012 9.11923 10.6194 7.99994 12.0001 7.99994C13.3808 7.99994 14.5001 9.11923 14.5001 10.4999C14.5001 11.8807 13.3808 12.9999 12.0001 12.9999C10.6194 12.9999 9.50012 11.8807 9.50012 10.4999ZM12.0001 5.99994C9.51484 5.99994 7.50012 8.01466 7.50012 10.4999C7.50012 12.9852 9.51484 14.9999 12.0001 14.9999C14.4854 14.9999 16.5001 12.9852 16.5001 10.4999C16.5001 8.01466 14.4854 5.99994 12.0001 5.99994Z" fill="black"/>
</svg>
