<svg width="24" height="24" viewBox="0 0 24 24" fill="none" xmlns="http://www.w3.org/2000/svg">
<g clip-path="url(#ic-google-play-glyph-24__clip0)">
<path fill-rule="evenodd" clip-rule="evenodd" d="M7.75185 2.73703L17.4109 8.21288L14.4636 11.3337L6.23456 2.61981C6.70564 2.43794 7.2499 2.45249 7.75185 2.73703ZM18.2306 8.67753L21.0129 10.2548C22.329 11.0009 22.329 12.9991 21.0129 13.7452L18.2306 15.3225L15.093 12L18.2306 8.67753ZM5.48115 3.15451C5.18602 3.49798 5 3.95653 5 4.48191V19.5177C5 20.0431 5.18602 20.5017 5.48111 20.8452L13.8343 11.9998L5.48115 3.15451ZM7.75184 21.2629C7.2499 21.5475 6.7056 21.562 6.23456 21.3802L14.4636 12.6662L17.4109 15.7871L7.75184 21.2629Z" fill="black"/>
</g>
<defs>
<clipPath id="ic-google-play-glyph-24__clip0">
<rect width="24" height="24" fill="white"/>
</clipPath>
</defs>
</svg>
