<svg width="24" height="24" viewBox="0 0 24 24" fill="none" xmlns="http://www.w3.org/2000/svg">
<path fill-rule="evenodd" clip-rule="evenodd" d="M11 7C11 8.65685 9.65685 10 8 10C6.34315 10 5 8.65685 5 7C5 5.34315 6.34315 4 8 4C9.65685 4 11 5.34315 11 7ZM1 16.5C1 15 3 12 8 12C13 12 15 15 15 16.5C15 18 14 19 12.5 19H3.5C2 19 1 18 1 16.5ZM16 10C17.6569 10 19 8.65685 19 7C19 5.34315 17.6569 4 16 4C14.3431 4 13 5.34315 13 7C13 8.65685 14.3431 10 16 10ZM16 12C15.4953 12 15.0211 12.0306 14.5765 12.0871C16.159 13.3544 17 15.0098 17 16.5C17 17.3922 16.7749 18.2595 16.3075 19H20.5C22 19 23 18 23 16.5C23 15 21 12 16 12Z" fill="black"/>
</svg>
