<svg width="24" height="24" viewBox="0 0 24 24" fill="none" xmlns="http://www.w3.org/2000/svg">
<g clip-path="url(#clip0)">
<path fill-rule="evenodd" clip-rule="evenodd" d="M12.0001 6C9.51484 6 7.50012 8.01472 7.50012 10.5C7.50012 12.9853 9.51484 15 12.0001 15C14.4854 15 16.5001 12.9853 16.5001 10.5C16.5001 8.01472 14.4854 6 12.0001 6ZM9.50012 10.5C9.50012 9.11929 10.6194 8 12.0001 8C13.3808 8 14.5001 9.11929 14.5001 10.5C14.5001 11.8807 13.3808 13 12.0001 13C10.6194 13 9.50012 11.8807 9.50012 10.5Z" fill="black"/>
<path fill-rule="evenodd" clip-rule="evenodd" d="M12 6.10352e-05C6.48229 6.10352e-05 1.5001 4.41382 1.5 10.5C1.49994 14.2433 3.3841 17.1507 5.45387 19.2116C7.52178 21.2707 9.85057 22.5644 10.9458 23.1096L10.9803 23.1269C11.1435 23.2086 11.3546 23.3144 11.6326 23.3663C11.8587 23.4086 12.1413 23.4086 12.3675 23.3663C12.6454 23.3144 12.8565 23.2086 13.0197 23.1269L13.0542 23.1096C14.1494 22.5644 16.4782 21.2707 18.546 19.2116C20.6158 17.1507 22.4999 14.2433 22.5 10.5001C22.5001 4.4138 17.5177 6.10352e-05 12 6.10352e-05ZM3.5 10.5001C3.50008 5.5863 7.51771 2.00006 12 2.00006C16.4823 2.00006 20.5001 5.58632 20.5 10.5C20.5 13.5226 18.9867 15.9505 17.1349 17.7944C15.2812 19.6401 13.1643 20.8207 12.1629 21.3193C12.1132 21.344 12.078 21.3615 12.0475 21.3761C12.0254 21.3868 12.0105 21.3936 12.0004 21.398C11.9903 21.3936 11.9746 21.3868 11.9525 21.3761C11.922 21.3615 11.8868 21.344 11.8371 21.3193C10.8357 20.8207 8.71873 19.6401 6.86504 17.7944C5.01321 15.9505 3.49995 13.5226 3.5 10.5001Z" fill="black"/>
</g>
<defs>
<clipPath id="clip0">
<rect width="24" height="24" fill="white"/>
</clipPath>
</defs>
</svg>
