<svg width="24" height="24" viewBox="0 0 24 24" fill="none" xmlns="http://www.w3.org/2000/svg">
<g clip-path="url(#clip0)">
<path fill-rule="evenodd" clip-rule="evenodd" d="M11.1971 0.639424C11.7178 0.462803 12.2823 0.462803 12.803 0.639424C13.0926 0.737629 13.3285 0.890979 13.5371 1.05143C13.7307 1.20041 13.9474 1.39305 14.1862 1.60531L20.1037 6.86532C20.1293 6.88805 20.1545 6.91047 20.1795 6.9326C20.6497 7.3502 21.0047 7.66548 21.274 8.04916C21.5659 8.46498 21.7759 8.93258 21.8928 9.42697C22.0006 9.88317 22.0004 10.358 22.0001 10.9869C22.0001 11.0202 22.0001 11.054 22.0001 11.0882V18.708C22.0001 19.0644 22.0001 19.3852 21.98 19.6527C21.9586 19.9388 21.9102 20.2435 21.7704 20.5467C21.5212 21.0873 21.0873 21.5212 20.5467 21.7704C20.2436 21.9101 19.9388 21.9586 19.6528 21.98C19.3852 22.0001 19.0645 22 18.7081 22H16.7921C16.4357 22 16.1149 22.0001 15.8474 21.98C15.5613 21.9586 15.2565 21.9101 14.9534 21.7704C14.4128 21.5212 13.9789 21.0873 13.7297 20.5467C13.59 20.2436 13.5415 19.9389 13.5201 19.6528C13.5 19.3854 13.5 19.0647 13.5001 18.7084L13.5001 15C13.5001 14.7198 13.3855 14.3198 13.1302 14.0056C12.9002 13.7225 12.5529 13.5 12.0001 13.5C11.4472 13.5 11.1 13.7225 10.8699 14.0056C10.6147 14.3198 10.5001 14.7198 10.5001 15L10.5001 18.7084C10.5001 19.0647 10.5001 19.3854 10.48 19.6528C10.4586 19.9389 10.4101 20.2436 10.2704 20.5467C10.0212 21.0873 9.58729 21.5212 9.04671 21.7704C8.74358 21.9101 8.43881 21.9586 8.15277 21.98C7.88523 22.0001 7.56447 22 7.20806 22H5.29206C4.93566 22 4.61489 22.0001 4.34735 21.98C4.06131 21.9586 3.75654 21.9101 3.45341 21.7704C2.91283 21.5212 2.47891 21.0873 2.2297 20.5467C2.08996 20.2435 2.04153 19.9388 2.02008 19.6527C2.00002 19.3852 2.00004 19.0644 2.00006 18.708L2.00006 11.0882C2.00006 11.054 2.00005 11.0202 2.00003 10.9869C1.99973 10.358 1.99951 9.88317 2.10736 9.42697C2.22424 8.93258 2.43422 8.46498 2.72609 8.04916C2.9954 7.66548 3.35043 7.3502 3.82068 6.93259C3.84559 6.91047 3.87084 6.88805 3.89641 6.86532L9.81392 1.60531C10.0527 1.39305 10.2694 1.20041 10.4631 1.05143C10.6717 0.890979 10.9075 0.737629 11.1971 0.639424ZM12.1607 2.53345C12.0565 2.49813 11.9436 2.49813 11.8395 2.53345C11.8394 2.53348 11.8303 2.53634 11.8073 2.54974C11.7821 2.5644 11.7429 2.59019 11.6824 2.63671C11.552 2.73707 11.3887 2.88138 11.1198 3.12045L5.22513 8.36014C4.64627 8.87469 4.4814 9.02962 4.36307 9.19819C4.21714 9.4061 4.11215 9.6399 4.05371 9.8871C4.00633 10.0875 4.00006 10.3137 4.00006 11.0882V18.675C4.00006 19.0748 4.00072 19.3195 4.01449 19.5032C4.0209 19.5888 4.02898 19.6409 4.03585 19.6729C4.03912 19.6881 4.04187 19.6975 4.04352 19.7026L4.04535 19.7078L4.04599 19.7094C4.09583 19.8175 4.18262 19.9043 4.29073 19.9541L4.29227 19.9547L4.29749 19.9566C4.30257 19.9582 4.31198 19.961 4.3272 19.9642C4.35914 19.9711 4.4113 19.9792 4.49689 19.9856C4.68054 19.9994 4.92527 20 5.32506 20H7.17506C7.57485 20 7.81959 19.9994 8.00324 19.9856C8.08882 19.9792 8.14098 19.9711 8.17293 19.9642C8.18814 19.961 8.19755 19.9582 8.20264 19.9566L8.20785 19.9547L8.20939 19.9541C8.31751 19.9043 8.40429 19.8175 8.45413 19.7094L8.45478 19.7078L8.45662 19.7026C8.45827 19.6975 8.46101 19.6881 8.46428 19.6729C8.47115 19.6409 8.47922 19.5888 8.48564 19.5033C8.49941 19.3197 8.50006 19.0751 8.50006 18.6754V15C8.50006 14.2803 8.76047 13.4303 9.3177 12.7444C9.90017 12.0275 10.8029 11.5 12.0001 11.5C13.1972 11.5 14.1 12.0275 14.6824 12.7444C15.2397 13.4303 15.5001 14.2803 15.5001 15V18.6754C15.5001 19.0751 15.5007 19.3197 15.5145 19.5033C15.5209 19.5888 15.529 19.6409 15.5358 19.6729C15.5391 19.6881 15.5419 19.6975 15.5435 19.7026L15.5453 19.7078L15.546 19.7094C15.5958 19.8175 15.6826 19.9043 15.7907 19.9541L15.7923 19.9547L15.7975 19.9566C15.8026 19.9582 15.812 19.961 15.8272 19.9642C15.8591 19.9711 15.9113 19.9792 15.9969 19.9856C16.1805 19.9994 16.4253 20 16.8251 20H18.6751C19.0749 20 19.3196 19.9994 19.5032 19.9856C19.5888 19.9792 19.641 19.9711 19.6729 19.9642C19.6881 19.961 19.6975 19.9582 19.7026 19.9566L19.7079 19.9547L19.7094 19.9541C19.8175 19.9043 19.9043 19.8175 19.9541 19.7094L19.9548 19.7078L19.9566 19.7026C19.9583 19.6975 19.961 19.6881 19.9643 19.6729C19.9711 19.6409 19.9792 19.5888 19.9856 19.5032C19.9994 19.3195 20.0001 19.0748 20.0001 18.675V11.0882C20.0001 10.3137 19.9938 10.0875 19.9464 9.8871C19.888 9.6399 19.783 9.4061 19.637 9.19819C19.5187 9.02962 19.3539 8.87469 18.775 8.36014L12.8803 3.12045C12.6114 2.88138 12.4482 2.73707 12.3177 2.63671C12.2572 2.59019 12.218 2.5644 12.1928 2.54974C12.1702 2.53654 12.161 2.53356 12.1607 2.53345Z" fill="white"/>
</g>
<defs>
<clipPath id="clip0">
<rect width="24" height="24" fill="white"/>
</clipPath>
</defs>
</svg>
