<svg width="24" height="24" viewBox="0 0 24 24" fill="none" xmlns="http://www.w3.org/2000/svg">
<path fill-rule="evenodd" clip-rule="evenodd" d="M16 6C16 8.20914 14.2091 10 12 10C9.79086 10 8 8.20914 8 6C8 3.79086 9.79086 2 12 2C14.2091 2 16 3.79086 16 6ZM11.6527 12.0029C4.43804 12.1243 2.5 16.0234 2.5 17.5C2.5 19 3.5 20 5 20H11.6546C10.9232 18.8423 10.5 17.4706 10.5 16C10.5 14.5307 10.9225 13.16 11.6527 12.0029ZM23.5 16C23.5 19.0376 21.0376 21.5 18 21.5C14.9624 21.5 12.5 19.0376 12.5 16C12.5 12.9624 14.9624 10.5 18 10.5C21.0376 10.5 23.5 12.9624 23.5 16ZM16 15C15.4477 15 15 15.4477 15 16C15 16.5523 15.4477 17 16 17H20C20.5523 17 21 16.5523 21 16C21 15.4477 20.5523 15 20 15H16Z" fill="black"/>
</svg>
