<svg width="24" height="24" viewBox="0 0 24 24" fill="none" xmlns="http://www.w3.org/2000/svg">
<path fill-rule="evenodd" clip-rule="evenodd" d="M7.80072 19.9077C8.79815 19.9981 10.094 20 12 20C13.906 20 15.2018 19.9981 16.1993 19.9077C17.1692 19.8198 17.659 19.661 18 19.4641C18.6081 19.113 19.113 18.6081 19.4641 18C19.661 17.659 19.8198 17.1692 19.9077 16.1993C19.9981 15.2018 20 13.906 20 12C20 10.094 19.9981 8.79815 19.9077 7.80072C19.8198 6.83078 19.661 6.34102 19.4641 6C19.113 5.39192 18.6081 4.88697 18 4.5359C17.659 4.33901 17.1692 4.18023 16.1993 4.09232C15.2018 4.00192 13.906 4 12 4C10.094 4 8.79815 4.00192 7.80072 4.09232C6.83078 4.18023 6.34102 4.33901 6 4.5359C5.39192 4.88697 4.88697 5.39192 4.5359 6C4.33901 6.34102 4.18023 6.83078 4.09232 7.80072C4.00192 8.79815 4 10.094 4 12C4 13.906 4.00192 15.2018 4.09232 16.1993C4.18023 17.1692 4.33901 17.659 4.5359 18C4.88697 18.6081 5.39192 19.113 6 19.4641C6.34102 19.661 6.83078 19.8198 7.80072 19.9077ZM2.80385 5C2 6.3923 2 8.26154 2 12C2 15.7385 2 17.6077 2.80385 19C3.33046 19.9121 4.08788 20.6695 5 21.1962C6.3923 22 8.26154 22 12 22C15.7385 22 17.6077 22 19 21.1962C19.9121 20.6695 20.6695 19.9121 21.1962 19C22 17.6077 22 15.7385 22 12C22 8.26154 22 6.3923 21.1962 5C20.6695 4.08788 19.9121 3.33046 19 2.80385C17.6077 2 15.7385 2 12 2C8.26154 2 6.3923 2 5 2.80385C4.08788 3.33046 3.33046 4.08788 2.80385 5ZM12 14.75C13.5188 14.75 14.75 13.5188 14.75 12C14.75 10.4812 13.5188 9.25 12 9.25C10.4812 9.25 9.25 10.4812 9.25 12C9.25 13.5188 10.4812 14.75 12 14.75ZM12 16.75C14.6234 16.75 16.75 14.6234 16.75 12C16.75 9.37665 14.6234 7.25 12 7.25C9.37665 7.25 7.25 9.37665 7.25 12C7.25 14.6234 9.37665 16.75 12 16.75ZM17 8.5C17.8284 8.5 18.5 7.82843 18.5 7C18.5 6.17157 17.8284 5.5 17 5.5C16.1716 5.5 15.5 6.17157 15.5 7C15.5 7.82843 16.1716 8.5 17 8.5Z" fill="black"/>
</svg>
