<svg width="16" height="16" viewBox="0 0 16 16" fill="none" xmlns="http://www.w3.org/2000/svg">
<path d="M1.70001 7.3C1.70001 3.82061 4.52062 1 8.00001 1C11.4794 1 14.3 3.82061 14.3 7.3V9.29694L14.3 9.3V12.3C14.3 13.2941 13.4941 14.1 12.5 14.1H11C10.5582 14.1 10.2 13.7418 10.2 13.3V9.3C10.2 8.85817 10.5582 8.5 11 8.5H12.7V7.3C12.7 4.70426 10.5958 2.6 8.00001 2.6C5.40427 2.6 3.30001 4.70426 3.30001 7.3V8.5H5.00001C5.44184 8.5 5.80001 8.85817 5.80001 9.3V13.3C5.80001 13.7418 5.44184 14.1 5.00001 14.1H3.50001C2.5059 14.1 1.70001 13.2941 1.70001 12.3V7.3Z" fill="black"/>
</svg>
