<svg width="24" height="24" viewBox="0 0 24 24" fill="none" xmlns="http://www.w3.org/2000/svg">
    <g clip-path="url(#ic-linkedin-24_svg__clip0)">
        <path d="M5.08594 18.7448H8.09375V9.70834H5.08594V18.7448ZM8.28906 6.92188C8.28038 6.47049 8.12413 6.09722 7.82031 5.80208C7.51649 5.50695 7.11285 5.35938 6.60938 5.35938C6.1059 5.35938 5.69575 5.50695 5.37891 5.80208C5.06207 6.09722 4.90365 6.47049 4.90365 6.92188C4.90365 7.36458 5.05773 7.73568 5.36589 8.03516C5.67405 8.33464 6.07552 8.48438 6.57031 8.48438H6.58333C7.09549 8.48438 7.50781 8.33464 7.82031 8.03516C8.13281 7.73568 8.28906 7.36458 8.28906 6.92188ZM15.9062 18.7448H18.9141V13.5625C18.9141 12.2257 18.5972 11.2144 17.9635 10.5286C17.3299 9.84288 16.4922 9.5 15.4505 9.5C14.27 9.5 13.3628 10.0078 12.7292 11.0234H12.7552V9.70834H9.7474C9.77344 10.2813 9.77344 13.2934 9.7474 18.7448H12.7552V13.6927C12.7552 13.3629 12.7856 13.1198 12.8464 12.9635C12.9766 12.6597 13.1719 12.4015 13.4323 12.1888C13.6927 11.9761 14.0139 11.8698 14.3958 11.8698C15.4028 11.8698 15.9062 12.5512 15.9062 13.9141V18.7448ZM22 5.75V18.25C22 19.283 21.6332 20.1662 20.8997 20.8997C20.1662 21.6333 19.283 22 18.25 22H5.75C4.71701 22 3.83377 21.6333 3.10026 20.8997C2.36675 20.1662 2 19.283 2 18.25V5.75C2 4.71701 2.36675 3.83377 3.10026 3.10026C3.83377 2.36675 4.71701 2 5.75 2H18.25C19.283 2 20.1662 2.36675 20.8997 3.10026C21.6332 3.83377 22 4.71701 22 5.75Z" fill="black"/>
    </g>
    <defs>
        <clipPath id="ic-linkedin-24_svg__clip0">
            <rect width="24" height="24" fill="white"/>
        </clipPath>
    </defs>
</svg>
