<svg width="24" height="24" viewBox="0 0 24 24" fill="none" xmlns="http://www.w3.org/2000/svg">
<g clip-path="url(#clip0)">
<path fill-rule="evenodd" clip-rule="evenodd" d="M1.93203 5.6509C2.96336 3.73556 4.84549 2.5 7 2.5C9.17214 2.5 10.6786 3.74942 11.5886 4.86941C11.7393 5.05484 11.8763 5.23974 12 5.41923C12.1237 5.23974 12.2607 5.05484 12.4114 4.86941C13.3214 3.74942 14.8279 2.5 17 2.5C19.1545 2.5 21.0366 3.73557 22.068 5.6509C23.1022 7.57159 23.2729 10.1354 22.1785 12.8714C21.0764 15.6265 18.586 18.0121 16.4939 19.6605C15.4304 20.4984 14.4331 21.1739 13.7015 21.6402C13.3352 21.8736 13.0342 22.0555 12.8232 22.1799C12.7176 22.2421 12.6345 22.29 12.5768 22.3228C12.5561 22.3346 12.5387 22.3445 12.5247 22.3523C12.5191 22.3554 12.5142 22.3582 12.5097 22.3607L12.4912 22.3711L12.4858 22.3741L12.4841 22.375C12.4839 22.3751 12.4831 22.3756 12 21.5C11.5169 22.3756 11.5167 22.3755 11.5165 22.3753L11.5142 22.3741L11.5088 22.3711L11.4903 22.3607C11.4746 22.3519 11.4521 22.3393 11.4232 22.3228C11.3655 22.29 11.2824 22.2421 11.1768 22.1799C10.9658 22.0555 10.6648 21.8736 10.2985 21.6402C9.56688 21.1739 8.56965 20.4984 7.50613 19.6605C5.41399 18.0121 2.92359 15.6266 1.82152 12.8714C0.727118 10.1354 0.89781 7.57159 1.93203 5.6509ZM12 21.5L11.5165 22.3753C11.8172 22.5412 12.1824 22.5415 12.4831 22.3756L12 21.5ZM12 20.3422C12.1714 20.239 12.3831 20.1088 12.6266 19.9536C13.3169 19.5136 14.2571 18.8766 15.2561 18.0895C17.289 16.4879 19.4236 14.3735 20.3215 12.1286C21.2271 9.86461 21.0228 7.92841 20.307 6.5991C19.5884 5.26444 18.3455 4.5 17 4.5C15.6721 4.5 14.6786 5.25058 13.9636 6.13059C13.6107 6.56496 13.3492 7.00435 13.176 7.33693C13.09 7.50204 13.0274 7.63767 12.9874 7.72894C12.9675 7.7745 12.9533 7.80874 12.9448 7.8298L12.9363 7.85115C12.7898 8.24109 12.4166 8.5 12 8.5C11.5841 8.5 11.2117 8.24259 11.0647 7.85377C11.0645 7.85338 11.0644 7.85299 11.0642 7.85261C11.0642 7.85243 11.0643 7.85278 11.0642 7.85261L11.0552 7.8298C11.0467 7.80874 11.0325 7.7745 11.0126 7.72894C10.9726 7.63767 10.91 7.50204 10.824 7.33693C10.6508 7.00435 10.3893 6.56496 10.0364 6.13059C9.32137 5.25058 8.32785 4.5 7 4.5C5.65451 4.5 4.41163 5.26444 3.69297 6.5991C2.97718 7.92841 2.77287 9.86461 3.67847 12.1286C4.57641 14.3734 6.711 16.4879 8.74387 18.0895C9.74285 18.8766 10.6831 19.5136 11.3734 19.9536C11.6169 20.1088 11.8286 20.239 12 20.3422Z" fill="black"/>
</g>
<defs>
<clipPath id="clip0">
<rect width="24" height="24" fill="white"/>
</clipPath>
</defs>
</svg>
