<svg width="24" height="24" viewBox="0 0 24 24" fill="none" xmlns="http://www.w3.org/2000/svg">
    <path fill-rule="evenodd" clip-rule="evenodd" d="M3.63315 6.61643C4.32322 5.15964 5.71685 4.25 7.49846 4.25C9.26753 4.25 10.572 5.13792 11.4038 5.96967C11.6341 6.20003 11.8322 6.42978 11.9985 6.64181C12.1647 6.42978 12.3628 6.20003 12.5931 5.96967C13.4249 5.13792 14.7294 4.25 16.4985 4.25C18.2801 4.25 19.6737 5.15964 20.3638 6.61644C21.0401 8.04423 21.0002 9.89989 20.1878 11.7954C19.5099 13.3773 18.0476 14.9776 16.639 16.2774C15.2103 17.5957 13.7496 18.6826 12.9799 19.231C12.3906 19.6508 11.6063 19.6508 11.0171 19.231C10.2473 18.6826 8.78666 17.5957 7.35795 16.2774C5.94933 14.9776 4.48703 13.3773 3.8091 11.7954C2.99672 9.89989 2.95683 8.04423 3.63315 6.61643Z" fill="black"/>
</svg>
