<svg width="24" height="24" viewBox="0 0 24 24" fill="none" xmlns="http://www.w3.org/2000/svg">
<g clip-path="url(#clip0)">
<path fill-rule="evenodd" clip-rule="evenodd" d="M6.49998 2.5C4.2585 2.5 2.3387 4.07856 1.34944 6.12775C0.342654 8.21322 0.207487 10.9326 1.62583 13.4856C2.98218 15.9271 5.49986 18.156 7.58363 19.7346C8.64057 20.5353 9.61615 21.191 10.3279 21.6468C10.6841 21.8749 10.9752 22.0536 11.1786 22.1761C11.2803 22.2373 11.3601 22.2845 11.4153 22.3168L11.4791 22.354L11.4965 22.364L11.5014 22.3669L11.5035 22.368C11.8109 22.5437 12.1887 22.5439 12.4961 22.3682L12 21.5C12.4961 22.3682 12.497 22.3677 12.497 22.3677L12.4985 22.3669L12.5035 22.364L12.5209 22.354L12.5847 22.3168C12.6399 22.2845 12.7197 22.2373 12.8214 22.1761C13.0248 22.0537 13.3159 21.8749 13.6721 21.6468C14.3838 21.191 15.3594 20.5353 16.4163 19.7346C18.5001 18.156 21.0178 15.9271 22.3742 13.4856C23.7925 10.9326 23.6573 8.21322 22.6505 6.12775C21.6613 4.07856 19.7415 2.5 17.5 2.5C15.0757 2.5 13.4404 3.87633 12.4606 5.13606C12.29 5.35539 12.1368 5.57408 12 5.78566C11.8632 5.57408 11.7099 5.35539 11.5393 5.13606C10.5595 3.87633 8.92429 2.5 6.49998 2.5ZM12 21.5L11.5035 22.368C11.5035 22.368 11.5038 22.3682 12 21.5ZM12.5935 19.9626C12.3642 20.1094 12.1641 20.2342 12 20.3349C11.8359 20.2342 11.6358 20.1094 11.4065 19.9626C10.7276 19.5278 9.79691 18.9022 8.79135 18.1404C6.75013 16.594 4.5178 14.5729 3.37414 12.5144C2.29248 10.5674 2.40732 8.53678 3.15054 6.99725C3.91128 5.42144 5.24148 4.5 6.49998 4.5C8.07568 4.5 9.19042 5.37367 9.96063 6.36394C10.3435 6.85625 10.6207 7.35398 10.8021 7.73069C10.8922 7.91778 10.957 8.07164 10.9982 8.17549C11.0188 8.22732 11.0334 8.26642 11.0422 8.29065L11.051 8.31548L11.0515 8.31692C10.9603 8.04388 13.0396 8.04406 12.9484 8.31692L12.949 8.31548L12.9578 8.29065C12.9666 8.26642 12.9812 8.22732 13.0017 8.17549C13.043 8.07164 13.1078 7.91777 13.1979 7.73069C13.3792 7.35398 13.6564 6.85625 14.0393 6.36394C14.8096 5.37367 15.9243 4.5 17.5 4.5C18.7585 4.5 20.0887 5.42144 20.8494 6.99725C21.5927 8.53678 21.7075 10.5674 20.6258 12.5144C19.4822 14.5729 17.2499 16.594 15.2086 18.1404C14.2031 18.9022 13.2724 19.5278 12.5935 19.9626Z" fill="black"/>
<path d="M12.9484 8.31692C13.0396 8.04406 10.9603 8.04388 11.0515 8.31692L11.0522 8.31878C11.189 8.72572 11.5705 9 12 9C12.4302 9 12.8121 8.72488 12.9484 8.31692Z" fill="black"/>
</g>
<defs>
<clipPath id="clip0">
<rect width="24" height="24" fill="white"/>
</clipPath>
</defs>
</svg>
