<svg width="24" height="24" viewBox="0 0 24 24" fill="none" xmlns="http://www.w3.org/2000/svg">
<g clip-path="url(#clip0)">
<path d="M9.77506 14.5533C10.0062 14.0581 10.1218 13.8104 10.2809 13.7329C10.4192 13.6654 10.5808 13.6654 10.7191 13.7329C10.8782 13.8104 10.9938 14.0581 11.2249 14.5533L12.0475 16.3159C12.0931 16.4135 12.1159 16.4623 12.1475 16.5042C12.1755 16.5414 12.2086 16.5745 12.2458 16.6025C12.2877 16.6341 12.3365 16.6569 12.4341 16.7025L14.1967 17.5251C14.6919 17.7562 14.9396 17.8718 15.0171 18.0309C15.0846 18.1692 15.0846 18.3308 15.0171 18.4691C14.9396 18.6282 14.6919 18.7438 14.1967 18.9749L12.4341 19.7975C12.3365 19.8431 12.2877 19.8659 12.2458 19.8975C12.2086 19.9255 12.1755 19.9586 12.1475 19.9958C12.1159 20.0377 12.0931 20.0865 12.0475 20.1841L11.2249 21.9467C10.9938 22.4419 10.8782 22.6896 10.7191 22.7671C10.5808 22.8346 10.4192 22.8346 10.2809 22.7671C10.1218 22.6896 10.0062 22.4419 9.77506 21.9467L8.95248 20.1841C8.90692 20.0865 8.88414 20.0377 8.85254 19.9958C8.82451 19.9586 8.79141 19.9255 8.75422 19.8975C8.71229 19.8659 8.66349 19.8431 8.56587 19.7975L6.80332 18.9749C6.30806 18.7438 6.06043 18.6282 5.98286 18.4691C5.91542 18.3308 5.91542 18.1692 5.98286 18.0309C6.06043 17.8718 6.30806 17.7562 6.80332 17.5251L8.56587 16.7025C8.66349 16.6569 8.71229 16.6341 8.75422 16.6025C8.79141 16.5745 8.82451 16.5414 8.85254 16.5042C8.88414 16.4623 8.90692 16.4135 8.95248 16.3159L9.77506 14.5533Z" fill="black"/>
<path d="M17.5251 7.55332C17.7562 7.05806 17.8718 6.81043 18.0309 6.73286C18.1692 6.66542 18.3308 6.66542 18.4691 6.73286C18.6282 6.81043 18.7438 7.05806 18.9749 7.55332L20.0362 9.82722C20.0817 9.92484 20.1045 9.97364 20.1361 10.0156C20.1641 10.0528 20.1972 10.0859 20.2344 10.1139C20.2764 10.1455 20.3252 10.1683 20.4228 10.2138L22.6967 11.2751C23.1919 11.5062 23.4396 11.6218 23.5171 11.7809C23.5846 11.9192 23.5846 12.0808 23.5171 12.2191C23.4396 12.3782 23.1919 12.4938 22.6967 12.7249L20.4228 13.7862C20.3252 13.8317 20.2764 13.8545 20.2344 13.8861C20.1972 13.9141 20.1641 13.9472 20.1361 13.9844C20.1045 14.0264 20.0817 14.0752 20.0362 14.1728L18.9749 16.4467C18.7438 16.9419 18.6282 17.1896 18.4691 17.2671C18.3308 17.3346 18.1692 17.3346 18.0309 17.2671C17.8718 17.1896 17.7562 16.9419 17.5251 16.4467L16.4638 14.1728C16.4183 14.0752 16.3955 14.0264 16.3639 13.9844C16.3359 13.9472 16.3028 13.9141 16.2656 13.8861C16.2236 13.8545 16.1748 13.8317 16.0772 13.7862L13.8033 12.7249C13.3081 12.4938 13.0604 12.3782 12.9829 12.2191C12.9154 12.0808 12.9154 11.9192 12.9829 11.7809C13.0604 11.6218 13.3081 11.5062 13.8033 11.2751L16.0772 10.2138C16.1748 10.1683 16.2236 10.1455 16.2656 10.1139C16.3028 10.0859 16.3359 10.0528 16.3639 10.0156C16.3955 9.97364 16.4183 9.92484 16.4638 9.82722L17.5251 7.55332Z" fill="black"/>
<path d="M6.52506 2.05332C6.7562 1.55806 6.87177 1.31043 7.03087 1.23286C7.16918 1.16542 7.33082 1.16542 7.46913 1.23286C7.62823 1.31043 7.7438 1.55806 7.97494 2.05332L9.27482 4.83857C9.32038 4.93619 9.34315 4.985 9.37476 5.02692C9.40279 5.06412 9.43588 5.09721 9.47308 5.12524C9.515 5.15685 9.56381 5.17962 9.66143 5.22518L12.4467 6.52506C12.9419 6.7562 13.1896 6.87177 13.2671 7.03087C13.3346 7.16918 13.3346 7.33082 13.2671 7.46913C13.1896 7.62823 12.9419 7.7438 12.4467 7.97494L9.66143 9.27482C9.56381 9.32038 9.515 9.34315 9.47308 9.37476C9.43588 9.40279 9.40279 9.43588 9.37476 9.47308C9.34315 9.515 9.32038 9.56381 9.27482 9.66143L7.97494 12.4467C7.7438 12.9419 7.62823 13.1896 7.46913 13.2671C7.33082 13.3346 7.16918 13.3346 7.03087 13.2671C6.87177 13.1896 6.7562 12.9419 6.52506 12.4467L5.22518 9.66143C5.17962 9.56381 5.15685 9.515 5.12524 9.47308C5.09721 9.43588 5.06412 9.40279 5.02692 9.37476C4.985 9.34315 4.93619 9.32038 4.83857 9.27482L2.05332 7.97494C1.55806 7.7438 1.31043 7.62823 1.23286 7.46913C1.16542 7.33082 1.16542 7.16918 1.23286 7.03087C1.31043 6.87177 1.55806 6.7562 2.05332 6.52506L4.83857 5.22518C4.93619 5.17962 4.985 5.15685 5.02692 5.12524C5.06412 5.09721 5.09721 5.06412 5.12524 5.02692C5.15685 4.985 5.17962 4.93619 5.22518 4.83857L6.52506 2.05332Z" fill="black"/>
</g>
<defs>
<clipPath id="clip0">
<path d="M0 0H24V24H0V0Z" fill="white"/>
</clipPath>
</defs>
</svg>
