<svg width="16" height="16" viewBox="0 0 16 16" fill="none" xmlns="http://www.w3.org/2000/svg">
<path fill-rule="evenodd" clip-rule="evenodd" d="M2.55084 1.16516C2.16264 0.908426 1.63478 0.951005 1.29289 1.29289C0.902369 1.68342 0.902369 2.31658 1.29289 2.70711L6.05546 7.46967C6.2305 8.197 6.803 8.7695 7.53033 8.94454L9.40639 10.8206C8.99518 10.9342 8.528 11 8 11C5.05229 11 4 8.94771 4 8C4 7.44772 3.55228 7 3 7C2.44772 7 2 7.44772 2 8C2 9.87558 3.62676 12.499 7 12.9369V15C7 15.5523 7.44772 16 8 16C8.55229 16 9 15.5523 9 15V12.9369C9.73443 12.8416 10.3861 12.6426 10.9562 12.3704L13.2929 14.7071C13.6834 15.0976 14.3166 15.0976 14.7071 14.7071C15.049 14.3652 15.0916 13.8374 14.8348 13.4492L2.55084 1.16516ZM13.6994 9.48525C13.9004 8.97401 14 8.46411 14 8C14 7.44772 13.5523 7 13 7C12.5145 7 12.1098 7.34602 12.019 7.8049L13.6994 9.48525ZM10 5.78588V2C10 0.895431 9.10457 0 8 0C6.96425 0 6.11239 0.787329 6.01026 1.79615L10 5.78588Z" fill="black"/>
</svg>
