<svg width="24" height="24" viewBox="0 0 24 24" fill="none" xmlns="http://www.w3.org/2000/svg">
    <g clip-path="url(#ic-message-24_svg__clip0)">
        <path fill-rule="evenodd" clip-rule="evenodd" d="M8.2587 2H15.7413C16.5463 1.99999 17.2106 1.99998 17.7518 2.04419C18.3139 2.09012 18.8306 2.18868 19.316 2.43597C20.0686 2.81947 20.6805 3.43139 21.064 4.18404C21.3113 4.66937 21.4099 5.18608 21.4558 5.74817C21.5 6.28936 21.5 6.95372 21.5 7.75868V12.2413C21.5 13.0463 21.5 13.7106 21.4558 14.2518C21.4099 14.8139 21.3113 15.3306 21.064 15.816C20.6805 16.5686 20.0686 17.1805 19.316 17.564C18.8306 17.8113 18.3139 17.9099 17.7518 17.9558C17.2106 18 16.5463 18 15.7413 18H14.9882C14.2069 18 13.9792 18.0064 13.7758 18.0553C13.5717 18.1043 13.3766 18.1851 13.1976 18.2947C13.0193 18.404 12.8537 18.5605 12.3012 19.113L8.88995 22.5243C8.88382 22.5304 8.87759 22.5366 8.87126 22.543C8.78145 22.6329 8.67248 22.7419 8.57232 22.8258C8.48975 22.8949 8.2298 23.1126 7.84807 23.1426C7.44918 23.174 7.05936 23.0125 6.79949 22.7083C6.55082 22.4171 6.52097 22.0802 6.51146 21.9729C6.49993 21.8428 6.49993 21.6878 6.49999 21.5608C6.5 21.5518 6.5 21.543 6.5 21.5343V17.9938C6.15866 17.9839 5.86547 17.959 5.59581 17.8965C4.10925 17.5515 2.9485 16.3908 2.60354 14.9042C2.49939 14.4554 2.49964 13.9415 2.49996 13.2488C2.49998 13.2095 2.5 13.1696 2.5 13.129L2.5 7.7587C2.49999 6.95373 2.49998 6.28937 2.54419 5.74818C2.59012 5.18608 2.68868 4.66937 2.93597 4.18404C3.31947 3.43139 3.93139 2.81947 4.68404 2.43597C5.16937 2.18868 5.68608 2.09012 6.24817 2.04419C6.78937 1.99998 7.45373 1.99999 8.2587 2ZM6.41104 4.03755C5.97262 4.07337 5.74842 4.1383 5.59202 4.21799C5.2157 4.40973 4.90973 4.7157 4.71799 5.09202C4.6383 5.24842 4.57337 5.47262 4.53755 5.91104C4.50078 6.36113 4.5 6.94342 4.5 7.8V13.129C4.5 13.9945 4.50653 14.2571 4.55177 14.4521C4.72425 15.1954 5.30463 15.7758 6.0479 15.9482C6.24287 15.9935 6.50547 16 7.37097 16L7.37287 16C7.38198 16 7.41248 15.9999 7.44243 16.0011C7.47961 16.0026 7.55602 16.007 7.64865 16.0285C8.05746 16.1233 8.37666 16.4425 8.47153 16.8513C8.49303 16.944 8.49741 17.0204 8.49889 17.0576C8.50008 17.0875 8.50002 17.118 8.5 17.1271L8.5 17.129V20.0858L10.887 17.6988C10.9113 17.6745 10.9353 17.6504 10.959 17.6267C11.4078 17.1775 11.7469 16.8381 12.1526 16.5894C12.5105 16.3701 12.9007 16.2085 13.3089 16.1105C13.7716 15.9994 14.2513 15.9997 14.8863 16C14.9199 16 14.9538 16 14.9882 16H15.7C16.5566 16 17.1389 15.9992 17.589 15.9624C18.0274 15.9266 18.2516 15.8617 18.408 15.782C18.7843 15.5903 19.0903 15.2843 19.282 14.908C19.3617 14.7516 19.4266 14.5274 19.4624 14.089C19.4992 13.6389 19.5 13.0566 19.5 12.2V7.8C19.5 6.94342 19.4992 6.36113 19.4624 5.91104C19.4266 5.47262 19.3617 5.24842 19.282 5.09202C19.0903 4.7157 18.7843 4.40973 18.408 4.21799C18.2516 4.1383 18.0274 4.07337 17.589 4.03755C17.1389 4.00078 16.5566 4 15.7 4H8.3C7.44342 4 6.86113 4.00078 6.41104 4.03755ZM8.50354 21.7949C8.50355 21.7952 8.50352 21.7947 8.50354 21.7949V21.7949Z" fill="black"/>
    </g>
    <defs>
        <clipPath id="ic-message-24_svg__clip0">
            <rect width="24" height="24" fill="white"/>
        </clipPath>
    </defs>
</svg>
