<svg width="24" height="24" viewBox="0 0 24 24" fill="none" xmlns="http://www.w3.org/2000/svg">
<path fill-rule="evenodd" clip-rule="evenodd" d="M16.25 3C16.25 2.30964 15.6904 1.75 15 1.75C14.3096 1.75 13.75 2.30964 13.75 3V9C13.75 9.69036 14.3096 10.25 15 10.25H21C21.6904 10.25 22.25 9.69036 22.25 9C22.25 8.30964 21.6904 7.75 21 7.75H18.0178L21.8839 3.88388C22.372 3.39573 22.372 2.60427 21.8839 2.11612C21.3957 1.62796 20.6043 1.62796 20.1161 2.11612L16.25 5.98223V3ZM1.75 15C1.75 15.6904 2.30964 16.25 3 16.25H5.98223L2.11612 20.1161C1.62796 20.6043 1.62796 21.3957 2.11612 21.8839C2.60427 22.372 3.39573 22.372 3.88388 21.8839L7.75 18.0178V21C7.75 21.6904 8.30964 22.25 9 22.25C9.69036 22.25 10.25 21.6904 10.25 21V15C10.25 14.3096 9.69036 13.75 9 13.75H3C2.30964 13.75 1.75 14.3096 1.75 15Z"/>
</svg>
