<svg width="24" height="24" viewBox="0 0 24 24" fill="none" xmlns="http://www.w3.org/2000/svg">
<path d="M15.7 4H8.3C6.61984 4 5.77976 4 5.13803 4.32698C4.57354 4.6146 4.1146 5.07354 3.82698 5.63803C3.5 6.27976 3.5 7.11984 3.5 8.8V14.129C3.5 14.9387 3.5 15.3435 3.57765 15.6781C3.83637 16.7931 4.70694 17.6636 5.82186 17.9223C6.15648 18 6.56131 18 7.37097 18C7.39796 18 7.41145 18 7.4226 18.0026C7.45977 18.0112 7.48879 18.0402 7.49741 18.0774C7.5 18.0885 7.5 18.102 7.5 18.129V20.1373C7.5 21.3489 7.5 21.9547 7.73959 22.2352C7.94749 22.4786 8.25934 22.6078 8.57846 22.5827C8.94624 22.5538 9.37461 22.1254 10.2314 21.2686L10.2314 21.2686L12.0941 19.4059C12.613 18.887 12.8724 18.6276 13.1751 18.4421C13.4436 18.2776 13.7362 18.1564 14.0423 18.0829C14.3876 18 14.7545 18 15.4882 18H15.7C17.3802 18 18.2202 18 18.862 17.673C19.4265 17.3854 19.8854 16.9265 20.173 16.362C20.5 15.7202 20.5 14.8802 20.5 13.2V8.8C20.5 7.11984 20.5 6.27976 20.173 5.63803C19.8854 5.07354 19.4265 4.6146 18.862 4.32698C18.2202 4 17.3802 4 15.7 4Z" fill="black"/>
</svg>
