<svg width="24" height="24" viewBox="0 0 24 24" fill="none" xmlns="http://www.w3.org/2000/svg">
<g clip-path="url(#clip0)">
<path d="M8.5 18H6.19276C5.23936 18 4.76266 18 4.4379 17.8316C4.00487 17.607 3.7081 17.1859 3.64224 16.7025C3.59285 16.34 3.75318 15.8911 4.07384 14.9932L5.23784 11.7341C5.32496 11.4901 5.36852 11.3682 5.40127 11.2437C5.44493 11.0777 5.47428 10.9083 5.48898 10.7373C5.5 10.6091 5.5 10.4796 5.5 10.2205V9C5.5 5.5 8 2.5 12 2.5C16 2.5 18.5 5.5 18.5 9V10.2205C18.5 10.4796 18.5 10.6091 18.511 10.7373C18.5257 10.9083 18.5551 11.0777 18.5987 11.2437C18.6315 11.3682 18.675 11.4901 18.7622 11.7341L19.9262 14.9932C20.2468 15.8911 20.4072 16.34 20.3578 16.7025C20.2919 17.1859 19.9951 17.607 19.5621 17.8316C19.2373 18 18.7606 18 17.8072 18H15.5M8.5 18C8.5 18 9 21.5 12 21.5C15 21.5 15.5 18 15.5 18M8.5 18H15.5" stroke="black" stroke-width="2"/>
</g>
<defs>
<clipPath id="clip0">
<rect width="24" height="24" fill="white"/>
</clipPath>
</defs>
</svg>
