<svg width="24" height="24" viewBox="0 0 24 24" fill="none" xmlns="http://www.w3.org/2000/svg">
    <g clip-path="url(#ic-premium-24_svg__clip0)">
        <path fill-rule="evenodd" clip-rule="evenodd" d="M12 0C12.4332 0 12.8172 0.278926 12.9511 0.690914L15.7285 9.23677L21.3357 4.25259C21.6469 3.97593 22.097 3.92111 22.4656 4.11498C22.8341 4.30885 23.044 4.71082 22.9923 5.12403L21.4971 17.0855C21.4156 17.7378 21.348 18.2787 21.2608 18.7201C21.1699 19.1802 21.0458 19.6003 20.8187 19.9949C20.382 20.7538 19.7084 21.3485 18.9011 21.6877C18.4814 21.8641 18.0492 21.9351 17.5814 21.9682C17.1326 22 16.5874 22 15.9301 22H8.06993C7.41264 22 6.86746 22 6.41868 21.9682C5.95091 21.9351 5.51868 21.8641 5.09892 21.6877C4.29168 21.3485 3.61802 20.7538 3.18134 19.9949C2.95426 19.6003 2.8302 19.1802 2.73929 18.7201C2.65208 18.2788 2.58446 17.7378 2.50294 17.0856L1.00775 5.12403C0.956102 4.71082 1.16593 4.30885 1.53448 4.11498C1.90303 3.92111 2.35315 3.97593 2.6644 4.25259L8.2716 9.23677L11.049 0.690914C11.1829 0.278926 11.5668 0 12 0ZM12 4.23534L9.70107 11.3091C9.59676 11.63 9.3376 11.8767 9.0119 11.9651C8.6862 12.0535 8.3379 11.9716 8.08567 11.7474L3.32194 7.51298L4.48316 16.8027C4.57013 17.4985 4.6295 17.9688 4.70135 18.3324C4.77105 18.6852 4.84038 18.868 4.91486 18.9974C5.1332 19.3769 5.47003 19.6743 5.87365 19.8439C6.01133 19.9017 6.20137 19.9478 6.56003 19.9732C6.92975 19.9994 7.4038 20 8.10497 20H15.8951C16.5963 20 17.0703 19.9994 17.44 19.9732C17.7987 19.9478 17.9887 19.9017 18.1264 19.8439C18.53 19.6743 18.8669 19.3769 19.0852 18.9974C19.1597 18.868 19.229 18.6852 19.2987 18.3324C19.3706 17.9688 19.4299 17.4985 19.5169 16.8027L20.6781 7.51298L15.9144 11.7474C15.6622 11.9716 15.3139 12.0535 14.9882 11.9651C14.6625 11.8767 14.4033 11.63 14.299 11.3091L12 4.23534Z" fill="#71747A"/>
    </g>
    <defs>
        <clipPath id="ic-premium-24_svg__clip0">
            <rect width="24" height="24" fill="white"/>
        </clipPath>
    </defs>
</svg>
