<svg width="24" height="24" viewBox="0 0 24 24" fill="none" xmlns="http://www.w3.org/2000/svg">
<g clip-path="url(#clip0)">
<path fill-rule="evenodd" clip-rule="evenodd" d="M16.118 3.84053C15.7163 3.71002 15.2837 3.71002 14.882 3.84053C14.715 3.89477 14.5106 4.0074 14.1752 4.29208C13.831 4.58434 13.4187 4.99553 12.813 5.60123L11.777 6.63721L11.7223 6.69197C11.4019 7.01262 11.1542 7.2605 10.8761 7.46193L16.5381 13.1239C16.7395 12.8458 16.9874 12.5981 17.308 12.2777L17.3628 12.223L18.3988 11.187C19.0045 10.5813 19.4157 10.169 19.7079 9.82476C19.9926 9.48942 20.1052 9.28498 20.1595 9.11804C20.29 8.71635 20.29 8.28366 20.1595 7.88197C20.1052 7.71503 19.9926 7.51058 19.7079 7.17525C19.4157 6.83099 19.0045 6.41869 18.3988 5.813L18.187 5.60122C17.5813 4.99553 17.169 4.58434 16.8248 4.29208C16.4894 4.0074 16.285 3.89477 16.118 3.84053ZM17.9917 14.5774C18.0352 14.488 18.0854 14.4019 18.1418 14.3198C18.2339 14.1858 18.3542 14.06 18.777 13.6372L19.813 12.6012L19.8422 12.572C20.4114 12.0028 20.8812 11.5331 21.2326 11.1191C21.5976 10.6892 21.8933 10.2541 22.0616 9.73607C22.3226 8.9327 22.3226 8.06731 22.0616 7.26394C21.8933 6.74589 21.5976 6.31083 21.2326 5.8809C20.8812 5.46698 20.4115 4.99727 19.8424 4.42814L19.8423 4.4281L19.8423 4.42805L19.813 4.39879L19.6012 4.18701L19.572 4.1578L19.572 4.15778L19.5719 4.15767C19.0028 3.58852 18.533 3.11879 18.1191 2.7674C17.6892 2.40241 17.2541 2.10674 16.7361 1.93842C15.9327 1.67739 15.0673 1.67739 14.2639 1.93842C13.7459 2.10674 13.3108 2.40241 12.8809 2.7674C12.4669 3.11882 11.9972 3.5886 11.428 4.15782L11.3988 4.18701L10.3628 5.223C9.94003 5.64576 9.81423 5.76611 9.68025 5.8582C9.59813 5.91464 9.51199 5.96482 9.42256 6.00834L5.70711 2.29289C5.31658 1.90237 4.68342 1.90237 4.29289 2.29289C3.90237 2.68342 3.90237 3.31658 4.29289 3.70711L20.2929 19.7071C20.6834 20.0976 21.3166 20.0976 21.7071 19.7071C22.0976 19.3166 22.0976 18.6834 21.7071 18.2929L17.9917 14.5774ZM4.71223 6.92644L6.43106 8.64527L6.21322 8.68371C5.45906 8.8168 4.96205 8.90553 4.60646 9.00237C4.32091 9.08015 4.23502 9.1372 4.22359 9.14492C4.12943 9.25118 4.08489 9.3925 4.10109 9.53355C4.10602 9.54642 4.14367 9.64242 4.333 9.86989C4.56878 10.1531 4.92506 10.5108 5.46657 11.0524L9.20711 14.7929L12.9476 18.5334C13.4892 19.0749 13.8469 19.4312 14.1301 19.667C14.3576 19.8563 14.4536 19.894 14.4665 19.8989C14.6075 19.9151 14.7488 19.8706 14.8551 19.7764C14.8628 19.765 14.9199 19.6791 14.9976 19.3935C15.0945 19.0379 15.1832 18.5409 15.3163 17.7868L15.3547 17.5689L17.0736 19.2878C17.0264 19.5198 16.9786 19.7309 16.9273 19.9191C16.8039 20.3724 16.6171 20.8747 16.2123 21.2455C15.6674 21.7447 14.9297 21.9773 14.1971 21.8808C13.6527 21.8091 13.2117 21.5047 12.8506 21.2042C12.4884 20.9027 12.0658 20.4801 11.5672 19.9814L11.5334 19.9477L8.5 16.9142L3.70711 21.7071C3.31658 22.0976 2.68342 22.0976 2.29289 21.7071C1.90237 21.3166 1.90237 20.6834 2.29289 20.2929L7.08579 15.5L4.05235 12.4666L4.01869 12.4329C3.51997 11.9342 3.09735 11.5116 2.79582 11.1494C2.49529 10.7883 2.19091 10.3473 2.11922 9.80293C2.02274 9.07032 2.2553 8.33256 2.75446 7.78771C3.12535 7.38288 3.62763 7.19611 4.08089 7.07267C4.26908 7.02141 4.48018 6.97358 4.71223 6.92644Z" fill="black"/>
</g>
<defs>
<clipPath id="clip0">
<rect width="24" height="24" fill="white"/>
</clipPath>
</defs>
</svg>
