<svg width="24" height="24" viewBox="0 0 24 24" fill="none" xmlns="http://www.w3.org/2000/svg">
<path fill-rule="evenodd" clip-rule="evenodd" d="M13.2767 0.539158C13.5732 0.624638 13.8136 0.842162 13.9282 1.12861C14.7208 3.11021 16.1082 4.47507 17.5783 5.92116C17.7866 6.12611 17.9966 6.33269 18.2068 6.54289C19.8491 8.18523 21.4997 10.0649 21.4997 13C21.4997 18.5134 17.5901 22.75 11.9997 22.75C6.32324 22.75 2.63628 17.5005 2.50017 13.0304C2.43009 10.7289 3.27596 8.78464 4.10217 7.44593C4.51794 6.77225 4.93778 6.23697 5.25586 5.86775C5.41527 5.68271 5.55015 5.53818 5.64763 5.4376C5.69641 5.38727 5.73592 5.34785 5.76457 5.31976C5.7789 5.30572 5.79052 5.29449 5.79924 5.28615L5.81012 5.27579L5.81388 5.27224L5.81533 5.27087C5.81561 5.27061 5.8165 5.26978 6.4997 6.00001L5.8165 5.26978C6.08872 5.01509 6.48001 4.93296 6.83166 5.05671C7.18305 5.18037 7.43656 5.48909 7.48954 5.85777L7.49133 5.86974L7.49906 5.9188C7.50631 5.96357 7.51781 6.03181 7.53403 6.12014C7.56651 6.29699 7.61771 6.55324 7.69126 6.86214C7.83927 7.48379 8.07346 8.3002 8.41884 9.10609C8.77819 9.94456 9.20284 10.6523 9.69722 11.158C9.49437 10.4941 9.30599 9.71833 9.19574 8.88046C8.85747 6.30968 9.24984 2.99067 12.4115 0.691272C12.661 0.509811 12.9803 0.453677 13.2767 0.539158ZM12.3824 12.53C12.5473 12.8398 12.5378 13.2135 12.3572 13.5145C12.1765 13.8157 11.851 14 11.4997 14C8.82801 14 7.34215 11.671 6.58055 9.89393C6.33159 9.313 6.13518 8.73606 5.98259 8.2172C5.9233 8.30678 5.86366 8.39987 5.80413 8.49632C5.09931 9.63836 4.44518 11.1941 4.49924 12.9696C4.61142 16.6535 7.67615 20.75 11.9997 20.75C16.4093 20.75 19.4997 17.4866 19.4997 13C19.4997 10.9351 18.4003 9.56477 16.7926 7.9571C16.6006 7.76511 16.4008 7.56953 16.196 7.36906C15.0064 6.20467 13.6477 4.87475 12.6668 3.11786C11.1569 4.73117 10.9348 6.76639 11.1786 8.61955C11.322 9.70892 11.6251 10.6944 11.8962 11.4124C12.031 11.7695 12.156 12.0556 12.2459 12.2495C12.2908 12.3464 12.3267 12.42 12.3505 12.4676C12.3624 12.4914 12.3713 12.5087 12.3767 12.5191L12.3824 12.53Z" fill="#71747A"/>
</svg>
