<svg width="24" height="24" viewBox="0 0 24 24" fill="none" xmlns="http://www.w3.org/2000/svg">
<g clip-path="url(#clip0)">
<path fill-rule="evenodd" clip-rule="evenodd" d="M11.2071 1.79289C11.5976 2.18342 11.5976 2.81658 11.2071 3.20711L5.41421 9H13C16.0554 9 18.4105 9.49633 19.9571 11.0429C21.5037 12.5895 22 14.9446 22 18V21C22 21.5523 21.5523 22 21 22C20.4477 22 20 21.5523 20 21V18C20 15.0554 19.4963 13.4105 18.5429 12.4571C17.5895 11.5037 15.9446 11 13 11H5.41421L11.2071 16.7929C11.5976 17.1834 11.5976 17.8166 11.2071 18.2071C10.8166 18.5976 10.1834 18.5976 9.79289 18.2071L2.29289 10.7071C1.90237 10.3166 1.90237 9.68342 2.29289 9.29289L9.79289 1.79289C10.1834 1.40237 10.8166 1.40237 11.2071 1.79289Z" fill="black"/>
</g>
<defs>
<clipPath id="clip0">
<rect width="24" height="24" fill="white"/>
</clipPath>
</defs>
</svg>
