<svg width="24" height="24" viewBox="0 0 24 24" fill="none" xmlns="http://www.w3.org/2000/svg">
<path fill-rule="evenodd" clip-rule="evenodd" d="M12.9406 0.785276C12.3298 0.583619 11.6703 0.583619 11.0595 0.785276C10.7303 0.893964 10.4544 1.06521 10.1948 1.25805C9.95038 1.43963 9.67385 1.67667 9.35605 1.94909L0.849251 9.24073C0.531523 9.51307 0.416974 9.95445 0.562164 10.3469C0.707354 10.7394 1.08157 11 1.50005 11H2.00005L2.00005 17.9352C2.00003 18.4181 2.00002 18.8347 2.02581 19.1787C2.053 19.5413 2.11291 19.903 2.27562 20.256C2.57467 20.9047 3.09537 21.4254 3.74407 21.7244C4.09701 21.8871 4.45874 21.947 4.82136 21.9742C5.16536 22 5.58195 22 6.0648 22H9.50005C10.0523 22 10.5 21.5523 10.5 21L10.5 16.05C10.5 15.7784 10.5007 15.6299 10.5087 15.5228L10.5098 15.5097L10.5229 15.5087C10.6299 15.5006 10.7785 15.5 11.05 15.5H12.95C13.2216 15.5 13.3702 15.5006 13.4772 15.5087L13.4903 15.5097L13.4914 15.5228C13.4994 15.6299 13.5 15.7784 13.5 16.05L13.5 21C13.5 21.2652 13.6054 21.5196 13.7929 21.7071C13.9805 21.8946 14.2348 22 14.5 22H17.9353C18.4181 22 18.8347 22 19.1787 21.9742C19.5414 21.947 19.9031 21.8871 20.256 21.7244C20.9047 21.4254 21.4254 20.9047 21.7245 20.256C21.8872 19.903 21.9471 19.5413 21.9743 19.1787C22.0001 18.8347 22.0001 18.4181 22 17.9352V11H22.5C22.9185 11 23.2927 10.7394 23.4379 10.3469C23.5831 9.95445 23.4686 9.51307 23.1508 9.24073L14.644 1.94909C14.3262 1.67667 14.0497 1.43963 13.8053 1.25805C13.5457 1.06521 13.2698 0.893964 12.9406 0.785276ZM20 9.17418V17.9C20 18.428 19.9994 18.7689 19.9799 19.0291C19.9611 19.2791 19.9292 19.3731 19.9082 19.4186C19.8085 19.6349 19.6349 19.8084 19.4187 19.9081C19.3731 19.9291 19.2792 19.9611 19.0292 19.9798C18.769 19.9993 18.4281 20 17.9 20H15.5L15.5 16.0208C15.5001 15.7896 15.5001 15.5644 15.4858 15.3733C15.4701 15.1638 15.4331 14.916 15.3163 14.6627C15.117 14.2302 14.7698 13.8831 14.3374 13.6837C14.0841 13.5669 13.8362 13.53 13.6268 13.5143C13.4356 13.4999 13.2104 13.5 12.9792 13.5H11.0209C10.7897 13.5 10.5645 13.4999 10.3733 13.5143C10.1638 13.53 9.91604 13.5669 9.66273 13.6837C9.23026 13.8831 8.88313 14.2302 8.68376 14.6627C8.56698 14.916 8.53003 15.1638 8.51433 15.3733C8.49999 15.5644 8.50002 15.7896 8.50004 16.0208L8.50005 20H6.10005C5.57202 20 5.23111 19.9993 4.97089 19.9798C4.72094 19.9611 4.62695 19.9291 4.58139 19.9081C4.36516 19.8084 4.19159 19.6349 4.0919 19.4186C4.0709 19.3731 4.03895 19.2791 4.02021 19.0291C4.0007 18.7689 4.00005 18.428 4.00005 17.9V10.001C4.00005 10.0006 4.00005 10.0013 4.00005 10.001C4.00005 10.0006 4.00005 9.99933 4.00005 9.999V9.17418L10.6334 3.4884C10.9824 3.18921 11.2058 2.99845 11.3875 2.86351C11.5601 2.73524 11.6409 2.69952 11.6865 2.68445C11.8901 2.61723 12.11 2.61723 12.3136 2.68445C12.3592 2.69952 12.4399 2.73524 12.6126 2.86351C12.7943 2.99845 13.0177 3.18921 13.3667 3.4884L20 9.17418Z" fill="#71747A"/>
</svg>
