<svg width="24" height="24" viewBox="0 0 24 24" fill="none" xmlns="http://www.w3.org/2000/svg">
<path fill-rule="evenodd" clip-rule="evenodd" d="M3.5 5.45567C3.70107 5.29593 3.99628 5.08245 4.37114 4.86824C5.14507 4.426 6.22378 4 7.5 4C8.76569 4 9.70093 4.41914 10.3203 4.83205C10.6239 5.03445 10.8509 5.23516 11 5.38301V18.9038C10.1414 18.4183 8.97178 18 7.5 18C5.84624 18 4.47089 18.5283 3.5 19.0637V5.45567ZM3.20661 21.7076C2.92061 21.9932 2.49078 22.0786 2.11732 21.9239C1.74364 21.7691 1.5 21.4045 1.5 21V5C1.5 4.73478 1.60536 4.48043 1.79289 4.29289L2.5 5C1.79289 4.29289 1.79262 4.29317 1.79289 4.29289L1.79534 4.29045L1.79855 4.28727L1.80722 4.27876L1.83354 4.2534C1.85504 4.23293 1.88444 4.20544 1.92151 4.17196C1.9956 4.10504 2.10063 4.01387 2.23468 3.90663C2.50216 3.69265 2.88875 3.41182 3.37886 3.13176C4.35493 2.574 5.77622 2 7.5 2C9.23431 2 10.5491 2.58086 11.4297 3.16795C11.6457 3.31192 11.8357 3.45633 12 3.59283C12.1643 3.45633 12.3543 3.31192 12.5703 3.16795C13.4509 2.58086 14.7657 2 16.5 2C18.2238 2 19.6451 2.574 20.6211 3.13176C21.1112 3.41182 21.4978 3.69265 21.7653 3.90663C21.8994 4.01387 22.0044 4.10504 22.0785 4.17196C22.1156 4.20544 22.145 4.23293 22.1665 4.2534L22.1928 4.27876L22.2014 4.28727L22.2047 4.29045L22.206 4.29176C22.2063 4.29204 22.2071 4.29289 21.5 5L22.2071 4.29289C22.3946 4.48043 22.5 4.73478 22.5 5V21C22.5 21.4045 22.2564 21.7691 21.8827 21.9239C21.5102 22.0782 21.0815 21.9936 20.7955 21.7097C20.7946 21.7089 20.7938 21.708 20.7929 21.7071L21.5 21C20.7929 21.7071 20.7926 21.7069 20.7929 21.7071L20.7938 21.7081L20.7946 21.7088L20.7872 21.7017C20.7779 21.6929 20.7614 21.6774 20.7379 21.6562C20.6909 21.6137 20.6163 21.5486 20.5159 21.4684C20.3147 21.3074 20.0138 21.0882 19.6289 20.8682C18.8549 20.426 17.7762 20 16.5 20C15.2343 20 14.2991 20.4191 13.6797 20.8321C13.3681 21.0398 13.1372 21.2457 12.9884 21.3946C12.9142 21.4688 12.8612 21.528 12.8296 21.5649C12.8138 21.5833 12.8034 21.596 12.7984 21.6022C12.7971 21.6039 12.7962 21.6051 12.7956 21.6058C12.6066 21.8541 12.3123 22 12 22C11.6876 22 11.3934 21.8541 11.2043 21.6057C11.2038 21.6051 11.2029 21.6039 11.2016 21.6022C11.1966 21.596 11.1862 21.5833 11.1704 21.5649C11.1388 21.528 11.0858 21.4688 11.0116 21.3946C10.8628 21.2457 10.6319 21.0398 10.3203 20.8321C9.70093 20.4191 8.76569 20 7.5 20C6.22378 20 5.14507 20.426 4.37114 20.8682C3.98625 21.0882 3.68534 21.3074 3.48407 21.4684C3.38374 21.5486 3.30909 21.6137 3.26208 21.6562C3.23861 21.6774 3.22211 21.6929 3.21285 21.7017L3.20539 21.7088L3.20661 21.7076ZM13 18.9038C13.8586 18.4183 15.0282 18 16.5 18C18.1538 18 19.5291 18.5283 20.5 19.0637V5.45567C20.2989 5.29593 20.0037 5.08245 19.6289 4.86824C18.8549 4.426 17.7762 4 16.5 4C15.2343 4 14.2991 4.41914 13.6797 4.83205C13.3761 5.03445 13.1491 5.23516 13 5.38301V18.9038ZM20.7956 5.70977C20.796 5.71021 20.7961 5.71024 20.7956 5.70977V5.70977Z" fill="black"/>
</svg>
