<svg width="16" height="16" viewBox="0 0 16 16" fill="none" xmlns="http://www.w3.org/2000/svg">
<path fill-rule="evenodd" clip-rule="evenodd" d="M7.53033 1.13642C7.82322 1.42931 7.82322 1.90418 7.53033 2.19708L3.81066 5.91675H8.66667C10.7082 5.91675 12.3079 6.24733 13.3637 7.30308C14.4194 8.35884 14.75 9.95853 14.75 12.0001V14.0001C14.75 14.4143 14.4142 14.7501 14 14.7501C13.5858 14.7501 13.25 14.4143 13.25 14.0001V12.0001C13.25 10.0416 12.9139 8.97466 12.303 8.36374C11.6921 7.75283 10.6251 7.41675 8.66667 7.41675H3.81066L7.53033 11.1364C7.82322 11.4293 7.82322 11.9042 7.53033 12.1971C7.23744 12.49 6.76256 12.49 6.46967 12.1971L1.46967 7.19708C1.32902 7.05643 1.25 6.86566 1.25 6.66675C1.25 6.46784 1.32902 6.27707 1.46967 6.13642L6.46967 1.13642C6.76256 0.843525 7.23744 0.843525 7.53033 1.13642Z" fill="black"/>
</svg>
