<svg width="24" height="24" viewBox="0 0 24 24" fill="none" xmlns="http://www.w3.org/2000/svg">
<g clip-path="url(#clip0)">
<path fill-rule="evenodd" clip-rule="evenodd" d="M21.5 2.25C21.5 1.69772 21.0523 1.25 20.5 1.25C19.9477 1.25 19.5 1.69772 19.5 2.25V5.38568C17.6683 3.31034 14.9877 2 12 2C6.47715 2 2 6.47715 2 12C2 17.5228 6.47715 22 12 22C16.7603 22 20.7416 18.6747 21.7522 14.2213C21.8744 13.6827 21.5369 13.147 20.9983 13.0248C20.4597 12.9026 19.924 13.2401 19.8018 13.7787C18.9934 17.3412 15.806 20 12 20C7.58172 20 4 16.4183 4 12C4 7.58172 7.58172 4 12 4C14.5254 4 16.7787 5.17005 18.2456 7H15.25C14.6977 7 14.25 7.44772 14.25 8C14.25 8.55228 14.6977 9 15.25 9H20.0443C20.0582 9.00029 20.0722 9.0003 20.0862 9H20.5C21.0523 9 21.5 8.55228 21.5 8V2.25Z" fill="black"/>
</g>
<defs>
<clipPath id="clip0">
<rect width="24" height="24" fill="white"/>
</clipPath>
</defs>
</svg>
