<svg width="13" height="15" viewBox="0 0 13 15" fill="none" xmlns="http://www.w3.org/2000/svg">
<path fill-rule="evenodd" clip-rule="evenodd" d="M2.06369 0.75291L1.53045 0.21967C1.23756 -0.0732233 0.762687 -0.0732233 0.469793 0.21967C0.1769 0.512563 0.1769 0.987437 0.469793 1.28033L2.39694 3.20748C2.30135 3.53845 2.25012 3.88824 2.25012 4.25L2.25013 6.25C2.25013 8.32107 3.92906 10 6.00012 10C6.89285 10 7.71272 9.68805 8.35668 9.16721L9.32476 10.1353C8.43832 10.9231 7.27403 11.4 6.00013 11.4C4.14391 11.4 2.52042 10.3876 1.65011 8.87581C1.44345 8.51683 0.984908 8.39335 0.625932 8.60002C0.266956 8.80668 0.143481 9.26522 0.350143 9.62419C1.35776 11.3745 3.15171 12.6158 5.25012 12.8572L5.25012 14.1308C5.25012 14.545 5.58591 14.8808 6.00012 14.8808C6.41433 14.8808 6.75012 14.545 6.75012 14.1308L6.75012 12.8572C8.14361 12.6969 9.40283 12.0956 10.3867 11.1972L11.4698 12.2803C11.7627 12.5732 12.2376 12.5732 12.5305 12.2803C12.8144 11.9964 12.8231 11.5415 12.5565 11.2471L2.08979 0.78033C2.08081 0.771357 2.07212 0.762214 2.06369 0.75291ZM9.74951 6.31873C9.74992 6.29587 9.75012 6.27296 9.75012 6.25V4.25C9.75012 2.17893 8.07119 0.5 6.00012 0.5C5.39802 0.5 4.82906 0.641901 4.32486 0.894085L5.48907 2.05829C5.65326 2.02016 5.82434 2 6.00012 2C7.24277 2 8.25012 3.00736 8.25012 4.25V4.81935L9.74951 6.31873ZM3.75013 6.25L3.75012 4.56066L7.28603 8.09657C6.92155 8.35086 6.47825 8.5 6.00012 8.5C4.75748 8.5 3.75013 7.49264 3.75013 6.25Z" fill="black"/>
</svg>
