<svg width="24" height="24" viewBox="0 0 24 24" fill="none" xmlns="http://www.w3.org/2000/svg">
<path fill-rule="evenodd" clip-rule="evenodd" d="M12.75 4C12.75 4.69036 13.3096 5.25 14 5.25H16.9822L13.1161 9.11612C12.628 9.60427 12.628 10.3957 13.1161 10.8839C13.6043 11.372 14.3957 11.372 14.8839 10.8839L18.75 7.01777V10C18.75 10.6904 19.3096 11.25 20 11.25C20.6904 11.25 21.25 10.6904 21.25 10V4C21.25 3.30964 20.6904 2.75 20 2.75H14C13.3096 2.75 12.75 3.30964 12.75 4ZM5.25 14C5.25 13.3096 4.69036 12.75 4 12.75C3.30964 12.75 2.75 13.3096 2.75 14V20C2.75 20.6904 3.30964 21.25 4 21.25H10C10.6904 21.25 11.25 20.6904 11.25 20C11.25 19.3096 10.6904 18.75 10 18.75H7.01777L10.8839 14.8839C11.372 14.3957 11.372 13.6043 10.8839 13.1161C10.3957 12.628 9.60427 12.628 9.11612 13.1161L5.25 16.9822V14Z" fill="black"/>
</svg>
