<svg width="24" height="24" viewBox="0 0 24 24" fill="none" xmlns="http://www.w3.org/2000/svg">
    <path fill-rule="evenodd" clip-rule="evenodd" d="M12.5109 1.5H11.4891C10.889 1.5 10.3467 1.8576 10.1104 2.40912L9.21511 4.49805C8.73786 4.67529 8.28212 4.89675 7.85286 5.15748L5.69466 4.54671C5.11729 4.38332 4.4981 4.57973 4.12048 5.04605L3.47743 5.84015C3.09982 6.30647 3.03643 6.95296 3.3163 7.48374L4.39111 9.52218C4.24216 9.97989 4.13335 10.4557 4.06886 10.9455L2.22497 12.295C1.74075 12.6494 1.51431 13.2582 1.64929 13.8429L1.87915 14.8385C2.01413 15.4232 2.48455 15.8711 3.07511 15.9774L5.30329 16.3782C5.58045 16.8013 5.89663 17.1965 6.24671 17.5588L6.13651 19.8109C6.10718 20.4102 6.43784 20.9694 6.97716 21.2324L7.89555 21.6803C8.43487 21.9434 9.07905 21.8597 9.53327 21.4676L11.2714 19.9673C11.5113 19.9889 11.7544 20 12 20C12.2456 20 12.4887 19.9889 12.7286 19.9673L14.4667 21.4676C14.9209 21.8597 15.5651 21.9434 16.1044 21.6803L17.0228 21.2324C17.5621 20.9693 17.8928 20.4102 17.8635 19.8109L17.7533 17.5588C18.1033 17.1965 18.4195 16.8013 18.6967 16.3783L20.9249 15.9774C21.5154 15.8712 21.9858 15.4232 22.1208 14.8385L22.3507 13.8429C22.4857 13.2582 22.2592 12.6494 21.775 12.295L19.9311 10.9456C19.8666 10.4558 19.7578 9.97993 19.6089 9.52222L20.6837 7.48377C20.9636 6.95299 20.9002 6.3065 20.5226 5.84018L19.8795 5.04608C19.5019 4.57976 18.8827 4.38335 18.3053 4.54675L16.1472 5.15751C15.7179 4.89677 15.2621 4.67529 14.7849 4.49805L13.8896 2.40912C13.6532 1.8576 13.1109 1.5 12.5109 1.5ZM16 12C16 14.2091 14.2091 16 12 16C9.79085 16 7.99999 14.2091 7.99999 12C7.99999 9.79086 9.79085 8 12 8C14.2091 8 16 9.79086 16 12Z"/>
</svg>
