<svg width="24" height="24" viewBox="0 0 24 24" fill="none" xmlns="http://www.w3.org/2000/svg">
<g clip-path="url(#clip0)">
<path fill-rule="evenodd" clip-rule="evenodd" d="M4 9.75C4 6.57436 6.57436 4 9.75 4C12.9256 4 15.5 6.57436 15.5 9.75C15.5 12.9256 12.9256 15.5 9.75 15.5C6.57436 15.5 4 12.9256 4 9.75ZM9.75 2C5.46979 2 2 5.46979 2 9.75C2 14.0302 5.46979 17.5 9.75 17.5C11.5296 17.5 13.1692 16.9002 14.4774 15.8916L20.2929 21.7071C20.6834 22.0976 21.3166 22.0976 21.7071 21.7071C22.0976 21.3166 22.0976 20.6834 21.7071 20.2929L15.8916 14.4774C16.9002 13.1692 17.5 11.5296 17.5 9.75C17.5 5.46979 14.0302 2 9.75 2Z" fill="black"/>
</g>
<defs>
<clipPath id="clip0">
<rect width="24" height="24" fill="white"/>
</clipPath>
</defs>
</svg>
