<svg width="16" height="16" viewBox="0 0 16 16" fill="none" xmlns="http://www.w3.org/2000/svg">
<path d="M8.00106 0.999878C6.5283 0.999878 5.33439 2.19378 5.33439 3.66654V6.99988C5.33439 8.47264 6.5283 9.66654 8.00106 9.66654C9.47381 9.66654 10.6677 8.47264 10.6677 6.99988V3.66654C10.6677 2.19378 9.47381 0.999878 8.00106 0.999878Z" fill="black"/>
<path d="M3.16884 7.8838C3.59925 7.79318 4.02167 8.06701 4.11524 8.49604L4.11774 8.50625C4.12085 8.51855 4.12681 8.54105 4.13621 8.5723C4.15505 8.63496 4.18737 8.73164 4.23762 8.85098C4.33869 9.09102 4.50832 9.41334 4.77891 9.73466C5.29968 10.3531 6.24562 11.0333 8.00031 11.0333C9.755 11.0333 10.7009 10.3531 11.2217 9.73466C11.4923 9.41334 11.6619 9.09102 11.763 8.85098C11.8133 8.73164 11.8456 8.63496 11.8644 8.5723C11.8738 8.54105 11.8798 8.51855 11.8829 8.50625L11.8854 8.49602C11.979 8.067 12.4014 7.79318 12.8318 7.8838C13.2641 7.97482 13.5408 8.3991 13.4498 8.83145L13.4494 8.83345L13.4489 8.83574L13.4477 8.84123L13.4444 8.85571C13.4419 8.86688 13.4385 8.8811 13.4341 8.89815C13.4255 8.93223 13.4133 8.97777 13.3966 9.03311C13.3634 9.14363 13.3124 9.29434 13.2376 9.47187C13.0887 9.82559 12.8417 10.2949 12.4456 10.7653C11.7343 11.6099 10.5825 12.4073 8.80031 12.5929V14.4999C8.80031 14.9418 8.44214 15.2999 8.00031 15.2999C7.55848 15.2999 7.20031 14.9418 7.20031 14.4999V12.5929C5.41814 12.4073 4.26635 11.6099 3.55505 10.7653C3.15897 10.2949 2.91194 9.82559 2.763 9.47187C2.68825 9.29434 2.63724 9.14363 2.604 9.03311C2.58736 8.97777 2.57509 8.93223 2.56648 8.89815C2.56217 8.8811 2.55877 8.86688 2.55619 8.85571L2.55292 8.84123L2.55172 8.83574L2.55123 8.83345L2.55101 8.83241C2.45999 8.40006 2.73649 7.97482 3.16884 7.8838Z" fill="black"/>
</svg>
