<svg width="12" height="16" viewBox="0 0 12 16" fill="none" xmlns="http://www.w3.org/2000/svg">
<path fill-rule="evenodd" clip-rule="evenodd" d="M2.25012 4.5C2.25012 2.42893 3.92906 0.75 6.00012 0.75C8.07119 0.75 9.75012 2.42893 9.75012 4.5L9.75013 6.5C9.75013 8.57107 8.07119 10.25 6.00013 10.25C3.92906 10.25 2.25013 8.57107 2.25013 6.5L2.25012 4.5ZM6.00012 2.25C4.75748 2.25 3.75012 3.25736 3.75012 4.5L3.75013 6.5C3.75013 7.74264 4.75748 8.75 6.00013 8.75C7.24277 8.75 8.25013 7.74264 8.25013 6.5L8.25012 4.5C8.25012 3.25736 7.24276 2.25 6.00012 2.25ZM6.75012 13.1072C8.84854 12.8659 10.6425 11.6245 11.6501 9.87419C11.8568 9.51522 11.7333 9.05668 11.3743 8.85002C11.0153 8.64335 10.5568 8.76683 10.3501 9.12581C9.47984 10.6376 7.85634 11.65 6.00013 11.65C4.14391 11.65 2.52042 10.6376 1.65011 9.12581C1.44345 8.76683 0.984908 8.64335 0.625932 8.85002C0.266956 9.05668 0.143481 9.51522 0.350143 9.87419C1.35776 11.6245 3.15171 12.8658 5.25012 13.1072L5.25012 14.3808C5.25012 14.795 5.5859 15.1308 6.00012 15.1308C6.41433 15.1308 6.75012 14.795 6.75012 14.3808L6.75012 13.1072Z" fill="black"/>
</svg>
