<svg width="24" height="24" viewBox="0 0 24 24" fill="none" xmlns="http://www.w3.org/2000/svg">
<path fill-rule="evenodd" clip-rule="evenodd" d="M15.75 3.5C15.75 2.80964 15.1904 2.25 14.5 2.25C13.8096 2.25 13.25 2.80964 13.25 3.5V9.5C13.25 10.1904 13.8096 10.75 14.5 10.75H20.5C21.1904 10.75 21.75 10.1904 21.75 9.5C21.75 8.80964 21.1904 8.25 20.5 8.25H17.5178L21.3839 4.38388C21.872 3.89573 21.872 3.10427 21.3839 2.61612C20.8957 2.12796 20.1043 2.12796 19.6161 2.61612L15.75 6.48223V3.5ZM2.25 14.5C2.25 15.1904 2.80964 15.75 3.5 15.75H6.48223L2.61612 19.6161C2.12796 20.1043 2.12796 20.8957 2.61612 21.3839C3.10427 21.872 3.89573 21.872 4.38388 21.3839L8.25 17.5178V20.5C8.25 21.1904 8.80964 21.75 9.5 21.75C10.1904 21.75 10.75 21.1904 10.75 20.5V14.5C10.75 13.8096 10.1904 13.25 9.5 13.25H3.5C2.80964 13.25 2.25 13.8096 2.25 14.5Z" fill="black"/>
</svg>
