<svg width="24" height="24" viewBox="0 0 24 24" fill="none" xmlns="http://www.w3.org/2000/svg">
    <g clip-path="url(#ic-twitter-24_svg__clip0)">
        <path d="M22.999 5.55218C22.1893 5.91179 21.3194 6.15378 20.4065 6.26293C21.3389 5.70449 22.0539 4.82029 22.3906 3.76602C21.5191 4.283 20.5529 4.65868 19.524 4.86175C18.7007 3.98432 17.528 3.43604 16.23 3.43604C13.7373 3.43604 11.7168 5.45742 11.7168 7.94925C11.7168 8.30293 11.7574 8.64814 11.8336 8.97728C8.08272 8.78945 4.75746 6.99228 2.53047 4.261C2.14295 4.92775 1.92042 5.70279 1.92042 6.53115C1.92042 8.09647 2.71662 9.47819 3.92742 10.2871C3.18791 10.2634 2.49155 10.0603 1.88319 9.72272C1.88319 9.74218 1.88319 9.75995 1.88319 9.77941C1.88319 11.9666 3.43836 13.7909 5.50374 14.2046C5.12553 14.3078 4.72616 14.3628 4.3141 14.3628C4.02388 14.3628 3.74043 14.3341 3.46544 14.2825C4.03995 16.0754 5.70681 17.381 7.68166 17.4173C6.13749 18.6281 4.19141 19.3499 2.07611 19.3499C1.71227 19.3499 1.35267 19.3287 0.998993 19.2864C2.99669 20.5666 5.36836 21.3137 7.91773 21.3137C16.2199 21.3137 20.7585 14.4365 20.7585 8.47215C20.7585 8.2767 20.7542 8.08209 20.7458 7.88833C21.6283 7.2512 22.394 6.45669 22.999 5.55218Z" fill="black"/>
    </g>
    <defs>
        <clipPath id="ic-twitter-24_svg__clip0">
            <rect width="24" height="24" fill="white"/>
        </clipPath>
    </defs>
</svg>
