<svg width="24" height="24" viewBox="0 0 24 24" fill="none" xmlns="http://www.w3.org/2000/svg">
<path fill-rule="evenodd" clip-rule="evenodd" d="M10.2169 2.02381C10.7561 2.14362 11.096 2.6778 10.9762 3.21693L10.1355 7H16.0867L17.0238 2.78307C17.1436 2.24394 17.6778 1.90401 18.2169 2.02381C18.7561 2.14362 19.096 2.6778 18.9762 3.21693L18.1355 7H22C22.5523 7 23 7.44772 23 8C23 8.55229 22.5523 9 22 9H17.6911L16.3577 15H20C20.5523 15 21 15.4477 21 16C21 16.5523 20.5523 17 20 17H15.9133L14.9762 21.2169C14.8564 21.7561 14.3222 22.096 13.7831 21.9762C13.2439 21.8564 12.904 21.3222 13.0238 20.7831L13.8645 17H7.91328L6.97619 21.2169C6.85638 21.7561 6.3222 22.096 5.78307 21.9762C5.24394 21.8564 4.90401 21.3222 5.02381 20.7831L5.8645 17H2C1.44772 17 1 16.5523 1 16C1 15.4477 1.44772 15 2 15H6.30894L7.64227 9H4C3.44772 9 3 8.55229 3 8C3 7.44772 3.44772 7 4 7H8.08672L9.02381 2.78307C9.14362 2.24394 9.6778 1.90401 10.2169 2.02381ZM9.69106 9L8.35773 15H14.3089L15.6423 9H9.69106Z" fill="black"/>
</svg>
