<svg width="24" height="21" viewBox="0 0 24 21" fill="none" xmlns="http://www.w3.org/2000/svg">
<path fill-rule="evenodd" clip-rule="evenodd" d="M10.7186 5.92641C10.765 2.92242 13.215 0.5 16.2311 0.5C17.6025 0.5 18.8604 1.00202 19.8254 1.83095C20.5568 1.63821 21.2473 1.34615 21.8815 0.969927C22.2387 0.758065 22.6896 0.788973 23.0145 1.04759C23.3394 1.3062 23.4707 1.73869 23.3443 2.13426C23.2905 2.30291 23.2287 2.46794 23.1595 2.62894C23.3903 2.66624 23.6068 2.78405 23.7652 2.97223C24.0519 3.31287 24.0788 3.80203 23.8313 4.1721C23.2599 5.02641 22.5594 5.79208 21.7592 6.43716C21.7595 6.47013 21.7596 6.50311 21.7596 6.53611C21.7596 12.9303 16.8882 20.3777 7.91884 20.3777C5.17098 20.3777 2.61308 19.5718 0.460552 18.1923C0.0680583 17.9408 -0.0985786 17.4515 0.0588489 17.0127C0.216276 16.5739 0.656002 16.3021 1.11887 16.3575C1.43221 16.395 1.75213 16.4138 2.07721 16.4138C3.16105 16.4138 4.19406 16.2014 5.1377 15.8157C3.90097 15.1435 2.95024 14.0122 2.51424 12.6516C2.42687 12.3789 2.46134 12.0852 2.60247 11.843C1.54408 10.8385 0.884298 9.41822 0.884298 7.84337V7.78691C0.884298 7.43267 1.0717 7.10465 1.37697 6.92493C1.39247 6.9158 1.40816 6.90713 1.42401 6.8989C1.10146 6.19763 0.921527 5.41707 0.921527 4.59511C0.921527 3.58525 1.19332 2.63744 1.66701 1.82246C1.83195 1.53867 2.12566 1.3539 2.45289 1.32807C2.78011 1.30224 3.09918 1.43864 3.30661 1.69304C5.12767 3.92647 7.74191 5.48067 10.7186 5.92641ZM3.19152 9.28253C3.64939 10.3016 4.57849 11.0631 5.70128 11.2881C6.15593 11.3791 6.48833 11.7708 6.50426 12.2342C6.52019 12.6976 6.21547 13.1112 5.76815 13.2333C5.5793 13.2848 5.38646 13.3265 5.19034 13.3578C5.819 14.0345 6.71097 14.4632 7.70119 14.4815C8.12422 14.4893 8.49656 14.7624 8.63097 15.1636C8.76538 15.5648 8.63276 16.0072 8.29981 16.2682C7.31376 17.0414 6.17954 17.6351 4.94718 17.9999C5.89631 18.2463 6.89178 18.3777 7.91884 18.3777C15.5538 18.3777 19.7596 12.0706 19.7596 6.53611C19.7596 6.35509 19.7557 6.17503 19.7478 5.99592C19.7357 5.71743 19.8402 5.44935 20.0315 5.25353C19.7701 5.14729 19.5576 4.93214 19.4613 4.65028C19.3779 4.40618 19.394 4.14837 19.4918 3.92518C19.2303 3.91647 18.979 3.8052 18.7958 3.60996C18.154 2.92596 17.242 2.5 16.2311 2.5C14.2909 2.5 12.7179 4.07355 12.7179 6.01321C12.7179 6.29045 12.7498 6.56006 12.8089 6.81584C12.8796 7.1214 12.8029 7.44243 12.6016 7.68297C12.4004 7.9235 12.0979 8.05568 11.7847 8.04C8.35939 7.86846 5.26407 6.45184 2.93959 4.23541C2.92765 4.35357 2.92153 4.47355 2.92153 4.59511C2.92153 5.81359 3.54012 6.88894 4.48403 7.51953C4.85523 7.76752 5.0171 8.23151 4.88071 8.65658C4.74431 9.08165 4.34269 9.36483 3.89651 9.35053C3.65751 9.34287 3.42216 9.31987 3.19152 9.28253Z" fill="#71747A"/>
</svg>
