<svg width="24" height="24" viewBox="0 0 24 24" xmlns="http://www.w3.org/2000/svg">
<g clip-path="url(#ic-text-glyph-24__clip0)">
<path fill-rule="evenodd" clip-rule="evenodd" d="M6.33691 4.29065C5.86176 4.29065 5.4681 4.41149 5.16565 4.66231L5.16472 4.66309C4.87254 4.91144 4.63575 5.30593 4.44819 5.83389L0.602975 16.7133L0.602562 16.7145C0.471616 17.1004 0.402435 17.4136 0.402435 17.649C0.402435 17.968 0.511305 18.2321 0.733044 18.4309C0.953642 18.6287 1.24256 18.7231 1.58935 18.7231C1.92204 18.7231 2.19783 18.6323 2.40512 18.4408C2.61553 18.2526 2.7795 17.9495 2.90476 17.5463L2.90507 17.5453L3.84551 14.724H8.76679L9.70736 17.5458C9.82603 17.9431 9.98649 18.2455 10.1961 18.4401L10.1989 18.4425C10.4187 18.632 10.6998 18.7231 11.0332 18.7231C11.3862 18.7231 11.6789 18.6289 11.8999 18.4308C12.1286 18.225 12.2406 17.9505 12.2406 17.6182C12.2406 17.3706 12.1791 17.0686 12.0612 16.715L8.21553 5.83434C8.03484 5.30634 7.80158 4.9117 7.50909 4.66309C7.21279 4.41123 6.81834 4.29065 6.33691 4.29065ZM4.4649 12.7399L6.31117 7.07339L8.14762 12.7399H4.4649ZM18.1084 7.39758C17.0114 7.39758 16.1115 7.58369 15.4153 7.96337C14.9626 8.20712 14.615 8.48551 14.3783 8.80091C14.1417 9.1094 14.0196 9.43778 14.0196 9.7842C14.0196 10.0524 14.1024 10.28 14.2729 10.4583L14.2745 10.4599C14.4471 10.6325 14.6761 10.7148 14.9502 10.7148C15.1572 10.7148 15.3408 10.6863 15.4985 10.6263L15.5023 10.6247C15.6587 10.5576 15.8086 10.4546 15.9522 10.3182L15.9547 10.3156C16.2699 9.99372 16.5816 9.76263 16.8893 9.61856C17.2023 9.47516 17.5602 9.40227 17.9648 9.40227C18.6487 9.40227 19.1512 9.55664 19.4886 9.84947C19.8235 10.1401 19.9977 10.5704 19.9977 11.1582V12.0221H17.3906C16.5801 12.0221 15.875 12.1571 15.2781 12.4309C14.6814 12.6977 14.2179 13.0825 13.892 13.5856C13.5723 14.0828 13.4146 14.6731 13.4146 15.3521C13.4146 16.0171 13.5653 16.6093 13.8694 17.1255C14.1732 17.6412 14.6008 18.0436 15.1498 18.3322L15.1511 18.3329C15.7071 18.6144 16.3417 18.7538 17.0522 18.7538C17.7357 18.7538 18.3497 18.6177 18.8919 18.3431L18.8928 18.3427C19.393 18.0828 19.7926 17.7232 20.0899 17.2647L20.0896 17.5772L20.0903 17.5857C20.1192 17.9247 20.2321 18.2018 20.437 18.4067L20.4398 18.4092C20.6533 18.6075 20.9323 18.7026 21.2666 18.7026C21.6429 18.7026 21.9463 18.5896 22.1611 18.3517L22.1622 18.3505C22.3743 18.1081 22.474 17.7776 22.474 17.3721V11.1685C22.474 9.97018 22.0967 9.03408 21.3318 8.37542C20.5693 7.71876 19.4899 7.39758 18.1084 7.39758ZM16.3567 14.1683C16.6678 13.9144 17.1139 13.7807 17.7085 13.7807H19.9977V14.8496C19.9977 15.2133 19.9006 15.5465 19.706 15.8516C19.5111 16.1502 19.2446 16.3881 18.9039 16.5652C18.5638 16.7351 18.1831 16.8209 17.7598 16.8209C17.1902 16.8209 16.7401 16.6724 16.4 16.3839C16.0677 16.0896 15.9013 15.711 15.9013 15.2393C15.9013 14.7643 16.0563 14.4124 16.3567 14.1683Z"/>
</g>
<defs>
<clipPath id="ic-text-glyph-24__clip0">
<path d="M0 0H24V24H0V0Z" fill="white"/>
</clipPath>
</defs>
</svg>
