<svg width="24" height="24" viewBox="0 0 24 24" fill="none" xmlns="http://www.w3.org/2000/svg">
<g clip-path="url(#clip0)">
<path fill-rule="evenodd" clip-rule="evenodd" d="M12.0739 3.99987C12.7899 3.99987 12.9988 4.00527 13.186 4.04634C13.4167 4.09697 13.6367 4.18807 13.8356 4.31544C13.997 4.41874 14.1486 4.56265 14.6549 5.06893L20.0049 10.4189C20.5596 10.9737 20.9362 11.3512 21.2066 11.6654C21.4702 11.9718 21.5784 12.1576 21.6337 12.3076C21.7986 12.7544 21.7986 13.2453 21.6337 13.6921C21.5784 13.8421 21.4702 14.0279 21.2066 14.3343C20.9362 14.6486 20.5596 15.0261 20.0049 15.5808L15.5809 20.0047C15.0262 20.5594 14.6487 20.936 14.3345 21.2064C14.0281 21.4701 13.8422 21.5783 13.6922 21.6336C13.2455 21.7984 12.7545 21.7984 12.3078 21.6336C12.1578 21.5783 11.9719 21.4701 11.6655 21.2064C11.3513 20.936 10.9738 20.5594 10.4191 20.0047L5.06907 14.6547C4.56279 14.1484 4.41888 13.9969 4.31557 13.8355C4.18821 13.6365 4.0971 13.4166 4.04648 13.1858C4.00541 12.9987 4.00001 12.7898 4.00001 12.0738V5.32487C4.00001 4.92508 4.00066 4.68035 4.01443 4.49669C4.02085 4.41111 4.02892 4.35895 4.03579 4.32701C4.03906 4.31179 4.04181 4.30238 4.04346 4.2973L4.0453 4.29208L4.04594 4.29054C4.09578 4.18242 4.18256 4.09564 4.29068 4.0458L4.29222 4.04516L4.29743 4.04332C4.30252 4.04167 4.31193 4.03893 4.32714 4.03566C4.35909 4.02879 4.41125 4.02071 4.49683 4.01429C4.68048 4.00052 4.92522 3.99987 5.32501 3.99987H12.0739ZM13.6146 2.09281C13.1889 1.9994 12.7493 1.99959 12.1673 1.99984L12.0739 1.99987H5.32501L5.292 1.99987H5.29199C4.93559 1.99985 4.61483 1.99983 4.3473 2.01989C4.06126 2.04134 3.75649 2.08977 3.45336 2.22951C2.91278 2.47872 2.47886 2.91264 2.22965 3.45322C2.08991 3.75635 2.04148 4.06112 2.02003 4.34716C1.99997 4.6147 1.99999 4.93545 2.00001 5.29185V5.29186L2.00001 5.32487V12.0738L1.99998 12.1672C1.99973 12.7492 1.99953 13.1887 2.09294 13.6145C2.1942 14.076 2.37641 14.5159 2.63114 14.9138C2.86613 15.2809 3.17708 15.5916 3.5888 16.0029L3.65485 16.0689L9.00485 21.4189L9.03149 21.4456C9.55287 21.967 9.9832 22.3973 10.361 22.7224C10.753 23.0598 11.148 23.3375 11.6155 23.51C12.5091 23.8396 13.4909 23.8396 14.3845 23.51C14.852 23.3375 15.247 23.0598 15.639 22.7224C16.0168 22.3973 16.4471 21.967 16.9684 21.4457L16.9685 21.4456L16.9952 21.4189L21.4191 16.995L21.4457 16.9684C21.9671 16.447 22.3974 16.0167 22.7226 15.6389C23.0599 15.2468 23.3376 14.8519 23.5101 14.3843C23.8398 13.4908 23.8398 12.5089 23.5101 11.6154C23.3376 11.1479 23.0599 10.7529 22.7226 10.3609C22.3975 9.98308 21.9671 9.55276 21.4458 9.03142L21.4457 9.03139L21.4191 9.00472L16.0691 3.65472L16.0031 3.58867C15.5917 3.17695 15.281 2.86599 14.9139 2.631C14.516 2.37627 14.0761 2.19406 13.6146 2.09281ZM8.50001 9.99987C9.32843 9.99987 10 9.3283 10 8.49987C10 7.67144 9.32843 6.99987 8.50001 6.99987C7.67158 6.99987 7.00001 7.67144 7.00001 8.49987C7.00001 9.3283 7.67158 9.99987 8.50001 9.99987Z" fill="black"/>
</g>
<defs>
<clipPath id="clip0">
<rect width="24" height="24" fill="white" transform="translate(0 -0.00012207)"/>
</clipPath>
</defs>
</svg>
