<svg width="24" height="24" viewBox="0 0 24 24" fill="none" xmlns="http://www.w3.org/2000/svg">
<g clip-path="url(#clip0)">
<path d="M21.5 4.50868C20.673 5.09205 19.7573 5.53823 18.7882 5.83005C18.268 5.23199 17.5768 4.8081 16.8079 4.61571C16.039 4.42332 15.2296 4.47172 14.4891 4.75435C13.7486 5.03698 13.1127 5.54021 12.6676 6.19599C12.2224 6.85176 11.9894 7.62843 12 8.42096V9.28459C10.4823 9.32395 8.97837 8.98734 7.62223 8.30475C6.2661 7.62216 5.09982 6.61478 4.22727 5.37232C4.22727 5.1694 0.772728 13.145 8.54545 16.5996C6.76682 17.8069 4.648 18.4123 2.5 18.3269C10.2727 22.645 20.075 18.7164 20.075 8.78457C20.0742 8.544 20.0511 8.30404 20.0059 8.06775C20.8873 7.19849 21.2071 5.71148 21.5 4.50868Z" stroke="#171B1F" stroke-width="2" stroke-linecap="round" stroke-linejoin="round"/>
</g>
<defs>
<clipPath id="clip0">
<rect width="24" height="24" fill="white"/>
</clipPath>
</defs>
</svg>
