<?xml version="1.0" encoding="UTF-8"?>
<svg width="16px" height="16px" viewBox="0 0 16 16" version="1.1" xmlns="http://www.w3.org/2000/svg" xmlns:xlink="http://www.w3.org/1999/xlink">
    <!-- Generator: Sketch 50.2 (55047) - http://www.bohemiancoding.com/sketch -->
    <title>favicon-safari</title>
    <desc>Created with Sketch.</desc>
    <defs></defs>
    <g id="favicon-safari" stroke="none" stroke-width="1" fill="none" fill-rule="evenodd">
        <g id="Logo-Black" fill="#000000">
            <path d="M8.14967149,3.2414566 L11.6363636,5.33347189 L8,7.51529007 L4.36363636,5.33347189 L7.85032851,3.2414566 C7.94245429,3.18618113 8.05754571,3.18618113 8.14967149,3.2414566 Z" id="Mask"></path>
            <path d="M12.3636364,5.81818182 L15.5842459,7.75054751 C15.7220147,7.8332088 15.7666881,8.01190269 15.6840268,8.14967149 C15.6594596,8.19061683 15.6251912,8.22488528 15.5842459,8.24945249 L12.3636364,10.1818182 L8.72727273,8 L12.3636364,5.81818182 Z" id="Mask"></path>
            <path d="M3.65280014,5.81818182 L11.6528001,10.6181818 L8.166108,12.7101971 C8.07398222,12.7654726 7.9588908,12.7654726 7.86676502,12.7101971 L0.432190654,8.24945249 C0.294421849,8.1667912 0.249748376,7.98809731 0.332409659,7.85032851 C0.356976862,7.80938317 0.391245314,7.77511472 0.432190654,7.75054751 L3.65280014,5.81818182 Z" id="Mask"></path>
        </g>
    </g>
</svg>