<svg width="16" height="16" viewBox="0 0 16 16" fill="none" xmlns="http://www.w3.org/2000/svg">
<path d="M7.27506 1.55332C7.5062 1.05806 7.62177 0.810428 7.78087 0.732855C7.91918 0.665422 8.08082 0.665422 8.21913 0.732855C8.37823 0.810428 8.4938 1.05806 8.72494 1.55332L10.4226 5.19083C10.4681 5.28844 10.4909 5.33725 10.5225 5.37918C10.5505 5.41637 10.5836 5.44946 10.6208 5.47749C10.6628 5.5091 10.7116 5.53188 10.8092 5.57743L14.4467 7.27506C14.9419 7.5062 15.1896 7.62177 15.2671 7.78087C15.3346 7.91918 15.3346 8.08082 15.2671 8.21913C15.1896 8.37823 14.9419 8.4938 14.4467 8.72494L10.8092 10.4226C10.7116 10.4681 10.6628 10.4909 10.6208 10.5225C10.5836 10.5505 10.5505 10.5836 10.5225 10.6208C10.4909 10.6628 10.4681 10.7116 10.4226 10.8092L8.72494 14.4467C8.4938 14.9419 8.37823 15.1896 8.21913 15.2671C8.08082 15.3346 7.91918 15.3346 7.78087 15.2671C7.62177 15.1896 7.5062 14.9419 7.27506 14.4467L5.57743 10.8092C5.53188 10.7116 5.5091 10.6628 5.47749 10.6208C5.44946 10.5836 5.41637 10.5505 5.37918 10.5225C5.33725 10.4909 5.28844 10.4681 5.19083 10.4226L1.55332 8.72494C1.05806 8.4938 0.810428 8.37823 0.732855 8.21913C0.665422 8.08082 0.665422 7.91918 0.732855 7.78087C0.810428 7.62177 1.05806 7.5062 1.55332 7.27506L5.19083 5.57743C5.28844 5.53188 5.33725 5.5091 5.37918 5.47749C5.41637 5.44946 5.44946 5.41637 5.47749 5.37918C5.5091 5.33725 5.53188 5.28844 5.57743 5.19083L7.27506 1.55332Z" fill="#FF9F1A"/>
</svg>
