<svg width="18" height="18" viewBox="0 0 18 18" fill="none" xmlns="http://www.w3.org/2000/svg">
<g opacity="0.6">
<path d="M15.0595 7.70463V5.70795C15.0595 4.967 14.4581 4.36565 13.7172 4.36565H9.69027V3.4851C9.89497 3.30121 10.0258 3.03677 10.0258 2.74012C10.0258 2.18441 9.57484 1.7334 9.01912 1.7334C8.46341 1.7334 8.0124 2.18441 8.0124 2.74012C8.0124 3.03677 8.14327 3.30121 8.34797 3.4851V4.36565H4.32107C3.58012 4.36565 2.97877 4.967 2.97877 5.70795V7.72006C2.95259 7.72207 2.93044 7.72342 2.93044 7.72342C2.57876 7.74825 2.30762 8.04087 2.30762 8.39255V9.73486C2.30762 10.106 2.60762 10.406 2.97877 10.406V13.7618C2.97877 14.5027 3.58012 15.1041 4.32107 15.1041H13.7172C14.4581 15.1041 15.0595 14.5027 15.0595 13.7618V10.406C15.4306 10.406 15.7306 10.106 15.7306 9.73486V8.43417C15.738 8.33148 15.7226 8.22611 15.6823 8.12879C15.5467 7.80127 15.2561 7.72275 15.0595 7.70463ZM5.66337 8.39255C5.66337 7.6516 6.11438 7.05025 6.6701 7.05025C7.22581 7.05025 7.67682 7.6516 7.67682 8.39255C7.67682 9.1335 7.22581 9.73486 6.6701 9.73486C6.11438 9.73486 5.66337 9.1335 5.66337 8.39255ZM11.7024 12.4195C11.0306 12.4174 6.33519 12.4195 6.33452 12.4195V11.0772C6.33452 11.0772 11.0332 11.0758 11.7051 11.0772L11.7024 12.4195ZM11.3681 9.73486C10.8124 9.73486 10.3614 9.1335 10.3614 8.39255C10.3614 7.6516 10.8124 7.05025 11.3681 7.05025C11.9239 7.05025 12.3749 7.6516 12.3749 8.39255C12.3749 9.1335 11.9239 9.73486 11.3681 9.73486Z" fill="#9393A7"/>
</g>
</svg>
