<?xml version="1.0" encoding="utf-8"?>
<!-- Generator: Adobe Illustrator 22.1.0, SVG Export Plug-In . SVG Version: 6.00 Build 0)  -->
<svg version="1.1" id="Слой_1" xmlns="http://www.w3.org/2000/svg" xmlns:xlink="http://www.w3.org/1999/xlink" x="0px" y="0px"
	 viewBox="0 0 14 14" style="enable-background:new 0 0 14 14;" xml:space="preserve" width="14" height="14">
<style type="text/css">
	.st0{fill:#BCC3CC;}
</style>
<path class="st0" d="M7.2,0C3,0,0,2.9,0,7c0,4.3,3,7,7.3,7c0.8,0,1.6-0.1,2.2-0.3v-1.5c-0.4,0.1-1.2,0.2-2,0.2c-3.5,0-5.8-2-5.8-5.4
	c0-3.3,2.2-5.6,5.4-5.6c3.1,0,5.1,1.9,5.1,5c0,1.6-0.5,2.5-1.2,2.5c-0.5,0-0.7-0.4-0.7-0.9V3.8H8.4v1H8.3C7.9,4,7.2,3.6,6.3,3.6
	C4.6,3.6,3.5,5,3.5,7c0,2.1,1.2,3.5,2.9,3.5c1,0,1.6-0.4,2-1.3h0.1c0.2,0.8,1,1.3,2.1,1.3c2.1,0,3.4-1.7,3.4-4.3
	C14,2.5,11.2,0,7.2,0z M6.9,8.8c-0.8,0-1.2-0.7-1.2-1.7c0-1.1,0.5-1.7,1.2-1.7c0.8,0,1.2,0.7,1.2,1.7S7.7,8.8,6.9,8.8z"/>
</svg>
