<?xml version="1.0" encoding="utf-8"?>
<!-- Generator: Adobe Illustrator 22.1.0, SVG Export Plug-In . SVG Version: 6.00 Build 0)  -->
<svg version="1.1" id="Слой_1" xmlns="http://www.w3.org/2000/svg" xmlns:xlink="http://www.w3.org/1999/xlink" x="0px" y="0px"
	 viewBox="0 0 11 9.2" style="enable-background:new 0 0 11 9.2;" xml:space="preserve" width="15" height="13">
<path fill="#1AA1F3" d="M11,1.1L11,1.1L11,1.1L11,1.1L11,1.1L11,1.1L11,1.1l-0.1,0l-0.3,0.1c-0.2,0.1-0.3,0.1-0.5,0.1L9.8,1.4h0l0,0
	l0,0l0,0l0,0l0,0l0,0l0,0l0,0l0,0l0,0l0,0l0,0l0,0l0,0l0,0l0,0l0,0c0,0,0.1,0,0.1-0.1c0,0,0.1-0.1,0.1-0.1c0.2-0.2,0.3-0.4,0.5-0.6
	c0-0.1,0.1-0.1,0.1-0.2c0,0,0,0,0,0l0,0l0,0l0,0l0,0l0,0l0,0l0,0l0,0l0,0l0,0l0,0l0,0l0,0l0,0l0,0l0,0l0,0l0,0l0,0
	c0,0-0.1,0.1-0.3,0.1C10.2,0.4,10,0.5,9.9,0.5C9.7,0.6,9.6,0.6,9.4,0.7c-0.1,0-0.2,0-0.3,0C9.1,0.6,9,0.5,9,0.4
	C8.8,0.3,8.6,0.2,8.4,0.1C8.3,0.1,8.2,0.1,8.1,0L7.9,0H7.3v0c0,0,0,0-0.1,0C7.1,0,7,0.1,6.9,0.1c-0.1,0-0.3,0.1-0.4,0.2
	C6.2,0.5,6,0.7,5.8,0.9C5.7,1,5.7,1.1,5.6,1.2C5.5,1.5,5.4,1.9,5.4,2.3c0,0.1,0,0.2,0,0.4l0,0.1l0,0l0,0l-0.1,0c0,0-0.1,0-0.3,0
	c-0.1,0-0.3,0-0.6-0.1C4.3,2.7,4.1,2.6,4,2.6c-0.1,0-0.3-0.1-0.5-0.2C3.2,2.3,3,2.2,2.7,2.1C2.4,1.9,2,1.6,1.7,1.4
	C1.6,1.3,1.5,1.2,1.5,1.2c0,0,0,0,0,0c0,0-0.1-0.1-0.2-0.2C1.1,0.8,1,0.7,0.9,0.6L0.8,0.5l0,0l0,0l0,0l0,0l0,0l0,0l0,0l0,0l0,0l0,0
	l0,0l0,0l0,0l0,0l0,0l0,0l0,0l0,0L0.7,0.6C0.6,0.9,0.5,1.1,0.5,1.3c0,0.1,0,0.2,0,0.3c0,0.3,0.1,0.5,0.2,0.8c0,0.1,0.1,0.2,0.1,0.3
	c0,0.1,0.1,0.2,0.2,0.2C1,3.1,1,3.2,1.1,3.2c0.1,0.1,0.1,0.1,0.2,0.2l0.1,0.1l0,0l0,0l0,0l0,0l0,0l0,0l0,0l0,0l0,0l0,0l0,0l0,0l0,0
	l0,0l0,0l0,0l0,0H1.3l0,0c0,0-0.1,0-0.3-0.1c-0.1,0-0.3-0.1-0.4-0.1L0.5,3.2l0,0l0,0l0,0l0,0l0,0l0,0l0,0.2c0,0.3,0.1,0.6,0.2,0.9
	c0.1,0.1,0.1,0.3,0.2,0.4C1,4.8,1.1,4.9,1.2,5c0.1,0.1,0.2,0.1,0.2,0.2c0.1,0.1,0.2,0.1,0.3,0.2C1.9,5.4,2,5.5,2,5.5c0,0,0,0,0.1,0
	l0,0l0,0l0,0l0,0l0,0l0,0l0,0l0,0l0,0l0,0l0,0l0,0L2,5.6c-0.1,0-0.2,0-0.3,0c-0.2,0-0.3,0-0.3,0l-0.1,0l0,0l0,0l0,0l0,0l0,0l0,0
	l0.1,0.2C1.4,6,1.5,6.2,1.7,6.4c0.1,0.1,0.1,0.1,0.2,0.2c0.3,0.2,0.6,0.4,1,0.5c0.1,0,0.3,0.1,0.4,0.1l0.1,0l0,0l0,0l0,0l0,0l0,0
	l0,0l0,0l0,0l0,0l0,0l0,0l0,0l0,0l0,0L3,7.4C2.9,7.5,2.8,7.6,2.7,7.6c-0.1,0-0.2,0.1-0.4,0.2C2.1,7.9,1.9,7.9,1.7,8
	C1.3,8.1,0.8,8.2,0.3,8.2c-0.1,0-0.2,0-0.2,0l0,0l0,0l0,0v0h0l0,0l0,0l0,0l0,0l0,0l0,0l0,0l0,0l0,0l0,0l0,0l0,0l0.1,0.1
	c0.1,0,0.1,0.1,0.2,0.1c0,0,0.2,0.1,0.4,0.2c0.2,0.1,0.5,0.2,0.7,0.3C1.5,8.9,1.7,9,1.9,9c0.2,0,0.4,0.1,0.6,0.1
	c0.1,0,0.3,0,0.4,0.1c0,0,0.1,0,0.1,0l0.1,0v0h0.6v0l0.4,0c0.2,0,0.4,0,0.6-0.1C5,9,5.1,9,5.3,8.9c0.2-0.1,0.4-0.1,0.6-0.2
	c0.2-0.1,0.3-0.1,0.5-0.2c0.2-0.1,0.3-0.2,0.4-0.2S7,8.1,7.2,8c0.1-0.1,0.2-0.2,0.4-0.3c0.1-0.1,0.2-0.2,0.2-0.2L8,7.3
	C8.1,7.2,8.2,7,8.4,6.9c0.6-0.7,1-1.6,1.2-2.5C9.7,3.9,9.8,3.5,9.9,3c0-0.2,0-0.3,0-0.5c0-0.2,0.1-0.3,0.2-0.4
	c0.1-0.1,0.2-0.2,0.4-0.4c0.1-0.1,0.1-0.1,0.2-0.2c0,0,0,0,0,0c0-0.1,0.1-0.1,0.1-0.2C10.9,1.2,11,1.2,11,1.1L11,1.1L11,1.1L11,1.1
	L11,1.1L11,1.1L11,1.1L11,1.1L11,1.1L11,1.1L11,1.1L11,1.1L11,1.1L11,1.1L11,1.1L11,1.1L11,1.1L11,1.1z"/>
</svg>
