<?xml version="1.0" encoding="utf-8"?>
<!-- Generator: Adobe Illustrator 22.1.0, SVG Export Plug-In . SVG Version: 6.00 Build 0)  -->
<svg version="1.1" id="Слой_1" xmlns="http://www.w3.org/2000/svg" xmlns:xlink="http://www.w3.org/1999/xlink" x="0px" y="0px"
	 viewBox="0 0 15 15" style="enable-background:new 0 0 15 15;" xml:space="preserve" width="15" height="15">
<g>
	<path fill="#654BFA" d="M1.2,4.1c0.1,0,0.1,0.1,0.2,0.1l0,0h2.6c0.2,0,0.3-0.1,0.4-0.3C4.7,2.7,5,1.7,5.4,1c0.1-0.2,0-0.4-0.2-0.5
		c-0.1,0-0.2-0.1-0.3,0C3.3,1,2,2.1,1.1,3.5C1,3.7,1.1,3.9,1.2,4.1z"/>
	<path fill="#654BFA" d="M4.1,10L4.1,10c0.1-0.1,0.1-0.2,0.1-0.3c-0.2-1.5-0.2-2.9,0-4.4c0-0.2-0.1-0.4-0.3-0.4c0,0,0,0,0,0H0.7
		C0.6,4.9,0.4,5,0.4,5.1C0.1,5.9,0,6.7,0,7.5c0,0.8,0.1,1.6,0.4,2.4c0.1,0.2,0.2,0.3,0.4,0.3h3.1C4,10.1,4.1,10,4.1,10z"/>
	<path fill="#654BFA" d="M9.6,4.9H5.4C5.2,4.9,5,5,5,5.2C4.9,5.9,4.9,6.7,4.9,7.5c0,0.8,0,1.6,0.1,2.3c0,0.2,0.2,0.3,0.4,0.3h4.2
		c0.2,0,0.3-0.1,0.4-0.3c0.1-0.7,0.1-1.5,0.1-2.3c0-0.8,0-1.6-0.1-2.3C9.9,5,9.8,4.9,9.6,4.9z"/>
	<path fill="#654BFA" d="M10.5,3.8L10.5,3.8c0,0.2,0.2,0.3,0.4,0.3h2.6c0.2,0,0.4-0.2,0.4-0.4c0-0.1,0-0.1-0.1-0.2
		C12.9,2.1,11.6,1,10,0.5c-0.2-0.1-0.4,0-0.5,0.2c0,0.1,0,0.2,0,0.3C10,1.7,10.3,2.7,10.5,3.8z"/>
	<path fill="#654BFA" d="M5.3,4c0.1,0.1,0.2,0.1,0.3,0.1h3.7c0.2,0,0.4-0.2,0.4-0.4c0,0,0-0.1,0-0.1C9.2,1.4,8.4,0,7.5,0
		C6.6,0,5.7,1.4,5.2,3.7C5.2,3.8,5.2,3.9,5.3,4z"/>
	<path fill="#654BFA" d="M14.6,5.1c-0.1-0.2-0.2-0.3-0.4-0.3h-3.1c-0.2,0-0.4,0.2-0.4,0.4c0,0,0,0,0,0c0.2,1.5,0.2,2.9,0,4.4
		c0,0.2,0.1,0.4,0.3,0.4c0,0,0,0,0,0h3.1c0.2,0,0.3-0.1,0.4-0.3C14.8,9.1,15,8.3,15,7.5S14.8,5.9,14.6,5.1z"/>
	<path fill="#654BFA" d="M13.7,10.9c-0.1,0-0.1-0.1-0.2-0.1h-2.6c-0.2,0-0.3,0.1-0.4,0.3c-0.2,1.1-0.5,2.1-0.9,2.8
		c-0.1,0.1,0,0.3,0.1,0.4c0.1,0.1,0.3,0.2,0.4,0.1c1.6-0.6,2.9-1.7,3.8-3.1C13.9,11.2,13.9,11,13.7,10.9z"/>
	<path fill="#654BFA" d="M4.5,11.1c0-0.2-0.2-0.3-0.4-0.3H1.4c-0.2,0-0.4,0.2-0.4,0.4c0,0.1,0,0.1,0.1,0.2c0.9,1.4,2.2,2.5,3.8,3.1
		c0.2,0.1,0.4,0,0.5-0.2c0-0.1,0-0.2,0-0.3C5,13.2,4.7,12.3,4.5,11.1z"/>
	<path fill="#654BFA" d="M9.6,11L9.6,11c-0.1-0.1-0.2-0.1-0.3-0.1H5.6c-0.2,0-0.4,0.2-0.4,0.4c0,0,0,0.1,0,0.1C5.7,13.5,6.6,15,7.5,15
		s1.8-1.4,2.2-3.7C9.7,11.2,9.7,11.1,9.6,11z"/>
</g>
</svg>
