<svg width="24" height="24" viewBox="0 0 24 24" fill="none" xmlns="http://www.w3.org/2000/svg">
<path d="M12.0001 22.2858C17.6804 22.2858 22.2858 17.6804 22.2858 12.0001C22.2858 6.31978 17.6804 1.71436 12.0001 1.71436C6.31978 1.71436 1.71436 6.31978 1.71436 12.0001C1.71436 17.6804 6.31978 22.2858 12.0001 22.2858ZM7.58407 16.7401C7.42121 16.9998 7.14264 17.1429 6.85636 17.1429C6.70121 17.1429 6.54436 17.1009 6.40293 17.0126C6.00093 16.7615 5.87921 16.2326 6.13036 15.8315L6.36178 15.4612C6.51007 15.4424 6.67036 15.4286 6.85721 15.4286C7.37493 15.4286 7.80436 15.5924 8.16521 15.8101L7.58407 16.7401ZM6.85721 14.5715C6.38407 14.5715 6.00007 14.1875 6.00007 13.7144C6.00007 13.2412 6.38407 12.8572 6.85721 12.8572H7.9895L10.9895 8.05721L9.9875 6.45436C9.73721 6.05321 9.85893 5.52436 10.2601 5.27321C10.6612 5.02293 11.1901 5.1455 11.4412 5.54578L12.0001 6.43978L12.5589 5.54578C12.8101 5.14378 13.3389 5.02121 13.7401 5.27321C14.1421 5.52436 14.2638 6.05321 14.0126 6.45436L10.0106 12.8572H12.7424C12.9609 13.0141 13.2026 13.2575 13.4581 13.6638C13.6475 13.9646 13.7401 14.2715 13.7915 14.5715H6.85721ZM17.8698 15.8315C18.1201 16.2326 17.9984 16.7615 17.5972 17.0126C17.4558 17.1009 17.2989 17.1429 17.1438 17.1429C16.8584 17.1429 16.5789 16.9998 16.4161 16.7401L12.5418 10.5412C12.6104 10.3706 12.6986 10.1872 12.8298 9.97807C13.0672 9.60007 13.3715 9.33693 13.6929 9.14836L16.0106 12.8572H17.1429C17.6161 12.8572 18.0001 13.2412 18.0001 13.7144C18.0001 14.1875 17.6161 14.5715 17.1429 14.5715H17.0821L17.8698 15.8315Z" fill="currentColor"/>
</svg>
