<svg width="24" height="24" viewBox="0 0 24 24" fill="none" xmlns="http://www.w3.org/2000/svg">
<path fill-rule="evenodd" clip-rule="evenodd" d="M1.71519 5.37638C1.71471 4.9472 2.03173 4.58382 2.45702 4.52608L10.1213 3.48548L10.125 11.5696L1.72218 11.6173L1.71519 5.37638ZM10.1173 12.5011L10.1238 20.5924L2.4617 19.5422C2.03728 19.4841 1.72098 19.1215 1.72095 18.6931L1.72053 12.447L10.1173 12.5011ZM11.1364 3.3362L21.3026 1.85702C21.8197 1.78179 22.2832 2.18273 22.2832 2.70524V11.4669L11.1364 11.5551V3.3362ZM22.2858 12.5772L22.2834 21.2999C22.2833 21.8207 21.8226 22.221 21.3069 22.1484L11.1364 20.7174L11.1207 12.5591L22.2858 12.5772Z" fill="currentColor"/>
</svg>
