<?xml version="1.0" encoding="utf-8"?>
<!-- Generator: Adobe Illustrator 15.0.0, SVG Export Plug-In . SVG Version: 6.00 Build 0)  -->
<!DOCTYPE svg PUBLIC "-//W3C//DTD SVG 1.1//EN" "http://www.w3.org/Graphics/SVG/1.1/DTD/svg11.dtd" [
	<!ENTITY ns_flows "http://ns.adobe.com/Flows/1.0/">
	<!ENTITY ns_extend "http://ns.adobe.com/Extensibility/1.0/">
	<!ENTITY ns_ai "http://ns.adobe.com/AdobeIllustrator/10.0/">
	<!ENTITY ns_graphs "http://ns.adobe.com/Graphs/1.0/">
]>
<svg version="1.1" id="Layer_1" xmlns:x="&ns_extend;" xmlns:i="&ns_ai;" xmlns:graph="&ns_graphs;"
	 xmlns="http://www.w3.org/2000/svg" xmlns:xlink="http://www.w3.org/1999/xlink" xmlns:a="http://ns.adobe.com/AdobeSVGViewerExtensions/3.0/"
	 x="0px" y="0px" width="64px" height="64px" viewBox="0 0 64 64" enable-background="new 0 0 64 64" xml:space="preserve">
<linearGradient id="SVGID_1_" gradientUnits="userSpaceOnUse" x1="31.9995" y1="2" x2="31.9995" y2="62.0005">
	<stop  offset="0" style="stop-color:#FF9900"/>
	<stop  offset="0.2875" style="stop-color:#FF9500"/>
	<stop  offset="0.5853" style="stop-color:#FF8800"/>
	<stop  offset="0.8868" style="stop-color:#FF7400"/>
	<stop  offset="1" style="stop-color:#FF6A00"/>
	<a:midPointStop  offset="0" style="stop-color:#FF9900"/>
	<a:midPointStop  offset="0.7" style="stop-color:#FF9900"/>
	<a:midPointStop  offset="1" style="stop-color:#FF6A00"/>
</linearGradient>
<path fill="url(#SVGID_1_)" d="M2,32C2,15.436,15.439,2,32,2c16.572,0,30,13.436,30,30c0,16.57-13.428,30-30,30
	C15.439,62,2,48.57,2,32z"/>
<path fill="#FFFFFF" d="M47.938,25.384l-0.467,2.833c-0.113,0.822-0.652,1.233-1.46,1.233h-4.903l-0.852,5.1h4.72
	c0.907,0,1.389,0.553,1.233,1.46l-0.425,2.832c-0.114,0.865-0.652,1.233-1.46,1.233h-4.99l-1.285,7.692
	C37.936,48.59,37.411,49,36.604,49h-3.06c-0.907,0-1.389-0.553-1.232-1.459l1.246-7.466h-5.756l-1.284,7.692
	C26.404,48.59,25.879,49,25.071,49h-3.06c-0.906,0-1.388-0.553-1.232-1.459l1.247-7.466h-4.732c-0.906,0-1.389-0.553-1.231-1.46
	l0.467-2.832c0.114-0.822,0.651-1.233,1.46-1.233h4.96l0.852-5.1h-4.777c-0.906,0-1.388-0.553-1.232-1.459l0.467-2.833
	c0.114-0.822,0.652-1.233,1.46-1.233h5.005l1.285-7.693C26.121,15.411,26.645,15,27.452,15h3.061c0.907,0,1.389,0.553,1.231,1.459
	l-1.246,7.465h5.757l1.284-7.693C37.652,15.411,38.177,15,38.983,15h3.062c0.905,0,1.388,0.553,1.231,1.459l-1.246,7.465h4.676
	C47.611,23.925,48.094,24.478,47.938,25.384z M35.333,29.45h-5.756l-0.852,5.1h5.755L35.333,29.45z"/>
</svg>
