<?xml version="1.0" encoding="utf-8"?>
<!-- Generator: Adobe Illustrator 15.0.0, SVG Export Plug-In . SVG Version: 6.00 Build 0)  -->
<!DOCTYPE svg PUBLIC "-//W3C//DTD SVG 1.1//EN" "http://www.w3.org/Graphics/SVG/1.1/DTD/svg11.dtd" [
	<!ENTITY ns_flows "http://ns.adobe.com/Flows/1.0/">
	<!ENTITY ns_extend "http://ns.adobe.com/Extensibility/1.0/">
	<!ENTITY ns_ai "http://ns.adobe.com/AdobeIllustrator/10.0/">
	<!ENTITY ns_graphs "http://ns.adobe.com/Graphs/1.0/">
]>
<svg version="1.1" id="Layer_1" xmlns:x="&ns_extend;" xmlns:i="&ns_ai;" xmlns:graph="&ns_graphs;"
	 xmlns="http://www.w3.org/2000/svg" xmlns:xlink="http://www.w3.org/1999/xlink" xmlns:a="http://ns.adobe.com/AdobeSVGViewerExtensions/3.0/"
	 x="0px" y="0px" width="64px" height="64px" viewBox="0 0 64 64" enable-background="new 0 0 64 64" xml:space="preserve">
<linearGradient id="SVGID_1_" gradientUnits="userSpaceOnUse" x1="31.9995" y1="2" x2="31.9995" y2="62.0005">
	<stop  offset="0" style="stop-color:#FF9900"/>
	<stop  offset="0.2875" style="stop-color:#FF9500"/>
	<stop  offset="0.5853" style="stop-color:#FF8800"/>
	<stop  offset="0.8868" style="stop-color:#FF7400"/>
	<stop  offset="1" style="stop-color:#FF6A00"/>
	<a:midPointStop  offset="0" style="stop-color:#FF9900"/>
	<a:midPointStop  offset="0.7" style="stop-color:#FF9900"/>
	<a:midPointStop  offset="1" style="stop-color:#FF6A00"/>
</linearGradient>
<path fill="url(#SVGID_1_)" d="M2,32C2,15.436,15.439,2,32,2c16.572,0,30,13.436,30,30c0,16.57-13.428,30-30,30
	C15.439,62,2,48.57,2,32z"/>
<path fill="#FFFFFF" d="M48.408,30.793v2.414c0,1.326-0.844,2.051-2.171,2.051l-8.808-0.242l4.947,7.24
	c0.844,1.206,0.602,2.172-0.604,2.896l-2.293,1.447c-1.207,0.724-2.293,0.483-3.016-0.845L32,37.912l-4.465,7.842
	c-0.723,1.328-1.809,1.568-3.016,0.845l-2.292-1.327c-1.206-0.724-1.448-1.81-0.604-3.016l4.947-7.24l-8.808,0.242
	c-1.327,0-2.171-0.725-2.171-2.051v-2.414c0-1.327,0.845-2.051,2.171-2.051l8.808,0.242l-4.947-7.239
	c-0.844-1.207-0.603-2.172,0.604-2.896l2.292-1.447c1.207-0.725,2.292-0.483,3.016,0.844L32,26.088l4.465-7.842
	c0.723-1.328,1.809-1.569,3.016-0.844l2.293,1.327c1.205,0.724,1.447,1.81,0.604,3.017l-4.947,7.239l8.808-0.242
	C47.564,28.742,48.408,29.466,48.408,30.793z"/>
</svg>
