<?xml version="1.0" encoding="utf-8"?>
<!-- Generator: Adobe Illustrator 15.0.0, SVG Export Plug-In . SVG Version: 6.00 Build 0)  -->
<!DOCTYPE svg PUBLIC "-//W3C//DTD SVG 1.1//EN" "http://www.w3.org/Graphics/SVG/1.1/DTD/svg11.dtd" [
	<!ENTITY ns_flows "http://ns.adobe.com/Flows/1.0/">
	<!ENTITY ns_extend "http://ns.adobe.com/Extensibility/1.0/">
	<!ENTITY ns_ai "http://ns.adobe.com/AdobeIllustrator/10.0/">
	<!ENTITY ns_graphs "http://ns.adobe.com/Graphs/1.0/">
]>
<svg version="1.1" id="Layer_1" xmlns:x="&ns_extend;" xmlns:i="&ns_ai;" xmlns:graph="&ns_graphs;"
	 xmlns="http://www.w3.org/2000/svg" xmlns:xlink="http://www.w3.org/1999/xlink" xmlns:a="http://ns.adobe.com/AdobeSVGViewerExtensions/3.0/"
	 x="0px" y="0px" width="64px" height="64px" viewBox="0 0 64 64" enable-background="new 0 0 64 64" xml:space="preserve">
<linearGradient id="SVGID_1_" gradientUnits="userSpaceOnUse" x1="31.9995" y1="2" x2="31.9995" y2="62.0005">
	<stop  offset="0" style="stop-color:#FF9900"/>
	<stop  offset="0.2875" style="stop-color:#FF9500"/>
	<stop  offset="0.5853" style="stop-color:#FF8800"/>
	<stop  offset="0.8868" style="stop-color:#FF7400"/>
	<stop  offset="1" style="stop-color:#FF6A00"/>
	<a:midPointStop  offset="0" style="stop-color:#FF9900"/>
	<a:midPointStop  offset="0.7" style="stop-color:#FF9900"/>
	<a:midPointStop  offset="1" style="stop-color:#FF6A00"/>
</linearGradient>
<path fill="url(#SVGID_1_)" d="M2,32C2,15.436,15.439,2,32,2c16.572,0,30,13.436,30,30c0,16.57-13.428,30-30,30
	C15.439,62,2,48.57,2,32z"/>
<path fill="#FFFFFF" d="M19.675,32c0-9.507,4.468-16,12.325-16c7.857,0,12.324,6.493,12.324,16c0,9.508-4.467,16-12.324,16
	C24.143,48,19.675,41.508,19.675,32z M38.273,32c0-6.514-2.146-10.102-6.273-10.102S25.728,25.486,25.728,32
	c0,6.515,2.145,10.102,6.272,10.102S38.273,38.515,38.273,32z"/>
</svg>
