<?xml version="1.0" encoding="utf-8"?>
<!-- Generator: Adobe Illustrator 15.0.0, SVG Export Plug-In . SVG Version: 6.00 Build 0)  -->
<!DOCTYPE svg PUBLIC "-//W3C//DTD SVG 1.1//EN" "http://www.w3.org/Graphics/SVG/1.1/DTD/svg11.dtd" [
	<!ENTITY ns_flows "http://ns.adobe.com/Flows/1.0/">
	<!ENTITY ns_extend "http://ns.adobe.com/Extensibility/1.0/">
	<!ENTITY ns_ai "http://ns.adobe.com/AdobeIllustrator/10.0/">
	<!ENTITY ns_graphs "http://ns.adobe.com/Graphs/1.0/">
]>
<svg version="1.1" id="Layer_1" xmlns:x="&ns_extend;" xmlns:i="&ns_ai;" xmlns:graph="&ns_graphs;"
	 xmlns="http://www.w3.org/2000/svg" xmlns:xlink="http://www.w3.org/1999/xlink" xmlns:a="http://ns.adobe.com/AdobeSVGViewerExtensions/3.0/"
	 x="0px" y="0px" width="64px" height="64px" viewBox="0 0 64 64" enable-background="new 0 0 64 64" xml:space="preserve">
<linearGradient id="SVGID_1_" gradientUnits="userSpaceOnUse" x1="31.9995" y1="2" x2="31.9995" y2="62.0005">
	<stop  offset="0" style="stop-color:#00ABF1"/>
	<stop  offset="0.2292" style="stop-color:#00A7EF"/>
	<stop  offset="0.4667" style="stop-color:#009AE9"/>
	<stop  offset="0.708" style="stop-color:#0086E0"/>
	<stop  offset="0.9504" style="stop-color:#0069D3"/>
	<stop  offset="1" style="stop-color:#0062D0"/>
	<a:midPointStop  offset="0" style="stop-color:#00ABF1"/>
	<a:midPointStop  offset="0.7" style="stop-color:#00ABF1"/>
	<a:midPointStop  offset="1" style="stop-color:#0062D0"/>
</linearGradient>
<path fill="url(#SVGID_1_)" d="M62,54c0,4.399-3.6,8-8,8H10c-4.399,0-8-3.601-8-8V10c0-4.4,3.601-8,8-8h44c4.4,0,8,3.6,8,8V54z"/>
<path fill="#FFFFFF" d="M32.332,16h4.469c0.697,0,1.086,0.388,1.086,1.085v29.829c0,0.697-0.389,1.086-1.086,1.086h-4.116
	c-0.697,0-1.086-0.389-1.086-1.086V22.331l-6.182,3.395c-0.743,0.435-1.303,0.08-1.303-0.743v-3.988
	c0-0.571,0.229-1.006,0.742-1.303l6.125-3.349C31.417,16.079,31.818,16,32.332,16z"/>
</svg>
