<?xml version="1.0" encoding="utf-8"?>
<!-- Generator: Adobe Illustrator 15.0.0, SVG Export Plug-In . SVG Version: 6.00 Build 0)  -->
<!DOCTYPE svg PUBLIC "-//W3C//DTD SVG 1.1//EN" "http://www.w3.org/Graphics/SVG/1.1/DTD/svg11.dtd" [
	<!ENTITY ns_flows "http://ns.adobe.com/Flows/1.0/">
	<!ENTITY ns_extend "http://ns.adobe.com/Extensibility/1.0/">
	<!ENTITY ns_ai "http://ns.adobe.com/AdobeIllustrator/10.0/">
	<!ENTITY ns_graphs "http://ns.adobe.com/Graphs/1.0/">
]>
<svg version="1.1" id="Layer_1" xmlns:x="&ns_extend;" xmlns:i="&ns_ai;" xmlns:graph="&ns_graphs;"
	 xmlns="http://www.w3.org/2000/svg" xmlns:xlink="http://www.w3.org/1999/xlink" xmlns:a="http://ns.adobe.com/AdobeSVGViewerExtensions/3.0/"
	 x="0px" y="0px" width="64px" height="64px" viewBox="0 0 64 64" enable-background="new 0 0 64 64" xml:space="preserve">
<linearGradient id="SVGID_1_" gradientUnits="userSpaceOnUse" x1="31.9995" y1="2" x2="31.9995" y2="62.0005">
	<stop  offset="0" style="stop-color:#FF9900"/>
	<stop  offset="0.2875" style="stop-color:#FF9500"/>
	<stop  offset="0.5853" style="stop-color:#FF8800"/>
	<stop  offset="0.8868" style="stop-color:#FF7400"/>
	<stop  offset="1" style="stop-color:#FF6A00"/>
	<a:midPointStop  offset="0" style="stop-color:#FF9900"/>
	<a:midPointStop  offset="0.7" style="stop-color:#FF9900"/>
	<a:midPointStop  offset="1" style="stop-color:#FF6A00"/>
</linearGradient>
<path fill="url(#SVGID_1_)" d="M2,32C2,15.436,15.439,2,32,2c16.572,0,30,13.436,30,30c0,16.57-13.428,30-30,30
	C15.439,62,2,48.57,2,32z"/>
<path fill="#FFFFFF" d="M21.5,46.936v-2.781c0-0.516,0.168-0.932,0.549-1.313l10.113-10.203c1.974-2.006,3.667-4.339,3.667-6.548
	c0-2.646-1.581-4.081-3.902-4.081c-2.254,0-3.823,0.976-4.182,3.185c-0.112,0.684-0.471,1.031-1.11,1.031h-4.07
	c-0.684,0-1.065-0.381-1.021-1.11C22.06,18.803,26.87,16,31.792,16c5.102,0,10.203,3.173,10.203,10.091
	c0,3.588-2.242,7.12-4.955,9.8l-6.313,6.167h10.707c0.684,0,1.065,0.382,1.065,1.065v3.813c0,0.684-0.382,1.064-1.065,1.064h-18.87
	C21.881,48,21.5,47.619,21.5,46.936z"/>
</svg>
