<?xml version="1.0" encoding="utf-8"?>
<!-- Generator: Adobe Illustrator 15.0.0, SVG Export Plug-In . SVG Version: 6.00 Build 0)  -->
<!DOCTYPE svg PUBLIC "-//W3C//DTD SVG 1.1//EN" "http://www.w3.org/Graphics/SVG/1.1/DTD/svg11.dtd" [
	<!ENTITY ns_flows "http://ns.adobe.com/Flows/1.0/">
	<!ENTITY ns_extend "http://ns.adobe.com/Extensibility/1.0/">
	<!ENTITY ns_ai "http://ns.adobe.com/AdobeIllustrator/10.0/">
	<!ENTITY ns_graphs "http://ns.adobe.com/Graphs/1.0/">
]>
<svg version="1.1" id="Layer_1" xmlns:x="&ns_extend;" xmlns:i="&ns_ai;" xmlns:graph="&ns_graphs;"
	 xmlns="http://www.w3.org/2000/svg" xmlns:xlink="http://www.w3.org/1999/xlink" xmlns:a="http://ns.adobe.com/AdobeSVGViewerExtensions/3.0/"
	 x="0px" y="0px" width="64px" height="64px" viewBox="0 0 64 64" enable-background="new 0 0 64 64" xml:space="preserve">
<linearGradient id="SVGID_1_" gradientUnits="userSpaceOnUse" x1="13.9775" y1="8.978" x2="49.4505" y2="44.451">
	<stop  offset="0" style="stop-color:#4E585E"/>
	<stop  offset="0.1249" style="stop-color:#464D55"/>
	<stop  offset="0.3982" style="stop-color:#3A3B47"/>
	<stop  offset="0.684" style="stop-color:#32303E"/>
	<stop  offset="1" style="stop-color:#302C3B"/>
	<a:midPointStop  offset="0" style="stop-color:#4E585E"/>
	<a:midPointStop  offset="0.2727" style="stop-color:#4E585E"/>
	<a:midPointStop  offset="1" style="stop-color:#302C3B"/>
</linearGradient>
<path fill="url(#SVGID_1_)" d="M32,2C18.213,2,7,13.217,7,27c0,13.785,11.213,25,25,25c13.785,0,25-11.215,25-25
	C57,13.217,45.785,2,32,2z M32,47.002c-11.029,0-20.002-8.973-20.002-20.002c0-11.027,8.973-19.998,20.002-19.998
	c11.027,0,19.998,8.971,19.998,19.998C51.998,38.029,43.027,47.002,32,47.002z"/>
<linearGradient id="SVGID_2_" gradientUnits="userSpaceOnUse" x1="13.5669" y1="8.1455" x2="50.6734" y2="45.252">
	<stop  offset="0" style="stop-color:#4E585E"/>
	<stop  offset="0.1249" style="stop-color:#464D55"/>
	<stop  offset="0.3982" style="stop-color:#3A3B47"/>
	<stop  offset="0.684" style="stop-color:#32303E"/>
	<stop  offset="1" style="stop-color:#302C3B"/>
	<a:midPointStop  offset="0" style="stop-color:#4E585E"/>
	<a:midPointStop  offset="0.2727" style="stop-color:#4E585E"/>
	<a:midPointStop  offset="1" style="stop-color:#302C3B"/>
</linearGradient>
<path fill="url(#SVGID_2_)" d="M19.504,26.999C19.504,19.686,24.967,14,32.548,14c5.589,0,10.363,3.442,11.902,8.466
	c0.15,0.581-0.153,0.957-0.734,0.957h-3.479c-0.473,0-0.76-0.233-0.965-0.671c-1.117-2.432-3.71-3.96-6.725-3.96
	c-4.908,0-8.125,3.397-8.125,8.208s3.217,8.208,8.125,8.208c3.015,0,5.607-1.529,6.725-3.961c0.205-0.438,0.492-0.671,0.965-0.671
	h3.479c0.581,0,0.895,0.349,0.742,0.886C42.974,36.494,38.173,40,32.548,40C24.967,40,19.504,34.313,19.504,26.999z"/>
</svg>
