<?xml version="1.0" encoding="utf-8"?>
<!-- Generator: Adobe Illustrator 15.0.0, SVG Export Plug-In . SVG Version: 6.00 Build 0)  -->
<!DOCTYPE svg PUBLIC "-//W3C//DTD SVG 1.1//EN" "http://www.w3.org/Graphics/SVG/1.1/DTD/svg11.dtd" [
	<!ENTITY ns_flows "http://ns.adobe.com/Flows/1.0/">
	<!ENTITY ns_extend "http://ns.adobe.com/Extensibility/1.0/">
	<!ENTITY ns_ai "http://ns.adobe.com/AdobeIllustrator/10.0/">
	<!ENTITY ns_graphs "http://ns.adobe.com/Graphs/1.0/">
]>
<svg version="1.1" id="Layer_1" xmlns:x="&ns_extend;" xmlns:i="&ns_ai;" xmlns:graph="&ns_graphs;"
	 xmlns="http://www.w3.org/2000/svg" xmlns:xlink="http://www.w3.org/1999/xlink" xmlns:a="http://ns.adobe.com/AdobeSVGViewerExtensions/3.0/"
	 x="0px" y="0px" width="64px" height="64px" viewBox="0 0 64 64" enable-background="new 0 0 64 64" xml:space="preserve">
<linearGradient id="SVGID_1_" gradientUnits="userSpaceOnUse" x1="32.0005" y1="62" x2="32.0005" y2="2.0005">
	<stop  offset="0" style="stop-color:#E6EBEF"/>
	<stop  offset="0.1142" style="stop-color:#E8ECF0"/>
	<stop  offset="1" style="stop-color:#F2F5F7"/>
	<a:midPointStop  offset="0" style="stop-color:#E6EBEF"/>
	<a:midPointStop  offset="0.4121" style="stop-color:#E6EBEF"/>
	<a:midPointStop  offset="1" style="stop-color:#F2F5F7"/>
</linearGradient>
<path fill="url(#SVGID_1_)" d="M54,59c0,1.649-1.351,3-3,3H13c-1.65,0-3-1.351-3-3V5c0-1.65,1.35-3,3-3h38c1.649,0,3,1.35,3,3V59z"
	/>
<linearGradient id="SVGID_2_" gradientUnits="userSpaceOnUse" x1="32.0005" y1="62" x2="32.0005" y2="2.0005">
	<stop  offset="0" style="stop-color:#CFD8DD"/>
	<stop  offset="0.5378" style="stop-color:#D9E0E5"/>
	<stop  offset="1" style="stop-color:#E6EBEF"/>
	<a:midPointStop  offset="0" style="stop-color:#CFD8DD"/>
	<a:midPointStop  offset="0.5879" style="stop-color:#CFD8DD"/>
	<a:midPointStop  offset="1" style="stop-color:#E6EBEF"/>
</linearGradient>
<path fill="url(#SVGID_2_)" d="M51,2.5c1.378,0,2.5,1.122,2.5,2.5v54c0,1.378-1.122,2.5-2.5,2.5H13c-1.378,0-2.5-1.122-2.5-2.5V5
	c0-1.378,1.122-2.5,2.5-2.5H51 M51,2H13c-1.65,0-3,1.35-3,3v54c0,1.649,1.35,3,3,3h38c1.649,0,3-1.351,3-3V5C54,3.35,52.649,2,51,2
	L51,2z"/>
<linearGradient id="SVGID_3_" gradientUnits="userSpaceOnUse" x1="26.1484" y1="44.4648" x2="24.0654" y2="40.8407">
	<stop  offset="0" style="stop-color:#BC2AF7"/>
	<stop  offset="0.2161" style="stop-color:#B928F3"/>
	<stop  offset="0.4401" style="stop-color:#B121E6"/>
	<stop  offset="0.6677" style="stop-color:#A217D2"/>
	<stop  offset="0.8963" style="stop-color:#8E08B5"/>
	<stop  offset="0.9949" style="stop-color:#8400A6"/>
	<a:midPointStop  offset="0" style="stop-color:#BC2AF7"/>
	<a:midPointStop  offset="0.7" style="stop-color:#BC2AF7"/>
	<a:midPointStop  offset="0.9949" style="stop-color:#8400A6"/>
</linearGradient>
<path fill="url(#SVGID_3_)" d="M17.957,46.088l8.601-1.693L32,38.771C32,38.771,25.959,37.288,17.957,46.088L17.957,46.088z"/>
<linearGradient id="SVGID_4_" gradientUnits="userSpaceOnUse" x1="37.3965" y1="44.4014" x2="40.1462" y2="41.0682">
	<stop  offset="0" style="stop-color:#FF3B3B"/>
	<stop  offset="0.2558" style="stop-color:#FB3737"/>
	<stop  offset="0.5207" style="stop-color:#F02B2A"/>
	<stop  offset="0.7889" style="stop-color:#DD1616"/>
	<stop  offset="1" style="stop-color:#C90100"/>
	<a:midPointStop  offset="0" style="stop-color:#FF3B3B"/>
	<a:midPointStop  offset="0.7" style="stop-color:#FF3B3B"/>
	<a:midPointStop  offset="1" style="stop-color:#C90100"/>
</linearGradient>
<path fill="url(#SVGID_4_)" d="M46.045,46.088l-8.601-1.693l-5.442-5.623C32.002,38.771,38.042,37.288,46.045,46.088L46.045,46.088z
	"/>
<linearGradient id="SVGID_5_" gradientUnits="userSpaceOnUse" x1="32" y1="45.5488" x2="38.1221" y2="45.5488">
	<stop  offset="0" style="stop-color:#BC2AF7"/>
	<stop  offset="0.2161" style="stop-color:#B928F3"/>
	<stop  offset="0.4401" style="stop-color:#B121E6"/>
	<stop  offset="0.6677" style="stop-color:#A217D2"/>
	<stop  offset="0.8963" style="stop-color:#8E08B5"/>
	<stop  offset="0.9949" style="stop-color:#8400A6"/>
	<a:midPointStop  offset="0" style="stop-color:#BC2AF7"/>
	<a:midPointStop  offset="0.7" style="stop-color:#BC2AF7"/>
	<a:midPointStop  offset="0.9949" style="stop-color:#8400A6"/>
</linearGradient>
<path fill="url(#SVGID_5_)" d="M32,47.426l5.818,4.9C39.73,39.779,32,38.771,32,38.771V47.426z"/>
<linearGradient id="SVGID_6_" gradientUnits="userSpaceOnUse" x1="25.8774" y1="45.5488" x2="32" y2="45.5488">
	<stop  offset="0" style="stop-color:#C90100"/>
	<stop  offset="0.2111" style="stop-color:#DD1616"/>
	<stop  offset="0.4793" style="stop-color:#F02B2A"/>
	<stop  offset="0.7442" style="stop-color:#FB3737"/>
	<stop  offset="1" style="stop-color:#FF3B3B"/>
	<a:midPointStop  offset="0" style="stop-color:#C90100"/>
	<a:midPointStop  offset="0.3" style="stop-color:#C90100"/>
	<a:midPointStop  offset="1" style="stop-color:#FF3B3B"/>
</linearGradient>
<path fill="url(#SVGID_6_)" d="M32,47.426l-5.818,4.9C24.27,39.779,32,38.771,32,38.771V47.426z"/>
<radialGradient id="SVGID_7_" cx="31.9282" cy="40.3438" r="6.7105" gradientTransform="matrix(1 0 0 0.8809 0 4.8034)" gradientUnits="userSpaceOnUse">
	<stop  offset="0.2242" style="stop-color:#302C3B"/>
	<stop  offset="0.9333" style="stop-color:#302C3B;stop-opacity:0"/>
	<a:midPointStop  offset="0.2242" style="stop-color:#302C3B"/>
	<a:midPointStop  offset="0.3826" style="stop-color:#302C3B"/>
	<a:midPointStop  offset="0.9333" style="stop-color:#302C3B;stop-opacity:0"/>
</radialGradient>
<path fill="url(#SVGID_7_)" d="M38.661,40.2c0,0,0,7.226-6.661,7.226c-6.123,0-6.93-7.102-6.93-7.102L38.661,40.2z"/>
<linearGradient id="SVGID_8_" gradientUnits="userSpaceOnUse" x1="-178.8735" y1="138.3545" x2="-164.25" y2="138.3545" gradientTransform="matrix(1 0 0 -1 194 170)">
	<stop  offset="0" style="stop-color:#FF3B3B"/>
	<stop  offset="0.1675" style="stop-color:#FB3737"/>
	<stop  offset="0.3409" style="stop-color:#F02B2A"/>
	<stop  offset="0.5165" style="stop-color:#DD1616"/>
	<stop  offset="0.6548" style="stop-color:#C90100"/>
	<a:midPointStop  offset="0" style="stop-color:#FF3B3B"/>
	<a:midPointStop  offset="0.5" style="stop-color:#FF3B3B"/>
	<a:midPointStop  offset="0.1675" style="stop-color:#FB3737"/>
	<a:midPointStop  offset="0.5" style="stop-color:#FB3737"/>
	<a:midPointStop  offset="0.3409" style="stop-color:#F02B2A"/>
	<a:midPointStop  offset="0.5" style="stop-color:#F02B2A"/>
	<a:midPointStop  offset="0.5165" style="stop-color:#DD1616"/>
	<a:midPointStop  offset="0.5" style="stop-color:#DD1616"/>
	<a:midPointStop  offset="0.6548" style="stop-color:#C90100"/>
</linearGradient>
<path fill="url(#SVGID_8_)" d="M29.75,25.275c-6.301-9.131-16.893-4.561-14.191,2.024c2.719-3.24,8.278,0.499,7.98,2.806
	c-1.281,9.911,3,12.313,5.709,13.04c0,0,0.127-8.771-1.735-13.996L29.75,25.275z"/>
<linearGradient id="SVGID_9_" gradientUnits="userSpaceOnUse" x1="-158.0718" y1="146.0967" x2="-149.9284" y2="131.9921" gradientTransform="matrix(1 0 0 -1 194 170)">
	<stop  offset="0" style="stop-color:#00ABF1"/>
	<stop  offset="0.1078" style="stop-color:#00A0EC"/>
	<stop  offset="0.2942" style="stop-color:#0084DF"/>
	<stop  offset="0.4791" style="stop-color:#0062D0"/>
	<a:midPointStop  offset="0" style="stop-color:#00ABF1"/>
	<a:midPointStop  offset="0.5" style="stop-color:#00ABF1"/>
	<a:midPointStop  offset="0.1078" style="stop-color:#00A0EC"/>
	<a:midPointStop  offset="0.5" style="stop-color:#00A0EC"/>
	<a:midPointStop  offset="0.2942" style="stop-color:#0084DF"/>
	<a:midPointStop  offset="0.5" style="stop-color:#0084DF"/>
	<a:midPointStop  offset="0.4791" style="stop-color:#0062D0"/>
</linearGradient>
<path fill="url(#SVGID_9_)" d="M34.738,25.211l1.589,4.296c-2.239,4.978-1.573,13.636-1.573,13.636
	c2.707-0.728,6.285-3.736,5.189-11.614c-0.479-3.457,6.25-5.662,8.44-1.907C52.154,23.593,42.486,17.285,34.738,25.211z"/>
<linearGradient id="SVGID_10_" gradientUnits="userSpaceOnUse" x1="-165.1504" y1="154.4395" x2="-154.4278" y2="135.8675" gradientTransform="matrix(1 0 0 -1 194 170)">
	<stop  offset="0.0137" style="stop-color:#FFC300"/>
	<stop  offset="0.2178" style="stop-color:#FF9900"/>
	<stop  offset="0.4105" style="stop-color:#FF8900"/>
	<stop  offset="0.6889" style="stop-color:#FF6A00"/>
	<a:midPointStop  offset="0.0137" style="stop-color:#FFC300"/>
	<a:midPointStop  offset="0.5" style="stop-color:#FFC300"/>
	<a:midPointStop  offset="0.2178" style="stop-color:#FF9900"/>
	<a:midPointStop  offset="0.5" style="stop-color:#FF9900"/>
	<a:midPointStop  offset="0.4105" style="stop-color:#FF8900"/>
	<a:midPointStop  offset="0.5" style="stop-color:#FF8900"/>
	<a:midPointStop  offset="0.6889" style="stop-color:#FF6A00"/>
</linearGradient>
<path fill="url(#SVGID_10_)" d="M43.867,16.458c-2.479-8.954-20.974-5.404-18.834,18.019l8.421-2.75l5.521,2.75
	c0.344-7.193-1.658-6.686-1.658-12.136C37.316,17.809,39.555,14.844,43.867,16.458z"/>
<path fill="#F2F5F7" d="M37.463,29.145c-2.709-2.709-5.459,1.466-5.459,1.466s-2.75-4.175-5.459-1.466
	c-0.828,0.828-1.659,2.772-1.512,5.332c0.059,1.039,0.633,4.358,1.31,5.637c0.623,1.178,2.7,3.156,3.975,3.555
	c0.399,0.124,1.051,0.186,1.688,0.188c0.636-0.002,1.287-0.063,1.687-0.188c1.275-0.398,3.352-2.377,3.976-3.555
	c0.676-1.279,1.25-4.598,1.31-5.637C39.122,31.917,38.291,29.973,37.463,29.145z"/>
<path fill="#99A8AE" d="M33.521,37.828c0,0.99-3.04,0.99-3.04,0C30.481,37.602,33.521,37.602,33.521,37.828z"/>
<path fill="#FFFFFF" d="M37.25,34.877c-0.654,1.713-3.32,1.462-3.809,0.262C33.813,33.211,36.891,33.048,37.25,34.877z"/>
<path fill="#FFFFFF" d="M26.752,34.877c0.655,1.713,3.321,1.462,3.808,0.262C30.19,33.21,27.112,33.048,26.752,34.877z"/>
<path fill="#1A1626" d="M37.773,32.824c-1.032-1.609-3.919-1.343-4.583-0.136c-0.16,0.197-0.006,0.502,0.129,0.356
	c1.037-1.324,3.454-1.258,4.395,0.057C37.843,33.255,37.933,33.021,37.773,32.824z"/>
<path fill="#1A1626" d="M26.231,32.823c1.032-1.608,3.917-1.343,4.583-0.135c0.16,0.197,0.006,0.502-0.13,0.355
	c-1.04-1.324-3.454-1.257-4.395,0.058C26.16,33.255,26.071,33.021,26.231,32.823z"/>
<path fill="#613F34" d="M34.122,34.693c0,1.505,2.177,1.505,2.177,0C36.298,33.296,34.122,33.296,34.122,34.693z"/>
<path fill="#7D5037" d="M34.337,35.175c0,0.863,1.747,0.863,1.747,0C36.084,34.375,34.337,34.375,34.337,35.175z"/>
<path fill="#1A1626" d="M34.758,34.717c0,0.626,0.904,0.626,0.904,0C35.663,34.139,34.758,34.139,34.758,34.717z"/>
<path fill="#AB968C" d="M34.45,34.534c0,0.315,0.457,0.315,0.457,0C34.906,34.243,34.45,34.243,34.45,34.534z"/>
<path fill="#613F34" d="M27.705,34.693c0,1.505,2.176,1.505,2.176,0C29.881,33.296,27.705,33.296,27.705,34.693z"/>
<path fill="#7D5037" d="M27.92,35.175c0,0.863,1.747,0.863,1.747,0C29.667,34.373,27.92,34.373,27.92,35.175z"/>
<path fill="#1A1626" d="M28.341,34.717c0,0.623,0.904,0.623,0.904,0C29.246,34.136,28.341,34.136,28.341,34.717z"/>
<path fill="#AB968C" d="M28.033,34.534c0,0.315,0.456,0.315,0.456,0C28.489,34.242,28.033,34.242,28.033,34.534z"/>
<path fill="#99A8AE" d="M37.25,34.864c0-1.841-3.809-1.841-3.809,0.292C33.986,33.405,36.706,33.405,37.25,34.864z"/>
<path fill="#99A8AE" d="M26.752,34.864c0-1.841,3.808-1.841,3.808,0.292C30.017,33.405,27.297,33.405,26.752,34.864z"/>
<linearGradient id="SVGID_11_" gradientUnits="userSpaceOnUse" x1="-148.1133" y1="141.4658" x2="-143" y2="141.4658" gradientTransform="matrix(1 0 0 -1 194 170)">
	<stop  offset="0" style="stop-color:#00ABF1"/>
	<stop  offset="0.3572" style="stop-color:#0084DF"/>
	<stop  offset="0.6434" style="stop-color:#006BD4"/>
	<stop  offset="0.8181" style="stop-color:#0062D0"/>
	<a:midPointStop  offset="0" style="stop-color:#00ABF1"/>
	<a:midPointStop  offset="0.5" style="stop-color:#00ABF1"/>
	<a:midPointStop  offset="0.3572" style="stop-color:#0084DF"/>
	<a:midPointStop  offset="0.5" style="stop-color:#0084DF"/>
	<a:midPointStop  offset="0.6434" style="stop-color:#006BD4"/>
	<a:midPointStop  offset="0.5" style="stop-color:#006BD4"/>
	<a:midPointStop  offset="0.8181" style="stop-color:#0062D0"/>
</linearGradient>
<ellipse fill="url(#SVGID_11_)" cx="48.443" cy="28.534" rx="2.557" ry="2.541"/>
<linearGradient id="SVGID_12_" gradientUnits="userSpaceOnUse" x1="-151.9351" y1="155.4531" x2="-148.3304" y2="151.8485" gradientTransform="matrix(1 0 0 -1 194 170)">
	<stop  offset="0.0137" style="stop-color:#FFC300"/>
	<stop  offset="0.3058" style="stop-color:#FF9900"/>
	<stop  offset="0.4625" style="stop-color:#FF8900"/>
	<stop  offset="0.6889" style="stop-color:#FF6A00"/>
	<a:midPointStop  offset="0.0137" style="stop-color:#FFC300"/>
	<a:midPointStop  offset="0.5" style="stop-color:#FFC300"/>
	<a:midPointStop  offset="0.3058" style="stop-color:#FF9900"/>
	<a:midPointStop  offset="0.5" style="stop-color:#FF9900"/>
	<a:midPointStop  offset="0.4625" style="stop-color:#FF8900"/>
	<a:midPointStop  offset="0.5" style="stop-color:#FF8900"/>
	<a:midPointStop  offset="0.6889" style="stop-color:#FF6A00"/>
</linearGradient>
<ellipse fill="url(#SVGID_12_)" cx="43.867" cy="16.349" rx="2.557" ry="2.541"/>
<linearGradient id="SVGID_13_" gradientUnits="userSpaceOnUse" x1="-179.7148" y1="145.584" x2="-177.1692" y2="141.1748" gradientTransform="matrix(1 0 0 -1 194 170)">
	<stop  offset="0" style="stop-color:#FF3B3B"/>
	<stop  offset="0.1502" style="stop-color:#F53030"/>
	<stop  offset="0.7027" style="stop-color:#D50E0D"/>
	<stop  offset="1" style="stop-color:#C90100"/>
	<a:midPointStop  offset="0" style="stop-color:#FF3B3B"/>
	<a:midPointStop  offset="0.5" style="stop-color:#FF3B3B"/>
	<a:midPointStop  offset="0.1502" style="stop-color:#F53030"/>
	<a:midPointStop  offset="0.5" style="stop-color:#F53030"/>
	<a:midPointStop  offset="0.7027" style="stop-color:#D50E0D"/>
	<a:midPointStop  offset="0.5" style="stop-color:#D50E0D"/>
	<a:midPointStop  offset="1" style="stop-color:#C90100"/>
</linearGradient>
<ellipse fill="url(#SVGID_13_)" cx="15.558" cy="26.621" rx="2.558" ry="2.541"/>
<linearGradient id="SVGID_14_" gradientUnits="userSpaceOnUse" x1="-176.541" y1="124.7734" x2="-175.5459" y2="123.0499" gradientTransform="matrix(1 0 0 -1 194 170)">
	<stop  offset="0" style="stop-color:#C90100"/>
	<stop  offset="0.2111" style="stop-color:#DD1616"/>
	<stop  offset="0.4793" style="stop-color:#F02B2A"/>
	<stop  offset="0.7442" style="stop-color:#FB3737"/>
	<stop  offset="1" style="stop-color:#FF3B3B"/>
	<a:midPointStop  offset="0" style="stop-color:#C90100"/>
	<a:midPointStop  offset="0.3" style="stop-color:#C90100"/>
	<a:midPointStop  offset="1" style="stop-color:#FF3B3B"/>
</linearGradient>
<ellipse fill="url(#SVGID_14_)" cx="17.957" cy="46.088" rx="1" ry="0.993"/>
<linearGradient id="SVGID_15_" gradientUnits="userSpaceOnUse" x1="-168.3384" y1="118.5352" x2="-167.3433" y2="116.8116" gradientTransform="matrix(1 0 0 -1 194 170)">
	<stop  offset="0" style="stop-color:#BC2AF7"/>
	<stop  offset="0.2161" style="stop-color:#B928F3"/>
	<stop  offset="0.4401" style="stop-color:#B121E6"/>
	<stop  offset="0.6677" style="stop-color:#A217D2"/>
	<stop  offset="0.8963" style="stop-color:#8E08B5"/>
	<stop  offset="0.9949" style="stop-color:#8400A6"/>
	<a:midPointStop  offset="0" style="stop-color:#BC2AF7"/>
	<a:midPointStop  offset="0.7" style="stop-color:#BC2AF7"/>
	<a:midPointStop  offset="0.9949" style="stop-color:#8400A6"/>
</linearGradient>
<ellipse fill="url(#SVGID_15_)" cx="26.16" cy="52.326" rx="1" ry="0.993"/>
<linearGradient id="SVGID_16_" gradientUnits="userSpaceOnUse" x1="-156.6816" y1="118.5352" x2="-155.6866" y2="116.8118" gradientTransform="matrix(1 0 0 -1 194 170)">
	<stop  offset="0" style="stop-color:#C90100"/>
	<stop  offset="0.2111" style="stop-color:#DD1616"/>
	<stop  offset="0.4793" style="stop-color:#F02B2A"/>
	<stop  offset="0.7442" style="stop-color:#FB3737"/>
	<stop  offset="1" style="stop-color:#FF3B3B"/>
	<a:midPointStop  offset="0" style="stop-color:#C90100"/>
	<a:midPointStop  offset="0.3" style="stop-color:#C90100"/>
	<a:midPointStop  offset="1" style="stop-color:#FF3B3B"/>
</linearGradient>
<ellipse fill="url(#SVGID_16_)" cx="37.816" cy="52.326" rx="1" ry="0.993"/>
<linearGradient id="SVGID_17_" gradientUnits="userSpaceOnUse" x1="-148.4536" y1="124.7734" x2="-147.4585" y2="123.0499" gradientTransform="matrix(1 0 0 -1 194 170)">
	<stop  offset="0" style="stop-color:#BC2AF7"/>
	<stop  offset="0.2161" style="stop-color:#B928F3"/>
	<stop  offset="0.4401" style="stop-color:#B121E6"/>
	<stop  offset="0.6677" style="stop-color:#A217D2"/>
	<stop  offset="0.8963" style="stop-color:#8E08B5"/>
	<stop  offset="0.9949" style="stop-color:#8400A6"/>
	<a:midPointStop  offset="0" style="stop-color:#BC2AF7"/>
	<a:midPointStop  offset="0.7" style="stop-color:#BC2AF7"/>
	<a:midPointStop  offset="0.9949" style="stop-color:#8400A6"/>
</linearGradient>
<ellipse fill="url(#SVGID_17_)" cx="46.045" cy="46.088" rx="1" ry="0.993"/>
<path fill="#302C3B" d="M13.001,11.31c-0.013-0.206,0.096-0.313,0.291-0.313h1.161c0.182,0,0.285,0.107,0.317,0.299
	c0.083,0.729,0.531,1.012,1.225,1.012c0.787,0,1.247-0.365,1.247-1.09V5.3c0-0.192,0.109-0.3,0.304-0.3h1.152
	C18.892,5,19,5.107,19,5.3v5.919C19,13.126,17.544,14,15.994,14C14.516,14,13.134,13.211,13.001,11.31z"/>
<path fill="#302C3B" d="M50.999,52.69c0.014,0.205-0.096,0.313-0.291,0.313h-1.16c-0.183,0-0.285-0.107-0.317-0.3
	c-0.083-0.729-0.53-1.013-1.225-1.013c-0.786,0-1.247,0.365-1.247,1.091V58.7c0,0.192-0.109,0.3-0.303,0.3h-1.152
	C45.108,59,45,58.893,45,58.7v-5.919C45,50.874,46.456,50,48.006,50C49.483,50,50.866,50.788,50.999,52.69z"/>
<path fill="#E81C27" d="M27.122,38.688c0,0.93,1.164,0.93,1.164,0C28.286,37.82,27.122,37.82,27.122,38.688z"/>
<path fill="#E81C27" d="M32.005,39.618c-1.09-1.052-2.324,0.637-4.506-1.287c0.418,1.123,1.121,1.179,1.744,2.084
	c0.748,1.088,1.342,1.385,2.762,1.385c1.418,0,2.014-0.297,2.762-1.385c0.623-0.905,1.324-0.961,1.744-2.084
	C34.329,40.255,33.095,38.566,32.005,39.618z"/>
<path fill="#E81C27" d="M35.726,38.688c0,0.93,1.162,0.93,1.162,0C36.888,37.82,35.724,37.82,35.726,38.688z"/>
<path fill="#1A1626" d="M29.305,39.779c1.343,1.604,4.056,1.609,5.403,0C33.28,39.868,30.747,39.871,29.305,39.779z"/>
<path fill="#FFFFFF" d="M29.803,39.991c1.095,1.04,3.308,1.045,4.409,0C33.046,40.048,30.979,40.05,29.803,39.991z"/>
</svg>
