<?xml version="1.0" encoding="utf-8"?>
<!-- Generator: Adobe Illustrator 15.0.0, SVG Export Plug-In . SVG Version: 6.00 Build 0)  -->
<!DOCTYPE svg PUBLIC "-//W3C//DTD SVG 1.1//EN" "http://www.w3.org/Graphics/SVG/1.1/DTD/svg11.dtd" [
	<!ENTITY ns_flows "http://ns.adobe.com/Flows/1.0/">
	<!ENTITY ns_extend "http://ns.adobe.com/Extensibility/1.0/">
	<!ENTITY ns_ai "http://ns.adobe.com/AdobeIllustrator/10.0/">
	<!ENTITY ns_graphs "http://ns.adobe.com/Graphs/1.0/">
]>
<svg version="1.1" id="Layer_1" xmlns:x="&ns_extend;" xmlns:i="&ns_ai;" xmlns:graph="&ns_graphs;"
	 xmlns="http://www.w3.org/2000/svg" xmlns:xlink="http://www.w3.org/1999/xlink" xmlns:a="http://ns.adobe.com/AdobeSVGViewerExtensions/3.0/"
	 x="0px" y="0px" width="64px" height="64px" viewBox="0 0 64 64" enable-background="new 0 0 64 64" xml:space="preserve">
<linearGradient id="SVGID_1_" gradientUnits="userSpaceOnUse" x1="31.9995" y1="2" x2="31.9995" y2="62.0005">
	<stop  offset="0" style="stop-color:#FF3B3B"/>
	<stop  offset="0.2558" style="stop-color:#FB3737"/>
	<stop  offset="0.5207" style="stop-color:#F02B2A"/>
	<stop  offset="0.7889" style="stop-color:#DD1616"/>
	<stop  offset="1" style="stop-color:#C90100"/>
	<a:midPointStop  offset="0" style="stop-color:#FF3B3B"/>
	<a:midPointStop  offset="0.7" style="stop-color:#FF3B3B"/>
	<a:midPointStop  offset="1" style="stop-color:#C90100"/>
</linearGradient>
<path fill="url(#SVGID_1_)" d="M62,54c0,4.399-3.601,8-8,8H10c-4.4,0-8-3.601-8-8V10c0-4.4,3.6-8,8-8h44c4.399,0,8,3.6,8,8V54z"/>
<path fill="#FFFFFF" d="M46.389,46.777C46.651,47.554,46.274,48,45.485,48h-4.582c-0.605,0-1.04-0.274-1.223-0.903l-1.541-4.834
	H25.86l-1.541,4.834C24.137,47.726,23.703,48,23.097,48h-4.583c-0.788,0-1.166-0.446-0.902-1.223l10.171-29.875
	C27.966,16.309,28.435,16,29.04,16h5.92c0.605,0,1.074,0.309,1.257,0.903L46.389,46.777L46.389,46.777z M36.261,36.365L32,22.995
	l-4.261,13.371H36.261z"/>
</svg>
