<?xml version="1.0" encoding="utf-8"?>
<!-- Generator: Adobe Illustrator 15.0.0, SVG Export Plug-In . SVG Version: 6.00 Build 0)  -->
<!DOCTYPE svg PUBLIC "-//W3C//DTD SVG 1.1//EN" "http://www.w3.org/Graphics/SVG/1.1/DTD/svg11.dtd" [
	<!ENTITY ns_flows "http://ns.adobe.com/Flows/1.0/">
	<!ENTITY ns_extend "http://ns.adobe.com/Extensibility/1.0/">
	<!ENTITY ns_ai "http://ns.adobe.com/AdobeIllustrator/10.0/">
	<!ENTITY ns_graphs "http://ns.adobe.com/Graphs/1.0/">
]>
<svg version="1.1" id="Layer_1" xmlns:x="&ns_extend;" xmlns:i="&ns_ai;" xmlns:graph="&ns_graphs;"
	 xmlns="http://www.w3.org/2000/svg" xmlns:xlink="http://www.w3.org/1999/xlink" xmlns:a="http://ns.adobe.com/AdobeSVGViewerExtensions/3.0/"
	 x="0px" y="0px" width="64px" height="64px" viewBox="0 0 64 64" enable-background="new 0 0 64 64" xml:space="preserve">
<linearGradient id="SVGID_1_" gradientUnits="userSpaceOnUse" x1="31.9995" y1="2" x2="31.9995" y2="62.0005">
	<stop  offset="0" style="stop-color:#FF3B3B"/>
	<stop  offset="0.2558" style="stop-color:#FB3737"/>
	<stop  offset="0.5207" style="stop-color:#F02B2A"/>
	<stop  offset="0.7889" style="stop-color:#DD1616"/>
	<stop  offset="1" style="stop-color:#C90100"/>
	<a:midPointStop  offset="0" style="stop-color:#FF3B3B"/>
	<a:midPointStop  offset="0.7" style="stop-color:#FF3B3B"/>
	<a:midPointStop  offset="1" style="stop-color:#C90100"/>
</linearGradient>
<path fill="url(#SVGID_1_)" d="M62,54c0,4.399-3.601,8-8,8H10c-4.4,0-8-3.601-8-8V10c0-4.4,3.6-8,8-8h44c4.399,0,8,3.6,8,8V54z"/>
<path fill="#FFFFFF" d="M31.386,42.438c0.186,0.549-0.08,0.864-0.637,0.864h-3.237c-0.429,0-0.735-0.194-0.864-0.638l-1.089-3.415
	h-8.673l-1.088,3.415c-0.129,0.443-0.436,0.638-0.864,0.638h-3.237c-0.557,0-0.823-0.315-0.638-0.864l7.185-21.101
	c0.129-0.42,0.46-0.638,0.888-0.638h4.182c0.428,0,0.759,0.218,0.888,0.638L31.386,42.438L31.386,42.438z M24.232,35.084
	l-3.009-9.445l-3.01,9.445H24.232z"/>
<path fill="#FFFFFF" d="M53.001,36.117c0,4.068-3.035,7.184-7.137,7.184H35.16h-0.524c-0.493,0-0.768-0.273-0.768-0.766v-21.07
	c0-0.492,0.274-0.767,0.768-0.767h3.673h4.956c3.867,0,6.668,2.608,6.668,6.103c0,0.99-0.303,1.944-0.818,2.758
	C51.476,30.788,53.001,33.194,53.001,36.117z M38.309,24.863v3.827h6.503c0.438-0.439,0.682-1.046,0.682-1.647
	c0-1.267-0.855-2.179-2.229-2.179L38.309,24.863z M48.561,35.875c0-1.824-1.058-3.262-3.229-3.262h-7.022v6.522H45.3
	C47.495,39.136,48.561,37.691,48.561,35.875z"/>
</svg>
