<?xml version="1.0" encoding="utf-8"?>
<!-- Generator: Adobe Illustrator 15.0.0, SVG Export Plug-In . SVG Version: 6.00 Build 0)  -->
<!DOCTYPE svg PUBLIC "-//W3C//DTD SVG 1.1//EN" "http://www.w3.org/Graphics/SVG/1.1/DTD/svg11.dtd" [
	<!ENTITY ns_flows "http://ns.adobe.com/Flows/1.0/">
	<!ENTITY ns_extend "http://ns.adobe.com/Extensibility/1.0/">
	<!ENTITY ns_ai "http://ns.adobe.com/AdobeIllustrator/10.0/">
	<!ENTITY ns_graphs "http://ns.adobe.com/Graphs/1.0/">
]>
<svg version="1.1" id="Layer_1" xmlns:x="&ns_extend;" xmlns:i="&ns_ai;" xmlns:graph="&ns_graphs;"
	 xmlns="http://www.w3.org/2000/svg" xmlns:xlink="http://www.w3.org/1999/xlink" xmlns:a="http://ns.adobe.com/AdobeSVGViewerExtensions/3.0/"
	 x="0px" y="0px" width="64px" height="64px" viewBox="0 0 64 64" enable-background="new 0 0 64 64" xml:space="preserve">
<linearGradient id="SVGID_1_" gradientUnits="userSpaceOnUse" x1="31.9995" y1="2" x2="31.9995" y2="62.0005">
	<stop  offset="0" style="stop-color:#FF3B3B"/>
	<stop  offset="0.2558" style="stop-color:#FB3737"/>
	<stop  offset="0.5207" style="stop-color:#F02B2A"/>
	<stop  offset="0.7889" style="stop-color:#DD1616"/>
	<stop  offset="1" style="stop-color:#C90100"/>
	<a:midPointStop  offset="0" style="stop-color:#FF3B3B"/>
	<a:midPointStop  offset="0.7" style="stop-color:#FF3B3B"/>
	<a:midPointStop  offset="1" style="stop-color:#C90100"/>
</linearGradient>
<path fill="url(#SVGID_1_)" d="M62,54c0,4.399-3.601,8-8,8H10c-4.4,0-8-3.601-8-8V10c0-4.4,3.6-8,8-8h44c4.399,0,8,3.6,8,8V54z"/>
<path fill="#FFFFFF" d="M11,32c0-7.267,5.429-12.918,12.962-12.918c5.553,0,10.298,3.421,11.825,8.413
	c0.151,0.578-0.15,0.951-0.729,0.951h-3.455c-0.471,0-0.756-0.23-0.961-0.667c-1.11-2.417-3.686-3.936-6.681-3.936
	c-4.877,0-8.076,3.376-8.076,8.156c0,4.779,3.199,8.156,8.076,8.156c2.995,0,5.57-1.52,6.681-3.936
	c0.205-0.436,0.49-0.667,0.961-0.667h3.455c0.578,0,0.888,0.346,0.737,0.88c-1.475,5.002-6.247,8.484-11.834,8.484
	C16.428,44.918,11,39.267,11,32z"/>
<path fill="#FFFFFF" d="M53,40.591v3.003c0,0.543-0.303,0.844-0.844,0.844H41.361h-1.643c-0.542,0-0.844-0.301-0.844-0.844V20.405
	c0-0.542,0.302-0.843,0.844-0.843h3.198c0.542,0,0.843,0.302,0.843,0.843v19.342h8.396C52.697,39.747,53,40.049,53,40.591z"/>
</svg>
