<?xml version="1.0" encoding="utf-8"?>
<!-- Generator: Adobe Illustrator 21.0.0, SVG Export Plug-In . SVG Version: 6.00 Build 0)  -->
<svg version="1.1" id="Layer_1" xmlns="http://www.w3.org/2000/svg" xmlns:xlink="http://www.w3.org/1999/xlink" x="0px" y="0px"
	 width="64px" height="64px" viewBox="0 0 64 64" enable-background="new 0 0 64 64" xml:space="preserve">
<path fill="#014D87" d="M2,32c0,11.51,6.49,21.5,16,26.53V5.47C8.49,10.5,2,20.49,2,32z"/>
<path fill="#E81C27" d="M62,32c0-11.51-6.49-21.5-16-26.53v53.07C55.51,53.5,62,43.51,62,32z"/>
<path fill="#FFE12C" d="M32,2c-5.06,0-9.82,1.26-14,3.47v53.07C22.18,60.74,26.94,62,32,62c5.06,0,9.82-1.26,14-3.47V5.47
	C41.82,3.26,37.06,2,32,2z"/>
<path fill="#E5BC5E" d="M29.22,17c1.25,0,1.96,1.22,3.31,0.89c0.99-0.25,2.49-1.65,3.3-0.29c0.32,0.54,0.2,1.11,0.01,1.67
	c-0.17,0.48-0.67,1.16-0.16,1.59c0.74,0.63,2.24,0.37,2.87-0.27c-0.6-0.03-0.96-0.7-0.48-1.14c0.22-0.21,0.44-0.1,0.65-0.21
	c0.09-0.05,0.16-0.24,0.25-0.31c0.12-0.09,0.25-0.14,0.4-0.14c0.21,0,0.35,0.21,0.53,0.21c0.25,0,0.63-0.27,0.82,0.05
	c0.13,0.23,0.29,0.08,0.5,0.04c0.34-0.08,0.62,0.09,0.83,0.34c0.19,0.22,0.3,0.18,0.55,0.33c0.18,0.11,0.29,0.47,0.46,0.53
	c0.7,0.27,0.74,0.85,0.44,1.48c-0.44,0.93-2.5,2.03-1.75,3.18c-0.14-0.79,1.12-0.44,0.82,0.3c1.59-1.05,3.31,1.19,3.28,2.64
	c-0.03,1.38-0.63,2.45-2.01,2.84c0.43,0.18,0.78,0.63,0.52,1.1c-0.11,0.2-0.32,0.34-0.56,0.34c-0.41,0-0.45-0.34-0.72,0.08
	c-0.54,0.83-0.24,2.12,0.49,2.74c0.22-0.34,0.7-0.56,1.04-0.21c0.23,0.24,0.25,0.65,0.37,0.93c0.16,0.35,0.41,0.63,0.1,1.02
	c-0.3,0.38-0.62,0.24-1.02,0.28c0.86,0.86,1.29,1.84,0.94,3.08c-0.35,1.25-1.28,2.15-2.49,2.57c-1.2,0.42-2.5,0.49-3.75,0.55
	c-1.27,0.05-2.57,0.05-3.53,1.01c0.41,0.3,0.72,0.72,0.54,1.25c-0.06,0.19-0.19,0.35-0.36,0.45c-0.19,0.13-0.54,0.1-0.66,0.31
	c-0.25,0.47-1.11,0.29-1.45,0.03c-0.24-0.19-0.33,0.06-0.52,0.25C32.64,46.68,32.32,47,32.07,47c-0.25,0-0.46-0.24-0.64-0.38
	c-0.25-0.19-0.38-0.54-0.68-0.37c-0.39,0.24-1.08,0.42-1.41-0.03c-0.14-0.19-0.39-0.17-0.58-0.28c-0.23-0.13-0.43-0.33-0.51-0.58
	c-0.18-0.53,0.12-0.97,0.59-1.19c-0.9-0.9-2.11-0.91-3.3-0.96c-1.27-0.05-2.82-0.03-3.99-0.57c-1.02-0.47-1.95-1.17-2.37-2.25
	c-0.49-1.24-0.27-2.41,0.67-3.35c-0.4-0.09-0.79-0.08-0.99-0.53c-0.21-0.47,0.19-0.67,0.2-1.07c0.01-0.25,0.38-0.74,0.62-0.82
	c0.22-0.07,0.46,0.01,0.61,0.18c0.21,0.24,0.33,0.01,0.47-0.22c0.42-0.72,0.74-1.92,0.04-2.62c-0.78,0.78-1.83-0.77-0.8-1.25
	c-0.28-0.24-0.66-0.31-0.94-0.58c-0.24-0.23-0.44-0.54-0.59-0.83c-0.36-0.69-0.41-1.48-0.23-2.23c0.16-0.67,0.61-1.42,1.23-1.76
	c0.71-0.39,1.2-0.35,1.91-0.13c-0.12-0.04,0.11-0.6,0.19-0.67c0.33-0.28,0.57-0.02,0.73,0.26c0.64-1.06-1.48-2.25-1.85-3.09
	c-0.18-0.4-0.27-1.43,0.42-1.43c0.2,0,0.31-0.33,0.46-0.46c0.14-0.12,0.32-0.11,0.46-0.21c0.12-0.08,0.18-0.24,0.28-0.34
	c0.2-0.2,0.47-0.24,0.74-0.21c0.39,0.05,0.19,0.12,0.54-0.04c0.3-0.14,0.45,0.01,0.75,0.01c0.23,0,0.35-0.31,0.67-0.22
	c0.25,0.07,0.34,0.28,0.54,0.4c0.21,0.12,0.44,0.1,0.64,0.28c0.54,0.48,0.15,1.02-0.38,1.19c0.52,0.41,1.14,0.56,1.8,0.51
	c0.54-0.04,1.37-0.34,1.18-1.05c-0.21-0.76-0.65-1.26-0.53-2.1C28.11,17.38,28.59,16.99,29.22,17C30.34,17,29.22,17,29.22,17z"/>
<rect x="23.95" y="23.94" fill="#E81C27" width="7.63" height="7.62"/>
<path fill="#F5F5F5" d="M27.53,29.94c0,0,0,0.27-0.08,0.49c-0.09,0.25-0.09,0.25-0.17,0.38c-0.11,0.16-0.24,0.29-0.35,0.36
	c-0.18,0.12-0.37,0.18-0.55,0.16c-0.51-0.04-0.75-0.6-0.86-1.05c-0.12-0.48-0.47-0.74-0.69-0.56c-0.13,0.1-0.14,0.27-0.03,0.43
	c0.12,0.17,0.38,0.26,0.38,0.26l-0.27,0.35c0,0-0.58-0.08-0.7-0.69c-0.04-0.23,0.07-0.66,0.45-0.79c0.49-0.17,0.81,0.19,0.96,0.48
	c0.21,0.41,0.3,1.16,0.88,1.04c0.31-0.06,0.46-0.52,0.46-0.73l0.23-0.25L27.53,29.94L27.53,29.94z"/>
<path fill="#F5F5F5" d="M28,29.94c0,0,0,0.27,0.08,0.49c0.09,0.25,0.09,0.25,0.17,0.38c0.11,0.16,0.24,0.29,0.35,0.36
	c0.18,0.12,0.37,0.18,0.55,0.16c0.51-0.04,0.75-0.6,0.86-1.05c0.12-0.48,0.47-0.74,0.69-0.56c0.13,0.1,0.14,0.27,0.03,0.43
	c-0.12,0.17-0.38,0.26-0.38,0.26l0.27,0.35c0,0,0.58-0.08,0.7-0.69c0.04-0.23-0.07-0.66-0.45-0.79c-0.49-0.17-0.81,0.19-0.96,0.48
	c-0.21,0.41-0.3,1.16-0.88,1.04c-0.31-0.06-0.46-0.52-0.46-0.73l-0.23-0.25L28,29.94L28,29.94L28,29.94z"/>
<path fill="#FFE12C" d="M28.45,26.7c0.28-0.31,1.15-0.93,1.15-1.4c-0.52-0.06-0.03-0.17,0.05-0.48c-0.1,0.01-0.2,0.01-0.3,0.02
	c0.11-0.37,1.05-0.74,1.46-0.57c1.03,0.42,0.29,2.02-0.51,1.33c0.13-0.41,0.66-0.24,0.63-0.59c-0.02-0.33-0.39-0.55-0.67-0.35
	c-0.41,0.28-0.13,0.88-0.5,1.23c-0.33,0.52-0.88,0.95-1.3,1.41c-1.24,1.34-2.47,2.67-3.71,4.01c-0.71-0.38,1.08-1.77,1.42-2.13
	C26.92,28.36,27.69,27.53,28.45,26.7z"/>
<path fill="#F5F5F5" d="M25.52,27.08c0,0,0.25,1.24,1.1,3.1c0.43-0.16,0.69-0.26,1.15-0.26c0.46,0,0.71,0.09,1.15,0.26
	c0.85-1.86,1.1-3.1,1.1-3.1l-2.25-2.89L25.52,27.08z"/>
<path fill="#FFE12C" d="M27.99,25.16l1.56,2.01c0,0-0.21,0.98-0.84,2.45c-0.25-0.06-0.46-0.11-0.72-0.12L27.99,25.16z"/>
<path fill="#FFE12C" d="M27.55,25.16l-1.56,2.01c0,0,0.21,0.98,0.84,2.45c0.25-0.06,0.46-0.11,0.72-0.12L27.55,25.16z"/>
<rect x="32.39" y="23.94" fill="#FFE12C" width="7.63" height="7.62"/>
<rect x="33.46" y="23.94" fill="#E81C27" width="1.14" height="7.62"/>
<rect x="35.64" y="23.94" fill="#E81C27" width="1.14" height="7.62"/>
<rect x="37.82" y="23.94" fill="#E81C27" width="1.14" height="7.62"/>
<path fill="#FFE12C" d="M23.98,38.16c0.02,0.14,0.07,0.37,0.2,0.61c0.14,0.22,0.09,0.21,0.4,0.56c0.15,0.17,0.39,0.32,0.58,0.42
	c0.19,0.1,0.33,0.15,0.64,0.23c0.6,0.16,1.03,0.17,1.54,0.15c0.4-0.02,0.7-0.06,0.95-0.1c0.36-0.05,0.63-0.08,1.03-0.09
	c0.2-0.01,0.39-0.01,0.57,0c0.22,0.01,0.44,0.05,0.68,0.09c0.51,0.1,1.02,0.3,1.02,0.3l0-7.95l-7.63,0v5.44L23.98,38.16L23.98,38.16
	z"/>
<polygon fill="#E81C27" points="24.87,39.56 25.22,39.76 25.71,39.94 25.71,32.37 24.87,32.37 "/>
<path fill="#E81C27" d="M29.11,39.9l0-7.53h-0.85v7.65c0,0,0.58-0.07,0.85-0.09L29.11,39.9z"/>
<path fill="#E81C27" d="M30.8,32.37h-0.85v7.56c0.28,0.03,0.56,0.08,0.85,0.16L30.8,32.37z"/>
<path fill="#E81C27" d="M27.41,32.37v7.74c-0.01,0-0.57,0.03-0.85,0l0-7.73L27.41,32.37z"/>
<path fill="#FFE12C" d="M40,38.16c-0.02,0.14-0.07,0.37-0.2,0.61c-0.14,0.22-0.09,0.21-0.4,0.56c-0.15,0.17-0.39,0.32-0.58,0.42
	c-0.19,0.1-0.33,0.15-0.64,0.23c-0.6,0.16-1.03,0.17-1.54,0.15c-0.4-0.02-0.7-0.06-0.95-0.1c-0.36-0.05-0.63-0.08-1.03-0.09
	c-0.2-0.01-0.39-0.01-0.57,0c-0.22,0.01-0.44,0.05-0.68,0.09c-0.5,0.1-1.02,0.3-1.02,0.3l0-7.95l7.63,0v5.44L40,38.16z"/>
<path fill="#E81C27" d="M34.35,33.01c-0.29,0.2-0.43,0.5-0.74,0.68c0.2,0.38,0.61,0.28,0.87,0.46c0.17,0,0.41,0.64,0.39,0.67
	c-0.34,0.33,0.11,1.18,0.24,0.93c0.13-0.25-0.38-0.93,0.3-0.73c0.23,0.07,0.35,0.8,0.07,1c0.15,0.27,0.44,0.11,0.4-0.2
	c-0.08-0.55,0.01-0.79,0.52-0.81c0.62-0.02,0.48,0.17,0.81,0.25l0.3,0l0.17-0.19c-0.01,0.35-0.4,0.68-0.61,0.85
	c0.41,0.17,1.04-0.58,0.98-0.95c0.38,0.18,0.08,0.91-0.08,1.14c1.05,0.25,0.09-1.79,0.42-1.97c0.9-0.5-0.52-0.84-0.87-0.82
	c-0.76,0.04-1.86,0.36-2.6,0.13c0.15-0.05,0.16-0.18,0.26-0.28C35.01,33.01,34.63,33.2,34.35,33.01z M34.53,34.12"/>
<path fill="#E81C27" d="M34.35,36.41c-0.29,0.2-0.43,0.5-0.74,0.68c0.19,0.38,0.61,0.28,0.87,0.46c0.17,0,0.41,0.64,0.39,0.67
	c-0.34,0.33,0.11,1.18,0.24,0.93c0.13-0.25-0.38-0.93,0.3-0.73c0.23,0.07,0.35,0.8,0.07,1c0.15,0.27,0.44,0.11,0.4-0.2
	c-0.08-0.55,0.01-0.79,0.52-0.81c0.62-0.02,0.48,0.17,0.81,0.25l0.3,0l0.17-0.19c-0.01,0.35-0.4,0.68-0.61,0.85
	c0.41,0.17,1.04-0.58,0.98-0.95c0.38,0.18,0.08,0.91-0.08,1.14c1.05,0.25,0.09-1.79,0.42-1.97c0.9-0.5-0.52-0.84-0.87-0.82
	c-0.76,0.04-1.86,0.36-2.6,0.13c0.15-0.05,0.16-0.18,0.26-0.28C35.01,36.41,34.63,36.59,34.35,36.41z M34.53,37.51"/>
<linearGradient id="SVGID_1_" gradientUnits="userSpaceOnUse" x1="32" y1="62" x2="32" y2="2">
	<stop  offset="0" style="stop-color:#1A1A1A"/>
	<stop  offset="0.102" style="stop-color:#393939;stop-opacity:0.949"/>
	<stop  offset="0.3475" style="stop-color:#7F7F7F;stop-opacity:0.8262"/>
	<stop  offset="0.5688" style="stop-color:#B6B6B6;stop-opacity:0.7156"/>
	<stop  offset="0.7582" style="stop-color:#DEDEDE;stop-opacity:0.6209"/>
	<stop  offset="0.9081" style="stop-color:#F6F6F6;stop-opacity:0.5459"/>
	<stop  offset="1" style="stop-color:#FFFFFF;stop-opacity:0.5"/>
</linearGradient>
<circle opacity="0.1" fill="url(#SVGID_1_)" cx="32" cy="32" r="30"/>
</svg>
