<?xml version="1.0" encoding="utf-8"?>
<!-- Generator: Adobe Illustrator 15.0.0, SVG Export Plug-In . SVG Version: 6.00 Build 0)  -->
<!DOCTYPE svg PUBLIC "-//W3C//DTD SVG 1.1//EN" "http://www.w3.org/Graphics/SVG/1.1/DTD/svg11.dtd" [
	<!ENTITY ns_flows "http://ns.adobe.com/Flows/1.0/">
	<!ENTITY ns_extend "http://ns.adobe.com/Extensibility/1.0/">
	<!ENTITY ns_ai "http://ns.adobe.com/AdobeIllustrator/10.0/">
	<!ENTITY ns_graphs "http://ns.adobe.com/Graphs/1.0/">
]>
<svg version="1.1" id="Layer_1" xmlns:x="&ns_extend;" xmlns:i="&ns_ai;" xmlns:graph="&ns_graphs;"
	 xmlns="http://www.w3.org/2000/svg" xmlns:xlink="http://www.w3.org/1999/xlink" xmlns:a="http://ns.adobe.com/AdobeSVGViewerExtensions/3.0/"
	 x="0px" y="0px" width="64px" height="64px" viewBox="0 0 64 64" enable-background="new 0 0 64 64" xml:space="preserve">
<circle fill="#E81C27" cx="32" cy="32" r="30"/>
<path fill="#302C3B" d="M48.917,41.887c-0.904-1.605-3.42-0.406-4.72-0.361c0.651-0.551,2.537-1.885,3.495-1.92
	c-0.664-0.555-2.025-0.119-2.519,0.469c-1.793,2.141-2.949,0.98-5.543,0.227c2.106-2.18-6.007-3.756-3.426-5.555
	c0.54-0.375,1.436,3.076,2.841,2.518c0.604-0.24-2.326-2.461-0.782-3.004c0.54-0.189,2.544,5.711,3.935,3.311
	c0.521-0.896-3.089-1.684-2.073-3.49c-0.737,1.313,8.813,6.186,7.583,3.02c-0.575-1.482-6.358-0.408-5.857-4.32
	c-0.135,1.047,6.742,4.213,5.971,1.252c-0.17-0.652-6.888-0.191-5.712-3.371c0.181-0.49,5.895,3.867,5.689,0.654
	c-0.075-1.172-6.079-0.262-5.484-2.92c0.012-0.051,6.213,2.578,5.479-0.182c-0.101-0.381-6.87,0.379-5.632-1.961
	c-0.574,1.084,8.115,0.553,5.527-1.572c-0.898-0.738-4.729,2.703-5.459-0.32c0.099,0.404,7.498-0.594,5.414-2.725
	c-0.544-0.557-5.168,3.088-5.341,0.701c-0.034-0.465,6.201-3.355,5.256-4.877c-1.141-1.836-7.186,3.178-7.901,3.512
	c-4.666,2.17,0.047,0.902-2.328,3.689c-1.385,1.627-2.461-0.924-2.069-1.996c0.844-2.309,5.58-2.049,5.802-3.516
	c-0.715,0.453-1.377,0.438-1.985-0.047c0.098-0.008,5.055-0.744,3.415-1.414c-0.189-0.078-0.751,0.254-1.383,0.568
	c0.101-2.436-6.432-0.584-7.082-0.539c2.72,2.285-2.173,0.967,0.61,2.152c-0.722,0.133-1.349,0.445-1.883,0.939
	C34.046,21.043,32,22.465,32,22.465s-2.046-1.422-0.754-1.656c-0.533-0.494-1.16-0.807-1.882-0.939
	c2.783-1.186-2.109,0.133,0.61-2.152c-0.65-0.045-7.184-1.896-7.082,0.539c-0.633-0.314-1.193-0.646-1.383-0.568
	c-1.64,0.67,3.316,1.406,3.415,1.414c-0.608,0.484-1.271,0.5-1.985,0.047c0.221,1.467,4.958,1.207,5.801,3.516
	c0.393,1.072-0.685,3.623-2.069,1.996c-2.374-2.787,2.339-1.52-2.328-3.689c-0.715-0.334-6.76-5.348-7.901-3.512
	c-0.945,1.521,5.291,4.412,5.257,4.877c-0.173,2.387-4.797-1.258-5.341-0.701c-2.084,2.131,5.315,3.129,5.413,2.725
	c-0.729,3.023-4.561-0.418-5.458,0.32c-2.588,2.125,6.101,2.656,5.526,1.572c1.238,2.34-5.53,1.58-5.632,1.961
	c-0.734,2.76,5.468,0.131,5.479,0.182c0.596,2.658-5.409,1.748-5.483,2.92c-0.205,3.213,5.508-1.145,5.688-0.654
	c1.177,3.18-5.542,2.719-5.712,3.371c-0.771,2.961,6.105-0.205,5.971-1.252c0.502,3.912-5.281,2.838-5.856,4.32
	c-1.229,3.166,8.319-1.707,7.582-3.02c1.017,1.807-2.594,2.594-2.073,3.49c1.391,2.4,3.396-3.5,3.936-3.311
	c1.544,0.543-1.386,2.764-0.782,3.004c1.404,0.559,2.301-2.893,2.84-2.518c2.582,1.799-5.531,3.375-3.425,5.555
	c-2.594,0.754-3.75,1.914-5.543-0.227c-0.493-0.588-1.855-1.023-2.52-0.469c0.959,0.035,2.845,1.369,3.495,1.92
	c-1.299-0.045-3.814-1.244-4.72,0.361c1.13-0.463,3.601,0.023,4.705,0.098c-1.205,1.023-3.387,0.291-2.981,2.758
	c0.6-1.994,6.595-3.529,7.305-0.65c0.721-1.279-2.123-2.004-2.736-2.178c0.416-0.135,5.085-0.127,5.085-0.127
	s2.596-5.137,3.762-3.865c2.791,3.045-4.647,4.654-4.898,5.271c-0.778,1.922,3.756,0.184,3.624,0.063
	c1.247,1.146-3.028,2.061-3.019,2.434c0.051,2.078,3.49-0.813,3.652-0.775c1.633,0.375-2.294,2.844-2.25,2.545
	c-0.329,2.238,3.396-0.686,3.337-1.186c0.388,0.555,0.369,1.145-0.057,1.77C29.27,50.371,30.508,50.619,32,53
	c1.492-2.381,2.731-2.629,1.389-4.957c-0.425-0.625-0.443-1.215-0.057-1.77c-0.06,0.5,3.667,3.424,3.337,1.186
	c0.044,0.299-3.882-2.17-2.25-2.545c0.162-0.037,3.603,2.854,3.653,0.775c0.009-0.373-4.266-1.287-3.019-2.434
	c-0.133,0.121,4.402,1.859,3.623-0.063c-0.25-0.617-7.688-2.227-4.897-5.271c1.165-1.271,3.761,3.865,3.761,3.865
	s4.669-0.008,5.086,0.127c-0.613,0.174-3.457,0.898-2.737,2.178c0.711-2.879,6.705-1.344,7.305,0.65
	c0.406-2.467-1.775-1.734-2.98-2.758C45.317,41.91,47.787,41.424,48.917,41.887z M40.996,18.311
	c-0.578,0.281-1.199,0.527-1.644,0.42C39.738,18.248,40.498,17.748,40.996,18.311z M37.821,17.865c1.016,0.221,1.016,0.459,0,0.715
	C36.811,18.34,36.811,18.102,37.821,17.865z M23.004,18.311c0.499-0.563,1.258-0.063,1.645,0.42
	C24.204,18.838,23.582,18.592,23.004,18.311z M26.18,18.58c-1.017-0.256-1.017-0.494,0-0.715C27.19,18.102,27.19,18.34,26.18,18.58z
	"/>
<linearGradient id="SVGID_1_" gradientUnits="userSpaceOnUse" x1="32.0005" y1="62" x2="32.0005" y2="2.0005">
	<stop  offset="0" style="stop-color:#1A1A1A"/>
	<stop  offset="0.102" style="stop-color:#393939;stop-opacity:0.949"/>
	<stop  offset="0.3475" style="stop-color:#7F7F7F;stop-opacity:0.8262"/>
	<stop  offset="0.5688" style="stop-color:#B6B6B6;stop-opacity:0.7156"/>
	<stop  offset="0.7582" style="stop-color:#DEDEDE;stop-opacity:0.6209"/>
	<stop  offset="0.9081" style="stop-color:#F6F6F6;stop-opacity:0.5459"/>
	<stop  offset="1" style="stop-color:#FFFFFF;stop-opacity:0.5"/>
	<a:midPointStop  offset="0" style="stop-color:#1A1A1A"/>
	<a:midPointStop  offset="0.4" style="stop-color:#1A1A1A"/>
	<a:midPointStop  offset="1" style="stop-color:#FFFFFF;stop-opacity:0.5"/>
</linearGradient>
<circle opacity="0.1" fill="url(#SVGID_1_)" cx="32" cy="32" r="30"/>
</svg>
