<?xml version="1.0" encoding="utf-8"?>
<!-- Generator: Adobe Illustrator 21.0.0, SVG Export Plug-In . SVG Version: 6.00 Build 0)  -->
<svg version="1.1" id="Layer_1" xmlns="http://www.w3.org/2000/svg" xmlns:xlink="http://www.w3.org/1999/xlink" x="0px" y="0px"
	 width="64px" height="64px" viewBox="0 0 64 64" enable-background="new 0 0 64 64" xml:space="preserve">
<path fill="#E81C27" d="M32,2C18.94,2,7.83,10.35,3.71,22h56.57C56.17,10.35,45.06,2,32,2z"/>
<path fill="#529320" d="M32,62c13.06,0,24.17-8.35,28.29-20H3.71C7.83,53.65,18.94,62,32,62z"/>
<path fill="#FFE12C" d="M3.71,22C2.61,25.13,2,28.49,2,32s0.61,6.87,1.71,10h56.57C61.39,38.87,62,35.51,62,32s-0.61-6.87-1.71-10
	H3.71z"/>
<rect x="31.32" y="37.73" fill="#E81C27" width="1.37" height="2.91"/>
<rect x="30.24" y="37.99" fill="#FFE000" width="1.37" height="2.91"/>
<rect x="32.39" y="37.99" fill="#FFE000" width="1.37" height="2.91"/>
<rect x="30" y="37.99" fill="#529320" width="0.86" height="3.65"/>
<rect x="33.13" y="37.99" fill="#529320" width="0.86" height="3.65"/>
<path fill="#529320" d="M29.6,23.38c0,0-0.33-0.09-0.59-0.09l0.01-0.01c0.21-0.32,0.28-0.91,0.28-0.91s-0.51,0.3-0.72,0.62
	c-0.11-0.23-0.31-0.46-0.31-0.46s-0.24,0.27-0.21,0.54c0.04,0.26,0.38,0.66,0.38,0.66s0.5,0.14,0.76,0.07
	C29.45,23.71,29.6,23.38,29.6,23.38z"/>
<path fill="#529320" d="M29.12,24.14c0,0-0.34-0.01-0.6,0.06l0.01-0.02c0.12-0.36,0.03-0.95,0.03-0.95s-0.42,0.42-0.54,0.78
	c-0.17-0.19-0.42-0.37-0.42-0.37s-0.16,0.33-0.06,0.57c0.11,0.25,0.53,0.54,0.53,0.54s0.52,0.01,0.75-0.13
	C29.06,24.5,29.12,24.14,29.12,24.14z"/>
<path fill="#529320" d="M28.86,24.99c0,0-0.33,0.08-0.56,0.22l0-0.02c0.02-0.38-0.22-0.93-0.22-0.93s-0.29,0.52-0.32,0.89
	c-0.21-0.14-0.5-0.25-0.5-0.25s-0.07,0.36,0.09,0.57c0.17,0.21,0.66,0.39,0.66,0.39s0.51-0.12,0.69-0.32
	C28.9,25.36,28.86,24.99,28.86,24.99z"/>
<path fill="#529320" d="M28.83,25.89c0,0-0.3,0.16-0.48,0.35l0-0.02c-0.08-0.37-0.45-0.84-0.45-0.84s-0.15,0.57-0.07,0.94
	c-0.24-0.08-0.55-0.11-0.55-0.11s0.02,0.36,0.24,0.52c0.21,0.16,0.73,0.2,0.73,0.2s0.46-0.25,0.59-0.48
	C28.96,26.23,28.83,25.89,28.83,25.89z"/>
<path fill="#529320" d="M29.04,26.76c0,0-0.25,0.24-0.37,0.46l-0.01-0.01C28.48,26.87,28,26.52,28,26.52s0.01,0.59,0.18,0.93
	c-0.25-0.02-0.56,0.03-0.56,0.03s0.12,0.34,0.37,0.45c0.25,0.1,0.76,0.01,0.76,0.01s0.38-0.36,0.44-0.62
	C29.25,27.06,29.04,26.76,29.04,26.76z"/>
<path fill="#529320" d="M29.46,27.55c0,0-0.18,0.29-0.24,0.55l-0.01-0.01c-0.26-0.28-0.82-0.5-0.82-0.5s0.16,0.57,0.41,0.85
	c-0.25,0.05-0.53,0.17-0.53,0.17s0.2,0.3,0.47,0.34c0.27,0.03,0.74-0.19,0.74-0.19s0.27-0.44,0.26-0.71
	C29.74,27.78,29.46,27.55,29.46,27.55z"/>
<path fill="#529320" d="M30.08,28.2c0,0-0.09,0.33-0.09,0.59l-0.01-0.01c-0.32-0.21-0.92-0.28-0.92-0.28s0.3,0.51,0.62,0.72
	c-0.23,0.11-0.47,0.31-0.47,0.31s0.27,0.24,0.54,0.2c0.27-0.04,0.66-0.37,0.66-0.37s0.15-0.5,0.07-0.75
	C30.41,28.35,30.08,28.2,30.08,28.2z"/>
<path fill="#529320" d="M30.84,28.67c0,0-0.01,0.34,0.07,0.59l-0.02,0c-0.36-0.12-0.96-0.03-0.96-0.03s0.43,0.41,0.79,0.53
	c-0.19,0.16-0.37,0.42-0.37,0.42s0.33,0.16,0.58,0.06c0.25-0.1,0.54-0.53,0.54-0.53s0.01-0.52-0.13-0.75
	C31.2,28.74,30.84,28.67,30.84,28.67z"/>
<path fill="#529320" d="M34.4,23.38c0,0,0.33-0.09,0.59-0.09l-0.01-0.01c-0.21-0.32-0.28-0.91-0.28-0.91s0.51,0.3,0.72,0.62
	c0.11-0.23,0.31-0.46,0.31-0.46s0.24,0.27,0.21,0.54c-0.04,0.26-0.37,0.66-0.37,0.66s-0.5,0.14-0.76,0.07
	C34.55,23.71,34.4,23.38,34.4,23.38z"/>
<path fill="#529320" d="M34.88,24.14c0,0,0.34-0.01,0.6,0.06l-0.01-0.02c-0.12-0.36-0.03-0.95-0.03-0.95s0.42,0.42,0.54,0.78
	c0.17-0.19,0.42-0.37,0.42-0.37s0.16,0.33,0.06,0.57c-0.11,0.25-0.53,0.54-0.53,0.54s-0.52,0.01-0.75-0.13
	C34.94,24.5,34.88,24.14,34.88,24.14z"/>
<path fill="#529320" d="M35.14,24.99c0,0,0.33,0.08,0.56,0.22l0-0.02c-0.02-0.38,0.22-0.93,0.22-0.93s0.29,0.52,0.31,0.89
	c0.21-0.14,0.5-0.25,0.5-0.25s0.07,0.36-0.09,0.57c-0.16,0.21-0.65,0.39-0.65,0.39s-0.51-0.12-0.69-0.32
	C35.1,25.36,35.14,24.99,35.14,24.99z"/>
<path fill="#529320" d="M35.17,25.89c0,0,0.3,0.16,0.48,0.35l0-0.02c0.08-0.37,0.45-0.84,0.45-0.84s0.15,0.57,0.07,0.94
	c0.24-0.08,0.55-0.11,0.55-0.11s-0.02,0.36-0.24,0.52c-0.21,0.16-0.73,0.2-0.73,0.2s-0.46-0.25-0.59-0.48
	C35.04,26.23,35.17,25.89,35.17,25.89z"/>
<path fill="#529320" d="M34.96,26.76c0,0,0.25,0.24,0.38,0.46l0.01-0.01c0.17-0.34,0.66-0.69,0.66-0.69s-0.01,0.59-0.18,0.93
	c0.25-0.02,0.56,0.03,0.56,0.03s-0.12,0.34-0.37,0.45c-0.25,0.1-0.76,0.01-0.76,0.01s-0.38-0.36-0.44-0.62S34.96,26.76,34.96,26.76z
	"/>
<path fill="#529320" d="M34.54,27.55c0,0,0.17,0.29,0.24,0.55l0.01-0.01c0.25-0.28,0.81-0.5,0.81-0.5s-0.16,0.57-0.41,0.85
	c0.25,0.05,0.53,0.17,0.53,0.17s-0.2,0.3-0.47,0.34c-0.27,0.03-0.74-0.19-0.74-0.19s-0.27-0.44-0.26-0.71
	C34.25,27.78,34.54,27.55,34.54,27.55z"/>
<path fill="#529320" d="M33.92,28.2c0,0,0.09,0.33,0.09,0.59l0.01-0.01c0.32-0.21,0.92-0.28,0.92-0.28s-0.3,0.51-0.62,0.72
	c0.23,0.11,0.47,0.31,0.47,0.31s-0.28,0.24-0.54,0.2c-0.27-0.04-0.66-0.37-0.66-0.37s-0.15-0.5-0.07-0.75
	C33.59,28.35,33.92,28.2,33.92,28.2z"/>
<path fill="#529320" d="M33.16,28.67c0,0,0.01,0.34-0.07,0.59l0.01,0c0.37-0.12,0.96-0.03,0.96-0.03s-0.43,0.41-0.79,0.53
	c0.2,0.16,0.37,0.42,0.37,0.42s-0.33,0.16-0.58,0.06c-0.25-0.1-0.54-0.53-0.54-0.53s-0.01-0.52,0.13-0.75
	C32.79,28.74,33.16,28.67,33.16,28.67z"/>
<path fill="#594640" d="M35.31,25.65c-1.03,0-2.2,1.18-3.31,1.18c-1.1,0-2.27-1.18-3.31-1.18c-1.03,0-4.96,1.18-4.96,1.18
	c5.51,0,8.27,2.95,8.27,2.95s2.76-2.95,8.27-2.95C40.27,26.83,36.34,25.65,35.31,25.65z"/>
<circle fill="#F5F5F5" cx="32" cy="26.34" r="0.69"/>
<path fill="#FFE000" d="M27.22,32.2l0.6,0.49l0.28-0.56l0.05-0.35c-0.04-0.99-0.02-1.96-0.02-1.96l0.18,0.13
	c-0.2-0.16-0.43-0.36-0.67-0.56l-0.39-0.32C27.24,29.06,27.23,31.14,27.22,32.2z"/>
<path fill="#529320" d="M28.15,31.78l0.59-1.47l-0.61-0.49C28.13,29.82,28.11,30.79,28.15,31.78z"/>
<path fill="#D52B1E" d="M27.24,29.06l0.39,0.32c-0.72-0.6-1.56-1.3-1.98-1.66c-0.08-0.07-0.1,1.44-0.09,3.11l1.66,1.37
	C27.23,31.14,27.24,29.06,27.24,29.06z"/>
<path fill="#FFE000" d="M36.78,32.2l-0.6,0.49l-0.28-0.56l-0.05-0.35c0.04-0.99,0.02-1.96,0.02-1.96l-0.17,0.13
	c0.19-0.16,0.42-0.36,0.67-0.56l0.4-0.32C36.76,29.06,36.76,31.14,36.78,32.2z"/>
<path fill="#529320" d="M35.85,31.78l-0.59-1.47l0.61-0.49C35.87,29.82,35.89,30.79,35.85,31.78z"/>
<path fill="#D52B1E" d="M36.76,29.06l-0.39,0.32c0.72-0.6,1.56-1.3,1.98-1.66c0.08-0.07,0.1,1.44,0.09,3.11l-1.66,1.37
	C36.76,31.14,36.76,29.06,36.76,29.06z"/>
<path fill="#D52B1E" d="M27.76,38.04c-1.33-0.7-1.55-2.84-1.53-3.14c0.02-0.29,0.03-3.71,0.03-3.71l0.39,0.32
	c-0.72-0.6-1.56-1.31-1.98-1.67c-0.14-0.12-0.04,4.48-0.04,6.53c0,0.96,0.71,4.34,4.91,2.64c0,0,2.09-0.63,2.71-1.39
	c-0.14,0-0.28-0.01-0.42-0.02l-0.2,0.08C29.2,39.04,27.76,38.04,27.76,38.04L27.76,38.04z"/>
<path fill="#FFE000" d="M26.23,34.9c-0.02,0.29,0.2,2.44,1.53,3.14c0,0,1.44,1,3.86-0.36c-0.73,0.25-1.33,0.31-1.72,0.21
	c-1.17-0.29-2.41-1.42-2.6-2.56c-0.2-1.14-0.15-3.38-0.15-3.38l0.18,0.13c-0.19-0.16-0.42-0.36-0.67-0.56l-0.39-0.32
	C26.26,31.19,26.25,34.61,26.23,34.9z"/>
<path fill="#529320" d="M27.94,33.42c-0.01-0.1-0.02-0.47-0.02-0.87c-0.28-0.23,0.05,0.05-0.59-0.49l-0.18-0.15v0.07
	c-0.01,0.31-0.03,2.29,0.15,3.34c0.2,1.14,1.4,2.27,2.57,2.56c0.39,0.1,1.02,0.04,1.75-0.21l0.15-0.09
	C29.66,37.34,28.2,35.69,27.94,33.42z"/>
<path fill="#D52B1E" d="M36.24,38.11c1.33-0.7,1.55-2.84,1.53-3.14c-0.02-0.29-0.03-3.71-0.03-3.71l-0.39,0.32
	c0.72-0.6,1.56-1.31,1.98-1.67c0.14-0.12,0.04,4.48,0.04,6.53c0,0.96-0.71,4.34-4.91,2.64c0,0-2.09-0.63-2.7-1.38
	c0.14,0,0.28-0.01,0.42-0.02l0.21,0.08C34.79,39.12,36.24,38.11,36.24,38.11z"/>
<path fill="#FFE000" d="M37.77,34.98c0.02,0.29-0.2,2.44-1.53,3.14c0,0-1.44,1-3.86-0.36c0.73,0.25,1.33,0.3,1.72,0.21
	c1.17-0.29,2.4-1.42,2.6-2.56c0.2-1.14,0.15-3.38,0.15-3.38l-0.18,0.13c0.2-0.16,0.43-0.36,0.67-0.56l0.4-0.32
	C37.73,31.26,37.75,34.69,37.77,34.98z"/>
<path fill="#529320" d="M36.05,33.5c0.01-0.1,0.02-0.47,0.02-0.87c0.28-0.23-0.05,0.05,0.59-0.48l0.18-0.15v0.07
	c0.01,0.31,0.03,2.29-0.15,3.34c-0.2,1.14-1.4,2.27-2.57,2.56c-0.39,0.1-1.02,0.04-1.75-0.21l-0.15-0.09
	C34.34,37.42,35.8,35.77,36.05,33.5z"/>
<ellipse fill="#0FB4D4" cx="32" cy="33.28" rx="4.24" ry="4.91"/>
<path fill="#F59E01" d="M35.46,33.43c0,2.26-6.92,2.26-6.92,0c0-2.26,1.55-4.1,3.46-4.1C33.91,29.33,35.46,31.17,35.46,33.43z"/>
<ellipse fill="#D52B1E" cx="31.91" cy="31.63" rx="1.67" ry="1.43"/>
<path fill="#529320" d="M31.82,31.28c-1.04,0.02-3.28,2.19-3.28,2.19c0,2.11,1.55,3.81,3.46,3.81c1.91,0,3.46-1.71,3.46-3.81
	C35.46,33.47,32.93,31.26,31.82,31.28z"/>
<rect x="32.33" y="35.02" fill="#F59E01" width="0.85" height="1.44"/>
<rect x="33.58" y="33.43" fill="#F5F5F5" width="0.46" height="2.77"/>
<linearGradient id="SVGID_1_" gradientUnits="userSpaceOnUse" x1="32" y1="62" x2="32" y2="2">
	<stop  offset="0" style="stop-color:#1A1A1A"/>
	<stop  offset="0.102" style="stop-color:#393939;stop-opacity:0.949"/>
	<stop  offset="0.3475" style="stop-color:#7F7F7F;stop-opacity:0.8262"/>
	<stop  offset="0.5688" style="stop-color:#B6B6B6;stop-opacity:0.7156"/>
	<stop  offset="0.7582" style="stop-color:#DEDEDE;stop-opacity:0.6209"/>
	<stop  offset="0.9081" style="stop-color:#F6F6F6;stop-opacity:0.5459"/>
	<stop  offset="1" style="stop-color:#FFFFFF;stop-opacity:0.5"/>
</linearGradient>
<circle opacity="0.1" fill="url(#SVGID_1_)" cx="32" cy="32" r="30"/>
</svg>
