<?xml version="1.0" encoding="utf-8"?>
<!-- Generator: Adobe Illustrator 21.0.0, SVG Export Plug-In . SVG Version: 6.00 Build 0)  -->
<svg version="1.1" id="Layer_1" xmlns="http://www.w3.org/2000/svg" xmlns:xlink="http://www.w3.org/1999/xlink" x="0px" y="0px"
	 width="64px" height="64px" viewBox="0 0 64 64" enable-background="new 0 0 64 64" xml:space="preserve">
<rect x="12" y="12" fill="#014D87" width="20.42" height="20.42"/>
<polygon fill="#F5F5F5" points="18.91,8.14 18.91,14 11.6,14 26,32 32,32 32,24.5 "/>
<path fill="#014D87" d="M32,2v30H2c0,16.57,13.43,30,30,30c16.57,0,30-13.43,30-30C62,15.43,48.57,2,32,2z"/>
<path fill="#F5F5F5" d="M11,18.91H5.01C3.09,22.87,2,27.31,2,32h12V13.91h-3V18.91z"/>
<polygon fill="#E81C27" points="32,27.06 19,11 13,11 30,32 32,32 "/>
<path fill="#F5F5F5" d="M18.91,5.01V11H11v3h21V2C27.31,2,22.87,3.09,18.91,5.01z"/>
<path fill="#E81C27" d="M32,5H18.91C12.86,7.94,7.94,12.86,5,18.91V32h6V11h21V5z"/>
<path fill="#F5F5F5" d="M50,33.38c-1.63,0-3-1.38-3-1.38s-1.38,1.38-3,1.38c-1.5,0-4-1.38-4-1.38s0.36,8.78,2,11.77
	c1.75,3.19,5,6.23,5,6.23s3.25-3.04,5-6.23C53.64,40.78,54,32,54,32S51.5,33.38,50,33.38z"/>
<path fill="#0FB4D4" d="M42.88,43.29c1.18,2.15,3.1,4.26,4.12,5.31c1.02-1.04,2.95-3.16,4.12-5.3L42.88,43.29z"/>
<path fill="#F59E01" d="M46.97,35.54c-0.92,0.96-0.37,3.62-1.29,2.66c-0.92-0.96-0.92-2.52,0-3.47c0.92-0.96,2.41-0.96,3.33,0
	C49.93,35.68,47.89,34.58,46.97,35.54z"/>
<path fill="#F59E01" d="M44.79,39.96c1.26,0.35,3.22-1.47,2.87-0.17c-0.34,1.3-1.65,2.08-2.91,1.74c-1.26-0.34-2.01-1.68-1.67-2.99
	C43.43,37.24,43.52,39.62,44.79,39.96z"/>
<path fill="#F59E01" d="M49.58,39.71c-0.34-1.3-2.84-2.14-1.58-2.49c1.26-0.35,2.57,0.43,2.91,1.74c0.35,1.3-0.4,2.64-1.67,2.99
	C47.99,42.29,49.93,41.01,49.58,39.71z"/>
<linearGradient id="SVGID_1_" gradientUnits="userSpaceOnUse" x1="31.9993" y1="62" x2="31.9993" y2="2">
	<stop  offset="0" style="stop-color:#1A1A1A"/>
	<stop  offset="0.102" style="stop-color:#393939;stop-opacity:0.949"/>
	<stop  offset="0.3475" style="stop-color:#7F7F7F;stop-opacity:0.8262"/>
	<stop  offset="0.5688" style="stop-color:#B6B6B6;stop-opacity:0.7156"/>
	<stop  offset="0.7582" style="stop-color:#DEDEDE;stop-opacity:0.6209"/>
	<stop  offset="0.9081" style="stop-color:#F6F6F6;stop-opacity:0.5459"/>
	<stop  offset="1" style="stop-color:#FFFFFF;stop-opacity:0.5"/>
</linearGradient>
<circle opacity="0.1" fill="url(#SVGID_1_)" cx="32" cy="32" r="30"/>
</svg>
