<?xml version="1.0" encoding="utf-8"?>
<!-- Generator: Adobe Illustrator 21.0.0, SVG Export Plug-In . SVG Version: 6.00 Build 0)  -->
<svg version="1.1" id="Layer_1" xmlns="http://www.w3.org/2000/svg" xmlns:xlink="http://www.w3.org/1999/xlink" x="0px" y="0px"
	 width="64px" height="64px" viewBox="0 0 64 64" enable-background="new 0 0 64 64" xml:space="preserve">
<circle fill="#F5F5F5" cx="32" cy="32" r="30"/>
<path fill="#529320" d="M12.47,36.95c0,0-0.16,1.37,0.4,2.02c0.57,0.65,1.94,1.37,2.42,1.45c0.48,0.08-0.56-1.78-0.56-1.78
	S13.2,36.71,12.47,36.95L12.47,36.95z"/>
<path fill="#529320" d="M12.72,40.43c0,0,0.16,1.29,1.05,1.45c0.89,0.16,1.7,0.08,1.7,0.08S15.46,40.51,12.72,40.43z"/>
<path fill="#529320" d="M15.63,37.76c0,0,0.89,0.32,0.89,1.13c0,0.8-0.08,1.61-0.08,1.61s-0.65-0.81-0.65-1.21
	C15.79,38.89,15.63,37.76,15.63,37.76z"/>
<path fill="#529320" d="M15.29,42.62c0,0-0.11,0.8,0.8,0.8C17.01,43.42,16.21,42.39,15.29,42.62z"/>
<path fill="#529320" d="M15.24,43.88c0,0,0.97-0.29,2.11-0.06c1.14,0.23,1.71,1.09,1.71,1.09s-1.2,0.34-2.57,0
	C15.13,44.56,15.24,43.88,15.24,43.88z"/>
<path fill="#529320" d="M15.87,41.02c0,0,1.37-0.4,2.68,2.57C18.55,43.59,16.04,42.96,15.87,41.02z"/>
<path fill="#529320" d="M17.29,40.39c0,0,1.54-0.86,2.8,3.14C20.09,43.54,18.32,42.85,17.29,40.39z"/>
<path fill="#529320" d="M19.35,44.11c0,0,1.54-0.57,3.54,1.77C19.63,45.76,19.35,44.11,19.35,44.11z"/>
<path fill="#529320" d="M20.38,43.02c0,0-0.07,0.9,0.53,0.9C21.51,43.92,20.99,42.76,20.38,43.02z"/>
<path fill="#529320" d="M19.27,45.36c0,0-0.06,0.79,0.41,0.79C20.15,46.14,19.74,45.13,19.27,45.36z"/>
<path fill="#529320" d="M23.98,47.79c0,0-0.08,0.9,0.53,0.9C25.11,48.69,24.58,47.53,23.98,47.79z"/>
<path fill="#529320" d="M25.41,45.1c0,0-0.08,0.9,0.53,0.9C26.54,46,26.01,44.85,25.41,45.1z"/>
<path fill="#529320" d="M21.63,43.54c0,0,2.17-0.57,3.08,2.17C22.09,45.3,21.63,43.54,21.63,43.54z"/>
<path fill="#529320" d="M19.69,46.56c0,0,2.46-0.63,3.6,0.23C24.43,47.65,21.12,47.99,19.69,46.56z"/>
<path fill="#529320" d="M23.98,46.62c0,0,1.65-0.8,3.48,0.97C24.03,48.05,23.98,46.62,23.98,46.62z"/>
<path fill="#529320" d="M26.77,45.53c0,0,1.66-0.51,3.25,2.51C26.43,47.53,26.77,45.53,26.77,45.53z"/>
<path fill="#529320" d="M29.63,48.85c0,0-1.83,1.26-4.11-0.06C25.52,48.79,26.26,47.25,29.63,48.85z"/>
<path fill="#529320" d="M51.52,36.93c0,0,0.16,1.37-0.4,2.02c-0.56,0.65-1.94,1.37-2.42,1.45c-0.48,0.08,0.57-1.78,0.57-1.78
	S50.8,36.68,51.52,36.93z"/>
<path fill="#529320" d="M51.28,40.4c0,0-0.16,1.29-1.05,1.46c-0.89,0.16-1.7,0.08-1.7,0.08S48.54,40.48,51.28,40.4L51.28,40.4z"/>
<path fill="#529320" d="M48.38,37.73c0,0-0.89,0.32-0.89,1.13s0.08,1.62,0.08,1.62s0.65-0.81,0.65-1.21
	C48.21,38.86,48.38,37.73,48.38,37.73z"/>
<path fill="#529320" d="M48.7,42.59c0,0,0.12,0.8-0.8,0.8C46.99,43.39,47.79,42.37,48.7,42.59z"/>
<path fill="#529320" d="M48.76,43.85c0,0-0.97-0.29-2.11-0.06c-1.14,0.23-1.71,1.09-1.71,1.09s1.2,0.34,2.57,0
	C48.88,44.54,48.76,43.85,48.76,43.85L48.76,43.85z"/>
<path fill="#529320" d="M48.13,40.99c0,0-1.37-0.4-2.68,2.57C45.45,43.56,47.96,42.94,48.13,40.99z"/>
<path fill="#529320" d="M46.71,40.37c0,0-1.54-0.86-2.8,3.14C43.91,43.51,45.68,42.82,46.71,40.37z"/>
<path fill="#529320" d="M44.65,44.08c0,0-1.54-0.57-3.54,1.77C44.36,45.73,44.65,44.08,44.65,44.08z"/>
<path fill="#529320" d="M43.62,42.99c0,0,0.08,0.9-0.53,0.9C42.48,43.89,43.01,42.73,43.62,42.99z"/>
<path fill="#529320" d="M44.73,45.33c0,0,0.06,0.79-0.41,0.79C43.85,46.12,44.26,45.1,44.73,45.33z"/>
<path fill="#529320" d="M40.02,47.76c0,0,0.07,0.9-0.53,0.9C38.89,48.66,39.42,47.5,40.02,47.76z"/>
<path fill="#529320" d="M38.59,45.07c0,0,0.08,0.9-0.53,0.9S37.99,44.82,38.59,45.07z"/>
<path fill="#529320" d="M42.37,43.51c0,0-2.17-0.57-3.08,2.17C41.91,45.28,42.37,43.51,42.37,43.51z"/>
<path fill="#529320" d="M44.31,46.53c0,0-2.46-0.63-3.6,0.23C39.57,47.62,42.88,47.96,44.31,46.53z"/>
<path fill="#529320" d="M40.02,46.59c0,0-1.66-0.8-3.48,0.97C39.97,48.02,40.02,46.59,40.02,46.59z"/>
<path fill="#529320" d="M37.23,45.51c0,0-1.66-0.51-3.26,2.51C37.57,47.5,37.23,45.51,37.23,45.51z"/>
<path fill="#529320" d="M34.37,48.82c0,0,1.83,1.26,4.11-0.06C38.48,48.76,37.74,47.22,34.37,48.82z"/>
<path fill="#529320" d="M31.65,49.55c0,0-1.25,1.7-1.25,1.54c0-0.16-0.89-0.89-0.89-0.89l1.54-1.13l-0.61-0.29l0.32-0.36l1.13,0.48"
	/>
<path fill="#529320" d="M32,49.54c0,0,1.25,1.7,1.25,1.54c0-0.16,0.89-0.89,0.89-0.89l-1.54-1.13l0.61-0.28l-0.32-0.36l-1.13,0.48"
	/>
<path fill="#529320" d="M31.57,49.63h0.53"/>
<path fill="#F59E01" d="M18.04,29.52c0,0,0.44,1.14,0.93,1.14c0.49,0,1.8,0.11,1.8,0.11s0.65-0.11,0.87-0.71
	c0.22-0.6,0.82-3.1,3.81-1.58c3,1.53,3.16-2.61,3.16-2.61l-0.49-0.71l0.11-1.36c0,0,1.63,1.14,2.67,1.09
	c1.04-0.05,1.8,0.33,2.12,0.33c0.33,0,1.36,0.33,1.36,0.33l2.67,0.11c0,0,0.44-0.38,0.87-0.33c0.44,0.05,0.44-0.27,1.25-0.27
	c0.82,0,1.63-1.04,1.63-1.04s0.22-0.22,1.42,0c0,0,0.82-0.65,2.02-1.04c1.2-0.38,1.04-0.87,1.04-0.87s0.87-0.16,1.25-0.11
	c0.38,0.05,0.6-0.65,0.6-0.65l0.93-0.11l0.38-0.54l0.93-0.17c0,0,1.09-0.76,1.25-1.25c0.16-0.49,1.42-0.11,1.42-0.11
	s0.55-0.49,0.6-0.76c0.05-0.27,0.54-0.05,0.54-0.05l-0.05,0.87l-0.6,0.33v0.54h-0.93l-0.05,0.54l-0.76,0.06l-0.11,0.65l-0.16,0.27
	l-0.22,0.11h-0.54l-0.22,0.33l-0.54,0.38l-0.38,0.49l-0.76-0.05l-0.49,0.65l-0.33-0.06l-0.49,0.82l-0.38,0.49l-0.22,0.33l-0.38,0.11
	l-0.11,0.44l-0.65,0.16l-0.87,0.22l-0.33,0.38c0,0-0.93,1.85,0.05,2.51c0.98,0.65,1.04,1.36,1.04,1.36l0.49,0.33l0.38,0.65
	l0.16,0.76c0,0-0.16,0.11-0.38,0.05c-0.22-0.05-0.6-0.11-0.6-0.11l-0.44-0.38l-0.82-0.05l-0.44,0.49c0,0-0.22,0.33-0.22,0.54
	c0,0.22-0.11,0.16-0.38,0c-0.27-0.16-0.71-0.44-0.71-0.44l-0.6-0.16l-0.05-0.27l-0.38,0.22c0,0-0.11,0.33-0.33,0.22
	c-0.22-0.11-0.44-0.11-0.44-0.11h-0.38c0,0-0.87,0.65-0.76,2.78l-0.98,0.16l-0.49,0.44l-0.27,0.27h-0.71L35.96,36l-0.71,0.27
	l-0.33,0.44l-0.87,0.05l-0.38,0.27l-0.16,0.38l-0.6-0.38l-0.82-0.22l-0.71,0.16c0,0-0.22,0.06-0.44,0.22
	c-0.22,0.16-0.82,0.27-0.82,0.27s-0.38,0.11-0.38,0.33c0,0.22-0.11,0.6-0.11,0.6v0.82c0,0-0.11,0.54-0.54,0.54
	c-0.44,0-0.33,0-0.54-0.05c-0.22-0.05-0.16-0.54-0.16-0.54v-0.6l-0.87-0.82l-0.54-0.22l-0.6,0.06l-0.54,0.33l-0.49,0.33
	c0,0,0.11,0.38-0.27,0.11c-0.38-0.27-0.65-0.38-0.65-0.38l-0.49-0.27l-0.65-0.16l-0.49-0.6l-1.25-0.05l-1.09-1.25l-0.33-0.33
	l-0.05-0.98l-0.71-0.11v-0.54l-0.27-0.54l0.11-0.98l-0.65-0.27l-0.27-0.93L18.04,29.52z"/>
<linearGradient id="SVGID_1_" gradientUnits="userSpaceOnUse" x1="32" y1="62" x2="32" y2="2">
	<stop  offset="0" style="stop-color:#1A1A1A"/>
	<stop  offset="0.102" style="stop-color:#393939;stop-opacity:0.949"/>
	<stop  offset="0.3475" style="stop-color:#7F7F7F;stop-opacity:0.8262"/>
	<stop  offset="0.5688" style="stop-color:#B6B6B6;stop-opacity:0.7156"/>
	<stop  offset="0.7582" style="stop-color:#DEDEDE;stop-opacity:0.6209"/>
	<stop  offset="0.9081" style="stop-color:#F6F6F6;stop-opacity:0.5459"/>
	<stop  offset="1" style="stop-color:#FFFFFF;stop-opacity:0.5"/>
</linearGradient>
<circle opacity="0.1" fill="url(#SVGID_1_)" cx="32" cy="32" r="30"/>
</svg>
