<?xml version="1.0" encoding="utf-8"?>
<!-- Generator: Adobe Illustrator 21.0.0, SVG Export Plug-In . SVG Version: 6.00 Build 0)  -->
<svg version="1.1" id="Layer_1" xmlns="http://www.w3.org/2000/svg" xmlns:xlink="http://www.w3.org/1999/xlink" x="0px" y="0px"
	 width="64px" height="64px" viewBox="0 0 64 64" enable-background="new 0 0 64 64" xml:space="preserve">
<path fill="#529320" d="M60,42c-5.52,0-10-4.48-10-10H10.79v21.21l0,0C16.21,58.64,23.71,62,32,62c13.07,0,24.18-8.36,28.29-20.02
	C60.19,41.99,60.1,42,60,42z"/>
<path fill="#302C3B" d="M60,22c0.1,0,0.19,0.01,0.29,0.01C56.18,10.36,45.07,2,32,2c-8.29,0-15.79,3.36-21.21,8.79h0V32H50
	C50,26.48,54.48,22,60,22z"/>
<path fill="#F5F5F5" d="M60.29,22h-49.5v20h49.5C61.39,38.87,62,35.51,62,32S61.39,25.13,60.29,22z"/>
<path fill="#E81C27" d="M10.79,10.79C5.36,16.21,2,23.71,2,32c0,8.28,3.36,15.78,8.79,21.21L32,32L10.79,10.79z"/>
<path fill="#E81C27" d="M44,38.86c-3.04-0.65-5.33-3.47-5.33-6.86c0-3.38,2.29-6.21,5.33-6.86c-0.43-0.1-0.88-0.14-1.33-0.14
	C38.98,25,36,28.14,36,32s2.98,7,6.67,7C43.12,39,43.57,38.95,44,38.86z"/>
<polygon fill="#E81C27" points="45,34.12 47.47,36 46.54,32.95 49,31 45.95,31 45,28 44.08,31 41,31 43.46,32.95 42.53,36 "/>
<linearGradient id="SVGID_1_" gradientUnits="userSpaceOnUse" x1="32" y1="62" x2="32" y2="2">
	<stop  offset="0" style="stop-color:#1A1A1A"/>
	<stop  offset="0.102" style="stop-color:#393939;stop-opacity:0.949"/>
	<stop  offset="0.3475" style="stop-color:#7F7F7F;stop-opacity:0.8262"/>
	<stop  offset="0.5688" style="stop-color:#B6B6B6;stop-opacity:0.7156"/>
	<stop  offset="0.7582" style="stop-color:#DEDEDE;stop-opacity:0.6209"/>
	<stop  offset="0.9081" style="stop-color:#F6F6F6;stop-opacity:0.5459"/>
	<stop  offset="1" style="stop-color:#FFFFFF;stop-opacity:0.5"/>
</linearGradient>
<circle opacity="0.1" fill="url(#SVGID_1_)" cx="32" cy="32" r="30"/>
</svg>
