<?xml version="1.0" encoding="utf-8"?>
<!-- Generator: Adobe Illustrator 21.0.0, SVG Export Plug-In . SVG Version: 6.00 Build 0)  -->
<svg version="1.1" id="Layer_1" xmlns="http://www.w3.org/2000/svg" xmlns:xlink="http://www.w3.org/1999/xlink" x="0px" y="0px"
	 width="64px" height="64px" viewBox="0 0 64 64" enable-background="new 0 0 64 64" xml:space="preserve">
<path fill="#302C3B" d="M2,32c0,16.57,13.43,30,30,30c16.57,0,30-13.43,30-30c0-3.51-0.61-6.87-1.71-10H3.71
	C2.61,25.13,2,28.49,2,32z"/>
<path fill="#014D87" d="M32,2C18.94,2,7.83,10.35,3.71,22h56.57C56.17,10.35,45.06,2,32,2z"/>
<path fill="#FFE12C" d="M30.9,5.16c-0.96,1.58-1.08,2.85-0.42,5.04c0.32,1.02,0.66,2.55,0.81,3.37c0.2,1.17,0.17,1.28,0.2,1.53
	c0.24,0,0.79,0,1.05,0c0.04-0.4,0.07-0.87,0.15-1.51c0.1-0.75,0.4-2.31,0.72-3.4c0.64-2.17,0.6-3.5-0.4-5.01
	c-0.37-0.56-0.85-1.02-1.07-1.02C31.73,4.17,31.23,4.59,30.9,5.16z M35.62,9.65c-1.36,0.58-2.18,2.2-2.63,4.43
	c-0.08,0.42-0.1,0.57-0.14,1.04c0.29,0,0.41,0,0.7,0c0.06-0.32,0.11-0.48,0.25-0.94c0.55-1.74,2.17-2.44,2.09-0.81
	c-0.02,0.45-0.21,0.7-0.42,0.94c0.26-0.06,0.81-0.32,1.26-0.58C39.23,12.23,38.25,8.53,35.62,9.65L35.62,9.65z M30.06,15.68
	c1.1,0.01,3,0.01,3.91,0.01c0-0.23,0-0.11,0.01-0.3c-0.67-0.01-3.24,0-3.91,0C30.07,15.51,30.06,15.57,30.06,15.68z M30.38,16.97
	c-0.4,0.43-1.02,0.75-1.02,0.75s0.55,0.06,1.06,0.03s0.79-0.1,1.09-0.25c-0.08,0.61-0.09,1.2-0.09,1.2
	c0.07,0.78,0.16,0.98,0.33,1.37c0.23,0.32,0.36,0.32,0.53-0.02c0.18-0.38,0.3-0.76,0.34-1.35c-0.01-0.44-0.04-0.64-0.14-1.19
	c0.35,0.15,0.58,0.19,1.1,0.24c0.54,0.05,1.04,0.03,1.04,0.03s-0.73-0.37-1.05-0.81c-0.32-0.44-0.25-0.37-0.48-0.94
	c-0.28-0.01-1.7,0-2.15,0C30.71,16.53,30.69,16.64,30.38,16.97L30.38,16.97z M28.38,9.65c1.36,0.58,2.18,2.2,2.63,4.43
	c0.08,0.42,0.1,0.56,0.14,1.04c-0.29,0-0.41,0-0.7,0c-0.06-0.32-0.11-0.48-0.25-0.93c-0.55-1.74-2.17-2.44-2.09-0.81
	c0.02,0.45,0.21,0.7,0.42,0.94c-0.26-0.06-0.81-0.32-1.26-0.58C24.77,12.22,25.76,8.53,28.38,9.65L28.38,9.65z"/>
<path fill="#FFE12C" d="M13.57,13.58c0.2,1.17,0.17,1.28,0.2,1.53c0.24,0,0.79,0,1.05,0c0.04-0.4,0.07-0.87,0.15-1.51
	c0.1-0.75,0.4-2.31,0.72-3.4c0.43-1.46,0.54-2.53,0.28-3.54c-1.21,0.77-2.37,1.62-3.46,2.55c0.06,0.31,0.14,0.64,0.25,1
	C13.08,11.23,13.42,12.75,13.57,13.58z"/>
<path fill="#FFE12C" d="M16.25,15.69c0-0.23,0-0.11,0.01-0.3c-0.67-0.01-3.24,0-3.91,0c0,0.12,0,0.18-0.01,0.29
	C13.44,15.69,15.34,15.7,16.25,15.69z"/>
<path fill="#FFE12C" d="M9.56,13.73c0.45,0.26,1,0.52,1.26,0.58c-0.21-0.24-0.4-0.49-0.42-0.94c-0.07-1.63,1.54-0.93,2.09,0.81
	c0.14,0.45,0.18,0.62,0.25,0.93c0.29,0,0.4,0,0.7,0c-0.04-0.47-0.06-0.62-0.14-1.04c-0.35-1.75-0.94-3.12-1.83-3.91
	c-0.96,0.9-1.86,1.87-2.69,2.9C8.98,13.31,9.24,13.54,9.56,13.73z"/>
<path fill="#FFE12C" d="M15.86,16.95c-0.32-0.44-0.25-0.37-0.48-0.94c-0.28-0.01-1.7,0-2.15,0c-0.25,0.52-0.27,0.63-0.57,0.96
	c-0.4,0.43-1.02,0.75-1.02,0.75s0.55,0.06,1.06,0.03s0.79-0.1,1.09-0.25c-0.08,0.61-0.09,1.2-0.09,1.2
	c0.07,0.78,0.16,0.98,0.33,1.37c0.23,0.32,0.36,0.32,0.53-0.02c0.18-0.38,0.3-0.76,0.34-1.35c-0.01-0.44-0.04-0.64-0.14-1.19
	c0.35,0.15,0.58,0.19,1.1,0.24c0.54,0.05,1.04,0.03,1.04,0.03S16.18,17.4,15.86,16.95z"/>
<path fill="#FFE12C" d="M17.9,9.65c-1.36,0.58-2.18,2.2-2.63,4.43c-0.08,0.42-0.1,0.57-0.14,1.04c0.3,0,0.41,0,0.7,0
	c0.06-0.32,0.11-0.48,0.25-0.94c0.55-1.74,2.17-2.44,2.09-0.81c-0.02,0.45-0.21,0.7-0.42,0.94c0.26-0.06,0.81-0.32,1.26-0.58
	C21.51,12.23,20.52,8.53,17.9,9.65z"/>
<path fill="#FFE12C" d="M48.17,15.11c0.29,0,0.4,0,0.7,0c-0.04-0.47-0.06-0.62-0.14-1.04c-0.45-2.23-1.27-3.84-2.63-4.43
	c-2.63-1.12-3.61,2.58-1.11,4.08c0.45,0.26,1,0.52,1.26,0.58c-0.21-0.24-0.4-0.49-0.42-0.94c-0.07-1.63,1.54-0.93,2.09,0.81
	C48.07,14.63,48.11,14.8,48.17,15.11z"/>
<path fill="#FFE12C" d="M48.2,10.21c0.32,1.02,0.66,2.55,0.81,3.37c0.2,1.17,0.17,1.28,0.2,1.53c0.24,0,0.79,0,1.05,0
	c0.04-0.4,0.07-0.87,0.15-1.51c0.1-0.75,0.4-2.31,0.72-3.4c0.12-0.39,0.2-0.74,0.27-1.08c-1.08-0.92-2.23-1.75-3.43-2.51
	C47.67,7.65,47.75,8.71,48.2,10.21z"/>
<path fill="#FFE12C" d="M51.3,16.95c-0.32-0.44-0.25-0.37-0.48-0.94c-0.28-0.01-1.7,0-2.15,0c-0.25,0.52-0.27,0.63-0.57,0.96
	c-0.4,0.43-1.02,0.75-1.02,0.75s0.55,0.06,1.06,0.03c0.51-0.04,0.79-0.1,1.09-0.25c-0.08,0.61-0.09,1.2-0.09,1.2
	c0.07,0.78,0.16,0.98,0.33,1.37c0.23,0.32,0.36,0.32,0.53-0.02c0.18-0.38,0.3-0.76,0.34-1.35c-0.01-0.44-0.04-0.64-0.14-1.19
	c0.35,0.15,0.58,0.19,1.1,0.24c0.54,0.05,1.04,0.03,1.04,0.03S51.62,17.4,51.3,16.95z"/>
<path fill="#FFE12C" d="M47.78,15.68c1.1,0.01,3,0.01,3.91,0.01c0-0.23,0-0.11,0.01-0.3c-0.67-0.01-3.24,0-3.91,0
	C47.79,15.51,47.78,15.57,47.78,15.68z"/>
<path fill="#FFE12C" d="M50.71,14.08c-0.08,0.42-0.1,0.57-0.14,1.04c0.29,0,0.41,0,0.7,0c0.06-0.32,0.11-0.48,0.25-0.94
	c0.55-1.74,2.17-2.44,2.09-0.81c-0.02,0.45-0.21,0.7-0.42,0.94c0.26-0.06,0.81-0.32,1.26-0.58c0.32-0.19,0.58-0.42,0.79-0.67
	c-0.83-1.02-1.73-1.99-2.69-2.89C51.65,10.96,51.07,12.32,50.71,14.08z"/>
<polygon fill="#529320" points="53.82,50.82 53.64,51.46 37.79,44.62 37.97,43.98 "/>
<polygon fill="#529320" points="54.31,49.15 54.12,49.79 38.01,43.86 38.19,43.21 "/>
<polygon fill="#529320" points="54.74,47.67 54.55,48.31 38.22,43.13 38.41,42.49 "/>
<rect x="46.49" y="35.64" transform="matrix(0.2785 -0.9604 0.9604 0.2785 -8.6711 76.863)" fill="#529320" width="0.67" height="17.13"/>
<polygon fill="#529320" points="55.63,44.61 55.44,45.25 38.78,41.19 38.97,40.54 "/>
<polygon fill="#529320" points="14.35,28.12 14.75,27.58 27.17,39.58 26.77,40.11 "/>
<polygon fill="#529320" points="12.01,28.71 12.42,28.17 25.41,39.41 25,39.95 "/>
<polygon fill="#529320" points="9.62,28.17 10.02,27.63 23.48,38.24 23.08,38.78 "/>
<rect x="15.92" y="26.02" transform="matrix(0.5981 -0.8014 0.8014 0.5981 -21.1864 26.9284)" fill="#529320" width="0.67" height="17.13"/>
<polygon fill="#529320" points="6.38,29.54 6.78,29 20.94,38.68 20.53,39.22 "/>
<polygon fill="#529320" points="6.26,32.34 6.33,31.67 23.17,35.46 23.11,36.12 "/>
<polygon fill="#529320" points="4.86,33.59 4.93,32.92 21.86,35.75 21.8,36.42 "/>
<polygon fill="#529320" points="6.99,35.35 7.05,34.68 24.07,36.73 24,37.4 "/>
<rect x="13.11" y="28.37" transform="matrix(0.0958 -0.9954 0.9954 0.0958 -24.6085 46.7833)" fill="#529320" width="0.67" height="17.13"/>
<polygon fill="#529320" points="7.82,38.68 7.88,38.01 25.01,38.91 24.94,39.58 "/>
<path fill="#FFE12C" d="M33.27,50.63l0.67,0.48c0.97,0.68,1.5,1.61,1.45,2.58l-0.04,0.8l0.32-0.79c0.35-0.82,0.3-2.07-0.11-2.99
	l-0.24-0.54l0.76,0.33c1.09,0.46,1.8,1.27,1.95,2.22l0.13,0.79l0.15-0.84c0.17-0.88-0.13-2.09-0.73-2.9l-0.35-0.48l0.81,0.16
	c1.16,0.22,2.03,0.86,2.37,1.77l0.29,0.74l-0.03-0.85c-0.02-0.89-0.56-2.01-1.31-2.68l-0.44-0.39l0.83-0.01
	c1.18-0.02,2.16,0.42,2.68,1.24l0.44,0.67l-0.21-0.82c-0.2-0.87-0.97-1.85-1.84-2.35l-0.51-0.29l0.81-0.18
	c1.15-0.27,2.2-0.04,2.88,0.65l0.57,0.56l-0.37-0.76c-0.38-0.81-1.33-1.61-2.29-1.92l-0.56-0.18l0.75-0.34
	c1.07-0.5,2.14-0.49,2.95,0.04l0.67,0.43l-0.52-0.67c-0.54-0.71-1.64-1.29-2.64-1.4l-0.59-0.06l0.67-0.49
	c0.94-0.71,1.99-0.93,2.9-0.58l0.75,0.28l-0.65-0.54c-0.67-0.58-1.87-0.92-2.88-0.82l-0.58,0.06l0.55-0.62
	c0.77-0.89,1.76-1.32,2.71-1.17l0.79,0.12l-0.75-0.4c-0.78-0.43-2.02-0.51-2.98-0.2l-0.56,0.18l0.41-0.72
	c0.57-1.03,1.44-1.66,2.41-1.71l0.8-0.05l-0.81-0.23c-0.85-0.26-2.08-0.08-2.96,0.42l-0.51,0.29l0.25-0.79
	c0.34-1.13,1.07-1.92,2-2.17l0.77-0.21l-0.85-0.06c-0.89-0.08-2.06,0.35-2.8,1.03l-0.44,0.39l0.08-0.82
	c0.1-1.18,0.65-2.11,1.51-2.54l0.71-0.37l-0.84,0.12c-0.88,0.11-1.94,0.78-2.53,1.59L38.8,33.1l-0.09-0.82
	c-0.15-1.17,0.19-2.19,0.95-2.8l0.62-0.51l-0.79,0.29c-0.84,0.29-1.73,1.16-2.15,2.08l-0.24,0.54l-0.26-0.79
	c-0.39-1.11-0.27-2.19,0.34-2.94l0.5-0.63l-0.72,0.45c-0.76,0.46-1.45,1.5-1.66,2.48l-0.12,0.58l-0.42-0.71
	c-0.61-1.01-0.71-2.08-0.27-2.94l0.36-0.72l-0.61,0.59c-0.65,0.61-1.11,1.77-1.11,2.78v0.59L32.55,30
	c-0.81-0.86-1.13-1.89-0.88-2.82l0.2-0.77l-0.47,0.7c-0.51,0.73-0.72,1.96-0.51,2.95L31,30.63l-0.67-0.48
	c-0.97-0.67-1.5-1.61-1.45-2.58l0.04-0.8l-0.32,0.79c-0.35,0.82-0.3,2.07,0.11,2.99l0.24,0.54l-0.76-0.33
	c-1.09-0.46-1.8-1.26-1.95-2.22l-0.13-0.79l-0.15,0.84c-0.17,0.88,0.14,2.08,0.73,2.9l0.34,0.48l-0.81-0.17
	c-1.16-0.22-2.02-0.86-2.37-1.77l-0.29-0.74l0.03,0.85c0.02,0.89,0.57,2.01,1.32,2.69l0.44,0.39l-0.83,0.01
	c-1.18,0.02-2.16-0.42-2.68-1.23l-0.44-0.67l0.2,0.82c0.2,0.87,0.97,1.85,1.85,2.35l0.51,0.29l-0.81,0.18
	c-1.15,0.27-2.2,0.04-2.88-0.65l-0.57-0.56l0.37,0.76c0.38,0.81,1.34,1.61,2.29,1.92l0.56,0.18l-0.75,0.34
	c-1.07,0.5-2.14,0.49-2.95-0.04l-0.67-0.43l0.52,0.67c0.54,0.71,1.64,1.29,2.64,1.4l0.59,0.06l-0.67,0.49
	c-0.94,0.71-1.99,0.93-2.89,0.58l-0.75-0.28l0.65,0.55c0.67,0.58,1.87,0.93,2.87,0.82l0.59-0.06l-0.55,0.62
	c-0.77,0.89-1.76,1.32-2.71,1.17l-0.79-0.12l0.75,0.4c0.78,0.43,2.02,0.51,2.98,0.2l0.56-0.18l-0.41,0.72
	c-0.57,1.03-1.45,1.66-2.41,1.71l-0.8,0.05l0.82,0.23c0.85,0.26,2.08,0.08,2.96-0.42l0.51-0.29l-0.25,0.79
	c-0.34,1.13-1.07,1.92-2,2.17l-0.77,0.21l0.85,0.06c0.89,0.08,2.05-0.35,2.8-1.03l0.44-0.39l-0.08,0.83
	c-0.1,1.17-0.65,2.1-1.51,2.54l-0.71,0.37l0.84-0.12c0.88-0.11,1.94-0.77,2.53-1.59l0.35-0.47l0.09,0.82
	c0.15,1.17-0.19,2.19-0.95,2.8L24,52.29l0.8-0.29c0.84-0.29,1.73-1.16,2.14-2.08l0.24-0.54l0.26,0.79c0.39,1.12,0.27,2.18-0.34,2.94
	l-0.5,0.63l0.72-0.45c0.76-0.46,1.46-1.5,1.66-2.48l0.12-0.57l0.42,0.71c0.61,1.01,0.71,2.08,0.28,2.95l-0.36,0.71l0.61-0.59
	c0.65-0.61,1.11-1.77,1.11-2.78v-0.59l0.56,0.61c0.81,0.86,1.13,1.89,0.88,2.82l-0.2,0.77l0.47-0.71c0.51-0.73,0.72-1.96,0.51-2.95
	L33.27,50.63"/>
<linearGradient id="SVGID_1_" gradientUnits="userSpaceOnUse" x1="31.9995" y1="62" x2="31.9995" y2="2">
	<stop  offset="0" style="stop-color:#1A1A1A"/>
	<stop  offset="0.102" style="stop-color:#393939;stop-opacity:0.949"/>
	<stop  offset="0.3475" style="stop-color:#7F7F7F;stop-opacity:0.8262"/>
	<stop  offset="0.5688" style="stop-color:#B6B6B6;stop-opacity:0.7156"/>
	<stop  offset="0.7582" style="stop-color:#DEDEDE;stop-opacity:0.6209"/>
	<stop  offset="0.9081" style="stop-color:#F6F6F6;stop-opacity:0.5459"/>
	<stop  offset="1" style="stop-color:#FFFFFF;stop-opacity:0.5"/>
</linearGradient>
<circle opacity="0.1" fill="url(#SVGID_1_)" cx="32" cy="32" r="30"/>
</svg>
