<?xml version="1.0" encoding="utf-8"?>
<!-- Generator: Adobe Illustrator 21.0.0, SVG Export Plug-In . SVG Version: 6.00 Build 0)  -->
<svg version="1.1" id="Layer_1" xmlns="http://www.w3.org/2000/svg" xmlns:xlink="http://www.w3.org/1999/xlink" x="0px" y="0px"
	 width="64px" height="64px" viewBox="0 0 64 64" enable-background="new 0 0 64 64" xml:space="preserve">
<path fill="#E81C27" d="M56,14L56,14H8c-3.77,5.01-6,11.25-6,18c0,16.57,13.43,30,30,30s30-13.43,30-30C62,25.25,59.77,19.01,56,14z
	"/>
<polygon fill="#0FB4D4" points="20.5,39 43.5,39 50.5,25 13.5,25 "/>
<polygon fill="#0FB4D4" points="20.5,39 43.5,39 50.5,25 13.5,25 "/>
<path fill="#302C3B" d="M50.5,25L56,14C50.53,6.71,41.81,2,32,2S13.47,6.71,8,14l5.5,11H50.5z"/>
<polygon fill="#F5F5F5" points="20.5,39 32,62 43.5,39 "/>
<polygon fill="#FFE12C" points="36.18,22.24 41.25,15.85 34.8,20.86 37.03,13.01 33,20.1 32.06,12 31.05,20.09 27.07,12.97 
	29.24,20.83 22.84,15.77 27.85,22.2 19.99,19.97 27.09,24 18.98,24.94 19.43,25 44.56,25 36.92,24.04 44.05,20.08 "/>
<linearGradient id="SVGID_1_" gradientUnits="userSpaceOnUse" x1="32.0005" y1="62" x2="32.0005" y2="2">
	<stop  offset="0" style="stop-color:#1A1A1A"/>
	<stop  offset="0.102" style="stop-color:#393939;stop-opacity:0.949"/>
	<stop  offset="0.3475" style="stop-color:#7F7F7F;stop-opacity:0.8262"/>
	<stop  offset="0.5688" style="stop-color:#B6B6B6;stop-opacity:0.7156"/>
	<stop  offset="0.7582" style="stop-color:#DEDEDE;stop-opacity:0.6209"/>
	<stop  offset="0.9081" style="stop-color:#F6F6F6;stop-opacity:0.5459"/>
	<stop  offset="1" style="stop-color:#FFFFFF;stop-opacity:0.5"/>
</linearGradient>
<circle opacity="0.1" fill="url(#SVGID_1_)" cx="32" cy="32" r="30"/>
</svg>
