<?xml version="1.0" encoding="utf-8"?>
<!-- Generator: Adobe Illustrator 21.0.0, SVG Export Plug-In . SVG Version: 6.00 Build 0)  -->
<svg version="1.1" id="Layer_1" xmlns="http://www.w3.org/2000/svg" xmlns:xlink="http://www.w3.org/1999/xlink" x="0px" y="0px"
	 width="64px" height="64px" viewBox="0 0 64 64" enable-background="new 0 0 64 64" xml:space="preserve">
<path fill="#014D87" d="M32,2v30H2c0,16.57,13.43,30,30,30s30-13.43,30-30C62,15.43,48.57,2,32,2z"/>
<rect x="12" y="12" fill="#014D87" width="21" height="21"/>
<polygon fill="#F5F5F5" points="18.91,8.14 18.91,14 11.6,14 26,32 32,32 32,24.5 "/>
<path fill="#F5F5F5" d="M11,18.91H5.01C3.09,22.87,2,27.3,2,32h12V13.91h-3V18.91z"/>
<polygon fill="#E81C27" points="32,27.06 19,11 13,11 30,32 32,32 "/>
<path fill="#F5F5F5" d="M18.91,5.01V11H11v3h21V2C27.31,2,22.87,3.09,18.91,5.01z"/>
<path fill="#E81C27" d="M32,5H18.91C12.86,7.94,7.94,12.86,5,18.91V32h6V11h21V5z"/>
<path fill="#D8A322" d="M34.54,33.85L34.54,33.85L34.54,33.85z"/>
<path fill="#D8A322" d="M34.54,33.86l-0.04,0.08L34.54,33.86z"/>
<path fill="#D8A322" d="M34.54,33.85L34.54,33.85L34.54,33.85z"/>
<polygon fill="#F5F5F5" points="51.97,21.08 51.78,22.92 53.46,23.67 51.66,24.05 51.46,25.88 50.54,24.29 48.74,24.67 49.97,23.3 
	49.05,21.7 50.74,22.45 "/>
<polygon fill="#F5F5F5" points="56.43,24.32 55.51,25.92 56.74,27.29 54.94,26.91 54.02,28.51 53.82,26.67 52.02,26.29 53.71,25.54 
	53.51,23.71 54.75,25.07 "/>
<polygon fill="#F5F5F5" points="59.19,29.1 57.7,30.18 58.27,31.94 56.77,30.85 55.28,31.94 55.85,30.18 54.36,29.1 56.2,29.1 
	56.77,27.35 57.34,29.1 "/>
<polygon fill="#F5F5F5" points="59.76,34.58 57.96,34.97 57.77,36.8 56.85,35.2 55.04,35.59 56.28,34.22 55.35,32.62 57.04,33.37 
	58.27,32 58.08,33.83 "/>
<polygon fill="#F5F5F5" points="58.06,39.83 56.26,39.44 55.33,41.04 55.14,39.21 53.34,38.82 55.02,38.07 54.83,36.24 56.06,37.61 
	57.75,36.86 56.83,38.46 "/>
<polygon fill="#F5F5F5" points="54.37,43.93 52.88,42.84 51.39,43.93 51.96,42.17 50.46,41.09 52.31,41.09 52.88,39.33 53.45,41.09 
	55.29,41.09 53.8,42.17 "/>
<polygon fill="#F5F5F5" points="49.33,46.17 48.41,44.57 46.61,44.96 47.84,43.58 46.92,41.99 48.6,42.74 49.84,41.37 49.64,43.2 
	51.33,43.95 49.53,44.33 "/>
<polygon fill="#F5F5F5" points="43.82,46.17 43.63,44.33 41.82,43.95 43.51,43.2 43.31,41.37 44.55,42.74 46.23,41.99 45.31,43.58 
	46.54,44.95 44.74,44.57 "/>
<polygon fill="#F5F5F5" points="38.78,43.93 39.35,42.17 37.86,41.09 39.71,41.09 40.28,39.33 40.84,41.09 42.69,41.09 41.2,42.17 
	41.77,43.93 40.28,42.84 "/>
<polygon fill="#F5F5F5" points="35.09,39.83 36.33,38.46 35.4,36.86 37.09,37.61 38.32,36.24 38.13,38.07 39.82,38.82 38.01,39.21 
	37.82,41.04 36.9,39.44 "/>
<polygon fill="#F5F5F5" points="33.39,34.58 35.07,33.83 34.88,32 36.12,33.37 37.8,32.62 36.88,34.22 38.11,35.59 36.31,35.2 
	35.38,36.8 35.19,34.97 "/>
<polygon fill="#F5F5F5" points="33.96,29.1 35.81,29.1 36.38,27.35 36.95,29.1 38.79,29.1 37.3,30.18 37.87,31.94 36.38,30.85 
	34.89,31.94 35.46,30.18 "/>
<polygon fill="#F5F5F5" points="36.72,24.32 38.41,25.07 39.64,23.71 39.45,25.54 41.13,26.29 39.33,26.67 39.14,28.51 38.21,26.91 
	36.41,27.29 37.64,25.92 "/>
<polygon fill="#F5F5F5" points="41.18,21.08 42.42,22.45 44.1,21.7 43.18,23.3 44.41,24.67 42.61,24.29 41.69,25.88 41.49,24.05 
	39.69,23.67 41.38,22.92 "/>
<polygon fill="#F5F5F5" points="46.58,19.94 47.15,21.69 48.99,21.69 47.5,22.78 48.07,24.53 46.58,23.45 45.08,24.53 45.65,22.78 
	44.16,21.69 46.01,21.69 "/>
<linearGradient id="SVGID_1_" gradientUnits="userSpaceOnUse" x1="31.9981" y1="62" x2="31.9981" y2="2">
	<stop  offset="0" style="stop-color:#1A1A1A"/>
	<stop  offset="0.102" style="stop-color:#393939;stop-opacity:0.949"/>
	<stop  offset="0.3475" style="stop-color:#7F7F7F;stop-opacity:0.8262"/>
	<stop  offset="0.5688" style="stop-color:#B6B6B6;stop-opacity:0.7156"/>
	<stop  offset="0.7582" style="stop-color:#DEDEDE;stop-opacity:0.6209"/>
	<stop  offset="0.9081" style="stop-color:#F6F6F6;stop-opacity:0.5459"/>
	<stop  offset="1" style="stop-color:#FFFFFF;stop-opacity:0.5"/>
</linearGradient>
<circle opacity="0.1" fill="url(#SVGID_1_)" cx="32" cy="32" r="30"/>
</svg>
