<?xml version="1.0" encoding="utf-8"?>
<!-- Generator: Adobe Illustrator 21.0.0, SVG Export Plug-In . SVG Version: 6.00 Build 0)  -->
<svg version="1.1" id="Layer_1" xmlns="http://www.w3.org/2000/svg" xmlns:xlink="http://www.w3.org/1999/xlink" x="0px" y="0px"
	 width="64px" height="64px" viewBox="0 0 64 64" enable-background="new 0 0 64 64" xml:space="preserve">
<path fill="#F5F5F5" d="M61.72,28c-0.14-1.02-0.32-2.02-0.55-3H2.83c-0.23,0.98-0.41,1.98-0.55,3H61.72z"/>
<path fill="#F5F5F5" d="M2.28,36c0.14,1.02,0.32,2.02,0.55,3h58.34c0.23-0.98,0.41-1.98,0.55-3H2.28z"/>
<path fill="#F5F5F5" d="M20,4.49C18.97,4.94,17.97,5.44,17,6v52c0.97,0.56,1.97,1.06,3,1.51V4.49z"/>
<path fill="#F5F5F5" d="M28,2.26v59.47c0.99,0.13,1.98,0.23,3,0.26V2C29.98,2.03,28.99,2.13,28,2.26z"/>
<path fill="#014D87" d="M2,32c0,1.36,0.1,2.69,0.27,4h59.45C61.9,34.69,62,33.36,62,32c0-1.36-0.1-2.69-0.27-4H2.27
	C2.1,29.31,2,30.64,2,32z"/>
<path fill="#014D87" d="M20,59.5c2.51,1.1,5.19,1.86,8,2.23V2.27c-2.81,0.38-5.49,1.13-8,2.23V59.5z"/>
<path fill="#E81C27" d="M17,25V6.02C9.98,10.08,4.77,16.9,2.83,25H17z"/>
<path fill="#E81C27" d="M17,39.02V58C9.98,53.94,4.77,47.12,2.83,39.02H17z"/>
<path fill="#E81C27" d="M32,2c-0.34,0-0.67,0.01-1,0.03V25h30.17C58.02,11.81,46.16,2,32,2z"/>
<path fill="#E81C27" d="M31,39v22.97c0.33,0.01,0.66,0.03,1,0.03c14.16,0,26.02-9.81,29.17-23H31z"/>
<linearGradient id="SVGID_1_" gradientUnits="userSpaceOnUse" x1="32.0003" y1="62" x2="32.0003" y2="2">
	<stop  offset="0" style="stop-color:#1A1A1A"/>
	<stop  offset="0.102" style="stop-color:#393939;stop-opacity:0.949"/>
	<stop  offset="0.3475" style="stop-color:#7F7F7F;stop-opacity:0.8262"/>
	<stop  offset="0.5688" style="stop-color:#B6B6B6;stop-opacity:0.7156"/>
	<stop  offset="0.7582" style="stop-color:#DEDEDE;stop-opacity:0.6209"/>
	<stop  offset="0.9081" style="stop-color:#F6F6F6;stop-opacity:0.5459"/>
	<stop  offset="1" style="stop-color:#FFFFFF;stop-opacity:0.5"/>
</linearGradient>
<circle opacity="0.1" fill="url(#SVGID_1_)" cx="32" cy="32" r="30"/>
</svg>
