<?xml version="1.0" encoding="utf-8"?>
<!-- Generator: Adobe Illustrator 21.0.0, SVG Export Plug-In . SVG Version: 6.00 Build 0)  -->
<svg version="1.1" id="Layer_1" xmlns="http://www.w3.org/2000/svg" xmlns:xlink="http://www.w3.org/1999/xlink" x="0px" y="0px"
	 width="64px" height="64px" viewBox="0 0 64 64" enable-background="new 0 0 64 64" xml:space="preserve">
<path fill="#529320" d="M53.13,10.7c-11.7-11.6-30.56-11.6-42.26,0L32,26.95L53.13,10.7z"/>
<path fill="#529320" d="M10.87,53.3c11.7,11.6,30.56,11.6,42.26,0L32,37.05L10.87,53.3z"/>
<path fill="#302C3B" d="M58.01,46.96c5.32-9.23,5.32-20.69,0-29.92L38.56,32L58.01,46.96z"/>
<path fill="#302C3B" d="M5.99,17.04c-5.32,9.23-5.32,20.69,0,29.92L25.44,32L5.99,17.04z"/>
<path fill="#FFE12C" d="M53.13,10.7L32,26.95L10.87,10.7c-1.89,1.88-3.54,4.01-4.88,6.34L25.44,32L5.99,46.96
	c1.34,2.33,2.98,4.46,4.88,6.34L32,37.05L53.13,53.3c1.9-1.88,3.54-4.01,4.88-6.34L38.56,32l19.45-14.96
	C56.66,14.71,55.02,12.58,53.13,10.7z"/>
<linearGradient id="SVGID_1_" gradientUnits="userSpaceOnUse" x1="32.0002" y1="61.9999" x2="32.0002" y2="1.9999">
	<stop  offset="0" style="stop-color:#1A1A1A"/>
	<stop  offset="0.102" style="stop-color:#393939;stop-opacity:0.949"/>
	<stop  offset="0.3475" style="stop-color:#7F7F7F;stop-opacity:0.8262"/>
	<stop  offset="0.5688" style="stop-color:#B6B6B6;stop-opacity:0.7156"/>
	<stop  offset="0.7582" style="stop-color:#DEDEDE;stop-opacity:0.6209"/>
	<stop  offset="0.9081" style="stop-color:#F6F6F6;stop-opacity:0.5459"/>
	<stop  offset="1" style="stop-color:#FFFFFF;stop-opacity:0.5"/>
</linearGradient>
<circle opacity="0.1" fill="url(#SVGID_1_)" cx="32" cy="32" r="30"/>
</svg>
