<?xml version="1.0" encoding="utf-8"?>
<!-- Generator: Adobe Illustrator 21.0.0, SVG Export Plug-In . SVG Version: 6.00 Build 0)  -->
<svg version="1.1" id="Layer_1" xmlns="http://www.w3.org/2000/svg" xmlns:xlink="http://www.w3.org/1999/xlink" x="0px" y="0px"
	 width="64px" height="64px" viewBox="0 0 64 64" enable-background="new 0 0 64 64" xml:space="preserve">
<path fill="#F5F5F5" d="M2,32c0,11.51,6.49,21.5,16,26.53V5.47C8.49,10.5,2,20.49,2,32z"/>
<path fill="#FFE12C" d="M62,32c0-11.51-6.49-21.5-16-26.53v53.06C55.51,53.5,62,43.51,62,32z"/>
<path fill="#014D87" d="M32,2c-5.06,0-9.82,1.26-14,3.47v53.06C22.18,60.74,26.94,62,32,62c5.06,0,9.82-1.26,14-3.47V5.47
	C41.82,3.26,37.06,2,32,2z"/>
<path fill="#F5F5F5" d="M23.89,38.8 M36.17,26.63 M44.28,38.07c0.69-0.74,0.6-2.06-0.35-2.48c-0.2-0.08-0.54,0.17-0.61,0.35
	c-0.19,0.48,0.53,0.87,0.12,1.3s-0.5-0.3-0.6-0.53c-0.24-0.53-0.64-0.83-1.07-1.2c-0.86-0.74-1.33-1.86-1.32-2.98
	c0.01-1.43,0.32-3.48-1.48-3.98c-0.54-0.15-0.96-0.01-1.48-0.11c-0.79-0.29-0.99,0.4-0.9,1.09c-0.82-0.23-0.88,0.79-1.57,0.58
	c0.18-0.36,0.35-0.77,0.58-1.1c0.22,0.11,0.6-0.1,0.6-0.34c0-0.36,0.46-0.73,0.46-1.13c0-0.36-0.09-1.02-0.49-1.19
	c-0.15-0.71-1.27-0.82-1.85-0.86c-0.37-0.03-0.3,0.17-0.6-0.13c-0.2-0.19-0.78-0.23-1.03-0.21c0.15-1.08-1.52-1.08-1.37,0
	c-0.17-0.02-0.7,0.02-0.86,0.09c-0.42,0.19-0.25,0.4-0.69,0.24c-0.21,0.02-0.43-0.04-0.57,0.13c-0.33-0.12-1.13,0.22-1.29,0.55
	c-0.11,0.23-0.32,0.3-0.42,0.55c-0.08,0.23-0.01,0.38-0.09,0.59c-0.1,0.29,0.21,1.08,0.44,1.27c-0.12,0.35,0.23,0.42,0.49,0.44
	c0.26,0.02,0.57,0.9,0.67,1.1c-0.35,0-0.41,0.07-0.59-0.21c-0.23-0.36-0.6-0.47-1-0.37c0.11-0.85-0.21-1.34-1.03-1.04
	c-0.35,0.13-0.37-0.04-0.73-0.06c-0.33-0.02-0.83,0.17-1.1,0.33c-1.56,0.93-0.83,2.95-1.06,4.42c-0.09,0.6-0.32,1.18-0.67,1.67
	c-0.39,0.55-1,0.86-1.4,1.4c-0.12,0.17-0.43,1.12-0.59,1.12c-0.68,0-0.27-0.71-0.16-0.99c0.36-0.93-0.91-0.92-1.25-0.21
	c-0.57,1.22,0.51,2.76,1.89,2.3c0.02,0.3-0.04,0.62-0.36,0.74c-0.38,0.15-0.21,0.86-0.13,1.12c0.19,0.63,0.62,1.93,1.4,1.93
	c0.7,0,1.76-0.09,0.95-1.07c-0.33-0.4-1.04-0.4-0.77-1.12c0.2-0.52,0.9-0.63,1.14-1.19c0.35-0.79,0.33,0.23,0.22,0.19
	c-0.05,0.24,0.49,0.6,0.62,0.8c0.54,0.84,0.75,0.97,1.74,0.97c0.5,0,0.42-0.54,0.27-0.85c-0.21-0.44-1.06-0.57-1.06-1.02
	c0-0.45,0.42-0.64,0.29-1.15c-0.13-0.49-0.52-0.83-0.94-1.09c0.5-0.51,1.2-0.74,1.69-1.25c0.41-0.42,0.55-0.96,0.96-1.37
	c0,0.78,0,1.56,0,2.35c0,0.78-0.14,1.76,0.19,2.49c0.7,1.54,2.95,1.91,4.46,1.91c1.51,0,3.76-0.37,4.46-1.91
	c0.31-0.69,0.19-1.58,0.19-2.31c0-0.85,0-1.7,0-2.54c0.33,0,0.63,0.96,0.79,1.16c0.49,0.65,1.31,0.89,1.88,1.47
	c-0.61,0.37-1.42,1.26-0.75,1.96c0.46,0.52-0.39,0.69-0.64,0.89c-0.24,0.2-0.8,1.26-0.1,1.26c0.68,0.29,1.37-0.19,1.66-0.73
	c0.12-0.23,0.77-0.75,0.77-0.97c0-0.26-0.31-0.43,0.11-0.53c0.17,0.71,2.09,1.7,0.87,2.27c-0.35,0.16-0.96,0.89-0.57,1.29
	c0.2,0.2,0.74,0.1,0.98,0.1c0.92,0,1.08-0.93,1.41-1.63c0.14-0.29,0.38-1,0.14-1.32c-0.26-0.34-0.52-0.34-0.5-0.85
	C43.25,38.66,43.88,38.5,44.28,38.07C44.58,37.75,44.28,38.07,44.28,38.07z M44.28,35.74 M24.8,24.49c0.15,0.34,0.43,0.59,0.75,0.77
	c-0.16,0.17-1.14,0.72-0.3,0.91c0.43,0.1,0.89,0.08,1.32,0.04c0.47-0.04,3.79-0.98,3.12-1.82c1.53-0.2,3.05-0.2,4.58,0
	c-0.42,1.05,2.45,1.75,3.12,1.82c0.43,0.04,0.89,0.06,1.32-0.04c0.84-0.19-0.14-0.73-0.3-0.91c0.2-0.12,1.42-1.32,0.58-1.43
	c-0.25-0.03-0.51,0.13-0.78,0.11c-0.35-0.03-0.72-0.11-1.03-0.27c-0.69-0.34-0.47-1.22-1.25-1.54c-0.91-0.38-2.2-0.36-3.18-0.39
	c-1.12-0.04-2.25,0.01-3.36,0.15c-0.83,0.11-1.87,0.16-2.1,1.15c-0.15,0.67-0.89,0.86-1.53,0.91C25.4,23.98,24.29,23.7,24.8,24.49
	C24.96,24.83,24.8,24.49,24.8,24.49z"/>
<path fill="#4C86C7" d="M27.67,30.44h8.65v7.58c0,2.5-4.32,2.5-4.32,2.5s-4.32,0-4.32-2.5V30.44z"/>
<path fill="#F5F5F5" d="M31.41,32.78l-1.01-1.12c-0.18-0.2-0.46-0.2-0.64,0l-1.01,1.12L31.41,32.78L31.41,32.78z"/>
<path fill="#F5F5F5" d="M31.41,35.02l-1.01-1.12c-0.18-0.2-0.46-0.2-0.64,0l-1.01,1.12H31.41z"/>
<path fill="#F5F5F5" d="M31.41,37.29l-1.01-1.12c-0.18-0.2-0.46-0.2-0.64,0l-1.01,1.12H31.41z"/>
<path fill="#F5F5F5" d="M33.32,39.55l-1.01-1.12c-0.18-0.2-0.46-0.2-0.64,0l-1.01,1.12H33.32z"/>
<path fill="#F5F5F5" d="M35.25,32.78l-1.01-1.12c-0.18-0.2-0.46-0.2-0.64,0l-1.01,1.12L35.25,32.78L35.25,32.78z"/>
<path fill="#F5F5F5" d="M35.25,35.02l-1.01-1.12c-0.18-0.2-0.46-0.2-0.64,0l-1.01,1.12H35.25z"/>
<path fill="#F5F5F5" d="M35.25,37.29l-1.01-1.12c-0.18-0.2-0.46-0.2-0.64,0l-1.01,1.12H35.25z"/>
<path fill="#BCBCBC" d="M38.85,24.35l0.07-0.18c-0.17,0.08-0.37,0.11-0.57,0.12c-0.41,0.01-1.63-0.19-1.96-0.87l-0.03,0.02
	l0.02-0.11c0-0.46-0.33-0.85-0.77-0.94l-0.01,0c-1.17-0.21-2.37-0.33-3.6-0.33h-0.05c-1.23,0-2.43,0.11-3.6,0.33l-0.01,0
	c-0.44,0.09-0.77,0.47-0.77,0.94l0.02,0.1l-0.02-0.01c-0.34,0.68-1.55,0.88-1.96,0.87c-0.2,0-0.39-0.04-0.57-0.12l0.07,0.18
	c0.17,0.38,0.51,0.68,0.91,0.79c-0.13,0.41-0.43,0.56-0.75,0.69c0.35,0.11,2.64,0.3,4.13-1.22l0.04-0.01l-0.01-0.02l0,0l-0.01-0.01
	l-0.22-0.39l-0.03-0.07c0.91-0.14,1.84-0.23,2.79-0.23H32c0.96,0,1.89,0.09,2.8,0.23l-0.04,0.06h0l-0.22,0.39l-0.01,0.01l0,0
	l-0.01,0.02l0.04,0.01c1.49,1.52,3.77,1.33,4.13,1.22c-0.32-0.13-0.62-0.27-0.75-0.69C38.35,25.03,38.68,24.74,38.85,24.35z"/>
<path fill="#C09B5A" d="M26.71,32.9c0.34-0.38,0.36-1.07,0.47-1.54c0.16-0.69,0.44-0.92,1.07-0.92c0-0.94-0.93-0.58-1.25-0.09
	c-0.32,0.49-0.64,0.98-0.96,1.48c-0.01-0.31-0.03-0.62-0.03-0.93c0.39-0.36,0.96-0.62,1.07-1.19c0.04-0.24,0.19-0.81-0.04-0.99
	c-0.14-0.11-0.51,0.07-0.64,0.12c-0.38,0.13-0.36-0.08-0.73-0.08c-2.07,0-1.79,2.39-1.78,3.77c0.01,1.15-0.45,2.29-1.28,3.09
	c-0.33,0.32-0.71,0.54-0.97,0.92c-0.21,0.32-0.29,1.16-0.79,1.16c-0.58,0-0.89-0.66-0.67-1.15c0.34-0.72-0.22-0.84-0.49-0.14
	c-0.44,1.16,0.92,2.43,1.95,1.52c-0.06,0.52,0.16,1.07-0.33,1.46c-0.42,0.34-0.24,0.89,0.07,1.34c0.17,0.35,0.31,1.21,0.8,1.21
	c0.25,0.08,0.66,0,0.93,0c0-0.44-0.34-0.85-0.8-0.85c-0.33-0.28-0.35-0.85-0.17-1.21c0.06-0.13,1.65-1.57,1.28-1.64
	c0.24,0.05,0.65,0.07,0.76,0.35c0.1,0.27-0.05,0.29-0.08,0.52c0.2,0.1,0.36,0.3,0.48,0.48c0.21,0.29,0.36,0.93,0.8,0.93
	c0.22,0.07,0.56,0,0.79,0c0-0.9-1.51-0.82-1.12-1.81c0.13-0.34,0.46-0.53,0.22-0.95c-0.15-0.42-0.68-0.79-1.08-0.94
	c0.79-0.88,2.16-1.33,2.5-2.54c0.98-0.76,0.97-1.17,0.97-2.31c-0.29,0-0.41,0.25-0.43,0.49c-0.02,0.37-0.16,0.61-0.49,0.81
	C26.73,33.15,26.71,33.03,26.71,32.9z"/>
<path fill="#C09B5A" d="M44.04,35.97c-0.12-0.1-0.24-0.1-0.35,0c-0.2,0.21,0.05,0.41,0.14,0.58c0.23,0.49-0.09,1.15-0.67,1.15
	c-0.4,0-0.44-0.4-0.54-0.68c-0.16-0.45-0.45-0.75-0.8-1.06c-1.52-1.1-1.7-2.77-1.69-4.49c0-0.64,0.08-1.31-0.28-1.88
	c-0.22-0.35-0.56-0.62-0.96-0.73c-0.17-0.05-0.36-0.11-0.54-0.11c-0.21,0-0.35,0.23-0.54,0.15c-0.2-0.08-0.79-0.41-0.9-0.09
	c-0.11,0.31-0.03,0.85,0.11,1.14c0.2,0.41,0.66,0.63,0.98,0.93c0,0.31-0.02,0.62-0.03,0.93c-0.29-0.45-0.58-0.9-0.87-1.35
	c-0.08-0.13-0.16-0.31-0.27-0.41c-0.34-0.51-1.07-0.2-1.07,0.36c0.63,0,0.91,0.23,1.07,0.92c0.13,0.55,0.52,1.39,0.43,1.92
	c-0.33-0.2-0.47-0.44-0.49-0.81c-0.01-0.24-0.14-0.49-0.43-0.49c0,1.14-0.02,1.55,0.96,2.31c0.34,1.21,1.71,1.66,2.5,2.54
	c-0.45,0.18-0.83,0.51-1.07,0.93c-0.18,0.48,0.07,0.57,0.22,0.96c0.38,1-1.13,0.91-1.13,1.81c0.83,0,1.02,0.02,1.46-0.72
	c0.13-0.21,0.27-0.42,0.46-0.59c0.29-0.25,0.04-0.1,0.04-0.4c0-0.47,0.42-0.52,0.8-0.59c0.06-0.01,0.18,0.58,0.26,0.7
	c0.23,0.36,0.64,0.43,0.89,0.74c0.33,0.41,0.32,1.03-0.04,1.42c-0.35,0.3-0.8,0.18-0.8,0.85c0.27,0,0.67,0.08,0.93,0
	c0.49,0,0.63-0.87,0.8-1.21c0.3-0.45,0.48-1,0.06-1.34c-0.49-0.4-0.26-0.94-0.33-1.46C43.58,39.02,45.08,37.08,44.04,35.97
	C43.94,35.87,44.52,36.48,44.04,35.97z"/>
<path fill="#E81C27" d="M32.01,26.78c1.03,0,3.12,0.26,3.88,1.04c-0.8,2.13-2.12,1.26-3.86,1.26c-1.75,0-3.07,0.88-3.87-1.26
	C28.91,27.04,30.98,26.78,32.01,26.78C32.52,26.78,31.49,26.78,32.01,26.78z"/>
<path fill="#C8B100" d="M34.7,29.14c-0.67-0.41-1.61-0.5-2.65-0.5c-1.04,0-1.97,0.09-2.65,0.5l0.24,1c0.61,0.2,1.46,0.32,2.41,0.33
	c0.95,0,1.8-0.13,2.41-0.33L34.7,29.14z"/>
<path fill="#C8B100" d="M35.6,26.64c-0.21-0.2-0.62-0.33-1.04-0.33c-0.17,0-0.33,0.02-0.47,0.06c0.02,0.03-0.3-0.49-1.05-0.49
	c-0.27,0-0.51,0.07-0.7,0.19l0-0.04c-0.03-0.13-0.14-0.23-0.28-0.23c-0.14,0-0.26,0.1-0.29,0.23l0,0.04
	c-0.19-0.12-0.43-0.19-0.7-0.19c-0.74,0-1.08,0.52-1.05,0.49c-0.15-0.04-0.31-0.06-0.48-0.06c-2.49,0-1.21,1.84-1.21,1.84l0.2-0.37
	c-0.58-0.83-0.08-1.33,1.01-1.33c0.14,0,0.27,0.01,0.39,0.04c-0.37,0.61,0.32,1.12,0.32,1.12l0.16-0.29
	c-0.39-0.27-0.42-1.3,0.66-1.3c0.27,0,0.51,0.08,0.68,0.21c-0.01,0.06-0.06,0.86-0.11,1.02l0.42,0.44l0.41-0.44
	c-0.05-0.16-0.11-0.96-0.11-1.02c0.17-0.13,0.41-0.21,0.68-0.21c1.11,0,1.15,1.02,0.65,1.3l0.16,0.29c0,0,0.59-0.51,0.32-1.12
	c0.12-0.03,0.25-0.04,0.39-0.04c1.29,0.02,1.38,1.05,1.01,1.33l0.21,0.37C35.77,28.15,36.33,27.33,35.6,26.64z"/>
<path fill="#005BBF" d="M31.7,25.46c0-0.2,0.15-0.36,0.34-0.36c0.19,0,0.34,0.16,0.34,0.36c0,0.2-0.15,0.36-0.34,0.36
	C31.85,25.82,31.7,25.66,31.7,25.46"/>
<polygon fill="#C8B100" points="31.95,24.47 31.95,24.66 31.76,24.66 31.76,24.85 31.95,24.85 31.95,25.12 31.95,25.42 31.71,25.42 
	31.7,25.47 31.72,25.61 31.72,25.61 32.35,25.61 32.36,25.61 32.38,25.47 32.37,25.42 32.14,25.42 32.14,25.12 32.14,24.85 
	32.33,24.85 32.33,24.66 32.14,24.66 32.14,24.47 "/>
<path fill="#E81C27" d="M32.04,30.33c-0.86,0-1.63-0.11-2.22-0.28c0.59-0.17,1.37-0.27,2.22-0.27c0.86,0,1.64,0.1,2.23,0.27
	C33.68,30.22,32.9,30.33,32.04,30.33"/>
<linearGradient id="SVGID_1_" gradientUnits="userSpaceOnUse" x1="32" y1="62" x2="32" y2="2">
	<stop  offset="0" style="stop-color:#1A1A1A"/>
	<stop  offset="0.102" style="stop-color:#393939;stop-opacity:0.949"/>
	<stop  offset="0.3475" style="stop-color:#7F7F7F;stop-opacity:0.8262"/>
	<stop  offset="0.5688" style="stop-color:#B6B6B6;stop-opacity:0.7156"/>
	<stop  offset="0.7582" style="stop-color:#DEDEDE;stop-opacity:0.6209"/>
	<stop  offset="0.9081" style="stop-color:#F6F6F6;stop-opacity:0.5459"/>
	<stop  offset="1" style="stop-color:#FFFFFF;stop-opacity:0.5"/>
</linearGradient>
<circle opacity="0.1" fill="url(#SVGID_1_)" cx="32" cy="32" r="30"/>
</svg>
