<?xml version="1.0" encoding="utf-8"?>
<!-- Generator: Adobe Illustrator 21.0.0, SVG Export Plug-In . SVG Version: 6.00 Build 0)  -->
<svg version="1.1" id="Layer_1" xmlns="http://www.w3.org/2000/svg" xmlns:xlink="http://www.w3.org/1999/xlink" x="0px" y="0px"
	 width="64px" height="64px" viewBox="0 0 64 64" enable-background="new 0 0 64 64" xml:space="preserve">
<path fill="#018BC9" d="M59.5,44v-4h1.4c0.71-2.55,1.1-5.23,1.1-8C62,15.43,48.57,2,32,2C15.43,2,2,15.43,2,32
	c0,2.77,0.38,5.45,1.09,8H4.5v4c0.94,2.14,2.13,4.15,3.52,6h3.59v3.98C16.96,58.95,24.12,62,32,62c7.88,0,15.04-3.04,20.39-8v-4H56
	C57.39,48.15,58.56,46.14,59.5,44L59.5,44z"/>
<path fill="#FFE12C" d="M4.5,44H59.5c0.56-1.29,1.04-2.63,1.42-4H3.09C3.47,41.38,3.94,42.71,4.5,44z"/>
<path fill="#FFE12C" d="M8,50c1.08,1.44,2.29,2.78,3.61,4h40.78c1.32-1.22,2.53-2.56,3.61-4H8z"/>
<path fill="#F5F5F5" d="M22,33.71l-3.73-9.98L8.29,20l9.98-3.73L22,6.29l3.73,9.98L35.71,20l-9.98,3.73L22,33.71z"/>
<polygon fill="#E81C27" points="19.82,17.82 22,12 24.18,17.82 30,20 24.18,22.18 22,28 19.82,22.18 14,20 "/>
<linearGradient id="SVGID_1_" gradientUnits="userSpaceOnUse" x1="32" y1="62" x2="32" y2="2">
	<stop  offset="0" style="stop-color:#1A1A1A"/>
	<stop  offset="0.102" style="stop-color:#393939;stop-opacity:0.949"/>
	<stop  offset="0.3475" style="stop-color:#7F7F7F;stop-opacity:0.8262"/>
	<stop  offset="0.5688" style="stop-color:#B6B6B6;stop-opacity:0.7156"/>
	<stop  offset="0.7582" style="stop-color:#DEDEDE;stop-opacity:0.6209"/>
	<stop  offset="0.9081" style="stop-color:#F6F6F6;stop-opacity:0.5459"/>
	<stop  offset="1" style="stop-color:#FFFFFF;stop-opacity:0.5"/>
</linearGradient>
<circle opacity="0.1" fill="url(#SVGID_1_)" cx="32" cy="32" r="30"/>
</svg>
