<?xml version="1.0" encoding="utf-8"?>
<!-- Generator: Adobe Illustrator 15.0.0, SVG Export Plug-In . SVG Version: 6.00 Build 0)  -->
<!DOCTYPE svg PUBLIC "-//W3C//DTD SVG 1.1//EN" "http://www.w3.org/Graphics/SVG/1.1/DTD/svg11.dtd" [
	<!ENTITY ns_flows "http://ns.adobe.com/Flows/1.0/">
	<!ENTITY ns_extend "http://ns.adobe.com/Extensibility/1.0/">
	<!ENTITY ns_ai "http://ns.adobe.com/AdobeIllustrator/10.0/">
	<!ENTITY ns_graphs "http://ns.adobe.com/Graphs/1.0/">
]>
<svg version="1.1" id="Layer_1" xmlns:x="&ns_extend;" xmlns:i="&ns_ai;" xmlns:graph="&ns_graphs;"
	 xmlns="http://www.w3.org/2000/svg" xmlns:xlink="http://www.w3.org/1999/xlink" xmlns:a="http://ns.adobe.com/AdobeSVGViewerExtensions/3.0/"
	 x="0px" y="0px" width="64px" height="64px" viewBox="0 0 64 64" enable-background="new 0 0 64 64" xml:space="preserve">
<path fill="#529320" d="M32,2C18.939,2,7.833,10.35,3.714,22h56.572C56.167,10.35,45.061,2,32,2z"/>
<path fill="#E81C27" d="M32,62c13.061,0,24.167-8.35,28.286-20H3.714C7.833,53.65,18.939,62,32,62z"/>
<path fill="#F5F5F5" d="M3.714,22C2.607,25.129,2,28.492,2,32s0.607,6.871,1.714,10h56.572C61.393,38.871,62,35.508,62,32
	s-0.607-6.871-1.714-10H3.714z"/>
<path fill="#E81C27" d="M36.508,33.882c0.853-2.623,0.047-5.501-2.044-7.3c2.271,3.361,1.452,7.9-1.806,10.266l0.227-5.601v-4.408
	c-0.353-0.169-0.656-0.425-0.885-0.743c-0.229,0.318-0.532,0.574-0.885,0.743v4.408l0.227,5.601
	c-3.258-2.365-4.077-6.904-1.807-10.266c-2.09,1.799-2.896,4.677-2.043,7.3c0.574,1.771,1.804,3.144,3.332,3.944
	c-0.934,0.341-1.931,0.496-2.936,0.447c1.18,0.383,2.387,0.427,3.518,0.188l0.01,0.236L32,39.5l0.584-0.803l0.01-0.236
	c1.131,0.239,2.338,0.195,3.518-0.188c-1.005,0.049-2.002-0.106-2.936-0.447C34.704,37.025,35.934,35.652,36.508,33.882z"/>
<path fill="#E81C27" d="M38.73,29.133c-0.775-1.343-2.063-2.313-3.568-2.69c3.311,2.489,3.977,7.191,1.488,10.502
	c-0.004,0.006-0.009,0.011-0.013,0.017C39.377,35.377,40.314,31.873,38.73,29.133z"/>
<path fill="#E81C27" d="M28.838,26.442c-1.505,0.377-2.793,1.348-3.569,2.69c-1.583,2.74-0.646,6.244,2.093,7.828
	c-0.004-0.006-0.008-0.011-0.013-0.017C24.861,33.634,25.527,28.932,28.838,26.442z"/>
<path fill="#E81C27" d="M30.492,26.028c0.488,0.344,1.164,0.227,1.508-0.263c0.344,0.489,1.02,0.606,1.508,0.263
	c0.41-0.288,0.568-0.82,0.383-1.286c-0.105,0.556-0.641,0.921-1.195,0.815c-0.293-0.055-0.547-0.234-0.695-0.492
	c-0.148,0.258-0.402,0.438-0.695,0.492c-0.555,0.105-1.09-0.26-1.195-0.815C29.924,25.208,30.082,25.74,30.492,26.028z"/>
<rect x="4.233" y="21.834" fill="#F5F5F5" width="4.2" height="0.333"/>
<rect x="4.233" y="41.834" fill="#F5F5F5" width="4.2" height="0.333"/>
<polygon fill="#F5F5F5" points="13.633,21 14.967,21 14.967,20.667 13.967,20.667 13.967,20.066 15.5,20.066 15.5,21 17.7,21 
	17.7,18.733 17.367,18.733 17.367,20.667 16.767,20.667 16.767,18.733 16.433,18.733 16.433,20.667 15.833,20.667 15.833,18.733 
	15.5,18.733 15.5,19.733 13.633,19.733 "/>
<rect x="9.833" y="20.667" fill="#F5F5F5" width="0.466" height="0.333"/>
<rect x="8.9" y="18.8" fill="#F5F5F5" width="6.067" height="0.334"/>
<polygon fill="#F5F5F5" points="13.033,21 13.033,19.733 11.7,19.733 11.7,20.066 12.7,20.066 12.7,20.667 11.167,20.667 
	11.167,19.733 8.967,19.733 8.967,21.066 9.3,21.066 9.3,20.066 10.833,20.066 10.833,21 "/>
<rect x="8.9" y="21.834" fill="#F5F5F5" width="4.2" height="0.333"/>
<rect x="13.566" y="21.834" fill="#F5F5F5" width="4.2" height="0.333"/>
<rect x="8.9" y="41.834" fill="#F5F5F5" width="4.2" height="0.333"/>
<rect x="13.566" y="41.834" fill="#F5F5F5" width="4.2" height="0.333"/>
<rect x="8.9" y="43" fill="#F5F5F5" width="6.067" height="0.334"/>
<rect x="9.833" y="44.867" fill="#F5F5F5" width="0.466" height="0.334"/>
<polygon fill="#F5F5F5" points="17.367,44.867 16.767,44.867 16.767,42.934 16.433,42.934 16.433,44.867 15.833,44.867 
	15.833,42.934 15.5,42.934 15.5,43.934 13.633,43.934 13.633,45.201 14.967,45.201 14.967,44.867 13.967,44.867 13.967,44.268 
	15.5,44.268 15.5,45.201 17.7,45.201 17.7,42.934 17.367,42.934 "/>
<polygon fill="#F5F5F5" points="11.7,44.268 12.7,44.268 12.7,44.867 11.167,44.867 11.167,43.934 8.967,43.934 8.967,45.268 
	9.3,45.268 9.3,44.268 10.833,44.268 10.833,45.201 13.033,45.201 13.033,43.934 11.7,43.934 "/>
<rect x="19.167" y="20.667" fill="#F5F5F5" width="0.467" height="0.333"/>
<polygon fill="#F5F5F5" points="22.967,21 24.3,21 24.3,20.667 23.3,20.667 23.3,20.066 24.833,20.066 24.833,21 27.033,21 
	27.033,18.733 26.7,18.733 26.7,20.667 26.1,20.667 26.1,18.733 25.767,18.733 25.767,20.667 25.167,20.667 25.167,18.733 
	24.833,18.733 24.833,19.733 22.967,19.733 "/>
<polygon fill="#F5F5F5" points="22.367,21 22.367,19.733 21.033,19.733 21.033,20.066 22.033,20.066 22.033,20.667 20.5,20.667 
	20.5,19.733 18.3,19.733 18.3,21.066 18.633,21.066 18.633,20.066 20.167,20.066 20.167,21 "/>
<rect x="18.233" y="18.8" fill="#F5F5F5" width="6.066" height="0.334"/>
<rect x="22.9" y="21.834" fill="#F5F5F5" width="4.2" height="0.333"/>
<rect x="18.233" y="21.834" fill="#F5F5F5" width="4.2" height="0.333"/>
<rect x="22.9" y="41.834" fill="#F5F5F5" width="4.2" height="0.333"/>
<rect x="18.233" y="41.834" fill="#F5F5F5" width="4.2" height="0.333"/>
<rect x="18.233" y="43" fill="#F5F5F5" width="6.066" height="0.334"/>
<rect x="19.167" y="44.867" fill="#F5F5F5" width="0.467" height="0.334"/>
<polygon fill="#F5F5F5" points="21.033,44.268 22.033,44.268 22.033,44.867 20.5,44.867 20.5,43.934 18.3,43.934 18.3,45.268 
	18.633,45.268 18.633,44.268 20.167,44.268 20.167,45.201 22.367,45.201 22.367,43.934 21.033,43.934 "/>
<polygon fill="#F5F5F5" points="26.7,44.867 26.1,44.867 26.1,42.934 25.767,42.934 25.767,44.867 25.167,44.867 25.167,42.934 
	24.833,42.934 24.833,43.934 22.967,43.934 22.967,45.201 24.3,45.201 24.3,44.867 23.3,44.867 23.3,44.268 24.833,44.268 
	24.833,45.201 27.033,45.201 27.033,42.934 26.7,42.934 "/>
<rect x="28.5" y="20.667" fill="#F5F5F5" width="0.467" height="0.333"/>
<rect x="27.566" y="18.8" fill="#F5F5F5" width="6.066" height="0.334"/>
<polygon fill="#F5F5F5" points="31.7,21 31.7,19.733 30.367,19.733 30.367,20.066 31.367,20.066 31.367,20.667 29.834,20.667 
	29.834,19.733 27.633,19.733 27.633,21.066 27.967,21.066 27.967,20.066 29.5,20.066 29.5,21 "/>
<polygon fill="#F5F5F5" points="32.3,21 33.633,21 33.633,20.667 32.633,20.667 32.633,20.066 34.166,20.066 34.166,21 36.367,21 
	36.367,18.733 36.033,18.733 36.033,20.667 35.434,20.667 35.434,18.733 35.1,18.733 35.1,20.667 34.5,20.667 34.5,18.733 
	34.166,18.733 34.166,19.733 32.3,19.733 "/>
<rect x="27.566" y="21.834" fill="#F5F5F5" width="4.2" height="0.333"/>
<rect x="32.233" y="21.834" fill="#F5F5F5" width="4.2" height="0.333"/>
<rect x="27.566" y="41.834" fill="#F5F5F5" width="4.2" height="0.333"/>
<rect x="32.233" y="41.834" fill="#F5F5F5" width="4.2" height="0.333"/>
<polygon fill="#F5F5F5" points="36.033,44.867 35.434,44.867 35.434,42.934 35.1,42.934 35.1,44.867 34.5,44.867 34.5,42.934 
	34.166,42.934 34.166,43.934 32.3,43.934 32.3,45.201 33.633,45.201 33.633,44.867 32.633,44.867 32.633,44.268 34.166,44.268 
	34.166,45.201 36.367,45.201 36.367,42.934 36.033,42.934 "/>
<rect x="28.5" y="44.867" fill="#F5F5F5" width="0.467" height="0.334"/>
<rect x="27.566" y="43" fill="#F5F5F5" width="6.066" height="0.334"/>
<polygon fill="#F5F5F5" points="30.367,44.268 31.367,44.268 31.367,44.867 29.834,44.867 29.834,43.934 27.633,43.934 
	27.633,45.268 27.967,45.268 27.967,44.268 29.5,44.268 29.5,45.201 31.7,45.201 31.7,43.934 30.367,43.934 "/>
<polygon fill="#F5F5F5" points="41.633,21 42.967,21 42.967,20.667 41.967,20.667 41.967,20.066 43.5,20.066 43.5,21 45.7,21 
	45.7,18.733 45.367,18.733 45.367,20.667 44.767,20.667 44.767,18.733 44.434,18.733 44.434,20.667 43.834,20.667 43.834,18.733 
	43.5,18.733 43.5,19.733 41.633,19.733 "/>
<rect x="36.9" y="18.8" fill="#F5F5F5" width="6.066" height="0.334"/>
<polygon fill="#F5F5F5" points="41.033,21 41.033,19.733 39.7,19.733 39.7,20.066 40.7,20.066 40.7,20.667 39.166,20.667 
	39.166,19.733 36.967,19.733 36.967,21.066 37.3,21.066 37.3,20.066 38.834,20.066 38.834,21 "/>
<rect x="37.834" y="20.667" fill="#F5F5F5" width="0.466" height="0.333"/>
<rect x="41.566" y="21.834" fill="#F5F5F5" width="4.2" height="0.333"/>
<rect x="36.9" y="21.834" fill="#F5F5F5" width="4.199" height="0.333"/>
<rect x="41.566" y="41.834" fill="#F5F5F5" width="4.2" height="0.333"/>
<rect x="36.9" y="41.834" fill="#F5F5F5" width="4.199" height="0.333"/>
<polygon fill="#F5F5F5" points="45.367,44.867 44.767,44.867 44.767,42.934 44.434,42.934 44.434,44.867 43.834,44.867 
	43.834,42.934 43.5,42.934 43.5,43.934 41.633,43.934 41.633,45.201 42.967,45.201 42.967,44.867 41.967,44.867 41.967,44.268 
	43.5,44.268 43.5,45.201 45.7,45.201 45.7,42.934 45.367,42.934 "/>
<rect x="36.9" y="43" fill="#F5F5F5" width="6.066" height="0.334"/>
<polygon fill="#F5F5F5" points="39.7,44.268 40.7,44.268 40.7,44.867 39.166,44.867 39.166,43.934 36.967,43.934 36.967,45.268 
	37.3,45.268 37.3,44.268 38.834,44.268 38.834,45.201 41.033,45.201 41.033,43.934 39.7,43.934 "/>
<rect x="37.834" y="44.867" fill="#F5F5F5" width="0.466" height="0.334"/>
<rect x="47.166" y="20.667" fill="#F5F5F5" width="0.467" height="0.333"/>
<rect x="46.233" y="18.8" fill="#F5F5F5" width="6.066" height="0.334"/>
<polygon fill="#F5F5F5" points="50.367,21 50.367,19.733 49.033,19.733 49.033,20.066 50.033,20.066 50.033,20.667 48.5,20.667 
	48.5,19.733 46.3,19.733 46.3,21.066 46.633,21.066 46.633,20.066 48.166,20.066 48.166,21 "/>
<polygon fill="#F5F5F5" points="50.967,21 52.3,21 52.3,20.667 51.3,20.667 51.3,20.066 52.834,20.066 52.834,21 55.033,21 
	55.033,18.733 54.7,18.733 54.7,20.667 54.1,20.667 54.1,18.733 53.767,18.733 53.767,20.667 53.166,20.667 53.166,18.733 
	52.834,18.733 52.834,19.733 50.967,19.733 "/>
<rect x="46.233" y="21.834" fill="#F5F5F5" width="4.2" height="0.333"/>
<rect x="50.9" y="21.834" fill="#F5F5F5" width="4.199" height="0.333"/>
<rect x="50.9" y="41.834" fill="#F5F5F5" width="4.199" height="0.333"/>
<rect x="46.233" y="41.834" fill="#F5F5F5" width="4.2" height="0.333"/>
<polygon fill="#F5F5F5" points="54.7,44.867 54.1,44.867 54.1,42.934 53.767,42.934 53.767,44.867 53.166,44.867 53.166,42.934 
	52.834,42.934 52.834,43.934 50.967,43.934 50.967,45.201 52.3,45.201 52.3,44.867 51.3,44.867 51.3,44.268 52.834,44.268 
	52.834,45.201 55.033,45.201 55.033,42.934 54.7,42.934 "/>
<polygon fill="#F5F5F5" points="49.033,44.268 50.033,44.268 50.033,44.867 48.5,44.867 48.5,43.934 46.3,43.934 46.3,45.268 
	46.633,45.268 46.633,44.268 48.166,44.268 48.166,45.201 50.367,45.201 50.367,43.934 49.033,43.934 "/>
<rect x="46.233" y="43" fill="#F5F5F5" width="6.066" height="0.334"/>
<rect x="47.166" y="44.867" fill="#F5F5F5" width="0.467" height="0.334"/>
<rect x="56.5" y="20.667" fill="#F5F5F5" width="0.467" height="0.333"/>
<rect x="55.566" y="21.834" fill="#F5F5F5" width="4.2" height="0.333"/>
<rect x="55.566" y="41.834" fill="#F5F5F5" width="4.2" height="0.333"/>
<rect x="56.5" y="44.867" fill="#F5F5F5" width="0.467" height="0.334"/>
<path fill="#F5F5F5" d="M5.633,18.8H5.055C5,18.911,4.946,19.021,4.893,19.134h0.74V18.8z"/>
<path fill="#F5F5F5" d="M6.167,21h2.2v-2.267H8.033v1.934h-0.6v-1.934H7.1v1.934H6.5v-1.934H6.167v1H4.615
	c-0.049,0.11-0.098,0.223-0.146,0.333h1.697V21z"/>
<path fill="#F5F5F5" d="M5.633,20.667H4.217C4.171,20.778,4.125,20.889,4.081,21h1.553V20.667z"/>
<path fill="#F5F5F5" d="M5.633,43H4.081c0.044,0.112,0.091,0.223,0.136,0.334h1.417V43z"/>
<path fill="#F5F5F5" d="M8.033,44.867h-0.6v-1.934H7.1v1.934H6.5v-1.934H6.167v1H4.469c0.048,0.111,0.097,0.223,0.146,0.334h1.551
	v0.934h2.2v-2.268H8.033V44.867z"/>
<path fill="#F5F5F5" d="M5.055,45.201h0.579v-0.334h-0.74C4.946,44.979,5,45.09,5.055,45.201z"/>
<path fill="#F5F5F5" d="M58.945,18.8h-3.379v0.334h3.541C59.054,19.021,59,18.911,58.945,18.8z"/>
<path fill="#F5F5F5" d="M57.834,19.733h-2.201v1.333h0.334v-1H57.5V21h2.42c-0.045-0.111-0.092-0.222-0.137-0.333h-1.949V19.733z"/>
<path fill="#F5F5F5" d="M58.367,20.066h1.163c-0.048-0.11-0.097-0.223-0.146-0.333h-1.018V20.066z"/>
<path fill="#F5F5F5" d="M58.367,44.268h1.018c0.049-0.111,0.098-0.223,0.146-0.334h-1.163V44.268z"/>
<path fill="#F5F5F5" d="M57.834,43.934h-2.201v1.334h0.334v-1H57.5v0.934h1.445c0.055-0.111,0.108-0.223,0.162-0.334h-1.273V43.934z
	"/>
<path fill="#F5F5F5" d="M55.566,43.334h4.217c0.045-0.111,0.092-0.222,0.137-0.334h-4.354V43.334z"/>
<linearGradient id="SVGID_1_" gradientUnits="userSpaceOnUse" x1="32.0005" y1="62" x2="32.0005" y2="2.0005">
	<stop  offset="0" style="stop-color:#1A1A1A"/>
	<stop  offset="0.102" style="stop-color:#393939;stop-opacity:0.949"/>
	<stop  offset="0.3475" style="stop-color:#7F7F7F;stop-opacity:0.8262"/>
	<stop  offset="0.5688" style="stop-color:#B6B6B6;stop-opacity:0.7156"/>
	<stop  offset="0.7582" style="stop-color:#DEDEDE;stop-opacity:0.6209"/>
	<stop  offset="0.9081" style="stop-color:#F6F6F6;stop-opacity:0.5459"/>
	<stop  offset="1" style="stop-color:#FFFFFF;stop-opacity:0.5"/>
	<a:midPointStop  offset="0" style="stop-color:#1A1A1A"/>
	<a:midPointStop  offset="0.4" style="stop-color:#1A1A1A"/>
	<a:midPointStop  offset="1" style="stop-color:#FFFFFF;stop-opacity:0.5"/>
</linearGradient>
<circle opacity="0.1" fill="url(#SVGID_1_)" cx="32" cy="32" r="30"/>
</svg>
