<?xml version="1.0" encoding="utf-8"?>
<!-- Generator: Adobe Illustrator 21.0.0, SVG Export Plug-In . SVG Version: 6.00 Build 0)  -->
<svg version="1.1" id="Layer_1" xmlns="http://www.w3.org/2000/svg" xmlns:xlink="http://www.w3.org/1999/xlink" x="0px" y="0px"
	 width="64px" height="64px" viewBox="0 0 64 64" enable-background="new 0 0 64 64" xml:space="preserve">
<path fill="#F5F5F5" d="M55.23,13.01h-4.24V8.77c-11.02-9.03-26.96-9.03-37.97,0h0v4.24H8.77c-9.03,11.02-9.03,26.96,0,37.97h4.24
	v4.24h0c11.02,9.03,26.96,9.03,37.97,0v-4.24h4.24C64.26,39.97,64.26,24.03,55.23,13.01z"/>
<path fill="#E81C27" d="M32,27.76L13.01,8.77c-0.77,0.63-1.51,1.3-2.23,2.01c-0.72,0.72-1.39,1.46-2.02,2.23L27.76,32L8.77,50.99
	c0.63,0.77,1.3,1.51,2.02,2.23c0.72,0.71,1.46,1.39,2.23,2.02L32,36.24l18.99,18.99c0.77-0.63,1.51-1.3,2.23-2.02
	c0.72-0.72,1.39-1.46,2.02-2.23L36.24,32l18.99-18.99c-0.63-0.77-1.3-1.51-2.02-2.23c-0.72-0.71-1.46-1.39-2.23-2.01L32,27.76z"/>
<path fill="#E81C27" d="M37.11,10.66c1.25,5.08,0.57,11.36-5.1,14.84c-5.67-3.48-6.36-9.76-5.1-14.84
	C28.24,9.45,34.31,8.7,37.11,10.66L37.11,10.66z"/>
<path fill="#FFE12C" d="M36.95,13.18c-0.05-0.13-0.08-0.18-0.24-0.12c-0.4,0.14-1.48,0.06-1.83-0.18c0.52,0.21,1.18-0.24,1.18-0.62
	c0-0.42-0.51-0.76-1.55-0.53c-1.04,0.23-2.31,0.13-2.31-0.22c0-0.35,0.91-0.39,1.38-0.32c0.46,0.07,0.8,0.12,1.67-0.19
	c-0.21,0.08-0.91,0.11-1.46-0.05c-0.55-0.15-1.9-0.15-1.91,0.57c-0.01,0.73,1.44,0.66,2.69,0.48c0.73-0.11,1.11-0.04,1.11,0.2
	c0,0.23-0.67,0.32-1.18,0.26c-0.51-0.06-1.05-0.07-1.65,0.13c-1.09,0.36-2.34,0.1-2.67-0.43c0.02-0.05,0.04-0.12,0.04-0.23
	c0,0,0,0,0-0.01c0.08-0.08,0.15-0.23,0.18-0.34c0.07-0.26-0.03-0.27-0.33-0.15c-0.1-0.1-0.28-0.17-0.57-0.17
	c-0.29,0-0.46,0.06-0.57,0.17c-0.3-0.12-0.4-0.11-0.33,0.15c0.03,0.11,0.11,0.27,0.19,0.35c0,0,0,0,0,0c0,0.4,0.44,0.99,0.43,1.02
	c-0.57-0.05-1.32-1.13-1.46-1.57c-0.06-0.2-0.29-0.32-0.42-0.28c-0.11,0.04-0.16,0.14-0.06,0.21c0.1,0.07,0.22,0.08,0.25,0.27
	c-0.13-0.15-0.31-0.21-0.41-0.11c-0.06,0.06-0.03,0.19,0.09,0.2c0.17,0.02,0.08,0.17,0.21,0.33c-0.17-0.16-0.31-0.17-0.41-0.06
	c-0.06,0.07,0,0.2,0.13,0.18c0.19-0.02,0.81,0.9,2.32,1.73c-0.02,0.12-0.26,0.09-0.45,0.1c-0.35,0.02-0.82-0.04-1.07-0.32
	c-0.22-0.25-0.51-0.45-0.74-0.26c-0.12,0.09-0.01,0.22,0.09,0.18c0.09-0.04,0.2,0.03,0.3,0.08c-0.16-0.07-0.33-0.02-0.4,0.05
	c-0.09,0.08,0.02,0.25,0.13,0.19c0.09-0.04,0.27-0.07,0.39,0.04c-0.13-0.03-0.26-0.02-0.33,0.05c-0.06,0.07-0.01,0.17,0.12,0.16
	c0.22-0.01,1.83,1.01,3.14-0.17c0.19,0.01,1.52-0.04,2.04-0.36c0.34,0.39,0.4,0.35,0.7,0.41c0.31,0.06,0.5,0.06,0.29,0.23
	c-0.07,0.06-0.37,0.03-0.6,0.04c-0.52,0.02-0.76-0.36-0.91-0.16c-0.12,0.15-0.02,0.22,0.2,0.23c-0.17,0-0.35,0.01-0.31,0.16
	c0.07,0.28,0.34-0.05,0.44,0.06c-0.09-0.02-0.23,0.04-0.23,0.12c0,0.09,0.2,0.2,0.42,0.02c0.12-0.1,0.27-0.13,0.37-0.13
	c0.37,0,1.19,0.19,1.46-0.11c0.11-0.12-0.03-0.21-0.14-0.32c-0.1-0.1-0.13-0.25-0.11-0.48c0.31,0.05,0.71,0.07,1.26-0.04
	c0.66-0.12,0.87,0.1,0.87,0.41c0,0.21-0.12,0.23-0.21,0.23c-0.37,0.02-0.53-0.14-0.67-0.09c-0.1,0.03-0.16,0.19-0.02,0.25
	c-0.12,0.06-0.1,0.17-0.04,0.21c0.06,0.04,0.21,0,0.32-0.05c-0.13,0.06-0.27,0.17-0.19,0.29c0.05,0.07,0.17,0.13,0.28-0.02
	c0.11-0.15,0.33-0.24,0.46-0.25C36.9,14.57,37.15,13.74,36.95,13.18z"/>
<polygon fill="#FFE12C" points="29.5,11.29 29.5,11.29 29.5,11.29 "/>
<path fill="#FFE12C" d="M36.68,17.6c-0.04-0.12-0.07-0.17-0.23-0.11c-0.37,0.13-1.4,0.06-1.73-0.17c0.49,0.2,1.12-0.23,1.12-0.58
	c0-0.4-0.49-0.72-1.47-0.5c-0.98,0.22-2.18,0.12-2.18-0.2c0-0.33,0.86-0.37,1.3-0.3c0.44,0.07,0.76,0.11,1.58-0.18
	c-0.2,0.08-0.86,0.1-1.38-0.04c-0.52-0.15-1.8-0.15-1.81,0.54c-0.01,0.69,1.36,0.63,2.54,0.45c0.69-0.1,1.05-0.04,1.05,0.19
	c0,0.21-0.63,0.3-1.12,0.25c-0.49-0.06-0.99-0.06-1.56,0.13c-1.03,0.34-2.21,0.09-2.52-0.41c0.02-0.05,0.04-0.11,0.04-0.21
	c0,0,0-0.01,0-0.01c0.07-0.07,0.14-0.22,0.17-0.32c0.07-0.25-0.03-0.25-0.31-0.14c-0.1-0.1-0.26-0.16-0.53-0.16
	c-0.28,0-0.44,0.06-0.54,0.16c-0.29-0.11-0.38-0.11-0.31,0.14c0.03,0.11,0.1,0.25,0.18,0.33c0,0,0,0,0,0.01
	c0,0.38,0.42,0.94,0.41,0.96c-0.54-0.05-1.25-1.07-1.38-1.49c-0.06-0.19-0.28-0.31-0.4-0.26c-0.11,0.04-0.15,0.13-0.05,0.2
	c0.09,0.07,0.21,0.08,0.23,0.25c-0.12-0.14-0.3-0.2-0.38-0.1c-0.05,0.05-0.03,0.18,0.08,0.19c0.16,0.02,0.08,0.16,0.2,0.32
	c-0.16-0.15-0.3-0.16-0.39-0.06c-0.06,0.07,0,0.19,0.13,0.17c0.18-0.02,0.77,0.85,2.19,1.64c-0.02,0.11-0.25,0.09-0.43,0.09
	c-0.33,0.02-0.78-0.04-1.01-0.3c-0.21-0.24-0.48-0.42-0.7-0.25c-0.11,0.09-0.01,0.21,0.08,0.17c0.09-0.03,0.19,0.03,0.29,0.08
	c-0.15-0.07-0.32-0.02-0.38,0.04c-0.09,0.08,0.02,0.23,0.13,0.18c0.08-0.04,0.26-0.07,0.37,0.03c-0.12-0.02-0.25-0.02-0.31,0.05
	c-0.06,0.07-0.01,0.16,0.12,0.16c0.21-0.01,1.73,0.96,2.97-0.16c0.18,0.01,1.44-0.04,1.93-0.34c0.32,0.37,0.38,0.33,0.66,0.38
	c0.29,0.06,0.47,0.06,0.28,0.22c-0.07,0.06-0.35,0.03-0.57,0.04c-0.49,0.02-0.72-0.34-0.86-0.15c-0.11,0.14-0.01,0.21,0.19,0.22
	c-0.16,0-0.33,0.01-0.3,0.15c0.06,0.26,0.32-0.05,0.42,0.06c-0.09-0.02-0.22,0.03-0.22,0.11c0,0.08,0.19,0.18,0.4,0.01
	c0.12-0.09,0.26-0.13,0.35-0.13c0.35,0,1.13,0.18,1.38-0.11c0.1-0.11-0.03-0.2-0.13-0.3c-0.1-0.1-0.12-0.24-0.1-0.46
	c0.29,0.05,0.67,0.06,1.19-0.04c0.63-0.12,0.83,0.1,0.83,0.38c0,0.2-0.12,0.21-0.21,0.22c-0.35,0.02-0.5-0.13-0.64-0.08
	c-0.09,0.03-0.15,0.18-0.01,0.23c-0.11,0.06-0.1,0.16-0.04,0.2c0.06,0.04,0.2,0,0.3-0.04c-0.13,0.06-0.26,0.16-0.18,0.27
	c0.04,0.06,0.16,0.12,0.27-0.02c0.11-0.14,0.31-0.23,0.43-0.24C36.63,18.92,36.86,18.12,36.68,17.6z"/>
<polygon fill="#FFE12C" points="29.64,15.81 29.64,15.81 29.64,15.81 "/>
<path fill="#FFE12C" d="M35.43,21.42c-0.03-0.09-0.05-0.12-0.17-0.08c-0.28,0.1-1.03,0.04-1.27-0.12c0.36,0.15,0.82-0.17,0.82-0.43
	c0-0.29-0.36-0.53-1.08-0.37c-0.72,0.16-1.6,0.09-1.6-0.15c0-0.24,0.63-0.27,0.95-0.22c0.32,0.05,0.55,0.08,1.16-0.13
	c-0.15,0.06-0.63,0.08-1.01-0.03c-0.38-0.11-1.32-0.11-1.33,0.4c-0.01,0.5,1,0.46,1.87,0.33c0.51-0.07,0.77-0.02,0.77,0.14
	c0,0.16-0.46,0.23-0.82,0.18c-0.36-0.04-0.73-0.05-1.14,0.09c-0.76,0.25-1.63,0.07-1.85-0.3c0.02-0.04,0.03-0.08,0.03-0.16
	c0,0,0,0,0-0.01c0.05-0.06,0.1-0.16,0.13-0.24c0.05-0.18-0.02-0.19-0.23-0.1c-0.07-0.07-0.19-0.12-0.39-0.12
	c-0.2,0-0.32,0.04-0.39,0.12c-0.21-0.08-0.28-0.08-0.23,0.1c0.02,0.08,0.07,0.19,0.13,0.24c0,0,0,0,0,0c0,0.28,0.3,0.69,0.3,0.71
	c-0.39-0.04-0.92-0.78-1.01-1.09c-0.04-0.14-0.2-0.23-0.29-0.19c-0.08,0.03-0.11,0.1-0.04,0.15c0.07,0.05,0.15,0.06,0.17,0.19
	c-0.09-0.1-0.22-0.14-0.28-0.08c-0.04,0.04-0.02,0.13,0.06,0.14c0.12,0.01,0.06,0.12,0.15,0.23c-0.12-0.11-0.22-0.11-0.28-0.04
	c-0.04,0.05,0,0.14,0.09,0.13c0.13-0.01,0.56,0.62,1.61,1.2c-0.02,0.08-0.18,0.06-0.32,0.07c-0.24,0.01-0.57-0.03-0.74-0.22
	c-0.15-0.17-0.35-0.31-0.51-0.18c-0.08,0.07,0,0.15,0.06,0.13c0.07-0.02,0.14,0.02,0.21,0.05c-0.11-0.05-0.23-0.01-0.28,0.03
	c-0.06,0.06,0.01,0.17,0.09,0.13c0.06-0.03,0.19-0.05,0.27,0.03c-0.09-0.02-0.18-0.01-0.23,0.03c-0.04,0.05-0.01,0.12,0.09,0.11
	c0.15-0.01,1.27,0.7,2.18-0.11c0.13,0,1.06-0.03,1.41-0.25c0.24,0.27,0.28,0.24,0.49,0.28c0.22,0.04,0.35,0.04,0.2,0.16
	c-0.05,0.04-0.26,0.02-0.42,0.03c-0.36,0.01-0.53-0.25-0.63-0.11c-0.08,0.1-0.01,0.15,0.14,0.16c-0.12,0-0.24,0.01-0.22,0.11
	c0.05,0.2,0.23-0.04,0.31,0.04c-0.06-0.02-0.16,0.02-0.16,0.08c0,0.06,0.14,0.13,0.29,0.01c0.08-0.07,0.19-0.09,0.26-0.09
	c0.25,0,0.83,0.13,1.02-0.08c0.07-0.08-0.02-0.15-0.09-0.22c-0.07-0.07-0.09-0.17-0.08-0.34c0.21,0.04,0.49,0.05,0.88-0.03
	c0.46-0.08,0.61,0.07,0.61,0.28c0,0.15-0.08,0.16-0.15,0.16c-0.26,0.02-0.37-0.1-0.47-0.06c-0.07,0.02-0.11,0.13-0.01,0.17
	c-0.08,0.04-0.07,0.12-0.03,0.15c0.04,0.03,0.15,0,0.22-0.03c-0.09,0.04-0.19,0.12-0.13,0.2c0.03,0.05,0.12,0.09,0.2-0.01
	c0.08-0.1,0.23-0.17,0.32-0.18C35.4,22.38,35.57,21.8,35.43,21.42z"/>
<polygon fill="#FFE12C" points="30.27,20.11 30.27,20.11 30.27,20.11 "/>
<path fill="#FFE12C" d="M32,9.65c2.08,0,4.01,0.55,5.16,1.26c0.22-1.75,1.02-3.51,1.96-4.83c-0.98-0.02-1.42,0.5-1.43,1.04
	c-0.24-0.69-1.2-0.65-1.5-0.28c1.07,0.72,0.25,2.01-0.72,1.74c-0.46-0.12-0.69-0.44-0.78-0.9c0.29-0.02,0.51-0.27,0.49-0.56
	c-0.02-0.29-0.27-0.51-0.56-0.49c-0.29,0.02-0.51,0.27-0.49,0.56c0.01,0.21,0.14,0.38,0.33,0.46c-0.31,0.5-0.85,0.65-1.25,0.54
	c-0.51-0.14-0.72-0.6-0.72-1.01c0-1.06,1.02-1.22,1.32-1.04c-0.02-0.71-1.14-1.28-1.49-0.69c0.39-0.69,0.37-1.67-0.33-2.32
	c-0.69,0.65-0.71,1.63-0.33,2.32c-0.35-0.59-1.47-0.02-1.49,0.69c0.31-0.18,1.33-0.02,1.33,1.04c0,0.41-0.21,0.86-0.72,1.01
	c-0.39,0.11-0.94-0.04-1.25-0.54c0.27-0.11,0.4-0.41,0.3-0.68c-0.11-0.27-0.41-0.4-0.68-0.3c-0.27,0.11-0.41,0.41-0.3,0.68
	c0.07,0.19,0.25,0.32,0.46,0.33c-0.09,0.46-0.33,0.78-0.78,0.9c-0.97,0.26-1.79-1.02-0.72-1.74c-0.29-0.38-1.25-0.42-1.5,0.28
	c-0.01-0.54-0.45-1.06-1.43-1.04c0.94,1.32,1.73,3.08,1.96,4.83C27.99,10.19,29.92,9.65,32,9.65L32,9.65z"/>
<linearGradient id="SVGID_1_" gradientUnits="userSpaceOnUse" x1="32" y1="62" x2="32" y2="2">
	<stop  offset="0" style="stop-color:#1A1A1A"/>
	<stop  offset="0.102" style="stop-color:#393939;stop-opacity:0.949"/>
	<stop  offset="0.3475" style="stop-color:#7F7F7F;stop-opacity:0.8262"/>
	<stop  offset="0.5688" style="stop-color:#B6B6B6;stop-opacity:0.7156"/>
	<stop  offset="0.7582" style="stop-color:#DEDEDE;stop-opacity:0.6209"/>
	<stop  offset="0.9081" style="stop-color:#F6F6F6;stop-opacity:0.5459"/>
	<stop  offset="1" style="stop-color:#FFFFFF;stop-opacity:0.5"/>
</linearGradient>
<circle opacity="0.1" fill="url(#SVGID_1_)" cx="32" cy="32" r="30"/>
</svg>
