<?xml version="1.0" encoding="utf-8"?>
<!-- Generator: Adobe Illustrator 21.0.0, SVG Export Plug-In . SVG Version: 6.00 Build 0)  -->
<svg version="1.1" id="Layer_1" xmlns="http://www.w3.org/2000/svg" xmlns:xlink="http://www.w3.org/1999/xlink" x="0px" y="0px"
	 width="64px" height="64px" viewBox="0 0 64 64" enable-background="new 0 0 64 64" xml:space="preserve">
<path fill="#014D87" d="M32,62c5.32,0,10.31-1.39,14.64-3.82L46.79,5.9C42.42,3.42,37.38,2,32,2C17.07,2,4.7,12.9,2.39,27.18v9.64
	C4.7,51.1,17.07,62,32,62z"/>
<path fill="#F5F5F5" d="M62,32c0-7.67-2.89-14.66-7.63-19.97l0.01-0.01c-0.89-1-1.85-1.93-2.86-2.8l0,0
	c-0.34-0.29-0.68-0.56-1.03-0.83h-3.7V7.97L3.59,29.52C3.53,30.33,2,31.17,2,32c0,0.83,1.87,1.61,1.94,2.42l42.71,21.54V55.6h3.85
	c0.35-0.27,0.69-0.54,1.03-0.83l0,0c1.01-0.87,1.97-1.8,2.86-2.8l-0.01-0.01C59.11,46.66,62,39.67,62,32z"/>
<path fill="#E81C27" d="M50.5,55.6L2,32.2c0.01,1.57,0.14,3.12,0.39,4.63l44.25,21.36C48,57.42,49.29,56.56,50.5,55.6z"/>
<path fill="#E81C27" d="M2.39,27.18C2.15,28.69,2.02,30.23,2,31.8L50.5,8.4C49.29,7.44,48,6.58,46.64,5.82L2.39,27.18z"/>
<polygon fill="#785647" points="44.7,37.88 43.1,37.63 42.96,35.34 43.2,34.41 42.96,33.54 42.88,32.56 40.82,31.94 39.15,31.75 
	37.94,30.77 38.29,27.94 34.25,27.25 36.97,24.97 37.06,23.06 39.3,22.01 43.64,20.18 43.81,20.8 47.53,19.15 47.52,19.76 
	50.66,19.05 54.04,17.85 53.66,21.42 52.62,22.9 51.89,24.57 48.22,26.85 52.97,28.75 51.04,31.13 48.9,31.21 50.13,32.14 
	48.86,32.74 49.81,32.8 49.2,33.47 50.36,33.29 48.85,34.56 49.1,35.83 47.94,35.34 48.71,36.61 47.21,36.25 47.45,37.56 
	46.42,37.26 46.33,38.41 "/>
<path fill="#302C3B" d="M53.89,18.03l-0.36,3.38l-1.01,1.42l-0.75,1.68l-3.83,2.36l4.82,1.93l-1.78,2.2l-2.44,0.09l1.34,1.02
	l-1.51,0.72l1.17,0.08l-0.68,0.74l1.08-0.17l-1.23,1.04l0.21,1.11l-1.3-0.55l0.82,1.35l-1.39-0.33l0.24,1.3l-0.99-0.29l-0.09,1.15
	l-1.47-0.48l-1.52-0.23l-0.14-2.19l0.24-0.89l-0.24-0.94L43,32.47l-2.14-0.65l-1.69-0.19l-1.1-0.91l0.36-2.88l-3.89-0.67l2.51-2.1
	l0.12-1.93l2.18-1.02l4.2-1.78l0.17,0.63l3.67-1.63l-0.01,0.57l3.3-0.75L53.89,18.03 M54.19,17.66l-0.37,0.13l-3.21,1.14l-2.96,0.67
	l0.01-0.25l0.01-0.39l-0.36,0.16l-3.41,1.51l-0.09-0.35l-0.07-0.28l-0.26,0.11l-4.2,1.78l-2.19,1.02l-0.13,0.06l-0.01,0.15
	l-0.12,1.82l-2.43,2.03l-0.42,0.35l0.53,0.09l3.65,0.63l-0.33,2.64l-0.02,0.14l0.11,0.09l1.1,0.91l0.06,0.05l0.07,0.01l1.69,0.19
	l1.93,0.59l0.06,0.87l0.23,0.92l-0.22,0.83l-0.01,0.04l0,0.04l0.14,2.19l0.01,0.2l0.2,0.03l1.52,0.23l1.43,0.47l0.3,0.1l0.03-0.32
	l0.07-0.84l0.69,0.2l0.39,0.11l-0.07-0.4l-0.17-0.92l1.02,0.25l0.58,0.14l-0.31-0.51l-0.42-0.68l0.59,0.25l0.43,0.18l-0.09-0.46
	l-0.19-0.96l1.12-0.94l0.68-0.57l-0.88,0.13l-0.37,0.06l0.2-0.21l0.36-0.38l-0.52-0.04l-0.21-0.02L50,32.34l0.37-0.18l-0.33-0.25
	l-0.78-0.59l1.73-0.06l0.12,0l0.07-0.09l1.78-2.2l0.21-0.26l-0.31-0.13l-4.36-1.74l3.41-2.1l0.07-0.04L52,24.62l0.75-1.68l0.99-1.38
	l0.04-0.05l0.01-0.06l0.36-3.38L54.19,17.66L54.19,17.66z"/>
<path fill="#FFC221" d="M46.44,42.92C46.44,42.92,46.45,42.92,46.44,42.92C46.45,42.9,46.45,42.91,46.44,42.92z"/>
<path fill="#302C3B" d="M46.45,42.91C46.45,42.91,46.45,42.91,46.45,42.91C46.45,42.92,46.44,42.92,46.45,42.91
	C46.44,42.91,46.44,42.91,46.45,42.91 M46.44,42.92L46.44,42.92L46.44,42.92"/>
<path fill="#FFE12C" d="M41.46,44.37L42,45.26l-9-4.16l1.47-1.26l0.17,0.34l5.12,0.45l-0.07-0.28l1.14-0.53l0.03-0.28l-2.29,0.46
	l-0.09-1.16l-2.44-0.51l-0.13,0.67l-0.74-0.04l-0.18,0.63l-1.26-0.37L34,37.86l-1.91,0.91l-3.31-2.75l4.19-0.79l1.31,1.47l0.36-1.27
	l1.27,0.32l-0.17,0.59l0.68,0.13l-0.17,0.82l2.53,0.59l0.44-0.98l2.54,1.57l1.41-1.11l0.26,0.15l0.63-1.17l1.1,0.2l0.33,0.93
	l-0.54,1.48l0.27,0.42l5.97,1.39l-0.29,0.97l-0.59-0.14l0.14,0.81L37.8,41.54l-0.28,0.44l4.54,0.22l-0.3,0.38l2.96-0.37l-0.17,0.74
	l2.76-0.23l-2,0.77l2.2,1.02l-2.58-0.05l1.4,1.29l-2.66-1.02l0.04,1.03L41.46,44.37z M48.9,41.27l-4.07-0.94l-0.9,0.5l-0.01,0.04
	L48.9,41.27z"/>
<path fill="#302C3B" d="M32.93,35.36l1.42,1.59l0.38-1.37l1.03,0.26l-0.17,0.6l0.69,0.13l-0.17,0.82l2.75,0.64l0.43-0.95l2.49,1.54
	l1.42-1.11l0.3,0.17l0.64-1.2l0.94,0.17l0.3,0.86l-0.56,1.46l0.3,0.47l5.92,1.42l-0.22,0.73l-5.96-1.37l-0.99,0.51l-0.13,0.26
	l6.44,0.51l0.13,0.77l-12.57-0.86l-0.43,0.69l4.51,0.21l-0.34,0.43l3.09-0.38l-0.17,0.73l2.05-0.17l-1.46,0.56l1.93,0.9l-2.32-0.04
	l1.16,1.07l-2.23-0.86l0.04,0.99l-2.49-1.55l0.6,0.99l-8.45-3.9l1.2-1.03l0.13,0.26l5.36,0.47l-0.09-0.34l1.12-0.51L41,39.4
	l-2.32,0.47l-0.09-1.12l-2.66-0.56l-0.13,0.69l-0.73-0.04l-0.17,0.6l-1.03-0.3l0.3-1.5l-2.06,0.98l-3.04-2.53L32.93,35.36
	 M33.02,35.09l-0.14,0.03l-3.86,0.73l-0.52,0.1l0.41,0.34l3.04,2.53l0.12,0.1l0.14-0.07l1.61-0.77l-0.2,1.01l-0.04,0.22l0.22,0.06
	l1.03,0.3l0.24,0.07l0.07-0.24l0.12-0.41l0.53,0.03l0.22,0.01l0.04-0.22l0.08-0.44l2.23,0.47l0.07,0.93l0.02,0.28l0.28-0.06
	l1.99-0.4l0,0.04l-0.98,0.45l-0.19,0.09l0.05,0.2v0l-4.87-0.43l-0.07-0.13l-0.14-0.29l-0.24,0.21l-1.2,1.03l-0.29,0.25l0.35,0.16
	l8.45,3.9l0.75,0.35l-0.43-0.7l-0.05-0.09l1.6,0.99l0.4,0.25l-0.02-0.47l-0.03-0.61l1.88,0.72l1.21,0.47l-0.96-0.88l-0.68-0.63
	l1.66,0.03l1.18,0.02l-1.07-0.5l-1.4-0.65l0.9-0.35l1.63-0.63l-1.74,0.14l-1.71,0.14l0.09-0.39l0.06-0.27l5.43,0.37l0.32,0.02
	l-0.05-0.31l-0.08-0.47l0.29,0.07l0.23,0.05l0.07-0.22l0.21-0.73l0.08-0.25l-0.26-0.06l-5.82-1.39l-0.18-0.28l0.51-1.34l0.03-0.09
	l-0.03-0.09l-0.3-0.86l-0.05-0.14l-0.14-0.03l-0.94-0.17l-0.18-0.03l-0.09,0.16l-0.52,0.97l-0.08-0.04l-0.15-0.08l-0.13,0.1l-1.28,1
	l-2.34-1.45l-0.24-0.15l-0.12,0.26l-0.34,0.76l-2.31-0.54l0.12-0.58l0.05-0.25l-0.25-0.05l-0.42-0.08L36,35.9l0.07-0.25l-0.25-0.06
	l-1.03-0.26l-0.24-0.06l-0.06,0.23l-0.26,0.93l-1.11-1.25L33.02,35.09L33.02,35.09z M44.31,40.78l0.58-0.3l2.32,0.53L44.31,40.78
	L44.31,40.78z M37.74,41.87l0.13-0.2l6.57,0.45l-2.39,0.3l0.27-0.33l-0.49-0.02L37.74,41.87L37.74,41.87z"/>
<path fill="#FFE12C" d="M32.36,35.13c-0.52-0.26-0.81-0.6-0.86-1.02c-0.1-0.82,0.8-1.6,0.84-1.63l0.16-0.14l0.04,0.21
	c0.09,0.44,1.05,0.54,1.42,0.54c0,0,0.13-0.04,0.31-0.04c0.26,0,0.62,0.08,0.87,0.44l0.05,0.07l-0.05,0.07
	c-0.53,0.78-1.25,0.94-1.77,0.94c-0.31,0-0.56-0.06-0.69-0.1c-0.03,0.07-0.09,0.23-0.14,0.56l-0.03,0.17L32.36,35.13z"/>
<path fill="#302C3B" d="M32.42,32.57c0.13,0.64,1.54,0.64,1.54,0.64s0.13-0.04,0.31-0.04c0.23,0,0.54,0.07,0.76,0.38
	c-0.49,0.72-1.16,0.89-1.66,0.89c-0.43,0-0.74-0.12-0.74-0.12s-0.13,0.09-0.21,0.69C30.62,34.12,32.42,32.57,32.42,32.57
	L32.42,32.57 M32.62,32.32h-0.21c-0.25,0-0.88,0.79-1.02,1.35c-0.11,0.46-0.04,1.1,0.9,1.57l0.31,0.15l0.05-0.34
	c0.03-0.21,0.06-0.34,0.09-0.43c0.15,0.04,0.36,0.07,0.61,0.07c0.55,0,1.31-0.17,1.87-1l0.1-0.14l-0.1-0.14
	c-0.22-0.32-0.56-0.49-0.97-0.49c-0.15,0-0.28,0.03-0.34,0.04c-0.49-0.01-1.21-0.15-1.27-0.44L32.62,32.32L32.62,32.32z"/>
<polygon fill="#F5F5F5" points="32.34,32.58 32.68,31.99 32.87,31.11 37.34,28.88 38.67,27.3 38.18,28.8 39.96,28.42 38.55,29.5 
	40.45,29.07 38.77,30.23 40.93,30.03 39.29,31.07 40.71,31.2 39.04,32.03 36.75,32.63 35.12,33.66 32.83,33.73 "/>
<path fill="#302C3B" d="M38.36,27.87l-0.36,1.11l1.45-0.31l-1.42,1.08l1.83-0.41l-1.54,1.06l2.12-0.19L39.17,31l-0.72,0.12
	l1.81,0.17l-1.28,0.63l-2.27,0.6l-1.66,1.04l-2.14,0.05l-0.44-1.01l0.31-0.53l0.19-0.87L37.39,29L38.36,27.87 M38.99,26.74
	l-0.82,0.97l-0.93,1.09l-4.36,2.17l-0.11,0.05l-0.03,0.12l-0.18,0.83l-0.29,0.49l-0.06,0.11l0.05,0.12l0.43,1.01l0.07,0.15l0.17,0
	l2.14-0.05l0.07,0l0.06-0.04l1.63-1.02l2.23-0.59l1.32-0.64l0.8-0.39l-0.88-0.08l-0.61-0.06l0.89-0.57l0.87-0.55l-1.03,0.09
	l-1.17,0.11l0.76-0.52l1.06-0.73l-1.26,0.28l-0.72,0.16l0.51-0.39l0.89-0.68l-1.1,0.24l-1.02,0.22l0.23-0.7L38.99,26.74L38.99,26.74
	z"/>
<polygon fill="#F5F5F5" points="50.83,31.24 50.14,30.34 50.67,28.82 50.41,28.33 50.61,27.35 54.68,26.64 54.05,27.83 55.43,28.88 
	54.49,30.49 55.24,32.08 "/>
<path fill="#302C3B" d="M54.45,26.8l-0.55,1.06l1.37,1.04l-0.92,1.58l0.68,1.42l-4.17-0.79l-0.58-0.8l0.53-1.52l-0.29-0.53
	l0.19-0.82L54.45,26.8 M54.9,26.47l-0.5,0.09l-3.73,0.65l-0.16,0.03l-0.04,0.16l-0.19,0.82l-0.02,0.09l0.05,0.08l0.24,0.44
	l-0.49,1.41L50,30.36l0.08,0.11l0.58,0.79l0.06,0.08l0.1,0.02l4.17,0.79l0.49,0.09l-0.21-0.45l-0.62-1.3l0.85-1.47l0.11-0.19
	l-0.18-0.13l-1.2-0.92l0.46-0.87L54.9,26.47L54.9,26.47z"/>
<linearGradient id="SVGID_1_" gradientUnits="userSpaceOnUse" x1="32" y1="62" x2="32" y2="2">
	<stop  offset="0" style="stop-color:#1A1A1A"/>
	<stop  offset="0.102" style="stop-color:#393939;stop-opacity:0.949"/>
	<stop  offset="0.3475" style="stop-color:#7F7F7F;stop-opacity:0.8262"/>
	<stop  offset="0.5688" style="stop-color:#B6B6B6;stop-opacity:0.7156"/>
	<stop  offset="0.7582" style="stop-color:#DEDEDE;stop-opacity:0.6209"/>
	<stop  offset="0.9081" style="stop-color:#F6F6F6;stop-opacity:0.5459"/>
	<stop  offset="1" style="stop-color:#FFFFFF;stop-opacity:0.5"/>
</linearGradient>
<circle opacity="0.1" fill="url(#SVGID_1_)" cx="32" cy="32" r="30"/>
</svg>
