<?xml version="1.0" encoding="utf-8"?>
<!-- Generator: Adobe Illustrator 21.0.0, SVG Export Plug-In . SVG Version: 6.00 Build 0)  -->
<svg version="1.1" id="Layer_1" xmlns="http://www.w3.org/2000/svg" xmlns:xlink="http://www.w3.org/1999/xlink" x="0px" y="0px"
	 width="64px" height="64px" viewBox="0 0 64 64" enable-background="new 0 0 64 64" xml:space="preserve">
<path fill="#F5F5F5" d="M3.16,26.59v0.98h0.58v0.98h0.58v-0.98H4.9v-0.98h0.58v-0.98h0.58v-0.98h0.58v-0.98h0.58v-0.98H6.64v-0.98
	H6.06v-0.98H4.32v0.98h1.16v0.98H4.9v0.98H4.32v0.98H3.74v-0.98H3.2c-0.24,0.82-0.45,1.66-0.62,2.51v0.44H3.16z"/>
<path fill="#F5F5F5" d="M10.12,11.52c-0.1,0.11-0.2,0.21-0.3,0.32h0.3V11.52z"/>
<path fill="#F5F5F5" d="M14.75,7.9h-0.58v0.98H13.6v0.98h-0.58v0.98h-0.58v0.98h-0.58v-0.98h-0.58v-0.51
	c-0.19,0.19-0.39,0.37-0.58,0.56v0.93h0.58v0.98h0.58v0.98h-0.58v0.98H10.7v0.98h-0.58v-0.98H9.54V13.8H8.96v-0.98
	c-0.2,0.23-0.39,0.47-0.58,0.71v0.27h-0.2c-0.13,0.17-0.25,0.33-0.38,0.5v0.49H7.44c-0.08,0.11-0.15,0.22-0.23,0.33v0.65H6.78
	c-0.21,0.32-0.41,0.65-0.6,0.98h0.46v0.98h0.58v0.98H7.8v0.98h0.58v0.98h0.23h0.12h0.23v-0.98h0.58v-0.98h0.58v-0.98h0.58v-0.98
	h0.58v-0.98h0.58v-0.98h0.58v0.98h0.58v0.98h0.58v0.98h0.58v0.98h0.58v0.98h0.58v-1.97h-0.58v-0.98h0.58V13.8h-0.58v0.98h-0.58v0.98
	H13.6v-0.98h-0.58V13.8h-0.58v-0.98h0.58v-0.98h0.58v-0.98h0.58v0.98h0.58v0.98h0.58V9.87h-0.58V8.88h0.58V7.07
	c-0.19,0.13-0.39,0.26-0.58,0.39V7.9z M8.96,17.74H8.73H8.61H8.38v-1.97h0.23h0.12h0.23V17.74z"/>
<path fill="#F5F5F5" d="M2.58,35.44v-0.98h0.58v-0.98h0.58v-0.98h0.58V32.1v-0.2v-0.39H3.74v-0.98H3.16v-0.98H2.58v-0.98H2.2
	C2.07,29.69,2,30.83,2,32s0.07,2.31,0.2,3.44H2.58z"/>
<polygon fill="#F5F5F5" points="14.75,29.54 14.17,29.54 14.17,30.53 13.6,30.53 13.6,31.51 13.02,31.51 13.02,31.9 13.02,32.1 
	13.02,32.49 13.6,32.49 13.6,33.47 14.17,33.47 14.17,34.46 14.75,34.46 14.75,35.44 15.33,35.44 15.33,28.56 14.75,28.56 "/>
<path fill="#F5F5F5" d="M9.54,12.14c-0.2,0.22-0.39,0.45-0.58,0.68h0.58V12.14z"/>
<path fill="#F5F5F5" d="M9.82,52.16c0.1,0.11,0.2,0.21,0.3,0.32v-0.32H9.82z"/>
<path fill="#F5F5F5" d="M8.96,51.18c0.19,0.23,0.38,0.46,0.58,0.68v-0.68H8.96z"/>
<path fill="#F5F5F5" d="M14.75,55.12v-0.98h0.58v-2.95h-0.58v0.98h-0.58v0.98H13.6v-0.98h-0.58v-0.98h-0.58V50.2h0.58v-0.98h0.58
	v-0.98h0.58v0.98h0.58v0.98h0.58v-2.95h-0.58v-0.98h0.58v-1.97h-0.58v0.98h-0.58v0.98H13.6v0.98h-0.58v0.98h-0.58v0.98h-0.58v-0.98
	h-0.58v-0.98H10.7v-0.98h-0.58v-0.98H9.54v-0.98H8.96v-0.98H8.73H8.61H8.38v0.98H7.8v0.98H7.22v0.98H6.64v0.98H6.18
	c0.2,0.33,0.39,0.66,0.6,0.98h0.44v0.65c0.08,0.11,0.15,0.22,0.23,0.33H7.8v0.49c0.12,0.17,0.25,0.33,0.38,0.5h0.2v0.27
	c0.19,0.24,0.38,0.47,0.58,0.71V50.2h0.58v-0.98h0.58v-0.98h0.58v0.98h0.58v0.98h0.58v0.98h-0.58v0.98H10.7v0.93
	c0.19,0.19,0.38,0.38,0.58,0.56v-0.51h0.58v-0.98h0.58v0.98h0.58v0.98h0.58v0.98h0.58v0.98h0.58v0.44c0.19,0.13,0.39,0.26,0.58,0.39
	v-1.82H14.75z M8.96,48.23H8.73H8.61H8.38v-1.97h0.23h0.12h0.23V48.23z"/>
<polygon fill="#F5F5F5" points="14.75,37.41 14.17,37.41 14.17,36.43 13.6,36.43 13.6,35.44 13.02,35.44 13.02,36.43 12.44,36.43 
	12.44,37.41 11.86,37.41 11.86,38.39 11.28,38.39 11.28,39.38 10.7,39.38 10.7,40.36 10.12,40.36 10.12,41.34 10.7,41.34 
	10.7,42.33 11.28,42.33 11.28,43.31 13.02,43.31 13.02,42.33 11.86,42.33 11.86,41.34 12.44,41.34 12.44,40.36 13.02,40.36 
	13.02,39.38 13.6,39.38 13.6,40.36 14.17,40.36 14.17,41.34 14.75,41.34 14.75,42.33 15.33,42.33 15.33,40.36 14.75,40.36 
	14.75,39.38 15.33,39.38 15.33,38.39 14.75,38.39 "/>
<polygon fill="#F5F5F5" points="14.75,22.66 14.17,22.66 14.17,23.64 13.6,23.64 13.6,24.62 13.02,24.62 13.02,23.64 12.44,23.64 
	12.44,22.66 11.86,22.66 11.86,21.67 13.02,21.67 13.02,20.69 11.28,20.69 11.28,21.67 10.7,21.67 10.7,22.66 10.12,22.66 
	10.12,23.64 10.7,23.64 10.7,24.62 11.28,24.62 11.28,25.61 11.86,25.61 11.86,26.59 12.44,26.59 12.44,27.57 13.02,27.57 
	13.02,28.56 13.6,28.56 13.6,27.57 14.17,27.57 14.17,26.59 14.75,26.59 14.75,25.61 15.33,25.61 15.33,24.62 14.75,24.62 
	14.75,23.64 15.33,23.64 15.33,21.67 14.75,21.67 "/>
<path fill="#F5F5F5" d="M3.74,39.38h0.58v0.98H4.9v0.98h0.58v0.98H4.32v0.98h1.74v-0.98h0.58v-0.98h0.58v-0.98H6.64v-0.98H6.06
	v-0.98H5.48v-0.98H4.9v-0.98H4.32v-0.98H3.74v0.98H3.16v0.98H2.58v0.44c0.17,0.85,0.38,1.69,0.62,2.51h0.54V39.38z"/>
<path fill="#F5F5F5" d="M10.12,26.59H9.54v-0.98H8.96v-0.98H8.73H8.61H8.38v0.98H7.8v0.98H7.22v0.98H6.64v0.98H6.06v0.98H5.48v2.36
	v0.2v2.36h0.58v0.98h0.58v0.98h0.58v0.98H7.8v0.98h0.58v0.98h0.23h0.12h0.23v-0.98h0.58v-0.98h0.58v-0.98h0.58v-0.98h0.58v-0.98
	h0.58V32.1v-0.2v-2.36h-0.58v-0.98H10.7v-0.98h-0.58V26.59z M6.64,31.9v0.2v0.39H6.06V32.1v-0.2v-0.39h0.58V31.9z M10.7,32.1v-0.2
	v-0.39h0.58v0.39v0.2v0.39H10.7V32.1z M8.38,26.59h0.23h0.12h0.23v0.98H8.73H8.61H8.38V26.59z M8.96,37.41H8.73H8.61H8.38v-0.98
	h0.23h0.12h0.23V37.41z M10.12,30.53H9.54v0.98H8.96v0.39v0.2v0.39h0.58v0.98h0.58v1.97H9.54v-0.98H8.96v-0.98H8.73H8.61H8.38v0.98
	H7.8v0.98H7.22v-1.97H7.8v-0.98h0.58V32.1v-0.2v-0.39H7.8v-0.98H7.22v-1.97H7.8v0.98h0.58v0.98h0.23h0.12h0.23v-0.98h0.58v-0.98
	h0.58V30.53z"/>
<path fill="#C8313E" d="M7.22,15.12c-0.15,0.21-0.3,0.43-0.44,0.65h0.44V15.12z"/>
<path fill="#C8313E" d="M7.8,14.79V14.3c-0.12,0.16-0.24,0.32-0.35,0.49H7.8z"/>
<path fill="#C8313E" d="M8.38,13.8v-0.27c-0.07,0.09-0.14,0.18-0.2,0.27H8.38z"/>
<polygon fill="#C8313E" points="6.06,31.9 6.06,32.1 6.06,32.49 6.64,32.49 6.64,32.1 6.64,31.9 6.64,31.51 6.06,31.51 "/>
<rect x="14.75" y="16.75" fill="#C8313E" width="0.58" height="0.98"/>
<polygon fill="#C8313E" points="8.96,12.82 8.96,12.82 8.96,12.82 "/>
<path fill="#C8313E" d="M9.54,13.8v0.98h0.58v0.98h0.58v-0.98h0.58V13.8h0.58v-0.98h-0.58v-0.98H10.7v-0.93
	c-0.2,0.2-0.39,0.4-0.58,0.61v0.32h-0.3c-0.09,0.1-0.19,0.2-0.28,0.3v0.68H8.96c0,0,0,0,0,0v0.98H9.54z"/>
<rect x="14.75" y="8.88" fill="#C8313E" width="0.58" height="0.98"/>
<polygon fill="#C8313E" points="14.75,11.84 14.17,11.84 14.17,10.85 13.6,10.85 13.6,11.84 13.02,11.84 13.02,12.82 12.44,12.82 
	12.44,13.8 13.02,13.8 13.02,14.79 13.6,14.79 13.6,15.77 14.17,15.77 14.17,14.79 14.75,14.79 14.75,13.8 15.33,13.8 15.33,12.82 
	14.75,12.82 "/>
<path fill="#C8313E" d="M11.86,10.85v0.98h0.58v-0.98h0.58V9.87h0.58V8.88h0.58V7.9h0.58V7.46c-1.1,0.78-2.15,1.63-3.14,2.54h0.02
	c-0.12,0.11-0.23,0.23-0.35,0.34v0.51H11.86z"/>
<polygon fill="#C8313E" points="8.61,15.77 8.38,15.77 8.38,17.74 8.61,17.74 8.73,17.74 8.96,17.74 8.96,15.77 8.73,15.77 "/>
<polygon fill="#C8313E" points="9.54,29.54 8.96,29.54 8.96,30.53 8.73,30.53 8.61,30.53 8.38,30.53 8.38,29.54 7.8,29.54 
	7.8,28.56 7.22,28.56 7.22,30.53 7.8,30.53 7.8,31.51 8.38,31.51 8.38,31.9 8.38,32.1 8.38,32.49 7.8,32.49 7.8,33.47 7.22,33.47 
	7.22,35.44 7.8,35.44 7.8,34.46 8.38,34.46 8.38,33.47 8.61,33.47 8.73,33.47 8.96,33.47 8.96,34.46 9.54,34.46 9.54,35.44 
	10.12,35.44 10.12,33.47 9.54,33.47 9.54,32.49 8.96,32.49 8.96,32.1 8.96,31.9 8.96,31.51 9.54,31.51 9.54,30.53 10.12,30.53 
	10.12,28.56 9.54,28.56 "/>
<rect x="14.75" y="23.64" fill="#C8313E" width="0.58" height="0.98"/>
<path fill="#C8313E" d="M14.75,18.72h-0.58v-0.98H13.6v-0.98h-0.58v-0.98h-0.58v-0.98h-0.58v0.98h-0.58v0.98H10.7v0.98h-0.58v0.98
	H9.54v0.98H8.96v0.98H8.73H8.61H8.38v-0.98H7.8v-0.98H7.22v-0.98H6.64v-0.98H6.18C5.56,17.8,4.99,18.88,4.5,20h0
	c-0.51,1.17-0.95,2.39-1.31,3.64h0.54v0.98h0.58v-0.98H4.9v-0.98h0.58v-0.98H4.32v-0.98h1.74v0.98h0.58v0.98h0.58v0.98H6.64v0.98
	H6.06v0.98H5.48v0.98H4.9v0.98H4.32v0.98H3.74v-0.98H3.16v-0.98H2.58v-0.44c-0.16,0.79-0.28,1.59-0.38,2.4h0.38v0.98h0.58v0.98h0.58
	v0.98h0.58v0.39v0.2v0.39H3.74v0.98H3.16v0.98H2.58v0.98H2.2c0.09,0.81,0.22,1.61,0.38,2.4v-0.44h0.58v-0.98h0.58v-0.98h0.58v0.98
	H4.9v0.98h0.58v0.98h0.58v0.98h0.58v0.98h0.58v0.98H6.64v0.98H6.06v0.98H4.32v-0.98h1.16v-0.98H4.9v-0.98H4.32v-0.98H3.74v0.98H3.2
	C3.56,41.61,3.99,42.83,4.5,44h0c0.49,1.12,1.06,2.2,1.67,3.25h0.46v-0.98h0.58v-0.98H7.8v-0.98h0.58v-0.98h0.23h0.12h0.23v0.98
	h0.58v0.98h0.58v0.98h0.58v0.98h0.58v0.98h0.58v0.98h0.58v-0.98h0.58v-0.98h0.58v-0.98h0.58v-0.98h0.58v-0.98h0.58v-1.97h-0.58
	v-0.98h-0.58v-0.98H13.6v-0.98h-0.58v0.98h-0.58v0.98h-0.58v0.98h1.16v0.98h-1.74v-0.98H10.7v-0.98h-0.58v-0.98h0.58v-0.98h0.58
	v-0.98h0.58v-0.98h0.58v-0.98h0.58v-0.98h0.58v0.98h0.58v0.98h0.58v0.98h0.58v-2.95h-0.58v-0.98h-0.58v-0.98H13.6v-0.98h-0.58V32.1
	v-0.2v-0.39h0.58v-0.98h0.58v-0.98h0.58v-0.98h0.58v-2.95h-0.58v0.98h-0.58v0.98H13.6v0.98h-0.58v-0.98h-0.58v-0.98h-0.58v-0.98
	h-0.58v-0.98H10.7v-0.98h-0.58v-0.98h0.58v-0.98h0.58v-0.98h1.74v0.98h-1.16v0.98h0.58v0.98h0.58v0.98h0.58v-0.98h0.58v-0.98h0.58
	v-0.98h0.58v-1.97h-0.58V18.72z M10.7,27.57v0.98h0.58v0.98h0.58v2.36v0.2v2.36h-0.58v0.98H10.7v0.98h-0.58v0.98H9.54v0.98H8.96
	v0.98H8.73H8.61H8.38v-0.98H7.8v-0.98H7.22v-0.98H6.64v-0.98H6.06v-0.98H5.48V32.1v-0.2v-2.36h0.58v-0.98h0.58v-0.98h0.58v-0.98H7.8
	v-0.98h0.58v-0.98h0.23h0.12h0.23v0.98h0.58v0.98h0.58v0.98H10.7z"/>
<polygon fill="#C8313E" points="8.73,27.57 8.96,27.57 8.96,26.59 8.73,26.59 8.61,26.59 8.38,26.59 8.38,27.57 8.61,27.57 "/>
<path fill="#C8313E" d="M7.22,48.23H6.78c0.14,0.22,0.29,0.43,0.44,0.65V48.23z"/>
<path fill="#C8313E" d="M7.8,49.21H7.44c0.12,0.16,0.24,0.32,0.35,0.49V49.21z"/>
<path fill="#C8313E" d="M8.38,50.2h-0.2c0.07,0.09,0.13,0.18,0.2,0.27V50.2z"/>
<rect x="14.75" y="46.26" fill="#C8313E" width="0.58" height="0.98"/>
<polygon fill="#C8313E" points="14.75,49.21 14.17,49.21 14.17,48.23 13.6,48.23 13.6,49.21 13.02,49.21 13.02,50.2 12.44,50.2 
	12.44,51.18 13.02,51.18 13.02,52.16 13.6,52.16 13.6,53.15 14.17,53.15 14.17,52.16 14.75,52.16 14.75,51.18 15.33,51.18 
	15.33,50.2 14.75,50.2 "/>
<polygon fill="#C8313E" points="8.96,51.18 8.96,51.17 8.96,51.18 "/>
<path fill="#C8313E" d="M9.54,51.18v0.68c0.09,0.1,0.19,0.2,0.28,0.3h0.3v0.32c0.19,0.21,0.38,0.41,0.58,0.61v-0.93h0.58v-0.98h0.58
	V50.2h-0.58v-0.98H10.7v-0.98h-0.58v0.98H9.54v0.98H8.96v0.98c0,0,0,0,0,0.01H9.54z"/>
<rect x="14.75" y="54.13" fill="#C8313E" width="0.58" height="0.98"/>
<path fill="#C8313E" d="M11.61,54c0.99,0.92,2.04,1.76,3.14,2.54V56.1h-0.58v-0.98H13.6v-0.98h-0.58v-0.98h-0.58v-0.98h-0.58v0.98
	h-0.58v0.51c0.12,0.11,0.23,0.23,0.35,0.34H11.61z"/>
<polygon fill="#C8313E" points="8.61,46.26 8.38,46.26 8.38,48.23 8.61,48.23 8.73,48.23 8.96,48.23 8.96,46.26 8.73,46.26 "/>
<rect x="14.75" y="39.38" fill="#C8313E" width="0.58" height="0.98"/>
<polygon fill="#C8313E" points="11.28,32.1 11.28,31.9 11.28,31.51 10.7,31.51 10.7,31.9 10.7,32.1 10.7,32.49 11.28,32.49 "/>
<polygon fill="#C8313E" points="8.61,36.43 8.38,36.43 8.38,37.41 8.61,37.41 8.73,37.41 8.96,37.41 8.96,36.43 8.73,36.43 "/>
<path fill="#529320" d="M15.33,44v12.93C20.1,60.13,25.83,62,32,62c7.87,0,15.04-3.04,20.39-8h-0.02c3.01-2.79,5.46-6.18,7.13-10h0
	H15.33z"/>
<path fill="#E81C27" d="M59.5,44c1.61-3.68,2.5-7.73,2.5-12s-0.9-8.32-2.5-12h0c-1.67-3.82-4.12-7.21-7.13-10h0.02
	C47.04,5.04,39.87,2,32,2c-6.17,0-11.9,1.87-16.67,5.07V44H59.5z"/>
<linearGradient id="SVGID_1_" gradientUnits="userSpaceOnUse" x1="32" y1="62" x2="32" y2="2">
	<stop  offset="0" style="stop-color:#1A1A1A"/>
	<stop  offset="0.102" style="stop-color:#393939;stop-opacity:0.949"/>
	<stop  offset="0.3475" style="stop-color:#7F7F7F;stop-opacity:0.8262"/>
	<stop  offset="0.5688" style="stop-color:#B6B6B6;stop-opacity:0.7156"/>
	<stop  offset="0.7582" style="stop-color:#DEDEDE;stop-opacity:0.6209"/>
	<stop  offset="0.9081" style="stop-color:#F6F6F6;stop-opacity:0.5459"/>
	<stop  offset="1" style="stop-color:#FFFFFF;stop-opacity:0.5"/>
</linearGradient>
<circle opacity="0.1" fill="url(#SVGID_1_)" cx="32" cy="32" r="30"/>
</svg>
