<?xml version="1.0" encoding="utf-8"?>
<!-- Generator: Adobe Illustrator 21.0.0, SVG Export Plug-In . SVG Version: 6.00 Build 0)  -->
<svg version="1.1" id="Layer_1" xmlns="http://www.w3.org/2000/svg" xmlns:xlink="http://www.w3.org/1999/xlink" x="0px" y="0px"
	 width="64px" height="64px" viewBox="0 0 64 64" enable-background="new 0 0 64 64" xml:space="preserve">
<path fill="#E81C27" d="M32,2C19.32,2,8.5,9.88,4.11,21h55.78C55.5,9.88,44.68,2,32,2z"/>
<path fill="#529320" d="M32,62c12.68,0,23.5-7.88,27.89-19H4.11C8.5,54.12,19.32,62,32,62z"/>
<path fill="#014D87" d="M62,32c0-3.14-0.49-6.16-1.38-9H3.38C2.49,25.84,2,28.86,2,32c0,3.14,0.49,6.16,1.38,9h57.23
	C61.51,38.16,62,35.14,62,32z"/>
<path fill="#F5F5F5" d="M60.29,22c-0.12-0.34-0.27-0.67-0.4-1H4.11c-0.13,0.33-0.28,0.66-0.4,1c-0.12,0.33-0.22,0.66-0.33,1h57.23
	C60.51,22.66,60.4,22.33,60.29,22z"/>
<path fill="#F5F5F5" d="M3.71,42c0.12,0.34,0.27,0.67,0.4,1h55.78c0.13-0.33,0.28-0.66,0.4-1c0.12-0.33,0.22-0.66,0.33-1H3.38
	C3.49,41.34,3.6,41.67,3.71,42z"/>
<linearGradient id="SVGID_1_" gradientUnits="userSpaceOnUse" x1="32" y1="62" x2="32" y2="2">
	<stop  offset="0" style="stop-color:#1A1A1A"/>
	<stop  offset="0.102" style="stop-color:#393939;stop-opacity:0.949"/>
	<stop  offset="0.3475" style="stop-color:#7F7F7F;stop-opacity:0.8262"/>
	<stop  offset="0.5688" style="stop-color:#B6B6B6;stop-opacity:0.7156"/>
	<stop  offset="0.7582" style="stop-color:#DEDEDE;stop-opacity:0.6209"/>
	<stop  offset="0.9081" style="stop-color:#F6F6F6;stop-opacity:0.5459"/>
	<stop  offset="1" style="stop-color:#FFFFFF;stop-opacity:0.5"/>
</linearGradient>
<circle opacity="0.1" fill="url(#SVGID_1_)" cx="32" cy="32" r="30"/>
</svg>
