<?xml version="1.0" encoding="utf-8"?>
<!-- Generator: Adobe Illustrator 21.0.0, SVG Export Plug-In . SVG Version: 6.00 Build 0)  -->
<svg version="1.1" id="Layer_1" xmlns="http://www.w3.org/2000/svg" xmlns:xlink="http://www.w3.org/1999/xlink" x="0px" y="0px"
	 width="64px" height="64px" viewBox="0 0 64 64" enable-background="new 0 0 64 64" xml:space="preserve">
<path fill="#014D87" d="M32,62c7.33,0,14.04-2.63,19.26-7H12.75C17.96,59.37,24.67,62,32,62z"/>
<path fill="#014D87" d="M6.63,48h50.74c1.18-1.87,2.16-3.88,2.91-6H3.71C4.46,44.12,5.45,46.13,6.63,48z"/>
<path fill="#014D87" d="M61.85,29H32v-7H20v13h41.85c0.1-0.99,0.15-1.99,0.15-3C62,30.99,61.95,29.99,61.85,29z"/>
<path fill="#014D87" d="M14,22H3.71c-0.79,2.22-1.32,4.57-1.56,7C2.05,29.99,2,30.99,2,32c0,1.01,0.05,2.01,0.15,3H14V22z"/>
<path fill="#014D87" d="M57.37,16H32v6h28.29C59.54,19.88,58.55,17.87,57.37,16z"/>
<path fill="#014D87" d="M51.26,9C46.04,4.63,39.33,2,32,2c-4.27,0-8.33,0.9-12,2.51V16h12V9H51.26z"/>
<path fill="#014D87" d="M14,8.01C13.57,8.33,13.15,8.66,12.75,9c-2.38,2-4.45,4.36-6.12,7H14V8.01z"/>
<path fill="#F5F5F5" d="M12.75,55h38.51c2.38-2,4.45-4.36,6.12-7H6.63C8.3,50.64,10.36,53,12.75,55z"/>
<path fill="#F5F5F5" d="M61.85,29c-0.24-2.43-0.78-4.78-1.56-7H32v7H61.85z"/>
<path fill="#F5F5F5" d="M51.26,9H32v7h25.37C55.7,13.36,53.64,11,51.26,9z"/>
<path fill="#F5F5F5" d="M20,22h12v-6H20V4.51c-2.14,0.94-4.15,2.12-6,3.5V16H6.63c-1.18,1.87-2.16,3.88-2.91,6H14v13H2.15
	c0.24,2.43,0.78,4.77,1.56,7h56.57c0.79-2.23,1.32-4.57,1.56-7H20V22z"/>
<linearGradient id="SVGID_1_" gradientUnits="userSpaceOnUse" x1="32.0002" y1="62" x2="32.0002" y2="2">
	<stop  offset="0" style="stop-color:#1A1A1A"/>
	<stop  offset="0.102" style="stop-color:#393939;stop-opacity:0.949"/>
	<stop  offset="0.3475" style="stop-color:#7F7F7F;stop-opacity:0.8262"/>
	<stop  offset="0.5688" style="stop-color:#B6B6B6;stop-opacity:0.7156"/>
	<stop  offset="0.7582" style="stop-color:#DEDEDE;stop-opacity:0.6209"/>
	<stop  offset="0.9081" style="stop-color:#F6F6F6;stop-opacity:0.5459"/>
	<stop  offset="1" style="stop-color:#FFFFFF;stop-opacity:0.5"/>
</linearGradient>
<circle opacity="0.1" fill="url(#SVGID_1_)" cx="32" cy="32" r="30"/>
</svg>
