<?xml version="1.0" encoding="utf-8"?>
<!-- Generator: Adobe Illustrator 15.0.0, SVG Export Plug-In . SVG Version: 6.00 Build 0)  -->
<!DOCTYPE svg PUBLIC "-//W3C//DTD SVG 1.1//EN" "http://www.w3.org/Graphics/SVG/1.1/DTD/svg11.dtd" [
	<!ENTITY ns_flows "http://ns.adobe.com/Flows/1.0/">
	<!ENTITY ns_extend "http://ns.adobe.com/Extensibility/1.0/">
	<!ENTITY ns_ai "http://ns.adobe.com/AdobeIllustrator/10.0/">
	<!ENTITY ns_graphs "http://ns.adobe.com/Graphs/1.0/">
]>
<svg version="1.1" id="Layer_1" xmlns:x="&ns_extend;" xmlns:i="&ns_ai;" xmlns:graph="&ns_graphs;"
	 xmlns="http://www.w3.org/2000/svg" xmlns:xlink="http://www.w3.org/1999/xlink" xmlns:a="http://ns.adobe.com/AdobeSVGViewerExtensions/3.0/"
	 x="0px" y="0px" width="64px" height="64px" viewBox="0 0 64 64" enable-background="new 0 0 64 64" xml:space="preserve">
<linearGradient id="SVGID_1_" gradientUnits="userSpaceOnUse" x1="32" y1="2" x2="32" y2="62.0005">
	<stop  offset="0" style="stop-color:#FF9900"/>
	<stop  offset="0.2875" style="stop-color:#FF9500"/>
	<stop  offset="0.5853" style="stop-color:#FF8800"/>
	<stop  offset="0.8868" style="stop-color:#FF7400"/>
	<stop  offset="1" style="stop-color:#FF6A00"/>
	<a:midPointStop  offset="0" style="stop-color:#FF9900"/>
	<a:midPointStop  offset="0.7" style="stop-color:#FF9900"/>
	<a:midPointStop  offset="1" style="stop-color:#FF6A00"/>
</linearGradient>
<path fill="url(#SVGID_1_)" d="M2,32C2,15.436,15.44,2,32,2c16.572,0,30,13.436,30,30c0,16.57-13.428,30-30,30
	C15.44,62,2,48.57,2,32z"/>
<path fill="#FFFFFF" d="M47.467,31.923v4.303V46.36c0,0.671-0.375,1.045-1.045,1.045h-3.633c-0.672,0-1.045-0.374-1.045-1.045
	v-2.868C39.578,46.474,36.121,48,31.874,48c-8.748,0-15.34-6.999-15.34-16c0-9.002,6.724-16,16-16c6.845,0,12.687,4.17,14.582,9.76
	c0.252,0.716-0.123,1.178-0.871,1.178h-4.279c-0.584,0-0.936-0.253-1.223-0.759c-1.408-2.466-4.566-4.281-8.208-4.281
	c-5.986,0-9.947,4.182-9.947,10.103c0,6.25,4.159,10.432,9.947,10.432c4.042,0,7.91-1.863,8.888-6.206h-7.547
	c-0.67,0-1.044-0.374-1.044-1.046v-3.257c0-0.672,0.375-1.046,1.044-1.046h12.547C47.092,30.877,47.467,31.251,47.467,31.923z"/>
</svg>
