<?xml version="1.0" encoding="utf-8"?>
<!-- Generator: Adobe Illustrator 21.0.0, SVG Export Plug-In . SVG Version: 6.00 Build 0)  -->
<svg version="1.1" id="Layer_1" xmlns="http://www.w3.org/2000/svg" xmlns:xlink="http://www.w3.org/1999/xlink" x="0px" y="0px"
	 width="64px" height="64px" viewBox="0 0 64 64" enable-background="new 0 0 64 64" xml:space="preserve">
<path fill="#E81C27" d="M32,2C18.94,2,7.83,10.35,3.71,22h56.57C56.17,10.35,45.06,2,32,2z"/>
<path fill="#302C3B" d="M32,62c13.06,0,24.17-8.35,28.29-20H3.71C7.83,53.65,18.94,62,32,62z"/>
<path fill="#F5F5F5" d="M3.71,22C2.61,25.13,2,28.49,2,32c0,3.51,0.61,6.87,1.71,10h56.57C61.39,38.87,62,35.51,62,32
	c0-3.51-0.61-6.87-1.71-10H3.71z"/>
<path fill="none" d="M32,34.68L32,34.68c-0.14-0.1-0.26-0.21-0.38-0.32l-0.74,3.38c0.37,0.01,0.75,0.03,1.13,0.04
	c0.38,0,0.76,0,1.13-0.02l-0.75-3.41C32.26,34.47,32.13,34.58,32,34.68z"/>
<path fill="#F5F5F5" d="M30.58,25.13c0.28-0.22,0.51-0.02,0.68,0.22c0.15,0.21,0.14,0.81-0.07,1.5c-0.12,0.41-0.36,0.82-0.55,1.1
	c0.44-0.02,0.9-0.12,1.37-0.29c0.47,0.17,0.92,0.27,1.36,0.29c-0.21-0.43-0.38-1.17-0.35-1.79c0.04-0.88-0.13-1.23-0.26-1.36
	c-0.16-0.16-0.7-0.31-1.05-0.33c-0.2-0.01-0.17,0.15-0.17,0.15c-0.37-0.09-0.73-0.13-0.9-0.02C30.5,24.71,30.46,25.22,30.58,25.13z"
	/>
<path fill="#F5F5F5" d="M37.29,28.13c-0.19-1.14-1.35-0.82-2.2-0.33c-0.37,0.24-0.76,0.38-1.17,0.44c-0.11,0.02-0.21,0.03-0.32,0.03
	c-0.52,0.02-1.05-0.08-1.6-0.27c-0.55,0.19-1.08,0.29-1.6,0.27c-0.05,0-0.11-0.01-0.16-0.01c-0.47-0.04-0.91-0.19-1.33-0.46
	c-0.82-0.47-1.92-0.79-2.18,0.21c0.2-0.12,0.44-0.26,0.55-0.26l-0.4,9.63l0.2-0.18l0.42-9.3c0.14,0.14,0.55,0.47,0.62,0.55v0
	l-0.35,8.12l0.28-0.25l0.34-7.66c0.14,0.14,0.41,0.34,0.48,0.41l0,0l-0.27,6.74l0.76-0.69l0.77-2.73c-0.71-1.49-0.6-2.82-0.6-2.82
	c0.07,0.01,0.14,0.02,0.21,0.02c0.49,0,1.6-0.28,2.1-0.59c0.07-0.05,0.13-0.09,0.18-0.14c0.04,0.05,0.1,0.1,0.16,0.15
	c0.48,0.34,1.57,0.58,2.06,0.58c0.07,0,0.14-0.01,0.21-0.02c0,0,0.1,1.32-0.6,2.81l0.75,2.65l0.79,0.74l-0.27-6.63l0,0
	c0.07-0.07,0.34-0.27,0.48-0.41l0.34,7.54l0.27,0.25l-0.34-8v0c0.07-0.07,0.48-0.41,0.61-0.54l0.41,9.18l0.2,0.18l-0.4-9.51
	C36.82,27.84,37.1,28,37.29,28.13z"/>
<path fill="#F5F5F5" d="M31.12,29.65v3.46v0.32c0.02,0.02,0.03,0.04,0.05,0.06c0.02,0.03,0.05,0.05,0.07,0.08
	c0.14,0.16,0.29,0.31,0.45,0.46c0.1,0.09,0.2,0.18,0.31,0.26c0.11-0.08,0.21-0.17,0.31-0.27c0.18-0.16,0.35-0.34,0.5-0.52
	c0-0.01,0.01-0.01,0.01-0.02v-0.11v-0.21v-3.52c-0.33-0.1-0.63-0.24-0.81-0.39C31.81,29.41,31.48,29.55,31.12,29.65z"/>
<path fill="#C09300" d="M36.34,37.86c0-0.46-0.46-0.52-0.85-0.39c-0.05,0.02-0.11,0.04-0.18,0.05l-0.62-2.19l3.28,3.2l-0.42-10.44
	c-0.06-1.58-1.37-1.22-2.32-0.65c-0.45,0.3-0.93,0.46-1.44,0.51c-0.68-1.24-0.3-2.77-0.8-3.21c-0.23-0.21-0.94-0.47-1.38-0.5
	c-0.25-0.01-0.21,0.21-0.21,0.21c-0.46-0.13-0.9-0.08-1.11,0.08c-0.2,0.15,0,1.08,0.14,0.95c0.35-0.31,0.42-0.22,0.63,0.11
	c0.17,0.28-0.21,1.48-0.7,2.38c-0.56-0.02-1.09-0.18-1.58-0.52c-0.95-0.57-2.26-0.93-2.32,0.65l-0.42,10.44l3.25-3.09l-0.59,2.09
	c-0.06-0.02-0.12-0.03-0.18-0.05c-0.39-0.13-0.85-0.07-0.85,0.39c-0.57-0.12-0.82,0.78-0.2,0.98c0,0.26,0,0.46,0.4,0.53
	c0.91,0.26,2.49,0.39,4.13,0.39c1.65,0,3.22-0.13,4.15-0.39c0.39-0.07,0.39-0.27,0.39-0.53C37.15,38.64,36.91,37.74,36.34,37.86z
	 M31.24,33.57c-0.02-0.03-0.05-0.05-0.07-0.08c-0.02-0.02-0.03-0.04-0.05-0.06v-0.32v-3.46c0.36-0.11,0.69-0.25,0.89-0.4
	c0.18,0.16,0.48,0.29,0.81,0.39v3.52v0.21v0.11c0,0.01-0.01,0.01-0.01,0.02c-0.16,0.18-0.32,0.36-0.5,0.52
	c-0.1,0.09-0.2,0.18-0.31,0.27c-0.11-0.08-0.21-0.17-0.31-0.26C31.53,33.88,31.38,33.73,31.24,33.57z M31.18,26.86
	c0.21-0.7,0.22-1.29,0.07-1.5c-0.17-0.24-0.4-0.44-0.68-0.22c-0.11,0.09-0.08-0.43,0.07-0.53c0.16-0.11,0.53-0.07,0.9,0.02
	c0,0-0.03-0.16,0.17-0.15c0.35,0.02,0.88,0.17,1.05,0.33c0.13,0.13,0.29,0.48,0.26,1.36c-0.03,0.63,0.13,1.37,0.35,1.79
	c-0.44-0.02-0.9-0.12-1.36-0.29c-0.47,0.17-0.93,0.27-1.37,0.29C30.82,27.67,31.06,27.26,31.18,26.86z M28.6,35.81l0.27-6.74l0,0
	c-0.07-0.08-0.35-0.27-0.48-0.41l-0.34,7.66l-0.28,0.25l0.35-8.12v0c-0.07-0.07-0.49-0.41-0.62-0.55l-0.42,9.3l-0.2,0.18l0.4-9.63
	c-0.11,0-0.35,0.14-0.55,0.26c0.25-1,1.35-0.68,2.18-0.21c0.42,0.27,0.87,0.41,1.33,0.46c0.05,0,0.11,0.01,0.16,0.01
	c0.51,0.02,1.05-0.08,1.6-0.27c0.55,0.19,1.09,0.29,1.6,0.27c0.11,0,0.21-0.02,0.32-0.03c0.41-0.06,0.8-0.2,1.17-0.44
	c0.85-0.49,2.01-0.81,2.2,0.33c-0.2-0.13-0.48-0.29-0.59-0.29l0.4,9.51l-0.2-0.18l-0.41-9.18c-0.13,0.13-0.54,0.47-0.61,0.54v0
	l0.34,8l-0.27-0.25l-0.34-7.54c-0.13,0.13-0.4,0.33-0.48,0.41l0,0l0.27,6.63l-0.79-0.74l-0.75-2.65c0.7-1.49,0.6-2.81,0.6-2.81
	c-0.07,0.01-0.14,0.02-0.21,0.02c-0.49,0-1.59-0.25-2.06-0.58c-0.07-0.05-0.13-0.1-0.16-0.15c-0.04,0.05-0.1,0.1-0.18,0.14
	c-0.5,0.32-1.61,0.59-2.1,0.59c-0.07,0-0.14-0.01-0.21-0.02c0,0-0.1,1.32,0.6,2.82l-0.77,2.73L28.6,35.81z M32,37.79
	c-0.38-0.02-0.75-0.03-1.13-0.04l0.74-3.38c0.12,0.11,0.24,0.21,0.38,0.32l0,0c0.13-0.11,0.26-0.21,0.38-0.32l0.75,3.41
	C32.76,37.79,32.38,37.79,32,37.79z"/>
<linearGradient id="SVGID_1_" gradientUnits="userSpaceOnUse" x1="32" y1="62" x2="32" y2="2">
	<stop  offset="0" style="stop-color:#1A1A1A"/>
	<stop  offset="0.102" style="stop-color:#393939;stop-opacity:0.949"/>
	<stop  offset="0.3475" style="stop-color:#7F7F7F;stop-opacity:0.8262"/>
	<stop  offset="0.5688" style="stop-color:#B6B6B6;stop-opacity:0.7156"/>
	<stop  offset="0.7582" style="stop-color:#DEDEDE;stop-opacity:0.6209"/>
	<stop  offset="0.9081" style="stop-color:#F6F6F6;stop-opacity:0.5459"/>
	<stop  offset="1" style="stop-color:#FFFFFF;stop-opacity:0.5"/>
</linearGradient>
<circle opacity="0.1" fill="url(#SVGID_1_)" cx="32" cy="32" r="30"/>
</svg>
