<?xml version="1.0" encoding="utf-8"?>
<!-- Generator: Adobe Illustrator 21.0.0, SVG Export Plug-In . SVG Version: 6.00 Build 0)  -->
<svg version="1.1" id="Layer_1" xmlns="http://www.w3.org/2000/svg" xmlns:xlink="http://www.w3.org/1999/xlink" x="0px" y="0px"
	 width="64px" height="64px" viewBox="0 0 64 64" enable-background="new 0 0 64 64" xml:space="preserve">
<circle fill="#F5F5F5" cx="32" cy="32" r="30"/>
<path fill="#302C3B" d="M47.43,38.17l-0.09-0.12c-0.28-0.39-0.39-0.54-0.67-0.54l-0.24,0l-0.15,0.18c-0.16,0.2-0.12,0.41-0.07,0.62
	c0.03,0.13,0.07,0.33,0.1,0.58c0.06,0.5-3.18,0.96-4.24,1.11c-0.74,0.11-1.46,0.21-2.07,0.33l-0.1,0.03
	c-0.71,0.15-1.22,0.49-1.44,0.94c-0.14,0.29-0.01,0.51,0.27,0.99c0.27,0.46,0.75,1.28,0.84,1.9c-0.09,0.06-0.18,0.11-0.27,0.16
	c-2.52,1.37-4.5,1.88-7.34,1.88c-2.83,0-4.82-0.51-7.33-1.88c-0.09-0.05-0.18-0.11-0.27-0.16c0.09-0.63,0.57-1.44,0.85-1.9
	c0.28-0.48,0.41-0.7,0.27-0.98c-0.22-0.46-0.73-0.79-1.41-0.94l-0.13-0.03c-0.6-0.12-1.32-0.22-2.07-0.33
	c-1.06-0.15-4.3-0.61-4.24-1.11c0.03-0.25,0.07-0.45,0.1-0.58c0.04-0.22,0.09-0.42-0.07-0.62l-0.15-0.19h-0.24
	c-0.28,0-0.39,0.15-0.67,0.54l-0.09,0.12c-0.26,0.36-0.35,0.72-0.26,1.05c0.03,0.12,0.13,0.34,0.27,0.63
	c0.15,0.31,0.35,0.73,0.52,1.2c0.24,0.65,0.39,1.23,0.41,1.69c0.04,0.74,0.88,1.01,1.38,1.16c0.43,0.13,0.99,0.17,1.49,0.18
	c-0.02,0.37-0.08,0.75-0.2,1.21c-0.09,0.35-0.02,0.76,0.19,1.07c0.22,0.33,0.55,0.54,0.84,0.72l0.11,0.07
	c3.32,2.13,7.13,3.3,10.72,3.3c3.6,0,7.41-1.17,10.72-3.3l0.11-0.07c0.29-0.18,0.61-0.39,0.83-0.72c0.21-0.32,0.28-0.72,0.19-1.07
	c-0.12-0.46-0.18-0.84-0.2-1.21c0.5-0.02,1.06-0.05,1.49-0.18c0.5-0.15,1.34-0.42,1.38-1.16c0.03-0.46,0.17-1.04,0.41-1.69
	c0.18-0.46,0.37-0.88,0.52-1.19c0.14-0.29,0.24-0.52,0.27-0.63C47.78,38.89,47.69,38.53,47.43,38.17z"/>
<path fill="#F5F5F5" d="M47.02,38.47c-0.56-0.78-0.32-0.49-0.22,0.37c0.16,1.3-4.26,1.5-6.71,1.99L40,40.85
	c-0.52,0.11-0.94,0.35-1.1,0.67c-0.07,0.14-0.04,0.32,0.04,0.47l-0.05-0.02c0.45,0.79,1.24,1.34,1.2,2.49
	c-0.18,0.11-0.36,0.23-0.55,0.33c-2.7,1.47-4.77,1.94-7.57,1.94c-2.8,0-4.87-0.47-7.57-1.94c-0.19-0.1-0.37-0.22-0.55-0.33
	c-0.04-1.15,0.75-1.7,1.2-2.49l-0.05,0.02c0.07-0.14,0.11-0.33,0.04-0.47c-0.16-0.32-0.58-0.56-1.1-0.67l-0.09-0.03
	c-2.45-0.48-6.86-0.68-6.71-1.99c0.1-0.87,0.34-1.15-0.22-0.37c-0.14,0.2-0.24,0.42-0.18,0.63c0.06,0.23,0.45,0.92,0.77,1.78
	c0.23,0.6,0.41,1.26,0.45,1.84c0.02,0.32,0.39,0.51,1.03,0.71c0.51,0.16,1.3,0.15,1.83,0.17c0.03,0.52-0.01,1.07-0.21,1.82
	c-0.06,0.22,0,0.48,0.12,0.67c0.18,0.28,0.5,0.46,0.79,0.64c3.32,2.13,7.05,3.22,10.45,3.22c3.4,0,7.13-1.09,10.45-3.22
	c0.29-0.18,0.61-0.36,0.79-0.64c0.12-0.19,0.18-0.45,0.12-0.67c-0.2-0.75-0.24-1.3-0.21-1.82c0.53-0.02,1.32-0.01,1.83-0.17
	c0.64-0.2,1.01-0.39,1.03-0.71c0.03-0.58,0.22-1.24,0.44-1.84c0.32-0.86,0.71-1.54,0.77-1.78C47.27,38.88,47.17,38.67,47.02,38.47z"
	/>
<path fill="#014D87" d="M40.49,21.78H23.51c-0.05,2.88-0.04,5.77,0,8.65c0.04,2.78,0.18,4.95,1.4,6.64
	c1.47,2.04,3.93,3.52,7.09,4.96c3.16-1.45,5.62-2.92,7.09-4.96c1.22-1.7,1.36-3.87,1.4-6.64C40.53,27.55,40.53,24.67,40.49,21.78z"
	/>
<path fill="#E81C27" d="M40.25,34.04c0.01-0.72,0.15-1.06,0.15-1.79c0.08-1.45,0.11-2.88,0.08-4.33H23.51
	c-0.02,1.44,0,2.87,0.08,4.33c0,0.72,0.15,1.06,0.16,1.79H40.25z"/>
<path fill="#FFE12C" d="M21.59,17.27l1.92,4.51c5.2-1.56,11.59-1.55,16.98,0l1.95-4.61l0.55,0.18l0.7-1.61l-1.29-0.37l-0.3,0.77
	l-0.63-0.17l0.27-0.77l-1.31-0.3l-0.24,0.78l-0.62-0.12l0.21-0.79l-1.32-0.23l-0.18,0.79l-0.86-0.13l-0.08,0.4L37,15.57l0.06-0.4
	l-0.67-0.07l-0.06,0.39L36,15.45l0.05-0.4l-0.66-0.06l-0.06,0.4l-0.64-0.04l0.12-1.22l-1.33-0.06l-0.05,0.8l-0.65-0.01l0.02-0.8
	h-1.34l0.01,0.79l-0.64,0.01l-0.04-0.79l-1.34,0.07l0.12,1.2l-0.65,0.05l-0.05-0.4l-0.67,0.06l0.05,0.41l-0.33,0.03l-0.07-0.4
	l-0.67,0.09l0.07,0.39l-0.32,0.04l-0.08-0.4l-0.87,0.12l-0.18-0.79l-1.32,0.23l0.22,0.78l-0.65,0.13l-0.23-0.77l-1.31,0.3l0.27,0.74
	l-0.63,0.18l-0.29-0.76l-1.29,0.38l0.7,1.61L21.59,17.27z"/>
<polygon fill="#F5F5F5" points="32.1,30.88 32.94,28.82 32.02,29.43 31.1,28.82 31.94,30.88 29.88,30.04 30.49,30.96 29.88,31.87 
	31.94,31.03 31.1,33.09 32.02,32.48 32.94,33.09 32.1,31.03 34.16,31.87 33.55,30.96 34.16,30.04 "/>
<path fill="#302C3B" d="M23.83,31.91l-0.02-0.49h-0.37l0-0.21c0.08-1.92-1.26-3.06-2.55-4.17c-0.33-0.28-0.66-0.56-0.97-0.86
	c1,0.65,2.03,1.41,2.43,1.74l-0.09,0.36l0.5,0.29h0.14c0.44,0,0.67-0.44,0.74-0.63l0.05-0.13l-0.03-0.14
	c-0.15-0.84-1.72-2.53-3.1-3.88c0.02-0.46-0.1-0.82-0.34-1.1c-0.16-0.18-0.37-0.31-0.61-0.38c0.2-0.22,0.41-0.4,0.56-0.52
	c0.21-0.17,0.37-0.31,0.37-0.65c-0.1-0.62-0.79-0.78-1.49-0.34l-0.2-0.12c-0.4-0.2-0.86-0.06-1.29,0.45h-0.13
	c-0.15,0-0.38,0.05-0.61,0.27c-0.18,0.18-0.31,0.44-0.42,0.72l-0.11,0.02c-0.44,0.08-0.9,0.44-0.9,1.59l-0.02,0.01
	c-0.32-0.49-0.49-0.94-0.6-1.22c-0.11-0.29-0.22-0.59-0.63-0.62c-0.21,0-0.4,0.1-0.53,0.26c-0.05,0.08-0.14,0.19-0.16,0.45l-0.14,0
	l-0.14,0.11c-0.23,0.18-0.37,0.44-0.4,0.74l-0.11-0.01l-0.41,0.12l-0.08,0.22c-0.13,0.35-0.1,0.71,0.01,1.06l-0.31,0.02l-0.14,0.24
	c-0.09,0.15-0.18,0.3,0.12,1.02l-0.27,0.1c-0.19,0.15-0.3,0.36-0.3,0.61c0,0.23,0.11,0.48,0.27,0.73l-0.04,0.06
	c-0.13,0.17-0.17,0.39-0.13,0.61c0.04,0.21,0.18,0.43,0.36,0.64c-0.11,0.18-0.13,0.38-0.08,0.59c0.17,0.62,1.23,1.17,2.16,1.54
	c-0.52,0.61-0.83,1.25-0.76,1.63L13.15,33l0.28,0.09l0.19,0.03c0.1,0,0.19-0.02,0.29-0.06c-0.02,0.19-0.01,0.37,0.04,0.51
	c0.08,0.24,0.27,0.4,0.5,0.45l0.11,0.01c0.36,0,0.54-0.28,0.81-0.71l0.01-0.02l0.02,0.2c-0.33,0.4-1.05,1.28-1.28,1.65
	c-0.26,0.31-0.2,0.57-0.14,0.7l0,0.01c-0.31,0.3-0.65,0.61-0.85,0.74c-0.35,0.24-0.31,0.54-0.27,0.65l0.19,0.38h0.1l0.02,0.04
	l0.05,0.12l0.11,0.08c0.26,0.2,0.68,0.16,1.05,0l0.03,0.02l0.12,0.07h0.14c0.19,0,0.42-0.09,0.64-0.21l0.32,0.11l0.2-0.13
	c0.18-0.12,0.87-0.67,1.4-1.11c0.15,0.38,0.26,0.86,0.31,1.15l0.07,0.44l0.04,0c-0.02,1.31-0.03,1.56-0.03,1.56l-0.05,0.26
	l0.19,0.19c0.71,0.7,1,1.09,1.2,1.38c0.12,0.16,0.21,0.29,0.33,0.42l0.42,0.46l0.35-0.51c0.1-0.14,0.2-0.2,0.35-0.2l0.14,0.02h0
	l0.54,0.2l0.13-0.55c0.07-0.29,0.46-0.65,0.63-0.78l1.1-0.8l-1.35-0.11c-0.8-0.06-2.09-0.44-2.44-0.61
	c-0.04-0.12-0.1-0.43,0.02-1.18c0.19-0.18,0.73-0.71,1.36-1.43c0.3,0.08,0.59,0.21,0.85,0.39l0.14,0.07
	c0.19,0.06,0.38,0.05,0.56,0.02l0.17-0.03l0.11-0.12l0.18-0.2c0.13-0.16,0.55-0.64,0.69-0.68l0.58,0.14l0.03-0.6
	C23.91,34.79,23.83,32.03,23.83,31.91z M22.44,34.05c-0.12,0.66-0.31,1.26-0.5,1.35c0,0-0.1-0.02-0.28-0.22
	C21.96,34.78,22.21,34.41,22.44,34.05z"/>
<path fill="#FFE12C" d="M18.95,36.96l-0.79,0.47c-0.02,2.5-0.04,2.59-0.04,2.59c1.1,1.07,1.22,1.47,1.55,1.81
	c0.42-0.61,1.07-0.37,1.07-0.37c0.13-0.58,0.83-1.07,0.83-1.07c-0.97-0.08-2.65-0.58-2.79-0.78C18.34,38.97,18.95,36.96,18.95,36.96
	z"/>
<path fill="#FFE12C" d="M23.05,32.49c0.12,0.81-0.35,5.75-2.28,2.48l-1.82,1.28c0,0,1.35-0.55,2.74,0.42
	c0.13,0.04,0.23,0.03,0.33,0.01c0.27-0.29,0.88-1.13,1.35-1.02c0.04-0.71-0.05-3.56-0.05-3.56C23.13,32.09,23.05,32.49,23.05,32.49z
	"/>
<path fill="#FFE12C" d="M22.91,27.94l-0.07,0.29c0.18,0.11,0.34-0.3,0.34-0.3c-0.18-1.01-3.41-4.04-3.41-4.04l-1.42,0.3l-0.13,0.63
	C19.38,25.24,22.83,27.74,22.91,27.94z"/>
<path fill="#F5F5F5" d="M18.63,25.7c0,0-0.47-1.41,0.4-0.79c0.7-0.11,0.64-0.81,0.64-0.81h0.39c0.16-1.42-1.16-1.18-1.31-1.15
	c0.32-0.88,1.3-1.46,1.3-1.55c-0.11-0.67-1.37,0.43-1.97,1.07c0.2-0.66,0.59-1.14,0.55-1.16c-0.4-0.2-0.89,0.54-1.2,1.13
	c0.02-0.35,0.04-0.63,0.01-0.63c-0.51,0-0.81,1.42-0.81,2.08c-0.12-0.53-0.18-0.99-0.22-1.08c-0.62,0.12-0.52,1.35-0.44,1.89
	c-0.19-0.2-0.33-0.33-0.33-0.33c-0.08,0.07-0.06,0.36-0.05,0.58c-1.12-1.13-1.29-2.36-1.42-2.37c-0.47-0.04-0.06,1.51,0.13,2.11
	c-0.57-0.76-0.71-1.46-0.8-1.39c-0.84,0.66,1.02,2.83,1.44,3.23c-1.98-1.18-2.05-2.48-2.28-2.39c-0.48,1.3,2.53,3.57-0.38,1.43
	c-0.48-0.35,0.61,1.7,0.61,1.7c0.48,0.45-0.74-0.53-1-0.46c-0.55,0.41,1.2,1.79,1.2,1.79c0.16,0.25-0.96-0.55-1.18-0.5
	c-0.37,0.5,1.4,1.58,1.4,1.58c0.76,0.44-1.07-0.53-1.12-0.42c-0.57,0.67,2.52,1.73,2.52,1.73c-0.97,0.84-1.29,1.73-1.13,1.79
	c0.23,0.08,1.08-0.76,1.54-1.02c-0.63,0.77-0.94,1.85-0.57,1.93c0.23,0.01,0.85-1.6,1.75-1.86c-0.29,0.63-0.55,1.43-0.36,1.96
	c0,0-1.2,1.43-1.42,1.81c-0.33,0.37,0.31,0.26,0.31,0.26s-0.96,1.01-1.42,1.3c-0.39,0.27,0.74,0,0.97-0.14
	c-0.22,0.14-0.79,0.51-0.76,0.6c0.27,0.21,1.06-0.38,1.06-0.38s-0.19,0.27-0.03,0.36c0.27,0,0.88-0.48,0.88-0.48
	s-0.12,0.28,0.02,0.33c0.24-0.15,1.68-1.35,1.82-1.46c0.44,0.58,0.65,1.85,0.65,1.85l0.75-0.04c0,0,4.24-3.99,4.16-6.46
	C23.05,28.81,20.31,27.85,18.63,25.7z M19.27,28.54c0.16,0.35,0.18,0.82,0.14,1.22c-0.21-0.01-0.63-0.01-1.11,0.04
	c-0.03-0.51-0.08-1.64,0.01-2.33C18.81,28.11,19.27,28.54,19.27,28.54z M17.13,32.15c-0.03,0.23-0.04,0.42-0.04,0.57l-0.56,0.53
	C16.72,32.77,16.93,32.24,17.13,32.15z"/>
<path fill="#302C3B" d="M40.13,35.52l0.03,0.6l0.58-0.14c0.14,0.04,0.55,0.52,0.69,0.68l0.18,0.2l0.12,0.12l0.17,0.03
	c0.18,0.03,0.37,0.03,0.56-0.02l0.14-0.07c0.27-0.19,0.55-0.32,0.85-0.39c0.64,0.72,1.18,1.25,1.36,1.43
	c0.13,0.74,0.07,1.06,0.03,1.18c-0.34,0.17-1.64,0.54-2.44,0.61l-1.35,0.11l1.1,0.8c0.18,0.13,0.57,0.49,0.63,0.78l0.13,0.56
	l0.53-0.2l0,0l0.13-0.02c0.15,0,0.26,0.06,0.35,0.2l0.35,0.51l0.42-0.46c0.12-0.13,0.21-0.26,0.33-0.42
	c0.21-0.29,0.49-0.68,1.2-1.38l0.19-0.19l-0.05-0.26c0,0-0.01-0.25-0.03-1.56l0.04,0l0.08-0.44c0.05-0.3,0.16-0.77,0.31-1.15
	c0.54,0.44,1.21,0.99,1.4,1.11l0.2,0.13l0.32-0.11c0.22,0.13,0.44,0.21,0.64,0.21h0.14l0.12-0.07l0.03-0.02
	c0.37,0.16,0.78,0.21,1.05,0l0.11-0.08l0.05-0.12l0.02-0.04h0.1l0.2-0.38c0.04-0.12,0.08-0.41-0.28-0.65
	c-0.2-0.13-0.54-0.44-0.85-0.74l0.01-0.01c0.06-0.13,0.11-0.39-0.14-0.7c-0.23-0.36-0.95-1.24-1.29-1.65l0.02-0.2l0.01,0.02
	c0.28,0.43,0.46,0.71,0.82,0.71l0.11-0.01c0.24-0.05,0.42-0.21,0.5-0.45c0.05-0.15,0.06-0.32,0.04-0.51c0.1,0.04,0.2,0.06,0.29,0.06
	l0.19-0.03L50.85,33l0.09-0.34c0.07-0.38-0.24-1.03-0.76-1.63c0.93-0.38,1.99-0.93,2.16-1.54c0.06-0.21,0.03-0.41-0.08-0.59
	c0.18-0.21,0.31-0.43,0.36-0.64c0.04-0.22,0-0.44-0.13-0.61l-0.04-0.06c0.16-0.25,0.27-0.5,0.27-0.73c0-0.24-0.11-0.46-0.3-0.61
	l-0.28-0.1c0.3-0.72,0.21-0.87,0.13-1.02l-0.15-0.24l-0.31-0.02c0.11-0.35,0.13-0.71,0-1.06l-0.08-0.22l-0.41-0.12l-0.11,0.01
	c-0.03-0.3-0.17-0.56-0.4-0.74l-0.13-0.11l-0.14,0c-0.03-0.27-0.11-0.38-0.16-0.45c-0.13-0.17-0.32-0.26-0.53-0.26
	c-0.41,0.03-0.53,0.33-0.63,0.62c-0.11,0.28-0.28,0.73-0.6,1.22l-0.02-0.01c0-1.15-0.47-1.51-0.9-1.59l-0.11-0.02
	c-0.1-0.29-0.24-0.54-0.42-0.72c-0.22-0.22-0.45-0.27-0.61-0.27h-0.13c-0.43-0.51-0.89-0.64-1.29-0.45l-0.2,0.12
	c-0.71-0.44-1.39-0.28-1.49,0.34c-0.01,0.34,0.16,0.48,0.36,0.65c0.15,0.12,0.36,0.3,0.56,0.52c-0.25,0.07-0.45,0.2-0.61,0.38
	c-0.24,0.27-0.36,0.64-0.34,1.1c-1.38,1.35-2.95,3.03-3.1,3.88l-0.03,0.14l0.05,0.13c0.08,0.19,0.3,0.63,0.74,0.63h0.14l0.49-0.29
	l-0.09-0.36c0.4-0.33,1.44-1.09,2.43-1.74c-0.32,0.3-0.65,0.58-0.97,0.86c-1.3,1.1-2.63,2.24-2.55,4.17v0.21h-0.37l-0.02,0.49
	C40.17,32.03,40.09,34.79,40.13,35.52z M42.34,35.17c-0.18,0.2-0.28,0.22-0.28,0.22c-0.19-0.09-0.38-0.68-0.5-1.35
	C41.79,34.41,42.04,34.78,42.34,35.17z"/>
<path fill="#FFE12C" d="M45.06,36.96l0.79,0.47c0.02,2.5,0.04,2.59,0.04,2.59c-1.09,1.07-1.22,1.46-1.55,1.81
	c-0.42-0.61-1.07-0.37-1.07-0.37c-0.13-0.57-0.83-1.07-0.83-1.07c0.97-0.08,2.65-0.57,2.79-0.77
	C45.66,38.97,45.06,36.96,45.06,36.96z"/>
<path fill="#FFE12C" d="M40.95,32.49c-0.12,0.81,0.35,5.75,2.28,2.48l1.82,1.28c0,0-1.35-0.55-2.74,0.42
	c-0.13,0.04-0.23,0.03-0.33,0.01c-0.27-0.29-0.88-1.13-1.34-1.02c-0.04-0.71,0.05-3.56,0.05-3.56
	C40.88,32.09,40.95,32.49,40.95,32.49z"/>
<path fill="#FFE12C" d="M41.1,27.94l0.07,0.29c-0.18,0.11-0.34-0.3-0.34-0.3c0.18-1.01,3.41-4.04,3.41-4.04l1.42,0.3l0.13,0.63
	C44.62,25.24,41.17,27.74,41.1,27.94z"/>
<path fill="#F5F5F5" d="M41.06,31.36c-0.09,2.46,4.16,6.46,4.16,6.46l0.75,0.04c0,0,0.21-1.27,0.66-1.85
	c0.14,0.12,1.58,1.31,1.82,1.46c0.14-0.05,0.02-0.33,0.02-0.33s0.61,0.48,0.88,0.48c0.16-0.09-0.03-0.36-0.03-0.36
	s0.79,0.58,1.06,0.38c0.04-0.09-0.54-0.46-0.76-0.6c0.23,0.14,1.36,0.4,0.97,0.14c-0.46-0.3-1.42-1.3-1.42-1.3s0.64,0.1,0.31-0.26
	c-0.22-0.38-1.42-1.81-1.42-1.81c0.19-0.53-0.07-1.33-0.36-1.96c0.9,0.26,1.52,1.87,1.75,1.86c0.37-0.08,0.06-1.16-0.57-1.93
	c0.46,0.25,1.31,1.09,1.54,1.02c0.16-0.05-0.16-0.95-1.13-1.79c0,0,3.08-1.06,2.52-1.73c-0.04-0.11-1.88,0.86-1.12,0.42
	c0,0,1.77-1.08,1.4-1.58c-0.22-0.05-1.35,0.74-1.18,0.5c0,0,1.75-1.38,1.21-1.79c-0.26-0.07-1.48,0.91-1,0.46
	c0,0,1.08-2.05,0.61-1.7c-2.91,2.14,0.11-0.12-0.38-1.43c-0.23-0.09-0.3,1.21-2.28,2.39c0.43-0.4,2.29-2.57,1.45-3.23
	c-0.08-0.06-0.23,0.64-0.8,1.39c0.18-0.61,0.59-2.15,0.12-2.11c-0.13,0.01-0.3,1.24-1.42,2.37c0.01-0.22,0.03-0.51-0.05-0.58
	c0,0-0.14,0.13-0.33,0.33c0.08-0.55,0.19-1.77-0.43-1.89c-0.05,0.09-0.11,0.55-0.23,1.08c0-0.66-0.3-2.08-0.81-2.08
	c-0.03,0-0.01,0.27,0.01,0.63c-0.31-0.58-0.8-1.33-1.2-1.13c-0.04,0.02,0.35,0.5,0.54,1.16c-0.6-0.64-1.86-1.74-1.97-1.07
	c0,0.09,0.98,0.67,1.3,1.55c-0.15-0.03-1.47-0.26-1.31,1.15h0.39c0,0-0.06,0.7,0.64,0.81c0.87-0.62,0.4,0.79,0.4,0.79
	C43.69,27.85,40.95,28.81,41.06,31.36z M45.69,27.47c0.09,0.69,0.04,1.82,0.01,2.33c-0.48-0.05-0.89-0.05-1.11-0.04
	c-0.03-0.41-0.02-0.87,0.14-1.22C44.73,28.54,45.19,28.11,45.69,27.47z M47.47,33.25l-0.56-0.53c0.01-0.15-0.01-0.34-0.04-0.57
	C47.07,32.24,47.28,32.77,47.47,33.25z"/>
<polyline fill="#FFE12C" points="37.58,22.58 36.35,25.75 37.18,26.04 36.79,27.14 38.37,27.14 37.97,26.04 38.82,25.75 
	37.58,22.58 "/>
<polyline fill="#FFE12C" points="26.46,22.58 25.22,25.75 26.06,26.04 25.67,27.14 27.25,27.14 26.85,26.04 27.69,25.75 
	26.46,22.58 "/>
<polyline fill="#FFE12C" points="32.02,22.58 30.79,25.75 31.62,26.04 31.23,27.14 32.81,27.14 32.41,26.04 33.25,25.75 
	32.02,22.58 "/>
<polygon fill="#FFE12C" points="30.87,37.3 26.87,37.3 26.87,34.3 28.11,35.75 28.87,34.3 29.63,35.75 30.87,34.3 "/>
<polygon fill="#FFE12C" points="37.16,37.3 33.16,37.3 33.16,34.3 34.4,35.75 35.16,34.3 35.92,35.75 37.16,34.3 "/>
<polygon fill="#FFE12C" points="34.02,40.81 30.02,40.81 30.02,37.81 31.25,39.27 32.02,37.81 32.78,39.27 34.02,37.81 "/>
<linearGradient id="SVGID_1_" gradientUnits="userSpaceOnUse" x1="32" y1="62" x2="32" y2="2">
	<stop  offset="0" style="stop-color:#1A1A1A"/>
	<stop  offset="0.102" style="stop-color:#393939;stop-opacity:0.949"/>
	<stop  offset="0.3475" style="stop-color:#7F7F7F;stop-opacity:0.8262"/>
	<stop  offset="0.5688" style="stop-color:#B6B6B6;stop-opacity:0.7156"/>
	<stop  offset="0.7582" style="stop-color:#DEDEDE;stop-opacity:0.6209"/>
	<stop  offset="0.9081" style="stop-color:#F6F6F6;stop-opacity:0.5459"/>
	<stop  offset="1" style="stop-color:#FFFFFF;stop-opacity:0.5"/>
</linearGradient>
<circle opacity="0.1" fill="url(#SVGID_1_)" cx="32" cy="32" r="30"/>
</svg>
