<?xml version="1.0" encoding="utf-8"?>
<!-- Generator: Adobe Illustrator 21.0.0, SVG Export Plug-In . SVG Version: 6.00 Build 0)  -->
<svg version="1.1" id="Layer_1" xmlns="http://www.w3.org/2000/svg" xmlns:xlink="http://www.w3.org/1999/xlink" x="0px" y="0px"
	 width="64px" height="64px" viewBox="0 0 64 64" enable-background="new 0 0 64 64" xml:space="preserve">
<circle fill="#006DAE" cx="32" cy="32" r="30"/>
<polyline fill="#F5F5F5" points="17.62,30.69 17.28,29.34 16.98,29.34 16.53,29.84 16.43,28.49 15.76,27.98 15.42,28.15 
	15.35,28.42 14.7,28.13 14.23,27.47 15.42,26.46 13.39,24.94 12.37,21.21 19.82,26.46 24.38,25.28 24.22,24.6 25.06,24.43 
	25.5,22.92 25.4,22.4 25.7,22 25.88,21.03 25.74,20.58 26.37,19.96 26.25,18.51 27.77,17.83 29.12,16.48 28.95,15.8 29.95,16.29 
	30.7,15.77 30.98,14.96 31.36,15.6 35.7,15.79 36.59,16.64 40.05,17.33 40.8,18.01 41.3,17.83 41.85,19.53 42.14,19.48 42.53,19.02 
	45.69,20.11 45.93,20.55 46.72,20.37 47.56,21.21 48.51,26.12 47.73,28.83 51.12,29.84 51.3,32.12 50.6,33.85 51.63,34.58 
	51.12,37.46 49.43,38.81 49.76,40.84 48.75,41.52 48.24,41.35 48.24,43.21 47.4,43.21 47.73,43.89 46.04,44.56 46.51,45.64 
	45.36,46.76 45.7,47.1 45.03,46.93 41.82,48.83 41.98,48.29 41.03,48.47 40.82,47.99 40.05,48.64 39.71,48.46 39.21,49.13 
	35.59,48.64 35.14,48.35 34.54,48.63 33.17,47.64 33.82,47.04 34.67,45.19 34.71,44.06 34.03,42.53 33.19,43.28 28.52,42.07 
	27.55,42.22 26.68,42.72 24.38,42.53 24.38,42.87 19.65,41.18 19.65,40.17 18.8,40.17 18.63,37.29 17.96,37.46 17.11,35.43 
	17.28,35.94 15.59,34.07 16.6,34.07 16.28,32.06 17.11,30.74 17.62,30.69 "/>
<linearGradient id="SVGID_1_" gradientUnits="userSpaceOnUse" x1="32.0003" y1="62" x2="32.0003" y2="2">
	<stop  offset="0" style="stop-color:#1A1A1A"/>
	<stop  offset="0.102" style="stop-color:#393939;stop-opacity:0.949"/>
	<stop  offset="0.3475" style="stop-color:#7F7F7F;stop-opacity:0.8262"/>
	<stop  offset="0.5688" style="stop-color:#B6B6B6;stop-opacity:0.7156"/>
	<stop  offset="0.7582" style="stop-color:#DEDEDE;stop-opacity:0.6209"/>
	<stop  offset="0.9081" style="stop-color:#F6F6F6;stop-opacity:0.5459"/>
	<stop  offset="1" style="stop-color:#FFFFFF;stop-opacity:0.5"/>
</linearGradient>
<circle opacity="0.1" fill="url(#SVGID_1_)" cx="32" cy="32" r="30"/>
</svg>
