<?xml version="1.0" encoding="utf-8"?>
<!-- Generator: Adobe Illustrator 21.0.0, SVG Export Plug-In . SVG Version: 6.00 Build 0)  -->
<svg version="1.1" id="Layer_1" xmlns="http://www.w3.org/2000/svg" xmlns:xlink="http://www.w3.org/1999/xlink" x="0px" y="0px"
	 width="64px" height="64px" viewBox="0 0 64 64" enable-background="new 0 0 64 64" xml:space="preserve">
<path fill="#FFE12C" d="M17,6.02C2.66,14.31-2.26,32.65,6.02,47L57.98,17C49.69,2.66,31.35-2.26,17,6.02z"/>
<path fill="#E84D17" d="M47,57.98C61.34,49.69,66.26,31.35,57.98,17L6.02,47C14.31,61.34,32.65,66.26,47,57.98z"/>
<path fill="#F5F5F5" d="M57.65,18.39c0,0-1.54-0.14-2.32-0.13c-0.8,0.01-1.54,0.5-2.36,0.57c0.55-0.25,0.87-0.83,1.43-1.06
	c0.52-0.21,1.28-0.26,1.39-0.96c-0.52,0.4-1.19,0.26-1.79,0.23c-0.6-0.02-0.95,0.51-1.39,0.82c0.18-0.88,0.69-1.5,0.76-2.42
	c0.06-0.82,1.38-1.42,1.04-2.26c-0.09,0.76-1.13,0.93-1.36,1.65c-0.31,0.94-1.08,1.62-1.19,2.6c-0.13,1.18-0.97,0.64-1.77,0.89
	c-0.23,0.07-1.13-1.05-2.42-1c-2.05,0.08-2.8,0.07-5.36-2.47c-0.59-0.58-2.74-0.82-3.51-0.3c0.75-0.04,1.5,0.2,2.13,0.62
	c-0.44,0.33-0.98-0.38-1.47-0.09c0.85,0.04,1.08,0.35,0.99,1.08c-0.74-0.54-1.85-1.23-2.79-0.76c-0.56,0.28-1.7-0.13-1.97,0.65
	c0.78-0.38,1.63-0.06,2.37,0.24c-0.43,0.14-1.38,0.08-1.7,0.48c0.38-0.12,0.76-0.12,1.15,0c-0.13,0.29-0.17,0.58-0.13,0.89
	c-1.07-0.43-2.61-0.99-3.64-0.17c-1.08,0.87,0.61,1.93,0.85,1.31c-0.72,0.3-1.05-0.86-0.03-0.94c1.36-0.1,2.71,0.48,3.89,1.07
	c-0.63,0.17-2.52,0.03-2.78-0.76c-0.1,0.31-0.08,0.68,0.22,0.88c-0.92,0.03-1.68,0.86-2.47,0.83c-0.74-0.02-2.06-0.04-2.24,0.92
	c1.1-0.99,2.63-0.2,3.91-0.41c-0.34,0.64-0.5,1.33-0.68,1.95c-0.27,0.92-1.25,1.29-1.71,2.24c0.41-0.41,0.94-0.71,1.52-0.82
	c-0.35,0.66-1.09,1.79-0.71,2.53c0.19-1.11,0.93-0.85,1.67-1.25c-0.23,0.55,0.25,1.38,0.9,1.2c-0.33,0.48-0.01,1.24,0.56,1.36
	c-0.43,0.54-1.38,0.17-1.65,0.74c0.71-0.31,1.33,0.75,2.18,0.45c-0.1,0.36-0.03,0.67,0.21,0.96c-0.53-0.13-1.42,0.28-1.7-0.41
	c-0.31,0.75,1.09,0.6,0.89,1.23c-0.27-0.03-0.69-0.78-0.89-0.21c-0.15-0.05-0.26-0.62-0.59-0.74c-0.36-0.13-0.89,0.17-1.08,0.1
	c0.41-0.55-0.73-1.02-1.1-0.64c0.14-0.89-1.55-1.49-1.59-2.16c-0.25,0.48,0.28,0.9,0.2,1.39c-0.17-0.19-0.38-0.27-0.64-0.24
	c-0.61,0.11-0.18-0.11-0.79-0.19c-0.57-0.08-0.27,0.3-0.76-0.01c-0.26-0.16-0.66-0.13-0.84,0.13c-0.3-1.02-1.61-0.46-1.93-1.28
	c-0.13,0.46,0.6,1.01,0.68,1.5c-0.59-0.5-1.66,0.1-1.36,0.88c-0.24,0.14-1.62-0.44-1.28,0.7c-0.43-0.35-2.66-0.1-2.69,0.63
	c0.36-0.28,1.16-0.13,1.52,0.08c-0.33,0.23-0.44,0.93-0.19,1.24c-1.13-0.14-0.56,1.44-1.08,1.7c-0.75,0.39-1.35,1.39-2.32,1.12
	c0.48,0.76,1.48,0.03,2.13,0.1c-0.73,0.5-0.13,1.34-0.56,1.81c-0.42,0.46-0.9,1.71-1.82,1.42c0.15,0.36,0.62,0.45,0.95,0.51
	c-0.29,0.18-0.56,0.56-0.96,0.43c0.03,0.27,0.16,0.48,0.38,0.63c-0.48-0.04-0.94,0.24-1.41,0.06c0,0.25,0.07,0.47,0.21,0.68
	c-0.58-0.2-1.84-0.55-2.21,0.19c0.29-0.02,0.75,0.02,0.87,0.36c-0.43-0.27-0.94-0.11-1.4-0.05c-0.7,0.08-1.14-0.32-1.77-0.52
	c-0.48-0.15-2.84-0.64-2.88,0.18c0.52-0.42,1.58,0.38,2.2,0.33c0.88-0.06,1.56,0.61,2.39,0.77c-1.2-0.12-1.9,0.47-2.99,0.6
	c-0.47,0.05-1.63-0.09-1.71,0.61c0.54-0.29,1.13,0.07,1.69-0.08c0.48-0.13,0.98-0.55,1.5-0.3c-0.33,0.39-0.79,0.62-1.29,0.72
	c-0.76,0.14-1.12,0.43-1.78,0.77c-0.54,0.28-1.21,0.17-1.7,0.58c-0.41,0.35-0.8,0.78-1.37,0.85c0.7,0.45,1.37-0.27,1.98-0.53
	c0.78-0.34,1.59-0.18,2.33-0.68c-0.43,1.01-1.78,0.84-2.56,1.38c-0.97,0.67-1.67,1.81-2.92,1.99c0.51,0.58,1.56-0.16,2.05-0.42
	c0.88-0.46,2.02-0.3,2.78-0.95c0.76-0.66,1.66-0.83,2.39-1.5c0.21-0.2,2.03-1.41,2.17-1.36c-0.74,0.33-0.82,1.41-1.67,1.57
	c0.71,0.28,2.23-0.93,3-1.17c-0.45,0.63-1.67,0.86-1.84,1.63c0.69-0.56,1.69-0.36,2.33-0.92c0.6-0.52,1.76-1.3,2.18-1.95
	c0.41-0.63,0.77-0.94,1.4-1.35c0.32-0.21,0.62-0.51,1.01-0.56c0.41-0.06,0.85,0.18,1.24-0.03c0.13,1.75-0.64,0.33-1.24,1.13
	c-0.09,0.13,0.65,0.34,0.68,0.51c0.01,0.03-1.13,0.99-1.22,1c0.33,0.4,1.02,0.08,1.27-0.24c-0.06,0.33,0.33,0.55,0.18,0.89
	c0.21,0.02,0.7-1.15,0.89-0.89c-0.55,0.24,0.36,0.52,0.38,0.55c-0.3,0.18,0,0.47,0.23,0.41c-0.33,0.11-0.04,0.56-0.15,0.81
	c-0.22,0.51-0.62,0.36-1.08,0.78c-0.4,0.37-0.46,0.91-0.38,1.42c0.07,0.38,0.42,1.71,0.6,0.85c-0.38,1.86,2.05,3.13,3.36,1.76
	c0.68-0.71,1.53-3.64,0.34-4.18c0.24,0.07,0.45,0.03,0.65-0.13c0.09,0.17,0.23,0.29,0.41,0.34c0.72,0.22,0.93,1.12,0.84,1.75
	c0.49-0.64,0.45-2.07-0.06-2.71c-0.17-0.21-0.92-0.53-1.19-0.57c-0.27-0.04-0.48,0.04-0.63,0.27c-0.21-0.2-0.47-0.27-0.76-0.23
	c0.08-0.4-0.44-1.4-0.81-1.62c-0.81-0.48-0.26-1.8-0.12-2.48c0.34,0.23,1.16,0.53,1.56,0.7c0.36,0.16,2.6,0.72,1.65,0.28
	c1.96,0.78,3.22-2.35,1.28-3.15c0.82,0.12,0.13-0.73-0.33-0.88c-0.63-0.2-1.8,0.13-2.32,0.47c0.1-0.08,0.33-0.78,0.45-0.92
	c0.27-0.32,0.65-0.57,1.13-0.45c-1.88-2.46-2.55,2.07-3.37,1.71c-0.57-0.25-0.68-2.05-0.35-2.45c0.19-0.23-0.03-0.55,0.13-0.76
	c0.23-0.3,0.63-0.56,0.82-0.87c0.71-1.16,3.55-0.6,4.92,0c1.7,0.74,3.98,1.04,5.84,1.15c-0.19,0.38,0.06,0.62-0.03,0.9
	c-0.16-0.1-1.78-0.15-1.86-0.02c0.45,0.02,0.81,0.48,1.31,0.53c-0.77,0.05-0.88,1.22-1.54,1.17c0.37,0.35,2.68-1.14,1.67,0.62
	c0.45-0.01,0.64-0.51,0.73-0.86c0.37,0.22,2.79,2.24,3.29,1.42c-0.02,0.45,0.7,0.51,1,0.51c0.51-0.01,1.44,0.4,1.84,0.28
	c-1.54,1.05,2.6,4.64,2.61,3.25c0.01-0.92,1.35,0.8,2.55-0.43c1.32-1.35,0.23-3.77-1.65-3.69c0.52-0.15,1.6-0.16,1.76,0.69
	c0.91-1.47-1.46-2.29-2.5-1.9c0.6-0.34,0.16-0.62,0.72-0.86c0.39-0.17,0.66-0.65,1.15-0.51c-0.58-0.68-3.04-0.45-2.79,0.74
	c-0.29-0.1-0.53-0.03-0.72,0.22c0.01,0.39-0.18,0.54-0.58,0.45c-0.18,0.42-0.39,0.46-0.62,0.11c-0.39-0.21-0.63-0.13-1.02-0.37
	c-0.28-0.18-0.98-0.24-1.31-0.18c-0.52,0.09-0.67-0.65-1.26-0.44c-0.09-0.96,0.65-1.64,1.1-2.41c0.52-0.9,1.03-1.82,1.17-2.87
	c0.12-0.92-0.24-1.7,0.96-1.85c0.95-0.12,1.06,1.04,0.21,1.3c0.43,0.27,0.92-0.11,1.13-0.46c-0.29,0.63-0.33,1.72,0.52,1.93
	c-0.24-0.49,0.42-0.89,0.17-1.37c0.41,0.17,0.79,0.63,0.77,1.1c0.52-0.57-0.24-1.23-0.25-1.83c0.91,0.07,1.5-0.24,2.22-0.75
	c0.75-0.53,0.87-0.46,1.51,0.01c1.11,0.81,3.5,0.62,4.19-0.71c0.34-0.66,0.99-0.69,0.4-1.53c-0.4-0.57-0.93-1.12-1.18-1.71
	c-0.8-1.9-3.34,0.23-3.65,0.78c-0.44,0.63-0.14,0.68-0.88,0.62c-1.05-0.09-1.92,0.6-3.03,0.41c-0.97-0.16-1.66-0.73-2.51-1.15
	c-1.12-0.56-1.74-0.63-2.47-1.71c0.64,0.13,1.31,0.24,1.83,0.67c0.44,0.36,0.85,0.97,1.51,0.79c-0.71-0.2-1.38-1.26-2.07-1.66
	c0.71-0.91,2.24-0.64,3.26-0.62c0.89,0.01,1.32,1.02,1.99,1.44c-0.39,0.18-0.47,0.79-0.96,0.81c0.44,0.24,0.94,0.08,1.28-0.25
	c-0.13,0.39,0.01,0.84,0.42,0.98c-0.28-0.38,0.19-0.67,0.37-0.94c0.13,0.27,0.54,0.48,0.38,0.85c0.95-0.22,0.33-2.61-0.43-2.81
	c1.27-1.13,1.58,0.95,1.23,1.78c0.5-0.36,0.5-1.03,0.5-1.58c0.98,0.33,5.78-1.1,5.64,0.8c0.68-0.81-0.63-1.37-1.23-1.48
	c-0.47-0.08-0.75-1.52-1.55-0.91c0.83-0.11,0.42,0.98-0.05,1.17c0.18-0.66-0.55-1.22-1.16-0.96c1.67,0.48-0.94,1.84-0.71,0.86
	c0.13-0.58,0.58-0.99,0.47-1.64c-0.05-0.3-0.29-0.66-0.26-0.87c0.39,0.13,0.4-0.24,0.11-0.37c0.28,0.11,0.58-0.2,0.89-0.25
	c0.72-0.11,1.31-0.42,1.96-0.73C55.2,18.76,57.65,18.39,57.65,18.39L57.65,18.39L57.65,18.39L57.65,18.39z M46.42,21.7
	c0.33-0.69,1.95-1.43,1.41-0.18c0.22-0.13,0.51-0.76,0.85-0.63c0.39,0.16,0.55,0.57,0.12,0.82c0.39,0,0.77-0.27,1.16-0.15
	c-0.24,0.25-0.24,0.62-0.54,0.81C48.84,22.73,47.34,21.81,46.42,21.7z M48.19,23.26c-0.44-0.19-1.15-0.64-1.48-1
	c0.64,0.17,1.28,0.34,1.9,0.55C48.57,22.85,48.3,23.1,48.19,23.26z"/>
<linearGradient id="SVGID_1_" gradientUnits="userSpaceOnUse" x1="32" y1="61.9999" x2="32" y2="1.9999">
	<stop  offset="0" style="stop-color:#1A1A1A"/>
	<stop  offset="0.102" style="stop-color:#393939;stop-opacity:0.949"/>
	<stop  offset="0.3475" style="stop-color:#7F7F7F;stop-opacity:0.8262"/>
	<stop  offset="0.5688" style="stop-color:#B6B6B6;stop-opacity:0.7156"/>
	<stop  offset="0.7582" style="stop-color:#DEDEDE;stop-opacity:0.6209"/>
	<stop  offset="0.9081" style="stop-color:#F6F6F6;stop-opacity:0.5459"/>
	<stop  offset="1" style="stop-color:#FFFFFF;stop-opacity:0.5"/>
</linearGradient>
<circle opacity="0.1" fill="url(#SVGID_1_)" cx="32" cy="32" r="30"/>
</svg>
