<?xml version="1.0" encoding="utf-8"?>
<!-- Generator: Adobe Illustrator 21.0.0, SVG Export Plug-In . SVG Version: 6.00 Build 0)  -->
<svg version="1.1" id="Layer_1" xmlns="http://www.w3.org/2000/svg" xmlns:xlink="http://www.w3.org/1999/xlink" x="0px" y="0px"
	 width="64px" height="64px" viewBox="0 0 64 64" enable-background="new 0 0 64 64" xml:space="preserve">
<circle fill="#014D87" cx="32" cy="32" r="30"/>
<polygon fill="#FFE12C" points="32,11.8 32.72,14.01 35.04,14.01 33.16,15.37 33.88,17.57 32,16.21 30.13,17.57 30.84,15.37 
	28.97,14.01 31.29,14.01 "/>
<polygon fill="#FFE12C" points="32,45.78 32.72,47.98 35.04,47.98 33.16,49.35 33.88,51.55 32,50.19 30.12,51.55 30.84,49.35 
	28.97,47.98 31.28,47.98 "/>
<polygon fill="#FFE12C" points="40.42,43.03 41.14,45.24 43.46,45.24 41.58,46.6 42.3,48.81 40.42,47.44 38.54,48.81 39.26,46.6 
	37.38,45.24 39.7,45.24 "/>
<polygon fill="#FFE12C" points="46.22,37.23 46.94,39.44 49.25,39.44 47.38,40.8 48.1,43.01 46.22,41.64 44.34,43.01 45.06,40.8 
	43.18,39.44 45.5,39.44 "/>
<polygon fill="#FFE12C" points="48.96,28.79 49.68,30.99 52,30.99 50.12,32.36 50.84,34.56 48.96,33.2 47.09,34.56 47.8,32.36 
	45.93,30.99 48.25,30.99 "/>
<polygon fill="#FFE12C" points="46.22,20.34 46.94,22.55 49.25,22.55 47.38,23.91 48.1,26.12 46.22,24.76 44.34,26.12 45.06,23.91 
	43.18,22.55 45.5,22.55 "/>
<polygon fill="#FFE12C" points="40.42,14.54 41.14,16.75 43.46,16.75 41.58,18.12 42.3,20.32 40.42,18.96 38.54,20.32 39.26,18.12 
	37.38,16.75 39.7,16.75 "/>
<polygon fill="#FFE12C" points="23.58,43.03 22.86,45.24 20.54,45.24 22.42,46.6 21.7,48.81 23.58,47.44 25.46,48.81 24.74,46.6 
	26.62,45.24 24.3,45.24 "/>
<polygon fill="#FFE12C" points="17.78,37.23 17.06,39.44 14.75,39.44 16.62,40.8 15.9,43.01 17.78,41.64 19.66,43.01 18.94,40.8 
	20.82,39.44 18.5,39.44 "/>
<polygon fill="#FFE12C" points="15.04,28.79 14.32,30.99 12,30.99 13.88,32.36 13.16,34.56 15.04,33.2 16.91,34.56 16.2,32.36 
	18.07,30.99 15.75,30.99 "/>
<polygon fill="#FFE12C" points="17.78,20.34 17.06,22.55 14.75,22.55 16.62,23.91 15.9,26.12 17.78,24.76 19.66,26.12 18.94,23.91 
	20.82,22.55 18.5,22.55 "/>
<polygon fill="#FFE12C" points="23.58,14.54 22.86,16.75 20.54,16.75 22.42,18.12 21.7,20.32 23.58,18.96 25.46,20.32 24.74,18.12 
	26.62,16.75 24.3,16.75 "/>
<linearGradient id="SVGID_1_" gradientUnits="userSpaceOnUse" x1="32" y1="62" x2="32" y2="2">
	<stop  offset="0" style="stop-color:#1A1A1A"/>
	<stop  offset="0.102" style="stop-color:#393939;stop-opacity:0.949"/>
	<stop  offset="0.3475" style="stop-color:#7F7F7F;stop-opacity:0.8262"/>
	<stop  offset="0.5688" style="stop-color:#B6B6B6;stop-opacity:0.7156"/>
	<stop  offset="0.7582" style="stop-color:#DEDEDE;stop-opacity:0.6209"/>
	<stop  offset="0.9081" style="stop-color:#F6F6F6;stop-opacity:0.5459"/>
	<stop  offset="1" style="stop-color:#FFFFFF;stop-opacity:0.5"/>
</linearGradient>
<circle opacity="0.1" fill="url(#SVGID_1_)" cx="32" cy="32" r="30"/>
</svg>
