<?xml version="1.0" encoding="utf-8"?>
<!-- Generator: Adobe Illustrator 21.0.0, SVG Export Plug-In . SVG Version: 6.00 Build 0)  -->
<svg version="1.1" id="Layer_1" xmlns="http://www.w3.org/2000/svg" xmlns:xlink="http://www.w3.org/1999/xlink" x="0px" y="0px"
	 width="64px" height="64px" viewBox="0 0 64 64" enable-background="new 0 0 64 64" xml:space="preserve">
<circle fill="#529320" cx="32" cy="32" r="30"/>
<path fill="#FFE12C" d="M35.55,39.94c-4.38,0-7.94-3.55-7.94-7.94s3.55-7.94,7.94-7.94c1.28,0,2.47,0.33,3.54,0.87
	c-1.72-1.59-4.02-2.58-6.55-2.58c-5.33,0-9.65,4.32-9.65,9.64c0,5.33,4.32,9.65,9.65,9.65c2.53,0,4.83-0.98,6.55-2.58
	C38.02,39.61,36.83,39.94,35.55,39.94z"/>
<circle fill="#FFE12C" cx="13.14" cy="23.74" r="9"/>
<path fill="#802000" d="M12.52,30.53h2.25c0,0,0.1-0.21-0.02-0.31c-0.12-0.1-0.61-0.13-0.48-0.49c0.27-0.75,0.3-0.52,0.47-2.3
	c0.17-1.78,0.25-4.57,0.25-4.57h-0.32c0,0,0.06,0.87-0.13,2c-0.19,1.13-0.24,1.23-0.45,2.1c-0.21,0.87-0.24,0.94-0.42,1.45
	c-0.19,0.51-0.21,0.53-0.5,1c-0.29,0.47-0.19,0.29-0.35,0.57c-0.08,0.14-0.18,0.1-0.23,0.21C12.53,30.29,12.52,30.53,12.52,30.53z"
	/>
<path fill="#529320" d="M14.23,17.19c0.02,0.35-0.02,0.81-0.16,1.19c-0.15,0.42-0.31,0.84-0.3,1.27c-0.23,0.08-0.47-0.51-0.7-0.16
	c0.17,0.47,0.56,0.85,0.82,1.28c0.05,0.13,0.43,0.48,0.21,0.56c-0.56-0.19-0.7-0.9-1.04-1.33c-0.4-0.73-1.16-1.24-2-1.28
	c-0.32,0.01-1.34-0.08-1.07,0.46c0.39,0.27,0.88,0.44,1.26,0.74c0.29,0.03,0.81,0.51,0.78,0.69c-0.51-0.21-0.75-0.45-1.29-0.67
	c-0.74-0.29-1.77-0.11-2.18,0.62c-0.08,0.19-0.19,0.75,0.05,0.8c0.28-0.44,0.68-0.93,1.28-0.8c0.47,0.04-0.52,0.87-0.14,0.71
	c0.12-0.05,0.4-0.23,0.59-0.26c0.19-0.02,0.3,0.13,0.45,0.15c0.29,0.04,0.37,0.16,0.34,0.23c-0.03,0.08-0.13,0.01-0.42,0.11
	c-0.15,0.05-0.23,0.18-0.4,0.24c-0.17,0.06-0.53,0.06-0.67,0.01c-0.47-0.21-1.24-0.17-1.39,0.42c0,0.26-0.23-0.03-0.34,0.08
	c-0.08,0.28-0.1,0.57-0.52,0.55c-0.25,0.27-0.52,0.54-0.84,0.73c0.19,0.44,0.94-0.44,0.91-0.07c-0.33,0.45,0.17,0.54,0.39,0.2
	c0.37-0.39,0.83-0.87,1.38-0.47c0.26,0.25,0.42-0.13,0.6-0.11c0.12,0.31,0.27,0.01,0.41-0.07c0.22-0.03,0.16,0.28,0.42,0.09
	c0.53-0.35,1.17-0.06,1.69-0.39c0.55-0.25,0.08,0.2-0.07,0.38c-0.24,0.47-0.03,1.08-0.55,1.37c-0.21,0.55,0.25,1.29-0.22,1.7
	c-0.07,0.26,0.6,0.23,0.79,0.33c0.33,0.01-0.01-0.75,0.31-0.85c0.44,0.27,0.41-0.48,0.33-0.71c0.04-0.53,0.07-1.11,0.34-1.58
	c0.28-0.59,0.54,0.24,0.23,0.47c-0.18,0.54-0.44,1.21-0.03,1.71c0.12,0.03,0.21,0.31,0.36,0.39c0.15,0.09,0.36-0.02,0.39-0.28
	c0.19-0.77,0.1-1.6,0.37-2.35c0.2-0.23,0.46-0.04,0.58,0.18c0.39,0.45,0.66,1.01,1.13,1.38c0.43,0.2,0.8,0.5,1,0.94
	c0,0.34,0.96,0.39,0.67,0.01c-0.28-0.37-0.09-0.73,0.19-0.98c0.15,0.04,0.11-0.23-0.01-0.12c-0.19-0.04-0.2-0.39,0.06-0.23
	c0.44,0.14-0.03-0.32-0.19-0.33c-0.37-0.23-0.8-0.5-0.98-0.9c0.49,0.01,0.99,0.27,1.48,0.1c0.4-0.2,0.8,0.02,0.94,0.37
	c0.31-0.05,0.18-0.36,0-0.46c0.22-0.09,0.38-0.28,0.11-0.45c-0.14-0.19,0.19-0.51-0.22-0.49c0.01-0.32-0.11-0.61-0.46-0.71
	c-0.34-0.29-1.36,0.43-1.33-0.23c-0.1-0.36,0.41-0.05,0.55-0.23c0.15-0.38-0.71-0.34-0.42-0.63c0.18-0.12,1.05-0.29,0.37-0.41
	c-0.34,0.09-0.63,0.02-0.89-0.14c-0.24,0.41-0.94-0.22-0.81,0.5c-0.09,0.27-0.71,0.98-0.88,0.44c0.14-0.42,0.88-0.56,0.65-1.13
	c-0.04-0.36-0.33,0.06-0.47,0.04c-0.07-0.22,0.21-0.48,0.41-0.54c0.39,0.3,0.41-0.38,0.78-0.33c0.27-0.06-0.09-0.18-0.16-0.23
	c0.07-0.2,0.49-0.3,0.08-0.48c-0.36-0.27-0.63,0.27-0.93,0.3c-0.29-0.32,0.26-0.48,0.41-0.65c0.01-0.13-0.32-0.04-0.22-0.15
	c0.09-0.15,0.67-0.16,0.39-0.39c-0.41-0.14-0.94-0.11-1.33,0.08c-0.25,0.08-0.32,0.64-0.53,0.62
	C14.44,17.75,14.58,17.26,14.23,17.19L14.23,17.19z M16.17,22.64c0.31-0.05,0.01,0.47-0.14,0.46c0.01-0.19-0.45-0.17-0.16-0.33
	C15.95,22.71,16.06,22.67,16.17,22.64z"/>
<polygon fill="#FFE12C" points="48.15,42.87 48.67,44.48 50.25,43.88 49.32,45.29 50.77,46.15 49.08,46.3 49.32,47.97 48.15,46.75 
	46.98,47.97 47.22,46.3 45.53,46.15 46.99,45.29 46.05,43.88 47.63,44.48 "/>
<polygon fill="#FFE12C" points="38.74,27.97 39.26,29.58 40.84,28.98 39.91,30.39 41.36,31.26 39.68,31.4 39.91,33.08 38.74,31.85 
	37.58,33.08 37.81,31.4 36.12,31.26 37.58,30.39 36.64,28.98 38.22,29.58 "/>
<polygon fill="#FFE12C" points="48.15,17.78 48.67,19.39 50.25,18.79 49.32,20.2 50.77,21.06 49.08,21.21 49.32,22.89 48.15,21.66 
	46.98,22.89 47.22,21.21 45.53,21.06 46.99,20.2 46.05,18.79 47.63,19.39 "/>
<polygon fill="#FFE12C" points="56.51,25.46 57.03,27.07 58.62,26.47 57.68,27.88 59.13,28.75 57.45,28.89 57.68,30.57 56.51,29.34 
	55.35,30.57 55.58,28.89 53.89,28.75 55.35,27.88 54.41,26.47 56,27.07 "/>
<polygon fill="#FFE12C" points="51.91,33.01 52.32,34.01 53.41,34.09 52.58,34.79 52.83,35.85 51.91,35.27 50.99,35.85 51.25,34.79 
	50.42,34.09 51.5,34.01 "/>
<linearGradient id="SVGID_1_" gradientUnits="userSpaceOnUse" x1="32" y1="62" x2="32" y2="2">
	<stop  offset="0" style="stop-color:#1A1A1A"/>
	<stop  offset="0.102" style="stop-color:#393939;stop-opacity:0.949"/>
	<stop  offset="0.3475" style="stop-color:#7F7F7F;stop-opacity:0.8262"/>
	<stop  offset="0.5688" style="stop-color:#B6B6B6;stop-opacity:0.7156"/>
	<stop  offset="0.7582" style="stop-color:#DEDEDE;stop-opacity:0.6209"/>
	<stop  offset="0.9081" style="stop-color:#F6F6F6;stop-opacity:0.5459"/>
	<stop  offset="1" style="stop-color:#FFFFFF;stop-opacity:0.5"/>
</linearGradient>
<circle opacity="0.1" fill="url(#SVGID_1_)" cx="32" cy="32" r="30"/>
</svg>
