<?xml version="1.0" encoding="utf-8"?>
<!-- Generator: Adobe Illustrator 21.0.0, SVG Export Plug-In . SVG Version: 6.00 Build 0)  -->
<svg version="1.1" id="Layer_1" xmlns="http://www.w3.org/2000/svg" xmlns:xlink="http://www.w3.org/1999/xlink" x="0px" y="0px"
	 width="64px" height="64px" viewBox="0 0 64 64" enable-background="new 0 0 64 64" xml:space="preserve">
<path fill="#E81C27" d="M60,42c-5.52,0-10-4.48-10-10H10.79v21.21l0,0C16.21,58.64,23.71,62,32,62c13.07,0,24.18-8.36,28.29-20.02
	C60.19,41.99,60.1,42,60,42z"/>
<path fill="#529320" d="M60,22c0.1,0,0.19,0.01,0.29,0.01C56.18,10.36,45.07,2,32,2c-8.29,0-15.79,3.36-21.21,8.79h0V32H50
	C50,26.48,54.48,22,60,22z"/>
<path fill="#F5F5F5" d="M60.29,22h-49.5v20h49.5C61.39,38.87,62,35.51,62,32S61.39,25.13,60.29,22z"/>
<path fill="#006DAE" d="M10.79,10.79C5.36,16.21,2,23.71,2,32c0,8.28,3.36,15.78,8.79,21.21L21,32L10.79,10.79z"/>
<path fill="#FFE12C" d="M33.65,24.1l-0.58,0.03l-0.29,0.52l-0.32-0.5l-0.59,0.02l0.27-0.53l-0.32-0.5l0.61-0.03l0.27-0.52l0.32,0.5
	l0.58-0.02l-0.27,0.53L33.65,24.1z"/>
<path fill="#FFE12C" d="M31.15,24.29l-0.58,0.14L30.41,25l-0.43-0.42l-0.56,0.14l0.16-0.57l-0.4-0.43l0.56-0.14l0.16-0.57l0.42,0.42
	l0.58-0.14l-0.19,0.57L31.15,24.29z"/>
<path fill="#FFE12C" d="M28.74,24.79l-0.53,0.26l-0.03,0.59l-0.51-0.32l-0.53,0.26l0.05-0.59l-0.5-0.33l0.53-0.27l0.05-0.59
	l0.48,0.32l0.53-0.26l-0.03,0.59L28.74,24.79z"/>
<path fill="#FFE12C" d="M34.42,24.1L35,24.13l0.27,0.52l0.32-0.5l0.58,0.02l-0.26-0.53l0.32-0.5l-0.58-0.03l-0.29-0.52l-0.32,0.5
	l-0.58-0.02l0.27,0.53L34.42,24.1z"/>
<path fill="#FFE12C" d="M36.92,24.29l0.56,0.14L37.63,25l0.43-0.42l0.56,0.14l-0.16-0.57l0.42-0.43l-0.58-0.14l-0.16-0.57
	l-0.43,0.42l-0.56-0.14l0.16,0.57L36.92,24.29z"/>
<path fill="#FFE12C" d="M39.31,24.79l0.53,0.26l0.03,0.59l0.5-0.32l0.53,0.26l-0.03-0.59l0.48-0.33l-0.53-0.27l-0.03-0.59l-0.5,0.32
	l-0.53-0.26l0.05,0.59L39.31,24.79z"/>
<path fill="#302C3B" d="M28.9,25.59h10.17v10.65c0,3.58-4.67,0.82-5.07,2.73c-0.69-1.96-5.07,0.88-5.07-2.95
	C28.92,32.32,28.9,25.59,28.9,25.59z"/>
<path fill="#F5F5F5" d="M29.3,26.12h9.37v9.82c0,3.3-4.3,0.76-4.67,2.52c-0.64-1.81-4.68,0.81-4.68-2.72
	C29.32,32.31,29.3,26.12,29.3,26.12z"/>
<path fill="#785647" d="M35.35,29.98l-0.32-0.27c0,0-0.31,0.13-0.73,0.54c0.02-0.23,0.04-0.46,0.06-0.7h-0.48l-0.01,0.73
	c-0.06-0.07-0.34-0.45-0.65-0.54l-0.05,0.42c0.9,0.48,0.48,4.86-0.5,6.85h2.44C34.02,33.5,34.16,30.59,35.35,29.98z"/>
<path fill="#529320" d="M35.46,27.75c0.16-0.19,0.16-0.19,0.45-0.19c0.05-0.4,0.71-0.4,0.77,0.11c0.53-0.11,0.64,0.21,0.42,0.53
	c0.5-0.13,0.96,0,0.82,0.58c0.9,0.24,0.56,0.88,0.16,1.01c-0.05,0.4-0.42,0.53-0.93,0.37c-0.64,0.45-1.01,0.29-1.3-0.16
	c-0.72,0.11-0.77-0.05-1.09-0.45c-0.56,0.24-0.66,0.24-1.14-0.05c-0.03,0.37-0.16,0.27-0.4,0.24c0.03,0.48-0.16,0.69-0.59,0.53
	c0.32,0.66-0.5,0.96-0.9,0.4c-0.37,0.03-0.4-0.08-0.58-0.21c-0.16,0.53-0.74,0.45-0.85,0.16c-0.74-0.11-0.66-0.5-0.05-0.53
	c0.05-0.42,0.42-0.34,0.66-0.29c0.03-0.27,0.19-0.21,0.32-0.16c-0.08-0.19-0.03-0.29,0.21-0.35c-0.35-0.45-0.13-0.61,0.21-0.77
	c-0.19-0.42,0.13-0.4,0.37-0.42c-0.03-0.45,0.11-0.53,0.58-0.59c-0.05-0.16,0.03-0.29,0.29-0.29c-0.16-0.45,0.05-0.55,0.53-0.48
	c0.08-0.65,1.49-0.34,1.38,0.56C35.22,27.35,35.35,27.43,35.46,27.75z"/>
<path fill="#BCBCBC" d="M41.38,33.53c-0.19,1.19-1.51,1.7-1.36,2.47c0.19,0.2,0.6,1.11,0.6,1.11c-0.3,0.44-0.52,0.74-1.55,1.17
	c-1.35,0.53-3.27,0.19-3.27,0.19l0.05,1.3l-3.67-0.03l0.05-1.27c0,0-1.91,0.35-3.27-0.19c-0.88-0.36-1.39-0.87-1.7-1.31
	c0,0,0.68-0.98,0.69-0.98c0.16-0.77-1.19-1.28-1.38-2.47c-0.11,1.96-1.06,2.65,0.16,3.32c-0.08,0.32-0.19,0.68-0.34,0.93
	c0.48,2.44,4.88,2.49,4.88,2.49v0.45c0,0.9,5.47,0.9,5.47,0v-0.45c0,0,4.41-0.05,4.86-2.49c-0.25-0.4-0.35-0.93-0.35-0.93
	C42.49,36.15,41.48,35.49,41.38,33.53z"/>
<linearGradient id="SVGID_1_" gradientUnits="userSpaceOnUse" x1="32" y1="62" x2="32" y2="2">
	<stop  offset="0" style="stop-color:#1A1A1A"/>
	<stop  offset="0.102" style="stop-color:#393939;stop-opacity:0.949"/>
	<stop  offset="0.3475" style="stop-color:#7F7F7F;stop-opacity:0.8262"/>
	<stop  offset="0.5688" style="stop-color:#B6B6B6;stop-opacity:0.7156"/>
	<stop  offset="0.7582" style="stop-color:#DEDEDE;stop-opacity:0.6209"/>
	<stop  offset="0.9081" style="stop-color:#F6F6F6;stop-opacity:0.5459"/>
	<stop  offset="1" style="stop-color:#FFFFFF;stop-opacity:0.5"/>
</linearGradient>
<circle opacity="0.1" fill="url(#SVGID_1_)" cx="32" cy="32" r="30"/>
</svg>
