<?xml version="1.0" encoding="utf-8"?>
<!-- Generator: Adobe Illustrator 21.0.0, SVG Export Plug-In . SVG Version: 6.00 Build 0)  -->
<svg version="1.1" id="Layer_1" xmlns="http://www.w3.org/2000/svg" xmlns:xlink="http://www.w3.org/1999/xlink" x="0px" y="0px"
	 width="64px" height="64px" viewBox="0 0 64 64" enable-background="new 0 0 64 64" xml:space="preserve">
<path fill="#E81C27" d="M32,62c13.06,0,24.17-8.35,28.29-20H3.71C7.83,53.65,18.94,62,32,62z"/>
<path fill="#F5F5F5" d="M32,2C18.94,2,7.83,10.35,3.71,22h56.57C56.17,10.35,45.06,2,32,2z"/>
<path fill="#014D87" d="M60.29,42C61.39,38.87,62,35.51,62,32s-0.61-6.87-1.71-10H3.71C2.61,25.13,2,28.49,2,32s0.61,6.87,1.71,10
	H60.29z"/>
<path fill="#014D87" d="M30.19,24.25L31,13.09c-6.33-2.79-13.67-2.79-20,0l0.81,11.16c0.36,5.01,4.02,9.3,9.19,10.75
	C26.16,33.55,29.82,29.27,30.19,24.25"/>
<path fill="#F5F5F5" d="M13.5,25.76c0.87,3.65,3.71,6.61,7.5,7.82c3.79-1.22,6.63-4.18,7.5-7.82l-3.75-4.66l-1.5,1.86L21,18.78
	l-2.25,4.19l-1.5-1.86L13.5,25.76"/>
<path fill="#014D87" d="M13.83,26.93c0.69,1.11,2.22,1.49,3.41,0.85c0.77-0.42,1.73-0.42,2.5,0c0.77,0.42,1.73,0.42,2.5,0
	c0.77-0.42,1.73-0.42,2.5,0c1.2,0.64,2.72,0.26,3.42-0.85v0.67c-0.69,1.11-2.22,1.49-3.42,0.85c-0.77-0.42-1.73-0.42-2.5,0
	c-0.77,0.42-1.73,0.42-2.5,0c-0.77-0.42-1.73-0.42-2.5,0c-1.2,0.64-2.72,0.26-3.41-0.85V26.93z"/>
<path fill="#014D87" d="M13.83,28.27c0.69,1.11,2.22,1.5,3.41,0.85c0.77-0.42,1.73-0.42,2.5,0c0.77,0.41,1.73,0.41,2.5,0
	c0.77-0.42,1.73-0.42,2.5,0c1.2,0.64,2.72,0.26,3.42-0.85v0.67c-0.69,1.11-2.22,1.5-3.42,0.85c-0.77-0.42-1.73-0.42-2.5,0
	c-0.77,0.41-1.73,0.41-2.5,0c-0.77-0.42-1.73-0.42-2.5,0c-1.2,0.64-2.72,0.26-3.41-0.85l0,0V28.27z"/>
<path fill="#E81C27" d="M11.7,12.8l0.83,11.41c0.34,4.66,3.69,8.66,8.47,10.09c4.77-1.43,8.13-5.43,8.47-10.09L30.3,12.8
	c0.23,0.1,0.47,0.2,0.7,0.29l-0.81,11.16C29.82,29.27,26.16,33.55,21,35c-5.16-1.45-8.82-5.73-9.19-10.75L11,13.09
	C11.24,13,11.47,12.9,11.7,12.8"/>
<polygon fill="#FFE12C" points="17,11.9 17.22,12.64 18,12.45 17.44,13 18,13.55 17.22,13.36 17,14.1 16.78,13.36 16,13.55 
	16.56,13 16,12.45 16.78,12.64 "/>
<polygon fill="#FFE12C" points="25,11.9 25.22,12.64 26,12.45 25.44,13 26,13.55 25.22,13.36 25,14.1 24.78,13.36 24,13.55 
	24.56,13 24,12.45 24.78,12.64 "/>
<polygon fill="#FFE12C" points="21,14.8 21.22,15.54 22,15.35 21.44,15.9 22,16.45 21.22,16.26 21,17 20.78,16.26 20,16.45 
	20.56,15.9 20,15.35 20.78,15.54 "/>
<linearGradient id="SVGID_1_" gradientUnits="userSpaceOnUse" x1="32" y1="62" x2="32" y2="2">
	<stop  offset="0" style="stop-color:#1A1A1A"/>
	<stop  offset="0.102" style="stop-color:#393939;stop-opacity:0.949"/>
	<stop  offset="0.3475" style="stop-color:#7F7F7F;stop-opacity:0.8262"/>
	<stop  offset="0.5688" style="stop-color:#B6B6B6;stop-opacity:0.7156"/>
	<stop  offset="0.7582" style="stop-color:#DEDEDE;stop-opacity:0.6209"/>
	<stop  offset="0.9081" style="stop-color:#F6F6F6;stop-opacity:0.5459"/>
	<stop  offset="1" style="stop-color:#FFFFFF;stop-opacity:0.5"/>
</linearGradient>
<circle opacity="0.1" fill="url(#SVGID_1_)" cx="32" cy="32" r="30"/>
</svg>
