<?xml version="1.0" encoding="utf-8"?>
<!-- Generator: Adobe Illustrator 15.0.0, SVG Export Plug-In . SVG Version: 6.00 Build 0)  -->
<!DOCTYPE svg PUBLIC "-//W3C//DTD SVG 1.1//EN" "http://www.w3.org/Graphics/SVG/1.1/DTD/svg11.dtd" [
	<!ENTITY ns_flows "http://ns.adobe.com/Flows/1.0/">
	<!ENTITY ns_extend "http://ns.adobe.com/Extensibility/1.0/">
	<!ENTITY ns_ai "http://ns.adobe.com/AdobeIllustrator/10.0/">
	<!ENTITY ns_graphs "http://ns.adobe.com/Graphs/1.0/">
]>
<svg version="1.1" id="Layer_1" xmlns:x="&ns_extend;" xmlns:i="&ns_ai;" xmlns:graph="&ns_graphs;"
	 xmlns="http://www.w3.org/2000/svg" xmlns:xlink="http://www.w3.org/1999/xlink" xmlns:a="http://ns.adobe.com/AdobeSVGViewerExtensions/3.0/"
	 x="0px" y="0px" width="64px" height="64px" viewBox="0 0 64 64" enable-background="new 0 0 64 64" xml:space="preserve">
<path fill="#F5F5F5" d="M61.721,28c-0.138-1.016-0.316-2.019-0.551-3H2.829c-0.234,0.981-0.413,1.984-0.55,3H61.721z"/>
<path fill="#F5F5F5" d="M2.279,36c0.137,1.016,0.315,2.018,0.55,3H61.17c0.234-0.982,0.413-1.984,0.551-3H2.279z"/>
<path fill="#F5F5F5" d="M20,4.489c-1.03,0.45-2.034,0.952-3,1.513v51.996c0.966,0.561,1.97,1.063,3,1.512V4.489z"/>
<path fill="#F5F5F5" d="M28,2.263v59.474c0.986,0.133,1.984,0.23,3,0.264V2C29.984,2.033,28.986,2.131,28,2.263z"/>
<path fill="#014D87" d="M2,32c0,1.357,0.099,2.689,0.273,4h59.453C61.9,34.689,62,33.357,62,32s-0.1-2.69-0.273-4H2.273
	C2.099,29.31,2,30.643,2,32z"/>
<path fill="#014D87" d="M20,59.496c2.507,1.096,5.191,1.855,8,2.23V2.273c-2.809,0.375-5.493,1.135-8,2.23V59.496z"/>
<path fill="#E81C27" d="M17,25V6.023C9.982,10.084,4.766,16.902,2.829,25H17z"/>
<path fill="#E81C27" d="M17,39.023V58C9.982,53.939,4.766,47.121,2.829,39.023H17z"/>
<path fill="#E81C27" d="M32,2c-0.336,0-0.668,0.015-1,0.025V25h30.17C58.016,11.81,46.156,2,32,2z"/>
<path fill="#E81C27" d="M31,39v22.975C31.332,61.984,31.664,62,32,62c14.156,0,26.016-9.811,29.17-23H31z"/>
<linearGradient id="SVGID_1_" gradientUnits="userSpaceOnUse" x1="32.0005" y1="62" x2="32.0005" y2="2.0005">
	<stop  offset="0" style="stop-color:#1A1A1A"/>
	<stop  offset="0.102" style="stop-color:#393939;stop-opacity:0.949"/>
	<stop  offset="0.3475" style="stop-color:#7F7F7F;stop-opacity:0.8262"/>
	<stop  offset="0.5688" style="stop-color:#B6B6B6;stop-opacity:0.7156"/>
	<stop  offset="0.7582" style="stop-color:#DEDEDE;stop-opacity:0.6209"/>
	<stop  offset="0.9081" style="stop-color:#F6F6F6;stop-opacity:0.5459"/>
	<stop  offset="1" style="stop-color:#FFFFFF;stop-opacity:0.5"/>
	<a:midPointStop  offset="0" style="stop-color:#1A1A1A"/>
	<a:midPointStop  offset="0.4" style="stop-color:#1A1A1A"/>
	<a:midPointStop  offset="1" style="stop-color:#FFFFFF;stop-opacity:0.5"/>
</linearGradient>
<circle opacity="0.1" fill="url(#SVGID_1_)" cx="32" cy="32" r="30"/>
</svg>
