<?xml version="1.0" encoding="utf-8"?>
<!-- Generator: Adobe Illustrator 21.0.0, SVG Export Plug-In . SVG Version: 6.00 Build 0)  -->
<svg version="1.1" id="Layer_1" xmlns="http://www.w3.org/2000/svg" xmlns:xlink="http://www.w3.org/1999/xlink" x="0px" y="0px"
	 width="64px" height="64px" viewBox="0 0 64 64" enable-background="new 0 0 64 64" xml:space="preserve">
<path fill="#014D87" d="M32,2C21.74,2,12.7,7.15,7.28,15h49.43C51.3,7.15,42.25,2,32,2z"/>
<path fill="#014D87" d="M32,62c10.25,0,19.3-5.15,24.71-13H7.28C12.7,56.85,21.74,62,32,62z"/>
<path fill="#E81C27" d="M59.04,19H4.96C3.06,22.93,2,27.34,2,32c0,4.66,1.06,9.07,2.96,13h54.09C60.94,41.07,62,36.66,62,32
	C62,27.34,60.94,22.93,59.04,19z"/>
<path fill="#F5F5F5" d="M4.96,45c0.67,1.4,1.46,2.73,2.33,4h49.43c0.87-1.27,1.66-2.6,2.33-4H4.96z"/>
<path fill="#F5F5F5" d="M59.04,19c-0.67-1.4-1.46-2.73-2.33-4H7.28c-0.87,1.27-1.66,2.6-2.33,4H59.04z"/>
<circle fill="#F5F5F5" cx="18" cy="32" r="11"/>
<polygon fill="#E81C27" points="18,35.91 22.95,39.67 21.07,33.56 26,29.78 19.9,29.76 18,23.67 16.1,29.76 10,29.78 14.92,33.56 
	13.05,39.67 "/>
<linearGradient id="SVGID_1_" gradientUnits="userSpaceOnUse" x1="32" y1="62" x2="32" y2="2">
	<stop  offset="0" style="stop-color:#1A1A1A"/>
	<stop  offset="0.102" style="stop-color:#393939;stop-opacity:0.949"/>
	<stop  offset="0.3475" style="stop-color:#7F7F7F;stop-opacity:0.8262"/>
	<stop  offset="0.5688" style="stop-color:#B6B6B6;stop-opacity:0.7156"/>
	<stop  offset="0.7582" style="stop-color:#DEDEDE;stop-opacity:0.6209"/>
	<stop  offset="0.9081" style="stop-color:#F6F6F6;stop-opacity:0.5459"/>
	<stop  offset="1" style="stop-color:#FFFFFF;stop-opacity:0.5"/>
</linearGradient>
<circle opacity="0.1" fill="url(#SVGID_1_)" cx="32" cy="32" r="30"/>
</svg>
