<?xml version="1.0" encoding="utf-8"?>
<!-- Generator: Adobe Illustrator 21.0.0, SVG Export Plug-In . SVG Version: 6.00 Build 0)  -->
<svg version="1.1" id="Layer_1" xmlns="http://www.w3.org/2000/svg" xmlns:xlink="http://www.w3.org/1999/xlink" x="0px" y="0px"
	 width="64px" height="64px" viewBox="0 0 64 64" enable-background="new 0 0 64 64" xml:space="preserve">
<circle fill="#F5F5F5" cx="32" cy="32" r="30"/>
<path fill="#FFE12C" d="M28.71,24.58c-0.23,0.46-0.57,0.71-0.57,0.71s7.89,0.71,7.61-0.01c-0.28-0.72-0.94-1.22-0.94-1.22
	s0.64-0.07,0.8-0.28c-1.02-0.49-1.6-1.52-1.6-1.52c0.29,0.09,0.73-0.01,0.73-0.01c-1.12-1.56-0.6-1.95-1.01-2.99
	c-0.41-1.04-1.11-1.24-1.29-1.34c-0.17-0.1-1.34-0.19-1.77,0.03c-0.44,0.22-0.46,0.54-0.52,0.54c-0.05,0-0.4-0.06-0.54,0.31
	c-0.02,0.05-0.03,0.1-0.04,0.15c-0.18,0-0.37,0.02-0.59,0.04c-1.07,0.13-0.92,1.47-0.92,1.47c0.08-0.06,0.29-0.47,0.66-0.41
	c0.37,0.06,0.51-0.04,0.75-0.03c0.75,0.02,0.82,0.68,0.82,0.94c-0.04,0.02-0.08,0.06-0.15,0.16c-0.26,0.38-0.3,0.63-0.3,0.63
	C29.6,22.91,28.91,23,28.91,23c0.35,0.19,0.52,0.13,0.55,0.12c-0.36,0.18-0.86,0.82-0.86,0.82c-0.34,0.52-0.6,0.43-0.6,0.43
	C28.36,24.71,28.71,24.58,28.71,24.58z"/>
<path fill="#FFE12C" d="M57.06,17c-0.42-0.77-1.7,0.13-3.23,0.55c0,0-3.56,1.12-5.69,1.56c-0.22,0.02-0.44,0.08-0.44,0.08
	c-0.01,0-0.02,0.01-0.02,0.01l0,0l0,0c-5.8,1.48-7.38,2.42-7.38,2.42c-1.09,0.66-0.83,2.26-0.11,2.8c0.29,0.22,0.27,0.59,0.06,0.8
	c-0.26,0.24-0.58,0.02-0.58,0.02c-0.96-0.48-1.5-0.07-1.5-0.07s-0.89,4.31,0.24,4.92l-0.2,1.4c0,0,0.85,0.69,1.56,0
	c0,0,0.29,0.35,0.86,0.24c0.57-0.1,0.67-0.4,0.72-0.57c0,0,0.5,0.29,0.92,0.06c0.42-0.23,0.42-0.58,0.42-0.58s0.73,0.14,1.1-0.35
	c0.37-0.49,0.14-0.98-0.05-1.04c0,0,0.79,0.21,1-0.47c0.18-0.58-0.23-0.87-0.23-0.87s1.66-0.01,2.34-0.53c0,0,0.56-0.36,0.23-0.73
	c0,0,1.5-0.24,1.87-0.83c0,0,0.16-0.16,0.11-0.45c0,0-0.01-0.17-0.17-0.17c0,0,1.71-0.26,2.2-0.83c0,0,0.24-0.26,0.12-0.6
	c0,0-0.03-0.09-0.07-0.15c0,0,1.55-0.33,2.32-1.02c0,0,0.44-0.39,0.21-0.92c0,0,2.59-0.71,1.99-1.85c0,0,1.21-0.39,0.83-1.49
	C56.49,18.31,57.49,17.8,57.06,17z"/>
<path fill="#FFE12C" d="M19.26,28.77c0.21,0.68,1,0.47,1,0.47c-0.2,0.06-0.43,0.55-0.05,1.04c0.38,0.49,1.1,0.35,1.1,0.35
	s0,0.35,0.42,0.58c0.42,0.23,0.92-0.06,0.92-0.06c0.05,0.17,0.15,0.47,0.72,0.57c0.57,0.1,0.86-0.24,0.86-0.24
	c0.71,0.69,1.56,0,1.56,0l-0.2-1.4c1.13-0.61,0.24-4.92,0.24-4.92s-0.54-0.41-1.5,0.07c0,0-0.32,0.22-0.58-0.02
	c-0.21-0.21-0.23-0.58,0.06-0.8c0.72-0.53,0.98-2.13-0.11-2.8c0,0-1.58-0.94-7.38-2.42l0,0l0,0c-0.01,0-0.02,0-0.02-0.01
	c0,0-0.21-0.06-0.44-0.08c-2.13-0.44-5.69-1.56-5.69-1.56C8.65,17.13,7.36,16.23,6.94,17c-0.44,0.81,0.57,1.31,0.57,1.31
	c-0.38,1.1,0.83,1.49,0.83,1.49c-0.6,1.14,1.99,1.85,1.99,1.85c-0.23,0.53,0.21,0.92,0.21,0.92c0.77,0.69,2.32,1.02,2.32,1.02
	c-0.04,0.06-0.07,0.15-0.07,0.15c-0.12,0.34,0.12,0.6,0.12,0.6c0.49,0.56,2.2,0.83,2.2,0.83c-0.16,0.01-0.17,0.17-0.17,0.17
	c-0.05,0.29,0.11,0.45,0.11,0.45c0.37,0.59,1.87,0.83,1.87,0.83c-0.34,0.37,0.23,0.73,0.23,0.73c0.68,0.52,2.34,0.53,2.34,0.53
	S19.08,28.19,19.26,28.77z"/>
<path fill="#FFE12C" d="M26.14,37.41c0,0,0.16-0.59,1.11-1.1c0,0,1.08-0.41,1.06-0.94c-0.03-0.54-2.41-3.4-2.41-3.4
	s-0.18,0.94-1.56,2.12c0,0-1.07,0.94-1.04,2.03c0.03,1.11-0.19,1.23-0.61,1.61c0,0,0.11,0.01,0.26-0.01
	c-0.26,0.35-0.77,0.94-1.36,0.96c0,0-1.44-0.18-1.85,0.2c-0.28,0.26-0.57,0.48-0.69,1.15c-0.12,0.67,0.23,0.82,0.31,0.84
	c0,0,0.06,0.48,0.54,0.36c0,0,0.03,0.5,0.87,0.26c0.84-0.24,1.19-0.16,1.35-1c0.16-0.84,0.31-0.82,0.46-0.92
	c0.2-0.13,0.58-0.26,0.86-0.42c0.22-0.13,1-0.53,1.41-0.64c0.01,0.09,0.03,0.19,0.06,0.28c0,0,0.06-0.24,0.4-0.35
	C25.3,38.42,25.91,38.29,26.14,37.41z"/>
<path fill="#FFE12C" d="M44.26,38.86c-0.41-0.38-1.85-0.2-1.85-0.2c-0.59-0.01-1.11-0.61-1.36-0.96c0.15,0.01,0.26,0.01,0.26,0.01
	c-0.42-0.38-0.64-0.5-0.61-1.61c0.03-1.08-1.04-2.03-1.04-2.03c-1.38-1.18-1.56-2.12-1.56-2.12s-2.39,2.87-2.42,3.4
	c-0.03,0.53,1.06,0.94,1.06,0.94c0.96,0.52,1.11,1.1,1.11,1.1c0.24,0.88,0.85,1.01,0.85,1.01c0.34,0.11,0.4,0.35,0.4,0.35
	c0.03-0.09,0.05-0.19,0.06-0.28c0.4,0.12,1.18,0.51,1.41,0.64c0.28,0.16,0.66,0.29,0.86,0.42c0.15,0.1,0.3,0.09,0.46,0.92
	c0.16,0.83,0.51,0.76,1.35,1c0.84,0.24,0.87-0.26,0.87-0.26c0.47,0.13,0.54-0.36,0.54-0.36c0.08-0.03,0.43-0.17,0.31-0.84
	C44.84,39.34,44.55,39.12,44.26,38.86z"/>
<path fill="#FFE12C" d="M36.09,36.84c0.01-0.21-0.11-0.53-0.52-0.99c-1-1.13-2.6,1.26-3.05,2c-0.14-0.18-0.32-0.28-0.52-0.28
	c-0.2,0-0.38,0.11-0.52,0.28c-0.46-0.74-2.05-3.13-3.05-2c-0.41,0.47-0.54,0.78-0.52,0.99c-3.93,3.62-2.02,3.94-2.02,3.94l0,0l0,0
	l0,0c0,0.93,0.83,0.71,0.83,0.71c-0.09,0.99,0.67,0.85,0.67,0.85c-0.01,1.12,0.81,0.92,0.81,0.92c0.14,1.19,1.05,0.71,1.05,0.71l0,0
	l0,0l0,0c-0.05,1.02,0.56,1.07,0.56,1.07c0.71,0.07,1.01-0.66,1.09-0.92c0.01,0.17,0.01,0.34,0.03,0.5c0.06,0.8,0.49,1.45,1.07,1.45
	c0.58,0,1.01-0.65,1.07-1.45c0.01-0.16,0.02-0.33,0.02-0.5c0.08,0.26,0.38,0.99,1.09,0.92c0,0,0.61-0.06,0.56-1.07
	c0,0,0.9,0.48,1.05-0.71l0,0l0,0c0,0,0.82,0.19,0.81-0.92l0,0l0,0c0,0,0.77,0.13,0.67-0.85c0,0,0.83,0.22,0.83-0.71l0,0l0,0l0,0
	C38.11,40.78,40.03,40.46,36.09,36.84z"/>
<polygon fill="#014D87" points="47.29,33.86 48.09,34.29 44.13,38.92 44.56,39.4 48.53,34.71 49.03,35.51 50.91,31.47 "/>
<polygon fill="#014D87" points="47.57,32.22 48.22,32.88 49.19,28.5 46.18,31.69 47.05,31.92 44.25,37.25 45.12,33.51 45.91,33.97 
	45.77,29.47 43.64,33.37 44.54,33.36 43.25,38.83 43.79,39.22 43.85,38.96 44.02,39.06 "/>
<path fill="#014D87" d="M43.38,42.3l-0.37-0.64l0.13-0.52c0,0,0,0-0.01-0.01l0.34-0.43c0.01-0.11-0.03-0.2-0.09-0.28l0,0
	c-0.08-0.13-0.19-0.2-0.29-0.24l0,0l0,0c-0.14-0.06-0.27-0.06-0.27-0.06l-0.51,0.98l-0.99,0l-0.42,0.79l-0.26-0.07l-2.85,3.33
	l1.48,0.11l0.26,1.54l1-1.18l-0.25,1.07l1.36-0.63l0.92,1.23l1.03-4.35l-0.37-0.37L43.38,42.3z"/>
<path fill="#529320" d="M20.92,39.06c0,0-0.05-0.32,0.57-0.56c0.62-0.24,0.66-1.12,0.54-1.71c0,0-0.32,0.56-0.71,0.75
	c0,0-0.64,0.33-0.67,0.96c0,0,0,0.23-0.05,0.41c-0.03,0.1-0.31-0.79,0.23-1.45c0.55-0.68,0.7-1.24,0.27-2.32
	c0,0-0.04,0.65-0.47,1.03c-0.43,0.38-0.49,0.4-0.48,1.3c0,0,0.01,0.31-0.16,0.41c0,0-0.33-0.49-0.42-0.81
	c-0.09-0.32-0.13-0.46,0.25-0.84c0,0,1.23-0.79,0.34-2.53c0,0-0.03,0.6-0.45,0.95c-0.43,0.35-0.39,0.59-0.41,1.2
	c-0.02,0.61-0.06,0.57-0.11,0.65c0,0-0.78-1.43-0.18-2.2c0.6-0.76,0.94-0.92,0.27-2.34c0,0,0.03,0.73-0.5,1.09
	c-0.53,0.36-0.41,1.2-0.41,1.2s0.03,0.32-0.08,0.55c0,0-0.75-1.46-0.03-2.25c0.61-0.67,0.65-1.14,0.32-2.09c0,0-0.04,0.44-0.38,0.68
	c-0.33,0.24-0.6,0.47-0.54,1.39c0,0,0.03,0.64-0.05,0.82c0,0-0.31-0.58-0.4-0.96c-0.09-0.38-0.12-0.61,0.11-0.99
	c0.23-0.38,1.16-1.48,0.05-3.05c0,0-0.03,0.51-0.31,0.97c-0.28,0.46-0.15,1.01-0.09,1.43c0.06,0.42-0.14,0.82-0.14,0.82
	s-0.48-0.88-0.38-1.88c0.1-1.01-0.31-1.84-1.24-2.43c0,0-0.68,1.57,0.25,2.37c0,0,0.79,0.78,0.98,1.72c0,0-0.59-0.06-1.13-1.11
	c-0.54-1.05-1.66-0.89-1.74-0.89c0,0,0.18,1.63,1.91,2.09c0,0,1.1,0.19,1.31,0.99c0,0,0.18,0.55,0.26,0.85c0,0-0.35-0.14-0.67-0.61
	c-0.32-0.47-0.28-0.53-1.37-0.64c0,0-0.44-0.05-0.67-0.36c0,0,0.46,1.72,1.63,1.71c0,0,1.07-0.12,1.68,1.29c0,0-0.12-0.07-0.27-0.18
	c-0.16-0.11-0.55-0.31-1.34-0.21c-0.79,0.09-1.01-0.04-1.2-0.1c0,0,0.79,1.46,1.91,1.02c1.12-0.43,1.66,1.14,1.68,1.17
	c0,0-0.15-0.12-0.35-0.31c-0.2-0.2-0.61-0.44-1.39-0.19c0,0-0.56,0.22-1.13,0.04c0,0,0.55,1.06,1.82,0.88
	c1.28-0.18,1.6,0.95,1.6,0.95s-0.17-0.1-0.29-0.2c-0.12-0.09-0.55-0.34-1.47-0.06c-0.92,0.27-1.26-0.04-1.26-0.04
	s0.51,0.94,1.5,1.04c0,0,0.55-0.01,0.78-0.09c0.23-0.09,0.85-0.22,1.27,0.39c0,0-0.12,0.02-0.29-0.06c0,0-0.66-0.24-1.16,0.18
	c0,0-0.44,0.46-1.07,0.37c0,0,0.81,0.79,2.11,0.12c0,0,0.44-0.32,0.76-0.07C20.17,39.54,20.92,39.06,20.92,39.06z"/>
<path fill="#529320" d="M20.78,41.05c0,0-0.02-0.58,0.72-0.63l2.17,3.02c0,0-0.08,0.2-1.07,0.17c0,0-0.11,0-0.16,0.12
	C22.36,43.91,20.78,41.05,20.78,41.05z"/>
<path fill="#F5F5F5" d="M31.93,38.38c0,0,6.58-2.92,6.6-9.67h-13.2C25.35,35.46,31.93,38.38,31.93,38.38z"/>
<path fill="#E81C27" d="M26.35,28.71v4.31c0,0,0.5,1,1.01,1.63v-5.94H26.35L26.35,28.71z"/>
<path fill="#E81C27" d="M28.38,28.71v7.11c0,0,0.64,0.62,1.02,0.92v-8.03H28.38z"/>
<path fill="#E81C27" d="M30.41,28.71v8.79c0,0,0.72,0.47,1.02,0.62v-9.41H30.41z"/>
<path fill="#E81C27" d="M37.51,28.71v4.31c0,0-0.5,1-1.01,1.63v-5.94H37.51z"/>
<path fill="#E81C27" d="M35.48,28.71v7.11c0,0-0.63,0.62-1.02,0.92v-8.03H35.48z"/>
<path fill="#E81C27" d="M33.45,28.71v8.79c0,0-0.72,0.47-1.02,0.62v-9.41H33.45z"/>
<path fill="#014D87" d="M38.53,23.81c0,0-3.23,1.69-6.6-0.14c-3.37,1.83-6.6,0.14-6.6,0.14v4.9h13.2V23.81L38.53,23.81z"/>
<path fill="#014D87" d="M8.43,36.39c0.32-0.13,0.55-0.26,0.55-0.6c0-0.08-0.04-0.26-0.14-0.54L6.7,28.69
	c-0.13-0.39-0.22-0.62-0.27-0.71c-0.1-0.19-0.29-0.26-0.54-0.37h0.26h2.2h0.27c-0.3,0.14-0.57,0.25-0.56,0.57
	c0,0.12,0.03,0.29,0.1,0.51l1.65,5.15l1.64-5.15c0.07-0.22,0.11-0.39,0.11-0.51c0-0.32-0.29-0.44-0.56-0.57h0.26h2.12h0.26
	c-0.24,0.1-0.44,0.17-0.54,0.37c-0.04,0.09-0.14,0.32-0.27,0.71l-2.15,6.56c-0.09,0.28-0.12,0.46-0.14,0.55c0,0-0.1,0.42,0.55,0.59
	H8.43L8.43,36.39z"/>
<path fill="#014D87" d="M54.21,35.71v-7.43c0-0.13-0.02-0.23-0.06-0.3c-0.04-0.07-0.23-0.27-0.49-0.37h0.26h1.93h0.26
	c-0.26,0.09-0.45,0.3-0.49,0.37c-0.04,0.07-0.06,0.17-0.06,0.3v7.43c0,0.13,0.02,0.23,0.07,0.31c0.04,0.07,0.22,0.24,0.49,0.37
	h-0.26h-1.93h-0.26c0.26-0.12,0.45-0.3,0.49-0.37C54.19,35.95,54.21,35.85,54.21,35.71z"/>
<linearGradient id="SVGID_1_" gradientUnits="userSpaceOnUse" x1="32" y1="62" x2="32" y2="2">
	<stop  offset="0" style="stop-color:#1A1A1A"/>
	<stop  offset="0.102" style="stop-color:#393939;stop-opacity:0.949"/>
	<stop  offset="0.3475" style="stop-color:#7F7F7F;stop-opacity:0.8262"/>
	<stop  offset="0.5688" style="stop-color:#B6B6B6;stop-opacity:0.7156"/>
	<stop  offset="0.7582" style="stop-color:#DEDEDE;stop-opacity:0.6209"/>
	<stop  offset="0.9081" style="stop-color:#F6F6F6;stop-opacity:0.5459"/>
	<stop  offset="1" style="stop-color:#FFFFFF;stop-opacity:0.5"/>
</linearGradient>
<circle opacity="0.1" fill="url(#SVGID_1_)" cx="32" cy="32" r="30"/>
</svg>
