<?xml version="1.0" encoding="utf-8"?>
<!-- Generator: Adobe Illustrator 21.0.0, SVG Export Plug-In . SVG Version: 6.00 Build 0)  -->
<svg version="1.1" id="Layer_1" xmlns="http://www.w3.org/2000/svg" xmlns:xlink="http://www.w3.org/1999/xlink" x="0px" y="0px"
	 width="64px" height="64px" viewBox="0 0 64 64" enable-background="new 0 0 64 64" xml:space="preserve">
<path fill="#E81C27" d="M32,2C22.81,2,14.58,6.14,9.08,12.65V32h52.09v-7C58.02,11.81,46.16,2,32,2z"/>
<path fill="#529320" d="M9.08,32v19.35C14.58,57.86,22.81,62,32,62c14.16,0,26.02-9.81,29.17-23v-7H9.08z"/>
<path fill="#302C3B" d="M9.08,12.65c-0.94,1.11-1.8,2.3-2.57,3.54v3.69H4.56C2.92,23.59,2,27.69,2,32s0.92,8.41,2.56,12.11h1.95
	v3.69c0.77,1.24,1.63,2.43,2.57,3.54L28.43,32L9.08,12.65z"/>
<path fill="#302C3B" d="M61.93,34v-4h0c-0.12-1.71-0.37-3.38-0.76-5H9.08v14h52.09C61.56,37.38,61.81,35.71,61.93,34L61.93,34z"/>
<path fill="#FFE12C" d="M6.51,16.18c-0.73,1.18-1.39,2.42-1.95,3.7L16.67,32L4.55,44.11c0.57,1.29,1.22,2.52,1.95,3.7L20.33,34h41.6
	c0.04-0.66,0.07-1.33,0.07-2c0-0.67-0.03-1.34-0.07-2h-41.6L6.51,16.18z"/>
<path fill="#FDCE12" d="M7.32,26.69c-1.13,0-4.6,0.81-4.6,4.43s3.41,3.96,4.08,3.96c0.67,0,3.19-0.61,2.9-3.32
	c0,0.77-0.87,2.4-2.7,2.4c-1.83,0-2.97-1.36-2.97-2.7c0-1.34,1.11-3.14,3.04-3.14s3.34,1.71,3.34,3.44c0,1.73-1.36,3.93-3.52,3.93
	c0,0,0,1.31,0,2.06c1.8,0,5.32-1.38,5.32-5.81C12.21,27.51,8.45,26.69,7.32,26.69z"/>
<path fill="#FDCE12" d="M7.4,30.86c-0.02-0.01-0.04-0.02-0.06-0.03c0.03-0.03,0.05-0.06,0.08-0.08c0.15-0.1,0.38-0.11,0.54-0.18
	c0.31-0.17,0.52-0.43,0.68-0.86L8.6,29.63C8.13,29.54,7.75,29.71,7.5,30c-0.11,0.16-0.16,0.39-0.28,0.54
	c-0.04,0.05-0.09,0.09-0.15,0.13c-0.05-0.04-0.11-0.08-0.15-0.13C6.82,30.39,6.77,30.17,6.66,30c-0.25-0.29-0.63-0.46-1.1-0.38
	L5.52,29.7c0.16,0.43,0.37,0.7,0.68,0.86c0.17,0.07,0.39,0.08,0.54,0.18c0.03,0.02,0.05,0.05,0.08,0.08
	c-0.02,0.01-0.04,0.02-0.05,0.03c-0.38,0.14-0.67,0.4-0.91,0.68c-0.21,0.32-0.35,0.68-0.33,1.14l0.07,0.05
	c0.44-0.13,0.73-0.35,0.98-0.6c0.21-0.26,0.39-0.54,0.51-0.89c0.12,0.35,0.3,0.63,0.51,0.89c0.25,0.25,0.54,0.46,0.98,0.6l0.07-0.05
	c0.02-0.46-0.13-0.82-0.33-1.14C8.07,31.25,7.78,31,7.4,30.86z"/>
<linearGradient id="SVGID_1_" gradientUnits="userSpaceOnUse" x1="32" y1="62" x2="32" y2="2">
	<stop  offset="0" style="stop-color:#1A1A1A"/>
	<stop  offset="0.102" style="stop-color:#393939;stop-opacity:0.949"/>
	<stop  offset="0.3475" style="stop-color:#7F7F7F;stop-opacity:0.8262"/>
	<stop  offset="0.5688" style="stop-color:#B6B6B6;stop-opacity:0.7156"/>
	<stop  offset="0.7582" style="stop-color:#DEDEDE;stop-opacity:0.6209"/>
	<stop  offset="0.9081" style="stop-color:#F6F6F6;stop-opacity:0.5459"/>
	<stop  offset="1" style="stop-color:#FFFFFF;stop-opacity:0.5"/>
</linearGradient>
<circle opacity="0.1" fill="url(#SVGID_1_)" cx="32" cy="32" r="30"/>
</svg>
