<?xml version="1.0" encoding="utf-8"?>
<!-- Generator: Adobe Illustrator 21.0.0, SVG Export Plug-In . SVG Version: 6.00 Build 0)  -->
<svg version="1.1" id="Layer_1" xmlns="http://www.w3.org/2000/svg" xmlns:xlink="http://www.w3.org/1999/xlink" x="0px" y="0px"
	 width="64px" height="64px" viewBox="0 0 64 64" enable-background="new 0 0 64 64" xml:space="preserve">
<path fill="#F5F5F5" d="M62,32C62,15.43,48.57,2,32,2v60C48.57,62,62,48.57,62,32z"/>
<path fill="#FFE12C" d="M2,32c0,16.57,13.43,30,30,30V2C15.43,2,2,15.43,2,32z"/>
<path fill="#F5F5F5" d="M49,21.33c0,2.94,0,3.81-3,3.81s-3-0.86-3-3.81c0-2.94,1.34-5.33,3-5.33C47.66,16,49,18.39,49,21.33z"/>
<polygon fill="#FFE12C" points="47.5,17.79 46,16.58 44.5,17.79 43,16.58 43.54,19 48.46,19 49,16.58 "/>
<polygon fill="#FFE12C" points="47.5,20.61 46,19.22 44.5,20.61 43,19.22 43,22 49,22 49,19.22 "/>
<polygon fill="#FFE12C" points="47.5,23.5 46,22 44.5,23.5 43,22 43,25 49,25 49,22 "/>
<ellipse fill="#FFE12C" cx="46" cy="15.12" rx="0.5" ry="1.46"/>
<ellipse fill="#F5F5F5" cx="46" cy="25" rx="3" ry="0.68"/>
<path fill="#E6EBEF" d="M41.92,32.6c-1.4,0-2.46-2.06-2.62-2.77c-0.21-0.96,0.28-2.01,0.8-3.12c0.25-0.55,0.73-1.56,0.66-1.86
	c-0.12-0.35-1.22-1.46-2.31-2.32l1.24-1.57c0.82,0.64,2.74,2.26,3.02,3.43c0.23,0.97-0.27,2.04-0.79,3.17
	c-0.27,0.58-0.72,1.55-0.66,1.85c0.06,0.26,0.42,0.85,0.69,1.11c0.51-0.54,1.29-2.92,1.67-5.26l1.97,0.32
	c-0.4,2.48-1.39,6.68-3.45,7.01C42.07,32.59,42,32.6,41.92,32.6z"/>
<path fill="#E6EBEF" d="M50.07,32.6c-0.07,0-0.15-0.01-0.22-0.02c-2.06-0.32-3.05-4.53-3.45-7.01l1.97-0.32
	c0.38,2.3,1.14,4.64,1.69,5.24c0.27-0.27,0.62-0.85,0.67-1.1c0.07-0.3-0.39-1.27-0.66-1.85c-0.53-1.13-1.02-2.19-0.79-3.17
	c0.28-1.17,2.2-2.79,3.02-3.43l1.24,1.57c-1.11,0.87-2.19,1.96-2.31,2.33c-0.07,0.29,0.41,1.3,0.66,1.85
	c0.52,1.11,1.01,2.16,0.8,3.12C52.54,30.54,51.48,32.6,50.07,32.6z"/>
<path fill="#FFE12C" d="M41.53,36.57c-1.41-0.9-3.24-0.71-4.45,0.61c-1.43,1.56-1.43,4.09,0,5.65c1.43,1.56,3.76,1.56,5.19,0
	c1.21-1.31,1.38-3.31,0.56-4.84l9.58-10.16l1.3,1.41l1.3-1.41L52.41,25L41.53,36.57z"/>
<path fill="#F5F5F5" d="M40.26,39.41c0.32-0.32,0.32-0.85,0-1.17c-0.32-0.32-0.85-0.32-1.17,0c-0.32,0.32-0.32,0.85,0,1.17
	c-0.32-0.32-0.85-0.32-1.17,0c-0.32,0.32-0.32,0.85,0,1.17c0.32,0.32,0.85,0.32,1.17,0c-0.32,0.32-0.32,0.85,0,1.17
	c0.33,0.32,0.85,0.32,1.17,0c0.32-0.32,0.32-0.85,0-1.17c0.32,0.32,0.85,0.32,1.17,0c0.32-0.32,0.32-0.85,0-1.17
	C41.1,39.09,40.58,39.09,40.26,39.41z"/>
<path fill="#BCBCBC" d="M50.47,36.57c1.41-0.9,3.24-0.71,4.45,0.61c1.43,1.56,1.43,4.09,0,5.65c-1.43,1.56-3.76,1.56-5.19,0
	c-1.21-1.31-1.38-3.31-0.56-4.84l-9.58-10.16l-1.3,1.41L37,27.82L39.59,25L50.47,36.57z"/>
<path fill="#F5F5F5" d="M51.74,39.42c-0.32-0.32-0.32-0.85,0-1.17c0.32-0.32,0.85-0.32,1.17,0c0.32,0.32,0.32,0.85,0,1.17
	c0.32-0.32,0.85-0.32,1.17,0c0.32,0.32,0.32,0.85,0,1.17c-0.32,0.32-0.85,0.32-1.17,0c0.32,0.32,0.32,0.85,0,1.17
	c-0.33,0.32-0.85,0.32-1.17,0c-0.32-0.32-0.32-0.85,0-1.17c-0.32,0.32-0.85,0.32-1.17,0c-0.32-0.32-0.32-0.85,0-1.17
	C50.9,39.1,51.42,39.1,51.74,39.42z"/>
<path fill="#E81C27" d="M50.41,39.76c-2.92,0.43-5.91,0.43-8.83,0c-0.59-0.09-0.84,0.56-0.25,0.65c3.09,0.45,6.24,0.45,9.32,0
	C51.25,40.32,51,39.67,50.41,39.76L50.41,39.76z"/>
<path fill="#E81C27" d="M50.3,39.23c-1.78-1.33-3.38-2.92-4.7-4.71c-0.27-0.36-0.75-0.15-0.48,0.21c1.41,1.89,3.08,3.57,4.97,4.97
	C50.45,39.98,50.66,39.5,50.3,39.23L50.3,39.23z"/>
<path fill="#E81C27" d="M46.4,34.52c-1.33,1.79-2.92,3.38-4.71,4.71c-0.36,0.27-0.15,0.75,0.21,0.48c1.89-1.41,3.57-3.08,4.97-4.97
	C47.15,34.38,46.67,34.16,46.4,34.52L46.4,34.52z"/>
<rect x="45.5" y="31" fill="#E81C27" width="1" height="13"/>
<rect x="44.5" y="32.57" transform="matrix(0.7071 -0.7071 0.7071 0.7071 -11.0362 41.8504)" fill="#E81C27" width="1" height="3.36"/>
<rect x="45.32" y="33.75" transform="matrix(0.7071 -0.7072 0.7072 0.7071 -10.4498 43.2686)" fill="#E81C27" width="3.36" height="1"/>
<path fill="#E81C27" d="M45.54,42.71c-0.55,0-1,0.45-1,1v3h2v-3C46.54,43.16,46.09,42.71,45.54,42.71z"/>
<path fill="#E81C27" d="M46.54,41.78c-0.55,0-1,0.45-1,1v3h2v-3C47.54,42.22,47.09,41.78,46.54,41.78z"/>
<ellipse transform="matrix(0.7069 -0.7073 0.7073 0.7069 -13.7799 40.9758)" fill="#BCBCBC" cx="42.55" cy="37.12" rx="1.21" ry="1.21"/>
<ellipse transform="matrix(0.7073 -0.7069 0.7069 0.7073 -19.5484 38.5551)" fill="#BCBCBC" cx="36.79" cy="42.88" rx="1.21" ry="1.21"/>
<ellipse transform="matrix(0.7071 -0.7071 0.7071 0.7071 -15.4694 36.8836)" fill="#BCBCBC" cx="36.79" cy="37.11" rx="1.21" ry="1.21"/>
<ellipse transform="matrix(0.7069 -0.7073 0.7073 0.7069 -17.8595 42.669)" fill="#BCBCBC" cx="42.55" cy="42.88" rx="1.21" ry="1.21"/>
<ellipse transform="matrix(0.7069 -0.7073 0.7073 0.7069 -10.0732 49.9354)" fill="#FFE12C" cx="55.21" cy="37.12" rx="1.21" ry="1.21"/>
<ellipse transform="matrix(0.7073 -0.7069 0.7069 0.7073 -15.8473 47.5056)" fill="#FFE12C" cx="49.44" cy="42.89" rx="1.21" ry="1.21"/>
<ellipse transform="matrix(0.7071 -0.7071 0.7071 0.7071 -11.7657 45.8352)" fill="#FFE12C" cx="49.45" cy="37.12" rx="1.21" ry="1.21"/>
<ellipse transform="matrix(0.7069 -0.7073 0.7073 0.7069 -14.1535 51.6224)" fill="#FFE12C" cx="55.21" cy="42.89" rx="1.21" ry="1.21"/>
<rect x="38.14" y="20.93" fill="#FFE12C" width="1.97" height="2.18"/>
<rect x="51.89" y="20.93" fill="#FFE12C" width="1.97" height="2.18"/>
<polygon fill="#FFE12C" points="44.15,28.76 43.56,28.6 44.16,26.4 44.76,26.56 "/>
<rect x="43.94" y="26.5" transform="matrix(0.2652 -0.9642 0.9642 0.2652 6.1922 62.709)" fill="#FFE12C" width="0.61" height="1.58"/>
<polygon fill="#FFE12C" points="47.85,28.76 48.44,28.6 47.84,26.4 47.24,26.56 "/>
<rect x="46.97" y="26.99" transform="matrix(0.9642 -0.2652 0.2652 0.9642 -5.5271 13.6415)" fill="#FFE12C" width="1.58" height="0.61"/>
<polygon fill="#F5F5F5" points="52.5,28.1 50.78,29.56 49.65,26.52 51.42,25.61 "/>
<polygon fill="#F5F5F5" points="39.5,28.1 41.22,29.56 42.35,26.52 40.58,25.61 "/>
<polygon fill="#FFE12C" points="41.5,26.45 40.94,26.29 40.8,26.81 40.36,26.68 40.21,27.26 40.65,27.39 40.36,28.49 40.93,28.65 
	41.21,27.55 41.65,27.68 41.8,27.1 41.37,26.97 "/>
<polygon fill="#FFE12C" points="51.79,27.26 51.64,26.68 51.2,26.81 51.06,26.29 50.5,26.45 50.63,26.97 50.2,27.1 50.35,27.68 
	50.79,27.55 51.07,28.65 51.64,28.49 51.35,27.39 "/>
<linearGradient id="SVGID_1_" gradientUnits="userSpaceOnUse" x1="32.0003" y1="62" x2="32.0003" y2="2">
	<stop  offset="0" style="stop-color:#1A1A1A"/>
	<stop  offset="0.102" style="stop-color:#393939;stop-opacity:0.949"/>
	<stop  offset="0.3475" style="stop-color:#7F7F7F;stop-opacity:0.8262"/>
	<stop  offset="0.5688" style="stop-color:#B6B6B6;stop-opacity:0.7156"/>
	<stop  offset="0.7582" style="stop-color:#DEDEDE;stop-opacity:0.6209"/>
	<stop  offset="0.9081" style="stop-color:#F6F6F6;stop-opacity:0.5459"/>
	<stop  offset="1" style="stop-color:#FFFFFF;stop-opacity:0.5"/>
</linearGradient>
<circle opacity="0.1" fill="url(#SVGID_1_)" cx="32" cy="32" r="30"/>
</svg>
