<?xml version="1.0" encoding="utf-8"?>
<!-- Generator: Adobe Illustrator 21.0.0, SVG Export Plug-In . SVG Version: 6.00 Build 0)  -->
<svg version="1.1" id="Layer_1" xmlns="http://www.w3.org/2000/svg" xmlns:xlink="http://www.w3.org/1999/xlink" x="0px" y="0px"
	 width="64px" height="64px" viewBox="0 0 64 64" enable-background="new 0 0 64 64" xml:space="preserve">
<path fill="#E81C27" d="M32,2C21.32,2,11.94,7.59,6.63,16h50.74C52.06,7.59,42.68,2,32,2z"/>
<path fill="#014D87" d="M6.63,16C3.7,20.63,2,26.12,2,32h60c0-5.88-1.7-11.37-4.63-16H6.63z"/>
<path fill="#529320" d="M6.63,48C11.94,56.41,21.32,62,32,62s20.06-5.59,25.37-14H6.63z"/>
<path fill="#FFE12C" d="M57.37,48C60.3,43.37,62,37.88,62,32H2c0,5.88,1.7,11.37,4.63,16H57.37z"/>
<linearGradient id="SVGID_1_" gradientUnits="userSpaceOnUse" x1="32" y1="62" x2="32" y2="2">
	<stop  offset="0" style="stop-color:#1A1A1A"/>
	<stop  offset="0.102" style="stop-color:#393939;stop-opacity:0.949"/>
	<stop  offset="0.3475" style="stop-color:#7F7F7F;stop-opacity:0.8262"/>
	<stop  offset="0.5688" style="stop-color:#B6B6B6;stop-opacity:0.7156"/>
	<stop  offset="0.7582" style="stop-color:#DEDEDE;stop-opacity:0.6209"/>
	<stop  offset="0.9081" style="stop-color:#F6F6F6;stop-opacity:0.5459"/>
	<stop  offset="1" style="stop-color:#FFFFFF;stop-opacity:0.5"/>
</linearGradient>
<circle opacity="0.1" fill="url(#SVGID_1_)" cx="32" cy="32" r="30"/>
</svg>
