<?xml version="1.0" encoding="utf-8"?>
<!-- Generator: Adobe Illustrator 21.0.0, SVG Export Plug-In . SVG Version: 6.00 Build 0)  -->
<svg version="1.1" id="Layer_1" xmlns="http://www.w3.org/2000/svg" xmlns:xlink="http://www.w3.org/1999/xlink" x="0px" y="0px"
	 width="64px" height="64px" viewBox="0 0 64 64" enable-background="new 0 0 64 64" xml:space="preserve">
<path fill="#529320" d="M2,32c0,9.81,4.71,18.53,12,24h36c7.29-5.47,12-14.19,12-24c0-9.81-4.71-18.53-12-24H14
	C6.71,13.47,2,22.19,2,32z"/>
<path fill="#E81C27" d="M14,8h36c-5.02-3.77-11.25-6-18-6S19.01,4.23,14,8z"/>
<path fill="#E81C27" d="M32,62c6.75,0,12.99-2.23,18-6H14C19.01,59.77,25.25,62,32,62z"/>
<path fill="#F5F5F5" d="M43,49.64C34.63,47.97,28.33,40.71,28.33,32c0-8.71,6.3-15.97,14.67-17.64C41.82,14.13,40.59,14,39.33,14
	C29.21,14,21,22.06,21,32c0,9.94,8.21,18,18.33,18C40.59,50,41.82,49.88,43,49.64z"/>
<linearGradient id="SVGID_1_" gradientUnits="userSpaceOnUse" x1="32" y1="62" x2="32" y2="2">
	<stop  offset="0" style="stop-color:#1A1A1A"/>
	<stop  offset="0.102" style="stop-color:#393939;stop-opacity:0.949"/>
	<stop  offset="0.3475" style="stop-color:#7F7F7F;stop-opacity:0.8262"/>
	<stop  offset="0.5688" style="stop-color:#B6B6B6;stop-opacity:0.7156"/>
	<stop  offset="0.7582" style="stop-color:#DEDEDE;stop-opacity:0.6209"/>
	<stop  offset="0.9081" style="stop-color:#F6F6F6;stop-opacity:0.5459"/>
	<stop  offset="1" style="stop-color:#FFFFFF;stop-opacity:0.5"/>
</linearGradient>
<circle opacity="0.1" fill="url(#SVGID_1_)" cx="32" cy="32" r="30"/>
</svg>
