<?xml version="1.0" encoding="utf-8"?>
<!-- Generator: Adobe Illustrator 21.0.0, SVG Export Plug-In . SVG Version: 6.00 Build 0)  -->
<svg version="1.1" id="Layer_1" xmlns="http://www.w3.org/2000/svg" xmlns:xlink="http://www.w3.org/1999/xlink" x="0px" y="0px"
	 width="64px" height="64px" viewBox="0 0 64 64" enable-background="new 0 0 64 64" xml:space="preserve">
<path fill="#F5F5F5" d="M10.79,26H61.4c-0.9-4.43-2.78-8.51-5.4-12H10.79V26z"/>
<path fill="#F5F5F5" d="M10.79,38v12H56c2.62-3.49,4.5-7.57,5.4-12H10.79z"/>
<path fill="#E81C27" d="M61.4,26H10.79v12H61.4c0.39-1.94,0.6-3.95,0.6-6S61.79,27.94,61.4,26z"/>
<path fill="#E81C27" d="M10.79,14H56C50.53,6.71,41.81,2,32,2c-8.29,0-15.78,3.37-21.21,8.8C10.79,10.8,10.79,14,10.79,14z"/>
<path fill="#E81C27" d="M10.79,50v3.19C16.22,58.63,23.71,62,32,62c9.81,0,18.53-4.71,24-12H10.79z"/>
<path fill="#014D87" d="M10.79,10.79C5.36,16.21,2,23.71,2,32c0,8.28,3.36,15.78,8.79,21.21L32,32L10.79,10.79z"/>
<polygon fill="#F5F5F5" points="9.98,38 14,35.19 18.02,38 16.5,33.42 20.5,30.5 15.54,30.5 14,26 12.5,30.5 7.5,30.5 11.5,33.42 
	"/>
<linearGradient id="SVGID_1_" gradientUnits="userSpaceOnUse" x1="32" y1="2" x2="32" y2="62" gradientTransform="matrix(1 0 0 -1 0 64)">
	<stop  offset="0" style="stop-color:#1A1A1A"/>
	<stop  offset="0.102" style="stop-color:#393939;stop-opacity:0.949"/>
	<stop  offset="0.3475" style="stop-color:#7F7F7F;stop-opacity:0.8262"/>
	<stop  offset="0.5688" style="stop-color:#B6B6B6;stop-opacity:0.7156"/>
	<stop  offset="0.7582" style="stop-color:#DEDEDE;stop-opacity:0.6209"/>
	<stop  offset="0.9081" style="stop-color:#F6F6F6;stop-opacity:0.5459"/>
	<stop  offset="1" style="stop-color:#FFFFFF;stop-opacity:0.5"/>
</linearGradient>
<circle opacity="0.1" fill="url(#SVGID_1_)" enable-background="new    " cx="32" cy="32" r="30"/>
</svg>
