<?xml version="1.0" encoding="utf-8"?>
<!-- Generator: Adobe Illustrator 21.0.0, SVG Export Plug-In . SVG Version: 6.00 Build 0)  -->
<svg version="1.1" id="Layer_1" xmlns="http://www.w3.org/2000/svg" xmlns:xlink="http://www.w3.org/1999/xlink" x="0px" y="0px"
	 width="64px" height="64px" viewBox="0 0 64 64" enable-background="new 0 0 64 64" xml:space="preserve">
<path fill="#E81C27" d="M38,2.6V32H2c0,16.57,13.43,30,30,30c16.57,0,30-13.43,30-30C62,17.48,51.69,5.38,38,2.6z"/>
<path fill="#F5F5F5" d="M38,2.6c-0.33-0.07-0.67-0.12-1-0.18V31H25.33V2.75c-4.32,0.98-8.28,2.89-11.67,5.51V31H2.03
	C2.01,31.33,2,31.66,2,32h36V2.6z"/>
<path fill="#014D87" d="M2.03,31h11.64V8.26C6.82,13.56,2.33,21.75,2.03,31z"/>
<path fill="#E81C27" d="M25.33,31H37V2.42C35.37,2.15,33.7,2,32,2c-2.29,0-4.52,0.27-6.67,0.75V31z"/>
<polygon fill="#FFFFFF" points="48,36 54,30 42,30 "/>
<polygon fill="#FFFFFF" points="50,38 56,44 56,32 "/>
<polygon fill="#FFFFFF" points="48,40 42,46 54,46 "/>
<polygon fill="#FFFFFF" points="46,38 40,32 40,44 "/>
<linearGradient id="SVGID_1_" gradientUnits="userSpaceOnUse" x1="32" y1="62" x2="32" y2="2">
	<stop  offset="0" style="stop-color:#1A1A1A"/>
	<stop  offset="0.102" style="stop-color:#393939;stop-opacity:0.949"/>
	<stop  offset="0.3475" style="stop-color:#7F7F7F;stop-opacity:0.8262"/>
	<stop  offset="0.5688" style="stop-color:#B6B6B6;stop-opacity:0.7156"/>
	<stop  offset="0.7582" style="stop-color:#DEDEDE;stop-opacity:0.6209"/>
	<stop  offset="0.9081" style="stop-color:#F6F6F6;stop-opacity:0.5459"/>
	<stop  offset="1" style="stop-color:#FFFFFF;stop-opacity:0.5"/>
</linearGradient>
<circle opacity="0.1" fill="url(#SVGID_1_)" cx="32" cy="32" r="30"/>
</svg>
