<?xml version="1.0" encoding="utf-8"?>
<!-- Generator: Adobe Illustrator 21.0.0, SVG Export Plug-In . SVG Version: 6.00 Build 0)  -->
<svg version="1.1" id="Layer_1" xmlns="http://www.w3.org/2000/svg" xmlns:xlink="http://www.w3.org/1999/xlink" x="0px" y="0px"
	 width="64px" height="64px" viewBox="0 0 64 64" enable-background="new 0 0 64 64" xml:space="preserve">
<path fill="#E81C27" d="M62,32c0-13.06-8.35-24.17-20-28.29v56.57C53.65,56.17,62,45.06,62,32z"/>
<path fill="#014D87" d="M2,32c0,13.06,8.35,24.17,20,28.29V3.71C10.35,7.83,2,18.94,2,32z"/>
<path fill="#FFE12C" d="M42,3.71C38.87,2.61,35.51,2,32,2c-3.51,0-6.87,0.61-10,1.71v56.57C25.13,61.39,28.49,62,32,62
	c3.51,0,6.87-0.61,10-1.71V3.71z"/>
<path fill="#997361" d="M41.23,30.86l0.13-0.02v-1.03l-0.83,0.6l0.06,0.12c-0.03,0.03-0.06,0.06-0.09,0.11
	c-0.02,0.04-0.03,0.08-0.03,0.12c-0.06,0-0.12-0.01-0.18-0.01c-0.18,0-0.25,0.02-0.29,0.05c-0.1,0.07-0.09,0.2-0.08,0.38
	c0.01,0.12,0.02,0.27,0,0.4c-0.04,0.23-0.1,0.28-0.14,0.31c-0.02,0.01-0.04,0.04-0.06,0.06c0-3.55,0.01-6.84,0.01-6.9
	c0-0.6-1.94-2.4-1.94-2.4l-1.85,1.45l0.1,1.21c-0.44,0.05-1.95,0.88-2.14,0.94c-1.6-0.89-0.53-2.89-0.54-2.95
	c0.01,0.01,0.01,0.01,0.02,0.02l0.23,0.24c0,0,0.2-0.84-0.16-1.36c0.04-0.02,0.82-0.17,0.82-0.17s-1.95-1.37-3.69-0.74
	c0-0.02,0.01-0.03,0.01-0.05c0-0.18-0.05-0.33-0.13-0.44l-0.16-0.21l-0.07,0.25c-0.02,0.07-0.08,0.11-0.15,0.11h-0.21v-0.21
	c0-0.07,0.04-0.13,0.11-0.15l0.25-0.08l-0.21-0.16c-0.2-0.16-0.67-0.16-0.87,0l-0.21,0.16l0.26,0.07c0.07,0.02,0.11,0.08,0.11,0.15
	v0.21H29.1c-0.07,0-0.13-0.04-0.15-0.11l-0.07-0.25l-0.16,0.2c-0.08,0.1-0.13,0.26-0.13,0.44c0,0.18,0.05,0.34,0.13,0.44l0.16,0.2
	l0.07-0.25c0.02-0.07,0.08-0.11,0.15-0.11h0.21v1.51c0,0.07-0.04,0.13-0.1,0.15l-0.52,0.19l0.55,0.08c0.09,0.01,0.2,0.17,0.23,0.27
	l0.13,0.39l0.13-0.39c0.03-0.1,0.14-0.26,0.23-0.27l0.56-0.08c0.04,0.16,0.25,2.06-0.76,2.88c-0.18-0.06-1.7-0.89-2.14-0.94
	l0.09-1.21l-1.85-1.45c0,0-1.94,1.8-1.94,2.4c0,0.05,0.01,2.13,0.01,4.75l-0.09-0.13l-0.1,0.2c0,0.01-0.05,0.11-0.1,0.25
	c-0.18-0.16-0.41-0.29-0.47-0.33L23,29.71l-0.03,0.19c-0.01,0.05-0.07,0.46,0.05,0.75c-0.13-0.03-0.22-0.03-0.23-0.03l-0.18-0.01
	l0.04,0.17c0.01,0.02,0.14,0.54,0.46,0.79c0.21,0.16,0.47,0.2,0.64,0.2l0.17,0.38c0,0.04,0,0.07,0,0.11
	c-0.2-0.05-0.4-0.08-0.54-0.08c-0.1,0-0.16,0.01-0.16,0.01l-0.2,0.02l0.1,0.17c0.01,0.03,0.05,0.1,0.12,0.18
	c-0.06,0.02-0.1,0.03-0.11,0.04l-0.15,0.06l0.08,0.14c0.01,0.02,0.3,0.49,0.72,0.64c0.04,0.02,0.1,0.02,0.15,0.03
	c0,2.37-0.26,6.81-0.26,6.81s2.76-2.47,2.82-2.5c0,0-0.54,0.71-0.6,1c-0.07,0.36,0.22,1.26,1.33,0.89l-0.1,0.45l0.94,0.51
	c-0.12,0.09-0.65,0.33-0.65,0.33l4.42,2.93l4.42-2.93c0,0-2.37-0.9-3.15-4.08c0.04-0.02,0.69-0.31,0.71-0.32
	c0.27,0.23,2.27,2.75,2.32,2.81c-0.02,0.02-0.05,0.05-0.06,0.07c-0.01,0.01-0.01,0.03-0.02,0.04c-0.06,0-0.11,0-0.15,0.02
	c-0.08,0.04-0.13,0.07-0.07,0.93l0.02,0.23l0.19-0.12c0.74-0.46,0.73-0.52,0.71-0.61c-0.01-0.05-0.03-0.09-0.07-0.13c0,0,0,0,0-0.01
	c0.03,0,0.04,0.02,0.07,0.02c0.1,0,0.55-0.22,0.66-0.38c0.47-0.69,0.19-1.31,0.21-1.34c0.22,0.3,2.37,2.18,2.37,2.18
	s-0.26-4.27-0.26-6.56l0.47-0.92c0.01-0.01,0.04-0.03,0.05-0.04c0.05-0.03,0.11-0.06,0.14-0.13c0.02-0.03,0.02-0.06,0.02-0.09
	c0.05-0.01,0.1-0.04,0.13-0.07c0.06-0.05,0.06-0.12,0.07-0.17c0-0.05,0.01-0.13,0.17-0.29c0.09-0.09,0.22-0.17,0.32-0.23
	c0.15-0.1,0.27-0.17,0.26-0.29c0-0.03-0.01-0.11-0.24-0.41c0.03-0.02,0.06-0.05,0.08-0.09C41.22,30.95,41.23,30.9,41.23,30.86z
	 M30.11,21.6c-0.09,0-0.16,0.03-0.24,0.05v-0.13h0.21c0.05,0,0.09,0.03,0.12,0.07C30.17,21.6,30.14,21.6,30.11,21.6z M36.37,37.68
	c-0.12-0.2-0.83-1.59-0.98-1.88c0.12-0.07,0.25-0.14,0.35-0.21c0.19-0.13,0.38-0.29,0.49-0.43c0.18,0.65,0.5,1.71,0.82,2.27
	C37.06,37.45,36.43,37.79,36.37,37.68z M27.11,37.78l-0.13-0.28c0.15-0.1,0.36-0.27,0.48-0.5c0.19-0.36,0.13-0.83,0.13-0.85
	l-0.02-0.17c0,0-0.29,0.11-0.34,0.13c-0.01-0.05,0.13-0.74,0.2-0.97c0.11,0.14,0.3,0.31,0.49,0.43c0.1,0.07,0.23,0.14,0.35,0.21
	C28.2,36.84,27.13,37.78,27.11,37.78z M29.98,23.19c-0.06-0.02-0.11-0.08-0.11-0.15v-0.39c0.29,0.13,0.53,0.31,0.64,0.72
	L29.98,23.19z M28.36,39.56l-0.63-0.44c0.03-0.05,1.87-2.33,2.14-2.56c0.02,0.01,0.67,0.3,0.7,0.32c-0.31,0.68-1.38,2.88-2.43,3.71
	L28.36,39.56z"/>
<polygon fill="#FFD200" points="27.46,39.22 28.2,39.63 28.02,40.46 27.28,40.05 "/>
<path fill="#FFD200" d="M23.98,31.23l-0.27,0.12l3.04,6.66h0.32L23.98,31.23z M27.56,39.08l-0.22,0.23l0.14,0.3l0.27-0.12
	L27.56,39.08z"/>
<path fill="#529320" d="M24.92,36.48l0.45,0.6l-0.43,0.09l1.06,0.55l0.62-0.18l-0.08-0.44L24.92,36.48L24.92,36.48L24.92,36.48z"/>
<path fill="#529320" d="M26.85,35.54l-0.45,0.65l0.36,1.3l0.59-0.55l0.11-0.77l-0.37,0.17L26.85,35.54L26.85,35.54L26.85,35.54z"/>
<path fill="#529320" d="M25.72,35.39l-0.79,0.11l-0.68-0.33l0.46-0.18l-0.41-0.48l0.65,0.01L25.72,35.39L25.72,35.39L25.72,35.39z"
	/>
<path fill="#529320" d="M25.86,33.43l0.15,0.56l0.3-0.25l0.01,1.09l-0.55,0.57l-0.46-0.89l0.07-0.59L25.86,33.43L25.86,33.43
	L25.86,33.43z"/>
<path fill="#529320" d="M23.24,32.33l0.83,0.12l0.6,0.83l-0.85,0.04l-0.65-0.58l0.36-0.06L23.24,32.33L23.24,32.33L23.24,32.33
	L23.24,32.33z"/>
<path fill="#529320" d="M24.61,31.51l0.2,0.53l0.29-0.32l0.19,1.01l-0.41,0.67l-0.54-1.44L24.61,31.51L24.61,31.51L24.61,31.51z"/>
<path fill="#529320" d="M23.1,29.92l0.05,0.71l0.2,0.29l-0.57-0.16l0.42,0.72l0.75,0.17l0.28-0.82l-0.36-0.88l-0.15,0.48L23.1,29.92
	L23.1,29.92L23.1,29.92z"/>
<path fill="#FFD200" d="M40.7,30.46l0.06,0.12l-0.14,0.12l0.03,0.2l-0.58,0.01l-0.02,0.68l-0.23,0.45l0.06,0.2l-0.12,0.07
	l-0.02,0.25L37.7,36.6l-0.49,0.48l0.06,0.5l-0.28,0.13l0.15,0.38l0.39-0.1l-0.06-0.3l0.45-0.25l0.1-0.68l2.06-4.04l0.2-0.17
	l-0.01-0.13l0.2-0.06l0.23-0.45l0.54-0.42l-0.33-0.47l0.18-0.1l0.01-0.18l0.14-0.02v-0.65L40.7,30.46L40.7,30.46z M36.18,39.5v0.14
	l-0.22-0.02v0.8l0.65-0.47l-0.15-0.17l0.12-0.08l-0.13-0.24l-0.14-0.03L36.18,39.5L36.18,39.5L36.18,39.5z"/>
<path fill="#F5D402" d="M36.32,27.31c0-0.31,0.4-0.61,0.4-0.61h-9.78c0,0,0.4,0.3,0.4,0.61v7.28c0,0.19,0.06,0.32,0.15,0.44
	c0.09,0.13,0.3,0.31,0.5,0.45c0.64,0.42,1.72,0.86,2.53,1.23c0.68,0.31,0.95,0.43,1.31,0.87c0.35-0.44,0.63-0.56,1.3-0.87
	c0.81-0.37,1.89-0.81,2.53-1.23c0.21-0.13,0.41-0.32,0.5-0.45c0.09-0.12,0.15-0.25,0.15-0.44V27.31z"/>
<path fill="#E81C27" d="M27.57,31.43v-4.12c0-0.23-0.12-0.38-0.12-0.38h8.75c0,0-0.12,0.14-0.12,0.38l0,4.12l-4.26,1.29L27.57,31.43
	z"/>
<path fill="#014D87" d="M36.09,31.43l-2.64-0.05h-3.25l-2.64,0.05v3.16c0,0.16,0.16,0.53,1.12,1.01c1.57,0.78,2.78,1.15,3.14,1.6
	c0.36-0.45,1.57-0.81,3.14-1.6c0.95-0.47,1.12-0.85,1.12-1.01L36.09,31.43z"/>
<path fill="#FFE12C" d="M28.91,33.27l-0.84,1.01l0.7,1.11l1.27-0.32l0.09-1.31L28.91,33.27L28.91,33.27L28.91,33.27z"/>
<path fill="#FFE12C" d="M33.52,34.53c0.05,0.44,0.41,0.81,0.85,0.92c-0.08-0.12-0.13-0.26-0.14-0.41c-0.05-0.52,0.35-0.95,0.9-0.95
	c0.09,0,0.17,0.01,0.26,0.03c-0.2-0.32-0.56-0.54-0.96-0.54C33.87,33.58,33.46,34.01,33.52,34.53z"/>
<path fill="#FFE12C" d="M29.59,29.16l1.38,1.48l0.4-0.19l0.46,0.21l0.46-0.21l0.4,0.19l1.38-1.48l-0.51-1.65l1.12,1.74l-1.54,1.9
	l0.35,0.78l-0.77,0.31l-0.13,2.88l0.45,0.43l-1.21,0.71l-1.21-0.71l0.45-0.43l-0.12-2.88l-0.77-0.31l0.35-0.78l-1.54-1.9l1.12-1.74
	L29.59,29.16L29.59,29.16L29.59,29.16z"/>
<path fill="#FFE12C" d="M31.83,27.67L32,28.15l0.46-0.22l-0.22,0.46l0.48,0.17l-0.48,0.17l0.22,0.46L32,28.97l-0.17,0.48l-0.17-0.48
	l-0.46,0.22l0.22-0.46l-0.48-0.17l0.48-0.17l-0.22-0.46l0.46,0.22L31.83,27.67L31.83,27.67z"/>
<path fill="#FFE12C" d="M29.7,31.41l-0.8,0.6l-0.89-0.56l0.88-0.53L29.7,31.41L29.7,31.41L29.7,31.41z"/>
<path fill="#FFE12C" d="M35.64,31.44l-0.89,0.56l-0.8-0.6l0.8-0.49L35.64,31.44L35.64,31.44z"/>
<linearGradient id="SVGID_1_" gradientUnits="userSpaceOnUse" x1="32" y1="62" x2="32" y2="2">
	<stop  offset="0" style="stop-color:#1A1A1A"/>
	<stop  offset="0.102" style="stop-color:#393939;stop-opacity:0.949"/>
	<stop  offset="0.3475" style="stop-color:#7F7F7F;stop-opacity:0.8262"/>
	<stop  offset="0.5688" style="stop-color:#B6B6B6;stop-opacity:0.7156"/>
	<stop  offset="0.7582" style="stop-color:#DEDEDE;stop-opacity:0.6209"/>
	<stop  offset="0.9081" style="stop-color:#F6F6F6;stop-opacity:0.5459"/>
	<stop  offset="1" style="stop-color:#FFFFFF;stop-opacity:0.5"/>
</linearGradient>
<circle opacity="0.1" fill="url(#SVGID_1_)" cx="32" cy="32" r="30"/>
</svg>
