<?xml version="1.0" encoding="utf-8"?>
<!-- Generator: Adobe Illustrator 21.0.0, SVG Export Plug-In . SVG Version: 6.00 Build 0)  -->
<svg version="1.1" id="Layer_1" xmlns="http://www.w3.org/2000/svg" xmlns:xlink="http://www.w3.org/1999/xlink" x="0px" y="0px"
	 width="64px" height="64px" viewBox="0 0 64 64" enable-background="new 0 0 64 64" xml:space="preserve">
<path fill="#E81C27" d="M33,32L11.3,53.7C16.68,58.84,23.97,62,32,62c16.57,0,30-13.43,30-30H33z"/>
<path fill="#014D87" d="M62,32C62,15.43,48.57,2,32,2c-8.03,0-15.32,3.16-20.7,8.3L33,32H62z"/>
<path fill="#F5F5F5" d="M11.3,10.3C5.57,15.76,2,23.46,2,32c0,8.54,3.57,16.24,9.3,21.7L33,32L11.3,10.3z"/>
<polygon fill="#FFE12C" points="12.99,13.61 12.23,15.03 13.33,16.1 11.78,15.88 11.04,17.31 10.84,15.76 9.29,15.56 10.72,14.82 
	10.5,13.28 11.58,14.37 "/>
<polygon fill="#FFE12C" points="13.23,48 12.13,49.17 12.91,50.5 11.47,49.88 10.39,51.07 10.6,49.52 9.15,48.93 10.72,48.58 
	10.91,47.03 11.67,48.37 "/>
<polygon fill="#FFE12C" points="30.5,32 28.96,32.46 28.97,34 28.03,32.75 26.5,33.24 27.46,32 26.5,30.76 28.03,31.25 28.97,30 
	28.96,31.54 "/>
<path fill="#FFE12C" d="M23.69,30.48l-0.6-0.43l-6.55,1.43l0.06-0.05l6.13-1.63l-0.71-0.52l-5.23,1.99l4.32-3.61l-0.09-0.88
	l-4.46,4.58l-0.07,0.03l4.49-5.04l-0.07-0.74l-0.73,0.06l-4.11,5.37l0.01-0.08l3.67-5.26l-0.87,0.07l-2.75,4.94l1.02-5.58
	l-0.63-0.62l-0.52,6.42l-0.04,0.07l0.25-6.79l-0.52-0.52l-0.52,0.52l0.25,6.8l-0.04-0.07l-0.52-6.42l-0.62,0.62l1.02,5.58
	l-2.75-4.94l-0.87-0.07l3.66,5.26l0.01,0.08l-4.11-5.37l-0.73-0.06l-0.07,0.74l4.49,5.04l-0.07-0.03l-4.46-4.58l-0.09,0.88
	l4.32,3.61l-5.23-1.99l-0.71,0.52l6.13,1.63l0.06,0.05l-6.55-1.43l-0.59,0.43L8.1,31.1l6.63,0.93l-0.07,0.03l-6.31-0.59l0.49,0.73
	l5.59-0.06l-5.27,1.89l-0.22,0.86l5.73-2.75l0.08,0l-5.92,3.18l-0.18,0.72l0.71,0.2l5.67-3.62l-0.04,0.07l-5.21,3.66l0.84,0.24
	l4.25-3.69l-2.84,4.89l0.38,0.8l2.65-5.85l0.06-0.05l-2.52,6.3l0.32,0.67l0.67-0.31l2.06-6.47l0.01,0.08l-1.67,6.21l0.79-0.37
	l0.92-5.6l0.92,5.6l0.79,0.37l-1.67-6.21l0.01-0.08l2.06,6.47l0.67,0.31l0.32-0.67l-2.52-6.3l0.06,0.05l2.65,5.85l0.38-0.8
	l-2.84-4.89l4.25,3.69l0.84-0.24l-5.21-3.66l-0.04-0.07l5.67,3.62l0.71-0.2l-0.18-0.72l-5.92-3.18l0.08,0l5.73,2.75l-0.22-0.86
	l-5.27-1.89l5.59,0.05l0.49-0.73l-6.31,0.6l-0.07-0.03l6.63-0.93L23.69,30.48z M14.87,32.07l-0.05-0.01l0.05-0.02l0.04,0.01
	L14.87,32.07z M14.96,31.5l-0.04-0.04l0.05,0.01L15,31.51L14.96,31.5z M15.16,32.57l-0.04,0.03l0.02-0.05l0.04-0.02L15.16,32.57z
	 M15.39,31.12l0-0.05l0.03,0.04l0,0.04L15.39,31.12z M15.69,32.81l-0.01-0.05l0.01-0.04l0.01,0.04L15.69,32.81z M15.99,31.12
	l-0.03,0.03v-0.04l0.03-0.04L15.99,31.12z M16.22,32.57l-0.02-0.04l0.04,0.02l0.02,0.05L16.22,32.57z M16.42,31.5l-0.04,0.01
	l0.03-0.04l0.05-0.01L16.42,31.5z M16.51,32.07l-0.04-0.02l0.04-0.01l0.05,0.02L16.51,32.07z"/>
<circle fill="#FFE12C" cx="15.69" cy="32" r="4.5"/>
<linearGradient id="SVGID_1_" gradientUnits="userSpaceOnUse" x1="32" y1="62" x2="32" y2="2">
	<stop  offset="0" style="stop-color:#1A1A1A"/>
	<stop  offset="0.102" style="stop-color:#393939;stop-opacity:0.949"/>
	<stop  offset="0.3475" style="stop-color:#7F7F7F;stop-opacity:0.8262"/>
	<stop  offset="0.5688" style="stop-color:#B6B6B6;stop-opacity:0.7156"/>
	<stop  offset="0.7582" style="stop-color:#DEDEDE;stop-opacity:0.6209"/>
	<stop  offset="0.9081" style="stop-color:#F6F6F6;stop-opacity:0.5459"/>
	<stop  offset="1" style="stop-color:#FFFFFF;stop-opacity:0.5"/>
</linearGradient>
<circle opacity="0.1" fill="url(#SVGID_1_)" cx="32" cy="32" r="30"/>
</svg>
