<?xml version="1.0" encoding="utf-8"?>
<!-- Generator: Adobe Illustrator 21.0.0, SVG Export Plug-In . SVG Version: 6.00 Build 0)  -->
<svg version="1.1" id="Layer_1" xmlns="http://www.w3.org/2000/svg" xmlns:xlink="http://www.w3.org/1999/xlink" x="0px" y="0px"
	 width="64px" height="64px" viewBox="0 0 64 64" enable-background="new 0 0 64 64" xml:space="preserve">
<path fill="#E81C27" d="M47.97,6.61C43.35,3.69,37.87,2,32,2v4.61H47.97z"/>
<path fill="#F5F5F5" d="M32,11.22h21.63c-1.69-1.76-3.58-3.31-5.65-4.61H32V11.22z"/>
<path fill="#E81C27" d="M32,15.83h25.26c-1.06-1.66-2.28-3.2-3.64-4.61H32V15.83z"/>
<path fill="#F5F5F5" d="M32,20.44h27.69c-0.67-1.61-1.49-3.15-2.43-4.61H32V20.44z"/>
<path fill="#E81C27" d="M32,25.05h29.18c-0.38-1.59-0.88-3.13-1.49-4.61H32V25.05z"/>
<path fill="#F5F5F5" d="M32,29.66h29.9c-0.12-1.57-0.36-3.11-0.72-4.61H32V29.66z"/>
<path fill="#E81C27" d="M61.9,29.66H32V32H2c0,0.76,0.04,1.52,0.09,2.27H61.9C61.96,33.52,62,32.76,62,32
	C62,31.21,61.96,30.43,61.9,29.66z"/>
<path fill="#F5F5F5" d="M2.8,38.88h58.4c0.35-1.5,0.59-3.04,0.71-4.61H2.09C2.21,35.84,2.45,37.38,2.8,38.88z"/>
<path fill="#E81C27" d="M4.28,43.49h55.43c0.61-1.48,1.11-3.02,1.48-4.61H2.8C3.17,40.47,3.67,42.01,4.28,43.49z"/>
<path fill="#F5F5F5" d="M6.69,48.1h50.62c0.93-1.46,1.74-3,2.41-4.61H4.28C4.95,45.1,5.76,46.64,6.69,48.1z"/>
<path fill="#E81C27" d="M10.3,52.71h43.39c1.35-1.41,2.56-2.96,3.62-4.61H6.69C7.75,49.75,8.96,51.3,10.3,52.71z"/>
<path fill="#F5F5F5" d="M15.92,57.32h32.17c2.05-1.31,3.94-2.86,5.61-4.61H10.3C11.98,54.46,13.86,56.01,15.92,57.32z"/>
<path fill="#E81C27" d="M32,62c5.92,0,11.43-1.72,16.08-4.68H15.92C20.56,60.28,26.08,62,32,62z"/>
<path fill="#014D87" d="M16.03,6.61c-2.07,1.3-3.97,2.86-5.65,4.61c-1.36,1.41-2.57,2.95-3.64,4.61c-0.93,1.46-1.75,3-2.43,4.61
	c-0.62,1.48-1.12,3.02-1.49,4.61c-0.36,1.5-0.6,3.04-0.72,4.61C2.04,30.43,2,31.21,2,32h30v-2.34v-4.61v-4.61v-4.61v-4.61V6.61V2
	C26.13,2,20.65,3.69,16.03,6.61z"/>
<polygon fill="#F5F5F5" points="25,3 25.47,4.48 27,4.48 25.76,5.46 26.24,6.98 25,6.08 23.76,7 24.24,5.46 23,4.48 24.53,4.48 "/>
<polygon fill="#F5F5F5" points="29,9 29.47,10.48 31,10.48 29.76,11.46 30.24,12.98 29,12.08 27.76,13 28.24,11.46 27,10.48 
	28.53,10.48 "/>
<polygon fill="#F5F5F5" points="21,9 21.47,10.48 23,10.48 21.76,11.46 22.24,12.98 21,12.08 19.76,13 20.24,11.46 19,10.48 
	20.53,10.48 "/>
<polygon fill="#F5F5F5" points="25,15 25.47,16.48 27,16.48 25.76,17.46 26.24,18.98 25,18.08 23.76,19 24.24,17.46 23,16.48 
	24.53,16.48 "/>
<polygon fill="#F5F5F5" points="17,15 17.47,16.48 19,16.48 17.76,17.46 18.24,18.98 17,18.08 15.76,19 16.24,17.46 15,16.48 
	16.53,16.48 "/>
<polygon fill="#F5F5F5" points="9,15 9.47,16.48 11,16.48 9.76,17.46 10.24,18.98 9,18.08 7.76,19 8.24,17.46 7,16.48 8.53,16.48 
	"/>
<polygon fill="#F5F5F5" points="29,21 29.47,22.48 31,22.48 29.76,23.46 30.24,24.98 29,24.08 27.76,25 28.24,23.46 27,22.48 
	28.53,22.48 "/>
<polygon fill="#F5F5F5" points="21,21 21.47,22.48 23,22.48 21.76,23.46 22.24,24.98 21,24.08 19.76,25 20.24,23.46 19,22.48 
	20.53,22.48 "/>
<polygon fill="#F5F5F5" points="13,21 13.47,22.48 15,22.48 13.76,23.46 14.24,24.98 13,24.08 11.76,25 12.24,23.46 11,22.48 
	12.53,22.48 "/>
<polygon fill="#F5F5F5" points="25,27 25.47,28.48 27,28.48 25.76,29.46 26.24,30.98 25,30.08 23.76,31 24.24,29.46 23,28.48 
	24.53,28.48 "/>
<polygon fill="#F5F5F5" points="17,27 17.47,28.48 19,28.48 17.76,29.46 18.24,30.98 17,30.08 15.76,31 16.24,29.46 15,28.48 
	16.53,28.48 "/>
<polygon fill="#F5F5F5" points="9,27 9.47,28.48 11,28.48 9.76,29.46 10.24,30.98 9,30.08 7.76,31 8.24,29.46 7,28.48 8.53,28.48 
	"/>
<path fill="#F5F5F5" d="M11.76,13L13,12.08l1.24,0.9l-0.47-1.51L15,10.48h-1.53L13,9l-0.47,1.48h-1.42
	c-0.02,0.02-0.03,0.03-0.05,0.04l1.18,0.93L11.76,13z"/>
<path fill="#F5F5F5" d="M3.76,25L5,24.08l1.24,0.9l-0.47-1.51L7,22.48H5.47L5,21l-0.47,1.48H3.55c-0.04,0.12-0.08,0.23-0.12,0.34
	l0.8,0.63L3.76,25z"/>
<linearGradient id="SVGID_1_" gradientUnits="userSpaceOnUse" x1="32" y1="2" x2="32" y2="62" gradientTransform="matrix(1 0 0 -1 0 64)">
	<stop  offset="0" style="stop-color:#1A1A1A"/>
	<stop  offset="0.102" style="stop-color:#393939;stop-opacity:0.949"/>
	<stop  offset="0.3475" style="stop-color:#7F7F7F;stop-opacity:0.8262"/>
	<stop  offset="0.5688" style="stop-color:#B6B6B6;stop-opacity:0.7156"/>
	<stop  offset="0.7582" style="stop-color:#DEDEDE;stop-opacity:0.6209"/>
	<stop  offset="0.9081" style="stop-color:#F6F6F6;stop-opacity:0.5459"/>
	<stop  offset="1" style="stop-color:#FFFFFF;stop-opacity:0.5"/>
</linearGradient>
<circle opacity="0.1" fill="url(#SVGID_1_)" enable-background="new    " cx="32" cy="32" r="30"/>
</svg>
