<?xml version="1.0" encoding="utf-8"?>
<!-- Generator: Adobe Illustrator 21.0.0, SVG Export Plug-In . SVG Version: 6.00 Build 0)  -->
<svg version="1.1" id="Layer_1" xmlns="http://www.w3.org/2000/svg" xmlns:xlink="http://www.w3.org/1999/xlink" x="0px" y="0px"
	 width="64px" height="64px" viewBox="0 0 64 64" enable-background="new 0 0 64 64" xml:space="preserve">
<rect x="12" y="12" fill="#014D87" width="21" height="21"/>
<polygon fill="#F5F5F5" points="18.91,8.14 18.91,14 11.6,14 26,32 32,32 32,24.5 "/>
<path fill="#014D87" d="M32,2v30H2c0,16.57,13.43,30,30,30c16.57,0,30-13.43,30-30C62,15.43,48.57,2,32,2z"/>
<path fill="#F5F5F5" d="M11,18.91H5.01C3.09,22.87,2,27.31,2,32h12V13.91h-3V18.91z"/>
<polygon fill="#E81C27" points="32,27.06 19,11 13,11 30,32 32,32 "/>
<path fill="#F5F5F5" d="M18.91,5.01V11H11v3h21V2C27.31,2,22.87,3.09,18.91,5.01z"/>
<path fill="#E81C27" d="M32,5H18.91C12.86,7.94,7.94,12.86,5,18.91V32h6V11h21V5z"/>
<path fill="#F5F5F5" d="M36.59,21.78h19.98l-0.02,14.21c0.17,5.71-3.39,9.26-9.95,10.86c-4.65-1.16-10.02-3.55-10.03-10.7
	L36.59,21.78L36.59,21.78z"/>
<path fill="#0FB4D4" d="M37.03,22.2h19.09L56.1,35.83c0.16,5.48-3.25,8.87-9.51,10.41c-4.45-1.11-9.58-3.4-9.58-10.25L37.03,22.2
	L37.03,22.2z"/>
<path fill="#E81C27" d="M37.16,37.47c0.86,5.82,5.3,7.59,9.43,8.7c4.66-1.21,8.69-3.5,9.38-8.72L37.16,37.47z"/>
<polygon fill="#785647" points="55.97,37.44 55.97,37.44 55.97,37.44 "/>
<polygon fill="#302C3B" points="45.83,24.74 45.81,23.03 47.17,23.04 47.18,24.74 50.89,24.74 50.9,26.07 47.18,26.09 47.15,41.78 
	45.82,41.79 45.81,26.07 42.11,26.09 42.11,24.73 "/>
<path fill="#F59E01" d="M44.69,33.86c-0.93,0.38-0.76,1.96-1.98,2.45c-1.13,0.45-1.63,2.51-0.11,1.9c0.05,0.34,3.54,4.96,3.94,4.73
	C48.95,41.58,47.48,34.14,44.69,33.86C44.64,33.88,46.41,34.03,44.69,33.86z M46.23,41.61c-0.73-0.75-3.89-4.16-3.96-4.07
	c0.13,0.08,2.56-2.28,2.77-2.94C46.74,35.58,47.57,40.14,46.23,41.61C46.23,41.61,47.4,40.32,46.23,41.61z"/>
<path fill="#529320" d="M50.64,37.18c0.11-1.19-0.07-2.29-0.36-2.83c-0.29-0.54-0.34-1.21-0.79-2c0.33,0.06,0.52-0.63,0.59-1.46
	c0.05-0.47,0.01-0.83,0.11-1.67c0.1-0.84-0.2-1.14-0.41-1.32c-0.21-0.17-0.34-0.23-0.44-0.24c-0.3-0.1-1.02-0.01-1.17,0.03
	c-0.15,0.04-0.34,0.06-0.49,0.03c-0.14-0.02-0.27,0.1-0.5,0.3l0,0v9.88c0.08,0.88-0.16,2.76-0.66,4.13
	c-0.2,0.55-0.11,0.76,0.16,0.94c1.17,0.78,1.97,0,2.82-0.65c0.28-0.21,0.43-0.22,0.76,0.13c0.34,0.36,0.72,0.47,0.87,0.36
	C50.21,41.03,50.52,38.37,50.64,37.18z"/>
<path fill="#F5F5F5" d="M47.58,27.13c0.86,0.47-0.01,0.65,0.45,1.55c0.39-0.56,1.62-0.46,1.04-1.27c-0.41-0.57,0.97-2.16-0.57-2.18
	C47.98,25.22,46.98,26.8,47.58,27.13C47.63,27.16,47.4,27.03,47.58,27.13z"/>
<path fill="#F5F5F5" d="M44.61,29.42c0.9-0.11,1.46,0.27,1.2-0.96c-1.69,0,0.7-2.88,0.48-3.35C45.73,23.88,43.34,29.57,44.61,29.42
	C45,29.37,44.45,29.44,44.61,29.42z"/>
<path fill="#F5F5F5" d="M49.9,29.52c-0.03-0.17-2.79,2.05-3.29,2.42c0.26-0.2-3.38,2.42-2.15,2.56c0.52,0.07,0.89-0.7,1.17-1.14
	C46.88,31.39,49.9,33.21,49.9,29.52C49.9,29.13,49.9,30.11,49.9,29.52z"/>
<path fill="#F5F5F5" d="M50.46,42.83c-0.12-0.46-0.5-0.78-0.95-0.49c0.14,0.51-0.53,1.67-0.25,1.89
	C49.79,44.61,50.56,43.19,50.46,42.83C50.43,42.69,50.5,42.97,50.46,42.83z"/>
<path fill="#F5F5F5" d="M46.33,43.3c0.16,0.16,0.51,0.16,0.76-0.1c-0.09-0.04-0.29-0.13-0.38-0.2
	C46.58,43.12,46.44,43.26,46.33,43.3z"/>
<path fill="#870F00" d="M47.91,25.47c0.21-1.37,2.64,0.65,2.21,1.47C49.4,28.34,48.24,25.01,47.91,25.47
	C47.97,25.07,47.97,25.39,47.91,25.47z"/>
<linearGradient id="SVGID_1_" gradientUnits="userSpaceOnUse" x1="31.9986" y1="62" x2="31.9986" y2="2">
	<stop  offset="0" style="stop-color:#1A1A1A"/>
	<stop  offset="0.102" style="stop-color:#393939;stop-opacity:0.949"/>
	<stop  offset="0.3475" style="stop-color:#7F7F7F;stop-opacity:0.8262"/>
	<stop  offset="0.5688" style="stop-color:#B6B6B6;stop-opacity:0.7156"/>
	<stop  offset="0.7582" style="stop-color:#DEDEDE;stop-opacity:0.6209"/>
	<stop  offset="0.9081" style="stop-color:#F6F6F6;stop-opacity:0.5459"/>
	<stop  offset="1" style="stop-color:#FFFFFF;stop-opacity:0.5"/>
</linearGradient>
<circle opacity="0.1" fill="url(#SVGID_1_)" cx="32" cy="32" r="30"/>
</svg>
