<?xml version="1.0" encoding="utf-8"?>
<!-- Generator: Adobe Illustrator 21.0.0, SVG Export Plug-In . SVG Version: 6.00 Build 0)  -->
<svg version="1.1" id="Layer_1" xmlns="http://www.w3.org/2000/svg" xmlns:xlink="http://www.w3.org/1999/xlink" x="0px" y="0px"
	 width="64px" height="64px" viewBox="0 0 64 64" enable-background="new 0 0 64 64" xml:space="preserve">
<circle fill="#E81C27" cx="32" cy="32" r="30"/>
<path fill="#FFE12C" d="M49.73,34.3c-1.34-1.15-3.61-0.94-5.22-0.83c1.76-0.94,4.56-2.66,6.49-1.11c-1.4-1.93-4.48-1.3-6.41-0.86
	c1.59-1.2,4.09-3.34,6.23-2.11c-1.68-1.68-4.65-0.59-6.48,0.16c1.39-1.43,3.52-3.95,5.83-3.07c-1.93-1.4-4.67,0.15-6.37,1.16
	c1.14-1.63,2.86-4.45,5.28-3.94c-2.14-1.08-4.57,0.89-6.11,2.14c0.88-1.79,2.13-4.82,4.6-4.71c-2.27-0.72-4.41,1.57-5.7,3.08
	c0.58-1.9,1.35-5.12,3.8-5.38c-2.34-0.36-4.11,2.25-5.15,3.94c0.28-1.97,0.53-5.26,2.92-5.91c-2.37,0.01-3.72,2.86-4.47,4.69
	c-0.03-2-0.3-5.27,1.95-6.3c-2.34,0.38-3.22,3.4-3.68,5.33c-0.35-1.97-1.12-5.17,0.95-6.52c-2.25,0.74-2.65,3.87-2.8,5.84
	c-0.65-1.89-1.92-4.93-0.09-6.59c-2.11,1.08-2.01,4.24-1.85,6.21c-0.93-1.76-2.66-4.57-1.12-6.49c-1.92,1.39-1.32,4.5-0.86,6.42
	c-1.2-1.6-3.35-4.09-2.12-6.24c-1.67,1.68-0.6,4.65,0.16,6.47c-1.43-1.39-3.95-3.52-3.07-5.83c-1.39,1.92,0.14,4.69,1.17,6.37
	c-1.63-1.14-4.45-2.86-3.95-5.28c-1.07,2.11,0.86,4.62,2.15,6.11c-1.79-0.87-4.84-2.13-4.72-4.6c-0.73,2.25,1.58,4.42,3.08,5.7
	c-1.9-0.58-5.12-1.35-5.38-3.8c-0.37,2.34,2.25,4.12,3.94,5.14c-1.97-0.27-5.26-0.53-5.91-2.91c0,2.37,2.87,3.71,4.69,4.46
	c-1.99,0.03-5.28,0.3-6.3-1.95c0.38,2.34,3.41,3.21,5.33,3.68c-1.97,0.35-5.17,1.12-6.52-0.94c0.74,2.26,3.87,2.64,5.84,2.8
	c-1.89,0.65-4.93,1.92-6.59,0.09c1.08,2.12,4.24,2,6.21,1.85c-1.77,0.93-4.56,2.67-6.5,1.12c1.39,1.91,4.5,1.33,6.42,0.86
	c-1.59,1.2-4.1,3.35-6.24,2.12c1.68,1.68,4.65,0.59,6.48-0.16c-1.39,1.43-3.52,3.95-5.83,3.07c1.92,1.39,4.68-0.14,6.37-1.17
	c-1.15,1.64-2.86,4.44-5.28,3.95c2.11,1.07,4.61-0.86,6.11-2.15c-0.88,1.79-2.13,4.85-4.6,4.72c2.26,0.73,4.42-1.58,5.7-3.08
	c-0.58,1.9-1.35,5.12-3.8,5.38c2.34,0.38,4.12-2.25,5.15-3.94c-0.28,1.96-0.53,5.27-2.91,5.91c2.37,0,3.72-2.86,4.47-4.69
	c0.03,1.99,0.3,5.29-1.95,6.3c2.34-0.37,3.22-3.41,3.68-5.33c0.34,1.97,1.12,5.17-0.94,6.52c2.25-0.73,2.64-3.88,2.8-5.84
	c0.65,1.89,1.92,4.93,0.09,6.59c2.11-1.08,2.01-4.24,1.85-6.21c0.94,1.76,2.66,4.57,1.12,6.5c1.92-1.39,1.32-4.5,0.86-6.42
	c1.2,1.6,3.35,4.09,2.12,6.24c1.67-1.68,0.6-4.65-0.16-6.48c1.43,1.39,3.94,3.52,3.07,5.83c1.39-1.92-0.14-4.69-1.17-6.37
	c1.63,1.15,4.45,2.86,3.94,5.28c1.08-2.13-0.88-4.58-2.14-6.11c1.79,0.88,4.83,2.13,4.71,4.59c0.73-2.25-1.58-4.41-3.08-5.7
	c1.9,0.58,5.11,1.35,5.38,3.8c0.37-2.37-2.26-4.07-3.93-5.14c1.97,0.29,5.25,0.53,5.9,2.91c0-2.38-2.86-3.69-4.68-4.47
	c2-0.03,5.27-0.3,6.29,1.95c-0.38-2.36-3.41-3.18-5.32-3.68c1.97-0.34,5.16-1.12,6.51,0.95c-0.73-2.25-3.87-2.65-5.84-2.8
	c1.89-0.65,4.93-1.91,6.59-0.09C50.49,34.9,50.12,34.56,49.73,34.3C49.49,34.1,49.98,34.47,49.73,34.3z M32,44
	c-4.47,0-8.67-2.57-10.7-6.55c-2.06-4.04-1.62-9.04,1.1-12.66c2.72-3.61,7.34-5.41,11.78-4.59c4.36,0.8,8.01,4.07,9.3,8.31
	C45.79,36.1,39.93,44,32,44C25.37,44,38.63,44,32,44z"/>
<path fill="#FFE12C" d="M24.84,25.02C23.09,26.82,22,29.28,22,32c0,2.02,0.61,3.9,1.64,5.48c0.84-3.68,2.47-7.07,4.74-9.94
	C27.31,26.57,26.12,25.73,24.84,25.02z"/>
<path fill="#FFE12C" d="M31.28,24.43c-0.82-0.68-1.7-1.29-2.61-1.85c-0.42,0.15-0.82,0.32-1.21,0.52c1.05,0.63,2.04,1.35,2.96,2.14
	C30.7,24.96,30.99,24.7,31.28,24.43z"/>
<path fill="#FFE12C" d="M29.76,25.93c-1.01-0.86-2.1-1.62-3.25-2.28c-0.33,0.22-0.64,0.45-0.94,0.71c1.22,0.7,2.37,1.52,3.41,2.46
	C29.23,26.51,29.49,26.21,29.76,25.93z"/>
<path fill="#FFE12C" d="M29.07,28.18c-2.32,2.96-3.95,6.46-4.68,10.29c0.46,0.54,0.99,1.03,1.55,1.47
	c0.38-3.99,1.81-7.67,4.03-10.77C29.68,28.84,29.38,28.5,29.07,28.18z"/>
<path fill="#FFE12C" d="M34.03,29.18c2.22,3.09,3.65,6.78,4.03,10.76c0.57-0.43,1.09-0.92,1.55-1.47
	c-0.73-3.83-2.36-7.34-4.68-10.29C34.62,28.5,34.32,28.84,34.03,29.18z"/>
<path fill="#FFE12C" d="M31.18,29.16c0.28,0.36,0.57,0.72,0.82,1.1c0.26-0.38,0.54-0.74,0.82-1.1c-0.27-0.35-0.54-0.68-0.82-1.01
	C31.72,28.48,31.44,28.82,31.18,29.16z"/>
<path fill="#FFE12C" d="M34.13,22.23C33.44,22.08,32.73,22,32,22c-0.73,0-1.44,0.08-2.13,0.23c0.73,0.49,1.45,1.01,2.13,1.58
	C32.68,23.24,33.4,22.72,34.13,22.23z"/>
<path fill="#FFE12C" d="M31.45,31.16c-0.27-0.42-0.56-0.82-0.86-1.21c-2.13,3.05-3.48,6.68-3.76,10.6c0.58,0.35,1.19,0.64,1.84,0.87
	c0-0.1-0.01-0.2-0.01-0.31C28.66,37.47,29.69,34.07,31.45,31.16z"/>
<path fill="#FFE12C" d="M32,26.73c0.28-0.29,0.57-0.58,0.87-0.86c-0.28-0.28-0.57-0.55-0.87-0.82c-0.3,0.26-0.59,0.54-0.87,0.81
	C31.43,26.15,31.72,26.44,32,26.73z"/>
<path fill="#FFE12C" d="M33.45,28.41c0.29-0.33,0.57-0.66,0.88-0.96c-0.26-0.3-0.52-0.6-0.79-0.88c-0.31,0.29-0.6,0.58-0.89,0.88
	C32.93,27.75,33.19,28.08,33.45,28.41z"/>
<path fill="#FFE12C" d="M30.46,26.56c-0.27,0.29-0.53,0.58-0.79,0.88c0.31,0.31,0.59,0.64,0.88,0.96c0.26-0.33,0.53-0.66,0.81-0.97
	C31.06,27.14,30.77,26.85,30.46,26.56z"/>
<path fill="#FFE12C" d="M32,32.07c-1.52,2.68-2.4,5.76-2.4,9.05c0,0.2,0.01,0.39,0.02,0.59C30.39,41.89,31.18,42,32,42
	c0.82,0,1.61-0.11,2.38-0.3c0.01-0.2,0.02-0.39,0.02-0.59C34.4,37.82,33.52,34.74,32,32.07z"/>
<path fill="#FFE12C" d="M32.55,31.16c1.76,2.91,2.79,6.31,2.79,9.95c0,0.1-0.01,0.2-0.01,0.31c0.65-0.23,1.26-0.52,1.84-0.87
	c-0.28-3.92-1.63-7.55-3.76-10.6C33.11,30.34,32.82,30.74,32.55,31.16z"/>
<path fill="#FFE12C" d="M33.58,25.24c0.92-0.79,1.92-1.51,2.96-2.14c-0.39-0.2-0.79-0.37-1.21-0.52c-0.91,0.57-1.79,1.17-2.61,1.85
	C33.01,24.7,33.3,24.96,33.58,25.24z"/>
<path fill="#FFE12C" d="M40.36,37.48C41.39,35.9,42,34.02,42,32c0-2.71-1.09-5.18-2.84-6.98c-1.27,0.7-2.46,1.54-3.53,2.52
	C37.89,30.41,39.52,33.79,40.36,37.48z"/>
<path fill="#FFE12C" d="M35.03,26.81c1.04-0.94,2.19-1.76,3.41-2.46c-0.3-0.25-0.62-0.49-0.95-0.7c-1.15,0.66-2.25,1.42-3.25,2.28
	C34.51,26.21,34.77,26.51,35.03,26.81z"/>
<linearGradient id="SVGID_1_" gradientUnits="userSpaceOnUse" x1="32" y1="62" x2="32" y2="2">
	<stop  offset="0" style="stop-color:#1A1A1A"/>
	<stop  offset="0.102" style="stop-color:#393939;stop-opacity:0.949"/>
	<stop  offset="0.3475" style="stop-color:#7F7F7F;stop-opacity:0.8262"/>
	<stop  offset="0.5688" style="stop-color:#B6B6B6;stop-opacity:0.7156"/>
	<stop  offset="0.7582" style="stop-color:#DEDEDE;stop-opacity:0.6209"/>
	<stop  offset="0.9081" style="stop-color:#F6F6F6;stop-opacity:0.5459"/>
	<stop  offset="1" style="stop-color:#FFFFFF;stop-opacity:0.5"/>
</linearGradient>
<circle opacity="0.1" fill="url(#SVGID_1_)" cx="32" cy="32" r="30"/>
</svg>
