<?xml version="1.0" encoding="utf-8"?>
<!-- Generator: Adobe Illustrator 21.0.0, SVG Export Plug-In . SVG Version: 6.00 Build 0)  -->
<svg version="1.1" id="Layer_1" xmlns="http://www.w3.org/2000/svg" xmlns:xlink="http://www.w3.org/1999/xlink" x="0px" y="0px"
	 width="64px" height="64px" viewBox="0 0 64 64" enable-background="new 0 0 64 64" xml:space="preserve">
<circle fill="#529320" cx="32" cy="32" r="30"/>
<path fill-rule="evenodd" clip-rule="evenodd" fill="#F5F5F5" d="M31.67,26.65c-0.12-0.85,0.38-1.75,1.34-1.61
	c0.69,0.1,1.49,0.8,1.08,1.55c-0.62,1.11-2.21,1.14-3.24,1.66c0.11,0.58,3.04-0.12,3.5-0.11c0.47,0.01,1.02,0.24,0.69,0.8
	c-0.34,0.57-1.31,0.61-1.89,0.69c-0.59,0.08-1.55,0.1-1.95,0.64c-0.56,0.77,0.55,0.91,0.98,1.15c0.97,0.53-0.57,0.97-1.02,0.89
	c-1.5-0.3-1.77-1.14-2.72-2.12c-0.89,1.15-3.68,3.86-4.33,1.08c-1.03,0.35-2.03,0.86-3.12,1c0.47-0.74,1.53-1.03,2.27-1.42
	c0.96-0.51,1.04-1.39,1.56-2.23c0.16,0.35,0.01,0.71,0.09,1.06c0.83-0.41,1.8-1.2,1.38-2.22c-0.05-0.11-1.21-2.47-0.21-2.05
	c0.89,0.37,0.64,1.26,0.78,1.98c0.25,1.29-0.31,2.02-1.27,2.76c-0.42,0.32-1.46,1.47-0.17,1.46c0.9-0.01,1.72-0.96,2.2-1.63
	c0.59-0.82,0.38-1.6,0.03-2.49c-0.25-0.65-1-2.25-0.08-2.71c0.71,1.12,1.04,2.44,1.25,3.73c0.18,1.1,0.43,2.17,1.63,2.54
	c-0.15-0.81,0.41-1.36,1.09-1.69c-0.47-0.45-3.32,0.15-2.24-1.42C29.68,27.41,31.73,27.05,31.67,26.65z"/>
<path fill-rule="evenodd" clip-rule="evenodd" fill="#F5F5F5" d="M16.4,30.4c0.45,1.36,2.22,0.94,3.18,0.47
	c1.6-0.77,1.58-1.98,1.58-3.56c-0.57,0.29-0.46,1.43-0.74,1.94c-0.42,0.77-1.71,1.52-2.59,1.38c-1.28-0.19-1.93-2.4-0.89-3.21
	c0.25,0.75-0.29,2.16,0.89,2.29c0.87,0.1,2.67-0.96,2.41-2c-1.15,0.35-1.91,0.02-1.54-1.34c0.33-1.22,1.54-0.34,1.97,0.3
	c1.9-1.08-1.52-5.27,0.46-6.39c0.41,0.7,0.98,1.62,0.47,2.32c-0.57,0.8,0.03,2.54,0.09,3.44c1.01-0.86,0.24,0.7,1.01,0.79
	c0.54,0.07,0.71-1.25,1.02-1.21c0.07,0.26,0.12,1.22,0.59,1.06c0.56-0.19-0.1-0.99,0.53-1.2c0.19,0.45,0.15,1.98-0.64,1.87
	c-0.64-0.09-0.54-0.5-1.19-0.1c-0.55,0.35-0.76-0.05-1.22-0.25c-0.14,1.21,0.27,2.54-0.43,3.64c-0.59,0.93-1.76,1.36-2.79,1.55
	c-2.62,0.51-3.35-2.08-2.37-4.17C16.57,28.63,16.18,29.71,16.4,30.4C16.72,31.36,16.17,29.68,16.4,30.4z"/>
<path fill-rule="evenodd" clip-rule="evenodd" fill="#F5F5F5" d="M40.75,30.91c0.54,1.31,1.54-1.4,1.81-1.8
	c0.81-1.22,1.97,1.93,2.5-0.09c0.33-1.26-0.08-2.61-0.18-3.87c-0.07-0.93-0.4-1.66-0.96-2.39c-0.58-0.76-1.21-1.47-0.85-2.49
	c0.97,0.38,0.98,1.2,1.5,1.95c0.14-0.6-0.33-1.36,0.05-1.92c0.45-0.67,0.88,1.19,0.92,1.39c0.12,0.54-0.41,0.7-0.09,1.46
	c0.25,0.59,0.6,1.2,1.02,1.69c-0.08-0.55-1.02-4.66,0.04-4.75c0.3-0.03,0.57,1.17,0.62,1.36c0.16,0.63-0.18,1.13-0.22,1.77
	c-0.07,1.2,0.14,2.55,0.86,3.53c0.36,0.48,1.9,2.29,1.11,2.88c-0.56-0.71-1.01-1.5-1.53-2.24c0,0.76,0.19,1.65-0.24,2.34
	c-0.39-0.17-0.17-1.47-0.16-1.8c0.01-1.11-0.71-2.05-1.32-2.9c-0.17,1.46,0.95,4.31-0.36,5.43c-0.94,0.81-2.05-0.96-2.42-0.32
	c-0.28,0.49-0.98,2.3-1.75,2.13c-0.97-0.21-1.73-2.99-0.61-3.33C40.53,29.59,40.49,30.29,40.75,30.91
	C41.23,32.06,40.49,30.29,40.75,30.91z"/>
<path fill-rule="evenodd" clip-rule="evenodd" fill="#F5F5F5" d="M19.41,24.13c0.7,0.1-0.03-2.27,0.02-2.66
	c0.06-0.41,0.42-0.63,0.63-0.18c0.27,0.58,0.31,1.3,0.37,1.93c0.05,0.53,0.07,1.08-0.32,1.51c-0.6,0.65-1.39,0.26-1.67-0.47
	c-1.37,1.24,0.44,3.26-0.77,4.52c-0.19-1.05,0.05-2.29-0.4-3.29c-0.24-0.54-1.15-0.32-1.21-1.24c-0.03-0.43,0.27-1.46-0.07-1.8
	c-0.18,0.44-0.39,3.47-1.44,2.64c-0.77-0.61-0.6-2.59-0.3-3.41c0.62,0.34-0.12,2.48,0.65,2.59c0.39,0.05,0.47-1.62,0.64-1.93
	c0.25-0.46,1.3-1.88,1.1-0.51c-0.09,0.63-0.58,2.46,0.56,2.43c-0.07-1.01-0.22-1.98-0.36-2.98c-0.08-0.53,0.15-1.52,0.62-0.64
	c0.34,0.64,0.09,0.9,0.04,1.52c-0.05,0.69,0.19,1.35,0.25,2.03c0.57-0.54-0.18-2.39,0.32-3.2C19.24,21.49,17.88,23.92,19.41,24.13z"
	/>
<path fill-rule="evenodd" clip-rule="evenodd" fill="#F5F5F5" d="M32.35,24.3c-0.54,0.68-1.37,0.06-1.79-0.41
	c-0.49,0.64-1.49,1.58-2.29,0.8c-0.63-0.61,0.15-1.66-0.44-2.24c-0.26,0.53-0.79,2.88-1.7,1.79c-0.51-0.6-1.16-2.74-0.15-3.17
	c-0.09,0.79-0.27,1.74,0.23,2.45c0.52,0.74,1.01-1.14,1.18-1.47c0.34-0.68,1.3-1.9,1.11-0.38c-0.08,0.6-0.3,1.97,0.31,2.39
	c0.37,0.25,0.92-0.2,1.13-0.47c0.43-0.55,0.24-1.28,0.11-1.9c-0.11-0.5-0.26-1.11,0.04-1.57c0.42-0.64,0.67,0.82,0.69,1.08
	c0.02,0.26,0.35,3.43,1.13,2.38c0.66-0.89-1.2-2.86,0.05-3.4c0.45-0.2,1.42,1.83,0.43,1.17C32.59,22.22,33.02,23.45,32.35,24.3z"/>
<path fill-rule="evenodd" clip-rule="evenodd" fill="#F5F5F5" d="M36.08,25.46c0.1,1.31,1.24,4.91-0.31,5.72
	c-0.21-0.41,0.04-1.04,0.1-1.46c0.12-0.85-0.11-1.8-0.21-2.64c-0.24-1.9-0.38-3.34-1.71-4.81c-0.35-0.39-0.81-0.73-0.87-1.28
	c-0.02-0.21-0.11-1.12,0.34-0.86c0.25,0.14,1.96,1.58,1.05,1.63c0.11,0.15,0.48,1,0.71,0.95c-0.03-0.51-0.56-1.96,0.01-2.32
	c0.54-0.34,1.1,1.64,0.95,2.02c-0.2,0.47-0.19,0.84-0.02,1.45c0.22,0.79,0.66,1.5,1.08,2.2c0.59,0.98,1.84,2.41,1.46,3.66
	c-0.62-0.32-0.99-1.73-1.26-2.31c-0.22-0.47-0.44-0.96-0.71-1.4c-0.07-0.12-0.66-0.89-0.58-0.36
	C36.09,25.65,36.09,25.46,36.08,25.46C36.16,26.61,36.1,25.46,36.08,25.46z"/>
<path fill-rule="evenodd" clip-rule="evenodd" fill="#F5F5F5" d="M49.95,27.4c0.06,2.14-0.56,4.84-3.21,4.84
	c-0.04-0.58,1.29-1.17,1.66-1.48c0.96-0.79,0.89-2.27,0.82-3.37c-0.1-1.49-0.22-3.01-0.47-4.48c-0.15-0.85-0.58-2.16,0.22-2.83
	c0.45,0.38,1.23,1.45,0.87,1.89C49.4,22.49,49.94,27.04,49.95,27.4z"/>
<path fill-rule="evenodd" clip-rule="evenodd" fill="#F5F5F5" d="M37.16,31.94c2.65-1.49,1.81-4.69,1.57-7.2
	c-0.07-0.69-0.14-1.38-0.2-2.07c-0.04-0.52-0.35-1.2-0.17-1.7c0.49-1.35,0.9-0.05,1.05,0.66c0.11,0.53-0.26,0.55-0.23,0.98
	c0.05,0.82,0.08,1.63,0.16,2.45c0.13,1.27,0.34,2.56,0.22,3.84c-0.17,1.95-1.19,3.98-3.46,3.59C36.21,32.19,36.91,32.08,37.16,31.94
	C37.61,31.69,36.87,32.1,37.16,31.94z"/>
<path fill-rule="evenodd" clip-rule="evenodd" fill="#F5F5F5" d="M41.38,26.89c0.15,1.04,0.49,2.77-0.05,3.72
	c-0.36,0.64-0.44-0.35-0.46-0.55c-0.05-0.82-0.06-1.63-0.12-2.45c-0.16-2.16-0.88-4.35-0.87-6.52c0.01-2.71,2.31,1.54,0.99,1.31
	C40.99,23.9,41.17,25.4,41.38,26.89C41.41,27.14,41.17,25.4,41.38,26.89z"/>
<path fill-rule="evenodd" clip-rule="evenodd" fill="#F5F5F5" d="M25.1,21.76c0.19,0.55-2.33,1.75-2.64,1.8
	c-0.06-0.46,1.14-1.17,1.44-1.41c0.32-0.26,0.5-0.3,0.36-0.66c-0.17-0.43-0.08-1.1,0.43-1.26C25.7,19.91,24.97,21.37,25.1,21.76z"/>
<path fill-rule="evenodd" clip-rule="evenodd" fill="#F5F5F5" d="M14.77,30.74c0.04,0.76,0.26,0.41,0.71,0.22
	c0.21,0.44-0.33,1.48-0.84,1c-0.71-0.68-0.09-2.27,0.24-2.98C15.12,29.42,14.74,30.24,14.77,30.74
	C14.82,31.63,14.73,30.13,14.77,30.74z"/>
<path fill-rule="evenodd" clip-rule="evenodd" fill="#F5F5F5" d="M43.01,24.52c0.09-0.38-0.17-0.82,0.09-1.17
	c0.37-0.48,0.82,0.09,0.62,0.3c-0.23,0.23-0.48-0.2-0.46,0.4c0.01,0.34,0.19,0.92-0.14,1.18c-0.23-0.12-1.12-1.4-0.96-1.63
	C42.46,23.21,42.92,24.38,43.01,24.52z"/>
<path fill-rule="evenodd" clip-rule="evenodd" fill="#F5F5F5" d="M16.89,26.23c-0.2,0.38-2.54,1.72-2.57,1.43
	C14.28,27.28,17.22,25.61,16.89,26.23z"/>
<path fill-rule="evenodd" clip-rule="evenodd" fill="#F5F5F5" d="M33.9,31.33c-0.31,0.87,0.95,0.1,1.26,0.03
	c-0.44,0.69-1.85,1.34-1.64-0.04c-0.14,0.03-0.27,0.05-0.41,0.08C33.04,31.22,34.25,30.37,33.9,31.33z"/>
<path fill-rule="evenodd" clip-rule="evenodd" fill="#F5F5F5" d="M44.82,30.99c0.26-0.02,0.83,0.86,0.49,1.08
	c-0.23,0.15-1.1,0.31-0.59-0.14C45.3,31.41,44.75,30.99,44.82,30.99z"/>
<path fill-rule="evenodd" clip-rule="evenodd" fill="#F5F5F5" d="M30.73,25.93c0.09-0.23,0.14-0.46,0.15-0.71
	c0.96,0.79-1.58,2.15-1.12,0.2c0.18,0.2,0.15,0.49,0.39,0.65c0.05-0.23,0.1-0.46,0.15-0.69C30.53,25.5,30.49,25.82,30.73,25.93z"/>
<path fill-rule="evenodd" clip-rule="evenodd" fill="#F5F5F5" d="M42.43,27.2c-0.27-0.41,1.48-1.53,1.78-1.73
	C44.42,25.79,42.95,26.93,42.43,27.2z"/>
<path fill-rule="evenodd" clip-rule="evenodd" fill="#F5F5F5" d="M47.96,23.15c-0.15-0.61-0.76-1.8-0.25-2.27
	C48.19,21.23,48.4,22.66,47.96,23.15z"/>
<path fill-rule="evenodd" clip-rule="evenodd" fill="#F5F5F5" d="M37.08,21.21c-0.11-0.2-0.41-0.41-0.36-0.68
	c0.06-0.36,0.35-0.33,0.49-0.11c0.28,0.44,0.48,1.47-0.03,1.84C37.16,21.92,37.26,21.55,37.08,21.21
	C36.92,20.93,37.26,21.54,37.08,21.21z"/>
<path fill-rule="evenodd" clip-rule="evenodd" fill="#F5F5F5" d="M24.87,23.86c0.05,0.57-1,1.21-1.12,0.42
	c-0.05-0.33,0.35-1.36,0.65-1.11C24.03,24.09,24,24.36,24.87,23.86z"/>
<path fill-rule="evenodd" clip-rule="evenodd" fill="#F5F5F5" d="M37.39,22.84c0.44,0.98,0.16,0.14,0.56-0.07
	c0.7,1.35-1.51,0.96-1,0.22c0.08,0.13,0.15,0.26,0.23,0.39C37.25,23.2,37.32,23.02,37.39,22.84z"/>
<path fill-rule="evenodd" clip-rule="evenodd" fill="#F5F5F5" d="M43.79,27.38c-0.46-0.4,0.11-0.85,0.42-0.41
	c0.23,0.33,0.24,1.11-0.19,1.31C44.02,27.97,44.06,27.61,43.79,27.38C43.6,27.21,44.1,27.64,43.79,27.38z"/>
<path fill-rule="evenodd" clip-rule="evenodd" fill="#F5F5F5" d="M23.32,29.57c0.03-0.24-0.13-1.7,0.19-1.52
	C23.94,28.3,23.79,29.41,23.32,29.57z"/>
<path fill-rule="evenodd" clip-rule="evenodd" fill="#F5F5F5" d="M19.09,20.22c0.06,0.26,0.2,0.72,0.42,0.2
	c0.78,0.87-1.99,0.62-1.03-0.28C18.52,20.25,18.7,20.78,19.09,20.22z"/>
<path fill-rule="evenodd" clip-rule="evenodd" fill="#F5F5F5" d="M29.31,22.38c-0.04-0.44-0.56-2.11-0.15-2.06
	C29.78,20.39,29.72,21.86,29.31,22.38z"/>
<path fill-rule="evenodd" clip-rule="evenodd" fill="#F5F5F5" d="M15.32,21.46c-0.31-0.09,0.19-0.63,0.04-0.95
	c-0.22,0.1-0.41-0.18-0.18-0.36C15.91,19.53,15.63,21.55,15.32,21.46z"/>
<path fill-rule="evenodd" clip-rule="evenodd" fill="#F5F5F5" d="M41.2,41.83l-0.44-1.24l-0.44,1.24H18.53c0,0,0.18,1.76,2.38,1.76
	h19.35v1.44h5.27v-3.21H41.2z M44.62,44.18h-3.57V43.2h3.57V44.18z"/>
<linearGradient id="SVGID_1_" gradientUnits="userSpaceOnUse" x1="32" y1="62" x2="32" y2="2">
	<stop  offset="0" style="stop-color:#1A1A1A"/>
	<stop  offset="0.102" style="stop-color:#393939;stop-opacity:0.949"/>
	<stop  offset="0.3475" style="stop-color:#7F7F7F;stop-opacity:0.8262"/>
	<stop  offset="0.5688" style="stop-color:#B6B6B6;stop-opacity:0.7156"/>
	<stop  offset="0.7582" style="stop-color:#DEDEDE;stop-opacity:0.6209"/>
	<stop  offset="0.9081" style="stop-color:#F6F6F6;stop-opacity:0.5459"/>
	<stop  offset="1" style="stop-color:#FFFFFF;stop-opacity:0.5"/>
</linearGradient>
<circle opacity="0.1" fill="url(#SVGID_1_)" cx="32" cy="32" r="30"/>
</svg>
