<?xml version="1.0" encoding="utf-8"?>
<!-- Generator: Adobe Illustrator 21.0.0, SVG Export Plug-In . SVG Version: 6.00 Build 0)  -->
<svg version="1.1" id="Layer_1" xmlns="http://www.w3.org/2000/svg" xmlns:xlink="http://www.w3.org/1999/xlink" x="0px" y="0px"
	 width="64px" height="64px" viewBox="0 0 64 64" enable-background="new 0 0 64 64" xml:space="preserve">
<circle fill="#E81C27" cx="32" cy="32" r="30"/>
<polygon fill="#F5F5F5" points="41.35,39 41.36,33.64 36,32 41.36,30.36 41.35,25 44.65,29.34 50,27.67 46.68,32 50,36.33 
	44.65,34.66 "/>
<path fill="#F5F5F5" d="M33.25,44c-6.55,0-11.87-5.37-11.87-12c0-6.63,5.31-12,11.87-12c2.51,0,4.83,0.79,6.75,2.13
	C37.28,18.99,33.29,17,28.83,17C20.64,17,14,23.72,14,32c0,8.29,6.64,15,14.83,15c4.46,0,8.45-1.99,11.17-5.13
	C38.08,43.21,35.76,44,33.25,44z"/>
<linearGradient id="SVGID_1_" gradientUnits="userSpaceOnUse" x1="32.0003" y1="62" x2="32.0003" y2="2">
	<stop  offset="0" style="stop-color:#1A1A1A"/>
	<stop  offset="0.102" style="stop-color:#393939;stop-opacity:0.949"/>
	<stop  offset="0.3475" style="stop-color:#7F7F7F;stop-opacity:0.8262"/>
	<stop  offset="0.5688" style="stop-color:#B6B6B6;stop-opacity:0.7156"/>
	<stop  offset="0.7582" style="stop-color:#DEDEDE;stop-opacity:0.6209"/>
	<stop  offset="0.9081" style="stop-color:#F6F6F6;stop-opacity:0.5459"/>
	<stop  offset="1" style="stop-color:#FFFFFF;stop-opacity:0.5"/>
</linearGradient>
<circle opacity="0.1" fill="url(#SVGID_1_)" cx="32" cy="32" r="30"/>
</svg>
