<?xml version="1.0" encoding="utf-8"?>
<!-- Generator: Adobe Illustrator 21.0.0, SVG Export Plug-In . SVG Version: 6.00 Build 0)  -->
<svg version="1.1" id="Layer_1" xmlns="http://www.w3.org/2000/svg" xmlns:xlink="http://www.w3.org/1999/xlink" x="0px" y="0px"
	 width="64px" height="64px" viewBox="0 0 64 64" enable-background="new 0 0 64 64" xml:space="preserve">
<path fill="#E81C27" d="M10.79,10.79V32H62C62,15.43,48.57,2,32,2C23.71,2,16.21,5.36,10.79,10.79L10.79,10.79z"/>
<path fill="#014D87" d="M10.79,32v21.21l0,0C16.21,58.64,23.71,62,32,62c16.57,0,30-13.43,30-30H10.79z"/>
<path fill="#F5F5F5" d="M10.79,10.79C5.36,16.22,2,23.72,2,32c0,8.29,3.36,15.78,8.79,21.21L32,32L10.79,10.79z"/>
<path fill="#FFFF00" d="M18.46,25.53l0.01-0.38c0,0-0.2-0.32,0.03-0.67c0,0-0.5-0.26-0.38-0.67c0,0-0.45-0.11-0.42-0.61
	c0,0-0.48-0.03-0.54-0.45c0,0-0.48,0.08-0.7-0.32c0,0-0.47,0.09-0.61-0.24c0,0-0.46,0.16-0.73-0.23c0,0-0.48,0.2-0.69-0.17
	c-0.2,0.37-0.69,0.17-0.69,0.17c-0.27,0.39-0.73,0.23-0.73,0.23c-0.13,0.33-0.6,0.24-0.6,0.24c-0.21,0.4-0.7,0.32-0.7,0.32
	c-0.05,0.41-0.53,0.45-0.53,0.45c0.04,0.5-0.41,0.61-0.41,0.61c0.12,0.41-0.38,0.67-0.38,0.67c0.24,0.35,0.04,0.66,0.04,0.66
	l-0.01,0.35L18.46,25.53"/>
<path fill="#FFE12C" d="M18.46,25.53l0.01-0.38c0,0-0.2-0.32,0.03-0.67c0,0-0.5-0.26-0.38-0.67c0,0-0.45-0.11-0.42-0.61
	c0,0-0.48-0.03-0.54-0.45c0,0-0.48,0.08-0.7-0.32c0,0-0.47,0.09-0.61-0.24c0,0-0.46,0.16-0.73-0.23c0,0-0.48,0.2-0.69-0.17
	c-0.2,0.37-0.69,0.17-0.69,0.17c-0.27,0.39-0.73,0.23-0.73,0.23c-0.13,0.33-0.6,0.24-0.6,0.24c-0.21,0.4-0.7,0.32-0.7,0.32
	c-0.05,0.41-0.53,0.45-0.53,0.45c0.04,0.5-0.41,0.61-0.41,0.61c0.12,0.41-0.38,0.67-0.38,0.67c0.24,0.35,0.04,0.66,0.04,0.66
	l-0.01,0.35L18.46,25.53L18.46,25.53L18.46,25.53z"/>
<path fill="#E81C27" d="M18.28,25.06c-1.26-0.13-2.71-0.43-3.83,0.2c-0.75-0.44-1.8-0.41-2.69-0.33c-0.48,0.09-1.05,0.09-1.56,0.17
	l-0.08,0.01c-0.92,0.06-1.75-0.21-2.55-0.57c0.25,1.44,0.54,2.91,0.67,4.41c0.3,2.23-1.05,4.1-0.5,6.29
	c0.33,1.05,1.49,1.67,2.55,1.79c1.03,0.06,2.09,0.23,3.05,0.44c0.18,0.04,0.39,0.12,0.52,0.18c0.26,0.11,0.45,0.27,0.62,0.44
	c0.57-0.6,1.42-0.76,2.25-0.85c1.5-0.18,3.35-0.08,4.26-1.44v-0.08c0.5-0.75,0.43-1.9,0.22-2.75c-0.01-0.29-0.09-0.56-0.14-0.84
	c-0.92-2.42-0.13-5.13,0.26-7.57c-0.48,0.26-1.02,0.39-1.55,0.52c-0.43,0.06-0.9,0.03-1.33,0.01L18.28,25.06 M20.16,32L20.16,32"/>
<path fill="#014D87" d="M20.16,32c-0.01,0.16,0.08,0.28,0.11,0.43c0.17,1.06,0.34,2.46-0.74,3.11c-1.2,0.77-2.78,0.44-4.17,0.84
	c-0.28,0.08-0.66,0.33-0.86,0.52c-0.13-0.08-0.25-0.21-0.41-0.29c-1.14-0.61-2.63-0.4-3.93-0.73c-0.65-0.21-1.33-0.71-1.49-1.38
	c-0.42-1.74,0.59-3.23,0.47-4.96c-0.08-1.32-0.3-2.59-0.6-3.83c1.01,0.47,2.18,0.55,3.32,0.32c0.84-0.12,1.82-0.12,2.61,0.23
	c0.43-0.19,0.94-0.27,1.41-0.32c0.89,0.09,1.85,0.25,2.76,0.24c0.61-0.03,1.17-0.21,1.7-0.45C20.02,27.79,19.41,29.94,20.16,32"/>
<path fill="#F5F5F5" d="M19.24,34.94l-0.68,0l-0.01-2.07h0.14l0-0.43h-0.35l-0.01-1.95h0.24l-2.94-1.9l-0.01-0.99h0.28l-1.47-1.05
	l-1.46,1.05h0.28l0.01,0.99l-2.93,1.9h0.23l0.01,1.94h-0.36v0.44l0.17,0.01l0.01,2.06H9.76l0,0.6l9.48,0.01V34.94L19.24,34.94z"/>
<path fill="#F5F5F5" d="M18.37,26.37c0.28-0.01,0.35,1.14,0.35,1.71c0.24,0.06,0.76,0.4,1,0.7l-2.67,0c0.23-0.29,0.75-0.63,0.99-0.7
	C18.03,27.51,18.09,26.36,18.37,26.37"/>
<path fill="#FFE12C" d="M24.33,32.63L24.33,32.63l-0.47,0.03c-0.05-0.45-0.15-1.01-0.37-1.64v0l0,0l-1.37,0.43l0.43,2.22l0.38,0.06
	c-0.2,1.68-1.1,4.43-5.17,4.61l0.03,0.23c-0.76,0.32-2.15,0.54-3.29,0.54l0,0c-1.14,0-2.57-0.22-3.34-0.54l0.02-0.24
	c-4.07-0.18-4.99-2.93-5.21-4.61l0.38-0.06l0.41-2.22l-1.37-0.44v0c-0.21,0.63-0.31,1.19-0.35,1.64l-0.47-0.04
	C4.36,34.46,4.72,39,9.43,39.79l0,0.48c1.33,0.73,4.41,0.89,5.09,0.88c0.67,0,3.72-0.15,5.04-0.88l-0.01-0.48
	C24.24,39.01,24.57,34.48,24.33,32.63z"/>
<path fill="#594640" d="M9.58,23.87c0.11-0.25,1.07-0.94,4.25-0.64c0,0,0.54,0.33,0.85,0.29c0.18-0.02-0.11,0.01-0.34-0.18
	c-0.24-0.2-0.29-0.6,0.26-0.59c0.54,0.02,2.58,0.13,2.62,0.31c0.04,0.18-1.08,0.26-1.49,0.25c-0.41-0.01-0.37,0.2,0.05,0.18
	c1.29-0.05,2.7-0.5,4.19,0.55c0.18,0.13-0.45,0.15-0.93-0.06c0,0-1.31,0.07-1.88-0.02c0,0-0.44,0.35-1.01,0.32
	c0.07,0.19-0.21,0.87-2,0.36c-0.3,0.09-1.37,0.27-1.26-0.05c-0.28,0-0.78,0.09-0.85-0.07c-0.07-0.16,0.88-0.4,1.04-0.57
	c0,0-2,0.02-2.38-0.12C10.69,23.83,9.51,24.1,9.58,23.87"/>
<polyline fill="#529320" points="10.22,26.67 10.37,26.51 12.35,26.69 12.01,27.22 12.19,27.74 12.07,27.96 11.62,27.8 11.75,28.01 
	11.45,28.02 11.38,28.22 11.15,28.01 11.22,28.22 10.92,28.9 10.75,28.99 10.7,28.53 10.36,28.98 10.04,28.54 10.17,27.95 
	9.9,27.72 9.29,27.78 9.48,27.06 8.82,26.35 10.22,26.67 "/>
<linearGradient id="SVGID_1_" gradientUnits="userSpaceOnUse" x1="32" y1="62" x2="32" y2="2">
	<stop  offset="0" style="stop-color:#1A1A1A"/>
	<stop  offset="0.102" style="stop-color:#393939;stop-opacity:0.949"/>
	<stop  offset="0.3475" style="stop-color:#7F7F7F;stop-opacity:0.8262"/>
	<stop  offset="0.5688" style="stop-color:#B6B6B6;stop-opacity:0.7156"/>
	<stop  offset="0.7582" style="stop-color:#DEDEDE;stop-opacity:0.6209"/>
	<stop  offset="0.9081" style="stop-color:#F6F6F6;stop-opacity:0.5459"/>
	<stop  offset="1" style="stop-color:#FFFFFF;stop-opacity:0.5"/>
</linearGradient>
<circle opacity="0.1" fill="url(#SVGID_1_)" cx="32" cy="32" r="30"/>
</svg>
