<?xml version="1.0" encoding="utf-8"?>
<!-- Generator: Adobe Illustrator 21.0.0, SVG Export Plug-In . SVG Version: 6.00 Build 0)  -->
<svg version="1.1" id="Layer_1" xmlns="http://www.w3.org/2000/svg" xmlns:xlink="http://www.w3.org/1999/xlink" x="0px" y="0px"
	 width="64px" height="64px" viewBox="0 0 64 64" enable-background="new 0 0 64 64" xml:space="preserve">
<path fill="#014D87" d="M37.97,2.6H26.03C14.26,4.98,4.99,14.24,2.6,26v12c2.39,11.77,11.66,21.02,23.43,23.4H38
	c11.77-2.39,21.02-11.66,23.4-23.43V26C59.01,14.24,49.74,4.98,37.97,2.6z"/>
<path fill="#F5F5F5" d="M38,26V2.6C36.06,2.21,34.05,2,32,2c-2.05,0-4.06,0.21-6,0.6V26H2.6C2.21,27.94,2,29.95,2,32
	c0,2.05,0.21,4.06,0.6,6H26v23.4c1.94,0.39,3.95,0.6,6,0.6c2.05,0,4.06-0.21,6-0.6V38h23.4c0.39-1.94,0.6-3.95,0.6-6
	c0-2.05-0.21-4.06-0.6-6H38z"/>
<path fill="#F5F5F5" d="M15.64,9.76c-0.4,0.21-0.71,0.52-0.71,0.67c0,0.17,0.23,0.17-0.06,0.29c-0.28,0.12-1.04,0.27-1.57,0.25
	c-0.18,0-0.61-0.13-0.73-0.13c-0.13,0.02,0.56,0.35,0.3,0.27c-0.36-0.12-0.58-0.15-0.3,0.06c0.22,0.15,0.7,0.15,1.38,0.06
	c0.27-0.04,0.96-0.21,1.21-0.25c0.16-0.02,0.16,0.15,0.26,0.15c0.89,0.06,2.48,0.02,3.18-0.1c0.58-0.1,0.79-0.06,0.96,0.17
	c0.33,0.44-0.02,0.82-0.96,1.05c-1.16,0.29-1.64,0.54-2.09,1.09c-1.08,1.34,0.18,2.85,2.53,3.06c1.38,0.13,2.27,0.44,2.05,0.69
	c-0.08,0.1-0.99,0.25-2.04,0.34c-2.27,0.21-3.28,0.57-4.14,1.53c-0.48,0.54-0.65,0.86-0.65,1.3c0,0.61,0,0.61-0.88,0.61
	c-0.46,0-1.11-0.08-1.41-0.19c-0.46-0.13-0.53-0.13-0.37,0.1c0.33,0.46,1.28,0.86,2.05,0.86c0.6,0,0.93,0.13,1.46,0.57
	c1.06,0.9,2.27,1.24,4.27,1.22c2.63-0.02,4.14-0.82,4.14-2.18c0-1.01-0.99-1.61-3.06-1.82c-1.04-0.12-3.1,0.08-3.99,0.38
	c-0.17,0.06,0.02-0.08,0.41-0.31c0.48-0.27,1.27-0.46,2.35-0.57c2.38-0.23,3.46-0.84,3.46-1.99c0-1.11-1.06-1.74-3.33-1.99
	c-2.23-0.23-2.4-0.69-0.51-1.36c1.34-0.46,2.02-1.15,2.02-2.08c0-1.44-0.68-1.91-2.95-2.05C16.56,9.4,16.23,9.44,15.64,9.76z
	 M16.83,10.16c-0.05,0.1-0.18,0.19-0.26,0.19c-0.1,0-0.12-0.1-0.07-0.19c0.05-0.12,0.18-0.19,0.26-0.19
	C16.86,9.97,16.88,10.05,16.83,10.16z M21.61,20.88c0.31,0.13,0.43,0.27,0.33,0.38c-0.28,0.33-2.1,0.61-3.21,0.52
	c-1.22-0.13-2.55-0.59-2.15-0.79C17.69,20.5,20.6,20.44,21.61,20.88z"/>
<path fill="#F5F5F5" d="M44.57,9.76c-0.4,0.21-0.71,0.52-0.71,0.67c0,0.17,0.23,0.17-0.07,0.29c-0.28,0.12-1.04,0.27-1.57,0.25
	c-0.18,0-0.61-0.13-0.73-0.13c-0.13,0.02,0.56,0.35,0.3,0.27c-0.37-0.12-0.58-0.15-0.3,0.06c0.21,0.15,0.7,0.15,1.37,0.06
	c0.27-0.04,0.96-0.21,1.21-0.25c0.17-0.02,0.17,0.15,0.27,0.15c0.89,0.06,2.48,0.02,3.18-0.1c0.58-0.1,0.79-0.06,0.96,0.17
	c0.33,0.44-0.02,0.82-0.96,1.05c-1.16,0.29-1.64,0.54-2.09,1.09c-1.08,1.34,0.18,2.85,2.53,3.06c1.37,0.13,2.27,0.44,2.05,0.69
	c-0.08,0.1-0.99,0.25-2.04,0.34c-2.27,0.21-3.28,0.57-4.14,1.53c-0.48,0.54-0.64,0.86-0.64,1.3c0,0.61,0,0.61-0.88,0.61
	c-0.46,0-1.11-0.08-1.41-0.19c-0.46-0.13-0.53-0.13-0.36,0.1c0.33,0.46,1.28,0.86,2.05,0.86c0.6,0,0.93,0.13,1.46,0.57
	c1.06,0.9,2.27,1.24,4.27,1.22c2.63-0.02,4.14-0.82,4.14-2.18c0-1.01-0.99-1.61-3.06-1.82c-1.04-0.12-3.1,0.08-3.99,0.38
	c-0.17,0.06,0.02-0.08,0.41-0.31c0.48-0.27,1.28-0.46,2.35-0.57c2.38-0.23,3.46-0.84,3.46-1.99c0-1.11-1.06-1.74-3.33-1.99
	c-2.23-0.23-2.4-0.69-0.51-1.36c1.34-0.46,2.02-1.15,2.02-2.08c0-1.44-0.68-1.91-2.95-2.05C45.5,9.4,45.17,9.44,44.57,9.76z
	 M45.77,10.16c-0.05,0.1-0.18,0.19-0.27,0.19c-0.1,0-0.12-0.1-0.07-0.19c0.05-0.12,0.18-0.19,0.27-0.19
	C45.8,9.97,45.82,10.05,45.77,10.16z M50.55,20.88c0.31,0.13,0.43,0.27,0.33,0.38c-0.28,0.33-2.1,0.61-3.21,0.52
	c-1.22-0.13-2.55-0.59-2.15-0.79C46.63,20.5,49.54,20.44,50.55,20.88z"/>
<path fill="#F5F5F5" d="M15.64,40.26c-0.4,0.21-0.71,0.52-0.71,0.67c0,0.17,0.23,0.17-0.06,0.29c-0.28,0.12-1.04,0.27-1.57,0.25
	c-0.18,0-0.61-0.13-0.73-0.13c-0.13,0.02,0.56,0.35,0.3,0.27c-0.36-0.12-0.58-0.15-0.3,0.06c0.22,0.15,0.7,0.15,1.38,0.06
	c0.27-0.04,0.96-0.21,1.21-0.25c0.16-0.02,0.16,0.15,0.26,0.15c0.89,0.06,2.48,0.02,3.18-0.1c0.58-0.1,0.79-0.06,0.96,0.17
	c0.33,0.44-0.02,0.82-0.96,1.05c-1.16,0.29-1.64,0.54-2.09,1.09c-1.08,1.34,0.18,2.85,2.53,3.06c1.38,0.13,2.27,0.44,2.05,0.69
	c-0.08,0.1-0.99,0.25-2.04,0.34c-2.27,0.21-3.28,0.57-4.14,1.53c-0.48,0.54-0.65,0.86-0.65,1.3c0,0.61,0,0.61-0.88,0.61
	c-0.46,0-1.11-0.08-1.41-0.19c-0.46-0.13-0.53-0.13-0.37,0.1c0.33,0.46,1.28,0.86,2.05,0.86c0.6,0,0.93,0.13,1.46,0.57
	c1.06,0.9,2.27,1.24,4.27,1.22c2.63-0.02,4.14-0.82,4.14-2.18c0-1.01-0.99-1.61-3.06-1.82c-1.04-0.12-3.1,0.08-3.99,0.38
	c-0.17,0.06,0.02-0.08,0.41-0.31c0.48-0.27,1.27-0.46,2.35-0.57c2.38-0.23,3.46-0.84,3.46-1.99c0-1.11-1.06-1.74-3.33-1.99
	c-2.23-0.23-2.4-0.69-0.51-1.36c1.34-0.46,2.02-1.15,2.02-2.08c0-1.44-0.68-1.91-2.95-2.05C16.56,39.9,16.23,39.94,15.64,40.26z
	 M16.83,40.66c-0.05,0.1-0.18,0.19-0.26,0.19c-0.1,0-0.12-0.1-0.07-0.19c0.05-0.12,0.18-0.19,0.26-0.19
	C16.86,40.47,16.88,40.55,16.83,40.66z M21.61,51.38c0.31,0.13,0.43,0.27,0.33,0.38c-0.28,0.33-2.1,0.61-3.21,0.52
	c-1.22-0.13-2.55-0.59-2.15-0.79C17.69,51,20.6,50.94,21.61,51.38z"/>
<path fill="#F5F5F5" d="M44.57,40.26c-0.4,0.21-0.71,0.52-0.71,0.67c0,0.17,0.23,0.17-0.07,0.29c-0.28,0.12-1.04,0.27-1.57,0.25
	c-0.18,0-0.61-0.13-0.73-0.13c-0.13,0.02,0.56,0.35,0.3,0.27c-0.37-0.12-0.58-0.15-0.3,0.06c0.21,0.15,0.7,0.15,1.37,0.06
	c0.27-0.04,0.96-0.21,1.21-0.25c0.17-0.02,0.17,0.15,0.27,0.15c0.89,0.06,2.48,0.02,3.18-0.1c0.58-0.1,0.79-0.06,0.96,0.17
	c0.33,0.44-0.02,0.82-0.96,1.05c-1.16,0.29-1.64,0.54-2.09,1.09c-1.08,1.34,0.18,2.85,2.53,3.06c1.37,0.13,2.27,0.44,2.05,0.69
	c-0.08,0.1-0.99,0.25-2.04,0.34c-2.27,0.21-3.28,0.57-4.14,1.53c-0.48,0.54-0.64,0.86-0.64,1.3c0,0.61,0,0.61-0.88,0.61
	c-0.46,0-1.11-0.08-1.41-0.19c-0.46-0.13-0.53-0.13-0.36,0.1c0.33,0.46,1.28,0.86,2.05,0.86c0.6,0,0.93,0.13,1.46,0.57
	c1.06,0.9,2.27,1.24,4.27,1.22c2.63-0.02,4.14-0.82,4.14-2.18c0-1.01-0.99-1.61-3.06-1.82c-1.04-0.12-3.1,0.08-3.99,0.38
	c-0.17,0.06,0.02-0.08,0.41-0.31c0.48-0.27,1.28-0.46,2.35-0.57c2.38-0.23,3.46-0.84,3.46-1.99c0-1.11-1.06-1.74-3.33-1.99
	c-2.23-0.23-2.4-0.69-0.51-1.36c1.34-0.46,2.02-1.15,2.02-2.08c0-1.44-0.68-1.91-2.95-2.05C45.5,39.9,45.17,39.94,44.57,40.26z
	 M45.77,40.66c-0.05,0.1-0.18,0.19-0.27,0.19c-0.1,0-0.12-0.1-0.07-0.19c0.05-0.12,0.18-0.19,0.27-0.19
	C45.8,40.47,45.82,40.55,45.77,40.66z M50.55,51.38c0.31,0.13,0.43,0.27,0.33,0.38c-0.28,0.33-2.1,0.61-3.21,0.52
	c-1.22-0.13-2.55-0.59-2.15-0.79C46.63,51,49.54,50.94,50.55,51.38z"/>
<linearGradient id="SVGID_1_" gradientUnits="userSpaceOnUse" x1="32" y1="62" x2="32" y2="2">
	<stop  offset="0" style="stop-color:#1A1A1A"/>
	<stop  offset="0.102" style="stop-color:#393939;stop-opacity:0.949"/>
	<stop  offset="0.3475" style="stop-color:#7F7F7F;stop-opacity:0.8262"/>
	<stop  offset="0.5688" style="stop-color:#B6B6B6;stop-opacity:0.7156"/>
	<stop  offset="0.7582" style="stop-color:#DEDEDE;stop-opacity:0.6209"/>
	<stop  offset="0.9081" style="stop-color:#F6F6F6;stop-opacity:0.5459"/>
	<stop  offset="1" style="stop-color:#FFFFFF;stop-opacity:0.5"/>
</linearGradient>
<circle opacity="0.1" fill="url(#SVGID_1_)" cx="32" cy="32" r="30"/>
</svg>
