<?xml version="1.0" encoding="utf-8"?>
<!-- Generator: Adobe Illustrator 21.0.0, SVG Export Plug-In . SVG Version: 6.00 Build 0)  -->
<svg version="1.1" id="Layer_1" xmlns="http://www.w3.org/2000/svg" xmlns:xlink="http://www.w3.org/1999/xlink" x="0px" y="0px"
	 width="64px" height="64px" viewBox="0 0 64 64" enable-background="new 0 0 64 64" xml:space="preserve">
<path fill="#F5F5F5" d="M32,2c-3.51,0-6.87,0.62-10,1.73V22h38.29C56.17,10.35,45.06,2,32,2z"/>
<path fill="#E81C27" d="M60.29,22H22V3.71C10.35,7.83,2,18.94,2,32c0,13.06,8.35,24.17,20,28.29V42h38.29
	C61.39,38.87,62,35.51,62,32S61.39,25.13,60.29,22z"/>
<path fill="#529320" d="M22,42v18.27C25.13,61.38,28.49,62,32,62c13.06,0,24.17-8.35,28.29-20H22z"/>
<path fill="#F5F5F5" d="M19.14,22.38l-0.25,0.1l-1.58-1.39l-1.79-1.95c0.05-0.25,0.05-0.69,0.05-1.03l0.26-0.31h0.28
	c0.12,0.21,0.35,0.36,0.61,0.36c0.26,0,0.49-0.15,0.61-0.36h0.4v0.46h2.74v-1.51h-2.74v0.45h-0.35c-0.09-0.22-0.28-0.39-0.52-0.44
	l0.06-0.06l2.16-4.54l-0.25-0.13l-3.1,4.2l0.18,0.24l-0.18,0.37l-0.46,0.02l-0.14-0.19l0.42,0.02v-0.27l-0.28-0.12v-0.57l0.35-0.01
	l0.11-0.35l-0.81-0.23v-1.96l0.56-0.73l-0.98-0.68l-0.98,0.68l0.56,0.73v1.96l-0.81,0.23l0.11,0.35l0.35,0.01v0.57l-0.28,0.12v0.27
	l0.42-0.02l-0.14,0.19l-0.46-0.02l-0.18-0.37l0.18-0.24l-3.1-4.2l-0.25,0.13l2.16,4.54l0.06,0.06c-0.24,0.05-0.44,0.22-0.52,0.44
	h-0.35v-0.45H8.53v1.51h2.74v-0.46h0.4c0.12,0.21,0.35,0.36,0.61,0.36c0.26,0,0.49-0.15,0.61-0.36h0.28l0.29,0.36v0.24h-0.36
	l-0.13,0.31l-2.43,0.22l-0.11-0.16c0,0-1.31,0.17-1.55,0.5c-0.05,0.06-0.04,0.25,0,0.31c0.23,0.34,1.51,0.65,1.51,0.65l0.04-0.15
	c0,0,0.93,0.2,1.86,0.33l-0.61,0.67l-1.58,1.39l-0.25-0.1L8.42,23.8L8.47,24l1.63-0.45l1.15-0.77l-0.2-0.05l2.55-2.19
	c0.08,0,0.15,0,0.21-0.01c0.29-0.04,0.87-0.24,1.11-0.43l0.34,0.34l2.67,2.3l-0.2,0.05l1.15,0.77L20.53,24l0.05-0.2L19.14,22.38z"/>
<linearGradient id="SVGID_1_" gradientUnits="userSpaceOnUse" x1="32.0003" y1="62" x2="32.0003" y2="2">
	<stop  offset="0" style="stop-color:#1A1A1A"/>
	<stop  offset="0.102" style="stop-color:#393939;stop-opacity:0.949"/>
	<stop  offset="0.3475" style="stop-color:#7F7F7F;stop-opacity:0.8262"/>
	<stop  offset="0.5688" style="stop-color:#B6B6B6;stop-opacity:0.7156"/>
	<stop  offset="0.7582" style="stop-color:#DEDEDE;stop-opacity:0.6209"/>
	<stop  offset="0.9081" style="stop-color:#F6F6F6;stop-opacity:0.5459"/>
	<stop  offset="1" style="stop-color:#FFFFFF;stop-opacity:0.5"/>
</linearGradient>
<circle opacity="0.1" fill="url(#SVGID_1_)" cx="32" cy="32" r="30"/>
</svg>
