<?xml version="1.0" encoding="utf-8"?>
<!-- Generator: Adobe Illustrator 21.0.0, SVG Export Plug-In . SVG Version: 6.00 Build 0)  -->
<svg version="1.1" id="Layer_1" xmlns="http://www.w3.org/2000/svg" xmlns:xlink="http://www.w3.org/1999/xlink" x="0px" y="0px"
	 width="64px" height="64px" viewBox="0 0 64 64" enable-background="new 0 0 64 64" xml:space="preserve">
<path fill="#F5F5F5" d="M42.33,3.83c-1.36-0.5-2.76-0.9-4.2-1.2l-20.3,10.15h-6.12v-1.05l19.43-9.72c-1.11,0.03-2.2,0.12-3.28,0.27
	l-16.15,8.08V9.9c-0.34,0.31-0.68,0.64-1,0.96c-0.5,0.5-0.98,1.02-1.45,1.56v0.53v0.89c0.53,0.39,1,0.85,1.38,1.38h2.29H23.9h18.44
	v-2.45H28.79l13.54-6.77V3.83z"/>
<path fill="#F5F5F5" d="M21.16,22.57h-8.21h-2.29c-0.38,0.53-0.85,1-1.38,1.38v0v2.26v11.05h2.45v-9.83l19.66,9.83h10.95
	L17.84,25.02h8.21l16.28,8.14v-1.37l-13.54-6.77h13.54v-2.45H23.9H21.16z"/>
<path fill="#E81C27" d="M8.48,13.35c0.01,0,0.01,0.01,0.02,0.01c0.27,0.14,0.53,0.3,0.78,0.48v-0.89v-0.53
	c-0.26,0.3-0.51,0.6-0.75,0.9L8.48,13.35z"/>
<polygon fill="#E81C27" points="17.84,25.02 42.33,37.27 42.33,33.16 26.06,25.02 "/>
<path fill="#E81C27" d="M38.14,2.63C36.16,2.22,34.1,2,32,2c-0.29,0-0.57,0-0.85,0.01l-19.43,9.72v1.05h6.12L38.14,2.63z"/>
<path fill="#E81C27" d="M23.9,15.22H12.94h-2.29c0.2,0.28,0.38,0.57,0.54,0.88c0.42,0.84,0.66,1.79,0.66,2.8
	c0,1-0.24,1.95-0.66,2.79c-0.15,0.31-0.33,0.6-0.54,0.88h2.29h8.21h2.74h18.44V18.9v-3.67H23.9z M29.18,22.23l-2.16-1.57l-2.16,1.57
	l0.82-2.54L24.6,18.9l-1.07-0.78h2.67l0.82-2.54l0.83,2.54h2.67l-1.07,0.78l-1.08,0.79L29.18,22.23z"/>
<polygon fill="#E81C27" points="9.27,23.95 9.27,23.95 9.27,23.95 "/>
<path fill="#E81C27" d="M6.88,25.02c-0.41,0.09-0.84,0.13-1.28,0.13c-0.44,0-0.87-0.05-1.28-0.13c-0.48-0.1-0.94-0.26-1.38-0.46
	c-0.11,0.43-0.21,0.87-0.3,1.3C2.22,27.84,2,29.89,2,32c0,1.8,0.16,3.56,0.46,5.27H5.6h3.67V26.21v-2.26l0,0
	C8.57,24.46,7.76,24.83,6.88,25.02z M7.75,34.47L5.6,32.9l-2.16,1.57l0.83-2.54L2.1,30.36h2.67l0.82-2.54l0.82,2.54h2.67l-2.16,1.57
	L7.75,34.47z"/>
<polygon fill="#014D87" points="28.79,12.78 42.33,12.78 42.33,6.01 "/>
<path fill="#014D87" d="M11.72,9.9v0.46l16.15-8.08C21.69,3.14,16.1,5.87,11.72,9.9z"/>
<polygon fill="#014D87" points="11.72,37.27 31.38,37.27 11.72,27.44 "/>
<polygon fill="#014D87" points="42.33,31.79 42.33,25.02 28.79,25.02 "/>
<polygon fill="#014D87" points="11.54,16.97 11.54,16.97 11.54,16.97 "/>
<path fill="#014D87" d="M11.54,16.97L8.88,18.9l-1.02,0.74l0.15,0.47l1.25,3.84l0,0c0.53-0.39,1-0.85,1.38-1.38
	c0.2-0.28,0.38-0.57,0.54-0.88c0.42-0.84,0.66-1.79,0.66-2.79C11.85,18.22,11.74,17.58,11.54,16.97z"/>
<path fill="#014D87" d="M10.65,15.22c-0.38-0.53-0.85-1-1.38-1.38c-0.25-0.18-0.5-0.34-0.78-0.48c-0.65,0.82-1.27,1.68-1.83,2.57
	L7,16.97h2.46h2.08c-0.1-0.3-0.21-0.59-0.35-0.86C11.03,15.79,10.85,15.5,10.65,15.22z"/>
<path fill="#014D87" d="M3.42,22.87C3.27,23.34,3.13,23.82,3,24.3c-0.02,0.08-0.04,0.17-0.07,0.25c0.44,0.2,0.9,0.36,1.38,0.46
	c0.41,0.09,0.84,0.13,1.28,0.13c0.44,0,0.87-0.05,1.28-0.13c0.88-0.18,1.69-0.55,2.39-1.06L5.6,21.29L3.42,22.87z"/>
<path fill="#FFE12C" d="M44.4,4.68c-0.68-0.31-1.37-0.59-2.07-0.85v2.18v6.77v2.45v3.67v3.67v2.45v6.77v1.37v4.11H31.38H11.72H9.27
	H5.6H2.46c0.57,3.2,1.64,6.22,3.13,8.98c0.61,1.13,1.3,2.22,2.04,3.26C13.09,57.07,21.97,62,32,62c16.57,0,30-13.43,30-30
	C62,19.85,54.78,9.39,44.4,4.68z"/>
<path fill="#FFE12C" d="M9.27,23.95L9.27,23.95L9.27,23.95l-1.25-3.84l-0.15-0.47l1.02-0.74l2.66-1.93H9.46H7l-0.34-1.03
	c-0.21,0.34-0.42,0.68-0.63,1.03c-0.15,0.26-0.3,0.52-0.44,0.78c-0.16,0.3-0.32,0.61-0.47,0.91c-0.04,0.08-0.08,0.16-0.12,0.24
	c-0.06,0.13-0.12,0.26-0.18,0.38C4.66,19.64,4.49,20,4.34,20.37C4,21.19,3.69,22.02,3.42,22.87l2.18-1.58L9.27,23.95z"/>
<polygon fill="#FFE12C" points="25.69,19.69 24.87,22.23 27.02,20.66 29.18,22.23 28.36,19.69 29.44,18.9 30.52,18.12 27.85,18.12 
	27.02,15.58 26.2,18.12 23.53,18.12 24.6,18.9 "/>
<polygon fill="#FFE12C" points="3.44,34.47 5.6,32.9 7.75,34.47 6.93,31.93 9.09,30.36 6.42,30.36 5.6,27.82 4.77,30.36 2.1,30.36 
	4.26,31.93 "/>
<linearGradient id="SVGID_1_" gradientUnits="userSpaceOnUse" x1="31.997" y1="62" x2="31.997" y2="2">
	<stop  offset="0" style="stop-color:#1A1A1A"/>
	<stop  offset="0.102" style="stop-color:#393939;stop-opacity:0.949"/>
	<stop  offset="0.3475" style="stop-color:#7F7F7F;stop-opacity:0.8262"/>
	<stop  offset="0.5688" style="stop-color:#B6B6B6;stop-opacity:0.7156"/>
	<stop  offset="0.7582" style="stop-color:#DEDEDE;stop-opacity:0.6209"/>
	<stop  offset="0.9081" style="stop-color:#F6F6F6;stop-opacity:0.5459"/>
	<stop  offset="1" style="stop-color:#FFFFFF;stop-opacity:0.5"/>
</linearGradient>
<circle opacity="0.1" fill="url(#SVGID_1_)" cx="32" cy="32" r="30"/>
</svg>
