<?xml version="1.0" encoding="utf-8"?>
<!-- Generator: Adobe Illustrator 21.0.0, SVG Export Plug-In . SVG Version: 6.00 Build 0)  -->
<svg version="1.1" id="Layer_1" xmlns="http://www.w3.org/2000/svg" xmlns:xlink="http://www.w3.org/1999/xlink" x="0px" y="0px"
	 width="64px" height="64px" viewBox="0 0 64 64" enable-background="new 0 0 64 64" xml:space="preserve">
<path fill="#E81C27" d="M2,32c0,5.88,1.7,11.37,4.63,16h50.74C60.3,43.37,62,37.88,62,32c0-5.88-1.7-11.37-4.63-16H6.63
	C3.7,20.63,2,26.12,2,32z"/>
<path fill="#014D87" d="M57.37,16C52.06,7.59,42.68,2,32,2C21.32,2,11.94,7.59,6.63,16H57.37z"/>
<path fill="#014D87" d="M6.63,48C11.94,56.41,21.32,62,32,62c10.68,0,20.06-5.59,25.37-14H6.63z"/>
<path fill="#E2E2E2" d="M45.92,35.74h-0.03v-3.07c0.1-0.39,0.41-0.74,0.65-0.81l0,0v-2.7v-0.19c-0.34,0-0.52,0.44-0.54,0.49v-1.15
	l0,0c-0.14-0.09-0.29-0.08-0.46-0.01v0.29h-0.52v-1.35c-0.18,0-0.21,0.64-0.61,0.64c-0.21,0-0.19-0.26-0.07-0.48
	c0.11-0.19,0.23-0.45,0.06-0.94c-0.12,0.38-0.45,0.49-0.39,0.26c0.1-0.4,0.4-0.47,0.18-1.1c-0.08,0.52-0.4,0.5-0.32,0.2
	c0.09-0.34,0.27-0.48,0.04-0.96c-0.13,0.55-0.29,0.52-0.29,0.18c0-0.5,0.02-1.04-0.61-1.24c0,0-0.04-0.46-0.26-0.46
	c-0.22,0-0.26,0.46-0.26,0.46c-0.62,0.2-0.61,0.74-0.61,1.24c0,0.34-0.17,0.37-0.29-0.18c-0.23,0.48-0.04,0.62,0.04,0.96
	c0.08,0.3-0.24,0.33-0.32-0.2c-0.22,0.63,0.07,0.69,0.18,1.1c0.06,0.23-0.27,0.12-0.39-0.26c-0.18,0.49-0.05,0.75,0.06,0.94
	c0.12,0.21,0.14,0.48-0.07,0.48c-0.41,0-0.44-0.64-0.61-0.64v2.37h-4.75l0.01-2.14c-0.31,0.13-0.37,0.43-0.37,0.43v0.39h-0.31l0,0
	c0,0-0.21-0.01-0.21-0.38c0-0.37,0.13-0.62,0.39-0.61v-0.75c0,0-0.7,0.1-0.7,0.94v-0.71c-0.22,0-0.25,0.28-0.25,1.02h-0.21v-0.83
	c0.01-0.41,0.4-0.45,0.41-0.75c0,0,0.05-0.46-0.06-0.66c-0.16,0.61-0.44,0.5-0.44,0.25c0-0.22,0.16-0.42,0.49-0.95
	c0.11-0.17,0.04-0.7-0.11-0.89c-0.06,0.46-0.12,0.68-0.31,0.68c-0.12,0-0.21-0.08-0.21-0.31c0-0.29,0.19-0.44,0.29-0.71
	c0.11-0.31,0.03-0.63-0.15-0.81c-0.08,0.46-0.05,0.64-0.25,0.64c-0.39-0.13,0-0.72,0.08-0.87c0.07-0.28-0.13-0.52-0.13-0.52
	c-0.13,0.4-0.16,0.44-0.3,0.4c-0.17-0.05-0.15-0.31,0.06-0.52c0.13-0.13,0.12-0.33-0.02-0.49c-0.15,0.3-0.38,0.26-0.35,0.08
	l0.12-0.64H32.9l0.04-1.27h-0.39c-0.04-0.27-0.17-0.63-0.57-0.64c-0.4,0.01-0.53,0.37-0.57,0.64h-0.39l0.04,1.27h-0.33l0.11,0.66
	c-0.02,0.17-0.2,0.19-0.34-0.1c-0.14,0.16-0.15,0.36-0.02,0.49c0.21,0.21,0.23,0.47,0.06,0.52c-0.13,0.04-0.17,0-0.29-0.4
	c0,0-0.23,0.35-0.13,0.52c0.08,0.15,0.47,0.74,0.08,0.87c-0.19,0-0.17-0.18-0.25-0.64c-0.18,0.18-0.26,0.49-0.15,0.81
	c0.09,0.27,0.29,0.42,0.29,0.71c0,0.23-0.1,0.31-0.21,0.31c-0.19,0-0.26-0.22-0.31-0.68c-0.15,0.19-0.21,0.72-0.11,0.89
	c0.33,0.53,0.49,0.73,0.49,0.95c0,0.25-0.28,0.36-0.44-0.25c-0.12,0.21-0.07,0.66-0.07,0.66c0.01,0.3,0.4,0.33,0.41,0.75v0.83h-0.2
	c0-0.72,0-1.02-0.27-1.02v0.66c-0.03-0.79-0.7-0.88-0.7-0.88v0.75c0.27-0.01,0.39,0.24,0.39,0.61c0,0.37-0.21,0.38-0.21,0.38l0,0
	h-0.36v-0.39c0,0-0.08-0.3-0.39-0.43v2.14h-4.62v-2.37c-0.18,0-0.21,0.64-0.61,0.64c-0.21,0-0.19-0.26-0.07-0.48
	c0.11-0.19,0.24-0.45,0.06-0.94c-0.12,0.38-0.45,0.49-0.39,0.26c0.1-0.4,0.4-0.47,0.18-1.1c-0.08,0.52-0.4,0.5-0.32,0.2
	c0.09-0.34,0.27-0.48,0.04-0.96c-0.13,0.55-0.3,0.52-0.3,0.18c0-0.5,0.02-1.04-0.61-1.24c0,0-0.03-0.46-0.26-0.46
	c-0.22,0-0.26,0.46-0.26,0.46c-0.62,0.2-0.61,0.74-0.61,1.24c0,0.34-0.17,0.37-0.29-0.18c-0.22,0.48-0.04,0.62,0.04,0.96
	c0.08,0.3-0.24,0.33-0.32-0.2c-0.22,0.63,0.07,0.69,0.18,1.1c0.06,0.23-0.27,0.12-0.39-0.26c-0.18,0.49-0.05,0.75,0.06,0.94
	c0.12,0.21,0.14,0.48-0.07,0.48c-0.41,0-0.44-0.64-0.61-0.64v1.35h-0.46v-0.29c-0.18-0.07-0.36-0.08-0.51,0.01l0,0v1.15
	c-0.02-0.05-0.19-0.49-0.54-0.49v0.19v2.7l0,0c0.24,0.07,0.56,0.42,0.65,0.81v3.07l0,0c-0.1,0.35-0.38,0.66-0.64,0.8h29.09
	C46.3,36.41,46.01,36.09,45.92,35.74z"/>
<polygon fill="#F5F5F5" points="49.67,42.12 49.67,40.25 48.74,40.25 48.74,38.64 47.81,38.64 47.81,37.43 47.26,37.43 47.26,36.5 
	16.74,36.5 16.74,37.43 16.19,37.43 16.19,38.64 15.26,38.64 15.26,40.25 14.33,40.25 14.33,42.12 13.4,42.12 13.4,44 50.6,44 
	50.6,42.12 "/>
<path fill="#F5F5F5" d="M22.83,36.54c-0.25-0.12-0.61-0.44-0.61-0.76v-3.3l0.34-0.5h0.06v-1.02c-0.17,0.07-0.34,0.16-0.47,0.26
	c-0.03-0.1-0.06-0.2-0.09-0.29c0.12-0.13,0.51-0.56,0.6-0.76v-0.81c-0.11,0.02-0.21,0.06-0.3,0.13c0.15-0.21,0.3-0.44,0.3-0.58V28.1
	c-0.23,0.03-0.45,0.2-0.62,0.53c-0.04-0.21-0.1-0.4-0.16-0.57c0.11-0.1,0.42-0.41,0.44-0.6v-0.52c-0.18,0.02-0.34,0.07-0.47,0.28
	c-0.02-0.07-0.04-0.13-0.06-0.18l0.32-0.41v-0.49c-0.14,0.02-0.22,0.07-0.32,0.24c-0.03-0.11-0.07-0.19-0.12-0.26h0.04l0.12-0.27
	v-0.38c-0.1,0.01-0.15,0.04-0.22,0.14c-0.03-0.08-0.06-0.16-0.12-0.22h0.07l0.26-0.23v-0.29c-0.1,0.01-0.15,0.04-0.22,0.14
	c-0.06-0.19-0.19-0.35-0.37-0.44c-0.18,0.09-0.31,0.24-0.37,0.43c-0.07-0.1-0.13-0.13-0.22-0.13v0.29l0.26,0.23h0.07
	c-0.05,0.06-0.09,0.13-0.11,0.21c-0.07-0.1-0.12-0.13-0.22-0.13v0.38l0.12,0.27h0.03c-0.05,0.06-0.09,0.14-0.12,0.24
	c-0.11-0.17-0.18-0.21-0.32-0.23v0.49l0.32,0.41c-0.02,0.05-0.04,0.11-0.06,0.18c-0.13-0.21-0.3-0.26-0.47-0.28v0.52
	c0.05,0.19,0.34,0.49,0.44,0.6c-0.06,0.17-0.12,0.36-0.16,0.57c-0.17-0.33-0.39-0.5-0.62-0.53v0.81c0.02,0.14,0.18,0.38,0.33,0.59
	c-0.1-0.08-0.21-0.13-0.33-0.15v0.81c0.1,0.19,0.41,0.55,0.56,0.72c-0.04,0.11-0.07,0.21-0.1,0.33c-0.13-0.1-0.29-0.18-0.46-0.25
	v1.02h0.05l0.34,0.5v3.3c0,0.32-0.36,0.64-0.61,0.76h0.47V44h2.31v-7.46H22.83z"/>
<path fill="#F5F5F5" d="M33.74,28.25v-0.99c-0.38,0.1-0.62,0.4-0.74,0.57c0-0.17-0.06-0.37-0.16-0.57c0.05-0.4,0.17-0.63,0.4-0.76
	h0.15v-0.86c-0.31,0.08-0.51,0.25-0.6,0.49c0-0.13-0.09-0.36-0.23-0.58l0.33-0.48h0.37v-0.86c-0.28,0.08-0.46,0.25-0.54,0.49
	c0-0.14-0.09-0.37-0.22-0.6l0.46-0.42v-0.71c-0.23,0.07-0.49,0.1-0.51,0.47c-0.03-0.22-0.08-0.4-0.13-0.54l0.52-0.37v-0.48
	c-0.2,0.05-0.42,0.07-0.45,0.32c-0.02-0.13-0.05-0.23-0.09-0.32l0.29-0.16v-0.53c-0.14,0.04-0.3,0.06-0.31,0.29
	c-0.05-0.33-0.14-0.31-0.27-0.45c-0.14,0.13-0.23,0.11-0.28,0.45c-0.01-0.23-0.17-0.25-0.31-0.29v0.53l0.29,0.16
	c-0.04,0.09-0.07,0.19-0.09,0.32c-0.02-0.25-0.25-0.27-0.45-0.32v0.48l0.52,0.37c-0.06,0.15-0.1,0.32-0.14,0.54
	c-0.02-0.37-0.28-0.4-0.51-0.47v0.71l0.42,0.39c-0.15,0.24-0.24,0.48-0.24,0.63c-0.07-0.22-0.26-0.41-0.54-0.49v0.86h0.37l0.33,0.48
	c-0.14,0.22-0.23,0.44-0.23,0.58c-0.07-0.22-0.29-0.41-0.59-0.49v0.86h0.15c0.23,0.13,0.35,0.37,0.4,0.77
	c-0.1,0.21-0.16,0.41-0.16,0.57c-0.13-0.17-0.36-0.47-0.74-0.57v0.99h0.15c0.3,0.38,0.37,0.95,0.38,1.44
	c-0.07-0.11-0.17-0.21-0.32-0.27v1.01h0.98c-0.17,0.3-0.28,0.65-0.26,0.97c-0.11-0.23-0.13-0.36-0.49-0.45v1.02h0.04l0.2,0.32v3.48
	c0,0.32-0.36,0.64-0.61,0.76h0.52V44h2.3v-7.46h0.54c-0.25-0.12-0.61-0.44-0.61-0.76V32.3l0.2-0.32h0.05v-1.02
	c-0.35,0.09-0.38,0.22-0.49,0.45c0.02-0.32-0.08-0.67-0.26-0.97h0.98v-1.01c-0.13,0.05-0.22,0.13-0.29,0.23
	c0.02-0.48,0.09-1.03,0.38-1.4H33.74z"/>
<path fill="#F5F5F5" d="M44.42,36.54c-0.25-0.12-0.61-0.44-0.61-0.76v-3.3l0.34-0.5h0.05v-1.02c-0.17,0.07-0.32,0.15-0.46,0.25
	c-0.03-0.11-0.06-0.22-0.1-0.33c0.14-0.17,0.46-0.53,0.56-0.72v-0.81c-0.12,0.02-0.23,0.07-0.33,0.15c0.15-0.21,0.3-0.46,0.33-0.59
	V28.1c-0.23,0.03-0.45,0.2-0.62,0.53c-0.05-0.21-0.1-0.4-0.17-0.57c0.11-0.11,0.4-0.41,0.44-0.6v-0.52
	c-0.18,0.02-0.34,0.07-0.47,0.28c-0.02-0.07-0.04-0.13-0.06-0.18l0.32-0.41v-0.49c-0.14,0.02-0.22,0.06-0.32,0.23
	c-0.03-0.11-0.07-0.18-0.12-0.24h0.04l0.12-0.27v-0.38c-0.1,0.01-0.15,0.04-0.22,0.13c-0.03-0.08-0.07-0.15-0.11-0.21h0.07
	l0.26-0.23v-0.29c-0.1,0.01-0.15,0.04-0.22,0.13c-0.06-0.2-0.19-0.34-0.37-0.43c-0.18,0.09-0.31,0.25-0.37,0.44
	c-0.07-0.1-0.12-0.13-0.22-0.14v0.29l0.26,0.23h0.07c-0.05,0.07-0.09,0.14-0.11,0.22c-0.07-0.1-0.12-0.13-0.22-0.14v0.38l0.12,0.27
	h0.04c-0.05,0.06-0.09,0.15-0.12,0.26c-0.11-0.17-0.18-0.22-0.32-0.24v0.49l0.32,0.41c-0.02,0.05-0.04,0.11-0.06,0.18
	c-0.13-0.21-0.3-0.26-0.47-0.28v0.52c0.02,0.19,0.33,0.5,0.44,0.6c-0.07,0.17-0.12,0.36-0.16,0.57c-0.17-0.33-0.39-0.5-0.63-0.53
	v0.81c0.01,0.13,0.15,0.37,0.3,0.58c-0.1-0.07-0.2-0.12-0.3-0.13v0.81c0.09,0.21,0.47,0.63,0.6,0.76c-0.03,0.1-0.06,0.19-0.09,0.29
	c-0.13-0.1-0.3-0.19-0.47-0.26v1.02h0.06l0.34,0.5v3.3c0,0.32-0.36,0.64-0.61,0.76h0.45V44h2.3v-7.46H44.42z"/>
<linearGradient id="SVGID_1_" gradientUnits="userSpaceOnUse" x1="32" y1="62" x2="32" y2="2">
	<stop  offset="0" style="stop-color:#1A1A1A"/>
	<stop  offset="0.102" style="stop-color:#393939;stop-opacity:0.949"/>
	<stop  offset="0.3475" style="stop-color:#7F7F7F;stop-opacity:0.8262"/>
	<stop  offset="0.5688" style="stop-color:#B6B6B6;stop-opacity:0.7156"/>
	<stop  offset="0.7582" style="stop-color:#DEDEDE;stop-opacity:0.6209"/>
	<stop  offset="0.9081" style="stop-color:#F6F6F6;stop-opacity:0.5459"/>
	<stop  offset="1" style="stop-color:#FFFFFF;stop-opacity:0.5"/>
</linearGradient>
<circle opacity="0.1" fill="url(#SVGID_1_)" cx="32" cy="32" r="30"/>
</svg>
