<?xml version="1.0" encoding="utf-8"?>
<!-- Generator: Adobe Illustrator 21.0.0, SVG Export Plug-In . SVG Version: 6.00 Build 0)  -->
<svg version="1.1" id="Layer_1" xmlns="http://www.w3.org/2000/svg" xmlns:xlink="http://www.w3.org/1999/xlink" x="0px" y="0px"
	 width="64px" height="64px" viewBox="0 0 64 64" enable-background="new 0 0 64 64" xml:space="preserve">
<path fill="#529320" d="M2,32c0,11.51,6.49,21.5,16,26.53V5.47C8.49,10.5,2,20.49,2,32z"/>
<path fill="#529320" d="M62,32c0-11.51-6.49-21.5-16-26.53v53.06C55.51,53.5,62,43.51,62,32z"/>
<path fill="#F5F5F5" d="M32,2c-5.06,0-9.82,1.26-14,3.47v53.06C22.18,60.74,26.94,62,32,62c5.06,0,9.82-1.26,14-3.47V5.47
	C41.82,3.26,37.06,2,32,2z"/>
<path fill="#529320" d="M32.32,13.06c-0.08,0.83-0.15,1.65-0.23,2.48c-0.28,0.04-0.56,0.08-0.84,0.13c0,0,0.58,0.33,0.69,0.66
	l-0.01,0.13l-0.03,0.03c-0.17,0.13-0.67,0.07-0.67,0.07s0.66,0.56,0.71,0.76l0,0.01v0.01l0,0.01l-0.02,0.03
	c-0.15,0.14-0.89,0.18-0.89,0.18s0.81,0.58,0.87,0.91c0.04,0.3,0.01,0.47,0,0.5c-0.06-0.05-1.37-1.15-2.22-0.83l-0.08,0.06l0,0.03
	c0.06,0.18,1.26,0.37,2.09,1.09c-0.02,0.18-2.38-0.57-2.47-0.1c0.07,0.13,2.54,0.49,2.72,0.81c-0.91,0.03-2.78-0.2-2.72,0.1
	c-0.19,0.35,1.77,0.15,2.59,0.43c0.24,0.27,0.22,0.5-0.2,0.53c-0.79-0.38-2.57-0.66-2.57-0.18v0l0,0l0,0.01l0.01,0.01
	c0.2,0.1,1.85,0.05,2.47,0.46c-0.88,0.2-3.87-0.4-3.89-0.11c0.09,0.14,0.56,0.74,1.38,0.72c0.81-0.02,2.7,0.33,2.82,0.58l0,0.02
	c-0.06,0.18-2.48-0.54-3.41-0.1c-0.97,0.46,2.77,0.18,3.38,0.74c0.61,0.56-1.22-0.05-1.22-0.05s-2.54-0.35-2.93-0.17
	c-0.38,0.18-0.81,0.58-0.81,0.58s0.25,0.5,0.51,0.4L27.43,24h0l0,0l0,0l0,0l0,0l0,0.01l-0.17,0.3c0,0,3.56,0.86,4.35,1.62
	c0.79,0.76-4.53-1.19-4.53-1.19s-2.14,0.78,0.13,0.83c-0.25,0.37,0.11,0.59,0.13,0.61c0,0,3.77,0.79,4.15,1.39
	c0.38,0.61-2.57-0.58-3.23-0.91c-0.64-0.32-2.42,0.17-2.52,0.32l0,0.01v0V27v0v0l0,0v0l0.01,0.01l0,0c0.11,0.13,0.91,0.3,0.93,0.51
	v0l-0.01,0.04c-0.1,0.19-1.05,0.28-1.09,0.46l0,0.01c0,0.2,4.76,1.19,6.03,2.25c1.27,1.06-3.74-1.27-3.74-1.27s0.28,0.38,0,0.48
	c-0.28,0.1-1.28-1.42-2.9-0.48c-0.3,0.39,1.42,0.69,1.86,0.73c-0.15,0.38-0.28,0.51,0.33,0.89l0.12,0.08l0,0l0,0v0v0h0h0
	c-0.1-0.02-1.19-0.58-1.31-0.6h-0.01h0l0.13,0.66c-0.56-0.45-1.24-0.59-1.88-0.13c0,0.03-0.01,0.46,0.63,0.73
	c-0.36,0.73,0.41,0.51,1.63,1.19c-1.81-0.47-1.96,0.4-0.66,0.61c1.3,0.2,4.86,0.33,5.7,1.42c0.18,0.23,0.23,0.34,0.19,0.38
	c-0.14,0.13-1.43-0.8-1.62-0.83h0l0,0l-0.01,0.01c-0.04,0.1-0.09,0.54-0.09,0.54c-0.54-0.31-1.04-0.59-1.69-0.73
	c-0.05,0.1-0.04,0.25-0.09,0.35c-0.59-0.42-1.1-0.72-1.96-0.76c-0.03,0.13-0.07,0.27-0.1,0.41c0,0-0.71-0.89-2.11,0
	c-0.78,0.56,2.95,0.2,3.56,0.86c0.61,0.66,0.13,0.76,0.13,0.76c-0.51-0.19-1.02-0.37-1.52-0.55c0,0-1.81-0.33-2.32,0.07
	c-0.51,0.41,7.43,1.39,7.66,2.48c0.15,0.59-1.87-0.62-3.61-1.14c-0.07,0.19-0.14,0.39-0.21,0.58c-0.04-0.04-0.72-0.69-1.47-0.81l0,0
	v0.01l0.15,0.67c0,0-1.96-0.91-2.95-0.43c-0.99,0.48,3.46,0.73,3.87,1.19l0.06,0.11l-0.01,0.01c-0.1,0.14-1.43-0.38-1.56-0.12
	c-0.15,0.3-2.31-0.56-2.29-0.15c0.03,0.41,0.31,0.63,0.31,0.63s4.5,0.43,4.66,0.96c0.15,0.53-2.49-0.3-2.49-0.3
	s-0.26,0.38-0.05,0.55l0.02,0.02v0h0c-0.09-0.03-1.53-0.96-1.39-0.25c-0.56-0.22-2.01-0.91-1.81-0.38c0.2,0.52,3.98,1.27,4.09,1.29
	c-0.1,0.01-1.7,0.14-1.63,0.56c-2.14-1.3-2.14-0.52-2.09-0.46v0c-0.12-0.02-2.76-0.67-0.66,0.46c1.13,0.6,1.4,0.84,1.4,0.93v0.01
	l0,0.01l0,0l0,0l0,0l0,0l0,0l0,0L23.7,41.6h-0.01l0,0l0,0l0.19,0.57l0,0.01v0h0v0h0h0c-0.09-0.02-1.48-0.76-1.96-0.81
	c-0.48-0.05-2.78,0.63-0.33,1.69c2.44,1.06,3.94-0.25,5.29-0.1c1.35,0.15,1.99,0.38,1.86,0.81c-0.13,0.43-1.38-1.41-2.7,0.18
	c-1.5-0.3-2.51-0.47-1.74,0.63c-2.45-0.91-3.94,0.28-0.86,0.76c3.03,0.09,4.89-0.73,4.89-0.73s0.51,0.94,1.25,0.28
	c0.7-0.63,0.76,0.17,0.79,0.25l0,0v0h0l0.71-0.31h0.18v6.07c0.82,0.01,1.64,0.02,2.47,0.02c0,0-0.79-5.29-0.36-6
	c0.42-0.69,0.81-0.61,0.84-0.61c0,0,1.6,0.48,1.78,0.4l0.01,0l0.01,0L36,44.73l0,0c0.13-0.12,0-0.59,0.81-0.51
	c0.25-0.09,0.15-0.49,0.32-0.59l0.01-0.01l0.02-0.01l0.03,0c0.25-0.03,5.17,1.37,6.23,0.05c-0.28-0.73-1.25-0.05-1.5-0.02
	c-0.23,0-1.2-0.46-1.76,0C39.67,43.25,37.35,43,37.35,43c-0.3-0.3,5.52,0.15,5.85-0.08c0.69-0.68-1.27-0.61-1.58-0.38
	c-0.54-0.33-1.23-0.31-1.64-0.08c-0.2-0.47-2.09-0.27-3.14-0.4c-0.34-0.2-0.28-0.31-0.05-0.43c2.2,0.09,4.38,0.38,6.59,0.28
	c0.6-0.77-0.75-1.06-1.58-0.41c-0.48-0.79-1.48-0.03-2.14-0.1c-0.66-0.08-0.36-0.88,0.48-0.76c0.84,0.13,2.34-0.05,2.62-0.43
	c0.28-0.38-0.17-0.76-1.55-0.4c-0.47-0.46-1.5,0-1.98,0.15c-0.64-0.36-2.14-0.05-2.65,0.08c-0.5-0.31,2.62-0.81,2.62-0.81
	c1.2-0.02,1.88-0.23,2.26-0.33c1.82-0.97-0.03-1.07-0.98-0.37c-0.59-0.46-1.16,0.04-1.69,0.22c-0.5,0.17-1.43,0.29-1.54,0.24
	l-0.01,0l0,0l0,0v0v0l0-0.01c0.08-0.12,1.45-0.95,1.45-0.95s1.78-0.13,2.14-0.18c0.22-0.03,0.98-0.39,0.98-0.52
	c-0.01-0.08-0.32-0.07-1.29,0.17c-0.87,0.08-1.37,0.03-1.7,0.05c-0.53-0.05-0.76-0.11-0.8-0.16l-0.01-0.01l0.01-0.03l0.01-0.01
	c0.13-0.1,0.97-0.18,0.97-0.18s2.57-0.23,2.74-0.37l0,0l0,0l0,0c0.05-1.04-2.18-0.56-2.24-0.55c0.01-0.74-2.02-0.01-2.11,0h0
	l-0.13-0.15L37.28,36c0.05-0.15,0.36-0.27,0.36-0.27c0.56-0.13,1.4-0.18,1.62-0.35c0,0,1.58-0.01,1.77-0.43
	c-0.39-1.06-3.34,0.19-3.74,0.38l-0.15-0.05c-0.13-0.19,0.51-0.81,0.53-0.83l0,0c0.1-0.03,2.46-0.15,3.59-1.67
	c0.08-0.94-1.35,0.53-1.35,0.53c-0.11-1.22-1.55,0.08-2.39,0.18c-0.84,0.1-0.87-0.38-0.28-0.46c0.59-0.08,1.25-0.03,1.58-0.91
	c0.33-0.89,1.32,0.05,1.5-0.28c0.17-0.32-0.32-0.59-0.36-0.61c0,0,0.74-0.76-0.46-0.74c-1.18,0.02-2.71-0.15-2.75-0.15
	c0.07-0.03,1.28-0.48,2.41-0.46c1.17,0.03,0.54-0.83-0.59-0.83c-1.12,0-1.7-0.38-1.7-0.38c0.63-0.24,1.27-0.47,1.91-0.71
	c-0.04-0.18-0.08-0.35-0.13-0.53c0,0,1.12-0.89-0.46-0.68c-1.58,0.2-1.76,0.23-1.76,0.23l-3.18,0.48h0
	c-0.03-0.01-0.34-0.1-0.39-0.22l-0.01-0.01l0-0.02v-0.02c0.01-0.06,0.11-0.13,0.35-0.19c0.81-0.2,3.69-0.78,4.12-0.63l0.12-0.01
	c0.16-0.15-0.38-1.08-1.7-1.21c-1.53-0.15-2.47,0.38-2.47,0.38s-0.99-0.36-0.08-0.66s2.37,0.1,2.37,0.1s1.63-0.48,0.28-0.68
	c-1.35-0.2-1.77,0.18-2.39,0.2c-0.25-0.31,2.12-0.38,2.27-0.63c-0.25-0.46-1.71,0-2.57,0c-0.36-0.15-0.39-0.4,0.03-0.56
	c0.88-0.03,1.7,0.02,2.57-0.02c-0.03-0.46,0-1.01-0.03-1.48c-1.11-0.2-2.41,0.15-3.03,0.12c0.17-0.51,2.56-0.64,2.83-0.77
	c0.55-0.68-2.29-0.01-2.37,0c-0.5-0.07-0.47-0.39-0.15-0.58c0.74-0.08,2.39,0.11,2.27-0.39c-0.1-0.47-1.15-0.22-1.58-0.12
	c-0.43,0.1-1.07,0.02-1.07,0.02c-0.28-0.37,2.49-0.22,2.47-0.5c-0.04-0.33-1.76-0.1-2.34-0.08c-0.45-0.31,2.12-0.51,2.24-0.55l0,0
	c0.1-0.84-1.78,0-2.14,0l-0.14-0.04l-0.02-0.02c-0.12-0.14-0.01-0.47-0.01-0.47l0.71-0.37l0,0v0v0l0,0l-0.01-0.01l-0.6-0.22h0l0,0
	l0,0l0,0l0.01-0.57c0,0,0.53-0.39,0.56-0.55v0v-0.01v-0.01v-0.01v0l0-0.01v0l0,0l0,0l0,0l0,0l-0.01,0l-0.01,0
	c-0.13-0.06-0.69,0.13-0.69,0.13c0-0.17,0-0.34,0-0.51c0,0,0.48-0.05,0.54-0.28v-0.04l0-0.02l-0.01-0.03l-0.01-0.01
	c-0.11-0.14-0.56-0.16-0.56-0.16C32.48,14.83,32.4,13.95,32.32,13.06z M31.86,21.73v0.35c0,0-0.57-0.03-0.68-0.12l0,0l0,0l0,0l0,0
	l0-0.01v0l0,0v0v-0.01v0v0l0-0.01l0,0l0-0.01l0,0l0-0.01l0.02-0.01c0.19-0.13,0.57-0.13,0.65-0.15L31.86,21.73L31.86,21.73
	L31.86,21.73L31.86,21.73z M32.67,22.2c0.02,0,1.14,0.01,1.23,0.15l0,0.01l0,0.01v0v0.01l0,0.01c-0.09,0.18-1.21,0.29-1.21,0.29
	L32.67,22.2L32.67,22.2z M32.61,22.89L32.61,22.89L32.61,22.89L33.2,23l0,0v0l0,0v0v0v0v0v0l0,0v0l0,0.01l0,0v0
	c-0.1,0.12-0.52,0.15-0.54,0.15h0v0l0,0L32.61,22.89z M29.2,23.8c0.36-0.02,1.09,0.07,2.45,0.44l0.02,0.44l0,0v0l0,0
	c-0.02-0.01-2.47-0.71-2.7-0.7h-0.02l-0.02,0l-0.02-0.01l-0.01,0l0,0l-0.02-0.02l0,0l0-0.01v0l0-0.01v0v0v-0.01l0-0.01l0.02-0.02
	C28.93,23.85,29.02,23.81,29.2,23.8z M30.47,24.84c0.39-0.01,1.33,0.21,1.38,0.2l-0.01,0.5l0,0l0,0l0,0l-0.01,0h0h-0.01h0
	c-0.08-0.02-1.46-0.46-1.51-0.63V24.9l0.01-0.02l0,0l0,0L30.47,24.84z M34.32,25.8c0.37-0.01,0.64,0.02,0.54,0.14
	c-0.27,0.31-2.11,0.56-2.11,0.56l-0.03-0.56C32.76,25.93,33.69,25.81,34.32,25.8z M29.05,27.55c0.31-0.02,1.04,0.15,2.66,0.84
	l0.01,0.4c0,0-2.75-0.83-2.85-0.97C28.83,27.76,28.74,27.56,29.05,27.55z M34.43,28.15l0.16,0.02l0,0l0,0.01l0,0.01l-0.03,0.04
	c-0.26,0.29-1.63,0.57-1.63,0.57v-0.37h0C33.02,28.44,34.03,28.17,34.43,28.15z M28.41,28.2c0.41-0.02,1.34,0.19,3.41,1.17
	l0.01,0.38h0c-0.12-0.04-3.74-1.3-3.74-1.3C28.09,28.44,28.04,28.22,28.41,28.2z M35.29,29.78c0.11,0,0.17,0,0.19,0.03l0,0.01
	l-0.03,0.04c-0.33,0.29-2.42,0.65-2.49,0.66h0h0l0,0l0-0.01v0l0,0l0.03-0.34v0h0l0,0h0C33.12,30.16,34.72,29.8,35.29,29.78z
	 M29.14,30.7c0.62-0.03,2.51,0.83,2.6,0.85h0l-0.02,0.4v0.01h0c-0.05-0.03-2.63-1.09-2.75-1.01C28.9,30.78,28.98,30.71,29.14,30.7z
	 M34.7,30.92c0.13-0.01,0.22,0,0.25,0.02l0.01,0.01v0v0v0l0,0l-0.01,0.01c-0.19,0.17-1.97,0.52-1.97,0.52l-0.01-0.36
	C33.02,31.12,34.17,30.95,34.7,30.92z M34.56,32.06c0.13,0,0.21,0,0.23,0.03l0,0v0.01l0,0l0,0v0.01l0,0l-0.01,0.01l-0.01,0.01
	c-0.19,0.17-1.7,0.48-1.7,0.48l-0.04-0.37C33.08,32.23,34.09,32.07,34.56,32.06z M28.19,32.15c0.36-0.02,1.27,0.13,3.49,0.93
	l0.07,0.43c0,0-3.71-1.19-3.81-1.23v0v-0.01l0.02-0.04C27.99,32.19,28.05,32.16,28.19,32.15z M33.08,33.09
	c0.04,0.01,0.67,0.03,0.78,0.13l0,0l0,0l0,0l0,0l0,0l0,0.01v0v0v0v0l0,0v0l0,0c-0.1,0.15-0.75,0.2-0.75,0.2S33.09,33.18,33.08,33.09
	z M34.58,33.94c0.15,0,0.25,0.01,0.27,0.05l-0.08,0.13c-0.53,0.43-1.69,0.52-1.69,0.52v-0.48h0C33.15,34.15,34.1,33.95,34.58,33.94z
	 M36.06,34.38c0.18-0.01,0.26,0.02,0.29,0.07l0.01,0.01l0,0.03l-0.11,0.16c-0.18,0.17-3.07,1.08-3.07,1.08l-0.01-0.66
	C34.85,34.56,35.68,34.4,36.06,34.38z M34.19,36.09c0.18-0.01,0.33,0,0.37,0.05l0.01,0.01l0,0.01v0.01v0.01l-0.01,0.03
	c-0.25,0.24-1.45,0.28-1.45,0.28v-0.3C33.34,36.18,33.84,36.1,34.19,36.09L34.19,36.09z M35.39,36.58l0.1,0.02v0.01l-0.06,0.06
	c-0.48,0.34-2.28,0.69-2.28,0.69l0.03-0.29C33.24,37.07,34.96,36.59,35.39,36.58z M36.4,36.96c0.21,0,0.37,0.03,0.47,0.1h0v0v0v0.01
	c-0.01,0.07-0.14,0.38-0.62,0.51c-0.59-0.05-3.1,0.69-3.15,0.7h0v-0.01l0.03-0.3C34,37.45,35.57,36.97,36.4,36.96z M29.97,38.41
	h0.02c1.09,0.12,1.49,0.52,1.61,0.68c-0.22,0.38-1.94-0.47-1.76-0.65L29.97,38.41z M36.2,38.48l0.11,0.03l0.03,0.03l0.02,0.07
	c-0.11,0.17-0.7,0.1-0.74,0.09C35.65,38.68,35.99,38.49,36.2,38.48z M33.87,39.66l0.19,0.03l0.01,0.01l0.01,0l0,0.01l0,0.01
	l-0.01,0.08c-0.17,0.32-0.92,0.2-0.92,0.2v-0.22h0C33.2,39.78,33.61,39.67,33.87,39.66z M29.47,40.49c0.23-0.01,0.43,0.14,0.64,0.26
	c0.47-0.09,1.43,0.07,1.43,0.07v0.42l0,0h0c-0.09,0.02-1.21-0.03-1.47-0.19c-0.21,0-0.79-0.3-0.83-0.46l0,0v-0.01v-0.01v0v0l0-0.01
	v0L29.47,40.49z M34.4,40.7c0.18-0.01,0.25,0.05,0.11,0.24c-0.38,0.54-1.38,0.32-1.38,0.32l-0.04-0.33
	C33.45,40.94,34.09,40.72,34.4,40.7z M30.7,41.8c0.4-0.02,0.84,0.14,0.84,0.14c0.01,0.02,0.22,0.42,0.03,0.56l-0.02,0.01
	c-0.22,0.12-1.29-0.09-1.36-0.52C30.31,41.86,30.5,41.81,30.7,41.8z M26.56,42.01c0.37-0.02,0.78,0.2,0.82,0.23h0l-0.01,0.41
	c0,0-0.73-0.2-0.96-0.61L26.56,42.01z M33.55,42.06c0.41,0,0.9,0.09,0.98,0.23l-0.02,0.09c-0.2,0.24-1.35,0.02-1.35,0.02v-0.3
	C33.26,42.08,33.4,42.06,33.55,42.06z"/>
<linearGradient id="SVGID_1_" gradientUnits="userSpaceOnUse" x1="32" y1="62" x2="32" y2="2">
	<stop  offset="0" style="stop-color:#1A1A1A"/>
	<stop  offset="0.102" style="stop-color:#393939;stop-opacity:0.949"/>
	<stop  offset="0.3475" style="stop-color:#7F7F7F;stop-opacity:0.8262"/>
	<stop  offset="0.5688" style="stop-color:#B6B6B6;stop-opacity:0.7156"/>
	<stop  offset="0.7582" style="stop-color:#DEDEDE;stop-opacity:0.6209"/>
	<stop  offset="0.9081" style="stop-color:#F6F6F6;stop-opacity:0.5459"/>
	<stop  offset="1" style="stop-color:#FFFFFF;stop-opacity:0.5"/>
</linearGradient>
<circle opacity="0.1" fill="url(#SVGID_1_)" cx="32" cy="32" r="30"/>
</svg>
