<?xml version="1.0" encoding="utf-8"?>
<!-- Generator: Adobe Illustrator 15.0.0, SVG Export Plug-In . SVG Version: 6.00 Build 0)  -->
<!DOCTYPE svg PUBLIC "-//W3C//DTD SVG 1.1//EN" "http://www.w3.org/Graphics/SVG/1.1/DTD/svg11.dtd" [
	<!ENTITY ns_flows "http://ns.adobe.com/Flows/1.0/">
	<!ENTITY ns_extend "http://ns.adobe.com/Extensibility/1.0/">
	<!ENTITY ns_ai "http://ns.adobe.com/AdobeIllustrator/10.0/">
	<!ENTITY ns_graphs "http://ns.adobe.com/Graphs/1.0/">
]>
<svg version="1.1" id="Layer_1" xmlns:x="&ns_extend;" xmlns:i="&ns_ai;" xmlns:graph="&ns_graphs;"
	 xmlns="http://www.w3.org/2000/svg" xmlns:xlink="http://www.w3.org/1999/xlink" xmlns:a="http://ns.adobe.com/AdobeSVGViewerExtensions/3.0/"
	 x="0px" y="0px" width="64px" height="64px" viewBox="0 0 64 64" enable-background="new 0 0 64 64" xml:space="preserve">
<path fill="#E81C27" d="M47.971,6.609C43.346,3.693,37.871,2,32,2v4.609H47.971z"/>
<path fill="#F5F5F5" d="M32,11.221h21.625c-1.688-1.756-3.584-3.307-5.654-4.611H32V11.221z"/>
<path fill="#E81C27" d="M32,15.83h25.262c-1.061-1.656-2.279-3.199-3.637-4.609H32V15.83z"/>
<path fill="#F5F5F5" d="M32,20.439h27.688c-0.674-1.613-1.49-3.152-2.426-4.609H32V20.439z"/>
<path fill="#E81C27" d="M32,25.049h29.182c-0.377-1.588-0.875-3.129-1.494-4.609H32V25.049z"/>
<path fill="#F5F5F5" d="M32,29.66h29.9c-0.121-1.574-0.363-3.113-0.719-4.611H32V29.66z"/>
<path fill="#E81C27" d="M61.9,29.66H32V32H2c0,0.764,0.037,1.52,0.094,2.27h59.813C61.961,33.52,62,32.764,62,32
	C62,31.211,61.959,30.434,61.9,29.66z"/>
<path fill="#F5F5F5" d="M2.801,38.879h58.396c0.352-1.496,0.59-3.035,0.709-4.609H2.094C2.211,35.844,2.449,37.383,2.801,38.879z"/>
<path fill="#E81C27" d="M4.283,43.488h55.434c0.613-1.479,1.107-3.021,1.48-4.609H2.801C3.174,40.467,3.668,42.01,4.283,43.488z"/>
<path fill="#F5F5F5" d="M6.691,48.1h50.617c0.928-1.457,1.738-2.998,2.408-4.611H4.283C4.953,45.102,5.762,46.643,6.691,48.1z"/>
<path fill="#E81C27" d="M10.305,52.709h43.389c1.35-1.412,2.561-2.955,3.615-4.609H6.691C7.746,49.754,8.957,51.297,10.305,52.709z"
	/>
<path fill="#F5F5F5" d="M15.916,57.318h32.168c2.053-1.307,3.936-2.857,5.609-4.609H10.305
	C11.979,54.461,13.861,56.012,15.916,57.318z"/>
<path fill="#E81C27" d="M32,62c5.92,0,11.434-1.721,16.084-4.682H15.916C20.564,60.279,26.08,62,32,62z"/>
<path fill="#014D87" d="M16.027,6.609c-2.068,1.305-3.967,2.855-5.654,4.611c-1.355,1.41-2.574,2.953-3.637,4.609
	c-0.934,1.457-1.75,2.996-2.426,4.609c-0.617,1.48-1.115,3.021-1.492,4.609C2.463,26.547,2.221,28.086,2.1,29.66
	C2.039,30.434,2,31.211,2,32h30v-2.34v-4.611v-4.609V15.83v-4.609V6.609V2C26.127,2,20.654,3.693,16.027,6.609z"/>
<polygon fill="#F5F5F5" points="25,3 25.473,4.482 27,4.482 25.764,5.463 26.236,6.977 25,6.076 23.764,7 24.236,5.459 23,4.482 
	24.527,4.482 "/>
<polygon fill="#F5F5F5" points="29,9 29.473,10.482 31,10.482 29.764,11.463 30.236,12.977 29,12.076 27.764,13 28.236,11.459 
	27,10.482 28.527,10.482 "/>
<polygon fill="#F5F5F5" points="21,9 21.473,10.482 23,10.482 21.764,11.463 22.236,12.977 21,12.076 19.764,13 20.236,11.459 
	19,10.482 20.527,10.482 "/>
<polygon fill="#F5F5F5" points="25,15 25.473,16.482 27,16.482 25.764,17.463 26.236,18.977 25,18.076 23.764,19 24.236,17.459 
	23,16.482 24.527,16.482 "/>
<polygon fill="#F5F5F5" points="17,15 17.473,16.482 19,16.482 17.764,17.463 18.236,18.977 17,18.076 15.764,19 16.236,17.459 
	15,16.482 16.527,16.482 "/>
<polygon fill="#F5F5F5" points="9,15 9.473,16.482 11,16.482 9.764,17.463 10.236,18.977 9,18.076 7.764,19 8.236,17.459 7,16.482 
	8.527,16.482 "/>
<polygon fill="#F5F5F5" points="29,21 29.473,22.482 31,22.482 29.764,23.463 30.236,24.977 29,24.076 27.764,25 28.236,23.459 
	27,22.482 28.527,22.482 "/>
<polygon fill="#F5F5F5" points="21,21 21.473,22.482 23,22.482 21.764,23.463 22.236,24.977 21,24.076 19.764,25 20.236,23.459 
	19,22.482 20.527,22.482 "/>
<polygon fill="#F5F5F5" points="13,21 13.473,22.482 15,22.482 13.764,23.463 14.236,24.977 13,24.076 11.764,25 12.236,23.459 
	11,22.482 12.527,22.482 "/>
<polygon fill="#F5F5F5" points="25,27 25.473,28.482 27,28.482 25.764,29.463 26.236,30.977 25,30.076 23.764,31 24.236,29.459 
	23,28.482 24.527,28.482 "/>
<polygon fill="#F5F5F5" points="17,27 17.473,28.482 19,28.482 17.764,29.463 18.236,30.977 17,30.076 15.764,31 16.236,29.459 
	15,28.482 16.527,28.482 "/>
<polygon fill="#F5F5F5" points="9,27 9.473,28.482 11,28.482 9.764,29.463 10.236,30.977 9,30.076 7.764,31 8.236,29.459 7,28.482 
	8.527,28.482 "/>
<path fill="#F5F5F5" d="M11.764,13L13,12.076l1.236,0.9l-0.473-1.514L15,10.482h-1.527L13,9l-0.473,1.482h-1.422
	c-0.016,0.016-0.031,0.029-0.047,0.045l1.178,0.932L11.764,13z"/>
<path fill="#F5F5F5" d="M3.764,25L5,24.076l1.236,0.9l-0.473-1.514L7,22.482H5.473L5,21l-0.473,1.482H3.551
	c-0.039,0.115-0.08,0.229-0.117,0.344l0.803,0.633L3.764,25z"/>
<linearGradient id="SVGID_1_" gradientUnits="userSpaceOnUse" x1="32.0005" y1="62" x2="32.0005" y2="2.0005">
	<stop  offset="0" style="stop-color:#1A1A1A"/>
	<stop  offset="0.102" style="stop-color:#393939;stop-opacity:0.949"/>
	<stop  offset="0.3475" style="stop-color:#7F7F7F;stop-opacity:0.8262"/>
	<stop  offset="0.5688" style="stop-color:#B6B6B6;stop-opacity:0.7156"/>
	<stop  offset="0.7582" style="stop-color:#DEDEDE;stop-opacity:0.6209"/>
	<stop  offset="0.9081" style="stop-color:#F6F6F6;stop-opacity:0.5459"/>
	<stop  offset="1" style="stop-color:#FFFFFF;stop-opacity:0.5"/>
	<a:midPointStop  offset="0" style="stop-color:#1A1A1A"/>
	<a:midPointStop  offset="0.4" style="stop-color:#1A1A1A"/>
	<a:midPointStop  offset="1" style="stop-color:#FFFFFF;stop-opacity:0.5"/>
</linearGradient>
<circle opacity="0.1" fill="url(#SVGID_1_)" cx="32" cy="32" r="30"/>
</svg>
