<?xml version="1.0" encoding="utf-8"?>
<!-- Generator: Adobe Illustrator 21.0.0, SVG Export Plug-In . SVG Version: 6.00 Build 0)  -->
<svg version="1.1" id="Layer_1" xmlns="http://www.w3.org/2000/svg" xmlns:xlink="http://www.w3.org/1999/xlink" x="0px" y="0px"
	 width="64px" height="64px" viewBox="0 0 64 64" enable-background="new 0 0 64 64" xml:space="preserve">
<circle fill="#F59E01" cx="32" cy="32" r="30"/>
<circle fill="#E81C27" cx="31.98" cy="31.96" r="27"/>
<path fill="#F59E01" d="M45.62,31.34l2.52-1.19l1.13-1.61l-0.13-0.38l-1.39,0.98l-1.16,0.46l-0.21,0.02l1.67-1l1.12-2.12l-0.21-0.39
	l-1.2,1.25l-1.25,0.88l-0.13-0.03l2.13-2.54l0.36-2.04l-0.21-0.14L47.2,25.8l-0.58,0.61l-0.07-0.07l1.18-1.99l0.4-2.1l-0.29-1.31
	l-0.21-0.11l-0.75,2.37l-0.87,1.65l-0.08-0.06l0.91-3.56l-0.34-2.7l-0.38-0.55l-0.27,2.46l-0.74,2.21l-0.06-0.14l0.34-1.62
	l-0.17-2.84l-0.8-1.46l-0.62,4.61l-0.27,0.08l-0.9,2.5l-0.88,1.29l-0.2-0.43l-0.23-0.02l-1.21,1.89l-1.17,1.97l0.83,1.3l0.47,0.82
	l-0.84,0.5l-0.97,0.07l-0.34,0.49l-0.38,0.28l-0.13,0.02l0.64-2.52l-1.89-2.22l-0.29,0.14L36,27.25l-0.33-1l0.45,0.04l-0.01-0.37
	l-0.07-0.94l0.05-0.3l0.45,0.3l0.18-0.36l0.39-0.84l0.64,0.21l1.17-0.45l0.36-0.44l1.21,0.27l1.34-0.61l-0.14-1.14h-0.23l-0.31,0.77
	l-0.86,0.1l-1.2-0.15l-0.49,0.1l0.79-0.54l0.75,0.2l0.34,0.04l-0.13-1.04l-0.92-0.39l-0.52,0.1l-0.69-0.66l-1.8,0.39l-0.83-0.03
	l-0.71-0.35l0.14-0.46l0.25-0.08l0.12-0.19l-0.24-0.29l0.38-0.53l0.37-0.18l0.34-0.03l0.1-0.12l0.25-0.17l0.03-0.4l-0.04-0.21
	l0.13-0.31l0.01-0.13l0.13-0.26l-0.19-0.32l-0.11-0.02l-0.12-0.3l-0.18-0.24l0.04-0.2l-0.24-0.26h-0.2l-0.47-0.27l-0.19-0.1
	l-0.06-0.21l-0.25-0.1l-0.14,0.04l-0.77-0.18l-0.24-0.05l-0.68-0.27l-0.24-0.05l0.21-0.51l-0.37-0.65l-0.2-0.1l0-0.19l0.37,0.04
	l0.03-0.59l-0.36,0.04l0.05-0.36l-0.75-0.01l0.05,0.36l-0.36-0.02l0.03,0.58l0.38-0.05l-0.04,0.22l-0.26,0.11l-0.35,0.62l0.18,0.52
	l-0.24,0.05l-0.68,0.27l-0.24,0.05l-0.77,0.18l-0.14-0.04l-0.25,0.1l-0.06,0.21l-0.19,0.1l-0.48,0.27h-0.2l-0.24,0.26l0.04,0.2
	l-0.18,0.24l-0.12,0.3l-0.11,0.02l-0.19,0.32l0.13,0.26l0.01,0.13l0.13,0.31l-0.04,0.21l0.03,0.4l0.25,0.17l0.1,0.12l0.34,0.03
	l0.37,0.18l0.38,0.53l-0.24,0.29l0.12,0.19l0.24,0.08l0.14,0.46l-0.7,0.35l-0.83,0.03l-1.79-0.39l-0.69,0.66l-0.52-0.1l-0.92,0.39
	l-0.13,1.04l0.34-0.04l0.75-0.2l0.8,0.54l-0.5-0.1l-1.2,0.15l-0.86-0.1l-0.31-0.77h-0.23l-0.14,1.14l1.34,0.61l1.21-0.27l0.36,0.44
	l1.17,0.45l0.64-0.21l0.39,0.84l0.18,0.36l0.44-0.3l0.05,0.3l-0.07,0.94l-0.01,0.37l0.45-0.04l-0.33,1l-0.05,0.08L27.9,27.2
	l-1.88,2.22l0.64,2.53v-0.01l-0.14-0.02l-0.38-0.28l-0.33-0.49l-0.97-0.07l-0.84-0.5l0.47-0.82l0.83-1.3l-1.17-1.97l-1.21-1.89
	l-0.23,0.02l-0.2,0.43l-0.88-1.29l-0.9-2.5l-0.27-0.08l-0.62-4.61l-0.79,1.46l-0.17,2.84l0.34,1.62l-0.06,0.14l-0.74-2.21
	l-0.27-2.46l-0.38,0.55l-0.34,2.7l0.91,3.56l-0.08,0.06l-0.87-1.65l-0.75-2.37l-0.21,0.11l-0.29,1.31l0.4,2.1l1.18,1.99l-0.07,0.07
	l-0.58-0.61l-1.42-2.32l-0.21,0.14l0.36,2.04l2.13,2.54l-0.13,0.03l-1.25-0.88l-1.2-1.25l-0.21,0.39l1.12,2.12l1.67,1l-0.21-0.02
	l-1.16-0.46l-1.39-0.98l-0.13,0.38l1.13,1.61l2.52,1.19l0.11,0.1l-0.88-0.18l-2.15-0.94l-0.31,0.14l1.15,1.65l2.22,0.62l0.09,0.07
	l-1.07-0.06l-1.42-0.37l-0.06-0.26l-0.16-0.1l-0.25,0.15l-0.18-0.07l-0.04-0.38l-0.15-0.09l-0.6,0.26L15,32.2l0.19,0.33l-0.47,0.12
	l-0.05,0.19l0.25,0.59l0.15,0.04l0.35-0.21l0.12,0.47l-0.34,0.16l0.08,0.35l0.74,0.67l0.52,2.84l1.21,2.24l0.05,0.16l-0.07,0.46
	l0.42,0.48l0.09,0.17v0.86l0.64,1.29L19,43.64l-0.25,0.13l-0.43,0.47l-0.04,0.58l0.43,0.51l-0.09,0.22l0.3,0.56l0.52,0.22l0.04,0.29
	l0.38,0.31l0.54-0.02l0.27,0.13l0.05,0.75l-0.05,0.46l0.4-0.07l0.37,0.07l0.46,0.18l0.04-0.3l0.09-0.48l0.49-0.13l0.22-0.17
	l-0.42-0.24l-0.54-0.37l-0.1-0.22l0.13-0.19l0.02-0.23l0.22-0.23l0.26-0.29l0.35-0.59l0.46-0.43l0.7-0.58l0.76-0.39l0.13,0.49
	l0.97-0.58l1.12-0.61l0.3,0.42l1.1-1.09l1.74-1.92l0.17,0.08l-0.05,0.14l-0.34,0.68l-0.65,0.8l-0.33,1.13l0.21,0.52l-0.51,0.67
	l-0.18,0.87l-0.2,0.32l-0.78,0.71l-0.99,0.65l-0.09,0.38l0.63,0.42l0.63,0.06l-0.04,0.25l-0.19,0.75l0.6,0.21l0.7-0.21l-0.04,0.1
	l-0.05,0.45l0.13,0.48l0.36-0.12l0.6-0.21l0.39-0.19l-0.09,0.29l0.04,0.66l0.37,0.55l0.38-0.13l0.44-0.51l0.21,0.71l0.84,1.16
	l0.84-1.16l0.21-0.71l0.44,0.51l0.38,0.13l0.37-0.55l0.04-0.66l-0.09-0.29l0.39,0.19l0.6,0.21l0.36,0.12l0.13-0.48l-0.05-0.45
	l-0.04-0.1l0.7,0.21l0.6-0.21l-0.19-0.75l-0.04-0.25l0.63-0.06l0.63-0.42l-0.09-0.38l-0.99-0.65l-0.78-0.71l-0.2-0.32l-0.18-0.87
	l-0.51-0.67l0.21-0.52l-0.33-1.13l-0.65-0.8l-0.34-0.68l-0.04-0.13l0.23-0.1l1.74,1.92l1.1,1.09l0.3-0.42l1.12,0.61l0.97,0.57
	l0.1-0.33l0.78,0.25l0.74,0.29l1.05,0.7l1.65,0.13l2.79-0.97l1.15-0.64l0.14-0.61l-0.19-0.35l-0.01-0.21l-0.13-0.43l-0.07-0.45
	L46.5,39.7l-0.07-0.12l-0.14-0.08l0.01-0.46l0.08-0.05l0.22,0.14l0.19-0.17l0.15-0.48l-0.06-0.15l-0.28-0.05l-0.06-0.06l0.14-0.25
	l-0.08-0.19l-0.63-0.18l-0.14,0.13l0.01,0.34l-0.12,0.04l-0.22-0.15l-0.17,0.08l-0.16,0.56l0.02,0.21h0.38l0.05,0.07l-0.18,0.3
	l-0.22,0.1l-0.27,0l-1.18,0.4l-0.72,0.86l-0.24,0.21l-0.3,0.44l-0.17,0.36l-0.1,1.08l0.5,0.8l-0.08,0.22l-0.37-0.23l-1.11-0.85
	l-0.08-0.19l0.24-0.06l0.03-0.22l-0.59-0.33l0.04-0.28l0.25-0.41l-0.93-0.22l-0.31-0.16l0.19-0.27l-0.03-0.24l-1-0.25l-1.46-1.63
	l0.01-0.02l1.01,0.85l0.63-0.43l-0.39-0.51l0.13,0.01l1.6,0.69l1.06-0.34l-0.34-0.36l0.11-0.08l1.46,0.03l1.1-0.77l-0.81-0.17
	L42.89,37l1.64,0.01l0.81-0.93l-0.89-0.22l-0.32-0.15l1.78-0.13l0.88-1.16l-0.02-0.18l-1.35,0.19l-0.76-0.06l2.43-0.54l0.86-1.47
	l-1.5,0.39l-1.07,0.06l0.09-0.07l2.22-0.62l1.15-1.65l-0.31-0.14l-2.15,0.94l-0.88,0.18l0.08-0.11L45.62,31.34L45.62,31.34z
	 M16.53,33.19l-0.33,0.19l-0.16-0.34l0.03-0.11l0.29-0.05l0.04-0.01L16.53,33.19L16.53,33.19L16.53,33.19L16.53,33.19z M26.45,39
	l-1.13,0.93l-1,0.25l-0.03,0.24l0.19,0.27l-0.31,0.16l-0.93,0.22l0.25,0.41l0.04,0.28l-0.59,0.33l0.03,0.22l0.64,0.16l-0.29,0.23
	l-1.12,0.38l-1.52,0.01l-0.74-0.04l-0.07-0.55l-0.4-1.01l-0.47-0.64l0.03-0.2l-0.07-0.42l-0.47-0.5l-0.02-0.42l-0.26-1.37
	l-1.01-1.81l-0.53-1.69l-0.02-0.85l0.06-0.17l0.45,0.4l2.43,0.54l-0.76,0.06l-1.35-0.19l-0.02,0.18l0.88,1.16l1.78,0.13l-0.32,0.15
	l-0.89,0.23l0.81,0.93L21.35,37l-0.18,0.19l-0.81,0.17l1.1,0.77l1.46-0.03l0.11,0.08l-0.34,0.36l1.06,0.34l1.6-0.69l0.13-0.01
	l-0.39,0.51l0.63,0.43l1.01-0.86l0.01,0.01l0.03,0.04L26.45,39L26.45,39L26.45,39z M35.03,15.99l-0.15-0.27l0.64,0.46l0.27,0.54
	l-0.04,0.61l0.01,0.45l0.09,0.12l-0.35,0.11L35,18.03l-0.08-0.24l0.39-0.63L35.03,15.99L35.03,15.99L35.03,15.99z M32.84,17.32
	l0.06-0.93l-0.16-1.17l0.72,0.45l0.52,0.98l-0.12,0.62l0.05,0.36l-0.3,0.16l-0.45,0.15l-0.47-0.17l-0.2-0.07L32.84,17.32
	L32.84,17.32L32.84,17.32z M30.77,15.67l0.72-0.45l-0.16,1.17l0.06,0.93l0.34,0.37l-0.21,0.07l-0.47,0.17l-0.45-0.15l-0.3-0.16
	l0.05-0.36l-0.12-0.62L30.77,15.67L30.77,15.67L30.77,15.67z M29.24,18.03l-0.51-0.03l-0.35-0.11l0.09-0.12l0.01-0.45l-0.04-0.61
	l0.27-0.54l0.64-0.46l-0.15,0.27l-0.29,1.17l0.4,0.64L29.24,18.03L29.24,18.03L29.24,18.03z M34.9,22.12l-0.64,0.35l0.39,0.3
	l-0.68,0.6l-0.65,0.31l-0.05,0.2l0.28,0.37l0.15,0.07l-0.75,0.74l-0.55,0.32l-0.05,0.52l0.3,0.35l0.01,0.28l-0.53,0.72l-0.01,0
	l-0.53-0.73l0.01-0.28l0.3-0.35l-0.05-0.52l-0.55-0.32l-0.75-0.74l0.15-0.07l0.28-0.37l-0.05-0.2l-0.65-0.31l-0.68-0.6l0.39-0.3
	l-0.64-0.35l-0.55-0.52l0.73-0.65l0.1-0.46l0.02,0.01l2.5,0.36l2.5-0.36l0.02-0.01l0.1,0.46l0.73,0.65L34.9,22.12L34.9,22.12
	L34.9,22.12z"/>
<rect x="27" y="31" fill="#014D87" width="10" height="6"/>
<polygon fill="#529320" points="32,43 36,39 28,39 32,43 "/>
<polygon fill="#F59E01" points="30.26,36.5 29.7,37 31.08,37 31.35,36.58 32.45,35.66 33.12,36.58 33.27,37 34.3,37 34.07,36.52 
	34.91,35.66 35.35,35.4 35.46,32.44 34.65,32.94 34.9,34.47 33.78,33.59 31.64,33.59 31.84,33 30.91,32 29.98,33 30.23,33.67 
	29.48,34.45 28.71,34.06 28.24,34.92 29.44,35.51 30.26,36.5 "/>
<linearGradient id="SVGID_1_" gradientUnits="userSpaceOnUse" x1="32" y1="62" x2="32" y2="2">
	<stop  offset="0" style="stop-color:#1A1A1A"/>
	<stop  offset="0.102" style="stop-color:#393939;stop-opacity:0.949"/>
	<stop  offset="0.3475" style="stop-color:#7F7F7F;stop-opacity:0.8262"/>
	<stop  offset="0.5688" style="stop-color:#B6B6B6;stop-opacity:0.7156"/>
	<stop  offset="0.7582" style="stop-color:#DEDEDE;stop-opacity:0.6209"/>
	<stop  offset="0.9081" style="stop-color:#F6F6F6;stop-opacity:0.5459"/>
	<stop  offset="1" style="stop-color:#FFFFFF;stop-opacity:0.5"/>
</linearGradient>
<circle opacity="0.1" fill="url(#SVGID_1_)" cx="32" cy="32" r="30"/>
</svg>
