<?xml version="1.0" encoding="utf-8"?>
<!-- Generator: Adobe Illustrator 21.0.0, SVG Export Plug-In . SVG Version: 6.00 Build 0)  -->
<svg version="1.1" id="Layer_1" xmlns="http://www.w3.org/2000/svg" xmlns:xlink="http://www.w3.org/1999/xlink" x="0px" y="0px"
	 width="64px" height="64px" viewBox="0 0 64 64" enable-background="new 0 0 64 64" xml:space="preserve">
<circle fill="#006DAE" cx="32" cy="32" r="30"/>
<path fill="#8C8A8C" d="M37.45,47.9l-1.13-8.35l-1.28-11.54c0,0-0.05-0.76-0.1-1.51c-0.05-0.76-0.28-0.99-0.53-1.19l-0.14,0.03
	c1.7-0.71,1.47-2.9,1.47-2.9s0.53-0.64,0.44-1.69c-0.09-1.05-1.92-1.17-1.92-1.17c-0.01,0.03-3.95-0.05-5.24,0.01
	c-1.29,0.06-1.47,1.09-1.47,1.09s0.1,1.29,0.46,3.13c0.36,1.83,1.24,1.62,1.24,1.62s0.26,0.02,0.68,0.03
	c-0.31,0-0.56,0.01-0.69,0.02c-0.65,0.24-0.81,1.87-0.81,1.87L27.1,39.55l-1.36,9.65c0,0,0.21,0.96,1.46,1.36
	c0.18,0.73,1.19,1.08,1.64,1.14c0.45,0.06,1.45-0.32,2.03-0.37c0.58-0.05,1.53,0.35,1.79,0.36c0.29,0.01,3.28-0.32,3.83-1.47
	c0.76-0.08,1.03-1.03,1.03-1.03L37.45,47.9z"/>
<path fill="#F5F5F5" d="M51.3,31.3c0.01,0.02,1.83-1.77-0.42-3.56c0.97-1.83-0.2-2.28-0.2-2.28s0.56-1.48-0.97-1.55
	c0.75-1.17-0.97-2.48-0.97-2.48s0.28-1.79-2.45-1.98c0.65-2.98-2.35-2.3-2.35-2.3s0.55-2.49-3.26-2.14
	c-0.84-2.09-2.64-1.17-2.64-1.17s-1.12-1.54-2.42-0.68c-0.98-1.22-2.26-0.25-2.62-0.11c-0.99-0.24-2.51-1.42-3.23-0.19
	c-0.57-0.23-1.7,0.51-1.7,0.51s-1.78-1.2-2.98,1.14c-2.36-0.93-2.9,1-2.9,1s-1.74-0.32-2.23,1.28c-2.55-0.17-2.59,1.61-2.59,1.61
	s-1.62,0.06-1.77,2.3c-2.32,0.93-1.46,3.14-1.46,3.14s-1.62,0.65-1.33,3.38c-1.8,1.28-0.03,3.07-0.03,3.07s-1.38,0.94-0.1,2.82
	c-1.71,1.32,0.51,2.46,0.51,2.46s-1,1.12,0.61,2.09c-0.87,2.22,0.81,2.25,1.06,2.33c-0.06,0.39,0.09,0.77,0.51,0.94
	c0,0-0.14,1.86,1.75,1.68c-0.3,0.77,0.51,1.13,0.52,1.14c0.02,0.02-0.04,1.56,1.8,1.19c0.45,1.51,1.32,1.17,1.36,1.17
	c0.04,0-0.56,1.81,2.19,1.88c1.17,1.26,2.75,1.26,2.75,1.26s1.06-4.88,0.81-5.61c-0.25-0.72-2.12-0.23-2.12-0.23
	s-0.29-1.55-2.3-1.51c0.43-0.87-0.67-0.91-0.67-0.91s1.12-1.3-1.25-1.56c0.33-1.55-0.35-1.38-1.12-1.72
	c-0.01-0.56,0.36-1.52-0.84-1.91c1.06-1.39-0.62-2.14-0.62-2.14s0.88-2.1-0.33-2.42c1.26-1.3,0.33-2.46,0.33-2.46
	s0.87-1.03,0.54-1.87c0.94-0.48,0.84-1.97,0.84-1.97s1.04-0.26,1.3-1.8c2-0.35,1.83-1.65,1.83-1.65s1.67-0.03,2-1.51
	c1.45,0.41,2.35-1.19,2.35-1.19s1.06,0.52,2.25-0.68c0.67,1.03,2.68-0.3,2.68-0.3s0.85,1,2.39,0.04c0.77,1.23,2.06,0.59,2.06,0.59
	s0.39,0.83,1.29,0.36c0.46,1.75,2.78,1.13,2.8,1.13c0.01,0,0.14,1.16,1.32,0.97c0.22,1.55,2,1.19,2,1.19s0.23,1.87,1.39,2.07
	c-0.51,1.68,0.9,2.04,0.9,2.04s-0.42,1.23,0.87,2.32c-1.22,0.7,0.14,3.12,0.16,3.14c0.02,0.03-1.07,1.16-0.26,2.71
	c-1.33,0.45-1.07,2.4-1.07,2.4s-1.28,1.04-1.33,2.3c-2.1,0.41-1.94,2.26-1.94,2.26s-1.64,0.13-2.07,1.81
	c-1.45-0.3-2.96,1.29-2.96,1.29l0.57,4.3c0.06,0.03,3.01,0.62,3.62-1.38c2.52,0.67,2.71-1.83,2.71-1.83s1.98-0.11,2.06-1.46
	c1.9-0.93,1.39-1.81,1.39-1.81s1.91-0.25,1.94-2.27c1.51-0.49,1.16-2.22,1.16-2.22s1.35-0.68,1.01-3.35
	C52.5,32.75,51.28,31.28,51.3,31.3z"/>
<polygon fill="#F5F5F5" points="31.85,36.16 38.54,41.02 35.98,33.15 42.67,28.29 34.4,28.29 31.84,20.42 29.29,28.29 21.02,28.29 
	27.71,33.15 25.15,41.02 "/>
<path fill="#FFE12C" d="M37.27,46.84c0,0,8.59-2.43,11.18-12.97c-1.51,10.82-10.9,14.25-10.9,14.25L37.27,46.84L37.27,46.84z"/>
<path fill="#FFE12C" d="M26.01,46.61c0,0-8.51-2.47-11.08-13.2c1.49,11.02,10.81,14.51,10.81,14.51L26.01,46.61L26.01,46.61z"/>
<polygon fill="#E81C27" points="48.79,29.76 48.13,29.84 47.9,30.72 48.33,31.52 49,31.44 49.23,30.56 "/>
<polygon fill="#E81C27" points="48.86,29.69 49.08,28.81 48.65,28.01 47.98,28.1 47.75,28.98 48.19,29.77 "/>
<polygon fill="#E81C27" points="48.58,27.84 48.73,26.94 48.22,26.19 47.57,26.33 47.42,27.23 47.92,27.98 "/>
<polygon fill="#E81C27" points="48.17,25.9 48.08,24.99 47.4,24.39 46.8,24.7 46.89,25.6 47.57,26.2 "/>
<polygon fill="#E81C27" points="47.48,24.33 47.39,23.43 46.71,22.83 46.11,23.13 46.2,24.04 46.88,24.64 "/>
<polygon fill="#E81C27" points="46.41,21.86 45.68,21.31 45.11,21.67 45.27,22.56 46,23.11 46.57,22.75 "/>
<polygon fill="#E81C27" points="45.32,20.34 44.54,19.87 44,20.28 44.25,21.15 45.03,21.62 45.56,21.21 "/>
<polygon fill="#E81C27" points="44.01,18.93 43.17,18.58 42.71,19.05 43.08,19.89 43.91,20.24 44.38,19.76 "/>
<polygon fill="#E81C27" points="42.54,17.63 41.68,17.35 41.25,17.88 41.7,18.67 42.57,18.94 42.99,18.42 "/>
<polygon fill="#E81C27" points="40.99,16.59 40.09,16.46 39.76,17.05 40.33,17.76 41.23,17.88 41.56,17.29 "/>
<polygon fill="#E81C27" points="39.25,15.67 38.34,15.63 38.06,16.24 38.7,16.89 39.61,16.93 39.88,16.32 "/>
<polygon fill="#E81C27" points="37.54,14.98 36.63,15 36.4,15.63 37.07,16.24 37.98,16.22 38.22,15.59 "/>
<polygon fill="#E81C27" points="35.81,14.44 34.9,14.52 34.72,15.17 35.44,15.72 36.34,15.63 36.53,14.99 "/>
<polygon fill="#E81C27" points="33.02,14.34 32.93,15 33.73,15.44 34.61,15.21 34.69,14.55 33.9,14.11 "/>
<polygon fill="#E81C27" points="31.15,14.3 31.13,14.97 31.96,15.34 32.82,15.04 32.84,14.37 32.01,14 "/>
<polygon fill="#E81C27" points="29.43,14.37 29.4,15.04 30.23,15.4 31.09,15.1 31.12,14.43 30.29,14.06 "/>
<polygon fill="#E81C27" points="28.26,14.3 27.51,14.82 27.66,15.47 28.56,15.61 29.31,15.1 29.16,14.44 "/>
<polygon fill="#E81C27" points="26.42,14.77 25.71,15.34 25.92,15.98 26.83,16.04 27.53,15.47 27.33,14.83 "/>
<polygon fill="#E81C27" points="24.74,15.48 24.11,16.14 24.39,16.75 25.3,16.71 25.93,16.05 25.65,15.44 "/>
<polygon fill="#E81C27" points="23.06,16.34 22.49,17.05 22.82,17.63 23.72,17.51 24.3,16.81 23.97,16.22 "/>
<polygon fill="#E81C27" points="21.48,17.42 20.99,18.18 21.38,18.73 22.26,18.51 22.75,17.74 22.36,17.2 "/>
<polygon fill="#E81C27" points="20.01,18.53 19.59,19.33 20.02,19.84 20.88,19.55 21.31,18.75 20.87,18.24 "/>
<polygon fill="#E81C27" points="18.72,19.88 18.35,20.71 18.82,21.19 19.66,20.84 20.03,20.01 19.55,19.53 "/>
<polygon fill="#E81C27" points="17.6,21.39 17.31,22.25 17.81,22.68 18.62,22.26 18.92,21.4 18.41,20.96 "/>
<polygon fill="#E81C27" points="16.58,22.93 16.38,23.81 16.93,24.19 17.69,23.69 17.89,22.8 17.34,22.42 "/>
<polygon fill="#E81C27" points="15.73,24.67 15.69,25.58 16.3,25.86 16.95,25.23 17,24.32 16.39,24.04 "/>
<polygon fill="#E81C27" points="15.66,25.81 15.06,26.5 15.1,27.41 15.73,27.63 16.33,26.94 16.29,26.04 "/>
<polygon fill="#E81C27" points="15.8,27.74 15.15,27.59 14.63,28.34 14.77,29.24 15.13,29.32 14.89,29.3 14.48,29.95 14.73,30.65 
	15.4,30.7 15.81,30.05 15.56,29.35 15.46,29.34 15.94,28.64 "/>
<polygon fill="#FFE12C" points="47.83,27.51 48.5,27.3 47.99,26.57 "/>
<polygon fill="#FFE12C" points="48.16,29.32 48.83,29.16 48.38,28.4 "/>
<polygon fill="#FFE12C" points="47.39,25.86 47.98,25.49 47.3,24.91 "/>
<polygon fill="#FFE12C" points="46.59,24.21 47.17,23.84 46.49,23.27 46.59,24.21 "/>
<polygon fill="#FFE12C" points="44.65,21.2 45.17,20.74 44.41,20.28 "/>
<polygon fill="#FFE12C" points="43.39,19.88 43.89,19.4 43.11,18.97 "/>
<polygon fill="#FFE12C" points="40.74,17.64 41.07,17.03 40.19,16.86 "/>
<polygon fill="#FFE12C" points="42.12,18.68 42.55,18.13 41.72,17.81 "/>
<polygon fill="#FFE12C" points="39.16,16.77 39.43,16.13 38.54,16.05 "/>
<polygon fill="#FFE12C" points="37.55,16.07 37.72,15.4 36.83,15.44 "/>
<polygon fill="#FFE12C" points="35.81,15.53 35.93,14.85 35.04,14.97 "/>
<polygon fill="#FFE12C" points="28.77,15.33 28.6,14.66 27.84,15.13 "/>
<polygon fill="#FFE12C" points="30.51,15.1 30.43,14.41 29.61,14.78 "/>
<polygon fill="#FFE12C" points="23.8,17.2 23.41,16.62 22.85,17.32 "/>
<polygon fill="#FFE12C" points="25.37,16.39 25.06,15.78 24.42,16.4 "/>
<polygon fill="#FFE12C" points="20.86,19.24 20.37,18.76 19.96,19.55 "/>
<polygon fill="#FFE12C" points="22.26,18.1 21.8,17.58 21.34,18.34 "/>
<polygon fill="#FFE12C" points="19.62,20.46 19.08,20.03 18.75,20.86 "/>
<polygon fill="#FFE12C" points="18.51,21.91 17.93,21.53 17.68,22.38 "/>
<polygon fill="#FFE12C" points="17.58,23.39 16.95,23.1 16.83,23.98 "/>
<polygon fill="#FFE12C" points="16.76,24.96 16.1,24.76 16.09,25.65 16.76,24.96 "/>
<polygon fill="#FFE12C" points="16.1,26.59 15.42,26.48 15.56,27.37 "/>
<polygon fill="#FFE12C" points="15.66,28.39 14.97,28.34 15.17,29.21 "/>
<polygon fill="#FFE12C" points="15.49,29.89 14.8,29.94 15.08,30.6 "/>
<polygon fill="#FFE12C" points="45.87,22.74 46.39,22.29 45.64,21.82 "/>
<polygon fill="#FFE12C" points="48.36,31.16 49.03,31 48.58,30.23 "/>
<polygon fill="#FFE12C" points="36.55,18.19 37.93,16.77 36.84,16.13 "/>
<polygon fill="#FFE12C" points="27.03,18.53 27.54,16.62 26.28,16.59 "/>
<polygon fill="#FFE12C" points="25.14,19.1 25.66,17.18 24.39,17.16 "/>
<polygon fill="#FFE12C" points="23.05,19.74 23.56,17.83 22.3,17.8 "/>
<polygon fill="#FFE12C" points="21.58,21.21 22.09,19.3 20.83,19.28 "/>
<polygon fill="#FFE12C" points="20.03,22.63 20.54,20.72 19.28,20.7 "/>
<polygon fill="#FFE12C" points="23.59,14.36 22.58,16.06 23.79,16.43 "/>
<polygon fill="#FFE12C" points="26.69,13.4 25.68,15.1 26.89,15.47 "/>
<polygon fill="#FFE12C" points="15.14,21.77 16.14,23.47 17.05,22.59 "/>
<polygon fill="#FFE12C" points="13.59,25.73 14.31,27.57 15.35,26.84 "/>
<polygon fill="#FFE12C" points="17.16,30.16 15.84,28.68 15.13,29.73 "/>
<polygon fill="#FFE12C" points="16.42,28.24 16.97,26.34 15.71,26.29 "/>
<polygon fill="#FFE12C" points="38.74,19.15 40.13,17.73 39.03,17.09 "/>
<polygon fill="#FFE12C" points="41.99,20.77 42.38,18.82 41.12,18.88 "/>
<polygon fill="#FFE12C" points="50.86,29.97 49.54,28.5 48.83,29.55 "/>
<polygon fill="#FFE12C" points="46.53,30.66 47.27,28.83 48.29,29.57 "/>
<polygon fill="#FFE12C" points="45.83,18.11 43.85,18.12 44.16,19.35 "/>
<polygon fill="#FFE12C" points="43.3,16 41.32,16 41.63,17.23 "/>
<polygon fill="#FFE12C" points="39.52,13.98 38.49,15.67 39.7,16.04 "/>
<polygon fill="#FFE12C" points="37.06,13.38 37.06,15.37 38.29,15.06 "/>
<polygon fill="#FFE12C" points="30.09,17.63 30.74,15.77 29.48,15.65 "/>
<polygon fill="#FFE12C" points="44.55,23.43 44.94,21.48 43.67,21.54 44.55,23.43 "/>
<path fill="#529320" d="M18.63,20.53c0.98,0.98-1.01,3.63,0.06,5.16C18.63,24.97,19.62,20.53,18.63,20.53z"/>
<path fill="#529320" d="M18.32,20.78c-1.54,1.44-1.08,4.3-1.2,6.23C17.16,26.41,18.82,21.27,18.32,20.78z"/>
<path fill="#529320" d="M45.98,21.31c-0.93,0-0.02,4.84-0.27,5.62C47.17,25.28,44.94,22.36,45.98,21.31z"/>
<path fill="#529320" d="M47.24,24.08c-1.63,2,1.28,3.64,1.16,5.59C48.53,27.6,46.86,26.14,47.24,24.08z"/>
<path fill="#529320" d="M32.9,14.73c-0.54-0.43-1.26-0.49-1.86,0.31c1.85-0.43,2.38,1.62,1.27,2.8c1.53-0.45,1.56-1.77,1.01-2.63
	c1.13,0.31,1.53,1.32,1.37,2.61C36.58,16.8,34.38,13.84,32.9,14.73z"/>
<path fill="#529320" d="M48.87,31.95l0-0.02L48.87,31.95l0-0.02c-0.27,1.69-1.9,5.94-0.83,7.41c-0.35-0.96,0.62-2.89,0.95-3.88
	c-0.03,0.6,0.04,1.18,0.43,1.71C48.75,35.32,50.5,33.92,48.87,31.95z M48.87,31.95l0,0.02L48.87,31.95z M48.87,31.95
	c0.32,0.62,0.35,1.26,0.29,1.9C49.09,33.25,48.92,32.68,48.87,31.95z"/>
<path fill="#529320" d="M14.29,32.31c0,0.07-0.01,0.12-0.01,0.16L14.29,32.31z"/>
<path fill="#529320" d="M15.31,39.51c1.2-1.65-0.71-5.39-1.01-7.27C14.13,34.82,15.55,37.02,15.31,39.51z"/>
<path fill="#529320" d="M14.28,32.46"/>
<path fill="#529320" d="M14.44,38.8c1.25-1.72-0.97-4.32-0.14-6.54l0,0.05l0-0.05l0,0h0l0-0.02l0,0.02
	C12.13,34.87,15.29,36.43,14.44,38.8z"/>
<linearGradient id="SVGID_1_" gradientUnits="userSpaceOnUse" x1="32" y1="62" x2="32" y2="2">
	<stop  offset="0" style="stop-color:#1A1A1A"/>
	<stop  offset="0.102" style="stop-color:#393939;stop-opacity:0.949"/>
	<stop  offset="0.3475" style="stop-color:#7F7F7F;stop-opacity:0.8262"/>
	<stop  offset="0.5688" style="stop-color:#B6B6B6;stop-opacity:0.7156"/>
	<stop  offset="0.7582" style="stop-color:#DEDEDE;stop-opacity:0.6209"/>
	<stop  offset="0.9081" style="stop-color:#F6F6F6;stop-opacity:0.5459"/>
	<stop  offset="1" style="stop-color:#FFFFFF;stop-opacity:0.5"/>
</linearGradient>
<circle opacity="0.1" fill="url(#SVGID_1_)" cx="32" cy="32" r="30"/>
</svg>
