<?xml version="1.0" encoding="utf-8"?>
<!-- Generator: Adobe Illustrator 21.0.0, SVG Export Plug-In . SVG Version: 6.00 Build 0)  -->
<svg version="1.1" id="Layer_1" xmlns="http://www.w3.org/2000/svg" xmlns:xlink="http://www.w3.org/1999/xlink" x="0px" y="0px"
	 width="64px" height="64px" viewBox="0 0 64 64" enable-background="new 0 0 64 64" xml:space="preserve">
<path fill="#E81C27" d="M32,2c-7.64,0-14.61,2.86-19.91,7.57l0,0v44.87C17.39,59.14,24.36,62,32,62c16.57,0,30-13.43,30-30
	S48.57,2,32,2z"/>
<path fill="#FFE12C" d="M12.09,9.57c-1.33,1.18-2.55,2.49-3.65,3.88v37.1c1.1,1.4,2.32,2.7,3.65,3.88L42,32L12.09,9.57z"/>
<path fill="#302C3B" d="M8.44,13.44C4.41,18.55,2,24.99,2,32s2.41,13.45,6.44,18.56L27,32L8.44,13.44z"/>
<polygon fill="#F5F5F5" points="10.34,33.9 12.72,39 13.67,33.66 19,33.28 14.25,30.34 15.17,25 11.28,28.51 6.52,25.6 8.86,30.71 
	5,34.26 "/>
<linearGradient id="SVGID_1_" gradientUnits="userSpaceOnUse" x1="32.0005" y1="62" x2="32.0005" y2="2">
	<stop  offset="0" style="stop-color:#1A1A1A"/>
	<stop  offset="0.102" style="stop-color:#393939;stop-opacity:0.949"/>
	<stop  offset="0.3475" style="stop-color:#7F7F7F;stop-opacity:0.8262"/>
	<stop  offset="0.5688" style="stop-color:#B6B6B6;stop-opacity:0.7156"/>
	<stop  offset="0.7582" style="stop-color:#DEDEDE;stop-opacity:0.6209"/>
	<stop  offset="0.9081" style="stop-color:#F6F6F6;stop-opacity:0.5459"/>
	<stop  offset="1" style="stop-color:#FFFFFF;stop-opacity:0.5"/>
</linearGradient>
<circle opacity="0.1" fill="url(#SVGID_1_)" cx="32" cy="32" r="30"/>
</svg>
