<?xml version="1.0" encoding="utf-8"?>
<!-- Generator: Adobe Illustrator 15.0.0, SVG Export Plug-In . SVG Version: 6.00 Build 0)  -->
<!DOCTYPE svg PUBLIC "-//W3C//DTD SVG 1.1//EN" "http://www.w3.org/Graphics/SVG/1.1/DTD/svg11.dtd" [
	<!ENTITY ns_flows "http://ns.adobe.com/Flows/1.0/">
	<!ENTITY ns_extend "http://ns.adobe.com/Extensibility/1.0/">
	<!ENTITY ns_ai "http://ns.adobe.com/AdobeIllustrator/10.0/">
	<!ENTITY ns_graphs "http://ns.adobe.com/Graphs/1.0/">
]>
<svg version="1.1" id="Layer_1" xmlns:x="&ns_extend;" xmlns:i="&ns_ai;" xmlns:graph="&ns_graphs;"
	 xmlns="http://www.w3.org/2000/svg" xmlns:xlink="http://www.w3.org/1999/xlink" xmlns:a="http://ns.adobe.com/AdobeSVGViewerExtensions/3.0/"
	 x="0px" y="0px" width="64px" height="64px" viewBox="0 0 64 64" enable-background="new 0 0 64 64" xml:space="preserve">
<path fill="#E81C27" d="M58.948,45.188c1.536-3.133,2.543-6.571,2.902-10.202c-2.445-1.289-2.091-5.31,0-5.971
	c-0.359-3.631-1.366-7.069-2.902-10.202c-2.251,0.113-3.793-2.387-2.657-4.408C51.622,7.97,44.464,3.464,36.227,2.302
	c-1.488,2.728-6.926,2.582-8.454,0C19.535,3.464,12.377,7.97,7.708,14.405c0.843,1.562-0.365,4.562-2.656,4.406
	c-1.536,3.134-2.543,6.572-2.902,10.203c1.382,0.871,1.798,4.932,0,5.971c0.359,3.631,1.366,7.069,2.902,10.203
	c2.166-0.18,3.833,2.362,2.656,4.406c4.669,6.436,11.827,10.941,20.064,12.104c1.55-2.794,6.862-2.794,8.455,0
	c8.236-1.163,15.396-5.669,20.064-12.104C54.926,47.529,56.113,45.175,58.948,45.188z"/>
<circle id="path5974" fill="#FFE12C" cx="32.001" cy="32" r="8.571"/>
<path fill="#FFE12C" d="M21.286,32c0-0.359,0.019-0.716,0.053-1.066l-19.19-1.919C2.051,29.996,2,30.992,2,32
	c0,1.007,0.051,2.003,0.148,2.985l19.19-1.919C21.305,32.716,21.286,32.359,21.286,32z"/>
<path fill="#FFE12C" d="M23.497,25.482L7.699,14.407c-1.002,1.381-1.889,2.852-2.646,4.396l17.199,8.745
	C22.59,26.811,23.009,26.118,23.497,25.482z"/>
<path fill="#FFE12C" d="M41.749,27.549l17.2-8.745c-0.758-1.545-1.645-3.016-2.646-4.397L40.504,25.482
	C40.992,26.118,41.411,26.811,41.749,27.549z"/>
<path fill="#FFE12C" d="M61.854,29.015l-19.191,1.919c0.035,0.351,0.053,0.707,0.053,1.066s-0.018,0.716-0.053,1.066l19.191,1.919
	C61.949,34.003,62,33.007,62,32C62,30.992,61.949,29.996,61.854,29.015z"/>
<path fill="#FFE12C" d="M40.504,38.518l15.799,11.075c1.002-1.381,1.889-2.852,2.646-4.396l-17.2-8.745
	C41.411,37.189,40.992,37.882,40.504,38.518z"/>
<path fill="#FFE12C" d="M22.252,36.451L5.053,45.196c0.758,1.545,1.645,3.016,2.646,4.396l15.798-11.075
	C23.009,37.882,22.59,37.189,22.252,36.451z"/>
<path fill="#FFE12C" d="M32.001,42.714c-0.364,0-0.724-0.018-1.078-0.054l-3.16,19.036C29.147,61.893,30.562,62,32.001,62
	s2.853-0.107,4.238-0.304L33.078,42.66C32.724,42.696,32.364,42.714,32.001,42.714z"/>
<path fill="#FFE12C" d="M32.001,21.286c0.363,0,0.723,0.018,1.077,0.054l3.161-19.036C34.854,2.107,33.44,2,32.001,2
	s-2.854,0.107-4.238,0.304l3.16,19.036C31.277,21.304,31.637,21.286,32.001,21.286z"/>
<linearGradient id="SVGID_1_" gradientUnits="userSpaceOnUse" x1="32.0005" y1="62" x2="32.0005" y2="2.0005">
	<stop  offset="0" style="stop-color:#1A1A1A"/>
	<stop  offset="0.102" style="stop-color:#393939;stop-opacity:0.949"/>
	<stop  offset="0.3475" style="stop-color:#7F7F7F;stop-opacity:0.8262"/>
	<stop  offset="0.5688" style="stop-color:#B6B6B6;stop-opacity:0.7156"/>
	<stop  offset="0.7582" style="stop-color:#DEDEDE;stop-opacity:0.6209"/>
	<stop  offset="0.9081" style="stop-color:#F6F6F6;stop-opacity:0.5459"/>
	<stop  offset="1" style="stop-color:#FFFFFF;stop-opacity:0.5"/>
	<a:midPointStop  offset="0" style="stop-color:#1A1A1A"/>
	<a:midPointStop  offset="0.4" style="stop-color:#1A1A1A"/>
	<a:midPointStop  offset="1" style="stop-color:#FFFFFF;stop-opacity:0.5"/>
</linearGradient>
<circle opacity="0.1" fill="url(#SVGID_1_)" cx="32" cy="32" r="30"/>
</svg>
