<?xml version="1.0" encoding="utf-8"?>
<!-- Generator: Adobe Illustrator 21.0.0, SVG Export Plug-In . SVG Version: 6.00 Build 0)  -->
<svg version="1.1" id="Layer_1" xmlns="http://www.w3.org/2000/svg" xmlns:xlink="http://www.w3.org/1999/xlink" x="0px" y="0px"
	 width="64px" height="64px" viewBox="0 0 64 64" enable-background="new 0 0 64 64" xml:space="preserve">
<path fill="#FFE12C" d="M29.24,8H50c-5.01-3.77-11.25-6-18-6c-6.75,0-12.99,2.23-18,6h11.59v48H14c5.01,3.77,11.25,6,18,6
	c6.75,0,12.99-2.23,18-6H29.24V8z"/>
<path fill="#E81C27" d="M62,32c0-9.81-4.71-18.53-12-24H29.24v48H50C57.29,50.53,62,41.81,62,32z"/>
<path fill="#F59E01" d="M25.59,8H14c-0.14,0.11-0.27,0.22-0.41,0.32v47.35C13.73,55.79,13.86,55.9,14,56h11.59V8z"/>
<path fill="#529320" d="M2,32c0,9.63,4.54,18.19,11.59,23.68V8.32C6.54,13.81,2,22.38,2,32z"/>
<path fill="#FFE12C" d="M34.41,49.59c-1.06,0.79-3.22,0.73-4.14,1.66c-1.1,1.09,0.09,2.53,0.08,2.65l-0.06,0.76
	c0,0,0.74,0.01,1.05,0.06c0.47,0.07,0.65,0.46,1.53,0.4c2.2-0.14,2.11-2.12,2.23-3.82c0.11-0.64,0.37-1.48,0.51-2.13
	c0.13-0.55,0.15-1.43,0.15-1.43C35.77,47.75,35.12,49.05,34.41,49.59z"/>
<path fill="#FFE12C" d="M35.11,12.7c-0.12-1.69-0.04-3.67-2.23-3.82c-0.87-0.06-1.06,0.33-1.53,0.4c-0.31,0.05-1.05,0.06-1.05,0.06
	l0.06,0.76c0.01,0.13-1.17,1.56-0.08,2.65c0.92,0.92,3.08,0.87,4.14,1.66c0.71,0.54,1.35,1.84,1.36,1.85c0,0-0.03-0.88-0.15-1.43
	C35.47,14.18,35.22,13.34,35.11,12.7z"/>
<path fill="#FFE12C" d="M61.81,28.66c-0.77-0.04-1.5-0.07-2.18-0.09c0.28,0.24-0.76-3.48-0.21-4c0.68-0.65,0.21-4.21-0.38-4.97
	c0.01-0.12,0.05-0.27,0.08-0.41c-0.33-0.7-0.68-1.38-1.06-2.04c-1.11-0.37-2.05-1.13-2.43,0.53c-0.4-0.52-1.52-1.6-2.2-1.27
	c-0.08,0.41-0.21,0.81-0.37,1.2c-0.47,0.2-2.34-0.82-3.27-0.64c0.01,1.98-1.17,1.21-2.58,1.88c-2.57,1.23-1.31-1.09-3.03-1.09
	c-3.22,0,1.32,4.86,2.06,5.38c0.12-0.19-0.27-0.64-0.02-0.82c0,0,1.09,0.87,1.09,0.64c0.05-0.29,0.14-0.57,0.26-0.83
	c0.32,0.51,2.64,3.16,2.09,3.69c-0.15,0.14-2.28-0.05-2.33-0.13c0.11-0.21,0.22-0.74,0.18-0.79c-0.69-0.74-2.02-0.79-2.67-0.58
	c-0.65,0.21-1.7,1.04-1.78,2.05c0.41-0.09,1.84-0.45,2-0.3c0.09,0.09-0.38,0.76-0.43,0.91c0.58,0.01,1.85,0.31,2.08,0.29
	c0.13-0.25,0.25-0.49,0.38-0.74c0.27,0.42,0.55,0.84,0.84,1.26c0.3,0.22,0.94-1.76,1.47-0.4c0.18,0.46-4.89,5.26-5.18,7.06
	c-0.16,1.01,0.01,2.02,0.41,2.94c-0.91-1-3.34-3.71-3.86-3.43c-1.49,0.79-0.16,5.37,0.52,6.35c0.78,1.14,5.52,3.8,5.52,0.21
	c0-0.22-0.16-0.54-0.41-0.93c1.12,0.74,2.47,1.27,3.06,1.96c0.7,0.82,1.29,3.04,1.17,4.17c-0.33,2.93-4.8,0.23-4.8,3.42
	c0-0.4,4.39,0.15,4.71-0.09c0.72-0.54,2.86,1.18,2.47-1.19c-0.4-2.41,2.51-1.27,2.51-3.21c0-1.04-3.13,0.23-1.37-2.47
	c0.68-1.04,0.18-2.37,0.99-1.33c1.26,1.61,3.42,0.47,5.75-0.7C61.6,37.53,62,34.81,62,32C62,30.87,61.93,29.76,61.81,28.66z"/>
<path fill="#FFE12C" d="M39.98,41.82c-0.19,0.67-1.18-3.14-0.97-3.34c0.37,0.07,0.75,0.1,1.12,0.08c0.28-0.22-0.68-0.75-1.65-0.97
	c0.83-0.04,1.49-0.26,1.49-0.54c0-0.23-0.45-0.43-1.08-0.51c0.58-0.09,0.98-0.27,0.98-0.49c0-0.25-0.51-0.45-1.21-0.52
	c0.74-0.06,1.31-0.27,1.31-0.52c0-0.2-0.34-0.36-0.83-0.46c0.6-0.1,1.01-0.31,1.01-0.57c0-0.21-0.32-0.39-0.77-0.51
	c0.47-0.06,0.89-0.17,1.2-0.31c1.72-1.83-0.51-2.96-0.51-1.1c0,0.77-2.24,0.46-2.56,0.3c-0.45-0.23-0.18-0.43-0.03-0.69
	c0.43,0.18,2.17,0.46,2.29-2.1c0.05-1.13,0.11-16.33,1.46-16.26c-5.92-0.31-3.29,14.59-3.75,17.88c-0.43-0.74-2.08,0.13-1.59,1.19
	c0.28,0.61,0.95,0.93,1.71,1.07c-0.53,0.11-0.9,0.3-0.9,0.54c0,0.23,0.35,0.42,0.84,0.53c-0.6,0.09-1.03,0.28-1.03,0.5
	c0,0.24,0.51,0.45,1.21,0.52c-0.75,0.06-1.31,0.27-1.31,0.52c0,0.23,0.45,0.43,1.08,0.51c-0.58,0.09-0.98,0.27-0.98,0.49
	c0,0.2,0.34,0.36,0.82,0.46c-0.35,0.07-0.59,0.26-0.59,0.64c0.43,0.18,0.83,0.39,1.23,0.63c0.04,0.82-0.38,2.53-0.72,3.33
	c-0.14-0.25-0.35-0.43-0.64-0.52c-1.26,0.08,0.98,1.63,0.99,1.48c-0.03,0.51-0.5,0.4-0.67,0.71c-0.01-0.01,1.57,0.99,1.56,1.16
	c0.25-0.16,1.52-1.11,1.57-1.15c-0.21-0.21-0.68-0.42-0.72-0.74c-0.03-0.18,1.27-0.48,1.4-0.88C40.91,41.68,40.12,41.33,39.98,41.82
	z"/>
<linearGradient id="SVGID_1_" gradientUnits="userSpaceOnUse" x1="31.9998" y1="62" x2="31.9998" y2="2">
	<stop  offset="0" style="stop-color:#1A1A1A"/>
	<stop  offset="0.102" style="stop-color:#393939;stop-opacity:0.949"/>
	<stop  offset="0.3475" style="stop-color:#7F7F7F;stop-opacity:0.8262"/>
	<stop  offset="0.5688" style="stop-color:#B6B6B6;stop-opacity:0.7156"/>
	<stop  offset="0.7582" style="stop-color:#DEDEDE;stop-opacity:0.6209"/>
	<stop  offset="0.9081" style="stop-color:#F6F6F6;stop-opacity:0.5459"/>
	<stop  offset="1" style="stop-color:#FFFFFF;stop-opacity:0.5"/>
</linearGradient>
<circle opacity="0.1" fill="url(#SVGID_1_)" cx="32" cy="32" r="30"/>
</svg>
