<?xml version="1.0" encoding="utf-8"?>
<!-- Generator: Adobe Illustrator 15.0.0, SVG Export Plug-In . SVG Version: 6.00 Build 0)  -->
<!DOCTYPE svg PUBLIC "-//W3C//DTD SVG 1.1//EN" "http://www.w3.org/Graphics/SVG/1.1/DTD/svg11.dtd" [
	<!ENTITY ns_flows "http://ns.adobe.com/Flows/1.0/">
	<!ENTITY ns_extend "http://ns.adobe.com/Extensibility/1.0/">
	<!ENTITY ns_ai "http://ns.adobe.com/AdobeIllustrator/10.0/">
	<!ENTITY ns_graphs "http://ns.adobe.com/Graphs/1.0/">
]>
<svg version="1.1" id="Layer_1" xmlns:x="&ns_extend;" xmlns:i="&ns_ai;" xmlns:graph="&ns_graphs;"
	 xmlns="http://www.w3.org/2000/svg" xmlns:xlink="http://www.w3.org/1999/xlink" xmlns:a="http://ns.adobe.com/AdobeSVGViewerExtensions/3.0/"
	 x="0px" y="0px" width="64px" height="64px" viewBox="0 0 64 64" enable-background="new 0 0 64 64" xml:space="preserve">
<circle fill="#018BC9" cx="32" cy="32" r="30"/>
<path fill="#FFFFFF" d="M17.894,26.554c0.325-0.66,0.528-1.406,0.619-2.136c-0.121,0.312-0.31,0.599-0.568,0.844
	c-1.086,1.031-2.371,2.048-2.617,3.511c-0.035,0.207-0.055,0.424-0.115,0.625l-0.064-0.047l0.136-1.813
	c0.129-1.768-0.802-3.732,0.223-5.29l-0.082,0.034c-0.93,1.187-1.549,2.484-1.549,4.078c0,1.967,1.131,3.34,1.272,5.186
	C15.437,29.62,17.054,28.251,17.894,26.554z"/>
<path fill="#FFFFFF" d="M16.067,36.353l0.101,0.08c-0.106-0.736-0.162-1.527,0.047-2.23c0.316-1.124,0.716-2.217,0.925-3.381
	c0.161-0.904,0.35-1.92,0.241-2.799c-0.118,0.475-0.243,0.939-0.504,1.343c-0.985,1.526-2,3.317-1.31,5.255l-0.063,0.033
	c-0.276-0.642-0.34-1.369-0.521-2.055c-0.479-1.82-1.877-3.341-1.467-5.443c-0.217,0.455-0.305,0.971-0.42,1.47
	c-0.242,1.285,0,2.651,0.35,3.833C13.885,33.938,15.334,34.996,16.067,36.353z"/>
<path fill="#FFFFFF" d="M15.694,26.912c0.328-0.668,0.861-1.306,1.488-1.779c1.4-1.059,2.937-2.426,2.957-4.225
	c-0.465,1.294-1.875,1.829-2.813,2.714c-0.496,0.47-0.877,1.031-1.099,1.617l-0.033-0.026c0.115-0.519,0.334-0.987,0.484-1.489
	c0.408-1.369,0.336-3.009,1.67-3.927c-0.688,0.177-1.264,0.621-1.779,1.19c-1.075,1.195-0.981,2.957-0.84,4.529
	C15.776,26.003,15.75,26.415,15.694,26.912z"/>
<path fill="#FFFFFF" d="M17.326,23.011c0.748-0.701,1.614-1.22,2.248-2.055c0.76-1.006,1.422-2.125,2.409-2.992
	c-1.346,0.523-2.793,1.063-3.67,2.445C17.806,21.217,17.729,22.175,17.326,23.011z"/>
<path fill="#FFFFFF" d="M22.74,43.839c-1.558-1.253-1.791-3.135-2.484-4.786c-0.43-1.024-1.133-1.946-1.881-2.842
	c0.824,1.644,0.469,3.765,1.535,5.313c0.334,0.485,0.803,0.951,1.231,1.343l-0.02,0.021c-0.391-0.183-0.742-0.455-1.098-0.75
	c-1.869-1.553-4.678-1.751-5.797-4.283c0.305,1.859,1.78,3.506,3.371,4.549C19.117,43.396,21.058,43.285,22.74,43.839z"/>
<path fill="#FFFFFF" d="M15.729,38.624c1.053,0.83,2.309,1.479,3.268,2.208c-0.189-0.478-0.496-0.92-0.621-1.423
	c-0.564-2.278-0.248-4.912-1.225-7.018c0.182,1.197-0.293,2.254-0.402,3.395c-0.09,0.938,0.072,1.846,0.436,2.633
	c0.107,0.232,0.306,0.443,0.359,0.682c-0.352-0.314-0.602-0.721-0.842-1.11c-1.133-1.835-3.508-3.025-3.67-5.257
	c-0.08,0.992,0.006,2.045,0.336,2.926C13.826,36.882,14.711,37.823,15.729,38.624z"/>
<path fill="#FFFFFF" d="M26.752,44.842c0.281-0.069,0.625-0.048,0.888-0.144c-1.091-0.223-2.144-0.553-2.988-1.324
	c-1.215-1.109-2.291-2.292-3.588-3.154c1.018,1.367,1.307,3.355,3.164,4.055c0.328,0.123,0.705,0.145,0.989,0.324
	c-0.356,0.057-0.672-0.056-1.004-0.128c-2.396-0.509-5.315,0.147-7.108-1.894c0.68,1.335,2.08,2.387,3.428,2.831
	C22.617,46.097,24.791,45.329,26.752,44.842z"/>
<path fill="#FFFFFF" d="M47.32,23.724c0.15,0.502,0.369,0.971,0.486,1.489l-0.035,0.026c-0.222-0.586-0.603-1.147-1.099-1.617
	c-0.938-0.885-2.35-1.42-2.813-2.714c0.021,1.799,1.556,3.166,2.955,4.225c0.629,0.476,1.162,1.111,1.488,1.779
	c-0.055-0.497-0.08-0.909-0.035-1.396c0.146-1.572,0.238-3.334-0.84-4.529c-0.514-0.569-1.092-1.016-1.779-1.19
	C46.986,20.715,46.912,22.354,47.32,23.724z"/>
<path fill="#FFFFFF" d="M49.016,32.599c-0.18,0.686-0.242,1.413-0.518,2.055l-0.064-0.033c0.691-1.938-0.324-3.729-1.309-5.255
	c-0.26-0.402-0.385-0.868-0.504-1.343c-0.107,0.879,0.078,1.895,0.242,2.799c0.207,1.164,0.604,2.257,0.922,3.381
	c0.209,0.703,0.154,1.494,0.047,2.23l0.102-0.08c0.732-1.355,2.183-2.414,2.621-3.896c0.348-1.181,0.59-2.548,0.348-3.833
	c-0.112-0.499-0.2-1.016-0.418-1.471C50.893,29.258,49.494,30.776,49.016,32.599z"/>
<path fill="#FFFFFF" d="M48.721,27.538l0.135,1.813l-0.065,0.047c-0.062-0.201-0.078-0.418-0.113-0.625
	c-0.247-1.463-1.53-2.479-2.618-3.511c-0.259-0.245-0.445-0.532-0.566-0.844c0.09,0.729,0.293,1.476,0.619,2.136
	c0.838,1.697,2.455,3.066,2.746,4.992c0.141-1.846,1.272-3.219,1.272-5.186c0-1.594-0.619-2.893-1.551-4.078l-0.08-0.034
	C49.52,23.806,48.59,25.772,48.721,27.538z"/>
<path fill="#FFFFFF" d="M46.674,23.011c-0.402-0.836-0.479-1.794-0.988-2.602c-0.877-1.383-2.322-1.922-3.67-2.445
	c0.99,0.867,1.65,1.986,2.41,2.992C45.059,21.791,45.928,22.31,46.674,23.011z"/>
<path fill="#FFFFFF" d="M39.787,44.471c-0.332,0.072-0.645,0.185-1.002,0.128c0.283-0.181,0.66-0.201,0.99-0.324
	c1.854-0.698,2.146-2.688,3.162-4.055c-1.297,0.862-2.373,2.045-3.586,3.154c-0.847,0.771-1.896,1.104-2.99,1.324
	c0.264,0.096,0.604,0.074,0.889,0.144c1.961,0.487,4.135,1.255,6.221,0.566c1.346-0.444,2.746-1.496,3.428-2.831
	C45.104,44.618,42.182,43.962,39.787,44.471z"/>
<path fill="#FFFFFF" d="M47.301,37.989c-0.242,0.391-0.49,0.796-0.842,1.111c0.055-0.238,0.25-0.449,0.357-0.683
	c0.363-0.787,0.529-1.696,0.436-2.633c-0.109-1.14-0.584-2.196-0.402-3.396c-0.975,2.105-0.66,4.739-1.225,7.019
	c-0.123,0.503-0.432,0.944-0.621,1.423c0.959-0.729,2.215-1.378,3.27-2.208c1.019-0.802,1.9-1.742,2.359-2.966
	c0.332-0.881,0.418-1.934,0.336-2.926C50.809,34.964,48.434,36.153,47.301,37.989z"/>
<path fill="#FFFFFF" d="M39.063,46.203c-1.612-0.67-3.254-1.558-5.092-1.558c-0.668,0-1.326,0.113-1.971,0.308
	c-0.644-0.193-1.304-0.308-1.972-0.308c-1.838,0-3.479,0.888-5.09,1.558c-1.457,0.604-3.393,0.483-4.684-0.407
	c0.639,0.805,1.496,1.298,2.377,1.633c1.643,0.655,3.557,0.153,4.951-0.74c1.006-0.644,1.869-1.555,3.066-1.555
	c0.217,0,0.438,0.027,0.656,0.075c-1.688,0.672-3.224,1.853-4.421,2.995c0.22,0.251,0.503,0.484,0.771,0.699
	c1.332-1.373,2.84-2.86,4.344-3.476c1.504,0.614,3.013,2.103,4.344,3.476c0.269-0.215,0.554-0.448,0.771-0.699
	c-1.196-1.145-2.733-2.323-4.42-2.995c0.22-0.048,0.438-0.075,0.656-0.075c1.195,0,2.06,0.911,3.064,1.555
	c1.396,0.895,3.311,1.396,4.953,0.74c0.881-0.335,1.738-0.828,2.375-1.633C42.453,46.688,40.52,46.81,39.063,46.203z"/>
<path fill="#FFFFFF" d="M43.975,42.138c-0.354,0.295-0.707,0.567-1.098,0.75l-0.018-0.021c0.43-0.392,0.896-0.856,1.229-1.343
	c1.065-1.549,0.713-3.67,1.535-5.313c-0.748,0.896-1.449,1.815-1.881,2.842c-0.691,1.651-0.929,3.533-2.481,4.786
	c1.684-0.554,3.622-0.443,5.139-1.438c1.592-1.043,3.067-2.688,3.371-4.547C48.654,40.387,45.844,40.585,43.975,42.138z"/>
<path fill="#FFFFFF" d="M45.43,30.091c0-1.756-0.336-3.457-0.975-5.037c-0.668-1.647-1.662-3.164-2.959-4.461
	c-1.301-1.3-2.822-2.299-4.479-2.967l-0.002,0.002c-1.574-0.635-3.269-0.969-5.017-0.969c-2.162,0-4.199,0.516-6.01,1.426
	l0.148,0.283c1.75-0.877,3.688-1.357,5.698-1.381v2.423c-1.642,0.024-3.19,0.423-4.573,1.108c-0.998,0.496-1.908,1.14-2.699,1.908
	l-1.717-1.717c0.983-0.959,2.092-1.745,3.288-2.343l-0.146-0.283c-2.615,1.313-4.744,3.455-6.041,6.081l0.098,0.054l-0.1-0.054
	c-0.881,1.789-1.379,3.8-1.379,5.926c0,1.301,0.186,2.571,0.539,3.785l0.317-0.08c-0.334-1.138-0.518-2.326-0.53-3.543h2.422
	c0.016,1.016,0.172,2.005,0.459,2.952c0.488,1.608,1.354,3.087,2.557,4.325l-1.713,1.712c-1.516-1.554-2.598-3.416-3.193-5.444
	l-0.318,0.079c0.627,2.138,1.777,4.095,3.396,5.711c1.094,1.097,2.346,1.979,3.703,2.628l0.162-0.285
	c-1.285-0.611-2.473-1.437-3.521-2.46l1.713-1.712c0.892,0.864,1.904,1.553,3.002,2.055l0.16-0.283
	c-1.072-0.485-2.063-1.157-2.934-2l1.551-1.551c0.729,0.699,1.563,1.248,2.467,1.631l0.158-0.282
	c-0.877-0.368-1.689-0.897-2.395-1.575l1.713-1.713c0.549,0.52,1.189,0.91,1.885,1.159c0.531,0.188,1.092,0.297,1.67,0.313v2.423
	c-1.002-0.021-1.973-0.227-2.871-0.605l-0.16,0.283c0.947,0.404,1.973,0.625,3.031,0.646v2.192
	c-1.443-0.022-2.836-0.339-4.115-0.919l-0.158,0.283c1.326,0.605,2.775,0.938,4.273,0.959v2.422
	c-1.922-0.022-3.781-0.459-5.469-1.264l-0.16,0.284c1.785,0.854,3.754,1.308,5.791,1.308c2.14,0,4.196-0.5,6.053-1.438
	c1.259-0.638,2.421-1.472,3.445-2.497c1.078-1.078,1.946-2.307,2.594-3.639l-0.002-0.003C44.965,34.147,45.43,32.153,45.43,30.091z
	 M44.154,25.183c0.604,1.491,0.928,3.094,0.949,4.746h-2.422c-0.021-1.318-0.279-2.599-0.755-3.789
	c-0.51-1.283-1.271-2.468-2.26-3.486l1.711-1.713C42.59,22.181,43.523,23.619,44.154,25.183z M37.418,29.929
	c-0.016-0.593-0.129-1.169-0.328-1.71c-0.248-0.681-0.635-1.307-1.143-1.848l1.711-1.711c0.73,0.76,1.289,1.644,1.658,2.601
	c0.326,0.842,0.506,1.741,0.524,2.668H37.418z M39.84,30.252c-0.021,1.067-0.26,2.086-0.67,3.011
	c-0.373,0.838-0.885,1.603-1.514,2.258l-1.709-1.711c0.473-0.506,0.84-1.084,1.09-1.713c0.232-0.58,0.361-1.203,0.381-1.845H39.84z
	 M36.791,28.347c0.184,0.502,0.287,1.034,0.305,1.582h-2.197c-0.037-0.662-0.293-1.281-0.733-1.772l1.553-1.556
	C36.197,27.11,36.559,27.703,36.791,28.347z M37.096,30.252c-0.021,0.594-0.141,1.162-0.346,1.688
	c-0.24,0.61-0.594,1.166-1.035,1.639l-1.551-1.555c0.441-0.491,0.697-1.11,0.734-1.772H37.096z M35.488,33.81
	c-0.371,0.351-0.795,0.643-1.258,0.867c-0.629,0.309-1.328,0.489-2.068,0.514v-2.197c0.66-0.036,1.279-0.292,1.773-0.734
	L35.488,33.81z M34.379,34.968c0.484-0.236,0.938-0.548,1.34-0.928l1.709,1.71c-0.57,0.549-1.225,1.01-1.939,1.366
	c-1.006,0.502-2.133,0.794-3.325,0.818v-2.423C32.943,35.49,33.695,35.302,34.379,34.968z M35.639,37.406
	c0.734-0.364,1.414-0.841,2.021-1.425l1.549,1.547c-0.754,0.73-1.619,1.347-2.565,1.822c-1.353,0.681-2.871,1.074-4.479,1.101
	v-2.192C33.389,38.235,34.568,37.94,35.639,37.406z M37.887,35.749c0.664-0.689,1.191-1.479,1.572-2.33
	c0.439-0.986,0.684-2.057,0.705-3.167h2.193c-0.023,1.506-0.371,2.935-0.974,4.219c-0.491,1.05-1.151,2.005-1.948,2.826
	L37.887,35.749z M40.164,29.929c-0.02-0.971-0.209-1.914-0.551-2.795c-0.385-0.994-0.967-1.913-1.727-2.701l1.551-1.553
	c0.961,0.991,1.696,2.141,2.19,3.387c0.459,1.153,0.709,2.39,0.729,3.662H40.164z M32.162,19.733
	c1.299,0.02,2.561,0.278,3.734,0.754l0.115-0.301c-1.21-0.49-2.511-0.759-3.851-0.776v-2.423c1.646,0.02,3.248,0.346,4.735,0.945
	l0.002-0.002c1.564,0.629,3.009,1.564,4.25,2.778l-1.713,1.714c-1.002-0.973-2.164-1.727-3.426-2.236l-0.115,0.301
	c1.219,0.496,2.342,1.225,3.313,2.166l-1.551,1.552c-0.755-0.726-1.623-1.289-2.564-1.674c-0.922-0.378-1.911-0.585-2.932-0.604
	L32.162,19.733L32.162,19.733z M32.162,22.251c0.979,0.02,1.93,0.22,2.813,0.581c0.902,0.369,1.732,0.908,2.455,1.603l-1.713,1.711
	c-0.482-0.453-1.031-0.81-1.627-1.058c-0.605-0.254-1.256-0.396-1.928-0.414V22.251z M32.162,24.997
	c0.631,0.02,1.242,0.152,1.809,0.393c0.555,0.231,1.068,0.563,1.518,0.985l-1.555,1.554c-0.492-0.441-1.11-0.697-1.771-0.734
	L32.162,24.997L32.162,24.997z M27.41,20.801c1.362-0.674,2.866-1.043,4.428-1.067v2.192c-1.221,0.025-2.375,0.318-3.405,0.822
	c-0.773,0.376-1.478,0.87-2.091,1.458l-1.553-1.553C25.574,21.892,26.457,21.272,27.41,20.801z M27.289,28.132
	c0.231-0.561,0.565-1.076,0.989-1.529l1.556,1.555c-0.426,0.478-0.696,1.094-0.733,1.773h-2.197
	C26.922,29.303,27.056,28.696,27.289,28.132z M26.58,29.931h-2.424c0.021-1.09,0.268-2.143,0.709-3.106
	c0.362-0.789,0.856-1.519,1.475-2.162l1.714,1.714c-0.438,0.466-0.794,1.008-1.048,1.604C26.75,28.581,26.601,29.239,26.58,29.931z
	 M28.51,26.374c0.4-0.378,0.854-0.682,1.343-0.909c0.616-0.287,1.289-0.448,1.985-0.47v2.197c-0.34,0.02-0.666,0.097-0.965,0.224
	c-0.299,0.126-0.569,0.299-0.81,0.511L28.51,26.374z M29.703,25.181c-0.524,0.246-1.004,0.573-1.42,0.965l-1.716-1.711
	c0.603-0.578,1.279-1.05,2.009-1.403v0.001c1.008-0.488,2.112-0.758,3.262-0.782v2.423C31.076,24.694,30.354,24.876,29.703,25.181z
	 M26.112,24.435c-0.627,0.651-1.145,1.407-1.526,2.237c-0.463,0.994-0.729,2.097-0.752,3.259h-2.192
	c0.022-1.515,0.371-2.977,1.006-4.308c0.479-0.999,1.121-1.925,1.914-2.741L26.112,24.435z M18.896,29.931
	c0.022-1.979,0.485-3.885,1.334-5.611h0.002c0.604-1.23,1.403-2.37,2.389-3.379l1.717,1.717c-0.799,0.822-1.467,1.771-1.969,2.816
	h0.002c-0.652,1.354-1.029,2.861-1.053,4.457H18.896z M26.34,35.522c-0.834-0.867-1.44-1.896-1.805-3.013l-0.313,0.079
	c0.373,1.173,1.014,2.252,1.889,3.162l-1.551,1.552c-1.16-1.196-1.998-2.624-2.471-4.176c-0.281-0.922-0.436-1.887-0.449-2.874
	h2.193c0.016,0.805,0.148,1.589,0.387,2.336l0.314-0.08c-0.232-0.721-0.361-1.479-0.379-2.256h2.424
	c0.016,0.576,0.123,1.137,0.311,1.663c0.248,0.696,0.642,1.341,1.162,1.894L26.34,35.522z M28.278,33.581
	c-0.479-0.51-0.84-1.104-1.071-1.744c-0.185-0.501-0.287-1.036-0.306-1.583h2.199c0.037,0.661,0.293,1.281,0.733,1.772
	L28.278,33.581z M31.838,35.19c-0.521-0.017-1.026-0.111-1.51-0.277c-0.668-0.232-1.287-0.604-1.818-1.102l1.556-1.555
	c0.492,0.442,1.113,0.698,1.772,0.734V35.19z M30.172,31.92c-0.485-0.489-0.756-1.138-0.756-1.828s0.271-1.339,0.756-1.827
	c0.248-0.246,0.535-0.437,0.851-0.563c0.305-0.126,0.635-0.191,0.979-0.191c0.688,0,1.338,0.269,1.826,0.755
	c0.487,0.489,0.756,1.139,0.756,1.828c0,1.426-1.158,2.584-2.582,2.584C31.31,32.676,30.66,32.407,30.172,31.92z M37.9,41.791
	c-1.73,0.875-3.676,1.381-5.738,1.405v-2.422c1.635-0.022,3.209-0.416,4.629-1.131c0.963-0.482,1.855-1.113,2.648-1.883l1.707,1.707
	C40.195,40.399,39.1,41.185,37.9,41.791z M41.375,39.237l-1.709-1.709c0.836-0.862,1.514-1.84,2.01-2.898
	c0.637-1.354,0.982-2.841,1.006-4.378h2.42c-0.022,1.981-0.49,3.86-1.305,5.537C43.178,37.067,42.357,38.231,41.375,39.237z"/>
<path fill="#FFFFFF" d="M28.733,30.66c0.082-0.482,1.054-1.091,0.937-0.207c0.703-0.063,0.873-0.789,1.084-1.277
	c-0.092,0.002-0.183,0.011-0.271,0.026c0.088-0.106,1.985-2.129,0.613-2.119c-0.472,0.004-0.908,0.661-1.31,0.854
	c-0.584,0.28-1.146-0.188-1.718-0.285c-1.09-0.188-2.161,0.186-2.36,1.404c-0.129,0.81-1.174,1.577-1.174,2.457
	c-0.49-0.623-1.884-0.006-1.568,1.531c0.084,0.417-1.967,0.805-2.442,0.407c-0.078-0.064-0.058-0.312,0.137-0.386
	c-1.15-0.256-1.16,1.78-0.313,2.035c-0.127-1.721,2.541,1.012,2.893,1.328c0.66,0.594,1.373,0.437,2.08,0.904
	c0.33,0.219,1.998-0.079,1.639-0.583c-0.326-0.458,0.361-0.636-0.25-1.002c-0.684-0.406-0.578-0.729-0.799-1.464
	c-0.256-0.844-0.582-1.893-0.727-2.732c-0.101-0.57,0.328-0.99,0.711-1.326c0.174-0.261-0.164-0.883-0.004-1.021
	c0.678-0.583,0.393,1.922,0.596,1.986c0.049,0.019,0.576-0.121,0.799-0.066c0.404,0.097,1.309,0.646,1.471,0.613
	c0.086,0.056,0.074,0.597,0.088,0.725c0.607-0.059,0.553-1.352,0.973-1.54C29.647,30.235,29.192,30.419,28.733,30.66z"/>
<path fill="#FFFFFF" d="M30.496,31.885c0.726,0.179,1.887-1.077,0.854-1.458C30.996,29.571,29.896,31.735,30.496,31.885z"/>
<path fill="#FFFFFF" d="M37.699,23.769c-0.072-0.168-0.758-1.595-1.459-1.264C35.521,22.843,39.182,27.272,37.699,23.769z"/>
<path fill="#FFFFFF" d="M41.551,24.733c0.17-0.702,0.047-0.194,0.001-0.004c0.267-1.131-2.051-1.355-1.708-2.621
	c-0.137,0.072-1.955-1.815-2.789-1.803c-1.004,0.016,0.26,2.732,0.701,2.562c0.678-0.265,0.605,0.733,0.723,1.055
	c0.066,0.183,1.224,0.922,1.441,1.073c0.318,0.22,0.955,1.167,1.318,1.102C42.406,25.882,41.406,25.328,41.551,24.733z"/>
<path fill="#FFFFFF" d="M39.609,27.931c-0.142,0.143-0.728,0.703-0.916,0.56c-0.125-0.099,0.395-0.526-0.238-0.546
	c-0.518-0.018-0.379,0.828-0.793,0.056c-0.539-1.004-0.838-0.878-1.711-0.06c0.125-0.116-0.42-0.653,0.182-0.84
	c-0.379-0.108-1.689,0.573-1.764-0.11c-0.561,0.252,0.127,0.92-0.561,0.858c-0.701-0.061-0.813-0.422-0.455-0.953
	c-0.381,0.188-1.279,1.062-1.722,0.797c0.021,0.386,1.606,1.107,1.017,1.4c0.168-0.05,0.33-0.105,0.492-0.17
	c0.364,0.321-0.099,0.938-0.423,1.037c0.834-0.146,1.318,1.316,0.396,1.589c-0.6,0.175-1.4,1.375-0.287,1.396
	c-0.035-0.286-0.01-0.565,0.08-0.838c0.184-0.062,0.234,0.722,0.127,0.845c-0.182,0.175-0.383,0.182-0.603,0.021
	c-0.059,0.408-0.34,0.727-0.758,0.771c0.148,0.186,0.139,0.349-0.033,0.491c-1.572,0.524,1.419,0.063,1.619,0.291
	c-0.131-0.154-0.229-0.326-0.299-0.516c0.479-0.146,0.724,0.596,1.19,0.6c-0.866-0.664,0.48-2.873,1.49-1.717
	c-0.471-0.002-1.635,0.868-1.422,1.414c-0.023-0.061,1.398-0.367,0.309,0.442c-1.077,0.8-1.475-0.366-2.372,0.083
	c-0.805,0.402-1.592,0.958-2.271,1.55c0.877,1.204,1.545,1.272,2.996,1.397c0.945,0.082,0.845,1.119,1.322,1.728
	c0.789,1,2.008,0.702,2.922,0.042c1.013-0.729,0.269-0.389,0.336-1.249c0.031-0.362,0.358-0.638,0.354-0.995
	c0-0.428-0.42-0.568-0.401-1.072c0.019-0.549,0.17-1.145,0.084-1.691c-0.81,0.895-1.631,0.568-2.627,0.219
	c0.19-0.188,1.33,0.165,1.633,0.117c0.529-0.087,1.279-1.475,0.547-1.727c-0.059,0.31-0.647,0.537-0.907,0.578
	c0.203-0.56,1.317-1.039,1.778-1.342c0.688-0.455,1.263-0.57,0.707-1.031c-0.489-0.405-0.112-1.58-0.006-2.086
	c0.024-0.109,0.78-0.15,0.951-0.463c0.022-0.041,1.049-1.723-0.123-3.06C39.342,25.619,39.844,27.69,39.609,27.931z"/>
<linearGradient id="SVGID_1_" gradientUnits="userSpaceOnUse" x1="32.0005" y1="62" x2="32.0005" y2="2.0005">
	<stop  offset="0" style="stop-color:#1A1A1A"/>
	<stop  offset="0.102" style="stop-color:#393939;stop-opacity:0.949"/>
	<stop  offset="0.3475" style="stop-color:#7F7F7F;stop-opacity:0.8262"/>
	<stop  offset="0.5688" style="stop-color:#B6B6B6;stop-opacity:0.7156"/>
	<stop  offset="0.7582" style="stop-color:#DEDEDE;stop-opacity:0.6209"/>
	<stop  offset="0.9081" style="stop-color:#F6F6F6;stop-opacity:0.5459"/>
	<stop  offset="1" style="stop-color:#FFFFFF;stop-opacity:0.5"/>
	<a:midPointStop  offset="0" style="stop-color:#1A1A1A"/>
	<a:midPointStop  offset="0.4" style="stop-color:#1A1A1A"/>
	<a:midPointStop  offset="1" style="stop-color:#FFFFFF;stop-opacity:0.5"/>
</linearGradient>
<circle opacity="0.1" fill="url(#SVGID_1_)" cx="32" cy="32" r="30"/>
</svg>
