<?xml version="1.0" encoding="utf-8"?>
<!-- Generator: Adobe Illustrator 21.0.0, SVG Export Plug-In . SVG Version: 6.00 Build 0)  -->
<svg version="1.1" id="Layer_1" xmlns="http://www.w3.org/2000/svg" xmlns:xlink="http://www.w3.org/1999/xlink" x="0px" y="0px"
	 width="64px" height="64px" viewBox="0 0 64 64" enable-background="new 0 0 64 64" xml:space="preserve">
<rect x="12" y="12" fill="#014D87" width="21" height="21"/>
<polygon fill="#F5F5F5" points="18.91,8.14 18.91,14 11.6,14 26,32 32,32 32,24.5 "/>
<path fill="#014D87" d="M32,2v30H2c0,16.57,13.43,30,30,30c16.57,0,30-13.43,30-30C62,15.43,48.57,2,32,2z"/>
<path fill="#F5F5F5" d="M11,18.91H5.01C3.09,22.87,2,27.31,2,32h12V13.91h-3V18.91z"/>
<polygon fill="#E81C27" points="32,27.06 19,11 13,11 30,32 32,32 "/>
<path fill="#F5F5F5" d="M18.91,5.01V11H11v3h21V2C27.31,2,22.87,3.09,18.91,5.01z"/>
<path fill="#E81C27" d="M32,5H18.91C12.86,7.94,7.94,12.86,5,18.91V32h6V11h21V5z"/>
<path fill="#D8A322" d="M34.54,33.85L34.54,33.85L34.54,33.85z"/>
<path fill="#D8A322" d="M34.54,33.86l-0.04,0.08L34.54,33.86z"/>
<path fill="#BFE5E8" d="M48.26,24.03l-3.69,1.25l0.06-3.8l0.78-1.26L48.26,24.03z M41.49,24.53l2.85-2.85l-0.04,3.57L41.49,24.53z"
	/>
<path fill="#C7E8EB" d="M46.37,26L46.37,26L46.37,26z"/>
<path fill="#C7E8EB" d="M48.15,25.95l-0.05,0.02L48.15,25.95z"/>
<path fill="#C7E8EB" d="M48.24,25.92L48.24,25.92L48.24,25.92z"/>
<path fill="#C7E8EB" d="M48.25,25.9l0.03-0.08L48.25,25.9z"/>
<path fill="#C7E8EB" d="M48.24,25.92l0.01-0.02L48.24,25.92z"/>
<path fill="#C7E8EB" d="M42.58,25.24c0.04,0.65,0.21,0.69,0.21,0.69h5.45c0,0,0.16-0.47,0.21-0.71
	C46.86,25.64,44.75,25.92,42.58,25.24z"/>
<path fill="#0FB4D4" d="M48.97,26.22c0.04-0.17,0.09-0.34,0.13-0.51c0.07-0.26-0.12-0.4-0.15-0.67c-0.01-0.16,0.01-0.33,0.05-0.49
	c-0.21-0.06-0.42-0.09-0.64-0.09c-0.2,0-0.45-0.05-0.5,0.18c0.28-0.03,0.6-0.05,0.87,0.05c-0.6,0.5-1.7,0.54-2.43,0.6
	c-0.64,0.05-1.32,0.08-1.93,0.01c-0.35-0.03-0.75-0.09-1.11-0.16c-0.25-0.05-0.49-0.11-0.72-0.2c-0.04-0.29,0.02-0.31-0.29-0.31
	c-0.03,0.32-0.15,1.51,0.4,1.32c-0.12-0.24-0.12-0.56-0.15-0.82c1.16,0.43,3.43,0.76,6.05-0.04c-0.04,0.28-0.12,0.55-0.22,0.82
	C48.56,25.93,48.8,26.05,48.97,26.22z"/>
<path fill="#BC7E22" d="M44.59,20.86c0,0,0-0.1-0.1-0.1c-0.09,0-0.1,0.1-0.1,0.1l-0.06,4.42h0.21L44.59,20.86z"/>
<polygon fill="#F5F5F5" points="49.65,39.57 49.65,39.57 49.65,39.57 "/>
<polygon fill="#F5F5F5" points="41.76,39.56 41.76,39.56 41.76,39.56 "/>
<polygon fill="#1799F8" points="41.76,41.45 41.75,41.45 41.76,41.45 "/>
<polygon fill="#1799F8" points="49.65,41.45 49.65,41.45 49.65,41.45 "/>
<path fill="#0FB4D4" d="M39.22,27.46c0.82-0.41,1.68-0.22,2.01,0.54c0.25,0.98-0.31,1.75-1.05,2.46l0.09,0.12
	c0.4-0.5,0.93-0.88,1.79-0.9c-0.11,0.27-0.45,1.51-0.55,1.74c0.14,0,0.29,0.01,0.44,0.01c0.12,0.06,0.2,0.16,0.24,0.31
	c-0.4,0.06-0.8,0.02-1.21-0.1c-0.6-0.28-1.15-0.37-1.49,0.16c-0.25-0.38-0.31-0.75-0.19-1.12c0.18-0.46,0.36-0.91,0.55-1.38
	C40.22,28.11,39.85,27.56,39.22,27.46z M39.19,31c-0.07,0.45,0.05,0.88,0.09,1.33c-0.47-0.1-1.02-0.1-1.37,0.07
	c-0.02-0.4,0.17-0.59,0.38-0.76c-0.81-0.17-1.44,0.06-1.7,0.95c0.1-0.5,0.19-1.01,0.16-1.52C37.44,30.53,38.26,30.56,39.19,31z"/>
<path fill="#9EC1FF" d="M35.44,28.79c0.14,0.31,0.4,0.63,0.89,0.95c0.23,0.22,0.48,0.31,0.71,0.27c0.73-0.25,1.11-0.61,1.46-0.98
	c0.22-0.28,0.38-0.56,0.52-0.83c0.01-0.07,0.18-0.07,0.08,0.1c-0.21,0.21-0.29,0.49-0.38,0.83c-0.13,0.33-0.21,0.62,0,0.94
	c0.05-0.23,0.26-0.38,0.46-0.47c0.23-0.16,0.37-0.42,0.45-0.71c0.02-0.39,0.02-0.7,0.27-0.83c-0.11-0.36-0.35-0.55-0.7-0.57
	c-0.29-0.37-0.69-0.49-1.16-0.43c-0.5,0-0.97,0.28-1.49,0.07c0.07,0.37,0.44,0.78,1.61,0.88c-0.43,0.39-0.92,0.77-1.82,1.07
	C35.91,29.11,35.65,28.98,35.44,28.79z"/>
<path fill="#9EC1FF" d="M39.19,31.07c0.11,1.04,1.81,1.7,2.7,0.92c-1.47,0.13-1.36-0.25-2.13-0.41c0.19-0.19,0.5-0.26,1.24,0.1
	c0.35,0.09,0.7,0.12,1.05,0.12l0.14-0.1c-0.01-0.16-0.11-0.17-0.19-0.26l0.35-0.05c0.32,0.54,0.65,1.06,0.97,1.58
	c-0.63,0.81-1.28,1.35-1.92,1.45c-0.01-0.51,0.18-0.88,0.44-1.21C40,33.92,38.79,32.3,39.19,31.07z"/>
<path fill="#9EC1FF" d="M36.91,31.98c0.08,0.48,0.51,0.84,1.15,0.81c-0.32,0.85-1.54,0.49-1.44-0.19
	C36.67,32.36,36.76,32.15,36.91,31.98z"/>
<path fill="#0FB4D4" d="M50.57,28.14c0.25-1.05,1.11-1.14,1.97-0.86c0.33-0.15,0.63-0.3,1.21-0.16c0.42,0.14,0.83,0.13,1.25,0.03
	c-0.31,0.54-0.84,0.84-1.69,0.76c0.56,0.54,1.17,0.92,1.89,0.89c0.12,0.35-0.09,0.64-0.45,0.89c-0.61,0-1.17-0.33-1.69-0.95
	c0.09,0.36,0.1,0.71,0.03,1.07c-0.32-0.27-0.67-0.53-0.85-0.8c-0.21-0.23-0.22-0.62-0.18-0.96C52,27.13,50.82,27.45,50.57,28.14z"/>
<path fill="#0FB4D4" d="M46.77,30.02c0.43-0.27,0.74-0.56,0.94-0.87l0.02,0.01l0.09,0.02l0.16,0.04l0.12,0.03
	c0.2,0.06,0.41,0.16,0.6,0.25c0.1,0.22,0.22,0.43,0.46,0.62c0.28,0.37,0.59,0.72,1.37,0.6c-0.2,0.07-0.38,0.16-0.52,0.28l-0.21-0.06
	l0.12,0.19l-0.01,0.09c0.79,0.33,1.58,0.6,2.26,0.15c0.05,0.72-0.18,1.18-0.73,1.35c-1.12,0.22-2.07-0.52-2.53-1.52
	c0.1,0.51,0.01,1.04-0.19,1.56c-0.41-0.37-0.7-0.9-0.66-1.86c-0.12,0.5-0.31,0.9-0.51,1.29c-0.36-0.79-0.38-1.51-0.06-2.15
	C47.24,30.15,47.01,30.12,46.77,30.02z"/>
<path fill="#9EC1FF" d="M49.01,29.82c0.35,0.21,0.72-0.01,1.17,0.13c-0.25-0.19-0.36-0.38-0.36-0.55c0.38-0.14,0.76,0,1.17,0.31
	c-0.36-0.54-0.55-1.07-0.43-1.55c0.31-0.51,0.71-0.82,1.26-0.56c-0.22,0.3-0.23,0.77-0.1,1.22c0.11,0.64,0.44,1.16,0.62,1.83
	c0.39-0.23,0.8-0.41,1.21-0.52c0.25-0.06,0.5,0.02,0.75,0.18c0.31,0.42,0.44,0.85,0.18,1.3c-0.24-0.49-0.68-0.54-1.21-0.4
	c0.27,0.17,0.41,0.41,0.26,0.77c-0.41-0.2-0.79-0.21-1.14-0.09c0,0-0.4-0.82-0.97-0.88c-0.28,0.02-0.58,0.2-0.86,0.32
	c-0.29,0.06-0.52,0.03-0.69-0.08c0.07-0.29,0.41-0.38,0.64-0.5C49.72,30.8,49.19,30.49,49.01,29.82z M54.71,28.06
	c0.25,0.18,0.46,0.39,0.53,0.68c0.07,0.35-0.07,0.65-0.45,0.91c0.26-0.04,0.52-0.21,0.79-0.54c0.17-0.2,0.34-0.39,0.49-0.59
	C56,27.82,55.13,27.66,54.71,28.06z"/>
<path fill="#D8A322" d="M41.08,38.37l-0.03-0.05L41.08,38.37z"/>
<path fill="#D8A322" d="M41.04,38.32l0.03,0.05L41.04,38.32z"/>
<path fill="#D8A322" d="M57.77,34.47L57.77,34.47L57.77,34.47z"/>
<path fill="#D8A322" d="M50.43,38.36l0.03-0.05L50.43,38.36z"/>
<path fill="#D8A322" d="M50.46,38.3l-0.03,0.05L50.46,38.3z"/>
<path fill="#D8A322" d="M57.78,34.49l0.04,0.08L57.78,34.49z"/>
<path fill="#D8A322" d="M45.15,26.95c0-0.54,0.05-0.98,0.11-0.98c-0.86-0.82-1.77,0-1.77,0l0.37,2.09c0,0-0.75-1.28-0.37-2.09
	c0,0-2.07-0.55-2.52,1c-0.14,0.49,0.86,1.81,0.86,1.81c1.6-0.92,3.43-0.85,3.43-0.85v0C45.2,27.93,45.15,27.49,45.15,26.95z"/>
<path fill="#D8A322" d="M49.54,26.97c-0.45-1.54-2.52-1-2.52-1c0.38,0.81-0.37,2.09-0.37,2.09l0.37-2.09c0,0-0.9-0.82-1.77,0
	c0.06,0,0.11,0.44,0.11,0.98c0,0.54-0.05,0.98-0.11,0.98v0c0,0,1.83-0.07,3.42,0.85C48.68,28.78,49.69,27.45,49.54,26.97z"/>
<path fill="#F5F5F5" d="M45.71,49.96c1,0.01,1.98-0.23,2.87-0.67c0.45-0.22,0.87-0.48,1.27-0.78c0.11-0.08,0.44-0.43,0.56-0.44
	c0.14,0,0.48,0.29,0.64,0.34c0.66,0.22,1.53,0.13,1.71-0.67c0.07-0.34-0.14-0.75-0.04-1.08c0.04-0.12,0.15-0.18,0.19-0.28
	c0.07-0.17,0.11-0.07,0-0.27l-0.14-0.17c-0.41-0.42-1.05-0.4-1.56-0.21c-0.09,0.04-0.26,0.17-0.36,0.17c-0.15,0-0.38-0.2-0.54-0.26
	c-0.33-0.12-0.64-0.19-0.98-0.13c-0.65,0.11-1.03,0.6-1.53,0.95c-0.37,0.27-1.06,0.46-0.68,1.05c0.29,0.45,1.08-0.01,1.52-0.1
	c-1.81,1.3-4.07,1.2-5.89,0c0.2,0.04,0.39,0.08,0.58,0.13c0.18,0.05,0.45,0.26,0.62,0.21c0.55-0.14,0.52-0.82,0.08-1.04
	c-0.5-0.25-0.85-0.68-1.33-0.96c-0.73-0.43-1.24-0.21-1.96,0.06c-0.22,0.08-0.17,0.09-0.38-0.02c-0.15-0.07-0.3-0.12-0.46-0.16
	c-0.28-0.06-0.56-0.07-0.83,0.02c-0.21,0.07-0.52,0.25-0.6,0.48c-0.09,0.24,0.05,0.2,0.15,0.4c0.07,0.14,0.06,0.24,0.06,0.4
	c-0.01,0.75-0.05,1.48,0.89,1.58c0.38,0.04,0.85-0.07,1.17-0.28c0.29-0.19,0.29-0.12,0.55,0.08c0.21,0.16,0.42,0.32,0.64,0.46
	C43.06,49.52,44.36,49.98,45.71,49.96z"/>
<path fill="#007DD4" d="M40.74,34.67l9.94-0.02v5.87c-0.03,4.08-1.5,5.48-5.02,6.44c-3.59-1-4.89-2.45-4.92-6.46V34.67z"/>
<path fill="#1799F8" d="M41,34.95l9.46-0.02v5.58c-0.03,3.88-1.42,5.21-4.78,6.13c-3.42-0.95-4.65-2.33-4.68-6.14V34.95z"/>
<path fill="#F5F5F5" d="M50.44,40.54c-0.03,3.88-1.42,5.21-4.78,6.13c-3.42-0.95-4.65-2.33-4.68-6.14L50.44,40.54z"/>
<polygon fill="#F5F5F5" points="47.5,40.53 45.7,37.08 43.81,40.52 "/>
<polyline fill="#1799F8" points="43.81,40.52 45.7,43.97 47.5,40.53 "/>
<path fill="#F5F5F5" d="M49.29,38.62c-0.1-0.13-0.49-0.52-0.96-0.55c0,0,0.01-0.07-0.23-0.14c-0.4-0.11-0.22-0.43-0.13-0.64
	c0.1-0.22,0.06-0.55-0.4-0.81c-0.46-0.27-0.87-0.2-1.33-0.58c-0.07,0.32,0.67,0.59,0.61,0.67c-0.13,0.18,0.63,0.93,0.04,0.65
	c-0.11-0.05-0.46-0.14-0.75-0.02c0.53,0.12,0.81,0.92,1.7,1.06c0.02,0.13,0.1,0.25,0.21,0.26c0,0,0.41,0.11,0.61,0.59
	c0.1-0.3-0.22-0.62-0.27-0.68c0,0,0.42-0.08,0.51,0.16c0.23,0.61,0.89,1.25,1.24,1.32C49.75,39.62,49.54,38.96,49.29,38.62z"/>
<path fill="#F5F5F5" d="M42.11,38.62c0.1-0.13,0.49-0.52,0.96-0.55c0,0-0.01-0.07,0.23-0.14c0.4-0.11,0.22-0.43,0.12-0.64
	c-0.1-0.22-0.06-0.54,0.4-0.81c0.46-0.27,0.87-0.2,1.33-0.58c0.07,0.32-0.67,0.59-0.61,0.67c0.13,0.18-0.63,0.93-0.04,0.65
	c0.11-0.05,0.46-0.14,0.75-0.02c-0.53,0.12-0.81,0.92-1.7,1.06c-0.02,0.13-0.1,0.25-0.21,0.26c0,0-0.42,0.11-0.61,0.59
	c-0.1-0.3,0.23-0.62,0.27-0.68c0,0-0.42-0.08-0.51,0.16c-0.23,0.61-0.89,1.25-1.24,1.32C41.66,39.61,41.87,38.95,42.11,38.62z"/>
<path fill="#1799F8" d="M42.11,42.57c0.1,0.13,0.49,0.52,0.96,0.55c0,0-0.01,0.07,0.23,0.14c0.4,0.11,0.22,0.43,0.12,0.64
	c-0.1,0.22-0.06,0.54,0.4,0.81c0.46,0.27,0.87,0.2,1.33,0.58c0.07-0.32-0.67-0.59-0.61-0.67c0.13-0.18-0.63-0.93-0.04-0.65
	c0.11,0.05,0.46,0.14,0.75,0.02c-0.53-0.12-0.81-0.92-1.7-1.06c-0.02-0.13-0.1-0.25-0.21-0.26c0,0-0.42-0.11-0.61-0.59
	c-0.1,0.3,0.23,0.62,0.27,0.68c0,0-0.42,0.08-0.51-0.16c-0.23-0.61-0.89-1.25-1.24-1.32C41.66,41.57,41.87,42.23,42.11,42.57z"/>
<path fill="#1799F8" d="M49.29,42.58c-0.1,0.13-0.49,0.52-0.96,0.55c0,0,0.01,0.07-0.23,0.14c-0.4,0.11-0.22,0.43-0.13,0.64
	c0.1,0.22,0.06,0.54-0.4,0.81c-0.46,0.27-0.87,0.2-1.33,0.58c-0.07-0.32,0.67-0.59,0.61-0.67c-0.13-0.18,0.63-0.93,0.04-0.65
	c-0.11,0.05-0.46,0.14-0.75,0.02c0.53-0.12,0.81-0.92,1.7-1.06c0.02-0.13,0.1-0.25,0.21-0.26c0,0,0.41-0.11,0.61-0.59
	c0.1,0.3-0.22,0.62-0.27,0.68c0,0,0.42,0.08,0.51-0.16c0.23-0.61,0.89-1.25,1.24-1.32C49.75,41.58,49.54,42.24,49.29,42.58z"/>
<path fill="#D8A322" d="M50.45,39.51c-0.37-0.41,0.8-2.21,0.97-1.95c0.31,0.34,0.67,0.97,0.95,1.34c0.4,0.52-1.01-0.98-1.31-0.49
	c-0.07,0.12-1.42,2.88,0.07,3.55c-0.74-1.95,0.18-3.9,1.49-1.94c0.41,0.61-0.28,0.17-0.51,0.01c-1.05-0.75-1.02,1.81-0.11,2.68
	c-0.77-3.01,0.39-2.15,1.48-1.14c0.55,0.52-1.28,2.66-1.33,2.57c-0.15-0.34-0.64-0.99-0.98-0.95c-0.46,0.05-0.99,1.08-0.83,1.67
	c0.32,0.74,1.52,0.74,2.08,0.55c4.32-1.43,4.79-7.92,3.62-10.09c-0.15-0.28,0.87-1.11,1.08-0.84c2.35,2.87,0.14,9.26-0.15,9.68
	c3.21-4.64,2.64-10.86-1-10.63c-0.73,0.04-2.06,0.43-2.99,2.34c0,0,0.1-1.53-0.88-1.29c-0.77,0.19-2.21,0.88-1.81,1.64
	c0.06-0.17,1.4-1.09,1.79-1.16c0.32,0,0.33,1.66,0.15,1.21c-0.12-0.3-0.47-0.79-0.82-0.55c-0.31,0.25-1.94,1.37-1.09,2.24
	c-0.08-0.81,0.88-1.61,1.16-1.78c0.25-0.15,1.06,1.54,1.01,1.84c-0.15,0.05-1.01-1.31-1.36-1.13C50.9,37.01,49.82,38.82,50.45,39.51
	z"/>
<path fill="#D8A322" d="M40.97,39.51c0.37-0.41-0.8-2.21-0.97-1.95c-0.31,0.34-0.67,0.97-0.95,1.34c-0.4,0.52,1.01-0.98,1.31-0.49
	c0.07,0.12,1.41,2.88-0.08,3.55c0.74-1.95-0.18-3.9-1.49-1.94c-0.41,0.61,0.28,0.18,0.51,0.01c1.05-0.75,1.02,1.81,0.11,2.68
	c0.76-3.01-0.39-2.15-1.48-1.14c-0.55,0.51,1.28,2.66,1.33,2.57c0.15-0.34,0.64-0.99,0.98-0.95c0.46,0.05,0.99,1.08,0.82,1.67
	c-0.32,0.74-1.52,0.74-2.08,0.55c-4.32-1.43-4.79-7.92-3.62-10.09c0.15-0.28-0.87-1.11-1.08-0.84c-2.35,2.87-0.14,9.26,0.16,9.68
	c-3.22-4.64-2.64-10.86,0.99-10.63c0.73,0.04,2.06,0.43,2.99,2.34c0,0-0.1-1.53,0.89-1.29c0.77,0.19,2.21,0.88,1.81,1.63
	c-0.06-0.17-1.4-1.09-1.79-1.15c-0.32,0-0.33,1.66-0.14,1.21c0.12-0.3,0.47-0.79,0.81-0.54c0.31,0.25,1.94,1.37,1.09,2.24
	c0.07-0.81-0.88-1.61-1.17-1.78c-0.25-0.15-1.06,1.54-1.01,1.84c0.15,0.05,1.01-1.31,1.36-1.13C40.52,37.01,41.6,38.82,40.97,39.51z
	"/>
<path fill="#8CA8C2" d="M47.82,33.63c0.24,0.27,0.32,0.64,0.19,0.99h-0.36c0.15-0.46,0.06-0.89-0.59-0.95
	c-0.97-0.08-2.1,1.79-3.79,2.02c-0.5-0.59-0.47-1.71,0.16-2.25c-0.32-0.94-1.01-1.97-1.48-2.41c-0.31-0.05-0.67-0.08-0.9-0.06
	c0.25-0.53,0.95-1.09,1.52-1.32c0.09-0.13,0.19-0.26,0.29-0.38c0.06-0.73,3.54-0.39,4.29,0.07C47.13,30.15,47.46,32.89,47.82,33.63z
	"/>
<path fill="#D8A322" d="M42.48,29.74c1.78-0.77,3.89-0.77,5.67,0c0.14-0.24,0.29-0.48,0.43-0.72c-2.05-0.89-4.48-0.89-6.53,0
	C42.2,29.26,42.34,29.5,42.48,29.74z"/>
<linearGradient id="SVGID_1_" gradientUnits="userSpaceOnUse" x1="31.9981" y1="62" x2="31.9981" y2="2">
	<stop  offset="0" style="stop-color:#1A1A1A"/>
	<stop  offset="0.102" style="stop-color:#393939;stop-opacity:0.949"/>
	<stop  offset="0.3475" style="stop-color:#7F7F7F;stop-opacity:0.8262"/>
	<stop  offset="0.5688" style="stop-color:#B6B6B6;stop-opacity:0.7156"/>
	<stop  offset="0.7582" style="stop-color:#DEDEDE;stop-opacity:0.6209"/>
	<stop  offset="0.9081" style="stop-color:#F6F6F6;stop-opacity:0.5459"/>
	<stop  offset="1" style="stop-color:#FFFFFF;stop-opacity:0.5"/>
</linearGradient>
<circle opacity="0.1" fill="url(#SVGID_1_)" cx="32" cy="32" r="30"/>
</svg>
