<?xml version="1.0" encoding="utf-8"?>
<!-- Generator: Adobe Illustrator 21.0.0, SVG Export Plug-In . SVG Version: 6.00 Build 0)  -->
<svg version="1.1" id="Layer_1" xmlns="http://www.w3.org/2000/svg" xmlns:xlink="http://www.w3.org/1999/xlink" x="0px" y="0px"
	 width="64px" height="64px" viewBox="0 0 64 64" enable-background="new 0 0 64 64" xml:space="preserve">
<rect x="12" y="12" fill="#014D87" width="21" height="21"/>
<path fill="#399CB0" d="M32,2v30H2c0,16.57,13.43,30,30,30s30-13.43,30-30C62,15.43,48.57,2,32,2z"/>
<path fill="#F5F5F5" d="M32,2c-4.69,0-9.13,1.09-13.09,3.01v3.13V11H11v2.91V14v4.91H5.01C3.09,22.87,2,27.31,2,32h12V17l12,15h6
	v-7.5L23.6,14H32V2z"/>
<polygon fill="#E81C27" points="15.43,14 30,32 32,32 32,27.06 21.43,14 "/>
<path fill="#E81C27" d="M32,5H18.92C12.86,7.94,7.94,12.86,5,18.91V32h6V11h21V5z"/>
<polygon fill="#FFE12C" points="28.92,50.15 28.25,48.1 27.59,50.15 25.44,50.15 27.18,51.42 26.51,53.46 28.25,52.2 30,53.46 
	29.33,51.42 31.07,50.15 "/>
<polygon fill="#FFE12C" points="37.77,48.56 38.44,46.51 36.69,47.78 34.95,46.51 35.62,48.56 33.88,49.82 36.03,49.82 36.69,51.87 
	37.36,49.82 39.51,49.82 "/>
<polygon fill="#FFE12C" points="38.44,39.3 36.69,40.56 34.95,39.3 35.62,41.34 33.88,42.61 36.03,42.61 36.69,44.66 37.36,42.61 
	39.51,42.61 37.77,41.34 "/>
<polygon fill="#FFE12C" points="45.22,46.73 45.89,44.69 44.15,45.95 42.41,44.69 43.07,46.73 41.33,48 43.48,48 44.15,50.05 
	44.81,48 46.97,48 "/>
<polygon fill="#FFE12C" points="43.48,32.3 44.15,34.35 44.81,32.3 46.97,32.3 45.22,31.04 45.89,28.99 44.15,30.25 42.41,28.99 
	43.07,31.04 41.33,32.3 "/>
<polygon fill="#FFE12C" points="49.69,41.22 49.02,39.18 48.36,41.22 46.21,41.22 47.95,42.49 47.28,44.53 49.02,43.27 50.76,44.53 
	50.1,42.49 51.84,41.22 "/>
<polygon fill="#FFE12C" points="49.75,30.16 50.41,32.21 51.08,30.16 53.23,30.16 51.49,28.89 52.15,26.85 50.41,28.11 48.67,26.85 
	49.33,28.89 47.59,30.16 "/>
<polygon fill="#FFE12C" points="55.98,37.17 55.32,35.12 54.65,37.17 52.5,37.17 54.24,38.44 53.58,40.48 55.32,39.22 57.06,40.48 
	56.39,38.43 58.13,37.17 "/>
<polygon fill="#FFE12C" points="54.24,24.59 53.58,26.64 55.32,25.37 57.06,26.64 56.39,24.59 58.13,23.32 55.98,23.32 55.32,21.28 
	54.65,23.32 52.5,23.32 "/>
<linearGradient id="SVGID_1_" gradientUnits="userSpaceOnUse" x1="31.997" y1="62" x2="31.997" y2="2">
	<stop  offset="0" style="stop-color:#1A1A1A"/>
	<stop  offset="0.102" style="stop-color:#393939;stop-opacity:0.949"/>
	<stop  offset="0.3475" style="stop-color:#7F7F7F;stop-opacity:0.8262"/>
	<stop  offset="0.5688" style="stop-color:#B6B6B6;stop-opacity:0.7156"/>
	<stop  offset="0.7582" style="stop-color:#DEDEDE;stop-opacity:0.6209"/>
	<stop  offset="0.9081" style="stop-color:#F6F6F6;stop-opacity:0.5459"/>
	<stop  offset="1" style="stop-color:#FFFFFF;stop-opacity:0.5"/>
</linearGradient>
<circle opacity="0.1" fill="url(#SVGID_1_)" cx="32" cy="32" r="30"/>
</svg>
