<?xml version="1.0" encoding="utf-8"?>
<!-- Generator: Adobe Illustrator 21.0.0, SVG Export Plug-In . SVG Version: 6.00 Build 0)  -->
<svg version="1.1" id="Layer_1" xmlns="http://www.w3.org/2000/svg" xmlns:xlink="http://www.w3.org/1999/xlink" x="0px" y="0px"
	 width="64px" height="64px" viewBox="0 0 64 64" enable-background="new 0 0 64 64" xml:space="preserve">
<path fill="#F5F5F5" d="M17,58V6C8.04,11.19,2,20.89,2,32C2,43.11,8.04,52.81,17,58z"/>
<path fill="#529320" d="M32,2c-5.47,0-10.59,1.47-15,4.02v51.95C21.41,60.53,26.53,62,32,62c16.57,0,30-13.43,30-30
	C62,15.43,48.57,2,32,2z"/>
<path fill="#F5F5F5" d="M38,38.13c-6.07,0-11-4.82-11-10.77c0-2.85,1.14-5.44,2.99-7.36C25.84,22.13,23,26.37,23,31.28
	C23,38.3,28.82,44,36,44c7.18,0,13-5.7,13-12.72c0-0.69-0.07-1.36-0.18-2.02C47.91,34.29,43.41,38.13,38,38.13z"/>
<polygon fill="#F5F5F5" points="40,19.88 42.47,18 41.54,21.05 44,22.94 40.95,22.95 40,26 39.05,22.95 36,22.94 38.46,21.05 
	37.53,18 "/>
<linearGradient id="SVGID_1_" gradientUnits="userSpaceOnUse" x1="32" y1="62" x2="32" y2="2">
	<stop  offset="0" style="stop-color:#1A1A1A"/>
	<stop  offset="0.102" style="stop-color:#393939;stop-opacity:0.949"/>
	<stop  offset="0.3475" style="stop-color:#7F7F7F;stop-opacity:0.8262"/>
	<stop  offset="0.5688" style="stop-color:#B6B6B6;stop-opacity:0.7156"/>
	<stop  offset="0.7582" style="stop-color:#DEDEDE;stop-opacity:0.6209"/>
	<stop  offset="0.9081" style="stop-color:#F6F6F6;stop-opacity:0.5459"/>
	<stop  offset="1" style="stop-color:#FFFFFF;stop-opacity:0.5"/>
</linearGradient>
<circle opacity="0.1" fill="url(#SVGID_1_)" cx="32" cy="32" r="30"/>
</svg>
