<?xml version="1.0" encoding="utf-8"?>
<!-- Generator: Adobe Illustrator 19.0.0, SVG Export Plug-In . SVG Version: 6.00 Build 0)  -->
<svg version="1.1" id="Layer_1" xmlns="http://www.w3.org/2000/svg" xmlns:xlink="http://www.w3.org/1999/xlink" x="0px" y="0px"
	 width="64px" height="64px" viewBox="0 0 64 64" enable-background="new 0 0 64 64" xml:space="preserve">
<linearGradient id="SVGID_1_" gradientUnits="userSpaceOnUse" x1="32" y1="2" x2="32" y2="62">
	<stop  offset="0" style="stop-color:#00ABF1"/>
	<stop  offset="0.2292" style="stop-color:#00A7EF"/>
	<stop  offset="0.4667" style="stop-color:#009AE9"/>
	<stop  offset="0.7079" style="stop-color:#0086E0"/>
	<stop  offset="0.9504" style="stop-color:#0069D3"/>
	<stop  offset="1" style="stop-color:#0062D0"/>
</linearGradient>
<path fill="url(#SVGID_1_)" d="M62,54c0,4.4-3.6,8-8,8H10c-4.4,0-8-3.6-8-8V10c0-4.4,3.6-8,8-8h44c4.4,0,8,3.6,8,8V54z"/>
<g>
	<g>
		<path fill="#FFFFFF" d="M20.144,30.4c-1.783,0-3.306,0.053-4.144,0.105v-5.781c0.682,0.105,2.412,0.316,4.144,0.316h2.414v-3.154
			c0-1.313-0.157-2.889-0.21-3.572h5.928c-0.105,0.684-0.264,2.207-0.264,3.627v3.1h8.184v-3.363c0-1.42-0.104-2.943-0.21-3.678
			h6.086c-0.105,0.734-0.262,2.258-0.262,3.678v3.363h2.046c1.835,0,3.198-0.158,4.144-0.264v5.729
			c-0.734-0.053-2.309-0.105-4.144-0.105h-2.046v0.42c0,8.986-2.729,15.186-11.961,19.18l-4.356-4.361
			c6.978-2.365,10.702-5.727,10.702-14.607V30.4h-8.184v4.047c0,1.576,0.158,3.309,0.211,4.045h-5.875
			c0.104-0.736,0.21-2.469,0.21-4.045V30.4H20.144z"/>
	</g>
</g>
</svg>
