<?xml version="1.0" encoding="utf-8"?>
<!-- Generator: Adobe Illustrator 19.0.0, SVG Export Plug-In . SVG Version: 6.00 Build 0)  -->
<svg version="1.1" id="Layer_1" xmlns="http://www.w3.org/2000/svg" xmlns:xlink="http://www.w3.org/1999/xlink" x="0px" y="0px"
	 width="64px" height="64px" viewBox="0 0 64 64" enable-background="new 0 0 64 64" xml:space="preserve">
<linearGradient id="SVGID_1_" gradientUnits="userSpaceOnUse" x1="32" y1="2" x2="32" y2="62">
	<stop  offset="0" style="stop-color:#FF9900"/>
	<stop  offset="0.2875" style="stop-color:#FF9500"/>
	<stop  offset="0.5853" style="stop-color:#FF8800"/>
	<stop  offset="0.8868" style="stop-color:#FF7400"/>
	<stop  offset="1" style="stop-color:#FF6A00"/>
</linearGradient>
<path fill="url(#SVGID_1_)" d="M62,54c0,4.4-3.6,8-8,8H10c-4.4,0-8-3.6-8-8V10c0-4.4,3.6-8,8-8h44c4.4,0,8,3.6,8,8V54z"/>
<g>
	<g>
		<path fill="#FFFFFF" d="M47,20.584v20.295h-4.61v-1.644h-8.253v8.775H29.49v-8.775h-8.065v1.816H17V20.584h12.49V15.99h4.646
			v4.594H47z M21.425,24.492v3.461h8.065v-3.461H21.425z M29.49,35.326v-3.635h-8.065v3.635H29.49z M34.137,24.492v3.461h8.253
			v-3.461H34.137z M42.39,35.326v-3.635h-8.253v3.635H42.39z"/>
	</g>
</g>
</svg>
