<?xml version="1.0" encoding="utf-8"?>
<!-- Generator: Adobe Illustrator 19.0.0, SVG Export Plug-In . SVG Version: 6.00 Build 0)  -->
<svg version="1.1" id="Layer_1" xmlns="http://www.w3.org/2000/svg" xmlns:xlink="http://www.w3.org/1999/xlink" x="0px" y="0px"
	 width="64px" height="64px" viewBox="0 0 64 64" enable-background="new 0 0 64 64" xml:space="preserve">
<linearGradient id="SVGID_1_" gradientUnits="userSpaceOnUse" x1="32" y1="2" x2="32" y2="62">
	<stop  offset="0" style="stop-color:#00ABF1"/>
	<stop  offset="0.2292" style="stop-color:#00A7EF"/>
	<stop  offset="0.4667" style="stop-color:#009AE9"/>
	<stop  offset="0.7079" style="stop-color:#0086E0"/>
	<stop  offset="0.9504" style="stop-color:#0069D3"/>
	<stop  offset="1" style="stop-color:#0062D0"/>
</linearGradient>
<path fill="url(#SVGID_1_)" d="M62,54c0,4.4-3.6,8-8,8H10c-4.4,0-8-3.6-8-8V10c0-4.4,3.6-8,8-8h44c4.4,0,8,3.6,8,8V54z"/>
<path fill="#FFFFFF" d="M49,45.713V50H15.117v-4.287h14.443v-5.912H19.182v-4.248h26.527v4.248H34.285v5.912H49z"/>
<path fill="#FFFFFF" d="M30.141,21.859c-0.697,6.588-2.826,10.756-12.662,12.94c-0.387-1.111-1.549-3.016-2.478-3.971
	c8.441-1.508,9.797-4.285,10.416-8.969h-5.344v4.604h-4.529v-8.891h14.018V14h4.725v3.572h14.367v8.215h-4.764v-3.928h-5.461v6.271
	c0,1.07,0.232,1.231,1.434,1.231h3.445c0.969,0,1.162-0.397,1.316-2.899c0.854,0.674,2.75,1.35,3.951,1.627
	c-0.465,4.168-1.705,5.279-4.803,5.279h-4.607c-4.338,0-5.268-1.27-5.268-5.199v-6.311H30.141z"/>
</svg>
