<?xml version="1.0" encoding="utf-8"?>
<!-- Generator: Adobe Illustrator 19.0.0, SVG Export Plug-In . SVG Version: 6.00 Build 0)  -->
<svg version="1.1" id="Layer_1" xmlns="http://www.w3.org/2000/svg" xmlns:xlink="http://www.w3.org/1999/xlink" x="0px" y="0px"
	 width="64px" height="64px" viewBox="0 0 64 64" enable-background="new 0 0 64 64" xml:space="preserve">
<linearGradient id="SVGID_1_" gradientUnits="userSpaceOnUse" x1="32" y1="2" x2="32" y2="62">
	<stop  offset="0" style="stop-color:#FF9900"/>
	<stop  offset="0.2875" style="stop-color:#FF9500"/>
	<stop  offset="0.5853" style="stop-color:#FF8800"/>
	<stop  offset="0.8868" style="stop-color:#FF7400"/>
	<stop  offset="1" style="stop-color:#FF6A00"/>
</linearGradient>
<path fill="url(#SVGID_1_)" d="M2,32C2,15.436,15.439,2,32,2c16.572,0,30,13.436,30,30c0,16.57-13.428,30-30,30
	C15.439,62,2,48.57,2,32z"/>
<path fill="#FFFFFF" d="M48,18v4.857h-3.59v21.264c0,2.658-0.547,4.143-2.393,4.957C40.223,49.898,37.533,50,33.744,50
	c-0.201-1.482-1.047-3.73-1.744-5.113c2.592,0.156,5.432,0.156,6.23,0.104c0.797-0.049,1.096-0.256,1.096-0.971V22.857H16V18H48z"/>
<path fill="#FFFFFF" d="M19,26.5v17h4.639v-2.678H35V26.5H19z M30.057,36.393h-6.418v-5.461h6.418V36.393z"/>
</svg>
