<?xml version="1.0" encoding="utf-8"?>
<!-- Generator: Adobe Illustrator 15.0.0, SVG Export Plug-In . SVG Version: 6.00 Build 0)  -->
<!DOCTYPE svg PUBLIC "-//W3C//DTD SVG 1.1//EN" "http://www.w3.org/Graphics/SVG/1.1/DTD/svg11.dtd" [
	<!ENTITY ns_flows "http://ns.adobe.com/Flows/1.0/">
	<!ENTITY ns_extend "http://ns.adobe.com/Extensibility/1.0/">
	<!ENTITY ns_ai "http://ns.adobe.com/AdobeIllustrator/10.0/">
	<!ENTITY ns_graphs "http://ns.adobe.com/Graphs/1.0/">
]>
<svg version="1.1" id="Layer_1" xmlns:x="&ns_extend;" xmlns:i="&ns_ai;" xmlns:graph="&ns_graphs;"
	 xmlns="http://www.w3.org/2000/svg" xmlns:xlink="http://www.w3.org/1999/xlink" xmlns:a="http://ns.adobe.com/AdobeSVGViewerExtensions/3.0/"
	 x="0px" y="0px" width="64px" height="64px" viewBox="0 0 64 64" enable-background="new 0 0 64 64" xml:space="preserve">
<radialGradient id="SVGID_1_" cx="32.5" cy="62" r="106.4122" gradientTransform="matrix(1 0 0 0.6847 -4.882813e-004 19.5463)" gradientUnits="userSpaceOnUse">
	<stop  offset="0.1091" style="stop-color:#FFEA80"/>
	<stop  offset="0.3818" style="stop-color:#190BB0"/>
	<stop  offset="0.4046" style="stop-color:#180AA2"/>
	<stop  offset="0.4899" style="stop-color:#150674"/>
	<stop  offset="0.5717" style="stop-color:#120450"/>
	<stop  offset="0.6477" style="stop-color:#100236"/>
	<stop  offset="0.7159" style="stop-color:#0F0026"/>
	<stop  offset="0.7697" style="stop-color:#0F0021"/>
	<a:midPointStop  offset="0.1091" style="stop-color:#FFEA80"/>
	<a:midPointStop  offset="0.5" style="stop-color:#FFEA80"/>
	<a:midPointStop  offset="0.3818" style="stop-color:#190BB0"/>
	<a:midPointStop  offset="0.3431" style="stop-color:#190BB0"/>
	<a:midPointStop  offset="0.7697" style="stop-color:#0F0021"/>
</radialGradient>
<rect x="2" y="2" fill="url(#SVGID_1_)" width="59.999" height="60"/>
<linearGradient id="SVGID_2_" gradientUnits="userSpaceOnUse" x1="2" y1="62" x2="62.0002" y2="1.9998" gradientTransform="matrix(1 0 0 1 -4.882813e-004 0)">
	<stop  offset="0.2" style="stop-color:#FF00B7;stop-opacity:0"/>
	<stop  offset="0.47" style="stop-color:#57DCFF;stop-opacity:0.5"/>
	<stop  offset="0.52" style="stop-color:#57DCFF;stop-opacity:0.5"/>
	<stop  offset="0.8" style="stop-color:#FF00B7;stop-opacity:0"/>
	<a:midPointStop  offset="0.2" style="stop-color:#FF00B7;stop-opacity:0"/>
	<a:midPointStop  offset="0.5" style="stop-color:#FF00B7;stop-opacity:0"/>
	<a:midPointStop  offset="0.47" style="stop-color:#57DCFF;stop-opacity:0.5"/>
	<a:midPointStop  offset="0.5" style="stop-color:#57DCFF;stop-opacity:0.5"/>
	<a:midPointStop  offset="0.52" style="stop-color:#57DCFF;stop-opacity:0.5"/>
	<a:midPointStop  offset="0.5" style="stop-color:#57DCFF;stop-opacity:0.5"/>
	<a:midPointStop  offset="0.8" style="stop-color:#FF00B7;stop-opacity:0"/>
</linearGradient>
<rect x="2" y="2" fill="url(#SVGID_2_)" width="59.999" height="60"/>
<linearGradient id="SVGID_3_" gradientUnits="userSpaceOnUse" x1="233.4922" y1="56.4131" x2="256.4178" y2="56.4131" gradientTransform="matrix(0.7071 -0.7071 0.7071 0.7071 -181.5416 161.3828)">
	<stop  offset="0.2485" style="stop-color:#02005E;stop-opacity:0"/>
	<stop  offset="0.5" style="stop-color:#02005E"/>
	<stop  offset="1" style="stop-color:#02005E;stop-opacity:0"/>
	<a:midPointStop  offset="0.2485" style="stop-color:#02005E;stop-opacity:0"/>
	<a:midPointStop  offset="0.5976" style="stop-color:#02005E;stop-opacity:0"/>
	<a:midPointStop  offset="0.5" style="stop-color:#02005E"/>
	<a:midPointStop  offset="0.4699" style="stop-color:#02005E"/>
	<a:midPointStop  offset="1" style="stop-color:#02005E;stop-opacity:0"/>
</linearGradient>
<path opacity="0.35" fill="url(#SVGID_3_)" d="M44.025,30.757c-1.033-0.992-3.395,1.243-4.037-0.393
	c-1.197-3.044-2.834,1.588-4.457-1.592c-0.918-1.798-2.15,1.585-3.997-0.149c-1.028-0.966,4.288-3.221-0.975-2.636
	c-1.748,0.194-1.183-1.44-2.182-1.943c-1.221-0.614-1.041-3.475-2.271-2.315c-1.331,1.254-2.218-4.486-3.004-1.807
	c-0.869,2.963-2.587-1.242-3.591-0.866c-3.027,1.132,2.419-3.856-0.29-4.152c-2.104-0.229-2.274,0.096-3.118-1.063
	c-1.619-2.224-3.676,2.854-5.747,1.471c-0.919-0.614,0.813-2.652,1.372-3.853c0.891-1.908-2.624-1.979-2.722-3.633
	C8.789,4.094,2,2,2,2v1.854c0,0,4.235,1.779,3.995,3.533c-0.27,1.967,2.596,2.021,1.558,3.579c-1.96,2.94,0.438,2.084-0.363,3.9
	c-1.109,2.515,3.675,1.366,4.671,3.121c0.558,0.982,0.538,6.535,2.558,4.708c2.828-2.559,3.068,5.997,6.152,3.584
	c2.403-1.881-2.346,8.021,0.574,6.857c1.328-0.529,6.819-1.365,6.346,0.377c-1.754,6.454,2.396,1.046,4.759,0.928
	c4.142-0.207-3.236,8.104,1.078,5.744c1.369-0.749,3.594-4.416,4.479-3.732c3.277,2.532,3.098,5.255,2.939,6.551
	c-0.332,2.744,5.496-3.475,4.121-1.318c-1.607,2.519,1.578,1.572,0.277,3.532c-2.467,3.717,0.938,1.399,2.504,3.54
	c1.814,2.479,4.516-0.752,3.598,3.604C51.184,52.655,62,53.243,62,53.243v-5.237c-4.176,4.402-6.07,0.392-7.881-0.331
	c-3.084-1.231,0.5-2.326-2.709-3.557c-1.453-0.557,3.834-2.433,1.543-3.464c-3.908-1.759,0.357-2.525-3.01-3.766
	c-3.48-1.281,3.613-2.056,5.168-6.245C56.432,27.087,47.535,34.133,44.025,30.757z"/>
<path fill="#1A1626" d="M2,55.283c0,0,5.414-2.82,7.5-2.985c2.658-0.211,7.654,2.449,10.313,2.238
	c2.086-0.164,5.428-2.737,7.5-2.985c1.41-0.17,4.232,0.985,5.625,0.746c1.652-0.281,3.935-2.965,5.625-2.984
	c2.211-0.026,5.289,3.687,7.5,3.73c2.412,0.051,6.066-1.827,8.438-2.189c1.857-0.281,7.5,2.39,7.5,2.39V62H2V55.283z"/>
<path opacity="0.3" fill="#FFFFFF" d="M22.227,21.236c0.877,0,0.875-1.314-0.001-1.314C21.349,19.922,21.349,21.236,22.227,21.236z"
	/>
<path opacity="0.3" fill="#FFFFFF" d="M25.516,26.498c0.877,0,0.877-1.313,0-1.313C24.641,25.185,24.641,26.498,25.516,26.498z"/>
<path opacity="0.7" fill="#FFFFFF" d="M22.885,26.938c0.876,0,0.875-1.315-0.001-1.315S22.008,26.938,22.885,26.938z"/>
<path opacity="0.3" fill="#FFFFFF" d="M46.641,42.26c0.877,0,0.877-1.315,0-1.315S45.764,42.26,46.641,42.26z"/>
<path opacity="0.3" fill="#FFFFFF" d="M36.48,31.76c0.877,0,0.877-1.315,0-1.315S35.602,31.76,36.48,31.76z"/>
<path opacity="0.7" fill="#FFFFFF" d="M22.665,14.174c0.878,0,0.878-1.313,0-1.313C21.786,12.86,21.788,14.176,22.665,14.174z"/>
<path opacity="0.3" fill="#FFFFFF" d="M6.672,3.853c0.879,0,0.878-1.314,0-1.313C5.794,2.539,5.794,3.853,6.672,3.853z"/>
<path opacity="0.3" fill="#FFFFFF" d="M13.648,4.96c0.877,0,0.877-1.313,0-1.313C12.77,3.645,12.769,4.96,13.648,4.96z"/>
<path opacity="0.3" fill="#FFFFFF" d="M6.235,6.29c0.878,0,0.878-1.317,0-1.314C5.358,4.973,5.357,6.29,6.235,6.29z"/>
<path opacity="0.3" fill="#FFFFFF" d="M33.408,42.564c0.879,0,0.877-1.314,0-1.314C32.531,41.25,32.531,42.563,33.408,42.564z"/>
<path opacity="0.3" fill="#FFFFFF" d="M43.08,47.559c0.879,0.001,0.879-1.313,0-1.313C42.203,46.245,42.203,47.559,43.08,47.559z"/>
<path opacity="0.3" fill="#FFFFFF" d="M31.218,38.779c0.878,0,0.877-1.314,0-1.314C30.34,37.465,30.34,38.778,31.218,38.779z"/>
<path opacity="0.7" fill="#FFFFFF" d="M16.829,33.953c0.877-0.002,0.877-1.314-0.001-1.314
	C15.951,32.639,15.951,33.953,16.829,33.953z"/>
<path opacity="0.3" fill="#FFFFFF" d="M9.779,47.976c0.878,0,0.878-1.313,0-1.313C8.901,46.66,8.901,47.978,9.779,47.976z"/>
<path opacity="0.7" fill="#FFFFFF" d="M7.552,28.497c0.878-0.001,0.878-1.314,0-1.316C6.674,27.183,6.674,28.496,7.552,28.497z"/>
<path opacity="0.7" fill="#FFFFFF" d="M55.385,8.326c0.877,0,0.877-1.315,0.002-1.315C54.506,7.011,54.506,8.326,55.385,8.326z"/>
<path opacity="0.3" fill="#FFFFFF" d="M33.848,13.146c0.879,0,0.879-1.315,0.002-1.315C32.97,11.831,32.97,13.146,33.848,13.146z"/>
<path opacity="0.7" fill="#FFFFFF" d="M51.373,31.169c0.875,0.001,0.877-1.314,0-1.314C50.494,29.854,50.494,31.17,51.373,31.169z"
	/>
<path opacity="0.3" fill="#FFFFFF" d="M41.523,14.175c0.879,0,0.879-1.314,0-1.315C40.646,12.859,40.646,14.175,41.523,14.175z"/>
<path opacity="0.3" fill="#FFFFFF" d="M42.863,40.505c0.877,0.002,0.877-1.315,0-1.316C41.986,39.188,41.986,40.505,42.863,40.505z"
	/>
<path opacity="0.3" fill="#FFFFFF" d="M29.033,29.567c0.878-0.012,0.86-1.325-0.018-1.316
	C28.138,28.261,28.156,29.578,29.033,29.567z"/>
<path opacity="0.7" fill="#FFFFFF" d="M36.48,26.718c0.584-0.001,0.582-0.877,0-0.877C35.896,25.841,35.896,26.718,36.48,26.718z"/>
<path opacity="0.3" fill="#FFFFFF" d="M27.806,22.991c0.585-0.002,0.584-0.878,0-0.878C27.217,22.113,27.22,22.989,27.806,22.991z"
	/>
<path opacity="0.3" fill="#FFFFFF" d="M15.666,22.796c0.586-0.001,0.586-0.878,0-0.879C15.08,21.918,15.08,22.795,15.666,22.796z"/>
<path opacity="0.3" fill="#FFFFFF" d="M12.3,16.448c0.585,0,0.584-0.877-0.001-0.877C11.713,15.57,11.713,16.448,12.3,16.448z"/>
<path opacity="0.3" fill="#FFFFFF" d="M5.996,17.9c0.584,0,0.584-0.879,0-0.878C5.409,17.021,5.409,17.9,5.996,17.9z"/>
<path opacity="0.3" fill="#FFFFFF" d="M18.062,49.751c0.585,0,0.585-0.878-0.002-0.877C17.475,48.874,17.475,49.751,18.062,49.751z"
	/>
<path opacity="0.7" fill="#FFFFFF" d="M10.586,3.853c0.584,0,0.586-0.876-0.002-0.876C10,2.977,10,3.853,10.586,3.853z"/>
<path opacity="0.7" fill="#FFFFFF" d="M21.348,9.497c0.586-0.001,0.586-0.878,0-0.879C20.76,8.618,20.761,9.496,21.348,9.497z"/>
<path opacity="0.3" fill="#FFFFFF" d="M19.815,22.771c0.585,0,0.585-0.88,0.001-0.878C19.231,21.894,19.23,22.771,19.815,22.771z"/>
<path opacity="0.7" fill="#FFFFFF" d="M16.61,20.141c0.585,0,0.584-0.878,0-0.879C16.026,19.263,16.026,20.141,16.61,20.141z"/>
<path opacity="0.3" fill="#FFFFFF" d="M31.218,30.444c0.586,0.002,0.586-0.877,0-0.876C30.632,29.567,30.632,30.446,31.218,30.444z"
	/>
<path opacity="0.3" fill="#FFFFFF" d="M41.305,35.929c0.582,0,0.582-0.88,0-0.878C40.719,35.051,40.719,35.929,41.305,35.929z"/>
<path opacity="0.7" fill="#FFFFFF" d="M44.449,32.86c0.582-0.001,0.582-0.878,0-0.879C43.863,31.981,43.863,32.86,44.449,32.86z"/>
<path opacity="0.7" fill="#FFFFFF" d="M47.646,28.033c0.584-0.001,0.584-0.876,0-0.879C47.063,27.154,47.063,28.033,47.646,28.033z"
	/>
<path opacity="0.3" fill="#FFFFFF" d="M59.779,17.022c0.582,0,0.582-0.877-0.002-0.877S59.193,17.022,59.779,17.022z"/>
<path opacity="0.3" fill="#FFFFFF" d="M52.656,13.736c0.584,0.002,0.584-0.877,0-0.876C52.072,12.86,52.072,13.736,52.656,13.736z"
	/>
<path opacity="0.3" fill="#FFFFFF" d="M55.084,25.185c0.584-0.002,0.584-0.878,0-0.879C54.5,24.306,54.5,25.185,55.084,25.185z"/>
<path opacity="0.7" fill="#FFFFFF" d="M52.186,41.907c0.582,0,0.584-0.877,0-0.879C51.6,41.028,51.6,41.907,52.186,41.907z"/>
<path opacity="0.7" fill="#FFFFFF" d="M59.779,33.952c0.584-0.002,0.582-0.877,0-0.877C59.193,33.075,59.193,33.952,59.779,33.952z"
	/>
<path opacity="0.3" fill="#FFFFFF" d="M37.795,45.424c0.584-0.002,0.584-0.878,0-0.88C37.211,44.544,37.211,45.424,37.795,45.424z"
	/>
<path opacity="0.3" fill="#FFFFFF" d="M29.464,49.313c0.582,0,0.582-0.879,0-0.879C28.878,48.436,28.878,49.313,29.464,49.313z"/>
<path opacity="0.7" fill="#FFFFFF" d="M21.789,42.479c0.583,0,0.583-0.877,0-0.875C21.203,41.604,21.203,42.479,21.789,42.479z"/>
<path opacity="0.3" fill="#FFFFFF" d="M13.715,27.813c0.582,0,0.582-0.877-0.001-0.876C13.128,26.938,13.127,27.813,13.715,27.813z"
	/>
<path opacity="0.3" fill="#FFFFFF" d="M16.61,40.406c0.584-0.001,0.582-0.877,0-0.877C16.025,39.529,16.024,40.405,16.61,40.406z"/>
<path opacity="0.3" fill="#FFFFFF" d="M12.836,31.545c0.584,0,0.584-0.878,0-0.879C12.251,30.666,12.251,31.545,12.836,31.545z"/>
<path opacity="0.3" fill="#FFFFFF" d="M21.569,31.105c0.584-0.002,0.584-0.878,0-0.88C20.984,30.226,20.984,31.105,21.569,31.105z"
	/>
<path opacity="0.3" fill="#FFFFFF" d="M17.624,25.402c0.583-0.001,0.583-0.877,0-0.879C17.037,24.523,17.037,25.402,17.624,25.402z"
	/>
<path opacity="0.3" fill="#FFFFFF" d="M24.86,21.237c0.585,0,0.585-0.876,0-0.876C24.274,20.361,24.274,21.237,24.86,21.237z"/>
<path opacity="0.3" fill="#FFFFFF" d="M48.584,37.903c0.877,0,0.875-1.317,0-1.317C47.707,36.586,47.707,37.903,48.584,37.903z"/>
<path opacity="0.3" fill="#FFFFFF" d="M45.107,36.146c0.877,0,0.877-1.313,0-1.313S44.23,36.147,45.107,36.146z"/>
<path opacity="0.3" fill="#FFFFFF" d="M50.119,40.843c0.877,0,0.877-1.313,0-1.313C49.24,39.529,49.24,40.844,50.119,40.843z"/>
<path opacity="0.3" fill="#FFFFFF" d="M55.742,44.118c0.877,0,0.877-1.314,0-1.314C54.863,42.804,54.865,44.119,55.742,44.118z"/>
<path opacity="0.3" fill="#FFFFFF" d="M57.984,49.976c0.877,0,0.877-1.313,0-1.313C57.105,48.661,57.105,49.978,57.984,49.976z"/>
<path opacity="0.3" fill="#FFFFFF" d="M45.523,39.189c0.877,0,0.877-1.317,0-1.317C44.646,37.873,44.646,39.189,45.523,39.189z"/>
<path opacity="0.3" fill="#FFFFFF" d="M59.779,47.761c0.875,0,0.877-1.317,0-1.317S58.902,47.761,59.779,47.761z"/>
<path opacity="0.3" fill="#FFFFFF" d="M47.648,33.587c0.875,0,0.875-1.314,0-1.314C46.77,32.271,46.768,33.587,47.648,33.587z"/>
<path opacity="0.3" fill="#FFFFFF" d="M49.68,48.663c0.877,0,0.877-1.314,0-1.314S48.803,48.662,49.68,48.663z"/>
<path opacity="0.3" fill="#FFFFFF" d="M49.865,45.349c0.877,0,0.877-1.315,0-1.315S48.988,45.348,49.865,45.349z"/>
<path opacity="0.3" fill="#FFFFFF" d="M39.33,41.686c0.877,0,0.877-1.315,0-1.315S38.453,41.685,39.33,41.686z"/>
<path opacity="0.7" fill="#FFFFFF" d="M34.068,34.245c0.877,0,0.877-1.315,0-1.316C33.189,32.929,33.189,34.245,34.068,34.245z"/>
<path opacity="0.3" fill="#FFFFFF" d="M17.624,16.229c0.876,0,0.876-1.314,0-1.314C16.744,14.915,16.746,16.23,17.624,16.229z"/>
<path opacity="0.7" fill="#FFFFFF" d="M9.708,14.176c0.876,0,0.875-1.316,0-1.316C8.831,12.86,8.831,14.176,9.708,14.176z"/>
<path opacity="0.3" fill="#FFFFFF" d="M10.106,10.492c0.877,0,0.877-1.316,0-1.316C9.229,9.178,9.229,10.491,10.106,10.492z"/>
<path opacity="0.3" fill="#FFFFFF" d="M15.227,10.154c0.875,0,0.875-1.315,0-1.315C14.348,8.838,14.347,10.154,15.227,10.154z"/>
<path opacity="0.7" fill="#FFFFFF" d="M4.306,13.341c0.876,0,0.875-1.315-0.002-1.315C3.428,12.025,3.427,13.341,4.306,13.341z"/>
<path opacity="0.3" fill="#FFFFFF" d="M17.185,6.832c0.875,0,0.874-1.316-0.001-1.316C16.307,5.516,16.306,6.832,17.185,6.832z"/>
<path opacity="0.3" fill="#FFFFFF" d="M39.109,28.032c0.586,0,0.586-0.877,0-0.877S38.525,28.032,39.109,28.032z"/>
<path opacity="0.7" fill="#FFFFFF" d="M32.75,24.961c0.588,0,0.588-0.876,0-0.876C32.167,24.085,32.167,24.961,32.75,24.961z"/>
<path opacity="0.3" fill="#FFFFFF" d="M22.227,23.868c0.583-0.001,0.583-0.877,0-0.878C21.641,22.99,21.641,23.868,22.227,23.868z"
	/>
<path opacity="0.3" fill="#FFFFFF" d="M14.417,17.9c0.876,0.002,0.878-1.316,0-1.316C13.541,16.584,13.541,17.9,14.417,17.9z"/>
<path opacity="0.3" fill="#FFFFFF" d="M38.451,34.893c0.879-0.001,0.879-1.318,0-1.316C37.576,33.576,37.576,34.893,38.451,34.893z"
	/>
<path opacity="0.7" fill="#FFFFFF" d="M32.751,18.563c0.584,0.002,0.584-0.874,0-0.875C32.166,17.688,32.166,18.563,32.751,18.563z"
	/>
<path opacity="0.7" fill="#FFFFFF" d="M36.922,4.73c0.582,0.001,0.582-0.875,0-0.877C36.334,3.855,36.334,4.731,36.922,4.73z"/>
<path opacity="0.7" fill="#FFFFFF" d="M23.105,17.138c0.584,0,0.584-0.877,0-0.877C22.519,16.261,22.519,17.138,23.105,17.138z"/>
<path opacity="0.7" fill="#FFFFFF" d="M46.99,16.01c0.584,0,0.584-0.875,0-0.875C46.404,15.135,46.404,16.01,46.99,16.01z"/>
<path opacity="0.3" fill="#FFFFFF" d="M29.682,9.935c0.585,0,0.585-0.875,0-0.875C29.096,9.06,29.098,9.935,29.682,9.935z"/>
<path opacity="0.3" fill="#FFFFFF" d="M29.903,33.953c0.584-0.001,0.584-0.878,0-0.878C29.317,33.075,29.317,33.953,29.903,33.953z"
	/>
<path opacity="0.3" fill="#FFFFFF" d="M23.749,31.762c0.585-0.001,0.585-0.878,0-0.878C23.165,30.884,23.165,31.761,23.749,31.762z"
	/>
<path opacity="0.3" fill="#FFFFFF" d="M19.816,25.402c0.586,0,0.586-0.879,0-0.879C19.231,24.523,19.231,25.402,19.816,25.402z"/>
<path opacity="0.7" fill="#FFFFFF" d="M13.712,21.894c0.585,0,0.585-0.878,0.002-0.877C13.127,21.017,13.127,21.894,13.712,21.894z"
	/>
<path opacity="0.3" fill="#FFFFFF" d="M9.709,19.702c0.584-0.002,0.584-0.878,0-0.878C9.123,18.824,9.124,19.7,9.709,19.702z"/>
<path opacity="0.7" fill="#FFFFFF" d="M9.449,16.449c0.584-0.002,0.584-0.878,0-0.879C8.862,15.57,8.862,16.449,9.449,16.449z"/>
<path opacity="0.3" fill="#FFFFFF" d="M16.746,12.025c0.584-0.002,0.584-0.878,0-0.878C16.16,11.147,16.16,12.025,16.746,12.025z"/>
<path opacity="0.3" fill="#FFFFFF" d="M6.435,10.713c0.583,0,0.583-0.879,0-0.879C5.848,9.834,5.848,10.713,6.435,10.713z"/>
<path opacity="0.3" fill="#FFFFFF" d="M13.787,13.585c0.585,0.001,0.585-0.878,0-0.878S13.202,13.586,13.787,13.585z"/>
<path opacity="0.7" fill="#FFFFFF" d="M11.422,7.826c0.583-0.001,0.583-0.878,0-0.879C10.835,6.948,10.835,7.826,11.422,7.826z"/>
<path opacity="0.3" fill="#FFFFFF" d="M12.109,10.375c0.584,0.001,0.584-0.877,0-0.878C11.522,9.498,11.522,10.375,12.109,10.375z"
	/>
<path opacity="0.3" fill="#FFFFFF" d="M9.01,6.795c0.585,0.001,0.585-0.876,0-0.877C8.423,5.919,8.423,6.795,9.01,6.795z"/>
<path opacity="0.3" fill="#FFFFFF" d="M7.553,14.903c0.583,0,0.583-0.88,0-0.878C6.966,14.023,6.966,14.903,7.553,14.903z"/>
<path opacity="0.3" fill="#FFFFFF" d="M6.674,22.552c0.582,0,0.584-0.877,0-0.878C6.088,21.674,6.088,22.552,6.674,22.552z"/>
<path opacity="0.3" fill="#FFFFFF" d="M6.675,35.952c0.585,0.001,0.585-0.878,0-0.877C6.089,35.075,6.089,35.953,6.675,35.952z"/>
<path opacity="0.7" fill="#FFFFFF" d="M11.252,38.969c0.585,0,0.585-0.877,0.001-0.877C10.667,38.092,10.667,38.97,11.252,38.969z"
	/>
<path opacity="0.7" fill="#FFFFFF" d="M27.491,43.004c0.584,0,0.584-0.878,0-0.879C26.904,42.126,26.904,43.002,27.491,43.004z"/>
<path opacity="0.7" fill="#FFFFFF" d="M22.886,47.542c0.583,0,0.583-0.88,0-0.88C22.299,46.662,22.299,47.542,22.886,47.542z"/>
<path opacity="0.7" fill="#FFFFFF" d="M5.49,44.34c0.583-0.001,0.583-0.878,0-0.879C4.901,43.461,4.901,44.34,5.49,44.34z"/>
<path opacity="0.7" fill="#FFFFFF" d="M14.858,44.233c0.583-0.002,0.583-0.88,0-0.88C14.271,43.355,14.27,44.233,14.858,44.233z"/>
<path opacity="0.3" fill="#FFFFFF" d="M11.565,23.235c0.585-0.001,0.586-0.878,0-0.878C10.978,22.357,10.978,23.234,11.565,23.235z"
	/>
<path opacity="0.7" fill="#FFFFFF" d="M26.719,15.574c0.585,0,0.585-0.879,0-0.879C26.134,14.696,26.134,15.573,26.719,15.574z"/>
<path opacity="0.3" fill="#FFFFFF" d="M44.18,6.613c0.584-0.001,0.584-0.878,0-0.879C43.594,5.735,43.594,6.613,44.18,6.613z"/>
<path opacity="0.3" fill="#FFFFFF" d="M53.096,20.801c0.582,0,0.582-0.878,0-0.879C52.51,19.922,52.51,20.801,53.096,20.801z"/>
<path opacity="0.3" fill="#FFFFFF" d="M58.939,28.105c0.584,0,0.584-0.877-0.002-0.877C58.352,27.228,58.352,28.105,58.939,28.105z"
	/>
<path opacity="0.7" fill="#FFFFFF" d="M48.586,23.21c0.611-0.001,0.609-0.877,0-0.877C47.971,22.333,47.971,23.209,48.586,23.21z"/>
<path opacity="0.3" fill="#FFFFFF" d="M58.904,42.347c0.611,0,0.611-0.879,0-0.879C58.289,41.468,58.289,42.347,58.904,42.347z"/>
<path opacity="0.3" fill="#FFFFFF" d="M52.625,50.19c0.609,0,0.609-0.879,0-0.879C52.008,49.312,52.01,50.188,52.625,50.19z"/>
<path opacity="0.3" fill="#FFFFFF" d="M45.984,46.303c0.611-0.003,0.611-0.879,0-0.88C45.369,45.424,45.369,46.3,45.984,46.303z"/>
<path opacity="0.3" fill="#FFFFFF" d="M48.107,45.218c0.611,0,0.611-0.878,0-0.878C47.492,44.34,47.492,45.218,48.107,45.218z"/>
<path opacity="0.3" fill="#FFFFFF" d="M53.816,47.103c0.611,0,0.613-0.876,0-0.878C53.203,46.227,53.201,47.103,53.816,47.103z"/>
<path opacity="0.3" fill="#FFFFFF" d="M51.914,35.929c0.613-0.002,0.609-0.878,0-0.878C51.301,35.051,51.301,35.927,51.914,35.929z"
	/>
<path opacity="0.3" fill="#FFFFFF" d="M57.326,38.066c0.611,0.001,0.611-0.877,0-0.876C56.713,37.189,56.713,38.067,57.326,38.066z"
	/>
<path opacity="0.7" fill="#FFFFFF" d="M55.395,31.981c0.611,0,0.611-0.879,0-0.878C54.779,31.103,54.779,31.981,55.395,31.981z"/>
<path opacity="0.3" fill="#FFFFFF" d="M25.737,29.351c0.877,0,0.877-1.317,0-1.317C24.858,28.033,24.858,29.351,25.737,29.351z"/>
<path opacity="0.3" fill="#FFFFFF" d="M32.972,28.473c0.583,0,0.583-0.876-0.002-0.876C32.385,27.597,32.386,28.473,32.972,28.473z"
	/>
<path opacity="0.3" fill="#FFFFFF" d="M28.584,26.498c0.879,0,0.879-1.315,0-1.315C27.708,25.184,27.708,26.5,28.584,26.498z"/>
<path opacity="0.3" fill="#FFFFFF" d="M33.189,31.542c0.879,0,0.877-1.316,0-1.316C32.313,30.226,32.312,31.542,33.189,31.542z"/>
<path opacity="0.3" fill="#FFFFFF" d="M41.305,31.981c0.582-0.002,0.582-0.878,0-0.879C40.719,31.103,40.719,31.981,41.305,31.981z"
	/>
<path opacity="0.3" fill="#FFFFFF" d="M43.303,29.131c0.584,0,0.582-0.877,0-0.877C42.717,28.254,42.717,29.131,43.303,29.131z"/>
<path opacity="0.3" fill="#FFFFFF" d="M19.503,28.936c0.583,0.003,0.583-0.877,0-0.876C18.918,28.06,18.918,28.936,19.503,28.936z"
	/>
<path opacity="0.3" fill="#FFFFFF" d="M27.597,19.441c0.583-0.001,0.583-0.878,0-0.879C27.011,18.563,27.011,19.441,27.597,19.441z"
	/>
<path opacity="0.7" fill="#FFFFFF" d="M26.611,34.673c0.586-0.001,0.586-0.878,0-0.876C26.028,33.795,26.028,34.672,26.611,34.673z"
	/>
<path opacity="0.3" fill="#FFFFFF" d="M23.542,36.805c0.586,0.001,0.586-0.875,0-0.876C22.958,35.929,22.958,36.805,23.542,36.805z"
	/>
<path opacity="0.7" fill="#FFFFFF" d="M37.141,38.342c0.584,0,0.586-0.877,0-0.877S36.555,38.344,37.141,38.342z"/>
<path opacity="0.3" fill="#FFFFFF" d="M40.865,23.43c0.584,0,0.584-0.878,0-0.878C40.281,22.55,40.281,23.43,40.865,23.43z"/>
<path opacity="0.3" fill="#FFFFFF" d="M37.578,20.361c0.586,0,0.586-0.878,0.002-0.878C36.996,19.482,36.996,20.361,37.578,20.361z"
	/>
</svg>
