<?xml version="1.0" encoding="utf-8"?>
<!-- Generator: Adobe Illustrator 15.0.0, SVG Export Plug-In . SVG Version: 6.00 Build 0)  -->
<!DOCTYPE svg PUBLIC "-//W3C//DTD SVG 1.1//EN" "http://www.w3.org/Graphics/SVG/1.1/DTD/svg11.dtd" [
	<!ENTITY ns_flows "http://ns.adobe.com/Flows/1.0/">
	<!ENTITY ns_extend "http://ns.adobe.com/Extensibility/1.0/">
	<!ENTITY ns_ai "http://ns.adobe.com/AdobeIllustrator/10.0/">
	<!ENTITY ns_graphs "http://ns.adobe.com/Graphs/1.0/">
]>
<svg version="1.1" id="Layer_1" xmlns:x="&ns_extend;" xmlns:i="&ns_ai;" xmlns:graph="&ns_graphs;"
	 xmlns="http://www.w3.org/2000/svg" xmlns:xlink="http://www.w3.org/1999/xlink" xmlns:a="http://ns.adobe.com/AdobeSVGViewerExtensions/3.0/"
	 x="0px" y="0px" width="64px" height="64px" viewBox="0 0 64 64" enable-background="new 0 0 64 64" xml:space="preserve">
<radialGradient id="SVGID_1_" cx="32.125" cy="62" r="115.5464" gradientTransform="matrix(1 0 0 0.8135 0 11.5613)" gradientUnits="userSpaceOnUse">
	<stop  offset="0" style="stop-color:#DBEDB3"/>
	<stop  offset="0.4242" style="stop-color:#006DAE"/>
	<stop  offset="0.6909" style="stop-color:#011B36"/>
	<a:midPointStop  offset="0" style="stop-color:#DBEDB3"/>
	<a:midPointStop  offset="0.5" style="stop-color:#DBEDB3"/>
	<a:midPointStop  offset="0.4242" style="stop-color:#006DAE"/>
	<a:midPointStop  offset="0.5" style="stop-color:#006DAE"/>
	<a:midPointStop  offset="0.6909" style="stop-color:#011B36"/>
</radialGradient>
<rect x="2" y="2" fill="url(#SVGID_1_)" width="60" height="60"/>
<linearGradient id="SVGID_2_" gradientUnits="userSpaceOnUse" x1="45.8242" y1="44.1543" x2="45.8242" y2="21.3491">
	<stop  offset="0" style="stop-color:#014D8A"/>
	<stop  offset="1" style="stop-color:#012342"/>
	<a:midPointStop  offset="0" style="stop-color:#014D8A"/>
	<a:midPointStop  offset="0.5" style="stop-color:#014D8A"/>
	<a:midPointStop  offset="1" style="stop-color:#012342"/>
</linearGradient>
<rect x="42.157" y="21.349" fill="url(#SVGID_2_)" width="7.334" height="22.806"/>
<linearGradient id="SVGID_3_" gradientUnits="userSpaceOnUse" x1="51.4902" y1="44.1543" x2="51.4902" y2="21.3491">
	<stop  offset="0" style="stop-color:#013A69"/>
	<stop  offset="1" style="stop-color:#01172B"/>
	<a:midPointStop  offset="0" style="stop-color:#013A69"/>
	<a:midPointStop  offset="0.5" style="stop-color:#013A69"/>
	<a:midPointStop  offset="1" style="stop-color:#01172B"/>
</linearGradient>
<rect x="48.824" y="21.349" fill="url(#SVGID_3_)" width="5.333" height="22.806"/>
<rect x="36.205" y="32.86" fill="#013F73" width="6.498" height="1.401"/>
<rect x="40.93" y="32.86" fill="#012B4D" width="3.545" height="1.401"/>
<linearGradient id="SVGID_4_" gradientUnits="userSpaceOnUse" x1="38.5684" y1="60.5869" x2="38.5684" y2="33.9844">
	<stop  offset="0" style="stop-color:#014D8A"/>
	<stop  offset="1" style="stop-color:#012342"/>
	<a:midPointStop  offset="0" style="stop-color:#014D8A"/>
	<a:midPointStop  offset="0.5" style="stop-color:#014D8A"/>
	<a:midPointStop  offset="1" style="stop-color:#012342"/>
</linearGradient>
<rect x="34.434" y="33.984" fill="url(#SVGID_4_)" width="8.27" height="26.603"/>
<linearGradient id="SVGID_5_" gradientUnits="userSpaceOnUse" x1="44.1787" y1="60.5869" x2="44.1787" y2="33.9844">
	<stop  offset="0" style="stop-color:#013A69"/>
	<stop  offset="1" style="stop-color:#01172B"/>
	<a:midPointStop  offset="0" style="stop-color:#013A69"/>
	<a:midPointStop  offset="0.5" style="stop-color:#013A69"/>
	<a:midPointStop  offset="1" style="stop-color:#01172B"/>
</linearGradient>
<rect x="42.111" y="33.984" fill="url(#SVGID_5_)" width="4.135" height="26.603"/>
<rect x="12.234" y="16" fill="#012B4D" width="10" height="2"/>
<linearGradient id="SVGID_6_" gradientUnits="userSpaceOnUse" x1="10.2344" y1="26.5" x2="24.2344" y2="26.5">
	<stop  offset="0" style="stop-color:#014D8A"/>
	<stop  offset="0.5768" style="stop-color:#01335E"/>
	<stop  offset="1" style="stop-color:#012342"/>
	<a:midPointStop  offset="0" style="stop-color:#014D8A"/>
	<a:midPointStop  offset="0.4667" style="stop-color:#014D8A"/>
	<a:midPointStop  offset="1" style="stop-color:#012342"/>
</linearGradient>
<rect x="10.234" y="17" fill="url(#SVGID_6_)" width="14" height="19"/>
<linearGradient id="SVGID_7_" gradientUnits="userSpaceOnUse" x1="9.2344" y1="42" x2="25.2344" y2="42">
	<stop  offset="0" style="stop-color:#014D8A"/>
	<stop  offset="0.1279" style="stop-color:#01457D"/>
	<stop  offset="0.4894" style="stop-color:#01335D"/>
	<stop  offset="0.793" style="stop-color:#012749"/>
	<stop  offset="1" style="stop-color:#012342"/>
	<a:midPointStop  offset="0" style="stop-color:#014D8A"/>
	<a:midPointStop  offset="0.3758" style="stop-color:#014D8A"/>
	<a:midPointStop  offset="1" style="stop-color:#012342"/>
</linearGradient>
<rect x="9.234" y="32" fill="url(#SVGID_7_)" width="16" height="20"/>
<linearGradient id="SVGID_8_" gradientUnits="userSpaceOnUse" x1="8.2344" y1="53" x2="26.2344" y2="53">
	<stop  offset="0" style="stop-color:#014D8A"/>
	<stop  offset="1" style="stop-color:#012342"/>
	<a:midPointStop  offset="0" style="stop-color:#014D8A"/>
	<a:midPointStop  offset="0.5" style="stop-color:#014D8A"/>
	<a:midPointStop  offset="1" style="stop-color:#012342"/>
</linearGradient>
<rect x="8.234" y="45" fill="url(#SVGID_8_)" width="18" height="16"/>
<rect x="46.795" y="41.396" fill="#012B4D" width="10.643" height="2"/>
<rect x="55.158" y="41.396" fill="#011B30" width="2.561" height="2"/>
<linearGradient id="SVGID_9_" gradientUnits="userSpaceOnUse" x1="50.9766" y1="62" x2="50.9766" y2="43">
	<stop  offset="0" style="stop-color:#014D8A"/>
	<stop  offset="1" style="stop-color:#012342"/>
	<a:midPointStop  offset="0" style="stop-color:#014D8A"/>
	<a:midPointStop  offset="0.5" style="stop-color:#014D8A"/>
	<a:midPointStop  offset="1" style="stop-color:#012342"/>
</linearGradient>
<rect x="44.516" y="43" fill="url(#SVGID_9_)" width="12.922" height="19"/>
<linearGradient id="SVGID_10_" gradientUnits="userSpaceOnUse" x1="57.8379" y1="62" x2="57.8379" y2="43">
	<stop  offset="0" style="stop-color:#013A69"/>
	<stop  offset="1" style="stop-color:#01172B"/>
	<a:midPointStop  offset="0" style="stop-color:#013A69"/>
	<a:midPointStop  offset="0.5" style="stop-color:#013A69"/>
	<a:midPointStop  offset="1" style="stop-color:#01172B"/>
</linearGradient>
<rect x="55.678" y="43" fill="url(#SVGID_10_)" width="4.32" height="19"/>
<rect x="51.763" y="44.5" fill="#F9C802" width="2" height="1"/>
<rect x="38.454" y="36" fill="#F9C802" width="2" height="1"/>
<rect x="36.184" y="39.667" fill="#F9C802" width="2" height="1"/>
<rect x="39.454" y="47.092" fill="#F9C802" width="2" height="1"/>
<rect x="46.017" y="29.655" fill="#F9C802" width="2" height="1"/>
<rect x="43.179" y="24.905" fill="#F9C802" width="2" height="1"/>
<rect x="19.991" y="19.03" fill="#F9C802" width="2" height="1"/>
<rect x="15.391" y="28.655" fill="#F9C802" width="2" height="1"/>
<rect x="19.991" y="24.905" fill="#F9C802" width="2" height="1"/>
<rect x="12.149" y="22.474" fill="#F9C802" width="2" height="1"/>
<rect x="12.149" y="33.762" fill="#F9C802" width="2" height="1"/>
<rect x="18.626" y="37.168" fill="#F9C802" width="2" height="1"/>
<rect x="12.149" y="39.167" fill="#F9C802" width="2" height="1"/>
<rect x="15.897" y="42" fill="#F9C802" width="2" height="1"/>
<rect x="17.234" y="48.646" fill="#F9C802" width="2" height="1"/>
<rect x="14.391" y="54.959" fill="#F9C802" width="2" height="1"/>
<rect x="37.184" y="52.863" fill="#F9C802" width="2" height="1"/>
<rect x="49.824" y="46.785" fill="#F9C802" width="2" height="1"/>
<rect x="52.157" y="52.129" fill="#F9C802" width="2" height="1"/>
<rect x="46.246" y="55.625" fill="#F9C802" width="2" height="1"/>
<rect x="22.26" y="41.037" fill="#012B4D" width="8.809" height="1.372"/>
<rect x="30.334" y="41.037" fill="#011B30" width="4.404" height="1.372"/>
<linearGradient id="SVGID_11_" gradientUnits="userSpaceOnUse" x1="26.4297" y1="61.333" x2="26.4297" y2="42.1377">
	<stop  offset="0" style="stop-color:#014D8A"/>
	<stop  offset="1" style="stop-color:#012342"/>
	<a:midPointStop  offset="0" style="stop-color:#014D8A"/>
	<a:midPointStop  offset="0.5" style="stop-color:#014D8A"/>
	<a:midPointStop  offset="1" style="stop-color:#012342"/>
</linearGradient>
<rect x="20.791" y="42.138" fill="url(#SVGID_11_)" width="11.277" height="19.195"/>
<linearGradient id="SVGID_12_" gradientUnits="userSpaceOnUse" x1="33.6377" y1="61.333" x2="33.6377" y2="42.1377">
	<stop  offset="0" style="stop-color:#013A69"/>
	<stop  offset="1" style="stop-color:#01172B"/>
	<a:midPointStop  offset="0" style="stop-color:#013A69"/>
	<a:midPointStop  offset="0.5" style="stop-color:#013A69"/>
	<a:midPointStop  offset="1" style="stop-color:#01172B"/>
</linearGradient>
<rect x="31.068" y="42.138" fill="url(#SVGID_12_)" width="5.139" height="19.195"/>
<linearGradient id="SVGID_13_" gradientUnits="userSpaceOnUse" x1="7.7393" y1="61" x2="7.7393" y2="47.502">
	<stop  offset="0" style="stop-color:#014D8A"/>
	<stop  offset="1" style="stop-color:#012342"/>
	<a:midPointStop  offset="0" style="stop-color:#014D8A"/>
	<a:midPointStop  offset="0.5" style="stop-color:#014D8A"/>
	<a:midPointStop  offset="1" style="stop-color:#012342"/>
</linearGradient>
<rect x="4" y="47.502" fill="url(#SVGID_13_)" width="7.479" height="13.498"/>
<linearGradient id="SVGID_14_" gradientUnits="userSpaceOnUse" x1="11.1777" y1="61" x2="11.1777" y2="47.502">
	<stop  offset="0" style="stop-color:#013A69"/>
	<stop  offset="1" style="stop-color:#01172B"/>
	<a:midPointStop  offset="0" style="stop-color:#013A69"/>
	<a:midPointStop  offset="0.5" style="stop-color:#013A69"/>
	<a:midPointStop  offset="1" style="stop-color:#01172B"/>
</linearGradient>
<rect x="8.799" y="47.502" fill="url(#SVGID_14_)" width="4.758" height="13.498"/>
<path fill="#013A66" d="M49,59c-6,2.496-13,0-14,0c-3.182,0-6.176,2.159-8,2c-1.896-0.165-5.096-2-7-2c-0.828,0-2.969,1.352-5,1
	c-0.889-0.154-5.1-2-6-2c-1.375,0-7,2-7,2v2h60v-3c0,0-4.666-2-6-2C54.875,57,50.848,58.232,49,59z"/>
<rect x="22.554" y="43.654" fill="#F9C802" width="2" height="1"/>
<rect x="27.013" y="47.916" fill="#F9C802" width="2" height="1"/>
<rect x="5.739" y="54.459" fill="#F9C802" width="2" height="1"/>
<rect x="5.239" y="50.735" fill="#F9C802" width="2" height="1"/>
<rect x="23.554" y="53.625" fill="#F9C802" width="2" height="1"/>
<path opacity="0.7" fill="#87CCFF" d="M5.349,35.419c0.877,0,0.875-1.315,0-1.315C4.472,34.104,4.472,35.419,5.349,35.419z"/>
<path opacity="0.7" fill="#87CCFF" d="M39.227,14.021c0.879,0,0.879-1.313,0-1.313S38.35,14.023,39.227,14.021z"/>
<path opacity="0.7" fill="#87CCFF" d="M5.35,16.283c0.877-0.001,0.877-1.314,0-1.316C4.471,14.969,4.471,16.282,5.35,16.283z"/>
<path opacity="0.7" fill="#87CCFF" d="M46.295,8.069c0.877,0,0.877-1.315,0.002-1.315C45.416,6.754,45.416,8.069,46.295,8.069z"/>
<path opacity="0.7" fill="#87CCFF" d="M57.72,23.131c0.875,0.001,0.877-1.314,0-1.314C56.841,21.817,56.841,23.132,57.72,23.131z"/>
<path opacity="0.7" fill="#87CCFF" d="M35.549,26.741c0.584-0.001,0.582-0.877,0-0.877C34.965,25.864,34.965,26.741,35.549,26.741z"
	/>
<path opacity="0.7" fill="#87CCFF" d="M14.589,7.85c0.584,0,0.586-0.876-0.002-0.876C14.003,6.974,14.003,7.85,14.589,7.85z"/>
<path opacity="0.7" fill="#87CCFF" d="M58.848,33.976c0.584-0.002,0.582-0.877,0-0.877C58.262,33.099,58.262,33.976,58.848,33.976z"
	/>
<path opacity="0.7" fill="#87CCFF" d="M31.411,22.475c0.877,0,0.877-1.315,0-1.316C30.532,21.159,30.532,22.475,31.411,22.475z"/>
<path opacity="0.7" fill="#87CCFF" d="M7.939,7.631c0.875,0,0.875-1.315-0.002-1.315S7.061,7.631,7.939,7.631z"/>
<path opacity="0.7" fill="#87CCFF" d="M30.07,9.959c0.611-0.001,0.609-0.877,0-0.877C29.455,9.082,29.455,9.958,30.07,9.959z"/>
<path fill="#FFFFFF" d="M54.599,6.446c2.529,3.762-1.06,9.978-5.582,9.668C55.393,19.665,60.861,10.193,54.599,6.446z"/>
</svg>
