<?xml version="1.0" encoding="utf-8"?>
<!-- Generator: Adobe Illustrator 15.0.0, SVG Export Plug-In . SVG Version: 6.00 Build 0)  -->
<!DOCTYPE svg PUBLIC "-//W3C//DTD SVG 1.1//EN" "http://www.w3.org/Graphics/SVG/1.1/DTD/svg11.dtd" [
	<!ENTITY ns_flows "http://ns.adobe.com/Flows/1.0/">
	<!ENTITY ns_extend "http://ns.adobe.com/Extensibility/1.0/">
	<!ENTITY ns_ai "http://ns.adobe.com/AdobeIllustrator/10.0/">
	<!ENTITY ns_graphs "http://ns.adobe.com/Graphs/1.0/">
]>
<svg version="1.1" id="Layer_1" xmlns:x="&ns_extend;" xmlns:i="&ns_ai;" xmlns:graph="&ns_graphs;"
	 xmlns="http://www.w3.org/2000/svg" xmlns:xlink="http://www.w3.org/1999/xlink" xmlns:a="http://ns.adobe.com/AdobeSVGViewerExtensions/3.0/"
	 x="0px" y="0px" width="64px" height="64px" viewBox="0 0 64 64" enable-background="new 0 0 64 64" xml:space="preserve">
<path fill-rule="evenodd" clip-rule="evenodd" fill="#FFFB82" d="M37.375,50.54c1.479,1.216,3.095,2.317,4.844,3.278
	c4.066,2.234,8.425,3.468,12.781,3.813C50.415,60.402,45.029,62,39.266,62C22.551,62,9,48.568,9,32S22.551,2,39.266,2
	c0.779,0,1.55,0.039,2.315,0.096c-4.551,2.553-8.475,6.266-11.235,11.021c-1.625,2.798-2.729,5.745-3.339,8.738
	c-1.843,8.972,6.338,11.767,10.929,10.146c1.292-0.456,1.56,4.165-3.464,5.5c-1.375,0.365,1.007,1.779,1.896,2.423
	c0,0-0.499,1.643-2.335,2.621c0,0,5.706,1.381,2.233,4.023C34.695,47.762,36.478,49.801,37.375,50.54z"/>
<path fill="#FFE875" d="M25.004,23.64c-0.098,0.097-0.371,1.001-0.425,1.12c-0.232,0.524,0.821,1.299,1.205,1.524
	c-0.164,2.029,0.326,3.827-0.205,5.904c-0.381,0.246-2.38,1.44-1.943,2.082c0.383,0.563,0.367,1.13,0.936,1.528
	c-0.343,0.646,1.117,0.983-0.264,1.396c-0.81,0.242-0.746,1.116-1.39-0.226c-0.248-0.517-0.323-1.267-0.855-1.586
	c-0.641-0.385-1.205-0.472-1.181-1.311c0.018-0.591-0.119-1.09-0.747-1.283c-1.633-0.506-2.853,2.451-3.186,3.673
	c0,2.394,2.059,4.434,0.239,6.822c-1.968-1.733-3.063,3.587-0.331,2.536c-0.322,0.932-1.479,1.108-1.337,2.396
	c-1.417-1.113-3.005-2.693-3.378-4.413c-0.445-2.059-1.684-3.508-1.315-5.685c-0.037,0.287-0.458-2.301,0.315-1.203
	c1.753,2.605,2.649-2.658,3.169-3.702c0.702-1.412,1.114-2.879,1.208-4.452c1.376,0.331,1.399-1.604,1.581-2.516
	c0.3-1.506,0.438-1.273,1.967-1.299c1.6-0.025,2.421,0.188,1.929-1.431c-0.563-1.848-0.146-2.733,0.229-4.536
	c0.122-0.584,0.266-1.647-0.318-2.061c-0.237-0.169-1.642-0.81-1.691-0.096c0.105-1.484,2.835-3.699,3.827-2.222
	c0.888,1.32,2.616-0.084,3.552-0.506c0.421,1.011,1.052,1.887,2.089,2.342c0.009,0.004,0.016,0.004,0.024,0.008
	c-0.747,1.771-1.329,3.578-1.701,5.408c-0.019,0.089-0.029,0.173-0.045,0.261c-0.228,0.308-0.454,0.623-0.683,0.951
	C25.942,23.548,25.416,23.228,25.004,23.64z"/>
<path fill="#FFE875" d="M44.512,55.532c-2.034,1.546-7.579,2.657-9.309,1.079c-1.628-1.485-4.132-4.213-2.785-7.416
	c0.783-1.863,2.194-2.609,3.748-2.535c-1.375,1.203,0.333,3.159,1.209,3.88c1.479,1.216,3.095,2.317,4.844,3.278
	c0.896,0.493,1.812,0.921,2.734,1.318C44.829,55.266,44.689,55.396,44.512,55.532z"/>
<path fill="#FFE875" d="M26.691,45.084c0.9,0.644,2.287,1.827,1.545,3.222c-0.713,1.348-2.387,1.365-3.798,0.613
	c-0.687-0.366-2.547-0.475-2.615-1.111c-0.107-0.988-1.544-1.473-0.27-2.243C22.676,44.891,25.735,44.4,26.691,45.084z"/>
<path fill="#FFE875" d="M30.222,6.087c0.789-0.115,2.101-0.192,2.422,0.894c0.313,1.048-0.54,1.887-1.646,2.199
	c-0.539,0.152-1.552,1.019-1.908,0.724c-0.554-0.456-1.539,0.007-1.271-1.021C28.057,7.979,29.384,6.21,30.222,6.087z"/>
<radialGradient id="SVGID_1_" cx="906.792" cy="29.375" r="35.4844" gradientTransform="matrix(-1.0089 0 0 1 956.9215 0)" gradientUnits="userSpaceOnUse">
	<stop  offset="0.5091" style="stop-color:#FFFBD1;stop-opacity:0"/>
	<stop  offset="0.5821" style="stop-color:#F4ECC4;stop-opacity:0.1189"/>
	<stop  offset="0.7215" style="stop-color:#D9C6A1;stop-opacity:0.3461"/>
	<stop  offset="0.9113" style="stop-color:#AC896A;stop-opacity:0.6554"/>
	<stop  offset="1" style="stop-color:#966A4E;stop-opacity:0.8"/>
	<a:midPointStop  offset="0.5091" style="stop-color:#FFFBD1;stop-opacity:0"/>
	<a:midPointStop  offset="0.563" style="stop-color:#FFFBD1;stop-opacity:0"/>
	<a:midPointStop  offset="1" style="stop-color:#966A4E;stop-opacity:0.8"/>
</radialGradient>
<path opacity="0.5" fill-rule="evenodd" clip-rule="evenodd" fill="url(#SVGID_1_)" d="M37.375,50.54
	c1.479,1.216,3.095,2.317,4.844,3.278c4.066,2.234,8.425,3.468,12.781,3.813C50.415,60.402,45.029,62,39.266,62
	C22.551,62,9,48.568,9,32S22.551,2,39.266,2c0.779,0,1.55,0.039,2.315,0.096c-4.551,2.553-8.475,6.266-11.235,11.021
	c-1.625,2.798-2.729,5.745-3.339,8.738c-1.843,8.972,6.338,11.767,10.929,10.146c1.292-0.456,1.56,4.165-3.464,5.5
	c-1.375,0.365,1.007,1.779,1.896,2.423c0,0-0.499,1.643-2.335,2.621c0,0,5.706,1.381,2.233,4.023
	C34.695,47.762,36.478,49.801,37.375,50.54z"/>
<path fill="#A1722A" d="M22.679,42.556c4.686,1.292,7.58-0.19,9.87-2.044c0.548-0.443,2.431,0.271,3.819-0.588
	c0,0-0.389,1.826-2.119,2.68C29.377,45.004,23.709,44.499,22.679,42.556z"/>
<path fill="#C9984C" d="M26.744,48.496c3.934,0.246,8.656,1.039,8.914-0.523c-0.06-1.051,0.93-1.289,1.421-2.203
	c-1.626,1.164-4.347,0.475-5.149,1.039C29.597,48.449,26.744,48.496,26.744,48.496z"/>
<path fill="#C9984C" d="M34.088,38.012c0.019-0.688,3.285-0.555,4.335-3.535c-3.533,3.152-4.629-0.108-8.345,2.267
	c-1.766,1.128-2.757-0.522-2.712-0.19C28.04,41.346,32.291,36.805,34.088,38.012z"/>
<path fill="#45332C" d="M30.622,38.012c0.666-0.607,2.283-0.566,3.172-1.434C32.632,36.613,30.468,36.158,30.622,38.012z"/>
<path fill="#422F11" d="M21.699,31.002c0,4.333,5.045,4.333,5.045,0S21.699,26.669,21.699,31.002z"/>
<path fill="#BDA299" d="M24.474,29.891c0,1.001,1.514,1.001,1.514,0C25.987,28.892,24.474,28.892,24.474,29.891z"/>
</svg>
