<?xml version="1.0" encoding="utf-8"?>
<!-- Generator: Adobe Illustrator 15.0.0, SVG Export Plug-In . SVG Version: 6.00 Build 0)  -->
<!DOCTYPE svg PUBLIC "-//W3C//DTD SVG 1.1//EN" "http://www.w3.org/Graphics/SVG/1.1/DTD/svg11.dtd" [
	<!ENTITY ns_flows "http://ns.adobe.com/Flows/1.0/">
	<!ENTITY ns_extend "http://ns.adobe.com/Extensibility/1.0/">
	<!ENTITY ns_ai "http://ns.adobe.com/AdobeIllustrator/10.0/">
	<!ENTITY ns_graphs "http://ns.adobe.com/Graphs/1.0/">
]>
<svg version="1.1" id="Layer_1" xmlns:x="&ns_extend;" xmlns:i="&ns_ai;" xmlns:graph="&ns_graphs;"
	 xmlns="http://www.w3.org/2000/svg" xmlns:xlink="http://www.w3.org/1999/xlink" xmlns:a="http://ns.adobe.com/AdobeSVGViewerExtensions/3.0/"
	 x="0px" y="0px" width="64px" height="64px" viewBox="0 0 64 64" enable-background="new 0 0 64 64" xml:space="preserve">
<path fill="#FED0AC" d="M22.447,4.357c14.059,13.972,13.592,13.53,21.849,21.736c1.441,3.119-15.703,20.309-18.428,18.31
	c-6.528-6.487-10.677-10.63-21.529-21.417C-3.158,12.91,14.45-3.032,22.447,4.357z"/>
<path fill="#FFE1BD" d="M22.447,4.357c5.713,6.395,5.804,16.805-2.266,21.63C15.74,28.644,6.17,27.661,2.94,20.79
	C-2.257,9.731,15.466-3.454,22.447,4.357z M21.488,5.307C16.102-0.978,0.256,9.119,3.876,19.699
	c2.301,6.73,11.45,7.526,15.619,5.125C23.925,22.27,28.433,13.404,21.488,5.307z"/>
<path fill="#FFE1BD" d="M29.2,25.182c-14.907,2.853-17.326,1.958-17.326,1.958s4.41,1.531,17.535-0.728
	c0.883-0.153,5.479,3.828,8.392,6.761l0.973-1.082C36.078,28.906,31.397,24.762,29.2,25.182z"/>
<path fill="#EBBB96" d="M31.155,22.332c-1.208,1.033-1.411-4.234,0.05-3.707C33.299,19.376,32.347,21.314,31.155,22.332z"/>
<path fill="#EBBB96" d="M22.05,32.593c0.601,0.989-3.27,0.672-2.699-0.365C20.166,30.744,21.461,31.623,22.05,32.593z"/>
<path fill="#EBBB96" d="M30.507,14.466c0.389,0.642-2.122,0.436-1.75-0.237C29.286,13.265,30.125,13.838,30.507,14.466z"/>
<path fill="#594640" d="M6.517,23.583c-5.19-6.388,3.346-5.918,3.346-5.918L6.517,23.583z"/>
<path fill="#785647" d="M12.315,24.157c1.064-1.638-2.453-6.492-2.453-6.492s-4.338,4.696-3.346,5.918
	C7.334,24.585,11.513,25.389,12.315,24.157z"/>
<path fill="#785647" d="M9.085,6.156c5.995-5.959,6.181,2.538,6.181,2.538L9.085,6.156z"/>
<path fill="#594640" d="M8.954,11.962c1.721,0.839,6.312-3.269,6.312-3.269s-5.036-3.677-6.181-2.538
	C8.142,7.091,7.66,11.328,8.954,11.962z"/>
<path fill="#785647" d="M5.47,13.233c5.998-5.96,6.184,2.54,6.184,2.54L5.47,13.233z"/>
<path fill="#594640" d="M5.344,19.037c1.718,0.842,6.31-3.264,6.31-3.264s-5.038-3.679-6.184-2.54
	C4.528,14.169,4.046,18.404,5.344,19.037z"/>
<path fill="#594640" d="M12.323,8.276c6.745-6.704,6.95,2.858,6.95,2.858L12.323,8.276z"/>
<path fill="#785647" d="M12.177,14.807c1.938,0.947,7.097-3.673,7.097-3.673s-5.662-4.139-6.95-2.858
	C11.265,9.329,10.72,14.096,12.177,14.807z"/>
<path fill="#594640" d="M17.795,7.988c5.995-5.955,6.183,2.545,6.183,2.545L17.795,7.988z"/>
<path fill="#785647" d="M17.666,13.796c1.721,0.843,6.312-3.264,6.312-3.264s-5.036-3.683-6.183-2.545
	C16.854,8.926,16.371,13.162,17.666,13.796z"/>
<path fill="#594640" d="M13.211,14.875c6.745-6.704,6.952,2.859,6.952,2.859L13.211,14.875z"/>
<path fill="#785647" d="M13.065,21.407c1.938,0.947,7.098-3.673,7.098-3.673s-5.663-4.14-6.952-2.859
	C12.151,15.926,11.606,20.694,13.065,21.407z"/>
<path fill="#594640" d="M12.217,19.927c7.727-3.426,4.871,4.583,4.871,4.583L12.217,19.927z"/>
<path fill="#785647" d="M10.026,25.307c1.307,1.398,7.062-0.797,7.062-0.797s-3.393-5.237-4.871-4.583
	C11.003,20.466,9.043,24.251,10.026,25.307z"/>
<path fill="#785647" d="M18.913,11.287c5.996-5.96,6.182,2.541,6.182,2.541L18.913,11.287z"/>
<path fill="#594640" d="M18.784,17.093c1.719,0.84,6.311-3.266,6.311-3.266s-5.037-3.679-6.182-2.541
	C17.971,12.222,17.488,16.459,18.784,17.093z"/>
<path fill="#594640" d="M18.893,15.889c-5.745,5.71,2.45,5.888,2.45,5.888L18.893,15.889z"/>
<path fill="#785647" d="M24.98,15.806c0.81,1.641-3.147,6.011-3.147,6.011s-3.548-4.796-2.45-5.889
	C20.281,15.036,24.372,14.575,24.98,15.806z"/>
<path fill="#594640" d="M18.88,24.979c-9.439,0.124-2.791-6.638-2.791-6.638L18.88,24.979z"/>
<path fill="#785647" d="M23.615,20.55c-0.668-1.948-7.527-2.213-7.527-2.213s0.99,6.661,2.793,6.639
	C20.359,24.958,24.122,22.02,23.615,20.55z"/>
<path fill="#594640" d="M9.394,15.982c4.682-4.653,4.824,1.982,4.824,1.982L9.394,15.982z"/>
<path fill="#785647" d="M9.293,20.514c1.345,0.657,4.925-2.55,4.925-2.55s-3.93-2.873-4.824-1.982
	C8.658,16.713,8.28,20.019,9.293,20.514z"/>
<path fill="#F9C802" d="M13.526,16.345c0.534-1.141-2.971-4.774-4.251-4.061C8.662,13.707,12.438,16.918,13.526,16.345z"/>
<path fill="#F9C802" d="M25.159,18.898c0.533-1.14-2.969-4.773-4.25-4.062C20.294,16.262,24.07,19.473,25.159,18.898z"/>
<path fill="#F9C802" d="M21.766,12.65c1.229-0.263,2.206-5.296,0.896-5.891C21.154,7.133,20.681,12.125,21.766,12.65z"/>
<path fill="#F9C802" d="M8.543,24.382c1.231-0.264,2.204-5.298,0.897-5.894C7.934,18.866,7.459,23.857,8.543,24.382z"/>
<path fill="#F9C802" d="M17.947,25.561c1.227-0.265,2.203-5.296,0.897-5.893C17.335,20.042,16.86,25.034,17.947,25.561z"/>
<path fill="#F9C802" d="M9.069,25.38c0.914,0.828,5.563-1.451,5.308-2.865C13.22,21.53,8.887,24.187,9.069,25.38z"/>
<path fill="#F9C802" d="M20.245,12.619c-0.154,1.237,4.337,3.588,5.344,2.522C25.731,13.609,21.112,11.743,20.245,12.619z"/>
<path fill="#F9C802" d="M18.054,19.451c-0.156,1.239,4.337,3.591,5.341,2.525C23.54,20.441,18.921,18.577,18.054,19.451z"/>
<path fill="#F9C802" d="M9.923,5.749c-0.158,1.236,4.334,3.59,5.34,2.521C15.409,6.74,10.791,4.872,9.923,5.749z"/>
<path fill="#F9C802" d="M15.496,4.841c-0.158,1.24,4.334,3.59,5.338,2.524C20.982,5.834,16.361,3.965,15.496,4.841z"/>
<path fill="#F9C802" d="M10.695,17.85c-0.157,1.239,4.336,3.59,5.34,2.523C16.183,18.842,11.563,16.974,10.695,17.85z"/>
<path fill="#F9C802" d="M3.803,17.136c-0.804,0.976,1.625,5.4,3.04,5.034C7.798,20.939,4.996,16.855,3.803,17.136z"/>
<path fill="#F9C802" d="M18.396,10.343c-1.097,0.628-0.468,5.67,0.971,5.832C20.699,15.359,19.601,10.506,18.396,10.343z"/>
<path fill="#F9C802" d="M5.764,10.645c-1.098,0.63-0.468,5.672,0.972,5.834C8.065,15.664,6.97,10.808,5.764,10.645z"/>
<path fill="#F9C802" d="M17.239,10.133c-1.134-0.499-4.884,3.078-4.202,4.333C14.456,15.04,17.788,11.202,17.239,10.133z"/>
<path fill="#61344C" d="M14.129,21.206c-1.781-3.636-7.031,0.339-0.526,2.131C20.018,25.105,17.714,19.57,14.129,21.206z"/>
<path fill="#302C3B" d="M10.025,18.24c2.616,3.08,6.785-2.004,0-2.182C3.327,15.881,6.915,20.67,10.025,18.24z"/>
<path fill="#61344C" d="M8.916,12.571c3.199,2.48,6.279-3.305-0.441-2.124C1.842,11.61,6.344,15.561,8.916,12.571z"/>
<polygon fill="#F59E01" points="19.582,7.563 19.848,8.571 18.434,10.119 16.737,9.147 16.753,7.862 18.464,7.306 "/>
<polygon fill="#F59E01" points="18.181,18.956 18.481,20.093 16.89,21.841 14.971,20.747 14.99,19.293 16.92,18.667 "/>
<polygon fill="#F59E01" points="16.066,5.421 16.295,6.3 15.07,7.641 13.601,6.8 13.611,5.685 15.097,5.202 "/>
<polygon fill="#F59E01" points="12.593,9.577 13.485,11.263 12.118,12.689 10.922,12.351 10.872,10.529 11.428,9.188 "/>
<path fill="#77B516" d="M16.279,12.895c-3.405,1.181-2.745,4.665-1.378,6.538C16.295,21.345,18.653,12.08,16.279,12.895z"/>
<path fill="#77B516" d="M9.111,22.442c1.034,0.807,1.968-0.085,2.269-0.873C11.69,20.765,8.393,21.876,9.111,22.442z"/>
<path fill="#77B516" d="M12.03,7.518c-1.359-0.214-1.761,1.079-1.637,1.954C10.52,10.368,12.976,7.668,12.03,7.518z"/>
<path fill="#77B516" d="M7.939,7.806c-2.49,1.885-0.849,3.529,0.879,4.044C10.578,12.366,9.681,6.488,7.939,7.806z"/>
<path fill="#77B516" d="M9.94,14.296c-1.45,1.098-0.494,2.056,0.513,2.355C11.478,16.953,10.955,13.529,9.94,14.296z"/>
<path fill="#77B516" d="M20.031,13.437c-1.727,1.308-0.589,2.449,0.61,2.807C21.862,16.601,21.239,12.522,20.031,13.437z"/>
<path fill="#77B516" d="M20.128,5.174c-2.606,1.971-0.893,3.694,0.92,4.231C22.889,9.946,21.951,3.794,20.128,5.174z"/>
<path fill="#77B516" d="M24.25,20.14c0.759-2.896-2.163-2.657-4.215-1.694C17.938,19.428,23.715,22.163,24.25,20.14z"/>
<path fill="#77B516" d="M9.432,20.031c0.749-2.855-2.132-2.619-4.154-1.672C3.209,19.329,8.905,22.023,9.432,20.031z"/>
<path fill="#77B516" d="M24.268,11.352c0.35-1.329-0.991-1.219-1.932-0.778C21.374,11.026,24.023,12.28,24.268,11.352z"/>
<path fill="#77B516" d="M18.181,24.804c-1.434-2.422-4.014-1.249-5.236,0.169C11.693,26.419,19.188,26.5,18.181,24.804z"/>
<radialGradient id="SVGID_1_" cx="381.2197" cy="-98.394" r="13.5224" gradientTransform="matrix(0.6772 -0.6774 1.4701 1.4705 -75.4404 440.6736)" gradientUnits="userSpaceOnUse">
	<stop  offset="0" style="stop-color:#E7EDF0"/>
	<stop  offset="1" style="stop-color:#D0D6D9"/>
	<a:midPointStop  offset="0" style="stop-color:#E7EDF0"/>
	<a:midPointStop  offset="0.5333" style="stop-color:#E7EDF0"/>
	<a:midPointStop  offset="1" style="stop-color:#D0D6D9"/>
</radialGradient>
<path fill="url(#SVGID_1_)" d="M59.068,40.732c10.107,10.042-8.363,28.396-18.472,18.357C35.815,54.336,19.74,38.385,19.74,38.385
	l16.474-4.24l7.01-9.135C43.224,25.009,54.286,35.979,59.068,40.732z"/>
<path opacity="0.25" fill="#FFFFFF" d="M36.902,32.475c-0.57-0.553,0.522-1.687,1.103-1.148
	C55.716,48.139,54.591,49.307,36.902,32.475z"/>
<path opacity="0.25" fill="#FFFFFF" d="M40.525,49.379c-0.057,0.412-0.451,0.254-0.401-0.154c0.923-6.271,2.743-9.121,2.741-9.134
	C43.082,40.129,41.477,43.006,40.525,49.379z"/>
<path opacity="0.25" fill="#FFFFFF" d="M38.633,53.524c0.354,0.704-0.315,1.043-0.679,0.342
	C28.922,36.222,29.613,35.872,38.633,53.524z"/>
<path opacity="0.25" fill="#FFFFFF" d="M46.32,58.043c0.076,0.719-0.54,0.446-0.637-0.247c-0.607-10.372,0.42-15.823,0.492-15.869
	C46.446,41.867,45.762,47.213,46.32,58.043z"/>
<path opacity="0.25" fill="#FFFFFF" d="M56.678,53.164c0.196,0.624-0.249,1.119-0.473,0.481c-3.908-9.403-6.702-13.633-6.433-13.696
	C49.854,39.955,53.002,44.125,56.678,53.164z"/>
<path opacity="0.25" fill="#FFFFFF" d="M57.724,51.795c-0.057,0.476-0.546,0.549-0.497,0.065c0.669-7.484-0.363-11.183-0.111-11.168
	C57.111,40.707,58.397,44.43,57.724,51.795z"/>
<path fill="#E6EBEF" d="M19.173,37.748l-0.495,1.692l1.549-0.643l2.525,1.517l0.957-2.267l4.517,0.6l2.406-2.782l0.329,1.69
	l0.169-1.53l1.169,0.922l-0.428-1.33l4.124-0.328l0.287-0.723l1.085,0.725l0.525-2.49l1.656,0.306l-1.017-1.105l4.923-2.802
	l-1.648-0.834l1.554-0.4l-1.019-0.812l2.044,0.229l-1.116-1.173l1.493-1.714l-2.437-0.362c-3.023,1.347-3.398,4.204-5.739,7.428
	C32.671,36.955,26.143,33.113,19.173,37.748z"/>
<path fill="#302C3B" d="M19.984,16.788c-3.386-2.229-6.024,3.76,0.602,2.082C27.123,17.214,22.326,13.621,19.984,16.788z"/>
</svg>
