<?xml version="1.0" encoding="utf-8"?>
<!-- Generator: Adobe Illustrator 15.0.0, SVG Export Plug-In . SVG Version: 6.00 Build 0)  -->
<!DOCTYPE svg PUBLIC "-//W3C//DTD SVG 1.1//EN" "http://www.w3.org/Graphics/SVG/1.1/DTD/svg11.dtd" [
	<!ENTITY ns_flows "http://ns.adobe.com/Flows/1.0/">
	<!ENTITY ns_extend "http://ns.adobe.com/Extensibility/1.0/">
	<!ENTITY ns_ai "http://ns.adobe.com/AdobeIllustrator/10.0/">
	<!ENTITY ns_graphs "http://ns.adobe.com/Graphs/1.0/">
]>
<svg version="1.1" id="Layer_1" xmlns:x="&ns_extend;" xmlns:i="&ns_ai;" xmlns:graph="&ns_graphs;"
	 xmlns="http://www.w3.org/2000/svg" xmlns:xlink="http://www.w3.org/1999/xlink" xmlns:a="http://ns.adobe.com/AdobeSVGViewerExtensions/3.0/"
	 x="0px" y="0px" width="64px" height="64px" viewBox="0 0 64 64" enable-background="new 0 0 64 64" xml:space="preserve">
<linearGradient id="SVGID_1_" gradientUnits="userSpaceOnUse" x1="40.2344" y1="40.7881" x2="35.2256" y2="42.0683">
	<stop  offset="0" style="stop-color:#735628"/>
	<stop  offset="0.3925" style="stop-color:#8F6F40"/>
	<stop  offset="0.7419" style="stop-color:#A07F4F"/>
	<stop  offset="1" style="stop-color:#A68554"/>
	<a:midPointStop  offset="0" style="stop-color:#735628"/>
	<a:midPointStop  offset="0.3576" style="stop-color:#735628"/>
	<a:midPointStop  offset="1" style="stop-color:#A68554"/>
</linearGradient>
<path fill="url(#SVGID_1_)" d="M46.426,60.774c0,1.97-6.646,1.97-6.646,0c0-7.751-7.779-28.659-7.779-39.425
	c0-1.842,4.923-1.842,4.923,0C36.924,32.116,46.426,53.023,46.426,60.774z"/>
<path fill="#CFB092" d="M45.773,56.135c1.205,2.839-5.922,3.467-6.262,1.594C39.945,58.852,45.494,59.036,45.773,56.135z"/>
<path fill="#CFB092" d="M38.404,52.164c-0.301,3.153,6.637,1.794,6.201-0.492C44.51,53.646,39.213,54.755,38.404,52.164z"/>
<path fill="#CFB092" d="M35.877,42.139c-0.303,3.153,6.068,1.817,5.633-0.469C41.414,43.644,36.686,44.729,35.877,42.139z"/>
<path fill="#CFB092" d="M33.664,33.07c-0.303,3.153,5.688,2.146,5.254-0.14C38.82,34.904,34.473,35.661,33.664,33.07z"/>
<path fill="#CFB092" d="M43.084,46.656c1.203,2.839-5.371,3.168-5.711,1.295C37.807,49.074,42.803,49.558,43.084,46.656z"/>
<path fill="#CFB092" d="M40.047,36.904c1.205,2.839-4.848,3.099-5.188,1.226C35.293,39.253,39.768,39.806,40.047,36.904z"/>
<path fill="#CFB092" d="M37.619,27.419c1.203,2.839-4.876,3.036-5.216,1.163C32.836,29.706,37.338,30.321,37.619,27.419z"/>
<path fill="#92C932" d="M7,13.495c3.212-0.496,6.383,0.643,9.806,2.012c0.101-0.321,1.88-2.097,1.88-2.097s-0.94,2.078-1.05,2.43
	c0.806,0.326,1.629,0.656,2.468,0.977c0.105-0.314,1.815-2.091,1.815-2.091s-0.858,1.984-0.986,2.4
	c1.166,0.427,2.371,0.819,3.622,1.138c-0.018-0.068,1.741-2.151,1.741-2.151s-0.932,2.291-0.964,2.337
	c2.901,0.651,6.055,0.855,9.58,0.066C26.018,16.65,18.415,8.219,7,13.495z"/>
<path fill="#7AB51D" d="M23.757,11.807c0.022,0.087,0.15,1.688,0.15,1.688s-1.096-1.75-1.137-2.041
	c-0.006-0.035,0.002-0.065,0.004-0.099c-1.143-0.485-2.343-0.874-3.615-1.093c0.057,0.116,0.248,1.781,0.248,1.781
	s-1.165-1.678-1.282-1.92c-3.264-0.318-6.95,0.479-11.125,3.37c11.589-4.829,19.232,3.77,27.912,5.021
	C32.143,18.019,28.524,14.135,23.757,11.807z"/>
<path fill="#92C932" d="M12.773,36.047c1.69-2.762,4.521-4.471,7.689-6.202c-0.116-0.389,0.235-2.883,0.235-2.883
	s0.479,2.204,0.551,2.455c0.843-0.456,1.705-0.92,2.57-1.41c-0.099-0.509,0.324-3.235,0.324-3.235s0.437,2.409,0.495,2.763
	c0.54-0.317,1.08-0.653,1.619-1.001c0.029-0.562,0.496-3.383,0.496-3.383s0.397,2.423,0.395,2.787
	c2.838-1.963,5.525-4.488,7.531-8.298C27.504,23.33,16.306,23.744,12.773,36.047z"/>
<path fill="#7AB51D" d="M23.761,21.379c0.187,0.152,1.486,1.203,1.486,1.203s-2.163-0.652-2.521-0.781
	c-1.514,0.66-2.995,1.496-4.337,2.621c0.169,0.122,1.462,1.104,1.462,1.104s-1.89-0.327-2.15-0.49
	c-2.449,2.332-4.336,5.757-4.928,11.011C16.748,23.899,28.098,23.565,34.68,17.64C32.706,19.301,28.196,19.681,23.761,21.379z"/>
<path fill="#92C932" d="M48.293,11.969c0.188,0.308,1.344,2.598,1.344,2.598s-2.033-2.14-2.338-2.428
	c-0.012-0.011-0.014-0.023-0.023-0.034c-0.875,0.119-1.766,0.251-2.66,0.424c0.242,0.428,1.549,2.948,1.549,2.948
	s-2.17-2.332-2.471-2.754c-0.707,0.162-1.414,0.357-2.115,0.602c0.172,0.255,1.521,2.603,1.521,2.603s-2.156-1.991-2.383-2.275
	c-2.205,0.908-4.33,2.354-6.193,4.827C41.838,15.63,51.984,20.166,57,8.689C54.889,11.064,51.744,11.512,48.293,11.969z"/>
<path fill="#7AB51D" d="M34.523,18.479c2.025-0.885,6.146,0.726,10.395,0.896c0.025-0.431,0.842-2.397,0.842-2.397
	s0.066,2.057,0.045,2.41c1.271-0.015,2.541-0.191,3.76-0.617c0.113-0.488,0.975-2.589,0.975-2.589s0.086,1.903,0.025,2.175
	c2.703-1.315,5.057-4.118,6.436-9.668C51.607,19.804,41.336,15.119,34.523,18.479z"/>
<path fill="#92C932" d="M31.813,21.053c2.941-1.851,4.486-4.241,5.458-6.741c-0.316-0.055-2.25-1.104-2.25-1.104
	s2.225,0.177,2.566,0.239c0.328-0.975,0.588-1.959,0.822-2.929c-0.418-0.163-2.338-1.36-2.338-1.36s2.209,0.347,2.549,0.479
	c0.193-0.829,0.379-1.64,0.59-2.417c-0.189-0.055-1.885-1.066-1.885-1.066s1.943,0.136,2.137,0.192
	c0.578-1.861,1.377-3.479,2.871-4.598C32.01,5.179,34.947,14.74,31.813,21.053z"/>
<path fill="#7AB51D" d="M34.158,5.602c0.145,0.028,1.316,0.769,1.316,0.769s-1.648,0.084-1.934,0.076
	c-0.808,1.275-1.226,2.697-1.416,4.152c0.127-0.014,1.531,0.465,1.531,0.465s-1.468,0.437-1.625,0.451
	c-0.279,3.872,0.738,7.784-0.219,9.538c3.527-5.814,0.473-15.501,10.521-19.305C38.189,2.356,35.672,3.779,34.158,5.602z"/>
<path fill="#92C932" d="M30.309,29.351c0,0,1.74,1.931,2.023,2.343c0.539-1.225,1.058-2.491,1.5-3.818
	c-0.385-0.415-1.523-2.847-1.523-2.847s1.605,1.62,1.832,1.867c0.865-2.943,1.281-6.188,0.582-9.918
	c-2.123,8.475-10.587,15.319-5.849,26.647c-0.268-2.243,0.285-4.418,1.152-6.658c-0.188-0.288-1.146-2.588-1.146-2.588
	s1.432,1.427,1.549,1.598c0.457-1.09,0.973-2.203,1.488-3.348C31.508,32.062,30.309,29.351,30.309,29.351z"/>
<path fill="#7AB51D" d="M34.723,16.978c-0.563,2.564-4.265,5.708-6.707,9.974c0.227-0.014,2.016-0.401,2.016-0.401
	s-2.123,1.307-2.518,1.336c-0.697,1.381-1.235,2.878-1.491,4.5c0.239-0.069,2.057-0.559,2.057-0.559s-1.819,1.422-2.174,1.53
	c-0.247,2.975,0.485,6.364,2.967,10.268C24.576,32.154,33.203,25.283,34.723,16.978z"/>
<path fill="#92C932" d="M32.864,17.509c-5.023,0.115-2.086,2.934,2.779,7.049c0.211-0.447,1.279-2.944,1.279-2.944
	s-0.389,3.105-0.58,3.534c1.051,0.883,2.172,1.82,3.311,2.799c0.246-0.367,1.045-2.861,1.045-2.861s-0.051,2.976-0.367,3.446
	c3.332,2.896,6.713,6.115,8.799,9.347C42.523,21.939,35.867,17.583,32.864,17.509z"/>
<path fill="#7AB51D" d="M46.525,28.235c-0.424-0.03-2.717-0.988-2.717-0.988s2.01,0.036,2.293,0.054
	c-0.594-1.283-1.23-2.452-1.902-3.48l-2.947-0.925l2.324,0.015c-0.838-1.162-1.709-2.145-2.58-2.958l-3.383-0.925l2.334,0.015
	c-3.232-2.55-6.229-2.819-7.083-1.532c3.263,0.24,9.841,6.798,16.265,20.37C48.572,34.097,47.652,30.905,46.525,28.235z"/>
</svg>
