<?xml version="1.0" encoding="utf-8"?>
<!-- Generator: Adobe Illustrator 15.0.0, SVG Export Plug-In . SVG Version: 6.00 Build 0)  -->
<!DOCTYPE svg PUBLIC "-//W3C//DTD SVG 1.1//EN" "http://www.w3.org/Graphics/SVG/1.1/DTD/svg11.dtd" [
	<!ENTITY ns_flows "http://ns.adobe.com/Flows/1.0/">
	<!ENTITY ns_extend "http://ns.adobe.com/Extensibility/1.0/">
	<!ENTITY ns_ai "http://ns.adobe.com/AdobeIllustrator/10.0/">
	<!ENTITY ns_graphs "http://ns.adobe.com/Graphs/1.0/">
]>
<svg version="1.1" id="Layer_1" xmlns:x="&ns_extend;" xmlns:i="&ns_ai;" xmlns:graph="&ns_graphs;"
	 xmlns="http://www.w3.org/2000/svg" xmlns:xlink="http://www.w3.org/1999/xlink" xmlns:a="http://ns.adobe.com/AdobeSVGViewerExtensions/3.0/"
	 x="0px" y="0px" width="64px" height="64px" viewBox="0 0 64 64" enable-background="new 0 0 64 64" xml:space="preserve">
<radialGradient id="SVGID_1_" cx="-67.6611" cy="-53.7139" r="12.8157" gradientTransform="matrix(-0.9653 0 0 -1.1288 -44.0216 -40.8404)" gradientUnits="userSpaceOnUse">
	<stop  offset="0.4545" style="stop-color:#6CA82E"/>
	<stop  offset="0.5165" style="stop-color:#73AE2F"/>
	<stop  offset="0.7683" style="stop-color:#8AC231"/>
	<stop  offset="0.9273" style="stop-color:#92C932"/>
	<a:midPointStop  offset="0.4545" style="stop-color:#6CA82E"/>
	<a:midPointStop  offset="0.5" style="stop-color:#6CA82E"/>
	<a:midPointStop  offset="0.5165" style="stop-color:#73AE2F"/>
	<a:midPointStop  offset="0.5" style="stop-color:#73AE2F"/>
	<a:midPointStop  offset="0.7683" style="stop-color:#8AC231"/>
	<a:midPointStop  offset="0.5" style="stop-color:#8AC231"/>
	<a:midPointStop  offset="0.9273" style="stop-color:#92C932"/>
</radialGradient>
<path fill="url(#SVGID_1_)" d="M23.697,25.253c-5.44,0-7.592,0.402-6.703-8.664c0.695-7.092-7.313-7.719-7.936-0.619
	C7.717,31.24,12.695,35.706,23.993,34.099C26.13,33.796,25.768,25.253,23.697,25.253z"/>
<path fill="#6B9E19" d="M10.559,13.648c-3.836-0.021-3.509-0.986-0.48,1.396C10.322,15.234,10.867,13.65,10.559,13.648z"/>
<path fill="#6B9E19" d="M9.725,21.197c-3.632,1.249-3.635,0.229,0,1.478C10.016,22.773,10.016,21.097,9.725,21.197z"/>
<path fill="#6B9E19" d="M11.264,29.341c-2.281,3.111-2.857,2.274,0.834,1.215C12.393,30.47,11.447,29.091,11.264,29.341z"/>
<path fill="#6B9E19" d="M17.576,33.349c-0.7,3.806-1.583,3.308,1.275,0.724C19.082,33.865,17.632,33.044,17.576,33.349z"/>
<path fill="#618F16" d="M15.914,17.222c3.631,1.248,3.633,0.229,0,1.477C15.621,18.798,15.621,17.122,15.914,17.222z"/>
<path fill="#618F16" d="M17.208,25.065c3.442-1.708,2.729-2.43,1.035,1.044C18.105,26.388,16.932,25.203,17.208,25.065z"/>
<path fill="#77AB2D" d="M14.408,18.104c0.378-4.544-0.801-6.184-0.801-6.184s1.91,0.752,1.604,6
	c-0.184,3.112-1.173,10.567,8.072,9.373C13.916,29.825,14.134,21.421,14.408,18.104z"/>
<path fill="#87BA2E" d="M11.327,20.687c-0.492-7.126,1.108-8.571,1.108-8.571s-1.047,1.445-0.306,8.71
	c0.313,3.104,0.87,11.275,10.945,9.934C12.723,33.485,11.557,24.005,11.327,20.687z"/>
<linearGradient id="SVGID_2_" gradientUnits="userSpaceOnUse" x1="23.0957" y1="32.2197" x2="36.9043" y2="32.2197">
	<stop  offset="0" style="stop-color:#92C932"/>
	<stop  offset="0.2367" style="stop-color:#8DC531"/>
	<stop  offset="0.5232" style="stop-color:#7EB830"/>
	<stop  offset="0.7636" style="stop-color:#6CA82E"/>
	<a:midPointStop  offset="0" style="stop-color:#92C932"/>
	<a:midPointStop  offset="0.6667" style="stop-color:#92C932"/>
	<a:midPointStop  offset="0.7636" style="stop-color:#6CA82E"/>
</linearGradient>
<path fill="url(#SVGID_2_)" d="M36.904,59.362c0-8.964,0-49.128,0-49.128c0-10.393-13.809-10.393-13.809,0c0,0,0,40.881,0,49.128
	C23.096,62.879,36.904,62.879,36.904,59.362z"/>
<path fill="#87BA2E" d="M26.249,9.526c0-2.78,0.921-4.841,2.281-6.188c-1.867,1.213-3.23,3.45-3.23,6.714v51.305l0.949,0.262V9.526z
	"/>
<path fill="#77AB2D" d="M30.326,9.526c0-2.78-0.326-6.552-0.326-6.552s-0.623,3.813-0.623,7.077V62h0.949V9.526z"/>
<path fill="#649C2A" d="M33.75,9.526c0-2.78-0.921-4.841-2.282-6.188c1.869,1.213,3.231,3.45,3.231,6.714v51.305l-0.949,0.262V9.526
	z"/>
<path fill="#6B9E19" d="M23.66,11.961c-2.557,0.895-2.559,0.164,0,1.059C23.865,13.091,23.865,11.89,23.66,11.961z"/>
<path fill="#6B9E19" d="M23.66,17.32c-2.557,0.896-2.559,0.165,0,1.06C23.865,18.451,23.865,17.249,23.66,17.32z"/>
<path fill="#6B9E19" d="M26.496,7.667c-2.691-0.212-2.413-0.884-0.406,0.974C26.251,8.789,26.711,7.685,26.496,7.667z"/>
<path fill="#6B9E19" d="M27.164,3.291c-2.2-1.609-1.624-2.038-0.836,0.618C26.391,4.122,27.339,3.42,27.164,3.291z"/>
<path fill="#6B9E19" d="M26.594,34.282c-2.556,0.896-2.559,0.164,0,1.06C26.799,35.413,26.799,34.211,26.594,34.282z"/>
<path fill="#6B9E19" d="M23.66,40.626c-2.557,0.896-2.559,0.164,0,1.059C23.865,41.756,23.865,40.555,23.66,40.626z"/>
<path fill="#6B9E19" d="M23.66,48.36c-2.557,0.896-2.559,0.164,0,1.059C23.865,49.49,23.865,48.288,23.66,48.36z"/>
<path fill="#6B9E19" d="M28.011,45.539c-2.555,0.896-2.557,0.164,0,1.06C28.216,46.67,28.216,45.468,28.011,45.539z"/>
<path fill="#618F16" d="M36.302,14.793c2.555,0.895,2.556,0.163,0,1.059C36.096,15.923,36.096,14.722,36.302,14.793z"/>
<path fill="#618F16" d="M36.302,21.669c2.555,0.896,2.556,0.164,0,1.059C36.096,22.799,36.096,21.598,36.302,21.669z"/>
<path fill="#618F16" d="M32.762,31.227c2.556,0.896,2.557,0.165,0,1.06C32.557,32.357,32.557,31.155,32.762,31.227z"/>
<path fill="#618F16" d="M32.545,18.164c2.558,0.896,2.559,0.165,0,1.059C32.341,19.294,32.341,18.093,32.545,18.164z"/>
<path fill="#618F16" d="M34.057,10.847c2.556,0.896,2.557,0.165,0,1.059C33.851,11.978,33.851,10.775,34.057,10.847z"/>
<path fill="#618F16" d="M33.383,3.671c2.424-1.225,1.921-1.743,0.729,0.749C34.015,4.619,33.188,3.769,33.383,3.671z"/>
<path fill="#618F16" d="M36.302,28.546c2.555,0.896,2.556,0.164,0,1.059C36.096,29.676,36.096,28.475,36.302,28.546z"/>
<path fill="#618F16" d="M33.609,53.386c2.556,0.896,2.556,0.165,0,1.06C33.404,54.517,33.404,53.314,33.609,53.386z"/>
<path fill="#618F16" d="M32.202,46.88c2.556,0.896,2.556,0.165,0,1.06C31.997,48.011,31.997,46.809,32.202,46.88z"/>
<radialGradient id="SVGID_3_" cx="99.084" cy="-63.4956" r="16.5131" gradientTransform="matrix(0.9653 0 0 -1.1288 -55.8188 -42.6939)" gradientUnits="userSpaceOnUse">
	<stop  offset="0.497" style="stop-color:#92C932"/>
	<stop  offset="0.6661" style="stop-color:#8AC231"/>
	<stop  offset="0.9341" style="stop-color:#73AE2F"/>
	<stop  offset="1" style="stop-color:#6CA82E"/>
	<a:midPointStop  offset="0.497" style="stop-color:#92C932"/>
	<a:midPointStop  offset="0.5" style="stop-color:#92C932"/>
	<a:midPointStop  offset="0.6661" style="stop-color:#8AC231"/>
	<a:midPointStop  offset="0.5" style="stop-color:#8AC231"/>
	<a:midPointStop  offset="0.9341" style="stop-color:#73AE2F"/>
	<a:midPointStop  offset="0.5" style="stop-color:#73AE2F"/>
	<a:midPointStop  offset="1" style="stop-color:#6CA82E"/>
</radialGradient>
<path fill="url(#SVGID_3_)" d="M36.729,36.013c7.01,0,9.781,0.521,8.638-11.161c-0.897-9.138,9.424-9.945,10.225-0.798
	c1.728,19.675-4.688,25.431-19.243,23.359C33.592,47.021,34.059,36.013,36.729,36.013z"/>
<path fill="#6B9E19" d="M46.432,26.778c-3.633,1.248-3.635,0.229,0,1.477C46.723,28.354,46.723,26.679,46.432,26.778z"/>
<path fill="#6B9E19" d="M45.109,34.492c-3.443-1.707-2.73-2.43-1.035,1.045C44.21,35.815,45.385,34.63,45.109,34.492z"/>
<path fill="#618F16" d="M54.275,23.05c3.632,1.248,3.634,0.229,0,1.477C53.982,24.626,53.982,22.95,54.275,23.05z"/>
<path fill="#618F16" d="M53.854,33.382c3.631,1.25,3.633,0.229,0,1.478C53.561,34.96,53.561,33.283,53.854,33.382z"/>
<path fill="#618F16" d="M50.352,42.23c3.631,1.249,3.633,0.229,0,1.478C50.059,43.806,50.059,42.132,50.352,42.23z"/>
<path fill="#87BA2E" d="M48.716,26.413c-0.499-6.027,1.063-8.203,1.063-8.203s-2.535,1-2.127,7.961
	c0.242,4.129,1.555,14.021-10.711,12.436C49.369,41.964,49.079,30.812,48.716,26.413z"/>
<path fill="#77AB2D" d="M52.803,29.839c0.653-9.455-1.471-11.373-1.471-11.373s1.389,1.918,0.406,11.558
	c-0.418,4.117-1.155,14.96-14.523,13.179C50.951,46.822,52.499,34.243,52.803,29.839z"/>
</svg>
