<?xml version="1.0" encoding="utf-8"?>
<!-- Generator: Adobe Illustrator 15.0.0, SVG Export Plug-In . SVG Version: 6.00 Build 0)  -->
<!DOCTYPE svg PUBLIC "-//W3C//DTD SVG 1.1//EN" "http://www.w3.org/Graphics/SVG/1.1/DTD/svg11.dtd" [
	<!ENTITY ns_flows "http://ns.adobe.com/Flows/1.0/">
	<!ENTITY ns_extend "http://ns.adobe.com/Extensibility/1.0/">
	<!ENTITY ns_ai "http://ns.adobe.com/AdobeIllustrator/10.0/">
	<!ENTITY ns_graphs "http://ns.adobe.com/Graphs/1.0/">
]>
<svg version="1.1" id="Layer_1" xmlns:x="&ns_extend;" xmlns:i="&ns_ai;" xmlns:graph="&ns_graphs;"
	 xmlns="http://www.w3.org/2000/svg" xmlns:xlink="http://www.w3.org/1999/xlink" xmlns:a="http://ns.adobe.com/AdobeSVGViewerExtensions/3.0/"
	 x="0px" y="0px" width="64px" height="64px" viewBox="0 0 64 64" enable-background="new 0 0 64 64" xml:space="preserve">
<path fill="#478000" d="M15.127,41.359c-0.273,0.723-0.201,1.508,0.953,2.207c0.294,0.178,1.915-0.32,1.301,0.842
	c-0.613,1.168,1.356,0.43,2.219,1.553c0.549,0.715,1.99-0.842,2.321,0.537c0.263,1.098,1.671-0.553,2.589,0.164
	c0.552,0.43,0.898-2.121,1.704-0.715c0.161,0.279,1.979,1.023,2.206,0.162c0.382-1.445,1-0.211,2.248-0.891
	C47.557,36.033,20.622,26.803,15.127,41.359z"/>
<linearGradient id="SVGID_1_" gradientUnits="userSpaceOnUse" x1="1318.2051" y1="47.5703" x2="1333.9648" y2="47.5703" gradientTransform="matrix(-1 0 0 1 1359.334 0)">
	<stop  offset="0" style="stop-color:#4D2D12"/>
	<stop  offset="0.2231" style="stop-color:#653E1C"/>
	<stop  offset="0.6902" style="stop-color:#A16937"/>
	<stop  offset="1" style="stop-color:#CC884A"/>
	<a:midPointStop  offset="0" style="stop-color:#4D2D12"/>
	<a:midPointStop  offset="0.5394" style="stop-color:#4D2D12"/>
	<a:midPointStop  offset="1" style="stop-color:#CC884A"/>
</linearGradient>
<path fill="url(#SVGID_1_)" d="M41.115,33.922c-0.699,2.965-5.673,7.877-6.355,10.809c-0.169,0.725-0.128,8.57,0.281,12.742
	c0.094,0.957,3.25,2.326,3.63,3.475c0.107,0.326-2.067,0.334-3.786-0.145c0,0,0.675,0.621,0.906,1.1
	c0.187,0.383-4.422-0.432-5.188-1.164c-1.438,1.035-3.78,1.188-3.578,0.842c0.188-0.318,0.672-1.191,0.672-1.191
	c-0.766,0.605-2.328,0.605-2.328,0.287c0-0.59,3.075-2.725,3.141-3.936c0.207-3.805,0.5-10.354,0.5-11.818
	c0-1.213-0.988-3.637-2.599-4.727c4.437-3.979,5.067,4.182,6.004,2.361c1.149-2.232,4.344-5.477,7.043-8.744
	C40.525,32.521,41.239,33.395,41.115,33.922z"/>
<linearGradient id="SVGID_2_" gradientUnits="userSpaceOnUse" x1="1320.6592" y1="52.0508" x2="1333.9648" y2="52.0508" gradientTransform="matrix(-1 0 0 1 1359.334 0)">
	<stop  offset="0" style="stop-color:#4D2D12"/>
	<stop  offset="0.0043" style="stop-color:#4E2E12"/>
	<stop  offset="0.3758" style="stop-color:#925E30"/>
	<stop  offset="0.6446" style="stop-color:#BC7C43"/>
	<stop  offset="0.7818" style="stop-color:#CC884A"/>
	<a:midPointStop  offset="0" style="stop-color:#4D2D12"/>
	<a:midPointStop  offset="0.4432" style="stop-color:#4D2D12"/>
	<a:midPointStop  offset="0.7818" style="stop-color:#CC884A"/>
</linearGradient>
<path fill="url(#SVGID_2_)" d="M33.833,45.828c-0.169,0.727-0.283,6.979,0.125,11.15c0.095,0.957,1.567,4.174,4.713,3.969
	c0.107,0.326-2.067,0.334-3.786-0.145c0,0-1.489-1.641-2.333-7.854c-0.328,6.275,1.364,9.051,3.239,8.953
	c0.187,0.383-4.422-0.432-5.188-1.164c0.734-2.533,0.8-11.672,0.761-11.42c-0.946,6.002-0.354,12.773-4.339,12.262
	c0.188-0.318,0.672-1.191,0.672-1.191c0.701-1.195,1.38-2.361,1.203-2.184c-1.093,1.115-2.156,3.012-3.531,2.471
	c0-0.59,3.075-2.725,3.141-3.936c0.207-3.805,0.5-10.354,0.5-11.818c0-1.213-0.759-2.533-0.759-2.533
	c0.582-0.766,1.043,0.299,2.066-0.176c0.711,0.555,1.11,3.061,1.844,1.912C33.161,42.557,32.536,45.311,33.833,45.828z"/>
<linearGradient id="SVGID_3_" gradientUnits="userSpaceOnUse" x1="49.9492" y1="26.6499" x2="49.9492" y2="10.0029">
	<stop  offset="0" style="stop-color:#5CA600"/>
	<stop  offset="1" style="stop-color:#8AD900"/>
	<a:midPointStop  offset="0" style="stop-color:#5CA600"/>
	<a:midPointStop  offset="0.5" style="stop-color:#5CA600"/>
	<a:midPointStop  offset="1" style="stop-color:#8AD900"/>
</linearGradient>
<path fill="url(#SVGID_3_)" d="M56.172,22.236c0.238-0.71,1.304-1.308,0.464-1.929c-2.534-1.878,0.856-1.138-0.204-2.396
	c-0.529-0.628,0.698-1.69-0.268-2.159c-2.016-0.98,1.668-1.522-1.643-1.821c-0.333-0.03-0.574-1.262-0.665-1.585
	c-0.45-1.648-0.657,0.556-2.607-0.535c-0.291-0.163-1.251-2.896-2.471-1.318c-0.476,0.616-16.503,18.032,6.711,15.992
	c0.699-1.188-1.274-1.823,0.708-2.233C57.125,24.058,55.988,22.789,56.172,22.236z"/>
<linearGradient id="SVGID_4_" gradientUnits="userSpaceOnUse" x1="12.1958" y1="28.2925" x2="12.1958" y2="8.8696">
	<stop  offset="0" style="stop-color:#5CA600"/>
	<stop  offset="1" style="stop-color:#8AD900"/>
	<a:midPointStop  offset="0" style="stop-color:#5CA600"/>
	<a:midPointStop  offset="0.5" style="stop-color:#5CA600"/>
	<a:midPointStop  offset="1" style="stop-color:#8AD900"/>
</linearGradient>
<path fill="url(#SVGID_4_)" d="M15.62,8.87c-0.373,0-1.175,0.346-1.413,0.598c-1.342,1.414-1.331-0.352-1.696-0.346
	c-1.094,0.018-0.734,1.077-1.979,0.922c-0.81-0.103-1.612,0.738-1.639,1.077c-0.19,2.445-1.304,0.086-2.275,1.592
	c-0.772,1.197,1.411,1.84-0.781,2.254c-1.026,0.193,0.231,1.475,0.027,2.031c-0.263,0.717-1.441,1.318-0.512,1.946
	c2.8,1.895-0.949,1.147,0.225,2.417c0.586,0.633-0.772,1.705,0.296,2.179c2.228,0.988-1.842,1.535,1.814,1.838
	c0.367,0.029,0.598,1.287,0.735,1.599C11.435,33.781,26.216,12.155,15.62,8.87z"/>
<linearGradient id="SVGID_5_" gradientUnits="userSpaceOnUse" x1="49.1855" y1="40.959" x2="49.1855" y2="21.207">
	<stop  offset="0" style="stop-color:#4A8500"/>
	<stop  offset="1" style="stop-color:#80C900"/>
	<a:midPointStop  offset="0" style="stop-color:#4A8500"/>
	<a:midPointStop  offset="0.5" style="stop-color:#4A8500"/>
	<a:midPointStop  offset="1" style="stop-color:#80C900"/>
</linearGradient>
<path fill="url(#SVGID_5_)" d="M58.734,30.952c0.507-0.522-2.516-0.852-0.85-1.617c0.332-0.152,1.212-1.877,0.191-2.093
	c-1.713-0.361-0.281-0.936-1.056-2.133c-0.471-0.729-3.213,0.181-2.166-1.651c0.172-0.301-0.93-1.457-1.639-1.077
	c-1.828,0.974-0.887-0.904-1.978-0.922c-0.365-0.006-1.375,1.972-1.696,0.347c-0.065-0.331-1.041-0.599-1.413-0.599
	s-2.394,0.471-2.632,0.723c-15.892,7.614,4.075,20.014,4.742,18.967c0.715-1.127,2.323-0.658,2.203-1.043
	c-0.275-0.893,1.791,0.189,2.62-0.904c0.211-0.279-0.381-1.816,0.998-1.234c1.384,0.582,0.51-1.285,1.84-2.104
	c0.85-0.523-0.996-1.889,0.641-2.203C59.84,33.158,57.882,31.824,58.734,30.952z"/>
<linearGradient id="SVGID_6_" gradientUnits="userSpaceOnUse" x1="24.8599" y1="21.0034" x2="24.8599" y2="2.0005">
	<stop  offset="0" style="stop-color:#5CA600"/>
	<stop  offset="1" style="stop-color:#9AF200"/>
	<a:midPointStop  offset="0" style="stop-color:#5CA600"/>
	<a:midPointStop  offset="0.5" style="stop-color:#5CA600"/>
	<a:midPointStop  offset="1" style="stop-color:#9AF200"/>
</linearGradient>
<path fill="url(#SVGID_6_)" d="M32.635,5.32c-0.279-0.177-1.812,0.322-1.232-0.842c0.582-1.168-1.282-0.43-2.1-1.552
	c-0.521-0.715-1.885,0.842-2.198-0.538c-0.248-1.096-1.581,0.554-2.452-0.164c-0.521-0.429-0.85,2.121-1.613,0.716
	c-0.151-0.281-1.872-1.022-2.087-0.161c-0.362,1.443-0.936,0.237-2.13,0.89c-0.729,0.396,0.181,2.709-1.648,1.826
	c-0.3-0.144-1.453,0.784-1.075,1.383c0.972,1.54-0.902,0.746-0.921,1.668c-0.006,0.308,1.969,1.159,0.348,1.43
	c-0.33,0.055-0.6,0.877-0.6,1.192c0,0.313,0.346,0.989,0.6,1.19c1.411,1.13-0.376,1.124-0.348,1.431
	C16.344,26.103,42.321,22.248,32.635,5.32z"/>
<linearGradient id="SVGID_7_" gradientUnits="userSpaceOnUse" x1="16.3442" y1="42.5566" x2="16.3442" y2="22.6206">
	<stop  offset="0" style="stop-color:#4A8500"/>
	<stop  offset="1" style="stop-color:#80C900"/>
	<a:midPointStop  offset="0" style="stop-color:#4A8500"/>
	<a:midPointStop  offset="0.5" style="stop-color:#4A8500"/>
	<a:midPointStop  offset="1" style="stop-color:#80C900"/>
</linearGradient>
<path fill="url(#SVGID_7_)" d="M12.372,24.415c-0.362,1.443-1.274,1.037-2.47,1.689c-0.729,0.396,0.181,2.709-1.648,1.825
	c-0.299-0.143-1.453,0.785-1.075,1.383c0.972,1.541-0.902,0.747-0.921,1.669c-0.006,0.308,1.969,1.16,0.349,1.429
	c-0.33,0.055-0.6,0.877-0.6,1.191s0.346,0.99,0.6,1.191c1.409,1.131-0.354,1.123-0.349,1.432c0.019,0.922,1.077,0.619,0.921,1.668
	c-0.102,0.684,0.738,1.359,1.075,1.381c2.439,0.16,0.087,1.102,1.589,1.92c1.195,0.65,1.837-1.188,2.25,0.66
	c0.192,0.865,1.473-0.195,2.027-0.023c0.717,0.221,1.315,1.213,1.942,0.432c1.891-2.363,1.146,0.799,2.413-0.191
	c0.633-0.494,1.7,0.652,2.174-0.248c0.987-1.879,1.532,1.553,1.835-1.531c0.028-0.309,1.268-0.535,1.596-0.619
	c1.659-0.42-1.363-1.535,0.537-2.432C29.997,34.705,24.494,17.02,12.372,24.415z"/>
<linearGradient id="SVGID_8_" gradientUnits="userSpaceOnUse" x1="38.5742" y1="20.6548" x2="38.5742" y2="3.0938">
	<stop  offset="0" style="stop-color:#5CA600"/>
	<stop  offset="1" style="stop-color:#9AF200"/>
	<a:midPointStop  offset="0" style="stop-color:#5CA600"/>
	<a:midPointStop  offset="0.5" style="stop-color:#5CA600"/>
	<a:midPointStop  offset="1" style="stop-color:#9AF200"/>
</linearGradient>
<path fill="url(#SVGID_8_)" d="M48.759,13.241c0.349-0.056,0.633-0.878,0.633-1.191c0-0.314-0.366-0.989-0.633-1.191
	c-1.49-1.131,0.373-1.123,0.366-1.431c-0.018-0.921-1.136-0.62-0.971-1.669c0.107-0.683-0.78-1.36-1.137-1.381
	c-2.577-0.161-0.091-1.1-1.678-1.92c-1.262-0.65-1.94,1.189-2.376-0.658c-0.204-0.865-1.555,0.194-2.142,0.022
	c-0.756-0.221-1.391-1.215-2.052-0.433c-1.998,2.363-1.21-0.799-2.548,0.19c-0.668,0.494-1.797-0.651-2.297,0.25
	c-1.041,1.879-1.617-1.555-1.936,1.53c-0.033,0.31-1.342,0.537-1.687,0.619c-1.753,0.42,0.591,0.613-0.568,2.432
	c-0.173,0.271-3.144,0.616-1.466,1.753c0.654,0.444,0.578,0.982,0.578,1.603c0,0.619-0.279,2.494,0.181,3.664
	c3.048,7.751,14.986,4.77,16.249,4.117c0.77-0.396-0.19-2.708,1.74-1.826c0.316,0.145,1.535-0.785,1.137-1.382
	c-1.027-1.541,0.953-0.748,0.971-1.669C49.132,14.362,47.047,13.51,48.759,13.241z"/>
<linearGradient id="SVGID_9_" gradientUnits="userSpaceOnUse" x1="41.1289" y1="45.4697" x2="41.1289" y2="25.0488">
	<stop  offset="0" style="stop-color:#4A8500"/>
	<stop  offset="1" style="stop-color:#80C900"/>
	<a:midPointStop  offset="0" style="stop-color:#4A8500"/>
	<a:midPointStop  offset="0.5" style="stop-color:#4A8500"/>
	<a:midPointStop  offset="1" style="stop-color:#80C900"/>
</linearGradient>
<path fill="url(#SVGID_9_)" d="M50.607,37.494c0.348-0.055,0.633-0.877,0.633-1.191s-0.365-0.988-0.633-1.191
	c-1.491-1.129,0.373-1.123,0.366-1.43c-0.02-0.922-1.136-0.619-0.972-1.67c0.107-0.682-0.78-1.359-1.136-1.38
	c-2.577-0.161-1.032-1.52-2.619-2.34c-1.262-0.65-1.673,0.144-2.313-1.642c-2.378-6.644-17.281,9.211-11.659,14.17
	c0.258,0.229,2.175,1.008,1.563,2.172c-0.613,1.168,1.354,0.43,2.218,1.551c0.55,0.715,1.99-0.84,2.321,0.539
	c0.264,1.096,1.669-0.555,2.59,0.164c0.55,0.428,0.897-2.123,1.703-0.715c0.161,0.279,1.979,1.021,2.207,0.16
	c0.381-1.443,0.986-0.236,2.248-0.889c0.77-0.398-0.189-2.709,1.741-1.828c0.315,0.145,1.535-0.783,1.136-1.381
	c-1.025-1.541,0.952-0.748,0.972-1.67C50.98,38.615,48.895,37.766,50.607,37.494z"/>
<linearGradient id="SVGID_10_" gradientUnits="userSpaceOnUse" x1="36.2324" y1="28.9033" x2="36.2324" y2="11.1089">
	<stop  offset="0" style="stop-color:#5CA600"/>
	<stop  offset="1" style="stop-color:#8AD900"/>
	<a:midPointStop  offset="0" style="stop-color:#5CA600"/>
	<a:midPointStop  offset="0.5" style="stop-color:#5CA600"/>
	<a:midPointStop  offset="1" style="stop-color:#8AD900"/>
</linearGradient>
<path fill="url(#SVGID_10_)" d="M46.318,22.162c-0.597-0.444-0.525-0.984-0.525-1.604c0-0.618,1.199-1.499,0.192-2.062
	c-1.081-0.604-0.63-1.959-1.001-1.858c-0.856,0.232,0.184-1.51-0.868-2.209c-0.268-0.177-1.742,0.322-1.185-0.842
	c0.56-1.168-1.233-0.429-2.019-1.552c-0.503-0.715-1.813,0.842-2.116-0.538c-0.238-1.096-1.521,0.554-2.358-0.164
	c-0.5-0.428-0.817,2.121-1.551,0.716c-0.146-0.281-1.801-1.022-2.009-0.161c-0.349,1.443-0.898,0.237-2.047,0.89
	c-0.701,0.396,0.172,2.709-1.586,1.826c-0.288-0.144-1.399,0.784-1.035,1.383c0.935,1.54-0.868,0.747-0.885,1.669
	c-0.006,0.307,1.893,1.158,0.334,1.429c-0.317,0.056-8.972,11.999,12.613,9.468c0.948-1.879,2.367,1.498,2.658-1.586
	c0.028-0.311,1.222-0.537,1.534-0.621c1.597-0.42-0.537-0.612,0.519-2.431C45.142,23.644,47.847,23.297,46.318,22.162z"/>
<linearGradient id="SVGID_11_" gradientUnits="userSpaceOnUse" x1="20.2163" y1="31.4673" x2="20.2163" y2="13.3452">
	<stop  offset="0" style="stop-color:#5CA600"/>
	<stop  offset="1" style="stop-color:#8AD900"/>
	<a:midPointStop  offset="0" style="stop-color:#5CA600"/>
	<a:midPointStop  offset="0.5" style="stop-color:#5CA600"/>
	<a:midPointStop  offset="1" style="stop-color:#8AD900"/>
</linearGradient>
<path fill="url(#SVGID_11_)" d="M29.378,19.678c-0.017-0.921-0.975-0.619-0.832-1.669c0.091-0.683-0.669-1.359-0.976-1.381
	c-2.21-0.161-0.077-1.1-1.438-1.919c-1.083-0.651-1.664,1.188-2.038-0.659c-0.174-0.865-1.332,0.195-1.836,0.022
	c-0.648-0.221-1.191-1.214-1.76-0.433c-1.711,2.363-1.036-0.799-2.183,0.191c-0.574,0.493-1.542-0.652-1.971,0.25
	c-0.894,1.878-1.388-1.556-1.661,1.53c-0.027,0.31-1.149,0.536-1.445,0.619c-1.503,0.42,0.507,0.613-0.487,2.431
	c-0.147,0.271-2.696,0.616-1.257,1.753c0.562,0.444,0.497,0.983,0.497,1.604c0,0.619-1.131,1.499-0.183,2.062
	c1.019,0.604,0.595,1.959,0.942,1.86c0.808-0.233-0.173,1.509,0.818,2.207c0.251,0.178,1.64-0.321,1.114,0.842
	c-0.525,1.168,1.162,0.431,1.902,1.553c0.471,0.714,1.707-0.842,1.991,0.538c0.225,1.096,1.432-0.555,2.221,0.163
	c0.472,0.43,0.271-1.718,1.46-0.715c3.458,2.917,8.146-7.451,6.805-9.419C28.099,19.693,29.383,19.986,29.378,19.678z"/>
<linearGradient id="SVGID_12_" gradientUnits="userSpaceOnUse" x1="28.5435" y1="41.5439" x2="28.5435" y2="22.6211">
	<stop  offset="0" style="stop-color:#4A8500"/>
	<stop  offset="1" style="stop-color:#80C900"/>
	<a:midPointStop  offset="0" style="stop-color:#4A8500"/>
	<a:midPointStop  offset="0.5" style="stop-color:#4A8500"/>
	<a:midPointStop  offset="1" style="stop-color:#80C900"/>
</linearGradient>
<path fill="url(#SVGID_12_)" d="M39.103,31.606c0.513-0.481-2.534-0.786-0.855-1.491c0.335-0.141,1.222-1.73,0.193-1.93
	c-1.727-0.333-0.284-0.861-1.063-1.966c-0.475-0.673-3.236,0.165-2.184-1.522c0.174-0.277-0.937-1.344-1.652-0.993
	c-1.84,0.896-0.891-0.835-1.992-0.852c-0.366-0.005-1.385,1.819-1.709,0.32c-0.066-0.305-1.049-0.552-1.424-0.552
	s-1.182,0.319-1.424,0.552c-1.349,1.304-1.341-0.325-1.709-0.32c-1.102,0.017-0.74,0.995-1.993,0.852
	c-0.818-0.095-1.626,0.681-1.652,0.993c-0.192,2.254-1.314,0.08-2.293,1.468c-0.778,1.104,1.421,1.696-0.788,2.078
	c-1.033,0.178,0.233,1.358,0.027,1.872c-0.264,0.661-1.451,1.216-0.516,1.795c2.822,1.746-0.955,1.057,0.229,2.229
	c0.591,0.584-0.78,1.572,0.297,2.008c2.247,0.912-1.856,1.416,1.83,1.695c0.37,0.027,0.641,1.172,0.74,1.475
	c0.502,1.533,0.733-0.518,2.904,0.496c0.322,0.152,0.737,2.752,2.094,1.283c0.531-0.572,1.176-0.508,1.916-0.508
	c0.741,0,1.792,1.152,2.464,0.188c0.722-1.039,2.342-0.607,2.222-0.963c-0.277-0.822,1.804,0.176,2.638-0.834
	c0.214-0.258-0.382-1.672,1.007-1.137c1.396,0.537,0.514-1.186,1.854-1.941c0.856-0.48-1.004-1.738,0.645-2.029
	C40.217,33.641,38.244,32.41,39.103,31.606z"/>
</svg>
