<?xml version="1.0" encoding="utf-8"?>
<!-- Generator: Adobe Illustrator 15.0.0, SVG Export Plug-In . SVG Version: 6.00 Build 0)  -->
<!DOCTYPE svg PUBLIC "-//W3C//DTD SVG 1.1//EN" "http://www.w3.org/Graphics/SVG/1.1/DTD/svg11.dtd" [
	<!ENTITY ns_flows "http://ns.adobe.com/Flows/1.0/">
	<!ENTITY ns_extend "http://ns.adobe.com/Extensibility/1.0/">
	<!ENTITY ns_ai "http://ns.adobe.com/AdobeIllustrator/10.0/">
	<!ENTITY ns_graphs "http://ns.adobe.com/Graphs/1.0/">
]>
<svg version="1.1" id="Layer_1" xmlns:x="&ns_extend;" xmlns:i="&ns_ai;" xmlns:graph="&ns_graphs;"
	 xmlns="http://www.w3.org/2000/svg" xmlns:xlink="http://www.w3.org/1999/xlink" xmlns:a="http://ns.adobe.com/AdobeSVGViewerExtensions/3.0/"
	 x="0px" y="0px" width="64px" height="64px" viewBox="0 0 64 64" enable-background="new 0 0 64 64" xml:space="preserve">
<path fill="#7AB51D" d="M22.223,42.42C27.327,57.656,6.37,56.041,6.37,56.041S14.687,44.186,22.223,42.42z"/>
<path fill="#92C932" d="M22.223,42.42C15.182,45.084,6.37,56.041,6.37,56.041S7.909,36.098,22.223,42.42z"/>
<path fill="#7AB51D" d="M35.574,39.848C25.458,56.4,45.65,61.018,45.65,61.018S42.012,44.303,35.574,39.848z"/>
<path fill="#92C932" d="M35.574,39.848c5.658,5.369,10.076,21.17,10.076,21.17S51.19,36.787,35.574,39.848z"/>
<path fill="#7AB51D" d="M41.318,28.633C53.053,41.051,62,21.518,62,21.518S46.736,22.822,41.318,28.633z"/>
<path fill="#92C932" d="M41.318,28.633C47.328,23.729,62,21.518,62,21.518S42.537,12.602,41.318,28.633z"/>
<linearGradient id="SVGID_1_" gradientUnits="userSpaceOnUse" x1="32.7617" y1="30.4512" x2="16.4277" y2="5.9504">
	<stop  offset="0.0667" style="stop-color:#4F0008"/>
	<stop  offset="0.0735" style="stop-color:#53020B"/>
	<stop  offset="0.1823" style="stop-color:#87203A"/>
	<stop  offset="0.2891" style="stop-color:#B23960"/>
	<stop  offset="0.3917" style="stop-color:#D34D7E"/>
	<stop  offset="0.4891" style="stop-color:#EB5B94"/>
	<stop  offset="0.5791" style="stop-color:#FA63A1"/>
	<stop  offset="0.6545" style="stop-color:#FF66A5"/>
	<a:midPointStop  offset="0.0667" style="stop-color:#4F0008"/>
	<a:midPointStop  offset="0.3295" style="stop-color:#4F0008"/>
	<a:midPointStop  offset="0.6545" style="stop-color:#FF66A5"/>
</linearGradient>
<path fill="url(#SVGID_1_)" d="M32.368,30.813c5.255-12.711-3.854-39.18-16.467-24.498C0.762,13.166,18.565,29.25,32.368,30.813z"/>
<linearGradient id="SVGID_2_" gradientUnits="userSpaceOnUse" x1="-12.6221" y1="29.7246" x2="0.0444" y2="2.9757" gradientTransform="matrix(0.9875 0.1575 -0.1575 0.9875 50.108 5.0079)">
	<stop  offset="0.0667" style="stop-color:#4F0008"/>
	<stop  offset="0.0735" style="stop-color:#53020B"/>
	<stop  offset="0.1823" style="stop-color:#87203A"/>
	<stop  offset="0.2891" style="stop-color:#B23960"/>
	<stop  offset="0.3917" style="stop-color:#D34D7E"/>
	<stop  offset="0.4891" style="stop-color:#EB5B94"/>
	<stop  offset="0.5791" style="stop-color:#FA63A1"/>
	<stop  offset="0.6545" style="stop-color:#FF66A5"/>
	<a:midPointStop  offset="0.0667" style="stop-color:#4F0008"/>
	<a:midPointStop  offset="0.3295" style="stop-color:#4F0008"/>
	<a:midPointStop  offset="0.6545" style="stop-color:#FF66A5"/>
</linearGradient>
<path fill="url(#SVGID_2_)" d="M31.692,31.504C51.088,30.887,68.449,13.572,48.154,7.16C35.463-3.459,27.52,18.697,31.692,31.504z"
	/>
<linearGradient id="SVGID_3_" gradientUnits="userSpaceOnUse" x1="31.9736" y1="31.687" x2="59.5495" y2="44.1838">
	<stop  offset="0.0667" style="stop-color:#4F0008"/>
	<stop  offset="0.0735" style="stop-color:#53020B"/>
	<stop  offset="0.1823" style="stop-color:#87203A"/>
	<stop  offset="0.2891" style="stop-color:#B23960"/>
	<stop  offset="0.3917" style="stop-color:#D34D7E"/>
	<stop  offset="0.4891" style="stop-color:#EB5B94"/>
	<stop  offset="0.5791" style="stop-color:#FA63A1"/>
	<stop  offset="0.6545" style="stop-color:#FF66A5"/>
	<a:midPointStop  offset="0.0667" style="stop-color:#4F0008"/>
	<a:midPointStop  offset="0.3295" style="stop-color:#4F0008"/>
	<a:midPointStop  offset="0.6545" style="stop-color:#FF66A5"/>
</linearGradient>
<path fill="url(#SVGID_3_)" d="M32.321,30.723c12.365-6.756,37.15-3.57,27.498,12.311C51.666,66.1,35.83,43.654,32.321,30.723z"/>
<linearGradient id="SVGID_4_" gradientUnits="userSpaceOnUse" x1="32.5205" y1="30.7139" x2="25.7704" y2="59.2143">
	<stop  offset="0.0667" style="stop-color:#4F0008"/>
	<stop  offset="0.0735" style="stop-color:#53020B"/>
	<stop  offset="0.1823" style="stop-color:#87203A"/>
	<stop  offset="0.2891" style="stop-color:#B23960"/>
	<stop  offset="0.3917" style="stop-color:#D34D7E"/>
	<stop  offset="0.4891" style="stop-color:#EB5B94"/>
	<stop  offset="0.5791" style="stop-color:#FA63A1"/>
	<stop  offset="0.6545" style="stop-color:#FF66A5"/>
	<a:midPointStop  offset="0.0667" style="stop-color:#4F0008"/>
	<a:midPointStop  offset="0.3295" style="stop-color:#4F0008"/>
	<a:midPointStop  offset="0.6545" style="stop-color:#FF66A5"/>
</linearGradient>
<path fill="url(#SVGID_4_)" d="M32.323,30.813c9.371,10.273,8.162,40.424-6.988,28.4C8.688,57.652,19.864,36.746,32.323,30.813z"/>
<linearGradient id="SVGID_5_" gradientUnits="userSpaceOnUse" x1="32.5625" y1="30.6479" x2="2.813" y2="36.0639">
	<stop  offset="0.0667" style="stop-color:#4F0008"/>
	<stop  offset="0.0735" style="stop-color:#53020B"/>
	<stop  offset="0.1823" style="stop-color:#87203A"/>
	<stop  offset="0.2891" style="stop-color:#B23960"/>
	<stop  offset="0.3917" style="stop-color:#D34D7E"/>
	<stop  offset="0.4891" style="stop-color:#EB5B94"/>
	<stop  offset="0.5791" style="stop-color:#FA63A1"/>
	<stop  offset="0.6545" style="stop-color:#FF66A5"/>
	<a:midPointStop  offset="0.0667" style="stop-color:#4F0008"/>
	<a:midPointStop  offset="0.3295" style="stop-color:#4F0008"/>
	<a:midPointStop  offset="0.6545" style="stop-color:#FF66A5"/>
</linearGradient>
<path fill="url(#SVGID_5_)" d="M32.383,30.869C26.338,43.248-1.245,56.305,2.532,36.092C-1.783,17.402,21.241,21.168,32.383,30.869z
	"/>
<linearGradient id="SVGID_6_" gradientUnits="userSpaceOnUse" x1="71.752" y1="-146.4434" x2="51.2915" y2="-133.4059" gradientTransform="matrix(0.9944 0.1055 0.1055 -0.9944 -21.4624 -123.3505)">
	<stop  offset="0.0667" style="stop-color:#630000"/>
	<stop  offset="0.1985" style="stop-color:#87161D"/>
	<stop  offset="0.3782" style="stop-color:#B2303F"/>
	<stop  offset="0.5528" style="stop-color:#D3445A"/>
	<stop  offset="0.7185" style="stop-color:#EB526D"/>
	<stop  offset="0.8716" style="stop-color:#FA5B79"/>
	<stop  offset="1" style="stop-color:#FF5E7D"/>
	<a:midPointStop  offset="0.0667" style="stop-color:#630000"/>
	<a:midPointStop  offset="0.5" style="stop-color:#630000"/>
	<a:midPointStop  offset="0.1985" style="stop-color:#87161D"/>
	<a:midPointStop  offset="0.5" style="stop-color:#87161D"/>
	<a:midPointStop  offset="0.3782" style="stop-color:#B2303F"/>
	<a:midPointStop  offset="0.5" style="stop-color:#B2303F"/>
	<a:midPointStop  offset="0.5528" style="stop-color:#D3445A"/>
	<a:midPointStop  offset="0.5" style="stop-color:#D3445A"/>
	<a:midPointStop  offset="0.7185" style="stop-color:#EB526D"/>
	<a:midPointStop  offset="0.5" style="stop-color:#EB526D"/>
	<a:midPointStop  offset="0.8716" style="stop-color:#FA5B79"/>
	<a:midPointStop  offset="0.5" style="stop-color:#FA5B79"/>
	<a:midPointStop  offset="1" style="stop-color:#FF5E7D"/>
</linearGradient>
<path fill="url(#SVGID_6_)" d="M16.429,12.793C29.575,25.802,30.968,33.198,32.94,31.77C33.782,29.978,21.724,12.911,16.429,12.793z
	"/>
<path fill="#FABF49" d="M16.639,15.592c-0.572,1.616-2.992,0.758-2.421-0.856C14.792,13.118,17.212,13.975,16.639,15.592z"/>
<path fill="#FABF49" d="M19.093,12.031c-0.573,1.616-2.992,0.758-2.422-0.855C17.246,9.558,19.665,10.414,19.093,12.031z"/>
<path fill="#FEEC9A" d="M17.432,17.599c-0.571,1.615-2.992,0.756-2.419-0.856C15.584,15.124,18.005,15.98,17.432,17.599z"/>
<path fill="#CC1D3E" d="M18.679,15.267c-0.539,1.525-2.826,0.718-2.287-0.812C16.934,12.929,19.22,13.737,18.679,15.267z"/>
<path fill="#CC1D3E" d="M18.731,13.01c-0.548,1.547-2.866,0.729-2.315-0.82C16.962,10.642,19.279,11.462,18.731,13.01z"/>
<path fill="#FABF49" d="M20.712,19.542c-0.681,1.923-3.556,0.903-2.877-1.017C18.513,16.604,21.392,17.623,20.712,19.542z"/>
<path fill="#FEEC9A" d="M21.638,18.519c-0.572,1.616-2.994,0.759-2.42-0.859C19.789,16.044,22.21,16.9,21.638,18.519z"/>
<path fill="#FEEC9A" d="M24.324,21.688c-0.57,1.615-2.993,0.759-2.418-0.858C22.476,19.213,24.896,20.069,24.324,21.688z"/>
<path fill="#FEEC9A" d="M21.32,11.59c-0.572,1.618-2.995,0.759-2.422-0.856C19.471,9.117,21.89,9.972,21.32,11.59z"/>
<path fill="#DE1B40" d="M20.554,14.046c-0.572,1.618-2.995,0.761-2.42-0.856C18.706,11.574,21.125,12.43,20.554,14.046z"/>
<path fill="#FABF49" d="M23.772,18.942c-0.572,1.618-2.993,0.762-2.42-0.856C21.923,16.47,24.345,17.327,23.772,18.942z"/>
<path fill="#FABF49" d="M24.351,15.883c-0.573,1.618-2.994,0.762-2.422-0.855S24.922,14.268,24.351,15.883z"/>
<path fill="#DE1B40" d="M17.184,14.026c-0.571,1.619-2.992,0.76-2.421-0.855C15.334,11.552,17.756,12.411,17.184,14.026z"/>
<path fill="#FFD582" d="M22.945,16.885c-0.57,1.616-2.992,0.76-2.421-0.856C21.096,14.41,23.517,15.267,22.945,16.885z"/>
<path fill="#FFD582" d="M25.669,18.299c-0.57,1.616-2.99,0.76-2.419-0.856C23.822,15.824,26.243,16.681,25.669,18.299z"/>
<path fill="#FFD582" d="M22.706,20.701c-0.57,1.617-2.993,0.76-2.421-0.855C20.857,18.228,23.277,19.084,22.706,20.701z"/>
<path fill="#FABF49" d="M23.512,13.449c-0.664,1.879-3.475,0.883-2.812-0.995C21.366,10.577,24.177,11.571,23.512,13.449z"/>
<path fill="#FEEC9A" d="M23.68,14.753c-0.549,1.555-2.875,0.731-2.327-0.822C21.903,12.377,24.23,13.2,23.68,14.753z"/>
<path fill="#FEEC9A" d="M27.251,20.181c-0.55,1.557-2.875,0.731-2.326-0.822C25.475,17.804,27.801,18.628,27.251,20.181z"/>
<path fill="#FFD582" d="M20.01,17.537c-0.665,1.879-3.477,0.883-2.812-0.995C17.863,14.664,20.673,15.659,20.01,17.537z"/>
</svg>
