<?xml version="1.0" encoding="utf-8"?>
<!-- Generator: Adobe Illustrator 15.0.0, SVG Export Plug-In . SVG Version: 6.00 Build 0)  -->
<!DOCTYPE svg PUBLIC "-//W3C//DTD SVG 1.1//EN" "http://www.w3.org/Graphics/SVG/1.1/DTD/svg11.dtd" [
	<!ENTITY ns_flows "http://ns.adobe.com/Flows/1.0/">
	<!ENTITY ns_extend "http://ns.adobe.com/Extensibility/1.0/">
	<!ENTITY ns_ai "http://ns.adobe.com/AdobeIllustrator/10.0/">
	<!ENTITY ns_graphs "http://ns.adobe.com/Graphs/1.0/">
]>
<svg version="1.1" id="Layer_1" xmlns:x="&ns_extend;" xmlns:i="&ns_ai;" xmlns:graph="&ns_graphs;"
	 xmlns="http://www.w3.org/2000/svg" xmlns:xlink="http://www.w3.org/1999/xlink" xmlns:a="http://ns.adobe.com/AdobeSVGViewerExtensions/3.0/"
	 x="0px" y="0px" width="64px" height="64px" viewBox="0 0 64 64" enable-background="new 0 0 64 64" xml:space="preserve">
<path fill="#3D6E18" d="M3.239,23.999c1.206,3.737,6.705,7.317,6.705,7.317S5.826,22.819,6.229,21.13
	C4.989,22.055,3.239,23.999,3.239,23.999z"/>
<path fill="#529320" d="M3.239,23.999c8.738,1.475,19.183,24.469,25.785,20.511c0,0-15.133-23.999-22.795-23.38
	C4.602,21.262,2.923,23.364,3.239,23.999z"/>
<path fill="#3D6E18" d="M24.651,2.062c3.606,1.582,6.614,7.399,6.614,7.399s-8.059-4.958-9.786-4.732
	C22.53,3.596,24.651,2.062,24.651,2.062z"/>
<path fill="#529320" d="M24.651,2.062c2.783,13.117,24.138,23.129,19.505,29.263c0,0-22.797-14.931-22.677-26.596
	C21.496,3.102,24.05,1.684,24.651,2.062z"/>
<path fill="#529320" d="M52.091,53.064c-4.198,4.168,1.704,6.132,3.891,8.335c2.182,2.199,6.619-2.186,4.424-4.396
	C58.2,54.779,56.296,48.9,52.091,53.064z"/>
<path fill="#7AB51D" d="M49.083,50.272c-7.9,6.438-1.711,6.396,0.663,8.313c2.274,1.838,9.918-4.399,7.978-6.615
	C56.104,50.12,56.985,43.837,49.083,50.272z"/>
<radialGradient id="SVGID_1_" cx="167.4834" cy="122.8174" r="12.9549" gradientTransform="matrix(0.7091 -0.7141 1.9141 1.9277 -337.5287 -100.5143)" gradientUnits="userSpaceOnUse">
	<stop  offset="0" style="stop-color:#FFD500"/>
	<stop  offset="0.3243" style="stop-color:#FFD200"/>
	<stop  offset="0.6087" style="stop-color:#FFC700"/>
	<stop  offset="0.8772" style="stop-color:#FFB500"/>
	<stop  offset="1" style="stop-color:#FFAA00"/>
	<a:midPointStop  offset="0" style="stop-color:#FFD500"/>
	<a:midPointStop  offset="0.7333" style="stop-color:#FFD500"/>
	<a:midPointStop  offset="1" style="stop-color:#FFAA00"/>
</radialGradient>
<path fill="url(#SVGID_1_)" d="M39.931,26.049c0.979-1.48,0.701-2.207-0.309-3.22c-1.002-1.012-1.98-1.546-3.709-0.816
	c0.979-1.481,0.699-2.209-0.306-3.222c-1.038-1.044-2.07-1.569-3.93-0.711c0.709-1.247,0.408-1.938-0.531-2.881
	c-1.037-1.046-2.063-1.581-3.86-0.781c0.647-1.18,0.334-1.868-0.602-2.801c-1.103-1.105-2.147-1.649-4.057-0.739
	c0.354-0.917-0.006-1.542-0.854-2.397c-1.128-1.135-2.174-1.727-4.009-0.875c0.24-0.817-0.089-1.451-0.901-2.264
	c-1.436-1.438-2.826-1.898-5.452-0.091c-2.263-2.2-5.136-1.541-5.771,1.35c-2.874,0.641-3.525,3.532-1.34,5.813
	c-1.795,2.644-1.34,4.042,0.088,5.489c0.809,0.818,1.437,1.15,2.249,0.907c-0.845,1.85-0.258,2.902,0.869,4.04
	c0.849,0.854,1.471,1.217,2.381,0.859c-0.903,1.924-0.363,2.973,0.733,4.086c0.926,0.943,1.611,1.257,2.78,0.605
	c-0.793,1.813-0.261,2.841,0.777,3.888c0.938,0.945,1.62,1.246,2.863,0.535c-0.854,1.872-0.333,2.909,0.706,3.957
	c1.006,1.011,1.728,1.296,3.198,0.308c-0.725,1.741-0.197,2.726,0.81,3.737c1.006,1.014,1.731,1.296,3.197,0.31
	c-0.72,1.739-0.193,2.728,0.813,3.74c0,0,12.653,10.743,20.601,2.736c7.948-8.003-2.719-20.745-2.719-20.745
	C42.64,25.854,41.659,25.322,39.931,26.049z"/>
<path fill="#E6A500" d="M20.465,21.555c-2.947,2.913-3.225,2.493-5.036,0.61c1.596,2.097,1.992,2.465-2.03,6.235
	c3.934-3.571,3.961-3.775,6.296-1.573C17.87,24.495,17.608,24.443,20.465,21.555z"/>
<path fill="#E6A500" d="M20.465,21.555c2.924-2.936,2.503-3.212,0.613-5.016c2.104,1.589,2.421,1.885,6.208-2.121
	c-3.585,3.919-3.74,4.044-1.529,6.371C23.417,18.971,23.365,18.708,20.465,21.555z"/>
<path fill="#E6A500" d="M16.173,17.207c-2.703,2.671-2.948,2.295-4.562,0.615c1.416,1.876,1.96,2.426-1.725,5.887
	c3.604-3.279,3.46-3.506,5.543-1.544C13.808,20.081,13.553,19.854,16.173,17.207z"/>
<path fill="#E6A500" d="M16.173,17.207c2.682-2.693,2.304-2.938,0.618-4.545c1.883,1.411,2.361,1.888,5.836-1.784
	c-3.292,3.59-3.519,3.585-1.549,5.661C18.985,14.923,18.832,14.596,16.173,17.207z"/>
<path fill="#E6A500" d="M12.073,13.29c-2.385,2.355-2.651,2.087-4.268,0.411c1.443,1.849,2.096,2.066-1.168,5.108
	c3.197-2.874,2.898-2.956,4.975-0.987C9.963,15.765,9.763,15.629,12.073,13.29z"/>
<path fill="#E6A500" d="M11.412,5.251C8.217,8.467,8.478,9.542,5.64,6.601c2.183,2.456,2.48,2.07-1.34,5.813
	c1.717-1.349,1.354-1.197,3.505,1.288c-1.472-2.022-2.068-2.567,0.102-4.729c2.197-2.188,2.875-1.937,4.518-0.482
	C10.589,6.683,10.009,7.024,11.412,5.251z"/>
<path fill="#E6A500" d="M12.073,13.29c2.365-2.376,2.033-3.189,0.352-4.801c1.854,1.438,2.286,2.368,5.34-0.884
	c-2.886,3.186-3.014,2.89-1.039,4.958C14.66,10.921,14.421,10.989,12.073,13.29z"/>
<path fill="#E6A500" d="M28.844,30.024c-3.239,3.204-3.51,2.777-5.317,0.89c1.571,2.122,1.827,2.015-2.583,6.174
	c4.308-3.944,4.488-3.688,6.83-1.491C25.973,33.239,25.701,33.198,28.844,30.024z"/>
<path fill="#E6A500" d="M28.844,30.024c3.216-3.228,2.788-3.496,0.893-5.297c2.131,1.565,2.002,1.68,6.176-2.715
	c-3.958,4.291-3.679,4.612-1.477,6.945C32.072,27.165,32.03,26.893,28.844,30.024z"/>
<path fill="#E6A500" d="M24.555,25.672c-2.971,2.939-3.25,2.839-4.859,1.155c1.392,1.898,1.386,2.18-2.656,5.996
	c3.947-3.621,4.398-3.865,6.487-1.909C21.93,28.806,21.672,28.582,24.555,25.672z"/>
<path fill="#E6A500" d="M24.555,25.672c2.95-2.959,2.892-3.279,1.202-4.883c1.905,1.388,2.09,1.316,5.92-2.709
	c-3.635,3.931-3.903,4.567-1.94,6.647C27.621,23.137,27.477,22.8,24.555,25.672z"/>
<path fill="#E6A500" d="M37.508,38.199c-3.239,3.204-3.51,2.776-5.316,0.89c1.571,2.122,1.967,2.488-2.442,6.646
	c4.308-3.944,4.346-4.159,6.687-1.963C34.637,41.414,34.364,41.373,37.508,38.199z"/>
<path fill="#E6A500" d="M37.508,38.199c3.216-3.228,2.788-3.497,0.894-5.297c2.13,1.564,2.448,1.859,6.623-2.534
	c-3.959,4.292-3.867,4.685-1.662,7.018C40.996,35.593,40.693,35.067,37.508,38.199z"/>
<path fill="#E6A500" d="M33.219,33.847c-2.969,2.939-3.836,3.434-5.445,1.75c1.392,1.899,2.563,1.571-1.478,5.388
	c3.946-3.622,3.807-3.852,5.896-1.896C30.593,36.98,30.337,36.757,33.219,33.847z"/>
<path fill="#E6A500" d="M33.219,33.847c2.95-2.959,2.907-3.285,1.218-4.889c1.906,1.388,1.664,1.117,5.494-2.909
	c-3.635,3.931-3.494,4.772-1.529,6.854C36.284,31.311,36.141,30.975,33.219,33.847z"/>
<path fill="#FFE12C" d="M10.542,8.215c-3.007-0.001-1.002,2.006,0,2.006C11.543,10.221,12.555,8.214,10.542,8.215z"/>
<path fill="#FFE12C" d="M14.448,4.686c-3.005,0-1.001,2.005,0,2.006C15.451,6.691,16.453,4.685,14.448,4.686z"/>
<path fill="#FFE12C" d="M5.204,7.224c-1.786,0.001-1.032,1.866,0,2.008C6.196,9.368,7.208,7.224,5.204,7.224z"/>
<path fill="#FFE12C" d="M8.466,4.231c-1.787,0-1.032,1.865,0,2.007C9.459,6.374,10.47,4.231,8.466,4.231z"/>
<path fill="#FFE12C" d="M15.078,12.434c-3.004,0-1,2.005,0.001,2.006C16.081,14.438,17.083,12.435,15.078,12.434z"/>
<path fill="#FFE12C" d="M19.527,7.857c-3.007,0-1.003,2.008,0,2.009C20.528,9.865,21.532,7.858,19.527,7.857z"/>
<path fill="#FFE12C" d="M24.185,11.193c-3.007,0.001-1.003,2.008,0,2.007C25.186,13.198,26.188,11.193,24.185,11.193z"/>
<path fill="#FFE12C" d="M28.857,14.801c-3.007,0-1.002,2.008,0,2.007C29.869,16.809,30.87,14.802,28.857,14.801z"/>
<path fill="#FFE12C" d="M19.094,16.119c-3.006,0-1.002,2.007,0,2.007C20.095,18.126,21.098,16.119,19.094,16.119z"/>
<path fill="#FFE12C" d="M23.608,20.29c-3.007-0.001-1.004,2.007,0,2.007C24.608,22.297,25.612,20.289,23.608,20.29z"/>
<path fill="#FFE12C" d="M36.589,32.426c-3.006,0-1.002,2.008,0,2.009C37.592,34.435,38.593,32.428,36.589,32.426z"/>
<path fill="#FFE12C" d="M30.164,39.019c-3.003,0-1.001,2.008,0.002,2.009C31.168,41.027,32.169,39.021,30.164,39.019z"/>
<path fill="#FFE12C" d="M25.405,34.87c-3.005,0-1.002,2.008,0,2.008C26.409,36.879,27.41,34.873,25.405,34.87z"/>
<path fill="#FFE12C" d="M27.63,24.383c-3.005,0-1.001,2.008,0,2.007C28.632,26.39,29.634,24.383,27.63,24.383z"/>
<path fill="#FFE12C" d="M5.917,12.821c-3.007-0.001-1.002,2.006,0,2.006C6.918,14.827,7.93,12.82,5.917,12.821z"/>
<path fill="#FFE12C" d="M9.958,17.534c-3.005,0-1.001,2.006,0.001,2.006C10.96,19.54,11.962,17.535,9.958,17.534z"/>
<path fill="#FFE12C" d="M13.611,21.862c-3.006,0-1.002,2.007,0,2.007C14.611,23.869,15.614,21.862,13.611,21.862z"/>
<path fill="#FFE12C" d="M17.561,26.315c-3.007,0-1.004,2.006-0.001,2.006C18.56,28.322,19.563,26.315,17.561,26.315z"/>
<path fill="#FFE12C" d="M21.535,30.647c-3.004,0-1.001,2.008,0,2.007C22.537,32.654,23.54,30.647,21.535,30.647z"/>
<path fill="#FFE12C" d="M32.267,28.37c-3.006,0-1.003,2.008,0,2.008C33.269,30.378,34.269,28.37,32.267,28.37z"/>
<path fill="#FFE12C" d="M41.009,36.683c-3.008-0.001-1.002,2.004,0,2.003C42.01,38.686,43.012,36.681,41.009,36.683z"/>
<path fill="#FFE12C" d="M33.427,18.574c-3.003,0-1.001,2.008,0,2.008C34.431,20.582,35.432,18.574,33.427,18.574z"/>
<path fill="#FFE12C" d="M37.636,22.79c-3.005,0-1.001,2.008,0.001,2.008C38.638,24.798,39.64,22.79,37.636,22.79z"/>
<path fill="#FFE12C" d="M41.657,26.396c-3.006,0-1.002,2.008,0,2.008C42.657,28.404,43.661,26.396,41.657,26.396z"/>
<linearGradient id="SVGID_2_" gradientUnits="userSpaceOnUse" x1="187.9131" y1="187.4512" x2="178.081" y2="138.679" gradientTransform="matrix(0.7071 -0.7071 0.7071 0.7071 -188.0202 56.4014)">
	<stop  offset="0.4545" style="stop-color:#297124"/>
	<stop  offset="1" style="stop-color:#77B516"/>
	<a:midPointStop  offset="0.4545" style="stop-color:#297124"/>
	<a:midPointStop  offset="0.5" style="stop-color:#297124"/>
	<a:midPointStop  offset="1" style="stop-color:#77B516"/>
</linearGradient>
<path fill="url(#SVGID_2_)" d="M56.259,53.878c3.582-3.634-1.107-29.043-23.404-40.158C57.847,37.208,31.381,44.637,56.259,53.878z"
	/>
<linearGradient id="SVGID_3_" gradientUnits="userSpaceOnUse" x1="188.5361" y1="185.0684" x2="179.8819" y2="142.1386" gradientTransform="matrix(0.7071 -0.7071 0.7071 0.7071 -188.0202 56.4014)">
	<stop  offset="0" style="stop-color:#297124"/>
	<stop  offset="1" style="stop-color:#77B516"/>
	<a:midPointStop  offset="0" style="stop-color:#297124"/>
	<a:midPointStop  offset="0.5" style="stop-color:#297124"/>
	<a:midPointStop  offset="1" style="stop-color:#77B516"/>
</linearGradient>
<path fill="url(#SVGID_3_)" d="M56.173,53.966c5.133-5.207,3.631-27.138-18.437-38.486C62.69,39.007,45.767,45.753,56.173,53.966z"
	/>
<linearGradient id="SVGID_4_" gradientUnits="userSpaceOnUse" x1="176.4453" y1="177.9639" x2="158.5257" y2="133.1648" gradientTransform="matrix(0.7071 -0.7071 0.7071 0.7071 -188.0202 56.4014)">
	<stop  offset="0.2545" style="stop-color:#297124"/>
	<stop  offset="1" style="stop-color:#77B516"/>
	<a:midPointStop  offset="0.2545" style="stop-color:#297124"/>
	<a:midPointStop  offset="0.5041" style="stop-color:#297124"/>
	<a:midPointStop  offset="1" style="stop-color:#77B516"/>
</linearGradient>
<path fill="url(#SVGID_4_)" d="M31.809,40.475c-11.457,0.521-17.882-3.649-26.412-10.756c11.824,15.918,41.678,33.475,50.719,24.304
	C56.116,54.022,51.115,39.594,31.809,40.475z"/>
<linearGradient id="SVGID_5_" gradientUnits="userSpaceOnUse" x1="172.7646" y1="178.4023" x2="157.2735" y2="139.6745" gradientTransform="matrix(0.7071 -0.7071 0.7071 0.7071 -188.0202 56.4014)">
	<stop  offset="0" style="stop-color:#297124"/>
	<stop  offset="0.1483" style="stop-color:#43871F"/>
	<stop  offset="0.325" style="stop-color:#5A9C1B"/>
	<stop  offset="0.5151" style="stop-color:#6AAA18"/>
	<stop  offset="0.7261" style="stop-color:#74B217"/>
	<stop  offset="1" style="stop-color:#77B516"/>
	<a:midPointStop  offset="0" style="stop-color:#297124"/>
	<a:midPointStop  offset="0.2424" style="stop-color:#297124"/>
	<a:midPointStop  offset="1" style="stop-color:#77B516"/>
</linearGradient>
<path fill="url(#SVGID_5_)" d="M34.953,46.655c-13.385,0.046-24.84-8.533-24.84-8.533c11.927,15.813,35.612,26.439,46.06,15.844
	C56.173,53.966,53.694,46.591,34.953,46.655z"/>
<path fill="#92C932" d="M15.868,43.279c0,0,15.073,11.208,38.915,11.356C54.782,54.636,34.032,58.854,15.868,43.279z"/>
<path fill="#92C932" d="M45.872,21.906c0,0,12.637,12.683,11.11,29.835C56.982,51.741,62.085,36.368,45.872,21.906z"/>
</svg>
