<?xml version="1.0" encoding="utf-8"?>
<!-- Generator: Adobe Illustrator 15.0.0, SVG Export Plug-In . SVG Version: 6.00 Build 0)  -->
<!DOCTYPE svg PUBLIC "-//W3C//DTD SVG 1.1//EN" "http://www.w3.org/Graphics/SVG/1.1/DTD/svg11.dtd" [
	<!ENTITY ns_flows "http://ns.adobe.com/Flows/1.0/">
	<!ENTITY ns_extend "http://ns.adobe.com/Extensibility/1.0/">
	<!ENTITY ns_ai "http://ns.adobe.com/AdobeIllustrator/10.0/">
	<!ENTITY ns_graphs "http://ns.adobe.com/Graphs/1.0/">
]>
<svg version="1.1" id="Layer_1" xmlns:x="&ns_extend;" xmlns:i="&ns_ai;" xmlns:graph="&ns_graphs;"
	 xmlns="http://www.w3.org/2000/svg" xmlns:xlink="http://www.w3.org/1999/xlink" xmlns:a="http://ns.adobe.com/AdobeSVGViewerExtensions/3.0/"
	 x="0px" y="0px" width="64px" height="64px" viewBox="0 0 64 64" enable-background="new 0 0 64 64" xml:space="preserve">
<radialGradient id="SVGID_1_" cx="135.6797" cy="96.6035" r="23.6289" gradientTransform="matrix(0.9239 -0.3827 0.3827 0.9239 -130.3214 -11.6991)" gradientUnits="userSpaceOnUse">
	<stop  offset="0.3697" style="stop-color:#FF9900"/>
	<stop  offset="0.5933" style="stop-color:#FFB823"/>
	<stop  offset="0.8581" style="stop-color:#FFD746"/>
	<stop  offset="1" style="stop-color:#FFE354"/>
	<a:midPointStop  offset="0.3697" style="stop-color:#FF9900"/>
	<a:midPointStop  offset="0.4327" style="stop-color:#FF9900"/>
	<a:midPointStop  offset="1" style="stop-color:#FFE354"/>
</radialGradient>
<path fill="url(#SVGID_1_)" d="M53.828,16.586c0,0-9.785-0.209-14.105,1.263c1.463-4.321,1.318-14.052,1.318-14.052
	s-7.01,6.683-9.061,10.734c-2.054-4.048-9.024-10.733-9.024-10.733s-0.2,9.654,1.21,13.971c-4.314-1.416-13.997-1.184-13.997-1.184
	s6.777,6.983,10.867,9.004c-4.094,2.015-10.866,9.082-10.866,9.082s9.859,0.095,14.186-1.452
	c-1.557,4.329-1.398,14.239-1.398,14.239s7.106-6.981,9.027-11.183c1.922,4.205,9.057,11.185,9.057,11.185s0.111-9.981-1.504-14.313
	c4.33,1.612,14.291,1.523,14.291,1.523s-6.895-7.119-11.057-9.08C46.924,23.625,53.828,16.586,53.828,16.586z"/>
<path fill="#677339" d="M32.971,53.682C42.34,49.438,57.938,50.755,62,51.275c-4.289-0.369-21.717-1.292-29.076,3.869
	C32.652,55.336,31.896,54.168,32.971,53.682z"/>
<path fill="#7AB51D" d="M38.074,52.325C47.73,64.653,62,51.275,62,51.275S48.014,49.928,38.074,52.325z"/>
<path fill="#92C932" d="M62,51.275c0,0-16.295-1.484-23.926,1.05C43.203,39.998,62,51.275,62,51.275z"/>
<path fill="#529320" d="M38.074,52.325c9.41-2.06,23.926-1.05,23.926-1.05S46.305,47.933,38.074,52.325z"/>
<linearGradient id="SVGID_2_" gradientUnits="userSpaceOnUse" x1="30.3755" y1="51.2012" x2="33.623" y2="51.2012">
	<stop  offset="0" style="stop-color:#677339"/>
	<stop  offset="0.2398" style="stop-color:#626E37"/>
	<stop  offset="0.5147" style="stop-color:#546030"/>
	<stop  offset="0.8058" style="stop-color:#3E4A24"/>
	<stop  offset="1" style="stop-color:#2A361A"/>
	<a:midPointStop  offset="0" style="stop-color:#677339"/>
	<a:midPointStop  offset="0.6788" style="stop-color:#677339"/>
	<a:midPointStop  offset="1" style="stop-color:#2A361A"/>
</linearGradient>
<rect x="30.375" y="40.402" fill="url(#SVGID_2_)" width="3.248" height="21.598"/>
<radialGradient id="SVGID_3_" cx="31.999" cy="25.6289" r="23.6284" gradientUnits="userSpaceOnUse">
	<stop  offset="0.3697" style="stop-color:#FF9900"/>
	<stop  offset="0.3793" style="stop-color:#FF9C03"/>
	<stop  offset="0.4794" style="stop-color:#FFB620"/>
	<stop  offset="0.586" style="stop-color:#FFCA37"/>
	<stop  offset="0.7007" style="stop-color:#FFD847"/>
	<stop  offset="0.8292" style="stop-color:#FFE051"/>
	<stop  offset="1" style="stop-color:#FFE354"/>
	<a:midPointStop  offset="0.3697" style="stop-color:#FF9900"/>
	<a:midPointStop  offset="0.2381" style="stop-color:#FF9900"/>
	<a:midPointStop  offset="1" style="stop-color:#FFE354"/>
</radialGradient>
<path fill="url(#SVGID_3_)" d="M55.627,25.628c0,0-8.961-3.938-13.516-4.231c3.006-3.433,6.596-12.478,6.596-12.478
	s-9.035,3.491-12.479,6.45C35.879,10.843,31.998,2,31.998,2s-3.879,8.843-4.228,13.37c-3.445-2.959-12.479-6.45-12.479-6.45
	s3.588,9.046,6.594,12.478c-4.554,0.294-13.514,4.231-13.514,4.231s9.072,3.86,13.661,4.087c-3.095,3.404-6.741,12.621-6.741,12.621
	s9.236-3.73,12.62-6.877c0.166,4.62,4.087,13.799,4.087,13.799s3.924-9.179,4.088-13.799c3.385,3.146,12.621,6.877,12.621,6.877
	s-3.646-9.215-6.742-12.621C46.555,29.489,55.627,25.628,55.627,25.628z"/>
<path fill="#677339" d="M30.7,58.013c-9.263-4.38-24.685-3.021-28.7-2.483c4.241-0.381,21.47-1.333,28.745,3.993
	C31.014,59.72,31.76,58.515,30.7,58.013z"/>
<path fill="#7AB51D" d="M25.653,56.613C16.106,69.338,2,55.529,2,55.529S15.827,54.14,25.653,56.613z"/>
<path fill="#92C932" d="M2,55.529c0,0,16.11-1.532,23.653,1.084C20.582,43.89,2,55.529,2,55.529z"/>
<path fill="#529320" d="M25.653,56.613C16.35,54.487,2,55.529,2,55.529S17.517,52.08,25.653,56.613z"/>
<radialGradient id="SVGID_4_" cx="43.6875" cy="-4.3379" r="12.6083" gradientTransform="matrix(0.9161 0 0 0.9081 -8.0254 29.5679)" gradientUnits="userSpaceOnUse">
	<stop  offset="0.5394" style="stop-color:#4A2F24"/>
	<stop  offset="0.6743" style="stop-color:#4D3126"/>
	<stop  offset="0.7742" style="stop-color:#56392D"/>
	<stop  offset="0.8628" style="stop-color:#664639"/>
	<stop  offset="0.9444" style="stop-color:#7D5949"/>
	<stop  offset="1" style="stop-color:#916958"/>
	<a:midPointStop  offset="0.5394" style="stop-color:#4A2F24"/>
	<a:midPointStop  offset="0.7647" style="stop-color:#4A2F24"/>
	<a:midPointStop  offset="1" style="stop-color:#916958"/>
</radialGradient>
<path fill="url(#SVGID_4_)" d="M43.498,25.924c0-0.291-0.109-0.509-0.27-0.66c0.16-0.151,0.27-0.37,0.27-0.66
	c0-0.457-0.262-0.742-0.588-0.854c0.084-0.132,0.145-0.286,0.145-0.485c0-0.447-0.25-0.727-0.564-0.843
	c0.057-0.119,0.092-0.255,0.092-0.416c0-0.56-0.393-0.848-0.811-0.891c0.111-0.144,0.193-0.32,0.193-0.558
	c0-0.549-0.377-0.835-0.789-0.886c0.018-0.077,0.047-0.146,0.047-0.235c0-0.614-0.473-0.912-0.938-0.904
	c0.004-0.037,0.021-0.063,0.021-0.104c0-0.698-0.607-0.98-1.125-0.871c0.002-0.014,0.008-0.022,0.008-0.036
	c0-0.665-0.551-0.951-1.051-0.885c0-0.009,0.006-0.015,0.006-0.022c0-0.826-0.842-1.074-1.385-0.775
	c-0.143-0.732-1.031-0.905-1.506-0.489c-0.172-0.443-0.652-0.611-1.074-0.513c-0.201-0.663-1.055-0.793-1.504-0.375
	c-0.385-0.483-1.236-0.444-1.529,0.134c-0.447-0.423-1.304-0.294-1.505,0.371c-0.454-0.414-1.309-0.274-1.501,0.398
	c-0.511-0.47-1.557-0.249-1.557,0.667c0,0.005,0.003,0.009,0.003,0.013c-0.346,0.03-0.663,0.234-0.777,0.608
	c-0.523-0.127-1.158,0.153-1.158,0.868c0,0.056,0.021,0.094,0.028,0.144c-0.51-0.092-1.097,0.191-1.097,0.879
	c0,0.04,0.018,0.071,0.022,0.109c-0.436,0.028-0.852,0.321-0.852,0.896c0,0.015,0.006,0.023,0.007,0.037
	c-0.375,0.082-0.701,0.364-0.701,0.871c0,0.166,0.039,0.303,0.096,0.424c-0.435,0.025-0.855,0.318-0.855,0.896
	c0,0.172,0.044,0.314,0.108,0.438c-0.373,0.084-0.695,0.364-0.695,0.87c0,0.294,0.11,0.514,0.273,0.664
	c-0.237,0.145-0.417,0.388-0.417,0.757c0,0.309,0.121,0.537,0.298,0.688c-0.213,0.146-0.369,0.383-0.369,0.729
	c0,0.394,0.201,0.645,0.463,0.782c-0.195,0.151-0.334,0.382-0.334,0.709c0,0.355,0.166,0.594,0.39,0.742
	c-0.071,0.127-0.123,0.272-0.123,0.456c0,0.346,0.158,0.582,0.374,0.729c-0.068,0.127-0.115,0.27-0.115,0.447
	c0,0.521,0.341,0.804,0.727,0.876c-0.039,0.103-0.068,0.214-0.068,0.346c0,0.617,0.478,0.915,0.945,0.902
	c-0.008,0.051-0.029,0.091-0.029,0.146c0,0.463,0.269,0.747,0.6,0.854c-0.007,0.049-0.027,0.086-0.027,0.14
	c0,0.65,0.525,0.938,1.015,0.891c0.077,0.553,0.552,0.802,1.007,0.749c0,0.008-0.003,0.012-0.003,0.02
	c0,0.77,0.736,1.046,1.275,0.838c0.135,0.576,0.736,0.792,1.213,0.62c0.225,0.615,1.039,0.734,1.48,0.344
	c0.279,0.481,0.968,0.563,1.382,0.233c0.327,0.477,1.069,0.504,1.444,0.078c0.355,0.406,1.047,0.401,1.396-0.014
	c0.453,0.263,1.119,0.131,1.33-0.41c0.447,0.238,1.086,0.111,1.299-0.406c0.451,0.142,1-0.051,1.16-0.563
	c0.459,0.085,0.961-0.144,1.066-0.688c0.52,0.117,1.141-0.163,1.141-0.871c0-0.003-0.002-0.006-0.002-0.011
	c0.41-0.028,0.789-0.3,0.83-0.816c0.449-0.012,0.889-0.309,0.889-0.903c0-0.08-0.027-0.143-0.041-0.212
	c0.398-0.063,0.758-0.348,0.758-0.881c0-0.199-0.063-0.354-0.146-0.488c0.346-0.102,0.633-0.383,0.633-0.859
	c0-0.118-0.031-0.214-0.061-0.309c0.332-0.107,0.604-0.391,0.604-0.855c0-0.303-0.113-0.528-0.285-0.681
	c0.324-0.11,0.586-0.396,0.586-0.853c0-0.149-0.029-0.28-0.078-0.393C43.373,26.465,43.498,26.237,43.498,25.924z"/>
<radialGradient id="SVGID_5_" cx="32.4712" cy="23.333" r="7.0374" gradientTransform="matrix(1.0076 0 0 0.9822 -0.8094 2.4702)" gradientUnits="userSpaceOnUse">
	<stop  offset="0" style="stop-color:#7D503D"/>
	<stop  offset="0.6893" style="stop-color:#694435"/>
	<stop  offset="1" style="stop-color:#5E3E31"/>
	<a:midPointStop  offset="0" style="stop-color:#7D503D"/>
	<a:midPointStop  offset="0.5455" style="stop-color:#7D503D"/>
	<a:midPointStop  offset="1" style="stop-color:#5E3E31"/>
</radialGradient>
<path fill="url(#SVGID_5_)" d="M38.164,26.245c0.285-0.154,0.504-0.43,0.504-0.854c0-0.428-0.219-0.703-0.506-0.856
	c0.287-0.154,0.506-0.429,0.506-0.854c0-0.681-0.533-1.01-1.055-0.998c0.006-0.048,0.027-0.086,0.027-0.139
	c0-0.542-0.34-0.851-0.742-0.953c0.086-0.144,0.148-0.308,0.148-0.519c0-1.017-1.188-1.252-1.756-0.721
	c-0.123-0.697-0.854-0.945-1.408-0.727c0.02-0.078,0.051-0.15,0.051-0.242c0-1.214-1.684-1.312-1.99-0.316
	c-0.432-0.653-1.578-0.572-1.82,0.246c-0.514-0.668-1.844-0.477-1.844,0.604c0,0.068,0.025,0.116,0.036,0.178
	c-0.556-0.063-1.159,0.254-1.159,0.979c0,0.022,0.01,0.038,0.012,0.059c-0.6-0.189-1.376,0.123-1.376,0.943
	c0,0.246,0.085,0.431,0.199,0.588c-0.382,0.112-0.697,0.424-0.697,0.945c0,0.263,0.095,0.459,0.223,0.62
	c-0.339,0.135-0.607,0.434-0.607,0.912c0,0.478,0.266,0.776,0.603,0.913c-0.188,0.166-0.313,0.412-0.313,0.74
	c0,0.616,0.438,0.935,0.91,0.982c-0.19,0.167-0.317,0.415-0.317,0.745c0,0.832,0.798,1.144,1.398,0.939
	c0.1,0.607,0.645,0.874,1.158,0.8c-0.035,0.106-0.068,0.211-0.068,0.342c0,0.93,0.987,1.196,1.594,0.831
	c0.307,0.679,1.312,0.727,1.748,0.169c0.209,1.099,1.963,1.051,2.006-0.164c0.516,0.661,1.84,0.47,1.84-0.606
	c0-0.052-0.021-0.087-0.027-0.135c0.596,0.432,1.664,0.178,1.664-0.79c0-0.157-0.033-0.292-0.084-0.412
	c0.451-0.066,0.861-0.379,0.861-0.974c0-0.125-0.033-0.229-0.066-0.33c0.535,0.031,1.094-0.294,1.094-0.989
	C38.908,26.656,38.568,26.347,38.164,26.245z"/>
<path opacity="0.5" fill="#969900" d="M29.289,20.123c0.22,1.007,1.535,1.04,1.807,0.049C30.555,20.391,29.817,20.37,29.289,20.123z
	"/>
<path opacity="0.5" fill="#969900" d="M32.902,20.275c0.221,1.007,1.535,1.04,1.807,0.049C34.168,20.543,33.43,20.522,32.902,20.275
	z"/>
<path opacity="0.5" fill="#969900" d="M32.541,24.326c0.219,1.005,1.533,1.041,1.805,0.049
	C33.807,24.592,33.07,24.572,32.541,24.326z"/>
<path opacity="0.5" fill="#969900" d="M35.662,25.072c0.221,1.005,1.533,1.041,1.805,0.049
	C36.928,25.338,36.191,25.318,35.662,25.072z"/>
<path opacity="0.5" fill="#969900" d="M34.709,22.459c0.221,1.005,1.533,1.041,1.805,0.049
	C35.975,22.726,35.238,22.706,34.709,22.459z"/>
<path opacity="0.5" fill="#969900" d="M29.289,24.326c0.22,1.005,1.535,1.041,1.805,0.049
	C30.554,24.591,29.819,24.575,29.289,24.326z"/>
<path opacity="0.5" fill="#969900" d="M27.564,21.948c0.22,1.005,1.535,1.041,1.806,0.049C28.83,22.213,28.094,22.197,27.564,21.948
	z"/>
<path opacity="0.5" fill="#969900" d="M30.892,21.874c0.219,1.005,1.536,1.041,1.805,0.049
	C32.158,22.139,31.422,22.123,30.892,21.874z"/>
<path opacity="0.5" fill="#969900" d="M34.162,27.328c0.219,1.007,1.535,1.042,1.807,0.05
	C35.426,27.596,34.691,27.576,34.162,27.328z"/>
<path opacity="0.5" fill="#969900" d="M26.44,24.918c0.223,1.007,1.535,1.041,1.808,0.049C27.707,25.187,26.969,25.166,26.44,24.918
	z"/>
<path opacity="0.5" fill="#969900" d="M31.096,26.666c0.219,1.007,1.535,1.041,1.807,0.049
	C32.361,26.933,31.623,26.913,31.096,26.666z"/>
<path opacity="0.5" fill="#969900" d="M29.37,29.202c0.221,1.006,1.535,1.042,1.806,0.049C30.636,29.469,29.899,29.449,29.37,29.202
	z"/>
<path opacity="0.5" fill="#969900" d="M32.281,29.452c0.221,1.007,1.533,1.04,1.805,0.048C33.549,29.719,32.811,29.7,32.281,29.452z
	"/>
<path opacity="0.5" fill="#969900" d="M27.735,27.052c0.219,1.007,1.534,1.041,1.806,0.049C29,27.32,28.264,27.301,27.735,27.052z"
	/>
</svg>
