<?xml version="1.0" encoding="utf-8"?>
<!-- Generator: Adobe Illustrator 15.0.0, SVG Export Plug-In . SVG Version: 6.00 Build 0)  -->
<!DOCTYPE svg PUBLIC "-//W3C//DTD SVG 1.1//EN" "http://www.w3.org/Graphics/SVG/1.1/DTD/svg11.dtd" [
	<!ENTITY ns_flows "http://ns.adobe.com/Flows/1.0/">
	<!ENTITY ns_extend "http://ns.adobe.com/Extensibility/1.0/">
	<!ENTITY ns_ai "http://ns.adobe.com/AdobeIllustrator/10.0/">
	<!ENTITY ns_graphs "http://ns.adobe.com/Graphs/1.0/">
]>
<svg version="1.1" id="Layer_1" xmlns:x="&ns_extend;" xmlns:i="&ns_ai;" xmlns:graph="&ns_graphs;"
	 xmlns="http://www.w3.org/2000/svg" xmlns:xlink="http://www.w3.org/1999/xlink" xmlns:a="http://ns.adobe.com/AdobeSVGViewerExtensions/3.0/"
	 x="0px" y="0px" width="64px" height="64px" viewBox="0 0 64 64" enable-background="new 0 0 64 64" xml:space="preserve">
<linearGradient id="SVGID_1_" gradientUnits="userSpaceOnUse" x1="9.6733" y1="48.8779" x2="4.6733" y2="19.3779">
	<stop  offset="0" style="stop-color:#A9B0B3"/>
	<stop  offset="0.2699" style="stop-color:#ACB3B6;stop-opacity:0.7301"/>
	<stop  offset="0.4849" style="stop-color:#B6BDC0;stop-opacity:0.5151"/>
	<stop  offset="0.681" style="stop-color:#C6CDD1;stop-opacity:0.319"/>
	<stop  offset="0.8647" style="stop-color:#DCE3E8;stop-opacity:0.1353"/>
	<stop  offset="1" style="stop-color:#F2F9FF;stop-opacity:0"/>
	<a:midPointStop  offset="0" style="stop-color:#A9B0B3"/>
	<a:midPointStop  offset="0.7515" style="stop-color:#A9B0B3"/>
	<a:midPointStop  offset="1" style="stop-color:#F2F9FF;stop-opacity:0"/>
</linearGradient>
<path opacity="0.6" fill="url(#SVGID_1_)" enable-background="new    " d="M9.794,15.809c-9.006,6.6-10.591,24.381-2.738,36.222
	c1.83,2.757,7.188-0.074,5.286-2.51C4.791,39.853,3.8,24.165,9.794,15.809z"/>
<linearGradient id="SVGID_2_" gradientUnits="userSpaceOnUse" x1="16.7314" y1="47.7002" x2="11.7314" y2="18.2002">
	<stop  offset="0" style="stop-color:#A9B0B3"/>
	<stop  offset="0.2699" style="stop-color:#ACB3B6;stop-opacity:0.7301"/>
	<stop  offset="0.4849" style="stop-color:#B6BDC0;stop-opacity:0.5151"/>
	<stop  offset="0.681" style="stop-color:#C6CDD1;stop-opacity:0.319"/>
	<stop  offset="0.8647" style="stop-color:#DCE3E8;stop-opacity:0.1353"/>
	<stop  offset="1" style="stop-color:#F2F9FF;stop-opacity:0"/>
	<a:midPointStop  offset="0" style="stop-color:#A9B0B3"/>
	<a:midPointStop  offset="0.7515" style="stop-color:#A9B0B3"/>
	<a:midPointStop  offset="1" style="stop-color:#F2F9FF;stop-opacity:0"/>
</linearGradient>
<path opacity="0.6" fill="url(#SVGID_2_)" enable-background="new    " d="M13.826,17.766c-6.309,6.148-5.312,20.42,2.421,29.016
	c1.803,2.002,5.694-0.79,3.877-2.53C12.906,37.348,10.133,25.002,13.826,17.766z"/>
<linearGradient id="SVGID_3_" gradientUnits="userSpaceOnUse" x1="23.7827" y1="46.4854" x2="18.7827" y2="16.9854">
	<stop  offset="0" style="stop-color:#A9B0B3"/>
	<stop  offset="0.2699" style="stop-color:#ACB3B6;stop-opacity:0.7301"/>
	<stop  offset="0.4849" style="stop-color:#B6BDC0;stop-opacity:0.5151"/>
	<stop  offset="0.681" style="stop-color:#C6CDD1;stop-opacity:0.319"/>
	<stop  offset="0.8647" style="stop-color:#DCE3E8;stop-opacity:0.1353"/>
	<stop  offset="1" style="stop-color:#F2F9FF;stop-opacity:0"/>
	<a:midPointStop  offset="0" style="stop-color:#A9B0B3"/>
	<a:midPointStop  offset="0.7515" style="stop-color:#A9B0B3"/>
	<a:midPointStop  offset="1" style="stop-color:#F2F9FF;stop-opacity:0"/>
</linearGradient>
<path opacity="0.6" fill="url(#SVGID_3_)" enable-background="new    " d="M17.912,19.809c-3.889,5.399-1.063,16.104,6.047,21.722
	c1.659,1.306,4.203-1.259,2.57-2.37C20.056,34.77,16.159,25.727,17.912,19.809z"/>
<linearGradient id="SVGID_4_" gradientUnits="userSpaceOnUse" x1="48.8701" y1="26.2285" x2="63.1202" y2="5.1033">
	<stop  offset="0" style="stop-color:#A9B0B3"/>
	<stop  offset="0.2699" style="stop-color:#ACB3B6;stop-opacity:0.7301"/>
	<stop  offset="0.4849" style="stop-color:#B6BDC0;stop-opacity:0.5151"/>
	<stop  offset="0.681" style="stop-color:#C6CDD1;stop-opacity:0.319"/>
	<stop  offset="0.8647" style="stop-color:#DCE3E8;stop-opacity:0.1353"/>
	<stop  offset="1" style="stop-color:#F2F9FF;stop-opacity:0"/>
	<a:midPointStop  offset="0" style="stop-color:#A9B0B3"/>
	<a:midPointStop  offset="0.7515" style="stop-color:#A9B0B3"/>
	<a:midPointStop  offset="1" style="stop-color:#F2F9FF;stop-opacity:0"/>
</linearGradient>
<path opacity="0.6" fill="url(#SVGID_4_)" enable-background="new    " d="M59.633,2c5.375,6.528,1.242,19.367-8.813,26.044
	c-2.347,1.554-5.877-1.56-3.571-2.873C56.396,19.956,62,9.131,59.633,2z"/>
<linearGradient id="SVGID_5_" gradientUnits="userSpaceOnUse" x1="44.1172" y1="23.022" x2="58.3672" y2="1.897">
	<stop  offset="0" style="stop-color:#A9B0B3"/>
	<stop  offset="0.2699" style="stop-color:#ACB3B6;stop-opacity:0.7301"/>
	<stop  offset="0.4849" style="stop-color:#B6BDC0;stop-opacity:0.5151"/>
	<stop  offset="0.681" style="stop-color:#C6CDD1;stop-opacity:0.319"/>
	<stop  offset="0.8647" style="stop-color:#DCE3E8;stop-opacity:0.1353"/>
	<stop  offset="1" style="stop-color:#F2F9FF;stop-opacity:0"/>
	<a:midPointStop  offset="0" style="stop-color:#A9B0B3"/>
	<a:midPointStop  offset="0.7515" style="stop-color:#A9B0B3"/>
	<a:midPointStop  offset="1" style="stop-color:#F2F9FF;stop-opacity:0"/>
</linearGradient>
<path opacity="0.6" fill="url(#SVGID_5_)" enable-background="new    " d="M55.727,2.529C59.024,8.178,53.849,18,44.882,22.425
	c-2.092,1.027-4.431-1.753-2.409-2.594C50.503,16.491,56.548,8.392,55.727,2.529z"/>
<linearGradient id="SVGID_6_" gradientUnits="userSpaceOnUse" x1="39.3008" y1="19.7734" x2="53.5508" y2="-1.3516">
	<stop  offset="0" style="stop-color:#A9B0B3"/>
	<stop  offset="0.2699" style="stop-color:#ACB3B6;stop-opacity:0.7301"/>
	<stop  offset="0.4849" style="stop-color:#B6BDC0;stop-opacity:0.5151"/>
	<stop  offset="0.681" style="stop-color:#C6CDD1;stop-opacity:0.319"/>
	<stop  offset="0.8647" style="stop-color:#DCE3E8;stop-opacity:0.1353"/>
	<stop  offset="1" style="stop-color:#F2F9FF;stop-opacity:0"/>
	<a:midPointStop  offset="0" style="stop-color:#A9B0B3"/>
	<a:midPointStop  offset="0.7515" style="stop-color:#A9B0B3"/>
	<a:midPointStop  offset="1" style="stop-color:#F2F9FF;stop-opacity:0"/>
</linearGradient>
<path opacity="0.6" fill="url(#SVGID_6_)" enable-background="new    " d="M51.753,3.107c1.543,4.613-4.046,11.55-11.598,14.007
	c-1.756,0.571-3.062-1.767-1.383-2.205C45.423,13.18,51.38,7.637,51.753,3.107z"/>
<path fill="#92C932" d="M29.513,10.428C52.059,2.852,50.074,33.12,50.074,33.12S35.865,22.427,29.513,10.428z"/>
<path fill="#7AB51D" d="M29.513,10.428c4.1,10.122,20.562,22.692,20.562,22.692S20.399,31.175,29.513,10.428z"/>
<path fill="#71A81B" d="M34.91,18.381c0.986-1.02,6.408-4.801,10.44-4.038c-4.185-1.383-9.939,2.381-10.986,3.393
	c-1.208,0.814-4.475,2.648-3.89,6.948C30.48,20.647,33.701,19.141,34.91,18.381z"/>
<path fill="#71A81B" d="M32.584,15.613c0.653-1.228,3.406-4.547,6.156-5.896c-2.819,0.561-5.912,4.042-6.655,5.303
	c-1.403,0.474-3.052,1.058-4.149,3.671C29.808,16.295,31.233,16.01,32.584,15.613z"/>
<path fill="#71A81B" d="M37.961,22.016c-0.982,1.037-3.125,2.96-2.691,6.612c0.193-3.619,2.191-5.067,3.177-6.033
	c1.152-0.768,6.207-2.598,9.859-2.094C44.741,19.386,39.184,21.267,37.961,22.016z"/>
<path fill="#71A81B" d="M41.5,25.69c-1.823,3.088-0.976,5.215-0.976,5.215s-0.118-1.773,1.433-4.672
	c1.531-0.681,5.187-1.835,7.691,0.771C47.55,23.931,43.158,25.06,41.5,25.69z"/>
<path fill="#699C19" d="M26.392,4.098c3.425,14.207,19.412,26.087,23.683,29.022c-4.31-3.338-20.76-19.678-22.09-30.981
	C27.927,1.647,26.004,2.493,26.392,4.098z"/>
<path fill="#92C932" d="M49.58,46.596C31.882,18.758,7.612,53.124,7.612,53.124S32.262,53.99,49.58,46.596z"/>
<path fill="#7AB51D" d="M49.58,46.596c-13.251,7.337-41.968,6.528-41.968,6.528S41.305,76.916,49.58,46.596z"/>
<path fill="#71A81B" d="M36.821,50.463c-0.174-1.961-2.72-10.767-7.732-13.464c5.717,2.16,8.639,11.239,8.885,13.242
	c0.592,1.934,2.514,6.761-1.869,10.886C39.621,56.77,37.462,52.336,36.821,50.463z"/>
<path fill="#71A81B" d="M41.744,49.508c0.366-1.894,0.295-7.875-1.493-11.728c2.55,3.064,2.847,9.516,2.549,11.524
	c1.1,1.734,2.367,3.802,1.271,7.578C44.144,52.665,42.855,51.114,41.744,49.508z"/>
<path fill="#71A81B" d="M30.361,51.72c0.155,1.975,0.787,5.917-2.867,9.477c2.949-4.07,2.058-7.375,1.838-9.276
	c-0.572-1.833-4.426-8.216-8.804-10.858C25.345,42.969,29.697,49.845,30.361,51.72z"/>
<path fill="#71A81B" d="M23.339,52.594c-0.728,4.92-3.497,6.474-3.497,6.474s1.674-1.809,2.531-6.288
	c-1.058-2.069-3.991-6.502-8.966-5.878C18.352,45.418,22.103,50.467,23.339,52.594z"/>
<path fill="#699C19" d="M58.468,42.494c-16.088,12.33-43.688,11.19-50.855,10.63c7.56,0.161,39.552-3.104,50.848-14.131
	C58.95,38.514,60.285,41.102,58.468,42.494z"/>
</svg>
