<?xml version="1.0" encoding="utf-8"?>
<!-- Generator: Adobe Illustrator 15.0.0, SVG Export Plug-In . SVG Version: 6.00 Build 0)  -->
<!DOCTYPE svg PUBLIC "-//W3C//DTD SVG 1.1//EN" "http://www.w3.org/Graphics/SVG/1.1/DTD/svg11.dtd" [
	<!ENTITY ns_flows "http://ns.adobe.com/Flows/1.0/">
	<!ENTITY ns_extend "http://ns.adobe.com/Extensibility/1.0/">
	<!ENTITY ns_ai "http://ns.adobe.com/AdobeIllustrator/10.0/">
	<!ENTITY ns_graphs "http://ns.adobe.com/Graphs/1.0/">
]>
<svg version="1.1" id="Layer_1" xmlns:x="&ns_extend;" xmlns:i="&ns_ai;" xmlns:graph="&ns_graphs;"
	 xmlns="http://www.w3.org/2000/svg" xmlns:xlink="http://www.w3.org/1999/xlink" xmlns:a="http://ns.adobe.com/AdobeSVGViewerExtensions/3.0/"
	 x="0px" y="0px" width="64px" height="64px" viewBox="0 0 64 64" enable-background="new 0 0 64 64" xml:space="preserve">
<radialGradient id="SVGID_1_" cx="25.875" cy="24.5039" r="31.8935" gradientTransform="matrix(1 0 0 1.003 0 0.9633)" gradientUnits="userSpaceOnUse">
	<stop  offset="0.4" style="stop-color:#F5000D"/>
	<stop  offset="0.6175" style="stop-color:#F2010D"/>
	<stop  offset="0.7583" style="stop-color:#EA040E"/>
	<stop  offset="0.8774" style="stop-color:#DB0A10"/>
	<stop  offset="0.9838" style="stop-color:#C61213"/>
	<stop  offset="1" style="stop-color:#C21413"/>
	<a:midPointStop  offset="0.4" style="stop-color:#F5000D"/>
	<a:midPointStop  offset="0.7879" style="stop-color:#F5000D"/>
	<a:midPointStop  offset="1" style="stop-color:#C21413"/>
</radialGradient>
<path fill="url(#SVGID_1_)" d="M31.873,13.657C29.564,13.657,3,4.854,3,29.919C3,45.134,18.711,62,25.568,62
	c3.111,0,4.5-1.996,6.305-1.996c1.838,0,2.158,1.996,6.141,1.996C44.873,62,61,43.387,61,29.919
	C61,4.829,34.182,13.657,31.873,13.657z"/>
<radialGradient id="SVGID_2_" cx="31.9761" cy="15.9727" r="12.2206" gradientTransform="matrix(1 0 0 0.4524 0 9.7582)" gradientUnits="userSpaceOnUse">
	<stop  offset="0" style="stop-color:#B30100"/>
	<stop  offset="1" style="stop-color:#C21413;stop-opacity:0"/>
	<a:midPointStop  offset="0" style="stop-color:#B30100"/>
	<a:midPointStop  offset="0.5" style="stop-color:#B30100"/>
	<a:midPointStop  offset="1" style="stop-color:#C21413;stop-opacity:0"/>
</radialGradient>
<path fill="url(#SVGID_2_)" d="M32,17.868c6.573,0,6.19-3.344,21.237-3.704c-8.112-4.195-19.87-0.507-21.364-0.507
	c-1.493,0-13.122-3.668-21.158,0.506C25.81,14.515,25.419,17.868,32,17.868z"/>
<radialGradient id="SVGID_3_" cx="284.9482" cy="-516.1475" r="13.6328" gradientTransform="matrix(1.0508 -0.1028 -0.1778 -1.0674 -373.0879 -493.6691)" gradientUnits="userSpaceOnUse">
	<stop  offset="0" style="stop-color:#FF4F42"/>
	<stop  offset="1" style="stop-color:#FF4F42;stop-opacity:0"/>
	<a:midPointStop  offset="0" style="stop-color:#FF4F42"/>
	<a:midPointStop  offset="0.5" style="stop-color:#FF4F42"/>
	<a:midPointStop  offset="1" style="stop-color:#FF4F42;stop-opacity:0"/>
</radialGradient>
<path fill="url(#SVGID_3_)" d="M32.453,26.574c-1.338-8.037-8.838-13.924-16.747-13.149C7.791,14.198,2.461,21.339,3.799,29.376
	c1.34,8.038,8.84,13.925,16.752,13.15C28.464,41.754,33.793,34.611,32.453,26.574z"/>
<path fill="#449C00" d="M31.56,13.63C46.364,15.757,50.227,2.135,50.227,2.135S35.926,8.678,31.56,13.63z"/>
<path fill="#56AB15" d="M31.56,13.63C36.563,9.247,50.227,2.135,50.227,2.135S34.22-0.101,31.56,13.63z"/>
<path fill="#785647" d="M32.67,17.868C30.121,15.323,31,5.754,32.949,5.754C36.176,5.754,30.561,9.065,32.67,17.868z"/>
</svg>
