<?xml version="1.0" encoding="utf-8"?>
<!-- Generator: Adobe Illustrator 15.0.0, SVG Export Plug-In . SVG Version: 6.00 Build 0)  -->
<!DOCTYPE svg PUBLIC "-//W3C//DTD SVG 1.1//EN" "http://www.w3.org/Graphics/SVG/1.1/DTD/svg11.dtd">
<svg version="1.1" id="Layer_1" xmlns="http://www.w3.org/2000/svg" xmlns:xlink="http://www.w3.org/1999/xlink" x="0px" y="0px"
	 width="64px" height="64px" viewBox="0 0 64 64" enable-background="new 0 0 64 64" xml:space="preserve">
<path fill="#FFE8BB" d="M17.641,2.014c-7.297,0.472-10.093,17.375,1.512,40.219l9.826-12.175
	C19.136,14.232,25.265,1.521,17.641,2.014z"/>
<path fill="#F2DCB2" d="M27.278,27.063C14.47,38.14,9.549,5.646,17.641,2.014C11.004,2,4.952,15.314,14.771,35.349
	C14.771,35.349,26.539,42.233,27.278,27.063z"/>
<path fill="#FFE12C" d="M51.956,39.114c-4.084,2.676-10.438-13.802-21.755-11.538c0,11.737,11.52,19.897,26.573,18.618
	c0.785-0.066,1.715,0.561,3.31-0.053c1.204,0.613,1.204,1.48,1.204,1.48C47.547,61.317,23.17,47.886,22.903,34.637
	C26.819,17.007,49.459,31.917,51.956,39.114z"/>
<path fill="#F9C802" d="M61.014,47.284c-9.751,8.908-31.128,5.879-38.114-13.148c-3.172-8.638-21.994-9.717-9.503,19.432
	c-3.848-14.049-2.243-24.878,0.925-17.439c10.771,25.283,31.359,25.85,42.777,17.58c3.171-2.297,1.96-2.629,4.878-5.24
	L61.014,47.284z"/>
<path fill="#FFE8BB" d="M16.269,28.859c-14.139,3.07,3.819,36.041-2.867,32.935C1.076,56.069-5.532,25.608,16.269,28.859z"/>
<path fill="#FFE8BB" d="M48.724,37.956c-2.253-1.73-12.986-17.661-23.525-8.515C41.052,8.551,60.254,46.817,48.724,37.956z"/>
<path fill="#F9C802" d="M24.935,32.918c0,0,0.311-3.575,5.267-5.341c0.233,3.779,1.353,6.643,1.353,6.643
	C29.372,30.137,24.935,32.918,24.935,32.918z"/>
<path fill="#785647" d="M60.084,46.142c1.204,0.785,1.578,3.027,1.893,2.326C62.19,47.989,60.884,46.255,60.084,46.142z"/>
</svg>
