<?xml version="1.0" encoding="utf-8"?>
<!-- Generator: Adobe Illustrator 15.0.0, SVG Export Plug-In . SVG Version: 6.00 Build 0)  -->
<!DOCTYPE svg PUBLIC "-//W3C//DTD SVG 1.1//EN" "http://www.w3.org/Graphics/SVG/1.1/DTD/svg11.dtd" [
	<!ENTITY ns_flows "http://ns.adobe.com/Flows/1.0/">
	<!ENTITY ns_extend "http://ns.adobe.com/Extensibility/1.0/">
	<!ENTITY ns_ai "http://ns.adobe.com/AdobeIllustrator/10.0/">
	<!ENTITY ns_graphs "http://ns.adobe.com/Graphs/1.0/">
]>
<svg version="1.1" id="Layer_1" xmlns:x="&ns_extend;" xmlns:i="&ns_ai;" xmlns:graph="&ns_graphs;"
	 xmlns="http://www.w3.org/2000/svg" xmlns:xlink="http://www.w3.org/1999/xlink" xmlns:a="http://ns.adobe.com/AdobeSVGViewerExtensions/3.0/"
	 x="0px" y="0px" width="64px" height="64px" viewBox="0 0 64 64" enable-background="new 0 0 64 64" xml:space="preserve">
<linearGradient id="SVGID_1_" gradientUnits="userSpaceOnUse" x1="2" y1="49.5" x2="52" y2="49.5">
	<stop  offset="0" style="stop-color:#E6EBEF"/>
	<stop  offset="0.2857" style="stop-color:#E2E8EC"/>
	<stop  offset="0.5605" style="stop-color:#D7DFE3"/>
	<stop  offset="0.83" style="stop-color:#C3CFD3"/>
	<stop  offset="1" style="stop-color:#B3C2C6"/>
	<a:midPointStop  offset="0" style="stop-color:#E6EBEF"/>
	<a:midPointStop  offset="0.7152" style="stop-color:#E6EBEF"/>
	<a:midPointStop  offset="1" style="stop-color:#B3C2C6"/>
</linearGradient>
<path fill="url(#SVGID_1_)" d="M27,37H2c0,20.418,15.209,25,25,25s25-4.582,25-25H27z"/>
<linearGradient id="SVGID_2_" gradientUnits="userSpaceOnUse" x1="2" y1="44.084" x2="52" y2="44.084">
	<stop  offset="0" style="stop-color:#F5000D"/>
	<stop  offset="0.2714" style="stop-color:#F2010D"/>
	<stop  offset="0.5093" style="stop-color:#E7060F"/>
	<stop  offset="0.7339" style="stop-color:#D50D11"/>
	<stop  offset="0.903" style="stop-color:#C21413"/>
	<a:midPointStop  offset="0" style="stop-color:#F5000D"/>
	<a:midPointStop  offset="0.7333" style="stop-color:#F5000D"/>
	<a:midPointStop  offset="0.903" style="stop-color:#C21413"/>
</linearGradient>
<path fill="url(#SVGID_2_)" d="M52,37c0,9.75-8.223,14.168-25,14.168C10.225,51.168,2,46.75,2,37H52z"/>
<path fill="#E6EBEF" d="M27,26.595c13.809,0,25,4.423,25,10.405c0,5.984-11.191,10.834-25,10.834c-13.807,0-25-4.85-25-10.834
	C2,31.018,13.193,26.595,27,26.595z"/>
<linearGradient id="SVGID_3_" gradientUnits="userSpaceOnUse" x1="3.666" y1="37.001" x2="50.334" y2="37.001">
	<stop  offset="0" style="stop-color:#B3C2C6"/>
	<stop  offset="0.2515" style="stop-color:#C0CCD0"/>
	<stop  offset="0.6182" style="stop-color:#CBD5DA"/>
	<stop  offset="1" style="stop-color:#CFD8DD"/>
	<a:midPointStop  offset="0" style="stop-color:#B3C2C6"/>
	<a:midPointStop  offset="0.2848" style="stop-color:#B3C2C6"/>
	<a:midPointStop  offset="1" style="stop-color:#CFD8DD"/>
</linearGradient>
<path fill="url(#SVGID_3_)" d="M27.002,27.834c-12.887,0-23.336,4.104-23.336,9.166s10.449,9.168,23.336,9.168
	S50.334,42.062,50.334,37S39.889,27.834,27.002,27.834z"/>
<path fill="#E3BB59" d="M27.002,31.168c-11.438,0-20.945,3.233-22.941,7.5c1.996,4.264,11.504,7.5,22.941,7.5
	c11.436,0,20.943-3.236,22.939-7.5C47.945,34.401,38.439,31.168,27.002,31.168z"/>
<path fill="#FDCA47" d="M40.795,37.174c-1.723,0.572-4.221,1.477-5.803,1.154c-0.916-0.186-0.492-0.803,0.412-1.054
	c0.877-0.242,1.951-0.299,2.865-0.382c0.746-0.067,1.576-0.259,2.008-0.793c0.324-0.401,0.074-0.887-0.309-1.188
	c-0.617-0.482-1.602-0.582-2.418-0.596c-0.479-0.007-0.477,0.593,0,0.602c0.469,0.006,2.299,0.123,2.119,0.813
	c-0.17,0.657-2.014,0.61-2.611,0.687c-1.063,0.134-2.719,0.417-3.291,1.266c-0.475,0.704,0.521,1.102,1.232,1.168
	c2.014,0.19,4.178-0.498,5.994-1.1C41.43,37.606,41.24,37.027,40.795,37.174L40.795,37.174z"/>
<path fill="#FDCA47" d="M23.689,42.374c-1.723,0.571-4.225,1.476-5.805,1.154c-0.914-0.186-0.492-0.803,0.412-1.052
	c0.877-0.244,1.949-0.3,2.865-0.382c0.746-0.068,1.576-0.26,2.008-0.795c0.324-0.403,0.074-0.887-0.309-1.188
	c-0.617-0.482-1.602-0.583-2.418-0.595c-0.479-0.008-0.479,0.591,0,0.599c0.469,0.008,2.299,0.124,2.119,0.816
	c-0.17,0.655-2.014,0.608-2.613,0.685c-1.061,0.134-2.719,0.417-3.291,1.266c-0.475,0.703,0.523,1.101,1.234,1.169
	c2.012,0.189,4.178-0.499,5.996-1.101C24.322,42.806,24.133,42.228,23.689,42.374L23.689,42.374z"/>
<path fill="#FDCA47" d="M42.207,34.547c-3.045-1.985-9.557-1.968-13.582-1.699c-2.48,0.166-7.805,0.573-8.74,2.979
	c-0.793,2.035,4.102,1.645,5.107,0.538c0.283-0.312-0.277-0.548-0.639-0.303c-1.736,1.169-5.111,0.733-3.221-0.749
	c0.719-0.566,1.83-0.881,2.742-1.131c2.621-0.723,5.484-0.84,8.229-0.864c2.539-0.022,5.107,0.21,7.527,0.843
	c0.861,0.225,4.176,1.553,1.848,2.114c-0.461,0.109-0.273,0.65,0.195,0.578C42.67,36.697,44.115,35.792,42.207,34.547z"/>
<path fill="#FDCA47" d="M16.217,33.358c1.721-0.572,4.225-1.476,5.803-1.155c0.914,0.188,0.492,0.804-0.412,1.055
	c-0.879,0.241-1.949,0.298-2.865,0.381c-0.746,0.068-1.576,0.259-2.006,0.793c-0.324,0.403-0.076,0.888,0.307,1.188
	c0.617,0.482,1.604,0.582,2.418,0.596c0.48,0.008,0.479-0.593,0-0.6c-0.469-0.008-2.299-0.123-2.119-0.815
	c0.17-0.657,2.014-0.61,2.613-0.685c1.063-0.135,2.719-0.418,3.291-1.267c0.473-0.703-0.523-1.103-1.234-1.169
	c-2.014-0.189-4.176,0.498-5.994,1.101C15.582,32.926,15.773,33.505,16.217,33.358L16.217,33.358z"/>
<path fill="#FDCA47" d="M14.025,37.265c3.043,1.986,9.557,1.97,13.582,1.701c2.48-0.166,7.805-0.574,8.742-2.98
	c0.793-2.033-4.102-1.645-5.109-0.538c-0.285,0.313,0.277,0.547,0.641,0.302c1.734-1.166,5.107-0.733,3.219,0.751
	c-0.719,0.566-1.83,0.879-2.744,1.13c-2.617,0.722-5.484,0.84-8.227,0.864c-2.539,0.023-5.105-0.21-7.527-0.842
	c-0.861-0.225-4.176-1.554-1.846-2.114c0.459-0.11,0.271-0.652-0.197-0.578C13.563,35.115,12.117,36.021,14.025,37.265z"/>
<path fill="#FDCA47" d="M22.938,36.442c0.93,0.311,2.939,0.313,4.377,0.206c2.363-0.178,4.734-0.659,6.855-1.533l0,0
	c0.426-0.176,0.803,0.342,0.375,0.518c-2.922,1.202-6.33,1.811-9.602,1.602c-0.58-0.038-3.852-0.005-3.217-1.411
	c0.723-1.597,4.848-0.604,7.068-0.604c0.939,0,2.365-0.229,2.365-1.228c0-0.649-1.498-0.924-2.252-1.016
	c-0.877-0.106-2.457-0.317-3.293,0.107c-0.816,0.417,1.17,0.791,2.799,0.791c0.477,0,0.494,0.601,0,0.601
	c-0.932,0-3.303,0.032-3.793-0.871c-0.313-0.566,0.303-0.957,0.918-1.138c1.594-0.472,7.002-0.17,6.426,1.675
	c-0.559,1.781-2.998,1.881-5.986,1.447C23.215,35.191,21.428,35.939,22.938,36.442z"/>
<path fill="#FDCA47" d="M44.832,39.979c-0.992,0.945-2.396,2.383-3.701,2.465c-0.756,0.048-0.736-0.626-0.191-1.075
	c0.527-0.435,1.285-0.744,1.916-1.04c0.514-0.243,1.031-0.62,1.094-1.219c0.049-0.45-0.359-0.839-0.781-1.026
	c-0.676-0.299-1.443-0.152-2.045,0.03c-0.354,0.107-0.072,0.664,0.281,0.555c0.346-0.105,1.738-0.438,1.93,0.246
	c0.184,0.648-1.186,1.049-1.588,1.263c-0.713,0.379-1.793,1.04-1.814,1.964c-0.016,0.766,0.898,0.894,1.449,0.785
	c1.561-0.308,2.82-1.465,3.867-2.459C45.5,40.228,45.088,39.737,44.832,39.979L44.832,39.979z"/>
<path fill="#FDCA47" d="M43.461,37.804c-3.152-1.108-7.904,0.473-10.723,1.689c-1.734,0.748-5.436,2.404-4.992,4.859
	c0.371,2.072,3.766,0.537,3.984-0.731c0.061-0.354-0.459-0.439-0.609-0.124c-0.723,1.498-3.393,1.906-2.705,0.078
	c0.262-0.696,0.928-1.254,1.477-1.704c1.576-1.299,3.615-2.098,5.609-2.778c1.846-0.633,3.832-1.033,5.896-1.03
	c0.736,0,3.779,0.437,2.34,1.514c-0.283,0.214,0.105,0.67,0.414,0.489C44.807,39.684,45.441,38.497,43.461,37.804z"/>
<path fill="#FDCA47" d="M26.652,44.074c-1.424-2.265-5.924-3.383-8.793-3.849c-1.764-0.288-5.576-0.858-7.037,1.082
	c-1.238,1.639,2.271,2.151,3.342,1.36c0.301-0.224-0.006-0.527-0.34-0.376c-1.594,0.718-3.773-0.248-1.967-1.217
	c0.688-0.37,1.559-0.449,2.275-0.51c2.051-0.174,4.066,0.222,5.969,0.678c1.76,0.42,3.451,1.072,4.906,2.046
	c0.521,0.346,2.354,2.085,0.557,2.169c-0.354,0.017-0.408,0.521-0.061,0.539C26.244,46.036,27.549,45.495,26.652,44.074z"/>
<path fill="#FDCA47" d="M38.748,39.456c-0.826-0.063-2.297,0.416-3.297,0.861c-1.645,0.733-3.152,1.748-4.295,3.067l0,0
	c-0.229,0.264-0.744-0.124-0.514-0.39c1.57-1.815,3.777-3.197,6.27-3.79c0.439-0.104,2.816-0.921,3.01,0.533
	c0.219,1.654-3.26,1.725-4.883,2.26c-0.686,0.225-1.623,0.778-1.154,1.702c0.305,0.603,1.527,0.497,2.119,0.399
	c0.691-0.112,1.947-0.295,2.357-0.891c0.4-0.58-1.225-0.452-2.416-0.059c-0.35,0.113-0.643-0.438-0.281-0.556
	c0.682-0.224,2.4-0.824,3.182-0.106c0.492,0.45,0.227,0.96-0.139,1.274c-0.945,0.82-5.041,1.841-5.482-0.006
	c-0.424-1.783,1.313-2.462,3.699-2.779C39.133,40.682,40.086,39.559,38.748,39.456z"/>
<path fill="#FDCA47" d="M10.813,35.878c1.846-0.215,4.545-0.599,5.979,0.026c0.832,0.36,0.232,0.876-0.719,0.938
	c-0.924,0.063-1.98-0.094-2.895-0.194c-0.744-0.08-1.607-0.06-2.186,0.374c-0.438,0.326-0.342,0.845-0.063,1.213
	c0.451,0.589,1.379,0.879,2.164,1.053c0.463,0.103,0.643-0.479,0.182-0.581c-0.451-0.099-2.191-0.571-1.807-1.209
	c0.365-0.602,2.137-0.192,2.742-0.148c1.068,0.08,2.762,0.132,3.576-0.577c0.67-0.589-0.176-1.172-0.844-1.377
	c-1.895-0.58-4.201-0.341-6.145-0.116C10.33,35.335,10.34,35.934,10.813,35.878L10.813,35.878z"/>
<path fill="#FDCA47" d="M7.701,39.303c2.348,2.524,8.668,3.794,12.652,4.326c2.455,0.329,7.74,0.983,9.381-1.165
	c1.385-1.814-3.479-2.404-4.793-1.529c-0.369,0.246,0.104,0.587,0.531,0.42c2.037-0.79,5.174,0.297,2.895,1.362
	c-0.869,0.406-2.043,0.492-3.004,0.556c-2.758,0.183-5.572-0.269-8.24-0.785c-2.469-0.479-4.887-1.211-7.043-2.301
	c-0.77-0.389-3.576-2.332-1.15-2.415c0.48-0.017,0.463-0.578-0.014-0.601C7.902,37.126,6.229,37.718,7.701,39.303z"/>
<polygon fill="#8A6859" points="62,9.219 61.264,10.353 22.717,3.406 22.67,2.115 62,7.749 "/>
<polygon fill="#785647" points="61.264,8.466 62,7.749 22.686,2 21.811,2.438 "/>
<path fill="#ED9D00" d="M24,4.749v15c0,0.966,1,0.966,1,0v-15H24z"/>
<path fill="#ED9D00" d="M26.383,4.047v10c0,0.966,1,0.966,1,0v-10H26.383z"/>
<path fill="#ED9D00" d="M30,4.749v20c0,0.966,1,0.966,1,0v-19.2L30,4.749z"/>
<polygon fill="#8A6859" points="59,15.293 57.982,16.481 20.357,3.522 20.357,2.522 59,13.749 "/>
<polygon fill="#785647" points="59,13.749 21.107,2.081 20.357,2.522 57.982,14.771 "/>
<path fill="#FDCA47" d="M21,8.613c0,0,0,16,0,20.136c0,0.967,1,0.967,1,0c0-2.277,0-17.555,0-19.831c0-6.644,3-5.669,3-5.669
	C25,2.726,21,0.871,21,8.613z"/>
<path fill="#FDCA47" d="M27,8.673c0,6.025,0,7.051,0,13.077c0,0.967,1,0.967,1,0c0-4.104,0-7.896,0-12c0-4.001,1.264-5.203,3-4.623
	C31.004,4.454,27,2.531,27,8.673z"/>
<path fill="#FDCA47" d="M26.029,6.203c-0.266-1.078-0.119-2.442,1.031-3.672c0.391-0.416,1.18-0.375,1.094,0.269
	c-0.891,0.325-1.275,3.497-1.275,3.497C26.727,6.91,26.131,6.614,26.029,6.203z"/>
<path fill="#FDCA47" d="M24.66,5.607c-0.289-0.983-0.174-2.216,0.941-3.303c0.379-0.368,1.164-0.313,1.094,0.269
	c-0.879,0.273-1.188,3.139-1.188,3.139C25.371,6.264,24.771,5.982,24.66,5.607z"/>
<linearGradient id="SVGID_4_" gradientUnits="userSpaceOnUse" x1="15.8887" y1="35.4189" x2="15.8887" y2="12.6733">
	<stop  offset="0" style="stop-color:#A9B0B3"/>
	<stop  offset="0.3157" style="stop-color:#BDC4C7"/>
	<stop  offset="0.9614" style="stop-color:#EFF6FC"/>
	<stop  offset="1" style="stop-color:#F2F9FF"/>
	<a:midPointStop  offset="0" style="stop-color:#A9B0B3"/>
	<a:midPointStop  offset="0.5455" style="stop-color:#A9B0B3"/>
	<a:midPointStop  offset="1" style="stop-color:#F2F9FF"/>
</linearGradient>
<path opacity="0.6" fill="url(#SVGID_4_)" enable-background="new    " d="M16.846,35.419c0,0,2.58-4.146-2.961-9.863
	c-6.08-6.287,2.961-8.706,2.961-12.883c0,0,1.459,1.663-0.58,5.604C13.365,23.85,25.455,24.738,16.846,35.419z"/>
<linearGradient id="SVGID_5_" gradientUnits="userSpaceOnUse" x1="8.4355" y1="35.1191" x2="8.4355" y2="18.5767">
	<stop  offset="0" style="stop-color:#A9B0B3"/>
	<stop  offset="0.3157" style="stop-color:#BDC4C7"/>
	<stop  offset="0.9614" style="stop-color:#EFF6FC"/>
	<stop  offset="1" style="stop-color:#F2F9FF"/>
	<a:midPointStop  offset="0" style="stop-color:#A9B0B3"/>
	<a:midPointStop  offset="0.5455" style="stop-color:#A9B0B3"/>
	<a:midPointStop  offset="1" style="stop-color:#F2F9FF"/>
</linearGradient>
<path opacity="0.6" fill="url(#SVGID_5_)" enable-background="new    " d="M9.135,35.119c0,0,1.9-2.915-2.219-7.176
	c-4.48-4.632,2.219-6.327,2.219-9.367c0,0,1.09,1.21-0.439,4.074C6.525,26.703,15.596,27.344,9.135,35.119z"/>
<linearGradient id="SVGID_6_" gradientUnits="userSpaceOnUse" x1="25.562" y1="35.1191" x2="25.562" y2="18.5767">
	<stop  offset="0" style="stop-color:#A9B0B3"/>
	<stop  offset="0.3157" style="stop-color:#BDC4C7"/>
	<stop  offset="0.9614" style="stop-color:#EFF6FC"/>
	<stop  offset="1" style="stop-color:#F2F9FF"/>
	<a:midPointStop  offset="0" style="stop-color:#A9B0B3"/>
	<a:midPointStop  offset="0.5455" style="stop-color:#A9B0B3"/>
	<a:midPointStop  offset="1" style="stop-color:#F2F9FF"/>
</linearGradient>
<path opacity="0.6" fill="url(#SVGID_6_)" enable-background="new    " d="M24.865,18.576c0,0-1.881,2.937,2.221,7.176
	c4.479,4.632-2.221,6.327-2.221,9.367c0,0-1.09-1.21,0.439-4.074C27.465,26.992,18.395,26.341,24.865,18.576z"/>
<path fill="#529320" d="M25.257,36.487c0,0,0.043,1.937,2.37,1.314l0.082-0.605C25.649,37.35,25.677,36.094,25.257,36.487z"/>
<path fill="#529320" d="M33.416,42.815c-1.391,1.508-2.441,0.54-2.416,1.121c-0.001,0.001,1.687,1.438,2.871-0.607L33.416,42.815z"
	/>
<path fill="#529320" d="M39.679,38.418c0.15-1.939,1.399-1.492,1.068-2.009c0-0.002-1.939-0.614-1.658,1.729L39.679,38.418z"/>
<path fill="#529320" d="M18.305,40.336l-0.912-0.106c-0.102,1.881-2.018,1.794-1.484,2.198
	C15.907,42.429,18.883,42.483,18.305,40.336z"/>
<path fill="#529320" d="M8.466,37.298l0.584,0.638c1.231-1.277,2.542-0.034,2.411-0.651C11.463,37.284,9.379,35.412,8.466,37.298z"
	/>
<path fill="#529320" d="M45.348,37.377l-0.553,0.417c1.863,1.062,0.838,2.009,1.508,1.948C46.305,39.742,47.814,38.23,45.348,37.377
	z"/>
<path fill="#FF6A00" d="M14.111,36.744c-0.191,0.12-1.941-0.408-2.094-0.723c-0.065-0.134,0.195-1.208,0.461-1.337
	c0.215-0.104,1.984,0.422,2.095,0.724C14.682,35.709,14.342,36.6,14.111,36.744z"/>
<path fill="#FF6A00" d="M10.441,39.889c-0.063,0.217-1.725,0.979-2.047,0.845c-0.138-0.057-0.654-1.034-0.54-1.307
	c0.091-0.221,1.766-0.998,2.048-0.846C10.184,38.735,10.519,39.628,10.441,39.889z"/>
<path fill="#FF6A00" d="M22.599,38.146c-0.063,0.217-1.725,0.979-2.047,0.845c-0.138-0.057-0.654-1.034-0.54-1.307
	c0.091-0.221,1.766-0.998,2.048-0.846C22.341,36.992,22.676,37.885,22.599,38.146z"/>
<path fill="#FF6A00" d="M34.473,41.146c-0.138,0.179-1.963,0.283-2.214,0.04c-0.107-0.103-0.232-1.201-0.026-1.413
	c0.165-0.173,2.008-0.286,2.215-0.041C34.653,39.979,34.64,40.933,34.473,41.146z"/>
<path fill="#FF6A00" d="M43.163,41.064c-0.03,0.223-1.558,1.227-1.897,1.143c-0.144-0.035-0.801-0.924-0.729-1.21
	c0.057-0.232,1.595-1.253,1.896-1.145C42.735,39.963,43.201,40.796,43.163,41.064z"/>
<path fill="#FF6A00" d="M36.246,37.17c-0.224-0.024-1.262-1.529-1.186-1.871c0.032-0.144,0.905-0.821,1.192-0.757
	c0.234,0.052,1.289,1.566,1.188,1.87C37.337,36.718,36.516,37.202,36.246,37.17z"/>
<path fill="#FF6A00" d="M30.025,34.985c-0.197,0.108-1.909-0.533-2.042-0.857c-0.056-0.137,0.273-1.191,0.546-1.303
	c0.222-0.091,1.953,0.549,2.043,0.856C30.662,33.991,30.265,34.858,30.025,34.985z"/>
<path fill="#FF6A00" d="M24.946,43.955c-0.225-0.011-1.347-1.454-1.29-1.8c0.023-0.146,0.856-0.872,1.146-0.824
	c0.236,0.039,1.377,1.49,1.292,1.8C26.01,43.441,25.217,43.973,24.946,43.955z"/>
</svg>
