<?xml version="1.0" encoding="utf-8"?>
<!-- Generator: Adobe Illustrator 15.0.0, SVG Export Plug-In . SVG Version: 6.00 Build 0)  -->
<!DOCTYPE svg PUBLIC "-//W3C//DTD SVG 1.1//EN" "http://www.w3.org/Graphics/SVG/1.1/DTD/svg11.dtd" [
	<!ENTITY ns_flows "http://ns.adobe.com/Flows/1.0/">
	<!ENTITY ns_extend "http://ns.adobe.com/Extensibility/1.0/">
	<!ENTITY ns_ai "http://ns.adobe.com/AdobeIllustrator/10.0/">
	<!ENTITY ns_graphs "http://ns.adobe.com/Graphs/1.0/">
]>
<svg version="1.1" id="Layer_1" xmlns:x="&ns_extend;" xmlns:i="&ns_ai;" xmlns:graph="&ns_graphs;"
	 xmlns="http://www.w3.org/2000/svg" xmlns:xlink="http://www.w3.org/1999/xlink" xmlns:a="http://ns.adobe.com/AdobeSVGViewerExtensions/3.0/"
	 x="0px" y="0px" width="64px" height="64px" viewBox="0 0 64 64" enable-background="new 0 0 64 64" xml:space="preserve">
<path fill="#C48354" d="M32.487,61.796c7.253-0.913,26.156-8.866,27.431-12.161c1.377-3.558-0.984-16.362-0.984-19.635
	c0-2.729,2.844-3.86,2.844-7.364C62.283,15.349,48.084,12,41.232,12C32.382,12,4,14.688,2.033,28.073L32.487,61.796z"/>
<path fill="#9E6238" d="M60.549,26.476c-4.521-1.866-31.323,1.123-26.652,12.832c0,0,14.713-9.308,25.037-9.308
	C58.934,28.117,60.549,26.476,60.549,26.476z"/>
<path fill="#B36F3F" d="M57.463,16.165c6.811,4.831-16.684,9.529-21.52,8.813l-3.01,12.778c0,0,12.967-8.912,27.616-11.28
	C62.404,23.907,63.455,19.529,57.463,16.165z"/>
<path fill="#B36F3F" d="M19.089,61.076c3.198-0.016,15.344,2.839,16.756-1.41c2.066-6.213-0.674-20.53-0.674-23.393
	c0-3.644,2.844-5.188,2.844-8.24c0-7.098-9.383-10.072-18.007-10.072C11.38,17.961,2,20.364,2,28.033
	c0,3.053,2.844,5.342,2.844,8.24c0,2.862-2.631,14.161-0.931,21.894C5.191,63.98,15.236,61.093,19.089,61.076z"/>
<path fill="#FFEFDB" d="M19.146,60.197c2.999-0.016,14.382,2.719,15.707-1.353c1.937-5.953-0.632-19.676-0.632-22.418
	c0-3.491,2.666-4.971,2.666-7.895c0-6.804-8.795-9.654-16.878-9.654c-8.087,0-16.879,2.304-16.879,9.654
	c0,2.924,2.665,5.118,2.665,7.895c0,2.742-2.467,13.572-0.871,20.981C6.121,62.98,15.536,60.213,19.146,60.197z"/>
<path fill="#FFF5E8" d="M32.018,34.756c0,1.154-1.687,1.154-1.687,0C30.332,33.6,32.018,33.6,32.018,34.756z"/>
<path fill="#FFF5E8" d="M27.871,50.397c0,1.154-1.688,1.154-1.688,0C26.183,49.241,27.871,49.241,27.871,50.397z"/>
<path fill="#FFF5E8" d="M11.962,47.673c0,1.156-1.687,1.156-1.687,0C10.276,46.518,11.962,46.518,11.962,47.673z"/>
<path fill="#FFF5E8" d="M23.585,32.474c0,1.157-1.688,1.157-1.688,0C21.898,31.319,23.585,31.319,23.585,32.474z"/>
<path fill="#FFF5E8" d="M16.655,26.464c0,1.154-1.687,1.154-1.687,0C14.968,25.308,16.655,25.308,16.655,26.464z"/>
<path fill="#FFF5E8" d="M9.685,29.788c0,1.155-1.688,1.155-1.688,0C7.998,28.631,9.685,28.631,9.685,29.788z"/>
<path fill="#FFF5E8" d="M29.646,26.612c0,1.183-1.727,1.183-1.727,0S29.646,25.43,29.646,26.612z"/>
<path fill="#FFF5E8" d="M19.714,42.653c0,1.181-1.729,1.181-1.729,0C17.986,41.469,19.714,41.469,19.714,42.653z"/>
<path fill="#FFF5E8" d="M12.708,37.594c0,1.42-2.072,1.42-2.072,0S12.708,36.174,12.708,37.594z"/>
<path fill="#FFF5E8" d="M12.537,55.179c0,1.181-1.727,1.181-1.727,0C10.81,53.994,12.537,53.994,12.537,55.179z"/>
<path fill="#FFF5E8" d="M31.173,55.179c0,1.419-2.071,1.419-2.071,0C29.102,53.757,31.173,53.757,31.173,55.179z"/>
<path fill="#FFF5E8" d="M19.693,50.994c0,1.156-1.688,1.156-1.688,0C18.005,49.839,19.693,49.839,19.693,50.994z"/>
<path fill="#FFF5E8" d="M25.831,39.349c0,1.156-1.687,1.156-1.687,0C24.144,38.193,25.831,38.193,25.831,39.349z"/>
<path fill="#FFF5E8" d="M23.087,23.491c0,1.184-1.727,1.184-1.727,0S23.087,22.308,23.087,23.491z"/>
<path fill="#FFF5E8" d="M17.917,34.064c0,1.183-1.726,1.183-1.726,0C16.192,32.881,17.917,32.881,17.917,34.064z"/>
<path fill="#FFF5E8" d="M10.602,24.379c0,1.183-1.728,1.183-1.728,0C8.875,23.197,10.602,23.197,10.602,24.379z"/>
<path fill="#FFF5E8" d="M23.607,56.468c0,1.185-1.729,1.185-1.729,0C21.878,55.285,23.607,55.285,23.607,56.468z"/>
<path fill="#FFF5E8" d="M31.001,43.803c0,1.184-1.727,1.184-1.727,0C29.275,42.62,31.001,42.62,31.001,43.803z"/>
</svg>
