<?xml version="1.0" encoding="utf-8"?>
<!-- Generator: Adobe Illustrator 15.0.0, SVG Export Plug-In . SVG Version: 6.00 Build 0)  -->
<!DOCTYPE svg PUBLIC "-//W3C//DTD SVG 1.1//EN" "http://www.w3.org/Graphics/SVG/1.1/DTD/svg11.dtd" [
	<!ENTITY ns_flows "http://ns.adobe.com/Flows/1.0/">
	<!ENTITY ns_extend "http://ns.adobe.com/Extensibility/1.0/">
	<!ENTITY ns_ai "http://ns.adobe.com/AdobeIllustrator/10.0/">
	<!ENTITY ns_graphs "http://ns.adobe.com/Graphs/1.0/">
]>
<svg version="1.1" id="Layer_1" xmlns:x="&ns_extend;" xmlns:i="&ns_ai;" xmlns:graph="&ns_graphs;"
	 xmlns="http://www.w3.org/2000/svg" xmlns:xlink="http://www.w3.org/1999/xlink" xmlns:a="http://ns.adobe.com/AdobeSVGViewerExtensions/3.0/"
	 x="0px" y="0px" width="64px" height="64px" viewBox="0 0 64 64" enable-background="new 0 0 64 64" xml:space="preserve">
<path fill="#CFD8DD" d="M54.359,38.475c-5.036,4.736-39.559-2.57-40.969-8.113C6.104,1.731,71.417,22.414,54.359,38.475z"/>
<path fill="#F2F5F7" d="M34.045,30.205c-0.803-1.04-5.927,0.478-5.891,2.01C29.183,33.467,34.045,31.492,34.045,30.205z"/>
<path fill="#F2F5F7" d="M20.498,23.021c-1.088-0.725-5.466,2.371-4.95,3.812C16.916,27.686,20.904,24.241,20.498,23.021z"/>
<path fill="#F2F5F7" d="M38.518,36.117c0.717-1.101-2.329-5.548-3.749-5.027C33.925,32.478,37.313,36.527,38.518,36.117z"/>
<path fill="#F2F5F7" d="M48.235,39.108c0.857,0.98,5.949-0.841,5.84-2.355C52.978,35.58,48.174,37.835,48.235,39.108z"/>
<path fill="#F2F5F7" d="M45.619,39.533c1.246,0.379,4.57-3.857,3.672-5.087C47.738,34.023,44.888,38.479,45.619,39.533z"/>
<path fill="#F2F5F7" d="M21.343,30.263c1.301-0.059,3.054-5.174,1.806-6.033C21.545,24.354,20.308,29.515,21.343,30.263z"/>
<path fill="#F2F5F7" d="M16.201,32.173c1.029-0.81-0.443-6.015-1.951-5.984C13.009,27.227,14.931,32.166,16.201,32.173z"/>
<path fill="#F2F5F7" d="M39.674,38.443c1.301-0.025,3.182-5.093,1.953-5.984C40.022,32.541,38.658,37.67,39.674,38.443z"/>
<path fill="#F2F5F7" d="M25.518,31.156c1.22-0.479,1.188-5.825-0.292-6.217C23.735,25.577,24.28,30.798,25.518,31.156z"/>
<path fill="#F2F5F7" d="M26.99,25.384c-0.66,1.138,2.612,5.417,4.002,4.822C31.765,28.775,28.171,24.912,26.99,25.384z"/>
<path fill="#F2F5F7" d="M18.958,25.696c-1.218,0.463-1.331,5.877,0.12,6.304C20.565,31.379,20.168,26.083,18.958,25.696z"/>
<path fill="#F2F5F7" d="M43.657,33.272c-1.221,0.462-1.33,5.876,0.119,6.304C45.264,38.956,44.867,33.66,43.657,33.272z"/>
<path fill="#F76F00" d="M12.702,25.16c-1.272,0.574-0.529-4.329,0-4.935C31.625,8.251,56.787,29.432,62,34.01
	C40.389,46.15,31.477,16.681,12.702,25.16z"/>
<linearGradient id="SVGID_1_" gradientUnits="userSpaceOnUse" x1="37.3506" y1="35.1338" x2="37.3506" y2="10.0005">
	<stop  offset="0" style="stop-color:#FF8226"/>
	<stop  offset="0.6424" style="stop-color:#FFA828"/>
	<stop  offset="1" style="stop-color:#FFB829"/>
	<a:midPointStop  offset="0" style="stop-color:#FF8226"/>
	<a:midPointStop  offset="0.4424" style="stop-color:#FF8226"/>
	<a:midPointStop  offset="1" style="stop-color:#FFB829"/>
</linearGradient>
<path fill="url(#SVGID_1_)" d="M12.702,20.228c7.968-12.455,24.937-12.455,34.06-5.766C55.164,20.62,56.787,29.432,62,34.01
	C41.451,41.072,31.625,12.235,12.702,20.228z"/>
<path opacity="0.3" fill="#FFFFFF" enable-background="new    " d="M54.359,22.848c-10.865,6.416-4.52,11.615-7.891,13.359
	C52.186,34.225,45.195,31.225,54.359,22.848z"/>
<path opacity="0.3" fill="#FFFFFF" enable-background="new    " d="M49.323,16.604c-13.78,5.51-7.729,12.79-10.698,15.854
	C43.045,28.953,38.738,24.285,49.323,16.604z"/>
<path opacity="0.3" fill="#FFFFFF" enable-background="new    " d="M42.135,11.903c-13.781,8.313-7.494,12.972-10.463,16.036
	C36.092,24.436,31.738,21.563,42.135,11.903z"/>
<path opacity="0.3" fill="#FFFFFF" enable-background="new    " d="M33.57,10.034c-12.52,10.045-5.498,11.51-8.464,14.575
	C29.525,21.104,24.705,20.79,33.57,10.034z"/>
<path opacity="0.3" fill="#FFFFFF" enable-background="new    " d="M25.307,10.948c-10.251,9.057-5.361,6.289-7.202,12.724
	C22.549,15.79,17.401,20.005,25.307,10.948z"/>
<path fill="#CFD8DD" d="M44.359,60.475c-5.035,4.736-39.558-2.57-40.969-8.112C-3.896,23.731,61.418,44.415,44.359,60.475z"/>
<path fill="#F2F5F7" d="M23.908,52.286c-0.804-1.039-5.928,0.479-5.891,2.01C19.045,55.548,23.908,53.573,23.908,52.286z"/>
<path fill="#F2F5F7" d="M15.229,56.288c-0.012-1.319-4.999-3.225-5.891-1.981C9.406,55.934,14.458,57.315,15.229,56.288z"/>
<path fill="#F2F5F7" d="M10.828,44.31c-1.087-0.726-5.465,2.371-4.95,3.812C7.246,48.975,11.234,45.53,10.828,44.31z"/>
<path fill="#F2F5F7" d="M28.442,60.728c0.719-1.101-2.329-5.549-3.75-5.028C23.85,57.089,27.239,61.138,28.442,60.728z"/>
<path fill="#F2F5F7" d="M29.238,57.216c0.717-1.101-2.328-5.547-3.748-5.027C24.646,53.576,28.034,57.626,29.238,57.216z"/>
<path fill="#F2F5F7" d="M38.235,61.108c0.857,0.98,5.95-0.841,5.84-2.355C42.978,57.58,38.174,59.835,38.235,61.108z"/>
<path fill="#F2F5F7" d="M35.619,61.533c1.246,0.379,4.57-3.857,3.672-5.087C37.738,56.023,34.888,60.479,35.619,61.533z"/>
<path fill="#F2F5F7" d="M10.431,52.515c1.302-0.059,3.054-5.173,1.806-6.032C10.634,46.607,9.396,51.767,10.431,52.515z"/>
<path fill="#F2F5F7" d="M6.2,54.173c1.03-0.81-0.441-6.014-1.95-5.983C3.008,49.228,4.932,54.166,6.2,54.173z"/>
<path fill="#F2F5F7" d="M30.067,60.95c1.301-0.025,3.182-5.093,1.953-5.984C30.416,55.048,29.052,60.177,30.067,60.95z"/>
<path fill="#F2F5F7" d="M11.696,50.175c0.811,1.031,5.922-0.533,5.871-2.064C16.529,46.867,11.685,48.888,11.696,50.175z"/>
<path fill="#F2F5F7" d="M15.309,58.093c0.812,1.032,5.922-0.533,5.875-2.064C20.142,54.786,15.298,56.804,15.309,58.093z"/>
<path fill="#F2F5F7" d="M17.89,46.694c-0.66,1.138,2.612,5.416,4.002,4.822C22.664,50.086,19.071,46.223,17.89,46.694z"/>
<path fill="#F2F5F7" d="M22.566,54.011c-1.195,0.559-0.94,5.919,0.549,6.22C24.566,59.496,23.81,54.292,22.566,54.011z"/>
<path fill="#F2F5F7" d="M11.717,51.499c-0.347,1.273,3.905,4.547,5.099,3.606C17.194,53.521,12.737,50.733,11.717,51.499z"/>
<path fill="#F2F5F7" d="M8.405,48.029c-1.22,0.463-1.331,5.876,0.12,6.303C10.011,53.711,9.614,48.416,8.405,48.029z"/>
<path fill="#F2F5F7" d="M33.657,55.272c-1.22,0.462-1.33,5.876,0.119,6.304C35.264,60.956,34.868,55.66,33.657,55.272z"/>
<path fill="#F2F5F7" d="M17.946,49.499c-1.218,0.464-1.331,5.876,0.12,6.303C19.555,55.182,19.156,49.887,17.946,49.499z"/>
<path fill="#C21413" d="M2.701,47.161c-1.271,0.574-0.529-4.33,0-4.936C21.625,30.251,46.787,51.433,52,56.01
	C30.389,68.15,21.477,38.681,2.701,47.161z"/>
<linearGradient id="SVGID_2_" gradientUnits="userSpaceOnUse" x1="27.3511" y1="57.1338" x2="27.3511" y2="32.0005">
	<stop  offset="0" style="stop-color:#DE1212"/>
	<stop  offset="0.1434" style="stop-color:#E11E18"/>
	<stop  offset="0.7091" style="stop-color:#EA472C"/>
	<stop  offset="1" style="stop-color:#ED5734"/>
	<a:midPointStop  offset="0" style="stop-color:#DE1212"/>
	<a:midPointStop  offset="0.4424" style="stop-color:#DE1212"/>
	<a:midPointStop  offset="1" style="stop-color:#ED5734"/>
</linearGradient>
<path fill="url(#SVGID_2_)" d="M2.701,42.228c7.969-12.455,24.938-12.455,34.061-5.766C45.164,42.62,46.787,51.433,52,56.01
	C31.451,63.072,21.625,34.235,2.701,42.228z"/>
<path opacity="0.2" fill="#FFFFFF" enable-background="new    " d="M44.359,44.849c-10.865,6.416-4.52,11.614-7.891,13.358
	C42.186,56.225,35.195,53.225,44.359,44.849z"/>
<path opacity="0.2" fill="#FFFFFF" enable-background="new    " d="M39.324,38.604c-13.781,5.51-7.73,12.791-10.699,15.854
	C33.045,50.954,28.738,46.286,39.324,38.604z"/>
<path opacity="0.2" fill="#FFFFFF" enable-background="new    " d="M32.135,33.903c-13.78,8.313-7.494,12.973-10.463,16.037
	C26.092,46.437,21.739,43.563,32.135,33.903z"/>
<path opacity="0.2" fill="#FFFFFF" enable-background="new    " d="M23.57,32.034c-12.52,10.045-5.498,11.51-8.465,14.576
	C19.526,43.104,14.706,42.79,23.57,32.034z"/>
<path opacity="0.2" fill="#FFFFFF" enable-background="new    " d="M15.308,32.948c-10.252,9.057-5.361,6.289-7.204,12.725
	C12.549,37.79,7.4,42.005,15.308,32.948z"/>
</svg>
