<?xml version="1.0" encoding="utf-8"?>
<!-- Generator: Adobe Illustrator 15.0.0, SVG Export Plug-In . SVG Version: 6.00 Build 0)  -->
<!DOCTYPE svg PUBLIC "-//W3C//DTD SVG 1.1//EN" "http://www.w3.org/Graphics/SVG/1.1/DTD/svg11.dtd" [
	<!ENTITY ns_flows "http://ns.adobe.com/Flows/1.0/">
	<!ENTITY ns_extend "http://ns.adobe.com/Extensibility/1.0/">
	<!ENTITY ns_ai "http://ns.adobe.com/AdobeIllustrator/10.0/">
	<!ENTITY ns_graphs "http://ns.adobe.com/Graphs/1.0/">
]>
<svg version="1.1" id="Layer_1" xmlns:x="&ns_extend;" xmlns:i="&ns_ai;" xmlns:graph="&ns_graphs;"
	 xmlns="http://www.w3.org/2000/svg" xmlns:xlink="http://www.w3.org/1999/xlink" xmlns:a="http://ns.adobe.com/AdobeSVGViewerExtensions/3.0/"
	 x="0px" y="0px" width="64px" height="64px" viewBox="0 0 64 64" enable-background="new 0 0 64 64" xml:space="preserve">
<path fill="#D99025" d="M2.677,5.062l3.737,3.737C7.073,9.458,9.462,7.07,8.803,6.41L5.064,2.673
	C3.676,1.286,1.287,3.675,2.677,5.062z"/>
<radialGradient id="SVGID_1_" cx="79.5176" cy="-124.4468" r="11.9325" gradientTransform="matrix(0.7071 -0.7071 0.7071 0.7071 44.828 153.0322)" gradientUnits="userSpaceOnUse">
	<stop  offset="0" style="stop-color:#FF8FA8"/>
	<stop  offset="0.3253" style="stop-color:#FB8BA4"/>
	<stop  offset="0.6381" style="stop-color:#F08099"/>
	<stop  offset="0.945" style="stop-color:#DD6D85"/>
	<stop  offset="1" style="stop-color:#D96981"/>
	<a:midPointStop  offset="0" style="stop-color:#FF8FA8"/>
	<a:midPointStop  offset="0.7152" style="stop-color:#FF8FA8"/>
	<a:midPointStop  offset="1" style="stop-color:#D96981"/>
</radialGradient>
<path fill="url(#SVGID_1_)" d="M5.813,5.814c-4.828,4.829-5.109,12.378-0.625,16.863s12.035,4.205,16.864-0.625
	c4.829-4.829,5.111-12.38,0.625-16.863C18.19,0.703,10.643,0.983,5.813,5.814z"/>
<radialGradient id="SVGID_2_" cx="79.5205" cy="-105.3926" r="11.9325" gradientTransform="matrix(0.7071 -0.7071 0.7071 0.7071 44.828 153.0322)" gradientUnits="userSpaceOnUse">
	<stop  offset="0" style="stop-color:#FFF2A6"/>
	<stop  offset="0.3213" style="stop-color:#FFEEA4"/>
	<stop  offset="0.6304" style="stop-color:#FFE39D"/>
	<stop  offset="0.9335" style="stop-color:#FFCF92"/>
	<stop  offset="1" style="stop-color:#FFCA8F"/>
	<a:midPointStop  offset="0" style="stop-color:#FFF2A6"/>
	<a:midPointStop  offset="0.7152" style="stop-color:#FFF2A6"/>
	<a:midPointStop  offset="1" style="stop-color:#FFCA8F"/>
</radialGradient>
<path fill="url(#SVGID_2_)" d="M19.287,19.286c-4.828,4.828-5.109,12.378-0.625,16.862s12.035,4.205,16.865-0.625
	c4.828-4.828,5.111-12.38,0.625-16.862C31.666,14.175,24.117,14.454,19.287,19.286z"/>
<radialGradient id="SVGID_3_" cx="79.5205" cy="-86.3325" r="11.9325" gradientTransform="matrix(0.7071 -0.7071 0.7071 0.7071 44.828 153.0322)" gradientUnits="userSpaceOnUse">
	<stop  offset="0" style="stop-color:#A5C967"/>
	<stop  offset="0.3428" style="stop-color:#A1C564"/>
	<stop  offset="0.6719" style="stop-color:#96BA5B"/>
	<stop  offset="0.9953" style="stop-color:#84A64B"/>
	<stop  offset="1" style="stop-color:#84A64B"/>
	<a:midPointStop  offset="0" style="stop-color:#A5C967"/>
	<a:midPointStop  offset="0.7152" style="stop-color:#A5C967"/>
	<a:midPointStop  offset="1" style="stop-color:#84A64B"/>
</radialGradient>
<path fill="url(#SVGID_3_)" d="M32.765,32.764c-4.828,4.828-5.109,12.378-0.625,16.862s12.035,4.205,16.865-0.625
	c4.828-4.828,5.111-12.38,0.625-16.862C45.144,27.652,37.595,27.932,32.765,32.764z"/>
<path fill="#D99025" d="M46.249,48.635c2.896,2.897,12.868,12.87,12.868,12.87c0.656,0.66,1.727,0.66,2.388,0
	c0.66-0.656,0.66-1.731,0-2.391c0,0-9.788-9.789-12.868-12.868C48.04,45.649,45.652,48.038,46.249,48.635z"/>
</svg>
