<?xml version="1.0" encoding="utf-8"?>
<!-- Generator: Adobe Illustrator 15.0.0, SVG Export Plug-In . SVG Version: 6.00 Build 0)  -->
<!DOCTYPE svg PUBLIC "-//W3C//DTD SVG 1.1//EN" "http://www.w3.org/Graphics/SVG/1.1/DTD/svg11.dtd" [
	<!ENTITY ns_flows "http://ns.adobe.com/Flows/1.0/">
	<!ENTITY ns_extend "http://ns.adobe.com/Extensibility/1.0/">
	<!ENTITY ns_ai "http://ns.adobe.com/AdobeIllustrator/10.0/">
	<!ENTITY ns_graphs "http://ns.adobe.com/Graphs/1.0/">
]>
<svg version="1.1" id="Layer_1" xmlns:x="&ns_extend;" xmlns:i="&ns_ai;" xmlns:graph="&ns_graphs;"
	 xmlns="http://www.w3.org/2000/svg" xmlns:xlink="http://www.w3.org/1999/xlink" xmlns:a="http://ns.adobe.com/AdobeSVGViewerExtensions/3.0/"
	 x="0px" y="0px" width="64px" height="64px" viewBox="0 0 64 64" enable-background="new 0 0 64 64" xml:space="preserve">
<path fill="#99A8AE" d="M32,62C18.215,62,7,56.293,7,49.279c0-7.016,11.215-12.721,25-12.721c13.785,0,25,5.705,25,12.721
	C57,56.293,45.785,62,32,62z"/>
<path fill="#CFD8DD" d="M32,60.969c-16.542,0-30-6.85-30-15.266c0-8.418,13.458-15.265,30-15.265c16.541,0,30,6.847,30,15.265
	C62,54.119,48.541,60.969,32,60.969z"/>
<radialGradient id="SVGID_1_" cx="31.9995" cy="44.668" r="29.0745" gradientTransform="matrix(1 0 0 0.4633 0 23.8134)" gradientUnits="userSpaceOnUse">
	<stop  offset="0.5273" style="stop-color:#C6C6C6"/>
	<stop  offset="0.6581" style="stop-color:#CFD0D0"/>
	<stop  offset="0.881" style="stop-color:#E7EAEB"/>
	<stop  offset="0.9636" style="stop-color:#F2F5F7"/>
	<a:midPointStop  offset="0.5273" style="stop-color:#C6C6C6"/>
	<a:midPointStop  offset="0.589" style="stop-color:#C6C6C6"/>
	<a:midPointStop  offset="0.9636" style="stop-color:#F2F5F7"/>
</radialGradient>
<path fill="url(#SVGID_1_)" d="M61.156,45.098c0,7.936-13.055,14.367-29.156,14.367c-16.103,0-29.158-6.432-29.158-14.367
	c0-7.93,13.055-14.362,29.158-14.362C48.102,30.735,61.156,37.168,61.156,45.098z"/>
<path fill="#BA4A18" d="M49.469,37.041c-3.232-1.625-31.581-6.532-37.786,3.533c-1.729,2.805-0.315,6.637,4.928,9.273
	c3.232,1.627,10.084,4.344,14.437,4.957c4.353,0.609,8.416-1.627,11.847-2.318c5.568-1.117,9.172-3.41,9.479-6.969
	C52.682,41.961,54.711,39.674,49.469,37.041z"/>
<path fill="#7D3D15" d="M49.99,43.211c0,11.459-35.98,11.459-35.98,0C14.01,33.682,49.99,33.682,49.99,43.211z"/>
<linearGradient id="SVGID_2_" gradientUnits="userSpaceOnUse" x1="15.3477" y1="37.2236" x2="48.6523" y2="37.2236">
	<stop  offset="0" style="stop-color:#FFDC96"/>
	<stop  offset="0.1948" style="stop-color:#FDD790"/>
	<stop  offset="0.4516" style="stop-color:#F7CA80"/>
	<stop  offset="0.7415" style="stop-color:#EEB364"/>
	<stop  offset="1" style="stop-color:#E39A46"/>
	<a:midPointStop  offset="0" style="stop-color:#FFDC96"/>
	<a:midPointStop  offset="0.6485" style="stop-color:#FFDC96"/>
	<a:midPointStop  offset="1" style="stop-color:#E39A46"/>
</linearGradient>
<path fill="url(#SVGID_2_)" d="M45.598,24.678H18.401c0,0-3.054,17.861-3.054,18.072c0,3.879,7.455,7.02,16.653,7.02
	c9.195,0,16.652-3.141,16.652-7.02C48.652,42.539,45.598,24.678,45.598,24.678z"/>
<path fill="#FED0AC" d="M46.219,28.022"/>
<path fill="#BA4A18" d="M45.875,25.849C45.875,22.618,39.664,20,32,20c-7.665,0-13.877,2.618-13.877,5.849
	c0,3.229,6.213,5.847,13.877,5.847C40.469,31.696,45.875,27.582,45.875,25.849z"/>
<linearGradient id="SVGID_3_" gradientUnits="userSpaceOnUse" x1="19.1455" y1="25.2192" x2="44.8535" y2="25.2192">
	<stop  offset="0" style="stop-color:#BA4A18"/>
	<stop  offset="1" style="stop-color:#7D3D15"/>
	<a:midPointStop  offset="0" style="stop-color:#BA4A18"/>
	<a:midPointStop  offset="0.5" style="stop-color:#BA4A18"/>
	<a:midPointStop  offset="1" style="stop-color:#7D3D15"/>
</linearGradient>
<path fill="url(#SVGID_3_)" d="M44.854,25.218c0-2.881-5.756-5.218-12.855-5.218s-12.853,2.336-12.853,5.218
	c0,2.886,5.754,5.221,12.853,5.221C39.844,30.438,44.854,26.766,44.854,25.218z"/>
</svg>
