<?xml version="1.0" encoding="utf-8"?>
<!-- Generator: Adobe Illustrator 15.0.0, SVG Export Plug-In . SVG Version: 6.00 Build 0)  -->
<!DOCTYPE svg PUBLIC "-//W3C//DTD SVG 1.1//EN" "http://www.w3.org/Graphics/SVG/1.1/DTD/svg11.dtd" [
	<!ENTITY ns_flows "http://ns.adobe.com/Flows/1.0/">
	<!ENTITY ns_extend "http://ns.adobe.com/Extensibility/1.0/">
	<!ENTITY ns_ai "http://ns.adobe.com/AdobeIllustrator/10.0/">
	<!ENTITY ns_graphs "http://ns.adobe.com/Graphs/1.0/">
]>
<svg version="1.1" id="Layer_1" xmlns:x="&ns_extend;" xmlns:i="&ns_ai;" xmlns:graph="&ns_graphs;"
	 xmlns="http://www.w3.org/2000/svg" xmlns:xlink="http://www.w3.org/1999/xlink" xmlns:a="http://ns.adobe.com/AdobeSVGViewerExtensions/3.0/"
	 x="0px" y="0px" width="64px" height="64px" viewBox="0 0 64 64" enable-background="new 0 0 64 64" xml:space="preserve">
<path fill="#F6BEC1" d="M41.954,22.046c-5.486-5.488-4.366-15.506-0.668-19.204c3.695-3.694,3.254,5.646,8.742,11.131
	c5.486,5.489,14.826,5.043,11.129,8.742C57.462,26.41,47.442,27.531,41.954,22.046z"/>
<path fill="#FDE0DA" d="M53.927,17.525c-0.512-2.343,0.768-4.562-1.061-6.391c-1.829-1.825-4.051-0.549-6.389-1.061
	c-4.863-1.067-5.191-7.231-5.191-7.231c-3.697,3.698-5.83,14.728-0.344,20.217c5.488,5.484,16.521,3.351,20.215-0.345
	C61.157,22.715,54.995,22.387,53.927,17.525z"/>
<linearGradient id="SVGID_1_" gradientUnits="userSpaceOnUse" x1="-347.457" y1="105.5146" x2="-347.457" y2="100.748" gradientTransform="matrix(-0.9659 0.2588 -0.2588 -0.9659 -261.2006 212.5933)">
	<stop  offset="0" style="stop-color:#F6BEC1"/>
	<stop  offset="1" style="stop-color:#FDE0DA"/>
	<a:midPointStop  offset="0" style="stop-color:#F6BEC1"/>
	<a:midPointStop  offset="0.5" style="stop-color:#F6BEC1"/>
	<a:midPointStop  offset="1" style="stop-color:#FDE0DA"/>
</linearGradient>
<path fill="url(#SVGID_1_)" d="M53.093,23.826c-0.393-1.47-5.076-4.412-10.557-1.592C42.397,28.521,53.093,23.826,53.093,23.826z"/>
<linearGradient id="SVGID_2_" gradientUnits="userSpaceOnUse" x1="-281.2915" y1="269.1396" x2="-281.2915" y2="264.374" gradientTransform="matrix(-0.5296 0.9555 0.8229 0.599 -326.9255 125.4342)">
	<stop  offset="0" style="stop-color:#F6BEC1"/>
	<stop  offset="1" style="stop-color:#FDE0DA"/>
	<a:midPointStop  offset="0" style="stop-color:#F6BEC1"/>
	<a:midPointStop  offset="0.5" style="stop-color:#F6BEC1"/>
	<a:midPointStop  offset="1" style="stop-color:#FDE0DA"/>
</linearGradient>
<path fill="url(#SVGID_2_)" d="M42.442,10.392c1.252,0.911,2.596,6.934-1.67,11.906C34.872,20.366,42.442,10.392,42.442,10.392z"/>
<path fill="#F6BEC1" d="M22.046,41.954c5.486,5.488,4.366,15.506,0.668,19.204c-3.695,3.695-3.254-5.646-8.742-11.131
	c-5.486-5.488-14.826-5.043-11.129-8.741C6.537,37.59,16.558,36.469,22.046,41.954z"/>
<path fill="#FDE0DA" d="M10.072,46.475c0.513,2.343-0.767,4.563,1.062,6.391c1.828,1.825,4.05,0.549,6.389,1.062
	c4.863,1.067,5.191,7.23,5.191,7.23c3.697-3.698,5.83-14.728,0.344-20.217c-5.488-5.483-16.521-3.351-20.216,0.345
	C2.842,41.285,9.005,41.613,10.072,46.475z"/>
<linearGradient id="SVGID_3_" gradientUnits="userSpaceOnUse" x1="85.9785" y1="211.7646" x2="85.9785" y2="206.998" gradientTransform="matrix(0.9659 -0.2588 0.2588 0.9659 -120.9654 -139.0411)">
	<stop  offset="0" style="stop-color:#F6BEC1"/>
	<stop  offset="1" style="stop-color:#FDE0DA"/>
	<a:midPointStop  offset="0" style="stop-color:#F6BEC1"/>
	<a:midPointStop  offset="0.5" style="stop-color:#F6BEC1"/>
	<a:midPointStop  offset="1" style="stop-color:#FDE0DA"/>
</linearGradient>
<path fill="url(#SVGID_3_)" d="M10.905,40.174c0.395,1.47,5.077,4.412,10.559,1.592C21.603,35.479,10.905,40.174,10.905,40.174z"/>
<linearGradient id="SVGID_4_" gradientUnits="userSpaceOnUse" x1="-31.9951" y1="-112.606" x2="-31.9951" y2="-117.3716" gradientTransform="matrix(0.5296 -0.9555 -0.8229 -0.599 -55.242 -51.8815)">
	<stop  offset="0" style="stop-color:#F6BEC1"/>
	<stop  offset="1" style="stop-color:#FDE0DA"/>
	<a:midPointStop  offset="0" style="stop-color:#F6BEC1"/>
	<a:midPointStop  offset="0.5" style="stop-color:#F6BEC1"/>
	<a:midPointStop  offset="1" style="stop-color:#FDE0DA"/>
</linearGradient>
<path fill="url(#SVGID_4_)" d="M21.558,53.608c-1.253-0.91-2.596-6.934,1.669-11.906C29.128,43.634,21.558,53.608,21.558,53.608z"/>
<circle fill="#FDE0DA" cx="31.999" cy="32.001" r="14.164"/>
<path fill="#E03636" d="M18.066,29.517c-0.144,0.807-0.23,1.635-0.231,2.484c0.001,1.191,0.164,2.343,0.44,3.45L28.55,45.725
	c1.105,0.275,2.256,0.44,3.449,0.44c0.849-0.001,1.677-0.089,2.484-0.231L18.066,29.517z"/>
<path fill="#E03636" d="M23.529,20.667c-1.086,0.813-2.048,1.776-2.862,2.863L40.47,43.333c1.086-0.813,2.05-1.776,2.862-2.861
	L23.529,20.667z"/>
<path fill="#E03636" d="M31.999,17.837c-0.85,0-1.676,0.086-2.484,0.23l16.418,16.417c0.145-0.808,0.232-1.637,0.232-2.486
	c0-1.188-0.162-2.34-0.441-3.445L35.448,18.276C34.341,17.998,33.192,17.837,31.999,17.837z"/>
<path fill="#F6BEC1" d="M19.539,25.264c-0.345,0.636-0.627,1.305-0.87,1.992l18.076,18.075c0.688-0.243,1.357-0.525,1.992-0.869
	L19.539,25.264z"/>
<path fill="#F6BEC1" d="M27.255,18.669c-0.689,0.243-1.359,0.527-1.993,0.87l19.2,19.199c0.343-0.636,0.625-1.305,0.869-1.992
	L27.255,18.669z"/>
<radialGradient id="SVGID_5_" cx="26.1245" cy="29.0435" r="18.582" gradientTransform="matrix(0.7155 0.7155 -0.7512 0.7512 31.7169 -11.972)" gradientUnits="userSpaceOnUse">
	<stop  offset="0.6606" style="stop-color:#1A1626;stop-opacity:0"/>
	<stop  offset="1" style="stop-color:#1A1626"/>
	<a:midPointStop  offset="0.6606" style="stop-color:#1A1626;stop-opacity:0"/>
	<a:midPointStop  offset="0.5946" style="stop-color:#1A1626;stop-opacity:0"/>
	<a:midPointStop  offset="1" style="stop-color:#1A1626"/>
</radialGradient>
<circle opacity="0.4" fill="url(#SVGID_5_)" enable-background="new    " cx="31.999" cy="32" r="14.164"/>
<linearGradient id="SVGID_6_" gradientUnits="userSpaceOnUse" x1="-31.7222" y1="227.2451" x2="-31.7222" y2="214.2109" gradientTransform="matrix(0.7071 -0.7071 0.7071 0.7071 -105.5421 -150.4067)">
	<stop  offset="0" style="stop-color:#FFFFFF;stop-opacity:0"/>
	<stop  offset="1" style="stop-color:#FFFFFF"/>
	<a:midPointStop  offset="0" style="stop-color:#FFFFFF;stop-opacity:0"/>
	<a:midPointStop  offset="0.5" style="stop-color:#FFFFFF;stop-opacity:0"/>
	<a:midPointStop  offset="1" style="stop-color:#FFFFFF"/>
</linearGradient>
<path opacity="0.6" fill="url(#SVGID_6_)" d="M32.936,19.722c15.63,1.387-11.82,28.844-13.211,13.211
	C19.104,25.995,25.997,19.106,32.936,19.722z"/>
</svg>
