<?xml version="1.0" encoding="utf-8"?>
<!-- Generator: Adobe Illustrator 15.0.0, SVG Export Plug-In . SVG Version: 6.00 Build 0)  -->
<!DOCTYPE svg PUBLIC "-//W3C//DTD SVG 1.1//EN" "http://www.w3.org/Graphics/SVG/1.1/DTD/svg11.dtd" [
	<!ENTITY ns_flows "http://ns.adobe.com/Flows/1.0/">
	<!ENTITY ns_extend "http://ns.adobe.com/Extensibility/1.0/">
	<!ENTITY ns_ai "http://ns.adobe.com/AdobeIllustrator/10.0/">
	<!ENTITY ns_graphs "http://ns.adobe.com/Graphs/1.0/">
]>
<svg version="1.1" id="Layer_1" xmlns:x="&ns_extend;" xmlns:i="&ns_ai;" xmlns:graph="&ns_graphs;"
	 xmlns="http://www.w3.org/2000/svg" xmlns:xlink="http://www.w3.org/1999/xlink" xmlns:a="http://ns.adobe.com/AdobeSVGViewerExtensions/3.0/"
	 x="0px" y="0px" width="64px" height="64px" viewBox="0 0 64 64" enable-background="new 0 0 64 64" xml:space="preserve">
<path fill="#1A1626" d="M62,50c0,1.457-1,12-5,12H7c-4,0-5-10.543-5-12H62z"/>
<polygon fill="#B00505" points="56,15 8,15 3,52 61,52 "/>
<path fill="#E81C27" d="M58.656,52l-1.373-12.014C57.158,38.895,56.156,38,55.057,38H34C34,38,29.082,58.625,58.656,52z"/>
<path fill="#E81C27" d="M11,20c-1.1,0-2.102,0.895-2.227,1.986L7.4,32h48.971l-1.145-10.014C55.104,20.895,54.1,20,53,20H11z"/>
<path fill="#E6EBEF" d="M29.498,36.271c1.406-1.203,5.559-1.754,7.502,0.416V52H3l2.287-15c0,0,2.758-3.274,9.625-0.729
	c1.75-1.879,4.192-1.697,6.947-0.139C24.359,34.643,27.503,35.182,29.498,36.271z"/>
<path fill="#FFFFFF" d="M28.375,28.291c0,3.168,2.813,3.064,4.625,1.25c0,0,2.416,0.459,2.211-2.541
	c1.205,0,1.818-1.354,1.664-2.701c1.154-0.674,2.123-4.133-1.418-4.133C32.484,20.166,28.375,21.828,28.375,28.291z"/>
<path fill="#F46C60" d="M34.033,18C31.5,18,29,23.027,29,29.135c0,2.037,0.213-0.031,3.051-1.018C35.529,26.908,40.105,18,34.033,18
	z"/>
<path fill="#F89987" d="M32.727,27.795c-0.229,0.137-0.453,0.244-0.676,0.322c-0.148,0.051-0.287,0.107-0.422,0.166
	c-0.588-0.541-1.873-0.377-1.873-0.377l-0.674-0.602c0.027-0.332,0.063-0.66,0.104-0.982L30,27C30,27,31.438,26.264,32.727,27.795z"
	/>
<path fill="#F89987" d="M35.211,25.324c-0.512-1.057-1.273-1.98-3.617-1.98c0,0-1.145-0.924-1.535-0.789
	c-0.107,0.307-0.209,0.621-0.303,0.949c0.539-0.137,1.432,0.898,1.432,0.898s2.156-0.402,3.291,1.861
	C34.732,25.969,34.979,25.654,35.211,25.324z"/>
<path fill="#F89987" d="M33,20.406c0,0-0.957-0.91-1.537-0.678c-0.162,0.227-0.32,0.469-0.471,0.732
	c0.6-0.186,1.492,1.037,1.492,1.037s2.727-0.5,3.932,1.646c0.201-0.486,0.359-0.973,0.459-1.441C35.438,19.691,33,20.406,33,20.406z
	"/>
<path fill="#FFFFFF" d="M37.375,28.291c0,3.168,2.813,3.064,4.625,1.25c0,0,2.416,0.459,2.211-2.541
	c1.205,0,1.818-1.354,1.664-2.701c1.154-0.674,2.123-4.133-1.418-4.133C41.484,20.166,37.375,21.828,37.375,28.291z"/>
<path fill="#F46C60" d="M43.033,18C40.502,18,38,23.027,38,29.135c0,2.037,0.215-0.031,3.051-1.018
	C44.529,26.908,49.105,18,43.033,18z"/>
<path fill="#F89987" d="M41.727,27.795c-0.229,0.137-0.453,0.244-0.676,0.322c-0.148,0.051-0.287,0.107-0.422,0.166
	c-0.588-0.541-1.873-0.377-1.873-0.377l-0.674-0.602c0.027-0.332,0.063-0.66,0.104-0.982L39,27C39,27,40.438,26.264,41.727,27.795z"
	/>
<path fill="#F89987" d="M44.211,25.324c-0.512-1.057-1.273-1.98-3.617-1.98c0,0-1.145-0.924-1.535-0.789
	c-0.107,0.307-0.209,0.621-0.303,0.949c0.539-0.137,1.432,0.898,1.432,0.898s2.156-0.402,3.291,1.861
	C43.732,25.969,43.979,25.654,44.211,25.324z"/>
<path fill="#F89987" d="M42,20.406c0,0-0.957-0.91-1.535-0.678c-0.164,0.227-0.32,0.469-0.473,0.732
	c0.6-0.186,1.492,1.037,1.492,1.037s2.727-0.5,3.932,1.646c0.201-0.486,0.359-0.973,0.459-1.441C44.438,19.691,42,20.406,42,20.406z
	"/>
<path fill="#FFFFFF" d="M46.375,28.291c0,3.168,2.813,3.064,4.625,1.25c0,0,2.416,0.459,2.211-2.541
	c1.205,0,1.818-1.354,1.664-2.701c1.154-0.674,2.123-4.133-1.418-4.133C50.484,20.166,46.375,21.828,46.375,28.291z"/>
<path fill="#F46C60" d="M52.033,18C49.502,18,47,23.027,47,29.135c0,2.037,0.215-0.031,3.051-1.018
	C53.529,26.908,58.105,18,52.033,18z"/>
<path fill="#F89987" d="M50.727,27.795c-0.229,0.137-0.453,0.244-0.676,0.322c-0.148,0.051-0.287,0.107-0.422,0.166
	c-0.588-0.541-1.873-0.377-1.873-0.377l-0.674-0.602c0.027-0.332,0.063-0.66,0.104-0.982L48,27C48,27,49.438,26.264,50.727,27.795z"
	/>
<path fill="#F89987" d="M53.211,25.324c-0.512-1.057-1.273-1.98-3.617-1.98c0,0-1.145-0.924-1.535-0.789
	c-0.107,0.307-0.209,0.621-0.303,0.949c0.539-0.137,1.432,0.898,1.432,0.898s2.156-0.402,3.291,1.861
	C52.732,25.969,52.979,25.654,53.211,25.324z"/>
<path fill="#F89987" d="M51,20.406c0,0-0.957-0.91-1.535-0.678c-0.164,0.227-0.32,0.469-0.473,0.732
	c0.6-0.186,1.492,1.037,1.492,1.037s2.727-0.5,3.932,1.646c0.201-0.486,0.359-0.973,0.459-1.441C53.438,19.691,51,20.406,51,20.406z
	"/>
<path fill="#302C3B" d="M18.84,19.402v4c0,1.104,0,2,3,2c2.992,0,3-0.896,3-2v-4H18.84z"/>
<path fill="#FFFFFF" d="M21.84,17.402c-2.055,0-3,0.896-3,2s0,2,3,2c2.992,0,3-0.896,3-2S23.844,17.402,21.84,17.402z"/>
<polygon fill="#F9C802" points="21.84,18.402 20.34,19.402 21.84,20.402 23.34,19.402 "/>
<path fill="#302C3B" d="M17.84,25.402v4c0,1.104,0,2,3,2c2.992,0,3-0.896,3-2v-4H17.84z"/>
<path fill="#FFFFFF" d="M20.84,23.402c-2.055,0-3,0.896-3,2s0,2,3,2c2.992,0,3-0.896,3-2S22.844,23.402,20.84,23.402z"/>
<polygon fill="#F9C802" points="20.84,24.402 19.34,25.402 20.84,26.402 22.34,25.402 "/>
<path fill="#302C3B" d="M11.164,19.402v4c0,1.104,0,2,3,2c2.992,0,3-0.896,3-2v-4H11.164z"/>
<path fill="#FFFFFF" d="M14.164,17.402c-2.055,0-3,0.896-3,2s0,2,3,2c2.992,0,3-0.896,3-2S16.168,17.402,14.164,17.402z"/>
<polygon fill="#F9C802" points="14.164,18.402 12.664,19.402 14.164,20.402 15.664,19.402 "/>
<path fill="#302C3B" d="M10.164,25.402v4c0,1.104,0,2,3,2c2.992,0,3-0.896,3-2v-4H10.164z"/>
<path fill="#FFFFFF" d="M13.164,23.402c-2.055,0-3,0.896-3,2s0,2,3,2c2.992,0,3-0.896,3-2S15.168,23.402,13.164,23.402z"/>
<polygon fill="#F9C802" points="13.164,24.402 11.664,25.402 13.164,26.402 14.664,25.402 "/>
<path fill="#F2F5F7" d="M27.706,39.175c-0.815-1.043-6.026,0.48-5.99,2.017C22.763,42.446,27.706,40.466,27.706,39.175z"/>
<path fill="#F2F5F7" d="M11.204,48.634c-0.465-1.239-5.893-1.354-6.32,0.121C5.506,50.268,10.817,49.864,11.204,48.634z"/>
<path fill="#F2F5F7" d="M20.159,41.931c-0.465-1.241-5.893-1.354-6.319,0.121C14.46,43.563,19.771,43.161,20.159,41.931z"/>
<path fill="#F2F5F7" d="M24.163,50.314c1.146-0.663,0.364-6.035-1.16-6.214C21.613,44.963,22.884,50.134,24.163,50.314z"/>
<path fill="#F2F5F7" d="M31.7,37.642c-0.465-1.24-5.891-1.354-6.318,0.121C26.003,39.275,31.313,38.873,31.7,37.642z"/>
<path fill="#F2F5F7" d="M28.949,47.447c0.73-1.104-2.368-5.563-3.813-5.04C24.278,43.799,27.725,47.857,28.949,47.447z"/>
<path fill="#F2F5F7" d="M9.964,44.118c0.73-1.104-2.368-5.563-3.813-5.04C5.294,40.47,8.741,44.528,9.964,44.118z"/>
<path fill="#F2F5F7" d="M22.758,50.834c0.731-1.104-2.368-5.563-3.812-5.041C18.089,47.185,21.535,51.245,22.758,50.834z"/>
<path fill="#F2F5F7" d="M31.797,47.448c0.729-1.104-2.368-5.562-3.812-5.041C27.126,43.8,30.573,47.858,31.797,47.448z"/>
<path fill="#F2F5F7" d="M12.658,41.404c-1.135,0.684-0.255,6.041,1.273,6.191C15.305,46.71,13.94,41.563,12.658,41.404z"/>
<path fill="#F2F5F7" d="M7.744,41.702c1.323-0.06,3.107-5.187,1.837-6.048C7.95,35.777,6.693,40.951,7.744,41.702z"/>
<path fill="#F2F5F7" d="M25.487,50.968c1.322-0.059,3.107-5.186,1.836-6.047C25.694,45.043,24.437,50.218,25.487,50.968z"/>
<path fill="#F2F5F7" d="M29.498,49.975c0.824,1.036,6.022-0.533,5.972-2.068C34.411,46.661,29.485,48.685,29.498,49.975z"/>
<path fill="#F2F5F7" d="M30.015,45.163c0.825,1.035,6.023-0.534,5.973-2.069C34.929,41.849,30.003,43.872,30.015,45.163z"/>
<path fill="#F2F5F7" d="M26.77,41.563c0.826,1.036,6.023-0.533,5.974-2.068C31.685,38.248,26.759,40.272,26.77,41.563z"/>
<path fill="#F2F5F7" d="M8.688,41.805c0.824,1.034,6.022-0.533,5.972-2.069C13.603,38.489,8.677,40.513,8.688,41.805z"/>
<path fill="#F2F5F7" d="M14.013,46.56c0.826,1.035,6.022-0.534,5.974-2.069C18.928,43.245,14.002,45.269,14.013,46.56z"/>
<path fill="#F2F5F7" d="M5.701,46.813c0.824,1.036,6.021-0.534,5.972-2.068C10.615,43.499,5.689,45.522,5.701,46.813z"/>
<path fill="#F2F5F7" d="M12.325,48.142c0.134,1.317,5.352,2.813,6.142,1.495C18.252,48.016,13.015,47.051,12.325,48.142z"/>
<path fill="#F2F5F7" d="M18.962,35.885c-0.353,1.277,3.971,4.559,5.184,3.617C24.532,37.913,19.999,35.117,18.962,35.885z"/>
<path fill="#F2F5F7" d="M10.729,36.402c-0.353,1.276,3.973,4.559,5.186,3.616C16.3,38.429,11.769,35.634,10.729,36.402z"/>
<path fill="#F2F5F7" d="M33.958,35.944c-1.24,0.464-1.354,5.892,0.121,6.319C35.592,41.642,35.188,36.332,33.958,35.944z"/>
<path fill="#F2F5F7" d="M17.432,35.068c-1.239,0.465-1.354,5.893,0.122,6.32C19.065,40.768,18.662,35.457,17.432,35.068z"/>
<path fill="#F46C60" d="M21,41c-4,0-4,4,0,4S25,41,21,41z"/>
<path fill="#F59E01" d="M39.478,46.746c-1.905,0,12.061-13.158,14.481-10.819C56.377,38.26,40.894,46.746,39.478,46.746z"/>
<path fill="#92C932" d="M56.84,39.674c-2.039-2.354-17.534,8.654-15.674,8.812C42.551,48.6,58.874,42.031,56.84,39.674z"/>
<path fill="#92C932" d="M39.299,39.138c-0.08-1.71,13.91,10.285,11.639,12.548C48.661,53.948,39.36,40.408,39.299,39.138z"/>
<path fill="#F59E01" d="M56.053,43.679c-0.561-0.945-13.83-7.303-14.843-4.588C40.191,41.804,56.803,44.952,56.053,43.679z"/>
<path fill="#F59E01" d="M39.576,51.165c-2.284-0.173,16.309-8.801,18.881-6.819C61.023,46.323,41.275,51.296,39.576,51.165z"/>
<path fill="#92C932" d="M54.046,50.762c-0.164,1.699-12.301-11.871-9.718-13.841C46.909,34.951,54.171,49.491,54.046,50.762z"/>
<path fill="#302C3B" d="M57.984,17.98c-0.346-2.172-1.91-3.98-3.996-3.98H10.012c-2.086,0-3.719,1.799-3.998,3.98
	C5.602,21.225,2,48.666,2,50c0,2.082,0.521,4,3,4h54c2.084,0,3-1.834,3-4C62,48.166,59,24.332,57.984,17.98z M28,18c0-1.1,0.9-2,2-2
	h24c1.1,0,2.104,0.895,2.227,1.986l1.375,12.025C57.727,31.105,56.928,32,55.828,32H30c-1.1,0-2-0.9-2-2V18z M6.398,30.014
	l1.375-12.025C7.898,16.895,8.9,16,10,16h14.529c1.1,0,1.975,0.898,1.941,1.998L26.117,30c-0.031,1.102-0.957,2-2.057,2H8.17
	C7.07,32,6.273,31.105,6.398,30.014z M36,49c0,1.1-0.9,2-2,2H6c-1.1,0-1.898-0.895-1.773-1.986l1.488-13.025
	C5.84,34.895,6.842,34,7.943,34H34c1.1,0,2,0.9,2,2V49z M58,51H41.027c-1.1,0-2.051-0.898-2.113-1.996L38.17,35.996
	C38.107,34.898,38.957,34,40.057,34h16c1.1,0,2.104,0.895,2.229,1.986l1.488,13.027C59.896,50.105,59.1,51,58,51z"/>
</svg>
