<?xml version="1.0" encoding="utf-8"?>
<!-- Generator: Adobe Illustrator 15.0.0, SVG Export Plug-In . SVG Version: 6.00 Build 0)  -->
<!DOCTYPE svg PUBLIC "-//W3C//DTD SVG 1.1//EN" "http://www.w3.org/Graphics/SVG/1.1/DTD/svg11.dtd" [
	<!ENTITY ns_flows "http://ns.adobe.com/Flows/1.0/">
	<!ENTITY ns_extend "http://ns.adobe.com/Extensibility/1.0/">
	<!ENTITY ns_ai "http://ns.adobe.com/AdobeIllustrator/10.0/">
	<!ENTITY ns_graphs "http://ns.adobe.com/Graphs/1.0/">
]>
<svg version="1.1" id="Layer_1" xmlns:x="&ns_extend;" xmlns:i="&ns_ai;" xmlns:graph="&ns_graphs;"
	 xmlns="http://www.w3.org/2000/svg" xmlns:xlink="http://www.w3.org/1999/xlink" xmlns:a="http://ns.adobe.com/AdobeSVGViewerExtensions/3.0/"
	 x="0px" y="0px" width="64px" height="64px" viewBox="0 0 64 64" enable-background="new 0 0 64 64" xml:space="preserve">
<rect x="43.024" y="43.221" transform="matrix(0.7072 -0.707 0.707 0.7072 -18.7222 45.1908)" fill="#99A8AE" width="4.354" height="3.959"/>
<path fill="#302C3B" d="M47.463,43.764l-3.7,3.699c7.1,5.474,10.526,13.491,14.442,14.442c2.281,0.555,4.256-1.421,3.701-3.7
	C60.955,54.288,52.936,50.86,47.463,43.764z M60.284,58.668c0.009,0.595-1.021,1.624-1.615,1.614
	c-1.447-0.023-4.16-3.784-4.099-4.438c0.039-0.412,0.863-1.236,1.275-1.276C56.498,54.508,60.26,57.22,60.284,58.668z"/>
<circle fill="#4E5E67" cx="27" cy="27.001" r="25"/>
<radialGradient id="SVGID_1_" cx="26.999" cy="27.0005" r="25.87" gradientUnits="userSpaceOnUse">
	<stop  offset="0.5273" style="stop-color:#4E5E67"/>
	<stop  offset="0.6034" style="stop-color:#4B5862"/>
	<stop  offset="0.7016" style="stop-color:#414854"/>
	<stop  offset="0.8115" style="stop-color:#312E3D"/>
	<stop  offset="0.8182" style="stop-color:#302C3B"/>
	<a:midPointStop  offset="0.5273" style="stop-color:#4E5E67"/>
	<a:midPointStop  offset="0.6531" style="stop-color:#4E5E67"/>
	<a:midPointStop  offset="0.8182" style="stop-color:#302C3B"/>
</radialGradient>
<circle fill="url(#SVGID_1_)" cx="27" cy="27" r="24.039"/>
<radialGradient id="SVGID_2_" cx="38.6934" cy="27.4736" r="15.629" gradientTransform="matrix(0.9615 0 0 0.9615 -10.2049 0.5837)" gradientUnits="userSpaceOnUse">
	<stop  offset="0.6788" style="stop-color:#FFFFFF"/>
	<stop  offset="0.7933" style="stop-color:#F4F6F6"/>
	<stop  offset="0.9636" style="stop-color:#DCE1E3"/>
	<a:midPointStop  offset="0.6788" style="stop-color:#FFFFFF"/>
	<a:midPointStop  offset="0.5833" style="stop-color:#FFFFFF"/>
	<a:midPointStop  offset="0.9636" style="stop-color:#DCE1E3"/>
</radialGradient>
<path fill="url(#SVGID_2_)" d="M34.012,14.467c-8.28,0.575-9.967-5.058-17.197-0.222c-3.394,2.269-2.48,6.55-4.327,11.754
	c-3.14,8.842,3.373,13.98,11.076,15.535c6.85,1.38,9.214-4.819,15.784-8.146C44.607,30.721,42.92,13.847,34.012,14.467z"/>
<radialGradient id="SVGID_3_" cx="22.7446" cy="26.2222" r="8.4612" gradientUnits="userSpaceOnUse">
	<stop  offset="0.4848" style="stop-color:#F5C001"/>
	<stop  offset="0.6957" style="stop-color:#F4B905"/>
	<stop  offset="0.9994" style="stop-color:#F0A611"/>
	<stop  offset="1" style="stop-color:#F0A611"/>
	<a:midPointStop  offset="0.4848" style="stop-color:#F5C001"/>
	<a:midPointStop  offset="0.6279" style="stop-color:#F5C001"/>
	<a:midPointStop  offset="1" style="stop-color:#F0A611"/>
</radialGradient>
<circle fill="url(#SVGID_3_)" cx="24.417" cy="27.997" r="7.52"/>
<linearGradient id="SVGID_4_" gradientUnits="userSpaceOnUse" x1="24.4175" y1="27.4092" x2="24.4175" y2="21.7285">
	<stop  offset="0" style="stop-color:#FFFFFF;stop-opacity:0"/>
	<stop  offset="1" style="stop-color:#FFFFFF"/>
	<a:midPointStop  offset="0" style="stop-color:#FFFFFF;stop-opacity:0"/>
	<a:midPointStop  offset="0.5" style="stop-color:#FFFFFF;stop-opacity:0"/>
	<a:midPointStop  offset="1" style="stop-color:#FFFFFF"/>
</linearGradient>
<path opacity="0.6" fill="url(#SVGID_4_)" d="M28.779,23.475c4.704,5.244-13.426,5.246-8.723,0
	C22.142,21.146,26.691,21.147,28.779,23.475z"/>
</svg>
