<?xml version="1.0" encoding="utf-8"?>
<!-- Generator: Adobe Illustrator 15.0.0, SVG Export Plug-In . SVG Version: 6.00 Build 0)  -->
<!DOCTYPE svg PUBLIC "-//W3C//DTD SVG 1.1//EN" "http://www.w3.org/Graphics/SVG/1.1/DTD/svg11.dtd" [
	<!ENTITY ns_flows "http://ns.adobe.com/Flows/1.0/">
	<!ENTITY ns_extend "http://ns.adobe.com/Extensibility/1.0/">
	<!ENTITY ns_ai "http://ns.adobe.com/AdobeIllustrator/10.0/">
	<!ENTITY ns_graphs "http://ns.adobe.com/Graphs/1.0/">
]>
<svg version="1.1" id="Layer_1" xmlns:x="&ns_extend;" xmlns:i="&ns_ai;" xmlns:graph="&ns_graphs;"
	 xmlns="http://www.w3.org/2000/svg" xmlns:xlink="http://www.w3.org/1999/xlink" xmlns:a="http://ns.adobe.com/AdobeSVGViewerExtensions/3.0/"
	 x="0px" y="0px" width="64px" height="64px" viewBox="0 0 64 64" enable-background="new 0 0 64 64" xml:space="preserve">
<path fill="#0FB4D4" d="M5.246,10.595c-2.069,3.584,8.134,5.072,8.296,4.788C13.707,15.1,7.318,7.005,5.246,10.595z"/>
<path fill="#0FB4D4" d="M20.131,2c4.138,0.001,0.325,9.579-0.002,9.579C19.801,11.579,15.988,2,20.131,2z"/>
<path fill="#0FB4D4" d="M11.542,4.313c-3.588,2.071,4.506,8.459,4.788,8.296C16.615,12.444,15.129,2.242,11.542,4.313z"/>
<path fill="#B8CAD9" d="M48.197,10.216l0.621,7.104c0,0,0.705-1.798,1.123-2.014c0.701-0.358,5.691-0.718,6.307-0.482
	c1.201,0.461,1.758,7.907,1.18,14.487c-0.129,1.452-2.336,3.742-4.684,4.897c-1.18,0.582-2.602-1.74-2.602-1.74l1.67,10.246
	c0,0,0.813-2.445,1.375-3.14c1.662-2.051,6.393-3.914,7.721-6.625c1.775-3.623,1.35-17.768-1.025-20.611
	c-1.916-2.293-3.459-1.697-10.322-1.097C48.826,11.292,48.197,10.216,48.197,10.216z"/>
<path fill="#96AAB0" d="M49.943,15.306c0.701-0.358,5.691-0.718,6.307-0.482c0.545,0.209,0.955,1.866,1.189,4.221
	c-0.211-2.831-0.656-4.891-1.27-5.125c-0.615-0.235-4.588,0.331-6.305,0.481c-0.59,0.052-1.463-1.862-1.463-1.862l0.418,4.781
	C48.82,17.32,49.525,15.522,49.943,15.306z"/>
<path fill="#96AAB0" d="M60.832,32.044c-1.227,2.5-7.881,4.223-9.438,8.095l0.42,2.574c0,0,0.813-2.445,1.375-3.14
	c1.662-2.051,6.393-3.914,7.721-6.626c1.08-2.204,1.344-8.299,0.852-13.378C62.141,24.447,61.848,29.969,60.832,32.044z"/>
<path fill="#C5D7E8" d="M51.547,36.005c-0.84-9.595-2.727-31.17-2.727-31.17c-0.086-0.99-25.801,1.26-25.714,2.249
	c0,0,1.888,21.575,2.728,31.17c0.205,2.351-0.675,9.427-0.675,9.427c0.259,2.947,28.947,0.438,28.689-2.51
	C53.848,45.171,51.752,38.354,51.547,36.005z"/>
<linearGradient id="SVGID_1_" gradientUnits="userSpaceOnUse" x1="37.5889" y1="29.1763" x2="37.5889" y2="-1.0708" gradientTransform="matrix(0.9962 -0.0872 0.0872 0.9962 -0.8596 16.3588)">
	<stop  offset="0" style="stop-color:#F59E01"/>
	<stop  offset="0.3749" style="stop-color:#F39B01"/>
	<stop  offset="0.6448" style="stop-color:#EB9203"/>
	<stop  offset="0.8811" style="stop-color:#DD8205"/>
	<stop  offset="1" style="stop-color:#D47706"/>
	<a:midPointStop  offset="0" style="stop-color:#F59E01"/>
	<a:midPointStop  offset="0.7697" style="stop-color:#F59E01"/>
	<a:midPointStop  offset="1" style="stop-color:#D47706"/>
</linearGradient>
<path fill="url(#SVGID_1_)" d="M24.544,13.861c0,0,3.333,27.316,4.33,27.714l0.013-0.002c0.879,0.914,5.603,0.99,10.242,0.574
	c4.643-0.396,9.279-1.291,9.984-2.344h0.014c0.914-0.566-0.547-28.045-0.547-28.045C48.361,10.71,24.578,12.792,24.544,13.861z"/>
<path fill="#FFE8C9" d="M23.972,7.321c0,0,0.236,2.703,0.572,6.54c8.846-1.034,15.145-1.585,24.036-2.103
	c-0.336-3.837-0.572-6.54-0.572-6.54C47.941,4.468,23.907,6.571,23.972,7.321z"/>
<path fill="#D47706" d="M37.969,34.036c0.227,2.584-3.65,2.923-3.877,0.339C33.867,31.791,37.742,31.452,37.969,34.036z"/>
<path fill="#D47706" d="M34.529,28.206c0.137,1.55-2.191,1.754-2.326,0.203C32.067,26.859,34.395,26.655,34.529,28.206z"/>
<path fill="#D47706" d="M37.814,25.575c0.182,2.067-2.92,2.338-3.102,0.271C34.533,23.779,37.635,23.507,37.814,25.575z"/>
<path fill="#D47706" d="M33.557,21.552c0.09,1.034-1.46,1.169-1.551,0.136C31.916,20.655,33.465,20.519,33.557,21.552z"/>
<path fill="#96AAB0" d="M27.491,43.892c9.716,2.613,11.615,3.131,22.007-2.107C41.441,43.456,35.184,44.499,27.491,43.892z"/>
<path fill="#96AAB0" d="M31.125,45.858c6.329,1.729,13.18,0.547,19.352-2.672C43.965,44.036,37.734,45.687,31.125,45.858z"/>
<linearGradient id="SVGID_2_" gradientUnits="userSpaceOnUse" x1="28.7983" y1="24.8486" x2="28.7983" y2="-6.4077" gradientTransform="matrix(0.9962 -0.0872 0.0872 0.9962 -0.8596 16.3588)">
	<stop  offset="0" style="stop-color:#FFFFFF;stop-opacity:0"/>
	<stop  offset="0.1142" style="stop-color:#FFFFFF;stop-opacity:0.1142"/>
	<stop  offset="1" style="stop-color:#FFFFFF"/>
	<a:midPointStop  offset="0" style="stop-color:#FFFFFF;stop-opacity:0"/>
	<a:midPointStop  offset="0.2303" style="stop-color:#FFFFFF;stop-opacity:0"/>
	<a:midPointStop  offset="1" style="stop-color:#FFFFFF"/>
</linearGradient>
<path opacity="0.5" fill="url(#SVGID_2_)" enable-background="new    " d="M26.022,11.391c0.98,9.358,2.362,18.916,2.4,26.305
	c0.006,1.024,3.103,1.403,3.004-0.164c-0.453-7.181-1.592-17.745-2.418-26.401L26.022,11.391z"/>
<path fill="#FFF3E3" d="M22.79,8.697c-0.109-2.951,1.438-2.906,3.007-3.401C27.405,4.79,27.78,3.83,30.22,2.864
	c3.342-1.322,6.436,0.642,9.149-0.345c5.211-1.894,11.24,1.82,9.602,4.024c-0.725-0.914-2.713-2.055-4.215,0.857
	c-1,1.943,0.504,4.719,0.68,6.728c0.236,2.715-1.914,2.587-2.125,0.186c-0.188-2.138,0.521-5.123-1.186-5.971
	c-4.105-2.039-5.783,3.435-8.275,0.94c-3.506-3.513-3.996,2.472-6.662-0.933C25.649,6.387,22.874,10.941,22.79,8.697z"/>
<path fill="#FFFFFF" d="M26.472,5.942c0,0-2.777,0.039-3.105,1.573C23.037,9.05,25.686,6.791,26.472,5.942z"/>
<path fill="#FFFFFF" d="M43.908,12.669c0,0-0.877,1.514,0.113,2.71C44.621,16.103,43.908,12.669,43.908,12.669z"/>
<path fill="#FFFFFF" d="M29.639,5.753c1.941-0.355,1.822,0.245,3.878,0.065c2.613-0.229,3.072-1.719,5.85-1.724
	c0,0-2.926-0.923-6.58,0.926c0,0-0.049-0.394,0.775-1.151C31.507,4.177,31.201,5.208,29.639,5.753z"/>
<path fill="#B8CAD9" d="M14.44,24.244c-6.863-0.6-8.407-1.197-10.323,1.097c-2.375,2.843-2.801,16.987-1.025,20.61
	c1.329,2.712,6.06,4.575,7.722,6.626c0.562,0.695,1.375,3.141,1.375,3.141l1.669-10.248c0,0-1.421,2.322-2.601,1.741
	c-2.348-1.155-4.555-3.446-4.684-4.897c-0.579-6.58-0.022-14.026,1.179-14.487c0.616-0.235,5.606,0.124,6.307,0.482
	c0.419,0.216,1.124,2.014,1.124,2.014l0.621-7.104C15.803,23.219,15.173,24.295,14.44,24.244z"/>
<path fill="#96AAB0" d="M14.056,28.309c-0.7-0.358-5.69-0.718-6.306-0.482c-0.546,0.209-0.956,1.866-1.19,4.221
	c0.212-2.831,0.656-4.891,1.27-5.125c0.615-0.235,4.589,0.331,6.306,0.481c0.59,0.052,1.463-1.862,1.463-1.862l-0.418,4.781
	C15.18,30.323,14.474,28.525,14.056,28.309z"/>
<path fill="#96AAB0" d="M3.168,45.047c1.226,2.5,7.881,4.224,9.437,8.095l-0.419,2.576c0,0-0.813-2.445-1.375-3.141
	c-1.662-2.051-6.394-3.914-7.722-6.627c-1.08-2.203-1.344-8.299-0.852-13.377C1.859,37.449,2.152,42.972,3.168,45.047z"/>
<path fill="#C5D7E8" d="M10.153,58.173c-0.258,2.947,28.429,5.459,28.689,2.51c0,0-0.881-7.076-0.676-9.426
	c0.84-9.596,2.729-31.17,2.729-31.17c0.086-0.989-25.628-3.239-25.714-2.249c0,0-1.888,21.575-2.728,31.169
	C12.248,51.357,10.153,58.173,10.153,58.173z"/>
<linearGradient id="SVGID_3_" gradientUnits="userSpaceOnUse" x1="224.5625" y1="58.5889" x2="224.5625" y2="28.3408" gradientTransform="matrix(-0.9962 -0.0872 -0.0872 0.9962 253.6838 16.3588)">
	<stop  offset="0" style="stop-color:#F59E01"/>
	<stop  offset="0.3749" style="stop-color:#F39B01"/>
	<stop  offset="0.6448" style="stop-color:#EB9203"/>
	<stop  offset="0.8811" style="stop-color:#DD8205"/>
	<stop  offset="1" style="stop-color:#D47706"/>
	<a:midPointStop  offset="0" style="stop-color:#F59E01"/>
	<a:midPointStop  offset="0.7697" style="stop-color:#F59E01"/>
	<a:midPointStop  offset="1" style="stop-color:#D47706"/>
</linearGradient>
<path fill="url(#SVGID_3_)" d="M15.419,24.761c0,0-1.461,27.478-0.547,28.046h0.014c0.706,1.053,5.342,1.947,9.984,2.344
	c4.639,0.416,9.364,0.34,10.243-0.574l0.012,0.002c0.998-0.4,4.33-27.715,4.33-27.715C39.422,25.794,15.638,23.713,15.419,24.761z"
	/>
<path fill="#FFE8C9" d="M15.992,18.222c0,0-0.236,2.703-0.572,6.54c8.891,0.518,15.189,1.069,24.036,2.103
	c0.336-3.837,0.572-6.54,0.572-6.54C40.094,19.574,16.058,17.471,15.992,18.222z"/>
<path fill="#D47706" d="M29.908,47.378c-0.227,2.584-4.104,2.245-3.877-0.34C26.257,44.454,30.132,44.794,29.908,47.378z"/>
<path fill="#D47706" d="M31.796,41.411c-0.135,1.551-2.463,1.348-2.326-0.203C29.605,39.657,31.933,39.861,31.796,41.411z"/>
<path fill="#D47706" d="M29.287,38.849c-0.182,2.066-3.283,1.795-3.102-0.271C26.365,36.51,29.466,36.781,29.287,38.849z"/>
<path fill="#D47706" d="M31.994,34.69c-0.09,1.034-1.641,0.898-1.551-0.136C30.535,33.521,32.083,33.657,31.994,34.69z"/>
<path fill="#96AAB0" d="M14.501,54.786c10.393,5.238,12.291,4.721,22.008,2.109C28.816,57.503,22.558,56.458,14.501,54.786z"/>
<path fill="#96AAB0" d="M13.523,56.188c6.172,3.219,13.023,4.4,19.352,2.674C26.265,58.688,20.035,57.04,13.523,56.188z"/>
<linearGradient id="SVGID_4_" gradientUnits="userSpaceOnUse" x1="215.7705" y1="54.2598" x2="215.7705" y2="23.0034" gradientTransform="matrix(-0.9962 -0.0872 -0.0872 0.9962 253.6838 16.3588)">
	<stop  offset="0" style="stop-color:#FFFFFF;stop-opacity:0"/>
	<stop  offset="0.1142" style="stop-color:#FFFFFF;stop-opacity:0.1142"/>
	<stop  offset="1" style="stop-color:#FFFFFF"/>
	<a:midPointStop  offset="0" style="stop-color:#FFFFFF;stop-opacity:0"/>
	<a:midPointStop  offset="0.2303" style="stop-color:#FFFFFF;stop-opacity:0"/>
	<a:midPointStop  offset="1" style="stop-color:#FFFFFF"/>
</linearGradient>
<path opacity="0.5" fill="url(#SVGID_4_)" enable-background="new    " d="M37.979,24.394c-0.98,9.357-2.363,18.915-2.4,26.305
	c-0.006,1.025-3.104,1.403-3.004-0.164c0.454-7.182,1.592-17.745,2.418-26.401L37.979,24.394z"/>
<path fill="#FFF3E3" d="M36.813,21.355c-2.666,3.405-3.156-2.581-6.663,0.933c-2.492,2.495-4.17-2.979-8.275-0.94
	c-1.707,0.848-0.998,3.833-1.186,5.971c-0.211,2.401-2.361,2.529-2.125-0.186c0.176-2.009,1.68-4.785,0.68-6.728
	c-1.502-2.913-3.49-1.771-4.214-0.857c-1.639-2.204,4.39-5.918,9.601-4.024c2.713,0.987,5.807-0.978,9.149,0.345
	c2.441,0.966,2.816,1.926,4.424,2.432c1.57,0.495,3.117,0.45,3.008,3.401C41.127,23.944,38.352,19.39,36.813,21.355z"/>
<path fill="#FFFFFF" d="M40.633,20.519c-0.328-1.534-3.105-1.573-3.105-1.573C38.314,19.794,40.963,22.053,40.633,20.519z"/>
<path fill="#FFFFFF" d="M20.091,25.672c0,0,0.877,1.514-0.113,2.71C19.378,29.105,20.091,25.672,20.091,25.672z"/>
<path fill="#FFFFFF" d="M30.437,16.874c0.824,0.757,0.775,1.151,0.775,1.151c-3.654-1.849-6.58-0.926-6.58-0.926
	c2.777,0.005,3.236,1.495,5.85,1.724c2.057,0.18,1.938-0.42,3.879-0.065C32.798,18.211,32.492,17.18,30.437,16.874z"/>
</svg>
