<?xml version="1.0" encoding="utf-8"?>
<!-- Generator: Adobe Illustrator 15.0.0, SVG Export Plug-In . SVG Version: 6.00 Build 0)  -->
<!DOCTYPE svg PUBLIC "-//W3C//DTD SVG 1.1//EN" "http://www.w3.org/Graphics/SVG/1.1/DTD/svg11.dtd" [
	<!ENTITY ns_flows "http://ns.adobe.com/Flows/1.0/">
	<!ENTITY ns_extend "http://ns.adobe.com/Extensibility/1.0/">
	<!ENTITY ns_ai "http://ns.adobe.com/AdobeIllustrator/10.0/">
	<!ENTITY ns_graphs "http://ns.adobe.com/Graphs/1.0/">
]>
<svg version="1.1" id="Layer_1" xmlns:x="&ns_extend;" xmlns:i="&ns_ai;" xmlns:graph="&ns_graphs;"
	 xmlns="http://www.w3.org/2000/svg" xmlns:xlink="http://www.w3.org/1999/xlink" xmlns:a="http://ns.adobe.com/AdobeSVGViewerExtensions/3.0/"
	 x="0px" y="0px" width="64px" height="64px" viewBox="0 0 64 64" enable-background="new 0 0 64 64" xml:space="preserve">
<path fill="#FFD480" d="M19.457,13.9c-0.942-3.331,0.836-7.821,2.917-6.48C24.504,8.792,20.073,10.17,19.457,13.9z"/>
<path fill="#FFD480" d="M18.385,12.431C14.205,8.01,16.89,2.176,19.109,2.889C21.387,3.62,17.094,8.431,18.385,12.431z"/>
<path fill="#FFD480" d="M16.378,11.926C9.91,5.213,12.233,1.448,13.82,2.065C15.446,2.698,13.767,7.343,16.378,11.926z"/>
<path fill="#FFD480" d="M6.446,15.5c-2.877-0.428-5.905,3.333-3.673,4.484C4.463,20.846,4.346,17.224,6.446,15.5z"/>
<path fill="#FFD480" d="M2.157,15.882c0.959,1.123,3.499-3.502,8.051-3.229C4.12,10.649,1.377,14.977,2.157,15.882z"/>
<radialGradient id="SVGID_1_" cx="8.1401" cy="26.5342" r="8.0121" gradientTransform="matrix(0.9491 -0.3065 0.221 0.6849 -4.5787 -0.7202)" gradientUnits="userSpaceOnUse">
	<stop  offset="0" style="stop-color:#FFE1BD"/>
	<stop  offset="0.2329" style="stop-color:#FFE0B9"/>
	<stop  offset="0.4777" style="stop-color:#FFDDAC"/>
	<stop  offset="0.7271" style="stop-color:#FFD997"/>
	<stop  offset="0.9333" style="stop-color:#FFD480"/>
	<a:midPointStop  offset="0" style="stop-color:#FFE1BD"/>
	<a:midPointStop  offset="0.697" style="stop-color:#FFE1BD"/>
	<a:midPointStop  offset="0.9333" style="stop-color:#FFD480"/>
</radialGradient>
<path fill="url(#SVGID_1_)" d="M7.804,18.977c1.136,6.156,5.761-1.25,7.318,0.073l4.048-4.048
	C16.105,8.529,1.55,15.683,7.804,18.977z"/>
<linearGradient id="SVGID_2_" gradientUnits="userSpaceOnUse" x1="314.1533" y1="-32.0884" x2="335.209" y2="-32.0884" gradientTransform="matrix(0.7071 -0.7071 0.7071 0.7071 -162.2614 296.8975)">
	<stop  offset="0" style="stop-color:#22401A"/>
	<stop  offset="0.1217" style="stop-color:#2B5B1F"/>
	<stop  offset="0.2503" style="stop-color:#326F23"/>
	<stop  offset="0.3774" style="stop-color:#367C25"/>
	<stop  offset="0.5" style="stop-color:#378026"/>
	<stop  offset="0.6226" style="stop-color:#367C25"/>
	<stop  offset="0.7497" style="stop-color:#326F23"/>
	<stop  offset="0.8783" style="stop-color:#2B5B1F"/>
	<stop  offset="1" style="stop-color:#22401A"/>
	<a:midPointStop  offset="0" style="stop-color:#22401A"/>
	<a:midPointStop  offset="0.3" style="stop-color:#22401A"/>
	<a:midPointStop  offset="0.5" style="stop-color:#378026"/>
	<a:midPointStop  offset="0.7" style="stop-color:#378026"/>
	<a:midPointStop  offset="1" style="stop-color:#22401A"/>
</linearGradient>
<path fill="url(#SVGID_2_)" d="M38.607,27.619L27.635,38.597c1.068,2.924,2.27,5.712,4.662,8.346
	c0.898,0.987,11.369,11.803,14.553,14.637c1.416,1.258,4.084-0.226,9.295-5.438c5.209-5.212,6.691-7.882,5.434-9.298
	c-2.832-3.186-13.644-13.66-14.627-14.559C44.316,29.89,41.529,28.689,38.607,27.619z"/>
<path fill="#B47D56" d="M10.764,6.94c0,1.345-2.455,3.802-3.8,3.801c-1.259,0.001-3.567-3.569-3.567-3.569l3.799-3.801
	C7.196,3.371,10.764,5.68,10.764,6.94z"/>
<path fill="#9E6C49" d="M9.146,2.708c1.083,1.083-5.331,7.499-6.414,6.417C-0.097,6.292,6.316-0.123,9.146,2.708z"/>
<radialGradient id="SVGID_3_" cx="5.7715" cy="36.4063" r="5.2887" gradientTransform="matrix(0.9973 0 0 0.9977 0.8923 -11.5139)" gradientUnits="userSpaceOnUse">
	<stop  offset="0" style="stop-color:#FFE1BD"/>
	<stop  offset="0.3617" style="stop-color:#FFDBA1"/>
	<stop  offset="0.7568" style="stop-color:#FFD689"/>
	<stop  offset="1" style="stop-color:#FFD480"/>
	<a:midPointStop  offset="0" style="stop-color:#FFE1BD"/>
	<a:midPointStop  offset="0.4" style="stop-color:#FFE1BD"/>
	<a:midPointStop  offset="1" style="stop-color:#FFD480"/>
</radialGradient>
<path fill="url(#SVGID_3_)" d="M11.915,24.328c2.753,5.106-4.943,9.47-6.673,3.932C3.579,22.938,9.995,20.765,11.915,24.328z"/>
<path fill="#FFD480" d="M14.112,29.512c2.363,4.383-4.244,8.129-5.729,3.375C6.956,28.318,12.463,26.451,14.112,29.512z"/>
<radialGradient id="SVGID_4_" cx="5.9976" cy="44.4063" r="4.5388" gradientTransform="matrix(0.9973 0 0 0.9977 0.8923 -11.5139)" gradientUnits="userSpaceOnUse">
	<stop  offset="0" style="stop-color:#FFE1BD"/>
	<stop  offset="0.3617" style="stop-color:#FFDBA1"/>
	<stop  offset="0.7568" style="stop-color:#FFD689"/>
	<stop  offset="1" style="stop-color:#FFD480"/>
	<a:midPointStop  offset="0" style="stop-color:#FFE1BD"/>
	<a:midPointStop  offset="0.4" style="stop-color:#FFE1BD"/>
	<a:midPointStop  offset="1" style="stop-color:#FFD480"/>
</radialGradient>
<path fill="url(#SVGID_4_)" d="M10.933,31.555c2.364,4.385-4.244,8.128-5.73,3.374C3.776,30.361,9.284,28.494,10.933,31.555z"/>
<path fill="#FFD480" d="M13.292,40.821c1.651,3.066-2.968,5.687-4.006,2.361C8.288,39.989,12.137,38.684,13.292,40.821z"/>
<path fill="#FFD480" d="M13.643,35.654c2.016,3.742-3.622,6.938-4.889,2.88C7.535,34.637,12.235,33.044,13.643,35.654z"/>
<path fill="#FFD480" d="M13.431,46.799c0.839,1.556-1.507,2.887-2.033,1.199C10.889,46.376,12.846,45.712,13.431,46.799z"/>
<radialGradient id="SVGID_5_" cx="6.8252" cy="55.4209" r="2.7592" gradientTransform="matrix(0.9973 0 0 0.9977 0.8923 -11.5139)" gradientUnits="userSpaceOnUse">
	<stop  offset="0" style="stop-color:#FFE1BD"/>
	<stop  offset="0.3617" style="stop-color:#FFDBA1"/>
	<stop  offset="0.7568" style="stop-color:#FFD689"/>
	<stop  offset="1" style="stop-color:#FFD480"/>
	<a:midPointStop  offset="0" style="stop-color:#FFE1BD"/>
	<a:midPointStop  offset="0.4" style="stop-color:#FFE1BD"/>
	<a:midPointStop  offset="1" style="stop-color:#FFD480"/>
</radialGradient>
<path fill="url(#SVGID_5_)" d="M10.181,43.511c1.409,2.613-2.53,4.848-3.415,2.014C5.915,42.799,9.198,41.687,10.181,43.511z"/>
<linearGradient id="SVGID_6_" gradientUnits="userSpaceOnUse" x1="365.043" y1="-92.4014" x2="383.748" y2="-92.4014" gradientTransform="matrix(0.7071 -0.7071 0.7071 0.7071 -151.8229 377.6406)">
	<stop  offset="0" style="stop-color:#B38C3E"/>
	<stop  offset="0.0163" style="stop-color:#B68F41"/>
	<stop  offset="0.228" style="stop-color:#DEB463"/>
	<stop  offset="0.3966" style="stop-color:#F6CC78"/>
	<stop  offset="0.5" style="stop-color:#FFD480"/>
	<stop  offset="0.6034" style="stop-color:#F6CC78"/>
	<stop  offset="0.772" style="stop-color:#DEB463"/>
	<stop  offset="0.9837" style="stop-color:#B68F41"/>
	<stop  offset="1" style="stop-color:#B38C3E"/>
	<a:midPointStop  offset="0" style="stop-color:#B38C3E"/>
	<a:midPointStop  offset="0.4" style="stop-color:#B38C3E"/>
	<a:midPointStop  offset="0.5" style="stop-color:#FFD480"/>
	<a:midPointStop  offset="0.6" style="stop-color:#FFD480"/>
	<a:midPointStop  offset="1" style="stop-color:#B38C3E"/>
</linearGradient>
<path fill="url(#SVGID_6_)" d="M59.673,46.445c-3.685,5.075-8.148,9.539-13.222,13.227c-3.831-3.833-7.663-7.666-11.494-11.498
	c3.141-2.282,10.941-10.086,13.222-13.228C52.012,38.779,55.842,42.612,59.673,46.445z"/>
<path opacity="0.5" fill="#FFFFFF" d="M42.74,42.732c-2.67,2.672-2.672,7.003-0.001,9.674c2.672,2.673,7.001,2.673,9.673,0
	c2.668-2.669,2.67-7.002,0-9.674C49.741,40.06,45.408,40.063,42.74,42.732z M51.203,51.197c-2.001,2.001-5.254,2.001-7.256,0.001
	c-1.999-2.002-1.998-5.256-0.001-7.255c2.001-2.002,5.257-2.003,7.257-0.001C53.201,45.942,53.199,49.198,51.203,51.197z"/>
<path opacity="0.5" fill="#FFFFFF" d="M49.629,44.548l-1.57,1.57c-0.162,0.163-0.165,0.324,0,0.485l0.484,0.484
	c0.162,0.162,0.321,0.16,0.482-0.001l0.529-0.529c0.428,0.838,0.291,1.886-0.408,2.584c-0.422,0.423-0.984,0.651-1.572,0.654
	c-0.229-0.001-0.342,0.111-0.341,0.34l-0.001,1.027c0.002,0.229,0.113,0.341,0.342,0.342c1.037-0.002,2.035-0.405,2.779-1.152
	c1.537-1.538,1.539-4.027,0.002-5.564l-0.24-0.242C49.953,44.384,49.793,44.384,49.629,44.548z"/>
<linearGradient id="SVGID_7_" gradientUnits="userSpaceOnUse" x1="162.332" y1="425.9414" x2="170.1631" y2="425.9414" gradientTransform="matrix(0.7071 -0.7071 0.7071 0.7071 -398.2286 -163.1387)">
	<stop  offset="0" style="stop-color:#22401A"/>
	<stop  offset="0.1217" style="stop-color:#2B5B1F"/>
	<stop  offset="0.2503" style="stop-color:#326F23"/>
	<stop  offset="0.3774" style="stop-color:#367C25"/>
	<stop  offset="0.5" style="stop-color:#378026"/>
	<stop  offset="0.6226" style="stop-color:#367C25"/>
	<stop  offset="0.7497" style="stop-color:#326F23"/>
	<stop  offset="0.8783" style="stop-color:#2B5B1F"/>
	<stop  offset="1" style="stop-color:#22401A"/>
	<a:midPointStop  offset="0" style="stop-color:#22401A"/>
	<a:midPointStop  offset="0.3" style="stop-color:#22401A"/>
	<a:midPointStop  offset="0.5" style="stop-color:#378026"/>
	<a:midPointStop  offset="0.7" style="stop-color:#378026"/>
	<a:midPointStop  offset="1" style="stop-color:#22401A"/>
</linearGradient>
<path fill="url(#SVGID_7_)" d="M16.91,16.891c-2.004,2.005-3.24,3.329-1.513,3.624c0.897,1.27,2.294,2.778,2.744,3.02
	c0.257,0.137,1.014,0.073,1.217,0.278c0.919,0.919,1.699,1.797,2.389,2.648l4.729-4.729c-0.852-0.69-1.73-1.47-2.649-2.39
	c-0.203-0.204-0.14-0.963-0.277-1.219c-0.239-0.451-1.746-1.848-3.016-2.745C20.239,13.652,18.916,14.887,16.91,16.891z"/>
<linearGradient id="SVGID_8_" gradientUnits="userSpaceOnUse" x1="316.625" y1="-54.6782" x2="332.749" y2="-54.6782" gradientTransform="matrix(0.7071 -0.7071 0.7071 0.7071 -162.2614 296.8975)">
	<stop  offset="0" style="stop-color:#B38C3E"/>
	<stop  offset="0.0163" style="stop-color:#B68F41"/>
	<stop  offset="0.228" style="stop-color:#DEB463"/>
	<stop  offset="0.3966" style="stop-color:#F6CC78"/>
	<stop  offset="0.5" style="stop-color:#FFD480"/>
	<stop  offset="0.6034" style="stop-color:#F6CC78"/>
	<stop  offset="0.772" style="stop-color:#DEB463"/>
	<stop  offset="0.9837" style="stop-color:#B68F41"/>
	<stop  offset="1" style="stop-color:#B38C3E"/>
	<a:midPointStop  offset="0" style="stop-color:#B38C3E"/>
	<a:midPointStop  offset="0.4" style="stop-color:#B38C3E"/>
	<a:midPointStop  offset="0.5" style="stop-color:#FFD480"/>
	<a:midPointStop  offset="0.6" style="stop-color:#FFD480"/>
	<a:midPointStop  offset="1" style="stop-color:#B38C3E"/>
</linearGradient>
<path fill="url(#SVGID_8_)" d="M21.747,26.461c3.792,4.683,4.503,8.487,6.142,12.816c3.395-2.869,8.529-8.005,11.398-11.404
	c-4.328-1.638-8.13-2.349-12.811-6.142l-0.942-0.205l0.118,0.737l-1.371,0.81l-1.12,1.79l-1.138,0.408L21.747,26.461z"/>
</svg>
