<?xml version="1.0" encoding="utf-8"?>
<!-- Generator: Adobe Illustrator 15.0.0, SVG Export Plug-In . SVG Version: 6.00 Build 0)  -->
<!DOCTYPE svg PUBLIC "-//W3C//DTD SVG 1.1//EN" "http://www.w3.org/Graphics/SVG/1.1/DTD/svg11.dtd" [
	<!ENTITY ns_flows "http://ns.adobe.com/Flows/1.0/">
	<!ENTITY ns_extend "http://ns.adobe.com/Extensibility/1.0/">
	<!ENTITY ns_ai "http://ns.adobe.com/AdobeIllustrator/10.0/">
	<!ENTITY ns_graphs "http://ns.adobe.com/Graphs/1.0/">
]>
<svg version="1.1" id="Layer_1" xmlns:x="&ns_extend;" xmlns:i="&ns_ai;" xmlns:graph="&ns_graphs;"
	 xmlns="http://www.w3.org/2000/svg" xmlns:xlink="http://www.w3.org/1999/xlink" xmlns:a="http://ns.adobe.com/AdobeSVGViewerExtensions/3.0/"
	 x="0px" y="0px" width="64px" height="64px" viewBox="0 0 64 64" enable-background="new 0 0 64 64" xml:space="preserve">
<linearGradient id="SVGID_1_" gradientUnits="userSpaceOnUse" x1="2" y1="53.0371" x2="58.375" y2="53.0371">
	<stop  offset="0" style="stop-color:#FFD675"/>
	<stop  offset="0.3819" style="stop-color:#FFD267"/>
	<stop  offset="1" style="stop-color:#FFC847"/>
	<a:midPointStop  offset="0" style="stop-color:#FFD675"/>
	<a:midPointStop  offset="0.5636" style="stop-color:#FFD675"/>
	<a:midPointStop  offset="1" style="stop-color:#FFC847"/>
</linearGradient>
<polygon fill="url(#SVGID_1_)" points="56.394,54.677 2,62 2,51.593 58.375,44.074 "/>
<linearGradient id="SVGID_2_" gradientUnits="userSpaceOnUse" x1="2" y1="30.2163" x2="58.4053" y2="30.2163">
	<stop  offset="0" style="stop-color:#FFD675"/>
	<stop  offset="0.3819" style="stop-color:#FFD267"/>
	<stop  offset="1" style="stop-color:#FFC847"/>
	<a:midPointStop  offset="0" style="stop-color:#FFD675"/>
	<a:midPointStop  offset="0.5636" style="stop-color:#FFD675"/>
	<a:midPointStop  offset="1" style="stop-color:#FFC847"/>
</linearGradient>
<polygon fill="url(#SVGID_2_)" points="58.405,33.184 2,40.906 2,29.932 56.422,19.526 "/>
<polygon fill="#FFD1CF" points="58.375,44.074 2,51.593 2,40.906 58.405,32.839 "/>
<path fill="#E81C27" d="M20.376,39.718c0.183,4.39-3.46,8.441-8.132,9.093c-4.664,0.648-8.658-2.328-8.933-6.69L20.376,39.718z"/>
<path fill="#F66257" d="M18.181,40.025c0.143,3.263-2.564,6.287-6.043,6.772c-3.476,0.483-6.446-1.735-6.643-4.985L18.181,40.025z"
	/>
<path fill="#E81C27" d="M54.894,34.857c-0.004,4.441-3.844,8.541-8.571,9.201c-4.717,0.655-8.607-2.354-8.699-6.771L54.894,34.857z"
	/>
<path fill="#F66257" d="M52.668,35.171c0.006,3.302-2.845,6.362-6.364,6.853c-3.518,0.494-6.41-1.756-6.466-5.045L52.668,35.171z"/>
<path fill="#E81C27" d="M20.744,47.624c-0.182-4.351,3.506-8.452,8.242-9.118c4.744-0.668,8.668,2.371,8.761,6.749L20.744,47.624z"
	/>
<path fill="#F66257" d="M22.922,47.32c-0.124-3.231,2.617-6.271,6.129-6.764c3.518-0.494,6.431,1.756,6.507,5.004L22.922,47.32z"/>
<path fill="#F5EDDD" d="M60.598,21.577c-2.171-6.196-17.427-8.744-21.227-8.226C28.556,14.824,9.467,22.292,2,26.714v3.218
	c37.138-5.28,51.796-7.247,53.77-5.342c1.364,1.317,1.625,11.655,0.624,30.087l4.204-0.51
	C60.598,54.167,63.754,30.589,60.598,21.577z"/>
<path fill="#E6DED3" d="M54.679,18.948c8.379-0.781-8.445-6.454-14.841-5.642C16.752,16.24,2,26.714,2,26.714
	S25.907,21.631,54.679,18.948z"/>
<path opacity="0.1" fill="#D46A06" d="M21.927,31.871c-0.826-0.474-0.082-1.659,0.744-1.186
	C23.498,31.162,22.754,32.348,21.927,31.871z"/>
<path opacity="0.1" fill="#D46A06" d="M34.452,30.106c-0.826-0.474-0.082-1.659,0.744-1.186
	C36.023,29.397,35.28,30.583,34.452,30.106z"/>
<path opacity="0.1" fill="#D46A06" d="M44.075,31.871c-0.826-0.474-0.082-1.659,0.744-1.186
	C45.647,31.162,44.903,32.348,44.075,31.871z"/>
<path opacity="0.1" fill="#D46A06" d="M51.563,31.168c-0.826-0.474-0.082-1.659,0.744-1.186
	C53.135,30.459,52.391,31.645,51.563,31.168z"/>
<path opacity="0.1" fill="#D46A06" d="M48.349,28.009c-0.826-0.474-0.082-1.659,0.743-1.186C49.92,27.3,49.176,28.485,48.349,28.009
	z"/>
<path opacity="0.1" fill="#D46A06" d="M25.225,34.282c0.41-0.678,1.473-0.092,1.063,0.588C25.879,35.548,24.814,34.96,25.225,34.282
	z"/>
<path opacity="0.1" fill="#D46A06" d="M39.645,27.826c0.41-0.678,1.473-0.092,1.063,0.588
	C40.299,29.092,39.234,28.504,39.645,27.826z"/>
<path opacity="0.1" fill="#D46A06" d="M36.593,33.14c0.409-0.678,1.472-0.092,1.063,0.588C37.246,34.405,36.183,33.817,36.593,33.14
	z"/>
<path opacity="0.1" fill="#D46A06" d="M5.588,31.688c0.41-0.678,1.473-0.092,1.063,0.588C6.242,32.953,5.178,32.365,5.588,31.688z"
	/>
<path opacity="0.1" fill="#D46A06" d="M17.27,35.324c0.526-0.873,1.896-0.115,1.369,0.756C18.112,36.955,16.741,36.198,17.27,35.324
	z"/>
<path opacity="0.1" fill="#D46A06" d="M11.329,35.436c0.374-0.617,1.345-0.083,0.97,0.535
	C11.925,36.589,10.957,36.054,11.329,35.436z"/>
<path opacity="0.1" fill="#D46A06" d="M34.143,52.954c0.853,0.422,0.179,1.651-0.673,1.229
	C32.615,53.759,33.287,52.529,34.143,52.954z"/>
<path opacity="0.1" fill="#D46A06" d="M21.743,55.488c0.852,0.422,0.18,1.651-0.673,1.229
	C20.217,56.293,20.889,55.063,21.743,55.488z"/>
<path opacity="0.1" fill="#D46A06" d="M12.033,54.32c0.853,0.422,0.181,1.651-0.672,1.229C10.506,55.125,11.179,53.896,12.033,54.32
	z"/>
<path opacity="0.1" fill="#D46A06" d="M7.996,58.439c0.852,0.422,0.18,1.651-0.674,1.229C6.469,59.244,7.142,58.015,7.996,58.439z"
	/>
<path opacity="0.1" fill="#D46A06" d="M30.709,50.751c-0.37,0.702-1.465,0.183-1.096-0.521
	C29.98,49.528,31.078,50.049,30.709,50.751z"/>
<path opacity="0.1" fill="#D46A06" d="M16.694,58.085c-0.369,0.702-1.464,0.183-1.095-0.521
	C15.968,56.861,17.064,57.383,16.694,58.085z"/>
<path opacity="0.1" fill="#D46A06" d="M19.429,52.593c-0.37,0.702-1.465,0.183-1.095-0.521
	C18.701,51.37,19.798,51.891,19.429,52.593z"/>
<path opacity="0.1" fill="#D46A06" d="M50.462,52.129c-0.369,0.702-1.464,0.183-1.095-0.521
	C49.735,50.906,50.832,51.428,50.462,52.129z"/>
<path opacity="0.1" fill="#D46A06" d="M38.588,49.22c-0.475,0.904-1.886,0.232-1.412-0.67C37.65,47.645,39.063,48.314,38.588,49.22z
	"/>
<path opacity="0.1" fill="#D46A06" d="M44.511,48.742c-0.337,0.64-1.338,0.166-0.999-0.475
	C43.849,47.628,44.845,48.103,44.511,48.742z"/>
<path fill="#C2BAB1" d="M35.486,18.197c0.16,1.327-12.736,2.876-12.896,1.549C22.431,18.418,35.327,16.869,35.486,18.197z"/>
<radialGradient id="SVGID_3_" cx="-8.2388" cy="92.3438" r="7.912" gradientTransform="matrix(-0.7189 -0.7056 -0.8156 0.8005 95.2853 -68.0931)" gradientUnits="userSpaceOnUse">
	<stop  offset="0.4" style="stop-color:#F5000D"/>
	<stop  offset="0.6175" style="stop-color:#F2010D"/>
	<stop  offset="0.7583" style="stop-color:#EA040E"/>
	<stop  offset="0.8774" style="stop-color:#DB0A10"/>
	<stop  offset="0.9838" style="stop-color:#C61213"/>
	<stop  offset="1" style="stop-color:#C21413"/>
	<a:midPointStop  offset="0.4" style="stop-color:#F5000D"/>
	<a:midPointStop  offset="0.7879" style="stop-color:#F5000D"/>
	<a:midPointStop  offset="1" style="stop-color:#C21413"/>
</radialGradient>
<path fill="url(#SVGID_3_)" d="M34.413,7.142c2.765,2.759,3.989,6.774,1.294,9.463c-3.654,3.648-11.498,4.133-13.211,2.424
	c-1.692-1.69-1.125-9.714,2.416-13.188C27.858,2.95,31.189,3.977,34.413,7.142z"/>
<radialGradient id="SVGID_4_" cx="468.835" cy="-504.4814" r="4.8789" gradientTransform="matrix(-1.0684 -0.1043 0.1808 -1.0825 620.3008 -486.9057)" gradientUnits="userSpaceOnUse">
	<stop  offset="0" style="stop-color:#FF4F42"/>
	<stop  offset="1" style="stop-color:#FF4F42;stop-opacity:0"/>
	<a:midPointStop  offset="0" style="stop-color:#FF4F42"/>
	<a:midPointStop  offset="0.5" style="stop-color:#FF4F42"/>
	<a:midPointStop  offset="1" style="stop-color:#FF4F42;stop-opacity:0"/>
</radialGradient>
<path fill="url(#SVGID_4_)" d="M22.975,9.787c0.486-2.916,3.215-5.054,6.094-4.773c2.88,0.282,4.818,2.874,4.332,5.791
	c-0.488,2.917-3.217,5.053-6.096,4.771C24.425,15.297,22.487,12.704,22.975,9.787z"/>
<path fill="#E0000D" d="M29.6,10.456c-0.666,0.726,0.081,1.386,0.745,0.661C31.012,10.395,30.264,9.733,29.6,10.456z"/>
<path fill="#EA8800" d="M29.768,10.703c-0.183,0.505-0.183,0.505,0.31,0.274C30.759,10.656,30.023,10.005,29.768,10.703z"/>
<path fill="#E0000D" d="M26.979,11.172c-0.703,0.688,0.008,1.387,0.711,0.697S27.683,10.481,26.979,11.172z"/>
<path fill="#EA8800" d="M27.136,11.426c-0.21,0.494-0.21,0.494,0.294,0.288C28.128,11.43,27.428,10.74,27.136,11.426z"/>
<path fill="#E0000D" d="M24.515,12.337c-0.704,0.689,0.008,1.386,0.71,0.696C25.927,12.346,25.216,11.646,24.515,12.337z"/>
<path fill="#EA8800" d="M24.671,12.592c-0.21,0.494-0.21,0.494,0.294,0.288C25.663,12.594,24.962,11.906,24.671,12.592z"/>
<path fill="#E0000D" d="M22.29,15.188c-0.416,0.886,0.496,1.3,0.911,0.414C23.618,14.717,22.707,14.303,22.29,15.188z"/>
<path fill="#EA8800" d="M22.525,15.374c-0.021,0.535-0.021,0.535,0.378,0.172C23.459,15.041,22.559,14.633,22.525,15.374z"/>
<path fill="#E0000D" d="M22.352,17.592c-0.146,0.963,0.85,1.107,0.995,0.143C23.49,16.77,22.496,16.626,22.352,17.592z"/>
<path fill="#EA8800" d="M22.633,17.705c0.132,0.518,0.132,0.518,0.412,0.059C23.431,17.126,22.449,16.983,22.633,17.705z"/>
<path fill="#E0000D" d="M24.68,15.352c-0.793,0.588-0.187,1.375,0.606,0.785C26.078,15.548,25.471,14.763,24.68,15.352z"/>
<path fill="#EA8800" d="M24.798,15.625c-0.276,0.46-0.276,0.46,0.251,0.324C25.781,15.76,25.183,14.985,24.798,15.625z"/>
<path fill="#E0000D" d="M26.947,18.463c-0.909,0.39-0.508,1.294,0.402,0.902C28.259,18.976,27.858,18.072,26.947,18.463z"/>
<path fill="#EA8800" d="M26.998,18.757c-0.378,0.384-0.378,0.384,0.167,0.374C27.921,19.113,27.523,18.223,26.998,18.757z"/>
<path fill="#E0000D" d="M27.686,16.355c-0.909,0.391-0.507,1.294,0.404,0.904C28.999,16.869,28.598,15.965,27.686,16.355z"/>
<path fill="#EA8800" d="M27.736,16.649c-0.378,0.386-0.378,0.386,0.168,0.374C28.66,17.009,28.264,16.117,27.736,16.649z"/>
<path fill="#E0000D" d="M26.874,14.034c-0.729,0.663-0.044,1.387,0.685,0.724C28.286,14.095,27.604,13.371,26.874,14.034z"/>
<path fill="#EA8800" d="M27.022,14.296c-0.229,0.485-0.229,0.485,0.281,0.298C28.013,14.334,27.339,13.621,27.022,14.296z"/>
<path fill="#E0000D" d="M29.774,15.582c-0.728,0.661-0.044,1.386,0.684,0.721C31.187,15.641,30.504,14.917,29.774,15.582z"/>
<path fill="#EA8800" d="M29.922,15.843c-0.229,0.483-0.229,0.483,0.281,0.298C30.913,15.882,30.239,15.168,29.922,15.843z"/>
<path fill="#E0000D" d="M30.239,17.545c-0.822,0.549-0.257,1.365,0.565,0.815C31.625,17.813,31.061,16.997,30.239,17.545z"/>
<path fill="#EA8800" d="M30.344,17.825c-0.299,0.447-0.299,0.447,0.234,0.338C31.318,18.01,30.761,17.205,30.344,17.825z"/>
<path fill="#E0000D" d="M33.053,16.22c-0.822,0.547-0.256,1.362,0.565,0.813C34.44,16.486,33.874,15.67,33.053,16.22z"/>
<path fill="#EA8800" d="M33.158,16.5c-0.3,0.445-0.3,0.445,0.233,0.335C34.133,16.684,33.575,15.88,33.158,16.5z"/>
<path fill="#E0000D" d="M29.213,13.119c-0.541,0.818,0.304,1.354,0.844,0.537C30.598,12.838,29.753,12.302,29.213,13.119z"/>
<path fill="#EA8800" d="M29.422,13.338c-0.102,0.525-0.102,0.525,0.347,0.222C30.391,13.137,29.56,12.608,29.422,13.338z"/>
<path fill="#E0000D" d="M33.684,12.331c-0.541,0.818,0.304,1.355,0.844,0.537S34.224,11.513,33.684,12.331z"/>
<path fill="#EA8800" d="M33.893,12.55c-0.101,0.525-0.101,0.525,0.348,0.221C34.862,12.349,34.03,11.819,33.893,12.55z"/>
<path fill="#E0000D" d="M32.087,14.339c-0.541,0.818,0.302,1.354,0.844,0.535C33.471,14.057,32.628,13.521,32.087,14.339z"/>
<path fill="#EA8800" d="M32.295,14.556c-0.1,0.526-0.1,0.526,0.348,0.222C33.266,14.355,32.434,13.825,32.295,14.556z"/>
<path fill="#E0000D" d="M34.872,14.48c-0.26,0.941,0.711,1.199,0.97,0.258C36.102,13.797,35.131,13.539,34.872,14.48z"/>
<path fill="#EA8800" d="M35.138,14.627c0.067,0.53,0.067,0.53,0.399,0.104C36,14.143,35.042,13.889,35.138,14.627z"/>
<path fill="#E0000D" d="M35.455,11.607c0.067,0.973,1.069,0.905,1.001-0.068C36.39,10.566,35.386,10.634,35.455,11.607z"/>
<path fill="#EA8800" d="M35.753,11.659c0.242,0.479,0.242,0.479,0.414-0.027C36.407,10.927,35.418,10.994,35.753,11.659z"/>
<path fill="#E0000D" d="M33.101,9.938c-0.635,0.75,0.137,1.381,0.771,0.632C34.509,9.82,33.736,9.188,33.101,9.938z"/>
<path fill="#EA8800" d="M33.28,10.181c-0.164,0.508-0.164,0.508,0.319,0.258C34.268,10.092,33.506,9.469,33.28,10.181z"/>
<path fill="#E0000D" d="M31.417,11.725c-0.636,0.749,0.138,1.381,0.773,0.631C32.826,11.606,32.054,10.976,31.417,11.725z"/>
<path fill="#EA8800" d="M31.598,11.966c-0.163,0.51-0.163,0.51,0.319,0.26C32.585,11.878,31.823,11.258,31.598,11.966z"/>
<path fill="#E0000D" d="M24.836,17.565c-0.908,0.39-0.506,1.295,0.404,0.902C26.149,18.078,25.748,17.174,24.836,17.565z"/>
<path fill="#EA8800" d="M24.888,17.859c-0.378,0.384-0.378,0.384,0.167,0.373C25.812,18.217,25.413,17.325,24.888,17.859z"/>
<path fill="#E0000D" d="M25.25,9.503c-0.644,0.743,0.122,1.381,0.767,0.64C26.66,9.399,25.895,8.76,25.25,9.503z"/>
<path fill="#EA8800" d="M25.427,9.745c-0.167,0.51-0.167,0.51,0.316,0.265C26.416,9.671,25.662,9.038,25.427,9.745z"/>
<path fill="#E0000D" d="M24.537,7.226c-0.706,0.688,0.002,1.387,0.707,0.7C25.95,7.239,25.243,6.539,24.537,7.226z"/>
<path fill="#EA8800" d="M24.691,7.481c-0.211,0.493-0.211,0.493,0.294,0.29C25.685,7.488,24.987,6.798,24.691,7.481z"/>
<path fill="#E0000D" d="M28.987,4.671c-0.967,0.228-0.732,1.187,0.232,0.961C30.186,5.404,29.953,4.445,28.987,4.671z"/>
<path fill="#EA8800" d="M28.982,4.97c-0.44,0.313-0.44,0.313,0.097,0.396C29.828,5.481,29.598,4.535,28.982,4.97z"/>
<path fill="#E0000D" d="M28.227,8.548c-0.901,0.412-0.473,1.306,0.427,0.892C29.553,9.024,29.125,8.132,28.227,8.548z"/>
<path fill="#EA8800" d="M28.285,8.84c-0.368,0.395-0.368,0.395,0.177,0.368C29.217,9.172,28.795,8.292,28.285,8.84z"/>
<path fill="#E0000D" d="M26.397,5.417c-0.9,0.413-0.473,1.307,0.427,0.893C27.725,5.895,27.296,5.003,26.397,5.417z"/>
<path fill="#EA8800" d="M26.455,5.71c-0.366,0.395-0.366,0.395,0.177,0.368C27.387,6.043,26.967,5.161,26.455,5.71z"/>
<path fill="#E0000D" d="M31.33,8.508c-0.935,0.333-0.59,1.26,0.344,0.928C32.608,9.102,32.262,8.174,31.33,8.508z"/>
<path fill="#EA8800" d="M31.36,8.804c-0.402,0.361-0.402,0.361,0.143,0.384C32.26,9.219,31.92,8.305,31.36,8.804z"/>
<path fill="#E0000D" d="M29.883,6.607c-0.933,0.335-0.588,1.262,0.344,0.927C31.16,7.203,30.816,6.275,29.883,6.607z"/>
<path fill="#EA8800" d="M29.914,6.904c-0.402,0.361-0.402,0.361,0.143,0.384C30.813,7.319,30.473,6.405,29.914,6.904z"/>
<path fill="#E0000D" d="M27.294,6.826c-0.935,0.335-0.59,1.262,0.343,0.927C28.571,7.422,28.228,6.493,27.294,6.826z"/>
<path fill="#EA8800" d="M27.325,7.123c-0.402,0.361-0.402,0.361,0.142,0.384C28.226,7.537,27.886,6.623,27.325,7.123z"/>
<path fill="#E0000D" d="M22.949,10.088c-0.251,0.944,0.723,1.191,0.973,0.248S23.198,9.146,22.949,10.088z"/>
<path fill="#EA8800" d="M23.215,10.231c0.076,0.529,0.076,0.529,0.402,0.102C24.071,9.739,23.111,9.496,23.215,10.231z"/>
<path fill="#E0000D" d="M22.504,12.49c-0.438,0.876,0.465,1.309,0.901,0.435C23.845,12.049,22.941,11.614,22.504,12.49z"/>
<path fill="#EA8800" d="M22.736,12.684c-0.037,0.532-0.037,0.532,0.372,0.177C23.676,12.369,22.786,11.942,22.736,12.684z"/>
<path fill="#7AB51D" d="M33.5,3.409c-0.346,1.464,1.702,1.764,0.391,4.188C31.536,7.323,32.196,4.945,33.5,3.409z"/>
<path fill="#7AB51D" d="M38.143,8.039c-1.467,0.348-1.768-1.696-4.197-0.387C34.219,9.999,36.604,9.341,38.143,8.039z"/>
<path fill="#56AB15" d="M30.509,2c-0.103,0.983,1.103,1.52,1.521,3.162c0,0,1.472,1.011,2.407,1.943
	c0.937,0.934,1.948,2.401,1.948,2.401c1.646,0.417,2.185,1.621,3.171,1.519c-1.212,1.699-4.273,0.012-4.135-1.644
	c0,0-1.376-0.653-1.469-1.794c-1.142-0.092-1.797-1.463-1.797-1.463C30.494,6.263,28.804,3.208,30.509,2z"/>
<path fill="#449C00" d="M32.012,3.392c-0.269,0.783,0.685,1.53,0.729,2.112c0.065,0.891-0.014,1.522,1.254,2.043
	c0.522,1.265,1.157,1.186,2.051,1.253c0.582,0.042,1.331,0.993,2.116,0.726c-1.256,2.628-4.84-0.432-4.253-1.893
	C32.442,8.221,29.377,4.645,32.012,3.392z"/>
<path fill="#7AB51D" d="M33.854,7.108c0.11,0.277,0.433,0.371,0.433,0.371c1.771-0.673,3.244-2.873,2.567-3.538
	C35.551,2.664,36.967,5.724,33.854,7.108z"/>
</svg>
