<?xml version="1.0" encoding="utf-8"?>
<!-- Generator: Adobe Illustrator 15.0.0, SVG Export Plug-In . SVG Version: 6.00 Build 0)  -->
<!DOCTYPE svg PUBLIC "-//W3C//DTD SVG 1.1//EN" "http://www.w3.org/Graphics/SVG/1.1/DTD/svg11.dtd" [
	<!ENTITY ns_flows "http://ns.adobe.com/Flows/1.0/">
	<!ENTITY ns_extend "http://ns.adobe.com/Extensibility/1.0/">
	<!ENTITY ns_ai "http://ns.adobe.com/AdobeIllustrator/10.0/">
	<!ENTITY ns_graphs "http://ns.adobe.com/Graphs/1.0/">
]>
<svg version="1.1" id="Layer_1" xmlns:x="&ns_extend;" xmlns:i="&ns_ai;" xmlns:graph="&ns_graphs;"
	 xmlns="http://www.w3.org/2000/svg" xmlns:xlink="http://www.w3.org/1999/xlink" xmlns:a="http://ns.adobe.com/AdobeSVGViewerExtensions/3.0/"
	 x="0px" y="0px" width="64px" height="64px" viewBox="0 0 64 64" enable-background="new 0 0 64 64" xml:space="preserve">
<path fill="#E81C27" d="M12.221,49.289C14.736,47.561,24.27,44,24.27,44h15.543c0,0,9.525,3.553,12.023,5.285
	C58.566,53.936,59,62,59,62H39.002c0,0-7.254-2.832-14.004,0H5C5,62,5.475,53.916,12.221,49.289z"/>
<rect x="24.998" y="50.861" fill="#FFFFFF" width="14.004" height="11.139"/>
<rect x="31.5" y="50.861" fill="#F2F5F7" width="1" height="11.139"/>
<path fill="#C21413" d="M31.832,2.285c0,0,18.01,14.184,16.492,32.545l5.209-1.025C53.533,18.754,49.771,2.285,31.832,2.285z"/>
<radialGradient id="SVGID_1_" cx="106.9844" cy="-116.6943" r="5.6212" gradientTransform="matrix(1 0 0 -1 -56 -80)" gradientUnits="userSpaceOnUse">
	<stop  offset="0" style="stop-color:#FFFFFF"/>
	<stop  offset="0.3139" style="stop-color:#F8F9F9"/>
	<stop  offset="0.7733" style="stop-color:#E4E8EA"/>
	<stop  offset="1" style="stop-color:#D8DDE0"/>
	<a:midPointStop  offset="0" style="stop-color:#FFFFFF"/>
	<a:midPointStop  offset="0.5" style="stop-color:#FFFFFF"/>
	<a:midPointStop  offset="0.3139" style="stop-color:#F8F9F9"/>
	<a:midPointStop  offset="0.5" style="stop-color:#F8F9F9"/>
	<a:midPointStop  offset="0.7733" style="stop-color:#E4E8EA"/>
	<a:midPointStop  offset="0.5" style="stop-color:#E4E8EA"/>
	<a:midPointStop  offset="1" style="stop-color:#D8DDE0"/>
</radialGradient>
<path fill="url(#SVGID_1_)" d="M47,38.662c-2.828-9.121,10.248-10.076,9.742-1.6c0,0-0.332-0.535-1.074-0.668
	c0.666,3.516-1.527,5.766-1.527,5.766c-0.311-1.01-1.107-1.523-1.107-1.523c-1.848,2.045-5.602,2.107-7.82-1.287
	C46.711,39.051,47,38.662,47,38.662z"/>
<path id="Path_2134_" fill="#916B50" d="M48.441,25.393c-2.545,0.307-4.383,8.814-2.781,11.061c0.225,0.313,1.535,0.814,2.508-1.168
	c0.539-1.098,2.092-2.014,2.574-4.277C51.359,28.107,50.975,25.086,48.441,25.393z"/>
<path id="Path_2133_" fill="#916B50" d="M15.561,25.393c2.545,0.307,4.383,8.814,2.781,11.061c-0.225,0.313-1.535,0.814-2.51-1.168
	c-0.537-1.098-2.092-2.014-2.572-4.277C12.641,28.107,13.027,25.086,15.561,25.393z"/>
<path id="Path_2132_" fill="#69452D" d="M48.373,27.021c-0.664,0.209-1.389,1.221-1.781,2.898c2.32-0.498,1.74,3.361-0.277,3.434
	c0.02,0.389,0.045,0.787,0.094,1.207c0.971-1.408,1.959-0.844,2.938-2.939C50.227,29.732,50.018,26.508,48.373,27.021z"/>
<path id="Path_2131_" fill="#69452D" d="M17.41,29.916c-0.395-1.676-1.117-2.686-1.781-2.895c-1.643-0.514-1.855,2.711-0.973,4.6
	c0.979,2.096,1.967,1.531,2.939,2.939c0.047-0.42,0.074-0.82,0.09-1.209C15.689,33.258,15.117,29.445,17.41,29.916z"/>
<path id="Path_2130_" fill="#916B50" d="M32,9.033c-11.027,0-16.34,8.328-15.676,19.908c0.133,2.33,1.582,9.93,2.947,12.656
	c1.398,2.789,6.074,7.09,8.938,7.98c1.811,0.561,5.773,0.561,7.582,0c2.865-0.891,7.543-5.191,8.939-7.98
	c1.369-2.727,2.814-10.324,2.945-12.656C48.344,17.361,43.031,9.033,32,9.033z"/>
<path id="Path_2129_" fill="#E6EBEF" d="M43.982,24.543c-2.521-1.336-7.348-1.4-9.146-0.469c-0.387,0.178-0.131,1.441,0.193,1.322
	c2.504-0.99,6.547-1.012,8.893,0.084C44.234,25.623,44.365,24.729,43.982,24.543z"/>
<path id="Path_2128_" fill="#E6EBEF" d="M20.02,24.543c2.521-1.336,7.346-1.4,9.146-0.469c0.385,0.178,0.131,1.441-0.193,1.322
	c-2.51-0.99-6.547-1.012-8.895,0.084C19.768,25.623,19.639,24.729,20.02,24.543z"/>
<path id="Path_2127_" fill="#FFFFFF" d="M29.547,29.084c0.094,0.73-0.402,1.594-1.773,2.242c-0.871,0.412-2.686,0.896-5.066-0.107
	c-1.066-0.449-2.107-1.848-2.014-2.623C21.984,26.166,28.338,25.811,29.547,29.084z"/>
<linearGradient id="Oval_1_" gradientUnits="userSpaceOnUse" x1="-424.5815" y1="477.4658" x2="-424.5815" y2="478.2246" gradientTransform="matrix(6.5701 0 0 -6.5701 2814.7805 3168.5281)">
	<stop  offset="0" style="stop-color:#A6694A"/>
	<stop  offset="1" style="stop-color:#4F2A1E"/>
	<a:midPointStop  offset="0" style="stop-color:#A6694A"/>
	<a:midPointStop  offset="0.5" style="stop-color:#A6694A"/>
	<a:midPointStop  offset="1" style="stop-color:#4F2A1E"/>
</linearGradient>
<circle id="Oval_326_" fill="url(#Oval_1_)" cx="25.236" cy="29.037" r="2.492"/>
<path id="Path_2126_" fill="#1A1626" d="M23.988,28.99c0,1.725,2.496,1.725,2.496,0C26.484,27.391,23.988,27.391,23.988,28.99z"/>
<path id="Path_2125_" fill="#AB968C" d="M23.609,28.291c0,0.723,1.045,0.723,1.045,0C24.654,27.623,23.609,27.623,23.609,28.291z"/>
<path id="Path_2124_" fill="#69452D" d="M29.559,29.18c-1.014-3.25-7.926-2.77-8.865-0.584
	C21.041,25.797,28.695,25.057,29.559,29.18z"/>
<path id="Path_2123_" fill="#FFFFFF" d="M34.455,29.084c-0.094,0.73,0.4,1.594,1.773,2.242c0.871,0.412,2.684,0.896,5.064-0.107
	c1.07-0.449,2.109-1.848,2.016-2.623C42.018,26.166,35.662,25.811,34.455,29.084z"/>
<linearGradient id="Oval_2_" gradientUnits="userSpaceOnUse" x1="-425.23" y1="477.4658" x2="-425.23" y2="478.2246" gradientTransform="matrix(6.5701 0 0 -6.5701 2832.511 3168.5281)">
	<stop  offset="0" style="stop-color:#A6694A"/>
	<stop  offset="1" style="stop-color:#4F2A1E"/>
	<a:midPointStop  offset="0" style="stop-color:#A6694A"/>
	<a:midPointStop  offset="0.5" style="stop-color:#A6694A"/>
	<a:midPointStop  offset="1" style="stop-color:#4F2A1E"/>
</linearGradient>
<circle id="Oval_325_" fill="url(#Oval_2_)" cx="38.709" cy="29.037" r="2.492"/>
<path id="Path_2122_" fill="#1A1626" d="M37.463,28.99c0,1.725,2.496,1.725,2.496,0C39.959,27.391,37.463,27.391,37.463,28.99z"/>
<path id="Path_2121_" fill="#AB968C" d="M37.082,28.291c0,0.723,1.047,0.723,1.047,0C38.129,27.623,37.082,27.623,37.082,28.291z"/>
<path id="Path_2120_" fill="#69452D" d="M34.443,29.18c1.012-3.248,7.92-2.783,8.865-0.584
	C42.957,25.797,35.307,25.057,34.443,29.18z"/>
<path id="Path_2119_" fill="#69452D" d="M34.977,36.107c-0.314-0.219-1.053,0.119-2.977,0.119c-1.92,0-2.66-0.338-2.975-0.119
	c-0.377,0.266,0.223,1.461,2.975,1.461C34.754,37.568,35.355,36.373,34.977,36.107z"/>
<linearGradient id="SVGID_2_" gradientUnits="userSpaceOnUse" x1="32.0005" y1="61.3535" x2="32.0005" y2="21.4263">
	<stop  offset="0" style="stop-color:#D8DDE0"/>
	<stop  offset="0.2083" style="stop-color:#E6E9EB"/>
	<stop  offset="0.5809" style="stop-color:#F8F9FA"/>
	<stop  offset="0.8424" style="stop-color:#FFFFFF"/>
	<a:midPointStop  offset="0" style="stop-color:#D8DDE0"/>
	<a:midPointStop  offset="0.3696" style="stop-color:#D8DDE0"/>
	<a:midPointStop  offset="0.8424" style="stop-color:#FFFFFF"/>
</linearGradient>
<path fill="url(#SVGID_2_)" d="M49.209,37.664c1.215-4.49-0.555-4.939-1.338-7.723c0.023-2.645,0.057-5.508,0.131-8.516h-1.213
	v0.002c0.307,10.658-0.852,16.695-5.611,19.859H22.82c-4.838-3.217-5.977-9.137-5.617-19.859H16c0.072,3.006,0.105,5.867,0.129,8.51
	c-0.783,2.787-2.553,3.234-1.338,7.727c0.086-1.023,0.51-1.844,0.953-2.699c-0.92,2.994-2.148,4.736-0.516,10.488
	c0.02-1.762,0.551-3.232,1.08-4.785c0.002,0.043,0.006,0.08,0.008,0.121c-0.646,2.699-1.424,4.658,0.553,9.838
	c-0.09-1.166,0.059-2.221,0.281-3.266c0.002,2.189,1.061,4.887,4.076,8.334c-0.426-1.158-0.75-2.24-1.02-3.291
	c0.775,1.637,2.209,3.449,4.607,5.471c-0.723-1.311-1.313-2.545-1.783-3.74c0.957,1.715,2.785,3.516,5.979,5.371
	c-0.451-0.859-0.9-1.678-1.344-2.463c3.73,2.439,2.58,4.311,2.58,4.311s2.613-0.598,5.352-2.984
	c-0.201,0.371-0.404,0.748-0.607,1.137c3.193-1.855,5.021-3.656,5.979-5.371c-0.471,1.195-1.061,2.43-1.783,3.74
	c2.398-2.021,3.832-3.834,4.607-5.471c-0.27,1.051-0.594,2.133-1.02,3.291c3.016-3.447,4.074-6.145,4.076-8.334
	c0.223,1.045,0.371,2.1,0.281,3.266c1.977-5.18,1.197-7.139,0.553-9.84c0.002-0.041,0.004-0.078,0.006-0.119
	c0.529,1.553,1.063,3.023,1.082,4.785c1.633-5.752,0.404-7.494-0.516-10.488C48.699,35.82,49.123,36.641,49.209,37.664z"/>
<path fill="#45332C" d="M25.354,40.008c2.168,5.674,11.119,5.725,13.295,0H25.354z"/>
<linearGradient id="SVGID_3_" gradientUnits="userSpaceOnUse" x1="88" y1="-123.8135" x2="88" y2="-117.5215" gradientTransform="matrix(1 0 0 -1 -56 -80)">
	<stop  offset="0" style="stop-color:#D8DDE0"/>
	<stop  offset="0.2267" style="stop-color:#E4E8EA"/>
	<stop  offset="0.6861" style="stop-color:#F8F9F9"/>
	<stop  offset="1" style="stop-color:#FFFFFF"/>
	<a:midPointStop  offset="0" style="stop-color:#D8DDE0"/>
	<a:midPointStop  offset="0.5" style="stop-color:#D8DDE0"/>
	<a:midPointStop  offset="0.2267" style="stop-color:#E4E8EA"/>
	<a:midPointStop  offset="0.5" style="stop-color:#E4E8EA"/>
	<a:midPointStop  offset="0.6861" style="stop-color:#F8F9F9"/>
	<a:midPointStop  offset="0.5" style="stop-color:#F8F9F9"/>
	<a:midPointStop  offset="1" style="stop-color:#FFFFFF"/>
</linearGradient>
<path fill="url(#SVGID_3_)" d="M32,37.521c-7.891-0.002-11.977,3.691-11.504,4.551c1.77,3.252,10.229,1.277,11.506-0.504
	c1.279,1.783,9.732,3.754,11.504,0.504C43.977,41.213,39.891,37.521,32,37.521z"/>
<path fill="#E81C27" d="M32,2c-9.18,0-16.617,5.824-16.617,18.229h33.236C48.619,7.824,41.18,2,32,2z"/>
<radialGradient id="SVGID_4_" cx="77.6445" cy="-986.2393" r="25.8015" gradientTransform="matrix(0.9505 0 0 -0.317 -42.1775 -289.7057)" gradientUnits="userSpaceOnUse">
	<stop  offset="0.3818" style="stop-color:#D8DDE0"/>
	<stop  offset="0.668" style="stop-color:#E8EBEC"/>
	<stop  offset="1" style="stop-color:#FFFFFF"/>
	<a:midPointStop  offset="0.3818" style="stop-color:#D8DDE0"/>
	<a:midPointStop  offset="0.5" style="stop-color:#D8DDE0"/>
	<a:midPointStop  offset="0.668" style="stop-color:#E8EBEC"/>
	<a:midPointStop  offset="0.5" style="stop-color:#E8EBEC"/>
	<a:midPointStop  offset="1" style="stop-color:#FFFFFF"/>
</radialGradient>
<path fill="url(#SVGID_4_)" d="M32.188,11.656c-1.561-0.455,1.088-1.092,1.105-1.063C20.197,11,15.23,15.238,13.799,17.471
	c-1.359,2.119-1.168,5.41,2.012,7.006c-0.088-1.393,0.279-1.398,0.266-1.406c2.189,1.248,5.158,0.389,9.254-2.051
	c0.006-0.004,0.129,0.313-0.479,1.057c6.266-0.102,7.189-1.992,13.947-1.717c-0.002,0-0.809,0.584-1.258,1.092
	c2.99,0.824,6.645,2.131,9.971,0.162c-0.01,0.004,0.678,0.949,1.072,2.611C58.346,14.865,35.605,11.898,32.188,11.656z"/>
</svg>
