<?xml version="1.0" encoding="utf-8"?>
<!-- Generator: Adobe Illustrator 15.0.0, SVG Export Plug-In . SVG Version: 6.00 Build 0)  -->
<!DOCTYPE svg PUBLIC "-//W3C//DTD SVG 1.1//EN" "http://www.w3.org/Graphics/SVG/1.1/DTD/svg11.dtd" [
	<!ENTITY ns_flows "http://ns.adobe.com/Flows/1.0/">
	<!ENTITY ns_extend "http://ns.adobe.com/Extensibility/1.0/">
	<!ENTITY ns_ai "http://ns.adobe.com/AdobeIllustrator/10.0/">
	<!ENTITY ns_graphs "http://ns.adobe.com/Graphs/1.0/">
]>
<svg version="1.1" id="Layer_1" xmlns:x="&ns_extend;" xmlns:i="&ns_ai;" xmlns:graph="&ns_graphs;"
	 xmlns="http://www.w3.org/2000/svg" xmlns:xlink="http://www.w3.org/1999/xlink" xmlns:a="http://ns.adobe.com/AdobeSVGViewerExtensions/3.0/"
	 x="0px" y="0px" width="64px" height="64px" viewBox="0 0 64 64" enable-background="new 0 0 64 64" xml:space="preserve">
<path fill="#F9C802" d="M6,2C3.333,2,3.333,6,6,6C3.667,6,3.667,2,6,2z"/>
<path fill="#F9C802" d="M6,2c2.334,0,2.334,4,0,4C8.667,6,8.667,2,6,2z"/>
<path fill="#F9C802" d="M5.554,4C5.554,2.896,6,2,6,2s0.445,0.896,0.445,2C6.445,5.104,6,6,6,6S5.554,5.104,5.554,4z"/>
<path fill="#F9C802" d="M5.646,2.038c-1.499,0.42-1.499,3.504,0,3.925C4.808,5.083,4.808,2.917,5.646,2.038z"/>
<path fill="#F9C802" d="M6.354,5.963c1.499-0.42,1.499-3.505,0-3.925C7.192,2.917,7.192,5.083,6.354,5.963z"/>
<path fill="#CFD8DD" d="M6.128,59.472L5.656,59.35C16.681,27.11,6.33,11.981,6.224,11.833l0.418-0.227
	C6.749,11.757,17.215,27.051,6.128,59.472z"/>
<radialGradient id="SVGID_1_" cx="36.4336" cy="37.0254" r="19.1114" gradientTransform="matrix(1.0221 0 0 0.6647 2.0687 14.3932)" gradientUnits="userSpaceOnUse">
	<stop  offset="0" style="stop-color:#FF5E9C"/>
	<stop  offset="0.3985" style="stop-color:#FF5C9B"/>
	<stop  offset="0.6114" style="stop-color:#FF5496"/>
	<stop  offset="0.7805" style="stop-color:#FE468E"/>
	<stop  offset="0.9257" style="stop-color:#FD3382"/>
	<stop  offset="1" style="stop-color:#FD267A"/>
	<a:midPointStop  offset="0" style="stop-color:#FF5E9C"/>
	<a:midPointStop  offset="0.8182" style="stop-color:#FF5E9C"/>
	<a:midPointStop  offset="1" style="stop-color:#FD267A"/>
</radialGradient>
<path fill="url(#SVGID_1_)" d="M19.56,34.729c-3.393,0.178-3.189,5.498-1.78,7.107c1.246,1.423,5.694,2.059,7.487,2.731
	c2.208,0.829,12.268,0.235,12.912-0.044c1.973-0.852,4.814-1.463,10.361-1.025c2.848,0.225,8.129,1.895,12.941,1.67
	c0.145-2.928-2.867-4.809-2.867-5.742c0-1.399,2.592-2.219,3.182-5.742c-4.76-0.145-11.373,3.088-12.703,3.088
	c-6.721,0-8.008-2.605-10.779-3.129c-2.133-1.536-8.708-0.463-8.866-0.361C26.582,35.146,19.901,34.711,19.56,34.729z"/>
<path fill="#FFFFFF" d="M25.793,38.037c0,3.123-4.367,3.123-4.367,0C21.427,34.913,25.793,34.913,25.793,38.037z"/>
<path fill="#C20067" d="M25.477,38.004c0,2.623-3.84,2.623-3.84,0S25.477,35.381,25.477,38.004z"/>
<path fill="#93E67F" d="M24.794,38.288c0,2.048-2.999,2.048-2.999,0S24.794,36.24,24.794,38.288z"/>
<path fill="#302C3B" d="M23.852,38.613c0,1.182-1.728,1.182-1.728,0C22.124,37.435,23.852,37.435,23.852,38.613z"/>
<path fill="#C20067" d="M46,43.193c2.424-0.035,2.424-3.499,0-3.533C47.588,40.197,47.588,42.654,46,43.193z"/>
<path fill="#C20067" d="M46.902,40.229c2.498-0.058,1.463-4.08-1.076-3.38C47.51,36.922,48.258,39.272,46.902,40.229z"/>
<path fill="#C20067" d="M45.076,40.87c2-0.036,2-3.054,0-3.091C46.16,38.25,46.16,40.398,45.076,40.87z"/>
<path fill="#C20067" d="M44.213,39.414c1.822-0.033,1.822-3.058,0-3.092C45.295,36.793,45.295,38.941,44.213,39.414z"/>
<path fill="#C20067" d="M44.1,42.826c1.893-0.035,1.893-3.056,0-3.091C45.184,40.207,45.184,42.355,44.1,42.826z"/>
<path fill="#C20067" d="M43.152,41.07c1.893-0.035,1.896-3.055,0-3.092C44.236,38.451,44.236,40.598,43.152,41.07z"/>
<path fill="#C20067" d="M42.354,39.005c1.654-0.03,1.654-3.06,0-3.091C43.438,36.387,43.438,38.533,42.354,39.005z"/>
<path fill="#C20067" d="M42.047,42.75c1.893-0.034,1.895-3.056,0-3.09C43.131,40.131,43.131,42.279,42.047,42.75z"/>
<path fill="#C20067" d="M40.363,43.011c1.875-0.032,1.877-2.807,0-2.839C41.445,40.605,41.445,42.578,40.363,43.011z"/>
<path fill="#C20067" d="M41.191,40.87c1.912-0.036,1.91-3.056,0-3.091C42.275,38.25,42.275,40.398,41.191,40.87z"/>
<path fill="#C20067" d="M41.348,37.613c1.768-0.025,1.768-2.422,0-2.447C42.432,35.538,42.432,37.24,41.348,37.613z"/>
<path fill="#C20067" d="M40.314,39.061c2.016-0.037,2.016-3.054,0-3.092C41.398,36.441,41.398,38.59,40.314,39.061z"/>
<path fill="#C20067" d="M39.443,41.27c1.842-0.033,1.842-3.057,0-3.092C40.527,38.649,40.527,40.799,39.443,41.27z"/>
<path fill="#C20067" d="M38.543,43.438c1.943-0.035,1.945-3.055,0-3.09C39.627,40.818,39.627,42.967,38.543,43.438z"/>
<path fill="#C20067" d="M39.344,37.613c1.938-0.037,1.936-3.055,0-3.092C40.426,34.992,40.426,37.141,39.344,37.613z"/>
<path fill="#C20067" d="M38.408,36.067c1.865-0.025,1.867-2.308,0-2.333C39.49,34.09,39.49,35.711,38.408,36.067z"/>
<path fill="#C20067" d="M36.891,43.697c2.068-0.039,2.068-3.053,0-3.092C37.975,41.076,37.975,43.227,36.891,43.697z"/>
<path fill="#C20067" d="M37.58,37.868c1.902-0.036,1.902-3.056,0-3.091C38.662,35.248,38.662,37.396,37.58,37.868z"/>
<path fill="#C20067" d="M36.621,36.116c1.752-0.032,1.754-3.059,0-3.091C37.705,33.498,37.705,35.646,36.621,36.116z"/>
<path fill="#C20067" d="M35.65,37.979c1.982-0.035,1.982-3.053,0-3.09C36.734,35.359,36.734,37.508,35.65,37.979z"/>
<path fill="#C20067" d="M34.57,36.014c1.979-0.035,1.979-3.054,0-3.091C35.654,33.395,35.654,35.543,34.57,36.014z"/>
<path fill="#C20067" d="M33.654,37.936c2.018-0.038,2.018-3.055,0-3.092C34.738,35.314,34.738,37.463,33.654,37.936z"/>
<path fill="#C20067" d="M32.572,36.067c1.92-0.035,1.924-3.056,0-3.091C33.656,33.447,33.656,35.596,32.572,36.067z"/>
<path fill="#C20067" d="M31.56,38.256c1.918-0.035,1.918-3.055,0-3.09C32.643,35.637,32.643,37.785,31.56,38.256z"/>
<path fill="#C20067" d="M29.701,37.289c1.943-0.036,1.944-3.056,0-3.092C30.783,34.669,30.783,36.817,29.701,37.289z"/>
<path fill="#C20067" d="M30.744,36.067c2.045-0.038,2.046-3.054,0-3.091C31.828,33.447,31.828,35.596,30.744,36.067z"/>
<path fill="#C20067" d="M34.895,43.5c2.064-0.038,2.063-3.053,0-3.092C35.979,40.881,35.979,43.029,34.895,43.5z"/>
<path fill="#C20067" d="M32.964,43.381c2.042-0.037,2.042-3.053,0-3.09C34.049,40.762,34.049,42.911,32.964,43.381z"/>
<path fill="#C20067" d="M30.941,43.5c2.047-0.038,2.045-3.053,0-3.092C32.023,40.881,32.023,43.029,30.941,43.5z"/>
<path fill="#C20067" d="M28.967,43.596c1.878-0.033,1.876-3.056,0-3.09C30.05,40.977,30.05,43.125,28.967,43.596z"/>
<path fill="#E6EBEF" d="M19.56,34.729c-3.779,5.796,0.634,5.501,0.613,6.525c-0.021,1.094-1.796,0.482-1.796-0.5
	c-0.026,2.098,2.333,1.881,2.454,0.66c0.158-1.59-3.172-1.266-1.577-3.958c0.288,2.048,3.646,4.956,6.343,3.827
	c0.604-0.416,0.442,2.809-0.33,3.284c-1.74,1.071-8.366-0.907-8.434-1.069c-0.684-1.612-1.576-1.881-1.789-3.377
	C14.641,37.289,16.234,34.527,19.56,34.729z"/>
<path fill="#C20067" d="M47.773,38.205c-1.111-0.439,9.422-3.484,10.283-3.43C58.914,34.828,48.627,38.542,47.773,38.205z"/>
<path fill="#C20067" d="M47.908,39.041c-1.129-0.42,9-2.56,9.76-2.361C58.514,36.898,48.771,39.361,47.908,39.041z"/>
<path fill="#C20067" d="M47.494,39.965c-1.084-0.42,7.967-1.541,8.469-1.3C56.734,39.035,48.324,40.287,47.494,39.965z"/>
<path fill="#C20067" d="M56.719,40.689c-0.746-0.316-10.357-0.908-9.477-0.143C47.918,41.135,57.465,41.006,56.719,40.689z"/>
<path fill="#C20067" d="M47.523,41.455c-0.994-0.719,9.607,0.848,10.295,1.248C58.58,43.15,48.285,42.007,47.523,41.455z"/>
<path fill="#C20067" d="M47.473,42.301c-1.074-0.732,10.697,1.709,11.188,2.095C59.412,44.985,48.297,42.862,47.473,42.301z"/>
<path fill="#E6EBEF" d="M59.209,33.875c0.273,3.477-2.891,3.727-2.891,5.396c0,1.378,3.35,2.042,3.35,5.899
	c0.906,0.127,1.906,0.028,1.906,0.028c-0.025-3.993-2.854-4.707-2.854-5.792c0-1.025,3.076-2.699,3.279-5.797
	C60.482,33.458,59.209,33.875,59.209,33.875z"/>
<path fill="#E81566" d="M29.449,33.281c4.756-0.256,8.346,0.347,8.866,0.361C35.189,31.485,30.75,30.321,29.449,33.281z"/>
<path fill="#FFFFFF" d="M30.181,37.641c0,0,8.334-1.532,9.229-1.445c0.893,0.086,0.67,3.523-0.793,4.531
	c-1.463,1.01-8.081,0.479-8.637-0.305S30.181,37.641,30.181,37.641z"/>
<path fill="#E81566" d="M30.33,38.58c-1.316-0.537,7.393-1.531,8.405-1.482S31.338,38.992,30.33,38.58z"/>
<path fill="#E81566" d="M30.195,39.34c-1.314-0.537,7.553-0.874,8.438-0.621C39.619,39,31.203,39.752,30.195,39.34z"/>
<path fill="#E81566" d="M30.195,40.125c-1.314-0.537,7.209-0.219,7.819,0.092C38.949,40.689,31.203,40.536,30.195,40.125z"/>
<path fill="#E81566" d="M25.188,42.32c0.876,1.241,2.919,1.569,3.301,0.178c0.329-1.203,2.294-0.678,1.907-2.301
	c-0.309-1.289,0.811-1.832-0.377-3.377c-0.653-0.854-2.898-0.209-2.424,1.109C28.068,39.248,24.688,41.613,25.188,42.32z"/>
<path fill="#93E67F" d="M26.293,41.836c1.958,0.518,3.3-3.186,2.051-4.38C28.739,39.199,27.375,41.365,26.293,41.836z"/>
<linearGradient id="SVGID_2_" gradientUnits="userSpaceOnUse" x1="15.5264" y1="39.6602" x2="17.9678" y2="39.6602">
	<stop  offset="0" style="stop-color:#B3C3CC"/>
	<stop  offset="0.1754" style="stop-color:#AFBFC8"/>
	<stop  offset="0.3653" style="stop-color:#A4B2BB"/>
	<stop  offset="0.562" style="stop-color:#919EA5"/>
	<stop  offset="0.7634" style="stop-color:#768187"/>
	<stop  offset="0.9666" style="stop-color:#545C60"/>
	<stop  offset="1" style="stop-color:#4E5559"/>
	<a:midPointStop  offset="0" style="stop-color:#B3C3CC"/>
	<a:midPointStop  offset="0.6909" style="stop-color:#B3C3CC"/>
	<a:midPointStop  offset="1" style="stop-color:#4E5559"/>
</linearGradient>
<path fill="url(#SVGID_2_)" d="M17.015,35.804c1.168,0-0.616,5.589,0.953,7.712C14.738,41.393,15.026,37.16,17.015,35.804z"/>
<path fill="#CFD8DD" d="M17.968,43.516c-7.193-3.107-7.908-3.344-7.908-4.047c0-0.644,2.064-1.739,6.955-3.665
	c0.358-0.062,0.358,0.388,0.358,0.388s-6.73,2.514-6.726,3.309c0.004,0.791,7.001,3.432,7.001,3.432S17.968,43.144,17.968,43.516z"
	/>
<radialGradient id="SVGID_3_" cx="36.4336" cy="19.4336" r="19.9992" gradientTransform="matrix(1.0221 0 0 0.6257 2.0687 9.6382)" gradientUnits="userSpaceOnUse">
	<stop  offset="0" style="stop-color:#57E5FF"/>
	<stop  offset="0.2047" style="stop-color:#52E1FF"/>
	<stop  offset="0.446" style="stop-color:#44D5FF"/>
	<stop  offset="0.706" style="stop-color:#2CC1FF"/>
	<stop  offset="0.9772" style="stop-color:#0BA6FF"/>
	<stop  offset="1" style="stop-color:#08A3FF"/>
	<a:midPointStop  offset="0" style="stop-color:#57E5FF"/>
	<a:midPointStop  offset="0.6727" style="stop-color:#57E5FF"/>
	<a:midPointStop  offset="1" style="stop-color:#08A3FF"/>
</radialGradient>
<path fill="url(#SVGID_3_)" d="M19.56,17.521c-3.393,0.176-3.189,5.498-1.78,7.107c1.246,1.422,5.694,2.059,7.487,2.731
	c2.208,0.828,12.268,0.235,12.912-0.044c1.973-0.853,4.814-1.464,10.361-1.026c2.848,0.225,8.129,1.895,12.941,1.67
	c0.145-2.928-2.867-4.81-2.867-5.742c0-1.399,2.592-2.219,3.182-5.742c-4.76-0.145-11.373,3.088-12.703,3.088
	c-6.721,0-8.008-2.605-10.779-3.128c-2.133-1.536-8.708-0.465-8.866-0.362C26.582,17.939,19.901,17.503,19.56,17.521z"/>
<path fill="#FFFFFF" d="M25.793,20.829c0,3.123-4.367,3.123-4.367,0C21.427,17.705,25.793,17.705,25.793,20.829z"/>
<path fill="#014D87" d="M25.477,20.797c0,2.623-3.84,2.623-3.84,0S25.477,18.174,25.477,20.797z"/>
<path fill="#FFE12C" d="M24.794,21.081c0,2.048-2.999,2.048-2.999,0C21.795,19.032,24.794,19.032,24.794,21.081z"/>
<path fill="#302C3B" d="M23.852,21.406c0,1.18-1.728,1.18-1.728,0S23.852,20.227,23.852,21.406z"/>
<path fill="#006DAE" d="M46,25.985c2.424-0.035,2.424-3.499,0-3.533C47.588,22.99,47.588,25.447,46,25.985z"/>
<path fill="#006DAE" d="M46.902,23.021c2.498-0.057,1.463-4.08-1.076-3.38C47.51,19.715,48.258,22.064,46.902,23.021z"/>
<path fill="#006DAE" d="M45.076,23.662c2-0.036,2-3.053,0-3.091C46.16,21.043,46.16,23.19,45.076,23.662z"/>
<path fill="#006DAE" d="M44.213,22.205c1.822-0.033,1.822-3.057,0-3.091C45.295,19.586,45.295,21.734,44.213,22.205z"/>
<path fill="#006DAE" d="M44.1,25.619c1.893-0.035,1.893-3.057,0-3.091C45.184,22.999,45.184,25.148,44.1,25.619z"/>
<path fill="#006DAE" d="M43.152,23.863c1.893-0.035,1.896-3.056,0-3.092C44.236,21.243,44.236,23.391,43.152,23.863z"/>
<path fill="#006DAE" d="M42.354,21.798c1.654-0.031,1.654-3.061,0-3.092C43.438,19.179,43.438,21.326,42.354,21.798z"/>
<path fill="#006DAE" d="M42.047,25.543c1.893-0.035,1.895-3.057,0-3.091C43.131,22.924,43.131,25.072,42.047,25.543z"/>
<path fill="#006DAE" d="M40.363,25.804c1.875-0.032,1.877-2.808,0-2.839C41.445,23.397,41.445,25.37,40.363,25.804z"/>
<path fill="#006DAE" d="M41.191,23.662c1.912-0.035,1.91-3.056,0-3.091C42.275,21.043,42.275,23.19,41.191,23.662z"/>
<path fill="#006DAE" d="M41.348,20.404c1.768-0.025,1.768-2.421,0-2.447C42.432,18.331,42.432,20.032,41.348,20.404z"/>
<path fill="#006DAE" d="M40.314,21.853c2.016-0.036,2.016-3.054,0-3.091C41.398,19.233,41.398,21.382,40.314,21.853z"/>
<path fill="#006DAE" d="M39.443,24.062c1.842-0.034,1.842-3.057,0-3.091C40.527,21.441,40.527,23.591,39.443,24.062z"/>
<path fill="#006DAE" d="M38.543,26.229c1.943-0.035,1.945-3.055,0-3.091C39.627,23.61,39.627,25.758,38.543,26.229z"/>
<path fill="#006DAE" d="M39.344,20.404c1.938-0.035,1.936-3.055,0-3.09C40.426,17.785,40.426,19.934,39.344,20.404z"/>
<path fill="#006DAE" d="M38.408,18.86c1.865-0.026,1.867-2.308,0-2.334C39.49,16.882,39.49,18.504,38.408,18.86z"/>
<path fill="#006DAE" d="M36.891,26.489c2.068-0.039,2.068-3.052,0-3.091C37.975,23.869,37.975,26.018,36.891,26.489z"/>
<path fill="#006DAE" d="M37.58,20.661c1.902-0.036,1.902-3.056,0-3.092C38.662,18.041,38.662,20.189,37.58,20.661z"/>
<path fill="#006DAE" d="M36.621,18.908c1.752-0.031,1.754-3.058,0-3.089C37.705,16.29,37.705,18.438,36.621,18.908z"/>
<path fill="#006DAE" d="M35.65,20.771c1.982-0.036,1.982-3.054,0-3.09C36.734,18.152,36.734,20.3,35.65,20.771z"/>
<path fill="#006DAE" d="M34.57,18.807c1.979-0.036,1.979-3.054,0-3.092C35.654,16.187,35.654,18.335,34.57,18.807z"/>
<path fill="#006DAE" d="M33.654,20.727c2.018-0.037,2.018-3.054,0-3.091C34.738,18.106,34.738,20.255,33.654,20.727z"/>
<path fill="#006DAE" d="M32.572,18.859c1.92-0.035,1.924-3.055,0-3.091C33.656,16.239,33.656,18.389,32.572,18.859z"/>
<path fill="#006DAE" d="M31.56,21.048c1.918-0.034,1.918-3.055,0-3.091C32.643,18.429,32.643,20.577,31.56,21.048z"/>
<path fill="#006DAE" d="M29.701,20.081c1.943-0.035,1.944-3.055,0-3.091C30.783,17.461,30.783,19.609,29.701,20.081z"/>
<path fill="#006DAE" d="M30.744,18.859c2.045-0.038,2.046-3.053,0-3.091C31.828,16.239,31.828,18.389,30.744,18.859z"/>
<path fill="#006DAE" d="M34.895,26.292c2.064-0.038,2.063-3.053,0-3.091C35.979,23.673,35.979,25.82,34.895,26.292z"/>
<path fill="#006DAE" d="M32.964,26.174c2.042-0.037,2.042-3.053,0-3.091C34.049,23.555,34.049,25.703,32.964,26.174z"/>
<path fill="#006DAE" d="M30.941,26.292c2.047-0.038,2.045-3.053,0-3.091C32.023,23.673,32.023,25.82,30.941,26.292z"/>
<path fill="#006DAE" d="M28.967,26.389c1.878-0.034,1.876-3.057,0-3.091C30.05,23.77,30.05,25.918,28.967,26.389z"/>
<path fill="#E6EBEF" d="M19.56,17.521c-3.779,5.796,0.634,5.5,0.613,6.524c-0.021,1.095-1.796,0.482-1.796-0.5
	c-0.026,2.098,2.333,1.882,2.454,0.662c0.158-1.592-3.172-1.267-1.577-3.96c0.288,2.048,3.646,4.956,6.343,3.826
	c0.604-0.414,0.442,2.81-0.33,3.286c-1.74,1.071-8.366-0.907-8.434-1.07c-0.684-1.612-1.576-1.881-1.789-3.377
	C14.641,20.081,16.234,17.32,19.56,17.521z"/>
<path fill="#006DAE" d="M47.773,20.998c-1.111-0.439,9.422-3.484,10.283-3.431C58.914,17.621,48.627,21.334,47.773,20.998z"/>
<path fill="#006DAE" d="M47.908,21.833c-1.129-0.421,9-2.56,9.76-2.361C58.514,19.691,48.771,22.154,47.908,21.833z"/>
<path fill="#006DAE" d="M47.494,22.758c-1.084-0.421,7.967-1.542,8.469-1.301C56.734,21.827,48.324,23.079,47.494,22.758z"/>
<path fill="#006DAE" d="M56.719,23.481c-0.746-0.317-10.357-0.907-9.477-0.143C47.918,23.927,57.465,23.799,56.719,23.481z"/>
<path fill="#006DAE" d="M47.523,24.247c-0.994-0.718,9.607,0.848,10.295,1.249C58.58,25.943,48.285,24.799,47.523,24.247z"/>
<path fill="#006DAE" d="M47.473,25.093c-1.074-0.732,10.697,1.709,11.188,2.095C59.412,27.777,48.297,25.654,47.473,25.093z"/>
<path fill="#E6EBEF" d="M59.209,16.668c0.273,3.476-2.891,3.727-2.891,5.395c0,1.379,3.35,2.043,3.35,5.899
	c0.906,0.126,1.906,0.029,1.906,0.029c-0.025-3.994-2.854-4.708-2.854-5.793c0-1.024,3.076-2.698,3.279-5.798
	C60.482,16.251,59.209,16.668,59.209,16.668z"/>
<path fill="#014D87" d="M29.449,16.073c4.756-0.254,8.346,0.348,8.866,0.362C35.189,14.278,30.75,13.114,29.449,16.073z"/>
<path fill="#FFFFFF" d="M30.181,20.434c0,0,8.334-1.532,9.229-1.446c0.893,0.087,0.67,3.524-0.793,4.532s-8.081,0.478-8.637-0.305
	S30.181,20.434,30.181,20.434z"/>
<path fill="#006DAE" d="M30.33,21.373c-1.316-0.538,7.393-1.532,8.405-1.483C39.746,19.939,31.338,21.783,30.33,21.373z"/>
<path fill="#006DAE" d="M30.195,22.132c-1.314-0.537,7.553-0.874,8.438-0.621C39.619,21.792,31.203,22.545,30.195,22.132z"/>
<path fill="#006DAE" d="M30.195,22.918c-1.314-0.538,7.209-0.219,7.819,0.092C38.949,23.482,31.203,23.329,30.195,22.918z"/>
<path fill="#018BC9" d="M25.188,25.113c0.876,1.24,2.919,1.568,3.301,0.177c0.329-1.203,2.294-0.678,1.907-2.3
	c-0.309-1.289,0.811-1.833-0.377-3.379c-0.653-0.852-2.898-0.208-2.424,1.111C28.068,22.041,24.688,24.406,25.188,25.113z"/>
<path fill="#FFE12C" d="M26.293,24.629c1.958,0.517,3.3-3.186,2.051-4.381C28.739,21.992,27.375,24.158,26.293,24.629z"/>
<linearGradient id="SVGID_4_" gradientUnits="userSpaceOnUse" x1="15.5264" y1="22.397" x2="17.9678" y2="22.397">
	<stop  offset="0" style="stop-color:#B3C3CC"/>
	<stop  offset="0.1754" style="stop-color:#AFBFC8"/>
	<stop  offset="0.3653" style="stop-color:#A4B2BB"/>
	<stop  offset="0.562" style="stop-color:#919EA5"/>
	<stop  offset="0.7634" style="stop-color:#768187"/>
	<stop  offset="0.9666" style="stop-color:#545C60"/>
	<stop  offset="1" style="stop-color:#4E5559"/>
	<a:midPointStop  offset="0" style="stop-color:#B3C3CC"/>
	<a:midPointStop  offset="0.6909" style="stop-color:#B3C3CC"/>
	<a:midPointStop  offset="1" style="stop-color:#4E5559"/>
</linearGradient>
<path fill="url(#SVGID_4_)" d="M17.015,18.541c1.168,0-0.616,5.588,0.953,7.712C14.738,24.129,15.026,19.896,17.015,18.541z"/>
<path fill="#CFD8DD" d="M17.968,26.253c-7.193-3.106-8.308-3.272-8.308-3.977c0-0.644,2.463-1.81,7.354-3.735
	c0.358-0.061,0.358,0.388,0.358,0.388s-7.13,2.584-7.126,3.378c0.005,0.792,7.401,3.362,7.401,3.362S17.968,25.881,17.968,26.253z"
	/>
<linearGradient id="SVGID_5_" gradientUnits="userSpaceOnUse" x1="5" y1="34" x2="7" y2="34">
	<stop  offset="0.2303" style="stop-color:#CFD8DD"/>
	<stop  offset="0.3769" style="stop-color:#C7D1D6"/>
	<stop  offset="0.6058" style="stop-color:#B1BCC2"/>
	<stop  offset="0.8424" style="stop-color:#93A1A8"/>
	<a:midPointStop  offset="0.2303" style="stop-color:#CFD8DD"/>
	<a:midPointStop  offset="0.61" style="stop-color:#CFD8DD"/>
	<a:midPointStop  offset="0.8424" style="stop-color:#93A1A8"/>
</linearGradient>
<rect x="5" y="6" fill="url(#SVGID_5_)" width="2" height="56"/>
<rect x="5.875" y="5.882" fill="#F9B700" width="0.25" height="7.8"/>
<polygon fill="#F9B700" points="6.5,7.962 5.5,7.962 5.375,5.882 6.625,5.882 "/>
<polygon fill="#F9B700" points="5.5,11.602 6.5,11.602 6.625,13.682 5.375,13.682 "/>
<rect x="2.1" y="9.656" fill="#F9B700" width="7.8" height="0.25"/>
<polygon fill="#F9B700" points="7.82,10.281 7.82,9.281 9.9,9.156 9.9,10.406 "/>
<polygon fill="#F9B700" points="4.18,9.281 4.18,10.281 2.1,10.406 2.1,9.156 "/>
<rect x="5.875" y="5.882" transform="matrix(0.7071 0.7071 -0.7071 0.7071 8.6741 -1.3776)" fill="#F9B700" width="0.25" height="7.8"/>
<polygon fill="#F9B700" points="7.64,8.849 6.933,8.142 8.316,6.582 9.2,7.466 "/>
<polygon fill="#F9B700" points="4.36,10.715 5.067,11.422 3.684,12.981 2.8,12.098 "/>
<rect x="5.875" y="5.882" transform="matrix(-0.7071 0.7071 -0.7071 -0.7071 17.1594 12.4558)" fill="#F9B700" width="0.25" height="7.8"/>
<polygon fill="#F9B700" points="6.933,11.422 7.64,10.715 9.2,12.098 8.316,12.981 "/>
<polygon fill="#F9B700" points="5.067,8.142 4.36,8.849 2.8,7.466 3.684,6.582 "/>
<path fill="#F9C802" d="M6,5.781c-2.209,0-4,1.791-4,4s1.791,4,4,4s4-1.791,4-4S8.209,5.781,6,5.781z M6,13.531
	c-2.071,0-3.75-1.679-3.75-3.75S3.929,6.031,6,6.031s3.75,1.679,3.75,3.75S8.071,13.531,6,13.531z"/>
<path fill="#F9C802" d="M7,9.781c0,1.334-2,1.334-2,0C5,8.448,7,8.448,7,9.781z"/>
</svg>
