<?xml version="1.0" encoding="utf-8"?>
<!-- Generator: Adobe Illustrator 15.0.0, SVG Export Plug-In . SVG Version: 6.00 Build 0)  -->
<!DOCTYPE svg PUBLIC "-//W3C//DTD SVG 1.1//EN" "http://www.w3.org/Graphics/SVG/1.1/DTD/svg11.dtd">
<svg version="1.1" id="Layer_1" xmlns="http://www.w3.org/2000/svg" xmlns:xlink="http://www.w3.org/1999/xlink" x="0px" y="0px"
	 width="64px" height="64px" viewBox="0 0 64 64" enable-background="new 0 0 64 64" xml:space="preserve">
<path fill="#E6EBEF" d="M32.162,23.585c6.012,9.84,17.619,1.514,23.631,11.354c2.045-6.737,4.164-13.454,6.207-20.192
	c-6.012-9.842-17.619-1.512-23.631-11.354C36.324,10.132,34.207,16.847,32.162,23.585z"/>
<path fill="#E81C27" d="M51.438,21.261c-0.848,2.791-3.484,4.113-5.891,2.957s-3.67-4.355-2.822-7.148
	c0.846-2.791,3.484-4.115,5.891-2.955C51.021,15.269,52.285,18.472,51.438,21.261z"/>
<path fill="#302C3B" d="M39.385,3.343c0.17-0.547-0.139-1.129-0.688-1.297c-0.547-0.168-1.129,0.139-1.299,0.688L19.252,62h2.174
	L39.385,3.343z"/>
<path fill="#E6EBEF" d="M31.84,23.585c-6.012,9.84-17.619,1.514-23.631,11.354C6.164,28.201,4.047,21.486,2,14.748
	c6.014-9.842,17.621-1.512,23.633-11.354C27.678,10.132,29.795,16.847,31.84,23.585z"/>
<path fill="#E81C27" d="M12.564,21.261c0.848,2.791,3.484,4.113,5.891,2.957s3.67-4.355,2.822-7.148
	c-0.846-2.791-3.482-4.115-5.891-2.955C12.98,15.269,11.717,18.472,12.564,21.261z"/>
<path fill="#4E5E67" d="M26.604,2.734c-0.168-0.549-0.75-0.855-1.299-0.688s-0.855,0.75-0.688,1.297L42.578,62h2.172L26.604,2.734z"
	/>
</svg>
