<?xml version="1.0" encoding="utf-8"?>
<!-- Generator: Adobe Illustrator 15.0.0, SVG Export Plug-In . SVG Version: 6.00 Build 0)  -->
<!DOCTYPE svg PUBLIC "-//W3C//DTD SVG 1.1//EN" "http://www.w3.org/Graphics/SVG/1.1/DTD/svg11.dtd" [
	<!ENTITY ns_flows "http://ns.adobe.com/Flows/1.0/">
	<!ENTITY ns_extend "http://ns.adobe.com/Extensibility/1.0/">
	<!ENTITY ns_ai "http://ns.adobe.com/AdobeIllustrator/10.0/">
	<!ENTITY ns_graphs "http://ns.adobe.com/Graphs/1.0/">
]>
<svg version="1.1" id="Layer_1" xmlns:x="&ns_extend;" xmlns:i="&ns_ai;" xmlns:graph="&ns_graphs;"
	 xmlns="http://www.w3.org/2000/svg" xmlns:xlink="http://www.w3.org/1999/xlink" xmlns:a="http://ns.adobe.com/AdobeSVGViewerExtensions/3.0/"
	 x="0px" y="0px" width="64px" height="64px" viewBox="0 0 64 64" enable-background="new 0 0 64 64" xml:space="preserve">
<path fill="#FFE600" d="M17.563,9.785c0.026,0.336-5.972,0.834-6,0.495C11.537,9.945,17.537,9.447,17.563,9.785z"/>
<path fill="#FFE600" d="M15.849,7.283c0.304,0.146-2.27,5.645-2.571,5.499C12.975,12.639,15.548,7.139,15.849,7.283z"/>
<linearGradient id="SVGID_1_" gradientUnits="userSpaceOnUse" x1="-127.2651" y1="56.916" x2="-124.46" y2="56.916" gradientTransform="matrix(0.7071 -0.7071 0.7071 0.7071 91.456 -86.7432)">
	<stop  offset="0" style="stop-color:#99A8AE"/>
	<stop  offset="0.281" style="stop-color:#B1BFC7"/>
	<stop  offset="0.6102" style="stop-color:#C7D5DE"/>
	<stop  offset="0.8182" style="stop-color:#CFDDE6"/>
	<a:midPointStop  offset="0" style="stop-color:#99A8AE"/>
	<a:midPointStop  offset="0.3939" style="stop-color:#99A8AE"/>
	<a:midPointStop  offset="0.8182" style="stop-color:#CFDDE6"/>
</linearGradient>
<polygon fill="url(#SVGID_1_)" points="62,60.2 60.219,62 23.406,24.801 25.188,23.002 "/>
<path fill="#FFCC00" d="M25.775,25.423C24.894,26.313,7.658,7.116,7.658,7.116S26.651,24.538,25.775,25.423z"/>
<path fill="#F59E01" d="M25.773,25.424c-0.88-0.889,16.947-17.126,16.947-17.126S26.651,26.311,25.773,25.424z"/>
<path fill="#F9C802" d="M25.773,25.424c0.877,0.887-16.27,16.438-16.27,16.438S24.894,24.535,25.773,25.424z"/>
<path fill="#F9C802" d="M25.773,25.424c-1.245,0.001,0.005-22.325,0.005-22.325S27.014,25.423,25.773,25.424z"/>
<path fill="#F59E01" d="M25.773,25.424c1.241-0.002-0.004,22.323-0.004,22.323S24.529,25.425,25.773,25.424z"/>
<path fill="#FFCC00" d="M25.773,25.424c0-1.257,22.093-0.005,22.093-0.005S25.772,26.677,25.773,25.424z"/>
<path fill="#FFCC00" d="M25.773,25.424c-0.001,1.253-22.093,0.004-22.093,0.004S25.774,24.167,25.773,25.424z"/>
<path fill="#FF9901" d="M12.52,14.771c0.791-1.003,13.254,10.652,13.254,10.652S11.729,15.777,12.52,14.771z"/>
<path fill="#FF9901" d="M39.024,36.072c-0.79,1.005-13.251-10.65-13.251-10.65S39.817,35.069,39.024,36.072z"/>
<path fill="#FFCC00" d="M36.32,12.026c0.993,0.8-10.548,13.397-10.548,13.397S35.324,11.227,36.32,12.026z"/>
<path fill="#FF6A00" d="M15.227,38.819c-0.995-0.799,10.547-13.396,10.547-13.396C25.773,25.424,16.221,39.618,15.227,38.819z"/>
<path fill="#FF9901" d="M23.86,8.418c1.262-0.146,1.913,17.005,1.913,17.005S22.597,8.564,23.86,8.418z"/>
<path fill="#FF6A00" d="M27.686,42.427c-1.26,0.146-1.913-17.005-1.913-17.005S28.949,42.282,27.686,42.427z"/>
<path fill="#FF9901" d="M42.603,23.481c0.142,1.275-16.831,1.941-16.83,1.941C25.773,25.422,42.457,22.206,42.603,23.481z"/>
<path fill="#FFE600" d="M8.944,27.365c-0.145-1.276,16.83-1.941,16.829-1.942C25.772,25.423,9.088,28.641,8.944,27.365z"/>
<path fill="#F9B700" d="M5.518,16.527c0.661-1.536,20.256,8.897,20.256,8.897S4.856,18.063,5.518,16.527z"/>
<path fill="#FF6A00" d="M46.031,34.319c-0.662,1.535-20.258-8.897-20.258-8.897S46.692,32.784,46.031,34.319z"/>
<path fill="#FF9901" d="M34.587,4.95c1.519,0.667-8.815,20.474-8.814,20.473C25.772,25.423,33.066,4.282,34.587,4.95z"/>
<path fill="#FF9901" d="M16.96,45.897c-1.519-0.666,8.813-20.474,8.813-20.474C25.773,25.424,18.479,46.563,16.96,45.897z"/>
<path fill="#FF6A00" d="M17.682,4.655c1.542-0.615,8.091,20.768,8.091,20.768S16.14,5.27,17.682,4.655z"/>
<path fill="#FFE600" d="M33.865,46.192c-1.542,0.613-8.092-20.771-8.092-20.771S35.406,45.576,33.865,46.192z"/>
<path fill="#FFE600" d="M46.33,17.237c0.605,1.558-20.559,8.186-20.558,8.186C25.773,25.422,45.721,15.679,46.33,17.237z"/>
<path fill="#FF6A00" d="M5.215,33.608c-0.605-1.556,20.559-8.185,20.557-8.186C25.772,25.423,5.823,35.17,5.215,33.608z"/>
<path fill="#FF6A00" d="M6.932,22.582c0.21-1.428,18.843,2.841,18.843,2.841S6.721,24.009,6.932,22.582z"/>
<path fill="#FF9901" d="M44.617,28.264c-0.213,1.427-18.844-2.842-18.844-2.842S44.826,26.835,44.617,28.264z"/>
<path fill="#FF6A00" d="M28.592,6.381c1.414,0.213-2.819,19.043-2.82,19.042C25.772,25.423,27.18,6.168,28.592,6.381z"/>
<path fill="#FFCC00" d="M22.954,44.465c-1.413-0.212,2.821-19.042,2.821-19.042C25.774,25.424,24.368,44.68,22.954,44.465z"/>
<path fill="#FFE600" d="M14.443,9.948c1.149-0.858,11.329,15.475,11.329,15.475S13.294,10.808,14.443,9.948z"/>
<path fill="#FF6A00" d="M37.105,40.897c-1.15,0.857-11.332-15.476-11.332-15.476S38.252,40.038,37.105,40.897z"/>
<path fill="#FF6A00" d="M41.092,13.967c0.849,1.161-15.32,11.457-15.319,11.456C25.773,25.422,40.24,12.807,41.092,13.967z"/>
<path fill="#FF9901" d="M10.455,36.878c-0.85-1.16,15.32-11.455,15.317-11.455C25.772,25.423,11.306,38.04,10.455,36.878z"/>
<path fill="#FFE600" d="M40.334,40.109c0,0-15.499-13.983-15.864-14.353c-1.342-1.355,0.319-3.034,1.661-1.678
	C26.497,24.448,40.334,40.109,40.334,40.109z"/>
<radialGradient id="SVGID_2_" cx="-124.4082" cy="31.415" r="6.5701" gradientTransform="matrix(0.7071 -0.7145 0.7071 0.7145 91.456 -86.019)" gradientUnits="userSpaceOnUse">
	<stop  offset="0" style="stop-color:#FFFF57"/>
	<stop  offset="0.2064" style="stop-color:#FFF94B"/>
	<stop  offset="0.5797" style="stop-color:#FFEA2B"/>
	<stop  offset="1" style="stop-color:#FFD500"/>
	<a:midPointStop  offset="0" style="stop-color:#FFFF57"/>
	<a:midPointStop  offset="0.5758" style="stop-color:#FFFF57"/>
	<a:midPointStop  offset="1" style="stop-color:#FFD500"/>
</radialGradient>
<polygon fill="url(#SVGID_2_)" points="28.196,27.84 27.549,32.187 24.806,28.744 20.753,30.319 22.312,26.223 18.904,23.451 
	23.206,22.798 23.852,18.451 26.595,21.894 30.649,20.32 29.09,24.415 32.498,27.187 "/>
<radialGradient id="SVGID_3_" cx="-124.4082" cy="31.4155" r="4.6406" gradientTransform="matrix(0.7071 -0.7145 0.7071 0.7145 91.456 -86.019)" gradientUnits="userSpaceOnUse">
	<stop  offset="0" style="stop-color:#FFFFFF"/>
	<stop  offset="0.1226" style="stop-color:#FFFFF9;stop-opacity:0.8774"/>
	<stop  offset="0.2842" style="stop-color:#FFFFE9;stop-opacity:0.7158"/>
	<stop  offset="0.4676" style="stop-color:#FFFFCD;stop-opacity:0.5324"/>
	<stop  offset="0.6671" style="stop-color:#FFFFA7;stop-opacity:0.3329"/>
	<stop  offset="0.8773" style="stop-color:#FFFF77;stop-opacity:0.1227"/>
	<stop  offset="1" style="stop-color:#FFFF57;stop-opacity:0"/>
	<a:midPointStop  offset="0" style="stop-color:#FFFFFF"/>
	<a:midPointStop  offset="0.6485" style="stop-color:#FFFFFF"/>
	<a:midPointStop  offset="1" style="stop-color:#FFFF57;stop-opacity:0"/>
</radialGradient>
<polygon fill="url(#SVGID_3_)" points="27.463,27.099 27.006,30.169 25.068,27.737 22.207,28.85 23.307,25.958 20.9,24 
	23.938,23.538 24.395,20.468 26.333,22.9 29.196,21.788 28.094,24.68 30.501,26.638 "/>
<path fill="#F59E01" d="M43.58,11.617c-0.362,0.097-2.117-6.507-1.752-6.605C42.188,4.917,43.945,11.518,43.58,11.617z"/>
<path fill="#F59E01" d="M45.973,9.2c-0.1,0.371-6.635-1.403-6.537-1.771C39.531,7.062,46.068,8.836,45.973,9.2z"/>
<path fill="#F9C802" d="M10.41,45.198c-0.368,0.098-2.15-6.607-1.779-6.707C8.998,38.394,10.78,45.099,10.41,45.198z"/>
<path fill="#F9C802" d="M12.839,42.745c-0.101,0.373-6.737-1.427-6.637-1.799C6.299,40.573,12.937,42.374,12.839,42.745z"/>
<path fill="#F9C802" d="M27.834,4.371c-0.129,0.226-4.164-2.128-4.033-2.356C23.93,1.792,27.967,4.144,27.834,4.371z"/>
<path fill="#F9C802" d="M27.835,2.015c0.132,0.229-3.905,2.583-4.034,2.357C23.671,4.145,27.708,1.792,27.835,2.015z"/>
<path fill="#F59E01" d="M28.264,49.205c-0.16,0.278-5.153-2.634-4.991-2.915C23.434,46.013,28.426,48.923,28.264,49.205z"/>
<path fill="#F59E01" d="M28.265,46.29c0.162,0.283-4.832,3.195-4.993,2.914C23.111,48.925,28.106,46.013,28.265,46.29z"/>
<path fill="#FFCC00" d="M46.169,28.077c-0.291-0.172,2.752-5.5,3.046-5.328C49.508,22.919,46.463,28.249,46.169,28.077z"/>
<path fill="#FFCC00" d="M49.215,28.076c-0.295,0.171-3.341-5.158-3.046-5.328C46.463,22.578,49.506,27.906,49.215,28.076z"/>
<path fill="#FFCC00" d="M2.021,28.107c-0.306-0.18,2.881-5.758,3.189-5.578C5.514,22.708,2.33,28.288,2.021,28.107z"/>
<path fill="#FFCC00" d="M5.21,28.107c-0.309,0.18-3.497-5.399-3.189-5.578C2.327,22.349,5.514,27.93,5.21,28.107z"/>
</svg>
