<?xml version="1.0" encoding="utf-8"?>
<!-- Generator: Adobe Illustrator 15.0.0, SVG Export Plug-In . SVG Version: 6.00 Build 0)  -->
<!DOCTYPE svg PUBLIC "-//W3C//DTD SVG 1.1//EN" "http://www.w3.org/Graphics/SVG/1.1/DTD/svg11.dtd" [
	<!ENTITY ns_flows "http://ns.adobe.com/Flows/1.0/">
	<!ENTITY ns_extend "http://ns.adobe.com/Extensibility/1.0/">
	<!ENTITY ns_ai "http://ns.adobe.com/AdobeIllustrator/10.0/">
	<!ENTITY ns_graphs "http://ns.adobe.com/Graphs/1.0/">
]>
<svg version="1.1" id="Layer_1" xmlns:x="&ns_extend;" xmlns:i="&ns_ai;" xmlns:graph="&ns_graphs;"
	 xmlns="http://www.w3.org/2000/svg" xmlns:xlink="http://www.w3.org/1999/xlink" xmlns:a="http://ns.adobe.com/AdobeSVGViewerExtensions/3.0/"
	 x="0px" y="0px" width="64px" height="64px" viewBox="0 0 64 64" enable-background="new 0 0 64 64" xml:space="preserve">
<linearGradient id="SVGID_1_" gradientUnits="userSpaceOnUse" x1="32.0005" y1="62" x2="32.0005" y2="2.0005">
	<stop  offset="0" style="stop-color:#93A1A8"/>
	<stop  offset="0.2062" style="stop-color:#A8B4BB"/>
	<stop  offset="0.4833" style="stop-color:#BEC8CE"/>
	<stop  offset="0.7519" style="stop-color:#CBD4D9"/>
	<stop  offset="1" style="stop-color:#CFD8DD"/>
	<a:midPointStop  offset="0" style="stop-color:#93A1A8"/>
	<a:midPointStop  offset="0.3091" style="stop-color:#93A1A8"/>
	<a:midPointStop  offset="1" style="stop-color:#CFD8DD"/>
</linearGradient>
<path fill="url(#SVGID_1_)" d="M62,58c0,2.2-1.801,4-4,4H6c-2.2,0-4-1.8-4-4V6c0-2.2,1.8-4,4-4h52c2.199,0,4,1.8,4,4V58z"/>
<path fill="#E6EBEF" d="M60,57.5c0,1.375-1.125,2.5-2.5,2.5h-51C5.125,60,4,58.875,4,57.5v-51C4,5.125,5.125,4,6.5,4h51
	C58.875,4,60,5.125,60,6.5V57.5z"/>
<linearGradient id="SVGID_2_" gradientUnits="userSpaceOnUse" x1="45.998" y1="54.999" x2="45.998" y2="36.999">
	<stop  offset="0" style="stop-color:#CFD8DD"/>
	<stop  offset="0.2384" style="stop-color:#DEE4E8"/>
	<stop  offset="0.71" style="stop-color:#F6F8F9"/>
	<stop  offset="1" style="stop-color:#FFFFFF"/>
	<a:midPointStop  offset="0" style="stop-color:#CFD8DD"/>
	<a:midPointStop  offset="0.4" style="stop-color:#CFD8DD"/>
	<a:midPointStop  offset="1" style="stop-color:#FFFFFF"/>
</linearGradient>
<circle fill="url(#SVGID_2_)" cx="45.998" cy="45.999" r="9"/>
<linearGradient id="SVGID_3_" gradientUnits="userSpaceOnUse" x1="18.0005" y1="54.999" x2="18.0005" y2="36.999">
	<stop  offset="0" style="stop-color:#CFD8DD"/>
	<stop  offset="0.2384" style="stop-color:#DEE4E8"/>
	<stop  offset="0.71" style="stop-color:#F6F8F9"/>
	<stop  offset="1" style="stop-color:#FFFFFF"/>
	<a:midPointStop  offset="0" style="stop-color:#CFD8DD"/>
	<a:midPointStop  offset="0.4" style="stop-color:#CFD8DD"/>
	<a:midPointStop  offset="1" style="stop-color:#FFFFFF"/>
</linearGradient>
<circle fill="url(#SVGID_3_)" cx="18" cy="45.999" r="9"/>
<linearGradient id="SVGID_4_" gradientUnits="userSpaceOnUse" x1="18.0005" y1="29.0005" x2="18.0005" y2="11.0005">
	<stop  offset="0" style="stop-color:#CFD8DD"/>
	<stop  offset="0.2384" style="stop-color:#DEE4E8"/>
	<stop  offset="0.71" style="stop-color:#F6F8F9"/>
	<stop  offset="1" style="stop-color:#FFFFFF"/>
	<a:midPointStop  offset="0" style="stop-color:#CFD8DD"/>
	<a:midPointStop  offset="0.4" style="stop-color:#CFD8DD"/>
	<a:midPointStop  offset="1" style="stop-color:#FFFFFF"/>
</linearGradient>
<circle fill="url(#SVGID_4_)" cx="18" cy="20" r="9"/>
<linearGradient id="SVGID_5_" gradientUnits="userSpaceOnUse" x1="46" y1="29.0005" x2="46" y2="11.0005">
	<stop  offset="0" style="stop-color:#CFD8DD"/>
	<stop  offset="0.2384" style="stop-color:#DEE4E8"/>
	<stop  offset="0.71" style="stop-color:#F6F8F9"/>
	<stop  offset="1" style="stop-color:#FFFFFF"/>
	<a:midPointStop  offset="0" style="stop-color:#CFD8DD"/>
	<a:midPointStop  offset="0.4" style="stop-color:#CFD8DD"/>
	<a:midPointStop  offset="1" style="stop-color:#FFFFFF"/>
</linearGradient>
<circle fill="url(#SVGID_5_)" cx="46" cy="20" r="9"/>
<linearGradient id="SVGID_6_" gradientUnits="userSpaceOnUse" x1="18.0005" y1="27.75" x2="18.0005" y2="12.25">
	<stop  offset="0" style="stop-color:#1F1C26"/>
	<stop  offset="0.2664" style="stop-color:#221F29"/>
	<stop  offset="0.4857" style="stop-color:#2A2933"/>
	<stop  offset="0.6882" style="stop-color:#383B44"/>
	<stop  offset="0.8794" style="stop-color:#4B535B"/>
	<stop  offset="1" style="stop-color:#5B666E"/>
	<a:midPointStop  offset="0" style="stop-color:#1F1C26"/>
	<a:midPointStop  offset="0.7455" style="stop-color:#1F1C26"/>
	<a:midPointStop  offset="1" style="stop-color:#5B666E"/>
</linearGradient>
<circle fill="url(#SVGID_6_)" cx="18" cy="20" r="7.75"/>
<linearGradient id="SVGID_7_" gradientUnits="userSpaceOnUse" x1="18.0005" y1="27" x2="18.0005" y2="13">
	<stop  offset="0" style="stop-color:#302C3B"/>
	<stop  offset="0.3779" style="stop-color:#454854"/>
	<stop  offset="0.7557" style="stop-color:#555E67"/>
	<stop  offset="1" style="stop-color:#5B666E"/>
	<a:midPointStop  offset="0" style="stop-color:#302C3B"/>
	<a:midPointStop  offset="0.3879" style="stop-color:#302C3B"/>
	<a:midPointStop  offset="1" style="stop-color:#5B666E"/>
</linearGradient>
<circle fill="url(#SVGID_7_)" cx="18" cy="20" r="7"/>
<linearGradient id="SVGID_8_" gradientUnits="userSpaceOnUse" x1="18.0005" y1="11.9424" x2="18.0005" y2="19.9424">
	<stop  offset="0" style="stop-color:#CFD8DD"/>
	<stop  offset="0.2163" style="stop-color:#EAEEF0"/>
	<stop  offset="0.4182" style="stop-color:#FFFFFF"/>
	<a:midPointStop  offset="0" style="stop-color:#CFD8DD"/>
	<a:midPointStop  offset="0.4559" style="stop-color:#CFD8DD"/>
	<a:midPointStop  offset="0.4182" style="stop-color:#FFFFFF"/>
</linearGradient>
<path fill="url(#SVGID_8_)" d="M19,19.5c0,0.275-0.225,0.5-0.5,0.5h-1c-0.275,0-0.5-0.225-0.5-0.5v-7c0-0.275,0.225-0.5,0.5-0.5h1
	c0.275,0,0.5,0.225,0.5,0.5V19.5z"/>
<linearGradient id="SVGID_9_" gradientUnits="userSpaceOnUse" x1="45.999" y1="27.751" x2="45.999" y2="12.25">
	<stop  offset="0" style="stop-color:#1F1C26"/>
	<stop  offset="0.2664" style="stop-color:#221F29"/>
	<stop  offset="0.4857" style="stop-color:#2A2933"/>
	<stop  offset="0.6882" style="stop-color:#383B44"/>
	<stop  offset="0.8794" style="stop-color:#4B535B"/>
	<stop  offset="1" style="stop-color:#5B666E"/>
	<a:midPointStop  offset="0" style="stop-color:#1F1C26"/>
	<a:midPointStop  offset="0.7455" style="stop-color:#1F1C26"/>
	<a:midPointStop  offset="1" style="stop-color:#5B666E"/>
</linearGradient>
<circle fill="url(#SVGID_9_)" cx="45.999" cy="20" r="7.748"/>
<linearGradient id="SVGID_10_" gradientUnits="userSpaceOnUse" x1="46" y1="27.0015" x2="46" y2="12.999">
	<stop  offset="0" style="stop-color:#302C3B"/>
	<stop  offset="0.3779" style="stop-color:#454854"/>
	<stop  offset="0.7557" style="stop-color:#555E67"/>
	<stop  offset="1" style="stop-color:#5B666E"/>
	<a:midPointStop  offset="0" style="stop-color:#302C3B"/>
	<a:midPointStop  offset="0.3879" style="stop-color:#302C3B"/>
	<a:midPointStop  offset="1" style="stop-color:#5B666E"/>
</linearGradient>
<circle fill="url(#SVGID_10_)" cx="46" cy="20" r="7"/>
<linearGradient id="SVGID_11_" gradientUnits="userSpaceOnUse" x1="49.9697" y1="13.0332" x2="46.0379" y2="20.0232">
	<stop  offset="0" style="stop-color:#CFD8DD"/>
	<stop  offset="0.2163" style="stop-color:#EAEEF0"/>
	<stop  offset="0.4182" style="stop-color:#FFFFFF"/>
	<a:midPointStop  offset="0" style="stop-color:#CFD8DD"/>
	<a:midPointStop  offset="0.4559" style="stop-color:#CFD8DD"/>
	<a:midPointStop  offset="0.4182" style="stop-color:#FFFFFF"/>
</linearGradient>
<path fill="url(#SVGID_11_)" d="M47.115,20.067c-0.139,0.238-0.445,0.321-0.684,0.183l-0.867-0.5
	c-0.238-0.138-0.32-0.445-0.182-0.683l3.5-6.062c0.137-0.238,0.443-0.321,0.682-0.183l0.867,0.5c0.238,0.138,0.32,0.445,0.184,0.683
	L47.115,20.067z"/>
<linearGradient id="SVGID_12_" gradientUnits="userSpaceOnUse" x1="45.999" y1="53.75" x2="45.999" y2="38.25">
	<stop  offset="0" style="stop-color:#1F1C26"/>
	<stop  offset="0.2664" style="stop-color:#221F29"/>
	<stop  offset="0.4857" style="stop-color:#2A2933"/>
	<stop  offset="0.6882" style="stop-color:#383B44"/>
	<stop  offset="0.8794" style="stop-color:#4B535B"/>
	<stop  offset="1" style="stop-color:#5B666E"/>
	<a:midPointStop  offset="0" style="stop-color:#1F1C26"/>
	<a:midPointStop  offset="0.7455" style="stop-color:#1F1C26"/>
	<a:midPointStop  offset="1" style="stop-color:#5B666E"/>
</linearGradient>
<circle fill="url(#SVGID_12_)" cx="45.999" cy="46" r="7.748"/>
<linearGradient id="SVGID_13_" gradientUnits="userSpaceOnUse" x1="46" y1="53.001" x2="46" y2="38.998">
	<stop  offset="0" style="stop-color:#302C3B"/>
	<stop  offset="0.3779" style="stop-color:#454854"/>
	<stop  offset="0.7557" style="stop-color:#555E67"/>
	<stop  offset="1" style="stop-color:#5B666E"/>
	<a:midPointStop  offset="0" style="stop-color:#302C3B"/>
	<a:midPointStop  offset="0.3879" style="stop-color:#302C3B"/>
	<a:midPointStop  offset="1" style="stop-color:#5B666E"/>
</linearGradient>
<circle fill="url(#SVGID_13_)" cx="46" cy="46" r="7"/>
<linearGradient id="SVGID_14_" gradientUnits="userSpaceOnUse" x1="39.0859" y1="41.9688" x2="46.0783" y2="46.0892">
	<stop  offset="0" style="stop-color:#CFD8DD"/>
	<stop  offset="0.2163" style="stop-color:#EAEEF0"/>
	<stop  offset="0.4182" style="stop-color:#FFFFFF"/>
	<a:midPointStop  offset="0" style="stop-color:#CFD8DD"/>
	<a:midPointStop  offset="0.4559" style="stop-color:#CFD8DD"/>
	<a:midPointStop  offset="0.4182" style="stop-color:#FFFFFF"/>
</linearGradient>
<path fill="url(#SVGID_14_)" d="M46.066,44.885c0.238,0.138,0.32,0.444,0.184,0.683l-0.5,0.867c-0.139,0.238-0.445,0.32-0.684,0.183
	l-6.063-3.5c-0.238-0.138-0.32-0.444-0.182-0.683l0.5-0.867c0.137-0.238,0.443-0.32,0.682-0.183L46.066,44.885z"/>
<linearGradient id="SVGID_15_" gradientUnits="userSpaceOnUse" x1="18.0005" y1="53.75" x2="18.0005" y2="38.25">
	<stop  offset="0" style="stop-color:#1F1C26"/>
	<stop  offset="0.2664" style="stop-color:#221F29"/>
	<stop  offset="0.4857" style="stop-color:#2A2933"/>
	<stop  offset="0.6882" style="stop-color:#383B44"/>
	<stop  offset="0.8794" style="stop-color:#4B535B"/>
	<stop  offset="1" style="stop-color:#5B666E"/>
	<a:midPointStop  offset="0" style="stop-color:#1F1C26"/>
	<a:midPointStop  offset="0.7455" style="stop-color:#1F1C26"/>
	<a:midPointStop  offset="1" style="stop-color:#5B666E"/>
</linearGradient>
<circle fill="url(#SVGID_15_)" cx="18" cy="46" r="7.75"/>
<linearGradient id="SVGID_16_" gradientUnits="userSpaceOnUse" x1="18.0005" y1="53" x2="18.0005" y2="39">
	<stop  offset="0" style="stop-color:#302C3B"/>
	<stop  offset="0.3779" style="stop-color:#454854"/>
	<stop  offset="0.7557" style="stop-color:#555E67"/>
	<stop  offset="1" style="stop-color:#5B666E"/>
	<a:midPointStop  offset="0" style="stop-color:#302C3B"/>
	<a:midPointStop  offset="0.3879" style="stop-color:#302C3B"/>
	<a:midPointStop  offset="1" style="stop-color:#5B666E"/>
</linearGradient>
<circle fill="url(#SVGID_16_)" cx="18" cy="46" r="7"/>
<linearGradient id="SVGID_17_" gradientUnits="userSpaceOnUse" x1="26.0005" y1="46" x2="18.1193" y2="46">
	<stop  offset="0" style="stop-color:#CFD8DD"/>
	<stop  offset="0.2163" style="stop-color:#EAEEF0"/>
	<stop  offset="0.4182" style="stop-color:#FFFFFF"/>
	<a:midPointStop  offset="0" style="stop-color:#CFD8DD"/>
	<a:midPointStop  offset="0.4559" style="stop-color:#CFD8DD"/>
	<a:midPointStop  offset="0.4182" style="stop-color:#FFFFFF"/>
</linearGradient>
<path fill="url(#SVGID_17_)" d="M18.5,47c-0.275,0-0.5-0.226-0.5-0.5v-1c0-0.274,0.225-0.5,0.5-0.5h7c0.275,0,0.5,0.226,0.5,0.5v1
	c0,0.274-0.225,0.5-0.5,0.5H18.5z"/>
<path fill="#6E8189" d="M54.66,25c0.668-1.154,2.398-0.154,1.732,1S53.994,26.154,54.66,25z"/>
<path fill="#A6E639" d="M35.607,14c0.666-1.154,2.398-0.154,1.732,1C36.672,16.154,34.941,15.154,35.607,14z"/>
<path fill="#A6E639" d="M40,9.607c1.154-0.666,2.154,1.065,1,1.732C39.846,12.006,38.846,10.274,40,9.607z"/>
<path fill="#A6E639" d="M46,8c1.332,0,1.332,2,0,2S44.668,8,46,8z"/>
<path fill="#A6E639" d="M52,9.607c1.154,0.667,0.154,2.398-1,1.732C49.846,10.673,50.846,8.941,52,9.607z"/>
<path fill="#A6E639" d="M37.34,25c0.666,1.154-1.066,2.154-1.732,1S36.672,23.846,37.34,25z"/>
<path fill="#6E8189" d="M56.393,14c0.666,1.154-1.064,2.154-1.732,1C53.994,13.846,55.727,12.846,56.393,14z"/>
<path fill="#A6E639" d="M36,20c0,1.333-2,1.333-2,0S36,18.667,36,20z"/>
<path fill="#6E8189" d="M58,20c0,1.333-2,1.333-2,0S58,18.667,58,20z"/>
<path fill="#6E8189" d="M54.66,51c0.668-1.156,2.398-0.156,1.732,1C55.727,53.152,53.994,52.152,54.66,51z"/>
<path fill="#A6E639" d="M35.607,40c0.666-1.156,2.398-0.156,1.732,1C36.672,42.152,34.941,41.152,35.607,40z"/>
<path fill="#6E8189" d="M40,35.607c1.154-0.666,2.154,1.064,1,1.732C39.846,38.004,38.846,36.273,40,35.607z"/>
<path fill="#6E8189" d="M46,34c1.332,0,1.332,2,0,2S44.668,34,46,34z"/>
<path fill="#6E8189" d="M52,35.607c1.154,0.666,0.154,2.396-1,1.732C49.846,36.672,50.846,34.941,52,35.607z"/>
<path fill="#A6E639" d="M37.34,51c0.666,1.152-1.066,2.152-1.732,1C34.941,50.844,36.672,49.844,37.34,51z"/>
<path fill="#6E8189" d="M56.393,40c0.666,1.152-1.064,2.152-1.732,1C53.994,39.844,55.727,38.844,56.393,40z"/>
<path fill="#A6E639" d="M36,46c0,1.332-2,1.332-2,0S36,44.668,36,46z"/>
<path fill="#6E8189" d="M58,46c0,1.332-2,1.332-2,0S58,44.668,58,46z"/>
<path fill="#6E8189" d="M26.661,51c0.667-1.156,2.397-0.156,1.731,1C27.726,53.152,25.995,52.152,26.661,51z"/>
<path fill="#A6E639" d="M7.608,40c0.666-1.156,2.398-0.156,1.732,1C8.672,42.152,6.942,41.152,7.608,40z"/>
<path fill="#A6E639" d="M12,35.607c1.154-0.666,2.154,1.064,1,1.732C11.846,38.004,10.846,36.273,12,35.607z"/>
<path fill="#A6E639" d="M18,34c1.332,0,1.332,2,0,2S16.668,34,18,34z"/>
<path fill="#A6E639" d="M24,35.607c1.154,0.666,0.154,2.396-1,1.732C21.846,36.672,22.846,34.941,24,35.607z"/>
<path fill="#A6E639" d="M9.34,51c0.666,1.152-1.066,2.152-1.732,1C6.942,50.844,8.672,49.844,9.34,51z"/>
<path fill="#A6E639" d="M28.392,40c0.666,1.152-1.064,2.152-1.731,1C25.995,39.844,27.726,38.844,28.392,40z"/>
<path fill="#A6E639" d="M8,46c0,1.332-2,1.332-2,0S8,44.668,8,46z"/>
<path fill="#A6E639" d="M30,46c0,1.332-2,1.332-2,0S30,44.668,30,46z"/>
<path fill="#6E8189" d="M26.661,25c0.665-1.154,2.397-0.154,1.731,1C27.724,27.154,25.995,26.154,26.661,25z"/>
<path fill="#A6E639" d="M7.608,14c0.666-1.154,2.398-0.154,1.732,1C8.672,16.154,6.942,15.154,7.608,14z"/>
<path fill="#A6E639" d="M12,9.607c1.154-0.666,2.154,1.065,1,1.732C11.846,12.006,10.846,10.274,12,9.607z"/>
<path fill="#A6E639" d="M18,8c1.332,0,1.332,2,0,2C16.667,10,16.667,8,18,8z"/>
<path fill="#6E8189" d="M24,9.607c1.154,0.667,0.154,2.398-1,1.732C21.846,10.673,22.846,8.941,24,9.607z"/>
<path fill="#A6E639" d="M9.34,25c0.666,1.154-1.066,2.154-1.732,1S8.672,23.846,9.34,25z"/>
<path fill="#6E8189" d="M28.392,14c0.666,1.154-1.066,2.154-1.731,1C25.995,13.846,27.724,12.846,28.392,14z"/>
<path fill="#A6E639" d="M8,20c0,1.333-2,1.333-2,0S8,18.667,8,20z"/>
<path fill="#6E8189" d="M30,20c0,1.333-2,1.333-2,0S30,18.667,30,20z"/>
</svg>
