<?xml version="1.0" encoding="utf-8"?>
<!-- Generator: Adobe Illustrator 15.0.0, SVG Export Plug-In . SVG Version: 6.00 Build 0)  -->
<!DOCTYPE svg PUBLIC "-//W3C//DTD SVG 1.1//EN" "http://www.w3.org/Graphics/SVG/1.1/DTD/svg11.dtd" [
	<!ENTITY ns_flows "http://ns.adobe.com/Flows/1.0/">
	<!ENTITY ns_extend "http://ns.adobe.com/Extensibility/1.0/">
	<!ENTITY ns_ai "http://ns.adobe.com/AdobeIllustrator/10.0/">
	<!ENTITY ns_graphs "http://ns.adobe.com/Graphs/1.0/">
]>
<svg version="1.1" id="Layer_1" xmlns:x="&ns_extend;" xmlns:i="&ns_ai;" xmlns:graph="&ns_graphs;"
	 xmlns="http://www.w3.org/2000/svg" xmlns:xlink="http://www.w3.org/1999/xlink" xmlns:a="http://ns.adobe.com/AdobeSVGViewerExtensions/3.0/"
	 x="0px" y="0px" width="64px" height="64px" viewBox="0 0 64 64" enable-background="new 0 0 64 64" xml:space="preserve">
<linearGradient id="SVGID_1_" gradientUnits="userSpaceOnUse" x1="2" y1="32" x2="62.001" y2="32">
	<stop  offset="0" style="stop-color:#5B666E"/>
	<stop  offset="0.2292" style="stop-color:#484D58"/>
	<stop  offset="0.4699" style="stop-color:#3B3B48"/>
	<stop  offset="0.7217" style="stop-color:#33303E"/>
	<stop  offset="1" style="stop-color:#302C3B"/>
	<a:midPointStop  offset="0" style="stop-color:#5B666E"/>
	<a:midPointStop  offset="0.2727" style="stop-color:#5B666E"/>
	<a:midPointStop  offset="1" style="stop-color:#302C3B"/>
</linearGradient>
<path fill="url(#SVGID_1_)" d="M2,12v9c0,0,12,11,0,22v9h60.001v-9c-12-11,0-22,0-22v-9H2z M4,15c0-0.55,0.45-1,1-1h2
	c0.55,0,1,0.45,1,1v3c0,0.55-0.45,1-1,1H5c-0.55,0-1-0.45-1-1V15z M8,49c0,0.55-0.45,1-1,1H5c-0.55,0-1-0.45-1-1v-3
	c0-0.55,0.45-1,1-1h2c0.55,0,1,0.45,1,1V49z M10.5,15c0-0.55,0.45-1,1-1h2c0.55,0,1,0.45,1,1v3c0,0.55-0.45,1-1,1h-2
	c-0.55,0-1-0.45-1-1V15z M14.5,49c0,0.55-0.45,1-1,1h-2c-0.55,0-1-0.45-1-1v-3c0-0.55,0.45-1,1-1h2c0.55,0,1,0.45,1,1V49z M17,15
	c0-0.55,0.45-1,1-1h2c0.55,0,1,0.45,1,1v3c0,0.55-0.45,1-1,1h-2c-0.55,0-1-0.45-1-1V15z M21,49c0,0.55-0.45,1-1,1h-2
	c-0.55,0-1-0.45-1-1v-3c0-0.55,0.45-1,1-1h2c0.55,0,1,0.45,1,1V49z M23.5,15c0-0.55,0.45-1,1-1h2c0.55,0,1,0.45,1,1v3
	c0,0.55-0.45,1-1,1h-2c-0.55,0-1-0.45-1-1V15z M27.501,49c0,0.55-0.451,1-1.001,1h-2c-0.55,0-1-0.45-1-1v-3c0-0.55,0.45-1,1-1h2
	c0.55,0,1.001,0.45,1.001,1V49z M30,15c0-0.55,0.45-1,1-1h2c0.55,0,1,0.45,1,1v3c0,0.55-0.45,1-1,1h-2c-0.55,0-1-0.45-1-1V15z
	 M34.001,49c0,0.55-0.451,1-1,1h-2c-0.551,0-1-0.45-1-1v-3c0-0.55,0.449-1,1-1h2c0.549,0,1,0.45,1,1V49z M36.5,15c0-0.55,0.45-1,1-1
	h2c0.55,0,1,0.45,1,1v3c0,0.55-0.45,1-1,1h-2c-0.55,0-1-0.45-1-1V15z M40.501,49c0,0.55-0.451,1-1,1h-2c-0.551,0-1-0.45-1-1v-3
	c0-0.55,0.449-1,1-1h2c0.549,0,1,0.45,1,1V49z M43,15c0-0.55,0.45-1,1-1h2c0.55,0,1,0.45,1,1v3c0,0.55-0.45,1-1,1h-2
	c-0.55,0-1-0.45-1-1V15z M47.001,49c0,0.55-0.451,1-1,1h-2c-0.551,0-1-0.45-1-1v-3c0-0.55,0.449-1,1-1h2c0.549,0,1,0.45,1,1V49z
	 M49.5,15c0-0.55,0.45-1,1-1h2c0.55,0,1,0.45,1,1v3c0,0.55-0.45,1-1,1h-2c-0.55,0-1-0.45-1-1V15z M53.501,49c0,0.55-0.451,1-1,1h-2
	c-0.551,0-1-0.45-1-1v-3c0-0.55,0.449-1,1-1h2c0.549,0,1,0.45,1,1V49z M56,15c0-0.55,0.45-1,1-1h2c0.55,0,1,0.45,1,1v3
	c0,0.55-0.45,1-1,1h-2c-0.55,0-1-0.45-1-1V15z M60.001,49c0,0.55-0.451,1-1,1h-2c-0.551,0-1-0.45-1-1v-3c0-0.55,0.449-1,1-1h2
	c0.549,0,1,0.45,1,1V49z"/>
<path fill="#F2F5F7" d="M13.5,21H2v22h11.5c0.274,0,0.5-0.225,0.5-0.5v-21C14,21.225,13.774,21,13.5,21z"/>
<path fill="#F2F5F7" d="M50.501,21c-0.275,0-0.5,0.225-0.5,0.5v21c0,0.275,0.225,0.5,0.5,0.5h11.5V21H50.501z"/>
<path fill="#F2F5F7" d="M46,42.5c0,0.275-0.226,0.5-0.5,0.5h-27c-0.275,0-0.5-0.225-0.5-0.5v-21c0-0.275,0.225-0.5,0.5-0.5h27
	c0.274,0,0.5,0.225,0.5,0.5V42.5z"/>
</svg>
