<?xml version="1.0" encoding="utf-8"?>
<!-- Generator: Adobe Illustrator 15.0.0, SVG Export Plug-In . SVG Version: 6.00 Build 0)  -->
<!DOCTYPE svg PUBLIC "-//W3C//DTD SVG 1.1//EN" "http://www.w3.org/Graphics/SVG/1.1/DTD/svg11.dtd" [
	<!ENTITY ns_flows "http://ns.adobe.com/Flows/1.0/">
	<!ENTITY ns_extend "http://ns.adobe.com/Extensibility/1.0/">
	<!ENTITY ns_ai "http://ns.adobe.com/AdobeIllustrator/10.0/">
	<!ENTITY ns_graphs "http://ns.adobe.com/Graphs/1.0/">
]>
<svg version="1.1" id="Layer_1" xmlns:x="&ns_extend;" xmlns:i="&ns_ai;" xmlns:graph="&ns_graphs;"
	 xmlns="http://www.w3.org/2000/svg" xmlns:xlink="http://www.w3.org/1999/xlink" xmlns:a="http://ns.adobe.com/AdobeSVGViewerExtensions/3.0/"
	 x="0px" y="0px" width="64px" height="64px" viewBox="0 0 64 64" enable-background="new 0 0 64 64" xml:space="preserve">
<linearGradient id="SVGID_1_" gradientUnits="userSpaceOnUse" x1="-165.5005" y1="136.5" x2="-162.5005" y2="136.5" gradientTransform="matrix(1 0 0 -1 194 170)">
	<stop  offset="0.1091" style="stop-color:#FFA900"/>
	<stop  offset="0.3293" style="stop-color:#F9A200"/>
	<stop  offset="0.6599" style="stop-color:#EA8D00"/>
	<stop  offset="1" style="stop-color:#D47100"/>
	<a:midPointStop  offset="0.1091" style="stop-color:#FFA900"/>
	<a:midPointStop  offset="0.5" style="stop-color:#FFA900"/>
	<a:midPointStop  offset="0.3293" style="stop-color:#F9A200"/>
	<a:midPointStop  offset="0.5" style="stop-color:#F9A200"/>
	<a:midPointStop  offset="0.6599" style="stop-color:#EA8D00"/>
	<a:midPointStop  offset="0.5" style="stop-color:#EA8D00"/>
	<a:midPointStop  offset="1" style="stop-color:#D47100"/>
</linearGradient>
<rect x="28.5" y="5" fill="url(#SVGID_1_)" width="3" height="57"/>
<polygon opacity="0.5" fill="#FBDCAD" enable-background="new    " points="28.5,58 28.5,62 31.5,58 31.5,54 "/>
<polygon opacity="0.5" fill="#FBDCAD" enable-background="new    " points="28.5,50 28.5,54 31.5,50 31.5,46 "/>
<polygon opacity="0.5" fill="#FBDCAD" enable-background="new    " points="28.5,42 28.5,46 31.5,42 31.5,38 "/>
<polygon opacity="0.5" fill="#FBDCAD" enable-background="new    " points="28.5,26 28.5,30 31.5,26 31.5,22 "/>
<polygon opacity="0.5" fill="#FBDCAD" enable-background="new    " points="28.5,18 28.5,22 31.5,18 31.5,14 "/>
<polygon opacity="0.5" fill="#FBDCAD" enable-background="new    " points="28.5,10 28.5,14 31.5,10 31.5,6 "/>
<radialGradient id="SVGID_2_" cx="-164.9189" cy="166.167" r="3.9049" gradientTransform="matrix(1 0 0 -1 194 170)" gradientUnits="userSpaceOnUse">
	<stop  offset="0.1091" style="stop-color:#FFA900"/>
	<stop  offset="0.3293" style="stop-color:#F9A200"/>
	<stop  offset="0.6599" style="stop-color:#EA8D00"/>
	<stop  offset="1" style="stop-color:#D47100"/>
	<a:midPointStop  offset="0.1091" style="stop-color:#FFA900"/>
	<a:midPointStop  offset="0.5" style="stop-color:#FFA900"/>
	<a:midPointStop  offset="0.3293" style="stop-color:#F9A200"/>
	<a:midPointStop  offset="0.5" style="stop-color:#F9A200"/>
	<a:midPointStop  offset="0.6599" style="stop-color:#EA8D00"/>
	<a:midPointStop  offset="0.5" style="stop-color:#EA8D00"/>
	<a:midPointStop  offset="1" style="stop-color:#D47100"/>
</radialGradient>
<path fill="url(#SVGID_2_)" d="M29.999,8c-4,0-4-6,0-6C33.998,2,33.998,8,29.999,8z"/>
<path fill="#FB9600" d="M31.767,8.748c-0.783,0-2.868,0-3.536,0c-0.976,0-0.976-1.495,0-1.495c0.604,0,2.911,0,3.536,0
	C32.744,7.252,32.744,8.748,31.767,8.748z"/>
<path fill="#E68900" d="M33.848,62c0-1.701-7.696-1.701-7.696,0H33.848z"/>
<path fill="#FB9600" d="M31.55,43.172c-0.908,0-2.326,0-3.102,0c-1.132,0-1.132-1.495,0-1.495c0.701,0,2.377,0,3.102,0
	C32.683,41.677,32.683,43.172,31.55,43.172z"/>
<path fill="#E68900" d="M32.151,41.714c-0.909,0-3.526,0-4.302,0c-1.132,0-1.132-1.495,0-1.495c0.7,0,3.576,0,4.302,0
	C33.283,40.219,33.283,41.714,32.151,41.714z"/>
<path fill="#784E3B" d="M13.726,8.542c2.263,3.58,7.531,6.305,10.582,4.364C23.799,7.992,18.042,6.279,13.726,8.542z"/>
<path fill="#9E6C49" d="M15.486,9.577c1.787,4.036,7.012,7.714,10.779,6.522C26.689,11.167,20.719,8.365,15.486,9.577z"/>
<path fill="#784E3B" d="M19.024,11.721c0.654,4.344,3.758,9.746,7.721,9.551C28.954,14.733,24.407,11.875,19.024,11.721z"/>
<path fill="#9E6C49" d="M21.917,15.236c-0.964,4.278,0.748,7.855,3.492,10.559C28.704,21.475,26.62,15.88,21.917,15.236z"/>
<path fill="#9E6C49" d="M57.535,31.325c1.506-7.723-11.844-10.059-10.602-1.192c9.58-2.162,1.412,10.03,13.066,14
	C56.426,38.851,56.523,36.522,57.535,31.325z"/>
<path fill="#784E3B" d="M60,44.133c-11.799-3.328-4.332-14-12.35-14.153C56.922,25.988,49.512,39.609,60,44.133z"/>
<path fill="#784E3B" d="M53.824,28.544c0,0-3.383-1.911-6.533,1.24C47.291,29.784,49.158,23.878,53.824,28.544z"/>
<path fill="#B3C2C6" d="M46.244,36.666c5.977,14.014-0.832,10.938,0.717,17.854c0.197,0.873,3.789-0.109,3.498-1.287
	c-2.004-3.413,2.318-3.559,2.318-10.38C52.777,41.651,47.871,39.596,46.244,36.666z"/>
<path fill="#B3C2C6" d="M6.477,45.067c-1.006,3.642,4.055,3.948,2.758,0.193c-0.821-2.378,5.248-6.114,7.596-9.527
	C10.967,29.171,8.571,37.481,6.477,45.067z"/>
<path fill="#302C3B" d="M9.235,45.261c0,0-0.572,1.984-1.501,3.539c-0.14,0.236,2.2,1.674,2.958,1.674
	C10.677,48.826,11.932,44.027,9.235,45.261z"/>
<path fill="#302C3B" d="M50.457,53.233c-1.797,1.415-2.916,0.583-3.496,1.287c-0.137,0.165-0.549,2.379,1.834,3.272
	C49.09,57.904,51.721,55.036,50.457,53.233z"/>
<linearGradient id="SVGID_3_" gradientUnits="userSpaceOnUse" x1="31.521" y1="58.1328" x2="31.521" y2="9.6006">
	<stop  offset="0" style="stop-color:#C4CCD1"/>
	<stop  offset="0.0773" style="stop-color:#CDD4D9"/>
	<stop  offset="0.2564" style="stop-color:#DBE1E5"/>
	<stop  offset="0.4742" style="stop-color:#E3E9ED"/>
	<stop  offset="0.8364" style="stop-color:#E6EBEF"/>
	<a:midPointStop  offset="0" style="stop-color:#C4CCD1"/>
	<a:midPointStop  offset="0.2" style="stop-color:#C4CCD1"/>
	<a:midPointStop  offset="0.8364" style="stop-color:#E6EBEF"/>
</linearGradient>
<path fill="url(#SVGID_3_)" d="M58.133,53.467c-0.33-0.33,0.164-1.43,0-1.867c-0.408-1.092-3.084-1.83-3.732-2.8
	c-0.535-0.798-0.02-3.429-0.934-3.733c-2.801-0.934-5.6-3.732-5.6-4.666c0-1.634,1.867-3.5,1.867-6.533
	c0-3.5-2.217-7.467-6.533-7.467c-3.734,0-6.943,1.604-9.334,2.8c-5.6,0.933-7.272-2.005-8.4-6.534
	c-0.997-4-2.333-13.066-9.333-13.066c-2.8,0-4.554,2.218-5.651,3.597c-1.167,1.467-4.477,4.423-4.573,5.431
	c-0.244,2.547-0.7,3.617,1.711,3.812c-0.107,0.711,1.808,1.074,2.042-0.356c0.253-1.547,3.15-0.243,4.705-2.541
	c1.556,6.047-1.034,8.724-1.034,13.391c0,1.483,0.286,2.697,0.757,3.703c-2.396-0.35-4.584-0.889-5.424-0.889
	c-1.03,0-1.601,0.856-1.867,1.852C6.257,39.627,4,44.504,4,46.939c0,3.78,2.8,5.594,3.733,5.594c0.583,0,0.494-4.782-0.312-5.387
	C5.733,45.88,8.426,41.583,9.6,40.411c1.32-1.318,3.733,1.855,7.467,1.855c1.164,0,2.045-0.602,2.717-1.434
	c1.907,0.475,3.75,0.501,4.75,0.501c4.822,0,9.801-1.867,13.066-1.867C39.078,42,42.127,44.712,46.934,46
	c2.016,0.541,3.934,1.653,4.666,2.8c0.895,1.4,2.801,9.333,6.533,9.333C60,58.133,58.463,53.797,58.133,53.467z"/>
<linearGradient id="SVGID_4_" gradientUnits="userSpaceOnUse" x1="28.6919" y1="41.334" x2="28.6919" y2="33.8672">
	<stop  offset="0.1455" style="stop-color:#BBC2C7"/>
	<stop  offset="0.8364" style="stop-color:#E6EBEF;stop-opacity:0"/>
	<a:midPointStop  offset="0.1455" style="stop-color:#BBC2C7"/>
	<a:midPointStop  offset="0.4912" style="stop-color:#BBC2C7"/>
	<a:midPointStop  offset="0.8364" style="stop-color:#E6EBEF;stop-opacity:0"/>
</linearGradient>
<path fill="url(#SVGID_4_)" d="M37.053,33.867l-15.329,0.274c0,0-0.417,4.646-1.94,6.691c1.907,0.475,3.75,0.501,4.75,0.501
	c4.822,0,9.801-1.867,13.066-1.867C36.678,36.475,37.053,33.867,37.053,33.867z"/>
<path fill="#4E5E67" d="M7.421,47.146c0,0-0.622,2.587-1.555,4.453c-0.14,0.283,1.083,2.266,3.017,1.791
	C8.782,50.547,10.955,47.146,7.421,47.146z"/>
<path fill="#FFFFFF" d="M13.28,13.78c-0.478-0.021-1.924-0.1-1.868,0.304c-0.098,0.227-0.078,0.719,0.144,0.969
	C12.326,14.787,12.912,14.407,13.28,13.78z"/>
<path fill="#4E5E67" d="M11.412,14.084c-0.098,0.227-0.078,0.719,0.144,0.969C13.021,14.481,11.677,12.812,11.412,14.084z"/>
<path fill="#4E5E67" d="M6.454,18.651c0.115,0.745-0.192,1.611-0.029,1.603C6.586,20.246,7.875,18.629,6.454,18.651z"/>
<path fill="#6E8189" d="M7.787,22.824c-0.245-0.288-0.245-0.288-0.583-0.431C9.744,19.075,9.465,19.399,7.787,22.824z"/>
<path fill="#4E5E67" d="M58.133,53.467c0,0-0.313,2.333-2.492,3.381c0,0,0.627,1.285,2.492,1.285
	C60,58.133,59.727,53.467,58.133,53.467z"/>
<path fill="#784E3B" d="M23.424,15.624c-4.875-1.745-4.471-7.516-6.207-7.307C16.183,13.157,20.692,15.552,23.424,15.624z"/>
<path fill="#0182BD" d="M7.701,16.184c0.357,2.466,1.923,3.304,1.923,3.304l0.984-0.559c0,0-1.759-0.93-2.085-3.609
	C8.321,15.048,7.6,16.051,7.701,16.184z"/>
<path fill="#0182BD" d="M11.984,11.482c1.086,2.056,6.037,4.095,2.383,8.06c-0.185,0.2,0.08,1.523,0.289,1.342
	c5.588-4.878-0.809-8.301-1.776-10.331C12.679,10.282,11.883,11.35,11.984,11.482z"/>
<path fill="#018BC9" d="M9.62,20.35c3.669-2.389,7.063-2.813,10.332-9.607c0.076-0.263-1.251-1.002-1.326-0.742
	c-2.652,6.141-6.881,7.183-9.28,9.138C8.744,19.149,9.62,20.35,9.62,20.35z"/>
<path fill="#F9C802" d="M10.116,19.838c0,1.183-1.774,1.183-1.774,0C8.342,18.656,10.116,18.656,10.116,19.838z"/>
<path fill="#F9C802" d="M16.85,15.368c0,1.183-1.774,1.183-1.774,0C15.076,14.186,16.85,14.186,16.85,15.368z"/>
<linearGradient id="SVGID_5_" gradientUnits="userSpaceOnUse" x1="34.1719" y1="40.3271" x2="34.1719" y2="34.0371">
	<stop  offset="0" style="stop-color:#005687"/>
	<stop  offset="0.0035" style="stop-color:#005688"/>
	<stop  offset="0.2083" style="stop-color:#0F6DA3"/>
	<stop  offset="0.4145" style="stop-color:#1A7CB7"/>
	<stop  offset="0.6215" style="stop-color:#2086C3"/>
	<stop  offset="0.8303" style="stop-color:#2289C7"/>
	<a:midPointStop  offset="0" style="stop-color:#005687"/>
	<a:midPointStop  offset="0.2909" style="stop-color:#005687"/>
	<a:midPointStop  offset="0.8303" style="stop-color:#2289C7"/>
</linearGradient>
<path fill="url(#SVGID_5_)" d="M36.254,34.037c0,0,0.35,3.553-0.33,5.556c0,0-1.186,0.419-3.924,0.734
	c0.832-2.513,0.365-6.173,0.365-6.173L36.254,34.037z"/>
<path fill="#F9C802" d="M24.79,25.583c0,0,1.09,9.336,9.808,9.336c6.539,0,8.971-10.122,6.539-10.267
	C38.063,24.469,35.688,32.12,24.79,25.583z"/>
<linearGradient id="SVGID_6_" gradientUnits="userSpaceOnUse" x1="25.8799" y1="29.3193" x2="40.0469" y2="29.3193">
	<stop  offset="0" style="stop-color:#2289C7"/>
	<stop  offset="0.2515" style="stop-color:#2086C3"/>
	<stop  offset="0.5007" style="stop-color:#1A7CB7"/>
	<stop  offset="0.7491" style="stop-color:#0F6DA3"/>
	<stop  offset="0.9957" style="stop-color:#005688"/>
	<stop  offset="1" style="stop-color:#005687"/>
	<a:midPointStop  offset="0" style="stop-color:#2289C7"/>
	<a:midPointStop  offset="0.7091" style="stop-color:#2289C7"/>
	<a:midPointStop  offset="1" style="stop-color:#005687"/>
</linearGradient>
<path fill="url(#SVGID_6_)" d="M25.88,25.586c0,0,2.179,7.467,8.718,7.467c2.998,0,5.449-2.8,5.449-6.533
	C40.047,23.719,34.289,30.968,25.88,25.586z"/>
<linearGradient id="SVGID_7_" gradientUnits="userSpaceOnUse" x1="12.6973" y1="30.3262" x2="26.9253" y2="30.3262">
	<stop  offset="0" style="stop-color:#2289C7"/>
	<stop  offset="0.2515" style="stop-color:#2086C3"/>
	<stop  offset="0.5007" style="stop-color:#1A7CB7"/>
	<stop  offset="0.7491" style="stop-color:#0F6DA3"/>
	<stop  offset="0.9957" style="stop-color:#005688"/>
	<stop  offset="1" style="stop-color:#005687"/>
	<a:midPointStop  offset="0" style="stop-color:#2289C7"/>
	<a:midPointStop  offset="0.7091" style="stop-color:#2289C7"/>
	<a:midPointStop  offset="1" style="stop-color:#005687"/>
</linearGradient>
<path fill="url(#SVGID_7_)" d="M26.063,24.763c0,0-5.133-0.817-12.343,3.701c0,0-2.308,3.736,0.012,7.272
	c0.725,1.105,1.355-2.38,1.744-4.669c1.355,1.425,4.362,0,3.925-2.512c1.5,1.419,4.668,0.554,4.359-1.75
	C25.013,27.855,28.542,26.951,26.063,24.763z"/>
<path fill="#F9C802" d="M25.628,23.29c-12.805,2.045-13.496,6.178-12.563,6.684c1.873-2.557,10.036-4.683,12.997-5.21
	C26.172,24.649,26.15,23.245,25.628,23.29z"/>
<path fill="#784E3B" d="M14.267,8.667c-1.4,0-3.316,1.351-1.867,2.8c0.904,0.904,1.943,0.933,2.8,2.8c0,0,0.855-1.011,0-1.867
	C12.564,9.765,14.267,8.667,14.267,8.667z"/>
<path fill="#E6EBEF" d="M13.333,5.867c0,0,0,5.6,1.323,5.6C17.553,11.467,18.625,7.733,13.333,5.867z"/>
<path fill="#99A8AE" d="M14.267,7.733c0,0,0,2.8,0.934,2.8C16.093,10.533,16.133,8.667,14.267,7.733z"/>
<path fill="#302C3B" d="M13.28,13.78c-0.136-0.206-3.164-0.743-1.868,0.304C11.599,13.55,13.068,14.084,13.28,13.78z"/>
</svg>
