<?xml version="1.0" encoding="utf-8"?>
<!-- Generator: Adobe Illustrator 15.0.0, SVG Export Plug-In . SVG Version: 6.00 Build 0)  -->
<!DOCTYPE svg PUBLIC "-//W3C//DTD SVG 1.1//EN" "http://www.w3.org/Graphics/SVG/1.1/DTD/svg11.dtd" [
	<!ENTITY ns_flows "http://ns.adobe.com/Flows/1.0/">
	<!ENTITY ns_extend "http://ns.adobe.com/Extensibility/1.0/">
	<!ENTITY ns_ai "http://ns.adobe.com/AdobeIllustrator/10.0/">
	<!ENTITY ns_graphs "http://ns.adobe.com/Graphs/1.0/">
]>
<svg version="1.1" id="Layer_1" xmlns:x="&ns_extend;" xmlns:i="&ns_ai;" xmlns:graph="&ns_graphs;"
	 xmlns="http://www.w3.org/2000/svg" xmlns:xlink="http://www.w3.org/1999/xlink" xmlns:a="http://ns.adobe.com/AdobeSVGViewerExtensions/3.0/"
	 x="0px" y="0px" width="64px" height="64px" viewBox="0 0 64 64" enable-background="new 0 0 64 64" xml:space="preserve">
<polygon fill="#302C3B" points="45.042,46.002 44.882,44.078 43.923,44.426 "/>
<path fill="#302C3B" d="M40.957,44.709c0.463,1.271,6.844-1.043,6.38-2.313C46.872,41.123,40.492,43.438,40.957,44.709z"/>
<linearGradient id="SVGID_1_" gradientUnits="userSpaceOnUse" x1="38.7871" y1="27.231" x2="37.7056" y2="27.6206">
	<stop  offset="0" style="stop-color:#0068A6"/>
	<stop  offset="0.0215" style="stop-color:#006DA9"/>
	<stop  offset="0.162" style="stop-color:#0088BA"/>
	<stop  offset="0.3154" style="stop-color:#009DC8"/>
	<stop  offset="0.4862" style="stop-color:#00ACD2"/>
	<stop  offset="0.6882" style="stop-color:#00B4D7"/>
	<stop  offset="1" style="stop-color:#00B7D9"/>
	<a:midPointStop  offset="0" style="stop-color:#0068A6"/>
	<a:midPointStop  offset="0.2121" style="stop-color:#0068A6"/>
	<a:midPointStop  offset="1" style="stop-color:#00B7D9"/>
</linearGradient>
<path fill="url(#SVGID_1_)" d="M43.605,43.553c0.17,0.471,1.128,0.121,0.957-0.348c-2.817-7.709-11.788-32.263-11.788-32.263
	l-0.956,0.346C31.818,11.289,40.778,35.818,43.605,43.553z"/>
<linearGradient id="SVGID_2_" gradientUnits="userSpaceOnUse" x1="32.0176" y1="7.8247" x2="30.1722" y2="8.4962">
	<stop  offset="0" style="stop-color:#4A575C"/>
	<stop  offset="0.1652" style="stop-color:#58676D"/>
	<stop  offset="0.3891" style="stop-color:#64767D"/>
	<stop  offset="0.6448" style="stop-color:#6C7E86"/>
	<stop  offset="1" style="stop-color:#6E8189"/>
	<a:midPointStop  offset="0" style="stop-color:#4A575C"/>
	<a:midPointStop  offset="0.2303" style="stop-color:#4A575C"/>
	<a:midPointStop  offset="1" style="stop-color:#6E8189"/>
</linearGradient>
<path fill="url(#SVGID_2_)" d="M31.395,12.221c0.569,1.944,3.125,1.016,2.306-0.836c-1.211-2.34-2.107-4.794-2.688-7.363
	c-0.569-1.943-3.123-1.018-2.306,0.835C29.915,7.198,30.813,9.653,31.395,12.221z"/>
<path fill="#302C3B" d="M35.478,10.713c2.66,0.262-1.263-10.292-5.849-7.513C35.408,2.662,33.733,10.542,35.478,10.713z
	 M35.445,11.171c-3.751-0.506-0.407-6.846-6.241-7.752C33.391-2.497,41.366,12.062,35.445,11.171z"/>
<path fill="#297124" d="M2.35,19.168c4.09,5.827,16.624,17.568,31.85,38.568c5.856,8.076,15.979,2.619,14.34-0.582
	C36.516,69.85,8.999,16.825,2.35,19.168z"/>
<radialGradient id="SVGID_3_" cx="22.8926" cy="36.3105" r="32.9954" fx="21.824" fy="36.6296" gradientTransform="matrix(0.6721 0.7427 -0.465 0.4177 24.0564 4.1432)" gradientUnits="userSpaceOnUse">
	<stop  offset="0" style="stop-color:#9BE022"/>
	<stop  offset="0.1844" style="stop-color:#98DC22"/>
	<stop  offset="0.3783" style="stop-color:#8ECF22"/>
	<stop  offset="0.5757" style="stop-color:#7DBA23"/>
	<stop  offset="0.7515" style="stop-color:#69A123"/>
	<stop  offset="0.8076" style="stop-color:#6EA723"/>
	<stop  offset="0.8833" style="stop-color:#7BB823"/>
	<stop  offset="0.9699" style="stop-color:#92D422"/>
	<stop  offset="1" style="stop-color:#9BE022"/>
	<a:midPointStop  offset="0" style="stop-color:#9BE022"/>
	<a:midPointStop  offset="0.697" style="stop-color:#9BE022"/>
	<a:midPointStop  offset="0.7515" style="stop-color:#69A123"/>
	<a:midPointStop  offset="0.6429" style="stop-color:#69A123"/>
	<a:midPointStop  offset="1" style="stop-color:#9BE022"/>
</radialGradient>
<path fill="url(#SVGID_3_)" d="M2.35,19.168c1.55,3.171,15.669,15.4,32.289,38.084c5.404,7.375,14.898,3.192,13.989,0.099
	c-0.494-1.68-3.888,0.064-7.861-4.449C23.322,33.089,8.313,18.615,7.567,17.254C5.781,14,0.621,15.632,2.35,19.168z"/>
<path fill="#297124" d="M13.043,17.191c4.781,4.429,18.25,12.53,35.91,28.398c6.793,6.103,14.792-0.711,12.711-3.262
	C53.357,55.979,18.539,13.824,13.043,17.191z"/>
<radialGradient id="SVGID_4_" cx="-11.0171" cy="7.0825" r="30.1779" fx="-11.9944" fy="7.3744" gradientTransform="matrix(0.8136 0.5857 -0.3666 0.5055 45.9786 31.5273)" gradientUnits="userSpaceOnUse">
	<stop  offset="0" style="stop-color:#9BE022"/>
	<stop  offset="0.1844" style="stop-color:#98DC22"/>
	<stop  offset="0.3783" style="stop-color:#8ECF22"/>
	<stop  offset="0.5757" style="stop-color:#7DBA23"/>
	<stop  offset="0.7515" style="stop-color:#69A123"/>
	<stop  offset="0.8076" style="stop-color:#6EA723"/>
	<stop  offset="0.8833" style="stop-color:#7BB823"/>
	<stop  offset="0.9699" style="stop-color:#92D422"/>
	<stop  offset="1" style="stop-color:#9BE022"/>
	<a:midPointStop  offset="0" style="stop-color:#9BE022"/>
	<a:midPointStop  offset="0.697" style="stop-color:#9BE022"/>
	<a:midPointStop  offset="0.7515" style="stop-color:#69A123"/>
	<a:midPointStop  offset="0.6429" style="stop-color:#69A123"/>
	<a:midPointStop  offset="1" style="stop-color:#9BE022"/>
</radialGradient>
<path fill="url(#SVGID_4_)" d="M13.043,17.191c1.996,2.539,16.978,10.775,36.211,27.883c6.252,5.563,13.937,0.008,12.527-2.586
	c-0.766-1.408-3.464,0.801-7.887-2.476C34.479,25.629,18.271,15.556,17.341,14.482C15.116,11.913,10.816,14.359,13.043,17.191z"/>
<polygon fill="#302C3B" points="12.188,62 11.965,59.564 13.238,59.787 "/>
<path fill="#302C3B" d="M17.011,59.488c-0.3,1.689-8.787,0.199-8.487-1.492C8.823,56.307,17.311,57.797,17.011,59.488z"/>
<linearGradient id="SVGID_5_" gradientUnits="userSpaceOnUse" x1="17.1768" y1="37.3887" x2="15.903" y2="37.1762">
	<stop  offset="0" style="stop-color:#0068A6"/>
	<stop  offset="0.0215" style="stop-color:#006DA9"/>
	<stop  offset="0.162" style="stop-color:#0088BA"/>
	<stop  offset="0.3154" style="stop-color:#009DC8"/>
	<stop  offset="0.4862" style="stop-color:#00ACD2"/>
	<stop  offset="0.6882" style="stop-color:#00B4D7"/>
	<stop  offset="1" style="stop-color:#00B7D9"/>
	<a:midPointStop  offset="0" style="stop-color:#0068A6"/>
	<a:midPointStop  offset="0.2121" style="stop-color:#0068A6"/>
	<a:midPointStop  offset="1" style="stop-color:#00B7D9"/>
</linearGradient>
<path fill="url(#SVGID_5_)" d="M13.443,58.625c-0.109,0.623-1.383,0.398-1.275-0.223c1.818-10.256,7.599-42.916,7.599-42.916
	l1.272,0.224C21.039,15.711,15.264,48.336,13.443,58.625z"/>
<linearGradient id="SVGID_6_" gradientUnits="userSpaceOnUse" x1="22.3257" y1="11.7998" x2="19.8134" y2="11.423">
	<stop  offset="0" style="stop-color:#4A575C"/>
	<stop  offset="0.1652" style="stop-color:#58676D"/>
	<stop  offset="0.3891" style="stop-color:#64767D"/>
	<stop  offset="0.6448" style="stop-color:#6C7E86"/>
	<stop  offset="1" style="stop-color:#6E8189"/>
	<a:midPointStop  offset="0" style="stop-color:#4A575C"/>
	<a:midPointStop  offset="0.2303" style="stop-color:#4A575C"/>
	<a:midPointStop  offset="1" style="stop-color:#6E8189"/>
</linearGradient>
<path fill="url(#SVGID_6_)" d="M21.774,16.784c-0.28,2.554-3.68,1.957-3.066-0.538c0.997-3.192,1.572-6.458,1.733-9.795
	c0.281-2.554,3.68-1.958,3.066,0.539C22.513,10.179,21.935,13.445,21.774,16.784z"/>
<path fill="#302C3B" d="M21.988,5.12C15.64,2.654,13.07,16.707,16.34,15.795C18.479,15.198,14.643,5.716,21.988,5.12z M22.566,5.301
	c-7.091,2.413-1.511,9.602-6.086,11.059C9.278,18.772,16.024-1.176,22.566,5.301z"/>
</svg>
