<?xml version="1.0" encoding="utf-8"?>
<!-- Generator: Adobe Illustrator 15.0.0, SVG Export Plug-In . SVG Version: 6.00 Build 0)  -->
<!DOCTYPE svg PUBLIC "-//W3C//DTD SVG 1.1//EN" "http://www.w3.org/Graphics/SVG/1.1/DTD/svg11.dtd" [
	<!ENTITY ns_flows "http://ns.adobe.com/Flows/1.0/">
	<!ENTITY ns_extend "http://ns.adobe.com/Extensibility/1.0/">
	<!ENTITY ns_ai "http://ns.adobe.com/AdobeIllustrator/10.0/">
	<!ENTITY ns_graphs "http://ns.adobe.com/Graphs/1.0/">
]>
<svg version="1.1" id="Layer_1" xmlns:x="&ns_extend;" xmlns:i="&ns_ai;" xmlns:graph="&ns_graphs;"
	 xmlns="http://www.w3.org/2000/svg" xmlns:xlink="http://www.w3.org/1999/xlink" xmlns:a="http://ns.adobe.com/AdobeSVGViewerExtensions/3.0/"
	 x="0px" y="0px" width="64px" height="64px" viewBox="0 0 64 64" enable-background="new 0 0 64 64" xml:space="preserve">
<radialGradient id="SVGID_1_" cx="-41.0718" cy="268.5684" r="16.1193" gradientTransform="matrix(0.7209 0.7209 -0.8331 0.8331 271.4814 -154.2945)" gradientUnits="userSpaceOnUse">
	<stop  offset="0" style="stop-color:#EA8800"/>
	<stop  offset="0.2288" style="stop-color:#E58401"/>
	<stop  offset="0.5141" style="stop-color:#D57A05"/>
	<stop  offset="0.8281" style="stop-color:#BC680C"/>
	<stop  offset="1" style="stop-color:#AB5C10"/>
	<a:midPointStop  offset="0" style="stop-color:#EA8800"/>
	<a:midPointStop  offset="0.6606" style="stop-color:#EA8800"/>
	<a:midPointStop  offset="1" style="stop-color:#AB5C10"/>
</radialGradient>
<path fill="url(#SVGID_1_)" d="M31.072,29.215c-1.676-1.675-3.553-3.121-6.538-2.89c-6.792,0.514-2.338,8.247-11.041,8.826
	c-3.11,0.205-6.064,0.888-8.201,3.028c-5.433,5.432-3.696,12.889,1.971,18.562c5.669,5.666,13.125,7.398,18.558,1.968
	c2.833-2.831,2.738-7.968,3.686-11.037c1.223-3.966,7.608-2.623,7.315-7.035c0.036-2.08-3.307,0.261-4.648-1.077
	C30.117,37.504,31.694,29.838,31.072,29.215L31.072,29.215z"/>
<linearGradient id="SVGID_2_" gradientUnits="userSpaceOnUse" x1="-54.4922" y1="271.0449" x2="-29.9673" y2="271.0449" gradientTransform="matrix(0.7071 0.7071 -0.7071 0.7071 241.5986 -117.9093)">
	<stop  offset="0" style="stop-color:#E6982D"/>
	<stop  offset="0.5235" style="stop-color:#E88F13;stop-opacity:0.4765"/>
	<stop  offset="1" style="stop-color:#EA8800;stop-opacity:0"/>
	<a:midPointStop  offset="0" style="stop-color:#E6982D"/>
	<a:midPointStop  offset="0.4519" style="stop-color:#E6982D"/>
	<a:midPointStop  offset="1" style="stop-color:#EA8800;stop-opacity:0"/>
</linearGradient>
<path fill="url(#SVGID_2_)" d="M32.798,42.242c-6.371-1.725-3.042-11.156-3.335-11.452c-1.533-1.529-2.799-2.319-4.777-2.236
	c-4.934,0.212-1.749,8.079-11.061,8.833c-3.241,0.26-5.332,0.944-6.757,2.37C1.34,45.286,6.314,52.603,8.841,55.128
	c2.523,2.524,9.84,7.5,15.368,1.972C28.61,52.703,24.027,45.057,32.798,42.242z"/>
<linearGradient id="SVGID_3_" gradientUnits="userSpaceOnUse" x1="250.4521" y1="549.7314" x2="283.0439" y2="549.7314" gradientTransform="matrix(-0.7071 0.7071 -0.7071 -0.7071 613.8146 227.6182)">
	<stop  offset="0" style="stop-color:#916958"/>
	<stop  offset="0.21" style="stop-color:#8B6454"/>
	<stop  offset="0.4866" style="stop-color:#7B5748"/>
	<stop  offset="0.799" style="stop-color:#5F4034"/>
	<stop  offset="1" style="stop-color:#4A2F24"/>
	<a:midPointStop  offset="0" style="stop-color:#916958"/>
	<a:midPointStop  offset="0.6485" style="stop-color:#916958"/>
	<a:midPointStop  offset="1" style="stop-color:#4A2F24"/>
</linearGradient>
<polygon fill="url(#SVGID_3_)" points="23.162,37.236 46.198,14.193 49.793,17.808 26.757,40.844 "/>
<radialGradient id="SVGID_4_" cx="-29.3599" cy="274.2607" r="1.5002" gradientTransform="matrix(0.7209 0.7209 -0.7209 0.7209 241.3594 -124.1702)" gradientUnits="userSpaceOnUse">
	<stop  offset="0" style="stop-color:#4E585E"/>
	<stop  offset="0.2848" style="stop-color:#4A5259"/>
	<stop  offset="0.6799" style="stop-color:#3D404B"/>
	<stop  offset="1" style="stop-color:#302C3B"/>
	<a:midPointStop  offset="0" style="stop-color:#4E585E"/>
	<a:midPointStop  offset="0.6364" style="stop-color:#4E585E"/>
	<a:midPointStop  offset="1" style="stop-color:#302C3B"/>
</radialGradient>
<path fill="url(#SVGID_4_)" d="M23.384,53.909c-1.443,1.442-3.604-0.718-2.164-2.163C22.663,50.307,24.823,52.467,23.384,53.909z"/>
<radialGradient id="SVGID_5_" cx="-29.4536" cy="279.1934" r="1.5004" gradientTransform="matrix(0.7209 0.7209 -0.7209 0.7209 241.3594 -124.1702)" gradientUnits="userSpaceOnUse">
	<stop  offset="0" style="stop-color:#4E585E"/>
	<stop  offset="0.2848" style="stop-color:#4A5259"/>
	<stop  offset="0.6799" style="stop-color:#3D404B"/>
	<stop  offset="1" style="stop-color:#302C3B"/>
	<a:midPointStop  offset="0" style="stop-color:#4E585E"/>
	<a:midPointStop  offset="0.6364" style="stop-color:#4E585E"/>
	<a:midPointStop  offset="1" style="stop-color:#302C3B"/>
</radialGradient>
<path fill="url(#SVGID_5_)" d="M19.826,57.467c-1.44,1.441-3.604-0.721-2.162-2.163C19.108,53.862,21.27,56.025,19.826,57.467z"/>
<path fill="#4E5E67" d="M55.144,16.72c-0.404-0.403-0.847-0.252-1.293,0.111l-0.964-0.96l-0.581,0.58l0.961,0.962
	c-0.365,0.449-0.518,0.895-0.114,1.297C53.649,19.206,55.642,17.215,55.144,16.72z"/>
<path fill="#4E5E67" d="M58.044,13.818c-0.402-0.403-0.847-0.252-1.294,0.112l-0.96-0.963l-0.584,0.584l0.962,0.961
	c-0.366,0.449-0.517,0.893-0.113,1.296C56.553,16.307,58.541,14.314,58.044,13.818z"/>
<path fill="#4E5E67" d="M60.948,10.918c-0.405-0.404-0.85-0.253-1.297,0.111l-0.961-0.962l-0.584,0.587l0.961,0.959
	c-0.364,0.447-0.515,0.892-0.11,1.296C59.452,13.403,61.442,11.413,60.948,10.918z"/>
<path fill="#4E5E67" d="M47.543,11.695l0.586-0.586l-0.961-0.961c0.364-0.448,0.514-0.892,0.11-1.293
	c-0.495-0.495-2.484,1.492-1.989,1.988c0.404,0.405,0.849,0.254,1.295-0.111L47.543,11.695z"/>
<path fill="#4E5E67" d="M51.029,8.212l-0.962-0.963c0.366-0.447,0.516-0.889,0.112-1.295c-0.497-0.494-2.487,1.492-1.99,1.989
	c0.405,0.405,0.85,0.252,1.297-0.114l0.961,0.963L51.029,8.212z"/>
<path fill="#4E5E67" d="M53.349,5.896l0.582-0.587l-0.963-0.96c0.366-0.448,0.519-0.892,0.114-1.297
	c-0.496-0.495-2.486,1.494-1.991,1.991c0.405,0.404,0.848,0.253,1.294-0.111L53.349,5.896z"/>
<path fill="#302C3B" d="M59.381,4.621c-5.529-5.531-4.227-1.416-9.749,4.104c-3.247,3.25-4.355,3.921-3.691,5.794
	c0.329,0.933,2.605,3.207,3.536,3.536c1.874,0.664,2.548-0.438,5.795-3.69C60.794,8.842,64.908,10.145,59.381,4.621z"/>
<linearGradient id="SVGID_6_" gradientUnits="userSpaceOnUse" x1="-45.8003" y1="265.6592" x2="-38.6128" y2="265.6592" gradientTransform="matrix(0.7071 0.7071 -0.7071 0.7071 241.5986 -117.9093)">
	<stop  offset="0" style="stop-color:#4E585E"/>
	<stop  offset="0.2848" style="stop-color:#4A5259"/>
	<stop  offset="0.6799" style="stop-color:#3D404B"/>
	<stop  offset="1" style="stop-color:#302C3B"/>
	<a:midPointStop  offset="0" style="stop-color:#4E585E"/>
	<a:midPointStop  offset="0.6364" style="stop-color:#4E585E"/>
	<a:midPointStop  offset="1" style="stop-color:#302C3B"/>
</linearGradient>
<polygon fill="url(#SVGID_6_)" points="25.201,43.879 20.118,38.8 22.611,36.31 27.692,41.391 "/>
<linearGradient id="SVGID_7_" gradientUnits="userSpaceOnUse" x1="-45.7983" y1="272.5605" x2="-38.6113" y2="272.5605" gradientTransform="matrix(0.7071 0.7071 -0.7071 0.7071 241.5986 -117.9093)">
	<stop  offset="0" style="stop-color:#4E585E"/>
	<stop  offset="0.2848" style="stop-color:#4A5259"/>
	<stop  offset="0.6799" style="stop-color:#3D404B"/>
	<stop  offset="1" style="stop-color:#302C3B"/>
	<a:midPointStop  offset="0" style="stop-color:#4E585E"/>
	<a:midPointStop  offset="0.6364" style="stop-color:#4E585E"/>
	<a:midPointStop  offset="1" style="stop-color:#302C3B"/>
</linearGradient>
<polygon fill="url(#SVGID_7_)" points="20.319,48.761 15.241,43.68 17.732,41.189 22.811,46.273 "/>
<linearGradient id="SVGID_8_" gradientUnits="userSpaceOnUse" x1="-42.1372" y1="279.4648" x2="-42.1372" y2="277.457" gradientTransform="matrix(0.7071 0.7071 -0.7071 0.7071 241.5986 -117.9093)">
	<stop  offset="0" style="stop-color:#302C3B"/>
	<stop  offset="0.3201" style="stop-color:#3D404B"/>
	<stop  offset="0.7152" style="stop-color:#4A5259"/>
	<stop  offset="1" style="stop-color:#4E585E"/>
	<a:midPointStop  offset="0" style="stop-color:#302C3B"/>
	<a:midPointStop  offset="0.3636" style="stop-color:#302C3B"/>
	<a:midPointStop  offset="1" style="stop-color:#4E585E"/>
</linearGradient>
<polygon fill="url(#SVGID_8_)" points="16.161,51.873 12.226,47.94 13.644,46.519 17.579,50.453 "/>
<rect x="32.02" y="29.216" transform="matrix(0.707 0.7072 -0.7072 0.707 30.9259 -15.8722)" fill="#E5BC5E" width="5.195" height="0.336"/>
<rect x="42.324" y="18.907" transform="matrix(0.7071 0.7071 -0.7071 0.7071 26.6449 -26.177)" fill="#E5BC5E" width="5.194" height="0.336"/>
<rect x="44.595" y="16.159" transform="matrix(0.7071 0.7071 -0.7071 0.7071 25.6184 -28.655)" fill="#E5BC5E" width="5.607" height="0.876"/>
<rect x="38.889" y="22.344" transform="matrix(0.7071 0.7071 -0.7071 0.7071 28.0691 -22.7414)" fill="#E5BC5E" width="5.194" height="0.336"/>
<rect x="35.454" y="25.779" transform="matrix(0.7071 0.7071 -0.7071 0.7071 29.4928 -19.3064)" fill="#E5BC5E" width="5.194" height="0.337"/>
<rect x="28.585" y="32.653" transform="matrix(0.7071 0.7071 -0.7071 0.7071 32.3405 -12.4362)" fill="#E5BC5E" width="5.194" height="0.336"/>
<rect x="25.15" y="36.088" transform="matrix(0.7071 0.7071 -0.7071 0.7071 33.764 -9.0009)" fill="#E5BC5E" width="5.194" height="0.337"/>
<path fill="#6E8189" d="M18.229,52.525c-1.198,1.202-3.001-0.6-1.802-1.803C17.63,49.522,19.432,51.326,18.229,52.525z"/>
<path fill="#4E5E67" d="M17.869,52.165c-0.719,0.722-1.801-0.359-1.081-1.082C17.51,50.364,18.591,51.445,17.869,52.165z"/>
<path fill="#6E8189" d="M13.375,47.671c-1.199,1.202-3.001-0.601-1.802-1.803C12.776,44.668,14.578,46.471,13.375,47.671z"/>
<path fill="#4E5E67" d="M13.013,47.311c-0.719,0.721-1.8-0.36-1.08-1.082C12.654,45.51,13.735,46.591,13.013,47.311z"/>
<polygon fill="#99A8AE" points="46.245,15.409 14.213,47.444 14.392,47.623 46.425,15.589 54.827,6.352 54.646,6.172 "/>
<polygon fill="#99A8AE" points="46.967,16.131 14.934,48.165 15.114,48.345 47.147,16.312 51.75,9.514 51.569,9.334 "/>
<polygon fill="#99A8AE" points="47.688,16.852 15.655,48.886 15.834,49.065 47.868,17.032 51.675,15.026 51.495,14.847 "/>
<polygon fill="#99A8AE" points="57.588,9.114 48.408,17.572 16.375,49.606 16.556,49.786 48.589,17.753 57.77,9.293 "/>
<path fill="#6E8189" d="M58.595,10.556c-0.961,0.96-2.404-0.481-1.442-1.44C58.111,8.15,59.558,9.596,58.595,10.556z"/>
<path fill="#4E5E67" d="M58.306,10.267c-0.575,0.577-1.441-0.286-0.864-0.864C58.016,8.824,58.884,9.692,58.306,10.267z"/>
<path fill="#6E8189" d="M55.692,13.457c-0.96,0.959-2.403-0.481-1.442-1.442C55.211,11.052,56.656,12.496,55.692,13.457z"/>
<path fill="#4E5E67" d="M55.403,13.168c-0.575,0.575-1.441-0.288-0.864-0.865C55.115,11.726,55.982,12.593,55.403,13.168z"/>
<path fill="#6E8189" d="M52.791,16.357c-0.96,0.96-2.403-0.48-1.442-1.441C52.31,13.952,53.755,15.397,52.791,16.357z"/>
<path fill="#4E5E67" d="M52.502,16.069c-0.575,0.575-1.441-0.288-0.863-0.865C52.214,14.627,53.081,15.494,52.502,16.069z"/>
<path fill="#6E8189" d="M49.096,12.661c-0.961,0.961-2.403-0.479-1.442-1.44C48.613,10.257,50.059,11.701,49.096,12.661z"/>
<path fill="#4E5E67" d="M48.807,12.372c-0.575,0.577-1.441-0.286-0.864-0.864C48.517,10.93,49.384,11.798,48.807,12.372z"/>
<path fill="#6E8189" d="M51.995,9.759c-0.96,0.96-2.404-0.479-1.442-1.441C51.514,7.354,52.958,8.798,51.995,9.759z"/>
<path fill="#4E5E67" d="M51.706,9.471c-0.575,0.575-1.441-0.287-0.864-0.864C51.417,8.027,52.284,8.895,51.706,9.471z"/>
<path fill="#6E8189" d="M54.896,6.857c-0.959,0.96-2.403-0.479-1.441-1.441C54.415,4.452,55.859,5.897,54.896,6.857z"/>
<path fill="#4E5E67" d="M54.607,6.569c-0.576,0.575-1.442-0.287-0.864-0.864C54.318,5.127,55.186,5.993,54.607,6.569z"/>
</svg>
