<?xml version="1.0" encoding="utf-8"?>
<!-- Generator: Adobe Illustrator 15.0.0, SVG Export Plug-In . SVG Version: 6.00 Build 0)  -->
<!DOCTYPE svg PUBLIC "-//W3C//DTD SVG 1.1//EN" "http://www.w3.org/Graphics/SVG/1.1/DTD/svg11.dtd" [
	<!ENTITY ns_flows "http://ns.adobe.com/Flows/1.0/">
	<!ENTITY ns_extend "http://ns.adobe.com/Extensibility/1.0/">
	<!ENTITY ns_ai "http://ns.adobe.com/AdobeIllustrator/10.0/">
	<!ENTITY ns_graphs "http://ns.adobe.com/Graphs/1.0/">
]>
<svg version="1.1" id="Layer_1" xmlns:x="&ns_extend;" xmlns:i="&ns_ai;" xmlns:graph="&ns_graphs;"
	 xmlns="http://www.w3.org/2000/svg" xmlns:xlink="http://www.w3.org/1999/xlink" xmlns:a="http://ns.adobe.com/AdobeSVGViewerExtensions/3.0/"
	 x="0px" y="0px" width="64px" height="64px" viewBox="0 0 64 64" enable-background="new 0 0 64 64" xml:space="preserve">
<linearGradient id="SVGID_1_" gradientUnits="userSpaceOnUse" x1="69.5215" y1="-136.3101" x2="105.1248" y2="-132.5954" gradientTransform="matrix(1 0 0 -1 -56 -80)">
	<stop  offset="0" style="stop-color:#00D6B3"/>
	<stop  offset="1" style="stop-color:#27C89C"/>
	<a:midPointStop  offset="0" style="stop-color:#00D6B3"/>
	<a:midPointStop  offset="0.5" style="stop-color:#00D6B3"/>
	<a:midPointStop  offset="1" style="stop-color:#27C89C"/>
</linearGradient>
<path fill="url(#SVGID_1_)" d="M59.484,51.283c-0.125-0.59,1.908-1.492,0.736-2.367c-12.521-4.449-43.479-0.775-57.967,7.496
	c-0.412,0.236-0.256,0.953,0.004,1.053c6.645,2.596,15.418,3.621,24.252,3.529c14.731-0.15,29.641-3.404,35.176-7.666
	C62.945,52.361,60.055,52.113,59.484,51.283z"/>
<radialGradient id="SVGID_2_" cx="61.0127" cy="-1576.4521" r="30.2138" gradientTransform="matrix(0.9996 -0.0698 -0.0147 -0.2105 -52.2683 -274.2069)" gradientUnits="userSpaceOnUse">
	<stop  offset="0.6319" style="stop-color:#FFFFFF;stop-opacity:0.3"/>
	<stop  offset="0.7129" style="stop-color:#E5E5E6;stop-opacity:0.328"/>
	<stop  offset="0.8593" style="stop-color:#A3A1A7;stop-opacity:0.3882"/>
	<stop  offset="1" style="stop-color:#393644;stop-opacity:0.4752"/>
	<a:midPointStop  offset="0.6319" style="stop-color:#FFFFFF;stop-opacity:0.3"/>
	<a:midPointStop  offset="0.5" style="stop-color:#FFFFFF;stop-opacity:0.3"/>
	<a:midPointStop  offset="0.7129" style="stop-color:#E5E5E6;stop-opacity:0.328"/>
	<a:midPointStop  offset="0.5" style="stop-color:#E5E5E6;stop-opacity:0.328"/>
	<a:midPointStop  offset="0.8593" style="stop-color:#A3A1A7;stop-opacity:0.3882"/>
	<a:midPointStop  offset="0.5" style="stop-color:#A3A1A7;stop-opacity:0.3882"/>
	<a:midPointStop  offset="1" style="stop-color:#393644;stop-opacity:0.4752"/>
</radialGradient>
<path opacity="0.25" fill="url(#SVGID_2_)" enable-background="new    " d="M59.484,51.283c-0.125-0.59,1.908-1.492,0.736-2.367
	c-12.521-4.449-43.479-0.775-57.967,7.496c-0.412,0.236-0.256,0.953,0.004,1.053c6.645,2.596,15.418,3.621,24.252,3.529
	c14.731-0.15,29.641-3.404,35.176-7.666C62.945,52.361,60.055,52.113,59.484,51.283z"/>
<path id="Shape_2_" fill="#FFFFFF" d="M13.333,55.467c-0.375-0.777,0.449-1.576,1.861-1.787c1.396-0.205,2.846,0.254,3.221,1.031
	c0.377,0.779-0.463,1.578-1.859,1.787C15.144,56.707,13.712,56.244,13.333,55.467z M12.49,55.592
	c0.498,1.037,2.416,1.654,4.291,1.375c1.863-0.275,2.982-1.344,2.482-2.381c-0.502-1.037-2.434-1.65-4.295-1.375
	C13.089,53.488,11.986,54.557,12.49,55.592z"/>
<path id="Combined-Shape_2_" fill="#FFFFFF" d="M16.033,54.664c0.029,0.061-0.012,0.102-0.127,0.119l-0.336,0.051
	c-0.113,0.016-0.186-0.008-0.217-0.068l-0.297-0.609c-0.027-0.063,0.014-0.104,0.129-0.121l0.166-0.025
	c1.074-0.158,2.186,0.195,2.473,0.791c0.143,0.291,0.059,0.596-0.215,0.85c-0.047,0.055-0.129,0.066-0.236,0.035l-0.447-0.146
	c-0.107-0.033-0.129-0.076-0.064-0.133c0.141-0.143,0.193-0.314,0.113-0.48c-0.131-0.27-0.564-0.453-1.041-0.467L16.033,54.664z"/>
<path fill="#FFCC66" d="M55.213,22.787c-0.229-0.719-2.551-0.525-5.123,0c-2.424,0.49-4.305-0.693-6.467-0.654l-5.5-2.01
	c-0.354,1.203-0.422,2.842-0.793,4.037c2.08,0.652,4.064,0.717,5.285,0.955c2.766,0.629,7.67-0.486,7.67-0.486
	c4.16,0.729,4.488,0.625,2.793-0.217c-0.033-0.342,1.215-0.352,2.625-0.438C58.492,23.803,55.213,22.787,55.213,22.787z"/>
<path fill="#FFCC66" d="M5.238,29.838c-0.111-0.744,2.066-1.551,4.615-2.164c2.404-0.58,3.57-2.439,5.537-3.322l3.963-3.91
	c0.854,0.938,0.666,2.861,1.535,3.781c-1.584,1.467-2.617,1.586-3.609,2.314c-2.217,1.736-6.783,2.881-6.783,2.881
	C7.07,31.83,6.73,31.875,7.884,30.4c-0.123-0.322-1.254,0.197-2.563,0.717C2.732,32.139,5.238,29.838,5.238,29.838z"/>
<path fill="#FF7A00" d="M40.422,34.271c-0.432-0.297-4.637-2.529-7.944-3.07c-0.357-0.957,2.422-4.016,2.891-7.59
	c0,0,1.229,0.246,1.959,0.551c0,0,1.264-2.156,0.822-4.037c-1.021-0.703-2.6-2.07-5.006-2.561c-1-0.203-4.389-0.758-5.489-0.748
	c-3.043,0.027-5.799,0.486-8.303,3.625c0.328,2.127,1.535,3.781,1.535,3.781s1.82-1.246,2.816-1.547
	c1.623,7.969-6.326,9.947,0.82,17.621c5.068-1.355,5.953-0.83,5.068-3.248c2.096,0.512,2.129,1.211,7.43,2.146
	C38.484,39.453,41.408,34.949,40.422,34.271z"/>
<path fill="#FFA959" d="M23.705,22.676c1.34,7.707-5.795,9.4,1.537,16.969c0.236-0.064,0.324-0.625,0.543-0.682
	C19.251,31.615,26.082,29.289,23.705,22.676z"/>
<path fill="#FFCC66" d="M42.822,38.412c0.123-1.549,0.195-3.035-2.4-4.143c-2.277-0.254-3.957,3.678-3.398,4.926
	c0.498,0.229,1.762,0.619,1.762,0.619c-0.359,2.912,1.859,4.891,2.326,8.297c0.244,1.793-0.73,2.92,1.701,3.338
	c1.668,0.287,3.008,2.111,5.691,0.262c1.301-0.896-3.961-1.24-4.953-3.594C43.156,47.182,42.709,39.809,42.822,38.412z"/>
<path fill="#FFCC66" d="M29.47,42.615c0.996-1.25,1.201-2.99,0.398-4.625c-2.27-0.707-5.039,0.336-5.342,2.307
	c0.33,0.482,0.588,0.939,0.588,0.939c-1.982,2.271-0.828,4.936-2.332,8.109c-0.793,1.67-2.334,2.063-0.324,3.836
	c1.375,1.217,1.398,3.791,4.924,3.779c1.707-0.008-2.947-3.363-2.529-5.947C25.021,49.986,28.576,43.736,29.47,42.615z"/>
<path fill="#FFA959" d="M38.238,20.73c-1.02-0.699-2.139-2.854-5.577-3.619c-0.996-0.223-3.898-0.563-4.996-0.555
	c-3.043,0.029-5.746,1.053-8.25,4.191c0,0,0.008,0.436,0.201,0.82c1.533-1.861,3.111-3.084,4.811-3.693
	c1.01,0.396,4.393,1.992,5.936,6.01c2.008-3.723,4.188-4.51,5.067-4.684c1.172,0.871,2.125,1.945,2.768,2.389
	C38.195,21.59,38.342,21.176,38.238,20.73z"/>
<path fill="#E6B045" d="M27.56,17.369c0,2.175,5.473,2.175,5.473,0c0-0.74,0-2.406,0-2.406H27.56
	C27.56,14.963,27.56,16.629,27.56,17.369z"/>
<path fill="#473834" d="M35.5,14.214c0.37,0.244,0.797,0.426,1.295,0.52c-0.885-2.014,0.449-6.237-2.285-9.341
	c-3.855,0.115-4.388,12.56,0.986,10.904c-0.342-0.147-0.557-0.45-0.683-0.83c0.414,0.118,0.897,0.122,1.462-0.051
	C35.826,15.222,35.598,14.766,35.5,14.214z"/>
<path fill="#473834" d="M25.823,5.393c-2.734,3.104-1.14,7.327-2.025,9.341c0.498-0.094,0.926-0.275,1.295-0.52
	c-0.098,0.552-0.327,1.008-0.776,1.202c0.563,0.173,1.048,0.169,1.462,0.051c-0.125,0.38-0.34,0.683-0.682,0.83
	C30.47,17.952,29.678,5.508,25.823,5.393z"/>
<path id="Path_634_" fill="#FFCC66" d="M35.92,9.633c-0.87,0.105-1.498,3.016-0.951,3.783c0.076,0.107,0.525,0.278,0.857-0.399
	c0.185-0.375,0.717-0.688,0.881-1.463C36.918,10.563,36.787,9.527,35.92,9.633z"/>
<path id="Path_633_" fill="#FFCC66" d="M24.673,9.633c0.871,0.105,1.5,3.016,0.952,3.783c-0.076,0.107-0.526,0.278-0.857-0.399
	c-0.185-0.375-0.716-0.688-0.881-1.463C23.675,10.563,23.807,9.527,24.673,9.633z"/>
<path id="Path_632_" fill="#DB9D3A" d="M35.896,10.19c-0.227,0.071-0.475,0.417-0.609,0.991c0.795-0.171,0.596,1.149-0.094,1.175
	c0.006,0.133,0.016,0.27,0.031,0.413c0.332-0.482,0.67-0.289,1.005-1.006C36.531,11.117,36.459,10.015,35.896,10.19z"/>
<path id="Path_631_" fill="#DB9D3A" d="M25.306,11.18c-0.135-0.572-0.382-0.918-0.609-0.989c-0.563-0.176-0.635,0.927-0.333,1.573
	c0.334,0.717,0.672,0.523,1.005,1.006c0.016-0.145,0.025-0.281,0.031-0.414C24.717,12.323,24.521,11.02,25.306,11.18z"/>
<path fill="#FFCC66" d="M30.296,4.038c-3.772,0-5.589,3.066-5.362,7.009c0.047,0.793,0.268,1.937,0.541,2.916
	c0.565,2.036,3.55,4.086,4.822,4.086s4.256-2.05,4.823-4.086c0.272-0.979,0.493-2.123,0.54-2.916
	C35.886,7.104,34.069,4.038,30.296,4.038z"/>
<path id="Path_630_" fill="#966F42" d="M34.395,9.342c-0.862-0.455-2.514-0.479-3.128-0.16c-0.132,0.062-0.045,0.493,0.065,0.452
	c0.857-0.338,2.241-0.346,3.042,0.029C34.481,9.712,34.525,9.405,34.395,9.342z"/>
<path id="Path_629_" fill="#966F42" d="M26.198,9.342c0.863-0.455,2.512-0.479,3.128-0.16c0.132,0.062,0.045,0.493-0.065,0.452
	c-0.859-0.338-2.239-0.346-3.042,0.029C26.112,9.712,26.068,9.405,26.198,9.342z"/>
<path id="Path_628_" fill="#DB9D3A" d="M31.314,13.298c-0.107-0.075-0.359,0.04-1.018,0.04c-0.657,0-0.91-0.115-1.018-0.04
	c-0.129,0.091,0.076,0.5,1.018,0.5S31.444,13.389,31.314,13.298z"/>
<path id="Path_627_" fill="#DB9D3A" d="M30.296,14.85c-0.849-0.249-2.105,0.118-2.105,0.118c0.479,0.521,0.83,1.196,2.105,1.196
	c1.461,0,1.711-0.768,2.105-1.196C32.402,14.968,31.144,14.6,30.296,14.85z"/>
<path id="Path_626_" fill="#FFFFFF" d="M28.507,15.056c0.889,0.745,2.685,0.75,3.579,0C31.138,15.097,29.46,15.097,28.507,15.056z"
	/>
<path id="Path_625_" fill="#FFFFFF" d="M29.457,10.896c0.033,0.25-0.137,0.545-0.605,0.767c-0.299,0.141-0.918,0.307-1.733-0.036
	c-0.365-0.153-0.721-0.633-0.689-0.897C26.871,9.897,29.044,9.776,29.457,10.896z"/>
<linearGradient id="Oval_1_" gradientUnits="userSpaceOnUse" x1="-424.1636" y1="480.4785" x2="-424.1636" y2="480.7383" gradientTransform="matrix(6.5701 0 0 -6.5701 2814.7805 3168.5281)">
	<stop  offset="0" style="stop-color:#A6694A"/>
	<stop  offset="1" style="stop-color:#4F2A1E"/>
	<a:midPointStop  offset="0" style="stop-color:#A6694A"/>
	<a:midPointStop  offset="0.5" style="stop-color:#A6694A"/>
	<a:midPointStop  offset="1" style="stop-color:#4F2A1E"/>
</linearGradient>
<circle id="Oval_82_" fill="url(#Oval_1_)" cx="27.982" cy="10.879" r="0.853"/>
<path id="Path_624_" fill="#1A1626" d="M27.556,10.863c0,0.59,0.854,0.59,0.854,0C28.41,10.316,27.556,10.316,27.556,10.863z"/>
<path id="Path_623_" fill="#AB968C" d="M27.426,10.625c0,0.247,0.358,0.247,0.358,0C27.784,10.396,27.426,10.396,27.426,10.625z"/>
<path id="Path_622_" fill="#DB9D3A" d="M29.46,10.929c-0.346-1.112-2.709-0.948-3.032-0.2C26.548,9.771,29.166,9.519,29.46,10.929z"
	/>
<path id="Path_621_" fill="#FFFFFF" d="M31.136,10.896c-0.033,0.25,0.137,0.545,0.605,0.767c0.299,0.141,0.918,0.307,1.733-0.036
	c0.366-0.153,0.722-0.633,0.689-0.897C33.724,9.897,31.548,9.776,31.136,10.896z"/>
<linearGradient id="Oval_2_" gradientUnits="userSpaceOnUse" x1="-426.1606" y1="480.4785" x2="-426.1606" y2="480.7383" gradientTransform="matrix(6.5701 0 0 -6.5701 2832.511 3168.5281)">
	<stop  offset="0" style="stop-color:#A6694A"/>
	<stop  offset="1" style="stop-color:#4F2A1E"/>
	<a:midPointStop  offset="0" style="stop-color:#A6694A"/>
	<a:midPointStop  offset="0.5" style="stop-color:#A6694A"/>
	<a:midPointStop  offset="1" style="stop-color:#4F2A1E"/>
</linearGradient>
<circle id="Oval_81_" fill="url(#Oval_2_)" cx="32.591" cy="10.879" r="0.853"/>
<path id="Path_620_" fill="#1A1626" d="M32.165,10.863c0,0.59,0.855,0.59,0.855,0C33.02,10.316,32.165,10.316,32.165,10.863z"/>
<path id="Path_619_" fill="#AB968C" d="M32.035,10.625c0,0.247,0.357,0.247,0.357,0C32.392,10.396,32.035,10.396,32.035,10.625z"/>
<path id="Path_618_" fill="#DB9D3A" d="M31.132,10.929c0.346-1.112,2.708-0.952,3.032-0.2C34.045,9.771,31.427,9.519,31.132,10.929z
	"/>
<linearGradient id="SVGID_3_" gradientUnits="userSpaceOnUse" x1="30.2407" y1="11.8301" x2="30.2407" y2="3">
	<stop  offset="0" style="stop-color:#473834"/>
	<stop  offset="0.2717" style="stop-color:#594640"/>
	<stop  offset="0.7226" style="stop-color:#715950"/>
	<stop  offset="1" style="stop-color:#7A6056"/>
	<a:midPointStop  offset="0" style="stop-color:#473834"/>
	<a:midPointStop  offset="0.4" style="stop-color:#473834"/>
	<a:midPointStop  offset="1" style="stop-color:#7A6056"/>
</linearGradient>
<path fill="url(#SVGID_3_)" d="M30.296,3c-2.295,0-3.441,1.038-3.674,1.53c-2.775,0.633-3.667,5.307-1.59,7.3
	c0.258-2.124,0.506-3.489,1.921-4.927c0.826,1.104,2.54,1.725,4.074,1.725c-0.727-0.526-1.223-1.043-1.611-1.524
	c2.563,1.174,5.434,1.926,6.147,4.727C38.027,7.911,35.979,3,30.296,3z"/>
<path fill="#473834" d="M26.623,4.529c-0.035,1.956,0.755,3.42,4.404,4.098C28.411,8.804,25.726,7.223,26.623,4.529z"/>
<path fill="#473834" d="M26.852,6.778c-0.953,0.939-2.022,2.566-1.819,5.051c0.189-2.053,1.133-3.744,1.987-4.84
	C26.959,6.923,26.903,6.853,26.852,6.778z"/>
<path fill="#473834" d="M28.486,6.158c1.913,1.827,6.616,1.708,7.076,5.671C34.334,7.975,30.175,8.839,28.486,6.158z"/>
</svg>
