<?xml version="1.0" encoding="utf-8"?>
<!-- Generator: Adobe Illustrator 15.0.0, SVG Export Plug-In . SVG Version: 6.00 Build 0)  -->
<!DOCTYPE svg PUBLIC "-//W3C//DTD SVG 1.1//EN" "http://www.w3.org/Graphics/SVG/1.1/DTD/svg11.dtd" [
	<!ENTITY ns_flows "http://ns.adobe.com/Flows/1.0/">
	<!ENTITY ns_extend "http://ns.adobe.com/Extensibility/1.0/">
	<!ENTITY ns_ai "http://ns.adobe.com/AdobeIllustrator/10.0/">
	<!ENTITY ns_graphs "http://ns.adobe.com/Graphs/1.0/">
]>
<svg version="1.1" id="Layer_1" xmlns:x="&ns_extend;" xmlns:i="&ns_ai;" xmlns:graph="&ns_graphs;"
	 xmlns="http://www.w3.org/2000/svg" xmlns:xlink="http://www.w3.org/1999/xlink" xmlns:a="http://ns.adobe.com/AdobeSVGViewerExtensions/3.0/"
	 x="0px" y="0px" width="64px" height="64px" viewBox="0 0 64 64" enable-background="new 0 0 64 64" xml:space="preserve">
<radialGradient id="SVGID_1_" cx="23.9561" cy="16.9399" r="41.8869" gradientTransform="matrix(0.7071 -0.7071 0.4753 0.4753 6.1296 33.0539)" gradientUnits="userSpaceOnUse">
	<stop  offset="0" style="stop-color:#FFAF36"/>
	<stop  offset="0.2563" style="stop-color:#FCAD36"/>
	<stop  offset="0.4378" style="stop-color:#F3A735"/>
	<stop  offset="0.5961" style="stop-color:#E39D34"/>
	<stop  offset="0.7411" style="stop-color:#CD8F32"/>
	<stop  offset="0.8759" style="stop-color:#B17C2F"/>
	<stop  offset="0.9394" style="stop-color:#A1722E"/>
	<a:midPointStop  offset="0" style="stop-color:#FFAF36"/>
	<a:midPointStop  offset="0.7727" style="stop-color:#FFAF36"/>
	<a:midPointStop  offset="0.9394" style="stop-color:#A1722E"/>
</radialGradient>
<path fill="url(#SVGID_1_)" d="M59.332,4.664c-3.856-3.861-29.562-5.672-45.13,10.062C-1.215,30.307,0.908,55.199,4.856,59.146
	c3.942,3.945,28.835,6.069,44.417-9.347C65.006,34.229,63.201,8.526,59.332,4.664z"/>
<path fill="#AB6E13" d="M4.856,59.146C3.647,41.251,40.917,3.245,59.33,4.663C42.133,5.679,5.758,43.516,4.856,59.146z"/>
<path fill="#1A1626" d="M23.732,21.473c0.936,0.935-1.169,3.04-2.104,2.104C20.692,22.642,22.798,20.537,23.732,21.473z"/>
<path fill="#1A1626" d="M29.547,27.287c0.936,0.936-1.169,3.04-2.104,2.104C26.507,28.457,28.611,26.353,29.547,27.287z"/>
<path fill="#785000" d="M21.776,23.208c2.115,2.116,3.922,3.92,6.033,6.037c0.323,0.32,1.908-1.265,1.586-1.587
	c-2.114-2.115-3.92-3.92-6.033-6.036C23.043,21.302,21.456,22.887,21.776,23.208L21.776,23.208z"/>
<path fill="#1A1626" d="M28.931,16.976c0.936,0.936-1.169,3.04-2.104,2.104C25.892,18.145,27.995,16.041,28.931,16.976z"/>
<path fill="#1A1626" d="M34.569,22.615c0.936,0.936-1.168,3.04-2.104,2.104C31.53,23.784,33.635,21.68,34.569,22.615z"/>
<path fill="#785000" d="M26.974,18.71c2.117,2.115,3.748,3.745,5.859,5.861c0.322,0.321,1.908-1.264,1.586-1.586
	c-2.113-2.116-3.745-3.746-5.857-5.861C28.241,16.804,26.654,18.39,26.974,18.71L26.974,18.71z"/>
<path fill="#1A1626" d="M19.236,26.67c0.935,0.936-1.169,3.04-2.104,2.104C16.196,27.84,18.301,25.735,19.236,26.67z"/>
<path fill="#1A1626" d="M24.875,32.31c0.937,0.936-1.169,3.04-2.104,2.104C21.836,33.479,23.94,31.375,24.875,32.31z"/>
<path fill="#785000" d="M17.28,28.405c2.117,2.114,3.747,3.745,5.859,5.859c0.322,0.322,1.906-1.264,1.585-1.585
	c-2.113-2.116-3.745-3.745-5.858-5.861C18.548,26.5,16.959,28.084,17.28,28.405L17.28,28.405z"/>
<path fill="#1A1626" d="M15.091,32.219c0.936,0.935-1.17,3.04-2.105,2.104C12.051,33.388,14.155,31.284,15.091,32.219z"/>
<path fill="#1A1626" d="M20.203,37.333c0.936,0.936-1.169,3.039-2.104,2.104C17.164,38.501,19.269,36.397,20.203,37.333z"/>
<path fill="#785000" d="M13.134,33.954c2.117,2.115,3.222,3.219,5.333,5.334c0.322,0.321,1.907-1.265,1.585-1.586
	c-2.113-2.115-3.219-3.219-5.331-5.334C14.401,32.048,12.813,33.634,13.134,33.954L13.134,33.954z"/>
<path fill="#1A1626" d="M34.479,12.83c0.936,0.935-1.17,3.04-2.104,2.104C31.439,13.999,33.544,11.895,34.479,12.83z"/>
<path fill="#1A1626" d="M39.592,17.943c0.937,0.936-1.169,3.041-2.104,2.104C36.553,19.112,38.657,17.008,39.592,17.943z"/>
<path fill="#785000" d="M32.522,14.564c2.117,2.115,3.223,3.219,5.334,5.334c0.322,0.321,1.906-1.265,1.585-1.586
	c-2.114-2.115-3.22-3.219-5.332-5.334C33.79,12.659,32.202,14.244,32.522,14.564L32.522,14.564z"/>
</svg>
