<?xml version="1.0" encoding="utf-8"?>
<!-- Generator: Adobe Illustrator 15.0.0, SVG Export Plug-In . SVG Version: 6.00 Build 0)  -->
<!DOCTYPE svg PUBLIC "-//W3C//DTD SVG 1.1//EN" "http://www.w3.org/Graphics/SVG/1.1/DTD/svg11.dtd" [
	<!ENTITY ns_flows "http://ns.adobe.com/Flows/1.0/">
	<!ENTITY ns_extend "http://ns.adobe.com/Extensibility/1.0/">
	<!ENTITY ns_ai "http://ns.adobe.com/AdobeIllustrator/10.0/">
	<!ENTITY ns_graphs "http://ns.adobe.com/Graphs/1.0/">
]>
<svg version="1.1" id="Layer_1" xmlns:x="&ns_extend;" xmlns:i="&ns_ai;" xmlns:graph="&ns_graphs;"
	 xmlns="http://www.w3.org/2000/svg" xmlns:xlink="http://www.w3.org/1999/xlink" xmlns:a="http://ns.adobe.com/AdobeSVGViewerExtensions/3.0/"
	 x="0px" y="0px" width="64px" height="64px" viewBox="0 0 64 64" enable-background="new 0 0 64 64" xml:space="preserve">
<path fill="#18B5F8" d="M62,39.102c0,0-40.412,6.607-60,4.016V62h60V39.102z"/>
<path fill="#C99B71" d="M10.453,16.313c-0.266,0.42-0.109,1.471,0.984,1.291c2.375-0.395,1.752-1.789,4.729-2.4
	C15.141,11.846,10.83,15.721,10.453,16.313z"/>
<path fill="#EBC199" d="M16.031,10.357c-0.82,0.27-5.012,1.545-8.137,2.168c-0.563,0.111-2.393,1.959-3.541,2.756
	c-1.627,1.131-0.373,2.477,0.881,1.75c1.125-0.652,2.457-1.711,3.285-1.979c2.793-0.9,5.355,1.881,8.688-0.436
	c6.682-0.471,17.715,2.588,18.201,3.766c3,7.277,1.271,10.344,2.684,15.922c-0.926,2.039-5.043,14.613-1.502,14.613
	c10.502,0,18.922-4.248,25.41-4.248v-9.238c0,0-6.908-4.869-14.641-5.707c-1.877-9.885-5.164-18.404-7.326-18.879
	C35.25,9.799,17.625,9.834,16.031,10.357z"/>
<path fill-rule="evenodd" clip-rule="evenodd" fill="#C99B71" d="M54,41.533c0,0,2.148-8.482-5.936-10.574
	C54.521,33.967,54,41.533,54,41.533z"/>
<path fill-rule="evenodd" clip-rule="evenodd" fill="#C99B71" d="M51.605,36.949c-1.125,0.27-2.014-2.381-0.889-2.646
	C51.844,34.033,52.732,36.684,51.605,36.949z"/>
<path fill="#C99B71" d="M36.299,48.271c5.23-4.379,5.227-5.26-0.002-9.635L36.299,48.271z"/>
<path id="Path_1339_" fill="#EBC199" d="M22.246,35.197c0.205,1.277,5.854,0.25,7.344-0.813c0.209-0.148,0.541-1.02-0.775-1.666
	c-0.729-0.357-1.336-0.668-2.84-0.969C24.051,31.365,22.041,33.924,22.246,35.197z"/>
<path id="Path_1338_" fill="#EBC199" d="M22.246,51.711c0.205-1.279,5.854-0.25,7.344,0.813c0.209,0.148,0.541,1.021-0.775,1.666
	c-0.729,0.357-1.336,0.668-2.84,0.969C24.051,55.543,22.041,52.982,22.246,51.711z"/>
<path id="Path_1337_" fill="#C99B71" d="M23.328,33.453c0.139,0.406,0.811,0.217,1.924,0.473c-0.33-1.516,2.232-1.137,2.281,0.18
	c0.258-0.012,0.523-0.186,0.801-0.217c-0.936-0.646-0.559-0.654-1.951-1.266C25.127,32.072,22.986,32.449,23.328,33.453z"/>
<path id="Path_1336_" fill="#C99B71" d="M25.248,52.982c-1.111,0.258-1.781,0.066-1.92,0.471c-0.342,1.004,1.799,1.383,3.055,0.834
	c1.393-0.613,1.016-0.621,1.951-1.268c-0.279-0.031-0.545-0.205-0.803-0.217C27.469,54.107,24.938,54.48,25.248,52.982z"/>
<path id="Path_1335_" fill="#EBC199" d="M11.385,43.455c0,7.307,5.531,10.828,13.219,10.389c1.547-0.088,6.592-1.047,8.402-1.953
	c1.852-0.928,4.707-4.025,5.299-5.924c0.373-1.201,0.373-3.826,0-5.025c-0.592-1.898-3.447-4.998-5.299-5.924
	c-1.811-0.906-6.855-1.865-8.402-1.951C16.916,32.623,11.385,36.145,11.385,43.455z"/>
<path id="Path_1334_" fill="#A17C5B" d="M21.682,35.498c-0.885,1.676-0.93,4.881-0.313,6.074c0.121,0.256,0.959,0.086,0.879-0.129
	c-0.656-1.662-0.672-4.348,0.057-5.904C22.398,35.33,21.805,35.244,21.682,35.498z"/>
<path id="Path_1333_" fill="#A17C5B" d="M21.682,51.41c-0.885-1.674-0.93-4.877-0.313-6.074c0.121-0.254,0.959-0.086,0.879,0.129
	c-0.656,1.666-0.672,4.346,0.057,5.906C22.398,51.578,21.805,51.664,21.682,51.41z"/>
<path id="Path_1332_" fill="#C99B71" d="M29.361,41.479c-0.146,0.209,0.078,0.699,0.078,1.977c0,1.275-0.225,1.766-0.078,1.977
	c0.176,0.248,0.971-0.15,0.971-1.977C30.332,41.627,29.537,41.227,29.361,41.479z"/>
<path fill="#3AB0A2" d="M23.867,32.354c-17.641-2.439-17.641,24.639,0,22.201C20.828,51.508,20.828,35.398,23.867,32.354z"/>
<path fill="#302C3B" d="M25.771,34.416c3.967,0,3.967,8.133,0,8.133C21.803,42.549,21.803,34.416,25.771,34.416z"/>
<path fill="#44618B" d="M25.771,35.432c2.381,0,2.381,6.102,0,6.102C23.389,41.533,23.389,35.432,25.771,35.432z"/>
<path fill="#006DAE" d="M24.197,32.133c1.375,0.713,2.402,2.793,2.402,2.793s-0.98-0.268-1.809,0.232c0,0-1.207-2.197-2.105-2.926
	C22.551,32.123,24.045,32.055,24.197,32.133z"/>
<path fill="#302C3B" d="M25.771,52.492c3.967,0,3.967-8.133,0-8.133C21.803,44.359,21.803,52.492,25.771,52.492z"/>
<path fill="#44618B" d="M25.771,51.477c2.381,0,2.381-6.102,0-6.102C23.389,45.375,23.389,51.477,25.771,51.477z"/>
<rect x="24.879" y="41.93" fill="#006DAE" width="1.787" height="3.049"/>
<path fill="#006DAE" d="M24.197,54.775c1.375-0.713,2.402-2.793,2.402-2.793s-0.98,0.268-1.809-0.232c0,0-1.207,2.197-2.105,2.926
	C22.551,54.785,24.045,54.854,24.197,54.775z"/>
<path fill="#45332C" d="M35.076,41.852c1.418,0,1.418,3.205,0,3.205C32.324,45.057,32.324,41.852,35.076,41.852z"/>
<path fill="#48C2F9" d="M2,62h60V49.18c-31.227-5.727-28.988,3.959-60,1.004V62z"/>
<path fill="#7ED2FC" d="M62,54.834c-21.779-1.336-32.574,2.998-60,1.498V62h60V54.834z"/>
</svg>
