<?xml version="1.0" encoding="utf-8"?>
<!-- Generator: Adobe Illustrator 15.0.0, SVG Export Plug-In . SVG Version: 6.00 Build 0)  -->
<!DOCTYPE svg PUBLIC "-//W3C//DTD SVG 1.1//EN" "http://www.w3.org/Graphics/SVG/1.1/DTD/svg11.dtd" [
	<!ENTITY ns_flows "http://ns.adobe.com/Flows/1.0/">
	<!ENTITY ns_extend "http://ns.adobe.com/Extensibility/1.0/">
	<!ENTITY ns_ai "http://ns.adobe.com/AdobeIllustrator/10.0/">
	<!ENTITY ns_graphs "http://ns.adobe.com/Graphs/1.0/">
]>
<svg version="1.1" id="Layer_1" xmlns:x="&ns_extend;" xmlns:i="&ns_ai;" xmlns:graph="&ns_graphs;"
	 xmlns="http://www.w3.org/2000/svg" xmlns:xlink="http://www.w3.org/1999/xlink" xmlns:a="http://ns.adobe.com/AdobeSVGViewerExtensions/3.0/"
	 x="0px" y="0px" width="64px" height="64px" viewBox="0 0 64 64" enable-background="new 0 0 64 64" xml:space="preserve">
<linearGradient id="SVGID_1_" gradientUnits="userSpaceOnUse" x1="69.5215" y1="-136.3101" x2="105.1248" y2="-132.5954" gradientTransform="matrix(1 0 0 -1 -56 -80)">
	<stop  offset="0" style="stop-color:#00D6B3"/>
	<stop  offset="1" style="stop-color:#27C89C"/>
	<a:midPointStop  offset="0" style="stop-color:#00D6B3"/>
	<a:midPointStop  offset="0.5" style="stop-color:#00D6B3"/>
	<a:midPointStop  offset="1" style="stop-color:#27C89C"/>
</linearGradient>
<path fill="url(#SVGID_1_)" d="M59.484,51.283c-0.125-0.59,1.908-1.492,0.736-2.367c-12.521-4.449-43.479-0.775-57.967,7.496
	c-0.412,0.236-0.256,0.953,0.004,1.053c6.645,2.596,15.418,3.621,24.252,3.529c14.731-0.15,29.641-3.404,35.176-7.666
	C62.945,52.361,60.055,52.113,59.484,51.283z"/>
<radialGradient id="SVGID_2_" cx="61.0127" cy="-1576.4521" r="30.2138" gradientTransform="matrix(0.9996 -0.0698 -0.0147 -0.2105 -52.2683 -274.2069)" gradientUnits="userSpaceOnUse">
	<stop  offset="0.6319" style="stop-color:#FFFFFF;stop-opacity:0.3"/>
	<stop  offset="0.7129" style="stop-color:#E5E5E6;stop-opacity:0.328"/>
	<stop  offset="0.8593" style="stop-color:#A3A1A7;stop-opacity:0.3882"/>
	<stop  offset="1" style="stop-color:#393644;stop-opacity:0.4752"/>
	<a:midPointStop  offset="0.6319" style="stop-color:#FFFFFF;stop-opacity:0.3"/>
	<a:midPointStop  offset="0.5" style="stop-color:#FFFFFF;stop-opacity:0.3"/>
	<a:midPointStop  offset="0.7129" style="stop-color:#E5E5E6;stop-opacity:0.328"/>
	<a:midPointStop  offset="0.5" style="stop-color:#E5E5E6;stop-opacity:0.328"/>
	<a:midPointStop  offset="0.8593" style="stop-color:#A3A1A7;stop-opacity:0.3882"/>
	<a:midPointStop  offset="0.5" style="stop-color:#A3A1A7;stop-opacity:0.3882"/>
	<a:midPointStop  offset="1" style="stop-color:#393644;stop-opacity:0.4752"/>
</radialGradient>
<path opacity="0.25" fill="url(#SVGID_2_)" enable-background="new    " d="M59.484,51.283c-0.125-0.59,1.908-1.492,0.736-2.367
	c-12.521-4.449-43.479-0.775-57.967,7.496c-0.412,0.236-0.256,0.953,0.004,1.053c6.645,2.596,15.418,3.621,24.252,3.529
	c14.731-0.15,29.641-3.404,35.176-7.666C62.945,52.361,60.055,52.113,59.484,51.283z"/>
<path id="Shape_3_" fill="#FFFFFF" d="M13.333,55.467c-0.375-0.777,0.449-1.576,1.861-1.787c1.396-0.205,2.846,0.254,3.221,1.031
	c0.377,0.779-0.463,1.578-1.859,1.787C15.144,56.707,13.712,56.244,13.333,55.467z M12.49,55.592
	c0.498,1.037,2.416,1.654,4.291,1.375c1.863-0.275,2.982-1.344,2.482-2.381c-0.502-1.037-2.434-1.65-4.295-1.375
	C13.089,53.488,11.986,54.557,12.49,55.592z"/>
<path id="Combined-Shape_3_" fill="#FFFFFF" d="M16.033,54.664c0.029,0.061-0.012,0.102-0.127,0.119l-0.336,0.051
	c-0.113,0.016-0.186-0.008-0.217-0.068l-0.297-0.609c-0.027-0.063,0.014-0.104,0.129-0.121l0.166-0.025
	c1.074-0.158,2.186,0.195,2.473,0.791c0.143,0.291,0.059,0.596-0.215,0.85c-0.047,0.055-0.129,0.066-0.236,0.035l-0.447-0.146
	c-0.107-0.033-0.129-0.076-0.064-0.133c0.141-0.143,0.193-0.314,0.113-0.48c-0.131-0.27-0.564-0.453-1.041-0.467L16.033,54.664z"/>
<path fill="#FFD8B4" d="M55.213,22.788c-0.229-0.719-2.551-0.525-5.123,0c-2.424,0.49-4.305-0.693-6.467-0.654l-5.5-2.01
	c-0.354,1.203-0.422,2.842-0.793,4.037c2.08,0.652,4.064,0.717,5.285,0.955c2.766,0.629,7.67-0.486,7.67-0.486
	c4.16,0.729,4.488,0.625,2.793-0.217c-0.033-0.342,1.215-0.352,2.625-0.438C58.492,23.803,55.213,22.788,55.213,22.788z"/>
<path fill="#FFD8B4" d="M5.238,29.838c-0.111-0.744,2.066-1.551,4.615-2.164c2.404-0.58,3.57-2.439,5.537-3.322l3.963-3.91
	c0.854,0.938,0.666,2.861,1.535,3.781c-1.584,1.467-2.617,1.586-3.609,2.314c-2.217,1.736-6.783,2.881-6.783,2.881
	c-3.426,2.412-3.766,2.457-2.611,0.982c-0.123-0.322-1.254,0.197-2.563,0.717C2.732,32.139,5.238,29.838,5.238,29.838z"/>
<path fill="#FF7A00" d="M40.422,34.271c-0.432-0.297-4.637-2.529-7.944-3.07c-0.357-0.957,2.422-4.016,2.891-7.59
	c0,0,1.229,0.246,1.959,0.551c0,0,1.264-2.156,0.822-4.037c-1.021-0.703-2.6-2.07-5.006-2.561c-1-0.203-4.389-0.758-5.489-0.748
	c-3.043,0.027-5.799,0.486-8.303,3.625c0.328,2.127,1.535,3.781,1.535,3.781s1.82-1.246,2.816-1.547
	c1.623,7.969-6.326,9.947,0.82,17.621c5.068-1.355,5.953-0.83,5.068-3.248c2.096,0.512,2.129,1.211,7.43,2.146
	C38.484,39.453,41.408,34.949,40.422,34.271z"/>
<path fill="#FFA959" d="M23.705,22.676c1.34,7.707-5.795,9.4,1.537,16.968c0.236-0.064,0.324-0.625,0.543-0.682
	C19.251,31.616,26.082,29.29,23.705,22.676z"/>
<path fill="#FFD8B4" d="M42.822,38.412c0.123-1.549,0.195-3.035-2.4-4.143c-2.277-0.254-3.957,3.678-3.398,4.926
	c0.498,0.229,1.762,0.619,1.762,0.619c-0.359,2.912,1.859,4.891,2.326,8.297c0.244,1.793-0.73,2.92,1.701,3.338
	c1.668,0.287,3.008,2.111,5.691,0.262c1.301-0.896-3.961-1.24-4.953-3.594C43.156,47.182,42.709,39.809,42.822,38.412z"/>
<path fill="#FFD8B4" d="M29.47,42.615c0.996-1.25,1.201-2.99,0.398-4.625c-2.27-0.707-5.039,0.336-5.342,2.307
	c0.33,0.482,0.588,0.939,0.588,0.939c-1.982,2.271-0.828,4.936-2.332,8.109c-0.793,1.67-2.334,2.063-0.324,3.836
	c1.375,1.217,1.398,3.791,4.924,3.779c1.707-0.008-2.947-3.363-2.529-5.947C25.021,49.986,28.576,43.736,29.47,42.615z"/>
<path fill="#FFA959" d="M38.238,20.731c-1.02-0.699-2.139-2.854-5.577-3.62c-0.996-0.223-3.898-0.563-4.996-0.555
	c-3.043,0.029-5.746,1.053-8.25,4.192c0,0,0.008,0.436,0.201,0.82c1.533-1.861,3.111-3.084,4.811-3.694
	c1.01,0.397,4.393,1.993,5.936,6.01c2.008-3.723,4.188-4.51,5.067-4.684c1.172,0.871,2.125,1.945,2.768,2.389
	C38.197,21.59,38.342,21.176,38.238,20.731z"/>
<path fill="#DEB38A" d="M27.56,17.369c0,2.174,5.473,2.174,5.473,0c0-0.74,0-2.406,0-2.406H27.56
	C27.56,14.963,27.56,16.629,27.56,17.369z"/>
<path fill="#1E110E" d="M35.5,14.213c0.371,0.244,0.797,0.426,1.295,0.52c-0.885-2.014,0.449-6.236-2.285-9.34
	c-3.854,0.115-4.387,12.559,0.986,10.904c-0.342-0.148-0.557-0.451-0.682-0.83c0.414,0.117,0.896,0.121,1.461-0.051
	C35.826,15.221,35.598,14.766,35.5,14.213z"/>
<path fill="#1E110E" d="M25.824,5.393c-2.734,3.104-1.141,7.326-2.025,9.34c0.498-0.094,0.926-0.275,1.295-0.52
	c-0.098,0.553-0.326,1.008-0.775,1.203c0.563,0.172,1.047,0.168,1.461,0.051c-0.125,0.379-0.34,0.682-0.682,0.83
	C30.47,17.952,29.679,5.508,25.824,5.393z"/>
<path id="Path_131_" fill="#FFD8B4" d="M35.92,9.633c-0.869,0.105-1.498,3.016-0.951,3.783c0.076,0.107,0.525,0.277,0.857-0.4
	c0.186-0.375,0.717-0.688,0.881-1.463C36.918,10.563,36.787,9.527,35.92,9.633z"/>
<path id="Path_130_" fill="#FFD8B4" d="M24.673,9.633c0.871,0.105,1.5,3.016,0.951,3.783c-0.076,0.107-0.525,0.277-0.857-0.4
	c-0.184-0.375-0.717-0.688-0.881-1.463C23.675,10.563,23.808,9.527,24.673,9.633z"/>
<path id="Path_129_" fill="#DEB38A" d="M35.896,10.189c-0.227,0.072-0.475,0.418-0.609,0.992c0.795-0.172,0.596,1.148-0.094,1.174
	c0.006,0.133,0.016,0.27,0.031,0.414c0.332-0.482,0.67-0.289,1.006-1.006C36.531,11.117,36.459,10.014,35.896,10.189z"/>
<path id="Path_128_" fill="#DEB38A" d="M25.306,11.18c-0.135-0.572-0.381-0.918-0.609-0.99c-0.563-0.176-0.635,0.928-0.332,1.574
	c0.334,0.717,0.672,0.523,1.004,1.006c0.018-0.145,0.025-0.281,0.031-0.414C24.718,12.322,24.521,11.02,25.306,11.18z"/>
<path fill="#FFD8B4" d="M30.296,4.038c-3.771,0-5.59,3.065-5.361,7.009c0.047,0.793,0.268,1.936,0.539,2.916
	c0.566,2.035,3.551,4.086,4.822,4.086s4.256-2.051,4.823-4.086c0.273-0.98,0.494-2.123,0.541-2.916
	C35.887,7.104,34.07,4.038,30.296,4.038z"/>
<path id="Path_127_" fill="#A88868" d="M34.395,9.342c-0.861-0.455-2.514-0.479-3.127-0.16c-0.133,0.061-0.045,0.492,0.064,0.451
	c0.857-0.338,2.241-0.346,3.043,0.029C34.482,9.711,34.525,9.404,34.395,9.342z"/>
<path id="Path_126_" fill="#A88868" d="M26.199,9.342c0.863-0.455,2.512-0.479,3.129-0.16c0.131,0.061,0.045,0.492-0.066,0.451
	c-0.859-0.338-2.238-0.346-3.043,0.029C26.113,9.711,26.068,9.404,26.199,9.342z"/>
<path id="Path_125_" fill="#DEB38A" d="M31.314,13.297c-0.107-0.074-0.359,0.041-1.018,0.041c-0.656,0-0.91-0.115-1.018-0.041
	c-0.129,0.092,0.076,0.5,1.018,0.5S31.445,13.389,31.314,13.297z"/>
<path id="Path_124_" fill="#DEB38A" d="M30.296,14.85c-0.848-0.25-2.105,0.117-2.105,0.117c0.479,0.521,0.83,1.197,2.105,1.197
	c1.461,0,1.711-0.768,2.105-1.197C32.402,14.967,31.144,14.6,30.296,14.85z"/>
<path id="Path_123_" fill="#FFFFFF" d="M28.507,15.055c0.889,0.746,2.686,0.75,3.58,0C31.138,15.096,29.46,15.096,28.507,15.055z"/>
<path id="Path_122_" fill="#FFFFFF" d="M29.457,10.895c0.033,0.25-0.137,0.545-0.605,0.768c-0.299,0.141-0.918,0.307-1.732-0.037
	c-0.365-0.152-0.721-0.633-0.689-0.896C26.871,9.896,29.044,9.775,29.457,10.895z"/>
<linearGradient id="Oval_1_" gradientUnits="userSpaceOnUse" x1="-424.1636" y1="480.4785" x2="-424.1636" y2="480.7383" gradientTransform="matrix(6.5701 0 0 -6.5701 2814.7805 3168.5281)">
	<stop  offset="0" style="stop-color:#A6694A"/>
	<stop  offset="1" style="stop-color:#4F2A1E"/>
	<a:midPointStop  offset="0" style="stop-color:#A6694A"/>
	<a:midPointStop  offset="0.5" style="stop-color:#A6694A"/>
	<a:midPointStop  offset="1" style="stop-color:#4F2A1E"/>
</linearGradient>
<circle id="Oval_16_" fill="url(#Oval_1_)" cx="27.982" cy="10.878" r="0.853"/>
<path id="Path_121_" fill="#1A1626" d="M27.556,10.863c0,0.59,0.854,0.59,0.854,0C28.41,10.316,27.556,10.316,27.556,10.863z"/>
<path id="Path_120_" fill="#AB968C" d="M27.425,10.625c0,0.246,0.359,0.246,0.359,0C27.785,10.395,27.425,10.395,27.425,10.625z"/>
<path id="Path_114_" fill="#DEB38A" d="M29.46,10.928c-0.346-1.111-2.709-0.947-3.031-0.199C26.548,9.77,29.166,9.518,29.46,10.928z
	"/>
<path id="Path_113_" fill="#FFFFFF" d="M31.136,10.895c-0.033,0.25,0.137,0.545,0.605,0.768c0.299,0.141,0.918,0.307,1.733-0.037
	c0.367-0.152,0.723-0.633,0.689-0.896C33.725,9.896,31.548,9.775,31.136,10.895z"/>
<linearGradient id="Oval_2_" gradientUnits="userSpaceOnUse" x1="-426.1606" y1="480.4785" x2="-426.1606" y2="480.7383" gradientTransform="matrix(6.5701 0 0 -6.5701 2832.511 3168.5281)">
	<stop  offset="0" style="stop-color:#A6694A"/>
	<stop  offset="1" style="stop-color:#4F2A1E"/>
	<a:midPointStop  offset="0" style="stop-color:#A6694A"/>
	<a:midPointStop  offset="0.5" style="stop-color:#A6694A"/>
	<a:midPointStop  offset="1" style="stop-color:#4F2A1E"/>
</linearGradient>
<circle id="Oval_15_" fill="url(#Oval_2_)" cx="32.591" cy="10.878" r="0.853"/>
<path id="Path_112_" fill="#1A1626" d="M32.166,10.863c0,0.59,0.854,0.59,0.854,0C33.02,10.316,32.166,10.316,32.166,10.863z"/>
<path id="Path_106_" fill="#AB968C" d="M32.035,10.625c0,0.246,0.357,0.246,0.357,0C32.392,10.395,32.035,10.395,32.035,10.625z"/>
<path id="Path_105_" fill="#DEB38A" d="M31.132,10.928c0.346-1.111,2.709-0.951,3.032-0.199C34.045,9.77,31.427,9.518,31.132,10.928
	z"/>
<linearGradient id="SVGID_3_" gradientUnits="userSpaceOnUse" x1="30.2407" y1="11.8301" x2="30.2407" y2="3">
	<stop  offset="0" style="stop-color:#1E110E"/>
	<stop  offset="0.2821" style="stop-color:#31211E"/>
	<stop  offset="0.7266" style="stop-color:#493632"/>
	<stop  offset="1" style="stop-color:#523E3A"/>
	<a:midPointStop  offset="0" style="stop-color:#1E110E"/>
	<a:midPointStop  offset="0.4" style="stop-color:#1E110E"/>
	<a:midPointStop  offset="1" style="stop-color:#523E3A"/>
</linearGradient>
<path fill="url(#SVGID_3_)" d="M30.296,3c-2.295,0-3.441,1.038-3.674,1.53c-2.775,0.633-3.668,5.306-1.59,7.3
	c0.258-2.125,0.506-3.49,1.92-4.928c0.826,1.104,2.541,1.725,4.074,1.725c-0.727-0.525-1.223-1.043-1.611-1.523
	c2.564,1.174,5.434,1.926,6.147,4.727C38.027,7.91,35.98,3,30.296,3z"/>
<path fill="#1E110E" d="M26.623,4.529c-0.035,1.955,0.756,3.42,4.404,4.098C28.412,8.803,25.726,7.223,26.623,4.529z"/>
<path fill="#1E110E" d="M26.851,6.777c-0.951,0.939-2.021,2.566-1.818,5.051c0.189-2.053,1.133-3.744,1.986-4.84
	C26.958,6.922,26.904,6.852,26.851,6.777z"/>
<path fill="#1E110E" d="M28.486,6.158c1.914,1.826,6.616,1.707,7.077,5.67C34.334,7.975,30.175,8.838,28.486,6.158z"/>
</svg>
