<?xml version="1.0" encoding="utf-8"?>
<!-- Generator: Adobe Illustrator 15.0.0, SVG Export Plug-In . SVG Version: 6.00 Build 0)  -->
<!DOCTYPE svg PUBLIC "-//W3C//DTD SVG 1.1//EN" "http://www.w3.org/Graphics/SVG/1.1/DTD/svg11.dtd" [
	<!ENTITY ns_flows "http://ns.adobe.com/Flows/1.0/">
	<!ENTITY ns_extend "http://ns.adobe.com/Extensibility/1.0/">
	<!ENTITY ns_ai "http://ns.adobe.com/AdobeIllustrator/10.0/">
	<!ENTITY ns_graphs "http://ns.adobe.com/Graphs/1.0/">
]>
<svg version="1.1" id="Layer_1" xmlns:x="&ns_extend;" xmlns:i="&ns_ai;" xmlns:graph="&ns_graphs;"
	 xmlns="http://www.w3.org/2000/svg" xmlns:xlink="http://www.w3.org/1999/xlink" xmlns:a="http://ns.adobe.com/AdobeSVGViewerExtensions/3.0/"
	 x="0px" y="0px" width="64px" height="64px" viewBox="0 0 64 64" enable-background="new 0 0 64 64" xml:space="preserve">
<linearGradient id="SVGID_1_" gradientUnits="userSpaceOnUse" x1="6.6221" y1="85.0547" x2="15.6235" y2="85.0547" gradientTransform="matrix(0.9848 -0.1736 0.1736 0.9848 5.1953 -73.2058)">
	<stop  offset="0" style="stop-color:#473834"/>
	<stop  offset="0.339" style="stop-color:#5E4A43"/>
	<stop  offset="0.7359" style="stop-color:#735A51"/>
	<stop  offset="1" style="stop-color:#7A6056"/>
	<a:midPointStop  offset="0" style="stop-color:#473834"/>
	<a:midPointStop  offset="0.3818" style="stop-color:#473834"/>
	<a:midPointStop  offset="1" style="stop-color:#7A6056"/>
</linearGradient>
<path fill="url(#SVGID_1_)" d="M34.313,12.807c0.57,0.102,1.195,0.067,1.881-0.187c-5.537-1.982-3.478-14.047-10.846-9.671
	L26.957,5.6c2.308,0.04,0.033,6.57,4.478,7.879c-0.47-0.305-0.608-1.093-0.666-2.042c1.255,2.537,2.413,4.287,5.505,3.369
	C35.686,14.783,34.955,13.932,34.313,12.807z"/>
<path fill="#8E3ED6" d="M24.67,3.106c-0.821,0.823,0.812,3.268,2.713,3.05C28.943,5.979,26.024,1.75,24.67,3.106z"/>
<path fill="#FAC150" d="M20.051,17.192c1.021-0.729,1.727,0.199,1.874,0.596c0.483,1.301,4.925-1.099,4.086-2.543
	c-0.729-1.253-0.354-2.976-0.354-2.976C24.839,11.975,21.373,7.62,20.051,17.192z"/>
<path fill="#FFCC66" d="M18.508,3.752c-3.296,1.139-4.111,3.779-3.062,6.537c0.237,0.625,0.016,1.802-0.679,2.654
	c-0.253,0.311-0.223,0.658-0.036,0.861c0.365,0.397,0.995,0.291,1.288,0.412c0.652,0.271,0.137,0.789,0.657,1.151
	c0.236,0.167,0.766-0.203,0.346,0.97c0.762,0.375,0.115,1.646,1.617,1.641c0.712-0.002,3.176-1.53,4.24-3.639
	c0.601-1.191,0.512-2.438,0.512-2.438c2.469-1.209,2.987-3.645,2.008-5.923C24.028,2.792,20.645,3.012,18.508,3.752z"/>
<path fill="#D47706" d="M16.677,15.368c0.354,0.14,0.268,0.47,0.268,0.47c-0.153,0.027-0.102,0.54,0.126,0.5
	c0.794-0.14,1.402-0.949,1.568-1.405C17.384,15.09,15.921,14.769,16.677,15.368z"/>
<path fill="#FFFFFF" d="M16.677,15.368c0,0,0.198,0.413,0.268,0.47c0.25-0.044,1.028-0.366,1.469-0.783L16.677,15.368z"/>
<linearGradient id="SVGID_2_" gradientUnits="userSpaceOnUse" x1="-4.2998" y1="83.0293" x2="8.3984" y2="83.0293" gradientTransform="matrix(0.9848 -0.1736 0.1736 0.9848 5.1953 -73.2058)">
	<stop  offset="0" style="stop-color:#7A6056"/>
	<stop  offset="0.3119" style="stop-color:#775D54"/>
	<stop  offset="0.5686" style="stop-color:#6D554D"/>
	<stop  offset="0.8048" style="stop-color:#5B4842"/>
	<stop  offset="1" style="stop-color:#473834"/>
	<a:midPointStop  offset="0" style="stop-color:#7A6056"/>
	<a:midPointStop  offset="0.7455" style="stop-color:#7A6056"/>
	<a:midPointStop  offset="1" style="stop-color:#473834"/>
</linearGradient>
<path fill="url(#SVGID_2_)" d="M25.794,4.294c-0.954-1.851-4.163-2.606-6.947-1.525c-2.708,1.052-4.436,3.342-3.759,4.521
	c0.961,1.673,4.922,0.942,6.931,3.707c0.058,0.204,1.13,0.163,1.206,0.338c0.612,1.403,1.952,2.422,2.343,2.24
	C28.298,12.304,29.094,4.938,25.794,4.294z"/>
<path fill="#DB9D3A" d="M14.741,13.807c0.345,0.582,1.87,0.454,2.216-0.391C16.267,14.127,14.54,13.468,14.741,13.807z"/>
<path fill="#FFCC66" d="M22.846,8.741c-1.219,0.484-1.11,3.413-0.054,3.865c0.148,0.065,0.856,0.02,1.099-0.745
	c0.135-0.424,0.793-0.947,0.759-1.724C24.608,9.14,24.058,8.257,22.846,8.741z"/>
<path id="Path_459_" fill="#DB9D3A" d="M23.005,9.258c-0.302,0.167-0.538,0.591-0.533,1.173c1.087-0.509,1.261,0.781,0.274,1.112
	c0.056,0.117,0.116,0.237,0.189,0.361c0.312-0.586,0.866-0.561,1.099-1.364C24.243,9.817,23.755,8.846,23.005,9.258z"/>
<path id="Path_458_" fill="#966F42" d="M18.423,9.162c-0.795-0.29-2.179-0.066-2.643,0.313c-0.1,0.077,0.043,0.458,0.129,0.404
	c0.662-0.434,1.815-0.646,2.548-0.421C18.554,9.485,18.542,9.2,18.423,9.162z"/>
<path fill="#FFFFFF" d="M18.379,10.675c0.049,0.18-0.412,0.94-1.137,1.132c-0.414,0.11-0.622-0.189-0.776-0.521
	C16.129,9.911,17.854,10.117,18.379,10.675z"/>
<linearGradient id="Path_1_" gradientUnits="userSpaceOnUse" x1="-3.0063" y1="85.7568" x2="-3.0063" y2="84.2695" gradientTransform="matrix(0.9848 -0.1736 0.1736 0.9848 5.1953 -73.2058)">
	<stop  offset="0" style="stop-color:#A6694A"/>
	<stop  offset="1" style="stop-color:#4F2A1E"/>
	<a:midPointStop  offset="0" style="stop-color:#A6694A"/>
	<a:midPointStop  offset="0.5" style="stop-color:#A6694A"/>
	<a:midPointStop  offset="1" style="stop-color:#4F2A1E"/>
</linearGradient>
<path id="Path_457_" fill="url(#Path_1_)" d="M16.405,11.114c0.179,1.013,1.353,0.806,1.174-0.207
	C17.413,9.966,16.24,10.173,16.405,11.114z"/>
<path id="Path_456_" fill="#1A1626" d="M16.52,11.047c0.09,0.506,0.675,0.403,0.586-0.103C17.022,10.473,16.437,10.576,16.52,11.047
	z"/>
<path id="Path_455_" fill="#AB968C" d="M16.847,10.778c0.037,0.211,0.377,0.151,0.34-0.06C17.151,10.52,16.812,10.58,16.847,10.778z
	"/>
<path fill="#45332C" d="M18.379,10.675c-0.428-0.576-2.08-0.758-1.972,0.102C16.527,10.165,17.748,10.273,18.379,10.675z"/>
<path fill="#8E3ED6" d="M8,58.901c0,0,2.693,2.688,6.545,2.505L16.801,62c0.207-0.33,0.092-0.45,0.092-0.45
	s-1.438-1.842-8.594-2.935C8.299,58.615,8.104,58.574,8,58.901z"/>
<path fill="#302C3B" d="M14.656,57.1c-1.131,1.209-5.602-0.896-6.357,1.516c0,0,2.488,2.525,6.338,2.342l2.256,0.593
	C20.449,55.853,14.656,57.1,14.656,57.1z"/>
<path fill="#8E3ED6" d="M11.498,57.416c0.662,1.098,1.23,1.423,1.463,0.834c0.484,0.589,0.916,0.329,1.016-0.031
	c0.57,0.45,0.955-0.062,0.363-0.897C13.992,56.87,11.32,57.12,11.498,57.416z"/>
<path fill="#8E3ED6" d="M55.816,53.982c0,0,0.893-3.713-1.256-6.936l-0.842-2.288c-0.387-0.007-0.43,0.153-0.43,0.153
	s-0.643,2.229,2.131,8.961C55.42,53.873,55.486,54.063,55.816,53.982z"/>
<path fill="#302C3B" d="M50.842,49.179c1.613,0.35,2.137,5.292,4.578,4.694c0,0,0.859-3.45-1.289-6.673l-0.842-2.288
	C49.109,45.285,49.896,46.541,50.842,49.179z"/>
<path fill="#8E3ED6" d="M52.744,51.735c0.592-1.137,0.574-1.796-0.045-1.69c0.25-0.722-0.195-0.961-0.553-0.859
	c0.088-0.725-0.547-0.791-0.951,0.151C50.99,49.869,52.586,52.042,52.744,51.735z"/>
<path fill="#FFCC66" d="M23.793,33.569c-2.928,2.794-7.773,8.783-7.711,10.821c0.156,5.191-1.086,11.544-1.086,11.544
	c0.24,1.089,2.504,1.563,3.096,0.775c1.102-4.981,3.133-5.98,2.354-11.528c4.207-2.775,6.982-7.132,8.926-7.618
	c0.227,5.821,5.268,12.123,6.332,12.376c1.156,0.274,5.875-1.266,13.859-1.052c0.652,0.017,0.201-2.979-0.123-2.977
	c-6.002,0.067-8.982-1.684-12.105-0.038c-0.373-3.841-1.889-6.085-1.969-9.896C35.35,35.285,23.793,33.569,23.793,33.569z"/>
<path fill="#F2F5F7" d="M14.996,55.935c-0.141,0.845-0.238,1.464-0.238,1.464s0.783,1.077,2.955,0.934
	c0.127-0.59,0.232-1.112,0.379-1.622C17.576,57.079,15.59,56.697,14.996,55.935z"/>
<path fill="#F2F5F7" d="M50.709,45.873c-0.439,0.021-0.861,0.032-1.27,0.038c0.457,0.972,0.385,2.383,0.123,2.977
	c0.379,0.002,0.758,0.005,1.146,0.016C51.361,48.921,51.035,45.858,50.709,45.873z"/>
<path fill="#1A1626" d="M30.271,42.787c0,0,4.184-0.104,6.529-1.539c-0.457-4.664-2.297-8.868-4.021-11.266
	C27.729,30.975,24.867,34.362,30.271,42.787z"/>
<path fill="#302C3B" d="M25.264,31.214c-1.43,2.349-4.828,5.737-6.369,7.202c0,0,2.303,3.003,6.461,3.602
	c3.184-2.731,14.199-5.061,7.424-12.035C27.729,30.975,25.264,31.214,25.264,31.214z"/>
<path fill="#FFCC66" d="M23.605,20.988c-2.453-1.246-3.172,4.273-3.711,5.43c-2.207-1.122-6.055-2.438-5.998-2.84
	c0.145-1.032-0.021-1.499-0.998-2.732c-0.27-0.341-0.857,0.208-0.857,0.208c-0.844-0.628-0.803,0.243-1.355,0.513
	c-0.516,0.25-0.307,0.676-0.793,1.03c-1.08,0.789,0.775,2.333,2.697,2.928c1.377,0.427,5.938,4.331,9.09,4.85
	C22.869,30.569,26.15,22.913,23.605,20.988z"/>
<path fill="#8E3ED6" d="M25.734,14.595c-0.875,0.586-2.437,3.054-3.81,3.193c-0.234,0.426-0.288,1.175-0.29,1.685
	c-0.016,3.027-3.184,5.681,0.996,7.095c0.571,0.193,1.841,2.653,2.072,5.347c0.803,1.316,7.609,0.278,8.412-1.81
	C28.555,24.659,34.238,17.744,25.734,14.595z"/>
<path fill="#FFCC66" d="M28.382,17.365c-2.252,2.601,3.949,3.907,6.843,5.376c-1.523,1.897-5.524,7.955-5.905,7.781
	c-1.109-0.5-1.592-0.406-3.025,0.32c-0.398,0.199,0.072,0.836,0.072,0.836c-0.789,0.697,0.117,0.791,0.305,1.355
	c0.174,0.52,0.646,0.391,0.932,0.902c0.635,1.137,2.555-0.152,3.486-1.867c0.666-1.227,5.864-4.887,8.044-9.865
	C39.592,21.155,30.792,15.273,28.382,17.365z"/>
<path fill="#732EB0" d="M30.577,21.688c1.08-2.349,2.25-3.645,2.854-4.115C24.466,10.793,20.817,18.254,30.577,21.688z"/>
<path fill="#DB9D3A" d="M11.999,21.017c1.773,1.132,0.702,1.79,0.702,1.79S14.153,22.154,11.999,21.017z"/>
<path fill="#DB9D3A" d="M11.521,21.675c1.729,1.049,0.768,1.67,0.768,1.67S13.622,22.728,11.521,21.675z"/>
<path fill="#DB9D3A" d="M11.065,22.096c1.882,1.25,0.777,1.698,0.777,1.698S13.286,23.441,11.065,22.096z"/>
<path fill="#DB9D3A" d="M10.786,22.729c2.109,0.97,0.86,2.23-0.603,0.529C11.685,24.607,12.589,23.793,10.786,22.729z"/>
</svg>
