<?xml version="1.0" encoding="utf-8"?>
<!-- Generator: Adobe Illustrator 15.0.0, SVG Export Plug-In . SVG Version: 6.00 Build 0)  -->
<!DOCTYPE svg PUBLIC "-//W3C//DTD SVG 1.1//EN" "http://www.w3.org/Graphics/SVG/1.1/DTD/svg11.dtd" [
	<!ENTITY ns_flows "http://ns.adobe.com/Flows/1.0/">
	<!ENTITY ns_extend "http://ns.adobe.com/Extensibility/1.0/">
	<!ENTITY ns_ai "http://ns.adobe.com/AdobeIllustrator/10.0/">
	<!ENTITY ns_graphs "http://ns.adobe.com/Graphs/1.0/">
]>
<svg version="1.1" id="Layer_1" xmlns:x="&ns_extend;" xmlns:i="&ns_ai;" xmlns:graph="&ns_graphs;"
	 xmlns="http://www.w3.org/2000/svg" xmlns:xlink="http://www.w3.org/1999/xlink" xmlns:a="http://ns.adobe.com/AdobeSVGViewerExtensions/3.0/"
	 x="0px" y="0px" width="64px" height="64px" viewBox="0 0 64 64" enable-background="new 0 0 64 64" xml:space="preserve">
<path fill="#6B4435" d="M37.205,30.764c0.369,0.244,0.797,0.426,1.295,0.52c-0.885-2.014,0.449-6.238-2.285-9.341
	c-3.855,0.115-4.389,12.56,0.986,10.904c-0.342-0.146-0.557-0.449-0.684-0.83c0.414,0.119,0.898,0.123,1.463-0.051
	C37.531,31.772,37.303,31.315,37.205,30.764z"/>
<path fill="#6B4435" d="M27.527,21.942c-2.734,3.104-1.139,7.327-2.023,9.341c0.498-0.094,0.926-0.276,1.295-0.52
	c-0.098,0.551-0.328,1.008-0.775,1.202c0.563,0.174,1.047,0.17,1.461,0.051c-0.125,0.381-0.34,0.684-0.682,0.83
	C32.176,34.502,31.383,22.058,27.527,21.942z"/>
<path fill="#FF7A00" d="M40.057,39.977l-3.613-6.641l-4.441,1.262l-4.441-1.262l-3.613,6.641c0.697,2.613,2.717,3.35,1.662,7.061
	c-2.043,7.193,1.459,8.184,6.393,8.184s8.436-0.99,6.393-8.184C37.34,43.326,39.359,42.59,40.057,39.977z"/>
<path fill="#302C3B" d="M38.1,44.908c0,0-2.598,1.227-6.098,1.227s-6.098-1.227-6.098-1.227l-0.176,1.658
	c0,0,2.773,2.219,6.273,2.219s6.273-2.219,6.273-2.219L38.1,44.908z"/>
<path fill="#B88A6F" d="M36.443,33.336c0,0,0.939-1.591,2.945-2.251c1.006-3.978,3.156-7.35,4.268-11.763h2.691
	c-1.824,4.871-0.568,9.234-4.896,16.448c-0.057,1.844-1.395,4.207-1.395,4.207C36.576,37.332,36.443,33.336,36.443,33.336z"/>
<path fill="#B88A6F" d="M27.561,33.336c0,0-0.939-1.591-2.945-2.251c-1.006-3.978-3.156-7.35-4.268-11.763h-2.691
	c1.824,4.871,0.566,9.234,4.896,16.448c0.055,1.844,1.395,4.207,1.395,4.207C27.428,37.332,27.561,33.336,27.561,33.336z"/>
<path fill="#B88A6F" d="M47.01,17.806c0.033,2.475-3.883,3.42-4,0H47.01z"/>
<path fill="#B88A6F" d="M16.99,17.806c-0.033,2.475,3.883,3.42,4,0H16.99z"/>
<path fill="#A3765A" d="M23.039,53.121c0,0,2.574,1.449,4.404,1.449c0.951-3.629-2.602-8.473-3.463-8.982L23.039,53.121z"/>
<path fill="#B88A6F" d="M25.418,58.182c0,0-0.277,1.475-3.539,0.369c-0.477-3.33-3.004-6.52-3.441-9.393
	c0,0,2.734-3.072,6.035,0.629C25.963,52.875,23.947,55.221,25.418,58.182z"/>
<path fill="#E6EBEF" d="M24.473,49.787c0,0-3.217-2.584-6.035-0.629c0,0-0.41-5.572,5.543-3.57
	C24.873,45.889,25.131,49.512,24.473,49.787z"/>
<path fill="#302C3B" d="M25.75,61.439c0.625-1.836-0.332-3.258-0.332-3.258c-1.605,0.914-3.539,0.369-3.539,0.369
	c-4.967,0.969-5.133,1.74-5.016,2.889H25.75z"/>
<path fill="#FF7A00" d="M25.68,62.029c0.322-0.223,0.07-0.59,0.07-0.59h-8.887c0,0-0.297,0.26,0.027,0.59H25.68z"/>
<path fill="#FF7A00" d="M21.873,58.42c-0.484-0.33-3.131,0.615-2.863,0.848c0.988,0.852,1.662,1.004,1.729,0.391
	c0.662,0.42,1.027,0.063,1.023-0.301C22.473,59.627,22.717,59.045,21.873,58.42z"/>
<path fill="#A3765A" d="M40.961,53.121c0,0-2.574,1.449-4.402,1.449c-0.953-3.629,2.6-8.473,3.461-8.982L40.961,53.121z"/>
<path fill="#B88A6F" d="M38.584,58.182c0,0,0.277,1.475,3.539,0.369c0.477-3.33,3.004-6.52,3.439-9.393c0,0-2.734-3.072-6.035,0.629
	C38.039,52.875,40.053,55.221,38.584,58.182z"/>
<path fill="#E6EBEF" d="M39.527,49.787c0,0,3.217-2.584,6.035-0.629c0,0,0.41-5.572-5.543-3.57
	C39.127,45.889,38.869,49.512,39.527,49.787z"/>
<path fill="#302C3B" d="M38.252,61.439c-0.625-1.836,0.332-3.258,0.332-3.258c1.605,0.914,3.539,0.369,3.539,0.369
	c4.967,0.969,5.133,1.74,5.016,2.889H38.252z"/>
<path fill="#FF7A00" d="M38.322,62.029c-0.322-0.223-0.07-0.59-0.07-0.59h8.887c0,0,0.297,0.26-0.027,0.59H38.322z"/>
<path fill="#FF7A00" d="M42.129,58.42c0.484-0.33,3.131,0.615,2.863,0.848c-0.988,0.852-1.662,1.004-1.729,0.391
	c-0.662,0.42-1.027,0.063-1.023-0.301C41.529,59.627,41.285,59.045,42.129,58.42z"/>
<linearGradient id="SVGID_1_" gradientUnits="userSpaceOnUse" x1="32.0005" y1="18.0322" x2="32.0005" y2="16.0322">
	<stop  offset="0" style="stop-color:#697378"/>
	<stop  offset="1" style="stop-color:#BAC7CC"/>
	<a:midPointStop  offset="0" style="stop-color:#697378"/>
	<a:midPointStop  offset="0.5" style="stop-color:#697378"/>
	<a:midPointStop  offset="1" style="stop-color:#BAC7CC"/>
</linearGradient>
<rect x="2" y="16.032" fill="url(#SVGID_1_)" width="60" height="2"/>
<path fill="#B88A6F" d="M46.25,16.564c0,0-0.408,0.437-0.971,0.042c-0.256,0.582-0.924,0.423-1.17,0.093
	C44.047,16.952,43.498,17,43.498,17s1.756,0.438,1.879,1.173c0.27,1.614-1.365,1.621-1.863,1.348
	c-1.363-0.746-1.088-1.893-1.738-3.354c-0.121-0.273-0.059-0.989,1.127-0.419c0,0,0.006-0.946,1.129-0.579
	c-0.045-0.663,1.033-0.618,1.225-0.105c0.676-0.45,1.223-0.057,1.25,0.258C47.844,15.276,47.314,17.512,46.25,16.564z"/>
<path fill="#8C5F44" d="M46.25,16.564c0.158-0.444,0.256-1.243,0.256-1.243S46.641,16.021,46.25,16.564z"/>
<path fill="#8C5F44" d="M45.279,16.606c0.158-0.444-0.023-1.543-0.023-1.543S45.67,16.063,45.279,16.606z"/>
<path fill="#8C5F44" d="M44.109,16.699c0.158-0.443-0.078-1.53-0.078-1.53S44.498,16.156,44.109,16.699z"/>
<path fill="#8C5F44" d="M43.498,17c-0.58-0.394-0.596-1.252-0.596-1.252S43.141,16.486,43.498,17z"/>
<path fill="#B88A6F" d="M17.752,16.564c0,0,0.408,0.437,0.971,0.042c0.256,0.582,0.924,0.423,1.17,0.093
	C19.955,16.952,20.504,17,20.504,17s-1.756,0.438-1.879,1.173c-0.27,1.614,1.365,1.621,1.863,1.348
	c1.363-0.746,1.088-1.893,1.738-3.354c0.121-0.273,0.059-0.989-1.127-0.419c0,0-0.006-0.946-1.129-0.579
	c0.045-0.663-1.033-0.618-1.225-0.105c-0.676-0.45-1.223-0.057-1.25,0.258C16.158,15.276,16.688,17.512,17.752,16.564z"/>
<path fill="#8C5F44" d="M17.752,16.564c-0.158-0.444-0.256-1.243-0.256-1.243S17.361,16.021,17.752,16.564z"/>
<path fill="#8C5F44" d="M18.723,16.606c-0.158-0.444,0.023-1.543,0.023-1.543S18.332,16.063,18.723,16.606z"/>
<path fill="#8C5F44" d="M19.893,16.699c-0.158-0.443,0.078-1.53,0.078-1.53S19.504,16.156,19.893,16.699z"/>
<path fill="#8C5F44" d="M20.504,17c0.58-0.394,0.596-1.252,0.596-1.252S20.861,16.486,20.504,17z"/>
<linearGradient id="SVGID_2_" gradientUnits="userSpaceOnUse" x1="9.5" y1="19.0313" x2="9.5" y2="15.0313">
	<stop  offset="0" style="stop-color:#697378"/>
	<stop  offset="1" style="stop-color:#DBE6EB"/>
	<a:midPointStop  offset="0" style="stop-color:#697378"/>
	<a:midPointStop  offset="0.5" style="stop-color:#697378"/>
	<a:midPointStop  offset="1" style="stop-color:#DBE6EB"/>
</linearGradient>
<rect x="4" y="15.031" fill="url(#SVGID_2_)" width="11" height="4"/>
<rect x="4.5" y="14.531" fill="#6E8189" width="1" height="1"/>
<path fill="#302C3B" d="M10,25.583c0,0.246-0.201,0.447-0.447,0.447H6.447C6.201,26.03,6,25.829,6,25.583V8.478
	C6,8.231,6.201,8.03,6.447,8.03h3.105C9.799,8.03,10,8.231,10,8.478C10.547,11.97,10.547,22.094,10,25.583z"/>
<path fill="#302C3B" d="M14,25.553C14,25.799,13.799,26,13.553,26h-3.105C10.201,26,10,25.799,10,25.553V8.447
	C10,8.201,10.201,8,10.447,8h3.105C13.799,8,14,8.201,14,8.447V25.553z"/>
<linearGradient id="SVGID_3_" gradientUnits="userSpaceOnUse" x1="8" y1="26.0303" x2="8" y2="8.0303">
	<stop  offset="0" style="stop-color:#302C3B"/>
	<stop  offset="0.258" style="stop-color:#33303F"/>
	<stop  offset="0.5253" style="stop-color:#3C3D4A"/>
	<stop  offset="0.7959" style="stop-color:#4C515C"/>
	<stop  offset="1" style="stop-color:#5B666E"/>
	<a:midPointStop  offset="0" style="stop-color:#302C3B"/>
	<a:midPointStop  offset="0.7" style="stop-color:#302C3B"/>
	<a:midPointStop  offset="1" style="stop-color:#5B666E"/>
</linearGradient>
<rect x="6.447" y="8.03" fill="url(#SVGID_3_)" width="3.105" height="18"/>
<linearGradient id="SVGID_4_" gradientUnits="userSpaceOnUse" x1="12" y1="26.0303" x2="12" y2="8.0303">
	<stop  offset="0" style="stop-color:#302C3B"/>
	<stop  offset="0.258" style="stop-color:#33303F"/>
	<stop  offset="0.5253" style="stop-color:#3C3D4A"/>
	<stop  offset="0.7959" style="stop-color:#4C515C"/>
	<stop  offset="1" style="stop-color:#5B666E"/>
	<a:midPointStop  offset="0" style="stop-color:#302C3B"/>
	<a:midPointStop  offset="0.7" style="stop-color:#302C3B"/>
	<a:midPointStop  offset="1" style="stop-color:#5B666E"/>
</linearGradient>
<rect x="10.447" y="8.03" fill="url(#SVGID_4_)" width="3.105" height="18"/>
<linearGradient id="SVGID_5_" gradientUnits="userSpaceOnUse" x1="-1954.8916" y1="19.0488" x2="-1954.8916" y2="15.0488" gradientTransform="matrix(-1 0 0 1 -1900.3916 0)">
	<stop  offset="0" style="stop-color:#697378"/>
	<stop  offset="1" style="stop-color:#DBE6EB"/>
	<a:midPointStop  offset="0" style="stop-color:#697378"/>
	<a:midPointStop  offset="0.5" style="stop-color:#697378"/>
	<a:midPointStop  offset="1" style="stop-color:#DBE6EB"/>
</linearGradient>
<rect x="49" y="15.049" fill="url(#SVGID_5_)" width="11" height="4"/>
<rect x="58.5" y="14.549" fill="#6E8189" width="1" height="1"/>
<path fill="#302C3B" d="M54,25.601c0,0.246,0.201,0.447,0.447,0.447h3.105c0.246,0,0.447-0.201,0.447-0.447V8.495
	c0-0.246-0.201-0.447-0.447-0.447h-3.105C54.201,8.048,54,8.249,54,8.495C53.455,11.987,53.455,22.11,54,25.601z"/>
<path fill="#302C3B" d="M50,25.569c0,0.246,0.201,0.447,0.447,0.447h3.105c0.246,0,0.447-0.201,0.447-0.447V8.464
	c0-0.246-0.201-0.447-0.447-0.447h-3.105C50.201,8.017,50,8.218,50,8.464V25.569z"/>
<linearGradient id="SVGID_6_" gradientUnits="userSpaceOnUse" x1="-1956.3916" y1="26.0479" x2="-1956.3916" y2="8.0479" gradientTransform="matrix(-1 0 0 1 -1900.3916 0)">
	<stop  offset="0" style="stop-color:#302C3B"/>
	<stop  offset="0.258" style="stop-color:#33303F"/>
	<stop  offset="0.5253" style="stop-color:#3C3D4A"/>
	<stop  offset="0.7959" style="stop-color:#4C515C"/>
	<stop  offset="1" style="stop-color:#5B666E"/>
	<a:midPointStop  offset="0" style="stop-color:#302C3B"/>
	<a:midPointStop  offset="0.7" style="stop-color:#302C3B"/>
	<a:midPointStop  offset="1" style="stop-color:#5B666E"/>
</linearGradient>
<rect x="54.447" y="8.048" fill="url(#SVGID_6_)" width="3.105" height="18"/>
<linearGradient id="SVGID_7_" gradientUnits="userSpaceOnUse" x1="-1952.3916" y1="26.0479" x2="-1952.3916" y2="8.0479" gradientTransform="matrix(-1 0 0 1 -1900.3916 0)">
	<stop  offset="0" style="stop-color:#302C3B"/>
	<stop  offset="0.258" style="stop-color:#33303F"/>
	<stop  offset="0.5253" style="stop-color:#3C3D4A"/>
	<stop  offset="0.7959" style="stop-color:#4C515C"/>
	<stop  offset="1" style="stop-color:#5B666E"/>
	<a:midPointStop  offset="0" style="stop-color:#302C3B"/>
	<a:midPointStop  offset="0.7" style="stop-color:#302C3B"/>
	<a:midPointStop  offset="1" style="stop-color:#5B666E"/>
</linearGradient>
<rect x="50.447" y="8.048" fill="url(#SVGID_7_)" width="3.105" height="18"/>
<path fill="#A3765A" d="M28.924,33.92c0,2.174,6.156,2.174,6.156,0c0-0.74,0-2.406,0-2.406h-6.156
	C28.924,31.514,28.924,33.18,28.924,33.92z"/>
<path id="Path_1620_" fill="#B88A6F" d="M37.625,26.183c-0.871,0.105-1.498,3.016-0.951,3.783c0.076,0.107,0.525,0.278,0.857-0.399
	c0.184-0.375,0.717-0.688,0.881-1.463C38.623,27.112,38.492,26.077,37.625,26.183z"/>
<path id="Path_1619_" fill="#B88A6F" d="M26.379,26.183c0.871,0.105,1.498,3.016,0.951,3.783c-0.076,0.107-0.525,0.278-0.857-0.399
	c-0.186-0.375-0.717-0.688-0.881-1.463C25.381,27.112,25.512,26.077,26.379,26.183z"/>
<path id="Path_1618_" fill="#8C5F44" d="M37.602,26.74c-0.227,0.071-0.475,0.417-0.609,0.991c0.795-0.171,0.596,1.149-0.094,1.175
	c0.006,0.133,0.016,0.27,0.031,0.413c0.332-0.482,0.67-0.289,1.004-1.006C38.236,27.667,38.164,26.564,37.602,26.74z"/>
<path id="Path_1617_" fill="#8C5F44" d="M27.012,27.729c-0.135-0.572-0.383-0.918-0.609-0.989c-0.563-0.176-0.635,0.927-0.334,1.573
	c0.336,0.717,0.674,0.523,1.006,1.006c0.016-0.145,0.025-0.281,0.031-0.414C26.422,28.873,26.227,27.569,27.012,27.729z"/>
<path fill="#B88A6F" d="M32.002,20.588c-3.773,0-5.59,3.066-5.363,7.009c0.047,0.793,0.268,1.937,0.541,2.916
	c0.566,2.037,3.551,4.085,4.822,4.085s4.256-2.048,4.822-4.085c0.271-0.979,0.492-2.123,0.539-2.916
	C37.59,23.654,35.773,20.588,32.002,20.588z"/>
<path id="Path_1616_" fill="#78513A" d="M36.1,25.892c-0.863-0.455-2.514-0.479-3.129-0.16c-0.131,0.062-0.045,0.493,0.066,0.452
	c0.857-0.338,2.24-0.346,3.041,0.029C36.186,26.262,36.23,25.955,36.1,25.892z"/>
<path id="Path_1615_" fill="#78513A" d="M27.904,25.892c0.861-0.455,2.512-0.479,3.127-0.16c0.133,0.062,0.045,0.493-0.064,0.452
	c-0.859-0.338-2.24-0.346-3.043,0.029C27.816,26.262,27.773,25.955,27.904,25.892z"/>
<path id="Path_1614_" fill="#8C5F44" d="M33.02,29.848c-0.107-0.075-0.359,0.04-1.018,0.04s-0.91-0.115-1.018-0.04
	c-0.129,0.091,0.076,0.5,1.018,0.5S33.148,29.938,33.02,29.848z"/>
<path id="Path_1613_" fill="#FFFFFF" d="M31.162,27.445c0.033,0.25-0.137,0.545-0.605,0.767c-0.299,0.141-0.918,0.307-1.732-0.036
	c-0.365-0.153-0.723-0.633-0.689-0.897C28.576,26.447,30.75,26.326,31.162,27.445z"/>
<linearGradient id="Oval_1_" gradientUnits="userSpaceOnUse" x1="-423.9043" y1="477.96" x2="-423.9043" y2="478.2197" gradientTransform="matrix(6.5701 0 0 -6.5701 2814.7805 3168.5281)">
	<stop  offset="0" style="stop-color:#A6694A"/>
	<stop  offset="1" style="stop-color:#4F2A1E"/>
	<a:midPointStop  offset="0" style="stop-color:#A6694A"/>
	<a:midPointStop  offset="0.5" style="stop-color:#A6694A"/>
	<a:midPointStop  offset="1" style="stop-color:#4F2A1E"/>
</linearGradient>
<circle id="Oval_134_" fill="url(#Oval_1_)" cx="29.688" cy="27.429" r="0.853"/>
<path id="Path_1612_" fill="#1A1626" d="M29.262,27.413c0,0.59,0.854,0.59,0.854,0C30.115,26.866,29.262,26.866,29.262,27.413z"/>
<path id="Path_1611_" fill="#AB968C" d="M29.131,27.175c0,0.247,0.357,0.247,0.357,0C29.488,26.945,29.131,26.945,29.131,27.175z"/>
<path id="Path_1610_" fill="#8C5F44" d="M31.166,27.479c-0.346-1.112-2.709-0.948-3.031-0.2
	C28.254,26.32,30.871,26.068,31.166,27.479z"/>
<path id="Path_1609_" fill="#FFFFFF" d="M32.842,27.445c-0.033,0.25,0.137,0.545,0.605,0.767c0.299,0.141,0.918,0.307,1.732-0.036
	c0.365-0.153,0.721-0.633,0.689-0.897C35.428,26.447,33.254,26.326,32.842,27.445z"/>
<linearGradient id="Oval_2_" gradientUnits="userSpaceOnUse" x1="-425.9014" y1="477.96" x2="-425.9014" y2="478.2197" gradientTransform="matrix(6.5701 0 0 -6.5701 2832.511 3168.5281)">
	<stop  offset="0" style="stop-color:#A6694A"/>
	<stop  offset="1" style="stop-color:#4F2A1E"/>
	<a:midPointStop  offset="0" style="stop-color:#A6694A"/>
	<a:midPointStop  offset="0.5" style="stop-color:#A6694A"/>
	<a:midPointStop  offset="1" style="stop-color:#4F2A1E"/>
</linearGradient>
<circle id="Oval_133_" fill="url(#Oval_2_)" cx="34.297" cy="27.429" r="0.853"/>
<path id="Path_1608_" fill="#1A1626" d="M33.869,27.413c0,0.59,0.855,0.59,0.855,0C34.725,26.866,33.869,26.866,33.869,27.413z"/>
<path id="Path_1607_" fill="#AB968C" d="M33.74,27.175c0,0.247,0.357,0.247,0.357,0C34.098,26.945,33.74,26.945,33.74,27.175z"/>
<path id="Path_1606_" fill="#8C5F44" d="M32.838,27.479c0.346-1.112,2.707-0.952,3.031-0.2C35.75,26.32,33.133,26.068,32.838,27.479
	z"/>
<linearGradient id="SVGID_8_" gradientUnits="userSpaceOnUse" x1="31.9463" y1="28.3799" x2="31.9463" y2="19.5498">
	<stop  offset="0" style="stop-color:#6B4435"/>
	<stop  offset="0.0585" style="stop-color:#6E4637"/>
	<stop  offset="0.6415" style="stop-color:#865947"/>
	<stop  offset="1" style="stop-color:#8F604D"/>
	<a:midPointStop  offset="0" style="stop-color:#6B4435"/>
	<a:midPointStop  offset="0.4" style="stop-color:#6B4435"/>
	<a:midPointStop  offset="1" style="stop-color:#8F604D"/>
</linearGradient>
<path fill="url(#SVGID_8_)" d="M32.002,19.55c-2.295,0-3.441,1.038-3.674,1.53c-2.775,0.633-3.668,5.307-1.59,7.3
	c0.258-2.124,0.506-3.489,1.92-4.927c0.826,1.104,2.539,1.725,4.074,1.725c-0.727-0.526-1.223-1.043-1.611-1.524
	c2.563,1.174,5.434,1.926,6.146,4.727C39.732,24.461,37.684,19.55,32.002,19.55z"/>
<path fill="#45332C" d="M34.061,31.686c-0.225-0.361-0.771-0.602-2.059-0.602s-1.834,0.24-2.061,0.602
	c-0.121,0.191,0.053,0.502,0.053,0.502c0.215,0.391,0.184,0.502,2.008,0.502c1.82,0,1.793-0.111,2.008-0.502
	C34.01,32.188,34.184,31.877,34.061,31.686z"/>
<path fill="#FFFFFF" d="M33.607,31.684c0.01-0.055-0.02-0.123-0.063-0.15c0,0-0.391-0.25-1.543-0.25c-1.15,0-1.543,0.25-1.543,0.25
	c-0.045,0.027-0.072,0.096-0.061,0.15l0.02,0.104c0.01,0.055,0.059,0.098,0.111,0.098h2.945c0.051,0,0.102-0.043,0.111-0.098
	L33.607,31.684z"/>
<path fill="#FFFFFF" d="M32.002,32.491c0.631,0,1.529,0,1.504-0.209c-0.002-0.037-0.014-0.08-0.029-0.127
	c-0.012-0.053-0.025-0.066-0.135-0.066c-0.236,0-2.498,0-2.682,0c-0.107,0-0.121,0.014-0.135,0.066
	c-0.012,0.047-0.023,0.09-0.029,0.127C30.473,32.491,31.371,32.491,32.002,32.491z"/>
<path fill="#6B4435" d="M28.328,21.079c-0.035,1.956,0.754,3.42,4.404,4.098C30.115,25.354,27.432,23.772,28.328,21.079z"/>
<path fill="#6B4435" d="M28.557,23.328c-0.953,0.938-2.021,2.566-1.818,5.052c0.189-2.055,1.133-3.745,1.986-4.841
	C28.664,23.474,28.607,23.402,28.557,23.328z"/>
<path fill="#6B4435" d="M30.191,22.708c1.912,1.826,6.615,1.708,7.074,5.672C36.039,24.524,31.881,25.39,30.191,22.708z"/>
</svg>
