<?xml version="1.0" encoding="utf-8"?>
<!-- Generator: Adobe Illustrator 15.0.0, SVG Export Plug-In . SVG Version: 6.00 Build 0)  -->
<!DOCTYPE svg PUBLIC "-//W3C//DTD SVG 1.1//EN" "http://www.w3.org/Graphics/SVG/1.1/DTD/svg11.dtd" [
	<!ENTITY ns_flows "http://ns.adobe.com/Flows/1.0/">
	<!ENTITY ns_extend "http://ns.adobe.com/Extensibility/1.0/">
	<!ENTITY ns_ai "http://ns.adobe.com/AdobeIllustrator/10.0/">
	<!ENTITY ns_graphs "http://ns.adobe.com/Graphs/1.0/">
]>
<svg version="1.1" id="Layer_1" xmlns:x="&ns_extend;" xmlns:i="&ns_ai;" xmlns:graph="&ns_graphs;"
	 xmlns="http://www.w3.org/2000/svg" xmlns:xlink="http://www.w3.org/1999/xlink" xmlns:a="http://ns.adobe.com/AdobeSVGViewerExtensions/3.0/"
	 x="0px" y="0px" width="64px" height="64px" viewBox="0 0 64 64" enable-background="new 0 0 64 64" xml:space="preserve">
<path fill="#855E45" d="M19.617,16.908c1.021-0.729,1.514,0.191,1.66,0.586c0.482,1.301,5.244-1.121,4.406-2.566
	c-0.729-1.256-0.354-2.975-0.354-2.975C24.51,11.658,20.941,7.336,19.617,16.908z"/>
<path fill="#916B50" d="M18.18,3.436c-3.295,1.139-4.111,3.779-3.063,6.537c0.237,0.625,0.018,1.802-0.678,2.654
	c-0.254,0.311-0.222,0.658-0.035,0.861c0.365,0.397,0.994,0.291,1.286,0.412c0.653,0.271,0.14,0.788,0.658,1.15
	c0.237,0.167,0.765-0.202,0.345,0.971c0.764,0.375-0.154,1.765,1.618,1.641c0.931-0.064,4.411-2.926,4.761-3.761
	c0.367-0.88-0.01-2.317-0.01-2.317c2.471-1.209,2.988-3.645,2.008-5.922C23.701,2.477,20.315,2.696,18.18,3.436z"/>
<path fill="#69452D" d="M16.349,15.051c0.353,0.141,0.268,0.471,0.268,0.471c-0.153,0.027-0.103,0.539,0.125,0.5
	c0.794-0.141,1.403-0.949,1.569-1.405C17.056,14.773,15.592,14.453,16.349,15.051z"/>
<path fill="#FFFFFF" d="M16.349,15.051c0,0,0.199,0.414,0.268,0.471c0.249-0.044,1.028-0.365,1.47-0.783L16.349,15.051z"/>
<linearGradient id="SVGID_1_" gradientUnits="userSpaceOnUse" x1="-18.0459" y1="80.2227" x2="-8.4019" y2="80.2227" gradientTransform="matrix(0.9848 -0.1736 0.1736 0.9848 18.4586 -74.346)">
	<stop  offset="0" style="stop-color:#3B2118"/>
	<stop  offset="0.5795" style="stop-color:#54352C"/>
	<stop  offset="1" style="stop-color:#614036"/>
	<a:midPointStop  offset="0" style="stop-color:#3B2118"/>
	<a:midPointStop  offset="0.4303" style="stop-color:#3B2118"/>
	<a:midPointStop  offset="1" style="stop-color:#614036"/>
</linearGradient>
<path fill="url(#SVGID_1_)" d="M23.57,4.102c-3.05-3.201-9.061,0.122-9.355,1.088c-0.105,0.35,0.236,1.105,0.589,1.566
	c1.018-0.18,2.883-1.384,4.351-0.985c2.174,0.591,0.614,5.071,2.506,4.967C21.957,10.721,24.918,5.727,23.57,4.102z"/>
<linearGradient id="SVGID_2_" gradientUnits="userSpaceOnUse" x1="-17.9868" y1="81.3438" x2="-6.0884" y2="81.3438" gradientTransform="matrix(0.9848 -0.1736 0.1736 0.9848 18.4586 -74.346)">
	<stop  offset="0" style="stop-color:#614036"/>
	<stop  offset="0.3534" style="stop-color:#5E3D33"/>
	<stop  offset="0.6441" style="stop-color:#54352B"/>
	<stop  offset="0.9118" style="stop-color:#42271E"/>
	<stop  offset="1" style="stop-color:#3B2118"/>
	<a:midPointStop  offset="0" style="stop-color:#614036"/>
	<a:midPointStop  offset="0.7455" style="stop-color:#614036"/>
	<a:midPointStop  offset="1" style="stop-color:#3B2118"/>
</linearGradient>
<path fill="url(#SVGID_2_)" d="M25.176,3.753c-0.896-1.045-2.531-2.167-5.696-1.602c-2.858,0.51-4.97,2.072-5.265,3.038
	c1.05-0.185,4.003-2.086,5.889-1.133c2.934,1.479,1.139,4.512,2.041,6.058c1.413,2.423,3.088,2.86,3.088,2.86
	C26.969,11.188,27.493,6.455,25.176,3.753z"/>
<path fill="#69452D" d="M14.412,13.49c0.346,0.582,1.871,0.453,2.217-0.391C15.938,13.811,14.212,13.15,14.412,13.49z"/>
<path fill="#916B50" d="M22.518,8.422c-1.22,0.486-1.109,3.415-0.053,3.867c0.148,0.064,0.854,0.02,1.098-0.745
	c0.135-0.425,0.792-0.946,0.76-1.725C24.279,8.823,23.729,7.941,22.518,8.422z"/>
<path id="Path_2507_" fill="#69452D" d="M22.678,8.941c-0.303,0.166-0.54,0.591-0.533,1.173c1.086-0.509,1.261,0.781,0.273,1.112
	c0.055,0.117,0.115,0.236,0.189,0.361c0.313-0.587,0.867-0.563,1.098-1.364C23.915,9.5,23.426,8.529,22.678,8.941z"/>
<path fill="#FFFFFF" d="M18.047,10.339c0.051,0.18-0.412,0.939-1.137,1.13c-0.412,0.111-0.62-0.188-0.775-0.521
	C15.799,9.573,17.522,9.779,18.047,10.339z"/>
<linearGradient id="Path_1_" gradientUnits="userSpaceOnUse" x1="-16.5298" y1="84.1895" x2="-16.5298" y2="82.7021" gradientTransform="matrix(0.9848 -0.1736 0.1736 0.9848 18.4586 -74.346)">
	<stop  offset="0" style="stop-color:#A6694A"/>
	<stop  offset="1" style="stop-color:#4F2A1E"/>
	<a:midPointStop  offset="0" style="stop-color:#A6694A"/>
	<a:midPointStop  offset="0.5" style="stop-color:#A6694A"/>
	<a:midPointStop  offset="1" style="stop-color:#4F2A1E"/>
</linearGradient>
<path id="Path_2506_" fill="url(#Path_1_)" d="M16.074,10.777c0.179,1.012,1.352,0.806,1.174-0.207
	C17.082,9.629,15.908,9.836,16.074,10.777z"/>
<path id="Path_2505_" fill="#1A1626" d="M16.189,10.71c0.089,0.506,0.674,0.403,0.584-0.103
	C16.691,10.136,16.105,10.238,16.189,10.71z"/>
<path id="Path_2504_" fill="#AB968C" d="M16.515,10.44c0.037,0.212,0.378,0.151,0.341-0.06C16.82,10.182,16.479,10.242,16.515,10.44
	z"/>
<path fill="#69452D" d="M18.047,10.339c-0.426-0.577-2.078-0.76-1.971,0.102C16.196,9.828,17.418,9.936,18.047,10.339z"/>
<path id="Path_2503_" fill="#5E4431" d="M18.095,8.848c-0.8-0.324-2.185-0.104-2.644,0.301c-0.1,0.081,0.048,0.493,0.133,0.437
	c0.659-0.459,1.814-0.671,2.549-0.419C18.23,9.197,18.215,8.889,18.095,8.848z"/>
<path fill="#3AB0A2" d="M8,58.901c0,0,2.693,2.688,6.545,2.505L17.15,62c0.205-0.33,0.092-0.45,0.092-0.45s-1.787-1.842-8.943-2.935
	C8.299,58.615,8.104,58.574,8,58.901z"/>
<path fill="#302C3B" d="M14.656,57.1c-1.131,1.209-5.602-0.896-6.357,1.516c0,0,2.488,2.525,6.338,2.342l2.605,0.593
	C20.799,55.853,14.656,57.1,14.656,57.1z"/>
<path fill="#3AB0A2" d="M11.498,57.416c0.662,1.098,1.23,1.423,1.463,0.834c0.484,0.589,0.916,0.329,1.016-0.031
	c0.57,0.45,0.955-0.062,0.363-0.897C13.992,56.87,11.32,57.12,11.498,57.416z"/>
<path fill="#3AB0A2" d="M55.816,53.982c0,0,0.893-3.713-1.256-6.936l-0.842-2.552c-0.387-0.007-0.43,0.153-0.43,0.153
	s-0.643,2.493,2.131,9.225C55.42,53.873,55.486,54.063,55.816,53.982z"/>
<path fill="#302C3B" d="M50.842,49.179c1.613,0.35,2.137,5.292,4.578,4.694c0,0,0.859-3.45-1.289-6.673l-0.842-2.552
	C49.109,45.021,49.896,46.541,50.842,49.179z"/>
<path fill="#3AB0A2" d="M52.744,51.735c0.592-1.137,0.574-1.796-0.045-1.69c0.25-0.722-0.195-0.961-0.553-0.859
	c0.088-0.725-0.547-0.791-0.951,0.151C50.99,49.869,52.586,52.042,52.744,51.735z"/>
<path fill="#916B50" d="M23.793,33.569c-2.928,2.794-7.773,8.783-7.711,10.821c0.156,5.191-1.086,11.544-1.086,11.544
	c0.24,1.089,2.854,1.563,3.443,0.775c1.104-4.981,3.354-5.796,2.574-11.344c4.207-2.774,6.414-7.316,8.357-7.803
	c0.227,5.821,5.268,12.123,6.332,12.376c1.156,0.274,5.875-1.266,13.859-1.052c0.652,0.017,0.201-3.243-0.123-3.24
	c-6.002,0.067-8.85-1.652-11.973-0.007c-0.373-3.841-2.021-5.853-2.102-9.663C35.35,35.285,23.793,33.569,23.793,33.569z"/>
<path fill="#F2F5F7" d="M14.996,55.935c-0.141,0.845-0.238,1.464-0.238,1.464s1.133,1.077,3.305,0.934
	c0.127-0.59,0.232-1.112,0.377-1.622C17.926,57.079,15.59,56.697,14.996,55.935z"/>
<path fill="#F2F5F7" d="M50.709,45.609c-0.439,0.021-0.861,0.032-1.27,0.038c0.457,0.972,0.385,2.646,0.123,3.24
	c0.379,0.002,0.758,0.005,1.146,0.016C51.361,48.921,51.035,45.595,50.709,45.609z"/>
<path fill="#1A1626" d="M30.271,42.787c0,0,4.184-0.104,6.529-1.539c-0.457-4.664-1.465-8.473-3.188-10.869
	C28.561,31.37,24.867,34.362,30.271,42.787z"/>
<path fill="#302C3B" d="M24.264,31.214c-1.43,2.349-3.828,5.737-5.369,7.202c0,0,2.303,3.003,6.461,3.602
	c3.184-2.731,15.033-4.665,8.258-11.639C28.561,31.37,24.264,31.214,24.264,31.214z"/>
<path fill="#916B50" d="M23.605,20.988c-2.453-1.246-3.742,3.428-3.734,4.715c-2.207-1.122-5.975-2.125-5.92-2.527
	c0.145-1.031-0.076-1.097-1.053-2.33c-0.27-0.341-0.857,0.208-0.857,0.208c-0.844-0.628-0.803,0.243-1.355,0.513
	c-0.516,0.25-0.307,0.676-0.793,1.03c-1.08,0.789,0.559,2.386,2.482,2.98c1.377,0.427,5.684,4.953,9.305,4.797
	C22.883,30.323,26.15,22.913,23.605,20.988z"/>
<path fill="#3AB0A2" d="M25.584,14.738c-0.954,0.582-2.934,2.616-4.307,2.756c-3.447,6.298,1.922,8.552,2.426,14.42
	c0.803,1.316,9.441,0.675,10.244-1.414C29.387,25.055,36.552,14.296,25.584,14.738z"/>
<path fill="#916B50" d="M29.816,17.705c-2.57,3.322,4.107,4.857,5.436,5.05c-1.523,1.897-5.344,7.595-5.725,7.421
	c-1.109-0.5-1.143-0.099-2.578,0.628c-0.398,0.199,0.074,0.836,0.074,0.836c-0.791,0.696,0.117,0.791,0.303,1.354
	c0.174,0.521,0.648,0.392,0.932,0.902c0.637,1.137,2.557-0.152,3.488-1.865c0.666-1.228,7.605-6.438,8.043-9.866
	C39.936,21.029,32.225,15.614,29.816,17.705z"/>
<path fill="#25A898" d="M31.018,22.102c1.08-2.349,2.467-4.096,3.07-4.567C25.527,10.261,21.258,18.668,31.018,22.102z"/>
<path fill="#69452D" d="M12.041,21.054c1.885,1.218,0.746,1.926,0.746,1.926S14.33,22.277,12.041,21.054z"/>
<path fill="#69452D" d="M11.533,21.762c1.838,1.129,0.816,1.798,0.816,1.798S13.766,22.896,11.533,21.762z"/>
<path fill="#69452D" d="M11.049,22.215c2,1.345,0.826,1.827,0.826,1.827S13.408,23.663,11.049,22.215z"/>
<path fill="#69452D" d="M10.752,22.896c2.242,1.043,0.914,2.4-0.641,0.568C11.707,24.917,12.668,24.042,10.752,22.896z"/>
</svg>
