<?xml version="1.0" encoding="utf-8"?>
<!-- Generator: Adobe Illustrator 15.0.0, SVG Export Plug-In . SVG Version: 6.00 Build 0)  -->
<!DOCTYPE svg PUBLIC "-//W3C//DTD SVG 1.1//EN" "http://www.w3.org/Graphics/SVG/1.1/DTD/svg11.dtd" [
	<!ENTITY ns_flows "http://ns.adobe.com/Flows/1.0/">
	<!ENTITY ns_extend "http://ns.adobe.com/Extensibility/1.0/">
	<!ENTITY ns_ai "http://ns.adobe.com/AdobeIllustrator/10.0/">
	<!ENTITY ns_graphs "http://ns.adobe.com/Graphs/1.0/">
]>
<svg version="1.1" id="Layer_1" xmlns:x="&ns_extend;" xmlns:i="&ns_ai;" xmlns:graph="&ns_graphs;"
	 xmlns="http://www.w3.org/2000/svg" xmlns:xlink="http://www.w3.org/1999/xlink" xmlns:a="http://ns.adobe.com/AdobeSVGViewerExtensions/3.0/"
	 x="0px" y="0px" width="64px" height="64px" viewBox="0 0 64 64" enable-background="new 0 0 64 64" xml:space="preserve">
<path fill="#26201E" d="M21.029,60.746c0,0,0.396,0.623,0,1.254h-6.188c-0.443-0.627,0-1.254,0-1.254H21.029z"/>
<path fill="#FFCC66" d="M21.584,12.18c2.04,5.063-1.268,6.449,3.433,8.412c4.991-0.105,3.102-3.156,6.484-6.672
	C30.001,11.973,24.756,10.963,21.584,12.18z"/>
<path fill="#E6B045" d="M33.598,10.287c0,0-2.836,3.211-1.898,3.68C34.515,15.379,33.634,9.68,33.598,10.287z"/>
<path fill="#E6B045" d="M20.831,8.061c0,0,1.556,3.977,0.513,4.1C18.21,12.535,21.009,7.477,20.831,8.061z"/>
<path fill="#594640" d="M20.663,8.381c-0.485,4.354,2.003,7.266,5.211,7.826c3.204,0.559,6.719-1.307,7.771-5.563
	C34.669,6.488,21.138,4.127,20.663,8.381z"/>
<path fill="#4A3E3B" d="M21.029,56.977c0,0,0.71,2.023,0,3.77c0,0-2.655,0.627-6.188,0c-0.646-1.895,0-3.77,0-3.77H21.029z"/>
<path fill="#4A3E3B" d="M38.778,52.865c0.386,1.109-1.115,8.25-5.418,9.135c-4.26,0,0.969-5.764-0.052-7.986
	C33.309,54.014,34.911,50.232,38.778,52.865z"/>
<path fill="#26201E" d="M38.778,52.865C39.952,53.762,38.888,62,33.36,62c-2.906,0,2.474-5.311,1.46-8.863
	C34.82,53.137,34.911,50.232,38.778,52.865z"/>
<path fill="#6E8189" d="M26.118,34.969c-3.021-1.824-12.782-1.551-12.782-1.551c-2.17,9.059-0.901,12.277,1.122,24.262
	c0,0,3.192,0.092,6.756-0.486c-2.109-9.486-1.759-8.111-0.203-15.857c2.27,5.299,3.057,5.576,4.316,7.271
	c1.483,1.986,8.006,6.207,8.006,6.207s1.985-3.082,5.718-1.834c0.666-2.008-8.194-6.785-9.12-8.961
	C28.912,41.602,27.254,36.248,26.118,34.969z"/>
<path fill="#3AB0A2" d="M26.664,35.436c0,0-6.435,1.678-13.639-1.783c2.606-7.266,6.329-11.59,8.308-16.342
	c1.908-1.141,7.593,1.037,7.593,1.828C28.853,23.693,25.709,27.844,26.664,35.436z"/>
<path fill="#3AB0A2" d="M33.746,11.191c3.267-10.305-12.873-13.119-13.365-2.33C21.584,13.732,31.259,15.434,33.746,11.191z"/>
<path fill="#594640" d="M29.671,12.008c1.274-4.016-5.017-5.111-5.209-0.908C24.462,11.1,27.151,12.314,29.671,12.008z"/>
<radialGradient id="SVGID_1_" cx="52.3594" cy="35.877" r="3.1006" gradientTransform="matrix(1.006 0 0 0.8401 -0.8445 5.7383)" gradientUnits="userSpaceOnUse">
	<stop  offset="0" style="stop-color:#6E8189"/>
	<stop  offset="0.1728" style="stop-color:#5F6D77"/>
	<stop  offset="0.5252" style="stop-color:#464A56"/>
	<stop  offset="0.8136" style="stop-color:#363442"/>
	<stop  offset="1" style="stop-color:#302C3B"/>
	<a:midPointStop  offset="0" style="stop-color:#6E8189"/>
	<a:midPointStop  offset="0.3879" style="stop-color:#6E8189"/>
	<a:midPointStop  offset="1" style="stop-color:#302C3B"/>
</radialGradient>
<path fill="url(#SVGID_1_)" d="M52.819,40.924c-0.468,0.832-3.184,1.316-3.382,0.096c-0.516-3.17,0.644-5.314,2.246-6.367
	C53.979,35.842,54.945,37.146,52.819,40.924z"/>
<path fill="#E6B045" d="M16.859,14.541c0.321-1.275-1.272-1.809-1.692-0.623c-3.371-0.115-2.733,2.395-3.298,2.662
	c0.512,3.166,1.94,8.549,2.736,9.023c2.432,1.447,2.548-3.412,1.753-4.852c-0.724-1.314-2.189-3.281-1.701-4.691
	C14.859,15.479,16.499,15.977,16.859,14.541z"/>
<path fill="#FFCC66" d="M10.3,15.488c-0.002-0.229,2.383,0.338,3.092,0.137c-0.136,2.23,1.209,3.27,1.875,5.602
	c3.982-2.467,8.932,0.123,7.271,1.273c-1.919,1.34-6.875,5.178-9.306,3.73C12.257,25.65,10.329,17.709,10.3,15.488z"/>
<path fill="#25A898" d="M23.213,22.701c4.037-3.279-0.006-8.012-3.316-4.402c-2.356,1.561-4.29,2.527-4.29,2.527
	c2.986,2.15,2.242,5.021,2.242,5.021S21.553,24.049,23.213,22.701z"/>
<path fill="#6E8189" d="M52.131,34.926c0.653,0.395-0.003,1.422-0.651,1.018C43.79,31.16,22.554,17.771,22.554,17.771l0.649-1.018
	C23.203,16.754,41.814,28.664,52.131,34.926z"/>
<path fill="#302C3B" d="M11.492,8.746l14.44,9.072c0.792,0.486-0.468,2.43-1.244,1.943L10.25,10.689
	C9.468,10.199,10.699,8.252,11.492,8.746z"/>
<path fill="#E6B045" d="M15.196,13.014c0.41,1.619,3.036-1.836,1.393-1.836C15.728,9.438,13.81,13.391,15.196,13.014z"/>
<path fill="#CC9C3D" d="M15.196,13.014c0,0,0.583-0.726,1.393-1.836C15.81,11.586,15.196,13.014,15.196,13.014z"/>
<path fill="#99A8AE" d="M13.815,15.516c-0.061,0.168-0.117,0.355-0.172,0.537c-1.201,0.318-3.372-0.42-3.574-0.486
	c0.159-0.803-0.158-1.975-0.043-2.723c0.279-1.846,1.627-4.75,2.655-3.506c0.291-0.361,1.015-0.09,1.132,0.289
	c0,0,0.897-0.469,1.276,0.459c0.734-0.213,1.761,0.309-0.471,3.207l1.357,0.996C15.69,15.641,14.024,14.938,13.815,15.516z"/>
<path fill="#FFCC66" d="M10.882,13c-0.206-1.859,2.481-1.84,2.593,0.596C13.25,13.891,11.338,13.717,10.882,13z"/>
</svg>
