<?xml version="1.0" encoding="utf-8"?>
<!-- Generator: Adobe Illustrator 15.0.0, SVG Export Plug-In . SVG Version: 6.00 Build 0)  -->
<!DOCTYPE svg PUBLIC "-//W3C//DTD SVG 1.1//EN" "http://www.w3.org/Graphics/SVG/1.1/DTD/svg11.dtd" [
	<!ENTITY ns_flows "http://ns.adobe.com/Flows/1.0/">
	<!ENTITY ns_extend "http://ns.adobe.com/Extensibility/1.0/">
	<!ENTITY ns_ai "http://ns.adobe.com/AdobeIllustrator/10.0/">
	<!ENTITY ns_graphs "http://ns.adobe.com/Graphs/1.0/">
]>
<svg version="1.1" id="Layer_1" xmlns:x="&ns_extend;" xmlns:i="&ns_ai;" xmlns:graph="&ns_graphs;"
	 xmlns="http://www.w3.org/2000/svg" xmlns:xlink="http://www.w3.org/1999/xlink" xmlns:a="http://ns.adobe.com/AdobeSVGViewerExtensions/3.0/"
	 x="0px" y="0px" width="64px" height="64px" viewBox="0 0 64 64" enable-background="new 0 0 64 64" xml:space="preserve">
<path fill="#18B5F8" d="M62.001,39.102c0,0-40.412,6.607-60.002,4.016V62h60.002V39.102z"/>
<path fill="#302116" d="M10.454,16.313c-0.268,0.42-0.111,1.471,0.982,1.291c2.379-0.395,1.754-1.789,4.732-2.4
	C15.144,11.846,10.831,15.721,10.454,16.313z"/>
<path fill="#614A36" d="M47.21,31.271c-1.877-9.885-4.998-20.025-7.176-20.426c-4.783-1.047-22.408-1.012-24.002-0.488
	c-0.82,0.27-5.012,1.545-8.137,2.168c-0.563,0.111-2.393,1.959-3.541,2.756c-1.629,1.131-0.375,2.477,0.879,1.75
	c1.125-0.652,2.457-1.711,3.287-1.979c2.791-0.9,5.355,1.881,8.688-0.436c6.682-0.471,17.715,2.588,18.201,3.766
	c3,7.277,1.271,10.344,2.684,15.922c-0.926,2.041-5.043,13.613-1.502,13.613c10.502,0,16.689-3.246,25.41-3.248v-9.238
	C58.628,35.432,52.728,32.072,47.21,31.271z"/>
<path fill="#302116" d="M36.868,48.271c4.473-4.379,4.471-5.26-0.002-9.635L36.868,48.271z"/>
<path fill="#302116" d="M23.11,32.955c0,0,5.971,3.613,6.465,1.986C31.06,30.049,22.118,33.072,23.11,32.955z"/>
<path fill="#302116" d="M23.11,53.951c0,0,5.971-3.611,6.465-1.984C31.06,56.859,22.118,53.836,23.11,53.951z"/>
<path fill="#614A36" d="M11.62,43.457c0,7.27,5.48,10.777,13.105,10.338c1.533-0.09,6.537-1.041,8.33-1.945
	c1.838-0.922,4.668-4.006,5.254-5.895c0.369-1.195,0.369-3.805,0-5c-0.586-1.889-3.416-4.973-5.254-5.896
	c-1.793-0.902-6.797-1.854-8.33-1.943C17.101,32.676,11.62,36.182,11.62,43.457z"/>
<path fill="#302116" d="M29.679,41.201c1.461,0,1.461,4.508,0,4.508C29.343,45.709,29.343,41.201,29.679,41.201z"/>
<path fill="#472B27" d="M22.263,35.268c-0.82,1.662-0.861,4.844-0.287,6.029c0.109,0.254,0.891,0.086,0.816-0.129
	c-0.611-1.652-0.625-4.316,0.053-5.863C22.931,35.096,22.378,35.012,22.263,35.268z"/>
<path fill="#472B27" d="M22.263,51.646c-0.82-1.662-0.861-4.848-0.287-6.033c0.109-0.254,0.891-0.086,0.816,0.129
	c-0.611,1.654-0.625,4.314,0.053,5.867C22.931,51.813,22.378,51.898,22.263,51.646z"/>
<path fill="#8E3ED6" d="M24.524,32.465c-17.535-2.281-17.535,24.26,0,21.98C21.327,51.428,21.327,35.479,24.524,32.465z"/>
<path fill="#302C3B" d="M25.772,34.416c3.967,0,3.967,8.133,0,8.133C21.804,42.549,21.804,34.416,25.772,34.416z"/>
<path fill="#44618B" d="M25.772,35.432c2.381,0,2.381,6.102,0,6.102C23.39,41.533,23.39,35.432,25.772,35.432z"/>
<path fill="#302C3B" d="M25.772,44.361c3.967,0,3.967,8.133,0,8.133C21.804,52.494,21.804,44.361,25.772,44.361z"/>
<path fill="#44618B" d="M25.772,45.377c2.381,0,2.381,6.1,0,6.1C23.39,51.477,23.39,45.377,25.772,45.377z"/>
<rect x="24.88" y="41.93" fill="#006DAE" width="1.787" height="3.051"/>
<polygon fill="#006DAE" points="26.667,33.301 26.667,35.051 24.88,35.051 24.88,33.053 "/>
<polygon fill="#006DAE" points="26.667,51.859 26.667,53.607 24.88,53.855 24.88,51.859 "/>
<path fill="#45332C" d="M35.077,41.852c1.418,0,1.418,3.207,0,3.207C32.325,45.059,32.325,41.852,35.077,41.852z"/>
<path fill-rule="evenodd" clip-rule="evenodd" fill="#8E3ED6" d="M49.472,31.725c4.633,0.662,7.754,2.691,12.529,3.379v9.955
	c-3.432-0.092-15.623,3.213-21.779,2.859c2.906-0.586,5.488-2.699,5.488-4.463c0-3.615-8.768-6.08-8.768-6.08s0.436-1.943,1.15-3.07
	C44.835,35.998,50.772,33.303,49.472,31.725z"/>
<path fill="#48C2F9" d="M1.999,62h60.002V49.18c-31.227-5.727-28.988,3.959-60.002,1.004V62z"/>
<path fill="#7ED2FC" d="M62.001,54.834c-21.779-1.336-32.574,2.998-60.002,1.498V62h60.002V54.834z"/>
</svg>
