<?xml version="1.0" encoding="utf-8"?>
<!-- Generator: Adobe Illustrator 15.0.0, SVG Export Plug-In . SVG Version: 6.00 Build 0)  -->
<!DOCTYPE svg PUBLIC "-//W3C//DTD SVG 1.1//EN" "http://www.w3.org/Graphics/SVG/1.1/DTD/svg11.dtd" [
	<!ENTITY ns_flows "http://ns.adobe.com/Flows/1.0/">
	<!ENTITY ns_extend "http://ns.adobe.com/Extensibility/1.0/">
	<!ENTITY ns_ai "http://ns.adobe.com/AdobeIllustrator/10.0/">
	<!ENTITY ns_graphs "http://ns.adobe.com/Graphs/1.0/">
]>
<svg version="1.1" id="Layer_1" xmlns:x="&ns_extend;" xmlns:i="&ns_ai;" xmlns:graph="&ns_graphs;"
	 xmlns="http://www.w3.org/2000/svg" xmlns:xlink="http://www.w3.org/1999/xlink" xmlns:a="http://ns.adobe.com/AdobeSVGViewerExtensions/3.0/"
	 x="0px" y="0px" width="64px" height="64px" viewBox="0 0 64 64" enable-background="new 0 0 64 64" xml:space="preserve">
<linearGradient id="SVGID_1_" gradientUnits="userSpaceOnUse" x1="69.5215" y1="-136.3101" x2="105.1248" y2="-132.5954" gradientTransform="matrix(1 0 0 -1 -56 -80)">
	<stop  offset="0" style="stop-color:#00D6B3"/>
	<stop  offset="1" style="stop-color:#27C89C"/>
	<a:midPointStop  offset="0" style="stop-color:#00D6B3"/>
	<a:midPointStop  offset="0.5" style="stop-color:#00D6B3"/>
	<a:midPointStop  offset="1" style="stop-color:#27C89C"/>
</linearGradient>
<path fill="url(#SVGID_1_)" d="M59.484,51.283c-0.125-0.59,1.908-1.492,0.736-2.367c-12.521-4.449-43.479-0.775-57.967,7.496
	c-0.412,0.236-0.256,0.953,0.004,1.053c6.645,2.596,15.418,3.621,24.252,3.529c14.731-0.15,29.641-3.404,35.176-7.666
	C62.945,52.361,60.055,52.113,59.484,51.283z"/>
<radialGradient id="SVGID_2_" cx="61.0127" cy="-1576.4521" r="30.2138" gradientTransform="matrix(0.9996 -0.0698 -0.0147 -0.2105 -52.2683 -274.2069)" gradientUnits="userSpaceOnUse">
	<stop  offset="0.6319" style="stop-color:#FFFFFF;stop-opacity:0.3"/>
	<stop  offset="0.7129" style="stop-color:#E5E5E6;stop-opacity:0.328"/>
	<stop  offset="0.8593" style="stop-color:#A3A1A7;stop-opacity:0.3882"/>
	<stop  offset="1" style="stop-color:#393644;stop-opacity:0.4752"/>
	<a:midPointStop  offset="0.6319" style="stop-color:#FFFFFF;stop-opacity:0.3"/>
	<a:midPointStop  offset="0.5" style="stop-color:#FFFFFF;stop-opacity:0.3"/>
	<a:midPointStop  offset="0.7129" style="stop-color:#E5E5E6;stop-opacity:0.328"/>
	<a:midPointStop  offset="0.5" style="stop-color:#E5E5E6;stop-opacity:0.328"/>
	<a:midPointStop  offset="0.8593" style="stop-color:#A3A1A7;stop-opacity:0.3882"/>
	<a:midPointStop  offset="0.5" style="stop-color:#A3A1A7;stop-opacity:0.3882"/>
	<a:midPointStop  offset="1" style="stop-color:#393644;stop-opacity:0.4752"/>
</radialGradient>
<path opacity="0.25" fill="url(#SVGID_2_)" enable-background="new    " d="M59.484,51.283c-0.125-0.59,1.908-1.492,0.736-2.367
	c-12.521-4.449-43.479-0.775-57.967,7.496c-0.412,0.236-0.256,0.953,0.004,1.053c6.645,2.596,15.418,3.621,24.252,3.529
	c14.731-0.15,29.641-3.404,35.176-7.666C62.945,52.361,60.055,52.113,59.484,51.283z"/>
<path id="Shape_5_" fill="#FFFFFF" d="M13.333,55.467c-0.375-0.777,0.449-1.576,1.861-1.787c1.396-0.205,2.846,0.254,3.221,1.031
	c0.377,0.779-0.463,1.578-1.859,1.787C15.144,56.707,13.712,56.244,13.333,55.467z M12.49,55.592
	c0.498,1.037,2.416,1.654,4.291,1.375c1.863-0.275,2.982-1.344,2.482-2.381c-0.502-1.037-2.434-1.65-4.295-1.375
	C13.089,53.488,11.986,54.557,12.49,55.592z"/>
<path id="Combined-Shape_7_" fill="#FFFFFF" d="M16.033,54.664c0.029,0.061-0.012,0.102-0.127,0.119l-0.336,0.051
	c-0.113,0.016-0.186-0.008-0.217-0.068l-0.297-0.609c-0.027-0.063,0.014-0.104,0.129-0.121l0.166-0.025
	c1.074-0.158,2.186,0.195,2.473,0.791c0.143,0.291,0.059,0.596-0.215,0.85c-0.047,0.055-0.129,0.066-0.236,0.035l-0.447-0.146
	c-0.107-0.033-0.129-0.076-0.064-0.133c0.141-0.143,0.193-0.314,0.113-0.48c-0.131-0.27-0.564-0.453-1.041-0.467L16.033,54.664z"/>
<path fill="#473834" d="M27.364,14.82c-0.924,1.257-1.988,1.649-3.625,1.144c1.5-0.355,2.256-2.884,2.256-2.884L27.364,14.82z"/>
<path fill="#473834" d="M29.733,16.236c0,0-3.063,3.261-6.681,0.816c2.5,0.216,2.943-3.973,2.943-3.973L29.733,16.236z"/>
<path fill="#FFCC66" d="M55.184,22.803c-0.225-0.719-2.496-0.525-5.012,0c-2.371,0.492-4.209-0.693-6.326-0.656l-5.383-2.01
	c-0.344,1.203-0.371,2.287-0.734,3.484c2.035,0.652,3.902,0.992,5.096,1.23c2.707,0.631,7.541-0.205,7.541-0.205
	c4.07,0.729,4.391,0.625,2.73-0.217c-0.033-0.344,1.191-0.352,2.568-0.438C58.395,23.82,55.184,22.803,55.184,22.803z"/>
<path fill="#FFCC66" d="M6.291,29.857c-0.107-0.744,2.021-1.551,4.516-2.164c2.354-0.582,3.492-2.443,5.418-3.324l3.879-3.914
	c0.832,0.936,0.65,2.352,1.5,3.271c-1.549,1.469-2.311,1.91-3.281,2.641c-2.166,1.736-6.885,3.07-6.885,3.07
	c-3.352,2.414-3.686,2.459-2.555,0.984c-0.121-0.322-1.227,0.197-2.506,0.715C3.841,32.16,6.291,29.857,6.291,29.857z"/>
<path fill-rule="evenodd" clip-rule="evenodd" fill="#8E3ED6" d="M40.508,34.758c-0.422-0.299-4.537-2.531-7.772-3.074
	c-0.352-0.955,0.275-4.232,1.218-4.721c1.665-0.861,1.626-2.787,1.858-3.893c0,0,1.201,0.248,1.916,0.551
	c0,0,1.195-1.602,0.762-3.484c-0.998-0.703-2.541-2.07-4.896-2.561c-0.98-0.203-4.294-0.76-5.371-0.748
	c-2.977,0.027-5.672,0.486-8.121,3.627c0.32,2.129,1.5,3.271,1.5,3.271s1.783-1.246,2.754-1.549
	c1.59,7.975-6.188,10.467,0.805,18.146c4.959-1.355,5.824-0.83,4.959-3.25c2.049,0.512,2.08,1.213,7.27,2.148
	C38.816,39.48,41.473,35.438,40.508,34.758z"/>
<path fill-rule="evenodd" clip-rule="evenodd" fill="#C28FEF" d="M24.357,22.178c1.313,7.713-5.668,9.92,1.506,17.492
	c0.23-0.064,0.316-0.625,0.529-0.682C20.001,31.637,26.683,28.797,24.357,22.178z"/>
<path fill-rule="evenodd" clip-rule="evenodd" fill="#FFCC66" d="M43.061,38.439c0.121-1.551-0.012-2.576-2.553-3.682
	c-2.229-0.256-3.664,3.215-3.117,4.465c0.486,0.227,1.74,0.404,1.74,0.404c-0.352,2.914,2.084,4.895,2.541,8.305
	c0.24,1.793-0.715,2.92,1.666,3.34c1.633,0.287,2.658,2.324,5.283,0.475c1.273-0.896-3.875-1.242-4.846-3.596
	C43.391,47.213,42.951,39.834,43.061,38.439z"/>
<path fill-rule="evenodd" clip-rule="evenodd" fill="#FFCC66" d="M29.998,42.645c0.977-1.25,1.176-2.994,0.393-4.629
	c-2.223-0.707-4.932,0.336-5.229,2.309c0.324,0.482,0.766,0.697,0.766,0.697c-1.939,2.273-0.793,5.41-2.264,8.588
	c-0.773,1.672-2.283,2.063-0.316,3.838c1.346,1.217,1.16,3.564,4.607,3.553c1.672-0.006-2.885-3.365-2.475-5.949
	C25.644,50.021,29.125,43.768,29.998,42.645z"/>
<path fill="#C28FEF" d="M38.576,20.744c-0.996-0.701-2.092-2.857-5.456-3.623c-0.974-0.221-3.812-0.563-4.888-0.553
	c-2.979,0.029-5.621,1.053-8.07,4.195c0,0,0,0.359,0.188,0.748c1.502-1.865,3.053-3.014,4.715-3.625
	c0.986,0.398,4.297,1.994,5.809,6.016c1.963-3.727,4.093-4.514,4.956-4.688c1.146,0.869,2.078,1.947,2.707,2.391
	C38.535,21.605,38.678,21.189,38.576,20.744z"/>
<path fill="#792CBF" d="M25.705,23.902c-0.398,1.818,2.109,3.49,3.486,2.432C27.894,26.447,26.255,24.959,25.705,23.902z"/>
<path fill="#E6B045" d="M28.079,17.369c0,2.175,5.13,2.175,5.13,0c0-0.74,0-2.406,0-2.406h-5.13
	C28.079,14.963,28.079,16.629,28.079,17.369z"/>
<path id="Path_361_" fill="#FFCC66" d="M36.269,9.385c-0.871,0.105-1.501,3.021-0.952,3.79c0.077,0.107,0.525,0.279,0.858-0.4
	c0.184-0.376,0.715-0.689,0.88-1.465C37.267,10.315,37.134,9.279,36.269,9.385z"/>
<path id="Path_360_" fill="#FFCC66" d="M25.021,9.385c0.871,0.105,1.499,3.021,0.951,3.79c-0.077,0.107-0.525,0.279-0.858-0.4
	c-0.184-0.376-0.716-0.689-0.88-1.465C24.023,10.315,24.155,9.279,25.021,9.385z"/>
<path id="Path_359_" fill="#DB9D3A" d="M36.245,9.943c-0.228,0.071-0.475,0.418-0.609,0.993c0.793-0.171,0.596,1.151-0.095,1.177
	c0.006,0.133,0.015,0.27,0.031,0.413c0.333-0.482,0.671-0.288,1.005-1.007C36.878,10.872,36.808,9.768,36.245,9.943z"/>
<path id="Path_358_" fill="#DB9D3A" d="M25.653,10.935c-0.134-0.573-0.381-0.92-0.608-0.991c-0.563-0.177-0.635,0.929-0.333,1.576
	c0.334,0.719,0.672,0.524,1.005,1.007c0.017-0.144,0.025-0.281,0.031-0.414C25.065,12.08,24.87,10.773,25.653,10.935z"/>
<path fill="#FFCC66" d="M30.644,3.779c-3.772,0-5.589,3.072-5.362,7.022c0.047,0.794,0.268,1.939,0.541,2.921
	c0.565,2.039,3.551,4.094,4.822,4.094s4.256-2.055,4.823-4.094c0.272-0.981,0.493-2.127,0.54-2.921
	C36.233,6.852,34.416,3.779,30.644,3.779z"/>
<path fill="#D47706" d="M30.643,14.609c-0.883-0.389-0.891-0.016-2.255,0.076c0.513,0.581,0.89,1.329,2.255,1.329
	c1.568,0,1.833-0.849,2.258-1.329C31.534,14.594,31.528,14.221,30.643,14.609z"/>
<path fill="#FFFFFF" d="M28.797,14.83c0.891,0.928,2.813,0.915,3.693,0.001C31.118,14.979,30.17,14.979,28.797,14.83z"/>
<path fill="#966F42" d="M34.652,9.487c-0.82-0.488-2.29-0.548-2.871-0.215c-0.123,0.066-0.091,0.42,0.016,0.375
	c0.83-0.345,2.093-0.362,2.873,0.037C34.773,9.737,34.776,9.559,34.652,9.487z"/>
<path fill="#966F42" d="M26.635,9.487c0.82-0.488,2.289-0.548,2.872-0.215c0.124,0.066,0.091,0.42-0.017,0.375
	c-0.83-0.345-2.093-0.362-2.873,0.037C26.514,9.737,26.512,9.559,26.635,9.487z"/>
<path fill="#DB9D3A" d="M31.493,13.355c-0.09-0.063-0.301,0.034-0.85,0.034c-0.547,0-0.758-0.097-0.848-0.034
	c-0.107,0.076,0.064,0.418,0.848,0.418C31.428,13.773,31.6,13.432,31.493,13.355z"/>
<path id="Path_357_" fill="#FFFFFF" d="M29.805,10.969c0.031,0.25-0.138,0.546-0.607,0.768c-0.297,0.142-0.918,0.308-1.732-0.036
	c-0.365-0.154-0.721-0.634-0.689-0.898C27.218,9.969,29.391,9.847,29.805,10.969z"/>
<linearGradient id="Oval_1_" gradientUnits="userSpaceOnUse" x1="-424.1108" y1="480.4678" x2="-424.1108" y2="480.7275" gradientTransform="matrix(6.5701 0 0 -6.5701 2814.7805 3168.5281)">
	<stop  offset="0" style="stop-color:#A6694A"/>
	<stop  offset="1" style="stop-color:#4F2A1E"/>
	<a:midPointStop  offset="0" style="stop-color:#A6694A"/>
	<a:midPointStop  offset="0.5" style="stop-color:#A6694A"/>
	<a:midPointStop  offset="1" style="stop-color:#4F2A1E"/>
</linearGradient>
<circle id="Oval_32_" fill="url(#Oval_1_)" cx="28.331" cy="10.953" r="0.854"/>
<path id="Path_356_" fill="#1A1626" d="M27.904,10.937c0,0.591,0.854,0.591,0.854,0C28.758,10.389,27.904,10.389,27.904,10.937z"/>
<path id="Path_355_" fill="#AB968C" d="M27.774,10.697c0,0.248,0.357,0.248,0.357,0C28.131,10.468,27.774,10.468,27.774,10.697z"/>
<path id="Path_349_" fill="#45332C" d="M29.809,11.002c-0.347-1.114-2.711-0.95-3.033-0.2C26.896,9.842,29.514,9.589,29.809,11.002z
	"/>
<path id="Path_348_" fill="#FFFFFF" d="M31.483,10.969c-0.031,0.25,0.139,0.546,0.607,0.768c0.298,0.142,0.917,0.308,1.732-0.036
	c0.365-0.154,0.721-0.634,0.689-0.898C34.07,9.969,31.897,9.847,31.483,10.969z"/>
<linearGradient id="Oval_2_" gradientUnits="userSpaceOnUse" x1="-426.1079" y1="480.4678" x2="-426.1079" y2="480.7275" gradientTransform="matrix(6.5701 0 0 -6.5701 2832.511 3168.5281)">
	<stop  offset="0" style="stop-color:#A6694A"/>
	<stop  offset="1" style="stop-color:#4F2A1E"/>
	<a:midPointStop  offset="0" style="stop-color:#A6694A"/>
	<a:midPointStop  offset="0.5" style="stop-color:#A6694A"/>
	<a:midPointStop  offset="1" style="stop-color:#4F2A1E"/>
</linearGradient>
<circle id="Oval_31_" fill="url(#Oval_2_)" cx="32.939" cy="10.953" r="0.854"/>
<path id="Path_347_" fill="#1A1626" d="M32.512,10.937c0,0.591,0.853,0.591,0.853,0C33.365,10.389,32.512,10.389,32.512,10.937z"/>
<path id="Path_346_" fill="#AB968C" d="M32.382,10.697c0,0.248,0.358,0.248,0.358,0C32.741,10.468,32.382,10.468,32.382,10.697z"/>
<path id="Path_345_" fill="#45332C" d="M31.48,11.002c0.347-1.113,2.708-0.954,3.032-0.2C34.392,9.842,31.775,9.589,31.48,11.002z"
	/>
<linearGradient id="SVGID_3_" gradientUnits="userSpaceOnUse" x1="30.5708" y1="11.3271" x2="30.5708" y2="3">
	<stop  offset="0" style="stop-color:#473834"/>
	<stop  offset="0.2717" style="stop-color:#594640"/>
	<stop  offset="0.7226" style="stop-color:#715950"/>
	<stop  offset="1" style="stop-color:#7A6056"/>
	<a:midPointStop  offset="0" style="stop-color:#473834"/>
	<a:midPointStop  offset="0.4" style="stop-color:#473834"/>
	<a:midPointStop  offset="1" style="stop-color:#7A6056"/>
</linearGradient>
<path fill="url(#SVGID_3_)" d="M30.631,3c-2.275,0-3.412,1.039-3.643,1.532c-1.859,0.651-3.024,3.613-1.67,6.795
	c0.304-2.487,0.705-3.223,2.801-5.203c2.738,2.19,6.944,1.76,7.825,5.203C37.481,7.058,35.099,3,30.631,3z"/>
<path fill="#473834" d="M28.12,6.124c-1.849,1.304-2.956,3.112-2.801,5.203C25.678,8.992,26.431,7.956,28.12,6.124z"/>
<path fill="#473834" d="M26.988,4.532c1.948,3.904,8.222,2.528,8.956,6.795C34.698,7.407,28.448,8.788,26.988,4.532z"/>
</svg>
