<?xml version="1.0" encoding="utf-8"?>
<!-- Generator: Adobe Illustrator 15.0.0, SVG Export Plug-In . SVG Version: 6.00 Build 0)  -->
<!DOCTYPE svg PUBLIC "-//W3C//DTD SVG 1.1//EN" "http://www.w3.org/Graphics/SVG/1.1/DTD/svg11.dtd" [
	<!ENTITY ns_flows "http://ns.adobe.com/Flows/1.0/">
	<!ENTITY ns_extend "http://ns.adobe.com/Extensibility/1.0/">
	<!ENTITY ns_ai "http://ns.adobe.com/AdobeIllustrator/10.0/">
	<!ENTITY ns_graphs "http://ns.adobe.com/Graphs/1.0/">
]>
<svg version="1.1" id="Layer_1" xmlns:x="&ns_extend;" xmlns:i="&ns_ai;" xmlns:graph="&ns_graphs;"
	 xmlns="http://www.w3.org/2000/svg" xmlns:xlink="http://www.w3.org/1999/xlink" xmlns:a="http://ns.adobe.com/AdobeSVGViewerExtensions/3.0/"
	 x="0px" y="0px" width="64px" height="64px" viewBox="0 0 64 64" enable-background="new 0 0 64 64" xml:space="preserve">
<linearGradient id="SVGID_1_" gradientUnits="userSpaceOnUse" x1="32.0005" y1="62" x2="32.0005" y2="42">
	<stop  offset="0" style="stop-color:#9BE323"/>
	<stop  offset="1" style="stop-color:#52A100"/>
	<a:midPointStop  offset="0" style="stop-color:#9BE323"/>
	<a:midPointStop  offset="0.5" style="stop-color:#9BE323"/>
	<a:midPointStop  offset="1" style="stop-color:#52A100"/>
</linearGradient>
<ellipse fill="url(#SVGID_1_)" cx="32" cy="52" rx="30" ry="10"/>
<linearGradient id="SVGID_2_" gradientUnits="userSpaceOnUse" x1="17.5361" y1="42.5977" x2="23.7969" y2="42.5977">
	<stop  offset="0" style="stop-color:#91632E"/>
	<stop  offset="0.1992" style="stop-color:#8C5F2C"/>
	<stop  offset="0.4407" style="stop-color:#7D5425"/>
	<stop  offset="0.7042" style="stop-color:#65421B"/>
	<stop  offset="0.9816" style="stop-color:#43290C"/>
	<stop  offset="1" style="stop-color:#40270B"/>
	<a:midPointStop  offset="0" style="stop-color:#91632E"/>
	<a:midPointStop  offset="0.6667" style="stop-color:#91632E"/>
	<a:midPointStop  offset="1" style="stop-color:#40270B"/>
</linearGradient>
<path fill="url(#SVGID_2_)" d="M23.129,38.372h-4.925c0,0-0.668,4.989-0.668,7.527c0,1.231,6.261,1.231,6.261,0
	C23.797,44.379,23.129,38.372,23.129,38.372z"/>
<radialGradient id="SVGID_3_" cx="42.8066" cy="109.9824" r="22.8751" gradientTransform="matrix(0.6667 0 0 0.7191 -7.8715 -47.4118)" gradientUnits="userSpaceOnUse">
	<stop  offset="0" style="stop-color:#83B52D"/>
	<stop  offset="0.2551" style="stop-color:#72A127"/>
	<stop  offset="0.7765" style="stop-color:#466C17"/>
	<stop  offset="1" style="stop-color:#325410"/>
	<a:midPointStop  offset="0" style="stop-color:#83B52D"/>
	<a:midPointStop  offset="0.5455" style="stop-color:#83B52D"/>
	<a:midPointStop  offset="1" style="stop-color:#325410"/>
</radialGradient>
<path fill="url(#SVGID_3_)" d="M39.333,40.688c0,0-7.837-2.581-18.62-20.517C19.648,18.4,15.59,32.816,2,40.688
	c0,0,4.028,1.056,11.045-0.829c0.725-0.193-1.148,2.562-1.148,2.562s5.091-2.208,6.955-2.076c1.584,0.112,5.526,2.979,5.526,2.979
	s1.307-3.615,1.935-3.316c2.289,1.094,6.301,2.02,6.301,2.02s-2.733-2.524-1.994-2.524C31.357,39.503,39.333,40.688,39.333,40.688z"
	/>
<radialGradient id="SVGID_4_" cx="42.8066" cy="102.2402" r="23.3949" gradientTransform="matrix(0.6667 0 0 0.7191 -7.8715 -47.4118)" gradientUnits="userSpaceOnUse">
	<stop  offset="0" style="stop-color:#92C932"/>
	<stop  offset="0.2313" style="stop-color:#8EC531"/>
	<stop  offset="0.4674" style="stop-color:#83B92C"/>
	<stop  offset="0.7058" style="stop-color:#6FA425"/>
	<stop  offset="0.9444" style="stop-color:#54881C"/>
	<stop  offset="1" style="stop-color:#4D8019"/>
	<a:midPointStop  offset="0" style="stop-color:#92C932"/>
	<a:midPointStop  offset="0.703" style="stop-color:#92C932"/>
	<a:midPointStop  offset="1" style="stop-color:#4D8019"/>
</radialGradient>
<path fill="url(#SVGID_4_)" d="M39.333,36.2c0,0-7.837-2.846-18.62-22.604C19.648,11.645,15.59,27.527,2,36.2
	c0,0,4.028,1.162,11.045-0.913c0.725-0.215-1.148,2.822-1.148,2.822s5.091-2.434,6.955-2.289c1.584,0.126,5.334,2.959,5.334,2.959
	s0.635-3.579,1.263-3.249c2.289,1.206,7.164,2.144,7.164,2.144s-2.733-2.779-1.994-2.779C31.357,34.895,39.333,36.2,39.333,36.2z"/>
<radialGradient id="SVGID_5_" cx="42.8066" cy="98.0479" r="18.9071" gradientTransform="matrix(0.6667 0 0 0.7191 -7.8715 -47.4118)" gradientUnits="userSpaceOnUse">
	<stop  offset="0" style="stop-color:#83B52D"/>
	<stop  offset="0.2551" style="stop-color:#72A127"/>
	<stop  offset="0.7765" style="stop-color:#466C17"/>
	<stop  offset="1" style="stop-color:#325410"/>
	<a:midPointStop  offset="0" style="stop-color:#83B52D"/>
	<a:midPointStop  offset="0.5455" style="stop-color:#83B52D"/>
	<a:midPointStop  offset="1" style="stop-color:#325410"/>
</radialGradient>
<path fill="url(#SVGID_5_)" d="M6.086,30.909c0,0,6.204-2.359,14.627-18.742c0.832-1.619,3.919,11.551,14.535,18.742
	c0,0-2.869,1.048-8.352-0.672c-0.566-0.179,0.147,2.531,0.147,2.531s-3.422-2.294-4.876-2.173c-1.238,0.103-4.537,3.557-4.537,3.557
	s-1.392-4.144-1.883-3.871c-1.788,1-4.413,1.851-4.413,1.851s2.134-2.304,1.557-2.304S6.086,30.909,6.086,30.909z"/>
<radialGradient id="SVGID_6_" cx="42.8066" cy="92.0371" r="18.9905" gradientTransform="matrix(0.6667 0 0 0.7191 -7.8715 -47.4118)" gradientUnits="userSpaceOnUse">
	<stop  offset="0" style="stop-color:#92C932"/>
	<stop  offset="0.2313" style="stop-color:#8EC531"/>
	<stop  offset="0.4674" style="stop-color:#83B92C"/>
	<stop  offset="0.7058" style="stop-color:#6FA425"/>
	<stop  offset="0.9444" style="stop-color:#54881C"/>
	<stop  offset="1" style="stop-color:#4D8019"/>
	<a:midPointStop  offset="0" style="stop-color:#92C932"/>
	<a:midPointStop  offset="0.703" style="stop-color:#92C932"/>
	<a:midPointStop  offset="1" style="stop-color:#4D8019"/>
</radialGradient>
<path fill="url(#SVGID_6_)" d="M6.086,26.442c0,0,6.204-2.36,14.627-18.744c0.832-1.618,3.919,11.553,14.535,18.744
	c0,0-3.146,0.964-8.627-0.756c-0.566-0.18,0.896,2.338,0.896,2.338s-3.136-1.868-4.591-1.747c-1.238,0.104-4.807,3.698-4.807,3.698
	s-0.698-4.364-1.188-4.089c-1.789,1-5.596,1.777-5.596,1.777s2.134-2.305,1.557-2.305S6.086,26.442,6.086,26.442z"/>
<radialGradient id="SVGID_7_" cx="43.291" cy="88.8779" r="15.0524" gradientTransform="matrix(0.6667 0 0 0.7191 -7.8715 -47.4118)" gradientUnits="userSpaceOnUse">
	<stop  offset="0" style="stop-color:#83B52D"/>
	<stop  offset="0.2551" style="stop-color:#72A127"/>
	<stop  offset="0.7765" style="stop-color:#466C17"/>
	<stop  offset="1" style="stop-color:#325410"/>
	<a:midPointStop  offset="0" style="stop-color:#83B52D"/>
	<a:midPointStop  offset="0.5455" style="stop-color:#83B52D"/>
	<a:midPointStop  offset="1" style="stop-color:#325410"/>
</radialGradient>
<path fill="url(#SVGID_7_)" d="M33.217,22.04c0,0-5.441-1.664-12.503-13.216c-0.698-1.14-3.048,8.147-11.951,13.216
	c0,0,2.64,0.68,7.236-0.533c0.474-0.126-0.752,1.65-0.752,1.65s3.552-1.294,4.772-1.208c1.038,0.071,3.609,2.318,3.609,2.318
	s0.543-2.622,0.955-2.428c1.499,0.705,4.232,1.061,4.232,1.061s-1.789-1.625-1.306-1.625C27.993,21.276,33.217,22.04,33.217,22.04z"
	/>
<radialGradient id="SVGID_8_" cx="43.292" cy="84.002" r="14.4944" gradientTransform="matrix(0.6667 0 0 0.7191 -7.8715 -47.4118)" gradientUnits="userSpaceOnUse">
	<stop  offset="0" style="stop-color:#92C932"/>
	<stop  offset="0.2313" style="stop-color:#8EC531"/>
	<stop  offset="0.4674" style="stop-color:#83B92C"/>
	<stop  offset="0.7058" style="stop-color:#6FA425"/>
	<stop  offset="0.9444" style="stop-color:#54881C"/>
	<stop  offset="1" style="stop-color:#4D8019"/>
	<a:midPointStop  offset="0" style="stop-color:#92C932"/>
	<a:midPointStop  offset="0.703" style="stop-color:#92C932"/>
	<a:midPointStop  offset="1" style="stop-color:#4D8019"/>
</radialGradient>
<path fill="url(#SVGID_8_)" d="M32.685,18.679c0,0-5.216-1.664-11.971-13.217c-0.667-1.141-2.904,8.146-11.418,13.217
	c0,0,2.523,0.679,6.92-0.536c0.453-0.124-0.944,2.474-0.944,2.474s3.766-2.105,4.931-2.021c0.993,0.073,2.728,2.021,2.728,2.021
	s0.663-2.523,1.056-2.329c1.434,0.704,4.488,1.253,4.488,1.253s-1.712-1.626-1.25-1.626C27.688,17.915,32.685,18.679,32.685,18.679z
	"/>
<radialGradient id="SVGID_9_" cx="42.8076" cy="80.6738" r="10.4048" gradientTransform="matrix(0.6667 0 0 0.7191 -7.8715 -47.4118)" gradientUnits="userSpaceOnUse">
	<stop  offset="0" style="stop-color:#83B52D"/>
	<stop  offset="0.2551" style="stop-color:#72A127"/>
	<stop  offset="0.7765" style="stop-color:#466C17"/>
	<stop  offset="1" style="stop-color:#325410"/>
	<a:midPointStop  offset="0" style="stop-color:#83B52D"/>
	<a:midPointStop  offset="0.5455" style="stop-color:#83B52D"/>
	<a:midPointStop  offset="1" style="stop-color:#325410"/>
</radialGradient>
<path fill="url(#SVGID_9_)" d="M12.524,14.667c0,0,3.484-1.245,8.189-9.897c0.465-0.853,2.168,6.101,8.096,9.897
	c0,0-0.797,0.392-3.856-0.516c-0.316-0.094-0.46,1.35-0.46,1.35s-1.463-1.414-2.276-1.35c-0.691,0.052-2.703,2.347-2.703,2.347
	s-0.659-2.27-0.934-2.126c-0.999,0.529-3.32,1.671-3.32,1.671s1.388-1.947,1.065-1.947C16.004,14.096,12.524,14.667,12.524,14.667z"
	/>
<radialGradient id="SVGID_10_" cx="42.8076" cy="76.4336" r="9.6262" gradientTransform="matrix(0.6667 0 0 1.4381 -7.8715 -102.3727)" gradientUnits="userSpaceOnUse">
	<stop  offset="0" style="stop-color:#92C932"/>
	<stop  offset="0.2313" style="stop-color:#8EC531"/>
	<stop  offset="0.4674" style="stop-color:#83B92C"/>
	<stop  offset="0.7058" style="stop-color:#6FA425"/>
	<stop  offset="0.9444" style="stop-color:#54881C"/>
	<stop  offset="1" style="stop-color:#4D8019"/>
	<a:midPointStop  offset="0" style="stop-color:#92C932"/>
	<a:midPointStop  offset="0.703" style="stop-color:#92C932"/>
	<a:midPointStop  offset="1" style="stop-color:#4D8019"/>
</radialGradient>
<path fill="url(#SVGID_10_)" d="M13.19,11.968c0,0,3.205-1.244,7.523-9.896c0.427-0.853,1.987,6.1,7.431,9.896
	c0,0-0.753,0.253-3.563-0.655c-0.291-0.094-0.402,1.493-0.402,1.493s-1.689-1.276-2.435-1.214c-0.634,0.056-1.897,1.506-1.897,1.506
	s-0.845-1.566-1.095-1.423c-0.918,0.528-2.87,0.939-2.87,0.939s1.094-1.217,0.798-1.217C16.385,11.396,13.19,11.968,13.19,11.968z"
	/>
<path fill="#CFD8DD" d="M21.961,46.477c-0.645,1.561-1.202,3.277-1.627,5.189l0.626,0.207c0.445-2.001,1.036-3.789,1.727-5.396
	H21.961z"/>
<path fill="#CFD8DD" d="M55.314,46.477c0.689,1.607,1.279,3.396,1.725,5.396l0.627-0.207c-0.426-1.912-0.982-3.629-1.627-5.189
	H55.314z"/>
<radialGradient id="SVGID_11_" cx="43.4023" cy="55.9648" r="14.5267" gradientTransform="matrix(0.9355 0 0 0.9808 -1.6001 -17.1565)" gradientUnits="userSpaceOnUse">
	<stop  offset="0" style="stop-color:#FFC166"/>
	<stop  offset="0.2217" style="stop-color:#FDBC5C"/>
	<stop  offset="0.5927" style="stop-color:#F6AE43"/>
	<stop  offset="1" style="stop-color:#ED9A1F"/>
	<a:midPointStop  offset="0" style="stop-color:#FFC166"/>
	<a:midPointStop  offset="0.5939" style="stop-color:#FFC166"/>
	<a:midPointStop  offset="1" style="stop-color:#ED9A1F"/>
</radialGradient>
<path fill="url(#SVGID_11_)" d="M56.18,46.764C50.674,30.567,39,28.7,39,28.7s-11.674,1.867-17.178,18.063H56.18z"/>
<path fill="#D47706" d="M55.391,46.764C50.139,36.252,39,35.04,39,35.04s-11.139,1.212-16.391,11.724H55.391z"/>
<path fill="#302C3B" d="M56.894,51.596c-0.159,1.616-0.565,3.704-0.381,3.704c0.243,0,0.854-1.638,1.472-3.427
	C58.151,51.387,56.945,51.083,56.894,51.596z"/>
<path fill="#302C3B" d="M21.106,51.596c0.16,1.616,0.566,3.704,0.381,3.704c-0.244,0-0.854-1.638-1.471-3.427
	C19.849,51.387,21.055,51.083,21.106,51.596z"/>
<radialGradient id="SVGID_12_" cx="43.4014" cy="65.2881" r="15.8278" gradientTransform="matrix(0.9355 0 0 0.5638 -1.5996 10.0683)" gradientUnits="userSpaceOnUse">
	<stop  offset="0.2667" style="stop-color:#99A8AE"/>
	<stop  offset="0.469" style="stop-color:#96A4AB"/>
	<stop  offset="0.65" style="stop-color:#8C9AA0"/>
	<stop  offset="0.8228" style="stop-color:#7B878F"/>
	<stop  offset="0.9897" style="stop-color:#646E77"/>
	<stop  offset="1" style="stop-color:#626C75"/>
	<a:midPointStop  offset="0.2667" style="stop-color:#99A8AE"/>
	<a:midPointStop  offset="0.7295" style="stop-color:#99A8AE"/>
	<a:midPointStop  offset="1" style="stop-color:#626C75"/>
</radialGradient>
<path fill="url(#SVGID_12_)" d="M39,35.44c0,0-10.728,1.169-15.787,11.323h31.575C49.728,36.609,39,35.44,39,35.44z"/>
<radialGradient id="SVGID_13_" cx="43.4014" cy="69.2891" r="17.5784" gradientTransform="matrix(0.9355 0 0 1.0548 -1.5996 -22.2903)" gradientUnits="userSpaceOnUse">
	<stop  offset="0.2909" style="stop-color:#73868C"/>
	<stop  offset="0.4878" style="stop-color:#6E7F85"/>
	<stop  offset="0.7656" style="stop-color:#5F6D73"/>
	<stop  offset="1" style="stop-color:#4F585E"/>
	<a:midPointStop  offset="0.2909" style="stop-color:#73868C"/>
	<a:midPointStop  offset="0.6325" style="stop-color:#73868C"/>
	<a:midPointStop  offset="1" style="stop-color:#4F585E"/>
</radialGradient>
<path fill="url(#SVGID_13_)" d="M54.788,46.764c-10.519-0.627-21.058-0.627-31.575,0c-0.665,2.172-1.31,5.852-1.74,8.536
	c11.627-0.767,23.428-0.767,35.055,0C56.098,52.614,55.452,48.936,54.788,46.764z"/>
<linearGradient id="SVGID_14_" gradientUnits="userSpaceOnUse" x1="45.125" y1="38.1211" x2="45.125" y2="24.6714" gradientTransform="matrix(0.9551 0 0 0.9506 -4.0984 14.1448)">
	<stop  offset="0" style="stop-color:#5B666E"/>
	<stop  offset="0.3154" style="stop-color:#59636B"/>
	<stop  offset="0.5504" style="stop-color:#525963"/>
	<stop  offset="0.7594" style="stop-color:#464955"/>
	<stop  offset="0.9521" style="stop-color:#353341"/>
	<stop  offset="1" style="stop-color:#302C3B"/>
	<a:midPointStop  offset="0" style="stop-color:#5B666E"/>
	<a:midPointStop  offset="0.7636" style="stop-color:#5B666E"/>
	<a:midPointStop  offset="1" style="stop-color:#302C3B"/>
</linearGradient>
<path fill="url(#SVGID_14_)" d="M45.906,49.535c-0.182,1.129-13.631,1.129-13.811,0c-0.439-2.754,1.325-8.282,2.255-10.938
	c0.47-1.335,8.831-1.335,9.3,0C44.58,41.253,46.346,46.781,45.906,49.535z"/>
<rect x="38.834" y="37.306" fill="#1A1626" width="0.301" height="9.239"/>
<rect x="31.727" y="46.384" fill="#1A1626" width="14.517" height="0.301"/>
<linearGradient id="SVGID_15_" gradientUnits="userSpaceOnUse" x1="39" y1="50.9551" x2="39" y2="37.0225">
	<stop  offset="0" style="stop-color:#FFC166"/>
	<stop  offset="0.1689" style="stop-color:#FABA5C"/>
	<stop  offset="0.4516" style="stop-color:#EDA843"/>
	<stop  offset="0.8111" style="stop-color:#D88B19"/>
	<stop  offset="1" style="stop-color:#CC7A00"/>
	<a:midPointStop  offset="0" style="stop-color:#FFC166"/>
	<a:midPointStop  offset="0.5939" style="stop-color:#FFC166"/>
	<a:midPointStop  offset="1" style="stop-color:#CC7A00"/>
</linearGradient>
<path fill="url(#SVGID_15_)" d="M44.068,38.115c-0.513-1.457-9.624-1.457-10.136,0c-1.013,2.893-2.936,8.918-2.458,11.918
	c0.195,1.229,14.855,1.229,15.051,0C47.003,47.033,45.082,41.008,44.068,38.115z M45.906,49.535c-0.182,1.129-13.631,1.129-13.811,0
	c-0.439-2.754,1.325-8.282,2.255-10.938c0.47-1.335,8.831-1.335,9.3,0C44.58,41.253,46.346,46.781,45.906,49.535z"/>
</svg>
