<?xml version="1.0" encoding="utf-8"?>
<!-- Generator: Adobe Illustrator 15.0.0, SVG Export Plug-In . SVG Version: 6.00 Build 0)  -->
<!DOCTYPE svg PUBLIC "-//W3C//DTD SVG 1.1//EN" "http://www.w3.org/Graphics/SVG/1.1/DTD/svg11.dtd" [
	<!ENTITY ns_flows "http://ns.adobe.com/Flows/1.0/">
	<!ENTITY ns_extend "http://ns.adobe.com/Extensibility/1.0/">
	<!ENTITY ns_ai "http://ns.adobe.com/AdobeIllustrator/10.0/">
	<!ENTITY ns_graphs "http://ns.adobe.com/Graphs/1.0/">
]>
<svg version="1.1" id="Layer_1" xmlns:x="&ns_extend;" xmlns:i="&ns_ai;" xmlns:graph="&ns_graphs;"
	 xmlns="http://www.w3.org/2000/svg" xmlns:xlink="http://www.w3.org/1999/xlink" xmlns:a="http://ns.adobe.com/AdobeSVGViewerExtensions/3.0/"
	 x="0px" y="0px" width="64px" height="64px" viewBox="0 0 64 64" enable-background="new 0 0 64 64" xml:space="preserve">
<linearGradient id="SVGID_1_" gradientUnits="userSpaceOnUse" x1="32.0005" y1="62" x2="32.0005" y2="2.0005">
	<stop  offset="0" style="stop-color:#DAF0FD"/>
	<stop  offset="0.3313" style="stop-color:#D7EFFD"/>
	<stop  offset="0.6218" style="stop-color:#CCECFD"/>
	<stop  offset="0.8962" style="stop-color:#BAE7FD"/>
	<stop  offset="1" style="stop-color:#B1E5FD"/>
	<a:midPointStop  offset="0" style="stop-color:#DAF0FD"/>
	<a:midPointStop  offset="0.7333" style="stop-color:#DAF0FD"/>
	<a:midPointStop  offset="1" style="stop-color:#B1E5FD"/>
</linearGradient>
<rect x="2" y="2" fill="url(#SVGID_1_)" width="60" height="60"/>
<rect x="42.157" y="21.349" fill="#FFDD9C" width="7.334" height="22.806"/>
<rect x="48.824" y="21.349" fill="#E3C07D" width="5.333" height="22.806"/>
<rect x="52.707" y="22.349" opacity="0.15" fill="#4E5E67" width="0.701" height="23.644"/>
<rect x="51.308" y="22.349" opacity="0.15" fill="#4E5E67" width="0.7" height="23.644"/>
<rect x="49.907" y="22.349" opacity="0.15" fill="#4E5E67" width="0.7" height="23.644"/>
<rect x="47.107" y="22.349" opacity="0.15" fill="#4E5E67" width="0.699" height="23.644"/>
<rect x="45.707" y="22.349" opacity="0.15" fill="#4E5E67" width="0.699" height="23.644"/>
<rect x="44.307" y="22.349" opacity="0.15" fill="#4E5E67" width="0.7" height="23.644"/>
<rect x="42.906" y="22.349" opacity="0.15" fill="#4E5E67" width="0.7" height="23.644"/>
<rect x="36.205" y="32.86" fill="#B2F0D1" width="6.498" height="1.4"/>
<rect x="40.93" y="32.86" fill="#8CDBB3" width="3.545" height="1.4"/>
<rect x="34.434" y="33.983" fill="#8CDBB3" width="8.27" height="26.604"/>
<rect x="42.111" y="33.983" fill="#5BBA8B" width="4.135" height="26.604"/>
<rect x="34.434" y="34.684" opacity="0.15" fill="#4E5E67" width="11.813" height="0.7"/>
<rect x="34.434" y="36.084" opacity="0.15" fill="#4E5E67" width="11.813" height="0.7"/>
<rect x="34.434" y="37.483" opacity="0.15" fill="#4E5E67" width="11.813" height="0.701"/>
<rect x="34.434" y="38.884" opacity="0.15" fill="#4E5E67" width="11.813" height="0.7"/>
<rect x="34.434" y="40.284" opacity="0.15" fill="#4E5E67" width="11.813" height="0.7"/>
<rect x="34.434" y="41.685" opacity="0.15" fill="#4E5E67" width="11.813" height="0.7"/>
<rect x="34.434" y="43.085" opacity="0.15" fill="#4E5E67" width="11.813" height="0.699"/>
<rect x="34.434" y="44.484" opacity="0.15" fill="#4E5E67" width="11.813" height="0.7"/>
<rect x="34.434" y="45.885" opacity="0.15" fill="#4E5E67" width="11.813" height="0.7"/>
<rect x="34.434" y="47.285" opacity="0.15" fill="#4E5E67" width="11.813" height="0.7"/>
<rect x="34.434" y="48.686" opacity="0.15" fill="#4E5E67" width="11.813" height="0.7"/>
<rect x="34.434" y="50.086" opacity="0.15" fill="#4E5E67" width="11.813" height="0.699"/>
<rect x="34.434" y="51.485" opacity="0.15" fill="#4E5E67" width="11.813" height="0.7"/>
<rect x="34.434" y="52.886" opacity="0.15" fill="#4E5E67" width="11.813" height="0.7"/>
<rect x="34.434" y="54.286" opacity="0.15" fill="#4E5E67" width="11.813" height="0.699"/>
<rect x="34.434" y="55.687" opacity="0.15" fill="#4E5E67" width="11.813" height="0.7"/>
<rect x="34.434" y="57.086" opacity="0.15" fill="#4E5E67" width="11.813" height="0.7"/>
<rect x="34.434" y="58.486" opacity="0.15" fill="#4E5E67" width="11.813" height="0.7"/>
<rect x="12.234" y="16" fill="#B3C2C6" width="10" height="2"/>
<linearGradient id="SVGID_2_" gradientUnits="userSpaceOnUse" x1="10.2344" y1="26.5" x2="24.2344" y2="26.5">
	<stop  offset="0.3273" style="stop-color:#E6EBEF"/>
	<stop  offset="0.5251" style="stop-color:#D6DEE2"/>
	<stop  offset="0.8545" style="stop-color:#B3C2C6"/>
	<a:midPointStop  offset="0.3273" style="stop-color:#E6EBEF"/>
	<a:midPointStop  offset="0.5576" style="stop-color:#E6EBEF"/>
	<a:midPointStop  offset="0.8545" style="stop-color:#B3C2C6"/>
</linearGradient>
<rect x="10.234" y="17" fill="url(#SVGID_2_)" width="14" height="19"/>
<linearGradient id="SVGID_3_" gradientUnits="userSpaceOnUse" x1="9.2344" y1="42" x2="25.2344" y2="42">
	<stop  offset="0.1455" style="stop-color:#CFD8DD"/>
	<stop  offset="0.3186" style="stop-color:#CAD3D8"/>
	<stop  offset="0.5356" style="stop-color:#BAC5CB"/>
	<stop  offset="0.775" style="stop-color:#A1AFB5"/>
	<stop  offset="0.8364" style="stop-color:#99A8AE"/>
	<a:midPointStop  offset="0.1455" style="stop-color:#CFD8DD"/>
	<a:midPointStop  offset="0.6596" style="stop-color:#CFD8DD"/>
	<a:midPointStop  offset="0.8364" style="stop-color:#99A8AE"/>
</linearGradient>
<rect x="9.234" y="32" fill="url(#SVGID_3_)" width="16" height="20"/>
<linearGradient id="SVGID_4_" gradientUnits="userSpaceOnUse" x1="8.2344" y1="53" x2="26.2344" y2="53">
	<stop  offset="0" style="stop-color:#CFD8DD"/>
	<stop  offset="0.1544" style="stop-color:#C7D1D6"/>
	<stop  offset="0.3884" style="stop-color:#B2BFC4"/>
	<stop  offset="0.6061" style="stop-color:#99A8AE"/>
	<a:midPointStop  offset="0" style="stop-color:#CFD8DD"/>
	<a:midPointStop  offset="0.6162" style="stop-color:#CFD8DD"/>
	<a:midPointStop  offset="0.6061" style="stop-color:#99A8AE"/>
</linearGradient>
<rect x="8.234" y="45" fill="url(#SVGID_4_)" width="18" height="16"/>
<rect x="10.234" y="18" opacity="0.15" fill="#4E5E67" width="14" height="0.782"/>
<rect x="10.234" y="19.563" opacity="0.15" fill="#4E5E67" width="14" height="0.782"/>
<rect x="10.234" y="21.128" opacity="0.15" fill="#4E5E67" width="14" height="0.782"/>
<rect x="10.234" y="22.691" opacity="0.15" fill="#4E5E67" width="14" height="0.782"/>
<rect x="10.234" y="24.256" opacity="0.15" fill="#4E5E67" width="14" height="0.781"/>
<rect x="10.234" y="25.819" opacity="0.15" fill="#4E5E67" width="14" height="0.782"/>
<rect x="10.234" y="27.384" opacity="0.15" fill="#4E5E67" width="14" height="0.781"/>
<rect x="10.234" y="28.947" opacity="0.15" fill="#4E5E67" width="14" height="0.781"/>
<rect x="10.234" y="30.511" opacity="0.15" fill="#4E5E67" width="14" height="0.782"/>
<rect x="9.234" y="33" opacity="0.15" fill="#4E5E67" width="16" height="0.858"/>
<rect x="9.234" y="34.716" opacity="0.15" fill="#4E5E67" width="16" height="0.858"/>
<rect x="9.234" y="36.433" opacity="0.15" fill="#4E5E67" width="16" height="0.858"/>
<rect x="9.234" y="38.147" opacity="0.15" fill="#4E5E67" width="16" height="0.859"/>
<rect x="9.234" y="39.864" opacity="0.15" fill="#4E5E67" width="16" height="0.858"/>
<rect x="9.234" y="41.581" opacity="0.15" fill="#4E5E67" width="16" height="0.857"/>
<rect x="9.234" y="43.297" opacity="0.15" fill="#4E5E67" width="16" height="0.857"/>
<rect x="8.234" y="46" opacity="0.15" fill="#4E5E67" width="18" height="1.01"/>
<rect x="8.234" y="48.018" opacity="0.15" fill="#4E5E67" width="18" height="1.009"/>
<rect x="8.234" y="50.035" opacity="0.15" fill="#4E5E67" width="18" height="1.01"/>
<rect x="8.234" y="52.053" opacity="0.15" fill="#4E5E67" width="18" height="1.01"/>
<rect x="8.234" y="54.07" opacity="0.15" fill="#4E5E67" width="18" height="1.009"/>
<rect x="8.234" y="56.089" opacity="0.15" fill="#4E5E67" width="18" height="1.009"/>
<rect x="8.234" y="58.106" opacity="0.15" fill="#4E5E67" width="18" height="1.008"/>
<rect x="46.795" y="41.396" fill="#C1CFD9" width="10.643" height="2"/>
<rect x="55.158" y="41.396" fill="#99A8AE" width="3.561" height="2"/>
<rect x="44.516" y="43" fill="#A8C0C6" width="12.922" height="19"/>
<rect x="55.678" y="43" fill="#6E8189" width="4.32" height="19"/>
<rect x="45.654" y="44" opacity="0.15" fill="#4E5E67" width="8.883" height="1"/>
<rect x="45.654" y="46" opacity="0.15" fill="#4E5E67" width="8.883" height="1"/>
<rect x="45.654" y="48" opacity="0.15" fill="#4E5E67" width="8.883" height="1"/>
<rect x="45.654" y="50" opacity="0.15" fill="#4E5E67" width="8.883" height="1"/>
<rect x="45.654" y="52" opacity="0.15" fill="#4E5E67" width="8.883" height="1"/>
<rect x="45.654" y="54" opacity="0.15" fill="#4E5E67" width="8.883" height="1"/>
<rect x="45.654" y="56" opacity="0.15" fill="#4E5E67" width="8.883" height="1"/>
<rect x="45.654" y="58" opacity="0.15" fill="#4E5E67" width="8.883" height="1"/>
<rect x="22.26" y="41.037" fill="#F2B88A" width="8.809" height="1.372"/>
<rect x="30.334" y="41.037" fill="#D99B6A" width="4.404" height="1.372"/>
<rect x="20.791" y="42.138" fill="#D99B6A" width="10.277" height="19.195"/>
<rect x="31.068" y="42.138" fill="#C28149" width="5.139" height="19.195"/>
<rect x="34.738" y="42.138" opacity="0.15" fill="#1A1626" width="0.734" height="19.195"/>
<rect x="33.27" y="42.138" opacity="0.15" fill="#1A1626" width="0.734" height="19.195"/>
<rect x="31.803" y="42.138" opacity="0.15" fill="#1A1626" width="0.734" height="19.195"/>
<rect x="28.498" y="42.138" opacity="0.15" fill="#1A1626" width="0.734" height="19.195"/>
<rect x="25.563" y="42.138" opacity="0.15" fill="#1A1626" width="0.734" height="19.195"/>
<rect x="22.627" y="42.138" opacity="0.15" fill="#1A1626" width="0.732" height="19.195"/>
<rect x="4" y="47.502" fill="#FAA19B" width="5.479" height="13.498"/>
<rect x="8.799" y="47.502" fill="#F88279" width="4.758" height="13.498"/>
<rect x="12.557" y="48.251" opacity="0.15" fill="#1A1626" width="0.5" height="12"/>
<rect x="11.471" y="48.251" opacity="0.15" fill="#1A1626" width="0.5" height="12"/>
<rect x="10.385" y="48.251" opacity="0.15" fill="#1A1626" width="0.5" height="12"/>
<rect x="9.299" y="48.251" opacity="0.15" fill="#1A1626" width="0.5" height="12"/>
<rect x="7.799" y="48.251" opacity="0.15" fill="#1A1626" width="0.5" height="12"/>
<rect x="6.697" y="48.251" opacity="0.15" fill="#1A1626" width="0.5" height="12"/>
<rect x="5.596" y="48.251" opacity="0.15" fill="#1A1626" width="0.5" height="12"/>
<rect x="4.494" y="48.251" opacity="0.15" fill="#1A1626" width="0.5" height="12"/>
<path fill="#79C205" d="M49,59c-6,2.496-13,0-14,0c-3.182,0-6.176,2.159-8,2c-1.896-0.165-5.096-2-7-2c-0.828,0-2.969,1.352-5,1
	c-0.889-0.154-5.1-2-6-2c-1.375,0-7,2-7,2v2h60v-3c0,0-4.666-2-6-2C54.875,57,50.848,58.232,49,59z"/>
<path fill="#FFFFFF" d="M7.641,7.09c2.174-1.229,4.363-2.833,7.434-2.379c3.527,0.522,5.154,1.202,7.035-0.315
	c1.881-1.519,3.416,1.783,6,2.391c2.582,0.607,8.336,1.082,5.031,1.43c-4.092,0.432-29.781,1.417-28.715,0
	C4.793,7.729,6.426,7.776,7.641,7.09z"/>
<path fill="#FFFFFF" d="M57.045,13.499c-1.715-0.546-3.443-1.257-5.865-1.056c-2.781,0.232-4.064,0.534-5.547-0.14
	c-1.484-0.674-2.697,0.791-4.734,1.061s-6.576,0.48-3.969,0.635c3.227,0.191,23.492,0.629,22.65,0
	C59.289,13.782,58.002,13.804,57.045,13.499z"/>
</svg>
