<?xml version="1.0" encoding="utf-8"?>
<!-- Generator: Adobe Illustrator 15.0.0, SVG Export Plug-In . SVG Version: 6.00 Build 0)  -->
<!DOCTYPE svg PUBLIC "-//W3C//DTD SVG 1.1//EN" "http://www.w3.org/Graphics/SVG/1.1/DTD/svg11.dtd" [
	<!ENTITY ns_flows "http://ns.adobe.com/Flows/1.0/">
	<!ENTITY ns_extend "http://ns.adobe.com/Extensibility/1.0/">
	<!ENTITY ns_ai "http://ns.adobe.com/AdobeIllustrator/10.0/">
	<!ENTITY ns_graphs "http://ns.adobe.com/Graphs/1.0/">
]>
<svg version="1.1" id="Layer_1" xmlns:x="&ns_extend;" xmlns:i="&ns_ai;" xmlns:graph="&ns_graphs;"
	 xmlns="http://www.w3.org/2000/svg" xmlns:xlink="http://www.w3.org/1999/xlink" xmlns:a="http://ns.adobe.com/AdobeSVGViewerExtensions/3.0/"
	 x="0px" y="0px" width="64px" height="64px" viewBox="0 0 64 64" enable-background="new 0 0 64 64" xml:space="preserve">
<circle fill="#FEEC9A" cx="50.125" cy="13.875" r="11.875"/>
<circle fill="#FFE561" cx="50.125" cy="13.876" r="9.501"/>
<linearGradient id="SVGID_1_" gradientUnits="userSpaceOnUse" x1="32.0005" y1="44.5713" x2="32.0005" y2="23.9434">
	<stop  offset="0" style="stop-color:#FFA929"/>
	<stop  offset="0.0596" style="stop-color:#FB9C24"/>
	<stop  offset="0.2532" style="stop-color:#EF7617"/>
	<stop  offset="0.4465" style="stop-color:#E5590D"/>
	<stop  offset="0.6369" style="stop-color:#DE4406"/>
	<stop  offset="0.823" style="stop-color:#DA3701"/>
	<stop  offset="1" style="stop-color:#D93300"/>
	<a:midPointStop  offset="0" style="stop-color:#FFA929"/>
	<a:midPointStop  offset="0.303" style="stop-color:#FFA929"/>
	<a:midPointStop  offset="1" style="stop-color:#D93300"/>
</linearGradient>
<path fill="url(#SVGID_1_)" d="M62,39.579c-0.815-0.908-2.265-1.205-2.424-1.824c-0.159-0.617-0.238-4.334-0.743-4.674
	c-0.506-0.344-4.092,0.154-4.488,0c-0.4-0.158-1.303-2.882-1.647-3.1c-0.345-0.217-1.113-0.827-1.194,0.371
	c-0.025,0.357-2.365,0.793-3.255-3.747c0.062-0.99-0.967-1.496-1.284-2.533c0,0-1.071-0.272-1.35-0.026
	c-0.239,0.214,0.044,9.374-0.436,10.706c-1.818-0.028-3.021,0.971-3.658,1.218c-0.638,0.248-3.278-2.584-4.689-0.14
	c-0.557,0.125-1.217,0.546-3.436,1.149c-1.157-0.434-2.91-0.487-3.18,0.209c-0.56-0.109-1.586,0.079-2.536,0.559
	c-0.113,0.058-0.199,0.14-0.277,0.23c-1.137-2.209-3.388-4.479-4.36-4.945c-1.185-0.566-5.308-0.371-7.333,1.885
	c-1.102,1.228-7.771,2.862-9.795,4.605C3.951,41.214,2,41.503,2,41.503S20.084,49.552,62,39.579z"/>
<linearGradient id="SVGID_2_" gradientUnits="userSpaceOnUse" x1="-162" y1="108" x2="-162" y2="130.8438" gradientTransform="matrix(1 0 0 -1 194 170)">
	<stop  offset="0" style="stop-color:#ED9D28"/>
	<stop  offset="0.354" style="stop-color:#F5B438"/>
	<stop  offset="0.7208" style="stop-color:#FBC443"/>
	<stop  offset="1" style="stop-color:#FDCA47"/>
	<a:midPointStop  offset="0" style="stop-color:#ED9D28"/>
	<a:midPointStop  offset="0.5" style="stop-color:#ED9D28"/>
	<a:midPointStop  offset="0.354" style="stop-color:#F5B438"/>
	<a:midPointStop  offset="0.5" style="stop-color:#F5B438"/>
	<a:midPointStop  offset="0.7208" style="stop-color:#FBC443"/>
	<a:midPointStop  offset="0.5" style="stop-color:#FBC443"/>
	<a:midPointStop  offset="1" style="stop-color:#FDCA47"/>
</linearGradient>
<path fill="url(#SVGID_2_)" d="M62,62H2V41.503c21.148,3.529,40-4.186,60-1.924V62z"/>
<radialGradient id="SVGID_3_" cx="-1209.9424" cy="913.2822" r="7.726" gradientTransform="matrix(0.9653 0 0 1.1288 1194.3302 -1005.4897)" gradientUnits="userSpaceOnUse">
	<stop  offset="0.4545" style="stop-color:#6CA82E"/>
	<stop  offset="0.5165" style="stop-color:#73AE2F"/>
	<stop  offset="0.7683" style="stop-color:#8AC231"/>
	<stop  offset="0.9273" style="stop-color:#92C932"/>
	<a:midPointStop  offset="0.4545" style="stop-color:#6CA82E"/>
	<a:midPointStop  offset="0.5" style="stop-color:#6CA82E"/>
	<a:midPointStop  offset="0.5165" style="stop-color:#73AE2F"/>
	<a:midPointStop  offset="0.5" style="stop-color:#73AE2F"/>
	<a:midPointStop  offset="0.7683" style="stop-color:#8AC231"/>
	<a:midPointStop  offset="0.5" style="stop-color:#8AC231"/>
	<a:midPointStop  offset="0.9273" style="stop-color:#92C932"/>
</radialGradient>
<path fill="url(#SVGID_3_)" d="M24.923,28.715c3.279,0,4.576,0.242,4.04-5.223c-0.419-4.276,4.409-4.653,4.784-0.372
	c0.809,9.203-2.192,11.896-9.003,10.927C23.454,33.864,23.675,28.715,24.923,28.715z"/>
<path fill="#6B9E19" d="M32.843,21.72c2.311-0.013,2.115-0.594,0.288,0.841C32.984,22.676,32.657,21.723,32.843,21.72z"/>
<path fill="#6B9E19" d="M33.344,26.27c2.19,0.753,2.192,0.138,0,0.891C33.169,27.221,33.169,26.208,33.344,26.27z"/>
<path fill="#6B9E19" d="M32.416,31.179c1.375,1.875,1.724,1.37-0.502,0.732C31.735,31.859,32.307,31.028,32.416,31.179z"/>
<path fill="#6B9E19" d="M28.611,33.595c0.422,2.294,0.954,1.995-0.768,0.436C27.705,33.906,28.579,33.412,28.611,33.595z"/>
<path fill="#618F16" d="M29.614,23.873c-2.189,0.753-2.189,0.138,0,0.892C29.79,24.824,29.79,23.814,29.614,23.873z"/>
<path fill="#618F16" d="M28.834,28.602c-2.075-1.029-1.646-1.463-0.624,0.63C28.291,29.399,29,28.686,28.834,28.602z"/>
<path fill="#77AB2D" d="M30.521,24.405c-0.229-2.739,0.483-3.729,0.483-3.729s-1.152,0.454-0.967,3.617
	c0.11,1.878,0.706,6.371-4.866,5.65C30.817,31.473,30.686,26.405,30.521,24.405z"/>
<path fill="#87BA2E" d="M32.379,25.962c0.297-4.296-0.668-5.166-0.668-5.166s0.631,0.87,0.184,5.249
	c-0.188,1.872-0.522,6.796-6.597,5.989C31.538,33.679,32.24,27.963,32.379,25.962z"/>
<linearGradient id="SVGID_4_" gradientUnits="userSpaceOnUse" x1="207.2285" y1="135.834" x2="215.5508" y2="135.834" gradientTransform="matrix(-1 0 0 -1 232.5137 170)">
	<stop  offset="0" style="stop-color:#92C932"/>
	<stop  offset="0.2367" style="stop-color:#8DC531"/>
	<stop  offset="0.5232" style="stop-color:#7EB830"/>
	<stop  offset="0.7636" style="stop-color:#6CA82E"/>
	<a:midPointStop  offset="0" style="stop-color:#92C932"/>
	<a:midPointStop  offset="0.5" style="stop-color:#92C932"/>
	<a:midPointStop  offset="0.2367" style="stop-color:#8DC531"/>
	<a:midPointStop  offset="0.5" style="stop-color:#8DC531"/>
	<a:midPointStop  offset="0.5232" style="stop-color:#7EB830"/>
	<a:midPointStop  offset="0.5" style="stop-color:#7EB830"/>
	<a:midPointStop  offset="0.7636" style="stop-color:#6CA82E"/>
</linearGradient>
<path fill="url(#SVGID_4_)" d="M16.963,51.778c0-5.403,0-32.117,0-32.117c0-6.263,8.322-6.263,8.322,0c0,0,0,27.145,0,32.117
	C25.285,53.896,16.963,53.896,16.963,51.778z"/>
<path fill="#87BA2E" d="M23.384,19.234c0-1.674-0.554-2.916-1.374-3.73c1.125,0.732,1.946,2.079,1.946,4.049v33.427l-0.572,0.158
	V19.234z"/>
<path fill="#77AB2D" d="M20.926,19.234c0-1.674,0.198-3.949,0.198-3.949s0.376,2.299,0.376,4.268v33.814h-0.573L20.926,19.234
	L20.926,19.234z"/>
<path fill="#649C2A" d="M18.862,19.234c0-1.674,0.556-2.916,1.377-3.73c-1.128,0.732-1.949,2.079-1.949,4.049v33.427l0.572,0.158
	V19.234z"/>
<path fill="#6B9E19" d="M24.944,20.703c1.543,0.54,1.543,0.099,0,0.638C24.82,21.385,24.82,20.66,24.944,20.703z"/>
<path fill="#6B9E19" d="M24.944,23.934c1.543,0.538,1.543,0.101,0,0.639C24.82,24.614,24.82,23.89,24.944,23.934z"/>
<path fill="#6B9E19" d="M23.236,18.113c1.622-0.126,1.453-0.531,0.245,0.588C23.382,18.791,23.105,18.125,23.236,18.113z"/>
<path fill="#6B9E19" d="M22.831,15.478c1.329-0.97,0.98-1.23,0.506,0.37C23.299,15.978,22.728,15.555,22.831,15.478z"/>
<path fill="#6B9E19" d="M23.176,34.158c1.542,0.538,1.542,0.097,0,0.638C23.053,34.839,23.053,34.114,23.176,34.158z"/>
<path fill="#6B9E19" d="M24.944,37.981c1.543,0.541,1.543,0.1,0,0.639C24.82,38.663,24.82,37.939,24.944,37.981z"/>
<path fill="#6B9E19" d="M24.944,42.644c1.543,0.539,1.543,0.1,0,0.639C24.82,43.325,24.82,42.6,24.944,42.644z"/>
<path fill="#6B9E19" d="M22.323,40.943c1.539,0.541,1.539,0.099,0,0.638C22.198,41.624,22.198,40.899,22.323,40.943z"/>
<path fill="#618F16" d="M17.325,22.409c-1.539,0.54-1.539,0.097,0,0.639C17.448,23.091,17.448,22.366,17.325,22.409z"/>
<path fill="#618F16" d="M17.325,26.556c-1.539,0.538-1.539,0.097,0,0.637C17.448,27.236,17.448,26.511,17.325,26.556z"/>
<path fill="#618F16" d="M19.458,32.314c-1.54,0.541-1.54,0.101,0,0.64C19.582,32.997,19.582,32.272,19.458,32.314z"/>
<path fill="#618F16" d="M19.59,24.442c-1.542,0.539-1.542,0.1,0,0.637C19.711,25.124,19.711,24.399,19.59,24.442z"/>
<path fill="#618F16" d="M18.679,20.031c-1.541,0.54-1.541,0.099,0,0.637C18.803,20.712,18.803,19.988,18.679,20.031z"/>
<path fill="#618F16" d="M19.084,15.705c-1.461-0.737-1.159-1.051-0.439,0.452C18.703,16.277,19.2,15.765,19.084,15.705z"/>
<path fill="#618F16" d="M17.325,30.7c-1.539,0.539-1.539,0.099,0,0.637C17.448,31.381,17.448,30.655,17.325,30.7z"/>
<path fill="#618F16" d="M18.948,45.672c-1.541,0.542-1.541,0.1,0,0.64C19.07,46.354,19.07,45.629,18.948,45.672z"/>
<path fill="#618F16" d="M19.796,41.751c-1.542,0.539-1.542,0.098,0,0.639C19.919,42.432,19.919,41.709,19.796,41.751z"/>
<radialGradient id="SVGID_5_" cx="299.7393" cy="919.8311" r="9.9537" gradientTransform="matrix(-0.9653 0 0 1.1288 304.537 -1007.3432)" gradientUnits="userSpaceOnUse">
	<stop  offset="0.497" style="stop-color:#92C932"/>
	<stop  offset="0.6661" style="stop-color:#8AC231"/>
	<stop  offset="0.9341" style="stop-color:#73AE2F"/>
	<stop  offset="1" style="stop-color:#6CA82E"/>
	<a:midPointStop  offset="0.497" style="stop-color:#92C932"/>
	<a:midPointStop  offset="0.5" style="stop-color:#92C932"/>
	<a:midPointStop  offset="0.6661" style="stop-color:#8AC231"/>
	<a:midPointStop  offset="0.5" style="stop-color:#8AC231"/>
	<a:midPointStop  offset="0.9341" style="stop-color:#73AE2F"/>
	<a:midPointStop  offset="0.5" style="stop-color:#73AE2F"/>
	<a:midPointStop  offset="1" style="stop-color:#6CA82E"/>
</radialGradient>
<path fill="url(#SVGID_5_)" d="M17.067,35.202c-4.225,0-5.896,0.312-5.208-6.729c0.542-5.508-5.68-5.994-6.163-0.481
	c-1.038,11.858,2.826,15.329,11.601,14.08C18.958,41.836,18.677,35.202,17.067,35.202z"/>
<path fill="#6B9E19" d="M11.22,29.634c2.189,0.752,2.189,0.138,0,0.893C11.043,30.584,11.043,29.575,11.22,29.634z"/>
<path fill="#6B9E19" d="M12.016,34.284c2.075-1.028,1.646-1.464,0.624,0.628C12.558,35.08,11.851,34.368,12.016,34.284z"/>
<path fill="#618F16" d="M6.491,27.388c-2.189,0.752-2.189,0.138,0,0.89C6.667,28.337,6.667,27.327,6.491,27.388z"/>
<path fill="#618F16" d="M6.745,33.614c-2.188,0.754-2.188,0.139,0,0.891C6.923,34.564,6.923,33.555,6.745,33.614z"/>
<path fill="#618F16" d="M8.855,38.948c-2.188,0.753-2.19,0.138,0,0.892C9.032,39.899,9.032,38.89,8.855,38.948z"/>
<path fill="#87BA2E" d="M9.843,29.413C10.144,25.782,9.2,24.47,9.2,24.47s1.53,0.603,1.282,4.797
	c-0.146,2.491-0.938,8.453,6.457,7.498C9.449,38.788,9.623,32.065,9.843,29.413z"/>
<path fill="#77AB2D" d="M7.378,31.478c-0.393-5.697,0.887-6.854,0.887-6.854S7.428,25.78,8.021,31.59
	c0.253,2.48,0.695,9.017,8.755,7.943C8.495,41.716,7.562,34.134,7.378,31.478z"/>
<path fill="#ABB500" d="M30.087,57.723c0.305,0.507,5.934,0.582,6.094,0c0.457-1.665-1.135-2.807-1.408-2.226
	c-0.838,1.784-1.372-1.656-1.891-0.471c-0.929,2.113-1.614-0.363-1.937,0.88C30.45,57.806,28.527,55.111,30.087,57.723z"/>
<path fill="#ABB500" d="M50.035,47.944c0.094,0.156,1.831,0.18,1.881,0c0.141-0.514-0.35-0.865-0.436-0.686
	c-0.258,0.549-0.424-0.512-0.582-0.145c-0.287,0.652-0.5-0.113-0.598,0.27C50.146,47.972,49.553,47.14,50.035,47.944z"/>
<path fill="#ABB500" d="M30.334,47.201c0.094,0.156,1.831,0.18,1.881,0c0.141-0.514-0.35-0.865-0.436-0.686
	c-0.258,0.549-0.424-0.512-0.582-0.145c-0.287,0.652-0.5-0.113-0.598,0.27C30.445,47.229,29.852,46.396,30.334,47.201z"/>
<path fill="#ABB500" d="M12.998,47.201c0.094,0.156,1.831,0.18,1.881,0c0.141-0.514-0.35-0.865-0.436-0.686
	c-0.258,0.549-0.424-0.512-0.582-0.145c-0.287,0.652-0.5-0.113-0.598,0.27C13.109,47.229,12.516,46.396,12.998,47.201z"/>
<path fill="#ABB500" d="M42.186,43.95c0.094,0.156,1.831,0.18,1.881,0c0.141-0.514-0.35-0.865-0.436-0.686
	c-0.258,0.549-0.424-0.512-0.582-0.145c-0.287,0.652-0.5-0.113-0.598,0.27C42.297,43.978,41.703,43.146,42.186,43.95z"/>
<path fill="#ABB500" d="M46.777,52.546c-0.17,0.287-3.313,0.326-3.402,0c-0.256-0.93,0.633-1.566,0.785-1.24
	c0.469,0.994,0.768-0.926,1.057-0.264c0.518,1.18,0.901-0.203,1.082,0.492C46.574,52.595,47.649,51.089,46.777,52.546z"/>
<path fill="#ABB500" d="M9.997,52.149c-0.17,0.283-3.313,0.324-3.402,0c-0.256-0.932,0.633-1.568,0.787-1.244
	c0.468,0.996,0.766-0.924,1.056-0.262c0.518,1.18,0.901-0.205,1.081,0.49C9.795,52.196,10.87,50.69,9.997,52.149z"/>
<path fill="#ABB500" d="M57.919,42.649c-0.111,0.188-2.182,0.215-2.24,0c-0.17-0.613,0.416-1.033,0.518-0.818
	c0.308,0.656,0.504-0.609,0.695-0.174c0.341,0.777,0.594-0.135,0.712,0.324C57.786,42.681,58.493,41.688,57.919,42.649z"/>
</svg>
