<?xml version="1.0" encoding="utf-8"?>
<!-- Generator: Adobe Illustrator 15.0.0, SVG Export Plug-In . SVG Version: 6.00 Build 0)  -->
<!DOCTYPE svg PUBLIC "-//W3C//DTD SVG 1.1//EN" "http://www.w3.org/Graphics/SVG/1.1/DTD/svg11.dtd" [
	<!ENTITY ns_flows "http://ns.adobe.com/Flows/1.0/">
	<!ENTITY ns_extend "http://ns.adobe.com/Extensibility/1.0/">
	<!ENTITY ns_ai "http://ns.adobe.com/AdobeIllustrator/10.0/">
	<!ENTITY ns_graphs "http://ns.adobe.com/Graphs/1.0/">
]>
<svg version="1.1" id="Layer_1" xmlns:x="&ns_extend;" xmlns:i="&ns_ai;" xmlns:graph="&ns_graphs;"
	 xmlns="http://www.w3.org/2000/svg" xmlns:xlink="http://www.w3.org/1999/xlink" xmlns:a="http://ns.adobe.com/AdobeSVGViewerExtensions/3.0/"
	 x="0px" y="0px" width="64px" height="64px" viewBox="0 0 64 64" enable-background="new 0 0 64 64" xml:space="preserve">
<rect x="9" y="31" fill="#E8C892" width="46" height="30"/>
<rect x="11" y="3" fill="#E8C892" width="42" height="30"/>
<path fill="#D6A57C" d="M55,54H9c-0.275,0-0.5,0.225-0.5,0.5v6h47v-6C55.5,54.225,55.275,54,55,54z"/>
<rect x="43.75" y="7" fill="#9E6C49" width="6" height="8"/>
<rect x="34.25" y="7" fill="#9E6C49" width="6" height="8"/>
<rect x="23.75" y="7" fill="#9E6C49" width="6" height="8"/>
<rect x="14.25" y="7" fill="#9E6C49" width="6" height="8"/>
<rect x="43.75" y="19" fill="#9E6C49" width="6" height="8"/>
<rect x="34.25" y="19" fill="#9E6C49" width="6" height="8"/>
<rect x="23.75" y="19" fill="#9E6C49" width="6" height="8"/>
<rect x="14.25" y="19" fill="#9E6C49" width="6" height="8"/>
<rect x="44.75" y="34.5" fill="#9E6C49" width="6" height="8"/>
<rect x="34.25" y="34.5" fill="#9E6C49" width="6" height="8"/>
<rect x="23.75" y="34.5" fill="#9E6C49" width="6" height="8"/>
<rect x="13.25" y="34.5" fill="#9E6C49" width="6" height="8"/>
<path fill="#F66257" d="M61,28.5c0,0.275-0.225,0.5-0.5,0.5h-5c-0.275,0-0.5-0.225-0.5-0.5v-22C55,6.225,55.225,6,55.5,6h5
	C60.775,6,61,6.225,61,6.5V28.5z"/>
<rect x="52.999" y="27" fill="#6E8189" width="2" height="1"/>
<rect x="52.999" y="7" fill="#6E8189" width="2" height="1"/>
<path fill="#FFFFFF" d="M59.048,7.599v2.698c0,0.063-0.035,0.099-0.098,0.099h-0.373c-0.063,0-0.098-0.035-0.098-0.099V9.18h-0.961
	v1.117c0,0.063-0.035,0.099-0.1,0.099h-0.371c-0.064,0-0.098-0.035-0.098-0.099V7.599c0-0.063,0.033-0.099,0.098-0.099h0.371
	c0.064,0,0.1,0.036,0.1,0.099v1.035h0.961V7.599c0-0.063,0.035-0.099,0.098-0.099h0.373C59.013,7.5,59.048,7.536,59.048,7.599z"/>
<path fill="#FFFFFF" d="M56.497,13.225c0-0.846,0.668-1.504,1.502-1.504c0.836,0,1.504,0.658,1.504,1.504s-0.668,1.504-1.504,1.504
	C57.165,14.729,56.497,14.07,56.497,13.225z M58.935,13.225c0-0.557-0.41-0.949-0.936-0.949s-0.934,0.393-0.934,0.949
	c0,0.556,0.408,0.949,0.934,0.949S58.935,13.78,58.935,13.225z"/>
<path fill="#FFFFFF" d="M58.981,16.151v0.35c0,0.063-0.035,0.098-0.098,0.098h-0.6v2.251c0,0.063-0.035,0.099-0.098,0.099h-0.373
	c-0.063,0-0.098-0.035-0.098-0.099v-2.251h-0.6c-0.063,0-0.098-0.035-0.098-0.098v-0.35c0-0.063,0.035-0.099,0.098-0.099h1.168h0.6
	C58.946,16.053,58.981,16.088,58.981,16.151z"/>
<path fill="#FFFFFF" d="M58.925,22.777v0.349c0,0.063-0.035,0.099-0.1,0.099h-1.432h-0.088c-0.063,0-0.098-0.035-0.098-0.099v-2.698
	c0-0.063,0.035-0.099,0.098-0.099h0.471h1.029c0.063,0,0.098,0.035,0.098,0.099v0.35c0,0.063-0.035,0.098-0.098,0.098h-1.029v0.619
	h0.926c0.063,0,0.098,0.035,0.098,0.099v0.337c0,0.063-0.035,0.099-0.098,0.099h-0.926v0.65h1.049
	C58.89,22.679,58.925,22.714,58.925,22.777z"/>
<path fill="#FFFFFF" d="M58.931,27.053v0.35c0,0.063-0.035,0.098-0.098,0.098h-1.258h-0.191c-0.063,0-0.098-0.034-0.098-0.098
	v-2.699c0-0.063,0.035-0.098,0.098-0.098h0.373c0.063,0,0.098,0.035,0.098,0.098v2.252h0.979
	C58.896,26.955,58.931,26.989,58.931,27.053z"/>
<rect x="44.965" y="7.5" fill="#1A1626" width="3.57" height="7"/>
<rect x="35.465" y="7.5" fill="#1A1626" width="3.57" height="7"/>
<rect x="24.965" y="7.5" fill="#1A1626" width="3.57" height="7"/>
<rect x="15.465" y="7.5" fill="#1A1626" width="3.57" height="7"/>
<rect x="44.965" y="19.5" fill="#1A1626" width="3.57" height="7"/>
<rect x="35.465" y="19.5" fill="#1A1626" width="3.57" height="7"/>
<rect x="24.965" y="19.5" fill="#1A1626" width="3.57" height="7"/>
<rect x="15.465" y="19.5" fill="#1A1626" width="3.57" height="7"/>
<rect x="45.965" y="35" fill="#1A1626" width="3.57" height="7"/>
<rect x="35.465" y="35" fill="#1A1626" width="3.57" height="7"/>
<rect x="24.965" y="35" fill="#1A1626" width="3.57" height="7"/>
<rect x="14.465" y="35" fill="#1A1626" width="3.57" height="7"/>
<path fill="#5F4047" d="M44.25,14.5h1.652c0-1.324-0.482-4.169-0.482-4.169s0.828-2.165,0.828-2.831H44.25V14.5z"/>
<path fill="#5F4047" d="M49.25,14.5h-1.652c0-1.324,0.482-4.169,0.482-4.169S47.252,8.166,47.252,7.5h1.998V14.5z"/>
<path fill="#5F4047" d="M34.75,14.5h1.652c0-1.324-0.482-4.169-0.482-4.169s0.828-2.165,0.828-2.831H34.75V14.5z"/>
<path fill="#5F4047" d="M39.75,14.5h-1.652c0-1.324,0.482-4.169,0.482-4.169S37.752,8.166,37.752,7.5h1.998V14.5z"/>
<path fill="#5F4047" d="M24.25,14.5h1.652c0-1.324-0.482-4.169-0.482-4.169s0.828-2.165,0.828-2.831H24.25V14.5z"/>
<path fill="#5F4047" d="M29.25,14.5h-1.652c0-1.324,0.482-4.169,0.482-4.169S27.252,8.166,27.252,7.5h1.998V14.5z"/>
<path fill="#5F4047" d="M14.75,14.5h1.652c0-1.324-0.482-4.169-0.482-4.169s0.828-2.165,0.828-2.831H14.75V14.5z"/>
<path fill="#5F4047" d="M19.75,14.5h-1.652c0-1.324,0.482-4.169,0.482-4.169S17.752,8.166,17.752,7.5h1.998V14.5z"/>
<path fill="#5F4047" d="M44.25,26.5h1.652c0-1.324-0.482-4.169-0.482-4.169s0.828-2.165,0.828-2.831H44.25V26.5z"/>
<path fill="#5F4047" d="M49.25,26.5h-1.652c0-1.324,0.482-4.169,0.482-4.169s-0.828-2.165-0.828-2.831h1.998V26.5z"/>
<path fill="#5F4047" d="M34.75,26.5h1.652c0-1.324-0.482-4.169-0.482-4.169s0.828-2.165,0.828-2.831H34.75V26.5z"/>
<path fill="#5F4047" d="M39.75,26.5h-1.652c0-1.324,0.482-4.169,0.482-4.169s-0.828-2.165-0.828-2.831h1.998V26.5z"/>
<path fill="#5F4047" d="M24.25,26.5h1.652c0-1.324-0.482-4.169-0.482-4.169s0.828-2.165,0.828-2.831H24.25V26.5z"/>
<path fill="#5F4047" d="M29.25,26.5h-1.652c0-1.324,0.482-4.169,0.482-4.169s-0.828-2.165-0.828-2.831h1.998V26.5z"/>
<path fill="#5F4047" d="M14.75,26.5h1.652c0-1.324-0.482-4.169-0.482-4.169s0.828-2.165,0.828-2.831H14.75V26.5z"/>
<path fill="#5F4047" d="M19.75,26.5h-1.652c0-1.324,0.482-4.169,0.482-4.169s-0.828-2.165-0.828-2.831h1.998V26.5z"/>
<path fill="#5F4047" d="M45.25,42h1.652c0-1.324-0.482-4.169-0.482-4.169s0.828-2.165,0.828-2.831H45.25V42z"/>
<path fill="#5F4047" d="M50.25,42h-1.652c0-1.324,0.482-4.169,0.482-4.169S48.252,35.666,48.252,35h1.998V42z"/>
<path fill="#5F4047" d="M34.75,42h1.652c0-1.324-0.482-4.169-0.482-4.169s0.828-2.165,0.828-2.831H34.75V42z"/>
<path fill="#5F4047" d="M39.75,42h-1.652c0-1.324,0.482-4.169,0.482-4.169S37.752,35.666,37.752,35h1.998V42z"/>
<path fill="#5F4047" d="M24.25,42h1.652c0-1.324-0.482-4.169-0.482-4.169s0.828-2.165,0.828-2.831H24.25V42z"/>
<path fill="#5F4047" d="M29.25,42h-1.652c0-1.324,0.482-4.169,0.482-4.169S27.252,35.666,27.252,35h1.998V42z"/>
<path fill="#5F4047" d="M13.75,42h1.652c0-1.324-0.482-4.169-0.482-4.169s0.828-2.165,0.828-2.831H13.75V42z"/>
<path fill="#5F4047" d="M18.75,42h-1.652c0-1.324,0.482-4.169,0.482-4.169S16.752,35.666,16.752,35h1.998V42z"/>
<polygon fill="#9E6C49" points="43.938,9.275 43.938,9.775 46.5,9.775 46.5,14.795 47,14.795 47,9.775 49.563,9.775 49.563,9.275 
	"/>
<polygon fill="#9E6C49" points="34.438,9.775 37,9.775 37,14.795 37.5,14.795 37.5,9.775 40.063,9.775 40.063,9.275 34.438,9.275 
	"/>
<polygon fill="#9E6C49" points="23.938,9.775 26.5,9.775 26.5,14.795 27,14.795 27,9.775 29.563,9.775 29.563,9.275 23.938,9.275 
	"/>
<polygon fill="#9E6C49" points="14.438,9.775 17,9.775 17,14.795 17.5,14.795 17.5,9.775 20.063,9.775 20.063,9.275 14.438,9.275 
	"/>
<polygon fill="#9E6C49" points="43.938,21.775 46.5,21.775 46.5,26.795 47,26.795 47,21.775 49.563,21.775 49.563,21.275 
	43.938,21.275 "/>
<polygon fill="#9E6C49" points="34.438,21.775 37,21.775 37,26.795 37.5,26.795 37.5,21.775 40.063,21.775 40.063,21.275 
	34.438,21.275 "/>
<polygon fill="#9E6C49" points="23.938,21.775 26.5,21.775 26.5,26.795 27,26.795 27,21.775 29.563,21.775 29.563,21.275 
	23.938,21.275 "/>
<polygon fill="#9E6C49" points="14.438,21.775 17,21.775 17,26.795 17.5,26.795 17.5,21.775 20.063,21.775 20.063,21.275 
	14.438,21.275 "/>
<polygon fill="#9E6C49" points="44.938,37.275 47.5,37.275 47.5,42.295 48,42.295 48,37.275 50.563,37.275 50.563,36.775 
	44.938,36.775 "/>
<polygon fill="#9E6C49" points="34.438,37.275 37,37.275 37,42.295 37.5,42.295 37.5,37.275 40.063,37.275 40.063,36.775 
	34.438,36.775 "/>
<polygon fill="#9E6C49" points="23.938,37.275 26.5,37.275 26.5,42.295 27,42.295 27,37.275 29.563,37.275 29.563,36.775 
	23.938,36.775 "/>
<polygon fill="#9E6C49" points="13.438,37.275 16,37.275 16,42.295 16.5,42.295 16.5,37.275 19.063,37.275 19.063,36.775 
	13.438,36.775 "/>
<path fill="#F0DBAF" d="M10,3v1c0,0.55,0.45,1,1,1h42c0.55,0,1-0.45,1-1V3H10z"/>
<path fill="#FFF1D4" d="M9,2.5C9,2.225,9.225,2,9.5,2h45C54.775,2,55,2.225,55,2.5l0,0C55,2.775,54.775,3,54.5,3h-45
	C9.225,3,9,2.775,9,2.5L9,2.5z"/>
<path fill="#F0DBAF" d="M8,30.5v1c0,0.55,0.45,1,1,1h46c0.55,0,1-0.45,1-1v-1H8z"/>
<path fill="#FFF1D4" d="M7,30c0-0.275,0.225-0.5,0.5-0.5h49c0.275,0,0.5,0.225,0.5,0.5l0,0c0,0.275-0.225,0.5-0.5,0.5h-49
	C7.225,30.5,7,30.275,7,30L7,30z"/>
<path fill="#F0DBAF" d="M43.5,45.999h-23c-0.275,0-0.5,0.225-0.5,0.5v14h24v-14C44,46.224,43.775,45.999,43.5,45.999z"/>
<rect x="21" y="46.999" fill="#302C3B" width="22" height="13"/>
<rect x="31.75" y="48.999" fill="#F0DBAF" width="0.5" height="11"/>
<rect x="38" y="45.999" fill="#F0DBAF" width="0.5" height="14"/>
<rect x="25.5" y="45.999" fill="#F0DBAF" width="0.5" height="14"/>
<rect x="21" y="48.999" fill="#F0DBAF" width="22" height="0.5"/>
<rect x="33.32" y="53.104" fill="#FFFFFF" width="0.18" height="2.791"/>
<rect x="30.5" y="53.104" fill="#FFFFFF" width="0.178" height="2.791"/>
<rect x="2" y="59.999" fill="#7AB51D" width="60" height="2.001"/>
<path fill="#9E6C49" d="M17.395,60.419c0,0.775-2.596,0.775-2.596,0c0-3.051-3.037-11.283-3.037-15.521c0-0.725,1.922-0.725,1.922,0
	C13.684,49.136,17.395,57.368,17.395,60.419z"/>
<path fill="#92C932" d="M2,41.806c1.255-0.195,7.136,2.875,10.898,1.977C9.426,43.048,6.457,39.728,2,41.806z"/>
<path fill="#7AB51D" d="M2,41.806c4.523-1.9,7.509,1.484,10.898,1.977C11.816,43.587,6.683,37.368,2,41.806z"/>
<path fill="#92C932" d="M4.254,50.685c0.659-1.088,7.846-4.598,8.553-7.248C10.005,45.677,5.633,45.841,4.254,50.685z"/>
<path fill="#7AB51D" d="M4.254,50.685c1.553-4.781,5.982-4.914,8.555-7.246C12.037,44.091,4.254,43.571,4.254,50.685z"/>
<path fill="#92C932" d="M12.744,43.765c2.855-1.121,6.818,0.664,8.775-3.852C19,42.181,13.354,40.774,12.744,43.765z"/>
<path fill="#7AB51D" d="M12.745,43.767c0.793-0.348,7.688,2.732,8.776-3.852C19.416,44.288,15.406,42.446,12.745,43.767z"/>
<path fill="#92C932" d="M11.688,44.782c3.076-1.782,2.386-6.282,4.108-7.6C11.766,38.534,12.912,42.296,11.688,44.782z"/>
<path fill="#7AB51D" d="M11.688,44.784c1.379-2.291,0.186-6.105,4.108-7.602C14.177,37.419,9.987,37.853,11.688,44.784z"/>
<path fill="#92C932" d="M12.824,43.177c-0.829,3.336-4.133,6.031-2.283,10.49C10.484,48.854,14.578,46.899,12.824,43.177z"/>
<path fill="#7AB51D" d="M12.823,43.177c-0.218,1.01-6.859,5.245-2.283,10.49C8.863,49.151,12.229,46.446,12.823,43.177z"/>
<path fill="#92C932" d="M12.1,43.386c-3.417,0.904,3.396,3.113,6.349,8.02C15.87,45.13,13.271,43.417,12.1,43.386z"/>
<path fill="#7AB51D" d="M12.1,43.386c1.273,0.096,3.842,2.676,6.35,8.02C18.23,49.915,16.651,41.696,12.1,43.386z"/>
<path fill="#9E6C49" d="M50.316,44.897c0-0.725,1.922-0.725,1.922,0c0,4.238-3.037,12.471-3.037,15.521c0,0.775-2.596,0.775-2.596,0
	C46.605,57.368,50.316,49.136,50.316,44.897z"/>
<path fill="#92C932" d="M51.102,43.782c3.763,0.898,9.644-2.172,10.898-1.977C57.543,39.728,54.574,43.048,51.102,43.782z"/>
<path fill="#7AB51D" d="M51.102,43.782c3.39-0.492,6.375-3.877,10.898-1.977C57.317,37.368,52.184,43.587,51.102,43.782z"/>
<path fill="#92C932" d="M51.193,43.437c0.707,2.65,7.894,6.16,8.553,7.248C58.367,45.841,53.995,45.677,51.193,43.437z"/>
<path fill="#7AB51D" d="M51.191,43.438c2.572,2.332,7.002,2.465,8.555,7.246C59.746,43.571,51.963,44.091,51.191,43.438z"/>
<path fill="#92C932" d="M42.48,39.913c1.957,4.516,5.92,2.73,8.775,3.852C50.646,40.774,45,42.181,42.48,39.913z"/>
<path fill="#7AB51D" d="M42.479,39.915c1.089,6.584,7.983,3.504,8.776,3.852C48.594,42.446,44.584,44.288,42.479,39.915z"/>
<path fill="#92C932" d="M48.204,37.183c1.723,1.317,1.032,5.817,4.108,7.6C51.088,42.296,52.234,38.534,48.204,37.183z"/>
<path fill="#7AB51D" d="M48.204,37.183c3.923,1.496,2.729,5.311,4.108,7.602C54.013,37.853,49.823,37.419,48.204,37.183z"/>
<path fill="#92C932" d="M53.459,53.667c1.85-4.459-1.454-7.154-2.283-10.49C49.422,46.899,53.516,48.854,53.459,53.667z"/>
<path fill="#7AB51D" d="M53.46,53.667c4.576-5.245-2.065-9.48-2.283-10.49C51.771,46.446,55.137,49.151,53.46,53.667z"/>
<path fill="#92C932" d="M45.552,51.405c2.953-4.906,9.766-7.115,6.349-8.02C50.729,43.417,48.13,45.13,45.552,51.405z"/>
<path fill="#7AB51D" d="M45.551,51.405c2.508-5.344,5.076-7.924,6.35-8.02C47.349,41.696,45.77,49.915,45.551,51.405z"/>
<polygon fill="#CFD8DD" points="42.5,62 21.5,62 26,59.999 38,59.999 "/>
</svg>
