<?xml version="1.0" encoding="utf-8"?>
<!-- Generator: Adobe Illustrator 15.0.0, SVG Export Plug-In . SVG Version: 6.00 Build 0)  -->
<!DOCTYPE svg PUBLIC "-//W3C//DTD SVG 1.1//EN" "http://www.w3.org/Graphics/SVG/1.1/DTD/svg11.dtd" [
	<!ENTITY ns_flows "http://ns.adobe.com/Flows/1.0/">
	<!ENTITY ns_extend "http://ns.adobe.com/Extensibility/1.0/">
	<!ENTITY ns_ai "http://ns.adobe.com/AdobeIllustrator/10.0/">
	<!ENTITY ns_graphs "http://ns.adobe.com/Graphs/1.0/">
]>
<svg version="1.1" id="Layer_1" xmlns:x="&ns_extend;" xmlns:i="&ns_ai;" xmlns:graph="&ns_graphs;"
	 xmlns="http://www.w3.org/2000/svg" xmlns:xlink="http://www.w3.org/1999/xlink" xmlns:a="http://ns.adobe.com/AdobeSVGViewerExtensions/3.0/"
	 x="0px" y="0px" width="64px" height="64px" viewBox="0 0 64 64" enable-background="new 0 0 64 64" xml:space="preserve">
<path fill="#FF000E" d="M32,2.396c0,1.957,0,3.916,0,5.875c3.223,1.371,6.444-4.309,9.667-2.938C38.444,2.004,35.223,5.725,32,2.396
	z"/>
<path fill="#B3C2C6" d="M31.667,2.354V12h0.666V2.354C32.333,1.883,31.667,1.883,31.667,2.354z"/>
<rect x="4" y="27" fill="#E3CC9E" width="56" height="35"/>
<polygon fill="#CF0505" points="57,21 7,21 2,27 62,27 "/>
<polygon fill="#FF000E" points="32,11 14,27 50,27 "/>
<polygon fill="#FFE8BB" points="32,15 18,27 18,62 46,62 46,27 "/>
<path fill="#7AB51D" d="M48.214,59.912c0.215-1.051,2.873-1.635,3.563-0.637c0.437-1.014,2.165-0.813,2.432,0.189
	c0.07-1.104,2.33-1.318,2.874-0.48c0.912-1.33,3.116-0.342,2.87,0.695c2.4,0.102,2.025,2.32,2.025,2.32H45.196
	C44.945,60.039,46.706,58.684,48.214,59.912z"/>
<path fill="#92C932" d="M49.146,60.67c0.627-1.744,3.178-2.801,4.728-0.713c0.731-0.482,1.952-0.414,2.327,0.123
	c0.479-0.566,1.651-0.809,2.229-0.154c1.199-0.742,2.301-0.117,2.301-0.117s-1.608-0.234-2.363,0.902
	c-0.478-0.902-1.938-0.613-2.018,0.309c-0.428-0.939-1.731-1.115-2.934-0.324C53.356,59.793,51.229,58.182,49.146,60.67z"/>
<path fill="#7AB51D" d="M15.786,59.912c-0.215-1.051-2.873-1.635-3.563-0.637c-0.437-1.014-2.165-0.813-2.432,0.189
	c-0.07-1.104-2.33-1.318-2.874-0.48c-0.913-1.33-3.117-0.342-2.871,0.695C1.646,59.781,2.021,62,2.021,62h16.782
	C19.055,60.039,17.294,58.684,15.786,59.912z"/>
<path fill="#92C932" d="M14.854,60.67c-0.627-1.744-3.177-2.801-4.727-0.713c-0.731-0.482-1.952-0.414-2.327,0.123
	c-0.479-0.566-1.652-0.809-2.229-0.154c-1.199-0.742-2.301-0.117-2.301-0.117s1.608-0.234,2.363,0.902
	c0.478-0.902,1.939-0.613,2.018,0.309c0.428-0.939,1.731-1.115,2.934-0.324C10.644,59.793,12.771,58.182,14.854,60.67z"/>
<circle fill="#B79C7C" cx="32" cy="32" r="6.5"/>
<circle fill="#FFFFFF" cx="32" cy="32" r="5"/>
<rect x="28.818" y="31.545" fill="#302C3B" width="3.183" height="0.908"/>
<rect x="31.546" y="27.455" fill="#302C3B" width="0.908" height="4.545"/>
<circle fill="#302C3B" cx="32" cy="32" r="0.909"/>
<circle fill="#FFFFFF" cx="31.998" cy="32" r="0.568"/>
<rect x="19" y="60" fill="#E6EBEF" width="26" height="1"/>
<rect x="18" y="61" fill="#CFD8DD" width="28" height="1"/>
<rect x="21" y="58" fill="#E6EBEF" width="22" height="1"/>
<rect x="20" y="59" fill="#CFD8DD" width="24" height="1"/>
<rect x="7.5" y="31" fill="#B79C7C" width="7" height="10.5"/>
<rect x="11.25" y="32" fill="#302C3B" width="2.25" height="4"/>
<rect x="8.5" y="32" fill="#302C3B" width="2.25" height="4"/>
<rect x="11.25" y="36.5" fill="#302C3B" width="2.25" height="4"/>
<rect x="8.5" y="36.5" fill="#302C3B" width="2.25" height="4"/>
<rect x="49.5" y="31" fill="#B79C7C" width="7" height="10.5"/>
<rect x="53.25" y="32" fill="#302C3B" width="2.25" height="4"/>
<rect x="50.5" y="32" fill="#302C3B" width="2.25" height="4"/>
<rect x="53.25" y="36.5" fill="#302C3B" width="2.25" height="4"/>
<rect x="50.5" y="36.5" fill="#302C3B" width="2.25" height="4"/>
<rect x="7.5" y="44.999" fill="#B79C7C" width="7" height="10.5"/>
<rect x="11.25" y="45.999" fill="#302C3B" width="2.25" height="4"/>
<rect x="8.5" y="45.999" fill="#302C3B" width="2.25" height="4"/>
<rect x="11.25" y="50.499" fill="#302C3B" width="2.25" height="4"/>
<rect x="8.5" y="50.499" fill="#302C3B" width="2.25" height="4"/>
<rect x="49.5" y="44.999" fill="#B79C7C" width="7" height="10.5"/>
<rect x="53.25" y="45.999" fill="#302C3B" width="2.25" height="4"/>
<rect x="50.5" y="45.999" fill="#302C3B" width="2.25" height="4"/>
<rect x="53.25" y="50.499" fill="#302C3B" width="2.25" height="4"/>
<rect x="50.5" y="50.499" fill="#302C3B" width="2.25" height="4"/>
<rect id="Rectangle-path_42_" x="23" y="43.999" fill="#E3CC9E" width="18" height="14"/>
<rect id="Rectangle-path_41_" x="24.25" y="44.999" fill="#744727" width="15.5" height="13"/>
<rect id="Rectangle-path_40_" x="24.75" y="45.499" fill="#9E6C49" width="14.5" height="12.5"/>
<rect id="Rectangle-path_21_" x="31.75" y="45.249" fill="#744727" width="0.5" height="12.75"/>
<path id="Rectangle_27_" fill="#744727" d="M30.75,51.89v1.469c0,0.354-0.625,0.354-0.625,0V51.89
	C30.125,51.535,30.75,51.535,30.75,51.89z"/>
<path id="Rectangle_28_" fill="#744727" d="M33.875,51.89v1.469c0,0.354-0.625,0.354-0.625,0V51.89
	C33.25,51.535,33.875,51.535,33.875,51.89z"/>
<rect x="33.75" y="46.749" fill="#302C3B" width="1.75" height="1.75"/>
<rect x="36" y="46.749" fill="#302C3B" width="1.75" height="1.75"/>
<rect x="33.75" y="48.999" fill="#302C3B" width="1.75" height="1.75"/>
<rect x="36" y="48.999" fill="#302C3B" width="1.75" height="1.75"/>
<rect x="26.25" y="46.749" fill="#302C3B" width="1.75" height="1.75"/>
<rect x="28.5" y="46.749" fill="#302C3B" width="1.75" height="1.75"/>
<rect x="26.25" y="48.999" fill="#302C3B" width="1.75" height="1.75"/>
<rect x="28.5" y="48.999" fill="#302C3B" width="1.75" height="1.75"/>
</svg>
