<?xml version="1.0" encoding="utf-8"?>
<!-- Generator: Adobe Illustrator 15.0.0, SVG Export Plug-In . SVG Version: 6.00 Build 0)  -->
<!DOCTYPE svg PUBLIC "-//W3C//DTD SVG 1.1//EN" "http://www.w3.org/Graphics/SVG/1.1/DTD/svg11.dtd" [
	<!ENTITY ns_flows "http://ns.adobe.com/Flows/1.0/">
	<!ENTITY ns_extend "http://ns.adobe.com/Extensibility/1.0/">
	<!ENTITY ns_ai "http://ns.adobe.com/AdobeIllustrator/10.0/">
	<!ENTITY ns_graphs "http://ns.adobe.com/Graphs/1.0/">
]>
<svg version="1.1" id="Layer_1" xmlns:x="&ns_extend;" xmlns:i="&ns_ai;" xmlns:graph="&ns_graphs;"
	 xmlns="http://www.w3.org/2000/svg" xmlns:xlink="http://www.w3.org/1999/xlink" xmlns:a="http://ns.adobe.com/AdobeSVGViewerExtensions/3.0/"
	 x="0px" y="0px" width="64px" height="64px" viewBox="0 0 64 64" enable-background="new 0 0 64 64" xml:space="preserve">
<path fill="#404D54" d="M17.177,19.959h-1.941c0,0-0.463-1.032,0-1.655C15.548,19.4,17.177,19.959,17.177,19.959z"/>
<path fill="#404D54" d="M46.823,19.959h1.939c0,0,0.465-1.032,0-1.655C48.45,19.4,46.823,19.959,46.823,19.959z"/>
<rect x="10.901" y="25.709" fill="#DED9D5" width="42.197" height="23.406"/>
<path fill="#4E5E67" d="M53.1,37.7H10.902c0,0-2.406,2.131-6.902,0.776c0,3.962,9.186,4.639,13.996,4.639c3.498,0,24.51,0,28.008,0
	c4.811,0,13.996-0.677,13.996-4.639C55.504,39.831,53.1,37.7,53.1,37.7z"/>
<path fill="#4E5E67" d="M52.711,24.823c-1.455-1.854-3.885-4.99-3.885-4.99H15.174c0,0-2.43,3.137-3.885,4.99
	c-1.004,1.28-3.773,2.206-7.289,1.01c0,3.962,7.955,4.639,18.436,4.639c1.57,0,2.283-4.409,4.021-4.409c3.453,0,7.635,0,11.086,0
	c1.738,0,2.451,4.409,4.023,4.409C52.045,30.472,60,29.795,60,25.833C56.484,27.029,53.717,26.104,52.711,24.823z"/>
<path fill="#404D54" d="M26.36,3.655h-1.939c0,0-0.465-1.032,0-1.655C24.733,3.097,26.36,3.655,26.36,3.655z"/>
<path fill="#404D54" d="M37.638,3.655h1.941c0,0,0.463-1.032,0-1.655C39.267,3.097,37.638,3.655,37.638,3.655z"/>
<rect x="19" y="17.368" fill="#DED9D5" width="26" height="5.787"/>
<path fill="#4E5E67" d="M41.778,12.898H22.222c0,0-2.875,3.845-7.039,2.472c0,2.379,5.516,2.785,8.404,2.785
	c2.102,0,14.727,0,16.826,0c2.889,0,8.404-0.406,8.404-2.785C44.655,16.743,41.778,12.898,41.778,12.898z"/>
<rect x="22.222" y="7.139" fill="#DED9D5" width="19.557" height="5.76"/>
<path fill="#4E5E67" d="M44.321,6.21c-2.748,1.15-4.631-2.791-4.631-2.791H24.31c0,0-1.883,3.941-4.631,2.791
	c-0.34,2.193,2.496,2.606,7.283,2.606c0.715,0,1.264-1.696,2.059-1.696c1.576,0,4.383,0,5.959,0c0.795,0,1.344,1.696,2.061,1.696
	C41.827,8.816,44.663,8.403,44.321,6.21z"/>
<polygon fill="#404D54" points="37.307,18.155 32,13.36 26.693,18.155 "/>
<polygon fill="#DED9D5" points="27.834,19.123 36.166,19.123 32,15.36 "/>
<polygon fill="#8A6859" points="53.099,49.115 10.901,49.115 8.903,62 55.097,62 "/>
<path fill="#C49E8F" d="M14.318,53.161c-0.499,0.589-2.317,0.589-2.816,0c-0.47-0.557-0.47-2.598,0-3.153
	c0.499-0.589,2.317-0.589,2.816,0C14.789,50.565,14.789,52.604,14.318,53.161z"/>
<path fill="#D6A57C" d="M21.581,52.4c0.113,0.758-0.967,1.563-1.672,1.245c-0.666-0.3-2.085-2.162-2.192-2.878
	c-0.114-0.758,0.967-1.561,1.671-1.245C20.056,49.824,21.473,51.685,21.581,52.4z"/>
<path fill="#C49E8F" d="M17.481,51.296c-0.093,0.491-1.064,0.939-1.506,0.69c-0.413-0.231-1.017-1.511-0.929-1.977
	c0.093-0.49,1.064-0.938,1.504-0.692C16.969,49.553,17.569,50.832,17.481,51.296z"/>
<path fill="#B47D56" d="M18.871,56.344c-0.445,0.76-2.489,1.118-3.166,0.553c-0.638-0.536-1.041-2.839-0.622-3.561
	c0.445-0.761,2.49-1.119,3.167-0.554C18.889,53.32,19.291,55.623,18.871,56.344z"/>
<path fill="#D6A57C" d="M29.566,53.701c0.546-0.514,2.54-0.514,3.087,0c0.516,0.485,0.516,2.266,0,2.751
	c-0.547,0.514-2.541,0.514-3.087,0C29.05,55.966,29.05,54.187,29.566,53.701z"/>
<path fill="#D6A57C" d="M25.56,51.584c-0.502-0.35-0.477-1.589,0.038-1.918c0.487-0.311,2.246-0.276,2.717,0.055
	c0.5,0.348,0.476,1.588-0.038,1.919C27.789,51.951,26.03,51.915,25.56,51.584z"/>
<path fill="#C49E8F" d="M22.007,51.222c-0.444-0.263-0.424-1.191,0.028-1.437c0.428-0.231,1.978-0.201,2.394,0.048
	c0.441,0.262,0.422,1.19-0.029,1.438C23.972,51.503,22.422,51.471,22.007,51.222z"/>
<path fill="#C49E8F" d="M30.886,49.634c0.633-0.091,1.567,0.874,1.448,1.494c-0.112,0.586-1.412,1.817-2.009,1.903
	c-0.632,0.091-1.566-0.874-1.448-1.494C28.99,50.951,30.29,49.72,30.886,49.634z"/>
<path fill="#705041" d="M26.513,52.594c0.37-0.674,1.723-0.674,2.093,0c0.35,0.638,0.35,2.976,0,3.613
	c-0.37,0.674-1.723,0.674-2.093,0C26.163,55.567,26.163,53.231,26.513,52.594z"/>
<path fill="#B47D56" d="M23.918,51.72c0.654-0.129,1.608,0.819,1.477,1.466c-0.126,0.612-1.492,1.957-2.11,2.078
	c-0.654,0.129-1.608-0.82-1.477-1.467C21.934,53.185,23.298,51.841,23.918,51.72z"/>
<path fill="#B47D56" d="M37.438,52.588c-0.74,0.514-3.443,0.514-4.183,0c-0.701-0.485-0.701-2.266,0-2.751
	c0.739-0.514,3.443-0.514,4.183,0C38.138,50.323,38.138,52.103,37.438,52.588z"/>
<path fill="#705041" d="M42.75,52.4c0.114,0.758-0.966,1.563-1.671,1.245c-0.667-0.3-2.085-2.162-2.192-2.878
	c-0.113-0.758,0.967-1.561,1.671-1.245C41.226,49.824,42.643,51.685,42.75,52.4z"/>
<path fill="#C49E8F" d="M40.097,54.564c-0.093,0.491-1.064,0.939-1.506,0.69c-0.414-0.231-1.016-1.511-0.93-1.977
	c0.094-0.49,1.065-0.938,1.505-0.692C39.584,52.821,40.185,54.101,40.097,54.564z"/>
<path fill="#D6A57C" d="M37.487,57.521c-0.37,0.674-1.722,0.674-2.093,0c-0.35-0.638-0.35-2.976,0-3.613
	c0.371-0.674,1.723-0.674,2.093,0C37.838,54.548,37.838,56.884,37.487,57.521z"/>
<path fill="#C49E8F" d="M50.468,52.901c0.486-0.514,2.257-0.514,2.743,0c0.458,0.485,0.458,2.266,0,2.751
	c-0.486,0.514-2.257,0.514-2.743,0C50.01,55.166,50.01,53.387,50.468,52.901z"/>
<path fill="#C49E8F" d="M43.37,51.046c-0.443-0.263-0.423-1.191,0.029-1.437c0.428-0.231,1.978-0.201,2.393,0.048
	c0.442,0.262,0.423,1.19-0.028,1.438C45.336,51.327,43.786,51.295,43.37,51.046z"/>
<path fill="#705041" d="M52.637,49.658c0.537,0.345,0.611,1.687,0.114,2.077c-0.469,0.369-2.258,0.447-2.765,0.121
	c-0.536-0.346-0.61-1.687-0.114-2.078C50.342,49.41,52.131,49.332,52.637,49.658z"/>
<path fill="#B47D56" d="M46.789,50.61c0.25-0.728,1.582-0.956,2.062-0.355c0.453,0.569,0.851,2.873,0.614,3.561
	c-0.252,0.728-1.584,0.957-2.063,0.355C46.948,53.6,46.552,51.298,46.789,50.61z"/>
<path fill="#B47D56" d="M45.118,51.999c0.762-0.127,1.599,0.927,1.297,1.626c-0.287,0.664-2.132,2.1-2.851,2.218
	c-0.76,0.126-1.598-0.928-1.296-1.629C42.556,53.551,44.398,52.117,45.118,51.999z"/>
<rect x="27.181" y="32.7" fill="#C4BFBD" width="3" height="3"/>
<rect x="27.681" y="33.2" fill="#302C3B" width="2" height="2"/>
<rect x="33.819" y="32.7" fill="#C4BFBD" width="3" height="3"/>
<rect x="34.319" y="33.2" fill="#302C3B" width="2" height="2"/>
<rect x="40.459" y="32.7" fill="#C4BFBD" width="3" height="3"/>
<rect x="40.959" y="33.2" fill="#302C3B" width="2" height="2"/>
<rect x="47.099" y="32.7" fill="#C4BFBD" width="3" height="3"/>
<rect x="47.599" y="33.2" fill="#302C3B" width="2" height="2"/>
<rect x="20.541" y="32.7" fill="#C4BFBD" width="3" height="3"/>
<rect x="21.041" y="33.2" fill="#302C3B" width="2" height="2"/>
<rect x="13.901" y="32.7" fill="#C4BFBD" width="3" height="3"/>
<rect x="14.401" y="33.2" fill="#302C3B" width="2" height="2"/>
<rect x="27.181" y="44.115" fill="#C4BFBD" width="3" height="3"/>
<rect x="27.681" y="44.615" fill="#302C3B" width="2" height="2"/>
<rect x="33.819" y="44.115" fill="#C4BFBD" width="3" height="3"/>
<rect x="34.319" y="44.615" fill="#302C3B" width="2" height="2"/>
<rect x="40.459" y="44.115" fill="#C4BFBD" width="3" height="3"/>
<rect x="40.959" y="44.615" fill="#302C3B" width="2" height="2"/>
<rect x="47.099" y="44.115" fill="#C4BFBD" width="3" height="3"/>
<rect x="47.599" y="44.615" fill="#302C3B" width="2" height="2"/>
<rect x="20.541" y="44.115" fill="#C4BFBD" width="3" height="3"/>
<rect x="21.041" y="44.615" fill="#302C3B" width="2" height="2"/>
<rect x="13.901" y="44.115" fill="#C4BFBD" width="3" height="3"/>
<rect x="14.401" y="44.615" fill="#302C3B" width="2" height="2"/>
<rect x="33.819" y="27.152" fill="#C4BFBD" width="3" height="3"/>
<rect x="34.319" y="27.652" fill="#302C3B" width="2" height="2"/>
<rect x="27.181" y="27.152" fill="#C4BFBD" width="3" height="3"/>
<rect x="27.681" y="27.652" fill="#302C3B" width="2" height="2"/>
<rect x="33.82" y="19.155" fill="#C4BFBD" width="3" height="3"/>
<rect x="34.32" y="19.655" fill="#302C3B" width="2" height="2"/>
<rect x="40.459" y="19.155" fill="#C4BFBD" width="3" height="3"/>
<rect x="40.959" y="19.655" fill="#302C3B" width="2" height="2"/>
<rect x="27.181" y="19.155" fill="#C4BFBD" width="3" height="3"/>
<rect x="27.681" y="19.655" fill="#302C3B" width="2" height="2"/>
<rect x="20.541" y="19.155" fill="#C4BFBD" width="3" height="3"/>
<rect x="21.041" y="19.655" fill="#302C3B" width="2" height="2"/>
<rect x="37.14" y="9.289" fill="#C4BFBD" width="3" height="3"/>
<rect x="37.64" y="9.789" fill="#302C3B" width="2" height="2"/>
<rect x="30.5" y="9.289" fill="#C4BFBD" width="3" height="3"/>
<rect x="31" y="9.789" fill="#302C3B" width="2" height="2"/>
<rect x="23.86" y="9.289" fill="#C4BFBD" width="3" height="3"/>
<rect x="24.36" y="9.789" fill="#302C3B" width="2" height="2"/>
<path fill="#785647" d="M6.271,59.116l-0.39,0.039c0,0.381-0.018,2.844-0.018,2.844h0.528C6.393,61.999,6.27,59.503,6.271,59.116z"
	/>
<path fill="#FF8FA8" d="M5.936,54.016c-1.064,0.114-1.058,0.607-1.264,0.72c-0.209,0.113-1.593,0.359-1.697,0.758
	c-0.104,0.396,0.309,1.133-0.026,1.136c-1.323,0.009,0.099,0.718-0.44,0.927c-1.706,0.663,1.444,1.022,1.298,1.505
	c-0.365,1.198,2.183,0.168,2.476,0.594c0.489,0.709,1.776-1.221,2.372-1.031c0.952,0.303,1.947-1.39,0.762-1.54
	c-0.596-0.077,1.513-0.868-1.108-1.837C7.719,55.028,7.538,53.846,5.936,54.016z"/>
<path fill="#785647" d="M11.777,58.801L11.3,58.756c0,0.435-0.15,3.243-0.15,3.243h0.649C11.799,61.999,11.777,59.228,11.777,58.801
	z"/>
<path fill="#FFA8C3" d="M11.713,53.018c1.31,0.127,1.3,0.683,1.555,0.81c0.256,0.128,1.959,0.405,2.087,0.853
	s-0.38,1.274,0.032,1.277c1.629,0.01-0.122,0.808,0.54,1.043c2.101,0.746-1.775,1.15-1.595,1.693
	c0.448,1.348-2.686,0.188-3.047,0.669c-0.6,0.797-2.183-1.375-2.917-1.161c-1.171,0.342-2.396-1.563-0.937-1.733
	c0.733-0.085-1.86-0.975,1.362-2.066C9.52,54.157,9.74,52.826,11.713,53.018z"/>
<path fill="#785647" d="M17.633,59.116l-0.389,0.039c0,0.381-0.018,2.844-0.018,2.844h0.527
	C17.754,61.999,17.631,59.503,17.633,59.116z"/>
<path fill="#FF8FA8" d="M17.297,54.016c-1.064,0.114-1.057,0.607-1.264,0.72c-0.209,0.113-1.592,0.359-1.697,0.758
	c-0.104,0.396,0.309,1.133-0.025,1.136c-1.324,0.009,0.098,0.718-0.441,0.927c-1.705,0.663,1.445,1.022,1.299,1.505
	c-0.365,1.198,2.182,0.168,2.475,0.594c0.49,0.709,1.777-1.221,2.373-1.031c0.951,0.303,1.947-1.39,0.762-1.54
	c-0.596-0.077,1.512-0.868-1.109-1.837C19.08,55.028,18.9,53.846,17.297,54.016z"/>
<path fill="#785647" d="M23.139,58.801l-0.478-0.045c0,0.435-0.15,3.243-0.15,3.243h0.649C23.16,61.999,23.139,59.228,23.139,58.801
	z"/>
<path fill="#FFA8C3" d="M23.074,53.018c1.31,0.127,1.3,0.683,1.555,0.81c0.256,0.128,1.959,0.405,2.087,0.853
	s-0.38,1.274,0.032,1.277c1.629,0.01-0.122,0.808,0.54,1.043c2.101,0.746-1.775,1.15-1.595,1.693
	c0.448,1.348-2.686,0.188-3.047,0.669c-0.6,0.797-2.183-1.375-2.917-1.161c-1.171,0.342-2.396-1.563-0.937-1.733
	c0.733-0.085-1.86-0.975,1.362-2.066C20.881,54.157,21.102,52.826,23.074,53.018z"/>
<path fill="#785647" d="M28.995,59.116l-0.39,0.039c0,0.381-0.018,2.844-0.018,2.844h0.528
	C29.116,61.999,28.993,59.503,28.995,59.116z"/>
<path fill="#FF8FA8" d="M28.659,54.016c-1.064,0.114-1.058,0.607-1.264,0.72c-0.209,0.113-1.593,0.359-1.697,0.758
	c-0.104,0.396,0.309,1.133-0.026,1.136c-1.323,0.009,0.099,0.718-0.44,0.927c-1.706,0.663,1.444,1.022,1.298,1.505
	c-0.365,1.198,2.183,0.168,2.476,0.594c0.489,0.709,1.776-1.221,2.372-1.031c0.952,0.303,1.947-1.39,0.762-1.54
	c-0.596-0.077,1.513-0.868-1.108-1.837C30.442,55.028,30.262,53.846,28.659,54.016z"/>
<path fill="#785647" d="M34.501,58.801l-0.478-0.045c0,0.435-0.15,3.243-0.15,3.243h0.649
	C34.522,61.999,34.501,59.228,34.501,58.801z"/>
<path fill="#FFA8C3" d="M34.437,53.018c1.31,0.127,1.3,0.683,1.555,0.81c0.256,0.128,1.959,0.405,2.087,0.853
	s-0.38,1.274,0.032,1.277c1.629,0.01-0.122,0.808,0.54,1.043c2.101,0.746-1.775,1.15-1.595,1.693
	c0.448,1.348-2.686,0.188-3.047,0.669c-0.6,0.797-2.183-1.375-2.917-1.161c-1.171,0.342-2.396-1.563-0.937-1.733
	c0.733-0.085-1.86-0.975,1.362-2.066C32.243,54.157,32.464,52.826,34.437,53.018z"/>
<path fill="#785647" d="M40.357,59.116l-0.39,0.039c0,0.381-0.018,2.844-0.018,2.844h0.528
	C40.479,61.999,40.355,59.503,40.357,59.116z"/>
<path fill="#FF8FA8" d="M40.021,54.016c-1.064,0.114-1.058,0.607-1.264,0.72c-0.209,0.113-1.593,0.359-1.697,0.758
	c-0.104,0.396,0.309,1.133-0.026,1.136c-1.323,0.009,0.099,0.718-0.44,0.927c-1.706,0.663,1.444,1.022,1.298,1.505
	c-0.365,1.198,2.183,0.168,2.476,0.594c0.489,0.709,1.776-1.221,2.372-1.031c0.952,0.303,1.947-1.39,0.762-1.54
	c-0.596-0.077,1.513-0.868-1.108-1.837C41.805,55.028,41.624,53.846,40.021,54.016z"/>
<path fill="#785647" d="M45.863,58.801l-0.479-0.045c0,0.435-0.15,3.243-0.15,3.243h0.65C45.885,61.999,45.863,59.228,45.863,58.801
	z"/>
<path fill="#FFA8C3" d="M45.799,53.018c1.309,0.127,1.299,0.683,1.555,0.81c0.256,0.128,1.959,0.405,2.086,0.853
	c0.129,0.447-0.379,1.274,0.033,1.277c1.629,0.01-0.123,0.808,0.539,1.043c2.102,0.746-1.775,1.15-1.594,1.693
	c0.447,1.348-2.686,0.188-3.047,0.669c-0.6,0.797-2.184-1.375-2.918-1.161c-1.17,0.342-2.395-1.563-0.936-1.733
	c0.732-0.085-1.861-0.975,1.361-2.066C43.605,54.157,43.826,52.826,45.799,53.018z"/>
<path fill="#785647" d="M51.719,59.116l-0.39,0.039c0,0.381-0.018,2.844-0.018,2.844h0.528
	C51.84,61.999,51.717,59.503,51.719,59.116z"/>
<path fill="#FF8FA8" d="M51.383,54.016c-1.064,0.114-1.058,0.607-1.264,0.72c-0.209,0.113-1.593,0.359-1.697,0.758
	c-0.104,0.396,0.309,1.133-0.026,1.136c-1.323,0.009,0.099,0.718-0.44,0.927c-1.706,0.663,1.444,1.022,1.298,1.505
	c-0.365,1.198,2.183,0.168,2.476,0.594c0.489,0.709,1.776-1.221,2.372-1.031c0.952,0.303,1.947-1.39,0.762-1.54
	c-0.596-0.077,1.513-0.868-1.108-1.837C53.166,55.028,52.985,53.846,51.383,54.016z"/>
<path fill="#785647" d="M57.225,58.801l-0.478-0.045c0,0.435-0.15,3.243-0.15,3.243h0.649
	C57.246,61.999,57.225,59.228,57.225,58.801z"/>
<path fill="#FFA8C3" d="M57.16,53.018c1.31,0.127,1.3,0.683,1.555,0.81c0.256,0.128,1.959,0.405,2.087,0.853
	s-0.38,1.274,0.032,1.277c1.629,0.01-0.122,0.808,0.54,1.043c2.101,0.746-1.775,1.15-1.595,1.693
	c0.448,1.348-2.686,0.188-3.047,0.669c-0.6,0.797-2.183-1.375-2.917-1.161c-1.171,0.342-2.396-1.563-0.937-1.733
	c0.733-0.085-1.86-0.975,1.362-2.066C54.967,54.157,55.188,52.826,57.16,53.018z"/>
<path fill="#7AB51D" d="M60.098,61.081c0.229-0.411-1.818-0.802-2.666-0.277c-0.508-0.329-2.605-0.244-2.672,0.191
	c-0.248-0.396-1.854-0.476-2.26-0.074c-0.643-0.396-3.111-0.165-3.313,0.251c-0.941-0.325-1.984-0.191-2.502,0.17
	c-0.277-0.139-0.732-0.248-1.482-0.261c0.23-0.411-1.818-0.802-2.666-0.277c-0.506-0.329-2.605-0.244-2.672,0.191
	c-0.248-0.396-1.854-0.476-2.26-0.074c-0.641-0.396-3.111-0.165-3.313,0.251c-0.867-0.302-1.824-0.208-2.371,0.09
	c-0.285-0.099-0.693-0.169-1.291-0.181c0.23-0.411-1.818-0.802-2.666-0.277c-0.506-0.329-2.605-0.244-2.672,0.191
	c-0.248-0.396-1.854-0.476-2.26-0.074c-0.641-0.396-3.111-0.165-3.313,0.251c-0.941-0.325-1.984-0.191-2.5,0.17
	c-0.279-0.139-0.732-0.248-1.482-0.261c0.229-0.411-1.82-0.802-2.668-0.277c-0.506-0.329-2.605-0.244-2.67,0.191
	c-0.248-0.396-1.855-0.476-2.26-0.074c-0.643-0.396-3.113-0.165-3.313,0.251c-1.402-0.485-3.037,0.051-2.807,0.827H61.98
	C61.98,61.999,62.328,61.121,60.098,61.081z"/>
</svg>
