<?xml version="1.0" encoding="utf-8"?>
<!-- Generator: Adobe Illustrator 15.0.0, SVG Export Plug-In . SVG Version: 6.00 Build 0)  -->
<!DOCTYPE svg PUBLIC "-//W3C//DTD SVG 1.1//EN" "http://www.w3.org/Graphics/SVG/1.1/DTD/svg11.dtd" [
	<!ENTITY ns_flows "http://ns.adobe.com/Flows/1.0/">
	<!ENTITY ns_extend "http://ns.adobe.com/Extensibility/1.0/">
	<!ENTITY ns_ai "http://ns.adobe.com/AdobeIllustrator/10.0/">
	<!ENTITY ns_graphs "http://ns.adobe.com/Graphs/1.0/">
]>
<svg version="1.1" id="Layer_1" xmlns:x="&ns_extend;" xmlns:i="&ns_ai;" xmlns:graph="&ns_graphs;"
	 xmlns="http://www.w3.org/2000/svg" xmlns:xlink="http://www.w3.org/1999/xlink" xmlns:a="http://ns.adobe.com/AdobeSVGViewerExtensions/3.0/"
	 x="0px" y="0px" width="64px" height="64px" viewBox="0 0 64 64" enable-background="new 0 0 64 64" xml:space="preserve">
<linearGradient id="SVGID_1_" gradientUnits="userSpaceOnUse" x1="31.9995" y1="2" x2="31.9995" y2="62.0005">
	<stop  offset="0" style="stop-color:#00ABF1"/>
	<stop  offset="0.2292" style="stop-color:#00A7EF"/>
	<stop  offset="0.4667" style="stop-color:#009AE9"/>
	<stop  offset="0.708" style="stop-color:#0086E0"/>
	<stop  offset="0.9504" style="stop-color:#0069D3"/>
	<stop  offset="1" style="stop-color:#0062D0"/>
	<a:midPointStop  offset="0" style="stop-color:#00ABF1"/>
	<a:midPointStop  offset="0.7" style="stop-color:#00ABF1"/>
	<a:midPointStop  offset="1" style="stop-color:#0062D0"/>
</linearGradient>
<path fill="url(#SVGID_1_)" d="M61.999,54c0,4.4-3.6,8-7.999,8H10c-4.4,0-8-3.6-8-8V10c0-4.4,3.6-8,8-8h44
	c4.399,0,7.999,3.6,7.999,8V54z"/>
<rect x="2" y="19" fill="#013366" width="60" height="26"/>
<path fill="#FFFFFF" d="M23.854,41.213h-2.639c-0.349,0-0.599-0.158-0.704-0.521l-0.887-2.783h-7.07l-0.887,2.783
	c-0.105,0.362-0.355,0.521-0.704,0.521H8.325c-0.454,0-0.672-0.258-0.521-0.705l5.856-17.201c0.105-0.342,0.375-0.52,0.725-0.52
	h3.408c0.349,0,0.618,0.178,0.724,0.52l5.856,17.201C24.525,40.955,24.309,41.213,23.854,41.213z M18.543,34.514l-2.453-7.699
	l-2.453,7.699H18.543z"/>
<path fill="#FFFFFF" d="M36.176,23.413v2.224c0,0.401-0.224,0.625-0.625,0.625h-3.816v14.326c0,0.4-0.225,0.625-0.626,0.625H28.74
	c-0.401,0-0.625-0.225-0.625-0.625V26.262h-3.817c-0.401,0-0.625-0.224-0.625-0.625v-2.224c0-0.401,0.224-0.625,0.625-0.625h7.437
	h3.816C35.952,22.788,36.176,23.011,36.176,23.413z"/>
<path fill="#FFFFFF" d="M56.242,23.413v17.175c0,0.4-0.224,0.625-0.625,0.625h-2.369c-0.401,0-0.625-0.225-0.625-0.625v-11.75
	l-3.876,8.953c-0.132,0.328-0.375,0.473-0.724,0.473h-1.593c-0.349,0-0.592-0.145-0.724-0.473l-3.876-8.953v11.75
	c0,0.4-0.224,0.625-0.625,0.625h-2.369c-0.401,0-0.625-0.225-0.625-0.625V23.413c0-0.401,0.224-0.625,0.625-0.625h2.369h0.619
	c0.349,0,0.592,0.145,0.724,0.474l4.679,10.792l4.679-10.792c0.131-0.329,0.375-0.474,0.724-0.474h1.803h1.185
	C56.019,22.788,56.242,23.011,56.242,23.413z"/>
</svg>
