<?xml version="1.0" encoding="utf-8"?>
<!-- Generator: Adobe Illustrator 15.0.0, SVG Export Plug-In . SVG Version: 6.00 Build 0)  -->
<!DOCTYPE svg PUBLIC "-//W3C//DTD SVG 1.1//EN" "http://www.w3.org/Graphics/SVG/1.1/DTD/svg11.dtd" [
	<!ENTITY ns_flows "http://ns.adobe.com/Flows/1.0/">
	<!ENTITY ns_extend "http://ns.adobe.com/Extensibility/1.0/">
	<!ENTITY ns_ai "http://ns.adobe.com/AdobeIllustrator/10.0/">
	<!ENTITY ns_graphs "http://ns.adobe.com/Graphs/1.0/">
]>
<svg version="1.1" id="Layer_1" xmlns:x="&ns_extend;" xmlns:i="&ns_ai;" xmlns:graph="&ns_graphs;"
	 xmlns="http://www.w3.org/2000/svg" xmlns:xlink="http://www.w3.org/1999/xlink" xmlns:a="http://ns.adobe.com/AdobeSVGViewerExtensions/3.0/"
	 x="0px" y="0px" width="64px" height="64px" viewBox="0 0 64 64" enable-background="new 0 0 64 64" xml:space="preserve">
<polygon fill="#CFD8DD" points="2,49 2,62 4,62 4,51 21,51 21,49 "/>
<rect x="2" y="47.963" fill="#FF000E" width="19" height="2"/>
<path fill="#FF000E" d="M4.902,47.664v0.232c0,0.043-0.023,0.066-0.066,0.066H3.885H3.826c-0.043,0-0.066-0.023-0.066-0.066v-1.793
	c0-0.043,0.023-0.066,0.066-0.066h0.313h0.684c0.043,0,0.066,0.023,0.066,0.066v0.232c0,0.041-0.023,0.064-0.066,0.064H4.139v0.412
	h0.615c0.043,0,0.065,0.023,0.065,0.064v0.225c0,0.043-0.022,0.066-0.065,0.066H4.139V47.6h0.697
	C4.879,47.6,4.902,47.623,4.902,47.664z"/>
<path fill="#FF000E" d="M7.059,46.104v1.793c0,0.043-0.023,0.066-0.066,0.066H6.746c-0.043,0-0.066-0.023-0.066-0.066V46.67
	l-0.404,0.936c-0.014,0.035-0.039,0.049-0.076,0.049H6.033c-0.037,0-0.063-0.014-0.076-0.049L5.553,46.67v1.227
	c0,0.043-0.023,0.066-0.065,0.066H5.239c-0.042,0-0.065-0.023-0.065-0.066v-1.793c0-0.043,0.023-0.066,0.065-0.066h0.248h0.064
	c0.036,0,0.062,0.016,0.075,0.049l0.489,1.129l0.489-1.129c0.014-0.033,0.039-0.049,0.075-0.049h0.188h0.123
	C7.035,46.037,7.059,46.061,7.059,46.104z"/>
<path fill="#FF000E" d="M8.561,47.664v0.232c0,0.043-0.023,0.066-0.064,0.066H7.543H7.484c-0.041,0-0.064-0.023-0.064-0.066v-1.793
	c0-0.043,0.023-0.066,0.064-0.066h0.313h0.686c0.041,0,0.064,0.023,0.064,0.066v0.232c0,0.041-0.023,0.064-0.064,0.064H7.797v0.412
	h0.616c0.042,0,0.065,0.023,0.065,0.064v0.225c0,0.043-0.023,0.066-0.065,0.066H7.797V47.6h0.699
	C8.537,47.6,8.561,47.623,8.561,47.664z"/>
<path fill="#FF000E" d="M10.332,47.963h-0.291c-0.034,0-0.061-0.01-0.082-0.039l-0.513-0.629H9.211v0.602
	c0,0.043-0.023,0.066-0.064,0.066H8.898c-0.042,0-0.065-0.023-0.065-0.066v-1.793c0-0.043,0.023-0.066,0.065-0.066h0.313h0.352
	c0.354,0,0.639,0.285,0.639,0.639c0,0.24-0.146,0.453-0.359,0.557l0.529,0.648C10.404,47.924,10.387,47.963,10.332,47.963z
	 M9.211,46.961h0.352c0.143,0,0.261-0.125,0.261-0.285s-0.118-0.283-0.261-0.283H9.211V46.961z"/>
<path fill="#FF000E" d="M12.327,46.996v0.268v0.633c0,0.043-0.023,0.066-0.065,0.066h-0.227c-0.042,0-0.065-0.023-0.065-0.066
	v-0.178C11.834,47.904,11.618,48,11.353,48c-0.546,0-0.958-0.438-0.958-1s0.42-1,1-1c0.428,0,0.793,0.262,0.91,0.611
	c0.016,0.043-0.008,0.072-0.054,0.072h-0.268c-0.036,0-0.059-0.016-0.077-0.047c-0.088-0.154-0.285-0.268-0.512-0.268
	c-0.375,0-0.622,0.262-0.622,0.631c0,0.391,0.26,0.652,0.622,0.652c0.252,0,0.494-0.117,0.555-0.389h-0.471
	c-0.043,0-0.066-0.023-0.066-0.064v-0.203c0-0.043,0.023-0.066,0.066-0.066h0.783C12.304,46.93,12.327,46.953,12.327,46.996z"/>
<path fill="#FF000E" d="M13.788,47.664v0.232c0,0.043-0.023,0.066-0.065,0.066H12.77h-0.058c-0.042,0-0.065-0.023-0.065-0.066
	v-1.793c0-0.043,0.023-0.066,0.065-0.066h0.313h0.685c0.041,0,0.064,0.023,0.064,0.066v0.232c0,0.041-0.023,0.064-0.064,0.064
	h-0.685v0.412h0.616c0.041,0,0.064,0.023,0.064,0.064v0.225c0,0.043-0.023,0.066-0.064,0.066h-0.616V47.6h0.698
	C13.765,47.6,13.788,47.623,13.788,47.664z"/>
<path fill="#FF000E" d="M15.164,46.037h0.247c0.042,0,0.065,0.023,0.065,0.066v1.793c0,0.043-0.023,0.066-0.065,0.066H15.24
	c-0.035,0-0.063-0.014-0.081-0.041l-0.722-1.148v1.123c0,0.043-0.023,0.066-0.064,0.066h-0.248c-0.041,0-0.064-0.023-0.064-0.066
	v-1.793c0-0.043,0.023-0.066,0.064-0.066h0.172c0.034,0,0.063,0.014,0.08,0.043l0.721,1.146v-1.123
	C15.098,46.061,15.121,46.037,15.164,46.037z"/>
<path fill="#FF000E" d="M15.748,47c0-0.563,0.42-1,1.003-1c0.431,0,0.798,0.266,0.915,0.652c0.012,0.043-0.012,0.072-0.057,0.072
	h-0.268c-0.035,0-0.058-0.018-0.073-0.051c-0.086-0.188-0.286-0.305-0.518-0.305c-0.377,0-0.624,0.262-0.624,0.631
	c0,0.371,0.247,0.631,0.624,0.631c0.231,0,0.432-0.117,0.518-0.305c0.016-0.033,0.038-0.051,0.073-0.051h0.268
	c0.045,0,0.07,0.027,0.058,0.068C17.553,47.73,17.184,48,16.751,48C16.168,48,15.748,47.563,15.748,47z"/>
<path fill="#FF000E" d="M19.227,46.115l-0.585,0.992v0.789c0,0.043-0.023,0.066-0.065,0.066h-0.248
	c-0.041,0-0.064-0.023-0.064-0.066v-0.789l-0.584-0.992c-0.027-0.045-0.007-0.078,0.043-0.078h0.287
	c0.037,0,0.061,0.016,0.077,0.047l0.366,0.658l0.365-0.658c0.018-0.031,0.041-0.047,0.077-0.047h0.287
	C19.232,46.037,19.254,46.07,19.227,46.115z"/>
<path fill="#E6EBEF" d="M16.73,52H8.269c-0.212,0-0.385,0.173-0.385,0.385v7.975h9.231v-7.975C17.115,52.173,16.941,52,16.73,52z"/>
<rect x="7.884" y="56.757" fill="#EA8800" width="9.231" height="1.538"/>
<rect x="15.814" y="55.985" fill="#6E8189" width="1.059" height="0.387"/>
<path fill="#B3C2C6" d="M17.5,57.359c0,0.5-0.77,0.5-0.77,0v-1.557c0-0.502,0.77-0.502,0.77,0V57.359z"/>
<rect x="8.126" y="55.985" fill="#6E8189" width="1.059" height="0.387"/>
<path fill="#B3C2C6" d="M7.5,57.359c0,0.5,0.769,0.5,0.769,0v-1.557c0-0.502-0.769-0.502-0.769,0V57.359z"/>
<path fill="#FFFFFF" d="M9.807,54.355c-0.211,0-0.418,0.17-0.458,0.377l-0.622,2.402c-0.04,0.208-0.073,0.551-0.073,0.762v2.642
	c0,0.212,7.692,0.212,7.692,0v-2.642c0-0.211-0.033-0.554-0.074-0.762l-0.621-2.402c-0.041-0.207-0.247-0.377-0.459-0.377H9.807z"/>
<path fill="#302C3B" d="M10.063,54.692c-0.169,0-0.334,0.135-0.368,0.302L9.098,57.21c-0.033,0.167,0.078,0.303,0.248,0.303h6.308
	c0.169,0,0.28-0.136,0.247-0.303l-0.596-2.216c-0.033-0.167-0.199-0.302-0.368-0.302H10.063z"/>
<rect x="8.853" y="58.346" fill="#E6EBEF" width="2.007" height="1.154"/>
<path fill="#EA8800" d="M8.652,58.346c0.1,0,0.2,0,0.2,0V59.5c0,0-0.13,0-0.2,0C8.551,59.5,8.551,58.346,8.652,58.346z"/>
<rect x="9.053" y="58.577" fill="#B3C2C6" width="1.606" height="0.691"/>
<rect x="14.139" y="58.346" fill="#E6EBEF" width="2.008" height="1.154"/>
<path fill="#EA8800" d="M16.348,59.5c-0.101,0-0.201,0-0.201,0v-1.154c0,0,0.13,0,0.201,0C16.447,58.346,16.447,59.5,16.348,59.5z"
	/>
<rect x="14.34" y="58.577" fill="#B3C2C6" width="1.606" height="0.691"/>
<rect x="10.859" y="58.346" fill="#302C3B" width="3.279" height="1.154"/>
<path fill="#302C3B" d="M14.667,60.312v1.448c0,0.32,1.614,0.32,1.614,0v-1.448H14.667z"/>
<path fill="#302C3B" d="M8.717,60.312v1.448c0,0.32,1.615,0.32,1.615,0v-1.448H8.717z"/>
<path fill="#6E8189" d="M16.491,59.835H8.508c-0.318,0-0.318,1.241,0,1.241h7.983C16.811,61.076,16.811,59.835,16.491,59.835z"/>
<path fill="#FF000E" d="M15.393,52.961H9.606c-0.245,0-0.245,0.77,0,0.77h5.786C15.638,53.73,15.638,52.961,15.393,52.961z"/>
<rect x="12.115" y="52.77" fill="#99A8AE" width="0.77" height="1.153"/>
<rect x="21" y="5" fill="#E6EBEF" width="40" height="57"/>
<rect x="20.5" y="5" fill="#CFD8DD" width="41" height="1"/>
<rect x="20" y="2" fill="#FF000E" width="42" height="3"/>
<path id="Shape_35_" fill="#7AB51D" d="M25.648,54c-2.144,2.09-1.578,5.381-1.578,5.381h2.927
	C27.029,56.521,25.754,56.889,25.648,54z"/>
<polygon id="Shape_34_" fill="#9E6C49" points="23.813,59.381 24.134,62 26.868,62 27.188,59.381 "/>
<path id="Shape_33_" fill="#7AB51D" d="M56.342,54c2.143,2.09,1.576,5.381,1.576,5.381h-2.922
	C54.959,56.521,56.234,56.889,56.342,54z"/>
<polygon id="Shape_32_" fill="#9E6C49" points="58.188,59.381 57.865,62 55.135,62 54.813,59.381 "/>
<rect id="Rectangle-path_23_" x="20" y="47" fill="#B3C2C6" width="42" height="2"/>
<rect id="Rectangle-path_22_" x="20.5" y="49" fill="#CFD8DD" width="41" height="1"/>
<rect id="Rectangle-2_1_" x="30" y="52" fill="#F8F9FA" width="23" height="10"/>
<rect id="Rectangle-7_1_" x="31" y="53" fill="#4ECEE6" width="21" height="9"/>
<rect id="Rectangle-4_1_" x="30.5" y="57" fill="#F8F9FA" width="22" height="1"/>
<rect id="Rectangle-5_1_" x="35.5" y="52.5" fill="#F8F9FA" width="1" height="9.5"/>
<rect id="Rectangle-5-Copy-2_1_" x="46.5" y="52.5" fill="#F8F9FA" width="1" height="9.5"/>
<rect id="Rectangle-5-Copy_1_" x="41" y="52.5" fill="#F8F9FA" width="1" height="9.5"/>
<rect id="Rectangle-3_1_" x="40" y="51.5" fill="#6E8189" width="3" height="1"/>
<rect id="Rectangle-path_27_" x="18" y="9" fill="#CFD8DD" width="3" height="1"/>
<rect id="Rectangle-path_26_" x="18" y="20" fill="#CFD8DD" width="3" height="1"/>
<path id="Shape_36_" fill="#FF000E" d="M18,21.857C18,22.486,17.484,23,16.857,23H3.143C2.514,23,2,22.486,2,21.857V8.143
	C2,7.514,2.514,7,3.143,7h13.715C17.484,7,18,7.514,18,8.143V21.857z"/>
<rect id="Rectangle-path_25_" x="5.5" y="13.5" fill="#FFFFFF" width="9" height="3"/>
<rect id="Rectangle-path_24_" x="8.5" y="10.5" fill="#FFFFFF" width="3" height="9"/>
<rect id="Rectangle-path_37_" x="21" y="9" fill="#4ECEE6" width="40" height="9"/>
<rect id="Rectangle-path_29_" x="21" y="22" fill="#4ECEE6" width="40" height="9"/>
<rect id="Rectangle-path_28_" x="21" y="35" fill="#4ECEE6" width="40" height="9"/>
</svg>
