<?xml version="1.0" encoding="utf-8"?>
<!-- Generator: Adobe Illustrator 15.0.0, SVG Export Plug-In . SVG Version: 6.00 Build 0)  -->
<!DOCTYPE svg PUBLIC "-//W3C//DTD SVG 1.1//EN" "http://www.w3.org/Graphics/SVG/1.1/DTD/svg11.dtd" [
	<!ENTITY ns_flows "http://ns.adobe.com/Flows/1.0/">
	<!ENTITY ns_extend "http://ns.adobe.com/Extensibility/1.0/">
	<!ENTITY ns_ai "http://ns.adobe.com/AdobeIllustrator/10.0/">
	<!ENTITY ns_graphs "http://ns.adobe.com/Graphs/1.0/">
]>
<svg version="1.1" id="Layer_1" xmlns:x="&ns_extend;" xmlns:i="&ns_ai;" xmlns:graph="&ns_graphs;"
	 xmlns="http://www.w3.org/2000/svg" xmlns:xlink="http://www.w3.org/1999/xlink" xmlns:a="http://ns.adobe.com/AdobeSVGViewerExtensions/3.0/"
	 x="0px" y="0px" width="64px" height="64px" viewBox="0 0 64 64" enable-background="new 0 0 64 64" xml:space="preserve">
<polygon id="Shape" fill="#4E5E67" points="58.313,2 5.688,2 2,12 62,12 "/>
<polygon fill="#302C3B" points="5.369,2.867 4.021,6.52 4.502,7 7,4.499 "/>
<polygon fill="#302C3B" points="2.674,10.173 4.502,12 7,9.499 4.502,7 3.461,8.04 "/>
<rect x="7.733" y="2.731" transform="matrix(0.707 0.7072 -0.7072 0.707 5.9657 -5.4005)" fill="#302C3B" width="3.533" height="3.536"/>
<rect x="7.731" y="7.732" transform="matrix(-0.7072 -0.707 0.707 -0.7072 9.5033 22.9334)" fill="#302C3B" width="3.538" height="3.535"/>
<rect x="12.733" y="2.731" transform="matrix(0.707 0.7072 -0.7072 0.707 7.4309 -8.9367)" fill="#302C3B" width="3.533" height="3.536"/>
<rect x="12.731" y="7.732" transform="matrix(-0.7072 -0.707 0.707 -0.7072 18.0395 26.4682)" fill="#302C3B" width="3.538" height="3.535"/>
<rect x="17.733" y="2.731" transform="matrix(0.707 0.7072 -0.7072 0.707 8.896 -12.4729)" fill="#302C3B" width="3.533" height="3.536"/>
<rect x="17.731" y="7.732" transform="matrix(-0.7072 -0.707 0.707 -0.7072 26.5758 30.003)" fill="#302C3B" width="3.538" height="3.535"/>
<rect x="22.733" y="2.731" transform="matrix(0.707 0.7072 -0.7072 0.707 10.3612 -16.0091)" fill="#302C3B" width="3.533" height="3.536"/>
<rect x="22.731" y="7.732" transform="matrix(-0.7072 -0.707 0.707 -0.7072 35.112 33.5379)" fill="#302C3B" width="3.538" height="3.535"/>
<rect x="27.733" y="2.731" transform="matrix(0.707 0.7072 -0.7072 0.707 11.8263 -19.5454)" fill="#302C3B" width="3.533" height="3.536"/>
<rect x="27.731" y="7.732" transform="matrix(-0.7072 -0.707 0.707 -0.7072 43.6482 37.0727)" fill="#302C3B" width="3.538" height="3.535"/>
<rect x="32.733" y="2.731" transform="matrix(0.707 0.7072 -0.7072 0.707 13.2915 -23.0816)" fill="#302C3B" width="3.533" height="3.536"/>
<rect x="32.731" y="7.732" transform="matrix(-0.7072 -0.707 0.707 -0.7072 52.1844 40.6076)" fill="#302C3B" width="3.538" height="3.535"/>
<rect x="37.733" y="2.731" transform="matrix(0.707 0.7072 -0.7072 0.707 14.7567 -26.6178)" fill="#302C3B" width="3.533" height="3.536"/>
<rect x="37.731" y="7.732" transform="matrix(-0.7072 -0.707 0.707 -0.7072 60.7207 44.1424)" fill="#302C3B" width="3.538" height="3.535"/>
<rect x="42.733" y="2.731" transform="matrix(0.707 0.7072 -0.7072 0.707 16.2218 -30.154)" fill="#302C3B" width="3.533" height="3.536"/>
<rect x="42.731" y="7.732" transform="matrix(-0.7072 -0.707 0.707 -0.7072 69.2569 47.6773)" fill="#302C3B" width="3.538" height="3.535"/>
<rect x="47.733" y="2.731" transform="matrix(0.707 0.7072 -0.7072 0.707 17.687 -33.6903)" fill="#302C3B" width="3.533" height="3.536"/>
<rect x="47.731" y="7.732" transform="matrix(-0.7072 -0.707 0.707 -0.7072 77.7931 51.2121)" fill="#302C3B" width="3.538" height="3.535"/>
<rect x="52.733" y="2.731" transform="matrix(0.707 0.7072 -0.7072 0.707 19.1521 -37.2265)" fill="#302C3B" width="3.533" height="3.536"/>
<rect x="52.731" y="7.732" transform="matrix(-0.7072 -0.707 0.707 -0.7072 86.3293 54.747)" fill="#302C3B" width="3.538" height="3.535"/>
<polygon fill="#302C3B" points="59.98,6.521 58.633,2.868 57,4.499 59.502,7 "/>
<polygon fill="#302C3B" points="57,9.499 59.502,12 61.326,10.173 60.539,8.038 59.502,7 "/>
<rect id="Rectangle-path" x="4" y="12" fill="#E6EBEF" width="56" height="50"/>
<rect id="Rectangle-path_1_" x="21" y="45" fill="#99A8AE" width="22" height="17"/>
<rect id="Rectangle-path_2_" x="23.5" y="47" fill="#302C3B" width="8" height="15"/>
<rect id="Rectangle-path_3_" x="32.5" y="47" fill="#302C3B" width="8" height="15"/>
<rect id="Rectangle-path_4_" x="20" y="44" fill="#B3C2C6" width="24" height="1"/>
<rect id="Rectangle-path_5_" x="19" y="43" fill="#CFD8DD" width="26" height="1"/>
<rect id="Rectangle-path_6_" x="23" y="20.618" fill="#FF000E" width="18" height="4"/>
<rect id="Rectangle-path_7_" x="23" y="26.618" fill="#FF000E" width="18" height="4"/>
<rect id="Rectangle-path_8_" x="30" y="28.618" fill="#FF000E" width="4" height="10"/>
<path id="Shape_1_" fill="#FF000E" d="M52.27,59c0,0.275-0.227,0.5-0.5,0.5h-4c-0.275,0-0.5-0.225-0.5-0.5v-8.5
	c0-0.275,0.225-0.5,0.5-0.5h4c0.273,0,0.5,0.225,0.5,0.5V59z"/>
<rect id="Rectangle-path_9_" x="48.52" y="59.5" fill="#302C3B" width="2.5" height="2.5"/>
<path id="Shape_17_" fill="#E6EBEF" d="M51.77,56.5c0,0.273-0.227,0.5-0.5,0.5h-3c-0.275,0-0.5-0.227-0.5-0.5v-5
	c0-0.275,0.225-0.5,0.5-0.5h3c0.273,0,0.5,0.225,0.5,0.5V56.5z"/>
<rect id="Rectangle-path_10_" x="48.27" y="52.5" fill="#B3C2C6" width="3" height="3"/>
<rect id="Rectangle-path_11_" x="48.27" y="52.5" fill="#6E8189" width="3" height="1"/>
<rect x="33.57" y="53.104" fill="#FFFFFF" width="0.18" height="2.791"/>
<rect x="30.25" y="53.104" fill="#FFFFFF" width="0.178" height="2.791"/>
<path fill="#6E8189" d="M32,4c-4.42,0-8,3.58-8,8h16C40,7.58,36.42,4,32,4z"/>
<circle fill="#E6EBEF" cx="32" cy="12" r="6"/>
<linearGradient id="SVGID_1_" gradientUnits="userSpaceOnUse" x1="32.0005" y1="16.5" x2="32.0005" y2="7.5">
	<stop  offset="0" style="stop-color:#302C3B"/>
	<stop  offset="0.2926" style="stop-color:#454754"/>
	<stop  offset="0.7557" style="stop-color:#636D78"/>
	<stop  offset="1" style="stop-color:#6E7B85"/>
	<a:midPointStop  offset="0" style="stop-color:#302C3B"/>
	<a:midPointStop  offset="0.4364" style="stop-color:#302C3B"/>
	<a:midPointStop  offset="1" style="stop-color:#6E7B85"/>
</linearGradient>
<circle fill="url(#SVGID_1_)" cx="32" cy="12" r="4.5"/>
<path fill="#99A8AE" d="M8,44.5C8,44.225,7.775,44,7.5,44H4v4h3.5C7.775,48,8,47.775,8,47.5V44.5z"/>
<path fill="#B3C2C6" d="M6,38.5C6,38.225,5.775,38,5.5,38H4v4h1.5C5.775,42,6,41.775,6,41.5V38.5z"/>
<path fill="#99A8AE" d="M8,32.5C8,32.225,7.775,32,7.5,32H4v4h3.5C7.775,36,8,35.775,8,35.5V32.5z"/>
<path fill="#B3C2C6" d="M6,26.5C6,26.225,5.775,26,5.5,26H4v4h1.5C5.775,30,6,29.775,6,29.5V26.5z"/>
<path fill="#99A8AE" d="M8,20.5C8,20.225,7.775,20,7.5,20H4v4h3.5C7.775,24,8,23.775,8,23.5V20.5z"/>
<path fill="#B3C2C6" d="M6,14.5C6,14.225,5.775,14,5.5,14H4v4h1.5C5.775,18,6,17.775,6,17.5V14.5z"/>
<path fill="#99A8AE" d="M8,56.5C8,56.225,7.775,56,7.5,56H4v4h3.5C7.775,60,8,59.775,8,59.5V56.5z"/>
<path fill="#B3C2C6" d="M6,50.5C6,50.225,5.775,50,5.5,50H4v4h1.5C5.775,54,6,53.775,6,53.5V50.5z"/>
<path fill="#99A8AE" d="M56,47.5c0,0.275,0.225,0.5,0.5,0.5H60v-4h-3.5c-0.275,0-0.5,0.225-0.5,0.5V47.5z"/>
<path fill="#B3C2C6" d="M58,41.5c0,0.275,0.225,0.5,0.5,0.5H60v-4h-1.5c-0.275,0-0.5,0.225-0.5,0.5V41.5z"/>
<path fill="#99A8AE" d="M56,35.5c0,0.275,0.225,0.5,0.5,0.5H60v-4h-3.5c-0.275,0-0.5,0.225-0.5,0.5V35.5z"/>
<path fill="#B3C2C6" d="M58,29.5c0,0.275,0.225,0.5,0.5,0.5H60v-4h-1.5c-0.275,0-0.5,0.225-0.5,0.5V29.5z"/>
<path fill="#99A8AE" d="M56,23.5c0,0.275,0.225,0.5,0.5,0.5H60v-4h-3.5c-0.275,0-0.5,0.225-0.5,0.5V23.5z"/>
<path fill="#B3C2C6" d="M58,17.5c0,0.275,0.225,0.5,0.5,0.5H60v-4h-1.5c-0.275,0-0.5,0.225-0.5,0.5V17.5z"/>
<path fill="#99A8AE" d="M56,59.5c0,0.275,0.225,0.5,0.5,0.5H60v-4h-3.5c-0.275,0-0.5,0.225-0.5,0.5V59.5z"/>
<path fill="#B3C2C6" d="M58,53.5c0,0.275,0.225,0.5,0.5,0.5H60v-4h-1.5c-0.275,0-0.5,0.225-0.5,0.5V53.5z"/>
</svg>
