<?xml version="1.0" encoding="utf-8"?>
<!-- Generator: Adobe Illustrator 15.0.0, SVG Export Plug-In . SVG Version: 6.00 Build 0)  -->
<!DOCTYPE svg PUBLIC "-//W3C//DTD SVG 1.1//EN" "http://www.w3.org/Graphics/SVG/1.1/DTD/svg11.dtd">
<svg version="1.1" id="Layer_1" xmlns="http://www.w3.org/2000/svg" xmlns:xlink="http://www.w3.org/1999/xlink" x="0px" y="0px"
	 width="64px" height="64px" viewBox="0 0 64 64" enable-background="new 0 0 64 64" xml:space="preserve">
<g>
	<g>
		<path fill="#E81C27" d="M62,11.228c-19.334-8.227-38.667,8.226-58,0c0-1.959,0-4.896,0-6.853c19.333,8.225,38.666-8.227,58,0
			C62,6.332,62,9.269,62,11.228z"/>
		<path fill="#EA8800" d="M62,17.104c-19.334-8.225-38.667,8.227-58,0c0-1.959,0-4.896,0-6.854c19.333,8.225,38.666-8.228,58,0
			C62,12.207,62,15.145,62,17.104z"/>
		<path fill="#FFE12C" d="M62,22.979c-19.334-8.225-38.667,8.227-58,0c0-1.958,0-4.896,0-6.854c19.333,8.226,38.666-8.228,58,0
			C62,18.082,62,21.021,62,22.979z"/>
		<path fill="#7AB51D" d="M62,28.854c-19.334-8.226-38.667,8.226-58,0c0-1.96,0-4.898,0-6.854c19.333,8.225,38.666-8.227,58,0
			C62,23.956,62,26.895,62,28.854z"/>
		<path fill="#006DAE" d="M62,34.729c-19.334-8.226-38.667,8.226-58,0c0-1.957,0-4.896,0-6.854c19.333,8.226,38.666-8.227,58,0
			C62,29.834,62,32.772,62,34.729z"/>
		<path fill="#7D0C7A" d="M62,39.625c-19.334-8.227-38.667,8.227-58,0c0-1.959,0-3.916,0-5.875c19.333,8.226,38.666-8.226,58,0
			C62,35.709,62,37.666,62,39.625z"/>
	</g>
	<g>
		<path fill="#99A8AE" d="M2,4.117v57.881L6,62V4.121C5.999,1.295,1.999,1.293,2,4.117z"/>
		<path fill="#6E8189" d="M2.995,2.271C3.561,2.594,3.996,3.18,3.996,4.094l0.007,57.879L6,61.975V4.094
			C5.999,2.184,4.179,1.596,2.995,2.271z"/>
	</g>
</g>
</svg>
