<?xml version="1.0" encoding="utf-8"?>
<!-- Generator: Adobe Illustrator 15.0.0, SVG Export Plug-In . SVG Version: 6.00 Build 0)  -->
<!DOCTYPE svg PUBLIC "-//W3C//DTD SVG 1.1//EN" "http://www.w3.org/Graphics/SVG/1.1/DTD/svg11.dtd" [
	<!ENTITY ns_flows "http://ns.adobe.com/Flows/1.0/">
	<!ENTITY ns_extend "http://ns.adobe.com/Extensibility/1.0/">
	<!ENTITY ns_ai "http://ns.adobe.com/AdobeIllustrator/10.0/">
	<!ENTITY ns_graphs "http://ns.adobe.com/Graphs/1.0/">
]>
<svg version="1.1" id="Layer_1" xmlns:x="&ns_extend;" xmlns:i="&ns_ai;" xmlns:graph="&ns_graphs;"
	 xmlns="http://www.w3.org/2000/svg" xmlns:xlink="http://www.w3.org/1999/xlink" xmlns:a="http://ns.adobe.com/AdobeSVGViewerExtensions/3.0/"
	 x="0px" y="0px" width="64px" height="64px" viewBox="0 0 64 64" enable-background="new 0 0 64 64" xml:space="preserve">
<path fill="#EA8800" d="M46.534,31.187l-2.775-8.33c0,0,8.541-12.328,5.326-14.605c-3.213-2.277-12.594,9.455-12.594,9.455h-8.983
	c0,0-9.379-11.732-12.594-9.455s5.328,14.605,5.328,14.605l-2.775,8.33c0,0-14.338,5.078-13.111,8.764
	c1.229,3.686,15.887-0.43,15.887-0.43l7.266,5.15c0,0,0.518,14.872,4.492,14.872c3.973,0,4.491-14.872,4.491-14.872l7.268-5.15
	c0,0,14.658,4.115,15.885,0.43C60.872,36.265,46.534,31.187,46.534,31.187z"/>
<radialGradient id="SVGID_1_" cx="32" cy="32" r="29.0172" gradientUnits="userSpaceOnUse">
	<stop  offset="0" style="stop-color:#FA8003"/>
	<stop  offset="0.2766" style="stop-color:#FAA103"/>
	<stop  offset="0.5552" style="stop-color:#FABB03"/>
	<stop  offset="0.805" style="stop-color:#FACB03"/>
	<stop  offset="1" style="stop-color:#FAD103"/>
	<a:midPointStop  offset="0" style="stop-color:#FA8003"/>
	<a:midPointStop  offset="0.3455" style="stop-color:#FA8003"/>
	<a:midPointStop  offset="1" style="stop-color:#FAD103"/>
</radialGradient>
<path fill="url(#SVGID_1_)" d="M58.226,24.157c-0.814-2.445,2.6-10.955-7.188-7.852c-4.188,1.327-8.148,3.298-11.182,5.514
	c1.223-3.611,1.947-7.852,1.947-11.913c0-10.039-7.24-4.242-9.875-4.242c-2.635,0-9.875-5.797-9.875,4.242
	c0,4.31,0.817,8.821,2.18,12.567c-3.045-2.455-7.043-4.638-11.271-5.978c-9.787-3.104-6.373,5.406-7.188,7.85
	c-0.813,2.445-8.703,7.371,1.084,10.473c4.146,1.313,8.558,1.957,12.401,1.888c-3.114,2.152-6.251,5.18-8.786,8.583
	c-6.049,8.121,3.301,7.582,5.434,9.094c2.133,1.51,4.496,10.351,10.545,2.23c2.782-3.735,4.763-8.099,5.676-12.032
	c0.927,3.902,2.898,8.216,5.651,11.913c6.049,8.12,8.414-0.719,10.543-2.229c2.133-1.514,11.484-0.973,5.436-9.096
	c-2.735-3.673-6.172-6.909-9.525-9.078c3.959,0.357,8.581-0.095,12.91-1.467C66.929,31.526,59.04,26.601,58.226,24.157z"/>
<radialGradient id="SVGID_2_" cx="32.2241" cy="34.4941" r="14.2754" gradientTransform="matrix(1 0 0 1.2 0 -6.8988)" gradientUnits="userSpaceOnUse">
	<stop  offset="0.1939" style="stop-color:#FA9903"/>
	<stop  offset="0.251" style="stop-color:#FAA303"/>
	<stop  offset="0.4472" style="stop-color:#FAC103"/>
	<stop  offset="0.6402" style="stop-color:#FAD703"/>
	<stop  offset="0.8269" style="stop-color:#FAE403"/>
	<stop  offset="1" style="stop-color:#FAE803"/>
	<a:midPointStop  offset="0.1939" style="stop-color:#FA9903"/>
	<a:midPointStop  offset="0.3083" style="stop-color:#FA9903"/>
	<a:midPointStop  offset="1" style="stop-color:#FAE803"/>
</radialGradient>
<path fill="url(#SVGID_2_)" d="M41.451,31.53c9.63-5.211-4.995-17.704-8.61-5.316c-2.114-11.305-18.041-3.25-8.916,5.208
	c-12.355,0.617-4.209,15.834,2.851,8.623c-4.113,11.127,13.567,11.002,9.677,0.01C44.925,48.46,52.368,32.273,41.451,31.53z"/>
<path fill="#FFF8D6" d="M37,33.752c0,2.76-2.237,4.998-5,4.998c-2.762,0-5.001-2.238-5.001-4.998c0-2.763,2.239-5.001,5.001-5.001
	C34.763,28.75,37,30.989,37,33.752z"/>
</svg>
