<?xml version="1.0" encoding="utf-8"?>
<!-- Generator: Adobe Illustrator 15.0.0, SVG Export Plug-In . SVG Version: 6.00 Build 0)  -->
<!DOCTYPE svg PUBLIC "-//W3C//DTD SVG 1.1//EN" "http://www.w3.org/Graphics/SVG/1.1/DTD/svg11.dtd" [
	<!ENTITY ns_flows "http://ns.adobe.com/Flows/1.0/">
	<!ENTITY ns_extend "http://ns.adobe.com/Extensibility/1.0/">
	<!ENTITY ns_ai "http://ns.adobe.com/AdobeIllustrator/10.0/">
	<!ENTITY ns_graphs "http://ns.adobe.com/Graphs/1.0/">
]>
<svg version="1.1" id="Layer_1" xmlns:x="&ns_extend;" xmlns:i="&ns_ai;" xmlns:graph="&ns_graphs;"
	 xmlns="http://www.w3.org/2000/svg" xmlns:xlink="http://www.w3.org/1999/xlink" xmlns:a="http://ns.adobe.com/AdobeSVGViewerExtensions/3.0/"
	 x="0px" y="0px" width="64px" height="64px" viewBox="0 0 64 64" enable-background="new 0 0 64 64" xml:space="preserve">
<path fill="#E6EBEF" d="M39.585,25.313l1.789,1.789l-1.809,1.808c0.425,0.19,0.858,0.356,1.309,0.481l1.395-1.393l1.777,1.771
	c0.654-0.006,1.32-0.064,1.996-0.176l1.598-1.597l0.947,0.947c0.43-0.15,0.855-0.317,1.283-0.504l-1.336-1.338l1.789-1.789
	l1.889,1.885c0.359-0.224,0.717-0.467,1.066-0.723l-2.059-2.058l1.79-1.791l2.22,2.222c0.154-0.144,0.313-0.279,0.465-0.431
	c0.152-0.152,0.286-0.311,0.432-0.465l-2.221-2.221l1.789-1.79L57.756,22c0.253-0.35,0.497-0.709,0.722-1.069l-1.889-1.885
	l1.791-1.791l1.336,1.336c0.19-0.426,0.357-0.854,0.507-1.285l-0.948-0.946l1.598-1.597c0.111-0.676,0.17-1.343,0.178-1.997
	l-1.775-1.777l1.395-1.395c-0.125-0.451-0.293-0.887-0.48-1.311l-1.809,1.81l-1.791-1.791l2.209-2.209
	c-0.139-0.157-0.268-0.325-0.418-0.477c-0.152-0.15-0.316-0.279-0.477-0.416L55.695,7.41l-1.79-1.792l1.809-1.809
	c-0.423-0.187-0.857-0.354-1.309-0.48l-1.396,1.394l-1.775-1.775c-0.654,0.008-1.322,0.067-1.996,0.178L47.64,4.726l-0.947-0.949
	c-0.429,0.15-0.856,0.318-1.285,0.508l1.338,1.334l-1.79,1.791l-1.89-1.887c-0.357,0.225-0.715,0.467-1.063,0.723l2.059,2.059
	l-1.79,1.791L40.05,7.875c-0.156,0.143-0.314,0.28-0.465,0.43c-0.151,0.152-0.287,0.311-0.432,0.466l2.222,2.219l-1.79,1.791
	l-2.061-2.061c-0.254,0.354-0.497,0.708-0.721,1.066l1.885,1.889l-1.789,1.791l-1.335-1.335c-0.189,0.426-0.356,0.852-0.507,1.283
	l0.947,0.947l-1.598,1.598c-0.113,0.676-0.169,1.342-0.18,1.999l1.777,1.773l-1.395,1.396c0.125,0.45,0.292,0.885,0.481,1.309
	l1.808-1.811l1.79,1.792l-2.208,2.209c0.139,0.16,0.266,0.324,0.419,0.477c0.151,0.15,0.315,0.279,0.476,0.417L39.585,25.313z
	 M58.38,11.885l1.791,1.791l-1.79,1.791l-1.792-1.791L58.38,11.885z M55.694,14.57l1.791,1.791l-1.791,1.789l-1.789-1.791
	L55.694,14.57z M53.009,17.256l1.791,1.789l-1.791,1.791l-1.789-1.791L53.009,17.256z M50.323,19.941l1.791,1.789l-1.791,1.791
	l-1.789-1.791L50.323,19.941z M47.64,22.625l1.79,1.793l-1.789,1.789l-1.792-1.79L47.64,22.625z M44.954,25.311l1.791,1.791
	l-1.79,1.791l-1.792-1.792L44.954,25.311z M55.694,9.199l1.791,1.789l-1.791,1.793l-1.789-1.793L55.694,9.199z M53.009,11.885
	l1.791,1.791l-1.791,1.791l-1.789-1.791L53.009,11.885z M50.323,14.572l1.791,1.789l-1.791,1.789l-1.789-1.789L50.323,14.572z
	 M47.64,17.255l1.789,1.791l-1.789,1.79l-1.791-1.791L47.64,17.255z M44.954,19.941l1.791,1.789l-1.791,1.789l-1.791-1.789
	L44.954,19.941z M42.269,22.625l1.791,1.791l-1.791,1.789l-1.788-1.787L42.269,22.625z M36.899,20.833l-1.79-1.787l1.791-1.791
	l1.788,1.789L36.899,20.833z M39.583,18.15l-1.788-1.789l1.79-1.789l1.789,1.789L39.583,18.15z M42.271,15.465l-1.79-1.789
	l1.788-1.792l1.792,1.792L42.271,15.465z M44.955,12.781l-1.79-1.793l1.789-1.789l1.791,1.792L44.955,12.781z M47.641,10.096
	l-1.792-1.792l1.792-1.789l1.788,1.789L47.641,10.096z M50.323,7.41l-1.789-1.791l1.789-1.789l1.791,1.789L50.323,7.41z
	 M39.585,23.521l-1.791-1.791l1.791-1.789l1.79,1.789L39.585,23.521z M42.27,20.836l-1.789-1.789l1.788-1.791l1.792,1.789
	L42.27,20.836z M44.955,18.15l-1.79-1.792l1.79-1.787l1.79,1.789L44.955,18.15z M47.641,15.466l-1.792-1.791l1.791-1.791l1.79,1.792
	L47.641,15.466z M50.324,12.781l-1.79-1.792l1.789-1.789l1.792,1.79L50.324,12.781z M53.01,10.096l-1.79-1.792l1.789-1.791
	l1.792,1.791L53.01,10.096z"/>
<linearGradient id="SVGID_1_" gradientUnits="userSpaceOnUse" x1="276.6504" y1="74.6797" x2="279.1826" y2="74.6797" gradientTransform="matrix(0.7071 0.7071 -0.7071 0.7071 -114.8213 -214.211)">
	<stop  offset="0.0848" style="stop-color:#CFD8DD"/>
	<stop  offset="0.891" style="stop-color:#A0AEB4"/>
	<stop  offset="1" style="stop-color:#99A8AE"/>
	<a:midPointStop  offset="0.0848" style="stop-color:#CFD8DD"/>
	<a:midPointStop  offset="0.5197" style="stop-color:#CFD8DD"/>
	<a:midPointStop  offset="1" style="stop-color:#99A8AE"/>
</linearGradient>
<polygon fill="url(#SVGID_1_)" points="21.774,44.018 19.983,42.227 36.005,26.207 37.794,27.998 "/>
<linearGradient id="SVGID_2_" gradientUnits="userSpaceOnUse" x1="274.4795" y1="97.875" x2="281.3535" y2="97.875" gradientTransform="matrix(0.7071 0.7071 -0.7071 0.7071 -114.8213 -214.211)">
	<stop  offset="0" style="stop-color:#4E585E"/>
	<stop  offset="0.299" style="stop-color:#3E414C"/>
	<stop  offset="0.5333" style="stop-color:#302C3B"/>
	<a:midPointStop  offset="0" style="stop-color:#4E585E"/>
	<a:midPointStop  offset="0.5402" style="stop-color:#4E585E"/>
	<a:midPointStop  offset="0.5333" style="stop-color:#302C3B"/>
</linearGradient>
<path fill="url(#SVGID_2_)" d="M7.317,61.443c0,0,0.771-1.949,1.255-2.434c5.37-5.371,9.845-9.846,9.845-9.846l3.357-5.146
	l-1.791-1.791l-5.146,3.357c0,0-4.475,4.475-9.846,9.846c-0.484,0.484-2.434,1.254-2.434,1.254c-0.631,0.295-0.744,0.939-0.252,1.43
	l3.582,3.58C6.38,62.186,7.022,62.074,7.317,61.443z"/>
<linearGradient id="SVGID_3_" gradientUnits="userSpaceOnUse" x1="275.3838" y1="66.2012" x2="280.4482" y2="66.2012" gradientTransform="matrix(0.7071 0.7071 -0.7071 0.7071 -114.8213 -214.211)">
	<stop  offset="0.0848" style="stop-color:#CFD8DD"/>
	<stop  offset="0.891" style="stop-color:#A0AEB4"/>
	<stop  offset="1" style="stop-color:#99A8AE"/>
	<a:midPointStop  offset="0.0848" style="stop-color:#CFD8DD"/>
	<a:midPointStop  offset="0.5197" style="stop-color:#CFD8DD"/>
	<a:midPointStop  offset="1" style="stop-color:#99A8AE"/>
</linearGradient>
<path fill="url(#SVGID_3_)" d="M35.331,25.088l-2.686,2.687c-0.99,0.99-0.99,2.592,0,3.58c0.988,0.988,2.592,0.988,3.58,0
	l2.686-2.685L35.331,25.088z"/>
<polygon fill="#1A1626" points="13.047,47.373 12.153,48.268 17.522,50.059 "/>
<polygon fill="#1A1626" points="11.256,49.164 10.362,50.059 15.731,51.848 "/>
<polygon fill="#1A1626" points="9.465,50.955 8.573,51.848 13.942,53.639 "/>
<polygon fill="#1A1626" points="7.676,52.742 6.782,53.639 12.151,55.43 "/>
<polygon fill="#1A1626" points="5.887,54.533 4.991,55.43 10.362,57.219 "/>
<linearGradient id="SVGID_4_" gradientUnits="userSpaceOnUse" x1="265.2578" y1="48.1621" x2="290.5742" y2="48.1621" gradientTransform="matrix(0.7071 0.7071 -0.7071 0.7071 -114.8213 -214.211)">
	<stop  offset="0.0848" style="stop-color:#CFD8DD"/>
	<stop  offset="0.891" style="stop-color:#A0AEB4"/>
	<stop  offset="1" style="stop-color:#99A8AE"/>
	<a:midPointStop  offset="0.0848" style="stop-color:#CFD8DD"/>
	<a:midPointStop  offset="0.5197" style="stop-color:#CFD8DD"/>
	<a:midPointStop  offset="1" style="stop-color:#99A8AE"/>
</linearGradient>
<path fill="url(#SVGID_4_)" d="M36.005,27.998c-5.186-5.188-4.434-13.469,1.789-19.693c6.676-6.676,16.713-8.348,21.481-3.578
	c4.77,4.766,3.096,14.804-3.581,21.48C49.472,32.429,41.191,33.184,36.005,27.998z M57.485,6.513
	c-3.748-3.746-12.28-2.041-17.9,3.583c-5.186,5.186-5.938,11.961-1.79,16.111c4.15,4.148,10.924,3.396,16.11-1.791
	C59.527,18.795,61.231,10.264,57.485,6.513z"/>
<path fill="#CFD8DD" d="M48.929,55.719c1.982,4.137-1.798,5.361-3.781,1.226c-1.155-2.411-1.029-6.704-1.029-6.704
	S47.772,53.307,48.929,55.719z"/>
<path fill="#E6EBEF" d="M44.163,49.689c6.014,12.548,5.48,12.721-0.533,0.172C38.315,38.772,38.849,38.602,44.163,49.689z"/>
<path fill="#BEC3CF" d="M51.89,53.573c2.775,3.764-0.488,5.853-3.262,2.091c-1.618-2.195-2.455-6.587-2.455-6.587
	S50.272,51.381,51.89,53.573z"/>
<path fill="#E6EBEF" d="M46.091,48.506c8.418,11.417,7.96,11.713-0.461,0.294C38.19,38.712,38.651,38.417,46.091,48.506z"/>
<path fill="#CFD8DD" d="M51.272,53.992c3.323,3.322,6.043,0.603,2.719-2.721c-1.937-1.938-6.252-3.531-6.252-3.531
	S49.335,52.054,51.272,53.992z"/>
<path fill="#E6EBEF" d="M47.174,47.557c10.081,10.081,10.464,9.697,0.382-0.383C38.647,38.266,38.265,38.647,47.174,47.557z"/>
<path fill="#CFD8DD" d="M55.718,48.93c4.138,1.981,5.361-1.801,1.227-3.783c-2.411-1.154-6.703-1.027-6.703-1.027
	S53.306,47.773,55.718,48.93z"/>
<path fill="#E6EBEF" d="M49.688,44.162c12.549,6.014,12.721,5.482,0.172-0.532C38.773,38.314,38.602,38.848,49.688,44.162z"/>
<path fill="#BEC3CF" d="M53.573,51.891c3.764,2.774,5.852-0.488,2.09-3.262c-2.194-1.619-6.585-2.457-6.585-2.457
	S51.38,50.272,53.573,51.891z"/>
<path fill="#E6EBEF" d="M48.507,46.092c11.416,8.417,11.711,7.959,0.293-0.462C38.712,38.191,38.417,38.65,48.507,46.092z"/>
<path fill="#CFD8DD" d="M49.562,43.486c-1.76,2.271-3.804,4.316-6.073,6.076l0.381,0.795c2.442-1.857,4.63-4.046,6.489-6.49
	L49.562,43.486z"/>
<path fill="#CFD8DD" d="M47.745,42.623c-1.519,1.883-3.24,3.602-5.123,5.123l0.382,0.803c2.054-1.628,3.917-3.491,5.546-5.546
	L47.745,42.623z"/>
<radialGradient id="SVGID_5_" cx="291.3721" cy="68.5996" r="3.4087" gradientTransform="matrix(0.7071 0.7071 -1.0383 1.0383 -92.1003 -236.932)" gradientUnits="userSpaceOnUse">
	<stop  offset="0" style="stop-color:#D5DEE3"/>
	<stop  offset="0.2972" style="stop-color:#D1DBE0"/>
	<stop  offset="0.5831" style="stop-color:#C6D1D7"/>
	<stop  offset="0.8634" style="stop-color:#B2C0C7"/>
	<stop  offset="1" style="stop-color:#A6B6BD"/>
	<a:midPointStop  offset="0" style="stop-color:#D5DEE3"/>
	<a:midPointStop  offset="0.7152" style="stop-color:#D5DEE3"/>
	<a:midPointStop  offset="1" style="stop-color:#A6B6BD"/>
</radialGradient>
<path fill="url(#SVGID_5_)" d="M40.534,45.233l0.715,0.715c3.617-1.828,4.699-4.7,4.699-4.7l-0.714-0.715
	C42.101,37.4,37.399,42.102,40.534,45.233z"/>
<radialGradient id="SVGID_6_" cx="44.0918" cy="44.0918" r="2.8433" gradientUnits="userSpaceOnUse">
	<stop  offset="0" style="stop-color:#FF000E"/>
	<stop  offset="0.2335" style="stop-color:#FA000D"/>
	<stop  offset="0.5011" style="stop-color:#EC000A"/>
	<stop  offset="0.7844" style="stop-color:#D60005"/>
	<stop  offset="1" style="stop-color:#BF0000"/>
	<a:midPointStop  offset="0" style="stop-color:#FF000E"/>
	<a:midPointStop  offset="0.6788" style="stop-color:#FF000E"/>
	<a:midPointStop  offset="1" style="stop-color:#BF0000"/>
</radialGradient>
<path fill="url(#SVGID_6_)" d="M45.948,41.248c-1.311,1.805-2.896,3.39-4.699,4.7c0.328,0.329,0.656,0.658,0.986,0.987
	c1.803-1.312,3.389-2.897,4.699-4.701C46.606,41.905,46.276,41.578,45.948,41.248z"/>
</svg>
