<?xml version="1.0" encoding="utf-8"?>
<!-- Generator: Adobe Illustrator 15.0.0, SVG Export Plug-In . SVG Version: 6.00 Build 0)  -->
<!DOCTYPE svg PUBLIC "-//W3C//DTD SVG 1.1//EN" "http://www.w3.org/Graphics/SVG/1.1/DTD/svg11.dtd" [
	<!ENTITY ns_flows "http://ns.adobe.com/Flows/1.0/">
	<!ENTITY ns_extend "http://ns.adobe.com/Extensibility/1.0/">
	<!ENTITY ns_ai "http://ns.adobe.com/AdobeIllustrator/10.0/">
	<!ENTITY ns_graphs "http://ns.adobe.com/Graphs/1.0/">
]>
<svg version="1.1" id="Layer_1" xmlns:x="&ns_extend;" xmlns:i="&ns_ai;" xmlns:graph="&ns_graphs;"
	 xmlns="http://www.w3.org/2000/svg" xmlns:xlink="http://www.w3.org/1999/xlink" xmlns:a="http://ns.adobe.com/AdobeSVGViewerExtensions/3.0/"
	 x="0px" y="0px" width="64px" height="64px" viewBox="0 0 64 64" enable-background="new 0 0 64 64" xml:space="preserve">
<path fill="#018BC9" d="M21.184,52.173c0.677,3.096-12.023,14.353-8.29,0.51C13.722,49.609,20.501,49.079,21.184,52.173z"/>
<radialGradient id="SVGID_1_" cx="30.6621" cy="36.3564" r="37.118" gradientUnits="userSpaceOnUse">
	<stop  offset="0" style="stop-color:#4ECEE6"/>
	<stop  offset="0.2737" style="stop-color:#4CCBE4"/>
	<stop  offset="0.4641" style="stop-color:#44C2DF"/>
	<stop  offset="0.6291" style="stop-color:#38B3D6"/>
	<stop  offset="0.7799" style="stop-color:#269DCA"/>
	<stop  offset="0.9195" style="stop-color:#1081B9"/>
	<stop  offset="1" style="stop-color:#006DAE"/>
	<a:midPointStop  offset="0" style="stop-color:#4ECEE6"/>
	<a:midPointStop  offset="0.7758" style="stop-color:#4ECEE6"/>
	<a:midPointStop  offset="1" style="stop-color:#006DAE"/>
</radialGradient>
<path fill="url(#SVGID_1_)" d="M51.278,2.15c-0.398-0.643-5.655,0.479-5.512,9.497c-7.118,1.206-10.549,5.878-9.76,6.379
	c7.963,5.059,10.966-3.012,11.7-2.604c5.393,2.989,8.682,19.816-5.068,19.816c-12.455,0-27.594-14.868-38.498-9.662
	c-6.524,0.997,1.187,36.386,32.567,36.386c24.264,0,35.282-32.39,13.876-49.896C49.937,11.537,55.256,8.571,51.278,2.15z"/>
<radialGradient id="SVGID_2_" cx="31.8608" cy="31.2231" r="30.4404" gradientTransform="matrix(1 0 0 0.8998 0 3.1277)" gradientUnits="userSpaceOnUse">
	<stop  offset="0.1333" style="stop-color:#E4ECF2"/>
	<stop  offset="0.5694" style="stop-color:#E2EAF0"/>
	<stop  offset="0.8023" style="stop-color:#DAE2E9"/>
	<stop  offset="0.9869" style="stop-color:#CCD5DC"/>
	<stop  offset="1" style="stop-color:#CBD4DB"/>
	<a:midPointStop  offset="0.1333" style="stop-color:#E4ECF2"/>
	<a:midPointStop  offset="0.8182" style="stop-color:#E4ECF2"/>
	<a:midPointStop  offset="1" style="stop-color:#CBD4DB"/>
</radialGradient>
<path fill="url(#SVGID_2_)" d="M4.141,25.576c-6.524,0.997,1.187,36.386,32.567,36.386c18.521,0,29.324-18.872,23.881-35.59
	c3.323,18.335-18.191,25.982-27.835,15.63C19.991,28.303,6.364,24.847,4.141,25.576z"/>
<path opacity="0.2" fill="#FFFFFF" d="M37.472,59.137c-25.57,0-35.04-24.064-33.77-32.589c-3.241,6.178,5.577,34.352,33.245,34.352
	c12.238,0,21.018-8.444,23.77-18.961C57.484,51.619,49.019,59.137,37.472,59.137z"/>
<path opacity="0.2" fill="#FFFFFF" d="M39.474,55.867C16.289,56.779,6.826,34.837,7.666,26.898
	c-2.713,5.836,6.309,31.607,31.395,30.621c11.096-0.437,18.747-8.569,20.859-18.405C57.342,48.192,49.94,55.454,39.474,55.867z"/>
<path opacity="0.2" fill="#FFFFFF" d="M38.802,52.98c-20.021-0.479-27.02-17.907-25.881-23.996
	c-2.643,4.369,3.776,24.73,25.439,25.25c9.581,0.229,16.601-5.661,18.936-13.148C54.599,47.968,47.841,53.196,38.802,52.98z"/>
<path opacity="0.2" fill="#FFFFFF" d="M43.978,49.733c-17.174,1.433-27.07-12.886-27.533-18.988
	c-1.352,4.869,8.829,22.144,27.715,20.385C44.095,50.665,44.039,50.199,43.978,49.733z"/>
<path opacity="0.2" fill="#FFFFFF" d="M37.406,46.315c-8.095-1.393-13.52-7.693-14.314-11.087
	c-0.338,2.905,5.329,10.542,14.314,12.132V46.315z"/>
<linearGradient id="SVGID_3_" gradientUnits="userSpaceOnUse" x1="37.4961" y1="42.1094" x2="55.2044" y2="63.6369">
	<stop  offset="0" style="stop-color:#4ECEE6"/>
	<stop  offset="0.1698" style="stop-color:#48C6E1"/>
	<stop  offset="0.4325" style="stop-color:#36B0D5"/>
	<stop  offset="0.7535" style="stop-color:#1A8DC0"/>
	<stop  offset="1" style="stop-color:#006DAE"/>
	<a:midPointStop  offset="0" style="stop-color:#4ECEE6"/>
	<a:midPointStop  offset="0.6121" style="stop-color:#4ECEE6"/>
	<a:midPointStop  offset="1" style="stop-color:#006DAE"/>
</linearGradient>
<path fill="url(#SVGID_3_)" d="M56.32,61.96c-2.53,0.523-19.923-4.044-22.248-20.449c-0.595-4.19,12.725,2.098,13.722,4.373
	C51.127,53.495,58.849,61.436,56.32,61.96z"/>
<path fill="#006DAE" d="M4.141,25.576c13.161-1.802,23.694,14.351,29.203,14.151C26.724,42.829,20.601,26.794,4.141,25.576z"/>
<circle fill="#302C3B" cx="32.745" cy="36.405" r="2.083"/>
<path id="Shape_71_" fill="#6E8189" d="M32.045,35.56c0,0.695-0.834,0.695-0.834,0S32.045,34.864,32.045,35.56L32.045,35.56z"/>
<path fill="#4ECEE6" d="M30.104,38.38c0.158-0.012,4.536,3.029,5.969-0.604C36.854,35.8,30.104,38.38,30.104,38.38z"/>
<path fill="#006DAE" d="M32.307,38.937c1.394,0.286,1.807-0.49,1.916,1.536C33.584,38.874,33.889,39.816,32.307,38.937z"/>
</svg>
