<?xml version="1.0" encoding="utf-8"?>
<!-- Generator: Adobe Illustrator 15.0.0, SVG Export Plug-In . SVG Version: 6.00 Build 0)  -->
<!DOCTYPE svg PUBLIC "-//W3C//DTD SVG 1.1//EN" "http://www.w3.org/Graphics/SVG/1.1/DTD/svg11.dtd" [
	<!ENTITY ns_flows "http://ns.adobe.com/Flows/1.0/">
	<!ENTITY ns_extend "http://ns.adobe.com/Extensibility/1.0/">
	<!ENTITY ns_ai "http://ns.adobe.com/AdobeIllustrator/10.0/">
	<!ENTITY ns_graphs "http://ns.adobe.com/Graphs/1.0/">
]>
<svg version="1.1" id="Layer_1" xmlns:x="&ns_extend;" xmlns:i="&ns_ai;" xmlns:graph="&ns_graphs;"
	 xmlns="http://www.w3.org/2000/svg" xmlns:xlink="http://www.w3.org/1999/xlink" xmlns:a="http://ns.adobe.com/AdobeSVGViewerExtensions/3.0/"
	 x="0px" y="0px" width="64px" height="64px" viewBox="0 0 64 64" enable-background="new 0 0 64 64" xml:space="preserve">
<path fill="#302C3B" d="M10.204,7.828c3.402,3.756,12.861,5.301,15.709,1.076C21.038,8.904,17.81,2.366,10.204,7.828z"/>
<path fill="#3E3A47" d="M12.652,9.112c2.961,4.393,12.611,7.919,17.174,4.336C25.11,12.187,22.785,5.24,12.652,9.112z"/>
<path fill="#302C3B" d="M16.996,11.523c1.729,4.99,9.743,9.874,14.851,6.466C26.139,15.855,25.972,9.125,16.996,11.523z"/>
<path fill="#3E3A47" d="M20.564,14.597c0.91,5.164,6.327,10.688,11.827,6.375C26.079,20.341,27.046,13.654,20.564,14.597z"/>
<path fill="#302C3B" d="M60.806,26.297c2.656-4.414-8.041-6.656-12.275-0.477v1.447c0,0,8.732-2.711,6.736,2.629
	c-2.221,5.949,6.734,10.927,6.734,10.927S57.075,32.491,60.806,26.297z"/>
<path fill="#9E6C49" d="M27.62,46.762c-0.707,0.568-1.545,1.293-2.145,1.932l-3.523-1.105c0,0,3.209-5.293,10.893-8.783
	c0,0-8.641-3.426-11.545,1.076c0,0-3.871,6.195-5.18,7.67c-1.312,1.475,0.064,2.797,0.723,3.016c0.66,0.219,9.838,1.045,9.838,1.045
	s1.256-1.145,2.828-1.797C28.839,48.256,28.112,47.289,27.62,46.762z"/>
<path fill="#302C3B" d="M28.999,45.691c0,0-0.615,0.449-1.379,1.07c0.492,0.527,1.219,1.494,1.889,3.053
	c0.754-0.318,1.576-0.52,2.371-0.438C31.88,49.377,30.696,46.607,28.999,45.691z"/>
<path fill="#9E6C49" d="M38.903,34.051l-0.797,6.357c0,0,8.025,1.461,11.393,0.105c0,0,2.984,7.84,8.5,12.789
	c0.414-0.799,0.914-2.074,1.262-3.961c-2.16-1.471-5.506-4.799-7.057-11.816C52.204,37.525,45.681,38.369,38.903,34.051z"/>
<path fill="#302C3B" d="M57.999,53.303c0.738,0.666,1.527,1.281,2.359,1.816c0,0,0.826-2.207,0.887-4.73
	c0,0-0.818-0.248-1.984-1.047C58.913,51.229,58.413,52.504,57.999,53.303z"/>
<path fill="#B47D56" d="M9.743,2.964c-0.07-0.669,3.936,1.919,4.097,6.362c0.015,0.285-1.864,0.022-3.013-0.968
	C10.827,8.359,10,5.391,9.743,2.964z"/>
<path fill="#785647" d="M10.159,4.042c-0.04-0.47,2.636,1.857,2.703,4.936c0.006,0.198-1.259-0.239-2.023-1.076
	C10.839,7.901,10.31,5.747,10.159,4.042z"/>
<path fill="#302C3B" d="M8.893,6.951c0,0,5.043,2.505,5.637-0.95C11.217,4.479,8.893,6.951,8.893,6.951z"/>
<linearGradient id="SVGID_1_" gradientUnits="userSpaceOnUse" x1="32.4614" y1="42.6191" x2="32.4614" y2="23.2338">
	<stop  offset="0.097" style="stop-color:#8F6242"/>
	<stop  offset="0.1982" style="stop-color:#9A6A48"/>
	<stop  offset="0.3977" style="stop-color:#A97550"/>
	<stop  offset="0.6345" style="stop-color:#B17B55"/>
	<stop  offset="1" style="stop-color:#B47D56"/>
	<a:midPointStop  offset="0.097" style="stop-color:#8F6242"/>
	<a:midPointStop  offset="0.2121" style="stop-color:#8F6242"/>
	<a:midPointStop  offset="1" style="stop-color:#B47D56"/>
</linearGradient>
<path fill="url(#SVGID_1_)" d="M44.313,23.12c-9.902-1.973-15.477,3.441-16.639-0.686c-2.758-8.196-8.931-14.816-13.411-15.126
	c-2.181,3.649-0.251,12.128-0.251,12.128c2.317,0.554,1.882,4.233,1.673,6.09c-0.441,3.928-4.308,7.856-0.85,13.251
	c4.414,6.889,17.416,2.12,24.39,3.518C53.837,45.227,55.712,25.397,44.313,23.12z"/>
<linearGradient id="SVGID_2_" gradientUnits="userSpaceOnUse" x1="14.3154" y1="22.1606" x2="11.9679" y2="14.8295">
	<stop  offset="0.097" style="stop-color:#8F6242"/>
	<stop  offset="0.1982" style="stop-color:#9A6A48"/>
	<stop  offset="0.3977" style="stop-color:#A97550"/>
	<stop  offset="0.6345" style="stop-color:#B17B55"/>
	<stop  offset="1" style="stop-color:#B47D56"/>
	<a:midPointStop  offset="0.097" style="stop-color:#8F6242"/>
	<a:midPointStop  offset="0.2121" style="stop-color:#8F6242"/>
	<a:midPointStop  offset="1" style="stop-color:#B47D56"/>
</linearGradient>
<path fill="url(#SVGID_2_)" d="M16.126,8.071c-0.205-0.996-1.221-4.96-3.353-6.068c-0.258-0.134-0.477,5.03-0.477,5.03
	C9.433,9.645,7.43,12.134,7.43,12.134s-3.813,4.167,1.593,9.055c6.291-1.264,7.848-3.454,8.058-5.556
	C17.568,10.734,16.126,8.071,16.126,8.071z"/>
<linearGradient id="SVGID_3_" gradientUnits="userSpaceOnUse" x1="5.7559" y1="23.1484" x2="5.7559" y2="12.1343">
	<stop  offset="0" style="stop-color:#DBAF76"/>
	<stop  offset="0.1314" style="stop-color:#E3B882"/>
	<stop  offset="0.3809" style="stop-color:#EDC593"/>
	<stop  offset="0.6554" style="stop-color:#F3CD9D"/>
	<stop  offset="1" style="stop-color:#F5CFA0"/>
	<a:midPointStop  offset="0" style="stop-color:#DBAF76"/>
	<a:midPointStop  offset="0.2485" style="stop-color:#DBAF76"/>
	<a:midPointStop  offset="1" style="stop-color:#F5CFA0"/>
</linearGradient>
<path fill="url(#SVGID_3_)" d="M7.43,12.134c-2.595,2.788-4.767,5.228-5.165,5.909c-0.486,0.832-0.006,1.134-0.245,2.367
	c-0.163,0.832,0.684,1.533,1.328,1.535c0.029,0.749,1.447,0.808,1.78,1.06c0.48,0.366,2.333,0.07,2.887-1.36
	c0.333-0.191,0.671-0.354,1.008-0.456C11.023,18.348,6.167,16.565,7.43,12.134z"/>
<path fill="#45332C" d="M3.699,19.585c-0.217,0.165-0.746,0.288-0.906,0.064c-0.16-0.222,0.11-0.708,0.327-0.87
	c0.215-0.164,0.521-0.116,0.68,0.105C3.961,19.109,3.916,19.422,3.699,19.585z"/>
<path fill="#45332C" d="M7.034,20.071c-0.273,1.383-2.578,2.194-3.687,1.875C4.217,21.897,6.185,21.256,7.034,20.071z"/>
<path fill="#785647" d="M12.78,2.764c0.067-0.465,2.132,2.49,1.493,5.493c-0.04,0.193-1.559-0.344-1.716-1.574
	C12.558,6.683,12.535,4.457,12.78,2.764z"/>
<path fill="#D6A57C" d="M3.188,17.909c-0.221,0.146-0.182,0.234,0.012,0.157c0.193-0.076,1.14-0.333,1.219,0.735
	c0,0,0.053,0.478,0.172,0.003C4.709,18.327,4.427,17.097,3.188,17.909z"/>
<path fill="#302C3B" d="M12.15,12.315c0,1.736-1.963,1.736-1.963,0C10.188,10.58,12.15,10.58,12.15,12.315z"/>
<path fill="#6E8189" d="M11.144,11.873c0,0.433-0.604,0.433-0.604,0C10.54,11.438,11.144,11.438,11.144,11.873z"/>
<path fill="#302C3B" d="M7.627,10.952c0,0,1.121-0.767,2.996-1.545c2.588-1.074,1.514-2.929,1.514-2.929
	C8.227,7.279,7.627,10.952,7.627,10.952z"/>
<path fill="#302C3B" d="M28.076,24.128c-1.114-2.083,0.907-3.754-2.739-7.156C23.926,20.025,26.046,23.941,28.076,24.128z"/>
<path fill="#302C3B" d="M12.867,58.834l0.572-4.783c0,0-0.865,0.016-1.816-0.254c-0.262,0.885-0.66,2.432-0.914,4.266
	C11.902,58.746,12.867,58.834,12.867,58.834z"/>
<path fill="#302C3B" d="M54.745,62c1.557-0.076,2.01-3.834,2.01-3.834c-0.426-0.352-0.789-0.713-1.1-1.088
	c-0.359,0.887-1.113,2.375-2.326,3.037C54.073,61.367,54.745,62,54.745,62z"/>
<linearGradient id="SVGID_4_" gradientUnits="userSpaceOnUse" x1="17.4966" y1="39.3877" x2="25.9135" y2="29.0968">
	<stop  offset="0" style="stop-color:#B47D56"/>
	<stop  offset="0.5758" style="stop-color:#B47D56;stop-opacity:0"/>
	<a:midPointStop  offset="0" style="stop-color:#B47D56"/>
	<a:midPointStop  offset="0.4361" style="stop-color:#B47D56"/>
	<a:midPointStop  offset="0.5758" style="stop-color:#B47D56;stop-opacity:0"/>
</linearGradient>
<path fill="url(#SVGID_4_)" d="M17.139,35.6c-3.938,3.375-10.333,6.448-10.333,6.448c-1.895,10.736,1.49,14.629,3.918,16.031
	c0.254-1.834,0.652-3.381,0.914-4.266c-0.941-0.27-1.963-0.822-2.33-1.955c-0.744-2.281,0.678-7.414,0.678-7.414
	s8.06-1.157,13.716-4.688C34.414,33.067,29.922,24.643,17.139,35.6z"/>
<linearGradient id="SVGID_5_" gradientUnits="userSpaceOnUse" x1="44.749" y1="40.5244" x2="43.0928" y2="32.5559">
	<stop  offset="0" style="stop-color:#B47D56"/>
	<stop  offset="0.7455" style="stop-color:#B47D56;stop-opacity:0"/>
	<a:midPointStop  offset="0" style="stop-color:#B47D56"/>
	<a:midPointStop  offset="0.4242" style="stop-color:#B47D56"/>
	<a:midPointStop  offset="0.7455" style="stop-color:#B47D56;stop-opacity:0"/>
</linearGradient>
<path fill="url(#SVGID_5_)" d="M33.514,34.881c6.375,16.73,19.007,11.588,19.007,11.588c-2.225,6.689-0.59,11.277,0.809,13.646
	c1.213-0.662,1.967-2.15,2.326-3.037c-3.123-3.787-0.893-8.822-0.289-10.801c0.664-2.174-0.303-3.568-0.303-3.568
	c-2.721-0.672-7.487,1.875-10.737-8.141C42.626,29.329,33.514,34.881,33.514,34.881z"/>
<path fill="#3E3A47" d="M24.228,20.697c0,0,4.209-5.715-2.395-8.271C23.423,14.805,24.228,20.697,24.228,20.697z"/>
<path fill="#302C3B" d="M21.537,16.857c0,0,4.459-7.393-3.479-8.143C20.767,10.704,21.537,16.857,21.537,16.857z"/>
<path fill="#3E3A47" d="M18.826,12.315c1.209-5.708-2.957-5.29-2.957-5.29C16.285,9.667,18.056,9.919,18.826,12.315z"/>
</svg>
