<?xml version="1.0" encoding="utf-8"?>
<!-- Generator: Adobe Illustrator 15.0.0, SVG Export Plug-In . SVG Version: 6.00 Build 0)  -->
<!DOCTYPE svg PUBLIC "-//W3C//DTD SVG 1.1//EN" "http://www.w3.org/Graphics/SVG/1.1/DTD/svg11.dtd" [
	<!ENTITY ns_flows "http://ns.adobe.com/Flows/1.0/">
	<!ENTITY ns_extend "http://ns.adobe.com/Extensibility/1.0/">
	<!ENTITY ns_ai "http://ns.adobe.com/AdobeIllustrator/10.0/">
	<!ENTITY ns_graphs "http://ns.adobe.com/Graphs/1.0/">
]>
<svg version="1.1" id="Layer_1" xmlns:x="&ns_extend;" xmlns:i="&ns_ai;" xmlns:graph="&ns_graphs;"
	 xmlns="http://www.w3.org/2000/svg" xmlns:xlink="http://www.w3.org/1999/xlink" xmlns:a="http://ns.adobe.com/AdobeSVGViewerExtensions/3.0/"
	 x="0px" y="0px" width="64px" height="64px" viewBox="0 0 64 64" enable-background="new 0 0 64 64" xml:space="preserve">
<path fill="#785647" d="M19.678,46.506c-0.806-1.229-1.869-1.597-1.869-1.597c1.005,1.925,0.123,4.542,0.123,4.542
	c-0.567-1.678-1.461-2.031-1.461-2.031c0.076,1.912-1.098,3.122-1.098,3.122c-0.481-1.757-2.214-2.548-2.214-2.548l4.937-6.99
	C19.828,43.896,19.678,46.506,19.678,46.506z"/>
<linearGradient id="SVGID_1_" gradientUnits="userSpaceOnUse" x1="43.7637" y1="55.2002" x2="61.6808" y2="14.5334">
	<stop  offset="0" style="stop-color:#785647"/>
	<stop  offset="0.238" style="stop-color:#7D5A4A"/>
	<stop  offset="0.5347" style="stop-color:#8D6553"/>
	<stop  offset="0.8613" style="stop-color:#A67762"/>
	<stop  offset="1" style="stop-color:#B3806A"/>
	<a:midPointStop  offset="0" style="stop-color:#785647"/>
	<a:midPointStop  offset="0.6606" style="stop-color:#785647"/>
	<a:midPointStop  offset="1" style="stop-color:#B3806A"/>
</linearGradient>
<path fill="url(#SVGID_1_)" d="M50.229,59.813c-2.563,0-4.748-1.262-5.633-1.773c-0.924-0.533,0.939-4.018,1.863-3.482
	c2.236,1.295,3.922,1.592,5.307,0.934c1.613-0.766,3.865-3.334,5.449-11.217c1.418-7.066,1.521-16.486-1.596-20.473
	c-0.953-1.221-2.15-1.816-3.66-1.816c-3.674,0-4.654,2.621-4.654,4.168c0,0.375,0.076,2.24,1.588,2.24
	c0.285,0,0.734-0.146,1.059-0.555c0.314-0.4,0.41-0.941,0.283-1.607c-0.585-3.021,3.177-3.805,3.756-0.781
	c0.355,1.838-0.029,3.584-1.076,4.914c-0.996,1.26-2.498,2.01-4.021,2.01c-3.139,0-5.416-2.615-5.416-6.221
	c0-2.043,0.768-4.057,2.109-5.527C46.677,19.426,48.669,18,51.96,18c2.66,0,4.953,1.137,6.633,3.285
	c4.197,5.371,3.902,16.176,2.371,23.799c-1.555,7.746-4.043,12.334-7.605,14.029C52.294,59.621,51.233,59.813,50.229,59.813z"/>
<radialGradient id="SVGID_2_" cx="27.7627" cy="44.9648" r="19.7621" gradientUnits="userSpaceOnUse">
	<stop  offset="0" style="stop-color:#785647"/>
	<stop  offset="0.3692" style="stop-color:#825D4D"/>
	<stop  offset="0.9854" style="stop-color:#9B6F5D"/>
	<stop  offset="1" style="stop-color:#9C705D"/>
	<a:midPointStop  offset="0" style="stop-color:#785647"/>
	<a:midPointStop  offset="0.5939" style="stop-color:#785647"/>
	<a:midPointStop  offset="1" style="stop-color:#9C705D"/>
</radialGradient>
<path fill="url(#SVGID_2_)" d="M29.467,25.93l-1.962,14.137c-4.938,0-6.234,9.674-4.751,18.463c0.135,0.807,5.615,1.768,5.615,1.768
	c-1.016-5.594,0.371-8.375,0.371-8.375C28.387,56.879,29,62,37.257,62c7.584,0,11.799-2.758,12.203-10.078
	C50.728,28.838,29.467,25.93,29.467,25.93z"/>
<path fill="#EBBB96" d="M22.815,57.518C20.4,58.561,14.26,59.092,15.762,62h12.082C29.882,59.125,26.148,56.076,22.815,57.518z"/>
<path fill="#EBBB96" d="M38.092,53.805c0,0-1.952-11.83-10.589-13.738c-8.586-1.895-3.474-4.816,0.919-3.82
	C39.123,38.67,38.092,53.805,38.092,53.805z"/>
<linearGradient id="SVGID_3_" gradientUnits="userSpaceOnUse" x1="14.8628" y1="36.9785" x2="18.7381" y2="43.229">
	<stop  offset="0" style="stop-color:#B3806A"/>
	<stop  offset="1" style="stop-color:#785647"/>
	<a:midPointStop  offset="0" style="stop-color:#B3806A"/>
	<a:midPointStop  offset="0.5" style="stop-color:#B3806A"/>
	<a:midPointStop  offset="1" style="stop-color:#785647"/>
</linearGradient>
<path fill="url(#SVGID_3_)" d="M31.704,28.91l-12.218,4.809c0,0-12.107,8.217-15.931,18.908c-1.051,2.938,4.72,3.646,5.36,2.221
	C13.528,44.561,31.425,39.214,31.704,28.91z"/>
<path fill="#EBBB96" d="M8.916,54.848c0.438-1.369-3.866-5.268-4.642-4.086C2.406,53.61,0.69,61.095,3.428,62H12
	C14.389,56.791,7.109,60.497,8.916,54.848z"/>
<circle fill="#785647" cx="31.704" cy="18.308" r="5.242"/>
<radialGradient id="SVGID_4_" cx="1078.6602" cy="-919.1963" r="4.754" gradientTransform="matrix(0 0.9308 1.1711 0 1110.9775 -985.6353)" gradientUnits="userSpaceOnUse">
	<stop  offset="0.2606" style="stop-color:#EBBB96"/>
	<stop  offset="0.4854" style="stop-color:#E7B792"/>
	<stop  offset="0.7285" style="stop-color:#DAAA85"/>
	<stop  offset="0.9795" style="stop-color:#C69470"/>
	<stop  offset="1" style="stop-color:#C4926E"/>
	<a:midPointStop  offset="0.2606" style="stop-color:#EBBB96"/>
	<a:midPointStop  offset="0.6911" style="stop-color:#EBBB96"/>
	<a:midPointStop  offset="1" style="stop-color:#C4926E"/>
</radialGradient>
<circle opacity="0.7" fill="url(#SVGID_4_)" cx="31.704" cy="18.308" r="3.812"/>
<circle fill="#785647" cx="7.243" cy="18.308" r="5.242"/>
<radialGradient id="SVGID_5_" cx="232.5234" cy="288.8838" r="4.7539" gradientTransform="matrix(0 -0.9308 -1.1711 0 342.7588 234.6676)" gradientUnits="userSpaceOnUse">
	<stop  offset="0.2606" style="stop-color:#EBBB96"/>
	<stop  offset="0.4854" style="stop-color:#E7B792"/>
	<stop  offset="0.7285" style="stop-color:#DAAA85"/>
	<stop  offset="0.9795" style="stop-color:#C69470"/>
	<stop  offset="1" style="stop-color:#C4926E"/>
	<a:midPointStop  offset="0.2606" style="stop-color:#EBBB96"/>
	<a:midPointStop  offset="0.6911" style="stop-color:#EBBB96"/>
	<a:midPointStop  offset="1" style="stop-color:#C4926E"/>
</radialGradient>
<circle opacity="0.7" fill="url(#SVGID_5_)" cx="7.243" cy="18.309" r="3.812"/>
<path fill="#785647" d="M27.045,27.409c0-9.611-15.143-9.611-15.143,0C11.902,37.02,27.045,37.02,27.045,27.409z"/>
<path fill="#785647" d="M25.972,4.922c0,0-1.475-1.163-3.153-0.307c0,0-0.145-0.886,1.011-1.658c0,0-2.207-0.396-3.765,0.981
	c0,0-0.231-0.918,0.428-1.938c0,0-2.752,0.185-4.001,2.431c0,0-1.308-0.524-2.335,0.262c1.027,0.229,0.997,0.706,0.997,0.706
	l9.951,0.737C25.104,6.136,24.871,5.087,25.972,4.922z"/>
<radialGradient id="SVGID_6_" cx="21.1748" cy="35.2363" r="14.56" gradientTransform="matrix(1.004 0 0 0.9643 -1.7863 -15.1041)" gradientUnits="userSpaceOnUse">
	<stop  offset="0" style="stop-color:#B3806A"/>
	<stop  offset="1" style="stop-color:#785647"/>
	<a:midPointStop  offset="0" style="stop-color:#B3806A"/>
	<a:midPointStop  offset="0.5" style="stop-color:#B3806A"/>
	<a:midPointStop  offset="1" style="stop-color:#785647"/>
</radialGradient>
<path fill="url(#SVGID_6_)" d="M30.87,15.818c0-7.711-5.867-11.523-11.396-11.523c-5.53,0-11.397,3.813-11.397,11.523
	c0,2.344-2.621,4.315-2.639,7.45c-0.04,8.081,7.019,10.184,14.036,10.184s14.078-2.099,14.034-10.185
	C33.491,20.133,30.87,18.162,30.87,15.818z"/>
<radialGradient id="SVGID_7_" cx="257.9297" cy="-912.7158" r="7.4021" gradientTransform="matrix(1.3077 0 0 -0.8853 -317.8211 -781.8891)" gradientUnits="userSpaceOnUse">
	<stop  offset="0" style="stop-color:#EBBB96"/>
	<stop  offset="1" style="stop-color:#EBBB96"/>
	<a:midPointStop  offset="0" style="stop-color:#EBBB96"/>
	<a:midPointStop  offset="0.5" style="stop-color:#EBBB96"/>
	<a:midPointStop  offset="1" style="stop-color:#EBBB96"/>
</radialGradient>
<ellipse fill="url(#SVGID_7_)" cx="19.474" cy="26.137" rx="9.902" ry="6.398"/>
<radialGradient id="SVGID_8_" cx="1328.5059" cy="41.2246" r="6.0939" gradientTransform="matrix(-1 0 0 0.9524 1352.2305 -20.9658)" gradientUnits="userSpaceOnUse">
	<stop  offset="0" style="stop-color:#EBBB96"/>
	<stop  offset="1" style="stop-color:#EBBB96"/>
	<a:midPointStop  offset="0" style="stop-color:#EBBB96"/>
	<a:midPointStop  offset="0.5" style="stop-color:#EBBB96"/>
	<a:midPointStop  offset="1" style="stop-color:#EBBB96"/>
</radialGradient>
<ellipse fill="url(#SVGID_8_)" cx="23.724" cy="18.296" rx="6.234" ry="5.667"/>
<radialGradient id="SVGID_9_" cx="1337.0078" cy="41.2246" r="6.0934" gradientTransform="matrix(-1 0 0 0.9524 1352.2305 -20.9658)" gradientUnits="userSpaceOnUse">
	<stop  offset="0" style="stop-color:#EBBB96"/>
	<stop  offset="1" style="stop-color:#EBBB96"/>
	<a:midPointStop  offset="0" style="stop-color:#EBBB96"/>
	<a:midPointStop  offset="0.5" style="stop-color:#EBBB96"/>
	<a:midPointStop  offset="1" style="stop-color:#EBBB96"/>
</radialGradient>
<ellipse fill="url(#SVGID_9_)" cx="15.223" cy="18.296" rx="6.234" ry="5.667"/>
<linearGradient id="SVGID_10_" gradientUnits="userSpaceOnUse" x1="110.4346" y1="11.0293" x2="109.2655" y2="17.6974" gradientTransform="matrix(1 0 0 1 -85.4355 0)">
	<stop  offset="0" style="stop-color:#D9A17A"/>
	<stop  offset="1" style="stop-color:#EBBB96"/>
	<a:midPointStop  offset="0" style="stop-color:#D9A17A"/>
	<a:midPointStop  offset="0.5" style="stop-color:#D9A17A"/>
	<a:midPointStop  offset="1" style="stop-color:#EBBB96"/>
</linearGradient>
<ellipse fill="url(#SVGID_10_)" cx="23.724" cy="18.296" rx="5.152" ry="4.66"/>
<linearGradient id="SVGID_11_" gradientUnits="userSpaceOnUse" x1="1338.2813" y1="11.0288" x2="1337.1122" y2="17.6972" gradientTransform="matrix(-1 0 0 1 1352.2305 0)">
	<stop  offset="0" style="stop-color:#D9A17A"/>
	<stop  offset="1" style="stop-color:#EBBB96"/>
	<a:midPointStop  offset="0" style="stop-color:#D9A17A"/>
	<a:midPointStop  offset="0.5" style="stop-color:#D9A17A"/>
	<a:midPointStop  offset="1" style="stop-color:#EBBB96"/>
</linearGradient>
<ellipse fill="url(#SVGID_11_)" cx="15.223" cy="18.296" rx="5.151" ry="4.66"/>
<path fill="#302C3B" d="M16.871,22.661c-0.263-1.117,2.362,0.754,2.008,0.883C18.239,23.778,17.081,23.544,16.871,22.661z"/>
<path fill="#302C3B" d="M22.075,22.661c0.264-1.117-2.361,0.754-2.009,0.883C20.708,23.778,21.865,23.544,22.075,22.661z"/>
<path fill="#302C3B" d="M23.762,26.819c0-0.208-0.118-0.468-0.46-0.535c-0.873-0.171-2.163-0.348-3.828-0.348l0,0l0,0l0,0l0,0
	c-1.664,0-2.955,0.177-3.829,0.348c-0.341,0.067-0.461,0.327-0.461,0.535c0,1.883,1.416,3.777,4.29,3.777l0,0l0,0l0,0l0,0
	C22.347,30.597,23.762,28.702,23.762,26.819z"/>
<linearGradient id="SVGID_12_" gradientUnits="userSpaceOnUse" x1="19.4736" y1="30.0723" x2="19.4736" y2="29.2744">
	<stop  offset="0" style="stop-color:#D63324"/>
	<stop  offset="0.0798" style="stop-color:#DC3F31"/>
	<stop  offset="0.2475" style="stop-color:#E75346"/>
	<stop  offset="0.4352" style="stop-color:#EE6155"/>
	<stop  offset="0.6572" style="stop-color:#F3695D"/>
	<stop  offset="1" style="stop-color:#F46C60"/>
	<a:midPointStop  offset="0" style="stop-color:#D63324"/>
	<a:midPointStop  offset="0.2121" style="stop-color:#D63324"/>
	<a:midPointStop  offset="1" style="stop-color:#F46C60"/>
</linearGradient>
<path fill="url(#SVGID_12_)" d="M17.667,29.684c0.522,0.245,1.123,0.389,1.807,0.389c0.683,0,1.284-0.144,1.807-0.389
	c0,0-0.906-0.718-1.807-0.252C18.571,28.966,17.667,29.684,17.667,29.684z"/>
<ellipse fill="#302C3B" cx="24.292" cy="18.878" rx="1.698" ry="2.55"/>
<ellipse fill="#302C3B" cx="14.657" cy="18.878" rx="1.7" ry="2.55"/>
<path fill="#6E8189" d="M14.612,18.059c0,0.798-1.115,0.798-1.115,0C13.497,17.26,14.612,17.26,14.612,18.059z"/>
<path fill="#6E8189" d="M24.203,18.059c0,0.798-1.113,0.798-1.113,0C23.09,17.26,24.203,17.26,24.203,18.059z"/>
</svg>
