<?xml version="1.0" encoding="utf-8"?>
<!-- Generator: Adobe Illustrator 15.0.0, SVG Export Plug-In . SVG Version: 6.00 Build 0)  -->
<!DOCTYPE svg PUBLIC "-//W3C//DTD SVG 1.1//EN" "http://www.w3.org/Graphics/SVG/1.1/DTD/svg11.dtd" [
	<!ENTITY ns_flows "http://ns.adobe.com/Flows/1.0/">
	<!ENTITY ns_extend "http://ns.adobe.com/Extensibility/1.0/">
	<!ENTITY ns_ai "http://ns.adobe.com/AdobeIllustrator/10.0/">
	<!ENTITY ns_graphs "http://ns.adobe.com/Graphs/1.0/">
]>
<svg version="1.1" id="Layer_1" xmlns:x="&ns_extend;" xmlns:i="&ns_ai;" xmlns:graph="&ns_graphs;"
	 xmlns="http://www.w3.org/2000/svg" xmlns:xlink="http://www.w3.org/1999/xlink" xmlns:a="http://ns.adobe.com/AdobeSVGViewerExtensions/3.0/"
	 x="0px" y="0px" width="64px" height="64px" viewBox="0 0 64 64" enable-background="new 0 0 64 64" xml:space="preserve">
<path fill="#45332C" d="M30.811,59.151c-1.844-1.58-3.443-10.154-3.977-4.592C26.373,59.349,34.41,62.253,30.811,59.151z"/>
<path fill="#45332C" d="M31.291,48.124c-0.746,0.48-4.266-0.932-3.264-2.065C32.865,40.584,33.135,46.933,31.291,48.124z"/>
<path fill="#45332C" d="M30.223,45.758c1.309,0.626,0.287,7.392-0.992,8.853c-0.318,0.361-4.844-0.088-4.334-0.73
	C26.979,51.247,28.977,45.166,30.223,45.758z"/>
<linearGradient id="SVGID_1_" gradientUnits="userSpaceOnUse" x1="32.9219" y1="27.7915" x2="27.0467" y2="45.2296">
	<stop  offset="0" style="stop-color:#FFC800"/>
	<stop  offset="0.329" style="stop-color:#FFC500"/>
	<stop  offset="0.5911" style="stop-color:#FFBB00"/>
	<stop  offset="0.8293" style="stop-color:#FFAA00"/>
	<stop  offset="1" style="stop-color:#FF9900"/>
	<a:midPointStop  offset="0" style="stop-color:#FFC800"/>
	<a:midPointStop  offset="0.7515" style="stop-color:#FFC800"/>
	<a:midPointStop  offset="1" style="stop-color:#FF9900"/>
</linearGradient>
<path fill="url(#SVGID_1_)" d="M29.596,45.416l5.98-16.43c-4.959-0.436-6.852,2.518-8.232,6.307
	C25.965,39.084,25.518,42.564,29.596,45.416z"/>
<linearGradient id="SVGID_2_" gradientUnits="userSpaceOnUse" x1="38.4531" y1="29.5825" x2="31.953" y2="46.7705">
	<stop  offset="0" style="stop-color:#B3806A"/>
	<stop  offset="0.4547" style="stop-color:#956B58"/>
	<stop  offset="0.9515" style="stop-color:#785647"/>
	<a:midPointStop  offset="0" style="stop-color:#B3806A"/>
	<a:midPointStop  offset="0.4679" style="stop-color:#B3806A"/>
	<a:midPointStop  offset="0.9515" style="stop-color:#785647"/>
</linearGradient>
<path fill="url(#SVGID_2_)" d="M33.994,47.604c0.225,0.082,0.438,0.15,0.658,0.23l6.35-17.449c-0.217-0.084-0.428-0.168-0.652-0.25
	c-1.859-0.676-3.424-1.031-4.773-1.15l-5.98,16.43C30.707,46.193,32.135,46.927,33.994,47.604z"/>
<linearGradient id="SVGID_3_" gradientUnits="userSpaceOnUse" x1="43.3906" y1="31.3188" x2="37.5156" y2="48.7563">
	<stop  offset="0" style="stop-color:#FFC800"/>
	<stop  offset="0.329" style="stop-color:#FFC500"/>
	<stop  offset="0.5911" style="stop-color:#FFBB00"/>
	<stop  offset="0.8293" style="stop-color:#FFAA00"/>
	<stop  offset="1" style="stop-color:#FF9900"/>
	<a:midPointStop  offset="0" style="stop-color:#FFC800"/>
	<a:midPointStop  offset="0.7515" style="stop-color:#FFC800"/>
	<a:midPointStop  offset="1" style="stop-color:#FF9900"/>
</linearGradient>
<path fill="url(#SVGID_3_)" d="M40.006,49.433l6.125-16.832c-1.52-0.756-3.223-1.5-5.129-2.215l-6.35,17.449
	C36.572,48.511,38.355,49.036,40.006,49.433z"/>
<linearGradient id="SVGID_4_" gradientUnits="userSpaceOnUse" x1="48.876" y1="33.5244" x2="42.3758" y2="50.7123">
	<stop  offset="0" style="stop-color:#B3806A"/>
	<stop  offset="0.4547" style="stop-color:#956B58"/>
	<stop  offset="0.9515" style="stop-color:#785647"/>
	<a:midPointStop  offset="0" style="stop-color:#B3806A"/>
	<a:midPointStop  offset="0.4679" style="stop-color:#B3806A"/>
	<a:midPointStop  offset="0.9515" style="stop-color:#785647"/>
</linearGradient>
<path fill="url(#SVGID_4_)" d="M45.596,50.378l5.426-14.907c-1.373-0.959-2.99-1.924-4.891-2.87l-6.125,16.832
	C42.068,49.931,43.928,50.231,45.596,50.378z"/>
<linearGradient id="SVGID_5_" gradientUnits="userSpaceOnUse" x1="53.9355" y1="34.8721" x2="48.0606" y2="52.3095">
	<stop  offset="0" style="stop-color:#FFC800"/>
	<stop  offset="0.329" style="stop-color:#FFC500"/>
	<stop  offset="0.5911" style="stop-color:#FFBB00"/>
	<stop  offset="0.8293" style="stop-color:#FFAA00"/>
	<stop  offset="1" style="stop-color:#FF9900"/>
	<a:midPointStop  offset="0" style="stop-color:#FFC800"/>
	<a:midPointStop  offset="0.7515" style="stop-color:#FFC800"/>
	<a:midPointStop  offset="1" style="stop-color:#FF9900"/>
</linearGradient>
<path fill="url(#SVGID_5_)" d="M51.588,50.224l3.924-10.782c-1.092-1.266-2.551-2.611-4.49-3.971l-5.426,14.907
	C47.957,50.585,49.938,50.489,51.588,50.224z"/>
<linearGradient id="SVGID_6_" gradientUnits="userSpaceOnUse" x1="59.2461" y1="37.4463" x2="52.7461" y2="54.6338">
	<stop  offset="0" style="stop-color:#B3806A"/>
	<stop  offset="0.4547" style="stop-color:#956B58"/>
	<stop  offset="0.9515" style="stop-color:#785647"/>
	<a:midPointStop  offset="0" style="stop-color:#B3806A"/>
	<a:midPointStop  offset="0.4679" style="stop-color:#B3806A"/>
	<a:midPointStop  offset="0.9515" style="stop-color:#785647"/>
</linearGradient>
<path fill="url(#SVGID_6_)" d="M55.512,39.441l-3.924,10.782c5.059-1.461,6.201-1.045,6.201-1.045S59.025,43.514,55.512,39.441z"/>
<path opacity="0.6" fill="#8FBEDB" d="M46.588,2C27.094,8.417,23.17,30.107,23.17,30.107S56.109,27.913,46.588,2z"/>
<path opacity="0.6" fill="#8FBEDB" d="M24.996,30.818c0,0,39.004,8.657,36.924-19.563C37.064,11.089,24.996,30.818,24.996,30.818z"
	/>
<path fill="#45332C" d="M13.703,37.553c-0.49,0.209,0.727,1.791,1.256,1.742C17.549,39.053,20.062,34.85,13.703,37.553z"/>
<path fill="#45332C" d="M12.307,39.797c-0.115,0.143,1.275,2.062,1.432,1.79C14.861,39.64,16.278,34.85,12.307,39.797z"/>
<path fill="#45332C" d="M13.165,44.204c-0.264-1.828,1.07-4.82-0.316-4.178C11.657,40.581,13.681,47.779,13.165,44.204z"/>
<path fill="#45332C" d="M19.033,42.512c-0.401,0.341,1.438,1.227,1.879,0.938C23.076,42.037,23.17,38.995,19.033,42.512z"/>
<path fill="#45332C" d="M20.055,42.598c-0.822-0.316-2.377,1.893-2.201,2.762c0.045,0.215,2.369,1.774,2.318,1.411
	C19.963,45.285,20.838,42.9,20.055,42.598z"/>
<path fill="#45332C" d="M20.42,49.558c-0.865-1.604-0.645-4.829-1.709-3.765C17.793,46.714,22.109,52.692,20.42,49.558z"/>
<path fill="#8A6151" d="M35.789,60.837c-2.076-1.26-5.049-9.459-4.672-3.883C31.441,61.755,39.844,63.313,35.789,60.837z"/>
<path fill="#785647" d="M33.031,47.716c1.395,0.406,1.484,7.25,0.461,8.896c-0.256,0.41-4.795,0.703-4.396-0.016
	C30.723,53.661,31.705,47.337,33.031,47.716z"/>
<path fill="#6E4F41" d="M33.027,40.584c1.125,0,3.066,7.819,1.441,9.294c-0.658,0.596-4.945-0.91-3.555-1.508
	C32.605,47.646,32.295,40.582,33.027,40.584z"/>
<linearGradient id="SVGID_7_" gradientUnits="userSpaceOnUse" x1="15.9087" y1="34.2109" x2="34.7578" y2="34.2109">
	<stop  offset="0" style="stop-color:#A85A00"/>
	<stop  offset="0.1826" style="stop-color:#AE5F00"/>
	<stop  offset="0.4366" style="stop-color:#C06C00"/>
	<stop  offset="0.731" style="stop-color:#DE8100"/>
	<stop  offset="1" style="stop-color:#FF9900"/>
	<a:midPointStop  offset="0" style="stop-color:#A85A00"/>
	<a:midPointStop  offset="0.6364" style="stop-color:#A85A00"/>
	<a:midPointStop  offset="1" style="stop-color:#FF9900"/>
</linearGradient>
<path fill="url(#SVGID_7_)" d="M34.758,37.18l-2.305-0.631c0.863-1.354,2.199-1.514,2.199-1.514c-0.395-3.051-3.236-4.04-3.236-4.04
	c0.465,0.006,1.998-0.242,1.998-0.242c-1.67-3.104-4.793-3.273-6.006-3.4l1.631-1.193c0,0-3.107-0.73-5.105,0.753
	c0.322-0.446,1.23-1.94,1.23-1.94c-8.01,1.073-12.037,12.073-7.094,16.518c0,0,0.992-0.535,1.324-1.07
	c0.9,2.557,3.08,2.813,3.08,2.813l0.17-1.324c1.066,0.645,2.627,2.088,5.367,1.324c0,0-0.299-1.027-0.623-1.363
	c0,0,2.465,1.135,4.898-0.695c0,0-0.811-0.889-1.34-0.982C33.381,39.85,34.758,37.18,34.758,37.18z"/>
<linearGradient id="SVGID_8_" gradientUnits="userSpaceOnUse" x1="17.2783" y1="33.8213" x2="32.0938" y2="33.8213">
	<stop  offset="0" style="stop-color:#753317"/>
	<stop  offset="0.1458" style="stop-color:#7B3716"/>
	<stop  offset="0.3486" style="stop-color:#8D4212"/>
	<stop  offset="0.5848" style="stop-color:#AB550D"/>
	<stop  offset="0.8442" style="stop-color:#D46E05"/>
	<stop  offset="1" style="stop-color:#F08000"/>
	<a:midPointStop  offset="0" style="stop-color:#753317"/>
	<a:midPointStop  offset="0.6364" style="stop-color:#753317"/>
	<a:midPointStop  offset="1" style="stop-color:#F08000"/>
</linearGradient>
<path fill="url(#SVGID_8_)" d="M32.094,36.154l-1.813-0.496c0.68-1.064,1.729-1.189,1.729-1.189
	c-0.311-2.399-2.543-3.174-2.543-3.174c0.365,0.004,1.57-0.191,1.57-0.191c-1.313-2.439-3.768-2.572-4.721-2.673l1.281-0.938
	c0,0-2.441-0.574-4.012,0.592c0.254-0.351,0.967-1.524,0.967-1.524c-6.295,0.843-9.461,9.489-5.576,12.981
	c0,0,0.781-0.42,1.043-0.84c0.705,2.01,2.42,2.211,2.42,2.211l0.133-1.041c0.838,0.506,2.064,1.641,4.219,1.041
	c0,0-0.236-0.809-0.49-1.072c0,0,1.938,0.893,3.852-0.545c0,0-0.639-0.699-1.055-0.773C31.012,38.252,32.094,36.154,32.094,36.154z"
	/>
<path fill="#45332C" d="M7.063,35.35c-1.656,1.535-2.094,4.516,1.391,2.297L7.063,35.35z"/>
<path fill="#45332C" d="M14.863,27.158c-3.375-4.48-7.162-5.318-7.313-4.963c-1.668,3.947-5.354,6.163-5.154,6.742
	c0.334,0.961,5.578-3.045,5.576-5.544c0.002-0.452,3.488,1.216,5.531,4.173C13.709,27.858,15.074,27.445,14.863,27.158z"/>
<radialGradient id="SVGID_9_" cx="11.708" cy="30.9175" r="7.926" gradientTransform="matrix(0.7071 0.7071 -1.0674 1.0674 36.4305 -10.3626)" gradientUnits="userSpaceOnUse">
	<stop  offset="0" style="stop-color:#D1853D"/>
	<stop  offset="0.1741" style="stop-color:#CC813C"/>
	<stop  offset="0.3852" style="stop-color:#BD753A"/>
	<stop  offset="0.6156" style="stop-color:#A46136"/>
	<stop  offset="0.8579" style="stop-color:#834530"/>
	<stop  offset="1" style="stop-color:#6B322C"/>
	<a:midPointStop  offset="0" style="stop-color:#D1853D"/>
	<a:midPointStop  offset="0.6667" style="stop-color:#D1853D"/>
	<a:midPointStop  offset="1" style="stop-color:#6B322C"/>
</radialGradient>
<path fill="url(#SVGID_9_)" d="M19.293,35.719c-10.094,4.637-15.66,2.955-10.697-4.907C19.164,14.089,29.902,30.851,19.293,35.719z"
	/>
<radialGradient id="SVGID_10_" cx="12.4751" cy="31.2544" r="3.2367" gradientTransform="matrix(0.7071 0.7071 -1.3098 1.3098 44.5923 -18.5052)" gradientUnits="userSpaceOnUse">
	<stop  offset="0" style="stop-color:#5B666E"/>
	<stop  offset="0.2523" style="stop-color:#545D66"/>
	<stop  offset="0.6624" style="stop-color:#424551"/>
	<stop  offset="1" style="stop-color:#302C3B"/>
	<a:midPointStop  offset="0" style="stop-color:#5B666E"/>
	<a:midPointStop  offset="0.6" style="stop-color:#5B666E"/>
	<a:midPointStop  offset="1" style="stop-color:#302C3B"/>
</radialGradient>
<path fill="url(#SVGID_10_)" d="M13.781,35.693c-4.857,2.408-7.391-0.631-3.895-4.586C18.557,21.292,24.064,30.595,13.781,35.693z"
	/>
<path fill="#6E8189" d="M8.617,34.383c-0.113,0.525,5.311-5.686,4.967-5.793C13.391,28.529,9.295,31.265,8.617,34.383z"/>
<path fill="#45332C" d="M16.047,25.205c-2.055-6.019-5.842-8.27-6.127-7.943C6.74,20.91,1.986,21.972,2,22.667
	c0.02,1.149,7.076-1.28,7.951-3.968c0.158-0.484,3.336,2.555,4.496,6.459C14.563,25.544,16.182,25.589,16.047,25.205z"/>
<path fill="#8A6151" d="M15.131,45.441c-0.613-1.742,0.115-4.938-1.121-4.035C12.947,42.182,16.33,48.851,15.131,45.441z"/>
<path fill="#785647" d="M15.693,39.396c-0.646-0.373-2.234,1.268-2.203,2.02c0.008,0.184,1.746,1.791,1.752,1.48
	C15.264,41.631,16.307,39.752,15.693,39.396z"/>
<path fill="#6E4F41" d="M14.244,39.242c-0.521,0.105,1.059,1.615,1.568,1.465c2.496-0.74,6.078-4.668,5.408-5.385
	C20.705,34.768,17.047,38.684,14.244,39.242z"/>
<path fill="#8A6151" d="M23.49,51.421c-1.422-1.33-2.295-4.668-3.008-3.229C19.865,49.435,26.266,54.021,23.49,51.421z"/>
<path fill="#785647" d="M20.756,44.5c-0.941-0.041-1.764,2.724-1.289,3.542c0.117,0.205,3,0.99,2.824,0.641
	C21.574,47.251,21.65,44.539,20.756,44.5z"/>
<path fill="#6E4F41" d="M19.6,44.75c-0.387,0.41,1.871,0.754,2.221,0.311c1.711-2.164,2.471-7.762,1.469-7.975
	C22.514,36.92,21.686,42.553,19.6,44.75z"/>
</svg>
