<?xml version="1.0" encoding="utf-8"?>
<!-- Generator: Adobe Illustrator 15.0.0, SVG Export Plug-In . SVG Version: 6.00 Build 0)  -->
<!DOCTYPE svg PUBLIC "-//W3C//DTD SVG 1.1//EN" "http://www.w3.org/Graphics/SVG/1.1/DTD/svg11.dtd" [
	<!ENTITY ns_flows "http://ns.adobe.com/Flows/1.0/">
	<!ENTITY ns_extend "http://ns.adobe.com/Extensibility/1.0/">
	<!ENTITY ns_ai "http://ns.adobe.com/AdobeIllustrator/10.0/">
	<!ENTITY ns_graphs "http://ns.adobe.com/Graphs/1.0/">
]>
<svg version="1.1" id="Layer_1" xmlns:x="&ns_extend;" xmlns:i="&ns_ai;" xmlns:graph="&ns_graphs;"
	 xmlns="http://www.w3.org/2000/svg" xmlns:xlink="http://www.w3.org/1999/xlink" xmlns:a="http://ns.adobe.com/AdobeSVGViewerExtensions/3.0/"
	 x="0px" y="0px" width="64px" height="64px" viewBox="0 0 64 64" enable-background="new 0 0 64 64" xml:space="preserve">
<path fill="#748389" d="M21.411,38.793c5.505,11.617,3.335,12.873,5.386,17.951c0.838,2.076-1.603,1.08-1.011,3.973h5.193
	c1.641,0,0.314-2.986-0.141-5.117c-1.593-7.453,0.527-11.893,0.457-15.555C31.202,35.186,19.997,35.809,21.411,38.793z"/>
<path fill="#99A8AE" d="M27.106,60.717h-1.35C25.756,59.482,27.106,59.482,27.106,60.717z"/>
<path fill="#99A8AE" d="M28.455,60.717h-1.349C27.106,59.482,28.455,59.482,28.455,60.717z"/>
<path fill="#748389" d="M49.521,45.57c1.398,4.609,3.261,0.131,6.646,10.537c0.699,2.148-1.307,2.42-1.068,4.629
	c0,0,4.026,0,5.505,0c1.334,0,1.838-1.93,0.959-3.271c-1.102-1.686-0.623-2.91-1.75-4.959c-3.362-6.115,0.508-8.229-5.13-17.184
	C52.178,31.341,48.552,42.373,49.521,45.57z"/>
<path fill="#99A8AE" d="M56.449,60.736h-1.352C55.098,59.502,56.449,59.502,56.449,60.736z"/>
<path fill="#99A8AE" d="M57.798,60.736h-1.349C56.449,59.502,57.798,59.502,57.798,60.736z"/>
<linearGradient id="SVGID_1_" gradientUnits="userSpaceOnUse" x1="34.3281" y1="62" x2="34.3281" y2="15.9839">
	<stop  offset="0" style="stop-color:#7B888C"/>
	<stop  offset="1" style="stop-color:#A6B6BD"/>
	<a:midPointStop  offset="0" style="stop-color:#7B888C"/>
	<a:midPointStop  offset="0.5" style="stop-color:#7B888C"/>
	<a:midPointStop  offset="1" style="stop-color:#A6B6BD"/>
</linearGradient>
<path fill="url(#SVGID_1_)" d="M14.201,22.889c-2.417,8.515,3.525,9.51,3.623,12.883c0.309,10.824-5.45,14.16-5.493,20.756
	c-0.021,3.174-1.256,1.824-2.107,3.74C9.883,61.025,10.879,62,11.963,62h3.363c1.421,0,1.289-2.689,1.39-3.568
	c0.984-8.578,6.483-9.307,7.358-10.887c0.73-1.318,1.433-4.938,2.771-5.373c4.192-1.371,5.534,5.295,17.608,3.713
	c2.96,2.846,1.761,9.555,0.924,12.566c-0.25,0.898-1.727,1.521-1.49,3.549h5.933c1.781,0,0.172-3.098,0.203-3.818
	c0.521-11.957,6.603-15.773,6.224-25.494c1.878,6.258-2.273,11.486,1.231,16.859c-2.132-4.689,2.842-11.432,0.26-20.653
	c-1.753-6.259-7.064-15.437-19.834-11.484C27.862,20.518,18.06,9.297,14.201,22.889z"/>
<path fill="#BEC3CF" d="M13.313,62h-1.35C11.963,60.766,13.313,60.766,13.313,62z"/>
<path fill="#BEC3CF" d="M45.283,62h-1.352C43.932,60.768,45.283,60.768,45.283,62z"/>
<path fill="#BEC3CF" d="M46.632,62h-1.349C45.283,60.768,46.632,60.768,46.632,62z"/>
<path fill="#BEC3CF" d="M11.508,61.943c0,0-1.015,0-1.32-1.133C10.583,59.393,11.508,60.393,11.508,61.943z"/>
<linearGradient id="SVGID_2_" gradientUnits="userSpaceOnUse" x1="30.5288" y1="43.001" x2="30.2373" y2="33.5842">
	<stop  offset="0.2424" style="stop-color:#77878C"/>
	<stop  offset="0.8364" style="stop-color:#77878C;stop-opacity:0"/>
	<a:midPointStop  offset="0.2424" style="stop-color:#77878C"/>
	<a:midPointStop  offset="0.5326" style="stop-color:#77878C"/>
	<a:midPointStop  offset="0.8364" style="stop-color:#77878C;stop-opacity:0"/>
</linearGradient>
<path fill="url(#SVGID_2_)" d="M25.312,44.326c0,0,2.847-6.502,2.847-10.57c0-4.073,2.271,9.395,7.703,11.693
	C32.145,44.221,27.07,41.186,25.312,44.326z"/>
<linearGradient id="SVGID_3_" gradientUnits="userSpaceOnUse" x1="42.3711" y1="45.7754" x2="43.4545" y2="37.4838">
	<stop  offset="0.2788" style="stop-color:#77878C"/>
	<stop  offset="0.8364" style="stop-color:#77878C;stop-opacity:0"/>
	<a:midPointStop  offset="0.2788" style="stop-color:#77878C"/>
	<a:midPointStop  offset="0.4538" style="stop-color:#77878C"/>
	<a:midPointStop  offset="0.8364" style="stop-color:#77878C;stop-opacity:0"/>
</linearGradient>
<path fill="url(#SVGID_3_)" d="M44.771,46.225c-0.48-1.285,0.535-5.338,0.285-8.467c-0.959,6.527-1.352,7.695-5.185,8.338
	C42.625,46.418,42.926,45.885,44.771,46.225z"/>
<linearGradient id="SVGID_4_" gradientUnits="userSpaceOnUse" x1="4.1709" y1="21.0029" x2="21.4985" y2="38.3305">
	<stop  offset="0.1697" style="stop-color:#A6B6BD"/>
	<stop  offset="0.3898" style="stop-color:#A1B1B7"/>
	<stop  offset="0.6718" style="stop-color:#93A2A7"/>
	<stop  offset="0.9864" style="stop-color:#7C898D"/>
	<stop  offset="1" style="stop-color:#7B888C"/>
	<a:midPointStop  offset="0.1697" style="stop-color:#A6B6BD"/>
	<a:midPointStop  offset="0.6545" style="stop-color:#A6B6BD"/>
	<a:midPointStop  offset="1" style="stop-color:#7B888C"/>
</linearGradient>
<path fill="url(#SVGID_4_)" d="M23.365,29.318c4.101-1.383,6.058-7.095,4.158-9.089c-1.596-1.676-4.335-6.01-4.941-6.129
	c-2.535-0.498-7.752,0.977-10.123,2.094c-1.695,0.799-5.067-1.455-6.003,4.742c-0.207,1.377-3.871,8.179-3.871,16.674
	c0,14.719,10.293,14.486,12.112,4.73c0.091-0.488-1.633-0.826-1.756-0.344c-1.649,6.414-6.836,5.711-6.378-2.174
	c0.123-2.115,0.316-3.461,1.332-5.254c2.166-3.559,3.091-2.039,6.02-3.004C16.189,38.672,18.552,34.729,23.365,29.318z"/>
<linearGradient id="SVGID_5_" gradientUnits="userSpaceOnUse" x1="9.5254" y1="32.7832" x2="3.1717" y2="42.2827">
	<stop  offset="0.2424" style="stop-color:#77878C"/>
	<stop  offset="0.8788" style="stop-color:#77878C;stop-opacity:0"/>
	<a:midPointStop  offset="0.2424" style="stop-color:#77878C"/>
	<a:midPointStop  offset="0.5326" style="stop-color:#77878C"/>
	<a:midPointStop  offset="0.8788" style="stop-color:#77878C;stop-opacity:0"/>
</linearGradient>
<path fill="url(#SVGID_5_)" d="M3.142,42.313c2.423-0.867,3.213-3.279,3.645-4.703c0.147-1.037,0.687-2.379,1.108-3.041
	c2.523,0.529,2.878-1.189,2.806-2.434c0.816,0.416,2.755,0.234,3.272-0.493c0,0-0.564-1.299,0.125-6.705
	c-1.314,6.888-2.925,6.705-3.935,5.992c-0.281-0.197,1.158-0.93,1.384-2.193c-0.759,0.969-1.576,1.146-2.019,1.127
	c0.07,6.084-3.074,1.541-4.263,3.793c-0.209,0.396,0.503,1.521,0.503,1.521S5.146,38.553,3.142,42.313z"/>
<path fill="#77878C" d="M14.529,23.041c1.805-3.229,2.333-3.277,4.005-4.648c1.591-1.305,1.914-2.713,0.01-1.834
	C16.694,17.412,15.642,18.279,14.529,23.041z"/>
<path fill="#77878C" d="M8.815,27.736c1.814-0.979,1.504-1.092,2.287-2.023c0.746-0.885,1.531-1.047,1.016,0.021
	C11.619,26.771,11.471,27.171,8.815,27.736z"/>
<path fill="#E6EBEF" d="M7.239,33.518c0.057-0.441-1.475-0.582-1.6-0.158C4.619,36.816,2.004,40.127,2,40.848
	C1.994,41.5,6.812,36.758,7.239,33.518z"/>
<path fill-rule="evenodd" clip-rule="evenodd" fill="#302C3B" d="M7.425,24.34c0,0,1.138-0.184,1.617,1.018
	c0,0-0.59,1.431-1.552,0.878C6.966,25.938,7.425,24.34,7.425,24.34z"/>
<path fill="#6E8189" d="M7.769,24.764c-0.039,0.416-0.307,0.367-0.27-0.049C7.528,24.398,7.796,24.449,7.769,24.764z"/>
</svg>
