<?xml version="1.0" encoding="utf-8"?>
<!-- Generator: Adobe Illustrator 15.0.0, SVG Export Plug-In . SVG Version: 6.00 Build 0)  -->
<!DOCTYPE svg PUBLIC "-//W3C//DTD SVG 1.1//EN" "http://www.w3.org/Graphics/SVG/1.1/DTD/svg11.dtd" [
	<!ENTITY ns_flows "http://ns.adobe.com/Flows/1.0/">
	<!ENTITY ns_extend "http://ns.adobe.com/Extensibility/1.0/">
	<!ENTITY ns_ai "http://ns.adobe.com/AdobeIllustrator/10.0/">
	<!ENTITY ns_graphs "http://ns.adobe.com/Graphs/1.0/">
]>
<svg version="1.1" id="Layer_1" xmlns:x="&ns_extend;" xmlns:i="&ns_ai;" xmlns:graph="&ns_graphs;"
	 xmlns="http://www.w3.org/2000/svg" xmlns:xlink="http://www.w3.org/1999/xlink" xmlns:a="http://ns.adobe.com/AdobeSVGViewerExtensions/3.0/"
	 x="0px" y="0px" width="64px" height="64px" viewBox="0 0 64 64" enable-background="new 0 0 64 64" xml:space="preserve">
<path fill="#6E8189" d="M43.932,21.035c7.225-1.868,14.871-0.315,17.756,0.009c1.844,0.202-4.541,12.747-17.682,8.802
	C42.363,29.354,43.156,21.238,43.932,21.035z"/>
<linearGradient id="SVGID_1_" gradientUnits="userSpaceOnUse" x1="1345.4971" y1="19.6787" x2="1337.6495" y2="27.5717" gradientTransform="matrix(-1 0 0 1 1393.0781 0)">
	<stop  offset="0.3636" style="stop-color:#302C3B"/>
	<stop  offset="0.6097" style="stop-color:#404753"/>
	<stop  offset="0.8337" style="stop-color:#4A5862"/>
	<stop  offset="1" style="stop-color:#4E5E67"/>
	<a:midPointStop  offset="0.3636" style="stop-color:#302C3B"/>
	<a:midPointStop  offset="0.3564" style="stop-color:#302C3B"/>
	<a:midPointStop  offset="1" style="stop-color:#4E5E67"/>
</linearGradient>
<path fill="url(#SVGID_1_)" d="M46.838,28.908c9.064,2.541,14.582-6.782,12.92-6.939C48.539,20.905,45.186,28.444,46.838,28.908z"/>
<path fill="#6E8189" d="M20.067,21.035c-7.225-1.868-14.869-0.315-17.754,0.009c-1.846,0.202,4.541,12.747,17.68,8.802
	C21.637,29.354,20.844,21.238,20.067,21.035z"/>
<linearGradient id="SVGID_2_" gradientUnits="userSpaceOnUse" x1="-47.6367" y1="19.6802" x2="-55.4838" y2="27.5726" gradientTransform="matrix(1 0 0 1 64.0547 0)">
	<stop  offset="0.3636" style="stop-color:#302C3B"/>
	<stop  offset="0.6097" style="stop-color:#404753"/>
	<stop  offset="0.8337" style="stop-color:#4A5862"/>
	<stop  offset="1" style="stop-color:#4E5E67"/>
	<a:midPointStop  offset="0.3636" style="stop-color:#302C3B"/>
	<a:midPointStop  offset="0.3564" style="stop-color:#302C3B"/>
	<a:midPointStop  offset="1" style="stop-color:#4E5E67"/>
</linearGradient>
<path fill="url(#SVGID_2_)" d="M17.161,28.908c-9.063,2.541-14.582-6.782-12.92-6.939C15.459,20.905,18.813,28.444,17.161,28.908z"
	/>
<linearGradient id="SVGID_3_" gradientUnits="userSpaceOnUse" x1="32.0005" y1="53.7822" x2="32.0005" y2="14.2622">
	<stop  offset="0" style="stop-color:#4E5E67"/>
	<stop  offset="0.1063" style="stop-color:#586972"/>
	<stop  offset="0.2994" style="stop-color:#65777F"/>
	<stop  offset="0.5434" style="stop-color:#6C7F87"/>
	<stop  offset="1" style="stop-color:#6E8189"/>
	<a:midPointStop  offset="0" style="stop-color:#4E5E67"/>
	<a:midPointStop  offset="0.1818" style="stop-color:#4E5E67"/>
	<a:midPointStop  offset="1" style="stop-color:#6E8189"/>
</linearGradient>
<path fill="url(#SVGID_3_)" d="M17.955,53.782h28.091c3.334-3.711,3.646-13.02,3.646-35.346c0-5.566-35.384-5.566-35.384,0
	C14.308,40.763,14.623,50.071,17.955,53.782z"/>
<path fill="#CFD8DD" d="M32,14.106c-8.846,0-17.692,0.843-17.692,3.538C31.373,16.982,22.251,46.495,32,52.282
	c9.75-5.787,0.628-35.3,17.693-34.638C49.692,14.949,40.847,14.106,32,14.106z"/>
<path fill="#BC6464" d="M17.744,58.007c0-2.219,28.512-2.219,28.512,0C46.256,63.331,17.744,63.331,17.744,58.007z"/>
<path fill="#F78790" d="M48.342,54.657c0,8.223-32.683,8.223-32.683,0C15.655,42.769,48.342,42.769,48.342,54.657z"/>
<path fill="#BC6464" d="M22.995,56.9c3.329,2.51,4.285-5.15,2.731-5.931C24.172,50.188,19.272,54.092,22.995,56.9z"/>
<path fill="#BC6464" d="M38.273,50.97c-1.554,0.78-0.597,8.44,2.733,5.932C44.728,54.092,39.827,50.188,38.273,50.97z"/>
<radialGradient id="SVGID_4_" cx="44.6777" cy="40.1533" r="12.4433" gradientTransform="matrix(1 0 0 1.1458 -0.0072 -38.1471)" gradientUnits="userSpaceOnUse">
	<stop  offset="0" style="stop-color:#FFDAB8"/>
	<stop  offset="0.3925" style="stop-color:#FED8B6"/>
	<stop  offset="0.6023" style="stop-color:#FBD3AE"/>
	<stop  offset="0.7689" style="stop-color:#F6CAA0"/>
	<stop  offset="0.9119" style="stop-color:#EEBD8D"/>
	<stop  offset="1" style="stop-color:#E8B27D"/>
	<a:midPointStop  offset="0" style="stop-color:#FFDAB8"/>
	<a:midPointStop  offset="0.8182" style="stop-color:#FFDAB8"/>
	<a:midPointStop  offset="1" style="stop-color:#E8B27D"/>
</radialGradient>
<path fill="url(#SVGID_4_)" d="M49.631,23.614c10.32-6.698,8.35-18.078,6.314-21.419c-1.012-1.664-2.609,7.73-13.021,12.495
	C43.386,18.276,46.289,21.703,49.631,23.614z"/>
<radialGradient id="SVGID_5_" cx="1503.458" cy="40.1602" r="12.443" gradientTransform="matrix(-1 0 0 1.1458 1522.8002 -38.1489)" gradientUnits="userSpaceOnUse">
	<stop  offset="0" style="stop-color:#FFDAB8"/>
	<stop  offset="0.3925" style="stop-color:#FED8B6"/>
	<stop  offset="0.6023" style="stop-color:#FBD3AE"/>
	<stop  offset="0.7689" style="stop-color:#F6CAA0"/>
	<stop  offset="0.9119" style="stop-color:#EEBD8D"/>
	<stop  offset="1" style="stop-color:#E8B27D"/>
	<a:midPointStop  offset="0" style="stop-color:#FFDAB8"/>
	<a:midPointStop  offset="0.8182" style="stop-color:#FFDAB8"/>
	<a:midPointStop  offset="1" style="stop-color:#E8B27D"/>
</radialGradient>
<path fill="url(#SVGID_5_)" d="M14.369,23.62C4.048,16.922,6.019,5.542,8.054,2.201c1.012-1.664,2.609,7.729,13.02,12.494
	C20.613,18.282,17.71,21.709,14.369,23.62z"/>
<path fill="#CFD8DD" d="M25.161,11.994c1.5,2.065,0.602,4.883,0.602,4.883l13.078-0.325c-1.498-4.569-4.621-6.561-4.621-6.561
	c0.563,2.032-0.127,3.665-0.127,3.665c-1.144-2.859-5.039-3.944-5.039-3.944c1.322,2.109,0.799,3.517,0.799,3.517
	C27.756,11.54,25.161,11.994,25.161,11.994z"/>
<path fill="#302C3B" d="M45.946,36.104c0,5.486-6.225,5.486-6.225,0C39.722,30.619,45.946,30.619,45.946,36.104z"/>
<path fill="#6E8189" d="M42.755,34.706c0,1.369-1.914,1.369-1.914,0C40.841,33.334,42.755,33.334,42.755,34.706z"/>
<path fill="#302C3B" d="M24.281,36.104c0,5.486-6.227,5.486-6.227,0C18.054,30.619,24.281,30.619,24.281,36.104z"/>
<path fill="#6E8189" d="M21.087,34.706c0,1.369-1.914,1.369-1.914,0C19.173,33.334,21.087,33.334,21.087,34.706z"/>
</svg>
