<?xml version="1.0" encoding="utf-8"?>
<!-- Generator: Adobe Illustrator 15.0.0, SVG Export Plug-In . SVG Version: 6.00 Build 0)  -->
<!DOCTYPE svg PUBLIC "-//W3C//DTD SVG 1.1//EN" "http://www.w3.org/Graphics/SVG/1.1/DTD/svg11.dtd" [
	<!ENTITY ns_flows "http://ns.adobe.com/Flows/1.0/">
	<!ENTITY ns_extend "http://ns.adobe.com/Extensibility/1.0/">
	<!ENTITY ns_ai "http://ns.adobe.com/AdobeIllustrator/10.0/">
	<!ENTITY ns_graphs "http://ns.adobe.com/Graphs/1.0/">
]>
<svg version="1.1" id="Layer_1" xmlns:x="&ns_extend;" xmlns:i="&ns_ai;" xmlns:graph="&ns_graphs;"
	 xmlns="http://www.w3.org/2000/svg" xmlns:xlink="http://www.w3.org/1999/xlink" xmlns:a="http://ns.adobe.com/AdobeSVGViewerExtensions/3.0/"
	 x="0px" y="0px" width="64px" height="64px" viewBox="0 0 64 64" enable-background="new 0 0 64 64" xml:space="preserve">
<path fill="#B47D56" d="M52.539,23.401c3.346,2.561,5.371,7.086,6.581,12.029c-0.628-0.816-1.373-1.682-1.373-1.682
	s2.002,3.955,2.165,8.627c-0.629-1.559-1.979-2.373-1.979-2.373L52.539,23.401z"/>
<path fill="#B47D56" d="M25.084,34.457c3.229,6.098,2.353,11.527,2.701,13.777c-0.703,1.68,0.086,2.436,0,3.295
	c-0.435,4.416-1.208,6.07-1.894,8.107c-0.224,0.662-2.781,0.906-2.71,2.363h4.821c1.539,0-0.661-3.088,2.237-11.049
	c1.054-1.598,0.222-2.52,0.325-3.477c0.349-3.209-0.076-9.424,0.917-13.939C31.977,31.28,23.365,31.213,25.084,34.457z"/>
<path fill="#E1D3C8" d="M24.257,60.998c-0.38,0.086-0.601,0.238-0.72,0.4c0.049-0.217,0.127-0.4,0.127-0.4
	c-0.913,0.207-0.93,0.789-0.758,1.002h1.27C23.944,61.729,24.257,60.998,24.257,60.998z"/>
<path fill="#B47D56" d="M46.389,35.543c3.512,6.098,5.31,11.762,4.875,16.084c-0.443,4.414-2.422,5.938-3.107,7.977
	c-0.221,0.66-3.306,0.938-3.235,2.396h4.821c1.383,0,0.158-3.42,4.471-10.801c2.112-2.836-1.551-2.836-0.526-16.117
	C53.865,32.774,44.557,32.37,46.389,35.543z"/>
<linearGradient id="SVGID_1_" gradientUnits="userSpaceOnUse" x1="33.334" y1="39.0176" x2="33.334" y2="14.606">
	<stop  offset="0.0788" style="stop-color:#CC8E61"/>
	<stop  offset="0.2027" style="stop-color:#D0986C"/>
	<stop  offset="0.4064" style="stop-color:#D5A278"/>
	<stop  offset="0.6121" style="stop-color:#D6A57C"/>
	<a:midPointStop  offset="0.0788" style="stop-color:#CC8E61"/>
	<a:midPointStop  offset="0.2909" style="stop-color:#CC8E61"/>
	<a:midPointStop  offset="0.6121" style="stop-color:#D6A57C"/>
</linearGradient>
<path fill="url(#SVGID_1_)" d="M11.359,20.829c2.667,3.43-1.687,11.061,5.182,14.904c3.168,1.773,5.825-0.502,9.046-0.506
	c4.562-0.006,8.362,4.891,15.022,3.563c4.347-0.867,16.234-7.242,14.689-11.638c-2-5.688-9.479-7.865-9.988-8.529
	c-4.386-5.708-8.773-4.833-11.557-0.494c-1.267,1.975-3.031-0.502-8.594,6.375c-1.864,2.307-4.473,3.363-5.535,2.307
	c-1.804-1.797-0.01-7.297-3.456-9.572C14.923,16.415,10.425,19.627,11.359,20.829z"/>
<path fill="#D6A57C" d="M42.175,14c0,0,0.02,0.605-0.67,1.033c1.175-0.078,1.348,0.391,2.068,0.219
	c-0.016,0.594-0.517,0.797-0.517,0.797s0.955,0.594,1.668,0.193c-1.418,3.729-6.212,0.182-9.371-0.057
	C37.242,14.299,39.577,14,42.175,14z"/>
<linearGradient id="SVGID_2_" gradientUnits="userSpaceOnUse" x1="8.5571" y1="24.2241" x2="11.0185" y2="18.1738">
	<stop  offset="0.0788" style="stop-color:#CC8E61"/>
	<stop  offset="0.2309" style="stop-color:#D0986C"/>
	<stop  offset="0.4808" style="stop-color:#D5A278"/>
	<stop  offset="0.7333" style="stop-color:#D6A57C"/>
	<a:midPointStop  offset="0.0788" style="stop-color:#CC8E61"/>
	<a:midPointStop  offset="0.2909" style="stop-color:#CC8E61"/>
	<a:midPointStop  offset="0.7333" style="stop-color:#D6A57C"/>
</linearGradient>
<path fill="url(#SVGID_2_)" d="M6.243,22.725c5.614,2.615,12.739,1.453,12.02-3.467c-0.725-4.973-8.144-2.637-12.032-2.445
	c-2.61,0.127-2.603,1.854-3.818,2.617c-0.723,0.457-0.372,0.984,0.095,1.096l0.039,0.33c-0.866,0.469-0.299,1.984,0.617,1.678
	C4.745,22.002,5.615,22.434,6.243,22.725z"/>
<path fill="#D6A57C" d="M17.958,17.288c-0.68-1.471-3.147-3.41-5.002-3.281c0,0,0.666,0.322,0.681,0.84c0,0-0.843-0.014-1.084,0.271
	c0.664,0.193,0.75,0.525,0.75,0.525s-0.508-0.15-0.958,0.268c0.676,0.01,0.676,0.166,1.52,0.707
	C14.706,17.157,17.958,17.288,17.958,17.288z"/>
<path fill="#8A6859" d="M4.084,18.477C4.3,18.754,5.416,17.946,5.2,17.67C4.996,17.413,3.882,18.221,4.084,18.477z"/>
<path fill="#B47D56" d="M13.4,18.879c0,1.592-3.346,1.25-3.346-0.346C10.055,16.163,13.4,16.504,13.4,18.879z"/>
<path fill="#8A6859" d="M2.514,20.528c2.008,0,4.951,1.061,6.528,0.531c-1.913,0.805-4.481-0.203-6.495-0.203L2.514,20.528z"/>
<path fill="#D6A57C" d="M16.624,19.917c4.035,0.008,4.718-4.379,4.175-4.27c-0.849,0.164-3.145,0.391-5.088,1.633
	C15.5,17.415,16.12,19.915,16.624,19.917z"/>
<path fill="#B47D56" d="M17.079,19.45c2.77-0.049,3.718-3.443,3.23-3.34C17.022,16.815,16.574,19.459,17.079,19.45z"/>
<path fill-rule="evenodd" clip-rule="evenodd" fill="#302C3B" d="M10.532,18.532c0,0,1.767-0.504,2.3,0.373
	c0,0-0.653,1.045-1.721,0.641C10.535,19.327,10.532,18.532,10.532,18.532z"/>
<path fill="#6E8189" d="M11.083,18.75c-0.039,0.342-0.332,0.301-0.291-0.041C10.822,18.448,11.115,18.489,11.083,18.75z"/>
<path fill="#E1D3C8" d="M46.086,60.998c-0.379,0.086-0.6,0.238-0.719,0.4c0.049-0.217,0.127-0.4,0.127-0.4
	c-0.912,0.207-0.93,0.789-0.758,1.002h1.27C45.773,61.729,46.086,60.998,46.086,60.998z"/>
<linearGradient id="SVGID_3_" gradientUnits="userSpaceOnUse" x1="32.1519" y1="38.0215" x2="29.9539" y2="27.4029">
	<stop  offset="0.303" style="stop-color:#D6A57C"/>
	<stop  offset="0.8909" style="stop-color:#D6A57C;stop-opacity:0"/>
	<a:midPointStop  offset="0.303" style="stop-color:#D6A57C"/>
	<a:midPointStop  offset="0.5306" style="stop-color:#D6A57C"/>
	<a:midPointStop  offset="0.8909" style="stop-color:#D6A57C;stop-opacity:0"/>
</linearGradient>
<path fill="url(#SVGID_3_)" d="M27.397,34.094c4.798,6.373,7.149,11.84,7.5,14.09c-0.187,2.174,0.931,2.273,1.258,3.064
	c0.817,1.98,0.686,6.613,0,8.65c-0.224,0.662-2.19,0.643-2.12,2.102h4.602c1.687,0-0.11-1.9-0.527-11.049
	c0.445-2.867-0.644-3.924-1.257-5.486c-1.056-2.697-2.002-7.465-1.536-11.568C36.633,22.282,21.911,26.808,27.397,34.094z"/>
<linearGradient id="SVGID_4_" gradientUnits="userSpaceOnUse" x1="48.5068" y1="36.0527" x2="42.8517" y2="29.8611">
	<stop  offset="0.303" style="stop-color:#D6A57C"/>
	<stop  offset="0.8909" style="stop-color:#D6A57C;stop-opacity:0"/>
	<a:midPointStop  offset="0.303" style="stop-color:#D6A57C"/>
	<a:midPointStop  offset="0.5306" style="stop-color:#D6A57C"/>
	<a:midPointStop  offset="0.8909" style="stop-color:#D6A57C;stop-opacity:0"/>
</linearGradient>
<path fill="url(#SVGID_4_)" d="M47.402,31.921c3.951,7.848,6.146,8.292,7.896,10.454c1.34,1.658,3.543,7.834,3.869,8.625
	c0.816,1.982,0.08,6.861-0.605,8.898c-0.224,0.662-2.19,0.643-2.119,2.102h4.602c2.074,0,0.131-3.088,0.079-11.297
	c1.052-3.99,0.004-4.018-0.791-5.486c-4.74-8.766-1.988-17.005-8.045-22.146C50.584,21.624,43.916,24.997,47.402,31.921z"/>
<path fill="#E1D3C8" d="M35.039,60.998c-0.381,0.086-0.6,0.238-0.719,0.4c0.049-0.217,0.127-0.4,0.127-0.4
	c-0.913,0.207-0.931,0.789-0.758,1.002h1.27C34.725,61.729,35.039,60.998,35.039,60.998z"/>
<path fill="#E1D3C8" d="M57.463,60.998c-0.38,0.086-0.6,0.238-0.719,0.4c0.049-0.217,0.127-0.4,0.127-0.4
	c-0.912,0.207-0.93,0.789-0.758,1.002h1.27C57.15,61.729,57.463,60.998,57.463,60.998z"/>
</svg>
