<?xml version="1.0" encoding="utf-8"?>
<!-- Generator: Adobe Illustrator 15.0.0, SVG Export Plug-In . SVG Version: 6.00 Build 0)  -->
<!DOCTYPE svg PUBLIC "-//W3C//DTD SVG 1.1//EN" "http://www.w3.org/Graphics/SVG/1.1/DTD/svg11.dtd" [
	<!ENTITY ns_flows "http://ns.adobe.com/Flows/1.0/">
	<!ENTITY ns_extend "http://ns.adobe.com/Extensibility/1.0/">
	<!ENTITY ns_ai "http://ns.adobe.com/AdobeIllustrator/10.0/">
	<!ENTITY ns_graphs "http://ns.adobe.com/Graphs/1.0/">
]>
<svg version="1.1" id="Layer_1" xmlns:x="&ns_extend;" xmlns:i="&ns_ai;" xmlns:graph="&ns_graphs;"
	 xmlns="http://www.w3.org/2000/svg" xmlns:xlink="http://www.w3.org/1999/xlink" xmlns:a="http://ns.adobe.com/AdobeSVGViewerExtensions/3.0/"
	 x="0px" y="0px" width="64px" height="64px" viewBox="0 0 64 64" enable-background="new 0 0 64 64" xml:space="preserve">
<path fill="#785647" d="M52.631,23.401c3.352,2.561,5.381,7.086,6.594,12.029c-0.63-0.816-1.376-1.682-1.376-1.682
	s2.006,3.955,2.169,8.627c-0.63-1.559-1.982-2.373-1.982-2.373L52.631,23.401z"/>
<path fill="#8A5E40" d="M25.125,34.457c3.233,6.098,2.356,11.527,2.706,13.777c-0.705,1.68,0.086,2.436,0,3.295
	c-0.436,4.416-1.211,6.07-1.897,8.107c-0.224,0.662-2.785,0.906-2.715,2.363h4.83c1.155,0-0.249-4.309,2.241-11.049
	c1.056-1.598,0.222-2.52,0.325-3.477c0.35-3.209-0.076-9.424,0.919-13.939C32.031,31.28,23.404,31.213,25.125,34.457z"/>
<path fill="#E1D3C8" d="M24.297,60.998c-0.381,0.086-0.601,0.238-0.721,0.4c0.049-0.217,0.128-0.4,0.128-0.4
	c-0.915,0.207-0.931,0.789-0.758,1.002h1.27C23.983,61.729,24.297,60.998,24.297,60.998z"/>
<path fill="#8A5E40" d="M46.469,35.543c3.519,6.098,5.32,11.762,4.885,16.084c-0.443,4.414-2.426,5.938-3.112,7.977
	c-0.222,0.66-3.313,0.938-3.242,2.396h4.829c2.063,0,0.779-4.309,4.48-10.801c2.115-2.836-1.554-2.836-0.527-16.117
	C53.959,32.774,44.634,32.37,46.469,35.543z"/>
<linearGradient id="SVGID_1_" gradientUnits="userSpaceOnUse" x1="33.3906" y1="39.0176" x2="33.3906" y2="14.6611">
	<stop  offset="0.097" style="stop-color:#8F6242"/>
	<stop  offset="0.1982" style="stop-color:#9A6A48"/>
	<stop  offset="0.3977" style="stop-color:#A97550"/>
	<stop  offset="0.6345" style="stop-color:#B17B55"/>
	<stop  offset="1" style="stop-color:#B47D56"/>
	<a:midPointStop  offset="0.097" style="stop-color:#8F6242"/>
	<a:midPointStop  offset="0.2121" style="stop-color:#8F6242"/>
	<a:midPointStop  offset="1" style="stop-color:#B47D56"/>
</linearGradient>
<path fill="url(#SVGID_1_)" d="M11.376,20.829c2.673,3.43-1.689,11.061,5.192,14.904c3.174,1.773,5.834-0.502,9.061-0.506
	c4.57-0.006,8.378,4.891,15.05,3.563c4.354-0.867,16.265-7.242,14.716-11.638c-0.885-2.516-3.031-4.354-5.2-5.674
	c-2.731-1.664-2.963-12.248-8.009-3.09c-1.65,2.996-5.1,2.07-6.405,0c-4.667-7.408-3.613-2.205-6.97,2.141
	c-0.853,1.102-1.967,1.949-3.609,3.975c-1.866,2.307-4.481,3.363-5.544,2.307c-1.808-1.797-0.01-7.297-3.462-9.572
	C14.948,16.415,10.44,19.627,11.376,20.829z"/>
<path fill="#B47D56" d="M34.084,14c0,0-0.781,0.666-0.373,1.342c0,0,1.319-0.332,1.939-0.053c-0.888,0.5-0.748,0.963-0.748,0.963
	s0.679-0.385,1.736-0.01c-1.06,0.264-0.776,2.728-3.473,1.234C31.507,15.581,31.047,14.52,34.084,14z"/>
<path fill="#B47D56" d="M47.221,14c0,0-0.781,0.666-0.373,1.342c0,0,1.318-0.332,1.938-0.053c-0.887,0.5-0.747,0.963-0.747,0.963
	s0.679-0.385,1.736-0.01c-2.578,0.774-0.632,3.674-3.474,1.234C42.221,16.767,44.185,14.52,47.221,14z"/>
<linearGradient id="SVGID_2_" gradientUnits="userSpaceOnUse" x1="8.2715" y1="24.0933" x2="13.0338" y2="14.735">
	<stop  offset="0.097" style="stop-color:#8F6242"/>
	<stop  offset="0.1982" style="stop-color:#9A6A48"/>
	<stop  offset="0.3977" style="stop-color:#A97550"/>
	<stop  offset="0.6345" style="stop-color:#B17B55"/>
	<stop  offset="1" style="stop-color:#B47D56"/>
	<a:midPointStop  offset="0.097" style="stop-color:#8F6242"/>
	<a:midPointStop  offset="0.2121" style="stop-color:#8F6242"/>
	<a:midPointStop  offset="1" style="stop-color:#B47D56"/>
</linearGradient>
<path fill="url(#SVGID_2_)" d="M6.25,22.725c5.624,2.615,12.764,1.453,12.044-3.467c-0.727-4.973-8.16-2.637-12.056-2.445
	c-2.614,0.127-2.606,1.854-3.824,2.617c-0.725,0.457-0.373,0.984,0.096,1.096l0.037,0.33C1.68,21.325,2.25,22.84,3.166,22.534
	C4.75,22.002,5.623,22.434,6.25,22.725z"/>
<path fill="#B47D56" d="M17.988,17.288c-0.681-1.471-3.153-3.41-5.012-3.281c0,0,0.667,0.322,0.683,0.84
	c0,0-0.846-0.014-1.087,0.271c0.665,0.193,0.751,0.525,0.751,0.525s-0.51-0.15-0.959,0.268c0.677,0.01,0.677,0.166,1.522,0.707
	C14.73,17.157,17.988,17.288,17.988,17.288z"/>
<path fill="#594640" d="M4.088,18.477c0.216,0.277,1.334-0.531,1.118-0.807C5.002,17.413,3.886,18.221,4.088,18.477z"/>
<path fill="#9E6C49" d="M13.421,18.879c0,1.592-3.352,1.25-3.352-0.346C10.07,16.163,13.421,16.504,13.421,18.879z"/>
<path fill="#594640" d="M2.516,20.528c2.012,0,4.959,1.061,6.539,0.531c-1.916,0.805-4.49-0.203-6.508-0.203L2.516,20.528z"/>
<path fill="#B47D56" d="M16.652,19.917c4.042,0.008,4.725-4.379,4.182-4.27c-0.85,0.164-3.149,0.391-5.097,1.633
	C15.525,17.415,16.147,19.915,16.652,19.917z"/>
<path fill="#785647" d="M17.107,19.45c2.774-0.049,3.725-3.443,3.235-3.34C17.05,16.815,16.6,19.459,17.107,19.45z"/>
<path fill-rule="evenodd" clip-rule="evenodd" fill="#302C3B" d="M10.548,18.532c0,0,1.771-0.504,2.304,0.373
	c0,0-0.655,1.045-1.725,0.641C10.55,19.327,10.548,18.532,10.548,18.532z"/>
<path fill="#6E8189" d="M11.1,18.75c-0.04,0.342-0.332,0.301-0.291-0.041C10.838,18.448,11.131,18.489,11.1,18.75z"/>
<path fill="#E1D3C8" d="M46.167,60.998c-0.381,0.086-0.601,0.238-0.721,0.4c0.049-0.217,0.128-0.4,0.128-0.4
	c-0.915,0.207-0.931,0.789-0.758,1.002h1.27C45.853,61.729,46.167,60.998,46.167,60.998z"/>
<linearGradient id="SVGID_3_" gradientUnits="userSpaceOnUse" x1="32.1812" y1="35.9463" x2="32.0341" y2="28.344">
	<stop  offset="0.103" style="stop-color:#B47D56"/>
	<stop  offset="0.9212" style="stop-color:#B47D56;stop-opacity:0"/>
	<a:midPointStop  offset="0.103" style="stop-color:#B47D56"/>
	<a:midPointStop  offset="0.4303" style="stop-color:#B47D56"/>
	<a:midPointStop  offset="0.9212" style="stop-color:#B47D56;stop-opacity:0"/>
</linearGradient>
<path fill="url(#SVGID_3_)" d="M27.443,34.094c4.914,6.291,7.164,11.84,7.514,14.09c-0.187,2.174,0.933,2.273,1.26,3.064
	c0.818,1.98,0.688,6.613,0,8.65c-0.224,0.662-2.193,0.643-2.123,2.102h4.609c1.853,0,0.048-2.436-0.527-11.049
	c0.445-2.867-0.646-3.924-1.26-5.486C35.858,42.768,34.91,38,35.377,33.896C37.309,16.873,18.952,23.23,27.443,34.094z"/>
<linearGradient id="SVGID_4_" gradientUnits="userSpaceOnUse" x1="48.1523" y1="35.0342" x2="43.5698" y2="29.6669">
	<stop  offset="0.103" style="stop-color:#B47D56"/>
	<stop  offset="0.9212" style="stop-color:#B47D56;stop-opacity:0"/>
	<a:midPointStop  offset="0.103" style="stop-color:#B47D56"/>
	<a:midPointStop  offset="0.4303" style="stop-color:#B47D56"/>
	<a:midPointStop  offset="0.9212" style="stop-color:#B47D56;stop-opacity:0"/>
</linearGradient>
<path fill="url(#SVGID_4_)" d="M46.015,29.517c3.419,8.094,7.629,10.696,9.381,12.858c1.343,1.658,3.551,7.834,3.876,8.625
	c0.818,1.982,0.081,6.861-0.606,8.898c-0.224,0.662-2.193,0.643-2.123,2.102h4.611c1.633,0,0.472-2.248,0.079-11.297
	c1.054-3.99,0.004-4.018-0.793-5.486c-4.749-8.766-1.992-17.005-8.06-22.146C50.672,21.624,42.182,20.445,46.015,29.517z"/>
<path fill="#E1D3C8" d="M35.099,60.998c-0.381,0.086-0.601,0.238-0.72,0.4c0.049-0.217,0.127-0.4,0.127-0.4
	c-0.914,0.207-0.93,0.789-0.758,1.002h1.271C34.785,61.729,35.099,60.998,35.099,60.998z"/>
<path fill="#E1D3C8" d="M57.564,60.998c-0.381,0.086-0.601,0.238-0.721,0.4c0.05-0.217,0.128-0.4,0.128-0.4
	c-0.914,0.207-0.93,0.789-0.758,1.002h1.271C57.25,61.729,57.564,60.998,57.564,60.998z"/>
</svg>
