<?xml version="1.0" encoding="utf-8"?>
<!-- Generator: Adobe Illustrator 15.0.0, SVG Export Plug-In . SVG Version: 6.00 Build 0)  -->
<!DOCTYPE svg PUBLIC "-//W3C//DTD SVG 1.1//EN" "http://www.w3.org/Graphics/SVG/1.1/DTD/svg11.dtd" [
	<!ENTITY ns_flows "http://ns.adobe.com/Flows/1.0/">
	<!ENTITY ns_extend "http://ns.adobe.com/Extensibility/1.0/">
	<!ENTITY ns_ai "http://ns.adobe.com/AdobeIllustrator/10.0/">
	<!ENTITY ns_graphs "http://ns.adobe.com/Graphs/1.0/">
]>
<svg version="1.1" id="Layer_1" xmlns:x="&ns_extend;" xmlns:i="&ns_ai;" xmlns:graph="&ns_graphs;"
	 xmlns="http://www.w3.org/2000/svg" xmlns:xlink="http://www.w3.org/1999/xlink" xmlns:a="http://ns.adobe.com/AdobeSVGViewerExtensions/3.0/"
	 x="0px" y="0px" width="64px" height="64px" viewBox="0 0 64 64" enable-background="new 0 0 64 64" xml:space="preserve">
<path fill="#80502D" d="M28.286,11.305C25.256,11.305,27.799,4,27.799,4S32.385,11.305,28.286,11.305z"/>
<path fill="#80502D" d="M10.4,23.193c-1.84,2.377-6.167-4.056-6.167-4.056S12.889,19.975,10.4,23.193z"/>
<path fill="#80502D" d="M20.42,13.322c-2.85,1.011-2.953-6.715-2.953-6.715S24.28,11.953,20.42,13.322z"/>
<path fill="#80502D" d="M14.056,17.694c-2.384,1.843-4.936-5.46-4.936-5.46S17.285,15.198,14.056,17.694z"/>
<path fill="#80502D" d="M35.876,12.596c2.85,1.011,2.953-6.715,2.953-6.715S32.016,11.227,35.876,12.596z"/>
<path fill="#80502D" d="M42.241,16.968c2.384,1.844,4.936-5.458,4.936-5.458S39.011,14.472,42.241,16.968z"/>
<linearGradient id="SVGID_1_" gradientUnits="userSpaceOnUse" x1="51.4219" y1="22.7573" x2="61.8646" y2="22.7261">
	<stop  offset="0" style="stop-color:#80502D"/>
	<stop  offset="0.13" style="stop-color:#895A33"/>
	<stop  offset="0.3473" style="stop-color:#A07344"/>
	<stop  offset="0.6233" style="stop-color:#C69D60"/>
	<stop  offset="0.8424" style="stop-color:#E8C379"/>
	<a:midPointStop  offset="0" style="stop-color:#80502D"/>
	<a:midPointStop  offset="0.5942" style="stop-color:#80502D"/>
	<a:midPointStop  offset="0.8424" style="stop-color:#E8C379"/>
</linearGradient>
<path fill="url(#SVGID_1_)" d="M59.421,15.483c-1.202-0.611-2.897,0.946-4.617,2.451c-1.161,0.816-3.773,1.713-10.383-4.168
	l7.505,16.937c-0.135-1.914,1.521-2.6,3.36-1.121c0,0,0,0,0-0.001c1.551,1.356,3.045,2.585,4.135,2.03
	C62.86,29.865,62.86,17.231,59.421,15.483z"/>
<radialGradient id="SVGID_2_" cx="25.0781" cy="34.3711" r="21.7833" gradientTransform="matrix(1.0005 0 0 1 0.2555 0.1387)" gradientUnits="userSpaceOnUse">
	<stop  offset="0" style="stop-color:#B47D56"/>
	<stop  offset="0.2927" style="stop-color:#B07A53"/>
	<stop  offset="0.5574" style="stop-color:#A5704B"/>
	<stop  offset="0.8105" style="stop-color:#93613C"/>
	<stop  offset="1" style="stop-color:#80502D"/>
	<a:midPointStop  offset="0" style="stop-color:#B47D56"/>
	<a:midPointStop  offset="0.7273" style="stop-color:#B47D56"/>
	<a:midPointStop  offset="1" style="stop-color:#80502D"/>
</radialGradient>
<path fill="url(#SVGID_2_)" d="M28.286,56.59c-31.703,0-31.703-48.285,0-48.285C59.987,8.305,59.987,56.59,28.286,56.59z"/>
<radialGradient id="SVGID_3_" cx="26.1563" cy="26.0918" r="24.7057" gradientTransform="matrix(1.0005 0 0 1 0.2555 0.1387)" gradientUnits="userSpaceOnUse">
	<stop  offset="0" style="stop-color:#F5CFA0"/>
	<stop  offset="0.4541" style="stop-color:#F3CD9E"/>
	<stop  offset="0.6773" style="stop-color:#EEC598"/>
	<stop  offset="0.8496" style="stop-color:#E4B88C"/>
	<stop  offset="0.9958" style="stop-color:#D6A67D"/>
	<stop  offset="1" style="stop-color:#D6A57C"/>
	<a:midPointStop  offset="0" style="stop-color:#F5CFA0"/>
	<a:midPointStop  offset="0.8303" style="stop-color:#F5CFA0"/>
	<a:midPointStop  offset="1" style="stop-color:#D6A57C"/>
</radialGradient>
<path fill="url(#SVGID_3_)" d="M28.286,56.59c-16.434,0-24.35-12.976-23.744-25.473c12.466,9.6,48.849-8.533,47.338,4.496
	C50.612,46.541,42.749,56.59,28.286,56.59z"/>
<path fill="#D6A57C" d="M19.178,25.715c0,5.754-8.731,5.754-8.731,0C10.447,19.963,19.178,19.963,19.178,25.715z"/>
<path fill="#302C3B" d="M17.814,25.715c0,4-6.003,4-6.003,0C11.811,21.717,17.814,21.717,17.814,25.715z"/>
<path fill="#6E8189" d="M14.742,24.578c0,1.41-2.001,1.41-2.001,0C12.741,23.169,14.742,23.169,14.742,24.578z"/>
<path fill="#D6A57C" d="M5.384,29.309c-4.432-0.787-3.552,3.984-2.649,3.705c2.255-0.695,2.044,0.558,0.023,0.964
	c-0.652,0.132-0.92,3.185,2.832,2.117C6.033,35.969,6.583,29.521,5.384,29.309z"/>
<path fill="#D6A57C" d="M47.981,38.646c1.298-2.705,6.887,2.697,6.887,2.697S46.226,42.308,47.981,38.646z"/>
<path fill="#D6A57C" d="M30.31,52.695c3.03,0,0.485,7.305,0.485,7.305S26.21,52.695,30.31,52.695z"/>
<path fill="#D6A57C" d="M38.175,50.678c2.851-1.01,2.954,6.715,2.954,6.715S34.315,52.047,38.175,50.678z"/>
<path fill="#D6A57C" d="M44.539,46.307c2.386-1.843,4.936,5.457,4.936,5.457S41.311,48.803,44.539,46.307z"/>
<linearGradient id="SVGID_4_" gradientUnits="userSpaceOnUse" x1="47.624" y1="42.1289" x2="41.5788" y2="38.2103">
	<stop  offset="0" style="stop-color:#F5CFA0"/>
	<stop  offset="0.8364" style="stop-color:#F5CFA0;stop-opacity:0"/>
	<a:midPointStop  offset="0" style="stop-color:#F5CFA0"/>
	<a:midPointStop  offset="0.6715" style="stop-color:#F5CFA0"/>
	<a:midPointStop  offset="0.8364" style="stop-color:#F5CFA0;stop-opacity:0"/>
</linearGradient>
<path fill="url(#SVGID_4_)" d="M41.567,37.904c1.843-2.375,6.16,4.064,6.16,4.064S39.072,41.119,41.567,37.904z"/>
<linearGradient id="SVGID_5_" gradientUnits="userSpaceOnUse" x1="43.207" y1="33.1953" x2="50.624" y2="33.1953">
	<stop  offset="0.1636" style="stop-color:#F5CFA0;stop-opacity:0"/>
	<stop  offset="1" style="stop-color:#F5CFA0"/>
	<a:midPointStop  offset="0.1636" style="stop-color:#F5CFA0;stop-opacity:0"/>
	<a:midPointStop  offset="0.3285" style="stop-color:#F5CFA0;stop-opacity:0"/>
	<a:midPointStop  offset="1" style="stop-color:#F5CFA0"/>
</linearGradient>
<path fill="url(#SVGID_5_)" d="M43.235,32.826c0.414-2.963,7.389,0.525,7.389,0.525S42.675,36.842,43.235,32.826z"/>
<linearGradient id="SVGID_6_" gradientUnits="userSpaceOnUse" x1="40.7129" y1="26.6787" x2="48.1299" y2="26.6787">
	<stop  offset="0.1636" style="stop-color:#B47D56;stop-opacity:0"/>
	<stop  offset="1" style="stop-color:#B47D56"/>
	<a:midPointStop  offset="0.1636" style="stop-color:#B47D56;stop-opacity:0"/>
	<a:midPointStop  offset="0.3285" style="stop-color:#B47D56;stop-opacity:0"/>
	<a:midPointStop  offset="1" style="stop-color:#B47D56"/>
</linearGradient>
<path fill="url(#SVGID_6_)" d="M40.741,26.311c0.414-2.965,7.389,0.523,7.389,0.523S40.181,30.324,40.741,26.311z"/>
<linearGradient id="SVGID_7_" gradientUnits="userSpaceOnUse" x1="50.1748" y1="18.7544" x2="43.1725" y2="21.1302">
	<stop  offset="0" style="stop-color:#B47D56"/>
	<stop  offset="0.8364" style="stop-color:#B47D56;stop-opacity:0"/>
	<a:midPointStop  offset="0" style="stop-color:#B47D56"/>
	<a:midPointStop  offset="0.6715" style="stop-color:#B47D56"/>
	<a:midPointStop  offset="0.8364" style="stop-color:#B47D56;stop-opacity:0"/>
</linearGradient>
<path fill="url(#SVGID_7_)" d="M43.108,20.852c-0.718-2.907,7.065-2.194,7.065-2.194S44.077,24.789,43.108,20.852z"/>
<linearGradient id="SVGID_8_" gradientUnits="userSpaceOnUse" x1="42.4082" y1="48.6152" x2="37.6161" y2="43.156">
	<stop  offset="0" style="stop-color:#F5CFA0"/>
	<stop  offset="0.8364" style="stop-color:#F5CFA0;stop-opacity:0"/>
	<a:midPointStop  offset="0" style="stop-color:#F5CFA0"/>
	<a:midPointStop  offset="0.6715" style="stop-color:#F5CFA0"/>
	<a:midPointStop  offset="0.8364" style="stop-color:#F5CFA0;stop-opacity:0"/>
</linearGradient>
<path fill="url(#SVGID_8_)" d="M37.745,42.99c2.385-1.846,4.942,5.453,4.942,5.453S34.518,45.49,37.745,42.99z"/>
<linearGradient id="SVGID_9_" gradientUnits="userSpaceOnUse" x1="40.5713" y1="41.9199" x2="34.8608" y2="35.7513">
	<stop  offset="0" style="stop-color:#F5CFA0"/>
	<stop  offset="0.8364" style="stop-color:#F5CFA0;stop-opacity:0"/>
	<a:midPointStop  offset="0" style="stop-color:#F5CFA0"/>
	<a:midPointStop  offset="0.6715" style="stop-color:#F5CFA0"/>
	<a:midPointStop  offset="0.8364" style="stop-color:#F5CFA0;stop-opacity:0"/>
</linearGradient>
<path fill="url(#SVGID_9_)" d="M35.097,35.629c2.384-1.846,5.591,6.151,5.591,6.151S31.869,38.129,35.097,35.629z"/>
<linearGradient id="SVGID_10_" gradientUnits="userSpaceOnUse" x1="28.6694" y1="47.0449" x2="27.0441" y2="38.876">
	<stop  offset="0" style="stop-color:#F5CFA0"/>
	<stop  offset="0.8364" style="stop-color:#F5CFA0;stop-opacity:0"/>
	<a:midPointStop  offset="0" style="stop-color:#F5CFA0"/>
	<a:midPointStop  offset="0.6715" style="stop-color:#F5CFA0"/>
	<a:midPointStop  offset="0.8364" style="stop-color:#F5CFA0;stop-opacity:0"/>
</linearGradient>
<path fill="url(#SVGID_10_)" d="M27.299,38.742c3.015-0.305,1.494,8.307,1.494,8.307S23.222,39.158,27.299,38.742z"/>
<linearGradient id="SVGID_11_" gradientUnits="userSpaceOnUse" x1="15.9712" y1="44.6777" x2="18.9294" y2="36.8438">
	<stop  offset="0" style="stop-color:#F5CFA0"/>
	<stop  offset="0.8364" style="stop-color:#F5CFA0;stop-opacity:0"/>
	<a:midPointStop  offset="0" style="stop-color:#F5CFA0"/>
	<a:midPointStop  offset="0.6715" style="stop-color:#F5CFA0"/>
	<a:midPointStop  offset="0.8364" style="stop-color:#F5CFA0;stop-opacity:0"/>
</linearGradient>
<path fill="url(#SVGID_11_)" d="M19.149,36.892c2.752,1.25-2.926,7.913-2.926,7.913S15.422,35.202,19.149,36.892z"/>
<linearGradient id="SVGID_12_" gradientUnits="userSpaceOnUse" x1="18.1494" y1="13.1973" x2="21.4615" y2="20.8213">
	<stop  offset="0" style="stop-color:#B47D56"/>
	<stop  offset="0.8364" style="stop-color:#B47D56;stop-opacity:0"/>
	<a:midPointStop  offset="0" style="stop-color:#B47D56"/>
	<a:midPointStop  offset="0.6715" style="stop-color:#B47D56"/>
	<a:midPointStop  offset="0.8364" style="stop-color:#B47D56;stop-opacity:0"/>
</linearGradient>
<path fill="url(#SVGID_12_)" d="M21.124,20.728c-2.884,0.912-3.097-7.478-3.097-7.478S25.028,19.489,21.124,20.728z"/>
<linearGradient id="SVGID_13_" gradientUnits="userSpaceOnUse" x1="30.751" y1="11.3618" x2="29.1261" y2="19.8613">
	<stop  offset="0" style="stop-color:#B47D56"/>
	<stop  offset="0.8364" style="stop-color:#B47D56;stop-opacity:0"/>
	<a:midPointStop  offset="0" style="stop-color:#B47D56"/>
	<a:midPointStop  offset="0.6715" style="stop-color:#B47D56"/>
	<a:midPointStop  offset="0.8364" style="stop-color:#B47D56;stop-opacity:0"/>
</linearGradient>
<path fill="url(#SVGID_13_)" d="M28.917,19.859c-2.933-0.747,1.475-8.35,1.475-8.35S32.887,20.869,28.917,19.859z"/>
<linearGradient id="SVGID_14_" gradientUnits="userSpaceOnUse" x1="40.9434" y1="16.0459" x2="35.5678" y2="22.9216">
	<stop  offset="0" style="stop-color:#B47D56"/>
	<stop  offset="0.8364" style="stop-color:#B47D56;stop-opacity:0"/>
	<a:midPointStop  offset="0" style="stop-color:#B47D56"/>
	<a:midPointStop  offset="0.6715" style="stop-color:#B47D56"/>
	<a:midPointStop  offset="0.8364" style="stop-color:#B47D56;stop-opacity:0"/>
</linearGradient>
<path fill="url(#SVGID_14_)" d="M35.384,22.666c-2.142-2.115,5.429-6.524,5.429-6.524S38.286,25.529,35.384,22.666z"/>
<linearGradient id="SVGID_15_" gradientUnits="userSpaceOnUse" x1="35.4102" y1="53.375" x2="32.8687" y2="46.583">
	<stop  offset="0" style="stop-color:#F5CFA0"/>
	<stop  offset="0.8364" style="stop-color:#F5CFA0;stop-opacity:0"/>
	<a:midPointStop  offset="0" style="stop-color:#F5CFA0"/>
	<a:midPointStop  offset="0.6715" style="stop-color:#F5CFA0"/>
	<a:midPointStop  offset="0.8364" style="stop-color:#F5CFA0;stop-opacity:0"/>
</linearGradient>
<path fill="url(#SVGID_15_)" d="M33.07,46.404c2.911-0.828,2.515,6.887,2.515,6.887S29.129,47.525,33.07,46.404z"/>
<linearGradient id="SVGID_16_" gradientUnits="userSpaceOnUse" x1="26.3267" y1="54.4082" x2="26.7432" y2="47.0332">
	<stop  offset="0" style="stop-color:#F5CFA0"/>
	<stop  offset="0.8364" style="stop-color:#F5CFA0;stop-opacity:0"/>
	<a:midPointStop  offset="0" style="stop-color:#F5CFA0"/>
	<a:midPointStop  offset="0.6715" style="stop-color:#F5CFA0"/>
	<a:midPointStop  offset="0.8364" style="stop-color:#F5CFA0;stop-opacity:0"/>
</linearGradient>
<path fill="url(#SVGID_16_)" d="M26.99,47.072c3.005,0.379-0.453,7.309-0.453,7.309S22.922,46.561,26.99,47.072z"/>
<linearGradient id="SVGID_17_" gradientUnits="userSpaceOnUse" x1="20.5615" y1="45.0879" x2="17.7287" y2="51.8374">
	<stop  offset="0.1636" style="stop-color:#F5CFA0;stop-opacity:0"/>
	<stop  offset="1" style="stop-color:#F5CFA0"/>
	<a:midPointStop  offset="0.1636" style="stop-color:#F5CFA0;stop-opacity:0"/>
	<a:midPointStop  offset="0.3285" style="stop-color:#F5CFA0;stop-opacity:0"/>
	<a:midPointStop  offset="1" style="stop-color:#F5CFA0"/>
</linearGradient>
<path fill="url(#SVGID_17_)" d="M20.759,45.221c2.718,1.322-2.827,6.767-2.827,6.767S17.08,43.434,20.759,45.221z"/>
<linearGradient id="SVGID_18_" gradientUnits="userSpaceOnUse" x1="10.0142" y1="46.5" x2="14.577" y2="40.7808">
	<stop  offset="0" style="stop-color:#F5CFA0"/>
	<stop  offset="0.8364" style="stop-color:#F5CFA0;stop-opacity:0"/>
	<a:midPointStop  offset="0" style="stop-color:#F5CFA0"/>
	<a:midPointStop  offset="0.6715" style="stop-color:#F5CFA0"/>
	<a:midPointStop  offset="0.8364" style="stop-color:#F5CFA0;stop-opacity:0"/>
</linearGradient>
<path fill="url(#SVGID_18_)" d="M14.75,40.939c2.253,2.003-4.581,5.756-4.581,5.756S11.7,38.232,14.75,40.939z"/>
<path fill="#D6A57C" d="M9.583,44.077c-1.981-2.264-4.692,3.507-4.692,3.507S12.262,47.143,9.583,44.077z"/>
<path fill="#D6A57C" d="M21.416,52.514c-2.975-0.559-1.858,7.088-1.858,7.088S25.444,53.271,21.416,52.514z"/>
<path fill="#D6A57C" d="M15.189,48.518c-2.646-1.455-4.014,6.152-4.014,6.152S18.773,50.486,15.189,48.518z"/>
<linearGradient id="SVGID_19_" gradientUnits="userSpaceOnUse" x1="23.7559" y1="28.4004" x2="36.3447" y2="35.6535">
	<stop  offset="0.0727" style="stop-color:#B47B53"/>
	<stop  offset="0.2349" style="stop-color:#B88056"/>
	<stop  offset="0.434" style="stop-color:#C38F5E"/>
	<stop  offset="0.6516" style="stop-color:#D5A86B"/>
	<stop  offset="0.8364" style="stop-color:#E8C379"/>
	<a:midPointStop  offset="0.0727" style="stop-color:#B47B53"/>
	<a:midPointStop  offset="0.664" style="stop-color:#B47B53"/>
	<a:midPointStop  offset="0.8364" style="stop-color:#E8C379"/>
</linearGradient>
<path fill="url(#SVGID_19_)" d="M23.018,29.434c-10.431,2.605,14.767,17.365,13.629,2.691
	C35.927,22.881,29.319,27.859,23.018,29.434z"/>
<path fill="#B47D56" d="M23.984,28.566c3.63,1.605,7.606,1.702,7.319,1.253C30.545,28.631,23.984,28.566,23.984,28.566z"/>
<path fill="#B47D56" d="M22.426,31.113c2.154,2.712,5.528,4.158,5.549,3.648C28.04,33.409,22.426,31.113,22.426,31.113z"/>
<path fill="#B47D56" d="M22.316,29.553c3.676,2.655,9.217,4.036,8.995,3.49C30.725,31.597,22.316,29.553,22.316,29.553z"/>
<path fill="#87532F" d="M52.222,26.201c3.346,2.059,7.01,2.184,6.746,1.607C58.269,26.283,52.222,26.201,52.222,26.201z"/>
<path fill="#87532F" d="M52.292,21.49c3.928-0.047,7.092-1.902,6.561-2.247C57.445,18.329,52.292,21.49,52.292,21.49z"/>
<path fill="#87532F" d="M58.479,23.803c-1.032-1.324-6.936-0.018-6.936-0.018C55.272,25.021,58.868,24.301,58.479,23.803z"/>
</svg>
