<?xml version="1.0" encoding="utf-8"?>
<!-- Generator: Adobe Illustrator 15.0.0, SVG Export Plug-In . SVG Version: 6.00 Build 0)  -->
<!DOCTYPE svg PUBLIC "-//W3C//DTD SVG 1.1//EN" "http://www.w3.org/Graphics/SVG/1.1/DTD/svg11.dtd" [
	<!ENTITY ns_flows "http://ns.adobe.com/Flows/1.0/">
	<!ENTITY ns_extend "http://ns.adobe.com/Extensibility/1.0/">
	<!ENTITY ns_ai "http://ns.adobe.com/AdobeIllustrator/10.0/">
	<!ENTITY ns_graphs "http://ns.adobe.com/Graphs/1.0/">
]>
<svg version="1.1" id="Layer_1" xmlns:x="&ns_extend;" xmlns:i="&ns_ai;" xmlns:graph="&ns_graphs;"
	 xmlns="http://www.w3.org/2000/svg" xmlns:xlink="http://www.w3.org/1999/xlink" xmlns:a="http://ns.adobe.com/AdobeSVGViewerExtensions/3.0/"
	 x="0px" y="0px" width="64px" height="64px" viewBox="0 0 64 64" enable-background="new 0 0 64 64" xml:space="preserve">
<radialGradient id="SVGID_1_" cx="-768.2891" cy="-252.9233" r="30.8573" gradientTransform="matrix(-0.97 0 0 -1.1358 -709.2405 -264.8016)" gradientUnits="userSpaceOnUse">
	<stop  offset="0.7091" style="stop-color:#FFCC66"/>
	<stop  offset="1" style="stop-color:#FFCC66"/>
	<a:midPointStop  offset="0.7091" style="stop-color:#FFCC66"/>
	<a:midPointStop  offset="0.6582" style="stop-color:#FFCC66"/>
	<a:midPointStop  offset="1" style="stop-color:#FFCC66"/>
</radialGradient>
<path fill="url(#SVGID_1_)" d="M9.359,31.645C19.646,37.449,20.218,45.92,26.21,50.629c2.23,1.752,2.787,6.389,2.787,8.814
	c0,2.529,22.66,2.443,22.66,0c0-6.461,2.494-10.184,3.537-17.488c0.299-2.096-0.273-9.152-0.623-11.246
	c-0.697-4.166-4.482-5.541-7.125-4.189c0,0-3.426-4.23-7.732-1.203c0,0-3.404-3.963-7.756-1.152c0,0,0-12.516,0-16.996
	c0-5.963-7.746-5.963-7.746,0c0,6.59,0,22.656,0,24.561c0,2.91-3.393-4.777-11.033-4.777C9.365,26.951,7.703,30.709,9.359,31.645z"
	/>
<path fill="#D9A640" d="M32.677,7.168v15.799c2.375-1.025,5.004-0.518,7.135,1.434c2.65-1.572,5.563-0.986,7.814,1.258
	c3.02-1.156,6.918,0.533,7.656,4.934c0.334,1.998,0.951,9.188,0.625,11.463c-1.066,7.473-3.531,11.016-3.531,17.545
	c0,3.201-24.098,3.201-24.098,0c0-2.166-0.412-6.758-2.515-8.41c-6.197-4.871-6.641-13.215-16.76-18.924
	c-2.363-1.334-0.383-6.029,4.176-6.029c5.316,0,8.652,3.473,10.313,4.979V7.168C23.492,0.277,32.677,0.277,32.677,7.168z
	 M31.237,25.482V7.168c0-5-6.306-5-6.306,0v24.561c0,1.496-1.1,1.695-1.98,0.943c-1.797-1.539-4.701-5.006-9.771-5.006
	c-3.148,0-4.355,2.854-3.465,3.355c10.383,5.861,11.273,14.592,16.943,19.047c2.506,1.969,3.047,6.803,3.061,9.229
	c1.887,1.77,19.441,1.559,21.219-0.012c0.027-6.359,2.578-10.672,3.545-17.432c0.275-1.926-0.258-8.859-0.621-11.027
	c-0.713-4.256-4.619-4.781-6.607-3.404c0,0-3.242-4.684-7.66-1.145C37.591,23.84,34.591,22.783,31.237,25.482z"/>
</svg>
