<?xml version="1.0" encoding="utf-8"?>
<!-- Generator: Adobe Illustrator 15.0.0, SVG Export Plug-In . SVG Version: 6.00 Build 0)  -->
<!DOCTYPE svg PUBLIC "-//W3C//DTD SVG 1.1//EN" "http://www.w3.org/Graphics/SVG/1.1/DTD/svg11.dtd" [
	<!ENTITY ns_flows "http://ns.adobe.com/Flows/1.0/">
	<!ENTITY ns_extend "http://ns.adobe.com/Extensibility/1.0/">
	<!ENTITY ns_ai "http://ns.adobe.com/AdobeIllustrator/10.0/">
	<!ENTITY ns_graphs "http://ns.adobe.com/Graphs/1.0/">
]>
<svg version="1.1" id="Layer_1" xmlns:x="&ns_extend;" xmlns:i="&ns_ai;" xmlns:graph="&ns_graphs;"
	 xmlns="http://www.w3.org/2000/svg" xmlns:xlink="http://www.w3.org/1999/xlink" xmlns:a="http://ns.adobe.com/AdobeSVGViewerExtensions/3.0/"
	 x="0px" y="0px" width="64px" height="64px" viewBox="0 0 64 64" enable-background="new 0 0 64 64" xml:space="preserve">
<path fill="#B88A6F" d="M12.715,34.208C4.102,15.459,17.469,2,31.992,2c10.797,0,19.953,10.177,21.533,20.079
	c2.049,12.752-2.396,29.08-16.092,31.251c-9.104,1.443-11.922,13.5-23.244,6.502C5.121,54.229,18.381,46.543,12.715,34.208z"/>
<radialGradient id="SVGID_1_" cx="39.8467" cy="39.417" r="32.5351" gradientTransform="matrix(1 0 0 1.2034 0 -7.8046)" gradientUnits="userSpaceOnUse">
	<stop  offset="0.3152" style="stop-color:#8C5F44;stop-opacity:0"/>
	<stop  offset="0.8667" style="stop-color:#70513D;stop-opacity:0.9"/>
	<a:midPointStop  offset="0.3152" style="stop-color:#8C5F44;stop-opacity:0"/>
	<a:midPointStop  offset="0.5" style="stop-color:#8C5F44;stop-opacity:0"/>
	<a:midPointStop  offset="0.8667" style="stop-color:#70513D;stop-opacity:0.9"/>
</radialGradient>
<path fill="url(#SVGID_1_)" d="M33.631,45.676c0,0,6.293-7.199,13.764-7.707C55,20.971,40.164,2.734,25.984,7.574
	c-12.418,4.237-13.551,21.235-9.166,23.005c4.939,1.992,7.902,7.033,2.188,10.949c-4.051,2.777,0.828,11.98,4.232,7.949
	C26.703,45.371,29.146,44.131,33.631,45.676z"/>
<path fill="#70513D" d="M33.631,45.676c0,0-1.883-2.824-6.012-2.385c-1.264,0.137,3.41-3.75-1.836-7.416
	c-0.715-7.992-7.078-7.681-6.219-9.837c1.191-2.961,8.285-1.9,11.822,4.363c0.053-11.037-14.998-6.828-12.232-12.582
	c6.424-13.347,32.854-5.904,28.24,20.15C55,20.971,40.164,2.734,25.984,7.574c-12.418,4.237-13.551,21.235-9.166,23.005
	c4.939,1.992,7.902,7.033,2.188,10.949c-4.051,2.777,0.828,11.98,4.232,7.949C26.703,45.371,29.146,44.131,33.631,45.676z"/>
</svg>
