<?xml version="1.0" encoding="utf-8"?>
<!-- Generator: Adobe Illustrator 15.0.0, SVG Export Plug-In . SVG Version: 6.00 Build 0)  -->
<!DOCTYPE svg PUBLIC "-//W3C//DTD SVG 1.1//EN" "http://www.w3.org/Graphics/SVG/1.1/DTD/svg11.dtd" [
	<!ENTITY ns_flows "http://ns.adobe.com/Flows/1.0/">
	<!ENTITY ns_extend "http://ns.adobe.com/Extensibility/1.0/">
	<!ENTITY ns_ai "http://ns.adobe.com/AdobeIllustrator/10.0/">
	<!ENTITY ns_graphs "http://ns.adobe.com/Graphs/1.0/">
]>
<svg version="1.1" id="Layer_1" xmlns:x="&ns_extend;" xmlns:i="&ns_ai;" xmlns:graph="&ns_graphs;"
	 xmlns="http://www.w3.org/2000/svg" xmlns:xlink="http://www.w3.org/1999/xlink" xmlns:a="http://ns.adobe.com/AdobeSVGViewerExtensions/3.0/"
	 x="0px" y="0px" width="64px" height="64px" viewBox="0 0 64 64" enable-background="new 0 0 64 64" xml:space="preserve">
<radialGradient id="SVGID_1_" cx="28.3804" cy="25.752" r="26.5513" gradientTransform="matrix(0.9908 -0.1351 0.1856 1.3612 -4.5188 -5.4672)" gradientUnits="userSpaceOnUse">
	<stop  offset="0.4909" style="stop-color:#916B50"/>
	<stop  offset="0.6918" style="stop-color:#8E684E"/>
	<stop  offset="0.8216" style="stop-color:#866046"/>
	<stop  offset="0.9309" style="stop-color:#775239"/>
	<stop  offset="1" style="stop-color:#69452D"/>
	<a:midPointStop  offset="0.4909" style="stop-color:#916B50"/>
	<a:midPointStop  offset="0.7882" style="stop-color:#916B50"/>
	<a:midPointStop  offset="1" style="stop-color:#69452D"/>
</radialGradient>
<path fill="url(#SVGID_1_)" d="M53.231,36.379c-0.07-2.762-0.422-15.482-1.141-18.693c-0.492-2.207-1.402-5.744-4.01-10.158
	c-1.426-2.414-4.053-2.25-5.271-0.166c-0.854-0.848-1.979-1.893-3.564-3.424c-2.93-2.83-7.477-0.199-5.561,4.547
	c-1.852-1.105-5.526-1.668-7.167-2.418c-4.391-2.006-6.99,5.693,3.037,9.305c2.52,1.893,6.944,6.346,8.409,8.252
	c0.205,0.609,0.414,1.186,0.627,1.744c-0.352-0.182-0.664-0.316-0.938-0.4c-1.742-0.533-5.456-0.158-13.725-1.23
	c-3.568-0.461-3.801,2.07-10.285,7.816c-1.227,1.086-0.227,2.508,1.34,3.162c2.363,0.557,6.492-0.029,9.773-3.799
	c0,0,4.74,3.502,9.286,2.898c0,0,1.523,5.854,4.051,7.369c-2.225,3.744-6.272,2.773-7.651,4.959
	c-5.545,0.484-7.326-3.035-9.523-3.172c-0.482-4.707-3.51-7.322-5.936-8.256c-1.539-0.393-3.281-0.279-3.773,0.416
	c-1.307,1.848,0.701,3.711,0.783,10.271c0.061,5.061,3.248,7.045,12.658,13.818c5.641,4.057,22.641,2.105,24.78-6.607
	C50.997,46.238,53.71,40.221,53.231,36.379z"/>
<path fill="#543B28" d="M35.019,9.475c-2.907-4.682,0.92-7.57,3.705-4.998c2.297,2.125,4.898,4.598,5.814,6.256
	c4.42,8.006,5.775,12.6,5.775,12.6s-0.605-4.928-4.453-13.307c-0.955-2.082-3.68-4.314-6.094-6.627
	c-3.371-3.232-8.362-0.49-7.077,4.428C33.495,8.324,34.253,8.906,35.019,9.475z"/>
<path fill="#543B28" d="M37.823,25.471c0.611,0.193,1.217,0.398,1.82,0.617c-0.346-0.871-0.688-1.805-1.025-2.813
	c-1.533-1.992-6.2-6.67-8.709-8.557c-8.621-2.842-7.447-9.674-3.701-7.971c1.922,0.879,6.027,1.469,7.461,2.627
	c1.963,1.586,8.99,6.133,10.451,8.955c1.689,3.277,6.412,11.064,6.412,11.064s-2.971-7.674-5.078-11.752
	c-1.748-3.379-8.346-7.418-10.842-9.434c-1.799-1.455-6.137-2.074-7.782-2.824c-5.336-2.439-8.641,6.711,2.363,10.652
	c2.402,1.83,6.571,6,8.1,7.945C37.47,24.5,37.646,24.988,37.823,25.471z"/>
<path fill="#543B28" d="M53.985,37.279c-0.301-10.809-0.193-15.43-1.16-19.756c-0.578-2.58-1.564-6.09-4.1-10.377
	c-1.715-2.904-4.836-2.732-6.387-0.424c0.361,0.369,0.705,0.758,1.045,1.148c0.898-1.76,2.85-1.994,4.051,0.037
	c2.426,4.107,3.371,7.471,3.924,9.941c0.697,3.123,1.145,12.549,1.145,17.723c0,6.594-2.174,10.244-3.803,16.861
	c-1.988,8.111-18.338,9.971-23.61,6.178c-9.121-6.547-12.291-8.48-12.348-13.217c-0.076-6.006-1.934-8.393-0.918-9.83
	c0.195-0.279,1.469-0.707,2.93-0.135c4.785,1.875,5.398,7.102,5.482,8.25c2.887-0.117,3.715,3.742,10.641,3.178
	c1.158-2.295,5.727-1.076,8.243-5.934c0,0-2.656-0.721-4.52-7.941c-4.799,0.955-9.956-3.082-9.956-3.082
	c-1.459,1.834-4.914,4.912-9.428,4.098c-0.723-0.129-1.893-1.162-1.076-1.885c6.838-6.061,6.621-8.035,9.691-7.633
	c7.281,0.957,12.389,0.832,13.6,1.203c1.281,0.393,8.898,4.635,8.898,4.635s-6.656-5.516-8.459-6.068
	c-1.521-0.467-7.133-0.359-13.848-1.258c-4.045-0.541-4.418,2.275-10.879,8c-1.16,1.027-0.809,2.201-0.475,2.773
	c-0.721,0.066-1.617,0.285-2.072,0.934C9,36.953,11.163,38.891,11.241,45.412c0.064,5.346,3.324,7.492,12.971,14.416
	c5.965,4.293,23.643,2.359,25.948-7.037C51.603,46.92,54.097,41.281,53.985,37.279z M24.872,31.902
	c3.094,2.004,6.213,2.85,8.618,2.717c0.443,1.488,1.66,5.055,3.584,6.74c-2.041,2.693-5.403,2.047-7.036,4.061
	c-4.699,0.277-6.154-2.469-8.445-3.092c-0.455-3.084-1.967-5.32-3.717-6.766C19.633,35.334,22.362,34.527,24.872,31.902z"/>
</svg>
