<?xml version="1.0" encoding="utf-8"?>
<!-- Generator: Adobe Illustrator 15.0.0, SVG Export Plug-In . SVG Version: 6.00 Build 0)  -->
<!DOCTYPE svg PUBLIC "-//W3C//DTD SVG 1.1//EN" "http://www.w3.org/Graphics/SVG/1.1/DTD/svg11.dtd" [
	<!ENTITY ns_flows "http://ns.adobe.com/Flows/1.0/">
	<!ENTITY ns_extend "http://ns.adobe.com/Extensibility/1.0/">
	<!ENTITY ns_ai "http://ns.adobe.com/AdobeIllustrator/10.0/">
	<!ENTITY ns_graphs "http://ns.adobe.com/Graphs/1.0/">
]>
<svg version="1.1" id="Layer_1" xmlns:x="&ns_extend;" xmlns:i="&ns_ai;" xmlns:graph="&ns_graphs;"
	 xmlns="http://www.w3.org/2000/svg" xmlns:xlink="http://www.w3.org/1999/xlink" xmlns:a="http://ns.adobe.com/AdobeSVGViewerExtensions/3.0/"
	 x="0px" y="0px" width="64px" height="64px" viewBox="0 0 64 64" enable-background="new 0 0 64 64" xml:space="preserve">
<radialGradient id="SVGID_1_" cx="-455.8047" cy="200.7617" r="30.8573" gradientTransform="matrix(0 -0.97 1.1358 0 -186.5135 -406.1311)" gradientUnits="userSpaceOnUse">
	<stop  offset="0.7091" style="stop-color:#EBC199"/>
	<stop  offset="1" style="stop-color:#EBC199"/>
	<a:midPointStop  offset="0.7091" style="stop-color:#EBC199"/>
	<a:midPointStop  offset="0.6582" style="stop-color:#EBC199"/>
	<a:midPointStop  offset="1" style="stop-color:#EBC199"/>
</radialGradient>
<path fill="url(#SVGID_1_)" d="M32.357,9.359C26.553,19.646,18.082,20.218,13.373,26.21c-1.752,2.23-6.389,2.787-8.815,2.787
	c-2.529,0-2.443,22.66,0,22.66c6.462,0,10.185,2.494,17.489,3.537c2.096,0.299,9.152-0.273,11.246-0.623
	c4.166-0.697,5.541-4.482,4.189-7.125c0,0,4.23-3.426,1.203-7.732c0,0,3.963-3.404,1.152-7.756c0,0,12.516,0,16.994,0
	c5.963,0,5.963-7.746,0-7.746c-6.588,0-22.654,0-24.559,0c-2.91,0,4.777-3.393,4.777-11.033C37.051,9.365,33.293,7.703,32.357,9.359
	z"/>
<path fill="#B08863" d="M56.832,32.677H41.035c1.025,2.375,0.518,5.004-1.434,7.135c1.572,2.65,0.986,5.563-1.258,7.814
	c1.156,3.02-0.533,6.918-4.934,7.656c-1.998,0.334-9.188,0.951-11.463,0.625c-7.473-1.066-11.016-3.531-17.546-3.531
	c-3.201,0-3.201-24.097,0-24.097c2.167,0,6.759-0.412,8.411-2.516c4.871-6.197,13.215-6.641,18.924-16.76
	c1.334-2.363,6.029-0.383,6.029,4.176c0,5.316-3.473,8.652-4.979,10.313h24.045C63.723,23.492,63.723,32.677,56.832,32.677z
	 M38.52,31.237h18.313c5,0,5-6.306,0-6.306H32.273c-1.496,0-1.695-1.1-0.943-1.98c1.539-1.797,5.006-4.701,5.006-9.771
	c0-3.148-2.854-4.355-3.355-3.465c-5.861,10.383-14.592,11.273-19.047,16.943c-1.969,2.506-6.803,3.047-9.229,3.061
	c-1.77,1.886-1.559,19.441,0.012,21.218c6.36,0.027,10.673,2.578,17.433,3.545c1.926,0.275,8.859-0.258,11.027-0.621
	c4.256-0.713,4.781-4.619,3.404-6.607c0,0,4.684-3.242,1.145-7.66C40.162,37.591,41.219,34.591,38.52,31.237z"/>
</svg>
