<?xml version="1.0" encoding="utf-8"?>
<!-- Generator: Adobe Illustrator 15.0.0, SVG Export Plug-In . SVG Version: 6.00 Build 0)  -->
<!DOCTYPE svg PUBLIC "-//W3C//DTD SVG 1.1//EN" "http://www.w3.org/Graphics/SVG/1.1/DTD/svg11.dtd" [
	<!ENTITY ns_flows "http://ns.adobe.com/Flows/1.0/">
	<!ENTITY ns_extend "http://ns.adobe.com/Extensibility/1.0/">
	<!ENTITY ns_ai "http://ns.adobe.com/AdobeIllustrator/10.0/">
	<!ENTITY ns_graphs "http://ns.adobe.com/Graphs/1.0/">
]>
<svg version="1.1" id="Layer_1" xmlns:x="&ns_extend;" xmlns:i="&ns_ai;" xmlns:graph="&ns_graphs;"
	 xmlns="http://www.w3.org/2000/svg" xmlns:xlink="http://www.w3.org/1999/xlink" xmlns:a="http://ns.adobe.com/AdobeSVGViewerExtensions/3.0/"
	 x="0px" y="0px" width="64px" height="64px" viewBox="0 0 64 64" enable-background="new 0 0 64 64" xml:space="preserve">
<path fill="#FDCA47" d="M12.715,34.208C4.102,15.46,17.468,2,31.993,2c10.795,0,19.952,10.177,21.533,20.079
	c2.048,12.752-2.396,29.079-16.092,31.251c-9.104,1.443-11.921,13.5-23.245,6.502C5.121,54.229,18.38,46.543,12.715,34.208z"/>
<radialGradient id="SVGID_1_" cx="39.8467" cy="39.6318" r="32.5353" gradientTransform="matrix(1 0 0 1.2034 -4.720688e-004 -8.0614)" gradientUnits="userSpaceOnUse">
	<stop  offset="0.3152" style="stop-color:#D99000;stop-opacity:0"/>
	<stop  offset="0.8667" style="stop-color:#C28100;stop-opacity:0.9"/>
	<a:midPointStop  offset="0.3152" style="stop-color:#D99000;stop-opacity:0"/>
	<a:midPointStop  offset="0.5" style="stop-color:#D99000;stop-opacity:0"/>
	<a:midPointStop  offset="0.8667" style="stop-color:#C28100;stop-opacity:0.9"/>
</radialGradient>
<path fill="url(#SVGID_1_)" d="M33.63,45.677c0,0,6.294-7.199,13.764-7.708c7.605-16.997-7.229-35.235-21.409-30.395
	c-12.418,4.238-13.551,21.235-9.166,23.005c4.938,1.992,7.901,7.033,2.188,10.949c-4.051,2.777,0.827,11.98,4.232,7.949
	C26.703,45.372,29.146,44.131,33.63,45.677z"/>
<path opacity="0.25" fill="#8A1E1E" d="M33.63,45.677c0,0-1.882-2.825-6.011-2.386c-1.263,0.137,3.411-3.75-1.835-7.415
	c-0.716-7.993-7.079-7.682-6.219-9.838c1.191-2.96,8.284-1.9,11.822,4.363c0.053-11.037-14.999-6.828-12.232-12.582
	c6.424-13.348,32.853-5.904,28.239,20.149c7.605-16.997-7.229-35.234-21.409-30.395c-12.418,4.238-13.551,21.235-9.166,23.005
	c4.938,1.992,7.901,7.033,2.188,10.949c-4.051,2.777,0.827,11.98,4.232,7.949C26.703,45.372,29.146,44.131,33.63,45.677z"/>
</svg>
