<?xml version="1.0" encoding="utf-8"?>
<!-- Generator: Adobe Illustrator 15.0.0, SVG Export Plug-In . SVG Version: 6.00 Build 0)  -->
<!DOCTYPE svg PUBLIC "-//W3C//DTD SVG 1.1//EN" "http://www.w3.org/Graphics/SVG/1.1/DTD/svg11.dtd" [
	<!ENTITY ns_flows "http://ns.adobe.com/Flows/1.0/">
	<!ENTITY ns_extend "http://ns.adobe.com/Extensibility/1.0/">
	<!ENTITY ns_ai "http://ns.adobe.com/AdobeIllustrator/10.0/">
	<!ENTITY ns_graphs "http://ns.adobe.com/Graphs/1.0/">
]>
<svg version="1.1" id="Layer_1" xmlns:x="&ns_extend;" xmlns:i="&ns_ai;" xmlns:graph="&ns_graphs;"
	 xmlns="http://www.w3.org/2000/svg" xmlns:xlink="http://www.w3.org/1999/xlink" xmlns:a="http://ns.adobe.com/AdobeSVGViewerExtensions/3.0/"
	 x="0px" y="0px" width="64px" height="64px" viewBox="0 0 64 64" enable-background="new 0 0 64 64" xml:space="preserve">
<radialGradient id="SVGID_1_" cx="1325.1592" cy="-178.3823" r="28.4537" gradientTransform="matrix(-0.5725 0.6961 0.617 0.5279 915.8814 -803.0901)" gradientUnits="userSpaceOnUse">
	<stop  offset="0.4364" style="stop-color:#614A36"/>
	<stop  offset="0.652" style="stop-color:#5F4835"/>
	<stop  offset="0.748" style="stop-color:#584230"/>
	<stop  offset="0.8201" style="stop-color:#4B3828"/>
	<stop  offset="0.8801" style="stop-color:#39291C"/>
	<stop  offset="0.903" style="stop-color:#302116"/>
	<a:midPointStop  offset="0.4364" style="stop-color:#614A36"/>
	<a:midPointStop  offset="0.844" style="stop-color:#614A36"/>
	<a:midPointStop  offset="0.903" style="stop-color:#302116"/>
</radialGradient>
<path fill="url(#SVGID_1_)" d="M35.673,21.891c3.607,3.207,1.027,6.986,2.791,7.055c0.457,0.016,1.605-1.578,1.605-1.578
	c1.992-2.521,4.777-5.963,8.914-10.992c2.082-2.531,5.859,0.699,3.775,3.23c0.521-0.635,1.057-1.283,1.604-1.949
	c2.078-2.527,5.873,0.682,3.773,3.23c-0.561,0.682-1.09,1.328-1.602,1.951c2.076-2.525,5.852,0.705,3.775,3.229
	c-0.443,0.541-1.465,1.779-2.666,3.242c2.182-2.424,5.266,0.307,3.279,2.904c-2.262,2.953-6.926,8.906-9.438,11.949
	c-3.602,4.367-9.434,6.223-14.217,1.975c-10.396-9.238-1.611-14.529-4.912-23.949C31.946,21.022,33.872,20.293,35.673,21.891z"/>
<path fill="#241B13" d="M38.929,28.758c1.809,1.672,2.189,7.242-0.783,10.537c2.328-3.295,1.416-8.845-0.402-10.361L38.929,28.758z"
	/>
<path fill="#241B13" d="M31.933,22.34c3.238,9.238-5.559,14.724,5.045,24.144c6.064,5.127,12.063,1.352,14.854-2.033
	c2.555-3.094,7.207-9.037,9.447-11.96c1.654-2.162,0.23-4.688-1.906-4.57l1.283-1.563c1.83-2.223-0.191-4.969-2.414-4.887
	l0.24-0.295c2.498-2.998-1.984-6.787-4.467-3.809l-0.227,0.277c-0.318-2.287-3.344-3.754-5.15-1.559
	c-3.986,4.846-6.82,8.342-8.922,10.998c-0.48,0.668-1.039,1.361-1.275,1.406c-0.818,0.146,0.994-3.859-2.479-6.947
	C33.569,19.522,31.405,20.84,31.933,22.34z M35.382,22.237c3.527,3.135,0.58,7.064,3.064,7.162c0.465,0.016,1.131-0.578,1.986-1.766
	c2.084-2.637,4.885-6.15,8.898-10.969c1.693-2.033,4.797,0.592,3.092,2.639l-8.625,10.49l0.691,0.578l8.615-10.477v0.002
	l1.604-1.951c1.646-2,4.838,0.516,3.082,2.652l-1.117,1.361l0,0l-9.102,11.066l0.693,0.576l8.617-10.474
	c1.695-2.035,4.797,0.59,3.08,2.652l-2.666,3.24l0.002,0.002l-5.949,7.234l0.693,0.576l5.943-7.226
	c1.77-1.953,4.229,0.176,2.58,2.33c-2.236,2.919-6.879,8.851-9.426,11.937c-3.049,3.697-8.443,6.262-13.582,1.918
	c-10.223-9.082-1.346-13.968-4.777-23.753C32.558,21.401,33.86,20.95,35.382,22.237z"/>
<radialGradient id="SVGID_2_" cx="1530.5596" cy="-2.1343" r="28.4537" gradientTransform="matrix(0.5725 0.6961 -0.617 0.5279 -860.7234 -1039.1167)" gradientUnits="userSpaceOnUse">
	<stop  offset="0.4364" style="stop-color:#614A36"/>
	<stop  offset="0.652" style="stop-color:#5F4835"/>
	<stop  offset="0.748" style="stop-color:#584230"/>
	<stop  offset="0.8201" style="stop-color:#4B3828"/>
	<stop  offset="0.8801" style="stop-color:#39291C"/>
	<stop  offset="0.903" style="stop-color:#302116"/>
	<a:midPointStop  offset="0.4364" style="stop-color:#614A36"/>
	<a:midPointStop  offset="0.844" style="stop-color:#614A36"/>
	<a:midPointStop  offset="0.903" style="stop-color:#302116"/>
</radialGradient>
<path fill="url(#SVGID_2_)" d="M28.327,21.891c-3.607,3.207-1.027,6.986-2.791,7.055c-0.457,0.016-1.605-1.578-1.605-1.578
	c-1.992-2.521-4.777-5.963-8.914-10.992c-2.082-2.531-5.859,0.699-3.775,3.23c-0.521-0.635-1.057-1.283-1.604-1.949
	c-2.078-2.527-5.873,0.682-3.773,3.23c0.561,0.682,1.09,1.328,1.602,1.951c-2.076-2.525-5.852,0.705-3.775,3.229
	c0.443,0.541,1.465,1.779,2.666,3.242c-2.182-2.424-5.266,0.307-3.279,2.904c2.262,2.953,6.926,8.906,9.438,11.949
	c3.602,4.367,9.434,6.223,14.217,1.975c10.396-9.238,1.611-14.529,4.912-23.949C32.054,21.022,30.128,20.293,28.327,21.891z"/>
<path fill="#241B13" d="M25.071,28.758C23.263,30.43,22.882,36,25.854,39.295C23.526,36,24.438,30.45,26.257,28.934L25.071,28.758z"
	/>
<path fill="#241B13" d="M28.038,21.543c-3.473,3.088-1.66,7.094-2.479,6.947c-0.236-0.045-0.795-0.738-1.275-1.406
	c-2.102-2.656-4.936-6.152-8.922-10.998c-1.807-2.195-4.832-0.729-5.15,1.559l-0.227-0.277c-2.482-2.979-6.965,0.811-4.467,3.809
	l0.24,0.295c-2.223-0.082-4.244,2.664-2.414,4.887l1.283,1.563c-2.137-0.117-3.561,2.408-1.906,4.57
	c2.24,2.923,6.893,8.867,9.447,11.96c2.791,3.385,8.789,7.16,14.854,2.033c10.604-9.42,1.807-14.906,5.045-24.144
	C32.595,20.84,30.431,19.522,28.038,21.543z M31.22,22.038c-3.432,9.785,5.445,14.671-4.777,23.753
	c-5.139,4.344-10.533,1.779-13.582-1.918c-2.547-3.086-7.189-9.018-9.426-11.937c-1.648-2.154,0.811-4.283,2.58-2.33l5.943,7.226
	l0.693-0.576l-5.949-7.234l0.002-0.002l-2.666-3.24c-1.717-2.063,1.385-4.688,3.08-2.652l8.617,10.474l0.693-0.576L7.327,21.959l0,0
	L6.21,20.598c-1.756-2.137,1.436-4.652,3.082-2.652l1.604,1.951v-0.002l8.615,10.477l0.691-0.578l-8.625-10.49
	c-1.705-2.047,1.398-4.672,3.092-2.639c4.014,4.818,6.814,8.332,8.898,10.969c0.855,1.188,1.521,1.781,1.986,1.766
	c2.484-0.098-0.463-4.027,3.064-7.162C30.14,20.95,31.442,21.401,31.22,22.038z"/>
</svg>
