<?xml version="1.0" encoding="utf-8"?>
<!-- Generator: Adobe Illustrator 15.0.0, SVG Export Plug-In . SVG Version: 6.00 Build 0)  -->
<!DOCTYPE svg PUBLIC "-//W3C//DTD SVG 1.1//EN" "http://www.w3.org/Graphics/SVG/1.1/DTD/svg11.dtd" [
	<!ENTITY ns_flows "http://ns.adobe.com/Flows/1.0/">
	<!ENTITY ns_extend "http://ns.adobe.com/Extensibility/1.0/">
	<!ENTITY ns_ai "http://ns.adobe.com/AdobeIllustrator/10.0/">
	<!ENTITY ns_graphs "http://ns.adobe.com/Graphs/1.0/">
]>
<svg version="1.1" id="Layer_1" xmlns:x="&ns_extend;" xmlns:i="&ns_ai;" xmlns:graph="&ns_graphs;"
	 xmlns="http://www.w3.org/2000/svg" xmlns:xlink="http://www.w3.org/1999/xlink" xmlns:a="http://ns.adobe.com/AdobeSVGViewerExtensions/3.0/"
	 x="0px" y="0px" width="64px" height="64px" viewBox="0 0 64 64" enable-background="new 0 0 64 64" xml:space="preserve">
<linearGradient id="SVGID_1_" gradientUnits="userSpaceOnUse" x1="35.6113" y1="61.2305" x2="34.1732" y2="20.0466">
	<stop  offset="0.4303" style="stop-color:#AD1531"/>
	<stop  offset="0.5515" style="stop-color:#B11935"/>
	<stop  offset="0.6748" style="stop-color:#BC2540"/>
	<stop  offset="0.7992" style="stop-color:#CF3A52"/>
	<stop  offset="0.9235" style="stop-color:#EA566C"/>
	<stop  offset="0.9273" style="stop-color:#EB576D"/>
	<a:midPointStop  offset="0.4303" style="stop-color:#AD1531"/>
	<a:midPointStop  offset="0.7037" style="stop-color:#AD1531"/>
	<a:midPointStop  offset="0.9273" style="stop-color:#EB576D"/>
</linearGradient>
<path fill="url(#SVGID_1_)" d="M62,53.49c0,2.71-41.236,8.509-48.736,8.509c-6.055,0-5.906-24.153-3.172-40.445
	c0.305-0.507,7.005-1.531,45.666-1.439C59.946,22.294,62,37.559,62,53.49z"/>
<linearGradient id="SVGID_2_" gradientUnits="userSpaceOnUse" x1="2" y1="41.7148" x2="16.5098" y2="41.7148">
	<stop  offset="0.4303" style="stop-color:#AD1531"/>
	<stop  offset="0.5936" style="stop-color:#A91430"/>
	<stop  offset="0.7597" style="stop-color:#9D132C"/>
	<stop  offset="0.9266" style="stop-color:#881026"/>
	<stop  offset="1" style="stop-color:#7D0F23"/>
	<a:midPointStop  offset="0.4303" style="stop-color:#AD1531"/>
	<a:midPointStop  offset="0.7037" style="stop-color:#AD1531"/>
	<a:midPointStop  offset="1" style="stop-color:#7D0F23"/>
</linearGradient>
<path fill="url(#SVGID_2_)" d="M16.51,60.513c0,3.46-14.51,0.173-14.51-2.665c0-18.803,4.02-33.833,6.72-36.243
	c0.796-0.336,2.329-0.086,2.329-0.086C15.034,29.053,16.51,46.676,16.51,60.513z"/>
<path fill="#CFD8DD" d="M11.049,21.519c-0.124,0.487-2.329,0.086-2.329,0.086c4.794-2.221,47.038-1.49,47.038-1.49
	S11.271,20.64,11.049,21.519z"/>
<path fill="#99A8AE" d="M9.18,32.562c0.378-3.847,1.869-11.042,1.869-11.042L8.72,21.605c0,0-1.511,7.081-1.893,10.957H9.18z"/>
<path fill="#CFD8DD" d="M10.77,39.569l-0.658-5.625c-0.207-1.794-3.459-1.958-3.823-0.199l-1.136,5.532
	C4.513,42.393,11.142,42.733,10.77,39.569z M6.179,39.964l0.485-3.095l2.801,0.146l0.227,3.128
	C9.589,40.388,6.252,40.216,6.179,39.964z"/>
<polygon fill="#6E8189" points="9.205,35.414 6.357,35.208 8.686,30.923 9.396,31.015 "/>
<polygon fill="#CFD8DD" points="8.5,35.317 6.357,35.208 6.544,30.811 8.686,30.923 "/>
</svg>
