<?xml version="1.0" encoding="utf-8"?>
<!-- Generator: Adobe Illustrator 15.0.0, SVG Export Plug-In . SVG Version: 6.00 Build 0)  -->
<!DOCTYPE svg PUBLIC "-//W3C//DTD SVG 1.1//EN" "http://www.w3.org/Graphics/SVG/1.1/DTD/svg11.dtd" [
	<!ENTITY ns_flows "http://ns.adobe.com/Flows/1.0/">
	<!ENTITY ns_extend "http://ns.adobe.com/Extensibility/1.0/">
	<!ENTITY ns_ai "http://ns.adobe.com/AdobeIllustrator/10.0/">
	<!ENTITY ns_graphs "http://ns.adobe.com/Graphs/1.0/">
]>
<svg version="1.1" id="Layer_1" xmlns:x="&ns_extend;" xmlns:i="&ns_ai;" xmlns:graph="&ns_graphs;"
	 xmlns="http://www.w3.org/2000/svg" xmlns:xlink="http://www.w3.org/1999/xlink" xmlns:a="http://ns.adobe.com/AdobeSVGViewerExtensions/3.0/"
	 x="0px" y="0px" width="64px" height="64px" viewBox="0 0 64 64" enable-background="new 0 0 64 64" xml:space="preserve">
<path fill="#D6A480" d="M57.679,22.729c-2.918-2.81-48.439-2.811-51.357,0C3.949,25.015-0.268,62,3.509,62C6.741,62,32,62,32,62
	s25.259,0,28.491,0C64.268,62,60.051,25.015,57.679,22.729z"/>
<linearGradient id="SVGID_1_" gradientUnits="userSpaceOnUse" x1="32.0005" y1="36.0742" x2="32.0005" y2="19.9946">
	<stop  offset="0" style="stop-color:#C29474"/>
	<stop  offset="0.0896" style="stop-color:#CB9B79"/>
	<stop  offset="0.2556" style="stop-color:#D3A27E"/>
	<stop  offset="0.5091" style="stop-color:#D6A480"/>
	<a:midPointStop  offset="0" style="stop-color:#C29474"/>
	<a:midPointStop  offset="0.2143" style="stop-color:#C29474"/>
	<a:midPointStop  offset="0.5091" style="stop-color:#D6A480"/>
</linearGradient>
<path fill="url(#SVGID_1_)" d="M57.549,21.316c-0.966-0.981-16.18-1.322-25.528-1.322S7.458,20.335,6.492,21.316
	c-0.48,0.487-1.239,7.045-1.912,14.758h54.841C58.758,28.568,58.02,21.794,57.549,21.316z"/>
<linearGradient id="SVGID_2_" gradientUnits="userSpaceOnUse" x1="32.0005" y1="62" x2="32.0005" y2="36.0742">
	<stop  offset="0" style="stop-color:#B3896B"/>
	<stop  offset="0.075" style="stop-color:#BD9171"/>
	<stop  offset="0.2277" style="stop-color:#CB9C7A"/>
	<stop  offset="0.4148" style="stop-color:#D4A27F"/>
	<stop  offset="0.7333" style="stop-color:#D6A480"/>
	<stop  offset="0.8991" style="stop-color:#D4A27F"/>
	<stop  offset="0.9587" style="stop-color:#CD9D7B"/>
	<stop  offset="1" style="stop-color:#C29474"/>
	<a:midPointStop  offset="0" style="stop-color:#B3896B"/>
	<a:midPointStop  offset="0.1963" style="stop-color:#B3896B"/>
	<a:midPointStop  offset="0.7333" style="stop-color:#D6A480"/>
	<a:midPointStop  offset="0.87" style="stop-color:#D6A480"/>
	<a:midPointStop  offset="1" style="stop-color:#C29474"/>
</linearGradient>
<path fill="url(#SVGID_2_)" d="M59.44,36.074H4.56C3.544,47.72,2.722,62,3.345,62C6.596,62,32,62,32,62s25.404,0,28.655,0
	C61.278,62,60.458,47.72,59.44,36.074z"/>
<path fill="#A37968" d="M32,35.908c-6.809,0-27.234,0.066-27.234,0.066v0.268c0,0,20.426-0.068,27.234-0.068
	s27.236,0.068,27.236,0.068v-0.268C59.236,35.975,38.809,35.908,32,35.908z"/>
<path fill="#A37968" d="M57.778,21.292c-0.971-0.982-16.409-1.55-25.758-1.55s-24.788,0.568-25.757,1.55
	C5.059,22.514,2.33,62,3.365,62c0.139,0,0.322,0,0.54,0c-0.6-4.233,1.779-39.091,2.918-40.243
	c0.967-0.982,15.849-1.321,25.197-1.321s24.23,0.339,25.197,1.321c1.139,1.152,3.519,36.009,2.918,40.243c0.218,0,0.401,0,0.54,0
	C61.711,62,58.983,22.514,57.778,21.292z"/>
<linearGradient id="SVGID_3_" gradientUnits="userSpaceOnUse" x1="32.0205" y1="62" x2="32.0205" y2="62">
	<stop  offset="0" style="stop-color:#B3896B"/>
	<stop  offset="1" style="stop-color:#D6A480"/>
	<a:midPointStop  offset="0" style="stop-color:#B3896B"/>
	<a:midPointStop  offset="0.5" style="stop-color:#B3896B"/>
	<a:midPointStop  offset="1" style="stop-color:#D6A480"/>
</linearGradient>
<path fill="url(#SVGID_3_)" d="M32.021,62"/>
<path fill="#E6EBEF" d="M48.016,21.319c-0.512-0.356-2.689-0.356-3.203,0c-0.521,0.364-1.424,2.826-0.924,3.254
	c0.686,0.59,4.367,0.59,5.053,0C49.439,24.145,48.539,21.683,48.016,21.319z M44.533,24.039c0.031-0.77,0.219-1.512,0.764-2.207
	c0.525-0.159,1.709-0.159,2.236,0c0.545,0.694,0.73,1.437,0.762,2.207C46.982,24.289,45.846,24.289,44.533,24.039z"/>
<linearGradient id="SVGID_4_" gradientUnits="userSpaceOnUse" x1="46.4141" y1="32.105" x2="46.4141" y2="23.4995">
	<stop  offset="0" style="stop-color:#45332C"/>
	<stop  offset="0.086" style="stop-color:#48362F"/>
	<stop  offset="0.5541" style="stop-color:#55423C"/>
	<stop  offset="1" style="stop-color:#594640"/>
	<a:midPointStop  offset="0" style="stop-color:#45332C"/>
	<a:midPointStop  offset="0.303" style="stop-color:#45332C"/>
	<a:midPointStop  offset="1" style="stop-color:#594640"/>
</linearGradient>
<path fill="url(#SVGID_4_)" d="M49.365,31.729c-0.629,0.502-5.273,0.502-5.902,0c-0.545-0.436,0.688-7.569,1.264-8.053
	c0.281-0.235,3.096-0.235,3.375,0C48.678,24.159,49.908,31.293,49.365,31.729z"/>
<path fill="#E6EBEF" d="M15.061,24.573c0.686,0.59,4.367,0.59,5.053,0c0.498-0.428-0.404-2.89-0.926-3.254
	c-0.512-0.356-2.691-0.356-3.201,0C15.463,21.683,14.563,24.145,15.061,24.573z M15.705,24.039c0.031-0.77,0.219-1.512,0.764-2.207
	c0.525-0.159,1.711-0.159,2.236,0c0.545,0.694,0.732,1.437,0.762,2.207C18.154,24.289,17.02,24.289,15.705,24.039z"/>
<linearGradient id="SVGID_5_" gradientUnits="userSpaceOnUse" x1="17.5874" y1="32.105" x2="17.5874" y2="23.4995">
	<stop  offset="0" style="stop-color:#45332C"/>
	<stop  offset="0.086" style="stop-color:#48362F"/>
	<stop  offset="0.5541" style="stop-color:#55423C"/>
	<stop  offset="1" style="stop-color:#594640"/>
	<a:midPointStop  offset="0" style="stop-color:#45332C"/>
	<a:midPointStop  offset="0.303" style="stop-color:#45332C"/>
	<a:midPointStop  offset="1" style="stop-color:#594640"/>
</linearGradient>
<path fill="url(#SVGID_5_)" d="M14.637,31.729c0.627,0.502,5.273,0.502,5.902,0c0.543-0.436-0.689-7.569-1.266-8.053
	c-0.281-0.235-3.094-0.235-3.373,0C15.322,24.159,14.092,31.293,14.637,31.729z"/>
<linearGradient id="SVGID_6_" gradientUnits="userSpaceOnUse" x1="32.0215" y1="22.7646" x2="32.0215" y2="2.0005">
	<stop  offset="0" style="stop-color:#45332C"/>
	<stop  offset="0.086" style="stop-color:#48362F"/>
	<stop  offset="0.5541" style="stop-color:#55423C"/>
	<stop  offset="1" style="stop-color:#594640"/>
	<a:midPointStop  offset="0" style="stop-color:#45332C"/>
	<a:midPointStop  offset="0.303" style="stop-color:#45332C"/>
	<a:midPointStop  offset="1" style="stop-color:#594640"/>
</linearGradient>
<path fill="url(#SVGID_6_)" d="M15.802,18.318c0.287,2.265-0.285,2.667,0.104,4.235c0.079,0.326,3.444,0.265,3.483-0.112
	c0.324-3.059-0.652-2.13-0.975-3.963c-3.282-18.679,30.493-18.679,27.211,0c-0.322,1.833-1.299,0.904-0.974,3.963
	c0.039,0.377,3.403,0.438,3.484,0.112c0.388-1.568-0.184-1.971,0.104-4.235C51.005-3.439,13.037-3.439,15.802,18.318z"/>
<radialGradient id="SVGID_7_" cx="32.0205" cy="10.2432" r="10.8035" gradientUnits="userSpaceOnUse">
	<stop  offset="0" style="stop-color:#D6A480"/>
	<stop  offset="0.4098" style="stop-color:#D3A27E"/>
	<stop  offset="0.6786" style="stop-color:#CB9B79"/>
	<stop  offset="0.9063" style="stop-color:#BC8F70"/>
	<stop  offset="1" style="stop-color:#B3886B"/>
	<a:midPointStop  offset="0" style="stop-color:#D6A480"/>
	<a:midPointStop  offset="0.7857" style="stop-color:#D6A480"/>
	<a:midPointStop  offset="1" style="stop-color:#B3886B"/>
</radialGradient>
<path fill="url(#SVGID_7_)" d="M18.213,16.728c-0.891-16.126,28.506-16.127,27.615,0C46.854-0.564,17.186-0.564,18.213,16.728z"/>
</svg>
