<?xml version="1.0" encoding="utf-8"?>
<!-- Generator: Adobe Illustrator 15.0.0, SVG Export Plug-In . SVG Version: 6.00 Build 0)  -->
<!DOCTYPE svg PUBLIC "-//W3C//DTD SVG 1.1//EN" "http://www.w3.org/Graphics/SVG/1.1/DTD/svg11.dtd">
<svg version="1.1" id="Layer_1" xmlns="http://www.w3.org/2000/svg" xmlns:xlink="http://www.w3.org/1999/xlink" x="0px" y="0px"
	 width="64px" height="64px" viewBox="0 0 64 64" enable-background="new 0 0 64 64" xml:space="preserve">
<rect x="17.107" y="2" fill="#014D87" width="28.758" height="3.995"/>
<path fill="#006DAE" d="M45.865,6.602c-4.519,5.592-23.674,5.084-28.758,0V5.576h28.758V6.602z"/>
<path fill="#006099" d="M48.945,41c-1.027-5-2.055-25-2.055-25l-1.025-9.398H17.107L16.08,16c0,0-1.057,20.278-1.774,23.46
	C13,45.246,13,62,13,62h10.27l2.607-23.447L31.486,22h1.027l5.135,16l3.08,24H51C51,62,49.559,43.982,48.945,41z"/>
<path fill="#014D87" d="M38.946,38.032c-1.058-4.973-2.479-7.442-4.111-16.237c-0.22-1.182-5.554-1.476-5.688-0.281
	c-0.62,5.545-4.066,13.825-4.625,17.039C20.743,60.3,25.46,60.444,13,62h10.27l2.607-23.447L31.486,22h1.027l5.135,16l3.08,24H51
	C41.397,61.031,43.507,59.476,38.946,38.032z"/>
<path fill="#014D87" d="M39.048,6.602h6.817l0.892,8.172C40.95,14.773,39.04,9.688,39.048,6.602z"/>
<path fill="#006DAE" d="M39.048,6.602h-1.399C37.641,9.688,41.084,16,46.891,16l-0.134-1.227
	C42.384,13.966,39.623,9.567,39.048,6.602z"/>
<path fill="#014D87" d="M16.215,14.773l0.893-8.172h6.816C23.931,9.688,22.023,14.773,16.215,14.773z"/>
<path fill="#006DAE" d="M29.945,15.646c0,3.479,3.082,3.479,3.082,3.479V6.602h-3.082V15.646z"/>
<rect x="43.811" y="2" fill="#006DAE" width="2.055" height="4"/>
<rect x="37.594" y="2" fill="#006DAE" width="2.055" height="4"/>
<rect x="23.324" y="2" fill="#006DAE" width="2.054" height="4"/>
<rect x="29.945" y="2" fill="#006DAE" width="1" height="4"/>
<rect x="17.107" y="2" fill="#006DAE" width="2.055" height="4"/>
<circle fill="#CFD8DD" cx="32.486" cy="3.813" r="1"/>
<path fill="#006DAE" d="M37.228,24.004c1.301,8.205,3.07,14.416,3.732,16.354c0.496,1.456,6.844,0.305,6.828-0.469
	c-0.104-4.75-1.451-13.587-1.451-18.655C46.337,19.358,36.985,22.48,37.228,24.004z"/>
<path fill="#006DAE" d="M41.532,43.183c0.734,2.458,6.439,2.666,6.789-0.271C48.544,41.053,41.146,41.892,41.532,43.183z"/>
<path fill="#006DAE" d="M36.856,21.758c-1.504,1.727,2.988-0.716,8.35-2.792C47.571,18.05,41.647,16.258,36.856,21.758z"/>
<path fill="#006DAE" d="M36.196,19.664c-1.238,1.672,2.633-0.858,7.309-3.117C45.569,15.55,40.144,14.337,36.196,19.664z"/>
<path fill="#006DAE" d="M36.874,17.233c-0.623,1.624,1.404-0.762,3.879-2.85C41.845,13.462,38.854,12.06,36.874,17.233z"/>
<path fill="#006DAE" d="M37.173,14.5c-0.344,1.309,0.824-0.594,2.26-2.247C40.065,11.523,38.271,10.333,37.173,14.5z"/>
<path fill="#006DAE" d="M43.563,46.38c-1.375,0.116,0.906,3.223,4.736-0.043C49.501,45.312,46.687,46.116,43.563,46.38z"/>
<path fill="#006DAE" d="M25.794,24.004c-1.309,8.205-3.084,14.416-3.748,16.354c-0.5,1.456-6.875,0.305-6.857-0.469
	c0.102-4.75,1.457-13.587,1.457-18.655C16.646,19.358,26.036,22.48,25.794,24.004z"/>
<path fill="#006DAE" d="M21.47,43.183c-0.736,2.458-6.465,2.666-6.818-0.271C14.431,41.053,21.858,41.892,21.47,43.183z"/>
<path fill="#006DAE" d="M26.165,21.758c1.51,1.727-3-0.716-8.385-2.792C15.405,18.05,21.354,16.258,26.165,21.758z"/>
<path fill="#006DAE" d="M26.829,19.664c1.244,1.672-2.645-0.858-7.34-3.117C17.417,15.55,22.864,14.337,26.829,19.664z"/>
<path fill="#006DAE" d="M26.149,17.233c0.623,1.624-1.412-0.762-3.896-2.85C21.157,13.462,24.159,12.06,26.149,17.233z"/>
<path fill="#006DAE" d="M25.847,14.5c0.346,1.309-0.826-0.594-2.268-2.247C22.942,11.523,24.747,10.333,25.847,14.5z"/>
<path fill="#006DAE" d="M19.431,46.38c1.381,0.116-0.91,3.223-4.756-0.043C13.468,45.312,16.294,46.116,19.431,46.38z"/>
<path fill="#006DAE" d="M23.924,6.602h1.399C25.331,9.688,21.888,16,16.081,16l0.134-1.227C20.588,13.966,23.349,9.567,23.924,6.602
	z"/>
</svg>
