<?xml version="1.0" encoding="utf-8"?>
<!-- Generator: Adobe Illustrator 15.0.0, SVG Export Plug-In . SVG Version: 6.00 Build 0)  -->
<!DOCTYPE svg PUBLIC "-//W3C//DTD SVG 1.1//EN" "http://www.w3.org/Graphics/SVG/1.1/DTD/svg11.dtd" [
	<!ENTITY ns_flows "http://ns.adobe.com/Flows/1.0/">
	<!ENTITY ns_extend "http://ns.adobe.com/Extensibility/1.0/">
	<!ENTITY ns_ai "http://ns.adobe.com/AdobeIllustrator/10.0/">
	<!ENTITY ns_graphs "http://ns.adobe.com/Graphs/1.0/">
]>
<svg version="1.1" id="Layer_1" xmlns:x="&ns_extend;" xmlns:i="&ns_ai;" xmlns:graph="&ns_graphs;"
	 xmlns="http://www.w3.org/2000/svg" xmlns:xlink="http://www.w3.org/1999/xlink" xmlns:a="http://ns.adobe.com/AdobeSVGViewerExtensions/3.0/"
	 x="0px" y="0px" width="64px" height="64px" viewBox="0 0 64 64" enable-background="new 0 0 64 64" xml:space="preserve">
<path fill="#473834" d="M49.977,29.691c9.389-3.755,8.449-12.673,8.449-12.673H32.143c0,0-0.939,8.918,8.447,12.673
	c0,0,1.879,0.47,4.693,0.47C48.102,30.161,49.977,29.691,49.977,29.691z"/>
<linearGradient id="SVGID_1_" gradientUnits="userSpaceOnUse" x1="168.418" y1="30.1592" x2="168.418" y2="2.0702" gradientTransform="matrix(1 0 0 1 -113.9844 0)">
	<stop  offset="0.05" style="stop-color:#473834"/>
	<stop  offset="0.2266" style="stop-color:#594640"/>
	<stop  offset="0.5197" style="stop-color:#715950"/>
	<stop  offset="0.7" style="stop-color:#7A6056"/>
	<a:midPointStop  offset="0.05" style="stop-color:#473834"/>
	<a:midPointStop  offset="0.4" style="stop-color:#473834"/>
	<a:midPointStop  offset="0.7" style="stop-color:#7A6056"/>
</linearGradient>
<path fill="url(#SVGID_1_)" d="M54.775,17.971c0.959,4.043,0.453,8.046-4.799,11.721c5.635-0.938,8.913-6.258,8.913-10.339
	L54.775,17.971z"/>
<linearGradient id="SVGID_2_" gradientUnits="userSpaceOnUse" x1="1630.6953" y1="30.1592" x2="1630.6953" y2="2.0702" gradientTransform="matrix(-1 0 0 1 1666.8301 0)">
	<stop  offset="0.05" style="stop-color:#473834"/>
	<stop  offset="0.2266" style="stop-color:#594640"/>
	<stop  offset="0.5197" style="stop-color:#715950"/>
	<stop  offset="0.7" style="stop-color:#7A6056"/>
	<a:midPointStop  offset="0.05" style="stop-color:#473834"/>
	<a:midPointStop  offset="0.4" style="stop-color:#473834"/>
	<a:midPointStop  offset="0.7" style="stop-color:#7A6056"/>
</linearGradient>
<path fill="url(#SVGID_2_)" d="M35.795,17.971c-0.961,4.043-0.453,8.046,4.797,11.721c-5.633-0.938-8.913-6.258-8.913-10.339
	L35.795,17.971z"/>
<path fill="#E6B045" d="M33.045,31.726c1.269-1.635,2.631-2.087,2.631-2.087L35.13,40.084c0,0-4.029,2.893-7.596,4.174l0.662-7.174
	C28.196,37.084,30.961,34.414,33.045,31.726z"/>
<path fill="#D63E93" d="M54.911,29.634l-3.593-1.316l-12.071,0.011l-3.571,1.311c0,0-0.891,7.854-0.545,10.445
	c0.56,4.193,1.226,3.635,1.274,6.872C36.442,49.365,34.143,62,34.143,62h22.265c0,0-2.301-12.614-2.265-15
	c0.049-3.23,0.715-2.711,1.276-6.916C55.765,37.492,54.911,29.634,54.911,29.634z"/>
<path fill="#FFCC66" d="M39.247,28.328c0,3.939,5.153,6.305,6.026,6.305c0.878,0,6.045-2.367,6.045-6.315l-1.889-0.665h-8.271
	L39.247,28.328z"/>
<path fill="#FFCC66" d="M40.815,27.79c0,3.826,8.917,3.826,8.917,0c0-1.302,0-4.233,0-4.233h-8.917
	C40.815,23.556,40.815,26.488,40.815,27.79z"/>
<path fill="#E6B045" d="M51.516,22.91c-0.73,3.576-4.59,7.178-6.232,7.178s-5.499-3.602-6.23-7.178
	C38.701,21.191,51.866,21.191,51.516,22.91z"/>
<path fill="#FFCC66" d="M45.285,3.408c-6.813,0-10.092,5.547-9.684,12.68c0.086,1.433,0.484,3.501,0.977,5.272
	c1.021,3.684,6.41,7.393,8.707,7.393c2.295,0,7.684-3.709,8.707-7.393c0.492-1.771,0.891-3.84,0.975-5.272
	C55.375,8.955,52.098,3.408,45.285,3.408z"/>
<path fill="#D47706" d="M45.285,22.963c1.596-0.702,1.607-0.028,4.072,0.137c-0.924,1.051-1.605,2.4-4.072,2.4
	c-2.83,0-3.309-1.533-4.076-2.4C43.676,22.935,43.688,22.261,45.285,22.963z"/>
<path fill="#FFFFFF" d="M48.617,23.361c-1.607,1.674-5.078,1.652-6.666,0.001C44.428,23.628,46.141,23.628,48.617,23.361z"/>
<path fill="#966F42" d="M38.047,13.714c1.479-0.882,4.133-0.99,5.184-0.389c0.223,0.121,0.162,0.759-0.029,0.679
	c-1.498-0.623-3.781-0.654-5.188,0.066C37.826,14.166,37.822,13.843,38.047,13.714z"/>
<path fill="#966F42" d="M52.521,13.714c-1.479-0.882-4.133-0.99-5.186-0.389c-0.223,0.121-0.162,0.759,0.031,0.679
	c1.498-0.623,3.777-0.655,5.186,0.066C52.742,14.166,52.746,13.843,52.521,13.714z"/>
<path fill="#DB9D3A" d="M43.752,20.699c0.164-0.113,0.543,0.062,1.533,0.062c0.988,0,1.367-0.175,1.531-0.062
	c0.193,0.137-0.115,0.754-1.531,0.754S43.557,20.837,43.752,20.699z"/>
<path id="Path_835_" fill="#FFFFFF" d="M43.77,16.39c0.057,0.45-0.248,0.985-1.096,1.386c-0.539,0.255-1.658,0.555-3.129-0.066
	c-0.658-0.277-1.301-1.143-1.244-1.621C39.1,14.584,43.023,14.364,43.77,16.39z"/>
<linearGradient id="Oval_1_" gradientUnits="userSpaceOnUse" x1="-404.8169" y1="479.54" x2="-404.8169" y2="480.0088" gradientTransform="matrix(6.5701 0 0 -6.5701 2700.7961 3168.5281)">
	<stop  offset="0" style="stop-color:#A6694A"/>
	<stop  offset="1" style="stop-color:#4F2A1E"/>
	<a:midPointStop  offset="0" style="stop-color:#A6694A"/>
	<a:midPointStop  offset="0.5" style="stop-color:#A6694A"/>
	<a:midPointStop  offset="1" style="stop-color:#4F2A1E"/>
</linearGradient>
<circle id="Oval_114_" fill="url(#Oval_1_)" cx="41.105" cy="16.359" r="1.542"/>
<path id="Path_834_" fill="#1A1626" d="M40.336,16.331c0,1.066,1.543,1.066,1.543,0C41.879,15.341,40.336,15.341,40.336,16.331z"/>
<path id="Path_833_" fill="#AB968C" d="M40.102,15.899c0,0.447,0.646,0.447,0.646,0C40.748,15.485,40.102,15.485,40.102,15.899z"/>
<path id="Path_832_" fill="#45332C" d="M43.777,16.449c-0.627-2.012-4.895-1.715-5.477-0.361
	C38.516,14.354,43.242,13.897,43.777,16.449z"/>
<path id="Path_831_" fill="#FFFFFF" d="M46.801,16.39c-0.059,0.45,0.248,0.985,1.094,1.386c0.539,0.255,1.658,0.555,3.129-0.066
	c0.66-0.277,1.303-1.143,1.244-1.621C51.471,14.584,47.547,14.364,46.801,16.39z"/>
<linearGradient id="Oval_2_" gradientUnits="userSpaceOnUse" x1="-406.249" y1="479.54" x2="-406.249" y2="480.0088" gradientTransform="matrix(6.5701 0 0 -6.5701 2718.5266 3168.5281)">
	<stop  offset="0" style="stop-color:#A6694A"/>
	<stop  offset="1" style="stop-color:#4F2A1E"/>
	<a:midPointStop  offset="0" style="stop-color:#A6694A"/>
	<a:midPointStop  offset="0.5" style="stop-color:#A6694A"/>
	<a:midPointStop  offset="1" style="stop-color:#4F2A1E"/>
</linearGradient>
<circle id="Oval_113_" fill="url(#Oval_2_)" cx="49.428" cy="16.359" r="1.542"/>
<path id="Path_830_" fill="#1A1626" d="M48.658,16.331c0,1.066,1.541,1.066,1.541,0C50.199,15.341,48.658,15.341,48.658,16.331z"/>
<path id="Path_829_" fill="#AB968C" d="M48.424,15.899c0,0.447,0.646,0.447,0.646,0C49.07,15.485,48.424,15.485,48.424,15.899z"/>
<path id="Path_828_" fill="#45332C" d="M46.793,16.449c0.625-2.011,4.891-1.723,5.475-0.361
	C52.053,14.354,47.326,13.897,46.793,16.449z"/>
<linearGradient id="SVGID_3_" gradientUnits="userSpaceOnUse" x1="159.2686" y1="30.1592" x2="159.2686" y2="2.0699" gradientTransform="matrix(1 0 0 1 -113.9844 0)">
	<stop  offset="0.05" style="stop-color:#473834"/>
	<stop  offset="0.2266" style="stop-color:#594640"/>
	<stop  offset="0.5197" style="stop-color:#715950"/>
	<stop  offset="0.7" style="stop-color:#7A6056"/>
	<a:midPointStop  offset="0.05" style="stop-color:#473834"/>
	<a:midPointStop  offset="0.4" style="stop-color:#473834"/>
	<a:midPointStop  offset="0.7" style="stop-color:#7A6056"/>
</linearGradient>
<path fill="url(#SVGID_3_)" d="M52.951,4.404c0.777-1.11-5.811-3.455-12.031-1.871c-6.213,1.423-9.241,10.731-9.241,16.819
	c0.537,0.441,3.485-0.658,4.116-1.382c0.258-1.065,0.662-2.162,1.041-3.298c4.666-2.701,9.947-3.338,13.611-6.571
	c-0.469,1.408,2.016,3.185,3.285,6.571c0.412,1.099,0.781,2.199,1.043,3.298c1.035,0.953,2.677,1.403,4.114,1.382
	C58.89,14.204,55.441,3.686,52.951,4.404z"/>
<path fill="#473834" d="M32.322,18.427c4.299-5.723,18.221-5.335,20.629-14.022C48.277,11.695,33.498,12.926,32.322,18.427z"/>
<path fill="#473834" d="M23.408,29.691c9.389-3.755,8.449-12.673,8.449-12.673H5.574c0,0-0.939,8.918,8.447,12.673
	c0,0,1.879,0.47,4.693,0.47C21.533,30.161,23.408,29.691,23.408,29.691z"/>
<linearGradient id="SVGID_4_" gradientUnits="userSpaceOnUse" x1="27.8647" y1="30.1592" x2="27.8647" y2="2.0702">
	<stop  offset="0.05" style="stop-color:#473834"/>
	<stop  offset="0.2266" style="stop-color:#594640"/>
	<stop  offset="0.5197" style="stop-color:#715950"/>
	<stop  offset="0.7" style="stop-color:#7A6056"/>
	<a:midPointStop  offset="0.05" style="stop-color:#473834"/>
	<a:midPointStop  offset="0.4" style="stop-color:#473834"/>
	<a:midPointStop  offset="0.7" style="stop-color:#7A6056"/>
</linearGradient>
<path fill="url(#SVGID_4_)" d="M28.207,17.971c0.959,4.043,0.453,8.046-4.799,11.721c5.635-0.938,8.913-6.258,8.913-10.339
	L28.207,17.971z"/>
<linearGradient id="SVGID_5_" gradientUnits="userSpaceOnUse" x1="1771.248" y1="30.1592" x2="1771.248" y2="2.0702" gradientTransform="matrix(-1 0 0 1 1780.8145 0)">
	<stop  offset="0.05" style="stop-color:#473834"/>
	<stop  offset="0.2266" style="stop-color:#594640"/>
	<stop  offset="0.5197" style="stop-color:#715950"/>
	<stop  offset="0.7" style="stop-color:#7A6056"/>
	<a:midPointStop  offset="0.05" style="stop-color:#473834"/>
	<a:midPointStop  offset="0.4" style="stop-color:#473834"/>
	<a:midPointStop  offset="0.7" style="stop-color:#7A6056"/>
</linearGradient>
<path fill="url(#SVGID_5_)" d="M9.227,17.971c-0.961,4.043-0.453,8.046,4.797,11.721C8.391,28.753,5.11,23.434,5.11,19.353
	L9.227,17.971z"/>
<path fill="#FFCC66" d="M30.955,31.726c-1.269-1.635-2.631-2.087-2.631-2.087l0.546,10.445c0,0,3.635,2.893,7.201,4.174
	l-0.995-7.081C35.076,37.177,33.039,34.414,30.955,31.726z"/>
<path fill="#8E3ED6" d="M9.089,29.634l3.593-1.316l12.071,0.011l3.571,1.311c0,0,0.891,7.854,0.545,10.445
	c-0.56,4.193-1.226,3.635-1.274,6.872C27.558,49.365,29.857,62,29.857,62H7.593c0,0,2.301-12.614,2.265-15
	c-0.049-3.23-0.715-2.711-1.276-6.916C8.235,37.492,9.089,29.634,9.089,29.634z"/>
<path fill="#FFCC66" d="M24.753,28.328c0,3.939-5.153,6.305-6.026,6.305c-0.878,0-6.045-2.367-6.045-6.315l1.889-0.665h8.271
	L24.753,28.328z"/>
<path fill="#FFCC66" d="M23.185,27.79c0,3.826-8.917,3.826-8.917,0c0-1.302,0-4.233,0-4.233h8.917
	C23.185,23.556,23.185,26.488,23.185,27.79z"/>
<path fill="#E6B045" d="M12.484,22.91c0.73,3.576,4.59,7.178,6.232,7.178s5.499-3.602,6.23-7.178
	C25.299,21.191,12.134,21.191,12.484,22.91z"/>
<path fill="#FFCC66" d="M18.717,3.408c-6.813,0-10.092,5.547-9.684,12.68c0.086,1.433,0.484,3.501,0.977,5.272
	c1.021,3.684,6.41,7.393,8.707,7.393c2.295,0,7.684-3.709,8.707-7.393c0.492-1.771,0.891-3.84,0.975-5.272
	C28.807,8.955,25.529,3.408,18.717,3.408z"/>
<path fill="#D47706" d="M18.715,22.963c-1.596-0.702-1.607-0.028-4.072,0.137c0.924,1.051,1.605,2.4,4.072,2.4
	c2.83,0,3.309-1.533,4.076-2.4C20.324,22.935,20.313,22.261,18.715,22.963z"/>
<path fill="#FFFFFF" d="M15.383,23.361c1.607,1.674,5.078,1.652,6.666,0.001C19.572,23.628,17.859,23.628,15.383,23.361z"/>
<path fill="#966F42" d="M25.953,13.714c-1.479-0.882-4.133-0.99-5.184-0.389c-0.223,0.121-0.162,0.759,0.029,0.679
	c1.498-0.623,3.781-0.654,5.188,0.066C26.174,14.166,26.178,13.843,25.953,13.714z"/>
<path fill="#966F42" d="M11.479,13.714c1.479-0.882,4.133-0.99,5.186-0.389c0.223,0.121,0.162,0.759-0.031,0.679
	c-1.498-0.623-3.777-0.655-5.186,0.066C11.258,14.166,11.254,13.843,11.479,13.714z"/>
<path fill="#DB9D3A" d="M20.248,20.699c-0.164-0.113-0.543,0.062-1.533,0.062c-0.988,0-1.367-0.175-1.531-0.062
	c-0.193,0.137,0.115,0.754,1.531,0.754S20.443,20.837,20.248,20.699z"/>
<path id="Path_827_" fill="#FFFFFF" d="M17.201,16.39c0.057,0.45-0.248,0.985-1.096,1.386c-0.539,0.255-1.658,0.555-3.129-0.066
	c-0.658-0.277-1.301-1.143-1.244-1.621C12.531,14.584,16.455,14.364,17.201,16.39z"/>
<linearGradient id="Oval_3_" gradientUnits="userSpaceOnUse" x1="-426.21" y1="479.54" x2="-426.21" y2="480.0088" gradientTransform="matrix(6.5701 0 0 -6.5701 2814.7805 3168.5281)">
	<stop  offset="0" style="stop-color:#A6694A"/>
	<stop  offset="1" style="stop-color:#4F2A1E"/>
	<a:midPointStop  offset="0" style="stop-color:#A6694A"/>
	<a:midPointStop  offset="0.5" style="stop-color:#A6694A"/>
	<a:midPointStop  offset="1" style="stop-color:#4F2A1E"/>
</linearGradient>
<circle id="Oval_112_" fill="url(#Oval_3_)" cx="14.537" cy="16.359" r="1.542"/>
<path id="Path_826_" fill="#1A1626" d="M13.768,16.331c0,1.066,1.543,1.066,1.543,0C15.311,15.341,13.768,15.341,13.768,16.331z"/>
<path id="Path_825_" fill="#AB968C" d="M13.533,15.899c0,0.447,0.646,0.447,0.646,0C14.18,15.485,13.533,15.485,13.533,15.899z"/>
<path id="Path_824_" fill="#45332C" d="M17.209,16.449c-0.627-2.012-4.895-1.715-5.477-0.361
	C11.947,14.354,16.674,13.897,17.209,16.449z"/>
<path id="Path_823_" fill="#FFFFFF" d="M20.232,16.39c-0.059,0.45,0.248,0.985,1.094,1.386c0.539,0.255,1.658,0.555,3.129-0.066
	c0.66-0.277,1.303-1.143,1.244-1.621C24.902,14.584,20.979,14.364,20.232,16.39z"/>
<linearGradient id="Oval_4_" gradientUnits="userSpaceOnUse" x1="-427.6421" y1="479.54" x2="-427.6421" y2="480.0088" gradientTransform="matrix(6.5701 0 0 -6.5701 2832.511 3168.5281)">
	<stop  offset="0" style="stop-color:#A6694A"/>
	<stop  offset="1" style="stop-color:#4F2A1E"/>
	<a:midPointStop  offset="0" style="stop-color:#A6694A"/>
	<a:midPointStop  offset="0.5" style="stop-color:#A6694A"/>
	<a:midPointStop  offset="1" style="stop-color:#4F2A1E"/>
</linearGradient>
<circle id="Oval_111_" fill="url(#Oval_4_)" cx="22.859" cy="16.359" r="1.542"/>
<path id="Path_822_" fill="#1A1626" d="M22.09,16.331c0,1.066,1.541,1.066,1.541,0C23.631,15.341,22.09,15.341,22.09,16.331z"/>
<path id="Path_821_" fill="#AB968C" d="M21.855,15.899c0,0.447,0.646,0.447,0.646,0C22.502,15.485,21.855,15.485,21.855,15.899z"/>
<path id="Path_820_" fill="#45332C" d="M20.225,16.449c0.625-2.011,4.891-1.723,5.475-0.361
	C25.484,14.354,20.758,13.897,20.225,16.449z"/>
<linearGradient id="SVGID_6_" gradientUnits="userSpaceOnUse" x1="18.7158" y1="30.1592" x2="18.7158" y2="2.0699">
	<stop  offset="0.05" style="stop-color:#473834"/>
	<stop  offset="0.2266" style="stop-color:#594640"/>
	<stop  offset="0.5197" style="stop-color:#715950"/>
	<stop  offset="0.7" style="stop-color:#7A6056"/>
	<a:midPointStop  offset="0.05" style="stop-color:#473834"/>
	<a:midPointStop  offset="0.4" style="stop-color:#473834"/>
	<a:midPointStop  offset="0.7" style="stop-color:#7A6056"/>
</linearGradient>
<path fill="url(#SVGID_6_)" d="M26.383,4.404c0.777-1.11-5.811-3.455-12.031-1.871C8.139,3.956,5.11,13.265,5.11,19.353
	c0.537,0.441,3.485-0.658,4.116-1.382c0.258-1.065,0.662-2.162,1.041-3.298c4.666-2.701,9.947-3.338,13.611-6.571
	c-0.469,1.408,2.016,3.185,3.285,6.571c0.412,1.099,0.781,2.199,1.043,3.298c1.035,0.953,2.677,1.403,4.114,1.382
	C32.321,14.204,28.873,3.686,26.383,4.404z"/>
<path fill="#473834" d="M5.754,18.427c4.299-5.723,18.221-5.335,20.629-14.022C21.709,11.695,6.93,12.926,5.754,18.427z"/>
<path fill="#8FBFFF" d="M51.814,55.146c-0.85-1.092-4.963-2.426-4.963-2.426l-7.791,0.013c0,0-4.09,1.331-4.938,2.415
	C32.73,56.932,32.221,62,32.221,62h21.473C53.693,62,53.205,56.931,51.814,55.146z"/>
<path fill="#73B0FF" d="M39.061,52.733c0,3.241,7.791,3.229,7.791-0.013l-0.781-0.273h-6.195L39.061,52.733z"/>
<path fill="#E6B045" d="M39.617,52.537c0,2.539,6.68,2.539,6.68,0c0-0.862,0-2.807,0-2.807h-6.68
	C39.617,49.73,39.617,51.675,39.617,52.537z"/>
<path fill="#73B0FF" d="M36.088,62h-0.299C35.789,58.319,36.088,58.319,36.088,62z"/>
<path fill="#73B0FF" d="M50.123,62h-0.299C49.824,58.319,50.123,58.319,50.123,62z"/>
<path id="Path_587_" fill="#FFCC66" d="M34.398,42.107c1.066,0.131,1.834,3.73,1.166,4.68c-0.096,0.133-0.645,0.346-1.051-0.494
	c-0.227-0.463-0.877-0.852-1.078-1.809C33.178,43.258,33.34,41.979,34.398,42.107z"/>
<path id="Path_586_" fill="#DB9D3A" d="M34.428,42.799c0.277,0.087,0.582,0.516,0.746,1.225c-0.973-0.211-0.729,1.422,0.115,1.453
	c-0.008,0.164-0.018,0.334-0.039,0.511c-0.406-0.596-0.82-0.356-1.229-1.243C33.652,43.944,33.74,42.58,34.428,42.799z"/>
<path id="Path_585_" fill="#FFCC66" d="M51.514,42.107c-1.064,0.131-1.834,3.73-1.164,4.68c0.094,0.133,0.643,0.346,1.051-0.494
	c0.225-0.463,0.875-0.852,1.076-1.809C52.736,43.258,52.574,41.979,51.514,42.107z"/>
<path id="Path_584_" fill="#DB9D3A" d="M50.74,44.021c0.164-0.709,0.467-1.136,0.744-1.223c0.689-0.219,0.777,1.146,0.408,1.945
	c-0.41,0.887-0.822,0.647-1.23,1.243c-0.02-0.178-0.031-0.347-0.037-0.512C51.459,45.436,51.699,43.823,50.74,44.021z"/>
<path fill="#FFCC66" d="M42.957,32.857c-5.822,0-8.627,4.404-8.275,10.529c0.07,1.232,0.834,4.047,1.557,5.488
	c1.273,2.545,4.6,4.443,6.719,4.443c2.117,0,5.447-1.898,6.719-4.443c0.723-1.441,1.486-4.256,1.557-5.488
	C51.584,37.262,48.779,32.857,42.957,32.857z"/>
<path id="Path_583_" fill="#DB9D3A" d="M44.314,46.828c-0.145-0.101-0.482,0.055-1.357,0.055c-0.877,0-1.215-0.155-1.359-0.055
	c-0.17,0.121,0.104,0.668,1.359,0.668C44.211,47.496,44.486,46.949,44.314,46.828z"/>
<path id="Path_582_" fill="#DB9D3A" d="M42.957,48.779c-1.313-0.386-3.258,0.184-3.258,0.184c0.74,0.808,1.283,1.854,3.258,1.854
	c2.262,0,2.646-1.188,3.258-1.854C46.215,48.963,44.268,48.393,42.957,48.779z"/>
<path id="Path_581_" fill="#FFFFFF" d="M40.188,49.1c1.375,1.154,4.154,1.162,5.539,0C44.26,49.162,41.664,49.163,40.188,49.1z"/>
<path id="Path_580_" fill="#FFFFFF" d="M41.701,43.832c0.047,0.373-0.205,0.816-0.908,1.147c-0.445,0.212-1.373,0.46-2.592-0.054
	c-0.545-0.23-1.078-0.948-1.029-1.345C37.832,42.336,41.082,42.153,41.701,43.832z"/>
<linearGradient id="Oval_5_" gradientUnits="userSpaceOnUse" x1="-422.4111" y1="475.4023" x2="-422.4111" y2="475.791" gradientTransform="matrix(6.5701 0 0 -6.5701 2814.7805 3168.5281)">
	<stop  offset="0" style="stop-color:#A6694A"/>
	<stop  offset="1" style="stop-color:#4F2A1E"/>
	<a:midPointStop  offset="0" style="stop-color:#A6694A"/>
	<a:midPointStop  offset="0.5" style="stop-color:#A6694A"/>
	<a:midPointStop  offset="1" style="stop-color:#4F2A1E"/>
</linearGradient>
<circle id="Oval_70_" fill="url(#Oval_5_)" cx="39.496" cy="43.807" r="1.277"/>
<path id="Path_579_" fill="#1A1626" d="M38.857,43.783c0,0.884,1.277,0.884,1.277,0C40.135,42.963,38.857,42.963,38.857,43.783z"/>
<path id="Path_578_" fill="#AB968C" d="M38.664,43.426c0,0.37,0.535,0.37,0.535,0C39.199,43.082,38.664,43.082,38.664,43.426z"/>
<path id="Path_577_" fill="#DB9D3A" d="M41.707,43.881c-0.518-1.667-4.055-1.422-4.535-0.3
	C37.35,42.146,41.266,41.768,41.707,43.881z"/>
<path id="Path_576_" fill="#FFFFFF" d="M44.213,43.832c-0.049,0.373,0.205,0.816,0.906,1.147c0.445,0.212,1.373,0.46,2.594-0.054
	c0.545-0.23,1.078-0.948,1.029-1.345C48.082,42.336,44.83,42.153,44.213,43.832z"/>
<linearGradient id="Oval_6_" gradientUnits="userSpaceOnUse" x1="-424.061" y1="475.4023" x2="-424.061" y2="475.791" gradientTransform="matrix(6.5701 0 0 -6.5701 2832.511 3168.5281)">
	<stop  offset="0" style="stop-color:#A6694A"/>
	<stop  offset="1" style="stop-color:#4F2A1E"/>
	<a:midPointStop  offset="0" style="stop-color:#A6694A"/>
	<a:midPointStop  offset="0.5" style="stop-color:#A6694A"/>
	<a:midPointStop  offset="1" style="stop-color:#4F2A1E"/>
</linearGradient>
<circle id="Oval_69_" fill="url(#Oval_6_)" cx="46.389" cy="43.807" r="1.277"/>
<path id="Path_575_" fill="#1A1626" d="M45.752,43.783c0,0.884,1.277,0.884,1.277,0C47.029,42.963,45.752,42.963,45.752,43.783z"/>
<path id="Path_574_" fill="#AB968C" d="M45.557,43.426c0,0.37,0.535,0.37,0.535,0C46.092,43.082,45.557,43.082,45.557,43.426z"/>
<path id="Path_573_" fill="#DB9D3A" d="M44.207,43.881c0.518-1.666,4.051-1.428,4.535-0.3
	C48.563,42.146,44.648,41.768,44.207,43.881z"/>
<path id="Path_572_" fill="#DB9D3A" d="M48.824,41.842c-1.098-0.693-3.311-0.895-4.178-0.54c-0.186,0.067-0.125,0.647,0.029,0.605
	c1.195-0.357,3.051-0.224,4.078,0.356C48.893,42.339,48.992,41.938,48.824,41.842z"/>
<path id="Path_522_" fill="#DB9D3A" d="M37.088,41.842c1.1-0.693,3.311-0.895,4.178-0.54c0.186,0.067,0.125,0.647-0.029,0.605
	c-1.195-0.357-3.049-0.224-4.08,0.356C37.02,42.339,36.92,41.938,37.088,41.842z"/>
<linearGradient id="SVGID_7_" gradientUnits="userSpaceOnUse" x1="42.9561" y1="45.4199" x2="42.9561" y2="31.6548">
	<stop  offset="0" style="stop-color:#473834"/>
	<stop  offset="0.2717" style="stop-color:#594640"/>
	<stop  offset="0.7226" style="stop-color:#715950"/>
	<stop  offset="1" style="stop-color:#7A6056"/>
	<a:midPointStop  offset="0" style="stop-color:#473834"/>
	<a:midPointStop  offset="0.4" style="stop-color:#473834"/>
	<a:midPointStop  offset="1" style="stop-color:#7A6056"/>
</linearGradient>
<path fill="url(#SVGID_7_)" d="M42.947,32.457c-0.525,0-1.012,0.033-1.48,0.082c0.195-0.203,0.438-0.361,0.773-0.424
	c-0.689-0.187-1.467-0.101-2.072,0.348c-0.127-0.217-0.18-0.495-0.053-0.809c-0.846,0.514-1.006,1.133-1.006,1.133
	c-0.242-0.392-0.254-0.904-0.254-0.904s-0.912,0.644-0.779,1.586c-0.814-0.355-1.498,0.058-1.498,0.058s0.4,0.171,0.592,0.53
	c-4.555,3.307-2.996,10.657-2.131,11.363c0,0,0.256-5.492,2.574-7.132c-0.125,1.036-0.402,1.769-0.402,1.769
	s2.275-0.359,4.279-1.639c-0.232,1.145-0.859,1.965-0.859,1.965s4.137-0.577,5.365-2.525c0,0,0.811,1.706,2.816,2.935
	c0,0,0.125-1.278-0.15-2.184c1.967,1.935,2.197,6.804,2.197,6.804C52.01,44.381,54.262,32.457,42.947,32.457z"/>
<path fill="#473834" d="M48.525,37.75l0.203,1.131c0,0,1.676,2.195,2.131,6.531C51.07,40.725,48.525,37.75,48.525,37.75z"/>
<path fill="#473834" d="M48.299,37.327c0,0,1.229,1.53,0.514,3.465C48.904,39.277,48.299,37.327,48.299,37.327z"/>
<path fill="#473834" d="M46.27,36.788c0.273,3.928-5.686,3.597-5.639,3.595C40.631,40.383,45.75,39.402,46.27,36.788z"/>
<path fill="#473834" d="M42.682,37.139c-1.119,3.168-5.229,2.895-5.471,2.918C37.211,40.057,40.885,38.993,42.682,37.139z"/>
<path fill="#473834" d="M37.955,37.879c-2.676,3.135-2.916,7.541-2.916,7.541S34.332,40.688,37.955,37.879z"/>
<path fill="#8FEAFF" d="M29.902,55.146c-0.85-1.092-4.963-2.426-4.963-2.426l-7.793,0.013c0,0-4.088,1.331-4.936,2.415
	C10.818,56.932,10.307,62,10.307,62h21.473C31.779,62,31.293,56.931,29.902,55.146z"/>
<path fill="#67DBF5" d="M17.146,52.733c0,3.241,7.793,3.229,7.793-0.013l-0.781-0.273h-6.195L17.146,52.733z"/>
<path fill="#E6B045" d="M17.705,52.537c0,2.539,6.678,2.539,6.678,0c0-0.862,0-2.807,0-2.807h-6.678
	C17.705,49.73,17.705,51.675,17.705,52.537z"/>
<path fill="#67DBF5" d="M14.176,62h-0.299C13.877,58.319,14.176,58.319,14.176,62z"/>
<path fill="#67DBF5" d="M28.211,62H27.91C27.91,58.319,28.211,58.319,28.211,62z"/>
<path id="Path_521_" fill="#FFCC66" d="M12.484,42.107c1.066,0.131,1.834,3.73,1.166,4.68c-0.096,0.133-0.645,0.346-1.051-0.494
	c-0.227-0.463-0.877-0.852-1.078-1.809C11.264,43.258,11.426,41.979,12.484,42.107z"/>
<path id="Path_520_" fill="#DB9D3A" d="M12.514,42.799c0.277,0.087,0.582,0.516,0.746,1.225c-0.973-0.211-0.729,1.422,0.115,1.453
	c-0.008,0.164-0.018,0.334-0.039,0.511c-0.406-0.596-0.82-0.356-1.229-1.243C11.738,43.944,11.826,42.58,12.514,42.799z"/>
<path id="Path_519_" fill="#FFCC66" d="M29.6,42.107c-1.064,0.131-1.834,3.73-1.164,4.68c0.094,0.133,0.643,0.346,1.051-0.494
	c0.225-0.463,0.875-0.852,1.076-1.809C30.822,43.258,30.66,41.979,29.6,42.107z"/>
<path id="Path_518_" fill="#DB9D3A" d="M28.826,44.021c0.164-0.709,0.467-1.136,0.744-1.223c0.689-0.219,0.777,1.146,0.408,1.945
	c-0.41,0.887-0.822,0.647-1.23,1.243c-0.02-0.178-0.031-0.347-0.037-0.512C29.545,45.436,29.785,43.823,28.826,44.021z"/>
<path fill="#FFCC66" d="M21.043,32.857c-5.822,0-8.627,4.404-8.275,10.529c0.07,1.232,0.834,4.047,1.557,5.488
	c1.273,2.545,4.6,4.443,6.719,4.443c2.117,0,5.447-1.898,6.719-4.443c0.723-1.441,1.486-4.256,1.557-5.488
	C29.67,37.262,26.865,32.857,21.043,32.857z"/>
<path id="Path_509_" fill="#DB9D3A" d="M22.4,46.828c-0.145-0.101-0.482,0.055-1.357,0.055c-0.877,0-1.215-0.155-1.359-0.055
	c-0.17,0.121,0.104,0.668,1.359,0.668C22.297,47.496,22.572,46.949,22.4,46.828z"/>
<path id="Path_507_" fill="#DB9D3A" d="M21.043,48.779c-1.313-0.386-3.258,0.184-3.258,0.184c0.74,0.808,1.283,1.854,3.258,1.854
	c2.262,0,2.646-1.188,3.258-1.854C24.301,48.963,22.354,48.393,21.043,48.779z"/>
<path id="Path_502_" fill="#FFFFFF" d="M18.273,49.1c1.375,1.154,4.154,1.162,5.539,0C22.346,49.162,19.75,49.163,18.273,49.1z"/>
<path id="Path_501_" fill="#FFFFFF" d="M19.787,43.832c0.047,0.373-0.205,0.816-0.908,1.147c-0.445,0.212-1.373,0.46-2.592-0.054
	c-0.545-0.23-1.078-0.948-1.029-1.345C15.918,42.336,19.168,42.153,19.787,43.832z"/>
<linearGradient id="Oval_7_" gradientUnits="userSpaceOnUse" x1="-425.7466" y1="475.4023" x2="-425.7466" y2="475.791" gradientTransform="matrix(6.5701 0 0 -6.5701 2814.7805 3168.5281)">
	<stop  offset="0" style="stop-color:#A6694A"/>
	<stop  offset="1" style="stop-color:#4F2A1E"/>
	<a:midPointStop  offset="0" style="stop-color:#A6694A"/>
	<a:midPointStop  offset="0.5" style="stop-color:#A6694A"/>
	<a:midPointStop  offset="1" style="stop-color:#4F2A1E"/>
</linearGradient>
<circle id="Oval_50_" fill="url(#Oval_7_)" cx="17.582" cy="43.807" r="1.277"/>
<path id="Path_500_" fill="#1A1626" d="M16.943,43.783c0,0.884,1.277,0.884,1.277,0C18.221,42.963,16.943,42.963,16.943,43.783z"/>
<path id="Path_499_" fill="#AB968C" d="M16.75,43.426c0,0.37,0.535,0.37,0.535,0C17.285,43.082,16.75,43.082,16.75,43.426z"/>
<path id="Path_498_" fill="#DB9D3A" d="M19.793,43.881c-0.518-1.667-4.055-1.422-4.535-0.3
	C15.436,42.146,19.352,41.768,19.793,43.881z"/>
<path id="Path_497_" fill="#FFFFFF" d="M22.299,43.832c-0.049,0.373,0.205,0.816,0.906,1.147c0.445,0.212,1.373,0.46,2.594-0.054
	c0.545-0.23,1.078-0.948,1.029-1.345C26.168,42.336,22.916,42.153,22.299,43.832z"/>
<linearGradient id="Oval_8_" gradientUnits="userSpaceOnUse" x1="-427.396" y1="475.4023" x2="-427.396" y2="475.791" gradientTransform="matrix(6.5701 0 0 -6.5701 2832.511 3168.5281)">
	<stop  offset="0" style="stop-color:#A6694A"/>
	<stop  offset="1" style="stop-color:#4F2A1E"/>
	<a:midPointStop  offset="0" style="stop-color:#A6694A"/>
	<a:midPointStop  offset="0.5" style="stop-color:#A6694A"/>
	<a:midPointStop  offset="1" style="stop-color:#4F2A1E"/>
</linearGradient>
<circle id="Oval_49_" fill="url(#Oval_8_)" cx="24.475" cy="43.807" r="1.277"/>
<path id="Path_496_" fill="#1A1626" d="M23.838,43.783c0,0.884,1.277,0.884,1.277,0C25.115,42.963,23.838,42.963,23.838,43.783z"/>
<path id="Path_495_" fill="#AB968C" d="M23.643,43.426c0,0.37,0.535,0.37,0.535,0C24.178,43.082,23.643,43.082,23.643,43.426z"/>
<path id="Path_494_" fill="#DB9D3A" d="M22.293,43.881c0.518-1.666,4.051-1.428,4.535-0.3
	C26.648,42.146,22.734,41.768,22.293,43.881z"/>
<path id="Path_493_" fill="#DB9D3A" d="M26.91,41.842c-1.098-0.693-3.311-0.895-4.178-0.54c-0.186,0.067-0.125,0.647,0.029,0.605
	c1.195-0.357,3.051-0.224,4.078,0.356C26.979,42.339,27.078,41.938,26.91,41.842z"/>
<path id="Path_492_" fill="#DB9D3A" d="M15.174,41.842c1.1-0.693,3.311-0.895,4.178-0.54c0.186,0.067,0.125,0.647-0.029,0.605
	c-1.195-0.357-3.049-0.224-4.08,0.356C15.105,42.339,15.006,41.938,15.174,41.842z"/>
<linearGradient id="SVGID_8_" gradientUnits="userSpaceOnUse" x1="21.0425" y1="45.4199" x2="21.0425" y2="31.6548">
	<stop  offset="0" style="stop-color:#473834"/>
	<stop  offset="0.2717" style="stop-color:#594640"/>
	<stop  offset="0.7226" style="stop-color:#715950"/>
	<stop  offset="1" style="stop-color:#7A6056"/>
	<a:midPointStop  offset="0" style="stop-color:#473834"/>
	<a:midPointStop  offset="0.4" style="stop-color:#473834"/>
	<a:midPointStop  offset="1" style="stop-color:#7A6056"/>
</linearGradient>
<path fill="url(#SVGID_8_)" d="M21.033,32.457c-0.525,0-1.012,0.033-1.48,0.082c0.195-0.203,0.438-0.361,0.773-0.424
	c-0.689-0.187-1.467-0.101-2.072,0.348c-0.127-0.217-0.18-0.495-0.053-0.809c-0.846,0.514-1.006,1.133-1.006,1.133
	c-0.242-0.392-0.254-0.904-0.254-0.904s-0.912,0.644-0.779,1.586c-0.814-0.355-1.498,0.058-1.498,0.058s0.4,0.171,0.592,0.53
	c-4.555,3.307-2.996,10.657-2.131,11.363c0,0,0.256-5.492,2.574-7.132c-0.125,1.036-0.402,1.769-0.402,1.769
	s2.275-0.359,4.279-1.639c-0.232,1.145-0.859,1.965-0.859,1.965s4.137-0.577,5.365-2.525c0,0,0.811,1.706,2.816,2.935
	c0,0,0.125-1.278-0.15-2.184c1.967,1.935,2.197,6.804,2.197,6.804C30.096,44.381,32.348,32.457,21.033,32.457z"/>
<path fill="#473834" d="M26.611,37.75l0.203,1.131c0,0,1.676,2.195,2.131,6.531C29.156,40.725,26.611,37.75,26.611,37.75z"/>
<path fill="#473834" d="M26.385,37.327c0,0,1.229,1.53,0.514,3.465C26.99,39.277,26.385,37.327,26.385,37.327z"/>
<path fill="#473834" d="M24.355,36.788c0.273,3.928-5.686,3.597-5.639,3.595C18.717,40.383,23.836,39.402,24.355,36.788z"/>
<path fill="#473834" d="M20.768,37.139c-1.119,3.168-5.229,2.895-5.471,2.918C15.297,40.057,18.971,38.993,20.768,37.139z"/>
<path fill="#473834" d="M16.041,37.879c-2.676,3.135-2.916,7.541-2.916,7.541S12.418,40.688,16.041,37.879z"/>
<path fill="#FFCC66" d="M49.938,53.971c0,0-0.313-0.122-1.094-0.481c1-0.97,2.191,0.085,3.293-1.403
	c1.996-2.696,3.066-11.254,3.066-11.254s0.5-4.468-0.292-11.198c0,0,1.386,0.422,2.628,2.089C58.89,33.536,59,40.239,59,43.92
	c0,3.444-2.734,7.882-4.056,10.12c-0.628,1.063-1.52,2.763-1.759,3.019c-2.085,2.207-4.224,2.02-4.797,1.45
	C46.099,58.267,50.905,55.153,49.938,53.971z"/>
<path fill="#DB9D3A" d="M50.555,56.686c0,0-1.209,1.523-2.166,1.823C49.507,58.435,50.555,56.686,50.555,56.686z"/>
<path fill="#DB9D3A" d="M51.866,56.733c0,0-1.505,1.84-2.462,2.141C50.522,58.799,51.866,56.733,51.866,56.733z"/>
<path fill="#DB9D3A" d="M52.595,56.977c0,0-1.047,1.461-2.005,1.762C51.709,58.664,52.595,56.977,52.595,56.977z"/>
<path fill="#FFCC66" d="M14.063,53.971c0,0,0.313-0.122,1.094-0.481c-1-0.97-2.191,0.085-3.293-1.403
	C9.867,49.39,8.797,40.832,8.797,40.832s-0.5-4.468,0.292-11.198c0,0-1.386,0.422-2.628,2.089C5.11,33.536,5,40.239,5,43.92
	c0,3.444,2.734,7.882,4.056,10.12c0.628,1.063,1.52,2.763,1.759,3.019c2.085,2.207,4.224,2.02,4.797,1.45
	C17.901,58.267,13.095,55.153,14.063,53.971z"/>
<path fill="#DB9D3A" d="M13.445,56.686c0,0,1.209,1.523,2.166,1.823C14.493,58.435,13.445,56.686,13.445,56.686z"/>
<path fill="#DB9D3A" d="M12.134,56.733c0,0,1.505,1.84,2.462,2.141C13.478,58.799,12.134,56.733,12.134,56.733z"/>
<path fill="#DB9D3A" d="M11.405,56.977c0,0,1.047,1.461,2.005,1.762C12.291,58.664,11.405,56.977,11.405,56.977z"/>
</svg>
