<?xml version="1.0" encoding="utf-8"?>
<!-- Generator: Adobe Illustrator 15.0.0, SVG Export Plug-In . SVG Version: 6.00 Build 0)  -->
<!DOCTYPE svg PUBLIC "-//W3C//DTD SVG 1.1//EN" "http://www.w3.org/Graphics/SVG/1.1/DTD/svg11.dtd" [
	<!ENTITY ns_flows "http://ns.adobe.com/Flows/1.0/">
	<!ENTITY ns_extend "http://ns.adobe.com/Extensibility/1.0/">
	<!ENTITY ns_ai "http://ns.adobe.com/AdobeIllustrator/10.0/">
	<!ENTITY ns_graphs "http://ns.adobe.com/Graphs/1.0/">
]>
<svg version="1.1" id="Layer_1" xmlns:x="&ns_extend;" xmlns:i="&ns_ai;" xmlns:graph="&ns_graphs;"
	 xmlns="http://www.w3.org/2000/svg" xmlns:xlink="http://www.w3.org/1999/xlink" xmlns:a="http://ns.adobe.com/AdobeSVGViewerExtensions/3.0/"
	 x="0px" y="0px" width="64px" height="64px" viewBox="0 0 64 64" enable-background="new 0 0 64 64" xml:space="preserve">
<path fill="#614A36" d="M13.359,28.035c-0.734-1.438-2.797-1.438-2.797-1.438c-0.984,3.016-1.541,8.407-1.551,9.145
	c-0.008,0.719-0.682,2.729-0.471,3.223c0.896,2.094,0.811,2.357,1.91,3.135c0.832,0.59,0.57-0.166,0.193-0.564
	c-0.584-0.617-0.955-2.037-0.189-2.168c0.098,1.582,1.145,1.881,1.066,1.295c-0.201-1.514,0.002-2.432-0.682-3.246
	c-0.275-0.328-0.295-2.396,0.975-5.188C12.586,30.531,13.031,29.41,13.359,28.035z"/>
<path fill="#614A36" d="M27.086,28.085c0.551-1.518,2.598-1.773,2.598-1.773c1.352,2.869,2.572,8.151,2.674,8.881
	c0.1,0.711,1.018,2.623,0.869,3.139c-0.629,2.189-0.387,1.314-1.373,2.23c-0.309,0.289-0.424-0.016-0.393-0.418
	c0,0-0.273-0.885-0.484-0.895c0.051,0.395-0.824,0.178-0.609-0.375c0.133-0.344-0.094-1.109,0.387-1.793
	c0.246-0.352-0.006-2.416-1.611-5.025C28.166,30.468,27.584,29.41,27.086,28.085z"/>
<path fill="#302C3B" d="M25.609,33.957H14.393c-0.979,5.166-0.256,12.303-1.488,24.896c-0.156,1.586,5.654,1.596,5.604,0
	c-0.242-7.346,0.445-12.938,0.938-17.416c0.037-0.334,1.072-0.334,1.109,0c0.492,4.479,1.182,10.07,0.939,17.416
	c-0.053,1.596,5.76,1.586,5.604,0C25.865,46.26,26.588,39.123,25.609,33.957z"/>
<path fill="#3AB0A2" d="M27.037,19.847c-0.906-1.135-4.635-2.271-4.635-2.271H17.6c0,0-3.73,1.137-4.635,2.271
	c-0.793,0.992-2.32,5.816-2.658,6.982c0.045,0.055,1.227,0.111,3.287,1.701c0,0,0.641-1.934,0.891-2.447
	c0.588,3.814-0.297,7.45-0.092,7.874c0.584,1.213,10.625,1.227,11.217,0c0.205-0.424-0.68-4.059-0.094-7.874
	c0.252,0.514,1.4,2.525,1.4,2.525c1.848-1.834,3.012-2.039,3.049-2.098C29.486,25.396,27.83,20.839,27.037,19.847z"/>
<path fill="#6E8189" d="M12.646,61.602c0.184,0.453,5.762,0.637,5.971-0.084C19.426,58.725,11.736,59.373,12.646,61.602z"/>
<path fill="#99A8AE" d="M12.727,61.053c0.041,0.393,5.834,0.598,5.896,0C19.119,56.301,12.273,56.697,12.727,61.053z"/>
<path fill="#1A1626" d="M17.883,58.227c-0.645-1.102-3.703-1.096-4.344,0c-0.117,0.191-0.316,0.715,0.457,0.285
	c-0.768,0.602-0.768,1.127,0,0.678c-0.773,0.578-0.574,0.943-0.457,0.896c1.176-0.582,3.166-0.582,4.344,0
	c0.119,0.047,0.316-0.318-0.457-0.896c0.768,0.449,0.768-0.076,0-0.678C18.199,58.941,18.002,58.418,17.883,58.227z"/>
<path fill="#6E8189" d="M27.355,61.602c-0.184,0.453-5.762,0.637-5.971-0.084C20.576,58.725,28.266,59.373,27.355,61.602z"/>
<path fill="#99A8AE" d="M27.275,61.053c-0.041,0.393-5.834,0.598-5.896,0C20.883,56.301,27.727,56.697,27.275,61.053z"/>
<path fill="#1A1626" d="M22.119,58.227c0.645-1.102,3.701-1.096,4.344,0c0.117,0.191,0.316,0.715-0.457,0.285
	c0.768,0.602,0.768,1.127,0,0.678c0.773,0.578,0.574,0.943,0.457,0.896c-1.178-0.582-3.166-0.582-4.344,0
	c-0.119,0.047-0.316-0.318,0.457-0.896c-0.768,0.449-0.768-0.076,0-0.678C21.803,58.941,22,58.418,22.119,58.227z"/>
<path fill="#2B998D" d="M16.719,17.875c0,2.926,6.563,2.92,6.563-0.006l-0.59-0.211h-5.346L16.719,17.875z"/>
<path fill="#302116" d="M17.25,17.906c0,2.176,5.5,2.176,5.5,0c0-0.74,0-2.406,0-2.406h-5.5C17.25,15.5,17.25,17.166,17.25,17.906z"
	/>
<path id="Path_976_" fill="#614A36" d="M26.131,9.244c-0.949,0.113-1.635,3.293-1.037,4.131c0.084,0.117,0.572,0.305,0.934-0.436
	c0.203-0.41,0.781-0.752,0.961-1.598C27.219,10.257,27.074,9.128,26.131,9.244z"/>
<path id="Path_975_" fill="#614A36" d="M13.871,9.244c0.949,0.113,1.635,3.293,1.037,4.131c-0.084,0.117-0.572,0.305-0.936-0.436
	c-0.201-0.41-0.779-0.752-0.959-1.598C12.783,10.257,12.928,9.128,13.871,9.244z"/>
<path id="Path_974_" fill="#302116" d="M26.105,9.853c-0.248,0.078-0.518,0.455-0.664,1.08c0.865-0.186,0.648,1.258-0.104,1.285
	c0.006,0.143,0.016,0.293,0.033,0.449c0.363-0.525,0.73-0.314,1.096-1.098C26.797,10.865,26.717,9.66,26.105,9.853z"/>
<path id="Path_973_" fill="#302116" d="M14.561,10.931c-0.146-0.623-0.416-1.002-0.662-1.078c-0.613-0.193-0.693,1.012-0.363,1.717
	c0.363,0.783,0.732,0.572,1.096,1.098c0.018-0.156,0.027-0.307,0.033-0.451C13.92,12.181,13.707,10.757,14.561,10.931z"/>
<path id="Path_972_" fill="#614A36" d="M20,3.132c-4.109,0-6.092,3.111-5.844,7.438c0.051,0.869,0.59,3.709,1.098,4.727
	c0.523,1.041,2.266,2.648,3.334,2.98c0.674,0.209,2.152,0.209,2.826,0c1.068-0.332,2.813-1.939,3.332-2.98
	c0.51-1.018,1.049-3.855,1.1-4.727C26.094,6.244,24.113,3.132,20,3.132z"/>
<path id="Path_971_" fill="#403229" d="M24.467,8.925c-0.939-0.498-2.738-0.521-3.41-0.174c-0.143,0.066-0.047,0.537,0.072,0.494
	c0.936-0.371,2.441-0.379,3.316,0.031C24.563,9.33,24.611,8.996,24.467,8.925z"/>
<path id="Path_970_" fill="#403229" d="M15.533,8.925c0.941-0.498,2.74-0.521,3.41-0.174c0.145,0.066,0.049,0.537-0.072,0.494
	c-0.936-0.371-2.439-0.379-3.316,0.031C15.439,9.33,15.393,8.996,15.533,8.925z"/>
<path id="Path_969_" fill="#302116" d="M21.111,13.246c-0.117-0.082-0.395,0.043-1.111,0.043c-0.715,0-0.992-0.125-1.109-0.043
	c-0.141,0.1,0.084,0.547,1.109,0.547C21.027,13.792,21.252,13.345,21.111,13.246z"/>
<path id="Path_968_" fill="#302116" d="M20,14.941c-0.924-0.273-2.295,0.129-2.295,0.129c0.521,0.568,0.904,1.305,2.295,1.305
	c1.594,0,1.865-0.836,2.297-1.305C22.297,15.07,20.924,14.666,20,14.941z"/>
<path id="Path_967_" fill="#FFFFFF" d="M18.051,15.166c0.969,0.813,2.926,0.818,3.9,0C20.92,15.208,19.09,15.21,18.051,15.166z"/>
<path id="Path_948_" fill="#FFFFFF" d="M19.086,10.623c0.035,0.271-0.15,0.594-0.662,0.836c-0.324,0.154-1,0.336-1.887-0.039
	c-0.4-0.168-0.787-0.691-0.752-0.979C16.266,9.533,18.635,9.4,19.086,10.623z"/>
<linearGradient id="Oval_1_" gradientUnits="userSpaceOnUse" x1="-425.7627" y1="480.5088" x2="-425.7627" y2="480.792" gradientTransform="matrix(6.5701 0 0 -6.5701 2814.7805 3168.5281)">
	<stop  offset="0" style="stop-color:#A6694A"/>
	<stop  offset="1" style="stop-color:#4F2A1E"/>
	<a:midPointStop  offset="0" style="stop-color:#A6694A"/>
	<a:midPointStop  offset="0.5" style="stop-color:#A6694A"/>
	<a:midPointStop  offset="1" style="stop-color:#4F2A1E"/>
</linearGradient>
<circle id="Oval_126_" fill="url(#Oval_1_)" cx="17.479" cy="10.604" r="0.931"/>
<path id="Path_947_" fill="#1A1626" d="M17.014,10.587c0,0.643,0.93,0.643,0.93,0C17.943,9.99,17.014,9.99,17.014,10.587z"/>
<path id="Path_946_" fill="#AB968C" d="M16.871,10.328c0,0.27,0.391,0.27,0.391,0C17.262,10.076,16.871,10.076,16.871,10.328z"/>
<path id="Path_945_" fill="#302116" d="M19.09,10.66c-0.377-1.215-2.955-1.037-3.305-0.219C15.916,9.394,18.768,9.119,19.09,10.66z"
	/>
<path id="Path_944_" fill="#FFFFFF" d="M20.916,10.623c-0.035,0.271,0.148,0.594,0.66,0.836c0.326,0.154,1,0.336,1.889-0.039
	c0.4-0.168,0.787-0.691,0.752-0.979C23.736,9.533,21.367,9.4,20.916,10.623z"/>
<linearGradient id="Oval_2_" gradientUnits="userSpaceOnUse" x1="-427.6968" y1="480.5088" x2="-427.6968" y2="480.792" gradientTransform="matrix(6.5701 0 0 -6.5701 2832.511 3168.5281)">
	<stop  offset="0" style="stop-color:#A6694A"/>
	<stop  offset="1" style="stop-color:#4F2A1E"/>
	<a:midPointStop  offset="0" style="stop-color:#A6694A"/>
	<a:midPointStop  offset="0.5" style="stop-color:#A6694A"/>
	<a:midPointStop  offset="1" style="stop-color:#4F2A1E"/>
</linearGradient>
<circle id="Oval_125_" fill="url(#Oval_2_)" cx="22.502" cy="10.604" r="0.931"/>
<path id="Path_943_" fill="#1A1626" d="M22.037,10.587c0,0.643,0.932,0.643,0.932,0C22.969,9.99,22.037,9.99,22.037,10.587z"/>
<path id="Path_942_" fill="#AB968C" d="M21.895,10.328c0,0.27,0.391,0.27,0.391,0C22.285,10.076,21.895,10.076,21.895,10.328z"/>
<path id="Path_941_" fill="#302116" d="M20.912,10.66c0.377-1.215,2.953-1.041,3.305-0.219C24.086,9.394,21.234,9.119,20.912,10.66z
	"/>
<path fill="#403A33" d="M25.252,4.164C24.352,2.947,22.705,2,20,2c-2.703,0-4.35,0.947-5.25,2.164
	C13.477,5.888,26.525,5.888,25.252,4.164z"/>
<linearGradient id="SVGID_1_" gradientUnits="userSpaceOnUse" x1="20.001" y1="11.6343" x2="20.001" y2="3.6484">
	<stop  offset="0.5" style="stop-color:#1A1714"/>
	<stop  offset="0.6722" style="stop-color:#231F1B"/>
	<stop  offset="0.9523" style="stop-color:#3B362F"/>
	<stop  offset="1" style="stop-color:#403A33"/>
	<a:midPointStop  offset="0.5" style="stop-color:#1A1714"/>
	<a:midPointStop  offset="0.6" style="stop-color:#1A1714"/>
	<a:midPointStop  offset="1" style="stop-color:#403A33"/>
</linearGradient>
<path fill="url(#SVGID_1_)" d="M25.252,4.164c-0.9-1.217-2.547,0.104-5.252,0.104c-2.703,0-4.35-1.32-5.25-0.104
	c-1.273,1.725-0.842,7.471-0.275,7.471c0.092,0,0.104-2.012,0.275-3.4c0.139-1.133,0.408-2.23,0.717-2.408
	C16.41,5.277,18.232,6.06,20,6.06c1.77,0,3.592-0.783,4.535-0.234c0.309,0.178,0.576,1.275,0.717,2.408
	c0.172,1.389,0.184,3.4,0.275,3.4C26.094,11.634,26.525,5.888,25.252,4.164z"/>
<path fill="#B88A6F" d="M50.641,28.035c0.734-1.438,2.797-1.438,2.797-1.438c0.984,3.016,1.541,8.407,1.551,9.145
	c0.01,0.719,0.682,2.729,0.471,3.223c-0.896,2.094-0.811,2.357-1.908,3.135c-0.832,0.59-0.572-0.166-0.195-0.564
	c0.584-0.617,0.955-2.037,0.189-2.168c-0.098,1.582-1.143,1.881-1.066,1.295c0.201-1.514,0-2.432,0.682-3.246
	c0.275-0.328,0.295-2.396-0.975-5.188C51.416,30.531,50.969,29.41,50.641,28.035z"/>
<path fill="#B88A6F" d="M36.914,28.085c-0.549-1.518-2.596-1.773-2.596-1.773c-1.352,2.869-2.574,8.151-2.676,8.881
	c-0.1,0.711-1.219,2.607-1.139,3.139c0.154,1.027,0.723,1.814,0.957,1.813c0.523-0.887,1.406-1.629,1.186-0.193
	c0.174,0.596,0.908-0.436,1.049-1.404c0.037-0.266-0.344-0.938-0.447-1.465c-0.084-0.422,0.006-2.416,1.611-5.025
	C35.836,30.468,36.418,29.41,36.914,28.085z"/>
<path fill="#302C3B" d="M38.391,33.957h11.217c0.979,5.166,0.256,12.303,1.488,24.896c0.156,1.586-5.654,1.596-5.604,0
	c0.242-7.346-0.445-12.938-0.938-17.416c-0.037-0.334-1.072-0.334-1.109,0c-0.492,4.479-1.182,10.07-0.939,17.416
	c0.053,1.596-5.76,1.586-5.604,0C38.135,46.26,37.412,39.123,38.391,33.957z"/>
<path fill="#3A8FB0" d="M36.963,19.847c0.906-1.135,4.635-2.271,4.635-2.271H46.4c0,0,3.73,1.137,4.635,2.271
	c0.793,0.992,2.32,5.816,2.658,6.982c-0.045,0.055-1.227,0.111-3.287,1.701c0,0-0.641-1.934-0.891-2.447
	c-0.588,3.814,0.297,7.45,0.092,7.874c-0.584,1.213-10.625,1.227-11.217,0c-0.205-0.424,0.68-4.059,0.094-7.874
	c-0.252,0.514-1.4,2.525-1.4,2.525c-1.846-1.834-3.012-2.039-3.049-2.098C34.516,25.396,36.17,20.839,36.963,19.847z"/>
<path fill="#6E8189" d="M51.354,61.602c-0.184,0.453-5.762,0.637-5.971-0.084C44.574,58.725,52.264,59.373,51.354,61.602z"/>
<path fill="#99A8AE" d="M51.273,61.053c-0.041,0.393-5.834,0.598-5.896,0C44.881,56.301,51.727,56.697,51.273,61.053z"/>
<path fill="#1A1626" d="M46.117,58.227c0.645-1.102,3.703-1.096,4.344,0c0.117,0.191,0.316,0.715-0.457,0.285
	c0.768,0.602,0.768,1.127,0,0.678c0.773,0.578,0.574,0.943,0.457,0.896c-1.176-0.582-3.166-0.582-4.344,0
	c-0.119,0.047-0.316-0.318,0.457-0.896c-0.768,0.449-0.768-0.076,0-0.678C45.801,58.941,45.998,58.418,46.117,58.227z"/>
<path fill="#6E8189" d="M36.645,61.602c0.184,0.453,5.762,0.637,5.971-0.084C43.424,58.725,35.734,59.373,36.645,61.602z"/>
<path fill="#99A8AE" d="M36.725,61.053c0.041,0.393,5.834,0.598,5.896,0C43.117,56.301,36.273,56.697,36.725,61.053z"/>
<path fill="#1A1626" d="M41.881,58.227c-0.645-1.102-3.701-1.096-4.344,0c-0.117,0.191-0.316,0.715,0.457,0.285
	c-0.768,0.602-0.768,1.127,0,0.678c-0.773,0.578-0.574,0.943-0.457,0.896c1.178-0.582,3.166-0.582,4.344,0
	c0.119,0.047,0.316-0.318-0.457-0.896c0.768,0.449,0.768-0.076,0-0.678C42.197,58.941,42,58.418,41.881,58.227z"/>
<path fill="#007EB0" d="M47.281,17.875c0,2.926-6.563,2.92-6.563-0.006l0.59-0.211h5.346L47.281,17.875z"/>
<path fill="#8C5F44" d="M46.75,17.906c0,2.176-5.5,2.176-5.5,0c0-0.74,0-2.406,0-2.406h5.5C46.75,15.5,46.75,17.166,46.75,17.906z"
	/>
<path id="Path_994_" fill="#B88A6F" d="M50.129,9.244c-0.949,0.113-1.635,3.293-1.037,4.131c0.084,0.117,0.572,0.305,0.934-0.436
	c0.203-0.41,0.781-0.752,0.961-1.598C51.217,10.257,51.072,9.128,50.129,9.244z"/>
<path id="Path_993_" fill="#B88A6F" d="M37.869,9.244c0.949,0.113,1.635,3.293,1.037,4.131c-0.084,0.117-0.572,0.305-0.936-0.436
	c-0.201-0.41-0.779-0.752-0.959-1.598C36.781,10.257,36.926,9.128,37.869,9.244z"/>
<path id="Path_992_" fill="#8C5F44" d="M50.104,9.853c-0.248,0.078-0.518,0.455-0.664,1.08c0.865-0.186,0.648,1.258-0.104,1.285
	c0.006,0.143,0.016,0.293,0.033,0.449c0.363-0.525,0.73-0.314,1.096-1.098C50.795,10.865,50.715,9.66,50.104,9.853z"/>
<path id="Path_991_" fill="#8C5F44" d="M38.559,10.931c-0.146-0.623-0.416-1.002-0.662-1.078c-0.613-0.193-0.693,1.012-0.363,1.717
	c0.363,0.783,0.732,0.572,1.096,1.098c0.018-0.156,0.027-0.307,0.033-0.451C37.918,12.181,37.705,10.757,38.559,10.931z"/>
<path id="Path_990_" fill="#B88A6F" d="M43.998,3.132c-4.109,0-6.092,3.111-5.844,7.438c0.051,0.869,0.59,3.709,1.098,4.727
	c0.523,1.041,2.266,2.648,3.334,2.98c0.674,0.209,2.152,0.209,2.826,0c1.068-0.332,2.813-1.939,3.332-2.98
	c0.51-1.018,1.049-3.855,1.1-4.727C50.092,6.244,48.111,3.132,43.998,3.132z"/>
<path id="Path_989_" fill="#78513A" d="M48.465,8.925c-0.939-0.498-2.738-0.521-3.41-0.174c-0.143,0.066-0.047,0.537,0.072,0.494
	c0.936-0.371,2.441-0.379,3.316,0.031C48.561,9.33,48.609,8.996,48.465,8.925z"/>
<path id="Path_988_" fill="#78513A" d="M39.531,8.925c0.941-0.498,2.74-0.521,3.41-0.174c0.145,0.066,0.049,0.537-0.072,0.494
	c-0.936-0.371-2.439-0.379-3.316,0.031C39.438,9.33,39.391,8.996,39.531,8.925z"/>
<path id="Path_987_" fill="#8C5F44" d="M45.109,13.246c-0.117-0.082-0.395,0.043-1.111,0.043c-0.715,0-0.992-0.125-1.109-0.043
	c-0.141,0.1,0.084,0.547,1.109,0.547C45.025,13.792,45.25,13.345,45.109,13.246z"/>
<path id="Path_986_" fill="#8C5F44" d="M43.998,14.941c-0.924-0.273-2.295,0.129-2.295,0.129c0.521,0.568,0.904,1.305,2.295,1.305
	c1.594,0,1.865-0.836,2.297-1.305C46.295,15.07,44.922,14.666,43.998,14.941z"/>
<path id="Path_985_" fill="#FFFFFF" d="M42.049,15.166c0.969,0.813,2.926,0.818,3.9,0C44.918,15.208,43.088,15.21,42.049,15.166z"/>
<path id="Path_984_" fill="#FFFFFF" d="M43.084,10.623c0.035,0.271-0.15,0.594-0.662,0.836c-0.324,0.154-1,0.336-1.887-0.039
	c-0.4-0.168-0.787-0.691-0.752-0.979C40.264,9.533,42.633,9.4,43.084,10.623z"/>
<linearGradient id="Oval_3_" gradientUnits="userSpaceOnUse" x1="-420.9111" y1="480.5088" x2="-420.9111" y2="480.792" gradientTransform="matrix(6.5701 0 0 -6.5701 2806.9055 3168.5281)">
	<stop  offset="0" style="stop-color:#A6694A"/>
	<stop  offset="1" style="stop-color:#4F2A1E"/>
	<a:midPointStop  offset="0" style="stop-color:#A6694A"/>
	<a:midPointStop  offset="0.5" style="stop-color:#A6694A"/>
	<a:midPointStop  offset="1" style="stop-color:#4F2A1E"/>
</linearGradient>
<circle id="Oval_128_" fill="url(#Oval_3_)" cx="41.477" cy="10.604" r="0.931"/>
<path id="Path_983_" fill="#1A1626" d="M41.012,10.587c0,0.643,0.93,0.643,0.93,0C41.941,9.99,41.012,9.99,41.012,10.587z"/>
<path id="Path_982_" fill="#AB968C" d="M40.869,10.328c0,0.27,0.391,0.27,0.391,0C41.26,10.076,40.869,10.076,40.869,10.328z"/>
<path id="Path_981_" fill="#8C5F44" d="M43.088,10.66c-0.377-1.215-2.955-1.037-3.305-0.219C39.914,9.394,42.766,9.119,43.088,10.66
	z"/>
<path id="Path_980_" fill="#FFFFFF" d="M44.914,10.623c-0.035,0.271,0.148,0.594,0.66,0.836c0.326,0.154,1,0.336,1.889-0.039
	c0.4-0.168,0.787-0.691,0.752-0.979C47.734,9.533,45.365,9.4,44.914,10.623z"/>
<linearGradient id="Oval_4_" gradientUnits="userSpaceOnUse" x1="-422.8452" y1="480.5088" x2="-422.8452" y2="480.792" gradientTransform="matrix(6.5701 0 0 -6.5701 2824.636 3168.5281)">
	<stop  offset="0" style="stop-color:#A6694A"/>
	<stop  offset="1" style="stop-color:#4F2A1E"/>
	<a:midPointStop  offset="0" style="stop-color:#A6694A"/>
	<a:midPointStop  offset="0.5" style="stop-color:#A6694A"/>
	<a:midPointStop  offset="1" style="stop-color:#4F2A1E"/>
</linearGradient>
<circle id="Oval_127_" fill="url(#Oval_4_)" cx="46.5" cy="10.604" r="0.931"/>
<path id="Path_979_" fill="#1A1626" d="M46.035,10.587c0,0.643,0.932,0.643,0.932,0C46.967,9.99,46.035,9.99,46.035,10.587z"/>
<path id="Path_978_" fill="#AB968C" d="M45.893,10.328c0,0.27,0.391,0.27,0.391,0C46.283,10.076,45.893,10.076,45.893,10.328z"/>
<path id="Path_977_" fill="#8C5F44" d="M44.91,10.66c0.377-1.215,2.953-1.041,3.305-0.219C48.084,9.394,45.232,9.119,44.91,10.66z"
	/>
<path fill="#8F604D" d="M49.25,4.164C48.35,2.947,46.703,2,43.998,2c-2.703,0-4.35,0.947-5.25,2.164
	C37.475,5.888,50.523,5.888,49.25,4.164z"/>
<linearGradient id="SVGID_2_" gradientUnits="userSpaceOnUse" x1="51.874" y1="11.6343" x2="51.874" y2="3.6484" gradientTransform="matrix(1 0 0 1 -7.875 0)">
	<stop  offset="0.5" style="stop-color:#6B4435"/>
	<stop  offset="0.6793" style="stop-color:#744B3B"/>
	<stop  offset="0.9708" style="stop-color:#8C5E4B"/>
	<stop  offset="1" style="stop-color:#8F604D"/>
	<a:midPointStop  offset="0.5" style="stop-color:#6B4435"/>
	<a:midPointStop  offset="0.6" style="stop-color:#6B4435"/>
	<a:midPointStop  offset="1" style="stop-color:#8F604D"/>
</linearGradient>
<path fill="url(#SVGID_2_)" d="M49.25,4.164c-0.9-1.217-2.547,0.104-5.252,0.104c-2.703,0-4.35-1.32-5.25-0.104
	c-1.273,1.725-0.842,7.471-0.275,7.471c0.092,0,0.104-2.012,0.275-3.4c0.139-1.133,0.408-2.23,0.717-2.408
	c0.943-0.549,2.766,0.234,4.533,0.234c1.77,0,3.592-0.783,4.535-0.234c0.309,0.178,0.576,1.275,0.717,2.408
	c0.172,1.389,0.184,3.4,0.275,3.4C50.092,11.634,50.523,5.888,49.25,4.164z"/>
</svg>
