<?xml version="1.0" encoding="utf-8"?>
<!-- Generator: Adobe Illustrator 15.0.0, SVG Export Plug-In . SVG Version: 6.00 Build 0)  -->
<!DOCTYPE svg PUBLIC "-//W3C//DTD SVG 1.1//EN" "http://www.w3.org/Graphics/SVG/1.1/DTD/svg11.dtd" [
	<!ENTITY ns_flows "http://ns.adobe.com/Flows/1.0/">
	<!ENTITY ns_extend "http://ns.adobe.com/Extensibility/1.0/">
	<!ENTITY ns_ai "http://ns.adobe.com/AdobeIllustrator/10.0/">
	<!ENTITY ns_graphs "http://ns.adobe.com/Graphs/1.0/">
]>
<svg version="1.1" id="Layer_1" xmlns:x="&ns_extend;" xmlns:i="&ns_ai;" xmlns:graph="&ns_graphs;"
	 xmlns="http://www.w3.org/2000/svg" xmlns:xlink="http://www.w3.org/1999/xlink" xmlns:a="http://ns.adobe.com/AdobeSVGViewerExtensions/3.0/"
	 x="0px" y="0px" width="64px" height="64px" viewBox="0 0 64 64" enable-background="new 0 0 64 64" xml:space="preserve">
<path fill="#EBC199" d="M35.414,28.144c-0.51-1.512-2.443-1.756-2.443-1.756c-1.299,2.877-2.488,8.163-2.59,8.893
	c-0.1,0.711-0.98,2.626-0.842,3.142c0.578,2.184,0.357,1.311,1.281,2.219c0.291,0.287,0.402-0.02,0.375-0.42
	c0,0,0.264-0.887,0.465-0.898c-0.053,0.396,0.777,0.172,0.578-0.379c-0.123-0.342,0.098-1.109-0.354-1.787
	c-0.23-0.349,0.021-2.413,1.559-5.033C34.379,30.531,34.936,29.47,35.414,28.144z"/>
<path fill="#EBC199" d="M49.141,28.035c0.734-1.438,2.797-1.438,2.797-1.438c0.984,3.016,1.541,8.409,1.551,9.147
	c0.01,0.717,0.682,2.728,0.471,3.222c-0.896,2.094-0.811,2.355-1.908,3.135c-0.832,0.588-0.572-0.168-0.195-0.566
	c0.584-0.617,0.955-2.035,0.189-2.168c-0.098,1.584-1.143,1.883-1.066,1.295c0.201-1.514,0-2.432,0.682-3.244
	c0.275-0.33,0.295-2.397-0.975-5.189C49.916,30.531,49.469,29.41,49.141,28.035z"/>
<path fill="#302C3B" d="M36.891,33.957h11.217c0.979,5.167,0.256,12.302,1.488,24.897c0.156,1.586-5.654,1.596-5.604,0
	c0.242-7.348-0.445-12.939-0.938-17.416c-0.037-0.334-1.072-0.334-1.109,0c-0.492,4.477-1.182,10.068-0.939,17.416
	c0.053,1.596-5.76,1.586-5.604,0C36.635,46.259,35.912,39.124,36.891,33.957z"/>
<path fill="#3AB0A2" d="M35.463,19.847c0.906-1.135,4.635-2.271,4.635-2.271H44.9c0,0,3.73,1.137,4.635,2.271
	c0.793,0.992,2.32,5.816,2.658,6.982c-0.045,0.055-1.227,0.111-3.287,1.701c0,0-0.641-1.934-0.891-2.447
	c-0.588,3.814,0.297,7.45,0.092,7.874c-0.584,1.215-10.625,1.229-11.217,0c-0.205-0.424,0.68-4.059,0.094-7.874
	c-0.252,0.514-1.4,2.525-1.4,2.525c-1.846-1.834-3.012-2.039-3.049-2.098C33.016,25.396,34.67,20.839,35.463,19.847z"/>
<path fill="#6E8189" d="M49.854,61.603c-0.184,0.451-5.762,0.637-5.971-0.084C43.074,58.726,50.764,59.372,49.854,61.603z"/>
<path fill="#99A8AE" d="M49.773,61.054c-0.041,0.391-5.834,0.596-5.896,0C43.381,56.3,50.227,56.696,49.773,61.054z"/>
<path fill="#1A1626" d="M44.617,58.226c0.645-1.102,3.703-1.096,4.344,0c0.117,0.193,0.316,0.717-0.457,0.287
	c0.768,0.602,0.768,1.127,0,0.678c0.773,0.578,0.574,0.943,0.457,0.896c-1.176-0.582-3.166-0.582-4.344,0
	c-0.119,0.047-0.316-0.318,0.457-0.896c-0.768,0.449-0.768-0.076,0-0.678C44.301,58.942,44.498,58.419,44.617,58.226z"/>
<path fill="#6E8189" d="M35.145,61.603c0.184,0.451,5.762,0.637,5.971-0.084C41.924,58.726,34.234,59.372,35.145,61.603z"/>
<path fill="#99A8AE" d="M35.225,61.054c0.041,0.391,5.834,0.596,5.896,0C41.617,56.3,34.773,56.696,35.225,61.054z"/>
<path fill="#1A1626" d="M40.381,58.226c-0.645-1.102-3.701-1.096-4.344,0c-0.117,0.193-0.316,0.717,0.457,0.287
	c-0.768,0.602-0.768,1.127,0,0.678c-0.773,0.578-0.574,0.943-0.457,0.896c1.178-0.582,3.166-0.582,4.344,0
	c0.119,0.047,0.316-0.318-0.457-0.896c0.768,0.449,0.768-0.076,0-0.678C40.697,58.942,40.5,58.419,40.381,58.226z"/>
<path fill="#2B998D" d="M39.217,17.875c0,2.926,6.563,2.92,6.563-0.006l-0.59-0.211h-5.346L39.217,17.875z"/>
<path fill="#C99B71" d="M39.748,17.906c0,2.176,5.5,2.176,5.5,0c0-0.74,0-2.406,0-2.406h-5.5
	C39.748,15.5,39.748,17.166,39.748,17.906z"/>
<path id="Path_294_" fill="#EBC199" d="M48.629,9.244c-0.949,0.113-1.635,3.293-1.037,4.131c0.082,0.117,0.572,0.305,0.934-0.436
	c0.201-0.41,0.781-0.752,0.961-1.598C49.717,10.257,49.572,9.128,48.629,9.244z"/>
<path id="Path_293_" fill="#EBC199" d="M36.369,9.244c0.949,0.113,1.633,3.293,1.037,4.131c-0.084,0.117-0.574,0.305-0.936-0.436
	c-0.201-0.41-0.779-0.752-0.959-1.598C35.281,10.257,35.426,9.128,36.369,9.244z"/>
<path id="Path_292_" fill="#C99B71" d="M48.604,9.853c-0.248,0.078-0.52,0.455-0.664,1.08c0.865-0.186,0.648,1.258-0.104,1.285
	c0.006,0.143,0.016,0.293,0.033,0.449c0.363-0.525,0.73-0.314,1.096-1.098C49.293,10.865,49.215,9.66,48.604,9.853z"/>
<path id="Path_291_" fill="#C99B71" d="M37.059,10.931c-0.146-0.623-0.416-1.002-0.664-1.078c-0.613-0.193-0.691,1.012-0.363,1.717
	c0.365,0.783,0.732,0.572,1.096,1.098c0.018-0.156,0.027-0.307,0.035-0.451C36.416,12.181,36.205,10.757,37.059,10.931z"/>
<path id="Path_290_" fill="#EBC199" d="M42.498,3.132c-4.111,0-6.092,3.111-5.844,7.438c0.049,0.869,0.59,3.709,1.098,4.727
	c0.521,1.041,2.266,2.648,3.334,2.98c0.674,0.209,2.15,0.209,2.826,0c1.068-0.332,2.811-1.939,3.332-2.98
	c0.51-1.018,1.049-3.855,1.098-4.727C48.592,6.244,46.611,3.132,42.498,3.132z"/>
<path id="Path_289_" fill="#A17C5B" d="M46.965,8.925c-0.939-0.498-2.74-0.521-3.41-0.174c-0.143,0.066-0.047,0.537,0.072,0.494
	c0.936-0.371,2.441-0.379,3.316,0.031C47.061,9.33,47.109,8.996,46.965,8.925z"/>
<path id="Path_288_" fill="#A17C5B" d="M38.031,8.925c0.939-0.498,2.738-0.521,3.41-0.174c0.143,0.066,0.049,0.537-0.072,0.494
	c-0.936-0.371-2.439-0.379-3.316,0.031C37.938,9.33,37.889,8.996,38.031,8.925z"/>
<path id="Path_287_" fill="#C99B71" d="M43.607,13.246c-0.117-0.082-0.393,0.043-1.109,0.043c-0.715,0-0.992-0.125-1.109-0.043
	c-0.141,0.1,0.084,0.547,1.109,0.547C43.525,13.792,43.75,13.345,43.607,13.246z"/>
<path id="Path_286_" fill="#C99B71" d="M42.498,14.941c-0.924-0.273-2.295,0.129-2.295,0.129c0.521,0.568,0.904,1.305,2.295,1.305
	c1.594,0,1.865-0.836,2.297-1.305C44.795,15.07,43.422,14.666,42.498,14.941z"/>
<path id="Path_285_" fill="#FFFFFF" d="M40.547,15.166c0.971,0.813,2.928,0.818,3.902,0C43.416,15.208,41.588,15.21,40.547,15.166z"
	/>
<path id="Path_159_" fill="#FFFFFF" d="M41.584,10.623c0.035,0.271-0.15,0.594-0.662,0.836c-0.324,0.154-1,0.336-1.889-0.039
	c-0.398-0.168-0.785-0.691-0.75-0.979C38.764,9.533,41.133,9.4,41.584,10.623z"/>
<linearGradient id="Oval_1_" gradientUnits="userSpaceOnUse" x1="-415.1299" y1="480.5088" x2="-415.1299" y2="480.792" gradientTransform="matrix(6.5701 0 0 -6.5701 2767.4211 3168.5281)">
	<stop  offset="0" style="stop-color:#A6694A"/>
	<stop  offset="1" style="stop-color:#4F2A1E"/>
	<a:midPointStop  offset="0" style="stop-color:#A6694A"/>
	<a:midPointStop  offset="0.5" style="stop-color:#A6694A"/>
	<a:midPointStop  offset="1" style="stop-color:#4F2A1E"/>
</linearGradient>
<circle id="Oval_18_" fill="url(#Oval_1_)" cx="39.977" cy="10.604" r="0.931"/>
<path id="Path_158_" fill="#1A1626" d="M39.512,10.587c0,0.643,0.93,0.643,0.93,0C40.441,9.99,39.512,9.99,39.512,10.587z"/>
<path id="Path_157_" fill="#AB968C" d="M39.369,10.328c0,0.27,0.391,0.27,0.391,0C39.76,10.076,39.369,10.076,39.369,10.328z"/>
<path id="Path_156_" fill="#C99B71" d="M41.588,10.66c-0.377-1.215-2.955-1.037-3.305-0.219C38.412,9.394,41.266,9.119,41.588,10.66
	z"/>
<path id="Path_155_" fill="#FFFFFF" d="M43.412,10.623c-0.033,0.271,0.15,0.594,0.662,0.836c0.324,0.154,1,0.336,1.889-0.039
	c0.398-0.168,0.785-0.691,0.752-0.979C46.232,9.533,43.863,9.4,43.412,10.623z"/>
<linearGradient id="Oval_2_" gradientUnits="userSpaceOnUse" x1="-417.064" y1="480.5088" x2="-417.064" y2="480.792" gradientTransform="matrix(6.5701 0 0 -6.5701 2785.1516 3168.5281)">
	<stop  offset="0" style="stop-color:#A6694A"/>
	<stop  offset="1" style="stop-color:#4F2A1E"/>
	<a:midPointStop  offset="0" style="stop-color:#A6694A"/>
	<a:midPointStop  offset="0.5" style="stop-color:#A6694A"/>
	<a:midPointStop  offset="1" style="stop-color:#4F2A1E"/>
</linearGradient>
<circle id="Oval_17_" fill="url(#Oval_2_)" cx="45" cy="10.604" r="0.931"/>
<path id="Path_154_" fill="#1A1626" d="M44.535,10.587c0,0.643,0.932,0.643,0.932,0C45.467,9.99,44.535,9.99,44.535,10.587z"/>
<path id="Path_153_" fill="#AB968C" d="M44.393,10.328c0,0.27,0.391,0.27,0.391,0C44.783,10.076,44.393,10.076,44.393,10.328z"/>
<path id="Path_152_" fill="#C99B71" d="M43.41,10.66c0.377-1.215,2.951-1.041,3.305-0.219C46.584,9.394,43.73,9.119,43.41,10.66z"/>
<path fill="#E3BE86" d="M47.75,4.164C46.85,2.947,45.203,2,42.498,2c-2.703,0-4.35,0.947-5.25,2.164
	C35.975,5.888,49.023,5.888,47.75,4.164z"/>
<linearGradient id="SVGID_1_" gradientUnits="userSpaceOnUse" x1="89.8555" y1="11.6343" x2="89.8555" y2="3.6484" gradientTransform="matrix(1 0 0 1 -47.3574 0)">
	<stop  offset="0.5" style="stop-color:#BA9757"/>
	<stop  offset="0.6473" style="stop-color:#C29E60"/>
	<stop  offset="0.8867" style="stop-color:#D7B378"/>
	<stop  offset="1" style="stop-color:#E3BE86"/>
	<a:midPointStop  offset="0.5" style="stop-color:#BA9757"/>
	<a:midPointStop  offset="0.6" style="stop-color:#BA9757"/>
	<a:midPointStop  offset="1" style="stop-color:#E3BE86"/>
</linearGradient>
<path fill="url(#SVGID_1_)" d="M47.75,4.164c-0.9-1.217-2.547,0.104-5.252,0.104c-2.703,0-4.35-1.32-5.25-0.104
	c-1.273,1.725-0.842,7.471-0.275,7.471c0.09,0,0.104-2.012,0.275-3.4c0.139-1.133,0.408-2.23,0.717-2.408
	c0.943-0.549,2.764,0.234,4.533,0.234s3.59-0.783,4.533-0.234c0.311,0.178,0.578,1.275,0.719,2.408c0.17,1.389,0.184,3.4,0.273,3.4
	C48.59,11.634,49.023,5.888,47.75,4.164z"/>
<path fill="#916B50" d="M10.446,35.742c0.008-0.717,0.314-5.801,1.088-8.87c0.543-2.148,1.943-8.156,3.475-8.156l0.15,3.965
	c0,0-0.85,4.305-1.148,5.736c-0.25,1.207-0.523,2.277-1.129,3.811c-1.104,2.79-1.086,4.859-0.848,5.189
	c0.594,0.813,0.418,1.73,0.592,3.244c0.068,0.588-0.842,0.289-0.926-1.295c-0.666,0.133-0.344,1.551,0.164,2.168
	c0.328,0.398,0.555,1.154-0.168,0.566c-0.955-0.779-0.881-1.041-1.66-3.135C9.853,38.472,10.437,36.459,10.446,35.742z"/>
<path fill="#916B50" d="M25.144,18.714c1.531,0,2.725,5.607,3.445,7.705c1.014,2.953,2.377,8.125,2.467,8.856
	c0.092,0.709,1.137,2.597,1.057,3.128c-0.152,1.027-0.695,1.818-0.916,1.818c-0.488-0.883-1.318-1.619-1.121-0.186
	c-0.168,0.596-0.855-0.43-0.982-1.396c-0.033-0.266,0.332-0.939,0.434-1.465c0.082-0.423,0.104-2.417-1.396-5.015
	c-0.914-1.578-1.518-2.637-1.891-3.984c-0.391-1.41-1.256-5.494-1.256-5.494L25.144,18.714z"/>
<path fill="#1A1626" d="M14.876,61.521c0.031,0.576,4.209,0.729,4.324-0.076C19.595,58.679,14.7,58.208,14.876,61.521z"/>
<path fill="#302C3B" d="M14.921,61.175c0,0.582,4.283,0.762,4.283,0c0-0.814-0.496-1.57-0.533-2.295
	c-0.117-2.285-2.348-1.66-2.869-0.99C15.229,58.622,14.921,59.804,14.921,61.175z"/>
<path fill="#916B50" d="M18.325,58.206c0.063,0.609-2.33,0.652-2.332-0.084c0.148-3.127-2.195-12.578,0.254-15.059
	c0.498-0.506,2.498,0,2.498,0C19.507,48.487,17.79,52.948,18.325,58.206z"/>
<path fill="#1A1626" d="M25.269,61.521c-0.029,0.576-4.209,0.729-4.324-0.076C20.55,58.679,25.444,58.208,25.269,61.521z"/>
<path fill="#302C3B" d="M25.226,61.175c0,0.582-4.285,0.762-4.285,0c0-0.814,0.496-1.57,0.533-2.295
	c0.119-2.285,2.348-1.66,2.871-0.99C24.915,58.622,25.226,59.804,25.226,61.175z"/>
<path fill="#916B50" d="M21.819,58.206c-0.063,0.609,2.33,0.652,2.334-0.084c-0.15-3.127,2.193-12.576-0.254-15.059
	c-0.498-0.506-2.5,0-2.5,0C20.64,48.487,22.354,52.948,21.819,58.206z"/>
<path fill="#3B2118" d="M22.902,18.714c5.668-2.266,5.102-7.648,5.102-7.648H12.137c0,0-0.566,5.383,5.1,7.648
	c0,0,1.133,0.283,2.832,0.283C21.77,18.998,22.902,18.714,22.902,18.714z"/>
<linearGradient id="SVGID_2_" gradientUnits="userSpaceOnUse" x1="117.9502" y1="18.9966" x2="117.9502" y2="2.0477" gradientTransform="matrix(1 0 0 1 -92.2139 0)">
	<stop  offset="0.05" style="stop-color:#3B2118"/>
	<stop  offset="0.112" style="stop-color:#40251C"/>
	<stop  offset="0.4761" style="stop-color:#58392F"/>
	<stop  offset="0.7" style="stop-color:#614036"/>
	<a:midPointStop  offset="0.05" style="stop-color:#3B2118"/>
	<a:midPointStop  offset="0.4" style="stop-color:#3B2118"/>
	<a:midPointStop  offset="0.7" style="stop-color:#614036"/>
</linearGradient>
<path fill="url(#SVGID_2_)" d="M25.799,11.642c0.58,2.439,0.273,4.854-2.896,7.072c3.4-0.566,5.668-3.775,5.668-6.238L25.799,11.642
	z"/>
<linearGradient id="SVGID_3_" gradientUnits="userSpaceOnUse" x1="1674.1982" y1="18.9966" x2="1674.1982" y2="2.0477" gradientTransform="matrix(-1 0 0 1 1688.6016 0)">
	<stop  offset="0.05" style="stop-color:#3B2118"/>
	<stop  offset="0.112" style="stop-color:#40251C"/>
	<stop  offset="0.4761" style="stop-color:#58392F"/>
	<stop  offset="0.7" style="stop-color:#614036"/>
	<a:midPointStop  offset="0.05" style="stop-color:#3B2118"/>
	<a:midPointStop  offset="0.4" style="stop-color:#3B2118"/>
	<a:midPointStop  offset="0.7" style="stop-color:#614036"/>
</linearGradient>
<path fill="url(#SVGID_3_)" d="M14.342,11.642c-0.58,2.439-0.275,4.854,2.895,7.072c-3.4-0.566-5.666-3.775-5.666-6.238
	L14.342,11.642z"/>
<path fill="#8E3ED6" d="M25.144,18.714l-1.619-0.523l-6.908,0.006l-1.607,0.52c0,0-0.6,3.664-0.414,5.146
	c0.303,2.402,1.031,3.145,1.057,4.996c0.02,1.379-2.596,14.593-2.596,14.593c0,3.186,14.021,3.186,14.021,0
	c0,0-2.613-13.203-2.596-14.568c0.021-1.848,0.752-2.613,1.057-5.021C25.722,22.38,25.144,18.714,25.144,18.714z"/>
<path fill="#916B50" d="M17.513,17.88c0-0.75,0-2.414,0-2.414h5.105c0,0,0,1.652,0,2.404l0.906,0.32c0,2.26-2.957,3.615-3.459,3.615
	c-0.5,0-3.449-1.354-3.449-3.609L17.513,17.88z"/>
<path fill="#69452D" d="M16.58,14.98c0.41,2.002,2.57,4.018,3.49,4.018s3.08-2.016,3.49-4.018
	C23.756,14.017,16.385,14.017,16.58,14.98z"/>
<path fill="#916B50" d="M20.07,2.851c-4.113,0-6.094,3.348-5.846,7.654c0.051,0.863,0.291,2.113,0.588,3.182
	c0.617,2.223,3.871,4.461,5.258,4.461c1.385,0,4.639-2.238,5.256-4.461c0.297-1.068,0.537-2.318,0.588-3.182
	C26.162,6.199,24.182,2.851,20.07,2.851z"/>
<path fill="#733B2A" d="M20.068,14.656c-0.963-0.424-0.971-0.018-2.459,0.082c0.559,0.633,0.971,1.447,2.459,1.447
	c1.709,0,1.998-0.924,2.461-1.447C21.039,14.638,21.033,14.232,20.068,14.656z"/>
<path fill="#FFFFFF" d="M18.057,14.896c0.971,1.008,3.066,0.994,4.025,0C20.586,15.056,19.553,15.056,18.057,14.896z"/>
<path fill="#5E4431" d="M24.439,9.072c-0.895-0.533-2.496-0.598-3.131-0.234c-0.135,0.072-0.098,0.457,0.018,0.41
	c0.904-0.377,2.283-0.396,3.133,0.039C24.572,9.345,24.574,9.15,24.439,9.072z"/>
<path fill="#5E4431" d="M15.699,9.072c0.895-0.533,2.496-0.598,3.131-0.234c0.135,0.072,0.1,0.457-0.018,0.41
	c-0.904-0.377-2.281-0.396-3.131,0.039C15.566,9.345,15.564,9.15,15.699,9.072z"/>
<path fill="#69452D" d="M20.994,13.289c-0.098-0.068-0.328,0.037-0.926,0.037c-0.596,0-0.826-0.105-0.924-0.037
	c-0.117,0.082,0.07,0.455,0.924,0.455C20.924,13.744,21.111,13.373,20.994,13.289z"/>
<path id="Path_284_" fill="#FFFFFF" d="M19.154,10.687c0.035,0.271-0.15,0.594-0.66,0.836c-0.326,0.154-1.002,0.336-1.889-0.039
	c-0.398-0.168-0.787-0.689-0.752-0.979C16.336,9.597,18.705,9.464,19.154,10.687z"/>
<linearGradient id="Oval_3_" gradientUnits="userSpaceOnUse" x1="-411.7163" y1="480.499" x2="-411.7163" y2="480.7822" gradientTransform="matrix(6.5701 0 0 -6.5701 2722.5657 3168.5281)">
	<stop  offset="0" style="stop-color:#A6694A"/>
	<stop  offset="1" style="stop-color:#4F2A1E"/>
	<a:midPointStop  offset="0" style="stop-color:#A6694A"/>
	<a:midPointStop  offset="0.5" style="stop-color:#A6694A"/>
	<a:midPointStop  offset="1" style="stop-color:#4F2A1E"/>
</linearGradient>
<circle id="Oval_38_" fill="url(#Oval_3_)" cx="17.547" cy="10.668" r="0.931"/>
<path id="Path_283_" fill="#1A1626" d="M17.082,10.652c0,0.645,0.932,0.645,0.932,0C18.014,10.054,17.082,10.054,17.082,10.652z"/>
<path id="Path_282_" fill="#AB968C" d="M16.941,10.392c0,0.27,0.389,0.27,0.389,0C17.33,10.14,16.941,10.14,16.941,10.392z"/>
<path id="Path_281_" fill="#45332C" d="M19.16,10.724c-0.379-1.215-2.955-1.037-3.307-0.219C15.984,9.458,18.838,9.183,19.16,10.724
	z"/>
<path id="Path_280_" fill="#FFFFFF" d="M20.984,10.687c-0.035,0.271,0.15,0.594,0.662,0.836c0.324,0.154,1,0.336,1.889-0.039
	c0.398-0.168,0.785-0.689,0.75-0.979C23.805,9.597,21.436,9.464,20.984,10.687z"/>
<linearGradient id="Oval_4_" gradientUnits="userSpaceOnUse" x1="-413.6504" y1="480.499" x2="-413.6504" y2="480.7822" gradientTransform="matrix(6.5701 0 0 -6.5701 2740.2961 3168.5281)">
	<stop  offset="0" style="stop-color:#A6694A"/>
	<stop  offset="1" style="stop-color:#4F2A1E"/>
	<a:midPointStop  offset="0" style="stop-color:#A6694A"/>
	<a:midPointStop  offset="0.5" style="stop-color:#A6694A"/>
	<a:midPointStop  offset="1" style="stop-color:#4F2A1E"/>
</linearGradient>
<circle id="Oval_37_" fill="url(#Oval_4_)" cx="22.57" cy="10.668" r="0.931"/>
<path id="Path_279_" fill="#1A1626" d="M22.105,10.652c0,0.645,0.932,0.645,0.932,0C23.037,10.054,22.105,10.054,22.105,10.652z"/>
<path id="Path_278_" fill="#AB968C" d="M21.965,10.392c0,0.27,0.391,0.27,0.391,0C22.355,10.14,21.965,10.14,21.965,10.392z"/>
<path id="Path_277_" fill="#45332C" d="M20.98,10.724c0.377-1.215,2.953-1.041,3.305-0.219C24.154,9.458,21.303,9.183,20.98,10.724z
	"/>
<linearGradient id="SVGID_4_" gradientUnits="userSpaceOnUse" x1="112.2842" y1="18.9995" x2="112.2842" y2="2.0427" gradientTransform="matrix(1 0 0 1 -92.2139 0)">
	<stop  offset="0.05" style="stop-color:#3B2118"/>
	<stop  offset="0.112" style="stop-color:#40251C"/>
	<stop  offset="0.4761" style="stop-color:#58392F"/>
	<stop  offset="0.7" style="stop-color:#614036"/>
	<a:midPointStop  offset="0.05" style="stop-color:#3B2118"/>
	<a:midPointStop  offset="0.4" style="stop-color:#3B2118"/>
	<a:midPointStop  offset="0.7" style="stop-color:#614036"/>
</linearGradient>
<path fill="url(#SVGID_4_)" d="M24.697,3.451c0.469-0.67-3.508-2.084-7.262-1.129C13.684,3.181,11.57,8.8,11.57,12.476
	c0.336,0.266,2.389-0.398,2.771-0.834c0.154-0.645,0.398-1.305,0.627-1.992c2.818-1.631,6.006-2.014,8.217-3.967
	c-0.283,0.852,1.217,1.922,1.984,3.967c0.248,0.664,0.471,1.328,0.629,1.992c0.625,0.574,1.873,0.846,2.771,0.834
	C28.57,9.367,26.201,3.017,24.697,3.451z"/>
<path fill="#3B2118" d="M12.246,11.917c2.594-3.455,10.998-3.221,12.451-8.467C21.875,7.853,12.953,8.595,12.246,11.917z"/>
</svg>
