<?xml version="1.0" encoding="utf-8"?>
<!-- Generator: Adobe Illustrator 15.0.0, SVG Export Plug-In . SVG Version: 6.00 Build 0)  -->
<!DOCTYPE svg PUBLIC "-//W3C//DTD SVG 1.1//EN" "http://www.w3.org/Graphics/SVG/1.1/DTD/svg11.dtd" [
	<!ENTITY ns_flows "http://ns.adobe.com/Flows/1.0/">
	<!ENTITY ns_extend "http://ns.adobe.com/Extensibility/1.0/">
	<!ENTITY ns_ai "http://ns.adobe.com/AdobeIllustrator/10.0/">
	<!ENTITY ns_graphs "http://ns.adobe.com/Graphs/1.0/">
]>
<svg version="1.1" id="Layer_1" xmlns:x="&ns_extend;" xmlns:i="&ns_ai;" xmlns:graph="&ns_graphs;"
	 xmlns="http://www.w3.org/2000/svg" xmlns:xlink="http://www.w3.org/1999/xlink" xmlns:a="http://ns.adobe.com/AdobeSVGViewerExtensions/3.0/"
	 x="0px" y="0px" width="64px" height="64px" viewBox="0 0 64 64" enable-background="new 0 0 64 64" xml:space="preserve">
<rect x="4.673" y="29.016" fill="#99A8AE" width="6.156" height="7.375"/>
<rect x="5.981" y="27.792" fill="#4E5E67" width="3.539" height="7.376"/>
<rect x="53.171" y="29.016" fill="#99A8AE" width="6.156" height="7.375"/>
<rect x="54.479" y="27.792" fill="#4E5E67" width="3.539" height="7.376"/>
<path fill="#CFD8DD" d="M57.537,52.486l-1.092-0.822c-0.064-3.563-16.264-8.25-16.264-8.25H23.818c0,0-16.197,4.688-16.262,8.25
	l-1.096,0.822C3.721,52.438,2,62,2,62h60C62,62,60.279,52.438,57.537,52.486z"/>
<path fill="#99A8AE" d="M11.797,62h-1.535c0-5.379-3.801-9.514-3.801-9.514l1.096-0.822C7.557,51.664,11.797,55.904,11.797,62z"/>
<path fill="#99A8AE" d="M52.205,62h1.533c0-5.379,3.799-9.514,3.799-9.514l-1.092-0.822C56.445,51.664,52.205,55.904,52.205,62z"/>
<path fill="#018BC9" d="M4.83,53.617c0,0-1.793,1.834-1.873,4.402c0,0.859,2.156,3.459,2.156,3.459s1.799-1.646,2.615-3.137
	C5.373,55.479,4.83,53.617,4.83,53.617z"/>
<path fill="#99A8AE" d="M47.67,42.609c-2.129,0-29.217,0-31.344,0c-2.984,0-2.607,2.113-2.607,4.227
	c0,4.756,10.385,7.047,18.281,7.047s18.281-2.291,18.281-7.047C50.281,44.723,50.658,42.609,47.67,42.609"/>
<path fill="#99A8AE" d="M62,25.341c0,2.148-1.74,3.887-3.887,3.887H5.887C3.74,29.228,2,27.49,2,25.341v-6.684
	c0-2.146,1.74-3.886,3.887-3.886h52.227c2.146,0,3.887,1.74,3.887,3.886V25.341z"/>
<circle fill="#302C3B" cx="32" cy="26" r="22"/>
<path fill="#7D8D96" d="M61.001,18.852c0,3.333-5.002,3.333-5.002,0C55.999,15.518,61.001,15.518,61.001,18.852z"/>
<path fill="#7D8D96" d="M61.001,25.155c0,3.001-4.502,3.001-4.502,0C56.499,22.157,61.001,22.157,61.001,25.155z"/>
<path fill="#CFD8DD" d="M60.501,18.852c0,2.666-4.002,2.666-4.002,0C56.499,16.185,60.501,16.185,60.501,18.852z"/>
<path fill="#CFD8DD" d="M60.501,25.155c0,2.335-3.502,2.335-3.502,0C56.999,22.823,60.501,22.823,60.501,25.155z"/>
<path fill="#7D8D96" d="M8.001,18.853c0,3.332-5.002,3.332-5.002,0C2.999,15.518,8.001,15.518,8.001,18.853z"/>
<path fill="#7D8D96" d="M7.501,25.155c0,3.001-4.502,3.001-4.502,0C2.999,22.157,7.501,22.157,7.501,25.155z"/>
<path fill="#CFD8DD" d="M7.501,18.853c0,2.666-4.002,2.666-4.002,0C3.499,16.185,7.501,16.185,7.501,18.853z"/>
<path fill="#CFD8DD" d="M7.001,25.156c0,2.334-3.502,2.334-3.502,0C3.499,22.824,7.001,22.824,7.001,25.156z"/>
<path id="Path_741_" fill="#FFCC66" d="M48.44,25.393c-2.545,0.307-4.383,8.816-2.781,11.06c0.225,0.313,1.535,0.814,2.508-1.168
	c0.539-1.096,2.092-2.012,2.574-4.277C51.358,28.109,50.974,25.086,48.44,25.393z"/>
<path id="Path_740_" fill="#FFCC66" d="M15.56,25.393c2.545,0.307,4.383,8.816,2.781,11.06c-0.225,0.313-1.535,0.814-2.51-1.168
	c-0.537-1.096-2.092-2.012-2.572-4.277C12.64,28.109,13.026,25.086,15.56,25.393z"/>
<path id="Path_739_" fill="#DB9D3A" d="M48.372,27.023c-0.664,0.209-1.389,1.221-1.781,2.897c2.32-0.498,1.74,3.363-0.277,3.435
	c0.02,0.389,0.045,0.787,0.094,1.207c0.971-1.408,1.959-0.844,2.938-2.941C50.226,29.733,50.017,26.508,48.372,27.023z"/>
<path id="Path_738_" fill="#DB9D3A" d="M17.409,29.917c-0.395-1.675-1.117-2.685-1.781-2.894c-1.643-0.515-1.855,2.71-0.973,4.599
	c0.979,2.097,1.967,1.533,2.939,2.941c0.047-0.42,0.074-0.82,0.09-1.209C15.688,33.26,15.116,29.446,17.409,29.917z"/>
<path id="Path_646_" fill="#FFCC66" d="M31.999,9.034c-11.027,0-16.34,8.329-15.676,19.909c0.133,2.329,1.582,9.93,2.947,12.655
	c1.398,2.791,6.074,7.09,8.938,7.982c1.811,0.561,5.773,0.561,7.582,0c2.865-0.893,7.543-5.191,8.939-7.982
	c1.369-2.725,2.814-10.324,2.945-12.655C48.343,17.363,43.03,9.034,31.999,9.034z"/>
<path id="Path_645_" fill="#966F42" d="M43.981,24.543c-2.521-1.335-7.348-1.399-9.146-0.469c-0.387,0.178-0.131,1.441,0.193,1.322
	c2.504-0.99,6.547-1.012,8.893,0.084C44.233,25.624,44.364,24.729,43.981,24.543z"/>
<path id="Path_644_" fill="#966F42" d="M20.019,24.543c2.521-1.335,7.346-1.399,9.146-0.469c0.385,0.178,0.131,1.441-0.193,1.322
	c-2.51-0.99-6.547-1.012-8.895,0.084C19.767,25.624,19.638,24.729,20.019,24.543z"/>
<path id="Path_643_" fill="#DB9D3A" d="M34.976,36.107c-0.314-0.219-1.053,0.119-2.977,0.119c-1.92,0-2.66-0.338-2.975-0.119
	c-0.377,0.266,0.223,1.461,2.975,1.461C34.753,37.568,35.354,36.373,34.976,36.107z"/>
<path id="Path_642_" fill="#DB9D3A" d="M31.999,40.645c-2.479-0.727-6.154,0.346-6.154,0.346c1.398,1.521,2.424,3.496,6.154,3.496
	c4.275,0,5.002-2.242,6.156-3.496C38.155,40.99,34.479,39.912,31.999,40.645z"/>
<path id="Path_619_" fill="#FFFFFF" d="M26.767,41.248c2.602,2.176,7.852,2.191,10.467,0C34.462,41.365,29.558,41.367,26.767,41.248
	z"/>
<path id="Path_558_" fill="#FFFFFF" d="M29.546,29.085c0.094,0.729-0.402,1.593-1.773,2.241c-0.871,0.412-2.686,0.896-5.066-0.107
	c-1.066-0.449-2.107-1.848-2.014-2.622C21.983,26.167,28.337,25.811,29.546,29.085z"/>
<linearGradient id="Oval_1_" gradientUnits="userSpaceOnUse" x1="-424.5815" y1="477.4658" x2="-424.5815" y2="478.2236" gradientTransform="matrix(6.5701 0 0 -6.5701 2814.7805 3168.5281)">
	<stop  offset="0" style="stop-color:#A6694A"/>
	<stop  offset="1" style="stop-color:#4F2A1E"/>
	<a:midPointStop  offset="0" style="stop-color:#A6694A"/>
	<a:midPointStop  offset="0.5" style="stop-color:#A6694A"/>
	<a:midPointStop  offset="1" style="stop-color:#4F2A1E"/>
</linearGradient>
<circle id="Oval_48_" fill="url(#Oval_1_)" cx="25.235" cy="29.038" r="2.492"/>
<path id="Path_557_" fill="#1A1626" d="M23.987,28.992c0,1.724,2.496,1.724,2.496,0C26.483,27.392,23.987,27.392,23.987,28.992z"/>
<path id="Path_556_" fill="#AB968C" d="M23.608,28.292c0,0.723,1.045,0.723,1.045,0C24.653,27.625,23.608,27.625,23.608,28.292z"/>
<path id="Path_555_" fill="#DB9D3A" d="M29.558,29.181c-1.014-3.251-7.926-2.771-8.865-0.584
	C21.04,25.797,28.694,25.057,29.558,29.181z"/>
<path id="Path_554_" fill="#FFFFFF" d="M34.454,29.085c-0.094,0.729,0.4,1.593,1.773,2.241c0.871,0.412,2.684,0.896,5.064-0.107
	c1.07-0.449,2.109-1.848,2.016-2.622C42.017,26.167,35.661,25.811,34.454,29.085z"/>
<linearGradient id="Oval_2_" gradientUnits="userSpaceOnUse" x1="-425.23" y1="477.4658" x2="-425.23" y2="478.2236" gradientTransform="matrix(6.5701 0 0 -6.5701 2832.511 3168.5281)">
	<stop  offset="0" style="stop-color:#A6694A"/>
	<stop  offset="1" style="stop-color:#4F2A1E"/>
	<a:midPointStop  offset="0" style="stop-color:#A6694A"/>
	<a:midPointStop  offset="0.5" style="stop-color:#A6694A"/>
	<a:midPointStop  offset="1" style="stop-color:#4F2A1E"/>
</linearGradient>
<circle id="Oval_47_" fill="url(#Oval_2_)" cx="38.708" cy="29.038" r="2.492"/>
<path id="Path_553_" fill="#1A1626" d="M37.462,28.992c0,1.724,2.496,1.724,2.496,0C39.958,27.392,37.462,27.392,37.462,28.992z"/>
<path id="Path_552_" fill="#AB968C" d="M37.081,28.292c0,0.723,1.047,0.723,1.047,0C38.128,27.625,37.081,27.625,37.081,28.292z"/>
<path id="Path_551_" fill="#DB9D3A" d="M34.442,29.181c1.012-3.249,7.92-2.784,8.865-0.584
	C42.956,25.797,35.306,25.057,34.442,29.181z"/>
<path fill="#7A6056" d="M46.085,11.792C43.671,8.532,39.253,6,31.999,6c-7.252,0-11.668,2.532-14.082,5.793
	C14.499,16.41,49.501,16.41,46.085,11.792z"/>
<linearGradient id="SVGID_1_" gradientUnits="userSpaceOnUse" x1="32.0005" y1="31.7915" x2="32.0005" y2="10.4111">
	<stop  offset="0.5" style="stop-color:#473834"/>
	<stop  offset="0.6387" style="stop-color:#503F3A"/>
	<stop  offset="0.8641" style="stop-color:#68524A"/>
	<stop  offset="1" style="stop-color:#7A6056"/>
	<a:midPointStop  offset="0.5" style="stop-color:#473834"/>
	<a:midPointStop  offset="0.6" style="stop-color:#473834"/>
	<a:midPointStop  offset="1" style="stop-color:#7A6056"/>
</linearGradient>
<path fill="url(#SVGID_1_)" d="M46.085,11.792c-2.414-3.261-6.832,0.275-14.086,0.275c-7.252,0-11.668-3.536-14.082-0.275
	c-3.418,4.617-2.258,19.999-0.736,19.999c0.24,0,0.275-5.381,0.736-9.103c0.373-3.03,1.094-5.969,1.924-6.449
	c2.531-1.468,7.412,0.631,12.158,0.631s9.629-2.099,12.162-0.631c0.828,0.48,1.547,3.419,1.924,6.449
	c0.459,3.722,0.494,9.103,0.734,9.103C48.341,31.792,49.501,16.41,46.085,11.792z"/>
<radialGradient id="SVGID_2_" cx="28.001" cy="19.1675" r="17.3159" gradientTransform="matrix(1 0 0 1.5 0 -9.5837)" gradientUnits="userSpaceOnUse">
	<stop  offset="0" style="stop-color:#E6EBEF"/>
	<stop  offset="0.1926" style="stop-color:#D7DEE2"/>
	<stop  offset="1" style="stop-color:#99A8AE"/>
	<a:midPointStop  offset="0" style="stop-color:#E6EBEF"/>
	<a:midPointStop  offset="0.4848" style="stop-color:#E6EBEF"/>
	<a:midPointStop  offset="1" style="stop-color:#99A8AE"/>
</radialGradient>
<path fill="url(#SVGID_2_)" d="M53.73,25.089c0.176-0.949,0.27-1.92,0.27-2.91c0-10.273-9.85-18.602-22-18.602S10,11.906,10,22.18
	c0,0.99,0.094,1.96,0.27,2.91C13.76,11.268,50.242,11.268,53.73,25.089z"/>
<path fill="#CFD8DD" d="M32,2C18.746,2,8,12.746,8,26c0,13.254,10.746,24,24,24s24-10.746,24-24C56,12.746,45.254,2,32,2z M32,47.5
	c-11.873,0-21.5-9.627-21.5-21.5c0-11.875,9.627-21.5,21.5-21.5c11.875,0,21.5,9.625,21.5,21.5C53.5,37.873,43.875,47.5,32,47.5z"/>
<polygon fill="#CFD8DD" points="45.518,43.906 44.809,40.83 46.871,38.811 50.715,38.811 "/>
<path fill="#302C3B" d="M38.387,43.781c-0.797,0-0.797-0.969,0-0.969c5.953,0,7.391-2.5,9.953-3.313
	c0.666-0.211,1.234,1.469,0.125,2.201C48.09,41.947,44.262,43.781,38.387,43.781z"/>
<radialGradient id="SVGID_3_" cx="24.25" cy="18.2202" r="31.0858" gradientUnits="userSpaceOnUse">
	<stop  offset="0" style="stop-color:#FFFFFF;stop-opacity:0.73"/>
	<stop  offset="0.7879" style="stop-color:#FFFFFF;stop-opacity:0"/>
	<a:midPointStop  offset="0" style="stop-color:#FFFFFF;stop-opacity:0.73"/>
	<a:midPointStop  offset="0.4848" style="stop-color:#FFFFFF;stop-opacity:0.73"/>
	<a:midPointStop  offset="0.7879" style="stop-color:#FFFFFF;stop-opacity:0"/>
</radialGradient>
<path opacity="0.8" fill="url(#SVGID_3_)" d="M10.521,25.462c-0.016,0.34-0.025,0.68-0.025,1.023C10.496,38.395,20.123,47.5,32,47.5
	c11.875,0,21.504-9.105,21.504-21.014c0-0.344-0.01-0.684-0.025-1.023C49.828,12.1,14.172,12.1,10.521,25.462z"/>
<path fill="#E6EBEF" d="M44,62H20v-5h5.937c0,0,1.228-0.855,1.475-1c0.835-0.49,6.438-0.509,7.274,0c0.241,0.146,1.396,1,1.396,1H44
	V62z"/>
<rect x="28.068" y="58.624" fill="#99A8AE" width="6.156" height="3.376"/>
<rect x="22.171" y="60.312" fill="#99A8AE" width="2.702" height="1.688"/>
<rect x="21.567" y="56.479" fill="#99A8AE" width="2.702" height="0.521"/>
<rect x="38.706" y="56.479" fill="#99A8AE" width="1.501" height="0.521"/>
<path fill="#99A8AE" d="M39.457,59.334c-1.473,0-2.666,1.193-2.666,2.666h5.332C42.123,60.527,40.93,59.334,39.457,59.334z"/>
</svg>
