<?xml version="1.0" encoding="utf-8"?>
<!-- Generator: Adobe Illustrator 15.0.0, SVG Export Plug-In . SVG Version: 6.00 Build 0)  -->
<!DOCTYPE svg PUBLIC "-//W3C//DTD SVG 1.1//EN" "http://www.w3.org/Graphics/SVG/1.1/DTD/svg11.dtd" [
	<!ENTITY ns_flows "http://ns.adobe.com/Flows/1.0/">
	<!ENTITY ns_extend "http://ns.adobe.com/Extensibility/1.0/">
	<!ENTITY ns_ai "http://ns.adobe.com/AdobeIllustrator/10.0/">
	<!ENTITY ns_graphs "http://ns.adobe.com/Graphs/1.0/">
]>
<svg version="1.1" id="Layer_1" xmlns:x="&ns_extend;" xmlns:i="&ns_ai;" xmlns:graph="&ns_graphs;"
	 xmlns="http://www.w3.org/2000/svg" xmlns:xlink="http://www.w3.org/1999/xlink" xmlns:a="http://ns.adobe.com/AdobeSVGViewerExtensions/3.0/"
	 x="0px" y="0px" width="64px" height="64px" viewBox="0 0 64 64" enable-background="new 0 0 64 64" xml:space="preserve">
<linearGradient id="SVGID_1_" gradientUnits="userSpaceOnUse" x1="46.7344" y1="10.0283" x2="55.7695" y2="10.0283">
	<stop  offset="0" style="stop-color:#473834"/>
	<stop  offset="0.339" style="stop-color:#5E4A43"/>
	<stop  offset="0.7359" style="stop-color:#735A51"/>
	<stop  offset="1" style="stop-color:#7A6056"/>
	<a:midPointStop  offset="0" style="stop-color:#473834"/>
	<a:midPointStop  offset="0.3818" style="stop-color:#473834"/>
	<a:midPointStop  offset="1" style="stop-color:#7A6056"/>
</linearGradient>
<path fill="url(#SVGID_1_)" d="M53.877,14.75c0.547,0.2,1.17,0.274,1.893,0.143c-5.129-2.922-0.99-14.482-9.035-11.443l1.129,2.9
	c2.273,0.44-1.113,6.495,3.052,8.563c-0.411-0.384-0.411-1.186-0.302-2.135c0.798,2.725,1.639,4.656,4.854,4.287
	C54.889,16.939,54.316,15.972,53.877,14.75z"/>
<path fill="#8E3ED6" d="M46.037,3.487c-0.957,0.669,0.232,3.37,2.148,3.485C49.76,7.07,47.611,2.385,46.037,3.487z"/>
<path fill="#FAC150" d="M39.016,16.597c1.137-0.542,1.672,0.499,1.749,0.915c0.251,1.37,5.06-0.227,4.481-1.799
	c-0.502-1.367,0.168-3.001,0.168-3.001C44.657,12.278,41.992,7.372,39.016,16.597z"/>
<path fill="#FFCC66" d="M39.833,3.051c-3.456,0.552-4.723,3.019-4.165,5.926c0.125,0.657-0.299,1.781-1.135,2.503
	c-0.303,0.262-0.334,0.611-0.186,0.843c0.293,0.457,0.934,0.46,1.202,0.632c0.599,0.381-0.002,0.803,0.449,1.252
	c0.204,0.205,0.792-0.066,0.173,1.018c0.688,0.503-0.173,1.646,1.312,1.903c0.705,0.121,3.406-0.958,4.825-2.855
	c0.801-1.073,0.932-2.321,0.932-2.321c2.651-0.765,3.588-3.079,3.017-5.5C45.457,3.065,42.074,2.694,39.833,3.051z"/>
<path fill="#D47706" d="M35.999,14.208c0.325,0.199,0.183,0.512,0.183,0.512c-0.156,0-0.194,0.515,0.037,0.515
	c0.809,0,1.551-0.695,1.795-1.115C36.746,14.057,35.355,13.485,35.999,14.208z"/>
<path fill="#FFFFFF" d="M35.999,14.208c0,0,0.123,0.443,0.183,0.512c0.254,0,1.079-0.183,1.588-0.518L35.999,14.208z"/>
<linearGradient id="SVGID_2_" gradientUnits="userSpaceOnUse" x1="35.7715" y1="7.9961" x2="48.5166" y2="7.9961">
	<stop  offset="0" style="stop-color:#7A6056"/>
	<stop  offset="0.3119" style="stop-color:#775D54"/>
	<stop  offset="0.5686" style="stop-color:#6D554D"/>
	<stop  offset="0.8048" style="stop-color:#5B4842"/>
	<stop  offset="1" style="stop-color:#473834"/>
	<a:midPointStop  offset="0" style="stop-color:#7A6056"/>
	<a:midPointStop  offset="0.7455" style="stop-color:#7A6056"/>
	<a:midPointStop  offset="1" style="stop-color:#473834"/>
</linearGradient>
<path fill="url(#SVGID_2_)" d="M46.939,4.857c-0.619-1.994-3.66-3.301-6.602-2.717c-2.857,0.567-4.966,2.529-4.502,3.812
	c0.659,1.82,4.701,1.788,6.205,4.869c0.021,0.211,1.088,0.358,1.133,0.544c0.361,1.493,1.507,2.732,1.926,2.62
	C48.02,13.206,50.09,6.068,46.939,4.857z"/>
<path fill="#DB9D3A" d="M34.357,12.328c0.24,0.635,1.77,0.773,2.259,0C35.81,12.911,34.219,11.958,34.357,12.328z"/>
<path fill="#FFCC66" d="M43.251,8.735c-1.289,0.267-1.692,3.178-0.726,3.81c0.135,0.089,0.842,0.167,1.215-0.546
	c0.207-0.395,0.949-0.796,1.051-1.57C44.924,9.437,44.533,8.47,43.251,8.735z"/>
<path id="Path_639_" fill="#DB9D3A" d="M43.318,9.274c-0.327,0.112-0.635,0.49-0.73,1.065c1.163-0.314,1.109,0.991,0.076,1.145
	c0.035,0.127,0.074,0.256,0.125,0.391c0.41-0.525,0.954-0.404,1.324-1.155C44.445,10.042,44.133,8.999,43.318,9.274z"/>
<path id="Path_638_" fill="#966F42" d="M38.806,8.38c-0.735-0.425-2.142-0.445-2.667-0.149c-0.111,0.058-0.036,0.459,0.058,0.421
	c0.729-0.314,1.907-0.322,2.592,0.026C38.879,8.724,38.918,8.439,38.806,8.38z"/>
<path fill="#FFFFFF" d="M38.5,9.869c0.016,0.186-0.572,0.856-1.322,0.92c-0.428,0.036-0.581-0.294-0.676-0.65
	C36.408,8.722,38.078,9.225,38.5,9.869z"/>
<linearGradient id="Path_1_" gradientUnits="userSpaceOnUse" x1="37.0703" y1="10.7314" x2="37.0703" y2="9.2397">
	<stop  offset="0" style="stop-color:#A6694A"/>
	<stop  offset="1" style="stop-color:#4F2A1E"/>
	<a:midPointStop  offset="0" style="stop-color:#A6694A"/>
	<a:midPointStop  offset="0.5" style="stop-color:#A6694A"/>
	<a:midPointStop  offset="1" style="stop-color:#4F2A1E"/>
</linearGradient>
<path id="Path_637_" fill="url(#Path_1_)" d="M36.473,9.958c0,1.031,1.195,1.031,1.195,0C37.668,9,36.473,9,36.473,9.958z"/>
<path id="Path_636_" fill="#1A1626" d="M36.597,9.911c0,0.516,0.597,0.516,0.597,0C37.193,9.432,36.597,9.432,36.597,9.911z"/>
<path id="Path_635_" fill="#AB968C" d="M36.966,9.703c0,0.215,0.348,0.215,0.348,0C37.313,9.501,36.966,9.501,36.966,9.703z"/>
<path fill="#45332C" d="M38.5,9.869c-0.323-0.644-1.925-1.111-1.969-0.243C36.758,9.042,37.945,9.361,38.5,9.869z"/>
<path fill="#6E8189" d="M8.737,50.555c0,0-0.509,0.32-0.12,0.432c4.957,1.408,10.665,1.621,10.665,1.621
	c0.217-0.229,0.072-0.523,0.072-0.523L8.737,50.555z"/>
<path fill="#99A8AE" d="M16.545,48.352c-4.684,0.326-7.704,0.855-7.808,2.203c6.117,1.443,10.617,1.529,10.617,1.529
	C20.452,49.5,18.666,48.547,16.545,48.352z"/>
<path fill="#1A1626" d="M11.633,48.92c0.871,0.938,1.489,1.137,1.588,0.514c0.593,0.473,0.957,0.131,0.976-0.24
	c0.646,0.32,0.91-0.26,0.162-0.955C13.929,47.869,11.399,48.668,11.633,48.92z"/>
<path fill="#302C3B" d="M44.186,34.066c0,0,1.726-6.615-8.463-3.715c-7.496,0.382-14.046,2.186-14.863,2.811
	c-1.395,1.066-5.281,10.406-7.202,15.049c2.781,0.709,5.963,3.725,6.265,2.338c1.756-8.074,4.317-12.324,4.317-12.324
	C34.204,37.162,44.82,41.275,44.186,34.066z"/>
<path fill="#8E3ED6" d="M43.73,35.389c0,0-3.473-4.531-8.008-5.038c0.647-1.384,1.303-4.042,0.732-4.95
	c-1.955-3.11,1.559-3.704,3.344-7.269c0.27-0.537,0.541-0.968,0.816-1.021c0.838,1.524,3.139-1.713,4.554-1.647
	C48.986,20.263,44.094,29.17,43.73,35.389z"/>
<path fill="#98A7AD" d="M24.11,50.01h-5.087v-0.727h5.087V50.01z"/>
<rect x="26.653" y="37.293" fill="#014D86" width="17.44" height="4.359"/>
<path fill="#B3C2C6" d="M43.004,54.732V35.113c0-0.402-0.326-0.729-0.727-0.729H28.471c-0.4,0-0.727,0.326-0.727,0.729v7.992
	c0,0.961-1.454,0.959-1.454,0v-7.992c0-1.203,0.978-2.182,2.18-2.182h13.807c1.202,0,2.18,0.979,2.18,2.182v19.619
	C44.457,55.695,43.004,55.691,43.004,54.732z"/>
<path fill="#B3C2C6" d="M43.004,39.473v-5.814c0-3.596,2.775-10.801,3.968-13.731c0.388-0.952,1.362-1.5,2.377-1.329l3.222,0.536
	c0.947,0.16,0.711,1.591-0.238,1.435l-3.223-0.536c-0.336-0.056-0.662,0.126-0.793,0.442c-0.905,2.224-3.859,9.749-3.859,13.183
	v5.814C44.457,40.432,43.004,40.434,43.004,39.473z"/>
<path fill="#98A7AD" d="M45.184,55.459h-5.813c-2.04,0-3.83-0.836-5.725-1.721c-2.012-0.939-4.095-1.912-6.629-1.912H24.11
	c-0.961,0-0.961-1.453,0-1.453h2.907c2.858,0,5.189,1.088,7.245,2.047c1.744,0.814,3.393,1.586,5.109,1.586h5.813
	C46.146,54.006,46.144,55.459,45.184,55.459z"/>
<rect x="26.868" y="55.135" fill="#4E5E67" width="0.298" height="6.463"/>
<rect x="23.786" y="58.217" fill="#4E5E67" width="6.462" height="0.299"/>
<rect x="26.868" y="55.136" transform="matrix(0.7063 0.7079 -0.7079 0.7063 49.2541 -1.9828)" fill="#4E5E67" width="0.298" height="6.46"/>
<rect x="26.867" y="55.135" transform="matrix(-0.703 0.7112 -0.7112 -0.703 87.5186 80.185)" fill="#4E5E67" width="0.299" height="6.462"/>
<path fill="#1A1626" d="M26.974,62c-2.003-0.023-3.614-1.674-3.59-3.678c0.024-2.002,1.673-3.613,3.676-3.59
	s3.614,1.674,3.591,3.678C30.626,60.412,28.977,62.023,26.974,62z M27.049,55.641c-1.503-0.018-2.739,1.189-2.757,2.693
	c-0.018,1.504,1.189,2.738,2.693,2.758c1.503,0.018,2.74-1.191,2.757-2.693C29.76,56.895,28.553,55.658,27.049,55.641z"/>
<path fill="#B3C2C6" d="M23.383,52.553v-7.994c0-1.201,0.978-2.18,2.18-2.18H43.73c0.962,0,0.96,1.453,0,1.453H25.563
	c-0.4,0-0.727,0.326-0.727,0.727v7.994H23.383z"/>
<path fill="#B3C2C6" d="M17.946,52.502l1.518-5.688c0.286-0.914,1.122-1.529,2.08-1.529h2.566v1.453h-2.564
	c-0.319,0-0.599,0.205-0.694,0.51l-1.519,5.689L17.946,52.502z"/>
<polygon fill="#302C3B" points="19.688,52.771 8.201,50.848 7.916,52.436 19.305,54.281 "/>
<path fill="#013366" d="M48.445,20.215c-3.112,7.123-2.286,4.47-3.625,11.626C48.805,27.619,48.445,20.215,48.445,20.215z"/>
<path fill="#98A7AD" d="M41.87,31.478H28.151c-0.499,0-0.587,1.454,0,1.454H41.87C42.456,32.932,42.368,31.478,41.87,31.478z"/>
<path fill="#1A1626" d="M55.755,19.111l-6.399-0.71c-0.202-0.022-0.384,0.124-0.404,0.326l-0.133,1.313
	c-0.032,0.325,0.559,0.637,0.834,0.667c0.443,0.049,0.471-0.215,0.916-0.165c0.445,0.049,0.418,0.313,0.863,0.362
	c0.445,0.05,0.473-0.214,0.918-0.165c0.445,0.05,0.419,0.314,0.863,0.362c0.445,0.05,0.473-0.214,0.918-0.165
	c0.447,0.05,0.421,0.314,0.867,0.364c0.283,0.03,0.919-0.145,0.953-0.476l0.132-1.312C56.103,19.315,55.955,19.134,55.755,19.111z"
	/>
<path fill="#014D86" d="M42.906,31.254c0.365-1.937,3.29-10.387,3.729-11.465c0.271-0.669,2.289,0.154,2.02,0.822
	c-0.428,1.046-3.26,9.209-3.606,11.047C44.912,32.377,42.773,31.961,42.906,31.254z"/>
<path fill="#1A1626" d="M46.277,54.006h-1.094v1.453h1.094C46.758,55.459,46.758,54.006,46.277,54.006z"/>
<path fill="#CED7DC" d="M17.666,54.402l0.543-2.156l1.101,0.193l-0.545,2.156L17.666,54.402z"/>
<path fill="#98A7AD" d="M27.426,57.604c-1.626-1.068-2.528-2.252-2.528-3.77c0-1.158,0-2.086,0-2.086h-1.571c0,0,0,1.047,0,2.342
	c0,1.998,1.051,3.361,3.242,4.936C27.57,59.744,28.494,58.305,27.426,57.604z"/>
<path fill="#CED7DC" d="M27.011,58.91c-0.3-0.002-0.542-0.25-0.539-0.551c0.004-0.301,0.251-0.541,0.551-0.539
	c0.301,0.004,0.542,0.252,0.539,0.553C27.559,58.672,27.311,58.914,27.011,58.91z"/>
<rect x="31.92" y="49.354" fill="#4E5E67" width="23.622" height="0.584"/>
<rect x="43.438" y="37.834" fill="#4E5E67" width="0.585" height="23.623"/>
<rect x="43.439" y="37.834" transform="matrix(-0.7088 0.7054 -0.7054 -0.7088 109.748 53.9838)" fill="#4E5E67" width="0.584" height="23.622"/>
<rect x="43.439" y="37.835" transform="matrix(-0.7079 -0.7063 0.7063 -0.7079 39.6269 115.6775)" fill="#4E5E67" width="0.584" height="23.622"/>
<path fill="#1A1626" d="M43.73,62c-6.813,0-12.354-5.543-12.354-12.354c0-6.813,5.541-12.354,12.354-12.354
	s12.354,5.541,12.354,12.354C56.084,56.457,50.543,62,43.73,62z M43.73,38.746c-6.011,0-10.9,4.889-10.9,10.9
	c0,6.01,4.89,10.898,10.9,10.898s10.9-4.889,10.9-10.898C54.631,43.635,49.741,38.746,43.73,38.746z"/>
<path fill="#B3C2C6" d="M43.73,60.91c-6.211,0-11.264-5.053-11.264-11.264S37.52,38.383,43.73,38.383s11.264,5.053,11.264,11.264
	S49.941,60.91,43.73,60.91z M43.73,39.109c-5.81,0-10.537,4.727-10.537,10.537c0,5.809,4.728,10.535,10.537,10.535
	c5.811,0,10.537-4.727,10.537-10.535C54.268,43.836,49.541,39.109,43.73,39.109z"/>
<path fill="#CED7DC" d="M43.73,59.82c-5.61,0-10.173-4.564-10.173-10.174c0-5.611,4.563-10.174,10.173-10.174
	s10.174,4.563,10.174,10.174C53.904,55.256,49.342,59.82,43.73,59.82z M43.73,40.926c-4.809,0-8.72,3.912-8.72,8.721
	s3.911,8.719,8.72,8.719s8.721-3.91,8.721-8.719S48.539,40.926,43.73,40.926z"/>
<circle fill="#98A7AD" cx="43.73" cy="49.646" r="2.181"/>
<circle fill="#CED7DC" cx="43.73" cy="49.646" r="1.091"/>
<path fill="#FFCC66" d="M42.539,39.602l-0.885-0.129c-0.174-1.029,1.305-0.865,1.993-1.908c0.89-1.35,0.573-6.341,0.864-8.969
	c-0.613-1.225-0.781-2.542-0.781-2.542l3.715-0.534c0.131,0.527,0.371,1.736,0.392,2.674c0.048,2.209-1.581,6.142-1.706,9.896
	c-0.021,0.65-0.179,2.102-0.585,2.691c-0.559,0.809-1.825,1.42-2.44,0.975C41.27,42.189,43.07,40.164,42.539,39.602z"/>
<path fill="#DB9D3A" d="M43.613,41.09c0,0-0.16,0.65-0.508,0.666C43.34,41.547,43.613,41.09,43.613,41.09z"/>
<path fill="#DB9D3A" d="M44.549,41.109c0,0-0.209,0.734-0.557,0.748C44.225,41.648,44.549,41.109,44.549,41.109z"/>
<path fill="#DB9D3A" d="M45.246,40.809c0,0-0.115,0.68-0.462,0.693C45.018,41.295,45.246,40.809,45.246,40.809z"/>
<path fill="#732EB0" d="M42.174,19.547c-0.277-2.681,3.128-4.074,3.983-1.641c0.894,2.54,1.716,8.178,1.716,8.178
	c-1.644,1.068-4.486,0.963-4.486,0.963S42.352,21.274,42.174,19.547z"/>
</svg>
