<?xml version="1.0" encoding="utf-8"?>
<!-- Generator: Adobe Illustrator 15.0.0, SVG Export Plug-In . SVG Version: 6.00 Build 0)  -->
<!DOCTYPE svg PUBLIC "-//W3C//DTD SVG 1.1//EN" "http://www.w3.org/Graphics/SVG/1.1/DTD/svg11.dtd" [
	<!ENTITY ns_flows "http://ns.adobe.com/Flows/1.0/">
	<!ENTITY ns_extend "http://ns.adobe.com/Extensibility/1.0/">
	<!ENTITY ns_ai "http://ns.adobe.com/AdobeIllustrator/10.0/">
	<!ENTITY ns_graphs "http://ns.adobe.com/Graphs/1.0/">
]>
<svg version="1.1" id="Layer_1" xmlns:x="&ns_extend;" xmlns:i="&ns_ai;" xmlns:graph="&ns_graphs;"
	 xmlns="http://www.w3.org/2000/svg" xmlns:xlink="http://www.w3.org/1999/xlink" xmlns:a="http://ns.adobe.com/AdobeSVGViewerExtensions/3.0/"
	 x="0px" y="0px" width="64px" height="64px" viewBox="0 0 64 64" enable-background="new 0 0 64 64" xml:space="preserve">
<polygon fill="#302C3B" points="33.298,58 42.231,62 54.563,62 54.563,58 "/>
<path fill="#3AB0A2" d="M57.684,31.724c-1.271-1.646-7.427-3.657-7.427-3.657l-11.658,0.019c0,0-6.119,2.006-7.387,3.642
	c-2.084,2.688-2.849,5.357-2.849,5.357l4.934,3V58h21.266V45.084l4.931-4.93C59.493,40.154,59.764,34.414,57.684,31.724z"/>
<path fill="#2B998D" d="M38.599,28.085c0,4.888,11.658,4.87,11.658-0.019l-1.169-0.413h-9.27L38.599,28.085z"/>
<path fill="#E6B045" d="M39.433,27.79c0,3.826,9.993,3.826,9.993,0c0-1.302,0-4.233,0-4.233h-9.993
	C39.433,23.557,39.433,26.488,39.433,27.79z"/>
<path fill="#473834" d="M22.903,29.691c9.389-3.755,8.449-12.673,8.449-12.673H5.069c0,0-0.939,8.918,8.447,12.673
	c0,0,1.879,0.47,4.693,0.47C21.028,30.161,22.903,29.691,22.903,29.691z"/>
<linearGradient id="SVGID_1_" gradientUnits="userSpaceOnUse" x1="27.3599" y1="30.1592" x2="27.3599" y2="2.0702">
	<stop  offset="0.05" style="stop-color:#473834"/>
	<stop  offset="0.2266" style="stop-color:#594640"/>
	<stop  offset="0.5197" style="stop-color:#715950"/>
	<stop  offset="0.7" style="stop-color:#7A6056"/>
	<a:midPointStop  offset="0.05" style="stop-color:#473834"/>
	<a:midPointStop  offset="0.4" style="stop-color:#473834"/>
	<a:midPointStop  offset="0.7" style="stop-color:#7A6056"/>
</linearGradient>
<path fill="url(#SVGID_1_)" d="M27.702,17.971c0.959,4.043,0.453,8.046-4.799,11.721c5.635-0.938,8.913-6.258,8.913-10.339
	L27.702,17.971z"/>
<linearGradient id="SVGID_2_" gradientUnits="userSpaceOnUse" x1="1771.752" y1="30.1592" x2="1771.752" y2="2.0702" gradientTransform="matrix(-1 0 0 1 1780.8145 0)">
	<stop  offset="0.05" style="stop-color:#473834"/>
	<stop  offset="0.2266" style="stop-color:#594640"/>
	<stop  offset="0.5197" style="stop-color:#715950"/>
	<stop  offset="0.7" style="stop-color:#7A6056"/>
	<a:midPointStop  offset="0.05" style="stop-color:#473834"/>
	<a:midPointStop  offset="0.4" style="stop-color:#473834"/>
	<a:midPointStop  offset="0.7" style="stop-color:#7A6056"/>
</linearGradient>
<path fill="url(#SVGID_2_)" d="M8.722,17.971c-0.961,4.043-0.453,8.046,4.797,11.721c-5.633-0.938-8.913-6.258-8.913-10.339
	L8.722,17.971z"/>
<path fill="#FFCC66" d="M30.45,31.727c-1.269-1.636-2.631-2.088-2.631-2.088l0.546,10.445c0,0,1.366,2.666,4.933,3.947v-6.875
	C33.298,37.156,32.534,34.415,30.45,31.727z"/>
<path fill="#8E3ED6" d="M8.584,29.634l3.593-1.316l12.071,0.011l3.571,1.311c0,0,0.891,7.854,0.545,10.445
	c-0.56,4.194-1.226,3.636-1.274,6.873C27.053,49.366,29.353,62,29.353,62H7.088c0,0,2.301-12.613,2.265-14.999
	c-0.049-3.23-0.715-2.712-1.276-6.917C7.73,37.492,8.584,29.634,8.584,29.634z"/>
<path fill="#FFCC66" d="M24.248,28.328c0,3.939-5.153,6.305-6.026,6.305c-0.878,0-6.045-2.367-6.045-6.315l1.889-0.664h8.271
	L24.248,28.328z"/>
<path fill="#FFCC66" d="M22.68,27.79c0,3.826-8.917,3.826-8.917,0c0-1.302,0-4.233,0-4.233h8.917
	C22.68,23.557,22.68,26.488,22.68,27.79z"/>
<path fill="#E6B045" d="M11.979,22.91c0.73,3.576,4.59,7.178,6.232,7.178s5.499-3.602,6.23-7.178
	C24.794,21.191,11.629,21.191,11.979,22.91z"/>
<path fill="#FFCC66" d="M18.212,3.408c-6.813,0-10.092,5.547-9.684,12.68c0.086,1.433,0.484,3.501,0.977,5.272
	c1.021,3.684,6.41,7.393,8.707,7.393c2.295,0,7.684-3.709,8.707-7.393c0.492-1.771,0.891-3.84,0.975-5.272
	C28.302,8.955,25.024,3.408,18.212,3.408z"/>
<path fill="#D47706" d="M18.21,22.963c-1.596-0.702-1.607-0.028-4.072,0.137c0.924,1.051,1.605,2.4,4.072,2.4
	c2.83,0,3.309-1.533,4.076-2.4C19.819,22.935,19.808,22.261,18.21,22.963z"/>
<path fill="#FFFFFF" d="M14.878,23.361c1.607,1.674,5.078,1.652,6.666,0.001C19.067,23.628,17.354,23.628,14.878,23.361z"/>
<path fill="#966F42" d="M25.448,13.714c-1.479-0.882-4.133-0.99-5.184-0.389c-0.223,0.121-0.162,0.759,0.029,0.679
	c1.498-0.623,3.781-0.654,5.188,0.066C25.669,14.166,25.673,13.843,25.448,13.714z"/>
<path fill="#966F42" d="M10.974,13.714c1.479-0.882,4.133-0.99,5.186-0.389c0.223,0.121,0.162,0.759-0.031,0.679
	c-1.498-0.623-3.777-0.655-5.186,0.066C10.753,14.166,10.749,13.843,10.974,13.714z"/>
<path fill="#DB9D3A" d="M19.743,20.699c-0.164-0.113-0.543,0.062-1.533,0.062c-0.988,0-1.367-0.175-1.531-0.062
	c-0.193,0.137,0.115,0.754,1.531,0.754S19.938,20.837,19.743,20.699z"/>
<path id="Path_1022_" fill="#FFFFFF" d="M16.696,16.39c0.057,0.45-0.248,0.985-1.096,1.386c-0.539,0.255-1.658,0.555-3.129-0.066
	c-0.658-0.277-1.301-1.143-1.244-1.621C12.026,14.584,15.95,14.364,16.696,16.39z"/>
<linearGradient id="Oval_1_" gradientUnits="userSpaceOnUse" x1="-426.2866" y1="479.54" x2="-426.2866" y2="480.0088" gradientTransform="matrix(6.5701 0 0 -6.5701 2814.7805 3168.5281)">
	<stop  offset="0" style="stop-color:#A6694A"/>
	<stop  offset="1" style="stop-color:#4F2A1E"/>
	<a:midPointStop  offset="0" style="stop-color:#A6694A"/>
	<a:midPointStop  offset="0.5" style="stop-color:#A6694A"/>
	<a:midPointStop  offset="1" style="stop-color:#4F2A1E"/>
</linearGradient>
<circle id="Oval_144_" fill="url(#Oval_1_)" cx="14.032" cy="16.359" r="1.542"/>
<path id="Path_1021_" fill="#1A1626" d="M13.263,16.331c0,1.066,1.543,1.066,1.543,0C14.806,15.341,13.263,15.341,13.263,16.331z"/>
<path id="Path_1020_" fill="#AB968C" d="M13.028,15.899c0,0.447,0.646,0.447,0.646,0C13.675,15.485,13.028,15.485,13.028,15.899z"/>
<path id="Path_1019_" fill="#45332C" d="M16.704,16.449c-0.627-2.012-4.895-1.715-5.477-0.361
	C11.442,14.354,16.169,13.897,16.704,16.449z"/>
<path id="Path_1018_" fill="#FFFFFF" d="M19.728,16.39c-0.059,0.45,0.248,0.985,1.094,1.386c0.539,0.255,1.658,0.555,3.129-0.066
	c0.66-0.277,1.303-1.143,1.244-1.621C24.397,14.584,20.474,14.364,19.728,16.39z"/>
<linearGradient id="Oval_2_" gradientUnits="userSpaceOnUse" x1="-427.7192" y1="479.54" x2="-427.7192" y2="480.0088" gradientTransform="matrix(6.5701 0 0 -6.5701 2832.511 3168.5281)">
	<stop  offset="0" style="stop-color:#A6694A"/>
	<stop  offset="1" style="stop-color:#4F2A1E"/>
	<a:midPointStop  offset="0" style="stop-color:#A6694A"/>
	<a:midPointStop  offset="0.5" style="stop-color:#A6694A"/>
	<a:midPointStop  offset="1" style="stop-color:#4F2A1E"/>
</linearGradient>
<circle id="Oval_143_" fill="url(#Oval_2_)" cx="22.354" cy="16.359" r="1.542"/>
<path id="Path_1017_" fill="#1A1626" d="M21.585,16.331c0,1.066,1.541,1.066,1.541,0C23.126,15.341,21.585,15.341,21.585,16.331z"/>
<path id="Path_1016_" fill="#AB968C" d="M21.351,15.899c0,0.447,0.646,0.447,0.646,0C21.997,15.485,21.351,15.485,21.351,15.899z"/>
<path id="Path_1015_" fill="#45332C" d="M19.72,16.449c0.625-2.011,4.891-1.723,5.475-0.361
	C24.979,14.354,20.253,13.897,19.72,16.449z"/>
<linearGradient id="SVGID_3_" gradientUnits="userSpaceOnUse" x1="18.2109" y1="30.1592" x2="18.2109" y2="2.0699">
	<stop  offset="0.05" style="stop-color:#473834"/>
	<stop  offset="0.2266" style="stop-color:#594640"/>
	<stop  offset="0.5197" style="stop-color:#715950"/>
	<stop  offset="0.7" style="stop-color:#7A6056"/>
	<a:midPointStop  offset="0.05" style="stop-color:#473834"/>
	<a:midPointStop  offset="0.4" style="stop-color:#473834"/>
	<a:midPointStop  offset="0.7" style="stop-color:#7A6056"/>
</linearGradient>
<path fill="url(#SVGID_3_)" d="M25.878,4.404c0.777-1.11-5.811-3.455-12.031-1.871C7.634,3.956,4.605,13.265,4.605,19.353
	c0.537,0.441,3.485-0.658,4.116-1.382c0.258-1.065,0.662-2.162,1.041-3.298c4.666-2.701,9.947-3.338,13.611-6.571
	c-0.469,1.408,2.016,3.185,3.285,6.571c0.412,1.099,0.781,2.199,1.043,3.298c1.035,0.953,2.677,1.403,4.114,1.382
	C31.816,14.204,28.368,3.686,25.878,4.404z"/>
<path fill="#473834" d="M5.249,18.427c4.299-5.723,18.221-5.335,20.629-14.022C21.204,11.695,6.425,12.926,5.249,18.427z"/>
<path id="Path_1014_" fill="#FFCC66" d="M54.589,13.999c-1.573,0.19-2.708,5.455-1.721,6.844c0.14,0.193,0.95,0.504,1.55-0.723
	c0.333-0.679,1.293-1.245,1.59-2.646C56.389,15.68,56.152,13.809,54.589,13.999z"/>
<path id="Path_1013_" fill="#FFCC66" d="M34.279,13.999c1.573,0.19,2.708,5.455,1.718,6.844c-0.138,0.193-0.948,0.504-1.55-0.723
	c-0.331-0.679-1.292-1.245-1.59-2.646C32.477,15.68,32.715,13.809,34.279,13.999z"/>
<path id="Path_1012_" fill="#DB9D3A" d="M54.544,15.009c-0.408,0.129-0.855,0.754-1.1,1.791c1.434-0.308,1.076,2.08-0.171,2.125
	c0.012,0.24,0.027,0.488,0.058,0.748c0.601-0.872,1.21-0.521,1.814-1.819C55.69,16.684,55.561,14.688,54.544,15.009z"/>
<path id="Path_1011_" fill="#DB9D3A" d="M35.422,16.798c-0.242-1.036-0.689-1.661-1.1-1.789c-1.016-0.32-1.146,1.675-0.601,2.845
	c0.603,1.298,1.214,0.947,1.815,1.819c0.029-0.261,0.045-0.508,0.055-0.749C34.359,18.866,34.006,16.507,35.422,16.798z"/>
<path id="Path_1010_" fill="#FFCC66" d="M44.433,3.878c-6.81,0-10.091,5.153-9.681,12.318c0.083,1.441,0.976,6.143,1.818,7.829
	c0.866,1.727,3.752,4.387,5.521,4.938c1.118,0.347,3.566,0.347,4.682,0c1.77-0.552,4.66-3.212,5.521-4.938
	c0.846-1.687,1.738-6.387,1.82-7.829C54.526,9.031,51.246,3.878,44.433,3.878z"/>
<path id="Path_1009_" fill="#966F42" d="M51.833,13.474c-1.557-0.825-4.538-0.865-5.649-0.29c-0.238,0.11-0.08,0.893,0.119,0.817
	c1.548-0.611,4.045-0.625,5.493,0.053C51.988,14.142,52.068,13.588,51.833,13.474z"/>
<path id="Path_1008_" fill="#966F42" d="M37.032,13.474c1.56-0.825,4.538-0.865,5.65-0.29c0.237,0.11,0.08,0.893-0.12,0.817
	c-1.55-0.611-4.043-0.625-5.493,0.053C36.877,14.142,36.798,13.588,37.032,13.474z"/>
<path id="Path_1007_" fill="#DB9D3A" d="M46.272,20.629c-0.194-0.136-0.651,0.073-1.84,0.073c-1.186,0-1.643-0.209-1.837-0.073
	c-0.233,0.164,0.138,0.905,1.837,0.905C46.135,21.534,46.505,20.793,46.272,20.629z"/>
<path id="Path_1006_" fill="#DB9D3A" d="M44.433,23.436c-1.53-0.45-3.801,0.214-3.801,0.214c0.863,0.942,1.498,2.163,3.801,2.163
	c2.641,0,3.09-1.387,3.803-2.163C48.235,23.649,45.963,22.982,44.433,23.436z"/>
<path id="Path_1005_" fill="#FFFFFF" d="M41.202,23.809c1.605,1.348,4.848,1.357,6.463,0C45.955,23.882,42.926,23.883,41.202,23.809
	z"/>
<path id="Path_978_" fill="#FFFFFF" d="M42.918,16.284c0.058,0.451-0.248,0.985-1.096,1.386c-0.537,0.255-1.657,0.555-3.128-0.065
	c-0.66-0.278-1.302-1.145-1.245-1.623C38.247,14.479,42.172,14.259,42.918,16.284z"/>
<linearGradient id="Oval_3_" gradientUnits="userSpaceOnUse" x1="-437.895" y1="479.5557" x2="-437.895" y2="480.0254" gradientTransform="matrix(6.5701 0 0 -6.5701 2917.2688 3168.5281)">
	<stop  offset="0" style="stop-color:#A6694A"/>
	<stop  offset="1" style="stop-color:#4F2A1E"/>
	<a:midPointStop  offset="0" style="stop-color:#A6694A"/>
	<a:midPointStop  offset="0.5" style="stop-color:#A6694A"/>
	<a:midPointStop  offset="1" style="stop-color:#4F2A1E"/>
</linearGradient>
<circle id="Oval_132_" fill="url(#Oval_3_)" cx="40.255" cy="16.254" r="1.542"/>
<path id="Path_977_" fill="#1A1626" d="M39.484,16.226c0,1.067,1.541,1.067,1.541,0C41.025,15.235,39.484,15.235,39.484,16.226z"/>
<path id="Path_976_" fill="#AB968C" d="M39.25,15.794c0,0.447,0.647,0.447,0.647,0C39.897,15.38,39.25,15.38,39.25,15.794z"/>
<path id="Path_975_" fill="#DB9D3A" d="M42.926,16.344c-0.628-2.013-4.896-1.715-5.477-0.362
	C37.665,14.249,42.393,13.792,42.926,16.344z"/>
<path id="Path_974_" fill="#FFFFFF" d="M45.948,16.284c-0.058,0.451,0.248,0.985,1.095,1.386c0.54,0.255,1.658,0.555,3.131-0.065
	c0.659-0.278,1.302-1.145,1.242-1.623C50.621,14.479,46.695,14.259,45.948,16.284z"/>
<linearGradient id="Oval_4_" gradientUnits="userSpaceOnUse" x1="-439.3267" y1="479.5557" x2="-439.3267" y2="480.0254" gradientTransform="matrix(6.5701 0 0 -6.5701 2934.9993 3168.5281)">
	<stop  offset="0" style="stop-color:#A6694A"/>
	<stop  offset="1" style="stop-color:#4F2A1E"/>
	<a:midPointStop  offset="0" style="stop-color:#A6694A"/>
	<a:midPointStop  offset="0.5" style="stop-color:#A6694A"/>
	<a:midPointStop  offset="1" style="stop-color:#4F2A1E"/>
</linearGradient>
<circle id="Oval_131_" fill="url(#Oval_4_)" cx="48.576" cy="16.254" r="1.542"/>
<path id="Path_973_" fill="#1A1626" d="M47.806,16.226c0,1.067,1.543,1.067,1.543,0C49.349,15.235,47.806,15.235,47.806,16.226z"/>
<path id="Path_972_" fill="#AB968C" d="M47.571,15.794c0,0.447,0.647,0.447,0.647,0C48.219,15.38,47.571,15.38,47.571,15.794z"/>
<path id="Path_971_" fill="#DB9D3A" d="M45.942,16.344c0.625-2.012,4.891-1.724,5.474-0.362
	C51.2,14.249,46.476,13.792,45.942,16.344z"/>
<path fill="#7A6056" d="M53.133,5.585C51.642,3.567,48.913,2,44.433,2c-4.479,0-7.207,1.567-8.698,3.585
	C33.625,8.441,55.243,8.441,53.133,5.585z"/>
<linearGradient id="SVGID_4_" gradientUnits="userSpaceOnUse" x1="-58.0581" y1="17.958" x2="-58.0581" y2="4.7305" gradientTransform="matrix(1 0 0 1 102.4922 0)">
	<stop  offset="0.5" style="stop-color:#473834"/>
	<stop  offset="0.6387" style="stop-color:#503F3A"/>
	<stop  offset="0.8641" style="stop-color:#68524A"/>
	<stop  offset="1" style="stop-color:#7A6056"/>
	<a:midPointStop  offset="0.5" style="stop-color:#473834"/>
	<a:midPointStop  offset="0.6" style="stop-color:#473834"/>
	<a:midPointStop  offset="1" style="stop-color:#7A6056"/>
</linearGradient>
<path fill="url(#SVGID_4_)" d="M53.133,5.585c-1.491-2.018-4.22,0.171-8.7,0.171c-4.479,0-7.207-2.188-8.698-0.171
	c-2.109,2.856-1.393,12.373-0.454,12.373c0.149,0,0.17-3.329,0.454-5.632c0.23-1.875,0.678-3.693,1.188-3.99
	c1.564-0.907,4.58,0.39,7.51,0.39c2.933,0,5.948-1.297,7.512-0.39c0.512,0.297,0.956,2.115,1.188,3.99
	c0.283,2.303,0.304,5.632,0.455,5.632C54.526,17.958,55.243,8.441,53.133,5.585z"/>
<path fill="#8FEAFF" d="M40.354,55.146c-0.85-1.091-4.963-2.425-4.963-2.425l-7.792,0.013c0,0-4.089,1.33-4.937,2.414
	C21.27,56.932,20.759,62,20.759,62h21.473C42.231,62,41.744,56.932,40.354,55.146z"/>
<path fill="#67DBF5" d="M27.599,52.734c0,3.241,7.792,3.229,7.792-0.013l-0.781-0.274h-6.195L27.599,52.734z"/>
<path fill="#E6B045" d="M28.156,52.538c0,2.538,6.679,2.538,6.679,0c0-0.862,0-2.808,0-2.808h-6.679
	C28.156,49.73,28.156,51.676,28.156,52.538z"/>
<path fill="#67DBF5" d="M24.627,62h-0.299C24.328,58.32,24.627,58.32,24.627,62z"/>
<path fill="#67DBF5" d="M38.662,62h-0.3C38.362,58.32,38.662,58.32,38.662,62z"/>
<path id="Path_341_" fill="#FFCC66" d="M22.937,42.108c1.066,0.13,1.834,3.729,1.166,4.679c-0.096,0.134-0.645,0.346-1.051-0.493
	c-0.227-0.464-0.877-0.852-1.078-1.81C21.716,43.258,21.878,41.979,22.937,42.108z"/>
<path id="Path_340_" fill="#DB9D3A" d="M22.966,42.799c0.277,0.088,0.582,0.516,0.746,1.226c-0.973-0.211-0.729,1.422,0.115,1.452
	c-0.008,0.165-0.018,0.334-0.039,0.512c-0.406-0.596-0.82-0.357-1.229-1.244C22.19,43.945,22.278,42.581,22.966,42.799z"/>
<path id="Path_339_" fill="#FFCC66" d="M40.052,42.108c-1.064,0.13-1.834,3.729-1.164,4.679c0.094,0.134,0.643,0.346,1.051-0.493
	c0.225-0.464,0.875-0.852,1.076-1.81C41.274,43.258,41.112,41.979,40.052,42.108z"/>
<path id="Path_338_" fill="#DB9D3A" d="M39.278,44.021c0.164-0.708,0.467-1.135,0.744-1.223c0.689-0.219,0.777,1.146,0.408,1.945
	c-0.41,0.887-0.822,0.648-1.23,1.244c-0.02-0.178-0.031-0.348-0.037-0.512C39.997,45.436,40.237,43.824,39.278,44.021z"/>
<path fill="#FFCC66" d="M31.495,32.858c-5.822,0-8.627,4.404-8.275,10.528c0.07,1.232,0.834,4.047,1.557,5.489
	c1.273,2.545,4.6,4.442,6.719,4.442c2.117,0,5.447-1.897,6.719-4.442c0.723-1.442,1.486-4.257,1.557-5.489
	C40.122,37.263,37.317,32.858,31.495,32.858z"/>
<path id="Path_337_" fill="#DB9D3A" d="M32.853,46.828c-0.145-0.1-0.482,0.055-1.357,0.055c-0.877,0-1.215-0.154-1.359-0.055
	c-0.17,0.122,0.104,0.669,1.359,0.669C32.749,47.497,33.024,46.95,32.853,46.828z"/>
<path id="Path_336_" fill="#DB9D3A" d="M31.495,48.78c-1.313-0.386-3.258,0.184-3.258,0.184c0.74,0.808,1.283,1.853,3.258,1.853
	c2.262,0,2.646-1.188,3.258-1.853C34.753,48.964,32.806,48.393,31.495,48.78z"/>
<path id="Path_335_" fill="#FFFFFF" d="M28.726,49.1c1.375,1.155,4.154,1.162,5.539,0C32.798,49.162,30.202,49.164,28.726,49.1z"/>
<path id="Path_334_" fill="#FFFFFF" d="M30.239,43.832c0.047,0.374-0.205,0.816-0.908,1.148c-0.445,0.211-1.373,0.459-2.592-0.055
	c-0.545-0.23-1.078-0.947-1.029-1.344C26.37,42.336,29.62,42.154,30.239,43.832z"/>
<linearGradient id="Oval_5_" gradientUnits="userSpaceOnUse" x1="-424.1558" y1="475.4023" x2="-424.1558" y2="475.791" gradientTransform="matrix(6.5701 0 0 -6.5701 2814.7805 3168.5281)">
	<stop  offset="0" style="stop-color:#A6694A"/>
	<stop  offset="1" style="stop-color:#4F2A1E"/>
	<a:midPointStop  offset="0" style="stop-color:#A6694A"/>
	<a:midPointStop  offset="0.5" style="stop-color:#A6694A"/>
	<a:midPointStop  offset="1" style="stop-color:#4F2A1E"/>
</linearGradient>
<circle id="Oval_44_" fill="url(#Oval_5_)" cx="28.034" cy="43.807" r="1.277"/>
<path id="Path_333_" fill="#1A1626" d="M27.396,43.783c0,0.885,1.277,0.885,1.277,0C28.673,42.963,27.396,42.963,27.396,43.783z"/>
<path id="Path_332_" fill="#AB968C" d="M27.202,43.426c0,0.371,0.535,0.371,0.535,0C27.737,43.082,27.202,43.082,27.202,43.426z"/>
<path id="Path_331_" fill="#DB9D3A" d="M30.245,43.881c-0.518-1.666-4.055-1.421-4.535-0.299
	C25.888,42.146,29.804,41.768,30.245,43.881z"/>
<path id="Path_330_" fill="#FFFFFF" d="M32.751,43.832c-0.049,0.374,0.205,0.816,0.906,1.148c0.445,0.211,1.373,0.459,2.594-0.055
	c0.545-0.23,1.078-0.947,1.029-1.344C36.62,42.336,33.368,42.154,32.751,43.832z"/>
<linearGradient id="Oval_6_" gradientUnits="userSpaceOnUse" x1="-425.8052" y1="475.4023" x2="-425.8052" y2="475.791" gradientTransform="matrix(6.5701 0 0 -6.5701 2832.511 3168.5281)">
	<stop  offset="0" style="stop-color:#A6694A"/>
	<stop  offset="1" style="stop-color:#4F2A1E"/>
	<a:midPointStop  offset="0" style="stop-color:#A6694A"/>
	<a:midPointStop  offset="0.5" style="stop-color:#A6694A"/>
	<a:midPointStop  offset="1" style="stop-color:#4F2A1E"/>
</linearGradient>
<circle id="Oval_43_" fill="url(#Oval_6_)" cx="34.927" cy="43.807" r="1.277"/>
<path id="Path_329_" fill="#1A1626" d="M34.29,43.783c0,0.885,1.277,0.885,1.277,0C35.567,42.963,34.29,42.963,34.29,43.783z"/>
<path id="Path_328_" fill="#AB968C" d="M34.095,43.426c0,0.371,0.535,0.371,0.535,0C34.63,43.082,34.095,43.082,34.095,43.426z"/>
<path id="Path_327_" fill="#DB9D3A" d="M32.745,43.881c0.518-1.666,4.051-1.427,4.535-0.299
	C37.101,42.146,33.187,41.768,32.745,43.881z"/>
<path id="Path_326_" fill="#DB9D3A" d="M37.362,41.842c-1.098-0.693-3.311-0.895-4.178-0.539c-0.186,0.066-0.125,0.647,0.029,0.605
	c1.195-0.357,3.051-0.224,4.078,0.355C37.431,42.34,37.53,41.939,37.362,41.842z"/>
<path id="Path_325_" fill="#DB9D3A" d="M25.626,41.842c1.1-0.693,3.311-0.895,4.178-0.539c0.186,0.066,0.125,0.647-0.029,0.605
	c-1.195-0.357-3.049-0.224-4.08,0.355C25.558,42.34,25.458,41.939,25.626,41.842z"/>
<linearGradient id="SVGID_5_" gradientUnits="userSpaceOnUse" x1="31.4946" y1="45.4199" x2="31.4946" y2="31.6548">
	<stop  offset="0" style="stop-color:#473834"/>
	<stop  offset="0.2717" style="stop-color:#594640"/>
	<stop  offset="0.7226" style="stop-color:#715950"/>
	<stop  offset="1" style="stop-color:#7A6056"/>
	<a:midPointStop  offset="0" style="stop-color:#473834"/>
	<a:midPointStop  offset="0.4" style="stop-color:#473834"/>
	<a:midPointStop  offset="1" style="stop-color:#7A6056"/>
</linearGradient>
<path fill="url(#SVGID_5_)" d="M31.485,32.457c-0.525,0-1.012,0.033-1.48,0.083c0.195-0.204,0.438-0.362,0.773-0.424
	c-0.689-0.187-1.467-0.101-2.072,0.347c-0.127-0.217-0.18-0.494-0.053-0.809c-0.846,0.514-1.006,1.133-1.006,1.133
	c-0.242-0.391-0.254-0.903-0.254-0.903s-0.912,0.644-0.779,1.585c-0.814-0.355-1.498,0.059-1.498,0.059s0.4,0.171,0.592,0.529
	c-4.555,3.307-2.996,10.658-2.131,11.363c0,0,0.256-5.492,2.574-7.131c-0.125,1.036-0.402,1.768-0.402,1.768
	s2.275-0.359,4.279-1.639c-0.232,1.146-0.859,1.965-0.859,1.965s4.137-0.576,5.365-2.524c0,0,0.811,1.706,2.816,2.935
	c0,0,0.125-1.279-0.15-2.184c1.967,1.934,2.197,6.803,2.197,6.803C40.548,44.381,42.8,32.457,31.485,32.457z"/>
<path fill="#473834" d="M37.063,37.75l0.203,1.132c0,0,1.676,2.194,2.131,6.53C39.608,40.726,37.063,37.75,37.063,37.75z"/>
<path fill="#473834" d="M36.837,37.328c0,0,1.229,1.529,0.514,3.465C37.442,39.277,36.837,37.328,36.837,37.328z"/>
<path fill="#473834" d="M34.808,36.789c0.273,3.928-5.686,3.596-5.639,3.594C29.169,40.383,34.288,39.402,34.808,36.789z"/>
<path fill="#473834" d="M31.22,37.14c-1.119,3.167-5.229,2.894-5.471,2.917C25.749,40.057,29.423,38.994,31.22,37.14z"/>
<path fill="#473834" d="M26.493,37.879c-2.676,3.135-2.916,7.541-2.916,7.541S22.87,40.688,26.493,37.879z"/>
<path fill="#FFCC66" d="M59.493,45.084c-0.045-1.624-0.136-4.793-0.136-4.793s-2.856,1.676-6.189,1.809
	c0.118,1.82,0.395,2.984,0.395,2.984c-3.16,1.109-9.138,6.839-11.638,7.638c-1.764,0.563-3.588-0.201-4.588,0.769
	c0.781,0.359,1.094,0.48,1.094,0.48c0.968,1.184-3.68,2.917-2.191,4.029c0.573,0.57,2.51,2.372,5.439-0.94
	c0.232-0.263,1.408-1.542,2.2-1.708c2.064-0.434,11.573-3.855,14.948-6.479C59.33,48.482,59.53,46.44,59.493,45.084z"/>
<path fill="#DB9D3A" d="M38.968,56.061c0,0-1.768,1.02-2.729,1.939C37.562,57.122,38.968,56.061,38.968,56.061z"/>
<path fill="#DB9D3A" d="M39.874,56.466c0,0-2.003,1.318-2.886,2.137C38.361,57.81,39.874,56.466,39.874,56.466z"/>
<path fill="#DB9D3A" d="M40.53,57.138c0,0-1.734,1.188-2.723,1.802C38.733,58.731,40.53,57.138,40.53,57.138z"/>
<path fill="#FFCC66" d="M5.956,31.724c1.242-1.668,2.628-2.09,2.628-2.09c-0.645,11.38,0.835,15.713,0.835,15.713
	c3,2.083,8.938,6.639,11.438,7.438c1.764,0.563,3.797-0.264,4.797,0.706c-0.781,0.359-1.094,0.48-1.094,0.48
	c-0.968,1.184,3.68,2.917,2.191,4.029c-0.573,0.57-2.51,2.372-5.439-0.94c-0.232-0.263-1.492-1.317-2.2-1.708
	c-2.234-1.234-10.095-4.166-13.47-6.788c-0.448-0.349-1.146-1.579-1.146-2.644C4.495,42.24,4.605,33.537,5.956,31.724z"/>
<path fill="#DB9D3A" d="M24.022,56.061c0,0,1.768,1.02,2.729,1.939C25.429,57.122,24.022,56.061,24.022,56.061z"/>
<path fill="#DB9D3A" d="M23.116,56.466c0,0,2.003,1.318,2.886,2.137C24.629,57.81,23.116,56.466,23.116,56.466z"/>
<path fill="#DB9D3A" d="M22.46,57.138c0,0,1.734,1.188,2.723,1.802C24.257,58.731,22.46,57.138,22.46,57.138z"/>
</svg>
