<?xml version="1.0" encoding="utf-8"?>
<!-- Generator: Adobe Illustrator 15.0.0, SVG Export Plug-In . SVG Version: 6.00 Build 0)  -->
<!DOCTYPE svg PUBLIC "-//W3C//DTD SVG 1.1//EN" "http://www.w3.org/Graphics/SVG/1.1/DTD/svg11.dtd" [
	<!ENTITY ns_flows "http://ns.adobe.com/Flows/1.0/">
	<!ENTITY ns_extend "http://ns.adobe.com/Extensibility/1.0/">
	<!ENTITY ns_ai "http://ns.adobe.com/AdobeIllustrator/10.0/">
	<!ENTITY ns_graphs "http://ns.adobe.com/Graphs/1.0/">
]>
<svg version="1.1" id="Layer_1" xmlns:x="&ns_extend;" xmlns:i="&ns_ai;" xmlns:graph="&ns_graphs;"
	 xmlns="http://www.w3.org/2000/svg" xmlns:xlink="http://www.w3.org/1999/xlink" xmlns:a="http://ns.adobe.com/AdobeSVGViewerExtensions/3.0/"
	 x="0px" y="0px" width="64px" height="64px" viewBox="0 0 64 64" enable-background="new 0 0 64 64" xml:space="preserve">
<path fill="#473834" d="M36.691,29.691c9.389-3.755,8.449-12.673,8.449-12.673H18.857c0,0-0.939,8.918,8.447,12.673
	c0,0,1.879,0.47,4.693,0.47C34.816,30.161,36.691,29.691,36.691,29.691z"/>
<linearGradient id="SVGID_1_" gradientUnits="userSpaceOnUse" x1="41.1484" y1="30.1592" x2="41.1484" y2="2.0702">
	<stop  offset="0.05" style="stop-color:#473834"/>
	<stop  offset="0.2266" style="stop-color:#594640"/>
	<stop  offset="0.5197" style="stop-color:#715950"/>
	<stop  offset="0.7" style="stop-color:#7A6056"/>
	<a:midPointStop  offset="0.05" style="stop-color:#473834"/>
	<a:midPointStop  offset="0.4" style="stop-color:#473834"/>
	<a:midPointStop  offset="0.7" style="stop-color:#7A6056"/>
</linearGradient>
<path fill="url(#SVGID_1_)" d="M41.49,17.971c0.959,4.043,0.453,8.046-4.799,11.721c5.635-0.938,8.914-6.258,8.914-10.339
	L41.49,17.971z"/>
<linearGradient id="SVGID_2_" gradientUnits="userSpaceOnUse" x1="1757.9639" y1="30.1592" x2="1757.9639" y2="2.0702" gradientTransform="matrix(-1 0 0 1 1780.8145 0)">
	<stop  offset="0.05" style="stop-color:#473834"/>
	<stop  offset="0.2266" style="stop-color:#594640"/>
	<stop  offset="0.5197" style="stop-color:#715950"/>
	<stop  offset="0.7" style="stop-color:#7A6056"/>
	<a:midPointStop  offset="0.05" style="stop-color:#473834"/>
	<a:midPointStop  offset="0.4" style="stop-color:#473834"/>
	<a:midPointStop  offset="0.7" style="stop-color:#7A6056"/>
</linearGradient>
<path fill="url(#SVGID_2_)" d="M22.51,17.971c-0.961,4.043-0.453,8.046,4.797,11.721c-5.633-0.938-8.912-6.258-8.912-10.339
	L22.51,17.971z"/>
<path fill="#8E3ED6" d="M40.879,47.001c0.049-3.23,0.715-2.712,1.275-6.918c0.346-2.592-0.508-10.449-0.508-10.449l-3.592-1.316
	h-12.09l-3.592,1.316c0,0-0.854,7.857-0.508,10.449c0.561,4.206,1.227,3.688,1.275,6.918C23.178,49.386,20.877,62,20.877,62h22.266
	C43.143,62,40.842,49.386,40.879,47.001z"/>
<path fill="#FFCC66" d="M38.037,28.328c0,3.939-5.154,6.304-6.027,6.304c-0.877,0-6.045-2.366-6.045-6.314l1.889-0.665h8.271
	L38.037,28.328z"/>
<path fill="#FFCC66" d="M36.469,27.79c0,3.826-8.918,3.826-8.918,0c0-1.302,0-4.233,0-4.233h8.918
	C36.469,23.556,36.469,26.488,36.469,27.79z"/>
<path fill="#E6B045" d="M25.768,22.91c0.73,3.576,4.59,7.178,6.232,7.178s5.5-3.602,6.23-7.178
	C38.582,21.191,25.418,21.191,25.768,22.91z"/>
<path fill="#FFCC66" d="M32,3.408c-6.813,0-10.092,5.547-9.684,12.68c0.086,1.433,0.484,3.501,0.977,5.272
	c1.021,3.684,6.41,7.393,8.707,7.393c2.295,0,7.684-3.709,8.707-7.393c0.492-1.771,0.891-3.84,0.975-5.272
	C42.09,8.955,38.813,3.408,32,3.408z"/>
<path fill="#D47706" d="M31.998,22.963c-1.596-0.702-1.607-0.028-4.072,0.137c0.924,1.051,1.605,2.4,4.072,2.4
	c2.83,0,3.309-1.533,4.076-2.4C33.607,22.935,33.596,22.261,31.998,22.963z"/>
<path fill="#FFFFFF" d="M28.666,23.361c1.607,1.674,5.078,1.652,6.666,0.001C32.855,23.628,31.143,23.628,28.666,23.361z"/>
<path fill="#966F42" d="M39.236,13.714c-1.479-0.882-4.133-0.99-5.184-0.389c-0.223,0.121-0.162,0.759,0.029,0.679
	c1.498-0.623,3.781-0.654,5.188,0.066C39.457,14.166,39.461,13.843,39.236,13.714z"/>
<path fill="#966F42" d="M24.762,13.714c1.479-0.882,4.133-0.99,5.186-0.389c0.223,0.121,0.162,0.759-0.031,0.679
	c-1.498-0.623-3.777-0.655-5.186,0.066C24.541,14.166,24.537,13.843,24.762,13.714z"/>
<path fill="#DB9D3A" d="M33.531,20.699c-0.164-0.113-0.543,0.062-1.533,0.062c-0.988,0-1.367-0.175-1.531-0.062
	c-0.193,0.137,0.115,0.754,1.531,0.754S33.727,20.837,33.531,20.699z"/>
<path id="Path_1348_" fill="#FFFFFF" d="M30.484,16.39c0.057,0.45-0.248,0.985-1.096,1.386c-0.539,0.255-1.658,0.555-3.129-0.066
	c-0.658-0.277-1.301-1.143-1.244-1.621C25.814,14.584,29.738,14.364,30.484,16.39z"/>
<linearGradient id="Oval_1_" gradientUnits="userSpaceOnUse" x1="-424.188" y1="479.54" x2="-424.188" y2="480.0088" gradientTransform="matrix(6.5701 0 0 -6.5701 2814.7805 3168.5281)">
	<stop  offset="0" style="stop-color:#A6694A"/>
	<stop  offset="1" style="stop-color:#4F2A1E"/>
	<a:midPointStop  offset="0" style="stop-color:#A6694A"/>
	<a:midPointStop  offset="0.5" style="stop-color:#A6694A"/>
	<a:midPointStop  offset="1" style="stop-color:#4F2A1E"/>
</linearGradient>
<circle id="Oval_182_" fill="url(#Oval_1_)" cx="27.82" cy="16.359" r="1.542"/>
<path id="Path_1347_" fill="#1A1626" d="M27.051,16.331c0,1.066,1.543,1.066,1.543,0C28.594,15.341,27.051,15.341,27.051,16.331z"/>
<path id="Path_1346_" fill="#AB968C" d="M26.816,15.899c0,0.447,0.646,0.447,0.646,0C27.463,15.485,26.816,15.485,26.816,15.899z"/>
<path id="Path_1345_" fill="#45332C" d="M30.492,16.449c-0.627-2.012-4.895-1.715-5.477-0.361
	C25.23,14.354,29.957,13.897,30.492,16.449z"/>
<path id="Path_1344_" fill="#FFFFFF" d="M33.516,16.39c-0.059,0.45,0.248,0.985,1.094,1.386c0.539,0.255,1.658,0.555,3.129-0.066
	c0.66-0.277,1.303-1.143,1.244-1.621C38.186,14.584,34.262,14.364,33.516,16.39z"/>
<linearGradient id="Oval_2_" gradientUnits="userSpaceOnUse" x1="-425.6206" y1="479.54" x2="-425.6206" y2="480.0088" gradientTransform="matrix(6.5701 0 0 -6.5701 2832.511 3168.5281)">
	<stop  offset="0" style="stop-color:#A6694A"/>
	<stop  offset="1" style="stop-color:#4F2A1E"/>
	<a:midPointStop  offset="0" style="stop-color:#A6694A"/>
	<a:midPointStop  offset="0.5" style="stop-color:#A6694A"/>
	<a:midPointStop  offset="1" style="stop-color:#4F2A1E"/>
</linearGradient>
<circle id="Oval_181_" fill="url(#Oval_2_)" cx="36.143" cy="16.359" r="1.542"/>
<path id="Path_1343_" fill="#1A1626" d="M35.373,16.331c0,1.066,1.541,1.066,1.541,0C36.914,15.341,35.373,15.341,35.373,16.331z"/>
<path id="Path_1342_" fill="#AB968C" d="M35.139,15.899c0,0.447,0.646,0.447,0.646,0C35.785,15.485,35.139,15.485,35.139,15.899z"/>
<path id="Path_1341_" fill="#45332C" d="M33.508,16.449c0.625-2.011,4.891-1.723,5.475-0.361
	C38.768,14.354,34.041,13.897,33.508,16.449z"/>
<linearGradient id="SVGID_3_" gradientUnits="userSpaceOnUse" x1="32.0005" y1="30.1592" x2="32.0005" y2="2.0699">
	<stop  offset="0.05" style="stop-color:#473834"/>
	<stop  offset="0.2266" style="stop-color:#594640"/>
	<stop  offset="0.5197" style="stop-color:#715950"/>
	<stop  offset="0.7" style="stop-color:#7A6056"/>
	<a:midPointStop  offset="0.05" style="stop-color:#473834"/>
	<a:midPointStop  offset="0.4" style="stop-color:#473834"/>
	<a:midPointStop  offset="0.7" style="stop-color:#7A6056"/>
</linearGradient>
<path fill="url(#SVGID_3_)" d="M39.666,4.404c0.777-1.11-5.811-3.455-12.031-1.871c-6.213,1.423-9.24,10.731-9.24,16.819
	c0.537,0.441,3.484-0.658,4.115-1.382c0.258-1.065,0.662-2.162,1.041-3.298c4.666-2.701,9.947-3.338,13.611-6.571
	c-0.469,1.408,2.016,3.185,3.285,6.571c0.412,1.099,0.781,2.199,1.043,3.298c1.035,0.953,2.678,1.403,4.115,1.382
	C45.605,14.204,42.156,3.686,39.666,4.404z"/>
<path fill="#473834" d="M19.037,18.427c4.299-5.723,18.221-5.335,20.629-14.022C34.992,11.695,20.213,12.926,19.037,18.427z"/>
<path fill="#FF9ED2" d="M40.86,55.146c-0.85-1.091-4.963-2.425-4.963-2.425l-7.792,0.012c0,0-4.089,1.33-4.937,2.415
	C21.776,56.932,21.266,62,21.266,62h21.473C42.738,62,42.251,56.931,40.86,55.146z"/>
<path fill="#FF82C5" d="M28.105,52.733c0,3.242,7.792,3.229,7.792-0.012l-0.781-0.275h-6.195L28.105,52.733z"/>
<path fill="#E6B045" d="M28.663,52.538c0,2.537,6.679,2.537,6.679,0c0-0.863,0-2.808,0-2.808h-6.679
	C28.663,49.73,28.663,51.675,28.663,52.538z"/>
<path fill="#FF82C5" d="M25.134,62h-0.299C24.835,58.319,25.134,58.319,25.134,62z"/>
<path fill="#FF82C5" d="M39.169,62h-0.3C38.869,58.319,39.169,58.319,39.169,62z"/>
<path fill="#473834" d="M39.649,42.626c6.455,4.266,0.781,8.151,2.619,9.989C38.698,55.098,29.958,50.821,39.649,42.626z"/>
<path fill="#473834" d="M24.351,42.626c-6.455,4.266-0.779,8.151-2.617,9.989C25.304,55.098,34.044,50.821,24.351,42.626z"/>
<linearGradient id="SVGID_4_" gradientUnits="userSpaceOnUse" x1="32.0005" y1="45.2939" x2="32.0005" y2="31.6548">
	<stop  offset="0" style="stop-color:#473834"/>
	<stop  offset="0.2717" style="stop-color:#594640"/>
	<stop  offset="0.7226" style="stop-color:#715950"/>
	<stop  offset="1" style="stop-color:#7A6056"/>
	<a:midPointStop  offset="0" style="stop-color:#473834"/>
	<a:midPointStop  offset="0.4" style="stop-color:#473834"/>
	<a:midPointStop  offset="1" style="stop-color:#7A6056"/>
</linearGradient>
<path fill="url(#SVGID_4_)" d="M32.001,31.654c-6.787,0.004-11.082,5.974-8.439,13.64h16.877
	C43.081,37.628,38.786,31.658,32.001,31.654z"/>
<path id="Path_1937_" fill="#FFCC66" d="M23.442,42.108c1.066,0.129,1.834,3.729,1.166,4.679c-0.096,0.134-0.645,0.345-1.051-0.493
	c-0.227-0.465-0.877-0.852-1.078-1.81C22.222,43.257,22.384,41.979,23.442,42.108z"/>
<path id="Path_1936_" fill="#DB9D3A" d="M23.472,42.798c0.277,0.088,0.582,0.516,0.746,1.227c-0.973-0.211-0.729,1.422,0.115,1.452
	c-0.008,0.165-0.018,0.333-0.039,0.511c-0.406-0.596-0.82-0.356-1.229-1.244C22.696,43.944,22.784,42.581,23.472,42.798z"/>
<path id="Path_1935_" fill="#FFCC66" d="M40.558,42.108c-1.064,0.129-1.834,3.729-1.164,4.679c0.094,0.134,0.643,0.345,1.051-0.493
	c0.225-0.465,0.875-0.852,1.076-1.81C41.78,43.257,41.618,41.978,40.558,42.108z"/>
<path id="Path_1934_" fill="#DB9D3A" d="M39.784,44.021c0.164-0.708,0.467-1.136,0.744-1.224c0.689-0.219,0.777,1.146,0.408,1.945
	c-0.41,0.888-0.822,0.648-1.23,1.244c-0.02-0.178-0.031-0.348-0.037-0.512C40.503,45.436,40.743,43.823,39.784,44.021z"/>
<path fill="#FFCC66" d="M32.001,32.858c-5.822,0-8.627,4.404-8.275,10.528c0.07,1.231,0.834,4.047,1.557,5.489
	c1.273,2.545,4.6,4.442,6.719,4.442c2.117,0,5.447-1.897,6.719-4.442c0.723-1.442,1.486-4.258,1.557-5.489
	C40.628,37.263,37.823,32.858,32.001,32.858z"/>
<path id="Path_1933_" fill="#DB9D3A" d="M33.358,46.828c-0.145-0.101-0.482,0.054-1.357,0.054c-0.877,0-1.215-0.154-1.359-0.054
	c-0.17,0.122,0.104,0.669,1.359,0.669C33.255,47.497,33.53,46.95,33.358,46.828z"/>
<path id="Path_1932_" fill="#DB9D3A" d="M32.001,48.78c-1.313-0.387-3.258,0.184-3.258,0.184c0.74,0.807,1.283,1.853,3.258,1.853
	c2.262,0,2.646-1.188,3.258-1.853C35.259,48.964,33.312,48.392,32.001,48.78z"/>
<path id="Path_1931_" fill="#FFFFFF" d="M29.231,49.1c1.375,1.155,4.154,1.162,5.539,0C33.304,49.162,30.708,49.163,29.231,49.1z"/>
<path id="Path_1930_" fill="#FFFFFF" d="M30.745,43.831c0.047,0.375-0.205,0.816-0.908,1.148c-0.445,0.212-1.373,0.46-2.592-0.054
	c-0.545-0.23-1.078-0.948-1.029-1.345C26.876,42.336,30.126,42.153,30.745,43.831z"/>
<linearGradient id="Oval_3_" gradientUnits="userSpaceOnUse" x1="-424.0786" y1="475.4023" x2="-424.0786" y2="475.791" gradientTransform="matrix(6.5701 0 0 -6.5701 2814.7805 3168.5281)">
	<stop  offset="0" style="stop-color:#A6694A"/>
	<stop  offset="1" style="stop-color:#4F2A1E"/>
	<a:midPointStop  offset="0" style="stop-color:#A6694A"/>
	<a:midPointStop  offset="0.5" style="stop-color:#A6694A"/>
	<a:midPointStop  offset="1" style="stop-color:#4F2A1E"/>
</linearGradient>
<circle id="Oval_246_" fill="url(#Oval_3_)" cx="28.54" cy="43.807" r="1.277"/>
<path id="Path_1929_" fill="#1A1626" d="M27.901,43.783c0,0.884,1.277,0.884,1.277,0C29.179,42.963,27.901,42.963,27.901,43.783z"/>
<path id="Path_1928_" fill="#AB968C" d="M27.708,43.426c0,0.37,0.535,0.37,0.535,0C28.243,43.082,27.708,43.082,27.708,43.426z"/>
<path id="Path_1927_" fill="#DB9D3A" d="M30.751,43.881c-0.518-1.667-4.055-1.421-4.535-0.3
	C26.394,42.146,30.31,41.767,30.751,43.881z"/>
<path id="Path_1926_" fill="#FFFFFF" d="M33.257,43.831c-0.049,0.375,0.205,0.816,0.906,1.148c0.445,0.212,1.373,0.46,2.594-0.054
	c0.545-0.23,1.078-0.948,1.029-1.345C37.126,42.336,33.874,42.153,33.257,43.831z"/>
<linearGradient id="Oval_4_" gradientUnits="userSpaceOnUse" x1="-425.728" y1="475.4023" x2="-425.728" y2="475.791" gradientTransform="matrix(6.5701 0 0 -6.5701 2832.511 3168.5281)">
	<stop  offset="0" style="stop-color:#A6694A"/>
	<stop  offset="1" style="stop-color:#4F2A1E"/>
	<a:midPointStop  offset="0" style="stop-color:#A6694A"/>
	<a:midPointStop  offset="0.5" style="stop-color:#A6694A"/>
	<a:midPointStop  offset="1" style="stop-color:#4F2A1E"/>
</linearGradient>
<circle id="Oval_245_" fill="url(#Oval_4_)" cx="35.433" cy="43.807" r="1.277"/>
<path id="Path_1925_" fill="#1A1626" d="M34.796,43.783c0,0.884,1.277,0.884,1.277,0C36.073,42.963,34.796,42.963,34.796,43.783z"/>
<path id="Path_1924_" fill="#AB968C" d="M34.601,43.426c0,0.37,0.535,0.37,0.535,0C35.136,43.082,34.601,43.082,34.601,43.426z"/>
<path id="Path_1923_" fill="#DB9D3A" d="M33.251,43.881c0.518-1.667,4.051-1.427,4.535-0.3
	C37.606,42.146,33.692,41.767,33.251,43.881z"/>
<path id="Path_1922_" fill="#DB9D3A" d="M37.868,41.841c-1.098-0.693-3.311-0.895-4.178-0.539c-0.186,0.067-0.125,0.648,0.029,0.605
	c1.195-0.357,3.051-0.223,4.078,0.355C37.937,42.339,38.036,41.938,37.868,41.841z"/>
<path id="Path_1921_" fill="#DB9D3A" d="M26.132,41.841c1.1-0.693,3.311-0.895,4.178-0.539c0.186,0.067,0.125,0.648-0.029,0.605
	c-1.195-0.357-3.049-0.223-4.08,0.355C26.063,42.339,25.964,41.938,26.132,41.841z"/>
<linearGradient id="SVGID_5_" gradientUnits="userSpaceOnUse" x1="32.001" y1="44.833" x2="32.001" y2="31.855">
	<stop  offset="0" style="stop-color:#473834"/>
	<stop  offset="0.2717" style="stop-color:#594640"/>
	<stop  offset="0.7226" style="stop-color:#715950"/>
	<stop  offset="1" style="stop-color:#7A6056"/>
	<a:midPointStop  offset="0" style="stop-color:#473834"/>
	<a:midPointStop  offset="0.4" style="stop-color:#473834"/>
	<a:midPointStop  offset="1" style="stop-color:#7A6056"/>
</linearGradient>
<path fill="url(#SVGID_5_)" d="M31.999,31.854c-3.414,0-6.467,1.895-7.131,4.451c-1.719,1.685-1.979,5.51-0.896,8.527
	c0.141-2.896,1.746-4.354,1.646-7.541c9.592,0,13.893,3.128,14.406,7.541C42.202,38.753,38.772,31.854,31.999,31.854z"/>
<path fill="#473834" d="M40.024,44.833c-1.795-7.715-15.166-7.5-15.166-7.5C24.931,37.325,39.192,35.026,40.024,44.833z"/>
<path fill="#473834" d="M23.972,44.833c-0.123-3.425,1.689-4.967,1.494-8.502C26.216,39.69,24.601,41.358,23.972,44.833z"/>
<path fill="#CFD8DD" d="M40.175,42.216c0.766-11.573-17.117-11.573-16.352,0C24.491,32.496,39.507,32.496,40.175,42.216z"/>
<path fill="#FFFFFF" d="M40.175,41.841c0.766-11.573-17.117-11.573-16.352,0C24.491,32.122,39.507,32.122,40.175,41.841z"/>
<path fill="#FFCC66" d="M26.336,53.433c0,0,0.313-0.118,1.094-0.47c-1-0.948-2.191,0.083-3.293-1.372
	c-1.996-2.637-2.205-11.524-2.205-11.524l0.432-10.433c0,0-1.387,0.413-2.629,2.043c-1.35,1.773-1.65,8.328-1.65,11.928
	c0,2.848,1.926,7.712,3.246,9.896c0.627,1.041,1.52,2.702,1.758,2.953c2.086,2.157,4.225,1.975,4.797,1.418
	C30.176,57.635,25.369,54.59,26.336,53.433z"/>
<path fill="#DB9D3A" d="M25.719,56.088c0,0,1.209,1.49,2.166,1.784C26.768,57.799,25.719,56.088,25.719,56.088z"/>
<path fill="#DB9D3A" d="M24.408,56.136c0,0,1.504,1.799,2.461,2.093C25.752,58.155,24.408,56.136,24.408,56.136z"/>
<path fill="#DB9D3A" d="M23.68,56.374c0,0,1.047,1.428,2.004,1.722C24.564,58.023,23.68,56.374,23.68,56.374z"/>
<path fill="#FFCC66" d="M37.664,53.433c0,0-0.313-0.118-1.094-0.47c1-0.948,2.191,0.083,3.293-1.372
	c1.996-2.637,2.205-11.524,2.205-11.524l-0.432-10.433c0,0,1.387,0.413,2.629,2.043c1.35,1.773,1.65,8.328,1.65,11.928
	c0,2.848-1.926,7.712-3.246,9.896c-0.627,1.041-1.52,2.702-1.758,2.953c-2.086,2.157-4.225,1.975-4.797,1.418
	C33.824,57.635,38.631,54.59,37.664,53.433z"/>
<path fill="#DB9D3A" d="M38.281,56.088c0,0-1.209,1.49-2.166,1.784C37.232,57.799,38.281,56.088,38.281,56.088z"/>
<path fill="#DB9D3A" d="M39.592,56.136c0,0-1.504,1.799-2.461,2.093C38.248,58.155,39.592,56.136,39.592,56.136z"/>
<path fill="#DB9D3A" d="M40.32,56.374c0,0-1.047,1.428-2.004,1.722C39.436,58.023,40.32,56.374,40.32,56.374z"/>
</svg>
