<?xml version="1.0" encoding="utf-8"?>
<!-- Generator: Adobe Illustrator 15.0.0, SVG Export Plug-In . SVG Version: 6.00 Build 0)  -->
<!DOCTYPE svg PUBLIC "-//W3C//DTD SVG 1.1//EN" "http://www.w3.org/Graphics/SVG/1.1/DTD/svg11.dtd" [
	<!ENTITY ns_flows "http://ns.adobe.com/Flows/1.0/">
	<!ENTITY ns_extend "http://ns.adobe.com/Extensibility/1.0/">
	<!ENTITY ns_ai "http://ns.adobe.com/AdobeIllustrator/10.0/">
	<!ENTITY ns_graphs "http://ns.adobe.com/Graphs/1.0/">
]>
<svg version="1.1" id="Layer_1" xmlns:x="&ns_extend;" xmlns:i="&ns_ai;" xmlns:graph="&ns_graphs;"
	 xmlns="http://www.w3.org/2000/svg" xmlns:xlink="http://www.w3.org/1999/xlink" xmlns:a="http://ns.adobe.com/AdobeSVGViewerExtensions/3.0/"
	 x="0px" y="0px" width="64px" height="64px" viewBox="0 0 64 64" enable-background="new 0 0 64 64" xml:space="preserve">
<path fill="#614A36" d="M32.357,35.192c-0.102-0.73-1.486-6.302-2.373-8.773c-0.75-2.085-1.914-7.705-3.445-7.705l-0.16,3.967
	c0,0,0.664,3.577,1.117,4.968c0.438,1.345,0.877,2.675,1.854,4.263c1.605,2.609,1.65,4.817,1.404,5.169
	c-0.48,0.684-0.254,1.449-0.387,1.793c-0.215,0.553,0.66,0.77,0.609,0.375c0.211,0.01,0.484,0.895,0.484,0.895
	c-0.031,0.402,0.084,0.707,0.393,0.418c0.986-0.916,0.744-0.041,1.373-2.23C33.375,37.815,32.457,35.903,32.357,35.192z"/>
<path fill="#614A36" d="M11.842,35.741c0.008-0.717,0.314-5.801,1.088-8.867c0.543-2.148,1.943-8.156,3.475-8.156l0.15,3.963
	c0,0-0.85,4.307-1.148,5.738c-0.25,1.207-0.523,2.275-1.129,3.809c-1.104,2.791-1.086,4.859-0.848,5.188
	c0.594,0.814,0.418,1.732,0.592,3.246c0.068,0.586-0.842,0.287-0.926-1.295c-0.666,0.131-0.344,1.551,0.164,2.168
	c0.328,0.398,0.555,1.154-0.168,0.564c-0.955-0.777-0.881-1.041-1.66-3.135C11.248,38.47,11.832,36.46,11.842,35.741z"/>
<path fill="#1A1626" d="M16.271,61.519c0.031,0.578,4.209,0.729,4.324-0.074C20.99,58.679,16.096,58.206,16.271,61.519z"/>
<path fill="#302C3B" d="M16.316,61.175c0,0.582,4.283,0.762,4.283,0c0-0.814-0.496-1.57-0.533-2.295
	c-0.117-2.287-2.348-1.66-2.869-0.99C16.625,58.62,16.316,59.804,16.316,61.175z"/>
<path fill="#614A36" d="M19.721,58.204c0.063,0.611-2.33,0.652-2.332-0.082c0.148-3.127-2.195-12.578,0.254-15.059
	c0.498-0.506,2.498,0,2.498,0C20.902,48.487,19.186,52.948,19.721,58.204z"/>
<path fill="#1A1626" d="M26.664,61.519c-0.029,0.578-4.209,0.729-4.324-0.074C21.945,58.679,26.84,58.206,26.664,61.519z"/>
<path fill="#302C3B" d="M26.621,61.175c0,0.582-4.285,0.762-4.285,0c0-0.814,0.496-1.57,0.533-2.295
	c0.119-2.287,2.348-1.66,2.871-0.99C26.311,58.62,26.621,59.804,26.621,61.175z"/>
<path fill="#614A36" d="M23.215,58.204c-0.063,0.611,2.33,0.652,2.334-0.082c-0.15-3.127,2.193-12.578-0.254-15.059
	c-0.498-0.506-2.5,0-2.5,0C22.035,48.487,23.75,52.948,23.215,58.204z"/>
<path fill="#1A1714" d="M24.299,18.716c5.668-2.266,5.102-7.65,5.102-7.65H13.533c0,0-0.566,5.385,5.1,7.65
	c0,0,1.133,0.283,2.832,0.283C23.166,18.999,24.299,18.716,24.299,18.716z"/>
<linearGradient id="SVGID_1_" gradientUnits="userSpaceOnUse" x1="15.2598" y1="18.998" x2="15.2598" y2="2.0445" gradientTransform="matrix(1 0 0 1 11.873 0)">
	<stop  offset="0.05" style="stop-color:#1A1714"/>
	<stop  offset="0.112" style="stop-color:#1F1B18"/>
	<stop  offset="0.4761" style="stop-color:#37322C"/>
	<stop  offset="0.7" style="stop-color:#403A33"/>
	<a:midPointStop  offset="0.05" style="stop-color:#1A1714"/>
	<a:midPointStop  offset="0.4" style="stop-color:#1A1714"/>
	<a:midPointStop  offset="0.7" style="stop-color:#403A33"/>
</linearGradient>
<path fill="url(#SVGID_1_)" d="M27.195,11.642c0.58,2.439,0.273,4.855-2.896,7.074c3.4-0.566,5.668-3.777,5.668-6.24L27.195,11.642z
	"/>
<linearGradient id="SVGID_2_" gradientUnits="userSpaceOnUse" x1="1776.8877" y1="18.998" x2="1776.8877" y2="2.0445" gradientTransform="matrix(-1 0 0 1 1792.6875 0)">
	<stop  offset="0.05" style="stop-color:#1A1714"/>
	<stop  offset="0.112" style="stop-color:#1F1B18"/>
	<stop  offset="0.4761" style="stop-color:#37322C"/>
	<stop  offset="0.7" style="stop-color:#403A33"/>
	<a:midPointStop  offset="0.05" style="stop-color:#1A1714"/>
	<a:midPointStop  offset="0.4" style="stop-color:#1A1714"/>
	<a:midPointStop  offset="0.7" style="stop-color:#403A33"/>
</linearGradient>
<path fill="url(#SVGID_2_)" d="M15.738,11.642c-0.58,2.439-0.275,4.855,2.895,7.074c-3.4-0.566-5.666-3.777-5.666-6.24
	L15.738,11.642z"/>
<path fill="#8E3ED6" d="M26.539,18.714l-1.619-0.521l-6.908,0.006l-1.607,0.52c0,0-0.6,3.664-0.414,5.146
	c0.303,2.4,1.031,3.143,1.057,4.996c0.02,1.379-2.596,14.59-2.596,14.59c0,3.188,14.021,3.188,14.021,0
	c0,0-2.613-13.199-2.596-14.564c0.021-1.85,0.752-2.613,1.057-5.021C27.117,22.382,26.539,18.714,26.539,18.714z"/>
<path fill="#614A36" d="M18.908,17.882c0-0.75,0-2.416,0-2.416h5.105c0,0,0,1.654,0,2.406l0.906,0.32
	c0,2.26-2.957,3.613-3.459,3.613c-0.5,0-3.449-1.354-3.449-3.607L18.908,17.882z"/>
<path fill="#302116" d="M24.957,14.979c-0.41,2.002-2.57,4.02-3.49,4.02s-3.08-2.018-3.49-4.02
	C17.781,14.017,25.152,14.017,24.957,14.979z"/>
<path fill="#614A36" d="M21.467,2.851c-4.113,0-6.094,3.348-5.846,7.654c0.051,0.863,0.291,2.113,0.588,3.182
	c0.617,2.225,3.871,4.463,5.258,4.463c1.385,0,4.639-2.238,5.256-4.463c0.297-1.068,0.537-2.318,0.588-3.182
	C27.559,6.198,25.578,2.851,21.467,2.851z"/>
<path fill="#472B27" d="M21.465,14.655c-0.963-0.424-0.971-0.018-2.459,0.082c0.559,0.635,0.971,1.449,2.459,1.449
	c1.709,0,1.998-0.926,2.461-1.449C22.436,14.638,22.43,14.231,21.465,14.655z"/>
<path fill="#FFFFFF" d="M19.453,14.896c0.971,1.01,3.066,0.996,4.025,0C21.982,15.056,20.949,15.056,19.453,14.896z"/>
<path fill="#403229" d="M25.836,9.071c-0.895-0.533-2.496-0.598-3.131-0.234c-0.135,0.072-0.098,0.457,0.018,0.41
	c0.904-0.377,2.283-0.396,3.133,0.039C25.969,9.345,25.971,9.149,25.836,9.071z"/>
<path fill="#403229" d="M17.096,9.071c0.895-0.533,2.496-0.598,3.131-0.234c0.135,0.072,0.1,0.457-0.018,0.41
	c-0.904-0.377-2.281-0.396-3.131,0.039C16.963,9.345,16.961,9.149,17.096,9.071z"/>
<path fill="#302116" d="M22.391,13.288c-0.098-0.068-0.328,0.037-0.926,0.037c-0.596,0-0.826-0.105-0.924-0.037
	c-0.117,0.082,0.07,0.455,0.924,0.455C22.32,13.743,22.508,13.372,22.391,13.288z"/>
<path id="Path_1562_" fill="#FFFFFF" d="M20.551,10.687c0.035,0.271-0.15,0.594-0.66,0.836c-0.326,0.154-1.002,0.336-1.889-0.039
	c-0.398-0.168-0.787-0.689-0.752-0.979C17.732,9.597,20.102,9.464,20.551,10.687z"/>
<linearGradient id="Oval_1_" gradientUnits="userSpaceOnUse" x1="-427.3472" y1="480.499" x2="-427.3472" y2="480.7822" gradientTransform="matrix(6.5701 0 0 -6.5701 2826.6555 3168.5281)">
	<stop  offset="0" style="stop-color:#A6694A"/>
	<stop  offset="1" style="stop-color:#4F2A1E"/>
	<a:midPointStop  offset="0" style="stop-color:#A6694A"/>
	<a:midPointStop  offset="0.5" style="stop-color:#A6694A"/>
	<a:midPointStop  offset="1" style="stop-color:#4F2A1E"/>
</linearGradient>
<circle id="Oval_282_" fill="url(#Oval_1_)" cx="18.943" cy="10.668" r="0.931"/>
<path id="Path_1561_" fill="#1A1626" d="M18.479,10.651c0,0.645,0.932,0.645,0.932,0C19.41,10.054,18.479,10.054,18.479,10.651z"/>
<path id="Path_1560_" fill="#AB968C" d="M18.338,10.392c0,0.27,0.389,0.27,0.389,0C18.727,10.14,18.338,10.14,18.338,10.392z"/>
<path id="Path_1559_" fill="#45332C" d="M20.557,10.724c-0.379-1.215-2.955-1.037-3.307-0.219
	C17.381,9.458,20.234,9.183,20.557,10.724z"/>
<path id="Path_1558_" fill="#FFFFFF" d="M22.381,10.687c-0.035,0.271,0.15,0.594,0.662,0.836c0.324,0.154,1,0.336,1.889-0.039
	c0.398-0.168,0.785-0.689,0.75-0.979C25.201,9.597,22.832,9.464,22.381,10.687z"/>
<linearGradient id="Oval_2_" gradientUnits="userSpaceOnUse" x1="-429.2808" y1="480.499" x2="-429.2808" y2="480.7822" gradientTransform="matrix(6.5701 0 0 -6.5701 2844.386 3168.5281)">
	<stop  offset="0" style="stop-color:#A6694A"/>
	<stop  offset="1" style="stop-color:#4F2A1E"/>
	<a:midPointStop  offset="0" style="stop-color:#A6694A"/>
	<a:midPointStop  offset="0.5" style="stop-color:#A6694A"/>
	<a:midPointStop  offset="1" style="stop-color:#4F2A1E"/>
</linearGradient>
<circle id="Oval_281_" fill="url(#Oval_2_)" cx="23.967" cy="10.668" r="0.931"/>
<path id="Path_1557_" fill="#1A1626" d="M23.502,10.651c0,0.645,0.932,0.645,0.932,0C24.434,10.054,23.502,10.054,23.502,10.651z"/>
<path id="Path_1556_" fill="#AB968C" d="M23.361,10.392c0,0.27,0.391,0.27,0.391,0C23.752,10.14,23.361,10.14,23.361,10.392z"/>
<path id="Path_1555_" fill="#45332C" d="M22.377,10.724c0.377-1.215,2.953-1.041,3.305-0.219
	C25.551,9.458,22.699,9.183,22.377,10.724z"/>
<linearGradient id="SVGID_3_" gradientUnits="userSpaceOnUse" x1="9.5938" y1="18.999" x2="9.5937" y2="2.0422" gradientTransform="matrix(1 0 0 1 11.873 0)">
	<stop  offset="0.05" style="stop-color:#1A1714"/>
	<stop  offset="0.112" style="stop-color:#1F1B18"/>
	<stop  offset="0.4761" style="stop-color:#37322C"/>
	<stop  offset="0.7" style="stop-color:#403A33"/>
	<a:midPointStop  offset="0.05" style="stop-color:#1A1714"/>
	<a:midPointStop  offset="0.4" style="stop-color:#1A1714"/>
	<a:midPointStop  offset="0.7" style="stop-color:#403A33"/>
</linearGradient>
<path fill="url(#SVGID_3_)" d="M26.094,3.45c0.469-0.67-3.508-2.084-7.262-1.129C15.08,3.181,12.967,8.8,12.967,12.476
	c0.336,0.266,2.389-0.398,2.771-0.834c0.154-0.645,0.398-1.305,0.627-1.992c2.818-1.631,6.006-2.014,8.217-3.967
	c-0.283,0.852,1.217,1.922,1.984,3.967c0.248,0.664,0.471,1.328,0.629,1.992c0.625,0.574,1.873,0.846,2.771,0.834
	C29.967,9.366,27.598,3.017,26.094,3.45z"/>
<path fill="#1A1714" d="M13.643,11.917c2.594-3.455,10.998-3.221,12.451-8.467C23.271,7.853,14.35,8.595,13.643,11.917z"/>
<path fill="#FFD8B4" d="M37.461,18.714c-1.531,0-2.7,5.618-3.444,7.705c-1.145,3.21-2.097,8.06-2.198,8.79
	c-0.1,0.711-1.396,2.591-1.315,3.122c0.154,1.027,0.723,1.814,0.957,1.813c0.523-0.887,1.406-1.629,1.187-0.193
	c0.173,0.596,0.907-0.436,1.048-1.404c0.038-0.266-0.344-0.938-0.447-1.465c-0.083-0.422,0.006-2.416,1.611-5.025
	c0.977-1.588,1.195-2.768,1.619-4.299c0.391-1.41,1.144-5.076,1.144-5.076L37.461,18.714z"/>
<path fill="#FFD8B4" d="M52.159,35.741c-0.009-0.717-0.314-5.801-1.089-8.867c-0.543-2.148-1.943-8.156-3.475-8.156l-0.15,3.963
	c0,0,0.851,4.307,1.148,5.738c0.251,1.207,0.523,2.275,1.129,3.809c1.104,2.791,1.087,4.859,0.848,5.188
	c-0.594,0.814-0.418,1.732-0.592,3.246c-0.068,0.586,0.842,0.287,0.926-1.295c0.666,0.131,0.344,1.551-0.164,2.168
	c-0.328,0.398-0.555,1.154,0.169,0.564c0.955-0.777,0.88-1.041,1.659-3.135C52.753,38.47,52.168,36.46,52.159,35.741z"/>
<path fill="#1A1626" d="M47.729,61.519c-0.031,0.578-4.209,0.729-4.324-0.074C43.01,58.679,47.904,58.206,47.729,61.519z"/>
<path fill="#302C3B" d="M47.684,61.175c0,0.582-4.283,0.762-4.283,0c0-0.814,0.496-1.57,0.533-2.295
	c0.117-2.287,2.348-1.66,2.869-0.99C47.375,58.62,47.684,59.804,47.684,61.175z"/>
<path fill="#FFD8B4" d="M44.279,58.204c-0.063,0.611,2.33,0.652,2.332-0.082c-0.148-3.127,2.195-12.578-0.254-15.059
	c-0.498-0.506-2.498,0-2.498,0C43.098,48.487,44.814,52.948,44.279,58.204z"/>
<path fill="#1A1626" d="M37.336,61.519c0.029,0.578,4.209,0.729,4.324-0.074C42.055,58.679,37.16,58.206,37.336,61.519z"/>
<path fill="#302C3B" d="M37.379,61.175c0,0.582,4.285,0.762,4.285,0c0-0.814-0.496-1.57-0.533-2.295
	c-0.119-2.287-2.348-1.66-2.871-0.99C37.689,58.62,37.379,59.804,37.379,61.175z"/>
<path fill="#FFD8B4" d="M40.785,58.204c0.063,0.611-2.33,0.652-2.334-0.082c0.15-3.127-2.193-12.578,0.254-15.059
	c0.498-0.506,2.5,0,2.5,0C41.965,48.487,40.25,52.948,40.785,58.204z"/>
<path fill="#1E110E" d="M45.365,18.716c5.668-2.266,5.102-7.65,5.102-7.65H34.6c0,0-0.566,5.385,5.1,7.65
	c0,0,1.133,0.283,2.832,0.283C44.232,18.999,45.365,18.716,45.365,18.716z"/>
<linearGradient id="SVGID_4_" gradientUnits="userSpaceOnUse" x1="48.1992" y1="18.998" x2="48.1992" y2="2.0445">
	<stop  offset="0.05" style="stop-color:#1E110E"/>
	<stop  offset="0.2334" style="stop-color:#31211E"/>
	<stop  offset="0.5223" style="stop-color:#493632"/>
	<stop  offset="0.7" style="stop-color:#523E3A"/>
	<a:midPointStop  offset="0.05" style="stop-color:#1E110E"/>
	<a:midPointStop  offset="0.4" style="stop-color:#1E110E"/>
	<a:midPointStop  offset="0.7" style="stop-color:#523E3A"/>
</linearGradient>
<path fill="url(#SVGID_4_)" d="M48.262,11.642c0.58,2.439,0.273,4.855-2.896,7.074c3.4-0.566,5.668-3.777,5.668-6.24L48.262,11.642z
	"/>
<linearGradient id="SVGID_5_" gradientUnits="userSpaceOnUse" x1="1743.9482" y1="18.998" x2="1743.9482" y2="2.0445" gradientTransform="matrix(-1 0 0 1 1780.8145 0)">
	<stop  offset="0.05" style="stop-color:#1E110E"/>
	<stop  offset="0.2334" style="stop-color:#31211E"/>
	<stop  offset="0.5223" style="stop-color:#493632"/>
	<stop  offset="0.7" style="stop-color:#523E3A"/>
	<a:midPointStop  offset="0.05" style="stop-color:#1E110E"/>
	<a:midPointStop  offset="0.4" style="stop-color:#1E110E"/>
	<a:midPointStop  offset="0.7" style="stop-color:#523E3A"/>
</linearGradient>
<path fill="url(#SVGID_5_)" d="M36.805,11.642c-0.58,2.439-0.275,4.855,2.895,7.074c-3.4-0.566-5.666-3.777-5.666-6.24
	L36.805,11.642z"/>
<path fill="#D63E93" d="M37.461,18.714l1.619-0.521l6.908,0.006l1.607,0.52c0,0,0.6,3.664,0.415,5.146
	c-0.304,2.4-1.032,3.143-1.058,4.996c-0.019,1.379,2.596,14.59,2.596,14.59c0,3.188-14.021,3.188-14.021,0
	c0,0,2.614-13.199,2.596-14.564c-0.021-1.85-0.752-2.613-1.056-5.021C36.883,22.382,37.461,18.714,37.461,18.714z"/>
<path fill="#FFD8B4" d="M45.092,17.882c0-0.75,0-2.416,0-2.416h-5.105c0,0,0,1.654,0,2.406l-0.906,0.32
	c0,2.26,2.957,3.613,3.459,3.613c0.5,0,3.449-1.354,3.449-3.607L45.092,17.882z"/>
<path fill="#DEB38A" d="M39.043,14.979c0.41,2.002,2.57,4.02,3.49,4.02s3.08-2.018,3.49-4.02
	C46.219,14.017,38.848,14.017,39.043,14.979z"/>
<path fill="#FFD8B4" d="M42.533,2.851c-4.113,0-6.094,3.348-5.846,7.654c0.051,0.863,0.291,2.113,0.588,3.182
	c0.617,2.225,3.871,4.463,5.258,4.463c1.385,0,4.639-2.238,5.256-4.463c0.297-1.068,0.537-2.318,0.588-3.182
	C48.625,6.198,46.645,2.851,42.533,2.851z"/>
<path fill="#DE935D" d="M42.531,14.655c-0.963-0.424-0.971-0.018-2.459,0.082c0.559,0.635,0.971,1.449,2.459,1.449
	c1.709,0,1.998-0.926,2.461-1.449C43.502,14.638,43.496,14.231,42.531,14.655z"/>
<path fill="#FFFFFF" d="M40.52,14.896c0.971,1.01,3.066,0.996,4.025,0C43.049,15.056,42.016,15.056,40.52,14.896z"/>
<path fill="#A88868" d="M46.902,9.071c-0.895-0.533-2.496-0.598-3.131-0.234c-0.135,0.072-0.098,0.457,0.018,0.41
	c0.904-0.377,2.283-0.396,3.133,0.039C47.035,9.345,47.037,9.149,46.902,9.071z"/>
<path fill="#A88868" d="M38.162,9.071c0.895-0.533,2.496-0.598,3.131-0.234c0.135,0.072,0.1,0.457-0.018,0.41
	c-0.904-0.377-2.281-0.396-3.131,0.039C38.029,9.345,38.027,9.149,38.162,9.071z"/>
<path fill="#DEB38A" d="M43.457,13.288c-0.098-0.068-0.328,0.037-0.926,0.037c-0.596,0-0.826-0.105-0.924-0.037
	c-0.117,0.082,0.07,0.455,0.924,0.455C43.387,13.743,43.574,13.372,43.457,13.288z"/>
<path id="Path_1570_" fill="#FFFFFF" d="M41.617,10.687c0.035,0.271-0.15,0.594-0.66,0.836c-0.326,0.154-1.002,0.336-1.889-0.039
	c-0.398-0.168-0.787-0.689-0.752-0.979C38.799,9.597,41.168,9.464,41.617,10.687z"/>
<linearGradient id="Oval_3_" gradientUnits="userSpaceOnUse" x1="-422.333" y1="480.499" x2="-422.333" y2="480.7822" gradientTransform="matrix(6.5701 0 0 -6.5701 2814.7805 3168.5281)">
	<stop  offset="0" style="stop-color:#A6694A"/>
	<stop  offset="1" style="stop-color:#4F2A1E"/>
	<a:midPointStop  offset="0" style="stop-color:#A6694A"/>
	<a:midPointStop  offset="0.5" style="stop-color:#A6694A"/>
	<a:midPointStop  offset="1" style="stop-color:#4F2A1E"/>
</linearGradient>
<circle id="Oval_284_" fill="url(#Oval_3_)" cx="40.01" cy="10.668" r="0.931"/>
<path id="Path_1569_" fill="#1A1626" d="M39.545,10.651c0,0.645,0.932,0.645,0.932,0C40.477,10.054,39.545,10.054,39.545,10.651z"/>
<path id="Path_1568_" fill="#AB968C" d="M39.404,10.392c0,0.27,0.389,0.27,0.389,0C39.793,10.14,39.404,10.14,39.404,10.392z"/>
<path id="Path_1567_" fill="#45332C" d="M41.623,10.724c-0.379-1.215-2.955-1.037-3.307-0.219
	C38.447,9.458,41.301,9.183,41.623,10.724z"/>
<path id="Path_1566_" fill="#FFFFFF" d="M43.447,10.687c-0.035,0.271,0.15,0.594,0.662,0.836c0.324,0.154,1,0.336,1.889-0.039
	c0.398-0.168,0.785-0.689,0.75-0.979C46.268,9.597,43.898,9.464,43.447,10.687z"/>
<linearGradient id="Oval_4_" gradientUnits="userSpaceOnUse" x1="-424.2671" y1="480.499" x2="-424.2671" y2="480.7822" gradientTransform="matrix(6.5701 0 0 -6.5701 2832.511 3168.5281)">
	<stop  offset="0" style="stop-color:#A6694A"/>
	<stop  offset="1" style="stop-color:#4F2A1E"/>
	<a:midPointStop  offset="0" style="stop-color:#A6694A"/>
	<a:midPointStop  offset="0.5" style="stop-color:#A6694A"/>
	<a:midPointStop  offset="1" style="stop-color:#4F2A1E"/>
</linearGradient>
<circle id="Oval_283_" fill="url(#Oval_4_)" cx="45.033" cy="10.668" r="0.931"/>
<path id="Path_1565_" fill="#1A1626" d="M44.568,10.651c0,0.645,0.932,0.645,0.932,0C45.5,10.054,44.568,10.054,44.568,10.651z"/>
<path id="Path_1564_" fill="#AB968C" d="M44.428,10.392c0,0.27,0.391,0.27,0.391,0C44.818,10.14,44.428,10.14,44.428,10.392z"/>
<path id="Path_1563_" fill="#45332C" d="M43.443,10.724c0.377-1.215,2.953-1.041,3.305-0.219
	C46.617,9.458,43.766,9.183,43.443,10.724z"/>
<linearGradient id="SVGID_6_" gradientUnits="userSpaceOnUse" x1="42.5332" y1="18.999" x2="42.5332" y2="2.0422">
	<stop  offset="0.05" style="stop-color:#1E110E"/>
	<stop  offset="0.2334" style="stop-color:#31211E"/>
	<stop  offset="0.5223" style="stop-color:#493632"/>
	<stop  offset="0.7" style="stop-color:#523E3A"/>
	<a:midPointStop  offset="0.05" style="stop-color:#1E110E"/>
	<a:midPointStop  offset="0.4" style="stop-color:#1E110E"/>
	<a:midPointStop  offset="0.7" style="stop-color:#523E3A"/>
</linearGradient>
<path fill="url(#SVGID_6_)" d="M47.16,3.45c0.469-0.67-3.508-2.084-7.262-1.129c-3.752,0.859-5.865,6.479-5.865,10.154
	c0.336,0.266,2.389-0.398,2.771-0.834c0.154-0.645,0.398-1.305,0.627-1.992c2.818-1.631,6.006-2.014,8.217-3.967
	c-0.283,0.852,1.217,1.922,1.984,3.967c0.248,0.664,0.471,1.328,0.629,1.992c0.625,0.574,1.873,0.846,2.771,0.834
	C51.033,9.366,48.664,3.017,47.16,3.45z"/>
<path fill="#1E110E" d="M34.709,11.917C37.303,8.462,45.707,8.696,47.16,3.45C44.338,7.853,35.416,8.595,34.709,11.917z"/>
</svg>
