<?xml version="1.0" encoding="utf-8"?>
<!-- Generator: Adobe Illustrator 15.0.0, SVG Export Plug-In . SVG Version: 6.00 Build 0)  -->
<!DOCTYPE svg PUBLIC "-//W3C//DTD SVG 1.1//EN" "http://www.w3.org/Graphics/SVG/1.1/DTD/svg11.dtd" [
	<!ENTITY ns_flows "http://ns.adobe.com/Flows/1.0/">
	<!ENTITY ns_extend "http://ns.adobe.com/Extensibility/1.0/">
	<!ENTITY ns_ai "http://ns.adobe.com/AdobeIllustrator/10.0/">
	<!ENTITY ns_graphs "http://ns.adobe.com/Graphs/1.0/">
]>
<svg version="1.1" id="Layer_1" xmlns:x="&ns_extend;" xmlns:i="&ns_ai;" xmlns:graph="&ns_graphs;"
	 xmlns="http://www.w3.org/2000/svg" xmlns:xlink="http://www.w3.org/1999/xlink" xmlns:a="http://ns.adobe.com/AdobeSVGViewerExtensions/3.0/"
	 x="0px" y="0px" width="64px" height="64px" viewBox="0 0 64 64" enable-background="new 0 0 64 64" xml:space="preserve">
<linearGradient id="SVGID_1_" gradientUnits="userSpaceOnUse" x1="-149.3594" y1="94.3555" x2="-148.3525" y2="94.3555" gradientTransform="matrix(0.7071 0.7071 -0.7071 0.7071 179.9902 99.5218)">
	<stop  offset="0" style="stop-color:#5B666E"/>
	<stop  offset="0.3" style="stop-color:#525A64"/>
	<stop  offset="0.8392" style="stop-color:#3C3B49"/>
	<stop  offset="1" style="stop-color:#343040"/>
	<a:midPointStop  offset="0" style="stop-color:#5B666E"/>
	<a:midPointStop  offset="0.5765" style="stop-color:#5B666E"/>
	<a:midPointStop  offset="1" style="stop-color:#343040"/>
</linearGradient>
<path fill="url(#SVGID_1_)" d="M9.086,60.625c0.178-0.178-0.498-0.92-0.717-0.699c0,0-1.002,0.996-1.207,1.201
	c-0.484,0.486,0.227,1.197,0.713,0.711C8.059,61.654,9.086,60.625,9.086,60.625z"/>
<linearGradient id="SVGID_2_" gradientUnits="userSpaceOnUse" x1="-149.1138" y1="78.5684" x2="-148.5744" y2="78.5684" gradientTransform="matrix(0.7071 0.7071 -0.7071 0.7071 179.9902 99.5218)">
	<stop  offset="0.0848" style="stop-color:#CFD8DD"/>
	<stop  offset="0.891" style="stop-color:#A0AEB4"/>
	<stop  offset="1" style="stop-color:#99A8AE"/>
	<a:midPointStop  offset="0.0848" style="stop-color:#CFD8DD"/>
	<a:midPointStop  offset="0.5197" style="stop-color:#CFD8DD"/>
	<a:midPointStop  offset="1" style="stop-color:#99A8AE"/>
</linearGradient>
<path fill="url(#SVGID_2_)" d="M30.076,39.434l-0.51-0.508c0,0-16.992,16.998-21.1,21.1c-0.248,0.248,0.26,0.756,0.51,0.508
	C13.098,56.418,30.076,39.434,30.076,39.434z"/>
<linearGradient id="SVGID_3_" gradientUnits="userSpaceOnUse" x1="-149.2153" y1="89.6836" x2="-148.4946" y2="89.6836" gradientTransform="matrix(0.7071 0.7071 -0.7071 0.7071 179.9902 99.5218)">
	<stop  offset="0" style="stop-color:#FF000E"/>
	<stop  offset="0.2335" style="stop-color:#FA000D"/>
	<stop  offset="0.5011" style="stop-color:#EC000A"/>
	<stop  offset="0.7844" style="stop-color:#D60005"/>
	<stop  offset="1" style="stop-color:#BF0000"/>
	<a:midPointStop  offset="0" style="stop-color:#FF000E"/>
	<a:midPointStop  offset="0.6788" style="stop-color:#FF000E"/>
	<a:midPointStop  offset="1" style="stop-color:#BF0000"/>
</linearGradient>
<path fill="url(#SVGID_3_)" d="M13.975,55.537c-0.168,0.168-0.648-0.371-0.516-0.504c0,0-3.729,3.729-4.668,4.668
	c-0.17,0.17,0.34,0.678,0.51,0.508C10.305,59.205,13.975,55.537,13.975,55.537z"/>
<linearGradient id="SVGID_4_" gradientUnits="userSpaceOnUse" x1="-149.2158" y1="71.8105" x2="-148.4946" y2="71.8105" gradientTransform="matrix(0.7071 0.7071 -0.7071 0.7071 179.9902 99.5218)">
	<stop  offset="0" style="stop-color:#FF000E"/>
	<stop  offset="0.2335" style="stop-color:#FA000D"/>
	<stop  offset="0.5011" style="stop-color:#EC000A"/>
	<stop  offset="0.7844" style="stop-color:#D60005"/>
	<stop  offset="1" style="stop-color:#BF0000"/>
	<a:midPointStop  offset="0" style="stop-color:#FF000E"/>
	<a:midPointStop  offset="0.6788" style="stop-color:#FF000E"/>
	<a:midPointStop  offset="1" style="stop-color:#BF0000"/>
</linearGradient>
<path fill="url(#SVGID_4_)" d="M26.611,42.898c-0.166,0.168-0.646-0.371-0.514-0.504c0,0-3.73,3.729-4.668,4.668
	c-0.17,0.17,0.338,0.678,0.51,0.51C22.943,46.566,26.611,42.898,26.611,42.898z"/>
<linearGradient id="SVGID_5_" gradientUnits="userSpaceOnUse" x1="-113.4009" y1="29.9307" x2="-111.292" y2="29.9307" gradientTransform="matrix(0.8192 0.5736 -0.5736 0.8192 140.7946 77.2612)">
	<stop  offset="0" style="stop-color:#5B666E"/>
	<stop  offset="0.3" style="stop-color:#525A64"/>
	<stop  offset="0.8392" style="stop-color:#3C3B49"/>
	<stop  offset="1" style="stop-color:#343040"/>
	<a:midPointStop  offset="0" style="stop-color:#5B666E"/>
	<a:midPointStop  offset="0.5765" style="stop-color:#5B666E"/>
	<a:midPointStop  offset="1" style="stop-color:#343040"/>
</linearGradient>
<path fill="url(#SVGID_5_)" d="M29.773,40.008c-0.211,0.234-1.021-0.572-0.785-0.783c1.395-1.23,2.723-2.508,3.924-3.92
	c0.969-1.051,1.836-0.186,0.783,0.781C32.279,37.285,31.004,38.613,29.773,40.008z"/>
<path fill="#EBC199" d="M40.713,22.718c0,0-1.463,2.037-2.545,4.309c-1.668,1.646-4.398,5.336-4.875,5.902
	c-0.461,0.549-1.982,1.924-2.131,2.44c-0.477,1.641-0.945,1.996-0.891,2.688l0.936-0.906c0,0,0.553-0.703,0.906-0.504
	c-0.928,1.287-0.309,2.18,0.004,1.678c0.803-1.299,1.543-1.881,1.529-2.941c-0.004-0.43,1.291-2.043,4.041-3.397
	c1.672-0.824,2.924-2.463,3.75-3.943c0.785-1.299,2.236-2.219,2.697-3.086C43.455,23.339,42.127,23.378,40.713,22.718z"/>
<path fill="#302C3B" d="M34.021,34.684c0.209,0.018,0.854-0.635,0.621-0.66c-2.559-0.291-2.748,0.158-3.012,0.66
	C31.631,34.684,32.318,34.541,34.021,34.684z"/>
<path fill="#EBC199" d="M39.34,16.556c1.133-0.539,1.457,0.451,1.533,0.867c0.25,1.365,5.359-0.195,4.785-1.762
	c-0.5-1.363,0.168-2.992,0.168-2.992C45.07,12.238,42.307,7.359,39.34,16.556z"/>
<path fill="#EBC199" d="M40.264,3.039c-3.441,0.551-4.705,3.01-4.15,5.908c0.125,0.654-0.295,1.775-1.129,2.496
	c-0.303,0.262-0.332,0.609-0.184,0.84c0.291,0.455,0.928,0.459,1.195,0.631c0.596,0.379,0,0.799,0.447,1.248
	c0.205,0.203,0.789-0.066,0.172,1.014c0.688,0.502-0.459,1.711,1.309,1.898c0.928,0.098,4.852-2.115,5.342-2.879
	c0.514-0.801,0.393-2.283,0.393-2.283c2.643-0.762,3.576-3.068,3.006-5.482C45.869,3.052,42.496,2.683,40.264,3.039z"/>
<path fill="#C99B71" d="M36.443,14.162c0.324,0.197,0.184,0.51,0.184,0.51c-0.156,0-0.195,0.514,0.035,0.514
	c0.807,0,1.547-0.693,1.789-1.111C37.189,14.011,35.803,13.441,36.443,14.162z"/>
<path fill="#FFFFFF" d="M36.443,14.162c0,0,0.125,0.441,0.184,0.51c0.252,0,1.074-0.182,1.582-0.516L36.443,14.162z"/>
<linearGradient id="SVGID_6_" gradientUnits="userSpaceOnUse" x1="30.4229" y1="11.7256" x2="40.0654" y2="11.7256" gradientTransform="matrix(1 0 0 1 5.5732 -5.0161)">
	<stop  offset="0" style="stop-color:#BA9757"/>
	<stop  offset="0.6461" style="stop-color:#D8B379"/>
	<stop  offset="1" style="stop-color:#E3BE86"/>
	<a:midPointStop  offset="0" style="stop-color:#BA9757"/>
	<a:midPointStop  offset="0.4303" style="stop-color:#BA9757"/>
	<a:midPointStop  offset="1" style="stop-color:#E3BE86"/>
</linearGradient>
<path fill="url(#SVGID_6_)" d="M45.457,4.632c-2.447-3.684-8.943-1.453-9.402-0.553c-0.164,0.324,0.041,1.127,0.309,1.645
	c1.033,0,3.08-0.863,4.455-0.217c2.037,0.959-0.275,5.104,1.605,5.328C42.719,10.871,46.502,6.466,45.457,4.632z"/>
<linearGradient id="SVGID_7_" gradientUnits="userSpaceOnUse" x1="30.4814" y1="12.8457" x2="42.3799" y2="12.8457" gradientTransform="matrix(1 0 0 1 5.5732 -5.0161)">
	<stop  offset="0" style="stop-color:#E3BE86"/>
	<stop  offset="0.323" style="stop-color:#E0BB83"/>
	<stop  offset="0.5887" style="stop-color:#D7B379"/>
	<stop  offset="0.8333" style="stop-color:#C8A567"/>
	<stop  offset="1" style="stop-color:#BA9757"/>
	<a:midPointStop  offset="0" style="stop-color:#E3BE86"/>
	<a:midPointStop  offset="0.7455" style="stop-color:#E3BE86"/>
	<a:midPointStop  offset="1" style="stop-color:#BA9757"/>
</linearGradient>
<path fill="url(#SVGID_7_)" d="M47.1,4.566C46.398,3.382,44.982,1.992,41.768,2c-2.904,0.006-5.254,1.18-5.713,2.08
	c1.066,0,4.305-1.359,5.996-0.096c2.633,1.969,0.338,4.643,0.959,6.322c0.971,2.629,2.543,3.354,2.543,3.354
	C47.574,12.199,48.912,7.63,47.1,4.566z"/>
<path fill="#C99B71" d="M34.809,12.287c0.238,0.635,1.764,0.771,2.25,0C36.256,12.869,34.67,11.917,34.809,12.287z"/>
<path fill="#EBC199" d="M43.67,8.705c-1.285,0.266-1.686,3.168-0.723,3.799c0.135,0.088,0.838,0.166,1.211-0.545
	c0.205-0.393,0.943-0.793,1.047-1.564C45.336,9.404,44.947,8.441,43.67,8.705z"/>
<path id="Path_910_" fill="#C99B71" d="M43.738,9.244c-0.328,0.111-0.635,0.488-0.729,1.063c1.158-0.314,1.105,0.986,0.076,1.141
	c0.033,0.127,0.072,0.256,0.123,0.389c0.41-0.523,0.951-0.402,1.318-1.15C44.859,10.009,44.547,8.968,43.738,9.244z"/>
<path fill="#FFFFFF" d="M38.936,9.814c0.018,0.186-0.57,0.855-1.316,0.918c-0.426,0.035-0.578-0.293-0.674-0.648
	C36.854,8.671,38.516,9.173,38.936,9.814z"/>
<linearGradient id="Path_1_" gradientUnits="userSpaceOnUse" x1="31.939" y1="15.6904" x2="31.939" y2="14.2036" gradientTransform="matrix(1 0 0 1 5.5732 -5.0161)">
	<stop  offset="0" style="stop-color:#A6694A"/>
	<stop  offset="1" style="stop-color:#4F2A1E"/>
	<a:midPointStop  offset="0" style="stop-color:#A6694A"/>
	<a:midPointStop  offset="0.5" style="stop-color:#A6694A"/>
	<a:midPointStop  offset="1" style="stop-color:#4F2A1E"/>
</linearGradient>
<path id="Path_909_" fill="url(#Path_1_)" d="M36.916,9.904c0,1.027,1.191,1.027,1.191,0C38.107,8.949,36.916,8.949,36.916,9.904z"
	/>
<path id="Path_908_" fill="#1A1626" d="M37.041,9.859c0,0.512,0.594,0.512,0.594-0.002C37.635,9.38,37.041,9.38,37.041,9.859z"/>
<path id="Path_907_" fill="#AB968C" d="M37.408,9.65c0,0.215,0.346,0.215,0.346,0C37.754,9.449,37.408,9.449,37.408,9.65z"/>
<path fill="#C99B71" d="M38.936,9.814c-0.32-0.641-1.916-1.107-1.959-0.242C37.201,8.99,38.385,9.31,38.936,9.814z"/>
<path id="Path_906_" fill="#A17C5B" d="M39.24,8.353c-0.73-0.457-2.133-0.479-2.654-0.16c-0.113,0.061-0.039,0.494,0.055,0.453
	c0.729-0.34,1.902-0.348,2.582,0.029C39.314,8.722,39.352,8.417,39.24,8.353z"/>
<path fill="#6E8189" d="M25.379,55.637c0,0-0.598,0.07-0.293,0.34C28.965,59.367,34.033,62,34.033,62
	c0.293-0.111,0.289-0.441,0.289-0.441L25.379,55.637z"/>
<path fill="#99A8AE" d="M33.379,56.984c-4.373-1.709-7.33-2.523-8-1.348c4.912,3.918,8.943,5.922,8.943,5.922
	C36.42,59.691,35.213,58.066,33.379,56.984z"/>
<path fill="#1A1626" d="M28.695,55.396c0.387,1.219,0.861,1.664,1.217,1.145c0.334,0.68,0.809,0.527,0.984,0.199
	c0.447,0.566,0.934,0.154,0.555-0.795C31.221,55.43,28.592,55.068,28.695,55.396z"/>
<path fill="#6E8189" d="M49.086,61.559c0,0-0.234,0.307,0.088,0.441C53.25,61.695,57,54.586,57,54.586
	c0-0.281-0.264-0.451-0.264-0.451L49.086,61.559z"/>
<path fill="#99A8AE" d="M52.609,54.711c-3.217,4.314-3.801,5.809-3.523,6.848c3.916-0.41,7.65-7.424,7.65-7.424
	C54.764,50.885,53.178,53.951,52.609,54.711z"/>
<path fill="#1A1626" d="M49.943,58.543c1.266-0.021,1.832-0.354,1.449-0.846c0.748-0.125,0.746-0.631,0.49-0.898
	c0.672-0.264,0.432-0.855-0.576-0.762C50.746,56.111,49.602,58.547,49.943,58.543z"/>
<path fill="#1A1626" d="M46.455,31.765c-8.221-1.225-8.197,2.778-8.197,2.778c1.205,6,3.934,13.297,4.922,14.541
	c0.828,1.043,4.754,3.684,7.836,7.322c2.156-1.023,6.002-2.369,4.951-3.398c-3.998-3.91-7.846-7.383-7.846-7.383
	C45.389,41.207,45.244,35.92,46.455,31.765z"/>
<path fill="#302C3B" d="M46.455,31.765c0,0-5.223-2.566-7.162,2.241c-0.664,4.631-4.568,9.125-5.252,10.58
	c-0.746,1.59-1.354,6.998-3.338,10.941c2.234,1.801,4.307,6.088,4.727,4.732c1.865-6.021,4.059-13.424,4.059-13.424
	C45.352,38.709,48.748,39.148,46.455,31.765z"/>
<path fill="#3AB0A2" d="M46.676,32.205c0,0-3.967,0.168-8.418,2.418c-1.344-5.858-1.199-14.233,2.561-17.42
	c0.752,1.479,3.496-1.109,4.84-1.541C50.715,20.431,45.391,25.603,46.676,32.205z"/>
<path fill="#EBC199" d="M51.51,25.818c-0.18-0.502-1.193-2.334-2.215-4.131c-1.164,0.574-2.311,1.176-3.424,1.816
	c0.998,1.363,2.025,2.813,2.568,3.709c0.176,2.477,1.008,4.949,0.734,7.856c-0.125,1.26-0.971,0.502-1.674,3.143
	c-0.111,0.412,0.844,0.357,1.154-0.592c0.967,0.398-1.076,3.637,0.393,3.043c0.531,0.158,1.891-0.422,2.453-2.422
	c0.09-0.322,0.141-2.746,0.076-3.07C51.33,33.924,51.828,26.703,51.51,25.818z"/>
<path fill="#C99B71" d="M49.781,38.867c0,0-0.248,1.305-0.734,1.795C49.703,40.258,49.781,38.867,49.781,38.867z"/>
<path fill="#C99B71" d="M50.594,38.473c0,0-0.326,1.592-0.813,2.082C50.438,40.148,50.594,38.473,50.594,38.473z"/>
<path fill="#C99B71" d="M51.115,38.381c0,0-0.17,1.219-0.656,1.709C51.115,39.684,51.115,38.381,51.115,38.381z"/>
<path fill="#25A898" d="M50.363,23.07c-0.809-1.516-1.947-3.49-3.314-5.621c-1.471-2.295-4.939-0.164-3.748,2.303
	c0.646,1.34,1.678,3.123,3.318,5.51C47.783,24.431,49.043,23.695,50.363,23.07z"/>
</svg>
