<?xml version="1.0" encoding="utf-8"?>
<!-- Generator: Adobe Illustrator 15.0.0, SVG Export Plug-In . SVG Version: 6.00 Build 0)  -->
<!DOCTYPE svg PUBLIC "-//W3C//DTD SVG 1.1//EN" "http://www.w3.org/Graphics/SVG/1.1/DTD/svg11.dtd" [
	<!ENTITY ns_flows "http://ns.adobe.com/Flows/1.0/">
	<!ENTITY ns_extend "http://ns.adobe.com/Extensibility/1.0/">
	<!ENTITY ns_ai "http://ns.adobe.com/AdobeIllustrator/10.0/">
	<!ENTITY ns_graphs "http://ns.adobe.com/Graphs/1.0/">
]>
<svg version="1.1" id="Layer_1" xmlns:x="&ns_extend;" xmlns:i="&ns_ai;" xmlns:graph="&ns_graphs;"
	 xmlns="http://www.w3.org/2000/svg" xmlns:xlink="http://www.w3.org/1999/xlink" xmlns:a="http://ns.adobe.com/AdobeSVGViewerExtensions/3.0/"
	 x="0px" y="0px" width="64px" height="64px" viewBox="0 0 64 64" enable-background="new 0 0 64 64" xml:space="preserve">
<path id="Path_834_" fill="#916B50" d="M53.635,26.563c-3.35,0.406-5.768,11.621-3.662,14.58c0.295,0.414,2.021,1.074,3.301-1.539
	c0.709-1.445,2.754-2.652,3.387-5.636C57.473,30.145,56.967,26.159,53.635,26.563z"/>
<path id="Path_833_" fill="#916B50" d="M10.367,26.563c3.35,0.406,5.768,11.621,3.66,14.58c-0.295,0.414-2.021,1.074-3.301-1.539
	c-0.709-1.445-2.754-2.652-3.387-5.636C6.527,30.145,7.035,26.158,10.367,26.563z"/>
<path id="Path_832_" fill="#69452D" d="M53.543,28.714c-0.873,0.274-1.826,1.606-2.344,3.818c3.055-0.656,2.291,4.432-0.363,4.526
	c0.023,0.512,0.059,1.039,0.121,1.592c1.279-1.856,2.578-1.11,3.865-3.875C55.982,32.284,55.707,28.034,53.543,28.714z"/>
<path id="Path_831_" fill="#69452D" d="M12.801,32.525c-0.518-2.207-1.469-3.539-2.342-3.812c-2.164-0.681-2.441,3.57-1.281,6.062
	c1.287,2.765,2.586,2.019,3.867,3.875c0.063-0.555,0.098-1.082,0.119-1.594C10.537,36.932,9.785,31.906,12.801,32.525z"/>
<path id="Path_830_" fill="#916B50" d="M32,5C17.49,5,10.498,15.979,11.373,31.244c0.176,3.07,2.08,13.089,3.877,16.683
	c1.842,3.677,7.992,9.345,11.762,10.519c2.383,0.74,7.596,0.74,9.977,0c3.77-1.174,9.924-6.842,11.762-10.519
	c1.801-3.594,3.703-13.61,3.877-16.683C53.504,15.979,46.514,5,32,5z"/>
<path id="Path_829_" fill="#5E4431" d="M47.766,25.443c-3.318-1.758-9.67-1.843-12.035-0.619c-0.508,0.237-0.172,1.902,0.254,1.744
	c3.297-1.304,8.615-1.334,11.701,0.111C48.098,26.867,48.27,25.688,47.766,25.443z"/>
<path id="Path_828_" fill="#5E4431" d="M16.234,25.443c3.318-1.758,9.666-1.843,12.035-0.619c0.506,0.237,0.172,1.902-0.254,1.744
	c-3.303-1.304-8.613-1.334-11.703,0.111C15.902,26.867,15.732,25.688,16.234,25.443z"/>
<path id="Path_827_" fill="#69452D" d="M35.916,40.688c-0.414-0.289-1.387,0.156-3.916,0.156c-2.527,0-3.5-0.445-3.916-0.156
	c-0.496,0.351,0.295,1.928,3.916,1.928C35.623,42.615,36.414,41.038,35.916,40.688z"/>
<path id="Path_826_" fill="#69452D" d="M32,46.669c-3.264-0.96-8.1,0.455-8.1,0.455c1.842,2.007,3.191,4.608,8.1,4.608
	c5.623,0,6.58-2.955,8.102-4.608C40.102,47.124,35.262,45.704,32,46.669z"/>
<path id="Path_825_" fill="#FFFFFF" d="M25.115,47.464c3.422,2.871,10.33,2.89,13.771,0C35.24,47.62,28.787,47.622,25.115,47.464z"
	/>
<path id="Path_824_" fill="#FFFFFF" d="M28.771,31.433c0.123,0.961-0.529,2.099-2.334,2.952c-1.146,0.543-3.531,1.182-6.666-0.141
	c-1.404-0.592-2.773-2.438-2.65-3.457C18.82,27.585,27.182,27.115,28.771,31.433z"/>
<linearGradient id="Oval_1_" gradientUnits="userSpaceOnUse" x1="-424.9072" y1="476.9902" x2="-424.9072" y2="477.9902" gradientTransform="matrix(6.5701 0 0 -6.5701 2814.7805 3168.5281)">
	<stop  offset="0" style="stop-color:#A6694A"/>
	<stop  offset="1" style="stop-color:#4F2A1E"/>
	<a:midPointStop  offset="0" style="stop-color:#A6694A"/>
	<a:midPointStop  offset="0.5" style="stop-color:#A6694A"/>
	<a:midPointStop  offset="1" style="stop-color:#4F2A1E"/>
</linearGradient>
<circle id="Oval_102_" fill="url(#Oval_1_)" cx="23.098" cy="31.367" r="3.285"/>
<path id="Path_823_" fill="#1A1626" d="M21.457,31.307c0,2.273,3.285,2.273,3.285,0C24.742,29.197,21.457,29.197,21.457,31.307z"/>
<path id="Path_822_" fill="#AB968C" d="M20.957,30.388c0,0.952,1.377,0.952,1.377,0C22.334,29.504,20.957,29.504,20.957,30.388z"/>
<path id="Path_821_" fill="#69452D" d="M28.787,31.56c-1.334-4.288-10.428-3.655-11.666-0.772
	C17.58,27.097,27.65,26.122,28.787,31.56z"/>
<path id="Path_820_" fill="#FFFFFF" d="M35.229,31.433c-0.123,0.961,0.529,2.099,2.334,2.952c1.146,0.543,3.531,1.182,6.666-0.141
	c1.406-0.592,2.773-2.438,2.65-3.457C45.182,27.585,36.818,27.115,35.229,31.433z"/>
<linearGradient id="Oval_2_" gradientUnits="userSpaceOnUse" x1="-424.9072" y1="476.9902" x2="-424.9072" y2="477.9902" gradientTransform="matrix(6.5701 0 0 -6.5701 2832.511 3168.5281)">
	<stop  offset="0" style="stop-color:#A6694A"/>
	<stop  offset="1" style="stop-color:#4F2A1E"/>
	<a:midPointStop  offset="0" style="stop-color:#A6694A"/>
	<a:midPointStop  offset="0.5" style="stop-color:#A6694A"/>
	<a:midPointStop  offset="1" style="stop-color:#4F2A1E"/>
</linearGradient>
<circle id="Oval_101_" fill="url(#Oval_2_)" cx="40.828" cy="31.367" r="3.285"/>
<path id="Path_819_" fill="#1A1626" d="M39.188,31.307c0,2.273,3.285,2.273,3.285,0C42.473,29.197,39.188,29.197,39.188,31.307z"/>
<path id="Path_818_" fill="#AB968C" d="M38.688,30.388c0,0.952,1.377,0.952,1.377,0C40.064,29.504,38.688,29.504,38.688,30.388z"/>
<path id="Path_817_" fill="#69452D" d="M35.215,31.56c1.332-4.286,10.42-3.672,11.664-0.772
	C46.418,27.097,36.35,26.122,35.215,31.56z"/>
</svg>
