<?xml version="1.0" encoding="utf-8"?>
<!-- Generator: Adobe Illustrator 15.0.0, SVG Export Plug-In . SVG Version: 6.00 Build 0)  -->
<!DOCTYPE svg PUBLIC "-//W3C//DTD SVG 1.1//EN" "http://www.w3.org/Graphics/SVG/1.1/DTD/svg11.dtd" [
	<!ENTITY ns_flows "http://ns.adobe.com/Flows/1.0/">
	<!ENTITY ns_extend "http://ns.adobe.com/Extensibility/1.0/">
	<!ENTITY ns_ai "http://ns.adobe.com/AdobeIllustrator/10.0/">
	<!ENTITY ns_graphs "http://ns.adobe.com/Graphs/1.0/">
]>
<svg version="1.1" id="Layer_1" xmlns:x="&ns_extend;" xmlns:i="&ns_ai;" xmlns:graph="&ns_graphs;"
	 xmlns="http://www.w3.org/2000/svg" xmlns:xlink="http://www.w3.org/1999/xlink" xmlns:a="http://ns.adobe.com/AdobeSVGViewerExtensions/3.0/"
	 x="0px" y="0px" width="64px" height="64px" viewBox="0 0 64 64" enable-background="new 0 0 64 64" xml:space="preserve">
<path fill="#302C3B" d="M9.789,52.752c2.699-1.365,13.906-4.969,13.906-4.969h16.695c0,0,11.199,3.596,13.885,4.965
	C58.18,54.732,59,62,59,62H5C5,62,5.871,54.727,9.789,52.752z"/>
<path fill="#E6B045" d="M23,48.009c-0.018-0.008,0.871,5.778,9,5.771c8.166-0.01,8.986-5.793,9-5.799v-6.068H23V48.009z"/>
<path fill="#1A1626" d="M22.82,55.291l-3.57-2.09c0,0,1.979-2.945,2.99-4.787l-4.426,5.209l3.893,1.836c0,0-2.654,2.418-3.078,2.883
	c0,0,2.689,2.693,3.078,3.658h1.113c0,0-1.389-2.254-2.729-3.658C20.092,58.342,21.795,56.084,22.82,55.291z"/>
<path fill="#1A1626" d="M42.295,55.459l3.893-1.836l-4.426-5.209c1.014,1.842,2.992,4.787,2.992,4.787l-3.574,2.09
	c1.025,0.793,2.732,3.051,2.732,3.051C42.57,59.746,41.18,62,41.18,62h1.115c0.391-0.965,3.076-3.658,3.076-3.658
	C44.949,57.877,42.295,55.459,42.295,55.459z"/>
<path fill="#E6EBEF" d="M32,53.715l-8.611,1.117c0,0,0.271,3.75,1.715,7.168h13.793c1.445-3.418,1.717-7.168,1.717-7.168L32,53.715z
	"/>
<path fill="#1A1626" d="M33.532,58.541c-0.412-1.157-2.652-1.157-3.064,0C30.14,59.462,29.864,60.67,29.634,62l4.73-0.001
	C34.135,60.669,33.858,59.462,33.532,58.541z"/>
<path fill="#302C3B" d="M33.414,58.541c-0.319,0.42-2.546,0.465-2.828,0c-0.669-1.1-1.768-3.281-1.768-3.281s2.774-1.48,3.181-1.48
	c0.409,0,3.183,1.48,3.183,1.48S34.183,57.533,33.414,58.541z"/>
<path fill="#FFFFFF" d="M32,53.715c-7.74-2.367-9-5.706-9-5.706s0.018,3.339,0.389,6.823c1.049,1.313,2.801,3.246,3.631,3.246
	c1.158,0,4.98-3.969,4.98-3.969s3.822,3.969,4.98,3.969c0.832,0,2.582-1.934,3.633-3.246C40.982,51.348,41,47.98,41,47.98
	S39.742,51.348,32,53.715z"/>
<path id="Path_104_" fill="#FFCC66" d="M48.441,25.394c-2.545,0.307-4.383,8.815-2.781,11.061c0.225,0.313,1.535,0.814,2.508-1.168
	c0.539-1.097,2.092-2.013,2.574-4.277C51.359,28.109,50.975,25.087,48.441,25.394z"/>
<path id="Path_103_" fill="#FFCC66" d="M15.561,25.394c2.545,0.307,4.383,8.815,2.781,11.061c-0.225,0.313-1.535,0.814-2.51-1.168
	c-0.537-1.097-2.092-2.013-2.572-4.277C12.641,28.109,13.027,25.087,15.561,25.394z"/>
<path id="Path_102_" fill="#DB9D3A" d="M48.373,27.023c-0.664,0.209-1.389,1.221-1.781,2.897c2.32-0.498,1.74,3.362-0.277,3.435
	c0.02,0.389,0.045,0.787,0.094,1.207c0.971-1.408,1.959-0.844,2.938-2.94C50.227,29.733,50.018,26.509,48.373,27.023z"/>
<path id="Path_101_" fill="#DB9D3A" d="M17.41,29.917c-0.395-1.675-1.117-2.685-1.781-2.894c-1.643-0.515-1.855,2.71-0.973,4.599
	c0.979,2.097,1.967,1.532,2.939,2.94c0.047-0.42,0.074-0.82,0.09-1.209C15.689,33.26,15.117,29.446,17.41,29.917z"/>
<path id="Path_100_" fill="#FFCC66" d="M32,9.034c-11.027,0-16.34,8.329-15.676,19.909c0.133,2.329,1.582,9.93,2.947,12.655
	c1.398,2.79,6.074,7.09,8.938,7.981c1.811,0.561,5.773,0.561,7.582,0c2.865-0.892,7.543-5.191,8.939-7.981
	c1.369-2.726,2.814-10.324,2.945-12.655C48.344,17.363,43.031,9.034,32,9.034z"/>
<path id="Path_99_" fill="#966F42" d="M43.982,24.544c-2.521-1.335-7.348-1.399-9.146-0.469c-0.387,0.178-0.131,1.441,0.193,1.322
	c2.504-0.99,6.547-1.012,8.893,0.084C44.234,25.624,44.365,24.729,43.982,24.544z"/>
<path id="Path_98_" fill="#966F42" d="M20.02,24.544c2.521-1.335,7.346-1.399,9.146-0.469c0.385,0.178,0.131,1.441-0.193,1.322
	c-2.51-0.99-6.547-1.012-8.895,0.084C19.768,25.624,19.639,24.729,20.02,24.544z"/>
<path id="Path_97_" fill="#DB9D3A" d="M34.977,36.108c-0.314-0.219-1.053,0.119-2.977,0.119c-1.92,0-2.66-0.338-2.975-0.119
	c-0.377,0.266,0.223,1.461,2.975,1.461C34.754,37.569,35.355,36.374,34.977,36.108z"/>
<path id="Path_96_" fill="#DB9D3A" d="M32,40.646c-2.479-0.728-6.154,0.346-6.154,0.346c1.398,1.521,2.424,3.495,6.154,3.495
	c4.275,0,5.002-2.241,6.156-3.495C38.156,40.991,34.48,39.912,32,40.646z"/>
<path id="Path_95_" fill="#FFFFFF" d="M26.768,41.249c2.602,2.176,7.852,2.191,10.467,0C34.463,41.366,29.559,41.368,26.768,41.249z
	"/>
<path id="Path_94_" fill="#FFFFFF" d="M29.547,29.086c0.094,0.729-0.402,1.593-1.773,2.241c-0.871,0.412-2.686,0.896-5.066-0.107
	c-1.066-0.449-2.107-1.848-2.014-2.622C21.984,26.167,28.338,25.812,29.547,29.086z"/>
<linearGradient id="Oval_1_" gradientUnits="userSpaceOnUse" x1="-424.5815" y1="477.4658" x2="-424.5815" y2="478.2236" gradientTransform="matrix(6.5701 0 0 -6.5701 2814.7805 3168.5281)">
	<stop  offset="0" style="stop-color:#A6694A"/>
	<stop  offset="1" style="stop-color:#4F2A1E"/>
	<a:midPointStop  offset="0" style="stop-color:#A6694A"/>
	<a:midPointStop  offset="0.5" style="stop-color:#A6694A"/>
	<a:midPointStop  offset="1" style="stop-color:#4F2A1E"/>
</linearGradient>
<circle id="Oval_16_" fill="url(#Oval_1_)" cx="25.236" cy="29.038" r="2.492"/>
<path id="Path_93_" fill="#1A1626" d="M23.988,28.992c0,1.724,2.496,1.724,2.496,0C26.484,27.393,23.988,27.393,23.988,28.992z"/>
<path id="Path_92_" fill="#AB968C" d="M23.609,28.293c0,0.723,1.045,0.723,1.045,0C24.654,27.625,23.609,27.625,23.609,28.293z"/>
<path id="Path_91_" fill="#DB9D3A" d="M29.559,29.182c-1.014-3.251-7.926-2.771-8.865-0.584
	C21.041,25.798,28.695,25.058,29.559,29.182z"/>
<path id="Path_90_" fill="#FFFFFF" d="M34.455,29.086c-0.094,0.729,0.4,1.593,1.773,2.241c0.871,0.412,2.684,0.896,5.064-0.107
	c1.07-0.449,2.109-1.848,2.016-2.622C42.018,26.167,35.662,25.812,34.455,29.086z"/>
<linearGradient id="Oval_2_" gradientUnits="userSpaceOnUse" x1="-425.23" y1="477.4658" x2="-425.23" y2="478.2236" gradientTransform="matrix(6.5701 0 0 -6.5701 2832.511 3168.5281)">
	<stop  offset="0" style="stop-color:#A6694A"/>
	<stop  offset="1" style="stop-color:#4F2A1E"/>
	<a:midPointStop  offset="0" style="stop-color:#A6694A"/>
	<a:midPointStop  offset="0.5" style="stop-color:#A6694A"/>
	<a:midPointStop  offset="1" style="stop-color:#4F2A1E"/>
</linearGradient>
<circle id="Oval_15_" fill="url(#Oval_2_)" cx="38.709" cy="29.038" r="2.492"/>
<path id="Path_89_" fill="#1A1626" d="M37.463,28.992c0,1.724,2.496,1.724,2.496,0C39.959,27.393,37.463,27.393,37.463,28.992z"/>
<path id="Path_88_" fill="#AB968C" d="M37.082,28.293c0,0.723,1.047,0.723,1.047,0C38.129,27.625,37.082,27.625,37.082,28.293z"/>
<path id="Path_87_" fill="#DB9D3A" d="M34.443,29.182c1.012-3.249,7.92-2.784,8.865-0.584
	C42.957,25.798,35.307,25.058,34.443,29.182z"/>
<path fill="#7A6056" d="M46.086,11.793C43.672,8.532,39.254,6,32,6c-7.252,0-11.668,2.532-14.082,5.793
	C14.5,16.41,49.502,16.41,46.086,11.793z"/>
<linearGradient id="SVGID_1_" gradientUnits="userSpaceOnUse" x1="32.0015" y1="31.792" x2="32.0015" y2="10.4116">
	<stop  offset="0.5" style="stop-color:#473834"/>
	<stop  offset="0.6387" style="stop-color:#503F3A"/>
	<stop  offset="0.8641" style="stop-color:#68524A"/>
	<stop  offset="1" style="stop-color:#7A6056"/>
	<a:midPointStop  offset="0.5" style="stop-color:#473834"/>
	<a:midPointStop  offset="0.6" style="stop-color:#473834"/>
	<a:midPointStop  offset="1" style="stop-color:#7A6056"/>
</linearGradient>
<path fill="url(#SVGID_1_)" d="M46.086,11.793C43.672,8.532,39.254,12.068,32,12.068c-7.252,0-11.668-3.536-14.082-0.275
	C14.5,16.41,15.66,31.792,17.182,31.792c0.24,0,0.275-5.381,0.736-9.103c0.373-3.03,1.094-5.969,1.924-6.449
	c2.531-1.468,7.412,0.631,12.158,0.631s9.629-2.099,12.162-0.631c0.828,0.48,1.547,3.419,1.924,6.449
	c0.459,3.722,0.494,9.103,0.734,9.103C48.342,31.792,49.502,16.41,46.086,11.793z"/>
<polygon fill="#FFE12C" points="48.184,59.506 49.621,59.506 49.621,59.264 47.808,59.264 "/>
<polygon fill="#FFE12C" points="48.595,58.968 48.389,58.777 46.803,58.777 47.306,59.105 48.46,59.105 48.585,59.163 
	50.023,59.163 49.753,58.968 "/>
<polygon fill="#FFE12C" points="48.021,58.727 48.492,58.727 48.633,58.877 49.631,58.877 49.426,58.602 48.116,58.586 
	47.851,58.341 46.075,58.341 46.578,58.669 47.922,58.669 "/>
<polygon fill="#FFE12C" points="47.36,58.283 47.929,58.307 48.193,58.529 49.398,58.557 49.341,58.26 47.751,58.26 47.41,57.896 
	45.415,57.896 45.917,58.225 47.261,58.225 "/>
<polygon fill="#FFE12C" points="50.858,59.506 52.296,59.506 52.671,59.264 50.858,59.264 "/>
<polygon fill="#FFE12C" points="51.884,58.968 50.726,58.968 50.456,59.163 51.895,59.163 52.019,59.105 53.174,59.105 
	53.676,58.777 52.09,58.777 "/>
<polygon fill="#FFE12C" points="52.362,58.586 51.054,58.602 50.848,58.877 51.847,58.877 51.986,58.727 52.457,58.727 
	52.557,58.669 53.9,58.669 54.403,58.341 52.628,58.341 "/>
<polygon fill="#FFE12C" points="53.068,57.896 52.729,58.26 51.138,58.26 51.08,58.557 52.285,58.529 52.55,58.307 53.118,58.283 
	53.218,58.225 54.562,58.225 55.063,57.896 "/>
<path fill="#FFE12C" d="M51.079,58.189h1.534l0.381-0.414l-2.197,0.141c0.026,0.067,0.04,0.141,0.04,0.217
	c0,0.33-0.267,0.598-0.598,0.598s-0.598-0.268-0.598-0.598c0-0.076,0.014-0.149,0.04-0.217l-2.196-0.141l0.38,0.414h1.534
	c0.03,0.44,0.393,0.789,0.84,0.789S51.049,58.63,51.079,58.189z"/>
<circle fill="#FFE12C" cx="50.239" cy="59.744" r="1.031"/>
<circle fill="#302C3B" cx="50.239" cy="59.744" r="0.729"/>
<polygon fill="#FFFFFF" points="50.239,58.959 50.416,59.502 50.986,59.502 50.525,59.838 50.701,60.381 50.239,60.045 
	49.777,60.381 49.953,59.838 49.492,59.502 50.063,59.502 "/>
<path fill="#302C3B" d="M51.986,13.789C51.371,8.002,45.293,2,32.002,2C18.709,2,12.627,8,12.014,13.789
	c-0.203,1.922,1.889,3.217,3.648,6.266c0.949,1.646,31.73,1.646,32.678,0C50.1,17.006,52.189,15.711,51.986,13.789z"/>
<path fill="#FFE12C" d="M14.945,17.111v1.323h34.113v-1.323C45.213,13.345,18.789,13.345,14.945,17.111z"/>
<path fill="#302C3B" d="M14.945,18.435v1.898c0,0,0,4.659,17.057,4.659s17.057-4.659,17.057-4.659v-1.898
	C45.213,14.668,18.789,14.668,14.945,18.435z"/>
<polygon fill="#FFE12C" points="27.523,9.802 30.653,9.802 30.653,9.272 26.706,9.272 "/>
<polygon fill="#FFE12C" points="28.419,8.628 27.972,8.214 24.52,8.214 25.612,8.928 28.127,8.928 28.397,9.054 31.529,9.054 
	30.941,8.628 "/>
<polygon fill="#FFE12C" points="27.172,8.104 28.195,8.104 28.502,8.433 30.675,8.433 30.228,7.831 27.378,7.799 26.801,7.265 
	22.937,7.265 24.03,7.978 26.955,7.978 "/>
<polygon fill="#FFE12C" points="25.733,7.139 26.971,7.188 27.546,7.673 30.169,7.732 30.044,7.086 26.582,7.086 25.842,6.298 
	21.498,6.298 22.59,7.012 25.517,7.012 "/>
<polygon fill="#FFE12C" points="33.347,9.802 36.477,9.802 37.294,9.272 33.347,9.272 "/>
<polygon fill="#FFE12C" points="35.581,8.628 33.059,8.628 32.473,9.054 35.604,9.054 35.873,8.928 38.388,8.928 39.48,8.214 
	36.029,8.214 "/>
<polygon fill="#FFE12C" points="36.622,7.799 33.773,7.831 33.325,8.433 35.499,8.433 35.805,8.104 36.828,8.104 37.045,7.978 
	39.97,7.978 41.063,7.265 37.199,7.265 "/>
<polygon fill="#FFE12C" points="38.158,6.298 37.419,7.086 33.956,7.086 33.831,7.732 36.454,7.673 37.029,7.188 38.267,7.139 
	38.483,7.012 41.41,7.012 42.503,6.298 "/>
<path fill="#FFE12C" d="M33.829,6.937h3.338l0.829-0.903L33.214,6.34c0.058,0.146,0.088,0.304,0.088,0.47
	c0,0.72-0.583,1.302-1.302,1.302s-1.302-0.582-1.302-1.302c0-0.166,0.03-0.323,0.088-0.47l-4.782-0.307l0.829,0.903h3.338
	C30.237,7.894,31.026,8.651,32,8.651S33.763,7.894,33.829,6.937z"/>
<circle fill="#FFE12C" cx="32" cy="10.32" r="2.244"/>
<circle fill="#302C3B" cx="32.001" cy="10.32" r="1.587"/>
<polygon fill="#FFFFFF" points="32,8.608 32.384,9.791 33.627,9.791 32.622,10.521 33.006,11.704 32,10.974 30.994,11.704 
	31.378,10.521 30.373,9.791 31.616,9.791 "/>
<path fill="#FFE12C" d="M17.299,19.264c0.028-0.022-0.882,1.302,1.11,2.748C18.409,21.989,18.954,20.032,17.299,19.264z"/>
<path fill="#FFE12C" d="M19.979,18.368c-1.948-0.324-2.685,0.859-2.679,0.892C18.933,20.265,19.997,18.352,19.979,18.368z"/>
<path fill="#FFE12C" d="M19.061,20.133c0.024-0.021-0.682,1.293,1.289,2.444C20.348,22.558,20.671,20.681,19.061,20.133z"/>
<path fill="#FFE12C" d="M21.466,19.041c-1.853-0.121-2.409,1.062-2.404,1.088C20.668,20.898,21.479,19.025,21.466,19.041z"/>
<path fill="#FFE12C" d="M20.879,20.8c0.02-0.021-0.512,1.29,1.458,2.188C22.334,22.97,22.456,21.158,20.879,20.8z"/>
<path fill="#FFE12C" d="M23.047,19.53c-1.774,0.062-2.176,1.242-2.168,1.266C22.473,21.363,23.059,19.515,23.047,19.53z"/>
<path fill="#FFE12C" d="M22.76,21.274c0.015-0.021-0.346,1.257,1.581,1.91C24.338,23.17,24.275,21.454,22.76,21.274z"/>
<path fill="#FFE12C" d="M24.673,19.874c-1.669,0.225-1.923,1.376-1.913,1.396C24.309,21.646,24.684,19.859,24.673,19.874z"/>
<path fill="#FFE12C" d="M24.675,21.553c0.013-0.021-0.196,1.217,1.685,1.648C26.355,23.188,26.13,21.572,24.675,21.553z"/>
<path fill="#FFE12C" d="M26.35,20.045c-1.568,0.374-1.684,1.487-1.677,1.504C26.176,21.75,26.357,20.032,26.35,20.045z"/>
<path fill="#FFE12C" d="M26.003,21.6c-0.031-0.009,0.989,0.907,2.5-0.04C28.464,21.573,26.949,20.669,26.003,21.6z"/>
<path fill="#FFE12C" d="M16.504,18.778c0.003-0.064,2.448,1.485,5.133,2.114c2.646,0.782,5.531,0.643,5.502,0.703
	c0.051,0.075-2.882,0.282-5.554-0.508C18.872,20.453,16.421,18.821,16.504,18.778z"/>
<path fill="#FFE12C" d="M46.705,19.264c-0.028-0.022,0.882,1.302-1.11,2.748C45.595,21.989,45.05,20.032,46.705,19.264z"/>
<path fill="#FFE12C" d="M44.024,18.368c1.948-0.324,2.685,0.859,2.68,0.892C45.071,20.265,44.007,18.352,44.024,18.368z"/>
<path fill="#FFE12C" d="M44.943,20.133c-0.024-0.021,0.682,1.293-1.29,2.444C43.656,22.558,43.333,20.681,44.943,20.133z"/>
<path fill="#FFE12C" d="M42.538,19.041c1.853-0.121,2.409,1.062,2.404,1.088C43.335,20.898,42.525,19.025,42.538,19.041z"/>
<path fill="#FFE12C" d="M43.125,20.8c-0.02-0.021,0.512,1.29-1.458,2.188C41.671,22.97,41.548,21.158,43.125,20.8z"/>
<path fill="#FFE12C" d="M40.957,19.53c1.774,0.062,2.176,1.242,2.168,1.266C41.531,21.363,40.945,19.515,40.957,19.53z"/>
<path fill="#FFE12C" d="M41.244,21.274c-0.016-0.021,0.345,1.257-1.582,1.91C39.666,23.17,39.728,21.454,41.244,21.274z"/>
<path fill="#FFE12C" d="M39.331,19.874c1.671,0.225,1.923,1.376,1.913,1.396C39.695,21.646,39.32,19.859,39.331,19.874z"/>
<path fill="#FFE12C" d="M39.329,21.553c-0.013-0.021,0.196,1.217-1.685,1.648C37.648,23.188,37.874,21.572,39.329,21.553z"/>
<path fill="#FFE12C" d="M37.654,20.045c1.568,0.374,1.684,1.487,1.677,1.504C37.828,21.75,37.646,20.032,37.654,20.045z"/>
<path fill="#FFE12C" d="M38.001,21.6c0.031-0.009-0.989,0.907-2.5-0.04C35.54,21.573,37.055,20.669,38.001,21.6z"/>
<path fill="#FFE12C" d="M47.5,18.778c-0.003-0.064-2.448,1.485-5.133,2.114c-2.646,0.782-5.531,0.643-5.502,0.703
	c-0.051,0.075,2.882,0.282,5.554-0.508C45.131,20.453,47.584,18.821,47.5,18.778z"/>
</svg>
