<?xml version="1.0" encoding="utf-8"?>
<!-- Generator: Adobe Illustrator 15.0.0, SVG Export Plug-In . SVG Version: 6.00 Build 0)  -->
<!DOCTYPE svg PUBLIC "-//W3C//DTD SVG 1.1//EN" "http://www.w3.org/Graphics/SVG/1.1/DTD/svg11.dtd" [
	<!ENTITY ns_flows "http://ns.adobe.com/Flows/1.0/">
	<!ENTITY ns_extend "http://ns.adobe.com/Extensibility/1.0/">
	<!ENTITY ns_ai "http://ns.adobe.com/AdobeIllustrator/10.0/">
	<!ENTITY ns_graphs "http://ns.adobe.com/Graphs/1.0/">
]>
<svg version="1.1" id="Layer_1" xmlns:x="&ns_extend;" xmlns:i="&ns_ai;" xmlns:graph="&ns_graphs;"
	 xmlns="http://www.w3.org/2000/svg" xmlns:xlink="http://www.w3.org/1999/xlink" xmlns:a="http://ns.adobe.com/AdobeSVGViewerExtensions/3.0/"
	 x="0px" y="0px" width="64px" height="64px" viewBox="0 0 64 64" enable-background="new 0 0 64 64" xml:space="preserve">
<rect y="16.001" fill="#774212" width="64" height="39.998"/>
<rect x="2" y="17.999" fill="#006351" width="60" height="36"/>
<linearGradient id="SVGID_1_" gradientUnits="userSpaceOnUse" x1="32.0005" y1="53.499" x2="32.0005" y2="18.4995">
	<stop  offset="0" style="stop-color:#006956"/>
	<stop  offset="0.0779" style="stop-color:#006D59"/>
	<stop  offset="0.6432" style="stop-color:#00846E"/>
	<stop  offset="1" style="stop-color:#008C76"/>
	<a:midPointStop  offset="0" style="stop-color:#006956"/>
	<a:midPointStop  offset="0.3939" style="stop-color:#006956"/>
	<a:midPointStop  offset="1" style="stop-color:#008C76"/>
</linearGradient>
<rect x="2.5" y="18.499" fill="url(#SVGID_1_)" width="59" height="35"/>
<path fill="#BA9757" d="M33.582,50.741c15.168-6.066,13.652-20.477,13.652-20.477H4.768c0,0-1.518,14.41,13.648,20.477
	c0,0,3.035,0.758,7.582,0.758C30.551,51.499,33.582,50.741,33.582,50.741z"/>
<linearGradient id="SVGID_2_" gradientUnits="userSpaceOnUse" x1="41.166" y1="51.4971" x2="41.166" y2="6.1128">
	<stop  offset="0.05" style="stop-color:#BA9757"/>
	<stop  offset="0.1973" style="stop-color:#C6A265"/>
	<stop  offset="0.5085" style="stop-color:#DBB77D"/>
	<stop  offset="0.7" style="stop-color:#E3BE86"/>
	<a:midPointStop  offset="0.05" style="stop-color:#BA9757"/>
	<a:midPointStop  offset="0.4" style="stop-color:#BA9757"/>
	<a:midPointStop  offset="0.7" style="stop-color:#E3BE86"/>
</linearGradient>
<path fill="url(#SVGID_2_)" d="M41.334,31.803c1.551,6.532,0.732,12.999-7.752,18.938C42.684,49.224,48.75,40.63,48.75,34.036
	L41.334,31.803z"/>
<linearGradient id="SVGID_3_" gradientUnits="userSpaceOnUse" x1="1769.9805" y1="51.4971" x2="1769.9805" y2="6.1128" gradientTransform="matrix(-1 0 0 1 1780.8145 0)">
	<stop  offset="0.05" style="stop-color:#BA9757"/>
	<stop  offset="0.1973" style="stop-color:#C6A265"/>
	<stop  offset="0.5085" style="stop-color:#DBB77D"/>
	<stop  offset="0.7" style="stop-color:#E3BE86"/>
	<a:midPointStop  offset="0.05" style="stop-color:#BA9757"/>
	<a:midPointStop  offset="0.4" style="stop-color:#BA9757"/>
	<a:midPointStop  offset="0.7" style="stop-color:#E3BE86"/>
</linearGradient>
<path fill="url(#SVGID_3_)" d="M10.668,31.803c-1.553,6.532-0.734,12.999,7.75,18.938C9.316,49.224,3.25,40.63,3.25,34.036
	L10.668,31.803z"/>
<path fill="#0182BD" d="M6.256,52.751c2.4-1.365,12.363-4.969,12.363-4.969h14.84c0,0,9.955,3.596,12.342,4.965
	C49.271,54.731,50,61.999,50,61.999H2C2,61.999,2.775,54.728,6.256,52.751z"/>
<path fill="#C99B71" d="M18.501,49.069c0,3.695,15,3.695,15,0c0-2.164,0-7.158,0-7.158h-15
	C18.501,41.911,18.501,46.905,18.501,49.069z"/>
<path fill="#0198DB" d="M32.428,57.821c3.13-4.928,2.94-9.338,2.94-9.338s-1.033-1.037-1.867-1.48c0,0-0.71,4.4-7.503,4.838
	C25.998,51.841,30.089,54.423,32.428,57.821z"/>
<path fill="#0198DB" d="M19.574,57.821c-3.13-4.928-2.94-9.338-2.94-9.338s1.033-1.037,1.867-1.48c0,0,0.704,4.4,7.497,4.838
	C25.998,51.841,21.913,54.423,19.574,57.821z"/>
<path fill="#EBC199" d="M26,8.276c-11.004,0-16.305,8.961-15.643,20.484c0.135,2.314,0.779,5.656,1.574,8.52
	C13.582,43.231,22.291,49.224,26,49.224c3.707,0,12.416-5.992,14.068-11.943c0.795-2.863,1.439-6.206,1.576-8.52
	C42.305,17.237,37.008,8.276,26,8.276z"/>
<path fill="#C98655" d="M25.998,39.868c-2.578-1.133-2.598-0.045-6.58,0.221c1.494,1.699,2.596,3.881,6.58,3.881
	c4.574,0,5.346-2.479,6.584-3.881C28.598,39.823,28.58,38.735,25.998,39.868z"/>
<path fill="#FFFFFF" d="M20.613,40.513c2.6,2.705,8.205,2.67,10.773,0.002C27.385,40.944,24.617,40.944,20.613,40.513z"/>
<path fill="#A17C5B" d="M37.693,24.927c-2.391-1.426-6.68-1.602-8.375-0.629c-0.359,0.195-0.264,1.225,0.047,1.096
	c2.42-1.008,6.109-1.057,8.381,0.109C38.049,25.655,38.057,25.134,37.693,24.927z"/>
<path fill="#A17C5B" d="M14.305,24.927c2.391-1.426,6.68-1.602,8.379-0.629c0.361,0.195,0.264,1.225-0.049,1.096
	c-2.422-1.008-6.105-1.059-8.379,0.109C13.949,25.655,13.943,25.134,14.305,24.927z"/>
<path fill="#C99B71" d="M28.475,36.212c-0.264-0.184-0.877,0.1-2.477,0.1c-1.596,0-2.211-0.283-2.473-0.1
	c-0.314,0.221,0.186,1.217,2.473,1.217C28.287,37.429,28.789,36.435,28.475,36.212z"/>
<path id="Path_1187_" fill="#FFFFFF" d="M23.553,29.249c0.092,0.727-0.402,1.592-1.771,2.238c-0.869,0.412-2.678,0.896-5.055-0.107
	c-1.064-0.447-2.104-1.845-2.01-2.619C16.006,26.331,22.346,25.976,23.553,29.249z"/>
<linearGradient id="Oval_1_" gradientUnits="userSpaceOnUse" x1="-425.4927" y1="477.4414" x2="-425.4927" y2="478.1992" gradientTransform="matrix(6.5701 0 0 -6.5701 2814.7805 3168.5281)">
	<stop  offset="0" style="stop-color:#A6694A"/>
	<stop  offset="1" style="stop-color:#4F2A1E"/>
	<a:midPointStop  offset="0" style="stop-color:#A6694A"/>
	<a:midPointStop  offset="0.5" style="stop-color:#A6694A"/>
	<a:midPointStop  offset="1" style="stop-color:#4F2A1E"/>
</linearGradient>
<circle id="Oval_182_" fill="url(#Oval_1_)" cx="19.25" cy="29.2" r="2.49"/>
<path id="Path_1186_" fill="#1A1626" d="M18.006,29.155c0,1.723,2.49,1.723,2.49,0C20.496,27.556,18.006,27.556,18.006,29.155z"/>
<path id="Path_1185_" fill="#AB968C" d="M17.627,28.456c0,0.723,1.043,0.723,1.043,0C18.67,27.788,17.627,27.788,17.627,28.456z"/>
<path id="Path_1184_" fill="#45332C" d="M23.564,29.345c-1.012-3.25-7.908-2.77-8.848-0.584
	C15.064,25.962,22.701,25.222,23.564,29.345z"/>
<path id="Path_1183_" fill="#FFFFFF" d="M28.449,29.249c-0.094,0.727,0.4,1.592,1.77,2.238c0.869,0.412,2.678,0.896,5.055-0.107
	c1.066-0.447,2.104-1.845,2.01-2.619C35.996,26.331,29.654,25.976,28.449,29.249z"/>
<linearGradient id="Oval_2_" gradientUnits="userSpaceOnUse" x1="-426.145" y1="477.4414" x2="-426.145" y2="478.1992" gradientTransform="matrix(6.5701 0 0 -6.5701 2832.511 3168.5281)">
	<stop  offset="0" style="stop-color:#A6694A"/>
	<stop  offset="1" style="stop-color:#4F2A1E"/>
	<a:midPointStop  offset="0" style="stop-color:#A6694A"/>
	<a:midPointStop  offset="0.5" style="stop-color:#A6694A"/>
	<a:midPointStop  offset="1" style="stop-color:#4F2A1E"/>
</linearGradient>
<circle id="Oval_181_" fill="url(#Oval_2_)" cx="32.695" cy="29.2" r="2.49"/>
<path id="Path_1182_" fill="#1A1626" d="M31.451,29.155c0,1.723,2.492,1.723,2.492,0C33.943,27.556,31.451,27.556,31.451,29.155z"/>
<path id="Path_1181_" fill="#AB968C" d="M31.072,28.456c0,0.723,1.043,0.723,1.043,0C32.115,27.788,31.072,27.788,31.072,28.456z"/>
<path id="Path_1180_" fill="#45332C" d="M28.438,29.345c1.012-3.248,7.902-2.783,8.846-0.584
	C36.934,25.962,29.299,25.222,28.438,29.345z"/>
<linearGradient id="SVGID_4_" gradientUnits="userSpaceOnUse" x1="26.0005" y1="51.4951" x2="26.0005" y2="6.1136">
	<stop  offset="0.05" style="stop-color:#BA9757"/>
	<stop  offset="0.1973" style="stop-color:#C6A265"/>
	<stop  offset="0.5085" style="stop-color:#DBB77D"/>
	<stop  offset="0.7" style="stop-color:#E3BE86"/>
	<a:midPointStop  offset="0.05" style="stop-color:#BA9757"/>
	<a:midPointStop  offset="0.4" style="stop-color:#BA9757"/>
	<a:midPointStop  offset="0.7" style="stop-color:#E3BE86"/>
</linearGradient>
<path fill="url(#SVGID_4_)" d="M38.387,9.886c1.256-1.795-9.389-5.584-19.438-3.023C8.91,9.161,3.25,24.2,3.25,34.036
	c0.898,0.713,6.396-1.065,7.418-2.233c0.416-1.72,1.07-3.492,1.682-5.328c7.539-4.365,16.07-5.393,21.992-10.615
	c-0.758,2.273,3.256,5.143,5.309,10.615c0.666,1.775,1.262,3.553,1.684,5.328c1.674,1.542,5.014,2.268,7.416,2.233
	C48.75,25.716,42.41,8.724,38.387,9.886z"/>
<path fill="#BA9757" d="M5.059,32.54c6.943-9.246,29.438-8.619,33.328-22.654C30.834,21.665,6.955,23.651,5.059,32.54z"/>
<linearGradient id="SVGID_5_" gradientUnits="userSpaceOnUse" x1="-528.9673" y1="221.0674" x2="-528.9673" y2="229.1543" gradientTransform="matrix(1 0 0 -1 562.8965 255.043)">
	<stop  offset="0" style="stop-color:#FFFFFF;stop-opacity:0"/>
	<stop  offset="1" style="stop-color:#FFFFFF"/>
	<a:midPointStop  offset="0" style="stop-color:#FFFFFF;stop-opacity:0"/>
	<a:midPointStop  offset="0.5" style="stop-color:#FFFFFF;stop-opacity:0"/>
	<a:midPointStop  offset="1" style="stop-color:#FFFFFF"/>
</linearGradient>
<path opacity="0.5" fill="url(#SVGID_5_)" enable-background="new    " d="M28.445,27.282c-1.123,0.965,0.333,4.88,2.889,6.115
	c1.306,0.627,5.538,1.109,6.895-0.586c1.344-1.676,2.195-5.097,0.998-6.048C37.584,25.46,30.412,25.597,28.445,27.282z"/>
<linearGradient id="SVGID_6_" gradientUnits="userSpaceOnUse" x1="163.8809" y1="220.4092" x2="163.8809" y2="228.4961" gradientTransform="matrix(-1 0 0 -1 181.9531 254.4141)">
	<stop  offset="0" style="stop-color:#FFFFFF;stop-opacity:0"/>
	<stop  offset="1" style="stop-color:#FFFFFF"/>
	<a:midPointStop  offset="0" style="stop-color:#FFFFFF;stop-opacity:0"/>
	<a:midPointStop  offset="0.5" style="stop-color:#FFFFFF;stop-opacity:0"/>
	<a:midPointStop  offset="1" style="stop-color:#FFFFFF"/>
</linearGradient>
<path opacity="0.5" fill="url(#SVGID_6_)" enable-background="new    " d="M23.557,27.282c1.122,0.965-0.331,4.882-2.888,6.115
	c-1.306,0.627-5.539,1.109-6.895-0.586c-1.346-1.676-2.194-5.097-0.997-6.048C14.418,25.46,21.59,25.597,23.557,27.282z"/>
<path fill="#302C3B" d="M41.97,26.132c-1.081-0.035-2.501-0.725-5.53-0.879c-4.171-0.217-5.558,0.383-8.155,0.764
	c-0.805,0.119-1.556,0.18-2.283,0.176c-0.729,0.004-1.478-0.059-2.283-0.176c-2.597-0.381-3.985-0.98-8.154-0.764
	c-3.03,0.154-4.452,0.844-5.533,0.877c-0.065,0.479-0.189,1.195,0,1.686c0.147,0.383,0.555,0.473,0.817,0.738
	c1.332,1.342,0.581,5.924,5.553,6.279c4.661,0.33,6.731-1.355,7.875-4.113c0.323-0.777,0.858-2.127,1.726-2.127
	c0.867-0.002,1.4,1.348,1.724,2.129c1.146,2.756,3.216,4.441,7.877,4.111c4.972-0.355,4.217-4.938,5.551-6.279
	c0.264-0.266,0.672-0.355,0.818-0.738C42.158,27.325,42.037,26.608,41.97,26.132z M20.669,33.397
	c-1.306,0.627-5.539,1.109-6.895-0.586c-1.346-1.676-2.194-5.097-0.997-6.048c1.641-1.303,8.813-1.166,10.779,0.52
	C24.681,28.247,23.226,32.163,20.669,33.397z M38.229,32.809c-1.356,1.698-5.59,1.215-6.895,0.588
	c-2.556-1.235-4.012-5.15-2.889-6.115c1.967-1.686,9.139-1.822,10.781-0.52C40.424,27.714,39.572,31.135,38.229,32.809z"/>
<path fill="#018BC9" d="M52.943,61.999h-9.494c0,0,2.467-3.709,4-3.65C55.352,58.647,52.943,61.999,52.943,61.999z"/>
<path fill="#EBC199" d="M51.131,46.942c0.275-1.021,2.531,0.359,1.584,2.049c-0.383,0.682,4.74,6.135,4.424,7.381
	c-0.566,2.24-4.002,3.311-4.289,4.164c-0.287,0.855-6.27-0.744-5.646-1.568c1.611-2.137,0.281-4.418,1.75-6.447
	C51.408,49.132,50.678,48.614,51.131,46.942z"/>
<path fill="#1A1626" d="M59.986,24.64c0.102-0.424-0.449-0.6-0.564-0.176c-3.199,11.793-8.326,30.553-9.988,36.186
	c-0.359,1.221,1.645,1.945,1.943,0.709C53.525,52.452,56.242,40.247,59.986,24.64z"/>
<path fill="#EBC199" d="M56.291,50.11c1.22,1.137,0.544,2.369,0.544,2.369c0.95,1.189,0.318,2.627,0.318,2.627
	c1.012,3.098-6.264,4.363-4.76,1.496c-1.946,0.205-2.452-1.779-0.461-2.295c-2.237,0.34-1.885-2.172-0.552-2.43
	c0.5-0.096,1.013-0.318,1.591-0.424c-2.278,0.313-1.898-1.98-0.758-2.465c1.265-0.533,2.633-0.797,3.109-0.703
	C56.267,48.47,56.416,49.681,56.291,50.11z"/>
<path fill="#C99B71" d="M51.31,50.354c-0.142,2.199,3.421,0.746,3.946,0.291C52.925,51.64,51.347,51.2,51.31,50.354z"/>
<path fill="#C99B71" d="M52.19,57.263c-0.142,2.199,3.39,0.742,3.915,0.285C53.774,58.544,52.228,58.11,52.19,57.263z"/>
<path fill="#C99B71" d="M50.32,53.198c-0.142,2.199,3.566,0.988,5.299-0.162C52.147,54.726,50.356,54.044,50.32,53.198z"/>
<path fill="#C99B71" d="M50.667,55.569c-0.142,2.199,3.661,1.049,5.394-0.102C52.589,57.159,50.705,56.417,50.667,55.569z"/>
<path fill="#E6EBEF" d="M26,54.374c0.414,0,0.751,0.336,0.751,0.75s-0.337,0.75-0.751,0.75s-0.749-0.336-0.749-0.75
	S25.586,54.374,26,54.374"/>
<path fill="#E6EBEF" d="M26,58.206c0.414,0,0.751,0.336,0.751,0.75c0,0.416-0.337,0.75-0.751,0.75s-0.749-0.334-0.749-0.75
	C25.251,58.542,25.586,58.206,26,58.206"/>
</svg>
