<?xml version="1.0" encoding="utf-8"?>
<!-- Generator: Adobe Illustrator 15.0.0, SVG Export Plug-In . SVG Version: 6.00 Build 0)  -->
<!DOCTYPE svg PUBLIC "-//W3C//DTD SVG 1.1//EN" "http://www.w3.org/Graphics/SVG/1.1/DTD/svg11.dtd" [
	<!ENTITY ns_flows "http://ns.adobe.com/Flows/1.0/">
	<!ENTITY ns_extend "http://ns.adobe.com/Extensibility/1.0/">
	<!ENTITY ns_ai "http://ns.adobe.com/AdobeIllustrator/10.0/">
	<!ENTITY ns_graphs "http://ns.adobe.com/Graphs/1.0/">
]>
<svg version="1.1" id="Layer_1" xmlns:x="&ns_extend;" xmlns:i="&ns_ai;" xmlns:graph="&ns_graphs;"
	 xmlns="http://www.w3.org/2000/svg" xmlns:xlink="http://www.w3.org/1999/xlink" xmlns:a="http://ns.adobe.com/AdobeSVGViewerExtensions/3.0/"
	 x="0px" y="0px" width="64px" height="64px" viewBox="0 0 64 64" enable-background="new 0 0 64 64" xml:space="preserve">
<path fill="#523E3A" d="M55.234,18.194c0.907-2.346-0.471-4.81-2.532-5.783c-0.322-2.481-2.233-3.778-4.239-3.892
	c-0.511-2.936-3.325-4.104-5.697-3.523c-1.454-2.35-4.867-2.695-6.9-1.031c-1.729-2.629-5.979-2.619-7.693,0.027
	c-2.029-1.697-5.474-1.358-6.938,1.004c-2.372-0.58-5.187,0.588-5.697,3.523c-2.005,0.113-3.915,1.41-4.237,3.891
	c-2.062,0.974-3.439,3.437-2.533,5.783c-2.211,1.645-2.343,5.174-0.417,7.064c-2.255,2.607-1.084,7.707,3.523,7.707
	c4.758,0,35.496,0,40.254,0c4.607,0,5.778-5.1,3.523-7.707C57.575,23.368,57.444,19.838,55.234,18.194z"/>
<path id="Path_204_" fill="#FFD8B4" d="M53.635,29.562c-3.35,0.406-5.768,11.622-3.662,14.581c0.295,0.414,2.021,1.074,3.301-1.539
	c0.709-1.445,2.754-2.652,3.387-5.636C57.473,33.145,56.967,29.159,53.635,29.562z"/>
<path id="Path_203_" fill="#FFD8B4" d="M10.367,29.562c3.35,0.406,5.768,11.622,3.66,14.581c-0.295,0.414-2.021,1.074-3.301-1.539
	c-0.709-1.445-2.754-2.652-3.387-5.636C6.527,33.145,7.035,29.158,10.367,29.562z"/>
<path id="Path_202_" fill="#DEB38A" d="M53.543,31.713c-0.873,0.274-1.826,1.607-2.344,3.819c3.055-0.656,2.291,4.432-0.363,4.526
	c0.023,0.512,0.059,1.039,0.121,1.592c1.279-1.856,2.578-1.11,3.865-3.875C55.982,35.284,55.707,31.034,53.543,31.713z"/>
<path id="Path_201_" fill="#DEB38A" d="M12.801,35.525c-0.518-2.207-1.469-3.54-2.342-3.812c-2.164-0.681-2.441,3.571-1.281,6.062
	c1.287,2.765,2.586,2.019,3.867,3.875c0.063-0.555,0.098-1.082,0.119-1.594C10.537,39.932,9.785,34.906,12.801,35.525z"/>
<path id="Path_200_" fill="#FFD8B4" d="M32,8C17.49,8,10.498,18.978,11.373,34.244c0.176,3.07,2.08,13.089,3.877,16.683
	c1.842,3.677,7.992,9.345,11.762,10.519c2.383,0.74,7.596,0.74,9.977,0c3.77-1.174,9.924-6.842,11.762-10.519
	c1.801-3.594,3.703-13.61,3.877-16.683C53.504,18.978,46.514,8,32,8z"/>
<path id="Path_199_" fill="#A88868" d="M47.766,28.443c-3.318-1.758-9.67-1.843-12.035-0.619c-0.508,0.237-0.172,1.902,0.254,1.744
	c3.297-1.304,8.615-1.334,11.701,0.111C48.098,29.867,48.27,28.687,47.766,28.443z"/>
<path id="Path_198_" fill="#A88868" d="M16.234,28.443c3.318-1.758,9.666-1.843,12.035-0.619c0.506,0.237,0.172,1.902-0.254,1.744
	c-3.303-1.304-8.613-1.334-11.703,0.111C15.902,29.867,15.732,28.687,16.234,28.443z"/>
<path id="Path_197_" fill="#DEB38A" d="M35.916,43.688c-0.414-0.289-1.387,0.156-3.916,0.156c-2.527,0-3.5-0.445-3.916-0.156
	c-0.496,0.351,0.295,1.928,3.916,1.928C35.623,45.615,36.414,44.038,35.916,43.688z"/>
<path id="Path_196_" fill="#DEB38A" d="M32,49.669c-3.264-0.96-8.1,0.455-8.1,0.455c1.842,2.007,3.191,4.608,8.1,4.608
	c5.623,0,6.58-2.955,8.102-4.608C40.102,50.124,35.262,48.704,32,49.669z"/>
<path id="Path_195_" fill="#FFFFFF" d="M25.115,50.464c3.422,2.871,10.33,2.89,13.771,0C35.24,50.62,28.787,50.622,25.115,50.464z"
	/>
<path id="Path_194_" fill="#FFFFFF" d="M28.771,34.433c0.123,0.961-0.529,2.099-2.334,2.952c-1.146,0.543-3.531,1.182-6.666-0.141
	c-1.404-0.592-2.773-2.438-2.65-3.457C18.82,30.584,27.182,30.115,28.771,34.433z"/>
<linearGradient id="Oval_1_" gradientUnits="userSpaceOnUse" x1="-424.9072" y1="476.5332" x2="-424.9072" y2="477.5332" gradientTransform="matrix(6.5701 0 0 -6.5701 2814.7805 3168.5281)">
	<stop  offset="0" style="stop-color:#A6694A"/>
	<stop  offset="1" style="stop-color:#4F2A1E"/>
	<a:midPointStop  offset="0" style="stop-color:#A6694A"/>
	<a:midPointStop  offset="0.5" style="stop-color:#A6694A"/>
	<a:midPointStop  offset="1" style="stop-color:#4F2A1E"/>
</linearGradient>
<circle id="Oval_24_" fill="url(#Oval_1_)" cx="23.098" cy="34.367" r="3.285"/>
<path id="Path_193_" fill="#1A1626" d="M21.457,34.307c0,2.273,3.285,2.273,3.285,0C24.742,32.197,21.457,32.197,21.457,34.307z"/>
<path id="Path_192_" fill="#AB968C" d="M20.957,33.388c0,0.952,1.377,0.952,1.377,0C22.334,32.503,20.957,32.503,20.957,33.388z"/>
<path id="Path_191_" fill="#DEB38A" d="M28.787,34.56c-1.334-4.289-10.428-3.656-11.666-0.772
	C17.58,30.096,27.65,29.122,28.787,34.56z"/>
<path id="Path_190_" fill="#FFFFFF" d="M35.229,34.433c-0.123,0.961,0.529,2.099,2.334,2.952c1.146,0.543,3.531,1.182,6.666-0.141
	c1.406-0.592,2.773-2.438,2.65-3.457C45.182,30.584,36.818,30.115,35.229,34.433z"/>
<linearGradient id="Oval_2_" gradientUnits="userSpaceOnUse" x1="-424.9072" y1="476.5332" x2="-424.9072" y2="477.5332" gradientTransform="matrix(6.5701 0 0 -6.5701 2832.511 3168.5281)">
	<stop  offset="0" style="stop-color:#A6694A"/>
	<stop  offset="1" style="stop-color:#4F2A1E"/>
	<a:midPointStop  offset="0" style="stop-color:#A6694A"/>
	<a:midPointStop  offset="0.5" style="stop-color:#A6694A"/>
	<a:midPointStop  offset="1" style="stop-color:#4F2A1E"/>
</linearGradient>
<circle id="Oval_23_" fill="url(#Oval_2_)" cx="40.828" cy="34.367" r="3.285"/>
<path id="Path_189_" fill="#1A1626" d="M39.188,34.307c0,2.273,3.285,2.273,3.285,0C42.473,32.197,39.188,32.197,39.188,34.307z"/>
<path id="Path_188_" fill="#AB968C" d="M38.688,33.388c0,0.952,1.377,0.952,1.377,0C40.064,32.503,38.688,32.503,38.688,33.388z"/>
<path id="Path_187_" fill="#DEB38A" d="M35.215,34.56c1.332-4.287,10.42-3.672,11.664-0.772
	C46.418,30.096,36.35,29.122,35.215,34.56z"/>
<linearGradient id="SVGID_1_" gradientUnits="userSpaceOnUse" x1="32.0015" y1="37.999" x2="32.0015" y2="4.6831">
	<stop  offset="0" style="stop-color:#1E110E"/>
	<stop  offset="0.2734" style="stop-color:#271916"/>
	<stop  offset="0.7179" style="stop-color:#3F2E2A"/>
	<stop  offset="1" style="stop-color:#523E3A"/>
	<a:midPointStop  offset="0" style="stop-color:#1E110E"/>
	<a:midPointStop  offset="0.6" style="stop-color:#1E110E"/>
	<a:midPointStop  offset="1" style="stop-color:#523E3A"/>
</linearGradient>
<path fill="url(#SVGID_1_)" d="M54.104,24.703c2.093-2.612,0.702-5.775-1.658-6.981c0.758-2.966-1.939-5.938-4.887-5.715
	c-0.265-3.092-2.932-4.464-5.333-4.095c-1.024-3.043-4.797-3.743-7.102-2.101c-1.718-1.505-4.531-1.505-6.249,0.001
	c-2.304-1.644-6.076-0.943-7.101,2.1c-2.402-0.371-5.069,1.002-5.334,4.094c-2.947-0.223-5.646,2.751-4.887,5.717
	c-2.36,1.207-3.749,4.369-1.657,6.98c-1.588,1.223-2.065,3.436-1.453,5.266c0.495-0.343,1.126-0.503,1.923-0.406
	c0.067,0.008,0.132,0.039,0.198,0.057c0.14,4.606,0.982,8.38,1.935,8.38c0.318,0,0.363-4.058,0.969-8.919
	c0.492-3.959,1.441-7.797,2.531-8.424c3.332-1.916,9.756,0.822,16,0.822s12.67-2.738,16.002-0.822
	c1.09,0.627,2.037,4.465,2.531,8.424c0.605,4.862,0.65,8.919,0.969,8.919c0.952,0,1.795-3.774,1.935-8.38
	c0.066-0.017,0.131-0.049,0.198-0.057c0.797-0.097,1.428,0.063,1.923,0.407C56.17,28.138,55.692,25.925,54.104,24.703z"/>
<path fill="#523E3A" d="M37.582,13.882c-0.156-4.229-6.27-5.328-7.857-1.41C32.051,11.218,35.824,11.896,37.582,13.882z"/>
<path fill="#523E3A" d="M45.426,11.966c-0.154-4.229-6.268-5.328-7.857-1.41C39.896,9.302,43.668,9.98,45.426,11.966z"/>
<path fill="#523E3A" d="M26.594,9.75c-2.605-3.334-8.203-0.64-7.191,3.466C20.553,10.835,24.006,9.172,26.594,9.75z"/>
<path fill="#523E3A" d="M16.205,17.127c-3.797-1.868-7.664,2.994-4.967,6.25C11.238,20.734,13.623,17.734,16.205,17.127z"/>
<path fill="#523E3A" d="M25.883,15.57c-2.223-3.602-8.082-1.543-7.531,2.648C19.758,15.98,23.373,14.708,25.883,15.57z"/>
<path fill="#523E3A" d="M42.355,16.066c-0.33-4.219-6.484-5.063-7.91-1.082C36.719,13.634,40.518,14.154,42.355,16.066z"/>
<path fill="#523E3A" d="M51.289,23.65c3.225-2.738,0.307-8.221-3.754-7.047C49.961,17.656,51.762,21.041,51.289,23.65z"/>
</svg>
