<?xml version="1.0" encoding="utf-8"?>
<!-- Generator: Adobe Illustrator 15.0.0, SVG Export Plug-In . SVG Version: 6.00 Build 0)  -->
<!DOCTYPE svg PUBLIC "-//W3C//DTD SVG 1.1//EN" "http://www.w3.org/Graphics/SVG/1.1/DTD/svg11.dtd" [
	<!ENTITY ns_flows "http://ns.adobe.com/Flows/1.0/">
	<!ENTITY ns_extend "http://ns.adobe.com/Extensibility/1.0/">
	<!ENTITY ns_ai "http://ns.adobe.com/AdobeIllustrator/10.0/">
	<!ENTITY ns_graphs "http://ns.adobe.com/Graphs/1.0/">
]>
<svg version="1.1" id="Layer_1" xmlns:x="&ns_extend;" xmlns:i="&ns_ai;" xmlns:graph="&ns_graphs;"
	 xmlns="http://www.w3.org/2000/svg" xmlns:xlink="http://www.w3.org/1999/xlink" xmlns:a="http://ns.adobe.com/AdobeSVGViewerExtensions/3.0/"
	 x="0px" y="0px" width="64px" height="64px" viewBox="0 0 64 64" enable-background="new 0 0 64 64" xml:space="preserve">
<linearGradient id="SVGID_1_" gradientUnits="userSpaceOnUse" x1="-149.3579" y1="94.3555" x2="-148.3525" y2="94.3555" gradientTransform="matrix(0.7071 0.7071 -0.7071 0.7071 179.9902 99.5218)">
	<stop  offset="0" style="stop-color:#5B666E"/>
	<stop  offset="0.3" style="stop-color:#525A64"/>
	<stop  offset="0.8392" style="stop-color:#3C3B49"/>
	<stop  offset="1" style="stop-color:#343040"/>
	<a:midPointStop  offset="0" style="stop-color:#5B666E"/>
	<a:midPointStop  offset="0.5765" style="stop-color:#5B666E"/>
	<a:midPointStop  offset="1" style="stop-color:#343040"/>
</linearGradient>
<path fill="url(#SVGID_1_)" d="M9.085,60.625c0.18-0.178-0.496-0.92-0.717-0.699c0,0-1,0.996-1.205,1.201
	c-0.486,0.486,0.225,1.197,0.711,0.711C8.058,61.654,9.085,60.625,9.085,60.625z"/>
<linearGradient id="SVGID_2_" gradientUnits="userSpaceOnUse" x1="-149.1143" y1="78.5684" x2="-148.5745" y2="78.5684" gradientTransform="matrix(0.7071 0.7071 -0.7071 0.7071 179.9902 99.5218)">
	<stop  offset="0.0848" style="stop-color:#CFD8DD"/>
	<stop  offset="0.891" style="stop-color:#A0AEB4"/>
	<stop  offset="1" style="stop-color:#99A8AE"/>
	<a:midPointStop  offset="0.0848" style="stop-color:#CFD8DD"/>
	<a:midPointStop  offset="0.5197" style="stop-color:#CFD8DD"/>
	<a:midPointStop  offset="1" style="stop-color:#99A8AE"/>
</linearGradient>
<path fill="url(#SVGID_2_)" d="M30.076,39.434l-0.51-0.508c0,0-16.99,16.998-21.1,21.1c-0.248,0.248,0.26,0.756,0.51,0.508
	C13.097,56.418,30.076,39.434,30.076,39.434z"/>
<linearGradient id="SVGID_3_" gradientUnits="userSpaceOnUse" x1="-149.2158" y1="89.6836" x2="-148.4951" y2="89.6836" gradientTransform="matrix(0.7071 0.7071 -0.7071 0.7071 179.9902 99.5218)">
	<stop  offset="0" style="stop-color:#FF000E"/>
	<stop  offset="0.2335" style="stop-color:#FA000D"/>
	<stop  offset="0.5011" style="stop-color:#EC000A"/>
	<stop  offset="0.7844" style="stop-color:#D60005"/>
	<stop  offset="1" style="stop-color:#BF0000"/>
	<a:midPointStop  offset="0" style="stop-color:#FF000E"/>
	<a:midPointStop  offset="0.6788" style="stop-color:#FF000E"/>
	<a:midPointStop  offset="1" style="stop-color:#BF0000"/>
</linearGradient>
<path fill="url(#SVGID_3_)" d="M13.974,55.537c-0.168,0.168-0.648-0.371-0.516-0.504c0,0-3.729,3.729-4.668,4.668
	c-0.168,0.17,0.34,0.678,0.51,0.508C10.304,59.205,13.974,55.537,13.974,55.537z"/>
<linearGradient id="SVGID_4_" gradientUnits="userSpaceOnUse" x1="-149.2158" y1="71.8105" x2="-148.4951" y2="71.8105" gradientTransform="matrix(0.7071 0.7071 -0.7071 0.7071 179.9902 99.5218)">
	<stop  offset="0" style="stop-color:#FF000E"/>
	<stop  offset="0.2335" style="stop-color:#FA000D"/>
	<stop  offset="0.5011" style="stop-color:#EC000A"/>
	<stop  offset="0.7844" style="stop-color:#D60005"/>
	<stop  offset="1" style="stop-color:#BF0000"/>
	<a:midPointStop  offset="0" style="stop-color:#FF000E"/>
	<a:midPointStop  offset="0.6788" style="stop-color:#FF000E"/>
	<a:midPointStop  offset="1" style="stop-color:#BF0000"/>
</linearGradient>
<path fill="url(#SVGID_4_)" d="M26.613,42.898c-0.168,0.168-0.648-0.371-0.516-0.504c0,0-3.729,3.729-4.668,4.668
	c-0.17,0.17,0.34,0.678,0.51,0.51C22.943,46.566,26.613,42.898,26.613,42.898z"/>
<linearGradient id="SVGID_5_" gradientUnits="userSpaceOnUse" x1="-113.3994" y1="29.9316" x2="-111.293" y2="29.9316" gradientTransform="matrix(0.8192 0.5736 -0.5736 0.8192 140.7946 77.2612)">
	<stop  offset="0" style="stop-color:#5B666E"/>
	<stop  offset="0.3" style="stop-color:#525A64"/>
	<stop  offset="0.8392" style="stop-color:#3C3B49"/>
	<stop  offset="1" style="stop-color:#343040"/>
	<a:midPointStop  offset="0" style="stop-color:#5B666E"/>
	<a:midPointStop  offset="0.5765" style="stop-color:#5B666E"/>
	<a:midPointStop  offset="1" style="stop-color:#343040"/>
</linearGradient>
<path fill="url(#SVGID_5_)" d="M29.773,40.008c-0.211,0.234-1.021-0.572-0.783-0.783c1.393-1.23,2.721-2.508,3.922-3.92
	c0.968-1.051,1.835-0.186,0.783,0.781C32.281,37.285,31.003,38.613,29.773,40.008z"/>
<path fill="#FFD8B4" d="M40.714,22.718c0,0-1.465,2.037-2.547,4.309c-1.668,1.646-4.398,5.336-4.875,5.902
	c-0.46,0.549-1.98,1.924-2.13,2.44c-0.477,1.641-0.945,1.996-0.889,2.688l0.934-0.906c0,0,0.553-0.703,0.906-0.504
	c-0.928,1.287-0.309,2.18,0.004,1.678c0.805-1.299,1.542-1.881,1.529-2.941c-0.004-0.43,1.291-2.043,4.041-3.397
	c1.674-0.824,2.926-2.463,3.752-3.943c0.785-1.299,2.236-2.219,2.695-3.086C43.456,23.339,42.128,23.378,40.714,22.718z"/>
<path fill="#302C3B" d="M34.022,34.684c0.207,0.018,0.852-0.635,0.621-0.66c-2.56-0.291-2.748,0.158-3.013,0.66
	C31.63,34.684,32.318,34.541,34.022,34.684z"/>
<path fill="#FFD8B4" d="M39.339,16.556c1.133-0.539,1.459,0.451,1.533,0.867c0.25,1.365,5.359-0.195,4.785-1.762
	c-0.5-1.363,0.168-2.992,0.168-2.992C45.069,12.238,42.306,7.359,39.339,16.556z"/>
<path fill="#FFD8B4" d="M40.265,3.039c-3.443,0.551-4.707,3.01-4.152,5.908c0.125,0.654-0.295,1.775-1.129,2.496
	c-0.303,0.262-0.332,0.609-0.184,0.84c0.291,0.455,0.93,0.459,1.195,0.631c0.598,0.379,0,0.799,0.449,1.248
	c0.203,0.203,0.787-0.066,0.17,1.014c0.688,0.502-0.459,1.711,1.309,1.898c0.928,0.098,4.852-2.115,5.342-2.879
	c0.514-0.801,0.393-2.283,0.393-2.283c2.643-0.762,3.576-3.068,3.006-5.482C45.868,3.052,42.495,2.683,40.265,3.039z"/>
<path fill="#DEB38A" d="M36.444,14.162c0.322,0.197,0.182,0.51,0.182,0.51c-0.156,0-0.195,0.514,0.035,0.514
	c0.807,0,1.547-0.693,1.789-1.111C37.188,14.011,35.802,13.441,36.444,14.162z"/>
<path fill="#FFFFFF" d="M36.444,14.162c0,0,0.123,0.441,0.182,0.51c0.252,0,1.076-0.182,1.582-0.516L36.444,14.162z"/>
<linearGradient id="SVGID_6_" gradientUnits="userSpaceOnUse" x1="30.4219" y1="11.7256" x2="40.0645" y2="11.7256" gradientTransform="matrix(1 0 0 1 5.5732 -5.0161)">
	<stop  offset="0" style="stop-color:#1E110E"/>
	<stop  offset="0.0709" style="stop-color:#231512"/>
	<stop  offset="0.674" style="stop-color:#45332F"/>
	<stop  offset="1" style="stop-color:#523E3A"/>
	<a:midPointStop  offset="0" style="stop-color:#1E110E"/>
	<a:midPointStop  offset="0.4303" style="stop-color:#1E110E"/>
	<a:midPointStop  offset="1" style="stop-color:#523E3A"/>
</linearGradient>
<path fill="url(#SVGID_6_)" d="M45.456,4.632c-2.447-3.684-8.943-1.453-9.402-0.553c-0.164,0.324,0.041,1.127,0.309,1.645
	c1.033,0,3.08-0.863,4.455-0.217c2.039,0.959-0.275,5.104,1.605,5.328C42.718,10.871,46.501,6.466,45.456,4.632z"/>
<linearGradient id="SVGID_7_" gradientUnits="userSpaceOnUse" x1="30.4805" y1="12.8457" x2="42.3789" y2="12.8457" gradientTransform="matrix(1 0 0 1 5.5732 -5.0161)">
	<stop  offset="0" style="stop-color:#523E3A"/>
	<stop  offset="0.3094" style="stop-color:#4F3B37"/>
	<stop  offset="0.5639" style="stop-color:#45322F"/>
	<stop  offset="0.7983" style="stop-color:#332420"/>
	<stop  offset="1" style="stop-color:#1E110E"/>
	<a:midPointStop  offset="0" style="stop-color:#523E3A"/>
	<a:midPointStop  offset="0.7455" style="stop-color:#523E3A"/>
	<a:midPointStop  offset="1" style="stop-color:#1E110E"/>
</linearGradient>
<path fill="url(#SVGID_7_)" d="M47.099,4.566C46.397,3.382,44.981,1.992,41.767,2c-2.902,0.006-5.254,1.18-5.713,2.08
	c1.066,0,4.305-1.359,5.996-0.096c2.633,1.969,0.338,4.643,0.959,6.322c0.971,2.629,2.545,3.354,2.545,3.354
	C47.573,12.199,48.911,7.63,47.099,4.566z"/>
<path fill="#DEB38A" d="M34.808,12.287c0.238,0.635,1.764,0.771,2.252,0C36.255,12.869,34.669,11.917,34.808,12.287z"/>
<path fill="#FFD8B4" d="M43.669,8.705c-1.285,0.266-1.686,3.168-0.723,3.799c0.135,0.088,0.838,0.166,1.211-0.545
	c0.205-0.393,0.943-0.793,1.047-1.564C45.335,9.404,44.946,8.441,43.669,8.705z"/>
<path id="Path_604_" fill="#DEB38A" d="M43.737,9.244c-0.326,0.111-0.635,0.488-0.729,1.063c1.158-0.314,1.105,0.986,0.076,1.141
	c0.033,0.127,0.072,0.256,0.123,0.389c0.41-0.523,0.951-0.402,1.318-1.15C44.858,10.009,44.546,8.968,43.737,9.244z"/>
<path fill="#FFFFFF" d="M38.935,9.814c0.018,0.186-0.568,0.855-1.316,0.918c-0.426,0.035-0.578-0.293-0.674-0.648
	C36.853,8.671,38.515,9.173,38.935,9.814z"/>
<linearGradient id="Path_1_" gradientUnits="userSpaceOnUse" x1="31.938" y1="15.6904" x2="31.938" y2="14.2036" gradientTransform="matrix(1 0 0 1 5.5732 -5.0161)">
	<stop  offset="0" style="stop-color:#A6694A"/>
	<stop  offset="1" style="stop-color:#4F2A1E"/>
	<a:midPointStop  offset="0" style="stop-color:#A6694A"/>
	<a:midPointStop  offset="0.5" style="stop-color:#A6694A"/>
	<a:midPointStop  offset="1" style="stop-color:#4F2A1E"/>
</linearGradient>
<path id="Path_603_" fill="url(#Path_1_)" d="M36.915,9.904c0,1.027,1.191,1.027,1.191,0C38.106,8.949,36.915,8.949,36.915,9.904z"
	/>
<path id="Path_602_" fill="#1A1626" d="M37.04,9.859c0,0.512,0.594,0.512,0.594-0.002C37.634,9.38,37.04,9.38,37.04,9.859z"/>
<path id="Path_601_" fill="#AB968C" d="M37.407,9.65c0,0.215,0.346,0.215,0.346,0C37.753,9.449,37.407,9.449,37.407,9.65z"/>
<path fill="#DEB38A" d="M38.935,9.814c-0.32-0.641-1.916-1.107-1.959-0.242C37.2,8.99,38.384,9.31,38.935,9.814z"/>
<path id="Path_600_" fill="#A88868" d="M39.241,8.353c-0.732-0.457-2.135-0.479-2.656-0.16c-0.113,0.061-0.039,0.494,0.055,0.453
	c0.729-0.34,1.902-0.348,2.582,0.029C39.313,8.722,39.351,8.417,39.241,8.353z"/>
<path fill="#6E8189" d="M25.378,55.637c0,0-0.598,0.07-0.293,0.34C28.964,59.367,34.032,62,34.032,62
	c0.293-0.111,0.289-0.441,0.289-0.441L25.378,55.637z"/>
<path fill="#99A8AE" d="M33.378,56.984c-4.373-1.709-7.33-2.523-8-1.348c4.912,3.918,8.943,5.922,8.943,5.922
	C36.419,59.691,35.212,58.066,33.378,56.984z"/>
<path fill="#1A1626" d="M28.695,55.396c0.387,1.219,0.861,1.664,1.217,1.145c0.334,0.68,0.809,0.527,0.984,0.199
	c0.447,0.566,0.934,0.154,0.555-0.795C31.22,55.43,28.591,55.068,28.695,55.396z"/>
<path fill="#6E8189" d="M49.085,61.559c0,0-0.234,0.307,0.088,0.441c4.076-0.305,7.826-7.414,7.826-7.414
	c0-0.281-0.264-0.451-0.264-0.451L49.085,61.559z"/>
<path fill="#99A8AE" d="M52.608,54.711c-3.217,4.314-3.801,5.809-3.523,6.848c3.916-0.41,7.65-7.424,7.65-7.424
	C54.763,50.885,53.177,53.951,52.608,54.711z"/>
<path fill="#1A1626" d="M49.942,58.543c1.266-0.021,1.832-0.354,1.449-0.846c0.748-0.125,0.746-0.631,0.49-0.898
	c0.672-0.264,0.432-0.855-0.576-0.762C50.745,56.111,49.601,58.547,49.942,58.543z"/>
<path fill="#1A1626" d="M46.454,31.765c-8.221-1.225-8.197,2.778-8.197,2.778c1.205,6,3.934,13.297,4.922,14.541
	c0.828,1.043,4.754,3.684,7.836,7.322c2.156-1.023,6.002-2.369,4.951-3.398c-3.998-3.91-7.846-7.383-7.846-7.383
	C45.388,41.207,45.243,35.92,46.454,31.765z"/>
<path fill="#302C3B" d="M46.454,31.765c0,0-5.223-2.566-7.162,2.241c-0.664,4.631-4.568,9.125-5.252,10.58
	c-0.746,1.59-1.353,6.998-3.337,10.941c2.234,1.801,4.306,6.088,4.726,4.732c1.865-6.021,4.059-13.424,4.059-13.424
	C45.351,38.709,48.747,39.148,46.454,31.765z"/>
<path fill="#3AB0A2" d="M46.675,32.205c0,0-3.967,0.168-8.418,2.418c-1.344-5.858-1.197-14.233,2.561-17.42
	c0.752,1.479,3.496-1.109,4.84-1.541C50.716,20.431,45.39,25.603,46.675,32.205z"/>
<path fill="#FFD8B4" d="M51.509,25.818c-0.178-0.502-1.191-2.334-2.213-4.131c-1.166,0.574-2.313,1.176-3.426,1.816
	c0.998,1.363,2.025,2.813,2.568,3.709c0.178,2.477,1.008,4.949,0.734,7.856c-0.125,1.26-0.971,0.502-1.674,3.143
	c-0.111,0.412,0.844,0.357,1.154-0.592c0.967,0.398-1.076,3.637,0.393,3.043c0.531,0.158,1.891-0.422,2.453-2.422
	c0.09-0.322,0.141-2.746,0.076-3.07C51.329,33.924,51.829,26.703,51.509,25.818z"/>
<path fill="#DEB38A" d="M49.78,38.867c0,0-0.248,1.305-0.734,1.795C49.702,40.258,49.78,38.867,49.78,38.867z"/>
<path fill="#DEB38A" d="M50.593,38.473c0,0-0.326,1.592-0.813,2.082C50.437,40.148,50.593,38.473,50.593,38.473z"/>
<path fill="#DEB38A" d="M51.114,38.381c0,0-0.17,1.219-0.656,1.709C51.114,39.684,51.114,38.381,51.114,38.381z"/>
<path fill="#25A898" d="M50.364,23.07c-0.809-1.516-1.949-3.49-3.314-5.621c-1.473-2.295-4.941-0.164-3.75,2.303
	c0.646,1.34,1.678,3.123,3.318,5.51C47.782,24.431,49.042,23.695,50.364,23.07z"/>
</svg>
