<?xml version="1.0" encoding="utf-8"?>
<!-- Generator: Adobe Illustrator 15.0.0, SVG Export Plug-In . SVG Version: 6.00 Build 0)  -->
<!DOCTYPE svg PUBLIC "-//W3C//DTD SVG 1.1//EN" "http://www.w3.org/Graphics/SVG/1.1/DTD/svg11.dtd" [
	<!ENTITY ns_flows "http://ns.adobe.com/Flows/1.0/">
	<!ENTITY ns_extend "http://ns.adobe.com/Extensibility/1.0/">
	<!ENTITY ns_ai "http://ns.adobe.com/AdobeIllustrator/10.0/">
	<!ENTITY ns_graphs "http://ns.adobe.com/Graphs/1.0/">
]>
<svg version="1.1" id="Layer_1" xmlns:x="&ns_extend;" xmlns:i="&ns_ai;" xmlns:graph="&ns_graphs;"
	 xmlns="http://www.w3.org/2000/svg" xmlns:xlink="http://www.w3.org/1999/xlink" xmlns:a="http://ns.adobe.com/AdobeSVGViewerExtensions/3.0/"
	 x="0px" y="0px" width="64px" height="64px" viewBox="0 0 64 64" enable-background="new 0 0 64 64" xml:space="preserve">
<path fill="#FFD8B4" d="M35.414,28.144c-0.51-1.512-2.444-1.756-2.444-1.756c-1.299,2.877-2.488,8.161-2.59,8.892
	c-0.1,0.711-0.98,2.627-0.842,3.143c0.578,2.184,0.357,1.311,1.281,2.219c0.291,0.287,0.402-0.02,0.375-0.42
	c0,0,0.264-0.887,0.465-0.898c-0.053,0.396,0.777,0.172,0.578-0.379c-0.123-0.342,0.098-1.109-0.354-1.787
	c-0.23-0.35,0.021-2.414,1.559-5.033C34.379,30.53,34.936,29.47,35.414,28.144z"/>
<path fill="#FFD8B4" d="M49.141,28.034c0.734-1.438,2.797-1.438,2.797-1.438c0.984,3.016,1.541,8.407,1.551,9.146
	c0.01,0.717,0.682,2.729,0.471,3.223c-0.896,2.094-0.811,2.355-1.908,3.135c-0.832,0.588-0.572-0.168-0.195-0.566
	c0.584-0.617,0.955-2.035,0.189-2.168c-0.098,1.584-1.143,1.883-1.066,1.295c0.201-1.514,0-2.432,0.682-3.244
	c0.275-0.33,0.295-2.398-0.975-5.187C49.916,30.531,49.469,29.409,49.141,28.034z"/>
<path fill="#302C3B" d="M36.891,33.957h11.217c0.979,5.166,0.256,12.301,1.488,24.896c0.156,1.586-5.654,1.596-5.604,0
	c0.242-7.348-0.445-12.939-0.938-17.416c-0.037-0.334-1.072-0.334-1.109,0c-0.492,4.477-1.182,10.068-0.939,17.416
	c0.053,1.596-5.76,1.586-5.604,0C36.635,46.258,35.912,39.123,36.891,33.957z"/>
<path fill="#3AB0A2" d="M35.463,19.847c0.906-1.135,4.635-2.271,4.635-2.271H44.9c0,0,3.73,1.137,4.635,2.271
	c0.793,0.992,2.32,5.816,2.658,6.982c-0.045,0.055-1.227,0.112-3.287,1.702c0,0-0.641-1.935-0.891-2.447
	c-0.588,3.813,0.297,7.447,0.092,7.873c-0.584,1.213-10.625,1.227-11.217,0c-0.205-0.426,0.68-4.06,0.094-7.873
	c-0.252,0.513-1.4,2.524-1.4,2.524c-1.846-1.834-3.012-2.038-3.049-2.098C33.016,25.396,34.67,20.839,35.463,19.847z"/>
<path fill="#6E8189" d="M49.854,61.602c-0.184,0.451-5.762,0.637-5.971-0.084C43.074,58.725,50.764,59.371,49.854,61.602z"/>
<path fill="#99A8AE" d="M49.773,61.053c-0.041,0.391-5.834,0.596-5.896,0C43.381,56.299,50.227,56.695,49.773,61.053z"/>
<path fill="#1A1626" d="M44.617,58.225c0.645-1.102,3.703-1.096,4.344,0c0.117,0.193,0.316,0.717-0.457,0.287
	c0.768,0.602,0.768,1.127,0,0.678c0.773,0.578,0.574,0.943,0.457,0.896c-1.176-0.582-3.166-0.582-4.344,0
	c-0.119,0.047-0.316-0.318,0.457-0.896c-0.768,0.449-0.768-0.076,0-0.678C44.301,58.941,44.498,58.418,44.617,58.225z"/>
<path fill="#6E8189" d="M35.145,61.602c0.184,0.451,5.762,0.637,5.971-0.084C41.924,58.725,34.234,59.371,35.145,61.602z"/>
<path fill="#99A8AE" d="M35.225,61.053c0.041,0.391,5.834,0.596,5.896,0C41.617,56.299,34.773,56.695,35.225,61.053z"/>
<path fill="#1A1626" d="M40.381,58.225c-0.645-1.102-3.701-1.096-4.344,0c-0.117,0.193-0.316,0.717,0.457,0.287
	c-0.768,0.602-0.768,1.127,0,0.678c-0.773,0.578-0.574,0.943-0.457,0.896c1.178-0.582,3.166-0.582,4.344,0
	c0.119,0.047,0.316-0.318-0.457-0.896c0.768,0.449,0.768-0.076,0-0.678C40.697,58.941,40.5,58.418,40.381,58.225z"/>
<path fill="#2B998D" d="M45.781,17.874c0,2.926-6.563,2.92-6.563-0.005l0.59-0.212h5.346L45.781,17.874z"/>
<path fill="#DEB38A" d="M39.75,17.906c0,2.175,5.5,2.175,5.5,0c0-0.74,0-2.406,0-2.406h-5.5C39.75,15.5,39.75,17.166,39.75,17.906z"
	/>
<path id="Path_333_" fill="#FFD8B4" d="M48.631,9.243c-0.949,0.114-1.635,3.293-1.037,4.131c0.082,0.118,0.572,0.305,0.934-0.436
	c0.201-0.409,0.781-0.752,0.961-1.598C49.719,10.258,49.574,9.129,48.631,9.243z"/>
<path id="Path_332_" fill="#FFD8B4" d="M36.371,9.243c0.949,0.114,1.633,3.293,1.037,4.131c-0.084,0.118-0.574,0.305-0.936-0.436
	c-0.201-0.409-0.779-0.752-0.959-1.598C35.283,10.258,35.428,9.129,36.371,9.243z"/>
<path id="Path_331_" fill="#DEB38A" d="M48.605,9.853c-0.248,0.078-0.52,0.455-0.664,1.081c0.865-0.186,0.648,1.257-0.104,1.284
	c0.006,0.144,0.016,0.293,0.033,0.45c0.363-0.526,0.73-0.314,1.096-1.098C49.295,10.864,49.217,9.66,48.605,9.853z"/>
<path id="Path_330_" fill="#DEB38A" d="M37.061,10.932c-0.146-0.624-0.416-1.002-0.664-1.079c-0.613-0.192-0.691,1.012-0.363,1.718
	c0.365,0.783,0.732,0.571,1.096,1.098c0.018-0.157,0.027-0.307,0.035-0.451C36.418,12.182,36.207,10.757,37.061,10.932z"/>
<path id="Path_329_" fill="#FFD8B4" d="M42.5,3.133c-4.111,0-6.092,3.111-5.844,7.437c0.049,0.87,0.59,3.709,1.098,4.727
	c0.521,1.042,2.266,2.648,3.334,2.981c0.674,0.209,2.15,0.209,2.826,0c1.068-0.333,2.811-1.939,3.332-2.981
	c0.51-1.018,1.049-3.855,1.098-4.727C48.594,6.244,46.613,3.133,42.5,3.133z"/>
<path id="Path_328_" fill="#A88868" d="M46.967,8.926c-0.939-0.498-2.74-0.522-3.41-0.175c-0.143,0.066-0.047,0.538,0.072,0.494
	c0.936-0.37,2.441-0.378,3.316,0.031C47.063,9.329,47.111,8.995,46.967,8.926z"/>
<path id="Path_327_" fill="#A88868" d="M38.033,8.926c0.939-0.498,2.738-0.522,3.41-0.175c0.143,0.066,0.049,0.538-0.072,0.494
	c-0.936-0.37-2.439-0.378-3.316,0.031C37.939,9.329,37.891,8.995,38.033,8.926z"/>
<path id="Path_326_" fill="#DEB38A" d="M43.609,13.246c-0.117-0.082-0.393,0.043-1.109,0.043c-0.715,0-0.992-0.125-1.109-0.043
	c-0.141,0.099,0.084,0.546,1.109,0.546C43.527,13.792,43.752,13.345,43.609,13.246z"/>
<path id="Path_325_" fill="#DEB38A" d="M42.5,14.94c-0.924-0.272-2.295,0.129-2.295,0.129c0.521,0.568,0.904,1.306,2.295,1.306
	c1.594,0,1.865-0.837,2.297-1.306C44.797,15.069,43.424,14.666,42.5,14.94z"/>
<path id="Path_324_" fill="#FFFFFF" d="M40.549,15.165c0.971,0.813,2.928,0.819,3.902,0C43.418,15.209,41.59,15.21,40.549,15.165z"
	/>
<path id="Path_323_" fill="#FFFFFF" d="M41.586,10.623c0.035,0.271-0.15,0.594-0.662,0.836c-0.324,0.154-1,0.335-1.889-0.039
	c-0.398-0.168-0.785-0.691-0.75-0.979C38.766,9.532,41.135,9.399,41.586,10.623z"/>
<linearGradient id="Oval_1_" gradientUnits="userSpaceOnUse" x1="-435.938" y1="480.5088" x2="-435.938" y2="480.792" gradientTransform="matrix(6.5701 0 0 -6.5701 2904.136 3168.5281)">
	<stop  offset="0" style="stop-color:#A6694A"/>
	<stop  offset="1" style="stop-color:#4F2A1E"/>
	<a:midPointStop  offset="0" style="stop-color:#A6694A"/>
	<a:midPointStop  offset="0.5" style="stop-color:#A6694A"/>
	<a:midPointStop  offset="1" style="stop-color:#4F2A1E"/>
</linearGradient>
<circle id="Oval_44_" fill="url(#Oval_1_)" cx="39.979" cy="10.604" r="0.931"/>
<path id="Path_322_" fill="#1A1626" d="M39.514,10.588c0,0.643,0.93,0.643,0.93,0C40.443,9.99,39.514,9.99,39.514,10.588z"/>
<path id="Path_321_" fill="#AB968C" d="M39.371,10.327c0,0.27,0.391,0.27,0.391,0C39.762,10.076,39.371,10.076,39.371,10.327z"/>
<path id="Path_320_" fill="#DEB38A" d="M41.59,10.659c-0.377-1.215-2.955-1.036-3.305-0.219C38.414,9.395,41.268,9.118,41.59,10.659
	z"/>
<path id="Path_319_" fill="#FFFFFF" d="M43.414,10.623c-0.033,0.271,0.15,0.594,0.662,0.836c0.324,0.154,1,0.335,1.889-0.039
	c0.398-0.168,0.785-0.691,0.752-0.979C46.234,9.532,43.865,9.399,43.414,10.623z"/>
<linearGradient id="Oval_2_" gradientUnits="userSpaceOnUse" x1="-437.8721" y1="480.5088" x2="-437.8721" y2="480.792" gradientTransform="matrix(6.5701 0 0 -6.5701 2921.8665 3168.5281)">
	<stop  offset="0" style="stop-color:#A6694A"/>
	<stop  offset="1" style="stop-color:#4F2A1E"/>
	<a:midPointStop  offset="0" style="stop-color:#A6694A"/>
	<a:midPointStop  offset="0.5" style="stop-color:#A6694A"/>
	<a:midPointStop  offset="1" style="stop-color:#4F2A1E"/>
</linearGradient>
<circle id="Oval_43_" fill="url(#Oval_2_)" cx="45.002" cy="10.604" r="0.931"/>
<path id="Path_318_" fill="#1A1626" d="M44.537,10.588c0,0.643,0.932,0.643,0.932,0C45.469,9.99,44.537,9.99,44.537,10.588z"/>
<path id="Path_317_" fill="#AB968C" d="M44.395,10.327c0,0.27,0.391,0.27,0.391,0C44.785,10.076,44.395,10.076,44.395,10.327z"/>
<path id="Path_316_" fill="#DEB38A" d="M43.412,10.659c0.377-1.215,2.951-1.041,3.305-0.219
	C46.586,9.395,43.732,9.118,43.412,10.659z"/>
<path fill="#523E3A" d="M47.752,4.164C46.852,2.946,45.205,2,42.5,2c-2.703,0-4.35,0.946-5.25,2.164
	C35.977,5.888,49.025,5.888,47.752,4.164z"/>
<linearGradient id="SVGID_1_" gradientUnits="userSpaceOnUse" x1="-46.855" y1="11.6338" x2="-46.855" y2="3.6484" gradientTransform="matrix(1 0 0 1 89.3555 0)">
	<stop  offset="0.5" style="stop-color:#1E110E"/>
	<stop  offset="0.6367" style="stop-color:#271916"/>
	<stop  offset="0.859" style="stop-color:#3F2E2A"/>
	<stop  offset="1" style="stop-color:#523E3A"/>
	<a:midPointStop  offset="0.5" style="stop-color:#1E110E"/>
	<a:midPointStop  offset="0.6" style="stop-color:#1E110E"/>
	<a:midPointStop  offset="1" style="stop-color:#523E3A"/>
</linearGradient>
<path fill="url(#SVGID_1_)" d="M47.752,4.164c-0.9-1.218-2.547,0.104-5.252,0.104c-2.703,0-4.35-1.321-5.25-0.104
	c-1.273,1.724-0.842,7.47-0.275,7.47c0.09,0,0.104-2.011,0.275-3.4c0.139-1.132,0.408-2.229,0.717-2.408
	C38.91,5.277,40.73,6.061,42.5,6.061s3.59-0.783,4.533-0.235c0.311,0.179,0.578,1.276,0.719,2.408c0.17,1.39,0.184,3.4,0.273,3.4
	C48.592,11.634,49.025,5.888,47.752,4.164z"/>
<path fill="#EBC199" d="M10.445,35.742c0.01-0.717,0.314-5.801,1.09-8.868c0.543-2.148,1.943-8.156,3.475-8.156l0.15,3.964
	c0,0-0.852,4.306-1.148,5.737c-0.252,1.207-0.523,2.276-1.129,3.81c-1.104,2.789-1.088,4.857-0.848,5.187
	c0.594,0.813,0.418,1.73,0.592,3.244c0.068,0.588-0.842,0.289-0.926-1.295c-0.666,0.133-0.344,1.551,0.164,2.168
	c0.328,0.398,0.555,1.154-0.17,0.566c-0.955-0.779-0.879-1.041-1.658-3.135C9.851,38.471,10.437,36.459,10.445,35.742z"/>
<path fill="#EBC199" d="M25.144,18.715c1.531,0,2.725,5.608,3.443,7.705c1.014,2.954,2.379,8.125,2.469,8.855
	c0.09,0.709,1.137,2.596,1.057,3.127c-0.154,1.027-0.695,1.818-0.918,1.818c-0.488-0.883-1.318-1.619-1.119-0.186
	c-0.17,0.596-0.855-0.43-0.982-1.396c-0.033-0.266,0.332-0.939,0.434-1.465c0.082-0.422,0.102-2.416-1.398-5.013
	c-0.912-1.579-1.518-2.636-1.891-3.984c-0.391-1.41-1.254-5.495-1.254-5.495L25.144,18.715z"/>
<path fill="#1A1626" d="M14.876,61.52c0.031,0.576,4.209,0.729,4.324-0.076C19.595,58.678,14.701,58.207,14.876,61.52z"/>
<path fill="#302C3B" d="M14.921,61.174c0,0.582,4.283,0.762,4.283,0c0-0.814-0.496-1.57-0.533-2.295
	c-0.117-2.285-2.348-1.66-2.869-0.99C15.23,58.621,14.921,59.803,14.921,61.174z"/>
<path fill="#EBC199" d="M18.326,58.205c0.063,0.609-2.33,0.652-2.332-0.084c0.148-3.127-2.195-12.578,0.254-15.059
	c0.498-0.506,2.498,0,2.498,0C19.507,48.486,17.791,52.947,18.326,58.205z"/>
<path fill="#1A1626" d="M25.269,61.52c-0.029,0.576-4.209,0.729-4.324-0.076C20.55,58.678,25.445,58.207,25.269,61.52z"/>
<path fill="#302C3B" d="M25.226,61.174c0,0.582-4.285,0.762-4.285,0c0-0.814,0.496-1.57,0.533-2.295
	c0.119-2.285,2.348-1.66,2.871-0.99C24.916,58.621,25.226,59.803,25.226,61.174z"/>
<path fill="#EBC199" d="M21.82,58.205c-0.063,0.609,2.33,0.652,2.334-0.084c-0.15-3.127,2.193-12.576-0.254-15.059
	c-0.498-0.506-2.5,0-2.5,0C20.64,48.486,22.355,52.947,21.82,58.205z"/>
<path fill="#BA9757" d="M22.904,18.716c5.668-2.266,5.102-7.65,5.102-7.65H12.138c0,0-0.566,5.385,5.1,7.65
	c0,0,1.133,0.283,2.832,0.283C21.771,18.999,22.904,18.716,22.904,18.716z"/>
<linearGradient id="SVGID_2_" gradientUnits="userSpaceOnUse" x1="-18.7622" y1="18.998" x2="-18.7622" y2="2.0445" gradientTransform="matrix(1 0 0 1 44.5 0)">
	<stop  offset="0.05" style="stop-color:#BA9757"/>
	<stop  offset="0.1973" style="stop-color:#C6A265"/>
	<stop  offset="0.5085" style="stop-color:#DBB77D"/>
	<stop  offset="0.7" style="stop-color:#E3BE86"/>
	<a:midPointStop  offset="0.05" style="stop-color:#BA9757"/>
	<a:midPointStop  offset="0.4" style="stop-color:#BA9757"/>
	<a:midPointStop  offset="0.7" style="stop-color:#E3BE86"/>
</linearGradient>
<path fill="url(#SVGID_2_)" d="M25.8,11.642c0.58,2.439,0.273,4.855-2.896,7.074c3.4-0.566,5.668-3.777,5.668-6.24L25.8,11.642z"/>
<linearGradient id="SVGID_3_" gradientUnits="userSpaceOnUse" x1="1810.9092" y1="18.998" x2="1810.9092" y2="2.0445" gradientTransform="matrix(-1 0 0 1 1825.3145 0)">
	<stop  offset="0.05" style="stop-color:#BA9757"/>
	<stop  offset="0.1973" style="stop-color:#C6A265"/>
	<stop  offset="0.5085" style="stop-color:#DBB77D"/>
	<stop  offset="0.7" style="stop-color:#E3BE86"/>
	<a:midPointStop  offset="0.05" style="stop-color:#BA9757"/>
	<a:midPointStop  offset="0.4" style="stop-color:#BA9757"/>
	<a:midPointStop  offset="0.7" style="stop-color:#E3BE86"/>
</linearGradient>
<path fill="url(#SVGID_3_)" d="M14.343,11.642c-0.58,2.439-0.275,4.855,2.895,7.074c-3.4-0.566-5.666-3.777-5.666-6.24
	L14.343,11.642z"/>
<path fill="#8E3ED6" d="M25.144,18.715l-1.619-0.522l-6.908,0.006l-1.607,0.52c0,0-0.6,3.664-0.416,5.146
	c0.305,2.401,1.033,3.144,1.059,4.996c0.018,1.379-2.596,14.591-2.596,14.591c0,3.186,14.021,3.186,14.021,0
	c0,0-2.615-13.2-2.596-14.565c0.021-1.849,0.752-2.613,1.055-5.021C25.722,22.382,25.144,18.715,25.144,18.715z"/>
<path fill="#EBC199" d="M17.513,17.882c0-0.75,0-2.415,0-2.415h5.105c0,0,0,1.653,0,2.405l0.906,0.32
	c0,2.26-2.957,3.614-3.459,3.614c-0.5,0-3.449-1.354-3.449-3.608L17.513,17.882z"/>
<path fill="#C99B71" d="M16.582,14.979c0.41,2.003,2.57,4.02,3.49,4.02s3.08-2.017,3.49-4.02
	C23.757,14.018,16.386,14.018,16.582,14.979z"/>
<path fill="#EBC199" d="M20.072,2.851c-4.113,0-6.094,3.348-5.846,7.654c0.051,0.863,0.291,2.113,0.588,3.182
	c0.617,2.225,3.871,4.463,5.258,4.463c1.385,0,4.639-2.238,5.256-4.463c0.297-1.068,0.537-2.318,0.588-3.182
	C26.164,6.198,24.183,2.851,20.072,2.851z"/>
<path fill="#C98655" d="M20.07,14.655c-0.963-0.424-0.971-0.018-2.459,0.082c0.559,0.635,0.971,1.449,2.459,1.449
	c1.709,0,1.998-0.926,2.461-1.449C21.041,14.638,21.035,14.231,20.07,14.655z"/>
<path fill="#FFFFFF" d="M18.058,14.896c0.971,1.01,3.066,0.996,4.025,0C20.587,15.056,19.554,15.056,18.058,14.896z"/>
<path fill="#A17C5B" d="M24.441,9.071c-0.895-0.533-2.496-0.598-3.131-0.234c-0.135,0.072-0.098,0.457,0.018,0.41
	c0.904-0.377,2.283-0.396,3.133,0.039C24.574,9.345,24.576,9.149,24.441,9.071z"/>
<path fill="#A17C5B" d="M15.701,9.071c0.895-0.533,2.496-0.598,3.131-0.234c0.135,0.072,0.1,0.457-0.018,0.41
	c-0.904-0.377-2.281-0.396-3.131,0.039C15.568,9.345,15.566,9.149,15.701,9.071z"/>
<path fill="#C99B71" d="M20.996,13.288c-0.098-0.068-0.328,0.037-0.926,0.037c-0.596,0-0.826-0.105-0.924-0.037
	c-0.117,0.082,0.07,0.455,0.924,0.455C20.925,13.743,21.113,13.372,20.996,13.288z"/>
<path id="Path_509_" fill="#FFFFFF" d="M19.156,10.687c0.035,0.271-0.15,0.594-0.66,0.836c-0.326,0.154-1.002,0.336-1.889-0.039
	c-0.398-0.168-0.787-0.689-0.752-0.979C16.337,9.597,18.707,9.464,19.156,10.687z"/>
<linearGradient id="Oval_3_" gradientUnits="userSpaceOnUse" x1="-432.5244" y1="480.499" x2="-432.5244" y2="480.7822" gradientTransform="matrix(6.5701 0 0 -6.5701 2859.2805 3168.5281)">
	<stop  offset="0" style="stop-color:#A6694A"/>
	<stop  offset="1" style="stop-color:#4F2A1E"/>
	<a:midPointStop  offset="0" style="stop-color:#A6694A"/>
	<a:midPointStop  offset="0.5" style="stop-color:#A6694A"/>
	<a:midPointStop  offset="1" style="stop-color:#4F2A1E"/>
</linearGradient>
<circle id="Oval_70_" fill="url(#Oval_3_)" cx="17.548" cy="10.668" r="0.931"/>
<path id="Path_508_" fill="#1A1626" d="M17.083,10.651c0,0.645,0.932,0.645,0.932,0C18.015,10.054,17.083,10.054,17.083,10.651z"/>
<path id="Path_507_" fill="#AB968C" d="M16.943,10.392c0,0.27,0.389,0.27,0.389,0C17.332,10.14,16.943,10.14,16.943,10.392z"/>
<path id="Path_506_" fill="#45332C" d="M19.162,10.724c-0.379-1.215-2.955-1.037-3.307-0.219
	C15.986,9.458,18.839,9.183,19.162,10.724z"/>
<path id="Path_505_" fill="#FFFFFF" d="M20.986,10.687c-0.035,0.271,0.15,0.594,0.662,0.836c0.324,0.154,1,0.336,1.889-0.039
	c0.398-0.168,0.785-0.689,0.75-0.979C23.806,9.597,21.437,9.464,20.986,10.687z"/>
<linearGradient id="Oval_4_" gradientUnits="userSpaceOnUse" x1="-434.4585" y1="480.499" x2="-434.4585" y2="480.7822" gradientTransform="matrix(6.5701 0 0 -6.5701 2877.011 3168.5281)">
	<stop  offset="0" style="stop-color:#A6694A"/>
	<stop  offset="1" style="stop-color:#4F2A1E"/>
	<a:midPointStop  offset="0" style="stop-color:#A6694A"/>
	<a:midPointStop  offset="0.5" style="stop-color:#A6694A"/>
	<a:midPointStop  offset="1" style="stop-color:#4F2A1E"/>
</linearGradient>
<circle id="Oval_69_" fill="url(#Oval_4_)" cx="22.572" cy="10.668" r="0.931"/>
<path id="Path_504_" fill="#1A1626" d="M22.107,10.651c0,0.645,0.932,0.645,0.932,0C23.039,10.054,22.107,10.054,22.107,10.651z"/>
<path id="Path_503_" fill="#AB968C" d="M21.966,10.392c0,0.27,0.391,0.27,0.391,0C22.357,10.14,21.966,10.14,21.966,10.392z"/>
<path id="Path_502_" fill="#45332C" d="M20.982,10.724c0.377-1.215,2.953-1.041,3.305-0.219
	C24.156,9.458,21.304,9.183,20.982,10.724z"/>
<linearGradient id="SVGID_4_" gradientUnits="userSpaceOnUse" x1="-24.4282" y1="18.999" x2="-24.4282" y2="2.0422" gradientTransform="matrix(1 0 0 1 44.5 0)">
	<stop  offset="0.05" style="stop-color:#BA9757"/>
	<stop  offset="0.1973" style="stop-color:#C6A265"/>
	<stop  offset="0.5085" style="stop-color:#DBB77D"/>
	<stop  offset="0.7" style="stop-color:#E3BE86"/>
	<a:midPointStop  offset="0.05" style="stop-color:#BA9757"/>
	<a:midPointStop  offset="0.4" style="stop-color:#BA9757"/>
	<a:midPointStop  offset="0.7" style="stop-color:#E3BE86"/>
</linearGradient>
<path fill="url(#SVGID_4_)" d="M24.699,3.45c0.469-0.67-3.508-2.084-7.262-1.129c-3.752,0.859-5.865,6.479-5.865,10.154
	c0.336,0.266,2.389-0.398,2.771-0.834c0.154-0.645,0.398-1.305,0.627-1.992c2.818-1.631,6.006-2.014,8.217-3.967
	c-0.283,0.852,1.217,1.922,1.984,3.967c0.248,0.664,0.471,1.328,0.629,1.992c0.625,0.574,1.873,0.846,2.771,0.834
	C28.572,9.366,26.203,3.017,24.699,3.45z"/>
<path fill="#BA9757" d="M12.248,11.917c2.594-3.455,10.998-3.221,12.451-8.467C21.876,7.853,12.955,8.595,12.248,11.917z"/>
</svg>
