<?xml version="1.0" encoding="utf-8"?>
<!-- Generator: Adobe Illustrator 15.0.0, SVG Export Plug-In . SVG Version: 6.00 Build 0)  -->
<!DOCTYPE svg PUBLIC "-//W3C//DTD SVG 1.1//EN" "http://www.w3.org/Graphics/SVG/1.1/DTD/svg11.dtd" [
	<!ENTITY ns_flows "http://ns.adobe.com/Flows/1.0/">
	<!ENTITY ns_extend "http://ns.adobe.com/Extensibility/1.0/">
	<!ENTITY ns_ai "http://ns.adobe.com/AdobeIllustrator/10.0/">
	<!ENTITY ns_graphs "http://ns.adobe.com/Graphs/1.0/">
]>
<svg version="1.1" id="Layer_1" xmlns:x="&ns_extend;" xmlns:i="&ns_ai;" xmlns:graph="&ns_graphs;"
	 xmlns="http://www.w3.org/2000/svg" xmlns:xlink="http://www.w3.org/1999/xlink" xmlns:a="http://ns.adobe.com/AdobeSVGViewerExtensions/3.0/"
	 x="0px" y="0px" width="64px" height="64px" viewBox="0 0 64 64" enable-background="new 0 0 64 64" xml:space="preserve">
<path fill="#3A8FB0" d="M58.173,31.723c-1.271-1.646-7.428-3.657-7.428-3.657l-11.658,0.019c0,0-6.119,2.006-7.387,3.641
	c-2.084,2.688-2.848,5.358-2.848,5.358l4.934,3V62h22.266V45.084l4.93-4.93C60.981,40.154,60.253,34.414,58.173,31.723z"/>
<path fill="#007EB0" d="M39.087,28.085c0,4.888,11.658,4.869,11.658-0.019l-1.168-0.413h-9.27L39.087,28.085z"/>
<path fill="#E6B045" d="M39.921,27.79c0,3.826,9.994,3.826,9.994,0c0-1.302,0-4.233,0-4.233h-9.994
	C39.921,23.556,39.921,26.488,39.921,27.79z"/>
<rect x="33.786" y="58" fill="#302C3B" width="22.266" height="4"/>
<path id="Path_1267_" fill="#FFCC66" d="M55.073,13.999c-1.572,0.191-2.707,5.455-1.721,6.844c0.141,0.194,0.951,0.504,1.551-0.723
	c0.332-0.678,1.293-1.245,1.59-2.646C56.874,15.68,56.638,13.809,55.073,13.999z"/>
<path id="Path_1266_" fill="#FFCC66" d="M34.765,13.999c1.572,0.191,2.707,5.455,1.717,6.844c-0.137,0.194-0.947,0.504-1.549-0.723
	c-0.332-0.678-1.293-1.245-1.59-2.646C32.962,15.68,33.2,13.809,34.765,13.999z"/>
<path id="Path_1265_" fill="#DB9D3A" d="M55.028,15.008c-0.408,0.129-0.855,0.754-1.1,1.792c1.434-0.308,1.076,2.08-0.17,2.125
	c0.012,0.24,0.027,0.488,0.057,0.748c0.602-0.872,1.211-0.521,1.814-1.819C56.175,16.684,56.046,14.688,55.028,15.008z"/>
<path id="Path_1264_" fill="#DB9D3A" d="M35.907,16.797c-0.242-1.036-0.689-1.661-1.1-1.789c-1.016-0.32-1.146,1.675-0.602,2.845
	c0.604,1.297,1.215,0.947,1.816,1.819c0.029-0.26,0.045-0.508,0.055-0.749C34.845,18.866,34.491,16.507,35.907,16.797z"/>
<path id="Path_1263_" fill="#FFCC66" d="M44.917,3.878c-6.809,0-10.09,5.153-9.68,12.318c0.082,1.441,0.975,6.143,1.818,7.83
	c0.865,1.727,3.752,4.387,5.521,4.938c1.117,0.347,3.566,0.347,4.682,0c1.77-0.551,4.66-3.211,5.521-4.938
	c0.846-1.687,1.738-6.387,1.82-7.83C55.011,9.031,51.731,3.878,44.917,3.878z"/>
<path id="Path_1262_" fill="#966F42" d="M52.317,13.473c-1.557-0.825-4.537-0.865-5.648-0.29c-0.238,0.11-0.08,0.893,0.119,0.818
	c1.547-0.612,4.045-0.625,5.492,0.052C52.474,14.142,52.554,13.588,52.317,13.473z"/>
<path id="Path_1261_" fill="#966F42" d="M37.517,13.473c1.561-0.825,4.539-0.865,5.65-0.29c0.238,0.11,0.08,0.893-0.119,0.818
	c-1.551-0.612-4.043-0.625-5.494,0.052C37.362,14.142,37.282,13.588,37.517,13.473z"/>
<path id="Path_1260_" fill="#DB9D3A" d="M46.757,20.628c-0.193-0.136-0.65,0.073-1.84,0.073c-1.186,0-1.643-0.209-1.836-0.073
	c-0.234,0.164,0.137,0.905,1.836,0.905C46.62,21.534,46.989,20.792,46.757,20.628z"/>
<path id="Path_1259_" fill="#DB9D3A" d="M44.917,23.436c-1.529-0.45-3.801,0.213-3.801,0.213c0.863,0.942,1.498,2.164,3.801,2.164
	c2.641,0,3.09-1.387,3.803-2.164C48.72,23.649,46.448,22.982,44.917,23.436z"/>
<path id="Path_1258_" fill="#FFFFFF" d="M41.687,23.809c1.605,1.348,4.848,1.357,6.463,0C46.44,23.882,43.411,23.883,41.687,23.809z
	"/>
<path id="Path_1205_" fill="#FFFFFF" d="M43.403,16.284c0.057,0.451-0.248,0.986-1.096,1.386c-0.537,0.255-1.658,0.555-3.129-0.066
	c-0.66-0.278-1.301-1.144-1.244-1.623C38.731,14.478,42.657,14.258,43.403,16.284z"/>
<linearGradient id="Oval_1_" gradientUnits="userSpaceOnUse" x1="-437.8213" y1="479.5557" x2="-437.8213" y2="480.0254" gradientTransform="matrix(6.5701 0 0 -6.5701 2917.2688 3168.5281)">
	<stop  offset="0" style="stop-color:#A6694A"/>
	<stop  offset="1" style="stop-color:#4F2A1E"/>
	<a:midPointStop  offset="0" style="stop-color:#A6694A"/>
	<a:midPointStop  offset="0.5" style="stop-color:#A6694A"/>
	<a:midPointStop  offset="1" style="stop-color:#4F2A1E"/>
</linearGradient>
<circle id="Oval_166_" fill="url(#Oval_1_)" cx="40.739" cy="16.254" r="1.542"/>
<path id="Path_1204_" fill="#1A1626" d="M39.97,16.226c0,1.067,1.541,1.067,1.541,0C41.511,15.235,39.97,15.235,39.97,16.226z"/>
<path id="Path_1203_" fill="#AB968C" d="M39.735,15.793c0,0.447,0.646,0.447,0.646,0C40.382,15.379,39.735,15.379,39.735,15.793z"/>
<path id="Path_1202_" fill="#DB9D3A" d="M43.411,16.344c-0.629-2.013-4.896-1.715-5.477-0.362
	C38.149,14.249,42.878,13.792,43.411,16.344z"/>
<path id="Path_1201_" fill="#FFFFFF" d="M46.433,16.284c-0.057,0.451,0.248,0.986,1.096,1.386c0.539,0.255,1.658,0.555,3.131-0.066
	c0.658-0.278,1.301-1.144,1.242-1.623C51.106,14.478,47.181,14.258,46.433,16.284z"/>
<linearGradient id="Oval_2_" gradientUnits="userSpaceOnUse" x1="-439.2534" y1="479.5557" x2="-439.2534" y2="480.0254" gradientTransform="matrix(6.5701 0 0 -6.5701 2934.9993 3168.5281)">
	<stop  offset="0" style="stop-color:#A6694A"/>
	<stop  offset="1" style="stop-color:#4F2A1E"/>
	<a:midPointStop  offset="0" style="stop-color:#A6694A"/>
	<a:midPointStop  offset="0.5" style="stop-color:#A6694A"/>
	<a:midPointStop  offset="1" style="stop-color:#4F2A1E"/>
</linearGradient>
<circle id="Oval_165_" fill="url(#Oval_2_)" cx="49.062" cy="16.254" r="1.542"/>
<path id="Path_1200_" fill="#1A1626" d="M48.29,16.226c0,1.067,1.543,1.067,1.543,0C49.833,15.235,48.29,15.235,48.29,16.226z"/>
<path id="Path_1199_" fill="#AB968C" d="M48.056,15.793c0,0.447,0.648,0.447,0.648,0C48.704,15.379,48.056,15.379,48.056,15.793z"/>
<path id="Path_1198_" fill="#DB9D3A" d="M46.427,16.344c0.625-2.012,4.891-1.724,5.475-0.362
	C51.685,14.249,46.96,13.792,46.427,16.344z"/>
<path fill="#7A6056" d="M53.618,5.585C52.126,3.567,49.397,2,44.917,2c-4.479,0-7.207,1.567-8.697,3.585
	C34.11,8.441,55.728,8.441,53.618,5.585z"/>
<linearGradient id="SVGID_1_" gradientUnits="userSpaceOnUse" x1="-57.5732" y1="17.958" x2="-57.5732" y2="4.7305" gradientTransform="matrix(1 0 0 1 102.4922 0)">
	<stop  offset="0.5" style="stop-color:#473834"/>
	<stop  offset="0.6387" style="stop-color:#503F3A"/>
	<stop  offset="0.8641" style="stop-color:#68524A"/>
	<stop  offset="1" style="stop-color:#7A6056"/>
	<a:midPointStop  offset="0.5" style="stop-color:#473834"/>
	<a:midPointStop  offset="0.6" style="stop-color:#473834"/>
	<a:midPointStop  offset="1" style="stop-color:#7A6056"/>
</linearGradient>
<path fill="url(#SVGID_1_)" d="M53.618,5.585c-1.492-2.018-4.221,0.17-8.701,0.17c-4.479,0-7.207-2.188-8.697-0.17
	c-2.109,2.856-1.393,12.373-0.455,12.373c0.15,0,0.17-3.33,0.455-5.632c0.23-1.875,0.678-3.693,1.188-3.99
	c1.564-0.907,4.58,0.39,7.51,0.39c2.934,0,5.949-1.297,7.512-0.39c0.512,0.297,0.957,2.115,1.189,3.99
	c0.283,2.303,0.303,5.632,0.455,5.632C55.011,17.958,55.728,8.441,53.618,5.585z"/>
<path fill="#FFCC66" d="M28.462,41.33c1.027-2.818,5.584-3.688,5.584-3.688s-0.26,3.696-0.26,7.625
	C31.253,44.95,28.462,41.33,28.462,41.33z"/>
<path fill="#3AB0A2" d="M5.827,31.723c1.271-1.646,7.428-3.657,7.428-3.657l11.658,0.019c0,0,5.828,1.923,7.096,3.558
	c2.084,2.689,2.141,6,2.141,6l-3.936,2.441V62H7.948V45.084l-4.93-4.93C3.019,40.154,3.747,34.414,5.827,31.723z"/>
<path fill="#2B998D" d="M24.913,28.085c0,4.888-11.658,4.869-11.658-0.019l1.168-0.413h9.27L24.913,28.085z"/>
<path fill="#E6B045" d="M24.079,27.79c0,3.826-9.994,3.826-9.994,0c0-1.302,0-4.233,0-4.233h9.994
	C24.079,23.556,24.079,26.488,24.079,27.79z"/>
<rect x="7.948" y="58" fill="#302C3B" width="22.266" height="4"/>
<path id="Path_1197_" fill="#FFCC66" d="M29.237,13.999c-1.572,0.191-2.707,5.455-1.721,6.844c0.141,0.194,0.951,0.504,1.551-0.723
	c0.332-0.678,1.293-1.245,1.59-2.646C31.038,15.68,30.802,13.809,29.237,13.999z"/>
<path id="Path_1196_" fill="#FFCC66" d="M8.929,13.999c1.572,0.191,2.707,5.455,1.717,6.844c-0.137,0.194-0.947,0.504-1.549-0.723
	c-0.332-0.678-1.293-1.245-1.59-2.646C7.126,15.68,7.364,13.809,8.929,13.999z"/>
<path id="Path_1195_" fill="#DB9D3A" d="M29.192,15.008c-0.408,0.129-0.855,0.754-1.1,1.792c1.434-0.308,1.076,2.08-0.17,2.125
	c0.012,0.24,0.027,0.488,0.057,0.748c0.602-0.872,1.211-0.521,1.814-1.819C30.339,16.684,30.21,14.688,29.192,15.008z"/>
<path id="Path_1194_" fill="#DB9D3A" d="M10.071,16.797c-0.242-1.036-0.689-1.661-1.1-1.789c-1.016-0.32-1.146,1.675-0.602,2.845
	c0.604,1.297,1.215,0.947,1.816,1.819c0.029-0.26,0.045-0.508,0.055-0.749C9.009,18.866,8.655,16.507,10.071,16.797z"/>
<path id="Path_1193_" fill="#FFCC66" d="M19.081,3.878c-6.809,0-10.09,5.153-9.68,12.318c0.082,1.441,0.975,6.143,1.818,7.83
	c0.865,1.727,3.752,4.387,5.521,4.938c1.117,0.347,3.566,0.347,4.682,0c1.77-0.551,4.66-3.211,5.521-4.938
	c0.846-1.687,1.738-6.387,1.82-7.83C29.175,9.031,25.896,3.878,19.081,3.878z"/>
<path id="Path_1192_" fill="#966F42" d="M26.481,13.473c-1.557-0.825-4.537-0.865-5.648-0.29c-0.238,0.11-0.08,0.893,0.119,0.818
	c1.547-0.612,4.045-0.625,5.492,0.052C26.638,14.142,26.718,13.588,26.481,13.473z"/>
<path id="Path_1191_" fill="#966F42" d="M11.681,13.473c1.561-0.825,4.539-0.865,5.65-0.29c0.238,0.11,0.08,0.893-0.119,0.818
	c-1.551-0.612-4.043-0.625-5.494,0.052C11.526,14.142,11.446,13.588,11.681,13.473z"/>
<path id="Path_1190_" fill="#DB9D3A" d="M20.921,20.628c-0.193-0.136-0.65,0.073-1.84,0.073c-1.186,0-1.643-0.209-1.836-0.073
	c-0.234,0.164,0.137,0.905,1.836,0.905C20.784,21.534,21.153,20.792,20.921,20.628z"/>
<path id="Path_1189_" fill="#DB9D3A" d="M19.081,23.436c-1.529-0.45-3.801,0.213-3.801,0.213c0.863,0.942,1.498,2.164,3.801,2.164
	c2.641,0,3.09-1.387,3.803-2.164C22.884,23.649,20.612,22.982,19.081,23.436z"/>
<path id="Path_1188_" fill="#FFFFFF" d="M15.851,23.809c1.605,1.348,4.848,1.357,6.463,0C20.604,23.882,17.575,23.883,15.851,23.809
	z"/>
<path id="Path_1187_" fill="#FFFFFF" d="M17.567,16.284c0.057,0.451-0.248,0.986-1.096,1.386c-0.537,0.255-1.658,0.555-3.129-0.066
	c-0.66-0.278-1.301-1.144-1.244-1.623C12.896,14.478,16.821,14.258,17.567,16.284z"/>
<linearGradient id="Oval_3_" gradientUnits="userSpaceOnUse" x1="-453.9097" y1="479.5557" x2="-453.9097" y2="480.0254" gradientTransform="matrix(6.5701 0 0 -6.5701 2997.136 3168.5281)">
	<stop  offset="0" style="stop-color:#A6694A"/>
	<stop  offset="1" style="stop-color:#4F2A1E"/>
	<a:midPointStop  offset="0" style="stop-color:#A6694A"/>
	<a:midPointStop  offset="0.5" style="stop-color:#A6694A"/>
	<a:midPointStop  offset="1" style="stop-color:#4F2A1E"/>
</linearGradient>
<circle id="Oval_164_" fill="url(#Oval_3_)" cx="14.903" cy="16.254" r="1.542"/>
<path id="Path_1186_" fill="#1A1626" d="M14.134,16.226c0,1.067,1.541,1.067,1.541,0C15.675,15.235,14.134,15.235,14.134,16.226z"/>
<path id="Path_1185_" fill="#AB968C" d="M13.899,15.793c0,0.447,0.646,0.447,0.646,0C14.546,15.379,13.899,15.379,13.899,15.793z"/>
<path id="Path_1184_" fill="#DB9D3A" d="M17.575,16.344c-0.629-2.013-4.896-1.715-5.477-0.362
	C12.313,14.249,17.042,13.792,17.575,16.344z"/>
<path id="Path_1183_" fill="#FFFFFF" d="M20.597,16.284c-0.057,0.451,0.248,0.986,1.096,1.386c0.539,0.255,1.658,0.555,3.131-0.066
	c0.658-0.278,1.301-1.144,1.242-1.623C25.271,14.478,21.345,14.258,20.597,16.284z"/>
<linearGradient id="Oval_4_" gradientUnits="userSpaceOnUse" x1="-455.3418" y1="479.5557" x2="-455.3418" y2="480.0254" gradientTransform="matrix(6.5701 0 0 -6.5701 3014.8665 3168.5281)">
	<stop  offset="0" style="stop-color:#A6694A"/>
	<stop  offset="1" style="stop-color:#4F2A1E"/>
	<a:midPointStop  offset="0" style="stop-color:#A6694A"/>
	<a:midPointStop  offset="0.5" style="stop-color:#A6694A"/>
	<a:midPointStop  offset="1" style="stop-color:#4F2A1E"/>
</linearGradient>
<circle id="Oval_163_" fill="url(#Oval_4_)" cx="23.226" cy="16.254" r="1.542"/>
<path id="Path_1182_" fill="#1A1626" d="M22.454,16.226c0,1.067,1.543,1.067,1.543,0C23.997,15.235,22.454,15.235,22.454,16.226z"/>
<path id="Path_1181_" fill="#AB968C" d="M22.22,15.793c0,0.447,0.648,0.447,0.648,0C22.868,15.379,22.22,15.379,22.22,15.793z"/>
<path id="Path_1180_" fill="#DB9D3A" d="M20.591,16.344c0.625-2.012,4.891-1.724,5.475-0.362
	C25.849,14.249,21.124,13.792,20.591,16.344z"/>
<path fill="#7A6056" d="M27.782,5.585C26.29,3.567,23.562,2,19.081,2c-4.479,0-7.207,1.567-8.697,3.585
	C8.274,8.441,29.892,8.441,27.782,5.585z"/>
<linearGradient id="SVGID_2_" gradientUnits="userSpaceOnUse" x1="-163.2783" y1="17.958" x2="-163.2783" y2="4.7305" gradientTransform="matrix(1 0 0 1 182.3613 0)">
	<stop  offset="0.5" style="stop-color:#473834"/>
	<stop  offset="0.6387" style="stop-color:#503F3A"/>
	<stop  offset="0.8641" style="stop-color:#68524A"/>
	<stop  offset="1" style="stop-color:#7A6056"/>
	<a:midPointStop  offset="0.5" style="stop-color:#473834"/>
	<a:midPointStop  offset="0.6" style="stop-color:#473834"/>
	<a:midPointStop  offset="1" style="stop-color:#7A6056"/>
</linearGradient>
<path fill="url(#SVGID_2_)" d="M27.782,5.585c-1.492-2.018-4.221,0.17-8.701,0.17c-4.479,0-7.207-2.188-8.697-0.17
	C8.274,8.441,8.991,17.958,9.929,17.958c0.15,0,0.17-3.33,0.455-5.632c0.23-1.875,0.678-3.693,1.188-3.99
	c1.564-0.907,4.58,0.39,7.51,0.39c2.934,0,5.949-1.297,7.512-0.39c0.512,0.297,0.957,2.115,1.189,3.99
	c0.283,2.303,0.303,5.632,0.455,5.632C29.175,17.958,29.892,8.441,27.782,5.585z"/>
<path fill="#8FBFFF" d="M51.815,55.146c-0.85-1.092-4.963-2.426-4.963-2.426l-7.793,0.013c0,0-4.088,1.331-4.936,2.415
	C32.731,56.932,32.22,62,32.22,62h21.473C53.692,62,53.206,56.931,51.815,55.146z"/>
<path fill="#73B0FF" d="M39.06,52.733c0,3.241,7.793,3.229,7.793-0.013l-0.781-0.273h-6.195L39.06,52.733z"/>
<path fill="#E6B045" d="M39.618,52.537c0,2.539,6.678,2.539,6.678,0c0-0.862,0-2.807,0-2.807h-6.678
	C39.618,49.73,39.618,51.675,39.618,52.537z"/>
<path fill="#73B0FF" d="M36.089,62H35.79C35.79,58.319,36.089,58.319,36.089,62z"/>
<path fill="#73B0FF" d="M50.124,62h-0.301C49.823,58.319,50.124,58.319,50.124,62z"/>
<path id="Path_734_" fill="#FFCC66" d="M34.397,42.107c1.066,0.131,1.834,3.73,1.166,4.68c-0.096,0.133-0.645,0.346-1.051-0.494
	c-0.227-0.463-0.877-0.852-1.078-1.809C33.177,43.258,33.339,41.979,34.397,42.107z"/>
<path id="Path_733_" fill="#DB9D3A" d="M34.427,42.799c0.277,0.087,0.582,0.516,0.746,1.225c-0.973-0.211-0.729,1.422,0.115,1.453
	c-0.008,0.164-0.018,0.334-0.039,0.511c-0.406-0.596-0.82-0.356-1.229-1.243C33.651,43.944,33.739,42.58,34.427,42.799z"/>
<path id="Path_732_" fill="#FFCC66" d="M51.513,42.107c-1.064,0.131-1.834,3.73-1.164,4.68c0.094,0.133,0.643,0.346,1.051-0.494
	c0.225-0.463,0.875-0.852,1.076-1.809C52.735,43.258,52.573,41.979,51.513,42.107z"/>
<path id="Path_731_" fill="#DB9D3A" d="M50.739,44.021c0.164-0.709,0.467-1.136,0.744-1.223c0.689-0.219,0.777,1.146,0.408,1.945
	c-0.41,0.887-0.822,0.647-1.23,1.243c-0.02-0.178-0.031-0.347-0.037-0.512C51.458,45.436,51.698,43.823,50.739,44.021z"/>
<path fill="#FFCC66" d="M42.956,32.857c-5.822,0-8.627,4.404-8.275,10.529c0.07,1.232,0.834,4.047,1.557,5.488
	c1.273,2.545,4.6,4.443,6.719,4.443c2.117,0,5.447-1.898,6.719-4.443c0.723-1.441,1.486-4.256,1.557-5.488
	C51.583,37.262,48.778,32.857,42.956,32.857z"/>
<path id="Path_730_" fill="#DB9D3A" d="M44.313,46.828c-0.145-0.101-0.482,0.055-1.357,0.055c-0.877,0-1.215-0.155-1.359-0.055
	c-0.17,0.121,0.104,0.668,1.359,0.668C44.21,47.496,44.485,46.949,44.313,46.828z"/>
<path id="Path_729_" fill="#DB9D3A" d="M42.956,48.779c-1.313-0.386-3.258,0.184-3.258,0.184c0.74,0.808,1.283,1.854,3.258,1.854
	c2.262,0,2.646-1.188,3.258-1.854C46.214,48.963,44.267,48.393,42.956,48.779z"/>
<path id="Path_728_" fill="#FFFFFF" d="M40.187,49.1c1.375,1.154,4.154,1.162,5.539,0C44.259,49.162,41.663,49.163,40.187,49.1z"/>
<path id="Path_727_" fill="#FFFFFF" d="M41.7,43.832c0.047,0.373-0.205,0.816-0.908,1.147c-0.445,0.212-1.373,0.46-2.592-0.054
	c-0.545-0.23-1.078-0.948-1.029-1.345C37.831,42.336,41.081,42.153,41.7,43.832z"/>
<linearGradient id="Oval_5_" gradientUnits="userSpaceOnUse" x1="-422.4116" y1="475.4023" x2="-422.4116" y2="475.791" gradientTransform="matrix(6.5701 0 0 -6.5701 2814.7805 3168.5281)">
	<stop  offset="0" style="stop-color:#A6694A"/>
	<stop  offset="1" style="stop-color:#4F2A1E"/>
	<a:midPointStop  offset="0" style="stop-color:#A6694A"/>
	<a:midPointStop  offset="0.5" style="stop-color:#A6694A"/>
	<a:midPointStop  offset="1" style="stop-color:#4F2A1E"/>
</linearGradient>
<circle id="Oval_82_" fill="url(#Oval_5_)" cx="39.495" cy="43.807" r="1.277"/>
<path id="Path_726_" fill="#1A1626" d="M38.856,43.783c0,0.884,1.277,0.884,1.277,0C40.134,42.963,38.856,42.963,38.856,43.783z"/>
<path id="Path_725_" fill="#AB968C" d="M38.663,43.426c0,0.37,0.535,0.37,0.535,0C39.198,43.082,38.663,43.082,38.663,43.426z"/>
<path id="Path_724_" fill="#DB9D3A" d="M41.706,43.881c-0.518-1.667-4.055-1.422-4.535-0.3
	C37.349,42.146,41.265,41.768,41.706,43.881z"/>
<path id="Path_723_" fill="#FFFFFF" d="M44.212,43.832c-0.049,0.373,0.205,0.816,0.906,1.147c0.445,0.212,1.373,0.46,2.594-0.054
	c0.545-0.23,1.078-0.948,1.029-1.345C48.081,42.336,44.829,42.153,44.212,43.832z"/>
<linearGradient id="Oval_6_" gradientUnits="userSpaceOnUse" x1="-424.061" y1="475.4023" x2="-424.061" y2="475.791" gradientTransform="matrix(6.5701 0 0 -6.5701 2832.511 3168.5281)">
	<stop  offset="0" style="stop-color:#A6694A"/>
	<stop  offset="1" style="stop-color:#4F2A1E"/>
	<a:midPointStop  offset="0" style="stop-color:#A6694A"/>
	<a:midPointStop  offset="0.5" style="stop-color:#A6694A"/>
	<a:midPointStop  offset="1" style="stop-color:#4F2A1E"/>
</linearGradient>
<circle id="Oval_81_" fill="url(#Oval_6_)" cx="46.388" cy="43.807" r="1.277"/>
<path id="Path_722_" fill="#1A1626" d="M45.751,43.783c0,0.884,1.277,0.884,1.277,0C47.028,42.963,45.751,42.963,45.751,43.783z"/>
<path id="Path_721_" fill="#AB968C" d="M45.556,43.426c0,0.37,0.535,0.37,0.535,0C46.091,43.082,45.556,43.082,45.556,43.426z"/>
<path id="Path_720_" fill="#DB9D3A" d="M44.206,43.881c0.518-1.666,4.051-1.428,4.535-0.3
	C48.562,42.146,44.647,41.768,44.206,43.881z"/>
<path id="Path_719_" fill="#DB9D3A" d="M48.823,41.842c-1.098-0.693-3.311-0.895-4.178-0.54c-0.186,0.067-0.125,0.647,0.029,0.605
	c1.195-0.357,3.051-0.224,4.078,0.356C48.892,42.339,48.991,41.938,48.823,41.842z"/>
<path id="Path_718_" fill="#DB9D3A" d="M37.087,41.842c1.1-0.693,3.311-0.895,4.178-0.54c0.186,0.067,0.125,0.647-0.029,0.605
	c-1.195-0.357-3.049-0.224-4.08,0.356C37.019,42.339,36.919,41.938,37.087,41.842z"/>
<linearGradient id="SVGID_3_" gradientUnits="userSpaceOnUse" x1="42.9551" y1="45.4199" x2="42.9551" y2="31.6548">
	<stop  offset="0" style="stop-color:#473834"/>
	<stop  offset="0.2717" style="stop-color:#594640"/>
	<stop  offset="0.7226" style="stop-color:#715950"/>
	<stop  offset="1" style="stop-color:#7A6056"/>
	<a:midPointStop  offset="0" style="stop-color:#473834"/>
	<a:midPointStop  offset="0.4" style="stop-color:#473834"/>
	<a:midPointStop  offset="1" style="stop-color:#7A6056"/>
</linearGradient>
<path fill="url(#SVGID_3_)" d="M42.946,32.457c-0.525,0-1.012,0.033-1.48,0.082c0.195-0.203,0.438-0.361,0.773-0.424
	c-0.689-0.187-1.467-0.101-2.072,0.348c-0.127-0.217-0.18-0.495-0.053-0.809c-0.846,0.514-1.006,1.133-1.006,1.133
	c-0.242-0.392-0.254-0.904-0.254-0.904s-0.912,0.644-0.779,1.586c-0.814-0.355-1.498,0.058-1.498,0.058s0.4,0.171,0.592,0.53
	c-4.555,3.307-2.996,10.657-2.131,11.363c0,0,0.256-5.492,2.574-7.132c-0.125,1.036-0.402,1.769-0.402,1.769
	s2.275-0.359,4.279-1.639c-0.232,1.145-0.859,1.965-0.859,1.965s4.137-0.577,5.365-2.525c0,0,0.811,1.706,2.816,2.935
	c0,0,0.125-1.278-0.15-2.184c1.967,1.935,2.197,6.804,2.197,6.804C52.009,44.381,54.261,32.457,42.946,32.457z"/>
<path fill="#473834" d="M48.524,37.75l0.203,1.131c0,0,1.676,2.195,2.131,6.531C51.069,40.725,48.524,37.75,48.524,37.75z"/>
<path fill="#473834" d="M48.298,37.327c0,0,1.229,1.53,0.514,3.465C48.903,39.277,48.298,37.327,48.298,37.327z"/>
<path fill="#473834" d="M46.269,36.788c0.273,3.928-5.686,3.597-5.639,3.595C40.63,40.383,45.749,39.402,46.269,36.788z"/>
<path fill="#473834" d="M42.681,37.139c-1.119,3.168-5.229,2.895-5.471,2.918C37.21,40.057,40.884,38.993,42.681,37.139z"/>
<path fill="#473834" d="M37.954,37.879c-2.676,3.135-2.916,7.541-2.916,7.541S34.331,40.688,37.954,37.879z"/>
<path fill="#8FEAFF" d="M29.901,55.146c-0.85-1.092-4.963-2.426-4.963-2.426l-7.791,0.013c0,0-4.09,1.331-4.938,2.415
	C10.817,56.932,10.308,62,10.308,62H31.78C31.78,62,31.292,56.931,29.901,55.146z"/>
<path fill="#67DBF5" d="M17.147,52.733c0,3.241,7.791,3.229,7.791-0.013l-0.781-0.273h-6.195L17.147,52.733z"/>
<path fill="#E6B045" d="M17.704,52.537c0,2.539,6.68,2.539,6.68,0c0-0.862,0-2.807,0-2.807h-6.68
	C17.704,49.73,17.704,51.675,17.704,52.537z"/>
<path fill="#67DBF5" d="M14.175,62h-0.299C13.876,58.319,14.175,58.319,14.175,62z"/>
<path fill="#67DBF5" d="M28.21,62h-0.299C27.911,58.319,28.21,58.319,28.21,62z"/>
<path id="Path_623_" fill="#FFCC66" d="M12.485,42.107c1.066,0.131,1.834,3.73,1.166,4.68c-0.096,0.133-0.645,0.346-1.051-0.494
	c-0.227-0.463-0.877-0.852-1.078-1.809C11.265,43.258,11.427,41.979,12.485,42.107z"/>
<path id="Path_622_" fill="#DB9D3A" d="M12.515,42.799c0.277,0.087,0.582,0.516,0.746,1.225c-0.973-0.211-0.729,1.422,0.115,1.453
	c-0.008,0.164-0.018,0.334-0.039,0.511c-0.406-0.596-0.82-0.356-1.229-1.243C11.739,43.944,11.827,42.58,12.515,42.799z"/>
<path id="Path_621_" fill="#FFCC66" d="M29.601,42.107c-1.064,0.131-1.834,3.73-1.164,4.68c0.094,0.133,0.643,0.346,1.051-0.494
	c0.225-0.463,0.875-0.852,1.076-1.809C30.823,43.258,30.661,41.979,29.601,42.107z"/>
<path id="Path_620_" fill="#DB9D3A" d="M28.827,44.021c0.164-0.709,0.467-1.136,0.744-1.223c0.689-0.219,0.777,1.146,0.408,1.945
	c-0.41,0.887-0.822,0.647-1.23,1.243c-0.02-0.178-0.031-0.347-0.037-0.512C29.546,45.436,29.786,43.823,28.827,44.021z"/>
<path fill="#FFCC66" d="M21.044,32.857c-5.822,0-8.627,4.404-8.275,10.529c0.07,1.232,0.834,4.047,1.557,5.488
	c1.273,2.545,4.6,4.443,6.719,4.443c2.117,0,5.447-1.898,6.719-4.443c0.723-1.441,1.486-4.256,1.557-5.488
	C29.671,37.262,26.866,32.857,21.044,32.857z"/>
<path id="Path_619_" fill="#DB9D3A" d="M22.401,46.828c-0.145-0.101-0.482,0.055-1.357,0.055c-0.877,0-1.215-0.155-1.359-0.055
	c-0.17,0.121,0.104,0.668,1.359,0.668C22.298,47.496,22.573,46.949,22.401,46.828z"/>
<path id="Path_618_" fill="#DB9D3A" d="M21.044,48.779c-1.313-0.386-3.258,0.184-3.258,0.184c0.74,0.808,1.283,1.854,3.258,1.854
	c2.262,0,2.646-1.188,3.258-1.854C24.302,48.963,22.354,48.393,21.044,48.779z"/>
<path id="Path_617_" fill="#FFFFFF" d="M18.274,49.1c1.375,1.154,4.154,1.162,5.539,0C22.347,49.162,19.751,49.163,18.274,49.1z"/>
<path id="Path_616_" fill="#FFFFFF" d="M19.788,43.832c0.047,0.373-0.205,0.816-0.908,1.147c-0.445,0.212-1.373,0.46-2.592-0.054
	c-0.545-0.23-1.078-0.948-1.029-1.345C15.919,42.336,19.169,42.153,19.788,43.832z"/>
<linearGradient id="Oval_7_" gradientUnits="userSpaceOnUse" x1="-425.7466" y1="475.4023" x2="-425.7466" y2="475.791" gradientTransform="matrix(6.5701 0 0 -6.5701 2814.7805 3168.5281)">
	<stop  offset="0" style="stop-color:#A6694A"/>
	<stop  offset="1" style="stop-color:#4F2A1E"/>
	<a:midPointStop  offset="0" style="stop-color:#A6694A"/>
	<a:midPointStop  offset="0.5" style="stop-color:#A6694A"/>
	<a:midPointStop  offset="1" style="stop-color:#4F2A1E"/>
</linearGradient>
<circle id="Oval_80_" fill="url(#Oval_7_)" cx="17.583" cy="43.807" r="1.277"/>
<path id="Path_615_" fill="#1A1626" d="M16.944,43.783c0,0.884,1.277,0.884,1.277,0C18.222,42.963,16.944,42.963,16.944,43.783z"/>
<path id="Path_614_" fill="#AB968C" d="M16.751,43.426c0,0.37,0.535,0.37,0.535,0C17.286,43.082,16.751,43.082,16.751,43.426z"/>
<path id="Path_613_" fill="#DB9D3A" d="M19.794,43.881c-0.518-1.667-4.055-1.422-4.535-0.3
	C15.437,42.146,19.353,41.768,19.794,43.881z"/>
<path id="Path_612_" fill="#FFFFFF" d="M22.3,43.832c-0.049,0.373,0.205,0.816,0.906,1.147c0.445,0.212,1.373,0.46,2.594-0.054
	c0.545-0.23,1.078-0.948,1.029-1.345C26.169,42.336,22.917,42.153,22.3,43.832z"/>
<linearGradient id="Oval_8_" gradientUnits="userSpaceOnUse" x1="-427.396" y1="475.4023" x2="-427.396" y2="475.791" gradientTransform="matrix(6.5701 0 0 -6.5701 2832.511 3168.5281)">
	<stop  offset="0" style="stop-color:#A6694A"/>
	<stop  offset="1" style="stop-color:#4F2A1E"/>
	<a:midPointStop  offset="0" style="stop-color:#A6694A"/>
	<a:midPointStop  offset="0.5" style="stop-color:#A6694A"/>
	<a:midPointStop  offset="1" style="stop-color:#4F2A1E"/>
</linearGradient>
<circle id="Oval_79_" fill="url(#Oval_8_)" cx="24.476" cy="43.807" r="1.277"/>
<path id="Path_611_" fill="#1A1626" d="M23.839,43.783c0,0.884,1.277,0.884,1.277,0C25.116,42.963,23.839,42.963,23.839,43.783z"/>
<path id="Path_610_" fill="#AB968C" d="M23.644,43.426c0,0.37,0.535,0.37,0.535,0C24.179,43.082,23.644,43.082,23.644,43.426z"/>
<path id="Path_609_" fill="#DB9D3A" d="M22.294,43.881c0.518-1.666,4.051-1.428,4.535-0.3
	C26.649,42.146,22.735,41.768,22.294,43.881z"/>
<path id="Path_608_" fill="#DB9D3A" d="M26.911,41.842c-1.098-0.693-3.311-0.895-4.178-0.54c-0.186,0.067-0.125,0.647,0.029,0.605
	c1.195-0.357,3.051-0.224,4.078,0.356C26.979,42.339,27.079,41.938,26.911,41.842z"/>
<path id="Path_607_" fill="#DB9D3A" d="M15.175,41.842c1.1-0.693,3.311-0.895,4.178-0.54c0.186,0.067,0.125,0.647-0.029,0.605
	c-1.195-0.357-3.049-0.224-4.08,0.356C15.106,42.339,15.007,41.938,15.175,41.842z"/>
<linearGradient id="SVGID_4_" gradientUnits="userSpaceOnUse" x1="21.0435" y1="45.4199" x2="21.0435" y2="31.6548">
	<stop  offset="0" style="stop-color:#473834"/>
	<stop  offset="0.2717" style="stop-color:#594640"/>
	<stop  offset="0.7226" style="stop-color:#715950"/>
	<stop  offset="1" style="stop-color:#7A6056"/>
	<a:midPointStop  offset="0" style="stop-color:#473834"/>
	<a:midPointStop  offset="0.4" style="stop-color:#473834"/>
	<a:midPointStop  offset="1" style="stop-color:#7A6056"/>
</linearGradient>
<path fill="url(#SVGID_4_)" d="M21.034,32.457c-0.525,0-1.012,0.033-1.48,0.082c0.195-0.203,0.438-0.361,0.773-0.424
	c-0.689-0.187-1.467-0.101-2.072,0.348c-0.127-0.217-0.18-0.495-0.053-0.809c-0.846,0.514-1.006,1.133-1.006,1.133
	c-0.242-0.392-0.254-0.904-0.254-0.904s-0.912,0.644-0.779,1.586c-0.814-0.355-1.498,0.058-1.498,0.058s0.4,0.171,0.592,0.53
	c-4.555,3.307-2.996,10.657-2.131,11.363c0,0,0.256-5.492,2.574-7.132c-0.125,1.036-0.402,1.769-0.402,1.769
	s2.275-0.359,4.279-1.639c-0.232,1.145-0.859,1.965-0.859,1.965s4.137-0.577,5.365-2.525c0,0,0.811,1.706,2.816,2.935
	c0,0,0.125-1.278-0.15-2.184c1.967,1.935,2.197,6.804,2.197,6.804C30.097,44.381,32.349,32.457,21.034,32.457z"/>
<path fill="#473834" d="M26.612,37.75l0.203,1.131c0,0,1.676,2.195,2.131,6.531C29.157,40.725,26.612,37.75,26.612,37.75z"/>
<path fill="#473834" d="M26.386,37.327c0,0,1.229,1.53,0.514,3.465C26.991,39.277,26.386,37.327,26.386,37.327z"/>
<path fill="#473834" d="M24.356,36.788c0.273,3.928-5.686,3.597-5.639,3.595C18.718,40.383,23.837,39.402,24.356,36.788z"/>
<path fill="#473834" d="M20.769,37.139c-1.119,3.168-5.229,2.895-5.471,2.918C15.298,40.057,18.972,38.993,20.769,37.139z"/>
<path fill="#473834" d="M16.042,37.879c-2.676,3.135-2.916,7.541-2.916,7.541S12.419,40.688,16.042,37.879z"/>
<path fill="#FFCC66" d="M49.919,53.971c0,0-0.313-0.122-1.094-0.481c1-0.97,2.191,0.085,3.293-1.403
	c1.934-2.611,3.066-4.16,3.934-6.66c0,0-0.357-1.322-0.08-3.33c2.521-0.514,4.875-1.806,4.875-1.806s0.135,5.006,0.135,5.111
	c0,3.312-4.775,6.47-6.055,8.639c-0.629,1.063-1.52,2.763-1.76,3.019c-2.084,2.207-4.223,2.02-4.797,1.45
	C46.081,58.267,50.888,55.153,49.919,53.971z"/>
<path fill="#DB9D3A" d="M50.536,56.686c0,0-1.209,1.523-2.166,1.823C49.489,58.435,50.536,56.686,50.536,56.686z"/>
<path fill="#DB9D3A" d="M51.849,56.733c0,0-1.506,1.84-2.463,2.141C50.505,58.799,51.849,56.733,51.849,56.733z"/>
<path fill="#DB9D3A" d="M52.577,56.977c0,0-1.047,1.461-2.006,1.762C51.69,58.664,52.577,56.977,52.577,56.977z"/>
<path fill="#FFCC66" d="M14.081,53.971c0,0,0.313-0.122,1.094-0.481c-1-0.97-2.191,0.085-3.293-1.403
	c-1.934-2.611-3.066-4.16-3.934-6.66c0,0,0.357-1.322,0.08-3.33c-2.521-0.514-4.875-1.806-4.875-1.806s-0.135,5.006-0.135,5.111
	c0,3.312,4.775,6.47,6.055,8.639c0.629,1.063,1.52,2.763,1.76,3.019c2.084,2.207,4.223,2.02,4.797,1.45
	C17.919,58.267,13.112,55.153,14.081,53.971z"/>
<path fill="#DB9D3A" d="M13.464,56.686c0,0,1.209,1.523,2.166,1.823C14.511,58.435,13.464,56.686,13.464,56.686z"/>
<path fill="#DB9D3A" d="M12.151,56.733c0,0,1.506,1.84,2.463,2.141C13.495,58.799,12.151,56.733,12.151,56.733z"/>
<path fill="#DB9D3A" d="M11.423,56.977c0,0,1.047,1.461,2.006,1.762C12.31,58.664,11.423,56.977,11.423,56.977z"/>
</svg>
