<?xml version="1.0" encoding="utf-8"?>
<!-- Generator: Adobe Illustrator 15.0.0, SVG Export Plug-In . SVG Version: 6.00 Build 0)  -->
<!DOCTYPE svg PUBLIC "-//W3C//DTD SVG 1.1//EN" "http://www.w3.org/Graphics/SVG/1.1/DTD/svg11.dtd" [
	<!ENTITY ns_flows "http://ns.adobe.com/Flows/1.0/">
	<!ENTITY ns_extend "http://ns.adobe.com/Extensibility/1.0/">
	<!ENTITY ns_ai "http://ns.adobe.com/AdobeIllustrator/10.0/">
	<!ENTITY ns_graphs "http://ns.adobe.com/Graphs/1.0/">
]>
<svg version="1.1" id="Layer_1" xmlns:x="&ns_extend;" xmlns:i="&ns_ai;" xmlns:graph="&ns_graphs;"
	 xmlns="http://www.w3.org/2000/svg" xmlns:xlink="http://www.w3.org/1999/xlink" xmlns:a="http://ns.adobe.com/AdobeSVGViewerExtensions/3.0/"
	 x="0px" y="0px" width="64px" height="64px" viewBox="0 0 64 64" enable-background="new 0 0 64 64" xml:space="preserve">
<path fill="#473834" d="M22.688,61.489C33.034,57.351,32,47.523,32,47.523H3.034c0,0-1.034,9.827,9.31,13.966
	c0,0,2.07,0.518,5.173,0.518C20.621,62.007,22.688,61.489,22.688,61.489z"/>
<path fill="#FFCC66" d="M17.518,32.524c-7.507,0-11.122,6.113-10.671,13.973c0.094,1.579,0.533,3.857,1.075,5.811
	c1.126,4.06,7.065,8.146,9.596,8.146c2.528,0,8.469-4.087,9.595-8.146c0.543-1.953,0.982-4.231,1.075-5.811
	C28.638,38.638,25.024,32.524,17.518,32.524z"/>
<path fill="#D47706" d="M17.517,54.073c-1.759-0.773-1.773-0.031-4.489,0.151c1.02,1.157,1.771,2.646,4.488,2.646
	c3.119,0,3.646-1.689,4.491-2.646C19.288,54.042,19.277,53.3,17.517,54.073z"/>
<path fill="#FFFFFF" d="M13.843,54.513c1.773,1.846,5.597,1.821,7.348,0.002C18.461,54.808,16.573,54.808,13.843,54.513z"/>
<path fill="#966F42" d="M25.493,43.882c-1.631-0.973-4.557-1.092-5.713-0.429c-0.245,0.134-0.18,0.835,0.032,0.747
	c1.65-0.687,4.166-0.721,5.716,0.074C25.735,44.38,25.74,44.022,25.493,43.882z"/>
<path fill="#966F42" d="M9.54,43.882c1.631-0.973,4.556-1.092,5.715-0.429c0.246,0.134,0.181,0.835-0.033,0.747
	c-1.651-0.687-4.164-0.722-5.716,0.074C9.298,44.38,9.294,44.022,9.54,43.882z"/>
<path fill="#DB9D3A" d="M19.204,51.579c-0.179-0.125-0.598,0.068-1.688,0.068s-1.509-0.193-1.688-0.068
	c-0.214,0.15,0.126,0.831,1.688,0.831C19.077,52.41,19.42,51.731,19.204,51.579z"/>
<path id="Path_25_" fill="#FFFFFF" d="M15.848,46.831c0.063,0.496-0.274,1.084-1.208,1.525c-0.593,0.281-1.826,0.611-3.447-0.072
	c-0.727-0.307-1.435-1.26-1.371-1.787C10.7,44.841,15.025,44.598,15.848,46.831z"/>
<linearGradient id="Oval_5_" gradientUnits="userSpaceOnUse" x1="-426.4575" y1="474.8828" x2="-426.4575" y2="475.4004" gradientTransform="matrix(6.5701 0 0 -6.5701 2814.7805 3168.5281)">
	<stop  offset="0" style="stop-color:#A6694A"/>
	<stop  offset="1" style="stop-color:#4F2A1E"/>
	<a:midPointStop  offset="0" style="stop-color:#A6694A"/>
	<a:midPointStop  offset="0.5" style="stop-color:#A6694A"/>
	<a:midPointStop  offset="1" style="stop-color:#4F2A1E"/>
</linearGradient>
<circle id="Oval_4_" fill="url(#Oval_5_)" cx="12.912" cy="46.797" r="1.698"/>
<path id="Path_24_" fill="#1A1626" d="M12.064,46.766c0,1.175,1.699,1.175,1.699,0C13.764,45.675,12.064,45.675,12.064,46.766z"/>
<path id="Path_23_" fill="#AB968C" d="M11.806,46.29c0,0.493,0.712,0.493,0.712,0C12.518,45.833,11.806,45.833,11.806,46.29z"/>
<path id="Path_22_" fill="#45332C" d="M15.855,46.896c-0.69-2.217-5.394-1.89-6.034-0.398
	C10.059,44.588,15.268,44.083,15.855,46.896z"/>
<path id="Path_21_" fill="#FFFFFF" d="M19.188,46.831c-0.064,0.496,0.273,1.084,1.207,1.525c0.593,0.281,1.826,0.611,3.448-0.072
	c0.727-0.307,1.435-1.26,1.37-1.787C24.335,44.841,20.01,44.598,19.188,46.831z"/>
<linearGradient id="Oval_6_" gradientUnits="userSpaceOnUse" x1="-427.7603" y1="474.8828" x2="-427.7603" y2="475.4004" gradientTransform="matrix(6.5701 0 0 -6.5701 2832.511 3168.5281)">
	<stop  offset="0" style="stop-color:#A6694A"/>
	<stop  offset="1" style="stop-color:#4F2A1E"/>
	<a:midPointStop  offset="0" style="stop-color:#A6694A"/>
	<a:midPointStop  offset="0.5" style="stop-color:#A6694A"/>
	<a:midPointStop  offset="1" style="stop-color:#4F2A1E"/>
</linearGradient>
<circle id="Oval_3_" fill="url(#Oval_6_)" cx="22.084" cy="46.797" r="1.698"/>
<path id="Path_20_" fill="#1A1626" d="M21.235,46.766c0,1.175,1.699,1.175,1.699,0C22.935,45.675,21.235,45.675,21.235,46.766z"/>
<path id="Path_19_" fill="#AB968C" d="M20.977,46.29c0,0.493,0.712,0.493,0.712,0C21.688,45.833,20.977,45.833,20.977,46.29z"/>
<path id="Path_18_" fill="#45332C" d="M19.18,46.896c0.689-2.216,5.39-1.898,6.033-0.398C24.975,44.588,19.767,44.083,19.18,46.896z
	"/>
<linearGradient id="SVGID_1_" gradientUnits="userSpaceOnUse" x1="17.5171" y1="61.4893" x2="17.5171" y2="30.9727">
	<stop  offset="0.05" style="stop-color:#473834"/>
	<stop  offset="0.2266" style="stop-color:#594640"/>
	<stop  offset="0.5197" style="stop-color:#715950"/>
	<stop  offset="0.7" style="stop-color:#7A6056"/>
	<a:midPointStop  offset="0.05" style="stop-color:#473834"/>
	<a:midPointStop  offset="0.4" style="stop-color:#473834"/>
	<a:midPointStop  offset="0.7" style="stop-color:#7A6056"/>
</linearGradient>
<path fill="url(#SVGID_1_)" d="M25.965,33.622c0.857-1.224-6.403-3.809-13.258-2.063C5.86,33.128,2,43.387,2,50.096
	c0,4.497,3.621,10.358,10.344,11.394c-7.407-5.187-6.211-10.33-4.137-16.551c5.142-2.978,10.961-3.678,15-7.242
	c-0.518,1.553,2.221,3.51,3.62,7.242c2.126,5.668,3.22,11.4-4.139,16.551c6.208-1.035,10.346-6.896,10.346-11.394
	C33.034,44.421,28.71,32.829,25.965,33.622z"/>
<path fill="#473834" d="M3.233,49.075c4.736-6.307,20.078-5.879,22.731-15.453C20.814,41.657,4.527,43.013,3.233,49.075z"/>
<path fill="#473834" d="M51.654,61.489C62,57.351,60.966,47.523,60.966,47.523H32c0,0-1.034,9.827,9.31,13.966
	c0,0,2.069,0.518,5.172,0.518C49.586,62.007,51.654,61.489,51.654,61.489z"/>
<path fill="#FFCC66" d="M46.482,32.524c-7.506,0-11.121,6.113-10.67,13.973c0.093,1.579,0.532,3.857,1.075,5.811
	c1.125,4.06,7.065,8.146,9.595,8.146s8.469-4.087,9.596-8.146c0.542-1.953,0.981-4.231,1.075-5.811
	C57.604,38.638,53.99,32.524,46.482,32.524z"/>
<path fill="#D47706" d="M46.481,54.073c-1.759-0.773-1.772-0.031-4.488,0.151c1.02,1.157,1.771,2.646,4.487,2.646
	c3.12,0,3.647-1.689,4.492-2.646C48.254,54.042,48.242,53.3,46.481,54.073z"/>
<path fill="#FFFFFF" d="M42.809,54.513c1.772,1.846,5.597,1.821,7.348,0.002C47.427,54.808,45.539,54.808,42.809,54.513z"/>
<path fill="#966F42" d="M54.459,43.882c-1.631-0.973-4.557-1.092-5.713-0.429c-0.246,0.134-0.181,0.835,0.032,0.747
	c1.65-0.687,4.166-0.721,5.716,0.074C54.701,44.38,54.706,44.022,54.459,43.882z"/>
<path fill="#966F42" d="M38.506,43.882c1.631-0.973,4.556-1.092,5.715-0.429c0.246,0.134,0.18,0.835-0.033,0.747
	c-1.651-0.687-4.164-0.722-5.716,0.074C38.264,44.38,38.26,44.022,38.506,43.882z"/>
<path fill="#DB9D3A" d="M48.17,51.579c-0.179-0.125-0.598,0.068-1.688,0.068c-1.089,0-1.508-0.193-1.687-0.068
	c-0.215,0.15,0.126,0.831,1.687,0.831C48.043,52.41,48.385,51.731,48.17,51.579z"/>
<path id="Path_52_" fill="#FFFFFF" d="M44.813,46.831c0.064,0.496-0.273,1.084-1.207,1.525c-0.593,0.281-1.826,0.611-3.448-0.072
	c-0.726-0.307-1.435-1.26-1.37-1.787C39.666,44.841,43.99,44.598,44.813,46.831z"/>
<linearGradient id="Oval_7_" gradientUnits="userSpaceOnUse" x1="-422.0483" y1="474.8828" x2="-422.0483" y2="475.4004" gradientTransform="matrix(6.5701 0 0 -6.5701 2814.7805 3168.5281)">
	<stop  offset="0" style="stop-color:#A6694A"/>
	<stop  offset="1" style="stop-color:#4F2A1E"/>
	<a:midPointStop  offset="0" style="stop-color:#A6694A"/>
	<a:midPointStop  offset="0.5" style="stop-color:#A6694A"/>
	<a:midPointStop  offset="1" style="stop-color:#4F2A1E"/>
</linearGradient>
<circle id="Oval_2_" fill="url(#Oval_7_)" cx="41.878" cy="46.797" r="1.698"/>
<path id="Path_51_" fill="#1A1626" d="M41.029,46.766c0,1.175,1.699,1.175,1.699,0C42.729,45.675,41.029,45.675,41.029,46.766z"/>
<path id="Path_50_" fill="#AB968C" d="M40.771,46.29c0,0.493,0.713,0.493,0.713,0C41.483,45.833,40.771,45.833,40.771,46.29z"/>
<path id="Path_49_" fill="#45332C" d="M44.821,46.896c-0.69-2.217-5.394-1.89-6.034-0.398
	C39.024,44.588,44.233,44.083,44.821,46.896z"/>
<path id="Path_48_" fill="#FFFFFF" d="M48.152,46.831c-0.063,0.496,0.274,1.084,1.208,1.525c0.593,0.281,1.826,0.611,3.447-0.072
	c0.728-0.307,1.435-1.26,1.371-1.787C53.301,44.841,48.975,44.598,48.152,46.831z"/>
<linearGradient id="Oval_8_" gradientUnits="userSpaceOnUse" x1="-423.3516" y1="474.8828" x2="-423.3516" y2="475.4004" gradientTransform="matrix(6.5701 0 0 -6.5701 2832.511 3168.5281)">
	<stop  offset="0" style="stop-color:#A6694A"/>
	<stop  offset="1" style="stop-color:#4F2A1E"/>
	<a:midPointStop  offset="0" style="stop-color:#A6694A"/>
	<a:midPointStop  offset="0.5" style="stop-color:#A6694A"/>
	<a:midPointStop  offset="1" style="stop-color:#4F2A1E"/>
</linearGradient>
<circle id="Oval_1_" fill="url(#Oval_8_)" cx="51.049" cy="46.797" r="1.698"/>
<path id="Path_47_" fill="#1A1626" d="M50.2,46.766c0,1.175,1.699,1.175,1.699,0C51.899,45.675,50.2,45.675,50.2,46.766z"/>
<path id="Path_46_" fill="#AB968C" d="M49.941,46.29c0,0.493,0.713,0.493,0.713,0C50.654,45.833,49.941,45.833,49.941,46.29z"/>
<path id="Path_45_" fill="#45332C" d="M48.146,46.896c0.689-2.216,5.39-1.898,6.033-0.398C53.94,44.588,48.732,44.083,48.146,46.896
	z"/>
<linearGradient id="SVGID_2_" gradientUnits="userSpaceOnUse" x1="46.4824" y1="61.4893" x2="46.4824" y2="30.9727">
	<stop  offset="0.05" style="stop-color:#473834"/>
	<stop  offset="0.2266" style="stop-color:#594640"/>
	<stop  offset="0.5197" style="stop-color:#715950"/>
	<stop  offset="0.7" style="stop-color:#7A6056"/>
	<a:midPointStop  offset="0.05" style="stop-color:#473834"/>
	<a:midPointStop  offset="0.4" style="stop-color:#473834"/>
	<a:midPointStop  offset="0.7" style="stop-color:#7A6056"/>
</linearGradient>
<path fill="url(#SVGID_2_)" d="M54.931,33.622c0.857-1.224-6.403-3.809-13.258-2.063c-6.848,1.568-10.707,11.827-10.707,18.536
	c0,4.497,3.62,10.358,10.344,11.394c-7.408-5.187-6.211-10.33-4.137-16.551c5.142-2.978,10.961-3.678,15-7.242
	c-0.518,1.553,2.22,3.51,3.62,7.242c2.126,5.668,3.22,11.4-4.139,16.551C57.862,60.454,62,54.593,62,50.096
	C62,44.421,57.675,32.829,54.931,33.622z"/>
<path fill="#473834" d="M32.199,49.075c4.735-6.307,20.078-5.879,22.731-15.453C49.78,41.657,33.493,43.013,32.199,49.075z"/>
<linearGradient id="SVGID_3_" gradientUnits="userSpaceOnUse" x1="32.0005" y1="30.2734" x2="32.0005" y2="1.9932">
	<stop  offset="0" style="stop-color:#DB0100"/>
	<stop  offset="0.5836" style="stop-color:#F31317"/>
	<stop  offset="1" style="stop-color:#FF1C23"/>
	<a:midPointStop  offset="0" style="stop-color:#DB0100"/>
	<a:midPointStop  offset="0.4242" style="stop-color:#DB0100"/>
	<a:midPointStop  offset="1" style="stop-color:#FF1C23"/>
</linearGradient>
<path fill="url(#SVGID_3_)" d="M47.196,4.651c-2.037-2.059-5.235-2.769-8.049-2.645C36.475,2.125,33.416,3.594,32,5.988
	c-1.416-2.394-4.475-3.863-7.147-3.981c-2.813-0.124-6.012,0.585-8.049,2.645c-2.228,2.25-3.187,5.035-2.692,8.17
	c0.553,3.505,2.658,6.333,5.673,8.134c2.921,1.747,10.382,5.062,12.216,9.318c1.834-4.256,9.295-7.572,12.216-9.318
	c3.015-1.801,5.12-4.629,5.673-8.134C50.383,9.687,49.424,6.902,47.196,4.651z"/>
</svg>
