<?xml version="1.0" encoding="utf-8"?>
<!-- Generator: Adobe Illustrator 15.0.0, SVG Export Plug-In . SVG Version: 6.00 Build 0)  -->
<!DOCTYPE svg PUBLIC "-//W3C//DTD SVG 1.1//EN" "http://www.w3.org/Graphics/SVG/1.1/DTD/svg11.dtd" [
	<!ENTITY ns_flows "http://ns.adobe.com/Flows/1.0/">
	<!ENTITY ns_extend "http://ns.adobe.com/Extensibility/1.0/">
	<!ENTITY ns_ai "http://ns.adobe.com/AdobeIllustrator/10.0/">
	<!ENTITY ns_graphs "http://ns.adobe.com/Graphs/1.0/">
]>
<svg version="1.1" id="Layer_1" xmlns:x="&ns_extend;" xmlns:i="&ns_ai;" xmlns:graph="&ns_graphs;"
	 xmlns="http://www.w3.org/2000/svg" xmlns:xlink="http://www.w3.org/1999/xlink" xmlns:a="http://ns.adobe.com/AdobeSVGViewerExtensions/3.0/"
	 x="0px" y="0px" width="64px" height="64px" viewBox="0 0 64 64" enable-background="new 0 0 64 64" xml:space="preserve">
<linearGradient id="SVGID_1_" gradientUnits="userSpaceOnUse" x1="-149.3589" y1="94.3574" x2="-148.3521" y2="94.3574" gradientTransform="matrix(0.7071 0.7071 -0.7071 0.7071 179.9902 99.5209)">
	<stop  offset="0" style="stop-color:#5B666E"/>
	<stop  offset="0.3" style="stop-color:#525A64"/>
	<stop  offset="0.8392" style="stop-color:#3C3B49"/>
	<stop  offset="1" style="stop-color:#343040"/>
	<a:midPointStop  offset="0" style="stop-color:#5B666E"/>
	<a:midPointStop  offset="0.5765" style="stop-color:#5B666E"/>
	<a:midPointStop  offset="1" style="stop-color:#343040"/>
</linearGradient>
<path fill="url(#SVGID_1_)" d="M9.085,60.625c0.179-0.179-0.497-0.92-0.716-0.701c0,0-1.001,0.997-1.207,1.201
	c-0.485,0.487,0.226,1.198,0.712,0.712C8.059,61.653,9.085,60.625,9.085,60.625z"/>
<linearGradient id="SVGID_2_" gradientUnits="userSpaceOnUse" x1="-149.1147" y1="78.5703" x2="-148.575" y2="78.5703" gradientTransform="matrix(0.7071 0.7071 -0.7071 0.7071 179.9902 99.5209)">
	<stop  offset="0.0848" style="stop-color:#CFD8DD"/>
	<stop  offset="0.891" style="stop-color:#A0AEB4"/>
	<stop  offset="1" style="stop-color:#99A8AE"/>
	<a:midPointStop  offset="0.0848" style="stop-color:#CFD8DD"/>
	<a:midPointStop  offset="0.5197" style="stop-color:#CFD8DD"/>
	<a:midPointStop  offset="1" style="stop-color:#99A8AE"/>
</linearGradient>
<path fill="url(#SVGID_2_)" d="M30.076,39.432l-0.51-0.508c0,0-16.991,16.999-21.1,21.1c-0.248,0.25,0.261,0.758,0.51,0.509
	C13.097,56.416,30.076,39.432,30.076,39.432z"/>
<linearGradient id="SVGID_3_" gradientUnits="userSpaceOnUse" x1="-149.2153" y1="89.6855" x2="-148.4946" y2="89.6855" gradientTransform="matrix(0.7071 0.7071 -0.7071 0.7071 179.9902 99.5209)">
	<stop  offset="0" style="stop-color:#FF000E"/>
	<stop  offset="0.2335" style="stop-color:#FA000D"/>
	<stop  offset="0.5011" style="stop-color:#EC000A"/>
	<stop  offset="0.7844" style="stop-color:#D60005"/>
	<stop  offset="1" style="stop-color:#BF0000"/>
	<a:midPointStop  offset="0" style="stop-color:#FF000E"/>
	<a:midPointStop  offset="0.6788" style="stop-color:#FF000E"/>
	<a:midPointStop  offset="1" style="stop-color:#BF0000"/>
</linearGradient>
<path fill="url(#SVGID_3_)" d="M13.974,55.535c-0.168,0.168-0.648-0.37-0.516-0.502c0,0-3.729,3.728-4.668,4.667
	c-0.169,0.17,0.339,0.679,0.51,0.509C10.304,59.203,13.974,55.535,13.974,55.535z"/>
<linearGradient id="SVGID_4_" gradientUnits="userSpaceOnUse" x1="-149.2148" y1="71.8125" x2="-148.4946" y2="71.8125" gradientTransform="matrix(0.7071 0.7071 -0.7071 0.7071 179.9902 99.5209)">
	<stop  offset="0" style="stop-color:#FF000E"/>
	<stop  offset="0.2335" style="stop-color:#FA000D"/>
	<stop  offset="0.5011" style="stop-color:#EC000A"/>
	<stop  offset="0.7844" style="stop-color:#D60005"/>
	<stop  offset="1" style="stop-color:#BF0000"/>
	<a:midPointStop  offset="0" style="stop-color:#FF000E"/>
	<a:midPointStop  offset="0.6788" style="stop-color:#FF000E"/>
	<a:midPointStop  offset="1" style="stop-color:#BF0000"/>
</linearGradient>
<path fill="url(#SVGID_4_)" d="M26.612,42.897c-0.167,0.168-0.648-0.37-0.515-0.503c0,0-3.729,3.729-4.668,4.668
	c-0.169,0.17,0.339,0.678,0.51,0.509C22.942,46.565,26.612,42.897,26.612,42.897z"/>
<linearGradient id="SVGID_5_" gradientUnits="userSpaceOnUse" x1="-113.4004" y1="29.9316" x2="-111.292" y2="29.9316" gradientTransform="matrix(0.8192 0.5736 -0.5736 0.8192 140.7946 77.2603)">
	<stop  offset="0" style="stop-color:#5B666E"/>
	<stop  offset="0.3" style="stop-color:#525A64"/>
	<stop  offset="0.8392" style="stop-color:#3C3B49"/>
	<stop  offset="1" style="stop-color:#343040"/>
	<a:midPointStop  offset="0" style="stop-color:#5B666E"/>
	<a:midPointStop  offset="0.5765" style="stop-color:#5B666E"/>
	<a:midPointStop  offset="1" style="stop-color:#343040"/>
</linearGradient>
<path fill="url(#SVGID_5_)" d="M29.773,40.006c-0.211,0.236-1.021-0.571-0.784-0.781c1.394-1.23,2.722-2.508,3.923-3.92
	c0.969-1.052,1.836-0.187,0.784,0.781C32.28,37.285,31.003,38.613,29.773,40.006z"/>
<path fill="#FAC150" d="M40.714,22.717c0,0-1.464,2.039-2.546,4.31c-1.668,1.646-4.398,5.336-4.875,5.901
	c-0.461,0.549-1.982,1.925-2.131,2.441c-0.477,1.64-0.945,1.996-0.89,2.688l0.935-0.907c0,0,0.553-0.704,0.906-0.503
	c-0.928,1.285-0.309,2.179,0.004,1.676c0.804-1.297,1.543-1.879,1.53-2.941c-0.004-0.43,1.291-2.041,4.041-3.395
	c1.673-0.824,2.925-2.464,3.751-3.944c0.785-1.299,2.236-2.218,2.696-3.085C43.456,23.339,42.128,23.379,40.714,22.717z"/>
<path fill="#302C3B" d="M34.022,34.684c0.208,0.018,0.853-0.635,0.621-0.662c-2.56-0.289-2.749,0.16-3.013,0.662
	C31.63,34.684,32.318,34.541,34.022,34.684z"/>
<path fill="#FAC150" d="M39.34,16.557c1.133-0.54,1.458,0.451,1.533,0.866c0.25,1.365,5.359-0.194,4.785-1.762
	c-0.5-1.363,0.168-2.992,0.168-2.992C45.07,12.237,42.307,7.359,39.34,16.557z"/>
<path fill="#FFCC66" d="M40.265,3.039c-3.442,0.549-4.706,3.008-4.151,5.907c0.125,0.655-0.295,1.776-1.129,2.496
	c-0.303,0.261-0.332,0.609-0.184,0.841c0.291,0.455,0.929,0.458,1.195,0.63c0.597,0.38,0,0.8,0.448,1.248
	c0.204,0.204,0.788-0.067,0.171,1.015c0.688,0.502-0.459,1.711,1.309,1.897c0.928,0.098,4.852-2.115,5.342-2.877
	c0.514-0.802,0.393-2.283,0.393-2.283c2.643-0.762,3.576-3.07,3.006-5.484C45.869,3.053,42.496,2.682,40.265,3.039z"/>
<path fill="#DB9D3A" d="M36.444,14.161c0.323,0.198,0.183,0.51,0.183,0.51c-0.156,0-0.195,0.514,0.035,0.514
	c0.807,0,1.547-0.692,1.789-1.112C37.189,14.01,35.803,13.44,36.444,14.161z"/>
<path fill="#FFFFFF" d="M36.444,14.161c0,0,0.124,0.441,0.183,0.51c0.252,0,1.075-0.182,1.582-0.516L36.444,14.161z"/>
<linearGradient id="SVGID_6_" gradientUnits="userSpaceOnUse" x1="30.4229" y1="11.7256" x2="40.0654" y2="11.7256" gradientTransform="matrix(1 0 0 1 5.5732 -5.0161)">
	<stop  offset="0" style="stop-color:#473834"/>
	<stop  offset="0.0561" style="stop-color:#4B3B36"/>
	<stop  offset="0.6687" style="stop-color:#6D564D"/>
	<stop  offset="1" style="stop-color:#7A6056"/>
	<a:midPointStop  offset="0" style="stop-color:#473834"/>
	<a:midPointStop  offset="0.4303" style="stop-color:#473834"/>
	<a:midPointStop  offset="1" style="stop-color:#7A6056"/>
</linearGradient>
<path fill="url(#SVGID_6_)" d="M45.457,4.632c-2.447-3.683-8.943-1.454-9.402-0.553c-0.164,0.325,0.041,1.128,0.309,1.644
	c1.033,0,3.08-0.862,4.455-0.216c2.038,0.959-0.275,5.103,1.605,5.328C42.719,10.87,46.502,6.466,45.457,4.632z"/>
<linearGradient id="SVGID_7_" gradientUnits="userSpaceOnUse" x1="30.4814" y1="12.8457" x2="42.3799" y2="12.8457" gradientTransform="matrix(1 0 0 1 5.5732 -5.0161)">
	<stop  offset="0" style="stop-color:#7A6056"/>
	<stop  offset="0.3119" style="stop-color:#775D54"/>
	<stop  offset="0.5686" style="stop-color:#6D554D"/>
	<stop  offset="0.8048" style="stop-color:#5B4842"/>
	<stop  offset="1" style="stop-color:#473834"/>
	<a:midPointStop  offset="0" style="stop-color:#7A6056"/>
	<a:midPointStop  offset="0.7455" style="stop-color:#7A6056"/>
	<a:midPointStop  offset="1" style="stop-color:#473834"/>
</linearGradient>
<path fill="url(#SVGID_7_)" d="M47.1,4.566C46.398,3.382,44.982,1.992,41.768,2c-2.903,0.006-5.254,1.178-5.713,2.079
	c1.066,0,4.305-1.359,5.996-0.095c2.633,1.968,0.338,4.641,0.959,6.321c0.971,2.63,2.544,3.354,2.544,3.354
	C47.574,12.199,48.912,7.63,47.1,4.566z"/>
<path fill="#DB9D3A" d="M34.809,12.287c0.238,0.634,1.764,0.771,2.251,0C36.256,12.868,34.67,11.918,34.809,12.287z"/>
<path fill="#FFCC66" d="M43.67,8.704c-1.285,0.267-1.686,3.169-0.723,3.799c0.135,0.089,0.838,0.167,1.211-0.543
	c0.205-0.394,0.943-0.794,1.047-1.565C45.336,9.404,44.947,8.44,43.67,8.704z"/>
<path id="Path_449_" fill="#DB9D3A" d="M43.738,9.243c-0.327,0.111-0.635,0.488-0.729,1.063c1.158-0.313,1.105,0.987,0.076,1.142
	c0.033,0.126,0.072,0.255,0.123,0.388c0.41-0.523,0.951-0.402,1.318-1.151C44.859,10.008,44.547,8.967,43.738,9.243z"/>
<path fill="#FFFFFF" d="M38.936,9.814c0.018,0.186-0.569,0.854-1.316,0.917c-0.426,0.036-0.578-0.293-0.674-0.649
	C36.854,8.67,38.516,9.172,38.936,9.814z"/>
<linearGradient id="Path_1_" gradientUnits="userSpaceOnUse" x1="31.939" y1="15.6904" x2="31.939" y2="14.2031" gradientTransform="matrix(1 0 0 1 5.5732 -5.0161)">
	<stop  offset="0" style="stop-color:#A6694A"/>
	<stop  offset="1" style="stop-color:#4F2A1E"/>
	<a:midPointStop  offset="0" style="stop-color:#A6694A"/>
	<a:midPointStop  offset="0.5" style="stop-color:#A6694A"/>
	<a:midPointStop  offset="1" style="stop-color:#4F2A1E"/>
</linearGradient>
<path id="Path_448_" fill="url(#Path_1_)" d="M36.916,9.904c0,1.027,1.191,1.028,1.191,0C38.107,8.948,36.916,8.948,36.916,9.904z"
	/>
<path id="Path_447_" fill="#1A1626" d="M37.041,9.858c0,0.513,0.594,0.513,0.594,0C37.635,9.379,37.041,9.379,37.041,9.858z"/>
<path id="Path_446_" fill="#AB968C" d="M37.408,9.649c0,0.215,0.346,0.215,0.346,0C37.754,9.448,37.408,9.448,37.408,9.649z"/>
<path fill="#DB9D3A" d="M38.936,9.814c-0.32-0.642-1.916-1.109-1.959-0.242C37.201,8.99,38.385,9.309,38.936,9.814z"/>
<path id="Path_445_" fill="#966F42" d="M39.241,8.353c-0.731-0.457-2.134-0.479-2.655-0.161c-0.113,0.062-0.039,0.494,0.055,0.453
	c0.729-0.339,1.902-0.347,2.582,0.029C39.314,8.723,39.352,8.417,39.241,8.353z"/>
<path fill="#6E8189" d="M25.379,55.635c0,0-0.598,0.072-0.293,0.34C28.964,59.367,34.033,62,34.033,62
	c0.293-0.113,0.289-0.443,0.289-0.443L25.379,55.635z"/>
<path fill="#99A8AE" d="M33.379,56.982c-4.374-1.709-7.331-2.521-8-1.348c4.912,3.92,8.943,5.922,8.943,5.922
	C36.42,59.691,35.213,58.066,33.379,56.982z"/>
<path fill="#1A1626" d="M28.695,55.396c0.387,1.219,0.861,1.662,1.217,1.143c0.334,0.682,0.809,0.527,0.984,0.199
	c0.447,0.566,0.934,0.156,0.555-0.793C31.22,55.428,28.591,55.068,28.695,55.396z"/>
<path fill="#6E8189" d="M49.086,61.557c0,0-0.234,0.307,0.088,0.443C53.25,61.695,57,54.586,57,54.586
	c0-0.283-0.264-0.453-0.264-0.453L49.086,61.557z"/>
<path fill="#99A8AE" d="M52.609,54.711c-3.217,4.313-3.801,5.809-3.523,6.846c3.916-0.408,7.65-7.424,7.65-7.424
	C54.764,50.883,53.178,53.949,52.609,54.711z"/>
<path fill="#1A1626" d="M49.943,58.541c1.266-0.021,1.832-0.352,1.449-0.846c0.748-0.125,0.746-0.629,0.49-0.896
	c0.672-0.266,0.432-0.855-0.576-0.764C50.746,56.109,49.602,58.547,49.943,58.541z"/>
<path fill="#1A1626" d="M46.455,31.766c-8.221-1.226-8.197,2.775-8.197,2.775c1.205,6.002,3.934,13.297,4.922,14.543
	c0.828,1.041,4.754,3.682,7.836,7.32c2.156-1.021,6.002-2.369,4.951-3.396c-3.998-3.91-7.846-7.383-7.846-7.383
	C45.389,41.207,45.244,35.92,46.455,31.766z"/>
<path fill="#302C3B" d="M46.455,31.766c0,0-5.223-2.567-7.162,2.238c-0.664,4.633-4.568,9.125-5.252,10.58
	c-0.746,1.59-1.354,6.998-3.338,10.943c2.234,1.801,4.307,6.086,4.727,4.73c1.865-6.021,4.059-13.422,4.059-13.422
	C45.352,38.709,48.748,39.146,46.455,31.766z"/>
<path fill="#3AB0A2" d="M46.676,32.205c0,0-3.967,0.166-8.418,2.416c-1.344-5.856-1.198-14.231,2.561-17.419
	c0.752,1.48,3.496-1.109,4.84-1.541C50.716,20.431,45.391,25.603,46.676,32.205z"/>
<path fill="#FAC150" d="M51.51,25.817c-0.179-0.502-1.192-2.333-2.214-4.131c-1.165,0.574-2.312,1.177-3.425,1.816
	c0.998,1.364,2.025,2.813,2.568,3.709c0.177,2.477,1.008,4.95,0.734,7.856c-0.125,1.258-0.971,0.501-1.674,3.141
	c-0.111,0.414,0.844,0.359,1.154-0.592c0.967,0.398-1.076,3.639,0.393,3.045c0.531,0.156,1.891-0.422,2.453-2.422
	c0.09-0.322,0.141-2.746,0.076-3.07C51.33,33.923,51.829,26.702,51.51,25.817z"/>
<path fill="#DB9D3A" d="M49.781,38.865c0,0-0.248,1.307-0.734,1.797C49.703,40.256,49.781,38.865,49.781,38.865z"/>
<path fill="#DB9D3A" d="M50.594,38.471c0,0-0.326,1.592-0.813,2.083C50.438,40.146,50.594,38.471,50.594,38.471z"/>
<path fill="#DB9D3A" d="M51.115,38.381c0,0-0.17,1.217-0.656,1.707C51.115,39.683,51.115,38.381,51.115,38.381z"/>
<path fill="#25A898" d="M50.364,23.07c-0.809-1.517-1.948-3.49-3.314-5.622c-1.472-2.295-4.94-0.164-3.749,2.302
	c0.646,1.34,1.678,3.123,3.318,5.51C47.783,24.432,49.043,23.695,50.364,23.07z"/>
</svg>
