<?xml version="1.0" encoding="utf-8"?>
<!-- Generator: Adobe Illustrator 15.0.0, SVG Export Plug-In . SVG Version: 6.00 Build 0)  -->
<!DOCTYPE svg PUBLIC "-//W3C//DTD SVG 1.1//EN" "http://www.w3.org/Graphics/SVG/1.1/DTD/svg11.dtd" [
	<!ENTITY ns_flows "http://ns.adobe.com/Flows/1.0/">
	<!ENTITY ns_extend "http://ns.adobe.com/Extensibility/1.0/">
	<!ENTITY ns_ai "http://ns.adobe.com/AdobeIllustrator/10.0/">
	<!ENTITY ns_graphs "http://ns.adobe.com/Graphs/1.0/">
]>
<svg version="1.1" id="Layer_1" xmlns:x="&ns_extend;" xmlns:i="&ns_ai;" xmlns:graph="&ns_graphs;"
	 xmlns="http://www.w3.org/2000/svg" xmlns:xlink="http://www.w3.org/1999/xlink" xmlns:a="http://ns.adobe.com/AdobeSVGViewerExtensions/3.0/"
	 x="0px" y="0px" width="64px" height="64px" viewBox="0 0 64 64" enable-background="new 0 0 64 64" xml:space="preserve">
<path fill="#1A1714" d="M35.582,50.742c15.168-6.066,13.652-20.476,13.652-20.476H6.768c0,0-1.518,14.41,13.648,20.476
	c0,0,3.035,0.758,7.582,0.758C32.551,51.5,35.582,50.742,35.582,50.742z"/>
<linearGradient id="SVGID_1_" gradientUnits="userSpaceOnUse" x1="43.166" y1="51.498" x2="43.166" y2="6.1138">
	<stop  offset="0.05" style="stop-color:#1A1714"/>
	<stop  offset="0.112" style="stop-color:#1F1B18"/>
	<stop  offset="0.4761" style="stop-color:#37322C"/>
	<stop  offset="0.7" style="stop-color:#403A33"/>
	<a:midPointStop  offset="0.05" style="stop-color:#1A1714"/>
	<a:midPointStop  offset="0.4" style="stop-color:#1A1714"/>
	<a:midPointStop  offset="0.7" style="stop-color:#403A33"/>
</linearGradient>
<path fill="url(#SVGID_1_)" d="M43.334,31.804c1.551,6.532,0.732,12.999-7.752,18.938c9.102-1.518,15.168-10.111,15.168-16.705
	L43.334,31.804z"/>
<linearGradient id="SVGID_2_" gradientUnits="userSpaceOnUse" x1="1767.9795" y1="51.498" x2="1767.9795" y2="6.1138" gradientTransform="matrix(-1 0 0 1 1780.8145 0)">
	<stop  offset="0.05" style="stop-color:#1A1714"/>
	<stop  offset="0.112" style="stop-color:#1F1B18"/>
	<stop  offset="0.4761" style="stop-color:#37322C"/>
	<stop  offset="0.7" style="stop-color:#403A33"/>
	<a:midPointStop  offset="0.05" style="stop-color:#1A1714"/>
	<a:midPointStop  offset="0.4" style="stop-color:#1A1714"/>
	<a:midPointStop  offset="0.7" style="stop-color:#403A33"/>
</linearGradient>
<path fill="url(#SVGID_2_)" d="M12.668,31.804c-1.553,6.532-0.734,12.999,7.75,18.938C11.317,49.225,5.25,40.631,5.25,34.037
	L12.668,31.804z"/>
<path fill="#302C3B" d="M8.254,52.752c2.402-1.365,12.363-4.969,12.363-4.969h14.839c0,0,9.955,3.596,12.344,4.965
	C51.27,54.732,52,62,52,62H4C4,62,4.774,54.729,8.254,52.752z"/>
<polygon fill="#302116" points="20.5,49.947 28,54.779 35.5,49.947 35.5,41.912 20.5,41.912 "/>
<path fill="#1A1626" d="M39.66,57.369c-0.193-0.01-0.457,1.83-0.697,4.631h0.941C39.939,59.219,39.857,57.381,39.66,57.369"/>
<path fill="#1A1626" d="M13.079,55.703c-0.277,0.018-0.396,2.582-0.334,6.297h1.289C13.733,58.256,13.364,55.688,13.079,55.703"/>
<path fill="#1A1626" d="M36.482,62c-0.037-1.811-0.166-2.967-0.371-2.98c-0.209-0.014-0.455,1.148-0.67,2.98H36.482z"/>
<path fill="#1A1626" d="M42.92,55.703c-0.283-0.016-0.654,2.553-0.955,6.297h1.289C43.316,58.285,43.199,55.721,42.92,55.703"/>
<path fill="#1A1626" d="M16.336,57.369c-0.193,0.012-0.277,1.85-0.24,4.631h0.939C16.797,59.199,16.536,57.359,16.336,57.369"/>
<path fill="#1A1626" d="M19.889,59.02c-0.207,0.014-0.336,1.17-0.371,2.98h1.041C20.342,60.168,20.098,59.006,19.889,59.02"/>
<path fill="#1A1626" d="M28,62c-6.836,0-8.127-11.402-8.178-11.889l1.082-0.152C20.917,50.066,22.129,60.74,28,60.74
	c5.871,0,7.082-10.674,7.093-10.781l1.082,0.152C36.125,50.598,34.832,62,28,62"/>
<path fill="#E6EBEF" d="M28,51.664h-5.455c0,0,0.99,7.557,5.455,7.557s5.453-7.557,5.453-7.557H28z"/>
<path fill="#B3C2C6" d="M24.036,56.35c0,0,1.559-4.686,3.988-4.686s3.941,4.686,3.941,4.686s1.488-2.797,1.488-4.686H22.545
	C22.545,51.664,22.692,53.766,24.036,56.35"/>
<path fill="#FFFFFF" d="M35.5,46.41c-0.705,4.225-7.5,5.254-7.5,5.254c2.545,0.861,6.351,6.518,6.351,6.518
	C37.865,52.213,35.5,46.41,35.5,46.41z"/>
<path fill="#FFFFFF" d="M20.5,46.41c0.703,4.225,7.5,5.254,7.5,5.254c-2.547,0.861-6.352,6.518-6.352,6.518
	C18.135,52.213,20.5,46.41,20.5,46.41z"/>
<path fill="#FFFFFF" d="M27.434,57.078c0,0.764,1.133,0.764,1.133,0S27.434,56.314,27.434,57.078z"/>
<path fill="#FFFFFF" d="M27.434,54.141c0,0.764,1.133,0.764,1.133,0S27.434,53.377,27.434,54.141z"/>
<polygon fill="#9E6C49" points="47.506,62 50.133,50.686 48.662,50.303 44.943,62 "/>
<path fill="#9E6C49" d="M58.236,41.314l-1.473-0.381l-0.215,0.773c-1.152,0.764-2.254,2.457-2.836,4.576
	c-0.586,2.127-0.5,4.131,0.105,5.352l-0.213,0.773l1.473,0.385c1.627,0.424,3.65-1.799,4.523-4.969
	C60.475,44.656,59.861,41.74,58.236,41.314"/>
<path fill="#B47D56" d="M58.129,47.439c-0.871,3.17-2.896,5.395-4.523,4.969c-1.625-0.424-2.238-3.336-1.365-6.506
	c0.871-3.168,2.896-5.393,4.523-4.969C58.389,41.357,59.002,44.268,58.129,47.439"/>
<polygon fill="#9E6C49" points="53.803,51.691 43.496,49.002 46.258,38.961 56.566,41.652 "/>
<path fill="#785647" d="M46.242,39.016l-2.732,9.93c0.014,0.021,0.023,0.047,0.033,0.068l2.85,0.744
	c1.176-0.742,2.307-2.463,2.902-4.623c0.594-2.162,0.498-4.203-0.141-5.418l-2.85-0.748C46.283,38.986,46.264,39.004,46.242,39.016"
	/>
<path fill="#9E6C49" d="M47.191,38.432l-1.475-0.379l-0.211,0.773c-1.152,0.762-2.254,2.457-2.84,4.576
	c-0.582,2.125-0.498,4.129,0.109,5.35l-0.213,0.773l1.473,0.385c1.627,0.424,3.65-1.799,4.523-4.969
	C49.43,41.773,48.818,38.857,47.191,38.432"/>
<path fill="#B47D56" d="M47.086,44.557c-0.873,3.17-2.896,5.395-4.523,4.969c-1.627-0.424-2.24-3.336-1.367-6.504
	c0.871-3.17,2.896-5.396,4.523-4.969C47.346,38.477,47.955,41.387,47.086,44.557"/>
<path fill="#9E6C49" d="M57.393,47.248c-0.762,2.773-2.369,4.762-3.59,4.443c-1.219-0.318-1.59-2.824-0.828-5.596
	c0.764-2.773,2.371-4.764,3.592-4.443C57.785,41.969,58.156,44.475,57.393,47.248"/>
<path fill="#785647" d="M50.859,50.924L50.859,50.924c-0.109,0.393-0.529,0.629-0.936,0.523l-1.471-0.383
	c-0.406-0.105-0.648-0.516-0.539-0.91L50.859,50.924z"/>
<path fill="#614A36" d="M28,8.276c-11.004,0-16.305,8.962-15.643,20.485c0.135,2.315,0.779,5.657,1.574,8.52
	C15.583,43.232,24.292,49.225,28,49.225c3.707,0,12.416-5.992,14.068-11.943c0.795-2.863,1.439-6.205,1.576-8.52
	C44.305,17.238,39.008,8.276,28,8.276z"/>
<path fill="#472B27" d="M27.999,39.869c-2.578-1.133-2.598-0.045-6.58,0.221c1.494,1.699,2.596,3.881,6.58,3.881
	c4.574,0,5.345-2.479,6.583-3.881C30.598,39.824,30.581,38.736,27.999,39.869z"/>
<path fill="#FFFFFF" d="M22.614,40.514c2.6,2.705,8.205,2.67,10.773,0.002C29.385,40.945,26.618,40.945,22.614,40.514z"/>
<path fill="#403229" d="M39.693,24.927c-2.391-1.425-6.68-1.601-8.375-0.629c-0.359,0.196-0.264,1.226,0.047,1.097
	c2.419-1.008,6.109-1.058,8.38,0.108C40.049,25.657,40.057,25.134,39.693,24.927z"/>
<path fill="#403229" d="M16.305,24.927c2.391-1.425,6.68-1.601,8.379-0.629c0.361,0.196,0.264,1.226-0.049,1.097
	c-2.422-1.008-6.105-1.06-8.379,0.108C15.95,25.657,15.944,25.134,16.305,24.927z"/>
<path fill="#302116" d="M30.475,36.213c-0.264-0.184-0.877,0.1-2.477,0.1c-1.596,0-2.211-0.283-2.473-0.1
	c-0.314,0.221,0.186,1.217,2.473,1.217C30.288,37.43,30.79,36.436,30.475,36.213z"/>
<path id="Path_3138_" fill="#FFFFFF" d="M25.553,29.25c0.092,0.727-0.402,1.591-1.771,2.238c-0.869,0.411-2.678,0.896-5.055-0.107
	c-1.064-0.448-2.104-1.847-2.01-2.62C18.006,26.333,24.346,25.977,25.553,29.25z"/>
<linearGradient id="Oval_1_" gradientUnits="userSpaceOnUse" x1="-425.188" y1="477.4404" x2="-425.188" y2="478.1992" gradientTransform="matrix(6.5701 0 0 -6.5701 2814.7805 3168.5281)">
	<stop  offset="0" style="stop-color:#A6694A"/>
	<stop  offset="1" style="stop-color:#4F2A1E"/>
	<a:midPointStop  offset="0" style="stop-color:#A6694A"/>
	<a:midPointStop  offset="0.5" style="stop-color:#A6694A"/>
	<a:midPointStop  offset="1" style="stop-color:#4F2A1E"/>
</linearGradient>
<circle id="Oval_480_" fill="url(#Oval_1_)" cx="21.25" cy="29.201" r="2.49"/>
<path id="Path_3137_" fill="#1A1626" d="M20.006,29.156c0,1.723,2.49,1.723,2.49,0C22.497,27.556,20.006,27.556,20.006,29.156z"/>
<path id="Path_3136_" fill="#AB968C" d="M19.627,28.458c0,0.723,1.043,0.723,1.043,0C20.67,27.789,19.627,27.789,19.627,28.458z"/>
<path id="Path_3135_" fill="#45332C" d="M25.565,29.346c-1.012-3.251-7.908-2.771-8.848-0.585
	C17.065,25.962,24.702,25.223,25.565,29.346z"/>
<path id="Path_3134_" fill="#FFFFFF" d="M30.45,29.25c-0.094,0.727,0.4,1.591,1.77,2.238c0.869,0.411,2.677,0.896,5.054-0.107
	c1.066-0.448,2.104-1.847,2.01-2.62C37.996,26.333,31.655,25.977,30.45,29.25z"/>
<linearGradient id="Oval_2_" gradientUnits="userSpaceOnUse" x1="-425.8403" y1="477.4404" x2="-425.8403" y2="478.1992" gradientTransform="matrix(6.5701 0 0 -6.5701 2832.511 3168.5281)">
	<stop  offset="0" style="stop-color:#A6694A"/>
	<stop  offset="1" style="stop-color:#4F2A1E"/>
	<a:midPointStop  offset="0" style="stop-color:#A6694A"/>
	<a:midPointStop  offset="0.5" style="stop-color:#A6694A"/>
	<a:midPointStop  offset="1" style="stop-color:#4F2A1E"/>
</linearGradient>
<circle id="Oval_479_" fill="url(#Oval_2_)" cx="34.695" cy="29.201" r="2.49"/>
<path id="Path_3133_" fill="#1A1626" d="M33.451,29.156c0,1.723,2.492,1.723,2.492,0C35.943,27.556,33.451,27.556,33.451,29.156z"/>
<path id="Path_3132_" fill="#AB968C" d="M33.072,28.458c0,0.723,1.043,0.723,1.043,0C34.115,27.789,33.072,27.789,33.072,28.458z"/>
<path id="Path_3131_" fill="#45332C" d="M30.438,29.346c1.012-3.249,7.902-2.784,8.845-0.585
	C38.934,25.962,31.299,25.223,30.438,29.346z"/>
<linearGradient id="SVGID_3_" gradientUnits="userSpaceOnUse" x1="28.0005" y1="51.4971" x2="28.0005" y2="6.1131">
	<stop  offset="0.05" style="stop-color:#1A1714"/>
	<stop  offset="0.112" style="stop-color:#1F1B18"/>
	<stop  offset="0.4761" style="stop-color:#37322C"/>
	<stop  offset="0.7" style="stop-color:#403A33"/>
	<a:midPointStop  offset="0.05" style="stop-color:#1A1714"/>
	<a:midPointStop  offset="0.4" style="stop-color:#1A1714"/>
	<a:midPointStop  offset="0.7" style="stop-color:#403A33"/>
</linearGradient>
<path fill="url(#SVGID_3_)" d="M40.387,9.884c1.256-1.794-9.388-5.582-19.437-3.023C10.911,9.16,5.25,24.201,5.25,34.037
	c0.898,0.713,6.396-1.064,7.418-2.233c0.416-1.721,1.07-3.492,1.682-5.328c7.539-4.365,16.07-5.393,21.992-10.617
	c-0.758,2.275,3.256,5.145,5.309,10.617c0.666,1.775,1.262,3.554,1.684,5.328c1.674,1.542,5.014,2.268,7.416,2.233
	C50.75,25.717,44.41,8.723,40.387,9.884z"/>
<path fill="#1A1714" d="M7.059,32.542c6.943-9.247,29.437-8.62,33.328-22.657C32.834,21.666,8.956,23.653,7.059,32.542z"/>
</svg>
