<?xml version="1.0" encoding="utf-8"?>
<!-- Generator: Adobe Illustrator 15.0.0, SVG Export Plug-In . SVG Version: 6.00 Build 0)  -->
<!DOCTYPE svg PUBLIC "-//W3C//DTD SVG 1.1//EN" "http://www.w3.org/Graphics/SVG/1.1/DTD/svg11.dtd" [
	<!ENTITY ns_flows "http://ns.adobe.com/Flows/1.0/">
	<!ENTITY ns_extend "http://ns.adobe.com/Extensibility/1.0/">
	<!ENTITY ns_ai "http://ns.adobe.com/AdobeIllustrator/10.0/">
	<!ENTITY ns_graphs "http://ns.adobe.com/Graphs/1.0/">
]>
<svg version="1.1" id="Layer_1" xmlns:x="&ns_extend;" xmlns:i="&ns_ai;" xmlns:graph="&ns_graphs;"
	 xmlns="http://www.w3.org/2000/svg" xmlns:xlink="http://www.w3.org/1999/xlink" xmlns:a="http://ns.adobe.com/AdobeSVGViewerExtensions/3.0/"
	 x="0px" y="0px" width="64px" height="64px" viewBox="0 0 64 64" enable-background="new 0 0 64 64" xml:space="preserve">
<path fill="#302C3B" d="M6.787,52.752c2.701-1.365,13.908-4.969,13.908-4.969H37.39c0,0,11.199,3.596,13.885,4.965
	C55.179,54.732,55.999,62,55.999,62H2C2,62,2.871,54.729,6.787,52.752z"/>
<polygon fill="#E6B045" points="20,49.947 29,54.779 37.999,49.947 37.999,41.912 20,41.912 "/>
<path fill="#1A1626" d="M42.118,57.369c-0.219-0.01-0.516,1.83-0.785,4.631h1.059C42.431,59.219,42.339,57.381,42.118,57.369"/>
<path fill="#1A1626" d="M12.212,55.703C11.9,55.721,11.767,58.285,11.837,62h1.449C12.949,58.256,12.533,55.688,12.212,55.703"/>
<path fill="#1A1626" d="M38.542,62c-0.041-1.811-0.186-2.967-0.418-2.98c-0.234-0.014-0.512,1.148-0.754,2.98H38.542z"/>
<path fill="#1A1626" d="M45.784,55.703c-0.318-0.016-0.736,2.553-1.074,6.297h1.451C46.231,58.285,46.099,55.721,45.784,55.703"/>
<path fill="#1A1626" d="M15.878,57.369c-0.219,0.012-0.313,1.85-0.271,4.631h1.059C16.396,59.199,16.101,57.359,15.878,57.369"/>
<path fill="#1A1626" d="M19.875,59.02c-0.232,0.014-0.377,1.17-0.418,2.98h1.172C20.384,60.168,20.109,59.006,19.875,59.02"/>
<path fill="#1A1626" d="M29,62c-7.689,0-9.143-11.402-9.199-11.889l1.217-0.152C21.031,50.066,22.396,60.74,29,60.74
	c6.605,0,7.968-10.674,7.98-10.781l1.219,0.152C38.14,50.598,36.687,62,29,62"/>
<path fill="#E6EBEF" d="M29,51.664h-6.137c0,0,1.113,7.557,6.137,7.557c5.023,0,6.134-7.557,6.134-7.557H29z"/>
<path fill="#B3C2C6" d="M24.539,56.35c0,0,1.754-4.686,4.488-4.686c2.732,0,4.433,4.686,4.433,4.686s1.674-2.797,1.674-4.686H22.863
	C22.863,51.664,23.029,53.766,24.539,56.35"/>
<path id="Path_44_" fill="#FFCC66" d="M45.44,25.394c-2.545,0.307-4.383,8.815-2.781,11.061c0.225,0.313,1.535,0.814,2.508-1.168
	c0.539-1.098,2.092-2.014,2.574-4.278C48.358,28.109,47.974,25.087,45.44,25.394z"/>
<path id="Path_43_" fill="#FFCC66" d="M12.56,25.394c2.545,0.307,4.383,8.815,2.781,11.061c-0.225,0.313-1.535,0.814-2.51-1.168
	c-0.537-1.098-2.092-2.014-2.572-4.278C9.64,28.109,10.027,25.087,12.56,25.394z"/>
<path id="Path_42_" fill="#DB9D3A" d="M45.372,27.023c-0.664,0.209-1.389,1.221-1.781,2.898c2.32-0.498,1.74,3.362-0.277,3.434
	c0.02,0.389,0.045,0.787,0.094,1.207c0.971-1.408,1.959-0.844,2.938-2.94C47.226,29.734,47.017,26.509,45.372,27.023z"/>
<path id="Path_41_" fill="#DB9D3A" d="M14.41,29.917c-0.395-1.676-1.117-2.686-1.781-2.895c-1.643-0.514-1.855,2.711-0.973,4.6
	c0.979,2.096,1.967,1.532,2.939,2.94c0.047-0.42,0.074-0.82,0.09-1.209C12.689,33.26,12.117,29.447,14.41,29.917z"/>
<path id="Path_40_" fill="#FFCC66" d="M29,9.034c-11.027,0-16.34,8.329-15.676,19.909c0.133,2.33,1.582,9.93,2.947,12.657
	c1.398,2.789,6.074,7.09,8.938,7.98c1.811,0.561,5.773,0.561,7.582,0c2.865-0.891,7.542-5.191,8.939-7.98
	c1.369-2.727,2.814-10.325,2.945-12.657C45.343,17.363,40.03,9.034,29,9.034z"/>
<path id="Path_39_" fill="#966F42" d="M40.981,24.544c-2.521-1.336-7.348-1.4-9.146-0.469c-0.387,0.178-0.131,1.441,0.193,1.322
	c2.503-0.99,6.546-1.012,8.892,0.084C41.233,25.625,41.364,24.73,40.981,24.544z"/>
<path id="Path_38_" fill="#966F42" d="M17.019,24.544c2.521-1.336,7.346-1.4,9.146-0.469c0.385,0.178,0.131,1.441-0.193,1.322
	c-2.51-0.99-6.547-1.012-8.895,0.084C16.767,25.625,16.638,24.73,17.019,24.544z"/>
<path id="Path_37_" fill="#DB9D3A" d="M31.976,36.109c-0.314-0.219-1.053,0.119-2.977,0.119c-1.92,0-2.66-0.338-2.975-0.119
	C25.648,36.375,26.248,37.57,29,37.57C31.753,37.57,32.355,36.375,31.976,36.109z"/>
<path id="Path_36_" fill="#DB9D3A" d="M29,40.646c-2.479-0.729-6.154,0.346-6.154,0.346c1.398,1.521,2.424,3.494,6.154,3.494
	c4.275,0,5.001-2.24,6.156-3.494C35.155,40.992,31.48,39.912,29,40.646z"/>
<path id="Path_35_" fill="#FFFFFF" d="M23.767,41.25c2.602,2.176,7.852,2.191,10.466,0C31.462,41.367,26.558,41.369,23.767,41.25z"
	/>
<path id="Path_34_" fill="#FFFFFF" d="M26.546,29.085c0.094,0.73-0.402,1.594-1.773,2.242c-0.871,0.412-2.686,0.896-5.066-0.107
	c-1.066-0.449-2.107-1.848-2.014-2.623C18.984,26.167,25.337,25.812,26.546,29.085z"/>
<linearGradient id="Oval_1_" gradientUnits="userSpaceOnUse" x1="-425.0386" y1="477.4648" x2="-425.0386" y2="478.2236" gradientTransform="matrix(6.5701 0 0 -6.5701 2814.7805 3168.5281)">
	<stop  offset="0" style="stop-color:#A6694A"/>
	<stop  offset="1" style="stop-color:#4F2A1E"/>
	<a:midPointStop  offset="0" style="stop-color:#A6694A"/>
	<a:midPointStop  offset="0.5" style="stop-color:#A6694A"/>
	<a:midPointStop  offset="1" style="stop-color:#4F2A1E"/>
</linearGradient>
<circle id="Oval_6_" fill="url(#Oval_1_)" cx="22.236" cy="29.039" r="2.492"/>
<path id="Path_33_" fill="#1A1626" d="M20.988,28.992c0,1.725,2.496,1.725,2.496,0C23.484,27.392,20.988,27.392,20.988,28.992z"/>
<path id="Path_32_" fill="#AB968C" d="M20.609,28.292c0,0.723,1.045,0.723,1.045,0C21.654,27.625,20.609,27.625,20.609,28.292z"/>
<path id="Path_31_" fill="#DB9D3A" d="M26.558,29.181c-1.014-3.25-7.926-2.77-8.865-0.584
	C18.041,25.798,25.695,25.058,26.558,29.181z"/>
<path id="Path_30_" fill="#FFFFFF" d="M31.455,29.085c-0.094,0.73,0.4,1.594,1.773,2.242c0.871,0.412,2.684,0.896,5.064-0.107
	c1.07-0.449,2.109-1.848,2.016-2.623C39.017,26.167,32.662,25.812,31.455,29.085z"/>
<linearGradient id="Oval_2_" gradientUnits="userSpaceOnUse" x1="-425.6865" y1="477.4648" x2="-425.6865" y2="478.2236" gradientTransform="matrix(6.5701 0 0 -6.5701 2832.511 3168.5281)">
	<stop  offset="0" style="stop-color:#A6694A"/>
	<stop  offset="1" style="stop-color:#4F2A1E"/>
	<a:midPointStop  offset="0" style="stop-color:#A6694A"/>
	<a:midPointStop  offset="0.5" style="stop-color:#A6694A"/>
	<a:midPointStop  offset="1" style="stop-color:#4F2A1E"/>
</linearGradient>
<circle id="Oval_5_" fill="url(#Oval_2_)" cx="35.708" cy="29.039" r="2.492"/>
<path id="Path_29_" fill="#1A1626" d="M34.462,28.992c0,1.725,2.496,1.725,2.496,0C36.958,27.392,34.462,27.392,34.462,28.992z"/>
<path id="Path_28_" fill="#AB968C" d="M34.081,28.292c0,0.723,1.047,0.723,1.047,0C35.128,27.625,34.081,27.625,34.081,28.292z"/>
<path id="Path_27_" fill="#DB9D3A" d="M31.443,29.181c1.012-3.248,7.919-2.783,8.865-0.584
	C39.956,25.798,32.306,25.058,31.443,29.181z"/>
<path fill="#7A6056" d="M43.085,11.793C40.671,8.532,36.253,6,29,6c-7.252,0-11.668,2.532-14.082,5.793
	C11.5,16.41,46.501,16.41,43.085,11.793z"/>
<linearGradient id="SVGID_1_" gradientUnits="userSpaceOnUse" x1="29.0005" y1="31.7925" x2="29.0005" y2="10.4116">
	<stop  offset="0.5" style="stop-color:#473834"/>
	<stop  offset="0.6387" style="stop-color:#503F3A"/>
	<stop  offset="0.8641" style="stop-color:#68524A"/>
	<stop  offset="1" style="stop-color:#7A6056"/>
	<a:midPointStop  offset="0.5" style="stop-color:#473834"/>
	<a:midPointStop  offset="0.6" style="stop-color:#473834"/>
	<a:midPointStop  offset="1" style="stop-color:#7A6056"/>
</linearGradient>
<path fill="url(#SVGID_1_)" d="M43.085,11.793C40.671,8.532,36.253,12.068,29,12.068c-7.252,0-11.668-3.536-14.082-0.275
	c-3.418,4.617-2.258,20-0.736,20c0.24,0,0.275-5.381,0.736-9.104c0.373-3.029,1.094-5.969,1.924-6.449
	c2.531-1.467,7.412,0.631,12.158,0.631c4.746,0,9.628-2.098,12.162-0.631c0.828,0.48,1.547,3.42,1.924,6.449
	c0.459,3.723,0.494,9.104,0.734,9.104C45.341,31.792,46.501,16.41,43.085,11.793z"/>
<polygon fill="#9E6C49" points="49.507,62 52.134,50.686 50.663,50.303 46.944,62 "/>
<path fill="#9E6C49" d="M60.237,41.314l-1.473-0.381l-0.215,0.773c-1.152,0.764-2.254,2.457-2.836,4.576
	c-0.586,2.127-0.5,4.131,0.105,5.352l-0.213,0.773l1.473,0.385c1.627,0.424,3.65-1.799,4.523-4.969
	C62.476,44.656,61.862,41.74,60.237,41.314"/>
<path fill="#B47D56" d="M60.13,47.439c-0.871,3.17-2.896,5.395-4.523,4.969c-1.625-0.424-2.238-3.336-1.365-6.506
	c0.871-3.168,2.896-5.393,4.523-4.969C60.39,41.357,61.003,44.268,60.13,47.439"/>
<polygon fill="#9E6C49" points="55.804,51.691 45.497,49.002 48.259,38.961 58.567,41.652 "/>
<path fill="#785647" d="M48.243,39.016l-2.732,9.93c0.014,0.021,0.023,0.047,0.033,0.068l2.85,0.744
	c1.176-0.742,2.307-2.463,2.902-4.623c0.594-2.162,0.498-4.203-0.141-5.418l-2.85-0.748C48.284,38.986,48.265,39.004,48.243,39.016"
	/>
<path fill="#9E6C49" d="M49.192,38.432l-1.475-0.379l-0.211,0.773c-1.152,0.762-2.254,2.457-2.84,4.576
	c-0.582,2.125-0.498,4.129,0.109,5.35l-0.213,0.773l1.473,0.385c1.627,0.424,3.65-1.799,4.523-4.969
	C51.431,41.773,50.819,38.857,49.192,38.432"/>
<path fill="#B47D56" d="M49.087,44.557c-0.873,3.17-2.896,5.395-4.523,4.969c-1.627-0.424-2.24-3.336-1.367-6.504
	c0.871-3.17,2.896-5.396,4.523-4.969C49.347,38.477,49.956,41.387,49.087,44.557"/>
<path fill="#9E6C49" d="M59.394,47.248c-0.762,2.773-2.369,4.762-3.59,4.443c-1.219-0.318-1.59-2.824-0.828-5.596
	c0.764-2.773,2.371-4.764,3.592-4.443C59.786,41.969,60.157,44.475,59.394,47.248"/>
<path fill="#785647" d="M52.86,50.924L52.86,50.924c-0.109,0.393-0.529,0.629-0.936,0.523l-1.471-0.383
	c-0.406-0.105-0.648-0.516-0.539-0.91L52.86,50.924z"/>
<path fill="#D61924" d="M27.06,56.391c-0.224,0.594-0.427,1.295-0.612,2.059c1.689,1.115,3.389,1.131,5.1,0.002
	c-0.186-0.764-0.388-1.465-0.61-2.061C30.416,55,27.582,55,27.06,56.391z"/>
<path fill="#E81C27" d="M30.773,56.391c-0.4,0.506-3.195,0.559-3.549,0c-0.84-1.322-2.219-3.945-2.219-3.945
	s0.815-0.781,3.992-0.781c3.18,0,3.994,0.781,3.994,0.781S31.738,55.18,30.773,56.391z"/>
<path fill="#FFFFFF" d="M37.999,46.41c-0.792,4.225-9,5.254-9,5.254c2.864,0.861,7.145,6.518,7.145,6.518
	C40.098,52.213,37.999,46.41,37.999,46.41z"/>
<path fill="#FFFFFF" d="M20,46.41c0.792,4.225,9,5.254,9,5.254c-2.864,0.861-7.146,6.518-7.146,6.518
	C17.901,52.213,20,46.41,20,46.41z"/>
</svg>
