<?xml version="1.0" encoding="utf-8"?>
<!-- Generator: Adobe Illustrator 15.0.0, SVG Export Plug-In . SVG Version: 6.00 Build 0)  -->
<!DOCTYPE svg PUBLIC "-//W3C//DTD SVG 1.1//EN" "http://www.w3.org/Graphics/SVG/1.1/DTD/svg11.dtd" [
	<!ENTITY ns_flows "http://ns.adobe.com/Flows/1.0/">
	<!ENTITY ns_extend "http://ns.adobe.com/Extensibility/1.0/">
	<!ENTITY ns_ai "http://ns.adobe.com/AdobeIllustrator/10.0/">
	<!ENTITY ns_graphs "http://ns.adobe.com/Graphs/1.0/">
]>
<svg version="1.1" id="Layer_1" xmlns:x="&ns_extend;" xmlns:i="&ns_ai;" xmlns:graph="&ns_graphs;"
	 xmlns="http://www.w3.org/2000/svg" xmlns:xlink="http://www.w3.org/1999/xlink" xmlns:a="http://ns.adobe.com/AdobeSVGViewerExtensions/3.0/"
	 x="0px" y="0px" width="64px" height="64px" viewBox="0 0 64 64" enable-background="new 0 0 64 64" xml:space="preserve">
<path fill="#FFCC66" d="M13.359,28.034c-0.734-1.438-2.797-1.438-2.797-1.438c-0.984,3.016-1.541,8.407-1.551,9.146
	c-0.009,0.718-0.682,2.729-0.471,3.223c0.896,2.094,0.811,2.356,1.909,3.135c0.832,0.589,0.571-0.167,0.194-0.565
	c-0.584-0.617-0.955-2.036-0.189-2.168c0.098,1.583,1.144,1.882,1.066,1.295c-0.201-1.514,0.001-2.432-0.682-3.245
	c-0.275-0.329-0.295-2.397,0.975-5.188C12.585,30.531,13.031,29.409,13.359,28.034z"/>
<path fill="#FFCC66" d="M27.086,28.086c0.55-1.518,2.597-1.774,2.597-1.774c1.352,2.87,2.573,8.15,2.675,8.882
	c0.1,0.711,1.018,2.622,0.868,3.139c-0.628,2.189-0.387,1.313-1.372,2.23c-0.31,0.288-0.425-0.017-0.394-0.419
	c0,0-0.272-0.885-0.484-0.895c0.052,0.396-0.823,0.178-0.609-0.375c0.133-0.344-0.094-1.109,0.387-1.792
	c0.247-0.352-0.006-2.416-1.611-5.026C28.165,30.468,27.583,29.41,27.086,28.086z"/>
<path fill="#302C3B" d="M25.609,33.957H14.393c-0.979,5.166-0.256,12.302-1.488,24.896c-0.156,1.586,5.654,1.596,5.604,0
	c-0.242-7.347,0.445-12.938,0.938-17.416c0.037-0.334,1.072-0.334,1.109,0c0.492,4.478,1.182,10.069,0.939,17.416
	c-0.053,1.596,5.76,1.586,5.604,0C25.865,46.259,26.588,39.123,25.609,33.957z"/>
<path fill="#3AB0A2" d="M27.037,19.847c-0.906-1.135-4.635-2.271-4.635-2.271H17.6c0,0-3.73,1.137-4.635,2.271
	c-0.793,0.992-2.32,5.816-2.658,6.982c0.045,0.055,1.227,0.112,3.287,1.702c0,0,0.641-1.935,0.891-2.447
	c0.588,3.813-0.297,7.448-0.092,7.873c0.584,1.213,10.625,1.227,11.217,0c0.205-0.425-0.68-4.06-0.094-7.873
	c0.252,0.513,1.4,2.524,1.4,2.524c1.847-1.834,3.012-2.038,3.049-2.098C29.485,25.396,27.83,20.839,27.037,19.847z"/>
<path fill="#6E8189" d="M12.646,61.602c0.184,0.452,5.762,0.637,5.971-0.084C19.426,58.725,11.736,59.372,12.646,61.602z"/>
<path fill="#99A8AE" d="M12.727,61.053c0.041,0.392,5.834,0.597,5.896,0C19.119,56.3,12.273,56.696,12.727,61.053z"/>
<path fill="#1A1626" d="M17.883,58.226c-0.645-1.102-3.703-1.096-4.344,0c-0.117,0.192-0.316,0.716,0.457,0.286
	c-0.768,0.602-0.768,1.127,0,0.678c-0.773,0.578-0.574,0.943-0.457,0.896c1.176-0.582,3.166-0.582,4.344,0
	c0.119,0.047,0.316-0.318-0.457-0.896c0.768,0.449,0.768-0.076,0-0.678C18.199,58.941,18.002,58.418,17.883,58.226z"/>
<path fill="#6E8189" d="M27.355,61.602c-0.184,0.452-5.762,0.637-5.971-0.084C20.576,58.725,28.266,59.372,27.355,61.602z"/>
<path fill="#99A8AE" d="M27.275,61.053c-0.041,0.392-5.834,0.597-5.896,0C20.883,56.3,27.727,56.696,27.275,61.053z"/>
<path fill="#1A1626" d="M22.119,58.226c0.645-1.102,3.701-1.096,4.344,0c0.117,0.192,0.316,0.716-0.457,0.286
	c0.768,0.602,0.768,1.127,0,0.678c0.773,0.578,0.574,0.943,0.457,0.896c-1.178-0.582-3.166-0.582-4.344,0
	c-0.119,0.047-0.316-0.318,0.457-0.896c-0.768,0.449-0.768-0.076,0-0.678C21.803,58.941,22,58.418,22.119,58.226z"/>
<path fill="#2B998D" d="M16.719,17.874c0,2.926,6.563,2.92,6.563-0.005l-0.59-0.212h-5.346L16.719,17.874z"/>
<path fill="#E6B045" d="M17.25,17.906c0,2.175,5.5,2.175,5.5,0c0-0.74,0-2.406,0-2.406h-5.5C17.25,15.5,17.25,17.166,17.25,17.906z"
	/>
<path id="Path_584_" fill="#FFCC66" d="M26.131,9.243c-0.949,0.114-1.635,3.293-1.037,4.131c0.083,0.118,0.572,0.305,0.934-0.436
	c0.202-0.409,0.781-0.752,0.961-1.598C27.219,10.258,27.074,9.129,26.131,9.243z"/>
<path id="Path_583_" fill="#FFCC66" d="M13.871,9.243c0.949,0.114,1.634,3.293,1.037,4.131c-0.084,0.118-0.573,0.305-0.936-0.436
	c-0.201-0.409-0.779-0.752-0.959-1.598C12.783,10.258,12.928,9.129,13.871,9.243z"/>
<path id="Path_582_" fill="#DB9D3A" d="M26.105,9.853c-0.248,0.078-0.519,0.455-0.664,1.081c0.865-0.186,0.648,1.257-0.104,1.284
	c0.006,0.144,0.016,0.293,0.033,0.45c0.363-0.526,0.73-0.314,1.096-1.098C26.796,10.864,26.717,9.66,26.105,9.853z"/>
<path id="Path_581_" fill="#DB9D3A" d="M14.561,10.932c-0.146-0.624-0.416-1.002-0.663-1.079c-0.613-0.192-0.692,1.012-0.363,1.718
	c0.364,0.783,0.732,0.571,1.096,1.098c0.018-0.157,0.027-0.307,0.034-0.451C13.919,12.182,13.707,10.757,14.561,10.932z"/>
<path id="Path_580_" fill="#FFCC66" d="M20,3.133c-4.11,0-6.092,3.111-5.844,7.437c0.05,0.87,0.59,3.709,1.098,4.727
	c0.522,1.042,2.266,2.648,3.334,2.981c0.674,0.209,2.151,0.209,2.826,0c1.068-0.333,2.812-1.939,3.332-2.981
	c0.51-1.018,1.049-3.855,1.099-4.727C26.094,6.244,24.113,3.133,20,3.133z"/>
<path id="Path_579_" fill="#966F42" d="M24.467,8.926c-0.939-0.498-2.739-0.522-3.41-0.175c-0.143,0.066-0.047,0.538,0.072,0.494
	c0.936-0.37,2.441-0.378,3.316,0.031C24.563,9.329,24.611,8.995,24.467,8.926z"/>
<path id="Path_578_" fill="#966F42" d="M15.533,8.926c0.94-0.498,2.739-0.522,3.41-0.175c0.144,0.066,0.049,0.538-0.072,0.494
	c-0.936-0.37-2.439-0.378-3.316,0.031C15.439,9.329,15.392,8.995,15.533,8.926z"/>
<path id="Path_577_" fill="#DB9D3A" d="M21.11,13.246c-0.117-0.082-0.394,0.043-1.11,0.043c-0.715,0-0.992-0.125-1.109-0.043
	c-0.141,0.099,0.084,0.546,1.109,0.546C21.027,13.792,21.252,13.345,21.11,13.246z"/>
<path id="Path_576_" fill="#DB9D3A" d="M20,14.94c-0.924-0.272-2.295,0.129-2.295,0.129c0.521,0.568,0.904,1.306,2.295,1.306
	c1.594,0,1.865-0.837,2.297-1.306C22.297,15.069,20.924,14.666,20,14.94z"/>
<path id="Path_575_" fill="#FFFFFF" d="M18.05,15.165c0.97,0.813,2.927,0.819,3.901,0C20.919,15.209,19.09,15.21,18.05,15.165z"/>
<path id="Path_574_" fill="#FFFFFF" d="M19.086,10.623c0.035,0.271-0.15,0.594-0.662,0.836c-0.324,0.154-1,0.335-1.888-0.039
	c-0.399-0.168-0.786-0.691-0.751-0.979C16.266,9.532,18.635,9.399,19.086,10.623z"/>
<linearGradient id="Oval_1_" gradientUnits="userSpaceOnUse" x1="-425.7627" y1="480.5088" x2="-425.7627" y2="480.792" gradientTransform="matrix(6.5701 0 0 -6.5701 2814.7805 3168.5281)">
	<stop  offset="0" style="stop-color:#A6694A"/>
	<stop  offset="1" style="stop-color:#4F2A1E"/>
	<a:midPointStop  offset="0" style="stop-color:#A6694A"/>
	<a:midPointStop  offset="0.5" style="stop-color:#A6694A"/>
	<a:midPointStop  offset="1" style="stop-color:#4F2A1E"/>
</linearGradient>
<circle id="Oval_78_" fill="url(#Oval_1_)" cx="17.479" cy="10.604" r="0.931"/>
<path id="Path_573_" fill="#1A1626" d="M17.014,10.588c0,0.643,0.93,0.643,0.93,0C17.943,9.99,17.014,9.99,17.014,10.588z"/>
<path id="Path_572_" fill="#AB968C" d="M16.871,10.327c0,0.27,0.391,0.27,0.391,0C17.262,10.076,16.871,10.076,16.871,10.327z"/>
<path id="Path_522_" fill="#DB9D3A" d="M19.09,10.659c-0.377-1.215-2.955-1.036-3.305-0.219C15.915,9.395,18.768,9.118,19.09,10.659
	z"/>
<path id="Path_521_" fill="#FFFFFF" d="M20.915,10.623c-0.034,0.271,0.149,0.594,0.661,0.836c0.325,0.154,1,0.335,1.889-0.039
	c0.399-0.168,0.786-0.691,0.752-0.979C23.735,9.532,21.366,9.399,20.915,10.623z"/>
<linearGradient id="Oval_2_" gradientUnits="userSpaceOnUse" x1="-427.6968" y1="480.5088" x2="-427.6968" y2="480.792" gradientTransform="matrix(6.5701 0 0 -6.5701 2832.511 3168.5281)">
	<stop  offset="0" style="stop-color:#A6694A"/>
	<stop  offset="1" style="stop-color:#4F2A1E"/>
	<a:midPointStop  offset="0" style="stop-color:#A6694A"/>
	<a:midPointStop  offset="0.5" style="stop-color:#A6694A"/>
	<a:midPointStop  offset="1" style="stop-color:#4F2A1E"/>
</linearGradient>
<circle id="Oval_77_" fill="url(#Oval_2_)" cx="22.502" cy="10.604" r="0.931"/>
<path id="Path_520_" fill="#1A1626" d="M22.037,10.588c0,0.643,0.932,0.643,0.932,0C22.969,9.99,22.037,9.99,22.037,10.588z"/>
<path id="Path_519_" fill="#AB968C" d="M21.895,10.327c0,0.27,0.391,0.27,0.391,0C22.285,10.076,21.895,10.076,21.895,10.327z"/>
<path id="Path_518_" fill="#DB9D3A" d="M20.912,10.659c0.377-1.215,2.952-1.041,3.305-0.219
	C24.086,9.395,21.233,9.118,20.912,10.659z"/>
<path fill="#7A6056" d="M25.252,4.164C24.352,2.946,22.705,2,20,2c-2.703,0-4.35,0.946-5.25,2.164
	C13.477,5.888,26.525,5.888,25.252,4.164z"/>
<linearGradient id="SVGID_1_" gradientUnits="userSpaceOnUse" x1="20.0005" y1="11.6338" x2="20.0005" y2="3.6484">
	<stop  offset="0.5" style="stop-color:#473834"/>
	<stop  offset="0.6387" style="stop-color:#503F3A"/>
	<stop  offset="0.8641" style="stop-color:#68524A"/>
	<stop  offset="1" style="stop-color:#7A6056"/>
	<a:midPointStop  offset="0.5" style="stop-color:#473834"/>
	<a:midPointStop  offset="0.6" style="stop-color:#473834"/>
	<a:midPointStop  offset="1" style="stop-color:#7A6056"/>
</linearGradient>
<path fill="url(#SVGID_1_)" d="M25.252,4.164c-0.9-1.218-2.547,0.104-5.252,0.104c-2.703,0-4.35-1.321-5.25-0.104
	c-1.273,1.724-0.842,7.47-0.275,7.47c0.091,0,0.104-2.011,0.275-3.4c0.139-1.132,0.408-2.229,0.717-2.408
	C16.41,5.277,18.231,6.061,20,6.061c1.77,0,3.591-0.783,4.534-0.235c0.31,0.179,0.577,1.276,0.718,2.408
	c0.171,1.39,0.184,3.4,0.274,3.4C26.093,11.634,26.525,5.888,25.252,4.164z"/>
<path fill="#FFCC66" d="M50.641,28.034c0.734-1.438,2.797-1.438,2.797-1.438c0.984,3.016,1.541,8.407,1.551,9.146
	c0.009,0.718,0.682,2.729,0.471,3.223c-0.896,2.094-0.811,2.356-1.909,3.135c-0.832,0.589-0.571-0.167-0.194-0.565
	c0.584-0.617,0.955-2.036,0.189-2.168c-0.098,1.583-1.144,1.882-1.066,1.295c0.201-1.514-0.001-2.432,0.682-3.245
	c0.275-0.329,0.295-2.397-0.975-5.188C51.415,30.531,50.969,29.409,50.641,28.034z"/>
<path fill="#FFCC66" d="M36.914,28.086c-0.55-1.518-2.597-1.774-2.597-1.774c-1.352,2.87-2.573,8.15-2.675,8.882
	c-0.1,0.711-1.22,2.606-1.14,3.138c0.154,1.027,0.723,1.814,0.957,1.813c0.523-0.886,1.406-1.629,1.187-0.192
	c0.173,0.595,0.907-0.437,1.048-1.405c0.038-0.266-0.344-0.938-0.447-1.464c-0.083-0.422,0.006-2.416,1.611-5.026
	C35.835,30.468,36.417,29.41,36.914,28.086z"/>
<path fill="#302C3B" d="M38.391,33.957h11.217c0.979,5.166,0.256,12.302,1.488,24.896c0.156,1.586-5.654,1.596-5.604,0
	c0.242-7.347-0.445-12.938-0.938-17.416c-0.037-0.334-1.072-0.334-1.109,0c-0.492,4.478-1.182,10.069-0.939,17.416
	c0.053,1.596-5.76,1.586-5.604,0C38.135,46.259,37.412,39.123,38.391,33.957z"/>
<path fill="#3A8FB0" d="M36.963,19.847c0.906-1.135,4.635-2.271,4.635-2.271H46.4c0,0,3.73,1.137,4.635,2.271
	c0.793,0.992,2.32,5.816,2.658,6.982c-0.045,0.055-1.227,0.112-3.287,1.702c0,0-0.641-1.935-0.891-2.447
	c-0.588,3.813,0.297,7.448,0.092,7.873c-0.584,1.213-10.625,1.227-11.217,0c-0.205-0.425,0.68-4.06,0.094-7.873
	c-0.252,0.513-1.4,2.524-1.4,2.524c-1.847-1.834-3.012-2.038-3.049-2.098C34.515,25.396,36.17,20.839,36.963,19.847z"/>
<path fill="#6E8189" d="M51.354,61.602c-0.184,0.452-5.762,0.637-5.971-0.084C44.574,58.725,52.264,59.372,51.354,61.602z"/>
<path fill="#99A8AE" d="M51.273,61.053c-0.041,0.392-5.834,0.597-5.896,0C44.881,56.3,51.727,56.696,51.273,61.053z"/>
<path fill="#1A1626" d="M46.117,58.226c0.645-1.102,3.703-1.096,4.344,0c0.117,0.192,0.316,0.716-0.457,0.286
	c0.768,0.602,0.768,1.127,0,0.678c0.773,0.578,0.574,0.943,0.457,0.896c-1.176-0.582-3.166-0.582-4.344,0
	c-0.119,0.047-0.316-0.318,0.457-0.896c-0.768,0.449-0.768-0.076,0-0.678C45.801,58.941,45.998,58.418,46.117,58.226z"/>
<path fill="#6E8189" d="M36.645,61.602c0.184,0.452,5.762,0.637,5.971-0.084C43.424,58.725,35.734,59.372,36.645,61.602z"/>
<path fill="#99A8AE" d="M36.725,61.053c0.041,0.392,5.834,0.597,5.896,0C43.117,56.3,36.273,56.696,36.725,61.053z"/>
<path fill="#1A1626" d="M41.881,58.226c-0.645-1.102-3.701-1.096-4.344,0c-0.117,0.192-0.316,0.716,0.457,0.286
	c-0.768,0.602-0.768,1.127,0,0.678c-0.773,0.578-0.574,0.943-0.457,0.896c1.178-0.582,3.166-0.582,4.344,0
	c0.119,0.047,0.316-0.318-0.457-0.896c0.768,0.449,0.768-0.076,0-0.678C42.197,58.941,42,58.418,41.881,58.226z"/>
<path fill="#007EB0" d="M47.281,17.874c0,2.926-6.563,2.92-6.563-0.005l0.59-0.212h5.346L47.281,17.874z"/>
<path fill="#E6B045" d="M46.75,17.906c0,2.175-5.5,2.175-5.5,0c0-0.74,0-2.406,0-2.406h5.5C46.75,15.5,46.75,17.166,46.75,17.906z"
	/>
<path id="Path_602_" fill="#FFCC66" d="M50.129,9.243c-0.949,0.114-1.635,3.293-1.037,4.131c0.083,0.118,0.572,0.305,0.934-0.436
	c0.202-0.409,0.781-0.752,0.961-1.598C51.217,10.258,51.072,9.129,50.129,9.243z"/>
<path id="Path_601_" fill="#FFCC66" d="M37.869,9.243c0.949,0.114,1.634,3.293,1.037,4.131c-0.084,0.118-0.573,0.305-0.936-0.436
	c-0.201-0.409-0.779-0.752-0.959-1.598C36.781,10.258,36.926,9.129,37.869,9.243z"/>
<path id="Path_600_" fill="#DB9D3A" d="M50.104,9.853c-0.248,0.078-0.519,0.455-0.664,1.081c0.865-0.186,0.648,1.257-0.104,1.284
	c0.006,0.144,0.016,0.293,0.033,0.45c0.363-0.526,0.73-0.314,1.096-1.098C50.794,10.864,50.715,9.66,50.104,9.853z"/>
<path id="Path_599_" fill="#DB9D3A" d="M38.559,10.932c-0.146-0.624-0.416-1.002-0.663-1.079c-0.613-0.192-0.692,1.012-0.363,1.718
	c0.364,0.783,0.732,0.571,1.096,1.098c0.018-0.157,0.027-0.307,0.034-0.451C37.917,12.182,37.705,10.757,38.559,10.932z"/>
<path id="Path_598_" fill="#FFCC66" d="M43.998,3.133c-4.11,0-6.092,3.111-5.844,7.437c0.05,0.87,0.59,3.709,1.098,4.727
	c0.522,1.042,2.266,2.648,3.334,2.981c0.674,0.209,2.151,0.209,2.826,0c1.068-0.333,2.812-1.939,3.332-2.981
	c0.51-1.018,1.049-3.855,1.099-4.727C50.092,6.244,48.111,3.133,43.998,3.133z"/>
<path id="Path_597_" fill="#966F42" d="M48.465,8.926c-0.939-0.498-2.739-0.522-3.41-0.175c-0.143,0.066-0.047,0.538,0.072,0.494
	c0.936-0.37,2.441-0.378,3.316,0.031C48.561,9.329,48.609,8.995,48.465,8.926z"/>
<path id="Path_596_" fill="#966F42" d="M39.531,8.926c0.94-0.498,2.739-0.522,3.41-0.175c0.144,0.066,0.049,0.538-0.072,0.494
	c-0.936-0.37-2.439-0.378-3.316,0.031C39.438,9.329,39.39,8.995,39.531,8.926z"/>
<path id="Path_595_" fill="#DB9D3A" d="M45.108,13.246c-0.117-0.082-0.394,0.043-1.11,0.043c-0.715,0-0.992-0.125-1.109-0.043
	c-0.141,0.099,0.084,0.546,1.109,0.546C45.025,13.792,45.25,13.345,45.108,13.246z"/>
<path id="Path_594_" fill="#DB9D3A" d="M43.998,14.94c-0.924-0.272-2.295,0.129-2.295,0.129c0.521,0.568,0.904,1.306,2.295,1.306
	c1.594,0,1.865-0.837,2.297-1.306C46.295,15.069,44.922,14.666,43.998,14.94z"/>
<path id="Path_593_" fill="#FFFFFF" d="M42.048,15.165c0.97,0.813,2.927,0.819,3.901,0C44.917,15.209,43.088,15.21,42.048,15.165z"
	/>
<path id="Path_592_" fill="#FFFFFF" d="M43.084,10.623c0.035,0.271-0.15,0.594-0.662,0.836c-0.324,0.154-1,0.335-1.888-0.039
	c-0.399-0.168-0.786-0.691-0.751-0.979C40.264,9.532,42.633,9.399,43.084,10.623z"/>
<linearGradient id="Oval_3_" gradientUnits="userSpaceOnUse" x1="-420.9111" y1="480.5088" x2="-420.9111" y2="480.792" gradientTransform="matrix(6.5701 0 0 -6.5701 2806.9055 3168.5281)">
	<stop  offset="0" style="stop-color:#A6694A"/>
	<stop  offset="1" style="stop-color:#4F2A1E"/>
	<a:midPointStop  offset="0" style="stop-color:#A6694A"/>
	<a:midPointStop  offset="0.5" style="stop-color:#A6694A"/>
	<a:midPointStop  offset="1" style="stop-color:#4F2A1E"/>
</linearGradient>
<circle id="Oval_80_" fill="url(#Oval_3_)" cx="41.477" cy="10.604" r="0.931"/>
<path id="Path_591_" fill="#1A1626" d="M41.012,10.588c0,0.643,0.93,0.643,0.93,0C41.941,9.99,41.012,9.99,41.012,10.588z"/>
<path id="Path_590_" fill="#AB968C" d="M40.869,10.327c0,0.27,0.391,0.27,0.391,0C41.26,10.076,40.869,10.076,40.869,10.327z"/>
<path id="Path_589_" fill="#DB9D3A" d="M43.088,10.659c-0.377-1.215-2.955-1.036-3.305-0.219
	C39.913,9.395,42.766,9.118,43.088,10.659z"/>
<path id="Path_588_" fill="#FFFFFF" d="M44.913,10.623c-0.034,0.271,0.149,0.594,0.661,0.836c0.325,0.154,1,0.335,1.889-0.039
	c0.399-0.168,0.786-0.691,0.752-0.979C47.733,9.532,45.364,9.399,44.913,10.623z"/>
<linearGradient id="Oval_4_" gradientUnits="userSpaceOnUse" x1="-422.8452" y1="480.5088" x2="-422.8452" y2="480.792" gradientTransform="matrix(6.5701 0 0 -6.5701 2824.636 3168.5281)">
	<stop  offset="0" style="stop-color:#A6694A"/>
	<stop  offset="1" style="stop-color:#4F2A1E"/>
	<a:midPointStop  offset="0" style="stop-color:#A6694A"/>
	<a:midPointStop  offset="0.5" style="stop-color:#A6694A"/>
	<a:midPointStop  offset="1" style="stop-color:#4F2A1E"/>
</linearGradient>
<circle id="Oval_79_" fill="url(#Oval_4_)" cx="46.5" cy="10.604" r="0.931"/>
<path id="Path_587_" fill="#1A1626" d="M46.035,10.588c0,0.643,0.932,0.643,0.932,0C46.967,9.99,46.035,9.99,46.035,10.588z"/>
<path id="Path_586_" fill="#AB968C" d="M45.893,10.327c0,0.27,0.391,0.27,0.391,0C46.283,10.076,45.893,10.076,45.893,10.327z"/>
<path id="Path_585_" fill="#DB9D3A" d="M44.91,10.659c0.377-1.215,2.952-1.041,3.305-0.219C48.084,9.395,45.231,9.118,44.91,10.659z
	"/>
<path fill="#7A6056" d="M49.25,4.164C48.35,2.946,46.703,2,43.998,2c-2.703,0-4.35,0.946-5.25,2.164
	C37.475,5.888,50.523,5.888,49.25,4.164z"/>
<linearGradient id="SVGID_2_" gradientUnits="userSpaceOnUse" x1="51.873" y1="11.6338" x2="51.873" y2="3.6484" gradientTransform="matrix(1 0 0 1 -7.875 0)">
	<stop  offset="0.5" style="stop-color:#473834"/>
	<stop  offset="0.6387" style="stop-color:#503F3A"/>
	<stop  offset="0.8641" style="stop-color:#68524A"/>
	<stop  offset="1" style="stop-color:#7A6056"/>
	<a:midPointStop  offset="0.5" style="stop-color:#473834"/>
	<a:midPointStop  offset="0.6" style="stop-color:#473834"/>
	<a:midPointStop  offset="1" style="stop-color:#7A6056"/>
</linearGradient>
<path fill="url(#SVGID_2_)" d="M49.25,4.164c-0.9-1.218-2.547,0.104-5.252,0.104c-2.703,0-4.35-1.321-5.25-0.104
	c-1.273,1.724-0.842,7.47-0.275,7.47c0.091,0,0.104-2.011,0.275-3.4c0.139-1.132,0.408-2.229,0.717-2.408
	c0.943-0.548,2.765,0.235,4.533,0.235c1.77,0,3.591-0.783,4.534-0.235c0.31,0.179,0.577,1.276,0.718,2.408
	c0.171,1.39,0.184,3.4,0.274,3.4C50.091,11.634,50.523,5.888,49.25,4.164z"/>
</svg>
