<?xml version="1.0" encoding="utf-8"?>
<!-- Generator: Adobe Illustrator 15.0.0, SVG Export Plug-In . SVG Version: 6.00 Build 0)  -->
<!DOCTYPE svg PUBLIC "-//W3C//DTD SVG 1.1//EN" "http://www.w3.org/Graphics/SVG/1.1/DTD/svg11.dtd" [
	<!ENTITY ns_flows "http://ns.adobe.com/Flows/1.0/">
	<!ENTITY ns_extend "http://ns.adobe.com/Extensibility/1.0/">
	<!ENTITY ns_ai "http://ns.adobe.com/AdobeIllustrator/10.0/">
	<!ENTITY ns_graphs "http://ns.adobe.com/Graphs/1.0/">
]>
<svg version="1.1" id="Layer_1" xmlns:x="&ns_extend;" xmlns:i="&ns_ai;" xmlns:graph="&ns_graphs;"
	 xmlns="http://www.w3.org/2000/svg" xmlns:xlink="http://www.w3.org/1999/xlink" xmlns:a="http://ns.adobe.com/AdobeSVGViewerExtensions/3.0/"
	 x="0px" y="0px" width="64px" height="64px" viewBox="0 0 64 64" enable-background="new 0 0 64 64" xml:space="preserve">
<path fill="#473834" d="M34.582,50.741c15.168-6.066,11.65-20.476,11.65-20.476H7.766c0,0-3.516,14.409,11.648,20.476
	c0,0,3.035,0.759,7.584,0.759C31.549,51.5,34.582,50.741,34.582,50.741z"/>
<linearGradient id="SVGID_1_" gradientUnits="userSpaceOnUse" x1="41.166" y1="51.4971" x2="41.166" y2="6.114">
	<stop  offset="0.05" style="stop-color:#473834"/>
	<stop  offset="0.2266" style="stop-color:#594640"/>
	<stop  offset="0.5197" style="stop-color:#715950"/>
	<stop  offset="0.7" style="stop-color:#7A6056"/>
	<a:midPointStop  offset="0.05" style="stop-color:#473834"/>
	<a:midPointStop  offset="0.4" style="stop-color:#473834"/>
	<a:midPointStop  offset="0.7" style="stop-color:#7A6056"/>
</linearGradient>
<path fill="url(#SVGID_1_)" d="M42.332,31.804c1.172,4.932-1.553,14.6-7.75,18.938c9.102-1.517,13.168-10.11,13.168-16.704
	L42.332,31.804z"/>
<linearGradient id="SVGID_2_" gradientUnits="userSpaceOnUse" x1="1767.9805" y1="51.4971" x2="1767.9805" y2="6.114" gradientTransform="matrix(-1 0 0 1 1780.8145 0)">
	<stop  offset="0.05" style="stop-color:#473834"/>
	<stop  offset="0.2266" style="stop-color:#594640"/>
	<stop  offset="0.5197" style="stop-color:#715950"/>
	<stop  offset="0.7" style="stop-color:#7A6056"/>
	<a:midPointStop  offset="0.05" style="stop-color:#473834"/>
	<a:midPointStop  offset="0.4" style="stop-color:#473834"/>
	<a:midPointStop  offset="0.7" style="stop-color:#7A6056"/>
</linearGradient>
<path fill="url(#SVGID_2_)" d="M11.666,31.804c-1.172,4.932,1.555,14.6,7.752,18.938C10.316,49.225,6.25,40.631,6.25,34.037
	L11.666,31.804z"/>
<path fill="#E6EBEF" d="M7.256,52.752c2.4-1.365,12.363-4.969,12.363-4.969h14.84c0,0,9.955,3.596,12.342,4.965
	C50.271,54.732,51,62,51,62H3C3,62,3.775,54.729,7.256,52.752z"/>
<polygon fill="#E6B045" points="19.5,49.947 27,54.148 34.5,49.947 34.5,41.912 19.5,41.912 "/>
<path fill="#068AC7" d="M34.5,46.519c-1.361,3.406-6.41,4.368-6.41,4.368C27.887,50.938,27,54.148,27,54.148
	s8.326-0.343,8.326-5.599C35.326,47.253,34.5,46.519,34.5,46.519z"/>
<path fill="#068AC7" d="M19.499,46.519c1.361,3.406,6.41,4.368,6.41,4.368c0.203,0.051,1.09,3.262,1.09,3.262
	s-8.326-0.343-8.326-5.599C18.673,47.253,19.499,46.519,19.499,46.519z"/>
<path fill="#CFD8DD" d="M37.561,55.455C36.34,55.018,27,54.148,27,54.148s8.236,1.23,9.32,1.715C37.406,56.35,37.561,62,37.561,62
	h1.24C38.801,62,38.781,55.893,37.561,55.455z"/>
<path fill="#068AC7" d="M20.453,57.844c0.827,0,1.501,0.672,1.501,1.5c0,0.83-0.674,1.5-1.501,1.5c-0.829,0-1.499-0.67-1.499-1.5
	C18.954,58.516,19.624,57.844,20.453,57.844"/>
<path fill="#068AC7" d="M33.545,57.844c0.829,0,1.5,0.672,1.5,1.5c0,0.83-0.671,1.5-1.5,1.5c-0.83,0-1.5-0.67-1.5-1.5
	C32.045,58.516,32.715,57.844,33.545,57.844"/>
<path fill="#FFCC66" d="M27,8.275c-11.006,0-16.307,8.962-15.645,20.485c0.137,2.315,0.781,5.656,1.576,8.52
	C14.582,43.231,23.291,49.225,27,49.225c3.707,0,12.416-5.993,14.068-11.944c0.795-2.863,1.439-6.204,1.574-8.52
	C43.305,17.237,38.006,8.275,27,8.275z"/>
<path fill="#D47706" d="M26.998,39.87c-2.578-1.135-2.6-0.047-6.58,0.221c1.494,1.697,2.594,3.879,6.578,3.879
	c4.574,0,5.348-2.479,6.586-3.879C29.596,39.823,29.58,38.735,26.998,39.87z"/>
<path fill="#FFFFFF" d="M21.613,40.514c2.6,2.705,8.205,2.669,10.771,0.002C28.383,40.945,25.615,40.945,21.613,40.514z"/>
<path fill="#966F42" d="M38.693,24.927c-2.391-1.426-6.68-1.6-8.377-0.629c-0.359,0.196-0.262,1.226,0.049,1.097
	c2.42-1.007,6.107-1.058,8.379,0.108C39.049,25.656,39.057,25.134,38.693,24.927z"/>
<path fill="#966F42" d="M15.305,24.927c2.391-1.426,6.678-1.6,8.379-0.629c0.359,0.196,0.264,1.226-0.049,1.097
	c-2.422-1.007-6.105-1.06-8.381,0.108C14.949,25.656,14.943,25.134,15.305,24.927z"/>
<path fill="#DB9D3A" d="M29.473,36.213c-0.262-0.184-0.877,0.099-2.475,0.099c-1.596,0-2.211-0.282-2.473-0.099
	c-0.314,0.221,0.184,1.218,2.473,1.218S29.789,36.435,29.473,36.213z"/>
<path id="Path_240_" fill="#FFFFFF" d="M24.551,29.25c0.094,0.728-0.4,1.591-1.77,2.237c-0.869,0.412-2.678,0.896-5.055-0.106
	c-1.064-0.448-2.104-1.847-2.01-2.62C17.004,26.332,23.346,25.977,24.551,29.25z"/>
<linearGradient id="Oval_1_" gradientUnits="userSpaceOnUse" x1="-425.3403" y1="477.4414" x2="-425.3403" y2="478.1992" gradientTransform="matrix(6.5701 0 0 -6.5701 2814.7805 3168.5281)">
	<stop  offset="0" style="stop-color:#A6694A"/>
	<stop  offset="1" style="stop-color:#4F2A1E"/>
	<a:midPointStop  offset="0" style="stop-color:#A6694A"/>
	<a:midPointStop  offset="0.5" style="stop-color:#A6694A"/>
	<a:midPointStop  offset="1" style="stop-color:#4F2A1E"/>
</linearGradient>
<circle id="Oval_38_" fill="url(#Oval_1_)" cx="20.248" cy="29.2" r="2.49"/>
<path id="Path_239_" fill="#1A1626" d="M19.004,29.155c0,1.723,2.492,1.723,2.492,0C21.496,27.556,19.004,27.556,19.004,29.155z"/>
<path id="Path_238_" fill="#AB968C" d="M18.625,28.457c0,0.724,1.045,0.724,1.045,0C19.67,27.788,18.625,27.788,18.625,28.457z"/>
<path id="Path_237_" fill="#45332C" d="M24.563,29.346c-1.012-3.251-7.908-2.771-8.846-0.585
	C16.064,25.962,23.701,25.223,24.563,29.346z"/>
<path id="Path_236_" fill="#FFFFFF" d="M29.447,29.25c-0.092,0.728,0.402,1.591,1.771,2.237c0.869,0.412,2.678,0.896,5.055-0.106
	c1.066-0.448,2.104-1.847,2.01-2.62C36.996,26.332,30.654,25.977,29.447,29.25z"/>
<linearGradient id="Oval_2_" gradientUnits="userSpaceOnUse" x1="-425.9927" y1="477.4414" x2="-425.9927" y2="478.1992" gradientTransform="matrix(6.5701 0 0 -6.5701 2832.511 3168.5281)">
	<stop  offset="0" style="stop-color:#A6694A"/>
	<stop  offset="1" style="stop-color:#4F2A1E"/>
	<a:midPointStop  offset="0" style="stop-color:#A6694A"/>
	<a:midPointStop  offset="0.5" style="stop-color:#A6694A"/>
	<a:midPointStop  offset="1" style="stop-color:#4F2A1E"/>
</linearGradient>
<circle id="Oval_37_" fill="url(#Oval_2_)" cx="33.695" cy="29.2" r="2.49"/>
<path id="Path_235_" fill="#1A1626" d="M32.451,29.155c0,1.723,2.49,1.723,2.49,0C34.941,27.556,32.451,27.556,32.451,29.155z"/>
<path id="Path_234_" fill="#AB968C" d="M32.07,28.457c0,0.724,1.045,0.724,1.045,0C33.115,27.788,32.07,27.788,32.07,28.457z"/>
<path id="Path_233_" fill="#45332C" d="M29.438,29.346c1.01-3.249,7.902-2.784,8.846-0.585
	C37.934,25.962,30.299,25.223,29.438,29.346z"/>
<linearGradient id="SVGID_3_" gradientUnits="userSpaceOnUse" x1="27.0005" y1="51.4961" x2="27.0005" y2="6.113">
	<stop  offset="0.05" style="stop-color:#473834"/>
	<stop  offset="0.2266" style="stop-color:#594640"/>
	<stop  offset="0.5197" style="stop-color:#715950"/>
	<stop  offset="0.7" style="stop-color:#7A6056"/>
	<a:midPointStop  offset="0.05" style="stop-color:#473834"/>
	<a:midPointStop  offset="0.4" style="stop-color:#473834"/>
	<a:midPointStop  offset="0.7" style="stop-color:#7A6056"/>
</linearGradient>
<path fill="url(#SVGID_3_)" d="M39.385,9.884c1.258-1.794-9.387-5.582-19.438-3.023C9.908,9.159,6.25,24.2,6.25,34.037
	c0.898,0.712,4.396-1.065,5.416-2.233c0.416-1.722,1.072-3.493,1.684-5.328c7.539-4.365,16.07-5.393,21.992-10.617
	c-0.758,2.275,3.256,5.145,5.309,10.617c0.664,1.774,1.26,3.553,1.682,5.328c1.674,1.54,3.014,2.268,5.418,2.233
	C47.75,25.718,43.41,8.723,39.385,9.884z"/>
<path fill="#473834" d="M8.059,32.541c6.943-9.247,27.438-8.62,31.326-22.657C31.834,21.665,9.955,23.652,8.059,32.541z"/>
<linearGradient id="SVGID_4_" gradientUnits="userSpaceOnUse" x1="7.1602" y1="17.9961" x2="46.752" y2="17.9961">
	<stop  offset="0" style="stop-color:#CFD8DD"/>
	<stop  offset="0.1251" style="stop-color:#DBE3E7"/>
	<stop  offset="0.3157" style="stop-color:#E8EDF2"/>
	<stop  offset="0.5" style="stop-color:#ECF1F5"/>
	<stop  offset="0.6843" style="stop-color:#E8EDF2"/>
	<stop  offset="0.8749" style="stop-color:#DBE3E7"/>
	<stop  offset="1" style="stop-color:#CFD8DD"/>
	<a:midPointStop  offset="0" style="stop-color:#CFD8DD"/>
	<a:midPointStop  offset="0.3" style="stop-color:#CFD8DD"/>
	<a:midPointStop  offset="0.5" style="stop-color:#ECF1F5"/>
	<a:midPointStop  offset="0.7" style="stop-color:#ECF1F5"/>
	<a:midPointStop  offset="1" style="stop-color:#CFD8DD"/>
</linearGradient>
<path fill="url(#SVGID_4_)" d="M26.999,10.999c-12.303,0-19.143,6.996-19.143,6.996L7.16,24.993c0,0,7.195-2.998,19.839-2.998
	c12.642,0,19.753,2.998,19.753,2.998l-0.61-6.998C46.142,17.995,39.302,10.999,26.999,10.999"/>
<linearGradient id="SVGID_5_" gradientUnits="userSpaceOnUse" x1="27.0005" y1="18.8154" x2="27.0005" y2="2">
	<stop  offset="0" style="stop-color:#C5CFD6"/>
	<stop  offset="0.7152" style="stop-color:#ECF1F5"/>
	<a:midPointStop  offset="0" style="stop-color:#C5CFD6"/>
	<a:midPointStop  offset="0.5" style="stop-color:#C5CFD6"/>
	<a:midPointStop  offset="0.7152" style="stop-color:#ECF1F5"/>
</linearGradient>
<path fill="url(#SVGID_5_)" d="M44.908,4.803C40.868,2.934,38.457,2,35.427,2c-1.396,0-4.941,1.454-8.43,1.4
	C23.509,3.454,19.967,2,18.571,2c-3.031,0-5.444,0.934-9.483,2.803c-4.038,1.87-5.846,3.401-5.846,7.009
	c0,5.11,4.614,7.004,4.614,7.004s19.272-8.407,38.283,0c0,0,4.618-1.894,4.618-7.004C50.758,8.204,48.948,6.672,44.908,4.803"/>
<linearGradient id="SVGID_6_" gradientUnits="userSpaceOnUse" x1="26.9644" y1="18.8154" x2="26.9644" y2="5.4756">
	<stop  offset="0" style="stop-color:#B0BCC4"/>
	<stop  offset="0.1693" style="stop-color:#BEC8CF"/>
	<stop  offset="0.5016" style="stop-color:#D4DCE1"/>
	<stop  offset="0.7152" style="stop-color:#DCE3E8"/>
	<a:midPointStop  offset="0" style="stop-color:#B0BCC4"/>
	<a:midPointStop  offset="0.3898" style="stop-color:#B0BCC4"/>
	<a:midPointStop  offset="0.7152" style="stop-color:#DCE3E8"/>
</linearGradient>
<path fill="url(#SVGID_6_)" d="M40.992,13.827c-3.812,4.088-2.645-7.788-5.299-7.747c-2.725,0.043-3.776,7.664-8.748,7.553
	c-5.161-0.115-4.683-8.573-8.196-8.142c-3.404,0.417-3.084,13.482-8.126,6.336C2.838,0.791,10.66,24.993,3.265,12.385
	c0.332,5.61,4.592,6.43,4.592,6.43c3.781-1.873,21.984-7.434,38.283,0c0,0,3.805-0.644,4.523-5.892
	C42.067,22.785,53.964-0.085,40.992,13.827z"/>
<linearGradient id="SVGID_7_" gradientUnits="userSpaceOnUse" x1="26.9995" y1="18.8154" x2="26.9995" y2="6.2114">
	<stop  offset="0.1576" style="stop-color:#869399"/>
	<stop  offset="0.2973" style="stop-color:#919DA3;stop-opacity:0.8621"/>
	<stop  offset="0.5428" style="stop-color:#AEB8BE;stop-opacity:0.62"/>
	<stop  offset="0.7152" style="stop-color:#C7CED4;stop-opacity:0.45"/>
	<a:midPointStop  offset="0.1576" style="stop-color:#869399"/>
	<a:midPointStop  offset="0.5818" style="stop-color:#869399"/>
	<a:midPointStop  offset="0.7152" style="stop-color:#C7CED4;stop-opacity:0.45"/>
</linearGradient>
<path fill="url(#SVGID_7_)" d="M7.856,18.815c6.59-2.612,13.193-3.571,19.143-3.571s12.553,0.958,19.143,3.571
	c-0.7-0.609-2.413-1.229-2.565-1.465c-0.389-0.604,1.764-1.395,2.386-6.329c-0.84,3.071-2.763,6.197-4.138,5.877
	c-0.99-0.23-2.529-0.926-6.364-1.473c-0.667-0.096,0.735-3.965-0.182-9.214c0.06,2.801-0.534,8.313-1.512,8.901
	c-0.676,0.406-2.812-0.131-6.766-0.131s-6.095,0.537-6.77,0.131c-0.978-0.588-1.571-6.1-1.512-8.901
	c-0.917,5.25,0.484,9.119-0.182,9.214c-3.836,0.547-5.374,1.243-6.364,1.473c-1.375,0.32-3.298-2.806-4.138-5.877
	c0.622,4.935,2.773,5.725,2.386,6.329C10.27,17.587,8.557,18.206,7.856,18.815z"/>
<path fill="#FFCC66" d="M44.607,49.802c0.275-1.021,2.531,0.359,1.584,2.049c-0.383,0.682,4.74,6.135,4.424,7.381
	c-0.566,2.24-3.428,1.915-3.715,2.769h-6.281c1.611-2.136,0.342-4.591,1.811-6.62C44.885,51.991,44.154,51.474,44.607,49.802z"/>
<polygon fill="#1A1626" points="52.365,52.843 46.598,50.743 41.949,62 48.48,62 "/>
<linearGradient id="SVGID_8_" gradientUnits="userSpaceOnUse" x1="53.8662" y1="54.0439" x2="53.8662" y2="24.0249">
	<stop  offset="0" style="stop-color:#C9D1D6"/>
	<stop  offset="0.5796" style="stop-color:#DDE3E6"/>
	<stop  offset="1" style="stop-color:#E6EBED"/>
	<a:midPointStop  offset="0" style="stop-color:#C9D1D6"/>
	<a:midPointStop  offset="0.4" style="stop-color:#C9D1D6"/>
	<a:midPointStop  offset="1" style="stop-color:#E6EBED"/>
</linearGradient>
<path fill="url(#SVGID_8_)" d="M46.732,50.792l8.938,3.252c3.441-9.404,7.727-22.303,3.703-30.02
	C55.295,26.647,51.916,36.626,46.732,50.792z"/>
<linearGradient id="SVGID_9_" gradientUnits="userSpaceOnUse" x1="57.4111" y1="54.0439" x2="57.4111" y2="24.0249">
	<stop  offset="0" style="stop-color:#B3BBBF"/>
	<stop  offset="1" style="stop-color:#D5DEE3"/>
	<a:midPointStop  offset="0" style="stop-color:#B3BBBF"/>
	<a:midPointStop  offset="0.5" style="stop-color:#B3BBBF"/>
	<a:midPointStop  offset="1" style="stop-color:#D5DEE3"/>
</linearGradient>
<path fill="url(#SVGID_9_)" d="M53.822,53.372l1.848,0.672c3.441-9.404,7.727-22.303,3.703-30.02
	c-0.432,0.277-0.855,0.637-1.275,1.076C60.902,32.841,57.031,44.581,53.822,53.372z"/>
<path fill="#FFCC66" d="M52.166,55.405c0.6,1.557-0.549,2.369-0.549,2.369c0.336,1.484-0.861,2.5-0.861,2.5
	c-0.445,3.229-7.541,1.185-4.936-0.736c-1.84-0.666-1.426-2.672,0.59-2.264c-2.16-0.674-0.744-2.779,0.566-2.428
	c0.492,0.133,1.051,0.156,1.615,0.316c-2.184-0.717-0.84-2.613,0.396-2.549c1.371,0.072,2.717,0.435,3.105,0.727
	C52.861,53.919,52.465,55.074,52.166,55.405z"/>
<path fill="#E6B045" d="M47.58,53.446c-1.09,1.914,2.748,2.168,3.42,1.986C48.469,55.309,47.242,54.224,47.58,53.446z"/>
<path fill="#E6B045" d="M45.35,60.044c-1.09,1.915,2.682,2.081,3.354,1.9C46.172,61.819,45.012,60.821,45.35,60.044z"/>
<path fill="#E6B045" d="M45.445,55.569c-1.09,1.916,2.775,2.449,4.836,2.172C46.42,57.743,45.107,56.347,45.445,55.569z"/>
<path fill="#E6B045" d="M44.721,57.854c-1.09,1.916,2.832,2.544,4.895,2.268C45.754,60.124,44.383,58.634,44.721,57.854z"/>
</svg>
