<?xml version="1.0" encoding="utf-8"?>
<!-- Generator: Adobe Illustrator 15.0.0, SVG Export Plug-In . SVG Version: 6.00 Build 0)  -->
<!DOCTYPE svg PUBLIC "-//W3C//DTD SVG 1.1//EN" "http://www.w3.org/Graphics/SVG/1.1/DTD/svg11.dtd" [
	<!ENTITY ns_flows "http://ns.adobe.com/Flows/1.0/">
	<!ENTITY ns_extend "http://ns.adobe.com/Extensibility/1.0/">
	<!ENTITY ns_ai "http://ns.adobe.com/AdobeIllustrator/10.0/">
	<!ENTITY ns_graphs "http://ns.adobe.com/Graphs/1.0/">
]>
<svg version="1.1" id="Layer_1" xmlns:x="&ns_extend;" xmlns:i="&ns_ai;" xmlns:graph="&ns_graphs;"
	 xmlns="http://www.w3.org/2000/svg" xmlns:xlink="http://www.w3.org/1999/xlink" xmlns:a="http://ns.adobe.com/AdobeSVGViewerExtensions/3.0/"
	 x="0px" y="0px" width="64px" height="64px" viewBox="0 0 64 64" enable-background="new 0 0 64 64" xml:space="preserve">
<path fill="#006DAE" d="M11.434,52.752c2.5-1.365,12.877-4.969,12.877-4.969H39.77c0,0,10.369,3.596,12.855,4.965
	C56.24,54.732,57,62,57,62H7C7,62,7.807,54.728,11.434,52.752z"/>
<polygon fill="#E6B045" points="24,49.946 32,54.779 40,49.946 40,41.912 24,41.912 "/>
<rect x="17.027" y="57.277" fill="#FFE12C" width="9.09" height="0.914"/>
<rect x="17.027" y="60.174" fill="#014D87" width="9.09" height="1.826"/>
<rect x="32" y="54.624" fill="#014D87" width="3.268" height="7.376"/>
<polygon fill="#018BC9" points="26.117,59.072 17.027,59.072 17.027,60.273 18.043,60.273 21.572,61.553 25.102,60.273 
	26.117,60.273 "/>
<linearGradient id="SVGID_1_" gradientUnits="userSpaceOnUse" x1="42.4482" y1="58.5254" x2="47.3184" y2="58.5254">
	<stop  offset="0" style="stop-color:#FFE12C"/>
	<stop  offset="0.2866" style="stop-color:#FFDA25"/>
	<stop  offset="0.695" style="stop-color:#FFC813"/>
	<stop  offset="1" style="stop-color:#FFB600"/>
	<a:midPointStop  offset="0" style="stop-color:#FFE12C"/>
	<a:midPointStop  offset="0.6303" style="stop-color:#FFE12C"/>
	<a:midPointStop  offset="1" style="stop-color:#FFB600"/>
</linearGradient>
<path fill="url(#SVGID_1_)" d="M42.537,56.236l0.693-0.844c0.903,0.634,1.651-0.146,1.651-0.146s0.751,0.78,1.651,0.146l0.692,0.844
	c-1.158,0.74,0.404,1.941,0.034,3.244c-0.515,1.804-1.75,1.607-2.378,2.324c-0.629-0.717-1.86-0.521-2.376-2.324
	C42.136,58.178,43.701,56.977,42.537,56.236z"/>
<path fill="#018BC9" d="M24.033,55.12c0,0-2.965-3.714-0.54-7.452c0.413-0.631,0.507-0.55,0.507-0.55c0,2.525,8,7.265,8,7.265v1.068
	c0,0-0.971-1.098-3.93-0.56c0,0-0.309-1.109,0.105-2.103C28.176,52.789,25.986,53.191,24.033,55.12z"/>
<path fill="#018BC9" d="M39.965,55.12c0,0,2.967-3.714,0.542-7.452C40.094,47.037,40,47.118,40,47.118c0,2.525-8,7.265-8,7.265
	v1.982c0,0,0.969-2.012,3.928-1.474c0,0,0.309-1.109-0.104-2.103C35.824,52.789,38.012,53.191,39.965,55.12z"/>
<path fill="#006DAE" d="M34.633,59.262c0,1.217-2,1.217-2,0C32.633,58.043,34.633,58.043,34.633,59.262z"/>
<path fill="#014D87" d="M42.703,48.604l0.932,2.791c0,0,7.932,3.09,9.801,3.902c1.855,0.806,1.104-1.793-0.354-2.732
	C52.537,52.211,45.932,49.475,42.703,48.604z"/>
<path fill="#006DAE" d="M46.074,50.624c0.613,1.112-1.137,1.058-1.799-0.038C43.541,49.368,45.436,49.463,46.074,50.624z"/>
<path fill="#014D87" d="M21.297,48.604l-0.934,2.791c0,0-7.93,3.09-9.801,3.902c-1.854,0.806-1.104-1.793,0.355-2.732
	C11.463,52.211,18.067,49.475,21.297,48.604z"/>
<path fill="#006DAE" d="M17.926,50.624c-0.613,1.112,1.137,1.058,1.798-0.038C20.459,49.368,18.564,49.463,17.926,50.624z"/>
<path fill="#473834" d="M47.212,38.785c1.082,0.715,2.33,1.248,3.787,1.521c-2.586-5.888,1.314-18.237-6.682-27.311
	c-11.27,0.337-12.828,36.722,2.883,31.883c-1-0.433-1.629-1.315-1.996-2.43c1.211,0.347,2.627,0.358,4.275-0.148
	C48.167,41.734,47.499,40.398,47.212,38.785z"/>
<path fill="#473834" d="M18.921,12.995c-7.996,9.073-3.334,21.423-5.922,27.311c1.457-0.272,2.707-0.806,3.789-1.521
	c-0.289,1.613-0.957,2.949-2.27,3.515c1.648,0.507,3.063,0.495,4.273,0.148c-0.367,1.114-0.992,1.997-1.992,2.43
	C32.509,49.717,30.192,13.332,18.921,12.995z"/>
<path id="Path_415_" fill="#FFCC66" d="M48.442,25.392c-2.547,0.308-4.383,8.816-2.783,11.061c0.225,0.314,1.535,0.813,2.508-1.168
	c0.539-1.097,2.094-2.012,2.574-4.276C51.358,28.109,50.976,25.085,48.442,25.392z"/>
<path id="Path_414_" fill="#FFCC66" d="M15.558,25.392c2.547,0.308,4.385,8.816,2.783,11.061c-0.225,0.314-1.537,0.813-2.508-1.168
	c-0.539-1.097-2.094-2.012-2.574-4.276C12.642,28.109,13.026,25.085,15.558,25.392z"/>
<path id="Path_413_" fill="#DB9D3A" d="M48.372,27.023c-0.664,0.208-1.389,1.219-1.781,2.896c2.322-0.498,1.742,3.361-0.275,3.435
	c0.018,0.388,0.045,0.788,0.092,1.208c0.973-1.41,1.959-0.844,2.938-2.94C50.226,29.731,50.017,26.508,48.372,27.023z"/>
<path id="Path_412_" fill="#DB9D3A" d="M17.409,29.916c-0.395-1.674-1.117-2.685-1.781-2.892c-1.645-0.516-1.855,2.708-0.975,4.599
	c0.979,2.097,1.967,1.53,2.939,2.94c0.049-0.422,0.074-0.821,0.092-1.209C15.687,33.258,15.116,29.446,17.409,29.916z"/>
<path fill="#FFCC66" d="M31.999,9.035C20.97,9.035,15.657,18,16.321,29.527c0.137,2.317,0.783,5.66,1.58,8.524
	C19.556,44.006,28.282,50,31.999,50s12.443-5.994,14.1-11.948c0.797-2.864,1.441-6.207,1.578-8.524
	C48.341,18,43.03,9.035,31.999,9.035z"/>
<path id="Path_411_" fill="#966F42" d="M43.981,24.543c-2.521-1.333-7.35-1.399-9.146-0.47c-0.387,0.179-0.131,1.443,0.193,1.323
	c2.504-0.99,6.547-1.012,8.893,0.084C44.233,25.623,44.364,24.728,43.981,24.543z"/>
<path id="Path_410_" fill="#966F42" d="M20.019,24.543c2.521-1.333,7.346-1.399,9.146-0.47c0.383,0.179,0.131,1.443-0.193,1.323
	c-2.51-0.99-6.547-1.012-8.895,0.084C19.765,25.623,19.636,24.728,20.019,24.543z"/>
<path id="Path_409_" fill="#DB9D3A" d="M34.976,36.107c-0.314-0.219-1.053,0.119-2.977,0.119c-1.92,0-2.66-0.338-2.977-0.119
	c-0.375,0.266,0.225,1.463,2.977,1.463C34.753,37.57,35.354,36.373,34.976,36.107z"/>
<path id="Path_408_" fill="#DB9D3A" d="M31.999,40.645c-2.48-0.727-6.156,0.346-6.156,0.346c1.4,1.523,2.426,3.496,6.156,3.496
	c4.273,0,5.002-2.241,6.158-3.496C38.157,40.99,34.479,39.913,31.999,40.645z"/>
<path id="Path_407_" fill="#FFFFFF" d="M26.767,41.248c2.602,2.178,7.852,2.193,10.467,0C34.462,41.366,29.558,41.367,26.767,41.248
	z"/>
<path id="Path_406_" fill="#FFFFFF" d="M29.546,29.085c0.094,0.729-0.402,1.593-1.773,2.241c-0.873,0.412-2.684,0.896-5.066-0.107
	c-1.066-0.449-2.107-1.849-2.014-2.623C21.983,26.167,28.337,25.811,29.546,29.085z"/>
<linearGradient id="Oval_1_" gradientUnits="userSpaceOnUse" x1="-424.5815" y1="477.4658" x2="-424.5815" y2="478.2246" gradientTransform="matrix(6.5701 0 0 -6.5701 2814.7805 3168.5281)">
	<stop  offset="0" style="stop-color:#A6694A"/>
	<stop  offset="1" style="stop-color:#4F2A1E"/>
	<a:midPointStop  offset="0" style="stop-color:#A6694A"/>
	<a:midPointStop  offset="0.5" style="stop-color:#A6694A"/>
	<a:midPointStop  offset="1" style="stop-color:#4F2A1E"/>
</linearGradient>
<ellipse id="Oval_64_" fill="url(#Oval_1_)" cx="25.233" cy="29.037" rx="2.498" ry="2.492"/>
<path id="Path_405_" fill="#1A1626" d="M23.987,28.991c0,1.725,2.496,1.725,2.496,0C26.483,27.391,23.987,27.391,23.987,28.991z"/>
<path id="Path_404_" fill="#AB968C" d="M23.606,28.293c0,0.723,1.047,0.723,1.047,0C24.653,27.623,23.606,27.623,23.606,28.293z"/>
<path id="Path_403_" fill="#DB9D3A" d="M29.558,29.182c-1.014-3.252-7.924-2.772-8.865-0.585
	C21.04,25.796,28.694,25.057,29.558,29.182z"/>
<path id="Path_402_" fill="#FFFFFF" d="M34.454,29.085c-0.096,0.729,0.4,1.593,1.773,2.241c0.871,0.412,2.684,0.896,5.064-0.107
	c1.07-0.449,2.109-1.849,2.016-2.623C42.019,26.167,35.661,25.811,34.454,29.085z"/>
<linearGradient id="Oval_2_" gradientUnits="userSpaceOnUse" x1="-425.23" y1="477.4658" x2="-425.23" y2="478.2246" gradientTransform="matrix(6.5701 0 0 -6.5701 2832.511 3168.5281)">
	<stop  offset="0" style="stop-color:#A6694A"/>
	<stop  offset="1" style="stop-color:#4F2A1E"/>
	<a:midPointStop  offset="0" style="stop-color:#A6694A"/>
	<a:midPointStop  offset="0.5" style="stop-color:#A6694A"/>
	<a:midPointStop  offset="1" style="stop-color:#4F2A1E"/>
</linearGradient>
<circle id="Oval_63_" fill="url(#Oval_2_)" cx="38.71" cy="29.037" r="2.492"/>
<path id="Path_401_" fill="#1A1626" d="M37.462,28.991c0,1.725,2.496,1.725,2.496,0C39.958,27.391,37.462,27.391,37.462,28.991z"/>
<path id="Path_400_" fill="#AB968C" d="M37.083,28.293c0,0.723,1.045,0.723,1.045,0C38.128,27.623,37.083,27.623,37.083,28.293z"/>
<path id="Path_399_" fill="#DB9D3A" d="M34.442,29.182c1.012-3.251,7.92-2.786,8.865-0.585
	C42.958,25.796,35.306,25.057,34.442,29.182z"/>
<linearGradient id="SVGID_2_" gradientUnits="userSpaceOnUse" x1="31.8364" y1="31.8179" x2="31.8364" y2="6">
	<stop  offset="0" style="stop-color:#473834"/>
	<stop  offset="0.2717" style="stop-color:#594640"/>
	<stop  offset="0.7226" style="stop-color:#715950"/>
	<stop  offset="1" style="stop-color:#7A6056"/>
	<a:midPointStop  offset="0" style="stop-color:#473834"/>
	<a:midPointStop  offset="0.4" style="stop-color:#473834"/>
	<a:midPointStop  offset="1" style="stop-color:#7A6056"/>
</linearGradient>
<path fill="url(#SVGID_2_)" d="M32.001,6c-6.711,0-10.064,3.035-10.744,4.473c-8.113,1.852-10.723,15.515-4.648,21.345
	c0.754-6.211,1.48-10.201,5.617-14.405c2.412,3.227,7.424,5.042,11.91,5.042c-2.125-1.541-3.574-3.051-4.711-4.458
	c7.494,3.433,15.885,5.63,17.969,13.821C54.603,20.359,48.614,6,32.001,6z"/>
<path fill="#014D87" d="M51.031,9.332C47.492,6.254,37.001,2,32.001,2c-5.002,0-15.493,4.254-19.033,7.332
	c-1.31,1.139-1.605,4.107,1.132,5.09c2.328,0.836,33.472,0.836,35.8,0C52.637,13.439,52.342,10.471,51.031,9.332z"/>
<path fill="#006DAE" d="M32,12.976c0,0-13.997,0-18.074,1.37l0.248,0.535H32h17.826l0.248-0.535C45.996,12.976,32,12.976,32,12.976z
	"/>
<path fill="#014D87" d="M14.374,14.88l-0.317,2.962L32,18.535l17.943-0.692l-0.316-2.962C43.134,13.262,20.922,13.249,14.374,14.88z
	"/>
<path fill="#302C3B" d="M32,14.736c-10.63,0-17.977,0.938-17.977,0.938l-0.067,1.285c0,0,7.49-1.113,18.044-1.113
	c10.553,0,18.044,1.113,18.044,1.113l-0.067-1.285C49.977,15.675,42.633,14.736,32,14.736z"/>
<path fill="#302C3B" d="M31.999,25.487c5.543,0,16.989-1.724,19.18-4.618c0.831-1.097-1.235-3.025-1.235-3.025
	s-7.377-0.692-17.944-0.692c-10.568,0-17.944,0.692-17.944,0.692s-2.066,1.929-1.236,3.025
	C15.01,23.762,26.458,25.487,31.999,25.487z"/>
<path fill="#302C3B" d="M13.64,16.235c0.109-1.504,1.348-1.386,1.242,0.119C14.772,17.858,13.533,17.741,13.64,16.235z"/>
<path fill="#302C3B" d="M50.33,16.235c-0.105-1.504-1.348-1.386-1.242,0.119C49.195,17.858,50.438,17.741,50.33,16.235z"/>
<linearGradient id="SVGID_3_" gradientUnits="userSpaceOnUse" x1="27.5503" y1="10.1719" x2="36.4492" y2="10.1719">
	<stop  offset="0" style="stop-color:#FFE12C"/>
	<stop  offset="0.2866" style="stop-color:#FFDA25"/>
	<stop  offset="0.695" style="stop-color:#FFC813"/>
	<stop  offset="1" style="stop-color:#FFB600"/>
	<a:midPointStop  offset="0" style="stop-color:#FFE12C"/>
	<a:midPointStop  offset="0.6303" style="stop-color:#FFE12C"/>
	<a:midPointStop  offset="1" style="stop-color:#FFB600"/>
</linearGradient>
<path fill="url(#SVGID_3_)" d="M36.286,6.331L35.02,4.915C33.367,5.981,32,4.672,32,4.672s-1.369,1.309-3.018,0.243l-1.267,1.416
	c2.122,1.246-0.734,3.26-0.06,5.44c0.94,3.03,3.195,2.699,4.344,3.901c1.148-1.202,3.404-0.871,4.343-3.901
	C37.021,9.591,34.162,7.577,36.286,6.331z"/>
</svg>
