<?xml version="1.0" encoding="utf-8"?>
<!-- Generator: Adobe Illustrator 15.0.0, SVG Export Plug-In . SVG Version: 6.00 Build 0)  -->
<!DOCTYPE svg PUBLIC "-//W3C//DTD SVG 1.1//EN" "http://www.w3.org/Graphics/SVG/1.1/DTD/svg11.dtd" [
	<!ENTITY ns_flows "http://ns.adobe.com/Flows/1.0/">
	<!ENTITY ns_extend "http://ns.adobe.com/Extensibility/1.0/">
	<!ENTITY ns_ai "http://ns.adobe.com/AdobeIllustrator/10.0/">
	<!ENTITY ns_graphs "http://ns.adobe.com/Graphs/1.0/">
]>
<svg version="1.1" id="Layer_1" xmlns:x="&ns_extend;" xmlns:i="&ns_ai;" xmlns:graph="&ns_graphs;"
	 xmlns="http://www.w3.org/2000/svg" xmlns:xlink="http://www.w3.org/1999/xlink" xmlns:a="http://ns.adobe.com/AdobeSVGViewerExtensions/3.0/"
	 x="0px" y="0px" width="64px" height="64px" viewBox="0 0 64 64" enable-background="new 0 0 64 64" xml:space="preserve">
<rect x="4.674" y="29.015" fill="#99A8AE" width="6.156" height="7.377"/>
<rect x="5.982" y="27.792" fill="#4E5E67" width="3.539" height="7.375"/>
<rect x="53.172" y="29.015" fill="#99A8AE" width="6.156" height="7.377"/>
<rect x="54.48" y="27.792" fill="#4E5E67" width="3.539" height="7.375"/>
<path fill="#CFD8DD" d="M57.537,52.485l-1.092-0.822c-0.064-3.563-16.264-8.25-16.264-8.25H23.818c0,0-16.197,4.688-16.262,8.25
	l-1.096,0.822C3.721,52.437,2,61.999,2,61.999h60C62,61.999,60.279,52.437,57.537,52.485z"/>
<path fill="#99A8AE" d="M11.797,61.999h-1.535c0-5.379-3.801-9.514-3.801-9.514l1.096-0.822
	C7.557,51.663,11.797,55.903,11.797,61.999z"/>
<path fill="#99A8AE" d="M52.205,61.999h1.533c0-5.379,3.799-9.514,3.799-9.514l-1.092-0.822
	C56.445,51.663,52.205,55.903,52.205,61.999z"/>
<path fill="#018BC9" d="M4.83,53.616c0,0-1.793,1.834-1.873,4.402c0,0.859,2.156,3.459,2.156,3.459s1.799-1.646,2.615-3.137
	C5.373,55.478,4.83,53.616,4.83,53.616z"/>
<path fill="#99A8AE" d="M47.67,42.608c-2.129,0-29.217,0-31.344,0c-2.984,0-2.607,2.113-2.607,4.227
	c0,4.756,10.385,7.047,18.281,7.047s18.281-2.291,18.281-7.047C50.281,44.722,50.658,42.608,47.67,42.608"/>
<path fill="#99A8AE" d="M62,25.341c0,2.148-1.74,3.887-3.887,3.887H5.887C3.74,29.228,2,27.489,2,25.341v-6.684
	c0-2.146,1.74-3.887,3.887-3.887h52.227c2.146,0,3.887,1.74,3.887,3.887V25.341z"/>
<circle fill="#302C3B" cx="32" cy="25.999" r="22"/>
<path fill="#7D8D96" d="M61.002,18.853c0,3.332-5.002,3.332-5.002,0C56,15.517,61.002,15.517,61.002,18.853z"/>
<path fill="#7D8D96" d="M61.002,25.155c0,3.002-4.502,3.002-4.502,0C56.5,22.157,61.002,22.157,61.002,25.155z"/>
<path fill="#CFD8DD" d="M60.502,18.853c0,2.664-4.002,2.664-4.002,0C56.5,16.185,60.502,16.185,60.502,18.853z"/>
<path fill="#CFD8DD" d="M60.502,25.155c0,2.334-3.502,2.334-3.502,0C57,22.823,60.502,22.823,60.502,25.155z"/>
<path fill="#7D8D96" d="M8.002,18.853c0,3.332-5.002,3.332-5.002,0C3,15.517,8.002,15.517,8.002,18.853z"/>
<path fill="#7D8D96" d="M7.502,25.155c0,3.002-4.502,3.002-4.502,0C3,22.157,7.502,22.157,7.502,25.155z"/>
<path fill="#CFD8DD" d="M7.502,18.853c0,2.666-4.002,2.666-4.002,0C3.5,16.185,7.502,16.185,7.502,18.853z"/>
<path fill="#CFD8DD" d="M7.002,25.155c0,2.334-3.502,2.334-3.502,0C3.5,22.823,7.002,22.823,7.002,25.155z"/>
<path fill="#E6EBEF" d="M44,61.999H20v-5h5.938c0,0,1.227-0.855,1.475-1c0.834-0.49,6.438-0.508,7.273,0
	c0.242,0.146,1.396,1,1.396,1H44V61.999z"/>
<rect x="28.068" y="58.624" fill="#99A8AE" width="6.156" height="3.375"/>
<rect x="22.172" y="60.312" fill="#99A8AE" width="2.701" height="1.688"/>
<rect x="21.568" y="56.479" fill="#99A8AE" width="2.701" height="0.52"/>
<rect x="38.707" y="56.479" fill="#99A8AE" width="1.5" height="0.52"/>
<path fill="#99A8AE" d="M39.457,59.333c-1.473,0-2.666,1.193-2.666,2.666h5.332C42.123,60.526,40.93,59.333,39.457,59.333z"/>
<path fill="#6B4435" d="M39.582,47.741c15.168-6.066,11.65-17.477,11.65-17.477H12.766c0,0-3.516,11.41,11.648,17.477H39.582z"/>
<linearGradient id="SVGID_1_" gradientUnits="userSpaceOnUse" x1="48.8252" y1="44.9668" x2="48.8252" y2="14.6322">
	<stop  offset="0.05" style="stop-color:#6B4435"/>
	<stop  offset="0.088" style="stop-color:#6E4637"/>
	<stop  offset="0.467" style="stop-color:#865947"/>
	<stop  offset="0.7" style="stop-color:#8F604D"/>
	<a:midPointStop  offset="0.05" style="stop-color:#6B4435"/>
	<a:midPointStop  offset="0.4" style="stop-color:#6B4435"/>
	<a:midPointStop  offset="0.7" style="stop-color:#8F604D"/>
</linearGradient>
<path fill="url(#SVGID_1_)" d="M47.332,31.804c0.752,3.158-0.096,8.26-2.432,12.658l7.576-7.373c0,0,0.273-2.068,0.273-3.053
	L47.332,31.804z"/>
<linearGradient id="SVGID_2_" gradientUnits="userSpaceOnUse" x1="1765.6396" y1="44.9668" x2="1765.6396" y2="14.6322" gradientTransform="matrix(-1 0 0 1 1780.8145 0)">
	<stop  offset="0.05" style="stop-color:#6B4435"/>
	<stop  offset="0.088" style="stop-color:#6E4637"/>
	<stop  offset="0.467" style="stop-color:#865947"/>
	<stop  offset="0.7" style="stop-color:#8F604D"/>
	<a:midPointStop  offset="0.05" style="stop-color:#6B4435"/>
	<a:midPointStop  offset="0.4" style="stop-color:#6B4435"/>
	<a:midPointStop  offset="0.7" style="stop-color:#8F604D"/>
</linearGradient>
<path fill="url(#SVGID_2_)" d="M16.666,31.804c-0.75,3.158,0.098,8.258,2.434,12.658l-7.379-6.41c0,0-0.471-2.73-0.471-4.016
	L16.666,31.804z"/>
<path fill="#B88A6F" d="M32,8.274c-11.006,0-16.307,8.963-15.645,20.486c0.137,2.314,0.781,5.656,1.576,8.52
	C19.582,43.231,28.291,49.224,32,49.224c3.707,0,12.416-5.992,14.068-11.943c0.795-2.863,1.439-6.205,1.574-8.52
	C48.305,17.237,43.006,8.274,32,8.274z"/>
<path fill="#A35A3B" d="M31.998,39.87c-2.578-1.135-2.6-0.047-6.58,0.221c1.494,1.697,2.594,3.879,6.578,3.879
	c4.574,0,5.348-2.479,6.586-3.879C34.596,39.823,34.58,38.735,31.998,39.87z"/>
<path fill="#FFFFFF" d="M26.613,40.513c2.6,2.705,8.205,2.67,10.771,0.002C33.383,40.944,30.615,40.944,26.613,40.513z"/>
<path fill="#78513A" d="M43.693,24.927c-2.391-1.426-6.68-1.6-8.377-0.629c-0.359,0.195-0.262,1.225,0.049,1.096
	c2.42-1.006,6.107-1.057,8.379,0.109C44.049,25.655,44.057,25.134,43.693,24.927z"/>
<path fill="#78513A" d="M20.305,24.927c2.391-1.426,6.678-1.6,8.379-0.629c0.359,0.195,0.264,1.225-0.049,1.096
	c-2.422-1.006-6.105-1.059-8.381,0.109C19.949,25.655,19.943,25.134,20.305,24.927z"/>
<path fill="#8C5F44" d="M34.473,36.212c-0.262-0.184-0.877,0.1-2.475,0.1c-1.596,0-2.211-0.283-2.473-0.1
	c-0.314,0.221,0.184,1.219,2.473,1.219S34.789,36.435,34.473,36.212z"/>
<path id="Path_1577_" fill="#FFFFFF" d="M29.551,29.249c0.094,0.729-0.4,1.592-1.77,2.238c-0.869,0.412-2.678,0.896-5.055-0.107
	c-1.064-0.447-2.104-1.846-2.01-2.619C22.004,26.331,28.346,25.976,29.551,29.249z"/>
<linearGradient id="Oval_1_" gradientUnits="userSpaceOnUse" x1="-424.5796" y1="477.4414" x2="-424.5796" y2="478.1992" gradientTransform="matrix(6.5701 0 0 -6.5701 2814.7805 3168.5281)">
	<stop  offset="0" style="stop-color:#A6694A"/>
	<stop  offset="1" style="stop-color:#4F2A1E"/>
	<a:midPointStop  offset="0" style="stop-color:#A6694A"/>
	<a:midPointStop  offset="0.5" style="stop-color:#A6694A"/>
	<a:midPointStop  offset="1" style="stop-color:#4F2A1E"/>
</linearGradient>
<circle id="Oval_242_" fill="url(#Oval_1_)" cx="25.248" cy="29.2" r="2.49"/>
<path id="Path_1576_" fill="#1A1626" d="M24.004,29.155c0,1.723,2.492,1.723,2.492,0C26.496,27.556,24.004,27.556,24.004,29.155z"/>
<path id="Path_1575_" fill="#AB968C" d="M23.625,28.456c0,0.725,1.045,0.725,1.045,0C24.67,27.788,23.625,27.788,23.625,28.456z"/>
<path id="Path_1574_" fill="#45332C" d="M29.563,29.345c-1.012-3.25-7.908-2.77-8.846-0.584
	C21.064,25.962,28.701,25.222,29.563,29.345z"/>
<path id="Path_1573_" fill="#FFFFFF" d="M34.447,29.249c-0.092,0.729,0.402,1.592,1.771,2.238c0.869,0.412,2.678,0.896,5.055-0.107
	c1.066-0.447,2.104-1.846,2.01-2.619C41.996,26.331,35.654,25.976,34.447,29.249z"/>
<linearGradient id="Oval_2_" gradientUnits="userSpaceOnUse" x1="-425.2319" y1="477.4414" x2="-425.2319" y2="478.1992" gradientTransform="matrix(6.5701 0 0 -6.5701 2832.511 3168.5281)">
	<stop  offset="0" style="stop-color:#A6694A"/>
	<stop  offset="1" style="stop-color:#4F2A1E"/>
	<a:midPointStop  offset="0" style="stop-color:#A6694A"/>
	<a:midPointStop  offset="0.5" style="stop-color:#A6694A"/>
	<a:midPointStop  offset="1" style="stop-color:#4F2A1E"/>
</linearGradient>
<circle id="Oval_241_" fill="url(#Oval_2_)" cx="38.695" cy="29.2" r="2.49"/>
<path id="Path_1572_" fill="#1A1626" d="M37.451,29.155c0,1.723,2.49,1.723,2.49,0C39.941,27.556,37.451,27.556,37.451,29.155z"/>
<path id="Path_1571_" fill="#AB968C" d="M37.07,28.456c0,0.725,1.045,0.725,1.045,0C38.115,27.788,37.07,27.788,37.07,28.456z"/>
<path id="Path_1570_" fill="#45332C" d="M34.438,29.345c1.01-3.248,7.902-2.783,8.846-0.584
	C42.934,25.962,35.299,25.222,34.438,29.345z"/>
<linearGradient id="SVGID_3_" gradientUnits="userSpaceOnUse" x1="32.0005" y1="51.4961" x2="32.0005" y2="6.113">
	<stop  offset="0.05" style="stop-color:#6B4435"/>
	<stop  offset="0.088" style="stop-color:#6E4637"/>
	<stop  offset="0.467" style="stop-color:#865947"/>
	<stop  offset="0.7" style="stop-color:#8F604D"/>
	<a:midPointStop  offset="0.05" style="stop-color:#6B4435"/>
	<a:midPointStop  offset="0.4" style="stop-color:#6B4435"/>
	<a:midPointStop  offset="0.7" style="stop-color:#8F604D"/>
</linearGradient>
<path fill="url(#SVGID_3_)" d="M44.385,9.884c1.258-1.795-9.387-5.582-19.438-3.023C14.908,9.159,11.25,24.2,11.25,34.036
	c0.898,0.713,4.396-1.064,5.416-2.232c0.416-1.723,1.072-3.494,1.684-5.328c7.539-4.365,16.07-5.393,21.992-10.617
	c-0.758,2.275,3.256,5.145,5.309,10.617c0.664,1.773,1.26,3.553,1.682,5.328c1.674,1.539,3.014,2.268,5.418,2.232
	C52.75,25.718,48.41,8.722,44.385,9.884z"/>
<path fill="#6B4435" d="M13.059,32.54c6.943-9.246,27.438-8.619,31.326-22.656C36.834,21.665,14.955,23.651,13.059,32.54z"/>
<radialGradient id="SVGID_4_" cx="28.001" cy="19.167" r="17.3159" gradientTransform="matrix(1 0 0 1.5 0 -9.5835)" gradientUnits="userSpaceOnUse">
	<stop  offset="0" style="stop-color:#E6EBEF"/>
	<stop  offset="0.1926" style="stop-color:#D7DEE2"/>
	<stop  offset="1" style="stop-color:#99A8AE"/>
	<a:midPointStop  offset="0" style="stop-color:#E6EBEF"/>
	<a:midPointStop  offset="0.4848" style="stop-color:#E6EBEF"/>
	<a:midPointStop  offset="1" style="stop-color:#99A8AE"/>
</radialGradient>
<path fill="url(#SVGID_4_)" d="M53.73,25.089c0.176-0.949,0.27-1.92,0.27-2.91c0-10.273-9.85-18.6-22-18.6s-22,8.326-22,18.6
	c0,0.99,0.094,1.961,0.27,2.91C13.76,11.267,50.242,11.267,53.73,25.089z"/>
<path fill="#CFD8DD" d="M32,2.001c-13.254,0-24,10.744-24,23.998s10.746,24,24,24s24-10.746,24-24S45.254,2.001,32,2.001z
	 M32,47.499c-11.873,0-21.5-9.627-21.5-21.5c0-11.875,9.627-21.5,21.5-21.5c11.875,0,21.5,9.625,21.5,21.5
	C53.5,37.872,43.875,47.499,32,47.499z"/>
<polygon fill="#CFD8DD" points="45.518,43.905 44.809,40.829 46.871,38.81 50.715,38.81 "/>
<path fill="#302C3B" d="M38.387,43.78c-0.797,0-0.797-0.969,0-0.969c5.953,0,7.391-2.5,9.953-3.313
	c0.666-0.211,1.234,1.469,0.125,2.201C48.09,41.946,44.262,43.78,38.387,43.78z"/>
<radialGradient id="SVGID_5_" cx="24.25" cy="18.2192" r="31.0858" gradientUnits="userSpaceOnUse">
	<stop  offset="0" style="stop-color:#FFFFFF;stop-opacity:0.73"/>
	<stop  offset="0.7879" style="stop-color:#FFFFFF;stop-opacity:0"/>
	<a:midPointStop  offset="0" style="stop-color:#FFFFFF;stop-opacity:0.73"/>
	<a:midPointStop  offset="0.4848" style="stop-color:#FFFFFF;stop-opacity:0.73"/>
	<a:midPointStop  offset="0.7879" style="stop-color:#FFFFFF;stop-opacity:0"/>
</radialGradient>
<path opacity="0.8" fill="url(#SVGID_5_)" d="M10.521,25.462c-0.016,0.34-0.025,0.68-0.025,1.023
	c0,11.908,9.627,21.014,21.504,21.014c11.875,0,21.504-9.105,21.504-21.014c0-0.344-0.01-0.684-0.025-1.023
	C49.828,12.099,14.172,12.099,10.521,25.462z"/>
</svg>
