<?xml version="1.0" encoding="utf-8"?>
<!-- Generator: Adobe Illustrator 15.0.0, SVG Export Plug-In . SVG Version: 6.00 Build 0)  -->
<!DOCTYPE svg PUBLIC "-//W3C//DTD SVG 1.1//EN" "http://www.w3.org/Graphics/SVG/1.1/DTD/svg11.dtd" [
	<!ENTITY ns_flows "http://ns.adobe.com/Flows/1.0/">
	<!ENTITY ns_extend "http://ns.adobe.com/Extensibility/1.0/">
	<!ENTITY ns_ai "http://ns.adobe.com/AdobeIllustrator/10.0/">
	<!ENTITY ns_graphs "http://ns.adobe.com/Graphs/1.0/">
]>
<svg version="1.1" id="Layer_1" xmlns:x="&ns_extend;" xmlns:i="&ns_ai;" xmlns:graph="&ns_graphs;"
	 xmlns="http://www.w3.org/2000/svg" xmlns:xlink="http://www.w3.org/1999/xlink" xmlns:a="http://ns.adobe.com/AdobeSVGViewerExtensions/3.0/"
	 x="0px" y="0px" width="64px" height="64px" viewBox="0 0 64 64" enable-background="new 0 0 64 64" xml:space="preserve">
<path id="Path_112_" fill="#FFCC66" d="M58.76,44.188c-1.732,0.209-2.984,6.01-1.895,7.541c0.152,0.214,1.045,0.556,1.707-0.797
	c0.367-0.747,1.426-1.371,1.752-2.914C60.744,46.039,60.482,43.979,58.76,44.188z"/>
<path id="Path_111_" fill="#FFCC66" d="M36.379,44.188c1.734,0.209,2.984,6.01,1.895,7.541c-0.152,0.214-1.047,0.556-1.707-0.797
	c-0.367-0.747-1.426-1.371-1.752-2.914C34.395,46.039,34.656,43.979,36.379,44.188z"/>
<path id="Path_110_" fill="#DB9D3A" d="M58.713,45.3c-0.453,0.142-0.945,0.831-1.213,1.976c1.58-0.34,1.186,2.291-0.188,2.34
	c0.012,0.266,0.029,0.538,0.063,0.824c0.662-0.961,1.334-0.575,1.998-2.004C59.975,47.146,59.832,44.948,58.713,45.3z"/>
<path id="Path_109_" fill="#DB9D3A" d="M37.639,47.271c-0.268-1.143-0.76-1.831-1.211-1.972c-1.119-0.353-1.264,1.847-0.664,3.136
	c0.666,1.429,1.338,1.043,2.002,2.004c0.031-0.287,0.049-0.561,0.061-0.824C36.467,49.551,36.078,46.951,37.639,47.271z"/>
<path id="Path_108_" fill="#FFCC66" d="M47.568,33.033c-7.504,0-11.121,5.68-10.668,13.575c0.09,1.589,1.076,6.77,2.006,8.628
	c0.951,1.902,4.133,4.834,6.082,5.441c1.232,0.383,3.93,0.383,5.16,0c1.951-0.607,5.135-3.539,6.084-5.441
	c0.932-1.858,1.916-7.039,2.006-8.628C58.691,38.713,55.076,33.033,47.568,33.033z"/>
<path id="Path_107_" fill="#966F42" d="M55.725,43.607c-1.717-0.908-5.002-0.953-6.227-0.32c-0.262,0.123-0.088,0.984,0.133,0.902
	c1.705-0.674,4.455-0.689,6.051,0.059C55.896,44.345,55.984,43.734,55.725,43.607z"/>
<path id="Path_106_" fill="#966F42" d="M39.414,43.607c1.717-0.908,5-0.953,6.225-0.32c0.262,0.123,0.09,0.984-0.131,0.902
	c-1.707-0.674-4.455-0.689-6.053,0.059C39.242,44.345,39.154,43.734,39.414,43.607z"/>
<path id="Path_105_" fill="#DB9D3A" d="M49.594,51.493c-0.213-0.149-0.717,0.081-2.025,0.081c-1.307,0-1.809-0.23-2.025-0.081
	c-0.256,0.181,0.152,0.997,2.025,0.997C49.443,52.49,49.852,51.674,49.594,51.493z"/>
<path id="Path_104_" fill="#DB9D3A" d="M47.568,54.586c-1.688-0.496-4.189,0.236-4.189,0.236c0.953,1.038,1.652,2.384,4.189,2.384
	c2.91,0,3.404-1.528,4.191-2.384C51.76,54.822,49.256,54.088,47.568,54.586z"/>
<path id="Path_103_" fill="#FFFFFF" d="M44.008,54.998c1.77,1.484,5.344,1.494,7.123,0C49.246,55.078,45.908,55.079,44.008,54.998z"
	/>
<path id="Path_102_" fill="#FFFFFF" d="M45.898,46.706c0.064,0.497-0.273,1.085-1.207,1.526c-0.592,0.281-1.826,0.611-3.447-0.072
	c-0.727-0.307-1.436-1.261-1.371-1.788C40.752,44.716,45.076,44.473,45.898,46.706z"/>
<linearGradient id="Oval_1_" gradientUnits="userSpaceOnUse" x1="-421.8833" y1="474.9023" x2="-421.8833" y2="475.4189" gradientTransform="matrix(6.5701 0 0 -6.5701 2814.7805 3168.5281)">
	<stop  offset="0" style="stop-color:#A6694A"/>
	<stop  offset="1" style="stop-color:#4F2A1E"/>
	<a:midPointStop  offset="0" style="stop-color:#A6694A"/>
	<a:midPointStop  offset="0.5" style="stop-color:#A6694A"/>
	<a:midPointStop  offset="1" style="stop-color:#4F2A1E"/>
</linearGradient>
<circle id="Oval_16_" fill="url(#Oval_1_)" cx="42.965" cy="46.672" r="1.699"/>
<path id="Path_101_" fill="#1A1626" d="M42.115,46.641c0,1.176,1.699,1.176,1.699,0C43.814,45.55,42.115,45.55,42.115,46.641z"/>
<path id="Path_100_" fill="#AB968C" d="M41.857,46.166c0,0.492,0.713,0.492,0.713,0C42.57,45.709,41.857,45.709,41.857,46.166z"/>
<path id="Path_99_" fill="#DB9D3A" d="M45.908,46.771c-0.691-2.218-5.395-1.891-6.035-0.399
	C40.111,44.463,45.32,43.959,45.908,46.771z"/>
<path id="Path_98_" fill="#FFFFFF" d="M49.238,46.706c-0.063,0.497,0.275,1.085,1.209,1.526c0.592,0.281,1.826,0.611,3.447-0.072
	c0.727-0.307,1.434-1.261,1.371-1.788C54.387,44.716,50.061,44.473,49.238,46.706z"/>
<linearGradient id="Oval_2_" gradientUnits="userSpaceOnUse" x1="-423.186" y1="474.9023" x2="-423.186" y2="475.4189" gradientTransform="matrix(6.5701 0 0 -6.5701 2832.511 3168.5281)">
	<stop  offset="0" style="stop-color:#A6694A"/>
	<stop  offset="1" style="stop-color:#4F2A1E"/>
	<a:midPointStop  offset="0" style="stop-color:#A6694A"/>
	<a:midPointStop  offset="0.5" style="stop-color:#A6694A"/>
	<a:midPointStop  offset="1" style="stop-color:#4F2A1E"/>
</linearGradient>
<circle id="Oval_15_" fill="url(#Oval_2_)" cx="52.135" cy="46.672" r="1.699"/>
<path id="Path_97_" fill="#1A1626" d="M51.287,46.641c0,1.176,1.699,1.176,1.699,0C52.986,45.55,51.287,45.55,51.287,46.641z"/>
<path id="Path_96_" fill="#AB968C" d="M51.027,46.166c0,0.492,0.713,0.492,0.713,0C51.74,45.709,51.027,45.709,51.027,46.166z"/>
<path id="Path_95_" fill="#DB9D3A" d="M49.232,46.771c0.689-2.217,5.389-1.898,6.033-0.399
	C55.027,44.463,49.818,43.959,49.232,46.771z"/>
<path fill="#7A6056" d="M57.156,34.916c-1.645-2.225-4.65-3.951-9.588-3.951c-4.936,0-7.941,1.727-9.584,3.951
	C35.658,38.063,59.48,38.063,57.156,34.916z"/>
<linearGradient id="SVGID_1_" gradientUnits="userSpaceOnUse" x1="47.5703" y1="48.5508" x2="47.5703" y2="33.9736">
	<stop  offset="0.5" style="stop-color:#473834"/>
	<stop  offset="0.6387" style="stop-color:#503F3A"/>
	<stop  offset="0.8641" style="stop-color:#68524A"/>
	<stop  offset="1" style="stop-color:#7A6056"/>
	<a:midPointStop  offset="0.5" style="stop-color:#473834"/>
	<a:midPointStop  offset="0.6" style="stop-color:#473834"/>
	<a:midPointStop  offset="1" style="stop-color:#7A6056"/>
</linearGradient>
<path fill="url(#SVGID_1_)" d="M57.156,34.916c-1.645-2.225-4.65,0.188-9.588,0.188c-4.936,0-7.941-2.412-9.584-0.188
	c-2.326,3.147-1.535,13.635-0.502,13.635c0.166,0,0.188-3.67,0.502-6.207c0.254-2.066,0.746-4.069,1.309-4.396
	c1.725-1,5.047,0.43,8.275,0.43c3.23,0,6.555-1.43,8.277-0.43c0.564,0.327,1.055,2.33,1.311,4.396
	c0.313,2.537,0.336,6.207,0.5,6.207C58.691,48.551,59.48,38.063,57.156,34.916z"/>
<path fill="#473834" d="M24.189,61.482C34.535,57.344,33.5,47.517,33.5,47.517H4.535c0,0-1.035,9.827,9.309,13.966
	c0,0,2.07,0.518,5.174,0.518S24.189,61.482,24.189,61.482z"/>
<path fill="#FFCC66" d="M19.018,32.518c-7.506,0-11.121,6.113-10.67,13.973c0.094,1.579,0.533,3.857,1.074,5.811
	c1.127,4.06,7.066,8.146,9.596,8.146s8.469-4.087,9.596-8.146c0.543-1.953,0.982-4.231,1.074-5.811
	C30.139,38.631,26.525,32.518,19.018,32.518z"/>
<path fill="#D47706" d="M19.018,54.066c-1.76-0.773-1.773-0.031-4.49,0.151c1.02,1.157,1.771,2.646,4.488,2.646
	c3.119,0,3.646-1.689,4.492-2.646C20.789,54.035,20.777,53.293,19.018,54.066z"/>
<path fill="#FFFFFF" d="M15.344,54.506c1.773,1.846,5.596,1.821,7.348,0.002C19.961,54.801,18.074,54.801,15.344,54.506z"/>
<path fill="#966F42" d="M26.994,43.875c-1.631-0.973-4.557-1.092-5.713-0.429c-0.246,0.134-0.18,0.835,0.031,0.747
	c1.65-0.687,4.166-0.721,5.717,0.074C27.236,44.373,27.24,44.016,26.994,43.875z"/>
<path fill="#966F42" d="M11.041,43.875c1.631-0.973,4.555-1.092,5.715-0.429c0.246,0.134,0.18,0.835-0.033,0.747
	c-1.652-0.687-4.164-0.722-5.717,0.074C10.799,44.373,10.795,44.016,11.041,43.875z"/>
<path fill="#DB9D3A" d="M20.705,51.572c-0.18-0.125-0.598,0.068-1.688,0.068s-1.51-0.193-1.688-0.068
	c-0.215,0.15,0.125,0.831,1.688,0.831C20.578,52.403,20.92,51.725,20.705,51.572z"/>
<path id="Path_94_" fill="#FFFFFF" d="M17.348,46.824c0.064,0.496-0.273,1.084-1.207,1.525c-0.594,0.281-1.826,0.611-3.447-0.072
	c-0.727-0.307-1.436-1.26-1.371-1.787C12.201,44.834,16.525,44.591,17.348,46.824z"/>
<linearGradient id="Oval_3_" gradientUnits="userSpaceOnUse" x1="-426.229" y1="474.8838" x2="-426.229" y2="475.4014" gradientTransform="matrix(6.5701 0 0 -6.5701 2814.7805 3168.5281)">
	<stop  offset="0" style="stop-color:#A6694A"/>
	<stop  offset="1" style="stop-color:#4F2A1E"/>
	<a:midPointStop  offset="0" style="stop-color:#A6694A"/>
	<a:midPointStop  offset="0.5" style="stop-color:#A6694A"/>
	<a:midPointStop  offset="1" style="stop-color:#4F2A1E"/>
</linearGradient>
<circle id="Oval_14_" fill="url(#Oval_3_)" cx="14.412" cy="46.79" r="1.698"/>
<path id="Path_93_" fill="#1A1626" d="M13.564,46.759c0,1.175,1.699,1.175,1.699,0C15.264,45.668,13.564,45.668,13.564,46.759z"/>
<path id="Path_92_" fill="#AB968C" d="M13.307,46.283c0,0.493,0.711,0.493,0.711,0C14.018,45.826,13.307,45.826,13.307,46.283z"/>
<path id="Path_91_" fill="#45332C" d="M17.355,46.889c-0.689-2.217-5.393-1.89-6.033-0.398
	C11.559,44.581,16.768,44.076,17.355,46.889z"/>
<path id="Path_90_" fill="#FFFFFF" d="M20.688,46.824c-0.064,0.496,0.273,1.084,1.207,1.525c0.594,0.281,1.826,0.611,3.449-0.072
	c0.727-0.307,1.434-1.26,1.369-1.787C25.836,44.834,21.51,44.591,20.688,46.824z"/>
<linearGradient id="Oval_4_" gradientUnits="userSpaceOnUse" x1="-427.5317" y1="474.8838" x2="-427.5317" y2="475.4014" gradientTransform="matrix(6.5701 0 0 -6.5701 2832.511 3168.5281)">
	<stop  offset="0" style="stop-color:#A6694A"/>
	<stop  offset="1" style="stop-color:#4F2A1E"/>
	<a:midPointStop  offset="0" style="stop-color:#A6694A"/>
	<a:midPointStop  offset="0.5" style="stop-color:#A6694A"/>
	<a:midPointStop  offset="1" style="stop-color:#4F2A1E"/>
</linearGradient>
<circle id="Oval_13_" fill="url(#Oval_4_)" cx="23.584" cy="46.79" r="1.698"/>
<path id="Path_89_" fill="#1A1626" d="M22.736,46.759c0,1.175,1.699,1.175,1.699,0C24.436,45.668,22.736,45.668,22.736,46.759z"/>
<path id="Path_88_" fill="#AB968C" d="M22.477,46.283c0,0.493,0.713,0.493,0.713,0C23.189,45.826,22.477,45.826,22.477,46.283z"/>
<path id="Path_87_" fill="#45332C" d="M20.68,46.889c0.689-2.216,5.391-1.898,6.033-0.398C26.475,44.581,21.268,44.076,20.68,46.889
	z"/>
<linearGradient id="SVGID_2_" gradientUnits="userSpaceOnUse" x1="19.0181" y1="61.4824" x2="19.0181" y2="30.9658">
	<stop  offset="0.05" style="stop-color:#473834"/>
	<stop  offset="0.2266" style="stop-color:#594640"/>
	<stop  offset="0.5197" style="stop-color:#715950"/>
	<stop  offset="0.7" style="stop-color:#7A6056"/>
	<a:midPointStop  offset="0.05" style="stop-color:#473834"/>
	<a:midPointStop  offset="0.4" style="stop-color:#473834"/>
	<a:midPointStop  offset="0.7" style="stop-color:#7A6056"/>
</linearGradient>
<path fill="url(#SVGID_2_)" d="M27.465,33.615c0.857-1.224-6.402-3.809-13.258-2.063C7.361,33.121,3.5,43.38,3.5,50.089
	c0,4.497,3.621,10.358,10.344,11.394c-7.406-5.187-6.211-10.33-4.137-16.551c5.143-2.978,10.961-3.678,15-7.242
	c-0.518,1.553,2.221,3.51,3.621,7.242c2.125,5.668,3.219,11.4-4.139,16.551c6.207-1.035,10.346-6.896,10.346-11.394
	C34.535,44.414,30.211,32.822,27.465,33.615z"/>
<path fill="#473834" d="M4.734,49.068c4.736-6.307,20.078-5.879,22.73-15.453C22.314,41.65,6.027,43.006,4.734,49.068z"/>
<linearGradient id="SVGID_3_" gradientUnits="userSpaceOnUse" x1="34" y1="30.5801" x2="34" y2="2">
	<stop  offset="0" style="stop-color:#DB0100"/>
	<stop  offset="0.5836" style="stop-color:#F31317"/>
	<stop  offset="1" style="stop-color:#FF1C23"/>
	<a:midPointStop  offset="0" style="stop-color:#DB0100"/>
	<a:midPointStop  offset="0.4242" style="stop-color:#DB0100"/>
	<a:midPointStop  offset="1" style="stop-color:#FF1C23"/>
</linearGradient>
<path fill="url(#SVGID_3_)" d="M42.167,2C38.789,2,35.811,3.678,34,6.241C32.189,3.678,29.211,2,25.833,2
	c-5.522,0-9.999,4.477-9.999,10c0,3.797,2.116,7.1,5.233,8.793C26.574,23.783,32.528,22.041,34,30.58
	c1.472-8.54,7.426-6.797,12.933-9.788c3.117-1.693,5.233-4.996,5.233-8.793C52.166,6.477,47.689,2,42.167,2z"/>
</svg>
