<?xml version="1.0" encoding="utf-8"?>
<!-- Generator: Adobe Illustrator 15.0.0, SVG Export Plug-In . SVG Version: 6.00 Build 0)  -->
<!DOCTYPE svg PUBLIC "-//W3C//DTD SVG 1.1//EN" "http://www.w3.org/Graphics/SVG/1.1/DTD/svg11.dtd" [
	<!ENTITY ns_flows "http://ns.adobe.com/Flows/1.0/">
	<!ENTITY ns_extend "http://ns.adobe.com/Extensibility/1.0/">
	<!ENTITY ns_ai "http://ns.adobe.com/AdobeIllustrator/10.0/">
	<!ENTITY ns_graphs "http://ns.adobe.com/Graphs/1.0/">
]>
<svg version="1.1" id="Layer_1" xmlns:x="&ns_extend;" xmlns:i="&ns_ai;" xmlns:graph="&ns_graphs;"
	 xmlns="http://www.w3.org/2000/svg" xmlns:xlink="http://www.w3.org/1999/xlink" xmlns:a="http://ns.adobe.com/AdobeSVGViewerExtensions/3.0/"
	 x="0px" y="0px" width="64px" height="64px" viewBox="0 0 64 64" enable-background="new 0 0 64 64" xml:space="preserve">
<path fill="#302C3B" d="M13.996,61.9c-1.504-0.568,0.24-2.203-0.316-4.357c-1.086-4.201,2.66-3.943,3.107-1.947
	C17.746,59.875,15.75,62.561,13.996,61.9z"/>
<path fill="#FFCC66" d="M16.001,55.824c-0.273-5.205,1.084-5.941-0.873-9.408c1.021-3.064,0.502-4.807,0.502-4.807l-4.873-4.363
	c0,0,0.299,8.047,1.238,11.025c1.15,3.668,1.861,7.953,1.861,7.953C13.955,58.379,16.126,58.166,16.001,55.824z"/>
<path fill="#FFCC66" d="M7.281,29.854c0.947-1.076,1.217-2.242,1.217-2.242l-2.164-1.99c-2.777,4.668-2.633,4.125-1.82,5.414
	c1.852,2.932,5.93,3.922,5.93,3.922s0.477-2.316-0.016-2.547C9.066,31.768,8.728,30.541,7.281,29.854z"/>
<path fill="#FFCC66" d="M20.607,28.689c-0.67-0.314-1.059-1.174-1.059-1.174l2.117-2.375c2.869,3.934,3.127,3.027,1.975,5.133
	c-0.967,1.766-5.41,3.803-5.41,3.803s-1.834-1.639-1.359-1.893C18.927,31.092,19.142,29.281,20.607,28.689z"/>
<path fill="#302C3B" d="M29.497,52.758c-3.746-2.371-1.148-5.225,0.463-4.225C37.153,52.992,33.294,55.162,29.497,52.758z"/>
<path fill="#FFCC66" d="M30.089,49.762c-3.556-3.441-3.056-5.184-6.8-5.959c-1.111-5.996-4.957-9.15-4.957-9.15
	c-2.684,3.523-1.787,6.598-1.787,6.598s3.039,5.084,5.682,6.398c3.254,1.604,6.562,4.029,6.562,4.029
	C30.249,53.117,31.694,51.314,30.089,49.762z"/>
<path fill="#302C3B" d="M20.361,36.553c-0.496-1.09-1.15-2.207-2.662-3.768c-1.49-1.539,0.455-3.738,0.184-6.105l1.758,1.17
	l2.602-2.016c0,0-1.037-3.072-3.744-3.227c-1.576-1.994-7.15-2.408-10.043,0.35c-2.201,0.711-2.699,3.633-2.699,3.633l2.693,1.344
	l0.387-0.504c0.209,3.17,1.607,3.688,1.664,9.656c0.021,2.258,0.598,6.861,0.598,6.861h4.77l0.053-1.912
	c0.121,0.012,0.236,0.033,0.361,0.033c0.176,0,0.377-0.039,0.59-0.107l0.896,1.469l4.576-3.26
	C21.441,37.766,20.796,37.502,20.361,36.553z"/>
<path fill="#DFB257" d="M11.259,22.113c0,0,0.751,0.908,2.344,0.908c1.591,0,2.344-0.908,2.344-0.908v-2.576h-4.688V22.113z"/>
<path id="Path_26_" fill="#FFCC66" d="M18.874,14.241c-0.815,0.098-1.405,2.826-0.892,3.546c0.072,0.101,0.492,0.261,0.805-0.374
	c0.173-0.352,0.671-0.646,0.825-1.372C19.81,15.111,19.686,14.142,18.874,14.241z"/>
<path id="Path_25_" fill="#FFCC66" d="M8.331,14.241c0.815,0.098,1.405,2.826,0.892,3.546c-0.072,0.101-0.492,0.261-0.805-0.374
	c-0.172-0.352-0.671-0.646-0.825-1.372C7.395,15.111,7.519,14.142,8.331,14.241z"/>
<path id="Path_24_" fill="#DB9D3A" d="M18.852,14.763c-0.213,0.066-0.445,0.39-0.571,0.929c0.744-0.159,0.558,1.078-0.089,1.101
	c0.007,0.125,0.015,0.252,0.03,0.387c0.311-0.452,0.628-0.271,0.942-0.943C19.446,15.632,19.379,14.598,18.852,14.763z"/>
<path id="Path_23_" fill="#DB9D3A" d="M8.924,15.691c-0.127-0.538-0.359-0.861-0.571-0.928c-0.527-0.165-0.595,0.869-0.313,1.474
	c0.314,0.672,0.631,0.491,0.943,0.943c0.015-0.135,0.023-0.263,0.029-0.388C8.373,16.763,8.189,15.54,8.924,15.691z"/>
<path id="Path_22_" fill="#FFCC66" d="M13.602,8.995c-3.536,0-5.239,2.67-5.027,6.384c0.043,0.747,0.508,3.183,0.946,4.058
	c0.448,0.894,1.947,2.273,2.865,2.56c0.581,0.179,1.851,0.179,2.432,0c0.919-0.286,2.418-1.666,2.866-2.56
	c0.438-0.875,0.902-3.311,0.944-4.058C18.842,11.665,17.139,8.995,13.602,8.995z"/>
<path id="Path_21_" fill="#966F42" d="M17.445,13.968c-0.81-0.429-2.356-0.449-2.934-0.15c-0.124,0.057-0.041,0.462,0.062,0.424
	c0.804-0.317,2.1-0.324,2.852,0.027C17.525,14.314,17.567,14.027,17.445,13.968z"/>
<path id="Path_20_" fill="#966F42" d="M9.76,13.968c0.809-0.429,2.355-0.449,2.934-0.15c0.122,0.057,0.041,0.462-0.063,0.424
	c-0.805-0.317-2.1-0.324-2.852,0.027C9.679,14.314,9.638,14.027,9.76,13.968z"/>
<path id="Path_19_" fill="#DB9D3A" d="M14.557,17.676c-0.102-0.07-0.339,0.039-0.955,0.039c-0.615,0-0.854-0.108-0.954-0.039
	c-0.12,0.084,0.071,0.468,0.954,0.468S14.678,17.761,14.557,17.676z"/>
<path id="Path_18_" fill="#DB9D3A" d="M13.602,19.131c-0.795-0.233-1.974,0.111-1.974,0.111c0.449,0.488,0.777,1.121,1.974,1.121
	c1.371,0,1.604-0.719,1.974-1.121C15.576,19.242,14.397,18.896,13.602,19.131z"/>
<path id="Path_17_" fill="#FFFFFF" d="M11.924,19.324c0.833,0.698,2.518,0.703,3.356,0C14.391,19.362,12.819,19.363,11.924,19.324z"
	/>
<path id="Path_16_" fill="#FFFFFF" d="M12.815,15.424c0.03,0.234-0.129,0.511-0.568,0.719c-0.279,0.132-0.861,0.288-1.624-0.035
	c-0.343-0.144-0.676-0.592-0.646-0.841C10.39,14.489,12.427,14.375,12.815,15.424z"/>
<linearGradient id="Oval_1_" gradientUnits="userSpaceOnUse" x1="-426.6826" y1="479.7979" x2="-426.6826" y2="480.041" gradientTransform="matrix(6.5701 0 0 -6.5701 2814.7805 3168.5281)">
	<stop  offset="0" style="stop-color:#A6694A"/>
	<stop  offset="1" style="stop-color:#4F2A1E"/>
	<a:midPointStop  offset="0" style="stop-color:#A6694A"/>
	<a:midPointStop  offset="0.5" style="stop-color:#A6694A"/>
	<a:midPointStop  offset="1" style="stop-color:#4F2A1E"/>
</linearGradient>
<circle id="Oval_4_" fill="url(#Oval_1_)" cx="11.433" cy="15.409" r="0.799"/>
<path id="Path_15_" fill="#1A1626" d="M11.034,15.394c0,0.553,0.8,0.553,0.8,0C11.833,14.881,11.034,14.881,11.034,15.394z"/>
<path id="Path_14_" fill="#AB968C" d="M10.912,15.17c0,0.231,0.335,0.231,0.335,0C11.247,14.955,10.912,14.955,10.912,15.17z"/>
<path id="Path_13_" fill="#DB9D3A" d="M12.819,15.455c-0.324-1.042-2.541-0.889-2.843-0.188
	C10.087,14.37,12.542,14.133,12.819,15.455z"/>
<path id="Path_12_" fill="#FFFFFF" d="M14.389,15.424c-0.029,0.234,0.128,0.511,0.568,0.719c0.279,0.132,0.861,0.288,1.624-0.035
	c0.344-0.144,0.677-0.592,0.646-0.841C16.815,14.489,14.777,14.375,14.389,15.424z"/>
<linearGradient id="Oval_2_" gradientUnits="userSpaceOnUse" x1="-428.7236" y1="479.7979" x2="-428.7236" y2="480.041" gradientTransform="matrix(6.5701 0 0 -6.5701 2832.511 3168.5281)">
	<stop  offset="0" style="stop-color:#A6694A"/>
	<stop  offset="1" style="stop-color:#4F2A1E"/>
	<a:midPointStop  offset="0" style="stop-color:#A6694A"/>
	<a:midPointStop  offset="0.5" style="stop-color:#A6694A"/>
	<a:midPointStop  offset="1" style="stop-color:#4F2A1E"/>
</linearGradient>
<circle id="Oval_3_" fill="url(#Oval_2_)" cx="15.752" cy="15.409" r="0.799"/>
<path id="Path_11_" fill="#1A1626" d="M15.354,15.394c0,0.553,0.801,0.553,0.801,0C16.155,14.881,15.354,14.881,15.354,15.394z"/>
<path id="Path_10_" fill="#AB968C" d="M15.232,15.17c0,0.231,0.335,0.231,0.335,0C15.567,14.955,15.232,14.955,15.232,15.17z"/>
<path id="Path_9_" fill="#DB9D3A" d="M14.385,15.455c0.325-1.042,2.54-0.893,2.843-0.188C17.116,14.37,14.662,14.133,14.385,15.455z
	"/>
<path fill="#7A6056" d="M18.119,9.879c-0.774-1.045-2.19-1.857-4.517-1.857S9.861,8.834,9.086,9.879
	C7.991,11.36,19.214,11.36,18.119,9.879z"/>
<linearGradient id="SVGID_1_" gradientUnits="userSpaceOnUse" x1="13.6025" y1="16.292" x2="13.6025" y2="9.4365">
	<stop  offset="0.5" style="stop-color:#473834"/>
	<stop  offset="0.6387" style="stop-color:#503F3A"/>
	<stop  offset="0.8641" style="stop-color:#68524A"/>
	<stop  offset="1" style="stop-color:#7A6056"/>
	<a:midPointStop  offset="0.5" style="stop-color:#473834"/>
	<a:midPointStop  offset="0.6" style="stop-color:#473834"/>
	<a:midPointStop  offset="1" style="stop-color:#7A6056"/>
</linearGradient>
<path fill="url(#SVGID_1_)" d="M18.119,9.879c-0.774-1.045-2.19,0.089-4.517,0.089S9.861,8.834,9.086,9.879
	c-1.096,1.481-0.724,6.413-0.236,6.413c0.078,0,0.088-1.726,0.236-2.919c0.12-0.971,0.351-1.914,0.616-2.067
	c0.813-0.47,2.377,0.202,3.899,0.202c1.521,0,3.088-0.672,3.9-0.202c0.265,0.154,0.495,1.096,0.616,2.067
	c0.147,1.194,0.158,2.919,0.235,2.919C18.842,16.292,19.214,11.36,18.119,9.879z"/>
<path fill="#302C3B" d="M18.343,2.004c-0.291-0.102-2.76,1.793-2.836,3.369c-0.084,1.787-0.191,3.074-0.266,3.85
	c-0.752-0.104-2.529-0.1-3.277,0.014c-0.074-0.773-0.18-2.066-0.266-3.863c-0.076-1.576-2.545-3.471-2.838-3.369
	C8.386,2.168,7.529,5,8.337,6.232C9.501,8.004,10,9.107,10.214,9.752c-0.666,0.311-1.23,0.732-1.598,1.281
	c3.412-1.213,6.674-1.213,10.086,0c-0.385-0.576-0.984-1.016-1.695-1.328c0.225-0.648,0.723-1.742,1.859-3.473
	C19.675,5,18.82,2.168,18.343,2.004z"/>
<path fill="#302C3B" d="M39.995,61.9c-1.504-0.568,0.24-2.203-0.316-4.357c-1.086-4.201,2.66-3.943,3.107-1.947
	C43.745,59.875,41.749,62.561,39.995,61.9z"/>
<path fill="#FFCC66" d="M42.001,55.824c-0.273-5.205,1.084-5.941-0.873-9.408c1.021-3.064,0.502-4.807,0.502-4.807l-4.873-4.363
	c0,0,0.299,8.047,1.238,11.025c1.15,3.668,1.861,7.953,1.861,7.953C39.954,58.379,42.126,58.166,42.001,55.824z"/>
<path fill="#FFCC66" d="M33.28,29.854c0.947-1.076,1.217-2.242,1.217-2.242l-2.164-1.99c-2.777,4.668-2.633,4.125-1.82,5.414
	c1.852,2.932,5.93,3.922,5.93,3.922s0.477-2.316-0.016-2.547C35.065,31.768,34.728,30.541,33.28,29.854z"/>
<path fill="#FFCC66" d="M46.606,28.689c-0.67-0.314-1.059-1.174-1.059-1.174l2.117-2.375c2.869,3.934,3.127,3.027,1.975,5.133
	c-0.967,1.766-5.41,3.803-5.41,3.803s-1.834-1.639-1.359-1.893C44.927,31.092,45.142,29.281,46.606,28.689z"/>
<path fill="#302C3B" d="M55.497,52.758c-3.746-2.371-1.148-5.225,0.463-4.225C63.153,52.992,59.294,55.162,55.497,52.758z"/>
<path fill="#FFCC66" d="M56.089,49.762c-3.557-3.441-3.057-5.184-6.801-5.959c-1.111-5.996-4.957-9.15-4.957-9.15
	c-2.684,3.523-1.787,6.598-1.787,6.598s3.039,5.084,5.682,6.398c3.254,1.604,6.563,4.029,6.563,4.029
	C56.249,53.117,57.694,51.314,56.089,49.762z"/>
<path fill="#302C3B" d="M46.36,36.553c-0.496-1.09-1.15-2.207-2.662-3.768c-1.49-1.539,0.455-3.738,0.184-6.105l1.758,1.17
	l2.602-2.016c0,0-1.037-3.072-3.744-3.227c-1.576-1.994-7.15-2.408-10.043,0.35c-2.201,0.711-2.699,3.633-2.699,3.633l2.693,1.344
	l0.387-0.504c0.209,3.17,1.607,3.688,1.664,9.656c0.021,2.258,0.598,6.861,0.598,6.861h4.77l0.053-1.912
	c0.121,0.012,0.236,0.033,0.361,0.033c0.176,0,0.377-0.039,0.59-0.107l0.896,1.469l4.576-3.26
	C47.44,37.766,46.796,37.502,46.36,36.553z"/>
<path fill="#DFB257" d="M37.259,22.113c0,0,0.752,0.908,2.344,0.908s2.344-0.908,2.344-0.908v-2.576h-4.688V22.113z"/>
<path id="Path_44_" fill="#FFCC66" d="M44.874,14.241c-0.814,0.098-1.404,2.826-0.891,3.546c0.072,0.101,0.492,0.261,0.803-0.374
	c0.174-0.352,0.672-0.646,0.826-1.372C45.81,15.111,45.687,14.142,44.874,14.241z"/>
<path id="Path_43_" fill="#FFCC66" d="M34.331,14.241c0.816,0.098,1.406,2.826,0.893,3.546c-0.072,0.101-0.492,0.261-0.805-0.374
	c-0.174-0.352-0.672-0.646-0.826-1.372C33.396,15.111,33.519,14.142,34.331,14.241z"/>
<path id="Path_42_" fill="#DB9D3A" d="M44.853,14.763c-0.213,0.066-0.445,0.39-0.572,0.929c0.746-0.159,0.559,1.078-0.088,1.101
	c0.006,0.125,0.014,0.252,0.029,0.387c0.313-0.452,0.629-0.271,0.943-0.943C45.446,15.632,45.38,14.598,44.853,14.763z"/>
<path id="Path_41_" fill="#DB9D3A" d="M34.925,15.691c-0.127-0.538-0.359-0.861-0.572-0.928c-0.525-0.165-0.594,0.869-0.313,1.474
	c0.314,0.672,0.633,0.491,0.943,0.943c0.016-0.135,0.023-0.263,0.029-0.388C34.372,16.763,34.188,15.54,34.925,15.691z"/>
<path id="Path_40_" fill="#FFCC66" d="M39.603,8.995c-3.535,0-5.24,2.67-5.027,6.384c0.043,0.747,0.508,3.183,0.945,4.058
	c0.449,0.894,1.947,2.273,2.867,2.56c0.58,0.179,1.85,0.179,2.43,0c0.92-0.286,2.42-1.666,2.867-2.56
	c0.439-0.875,0.902-3.311,0.943-4.058C44.843,11.665,43.14,8.995,39.603,8.995z"/>
<path id="Path_39_" fill="#966F42" d="M43.444,13.968c-0.809-0.429-2.355-0.449-2.934-0.15c-0.123,0.057-0.041,0.462,0.063,0.424
	c0.803-0.317,2.1-0.324,2.852,0.027C43.526,14.314,43.567,14.027,43.444,13.968z"/>
<path id="Path_38_" fill="#966F42" d="M35.761,13.968c0.809-0.429,2.355-0.449,2.934-0.15c0.123,0.057,0.041,0.462-0.063,0.424
	c-0.805-0.317-2.1-0.324-2.852,0.027C35.681,14.314,35.64,14.027,35.761,13.968z"/>
<path id="Path_37_" fill="#DB9D3A" d="M40.558,17.676c-0.102-0.07-0.338,0.039-0.955,0.039c-0.615,0-0.854-0.108-0.955-0.039
	c-0.119,0.084,0.072,0.468,0.955,0.468S40.679,17.761,40.558,17.676z"/>
<path id="Path_36_" fill="#DB9D3A" d="M39.603,19.131c-0.795-0.233-1.973,0.111-1.973,0.111c0.447,0.488,0.775,1.121,1.973,1.121
	c1.371,0,1.604-0.719,1.975-1.121C41.577,19.242,40.397,18.896,39.603,19.131z"/>
<path id="Path_35_" fill="#FFFFFF" d="M37.925,19.324c0.834,0.698,2.518,0.703,3.355,0C40.392,19.362,38.819,19.363,37.925,19.324z"
	/>
<path id="Path_34_" fill="#FFFFFF" d="M38.815,15.424c0.029,0.234-0.129,0.511-0.568,0.719c-0.279,0.132-0.861,0.288-1.625-0.035
	c-0.342-0.144-0.676-0.592-0.645-0.841C36.39,14.489,38.429,14.375,38.815,15.424z"/>
<linearGradient id="Oval_7_" gradientUnits="userSpaceOnUse" x1="-422.7251" y1="479.7979" x2="-422.7251" y2="480.041" gradientTransform="matrix(6.5701 0 0 -6.5701 2814.7805 3168.5281)">
	<stop  offset="0" style="stop-color:#A6694A"/>
	<stop  offset="1" style="stop-color:#4F2A1E"/>
	<a:midPointStop  offset="0" style="stop-color:#A6694A"/>
	<a:midPointStop  offset="0.5" style="stop-color:#A6694A"/>
	<a:midPointStop  offset="1" style="stop-color:#4F2A1E"/>
</linearGradient>
<circle id="Oval_6_" fill="url(#Oval_7_)" cx="37.435" cy="15.409" r="0.799"/>
<path id="Path_33_" fill="#1A1626" d="M37.034,15.394c0,0.553,0.799,0.553,0.799,0C37.833,14.881,37.034,14.881,37.034,15.394z"/>
<path id="Path_32_" fill="#AB968C" d="M36.911,15.17c0,0.231,0.336,0.231,0.336,0C37.247,14.955,36.911,14.955,36.911,15.17z"/>
<path id="Path_31_" fill="#DB9D3A" d="M38.819,15.455c-0.324-1.042-2.541-0.889-2.842-0.188
	C36.089,14.37,38.544,14.133,38.819,15.455z"/>
<path id="Path_30_" fill="#FFFFFF" d="M40.39,15.424c-0.029,0.234,0.129,0.511,0.568,0.719c0.279,0.132,0.861,0.288,1.623-0.035
	c0.344-0.144,0.678-0.592,0.648-0.841C42.815,14.489,40.776,14.375,40.39,15.424z"/>
<linearGradient id="Oval_8_" gradientUnits="userSpaceOnUse" x1="-424.7661" y1="479.7979" x2="-424.7661" y2="480.041" gradientTransform="matrix(6.5701 0 0 -6.5701 2832.511 3168.5281)">
	<stop  offset="0" style="stop-color:#A6694A"/>
	<stop  offset="1" style="stop-color:#4F2A1E"/>
	<a:midPointStop  offset="0" style="stop-color:#A6694A"/>
	<a:midPointStop  offset="0.5" style="stop-color:#A6694A"/>
	<a:midPointStop  offset="1" style="stop-color:#4F2A1E"/>
</linearGradient>
<circle id="Oval_5_" fill="url(#Oval_8_)" cx="41.753" cy="15.409" r="0.799"/>
<path id="Path_29_" fill="#1A1626" d="M41.354,15.394c0,0.553,0.801,0.553,0.801,0C42.155,14.881,41.354,14.881,41.354,15.394z"/>
<path id="Path_28_" fill="#AB968C" d="M41.231,15.17c0,0.231,0.336,0.231,0.336,0C41.567,14.955,41.231,14.955,41.231,15.17z"/>
<path id="Path_27_" fill="#DB9D3A" d="M40.386,15.455c0.326-1.042,2.539-0.893,2.844-0.188
	C43.116,14.37,40.663,14.133,40.386,15.455z"/>
<path fill="#7A6056" d="M44.12,9.879c-0.775-1.045-2.191-1.857-4.518-1.857s-3.742,0.813-4.516,1.857
	C33.991,11.36,45.214,11.36,44.12,9.879z"/>
<linearGradient id="SVGID_2_" gradientUnits="userSpaceOnUse" x1="39.6035" y1="16.292" x2="39.6035" y2="9.4365">
	<stop  offset="0.5" style="stop-color:#473834"/>
	<stop  offset="0.6387" style="stop-color:#503F3A"/>
	<stop  offset="0.8641" style="stop-color:#68524A"/>
	<stop  offset="1" style="stop-color:#7A6056"/>
	<a:midPointStop  offset="0.5" style="stop-color:#473834"/>
	<a:midPointStop  offset="0.6" style="stop-color:#473834"/>
	<a:midPointStop  offset="1" style="stop-color:#7A6056"/>
</linearGradient>
<path fill="url(#SVGID_2_)" d="M44.12,9.879c-0.775-1.045-2.191,0.089-4.518,0.089s-3.742-1.134-4.516-0.089
	c-1.096,1.481-0.725,6.413-0.236,6.413c0.078,0,0.088-1.726,0.236-2.919c0.119-0.971,0.352-1.914,0.617-2.067
	c0.811-0.47,2.377,0.202,3.898,0.202s3.088-0.672,3.9-0.202c0.266,0.154,0.496,1.096,0.617,2.067
	c0.146,1.194,0.156,2.919,0.234,2.919C44.843,16.292,45.214,11.36,44.12,9.879z"/>
<path fill="#302C3B" d="M44.343,2.004c-0.291-0.102-2.76,1.793-2.836,3.369c-0.084,1.787-0.191,3.074-0.266,3.85
	c-0.752-0.104-2.529-0.1-3.277,0.014c-0.074-0.773-0.18-2.066-0.266-3.863c-0.076-1.576-2.545-3.471-2.838-3.369
	C34.386,2.168,33.528,5,34.337,6.232c1.164,1.771,1.662,2.875,1.877,3.52c-0.666,0.311-1.23,0.732-1.598,1.281
	c3.412-1.213,6.674-1.213,10.086,0c-0.385-0.576-0.984-1.016-1.695-1.328c0.225-0.648,0.723-1.742,1.859-3.473
	C45.675,5,44.819,2.168,44.343,2.004z"/>
</svg>
