<?xml version="1.0" encoding="utf-8"?>
<!-- Generator: Adobe Illustrator 15.0.0, SVG Export Plug-In . SVG Version: 6.00 Build 0)  -->
<!DOCTYPE svg PUBLIC "-//W3C//DTD SVG 1.1//EN" "http://www.w3.org/Graphics/SVG/1.1/DTD/svg11.dtd" [
	<!ENTITY ns_flows "http://ns.adobe.com/Flows/1.0/">
	<!ENTITY ns_extend "http://ns.adobe.com/Extensibility/1.0/">
	<!ENTITY ns_ai "http://ns.adobe.com/AdobeIllustrator/10.0/">
	<!ENTITY ns_graphs "http://ns.adobe.com/Graphs/1.0/">
]>
<svg version="1.1" id="Layer_1" xmlns:x="&ns_extend;" xmlns:i="&ns_ai;" xmlns:graph="&ns_graphs;"
	 xmlns="http://www.w3.org/2000/svg" xmlns:xlink="http://www.w3.org/1999/xlink" xmlns:a="http://ns.adobe.com/AdobeSVGViewerExtensions/3.0/"
	 x="0px" y="0px" width="64px" height="64px" viewBox="0 0 64 64" enable-background="new 0 0 64 64" xml:space="preserve">
<path fill="#E6EBEF" d="M9.787,52.752c2.701-1.365,12.908-4.969,12.908-4.969h18.695c0,0,10.199,3.596,12.885,4.965
	C58.18,54.732,59,62,59,62H5C5,62,5.871,54.729,9.787,52.752z"/>
<path fill="#302C3B" d="M48.408,54.887c0-5.016-6.576-10.063-16.232-10.063s-14.826,4.023-15.514,6.502l-1.182-0.135
	c1.354-3.377,7.039-7.379,16.695-7.379S49.199,49.32,49.41,54.895L48.408,54.887z"/>
<path fill="#018BC9" d="M35.441,62L42,48.602c0,0-3.623,5.367-10,5.367s-9.998-5.367-10-5.367L28.561,62H35.441z"/>
<path fill="#302C3B" d="M48.912,55c1.93,0,3.5,1.568,3.5,3.5c0,1.934-1.57,3.5-3.5,3.5c-1.934,0-3.5-1.566-3.5-3.5
	C45.412,56.568,46.979,55,48.912,55"/>
<path fill="#CFD8DD" d="M48.912,55.438c1.693,0,3.061,1.369,3.061,3.064c0,1.689-1.367,3.061-3.061,3.061s-3.064-1.371-3.064-3.061
	C45.848,56.807,47.219,55.438,48.912,55.438"/>
<path fill="#99A8AE" d="M48.912,56.75c0.967,0,1.748,0.783,1.748,1.752c0,0.967-0.781,1.748-1.748,1.748
	c-0.969,0-1.752-0.781-1.752-1.748C47.16,57.533,47.943,56.75,48.912,56.75"/>
<rect x="48.611" y="54.895" fill="#B3C2C6" width="0.6" height="2.441"/>
<path fill="#E6EBEF" d="M48.912,57.188c0.727,0,1.313,0.588,1.313,1.313c0,0.727-0.586,1.313-1.313,1.313
	c-0.725,0-1.313-0.586-1.313-1.313C47.6,57.775,48.188,57.188,48.912,57.188"/>
<path fill="#0175A8" d="M21.5,49.438c0,8.123,21,8.092,21-0.031l-2.107-0.688H23.697L21.5,49.438z"/>
<path fill="#C99B71" d="M23.002,48.947c0,6.357,18,6.357,18,0c0-2.164,0-7.035,0-7.035h-18
	C23.002,41.912,23.002,46.783,23.002,48.947z"/>
<path fill="#F5F5F5" d="M39.191,62c0,0,3.299-3.711,5.252-8.25l-2.131-2.518l3.6-0.729c0,0-1.813-3.342-4.912-4.502
	c0,0-1.998,8.889-5.559,15.998H39.191z"/>
<path fill="#F5F5F5" d="M24.811,62c0,0-3.299-3.711-5.252-8.25l2.131-2.518l-3.6-0.729c0,0,1.811-3.342,4.912-4.502
	c0,0,1.998,8.889,5.559,15.998H24.811z"/>
<path fill="#302C3B" d="M20.523,54.957h-1.025c-0.002-1.924-1.613-3.488-3.598-3.488c-1.982-0.002-3.594,1.564-3.596,3.488h-1.025
	c0-2.473,2.072-4.484,4.621-4.484C18.451,50.471,20.523,52.484,20.523,54.957"/>
<path fill="#99A8AE" d="M11.279,54.957l-0.002,5.287c0.002,0.955,0.498,1.656,1.541,1.729c0.662,0.049,0.656-0.951-0.002-0.996
	c-0.686-0.049-0.51-0.852-0.51-1.318l-0.002-4.701C12.307,54.314,11.277,54.314,11.279,54.957"/>
<path fill="#99A8AE" d="M19.498,54.957v4.557c-0.002,0.479,0.205,1.412-0.514,1.463c-0.658,0.045-0.662,1.045,0,0.996
	c0.982-0.068,1.539-0.717,1.539-1.65v-5.365C20.523,54.314,19.498,54.314,19.498,54.957"/>
<path fill="#302C3B" d="M13.512,61.975h-0.75c-0.658,0-0.658-1.098,0-1.098l0.75,0.002C14.172,60.877,14.172,61.975,13.512,61.975z"
	/>
<path fill="#302C3B" d="M19.041,61.975h-0.748c-0.662,0-0.662-1.098-0.002-1.098l0.75,0.002
	C19.699,60.877,19.699,61.975,19.041,61.975z"/>
<path id="Path_1509_" fill="#EBC199" d="M48.439,25.394c-2.545,0.307-4.383,8.815-2.781,11.061c0.225,0.313,1.535,0.814,2.508-1.168
	c0.539-1.098,2.092-2.014,2.574-4.278C51.357,28.109,50.973,25.087,48.439,25.394z"/>
<path id="Path_1508_" fill="#EBC199" d="M15.559,25.394c2.545,0.307,4.383,8.815,2.781,11.061c-0.225,0.313-1.535,0.814-2.51-1.168
	c-0.537-1.098-2.092-2.014-2.572-4.278C12.639,28.109,13.025,25.087,15.559,25.394z"/>
<path id="Path_1507_" fill="#C99B71" d="M48.371,27.023c-0.664,0.209-1.389,1.221-1.781,2.898c2.32-0.498,1.74,3.362-0.277,3.434
	c0.02,0.389,0.045,0.787,0.094,1.207c0.971-1.408,1.959-0.844,2.938-2.94C50.225,29.734,50.016,26.509,48.371,27.023z"/>
<path id="Path_1506_" fill="#C99B71" d="M17.408,29.917c-0.395-1.676-1.117-2.686-1.781-2.895c-1.643-0.514-1.855,2.711-0.973,4.6
	c0.979,2.096,1.967,1.532,2.939,2.94c0.047-0.42,0.074-0.82,0.09-1.209C15.688,33.26,15.115,29.447,17.408,29.917z"/>
<path id="Path_1505_" fill="#EBC199" d="M31.998,9.034c-11.027,0-16.34,8.329-15.676,19.909c0.133,2.33,1.582,9.93,2.947,12.657
	c1.398,2.789,6.074,7.09,8.938,7.98c1.811,0.561,5.773,0.561,7.582,0c2.865-0.891,7.543-5.191,8.939-7.98
	c1.369-2.727,2.814-10.325,2.945-12.657C48.342,17.363,43.029,9.034,31.998,9.034z"/>
<path id="Path_1504_" fill="#A17C5B" d="M43.98,24.544c-2.521-1.336-7.348-1.4-9.146-0.469c-0.387,0.178-0.131,1.441,0.193,1.322
	c2.504-0.99,6.547-1.012,8.893,0.084C44.232,25.625,44.363,24.73,43.98,24.544z"/>
<path id="Path_1503_" fill="#A17C5B" d="M20.018,24.544c2.521-1.336,7.346-1.4,9.146-0.469c0.385,0.178,0.131,1.441-0.193,1.322
	c-2.51-0.99-6.547-1.012-8.895,0.084C19.766,25.625,19.637,24.73,20.018,24.544z"/>
<path id="Path_1502_" fill="#C99B71" d="M34.975,36.109c-0.314-0.219-1.053,0.119-2.977,0.119c-1.92,0-2.66-0.338-2.975-0.119
	c-0.377,0.266,0.223,1.461,2.975,1.461C34.752,37.57,35.354,36.375,34.975,36.109z"/>
<path id="Path_1501_" fill="#C99B71" d="M31.998,40.646c-2.479-0.729-6.154,0.346-6.154,0.346c1.398,1.521,2.424,3.494,6.154,3.494
	c4.275,0,5.002-2.24,6.156-3.494C38.154,40.992,34.479,39.912,31.998,40.646z"/>
<path id="Path_1500_" fill="#FFFFFF" d="M26.766,41.25c2.602,2.176,7.852,2.191,10.467,0C34.461,41.367,29.557,41.369,26.766,41.25z
	"/>
<path id="Path_1499_" fill="#FFFFFF" d="M29.545,29.085c0.094,0.73-0.402,1.594-1.773,2.242c-0.871,0.412-2.686,0.896-5.066-0.107
	c-1.066-0.449-2.107-1.848-2.014-2.623C21.982,26.167,28.336,25.812,29.545,29.085z"/>
<linearGradient id="Oval_1_" gradientUnits="userSpaceOnUse" x1="-424.582" y1="477.4648" x2="-424.582" y2="478.2236" gradientTransform="matrix(6.5701 0 0 -6.5701 2814.7805 3168.5281)">
	<stop  offset="0" style="stop-color:#A6694A"/>
	<stop  offset="1" style="stop-color:#4F2A1E"/>
	<a:midPointStop  offset="0" style="stop-color:#A6694A"/>
	<a:midPointStop  offset="0.5" style="stop-color:#A6694A"/>
	<a:midPointStop  offset="1" style="stop-color:#4F2A1E"/>
</linearGradient>
<circle id="Oval_230_" fill="url(#Oval_1_)" cx="25.234" cy="29.039" r="2.492"/>
<path id="Path_1498_" fill="#1A1626" d="M23.986,28.992c0,1.725,2.496,1.725,2.496,0C26.482,27.392,23.986,27.392,23.986,28.992z"/>
<path id="Path_1497_" fill="#AB968C" d="M23.607,28.292c0,0.723,1.045,0.723,1.045,0C24.652,27.625,23.607,27.625,23.607,28.292z"/>
<path id="Path_1496_" fill="#C99B71" d="M29.557,29.181c-1.014-3.25-7.926-2.77-8.865-0.584
	C21.039,25.798,28.693,25.058,29.557,29.181z"/>
<path id="Path_1495_" fill="#FFFFFF" d="M34.453,29.085c-0.094,0.73,0.4,1.594,1.773,2.242c0.871,0.412,2.684,0.896,5.064-0.107
	c1.07-0.449,2.109-1.848,2.016-2.623C42.016,26.167,35.66,25.812,34.453,29.085z"/>
<linearGradient id="Oval_2_" gradientUnits="userSpaceOnUse" x1="-425.23" y1="477.4648" x2="-425.23" y2="478.2236" gradientTransform="matrix(6.5701 0 0 -6.5701 2832.511 3168.5281)">
	<stop  offset="0" style="stop-color:#A6694A"/>
	<stop  offset="1" style="stop-color:#4F2A1E"/>
	<a:midPointStop  offset="0" style="stop-color:#A6694A"/>
	<a:midPointStop  offset="0.5" style="stop-color:#A6694A"/>
	<a:midPointStop  offset="1" style="stop-color:#4F2A1E"/>
</linearGradient>
<circle id="Oval_229_" fill="url(#Oval_2_)" cx="38.707" cy="29.039" r="2.492"/>
<path id="Path_1494_" fill="#1A1626" d="M37.461,28.992c0,1.725,2.496,1.725,2.496,0C39.957,27.392,37.461,27.392,37.461,28.992z"/>
<path id="Path_1493_" fill="#AB968C" d="M37.08,28.292c0,0.723,1.047,0.723,1.047,0C38.127,27.625,37.08,27.625,37.08,28.292z"/>
<path id="Path_1492_" fill="#C99B71" d="M34.441,29.181c1.012-3.248,7.92-2.783,8.865-0.584
	C42.955,25.798,35.305,25.058,34.441,29.181z"/>
<path fill="#E3BE86" d="M46.084,11.793C43.67,8.532,39.252,6,31.998,6c-7.252,0-11.668,2.531-14.082,5.793
	C14.498,16.41,49.5,16.41,46.084,11.793z"/>
<linearGradient id="SVGID_1_" gradientUnits="userSpaceOnUse" x1="31.9995" y1="31.7925" x2="31.9995" y2="10.4121">
	<stop  offset="0.5" style="stop-color:#BA9757"/>
	<stop  offset="0.6473" style="stop-color:#C29E60"/>
	<stop  offset="0.8867" style="stop-color:#D7B378"/>
	<stop  offset="1" style="stop-color:#E3BE86"/>
	<a:midPointStop  offset="0.5" style="stop-color:#BA9757"/>
	<a:midPointStop  offset="0.6" style="stop-color:#BA9757"/>
	<a:midPointStop  offset="1" style="stop-color:#E3BE86"/>
</linearGradient>
<path fill="url(#SVGID_1_)" d="M46.084,11.793c-2.414-3.262-6.832,0.275-14.086,0.275c-7.252,0-11.668-3.537-14.082-0.275
	c-3.418,4.616-2.258,19.999-0.736,19.999c0.24,0,0.275-5.381,0.736-9.104c0.373-3.029,1.094-5.969,1.924-6.449
	c2.531-1.467,7.412,0.631,12.158,0.631s9.629-2.098,12.162-0.631c0.828,0.48,1.547,3.42,1.924,6.449
	c0.459,3.723,0.494,9.104,0.734,9.104C48.34,31.792,49.5,16.41,46.084,11.793z"/>
</svg>
