<?xml version="1.0" encoding="utf-8"?>
<!-- Generator: Adobe Illustrator 15.0.0, SVG Export Plug-In . SVG Version: 6.00 Build 0)  -->
<!DOCTYPE svg PUBLIC "-//W3C//DTD SVG 1.1//EN" "http://www.w3.org/Graphics/SVG/1.1/DTD/svg11.dtd" [
	<!ENTITY ns_flows "http://ns.adobe.com/Flows/1.0/">
	<!ENTITY ns_extend "http://ns.adobe.com/Extensibility/1.0/">
	<!ENTITY ns_ai "http://ns.adobe.com/AdobeIllustrator/10.0/">
	<!ENTITY ns_graphs "http://ns.adobe.com/Graphs/1.0/">
]>
<svg version="1.1" id="Layer_1" xmlns:x="&ns_extend;" xmlns:i="&ns_ai;" xmlns:graph="&ns_graphs;"
	 xmlns="http://www.w3.org/2000/svg" xmlns:xlink="http://www.w3.org/1999/xlink" xmlns:a="http://ns.adobe.com/AdobeSVGViewerExtensions/3.0/"
	 x="0px" y="0px" width="64px" height="64px" viewBox="0 0 64 64" enable-background="new 0 0 64 64" xml:space="preserve">
<path fill="#3AB0A2" d="M45.256,31.724c-1.271-1.646-7.428-3.658-7.428-3.658H26.172c0,0-6.156,2.012-7.428,3.658
	c-2.08,2.689-2.809,8.431-2.809,8.431l4.93,4.929V62h22.27V45.083l4.93-4.929C48.064,40.154,47.336,34.413,45.256,31.724z"/>
<path fill="#2B998D" d="M26.17,28.085c0,4.888,11.658,4.869,11.658-0.019l-1.168-0.413h-9.27L26.17,28.085z"/>
<path fill="#E6B045" d="M27.004,27.79c0,3.826,9.994,3.826,9.994,0c0-1.302,0-4.233,0-4.233h-9.994
	C27.004,23.556,27.004,26.488,27.004,27.79z"/>
<rect x="20.869" y="58" fill="#302C3B" width="22.266" height="4"/>
<path id="Path_1323_" fill="#FFCC66" d="M42.154,13.999c-1.572,0.191-2.707,5.455-1.721,6.844c0.141,0.194,0.951,0.504,1.551-0.723
	c0.332-0.678,1.293-1.245,1.59-2.646C43.955,15.68,43.719,13.809,42.154,13.999z"/>
<path id="Path_1322_" fill="#FFCC66" d="M21.846,13.999c1.572,0.191,2.707,5.455,1.717,6.844c-0.137,0.194-0.947,0.504-1.549-0.723
	c-0.332-0.678-1.293-1.245-1.59-2.646C20.043,15.68,20.281,13.809,21.846,13.999z"/>
<path id="Path_300_" fill="#DB9D3A" d="M42.109,15.008c-0.408,0.129-0.855,0.754-1.1,1.792c1.434-0.308,1.076,2.08-0.17,2.125
	c0.012,0.24,0.027,0.488,0.057,0.748c0.602-0.872,1.211-0.521,1.814-1.819C43.256,16.684,43.127,14.688,42.109,15.008z"/>
<path id="Path_299_" fill="#DB9D3A" d="M22.988,16.797c-0.242-1.036-0.689-1.661-1.1-1.789c-1.016-0.32-1.146,1.675-0.602,2.845
	c0.604,1.297,1.215,0.947,1.816,1.819c0.029-0.26,0.045-0.508,0.055-0.749C21.926,18.866,21.572,16.507,22.988,16.797z"/>
<path id="Path_298_" fill="#FFCC66" d="M31.998,3.878c-6.809,0-10.09,5.153-9.68,12.318c0.082,1.441,0.975,6.143,1.818,7.83
	c0.865,1.727,3.752,4.387,5.521,4.938c1.117,0.347,3.566,0.347,4.682,0c1.77-0.551,4.66-3.211,5.521-4.938
	c0.846-1.687,1.738-6.387,1.82-7.83C42.092,9.031,38.813,3.878,31.998,3.878z"/>
<path id="Path_297_" fill="#966F42" d="M39.398,13.473c-1.557-0.825-4.537-0.865-5.648-0.29c-0.238,0.11-0.08,0.893,0.119,0.818
	c1.547-0.612,4.045-0.625,5.492,0.052C39.555,14.142,39.635,13.588,39.398,13.473z"/>
<path id="Path_296_" fill="#966F42" d="M24.598,13.473c1.561-0.825,4.539-0.865,5.65-0.29c0.238,0.11,0.08,0.893-0.119,0.818
	c-1.551-0.612-4.043-0.625-5.494,0.052C24.443,14.142,24.363,13.588,24.598,13.473z"/>
<path id="Path_295_" fill="#DB9D3A" d="M33.838,20.628c-0.193-0.136-0.65,0.073-1.84,0.073c-1.186,0-1.643-0.209-1.836-0.073
	c-0.234,0.164,0.137,0.905,1.836,0.905C33.701,21.534,34.07,20.792,33.838,20.628z"/>
<path id="Path_294_" fill="#DB9D3A" d="M31.998,23.436c-1.529-0.45-3.801,0.213-3.801,0.213c0.863,0.942,1.498,2.164,3.801,2.164
	c2.641,0,3.09-1.387,3.803-2.164C35.801,23.649,33.529,22.982,31.998,23.436z"/>
<path id="Path_293_" fill="#FFFFFF" d="M28.768,23.809c1.605,1.348,4.848,1.357,6.463,0C33.521,23.882,30.492,23.883,28.768,23.809z
	"/>
<path id="Path_236_" fill="#FFFFFF" d="M30.484,16.284c0.057,0.451-0.248,0.986-1.096,1.386c-0.537,0.255-1.658,0.555-3.129-0.066
	c-0.66-0.278-1.301-1.144-1.244-1.623C25.813,14.478,29.738,14.258,30.484,16.284z"/>
<linearGradient id="Oval_1_" gradientUnits="userSpaceOnUse" x1="-439.7876" y1="479.5557" x2="-439.7876" y2="480.0254" gradientTransform="matrix(6.5701 0 0 -6.5701 2917.2688 3168.5281)">
	<stop  offset="0" style="stop-color:#A6694A"/>
	<stop  offset="1" style="stop-color:#4F2A1E"/>
	<a:midPointStop  offset="0" style="stop-color:#A6694A"/>
	<a:midPointStop  offset="0.5" style="stop-color:#A6694A"/>
	<a:midPointStop  offset="1" style="stop-color:#4F2A1E"/>
</linearGradient>
<circle id="Oval_34_" fill="url(#Oval_1_)" cx="27.82" cy="16.254" r="1.542"/>
<path id="Path_235_" fill="#1A1626" d="M27.051,16.226c0,1.067,1.541,1.067,1.541,0C28.592,15.235,27.051,15.235,27.051,16.226z"/>
<path id="Path_234_" fill="#AB968C" d="M26.816,15.793c0,0.447,0.646,0.447,0.646,0C27.463,15.379,26.816,15.379,26.816,15.793z"/>
<path id="Path_233_" fill="#DB9D3A" d="M30.492,16.344c-0.629-2.013-4.896-1.715-5.477-0.362
	C25.23,14.249,29.959,13.792,30.492,16.344z"/>
<path id="Path_232_" fill="#FFFFFF" d="M33.514,16.284c-0.057,0.451,0.248,0.986,1.096,1.386c0.539,0.255,1.658,0.555,3.131-0.066
	c0.658-0.278,1.301-1.144,1.242-1.623C38.188,14.478,34.262,14.258,33.514,16.284z"/>
<linearGradient id="Oval_2_" gradientUnits="userSpaceOnUse" x1="-441.2192" y1="479.5557" x2="-441.2192" y2="480.0254" gradientTransform="matrix(6.5701 0 0 -6.5701 2934.9993 3168.5281)">
	<stop  offset="0" style="stop-color:#A6694A"/>
	<stop  offset="1" style="stop-color:#4F2A1E"/>
	<a:midPointStop  offset="0" style="stop-color:#A6694A"/>
	<a:midPointStop  offset="0.5" style="stop-color:#A6694A"/>
	<a:midPointStop  offset="1" style="stop-color:#4F2A1E"/>
</linearGradient>
<circle id="Oval_33_" fill="url(#Oval_2_)" cx="36.143" cy="16.254" r="1.542"/>
<path id="Path_231_" fill="#1A1626" d="M35.371,16.226c0,1.067,1.543,1.067,1.543,0C36.914,15.235,35.371,15.235,35.371,16.226z"/>
<path id="Path_230_" fill="#AB968C" d="M35.137,15.793c0,0.447,0.648,0.447,0.648,0C35.785,15.379,35.137,15.379,35.137,15.793z"/>
<path id="Path_229_" fill="#DB9D3A" d="M33.508,16.344c0.625-2.012,4.891-1.724,5.475-0.362
	C38.766,14.249,34.041,13.792,33.508,16.344z"/>
<path fill="#7A6056" d="M40.699,5.585C39.207,3.567,36.479,2,31.998,2c-4.479,0-7.207,1.567-8.697,3.585
	C21.191,8.441,42.809,8.441,40.699,5.585z"/>
<linearGradient id="SVGID_1_" gradientUnits="userSpaceOnUse" x1="-70.4922" y1="17.958" x2="-70.4922" y2="4.7305" gradientTransform="matrix(1 0 0 1 102.4922 0)">
	<stop  offset="0.5" style="stop-color:#473834"/>
	<stop  offset="0.6387" style="stop-color:#503F3A"/>
	<stop  offset="0.8641" style="stop-color:#68524A"/>
	<stop  offset="1" style="stop-color:#7A6056"/>
	<a:midPointStop  offset="0.5" style="stop-color:#473834"/>
	<a:midPointStop  offset="0.6" style="stop-color:#473834"/>
	<a:midPointStop  offset="1" style="stop-color:#7A6056"/>
</linearGradient>
<path fill="url(#SVGID_1_)" d="M40.699,5.585c-1.492-2.018-4.221,0.17-8.701,0.17c-4.479,0-7.207-2.188-8.697-0.17
	c-2.109,2.856-1.393,12.373-0.455,12.373c0.15,0,0.17-3.33,0.455-5.632c0.23-1.875,0.678-3.693,1.188-3.99
	c1.564-0.907,4.58,0.39,7.51,0.39c2.934,0,5.949-1.297,7.512-0.39c0.512,0.297,0.957,2.115,1.189,3.99
	c0.283,2.303,0.303,5.632,0.455,5.632C42.092,17.958,42.809,8.441,40.699,5.585z"/>
<path fill="#FF9ED2" d="M40.859,55.146c-0.85-1.091-4.963-2.425-4.963-2.425l-7.792,0.012c0,0-4.089,1.33-4.937,2.415
	C21.775,56.932,21.265,62,21.265,62h21.473C42.737,62,42.25,56.931,40.859,55.146z"/>
<path fill="#FF82C5" d="M28.104,52.733c0,3.242,7.792,3.229,7.792-0.012l-0.781-0.275H28.92L28.104,52.733z"/>
<path fill="#E6B045" d="M28.662,52.538c0,2.537,6.679,2.537,6.679,0c0-0.863,0-2.808,0-2.808h-6.679
	C28.662,49.73,28.662,51.675,28.662,52.538z"/>
<path fill="#FF82C5" d="M25.133,62h-0.299C24.834,58.319,25.133,58.319,25.133,62z"/>
<path fill="#FF82C5" d="M39.168,62h-0.3C38.868,58.319,39.168,58.319,39.168,62z"/>
<path fill="#473834" d="M39.648,42.626c6.455,4.266,0.781,8.151,2.619,9.989C38.697,55.098,29.957,50.821,39.648,42.626z"/>
<path fill="#473834" d="M24.35,42.626c-6.455,4.266-0.779,8.151-2.617,9.989C25.303,55.098,34.043,50.821,24.35,42.626z"/>
<linearGradient id="SVGID_2_" gradientUnits="userSpaceOnUse" x1="31.9995" y1="45.2939" x2="31.9995" y2="31.6548">
	<stop  offset="0" style="stop-color:#473834"/>
	<stop  offset="0.2717" style="stop-color:#594640"/>
	<stop  offset="0.7226" style="stop-color:#715950"/>
	<stop  offset="1" style="stop-color:#7A6056"/>
	<a:midPointStop  offset="0" style="stop-color:#473834"/>
	<a:midPointStop  offset="0.4" style="stop-color:#473834"/>
	<a:midPointStop  offset="1" style="stop-color:#7A6056"/>
</linearGradient>
<path fill="url(#SVGID_2_)" d="M32,31.654c-6.787,0.004-11.082,5.974-8.439,13.64h16.877C43.08,37.628,38.785,31.658,32,31.654z"/>
<path id="Path_1801_" fill="#FFCC66" d="M23.441,42.108c1.066,0.129,1.834,3.729,1.166,4.679c-0.096,0.134-0.645,0.345-1.051-0.493
	c-0.227-0.465-0.877-0.852-1.078-1.81C22.221,43.257,22.383,41.979,23.441,42.108z"/>
<path id="Path_1800_" fill="#DB9D3A" d="M23.471,42.798c0.277,0.088,0.582,0.516,0.746,1.227c-0.973-0.211-0.729,1.422,0.115,1.452
	c-0.008,0.165-0.018,0.333-0.039,0.511c-0.406-0.596-0.82-0.356-1.229-1.244C22.695,43.944,22.783,42.581,23.471,42.798z"/>
<path id="Path_1799_" fill="#FFCC66" d="M40.557,42.108c-1.064,0.129-1.834,3.729-1.164,4.679c0.094,0.134,0.643,0.345,1.051-0.493
	c0.225-0.465,0.875-0.852,1.076-1.81C41.779,43.257,41.617,41.978,40.557,42.108z"/>
<path id="Path_1798_" fill="#DB9D3A" d="M39.783,44.021c0.164-0.708,0.467-1.136,0.744-1.224c0.689-0.219,0.777,1.146,0.408,1.945
	c-0.41,0.888-0.822,0.648-1.23,1.244c-0.02-0.178-0.031-0.348-0.037-0.512C40.502,45.436,40.742,43.823,39.783,44.021z"/>
<path fill="#FFCC66" d="M32,32.858c-5.822,0-8.627,4.404-8.275,10.528c0.07,1.231,0.834,4.047,1.557,5.489
	c1.273,2.545,4.6,4.442,6.719,4.442c2.117,0,5.447-1.897,6.719-4.442c0.723-1.442,1.486-4.258,1.557-5.489
	C40.627,37.263,37.822,32.858,32,32.858z"/>
<path id="Path_1797_" fill="#DB9D3A" d="M33.357,46.828c-0.145-0.101-0.482,0.054-1.357,0.054c-0.877,0-1.215-0.154-1.359-0.054
	c-0.17,0.122,0.104,0.669,1.359,0.669C33.254,47.497,33.529,46.95,33.357,46.828z"/>
<path id="Path_1796_" fill="#DB9D3A" d="M32,48.78c-1.313-0.387-3.258,0.184-3.258,0.184c0.74,0.807,1.283,1.853,3.258,1.853
	c2.262,0,2.646-1.188,3.258-1.853C35.258,48.964,33.311,48.392,32,48.78z"/>
<path id="Path_1795_" fill="#FFFFFF" d="M29.23,49.1c1.375,1.155,4.154,1.162,5.539,0C33.303,49.162,30.707,49.163,29.23,49.1z"/>
<path id="Path_1794_" fill="#FFFFFF" d="M30.744,43.831c0.047,0.375-0.205,0.816-0.908,1.148c-0.445,0.212-1.373,0.46-2.592-0.054
	c-0.545-0.23-1.078-0.948-1.029-1.345C26.875,42.336,30.125,42.153,30.744,43.831z"/>
<linearGradient id="Oval_3_" gradientUnits="userSpaceOnUse" x1="-424.0786" y1="475.4023" x2="-424.0786" y2="475.791" gradientTransform="matrix(6.5701 0 0 -6.5701 2814.7805 3168.5281)">
	<stop  offset="0" style="stop-color:#A6694A"/>
	<stop  offset="1" style="stop-color:#4F2A1E"/>
	<a:midPointStop  offset="0" style="stop-color:#A6694A"/>
	<a:midPointStop  offset="0.5" style="stop-color:#A6694A"/>
	<a:midPointStop  offset="1" style="stop-color:#4F2A1E"/>
</linearGradient>
<circle id="Oval_230_" fill="url(#Oval_3_)" cx="28.539" cy="43.807" r="1.277"/>
<path id="Path_1793_" fill="#1A1626" d="M27.9,43.783c0,0.884,1.277,0.884,1.277,0C29.178,42.963,27.9,42.963,27.9,43.783z"/>
<path id="Path_1792_" fill="#AB968C" d="M27.707,43.426c0,0.37,0.535,0.37,0.535,0C28.242,43.082,27.707,43.082,27.707,43.426z"/>
<path id="Path_1791_" fill="#DB9D3A" d="M30.75,43.881c-0.518-1.667-4.055-1.421-4.535-0.3
	C26.393,42.146,30.309,41.767,30.75,43.881z"/>
<path id="Path_1790_" fill="#FFFFFF" d="M33.256,43.831c-0.049,0.375,0.205,0.816,0.906,1.148c0.445,0.212,1.373,0.46,2.594-0.054
	c0.545-0.23,1.078-0.948,1.029-1.345C37.125,42.336,33.873,42.153,33.256,43.831z"/>
<linearGradient id="Oval_4_" gradientUnits="userSpaceOnUse" x1="-425.728" y1="475.4023" x2="-425.728" y2="475.791" gradientTransform="matrix(6.5701 0 0 -6.5701 2832.511 3168.5281)">
	<stop  offset="0" style="stop-color:#A6694A"/>
	<stop  offset="1" style="stop-color:#4F2A1E"/>
	<a:midPointStop  offset="0" style="stop-color:#A6694A"/>
	<a:midPointStop  offset="0.5" style="stop-color:#A6694A"/>
	<a:midPointStop  offset="1" style="stop-color:#4F2A1E"/>
</linearGradient>
<circle id="Oval_229_" fill="url(#Oval_4_)" cx="35.432" cy="43.807" r="1.277"/>
<path id="Path_1789_" fill="#1A1626" d="M34.795,43.783c0,0.884,1.277,0.884,1.277,0C36.072,42.963,34.795,42.963,34.795,43.783z"/>
<path id="Path_1788_" fill="#AB968C" d="M34.6,43.426c0,0.37,0.535,0.37,0.535,0C35.135,43.082,34.6,43.082,34.6,43.426z"/>
<path id="Path_1787_" fill="#DB9D3A" d="M33.25,43.881c0.518-1.667,4.051-1.427,4.535-0.3C37.605,42.146,33.691,41.767,33.25,43.881
	z"/>
<path id="Path_1786_" fill="#DB9D3A" d="M37.867,41.841c-1.098-0.693-3.311-0.895-4.178-0.539c-0.186,0.067-0.125,0.648,0.029,0.605
	c1.195-0.357,3.051-0.223,4.078,0.355C37.936,42.339,38.035,41.938,37.867,41.841z"/>
<path id="Path_1785_" fill="#DB9D3A" d="M26.131,41.841c1.1-0.693,3.311-0.895,4.178-0.539c0.186,0.067,0.125,0.648-0.029,0.605
	c-1.195-0.357-3.049-0.223-4.08,0.355C26.063,42.339,25.963,41.938,26.131,41.841z"/>
<linearGradient id="SVGID_3_" gradientUnits="userSpaceOnUse" x1="32" y1="44.833" x2="32" y2="31.855">
	<stop  offset="0" style="stop-color:#473834"/>
	<stop  offset="0.2717" style="stop-color:#594640"/>
	<stop  offset="0.7226" style="stop-color:#715950"/>
	<stop  offset="1" style="stop-color:#7A6056"/>
	<a:midPointStop  offset="0" style="stop-color:#473834"/>
	<a:midPointStop  offset="0.4" style="stop-color:#473834"/>
	<a:midPointStop  offset="1" style="stop-color:#7A6056"/>
</linearGradient>
<path fill="url(#SVGID_3_)" d="M31.998,31.854c-3.414,0-6.467,1.895-7.131,4.451c-1.719,1.685-1.979,5.51-0.896,8.527
	c0.141-2.896,1.746-4.354,1.646-7.541c9.592,0,13.893,3.128,14.406,7.541C42.201,38.753,38.771,31.854,31.998,31.854z"/>
<path fill="#473834" d="M40.023,44.833c-1.795-7.715-15.166-7.5-15.166-7.5C24.93,37.325,39.191,35.026,40.023,44.833z"/>
<path fill="#473834" d="M23.971,44.833c-0.123-3.425,1.689-4.967,1.494-8.502C26.215,39.69,24.6,41.358,23.971,44.833z"/>
<path fill="#CFD8DD" d="M40.174,42.216c0.766-11.573-17.117-11.573-16.352,0C24.49,32.496,39.506,32.496,40.174,42.216z"/>
<path fill="#FFFFFF" d="M40.174,41.841c0.766-11.573-17.117-11.573-16.352,0C24.49,32.122,39.506,32.122,40.174,41.841z"/>
<path fill="#FFCC66" d="M38.002,53.545c0,0-0.313-0.118-1.094-0.466c1-0.939,2.191,0.082,3.293-1.359
	c1.934-2.531,2.066-4.031,2.934-6.453c0,0-0.357-1.282-0.08-3.227c2.521-0.498,4.875-1.75,4.875-1.75s0.135,4.85,0.135,4.953
	c0,3.208-3.775,6.268-5.055,8.369c-0.629,1.031-1.52,2.677-1.76,2.926c-2.084,2.137-4.223,1.955-4.797,1.404
	C34.164,57.708,38.971,54.69,38.002,53.545z"/>
<path fill="#DB9D3A" d="M38.619,56.175c0,0-1.209,1.477-2.166,1.768C37.572,57.87,38.619,56.175,38.619,56.175z"/>
<path fill="#DB9D3A" d="M39.932,56.222c0,0-1.506,1.783-2.463,2.074C38.588,58.224,39.932,56.222,39.932,56.222z"/>
<path fill="#DB9D3A" d="M40.66,56.458c0,0-1.047,1.415-2.006,1.707C39.773,58.093,40.66,56.458,40.66,56.458z"/>
<path fill="#FFCC66" d="M25.998,53.545c0,0,0.313-0.118,1.094-0.466c-1-0.939-2.191,0.082-3.293-1.359
	c-1.934-2.531-2.066-4.031-2.934-6.453c0,0,0.357-1.282,0.08-3.227c-2.521-0.498-4.875-1.75-4.875-1.75s-0.135,4.85-0.135,4.953
	c0,3.208,3.775,6.268,5.055,8.369c0.629,1.031,1.52,2.677,1.76,2.926c2.084,2.137,4.223,1.955,4.797,1.404
	C29.836,57.708,25.029,54.69,25.998,53.545z"/>
<path fill="#DB9D3A" d="M25.381,56.175c0,0,1.209,1.477,2.166,1.768C26.428,57.87,25.381,56.175,25.381,56.175z"/>
<path fill="#DB9D3A" d="M24.068,56.222c0,0,1.506,1.783,2.463,2.074C25.412,58.224,24.068,56.222,24.068,56.222z"/>
<path fill="#DB9D3A" d="M23.34,56.458c0,0,1.047,1.415,2.006,1.707C24.227,58.093,23.34,56.458,23.34,56.458z"/>
</svg>
