<?xml version="1.0" encoding="utf-8"?>
<!-- Generator: Adobe Illustrator 15.0.0, SVG Export Plug-In . SVG Version: 6.00 Build 0)  -->
<!DOCTYPE svg PUBLIC "-//W3C//DTD SVG 1.1//EN" "http://www.w3.org/Graphics/SVG/1.1/DTD/svg11.dtd" [
	<!ENTITY ns_flows "http://ns.adobe.com/Flows/1.0/">
	<!ENTITY ns_extend "http://ns.adobe.com/Extensibility/1.0/">
	<!ENTITY ns_ai "http://ns.adobe.com/AdobeIllustrator/10.0/">
	<!ENTITY ns_graphs "http://ns.adobe.com/Graphs/1.0/">
]>
<svg version="1.1" id="Layer_1" xmlns:x="&ns_extend;" xmlns:i="&ns_ai;" xmlns:graph="&ns_graphs;"
	 xmlns="http://www.w3.org/2000/svg" xmlns:xlink="http://www.w3.org/1999/xlink" xmlns:a="http://ns.adobe.com/AdobeSVGViewerExtensions/3.0/"
	 x="0px" y="0px" width="64px" height="64px" viewBox="0 0 64 64" enable-background="new 0 0 64 64" xml:space="preserve">
<path fill="#E6EBEF" d="M9.787,52.752c2.701-1.365,13.908-4.969,13.908-4.969h16.695c0,0,11.199,3.596,13.885,4.965
	C58.18,54.732,59,62,59,62H5C5,62,5.871,54.729,9.787,52.752z"/>
<polygon fill="#DEB38A" points="23,49.947 32,54.779 41,49.947 41,41.912 23,41.912 "/>
<path fill="#D61924" d="M33.924,57.842c-0.518-1.391-3.328-1.391-3.846,0C29.666,58.949,29.32,60.4,29.031,62h5.938
	C34.68,60.4,34.334,58.949,33.924,57.842z"/>
<path fill="#E81C27" d="M33.775,57.842c-0.4,0.506-3.195,0.561-3.549,0c-0.84-1.322-2.219-3.945-2.219-3.945S31.49,52.117,32,52.117
	c0.514,0,3.994,1.779,3.994,1.779S34.74,56.631,33.775,57.842z"/>
<path fill="#F5F5F5" d="M41,46.908l1.492,1.57c0,0-1.008,2.51-2.506,9.754L32,52.117C32,52.117,38.436,52.229,41,46.908z"/>
<path fill="#F5F5F5" d="M23,46.908l-1.49,1.57c0,0,1.006,2.51,2.504,9.754L32,52.117C32,52.117,25.564,52.229,23,46.908z"/>
<path id="Path_659_" fill="#FFD8B4" d="M48.441,25.393c-2.545,0.307-4.383,8.814-2.781,11.061c0.225,0.313,1.535,0.814,2.508-1.168
	c0.539-1.098,2.092-2.014,2.574-4.277C51.359,28.107,50.975,25.086,48.441,25.393z"/>
<path id="Path_658_" fill="#FFD8B4" d="M15.561,25.393c2.545,0.307,4.383,8.814,2.781,11.061c-0.225,0.313-1.535,0.814-2.51-1.168
	c-0.537-1.098-2.092-2.014-2.572-4.277C12.641,28.107,13.027,25.086,15.561,25.393z"/>
<path id="Path_657_" fill="#DEB38A" d="M48.373,27.021c-0.664,0.209-1.389,1.221-1.781,2.898c2.32-0.498,1.74,3.361-0.277,3.434
	c0.02,0.389,0.045,0.787,0.094,1.207c0.971-1.408,1.959-0.844,2.938-2.939C50.227,29.732,50.018,26.508,48.373,27.021z"/>
<path id="Path_656_" fill="#DEB38A" d="M17.41,29.916c-0.395-1.676-1.117-2.686-1.781-2.895c-1.643-0.514-1.855,2.711-0.973,4.6
	c0.979,2.096,1.967,1.531,2.939,2.939c0.047-0.42,0.074-0.82,0.09-1.209C15.689,33.258,15.117,29.445,17.41,29.916z"/>
<path id="Path_655_" fill="#FFD8B4" d="M32,9.033c-11.027,0-16.34,8.328-15.676,19.908c0.133,2.33,1.582,9.93,2.947,12.656
	c1.398,2.789,6.074,7.09,8.938,7.98c1.811,0.561,5.773,0.561,7.582,0c2.865-0.891,7.543-5.191,8.939-7.98
	c1.369-2.727,2.814-10.324,2.945-12.656C48.344,17.361,43.031,9.033,32,9.033z"/>
<path id="Path_636_" fill="#A88868" d="M43.982,24.543c-2.521-1.336-7.348-1.4-9.146-0.469c-0.387,0.178-0.131,1.441,0.193,1.322
	c2.504-0.99,6.547-1.012,8.893,0.084C44.234,25.623,44.365,24.729,43.982,24.543z"/>
<path id="Path_635_" fill="#A88868" d="M20.02,24.543c2.521-1.336,7.346-1.4,9.146-0.469c0.385,0.178,0.131,1.441-0.193,1.322
	c-2.51-0.99-6.547-1.012-8.895,0.084C19.768,25.623,19.639,24.729,20.02,24.543z"/>
<path id="Path_634_" fill="#DEB38A" d="M34.977,36.107c-0.314-0.219-1.053,0.119-2.977,0.119c-1.92,0-2.66-0.338-2.975-0.119
	c-0.377,0.266,0.223,1.461,2.975,1.461C34.754,37.568,35.355,36.373,34.977,36.107z"/>
<path id="Path_633_" fill="#DEB38A" d="M32,40.645c-2.479-0.729-6.154,0.346-6.154,0.346c1.398,1.521,2.424,3.494,6.154,3.494
	c4.275,0,5.002-2.24,6.156-3.494C38.156,40.99,34.48,39.91,32,40.645z"/>
<path id="Path_632_" fill="#FFFFFF" d="M26.768,41.248c2.602,2.176,7.852,2.191,10.467,0C34.463,41.365,29.559,41.367,26.768,41.248
	z"/>
<path id="Path_631_" fill="#FFFFFF" d="M29.547,29.084c0.094,0.73-0.402,1.594-1.773,2.242c-0.871,0.412-2.686,0.896-5.066-0.107
	c-1.066-0.449-2.107-1.848-2.014-2.623C21.984,26.166,28.338,25.811,29.547,29.084z"/>
<linearGradient id="Oval_1_" gradientUnits="userSpaceOnUse" x1="-424.5815" y1="477.4658" x2="-424.5815" y2="478.2246" gradientTransform="matrix(6.5701 0 0 -6.5701 2814.7805 3168.5281)">
	<stop  offset="0" style="stop-color:#A6694A"/>
	<stop  offset="1" style="stop-color:#4F2A1E"/>
	<a:midPointStop  offset="0" style="stop-color:#A6694A"/>
	<a:midPointStop  offset="0.5" style="stop-color:#A6694A"/>
	<a:midPointStop  offset="1" style="stop-color:#4F2A1E"/>
</linearGradient>
<circle id="Oval_99_" fill="url(#Oval_1_)" cx="25.236" cy="29.037" r="2.492"/>
<path id="Path_630_" fill="#1A1626" d="M23.988,28.99c0,1.725,2.496,1.725,2.496,0C26.484,27.391,23.988,27.391,23.988,28.99z"/>
<path id="Path_629_" fill="#AB968C" d="M23.609,28.291c0,0.723,1.045,0.723,1.045,0C24.654,27.623,23.609,27.623,23.609,28.291z"/>
<path id="Path_628_" fill="#DEB38A" d="M29.559,29.18c-1.014-3.25-7.926-2.77-8.865-0.584C21.041,25.797,28.695,25.057,29.559,29.18
	z"/>
<path id="Path_627_" fill="#FFFFFF" d="M34.455,29.084c-0.094,0.73,0.4,1.594,1.773,2.242c0.871,0.412,2.684,0.896,5.064-0.107
	c1.07-0.449,2.109-1.848,2.016-2.623C42.018,26.166,35.662,25.811,34.455,29.084z"/>
<linearGradient id="Oval_2_" gradientUnits="userSpaceOnUse" x1="-425.23" y1="477.4658" x2="-425.23" y2="478.2246" gradientTransform="matrix(6.5701 0 0 -6.5701 2832.511 3168.5281)">
	<stop  offset="0" style="stop-color:#A6694A"/>
	<stop  offset="1" style="stop-color:#4F2A1E"/>
	<a:midPointStop  offset="0" style="stop-color:#A6694A"/>
	<a:midPointStop  offset="0.5" style="stop-color:#A6694A"/>
	<a:midPointStop  offset="1" style="stop-color:#4F2A1E"/>
</linearGradient>
<circle id="Oval_98_" fill="url(#Oval_2_)" cx="38.709" cy="29.037" r="2.492"/>
<path id="Path_626_" fill="#1A1626" d="M37.463,28.99c0,1.725,2.496,1.725,2.496,0C39.959,27.391,37.463,27.391,37.463,28.99z"/>
<path id="Path_625_" fill="#AB968C" d="M37.082,28.291c0,0.723,1.047,0.723,1.047,0C38.129,27.623,37.082,27.623,37.082,28.291z"/>
<path id="Path_624_" fill="#DEB38A" d="M34.443,29.18c1.012-3.248,7.92-2.783,8.865-0.584C42.957,25.797,35.307,25.057,34.443,29.18
	z"/>
<path fill="#523E3A" d="M46.086,11.793C43.672,8.531,39.254,6,32,6c-7.252,0-11.668,2.531-14.082,5.793
	C14.5,16.408,49.502,16.408,46.086,11.793z"/>
<linearGradient id="SVGID_1_" gradientUnits="userSpaceOnUse" x1="32.0015" y1="31.791" x2="32.0015" y2="10.4116">
	<stop  offset="0.5" style="stop-color:#1E110E"/>
	<stop  offset="0.6367" style="stop-color:#271916"/>
	<stop  offset="0.859" style="stop-color:#3F2E2A"/>
	<stop  offset="1" style="stop-color:#523E3A"/>
	<a:midPointStop  offset="0.5" style="stop-color:#1E110E"/>
	<a:midPointStop  offset="0.6" style="stop-color:#1E110E"/>
	<a:midPointStop  offset="1" style="stop-color:#523E3A"/>
</linearGradient>
<path fill="url(#SVGID_1_)" d="M46.086,11.793C43.672,8.531,39.254,12.068,32,12.068c-7.252,0-11.668-3.537-14.082-0.275
	c-3.418,4.615-2.258,19.998-0.736,19.998c0.24,0,0.275-5.381,0.736-9.104c0.373-3.029,1.094-5.969,1.924-6.449
	c2.531-1.467,7.412,0.631,12.158,0.631s9.629-2.098,12.162-0.631c0.828,0.48,1.547,3.42,1.924,6.449
	c0.459,3.723,0.494,9.104,0.734,9.104C48.342,31.791,49.502,16.408,46.086,11.793z"/>
<path fill="#D5DEE3" d="M14.75,62H14C14,56.666,14.75,56.666,14.75,62z"/>
<path fill="#D5DEE3" d="M50,62h-0.75C49.25,56.666,50,56.666,50,62z"/>
</svg>
