<?xml version="1.0" encoding="utf-8"?>
<!-- Generator: Adobe Illustrator 15.0.0, SVG Export Plug-In . SVG Version: 6.00 Build 0)  -->
<!DOCTYPE svg PUBLIC "-//W3C//DTD SVG 1.1//EN" "http://www.w3.org/Graphics/SVG/1.1/DTD/svg11.dtd" [
	<!ENTITY ns_flows "http://ns.adobe.com/Flows/1.0/">
	<!ENTITY ns_extend "http://ns.adobe.com/Extensibility/1.0/">
	<!ENTITY ns_ai "http://ns.adobe.com/AdobeIllustrator/10.0/">
	<!ENTITY ns_graphs "http://ns.adobe.com/Graphs/1.0/">
]>
<svg version="1.1" id="Layer_1" xmlns:x="&ns_extend;" xmlns:i="&ns_ai;" xmlns:graph="&ns_graphs;"
	 xmlns="http://www.w3.org/2000/svg" xmlns:xlink="http://www.w3.org/1999/xlink" xmlns:a="http://ns.adobe.com/AdobeSVGViewerExtensions/3.0/"
	 x="0px" y="0px" width="64px" height="64px" viewBox="0 0 64 64" enable-background="new 0 0 64 64" xml:space="preserve">
<linearGradient id="SVGID_1_" gradientUnits="userSpaceOnUse" x1="-22.4023" y1="-518.6802" x2="-22.4023" y2="-527.4458" gradientTransform="matrix(-2.7664 0.8895 0.8472 2.6347 410.4337 1416.0867)">
	<stop  offset="0" style="stop-color:#DB0100"/>
	<stop  offset="0.5836" style="stop-color:#F31317"/>
	<stop  offset="1" style="stop-color:#FF1C23"/>
	<a:midPointStop  offset="0" style="stop-color:#DB0100"/>
	<a:midPointStop  offset="0.4242" style="stop-color:#DB0100"/>
	<a:midPointStop  offset="1" style="stop-color:#FF1C23"/>
</linearGradient>
<path fill="url(#SVGID_1_)" d="M26.68,9.989c1.811-7.38,13.074-8.346,15.561-0.609c1.669,5.19-0.961,11.332-9.024,20.137
	c-3.408-6.134-16.495-1.49-19.537-10.952C11.191,10.828,20.909,5.049,26.68,9.989z"/>
<path fill="#473834" d="M25.666,58.186c9.47-5.871,6.744-15.371,6.744-15.371L3.884,47.844c0,0,0.688,9.859,11.593,12.137
	c0,0,2.128,0.15,5.185-0.389C23.718,59.055,25.666,58.186,25.666,58.186z"/>
<path fill="#FFCC66" d="M15.542,30.559C8.151,31.861,5.652,38.51,7.46,46.172c0.367,1.539,1.195,3.707,2.067,5.537
	c1.814,3.801,8.446,6.479,11.948,6.123c2.517-0.256,6.547-5.264,6.951-9.457c0.196-2.018,0.233-4.338,0.049-5.908
	C27.556,34.646,22.936,29.256,15.542,30.559z"/>
<path fill="#966F42" d="M25.323,40.092c-1.774-0.674-4.677-0.283-5.7,0.57c-0.22,0.174-0.032,0.854,0.16,0.73
	c1.506-0.963,3.978-1.434,5.643-0.92C25.648,40.539,25.589,40.188,25.323,40.092z"/>
<path fill="#966F42" d="M9.612,42.861c1.438-1.24,4.296-1.865,5.554-1.414c0.266,0.088,0.322,0.791,0.098,0.742
	c-1.747-0.391-4.227,0.012-5.617,1.064C9.459,43.395,9.394,43.043,9.612,42.861z"/>
<path fill="#DB9D3A" d="M20.616,48.922c-0.203-0.082-0.566,0.201-1.627,0.449c-1.063,0.248-1.516,0.154-1.659,0.316
	c-0.176,0.195,0.311,0.781,1.831,0.426C20.681,49.76,20.86,49.021,20.616,48.922z"/>
<linearGradient id="SVGID_2_" gradientUnits="userSpaceOnUse" x1="-33.5337" y1="21.646" x2="-33.5337" y2="-8.8711" gradientTransform="matrix(0.9848 -0.1736 0.1736 0.9848 49.8385 31.945)">
	<stop  offset="0.05" style="stop-color:#473834"/>
	<stop  offset="0.2266" style="stop-color:#594640"/>
	<stop  offset="0.5197" style="stop-color:#715950"/>
	<stop  offset="0.7" style="stop-color:#7A6056"/>
	<a:midPointStop  offset="0.05" style="stop-color:#473834"/>
	<a:midPointStop  offset="0.4" style="stop-color:#473834"/>
	<a:midPointStop  offset="0.7" style="stop-color:#7A6056"/>
</linearGradient>
<path fill="url(#SVGID_2_)" d="M24.051,30.172c0.633-1.354-6.966-2.637-13.414,0.271c-6.47,2.732-8.49,13.508-7.325,20.113
	c0.78,4.43,5.364,9.574,12.165,9.424c-8.194-3.82-7.911-9.094-6.948-15.58c4.548-3.824,10.155-5.525,13.515-9.736
	c-0.24,1.619,2.796,3.07,4.823,6.504c3.077,5.211,5.149,10.668-1.201,17.018c5.933-2.098,8.992-8.588,8.21-13.018
	C32.89,39.58,26.619,28.916,24.051,30.172z"/>
<path fill="#473834" d="M4.35,49.338c3.569-7.033,18.752-9.275,19.701-19.166C20.375,38.98,4.571,43.143,4.35,49.338z"/>
<path fill="#E6AA37" d="M23.599,52.135c2.169,2.301-3.072,3.246-4.763,0.996L23.599,52.135z"/>
<path fill="#CC9200" d="M22.33,51.756c-1.153-0.34-1.938,0.699-3.493,1.375c1.509,0.393,3.486,0.133,3.665-0.512
	c0,0,0.646,0.322,1.151-0.254C24.219,51.721,23.434,50.941,22.33,51.756z"/>
<path fill="#E6B045" d="M10.524,46.439c0.313,1.777,6.054,0.766,5.689-1.291C15.361,42.23,10.034,43.256,10.524,46.439z"/>
<path fill="#613F34" d="M10.525,46.439c0.313,1.777,6.054,0.766,5.69-1.293C15.92,46.178,11.125,47.148,10.525,46.439z"/>
<path fill="#E6B045" d="M25.69,43.766c0.314,1.777-5.425,2.789-5.788,0.732C19.707,41.465,25.061,40.604,25.69,43.766z"/>
<path fill="#613F34" d="M25.69,43.766c0.314,1.777-5.425,2.789-5.788,0.732C20.53,45.365,25.367,44.637,25.69,43.766z"/>
<path fill="#473834" d="M38.335,58.186c-9.471-5.871-6.745-15.371-6.745-15.371l28.526,5.029c0,0-0.688,9.859-11.594,12.137
	c0,0-2.127,0.15-5.184-0.389C40.282,59.055,38.335,58.186,38.335,58.186z"/>
<path fill="#FFCC66" d="M48.458,30.559c7.391,1.303,9.891,7.951,8.082,15.613c-0.367,1.539-1.195,3.707-2.068,5.537
	c-1.814,3.801-8.445,6.479-11.947,6.123c-2.518-0.256-6.547-5.264-6.951-9.457c-0.197-2.018-0.234-4.338-0.049-5.908
	C36.444,34.646,41.063,29.256,48.458,30.559z"/>
<path fill="#966F42" d="M38.677,40.092c1.775-0.674,4.678-0.283,5.701,0.57c0.219,0.174,0.031,0.854-0.16,0.73
	c-1.506-0.963-3.979-1.434-5.643-0.92C38.353,40.539,38.411,40.188,38.677,40.092z"/>
<path fill="#966F42" d="M54.388,42.861c-1.438-1.24-4.295-1.865-5.553-1.414c-0.266,0.088-0.322,0.791-0.098,0.742
	c1.746-0.391,4.227,0.012,5.617,1.064C54.54,43.395,54.606,43.043,54.388,42.861z"/>
<path fill="#DB9D3A" d="M43.384,48.922c0.203-0.082,0.566,0.201,1.627,0.449c1.063,0.248,1.516,0.154,1.66,0.316
	c0.176,0.195-0.311,0.781-1.832,0.426C43.319,49.76,43.14,49.021,43.384,48.922z"/>
<linearGradient id="SVGID_3_" gradientUnits="userSpaceOnUse" x1="338.0234" y1="87.1445" x2="338.0234" y2="56.627" gradientTransform="matrix(-0.9848 -0.1736 -0.1736 0.9848 391.4428 31.945)">
	<stop  offset="0.05" style="stop-color:#473834"/>
	<stop  offset="0.2266" style="stop-color:#594640"/>
	<stop  offset="0.5197" style="stop-color:#715950"/>
	<stop  offset="0.7" style="stop-color:#7A6056"/>
	<a:midPointStop  offset="0.05" style="stop-color:#473834"/>
	<a:midPointStop  offset="0.4" style="stop-color:#473834"/>
	<a:midPointStop  offset="0.7" style="stop-color:#7A6056"/>
</linearGradient>
<path fill="url(#SVGID_3_)" d="M39.948,30.172c-0.633-1.354,6.967-2.637,13.414,0.271c6.471,2.732,8.49,13.508,7.326,20.113
	c-0.781,4.43-5.365,9.574-12.166,9.424c8.195-3.82,7.912-9.094,6.949-15.58c-4.549-3.824-10.156-5.525-13.516-9.736
	c0.24,1.619-2.795,3.07-4.822,6.504c-3.078,5.211-5.151,10.668,1.201,17.018c-5.934-2.098-8.993-8.588-8.211-13.018
	C31.11,39.58,37.382,28.916,39.948,30.172z"/>
<path fill="#473834" d="M59.649,49.338c-3.568-7.033-18.752-9.275-19.701-19.166C43.626,38.98,59.429,43.143,59.649,49.338z"/>
<path fill="#E6AA37" d="M40.401,52.135c-2.17,2.301,3.072,3.246,4.762,0.996L40.401,52.135z"/>
<path fill="#CC9200" d="M41.671,51.756c1.152-0.34,1.938,0.699,3.492,1.375c-1.508,0.393-3.486,0.133-3.664-0.512
	c0,0-0.646,0.322-1.152-0.254C39.78,51.721,40.565,50.941,41.671,51.756z"/>
<path fill="#E6B045" d="M53.476,46.439c-0.313,1.777-6.053,0.766-5.689-1.291C48.64,42.23,53.966,43.256,53.476,46.439z"/>
<path fill="#613F34" d="M53.476,46.439c-0.313,1.777-6.055,0.766-5.691-1.293C48.079,46.178,52.874,47.148,53.476,46.439z"/>
<path fill="#E6B045" d="M38.31,43.766c-0.314,1.777,5.426,2.789,5.789,0.732C44.294,41.465,38.938,40.604,38.31,43.766z"/>
<path fill="#613F34" d="M38.31,43.766c-0.314,1.777,5.426,2.789,5.789,0.732C43.47,45.365,38.634,44.637,38.31,43.766z"/>
</svg>
