<?xml version="1.0" encoding="utf-8"?>
<!-- Generator: Adobe Illustrator 15.0.0, SVG Export Plug-In . SVG Version: 6.00 Build 0)  -->
<!DOCTYPE svg PUBLIC "-//W3C//DTD SVG 1.1//EN" "http://www.w3.org/Graphics/SVG/1.1/DTD/svg11.dtd" [
	<!ENTITY ns_flows "http://ns.adobe.com/Flows/1.0/">
	<!ENTITY ns_extend "http://ns.adobe.com/Extensibility/1.0/">
	<!ENTITY ns_ai "http://ns.adobe.com/AdobeIllustrator/10.0/">
	<!ENTITY ns_graphs "http://ns.adobe.com/Graphs/1.0/">
]>
<svg version="1.1" id="Layer_1" xmlns:x="&ns_extend;" xmlns:i="&ns_ai;" xmlns:graph="&ns_graphs;"
	 xmlns="http://www.w3.org/2000/svg" xmlns:xlink="http://www.w3.org/1999/xlink" xmlns:a="http://ns.adobe.com/AdobeSVGViewerExtensions/3.0/"
	 x="0px" y="0px" width="64px" height="64px" viewBox="0 0 64 64" enable-background="new 0 0 64 64" xml:space="preserve">
<path fill="#E6B045" d="M32.794,40.084c-1.027-2.819-4.934-3-4.934-3l-0.989,6.962C30.438,42.765,32.794,40.084,32.794,40.084z"/>
<path fill="#3AB0A2" d="M57.19,31.724c-1.271-1.646-7.427-3.657-7.427-3.657l-11.658,0.019c0,0-6.119,2.006-7.387,3.642
	c-2.084,2.688-2.849,5.357-2.849,5.357l4.934,3V62h22.266V45.084L60,40.154C60,40.154,59.271,34.414,57.19,31.724z"/>
<path fill="#2B998D" d="M38.105,28.085c0,4.888,11.658,4.87,11.658-0.019l-1.169-0.413h-9.27L38.105,28.085z"/>
<path fill="#E6B045" d="M38.939,27.79c0,3.826,9.993,3.826,9.993,0c0-1.302,0-4.233,0-4.233h-9.993
	C38.939,23.557,38.939,26.488,38.939,27.79z"/>
<rect x="32.805" y="58" fill="#302C3B" width="22.266" height="4"/>
<path id="Path_462_" fill="#FFCC66" d="M54.092,13.999c-1.573,0.19-2.708,5.455-1.721,6.844c0.14,0.193,0.95,0.504,1.55-0.723
	c0.333-0.679,1.293-1.245,1.59-2.646C55.892,15.68,55.655,13.809,54.092,13.999z"/>
<path id="Path_461_" fill="#FFCC66" d="M33.782,13.999c1.573,0.19,2.708,5.455,1.718,6.844c-0.138,0.193-0.948,0.504-1.55-0.723
	c-0.331-0.679-1.292-1.245-1.59-2.646C31.979,15.68,32.218,13.809,33.782,13.999z"/>
<path id="Path_460_" fill="#DB9D3A" d="M54.047,15.009c-0.408,0.129-0.855,0.754-1.1,1.791c1.434-0.308,1.076,2.08-0.171,2.125
	c0.012,0.24,0.027,0.488,0.058,0.748c0.601-0.872,1.21-0.521,1.814-1.819C55.193,16.684,55.063,14.688,54.047,15.009z"/>
<path id="Path_459_" fill="#DB9D3A" d="M34.925,16.798c-0.242-1.036-0.689-1.661-1.1-1.789c-1.016-0.32-1.146,1.675-0.601,2.845
	c0.603,1.298,1.214,0.947,1.815,1.819c0.029-0.261,0.045-0.508,0.055-0.749C33.862,18.866,33.509,16.507,34.925,16.798z"/>
<path id="Path_458_" fill="#FFCC66" d="M43.936,3.878c-6.81,0-10.091,5.153-9.681,12.318c0.083,1.441,0.976,6.143,1.818,7.829
	c0.866,1.727,3.752,4.387,5.521,4.938c1.118,0.347,3.566,0.347,4.682,0c1.77-0.552,4.66-3.212,5.521-4.938
	c0.846-1.687,1.738-6.387,1.82-7.829C54.029,9.031,50.749,3.878,43.936,3.878z"/>
<path id="Path_457_" fill="#966F42" d="M51.336,13.474c-1.557-0.825-4.538-0.865-5.649-0.29c-0.238,0.11-0.08,0.893,0.119,0.817
	c1.548-0.611,4.045-0.625,5.493,0.053C51.491,14.142,51.571,13.588,51.336,13.474z"/>
<path id="Path_456_" fill="#966F42" d="M36.535,13.474c1.56-0.825,4.538-0.865,5.65-0.29c0.237,0.11,0.08,0.893-0.12,0.817
	c-1.55-0.611-4.043-0.625-5.493,0.053C36.38,14.142,36.301,13.588,36.535,13.474z"/>
<path id="Path_455_" fill="#DB9D3A" d="M45.775,20.629c-0.194-0.136-0.651,0.073-1.84,0.073c-1.186,0-1.643-0.209-1.837-0.073
	c-0.233,0.164,0.138,0.905,1.837,0.905C45.638,21.534,46.008,20.793,45.775,20.629z"/>
<path id="Path_454_" fill="#DB9D3A" d="M43.936,23.436c-1.53-0.45-3.801,0.214-3.801,0.214c0.863,0.942,1.498,2.163,3.801,2.163
	c2.641,0,3.09-1.387,3.803-2.163C47.738,23.649,45.466,22.982,43.936,23.436z"/>
<path id="Path_453_" fill="#FFFFFF" d="M40.705,23.809c1.605,1.348,4.848,1.357,6.463,0C45.458,23.882,42.429,23.883,40.705,23.809z
	"/>
<path id="Path_452_" fill="#FFFFFF" d="M42.421,16.284c0.058,0.451-0.248,0.985-1.096,1.386c-0.537,0.255-1.657,0.555-3.128-0.065
	c-0.66-0.278-1.302-1.145-1.245-1.623C37.75,14.479,41.675,14.259,42.421,16.284z"/>
<linearGradient id="Oval_1_" gradientUnits="userSpaceOnUse" x1="-437.9707" y1="479.5557" x2="-437.9707" y2="480.0254" gradientTransform="matrix(6.5701 0 0 -6.5701 2917.2688 3168.5281)">
	<stop  offset="0" style="stop-color:#A6694A"/>
	<stop  offset="1" style="stop-color:#4F2A1E"/>
	<a:midPointStop  offset="0" style="stop-color:#A6694A"/>
	<a:midPointStop  offset="0.5" style="stop-color:#A6694A"/>
	<a:midPointStop  offset="1" style="stop-color:#4F2A1E"/>
</linearGradient>
<circle id="Oval_62_" fill="url(#Oval_1_)" cx="39.758" cy="16.254" r="1.542"/>
<path id="Path_451_" fill="#1A1626" d="M38.987,16.226c0,1.067,1.541,1.067,1.541,0C40.528,15.235,38.987,15.235,38.987,16.226z"/>
<path id="Path_450_" fill="#AB968C" d="M38.753,15.794c0,0.447,0.647,0.447,0.647,0C39.4,15.38,38.753,15.38,38.753,15.794z"/>
<path id="Path_449_" fill="#DB9D3A" d="M42.429,16.344c-0.628-2.013-4.896-1.715-5.477-0.362
	C37.168,14.249,41.896,13.792,42.429,16.344z"/>
<path id="Path_448_" fill="#FFFFFF" d="M45.451,16.284c-0.058,0.451,0.248,0.985,1.095,1.386c0.54,0.255,1.658,0.555,3.131-0.065
	c0.659-0.278,1.302-1.145,1.242-1.623C50.124,14.479,46.198,14.259,45.451,16.284z"/>
<linearGradient id="Oval_2_" gradientUnits="userSpaceOnUse" x1="-439.4028" y1="479.5557" x2="-439.4028" y2="480.0254" gradientTransform="matrix(6.5701 0 0 -6.5701 2934.9993 3168.5281)">
	<stop  offset="0" style="stop-color:#A6694A"/>
	<stop  offset="1" style="stop-color:#4F2A1E"/>
	<a:midPointStop  offset="0" style="stop-color:#A6694A"/>
	<a:midPointStop  offset="0.5" style="stop-color:#A6694A"/>
	<a:midPointStop  offset="1" style="stop-color:#4F2A1E"/>
</linearGradient>
<circle id="Oval_61_" fill="url(#Oval_2_)" cx="48.079" cy="16.254" r="1.542"/>
<path id="Path_447_" fill="#1A1626" d="M47.309,16.226c0,1.067,1.543,1.067,1.543,0C48.852,15.235,47.309,15.235,47.309,16.226z"/>
<path id="Path_446_" fill="#AB968C" d="M47.074,15.794c0,0.447,0.647,0.447,0.647,0C47.722,15.38,47.074,15.38,47.074,15.794z"/>
<path id="Path_445_" fill="#DB9D3A" d="M45.445,16.344c0.625-2.012,4.891-1.724,5.474-0.362
	C50.703,14.249,45.979,13.792,45.445,16.344z"/>
<path fill="#7A6056" d="M52.636,5.585C51.145,3.567,48.416,2,43.936,2c-4.479,0-7.207,1.567-8.698,3.585
	C33.128,8.441,54.746,8.441,52.636,5.585z"/>
<linearGradient id="SVGID_1_" gradientUnits="userSpaceOnUse" x1="-58.5552" y1="17.958" x2="-58.5552" y2="4.7305" gradientTransform="matrix(1 0 0 1 102.4922 0)">
	<stop  offset="0.5" style="stop-color:#473834"/>
	<stop  offset="0.6387" style="stop-color:#503F3A"/>
	<stop  offset="0.8641" style="stop-color:#68524A"/>
	<stop  offset="1" style="stop-color:#7A6056"/>
	<a:midPointStop  offset="0.5" style="stop-color:#473834"/>
	<a:midPointStop  offset="0.6" style="stop-color:#473834"/>
	<a:midPointStop  offset="1" style="stop-color:#7A6056"/>
</linearGradient>
<path fill="url(#SVGID_1_)" d="M52.636,5.585c-1.491-2.018-4.22,0.171-8.7,0.171c-4.479,0-7.207-2.188-8.698-0.171
	c-2.109,2.856-1.393,12.373-0.454,12.373c0.149,0,0.17-3.329,0.454-5.632c0.23-1.875,0.678-3.693,1.188-3.99
	c1.564-0.907,4.58,0.39,7.51,0.39c2.933,0,5.948-1.297,7.512-0.39c0.512,0.297,0.956,2.115,1.188,3.99
	c0.283,2.303,0.304,5.632,0.455,5.632C54.029,17.958,54.746,8.441,52.636,5.585z"/>
<path fill="#473834" d="M22.408,29.691c9.389-3.755,8.449-12.673,8.449-12.673H4.574c0,0-0.939,8.918,8.447,12.673
	c0,0,1.879,0.47,4.693,0.47C20.533,30.161,22.408,29.691,22.408,29.691z"/>
<linearGradient id="SVGID_2_" gradientUnits="userSpaceOnUse" x1="26.8647" y1="30.1592" x2="26.8647" y2="2.0702">
	<stop  offset="0.05" style="stop-color:#473834"/>
	<stop  offset="0.2266" style="stop-color:#594640"/>
	<stop  offset="0.5197" style="stop-color:#715950"/>
	<stop  offset="0.7" style="stop-color:#7A6056"/>
	<a:midPointStop  offset="0.05" style="stop-color:#473834"/>
	<a:midPointStop  offset="0.4" style="stop-color:#473834"/>
	<a:midPointStop  offset="0.7" style="stop-color:#7A6056"/>
</linearGradient>
<path fill="url(#SVGID_2_)" d="M27.207,17.971c0.959,4.043,0.453,8.046-4.799,11.721c5.635-0.938,8.913-6.258,8.913-10.339
	L27.207,17.971z"/>
<linearGradient id="SVGID_3_" gradientUnits="userSpaceOnUse" x1="1772.248" y1="30.1592" x2="1772.248" y2="2.0702" gradientTransform="matrix(-1 0 0 1 1780.8145 0)">
	<stop  offset="0.05" style="stop-color:#473834"/>
	<stop  offset="0.2266" style="stop-color:#594640"/>
	<stop  offset="0.5197" style="stop-color:#715950"/>
	<stop  offset="0.7" style="stop-color:#7A6056"/>
	<a:midPointStop  offset="0.05" style="stop-color:#473834"/>
	<a:midPointStop  offset="0.4" style="stop-color:#473834"/>
	<a:midPointStop  offset="0.7" style="stop-color:#7A6056"/>
</linearGradient>
<path fill="url(#SVGID_3_)" d="M8.227,17.971c-0.961,4.043-0.453,8.046,4.797,11.721C7.391,28.753,4.11,23.434,4.11,19.353
	L8.227,17.971z"/>
<path fill="#FFCC66" d="M29.955,31.727c-1.269-1.636-2.631-2.088-2.631-2.088l0.546,10.445c0,0,1.367,2.681,4.934,3.962v-6.962
	C32.804,37.084,32.039,34.415,29.955,31.727z"/>
<path fill="#8E3ED6" d="M8.089,29.634l3.593-1.316l12.071,0.011l3.571,1.311c0,0,0.891,7.854,0.545,10.445
	c-0.56,4.194-1.226,3.636-1.274,6.873C26.558,49.366,28.857,62,28.857,62H6.593c0,0,2.301-12.613,2.265-14.999
	c-0.049-3.23-0.715-2.712-1.276-6.917C7.235,37.492,8.089,29.634,8.089,29.634z"/>
<path fill="#FFCC66" d="M23.753,28.328c0,3.939-5.153,6.305-6.026,6.305c-0.878,0-6.045-2.367-6.045-6.315l1.889-0.664h8.271
	L23.753,28.328z"/>
<path fill="#FFCC66" d="M22.185,27.79c0,3.826-8.917,3.826-8.917,0c0-1.302,0-4.233,0-4.233h8.917
	C22.185,23.557,22.185,26.488,22.185,27.79z"/>
<path fill="#E6B045" d="M11.484,22.91c0.73,3.576,4.59,7.178,6.232,7.178s5.499-3.602,6.23-7.178
	C24.299,21.191,11.134,21.191,11.484,22.91z"/>
<path fill="#FFCC66" d="M17.717,3.408c-6.813,0-10.092,5.547-9.684,12.68c0.086,1.433,0.484,3.501,0.977,5.272
	c1.021,3.684,6.41,7.393,8.707,7.393c2.295,0,7.684-3.709,8.707-7.393c0.492-1.771,0.891-3.84,0.975-5.272
	C27.807,8.955,24.529,3.408,17.717,3.408z"/>
<path fill="#D47706" d="M17.715,22.963c-1.596-0.702-1.607-0.028-4.072,0.137c0.924,1.051,1.605,2.4,4.072,2.4
	c2.83,0,3.309-1.533,4.076-2.4C19.324,22.935,19.313,22.261,17.715,22.963z"/>
<path fill="#FFFFFF" d="M14.383,23.361c1.607,1.674,5.078,1.652,6.666,0.001C18.572,23.628,16.859,23.628,14.383,23.361z"/>
<path fill="#966F42" d="M24.953,13.714c-1.479-0.882-4.133-0.99-5.184-0.389c-0.223,0.121-0.162,0.759,0.029,0.679
	c1.498-0.623,3.781-0.654,5.188,0.066C25.174,14.166,25.178,13.843,24.953,13.714z"/>
<path fill="#966F42" d="M10.479,13.714c1.479-0.882,4.133-0.99,5.186-0.389c0.223,0.121,0.162,0.759-0.031,0.679
	c-1.498-0.623-3.777-0.655-5.186,0.066C10.258,14.166,10.254,13.843,10.479,13.714z"/>
<path fill="#DB9D3A" d="M19.248,20.699c-0.164-0.113-0.543,0.062-1.533,0.062c-0.988,0-1.367-0.175-1.531-0.062
	c-0.193,0.137,0.115,0.754,1.531,0.754S19.443,20.837,19.248,20.699z"/>
<path id="Path_444_" fill="#FFFFFF" d="M16.201,16.39c0.057,0.45-0.248,0.985-1.096,1.386c-0.539,0.255-1.658,0.555-3.129-0.066
	c-0.658-0.277-1.301-1.143-1.244-1.621C11.531,14.584,15.455,14.364,16.201,16.39z"/>
<linearGradient id="Oval_3_" gradientUnits="userSpaceOnUse" x1="-426.3618" y1="479.54" x2="-426.3618" y2="480.0088" gradientTransform="matrix(6.5701 0 0 -6.5701 2814.7805 3168.5281)">
	<stop  offset="0" style="stop-color:#A6694A"/>
	<stop  offset="1" style="stop-color:#4F2A1E"/>
	<a:midPointStop  offset="0" style="stop-color:#A6694A"/>
	<a:midPointStop  offset="0.5" style="stop-color:#A6694A"/>
	<a:midPointStop  offset="1" style="stop-color:#4F2A1E"/>
</linearGradient>
<circle id="Oval_60_" fill="url(#Oval_3_)" cx="13.537" cy="16.359" r="1.542"/>
<path id="Path_443_" fill="#1A1626" d="M12.768,16.331c0,1.066,1.543,1.066,1.543,0C14.311,15.341,12.768,15.341,12.768,16.331z"/>
<path id="Path_442_" fill="#AB968C" d="M12.533,15.899c0,0.447,0.646,0.447,0.646,0C13.18,15.485,12.533,15.485,12.533,15.899z"/>
<path id="Path_441_" fill="#45332C" d="M16.209,16.449c-0.627-2.012-4.895-1.715-5.477-0.361
	C10.947,14.354,15.674,13.897,16.209,16.449z"/>
<path id="Path_440_" fill="#FFFFFF" d="M19.232,16.39c-0.059,0.45,0.248,0.985,1.094,1.386c0.539,0.255,1.658,0.555,3.129-0.066
	c0.66-0.277,1.303-1.143,1.244-1.621C23.902,14.584,19.979,14.364,19.232,16.39z"/>
<linearGradient id="Oval_4_" gradientUnits="userSpaceOnUse" x1="-427.7944" y1="479.54" x2="-427.7944" y2="480.0088" gradientTransform="matrix(6.5701 0 0 -6.5701 2832.511 3168.5281)">
	<stop  offset="0" style="stop-color:#A6694A"/>
	<stop  offset="1" style="stop-color:#4F2A1E"/>
	<a:midPointStop  offset="0" style="stop-color:#A6694A"/>
	<a:midPointStop  offset="0.5" style="stop-color:#A6694A"/>
	<a:midPointStop  offset="1" style="stop-color:#4F2A1E"/>
</linearGradient>
<circle id="Oval_59_" fill="url(#Oval_4_)" cx="21.859" cy="16.359" r="1.542"/>
<path id="Path_439_" fill="#1A1626" d="M21.09,16.331c0,1.066,1.541,1.066,1.541,0C22.631,15.341,21.09,15.341,21.09,16.331z"/>
<path id="Path_438_" fill="#AB968C" d="M20.855,15.899c0,0.447,0.646,0.447,0.646,0C21.502,15.485,20.855,15.485,20.855,15.899z"/>
<path id="Path_437_" fill="#45332C" d="M19.225,16.449c0.625-2.011,4.891-1.723,5.475-0.361
	C24.484,14.354,19.758,13.897,19.225,16.449z"/>
<linearGradient id="SVGID_4_" gradientUnits="userSpaceOnUse" x1="17.7158" y1="30.1592" x2="17.7158" y2="2.0699">
	<stop  offset="0.05" style="stop-color:#473834"/>
	<stop  offset="0.2266" style="stop-color:#594640"/>
	<stop  offset="0.5197" style="stop-color:#715950"/>
	<stop  offset="0.7" style="stop-color:#7A6056"/>
	<a:midPointStop  offset="0.05" style="stop-color:#473834"/>
	<a:midPointStop  offset="0.4" style="stop-color:#473834"/>
	<a:midPointStop  offset="0.7" style="stop-color:#7A6056"/>
</linearGradient>
<path fill="url(#SVGID_4_)" d="M25.383,4.404c0.777-1.11-5.811-3.455-12.031-1.871C7.139,3.956,4.11,13.265,4.11,19.353
	c0.537,0.441,3.485-0.658,4.116-1.382c0.258-1.065,0.662-2.162,1.041-3.298c4.666-2.701,9.947-3.338,13.611-6.571
	c-0.469,1.408,2.016,3.185,3.285,6.571c0.412,1.099,0.781,2.199,1.043,3.298c1.035,0.953,2.677,1.403,4.114,1.382
	C31.321,14.204,27.873,3.686,25.383,4.404z"/>
<path fill="#473834" d="M4.754,18.427c4.299-5.723,18.221-5.335,20.629-14.022C20.709,11.695,5.93,12.926,4.754,18.427z"/>
<path fill="#FF9ED2" d="M29.96,55.146c-0.85-1.091-4.963-2.425-4.963-2.425l-7.793,0.013c0,0-4.088,1.33-4.936,2.414
	C10.876,56.932,10.364,62,10.364,62h21.473C31.837,62,31.351,56.932,29.96,55.146z"/>
<path fill="#FF82C5" d="M17.204,52.734c0,3.241,7.793,3.229,7.793-0.013l-0.781-0.274h-6.195L17.204,52.734z"/>
<path fill="#E6B045" d="M17.763,52.538c0,2.538,6.678,2.538,6.678,0c0-0.862,0-2.808,0-2.808h-6.678
	C17.763,49.73,17.763,51.676,17.763,52.538z"/>
<path fill="#FF82C5" d="M14.233,62h-0.299C13.935,58.32,14.233,58.32,14.233,62z"/>
<path fill="#FF82C5" d="M28.269,62h-0.301C27.968,58.32,28.269,58.32,28.269,62z"/>
<path fill="#473834" d="M28.749,42.627c6.455,4.266,0.781,8.15,2.619,9.988C27.798,55.098,19.058,50.822,28.749,42.627z"/>
<path fill="#473834" d="M13.45,42.627c-6.455,4.266-0.779,8.15-2.617,9.988C14.403,55.098,23.144,50.822,13.45,42.627z"/>
<linearGradient id="SVGID_5_" gradientUnits="userSpaceOnUse" x1="21.0996" y1="45.2949" x2="21.0996" y2="31.6548">
	<stop  offset="0" style="stop-color:#473834"/>
	<stop  offset="0.2717" style="stop-color:#594640"/>
	<stop  offset="0.7226" style="stop-color:#715950"/>
	<stop  offset="1" style="stop-color:#7A6056"/>
	<a:midPointStop  offset="0" style="stop-color:#473834"/>
	<a:midPointStop  offset="0.4" style="stop-color:#473834"/>
	<a:midPointStop  offset="1" style="stop-color:#7A6056"/>
</linearGradient>
<path fill="url(#SVGID_5_)" d="M21.101,31.654c-6.787,0.004-11.082,5.974-8.439,13.641h16.877
	C32.181,37.628,27.886,31.658,21.101,31.654z"/>
<path id="Path_204_" fill="#FFCC66" d="M12.542,42.108c1.066,0.13,1.834,3.729,1.166,4.679c-0.096,0.134-0.645,0.346-1.051-0.493
	c-0.227-0.464-0.877-0.852-1.078-1.81C11.321,43.258,11.483,41.979,12.542,42.108z"/>
<path id="Path_203_" fill="#DB9D3A" d="M12.571,42.799c0.277,0.088,0.582,0.516,0.746,1.226c-0.973-0.211-0.729,1.422,0.115,1.452
	c-0.008,0.165-0.018,0.334-0.039,0.512c-0.406-0.596-0.82-0.357-1.229-1.244C11.796,43.945,11.884,42.581,12.571,42.799z"/>
<path id="Path_202_" fill="#FFCC66" d="M29.657,42.108c-1.064,0.13-1.834,3.729-1.164,4.679c0.094,0.134,0.643,0.346,1.051-0.493
	c0.225-0.464,0.875-0.852,1.076-1.81C30.88,43.258,30.718,41.979,29.657,42.108z"/>
<path id="Path_201_" fill="#DB9D3A" d="M28.884,44.021c0.164-0.708,0.467-1.135,0.744-1.223c0.689-0.219,0.777,1.146,0.408,1.945
	c-0.41,0.887-0.822,0.648-1.23,1.244c-0.02-0.178-0.031-0.348-0.037-0.512C29.603,45.436,29.843,43.824,28.884,44.021z"/>
<path fill="#FFCC66" d="M21.101,32.858c-5.822,0-8.627,4.404-8.275,10.528c0.07,1.232,0.834,4.047,1.557,5.489
	c1.273,2.545,4.6,4.442,6.719,4.442c2.117,0,5.447-1.897,6.719-4.442c0.723-1.442,1.486-4.257,1.557-5.489
	C29.728,37.263,26.923,32.858,21.101,32.858z"/>
<path id="Path_200_" fill="#DB9D3A" d="M22.458,46.828c-0.145-0.1-0.482,0.055-1.357,0.055c-0.877,0-1.215-0.154-1.359-0.055
	c-0.17,0.122,0.104,0.669,1.359,0.669C22.354,47.497,22.63,46.95,22.458,46.828z"/>
<path id="Path_199_" fill="#DB9D3A" d="M21.101,48.78c-1.313-0.386-3.258,0.184-3.258,0.184c0.74,0.808,1.283,1.853,3.258,1.853
	c2.262,0,2.646-1.188,3.258-1.853C24.358,48.964,22.411,48.393,21.101,48.78z"/>
<path id="Path_198_" fill="#FFFFFF" d="M18.331,49.1c1.375,1.155,4.154,1.162,5.539,0C22.403,49.162,19.808,49.164,18.331,49.1z"/>
<path id="Path_197_" fill="#FFFFFF" d="M19.845,43.832c0.047,0.374-0.205,0.816-0.908,1.148c-0.445,0.211-1.373,0.459-2.592-0.055
	c-0.545-0.23-1.078-0.947-1.029-1.344C15.976,42.336,19.226,42.154,19.845,43.832z"/>
<linearGradient id="Oval_5_" gradientUnits="userSpaceOnUse" x1="-425.7378" y1="475.4023" x2="-425.7378" y2="475.791" gradientTransform="matrix(6.5701 0 0 -6.5701 2814.7805 3168.5281)">
	<stop  offset="0" style="stop-color:#A6694A"/>
	<stop  offset="1" style="stop-color:#4F2A1E"/>
	<a:midPointStop  offset="0" style="stop-color:#A6694A"/>
	<a:midPointStop  offset="0.5" style="stop-color:#A6694A"/>
	<a:midPointStop  offset="1" style="stop-color:#4F2A1E"/>
</linearGradient>
<circle id="Oval_26_" fill="url(#Oval_5_)" cx="17.64" cy="43.807" r="1.277"/>
<path id="Path_196_" fill="#1A1626" d="M17.001,43.783c0,0.885,1.277,0.885,1.277,0C18.278,42.963,17.001,42.963,17.001,43.783z"/>
<path id="Path_195_" fill="#AB968C" d="M16.808,43.426c0,0.371,0.535,0.371,0.535,0C17.343,43.082,16.808,43.082,16.808,43.426z"/>
<path id="Path_194_" fill="#DB9D3A" d="M19.851,43.881c-0.518-1.666-4.055-1.421-4.535-0.299
	C15.493,42.146,19.409,41.768,19.851,43.881z"/>
<path id="Path_193_" fill="#FFFFFF" d="M22.356,43.832c-0.049,0.374,0.205,0.816,0.906,1.148c0.445,0.211,1.373,0.459,2.594-0.055
	c0.545-0.23,1.078-0.947,1.029-1.344C26.226,42.336,22.974,42.154,22.356,43.832z"/>
<linearGradient id="Oval_6_" gradientUnits="userSpaceOnUse" x1="-427.3872" y1="475.4023" x2="-427.3872" y2="475.791" gradientTransform="matrix(6.5701 0 0 -6.5701 2832.511 3168.5281)">
	<stop  offset="0" style="stop-color:#A6694A"/>
	<stop  offset="1" style="stop-color:#4F2A1E"/>
	<a:midPointStop  offset="0" style="stop-color:#A6694A"/>
	<a:midPointStop  offset="0.5" style="stop-color:#A6694A"/>
	<a:midPointStop  offset="1" style="stop-color:#4F2A1E"/>
</linearGradient>
<circle id="Oval_25_" fill="url(#Oval_6_)" cx="24.532" cy="43.807" r="1.277"/>
<path id="Path_192_" fill="#1A1626" d="M23.896,43.783c0,0.885,1.277,0.885,1.277,0C25.173,42.963,23.896,42.963,23.896,43.783z"/>
<path id="Path_191_" fill="#AB968C" d="M23.7,43.426c0,0.371,0.535,0.371,0.535,0C24.235,43.082,23.7,43.082,23.7,43.426z"/>
<path id="Path_190_" fill="#DB9D3A" d="M22.351,43.881c0.518-1.666,4.051-1.427,4.535-0.299
	C26.706,42.146,22.792,41.768,22.351,43.881z"/>
<path id="Path_189_" fill="#DB9D3A" d="M26.968,41.842c-1.098-0.693-3.311-0.895-4.178-0.539c-0.186,0.066-0.125,0.647,0.029,0.605
	c1.195-0.357,3.051-0.224,4.078,0.355C27.036,42.34,27.136,41.939,26.968,41.842z"/>
<path id="Path_188_" fill="#DB9D3A" d="M15.231,41.842c1.1-0.693,3.311-0.895,4.178-0.539c0.186,0.066,0.125,0.647-0.029,0.605
	c-1.195-0.357-3.049-0.224-4.08,0.355C15.163,42.34,15.063,41.939,15.231,41.842z"/>
<linearGradient id="SVGID_6_" gradientUnits="userSpaceOnUse" x1="21.1001" y1="44.834" x2="21.1001" y2="31.856">
	<stop  offset="0" style="stop-color:#473834"/>
	<stop  offset="0.2717" style="stop-color:#594640"/>
	<stop  offset="0.7226" style="stop-color:#715950"/>
	<stop  offset="1" style="stop-color:#7A6056"/>
	<a:midPointStop  offset="0" style="stop-color:#473834"/>
	<a:midPointStop  offset="0.4" style="stop-color:#473834"/>
	<a:midPointStop  offset="1" style="stop-color:#7A6056"/>
</linearGradient>
<path fill="url(#SVGID_6_)" d="M21.099,31.855c-3.414-0.001-6.467,1.895-7.131,4.451c-1.719,1.684-1.979,5.509-0.896,8.527
	c0.141-2.896,1.746-4.354,1.646-7.541c9.592,0,13.893,3.127,14.406,7.541C31.302,38.754,27.872,31.855,21.099,31.855z"/>
<path fill="#473834" d="M29.124,44.834c-1.795-7.715-15.166-7.5-15.166-7.5C14.03,37.326,28.292,35.027,29.124,44.834z"/>
<path fill="#473834" d="M13.071,44.834c-0.123-3.426,1.689-4.967,1.494-8.503C15.315,39.691,13.7,41.358,13.071,44.834z"/>
<path fill="#CFD8DD" d="M29.274,42.217c0.766-11.574-17.117-11.574-16.352,0C13.591,32.496,28.606,32.496,29.274,42.217z"/>
<path fill="#FFFFFF" d="M29.274,41.842c0.766-11.573-17.117-11.573-16.352,0C13.591,32.122,28.606,32.122,29.274,41.842z"/>
<path fill="#FFAD9E" d="M51.872,55.146c-0.85-1.091-4.963-2.425-4.963-2.425l-7.791,0.013c0,0-4.09,1.33-4.938,2.414
	C32.788,56.932,32.278,62,32.278,62h21.473C53.751,62,53.263,56.932,51.872,55.146z"/>
<path fill="#F7928A" d="M39.118,52.734c0,3.241,7.791,3.229,7.791-0.013l-0.781-0.274h-6.195L39.118,52.734z"/>
<path fill="#E6B045" d="M39.675,52.538c0,2.538,6.68,2.538,6.68,0c0-0.862,0-2.808,0-2.808h-6.68
	C39.675,49.73,39.675,51.676,39.675,52.538z"/>
<path fill="#F7928A" d="M36.146,62h-0.299C35.847,58.32,36.146,58.32,36.146,62z"/>
<path fill="#F7928A" d="M50.181,62h-0.299C49.882,58.32,50.181,58.32,50.181,62z"/>
<path fill="#473834" d="M50.661,42.627c6.455,4.266,0.781,8.15,2.619,9.988C49.71,55.098,40.97,50.822,50.661,42.627z"/>
<path fill="#473834" d="M35.362,42.627c-6.455,4.266-0.779,8.15-2.617,9.988C36.315,55.098,45.056,50.822,35.362,42.627z"/>
<linearGradient id="SVGID_7_" gradientUnits="userSpaceOnUse" x1="43.0117" y1="45.2949" x2="43.0117" y2="31.6548">
	<stop  offset="0" style="stop-color:#473834"/>
	<stop  offset="0.2717" style="stop-color:#594640"/>
	<stop  offset="0.7226" style="stop-color:#715950"/>
	<stop  offset="1" style="stop-color:#7A6056"/>
	<a:midPointStop  offset="0" style="stop-color:#473834"/>
	<a:midPointStop  offset="0.4" style="stop-color:#473834"/>
	<a:midPointStop  offset="1" style="stop-color:#7A6056"/>
</linearGradient>
<path fill="url(#SVGID_7_)" d="M43.013,31.654c-6.787,0.004-11.082,5.974-8.439,13.641H51.45
	C54.093,37.628,49.798,31.658,43.013,31.654z"/>
<path id="Path_239_" fill="#FFCC66" d="M34.454,42.108c1.066,0.13,1.834,3.729,1.166,4.679c-0.096,0.134-0.645,0.346-1.051-0.493
	c-0.227-0.464-0.877-0.852-1.078-1.81C33.233,43.258,33.396,41.979,34.454,42.108z"/>
<path id="Path_238_" fill="#DB9D3A" d="M34.483,42.799c0.277,0.088,0.582,0.516,0.746,1.226c-0.973-0.211-0.729,1.422,0.115,1.452
	c-0.008,0.165-0.018,0.334-0.039,0.512c-0.406-0.596-0.82-0.357-1.229-1.244C33.708,43.945,33.796,42.581,34.483,42.799z"/>
<path id="Path_237_" fill="#FFCC66" d="M51.569,42.108c-1.064,0.13-1.834,3.729-1.164,4.679c0.094,0.134,0.643,0.346,1.051-0.493
	c0.225-0.464,0.875-0.852,1.076-1.81C52.792,43.258,52.63,41.979,51.569,42.108z"/>
<path id="Path_218_" fill="#DB9D3A" d="M50.796,44.021c0.164-0.708,0.467-1.135,0.744-1.223c0.689-0.219,0.777,1.146,0.408,1.945
	c-0.41,0.887-0.822,0.648-1.23,1.244c-0.02-0.178-0.031-0.348-0.037-0.512C51.515,45.436,51.755,43.824,50.796,44.021z"/>
<path fill="#FFCC66" d="M43.013,32.858c-5.822,0-8.627,4.404-8.275,10.528c0.07,1.232,0.834,4.047,1.557,5.489
	c1.273,2.545,4.6,4.442,6.719,4.442c2.117,0,5.447-1.897,6.719-4.442c0.723-1.442,1.486-4.257,1.557-5.489
	C51.64,37.263,48.835,32.858,43.013,32.858z"/>
<path id="Path_217_" fill="#DB9D3A" d="M44.37,46.828c-0.145-0.1-0.482,0.055-1.357,0.055c-0.877,0-1.215-0.154-1.359-0.055
	c-0.17,0.122,0.104,0.669,1.359,0.669C44.267,47.497,44.542,46.95,44.37,46.828z"/>
<path id="Path_216_" fill="#DB9D3A" d="M43.013,48.78c-1.313-0.386-3.258,0.184-3.258,0.184c0.74,0.808,1.283,1.853,3.258,1.853
	c2.262,0,2.646-1.188,3.258-1.853C46.271,48.964,44.323,48.393,43.013,48.78z"/>
<path id="Path_215_" fill="#FFFFFF" d="M40.243,49.1c1.375,1.155,4.154,1.162,5.539,0C44.315,49.162,41.72,49.164,40.243,49.1z"/>
<path id="Path_214_" fill="#FFFFFF" d="M41.757,43.832c0.047,0.374-0.205,0.816-0.908,1.148c-0.445,0.211-1.373,0.459-2.592-0.055
	c-0.545-0.23-1.078-0.947-1.029-1.344C37.888,42.336,41.138,42.154,41.757,43.832z"/>
<linearGradient id="Oval_7_" gradientUnits="userSpaceOnUse" x1="-422.4028" y1="475.4023" x2="-422.4028" y2="475.791" gradientTransform="matrix(6.5701 0 0 -6.5701 2814.7805 3168.5281)">
	<stop  offset="0" style="stop-color:#A6694A"/>
	<stop  offset="1" style="stop-color:#4F2A1E"/>
	<a:midPointStop  offset="0" style="stop-color:#A6694A"/>
	<a:midPointStop  offset="0.5" style="stop-color:#A6694A"/>
	<a:midPointStop  offset="1" style="stop-color:#4F2A1E"/>
</linearGradient>
<circle id="Oval_28_" fill="url(#Oval_7_)" cx="39.552" cy="43.807" r="1.277"/>
<path id="Path_213_" fill="#1A1626" d="M38.913,43.783c0,0.885,1.277,0.885,1.277,0C40.19,42.963,38.913,42.963,38.913,43.783z"/>
<path id="Path_212_" fill="#AB968C" d="M38.72,43.426c0,0.371,0.535,0.371,0.535,0C39.255,43.082,38.72,43.082,38.72,43.426z"/>
<path id="Path_211_" fill="#DB9D3A" d="M41.763,43.881c-0.518-1.666-4.055-1.421-4.535-0.299
	C37.405,42.146,41.321,41.768,41.763,43.881z"/>
<path id="Path_210_" fill="#FFFFFF" d="M44.269,43.832c-0.049,0.374,0.205,0.816,0.906,1.148c0.445,0.211,1.373,0.459,2.594-0.055
	c0.545-0.23,1.078-0.947,1.029-1.344C48.138,42.336,44.886,42.154,44.269,43.832z"/>
<linearGradient id="Oval_8_" gradientUnits="userSpaceOnUse" x1="-424.0522" y1="475.4023" x2="-424.0522" y2="475.791" gradientTransform="matrix(6.5701 0 0 -6.5701 2832.511 3168.5281)">
	<stop  offset="0" style="stop-color:#A6694A"/>
	<stop  offset="1" style="stop-color:#4F2A1E"/>
	<a:midPointStop  offset="0" style="stop-color:#A6694A"/>
	<a:midPointStop  offset="0.5" style="stop-color:#A6694A"/>
	<a:midPointStop  offset="1" style="stop-color:#4F2A1E"/>
</linearGradient>
<circle id="Oval_27_" fill="url(#Oval_8_)" cx="46.444" cy="43.807" r="1.277"/>
<path id="Path_209_" fill="#1A1626" d="M45.808,43.783c0,0.885,1.277,0.885,1.277,0C47.085,42.963,45.808,42.963,45.808,43.783z"/>
<path id="Path_208_" fill="#AB968C" d="M45.612,43.426c0,0.371,0.535,0.371,0.535,0C46.147,43.082,45.612,43.082,45.612,43.426z"/>
<path id="Path_207_" fill="#DB9D3A" d="M44.263,43.881c0.518-1.666,4.051-1.427,4.535-0.299
	C48.618,42.146,44.704,41.768,44.263,43.881z"/>
<path id="Path_206_" fill="#DB9D3A" d="M48.88,41.842c-1.098-0.693-3.311-0.895-4.178-0.539c-0.186,0.066-0.125,0.647,0.029,0.605
	c1.195-0.357,3.051-0.224,4.078,0.355C48.948,42.34,49.048,41.939,48.88,41.842z"/>
<path id="Path_205_" fill="#DB9D3A" d="M37.144,41.842c1.1-0.693,3.311-0.895,4.178-0.539c0.186,0.066,0.125,0.647-0.029,0.605
	c-1.195-0.357-3.049-0.224-4.08,0.355C37.075,42.34,36.976,41.939,37.144,41.842z"/>
<linearGradient id="SVGID_8_" gradientUnits="userSpaceOnUse" x1="43.0127" y1="44.834" x2="43.0127" y2="31.856">
	<stop  offset="0" style="stop-color:#473834"/>
	<stop  offset="0.2717" style="stop-color:#594640"/>
	<stop  offset="0.7226" style="stop-color:#715950"/>
	<stop  offset="1" style="stop-color:#7A6056"/>
	<a:midPointStop  offset="0" style="stop-color:#473834"/>
	<a:midPointStop  offset="0.4" style="stop-color:#473834"/>
	<a:midPointStop  offset="1" style="stop-color:#7A6056"/>
</linearGradient>
<path fill="url(#SVGID_8_)" d="M43.011,31.855c-3.414-0.001-6.467,1.895-7.131,4.451c-1.719,1.684-1.979,5.509-0.896,8.527
	c0.141-2.896,1.746-4.354,1.646-7.541c9.592,0,13.893,3.127,14.406,7.541C53.214,38.754,49.784,31.855,43.011,31.855z"/>
<path fill="#473834" d="M51.036,44.834c-1.795-7.715-15.166-7.5-15.166-7.5C35.942,37.326,50.204,35.027,51.036,44.834z"/>
<path fill="#473834" d="M34.983,44.834c-0.123-3.426,1.689-4.967,1.494-8.503C37.228,39.691,35.612,41.358,34.983,44.834z"/>
<path fill="#CFD8DD" d="M51.187,42.217c0.766-11.574-17.117-11.574-16.352,0C35.503,32.496,50.519,32.496,51.187,42.217z"/>
<path fill="#FFFFFF" d="M51.187,41.842c0.766-11.573-17.117-11.573-16.352,0C35.503,32.122,50.519,32.122,51.187,41.842z"/>
<path fill="#FFCC66" d="M49.938,53.971c0,0-0.313-0.121-1.094-0.48c1-0.97,2.191,0.084,3.293-1.404
	c1.934-2.611,2.066-4.16,2.933-6.659c0,0-0.356-1.323-0.079-3.331c2.521-0.513,4.874-1.805,4.874-1.805S60,45.297,60,45.402
	c0,3.311-3.775,6.469-5.056,8.639c-0.628,1.063-1.52,2.762-1.759,3.019c-2.085,2.206-4.224,2.019-4.797,1.45
	C46.099,58.268,50.905,55.154,49.938,53.971z"/>
<path fill="#DB9D3A" d="M50.555,56.686c0,0-1.209,1.523-2.166,1.824C49.507,58.436,50.555,56.686,50.555,56.686z"/>
<path fill="#DB9D3A" d="M51.866,56.734c0,0-1.505,1.84-2.462,2.141C50.522,58.8,51.866,56.734,51.866,56.734z"/>
<path fill="#DB9D3A" d="M52.595,56.978c0,0-1.047,1.46-2.005,1.761C51.709,58.664,52.595,56.978,52.595,56.978z"/>
<path fill="#FFCC66" d="M14.063,53.971c0,0,0.313-0.121,1.094-0.48c-1-0.97-2.191,0.084-3.293-1.404
	c-1.996-2.695-2.113-4.613-3.066-7.253c-0.589-1.632-1.5-8.468-0.708-15.199c0,0-1.386,0.422-2.628,2.09
	C4.11,33.537,4,40.24,4,43.92c0,3.445,3.734,7.883,5.056,10.121c0.628,1.063,1.52,2.762,1.759,3.019
	c2.085,2.206,4.224,2.019,4.797,1.45C17.901,58.268,13.095,55.154,14.063,53.971z"/>
<path fill="#DB9D3A" d="M13.445,56.686c0,0,1.209,1.523,2.166,1.824C14.493,58.436,13.445,56.686,13.445,56.686z"/>
<path fill="#DB9D3A" d="M12.134,56.734c0,0,1.505,1.84,2.462,2.141C13.478,58.8,12.134,56.734,12.134,56.734z"/>
<path fill="#DB9D3A" d="M11.405,56.978c0,0,1.047,1.46,2.005,1.761C12.291,58.664,11.405,56.978,11.405,56.978z"/>
</svg>
