<?xml version="1.0" encoding="utf-8"?>
<!-- Generator: Adobe Illustrator 15.0.0, SVG Export Plug-In . SVG Version: 6.00 Build 0)  -->
<!DOCTYPE svg PUBLIC "-//W3C//DTD SVG 1.1//EN" "http://www.w3.org/Graphics/SVG/1.1/DTD/svg11.dtd" [
	<!ENTITY ns_flows "http://ns.adobe.com/Flows/1.0/">
	<!ENTITY ns_extend "http://ns.adobe.com/Extensibility/1.0/">
	<!ENTITY ns_ai "http://ns.adobe.com/AdobeIllustrator/10.0/">
	<!ENTITY ns_graphs "http://ns.adobe.com/Graphs/1.0/">
]>
<svg version="1.1" id="Layer_1" xmlns:x="&ns_extend;" xmlns:i="&ns_ai;" xmlns:graph="&ns_graphs;"
	 xmlns="http://www.w3.org/2000/svg" xmlns:xlink="http://www.w3.org/1999/xlink" xmlns:a="http://ns.adobe.com/AdobeSVGViewerExtensions/3.0/"
	 x="0px" y="0px" width="64px" height="64px" viewBox="0 0 64 64" enable-background="new 0 0 64 64" xml:space="preserve">
<path fill="#6E8189" d="M9.475,50.555c0,0-0.51,0.32-0.121,0.432c4.957,1.408,10.666,1.621,10.666,1.621
	c0.217-0.229,0.07-0.523,0.07-0.523L9.475,50.555z"/>
<path fill="#99A8AE" d="M17.281,48.352c-4.684,0.326-7.703,0.855-7.807,2.203c6.115,1.443,10.615,1.529,10.615,1.529
	C21.189,49.5,19.402,48.547,17.281,48.352z"/>
<path fill="#1A1626" d="M12.369,48.92c0.871,0.938,1.49,1.137,1.59,0.514c0.592,0.473,0.955,0.131,0.975-0.24
	c0.646,0.32,0.91-0.26,0.162-0.955C14.666,47.869,12.137,48.668,12.369,48.92z"/>
<path fill="#302C3B" d="M46.125,34.193c0,0-2.875-6.865-7.748-5.1c-9.281,1.502-16.352,3.031-17.17,3.656
	c-1.395,1.066-4.893,10.818-6.813,15.461c2.781,0.709,5.963,3.725,6.266,2.338c1.756-8.074,4.316-12.324,4.316-12.324
	C34.941,37.162,42.164,40.828,46.125,34.193z"/>
<path fill="#916B50" d="M41.006,16.557c1.133-0.539,1.459,0.451,1.533,0.867c0.25,1.365,5.359-0.195,4.785-1.762
	c-0.5-1.363,0.168-2.992,0.168-2.992C46.736,12.238,43.973,7.359,41.006,16.557z"/>
<path fill="#916B50" d="M41.932,3.039c-3.443,0.551-4.707,3.01-4.152,5.908c0.125,0.654-0.295,1.775-1.129,2.496
	c-0.303,0.262-0.332,0.609-0.184,0.84c0.291,0.455,0.93,0.459,1.195,0.631c0.598,0.379,0,0.799,0.449,1.248
	c0.203,0.203,0.787-0.066,0.17,1.014c0.688,0.502-0.459,1.711,1.309,1.898c0.928,0.098,4.852-2.115,5.342-2.879
	c0.514-0.801,0.393-2.283,0.393-2.283C47.967,11.15,48.9,8.844,48.33,6.43C47.535,3.053,44.162,2.684,41.932,3.039z"/>
<path fill="#69452D" d="M38.111,14.162c0.322,0.197,0.182,0.51,0.182,0.51c-0.156,0-0.195,0.514,0.035,0.514
	c0.807,0,1.547-0.693,1.789-1.111C38.855,14.012,37.469,13.441,38.111,14.162z"/>
<path fill="#FFFFFF" d="M38.111,14.162c0,0,0.123,0.441,0.182,0.51c0.252,0,1.076-0.182,1.582-0.516L38.111,14.162z"/>
<linearGradient id="SVGID_1_" gradientUnits="userSpaceOnUse" x1="37.6621" y1="6.71" x2="47.3047" y2="6.71">
	<stop  offset="0" style="stop-color:#3B2118"/>
	<stop  offset="0.5795" style="stop-color:#54352C"/>
	<stop  offset="1" style="stop-color:#614036"/>
	<a:midPointStop  offset="0" style="stop-color:#3B2118"/>
	<a:midPointStop  offset="0.4303" style="stop-color:#3B2118"/>
	<a:midPointStop  offset="1" style="stop-color:#614036"/>
</linearGradient>
<path fill="url(#SVGID_1_)" d="M47.123,4.633C44.676,0.949,38.18,3.18,37.721,4.08c-0.164,0.324,0.041,1.127,0.309,1.645
	c1.033,0,3.08-0.863,4.455-0.217c2.039,0.959-0.275,5.102,1.605,5.328C44.385,10.871,48.168,6.467,47.123,4.633z"/>
<linearGradient id="SVGID_2_" gradientUnits="userSpaceOnUse" x1="37.7207" y1="7.8301" x2="49.6191" y2="7.8301">
	<stop  offset="0" style="stop-color:#614036"/>
	<stop  offset="0.3534" style="stop-color:#5E3D33"/>
	<stop  offset="0.6441" style="stop-color:#54352B"/>
	<stop  offset="0.9118" style="stop-color:#42271E"/>
	<stop  offset="1" style="stop-color:#3B2118"/>
	<a:midPointStop  offset="0" style="stop-color:#614036"/>
	<a:midPointStop  offset="0.7455" style="stop-color:#614036"/>
	<a:midPointStop  offset="1" style="stop-color:#3B2118"/>
</linearGradient>
<path fill="url(#SVGID_2_)" d="M48.766,4.566C48.064,3.383,46.648,1.992,43.434,2c-2.902,0.006-5.254,1.18-5.713,2.08
	c1.066,0,4.305-1.359,5.996-0.096c2.633,1.969,0.338,4.641,0.959,6.322c0.971,2.629,2.545,3.354,2.545,3.354
	C49.24,12.199,50.578,7.631,48.766,4.566z"/>
<path fill="#69452D" d="M36.475,12.287c0.238,0.635,1.764,0.771,2.252,0C37.922,12.869,36.336,11.918,36.475,12.287z"/>
<path fill="#916B50" d="M45.336,8.705c-1.285,0.266-1.686,3.168-0.723,3.799c0.135,0.088,0.838,0.166,1.211-0.545
	c0.205-0.393,0.943-0.793,1.047-1.564C47.002,9.404,46.613,8.441,45.336,8.705z"/>
<path id="Path_1526_" fill="#69452D" d="M45.404,9.244c-0.326,0.111-0.635,0.488-0.729,1.063c1.158-0.314,1.105,0.986,0.076,1.141
	c0.033,0.127,0.072,0.256,0.123,0.389c0.41-0.523,0.951-0.402,1.318-1.15C46.525,10.01,46.213,8.969,45.404,9.244z"/>
<path fill="#FFFFFF" d="M40.602,9.814c0.018,0.186-0.568,0.855-1.316,0.918c-0.426,0.035-0.578-0.295-0.674-0.648
	C38.52,8.672,40.182,9.174,40.602,9.814z"/>
<linearGradient id="Path_1_" gradientUnits="userSpaceOnUse" x1="39.1777" y1="10.6748" x2="39.1777" y2="9.188">
	<stop  offset="0" style="stop-color:#A6694A"/>
	<stop  offset="1" style="stop-color:#4F2A1E"/>
	<a:midPointStop  offset="0" style="stop-color:#A6694A"/>
	<a:midPointStop  offset="0.5" style="stop-color:#A6694A"/>
	<a:midPointStop  offset="1" style="stop-color:#4F2A1E"/>
</linearGradient>
<path id="Path_1525_" fill="url(#Path_1_)" d="M38.582,9.904c0,1.027,1.191,1.027,1.191,0C39.773,8.949,38.582,8.949,38.582,9.904z"
	/>
<path id="Path_1524_" fill="#1A1626" d="M38.707,9.857c0,0.514,0.594,0.514,0.594,0C39.301,9.379,38.707,9.379,38.707,9.857z"/>
<path id="Path_1523_" fill="#AB968C" d="M39.074,9.65c0,0.215,0.346,0.215,0.346,0C39.42,9.449,39.074,9.449,39.074,9.65z"/>
<path fill="#69452D" d="M40.602,9.814c-0.32-0.641-1.916-1.107-1.959-0.242C38.867,8.99,40.051,9.309,40.602,9.814z"/>
<path id="Path_1522_" fill="#5E4431" d="M40.908,8.354c-0.732-0.457-2.135-0.479-2.656-0.16c-0.113,0.061-0.039,0.494,0.055,0.453
	c0.729-0.34,1.902-0.348,2.582,0.029C40.98,8.723,41.018,8.418,40.908,8.354z"/>
<path fill="#3AB0A2" d="M45.033,32.75c0,0-3.047-3.104-7.885-1.893c1.775-5.883,3.104-11.195,5.326-13.686
	c0.408,1.609,3.41-1.486,4.816-1.611C52.455,19.85,45.236,26.027,45.033,32.75z"/>
<rect x="49.045" y="41.131" fill="#4E5E67" width="1.467" height="1.746"/>
<path fill="#1A1626" d="M30.996,55.354V53.76c0,0-9.26,0.195-20.088-1.557c-0.086,1.648,1.787,1.947,2.473,2.064
	C22.307,55.801,30.996,55.354,30.996,55.354z"/>
<path fill="#1A1626" d="M26.705,26.992h-1.086c0,0-0.34-1.793,0-2.133c0.193-0.193,0.895-0.193,1.086,0
	C27.047,25.199,26.705,26.992,26.705,26.992z"/>
<path fill="#1A1626" d="M26.164,28.184l-0.953,2.279c0,0-0.307-0.525-4.584-1.307c-0.268-0.049-0.234-0.783,0.035-0.82
	C23.268,27.979,26.164,28.184,26.164,28.184z"/>
<linearGradient id="SVGID_3_" gradientUnits="userSpaceOnUse" x1="33.8594" y1="44.6865" x2="35.9824" y2="44.6865">
	<stop  offset="0" style="stop-color:#5B666E"/>
	<stop  offset="0.215" style="stop-color:#566069"/>
	<stop  offset="0.4906" style="stop-color:#4A5059"/>
	<stop  offset="0.7978" style="stop-color:#343640"/>
	<stop  offset="1" style="stop-color:#23212B"/>
	<a:midPointStop  offset="0" style="stop-color:#5B666E"/>
	<a:midPointStop  offset="0.6545" style="stop-color:#5B666E"/>
	<a:midPointStop  offset="1" style="stop-color:#23212B"/>
</linearGradient>
<rect x="33.859" y="43.346" fill="url(#SVGID_3_)" width="2.123" height="2.682"/>
<path fill="#1A1626" d="M20.373,54.17v-1.65L8.672,50.852c0,0-0.082,1.125,0.387,1.352C11.719,53.486,20.373,54.17,20.373,54.17z"/>
<rect x="21.736" y="55.598" fill="#4E5E67" width="0.238" height="5.162"/>
<rect x="19.273" y="58.059" fill="#4E5E67" width="5.162" height="0.238"/>
<rect x="21.735" y="55.598" transform="matrix(0.703 0.7112 -0.7112 0.703 47.8663 1.7361)" fill="#4E5E67" width="0.239" height="5.161"/>
<rect x="21.736" y="55.596" transform="matrix(-0.7071 0.7071 -0.7071 -0.7071 78.4458 83.8621)" fill="#4E5E67" width="0.238" height="5.164"/>
<path fill="#1A1626" d="M21.82,61.082c-1.6-0.02-2.887-1.336-2.869-2.938c0.02-1.602,1.338-2.889,2.938-2.869
	c1.6,0.018,2.887,1.336,2.869,2.938C24.738,59.814,23.42,61.102,21.82,61.082z M21.881,56c-1.201-0.014-2.189,0.951-2.203,2.152
	c-0.014,1.203,0.949,2.189,2.15,2.203s2.189-0.951,2.203-2.152S23.082,56.016,21.881,56z"/>
<path fill="#B3C2C6" d="M21.809,62c-2.105-0.025-3.799-1.76-3.775-3.867c0.025-2.107,1.76-3.801,3.867-3.777
	c2.105,0.027,3.801,1.76,3.775,3.867S23.916,62.025,21.809,62z M21.889,55.313c-1.582-0.02-2.881,1.25-2.9,2.832
	c-0.018,1.582,1.252,2.881,2.832,2.9c1.58,0.018,2.881-1.252,2.9-2.832C24.738,56.631,23.469,55.33,21.889,55.313z"/>
<linearGradient id="SVGID_4_" gradientUnits="userSpaceOnUse" x1="38.874" y1="57.4473" x2="38.874" y2="45.0391">
	<stop  offset="0" style="stop-color:#23212B"/>
	<stop  offset="0.3136" style="stop-color:#32333C"/>
	<stop  offset="0.9394" style="stop-color:#576169"/>
	<stop  offset="1" style="stop-color:#5B666E"/>
	<a:midPointStop  offset="0" style="stop-color:#23212B"/>
	<a:midPointStop  offset="0.5515" style="stop-color:#23212B"/>
	<a:midPointStop  offset="1" style="stop-color:#5B666E"/>
</linearGradient>
<path fill="url(#SVGID_4_)" d="M55.334,56.631c0,0-23.365,3.311-32.549-3.404c-0.541-0.395-0.445-2.182,0-2.682
	c5.1-5.725,24.936-6.623,29.773-4.354C54.785,47.234,55.334,56.631,55.334,56.631z"/>
<polygon fill="#1A1626" points="22.873,52.83 21.207,58.178 22.504,58.178 26.67,52.83 "/>
<path fill="#B3C2C6" d="M21.846,58.939c-0.42-0.006-0.758-0.35-0.754-0.77c0.006-0.422,0.352-0.76,0.771-0.756
	c0.42,0.006,0.758,0.352,0.754,0.773C22.611,58.605,22.266,58.945,21.846,58.939z"/>
<path fill="#1A1626" d="M54.574,54.699c0-4.791-3.877-8.672-8.67-8.672c-4.781-0.002-8.664,3.887-8.668,8.672H54.574z"/>
<circle fill="#B3C2C6" cx="45.905" cy="54.695" r="7.304"/>
<circle fill="#1A1626" cx="45.905" cy="54.695" r="5.052"/>
<path fill="#B3C2C6" d="M49.588,55.943c0.133-0.391,0.209-0.814,0.209-1.248c0-0.439-0.076-0.857-0.209-1.25l-2.164,1.25
	L49.588,55.943z"/>
<path fill="#B3C2C6" d="M46.664,53.379l2.164-1.246c-0.555-0.633-1.309-1.084-2.164-1.254V53.379z"/>
<path fill="#B3C2C6" d="M42.223,53.443c-0.131,0.395-0.207,0.813-0.207,1.252c0,0.434,0.076,0.857,0.207,1.248l2.168-1.248
	L42.223,53.443z"/>
<path fill="#B3C2C6" d="M46.664,56.008v2.504c0.857-0.172,1.609-0.621,2.164-1.252L46.664,56.008z"/>
<path fill="#B3C2C6" d="M45.148,53.379v-2.5c-0.857,0.17-1.611,0.621-2.164,1.254L45.148,53.379z"/>
<path fill="#B3C2C6" d="M45.148,56.012l-2.164,1.248c0.555,0.631,1.307,1.08,2.164,1.252V56.012z"/>
<circle fill="#B3C2C6" cx="45.905" cy="54.693" r="0.913"/>
<linearGradient id="SVGID_5_" gradientUnits="userSpaceOnUse" x1="48.3867" y1="16.2886" x2="54.9805" y2="16.2886">
	<stop  offset="0" style="stop-color:#2289C7"/>
	<stop  offset="0.2619" style="stop-color:#1779B3"/>
	<stop  offset="0.7365" style="stop-color:#066093"/>
	<stop  offset="1" style="stop-color:#005687"/>
	<a:midPointStop  offset="0" style="stop-color:#2289C7"/>
	<a:midPointStop  offset="0.4242" style="stop-color:#2289C7"/>
	<a:midPointStop  offset="1" style="stop-color:#005687"/>
</linearGradient>
<path fill="url(#SVGID_5_)" d="M53.553,20.234c-0.994,0.703-4.172,0.264-4.814-0.775c-1.023-1.656,0.346-6.232,2.061-7.152
	c1.311-0.703,3.5-0.199,4.006,1.555C55.246,15.402,54.863,19.309,53.553,20.234z"/>
<linearGradient id="SVGID_6_" gradientUnits="userSpaceOnUse" x1="172.5928" y1="68.9961" x2="185.4463" y2="68.9961" gradientTransform="matrix(0.9847 -0.174 0.174 0.9847 -139.2763 -7.6163)">
	<stop  offset="0" style="stop-color:#2289C7"/>
	<stop  offset="0.2619" style="stop-color:#1779B3"/>
	<stop  offset="0.7365" style="stop-color:#066093"/>
	<stop  offset="1" style="stop-color:#005687"/>
	<a:midPointStop  offset="0" style="stop-color:#2289C7"/>
	<a:midPointStop  offset="0.4242" style="stop-color:#2289C7"/>
	<a:midPointStop  offset="1" style="stop-color:#005687"/>
</linearGradient>
<path fill="url(#SVGID_6_)" d="M51.127,38.033c-0.072,0.846-6.871,1.418-6.992,0.488c-0.799-6.059,1.387-15.324,4.844-18.66
	c0.822-0.793,5.031-1.15,4.969,0.438C53.76,24.955,51.572,32.799,51.127,38.033z"/>
<rect x="25.131" y="39.83" fill="#1A1626" width="24.063" height="3.516"/>
<rect x="50.363" y="40.664" fill="#E81C27" width="0.432" height="2.682"/>
<linearGradient id="SVGID_7_" gradientUnits="userSpaceOnUse" x1="33.9443" y1="41.4316" x2="33.9443" y2="35.7227">
	<stop  offset="0" style="stop-color:#005687"/>
	<stop  offset="0.2635" style="stop-color:#066093"/>
	<stop  offset="0.7381" style="stop-color:#1779B3"/>
	<stop  offset="1" style="stop-color:#2289C7"/>
	<a:midPointStop  offset="0" style="stop-color:#005687"/>
	<a:midPointStop  offset="0.5758" style="stop-color:#005687"/>
	<a:midPointStop  offset="1" style="stop-color:#2289C7"/>
</linearGradient>
<path fill="url(#SVGID_7_)" d="M44.504,41.432c-1.52,0-19.668,0-21.039,0c-2.094,0-1.182-6.197,3.906-5.447
	c11.041,1.627,12.688,0.809,16.332-0.234C45.4,35.264,46.268,41.432,44.504,41.432z"/>
<path fill="#1A1626" d="M51.123,37.844c0,4.266-6.393,4.266-6.393,0S51.123,33.578,51.123,37.844z"/>
<path fill="#4E5E67" d="M50.238,37.844c0,3.084-4.623,3.084-4.623,0S50.238,34.76,50.238,37.844z"/>
<path fill="#1A1626" d="M48.814,37.844c0,1.186-1.775,1.186-1.775,0S48.814,36.658,48.814,37.844z"/>
<polygon fill="#1A1626" points="44.504,31.27 46.125,41.432 44.504,41.432 42.922,31.367 "/>
<path fill="#4E5E67" d="M44.334,33.531c-1.68,0.838-2.143-1.795-3.275-1.961c-3.908-0.574-11.914-1.004-15.531-0.859
	c-1.053,0.041-0.654-2.203,0.387-2.342c7.127-0.943,15.221,0.215,19.973,1.16c0.508,0.102,0.146,1.303-0.527,1.217
	C45.287,32.654,45.125,33.135,44.334,33.531z"/>
<path fill="#1A1626" d="M44.504,32.275c0,0.863-1.293,0.863-1.293,0S44.504,31.412,44.504,32.275z"/>
<path fill="#916B50" d="M26.857,25.348l-0.23-0.543c0.973-0.377,1.402,1.123,2.563,1.588c1.5,0.6,6.328-0.715,8.959-0.959
	c1.078-0.846,2.518-2.836,3.453-3.459l2.494,3.5c-1.363,1.229-3.971,2.928-4.885,3.137c-2.154,0.49-6.334-0.314-10.035,0.32
	c-0.641,0.109-2.096,0.246-2.754-0.033c-0.906-0.385-1.76-1.502-1.445-2.195C24.182,24.994,26.449,26.051,26.857,25.348z"/>
<path fill="#69452D" d="M25.73,27.068c0,0-0.67-0.027-0.754-0.365C25.227,26.891,25.73,27.068,25.73,27.068z"/>
<path fill="#69452D" d="M25.898,27.988c0,0-0.762-0.057-0.844-0.395C25.305,27.779,25.898,27.988,25.898,27.988z"/>
<path fill="#69452D" d="M26.334,28.611c0,0-0.689,0.023-0.771-0.314C25.813,28.484,26.334,28.611,26.334,28.611z"/>
<path fill="#25A898" d="M43.67,18.643c2.09-2.426,5.807-0.674,4.375,1.936c-1.512,2.756-1.92,3.439-4.668,5.918
	c-1.563-0.977-2.832-3.77-2.832-3.77C41.523,21.33,42.477,20.027,43.67,18.643z"/>
</svg>
