<?xml version="1.0" encoding="utf-8"?>
<!-- Generator: Adobe Illustrator 15.0.0, SVG Export Plug-In . SVG Version: 6.00 Build 0)  -->
<!DOCTYPE svg PUBLIC "-//W3C//DTD SVG 1.1//EN" "http://www.w3.org/Graphics/SVG/1.1/DTD/svg11.dtd" [
	<!ENTITY ns_flows "http://ns.adobe.com/Flows/1.0/">
	<!ENTITY ns_extend "http://ns.adobe.com/Extensibility/1.0/">
	<!ENTITY ns_ai "http://ns.adobe.com/AdobeIllustrator/10.0/">
	<!ENTITY ns_graphs "http://ns.adobe.com/Graphs/1.0/">
]>
<svg version="1.1" id="Layer_1" xmlns:x="&ns_extend;" xmlns:i="&ns_ai;" xmlns:graph="&ns_graphs;"
	 xmlns="http://www.w3.org/2000/svg" xmlns:xlink="http://www.w3.org/1999/xlink" xmlns:a="http://ns.adobe.com/AdobeSVGViewerExtensions/3.0/"
	 x="0px" y="0px" width="64px" height="64px" viewBox="0 0 64 64" enable-background="new 0 0 64 64" xml:space="preserve">
<path fill="#006DAE" d="M11.434,52.752c2.5-1.365,12.877-4.969,12.877-4.969H39.77c0,0,10.369,3.596,12.855,4.965
	C56.24,54.732,57,62,57,62H7C7,62,7.807,54.729,11.434,52.752z"/>
<polygon fill="#DEB38A" points="24,49.947 32,54.779 40,49.947 40,41.912 24,41.912 "/>
<rect x="17.027" y="57.277" fill="#FFE12C" width="9.09" height="0.914"/>
<rect x="17.027" y="60.174" fill="#014D87" width="9.09" height="1.826"/>
<rect x="32" y="54.625" fill="#014D87" width="3.268" height="7.375"/>
<polygon fill="#018BC9" points="26.117,59.072 17.027,59.072 17.027,60.273 18.043,60.273 21.572,61.553 25.102,60.273 
	26.117,60.273 "/>
<linearGradient id="SVGID_1_" gradientUnits="userSpaceOnUse" x1="42.4473" y1="58.5254" x2="47.3174" y2="58.5254">
	<stop  offset="0" style="stop-color:#FFE12C"/>
	<stop  offset="0.2866" style="stop-color:#FFDA25"/>
	<stop  offset="0.695" style="stop-color:#FFC813"/>
	<stop  offset="1" style="stop-color:#FFB600"/>
	<a:midPointStop  offset="0" style="stop-color:#FFE12C"/>
	<a:midPointStop  offset="0.6303" style="stop-color:#FFE12C"/>
	<a:midPointStop  offset="1" style="stop-color:#FFB600"/>
</linearGradient>
<path fill="url(#SVGID_1_)" d="M42.537,56.236l0.693-0.844c0.902,0.635,1.65-0.146,1.65-0.146s0.752,0.78,1.652,0.146l0.691,0.844
	c-1.158,0.74,0.404,1.942,0.035,3.244c-0.516,1.805-1.75,1.607-2.379,2.324c-0.629-0.717-1.859-0.52-2.375-2.324
	C42.135,58.179,43.701,56.977,42.537,56.236z"/>
<path fill="#018BC9" d="M24.033,55.121c0,0-2.965-3.715-0.541-7.453C23.906,47.037,24,47.119,24,47.119c0,2.525,8,7.264,8,7.264
	v1.068c0,0-0.971-1.098-3.93-0.559c0,0-0.309-1.109,0.105-2.104C28.176,52.789,25.986,53.191,24.033,55.121z"/>
<path fill="#018BC9" d="M39.965,55.121c0,0,2.967-3.715,0.541-7.453C40.094,47.037,40,47.119,40,47.119c0,2.525-8,7.264-8,7.264
	v1.982c0,0,0.969-2.012,3.928-1.473c0,0,0.309-1.109-0.104-2.104C35.824,52.789,38.012,53.191,39.965,55.121z"/>
<path fill="#006DAE" d="M34.633,59.262c0,1.217-2,1.217-2,0C32.633,58.043,34.633,58.043,34.633,59.262z"/>
<path fill="#014D87" d="M42.703,48.604l0.932,2.791c0,0,7.932,3.09,9.801,3.902c1.855,0.807,1.104-1.793-0.354-2.732
	C52.537,52.211,45.932,49.475,42.703,48.604z"/>
<path fill="#006DAE" d="M46.074,50.625c0.613,1.111-1.137,1.057-1.799-0.039C43.541,49.369,45.436,49.463,46.074,50.625z"/>
<path fill="#014D87" d="M21.297,48.604l-0.934,2.791c0,0-7.93,3.09-9.801,3.902c-1.854,0.807-1.104-1.793,0.355-2.732
	C11.463,52.211,18.066,49.475,21.297,48.604z"/>
<path fill="#006DAE" d="M17.926,50.625c-0.613,1.111,1.137,1.057,1.799-0.039C20.459,49.369,18.564,49.463,17.926,50.625z"/>
<path fill="#1E110E" d="M47.211,38.785c1.082,0.715,2.33,1.248,3.787,1.521c-2.586-5.889,1.314-18.238-6.682-27.311
	c-11.27,0.336-12.828,36.721,2.883,31.883c-1-0.434-1.629-1.316-1.996-2.43c1.211,0.346,2.627,0.357,4.275-0.148
	C48.166,41.734,47.498,40.399,47.211,38.785z"/>
<path fill="#1E110E" d="M18.92,12.996c-7.996,9.072-3.334,21.422-5.922,27.311c1.457-0.273,2.707-0.807,3.789-1.521
	c-0.289,1.614-0.957,2.949-2.27,3.516c1.648,0.506,3.063,0.494,4.273,0.148c-0.367,1.113-0.992,1.996-1.992,2.43
	C32.508,49.717,30.191,13.332,18.92,12.996z"/>
<path id="Path_118_" fill="#FFD8B4" d="M48.441,25.393c-2.547,0.309-4.383,8.816-2.783,11.061c0.225,0.314,1.535,0.814,2.508-1.167
	c0.539-1.097,2.094-2.013,2.574-4.276C51.357,28.109,50.975,25.086,48.441,25.393z"/>
<path id="Path_104_" fill="#FFD8B4" d="M15.557,25.393c2.547,0.309,4.385,8.816,2.783,11.061c-0.225,0.314-1.537,0.814-2.508-1.167
	c-0.539-1.097-2.094-2.013-2.574-4.276C12.641,28.109,13.025,25.086,15.557,25.393z"/>
<path id="Path_103_" fill="#DEB38A" d="M48.371,27.023c-0.664,0.209-1.389,1.22-1.781,2.896c2.322-0.498,1.742,3.362-0.275,3.436
	c0.018,0.388,0.045,0.787,0.092,1.207c0.973-1.409,1.959-0.844,2.938-2.939C50.225,29.732,50.016,26.508,48.371,27.023z"/>
<path id="Path_102_" fill="#DEB38A" d="M17.408,29.916c-0.395-1.674-1.117-2.686-1.781-2.893c-1.645-0.516-1.855,2.709-0.975,4.6
	c0.979,2.096,1.967,1.53,2.939,2.939c0.049-0.421,0.074-0.82,0.092-1.209C15.686,33.258,15.115,29.446,17.408,29.916z"/>
<path fill="#FFD8B4" d="M31.998,9.035C20.969,9.035,15.656,18,16.32,29.527c0.137,2.318,0.783,5.661,1.58,8.525
	C19.555,44.006,28.281,50,31.998,50s12.443-5.994,14.1-11.947c0.797-2.864,1.441-6.207,1.578-8.525
	C48.34,18,43.029,9.035,31.998,9.035z"/>
<path id="Path_101_" fill="#A88868" d="M43.98,24.543c-2.521-1.333-7.35-1.398-9.146-0.469c-0.387,0.179-0.131,1.443,0.193,1.322
	c2.504-0.989,6.547-1.012,8.893,0.085C44.232,25.623,44.363,24.729,43.98,24.543z"/>
<path id="Path_100_" fill="#A88868" d="M20.018,24.543c2.521-1.333,7.346-1.398,9.146-0.469c0.383,0.179,0.131,1.443-0.193,1.322
	c-2.51-0.989-6.547-1.012-8.895,0.085C19.764,25.623,19.635,24.729,20.018,24.543z"/>
<path id="Path_99_" fill="#DEB38A" d="M34.975,36.108c-0.314-0.22-1.053,0.118-2.977,0.118c-1.92,0-2.66-0.338-2.977-0.118
	c-0.375,0.265,0.225,1.462,2.977,1.462C34.752,37.57,35.354,36.373,34.975,36.108z"/>
<path id="Path_98_" fill="#DEB38A" d="M31.998,40.646c-2.48-0.728-6.156,0.345-6.156,0.345c1.4,1.523,2.426,3.497,6.156,3.497
	c4.273,0,5.002-2.241,6.158-3.497C38.156,40.99,34.479,39.914,31.998,40.646z"/>
<path id="Path_97_" fill="#FFFFFF" d="M26.766,41.248c2.602,2.178,7.852,2.193,10.467,0C34.461,41.367,29.557,41.368,26.766,41.248z
	"/>
<path id="Path_96_" fill="#FFFFFF" d="M29.545,29.086c0.094,0.729-0.402,1.594-1.773,2.24c-0.873,0.412-2.684,0.896-5.066-0.106
	c-1.066-0.448-2.107-1.849-2.014-2.622C21.982,26.168,28.336,25.812,29.545,29.086z"/>
<linearGradient id="Oval_1_" gradientUnits="userSpaceOnUse" x1="-424.582" y1="477.4658" x2="-424.582" y2="478.2246" gradientTransform="matrix(6.5701 0 0 -6.5701 2814.7805 3168.5281)">
	<stop  offset="0" style="stop-color:#A6694A"/>
	<stop  offset="1" style="stop-color:#4F2A1E"/>
	<a:midPointStop  offset="0" style="stop-color:#A6694A"/>
	<a:midPointStop  offset="0.5" style="stop-color:#A6694A"/>
	<a:midPointStop  offset="1" style="stop-color:#4F2A1E"/>
</linearGradient>
<ellipse id="Oval_13_" fill="url(#Oval_1_)" cx="25.232" cy="29.037" rx="2.498" ry="2.492"/>
<path id="Path_95_" fill="#1A1626" d="M23.986,28.991c0,1.725,2.496,1.725,2.496,0C26.482,27.391,23.986,27.391,23.986,28.991z"/>
<path id="Path_94_" fill="#AB968C" d="M23.605,28.293c0,0.724,1.047,0.724,1.047,0C24.652,27.623,23.605,27.623,23.605,28.293z"/>
<path id="Path_93_" fill="#DEB38A" d="M29.557,29.183c-1.014-3.253-7.924-2.772-8.865-0.585
	C21.039,25.797,28.693,25.058,29.557,29.183z"/>
<path id="Path_92_" fill="#FFFFFF" d="M34.453,29.086c-0.096,0.729,0.4,1.594,1.773,2.24c0.871,0.412,2.684,0.896,5.064-0.106
	c1.07-0.448,2.109-1.849,2.016-2.622C42.018,26.168,35.66,25.812,34.453,29.086z"/>
<linearGradient id="Oval_2_" gradientUnits="userSpaceOnUse" x1="-425.23" y1="477.4658" x2="-425.23" y2="478.2246" gradientTransform="matrix(6.5701 0 0 -6.5701 2832.511 3168.5281)">
	<stop  offset="0" style="stop-color:#A6694A"/>
	<stop  offset="1" style="stop-color:#4F2A1E"/>
	<a:midPointStop  offset="0" style="stop-color:#A6694A"/>
	<a:midPointStop  offset="0.5" style="stop-color:#A6694A"/>
	<a:midPointStop  offset="1" style="stop-color:#4F2A1E"/>
</linearGradient>
<circle id="Oval_12_" fill="url(#Oval_2_)" cx="38.709" cy="29.037" r="2.492"/>
<path id="Path_91_" fill="#1A1626" d="M37.461,28.991c0,1.725,2.496,1.725,2.496,0C39.957,27.391,37.461,27.391,37.461,28.991z"/>
<path id="Path_90_" fill="#AB968C" d="M37.082,28.293c0,0.724,1.045,0.724,1.045,0C38.127,27.623,37.082,27.623,37.082,28.293z"/>
<path id="Path_89_" fill="#DEB38A" d="M34.441,29.183c1.012-3.251,7.92-2.786,8.865-0.585
	C42.957,25.797,35.305,25.058,34.441,29.183z"/>
<linearGradient id="SVGID_2_" gradientUnits="userSpaceOnUse" x1="31.8354" y1="31.8184" x2="31.8354" y2="6">
	<stop  offset="0" style="stop-color:#1E110E"/>
	<stop  offset="0.2821" style="stop-color:#31211E"/>
	<stop  offset="0.7266" style="stop-color:#493632"/>
	<stop  offset="1" style="stop-color:#523E3A"/>
	<a:midPointStop  offset="0" style="stop-color:#1E110E"/>
	<a:midPointStop  offset="0.4" style="stop-color:#1E110E"/>
	<a:midPointStop  offset="1" style="stop-color:#523E3A"/>
</linearGradient>
<path fill="url(#SVGID_2_)" d="M32,6c-6.711,0-10.064,3.035-10.744,4.474c-8.113,1.852-10.723,15.515-4.648,21.345
	c0.754-6.211,1.48-10.201,5.617-14.404c2.412,3.227,7.424,5.041,11.91,5.041c-2.125-1.54-3.574-3.051-4.711-4.457
	c7.494,3.433,15.885,5.63,17.969,13.82C54.602,20.359,48.613,6,32,6z"/>
<path fill="#014D87" d="M51.031,9.332C47.492,6.254,37,2,32,2c-5.002,0-15.492,4.254-19.031,7.332
	c-1.311,1.139-1.605,4.107,1.131,5.09c2.328,0.836,33.473,0.836,35.801,0C52.637,13.439,52.342,10.471,51.031,9.332z"/>
<path fill="#006DAE" d="M32,12.977c0,0-13.996,0-18.074,1.369l0.248,0.535H32h17.826l0.248-0.535C45.996,12.977,32,12.977,32,12.977
	z"/>
<path fill="#014D87" d="M14.373,14.881l-0.316,2.962L32,18.535l17.943-0.692l-0.316-2.962C43.133,13.263,20.922,13.25,14.373,14.881
	z"/>
<path fill="#302C3B" d="M32,14.736c-10.631,0-17.977,0.939-17.977,0.939l-0.068,1.284c0,0,7.49-1.112,18.045-1.112
	c10.553,0,18.043,1.112,18.043,1.112l-0.066-1.284C49.977,15.676,42.633,14.736,32,14.736z"/>
<path fill="#302C3B" d="M31.998,25.488c5.543,0,16.99-1.725,19.18-4.619c0.832-1.096-1.234-3.025-1.234-3.025
	s-7.377-0.691-17.945-0.691c-10.566,0-17.943,0.691-17.943,0.691s-2.066,1.93-1.236,3.025C15.01,23.763,26.457,25.488,31.998,25.488
	z"/>
<path fill="#302C3B" d="M13.639,16.236c0.109-1.505,1.35-1.387,1.242,0.118C14.771,17.858,13.533,17.741,13.639,16.236z"/>
<path fill="#302C3B" d="M50.33,16.236c-0.105-1.505-1.348-1.387-1.242,0.118C49.195,17.858,50.438,17.741,50.33,16.236z"/>
<linearGradient id="SVGID_3_" gradientUnits="userSpaceOnUse" x1="27.5503" y1="10.1719" x2="36.4482" y2="10.1719">
	<stop  offset="0" style="stop-color:#FFE12C"/>
	<stop  offset="0.2866" style="stop-color:#FFDA25"/>
	<stop  offset="0.695" style="stop-color:#FFC813"/>
	<stop  offset="1" style="stop-color:#FFB600"/>
	<a:midPointStop  offset="0" style="stop-color:#FFE12C"/>
	<a:midPointStop  offset="0.6303" style="stop-color:#FFE12C"/>
	<a:midPointStop  offset="1" style="stop-color:#FFB600"/>
</linearGradient>
<path fill="url(#SVGID_3_)" d="M36.285,6.332L35.02,4.916C33.367,5.981,32,4.672,32,4.672s-1.369,1.31-3.018,0.244l-1.268,1.416
	c2.123,1.245-0.734,3.26-0.059,5.439c0.939,3.029,3.195,2.699,4.344,3.9c1.148-1.201,3.404-0.871,4.342-3.9
	C37.02,9.592,34.162,7.577,36.285,6.332z"/>
</svg>
