<?xml version="1.0" encoding="utf-8"?>
<!-- Generator: Adobe Illustrator 15.0.0, SVG Export Plug-In . SVG Version: 6.00 Build 0)  -->
<!DOCTYPE svg PUBLIC "-//W3C//DTD SVG 1.1//EN" "http://www.w3.org/Graphics/SVG/1.1/DTD/svg11.dtd" [
	<!ENTITY ns_flows "http://ns.adobe.com/Flows/1.0/">
	<!ENTITY ns_extend "http://ns.adobe.com/Extensibility/1.0/">
	<!ENTITY ns_ai "http://ns.adobe.com/AdobeIllustrator/10.0/">
	<!ENTITY ns_graphs "http://ns.adobe.com/Graphs/1.0/">
]>
<svg version="1.1" id="Layer_1" xmlns:x="&ns_extend;" xmlns:i="&ns_ai;" xmlns:graph="&ns_graphs;"
	 xmlns="http://www.w3.org/2000/svg" xmlns:xlink="http://www.w3.org/1999/xlink" xmlns:a="http://ns.adobe.com/AdobeSVGViewerExtensions/3.0/"
	 x="0px" y="0px" width="64px" height="64px" viewBox="0 0 64 64" enable-background="new 0 0 64 64" xml:space="preserve">
<rect x="4.673" y="29.016" fill="#99A8AE" width="6.156" height="7.375"/>
<rect x="5.981" y="27.792" fill="#4E5E67" width="3.539" height="7.376"/>
<rect x="53.171" y="29.016" fill="#99A8AE" width="6.156" height="7.375"/>
<rect x="54.479" y="27.792" fill="#4E5E67" width="3.539" height="7.376"/>
<path fill="#CFD8DD" d="M57.537,52.486l-1.092-0.822c-0.064-3.563-16.264-8.25-16.264-8.25H23.818c0,0-16.197,4.688-16.262,8.25
	l-1.096,0.822C3.721,52.438,2,62,2,62h60C62,62,60.279,52.438,57.537,52.486z"/>
<path fill="#99A8AE" d="M11.797,62h-1.535c0-5.379-3.801-9.514-3.801-9.514l1.096-0.822C7.557,51.664,11.797,55.904,11.797,62z"/>
<path fill="#99A8AE" d="M52.205,62h1.533c0-5.379,3.799-9.514,3.799-9.514l-1.092-0.822C56.445,51.664,52.205,55.904,52.205,62z"/>
<path fill="#018BC9" d="M4.83,53.617c0,0-1.793,1.834-1.873,4.402c0,0.859,2.156,3.459,2.156,3.459s1.799-1.646,2.615-3.137
	C5.373,55.479,4.83,53.617,4.83,53.617z"/>
<path fill="#99A8AE" d="M47.67,42.609c-2.129,0-29.217,0-31.344,0c-2.984,0-2.607,2.113-2.607,4.227
	c0,4.756,10.385,7.047,18.281,7.047s18.281-2.291,18.281-7.047C50.281,44.723,50.658,42.609,47.67,42.609"/>
<path fill="#99A8AE" d="M62,25.341c0,2.148-1.74,3.887-3.887,3.887H5.887C3.74,29.228,2,27.49,2,25.341v-6.684
	c0-2.146,1.74-3.886,3.887-3.886h52.227c2.146,0,3.887,1.74,3.887,3.886V25.341z"/>
<circle fill="#302C3B" cx="32" cy="26" r="22"/>
<path fill="#7D8D96" d="M61.001,18.852c0,3.333-5.002,3.333-5.002,0C55.999,15.518,61.001,15.518,61.001,18.852z"/>
<path fill="#7D8D96" d="M61.001,25.155c0,3.001-4.502,3.001-4.502,0C56.499,22.157,61.001,22.157,61.001,25.155z"/>
<path fill="#CFD8DD" d="M60.501,18.852c0,2.666-4.002,2.666-4.002,0C56.499,16.185,60.501,16.185,60.501,18.852z"/>
<path fill="#CFD8DD" d="M60.501,25.155c0,2.335-3.502,2.335-3.502,0C56.999,22.823,60.501,22.823,60.501,25.155z"/>
<path fill="#7D8D96" d="M8.001,18.853c0,3.332-5.002,3.332-5.002,0C2.999,15.518,8.001,15.518,8.001,18.853z"/>
<path fill="#7D8D96" d="M7.501,25.155c0,3.001-4.502,3.001-4.502,0C2.999,22.157,7.501,22.157,7.501,25.155z"/>
<path fill="#CFD8DD" d="M7.501,18.853c0,2.666-4.002,2.666-4.002,0C3.499,16.185,7.501,16.185,7.501,18.853z"/>
<path fill="#CFD8DD" d="M7.001,25.156c0,2.334-3.502,2.334-3.502,0C3.499,22.824,7.001,22.824,7.001,25.156z"/>
<path fill="#E6EBEF" d="M44,62H20v-5h5.937c0,0,1.228-0.855,1.475-1c0.835-0.49,6.438-0.509,7.274,0c0.241,0.146,1.396,1,1.396,1H44
	V62z"/>
<rect x="28.068" y="58.624" fill="#99A8AE" width="6.156" height="3.376"/>
<rect x="22.171" y="60.312" fill="#99A8AE" width="2.702" height="1.688"/>
<rect x="21.567" y="56.479" fill="#99A8AE" width="2.702" height="0.521"/>
<rect x="38.706" y="56.479" fill="#99A8AE" width="1.501" height="0.521"/>
<path fill="#99A8AE" d="M39.457,59.334c-1.473,0-2.666,1.193-2.666,2.666h5.332C42.123,60.527,40.93,59.334,39.457,59.334z"/>
<path fill="#473834" d="M39.582,47.741c15.168-6.066,11.65-17.476,11.65-17.476H12.766c0,0-3.516,11.409,11.648,17.476H39.582z"/>
<linearGradient id="SVGID_1_" gradientUnits="userSpaceOnUse" x1="48.8252" y1="44.9678" x2="48.8252" y2="14.6308">
	<stop  offset="0.05" style="stop-color:#473834"/>
	<stop  offset="0.2266" style="stop-color:#594640"/>
	<stop  offset="0.5197" style="stop-color:#715950"/>
	<stop  offset="0.7" style="stop-color:#7A6056"/>
	<a:midPointStop  offset="0.05" style="stop-color:#473834"/>
	<a:midPointStop  offset="0.4" style="stop-color:#473834"/>
	<a:midPointStop  offset="0.7" style="stop-color:#7A6056"/>
</linearGradient>
<path fill="url(#SVGID_1_)" d="M47.332,31.804c0.752,3.158-0.096,8.26-2.432,12.659l7.576-7.374c0,0,0.273-2.069,0.273-3.052
	L47.332,31.804z"/>
<linearGradient id="SVGID_2_" gradientUnits="userSpaceOnUse" x1="1765.6396" y1="44.9668" x2="1765.6396" y2="14.6322" gradientTransform="matrix(-1 0 0 1 1780.8145 0)">
	<stop  offset="0.05" style="stop-color:#473834"/>
	<stop  offset="0.2266" style="stop-color:#594640"/>
	<stop  offset="0.5197" style="stop-color:#715950"/>
	<stop  offset="0.7" style="stop-color:#7A6056"/>
	<a:midPointStop  offset="0.05" style="stop-color:#473834"/>
	<a:midPointStop  offset="0.4" style="stop-color:#473834"/>
	<a:midPointStop  offset="0.7" style="stop-color:#7A6056"/>
</linearGradient>
<path fill="url(#SVGID_2_)" d="M16.666,31.804c-0.75,3.158,0.098,8.259,2.434,12.658l-7.379-6.411c0,0-0.471-2.729-0.471-4.014
	L16.666,31.804z"/>
<path fill="#FFCC66" d="M32,8.275c-11.006,0-16.307,8.962-15.645,20.485c0.137,2.315,0.781,5.656,1.576,8.52
	C19.582,43.231,28.291,49.225,32,49.225c3.707,0,12.416-5.993,14.068-11.944c0.795-2.863,1.439-6.204,1.574-8.52
	C48.305,17.237,43.006,8.275,32,8.275z"/>
<path fill="#D47706" d="M31.998,39.87c-2.578-1.135-2.6-0.047-6.58,0.221c1.494,1.697,2.594,3.879,6.578,3.879
	c4.574,0,5.348-2.479,6.586-3.879C34.596,39.823,34.58,38.735,31.998,39.87z"/>
<path fill="#FFFFFF" d="M26.613,40.514c2.6,2.705,8.205,2.669,10.771,0.002C33.383,40.945,30.615,40.945,26.613,40.514z"/>
<path fill="#966F42" d="M43.693,24.927c-2.391-1.426-6.68-1.6-8.377-0.629c-0.359,0.196-0.262,1.226,0.049,1.097
	c2.42-1.007,6.107-1.058,8.379,0.108C44.049,25.656,44.057,25.134,43.693,24.927z"/>
<path fill="#966F42" d="M20.305,24.927c2.391-1.426,6.678-1.6,8.379-0.629c0.359,0.196,0.264,1.226-0.049,1.097
	c-2.422-1.007-6.105-1.06-8.381,0.108C19.949,25.656,19.943,25.134,20.305,24.927z"/>
<path fill="#DB9D3A" d="M34.473,36.213c-0.262-0.184-0.877,0.099-2.475,0.099c-1.596,0-2.211-0.282-2.473-0.099
	c-0.314,0.221,0.184,1.218,2.473,1.218S34.789,36.435,34.473,36.213z"/>
<path id="Path_899_" fill="#FFFFFF" d="M29.551,29.25c0.094,0.728-0.4,1.591-1.77,2.237c-0.869,0.412-2.678,0.896-5.055-0.106
	c-1.064-0.448-2.104-1.847-2.01-2.62C22.004,26.332,28.346,25.977,29.551,29.25z"/>
<linearGradient id="Oval_1_" gradientUnits="userSpaceOnUse" x1="-424.5796" y1="477.4414" x2="-424.5796" y2="478.1992" gradientTransform="matrix(6.5701 0 0 -6.5701 2814.7805 3168.5281)">
	<stop  offset="0" style="stop-color:#A6694A"/>
	<stop  offset="1" style="stop-color:#4F2A1E"/>
	<a:midPointStop  offset="0" style="stop-color:#A6694A"/>
	<a:midPointStop  offset="0.5" style="stop-color:#A6694A"/>
	<a:midPointStop  offset="1" style="stop-color:#4F2A1E"/>
</linearGradient>
<circle id="Oval_129_" fill="url(#Oval_1_)" cx="25.248" cy="29.2" r="2.49"/>
<path id="Path_898_" fill="#1A1626" d="M24.004,29.155c0,1.723,2.492,1.723,2.492,0C26.496,27.556,24.004,27.556,24.004,29.155z"/>
<path id="Path_897_" fill="#AB968C" d="M23.625,28.457c0,0.724,1.045,0.724,1.045,0C24.67,27.788,23.625,27.788,23.625,28.457z"/>
<path id="Path_896_" fill="#45332C" d="M29.563,29.346c-1.012-3.251-7.908-2.771-8.846-0.585
	C21.064,25.962,28.701,25.223,29.563,29.346z"/>
<path id="Path_895_" fill="#FFFFFF" d="M34.447,29.25c-0.092,0.728,0.402,1.591,1.771,2.237c0.869,0.412,2.678,0.896,5.055-0.106
	c1.066-0.448,2.104-1.847,2.01-2.62C41.996,26.332,35.654,25.977,34.447,29.25z"/>
<linearGradient id="Oval_2_" gradientUnits="userSpaceOnUse" x1="-425.2319" y1="477.4414" x2="-425.2319" y2="478.1992" gradientTransform="matrix(6.5701 0 0 -6.5701 2832.511 3168.5281)">
	<stop  offset="0" style="stop-color:#A6694A"/>
	<stop  offset="1" style="stop-color:#4F2A1E"/>
	<a:midPointStop  offset="0" style="stop-color:#A6694A"/>
	<a:midPointStop  offset="0.5" style="stop-color:#A6694A"/>
	<a:midPointStop  offset="1" style="stop-color:#4F2A1E"/>
</linearGradient>
<circle id="Oval_119_" fill="url(#Oval_2_)" cx="38.695" cy="29.2" r="2.49"/>
<path id="Path_894_" fill="#1A1626" d="M37.451,29.155c0,1.723,2.49,1.723,2.49,0C39.941,27.556,37.451,27.556,37.451,29.155z"/>
<path id="Path_893_" fill="#AB968C" d="M37.07,28.457c0,0.724,1.045,0.724,1.045,0C38.115,27.788,37.07,27.788,37.07,28.457z"/>
<path id="Path_892_" fill="#45332C" d="M34.438,29.346c1.01-3.249,7.902-2.784,8.846-0.585
	C42.934,25.962,35.299,25.223,34.438,29.346z"/>
<linearGradient id="SVGID_3_" gradientUnits="userSpaceOnUse" x1="32.0005" y1="51.4961" x2="32.0005" y2="6.113">
	<stop  offset="0.05" style="stop-color:#473834"/>
	<stop  offset="0.2266" style="stop-color:#594640"/>
	<stop  offset="0.5197" style="stop-color:#715950"/>
	<stop  offset="0.7" style="stop-color:#7A6056"/>
	<a:midPointStop  offset="0.05" style="stop-color:#473834"/>
	<a:midPointStop  offset="0.4" style="stop-color:#473834"/>
	<a:midPointStop  offset="0.7" style="stop-color:#7A6056"/>
</linearGradient>
<path fill="url(#SVGID_3_)" d="M44.385,9.884c1.258-1.794-9.387-5.582-19.438-3.023C14.908,9.159,11.25,24.2,11.25,34.037
	c0.898,0.712,4.396-1.065,5.416-2.233c0.416-1.722,1.072-3.493,1.684-5.328c7.539-4.365,16.07-5.393,21.992-10.617
	c-0.758,2.275,3.256,5.145,5.309,10.617c0.664,1.774,1.26,3.553,1.682,5.328c1.674,1.54,3.014,2.268,5.418,2.233
	C52.75,25.718,48.41,8.723,44.385,9.884z"/>
<path fill="#473834" d="M13.059,32.541c6.943-9.247,27.438-8.62,31.326-22.657C36.834,21.665,14.955,23.652,13.059,32.541z"/>
<radialGradient id="SVGID_4_" cx="28.001" cy="19.1675" r="17.3159" gradientTransform="matrix(1 0 0 1.5 0 -9.5837)" gradientUnits="userSpaceOnUse">
	<stop  offset="0" style="stop-color:#E6EBEF"/>
	<stop  offset="0.1926" style="stop-color:#D7DEE2"/>
	<stop  offset="1" style="stop-color:#99A8AE"/>
	<a:midPointStop  offset="0" style="stop-color:#E6EBEF"/>
	<a:midPointStop  offset="0.4848" style="stop-color:#E6EBEF"/>
	<a:midPointStop  offset="1" style="stop-color:#99A8AE"/>
</radialGradient>
<path fill="url(#SVGID_4_)" d="M53.73,25.089c0.176-0.949,0.27-1.92,0.27-2.91c0-10.273-9.85-18.602-22-18.602S10,11.906,10,22.18
	c0,0.99,0.094,1.96,0.27,2.91C13.76,11.268,50.242,11.268,53.73,25.089z"/>
<path fill="#CFD8DD" d="M32,2C18.746,2,8,12.746,8,26c0,13.254,10.746,24,24,24s24-10.746,24-24C56,12.746,45.254,2,32,2z M32,47.5
	c-11.873,0-21.5-9.627-21.5-21.5c0-11.875,9.627-21.5,21.5-21.5c11.875,0,21.5,9.625,21.5,21.5C53.5,37.873,43.875,47.5,32,47.5z"/>
<polygon fill="#CFD8DD" points="45.518,43.906 44.809,40.83 46.871,38.811 50.715,38.811 "/>
<path fill="#302C3B" d="M38.387,43.781c-0.797,0-0.797-0.969,0-0.969c5.953,0,7.391-2.5,9.953-3.313
	c0.666-0.211,1.234,1.469,0.125,2.201C48.09,41.947,44.262,43.781,38.387,43.781z"/>
<radialGradient id="SVGID_5_" cx="24.25" cy="18.2202" r="31.0858" gradientUnits="userSpaceOnUse">
	<stop  offset="0" style="stop-color:#FFFFFF;stop-opacity:0.73"/>
	<stop  offset="0.7879" style="stop-color:#FFFFFF;stop-opacity:0"/>
	<a:midPointStop  offset="0" style="stop-color:#FFFFFF;stop-opacity:0.73"/>
	<a:midPointStop  offset="0.4848" style="stop-color:#FFFFFF;stop-opacity:0.73"/>
	<a:midPointStop  offset="0.7879" style="stop-color:#FFFFFF;stop-opacity:0"/>
</radialGradient>
<path opacity="0.8" fill="url(#SVGID_5_)" d="M10.521,25.462c-0.016,0.34-0.025,0.68-0.025,1.023C10.496,38.395,20.123,47.5,32,47.5
	c11.875,0,21.504-9.105,21.504-21.014c0-0.344-0.01-0.684-0.025-1.023C49.828,12.1,14.172,12.1,10.521,25.462z"/>
</svg>
