<?xml version="1.0" encoding="utf-8"?>
<!-- Generator: Adobe Illustrator 15.0.0, SVG Export Plug-In . SVG Version: 6.00 Build 0)  -->
<!DOCTYPE svg PUBLIC "-//W3C//DTD SVG 1.1//EN" "http://www.w3.org/Graphics/SVG/1.1/DTD/svg11.dtd" [
	<!ENTITY ns_flows "http://ns.adobe.com/Flows/1.0/">
	<!ENTITY ns_extend "http://ns.adobe.com/Extensibility/1.0/">
	<!ENTITY ns_ai "http://ns.adobe.com/AdobeIllustrator/10.0/">
	<!ENTITY ns_graphs "http://ns.adobe.com/Graphs/1.0/">
]>
<svg version="1.1" id="Layer_1" xmlns:x="&ns_extend;" xmlns:i="&ns_ai;" xmlns:graph="&ns_graphs;"
	 xmlns="http://www.w3.org/2000/svg" xmlns:xlink="http://www.w3.org/1999/xlink" xmlns:a="http://ns.adobe.com/AdobeSVGViewerExtensions/3.0/"
	 x="0px" y="0px" width="64px" height="64px" viewBox="0 0 64 64" enable-background="new 0 0 64 64" xml:space="preserve">
<path fill="#614A36" d="M35.414,28.143c-0.51-1.512-2.443-1.756-2.443-1.756c-1.299,2.877-2.49,8.163-2.592,8.893
	c-0.098,0.711-0.979,2.627-0.842,3.143c0.58,2.184,0.357,1.311,1.283,2.219c0.291,0.287,0.402-0.02,0.375-0.42
	c0,0,0.264-0.887,0.463-0.898c-0.051,0.396,0.777,0.172,0.58-0.379c-0.123-0.342,0.096-1.109-0.354-1.787
	c-0.232-0.35,0.021-2.414,1.556-5.034C34.377,30.53,34.934,29.469,35.414,28.143z"/>
<path fill="#614A36" d="M49.141,28.034c0.734-1.438,2.797-1.438,2.797-1.438c0.984,3.016,1.541,8.409,1.551,9.147
	c0.008,0.717,0.682,2.729,0.471,3.223c-0.896,2.094-0.811,2.355-1.91,3.135c-0.832,0.588-0.57-0.168-0.193-0.566
	c0.584-0.617,0.955-2.035,0.189-2.168c-0.098,1.584-1.145,1.883-1.066,1.295c0.201-1.514-0.002-2.432,0.682-3.244
	c0.275-0.33,0.295-2.398-0.975-5.188C49.914,30.532,49.469,29.409,49.141,28.034z"/>
<path fill="#302C3B" d="M36.891,33.958h11.217c0.979,5.166,0.256,12.301,1.488,24.896c0.156,1.586-5.654,1.596-5.604,0
	c0.242-7.348-0.445-12.939-0.938-17.416c-0.037-0.334-1.072-0.334-1.109,0c-0.492,4.477-1.182,10.068-0.939,17.416
	c0.053,1.596-5.76,1.586-5.604,0C36.635,46.259,35.912,39.124,36.891,33.958z"/>
<path fill="#3AB0A2" d="M35.463,19.846c0.906-1.135,4.635-2.271,4.635-2.271H44.9c0,0,3.73,1.137,4.635,2.271
	c0.793,0.992,2.32,5.816,2.658,6.982c-0.045,0.055-1.227,0.113-3.287,1.703c0,0-0.641-1.936-0.891-2.447
	c-0.588,3.813,0.297,7.448,0.092,7.874c-0.584,1.213-10.625,1.227-11.217,0c-0.205-0.426,0.68-4.061,0.094-7.874
	c-0.252,0.512-1.4,2.523-1.4,2.523c-1.848-1.834-3.011-2.037-3.048-2.098C33.014,25.395,34.67,20.838,35.463,19.846z"/>
<path fill="#6E8189" d="M49.854,61.603c-0.184,0.451-5.762,0.637-5.971-0.084C43.074,58.726,50.764,59.372,49.854,61.603z"/>
<path fill="#99A8AE" d="M49.773,61.054c-0.041,0.391-5.834,0.596-5.896,0C43.381,56.3,50.227,56.696,49.773,61.054z"/>
<path fill="#1A1626" d="M44.617,58.226c0.645-1.102,3.703-1.096,4.344,0c0.117,0.193,0.316,0.717-0.457,0.287
	c0.768,0.602,0.768,1.127,0,0.678c0.773,0.578,0.574,0.943,0.457,0.896c-1.176-0.582-3.166-0.582-4.344,0
	c-0.119,0.047-0.316-0.318,0.457-0.896c-0.768,0.449-0.768-0.076,0-0.678C44.301,58.942,44.498,58.419,44.617,58.226z"/>
<path fill="#6E8189" d="M35.145,61.603c0.184,0.451,5.762,0.637,5.971-0.084C41.924,58.726,34.234,59.372,35.145,61.603z"/>
<path fill="#99A8AE" d="M35.225,61.054c0.041,0.391,5.834,0.596,5.896,0C41.617,56.3,34.773,56.696,35.225,61.054z"/>
<path fill="#1A1626" d="M40.381,58.226c-0.645-1.102-3.701-1.096-4.344,0c-0.117,0.193-0.316,0.717,0.457,0.287
	c-0.768,0.602-0.768,1.127,0,0.678c-0.773,0.578-0.574,0.943-0.457,0.896c1.178-0.582,3.166-0.582,4.344,0
	c0.119,0.047,0.316-0.318-0.457-0.896c0.768,0.449,0.768-0.076,0-0.678C40.697,58.942,40.5,58.419,40.381,58.226z"/>
<path fill="#2B998D" d="M45.781,17.874c0,2.926-6.563,2.92-6.563-0.004l0.59-0.213h5.346L45.781,17.874z"/>
<path fill="#302116" d="M45.25,17.907c0,2.174-5.5,2.174-5.5,0c0-0.74,0-2.406,0-2.406h5.5C45.25,15.5,45.25,17.167,45.25,17.907z"
	/>
<path id="Path_802_" fill="#614A36" d="M48.628,9.243c-0.949,0.115-1.635,3.293-1.037,4.131c0.084,0.119,0.572,0.305,0.934-0.436
	c0.203-0.408,0.781-0.752,0.961-1.598C49.716,10.258,49.571,9.129,48.628,9.243z"/>
<path id="Path_801_" fill="#614A36" d="M36.368,9.243c0.949,0.115,1.635,3.293,1.037,4.131c-0.084,0.119-0.572,0.305-0.936-0.436
	c-0.201-0.408-0.779-0.752-0.959-1.598C35.28,10.258,35.425,9.129,36.368,9.243z"/>
<path id="Path_800_" fill="#302116" d="M48.603,9.852c-0.248,0.078-0.518,0.455-0.664,1.082c0.865-0.186,0.648,1.256-0.104,1.283
	c0.006,0.145,0.016,0.293,0.033,0.451c0.363-0.527,0.73-0.314,1.096-1.098C49.294,10.864,49.214,9.661,48.603,9.852z"/>
<path id="Path_799_" fill="#302116" d="M37.058,10.932c-0.146-0.625-0.416-1.002-0.662-1.08c-0.613-0.191-0.693,1.012-0.363,1.719
	c0.363,0.783,0.732,0.57,1.096,1.098c0.018-0.158,0.027-0.307,0.033-0.451C36.417,12.182,36.204,10.756,37.058,10.932z"/>
<path id="Path_798_" fill="#614A36" d="M42.497,3.133c-4.109,0-6.092,3.111-5.844,7.436c0.051,0.871,0.59,3.709,1.098,4.727
	c0.523,1.043,2.266,2.648,3.334,2.982c0.674,0.209,2.152,0.209,2.826,0c1.068-0.334,2.813-1.939,3.332-2.982
	c0.51-1.018,1.049-3.855,1.1-4.727C48.591,6.245,46.61,3.133,42.497,3.133z"/>
<path id="Path_797_" fill="#403229" d="M46.964,8.926c-0.939-0.498-2.738-0.523-3.41-0.176c-0.143,0.066-0.047,0.539,0.072,0.494
	c0.936-0.369,2.441-0.377,3.316,0.031C47.06,9.329,47.108,8.995,46.964,8.926z"/>
<path id="Path_796_" fill="#403229" d="M38.03,8.926c0.941-0.498,2.74-0.523,3.41-0.176c0.145,0.066,0.049,0.539-0.072,0.494
	c-0.936-0.369-2.439-0.377-3.316,0.031C37.937,9.329,37.89,8.995,38.03,8.926z"/>
<path id="Path_795_" fill="#302116" d="M43.608,13.247c-0.117-0.082-0.395,0.043-1.111,0.043c-0.715,0-0.992-0.125-1.109-0.043
	c-0.141,0.098,0.084,0.545,1.109,0.545C43.524,13.792,43.749,13.344,43.608,13.247z"/>
<path id="Path_794_" fill="#302116" d="M42.497,14.94c-0.924-0.271-2.295,0.129-2.295,0.129c0.521,0.568,0.904,1.307,2.295,1.307
	c1.594,0,1.865-0.838,2.297-1.307C44.794,15.069,43.421,14.667,42.497,14.94z"/>
<path id="Path_793_" fill="#FFFFFF" d="M40.548,15.165c0.969,0.814,2.926,0.82,3.9,0C43.417,15.209,41.587,15.209,40.548,15.165z"/>
<path id="Path_688_" fill="#FFFFFF" d="M41.583,10.624c0.035,0.271-0.15,0.594-0.662,0.836c-0.324,0.154-1,0.334-1.887-0.039
	c-0.4-0.168-0.787-0.691-0.752-0.98C38.763,9.532,41.132,9.399,41.583,10.624z"/>
<linearGradient id="Oval_1_" gradientUnits="userSpaceOnUse" x1="-373.5132" y1="480.5088" x2="-373.5132" y2="480.792" gradientTransform="matrix(6.5701 0 0 -6.5701 2493.9954 3168.5281)">
	<stop  offset="0" style="stop-color:#A6694A"/>
	<stop  offset="1" style="stop-color:#4F2A1E"/>
	<a:midPointStop  offset="0" style="stop-color:#A6694A"/>
	<a:midPointStop  offset="0.5" style="stop-color:#A6694A"/>
	<a:midPointStop  offset="1" style="stop-color:#4F2A1E"/>
</linearGradient>
<circle id="Oval_96_" fill="url(#Oval_1_)" cx="39.976" cy="10.604" r="0.932"/>
<path id="Path_687_" fill="#1A1626" d="M39.511,10.588c0,0.643,0.93,0.643,0.93,0C40.44,9.991,39.511,9.991,39.511,10.588z"/>
<path id="Path_686_" fill="#AB968C" d="M39.368,10.327c0,0.27,0.391,0.27,0.391,0C39.759,10.077,39.368,10.077,39.368,10.327z"/>
<path id="Path_685_" fill="#302116" d="M41.587,10.659c-0.377-1.215-2.955-1.035-3.305-0.219
	C38.413,9.395,41.265,9.118,41.587,10.659z"/>
<path id="Path_684_" fill="#FFFFFF" d="M43.413,10.624c-0.035,0.271,0.148,0.594,0.66,0.836c0.326,0.154,1,0.334,1.889-0.039
	c0.4-0.168,0.787-0.691,0.752-0.98C46.233,9.532,43.864,9.399,43.413,10.624z"/>
<linearGradient id="Oval_2_" gradientUnits="userSpaceOnUse" x1="-375.4468" y1="480.5088" x2="-375.4468" y2="480.792" gradientTransform="matrix(6.5701 0 0 -6.5701 2511.7258 3168.5281)">
	<stop  offset="0" style="stop-color:#A6694A"/>
	<stop  offset="1" style="stop-color:#4F2A1E"/>
	<a:midPointStop  offset="0" style="stop-color:#A6694A"/>
	<a:midPointStop  offset="0.5" style="stop-color:#A6694A"/>
	<a:midPointStop  offset="1" style="stop-color:#4F2A1E"/>
</linearGradient>
<circle id="Oval_95_" fill="url(#Oval_2_)" cx="44.999" cy="10.604" r="0.932"/>
<path id="Path_683_" fill="#1A1626" d="M44.534,10.588c0,0.643,0.932,0.643,0.932,0C45.466,9.991,44.534,9.991,44.534,10.588z"/>
<path id="Path_682_" fill="#AB968C" d="M44.392,10.327c0,0.27,0.391,0.27,0.391,0C44.782,10.077,44.392,10.077,44.392,10.327z"/>
<path id="Path_681_" fill="#302116" d="M43.409,10.659c0.377-1.215,2.953-1.041,3.305-0.219
	C46.583,9.395,43.731,9.118,43.409,10.659z"/>
<path fill="#403A33" d="M47.749,4.165C46.849,2.946,45.202,2,42.497,2c-2.703,0-4.35,0.945-5.25,2.164
	C35.974,5.887,49.022,5.887,47.749,4.165z"/>
<linearGradient id="SVGID_1_" gradientUnits="userSpaceOnUse" x1="363.2822" y1="11.6333" x2="363.2822" y2="3.6484" gradientTransform="matrix(1 0 0 1 -320.7842 0)">
	<stop  offset="0.5" style="stop-color:#1A1714"/>
	<stop  offset="0.6722" style="stop-color:#231F1B"/>
	<stop  offset="0.9523" style="stop-color:#3B362F"/>
	<stop  offset="1" style="stop-color:#403A33"/>
	<a:midPointStop  offset="0.5" style="stop-color:#1A1714"/>
	<a:midPointStop  offset="0.6" style="stop-color:#1A1714"/>
	<a:midPointStop  offset="1" style="stop-color:#403A33"/>
</linearGradient>
<path fill="url(#SVGID_1_)" d="M47.749,4.165c-0.9-1.219-2.547,0.104-5.252,0.104c-2.703,0-4.35-1.322-5.25-0.104
	c-1.273,1.723-0.842,7.469-0.275,7.469c0.092,0,0.104-2.01,0.275-3.4c0.139-1.131,0.408-2.229,0.717-2.408
	c0.943-0.547,2.766,0.236,4.533,0.236c1.77,0,3.592-0.783,4.535-0.236c0.309,0.18,0.576,1.277,0.717,2.408
	c0.172,1.391,0.184,3.4,0.275,3.4C48.591,11.633,49.022,5.887,47.749,4.165z"/>
<path fill="#B88A6F" d="M10.446,35.743c0.008-0.717,0.314-5.802,1.088-8.87c0.543-2.148,1.943-8.156,3.475-8.156l0.15,3.964
	c0,0-0.85,4.306-1.148,5.737c-0.25,1.207-0.523,2.276-1.129,3.81c-1.104,2.791-1.086,4.859-0.848,5.189
	c0.594,0.813,0.418,1.73,0.592,3.244c0.068,0.588-0.842,0.289-0.926-1.295c-0.666,0.133-0.344,1.551,0.164,2.168
	c0.328,0.398,0.555,1.154-0.168,0.566c-0.955-0.779-0.881-1.041-1.66-3.135C9.852,38.472,10.436,36.46,10.446,35.743z"/>
<path fill="#B88A6F" d="M25.143,18.714c1.531,0,2.725,5.608,3.445,7.705c1.014,2.954,2.377,8.126,2.467,8.857
	c0.092,0.709,1.137,2.596,1.057,3.127c-0.152,1.027-0.695,1.818-0.916,1.818c-0.488-0.883-1.318-1.619-1.121-0.186
	c-0.168,0.596-0.855-0.43-0.982-1.396c-0.033-0.266,0.332-0.939,0.434-1.465c0.082-0.422,0.104-2.416-1.396-5.014
	c-0.914-1.579-1.518-2.637-1.891-3.984c-0.391-1.41-1.256-5.495-1.256-5.495L25.143,18.714z"/>
<path fill="#1A1626" d="M14.875,61.521c0.031,0.576,4.209,0.729,4.324-0.076C19.594,58.679,14.7,58.208,14.875,61.521z"/>
<path fill="#302C3B" d="M14.92,61.175c0,0.582,4.283,0.762,4.283,0c0-0.814-0.496-1.57-0.533-2.295
	c-0.117-2.285-2.348-1.66-2.869-0.99C15.229,58.622,14.92,59.804,14.92,61.175z"/>
<path fill="#B88A6F" d="M18.325,58.206c0.063,0.609-2.33,0.652-2.332-0.084c0.148-3.127-2.195-12.578,0.254-15.059
	c0.498-0.506,2.498,0,2.498,0C19.506,48.487,17.79,52.948,18.325,58.206z"/>
<path fill="#1A1626" d="M25.268,61.521c-0.029,0.576-4.209,0.729-4.324-0.076C20.549,58.679,25.444,58.208,25.268,61.521z"/>
<path fill="#302C3B" d="M25.225,61.175c0,0.582-4.285,0.762-4.285,0c0-0.814,0.496-1.57,0.533-2.295
	c0.119-2.285,2.348-1.66,2.871-0.99C24.915,58.622,25.225,59.804,25.225,61.175z"/>
<path fill="#B88A6F" d="M21.819,58.206c-0.063,0.609,2.33,0.652,2.334-0.084c-0.15-3.127,2.193-12.576-0.254-15.059
	c-0.498-0.506-2.5,0-2.5,0C20.639,48.487,22.354,52.948,21.819,58.206z"/>
<path fill="#6B4435" d="M22.904,18.715c5.668-2.266,5.102-7.65,5.102-7.65H12.138c0,0-0.566,5.385,5.1,7.65
	c0,0,1.133,0.283,2.832,0.283C21.771,18.999,22.904,18.715,22.904,18.715z"/>
<linearGradient id="SVGID_2_" gradientUnits="userSpaceOnUse" x1="391.377" y1="18.9976" x2="391.377" y2="2.044" gradientTransform="matrix(1 0 0 1 -365.6396 0)">
	<stop  offset="0.05" style="stop-color:#6B4435"/>
	<stop  offset="0.088" style="stop-color:#6E4637"/>
	<stop  offset="0.467" style="stop-color:#865947"/>
	<stop  offset="0.7" style="stop-color:#8F604D"/>
	<a:midPointStop  offset="0.05" style="stop-color:#6B4435"/>
	<a:midPointStop  offset="0.4" style="stop-color:#6B4435"/>
	<a:midPointStop  offset="0.7" style="stop-color:#8F604D"/>
</linearGradient>
<path fill="url(#SVGID_2_)" d="M25.8,11.641c0.58,2.439,0.273,4.855-2.896,7.074c3.4-0.566,5.668-3.777,5.668-6.24L25.8,11.641z"/>
<linearGradient id="SVGID_3_" gradientUnits="userSpaceOnUse" x1="1400.7705" y1="18.9976" x2="1400.7705" y2="2.044" gradientTransform="matrix(-1 0 0 1 1415.1758 0)">
	<stop  offset="0.05" style="stop-color:#6B4435"/>
	<stop  offset="0.088" style="stop-color:#6E4637"/>
	<stop  offset="0.467" style="stop-color:#865947"/>
	<stop  offset="0.7" style="stop-color:#8F604D"/>
	<a:midPointStop  offset="0.05" style="stop-color:#6B4435"/>
	<a:midPointStop  offset="0.4" style="stop-color:#6B4435"/>
	<a:midPointStop  offset="0.7" style="stop-color:#8F604D"/>
</linearGradient>
<path fill="url(#SVGID_3_)" d="M14.343,11.641c-0.58,2.439-0.275,4.855,2.895,7.074c-3.4-0.566-5.666-3.777-5.666-6.24
	L14.343,11.641z"/>
<path fill="#8E3ED6" d="M25.143,18.714l-1.619-0.522l-6.908,0.006l-1.607,0.52c0,0-0.6,3.664-0.414,5.146
	c0.303,2.401,1.031,3.144,1.057,4.996c0.02,1.379-2.596,14.592-2.596,14.592c0,3.186,14.021,3.186,14.021,0
	c0,0-2.613-13.202-2.596-14.567c0.021-1.849,0.752-2.613,1.057-5.021C25.721,22.381,25.143,18.714,25.143,18.714z"/>
<path fill="#B88A6F" d="M17.512,17.881c0-0.75,0-2.415,0-2.415h5.105c0,0,0,1.653,0,2.405l0.906,0.32
	c0,2.26-2.957,3.614-3.459,3.614c-0.5,0-3.449-1.354-3.449-3.608L17.512,17.881z"/>
<path fill="#8C5F44" d="M16.582,14.979c0.41,2.003,2.57,4.02,3.49,4.02s3.08-2.017,3.49-4.02
	C23.757,14.017,16.386,14.017,16.582,14.979z"/>
<path fill="#B88A6F" d="M20.072,2.85c-4.113,0-6.094,3.348-5.846,7.654c0.051,0.863,0.291,2.113,0.588,3.182
	c0.617,2.225,3.871,4.463,5.258,4.463c1.385,0,4.639-2.238,5.256-4.463c0.297-1.068,0.537-2.318,0.588-3.182
	C26.164,6.198,24.183,2.85,20.072,2.85z"/>
<path fill="#A35A3B" d="M20.07,14.655c-0.963-0.424-0.971-0.018-2.459,0.082c0.559,0.635,0.971,1.449,2.459,1.449
	c1.709,0,1.998-0.926,2.461-1.449C21.041,14.637,21.035,14.231,20.07,14.655z"/>
<path fill="#FFFFFF" d="M18.058,14.895c0.971,1.01,3.066,0.996,4.025,0C20.587,15.055,19.554,15.055,18.058,14.895z"/>
<path fill="#78513A" d="M24.441,9.071c-0.895-0.533-2.496-0.598-3.131-0.234c-0.135,0.072-0.098,0.457,0.018,0.41
	c0.904-0.377,2.283-0.396,3.133,0.039C24.574,9.344,24.576,9.149,24.441,9.071z"/>
<path fill="#78513A" d="M15.701,9.071c0.895-0.533,2.496-0.598,3.131-0.234c0.135,0.072,0.1,0.457-0.018,0.41
	C17.91,8.87,16.533,8.85,15.683,9.286C15.568,9.344,15.566,9.149,15.701,9.071z"/>
<path fill="#8C5F44" d="M20.996,13.288c-0.098-0.068-0.328,0.037-0.926,0.037c-0.596,0-0.826-0.105-0.924-0.037
	c-0.117,0.082,0.07,0.455,0.924,0.455C20.925,13.743,21.113,13.372,20.996,13.288z"/>
<path id="Path_631_" fill="#FFFFFF" d="M19.156,10.686c0.035,0.271-0.15,0.594-0.66,0.836c-0.326,0.154-1.002,0.336-1.889-0.039
	c-0.398-0.168-0.787-0.689-0.752-0.979C16.337,9.596,18.707,9.463,19.156,10.686z"/>
<linearGradient id="Oval_3_" gradientUnits="userSpaceOnUse" x1="-370.0991" y1="480.499" x2="-370.0991" y2="480.7822" gradientTransform="matrix(6.5701 0 0 -6.5701 2449.1399 3168.5281)">
	<stop  offset="0" style="stop-color:#A6694A"/>
	<stop  offset="1" style="stop-color:#4F2A1E"/>
	<a:midPointStop  offset="0" style="stop-color:#A6694A"/>
	<a:midPointStop  offset="0.5" style="stop-color:#A6694A"/>
	<a:midPointStop  offset="1" style="stop-color:#4F2A1E"/>
</linearGradient>
<circle id="Oval_86_" fill="url(#Oval_3_)" cx="17.548" cy="10.667" r="0.931"/>
<path id="Path_630_" fill="#1A1626" d="M17.083,10.651c0,0.645,0.932,0.645,0.932,0C18.015,10.053,17.083,10.053,17.083,10.651z"/>
<path id="Path_629_" fill="#AB968C" d="M16.943,10.391c0,0.27,0.389,0.27,0.389,0C17.332,10.139,16.943,10.139,16.943,10.391z"/>
<path id="Path_628_" fill="#45332C" d="M19.162,10.723c-0.379-1.215-2.955-1.037-3.307-0.219
	C15.986,9.458,18.839,9.182,19.162,10.723z"/>
<path id="Path_627_" fill="#FFFFFF" d="M20.986,10.686c-0.035,0.271,0.15,0.594,0.662,0.836c0.324,0.154,1,0.336,1.889-0.039
	c0.398-0.168,0.785-0.689,0.75-0.979C23.806,9.596,21.437,9.463,20.986,10.686z"/>
<linearGradient id="Oval_4_" gradientUnits="userSpaceOnUse" x1="-372.0337" y1="480.499" x2="-372.0337" y2="480.7822" gradientTransform="matrix(6.5701 0 0 -6.5701 2466.8704 3168.5281)">
	<stop  offset="0" style="stop-color:#A6694A"/>
	<stop  offset="1" style="stop-color:#4F2A1E"/>
	<a:midPointStop  offset="0" style="stop-color:#A6694A"/>
	<a:midPointStop  offset="0.5" style="stop-color:#A6694A"/>
	<a:midPointStop  offset="1" style="stop-color:#4F2A1E"/>
</linearGradient>
<circle id="Oval_85_" fill="url(#Oval_4_)" cx="22.572" cy="10.667" r="0.931"/>
<path id="Path_626_" fill="#1A1626" d="M22.107,10.651c0,0.645,0.932,0.645,0.932,0C23.039,10.053,22.107,10.053,22.107,10.651z"/>
<path id="Path_625_" fill="#AB968C" d="M21.966,10.391c0,0.27,0.391,0.27,0.391,0C22.357,10.139,21.966,10.139,21.966,10.391z"/>
<path id="Path_624_" fill="#45332C" d="M20.982,10.723c0.377-1.215,2.953-1.041,3.305-0.219
	C24.156,9.458,21.304,9.182,20.982,10.723z"/>
<linearGradient id="SVGID_4_" gradientUnits="userSpaceOnUse" x1="385.7109" y1="18.9985" x2="385.7109" y2="2.0417" gradientTransform="matrix(1 0 0 1 -365.6396 0)">
	<stop  offset="0.05" style="stop-color:#6B4435"/>
	<stop  offset="0.088" style="stop-color:#6E4637"/>
	<stop  offset="0.467" style="stop-color:#865947"/>
	<stop  offset="0.7" style="stop-color:#8F604D"/>
	<a:midPointStop  offset="0.05" style="stop-color:#6B4435"/>
	<a:midPointStop  offset="0.4" style="stop-color:#6B4435"/>
	<a:midPointStop  offset="0.7" style="stop-color:#8F604D"/>
</linearGradient>
<path fill="url(#SVGID_4_)" d="M24.699,3.45c0.469-0.67-3.508-2.084-7.262-1.129c-3.752,0.859-5.865,6.479-5.865,10.154
	c0.336,0.266,2.389-0.398,2.771-0.834c0.154-0.645,0.398-1.305,0.627-1.992c2.818-1.631,6.006-2.014,8.217-3.967
	c-0.283,0.852,1.217,1.922,1.984,3.967c0.248,0.664,0.471,1.328,0.629,1.992c0.625,0.574,1.873,0.846,2.771,0.834
	C28.572,9.366,26.203,3.016,24.699,3.45z"/>
<path fill="#6B4435" d="M12.248,11.917c2.594-3.455,10.998-3.221,12.451-8.467C21.876,7.852,12.955,8.594,12.248,11.917z"/>
</svg>
