<?xml version="1.0" encoding="utf-8"?>
<!-- Generator: Adobe Illustrator 15.0.0, SVG Export Plug-In . SVG Version: 6.00 Build 0)  -->
<!DOCTYPE svg PUBLIC "-//W3C//DTD SVG 1.1//EN" "http://www.w3.org/Graphics/SVG/1.1/DTD/svg11.dtd" [
	<!ENTITY ns_flows "http://ns.adobe.com/Flows/1.0/">
	<!ENTITY ns_extend "http://ns.adobe.com/Extensibility/1.0/">
	<!ENTITY ns_ai "http://ns.adobe.com/AdobeIllustrator/10.0/">
	<!ENTITY ns_graphs "http://ns.adobe.com/Graphs/1.0/">
]>
<svg version="1.1" id="Layer_1" xmlns:x="&ns_extend;" xmlns:i="&ns_ai;" xmlns:graph="&ns_graphs;"
	 xmlns="http://www.w3.org/2000/svg" xmlns:xlink="http://www.w3.org/1999/xlink" xmlns:a="http://ns.adobe.com/AdobeSVGViewerExtensions/3.0/"
	 x="0px" y="0px" width="64px" height="64px" viewBox="0 0 64 64" enable-background="new 0 0 64 64" xml:space="preserve">
<path fill="#302C3B" d="M8.254,52.752c2.402-1.365,12.363-4.969,12.363-4.969h14.836c0,0,9.961,3.596,12.352,4.965
	C51.273,54.732,52,62,52,62H4C4,62,4.773,54.729,8.254,52.752z"/>
<path fill="#EBC199" d="M19.996,49.947c0,3.332,8.004,10.838,8.004,10.838s8.004-7.506,8.004-10.838v-8.035H19.996V49.947z"/>
<path fill="#4E5E67" d="M34.938,42.896c2.289,6.086-0.986,9.057-6.938,17.889V62c0,0,8.285-12.807,19.406-10.744
	C40.021,41.561,34.938,42.896,34.938,42.896z"/>
<path fill="#4E5E67" d="M21.064,42.896c0,0-5.084-1.336-12.471,8.359C19.715,49.193,28,62,28,62v-1.215
	C22.049,51.953,18.773,48.982,21.064,42.896z"/>
<path fill="#AA5BEF" d="M35.504,43.117C35.311,52.189,31.383,53.783,28,60.785c0,0,7.578-11.803,17.813-10.404
	C40.203,43.352,35.504,43.117,35.504,43.117z"/>
<path fill="#AA5BEF" d="M10.189,50.381C20.422,48.982,28,60.785,28,60.785c-3.383-7.002-7.311-8.596-7.504-17.668
	C20.496,43.117,15.799,43.352,10.189,50.381z"/>
<path fill="#C99B71" d="M17.512,39.281c1.23,5.951,7.723,11.943,10.488,11.943c2.764,0,9.256-5.992,10.488-11.943
	C39.08,36.418,16.92,36.418,17.512,39.281z"/>
<path fill="#9030E3" d="M37.516,4.578c-3.238,4.223-4.207,26.861-1.713,42.449C51.445,35.652,46.973,9.805,37.516,4.578z"/>
<path id="Path_1108_" fill="#EBC199" d="M44.418,24.607c-2.543,0.309-4.379,8.824-2.781,11.07c0.225,0.314,1.535,0.816,2.508-1.168
	c0.537-1.098,2.09-2.014,2.57-4.279C47.332,27.328,46.947,24.303,44.418,24.607z"/>
<path id="Path_1107_" fill="#EBC199" d="M11.566,24.607c2.543,0.309,4.379,8.824,2.779,11.07c-0.225,0.314-1.535,0.816-2.506-1.168
	c-0.539-1.098-2.092-2.014-2.572-4.279C8.652,27.328,9.037,24.301,11.566,24.607z"/>
<path id="Path_1106_" fill="#C99B71" d="M44.348,26.242c-0.662,0.207-1.387,1.219-1.779,2.898c2.32-0.498,1.74,3.365-0.275,3.438
	c0.018,0.389,0.045,0.789,0.092,1.207c0.971-1.408,1.957-0.842,2.936-2.941C46.201,28.953,45.992,25.725,44.348,26.242z"/>
<path id="Path_1105_" fill="#C99B71" d="M13.414,29.135c-0.393-1.676-1.115-2.686-1.777-2.893c-1.643-0.518-1.854,2.711-0.973,4.602
	c0.977,2.1,1.963,1.533,2.936,2.941c0.047-0.42,0.074-0.82,0.09-1.209C11.695,32.48,11.125,28.666,13.414,29.135z"/>
<path fill="#EBC199" d="M27.992,8.236c-11.02,0-16.326,8.973-15.664,20.51c0.137,2.32,0.783,5.666,1.578,8.531
	c1.652,5.959,10.373,11.959,14.086,11.959c3.711,0,12.432-6,14.084-11.959c0.797-2.865,1.441-6.211,1.578-8.531
	C44.316,17.209,39.012,8.236,27.992,8.236z"/>
<path fill="#9030E3" d="M27.99,39.869c-2.582-1.135-2.602-0.045-6.588,0.223c1.496,1.697,2.598,3.883,6.586,3.883
	c4.58,0,5.354-2.48,6.594-3.883C30.592,39.824,30.574,38.734,27.99,39.869z"/>
<path fill="#FFFFFF" d="M22.598,40.516c2.604,2.707,8.217,2.672,10.785,0C29.377,40.945,26.607,40.945,22.598,40.516z"/>
<path fill="#A17C5B" d="M39.699,24.908c-2.393-1.428-6.688-1.602-8.385-0.629c-0.361,0.195-0.266,1.227,0.047,1.098
	c2.422-1.01,6.115-1.059,8.391,0.107C40.055,25.639,40.063,25.115,39.699,24.908z"/>
<path fill="#A17C5B" d="M16.283,24.908c2.393-1.428,6.686-1.602,8.389-0.629c0.359,0.195,0.264,1.227-0.049,1.098
	c-2.426-1.01-6.113-1.061-8.391,0.107C15.926,25.639,15.92,25.115,16.283,24.908z"/>
<path fill="#C99B71" d="M30.469,36.209c-0.264-0.186-0.879,0.1-2.479,0.1c-1.598,0-2.215-0.285-2.477-0.1
	c-0.314,0.221,0.186,1.219,2.477,1.219S30.783,36.432,30.469,36.209z"/>
<path id="Path_1104_" fill="#FFFFFF" d="M25.541,29.236c0.094,0.73-0.402,1.594-1.773,2.242c-0.869,0.412-2.68,0.896-5.061-0.107
	c-1.066-0.449-2.105-1.85-2.012-2.625C17.984,26.314,24.334,25.959,25.541,29.236z"/>
<linearGradient id="Oval_1_" gradientUnits="userSpaceOnUse" x1="-425.1909" y1="477.4424" x2="-425.1909" y2="478.2012" gradientTransform="matrix(6.5701 0 0 -6.5701 2814.7805 3168.5281)">
	<stop  offset="0" style="stop-color:#A6694A"/>
	<stop  offset="1" style="stop-color:#4F2A1E"/>
	<a:midPointStop  offset="0" style="stop-color:#A6694A"/>
	<a:midPointStop  offset="0.5" style="stop-color:#A6694A"/>
	<a:midPointStop  offset="1" style="stop-color:#4F2A1E"/>
</linearGradient>
<circle id="Oval_170_" fill="url(#Oval_1_)" cx="21.232" cy="29.188" r="2.494"/>
<path id="Path_1103_" fill="#1A1626" d="M19.986,29.141c0,1.727,2.494,1.727,2.494,0C22.48,27.539,19.986,27.539,19.986,29.141z"/>
<path id="Path_1102_" fill="#AB968C" d="M19.607,28.443c0,0.723,1.045,0.723,1.045,0C20.652,27.773,19.607,27.773,19.607,28.443z"/>
<path id="Path_1101_" fill="#45332C" d="M25.553,29.332c-1.014-3.254-7.918-2.773-8.857-0.586
	C17.043,25.943,24.689,25.205,25.553,29.332z"/>
<path id="Path_1100_" fill="#FFFFFF" d="M30.443,29.236c-0.094,0.73,0.402,1.594,1.771,2.242c0.871,0.412,2.682,0.896,5.061-0.107
	c1.068-0.449,2.107-1.85,2.014-2.625C38,26.314,31.65,25.959,30.443,29.236z"/>
<linearGradient id="Oval_2_" gradientUnits="userSpaceOnUse" x1="-425.8403" y1="477.4424" x2="-425.8403" y2="478.2012" gradientTransform="matrix(6.5701 0 0 -6.5701 2832.511 3168.5281)">
	<stop  offset="0" style="stop-color:#A6694A"/>
	<stop  offset="1" style="stop-color:#4F2A1E"/>
	<a:midPointStop  offset="0" style="stop-color:#A6694A"/>
	<a:midPointStop  offset="0.5" style="stop-color:#A6694A"/>
	<a:midPointStop  offset="1" style="stop-color:#4F2A1E"/>
</linearGradient>
<circle id="Oval_169_" fill="url(#Oval_2_)" cx="34.695" cy="29.188" r="2.494"/>
<path id="Path_1099_" fill="#1A1626" d="M33.449,29.141c0,1.727,2.494,1.727,2.494,0C35.943,27.539,33.449,27.539,33.449,29.141z"/>
<path id="Path_1098_" fill="#AB968C" d="M33.068,28.443c0,0.723,1.047,0.723,1.047,0C34.115,27.773,33.068,27.773,33.068,28.443z"/>
<path id="Path_1097_" fill="#45332C" d="M30.434,29.332c1.01-3.252,7.91-2.787,8.855-0.586
	C38.939,25.943,31.295,25.205,30.434,29.332z"/>
<path fill="#9030E3" d="M35.17,14.027c-4.652-5.938-8.4-8.918-8.4-8.918c-16.115,2.58-20.055,28.676-8.166,41.918
	C18.133,44.244,6.283,26.494,35.17,14.027z"/>
<linearGradient id="SVGID_1_" gradientUnits="userSpaceOnUse" x1="10.0547" y1="24.5313" x2="41.5928" y2="24.5313">
	<stop  offset="0" style="stop-color:#D885FF"/>
	<stop  offset="0.0707" style="stop-color:#CD79FB"/>
	<stop  offset="0.2796" style="stop-color:#B359F1"/>
	<stop  offset="0.482" style="stop-color:#A042E9"/>
	<stop  offset="0.6735" style="stop-color:#9435E5"/>
	<stop  offset="0.8424" style="stop-color:#9030E3"/>
	<a:midPointStop  offset="0" style="stop-color:#D885FF"/>
	<a:midPointStop  offset="0.3188" style="stop-color:#D885FF"/>
	<a:midPointStop  offset="0.8424" style="stop-color:#9030E3"/>
</linearGradient>
<path fill="url(#SVGID_1_)" d="M40.848,8.037C32.953-2.266,0.055,10.609,13.064,44.484C11.764,8.932,47.111,19.316,40.848,8.037z"/>
<linearGradient id="SVGID_2_" gradientUnits="userSpaceOnUse" x1="8.189" y1="19.7139" x2="39.8926" y2="19.7139">
	<stop  offset="0" style="stop-color:#D885FF"/>
	<stop  offset="0.0707" style="stop-color:#CD79FB"/>
	<stop  offset="0.2796" style="stop-color:#B359F1"/>
	<stop  offset="0.482" style="stop-color:#A042E9"/>
	<stop  offset="0.6735" style="stop-color:#9435E5"/>
	<stop  offset="0.8424" style="stop-color:#9030E3"/>
	<a:midPointStop  offset="0" style="stop-color:#D885FF"/>
	<a:midPointStop  offset="0.3188" style="stop-color:#D885FF"/>
	<a:midPointStop  offset="0.8424" style="stop-color:#9030E3"/>
</linearGradient>
<path fill="url(#SVGID_2_)" d="M27.678,2C14.93,2,3.078,15.426,10.471,37.428C7.188,12.43,31.871,2.922,39.893,6.813
	C37.885,4.006,33.414,2,27.678,2z"/>
<path fill="#9030E3" d="M25.787,23.17c0,0,12.281-11.855,17.213-9.865C36.236,7.221,25.787,23.17,25.787,23.17z"/>
<rect x="54.709" y="54.672" fill-rule="evenodd" clip-rule="evenodd" fill="#1A1626" width="2.219" height="7.328"/>
<linearGradient id="SVGID_3_" gradientUnits="userSpaceOnUse" x1="-276.0547" y1="-157.4277" x2="-249.0542" y2="-157.4277" gradientTransform="matrix(0.2607 -0.2607 0.2607 0.2607 152.3963 15.7485)">
	<stop  offset="0" style="stop-color:#A0A8AB"/>
	<stop  offset="0.0238" style="stop-color:#A2AAAD"/>
	<stop  offset="0.4286" style="stop-color:#C2CACD"/>
	<stop  offset="0.7684" style="stop-color:#D6DDE1"/>
	<stop  offset="1" style="stop-color:#DDE4E8"/>
	<a:midPointStop  offset="0" style="stop-color:#A0A8AB"/>
	<a:midPointStop  offset="0.3758" style="stop-color:#A0A8AB"/>
	<a:midPointStop  offset="1" style="stop-color:#DDE4E8"/>
</linearGradient>
<circle fill="url(#SVGID_3_)" cx="42.906" cy="43.154" r="4.977"/>
<path fill="#9EA7AD" d="M46.264,39.195c-2.244,2.627-4.691,5.074-7.318,7.318c0.09,0.107,0.494,0.512,0.604,0.604
	c2.627-2.244,5.074-4.691,7.318-7.318C46.775,39.691,46.371,39.285,46.264,39.195z"/>
<path fill="#4E5E67" d="M46.5,39.432c-2.244,2.627-4.691,5.074-7.318,7.318c0.014,0.029,0.1,0.117,0.131,0.131
	c2.627-2.244,5.074-4.691,7.318-7.318C46.617,39.531,46.529,39.443,46.5,39.432z"/>
<linearGradient id="SVGID_4_" gradientUnits="userSpaceOnUse" x1="69.9395" y1="-57.5967" x2="77.4082" y2="-57.5967" gradientTransform="matrix(0.7071 -0.7071 0.7071 0.7071 40.8412 145.2803)">
	<stop  offset="0" style="stop-color:#282930"/>
	<stop  offset="0.6493" style="stop-color:#494855"/>
	<stop  offset="1" style="stop-color:#565463"/>
	<a:midPointStop  offset="0" style="stop-color:#282930"/>
	<a:midPointStop  offset="0.4364" style="stop-color:#282930"/>
	<a:midPointStop  offset="1" style="stop-color:#565463"/>
</linearGradient>
<path fill="url(#SVGID_4_)" d="M47.873,42.842c-1.619,1.896-3.385,3.662-5.281,5.281c0.479,0.244,0.959,0.484,1.436,0.727
	c0,0,0.002-0.002,0.004-0.002l13.688,11.07h0.982l0.969-0.967l-0.002-0.982l-11.07-13.688c0-0.002,0.002-0.002,0.002-0.004
	C48.359,43.799,48.117,43.322,47.873,42.842z"/>
<path fill="#1A1626" d="M50.213,46.277c-1.283,1.502-2.682,2.902-4.186,4.186c0.098,0.078,0.193,0.156,0.291,0.234
	c1.48-1.268,2.861-2.648,4.129-4.129C50.369,46.471,50.291,46.373,50.213,46.277z"/>
<rect x="57.477" y="58.868" transform="matrix(0.7068 -0.7075 0.7075 0.7068 -24.556 58.9714)" fill="#9EA7AD" width="2.758" height="0.476"/>
<polygon fill="#1A1626" points="57.191,54.586 54.371,57.412 56.865,59.463 59.229,57.092 "/>
<path opacity="0.2" fill="#302C3B" d="M42.609,47.197c0.346,0.225-0.172,0.768-0.533,0.471
	C41.707,47.365,42.246,46.953,42.609,47.197z"/>
<path opacity="0.2" fill="#302C3B" d="M43.66,46.227c0.346,0.232-0.256,0.865-0.658,0.611C42.572,46.551,43.273,45.949,43.66,46.227
	z"/>
<path opacity="0.2" fill="#302C3B" d="M44.662,45.252c0.277,0.27-0.322,0.881-0.658,0.645
	C43.625,45.613,44.338,44.936,44.662,45.252z"/>
<path opacity="0.2" fill="#302C3B" d="M45.646,44.254c0.236,0.336-0.373,0.938-0.645,0.658
	C44.686,44.588,45.363,43.875,45.646,44.254z"/>
<path opacity="0.2" fill="#302C3B" d="M46.59,43.252c0.254,0.402-0.379,1.004-0.613,0.658C45.699,43.523,46.301,42.822,46.59,43.252
	z"/>
<path opacity="0.2" fill="#302C3B" d="M47.418,42.326c0.297,0.361-0.244,0.879-0.473,0.533
	C46.703,42.496,47.115,41.957,47.418,42.326z"/>
<path opacity="0.2" fill="#302C3B" d="M41.127,46.764c0.379,0.336-0.129,0.697-0.475,0.326
	C40.289,46.744,40.729,46.439,41.127,46.764z"/>
<path opacity="0.2" fill="#302C3B" d="M46.84,40.902c0.373,0.346,0.01,0.854-0.326,0.475C46.189,40.979,46.494,40.539,46.84,40.902z
	"/>
<path opacity="0.2" fill="#302C3B" d="M42.172,45.928c0.461,0.387-0.213,0.947-0.672,0.553
	C41.016,46.092,41.68,45.535,42.172,45.928z"/>
<path opacity="0.2" fill="#302C3B" d="M43.254,44.951c0.439,0.404-0.26,1.047-0.723,0.66C42.045,45.211,42.785,44.523,43.254,44.951
	z"/>
<path opacity="0.2" fill="#302C3B" d="M44.344,43.875c0.406,0.438-0.281,1.125-0.719,0.719C43.162,44.16,43.91,43.412,44.344,43.875
	z"/>
<path opacity="0.2" fill="#302C3B" d="M45.361,42.781c0.385,0.463-0.256,1.162-0.66,0.721
	C44.275,43.033,44.961,42.293,45.361,42.781z"/>
<path opacity="0.2" fill="#302C3B" d="M46.23,41.748c0.395,0.459-0.168,1.137-0.553,0.674C45.283,41.93,45.842,41.266,46.23,41.748z
	"/>
<path opacity="0.2" fill="#302C3B" d="M39.395,45.133c0.352,0.385-0.016,0.715-0.336,0.363
	C38.705,45.174,39.018,44.775,39.395,45.133z"/>
<path opacity="0.2" fill="#302C3B" d="M45.246,39.309c0.352,0.32,0.021,0.688-0.361,0.336
	C44.527,39.268,44.924,38.953,45.246,39.309z"/>
<path opacity="0.2" fill="#302C3B" d="M40.293,44.201c0.463,0.492-0.166,1.082-0.598,0.617C39.24,44.377,39.813,43.73,40.293,44.201
	z"/>
<path opacity="0.2" fill="#302C3B" d="M41.35,43.125c0.488,0.504-0.244,1.219-0.715,0.727C40.156,43.373,40.855,42.635,41.35,43.125
	z"/>
<path opacity="0.2" fill="#302C3B" d="M42.492,41.982c0.498,0.496-0.264,1.258-0.76,0.76C41.24,42.246,41.996,41.49,42.492,41.982z"
	/>
<path opacity="0.2" fill="#302C3B" d="M43.604,40.885c0.49,0.471-0.225,1.205-0.727,0.715
	C42.387,41.105,43.123,40.406,43.604,40.885z"/>
<path opacity="0.2" fill="#302C3B" d="M44.568,39.945c0.467,0.432-0.123,1.061-0.617,0.598C43.48,40.063,44.129,39.49,44.568,39.945
	z"/>
<path opacity="0.2" fill="#302C3B" d="M38.885,43.789c0.336,0.4-0.068,0.871-0.396,0.496C38.143,43.932,38.537,43.41,38.885,43.789z
	"/>
<path opacity="0.2" fill="#302C3B" d="M39.852,42.693c0.434,0.49-0.221,1.184-0.631,0.701C38.809,42.934,39.42,42.227,39.852,42.693
	z"/>
<path opacity="0.2" fill="#302C3B" d="M40.932,41.566c0.463,0.471-0.281,1.23-0.723,0.744
	C39.779,41.844,40.477,41.115,40.932,41.566z"/>
<path opacity="0.2" fill="#302C3B" d="M42.061,40.459c0.486,0.441-0.273,1.186-0.744,0.723
	C40.863,40.729,41.594,40.029,42.061,40.459z"/>
<path opacity="0.2" fill="#302C3B" d="M43.145,39.471c0.484,0.41-0.211,1.064-0.701,0.631
	C41.979,39.672,42.684,39.057,43.145,39.471z"/>
<path opacity="0.2" fill="#302C3B" d="M44.035,38.738c0.375,0.328-0.096,0.732-0.496,0.396C43.16,38.787,43.68,38.393,44.035,38.738
	z"/>
<path opacity="0.2" fill="#302C3B" d="M38.59,42.248c0.25,0.334-0.174,0.844-0.43,0.506C37.91,42.432,38.348,41.932,38.59,42.248z"
	/>
<path opacity="0.2" fill="#302C3B" d="M39.504,41.242c0.299,0.344-0.26,0.953-0.543,0.588
	C38.695,41.484,39.225,40.922,39.504,41.242z"/>
<path opacity="0.2" fill="#302C3B" d="M40.545,40.184c0.334,0.309-0.273,0.916-0.582,0.582
	C39.676,40.453,40.23,39.898,40.545,40.184z"/>
<path opacity="0.2" fill="#302C3B" d="M41.609,39.184c0.365,0.283-0.242,0.84-0.588,0.543C40.699,39.447,41.262,38.92,41.609,39.184
	z"/>
<path opacity="0.2" fill="#302C3B" d="M42.504,38.41c0.338,0.256-0.174,0.678-0.506,0.43C41.682,38.6,42.182,38.16,42.504,38.41z"/>
<path opacity="0.2" fill="#302C3B" d="M39.438,40.238c0.182,0.197-0.26,0.654-0.426,0.432
	C38.869,40.467,39.277,40.063,39.438,40.238z"/>
<path opacity="0.2" fill="#302C3B" d="M40.422,39.262c0.221,0.166-0.236,0.607-0.434,0.426
	C39.813,39.527,40.217,39.117,40.422,39.262z"/>
</svg>
