<?xml version="1.0" encoding="utf-8"?>
<!-- Generator: Adobe Illustrator 15.0.0, SVG Export Plug-In . SVG Version: 6.00 Build 0)  -->
<!DOCTYPE svg PUBLIC "-//W3C//DTD SVG 1.1//EN" "http://www.w3.org/Graphics/SVG/1.1/DTD/svg11.dtd" [
	<!ENTITY ns_flows "http://ns.adobe.com/Flows/1.0/">
	<!ENTITY ns_extend "http://ns.adobe.com/Extensibility/1.0/">
	<!ENTITY ns_ai "http://ns.adobe.com/AdobeIllustrator/10.0/">
	<!ENTITY ns_graphs "http://ns.adobe.com/Graphs/1.0/">
]>
<svg version="1.1" id="Layer_1" xmlns:x="&ns_extend;" xmlns:i="&ns_ai;" xmlns:graph="&ns_graphs;"
	 xmlns="http://www.w3.org/2000/svg" xmlns:xlink="http://www.w3.org/1999/xlink" xmlns:a="http://ns.adobe.com/AdobeSVGViewerExtensions/3.0/"
	 x="0px" y="0px" width="64px" height="64px" viewBox="0 0 64 64" enable-background="new 0 0 64 64" xml:space="preserve">
<path fill="#473834" d="M49.977,29.691c9.389-3.755,8.449-12.673,8.449-12.673H32.143c0,0-0.939,8.918,8.447,12.673
	c0,0,1.879,0.47,4.693,0.47C48.102,30.161,49.977,29.691,49.977,29.691z"/>
<linearGradient id="SVGID_1_" gradientUnits="userSpaceOnUse" x1="168.418" y1="30.1592" x2="168.418" y2="2.0702" gradientTransform="matrix(1 0 0 1 -113.9844 0)">
	<stop  offset="0.05" style="stop-color:#473834"/>
	<stop  offset="0.2266" style="stop-color:#594640"/>
	<stop  offset="0.5197" style="stop-color:#715950"/>
	<stop  offset="0.7" style="stop-color:#7A6056"/>
	<a:midPointStop  offset="0.05" style="stop-color:#473834"/>
	<a:midPointStop  offset="0.4" style="stop-color:#473834"/>
	<a:midPointStop  offset="0.7" style="stop-color:#7A6056"/>
</linearGradient>
<path fill="url(#SVGID_1_)" d="M54.775,17.971c0.959,4.043,0.453,8.046-4.799,11.721c5.635-0.938,8.913-6.258,8.913-10.339
	L54.775,17.971z"/>
<linearGradient id="SVGID_2_" gradientUnits="userSpaceOnUse" x1="1630.6953" y1="30.1592" x2="1630.6953" y2="2.0702" gradientTransform="matrix(-1 0 0 1 1666.8301 0)">
	<stop  offset="0.05" style="stop-color:#473834"/>
	<stop  offset="0.2266" style="stop-color:#594640"/>
	<stop  offset="0.5197" style="stop-color:#715950"/>
	<stop  offset="0.7" style="stop-color:#7A6056"/>
	<a:midPointStop  offset="0.05" style="stop-color:#473834"/>
	<a:midPointStop  offset="0.4" style="stop-color:#473834"/>
	<a:midPointStop  offset="0.7" style="stop-color:#7A6056"/>
</linearGradient>
<path fill="url(#SVGID_2_)" d="M35.795,17.971c-0.961,4.043-0.453,8.046,4.797,11.721c-5.633-0.938-8.913-6.258-8.913-10.339
	L35.795,17.971z"/>
<path fill="#E6B045" d="M33.045,31.726c1.269-1.635,2.631-2.087,2.631-2.087L35.13,40.084c0,0-4.029,2.893-7.596,4.174l0.662-7.174
	C28.196,37.084,30.961,34.414,33.045,31.726z"/>
<path fill="#D63E93" d="M54.911,29.634l-3.593-1.316l-12.071,0.011l-3.571,1.311c0,0-0.891,7.854-0.545,10.445
	c0.56,4.193,1.226,3.635,1.274,6.872C36.442,49.365,34.143,62,34.143,62h22.265c0,0-2.301-12.614-2.265-15
	c0.049-3.23,0.715-2.711,1.276-6.916C55.765,37.492,54.911,29.634,54.911,29.634z"/>
<path fill="#FFCC66" d="M39.247,28.328c0,3.939,5.153,6.305,6.026,6.305c0.878,0,6.045-2.367,6.045-6.315l-1.889-0.665h-8.271
	L39.247,28.328z"/>
<path fill="#FFCC66" d="M40.815,27.79c0,3.826,8.917,3.826,8.917,0c0-1.302,0-4.233,0-4.233h-8.917
	C40.815,23.556,40.815,26.488,40.815,27.79z"/>
<path fill="#E6B045" d="M51.516,22.91c-0.73,3.576-4.59,7.178-6.232,7.178s-5.499-3.602-6.23-7.178
	C38.701,21.191,51.866,21.191,51.516,22.91z"/>
<path fill="#FFCC66" d="M45.285,3.408c-6.813,0-10.092,5.547-9.684,12.68c0.086,1.433,0.484,3.501,0.977,5.272
	c1.021,3.684,6.41,7.393,8.707,7.393c2.295,0,7.684-3.709,8.707-7.393c0.492-1.771,0.891-3.84,0.975-5.272
	C55.375,8.955,52.098,3.408,45.285,3.408z"/>
<path fill="#D47706" d="M45.285,22.963c1.596-0.702,1.607-0.028,4.072,0.137c-0.924,1.051-1.605,2.4-4.072,2.4
	c-2.83,0-3.309-1.533-4.076-2.4C43.676,22.935,43.688,22.261,45.285,22.963z"/>
<path fill="#FFFFFF" d="M48.617,23.361c-1.607,1.674-5.078,1.652-6.666,0.001C44.428,23.628,46.141,23.628,48.617,23.361z"/>
<path fill="#966F42" d="M38.047,13.714c1.479-0.882,4.133-0.99,5.184-0.389c0.223,0.121,0.162,0.759-0.029,0.679
	c-1.498-0.623-3.781-0.654-5.188,0.066C37.826,14.166,37.822,13.843,38.047,13.714z"/>
<path fill="#966F42" d="M52.521,13.714c-1.479-0.882-4.133-0.99-5.186-0.389c-0.223,0.121-0.162,0.759,0.031,0.679
	c1.498-0.623,3.777-0.655,5.186,0.066C52.742,14.166,52.746,13.843,52.521,13.714z"/>
<path fill="#DB9D3A" d="M43.752,20.699c0.164-0.113,0.543,0.062,1.533,0.062c0.988,0,1.367-0.175,1.531-0.062
	c0.193,0.137-0.115,0.754-1.531,0.754S43.557,20.837,43.752,20.699z"/>
<path id="Path_918_" fill="#FFFFFF" d="M43.77,16.39c0.057,0.45-0.248,0.985-1.096,1.386c-0.539,0.255-1.658,0.555-3.129-0.066
	c-0.658-0.277-1.301-1.143-1.244-1.621C39.1,14.584,43.023,14.364,43.77,16.39z"/>
<linearGradient id="Oval_1_" gradientUnits="userSpaceOnUse" x1="-404.8169" y1="479.54" x2="-404.8169" y2="480.0088" gradientTransform="matrix(6.5701 0 0 -6.5701 2700.7961 3168.5281)">
	<stop  offset="0" style="stop-color:#A6694A"/>
	<stop  offset="1" style="stop-color:#4F2A1E"/>
	<a:midPointStop  offset="0" style="stop-color:#A6694A"/>
	<a:midPointStop  offset="0.5" style="stop-color:#A6694A"/>
	<a:midPointStop  offset="1" style="stop-color:#4F2A1E"/>
</linearGradient>
<circle id="Oval_128_" fill="url(#Oval_1_)" cx="41.105" cy="16.359" r="1.542"/>
<path id="Path_917_" fill="#1A1626" d="M40.336,16.331c0,1.066,1.543,1.066,1.543,0C41.879,15.341,40.336,15.341,40.336,16.331z"/>
<path id="Path_916_" fill="#AB968C" d="M40.102,15.899c0,0.447,0.646,0.447,0.646,0C40.748,15.485,40.102,15.485,40.102,15.899z"/>
<path id="Path_915_" fill="#45332C" d="M43.777,16.449c-0.627-2.012-4.895-1.715-5.477-0.361
	C38.516,14.354,43.242,13.897,43.777,16.449z"/>
<path id="Path_914_" fill="#FFFFFF" d="M46.801,16.39c-0.059,0.45,0.248,0.985,1.094,1.386c0.539,0.255,1.658,0.555,3.129-0.066
	c0.66-0.277,1.303-1.143,1.244-1.621C51.471,14.584,47.547,14.364,46.801,16.39z"/>
<linearGradient id="Oval_2_" gradientUnits="userSpaceOnUse" x1="-406.249" y1="479.54" x2="-406.249" y2="480.0088" gradientTransform="matrix(6.5701 0 0 -6.5701 2718.5266 3168.5281)">
	<stop  offset="0" style="stop-color:#A6694A"/>
	<stop  offset="1" style="stop-color:#4F2A1E"/>
	<a:midPointStop  offset="0" style="stop-color:#A6694A"/>
	<a:midPointStop  offset="0.5" style="stop-color:#A6694A"/>
	<a:midPointStop  offset="1" style="stop-color:#4F2A1E"/>
</linearGradient>
<circle id="Oval_127_" fill="url(#Oval_2_)" cx="49.428" cy="16.359" r="1.542"/>
<path id="Path_913_" fill="#1A1626" d="M48.658,16.331c0,1.066,1.541,1.066,1.541,0C50.199,15.341,48.658,15.341,48.658,16.331z"/>
<path id="Path_912_" fill="#AB968C" d="M48.424,15.899c0,0.447,0.646,0.447,0.646,0C49.07,15.485,48.424,15.485,48.424,15.899z"/>
<path id="Path_911_" fill="#45332C" d="M46.793,16.449c0.625-2.011,4.891-1.723,5.475-0.361
	C52.053,14.354,47.326,13.897,46.793,16.449z"/>
<linearGradient id="SVGID_3_" gradientUnits="userSpaceOnUse" x1="159.2686" y1="30.1592" x2="159.2686" y2="2.0699" gradientTransform="matrix(1 0 0 1 -113.9844 0)">
	<stop  offset="0.05" style="stop-color:#473834"/>
	<stop  offset="0.2266" style="stop-color:#594640"/>
	<stop  offset="0.5197" style="stop-color:#715950"/>
	<stop  offset="0.7" style="stop-color:#7A6056"/>
	<a:midPointStop  offset="0.05" style="stop-color:#473834"/>
	<a:midPointStop  offset="0.4" style="stop-color:#473834"/>
	<a:midPointStop  offset="0.7" style="stop-color:#7A6056"/>
</linearGradient>
<path fill="url(#SVGID_3_)" d="M52.951,4.404c0.777-1.11-5.811-3.455-12.031-1.871c-6.213,1.423-9.241,10.731-9.241,16.819
	c0.537,0.441,3.485-0.658,4.116-1.382c0.258-1.065,0.662-2.162,1.041-3.298c4.666-2.701,9.947-3.338,13.611-6.571
	c-0.469,1.408,2.016,3.185,3.285,6.571c0.412,1.099,0.781,2.199,1.043,3.298c1.035,0.953,2.677,1.403,4.114,1.382
	C58.89,14.204,55.441,3.686,52.951,4.404z"/>
<path fill="#473834" d="M32.322,18.427c4.299-5.723,18.221-5.335,20.629-14.022C48.277,11.695,33.498,12.926,32.322,18.427z"/>
<path fill="#473834" d="M23.408,29.691c9.389-3.755,8.449-12.673,8.449-12.673H5.574c0,0-0.939,8.918,8.447,12.673
	c0,0,1.879,0.47,4.693,0.47C21.533,30.161,23.408,29.691,23.408,29.691z"/>
<linearGradient id="SVGID_4_" gradientUnits="userSpaceOnUse" x1="27.8647" y1="30.1592" x2="27.8647" y2="2.0702">
	<stop  offset="0.05" style="stop-color:#473834"/>
	<stop  offset="0.2266" style="stop-color:#594640"/>
	<stop  offset="0.5197" style="stop-color:#715950"/>
	<stop  offset="0.7" style="stop-color:#7A6056"/>
	<a:midPointStop  offset="0.05" style="stop-color:#473834"/>
	<a:midPointStop  offset="0.4" style="stop-color:#473834"/>
	<a:midPointStop  offset="0.7" style="stop-color:#7A6056"/>
</linearGradient>
<path fill="url(#SVGID_4_)" d="M28.207,17.971c0.959,4.043,0.453,8.046-4.799,11.721c5.635-0.938,8.913-6.258,8.913-10.339
	L28.207,17.971z"/>
<linearGradient id="SVGID_5_" gradientUnits="userSpaceOnUse" x1="1771.248" y1="30.1592" x2="1771.248" y2="2.0702" gradientTransform="matrix(-1 0 0 1 1780.8145 0)">
	<stop  offset="0.05" style="stop-color:#473834"/>
	<stop  offset="0.2266" style="stop-color:#594640"/>
	<stop  offset="0.5197" style="stop-color:#715950"/>
	<stop  offset="0.7" style="stop-color:#7A6056"/>
	<a:midPointStop  offset="0.05" style="stop-color:#473834"/>
	<a:midPointStop  offset="0.4" style="stop-color:#473834"/>
	<a:midPointStop  offset="0.7" style="stop-color:#7A6056"/>
</linearGradient>
<path fill="url(#SVGID_5_)" d="M9.227,17.971c-0.961,4.043-0.453,8.046,4.797,11.721C8.391,28.753,5.11,23.434,5.11,19.353
	L9.227,17.971z"/>
<path fill="#FFCC66" d="M30.955,31.726c-1.269-1.635-2.631-2.087-2.631-2.087l0.546,10.445c0,0,3.635,2.893,7.201,4.174
	l-0.995-7.081C35.076,37.177,33.039,34.414,30.955,31.726z"/>
<path fill="#8E3ED6" d="M9.089,29.634l3.593-1.316l12.071,0.011l3.571,1.311c0,0,0.891,7.854,0.545,10.445
	c-0.56,4.193-1.226,3.635-1.274,6.872C27.558,49.365,29.857,62,29.857,62H7.593c0,0,2.301-12.614,2.265-15
	c-0.049-3.23-0.715-2.711-1.276-6.916C8.235,37.492,9.089,29.634,9.089,29.634z"/>
<path fill="#FFCC66" d="M24.753,28.328c0,3.939-5.153,6.305-6.026,6.305c-0.878,0-6.045-2.367-6.045-6.315l1.889-0.665h8.271
	L24.753,28.328z"/>
<path fill="#FFCC66" d="M23.185,27.79c0,3.826-8.917,3.826-8.917,0c0-1.302,0-4.233,0-4.233h8.917
	C23.185,23.556,23.185,26.488,23.185,27.79z"/>
<path fill="#E6B045" d="M12.484,22.91c0.73,3.576,4.59,7.178,6.232,7.178s5.499-3.602,6.23-7.178
	C25.299,21.191,12.134,21.191,12.484,22.91z"/>
<path fill="#FFCC66" d="M18.717,3.408c-6.813,0-10.092,5.547-9.684,12.68c0.086,1.433,0.484,3.501,0.977,5.272
	c1.021,3.684,6.41,7.393,8.707,7.393c2.295,0,7.684-3.709,8.707-7.393c0.492-1.771,0.891-3.84,0.975-5.272
	C28.807,8.955,25.529,3.408,18.717,3.408z"/>
<path fill="#D47706" d="M18.715,22.963c-1.596-0.702-1.607-0.028-4.072,0.137c0.924,1.051,1.605,2.4,4.072,2.4
	c2.83,0,3.309-1.533,4.076-2.4C20.324,22.935,20.313,22.261,18.715,22.963z"/>
<path fill="#FFFFFF" d="M15.383,23.361c1.607,1.674,5.078,1.652,6.666,0.001C19.572,23.628,17.859,23.628,15.383,23.361z"/>
<path fill="#966F42" d="M25.953,13.714c-1.479-0.882-4.133-0.99-5.184-0.389c-0.223,0.121-0.162,0.759,0.029,0.679
	c1.498-0.623,3.781-0.654,5.188,0.066C26.174,14.166,26.178,13.843,25.953,13.714z"/>
<path fill="#966F42" d="M11.479,13.714c1.479-0.882,4.133-0.99,5.186-0.389c0.223,0.121,0.162,0.759-0.031,0.679
	c-1.498-0.623-3.777-0.655-5.186,0.066C11.258,14.166,11.254,13.843,11.479,13.714z"/>
<path fill="#DB9D3A" d="M20.248,20.699c-0.164-0.113-0.543,0.062-1.533,0.062c-0.988,0-1.367-0.175-1.531-0.062
	c-0.193,0.137,0.115,0.754,1.531,0.754S20.443,20.837,20.248,20.699z"/>
<path id="Path_910_" fill="#FFFFFF" d="M17.201,16.39c0.057,0.45-0.248,0.985-1.096,1.386c-0.539,0.255-1.658,0.555-3.129-0.066
	c-0.658-0.277-1.301-1.143-1.244-1.621C12.531,14.584,16.455,14.364,17.201,16.39z"/>
<linearGradient id="Oval_3_" gradientUnits="userSpaceOnUse" x1="-426.21" y1="479.54" x2="-426.21" y2="480.0088" gradientTransform="matrix(6.5701 0 0 -6.5701 2814.7805 3168.5281)">
	<stop  offset="0" style="stop-color:#A6694A"/>
	<stop  offset="1" style="stop-color:#4F2A1E"/>
	<a:midPointStop  offset="0" style="stop-color:#A6694A"/>
	<a:midPointStop  offset="0.5" style="stop-color:#A6694A"/>
	<a:midPointStop  offset="1" style="stop-color:#4F2A1E"/>
</linearGradient>
<circle id="Oval_126_" fill="url(#Oval_3_)" cx="14.537" cy="16.359" r="1.542"/>
<path id="Path_909_" fill="#1A1626" d="M13.768,16.331c0,1.066,1.543,1.066,1.543,0C15.311,15.341,13.768,15.341,13.768,16.331z"/>
<path id="Path_908_" fill="#AB968C" d="M13.533,15.899c0,0.447,0.646,0.447,0.646,0C14.18,15.485,13.533,15.485,13.533,15.899z"/>
<path id="Path_907_" fill="#45332C" d="M17.209,16.449c-0.627-2.012-4.895-1.715-5.477-0.361
	C11.947,14.354,16.674,13.897,17.209,16.449z"/>
<path id="Path_906_" fill="#FFFFFF" d="M20.232,16.39c-0.059,0.45,0.248,0.985,1.094,1.386c0.539,0.255,1.658,0.555,3.129-0.066
	c0.66-0.277,1.303-1.143,1.244-1.621C24.902,14.584,20.979,14.364,20.232,16.39z"/>
<linearGradient id="Oval_4_" gradientUnits="userSpaceOnUse" x1="-427.6421" y1="479.54" x2="-427.6421" y2="480.0088" gradientTransform="matrix(6.5701 0 0 -6.5701 2832.511 3168.5281)">
	<stop  offset="0" style="stop-color:#A6694A"/>
	<stop  offset="1" style="stop-color:#4F2A1E"/>
	<a:midPointStop  offset="0" style="stop-color:#A6694A"/>
	<a:midPointStop  offset="0.5" style="stop-color:#A6694A"/>
	<a:midPointStop  offset="1" style="stop-color:#4F2A1E"/>
</linearGradient>
<circle id="Oval_125_" fill="url(#Oval_4_)" cx="22.859" cy="16.359" r="1.542"/>
<path id="Path_905_" fill="#1A1626" d="M22.09,16.331c0,1.066,1.541,1.066,1.541,0C23.631,15.341,22.09,15.341,22.09,16.331z"/>
<path id="Path_904_" fill="#AB968C" d="M21.855,15.899c0,0.447,0.646,0.447,0.646,0C22.502,15.485,21.855,15.485,21.855,15.899z"/>
<path id="Path_903_" fill="#45332C" d="M20.225,16.449c0.625-2.011,4.891-1.723,5.475-0.361
	C25.484,14.354,20.758,13.897,20.225,16.449z"/>
<linearGradient id="SVGID_6_" gradientUnits="userSpaceOnUse" x1="18.7158" y1="30.1592" x2="18.7158" y2="2.0699">
	<stop  offset="0.05" style="stop-color:#473834"/>
	<stop  offset="0.2266" style="stop-color:#594640"/>
	<stop  offset="0.5197" style="stop-color:#715950"/>
	<stop  offset="0.7" style="stop-color:#7A6056"/>
	<a:midPointStop  offset="0.05" style="stop-color:#473834"/>
	<a:midPointStop  offset="0.4" style="stop-color:#473834"/>
	<a:midPointStop  offset="0.7" style="stop-color:#7A6056"/>
</linearGradient>
<path fill="url(#SVGID_6_)" d="M26.383,4.404c0.777-1.11-5.811-3.455-12.031-1.871C8.139,3.956,5.11,13.265,5.11,19.353
	c0.537,0.441,3.485-0.658,4.116-1.382c0.258-1.065,0.662-2.162,1.041-3.298c4.666-2.701,9.947-3.338,13.611-6.571
	c-0.469,1.408,2.016,3.185,3.285,6.571c0.412,1.099,0.781,2.199,1.043,3.298c1.035,0.953,2.677,1.403,4.114,1.382
	C32.321,14.204,28.873,3.686,26.383,4.404z"/>
<path fill="#473834" d="M5.754,18.427c4.299-5.723,18.221-5.335,20.629-14.022C21.709,11.695,6.93,12.926,5.754,18.427z"/>
<path fill="#8FEAFF" d="M40.858,55.146c-0.85-1.092-4.963-2.426-4.963-2.426l-7.792,0.013c0,0-4.089,1.331-4.937,2.415
	C21.774,56.932,21.264,62,21.264,62h21.473C42.736,62,42.249,56.931,40.858,55.146z"/>
<path fill="#67DBF5" d="M28.104,52.733c0,3.241,7.792,3.229,7.792-0.013l-0.781-0.273h-6.195L28.104,52.733z"/>
<path fill="#E6B045" d="M28.661,52.537c0,2.539,6.679,2.539,6.679,0c0-0.862,0-2.807,0-2.807h-6.679
	C28.661,49.73,28.661,51.675,28.661,52.537z"/>
<path fill="#67DBF5" d="M25.132,62h-0.299C24.833,58.319,25.132,58.319,25.132,62z"/>
<path fill="#67DBF5" d="M39.167,62h-0.3C38.867,58.319,39.167,58.319,39.167,62z"/>
<path id="Path_358_" fill="#FFCC66" d="M23.441,42.107c1.066,0.131,1.834,3.73,1.166,4.68c-0.096,0.133-0.645,0.346-1.051-0.494
	c-0.227-0.463-0.877-0.852-1.078-1.809C22.221,43.258,22.383,41.979,23.441,42.107z"/>
<path id="Path_357_" fill="#DB9D3A" d="M23.471,42.799c0.277,0.087,0.582,0.516,0.746,1.225c-0.973-0.211-0.729,1.422,0.115,1.453
	c-0.008,0.164-0.018,0.334-0.039,0.511c-0.406-0.596-0.82-0.356-1.229-1.243C22.695,43.944,22.783,42.58,23.471,42.799z"/>
<path id="Path_356_" fill="#FFCC66" d="M40.557,42.107c-1.064,0.131-1.834,3.73-1.164,4.68c0.094,0.133,0.643,0.346,1.051-0.494
	c0.225-0.463,0.875-0.852,1.076-1.809C41.779,43.258,41.617,41.979,40.557,42.107z"/>
<path id="Path_355_" fill="#DB9D3A" d="M39.783,44.021c0.164-0.709,0.467-1.136,0.744-1.223c0.689-0.219,0.777,1.146,0.408,1.945
	c-0.41,0.887-0.822,0.647-1.23,1.243c-0.02-0.178-0.031-0.347-0.037-0.512C40.502,45.436,40.742,43.823,39.783,44.021z"/>
<path fill="#FFCC66" d="M32,32.857c-5.822,0-8.627,4.404-8.275,10.529c0.07,1.232,0.834,4.047,1.557,5.488
	c1.273,2.545,4.6,4.443,6.719,4.443c2.117,0,5.447-1.898,6.719-4.443c0.723-1.441,1.486-4.256,1.557-5.488
	C40.627,37.262,37.822,32.857,32,32.857z"/>
<path id="Path_354_" fill="#DB9D3A" d="M33.357,46.828c-0.145-0.101-0.482,0.055-1.357,0.055c-0.877,0-1.215-0.155-1.359-0.055
	c-0.17,0.121,0.104,0.668,1.359,0.668C33.254,47.496,33.529,46.949,33.357,46.828z"/>
<path id="Path_353_" fill="#DB9D3A" d="M32,48.779c-1.313-0.386-3.258,0.184-3.258,0.184c0.74,0.808,1.283,1.854,3.258,1.854
	c2.262,0,2.646-1.188,3.258-1.854C35.258,48.963,33.311,48.393,32,48.779z"/>
<path id="Path_352_" fill="#FFFFFF" d="M29.23,49.1c1.375,1.154,4.154,1.162,5.539,0C33.303,49.162,30.707,49.163,29.23,49.1z"/>
<path id="Path_351_" fill="#FFFFFF" d="M30.744,43.832c0.047,0.373-0.205,0.816-0.908,1.147c-0.445,0.212-1.373,0.46-2.592-0.054
	c-0.545-0.23-1.078-0.948-1.029-1.345C26.875,42.336,30.125,42.153,30.744,43.832z"/>
<linearGradient id="Oval_5_" gradientUnits="userSpaceOnUse" x1="-424.0786" y1="475.4023" x2="-424.0786" y2="475.791" gradientTransform="matrix(6.5701 0 0 -6.5701 2814.7805 3168.5281)">
	<stop  offset="0" style="stop-color:#A6694A"/>
	<stop  offset="1" style="stop-color:#4F2A1E"/>
	<a:midPointStop  offset="0" style="stop-color:#A6694A"/>
	<a:midPointStop  offset="0.5" style="stop-color:#A6694A"/>
	<a:midPointStop  offset="1" style="stop-color:#4F2A1E"/>
</linearGradient>
<circle id="Oval_46_" fill="url(#Oval_5_)" cx="28.539" cy="43.807" r="1.277"/>
<path id="Path_350_" fill="#1A1626" d="M27.9,43.783c0,0.884,1.277,0.884,1.277,0C29.178,42.963,27.9,42.963,27.9,43.783z"/>
<path id="Path_349_" fill="#AB968C" d="M27.707,43.426c0,0.37,0.535,0.37,0.535,0C28.242,43.082,27.707,43.082,27.707,43.426z"/>
<path id="Path_348_" fill="#DB9D3A" d="M30.75,43.881c-0.518-1.667-4.055-1.422-4.535-0.3C26.393,42.146,30.309,41.768,30.75,43.881
	z"/>
<path id="Path_347_" fill="#FFFFFF" d="M33.256,43.832c-0.049,0.373,0.205,0.816,0.906,1.147c0.445,0.212,1.373,0.46,2.594-0.054
	c0.545-0.23,1.078-0.948,1.029-1.345C37.125,42.336,33.873,42.153,33.256,43.832z"/>
<linearGradient id="Oval_6_" gradientUnits="userSpaceOnUse" x1="-425.728" y1="475.4023" x2="-425.728" y2="475.791" gradientTransform="matrix(6.5701 0 0 -6.5701 2832.511 3168.5281)">
	<stop  offset="0" style="stop-color:#A6694A"/>
	<stop  offset="1" style="stop-color:#4F2A1E"/>
	<a:midPointStop  offset="0" style="stop-color:#A6694A"/>
	<a:midPointStop  offset="0.5" style="stop-color:#A6694A"/>
	<a:midPointStop  offset="1" style="stop-color:#4F2A1E"/>
</linearGradient>
<circle id="Oval_45_" fill="url(#Oval_6_)" cx="35.432" cy="43.807" r="1.277"/>
<path id="Path_346_" fill="#1A1626" d="M34.795,43.783c0,0.884,1.277,0.884,1.277,0C36.072,42.963,34.795,42.963,34.795,43.783z"/>
<path id="Path_345_" fill="#AB968C" d="M34.6,43.426c0,0.37,0.535,0.37,0.535,0C35.135,43.082,34.6,43.082,34.6,43.426z"/>
<path id="Path_344_" fill="#DB9D3A" d="M33.25,43.881c0.518-1.666,4.051-1.428,4.535-0.3C37.605,42.146,33.691,41.768,33.25,43.881z
	"/>
<path id="Path_343_" fill="#DB9D3A" d="M37.867,41.842c-1.098-0.693-3.311-0.895-4.178-0.54c-0.186,0.067-0.125,0.647,0.029,0.605
	c1.195-0.357,3.051-0.224,4.078,0.356C37.936,42.339,38.035,41.938,37.867,41.842z"/>
<path id="Path_342_" fill="#DB9D3A" d="M26.131,41.842c1.1-0.693,3.311-0.895,4.178-0.54c0.186,0.067,0.125,0.647-0.029,0.605
	c-1.195-0.357-3.049-0.224-4.08,0.356C26.063,42.339,25.963,41.938,26.131,41.842z"/>
<linearGradient id="SVGID_7_" gradientUnits="userSpaceOnUse" x1="31.9995" y1="45.4199" x2="31.9995" y2="31.6548">
	<stop  offset="0" style="stop-color:#473834"/>
	<stop  offset="0.2717" style="stop-color:#594640"/>
	<stop  offset="0.7226" style="stop-color:#715950"/>
	<stop  offset="1" style="stop-color:#7A6056"/>
	<a:midPointStop  offset="0" style="stop-color:#473834"/>
	<a:midPointStop  offset="0.4" style="stop-color:#473834"/>
	<a:midPointStop  offset="1" style="stop-color:#7A6056"/>
</linearGradient>
<path fill="url(#SVGID_7_)" d="M31.99,32.457c-0.525,0-1.012,0.033-1.48,0.082c0.195-0.203,0.438-0.361,0.773-0.424
	c-0.689-0.187-1.467-0.101-2.072,0.348c-0.127-0.217-0.18-0.495-0.053-0.809c-0.846,0.514-1.006,1.133-1.006,1.133
	c-0.242-0.392-0.254-0.904-0.254-0.904s-0.912,0.644-0.779,1.586c-0.814-0.355-1.498,0.058-1.498,0.058s0.4,0.171,0.592,0.53
	c-4.555,3.307-2.996,10.657-2.131,11.363c0,0,0.256-5.492,2.574-7.132c-0.125,1.036-0.402,1.769-0.402,1.769
	s2.275-0.359,4.279-1.639c-0.232,1.145-0.859,1.965-0.859,1.965s4.137-0.577,5.365-2.525c0,0,0.811,1.706,2.816,2.935
	c0,0,0.125-1.278-0.15-2.184c1.967,1.935,2.197,6.804,2.197,6.804C41.053,44.381,43.305,32.457,31.99,32.457z"/>
<path fill="#473834" d="M37.568,37.75l0.203,1.131c0,0,1.676,2.195,2.131,6.531C40.113,40.725,37.568,37.75,37.568,37.75z"/>
<path fill="#473834" d="M37.342,37.327c0,0,1.229,1.53,0.514,3.465C37.947,39.277,37.342,37.327,37.342,37.327z"/>
<path fill="#473834" d="M35.313,36.788c0.273,3.928-5.686,3.597-5.639,3.595C29.674,40.383,34.793,39.402,35.313,36.788z"/>
<path fill="#473834" d="M31.725,37.139c-1.119,3.168-5.229,2.895-5.471,2.918C26.254,40.057,29.928,38.993,31.725,37.139z"/>
<path fill="#473834" d="M26.998,37.879c-2.676,3.135-2.916,7.541-2.916,7.541S23.375,40.688,26.998,37.879z"/>
<path fill="#FFCC66" d="M57.539,31.723c-1.242-1.667-2.628-2.089-2.628-2.089c0.645,11.379-0.835,15.712-0.835,15.712
	c-3,2.084-8.938,6.639-11.438,7.438c-1.764,0.564-3.797-0.264-4.797,0.706c0.781,0.359,1.094,0.481,1.094,0.481
	c0.968,1.183-3.68,2.916-2.191,4.029c0.573,0.569,2.51,2.371,5.439-0.941c0.232-0.262,1.492-1.316,2.2-1.707
	c2.234-1.234,10.095-4.166,13.47-6.789C58.302,48.215,59,46.984,59,45.92C59,42.239,58.89,33.536,57.539,31.723z"/>
<path fill="#DB9D3A" d="M39.473,56.06c0,0-1.768,1.021-2.729,1.94C38.066,57.121,39.473,56.06,39.473,56.06z"/>
<path fill="#DB9D3A" d="M40.379,56.465c0,0-2.003,1.318-2.886,2.137C38.866,57.809,40.379,56.465,40.379,56.465z"/>
<path fill="#DB9D3A" d="M41.035,57.137c0,0-1.734,1.188-2.723,1.802C39.238,58.73,41.035,57.137,41.035,57.137z"/>
<path fill="#FFCC66" d="M6.461,31.723c1.242-1.667,2.628-2.089,2.628-2.089C8.444,41.013,9.924,45.346,9.924,45.346
	c3,2.084,8.938,6.639,11.438,7.438c1.764,0.564,3.797-0.264,4.797,0.706c-0.781,0.359-1.094,0.481-1.094,0.481
	c-0.968,1.183,3.68,2.916,2.191,4.029c-0.573,0.569-2.51,2.371-5.439-0.941c-0.232-0.262-1.492-1.316-2.2-1.707
	c-2.234-1.234-10.095-4.166-13.47-6.789C5.698,48.215,5,46.984,5,45.92C5,42.239,5.11,33.536,6.461,31.723z"/>
<path fill="#DB9D3A" d="M24.527,56.06c0,0,1.768,1.021,2.729,1.94C25.934,57.121,24.527,56.06,24.527,56.06z"/>
<path fill="#DB9D3A" d="M23.621,56.465c0,0,2.003,1.318,2.886,2.137C25.134,57.809,23.621,56.465,23.621,56.465z"/>
<path fill="#DB9D3A" d="M22.965,57.137c0,0,1.734,1.188,2.723,1.802C24.762,58.73,22.965,57.137,22.965,57.137z"/>
</svg>
