<?xml version="1.0" encoding="utf-8"?>
<!-- Generator: Adobe Illustrator 15.0.0, SVG Export Plug-In . SVG Version: 6.00 Build 0)  -->
<!DOCTYPE svg PUBLIC "-//W3C//DTD SVG 1.1//EN" "http://www.w3.org/Graphics/SVG/1.1/DTD/svg11.dtd" [
	<!ENTITY ns_flows "http://ns.adobe.com/Flows/1.0/">
	<!ENTITY ns_extend "http://ns.adobe.com/Extensibility/1.0/">
	<!ENTITY ns_ai "http://ns.adobe.com/AdobeIllustrator/10.0/">
	<!ENTITY ns_graphs "http://ns.adobe.com/Graphs/1.0/">
]>
<svg version="1.1" id="Layer_1" xmlns:x="&ns_extend;" xmlns:i="&ns_ai;" xmlns:graph="&ns_graphs;"
	 xmlns="http://www.w3.org/2000/svg" xmlns:xlink="http://www.w3.org/1999/xlink" xmlns:a="http://ns.adobe.com/AdobeSVGViewerExtensions/3.0/"
	 x="0px" y="0px" width="64px" height="64px" viewBox="0 0 64 64" enable-background="new 0 0 64 64" xml:space="preserve">
<path fill="#BA9757" d="M39.582,50.742c15.168-6.066,13.65-20.476,13.65-20.476H10.766c0,0-1.516,14.41,13.648,20.476
	c0,0,3.035,0.759,7.584,0.759C36.549,51.501,39.582,50.742,39.582,50.742z"/>
<linearGradient id="SVGID_1_" gradientUnits="userSpaceOnUse" x1="47.166" y1="51.498" x2="47.166" y2="6.1138">
	<stop  offset="0.05" style="stop-color:#BA9757"/>
	<stop  offset="0.1973" style="stop-color:#C6A265"/>
	<stop  offset="0.5085" style="stop-color:#DBB77D"/>
	<stop  offset="0.7" style="stop-color:#E3BE86"/>
	<a:midPointStop  offset="0.05" style="stop-color:#BA9757"/>
	<a:midPointStop  offset="0.4" style="stop-color:#BA9757"/>
	<a:midPointStop  offset="0.7" style="stop-color:#E3BE86"/>
</linearGradient>
<path fill="url(#SVGID_1_)" d="M47.332,31.804c1.553,6.533,0.734,13-7.75,18.938c9.102-1.517,15.168-10.11,15.168-16.705
	L47.332,31.804z"/>
<linearGradient id="SVGID_2_" gradientUnits="userSpaceOnUse" x1="1763.9805" y1="51.498" x2="1763.9805" y2="6.1138" gradientTransform="matrix(-1 0 0 1 1780.8145 0)">
	<stop  offset="0.05" style="stop-color:#BA9757"/>
	<stop  offset="0.1973" style="stop-color:#C6A265"/>
	<stop  offset="0.5085" style="stop-color:#DBB77D"/>
	<stop  offset="0.7" style="stop-color:#E3BE86"/>
	<a:midPointStop  offset="0.05" style="stop-color:#BA9757"/>
	<a:midPointStop  offset="0.4" style="stop-color:#BA9757"/>
	<a:midPointStop  offset="0.7" style="stop-color:#E3BE86"/>
</linearGradient>
<path fill="url(#SVGID_2_)" d="M16.666,31.804c-1.551,6.533-0.732,13,7.752,18.938C15.316,49.226,9.25,40.632,9.25,34.037
	L16.666,31.804z"/>
<path fill="#E6EBEF" d="M12.256,52.752c2.4-1.365,12.363-4.969,12.363-4.969h14.84c0,0,9.955,3.596,12.342,4.965
	C55.271,54.732,56,62,56,62H8C8,62,8.775,54.729,12.256,52.752z"/>
<path fill="#302C3B" d="M47.408,54.889c0-5.018-5.576-10.063-15.232-10.063s-13.826,4.023-14.514,6.503l-1.182-0.135
	c1.354-3.378,6.039-7.379,15.695-7.379s16.023,5.508,16.234,11.081L47.408,54.889z"/>
<path fill="#302C3B" d="M47.912,55c1.93,0,3.5,1.57,3.5,3.501c0,1.934-1.57,3.499-3.5,3.499c-1.934,0-3.5-1.565-3.5-3.499
	C44.412,56.57,45.979,55,47.912,55"/>
<path fill="#CFD8DD" d="M47.912,55.438c1.693,0,3.061,1.369,3.061,3.065c0,1.689-1.367,3.06-3.061,3.06s-3.064-1.37-3.064-3.06
	C44.848,56.808,46.219,55.438,47.912,55.438"/>
<path fill="#99A8AE" d="M47.912,56.751c0.967,0,1.748,0.783,1.748,1.752c0,0.967-0.781,1.748-1.748,1.748
	c-0.969,0-1.752-0.781-1.752-1.748C46.16,57.534,46.943,56.751,47.912,56.751"/>
<rect x="47.611" y="54.896" fill="#B3C2C6" width="0.6" height="2.442"/>
<path fill="#E6EBEF" d="M47.912,57.188c0.727,0,1.313,0.588,1.313,1.313s-0.586,1.312-1.313,1.312c-0.725,0-1.313-0.586-1.313-1.312
	S47.188,57.188,47.912,57.188"/>
<path fill="#018BC9" d="M34.441,62L41,48.602c0,0.001-2.742,5.369-9,5.369s-8.998-5.368-9-5.369L29.561,62H34.441z"/>
<path fill="#0175A8" d="M23,49.422c0,8.123,18,8.123,18,0l-1.543-0.535H24.5L23,49.422z"/>
<path fill="#C99B71" d="M24.5,49.07c0,6.359,15,6.359,15,0c0-2.164,0-7.158,0-7.158h-15C24.5,41.912,24.5,46.906,24.5,49.07z"/>
<path fill="#F5F5F5" d="M38.191,62c0,0,3.299-3.709,5.252-8.248l-2.484-2.519l3.953-0.729c0,0-2.311-3.341-5.412-4.5
	c0,0-1.498,8.889-5.059,15.996H38.191z"/>
<path fill="#F5F5F5" d="M25.811,62c0,0-3.299-3.709-5.252-8.248l2.484-2.519l-3.953-0.729c0,0,2.311-3.341,5.41-4.5
	c0,0,1.5,8.889,5.061,15.996H25.811z"/>
<path fill="#302C3B" d="M21.523,54.957h-1.025c-0.002-1.924-1.613-3.488-3.598-3.488c-1.982-0.002-3.594,1.564-3.596,3.488h-1.025
	c0-2.473,2.072-4.484,4.621-4.484C19.451,50.471,21.523,52.484,21.523,54.957"/>
<path fill="#99A8AE" d="M12.279,54.957l-0.002,5.287c0.002,0.955,0.498,1.656,1.541,1.729c0.662,0.049,0.656-0.951-0.002-0.996
	c-0.686-0.049-0.51-0.852-0.51-1.318l-0.002-4.701C13.307,54.314,12.277,54.314,12.279,54.957"/>
<path fill="#99A8AE" d="M20.498,54.957v4.557c-0.002,0.479,0.205,1.412-0.514,1.463c-0.658,0.045-0.662,1.045,0,0.996
	c0.982-0.068,1.539-0.717,1.539-1.65v-5.365C21.523,54.314,20.498,54.314,20.498,54.957"/>
<path fill="#302C3B" d="M14.512,61.975h-0.75c-0.658,0-0.658-1.098,0-1.098l0.75,0.002C15.172,60.877,15.172,61.975,14.512,61.975z"
	/>
<path fill="#302C3B" d="M20.041,61.975h-0.748c-0.662,0-0.662-1.098-0.002-1.098l0.75,0.002
	C20.699,60.877,20.699,61.975,20.041,61.975z"/>
<path fill="#EBC199" d="M32,8.276c-11.006,0-16.307,8.962-15.645,20.485c0.137,2.315,0.781,5.657,1.576,8.52
	C19.582,43.232,28.291,49.226,32,49.226c3.707,0,12.416-5.993,14.068-11.944c0.795-2.863,1.439-6.205,1.574-8.52
	C48.305,17.238,43.006,8.276,32,8.276z"/>
<path fill="#C98655" d="M31.998,39.87c-2.578-1.134-2.6-0.045-6.58,0.221c1.494,1.698,2.594,3.88,6.578,3.88
	c4.574,0,5.348-2.479,6.586-3.88C34.596,39.825,34.58,38.736,31.998,39.87z"/>
<path fill="#FFFFFF" d="M26.613,40.515c2.6,2.705,8.205,2.669,10.771,0.002C33.383,40.946,30.615,40.946,26.613,40.515z"/>
<path fill="#A17C5B" d="M43.693,24.927c-2.391-1.425-6.68-1.601-8.377-0.629c-0.359,0.196-0.264,1.226,0.049,1.097
	c2.42-1.008,6.107-1.058,8.379,0.108C44.049,25.657,44.057,25.134,43.693,24.927z"/>
<path fill="#A17C5B" d="M20.305,24.927c2.391-1.425,6.678-1.601,8.379-0.629c0.359,0.196,0.264,1.226-0.049,1.097
	c-2.422-1.008-6.105-1.06-8.381,0.108C19.949,25.657,19.943,25.134,20.305,24.927z"/>
<path fill="#C99B71" d="M34.473,36.214c-0.262-0.184-0.877,0.099-2.475,0.099s-2.211-0.282-2.473-0.099
	c-0.314,0.221,0.184,1.217,2.473,1.217S34.789,36.436,34.473,36.214z"/>
<path id="Path_1491_" fill="#FFFFFF" d="M29.551,29.25c0.094,0.727-0.4,1.591-1.77,2.238c-0.869,0.411-2.678,0.896-5.055-0.107
	c-1.066-0.448-2.104-1.847-2.01-2.62C22.004,26.333,28.346,25.977,29.551,29.25z"/>
<linearGradient id="Oval_1_" gradientUnits="userSpaceOnUse" x1="-424.5796" y1="477.4404" x2="-424.5796" y2="478.1992" gradientTransform="matrix(6.5701 0 0 -6.5701 2814.7805 3168.5281)">
	<stop  offset="0" style="stop-color:#A6694A"/>
	<stop  offset="1" style="stop-color:#4F2A1E"/>
	<a:midPointStop  offset="0" style="stop-color:#A6694A"/>
	<a:midPointStop  offset="0.5" style="stop-color:#A6694A"/>
	<a:midPointStop  offset="1" style="stop-color:#4F2A1E"/>
</linearGradient>
<circle id="Oval_228_" fill="url(#Oval_1_)" cx="25.248" cy="29.201" r="2.49"/>
<path id="Path_1490_" fill="#1A1626" d="M24.004,29.156c0,1.723,2.492,1.723,2.492,0C26.496,27.556,24.004,27.556,24.004,29.156z"/>
<path id="Path_1489_" fill="#AB968C" d="M23.625,28.458c0,0.723,1.045,0.723,1.045,0C24.67,27.789,23.625,27.789,23.625,28.458z"/>
<path id="Path_1488_" fill="#45332C" d="M29.563,29.346c-1.012-3.251-7.908-2.771-8.846-0.585
	C21.064,25.962,28.701,25.223,29.563,29.346z"/>
<path id="Path_1487_" fill="#FFFFFF" d="M34.447,29.25c-0.092,0.727,0.402,1.591,1.771,2.238c0.869,0.411,2.678,0.896,5.055-0.107
	c1.066-0.448,2.104-1.847,2.01-2.62C41.996,26.333,35.654,25.977,34.447,29.25z"/>
<linearGradient id="Oval_2_" gradientUnits="userSpaceOnUse" x1="-425.2319" y1="477.4404" x2="-425.2319" y2="478.1992" gradientTransform="matrix(6.5701 0 0 -6.5701 2832.511 3168.5281)">
	<stop  offset="0" style="stop-color:#A6694A"/>
	<stop  offset="1" style="stop-color:#4F2A1E"/>
	<a:midPointStop  offset="0" style="stop-color:#A6694A"/>
	<a:midPointStop  offset="0.5" style="stop-color:#A6694A"/>
	<a:midPointStop  offset="1" style="stop-color:#4F2A1E"/>
</linearGradient>
<circle id="Oval_227_" fill="url(#Oval_2_)" cx="38.693" cy="29.201" r="2.49"/>
<path id="Path_1486_" fill="#1A1626" d="M37.449,29.156c0,1.723,2.492,1.723,2.492,0C39.941,27.556,37.449,27.556,37.449,29.156z"/>
<path id="Path_1485_" fill="#AB968C" d="M37.07,28.458c0,0.723,1.045,0.723,1.045,0C38.115,27.789,37.07,27.789,37.07,28.458z"/>
<path id="Path_1484_" fill="#45332C" d="M34.438,29.346c1.01-3.249,7.902-2.784,8.846-0.585
	C42.934,25.962,35.299,25.223,34.438,29.346z"/>
<linearGradient id="SVGID_3_" gradientUnits="userSpaceOnUse" x1="32.0005" y1="51.4971" x2="32.0005" y2="6.1131">
	<stop  offset="0.05" style="stop-color:#BA9757"/>
	<stop  offset="0.1973" style="stop-color:#C6A265"/>
	<stop  offset="0.5085" style="stop-color:#DBB77D"/>
	<stop  offset="0.7" style="stop-color:#E3BE86"/>
	<a:midPointStop  offset="0.05" style="stop-color:#BA9757"/>
	<a:midPointStop  offset="0.4" style="stop-color:#BA9757"/>
	<a:midPointStop  offset="0.7" style="stop-color:#E3BE86"/>
</linearGradient>
<path fill="url(#SVGID_3_)" d="M44.385,9.884c1.258-1.794-9.387-5.582-19.438-3.023C14.908,9.16,9.25,24.201,9.25,34.037
	c0.898,0.713,6.396-1.064,7.416-2.233c0.416-1.721,1.072-3.492,1.684-5.328c7.539-4.365,16.07-5.393,21.992-10.617
	c-0.76,2.275,3.256,5.145,5.309,10.617c0.666,1.775,1.26,3.554,1.682,5.328c1.674,1.542,5.014,2.268,7.418,2.233
	C54.75,25.717,48.408,8.723,44.385,9.884z"/>
<path fill="#BA9757" d="M11.057,32.542c6.945-9.247,29.439-8.62,33.328-22.657C36.834,21.666,12.955,23.653,11.057,32.542z"/>
</svg>
