<?xml version="1.0" encoding="utf-8"?>
<!-- Generator: Adobe Illustrator 15.0.0, SVG Export Plug-In . SVG Version: 6.00 Build 0)  -->
<!DOCTYPE svg PUBLIC "-//W3C//DTD SVG 1.1//EN" "http://www.w3.org/Graphics/SVG/1.1/DTD/svg11.dtd" [
	<!ENTITY ns_flows "http://ns.adobe.com/Flows/1.0/">
	<!ENTITY ns_extend "http://ns.adobe.com/Extensibility/1.0/">
	<!ENTITY ns_ai "http://ns.adobe.com/AdobeIllustrator/10.0/">
	<!ENTITY ns_graphs "http://ns.adobe.com/Graphs/1.0/">
]>
<svg version="1.1" id="Layer_1" xmlns:x="&ns_extend;" xmlns:i="&ns_ai;" xmlns:graph="&ns_graphs;"
	 xmlns="http://www.w3.org/2000/svg" xmlns:xlink="http://www.w3.org/1999/xlink" xmlns:a="http://ns.adobe.com/AdobeSVGViewerExtensions/3.0/"
	 x="0px" y="0px" width="64px" height="64px" viewBox="0 0 64 64" enable-background="new 0 0 64 64" xml:space="preserve">
<path fill="#018BC9" d="M6.787,52.752c2.701-1.365,13.908-4.969,13.908-4.969h16.695c0,0,11.199,3.596,13.885,4.965
	C55.18,54.732,56,62,56,62H2C2,62,2.871,54.729,6.787,52.752z"/>
<rect x="27.313" y="54.484" fill="#01A0E8" width="3.375" height="7.516"/>
<path fill="#FFFFFF" d="M36.02,51.434c-2.154,0.602-4.537,0.945-7.02,0.945c-2.48,0-4.867-0.344-7.02-0.945L29,60.258L36.02,51.434z
	"/>
<path fill="#69452D" d="M20.002,47.947c0,6.359,18,6.359,18,0c0-2.164,0-7.035,0-7.035h-18
	C20.002,40.912,20.002,45.783,20.002,47.947z"/>
<path fill="#01A0E8" d="M38,47.119c0,2.123-5.986,5.254-9,12.869c-3.016-7.615-9-10.746-9-12.869c0,0-4.178,2.318-2.406,6.389
	c2.072-0.551,5.09,0.104,5.09,0.104c-0.484,0.836-0.871,3.672-0.871,3.672c3.869,0.801,7.188,3.35,7.188,3.35
	s3.318-2.549,7.186-3.35c0,0-0.387-2.836-0.871-3.672c0,0,3.02-0.654,5.09-0.104C42.178,49.438,38,47.119,38,47.119z"/>
<path id="Path_2259_" fill="#916B50" d="M45.439,25.395c-2.545,0.307-4.383,8.814-2.781,11.061c0.225,0.313,1.535,0.814,2.508-1.168
	c0.539-1.098,2.092-2.014,2.574-4.277C48.357,28.109,47.973,25.088,45.439,25.395z"/>
<path id="Path_2258_" fill="#916B50" d="M12.559,25.395c2.545,0.307,4.383,8.814,2.781,11.061c-0.225,0.313-1.535,0.814-2.51-1.168
	c-0.537-1.098-2.092-2.014-2.572-4.277C9.639,28.109,10.025,25.088,12.559,25.395z"/>
<path id="Path_2257_" fill="#69452D" d="M45.371,27.023c-0.664,0.209-1.389,1.221-1.781,2.898c2.32-0.498,1.74,3.361-0.277,3.434
	c0.02,0.389,0.045,0.787,0.094,1.207c0.971-1.408,1.959-0.844,2.938-2.939C47.225,29.734,47.016,26.51,45.371,27.023z"/>
<path id="Path_2256_" fill="#69452D" d="M14.408,29.918c-0.395-1.676-1.117-2.686-1.781-2.895c-1.643-0.514-1.855,2.711-0.973,4.6
	c0.979,2.096,1.967,1.531,2.939,2.939c0.047-0.42,0.074-0.82,0.09-1.209C12.688,33.26,12.115,29.447,14.408,29.918z"/>
<path id="Path_2255_" fill="#916B50" d="M28.998,9.035c-11.027,0-16.34,8.328-15.676,19.908c0.133,2.33,1.582,9.93,2.947,12.656
	c1.398,2.789,6.074,7.09,8.938,7.98c1.811,0.561,5.773,0.561,7.582,0c2.865-0.891,7.543-5.191,8.939-7.98
	c1.369-2.727,2.814-10.324,2.945-12.656C45.342,17.363,40.029,9.035,28.998,9.035z"/>
<path id="Path_2254_" fill="#5E4431" d="M40.98,24.545c-2.521-1.336-7.348-1.4-9.146-0.469c-0.387,0.178-0.131,1.441,0.193,1.322
	c2.504-0.99,6.547-1.012,8.893,0.084C41.232,25.625,41.363,24.73,40.98,24.545z"/>
<path id="Path_2253_" fill="#5E4431" d="M17.018,24.545c2.521-1.336,7.346-1.4,9.146-0.469c0.385,0.178,0.131,1.441-0.193,1.322
	c-2.51-0.99-6.547-1.012-8.895,0.084C16.766,25.625,16.637,24.73,17.018,24.545z"/>
<path id="Path_2252_" fill="#69452D" d="M31.975,36.109c-0.314-0.219-1.053,0.119-2.977,0.119c-1.92,0-2.66-0.338-2.975-0.119
	c-0.377,0.266,0.223,1.461,2.975,1.461C31.752,37.57,32.354,36.375,31.975,36.109z"/>
<path id="Path_2251_" fill="#69452D" d="M28.998,40.646c-2.479-0.729-6.154,0.346-6.154,0.346c1.398,1.521,2.424,3.494,6.154,3.494
	c4.275,0,5.002-2.24,6.156-3.494C35.154,40.992,31.479,39.912,28.998,40.646z"/>
<path id="Path_2250_" fill="#FFFFFF" d="M23.766,41.25c2.602,2.176,7.852,2.191,10.467,0C31.461,41.367,26.557,41.369,23.766,41.25z
	"/>
<path id="Path_2249_" fill="#FFFFFF" d="M26.545,29.086c0.094,0.73-0.402,1.594-1.773,2.242c-0.871,0.412-2.686,0.896-5.066-0.107
	c-1.066-0.449-2.107-1.848-2.014-2.623C18.982,26.168,25.336,25.813,26.545,29.086z"/>
<linearGradient id="Oval_1_" gradientUnits="userSpaceOnUse" x1="-425.0386" y1="477.4648" x2="-425.0386" y2="478.2236" gradientTransform="matrix(6.5701 0 0 -6.5701 2814.7805 3168.5281)">
	<stop  offset="0" style="stop-color:#A6694A"/>
	<stop  offset="1" style="stop-color:#4F2A1E"/>
	<a:midPointStop  offset="0" style="stop-color:#A6694A"/>
	<a:midPointStop  offset="0.5" style="stop-color:#A6694A"/>
	<a:midPointStop  offset="1" style="stop-color:#4F2A1E"/>
</linearGradient>
<circle id="Oval_346_" fill="url(#Oval_1_)" cx="22.234" cy="29.039" r="2.492"/>
<path id="Path_2248_" fill="#1A1626" d="M20.986,28.992c0,1.725,2.496,1.725,2.496,0C23.482,27.393,20.986,27.393,20.986,28.992z"/>
<path id="Path_2247_" fill="#AB968C" d="M20.607,28.293c0,0.723,1.045,0.723,1.045,0C21.652,27.625,20.607,27.625,20.607,28.293z"/>
<path id="Path_2246_" fill="#69452D" d="M26.557,29.182c-1.014-3.25-7.926-2.77-8.865-0.584
	C18.039,25.799,25.693,25.059,26.557,29.182z"/>
<path id="Path_2245_" fill="#FFFFFF" d="M31.453,29.086c-0.094,0.73,0.4,1.594,1.773,2.242c0.871,0.412,2.684,0.896,5.064-0.107
	c1.07-0.449,2.109-1.848,2.016-2.623C39.016,26.168,32.66,25.813,31.453,29.086z"/>
<linearGradient id="Oval_2_" gradientUnits="userSpaceOnUse" x1="-425.6865" y1="477.4648" x2="-425.6865" y2="478.2236" gradientTransform="matrix(6.5701 0 0 -6.5701 2832.511 3168.5281)">
	<stop  offset="0" style="stop-color:#A6694A"/>
	<stop  offset="1" style="stop-color:#4F2A1E"/>
	<a:midPointStop  offset="0" style="stop-color:#A6694A"/>
	<a:midPointStop  offset="0.5" style="stop-color:#A6694A"/>
	<a:midPointStop  offset="1" style="stop-color:#4F2A1E"/>
</linearGradient>
<circle id="Oval_345_" fill="url(#Oval_2_)" cx="35.707" cy="29.039" r="2.492"/>
<path id="Path_2244_" fill="#1A1626" d="M34.461,28.992c0,1.725,2.496,1.725,2.496,0C36.957,27.393,34.461,27.393,34.461,28.992z"/>
<path id="Path_2243_" fill="#AB968C" d="M34.08,28.293c0,0.723,1.047,0.723,1.047,0C35.127,27.625,34.08,27.625,34.08,28.293z"/>
<path id="Path_2242_" fill="#69452D" d="M31.441,29.182c1.012-3.248,7.92-2.783,8.865-0.584
	C39.955,25.799,32.305,25.059,31.441,29.182z"/>
<path fill="#614036" d="M43.084,11.793C40.67,8.533,36.252,6,28.998,6c-7.252,0-11.668,2.533-14.082,5.793
	C11.498,16.41,46.5,16.41,43.084,11.793z"/>
<linearGradient id="SVGID_1_" gradientUnits="userSpaceOnUse" x1="28.9995" y1="31.793" x2="28.9995" y2="10.4121">
	<stop  offset="0.5" style="stop-color:#3B2118"/>
	<stop  offset="0.6722" style="stop-color:#44281F"/>
	<stop  offset="0.9523" style="stop-color:#5C3C32"/>
	<stop  offset="1" style="stop-color:#614036"/>
	<a:midPointStop  offset="0.5" style="stop-color:#3B2118"/>
	<a:midPointStop  offset="0.6" style="stop-color:#3B2118"/>
	<a:midPointStop  offset="1" style="stop-color:#614036"/>
</linearGradient>
<path fill="url(#SVGID_1_)" d="M43.084,11.793c-2.414-3.26-6.832,0.275-14.086,0.275c-7.252,0-11.668-3.535-14.082-0.275
	c-3.418,4.617-2.258,20-0.736,20c0.24,0,0.275-5.381,0.736-9.104c0.373-3.029,1.094-5.969,1.924-6.449
	c2.531-1.467,7.412,0.631,12.158,0.631s9.629-2.098,12.162-0.631c0.828,0.48,1.547,3.42,1.924,6.449
	c0.459,3.723,0.494,9.104,0.734,9.104C45.34,31.793,46.5,16.41,43.084,11.793z"/>
<path fill="#916B50" d="M52.28,46.344c0.277-1.473,3.279,0.238,2.131,2.164c-0.465,0.779-0.371,12.195-0.73,13.178
	c-0.359,0.979-6.051-2.609-5.117-3.359c3.059-2.465,0.633-2.803,2.361-5.719C52.224,50.416,51.905,48.316,52.28,46.344z"/>
<linearGradient id="SVGID_2_" gradientUnits="userSpaceOnUse" x1="294.4629" y1="382.1455" x2="302.3116" y2="374.2968" gradientTransform="matrix(0.7071 0.7071 -0.7071 0.7071 112.4053 -429.776)">
	<stop  offset="0" style="stop-color:#565E61"/>
	<stop  offset="0.3805" style="stop-color:#858D91"/>
	<stop  offset="0.7929" style="stop-color:#B2BABF"/>
	<stop  offset="1" style="stop-color:#C4CCD1"/>
	<a:midPointStop  offset="0" style="stop-color:#565E61"/>
	<a:midPointStop  offset="0.4485" style="stop-color:#565E61"/>
	<a:midPointStop  offset="1" style="stop-color:#C4CCD1"/>
</linearGradient>
<path fill="url(#SVGID_2_)" d="M58.88,62c0,0,0-11.525,0-21.178c0-1.496,2.625-5.17,2.625-5.17l-11.1-0.346
	c0,0,3.127,4.146,3.127,5.516c0,3.604,0,21.178,0,21.178H58.88z"/>
<linearGradient id="SVGID_3_" gradientUnits="userSpaceOnUse" x1="303.4678" y1="405.4902" x2="317.9725" y2="407.2079" gradientTransform="matrix(0 1 -1 0 462.5625 -280.1865)">
	<stop  offset="0" style="stop-color:#565E61"/>
	<stop  offset="0.062" style="stop-color:#5F676A"/>
	<stop  offset="0.5043" style="stop-color:#9AA3A7"/>
	<stop  offset="0.8293" style="stop-color:#BFC8CD"/>
	<stop  offset="1" style="stop-color:#CDD6DB"/>
	<a:midPointStop  offset="0" style="stop-color:#565E61"/>
	<a:midPointStop  offset="0.4364" style="stop-color:#565E61"/>
	<a:midPointStop  offset="1" style="stop-color:#CDD6DB"/>
</linearGradient>
<path fill="url(#SVGID_3_)" d="M61.063,36.209c2.463-2.295-0.461-10.32-2.688-10.207c0,0,0.309,4.568,0.23,6.174
	c-0.078,1.666-5.424,1.809-5.527,0.141c-0.074-1.238-0.195-5.936-0.195-5.936c-2.381-0.373-3.938,6.984-2.479,8.926
	C53.386,39.279,59.104,38.037,61.063,36.209z"/>
<linearGradient id="SVGID_4_" gradientUnits="userSpaceOnUse" x1="329.1836" y1="212.3975" x2="329.1836" y2="208.9443" gradientTransform="matrix(0 1 -1 0 266.8809 -277.6318)">
	<stop  offset="0" style="stop-color:#C4CCD1"/>
	<stop  offset="0.1531" style="stop-color:#BDC5CA"/>
	<stop  offset="0.3839" style="stop-color:#A8B0B5"/>
	<stop  offset="0.6636" style="stop-color:#878F93"/>
	<stop  offset="0.9792" style="stop-color:#596164"/>
	<stop  offset="1" style="stop-color:#565E61"/>
	<a:midPointStop  offset="0" style="stop-color:#C4CCD1"/>
	<a:midPointStop  offset="0.6182" style="stop-color:#C4CCD1"/>
	<a:midPointStop  offset="1" style="stop-color:#565E61"/>
</linearGradient>
<path fill="url(#SVGID_4_)" d="M54.483,57.777V45.324c-0.025-2.861,3.428-2.863,3.453,0v12.453
	C57.966,60.643,54.513,60.641,54.483,57.777z"/>
<path fill="#916B50" d="M60.085,51.379c1.057,1.291,0.219,2.422,0.219,2.422c0.783,1.305-0.037,2.645-0.037,2.645
	c0.586,3.207-6.795,3.48-4.918,0.842c-1.957-0.059-2.189-2.092-0.148-2.336c-2.262,0.035-1.574-2.406-0.219-2.482
	c0.51-0.027,1.047-0.18,1.633-0.203c-2.299,0-1.613-2.221-0.42-2.545c1.326-0.359,2.717-0.436,3.178-0.279
	C60.282,49.75,60.267,50.971,60.085,51.379z"/>
<path fill="#69452D" d="M55.116,50.949c-0.436,2.16,3.289,1.201,3.871,0.82C56.542,52.441,55.038,51.793,55.116,50.949z"/>
<path fill="#69452D" d="M55.058,57.914c-0.436,2.16,3.199,1.141,3.781,0.758C56.394,59.346,54.981,58.758,55.058,57.914z"/>
<path fill="#69452D" d="M53.753,53.635c-0.438,2.16,3.4,1.459,5.271,0.553C55.356,55.395,53.675,54.479,53.753,53.635z"/>
<path fill="#69452D" d="M53.778,56.031c-0.438,2.16,3.484,1.531,5.357,0.625C55.468,57.865,53.7,56.877,53.778,56.031z"/>
</svg>
