<?xml version="1.0" encoding="utf-8"?>
<!-- Generator: Adobe Illustrator 15.0.0, SVG Export Plug-In . SVG Version: 6.00 Build 0)  -->
<!DOCTYPE svg PUBLIC "-//W3C//DTD SVG 1.1//EN" "http://www.w3.org/Graphics/SVG/1.1/DTD/svg11.dtd" [
	<!ENTITY ns_flows "http://ns.adobe.com/Flows/1.0/">
	<!ENTITY ns_extend "http://ns.adobe.com/Extensibility/1.0/">
	<!ENTITY ns_ai "http://ns.adobe.com/AdobeIllustrator/10.0/">
	<!ENTITY ns_graphs "http://ns.adobe.com/Graphs/1.0/">
]>
<svg version="1.1" id="Layer_1" xmlns:x="&ns_extend;" xmlns:i="&ns_ai;" xmlns:graph="&ns_graphs;"
	 xmlns="http://www.w3.org/2000/svg" xmlns:xlink="http://www.w3.org/1999/xlink" xmlns:a="http://ns.adobe.com/AdobeSVGViewerExtensions/3.0/"
	 x="0px" y="0px" width="64px" height="64px" viewBox="0 0 64 64" enable-background="new 0 0 64 64" xml:space="preserve">
<path fill="#1E110E" d="M39.58,50.742c15.168-6.066,13.651-20.475,13.651-20.475H10.765c0,0-1.517,14.409,13.648,20.475
	c0,0,3.035,0.76,7.583,0.76C36.548,51.502,39.58,50.742,39.58,50.742z"/>
<linearGradient id="SVGID_1_" gradientUnits="userSpaceOnUse" x1="47.1641" y1="51.498" x2="47.1641" y2="6.1138">
	<stop  offset="0.05" style="stop-color:#1E110E"/>
	<stop  offset="0.2334" style="stop-color:#31211E"/>
	<stop  offset="0.5223" style="stop-color:#493632"/>
	<stop  offset="0.7" style="stop-color:#523E3A"/>
	<a:midPointStop  offset="0.05" style="stop-color:#1E110E"/>
	<a:midPointStop  offset="0.4" style="stop-color:#1E110E"/>
	<a:midPointStop  offset="0.7" style="stop-color:#523E3A"/>
</linearGradient>
<path fill="url(#SVGID_1_)" d="M47.331,31.804c1.552,6.534,0.733,13-7.751,18.938c9.102-1.516,15.168-10.109,15.168-16.703
	L47.331,31.804z"/>
<linearGradient id="SVGID_2_" gradientUnits="userSpaceOnUse" x1="1763.9824" y1="51.498" x2="1763.9824" y2="6.1138" gradientTransform="matrix(-1 0 0 1 1780.8145 0)">
	<stop  offset="0.05" style="stop-color:#1E110E"/>
	<stop  offset="0.2334" style="stop-color:#31211E"/>
	<stop  offset="0.5223" style="stop-color:#493632"/>
	<stop  offset="0.7" style="stop-color:#523E3A"/>
	<a:midPointStop  offset="0.05" style="stop-color:#1E110E"/>
	<a:midPointStop  offset="0.4" style="stop-color:#1E110E"/>
	<a:midPointStop  offset="0.7" style="stop-color:#523E3A"/>
</linearGradient>
<path fill="url(#SVGID_2_)" d="M16.665,31.804c-1.552,6.534-0.733,13,7.751,18.938C15.314,49.227,9.248,40.633,9.248,34.039
	L16.665,31.804z"/>
<path fill="#FFD8B4" d="M12.254,52.754c2.4-1.365,12.363-4.969,12.363-4.969h14.84c0,0,9.955,3.596,12.342,4.965
	c3.471,1.984,4.199,9.252,4.199,9.252h-48C7.998,62.002,8.773,54.73,12.254,52.754z"/>
<path fill="#FFD8B4" d="M24.498,49.949c0,0,2.361,2.832,7.5,2.832c5.141,0,7.5-2.832,7.5-2.832v-8.035h-15V49.949z"/>
<path fill="#DEB38A" d="M21.51,39.281c1.23,5.951,7.723,11.945,10.488,11.945c2.764,0,9.256-5.994,10.488-11.945
	C43.078,36.42,20.918,36.42,21.51,39.281z"/>
<path fill="#FFD8B4" d="M31.998,8.277c-11.005,0-16.306,8.961-15.644,20.484c0.136,2.316,0.78,5.659,1.575,8.52
	c1.65,5.951,10.359,11.945,14.068,11.945c3.707,0,12.416-5.994,14.068-11.945c0.795-2.861,1.439-6.204,1.575-8.52
	C48.303,17.238,43.005,8.277,31.998,8.277z"/>
<path fill="#E85159" d="M31.996,39.871c-2.578-1.135-2.599-0.045-6.58,0.221c1.494,1.697,2.595,3.879,6.579,3.879
	c4.574,0,5.347-2.479,6.585-3.879C34.595,39.826,34.578,38.736,31.996,39.871z"/>
<path fill="#FFFFFF" d="M26.611,40.516c2.6,2.705,8.205,2.668,10.772,0.002C33.382,40.947,30.614,40.947,26.611,40.516z"/>
<path fill="#A88868" d="M43.691,24.927c-2.391-1.424-6.68-1.6-8.376-0.629c-0.359,0.197-0.264,1.227,0.048,1.098
	c2.42-1.008,6.108-1.059,8.38,0.107C44.047,25.658,44.055,25.134,43.691,24.927z"/>
<path fill="#A88868" d="M20.303,24.927c2.391-1.424,6.679-1.6,8.379-0.629c0.36,0.197,0.264,1.227-0.049,1.098
	c-2.422-1.008-6.105-1.061-8.38,0.107C19.947,25.658,19.941,25.134,20.303,24.927z"/>
<path fill="#DEB38A" d="M34.472,36.215c-0.263-0.184-0.877,0.098-2.476,0.098c-1.597,0-2.211-0.281-2.473-0.098
	c-0.314,0.221,0.185,1.217,2.473,1.217C34.285,37.432,34.787,36.436,34.472,36.215z"/>
<path id="Path_786_" fill="#FFFFFF" d="M29.55,29.251c0.093,0.727-0.401,1.59-1.771,2.238c-0.869,0.41-2.678,0.895-5.055-0.107
	c-1.065-0.449-2.104-1.848-2.01-2.621C22.003,26.333,28.344,25.978,29.55,29.251z"/>
<linearGradient id="Oval_1_" gradientUnits="userSpaceOnUse" x1="-424.5796" y1="477.4404" x2="-424.5796" y2="478.1992" gradientTransform="matrix(6.5701 0 0 -6.5701 2814.7805 3168.5281)">
	<stop  offset="0" style="stop-color:#A6694A"/>
	<stop  offset="1" style="stop-color:#4F2A1E"/>
	<a:midPointStop  offset="0" style="stop-color:#A6694A"/>
	<a:midPointStop  offset="0.5" style="stop-color:#A6694A"/>
	<a:midPointStop  offset="1" style="stop-color:#4F2A1E"/>
</linearGradient>
<circle id="Oval_121_" fill="url(#Oval_1_)" cx="25.247" cy="29.201" r="2.49"/>
<path id="Path_785_" fill="#1A1626" d="M24.003,29.156c0,1.723,2.491,1.723,2.491,0C26.494,27.556,24.003,27.556,24.003,29.156z"/>
<path id="Path_784_" fill="#AB968C" d="M23.624,28.458c0,0.723,1.044,0.723,1.044,0C24.668,27.789,23.624,27.789,23.624,28.458z"/>
<path id="Path_783_" fill="#45332C" d="M29.562,29.347c-1.012-3.252-7.908-2.771-8.847-0.586
	C21.063,25.962,28.699,25.224,29.562,29.347z"/>
<path id="Path_782_" fill="#FFFFFF" d="M34.446,29.251c-0.093,0.727,0.401,1.59,1.771,2.238c0.869,0.41,2.678,0.895,5.055-0.107
	c1.066-0.449,2.104-1.848,2.01-2.621C41.994,26.333,35.652,25.978,34.446,29.251z"/>
<linearGradient id="Oval_2_" gradientUnits="userSpaceOnUse" x1="-425.2319" y1="477.4404" x2="-425.2319" y2="478.1992" gradientTransform="matrix(6.5701 0 0 -6.5701 2832.511 3168.5281)">
	<stop  offset="0" style="stop-color:#A6694A"/>
	<stop  offset="1" style="stop-color:#4F2A1E"/>
	<a:midPointStop  offset="0" style="stop-color:#A6694A"/>
	<a:midPointStop  offset="0.5" style="stop-color:#A6694A"/>
	<a:midPointStop  offset="1" style="stop-color:#4F2A1E"/>
</linearGradient>
<circle id="Oval_120_" fill="url(#Oval_2_)" cx="38.692" cy="29.201" r="2.49"/>
<path id="Path_781_" fill="#1A1626" d="M37.448,29.156c0,1.723,2.492,1.723,2.492,0C39.94,27.556,37.448,27.556,37.448,29.156z"/>
<path id="Path_780_" fill="#AB968C" d="M37.069,28.458c0,0.723,1.044,0.723,1.044,0C38.113,27.789,37.069,27.789,37.069,28.458z"/>
<path id="Path_779_" fill="#45332C" d="M34.436,29.347c1.011-3.25,7.902-2.785,8.846-0.586
	C42.932,25.962,35.297,25.224,34.436,29.347z"/>
<linearGradient id="SVGID_3_" gradientUnits="userSpaceOnUse" x1="31.9985" y1="51.501" x2="31.9985" y2="6.1139">
	<stop  offset="0.05" style="stop-color:#1E110E"/>
	<stop  offset="0.2334" style="stop-color:#31211E"/>
	<stop  offset="0.5223" style="stop-color:#493632"/>
	<stop  offset="0.7" style="stop-color:#523E3A"/>
	<a:midPointStop  offset="0.05" style="stop-color:#1E110E"/>
	<a:midPointStop  offset="0.4" style="stop-color:#1E110E"/>
	<a:midPointStop  offset="0.7" style="stop-color:#523E3A"/>
</linearGradient>
<path fill="url(#SVGID_3_)" d="M44.384,9.884c1.257-1.793-9.388-5.582-19.438-3.023C14.907,9.16,9.248,24.201,9.248,34.039
	c0.898,0.713,6.396-1.065,7.417-2.235c0.416-1.721,1.071-3.492,1.683-5.328c7.539-4.365,16.07-5.393,21.992-10.617
	c-0.759,2.275,3.256,5.145,5.309,10.617c0.666,1.775,1.261,3.555,1.683,5.328c1.674,1.542,5.014,2.268,7.417,2.235
	C54.748,25.718,48.407,8.724,44.384,9.884z"/>
<path fill="#1E110E" d="M11.056,32.542C18,23.294,40.494,23.921,44.384,9.884C36.832,21.666,12.953,23.654,11.056,32.542z"/>
<path fill="#DEB38A" d="M33.687,57.877c-0.949,0.525-1.688,1.717-1.688,1.717s-0.738-1.191-1.688-1.717
	c1.686,2.684,1.278,3.889,1.278,3.889h0.816C32.406,61.766,31.997,60.391,33.687,57.877z"/>
<path fill="#45332C" d="M21.662,26.644c-0.125,0.313-0.094,0.547-0.094,0.547s-0.406,0.156-0.938-0.25
	c-0.074,0.451,0.078,0.813,0.078,0.813s-0.375,0.203-0.9-0.172c0.104,1.031,0.906,1.18,0.906,1.18s-0.046-0.906,1.835-1.76
	C22.55,27.001,22.006,27.035,21.662,26.644z"/>
<path fill="#45332C" d="M42.335,26.644c0.125,0.313,0.094,0.547,0.094,0.547s0.406,0.156,0.938-0.25
	c0.074,0.451-0.078,0.813-0.078,0.813s0.375,0.203,0.9-0.172c-0.104,1.031-0.906,1.18-0.906,1.18s0.046-0.906-1.835-1.76
	C41.447,27.001,41.991,27.035,42.335,26.644z"/>
<path fill="#F5F5F5" d="M29.917,16.658L29.917,16.658c-1.146,0-2.378-0.789-2.378-2.52c0-2.039,1.499-3.207,2.705-4.143
	c0.68-0.533,1.324-1.035,1.324-1.461c0-0.238,0.192-0.426,0.428-0.426c0.24,0,0.432,0.188,0.432,0.426
	c0,0.426,0.645,0.928,1.326,1.461c1.203,0.936,2.703,2.104,2.703,4.143c0,1.732-1.232,2.52-2.378,2.52
	c-0.784,0-1.598-0.371-2.079-1.078c-0.118,0.172-0.246,0.313-0.367,0.422C31.177,16.417,30.554,16.658,29.917,16.658z
	 M32.428,14.101c0,1.117,0.829,1.705,1.651,1.705c0.699,0,1.519-0.438,1.519-1.668c0-1.623-1.259-2.605-2.373-3.471
	c-0.479-0.373-0.921-0.721-1.229-1.088c-0.304,0.367-0.745,0.715-1.225,1.088c-1.112,0.865-2.373,1.848-2.373,3.471
	c0,1.23,0.819,1.668,1.519,1.668l0,0c0.423,0,0.837-0.158,1.136-0.432c0.338-0.309,0.516-0.75,0.516-1.273
	c0-0.236,0.192-0.428,0.428-0.428C32.236,13.673,32.428,13.865,32.428,14.101z"/>
<path fill="#F5F5F5" d="M49.774,18.619c0.661,0.26-0.289,1.719-0.952,1.457c-7.691-3.035-25.985-3.023-33.648,0
	c-0.663,0.262-1.613-1.197-0.952-1.457C22.823,15.224,41.173,15.224,49.774,18.619z"/>
<path fill="#F5F5F5" d="M31.091,9.029c0,0.92-1.468,0.92-1.468,0C29.623,8.105,31.091,8.105,31.091,9.029z"/>
<path fill="#F5F5F5" d="M17.132,18.236c-1.798-1.621-0.315-3.568,2.088-3.768l0.121,0.834c-2.027,0.17-2.712,1.369-1.626,2.336
	L17.132,18.236z"/>
<path fill="#F5F5F5" d="M26.814,17.333c-3.636-3.814-3.48-6.221-3.068-7.314c0.411-1.076,1.398-1.785,2.645-1.898
	c1.63-0.143,3.294,0.768,4.237,2.328l-0.737,0.438c-0.773-1.277-2.117-2.031-3.426-1.912c-0.921,0.082-1.618,0.574-1.914,1.348
	c-0.587,1.543,0.464,3.885,2.887,6.424L26.814,17.333z"/>
<path fill="#F5F5F5" d="M19.904,17.527c-1.406-1.787-1.066-3.191-0.738-3.869c0.515-1.066,1.651-1.758,2.902-1.773
	c0.01,0,0.023,0,0.035,0c1.337,0,2.491,0.766,3.171,2.102l-0.764,0.385c-0.535-1.047-1.42-1.639-2.435-1.633
	c-0.927,0.012-1.762,0.516-2.136,1.287c-0.417,0.863-0.189,1.92,0.638,2.975L19.904,17.527z"/>
<path fill="#F5F5F5" d="M19.044,13.998c0,0.92-1.467,0.92-1.467,0C17.577,13.074,19.044,13.074,19.044,13.998z"/>
<path fill="#F5F5F5" d="M23.646,11.341c0,0.92-1.467,0.92-1.467,0C22.18,10.417,23.646,10.417,23.646,11.341z"/>
<path fill="#F5F5F5" d="M32.905,9.029c0,0.92,1.468,0.92,1.468,0C34.373,8.105,32.905,8.105,32.905,9.029z"/>
<path fill="#F5F5F5" d="M46.866,18.236c1.798-1.621,0.315-3.568-2.09-3.768l-0.119,0.834c2.025,0.17,2.712,1.369,1.626,2.336
	L46.866,18.236z"/>
<path fill="#F5F5F5" d="M37.182,17.333c3.636-3.814,3.48-6.221,3.068-7.314c-0.411-1.076-1.398-1.785-2.645-1.898
	c-1.63-0.143-3.294,0.768-4.237,2.328l0.737,0.438c0.773-1.277,2.117-2.031,3.426-1.912c0.921,0.082,1.618,0.574,1.914,1.348
	c0.587,1.543-0.464,3.885-2.887,6.424L37.182,17.333z"/>
<path fill="#F5F5F5" d="M44.092,17.527c1.406-1.787,1.066-3.191,0.737-3.869c-0.514-1.066-1.65-1.758-2.901-1.773
	c-0.01,0-0.023,0-0.035,0c-1.337,0-2.491,0.766-3.171,2.102l0.764,0.385c0.535-1.047,1.42-1.639,2.435-1.633
	c0.927,0.012,1.762,0.516,2.136,1.287c0.417,0.863,0.189,1.92-0.638,2.975L44.092,17.527z"/>
<path fill="#F5F5F5" d="M44.952,13.998c0,0.92,1.467,0.92,1.467,0C46.419,13.074,44.952,13.074,44.952,13.998z"/>
<path fill="#F5F5F5" d="M40.35,11.341c0,0.92,1.467,0.92,1.467,0C41.816,10.417,40.35,10.417,40.35,11.341z"/>
<path fill="#1CCAFF" d="M33.75,12.597c0,3.668-3.502,3.668-3.502,0S33.75,8.929,33.75,12.597z"/>
<path fill="#00B9F2" d="M33.167,10.501c0.167,0.41,0.271,0.914,0.271,1.535c0,2.721-1.924,3.416-2.919,2.102
	c0.817,2.02,3.23,1.514,3.23-1.535C33.75,11.658,33.513,10.958,33.167,10.501z"/>
<path fill-rule="evenodd" clip-rule="evenodd" fill="#73EFFF" d="M30.718,11.726c0.048,0.496,0.695-0.473,1.354-1.307
	C32.497,9.882,30.567,10.238,30.718,11.726z"/>
<path fill="#1CCAFF" d="M23.345,14.156c1.632,2.662-0.911,4.045-2.541,1.383S21.715,11.494,23.345,14.156z"/>
<path fill="#00B9F2" d="M21.992,12.863c0.302,0.232,0.604,0.559,0.879,1.006c1.209,1.977,0.122,3.244-1.185,2.682
	c1.49,1.143,3.017-0.178,1.662-2.391C22.927,13.472,22.447,13.06,21.992,12.863z"/>
<path fill-rule="evenodd" clip-rule="evenodd" fill="#73EFFF" d="M20.758,14.722c0.256,0.34,0.295-0.619,0.403-1.484
	C21.229,12.681,19.986,13.701,20.758,14.722z"/>
<path fill="#1CCAFF" d="M43.194,15.537c-1.632,2.664-4.175,1.281-2.543-1.383C42.281,11.492,44.824,12.876,43.194,15.537z"/>
<path fill="#00B9F2" d="M43.702,13.787c-0.061,0.363-0.21,0.771-0.485,1.221c-1.209,1.975-2.915,1.721-3.053,0.373
	c-0.306,1.789,1.672,2.375,3.026,0.162C43.61,14.855,43.75,14.257,43.702,13.787z"/>
<path fill-rule="evenodd" clip-rule="evenodd" fill="#73EFFF" d="M41.379,13.708c-0.186,0.379,0.715-0.068,1.564-0.412
	C43.49,13.074,41.932,12.568,41.379,13.708z"/>
<path fill="#018BC9" d="M50.929,54.014c-6.011,3.457-18.928,7.188-18.928,7.188s-12.918-3.729-18.93-7.188
	c-1.918-1.104-3.805,7.988-3.805,7.988h45.467C54.733,62.002,52.847,52.91,50.929,54.014z"/>
<path fill="#75D6FF" d="M15.426,55.654c-1.357,9.42-16.125,5.379-11.438-0.047c-0.228-2.826,3.257-2.068,4.21-3.912
	c1.285-2.486,3.111-2.297,7.113-0.342C10.448,52.945,15.685,53.859,15.426,55.654z"/>
<path fill="#54BFED" d="M3.774,55.871c-0.501,2.063,0.224,4.699,4.018,4.699c1.91,0,5.085-0.035,6.955-2.67
	c-1.424,3.826-3.595,4.102-3.595,4.102s-5.098,0-6.204,0C2.479,62.002,1.839,57.992,3.774,55.871z"/>
<path fill="#54BFED" d="M15.065,54.693c-5.273-2.092-4.343-5.311,0.246-3.34C11.917,52.824,14.104,53.258,15.065,54.693z"/>
<path fill="#54BFED" d="M14.104,56.77c-4.853,1.301-9.047,0.535-10.116-1.162C4.12,59.695,12.474,58.314,14.104,56.77z"/>
<path fill="#54BFED" d="M14.595,55.58c-5.901,0.291-7.1-1.869-6.396-3.885C5.761,54.555,8.693,56.77,14.595,55.58z"/>
<path fill="#75D6FF" d="M48.574,55.654c1.357,9.42,16.125,5.379,11.438-0.047c0.228-2.826-3.257-2.068-4.21-3.912
	c-1.285-2.486-3.111-2.297-7.113-0.342C53.552,52.945,48.315,53.859,48.574,55.654z"/>
<path fill="#54BFED" d="M60.226,55.871c0.501,2.063-0.224,4.699-4.018,4.699c-1.91,0-5.085-0.035-6.955-2.67
	c1.424,3.826,3.595,4.102,3.595,4.102s5.098,0,6.204,0C61.521,62.002,62.161,57.992,60.226,55.871z"/>
<path fill="#54BFED" d="M48.935,54.693c5.273-2.092,4.343-5.311-0.246-3.34C52.083,52.824,49.896,53.258,48.935,54.693z"/>
<path fill="#54BFED" d="M49.896,56.77c4.853,1.301,9.047,0.535,10.116-1.162C59.88,59.695,51.526,58.314,49.896,56.77z"/>
<path fill="#54BFED" d="M49.405,55.58c5.901,0.291,7.1-1.869,6.396-3.885C58.239,54.555,55.307,56.77,49.405,55.58z"/>
</svg>
