<?xml version="1.0" encoding="utf-8"?>
<!-- Generator: Adobe Illustrator 15.0.0, SVG Export Plug-In . SVG Version: 6.00 Build 0)  -->
<!DOCTYPE svg PUBLIC "-//W3C//DTD SVG 1.1//EN" "http://www.w3.org/Graphics/SVG/1.1/DTD/svg11.dtd" [
	<!ENTITY ns_flows "http://ns.adobe.com/Flows/1.0/">
	<!ENTITY ns_extend "http://ns.adobe.com/Extensibility/1.0/">
	<!ENTITY ns_ai "http://ns.adobe.com/AdobeIllustrator/10.0/">
	<!ENTITY ns_graphs "http://ns.adobe.com/Graphs/1.0/">
]>
<svg version="1.1" id="Layer_1" xmlns:x="&ns_extend;" xmlns:i="&ns_ai;" xmlns:graph="&ns_graphs;"
	 xmlns="http://www.w3.org/2000/svg" xmlns:xlink="http://www.w3.org/1999/xlink" xmlns:a="http://ns.adobe.com/AdobeSVGViewerExtensions/3.0/"
	 x="0px" y="0px" width="64px" height="64px" viewBox="0 0 64 64" enable-background="new 0 0 64 64" xml:space="preserve">
<path fill="#E6EBEF" d="M11.432,52.752c2.502-1.365,12.879-4.969,12.879-4.969H39.77c0,0,10.369,3.596,12.855,4.965
	C56.24,54.732,57,62,57,62H7C7,62,7.807,54.729,11.432,52.752z"/>
<path fill="#302116" d="M24,49.947c0,0,2.566,2.832,8,2.832s8-2.832,8-2.832v-8.035H24V49.947z"/>
<path fill="#CFD8DD" d="M32,52.779c2.471,0.908,3.938,1.859,2.955,9.221h1.137C37.094,55.17,35.096,53.125,32,52.779z"/>
<path fill="#B3C2C6" d="M32.488,54.527c0.551,0,1,0.447,1,1s-0.449,1-1,1c-0.555,0-1-0.447-1-1S31.934,54.527,32.488,54.527"/>
<path id="Path_1870_" fill="#614A36" d="M48.441,25.392c-2.547,0.309-4.383,8.817-2.783,11.062c0.225,0.314,1.535,0.813,2.508-1.168
	c0.539-1.097,2.094-2.013,2.574-4.277C51.357,28.11,50.975,25.085,48.441,25.392z"/>
<path id="Path_1869_" fill="#614A36" d="M15.557,25.392c2.547,0.309,4.385,8.817,2.783,11.062c-0.225,0.314-1.537,0.813-2.508-1.168
	c-0.539-1.097-2.094-2.013-2.574-4.277C12.641,28.11,13.025,25.085,15.557,25.392z"/>
<path id="Path_1868_" fill="#302116" d="M48.371,27.024c-0.664,0.208-1.389,1.219-1.781,2.896c2.322-0.498,1.742,3.362-0.275,3.435
	c0.018,0.388,0.045,0.788,0.092,1.208c0.973-1.41,1.959-0.844,2.938-2.941C50.225,29.732,50.016,26.508,48.371,27.024z"/>
<path id="Path_1867_" fill="#302116" d="M17.408,29.916c-0.395-1.674-1.117-2.685-1.781-2.892c-1.645-0.516-1.855,2.708-0.975,4.599
	c0.979,2.097,1.967,1.531,2.939,2.941c0.049-0.422,0.074-0.821,0.092-1.21C15.686,33.259,15.115,29.446,17.408,29.916z"/>
<path fill="#614A36" d="M31.998,9.035C20.969,9.035,15.656,18,16.32,29.528c0.137,2.317,0.783,5.661,1.58,8.525
	c1.654,5.953,10.381,11.948,14.098,11.948s12.443-5.995,14.1-11.948c0.797-2.864,1.441-6.208,1.578-8.525
	C48.34,18,43.029,9.035,31.998,9.035z"/>
<path id="Path_1866_" fill="#403229" d="M43.98,24.543c-2.521-1.334-7.35-1.399-9.146-0.47c-0.387,0.179-0.131,1.443,0.193,1.323
	c2.504-0.99,6.547-1.013,8.893,0.084C44.232,25.624,44.363,24.728,43.98,24.543z"/>
<path id="Path_1865_" fill="#403229" d="M20.018,24.543c2.521-1.334,7.346-1.399,9.146-0.47c0.383,0.179,0.131,1.443-0.193,1.323
	c-2.51-0.99-6.547-1.013-8.895,0.084C19.764,25.624,19.635,24.728,20.018,24.543z"/>
<path id="Path_1864_" fill="#302116" d="M34.975,36.108c-0.314-0.219-1.053,0.119-2.977,0.119c-1.92,0-2.66-0.338-2.977-0.119
	c-0.375,0.266,0.225,1.463,2.977,1.463C34.752,37.571,35.354,36.374,34.975,36.108z"/>
<path id="Path_1863_" fill="#302116" d="M31.998,40.646c-2.48-0.728-6.156,0.346-6.156,0.346c1.4,1.522,2.426,3.496,6.156,3.496
	c4.273,0,5.002-2.241,6.158-3.496C38.156,40.991,34.479,39.914,31.998,40.646z"/>
<path id="Path_1862_" fill="#FFFFFF" d="M26.766,41.249c2.602,2.178,7.852,2.192,10.467,0
	C34.461,41.367,29.557,41.368,26.766,41.249z"/>
<path id="Path_1861_" fill="#FFFFFF" d="M29.545,29.085c0.094,0.729-0.402,1.594-1.773,2.241c-0.873,0.411-2.684,0.896-5.066-0.107
	c-1.066-0.448-2.107-1.849-2.014-2.622C21.982,26.167,28.336,25.811,29.545,29.085z"/>
<linearGradient id="Oval_1_" gradientUnits="userSpaceOnUse" x1="-424.582" y1="477.4658" x2="-424.582" y2="478.2246" gradientTransform="matrix(6.5701 0 0 -6.5701 2814.7805 3168.5281)">
	<stop  offset="0" style="stop-color:#A6694A"/>
	<stop  offset="1" style="stop-color:#4F2A1E"/>
	<a:midPointStop  offset="0" style="stop-color:#A6694A"/>
	<a:midPointStop  offset="0.5" style="stop-color:#A6694A"/>
	<a:midPointStop  offset="1" style="stop-color:#4F2A1E"/>
</linearGradient>
<ellipse id="Oval_238_" fill="url(#Oval_1_)" cx="25.232" cy="29.037" rx="2.498" ry="2.492"/>
<path id="Path_1860_" fill="#1A1626" d="M23.986,28.991c0,1.725,2.496,1.725,2.496,0C26.482,27.391,23.986,27.391,23.986,28.991z"/>
<path id="Path_1859_" fill="#AB968C" d="M23.605,28.293c0,0.723,1.047,0.723,1.047,0C24.652,27.624,23.605,27.624,23.605,28.293z"/>
<path id="Path_1858_" fill="#302116" d="M29.557,29.182c-1.014-3.252-7.924-2.772-8.865-0.585
	C21.039,25.796,28.693,25.057,29.557,29.182z"/>
<path id="Path_1857_" fill="#FFFFFF" d="M34.453,29.085c-0.096,0.729,0.4,1.594,1.773,2.241c0.871,0.411,2.684,0.896,5.064-0.107
	c1.07-0.448,2.109-1.849,2.016-2.622C42.018,26.167,35.66,25.811,34.453,29.085z"/>
<linearGradient id="Oval_2_" gradientUnits="userSpaceOnUse" x1="-425.23" y1="477.4658" x2="-425.23" y2="478.2246" gradientTransform="matrix(6.5701 0 0 -6.5701 2832.511 3168.5281)">
	<stop  offset="0" style="stop-color:#A6694A"/>
	<stop  offset="1" style="stop-color:#4F2A1E"/>
	<a:midPointStop  offset="0" style="stop-color:#A6694A"/>
	<a:midPointStop  offset="0.5" style="stop-color:#A6694A"/>
	<a:midPointStop  offset="1" style="stop-color:#4F2A1E"/>
</linearGradient>
<circle id="Oval_237_" fill="url(#Oval_2_)" cx="38.709" cy="29.037" r="2.492"/>
<path id="Path_1856_" fill="#1A1626" d="M37.461,28.991c0,1.725,2.496,1.725,2.496,0C39.957,27.391,37.461,27.391,37.461,28.991z"/>
<path id="Path_1855_" fill="#AB968C" d="M37.082,28.293c0,0.723,1.045,0.723,1.045,0C38.127,27.624,37.082,27.624,37.082,28.293z"/>
<path id="Path_1854_" fill="#302116" d="M34.441,29.182c1.012-3.251,7.92-2.785,8.865-0.585
	C42.957,25.796,35.305,25.057,34.441,29.182z"/>
<linearGradient id="SVGID_1_" gradientUnits="userSpaceOnUse" x1="10.9209" y1="16.8916" x2="53.5977" y2="16.8916">
	<stop  offset="0" style="stop-color:#DADEE6"/>
	<stop  offset="0.1035" style="stop-color:#E3E7EF"/>
	<stop  offset="0.3051" style="stop-color:#EEF4FB"/>
	<stop  offset="0.5" style="stop-color:#F2F8FF"/>
	<stop  offset="0.6949" style="stop-color:#EEF4FB"/>
	<stop  offset="0.8965" style="stop-color:#E3E7EF"/>
	<stop  offset="1" style="stop-color:#DADEE6"/>
	<a:midPointStop  offset="0" style="stop-color:#DADEE6"/>
	<a:midPointStop  offset="0.3" style="stop-color:#DADEE6"/>
	<a:midPointStop  offset="0.5" style="stop-color:#F2F8FF"/>
	<a:midPointStop  offset="0.7" style="stop-color:#F2F8FF"/>
	<a:midPointStop  offset="1" style="stop-color:#DADEE6"/>
</linearGradient>
<path fill="url(#SVGID_1_)" d="M50.572,11.691c0.637-0.793,0.213-1.797-1.658-3.229c0.002,0,0.002,0.001,0.008,0.001
	C45.734-2.292,5.031-1.168,11.646,23.725c-0.525,4.395,1.355,7.732,1.748,7.887c4.305-8.783,13.283-12.823,21.338-15.18
	C47.166,19.75,50.52,31.784,50.52,31.784c2.814-3.6,2.203-7.627,2.203-7.621C54.309,19.619,53.822,15.038,50.572,11.691z"/>
<path fill="#B3C2C6" d="M13.395,31.612c5.008-17.685,29.188-14.924,37.178-19.921C43.721,19.572,24.818,13.017,13.395,31.612z"/>
<path fill="#B3C2C6" d="M52.723,24.163c-1.619-7.61-7.838-9.722-7.838-9.722l-1.998,0.597
	C42.887,15.038,48.541,16.155,52.723,24.163z"/>
<path fill="#B3C2C6" d="M50.52,31.784c-3.148-12.194-14.363-15.463-14.363-15.463l-1.996,0.597
	C34.16,16.917,46.223,20.659,50.52,31.784z"/>
<path fill="#B3C2C6" d="M11.646,23.725C15.918,1.359,42.627,4.824,48.914,8.461C36.713,5.443,18.928,4.166,11.646,23.725z"/>
</svg>
