<?xml version="1.0" encoding="utf-8"?>
<!-- Generator: Adobe Illustrator 15.0.0, SVG Export Plug-In . SVG Version: 6.00 Build 0)  -->
<!DOCTYPE svg PUBLIC "-//W3C//DTD SVG 1.1//EN" "http://www.w3.org/Graphics/SVG/1.1/DTD/svg11.dtd" [
	<!ENTITY ns_flows "http://ns.adobe.com/Flows/1.0/">
	<!ENTITY ns_extend "http://ns.adobe.com/Extensibility/1.0/">
	<!ENTITY ns_ai "http://ns.adobe.com/AdobeIllustrator/10.0/">
	<!ENTITY ns_graphs "http://ns.adobe.com/Graphs/1.0/">
]>
<svg version="1.1" id="Layer_1" xmlns:x="&ns_extend;" xmlns:i="&ns_ai;" xmlns:graph="&ns_graphs;"
	 xmlns="http://www.w3.org/2000/svg" xmlns:xlink="http://www.w3.org/1999/xlink" xmlns:a="http://ns.adobe.com/AdobeSVGViewerExtensions/3.0/"
	 x="0px" y="0px" width="64px" height="64px" viewBox="0 0 64 64" enable-background="new 0 0 64 64" xml:space="preserve">
<path fill="#302C3B" d="M9.787,52.751c2.701-1.365,13.908-4.969,13.908-4.969h16.695c0,0,11.199,3.596,13.885,4.965
	C58.18,54.731,59,61.999,59,61.999H5C5,61.999,5.871,54.728,9.787,52.751z"/>
<path fill="#302116" d="M23,49.946c0,0,2.887,2.832,9,2.832c6.111,0,9-2.832,9-2.832v-8.035H23V49.946z"/>
<path fill="#1A1626" d="M32,52.778c2.471,0.908,3.938,1.859,2.955,9.221h1.137C37.094,55.169,35.096,53.124,32,52.778z"/>
<path fill="#1A1626" d="M32.488,54.526c0.551,0,1,0.447,1,1s-0.449,1-1,1c-0.555,0-1-0.447-1-1S31.934,54.526,32.488,54.526"/>
<path id="Path_2714_" fill="#614A36" d="M48.441,25.394c-2.545,0.307-4.383,8.814-2.781,11.061c0.225,0.313,1.535,0.814,2.508-1.168
	c0.539-1.098,2.092-2.014,2.574-4.277C51.359,28.108,50.975,25.087,48.441,25.394z"/>
<path id="Path_2713_" fill="#614A36" d="M15.561,25.394c2.545,0.307,4.383,8.814,2.781,11.061c-0.225,0.313-1.535,0.814-2.51-1.168
	c-0.537-1.098-2.092-2.014-2.572-4.277C12.641,28.108,13.027,25.087,15.561,25.394z"/>
<path id="Path_2712_" fill="#302116" d="M48.373,27.022c-0.664,0.209-1.389,1.221-1.781,2.898c2.32-0.498,1.74,3.361-0.277,3.434
	c0.02,0.389,0.045,0.787,0.094,1.207c0.971-1.408,1.959-0.844,2.938-2.939C50.227,29.733,50.018,26.509,48.373,27.022z"/>
<path id="Path_2711_" fill="#302116" d="M17.41,29.917c-0.395-1.676-1.117-2.686-1.781-2.895c-1.643-0.514-1.855,2.711-0.973,4.6
	c0.979,2.096,1.967,1.531,2.939,2.939c0.047-0.42,0.074-0.82,0.09-1.209C15.689,33.259,15.117,29.446,17.41,29.917z"/>
<path id="Path_2710_" fill="#614A36" d="M32,9.034c-11.027,0-16.34,8.328-15.676,19.908c0.133,2.33,1.582,9.93,2.947,12.656
	c1.398,2.789,6.074,7.09,8.938,7.98c1.811,0.561,5.773,0.561,7.582,0c2.865-0.891,7.543-5.191,8.939-7.98
	c1.369-2.727,2.814-10.324,2.945-12.656C48.344,17.362,43.031,9.034,32,9.034z"/>
<path id="Path_2709_" fill="#403229" d="M43.982,24.544c-2.521-1.336-7.348-1.4-9.146-0.469c-0.387,0.178-0.131,1.441,0.193,1.322
	c2.504-0.99,6.547-1.012,8.893,0.084C44.234,25.624,44.365,24.729,43.982,24.544z"/>
<path id="Path_2708_" fill="#403229" d="M20.02,24.544c2.521-1.336,7.346-1.4,9.146-0.469c0.385,0.178,0.131,1.441-0.193,1.322
	c-2.51-0.99-6.547-1.012-8.895,0.084C19.768,25.624,19.639,24.729,20.02,24.544z"/>
<path id="Path_2707_" fill="#302116" d="M34.977,36.108c-0.314-0.219-1.053,0.119-2.977,0.119c-1.92,0-2.66-0.338-2.975-0.119
	c-0.377,0.266,0.223,1.461,2.975,1.461C34.754,37.569,35.355,36.374,34.977,36.108z"/>
<path id="Path_2706_" fill="#302116" d="M32,40.646c-2.479-0.729-6.154,0.346-6.154,0.346c1.398,1.521,2.424,3.494,6.154,3.494
	c4.275,0,5.002-2.24,6.156-3.494C38.156,40.991,34.48,39.911,32,40.646z"/>
<path id="Path_2705_" fill="#FFFFFF" d="M26.768,41.249c2.602,2.176,7.852,2.191,10.467,0
	C34.463,41.366,29.559,41.368,26.768,41.249z"/>
<path id="Path_2704_" fill="#FFFFFF" d="M29.547,29.085c0.094,0.73-0.402,1.594-1.773,2.242c-0.871,0.412-2.686,0.896-5.066-0.107
	c-1.066-0.449-2.107-1.848-2.014-2.623C21.984,26.167,28.338,25.812,29.547,29.085z"/>
<linearGradient id="Oval_1_" gradientUnits="userSpaceOnUse" x1="-424.5815" y1="477.4658" x2="-424.5815" y2="478.2236" gradientTransform="matrix(6.5701 0 0 -6.5701 2814.7805 3168.5281)">
	<stop  offset="0" style="stop-color:#A6694A"/>
	<stop  offset="1" style="stop-color:#4F2A1E"/>
	<a:midPointStop  offset="0" style="stop-color:#A6694A"/>
	<a:midPointStop  offset="0.5" style="stop-color:#A6694A"/>
	<a:midPointStop  offset="1" style="stop-color:#4F2A1E"/>
</linearGradient>
<circle id="Oval_414_" fill="url(#Oval_1_)" cx="25.236" cy="29.038" r="2.492"/>
<path id="Path_2703_" fill="#1A1626" d="M23.988,28.991c0,1.725,2.496,1.725,2.496,0C26.484,27.392,23.988,27.392,23.988,28.991z"/>
<path id="Path_2702_" fill="#AB968C" d="M23.609,28.292c0,0.723,1.045,0.723,1.045,0C24.654,27.624,23.609,27.624,23.609,28.292z"/>
<path id="Path_2701_" fill="#302116" d="M29.559,29.181c-1.014-3.25-7.926-2.77-8.865-0.584
	C21.041,25.798,28.695,25.058,29.559,29.181z"/>
<path id="Path_2700_" fill="#FFFFFF" d="M34.455,29.085c-0.094,0.73,0.4,1.594,1.773,2.242c0.871,0.412,2.684,0.896,5.064-0.107
	c1.07-0.449,2.109-1.848,2.016-2.623C42.018,26.167,35.662,25.812,34.455,29.085z"/>
<linearGradient id="Oval_2_" gradientUnits="userSpaceOnUse" x1="-425.23" y1="477.4658" x2="-425.23" y2="478.2236" gradientTransform="matrix(6.5701 0 0 -6.5701 2832.511 3168.5281)">
	<stop  offset="0" style="stop-color:#A6694A"/>
	<stop  offset="1" style="stop-color:#4F2A1E"/>
	<a:midPointStop  offset="0" style="stop-color:#A6694A"/>
	<a:midPointStop  offset="0.5" style="stop-color:#A6694A"/>
	<a:midPointStop  offset="1" style="stop-color:#4F2A1E"/>
</linearGradient>
<circle id="Oval_413_" fill="url(#Oval_2_)" cx="38.709" cy="29.038" r="2.492"/>
<path id="Path_2699_" fill="#1A1626" d="M37.463,28.991c0,1.725,2.496,1.725,2.496,0C39.959,27.392,37.463,27.392,37.463,28.991z"/>
<path id="Path_2698_" fill="#AB968C" d="M37.082,28.292c0,0.723,1.047,0.723,1.047,0C38.129,27.624,37.082,27.624,37.082,28.292z"/>
<path id="Path_2697_" fill="#302116" d="M34.443,29.181c1.012-3.248,7.92-2.783,8.865-0.584
	C42.957,25.798,35.307,25.058,34.443,29.181z"/>
<path fill="#403A33" d="M46.086,11.794C43.672,8.532,39.254,6.001,32,6.001c-7.252,0-11.668,2.531-14.082,5.793
	C14.5,16.409,49.502,16.409,46.086,11.794z"/>
<linearGradient id="SVGID_1_" gradientUnits="userSpaceOnUse" x1="32.0015" y1="31.792" x2="32.0015" y2="10.4126">
	<stop  offset="0.5" style="stop-color:#1A1714"/>
	<stop  offset="0.6722" style="stop-color:#231F1B"/>
	<stop  offset="0.9523" style="stop-color:#3B362F"/>
	<stop  offset="1" style="stop-color:#403A33"/>
	<a:midPointStop  offset="0.5" style="stop-color:#1A1714"/>
	<a:midPointStop  offset="0.6" style="stop-color:#1A1714"/>
	<a:midPointStop  offset="1" style="stop-color:#403A33"/>
</linearGradient>
<path fill="url(#SVGID_1_)" d="M46.086,11.794C43.672,8.532,39.254,12.069,32,12.069c-7.252,0-11.668-3.537-14.082-0.275
	c-3.418,4.615-2.258,19.998-0.736,19.998c0.24,0,0.275-5.381,0.736-9.104c0.373-3.029,1.094-5.969,1.924-6.449
	C22.373,14.772,27.254,16.87,32,16.87s9.629-2.098,12.162-0.631c0.828,0.48,1.547,3.42,1.924,6.449
	c0.459,3.723,0.494,9.104,0.734,9.104C48.342,31.792,49.502,16.409,46.086,11.794z"/>
<path fill="#006DAE" d="M31.998,3.517c7.066,4.926,8.43,13.203,8.43,13.203c5.158,1.848,8.184-1.006,8.184-1.006
	C48.611,10.935,42.605,3.517,31.998,3.517z"/>
<path fill="#E03636" d="M31.998,3.517C24.23,7.347,23.57,16.72,23.57,16.72c5.627,1.705,11.232,1.705,16.857,0
	C40.221,13.786,39.977,7.448,31.998,3.517z"/>
<path fill="#006DAE" d="M31.998,3.517c-7.59,5.291-7.9,10.004-8.428,13.203c-5.16,1.848-8.186-1.006-8.186-1.006
	C15.385,10.935,21.393,3.517,31.998,3.517z"/>
<path fill="#302C3B" d="M48.611,15.714c0,0-5.775,1.203-16.613,1.203c-10.836,0-16.613-1.203-16.613-1.203
	c-0.713,3.512,0.342,5.568,0.342,5.568s5.434,1.939,16.271,1.939c10.84,0,16.273-1.939,16.273-1.939S49.328,19.226,48.611,15.714z"
	/>
<circle fill="#FFE12C" cx="31.998" cy="20.19" r="2"/>
<path fill="#302C3B" d="M29.934,3.608c0,0.887,4.129,0.887,4.129,0c0-0.889-0.922-1.607-2.063-1.607S29.934,2.72,29.934,3.608z"/>
</svg>
