<?xml version="1.0" encoding="utf-8"?>
<!-- Generator: Adobe Illustrator 15.0.0, SVG Export Plug-In . SVG Version: 6.00 Build 0)  -->
<!DOCTYPE svg PUBLIC "-//W3C//DTD SVG 1.1//EN" "http://www.w3.org/Graphics/SVG/1.1/DTD/svg11.dtd" [
	<!ENTITY ns_flows "http://ns.adobe.com/Flows/1.0/">
	<!ENTITY ns_extend "http://ns.adobe.com/Extensibility/1.0/">
	<!ENTITY ns_ai "http://ns.adobe.com/AdobeIllustrator/10.0/">
	<!ENTITY ns_graphs "http://ns.adobe.com/Graphs/1.0/">
]>
<svg version="1.1" id="Layer_1" xmlns:x="&ns_extend;" xmlns:i="&ns_ai;" xmlns:graph="&ns_graphs;"
	 xmlns="http://www.w3.org/2000/svg" xmlns:xlink="http://www.w3.org/1999/xlink" xmlns:a="http://ns.adobe.com/AdobeSVGViewerExtensions/3.0/"
	 x="0px" y="0px" width="64px" height="64px" viewBox="0 0 64 64" enable-background="new 0 0 64 64" xml:space="preserve">
<path fill="#006DAE" d="M52.607,52.779c-1.324,3.137-10.064,2.281-10.965-4.308c-0.842-0.299-1.955-0.688-1.955-0.688H24.311
	c0,0-1.111,0.39-1.955,0.688c-0.9,6.589-9.641,7.444-10.965,4.308C7.766,54.756,7,62,7,62h50C57,62,56.234,54.756,52.607,52.779z"/>
<path fill="#005C94" d="M22.355,48.472c0,8.123,19.287,8.123,19.287,0l-1.871-0.752H24.313L22.355,48.472z"/>
<path fill="#69452D" d="M24.002,47.947c0,6.358,16,6.358,16,0c0-2.164,0-7.035,0-7.035h-16
	C24.002,40.912,24.002,45.783,24.002,47.947z"/>
<path fill="#F59E01" d="M11.391,52.779C11.283,52.838,10.898,62,10.898,62H28.98l-0.074-0.124
	c-0.045-0.075-4.574-7.206-7.039-13.229c-0.938,0.334-2.076,0.746-3.262,1.185c-0.551,2.401-3.822,3.073-4.357,1.675
	C13.023,52.002,11.99,52.452,11.391,52.779z"/>
<path fill="#302C3B" d="M11.16,62l0.23-9.221c-0.184,0.104-0.359,0.223-0.531,0.353l-0.221,8.855V62H11.16z"/>
<path fill="#302C3B" d="M29.133,61.752c-0.045-0.075-4.32-7.276-6.777-13.28c-0.156,0.056-0.318,0.114-0.488,0.175
	C24.365,54.754,28.68,62,28.68,62h0.602L29.133,61.752z"/>
<path fill="#FFF82C" d="M14.248,51.501L14.578,62h5.332l-1.305-12.169C17.117,50.381,15.566,50.969,14.248,51.501z"/>
<path fill="#F59E01" d="M52.607,52.779C52.717,52.838,53.102,62,53.102,62H35.02l0.074-0.124c0.045-0.075,4.574-7.206,7.037-13.229
	c0.938,0.334,2.078,0.746,3.264,1.185c0.551,2.401,3.822,3.073,4.357,1.675C50.977,52.002,52.008,52.452,52.607,52.779z"/>
<path fill="#302C3B" d="M52.84,62l-0.232-9.221c0.186,0.104,0.361,0.223,0.531,0.353l0.223,8.855V62H52.84z"/>
<path fill="#302C3B" d="M34.867,61.752c0.045-0.075,4.32-7.276,6.775-13.28c0.156,0.056,0.318,0.114,0.488,0.175
	C39.635,54.754,35.318,62,35.318,62h-0.6L34.867,61.752z"/>
<path fill="#FFF82C" d="M49.752,51.501L49.422,62H44.09l1.305-12.169C46.881,50.381,48.432,50.969,49.752,51.501z"/>
<path fill="#3B2118" d="M47.213,38.785c1.082,0.714,2.33,1.247,3.787,1.521c-2.586-5.888,1.314-18.237-6.682-27.311
	c-11.27,0.337-12.828,36.722,2.883,31.883c-1-0.433-1.629-1.316-1.996-2.43c1.211,0.347,2.627,0.358,4.275-0.148
	C48.168,41.733,47.5,40.399,47.213,38.785z"/>
<path fill="#3B2118" d="M18.922,12.995C10.926,22.068,15.588,34.418,13,40.306c1.457-0.273,2.707-0.807,3.789-1.521
	c-0.289,1.614-0.957,2.948-2.27,3.515c1.648,0.507,3.063,0.495,4.273,0.148c-0.367,1.113-0.992,1.997-1.992,2.43
	C32.51,49.717,30.193,13.332,18.922,12.995z"/>
<path id="Path_1537_" fill="#916B50" d="M48.443,25.392c-2.547,0.309-4.383,8.816-2.783,11.062c0.225,0.314,1.535,0.813,2.508-1.167
	c0.539-1.098,2.094-2.014,2.574-4.277C51.359,28.109,50.977,25.085,48.443,25.392z"/>
<path id="Path_1536_" fill="#916B50" d="M15.559,25.392c2.547,0.309,4.385,8.816,2.783,11.062c-0.225,0.314-1.537,0.813-2.508-1.167
	c-0.539-1.098-2.094-2.014-2.574-4.277C12.643,28.109,13.027,25.085,15.559,25.392z"/>
<path id="Path_1535_" fill="#69452D" d="M48.373,27.023c-0.664,0.208-1.389,1.22-1.781,2.896c2.322-0.498,1.742,3.362-0.275,3.435
	c0.018,0.389,0.045,0.788,0.092,1.208c0.973-1.409,1.959-0.844,2.938-2.94C50.227,29.731,50.018,26.508,48.373,27.023z"/>
<path id="Path_1534_" fill="#69452D" d="M17.41,29.915c-0.395-1.674-1.117-2.685-1.781-2.892c-1.645-0.516-1.855,2.708-0.975,4.599
	c0.979,2.097,1.967,1.531,2.939,2.94c0.049-0.421,0.074-0.821,0.092-1.21C15.688,33.258,15.117,29.446,17.41,29.915z"/>
<path fill="#916B50" d="M32,9.034c-11.029,0-16.342,8.966-15.678,20.493c0.137,2.317,0.783,5.661,1.58,8.524
	C19.557,44.005,28.283,50,32,50s12.443-5.995,14.1-11.948c0.797-2.863,1.441-6.207,1.578-8.524C48.342,18,43.031,9.034,32,9.034z"/>
<path id="Path_1533_" fill="#5E4431" d="M43.982,24.543c-2.521-1.333-7.35-1.399-9.146-0.47c-0.387,0.18-0.131,1.443,0.193,1.323
	c2.504-0.989,6.547-1.013,8.893,0.085C44.234,25.623,44.365,24.728,43.982,24.543z"/>
<path id="Path_1532_" fill="#5E4431" d="M20.02,24.543c2.521-1.333,7.346-1.399,9.146-0.47c0.383,0.18,0.131,1.443-0.193,1.323
	c-2.51-0.989-6.547-1.013-8.895,0.085C19.766,25.623,19.637,24.728,20.02,24.543z"/>
<path id="Path_1531_" fill="#69452D" d="M34.977,36.108c-0.314-0.22-1.053,0.118-2.977,0.118c-1.92,0-2.66-0.338-2.977-0.118
	C28.648,36.373,29.248,37.57,32,37.57C34.754,37.57,35.355,36.373,34.977,36.108z"/>
<path id="Path_1530_" fill="#69452D" d="M32,40.646c-2.48-0.729-6.156,0.345-6.156,0.345c1.4,1.522,2.426,3.497,6.156,3.497
	c4.273,0,5.002-2.242,6.158-3.497C38.158,40.99,34.48,39.913,32,40.646z"/>
<path id="Path_1529_" fill="#FFFFFF" d="M26.768,41.248c2.602,2.178,7.852,2.192,10.467,0
	C34.463,41.366,29.559,41.368,26.768,41.248z"/>
<path id="Path_1528_" fill="#FFFFFF" d="M29.547,29.085c0.094,0.729-0.402,1.594-1.773,2.241c-0.873,0.411-2.684,0.896-5.066-0.106
	c-1.066-0.449-2.107-1.85-2.014-2.623C21.984,26.167,28.338,25.812,29.547,29.085z"/>
<linearGradient id="Oval_1_" gradientUnits="userSpaceOnUse" x1="-424.5815" y1="477.4658" x2="-424.5815" y2="478.2246" gradientTransform="matrix(6.5701 0 0 -6.5701 2814.7805 3168.5281)">
	<stop  offset="0" style="stop-color:#A6694A"/>
	<stop  offset="1" style="stop-color:#4F2A1E"/>
	<a:midPointStop  offset="0" style="stop-color:#A6694A"/>
	<a:midPointStop  offset="0.5" style="stop-color:#A6694A"/>
	<a:midPointStop  offset="1" style="stop-color:#4F2A1E"/>
</linearGradient>
<ellipse id="Oval_195_" fill="url(#Oval_1_)" cx="25.234" cy="29.036" rx="2.498" ry="2.492"/>
<path id="Path_1527_" fill="#1A1626" d="M23.988,28.991c0,1.725,2.496,1.725,2.496,0C26.484,27.391,23.988,27.391,23.988,28.991z"/>
<path id="Path_1526_" fill="#AB968C" d="M23.607,28.293c0,0.724,1.047,0.724,1.047,0C24.654,27.623,23.607,27.623,23.607,28.293z"/>
<path id="Path_1525_" fill="#69452D" d="M29.559,29.183c-1.014-3.253-7.924-2.773-8.865-0.586
	C21.041,25.796,28.695,25.058,29.559,29.183z"/>
<path id="Path_1524_" fill="#FFFFFF" d="M34.455,29.085c-0.096,0.729,0.4,1.594,1.773,2.241c0.871,0.411,2.684,0.896,5.064-0.106
	c1.07-0.449,2.109-1.85,2.016-2.623C42.02,26.167,35.662,25.812,34.455,29.085z"/>
<linearGradient id="Oval_2_" gradientUnits="userSpaceOnUse" x1="-425.23" y1="477.4658" x2="-425.23" y2="478.2246" gradientTransform="matrix(6.5701 0 0 -6.5701 2832.511 3168.5281)">
	<stop  offset="0" style="stop-color:#A6694A"/>
	<stop  offset="1" style="stop-color:#4F2A1E"/>
	<a:midPointStop  offset="0" style="stop-color:#A6694A"/>
	<a:midPointStop  offset="0.5" style="stop-color:#A6694A"/>
	<a:midPointStop  offset="1" style="stop-color:#4F2A1E"/>
</linearGradient>
<circle id="Oval_194_" fill="url(#Oval_2_)" cx="38.711" cy="29.036" r="2.492"/>
<path id="Path_1523_" fill="#1A1626" d="M37.463,28.991c0,1.725,2.496,1.725,2.496,0C39.959,27.391,37.463,27.391,37.463,28.991z"/>
<path id="Path_1522_" fill="#AB968C" d="M37.084,28.293c0,0.724,1.045,0.724,1.045,0C38.129,27.623,37.084,27.623,37.084,28.293z"/>
<path id="Path_1521_" fill="#69452D" d="M34.443,29.183c1.012-3.252,7.92-2.786,8.865-0.586
	C42.959,25.796,35.307,25.058,34.443,29.183z"/>
<linearGradient id="SVGID_1_" gradientUnits="userSpaceOnUse" x1="31.8374" y1="31.8174" x2="31.8374" y2="6">
	<stop  offset="0" style="stop-color:#3B2118"/>
	<stop  offset="0.0953" style="stop-color:#40251C"/>
	<stop  offset="0.6555" style="stop-color:#58392F"/>
	<stop  offset="1" style="stop-color:#614036"/>
	<a:midPointStop  offset="0" style="stop-color:#3B2118"/>
	<a:midPointStop  offset="0.4" style="stop-color:#3B2118"/>
	<a:midPointStop  offset="1" style="stop-color:#614036"/>
</linearGradient>
<path fill="url(#SVGID_1_)" d="M32.002,6c-6.711,0-10.064,3.034-10.744,4.474c-8.113,1.852-10.723,15.515-4.648,21.344
	c0.754-6.211,1.48-10.201,5.617-14.404c2.412,3.227,7.424,5.042,11.91,5.042c-2.125-1.54-3.574-3.051-4.711-4.458
	c7.494,3.434,15.885,5.631,17.969,13.82C54.604,20.358,48.615,6,32.002,6z"/>
<path fill="#FFEC00" d="M50.955,23.09H13.043c0-10.431,3.102-18.54,18.957-18.54C47.854,4.55,50.955,12.659,50.955,23.09z"/>
<path fill="#FFDB00" d="M40.096,18.47V5.486L32.002,3.21l-8.096,2.275V18.47c-8.65,1.016-12.498,3.418-12.498,6.224h41.184
	C52.592,21.888,48.744,19.485,40.096,18.47z"/>
<path fill="#FFEC00" d="M38.498,20.677H25.504V5.312c0-4.416,12.994-4.416,12.994,0V20.677z"/>
</svg>
