<?xml version="1.0" encoding="utf-8"?>
<!-- Generator: Adobe Illustrator 15.0.0, SVG Export Plug-In . SVG Version: 6.00 Build 0)  -->
<!DOCTYPE svg PUBLIC "-//W3C//DTD SVG 1.1//EN" "http://www.w3.org/Graphics/SVG/1.1/DTD/svg11.dtd" [
	<!ENTITY ns_flows "http://ns.adobe.com/Flows/1.0/">
	<!ENTITY ns_extend "http://ns.adobe.com/Extensibility/1.0/">
	<!ENTITY ns_ai "http://ns.adobe.com/AdobeIllustrator/10.0/">
	<!ENTITY ns_graphs "http://ns.adobe.com/Graphs/1.0/">
]>
<svg version="1.1" id="Layer_1" xmlns:x="&ns_extend;" xmlns:i="&ns_ai;" xmlns:graph="&ns_graphs;"
	 xmlns="http://www.w3.org/2000/svg" xmlns:xlink="http://www.w3.org/1999/xlink" xmlns:a="http://ns.adobe.com/AdobeSVGViewerExtensions/3.0/"
	 x="0px" y="0px" width="64px" height="64px" viewBox="0 0 64 64" enable-background="new 0 0 64 64" xml:space="preserve">
<path fill="#E6EBEF" d="M27.562,38.395c4.162-5.434,14.952,1.211,22.614,1.535c16.566,0.699,12.99,8.645,5.771,6.732
	c4.801,9.467-5.623,4.191-5.623,4.191c5.992,9.367-3.805,4.037-3.805,4.037c4.355,8.783-4.246,1.279-4.246,1.279
	c2.324,6.617-3.814,1.377-3.814,1.377c0.736,6.025-4.379-0.727-7.247-2.477L27.562,38.395z"/>
<path fill="#B3C2C6" d="M41.588,44.391c-1.883-1.1,12.572,3.867,20.041,1.215C58.639,49.646,43.543,45.533,41.588,44.391z"/>
<path fill="#B3C2C6" d="M38.859,46.885c-1.531-1.262,11.252,4.303,16.928,5.395C53.732,53.232,40.418,48.168,38.859,46.885z"/>
<path fill="#B3C2C6" d="M36.93,49.275c-1.336-1.543,3.736,3.037,13.889,7.119C47.207,56.395,38.084,50.611,36.93,49.275z"/>
<path fill="#B3C2C6" d="M35.496,50.777c2.15,1.525,4.838,4.305,11.576,8.375C43.594,58.893,34.412,50.006,35.496,50.777z"/>
<path fill="#B3C2C6" d="M33.615,52.898c1.213,0.994,2.91,3.211,7.768,6.494C38.529,58.643,32.558,52.033,33.615,52.898z"/>
<path fill="#E6EBEF" d="M36.439,38.395c-4.163-5.434-14.954,1.211-22.616,1.535c-16.566,0.699-12.988,8.645-5.771,6.732
	c-4.799,9.467,5.625,4.191,5.625,4.191c-5.994,9.367,3.803,4.037,3.803,4.037c-4.355,8.783,4.246,1.279,4.246,1.279
	c-2.322,6.617,3.816,1.377,3.816,1.377c-0.736,6.025,4.377-0.727,7.246-2.477L36.439,38.395z"/>
<path fill="#B3C2C6" d="M22.414,44.391c1.881-1.1-12.574,3.867-20.041,1.215C5.361,49.646,20.457,45.533,22.414,44.391z"/>
<path fill="#B3C2C6" d="M25.14,46.885c1.533-1.262-11.252,4.303-16.928,5.395C10.269,53.232,23.583,48.168,25.14,46.885z"/>
<path fill="#B3C2C6" d="M27.072,49.275c1.334-1.543-3.736,3.037-13.889,7.119C16.792,56.395,25.917,50.611,27.072,49.275z"/>
<path fill="#B3C2C6" d="M28.505,50.777c-2.15,1.525-4.838,4.305-11.576,8.375C20.406,58.893,29.589,50.006,28.505,50.777z"/>
<path fill="#B3C2C6" d="M30.386,52.898c-1.213,0.994-2.91,3.211-7.768,6.494C25.47,58.643,31.441,52.033,30.386,52.898z"/>
<path id="Path_1651_" fill="#FFD8B4" d="M53.09,28.51c-2.904,0.299-5,8.539-3.176,10.713c0.771,0.916,4.627-0.459,5.799-5.271
	C56.396,31.137,55.979,28.213,53.09,28.51z"/>
<path id="Path_1650_" fill="#DEB38A" d="M53.01,30.09c-0.76,0.186-1.584,1.182-2.031,2.807c2.646-0.482,1.986,3.256-0.314,3.324
	c-0.295,2.861,2.58,0.797,3.457-1.678C55.49,30.682,54.051,29.836,53.01,30.09z"/>
<path id="Path_1649_" fill="#FFD8B4" d="M10.908,28.51c2.902,0.299,5,8.539,3.174,10.713c-0.771,0.916-4.627-0.459-5.797-5.271
	C7.601,31.137,8.019,28.213,10.908,28.51z"/>
<path id="Path_1648_" fill="#DEB38A" d="M10.986,30.09c0.762,0.186,1.584,1.182,2.033,2.807c-2.648-0.482-1.986,3.256,0.313,3.324
	c0.297,2.861-2.578,0.797-3.455-1.678C8.505,30.682,9.947,29.836,10.986,30.09z"/>
<path fill="#FFD8B4" d="M31.998,8C17.787,8,10.58,16.684,11.591,31.66c0.174,2.58,2.055,10.189,3.836,13.207
	c7.174,12.176,25.969,12.176,33.143,0c1.781-3.018,3.662-10.627,3.834-13.207C53.418,16.684,46.209,8,31.998,8z"/>
<path id="Path_1647_" fill="#DEB38A" d="M34.984,38.775c-0.316-0.256-1.057,0.139-2.987,0.139c-1.928,0-2.67-0.395-2.986-0.139
	c-0.379,0.313,0.227,1.717,2.986,1.717C34.762,40.492,35.365,39.088,34.984,38.775z"/>
<path fill="#A88868" d="M45.24,25.227c-2.639-1.4-7.139-1.547-9.016-0.592c-0.393,0.201-0.271,1.326,0.068,1.197
	c2.631-1,6.498-1.061,8.977,0.1C45.598,26.084,45.635,25.436,45.24,25.227z"/>
<path fill="#A88868" d="M18.777,25.227c2.641-1.4,7.141-1.547,9.016-0.592c0.393,0.201,0.273,1.326-0.068,1.197
	c-2.629-1-6.498-1.061-8.975,0.1C18.419,26.084,18.384,25.436,18.777,25.227z"/>
<path id="Path_1646_" fill="#45332C" d="M39.465,42.254c-0.791-0.883-2.646,0.477-7.467,0.477c-4.818,0-6.676-1.359-7.467-0.477
	c-0.947,1.07,0.561,5.883,7.467,5.883C38.906,48.137,40.416,43.324,39.465,42.254z"/>
<linearGradient id="SVGID_1_" gradientUnits="userSpaceOnUse" x1="31.999" y1="47.3457" x2="31.999" y2="45.4395">
	<stop  offset="0" style="stop-color:#D63324"/>
	<stop  offset="0.0798" style="stop-color:#DC3F31"/>
	<stop  offset="0.2475" style="stop-color:#E75346"/>
	<stop  offset="0.4352" style="stop-color:#EE6155"/>
	<stop  offset="0.6572" style="stop-color:#F3695D"/>
	<stop  offset="1" style="stop-color:#F46C60"/>
	<a:midPointStop  offset="0" style="stop-color:#D63324"/>
	<a:midPointStop  offset="0.2121" style="stop-color:#D63324"/>
	<a:midPointStop  offset="1" style="stop-color:#F46C60"/>
</linearGradient>
<path fill="url(#SVGID_1_)" d="M28.005,46.418c1.154,0.586,2.484,0.928,3.992,0.928c1.508,0,2.84-0.342,3.995-0.928
	c0,0-1.998-1.717-3.995-0.602C30.003,44.701,28.005,46.418,28.005,46.418z"/>
<path id="Path_1645_" fill="#FFFFFF" d="M28.843,31.646c0.119,0.967-0.514,2.111-2.266,2.969c-1.113,0.549-3.428,1.191-6.469-0.141
	c-1.363-0.596-2.873-2.49-2.572-3.479C18.74,27.025,27.06,26.625,28.843,31.646z"/>
<linearGradient id="Oval_1_" gradientUnits="userSpaceOnUse" x1="-424.8706" y1="476.9727" x2="-424.8706" y2="477.9424" gradientTransform="matrix(6.5701 0 0 -6.5701 2814.7805 3168.5281)">
	<stop  offset="0" style="stop-color:#A6694A"/>
	<stop  offset="1" style="stop-color:#4F2A1E"/>
	<a:midPointStop  offset="0" style="stop-color:#A6694A"/>
	<a:midPointStop  offset="0.5" style="stop-color:#A6694A"/>
	<a:midPointStop  offset="1" style="stop-color:#4F2A1E"/>
</linearGradient>
<circle id="Oval_234_" fill="url(#Oval_1_)" cx="23.335" cy="31.582" r="3.188"/>
<path id="Path_1644_" fill="#1A1626" d="M21.744,31.523c0,2.207,3.188,2.207,3.188,0C24.931,29.477,21.744,29.477,21.744,31.523z"/>
<path id="Path_1643_" fill="#AB968C" d="M21.257,30.633c0,0.922,1.338,0.922,1.338,0C22.595,29.773,21.257,29.773,21.257,30.633z"/>
<path id="Path_1642_" fill="#FFFFFF" d="M35.154,31.645c-0.121,0.969,0.512,2.113,2.266,2.973c1.111,0.547,3.426,1.188,6.467-0.143
	c1.365-0.596,2.873-2.49,2.574-3.479C45.258,27.027,36.936,26.625,35.154,31.645z"/>
<linearGradient id="Oval_2_" gradientUnits="userSpaceOnUse" x1="-424.9438" y1="476.9727" x2="-424.9438" y2="477.9424" gradientTransform="matrix(6.5701 0 0 -6.5701 2832.511 3168.5281)">
	<stop  offset="0" style="stop-color:#A6694A"/>
	<stop  offset="1" style="stop-color:#4F2A1E"/>
	<a:midPointStop  offset="0" style="stop-color:#A6694A"/>
	<a:midPointStop  offset="0.5" style="stop-color:#A6694A"/>
	<a:midPointStop  offset="1" style="stop-color:#4F2A1E"/>
</linearGradient>
<circle id="Oval_233_" fill="url(#Oval_2_)" cx="40.588" cy="31.582" r="3.188"/>
<path id="Path_1641_" fill="#1A1626" d="M38.996,31.523c0,2.207,3.188,2.207,3.188,0C42.184,29.477,38.996,29.477,38.996,31.523z"/>
<path id="Path_1640_" fill="#AB968C" d="M38.51,30.631c0,0.924,1.338,0.924,1.338,0C39.848,29.773,38.51,29.773,38.51,30.631z"/>
<linearGradient id="SVGID_2_" gradientUnits="userSpaceOnUse" x1="32" y1="15.6016" x2="32" y2="3.9999">
	<stop  offset="0.0121" style="stop-color:#0174C7"/>
	<stop  offset="0.8121" style="stop-color:#00D0FF"/>
	<a:midPointStop  offset="0.0121" style="stop-color:#0174C7"/>
	<a:midPointStop  offset="0.5" style="stop-color:#0174C7"/>
	<a:midPointStop  offset="0.8121" style="stop-color:#00D0FF"/>
</linearGradient>
<path fill="url(#SVGID_2_)" d="M17.888,12.451c-1.828-0.551-2.912-1.213-2.912-1.928c0-1.912,7.621-3.863,17.023-3.863
	c9.403,0,17.024,1.951,17.024,3.863c0,0.715-1.086,1.377-2.914,1.928c0.623,0.529,1.217,1.092,1.752,1.711
	c3.197-1.076,5.139-2.48,5.139-4.02C53,6.75,43.598,4,32,4c-11.598,0-21,2.75-21,6.143c0,1.539,1.941,2.941,5.137,4.02
	C16.671,13.541,17.265,12.98,17.888,12.451z"/>
</svg>
