<?xml version="1.0" encoding="utf-8"?>
<!-- Generator: Adobe Illustrator 15.0.0, SVG Export Plug-In . SVG Version: 6.00 Build 0)  -->
<!DOCTYPE svg PUBLIC "-//W3C//DTD SVG 1.1//EN" "http://www.w3.org/Graphics/SVG/1.1/DTD/svg11.dtd" [
	<!ENTITY ns_flows "http://ns.adobe.com/Flows/1.0/">
	<!ENTITY ns_extend "http://ns.adobe.com/Extensibility/1.0/">
	<!ENTITY ns_ai "http://ns.adobe.com/AdobeIllustrator/10.0/">
	<!ENTITY ns_graphs "http://ns.adobe.com/Graphs/1.0/">
]>
<svg version="1.1" id="Layer_1" xmlns:x="&ns_extend;" xmlns:i="&ns_ai;" xmlns:graph="&ns_graphs;"
	 xmlns="http://www.w3.org/2000/svg" xmlns:xlink="http://www.w3.org/1999/xlink" xmlns:a="http://ns.adobe.com/AdobeSVGViewerExtensions/3.0/"
	 x="0px" y="0px" width="64px" height="64px" viewBox="0 0 64 64" enable-background="new 0 0 64 64" xml:space="preserve">
<path fill="#CFD8DD" d="M48.467,15.532c-6.104-4.709-26.827-4.709-32.933,0C6.509,22.493,5,62.001,5,62.001h54
	C59,62.001,57.489,22.493,48.467,15.532z"/>
<path fill="#BA9757" d="M39.582,50.741c15.168-6.066,13.651-20.475,13.651-20.475H10.767c0,0-1.517,14.409,13.648,20.475
	c0,0,3.035,0.76,7.583,0.76C36.55,51.501,39.582,50.741,39.582,50.741z"/>
<linearGradient id="SVGID_1_" gradientUnits="userSpaceOnUse" x1="47.166" y1="51.4971" x2="47.166" y2="6.1128">
	<stop  offset="0.05" style="stop-color:#BA9757"/>
	<stop  offset="0.1973" style="stop-color:#C6A265"/>
	<stop  offset="0.5085" style="stop-color:#DBB77D"/>
	<stop  offset="0.7" style="stop-color:#E3BE86"/>
	<a:midPointStop  offset="0.05" style="stop-color:#BA9757"/>
	<a:midPointStop  offset="0.4" style="stop-color:#BA9757"/>
	<a:midPointStop  offset="0.7" style="stop-color:#E3BE86"/>
</linearGradient>
<path fill="url(#SVGID_1_)" d="M47.333,31.803c1.552,6.534,0.733,13-7.751,18.938c9.102-1.516,15.168-10.109,15.168-16.703
	L47.333,31.803z"/>
<linearGradient id="SVGID_2_" gradientUnits="userSpaceOnUse" x1="1763.9805" y1="51.4971" x2="1763.9805" y2="6.1128" gradientTransform="matrix(-1 0 0 1 1780.8145 0)">
	<stop  offset="0.05" style="stop-color:#BA9757"/>
	<stop  offset="0.1973" style="stop-color:#C6A265"/>
	<stop  offset="0.5085" style="stop-color:#DBB77D"/>
	<stop  offset="0.7" style="stop-color:#E3BE86"/>
	<a:midPointStop  offset="0.05" style="stop-color:#BA9757"/>
	<a:midPointStop  offset="0.4" style="stop-color:#BA9757"/>
	<a:midPointStop  offset="0.7" style="stop-color:#E3BE86"/>
</linearGradient>
<path fill="url(#SVGID_2_)" d="M16.667,31.803c-1.552,6.534-0.733,13,7.751,18.938C15.316,49.226,9.25,40.632,9.25,34.038
	L16.667,31.803z"/>
<path fill="#EBC199" d="M12.256,52.753c2.4-1.365,12.363-4.969,12.363-4.969h14.84c0,0,9.955,3.596,12.342,4.965
	C55.271,54.733,56,62.001,56,62.001H8C8,62.001,8.775,54.729,12.256,52.753z"/>
<path fill="#EBC199" d="M24.5,49.948c0,0,2.361,2.832,7.5,2.832c5.141,0,7.5-2.832,7.5-2.832v-8.035h-15V49.948z"/>
<path fill="#C99B71" d="M21.512,39.28c1.23,5.951,7.723,11.945,10.488,11.945c2.764,0,9.256-5.994,10.488-11.945
	C43.08,36.419,20.92,36.419,21.512,39.28z"/>
<path fill="#EBC199" d="M32,8.276c-11.005,0-16.306,8.961-15.644,20.484c0.136,2.316,0.78,5.659,1.575,8.52
	C19.582,43.231,28.291,49.226,32,49.226c3.707,0,12.416-5.994,14.068-11.945c0.795-2.861,1.439-6.204,1.575-8.52
	C48.305,17.237,43.007,8.276,32,8.276z"/>
<path fill="#E85159" d="M31.998,39.87c-2.578-1.135-2.599-0.045-6.58,0.221c1.494,1.697,2.595,3.879,6.579,3.879
	c4.574,0,5.347-2.479,6.585-3.879C34.597,39.825,34.58,38.735,31.998,39.87z"/>
<path fill="#FFFFFF" d="M26.613,40.515c2.6,2.705,8.205,2.668,10.772,0.002C33.384,40.946,30.616,40.946,26.613,40.515z"/>
<path fill="#A17C5B" d="M43.693,24.926c-2.391-1.424-6.68-1.6-8.376-0.629c-0.359,0.197-0.264,1.227,0.048,1.098
	c2.42-1.008,6.108-1.059,8.38,0.107C44.049,25.657,44.057,25.133,43.693,24.926z"/>
<path fill="#A17C5B" d="M20.305,24.926c2.391-1.424,6.679-1.6,8.379-0.629c0.36,0.197,0.264,1.227-0.049,1.098
	c-2.422-1.008-6.105-1.061-8.38,0.107C19.949,25.657,19.943,25.133,20.305,24.926z"/>
<path fill="#C99B71" d="M34.474,36.214c-0.263-0.184-0.877,0.098-2.476,0.098c-1.597,0-2.211-0.281-2.473-0.098
	c-0.314,0.221,0.185,1.217,2.473,1.217C34.287,37.431,34.789,36.435,34.474,36.214z"/>
<path id="Path_1395_" fill="#FFFFFF" d="M29.552,29.25c0.093,0.727-0.401,1.59-1.771,2.238c-0.869,0.41-2.678,0.895-5.055-0.107
	c-1.065-0.449-2.104-1.848-2.01-2.621C22.005,26.333,28.346,25.977,29.552,29.25z"/>
<linearGradient id="Oval_1_" gradientUnits="userSpaceOnUse" x1="-424.5796" y1="477.4414" x2="-424.5796" y2="478.1992" gradientTransform="matrix(6.5701 0 0 -6.5701 2814.7805 3168.5281)">
	<stop  offset="0" style="stop-color:#A6694A"/>
	<stop  offset="1" style="stop-color:#4F2A1E"/>
	<a:midPointStop  offset="0" style="stop-color:#A6694A"/>
	<a:midPointStop  offset="0.5" style="stop-color:#A6694A"/>
	<a:midPointStop  offset="1" style="stop-color:#4F2A1E"/>
</linearGradient>
<circle id="Oval_214_" fill="url(#Oval_1_)" cx="25.249" cy="29.2" r="2.49"/>
<path id="Path_1394_" fill="#1A1626" d="M24.005,29.155c0,1.723,2.491,1.723,2.491,0C26.496,27.555,24.005,27.555,24.005,29.155z"/>
<path id="Path_1393_" fill="#AB968C" d="M23.626,28.458c0,0.723,1.044,0.723,1.044,0C24.67,27.788,23.626,27.788,23.626,28.458z"/>
<path id="Path_1392_" fill="#45332C" d="M29.563,29.346c-1.012-3.252-7.908-2.771-8.847-0.586
	C21.064,25.961,28.701,25.223,29.563,29.346z"/>
<path id="Path_1391_" fill="#FFFFFF" d="M34.448,29.25c-0.093,0.727,0.401,1.59,1.771,2.238c0.869,0.41,2.678,0.895,5.055-0.107
	c1.066-0.449,2.104-1.848,2.01-2.621C41.996,26.333,35.654,25.977,34.448,29.25z"/>
<linearGradient id="Oval_2_" gradientUnits="userSpaceOnUse" x1="-425.2319" y1="477.4414" x2="-425.2319" y2="478.1992" gradientTransform="matrix(6.5701 0 0 -6.5701 2832.511 3168.5281)">
	<stop  offset="0" style="stop-color:#A6694A"/>
	<stop  offset="1" style="stop-color:#4F2A1E"/>
	<a:midPointStop  offset="0" style="stop-color:#A6694A"/>
	<a:midPointStop  offset="0.5" style="stop-color:#A6694A"/>
	<a:midPointStop  offset="1" style="stop-color:#4F2A1E"/>
</linearGradient>
<circle id="Oval_213_" fill="url(#Oval_2_)" cx="38.694" cy="29.2" r="2.49"/>
<path id="Path_1390_" fill="#1A1626" d="M37.45,29.155c0,1.723,2.492,1.723,2.492,0C39.942,27.555,37.45,27.555,37.45,29.155z"/>
<path id="Path_1389_" fill="#AB968C" d="M37.071,28.458c0,0.723,1.044,0.723,1.044,0C38.115,27.788,37.071,27.788,37.071,28.458z"/>
<path id="Path_1388_" fill="#45332C" d="M34.438,29.346c1.011-3.25,7.902-2.785,8.846-0.586
	C42.934,25.961,35.299,25.223,34.438,29.346z"/>
<linearGradient id="SVGID_3_" gradientUnits="userSpaceOnUse" x1="32.0005" y1="51.5" x2="32.0005" y2="6.1129">
	<stop  offset="0.05" style="stop-color:#BA9757"/>
	<stop  offset="0.1973" style="stop-color:#C6A265"/>
	<stop  offset="0.5085" style="stop-color:#DBB77D"/>
	<stop  offset="0.7" style="stop-color:#E3BE86"/>
	<a:midPointStop  offset="0.05" style="stop-color:#BA9757"/>
	<a:midPointStop  offset="0.4" style="stop-color:#BA9757"/>
	<a:midPointStop  offset="0.7" style="stop-color:#E3BE86"/>
</linearGradient>
<path fill="url(#SVGID_3_)" d="M44.386,9.883c1.257-1.793-9.388-5.582-19.438-3.023C14.909,9.159,9.25,24.2,9.25,34.038
	c0.898,0.713,6.396-1.064,7.417-2.235c0.416-1.721,1.071-3.492,1.683-5.328c7.539-4.365,16.07-5.393,21.992-10.617
	c-0.759,2.275,3.256,5.145,5.309,10.617c0.666,1.775,1.261,3.555,1.683,5.328c1.674,1.542,5.014,2.268,7.417,2.235
	C54.75,25.717,48.409,8.723,44.386,9.883z"/>
<path fill="#BA9757" d="M11.058,32.542c6.944-9.249,29.438-8.622,33.328-22.659C36.834,21.665,12.955,23.653,11.058,32.542z"/>
<path opacity="0.8" fill="#CFD8DD" d="M32.002,6C14.138,6,11.888,17.899,9.408,30.624c0,0,5.542-10.113,22.594-10.113
	c17.047,0,22.59,10.113,22.59,10.113C52.019,16.897,49.866,6,32.002,6z"/>
<path fill="#CFD8DD" d="M54.731,33.661c2.13-30.116-47.591-30.116-45.463,0C11.124,8.368,52.878,8.368,54.731,33.661z"/>
<path fill="#FFFFFF" d="M54.731,32.687c2.13-30.116-47.591-30.116-45.463,0C11.124,7.393,52.878,7.393,54.731,32.687z"/>
<path fill="#C99B71" d="M34.139,54.868c-1.203,0.887-2.139,2.9-2.139,2.9s-0.936-2.014-2.139-2.9c2.137,4.529,1.62,6.564,1.62,6.564
	h1.035C32.517,61.433,31.998,59.114,34.139,54.868z"/>
<path fill="#FFFFFF" d="M12.892,51.968c-0.073-0.887,1.264-1.996,1.875-1.354c0.479-1.197,2.096-0.533,2.138,0.127
	c0.459,7.293,2.776,9.809,0.386,11.26C12.485,60.882,9.609,52.146,12.892,51.968z"/>
<path fill="#E6EBEF" d="M14.92,51.237c-0.118,2.191,1.441,6.143,3.092,10.08C12.8,51.503,15,49.788,14.92,51.237z"/>
<path fill="#E6EBEF" d="M12.855,52.278c-0.241,0.645,0.314,4.836,4.303,9.117C13.263,56.269,13.138,51.528,12.855,52.278z"/>
<path fill="#FFFFFF" d="M51.108,51.968c0.075-0.887-1.262-1.996-1.873-1.354c-0.481-1.197-2.096-0.533-2.136,0.127
	c-0.461,7.293-2.78,9.809-0.389,11.26C51.518,60.882,54.391,52.146,51.108,51.968z"/>
<path fill="#E6EBEF" d="M49.08,51.237c0.12,2.191-1.439,6.143-3.092,10.08C51.202,51.503,49.002,49.788,49.08,51.237z"/>
<path fill="#E6EBEF" d="M51.146,52.278c0.24,0.645-0.316,4.836-4.304,9.117C50.738,56.269,50.864,51.528,51.146,52.278z"/>
<path fill="#F2F5F7" d="M32,60.772c-6.716-7.584-15.857-3.332-15.857,1.229h31.716C47.858,57.44,38.716,53.188,32,60.772z"/>
<path fill="#45332C" d="M21.664,26.645c-0.125,0.313-0.094,0.547-0.094,0.547s-0.406,0.156-0.938-0.25
	c-0.074,0.451,0.078,0.813,0.078,0.813s-0.375,0.201-0.9-0.172c0.104,1.031,0.906,1.178,0.906,1.178s-0.046-0.906,1.835-1.76
	C22.552,27,22.008,27.036,21.664,26.645z"/>
<path fill="#45332C" d="M42.337,26.645c0.125,0.313,0.094,0.547,0.094,0.547s0.406,0.156,0.938-0.25
	c0.074,0.451-0.078,0.813-0.078,0.813s0.375,0.201,0.9-0.172c-0.104,1.031-0.906,1.178-0.906,1.178s0.046-0.906-1.835-1.76
	C41.449,27,41.993,27.036,42.337,26.645z"/>
</svg>
