<?xml version="1.0" encoding="utf-8"?>
<!-- Generator: Adobe Illustrator 15.0.0, SVG Export Plug-In . SVG Version: 6.00 Build 0)  -->
<!DOCTYPE svg PUBLIC "-//W3C//DTD SVG 1.1//EN" "http://www.w3.org/Graphics/SVG/1.1/DTD/svg11.dtd" [
	<!ENTITY ns_flows "http://ns.adobe.com/Flows/1.0/">
	<!ENTITY ns_extend "http://ns.adobe.com/Extensibility/1.0/">
	<!ENTITY ns_ai "http://ns.adobe.com/AdobeIllustrator/10.0/">
	<!ENTITY ns_graphs "http://ns.adobe.com/Graphs/1.0/">
]>
<svg version="1.1" id="Layer_1" xmlns:x="&ns_extend;" xmlns:i="&ns_ai;" xmlns:graph="&ns_graphs;"
	 xmlns="http://www.w3.org/2000/svg" xmlns:xlink="http://www.w3.org/1999/xlink" xmlns:a="http://ns.adobe.com/AdobeSVGViewerExtensions/3.0/"
	 x="0px" y="0px" width="64px" height="64px" viewBox="0 0 64 64" enable-background="new 0 0 64 64" xml:space="preserve">
<radialGradient id="SVGID_1_" cx="32" cy="32" r="32.0376" gradientUnits="userSpaceOnUse">
	<stop  offset="0.3212" style="stop-color:#FFFFFF"/>
	<stop  offset="0.5669" style="stop-color:#FCFDFD"/>
	<stop  offset="0.7318" style="stop-color:#F3F6F7"/>
	<stop  offset="0.8726" style="stop-color:#E4E9EC"/>
	<stop  offset="1" style="stop-color:#CFD8DD"/>
	<a:midPointStop  offset="0.3212" style="stop-color:#FFFFFF"/>
	<a:midPointStop  offset="0.7818" style="stop-color:#FFFFFF"/>
	<a:midPointStop  offset="1" style="stop-color:#CFD8DD"/>
</radialGradient>
<path fill="url(#SVGID_1_)" d="M59.871,23.619c-3.297,5.914-8.045,8.792-7.717,2.438C52.793,13.459,43.263,3,32,3
	s-20.793,10.46-20.154,23.057c0.328,6.354-4.421,3.477-7.718-2.438c-1.073-1.92-4.231,11.891,8.675,19.602
	c0.572,7.02,1.467,14.908,2.861,16.881c2.311,3.26,5.183-3.398,8.9-3.398c3.717,0,3.721,4.191,7.436,4.191s3.719-4.191,7.436-4.191
	c3.718,0,6.59,6.658,8.9,3.398c1.395-1.973,2.289-9.861,2.861-16.881C64.104,35.51,60.945,21.699,59.871,23.619z"/>
<path fill="#CFD8DD" d="M61.662,24.164c-0.316-1.146-0.844-1.726-1.564-1.726c-0.215,0-0.748,0.067-1.098,0.693
	c-2.373,4.253-5.006,5.914-5.461,5.43c-0.115-0.12-0.479-0.652-0.387-2.454c0.33-6.526-2.004-12.925-6.404-17.556
	C42.731,4.327,37.494,2,32,2S21.27,4.327,17.252,8.551c-4.401,4.631-6.735,11.029-6.405,17.556c0.094,1.802-0.271,2.334-0.387,2.454
	c-0.453,0.476-3.088-1.176-5.46-5.43c-0.35-0.626-0.884-0.693-1.099-0.693c-0.722,0-1.248,0.58-1.563,1.727
	c-0.847,3.067-0.873,13.164,9.51,19.646c1.072,12.822,2.224,15.77,3.001,16.869C15.47,61.555,16.226,62,17.096,62
	c1.299,0,2.461-1.016,3.691-2.092c1.18-1.033,2.52-2.205,3.776-2.205c1.409,0,2.099,0.775,2.971,1.76
	c0.963,1.084,2.159,2.432,4.466,2.432s3.503-1.348,4.465-2.432c0.873-0.984,1.563-1.76,2.972-1.76c1.257,0,2.597,1.172,3.778,2.205
	C44.443,60.984,45.605,62,46.904,62c0.87,0,1.625-0.445,2.246-1.32c0.777-1.1,1.93-4.047,3.002-16.869
	C62.535,37.328,62.508,27.232,61.662,24.164z M59.65,30.379c-0.73,3.458-3.121,8.734-9.207,12.373
	c-0.963,11.768-2.234,15.793-2.925,16.771C47.183,59.998,46.976,60,46.905,60h-0.001c-0.547,0-1.517-0.848-2.373-1.598
	c-1.446-1.266-3.085-2.699-5.095-2.699c-2.309,0-3.506,1.348-4.468,2.432c-0.872,0.984-1.562,1.76-2.969,1.76
	s-2.097-0.775-2.969-1.76c-0.963-1.084-2.159-2.432-4.468-2.432c-2.01,0-3.648,1.434-5.095,2.699C18.612,59.152,17.644,60,17.096,60
	c-0.069,0-0.277,0-0.614-0.477c-0.691-0.979-1.962-5.004-2.925-16.771c-6.087-3.639-8.479-8.914-9.208-12.373
	c-0.429-2.027-0.403-3.751-0.248-4.87c1.693,2.607,4.052,5.137,6.143,5.137c0.65,0,1.228-0.245,1.668-0.708
	c0.726-0.764,1.031-2.05,0.936-3.933c-0.305-5.981,1.83-11.841,5.854-16.076C22.338,6.106,27.06,4,32,4s9.663,2.106,13.299,5.93
	c4.023,4.235,6.158,10.095,5.854,16.076c-0.096,1.883,0.211,3.17,0.936,3.934c0.441,0.463,1.018,0.707,1.668,0.707c0,0,0,0,0.002,0
	c2.09,0,4.447-2.529,6.141-5.137C60.055,26.628,60.08,28.353,59.65,30.379z"/>
<ellipse transform="matrix(0.342 -0.9397 0.9397 0.342 -4.3889 36.6843)" fill="#302C3B" cx="24" cy="21.476" rx="5.999" ry="3.5"/>
<ellipse transform="matrix(0.3419 -0.9397 0.9397 0.3419 -4.9025 37.9515)" fill="#4E5E67" cx="24.646" cy="22.476" rx="2.862" ry="1.669"/>
<ellipse transform="matrix(-0.342 -0.9397 0.9397 -0.342 33.0984 64.1274)" fill="#302C3B" cx="39" cy="20.476" rx="8" ry="4.5"/>
<ellipse transform="matrix(-0.342 -0.9397 0.9397 -0.342 30.6718 65.9282)" fill="#4E5E67" cx="38.417" cy="22.226" rx="3.909" ry="2.198"/>
<path fill="#1A1626" d="M42.805,31.792c-1.696,0.409-5.635,1.26-10.805,1.26s-9.108-0.851-10.805-1.26
	c-1.098-0.264-1.781,0.544-1.687,1.508C20.011,38.355,24.354,43.379,32,43.379s11.989-5.023,12.491-10.078
	C44.586,32.336,43.902,31.529,42.805,31.792z"/>
<linearGradient id="SVGID_2_" gradientUnits="userSpaceOnUse" x1="31.9995" y1="34.8682" x2="31.9995" y2="51.4922">
	<stop  offset="0" style="stop-color:#690900"/>
	<stop  offset="0.0186" style="stop-color:#76120B"/>
	<stop  offset="0.0782" style="stop-color:#9A2C2B"/>
	<stop  offset="0.1433" style="stop-color:#B94247"/>
	<stop  offset="0.2141" style="stop-color:#D2545D"/>
	<stop  offset="0.2928" style="stop-color:#E5626E"/>
	<stop  offset="0.3837" style="stop-color:#F36C7A"/>
	<stop  offset="0.4978" style="stop-color:#FB7181"/>
	<stop  offset="0.7091" style="stop-color:#FD7383"/>
	<a:midPointStop  offset="0" style="stop-color:#690900"/>
	<a:midPointStop  offset="0.1833" style="stop-color:#690900"/>
	<a:midPointStop  offset="0.7091" style="stop-color:#FD7383"/>
</linearGradient>
<path fill="url(#SVGID_2_)" d="M24.624,37.367c0,0.658,0,3.238,0,4.422c0,6.459,3.304,9.701,7.376,9.703
	c4.072-0.002,7.376-3.244,7.376-9.703c0-1.184,0-3.764,0-4.422c0-3.859-7.376-2.098-7.376-2.098S24.624,33.508,24.624,37.367z"/>
<linearGradient id="SVGID_3_" gradientUnits="userSpaceOnUse" x1="31.9985" y1="46.1738" x2="31.9985" y2="35.0703">
	<stop  offset="0" style="stop-color:#C21000;stop-opacity:0.06"/>
	<stop  offset="0.1783" style="stop-color:#BE1000;stop-opacity:0.0814"/>
	<stop  offset="0.3552" style="stop-color:#B20F00;stop-opacity:0.1026"/>
	<stop  offset="0.5314" style="stop-color:#9E0D00;stop-opacity:0.1238"/>
	<stop  offset="0.7074" style="stop-color:#820B00;stop-opacity:0.1449"/>
	<stop  offset="0.8815" style="stop-color:#5F0800;stop-opacity:0.1658"/>
	<stop  offset="1" style="stop-color:#420600;stop-opacity:0.18"/>
	<a:midPointStop  offset="0" style="stop-color:#C21000;stop-opacity:0.06"/>
	<a:midPointStop  offset="0.7091" style="stop-color:#C21000;stop-opacity:0.06"/>
	<a:midPointStop  offset="1" style="stop-color:#420600;stop-opacity:0.18"/>
</linearGradient>
<path fill="url(#SVGID_3_)" d="M30.951,35.07L32,46.174l1.046-11.104C32.415,35.17,32,35.27,32,35.27S31.582,35.17,30.951,35.07z"/>
</svg>
