<?xml version="1.0" encoding="utf-8"?>
<!-- Generator: Adobe Illustrator 15.0.0, SVG Export Plug-In . SVG Version: 6.00 Build 0)  -->
<!DOCTYPE svg PUBLIC "-//W3C//DTD SVG 1.1//EN" "http://www.w3.org/Graphics/SVG/1.1/DTD/svg11.dtd" [
	<!ENTITY ns_flows "http://ns.adobe.com/Flows/1.0/">
	<!ENTITY ns_extend "http://ns.adobe.com/Extensibility/1.0/">
	<!ENTITY ns_ai "http://ns.adobe.com/AdobeIllustrator/10.0/">
	<!ENTITY ns_graphs "http://ns.adobe.com/Graphs/1.0/">
]>
<svg version="1.1" id="Layer_1" xmlns:x="&ns_extend;" xmlns:i="&ns_ai;" xmlns:graph="&ns_graphs;"
	 xmlns="http://www.w3.org/2000/svg" xmlns:xlink="http://www.w3.org/1999/xlink" xmlns:a="http://ns.adobe.com/AdobeSVGViewerExtensions/3.0/"
	 x="0px" y="0px" width="64px" height="64px" viewBox="0 0 64 64" enable-background="new 0 0 64 64" xml:space="preserve">
<path fill="#006DAE" d="M54.256,52.779c-1.43,3.137-10.869,2.281-11.842-4.307c-0.91-0.299-2.111-0.689-2.111-0.689H23.695
	c0,0-1.201,0.391-2.111,0.689c-0.973,6.588-10.412,7.443-11.842,4.307C5.826,54.756,5,62,5,62h54C59,62,58.172,54.756,54.256,52.779
	z"/>
<path fill="#005C94" d="M21.584,48.473c0,8.123,20.83,8.123,20.83,0l-2.021-0.752H23.697L21.584,48.473z"/>
<path fill="#E6B045" d="M23.002,47.947c0,6.359,18,6.359,18,0c0-2.164,0-7.035,0-7.035h-18
	C23.002,40.912,23.002,45.783,23.002,47.947z"/>
<path fill="#F59E01" d="M9.742,52.779C9.625,52.838,9.211,62,9.211,62h19.527l-0.08-0.123c-0.049-0.076-4.939-7.207-7.602-13.23
	c-1.012,0.334-2.242,0.746-3.523,1.186c-0.596,2.4-4.129,3.072-4.705,1.674C11.504,52.002,10.391,52.453,9.742,52.779z"/>
<path fill="#302C3B" d="M9.492,62l0.25-9.221c-0.199,0.104-0.389,0.223-0.574,0.354L8.93,61.988V62H9.492z"/>
<path fill="#302C3B" d="M28.902,61.752c-0.049-0.074-4.664-7.275-7.318-13.279c-0.168,0.055-0.344,0.113-0.527,0.174
	C23.754,54.754,28.414,62,28.414,62h0.648L28.902,61.752z"/>
<path fill="#FFF82C" d="M12.828,51.502L13.184,62h5.758l-1.408-12.168C15.928,50.381,14.252,50.969,12.828,51.502z"/>
<path fill="#F59E01" d="M54.256,52.779C54.373,52.838,54.789,62,54.789,62H35.26l0.08-0.123c0.049-0.076,4.941-7.207,7.602-13.23
	c1.014,0.334,2.244,0.746,3.525,1.186c0.594,2.4,4.127,3.072,4.705,1.674C52.494,52.002,53.609,52.453,54.256,52.779z"/>
<path fill="#302C3B" d="M54.508,62l-0.252-9.221c0.201,0.104,0.391,0.223,0.574,0.354l0.24,8.855V62H54.508z"/>
<path fill="#302C3B" d="M35.096,61.752c0.049-0.074,4.666-7.275,7.318-13.279c0.17,0.055,0.344,0.113,0.527,0.174
	C40.244,54.754,35.584,62,35.584,62h-0.648L35.096,61.752z"/>
<path fill="#FFF82C" d="M51.172,51.502L50.816,62h-5.76l1.41-12.168C48.072,50.381,49.746,50.969,51.172,51.502z"/>
<path id="Path_733_" fill="#FFCC66" d="M48.439,25.394c-2.545,0.307-4.383,8.815-2.781,11.061c0.225,0.313,1.535,0.814,2.508-1.168
	c0.539-1.098,2.092-2.014,2.574-4.278C51.357,28.109,50.973,25.087,48.439,25.394z"/>
<path id="Path_732_" fill="#FFCC66" d="M15.559,25.394c2.545,0.307,4.383,8.815,2.781,11.061c-0.225,0.313-1.535,0.814-2.51-1.168
	c-0.537-1.098-2.092-2.014-2.572-4.278C12.639,28.109,13.025,25.087,15.559,25.394z"/>
<path id="Path_731_" fill="#DB9D3A" d="M48.371,27.023c-0.664,0.209-1.389,1.221-1.781,2.898c2.32-0.498,1.74,3.362-0.277,3.434
	c0.02,0.389,0.045,0.787,0.094,1.207c0.971-1.408,1.959-0.844,2.938-2.939C50.225,29.734,50.016,26.509,48.371,27.023z"/>
<path id="Path_730_" fill="#DB9D3A" d="M17.408,29.917c-0.395-1.676-1.117-2.686-1.781-2.895c-1.643-0.514-1.855,2.711-0.973,4.6
	c0.979,2.096,1.967,1.531,2.939,2.939c0.047-0.42,0.074-0.82,0.09-1.209C15.688,33.26,15.115,29.447,17.408,29.917z"/>
<path id="Path_729_" fill="#FFCC66" d="M31.998,9.035c-11.027,0-16.34,8.328-15.676,19.908c0.133,2.331,1.582,9.93,2.947,12.657
	c1.398,2.789,6.074,7.09,8.938,7.98c1.811,0.561,5.773,0.561,7.582,0c2.865-0.891,7.543-5.191,8.939-7.98
	c1.369-2.727,2.814-10.324,2.945-12.657C48.342,17.363,43.029,9.035,31.998,9.035z"/>
<path id="Path_728_" fill="#966F42" d="M43.98,24.544c-2.521-1.336-7.348-1.4-9.146-0.469c-0.387,0.178-0.131,1.441,0.193,1.322
	c2.504-0.99,6.547-1.012,8.893,0.084C44.232,25.625,44.363,24.73,43.98,24.544z"/>
<path id="Path_727_" fill="#966F42" d="M20.018,24.544c2.521-1.336,7.346-1.4,9.146-0.469c0.385,0.178,0.131,1.441-0.193,1.322
	c-2.51-0.99-6.547-1.012-8.895,0.084C19.766,25.625,19.637,24.73,20.018,24.544z"/>
<path id="Path_726_" fill="#DB9D3A" d="M34.975,36.109c-0.314-0.219-1.053,0.119-2.977,0.119c-1.92,0-2.66-0.338-2.975-0.119
	c-0.377,0.266,0.223,1.461,2.975,1.461C34.752,37.57,35.354,36.375,34.975,36.109z"/>
<path id="Path_725_" fill="#DB9D3A" d="M31.998,40.646c-2.479-0.729-6.154,0.346-6.154,0.346c1.398,1.521,2.424,3.494,6.154,3.494
	c4.275,0,5.002-2.24,6.156-3.494C38.154,40.992,34.479,39.912,31.998,40.646z"/>
<path id="Path_424_" fill="#FFFFFF" d="M26.766,41.25c2.602,2.176,7.852,2.191,10.467,0C34.461,41.367,29.557,41.369,26.766,41.25z"
	/>
<path id="Path_423_" fill="#FFFFFF" d="M29.545,29.085c0.094,0.73-0.402,1.594-1.773,2.243c-0.871,0.412-2.686,0.896-5.066-0.107
	c-1.066-0.45-2.107-1.848-2.014-2.624C21.982,26.167,28.336,25.812,29.545,29.085z"/>
<linearGradient id="Oval_1_" gradientUnits="userSpaceOnUse" x1="-424.582" y1="477.4648" x2="-424.582" y2="478.2236" gradientTransform="matrix(6.5701 0 0 -6.5701 2814.7805 3168.5281)">
	<stop  offset="0" style="stop-color:#A6694A"/>
	<stop  offset="1" style="stop-color:#4F2A1E"/>
	<a:midPointStop  offset="0" style="stop-color:#A6694A"/>
	<a:midPointStop  offset="0.5" style="stop-color:#A6694A"/>
	<a:midPointStop  offset="1" style="stop-color:#4F2A1E"/>
</linearGradient>
<circle id="Oval_66_" fill="url(#Oval_1_)" cx="25.234" cy="29.039" r="2.492"/>
<path id="Path_422_" fill="#1A1626" d="M23.986,28.992c0,1.725,2.496,1.725,2.496,0C26.482,27.392,23.986,27.392,23.986,28.992z"/>
<path id="Path_421_" fill="#AB968C" d="M23.607,28.292c0,0.723,1.045,0.723,1.045,0C24.652,27.625,23.607,27.625,23.607,28.292z"/>
<path id="Path_420_" fill="#DB9D3A" d="M29.557,29.181c-1.014-3.25-7.926-2.77-8.865-0.584
	C21.039,25.798,28.693,25.058,29.557,29.181z"/>
<path id="Path_419_" fill="#FFFFFF" d="M34.453,29.085c-0.094,0.73,0.4,1.594,1.773,2.243c0.871,0.412,2.684,0.896,5.064-0.107
	c1.07-0.45,2.109-1.848,2.016-2.624C42.016,26.167,35.66,25.812,34.453,29.085z"/>
<linearGradient id="Oval_2_" gradientUnits="userSpaceOnUse" x1="-425.23" y1="477.4648" x2="-425.23" y2="478.2236" gradientTransform="matrix(6.5701 0 0 -6.5701 2832.511 3168.5281)">
	<stop  offset="0" style="stop-color:#A6694A"/>
	<stop  offset="1" style="stop-color:#4F2A1E"/>
	<a:midPointStop  offset="0" style="stop-color:#A6694A"/>
	<a:midPointStop  offset="0.5" style="stop-color:#A6694A"/>
	<a:midPointStop  offset="1" style="stop-color:#4F2A1E"/>
</linearGradient>
<circle id="Oval_65_" fill="url(#Oval_2_)" cx="38.707" cy="29.039" r="2.492"/>
<path id="Path_418_" fill="#1A1626" d="M37.461,28.992c0,1.725,2.496,1.725,2.496,0C39.957,27.392,37.461,27.392,37.461,28.992z"/>
<path id="Path_417_" fill="#AB968C" d="M37.08,28.292c0,0.723,1.047,0.723,1.047,0C38.127,27.625,37.08,27.625,37.08,28.292z"/>
<path id="Path_416_" fill="#DB9D3A" d="M34.441,29.181c1.012-3.248,7.92-2.783,8.865-0.584
	C42.955,25.798,35.305,25.058,34.441,29.181z"/>
<path fill="#7A6056" d="M46.084,11.793C43.67,8.533,39.252,6,31.998,6c-7.252,0-11.668,2.532-14.082,5.793
	C14.498,16.41,49.5,16.41,46.084,11.793z"/>
<linearGradient id="SVGID_1_" gradientUnits="userSpaceOnUse" x1="31.9995" y1="31.793" x2="31.9995" y2="10.4121">
	<stop  offset="0.5" style="stop-color:#473834"/>
	<stop  offset="0.6387" style="stop-color:#503F3A"/>
	<stop  offset="0.8641" style="stop-color:#68524A"/>
	<stop  offset="1" style="stop-color:#7A6056"/>
	<a:midPointStop  offset="0.5" style="stop-color:#473834"/>
	<a:midPointStop  offset="0.6" style="stop-color:#473834"/>
	<a:midPointStop  offset="1" style="stop-color:#7A6056"/>
</linearGradient>
<path fill="url(#SVGID_1_)" d="M46.084,11.793c-2.414-3.261-6.832,0.275-14.086,0.275c-7.252,0-11.668-3.536-14.082-0.275
	c-3.418,4.616-2.258,20-0.736,20c0.24,0,0.275-5.381,0.736-9.104c0.373-3.029,1.094-5.969,1.924-6.449
	c2.531-1.467,7.412,0.631,12.158,0.631s9.629-2.098,12.162-0.631c0.828,0.48,1.547,3.42,1.924,6.449
	c0.459,3.723,0.494,9.104,0.734,9.104C48.34,31.793,49.5,16.41,46.084,11.793z"/>
<path fill="#FFEC00" d="M50.411,23.09H13.589C13.589,12.66,16.601,4.55,32,4.55S50.411,12.66,50.411,23.09z"/>
<path fill="#FFDB00" d="M39.862,18.47V5.487l-7.86-2.276L24.14,5.486V18.47C15.738,19.486,12,21.888,12,24.694h40
	C52,21.888,48.262,19.486,39.862,18.47z"/>
<path fill="#FFEC00" d="M38.313,20.677H25.689V5.312c0-4.416,12.623-4.416,12.623,0V20.677z"/>
</svg>
