<?xml version="1.0" encoding="utf-8"?>
<!-- Generator: Adobe Illustrator 15.0.0, SVG Export Plug-In . SVG Version: 6.00 Build 0)  -->
<!DOCTYPE svg PUBLIC "-//W3C//DTD SVG 1.1//EN" "http://www.w3.org/Graphics/SVG/1.1/DTD/svg11.dtd" [
	<!ENTITY ns_flows "http://ns.adobe.com/Flows/1.0/">
	<!ENTITY ns_extend "http://ns.adobe.com/Extensibility/1.0/">
	<!ENTITY ns_ai "http://ns.adobe.com/AdobeIllustrator/10.0/">
	<!ENTITY ns_graphs "http://ns.adobe.com/Graphs/1.0/">
]>
<svg version="1.1" id="Layer_1" xmlns:x="&ns_extend;" xmlns:i="&ns_ai;" xmlns:graph="&ns_graphs;"
	 xmlns="http://www.w3.org/2000/svg" xmlns:xlink="http://www.w3.org/1999/xlink" xmlns:a="http://ns.adobe.com/AdobeSVGViewerExtensions/3.0/"
	 x="0px" y="0px" width="64px" height="64px" viewBox="0 0 64 64" enable-background="new 0 0 64 64" xml:space="preserve">
<path fill="#006DAE" d="M54.256,52.779c-1.43,3.137-10.869,2.281-11.842-4.309c-0.91-0.299-2.111-0.688-2.111-0.688H23.695
	c0,0-1.201,0.389-2.111,0.688c-0.973,6.59-10.412,7.445-11.842,4.309C5.826,54.756,5,62,5,62h54C59,62,58.172,54.756,54.256,52.779z
	"/>
<path fill="#005C94" d="M21.584,48.471c0,8.123,20.83,8.123,20.83,0l-2.021-0.752H23.697L21.584,48.471z"/>
<path fill="#C99B71" d="M23.002,47.947c0,6.357,18,6.357,18,0c0-2.164,0-7.035,0-7.035h-18
	C23.002,40.912,23.002,45.783,23.002,47.947z"/>
<path fill="#F59E01" d="M9.742,52.779C9.625,52.838,9.211,62,9.211,62h19.527l-0.08-0.125c-0.049-0.074-4.939-7.205-7.602-13.229
	c-1.012,0.334-2.242,0.746-3.523,1.184c-0.596,2.402-4.129,3.074-4.705,1.676C11.504,52.002,10.391,52.451,9.742,52.779z"/>
<path fill="#302C3B" d="M9.492,62l0.25-9.221c-0.199,0.104-0.389,0.223-0.574,0.352L8.93,61.986V62H9.492z"/>
<path fill="#302C3B" d="M28.902,61.752c-0.049-0.076-4.664-7.277-7.318-13.281c-0.168,0.057-0.344,0.115-0.527,0.176
	C23.754,54.754,28.414,62,28.414,62h0.648L28.902,61.752z"/>
<path fill="#FFF82C" d="M12.828,51.5L13.184,62h5.758l-1.408-12.17C15.928,50.381,14.252,50.969,12.828,51.5z"/>
<path fill="#F59E01" d="M54.256,52.779C54.373,52.838,54.789,62,54.789,62H35.26l0.08-0.125c0.049-0.074,4.941-7.205,7.602-13.229
	c1.014,0.334,2.244,0.746,3.525,1.184c0.594,2.402,4.127,3.074,4.705,1.676C52.494,52.002,53.609,52.451,54.256,52.779z"/>
<path fill="#302C3B" d="M54.508,62l-0.252-9.221c0.201,0.104,0.391,0.223,0.574,0.352l0.24,8.855V62H54.508z"/>
<path fill="#302C3B" d="M35.096,61.752c0.049-0.076,4.666-7.277,7.318-13.281c0.17,0.057,0.344,0.115,0.527,0.176
	C40.244,54.754,35.584,62,35.584,62h-0.648L35.096,61.752z"/>
<path fill="#FFF82C" d="M51.172,51.5L50.816,62h-5.76l1.41-12.17C48.072,50.381,49.746,50.969,51.172,51.5z"/>
<path id="Path_1050_" fill="#EBC199" d="M48.439,25.394c-2.545,0.307-4.383,8.813-2.781,11.06c0.225,0.313,1.535,0.814,2.508-1.168
	c0.539-1.098,2.092-2.013,2.574-4.276C51.357,28.108,50.973,25.087,48.439,25.394z"/>
<path id="Path_1049_" fill="#EBC199" d="M15.559,25.394c2.545,0.307,4.383,8.813,2.781,11.06c-0.225,0.313-1.535,0.814-2.51-1.168
	c-0.537-1.098-2.092-2.013-2.572-4.276C12.639,28.108,13.025,25.087,15.559,25.394z"/>
<path id="Path_1048_" fill="#C99B71" d="M48.371,27.022c-0.664,0.209-1.389,1.221-1.781,2.898c2.32-0.498,1.74,3.361-0.277,3.434
	c0.02,0.388,0.045,0.786,0.094,1.206c0.971-1.407,1.959-0.844,2.938-2.938C50.225,29.733,50.016,26.509,48.371,27.022z"/>
<path id="Path_1047_" fill="#C99B71" d="M17.408,29.917c-0.395-1.676-1.117-2.686-1.781-2.895c-1.643-0.514-1.855,2.711-0.973,4.6
	c0.979,2.095,1.967,1.531,2.939,2.938c0.047-0.42,0.074-0.82,0.09-1.208C15.688,33.259,15.115,29.446,17.408,29.917z"/>
<path id="Path_1046_" fill="#EBC199" d="M31.998,9.034c-11.027,0-16.34,8.328-15.676,19.908c0.133,2.33,1.582,9.929,2.947,12.655
	c1.398,2.789,6.074,7.09,8.938,7.98c1.811,0.561,5.773,0.561,7.582,0c2.865-0.891,7.543-5.191,8.939-7.98
	c1.369-2.727,2.814-10.323,2.945-12.655C48.342,17.362,43.029,9.034,31.998,9.034z"/>
<path id="Path_1045_" fill="#A17C5B" d="M43.98,24.544c-2.521-1.336-7.348-1.4-9.146-0.469c-0.387,0.178-0.131,1.441,0.193,1.322
	c2.504-0.99,6.547-1.012,8.893,0.084C44.232,25.624,44.363,24.729,43.98,24.544z"/>
<path id="Path_1044_" fill="#A17C5B" d="M20.018,24.544c2.521-1.336,7.346-1.4,9.146-0.469c0.385,0.178,0.131,1.441-0.193,1.322
	c-2.51-0.99-6.547-1.012-8.895,0.084C19.766,25.624,19.637,24.729,20.018,24.544z"/>
<path id="Path_1043_" fill="#C99B71" d="M34.975,36.107c-0.314-0.219-1.053,0.119-2.977,0.119c-1.92,0-2.66-0.338-2.975-0.119
	c-0.377,0.266,0.223,1.461,2.975,1.461C34.752,37.568,35.354,36.373,34.975,36.107z"/>
<path id="Path_1042_" fill="#C99B71" d="M31.998,40.645c-2.479-0.729-6.154,0.346-6.154,0.346c1.398,1.521,2.424,3.494,6.154,3.494
	c4.275,0,5.002-2.24,6.156-3.494C38.154,40.99,34.479,39.91,31.998,40.645z"/>
<path id="Path_1041_" fill="#FFFFFF" d="M26.766,41.248c2.602,2.176,7.852,2.191,10.467,0
	C34.461,41.365,29.557,41.367,26.766,41.248z"/>
<path id="Path_1040_" fill="#FFFFFF" d="M29.545,29.085c0.094,0.73-0.402,1.594-1.773,2.242c-0.871,0.412-2.686,0.896-5.066-0.107
	c-1.066-0.449-2.107-1.848-2.014-2.623C21.982,26.167,28.336,25.812,29.545,29.085z"/>
<linearGradient id="Oval_1_" gradientUnits="userSpaceOnUse" x1="-424.582" y1="477.4658" x2="-424.582" y2="478.2236" gradientTransform="matrix(6.5701 0 0 -6.5701 2814.7805 3168.5281)">
	<stop  offset="0" style="stop-color:#A6694A"/>
	<stop  offset="1" style="stop-color:#4F2A1E"/>
	<a:midPointStop  offset="0" style="stop-color:#A6694A"/>
	<a:midPointStop  offset="0.5" style="stop-color:#A6694A"/>
	<a:midPointStop  offset="1" style="stop-color:#4F2A1E"/>
</linearGradient>
<circle id="Oval_135_" fill="url(#Oval_1_)" cx="25.234" cy="29.038" r="2.492"/>
<path id="Path_1039_" fill="#1A1626" d="M23.986,28.991c0,1.725,2.496,1.725,2.496,0C26.482,27.392,23.986,27.392,23.986,28.991z"/>
<path id="Path_1038_" fill="#AB968C" d="M23.607,28.292c0,0.723,1.045,0.723,1.045,0C24.652,27.624,23.607,27.624,23.607,28.292z"/>
<path id="Path_1037_" fill="#C99B71" d="M29.557,29.181c-1.014-3.25-7.926-2.77-8.865-0.584
	C21.039,25.798,28.693,25.058,29.557,29.181z"/>
<path id="Path_1036_" fill="#FFFFFF" d="M34.453,29.085c-0.094,0.73,0.4,1.594,1.773,2.242c0.871,0.412,2.684,0.896,5.064-0.107
	c1.07-0.449,2.109-1.848,2.016-2.623C42.016,26.167,35.66,25.812,34.453,29.085z"/>
<linearGradient id="Oval_2_" gradientUnits="userSpaceOnUse" x1="-425.23" y1="477.4658" x2="-425.23" y2="478.2236" gradientTransform="matrix(6.5701 0 0 -6.5701 2832.511 3168.5281)">
	<stop  offset="0" style="stop-color:#A6694A"/>
	<stop  offset="1" style="stop-color:#4F2A1E"/>
	<a:midPointStop  offset="0" style="stop-color:#A6694A"/>
	<a:midPointStop  offset="0.5" style="stop-color:#A6694A"/>
	<a:midPointStop  offset="1" style="stop-color:#4F2A1E"/>
</linearGradient>
<circle id="Oval_134_" fill="url(#Oval_2_)" cx="38.707" cy="29.038" r="2.492"/>
<path id="Path_1035_" fill="#1A1626" d="M37.461,28.991c0,1.725,2.496,1.725,2.496,0C39.957,27.392,37.461,27.392,37.461,28.991z"/>
<path id="Path_1034_" fill="#AB968C" d="M37.08,28.292c0,0.723,1.047,0.723,1.047,0C38.127,27.624,37.08,27.624,37.08,28.292z"/>
<path id="Path_1033_" fill="#C99B71" d="M34.441,29.181c1.012-3.248,7.92-2.783,8.865-0.584
	C42.955,25.798,35.305,25.058,34.441,29.181z"/>
<path fill="#E3BE86" d="M46.084,11.794c-2.414-3.262-6.832-5.793-14.086-5.793c-7.252,0-11.668,2.531-14.082,5.793
	C14.498,16.409,49.5,16.409,46.084,11.794z"/>
<linearGradient id="SVGID_1_" gradientUnits="userSpaceOnUse" x1="31.9995" y1="31.792" x2="31.9995" y2="10.4126">
	<stop  offset="0.5" style="stop-color:#BA9757"/>
	<stop  offset="0.6473" style="stop-color:#C29E60"/>
	<stop  offset="0.8867" style="stop-color:#D7B378"/>
	<stop  offset="1" style="stop-color:#E3BE86"/>
	<a:midPointStop  offset="0.5" style="stop-color:#BA9757"/>
	<a:midPointStop  offset="0.6" style="stop-color:#BA9757"/>
	<a:midPointStop  offset="1" style="stop-color:#E3BE86"/>
</linearGradient>
<path fill="url(#SVGID_1_)" d="M46.084,11.794c-2.414-3.262-6.832,0.275-14.086,0.275c-7.252,0-11.668-3.537-14.082-0.275
	c-3.418,4.615-2.258,19.998-0.736,19.998c0.24,0,0.275-5.381,0.736-9.104c0.373-3.029,1.094-5.969,1.924-6.449
	c2.531-1.467,7.412,0.631,12.158,0.631s9.629-2.098,12.162-0.631c0.828,0.48,1.547,3.42,1.924,6.449
	c0.459,3.723,0.494,9.104,0.734,9.104C48.34,31.792,49.5,16.409,46.084,11.794z"/>
<path fill="#FFEC00" d="M50.41,23.091H13.588C13.588,12.659,16.6,4.55,32,4.55C47.398,4.55,50.41,12.659,50.41,23.091z"/>
<path fill="#FFDB00" d="M39.861,18.47V5.487L32.002,3.21l-7.863,2.275V18.47C15.738,19.485,12,21.888,12,24.694h40
	C52,21.888,48.262,19.485,39.861,18.47z"/>
<path fill="#FFEC00" d="M38.313,20.677H25.689V5.312c0-4.416,12.623-4.416,12.623,0V20.677z"/>
</svg>
