<?xml version="1.0" encoding="utf-8"?>
<!-- Generator: Adobe Illustrator 15.0.0, SVG Export Plug-In . SVG Version: 6.00 Build 0)  -->
<!DOCTYPE svg PUBLIC "-//W3C//DTD SVG 1.1//EN" "http://www.w3.org/Graphics/SVG/1.1/DTD/svg11.dtd" [
	<!ENTITY ns_flows "http://ns.adobe.com/Flows/1.0/">
	<!ENTITY ns_extend "http://ns.adobe.com/Extensibility/1.0/">
	<!ENTITY ns_ai "http://ns.adobe.com/AdobeIllustrator/10.0/">
	<!ENTITY ns_graphs "http://ns.adobe.com/Graphs/1.0/">
]>
<svg version="1.1" id="Layer_1" xmlns:x="&ns_extend;" xmlns:i="&ns_ai;" xmlns:graph="&ns_graphs;"
	 xmlns="http://www.w3.org/2000/svg" xmlns:xlink="http://www.w3.org/1999/xlink" xmlns:a="http://ns.adobe.com/AdobeSVGViewerExtensions/3.0/"
	 x="0px" y="0px" width="64px" height="64px" viewBox="0 0 64 64" enable-background="new 0 0 64 64" xml:space="preserve">
<path fill="#CFD8DD" d="M48.467,15.533c-6.104-4.709-26.827-4.709-32.933,0C6.509,22.493,5,62,5,62h54
	C59,62,57.489,22.493,48.467,15.533z"/>
<path fill="#473834" d="M39.582,50.742c15.168-6.066,13.651-20.476,13.651-20.476H10.767c0,0-1.517,14.41,13.648,20.476
	c0,0,3.035,0.758,7.583,0.758C36.55,51.5,39.582,50.742,39.582,50.742z"/>
<linearGradient id="SVGID_1_" gradientUnits="userSpaceOnUse" x1="47.166" y1="51.498" x2="47.166" y2="6.1138">
	<stop  offset="0.05" style="stop-color:#473834"/>
	<stop  offset="0.2266" style="stop-color:#594640"/>
	<stop  offset="0.5197" style="stop-color:#715950"/>
	<stop  offset="0.7" style="stop-color:#7A6056"/>
	<a:midPointStop  offset="0.05" style="stop-color:#473834"/>
	<a:midPointStop  offset="0.4" style="stop-color:#473834"/>
	<a:midPointStop  offset="0.7" style="stop-color:#7A6056"/>
</linearGradient>
<path fill="url(#SVGID_1_)" d="M47.333,31.804c1.552,6.532,0.733,12.999-7.751,18.938c9.102-1.518,15.168-10.111,15.168-16.705
	L47.333,31.804z"/>
<linearGradient id="SVGID_2_" gradientUnits="userSpaceOnUse" x1="1763.9805" y1="51.498" x2="1763.9805" y2="6.1138" gradientTransform="matrix(-1 0 0 1 1780.8145 0)">
	<stop  offset="0.05" style="stop-color:#473834"/>
	<stop  offset="0.2266" style="stop-color:#594640"/>
	<stop  offset="0.5197" style="stop-color:#715950"/>
	<stop  offset="0.7" style="stop-color:#7A6056"/>
	<a:midPointStop  offset="0.05" style="stop-color:#473834"/>
	<a:midPointStop  offset="0.4" style="stop-color:#473834"/>
	<a:midPointStop  offset="0.7" style="stop-color:#7A6056"/>
</linearGradient>
<path fill="url(#SVGID_2_)" d="M16.667,31.804c-1.552,6.532-0.733,12.999,7.751,18.938C15.316,49.225,9.25,40.631,9.25,34.037
	L16.667,31.804z"/>
<path fill="#FFCC66" d="M12.256,52.752c2.4-1.365,12.363-4.969,12.363-4.969h14.84c0,0,9.955,3.596,12.342,4.965
	C55.271,54.732,56,62,56,62H8C8,62,8.775,54.729,12.256,52.752z"/>
<path fill="#FFCC66" d="M24.5,49.947c0,0,2.361,2.832,7.5,2.832c5.141,0,7.5-2.832,7.5-2.832v-8.035h-15V49.947z"/>
<path fill="#DB9D3A" d="M21.512,39.281c1.23,5.951,7.723,11.943,10.488,11.943c2.764,0,9.256-5.992,10.488-11.943
	C43.08,36.418,20.92,36.418,21.512,39.281z"/>
<path fill="#FFCC66" d="M32,8.276c-11.005,0-16.306,8.962-15.644,20.485c0.136,2.315,0.78,5.657,1.575,8.52
	C19.582,43.232,28.291,49.225,32,49.225c3.707,0,12.416-5.992,14.068-11.943c0.795-2.863,1.439-6.205,1.575-8.52
	C48.305,17.238,43.007,8.276,32,8.276z"/>
<path fill="#E81C27" d="M31.998,39.869c-2.578-1.133-2.599-0.045-6.58,0.221c1.494,1.699,2.595,3.881,6.579,3.881
	c4.574,0,5.347-2.479,6.585-3.881C34.597,39.824,34.58,38.736,31.998,39.869z"/>
<path fill="#FFFFFF" d="M26.613,40.514c2.6,2.705,8.205,2.67,10.772,0.002C33.384,40.945,30.616,40.945,26.613,40.514z"/>
<path fill="#966F42" d="M43.693,24.927c-2.391-1.425-6.68-1.601-8.376-0.629c-0.359,0.196-0.264,1.226,0.048,1.097
	c2.42-1.008,6.108-1.058,8.38,0.108C44.049,25.657,44.057,25.134,43.693,24.927z"/>
<path fill="#966F42" d="M20.305,24.927c2.391-1.425,6.679-1.601,8.379-0.629c0.36,0.196,0.264,1.226-0.049,1.097
	c-2.422-1.008-6.105-1.06-8.38,0.108C19.949,25.657,19.943,25.134,20.305,24.927z"/>
<path fill="#DB9D3A" d="M34.474,36.213c-0.263-0.184-0.877,0.1-2.476,0.1c-1.597,0-2.211-0.283-2.473-0.1
	c-0.314,0.221,0.185,1.217,2.473,1.217C34.287,37.43,34.789,36.436,34.474,36.213z"/>
<path id="Path_510_" fill="#FFFFFF" d="M29.552,29.25c0.093,0.727-0.401,1.591-1.771,2.238c-0.869,0.411-2.678,0.896-5.055-0.107
	c-1.065-0.448-2.104-1.847-2.01-2.62C22.005,26.333,28.346,25.977,29.552,29.25z"/>
<linearGradient id="Oval_1_" gradientUnits="userSpaceOnUse" x1="-424.5796" y1="477.4404" x2="-424.5796" y2="478.1992" gradientTransform="matrix(6.5701 0 0 -6.5701 2814.7805 3168.5281)">
	<stop  offset="0" style="stop-color:#A6694A"/>
	<stop  offset="1" style="stop-color:#4F2A1E"/>
	<a:midPointStop  offset="0" style="stop-color:#A6694A"/>
	<a:midPointStop  offset="0.5" style="stop-color:#A6694A"/>
	<a:midPointStop  offset="1" style="stop-color:#4F2A1E"/>
</linearGradient>
<circle id="Oval_80_" fill="url(#Oval_1_)" cx="25.249" cy="29.201" r="2.49"/>
<path id="Path_509_" fill="#1A1626" d="M24.005,29.156c0,1.723,2.491,1.723,2.491,0C26.496,27.556,24.005,27.556,24.005,29.156z"/>
<path id="Path_508_" fill="#AB968C" d="M23.626,28.458c0,0.723,1.044,0.723,1.044,0C24.67,27.789,23.626,27.789,23.626,28.458z"/>
<path id="Path_507_" fill="#45332C" d="M29.563,29.346c-1.012-3.251-7.908-2.771-8.847-0.585
	C21.064,25.962,28.701,25.223,29.563,29.346z"/>
<path id="Path_506_" fill="#FFFFFF" d="M34.448,29.25c-0.093,0.727,0.401,1.591,1.771,2.238c0.869,0.411,2.678,0.896,5.055-0.107
	c1.066-0.448,2.104-1.847,2.01-2.62C41.996,26.333,35.654,25.977,34.448,29.25z"/>
<linearGradient id="Oval_2_" gradientUnits="userSpaceOnUse" x1="-425.2319" y1="477.4404" x2="-425.2319" y2="478.1992" gradientTransform="matrix(6.5701 0 0 -6.5701 2832.511 3168.5281)">
	<stop  offset="0" style="stop-color:#A6694A"/>
	<stop  offset="1" style="stop-color:#4F2A1E"/>
	<a:midPointStop  offset="0" style="stop-color:#A6694A"/>
	<a:midPointStop  offset="0.5" style="stop-color:#A6694A"/>
	<a:midPointStop  offset="1" style="stop-color:#4F2A1E"/>
</linearGradient>
<circle id="Oval_79_" fill="url(#Oval_2_)" cx="38.694" cy="29.201" r="2.49"/>
<path id="Path_505_" fill="#1A1626" d="M37.45,29.156c0,1.723,2.492,1.723,2.492,0C39.942,27.556,37.45,27.556,37.45,29.156z"/>
<path id="Path_504_" fill="#AB968C" d="M37.071,28.458c0,0.723,1.044,0.723,1.044,0C38.115,27.789,37.071,27.789,37.071,28.458z"/>
<path id="Path_503_" fill="#45332C" d="M34.438,29.346c1.011-3.249,7.902-2.784,8.846-0.585
	C42.934,25.962,35.299,25.223,34.438,29.346z"/>
<linearGradient id="SVGID_3_" gradientUnits="userSpaceOnUse" x1="32.0005" y1="51.4971" x2="32.0005" y2="6.1131">
	<stop  offset="0.05" style="stop-color:#473834"/>
	<stop  offset="0.2266" style="stop-color:#594640"/>
	<stop  offset="0.5197" style="stop-color:#715950"/>
	<stop  offset="0.7" style="stop-color:#7A6056"/>
	<a:midPointStop  offset="0.05" style="stop-color:#473834"/>
	<a:midPointStop  offset="0.4" style="stop-color:#473834"/>
	<a:midPointStop  offset="0.7" style="stop-color:#7A6056"/>
</linearGradient>
<path fill="url(#SVGID_3_)" d="M44.386,9.884c1.257-1.794-9.388-5.582-19.438-3.023C14.909,9.16,9.25,24.201,9.25,34.037
	c0.898,0.713,6.396-1.064,7.417-2.233c0.416-1.721,1.071-3.492,1.683-5.328c7.539-4.365,16.07-5.393,21.992-10.617
	c-0.759,2.275,3.256,5.145,5.309,10.617c0.666,1.775,1.261,3.554,1.683,5.328c1.674,1.542,5.014,2.268,7.417,2.233
	C54.75,25.717,48.409,8.723,44.386,9.884z"/>
<path fill="#473834" d="M11.058,32.542c6.944-9.247,29.438-8.62,33.328-22.657C36.834,21.666,12.955,23.653,11.058,32.542z"/>
<path opacity="0.8" fill="#CFD8DD" d="M32.002,6C14.138,6,11.888,17.899,9.408,30.624c0,0,5.542-10.114,22.594-10.114
	c17.047,0,22.59,10.114,22.59,10.114C52.019,16.897,49.866,6,32.002,6z"/>
<path fill="#CFD8DD" d="M54.731,33.66c2.13-30.114-47.591-30.114-45.463,0C11.124,8.368,52.878,8.368,54.731,33.66z"/>
<path fill="#FFFFFF" d="M54.731,32.686c2.13-30.115-47.591-30.115-45.463,0C11.124,7.394,52.878,7.394,54.731,32.686z"/>
<path fill="#E6B045" d="M34.139,54.867c-1.203,0.887-2.139,2.9-2.139,2.9s-0.936-2.014-2.139-2.9c2.137,4.529,1.62,6.564,1.62,6.564
	h1.035C32.517,61.432,31.998,59.113,34.139,54.867z"/>
<path fill="#FFFFFF" d="M12.892,51.969c-0.073-0.889,1.264-1.996,1.875-1.354c0.479-1.197,2.096-0.535,2.138,0.127
	c0.459,7.293,2.776,9.807,0.386,11.258C12.485,60.883,9.609,52.145,12.892,51.969z"/>
<path fill="#E6EBEF" d="M14.92,51.236c-0.118,2.193,1.441,6.143,3.092,10.08C12.8,51.502,15,49.787,14.92,51.236z"/>
<path fill="#E6EBEF" d="M12.855,52.277c-0.241,0.645,0.314,4.836,4.303,9.119C13.263,56.27,13.138,51.527,12.855,52.277z"/>
<path fill="#FFFFFF" d="M51.108,51.969c0.075-0.889-1.262-1.996-1.873-1.354c-0.481-1.197-2.096-0.535-2.136,0.127
	c-0.461,7.293-2.78,9.807-0.389,11.258C51.518,60.883,54.391,52.145,51.108,51.969z"/>
<path fill="#E6EBEF" d="M49.08,51.236c0.12,2.193-1.439,6.143-3.092,10.08C51.202,51.502,49.002,49.787,49.08,51.236z"/>
<path fill="#E6EBEF" d="M51.146,52.277c0.24,0.645-0.316,4.836-4.304,9.119C50.738,56.27,50.864,51.527,51.146,52.277z"/>
<path fill="#F2F5F7" d="M32,60.771C25.284,53.188,16.143,57.439,16.143,62h31.716C47.858,57.439,38.716,53.188,32,60.771z"/>
<path fill="#45332C" d="M21.664,26.645c-0.125,0.313-0.094,0.547-0.094,0.547s-0.406,0.156-0.938-0.25
	c-0.074,0.451,0.078,0.813,0.078,0.813s-0.375,0.202-0.9-0.172c0.104,1.031,0.906,1.179,0.906,1.179S20.671,27.855,22.552,27
	C22.552,27,22.008,27.035,21.664,26.645z"/>
<path fill="#45332C" d="M42.337,26.645c0.125,0.313,0.094,0.547,0.094,0.547s0.406,0.156,0.938-0.25
	c0.074,0.451-0.078,0.813-0.078,0.813s0.375,0.202,0.9-0.172c-0.104,1.031-0.906,1.179-0.906,1.179S43.33,27.855,41.449,27
	C41.449,27,41.993,27.035,42.337,26.645z"/>
</svg>
