<?xml version="1.0" encoding="utf-8"?>
<!-- Generator: Adobe Illustrator 15.0.0, SVG Export Plug-In . SVG Version: 6.00 Build 0)  -->
<!DOCTYPE svg PUBLIC "-//W3C//DTD SVG 1.1//EN" "http://www.w3.org/Graphics/SVG/1.1/DTD/svg11.dtd" [
	<!ENTITY ns_flows "http://ns.adobe.com/Flows/1.0/">
	<!ENTITY ns_extend "http://ns.adobe.com/Extensibility/1.0/">
	<!ENTITY ns_ai "http://ns.adobe.com/AdobeIllustrator/10.0/">
	<!ENTITY ns_graphs "http://ns.adobe.com/Graphs/1.0/">
]>
<svg version="1.1" id="Layer_1" xmlns:x="&ns_extend;" xmlns:i="&ns_ai;" xmlns:graph="&ns_graphs;"
	 xmlns="http://www.w3.org/2000/svg" xmlns:xlink="http://www.w3.org/1999/xlink" xmlns:a="http://ns.adobe.com/AdobeSVGViewerExtensions/3.0/"
	 x="0px" y="0px" width="64px" height="64px" viewBox="0 0 64 64" enable-background="new 0 0 64 64" xml:space="preserve">
<linearGradient id="SVGID_1_" gradientUnits="userSpaceOnUse" x1="48.8633" y1="27.791" x2="48.8633" y2="2.603" gradientTransform="matrix(0.9662 0 0 1 -19.9251 -0.3242)">
	<stop  offset="0.05" style="stop-color:#473834"/>
	<stop  offset="0.2266" style="stop-color:#594640"/>
	<stop  offset="0.5197" style="stop-color:#715950"/>
	<stop  offset="0.7" style="stop-color:#7A6056"/>
	<a:midPointStop  offset="0.05" style="stop-color:#473834"/>
	<a:midPointStop  offset="0.4" style="stop-color:#473834"/>
	<a:midPointStop  offset="0.7" style="stop-color:#7A6056"/>
</linearGradient>
<path fill="url(#SVGID_1_)" d="M39.4,11.842c0.002-4.764-2.736-7.923-3.771-7.837c0.374-0.611-2.442-2.326-5.794-1.51
	c-8.726,2.125-8.278,8.317-12.497,13.696c2.031-0.722,3.042-2.542,3.042-2.542s-1.042,3.451-5.208,5.492c0,0,3.146,1.25,6.354,0.958
	c0,0-2.917,1.167-5.771,1.083c1.399,2.667,4.552,5.88,8.787,5.224c0,0-1.011,0.563-2.62,0.776
	C32.193,29.12,39.398,20.85,39.4,11.842z"/>
<path fill="#B00505" d="M6.238,34.559C2.628,42.09,8.027,42.371,8.39,46.758c0.496,6.021,8.986,0.043,10.553,4.186
	c2.279,6.027,8.586-3.553,13.896,1.902c4.005,4.111,4.242-6.25,11.681-3.848c7.852,2.537,0.973-7.924,7.938-6.088
	c4.738,1.248,9.877-6.51,3.707-12.552C53.727,36.794,10.162,43.143,6.238,34.559z"/>
<path fill="#FFCC66" d="M32.664,35.578c-12.189-0.322-7.748,2.641-6.416,10.973c-4.25,2.746-4.186,3.902-7.588,7.648
	c-2.195,2.418-7.625,6.992-4.039,7.1c2.885,0.086,1.82-4.451,5.447-6.307c7.262-3.713,7.164-4.889,10.346-7.258
	C31.152,47.188,34.726,40.658,32.664,35.578z"/>
<path fill="#E03636" d="M18.269,54.039c-0.348,0.383,0.697,1.883,1.316,1.609C20.017,55.459,18.982,53.252,18.269,54.039z"/>
<path fill="#E03636" d="M36.771,58.371c0.287,0.547,1.359-0.953,1.359-0.953c0.934,5.852,2.84-2.389,1.631-3.008
	C36.13,54.375,38.587,55.682,36.771,58.371z"/>
<path fill="#FFCC66" d="M31.019,34.713c2.384,2.623,1.424,6.408,9.185,10.561c-3.381,4.221,0.52,6.391-1.137,9.82
	c-1.4,2.9-0.494,7.598,2.994,6.82c1.17-0.262-1.813,0.293-0.74-7.492c0.646-4.707,2.805-8.098,2.232-9.518
	C42.091,41.283,39.28,33.352,31.019,34.713z"/>
<path fill="#E03636" d="M38.817,54.039c0,0.736,2.906,1.307,2.867,0.5C41.663,54.09,38.817,53.65,38.817,54.039z"/>
<path fill="#E03636" d="M38.935,60.385c-0.828,0.889,1.1,1.574,1.135,1.289c0.111-0.918,0.844-1.238,1.492-1.344
	C42.003,59.406,39.206,60.094,38.935,60.385z"/>
<path fill="#E03636" d="M16.355,60.297c-0.088-0.791-1.797-1.971-2.717-0.455C14.087,56.742,18.08,58.543,16.355,60.297z"/>
<path fill="#FFCC66" d="M40.304,6.019c-0.279-0.497,2.646-2.141,1.139-1.878C39.808,4.424,44.359,2,43.188,2
	c-1.012,0-5.873,2.356-4.967,3.847c1.967,3.237,2.385,6.366,2.773,8.447c-4.463,1.804-4.008,0.939-7.703,2.371
	c0,0-5.3-5.239-4.032,1.121c0.089,0.442-0.884,1.211-0.884,1.211s-1.328,0-2.809,1.25c-1.119,0.946-4.117,1.935-5.5,2.636
	c-1.123,0.57-5.469,2.754-8.088,5.363c-0.662,0.658-4.475-1.391-2.627,0.148c1.412,1.176-3.938-1.465-2.598-0.146
	c2.102,2.074,5.297,2.678,6.098,1.74c2.297-2.689,4.84-1.99,8.158-4.412c4.627-1.541,5.5-2.66,6.963-2.668
	c1.324,2.25,9.55,1.795,8.677-3.72c0.254-0.988,4.344-1.699,6.973-3.091C44.366,15.706,43.247,11.283,40.304,6.019z"/>
<path fill="#E03636" d="M27.974,22.909c1.408,2.732,1.408,6.881-0.107,7.42c-3.656,1.299-11.689,9.833-21.629,4.23
	c-2.914,8.141,4.453,3.828,5.951,9.408c1.893,7.053,5-2.916,10.826,0.254c6.006,3.27,5.758-5.471,13.183-3.807
	c7.529,1.686,3.922-5.727,8.707-2.02c3.58,2.775,13.855-5.055,11.26-8.037c-6.595,5.697-21.709,3.279-20.014-0.193
	c1.605-3.285,0.625-5.104,1.184-5.385c1.432-0.725,3.357-2.713-0.143-5.241c-0.721-0.522-1.328-3.021-3.586-3.592
	c-1.49,0.648,2.053,0.477,2.053,3.745c-0.799,1.943-2.354,1.49-3.824,0.632c-2.857-1.668-3.111-2.042-3.5-1.527
	c-0.188,0.486,2.604,2.129,2.139,3.948C29.339,24.317,27.974,22.909,27.974,22.909z"/>
<path fill="#D12828" d="M27.312,34.781c-5.785,6.525-12.744,6.182-16.162,7.244c0.445,0.471,0.813,1.09,1.041,1.941
	c1.23,4.59,2.979,1.973,5.652,0.457C18.917,41.342,23.771,41.084,27.312,34.781z"/>
<path fill="#D12828" d="M30.191,34.055c-0.898,5.51-4.119,8.439-6.41,10.525c1.752,0.717,2.932,0.313,3.986-0.49
	C27.894,41.771,30.464,39.357,30.191,34.055z"/>
<path fill="#D12828" d="M33.534,32.555c-0.113,4.765,2.713,5.57,2.32,7.794c0.115,0.021,0.227,0.037,0.346,0.064
	c2.711,0.607,3.975,0.033,4.711-0.775C39.276,38.434,34.735,37.896,33.534,32.555z"/>
<path fill="#D12828" d="M44.758,38.591c2.115,1.943,8.625-1.438,10.554-4.351c-3.272,4.226-12.58,3.574-17.682-0.535
	c1.736,2.219,3.5,3.064,4.959,3.678C43.04,37.236,43.602,37.528,44.758,38.591z"/>
<path fill="#D12828" d="M24.423,32.276L24.423,32.276c-4.268,2.687-10.682,6.511-18.184,2.283c-1.197,3.344-0.658,4.584,0.494,5.275
	C9.335,37.389,21.056,38.27,24.423,32.276z"/>
<path fill="#D12828" d="M31.376,25.35c0.777,1.65,3.714,1.463,4.152-0.178C34.591,26.032,32.435,25.844,31.376,25.35z"/>
<path fill="#E6B045" d="M27.743,14.485c0.434,2.093,2.717,4.201,3.689,4.201s3.255-2.108,3.689-4.201
	C35.329,13.478,27.536,13.478,27.743,14.485z"/>
<path fill="#FFCC66" d="M34.366,6.246c-2.083,1.838-5.083,2.199-7.735,3.734c-0.589,0.958-0.325,3.161-0.147,3.8
	c0.581,2.094,3.645,4.202,4.948,4.202c1.305,0,4.367-2.108,4.949-4.202c0.178-0.639,0.327-1.339,0.43-1.979
	C36.619,9.438,34.354,8.06,34.366,6.246z"/>
<path fill="#D47706" d="M31.432,14.692c-0.907-0.399-0.914-0.016-2.314,0.077c0.525,0.598,0.912,1.365,2.314,1.365
	c1.608,0,1.879-0.872,2.316-1.365C32.346,14.676,32.34,14.293,31.432,14.692z"/>
<path fill="#FFFFFF" d="M29.538,14.919c0.914,0.951,2.887,0.938,3.789,0C31.918,15.07,30.946,15.07,29.538,14.919z"/>
<path fill="#966F42" d="M35.545,9.436c-0.842-0.502-2.35-0.563-2.945-0.222c-0.127,0.069-0.094,0.431,0.016,0.386
	c0.851-0.354,2.149-0.373,2.948,0.038C35.67,9.693,35.674,9.509,35.545,9.436z"/>
<path fill="#966F42" d="M27.319,9.436c0.841-0.502,2.349-0.563,2.947-0.222c0.127,0.069,0.093,0.431-0.018,0.386
	c-0.852-0.354-2.146-0.373-2.947,0.038C27.194,9.693,27.191,9.509,27.319,9.436z"/>
<path fill="#DB9D3A" d="M32.303,13.405c-0.092-0.064-0.309,0.035-0.871,0.035s-0.777-0.099-0.869-0.035
	c-0.111,0.079,0.064,0.428,0.869,0.428S32.413,13.484,32.303,13.405z"/>
<path id="Path_266_" fill="#FFFFFF" d="M30.572,10.957c0.032,0.255-0.142,0.559-0.623,0.787c-0.306,0.145-0.942,0.315-1.778-0.038
	c-0.374-0.157-0.739-0.649-0.706-0.921C27.917,9.929,30.147,9.806,30.572,10.957z"/>
<linearGradient id="Oval_1_" gradientUnits="userSpaceOnUse" x1="-424" y1="480.4658" x2="-424" y2="480.7324" gradientTransform="matrix(6.5701 0 0 -6.5701 2814.7805 3168.5281)">
	<stop  offset="0" style="stop-color:#A6694A"/>
	<stop  offset="1" style="stop-color:#4F2A1E"/>
	<a:midPointStop  offset="0" style="stop-color:#A6694A"/>
	<a:midPointStop  offset="0.5" style="stop-color:#A6694A"/>
	<a:midPointStop  offset="1" style="stop-color:#4F2A1E"/>
</linearGradient>
<circle id="Oval_44_" fill="url(#Oval_1_)" cx="29.058" cy="10.939" r="0.875"/>
<path id="Path_265_" fill="#1A1626" d="M28.621,10.923c0,0.606,0.876,0.606,0.876,0C29.497,10.361,28.621,10.361,28.621,10.923z"/>
<path id="Path_264_" fill="#AB968C" d="M28.487,10.678c0,0.254,0.367,0.254,0.367,0C28.854,10.442,28.487,10.442,28.487,10.678z"/>
<path id="Path_263_" fill="#45332C" d="M30.576,10.99c-0.355-1.144-2.782-0.975-3.111-0.206C27.586,9.8,30.272,9.54,30.576,10.99z"
	/>
<path id="Path_262_" fill="#FFFFFF" d="M32.293,10.957c-0.032,0.255,0.143,0.559,0.623,0.787c0.305,0.145,0.942,0.315,1.777-0.038
	c0.376-0.157,0.74-0.649,0.707-0.921C34.948,9.929,32.717,9.806,32.293,10.957z"/>
<linearGradient id="Oval_2_" gradientUnits="userSpaceOnUse" x1="-425.979" y1="480.4658" x2="-425.979" y2="480.7324" gradientTransform="matrix(6.5701 0 0 -6.5701 2832.511 3168.5281)">
	<stop  offset="0" style="stop-color:#A6694A"/>
	<stop  offset="1" style="stop-color:#4F2A1E"/>
	<a:midPointStop  offset="0" style="stop-color:#A6694A"/>
	<a:midPointStop  offset="0.5" style="stop-color:#A6694A"/>
	<a:midPointStop  offset="1" style="stop-color:#4F2A1E"/>
</linearGradient>
<circle id="Oval_43_" fill="url(#Oval_2_)" cx="33.787" cy="10.939" r="0.875"/>
<path id="Path_261_" fill="#1A1626" d="M33.35,10.923c0,0.606,0.876,0.606,0.876,0C34.226,10.361,33.35,10.361,33.35,10.923z"/>
<path id="Path_260_" fill="#AB968C" d="M33.216,10.678c0,0.254,0.366,0.254,0.366,0C33.582,10.442,33.216,10.442,33.216,10.678z"/>
<path id="Path_259_" fill="#45332C" d="M32.29,10.99c0.355-1.143,2.78-0.979,3.111-0.206C35.278,9.8,32.593,9.54,32.29,10.99z"/>
<path fill="#473834" d="M24.066,12.114c2.443-3.252,10.307-2.43,11.563-8.109C33.108,8.699,24.733,8.988,24.066,12.114z"/>
</svg>
