<?xml version="1.0" encoding="utf-8"?>
<!-- Generator: Adobe Illustrator 15.0.0, SVG Export Plug-In . SVG Version: 6.00 Build 0)  -->
<!DOCTYPE svg PUBLIC "-//W3C//DTD SVG 1.1//EN" "http://www.w3.org/Graphics/SVG/1.1/DTD/svg11.dtd" [
	<!ENTITY ns_flows "http://ns.adobe.com/Flows/1.0/">
	<!ENTITY ns_extend "http://ns.adobe.com/Extensibility/1.0/">
	<!ENTITY ns_ai "http://ns.adobe.com/AdobeIllustrator/10.0/">
	<!ENTITY ns_graphs "http://ns.adobe.com/Graphs/1.0/">
]>
<svg version="1.1" id="Layer_1" xmlns:x="&ns_extend;" xmlns:i="&ns_ai;" xmlns:graph="&ns_graphs;"
	 xmlns="http://www.w3.org/2000/svg" xmlns:xlink="http://www.w3.org/1999/xlink" xmlns:a="http://ns.adobe.com/AdobeSVGViewerExtensions/3.0/"
	 x="0px" y="0px" width="64px" height="64px" viewBox="0 0 64 64" enable-background="new 0 0 64 64" xml:space="preserve">
<path fill="#99A8AE" d="M21.898,7.608c-1.093,0.393-3.347,1.698-3.347,1.698c-0.049,0.529,8.267,15.244,9.088,16.211
	C32.553,22.679,22.09,8.53,21.898,7.608z"/>
<radialGradient id="SVGID_1_" cx="44.7451" cy="44.207" r="24.1751" gradientTransform="matrix(-0.7724 0.7228 -0.5897 -0.4994 92.904 34.1571)" gradientUnits="userSpaceOnUse">
	<stop  offset="0.7697" style="stop-color:#EEF8FF"/>
	<stop  offset="0.8177" style="stop-color:#E8F2F8"/>
	<stop  offset="0.8865" style="stop-color:#D6DFE5"/>
	<stop  offset="0.9675" style="stop-color:#BAC2C6"/>
	<stop  offset="1" style="stop-color:#ADB4B8"/>
	<a:midPointStop  offset="0.7697" style="stop-color:#EEF8FF"/>
	<a:midPointStop  offset="0.6296" style="stop-color:#EEF8FF"/>
	<a:midPointStop  offset="1" style="stop-color:#ADB4B8"/>
</radialGradient>
<path fill="url(#SVGID_1_)" d="M33.692,22.003C-8.38,35.68,4.851,72.389,35.075,59.178C70.33,43.769,57.971,17.733,33.692,22.003z
	 M33.553,57.811C2.126,68.429,5.344,35.798,34.381,28.468C61.636,21.586,60.453,48.726,33.553,57.811z"/>
<linearGradient id="SVGID_2_" gradientUnits="userSpaceOnUse" x1="25.1724" y1="18.3472" x2="31.703" y2="35.7893">
	<stop  offset="0.2606" style="stop-color:#EDF8FF"/>
	<stop  offset="1" style="stop-color:#EEF8FF;stop-opacity:0"/>
	<a:midPointStop  offset="0.2606" style="stop-color:#EDF8FF"/>
	<a:midPointStop  offset="0.5" style="stop-color:#EDF8FF"/>
	<a:midPointStop  offset="1" style="stop-color:#EEF8FF;stop-opacity:0"/>
</linearGradient>
<path fill="url(#SVGID_2_)" d="M12.238,40.291c6.588-7.526,13.857-11.692,22.428-13.797c6.563-1.613,13.178-1.08,17.809,2.271
	c3.031,2.193,0.992-1.648-1.165-3.559c-4.173-3.047-10.362-4.479-17.621-3.203c-10.332,3.359-17.323,8.11-21.552,13.168
	C8.993,39.384,7.399,45.824,12.238,40.291z"/>
<linearGradient id="SVGID_3_" gradientUnits="userSpaceOnUse" x1="14.8452" y1="59.4473" x2="55.3416" y2="36.0667">
	<stop  offset="0" style="stop-color:#E6F2F7"/>
	<stop  offset="0.1212" style="stop-color:#858C8F"/>
	<stop  offset="0.6303" style="stop-color:#EEF8FF"/>
	<stop  offset="0.6744" style="stop-color:#E7F1F8"/>
	<stop  offset="0.7377" style="stop-color:#D5DFE5"/>
	<stop  offset="0.8124" style="stop-color:#B8C1C6"/>
	<stop  offset="0.8909" style="stop-color:#919A9E"/>
	<stop  offset="1" style="stop-color:#DAE7ED"/>
	<a:midPointStop  offset="0" style="stop-color:#E6F2F7"/>
	<a:midPointStop  offset="0.5" style="stop-color:#E6F2F7"/>
	<a:midPointStop  offset="0.1212" style="stop-color:#858C8F"/>
	<a:midPointStop  offset="0.5" style="stop-color:#858C8F"/>
	<a:midPointStop  offset="0.6303" style="stop-color:#EEF8FF"/>
	<a:midPointStop  offset="0.6296" style="stop-color:#EEF8FF"/>
	<a:midPointStop  offset="0.8909" style="stop-color:#919A9E"/>
	<a:midPointStop  offset="0.5" style="stop-color:#919A9E"/>
	<a:midPointStop  offset="1" style="stop-color:#DAE7ED"/>
</linearGradient>
<path fill="url(#SVGID_3_)" d="M51.093,29.883c3.548,7.108-2.96,19.648-18.913,25.273c-12.411,4.376-19.176,1.401-20.899-4.118
	c0.258,7.11,7.485,12.058,22.395,7.022C52.684,51.639,58.727,35.959,51.093,29.883z"/>
<path fill="#99A8AE" d="M41.252,2.908c-5.854-0.425,0.201,7.163,0.434,5.934S41.513,3.038,41.252,2.908z"/>
<path fill="#B5E9FF" d="M21.1,16.684c5.354,9.785,16.504,8.016,16.504,8.016s8.74-1.506,10.145-10.869
	C47.34,8.619,22.811,2.849,21.1,16.684z"/>
<path fill="#1FB7FF" d="M34.674,21.848l2.931,2.852l3.04-3.974C38.474,19.714,34.674,21.848,34.674,21.848z"/>
<path fill="#E8F8FF" d="M29.232,21.439l3.479,3.175l1.962-2.767C32.504,20.837,29.232,21.439,29.232,21.439z"/>
<path fill="#6ED1FF" d="M40.645,20.726l2.15,1.6l1.909-3.921C42.533,17.394,40.645,20.726,40.645,20.726z"/>
<polygon fill="#E6F7FF" points="23.662,13.691 27.639,11.864 25.289,8.49 "/>
<polygon fill="#6ED1FF" points="29.611,16.586 34.026,13.3 27.639,11.864 "/>
<polygon fill="#6ED1FF" points="22.077,8.584 25.289,8.49 27.534,4.817 "/>
<path fill="#A8E6FF" d="M23.662,13.691l1.627-5.201l-3.212,0.094c0,0-1.731,2.531-1.744,5.465L23.662,13.691z"/>
<path fill="#1FB7FF" d="M23.662,13.691l-3.329,0.357c0,0,0.002,1.543,0.768,2.635L23.662,13.691z"/>
<path fill="#6ED1FF" d="M21.1,16.684c0,0,1.101,1.764,3.182,2.997l-0.62-5.989L21.1,16.684z"/>
<path fill="#1FB7FF" d="M24.282,19.681c0,0,2.037,1.496,4.396,1.789l0.933-4.884L24.282,19.681z"/>
<path fill="#6ED1FF" d="M29.611,16.586l-0.933,4.884c3.046,0.291,5.996,0.378,5.996,0.378L29.611,16.586z"/>
<polygon fill="#C7EEFF" points="39.086,4.097 33.208,3.215 27.534,4.817 25.289,8.49 27.639,11.864 34.026,13.3 40.12,11.084 
	41.906,7.447 "/>
<polygon fill="#6ED1FF" points="44.356,12.396 40.12,11.084 41.906,7.447 "/>
<polygon fill="#E6F7FF" points="38.934,16.008 34.026,13.3 40.12,11.084 "/>
<path fill="#75D6FF" d="M34.026,13.3"/>
<polygon fill="#6ED1FF" points="44.87,7.383 41.906,7.447 39.086,4.097 "/>
<path fill="#B5E9FF" d="M44.356,12.396l-2.45-4.949l2.964-0.064c0,0,2.347,2.049,2.84,4.955L44.356,12.396z"/>
<path fill="#E6F7FF" d="M44.356,12.396l3.354-0.059c0,0,0.243,1.521-0.34,2.699L44.356,12.396z"/>
<path fill="#6ED1FF" d="M47.37,15.037c0,0-0.802,1.884-2.666,3.367l-0.348-6.008L47.37,15.037z"/>
<path fill="#1FB7FF" d="M44.704,18.404c0,0-1.767,1.731-4.06,2.321l-1.711-4.718L44.704,18.404z"/>
<path fill="#6ED1FF" d="M38.934,16.008l1.711,4.718c-2.971,0.663-5.971,1.122-5.971,1.122L38.934,16.008z"/>
<linearGradient id="SVGID_4_" gradientUnits="userSpaceOnUse" x1="26.4868" y1="23.6973" x2="34.3809" y2="23.6973">
	<stop  offset="0" style="stop-color:#858C8F"/>
	<stop  offset="1" style="stop-color:#EEF8FF"/>
	<a:midPointStop  offset="0" style="stop-color:#858C8F"/>
	<a:midPointStop  offset="0.5" style="stop-color:#858C8F"/>
	<a:midPointStop  offset="1" style="stop-color:#EEF8FF"/>
</linearGradient>
<path fill="url(#SVGID_4_)" d="M31.249,21.675c0,0,1.985,4.16,3.132,6.793c-1.93,1.848-1.519,1.152-3.253,0.96
	c-0.234-0.026-1.382-3.481-4.641-8.626c2.399-1.272,5.105-3.124,5.105-3.124S31.163,21.566,31.249,21.675z"/>
<linearGradient id="SVGID_5_" gradientUnits="userSpaceOnUse" x1="36.2373" y1="20.3291" x2="50.958" y2="20.3291">
	<stop  offset="0" style="stop-color:#EEF8FF"/>
	<stop  offset="1" style="stop-color:#858C8F"/>
	<a:midPointStop  offset="0" style="stop-color:#EEF8FF"/>
	<a:midPointStop  offset="0.5" style="stop-color:#EEF8FF"/>
	<a:midPointStop  offset="1" style="stop-color:#858C8F"/>
</linearGradient>
<path fill="url(#SVGID_5_)" d="M46.773,15.888c0.573-0.746-0.107-1.302-1.486-2.51c3.059-0.078,5.671-1.152,5.671-1.152
	c-2.836,6.802-12.043,15.884-12.493,16.181c-0.227,0.148-2.228-0.364-2.228-0.364S41.475,22.779,46.773,15.888z"/>
<linearGradient id="SVGID_6_" gradientUnits="userSpaceOnUse" x1="-5.5898" y1="62.2637" x2="-1.6338" y2="62.2637" gradientTransform="matrix(0.9487 0.3163 -0.3163 0.9487 52.2085 -38.6686)">
	<stop  offset="0" style="stop-color:#919A9E"/>
	<stop  offset="0.4011" style="stop-color:#BCC5CB"/>
	<stop  offset="0.7938" style="stop-color:#E0EAF1"/>
	<stop  offset="1" style="stop-color:#EEF8FF"/>
	<a:midPointStop  offset="0" style="stop-color:#919A9E"/>
	<a:midPointStop  offset="0.4364" style="stop-color:#919A9E"/>
	<a:midPointStop  offset="1" style="stop-color:#EEF8FF"/>
</linearGradient>
<polygon fill="url(#SVGID_6_)" points="30.434,21.47 26.487,20.802 28.801,17.124 31.592,17.678 "/>
<linearGradient id="SVGID_7_" gradientUnits="userSpaceOnUse" x1="46.1807" y1="12.542" x2="50.3057" y2="13.625">
	<stop  offset="0" style="stop-color:#EEF8FF"/>
	<stop  offset="0.2062" style="stop-color:#E0EAF1"/>
	<stop  offset="0.5989" style="stop-color:#BCC5CB"/>
	<stop  offset="1" style="stop-color:#919A9E"/>
	<a:midPointStop  offset="0" style="stop-color:#EEF8FF"/>
	<a:midPointStop  offset="0.5636" style="stop-color:#EEF8FF"/>
	<a:midPointStop  offset="1" style="stop-color:#919A9E"/>
</linearGradient>
<polygon fill="url(#SVGID_7_)" points="50.958,12.226 49.262,14.922 45.287,13.378 47.114,11.389 "/>
<linearGradient id="SVGID_8_" gradientUnits="userSpaceOnUse" x1="-16.7539" y1="54.4512" x2="-11.9512" y2="54.4512" gradientTransform="matrix(0.9487 0.3163 -0.3163 0.9487 52.2085 -38.6686)">
	<stop  offset="0" style="stop-color:#919A9E"/>
	<stop  offset="0.4011" style="stop-color:#BCC5CB"/>
	<stop  offset="0.7938" style="stop-color:#E0EAF1"/>
	<stop  offset="1" style="stop-color:#EEF8FF"/>
	<a:midPointStop  offset="0" style="stop-color:#919A9E"/>
	<a:midPointStop  offset="0.4364" style="stop-color:#919A9E"/>
	<a:midPointStop  offset="1" style="stop-color:#EEF8FF"/>
</linearGradient>
<polygon fill="url(#SVGID_8_)" points="22.077,10.446 18.551,9.307 21.1,6.559 24.025,8.074 "/>
<linearGradient id="SVGID_9_" gradientUnits="userSpaceOnUse" x1="37.9863" y1="4.7832" x2="39.4863" y2="2.0752">
	<stop  offset="0" style="stop-color:#EEF8FF"/>
	<stop  offset="0.2062" style="stop-color:#E0EAF1"/>
	<stop  offset="0.5989" style="stop-color:#BCC5CB"/>
	<stop  offset="1" style="stop-color:#919A9E"/>
	<a:midPointStop  offset="0" style="stop-color:#EEF8FF"/>
	<a:midPointStop  offset="0.5636" style="stop-color:#EEF8FF"/>
	<a:midPointStop  offset="1" style="stop-color:#919A9E"/>
</linearGradient>
<polygon fill="url(#SVGID_9_)" points="39.715,4.958 36.541,4.063 37.301,2 41.252,2.908 "/>
</svg>
