<?xml version="1.0" encoding="utf-8"?>
<!-- Generator: Adobe Illustrator 15.0.0, SVG Export Plug-In . SVG Version: 6.00 Build 0)  -->
<!DOCTYPE svg PUBLIC "-//W3C//DTD SVG 1.1//EN" "http://www.w3.org/Graphics/SVG/1.1/DTD/svg11.dtd" [
	<!ENTITY ns_flows "http://ns.adobe.com/Flows/1.0/">
	<!ENTITY ns_extend "http://ns.adobe.com/Extensibility/1.0/">
	<!ENTITY ns_ai "http://ns.adobe.com/AdobeIllustrator/10.0/">
	<!ENTITY ns_graphs "http://ns.adobe.com/Graphs/1.0/">
]>
<svg version="1.1" id="Layer_1" xmlns:x="&ns_extend;" xmlns:i="&ns_ai;" xmlns:graph="&ns_graphs;"
	 xmlns="http://www.w3.org/2000/svg" xmlns:xlink="http://www.w3.org/1999/xlink" xmlns:a="http://ns.adobe.com/AdobeSVGViewerExtensions/3.0/"
	 x="0px" y="0px" width="64px" height="64px" viewBox="0 0 64 64" enable-background="new 0 0 64 64" xml:space="preserve">
<linearGradient id="SVGID_1_" gradientUnits="userSpaceOnUse" x1="48.8633" y1="27.7905" x2="48.8633" y2="2.6021" gradientTransform="matrix(0.9662 0 0 1 -19.9251 -0.3242)">
	<stop  offset="0.05" style="stop-color:#3B2118"/>
	<stop  offset="0.112" style="stop-color:#40251C"/>
	<stop  offset="0.4761" style="stop-color:#58392F"/>
	<stop  offset="0.7" style="stop-color:#614036"/>
	<a:midPointStop  offset="0.05" style="stop-color:#3B2118"/>
	<a:midPointStop  offset="0.4" style="stop-color:#3B2118"/>
	<a:midPointStop  offset="0.7" style="stop-color:#614036"/>
</linearGradient>
<path fill="url(#SVGID_1_)" d="M39.4,11.842c0.002-4.764-2.736-7.924-3.77-7.838c0.373-0.609-2.443-2.326-5.794-1.51
	c-8.727,2.125-8.279,8.318-12.498,13.695c2.031-0.721,3.043-2.541,3.043-2.541s-1.043,3.449-5.209,5.492c0,0,3.146,1.25,6.354,0.957
	c0,0-2.916,1.168-5.771,1.084c1.4,2.666,4.553,5.881,8.787,5.225c0,0-1.01,0.563-2.619,0.775
	C32.194,29.119,39.398,20.85,39.4,11.842z"/>
<path fill="#B00505" d="M6.237,34.559c-3.609,7.531,1.789,7.813,2.152,12.199c0.496,6.021,8.988,0.043,10.555,4.186
	c2.279,6.027,8.586-3.553,13.896,1.902c4.005,4.111,4.242-6.25,11.681-3.848c7.852,2.537,0.973-7.924,7.938-6.088
	c4.738,1.248,9.877-6.51,3.707-12.553C53.727,36.793,10.161,43.143,6.237,34.559z"/>
<path fill="#916B50" d="M32.665,35.578c-12.189-0.322-7.748,2.641-6.416,10.973c-4.25,2.746-4.186,3.902-7.588,7.648
	c-2.195,2.418-7.627,6.992-4.041,7.1c2.887,0.086,1.822-4.451,5.449-6.307c7.262-3.713,7.164-4.889,10.346-7.258
	C31.153,47.188,34.727,40.658,32.665,35.578z"/>
<path fill="#E03636" d="M18.27,54.039c-0.348,0.383,0.697,1.883,1.316,1.609C20.018,55.459,18.983,53.252,18.27,54.039z"/>
<path fill="#E03636" d="M36.771,58.371c0.287,0.547,1.359-0.953,1.359-0.953c0.934,5.852,2.84-2.389,1.631-3.008
	C36.131,54.375,38.588,55.682,36.771,58.371z"/>
<path fill="#916B50" d="M31.02,34.713c2.384,2.623,1.424,6.408,9.185,10.561c-3.381,4.221,0.52,6.391-1.137,9.82
	c-1.4,2.9-0.494,7.598,2.994,6.82c1.17-0.262-1.813,0.293-0.74-7.492c0.646-4.707,2.805-8.098,2.232-9.518
	C42.092,41.283,39.281,33.352,31.02,34.713z"/>
<path fill="#E03636" d="M38.818,54.039c0,0.736,2.906,1.307,2.867,0.5C41.664,54.09,38.818,53.65,38.818,54.039z"/>
<path fill="#E03636" d="M38.936,60.385c-0.828,0.889,1.1,1.574,1.135,1.289c0.111-0.918,0.844-1.238,1.492-1.344
	C42.004,59.406,39.207,60.094,38.936,60.385z"/>
<path fill="#E03636" d="M16.356,60.297c-0.088-0.791-1.799-1.971-2.719-0.455C14.086,56.742,18.081,58.543,16.356,60.297z"/>
<path fill="#916B50" d="M40.305,6.018c-0.279-0.496,2.646-2.141,1.139-1.877C39.809,4.424,44.359,2,43.189,2
	c-1.012,0-5.873,2.355-4.967,3.846c1.967,3.238,2.385,6.367,2.773,8.447c-4.463,1.805-4.008,0.939-7.703,2.371
	c0,0-5.3-5.238-4.033,1.121c0.09,0.443-0.883,1.211-0.883,1.211s-1.328,0-2.809,1.25c-1.119,0.947-4.117,1.936-5.5,2.637
	c-1.123,0.57-5.471,2.754-8.09,5.363c-0.662,0.658-4.475-1.391-2.627,0.148c1.412,1.176-3.938-1.465-2.598-0.146
	c2.102,2.074,5.297,2.678,6.098,1.74c2.297-2.689,4.842-1.99,8.16-4.412c4.627-1.541,5.5-2.66,6.963-2.668
	c1.324,2.25,9.55,1.795,8.677-3.721c0.254-0.988,4.344-1.699,6.973-3.09C44.367,15.705,43.248,11.281,40.305,6.018z"/>
<path fill="#E03636" d="M27.975,22.908c1.408,2.732,1.408,6.881-0.107,7.42c-3.656,1.299-11.689,9.834-21.631,4.23
	c-2.914,8.141,4.453,3.828,5.951,9.408c1.893,7.053,5.002-2.916,10.828,0.254c6.006,3.27,5.758-5.471,13.183-3.807
	c7.529,1.686,3.922-5.727,8.707-2.02c3.58,2.775,13.855-5.055,11.26-8.037c-6.596,5.697-21.709,3.279-20.014-0.193
	c1.605-3.285,0.625-5.104,1.184-5.385c1.432-0.725,3.357-2.713-0.143-5.242c-0.721-0.521-1.328-3.021-3.586-3.592
	c-1.49,0.648,2.053,0.477,2.053,3.746c-0.799,1.943-2.354,1.49-3.824,0.631c-2.857-1.668-3.111-2.041-3.5-1.527
	c-0.188,0.486,2.604,2.129,2.139,3.949C29.34,24.316,27.975,22.908,27.975,22.908z"/>
<path fill="#D12828" d="M27.313,34.781c-5.785,6.525-12.746,6.182-16.164,7.244c0.445,0.471,0.813,1.09,1.041,1.941
	c1.23,4.59,2.979,1.973,5.654,0.457C18.918,41.342,23.772,41.084,27.313,34.781z"/>
<path fill="#D12828" d="M30.192,34.055c-0.898,5.51-4.119,8.439-6.41,10.525c1.752,0.717,2.932,0.313,3.986-0.49
	C27.895,41.771,30.465,39.357,30.192,34.055z"/>
<path fill="#D12828" d="M33.535,32.555c-0.113,4.766,2.713,5.57,2.32,7.795c0.115,0.021,0.227,0.037,0.346,0.064
	c2.711,0.607,3.975,0.033,4.711-0.775C39.277,38.434,34.736,37.896,33.535,32.555z"/>
<path fill="#D12828" d="M44.758,38.59c2.115,1.943,8.625-1.438,10.555-4.35c-3.273,4.225-12.58,3.574-17.682-0.535
	c1.736,2.219,3.5,3.064,4.959,3.678C43.041,37.236,43.602,37.527,44.758,38.59z"/>
<path fill="#D12828" d="M24.424,32.275L24.424,32.275c-4.268,2.688-10.684,6.512-18.186,2.283c-1.197,3.344-0.658,4.584,0.494,5.275
	C9.334,37.389,21.057,38.27,24.424,32.275z"/>
<path fill="#D12828" d="M31.377,25.35c0.777,1.65,3.714,1.463,4.152-0.178C34.592,26.031,32.436,25.844,31.377,25.35z"/>
<path fill="#69452D" d="M27.743,14.484c0.434,2.094,2.717,4.201,3.689,4.201s3.255-2.107,3.689-4.201
	C35.33,13.477,27.536,13.477,27.743,14.484z"/>
<path fill="#916B50" d="M34.367,6.246c-2.083,1.838-5.083,2.199-7.736,3.734c-0.59,0.957-0.324,3.16-0.146,3.799
	c0.58,2.094,3.645,4.203,4.947,4.203c1.305,0,4.367-2.109,4.949-4.203c0.178-0.639,0.328-1.338,0.43-1.979
	C36.619,9.438,34.354,8.059,34.367,6.246z"/>
<path fill="#733B2A" d="M31.432,14.691c-0.906-0.398-0.914-0.016-2.314,0.076c0.525,0.598,0.912,1.365,2.314,1.365
	c1.609,0,1.88-0.871,2.316-1.365C32.346,14.676,32.34,14.293,31.432,14.691z"/>
<path fill="#FFFFFF" d="M29.538,14.918c0.914,0.951,2.887,0.938,3.789,0C31.918,15.07,30.946,15.07,29.538,14.918z"/>
<path fill="#5E4431" d="M35.545,9.436c-0.842-0.502-2.35-0.563-2.945-0.223c-0.127,0.07-0.094,0.432,0.016,0.387
	c0.851-0.354,2.15-0.373,2.949,0.039C35.67,9.691,35.674,9.508,35.545,9.436z"/>
<path fill="#5E4431" d="M27.319,9.436c0.842-0.502,2.35-0.563,2.947-0.223c0.127,0.07,0.094,0.432-0.018,0.387
	c-0.852-0.354-2.146-0.373-2.947,0.039C27.194,9.691,27.192,9.508,27.319,9.436z"/>
<path fill="#69452D" d="M32.303,13.404c-0.092-0.064-0.309,0.035-0.871,0.035s-0.777-0.1-0.869-0.035
	c-0.111,0.078,0.064,0.428,0.869,0.428S32.413,13.484,32.303,13.404z"/>
<path id="Path_1488_" fill="#FFFFFF" d="M30.573,10.957c0.031,0.254-0.143,0.559-0.623,0.785c-0.307,0.146-0.943,0.316-1.779-0.037
	c-0.373-0.158-0.738-0.648-0.705-0.922C27.917,9.928,30.147,9.805,30.573,10.957z"/>
<linearGradient id="Oval_1_" gradientUnits="userSpaceOnUse" x1="-424" y1="480.4658" x2="-424" y2="480.7324" gradientTransform="matrix(6.5701 0 0 -6.5701 2814.7805 3168.5281)">
	<stop  offset="0" style="stop-color:#A6694A"/>
	<stop  offset="1" style="stop-color:#4F2A1E"/>
	<a:midPointStop  offset="0" style="stop-color:#A6694A"/>
	<a:midPointStop  offset="0.5" style="stop-color:#A6694A"/>
	<a:midPointStop  offset="1" style="stop-color:#4F2A1E"/>
</linearGradient>
<circle id="Oval_162_" fill="url(#Oval_1_)" cx="29.059" cy="10.938" r="0.876"/>
<path id="Path_1487_" fill="#1A1626" d="M28.622,10.922c0,0.605,0.875,0.605,0.875,0C29.497,10.359,28.622,10.359,28.622,10.922z"/>
<path id="Path_1486_" fill="#AB968C" d="M28.487,10.678c0,0.254,0.367,0.254,0.367,0C28.854,10.441,28.487,10.441,28.487,10.678z"/>
<path id="Path_1485_" fill="#45332C" d="M30.577,10.99c-0.355-1.145-2.783-0.975-3.111-0.207
	C27.586,9.799,30.272,9.539,30.577,10.99z"/>
<path id="Path_1484_" fill="#FFFFFF" d="M32.293,10.957c-0.031,0.254,0.143,0.559,0.623,0.785c0.306,0.146,0.943,0.316,1.777-0.037
	c0.377-0.158,0.74-0.648,0.707-0.922C34.949,9.928,32.717,9.805,32.293,10.957z"/>
<linearGradient id="Oval_2_" gradientUnits="userSpaceOnUse" x1="-425.9785" y1="480.4658" x2="-425.9785" y2="480.7324" gradientTransform="matrix(6.5701 0 0 -6.5701 2832.511 3168.5281)">
	<stop  offset="0" style="stop-color:#A6694A"/>
	<stop  offset="1" style="stop-color:#4F2A1E"/>
	<a:midPointStop  offset="0" style="stop-color:#A6694A"/>
	<a:midPointStop  offset="0.5" style="stop-color:#A6694A"/>
	<a:midPointStop  offset="1" style="stop-color:#4F2A1E"/>
</linearGradient>
<circle id="Oval_161_" fill="url(#Oval_2_)" cx="33.787" cy="10.938" r="0.876"/>
<path id="Path_1483_" fill="#1A1626" d="M33.35,10.922c0,0.605,0.877,0.605,0.877,0C34.227,10.359,33.35,10.359,33.35,10.922z"/>
<path id="Path_1482_" fill="#AB968C" d="M33.217,10.678c0,0.254,0.365,0.254,0.365,0C33.582,10.441,33.217,10.441,33.217,10.678z"/>
<path id="Path_1481_" fill="#45332C" d="M32.29,10.99c0.355-1.143,2.781-0.98,3.111-0.207C35.279,9.799,32.594,9.539,32.29,10.99z"
	/>
<path fill="#3B2118" d="M24.067,12.113c2.443-3.252,10.306-2.43,11.564-8.109C33.109,8.697,24.733,8.986,24.067,12.113z"/>
</svg>
