<?xml version="1.0" encoding="utf-8"?>
<!-- Generator: Adobe Illustrator 15.0.0, SVG Export Plug-In . SVG Version: 6.00 Build 0)  -->
<!DOCTYPE svg PUBLIC "-//W3C//DTD SVG 1.1//EN" "http://www.w3.org/Graphics/SVG/1.1/DTD/svg11.dtd" [
	<!ENTITY ns_flows "http://ns.adobe.com/Flows/1.0/">
	<!ENTITY ns_extend "http://ns.adobe.com/Extensibility/1.0/">
	<!ENTITY ns_ai "http://ns.adobe.com/AdobeIllustrator/10.0/">
	<!ENTITY ns_graphs "http://ns.adobe.com/Graphs/1.0/">
]>
<svg version="1.1" id="Layer_1" xmlns:x="&ns_extend;" xmlns:i="&ns_ai;" xmlns:graph="&ns_graphs;"
	 xmlns="http://www.w3.org/2000/svg" xmlns:xlink="http://www.w3.org/1999/xlink" xmlns:a="http://ns.adobe.com/AdobeSVGViewerExtensions/3.0/"
	 x="0px" y="0px" width="64px" height="64px" viewBox="0 0 64 64" enable-background="new 0 0 64 64" xml:space="preserve">
<path fill="#3B2118" d="M39.582,50.742c15.168-6.066,13.652-20.475,13.652-20.475H10.768c0,0-1.518,14.408,13.648,20.475
	c0,0,3.035,0.76,7.582,0.76C36.551,51.502,39.582,50.742,39.582,50.742z"/>
<linearGradient id="SVGID_1_" gradientUnits="userSpaceOnUse" x1="47.166" y1="51.498" x2="47.166" y2="6.1149">
	<stop  offset="0.05" style="stop-color:#3B2118"/>
	<stop  offset="0.112" style="stop-color:#40251C"/>
	<stop  offset="0.4761" style="stop-color:#58392F"/>
	<stop  offset="0.7" style="stop-color:#614036"/>
	<a:midPointStop  offset="0.05" style="stop-color:#3B2118"/>
	<a:midPointStop  offset="0.4" style="stop-color:#3B2118"/>
	<a:midPointStop  offset="0.7" style="stop-color:#614036"/>
</linearGradient>
<path fill="url(#SVGID_1_)" d="M47.334,31.805c1.551,6.533,0.732,13-7.752,18.938c9.102-1.516,15.168-10.109,15.168-16.703
	L47.334,31.805z"/>
<linearGradient id="SVGID_2_" gradientUnits="userSpaceOnUse" x1="1763.9805" y1="51.498" x2="1763.9805" y2="6.1149" gradientTransform="matrix(-1 0 0 1 1780.8145 0)">
	<stop  offset="0.05" style="stop-color:#3B2118"/>
	<stop  offset="0.112" style="stop-color:#40251C"/>
	<stop  offset="0.4761" style="stop-color:#58392F"/>
	<stop  offset="0.7" style="stop-color:#614036"/>
	<a:midPointStop  offset="0.05" style="stop-color:#3B2118"/>
	<a:midPointStop  offset="0.4" style="stop-color:#3B2118"/>
	<a:midPointStop  offset="0.7" style="stop-color:#614036"/>
</linearGradient>
<path fill="url(#SVGID_2_)" d="M16.668,31.805c-1.553,6.533-0.734,13,7.75,18.938C15.316,49.227,9.25,40.633,9.25,34.039
	L16.668,31.805z"/>
<path fill="#8E3ED6" d="M12.254,52.754C14.656,51.389,23,48.363,23,48.363h18c0,0,8.412,3.018,10.801,4.387
	C55.27,54.734,56,62.002,56,62.002H8C8,62.002,8.773,54.73,12.254,52.754z"/>
<path fill="#732EB0" d="M16.666,62.002H16C16,56.668,16.666,56.668,16.666,62.002z"/>
<path fill="#732EB0" d="M48,62.002h-0.668C47.332,56.668,48,56.668,48,62.002z"/>
<path fill="#732EB0" d="M23,48.363c0,8.123,18,8.123,18,0l-1.543-0.535H24.5L23,48.363z"/>
<path fill="#69452D" d="M24.5,48.012c0,6.359,15,6.359,15,0c0-2.164,0-7.035,0-7.035h-15C24.5,40.977,24.5,45.848,24.5,48.012z"/>
<path fill="#916B50" d="M32,8.277c-11.004,0-16.305,8.961-15.643,20.484c0.135,2.316,0.779,5.658,1.574,8.52
	C19.582,43.232,28.291,49.227,32,49.227c3.707,0,12.416-5.994,14.068-11.945c0.795-2.861,1.439-6.203,1.576-8.52
	C48.305,17.238,43.008,8.277,32,8.277z"/>
<path fill="#733B2A" d="M31.998,39.871c-2.578-1.135-2.598-0.045-6.58,0.221c1.494,1.697,2.596,3.879,6.58,3.879
	c4.574,0,5.346-2.479,6.584-3.879C34.598,39.826,34.58,38.736,31.998,39.871z"/>
<path fill="#FFFFFF" d="M26.613,40.516c2.6,2.705,8.205,2.668,10.773,0.002C33.385,40.947,30.617,40.947,26.613,40.516z"/>
<path fill="#5E4431" d="M43.693,24.928c-2.391-1.424-6.68-1.6-8.375-0.629c-0.359,0.197-0.264,1.227,0.047,1.098
	c2.42-1.008,6.109-1.059,8.381,0.107C44.049,25.658,44.057,25.135,43.693,24.928z"/>
<path fill="#5E4431" d="M20.305,24.928c2.391-1.424,6.68-1.6,8.379-0.629c0.361,0.197,0.264,1.227-0.049,1.098
	c-2.422-1.008-6.105-1.061-8.379,0.107C19.949,25.658,19.943,25.135,20.305,24.928z"/>
<path fill="#69452D" d="M34.475,36.215c-0.264-0.184-0.877,0.098-2.477,0.098c-1.596,0-2.211-0.281-2.473-0.098
	c-0.314,0.221,0.186,1.217,2.473,1.217C34.287,37.432,34.789,36.436,34.475,36.215z"/>
<linearGradient id="SVGID_3_" gradientUnits="userSpaceOnUse" x1="32.0005" y1="51.5" x2="32.0005" y2="6.1137">
	<stop  offset="0.05" style="stop-color:#3B2118"/>
	<stop  offset="0.112" style="stop-color:#40251C"/>
	<stop  offset="0.4761" style="stop-color:#58392F"/>
	<stop  offset="0.7" style="stop-color:#614036"/>
	<a:midPointStop  offset="0.05" style="stop-color:#3B2118"/>
	<a:midPointStop  offset="0.4" style="stop-color:#3B2118"/>
	<a:midPointStop  offset="0.7" style="stop-color:#614036"/>
</linearGradient>
<path fill="url(#SVGID_3_)" d="M44.387,9.885c1.256-1.793-9.389-5.582-19.438-3.023C14.91,9.16,9.25,24.201,9.25,34.039
	c0.898,0.713,6.396-1.064,7.418-2.234c0.416-1.721,1.07-3.492,1.682-5.328c7.539-4.365,16.07-5.393,21.992-10.617
	c-0.758,2.275,3.256,5.145,5.309,10.617c0.666,1.775,1.262,3.555,1.684,5.328c1.674,1.541,5.014,2.268,7.416,2.234
	C54.75,25.719,48.41,8.725,44.387,9.885z"/>
<path fill="#3B2118" d="M11.059,32.543c6.943-9.248,29.438-8.621,33.328-22.658C36.834,21.666,12.955,23.654,11.059,32.543z"/>
<path fill="#45332C" d="M28.844,28.861c-2.016,1.285-5.145,1.285-7.16,0c-0.309-0.197-0.492,0.016-0.395,0.182
	c1.957,3.318,5.99,3.318,7.947,0C29.336,28.877,29.15,28.664,28.844,28.861z"/>
<path fill="#45332C" d="M42.318,28.861c-2.016,1.285-5.145,1.285-7.16,0c-0.309-0.197-0.49,0.016-0.395,0.182
	c1.957,3.318,5.99,3.318,7.947,0C42.811,28.877,42.625,28.664,42.318,28.861z"/>
<path opacity="0.3" d="M26.328,12.152c-2.59,0.191-13.893-5.953-13.932,2.955c-0.012,2.814,3.393,8.486,3.537,10.15
	c0.25,2.875,3.371,2.838,3.252,0.77c-0.396-6.791-1.928-9.467,0.314-11.457c0.496-0.441,4.701,0.838,6.559-0.063
	C27.344,13.883,27.148,12.094,26.328,12.152z"/>
<path fill="#916B50" d="M26.223,11.98c-2.59,0.191-4.166-2.273-5.182-3.9c-0.705-1.129-3.271-2.049-3.951-3.719
	C16.328,2.486,16.15,0,16.15,0h-6.1c0,0,1.635,5.68,1.596,14.586c-0.012,2.814,1.467,7.379,3.629,9.406c0,0,0.25,0.803,0.693,1.992
	c0.828,2.221,3.246,1.656,2.787-0.365c-1.225-5.383-2.242-10.283,0-12.273c0.496-0.439,5.311,1.6,7.168,0.697
	C27.209,13.42,27.043,11.922,26.223,11.98z"/>
<path opacity="0.3" d="M37.67,12.152c2.592,0.191,13.895-5.953,13.932,2.955c0.014,2.814-3.391,8.486-3.535,10.15
	c-0.25,2.875-3.373,2.838-3.252,0.77c0.395-6.791,1.928-9.467-0.314-11.457c-0.496-0.441-4.703,0.838-6.559-0.063
	C36.656,13.883,36.852,12.094,37.67,12.152z"/>
<path fill="#916B50" d="M37.775,11.98c2.592,0.191,4.168-2.273,5.184-3.9c0.703-1.129,3.271-2.049,3.951-3.719
	C47.672,2.486,47.85,0,47.85,0h6.1c0,0-1.635,5.68-1.598,14.586c0.014,2.814-1.465,7.379-3.627,9.406c0,0-0.25,0.803-0.693,1.992
	c-0.828,2.221-3.248,1.656-2.787-0.365c1.223-5.383,2.242-10.283,0-12.273c-0.496-0.439-5.313,1.6-7.168,0.697
	C36.791,13.42,36.957,11.922,37.775,11.98z"/>
</svg>
