<?xml version="1.0" encoding="utf-8"?>
<!-- Generator: Adobe Illustrator 15.0.0, SVG Export Plug-In . SVG Version: 6.00 Build 0)  -->
<!DOCTYPE svg PUBLIC "-//W3C//DTD SVG 1.1//EN" "http://www.w3.org/Graphics/SVG/1.1/DTD/svg11.dtd" [
	<!ENTITY ns_flows "http://ns.adobe.com/Flows/1.0/">
	<!ENTITY ns_extend "http://ns.adobe.com/Extensibility/1.0/">
	<!ENTITY ns_ai "http://ns.adobe.com/AdobeIllustrator/10.0/">
	<!ENTITY ns_graphs "http://ns.adobe.com/Graphs/1.0/">
]>
<svg version="1.1" id="Layer_1" xmlns:x="&ns_extend;" xmlns:i="&ns_ai;" xmlns:graph="&ns_graphs;"
	 xmlns="http://www.w3.org/2000/svg" xmlns:xlink="http://www.w3.org/1999/xlink" xmlns:a="http://ns.adobe.com/AdobeSVGViewerExtensions/3.0/"
	 x="0px" y="0px" width="64px" height="64px" viewBox="0 0 64 64" enable-background="new 0 0 64 64" xml:space="preserve">
<path fill="#FF7A00" d="M6.431,52.752c2.502-1.365,11.068-4.33,11.068-4.33l18.977-0.037c0,0,8.662,2.994,11.148,4.363
	C51.239,54.732,51.999,62,51.999,62h-50C1.999,62,2.806,54.729,6.431,52.752z"/>
<path fill="#ED6A00" d="M11.026,62h-0.695C10.331,56.668,11.026,56.668,11.026,62z"/>
<path fill="#ED6A00" d="M43.665,62h-0.693C42.972,56.668,43.665,56.668,43.665,62z"/>
<path fill="#ED6A00" d="M17.499,48.422c0,8.123,18.977,8.086,18.977-0.037l-1.707-0.602H19.31L17.499,48.422z"/>
<path fill="#69452D" d="M18.999,48.012c0,6.357,16,6.357,16,0c0-2.164,0-7.035,0-7.035h-16
	C18.999,40.977,18.999,45.848,18.999,48.012z"/>
<path fill="#3B2118" d="M42.212,38.784c1.082,0.714,2.33,1.247,3.787,1.521c-2.586-5.888,1.314-18.237-6.682-27.311
	c-11.27,0.337-12.828,36.722,2.883,31.883c-1-0.433-1.629-1.316-1.996-2.43c1.211,0.347,2.627,0.358,4.275-0.148
	C43.167,41.732,42.499,40.398,42.212,38.784z"/>
<path fill="#3B2118" d="M13.921,12.994c-7.996,9.073-3.334,21.423-5.922,27.311c1.457-0.273,2.707-0.807,3.789-1.521
	c-0.289,1.614-0.957,2.948-2.27,3.515c1.648,0.507,3.063,0.495,4.273,0.148c-0.367,1.113-0.992,1.997-1.992,2.43
	C27.509,49.716,25.192,13.331,13.921,12.994z"/>
<path id="Path_1801_" fill="#916B50" d="M43.442,25.391c-2.547,0.309-4.383,8.816-2.783,11.062c0.225,0.314,1.535,0.813,2.508-1.167
	c0.539-1.098,2.094-2.014,2.574-4.277C46.358,28.108,45.976,25.084,43.442,25.391z"/>
<path id="Path_1800_" fill="#916B50" d="M10.558,25.391c2.547,0.309,4.385,8.816,2.783,11.062c-0.225,0.314-1.537,0.813-2.508-1.167
	c-0.539-1.098-2.094-2.014-2.574-4.277C7.642,28.108,8.026,25.084,10.558,25.391z"/>
<path id="Path_1799_" fill="#69452D" d="M43.372,27.022c-0.664,0.208-1.389,1.22-1.781,2.896c2.322-0.498,1.742,3.362-0.275,3.435
	c0.018,0.389,0.045,0.788,0.092,1.208c0.973-1.409,1.959-0.844,2.938-2.94C45.226,29.73,45.017,26.507,43.372,27.022z"/>
<path id="Path_1798_" fill="#69452D" d="M12.409,29.914c-0.395-1.674-1.117-2.685-1.781-2.892c-1.645-0.516-1.855,2.708-0.975,4.599
	c0.979,2.097,1.967,1.531,2.939,2.94c0.049-0.421,0.074-0.821,0.092-1.21C10.687,33.257,10.116,29.445,12.409,29.914z"/>
<path fill="#916B50" d="M26.999,9.033c-11.029,0-16.342,8.966-15.678,20.493c0.137,2.317,0.783,5.661,1.58,8.524
	c1.654,5.953,10.381,11.948,14.098,11.948s12.443-5.995,14.1-11.948c0.797-2.863,1.441-6.207,1.578-8.524
	C43.341,17.999,38.03,9.033,26.999,9.033z"/>
<path id="Path_1797_" fill="#5E4431" d="M38.981,24.542c-2.521-1.333-7.35-1.399-9.146-0.47c-0.387,0.18-0.131,1.443,0.193,1.323
	c2.504-0.989,6.547-1.013,8.893,0.085C39.233,25.622,39.364,24.727,38.981,24.542z"/>
<path id="Path_1796_" fill="#5E4431" d="M15.019,24.542c2.521-1.333,7.346-1.399,9.146-0.47c0.383,0.18,0.131,1.443-0.193,1.323
	c-2.51-0.989-6.547-1.013-8.895,0.085C14.765,25.622,14.636,24.727,15.019,24.542z"/>
<path id="Path_1795_" fill="#69452D" d="M29.976,36.107c-0.314-0.22-1.053,0.118-2.977,0.118c-1.92,0-2.66-0.338-2.977-0.118
	c-0.375,0.265,0.225,1.462,2.977,1.462C29.753,37.569,30.354,36.372,29.976,36.107z"/>
<path id="Path_1794_" fill="#69452D" d="M26.999,40.645c-2.48-0.729-6.156,0.345-6.156,0.345c1.4,1.522,2.426,3.497,6.156,3.497
	c4.273,0,5.002-2.242,6.158-3.497C33.157,40.989,29.479,39.912,26.999,40.645z"/>
<path id="Path_1793_" fill="#FFFFFF" d="M21.767,41.247c2.602,2.178,7.852,2.192,10.467,0
	C29.462,41.365,24.558,41.367,21.767,41.247z"/>
<path id="Path_1792_" fill="#FFFFFF" d="M24.546,29.084c0.094,0.729-0.402,1.594-1.773,2.241c-0.873,0.411-2.684,0.896-5.066-0.106
	c-1.066-0.449-2.107-1.85-2.014-2.623C16.983,26.166,23.337,25.811,24.546,29.084z"/>
<linearGradient id="Oval_1_" gradientUnits="userSpaceOnUse" x1="-425.3433" y1="477.4658" x2="-425.3433" y2="478.2246" gradientTransform="matrix(6.5701 0 0 -6.5701 2814.7805 3168.5281)">
	<stop  offset="0" style="stop-color:#A6694A"/>
	<stop  offset="1" style="stop-color:#4F2A1E"/>
	<a:midPointStop  offset="0" style="stop-color:#A6694A"/>
	<a:midPointStop  offset="0.5" style="stop-color:#A6694A"/>
	<a:midPointStop  offset="1" style="stop-color:#4F2A1E"/>
</linearGradient>
<ellipse id="Oval_242_" fill="url(#Oval_1_)" cx="20.233" cy="29.035" rx="2.498" ry="2.492"/>
<path id="Path_1791_" fill="#1A1626" d="M18.987,28.99c0,1.725,2.496,1.725,2.496,0C21.483,27.39,18.987,27.39,18.987,28.99z"/>
<path id="Path_1790_" fill="#AB968C" d="M18.606,28.292c0,0.724,1.047,0.724,1.047,0C19.653,27.622,18.606,27.622,18.606,28.292z"/>
<path id="Path_1789_" fill="#69452D" d="M24.558,29.182c-1.014-3.253-7.924-2.773-8.865-0.586
	C16.04,25.795,23.694,25.057,24.558,29.182z"/>
<path id="Path_1788_" fill="#FFFFFF" d="M29.454,29.084c-0.096,0.729,0.4,1.594,1.773,2.241c0.871,0.411,2.684,0.896,5.064-0.106
	c1.07-0.449,2.109-1.85,2.016-2.623C37.019,26.166,30.661,25.811,29.454,29.084z"/>
<linearGradient id="Oval_2_" gradientUnits="userSpaceOnUse" x1="-425.9907" y1="477.4658" x2="-425.9907" y2="478.2246" gradientTransform="matrix(6.5701 0 0 -6.5701 2832.511 3168.5281)">
	<stop  offset="0" style="stop-color:#A6694A"/>
	<stop  offset="1" style="stop-color:#4F2A1E"/>
	<a:midPointStop  offset="0" style="stop-color:#A6694A"/>
	<a:midPointStop  offset="0.5" style="stop-color:#A6694A"/>
	<a:midPointStop  offset="1" style="stop-color:#4F2A1E"/>
</linearGradient>
<circle id="Oval_241_" fill="url(#Oval_2_)" cx="33.71" cy="29.035" r="2.492"/>
<path id="Path_1787_" fill="#1A1626" d="M32.462,28.99c0,1.725,2.496,1.725,2.496,0C34.958,27.39,32.462,27.39,32.462,28.99z"/>
<path id="Path_1786_" fill="#AB968C" d="M32.083,28.292c0,0.724,1.045,0.724,1.045,0C33.128,27.622,32.083,27.622,32.083,28.292z"/>
<path id="Path_1785_" fill="#69452D" d="M29.442,29.182c1.012-3.252,7.92-2.786,8.865-0.586
	C37.958,25.795,30.306,25.057,29.442,29.182z"/>
<linearGradient id="SVGID_1_" gradientUnits="userSpaceOnUse" x1="46.4971" y1="31.8955" x2="7.497" y2="19.0205">
	<stop  offset="0" style="stop-color:#3B2118"/>
	<stop  offset="0.3445" style="stop-color:#44281F"/>
	<stop  offset="0.9047" style="stop-color:#5C3C32"/>
	<stop  offset="1" style="stop-color:#614036"/>
	<a:midPointStop  offset="0" style="stop-color:#3B2118"/>
	<a:midPointStop  offset="0.6" style="stop-color:#3B2118"/>
	<a:midPointStop  offset="1" style="stop-color:#614036"/>
</linearGradient>
<path fill="url(#SVGID_1_)" d="M27.19,23.691c-7.068-4.807-10.934-13.219-10.934-13.219c-8.113,1.852-10.723,15.515-4.648,21.344
	c0.715-5.879,0.865-9.744,4.445-13.708C18.515,21.76,23.048,23.776,27.19,23.691z"/>
<path fill="#BEC3CF" d="M45.909,6.748c-0.338,13.354,0.547,21.566,0.547,21.566s1.02,2.348,0.854,2.854
	c-0.557-0.184-1.17-0.254-1.799-0.182c-2.24,0.262-3.854,2.211-3.602,4.352c0.25,2.145,2.27,3.668,4.508,3.41
	c2.24-0.262,3.854-2.213,3.604-4.355c-0.025-0.234-0.186-0.803-0.199-0.84c-1.633-4.602-1.072-6.408-1.072-6.408L45.909,6.748z
	 M46.198,36.871c-1.158,0.137-2.203-0.652-2.332-1.76s0.707-2.115,1.863-2.252c1.16-0.135,2.205,0.654,2.332,1.762
	C48.194,35.729,47.356,36.738,46.198,36.871z"/>
<linearGradient id="SVGID_2_" gradientUnits="userSpaceOnUse" x1="50.1914" y1="20.7056" x2="11.1923" y2="7.8309">
	<stop  offset="0" style="stop-color:#3B2118"/>
	<stop  offset="0.3445" style="stop-color:#44281F"/>
	<stop  offset="0.9047" style="stop-color:#5C3C32"/>
	<stop  offset="1" style="stop-color:#614036"/>
	<a:midPointStop  offset="0" style="stop-color:#3B2118"/>
	<a:midPointStop  offset="0.6" style="stop-color:#3B2118"/>
	<a:midPointStop  offset="1" style="stop-color:#614036"/>
</linearGradient>
<path fill="url(#SVGID_2_)" d="M27.177,6c-11.322,0-17.02,6.408-12.855,10.098c7.4,6.557,36.658,10.461,38.584-1.371
	C42.267,19.49,44.874,6,27.177,6z"/>
<path fill="#3B2118" d="M13.304,11.804c-0.1,5.564,8.943,11.644,13.887,11.888C19.13,23.967,11.687,16.662,13.304,11.804z"/>
<path fill="#3B2118" d="M15.372,17.988c-2.359,2.883-4.285,7.461-3.764,13.828c0.488-5.307,2.283-9.918,4.418-13.132
	C15.798,18.464,15.587,18.225,15.372,17.988z"/>
<path fill="#3B2118" d="M16.716,15.842c8.25,6.844,32.098,9.875,36.189-1.115C51.06,25.748,24.466,25.248,16.716,15.842z"/>
<path fill="#CFD8DD" d="M54.726,26c-0.393,0.477-0.65,1.014-0.785,1.572c-0.531-0.135-2.068-2.197-2.068-2.197L35.626,12.293
	c5.391,8.164,10.705,11.604,10.807,12.994c0.182,2.51,2.779,2.373,3.373,1.172c0,0,1.717,0.668,4.926,4.422
	c0.025,0.029,0.447,0.459,0.637,0.605c1.764,1.33,4.332,1.029,5.738-0.672c1.41-1.697,1.121-4.156-0.643-5.486
	C58.702,23.998,56.138,24.301,54.726,26z M59.569,29.654c-0.73,0.877-2.059,1.033-2.969,0.346c-0.912-0.688-1.061-1.959-0.332-2.838
	c0.727-0.879,2.057-1.035,2.967-0.348C60.147,27.502,60.296,28.773,59.569,29.654z"/>
<path fill="#302C3B" d="M49.007,24.473c0.465,0.354,0.543,1.004,0.17,1.453c-0.375,0.451-1.055,0.531-1.521,0.182
	c-0.467-0.355-0.545-1.004-0.168-1.455C47.856,24.199,48.538,24.121,49.007,24.473z"/>
</svg>
