<?xml version="1.0" encoding="utf-8"?>
<!-- Generator: Adobe Illustrator 15.0.0, SVG Export Plug-In . SVG Version: 6.00 Build 0)  -->
<!DOCTYPE svg PUBLIC "-//W3C//DTD SVG 1.1//EN" "http://www.w3.org/Graphics/SVG/1.1/DTD/svg11.dtd" [
	<!ENTITY ns_flows "http://ns.adobe.com/Flows/1.0/">
	<!ENTITY ns_extend "http://ns.adobe.com/Extensibility/1.0/">
	<!ENTITY ns_ai "http://ns.adobe.com/AdobeIllustrator/10.0/">
	<!ENTITY ns_graphs "http://ns.adobe.com/Graphs/1.0/">
]>
<svg version="1.1" id="Layer_1" xmlns:x="&ns_extend;" xmlns:i="&ns_ai;" xmlns:graph="&ns_graphs;"
	 xmlns="http://www.w3.org/2000/svg" xmlns:xlink="http://www.w3.org/1999/xlink" xmlns:a="http://ns.adobe.com/AdobeSVGViewerExtensions/3.0/"
	 x="0px" y="0px" width="64px" height="64px" viewBox="0 0 64 64" enable-background="new 0 0 64 64" xml:space="preserve">
<path fill="#473834" d="M39.582,50.742c15.168-6.066,13.652-20.477,13.652-20.477H10.767c0,0-1.517,14.411,13.648,20.477
	c0,0,3.035,0.758,7.583,0.758C36.55,51.5,39.582,50.742,39.582,50.742z"/>
<linearGradient id="SVGID_1_" gradientUnits="userSpaceOnUse" x1="47.166" y1="51.498" x2="47.166" y2="6.1138">
	<stop  offset="0.05" style="stop-color:#473834"/>
	<stop  offset="0.2266" style="stop-color:#594640"/>
	<stop  offset="0.5197" style="stop-color:#715950"/>
	<stop  offset="0.7" style="stop-color:#7A6056"/>
	<a:midPointStop  offset="0.05" style="stop-color:#473834"/>
	<a:midPointStop  offset="0.4" style="stop-color:#473834"/>
	<a:midPointStop  offset="0.7" style="stop-color:#7A6056"/>
</linearGradient>
<path fill="url(#SVGID_1_)" d="M47.334,31.804c1.551,6.532,0.732,12.999-7.752,18.938c9.102-1.518,15.168-10.111,15.168-16.705
	L47.334,31.804z"/>
<linearGradient id="SVGID_2_" gradientUnits="userSpaceOnUse" x1="1763.9805" y1="51.498" x2="1763.9805" y2="6.1138" gradientTransform="matrix(-1 0 0 1 1780.8145 0)">
	<stop  offset="0.05" style="stop-color:#473834"/>
	<stop  offset="0.2266" style="stop-color:#594640"/>
	<stop  offset="0.5197" style="stop-color:#715950"/>
	<stop  offset="0.7" style="stop-color:#7A6056"/>
	<a:midPointStop  offset="0.05" style="stop-color:#473834"/>
	<a:midPointStop  offset="0.4" style="stop-color:#473834"/>
	<a:midPointStop  offset="0.7" style="stop-color:#7A6056"/>
</linearGradient>
<path fill="url(#SVGID_2_)" d="M16.667,31.804c-1.552,6.532-0.733,12.999,7.751,18.938C15.316,49.225,9.25,40.631,9.25,34.037
	L16.667,31.804z"/>
<path fill="#8E3ED6" d="M12.256,52.752c2.4-1.365,12.363-4.969,12.363-4.969h14.84c0,0,9.955,3.596,12.342,4.965
	C55.271,54.732,56,62,56,62H8C8,62,8.775,54.729,12.256,52.752z"/>
<path fill="#E6B045" d="M24.5,48.277c0,6.004,15,6.004,15,0c0-1.895,0-7.035,0-7.035h-15C24.5,41.242,24.5,46.186,24.5,48.277z"/>
<path fill="#732EB0" d="M14.75,62H14C14,56.666,14.75,56.666,14.75,62z"/>
<path fill="#732EB0" d="M50,62h-0.75C49.25,56.666,50,56.666,50,62z"/>
<path fill="#FFCC66" d="M32,8.275c-11.005,0-16.306,8.962-15.644,20.486c0.136,2.314,0.78,5.657,1.575,8.52
	C19.582,43.232,28.291,49.225,32,49.225c3.707,0,12.416-5.992,14.068-11.943c0.795-2.863,1.439-6.206,1.576-8.52
	C48.305,17.237,43.008,8.275,32,8.275z"/>
<path fill="#D47706" d="M31.998,39.869c-2.578-1.133-2.599-0.045-6.58,0.221c1.494,1.699,2.595,3.881,6.579,3.881
	c4.574,0,5.347-2.479,6.585-3.881C34.597,39.824,34.58,38.736,31.998,39.869z"/>
<path fill="#FFFFFF" d="M26.613,40.514c2.6,2.705,8.205,2.67,10.772,0.002C33.384,40.945,30.616,40.945,26.613,40.514z"/>
<path fill="#966F42" d="M43.693,24.927c-2.391-1.425-6.68-1.601-8.376-0.629c-0.359,0.196-0.264,1.226,0.048,1.097
	c2.42-1.008,6.108-1.058,8.381,0.108C44.049,25.656,44.057,25.134,43.693,24.927z"/>
<path fill="#966F42" d="M20.305,24.927c2.391-1.425,6.679-1.601,8.379-0.629c0.36,0.196,0.264,1.226-0.049,1.097
	c-2.422-1.008-6.105-1.06-8.38,0.108C19.949,25.656,19.943,25.134,20.305,24.927z"/>
<path fill="#DB9D3A" d="M34.474,36.213c-0.263-0.184-0.877,0.1-2.476,0.1c-1.597,0-2.211-0.283-2.473-0.1
	c-0.314,0.221,0.185,1.217,2.473,1.217C34.287,37.43,34.789,36.436,34.474,36.213z"/>
<linearGradient id="SVGID_3_" gradientUnits="userSpaceOnUse" x1="32.0005" y1="51.498" x2="32.0005" y2="6.1133">
	<stop  offset="0.05" style="stop-color:#473834"/>
	<stop  offset="0.2266" style="stop-color:#594640"/>
	<stop  offset="0.5197" style="stop-color:#715950"/>
	<stop  offset="0.7" style="stop-color:#7A6056"/>
	<a:midPointStop  offset="0.05" style="stop-color:#473834"/>
	<a:midPointStop  offset="0.4" style="stop-color:#473834"/>
	<a:midPointStop  offset="0.7" style="stop-color:#7A6056"/>
</linearGradient>
<path fill="url(#SVGID_3_)" d="M44.387,9.884c1.256-1.794-9.389-5.582-19.438-3.023C14.909,9.159,9.25,24.2,9.25,34.037
	c0.898,0.713,6.396-1.065,7.417-2.233c0.416-1.721,1.071-3.492,1.683-5.329c7.539-4.365,16.07-5.393,21.992-10.617
	c-0.759,2.275,3.256,5.145,5.309,10.617c0.666,1.775,1.262,3.553,1.684,5.329c1.674,1.542,5.014,2.268,7.416,2.233
	C54.75,25.717,48.41,8.723,44.387,9.884z"/>
<path fill="#473834" d="M11.058,32.541c6.944-9.247,29.438-8.62,33.329-22.657C36.834,21.665,12.955,23.652,11.058,32.541z"/>
<path fill="#45332C" d="M28.844,28.86c-2.016,1.285-5.145,1.285-7.16,0c-0.309-0.197-0.492,0.016-0.395,0.182
	c1.957,3.318,5.99,3.318,7.947,0C29.336,28.875,29.15,28.663,28.844,28.86z"/>
<path fill="#45332C" d="M42.318,28.86c-2.016,1.285-5.145,1.285-7.16,0c-0.309-0.197-0.49,0.016-0.395,0.182
	c1.957,3.318,5.99,3.318,7.947,0C42.811,28.875,42.625,28.663,42.318,28.86z"/>
<path opacity="0.3" d="M26.328,12.152c-2.59,0.191-13.893-5.953-13.932,2.954c-0.012,2.814,3.393,8.487,3.537,10.15
	c0.25,2.875,3.371,2.839,3.252,0.771c-0.396-6.791-1.928-9.468,0.314-11.458c0.496-0.44,4.701,0.839,6.559-0.063
	C27.344,13.882,27.148,12.093,26.328,12.152z"/>
<path fill="#FFCC66" d="M26.223,11.98c-2.59,0.19-4.166-2.274-5.182-3.9c-0.705-1.129-3.271-2.049-3.951-3.72
	C16.328,2.485,16.15,0,16.15,0h-6.1c0,0,1.635,5.68,1.596,14.586c-0.012,2.814,1.467,7.378,3.629,9.406c0,0,0.25,0.803,0.693,1.991
	c0.828,2.221,3.246,1.656,2.787-0.364c-1.225-5.383-2.242-10.284,0-12.274c0.496-0.439,5.311,1.6,7.168,0.698
	C27.209,13.419,27.043,11.921,26.223,11.98z"/>
<path opacity="0.3" d="M37.67,12.152c2.592,0.191,13.895-5.953,13.932,2.954c0.014,2.814-3.391,8.487-3.535,10.15
	c-0.25,2.875-3.373,2.839-3.252,0.771c0.395-6.791,1.928-9.468-0.314-11.458c-0.496-0.44-4.703,0.839-6.559-0.063
	C36.656,13.882,36.852,12.093,37.67,12.152z"/>
<path fill="#FFCC66" d="M37.775,11.98c2.592,0.19,4.168-2.274,5.184-3.9c0.703-1.129,3.271-2.049,3.951-3.72
	C47.672,2.485,47.85,0,47.85,0h6.1c0,0-1.635,5.68-1.598,14.586c0.014,2.814-1.465,7.378-3.627,9.406c0,0-0.25,0.803-0.693,1.991
	c-0.828,2.221-3.248,1.656-2.787-0.364c1.223-5.383,2.242-10.284,0-12.274c-0.496-0.439-5.313,1.6-7.168,0.698
	C36.791,13.419,36.957,11.921,37.775,11.98z"/>
</svg>
