<?xml version="1.0" encoding="utf-8"?>
<!-- Generator: Adobe Illustrator 15.0.0, SVG Export Plug-In . SVG Version: 6.00 Build 0)  -->
<!DOCTYPE svg PUBLIC "-//W3C//DTD SVG 1.1//EN" "http://www.w3.org/Graphics/SVG/1.1/DTD/svg11.dtd" [
	<!ENTITY ns_flows "http://ns.adobe.com/Flows/1.0/">
	<!ENTITY ns_extend "http://ns.adobe.com/Extensibility/1.0/">
	<!ENTITY ns_ai "http://ns.adobe.com/AdobeIllustrator/10.0/">
	<!ENTITY ns_graphs "http://ns.adobe.com/Graphs/1.0/">
]>
<svg version="1.1" id="Layer_1" xmlns:x="&ns_extend;" xmlns:i="&ns_ai;" xmlns:graph="&ns_graphs;"
	 xmlns="http://www.w3.org/2000/svg" xmlns:xlink="http://www.w3.org/1999/xlink" xmlns:a="http://ns.adobe.com/AdobeSVGViewerExtensions/3.0/"
	 x="0px" y="0px" width="64px" height="64px" viewBox="0 0 64 64" enable-background="new 0 0 64 64" xml:space="preserve">
<linearGradient id="SVGID_1_" gradientUnits="userSpaceOnUse" x1="-22.4023" y1="-518.6802" x2="-22.4023" y2="-527.4458" gradientTransform="matrix(-2.7664 0.8895 0.8472 2.6347 410.4337 1416.0867)">
	<stop  offset="0" style="stop-color:#DB0100"/>
	<stop  offset="0.5836" style="stop-color:#F31317"/>
	<stop  offset="1" style="stop-color:#FF1C23"/>
	<a:midPointStop  offset="0" style="stop-color:#DB0100"/>
	<a:midPointStop  offset="0.4242" style="stop-color:#DB0100"/>
	<a:midPointStop  offset="1" style="stop-color:#FF1C23"/>
</linearGradient>
<path fill="url(#SVGID_1_)" d="M26.681,9.989c1.811-7.38,13.073-8.346,15.561-0.609c1.669,5.19-0.961,11.332-9.024,20.137
	c-3.407-6.134-16.494-1.49-19.536-10.952C11.191,10.828,20.909,5.049,26.681,9.989z"/>
<path fill="#473834" d="M51.688,54.226c0.643,0.607,1.414,1.112,2.359,1.468c-1.036-4.259,3.04-12.09-1.244-19.127
	C45.21,35.46,39.857,59.708,50.96,58.314c-0.618-0.408-0.936-1.075-1.05-1.867c0.771,0.376,1.718,0.551,2.884,0.406
	C51.982,56.318,51.692,55.343,51.688,54.226z"/>
<path fill="#473834" d="M35.781,33.564c-6.432,5.148-4.771,13.99-7.202,17.639c1.008-0.012,1.909-0.222,2.719-0.573
	c-0.383,1.05-0.991,1.866-1.936,2.092c1.044,0.534,1.994,0.694,2.847,0.604c-0.38,0.705-0.902,1.224-1.624,1.396
	C40.541,59.828,43.297,35.123,35.781,33.564z"/>
<path id="Path_1729_" fill="#FFCC66" d="M54.1,45.377c-1.742-0.094-3.98,5.402-3.176,7.099c0.113,0.237,0.936,0.728,1.821-0.487
	c0.49-0.673,1.641-1.104,2.232-2.566C55.732,47.547,55.835,45.471,54.1,45.377z"/>
<path id="Path_1727_" fill="#DB9D3A" d="M53.86,46.465c-0.469,0.063-1.075,0.654-1.537,1.734c1.614-0.061,0.77,2.463-0.592,2.273
	c-0.034,0.263-0.063,0.535-0.081,0.822c0.818-0.832,1.413-0.335,2.317-1.627C54.782,48.502,55.023,46.313,53.86,46.465z"/>
<path fill="#FFCC66" d="M45.017,32.451c-7.392-1.304-12.014,4.088-12.934,11.906c-0.183,1.573-0.147,3.895,0.049,5.911
	c0.402,4.192,5.544,9.25,8.035,9.688c2.49,0.439,9.05-2.555,10.862-6.355c0.874-1.83,1.702-3.998,2.069-5.538
	C54.907,40.402,52.409,33.754,45.017,32.451z"/>
<path id="Path_1618_" fill="#966F42" d="M51.303,43.767c-1.533-1.192-4.761-1.806-6.076-1.396c-0.279,0.077-0.258,0.954-0.026,0.913
	c1.798-0.369,4.509,0.094,5.949,1.107C51.344,44.522,51.536,43.937,51.303,43.767z"/>
<path id="Path_1617_" fill="#966F42" d="M35.24,40.935c1.849-0.598,5.089-0.07,6.186,0.766c0.236,0.166-0.083,0.984-0.286,0.865
	c-1.563-0.96-4.268-1.453-5.971-0.994C34.942,41.63,34.962,41.014,35.24,40.935z"/>
<path id="Path_1616_" fill="#DB9D3A" d="M43.705,51.057c-0.174-0.192-0.716-0.076-1.992-0.359c-1.277-0.285-1.717-0.619-1.962-0.521
	c-0.288,0.122-0.067,1.007,1.761,1.414C43.344,51.997,43.918,51.289,43.705,51.057z"/>
<path fill="#E6AA37" d="M37.05,53.518c-2.169,2.303,3.072,3.247,4.763,0.997L37.05,53.518z"/>
<path fill="#CC9200" d="M38.319,53.14c1.153-0.341,1.938,0.699,3.493,1.375c-1.509,0.393-3.486,0.134-3.665-0.512
	c0,0-0.646,0.322-1.151-0.256C36.43,53.104,37.215,52.325,38.319,53.14z"/>
<path fill="#E6B045" d="M50.125,47.823c-0.312,1.776-6.054,0.765-5.689-1.292C45.288,43.614,50.615,44.639,50.125,47.823z"/>
<path fill="#613F34" d="M50.124,47.823c-0.312,1.776-6.054,0.765-5.69-1.293C44.729,47.561,49.523,48.531,50.124,47.823z"/>
<path fill="#E6B045" d="M34.959,45.149c-0.314,1.777,5.425,2.79,5.789,0.733C40.942,42.849,35.588,41.988,34.959,45.149z"/>
<path fill="#613F34" d="M34.959,45.149c-0.314,1.777,5.425,2.79,5.789,0.733C40.119,46.749,35.282,46.021,34.959,45.149z"/>
<linearGradient id="SVGID_2_" gradientUnits="userSpaceOnUse" x1="105.4072" y1="93.3145" x2="105.4072" y2="75.7109" gradientTransform="matrix(0.9848 0.1736 -0.1736 0.9848 -45.3958 -62.4643)">
	<stop  offset="0" style="stop-color:#473834"/>
	<stop  offset="0.2717" style="stop-color:#594640"/>
	<stop  offset="0.7226" style="stop-color:#715950"/>
	<stop  offset="1" style="stop-color:#7A6056"/>
	<a:midPointStop  offset="0" style="stop-color:#473834"/>
	<a:midPointStop  offset="0.4" style="stop-color:#473834"/>
	<a:midPointStop  offset="1" style="stop-color:#7A6056"/>
</linearGradient>
<path fill="url(#SVGID_2_)" d="M45.376,30.414c-4.497-0.793-7.104,0.848-7.73,1.732c-5.657,0.285-9.021,9.152-5.644,13.783
	c1.241-4.081,2.2-6.675,5.47-9.008c1.235,2.451,4.379,4.262,7.388,4.793c-1.241-1.286-2.034-2.471-2.629-3.551
	c4.615,3.191,9.979,5.658,10.406,11.404C58.825,42.727,56.513,32.377,45.376,30.414z"/>
<path fill="#473834" d="M37.633,32.145c-0.745,3.83,0.299,6.976,7.23,9.571C39.665,41.156,34.941,37.123,37.633,32.145z"/>
<path fill="#473834" d="M37.305,36.641c-2.195,1.514-4.857,4.338-5.319,9.286c1.083-3.966,3.52-6.959,5.576-8.813
	C37.467,36.963,37.381,36.806,37.305,36.641z"/>
<path fill="#473834" d="M40.728,35.989c3.125,4.249,12.397,5.644,11.928,13.582C51.582,41.58,43.117,41.838,40.728,35.989z"/>
<path fill="#473834" d="M12.312,54.226c-0.643,0.607-1.414,1.112-2.359,1.468c1.036-4.259-3.04-12.09,1.244-19.127
	c7.594-1.106,12.946,23.142,1.844,21.748c0.618-0.408,0.936-1.075,1.05-1.867c-0.771,0.376-1.718,0.551-2.884,0.406
	C12.018,56.318,12.308,55.343,12.312,54.226z"/>
<path id="Path_1552_" fill="#FFCC66" d="M9.9,45.377c1.742-0.094,3.98,5.402,3.176,7.099c-0.113,0.237-0.936,0.728-1.821-0.487
	c-0.49-0.673-1.641-1.104-2.232-2.566C8.268,47.547,8.165,45.471,9.9,45.377z"/>
<path id="Path_1550_" fill="#DB9D3A" d="M10.14,46.465c0.469,0.063,1.075,0.654,1.537,1.734c-1.614-0.061-0.77,2.463,0.592,2.273
	c0.034,0.263,0.063,0.535,0.081,0.822c-0.818-0.832-1.413-0.335-2.317-1.627C9.218,48.502,8.977,46.313,10.14,46.465z"/>
<path fill="#FFCC66" d="M18.983,32.451c7.392-1.304,12.014,4.088,12.934,11.906c0.183,1.573,0.147,3.895-0.049,5.911
	c-0.402,4.192-5.544,9.25-8.035,9.688c-2.49,0.439-9.05-2.555-10.862-6.355c-0.874-1.83-1.702-3.998-2.069-5.538
	C9.093,40.402,11.591,33.754,18.983,32.451z"/>
<path id="Path_1548_" fill="#966F42" d="M12.697,43.767c1.533-1.192,4.761-1.806,6.076-1.396c0.279,0.077,0.258,0.954,0.026,0.913
	c-1.798-0.369-4.509,0.094-5.949,1.107C12.656,44.522,12.464,43.937,12.697,43.767z"/>
<path id="Path_704_" fill="#966F42" d="M28.76,40.935c-1.849-0.598-5.089-0.07-6.186,0.766c-0.236,0.166,0.083,0.984,0.286,0.865
	c1.563-0.96,4.268-1.453,5.971-0.994C29.058,41.63,29.038,41.014,28.76,40.935z"/>
<path id="Path_703_" fill="#DB9D3A" d="M20.295,51.057c0.174-0.192,0.716-0.076,1.992-0.359c1.277-0.285,1.717-0.619,1.962-0.521
	c0.288,0.122,0.067,1.007-1.761,1.414C20.656,51.997,20.082,51.289,20.295,51.057z"/>
<path fill="#E6AA37" d="M26.95,53.518c2.169,2.303-3.072,3.247-4.763,0.997L26.95,53.518z"/>
<path fill="#CC9200" d="M25.681,53.14c-1.153-0.341-1.938,0.699-3.493,1.375c1.509,0.393,3.486,0.134,3.665-0.512
	c0,0,0.646,0.322,1.151-0.256C27.57,53.104,26.785,52.325,25.681,53.14z"/>
<path fill="#E6B045" d="M13.875,47.823c0.312,1.776,6.054,0.765,5.689-1.292C18.712,43.614,13.385,44.639,13.875,47.823z"/>
<path fill="#613F34" d="M13.876,47.823c0.312,1.776,6.054,0.765,5.69-1.293C19.271,47.561,14.477,48.531,13.876,47.823z"/>
<path fill="#E6B045" d="M29.041,45.149c0.314,1.777-5.425,2.79-5.789,0.733C23.058,42.849,28.412,41.988,29.041,45.149z"/>
<path fill="#613F34" d="M29.041,45.149c0.314,1.777-5.425,2.79-5.789,0.733C23.881,46.749,28.718,46.021,29.041,45.149z"/>
<linearGradient id="SVGID_3_" gradientUnits="userSpaceOnUse" x1="647.0527" y1="-2.167" x2="647.0527" y2="-19.77" gradientTransform="matrix(-0.9848 0.1736 0.1736 0.9848 659.3841 -62.4643)">
	<stop  offset="0" style="stop-color:#473834"/>
	<stop  offset="0.2717" style="stop-color:#594640"/>
	<stop  offset="0.7226" style="stop-color:#715950"/>
	<stop  offset="1" style="stop-color:#7A6056"/>
	<a:midPointStop  offset="0" style="stop-color:#473834"/>
	<a:midPointStop  offset="0.4" style="stop-color:#473834"/>
	<a:midPointStop  offset="1" style="stop-color:#7A6056"/>
</linearGradient>
<path fill="url(#SVGID_3_)" d="M18.624,30.414c4.497-0.793,7.104,0.848,7.73,1.732c5.657,0.285,9.021,9.152,5.644,13.783
	c-1.241-4.081-2.2-6.675-5.47-9.008c-1.235,2.451-4.379,4.262-7.388,4.793c1.241-1.286,2.034-2.471,2.629-3.551
	c-4.615,3.191-9.979,5.658-10.406,11.404C5.175,42.727,7.487,32.377,18.624,30.414z"/>
<path fill="#473834" d="M26.367,32.145c0.745,3.83-0.299,6.976-7.23,9.571C24.335,41.156,29.059,37.123,26.367,32.145z"/>
<path fill="#473834" d="M26.695,36.641c2.195,1.514,4.857,4.338,5.319,9.286c-1.083-3.966-3.52-6.959-5.576-8.813
	C26.533,36.963,26.619,36.806,26.695,36.641z"/>
<path fill="#473834" d="M23.272,35.989c-3.125,4.249-12.397,5.644-11.928,13.582C12.418,41.58,20.883,41.838,23.272,35.989z"/>
</svg>
