<?xml version="1.0" encoding="utf-8"?>
<!-- Generator: Adobe Illustrator 15.0.0, SVG Export Plug-In . SVG Version: 6.00 Build 0)  -->
<!DOCTYPE svg PUBLIC "-//W3C//DTD SVG 1.1//EN" "http://www.w3.org/Graphics/SVG/1.1/DTD/svg11.dtd" [
	<!ENTITY ns_flows "http://ns.adobe.com/Flows/1.0/">
	<!ENTITY ns_extend "http://ns.adobe.com/Extensibility/1.0/">
	<!ENTITY ns_ai "http://ns.adobe.com/AdobeIllustrator/10.0/">
	<!ENTITY ns_graphs "http://ns.adobe.com/Graphs/1.0/">
]>
<svg version="1.1" id="Layer_1" xmlns:x="&ns_extend;" xmlns:i="&ns_ai;" xmlns:graph="&ns_graphs;"
	 xmlns="http://www.w3.org/2000/svg" xmlns:xlink="http://www.w3.org/1999/xlink" xmlns:a="http://ns.adobe.com/AdobeSVGViewerExtensions/3.0/"
	 x="0px" y="0px" width="64px" height="64px" viewBox="0 0 64 64" enable-background="new 0 0 64 64" xml:space="preserve">
<linearGradient id="SVGID_1_" gradientUnits="userSpaceOnUse" x1="2.0005" y1="55.1914" x2="52.0019" y2="55.1914">
	<stop  offset="0.7" style="stop-color:#FF7A00"/>
	<stop  offset="1" style="stop-color:#D86100"/>
	<a:midPointStop  offset="0.7" style="stop-color:#FF7A00"/>
	<a:midPointStop  offset="0.5" style="stop-color:#FF7A00"/>
	<a:midPointStop  offset="1" style="stop-color:#D86100"/>
</linearGradient>
<path fill="url(#SVGID_1_)" d="M46.312,52.114c-3.359-1.491-9.832-3.73-9.832-3.73L17.5,48.421c0,0-8.566,2.966-11.066,4.331
	C2.807,54.729,2,62,2,62h44.311V52.114z"/>
<path fill="#ED6A00" d="M11.028,62h-0.693C10.334,56.667,11.028,56.667,11.028,62z"/>
<path fill="#ED6A00" d="M43.669,62h-0.695C42.974,56.667,43.669,56.667,43.669,62z"/>
<path fill="#ED6A00" d="M17.5,48.421c0,8.123,18.979,8.086,18.979-0.037l-1.709-0.601H19.311L17.5,48.421z"/>
<path fill="#69452D" d="M19,48.011c0,6.358,16,6.358,16,0c0-2.164,0-7.035,0-7.035H19C19,40.976,19,45.847,19,48.011z"/>
<path fill="#3B2118" d="M42.212,38.785c1.082,0.715,2.33,1.248,3.787,1.521c-2.586-5.888,1.314-18.237-6.682-27.311
	c-11.27,0.337-12.829,36.722,2.883,31.883c-1-0.433-1.629-1.315-1.996-2.43c1.211,0.347,2.627,0.358,4.275-0.148
	C43.167,41.734,42.499,40.399,42.212,38.785z"/>
<path fill="#3B2118" d="M13.92,12.995c-7.996,9.073-3.334,21.423-5.922,27.311c1.457-0.272,2.707-0.806,3.789-1.521
	c-0.289,1.614-0.957,2.949-2.27,3.515c1.648,0.507,3.063,0.495,4.273,0.148c-0.367,1.114-0.992,1.997-1.992,2.43
	C27.508,49.717,25.192,13.332,13.92,12.995z"/>
<path id="Path_1866_" fill="#916B50" d="M43.442,25.393c-2.547,0.308-4.383,8.815-2.783,11.061c0.225,0.314,1.535,0.813,2.508-1.167
	c0.539-1.098,2.094-2.013,2.574-4.277C46.358,28.109,45.976,25.086,43.442,25.393z"/>
<path id="Path_1865_" fill="#916B50" d="M10.557,25.393c2.547,0.308,4.385,8.815,2.783,11.061c-0.225,0.314-1.537,0.813-2.508-1.167
	c-0.539-1.098-2.094-2.013-2.574-4.277C7.641,28.109,8.026,25.086,10.557,25.393z"/>
<path id="Path_1864_" fill="#69452D" d="M43.372,27.023c-0.664,0.209-1.389,1.22-1.781,2.896c2.322-0.498,1.742,3.362-0.275,3.435
	c0.018,0.389,0.045,0.788,0.092,1.208c0.973-1.409,1.959-0.844,2.938-2.94C45.226,29.731,45.017,26.508,43.372,27.023z"/>
<path id="Path_1863_" fill="#69452D" d="M12.409,29.916c-0.395-1.675-1.117-2.686-1.781-2.893c-1.645-0.516-1.855,2.708-0.975,4.599
	c0.979,2.097,1.967,1.531,2.939,2.94c0.049-0.421,0.074-0.821,0.092-1.209C10.686,33.258,10.116,29.446,12.409,29.916z"/>
<path fill="#916B50" d="M26.999,9.035c-11.029,0-16.342,8.965-15.678,20.492c0.137,2.317,0.783,5.661,1.58,8.524
	C14.555,44.006,23.282,50,26.999,50s12.444-5.994,14.1-11.948c0.797-2.863,1.441-6.207,1.578-8.524
	C43.341,18,38.03,9.035,26.999,9.035z"/>
<path id="Path_1862_" fill="#5E4431" d="M38.981,24.543c-2.521-1.333-7.35-1.398-9.147-0.47c-0.387,0.18-0.131,1.443,0.193,1.323
	c2.504-0.989,6.547-1.012,8.893,0.085C39.233,25.623,39.364,24.729,38.981,24.543z"/>
<path id="Path_1861_" fill="#5E4431" d="M15.018,24.543c2.521-1.333,7.346-1.398,9.146-0.47c0.383,0.18,0.131,1.443-0.193,1.323
	c-2.51-0.989-6.547-1.012-8.895,0.085C14.764,25.623,14.635,24.729,15.018,24.543z"/>
<path id="Path_1860_" fill="#69452D" d="M29.975,36.108c-0.314-0.22-1.053,0.118-2.977,0.118c-1.92,0-2.66-0.338-2.977-0.118
	c-0.375,0.265,0.225,1.462,2.977,1.462C29.752,37.57,30.354,36.373,29.975,36.108z"/>
<path id="Path_1859_" fill="#69452D" d="M26.999,40.646c-2.48-0.728-6.156,0.345-6.156,0.345c1.4,1.523,2.426,3.497,6.156,3.497
	c4.273,0,5.002-2.242,6.159-3.497C33.157,40.99,29.479,39.913,26.999,40.646z"/>
<path id="Path_1858_" fill="#FFFFFF" d="M21.766,41.248c2.602,2.178,7.852,2.193,10.467,0
	C29.461,41.366,24.557,41.368,21.766,41.248z"/>
<path id="Path_1857_" fill="#FFFFFF" d="M24.545,29.086c0.094,0.729-0.402,1.593-1.773,2.24c-0.873,0.412-2.684,0.896-5.066-0.106
	c-1.066-0.449-2.107-1.85-2.014-2.623C16.983,26.167,23.336,25.812,24.545,29.086z"/>
<linearGradient id="Oval_1_" gradientUnits="userSpaceOnUse" x1="-425.3433" y1="477.4658" x2="-425.3433" y2="478.2246" gradientTransform="matrix(6.5701 0 0 -6.5701 2814.7805 3168.5281)">
	<stop  offset="0" style="stop-color:#A6694A"/>
	<stop  offset="1" style="stop-color:#4F2A1E"/>
	<a:midPointStop  offset="0" style="stop-color:#A6694A"/>
	<a:midPointStop  offset="0.5" style="stop-color:#A6694A"/>
	<a:midPointStop  offset="1" style="stop-color:#4F2A1E"/>
</linearGradient>
<ellipse id="Oval_248_" fill="url(#Oval_1_)" cx="20.233" cy="29.037" rx="2.498" ry="2.492"/>
<path id="Path_1856_" fill="#1A1626" d="M18.987,28.991c0,1.725,2.496,1.725,2.496,0C21.483,27.391,18.987,27.391,18.987,28.991z"/>
<path id="Path_1855_" fill="#AB968C" d="M18.606,28.293c0,0.724,1.047,0.724,1.047,0C19.653,27.623,18.606,27.623,18.606,28.293z"/>
<path id="Path_1854_" fill="#69452D" d="M24.557,29.183c-1.014-3.253-7.924-2.772-8.865-0.586
	C16.04,25.797,23.694,25.058,24.557,29.183z"/>
<path id="Path_1853_" fill="#FFFFFF" d="M29.454,29.086c-0.096,0.729,0.4,1.593,1.773,2.24c0.871,0.412,2.684,0.896,5.065-0.106
	c1.07-0.449,2.109-1.85,2.016-2.623C37.019,26.167,30.661,25.812,29.454,29.086z"/>
<linearGradient id="Oval_2_" gradientUnits="userSpaceOnUse" x1="-425.9907" y1="477.4658" x2="-425.9907" y2="478.2246" gradientTransform="matrix(6.5701 0 0 -6.5701 2832.511 3168.5281)">
	<stop  offset="0" style="stop-color:#A6694A"/>
	<stop  offset="1" style="stop-color:#4F2A1E"/>
	<a:midPointStop  offset="0" style="stop-color:#A6694A"/>
	<a:midPointStop  offset="0.5" style="stop-color:#A6694A"/>
	<a:midPointStop  offset="1" style="stop-color:#4F2A1E"/>
</linearGradient>
<path id="Oval_247_" fill="url(#Oval_2_)" d="M33.71,26.545c1.377,0,2.496,1.115,2.496,2.492c0,1.376-1.119,2.492-2.496,2.492
	c-1.381,0-2.499-1.116-2.499-2.492C31.211,27.66,32.329,26.545,33.71,26.545z"/>
<path id="Path_1852_" fill="#1A1626" d="M32.461,28.991c0,1.725,2.497,1.725,2.497,0C34.958,27.391,32.461,27.391,32.461,28.991z"/>
<path id="Path_1851_" fill="#AB968C" d="M32.083,28.293c0,0.724,1.045,0.724,1.045,0C33.128,27.623,32.083,27.623,32.083,28.293z"/>
<path id="Path_1850_" fill="#69452D" d="M29.442,29.183c1.012-3.251,7.92-2.786,8.866-0.586
	C37.958,25.797,30.305,25.058,29.442,29.183z"/>
<linearGradient id="SVGID_2_" gradientUnits="userSpaceOnUse" x1="26.8359" y1="31.8184" x2="26.8359" y2="6">
	<stop  offset="0" style="stop-color:#3B2118"/>
	<stop  offset="0.0953" style="stop-color:#40251C"/>
	<stop  offset="0.6555" style="stop-color:#58392F"/>
	<stop  offset="1" style="stop-color:#614036"/>
	<a:midPointStop  offset="0" style="stop-color:#3B2118"/>
	<a:midPointStop  offset="0.4" style="stop-color:#3B2118"/>
	<a:midPointStop  offset="1" style="stop-color:#614036"/>
</linearGradient>
<path fill="url(#SVGID_2_)" d="M27,6c-6.711,0-10.064,3.035-10.744,4.474c-8.113,1.852-10.723,15.515-4.648,21.345
	c0.754-6.211,1.48-10.201,5.617-14.405c2.412,3.227,7.424,5.042,11.91,5.042c-2.125-1.54-3.574-3.051-4.711-4.458
	c7.494,3.434,15.885,5.631,17.969,13.821C49.603,20.359,43.614,6,27,6z"/>
<path fill="#69452D" d="M53.095,40.838c0.611-0.342,0.564-1.785-0.918-1.404c-3.564,0.916-5.711,1.596-6.732,3.496
	C44.755,44.211,48.79,42.791,53.095,40.838z"/>
<path fill="#FF7A00" d="M51.845,62c0,0-0.467-15.172-1.031-15.766c-1.053-1.104-5.824-0.666-6.635,0.021S41.845,62,41.845,62H51.845
	z"/>
<path fill="#916B50" d="M50.454,46.75c-0.09-0.662,0.326-1.234,0.326-1.234s12.963-2.807,11.021-5.51
	c-0.836-1.162-5.111,0.26-8.902,0.695c-2.307,0.266-8.887-0.998-8.268,6.049C44.761,48.201,50.558,47.541,50.454,46.75z"/>
<path fill="#3B2118" d="M16.256,10.472c-0.102,5.721,2.209,10,12.879,11.982C21.485,22.971,13.635,18.349,16.256,10.472z"/>
<path fill="#3B2118" d="M16.926,17.049c-2.785,2.745-5.912,7.504-5.318,14.769c0.553-6.005,3.313-10.949,5.811-14.152
	C17.241,17.473,17.077,17.267,16.926,17.049z"/>
<path fill="#3B2118" d="M21.704,15.235c5.596,5.342,19.346,4.994,20.69,16.582C38.806,20.546,26.647,23.075,21.704,15.235z"/>
</svg>
