<?xml version="1.0" encoding="utf-8"?>
<!-- Generator: Adobe Illustrator 15.0.0, SVG Export Plug-In . SVG Version: 6.00 Build 0)  -->
<!DOCTYPE svg PUBLIC "-//W3C//DTD SVG 1.1//EN" "http://www.w3.org/Graphics/SVG/1.1/DTD/svg11.dtd" [
	<!ENTITY ns_flows "http://ns.adobe.com/Flows/1.0/">
	<!ENTITY ns_extend "http://ns.adobe.com/Extensibility/1.0/">
	<!ENTITY ns_ai "http://ns.adobe.com/AdobeIllustrator/10.0/">
	<!ENTITY ns_graphs "http://ns.adobe.com/Graphs/1.0/">
]>
<svg version="1.1" id="Layer_1" xmlns:x="&ns_extend;" xmlns:i="&ns_ai;" xmlns:graph="&ns_graphs;"
	 xmlns="http://www.w3.org/2000/svg" xmlns:xlink="http://www.w3.org/1999/xlink" xmlns:a="http://ns.adobe.com/AdobeSVGViewerExtensions/3.0/"
	 x="0px" y="0px" width="64px" height="64px" viewBox="0 0 64 64" enable-background="new 0 0 64 64" xml:space="preserve">
<path fill="#473834" d="M61.999,42.262c-7.813,5.521-14.764-11.996-14.764-11.996H4.766c0,0-1.516,14.409,13.648,20.476
	c0,0,20.348,2.888,24.897,2.902C61.062,53.698,61.999,42.262,61.999,42.262z"/>
<linearGradient id="SVGID_1_" gradientUnits="userSpaceOnUse" x1="1769.9805" y1="5.9551" x2="1769.9805" y2="51.6727" gradientTransform="matrix(-1 0 0 1 1780.8145 0)">
	<stop  offset="0.3" style="stop-color:#7A6056"/>
	<stop  offset="0.4803" style="stop-color:#715950"/>
	<stop  offset="0.7734" style="stop-color:#594640"/>
	<stop  offset="0.95" style="stop-color:#473834"/>
	<a:midPointStop  offset="0.3" style="stop-color:#7A6056"/>
	<a:midPointStop  offset="0.6" style="stop-color:#7A6056"/>
	<a:midPointStop  offset="0.95" style="stop-color:#473834"/>
</linearGradient>
<path fill="url(#SVGID_1_)" d="M10.667,31.804c-1.551,6.532-0.732,12.999,7.752,18.938C9.317,49.225,3.25,40.631,3.25,34.037
	L10.667,31.804z"/>
<path fill="#8E3ED6" d="M6.254,52.752C8.657,51.387,17,48.361,17,48.361h18c0,0,8.412,3.018,10.801,4.387
	C49.271,54.732,50.001,62,50.001,62H2C2,62,2.774,54.729,6.254,52.752z"/>
<path fill="#732EB0" d="M10.667,62H10C10,56.666,10.667,56.666,10.667,62z"/>
<path fill="#732EB0" d="M42.001,62h-0.668C41.333,56.666,42.001,56.666,42.001,62z"/>
<path fill="#732EB0" d="M17,48.361c0,8.123,18,8.123,18,0l-1.543-0.535H18.5L17,48.361z"/>
<path fill="#E6B045" d="M18.5,48.01c0,6.359,15,6.359,15,0c0-2.164,0-7.035,0-7.035h-15C18.5,40.975,18.5,45.846,18.5,48.01z"/>
<path fill="#FFCC66" d="M26,8.275c-11.006,0-16.307,8.962-15.645,20.485c0.137,2.315,0.781,5.657,1.576,8.52
	C13.583,43.231,22.292,49.225,26,49.225c3.707,0,12.417-5.993,14.069-11.944c0.795-2.862,1.439-6.204,1.576-8.52
	C42.306,17.237,37.009,8.275,26,8.275z"/>
<path fill="#D47706" d="M25.999,39.869c-2.578-1.134-2.6-0.045-6.58,0.221c1.494,1.698,2.594,3.88,6.578,3.88
	c4.574,0,5.348-2.479,6.586-3.88C28.596,39.824,28.581,38.735,25.999,39.869z"/>
<path fill="#FFFFFF" d="M20.614,40.514c2.6,2.705,8.205,2.669,10.771,0.002C27.383,40.945,24.616,40.945,20.614,40.514z"/>
<path fill="#966F42" d="M37.694,24.927c-2.391-1.425-6.68-1.601-8.377-0.629c-0.359,0.196-0.264,1.226,0.049,1.097
	c2.42-1.008,6.108-1.058,8.381,0.108C38.05,25.656,38.058,25.134,37.694,24.927z"/>
<path fill="#966F42" d="M14.305,24.927c2.391-1.425,6.678-1.601,8.379-0.629c0.359,0.196,0.264,1.226-0.049,1.097
	c-2.422-1.008-6.105-1.06-8.381,0.108C13.95,25.656,13.944,25.134,14.305,24.927z"/>
<path fill="#DB9D3A" d="M28.473,36.213c-0.262-0.184-0.877,0.099-2.475,0.099s-2.211-0.282-2.473-0.099
	c-0.314,0.221,0.184,1.217,2.473,1.217S28.79,36.435,28.473,36.213z"/>
<path id="Path_218_" fill="#FFFFFF" d="M23.551,29.25c0.094,0.727-0.4,1.591-1.77,2.238c-0.869,0.411-2.678,0.896-5.055-0.107
	c-1.066-0.448-2.104-1.847-2.01-2.62C16.004,26.332,22.346,25.977,23.551,29.25z"/>
<linearGradient id="Oval_1_" gradientUnits="userSpaceOnUse" x1="-425.4927" y1="477.4414" x2="-425.4927" y2="478.1992" gradientTransform="matrix(6.5701 0 0 -6.5701 2814.7805 3168.5281)">
	<stop  offset="0" style="stop-color:#A6694A"/>
	<stop  offset="1" style="stop-color:#4F2A1E"/>
	<a:midPointStop  offset="0" style="stop-color:#A6694A"/>
	<a:midPointStop  offset="0.5" style="stop-color:#A6694A"/>
	<a:midPointStop  offset="1" style="stop-color:#4F2A1E"/>
</linearGradient>
<circle id="Oval_32_" fill="url(#Oval_1_)" cx="19.249" cy="29.2" r="2.49"/>
<path id="Path_217_" fill="#1A1626" d="M18.004,29.155c0,1.723,2.492,1.723,2.492,0C20.497,27.556,18.004,27.556,18.004,29.155z"/>
<path id="Path_216_" fill="#AB968C" d="M17.625,28.457c0,0.723,1.045,0.723,1.045,0C18.67,27.788,17.625,27.788,17.625,28.457z"/>
<path id="Path_215_" fill="#45332C" d="M23.563,29.346c-1.012-3.251-7.908-2.771-8.846-0.585
	C15.065,25.962,22.702,25.223,23.563,29.346z"/>
<path id="Path_214_" fill="#FFFFFF" d="M28.448,29.25c-0.092,0.727,0.402,1.591,1.771,2.238c0.869,0.411,2.678,0.896,5.055-0.107
	c1.066-0.448,2.104-1.847,2.01-2.62C35.997,26.332,29.655,25.977,28.448,29.25z"/>
<linearGradient id="Oval_2_" gradientUnits="userSpaceOnUse" x1="-426.145" y1="477.4414" x2="-426.145" y2="478.1992" gradientTransform="matrix(6.5701 0 0 -6.5701 2832.511 3168.5281)">
	<stop  offset="0" style="stop-color:#A6694A"/>
	<stop  offset="1" style="stop-color:#4F2A1E"/>
	<a:midPointStop  offset="0" style="stop-color:#A6694A"/>
	<a:midPointStop  offset="0.5" style="stop-color:#A6694A"/>
	<a:midPointStop  offset="1" style="stop-color:#4F2A1E"/>
</linearGradient>
<circle id="Oval_31_" fill="url(#Oval_2_)" cx="32.694" cy="29.2" r="2.49"/>
<path id="Path_213_" fill="#1A1626" d="M31.45,29.155c0,1.723,2.493,1.723,2.493,0C33.942,27.556,31.45,27.556,31.45,29.155z"/>
<path id="Path_212_" fill="#AB968C" d="M31.071,28.457c0,0.723,1.045,0.723,1.045,0C32.116,27.788,31.071,27.788,31.071,28.457z"/>
<path id="Path_211_" fill="#45332C" d="M28.438,29.346c1.01-3.249,7.903-2.784,8.846-0.585
	C36.935,25.962,29.299,25.223,28.438,29.346z"/>
<linearGradient id="SVGID_2_" gradientUnits="userSpaceOnUse" x1="20.8696" y1="5.9556" x2="20.8696" y2="51.6735">
	<stop  offset="0.3" style="stop-color:#7A6056"/>
	<stop  offset="0.4803" style="stop-color:#715950"/>
	<stop  offset="0.7734" style="stop-color:#594640"/>
	<stop  offset="0.95" style="stop-color:#473834"/>
	<a:midPointStop  offset="0.3" style="stop-color:#7A6056"/>
	<a:midPointStop  offset="0.6" style="stop-color:#7A6056"/>
	<a:midPointStop  offset="0.95" style="stop-color:#473834"/>
</linearGradient>
<path fill="url(#SVGID_2_)" d="M38.388,9.884c1.256-1.794-9.389-5.582-19.44-3.023C8.909,9.159,3.25,24.2,3.25,34.037
	c0.898,0.713,6.396-1.064,7.416-2.233c0.416-1.721,1.072-3.492,1.684-5.328C19.889,22.11,34.187,19.643,38.388,9.884z"/>
<path fill="#473834" d="M5.057,32.541c6.945-9.247,29.44-8.62,33.331-22.657C30.834,21.665,6.956,23.652,5.057,32.541z"/>
<path fill="#BEC3CF" d="M49.294,12.776c0,0-0.965-1.629-0.445-6.484c0.004-0.037,0.027-0.629-0.002-0.863
	c-0.254-2.141-2.275-3.664-4.516-3.398c-2.238,0.268-3.848,2.219-3.594,4.363c0.252,2.141,2.273,3.662,4.514,3.396
	c0.629-0.076,1.209-0.287,1.707-0.594c0.279,0.453-0.166,2.973-0.166,2.973s1.045,8.195,4.473,21.105L49.294,12.776z M46.89,5.663
	c0.133,1.107-0.701,2.117-1.859,2.254s-2.205-0.65-2.336-1.758c-0.133-1.107,0.701-2.115,1.859-2.254S46.761,4.556,46.89,5.663z"/>
<linearGradient id="SVGID_3_" gradientUnits="userSpaceOnUse" x1="48.0977" y1="5.9556" x2="48.0977" y2="51.6721">
	<stop  offset="0.3" style="stop-color:#7A6056"/>
	<stop  offset="0.4803" style="stop-color:#715950"/>
	<stop  offset="0.7734" style="stop-color:#594640"/>
	<stop  offset="0.95" style="stop-color:#473834"/>
	<a:midPointStop  offset="0.3" style="stop-color:#7A6056"/>
	<a:midPointStop  offset="0.6" style="stop-color:#7A6056"/>
	<a:midPointStop  offset="0.95" style="stop-color:#473834"/>
</linearGradient>
<path fill="url(#SVGID_3_)" d="M34.343,15.858c-1.08,1.957,4.043,6.014,6.26,13.343c5.996,19.821,19.814,19.67,21.396,13.06
	c-3.916,1.069-9.852-4.573-11.166-12.264C48.958,19.039,44.708,9.289,38.388,9.884C38.388,9.884,36.417,13.642,34.343,15.858z"/>
<path fill="#CFD8DD" d="M61.108,11.823c1.406-1.703,1.117-4.162-0.648-5.486c-1.762-1.328-4.33-1.025-5.736,0.68
	c-0.15,0.186-0.461,0.701-0.479,0.736c-2.252,4.395-3.766,5.443-3.766,5.443c-0.857-1.029-3.414-0.561-3.01,1.924
	c0.227,1.377-4.145,5.955-7.494,15.148l12.766-16.496c0,0,1.018-2.365,1.502-2.617c0.26,0.512,0.635,0.973,1.129,1.346
	C57.14,13.827,59.704,13.524,61.108,11.823z M59.569,10.661c-0.725,0.881-2.055,1.037-2.967,0.352s-1.064-1.957-0.336-2.838
	c0.727-0.879,2.055-1.037,2.969-0.352C60.146,8.511,60.296,9.782,59.569,10.661z"/>
<path fill="#302C3B" d="M50.165,15.315c0.369-0.453,0.295-1.104-0.174-1.455s-1.148-0.27-1.521,0.178
	c-0.371,0.453-0.297,1.104,0.174,1.455C49.108,15.847,49.788,15.765,50.165,15.315z"/>
</svg>
