<?xml version="1.0" encoding="utf-8"?>
<!-- Generator: Adobe Illustrator 15.0.0, SVG Export Plug-In . SVG Version: 6.00 Build 0)  -->
<!DOCTYPE svg PUBLIC "-//W3C//DTD SVG 1.1//EN" "http://www.w3.org/Graphics/SVG/1.1/DTD/svg11.dtd" [
	<!ENTITY ns_flows "http://ns.adobe.com/Flows/1.0/">
	<!ENTITY ns_extend "http://ns.adobe.com/Extensibility/1.0/">
	<!ENTITY ns_ai "http://ns.adobe.com/AdobeIllustrator/10.0/">
	<!ENTITY ns_graphs "http://ns.adobe.com/Graphs/1.0/">
]>
<svg version="1.1" id="Layer_1" xmlns:x="&ns_extend;" xmlns:i="&ns_ai;" xmlns:graph="&ns_graphs;"
	 xmlns="http://www.w3.org/2000/svg" xmlns:xlink="http://www.w3.org/1999/xlink" xmlns:a="http://ns.adobe.com/AdobeSVGViewerExtensions/3.0/"
	 x="0px" y="0px" width="64px" height="64px" viewBox="0 0 64 64" enable-background="new 0 0 64 64" xml:space="preserve">
<path fill="#3AB0A2" d="M6.785,52.752c2.701-1.365,11.711-4.251,11.711-4.251l21-0.031c0,0,9.092,2.909,11.777,4.278
	C55.178,54.732,55.998,62,55.998,62h-54C1.998,62,2.869,54.729,6.785,52.752z"/>
<path fill="#2B998D" d="M11.748,62h-0.75C10.998,56.667,11.748,56.667,11.748,62z"/>
<path fill="#2B998D" d="M46.998,62h-0.75C46.248,56.667,46.998,56.667,46.998,62z"/>
<path fill="#2B998D" d="M18.496,48.501c0,8.123,21,8.092,21-0.031l-2.107-0.687H20.693L18.496,48.501z"/>
<path fill="#DEB38A" d="M19.998,48.011c0,6.358,18,6.358,18,0c0-2.164,0-7.035,0-7.035h-18
	C19.998,40.976,19.998,45.847,19.998,48.011z"/>
<path id="Path_868_" fill="#FFD8B4" d="M45.439,25.394c-2.545,0.307-4.383,8.814-2.781,11.061c0.225,0.313,1.535,0.814,2.508-1.168
	c0.539-1.098,2.092-2.014,2.574-4.277C48.357,28.108,47.973,25.087,45.439,25.394z"/>
<path id="Path_867_" fill="#FFD8B4" d="M12.559,25.394c2.545,0.307,4.383,8.814,2.781,11.061c-0.225,0.313-1.535,0.814-2.51-1.168
	c-0.537-1.098-2.092-2.014-2.572-4.277C9.639,28.108,10.025,25.087,12.559,25.394z"/>
<path id="Path_866_" fill="#DEB38A" d="M45.371,27.022c-0.664,0.209-1.389,1.221-1.781,2.898c2.32-0.498,1.74,3.361-0.277,3.434
	c0.02,0.389,0.045,0.787,0.094,1.207c0.971-1.408,1.959-0.844,2.938-2.939C47.225,29.733,47.016,26.509,45.371,27.022z"/>
<path id="Path_865_" fill="#DEB38A" d="M14.408,29.917c-0.395-1.676-1.117-2.686-1.781-2.895c-1.643-0.514-1.855,2.711-0.973,4.6
	c0.979,2.096,1.967,1.531,2.939,2.939c0.047-0.42,0.074-0.82,0.09-1.209C12.688,33.259,12.115,29.446,14.408,29.917z"/>
<path id="Path_864_" fill="#FFD8B4" d="M28.998,9.034c-11.027,0-16.34,8.328-15.676,19.908c0.133,2.33,1.582,9.93,2.947,12.656
	c1.398,2.789,6.074,7.09,8.938,7.98c1.811,0.561,5.773,0.561,7.582,0c2.865-0.891,7.543-5.191,8.939-7.98
	c1.369-2.727,2.814-10.324,2.945-12.656C45.342,17.362,40.029,9.034,28.998,9.034z"/>
<path id="Path_863_" fill="#A88868" d="M40.98,24.544c-2.521-1.336-7.348-1.4-9.146-0.469c-0.387,0.178-0.131,1.441,0.193,1.322
	c2.504-0.99,6.547-1.012,8.893,0.084C41.232,25.624,41.363,24.729,40.98,24.544z"/>
<path id="Path_862_" fill="#A88868" d="M17.018,24.544c2.521-1.336,7.346-1.4,9.146-0.469c0.385,0.178,0.131,1.441-0.193,1.322
	c-2.51-0.99-6.547-1.012-8.895,0.084C16.766,25.624,16.637,24.729,17.018,24.544z"/>
<path id="Path_861_" fill="#DEB38A" d="M31.975,36.108c-0.314-0.219-1.053,0.119-2.977,0.119c-1.92,0-2.66-0.338-2.975-0.119
	c-0.377,0.266,0.223,1.461,2.975,1.461C31.752,37.569,32.354,36.374,31.975,36.108z"/>
<path id="Path_860_" fill="#DEB38A" d="M28.998,40.646c-2.479-0.729-6.154,0.346-6.154,0.346c1.398,1.521,2.424,3.494,6.154,3.494
	c4.275,0,5.002-2.24,6.156-3.494C35.154,40.991,31.479,39.911,28.998,40.646z"/>
<path id="Path_859_" fill="#FFFFFF" d="M23.766,41.249c2.602,2.176,7.852,2.191,10.467,0C31.461,41.366,26.557,41.368,23.766,41.249
	z"/>
<path id="Path_858_" fill="#FFFFFF" d="M26.545,29.085c0.094,0.73-0.402,1.594-1.773,2.242c-0.871,0.412-2.686,0.896-5.066-0.107
	c-1.066-0.449-2.107-1.848-2.014-2.623C18.982,26.167,25.336,25.812,26.545,29.085z"/>
<linearGradient id="Oval_1_" gradientUnits="userSpaceOnUse" x1="-425.0386" y1="477.4658" x2="-425.0386" y2="478.2236" gradientTransform="matrix(6.5701 0 0 -6.5701 2814.7805 3168.5281)">
	<stop  offset="0" style="stop-color:#A6694A"/>
	<stop  offset="1" style="stop-color:#4F2A1E"/>
	<a:midPointStop  offset="0" style="stop-color:#A6694A"/>
	<a:midPointStop  offset="0.5" style="stop-color:#A6694A"/>
	<a:midPointStop  offset="1" style="stop-color:#4F2A1E"/>
</linearGradient>
<circle id="Oval_118_" fill="url(#Oval_1_)" cx="22.234" cy="29.038" r="2.492"/>
<path id="Path_857_" fill="#1A1626" d="M20.986,28.991c0,1.725,2.496,1.725,2.496,0C23.482,27.392,20.986,27.392,20.986,28.991z"/>
<path id="Path_856_" fill="#AB968C" d="M20.607,28.292c0,0.723,1.045,0.723,1.045,0C21.652,27.624,20.607,27.624,20.607,28.292z"/>
<path id="Path_855_" fill="#DEB38A" d="M26.557,29.181c-1.014-3.25-7.926-2.77-8.865-0.584
	C18.039,25.798,25.693,25.058,26.557,29.181z"/>
<path id="Path_854_" fill="#FFFFFF" d="M31.453,29.085c-0.094,0.73,0.4,1.594,1.773,2.242c0.871,0.412,2.684,0.896,5.064-0.107
	c1.07-0.449,2.109-1.848,2.016-2.623C39.016,26.167,32.66,25.812,31.453,29.085z"/>
<linearGradient id="Oval_2_" gradientUnits="userSpaceOnUse" x1="-425.6865" y1="477.4658" x2="-425.6865" y2="478.2236" gradientTransform="matrix(6.5701 0 0 -6.5701 2832.511 3168.5281)">
	<stop  offset="0" style="stop-color:#A6694A"/>
	<stop  offset="1" style="stop-color:#4F2A1E"/>
	<a:midPointStop  offset="0" style="stop-color:#A6694A"/>
	<a:midPointStop  offset="0.5" style="stop-color:#A6694A"/>
	<a:midPointStop  offset="1" style="stop-color:#4F2A1E"/>
</linearGradient>
<circle id="Oval_117_" fill="url(#Oval_2_)" cx="35.707" cy="29.038" r="2.492"/>
<path id="Path_853_" fill="#1A1626" d="M34.461,28.991c0,1.725,2.496,1.725,2.496,0C36.957,27.392,34.461,27.392,34.461,28.991z"/>
<path id="Path_852_" fill="#AB968C" d="M34.08,28.292c0,0.723,1.047,0.723,1.047,0C35.127,27.624,34.08,27.624,34.08,28.292z"/>
<path id="Path_851_" fill="#DEB38A" d="M31.441,29.181c1.012-3.248,7.92-2.783,8.865-0.584
	C39.955,25.798,32.305,25.058,31.441,29.181z"/>
<path fill="#523E3A" d="M43.084,11.793C40.67,8.532,36.252,6,28.998,6c-7.252,0-11.668,2.532-14.082,5.793
	C11.498,16.409,46.5,16.409,43.084,11.793z"/>
<linearGradient id="SVGID_1_" gradientUnits="userSpaceOnUse" x1="28.9995" y1="31.792" x2="28.9995" y2="10.4116">
	<stop  offset="0.5" style="stop-color:#1E110E"/>
	<stop  offset="0.6367" style="stop-color:#271916"/>
	<stop  offset="0.859" style="stop-color:#3F2E2A"/>
	<stop  offset="1" style="stop-color:#523E3A"/>
	<a:midPointStop  offset="0.5" style="stop-color:#1E110E"/>
	<a:midPointStop  offset="0.6" style="stop-color:#1E110E"/>
	<a:midPointStop  offset="1" style="stop-color:#523E3A"/>
</linearGradient>
<path fill="url(#SVGID_1_)" d="M43.084,11.793c-2.414-3.261-6.832,0.275-14.086,0.275c-7.252,0-11.668-3.536-14.082-0.275
	c-3.418,4.616-2.258,19.999-0.736,19.999c0.24,0,0.275-5.381,0.736-9.104c0.373-3.029,1.094-5.969,1.924-6.449
	c2.531-1.467,7.412,0.631,12.158,0.631s9.629-2.098,12.162-0.631c0.828,0.48,1.547,3.42,1.924,6.449
	c0.459,3.723,0.494,9.104,0.734,9.104C45.34,31.792,46.5,16.409,43.084,11.793z"/>
<path fill="#BEC3CF" d="M47.908,6.749c-0.338,13.354,0.547,21.566,0.547,21.566s1.02,2.348,0.854,2.854
	c-0.557-0.184-1.17-0.254-1.799-0.182c-2.24,0.262-3.854,2.211-3.602,4.352c0.25,2.145,2.27,3.668,4.508,3.41
	c2.24-0.262,3.854-2.213,3.604-4.355c-0.025-0.234-0.186-0.803-0.199-0.84c-1.633-4.602-1.072-6.408-1.072-6.408L47.908,6.749z
	 M48.197,36.872c-1.158,0.137-2.203-0.652-2.332-1.76s0.707-2.115,1.863-2.252c1.16-0.135,2.205,0.654,2.332,1.762
	C50.193,35.729,49.355,36.739,48.197,36.872z"/>
<linearGradient id="SVGID_2_" gradientUnits="userSpaceOnUse" x1="14.9585" y1="14.1709" x2="54.9043" y2="14.1709">
	<stop  offset="0" style="stop-color:#523E3A"/>
	<stop  offset="0.2821" style="stop-color:#3F2E2A"/>
	<stop  offset="0.7266" style="stop-color:#271916"/>
	<stop  offset="1" style="stop-color:#1E110E"/>
	<a:midPointStop  offset="0" style="stop-color:#523E3A"/>
	<a:midPointStop  offset="0.4" style="stop-color:#523E3A"/>
	<a:midPointStop  offset="1" style="stop-color:#1E110E"/>
</linearGradient>
<path fill="url(#SVGID_2_)" d="M29.176,6.001c-11.322,0-17.021,6.407-12.855,10.098c7.4,6.557,36.658,10.461,38.584-1.371
	C44.266,19.491,46.873,6.001,29.176,6.001z"/>
<path fill="#1E110E" d="M15.39,14.968c5.74,6.692,35.423,10.75,39.515-0.24C54.1,26.702,20.318,23.447,15.39,14.968z"/>
<path fill="#CFD8DD" d="M56.725,26.001c-0.393,0.477-0.65,1.014-0.785,1.572c-0.531-0.135-2.068-2.197-2.068-2.197L37.625,12.294
	c5.391,8.164,10.705,11.604,10.807,12.994c0.182,2.51,2.779,2.373,3.373,1.172c0,0,1.717,0.668,4.926,4.422
	c0.025,0.029,0.447,0.459,0.637,0.605c1.764,1.33,4.332,1.029,5.738-0.672c1.41-1.697,1.121-4.156-0.643-5.486
	C60.701,23.999,58.137,24.302,56.725,26.001z M61.568,29.655c-0.73,0.877-2.059,1.033-2.969,0.346
	c-0.912-0.688-1.061-1.959-0.332-2.838c0.727-0.879,2.057-1.035,2.967-0.348C62.146,27.503,62.295,28.774,61.568,29.655z"/>
<path fill="#302C3B" d="M51.006,24.474c0.465,0.354,0.543,1.004,0.17,1.453c-0.375,0.451-1.055,0.531-1.521,0.182
	c-0.467-0.355-0.545-1.004-0.168-1.455C49.855,24.2,50.537,24.122,51.006,24.474z"/>
</svg>
