<?xml version="1.0" encoding="utf-8"?>
<!-- Generator: Adobe Illustrator 15.0.0, SVG Export Plug-In . SVG Version: 6.00 Build 0)  -->
<!DOCTYPE svg PUBLIC "-//W3C//DTD SVG 1.1//EN" "http://www.w3.org/Graphics/SVG/1.1/DTD/svg11.dtd" [
	<!ENTITY ns_flows "http://ns.adobe.com/Flows/1.0/">
	<!ENTITY ns_extend "http://ns.adobe.com/Extensibility/1.0/">
	<!ENTITY ns_ai "http://ns.adobe.com/AdobeIllustrator/10.0/">
	<!ENTITY ns_graphs "http://ns.adobe.com/Graphs/1.0/">
]>
<svg version="1.1" id="Layer_1" xmlns:x="&ns_extend;" xmlns:i="&ns_ai;" xmlns:graph="&ns_graphs;"
	 xmlns="http://www.w3.org/2000/svg" xmlns:xlink="http://www.w3.org/1999/xlink" xmlns:a="http://ns.adobe.com/AdobeSVGViewerExtensions/3.0/"
	 x="0px" y="0px" width="64px" height="64px" viewBox="0 0 64 64" enable-background="new 0 0 64 64" xml:space="preserve">
<rect x="31.5" y="2" fill="#E84D88" width="1" height="10"/>
<rect x="28" y="5.5" fill="#E84D88" width="8" height="1"/>
<radialGradient id="SVGID_1_" cx="-513.2017" cy="-370.8076" r="3.2888" gradientTransform="matrix(2.7273 1.0028 -1.0963 2.9817 1045.7129 1635.1161)" gradientUnits="userSpaceOnUse">
	<stop  offset="0.4182" style="stop-color:#FF4D8D"/>
	<stop  offset="0.5381" style="stop-color:#FD4486"/>
	<stop  offset="0.7352" style="stop-color:#F62B74"/>
	<stop  offset="0.9839" style="stop-color:#EC0356"/>
	<stop  offset="1" style="stop-color:#EB0054"/>
	<a:midPointStop  offset="0.4182" style="stop-color:#FF4D8D"/>
	<a:midPointStop  offset="0.5979" style="stop-color:#FF4D8D"/>
	<a:midPointStop  offset="1" style="stop-color:#EB0054"/>
</radialGradient>
<path fill="url(#SVGID_1_)" d="M52.173,15.803c-0.85-4.494-7.48-5.3-9.182-0.672c-1.142,3.105,0.907,6.219,4.715,12.822
	c7.175-2.565,10.755-3.608,11.896-6.713C61.303,16.61,55.731,12.928,52.173,15.803z"/>
<radialGradient id="SVGID_2_" cx="-450.1826" cy="-432.0566" r="2.655" gradientTransform="matrix(2.7306 -0.9938 1.0866 2.9853 1711.4714 864.1879)" gradientUnits="userSpaceOnUse">
	<stop  offset="0.4182" style="stop-color:#FF4D8D"/>
	<stop  offset="0.5381" style="stop-color:#FD4486"/>
	<stop  offset="0.7352" style="stop-color:#F62B74"/>
	<stop  offset="0.9839" style="stop-color:#EC0356"/>
	<stop  offset="1" style="stop-color:#EB0054"/>
	<a:midPointStop  offset="0.4182" style="stop-color:#FF4D8D"/>
	<a:midPointStop  offset="0.5979" style="stop-color:#FF4D8D"/>
	<a:midPointStop  offset="1" style="stop-color:#EB0054"/>
</radialGradient>
<path fill="url(#SVGID_2_)" d="M12.979,22.579c-2.865-2.33-7.373,0.628-6.012,4.369c0.914,2.509,3.799,3.361,9.585,5.451
	c3.089-5.319,4.754-7.828,3.84-10.338C19.031,18.32,13.677,18.953,12.979,22.579z"/>
<rect x="31" y="11.548" fill="#D93070" width="2" height="1"/>
<polygon fill="#D93070" points="32,27 5,44 59,44 "/>
<polygon fill="#FF8FA8" points="32,29.455 8,44 8,62 56,62 56,44 "/>
<rect x="51" y="43" fill="#F27C96" width="3" height="1"/>
<rect x="43" y="39" fill="#F27C96" width="3" height="1"/>
<rect x="43" y="61" fill="#F27C96" width="3" height="1"/>
<rect x="52" y="55" fill="#F27C96" width="3" height="1"/>
<rect x="45" y="58" fill="#F27C96" width="3" height="1"/>
<rect x="53" y="49" fill="#F27C96" width="3" height="1"/>
<rect x="43" y="51" fill="#F27C96" width="3" height="1"/>
<rect x="45" y="45" fill="#F27C96" width="3" height="1"/>
<rect x="10" y="58" fill="#F27C96" width="3" height="1"/>
<rect x="18" y="43.834" fill="#F27C96" width="3" height="1"/>
<rect x="16" y="39.834" fill="#F27C96" width="3" height="1"/>
<rect x="10" y="43.834" fill="#F27C96" width="3" height="1"/>
<rect x="16" y="46" fill="#F27C96" width="3" height="1"/>
<rect x="18" y="53.834" fill="#F27C96" width="3" height="1"/>
<rect x="8" y="48.834" fill="#F27C96" width="3" height="1"/>
<rect x="17" y="60" fill="#F27C96" width="3" height="1"/>
<path fill="#7AB51D" d="M48.214,59.912c0.215-1.051,2.873-1.635,3.563-0.637c0.437-1.014,2.165-0.813,2.432,0.189
	c0.07-1.104,2.33-1.318,2.874-0.48c0.912-1.33,3.116-0.342,2.87,0.695c2.4,0.102,2.025,2.32,2.025,2.32H45.196
	C44.945,60.039,46.706,58.684,48.214,59.912z"/>
<path fill="#92C932" d="M49.146,60.67c0.627-1.744,3.178-2.801,4.728-0.713c0.731-0.482,1.952-0.414,2.327,0.123
	c0.479-0.566,1.651-0.809,2.229-0.154c1.199-0.742,2.301-0.117,2.301-0.117s-1.608-0.234-2.363,0.902
	c-0.478-0.902-1.938-0.613-2.018,0.309c-0.428-0.939-1.731-1.115-2.934-0.324C53.356,59.793,51.229,58.182,49.146,60.67z"/>
<path fill="#7AB51D" d="M15.786,59.912c-0.215-1.051-2.872-1.635-3.563-0.637c-0.436-1.014-2.164-0.813-2.432,0.189
	c-0.07-1.104-2.33-1.318-2.873-0.48c-0.913-1.33-3.117-0.342-2.871,0.695C1.646,59.781,2.021,62,2.021,62h16.782
	C19.055,60.039,17.294,58.684,15.786,59.912z"/>
<path fill="#92C932" d="M14.854,60.67c-0.627-1.744-3.178-2.801-4.727-0.713c-0.732-0.482-1.953-0.414-2.328,0.123
	c-0.479-0.566-1.651-0.809-2.229-0.154c-1.199-0.742-2.301-0.117-2.301-0.117s1.608-0.234,2.363,0.902
	c0.478-0.902,1.939-0.613,2.018,0.309c0.428-0.939,1.732-1.115,2.934-0.324C10.645,59.793,12.771,58.182,14.854,60.67z"/>
<rect x="27" y="25" fill="#F591AF" width="10" height="11"/>
<rect x="29.75" y="25" fill="#FFA8C3" width="4.5" height="11"/>
<polygon fill="#D93070" points="31,12.048 33,12.048 37,24 27,24 "/>
<polygon fill="#E84D88" points="31.439,12.048 32.563,12.048 34.25,24 29.75,24 "/>
<rect x="26" y="24" fill="#E87B9C" width="12" height="1"/>
<rect x="26" y="36" fill="#E87B9C" width="12" height="1"/>
<polygon fill="#FFA8C3" points="43,62 21,62 21,41 43,41 "/>
<polygon fill="#E84D88" points="39,37.008 25,37 19,41 45,41 "/>
<path fill="#D93070" d="M26,49.383V58h12v-8.617C38,42.019,26,42.019,26,49.383z"/>
<path fill="#FF8FA8" d="M36.895,48.952c-0.447-5.456-9.341-5.456-9.788,0H36.895z"/>
<rect x="27.084" y="49.383" fill="#FF8FA8" width="4.658" height="8.617"/>
<rect x="32.258" y="49.383" fill="#FF8FA8" width="4.659" height="8.617"/>
<rect x="32.781" y="52.946" fill="#D93070" width="0.264" height="1.292"/>
<rect x="30.959" y="52.946" fill="#D93070" width="0.263" height="1.292"/>
<rect x="24" y="60" fill="#E6EBEF" width="16" height="1"/>
<rect x="23" y="61" fill="#CFD8DD" width="18" height="1"/>
<rect x="26" y="58" fill="#E6EBEF" width="12" height="1"/>
<rect x="25" y="59" fill="#CFD8DD" width="14" height="1"/>
<rect x="23" y="56" fill="#F591AF" width="3" height="1"/>
<rect x="40" y="42.834" fill="#F591AF" width="3" height="1"/>
<rect x="26" y="42.834" fill="#F591AF" width="3" height="1"/>
<rect x="33" y="41" fill="#F591AF" width="3" height="1"/>
<rect x="39" y="53.834" fill="#F591AF" width="3" height="1"/>
<rect x="21" y="47.834" fill="#F591AF" width="3" height="1"/>
<rect x="38" y="49" fill="#F591AF" width="3" height="1"/>
<path fill="#302C3B" d="M31.001,29.041v4h2v-4C33.001,27.599,31.001,27.599,31.001,29.041z"/>
<path fill="#E36481" d="M46.5,49.897V58h6v-8.103C52.5,46.036,46.5,46.036,46.5,49.897z"/>
<path fill="#302C3B" d="M47.5,50.253v6.748h4v-6.748C51.5,47.251,47.5,47.251,47.5,50.253z"/>
<path fill-rule="evenodd" clip-rule="evenodd" fill="#C24DBE" d="M50.924,48.798c-0.99-1.047-2.129-0.516-2.129-0.516l0.705,1.461
	L50.924,48.798z"/>
<path fill-rule="evenodd" clip-rule="evenodd" fill="#C21413" d="M48.619,48.372c0,0-0.887,0.447-0.982,1.676l1.352-0.867
	L48.619,48.372z"/>
<polygon fill-rule="evenodd" clip-rule="evenodd" fill="#773E9C" points="47.637,51.313 49.34,49.892 49.064,49.353 47.637,50.272 
	"/>
<path fill-rule="evenodd" clip-rule="evenodd" fill="#FF66A0" d="M51.045,48.946L49.6,49.954l1.049,1.359l0.715-0.531
	C51.363,50.782,51.5,49.626,51.045,48.946z"/>
<polygon fill-rule="evenodd" clip-rule="evenodd" fill="#C21413" points="50.545,51.401 49.447,50.048 47.977,51.313 49.859,52.019 
	"/>
<polygon fill-rule="evenodd" clip-rule="evenodd" fill="#C24DBE" points="49.5,56.868 49.5,55.157 48.488,55.331 47.637,56.302 
	47.637,56.868 "/>
<polygon fill-rule="evenodd" clip-rule="evenodd" fill="#FF66A0" points="51.363,56.868 51.363,55.841 49.998,56.868 "/>
<polygon fill-rule="evenodd" clip-rule="evenodd" fill="#C21413" points="50.681,54.953 49.717,55.157 49.717,56.868 50.924,55.927 
	"/>
<polygon fill="#FF66A0" points="48.619,55.157 50.545,54.749 50.32,53.655 49.066,53.749 "/>
<polygon fill="#C24DBE" points="47.906,51.501 48.988,53.499 50.225,53.499 49.859,52.22 "/>
<polygon fill="#773E9C" points="47.65,55.985 48.404,55.157 48.869,53.749 47.645,54.202 "/>
<polygon fill="#FF66A0" points="47.645,53.921 48.869,53.593 47.637,51.501 "/>
<polygon fill="#C24DBE" points="50.491,53.749 51.029,55.872 51.363,55.729 51.363,54.171 "/>
<polygon fill="#773E9C" points="51.363,50.964 50.063,52.13 50.416,53.499 51.363,53.921 "/>
<path fill="#E36481" d="M11.5,49.897V58h6v-8.103C17.5,46.036,11.5,46.036,11.5,49.897z"/>
<path fill="#302C3B" d="M12.5,50.253v6.748h4v-6.748C16.5,47.251,12.5,47.251,12.5,50.253z"/>
<path fill-rule="evenodd" clip-rule="evenodd" fill="#C24DBE" d="M15.924,48.798c-0.99-1.047-2.129-0.516-2.129-0.516l0.705,1.461
	L15.924,48.798z"/>
<path fill-rule="evenodd" clip-rule="evenodd" fill="#C21413" d="M13.619,48.372c0,0-0.887,0.447-0.982,1.676l1.352-0.867
	L13.619,48.372z"/>
<polygon fill-rule="evenodd" clip-rule="evenodd" fill="#773E9C" points="12.637,51.313 14.34,49.892 14.064,49.353 12.637,50.272 
	"/>
<path fill-rule="evenodd" clip-rule="evenodd" fill="#FF66A0" d="M16.045,48.946L14.6,49.954l1.049,1.359l0.715-0.531
	C16.363,50.782,16.5,49.626,16.045,48.946z"/>
<polygon fill-rule="evenodd" clip-rule="evenodd" fill="#C21413" points="15.545,51.401 14.447,50.048 12.977,51.313 14.859,52.019 
	"/>
<polygon fill-rule="evenodd" clip-rule="evenodd" fill="#C24DBE" points="14.5,56.868 14.5,55.157 13.488,55.331 12.637,56.302 
	12.637,56.868 "/>
<polygon fill-rule="evenodd" clip-rule="evenodd" fill="#FF66A0" points="16.363,56.868 16.363,55.841 14.998,56.868 "/>
<polygon fill-rule="evenodd" clip-rule="evenodd" fill="#C21413" points="15.681,54.953 14.717,55.157 14.717,56.868 15.924,55.927 
	"/>
<polygon fill="#FF66A0" points="13.619,55.157 15.545,54.749 15.32,53.655 14.066,53.749 "/>
<polygon fill="#C24DBE" points="12.906,51.501 13.988,53.499 15.225,53.499 14.859,52.22 "/>
<polygon fill="#773E9C" points="12.65,55.985 13.404,55.157 13.869,53.749 12.645,54.202 "/>
<polygon fill="#FF66A0" points="12.645,53.921 13.869,53.593 12.637,51.501 "/>
<polygon fill="#C24DBE" points="15.491,53.749 16.029,55.872 16.363,55.729 16.363,54.171 "/>
<polygon fill="#773E9C" points="16.363,50.964 15.063,52.13 15.416,53.499 16.363,53.921 "/>
</svg>
