<?xml version="1.0" encoding="utf-8"?>
<!-- Generator: Adobe Illustrator 15.0.0, SVG Export Plug-In . SVG Version: 6.00 Build 0)  -->
<!DOCTYPE svg PUBLIC "-//W3C//DTD SVG 1.1//EN" "http://www.w3.org/Graphics/SVG/1.1/DTD/svg11.dtd" [
	<!ENTITY ns_flows "http://ns.adobe.com/Flows/1.0/">
	<!ENTITY ns_extend "http://ns.adobe.com/Extensibility/1.0/">
	<!ENTITY ns_ai "http://ns.adobe.com/AdobeIllustrator/10.0/">
	<!ENTITY ns_graphs "http://ns.adobe.com/Graphs/1.0/">
]>
<svg version="1.1" id="Layer_1" xmlns:x="&ns_extend;" xmlns:i="&ns_ai;" xmlns:graph="&ns_graphs;"
	 xmlns="http://www.w3.org/2000/svg" xmlns:xlink="http://www.w3.org/1999/xlink" xmlns:a="http://ns.adobe.com/AdobeSVGViewerExtensions/3.0/"
	 x="0px" y="0px" width="64px" height="64px" viewBox="0 0 64 64" enable-background="new 0 0 64 64" xml:space="preserve">
<path fill="#473834" d="M55.921,54.36c0.738,0.486,1.586,0.851,2.578,1.036c-1.76-4.015,0.895-12.435-4.547-18.621
	c-7.67,0.229-8.73,25.038,1.961,21.739c-0.68-0.295-1.107-0.897-1.357-1.657c0.824,0.236,1.787,0.244,2.91-0.101
	C56.573,56.37,56.118,55.46,55.921,54.36z"/>
<path fill="#473834" d="M36.667,36.775c-5.439,6.187-2.27,14.606-4.029,18.621c0.99-0.186,1.842-0.55,2.578-1.036
	c-0.195,1.1-0.652,2.01-1.543,2.396c1.121,0.345,2.084,0.337,2.908,0.101c-0.252,0.76-0.676,1.362-1.357,1.657
	C45.915,61.813,44.339,37.005,36.667,36.775z"/>
<path id="Path_285_" fill="#FFCC66" d="M56.759,45.228c-1.732,0.211-2.982,6.012-1.895,7.543c0.152,0.214,1.047,0.555,1.709-0.797
	c0.365-0.748,1.424-1.371,1.752-2.916C58.743,47.081,58.483,45.019,56.759,45.228z"/>
<path id="Path_284_" fill="#FFCC66" d="M34.38,45.228c1.732,0.211,2.982,6.012,1.893,7.543c-0.152,0.214-1.045,0.555-1.707-0.797
	c-0.367-0.748-1.424-1.371-1.752-2.916C32.394,47.081,32.655,45.019,34.38,45.228z"/>
<path id="Path_283_" fill="#DB9D3A" d="M56.712,46.341c-0.451,0.143-0.945,0.83-1.213,1.975c1.58-0.34,1.186,2.293-0.188,2.342
	c0.012,0.265,0.031,0.537,0.063,0.824c0.662-0.962,1.334-0.576,2-2.006C57.974,48.187,57.831,45.989,56.712,46.341z"/>
<path id="Path_282_" fill="#DB9D3A" d="M35.638,48.313c-0.268-1.142-0.76-1.831-1.211-1.972c-1.119-0.352-1.264,1.846-0.662,3.135
	c0.666,1.43,1.338,1.044,2,2.006c0.033-0.287,0.051-0.561,0.063-0.825C34.468,50.592,34.079,47.992,35.638,48.313z"/>
<path fill="#FFCC66" d="M45.569,34.075c-7.506,0-11.121,6.113-10.67,13.973c0.094,1.58,0.531,3.859,1.074,5.813
	c1.125,4.059,7.066,8.146,9.596,8.146s8.469-4.088,9.594-8.146c0.543-1.953,0.982-4.232,1.076-5.813
	C56.69,40.188,53.075,34.075,45.569,34.075z"/>
<path id="Path_281_" fill="#966F42" d="M53.724,44.649c-1.717-0.909-5.002-0.953-6.225-0.32c-0.264,0.122-0.09,0.984,0.131,0.902
	c1.705-0.675,4.455-0.69,6.053,0.057C53.896,45.386,53.983,44.775,53.724,44.649z"/>
<path id="Path_280_" fill="#966F42" d="M37.415,44.649c1.717-0.909,4.998-0.953,6.225-0.32c0.262,0.122,0.088,0.984-0.131,0.902
	c-1.709-0.675-4.457-0.69-6.055,0.057C37.243,45.386,37.153,44.775,37.415,44.649z"/>
<path id="Path_279_" fill="#DB9D3A" d="M47.595,52.534c-0.215-0.149-0.717,0.081-2.025,0.081s-1.811-0.23-2.025-0.081
	c-0.256,0.182,0.152,0.998,2.025,0.998C47.444,53.532,47.853,52.716,47.595,52.534z"/>
<path id="Path_278_" fill="#DB9D3A" d="M45.569,55.628c-1.688-0.496-4.189,0.235-4.189,0.235c0.951,1.038,1.65,2.384,4.189,2.384
	c2.908,0,3.402-1.527,4.189-2.384C49.759,55.863,47.257,55.128,45.569,55.628z"/>
<path id="Path_277_" fill="#FFFFFF" d="M42.007,56.039c1.771,1.485,5.344,1.495,7.123,0C47.245,56.12,43.907,56.12,42.007,56.039z"
	/>
<path id="Path_276_" fill="#FFFFFF" d="M43.899,47.747c0.064,0.496-0.273,1.086-1.207,1.527c-0.594,0.28-1.828,0.611-3.447-0.073
	c-0.727-0.306-1.436-1.261-1.371-1.788C38.753,45.757,43.077,45.514,43.899,47.747z"/>
<linearGradient id="Oval_1_" gradientUnits="userSpaceOnUse" x1="-422.188" y1="474.7432" x2="-422.188" y2="475.2607" gradientTransform="matrix(6.5701 0 0 -6.5701 2814.7805 3168.5281)">
	<stop  offset="0" style="stop-color:#A6694A"/>
	<stop  offset="1" style="stop-color:#4F2A1E"/>
	<a:midPointStop  offset="0" style="stop-color:#A6694A"/>
	<a:midPointStop  offset="0.5" style="stop-color:#A6694A"/>
	<a:midPointStop  offset="1" style="stop-color:#4F2A1E"/>
</linearGradient>
<circle id="Oval_38_" fill="url(#Oval_1_)" cx="40.964" cy="47.714" r="1.699"/>
<path id="Path_275_" fill="#1A1626" d="M40.116,47.683c0,1.176,1.699,1.176,1.699,0C41.815,46.591,40.116,46.591,40.116,47.683z"/>
<path id="Path_274_" fill="#AB968C" d="M39.856,47.206c0,0.493,0.713,0.493,0.713,0C40.569,46.749,39.856,46.749,39.856,47.206z"/>
<path id="Path_273_" fill="#DB9D3A" d="M43.907,47.813c-0.689-2.218-5.395-1.89-6.033-0.399C38.11,45.504,43.319,45,43.907,47.813z"
	/>
<path id="Path_272_" fill="#FFFFFF" d="M47.239,47.747c-0.064,0.496,0.273,1.086,1.207,1.527c0.594,0.28,1.826,0.611,3.447-0.073
	c0.729-0.306,1.436-1.261,1.371-1.788C52.388,45.757,48.062,45.514,47.239,47.747z"/>
<linearGradient id="Oval_2_" gradientUnits="userSpaceOnUse" x1="-423.4907" y1="474.7432" x2="-423.4907" y2="475.2607" gradientTransform="matrix(6.5701 0 0 -6.5701 2832.511 3168.5281)">
	<stop  offset="0" style="stop-color:#A6694A"/>
	<stop  offset="1" style="stop-color:#4F2A1E"/>
	<a:midPointStop  offset="0" style="stop-color:#A6694A"/>
	<a:midPointStop  offset="0.5" style="stop-color:#A6694A"/>
	<a:midPointStop  offset="1" style="stop-color:#4F2A1E"/>
</linearGradient>
<circle id="Oval_37_" fill="url(#Oval_2_)" cx="50.136" cy="47.714" r="1.699"/>
<path id="Path_271_" fill="#1A1626" d="M49.286,47.683c0,1.176,1.699,1.176,1.699,0C50.985,46.591,49.286,46.591,49.286,47.683z"/>
<path id="Path_270_" fill="#AB968C" d="M49.028,47.206c0,0.493,0.711,0.493,0.711,0C49.739,46.749,49.028,46.749,49.028,47.206z"/>
<path id="Path_269_" fill="#DB9D3A" d="M47.231,47.813c0.689-2.216,5.391-1.899,6.033-0.399C53.026,45.504,47.819,45,47.231,47.813z
	"/>
<linearGradient id="SVGID_1_" gradientUnits="userSpaceOnUse" x1="45.458" y1="49.6094" x2="45.458" y2="32.0073">
	<stop  offset="0" style="stop-color:#473834"/>
	<stop  offset="0.2717" style="stop-color:#594640"/>
	<stop  offset="0.7226" style="stop-color:#715950"/>
	<stop  offset="1" style="stop-color:#7A6056"/>
	<a:midPointStop  offset="0" style="stop-color:#473834"/>
	<a:midPointStop  offset="0.4" style="stop-color:#473834"/>
	<a:midPointStop  offset="1" style="stop-color:#7A6056"/>
</linearGradient>
<path fill="url(#SVGID_1_)" d="M45.569,32.007c-4.566,0-6.85,2.068-7.313,3.049c-5.521,1.263-7.295,10.579-3.164,14.554
	c0.514-4.235,1.008-6.956,3.822-9.821c1.643,2.199,5.053,3.438,8.107,3.438c-1.445-1.051-2.432-2.08-3.205-3.039
	c5.1,2.34,10.811,3.838,12.229,9.423C60.952,41.796,56.878,32.007,45.569,32.007z"/>
<path fill="#473834" d="M28.783,54.36c0.737,0.486,1.587,0.851,2.579,1.036c-1.761-4.015,0.894-12.435-4.547-18.621
	c-7.671,0.229-8.732,25.038,1.96,21.739c-0.681-0.295-1.106-0.897-1.357-1.657c0.824,0.236,1.787,0.244,2.91-0.101
	C29.435,56.37,28.979,55.46,28.783,54.36z"/>
<path fill="#473834" d="M9.53,36.775c-5.441,6.187-2.27,14.606-4.03,18.621c0.991-0.186,1.842-0.55,2.578-1.036
	c-0.196,1.1-0.652,2.01-1.543,2.396c1.121,0.345,2.083,0.337,2.907,0.101c-0.25,0.76-0.676,1.362-1.356,1.657
	C18.777,61.813,17.201,37.005,9.53,36.775z"/>
<path id="Path_268_" fill="#FFCC66" d="M29.622,45.228c-1.733,0.211-2.984,6.012-1.896,7.543c0.153,0.214,1.046,0.555,1.708-0.797
	c0.367-0.748,1.425-1.371,1.752-2.916C31.606,47.081,31.345,45.019,29.622,45.228z"/>
<path id="Path_267_" fill="#FFCC66" d="M7.242,45.228c1.732,0.211,2.983,6.012,1.893,7.543c-0.152,0.214-1.046,0.555-1.708-0.797
	c-0.365-0.748-1.424-1.371-1.751-2.916C5.256,47.081,5.518,45.019,7.242,45.228z"/>
<path id="Path_266_" fill="#DB9D3A" d="M29.573,46.341c-0.451,0.143-0.943,0.83-1.212,1.975c1.58-0.34,1.185,2.293-0.188,2.342
	c0.014,0.265,0.031,0.537,0.063,0.824c0.661-0.962,1.334-0.576,1.999-2.006C30.836,48.187,30.693,45.989,29.573,46.341z"/>
<path id="Path_265_" fill="#DB9D3A" d="M8.5,48.313c-0.267-1.142-0.76-1.831-1.211-1.972c-1.119-0.352-1.263,1.846-0.663,3.135
	c0.667,1.43,1.338,1.044,2.001,2.006c0.032-0.287,0.051-0.561,0.062-0.825C7.329,50.592,6.94,47.992,8.5,48.313z"/>
<path fill="#FFCC66" d="M18.431,34.075c-7.506,0-11.121,6.113-10.67,13.973c0.094,1.58,0.532,3.859,1.075,5.813
	c1.126,4.059,7.065,8.146,9.595,8.146s8.47-4.088,9.595-8.146c0.543-1.953,0.983-4.232,1.075-5.813
	C29.552,40.188,25.938,34.075,18.431,34.075z"/>
<path id="Path_264_" fill="#966F42" d="M26.586,44.649c-1.717-0.909-5.002-0.953-6.226-0.32c-0.263,0.122-0.09,0.984,0.131,0.902
	c1.706-0.675,4.457-0.69,6.053,0.057C26.757,45.386,26.847,44.775,26.586,44.649z"/>
<path id="Path_263_" fill="#966F42" d="M10.276,44.649c1.717-0.909,4.999-0.953,6.225-0.32c0.262,0.122,0.09,0.984-0.131,0.902
	c-1.708-0.675-4.455-0.69-6.054,0.057C10.104,45.386,10.017,44.775,10.276,44.649z"/>
<path id="Path_262_" fill="#DB9D3A" d="M20.456,52.534c-0.214-0.149-0.717,0.081-2.025,0.081c-1.308,0-1.81-0.23-2.025-0.081
	c-0.256,0.182,0.153,0.998,2.025,0.998C20.306,53.532,20.715,52.716,20.456,52.534z"/>
<path id="Path_261_" fill="#DB9D3A" d="M18.431,55.628c-1.688-0.496-4.189,0.235-4.189,0.235c0.952,1.038,1.651,2.384,4.189,2.384
	c2.909,0,3.404-1.527,4.19-2.384C22.621,55.863,20.118,55.128,18.431,55.628z"/>
<path id="Path_260_" fill="#FFFFFF" d="M14.87,56.039c1.77,1.485,5.343,1.495,7.123,0C20.107,56.12,16.77,56.12,14.87,56.039z"/>
<path id="Path_259_" fill="#FFFFFF" d="M16.761,47.747c0.064,0.496-0.273,1.086-1.207,1.527c-0.593,0.28-1.827,0.611-3.447-0.073
	c-0.727-0.306-1.435-1.261-1.371-1.788C11.614,45.757,15.938,45.514,16.761,47.747z"/>
<linearGradient id="Oval_3_" gradientUnits="userSpaceOnUse" x1="-444.521" y1="474.7432" x2="-444.521" y2="475.2607" gradientTransform="matrix(6.5701 0 0 -6.5701 2934.3743 3168.5281)">
	<stop  offset="0" style="stop-color:#A6694A"/>
	<stop  offset="1" style="stop-color:#4F2A1E"/>
	<a:midPointStop  offset="0" style="stop-color:#A6694A"/>
	<a:midPointStop  offset="0.5" style="stop-color:#A6694A"/>
	<a:midPointStop  offset="1" style="stop-color:#4F2A1E"/>
</linearGradient>
<circle id="Oval_36_" fill="url(#Oval_3_)" cx="13.826" cy="47.714" r="1.699"/>
<path id="Path_258_" fill="#1A1626" d="M12.978,47.683c0,1.176,1.699,1.176,1.699,0C14.677,46.591,12.978,46.591,12.978,47.683z"/>
<path id="Path_257_" fill="#AB968C" d="M12.719,47.206c0,0.493,0.712,0.493,0.712,0C13.431,46.749,12.719,46.749,12.719,47.206z"/>
<path id="Path_256_" fill="#DB9D3A" d="M16.77,47.813c-0.69-2.218-5.394-1.89-6.034-0.399C10.972,45.504,16.182,45,16.77,47.813z"/>
<path id="Path_255_" fill="#FFFFFF" d="M20.101,47.747c-0.063,0.496,0.273,1.086,1.208,1.527c0.593,0.28,1.826,0.611,3.448-0.073
	c0.727-0.306,1.435-1.261,1.371-1.788C25.249,45.757,20.923,45.514,20.101,47.747z"/>
<linearGradient id="Oval_4_" gradientUnits="userSpaceOnUse" x1="-445.8237" y1="474.7432" x2="-445.8237" y2="475.2607" gradientTransform="matrix(6.5701 0 0 -6.5701 2952.1047 3168.5281)">
	<stop  offset="0" style="stop-color:#A6694A"/>
	<stop  offset="1" style="stop-color:#4F2A1E"/>
	<a:midPointStop  offset="0" style="stop-color:#A6694A"/>
	<a:midPointStop  offset="0.5" style="stop-color:#A6694A"/>
	<a:midPointStop  offset="1" style="stop-color:#4F2A1E"/>
</linearGradient>
<circle id="Oval_35_" fill="url(#Oval_4_)" cx="22.997" cy="47.714" r="1.699"/>
<path id="Path_254_" fill="#1A1626" d="M22.148,47.683c0,1.176,1.7,1.176,1.7,0C23.849,46.591,22.148,46.591,22.148,47.683z"/>
<path id="Path_253_" fill="#AB968C" d="M21.89,47.206c0,0.493,0.712,0.493,0.712,0C22.602,46.749,21.89,46.749,21.89,47.206z"/>
<path id="Path_252_" fill="#DB9D3A" d="M20.094,47.813c0.689-2.216,5.39-1.899,6.034-0.399C25.889,45.504,20.681,45,20.094,47.813z"
	/>
<linearGradient id="SVGID_2_" gradientUnits="userSpaceOnUse" x1="-101.272" y1="49.6094" x2="-101.272" y2="32.0073" gradientTransform="matrix(1 0 0 1 119.5918 0)">
	<stop  offset="0" style="stop-color:#473834"/>
	<stop  offset="0.2717" style="stop-color:#594640"/>
	<stop  offset="0.7226" style="stop-color:#715950"/>
	<stop  offset="1" style="stop-color:#7A6056"/>
	<a:midPointStop  offset="0" style="stop-color:#473834"/>
	<a:midPointStop  offset="0.4" style="stop-color:#473834"/>
	<a:midPointStop  offset="1" style="stop-color:#7A6056"/>
</linearGradient>
<path fill="url(#SVGID_2_)" d="M18.432,32.007c-4.567,0-6.85,2.068-7.313,3.049c-5.521,1.263-7.296,10.579-3.164,14.554
	c0.514-4.235,1.008-6.956,3.823-9.821c1.642,2.199,5.052,3.438,8.106,3.438c-1.445-1.051-2.431-2.08-3.206-3.039
	c5.1,2.34,10.812,3.838,12.229,9.423C33.814,41.796,29.739,32.007,18.432,32.007z"/>
<linearGradient id="SVGID_3_" gradientUnits="userSpaceOnUse" x1="32.0005" y1="30.2734" x2="32.0005" y2="1.9932">
	<stop  offset="0" style="stop-color:#DB0100"/>
	<stop  offset="0.5836" style="stop-color:#F31317"/>
	<stop  offset="1" style="stop-color:#FF1C23"/>
	<a:midPointStop  offset="0" style="stop-color:#DB0100"/>
	<a:midPointStop  offset="0.4242" style="stop-color:#DB0100"/>
	<a:midPointStop  offset="1" style="stop-color:#FF1C23"/>
</linearGradient>
<path fill="url(#SVGID_3_)" d="M47.196,4.651c-2.037-2.059-5.235-2.769-8.049-2.645C36.475,2.125,33.416,3.594,32,5.988
	c-1.416-2.394-4.475-3.863-7.147-3.981c-2.813-0.124-6.012,0.585-8.049,2.645c-2.228,2.25-3.187,5.035-2.692,8.17
	c0.553,3.505,2.658,6.333,5.673,8.134c2.921,1.747,10.382,5.062,12.216,9.318c1.834-4.256,9.295-7.572,12.216-9.318
	c3.015-1.801,5.12-4.629,5.673-8.134C50.383,9.687,49.424,6.902,47.196,4.651z"/>
<path fill="#473834" d="M38.245,35.056c-0.069,3.9,1.506,6.818,8.782,8.17C41.812,43.577,36.459,40.426,38.245,35.056z"/>
<path fill="#473834" d="M38.702,39.539c-1.898,1.873-4.03,5.116-3.626,10.069c0.378-4.094,2.258-7.465,3.961-9.648
	C38.918,39.829,38.806,39.688,38.702,39.539z"/>
<path fill="#473834" d="M41.96,38.304c3.815,3.643,13.189,3.404,14.105,11.305C53.621,41.925,45.329,43.648,41.96,38.304z"/>
<path fill="#473834" d="M11.106,35.056c-0.069,3.9,1.506,6.818,8.782,8.17C14.673,43.577,9.32,40.426,11.106,35.056z"/>
<path fill="#473834" d="M11.563,39.539c-1.898,1.873-4.03,5.116-3.626,10.069c0.378-4.094,2.258-7.465,3.961-9.648
	C11.779,39.829,11.667,39.688,11.563,39.539z"/>
<path fill="#473834" d="M14.821,38.304c3.815,3.643,13.189,3.404,14.105,11.305C26.482,41.925,18.19,43.648,14.821,38.304z"/>
</svg>
