<?xml version="1.0" encoding="utf-8"?>
<!-- Generator: Adobe Illustrator 19.0.0, SVG Export Plug-In . SVG Version: 6.00 Build 0)  -->
<svg version="1.1" id="Layer_1" xmlns="http://www.w3.org/2000/svg" xmlns:xlink="http://www.w3.org/1999/xlink" x="0px" y="0px"
	 width="64px" height="64px" viewBox="0 0 64 64" enable-background="new 0 0 64 64" xml:space="preserve">
<g>
	<linearGradient id="SVGID_1_" gradientUnits="userSpaceOnUse" x1="16.2483" y1="4.7978" x2="47.9718" y2="59.7445">
		<stop  offset="0" style="stop-color:#FF3B3B"/>
		<stop  offset="0.2558" style="stop-color:#FB3737"/>
		<stop  offset="0.5207" style="stop-color:#F02B2A"/>
		<stop  offset="0.7889" style="stop-color:#DD1616"/>
		<stop  offset="1" style="stop-color:#C90100"/>
	</linearGradient>
	<path fill="url(#SVGID_1_)" d="M58.094,32.17c3.1-2.826,3.844-5.779,3.906-7.814c0.008-0.506-0.211-0.977-0.604-1.291
		c-0.381-0.309-0.893-0.434-1.389-0.326c-1.045,0.23-2.158-0.338-2.627-1.324c-0.502-1.057-0.238-2.315,0.644-3.059
		c0.373-0.32,0.582-0.781,0.566-1.266c-0.01-0.488-0.242-0.941-0.635-1.24c-0.992-0.754-2.125-1.291-3.373-1.604
		c0.088-1.816-0.268-3.504-1.055-5.021c-0.229-0.449-0.666-0.769-1.178-0.857c-0.498-0.084-1.014,0.064-1.385,0.398
		c-0.77,0.695-2.045,0.783-2.891,0.19c-0.924-0.647-1.285-1.857-0.877-2.94c0.174-0.457,0.123-0.978-0.139-1.4
		c-0.262-0.414-0.692-0.687-1.182-0.75c-2.045-0.254-4.019,0.166-5.953,1.223c-0.887-1.234-1.979-2.207-3.256-2.893
		c-0.443-0.236-0.988-0.256-1.439-0.057c-0.467,0.207-0.813,0.621-0.926,1.105C34.039,4.366,33.088,5.149,32,5.149
		c-1.092,0-2.039-0.783-2.305-1.902c-0.115-0.492-0.461-0.908-0.924-1.107c-0.461-0.203-0.998-0.184-1.443,0.055
		c-1.277,0.686-2.371,1.656-3.256,2.893c-1.938-1.057-3.92-1.473-5.949-1.221c-0.492,0.063-0.924,0.336-1.186,0.754
		c-0.264,0.422-0.313,0.93-0.139,1.394c0.408,1.084,0.049,2.293-0.877,2.943c-0.844,0.592-2.119,0.506-2.891-0.189
		c-0.371-0.336-0.869-0.49-1.387-0.4c-0.51,0.088-0.947,0.41-1.172,0.852c-0.789,1.521-1.145,3.209-1.059,5.027
		c-1.246,0.313-2.379,0.85-3.371,1.604c-0.387,0.295-0.621,0.744-0.637,1.24c-0.012,0.486,0.195,0.947,0.57,1.267
		c0.879,0.744,1.145,2,0.645,3.055c-0.469,0.986-1.592,1.561-2.627,1.328c-0.477-0.105-1.004,0.014-1.387,0.32
		C2.213,23.377,1.992,23.85,2,24.362c0.061,2.029,0.805,4.983,3.906,7.807c-3.1,2.793-3.844,5.713-3.906,7.729
		c-0.008,0.498,0.219,0.978,0.605,1.283c0.381,0.307,0.902,0.428,1.385,0.322c1.047-0.229,2.162,0.332,2.631,1.307
		c0.498,1.037,0.234,2.273-0.643,3.008c-0.377,0.316-0.586,0.777-0.572,1.26c0.014,0.488,0.246,0.938,0.641,1.236
		c0.988,0.74,2.129,1.268,3.395,1.572c-0.164,1.996,0.18,3.844,1.027,5.5c0.228,0.451,0.666,0.775,1.178,0.865
		c0.506,0.088,1.014-0.064,1.389-0.404c0.767-0.703,2.039-0.789,2.885-0.191c0.928,0.658,1.289,1.887,0.879,2.988
		c-0.174,0.465-0.125,0.975,0.139,1.404c0.262,0.42,0.691,0.695,1.182,0.758c0.371,0.047,0.758,0.072,1.146,0.072
		c1.75,0,3.479-0.504,5.152-1.496c0.822,1.018,1.803,1.832,2.916,2.426c0.443,0.232,0.979,0.252,1.435,0.053
		c0.465-0.205,0.811-0.615,0.926-1.096c0.266-1.105,1.215-1.877,2.305-1.877c1.092,0,2.039,0.771,2.305,1.875
		c0.115,0.488,0.465,0.9,0.928,1.1C35.443,61.953,35.664,62,35.893,62c0.27,0,0.537-0.066,0.779-0.193
		c1.111-0.592,2.086-1.406,2.912-2.424c1.672,0.992,3.4,1.494,5.15,1.494c0.389,0,0.775-0.025,1.143-0.072
		c0.492-0.063,0.924-0.338,1.188-0.762c0.26-0.424,0.309-0.934,0.137-1.399c-0.41-1.101-0.049-2.332,0.879-2.99
		c0.842-0.602,2.115-0.512,2.885,0.191c0.373,0.34,0.865,0.498,1.395,0.404c0.506-0.09,0.945-0.414,1.17-0.861
		c0.85-1.658,1.193-3.506,1.029-5.502c1.266-0.307,2.408-0.836,3.393-1.574c0.393-0.293,0.627-0.74,0.641-1.236
		c0.014-0.484-0.195-0.943-0.57-1.262c-0.879-0.73-1.143-1.967-0.645-3.002c0.469-0.977,1.594-1.543,2.629-1.31
		c0.117,0.025,0.238,0.037,0.357,0.037c0.375,0,0.74-0.127,1.025-0.355c0.393-0.309,0.619-0.789,0.611-1.291
		C61.938,37.881,61.191,34.961,58.094,32.17z M43.773,7.084c0.047,1.775,0.924,3.441,2.404,4.482
		c1.451,1.018,3.342,1.285,5.01,0.727c0.102,0.518,0.145,1.07,0.123,1.654c-2.256,0.113-4.699,0.818-7.271,2.104
		c-0.545,0.271-1.094,0.592-1.641,0.959c0.088-0.684,0.133-1.35,0.133-1.988c0-2.705-0.375-5.08-1.111-7.068
		C42.209,7.506,42.998,7.215,43.773,7.084z M12.811,12.289c1.65,0.543,3.607,0.266,5.012-0.725c1.479-1.041,2.357-2.705,2.406-4.483
		c0.774,0.133,1.559,0.424,2.348,0.869c-0.738,1.99-1.111,4.365-1.111,7.07c0,0.637,0.043,1.301,0.133,1.988
		c-0.545-0.365-1.094-0.686-1.639-0.957c-2.572-1.285-5.016-1.992-7.269-2.105C12.666,13.364,12.707,12.809,12.811,12.289z
		 M10.096,46.75c-0.215-0.057-0.424-0.121-0.619-0.195c0.836-1.578,0.885-3.469,0.098-5.113c-0.787-1.639-2.291-2.775-4.037-3.104
		c0.447-1.486,1.465-2.887,3.027-4.174c0.688,0.434,1.395,0.828,2.145,1.203c1.76,0.879,3.885,1.455,6.342,1.717
		c-1.813,1.373-3.248,2.84-4.279,4.371C11.555,43.26,10.656,45.037,10.096,46.75z M36.518,57.955
		c-1.055-1.422-2.721-2.277-4.518-2.277c-1.799,0-3.463,0.856-4.518,2.277c-0.17-0.17-0.332-0.352-0.49-0.549
		c1.094-1.033,2.147-2.295,3.135-3.764c0.727-1.076,1.354-2.332,1.873-3.752c0.519,1.42,1.144,2.678,1.869,3.754
		c0.99,1.467,2.043,2.733,3.139,3.766C36.85,57.606,36.687,57.787,36.518,57.955z M51.191,52.299
		c-1.652-0.551-3.609-0.267-5.018,0.733c-1.48,1.055-2.355,2.74-2.402,4.537c-2.457-0.408-4.928-2.367-7.186-5.715
		c-1.531-2.271-2.527-5.586-2.963-9.85c-0.084-0.828-0.781-1.453-1.623-1.453c-0.842,0-1.539,0.623-1.623,1.451
		c-0.438,4.267-1.436,7.582-2.965,9.85c-2.256,3.35-4.726,5.309-7.185,5.717c-0.045-1.797-0.92-3.482-2.4-4.537
		c-1.451-1.031-3.35-1.303-5.018-0.736c-0.525-2.545,0.393-5.652,2.682-9.049c1.506-2.24,4.137-4.344,7.818-6.25
		c0.68-0.35,1.023-1.135,0.815-1.871c-0.199-0.691-0.846-1.174-1.572-1.174l-0.098,0.002c-4.313,0.262-7.816-0.242-10.277-1.469
		c-3.623-1.809-5.904-4.065-6.647-6.559c1.752-0.332,3.258-1.484,4.047-3.143c0.789-1.662,0.734-3.58-0.109-5.176
		c2.34-0.91,5.463-0.449,9.025,1.326c1.584,0.793,3.213,2.123,4.838,3.957c0.504,0.568,1.412,0.711,2.064,0.324
		c0.68-0.404,0.971-1.229,0.69-1.967c-0.9-2.309-1.354-4.404-1.354-6.227c0-4.09,0.947-7.162,2.75-8.949
		c1.053,1.439,2.721,2.305,4.52,2.305c1.801,0,3.467-0.863,4.519-2.301c1.803,1.783,2.75,4.854,2.75,8.945
		c0,1.824-0.457,3.918-1.355,6.229c-0.285,0.734,0.004,1.563,0.688,1.967c0.658,0.383,1.557,0.246,2.066-0.324
		c1.625-1.834,3.254-3.166,4.838-3.959c3.557-1.773,6.685-2.238,9.027-1.326c-0.842,1.596-0.898,3.514-0.109,5.178
		c0.785,1.658,2.293,2.81,4.043,3.141c-0.74,2.496-3.02,4.75-6.646,6.559c-2.463,1.229-5.981,1.727-10.271,1.471l-0.1-0.004
		c-0.721,0-1.381,0.494-1.572,1.176c-0.211,0.729,0.129,1.514,0.81,1.869c3.682,1.902,6.315,4.006,7.826,6.25
		C50.799,46.645,51.717,49.754,51.191,52.299z M54.424,41.444c-0.787,1.643-0.734,3.533,0.102,5.111
		c-0.197,0.074-0.408,0.139-0.623,0.195c-0.56-1.713-1.457-3.49-2.674-5.295c-1.037-1.535-2.471-3-4.277-4.371
		c2.455-0.262,4.58-0.838,6.34-1.717c0.758-0.377,1.463-0.773,2.146-1.203c1.563,1.285,2.58,2.686,3.027,4.174
		C56.717,38.666,55.213,39.805,54.424,41.444z"/>
</g>
</svg>
