<?xml version="1.0" encoding="utf-8"?>
<!-- Generator: Adobe Illustrator 15.0.0, SVG Export Plug-In . SVG Version: 6.00 Build 0)  -->
<!DOCTYPE svg PUBLIC "-//W3C//DTD SVG 1.1//EN" "http://www.w3.org/Graphics/SVG/1.1/DTD/svg11.dtd" [
	<!ENTITY ns_flows "http://ns.adobe.com/Flows/1.0/">
	<!ENTITY ns_extend "http://ns.adobe.com/Extensibility/1.0/">
	<!ENTITY ns_ai "http://ns.adobe.com/AdobeIllustrator/10.0/">
	<!ENTITY ns_graphs "http://ns.adobe.com/Graphs/1.0/">
]>
<svg version="1.1" id="Layer_1" xmlns:x="&ns_extend;" xmlns:i="&ns_ai;" xmlns:graph="&ns_graphs;"
	 xmlns="http://www.w3.org/2000/svg" xmlns:xlink="http://www.w3.org/1999/xlink" xmlns:a="http://ns.adobe.com/AdobeSVGViewerExtensions/3.0/"
	 x="0px" y="0px" width="64px" height="64px" viewBox="0 0 64 64" enable-background="new 0 0 64 64" xml:space="preserve">
<radialGradient id="SVGID_1_" cx="14.9111" cy="49.9678" r="8.8095" gradientTransform="matrix(0.9346 0.3557 -0.3098 0.814 16.454 3.9905)" gradientUnits="userSpaceOnUse">
	<stop  offset="0" style="stop-color:#ECF1F5"/>
	<stop  offset="0.4084" style="stop-color:#E2E8EC"/>
	<stop  offset="1" style="stop-color:#CBD4D9"/>
	<a:midPointStop  offset="0" style="stop-color:#ECF1F5"/>
	<a:midPointStop  offset="0.5879" style="stop-color:#ECF1F5"/>
	<a:midPointStop  offset="1" style="stop-color:#CBD4D9"/>
</radialGradient>
<path fill="url(#SVGID_1_)" d="M9.899,50.871c-1.941,6.086,10.281,9.912,12.224,3.826C23.891,49.15,11.667,45.322,9.899,50.871z"/>
<radialGradient id="SVGID_2_" cx="6.1919" cy="57.8926" r="4.5825" gradientUnits="userSpaceOnUse">
	<stop  offset="0" style="stop-color:#ECF1F5"/>
	<stop  offset="0.3435" style="stop-color:#E6EBF0"/>
	<stop  offset="0.8202" style="stop-color:#D4DCE0"/>
	<stop  offset="1" style="stop-color:#CBD4D9"/>
	<a:midPointStop  offset="0" style="stop-color:#ECF1F5"/>
	<a:midPointStop  offset="0.6364" style="stop-color:#ECF1F5"/>
	<a:midPointStop  offset="1" style="stop-color:#CBD4D9"/>
</radialGradient>
<path fill="url(#SVGID_2_)" d="M5.138,56.752c-2.873,2.178,0.736,6.861,3.609,4.684C11.321,59.484,7.713,54.803,5.138,56.752z"/>
<radialGradient id="SVGID_3_" cx="28" cy="20.4692" r="35.169" gradientTransform="matrix(1 0 0 0.7806 0 4.492)" gradientUnits="userSpaceOnUse">
	<stop  offset="0" style="stop-color:#ECF1F5"/>
	<stop  offset="0.4062" style="stop-color:#E9EFF3"/>
	<stop  offset="0.6887" style="stop-color:#E0E7EB"/>
	<stop  offset="0.9329" style="stop-color:#D1D9DE"/>
	<stop  offset="1" style="stop-color:#CBD4D9"/>
	<a:midPointStop  offset="0" style="stop-color:#ECF1F5"/>
	<a:midPointStop  offset="0.7758" style="stop-color:#ECF1F5"/>
	<a:midPointStop  offset="1" style="stop-color:#CBD4D9"/>
</radialGradient>
<path fill="url(#SVGID_3_)" d="M59.028,16.138c0.17-5.531-4.785-9.187-8.465-8.169c-3.346-5.633-9.746-5.436-13.418-2.828
	C31.285-0.633,21.864,1.99,19.491,9.46C10.554,4.291,1.247,15.013,5.04,21.976c-8.016,8.412,1.205,22.788,11.607,18.999
	c1.748,7.529,14.846,11.27,20.107,2.746c3.83,4.078,12.361,0.836,11.867-4.301c6.748,2.416,12.408-4.332,10.342-10.157
	C62.796,26.489,63.2,19.218,59.028,16.138z"/>
</svg>
