<?xml version="1.0" encoding="utf-8"?>
<!-- Generator: Adobe Illustrator 15.0.0, SVG Export Plug-In . SVG Version: 6.00 Build 0)  -->
<!DOCTYPE svg PUBLIC "-//W3C//DTD SVG 1.1//EN" "http://www.w3.org/Graphics/SVG/1.1/DTD/svg11.dtd" [
	<!ENTITY ns_flows "http://ns.adobe.com/Flows/1.0/">
	<!ENTITY ns_extend "http://ns.adobe.com/Extensibility/1.0/">
	<!ENTITY ns_ai "http://ns.adobe.com/AdobeIllustrator/10.0/">
	<!ENTITY ns_graphs "http://ns.adobe.com/Graphs/1.0/">
]>
<svg version="1.1" id="Layer_1" xmlns:x="&ns_extend;" xmlns:i="&ns_ai;" xmlns:graph="&ns_graphs;"
	 xmlns="http://www.w3.org/2000/svg" xmlns:xlink="http://www.w3.org/1999/xlink" xmlns:a="http://ns.adobe.com/AdobeSVGViewerExtensions/3.0/"
	 x="0px" y="0px" width="64px" height="64px" viewBox="0 0 64 64" enable-background="new 0 0 64 64" xml:space="preserve">
<path fill="#529320" d="M56.437,22.466c-5.654-5.165-39.168,8.322-52.558,16.41c-0.363,1.702-0.729,3.381-1.134,5.022
	c5.849,5.342,12.227,11.795,18.073,17.138c20.506-11.55,36.299-31.819,36.299-31.819C56.837,26.93,56.777,24.794,56.437,22.466z"/>
<path fill="#447A1B" d="M20.903,59.504C13.79,52.801,2.994,42.875,2.994,42.875s12.551,12.063,17.871,17.313
	C43.148,47.133,56.91,27.883,56.91,27.883S39.828,49.51,20.903,59.504z"/>
<path fill="#447A1B" d="M20.987,57.98c-7.49-7.034-17.651-16.277-17.651-16.277S13.347,51.385,20.95,58.65
	c22.486-12.984,35.772-32.325,35.772-32.325S41.884,46.512,20.987,57.98z"/>
<path fill="#447A1B" d="M21.092,56.088C13.569,49.251,3.711,40.271,3.711,40.271s9.903,9.466,17.341,16.548
	C43.32,44.356,56.557,24.455,56.557,24.455S42.268,44.654,21.092,56.088z"/>
<path fill="#92C932" d="M21.17,54.664c-5.764-5.26-11.526-10.522-17.291-15.788C18.198,30.785,30.283,19.75,39.144,6.678
	c5.765,5.26,11.529,10.521,17.293,15.788C47.575,35.541,35.49,46.573,21.17,54.664z"/>
<path fill="#529320" d="M19.803,51.05c-3.813-3.48-7.623-6.959-11.432-10.439c0.233-0.137,0.467-0.276,0.7-0.414
	c0.771-0.454,0.875-1.309,0.244-1.883c-0.188-0.176-0.381-0.35-0.569-0.524c11.52-7.086,21.444-16.147,29.207-26.668
	c0.189,0.174,0.381,0.348,0.57,0.521c0.631,0.575,1.564,0.479,2.064-0.224c0.15-0.213,0.304-0.429,0.453-0.642
	c3.811,3.48,7.623,6.961,11.434,10.439c-0.15,0.213-0.303,0.426-0.454,0.641c-0.5,0.703-0.408,1.736,0.224,2.313
	c0.19,0.176,0.381,0.351,0.571,0.521c-7.76,10.521-17.687,19.584-29.208,26.674c-0.191-0.176-0.381-0.351-0.57-0.527
	c-0.629-0.572-1.764-0.658-2.531-0.201C20.27,50.776,20.037,50.913,19.803,51.05z M10.84,40.757
	c3.096,2.826,6.193,5.656,9.289,8.482c1.184-0.398,2.574-0.305,3.627,0.271c10.543-6.688,19.705-15.057,27.035-24.688
	c-0.631-0.959-0.736-2.229-0.299-3.309c-3.098-2.828-6.195-5.656-9.291-8.484c-0.854,0.703-2.012,0.816-2.986,0.31
	c-7.33,9.629-16.492,17.998-27.039,24.688C11.73,38.917,11.607,39.976,10.84,40.757z"/>
<path fill="#529320" d="M32.717,26.743L32.717,26.743c1.537,0,2.896,0.529,4.041,1.576c1.695,1.548,2.213,3.341,1.496,5.187
	c-0.979,2.524-3.938,4.429-6.883,4.429c-1.691,0-3.278-0.633-4.59-1.83c-1.49-1.36-1.904-2.93-1.232-4.662
	C26.57,28.808,29.72,26.743,32.717,26.743 M32.717,25.243c-6.172,0.001-12.249,7.125-6.947,11.969
	c1.716,1.566,3.686,2.223,5.602,2.223c6.297,0,12.033-7.078,6.398-12.223C36.254,25.826,34.481,25.243,32.717,25.243L32.717,25.243z
	"/>
<path fill="#7AB51D" d="M21.758,46.637c-1.719-1.569,1.307-4.091,3.025-2.521C26.636,45.808,23.611,48.328,21.758,46.637z"/>
<path fill="#7AB51D" d="M14.666,40.106c-1.72-1.57,1.306-4.092,3.023-2.521C19.541,39.276,16.518,41.797,14.666,40.106z"/>
<path fill="#7AB51D" d="M45.351,25.875c-2.163-0.862-0.224-4.288,1.938-3.427C49.621,23.377,47.681,26.804,45.351,25.875z"/>
<path fill="#7AB51D" d="M38.281,19.146c-2.203-0.752-0.441-4.271,1.762-3.521C42.418,16.431,40.656,19.952,38.281,19.146z"/>
<path fill="#ECF1F5" d="M21.296,26.653c0,0,7.59,8.87,17.264,15.817c2.593-2.012,4.506-4.1,4.506-4.1
	c-6.498-7.882-17.357-15.744-17.357-15.744C23.651,24.417,21.296,26.653,21.296,26.653z"/>
<polygon fill="#FFE12C" points="38.56,42.471 21.296,26.653 20.232,27.556 37.45,43.407 "/>
<polygon fill="#FFE12C" points="43.065,38.371 44.093,37.343 26.778,21.576 25.708,22.627 "/>
<linearGradient id="SVGID_1_" gradientUnits="userSpaceOnUse" x1="34.8447" y1="50.8262" x2="62.7432" y2="50.8262" gradientTransform="matrix(1 0 0 1 -0.7432 -1.7964)">
	<stop  offset="0" style="stop-color:#ECF1F5"/>
	<stop  offset="0.413" style="stop-color:#E9EEF3"/>
	<stop  offset="0.7203" style="stop-color:#E0E6EB"/>
	<stop  offset="0.9932" style="stop-color:#D0D8DD"/>
	<stop  offset="1" style="stop-color:#CFD8DD"/>
	<a:midPointStop  offset="0" style="stop-color:#ECF1F5"/>
	<a:midPointStop  offset="0.7636" style="stop-color:#ECF1F5"/>
	<a:midPointStop  offset="1" style="stop-color:#CFD8DD"/>
</linearGradient>
<path fill-rule="evenodd" clip-rule="evenodd" fill="url(#SVGID_1_)" d="M62,61.355c-6.485,1.572-9.429-1.587-9.429-1.587
	c-5.309,2.519-9.409-2.479-9.409-2.479c-11.023-2.333-3.987-13.626-9.061-19.367C52.919,29.991,50.985,52.672,62,61.355z"/>
<path fill-rule="evenodd" clip-rule="evenodd" fill="#B3C2C6" d="M45.437,50.539C50.542,59.845,57.052,62.397,62,61.355
	C53.283,64.313,48.31,56.458,45.437,50.539z"/>
<path fill-rule="evenodd" clip-rule="evenodd" fill="#B3C2C6" d="M39.945,47.409c1.847,10.847,7.293,13.87,12.349,12.485
	C45.697,63.178,39.938,55.558,39.945,47.409z"/>
<path fill-rule="evenodd" clip-rule="evenodd" fill="#B3C2C6" d="M36.245,44.697c0.038,7.434,1.65,10.883,6.844,12.578
	C35.943,56.369,35.95,50.834,36.245,44.697z"/>
<linearGradient id="SVGID_2_" gradientUnits="userSpaceOnUse" x1="2.9482" y1="17.7466" x2="28.4775" y2="17.7466" gradientTransform="matrix(1 0 0 1 -0.7432 -1.7964)">
	<stop  offset="0" style="stop-color:#CFD8DD"/>
	<stop  offset="0.0068" style="stop-color:#D0D8DD"/>
	<stop  offset="0.2797" style="stop-color:#E0E6EB"/>
	<stop  offset="0.587" style="stop-color:#E9EEF3"/>
	<stop  offset="1" style="stop-color:#ECF1F5"/>
	<a:midPointStop  offset="0" style="stop-color:#CFD8DD"/>
	<a:midPointStop  offset="0.2364" style="stop-color:#CFD8DD"/>
	<a:midPointStop  offset="1" style="stop-color:#ECF1F5"/>
</linearGradient>
<path fill-rule="evenodd" clip-rule="evenodd" fill="url(#SVGID_2_)" d="M26.08,29.9c-5.742-5.074-17.038,1.955-19.369-9.063
	c0,0-4.997-4.1-2.48-9.407c0,0-3.159-2.94-1.587-9.43C11.33,13.019,34.009,11.085,26.08,29.9z"/>
<path fill-rule="evenodd" clip-rule="evenodd" fill="#B3C2C6" d="M13.462,18.563C4.157,13.46,1.604,6.951,2.644,2
	C-0.314,10.719,7.545,15.689,13.462,18.563z"/>
<path fill-rule="evenodd" clip-rule="evenodd" fill="#B3C2C6" d="M16.588,24.055C5.746,22.207,2.722,16.763,4.104,11.705
	C0.822,18.304,8.441,24.062,16.588,24.055z"/>
<path fill-rule="evenodd" clip-rule="evenodd" fill="#B3C2C6" d="M19.305,27.758c-7.435-0.04-10.886-1.654-12.578-6.847
	C7.631,28.056,13.167,28.051,19.305,27.758z"/>
</svg>
