<?xml version="1.0" encoding="utf-8"?>
<!-- Generator: Adobe Illustrator 15.0.0, SVG Export Plug-In . SVG Version: 6.00 Build 0)  -->
<!DOCTYPE svg PUBLIC "-//W3C//DTD SVG 1.1//EN" "http://www.w3.org/Graphics/SVG/1.1/DTD/svg11.dtd" [
	<!ENTITY ns_flows "http://ns.adobe.com/Flows/1.0/">
	<!ENTITY ns_extend "http://ns.adobe.com/Extensibility/1.0/">
	<!ENTITY ns_ai "http://ns.adobe.com/AdobeIllustrator/10.0/">
	<!ENTITY ns_graphs "http://ns.adobe.com/Graphs/1.0/">
]>
<svg version="1.1" id="Layer_1" xmlns:x="&ns_extend;" xmlns:i="&ns_ai;" xmlns:graph="&ns_graphs;"
	 xmlns="http://www.w3.org/2000/svg" xmlns:xlink="http://www.w3.org/1999/xlink" xmlns:a="http://ns.adobe.com/AdobeSVGViewerExtensions/3.0/"
	 x="0px" y="0px" width="64px" height="64px" viewBox="0 0 64 64" enable-background="new 0 0 64 64" xml:space="preserve">
<rect x="2" y="15" fill="#E6EBEF" width="60" height="30"/>
<rect x="39" y="15" fill="#C5DCA8" width="20" height="30"/>
<path fill="#A3C86B" d="M53,45H39V15h16l-0.006,7.694L52,24.629c-6.244,1.856-4.463,17.013-4.463,17.013L53,43.329V45z"/>
<ellipse fill="#E6EBEF" cx="55" cy="35" rx="7" ry="5"/>
<rect x="39" y="34" fill="#C5DCA8" width="5.996" height="8"/>
<rect x="18" y="15" fill="#C5DCA8" width="8" height="30"/>
<polygon fill="#FFE363" points="20.25,30.295 19.322,31 19.674,29.855 18.75,29.145 19.895,29.143 20.25,28 20.605,29.143 
	21.75,29.145 20.826,29.855 21.178,31 "/>
<polygon fill="#FFE363" points="40,24.295 39.072,25 39.424,23.855 38.5,23.145 39.643,23.143 40,22 40.355,23.143 41.5,23.145 
	40.576,23.855 40.926,25 "/>
<polygon fill="#FFE363" points="22,24.295 21.072,25 21.424,23.855 20.5,23.145 21.645,23.143 22,22 22.355,23.143 23.5,23.145 
	22.576,23.855 22.928,25 "/>
<polygon fill="#FFE363" points="22,36.295 21.072,37 21.424,35.855 20.5,35.145 21.645,35.143 22,34 22.355,35.143 23.5,35.145 
	22.576,35.855 22.928,37 "/>
<rect x="34.994" y="24" fill="#4C841A" width="14.668" height="0.199"/>
<rect x="34.994" y="23.26" fill="#4C841A" width="18" height="0.199"/>
<rect x="34.994" y="21.089" fill="#4C841A" width="20" height="0.1"/>
<rect x="34.994" y="21.829" fill="#4C841A" width="20" height="0.101"/>
<rect x="34.994" y="22.545" fill="#4C841A" width="19" height="0.149"/>
<path fill="#4C841A" d="M51.389,25.299L52,24.629L49.662,24c0,0-2.482,0.668-4.389,0.668s-3.273,0-3.273,0s-1.367,0-3.273,0
	L38.791,44h11.914v-2.68l-0.863-0.512c0,0,0.02-9.068,0.02-12.301C49.861,26.498,51.389,25.299,51.389,25.299z M44,40.91h-4V37
	c0-1.105,0.895-2,2-2c1.104,0,2,0.895,2,2V40.91z"/>
<polygon fill="#CFD8DD" points="59,49 5,49 2,45 62,45 "/>
<polygon fill="#99A8AE" points="2.99,46.32 3.318,46.76 60.363,46.541 "/>
<polygon fill="#99A8AE" points="2.289,45.386 2.621,45.829 61.363,45.607 "/>
<polygon fill="#99A8AE" points="58.363,48.404 4.393,48.189 4.713,48.616 "/>
<polygon fill="#99A8AE" points="3.689,47.254 4.016,47.688 59.363,47.472 "/>
<polygon fill="#BEC3CF" points="38.5,49 25.5,49 25,45 39,45 "/>
<polygon fill="#018BC9" points="26.5,49 24.5,49 24,45 26,45 "/>
<polygon fill="#018BC9" points="39.5,49 37.5,49 38,45 40,45 "/>
<rect x="12" y="17" fill="#006DAD" width="6" height="4"/>
<rect x="5.578" y="19" fill="#529320" width="0.479" height="2"/>
<path fill="#529320" d="M7.496,17.57V17c-0.861,0-1.199,0.895-1.199,2h0.48C6.777,18.051,7.02,17.57,7.496,17.57z"/>
<path fill="#529320" d="M8.215,19c0,0.947-0.242,1.428-0.719,1.428V21c0.861,0,1.199-0.896,1.199-2H8.215z"/>
<path fill="#529320" d="M10.135,20.428c-0.479,0-0.721-0.48-0.721-1.428H8.936c0,1.104,0.338,2,1.199,2c0.859,0,1.199-0.896,1.199-2
	h-0.48C10.854,19.947,10.611,20.428,10.135,20.428z"/>
<linearGradient id="SVGID_1_" gradientUnits="userSpaceOnUse" x1="41.9521" y1="24" x2="41.9521" y2="16">
	<stop  offset="0" style="stop-color:#297124"/>
	<stop  offset="1" style="stop-color:#014F27"/>
	<a:midPointStop  offset="0" style="stop-color:#297124"/>
	<a:midPointStop  offset="0.5" style="stop-color:#297124"/>
	<a:midPointStop  offset="1" style="stop-color:#014F27"/>
</linearGradient>
<polygon fill="url(#SVGID_1_)" points="42.426,16 40.5,17.605 41.086,18.406 42.229,17.4 42.229,24 43.404,24 43.404,16 "/>
<linearGradient id="SVGID_2_" gradientUnits="userSpaceOnUse" x1="46.8838" y1="24" x2="46.8838" y2="16">
	<stop  offset="0" style="stop-color:#297124"/>
	<stop  offset="1" style="stop-color:#014F27"/>
	<a:midPointStop  offset="0" style="stop-color:#297124"/>
	<a:midPointStop  offset="0.5" style="stop-color:#297124"/>
	<a:midPointStop  offset="1" style="stop-color:#014F27"/>
</linearGradient>
<path fill="url(#SVGID_2_)" d="M46.885,16c-1.729,0-2.607,1.791-2.607,4s0.879,4,2.607,4c1.727,0,2.605-1.791,2.605-4
	S48.611,16,46.885,16z M47.93,22.416c-0.352,0.629-0.764,0.701-1.045,0.701s-0.695-0.072-1.045-0.701
	c-0.318-0.57-0.492-1.428-0.492-2.416s0.174-1.846,0.492-2.414c0.35-0.629,0.764-0.701,1.045-0.701s0.693,0.072,1.045,0.701
	c0.316,0.568,0.492,1.426,0.492,2.414S48.246,21.846,47.93,22.416z"/>
<linearGradient id="SVGID_3_" gradientUnits="userSpaceOnUse" x1="52.8936" y1="24" x2="52.8936" y2="16">
	<stop  offset="0" style="stop-color:#297124"/>
	<stop  offset="1" style="stop-color:#014F27"/>
	<a:midPointStop  offset="0" style="stop-color:#297124"/>
	<a:midPointStop  offset="0.5" style="stop-color:#297124"/>
	<a:midPointStop  offset="1" style="stop-color:#014F27"/>
</linearGradient>
<path fill="url(#SVGID_3_)" d="M52.893,16c-1.727,0-2.605,1.791-2.605,4s0.879,4,2.605,4c1.729,0,2.607-1.791,2.607-4
	S54.621,16,52.893,16z M53.939,22.416c-0.352,0.629-0.766,0.701-1.047,0.701c-0.279,0-0.693-0.072-1.045-0.701
	c-0.316-0.57-0.492-1.428-0.492-2.416s0.176-1.846,0.492-2.414c0.352-0.629,0.766-0.701,1.045-0.701
	c0.281,0,0.695,0.072,1.047,0.701c0.316,0.568,0.492,1.426,0.492,2.414S54.256,21.846,53.939,22.416z"/>
<linearGradient id="SVGID_4_" gradientUnits="userSpaceOnUse" x1="3.9678" y1="43.9395" x2="3.9678" y2="37.9089">
	<stop  offset="0" style="stop-color:#297124"/>
	<stop  offset="1" style="stop-color:#014F27"/>
	<a:midPointStop  offset="0" style="stop-color:#297124"/>
	<a:midPointStop  offset="0.5" style="stop-color:#297124"/>
	<a:midPointStop  offset="1" style="stop-color:#014F27"/>
</linearGradient>
<polygon fill="url(#SVGID_4_)" points="4.283,38 3,39.205 3.391,39.805 4.152,39.051 4.152,43.967 4.936,43.967 4.936,38 "/>
<linearGradient id="SVGID_5_" gradientUnits="userSpaceOnUse" x1="7.2568" y1="43.9395" x2="7.2568" y2="37.9089">
	<stop  offset="0" style="stop-color:#297124"/>
	<stop  offset="1" style="stop-color:#014F27"/>
	<a:midPointStop  offset="0" style="stop-color:#297124"/>
	<a:midPointStop  offset="0.5" style="stop-color:#297124"/>
	<a:midPointStop  offset="1" style="stop-color:#014F27"/>
</linearGradient>
<path fill="url(#SVGID_5_)" d="M7.256,38c-1.15,0-1.736,1.344-1.736,3c0,1.658,0.586,3,1.736,3c1.152,0,1.738-1.342,1.738-3
	C8.994,39.344,8.408,38,7.256,38z M7.953,42.813c-0.234,0.471-0.51,0.525-0.697,0.525s-0.463-0.055-0.697-0.525
	C6.348,42.385,6.23,41.742,6.23,41c0-0.74,0.117-1.385,0.328-1.811c0.234-0.473,0.51-0.525,0.697-0.525s0.463,0.053,0.697,0.525
	C8.164,39.615,8.281,40.26,8.281,41C8.281,41.742,8.164,42.385,7.953,42.813z"/>
<linearGradient id="SVGID_6_" gradientUnits="userSpaceOnUse" x1="11.2627" y1="43.9395" x2="11.2627" y2="37.9089">
	<stop  offset="0" style="stop-color:#297124"/>
	<stop  offset="1" style="stop-color:#014F27"/>
	<a:midPointStop  offset="0" style="stop-color:#297124"/>
	<a:midPointStop  offset="0.5" style="stop-color:#297124"/>
	<a:midPointStop  offset="1" style="stop-color:#014F27"/>
</linearGradient>
<path fill="url(#SVGID_6_)" d="M11.262,38c-1.15,0-1.736,1.344-1.736,3c0,1.658,0.586,3,1.736,3C12.414,44,13,42.658,13,41
	C13,39.344,12.414,38,11.262,38z M11.959,42.813c-0.234,0.471-0.51,0.525-0.697,0.525s-0.463-0.055-0.695-0.525
	c-0.213-0.428-0.33-1.07-0.33-1.813c0-0.74,0.117-1.385,0.33-1.811c0.232-0.473,0.508-0.525,0.695-0.525s0.463,0.053,0.697,0.525
	c0.211,0.426,0.328,1.07,0.328,1.811C12.287,41.742,12.17,42.385,11.959,42.813z"/>
<polygon fill="#FFE363" points="15,17.863 14.854,17.975 14.908,17.793 14.764,17.682 14.943,17.682 15,17.5 15.057,17.682 
	15.236,17.682 15.09,17.793 15.146,17.975 "/>
<polygon fill="#FFE363" points="40,36.295 39.072,37 39.424,35.855 38.5,35.145 39.643,35.143 40,34 40.355,35.143 41.5,35.145 
	40.576,35.855 40.926,37 "/>
<polygon fill="#FFE363" points="15.631,18.021 15.484,18.133 15.541,17.951 15.395,17.84 15.576,17.838 15.631,17.658 
	15.688,17.838 15.867,17.84 15.723,17.951 15.777,18.133 "/>
<polygon fill="#FFE363" points="14.367,18.021 14.221,18.133 14.277,17.951 14.131,17.84 14.313,17.838 14.367,17.658 
	14.424,17.838 14.605,17.84 14.459,17.951 14.514,18.133 "/>
<polygon fill="#FFE363" points="13.895,18.494 13.748,18.605 13.803,18.426 13.658,18.313 13.838,18.313 13.895,18.133 
	13.951,18.313 14.131,18.313 13.986,18.426 14.041,18.605 "/>
<polygon fill="#FFE363" points="16.105,18.494 15.959,18.605 16.014,18.426 15.867,18.313 16.049,18.313 16.105,18.133 
	16.162,18.313 16.342,18.313 16.195,18.426 16.252,18.605 "/>
<polygon fill="#FFE363" points="15.631,20.23 15.484,20.342 15.541,20.162 15.395,20.049 15.576,20.049 15.631,19.869 
	15.688,20.049 15.867,20.049 15.723,20.162 15.777,20.342 "/>
<polygon fill="#FFE363" points="14.367,20.23 14.221,20.342 14.277,20.162 14.131,20.049 14.313,20.049 14.367,19.869 
	14.424,20.049 14.605,20.049 14.459,20.162 14.514,20.342 "/>
<polygon fill="#FFE363" points="13.895,19.758 13.748,19.869 13.803,19.688 13.658,19.576 13.838,19.576 13.895,19.395 
	13.951,19.576 14.131,19.576 13.986,19.688 14.041,19.869 "/>
<polygon fill="#FFE363" points="16.105,19.758 15.959,19.869 16.014,19.688 15.867,19.576 16.049,19.576 16.105,19.395 
	16.162,19.576 16.342,19.576 16.195,19.688 16.252,19.869 "/>
<polygon fill="#FFE363" points="15,17.863 14.854,17.975 14.908,17.793 14.764,17.682 14.943,17.682 15,17.5 15.057,17.682 
	15.236,17.682 15.09,17.793 15.146,17.975 "/>
<polygon fill="#FFE363" points="15,20.389 14.854,20.5 14.908,20.32 14.764,20.207 14.943,20.207 15,20.027 15.057,20.207 
	15.236,20.207 15.09,20.32 15.146,20.5 "/>
<polygon fill="#FFE363" points="13.736,19.125 13.59,19.236 13.646,19.057 13.5,18.945 13.68,18.943 13.736,18.764 13.793,18.943 
	13.973,18.945 13.828,19.057 13.883,19.236 "/>
<polygon fill="#FFE363" points="16.264,19.125 16.117,19.236 16.172,19.057 16.025,18.945 16.207,18.943 16.264,18.764 
	16.318,18.943 16.5,18.945 16.354,19.057 16.41,19.236 "/>
<linearGradient id="SVGID_7_" gradientUnits="userSpaceOnUse" x1="14.4248" y1="43.9395" x2="14.4248" y2="37.9089">
	<stop  offset="0" style="stop-color:#297124"/>
	<stop  offset="1" style="stop-color:#014F27"/>
	<a:midPointStop  offset="0" style="stop-color:#297124"/>
	<a:midPointStop  offset="0.5" style="stop-color:#297124"/>
	<a:midPointStop  offset="1" style="stop-color:#014F27"/>
</linearGradient>
<path fill="url(#SVGID_7_)" d="M15.064,38.434l-0.057,0.393h-0.674v0.607h0.594v0.383h-0.594v0.639h0.719v0.398h-1.268v-2.42H15.064
	z"/>
<linearGradient id="SVGID_8_" gradientUnits="userSpaceOnUse" x1="16.2178" y1="43.9395" x2="16.2178" y2="37.909">
	<stop  offset="0" style="stop-color:#297124"/>
	<stop  offset="1" style="stop-color:#014F27"/>
	<a:midPointStop  offset="0" style="stop-color:#297124"/>
	<a:midPointStop  offset="0.5" style="stop-color:#297124"/>
	<a:midPointStop  offset="1" style="stop-color:#014F27"/>
</linearGradient>
<path fill="url(#SVGID_8_)" d="M17.027,40.156c0,0.145-0.029,0.271-0.09,0.385s-0.152,0.203-0.273,0.27s-0.27,0.1-0.447,0.1
	c-0.264,0-0.465-0.068-0.604-0.207c-0.137-0.137-0.205-0.318-0.205-0.547v-1.723h0.547v1.697c0,0.127,0.021,0.219,0.063,0.279
	s0.107,0.092,0.199,0.092c0.094,0,0.16-0.031,0.201-0.092s0.063-0.152,0.063-0.279v-1.697h0.547V40.156z"/>
<linearGradient id="SVGID_9_" gradientUnits="userSpaceOnUse" x1="18.332" y1="43.9395" x2="18.332" y2="37.9089">
	<stop  offset="0" style="stop-color:#297124"/>
	<stop  offset="1" style="stop-color:#014F27"/>
	<a:midPointStop  offset="0" style="stop-color:#297124"/>
	<a:midPointStop  offset="0.5" style="stop-color:#297124"/>
	<a:midPointStop  offset="1" style="stop-color:#014F27"/>
</linearGradient>
<path fill="url(#SVGID_9_)" d="M18.586,40.854l-0.395-0.932h-0.018h-0.131v0.932h-0.549v-2.42h0.646c0.6,0,0.9,0.244,0.9,0.734
	c0,0.141-0.029,0.27-0.09,0.383c-0.059,0.115-0.152,0.203-0.277,0.266l0.496,1.037H18.586z M18.154,39.541
	c0.115,0,0.199-0.029,0.25-0.09c0.053-0.059,0.078-0.152,0.078-0.283c0-0.119-0.027-0.207-0.082-0.262
	c-0.055-0.057-0.143-0.084-0.264-0.084h-0.094v0.719H18.154z"/>
<linearGradient id="SVGID_10_" gradientUnits="userSpaceOnUse" x1="20.292" y1="43.9395" x2="20.292" y2="37.909">
	<stop  offset="0" style="stop-color:#297124"/>
	<stop  offset="1" style="stop-color:#014F27"/>
	<a:midPointStop  offset="0" style="stop-color:#297124"/>
	<a:midPointStop  offset="0.5" style="stop-color:#297124"/>
	<a:midPointStop  offset="1" style="stop-color:#014F27"/>
</linearGradient>
<path fill="url(#SVGID_10_)" d="M20.973,38.691c0.158,0.211,0.236,0.527,0.236,0.951c0,0.418-0.08,0.736-0.238,0.949
	c-0.158,0.215-0.385,0.322-0.68,0.322c-0.297,0-0.521-0.105-0.68-0.316c-0.156-0.211-0.236-0.529-0.236-0.955
	c0-0.42,0.08-0.734,0.236-0.947c0.158-0.215,0.383-0.32,0.68-0.32S20.816,38.48,20.973,38.691z M20.027,38.975
	c-0.055,0.131-0.082,0.354-0.082,0.668c0,0.219,0.012,0.391,0.037,0.516c0.023,0.127,0.061,0.217,0.111,0.271
	c0.049,0.055,0.115,0.082,0.197,0.082c0.084,0,0.15-0.027,0.201-0.08c0.049-0.053,0.086-0.145,0.111-0.271
	c0.023-0.127,0.037-0.299,0.037-0.518c0-0.316-0.027-0.541-0.082-0.67c-0.055-0.131-0.145-0.195-0.268-0.195
	C20.17,38.777,20.082,38.842,20.027,38.975z"/>
<g opacity="0.5">
	<path fill="#529320" d="M15.064,41.344l-0.057,0.393h-0.674v0.607h0.594v0.383h-0.594v0.639h0.719v0.398h-1.268v-2.42H15.064z"/>
</g>
<g opacity="0.5">
	<path fill="#529320" d="M17.139,41.344l-0.635,1.51v0.91h-0.549v-0.908l-0.635-1.512h0.572l0.342,1.084l0.35-1.084H17.139z"/>
</g>
<g opacity="0.5">
	<path fill="#529320" d="M18.752,41.543c0.158,0.133,0.238,0.328,0.238,0.588c0,0.27-0.076,0.473-0.229,0.611
		c-0.15,0.139-0.365,0.209-0.643,0.209H17.99v0.813h-0.547v-2.42h0.621C18.365,41.344,18.594,41.41,18.752,41.543z M18.346,42.457
		c0.055-0.064,0.082-0.174,0.082-0.326c0-0.137-0.027-0.234-0.078-0.299c-0.053-0.064-0.143-0.096-0.268-0.096H17.99v0.816h0.084
		C18.201,42.553,18.291,42.521,18.346,42.457z"/>
</g>
<g opacity="0.5">
	<path fill="#529320" d="M21.123,42.553c0-0.42-0.08-0.734-0.236-0.947c-0.158-0.215-0.383-0.32-0.68-0.32
		c-0.295,0-0.521,0.105-0.68,0.32c-0.156,0.213-0.234,0.527-0.234,0.947c0,0.402,0.074,0.701,0.215,0.91h-0.215v0.301h0.537
		l0.18-0.301c0,0-0.148-0.199-0.148-0.91c0-0.314,0.027-0.537,0.082-0.668c0.055-0.133,0.143-0.197,0.264-0.197
		s0.209,0.064,0.264,0.197c0.055,0.131,0.082,0.354,0.082,0.668c0,0.711-0.148,0.91-0.148,0.91l0.18,0.301h0.539v-0.301h-0.217
		C21.047,43.254,21.123,42.955,21.123,42.553z"/>
</g>
<rect x="25" y="15" fill="#E6EBEF" width="14" height="30"/>
<rect x="38" y="15" fill="#0FB4D4" width="2" height="30"/>
<rect x="24" y="15" fill="#0FB4D4" width="2" height="30"/>
<path fill="#0FB4D4" d="M35.471,34.5c-1.791,0-3.352-0.906-4.189-2.25h5.338v-1.5h-5.924c-0.041-0.243-0.07-0.495-0.07-0.75
	c0-0.258,0.029-0.507,0.07-0.75h5.924v-1.5h-5.338c0.838-1.344,2.398-2.25,4.189-2.25c0.326,0,0.65,0.031,0.967,0.09l0.363-1.469
	C36.367,24.039,35.916,24,35.471,24c-2.748,0-5.1,1.555-6.076,3.75h-2.195v1.5h1.768c-0.029,0.246-0.057,0.495-0.057,0.75
	s0.027,0.504,0.057,0.75h-1.768v1.5h2.195c0.977,2.195,3.328,3.75,6.076,3.75c0.445,0,0.896-0.043,1.33-0.125l-0.363-1.465
	C36.121,34.469,35.797,34.5,35.471,34.5z"/>
<rect x="53" y="33" fill="#0FB4D4" width="4" height="4"/>
<path fill="#0FB4D4" d="M57.5,35c0,1.381-1.982,2.5-2.5,2.5s-2.5-1.119-2.5-2.5s1.982-2.5,2.5-2.5S57.5,33.619,57.5,35z"/>
<polygon fill="#7AD8EB" points="53.885,34.2 53.5,34.521 53.617,34.682 53.846,34.48 53.846,35.8 54.08,35.8 54.08,34.2 "/>
<path fill="#7AD8EB" d="M54.777,34.2c-0.346,0-0.521,0.358-0.521,0.8s0.176,0.8,0.521,0.8c0.344,0,0.52-0.358,0.52-0.8
	S55.121,34.2,54.777,34.2z M54.984,35.483c-0.07,0.126-0.152,0.14-0.207,0.14c-0.059,0-0.141-0.014-0.211-0.14
	c-0.063-0.114-0.098-0.286-0.098-0.483s0.035-0.369,0.098-0.482c0.07-0.126,0.152-0.141,0.211-0.141
	c0.055,0,0.137,0.015,0.207,0.141c0.064,0.113,0.1,0.285,0.1,0.482S55.049,35.369,54.984,35.483z"/>
<path fill="#7AD8EB" d="M55.979,34.2c-0.346,0-0.521,0.358-0.521,0.8s0.176,0.8,0.521,0.8S56.5,35.441,56.5,35
	S56.324,34.2,55.979,34.2z M56.188,35.483c-0.07,0.126-0.154,0.14-0.209,0.14c-0.057,0-0.141-0.014-0.211-0.14
	C55.705,35.369,55.67,35.197,55.67,35s0.035-0.369,0.098-0.482c0.07-0.126,0.154-0.141,0.211-0.141c0.055,0,0.139,0.015,0.209,0.141
	c0.063,0.113,0.098,0.285,0.098,0.482S56.25,35.369,56.188,35.483z"/>
<polygon fill="#FFE363" points="41.75,30.295 40.822,31 41.174,29.855 40.25,29.145 41.395,29.143 41.75,28 42.105,29.143 
	43.25,29.145 42.326,29.855 42.676,31 "/>
</svg>
