<?xml version="1.0" encoding="utf-8"?>
<!-- Generator: Adobe Illustrator 15.0.0, SVG Export Plug-In . SVG Version: 6.00 Build 0)  -->
<!DOCTYPE svg PUBLIC "-//W3C//DTD SVG 1.1//EN" "http://www.w3.org/Graphics/SVG/1.1/DTD/svg11.dtd" [
	<!ENTITY ns_flows "http://ns.adobe.com/Flows/1.0/">
	<!ENTITY ns_extend "http://ns.adobe.com/Extensibility/1.0/">
	<!ENTITY ns_ai "http://ns.adobe.com/AdobeIllustrator/10.0/">
	<!ENTITY ns_graphs "http://ns.adobe.com/Graphs/1.0/">
]>
<svg version="1.1" id="Layer_1" xmlns:x="&ns_extend;" xmlns:i="&ns_ai;" xmlns:graph="&ns_graphs;"
	 xmlns="http://www.w3.org/2000/svg" xmlns:xlink="http://www.w3.org/1999/xlink" xmlns:a="http://ns.adobe.com/AdobeSVGViewerExtensions/3.0/"
	 x="0px" y="0px" width="64px" height="64px" viewBox="0 0 64 64" enable-background="new 0 0 64 64" xml:space="preserve">
<path fill="#E6EBEF" d="M56,62V23.702C56,17.245,42.543,2,38.867,2H8v60H56z"/>
<linearGradient id="SVGID_1_" gradientUnits="userSpaceOnUse" x1="53.7813" y1="11.4824" x2="38.8959" y2="21.4321">
	<stop  offset="0" style="stop-color:#4E5E67"/>
	<stop  offset="0.0407" style="stop-color:#5B6A72"/>
	<stop  offset="0.1948" style="stop-color:#859198"/>
	<stop  offset="0.3517" style="stop-color:#A8B1B7"/>
	<stop  offset="0.5098" style="stop-color:#C3CBD0"/>
	<stop  offset="0.6694" style="stop-color:#D7DDE1"/>
	<stop  offset="0.8315" style="stop-color:#E2E7EC"/>
	<stop  offset="1" style="stop-color:#E6EBEF"/>
	<a:midPointStop  offset="0" style="stop-color:#4E5E67"/>
	<a:midPointStop  offset="0.2848" style="stop-color:#4E5E67"/>
	<a:midPointStop  offset="1" style="stop-color:#E6EBEF"/>
</linearGradient>
<path fill="url(#SVGID_1_)" d="M38.867,2.015C42.313,2.015,56,15.62,56,23.702V45.5c0,0-53.479-6.87-41.146-43.5L38.867,2.015z"/>
<rect x="13" y="9" fill="#99A8AE" width="12" height="1"/>
<rect x="13" y="17" fill="#99A8AE" width="38" height="1"/>
<rect x="13" y="21" fill="#99A8AE" width="38" height="1"/>
<rect x="13" y="25" fill="#99A8AE" width="38" height="1"/>
<rect x="13" y="29" fill="#99A8AE" width="38" height="1"/>
<rect x="13" y="33" fill="#99A8AE" width="33" height="1"/>
<rect x="13" y="41" fill="#99A8AE" width="21" height="1"/>
<rect x="13" y="45" fill="#99A8AE" width="38" height="1"/>
<rect x="13" y="49" fill="#99A8AE" width="38" height="1"/>
<rect x="13" y="53" fill="#99A8AE" width="13" height="1"/>
<rect x="13" y="57" fill="#99A8AE" width="6" height="1"/>
<linearGradient id="SVGID_2_" gradientUnits="userSpaceOnUse" x1="547.0537" y1="124.959" x2="539.5131" y2="117.4184" gradientTransform="matrix(0 -1 1 0 -74.9365 557.3223)">
	<stop  offset="0" style="stop-color:#D3D7DB"/>
	<stop  offset="0.0202" style="stop-color:#D6DADE"/>
	<stop  offset="0.159" style="stop-color:#E9EBED"/>
	<stop  offset="0.324" style="stop-color:#F5F6F7"/>
	<stop  offset="0.5403" style="stop-color:#FDFDFD"/>
	<stop  offset="1" style="stop-color:#FFFFFF"/>
	<a:midPointStop  offset="0" style="stop-color:#D3D7DB"/>
	<a:midPointStop  offset="0.1636" style="stop-color:#D3D7DB"/>
	<a:midPointStop  offset="1" style="stop-color:#FFFFFF"/>
</linearGradient>
<path fill="url(#SVGID_2_)" d="M38.867,2.015C43.459,2.015,56,14.954,56,23.702c0,0-1.375-8.331-14.207-6.581
	C43.375,7.121,40.438,2.245,38.867,2.015z"/>
</svg>
