<?xml version="1.0" encoding="utf-8"?>
<!-- Generator: Adobe Illustrator 15.0.0, SVG Export Plug-In . SVG Version: 6.00 Build 0)  -->
<!DOCTYPE svg PUBLIC "-//W3C//DTD SVG 1.1//EN" "http://www.w3.org/Graphics/SVG/1.1/DTD/svg11.dtd" [
	<!ENTITY ns_flows "http://ns.adobe.com/Flows/1.0/">
	<!ENTITY ns_extend "http://ns.adobe.com/Extensibility/1.0/">
	<!ENTITY ns_ai "http://ns.adobe.com/AdobeIllustrator/10.0/">
	<!ENTITY ns_graphs "http://ns.adobe.com/Graphs/1.0/">
]>
<svg version="1.1" id="Layer_1" xmlns:x="&ns_extend;" xmlns:i="&ns_ai;" xmlns:graph="&ns_graphs;"
	 xmlns="http://www.w3.org/2000/svg" xmlns:xlink="http://www.w3.org/1999/xlink" xmlns:a="http://ns.adobe.com/AdobeSVGViewerExtensions/3.0/"
	 x="0px" y="0px" width="64px" height="64px" viewBox="0 0 64 64" enable-background="new 0 0 64 64" xml:space="preserve">
<rect x="2" y="2" fill="#E6EBEF" width="60" height="60"/>
<rect x="7.613" y="2" fill="#CFD8DD" width="0.5" height="60"/>
<rect x="12.978" y="2" fill="#CFD8DD" width="0.5" height="60"/>
<rect x="18.341" y="2" fill="#CFD8DD" width="0.5" height="60"/>
<rect x="23.705" y="2" fill="#CFD8DD" width="0.5" height="60"/>
<rect x="29.068" y="2" fill="#CFD8DD" width="0.5" height="60"/>
<rect x="34.432" y="2" fill="#CFD8DD" width="0.5" height="60"/>
<rect x="39.795" y="2" fill="#CFD8DD" width="0.5" height="60"/>
<rect x="45.159" y="2" fill="#CFD8DD" width="0.5" height="60"/>
<rect x="50.522" y="2" fill="#CFD8DD" width="0.5" height="60"/>
<rect x="55.887" y="2" fill="#CFD8DD" width="0.5" height="60"/>
<rect x="2" y="7.613" fill="#CFD8DD" width="60" height="0.5"/>
<rect x="2" y="12.978" fill="#CFD8DD" width="60" height="0.5"/>
<rect x="2" y="18.341" fill="#CFD8DD" width="60" height="0.5"/>
<rect x="2" y="23.705" fill="#CFD8DD" width="60" height="0.5"/>
<rect x="2" y="29.068" fill="#CFD8DD" width="60" height="0.5"/>
<rect x="2" y="34.432" fill="#CFD8DD" width="60" height="0.5"/>
<rect x="2" y="39.795" fill="#CFD8DD" width="60" height="0.5"/>
<rect x="2" y="45.159" fill="#CFD8DD" width="60" height="0.5"/>
<rect x="2" y="50.522" fill="#CFD8DD" width="60" height="0.5"/>
<rect x="2" y="55.887" fill="#CFD8DD" width="60" height="0.5"/>
<polygon fill="#92C932" points="4.402,61.5 2.5,61.5 2.5,59.061 16.877,40.618 25.945,47.241 38.434,20.134 51.827,29.573 
	59.934,2.5 61.5,2.5 61.693,7.084 53.506,34.427 39.65,24.661 27.137,51.825 17.455,44.755 "/>
<rect x="2" y="2" fill="#CFD8DD" width="1" height="60"/>
<rect x="61" y="2" fill="#CFD8DD" width="1" height="60"/>
<rect x="2" y="2" fill="#CFD8DD" width="60" height="1"/>
<rect x="2" y="61" fill="#CFD8DD" width="60" height="1"/>
</svg>
