<?xml version="1.0" encoding="utf-8"?>
<!-- Generator: Adobe Illustrator 15.0.0, SVG Export Plug-In . SVG Version: 6.00 Build 0)  -->
<!DOCTYPE svg PUBLIC "-//W3C//DTD SVG 1.1//EN" "http://www.w3.org/Graphics/SVG/1.1/DTD/svg11.dtd" [
	<!ENTITY ns_flows "http://ns.adobe.com/Flows/1.0/">
	<!ENTITY ns_extend "http://ns.adobe.com/Extensibility/1.0/">
	<!ENTITY ns_ai "http://ns.adobe.com/AdobeIllustrator/10.0/">
	<!ENTITY ns_graphs "http://ns.adobe.com/Graphs/1.0/">
]>
<svg version="1.1" id="Layer_1" xmlns:x="&ns_extend;" xmlns:i="&ns_ai;" xmlns:graph="&ns_graphs;"
	 xmlns="http://www.w3.org/2000/svg" xmlns:xlink="http://www.w3.org/1999/xlink" xmlns:a="http://ns.adobe.com/AdobeSVGViewerExtensions/3.0/"
	 x="0px" y="0px" width="64px" height="64px" viewBox="0 0 64 64" enable-background="new 0 0 64 64" xml:space="preserve">
<rect x="2" y="2" fill="#E6EBEF" width="60" height="60"/>
<rect x="55.887" y="2" fill="#CFD8DD" width="0.5" height="60"/>
<rect x="50.521" y="2" fill="#CFD8DD" width="0.5" height="60"/>
<rect x="45.158" y="2" fill="#CFD8DD" width="0.5" height="60"/>
<rect x="39.795" y="2" fill="#CFD8DD" width="0.5" height="60"/>
<rect x="34.432" y="2" fill="#CFD8DD" width="0.5" height="60"/>
<rect x="29.069" y="2" fill="#CFD8DD" width="0.5" height="60"/>
<rect x="23.705" y="2" fill="#CFD8DD" width="0.5" height="60"/>
<rect x="18.341" y="2" fill="#CFD8DD" width="0.5" height="60"/>
<rect x="12.978" y="2" fill="#CFD8DD" width="0.5" height="60"/>
<rect x="7.613" y="2" fill="#CFD8DD" width="0.5" height="60"/>
<rect x="2" y="7.613" fill="#CFD8DD" width="60" height="0.5"/>
<rect x="2" y="12.978" fill="#CFD8DD" width="60" height="0.5"/>
<rect x="2" y="18.341" fill="#CFD8DD" width="60" height="0.5"/>
<rect x="2" y="23.705" fill="#CFD8DD" width="60" height="0.5"/>
<rect x="2" y="29.068" fill="#CFD8DD" width="60" height="0.5"/>
<rect x="2" y="34.432" fill="#CFD8DD" width="60" height="0.5"/>
<rect x="2" y="39.795" fill="#CFD8DD" width="60" height="0.5"/>
<rect x="2" y="45.159" fill="#CFD8DD" width="60" height="0.5"/>
<rect x="2" y="50.522" fill="#CFD8DD" width="60" height="0.5"/>
<rect x="2" y="55.887" fill="#CFD8DD" width="60" height="0.5"/>
<rect x="61" y="2" fill="#CFD8DD" width="1" height="60"/>
<rect x="2" y="2" fill="#CFD8DD" width="1" height="60"/>
<rect x="2" y="2" fill="#CFD8DD" width="60" height="1"/>
<rect x="2" y="61" fill="#CFD8DD" width="60" height="1"/>
<linearGradient id="SVGID_1_" gradientUnits="userSpaceOnUse" x1="32" y1="61" x2="32" y2="34">
	<stop  offset="0" style="stop-color:#CC0100"/>
	<stop  offset="0.2111" style="stop-color:#DF1616"/>
	<stop  offset="0.4793" style="stop-color:#F12B2A"/>
	<stop  offset="0.7442" style="stop-color:#FB3737"/>
	<stop  offset="1" style="stop-color:#FF3B3B"/>
	<a:midPointStop  offset="0" style="stop-color:#CC0100"/>
	<a:midPointStop  offset="0.3" style="stop-color:#CC0100"/>
	<a:midPointStop  offset="1" style="stop-color:#FF3B3B"/>
</linearGradient>
<rect x="26" y="34" fill="url(#SVGID_1_)" width="12" height="27"/>
<linearGradient id="SVGID_2_" gradientUnits="userSpaceOnUse" x1="13.9995" y1="61" x2="13.9995" y2="22.0005">
	<stop  offset="0" style="stop-color:#69A123"/>
	<stop  offset="0.2373" style="stop-color:#7DBB23"/>
	<stop  offset="0.4966" style="stop-color:#8ECF22"/>
	<stop  offset="0.7527" style="stop-color:#98DC22"/>
	<stop  offset="1" style="stop-color:#9BE022"/>
	<a:midPointStop  offset="0" style="stop-color:#69A123"/>
	<a:midPointStop  offset="0.3" style="stop-color:#69A123"/>
	<a:midPointStop  offset="1" style="stop-color:#9BE022"/>
</linearGradient>
<rect x="8" y="22" fill="url(#SVGID_2_)" width="12" height="39"/>
<linearGradient id="SVGID_3_" gradientUnits="userSpaceOnUse" x1="50" y1="61" x2="50" y2="12.0005">
	<stop  offset="0" style="stop-color:#009AF7"/>
	<stop  offset="0.0814" style="stop-color:#0CA2F4"/>
	<stop  offset="0.3157" style="stop-color:#29B5EE"/>
	<stop  offset="0.549" style="stop-color:#3DC3EA"/>
	<stop  offset="0.7785" style="stop-color:#4ACBE7"/>
	<stop  offset="1" style="stop-color:#4ECEE6"/>
	<a:midPointStop  offset="0" style="stop-color:#009AF7"/>
	<a:midPointStop  offset="0.3" style="stop-color:#009AF7"/>
	<a:midPointStop  offset="1" style="stop-color:#4ECEE6"/>
</linearGradient>
<rect x="44" y="12" fill="url(#SVGID_3_)" width="12" height="49"/>
</svg>
