<?xml version="1.0" encoding="utf-8"?>
<!-- Generator: Adobe Illustrator 15.0.0, SVG Export Plug-In . SVG Version: 6.00 Build 0)  -->
<!DOCTYPE svg PUBLIC "-//W3C//DTD SVG 1.1//EN" "http://www.w3.org/Graphics/SVG/1.1/DTD/svg11.dtd" [
	<!ENTITY ns_flows "http://ns.adobe.com/Flows/1.0/">
	<!ENTITY ns_extend "http://ns.adobe.com/Extensibility/1.0/">
	<!ENTITY ns_ai "http://ns.adobe.com/AdobeIllustrator/10.0/">
	<!ENTITY ns_graphs "http://ns.adobe.com/Graphs/1.0/">
]>
<svg version="1.1" id="Layer_1" xmlns:x="&ns_extend;" xmlns:i="&ns_ai;" xmlns:graph="&ns_graphs;"
	 xmlns="http://www.w3.org/2000/svg" xmlns:xlink="http://www.w3.org/1999/xlink" xmlns:a="http://ns.adobe.com/AdobeSVGViewerExtensions/3.0/"
	 x="0px" y="0px" width="64px" height="64px" viewBox="0 0 64 64" enable-background="new 0 0 64 64" xml:space="preserve">
<path fill="#CFD8DD" d="M2.492,46v14.5c0,0.825,0.675,1.5,1.5,1.5h56c0.825,0,1.5-0.675,1.5-1.5V46H2.492z"/>
<path fill="#B3C2C6" d="M2.492,60v0.5c0,0.825,0.675,1.5,1.5,1.5l56-0.25l-56-0.25C3.167,61.5,2.492,60.825,2.492,60z"/>
<path fill="#B3C2C6" d="M2.492,58.668v0.5c0,0.825,0.675,1.5,1.5,1.5l56-0.25l-56-0.25C3.167,60.168,2.492,59.493,2.492,58.668z"/>
<path fill="#B3C2C6" d="M3.992,59.334l56-0.25l-56-0.25c-0.825,0-1.5-0.675-1.5-1.5v0.5C2.492,58.659,3.167,59.334,3.992,59.334z"/>
<path fill="#E6EBEF" d="M2.492,24v32.5c0,0.825,0.675,1.5,1.5,1.5h56c0.825,0,1.5-0.675,1.5-1.5V24H2.492z"/>
<rect x="2.492" y="9" fill="#E81C27" width="59" height="15"/>
<linearGradient id="SVGID_1_" gradientUnits="userSpaceOnUse" x1="52.6416" y1="77.3984" x2="52.6416" y2="46.5516">
	<stop  offset="0" style="stop-color:#B3C2C6;stop-opacity:0"/>
	<stop  offset="0.5" style="stop-color:#B3C2C6"/>
	<stop  offset="0.6065" style="stop-color:#AEBDC1"/>
	<stop  offset="0.7393" style="stop-color:#A0ADB2"/>
	<stop  offset="0.8855" style="stop-color:#889499"/>
	<stop  offset="1" style="stop-color:#717B80"/>
	<a:midPointStop  offset="0" style="stop-color:#B3C2C6;stop-opacity:0"/>
	<a:midPointStop  offset="0.5" style="stop-color:#B3C2C6;stop-opacity:0"/>
	<a:midPointStop  offset="0.5" style="stop-color:#B3C2C6"/>
	<a:midPointStop  offset="0.6606" style="stop-color:#B3C2C6"/>
	<a:midPointStop  offset="1" style="stop-color:#717B80"/>
</linearGradient>
<path fill="url(#SVGID_1_)" d="M43.799,57.98c17.686-4.408,17.686-16.133,17.686-16.133v8.572
	C58.793,59.051,43.799,57.98,43.799,57.98z"/>
<linearGradient id="SVGID_2_" gradientUnits="userSpaceOnUse" x1="56.8613" y1="53.6338" x2="51.9717" y2="48.7441">
	<stop  offset="0" style="stop-color:#B8BFC4"/>
	<stop  offset="0.065" style="stop-color:#C1C7CC"/>
	<stop  offset="0.2918" style="stop-color:#DCE0E2"/>
	<stop  offset="0.5223" style="stop-color:#F0F1F2"/>
	<stop  offset="0.7565" style="stop-color:#FBFCFC"/>
	<stop  offset="1" style="stop-color:#FFFFFF"/>
	<a:midPointStop  offset="0" style="stop-color:#B8BFC4"/>
	<a:midPointStop  offset="0.2848" style="stop-color:#B8BFC4"/>
	<a:midPointStop  offset="1" style="stop-color:#FFFFFF"/>
</linearGradient>
<path fill="url(#SVGID_2_)" d="M61.484,40.848c0,10.572-5.754,17.133-17.686,17.133c0,0,8.178-2.086,8.178-9.242
	C62.299,48.738,61.484,40.848,61.484,40.848z"/>
<path fill="#302C3B" d="M24.57,30.002H27.6c0.473,0,0.736,0.266,0.736,0.736v20.221c0,0.473-0.264,0.736-0.736,0.736h-2.789
	c-0.473,0-0.736-0.264-0.736-0.736V34.295l-4.191,2.301C19.379,36.891,19,36.648,19,36.092v-2.703c0-0.389,0.154-0.682,0.502-0.883
	l4.154-2.271C23.951,30.059,24.221,30.002,24.57,30.002z"/>
<path fill="#302C3B" d="M31.711,30.002h12.551c0.475,0,0.738,0.266,0.738,0.736v2.418c0,0.326-0.064,0.596-0.18,0.914l-6.934,17.066
	c-0.146,0.387-0.441,0.559-0.852,0.559h-2.982c-0.535,0-0.768-0.326-0.559-0.854l6.801-16.75h-8.584
	c-0.471,0-0.734-0.262-0.734-0.732v-2.621C30.977,30.268,31.24,30.002,31.711,30.002z"/>
<path fill="#FFFFFF" d="M16.994,19.076c-0.016-0.217,0.1-0.33,0.305-0.33h1.006c0.191,0,0.307,0.113,0.334,0.316
	c0.102,0.988,0.742,1.365,1.619,1.365c0.969,0,1.639-0.461,1.639-1.471v-6.643c0-0.203,0.113-0.314,0.32-0.314h0.998
	c0.207,0,0.318,0.111,0.318,0.314v6.643c0,2.082-1.588,3.043-3.275,3.043C18.646,22,17.137,21.129,16.994,19.076z"/>
<path fill="#FFFFFF" d="M25.248,18.844v-6.529c0-0.203,0.113-0.314,0.32-0.314h0.998c0.207,0,0.32,0.111,0.32,0.314v6.432
	c0,1.08,0.67,1.682,1.924,1.682s1.924-0.602,1.924-1.682v-6.432c0-0.203,0.115-0.314,0.322-0.314h0.996
	c0.207,0,0.322,0.111,0.322,0.314v6.529c0,2.055-1.59,3.156-3.564,3.156C26.838,22,25.248,20.898,25.248,18.844z"/>
<path fill="#FFFFFF" d="M39.861,20.592v0.91c0,0.203-0.115,0.314-0.322,0.314h-4.453h-0.535c-0.205,0-0.32-0.111-0.32-0.314v-9.188
	c0-0.203,0.115-0.314,0.32-0.314h0.998c0.209,0,0.322,0.111,0.322,0.314v7.961h3.668C39.746,20.275,39.861,20.387,39.861,20.592z"/>
<path fill="#FFFFFF" d="M46.932,12.379l-3.1,5.016v4.107c0,0.203-0.113,0.314-0.32,0.314h-0.998c-0.207,0-0.32-0.111-0.32-0.314
	v-4.119l-3.092-5.004C38.967,12.16,39.064,12,39.314,12h1.154c0.172,0,0.293,0.07,0.377,0.217l2.17,3.635l2.17-3.635
	C45.271,12.07,45.393,12,45.563,12h1.154C46.967,12,47.066,12.16,46.932,12.379z"/>
<polygon fill="#B3C2C6" points="2.344,8.98 2.344,10 10.145,10 10.623,9.709 10.809,10 22.889,10 23.012,9.771 23.383,10 38.148,10 
	38.365,9.818 38.545,10 48.158,10 48.545,9.818 48.947,10 56.484,10 56.779,9.865 57.086,10 61.658,10 61.658,8.98 "/>
<polygon fill="#E6EBEF" points="2.203,8.104 2.203,9.624 12.148,9.624 12.439,9.493 12.875,9.624 31.682,9.624 32.305,9.374 
	32.943,9.624 44.037,9.624 44.539,9.374 44.74,9.624 57.922,9.624 58.271,9.374 58.996,9.624 61.797,9.624 61.797,8.104 "/>
<polygon fill="#B3C2C6" points="61.893,8.261 61.893,9.28 54.029,9.28 53.545,8.989 53.359,9.28 41.186,9.28 41.061,9.052 
	40.688,9.28 25.803,9.28 25.586,9.099 25.404,9.28 15.715,9.28 15.326,9.099 14.92,9.28 7.324,9.28 7.027,9.146 6.717,9.28 
	2.109,9.28 2.109,8.261 "/>
<polygon fill="#E6EBEF" points="62,7.346 62,8.864 58.986,8.864 58.693,8.733 58.256,8.864 41.32,8.864 40.693,8.614 40.049,8.864 
	22.881,8.864 22.375,8.614 22.174,8.864 10.902,8.864 10.549,8.614 9.818,8.864 2,8.864 2,7.346 "/>
<linearGradient id="SVGID_3_" gradientUnits="userSpaceOnUse" x1="32.0005" y1="8.5" x2="32.0005" y2="2">
	<stop  offset="0" style="stop-color:#FF3333"/>
	<stop  offset="0.4063" style="stop-color:#EE2125"/>
	<stop  offset="1" style="stop-color:#CF000A"/>
	<a:midPointStop  offset="0" style="stop-color:#FF3333"/>
	<a:midPointStop  offset="0.5515" style="stop-color:#FF3333"/>
	<a:midPointStop  offset="1" style="stop-color:#CF000A"/>
</linearGradient>
<path fill="url(#SVGID_3_)" d="M60.5,2h-57C2.675,2,2,2.675,2,3.5v5h2.818l0.73-0.25L5.902,8.5h13.271l0.201-0.25l0.506,0.25h11.168
	l0.645-0.25L32.32,8.5h18.936l0.438-0.131L51.986,8.5H62v-5C62,2.675,61.325,2,60.5,2z"/>
<path fill="#302C3B" d="M24.573,5.261c0,1.999-3.001,1.999-3.001,0C21.572,3.26,24.573,3.26,24.573,5.261z"/>
<path fill="#302C3B" d="M42.427,5.261c0,1.999-3,1.999-3,0C39.427,3.26,42.427,3.26,42.427,5.261z"/>
<radialGradient id="SVGID_4_" cx="-127.585" cy="-770.6089" r="9.3611" gradientTransform="matrix(0.8573 0 0 -0.1973 141.3795 -146.7805)" gradientUnits="userSpaceOnUse">
	<stop  offset="0" style="stop-color:#E6EBEF"/>
	<stop  offset="0.3463" style="stop-color:#E3E9ED"/>
	<stop  offset="0.5872" style="stop-color:#DAE1E5"/>
	<stop  offset="0.7954" style="stop-color:#CBD5D9"/>
	<stop  offset="0.9851" style="stop-color:#B5C4C8"/>
	<stop  offset="1" style="stop-color:#B3C2C6"/>
	<a:midPointStop  offset="0" style="stop-color:#E6EBEF"/>
	<a:midPointStop  offset="0.7758" style="stop-color:#E6EBEF"/>
	<a:midPointStop  offset="1" style="stop-color:#B3C2C6"/>
</radialGradient>
<path fill="url(#SVGID_4_)" d="M39.828,6.091H24.173c-0.422,0-0.422-1.66,0-1.66h15.655C40.25,4.431,40.25,6.091,39.828,6.091z"/>
</svg>
