<?xml version="1.0" encoding="utf-8"?>
<!-- Generator: Adobe Illustrator 15.0.0, SVG Export Plug-In . SVG Version: 6.00 Build 0)  -->
<!DOCTYPE svg PUBLIC "-//W3C//DTD SVG 1.1//EN" "http://www.w3.org/Graphics/SVG/1.1/DTD/svg11.dtd" [
	<!ENTITY ns_flows "http://ns.adobe.com/Flows/1.0/">
	<!ENTITY ns_extend "http://ns.adobe.com/Extensibility/1.0/">
	<!ENTITY ns_ai "http://ns.adobe.com/AdobeIllustrator/10.0/">
	<!ENTITY ns_graphs "http://ns.adobe.com/Graphs/1.0/">
]>
<svg version="1.1" id="Layer_1" xmlns:x="&ns_extend;" xmlns:i="&ns_ai;" xmlns:graph="&ns_graphs;"
	 xmlns="http://www.w3.org/2000/svg" xmlns:xlink="http://www.w3.org/1999/xlink" xmlns:a="http://ns.adobe.com/AdobeSVGViewerExtensions/3.0/"
	 x="0px" y="0px" width="64px" height="64px" viewBox="0 0 64 64" enable-background="new 0 0 64 64" xml:space="preserve">
<linearGradient id="SVGID_1_" gradientUnits="userSpaceOnUse" x1="32.0005" y1="26" x2="32.0005" y2="2">
	<stop  offset="0" style="stop-color:#FF3333"/>
	<stop  offset="0.4063" style="stop-color:#EE2125"/>
	<stop  offset="1" style="stop-color:#CF000A"/>
	<a:midPointStop  offset="0" style="stop-color:#FF3333"/>
	<a:midPointStop  offset="0.5515" style="stop-color:#FF3333"/>
	<a:midPointStop  offset="1" style="stop-color:#CF000A"/>
</linearGradient>
<path fill="url(#SVGID_1_)" d="M62,3.5C62,2.675,61.325,2,60.5,2h-57C2.675,2,2,2.675,2,3.5V26h60V3.5z"/>
<path fill="#E6EBEF" d="M2,26v34.5C2,61.325,2.675,62,3.5,62h57c0.825,0,1.5-0.675,1.5-1.5V26H2z"/>
<rect x="53" y="7.5" fill="#FFFFFF" width="3" height="3"/>
<rect x="48" y="7.5" fill="#FFFFFF" width="3" height="3"/>
<rect x="43" y="7.5" fill="#FFFFFF" width="3" height="3"/>
<rect x="53" y="12.5" fill="#FFFFFF" width="3" height="3"/>
<rect x="48" y="12.5" fill="#FFFFFF" width="3" height="3"/>
<rect x="43" y="12.5" fill="#FFFFFF" width="3" height="3"/>
<rect x="53" y="17.5" fill="#FFFFFF" width="3" height="3"/>
<rect x="48" y="17.5" fill="#FFFFFF" width="3" height="3"/>
<rect x="43" y="17.5" fill="#FFFFFF" width="3" height="3"/>
<path fill="#FFFFFF" d="M5.835,16.238c-0.017-0.234,0.107-0.356,0.328-0.356h1.085c0.206,0,0.33,0.122,0.359,0.341
	c0.109,1.065,0.8,1.472,1.745,1.472c1.044,0,1.767-0.497,1.767-1.585V8.95c0-0.22,0.122-0.339,0.345-0.339h1.076
	c0.223,0,0.343,0.119,0.343,0.339v7.159c0,2.244-1.711,3.279-3.53,3.279C7.616,19.389,5.988,18.45,5.835,16.238z"/>
<path fill="#FFFFFF" d="M14.731,15.987V8.95c0-0.22,0.122-0.339,0.345-0.339h1.076c0.223,0,0.345,0.119,0.345,0.339v6.932
	c0,1.164,0.723,1.813,2.073,1.813c1.352,0,2.074-0.648,2.074-1.813V8.95c0-0.22,0.124-0.339,0.348-0.339h1.073
	c0.223,0,0.347,0.119,0.347,0.339v7.037c0,2.214-1.713,3.401-3.842,3.401C16.444,19.389,14.731,18.201,14.731,15.987z"/>
<path fill="#FFFFFF" d="M30.481,17.871v0.981c0,0.219-0.124,0.339-0.348,0.339h-4.8h-0.576c-0.221,0-0.346-0.12-0.346-0.339V8.95
	c0-0.22,0.125-0.339,0.346-0.339h1.075c0.226,0,0.348,0.119,0.348,0.339v8.58h3.953C30.357,17.53,30.481,17.65,30.481,17.871z"/>
<path fill="#FFFFFF" d="M38.102,9.02l-3.341,5.406v4.427c0,0.219-0.122,0.339-0.345,0.339H33.34c-0.223,0-0.345-0.12-0.345-0.339
	v-4.44L29.662,9.02c-0.145-0.236-0.039-0.408,0.229-0.408h1.244c0.186,0,0.316,0.075,0.406,0.233l2.339,3.917l2.339-3.917
	c0.093-0.158,0.224-0.233,0.406-0.233h1.244C38.14,8.611,38.247,8.783,38.102,9.02z"/>
<path fill="#302C3B" d="M23.428,31.484h3.495c0.545,0,0.85,0.307,0.85,0.85v23.332c0,0.545-0.305,0.85-0.85,0.85h-3.219
	c-0.545,0-0.85-0.305-0.85-0.85V36.438l-4.836,2.654C17.438,39.433,17,39.153,17,38.512v-3.119c0-0.448,0.178-0.787,0.579-1.019
	l4.794-2.621C22.713,31.55,23.023,31.484,23.428,31.484z"/>
<path fill="#302C3B" d="M31.666,31.484h14.482c0.547,0,0.852,0.307,0.852,0.85v2.79c0,0.377-0.074,0.688-0.207,1.055l-8.001,19.692
	c-0.169,0.446-0.509,0.645-0.982,0.645h-3.441c-0.617,0-0.886-0.377-0.645-0.985l7.848-19.326h-9.905
	c-0.543,0-0.847-0.303-0.847-0.846v-3.024C30.819,31.791,31.123,31.484,31.666,31.484z"/>
</svg>
