<?xml version="1.0" encoding="utf-8"?>
<!-- Generator: Adobe Illustrator 15.0.0, SVG Export Plug-In . SVG Version: 6.00 Build 0)  -->
<!DOCTYPE svg PUBLIC "-//W3C//DTD SVG 1.1//EN" "http://www.w3.org/Graphics/SVG/1.1/DTD/svg11.dtd" [
	<!ENTITY ns_flows "http://ns.adobe.com/Flows/1.0/">
	<!ENTITY ns_extend "http://ns.adobe.com/Extensibility/1.0/">
	<!ENTITY ns_ai "http://ns.adobe.com/AdobeIllustrator/10.0/">
	<!ENTITY ns_graphs "http://ns.adobe.com/Graphs/1.0/">
]>
<svg version="1.1" id="Layer_1" xmlns:x="&ns_extend;" xmlns:i="&ns_ai;" xmlns:graph="&ns_graphs;"
	 xmlns="http://www.w3.org/2000/svg" xmlns:xlink="http://www.w3.org/1999/xlink" xmlns:a="http://ns.adobe.com/AdobeSVGViewerExtensions/3.0/"
	 x="0px" y="0px" width="64px" height="64px" viewBox="0 0 64 64" enable-background="new 0 0 64 64" xml:space="preserve">
<path fill="#FFE1BD" d="M51.805,61.71c-0.389,0.388-1.025,0.388-1.414-0.001l-48.099-48.1c-0.39-0.389-0.39-1.027,0-1.416
	l9.903-9.902c0.389-0.389,1.025-0.389,1.413,0l48.101,48.1c0.389,0.389,0.389,1.025,0,1.414L51.805,61.71z"/>
<path fill="#F5CFA0" d="M52.918,60.598l2.949-2.951c-5.011-4.631-11.141-10.531-17.694-17.082
	C22.386,24.773,10.249,11.311,11.065,10.492c0.235-0.232,1.499,0.59,3.544,2.244c-2.281-2.371-4.367-4.596-6.227-6.633L5.787,8.697
	c3.952,3.625,8.565,8.047,13.433,12.912c13.329,13.326,23.422,24.842,22.544,25.719c-0.875,0.875-12.392-9.217-25.718-22.545
	c-4.867-4.867-9.286-9.479-12.913-13.432l-0.841,0.842c-0.39,0.389-0.39,1.027,0,1.416l24.969,24.969
	c2.185-0.096,10.237,6.191,18.937,14.889C48.668,55.939,50.926,58.348,52.918,60.598z"/>
<path fill="#F5CFA0" d="M44.572,39.863c-0.208,0.209-1.068-0.256-2.439-1.262c6.16,6.176,11.691,11.938,16.082,16.697l2.395-2.396
	c-1.045-1.018-2.12-2.076-3.229-3.186c-7.561-7.559-13.37-14.012-12.969-14.41c0.396-0.398,6.849,5.408,14.41,12.971
	c1.09,1.088,2.115,2.135,3.112,3.158c0.126-0.354,0.056-0.764-0.226-1.045l-48.101-48.1c-0.388-0.389-1.024-0.389-1.413,0
	L10.816,3.67c3.753,3.43,8.182,7.662,12.863,12.348C36.036,28.371,45.389,39.047,44.572,39.863z"/>
<path opacity="0.1" fill="#1A1626" d="M61.354,50.744c0.195,0.195,0.194,0.512,0,0.707l-9.903,9.905
	c-0.193,0.192-0.512,0.195-0.707,0L2.646,13.256c-0.195-0.195-0.195-0.514,0-0.709l9.903-9.902c0.194-0.195,0.512-0.195,0.706,0
	L61.354,50.744 M61.709,50.391l-48.101-48.1c-0.388-0.389-1.024-0.389-1.413,0l-9.903,9.902c-0.39,0.389-0.39,1.027,0,1.416
	l48.099,48.1c0.389,0.389,1.025,0.389,1.414,0.001l9.904-9.905C62.098,51.416,62.098,50.779,61.709,50.391L61.709,50.391z"/>
<rect x="11.507" y="1.537" transform="matrix(0.7141 0.7001 -0.7001 0.7141 6.446 -6.8803)" fill="#302C3B" width="0.279" height="5.827"/>
<rect x="13.486" y="2.826" transform="matrix(0.7088 0.7054 -0.7054 0.7088 6.8354 -8.4284)" fill="#302C3B" width="0.282" height="2.478"/>
<rect x="14.288" y="3.625" transform="matrix(0.7054 0.7089 -0.7089 0.7054 7.6991 -8.7936)" fill="#302C3B" width="0.278" height="2.479"/>
<rect x="15.084" y="4.422" transform="matrix(0.7088 0.7054 -0.7054 0.7088 8.4271 -9.0911)" fill="#302C3B" width="0.282" height="2.48"/>
<rect x="15.882" y="5.22" transform="matrix(0.7071 0.7071 -0.7071 0.7071 9.2619 -9.4383)" fill="#302C3B" width="0.285" height="2.481"/>
<rect x="16.281" y="5.855" transform="matrix(0.7071 0.7071 -0.7071 0.7071 10.2256 -9.3684)" fill="#302C3B" width="0.282" height="3.608"/>
<rect x="17.48" y="6.818" transform="matrix(0.7071 0.7071 -0.7071 0.7071 10.8583 -10.0989)" fill="#302C3B" width="0.279" height="2.478"/>
<rect x="18.278" y="7.619" transform="matrix(0.7054 0.7088 -0.7088 0.7054 11.7054 -10.4465)" fill="#302C3B" width="0.284" height="2.477"/>
<rect x="19.075" y="8.416" transform="matrix(0.7088 0.7054 -0.7054 0.7088 12.4054 -10.7436)" fill="#302C3B" width="0.282" height="2.478"/>
<rect x="19.872" y="9.214" transform="matrix(0.7054 0.7088 -0.7088 0.7054 13.3059 -11.1069)" fill="#302C3B" width="0.284" height="2.478"/>
<rect x="19.488" y="9.522" transform="matrix(0.7105 0.7036 -0.7036 0.7105 14.4313 -10.213)" fill="#302C3B" width="0.283" height="5.826"/>
<rect x="21.467" y="10.811" transform="matrix(0.7037 0.7105 -0.7105 0.7037 14.9651 -11.7839)" fill="#302C3B" width="0.286" height="2.478"/>
<rect x="22.271" y="11.607" transform="matrix(0.7071 0.7071 -0.7071 0.7071 15.6484 -12.0834)" fill="#302C3B" width="0.279" height="2.48"/>
<rect x="23.067" y="12.406" transform="matrix(0.7071 0.7071 -0.7071 0.7071 16.4463 -12.4139)" fill="#302C3B" width="0.282" height="2.479"/>
<rect x="23.864" y="13.206" transform="matrix(0.7071 0.7071 -0.7071 0.7071 17.2457 -12.7441)" fill="#302C3B" width="0.285" height="2.478"/>
<rect x="24.266" y="13.839" transform="matrix(0.7106 0.7036 -0.7036 0.7106 18.0705 -12.6447)" fill="#302C3B" width="0.28" height="3.609"/>
<rect x="25.461" y="14.802" transform="matrix(0.7036 0.7105 -0.7105 0.7036 18.9854 -13.4384)" fill="#302C3B" width="0.283" height="2.478"/>
<rect x="26.259" y="15.601" transform="matrix(0.7054 0.7088 -0.7088 0.7054 19.7143 -13.7532)" fill="#302C3B" width="0.287" height="2.477"/>
<rect x="27.058" y="16.399" transform="matrix(0.7139 0.7002 -0.7002 0.7139 20.1311 -14.0007)" fill="#302C3B" width="0.285" height="2.478"/>
<rect x="27.859" y="17.198" transform="matrix(0.7089 0.7054 -0.7054 0.7089 21.1565 -14.3811)" fill="#302C3B" width="0.28" height="2.478"/>
<rect x="27.471" y="17.505" transform="matrix(0.7071 0.7071 -0.7071 0.7071 22.5255 -13.5444)" fill="#302C3B" width="0.282" height="5.826"/>
<rect x="29.454" y="18.794" transform="matrix(0.7088 0.7054 -0.7054 0.7088 22.7492 -15.0436)" fill="#302C3B" width="0.285" height="2.479"/>
<rect x="30.253" y="19.594" transform="matrix(0.7071 0.7071 -0.7071 0.7071 23.6332 -15.3896)" fill="#302C3B" width="0.282" height="2.478"/>
<rect x="31.05" y="20.39" transform="matrix(0.7001 0.714 -0.714 0.7001 24.796 -15.7848)" fill="#302C3B" width="0.282" height="2.477"/>
<rect x="31.847" y="21.188" transform="matrix(0.7054 0.7088 -0.7088 0.7054 25.3212 -16.0675)" fill="#302C3B" width="0.284" height="2.478"/>
<rect x="32.248" y="21.822" transform="matrix(0.7071 0.7071 -0.7071 0.7071 26.1925 -15.9824)" fill="#302C3B" width="0.282" height="3.609"/>
<rect x="33.447" y="22.784" transform="matrix(0.7106 0.7036 -0.7036 0.7106 26.6215 -16.6781)" fill="#302C3B" width="0.278" height="2.48"/>
<rect x="34.243" y="23.585" transform="matrix(0.7071 0.7071 -0.7071 0.7071 27.6246 -17.0432)" fill="#302C3B" width="0.285" height="2.478"/>
<rect x="35.042" y="24.383" transform="matrix(0.7054 0.7088 -0.7088 0.7054 28.5277 -17.3904)" fill="#302C3B" width="0.282" height="2.478"/>
<rect x="35.841" y="25.18" transform="matrix(0.7071 0.7071 -0.7071 0.7071 29.2197 -17.7048)" fill="#302C3B" width="0.282" height="2.478"/>
<rect x="35.455" y="25.489" transform="matrix(0.7088 0.7054 -0.7054 0.7088 30.4002 -16.84)" fill="#302C3B" width="0.285" height="5.826"/>
<rect x="37.438" y="26.776" transform="matrix(0.7105 0.7036 -0.7036 0.7105 30.5912 -18.333)" fill="#302C3B" width="0.283" height="2.482"/>
<rect x="38.236" y="27.576" transform="matrix(0.7105 0.7036 -0.7036 0.7105 31.3844 -18.6636)" fill="#302C3B" width="0.283" height="2.478"/>
<polygon fill="#302C3B" points="38.398,30.592 38.199,30.389 39.953,28.639 40.15,28.836 "/>
<rect x="39.832" y="29.173" transform="matrix(0.7088 0.7054 -0.7054 0.7088 33.0924 -19.3423)" fill="#302C3B" width="0.285" height="2.478"/>
<rect x="40.232" y="29.806" transform="matrix(0.7071 0.7071 -0.7071 0.7071 34.1762 -19.2899)" fill="#302C3B" width="0.282" height="3.607"/>
<rect x="41.428" y="30.768" transform="matrix(0.7054 0.7088 -0.7088 0.7054 34.9353 -20.0355)" fill="#302C3B" width="0.281" height="2.478"/>
<rect x="42.225" y="31.567" transform="matrix(0.7071 0.7071 -0.7071 0.7071 35.607 -20.3496)" fill="#302C3B" width="0.285" height="2.478"/>
<rect x="43.026" y="32.367" transform="matrix(0.7054 0.7088 -0.7088 0.7054 36.5389 -20.6971)" fill="#302C3B" width="0.281" height="2.477"/>
<rect x="43.824" y="33.163" transform="matrix(0.7123 0.7019 -0.7019 0.7123 36.7944 -20.9601)" fill="#302C3B" width="0.281" height="2.478"/>
<rect x="43.438" y="33.47" transform="matrix(0.7122 0.7019 -0.7019 0.7122 38.0788 -20.1202)" fill="#302C3B" width="0.284" height="5.827"/>
<rect x="45.421" y="34.76" transform="matrix(0.7088 0.7054 -0.7054 0.7088 38.6597 -21.6563)" fill="#302C3B" width="0.282" height="2.48"/>
<rect x="46.219" y="35.557" transform="matrix(0.7071 0.7071 -0.7071 0.7071 39.5978 -22.0038)" fill="#302C3B" width="0.282" height="2.48"/>
<rect x="47.016" y="36.358" transform="matrix(0.7071 0.7071 -0.7071 0.7071 40.3968 -22.3342)" fill="#302C3B" width="0.285" height="2.477"/>
<rect x="47.816" y="37.155" transform="matrix(0.7106 0.7036 -0.7036 0.7106 40.8945 -22.6309)" fill="#302C3B" width="0.28" height="2.478"/>
<rect x="48.216" y="37.788" transform="matrix(0.714 0.7001 -0.7001 0.714 41.5502 -22.533)" fill="#302C3B" width="0.282" height="3.61"/>
<rect x="49.412" y="38.752" transform="matrix(0.7071 0.7071 -0.7071 0.7071 42.7919 -23.3263)" fill="#302C3B" width="0.282" height="2.478"/>
<rect x="50.21" y="39.55" transform="matrix(0.7105 0.7036 -0.7036 0.7105 43.2756 -23.6233)" fill="#302C3B" width="0.283" height="2.479"/>
<rect x="51.01" y="40.35" transform="matrix(0.7036 0.7106 -0.7106 0.7036 44.7125 -24.0202)" fill="#302C3B" width="0.28" height="2.478"/>
<rect x="51.808" y="41.145" transform="matrix(0.7071 0.7071 -0.7071 0.7071 45.1856 -24.3181)" fill="#302C3B" width="0.279" height="2.48"/>
<rect x="51.42" y="41.457" transform="matrix(0.7037 0.7105 -0.7105 0.7037 46.8038 -23.4885)" fill="#302C3B" width="0.286" height="5.824"/>
<rect x="53.404" y="42.743" transform="matrix(0.7071 0.7071 -0.7071 0.7071 46.7826 -24.9793)" fill="#302C3B" width="0.279" height="2.477"/>
<rect x="54.201" y="43.542" transform="matrix(0.7071 0.7071 -0.7071 0.7071 47.5818 -25.31)" fill="#302C3B" width="0.285" height="2.479"/>
<rect x="54.997" y="44.34" transform="matrix(0.7088 0.7054 -0.7054 0.7088 48.209 -25.6244)" fill="#302C3B" width="0.288" height="2.479"/>
<rect x="55.8" y="45.14" transform="matrix(0.7089 0.7054 -0.7054 0.7089 49.0006 -25.9545)" fill="#302C3B" width="0.28" height="2.478"/>
<rect x="56.198" y="45.772" transform="matrix(0.7054 0.7088 -0.7088 0.7054 50.3231 -25.9175)" fill="#302C3B" width="0.281" height="3.609"/>
<rect x="57.394" y="46.734" transform="matrix(0.7054 0.7088 -0.7088 0.7054 50.956 -26.6493)" fill="#302C3B" width="0.284" height="2.48"/>
<rect x="58.194" y="47.532" transform="matrix(0.7071 0.7071 -0.7071 0.7071 51.5726 -26.9642)" fill="#302C3B" width="0.282" height="2.479"/>
<rect x="58.994" y="48.332" transform="matrix(0.7123 0.7018 -0.7018 0.7123 51.8026 -27.2428)" fill="#302C3B" width="0.28" height="2.478"/>
<rect x="59.79" y="49.131" transform="matrix(0.7088 0.7054 -0.7054 0.7088 52.9798 -27.6079)" fill="#302C3B" width="0.282" height="2.478"/>
<rect x="59.405" y="49.437" transform="matrix(0.714 0.7001 -0.7001 0.714 53.6825 -26.7182)" fill="#302C3B" width="0.282" height="5.827"/>
</svg>
