<?xml version="1.0" encoding="utf-8"?>
<!-- Generator: Adobe Illustrator 15.0.0, SVG Export Plug-In . SVG Version: 6.00 Build 0)  -->
<!DOCTYPE svg PUBLIC "-//W3C//DTD SVG 1.1//EN" "http://www.w3.org/Graphics/SVG/1.1/DTD/svg11.dtd" [
	<!ENTITY ns_flows "http://ns.adobe.com/Flows/1.0/">
	<!ENTITY ns_extend "http://ns.adobe.com/Extensibility/1.0/">
	<!ENTITY ns_ai "http://ns.adobe.com/AdobeIllustrator/10.0/">
	<!ENTITY ns_graphs "http://ns.adobe.com/Graphs/1.0/">
]>
<svg version="1.1" id="Layer_1" xmlns:x="&ns_extend;" xmlns:i="&ns_ai;" xmlns:graph="&ns_graphs;"
	 xmlns="http://www.w3.org/2000/svg" xmlns:xlink="http://www.w3.org/1999/xlink" xmlns:a="http://ns.adobe.com/AdobeSVGViewerExtensions/3.0/"
	 x="0px" y="0px" width="64px" height="64px" viewBox="0 0 64 64" enable-background="new 0 0 64 64" xml:space="preserve">
<linearGradient id="SVGID_1_" gradientUnits="userSpaceOnUse" x1="-306.8311" y1="60.999" x2="-306.8311" y2="2" gradientTransform="matrix(-1 0 0 1 -277.3311 0)">
	<stop  offset="0" style="stop-color:#B9C2C7"/>
	<stop  offset="0.2413" style="stop-color:#D2D9DC"/>
	<stop  offset="0.4121" style="stop-color:#E6EBED"/>
	<a:midPointStop  offset="0" style="stop-color:#B9C2C7"/>
	<a:midPointStop  offset="0.5373" style="stop-color:#B9C2C7"/>
	<a:midPointStop  offset="0.4121" style="stop-color:#E6EBED"/>
</linearGradient>
<path fill="url(#SVGID_1_)" d="M3.799,56.719L57,60.999V2H2v50.688C2,55.242,2.745,56.519,3.799,56.719z"/>
<rect x="7" y="9" fill="#99A8AE" width="12" height="1"/>
<rect x="7" y="13" fill="#99A8AE" width="45" height="1"/>
<rect x="7" y="17" fill="#99A8AE" width="45" height="1"/>
<rect x="7" y="21" fill="#99A8AE" width="45" height="1"/>
<rect x="7" y="25" fill="#99A8AE" width="28" height="1"/>
<rect x="7" y="29" fill="#99A8AE" width="45" height="1"/>
<rect x="7" y="33" fill="#99A8AE" width="45" height="1"/>
<rect x="7" y="36.999" fill="#99A8AE" width="45" height="1"/>
<rect x="7" y="40.999" fill="#99A8AE" width="16" height="1"/>
<rect x="7" y="44.999" fill="#99A8AE" width="45" height="1"/>
<rect x="7" y="48.999" fill="#99A8AE" width="45" height="1"/>
<rect x="7" y="52.999" fill="#99A8AE" width="45" height="1"/>
<linearGradient id="SVGID_2_" gradientUnits="userSpaceOnUse" x1="-310.2305" y1="43.5" x2="-310.2305" y2="18.3987" gradientTransform="matrix(-1 -0.0875 0 1 -277.3311 -11.4662)">
	<stop  offset="0" style="stop-color:#B3BBBF"/>
	<stop  offset="0.2108" style="stop-color:#DBDFE1"/>
	<stop  offset="0.3867" style="stop-color:#F5F6F7"/>
	<stop  offset="0.4909" style="stop-color:#FFFFFF"/>
	<a:midPointStop  offset="0" style="stop-color:#B3BBBF"/>
	<a:midPointStop  offset="0.4082" style="stop-color:#B3BBBF"/>
	<a:midPointStop  offset="0.4909" style="stop-color:#FFFFFF"/>
</linearGradient>
<path fill="url(#SVGID_2_)" d="M8.492,41.999L62,52.471c-0.244,5.51-1.158,9.807-4.615,9.516
	c-18.43-1.555-53.586-5.268-53.586-5.268C8.648,56.188,8.492,50.097,8.492,41.999z"/>
</svg>
