<?xml version="1.0" encoding="utf-8"?>
<!-- Generator: Adobe Illustrator 15.0.0, SVG Export Plug-In . SVG Version: 6.00 Build 0)  -->
<!DOCTYPE svg PUBLIC "-//W3C//DTD SVG 1.1//EN" "http://www.w3.org/Graphics/SVG/1.1/DTD/svg11.dtd" [
	<!ENTITY ns_flows "http://ns.adobe.com/Flows/1.0/">
	<!ENTITY ns_extend "http://ns.adobe.com/Extensibility/1.0/">
	<!ENTITY ns_ai "http://ns.adobe.com/AdobeIllustrator/10.0/">
	<!ENTITY ns_graphs "http://ns.adobe.com/Graphs/1.0/">
]>
<svg version="1.1" id="Layer_1" xmlns:x="&ns_extend;" xmlns:i="&ns_ai;" xmlns:graph="&ns_graphs;"
	 xmlns="http://www.w3.org/2000/svg" xmlns:xlink="http://www.w3.org/1999/xlink" xmlns:a="http://ns.adobe.com/AdobeSVGViewerExtensions/3.0/"
	 x="0px" y="0px" width="64px" height="64px" viewBox="0 0 64 64" enable-background="new 0 0 64 64" xml:space="preserve">
<linearGradient id="SVGID_1_" gradientUnits="userSpaceOnUse" x1="29.0522" y1="6.7402" x2="31.7886" y2="58.9538">
	<stop  offset="0.0424" style="stop-color:#875F3A"/>
	<stop  offset="0.1062" style="stop-color:#B68E5F"/>
	<stop  offset="0.1693" style="stop-color:#DEB57F"/>
	<stop  offset="0.2193" style="stop-color:#F6CD92"/>
	<stop  offset="0.25" style="stop-color:#FFD699"/>
	<stop  offset="0.75" style="stop-color:#FFD699"/>
	<stop  offset="0.7805" style="stop-color:#F8CF94"/>
	<stop  offset="0.8243" style="stop-color:#E5BC84"/>
	<stop  offset="0.8763" style="stop-color:#C69D6C"/>
	<stop  offset="0.9341" style="stop-color:#9B734A"/>
	<stop  offset="0.9576" style="stop-color:#875F3A"/>
	<a:midPointStop  offset="0.0424" style="stop-color:#875F3A"/>
	<a:midPointStop  offset="0.4" style="stop-color:#875F3A"/>
	<a:midPointStop  offset="0.25" style="stop-color:#FFD699"/>
	<a:midPointStop  offset="0.5" style="stop-color:#FFD699"/>
	<a:midPointStop  offset="0.75" style="stop-color:#FFD699"/>
	<a:midPointStop  offset="0.6286" style="stop-color:#FFD699"/>
	<a:midPointStop  offset="0.9576" style="stop-color:#875F3A"/>
</linearGradient>
<path fill="url(#SVGID_1_)" d="M5.725,2.92c-8.285,2.965-0.846,20.819,3.99,35.428c2.631-0.273,4.211,0.252,4.211,0.252
	s-3.699,1.318-3.615,1.582c3.24,10.151,1.697,20.913,5.729,21.62c2.732,0,7.367-2.307,17.539-1.73
	c14.713,0.83,19.525,0.17,21.346-2.729c5.986-9.531,3.104-22.218-2.221-31.537c-0.455-0.795-5.309-2.014-5.309-2.014
	s1.281-1.301,3.168-1.869c-3.025-5.838-4.559-11.118-1.588-17.925C37.568,0.684,30.451,4.391,21.682,4.207
	C13.662,4.04,8.348,2.615,5.725,2.92z"/>
<path opacity="0.5" fill="#B0751F" d="M22.779,21.54c1.744-0.106,3.842-0.258,5.112-1.169c0.305,0.935,2.04,1.107,2.979,0.949
	c0.402-0.058,0.733-0.201,0.99-0.437c0.937,0.023,1.888,0.026,2.792-0.13c0.913-0.159,5.365,0.909,5.565-0.304
	c-0.687-0.141-5.273,0.846-3.977-0.59c-1.496,0.674-3.128,0.553-4.704,0.757c-0.927,1.28-3.658,0.144-3.031-1.31
	c-0.54,0.528-2.974,1.514-3.947,1.688c-1.651,0.298-3.402,0.286-5.115,0.03c1.507-0.82,2.562-1.914,3.694-3.008
	c1.233-1.186,1.823-2.169-0.748-2c-1.703,0.113-8.903,1.173-8.515,3.1c0.706-0.104,1.55-1.058,2.438-1.369
	c2.126-0.746,5.022-1.638,7.481-1.374c-0.062,1.402-3.012,3.419-4.289,4.175c-1.584,0.938-4.851-1.429-6.209-0.379
	c-0.503,0.389-0.323,1.425,0.224,1.805c0.822,0.572,2.17,0.313,3.034,0.11c0.688-0.159,1.367-0.368,1.993-0.628
	C19.513,21.057,21.57,21.616,22.779,21.54z M14.147,21.886c0.181,0.049,0.931,0.263-0.001-0.002c-0.051-0.014-0.041-0.012-0.002,0
	c-1.296-0.371-0.767-1.724,0.611-1.467c1.179,0.22,2.336,0.528,3.515,0.754C17.199,21.607,15.447,22.25,14.147,21.886z"/>
<path opacity="0.5" fill="#B0751F" d="M49.647,51.881c-1.375,0.784-3.193,1.597-4.975,1.702c0.023-1.131,1.451-1.867,1.66-2.954
	c0.27-1.406-2.509-0.933-3.478-0.794c-5.287,0.76-8.618,2.027-10.478,2.573c0.202-1.466-7.824,0.612-7.898,1.528
	c0.682,0.03,7.07-2.6,7.359-1.613c0.075,0.263-1.324,0.709-1.524,0.797c1.725-0.209,5.684-1.838,12.736-2.922
	c0.563-0.086,2.114-0.486,2.647-0.039c0.644,0.538-1.093,2.197-1.324,2.624c-1.132,2.105,2.004,0.934,3.246,0.487
	c1.385-0.498,3.618-1.324,4.028-2.568C50.887,50.491,50.291,51.515,49.647,51.881z M34.954,51.848
	c0.302-0.116,0.466-0.178,0.533-0.204C35.378,51.687,35.095,51.795,34.954,51.848z"/>
<path opacity="0.5" fill="#B0751F" d="M50.34,47.573c-1.016-0.273-2.268-0.723-2.654-1.582c1.771,0.195,4.882-2.611,2.511-3.414
	c-1.565-0.526-3.105,2.068-3.035,2.991c-0.827-0.412-8.25,0.642-5.865-0.369c-0.924-0.019-1.191,0.458-1.935,0.786
	c-0.76,0.338-3.813,1.777-4.684,1.363c-0.486-0.234,0.847-1.104,1.008-1.234c-0.976-0.287-3.097,1.29-4.247,1.592
	c-0.563,0.147-0.837,0.117-1.239-0.17c-0.509-0.364-2.081,0.213-2.52,0.341c-1.348,0.394-2.74,0.931-2.631-0.406
	c0.112-1.396-4.483,0.649-5.22,0.867c0.695,0.47,3.585-1.024,4.793-1.079c0.202,0.826-0.485,1.395,1.221,1.287
	c0.882-0.214,1.794-0.376,2.681-0.607c0.954-0.248,0.958-0.179,1.744,0.052c1.327,0.386,3.021-0.663,4.035-1.13
	c-0.959,1.549,3.902-0.103,4.292-0.244c0.231-0.085,1.742-0.801,1.832-0.705c0.445,0.452,6.036-0.24,6.801-0.013
	c0.566,1.765,3.919,2.292,5.772,2.175C52.56,47.642,51.255,47.822,50.34,47.573z M47.604,45.136
	C47.622,45.022,47.615,45.065,47.604,45.136L47.604,45.136z M47.593,45.206C47.587,45.241,47.584,45.255,47.593,45.206
	c0-0.003,0-0.003,0-0.005c0.083-0.46,2.097-3.167,2.635-2.194c0.758,1.367-0.68,3.048-2.632,2.697
	C47.595,45.538,47.593,45.372,47.593,45.206z"/>
<path opacity="0.5" fill="#B0751F" d="M27.251,26.417c-0.013,0.68,0.794,1.117,2.159,0.764c2.204-0.608,3.235-1.789,3.936-3.233
	c3.208,1.052,6.206,1.097,8.824,0.411c0,0,0.188,0.426-0.213,0.594c-2.002,0.839-5.409,0.509-8.236-0.357
	c-0.836,1.351-2.309,2.414-4.137,2.906c-1.605,0.43-2.692-0.11-2.879-0.797c-0.178-0.547,0.051-1.029,0.369-1.496
	c-1.892,0.601-3.816,0.936-5.889,0.48c-0.043,0.407-0.254,0.794-0.538,1.102c-0.564,0.635-0.587,0.509-1.063,1.263
	c-0.737-0.444-1.227-0.788-1.436-1.858c-0.352,0.211-1.372,0.783-1.838,0.75c-0.413-0.029-0.525-0.363-0.525-0.363
	c1.273-0.271,2.104-0.888,2.962-1.501l0.003,0.615c0.003,0.547,0.193,1.179,0.634,1.58c0.833-0.872,1.302-0.892,1.398-2.015
	c2.62,0.597,4.398,0.09,7.006-0.864C28.104,25.12,27.267,25.573,27.251,26.417z"/>
<path opacity="0.5" fill="#B0751F" d="M17.678,37.837c2.273-1.705,5.504-2.325,8.064-1.092c-1.62,0.717-0.856,1.904,0.391,1.896
	c1.101-0.031,1.678-0.925,0.504-1.807c2.844-0.799,6.746-1.467,11.283-1.758c-0.488,0.609-0.776,1.379-0.346,2.069
	c0.583,0.952,2.208,1.073,3.171,0.418c1.598-1.049,2.13-3.558,3.84-3.345c1.038,0.131,1.509,1.322,2.902,1.496
	c0.671,0.084,0.924-0.41,0.628-0.695c0,0-0.35,0.248-0.864,0.184c-0.637-0.078-1.621-1.26-2.576-1.379
	c-3.132-0.392-3.323,4.539-5.978,3.617c-1.6-0.521-0.043-2.253-0.021-2.926c-6.345,0.49-10.924,1.521-12.465,2.044
	c-2.324-1.284-6.396-1.149-8.467,0.663C17.326,37.591,17.678,37.837,17.678,37.837z M26.174,36.984
	c1.027,0.659,0.723,1.327-0.11,1.318C25.192,38.303,24.803,37.507,26.174,36.984z"/>
<path opacity="0.5" fill="#B0751F" d="M16.685,31.952c3.813,0.477,6.09-2.483,9.21-1.379c1.745,0.627,3.121,2.615,5.204,2.526
	c2.034-0.163,2.534-2.729,4.224-2.687c0.958-0.002,1.404,0.971,2.275,1.316c1.371,0.547,2.684-1.118,3.296-2.141
	c1.244,1.917,3.8,2.77,7.625-0.193c0,0-0.232-0.209-0.577-0.252c-0.994-0.124-4.357,4.068-7.056-0.369
	c-0.496,0.828-1.956,3.023-3.069,2.562c-0.849-0.337-1.166-1.363-2.523-1.394c-2.143-0.026-2.738,2.557-4.305,2.678
	c-1.622,0.145-3.146-1.71-4.938-2.356c-3.761-1.233-7.997,3.37-10.542,0.407c0,0-0.217,0.107-0.243,0.345
	C15.229,31.348,15.943,31.86,16.685,31.952z"/>
<path opacity="0.5" fill="#B0751F" d="M48.106,40.735c-2.554,0.69-7.893-1.525-11.622,0.148c0,0,0.843,1.832-1.888,2.184
	c-2.62,0.33-4.06-1.334-4.06-1.334c-0.466,0.729-1.608,2.645-2.932,2.346c-1.449-0.202,0.751-2.893-1.313-3.098
	c-2.024,0.082-3.004,3.395-5.067,4.952c0,0,0.147,0.223,0.523,0.249c1.224,0.088,3.332-5.25,4.738-4.791
	c0.926,0.184-0.722,2.605,1.036,3.016c1.267,0.295,2.438-0.938,3.116-1.748c0,0,1.695,1.169,4.114,0.908
	c3.02-0.324,2.503-2.408,2.503-2.408c3.358-1.455,8.123,0.986,11.88-0.18C49.136,40.979,48.681,40.58,48.106,40.735z"/>
<linearGradient id="SVGID_2_" gradientUnits="userSpaceOnUse" x1="7.5161" y1="12.3652" x2="7.5161" y2="5.688">
	<stop  offset="0" style="stop-color:#D19B69"/>
	<stop  offset="0.3291" style="stop-color:#BA8851"/>
	<stop  offset="0.7444" style="stop-color:#A27439"/>
	<stop  offset="1" style="stop-color:#996D30"/>
	<a:midPointStop  offset="0" style="stop-color:#D19B69"/>
	<a:midPointStop  offset="0.4" style="stop-color:#D19B69"/>
	<a:midPointStop  offset="1" style="stop-color:#996D30"/>
</linearGradient>
<path fill="url(#SVGID_2_)" d="M5.154,12.301c-1.613-0.189-2.295-5.549,0.652-6.514C13.662,4.684,12.672,13.183,5.154,12.301z"/>
<path fill="#91601A" d="M6.07,9.422C5.807,9.088,5.557,7.732,6.543,7.41C9.672,7.41,8.568,9.715,6.07,9.422z"/>
<linearGradient id="SVGID_3_" gradientUnits="userSpaceOnUse" x1="8.2534" y1="9.5811" x2="8.2534" y2="5.5273">
	<stop  offset="0" style="stop-color:#C48D3F"/>
	<stop  offset="0.2432" style="stop-color:#CB9548"/>
	<stop  offset="0.6383" style="stop-color:#DDAA60"/>
	<stop  offset="1" style="stop-color:#F2C37C"/>
	<a:midPointStop  offset="0" style="stop-color:#C48D3F"/>
	<a:midPointStop  offset="0.6" style="stop-color:#C48D3F"/>
	<a:midPointStop  offset="1" style="stop-color:#F2C37C"/>
</linearGradient>
<path fill="url(#SVGID_3_)" d="M6.07,9.422c0.402,0.449,2.586-0.236,4.43,0.154c0.627-2.613-0.037-4.822-4.693-3.789
	C7.676,5.621,7.854,9.408,6.07,9.422z"/>
<linearGradient id="SVGID_4_" gradientUnits="userSpaceOnUse" x1="28.4204" y1="13.2642" x2="28.4204" y2="2">
	<stop  offset="0" style="stop-color:#D69F51"/>
	<stop  offset="0.0895" style="stop-color:#DEA95E"/>
	<stop  offset="0.3013" style="stop-color:#ECBD78"/>
	<stop  offset="0.52" style="stop-color:#F7CB8A"/>
	<stop  offset="0.748" style="stop-color:#FDD395"/>
	<stop  offset="1" style="stop-color:#FFD699"/>
	<a:midPointStop  offset="0" style="stop-color:#D69F51"/>
	<a:midPointStop  offset="0.2727" style="stop-color:#D69F51"/>
	<a:midPointStop  offset="1" style="stop-color:#FFD699"/>
</linearGradient>
<path fill="url(#SVGID_4_)" d="M5.725,2.92c4.436,0.028,4.434,9.453-0.57,9.381c9.676,3.104,27.746-2.725,43.293,0.923
	c2.924,0.684,4.713-7.442,1.621-9.184c-8.02-4.516-24.561-0.097-28.6-0.293C10.973,3.233,8.145,2.157,5.725,2.92z"/>
<path opacity="0.5" fill="#B0751F" d="M22.801,26.058C21.541,26.288,23.855,25.862,22.801,26.058L22.801,26.058z"/>
<polygon opacity="0.5" fill="#B0751F" points="14.609,27.31 14.611,27.312 14.607,27.31 "/>
<linearGradient id="SVGID_5_" gradientUnits="userSpaceOnUse" x1="17.5874" y1="-34.3364" x2="17.5874" y2="-27.5679" gradientTransform="matrix(1 -0.0349 0 -1 0 25.247)">
	<stop  offset="0" style="stop-color:#D19B69"/>
	<stop  offset="0.3291" style="stop-color:#BA8851"/>
	<stop  offset="0.7444" style="stop-color:#A27439"/>
	<stop  offset="1" style="stop-color:#996D30"/>
	<a:midPointStop  offset="0" style="stop-color:#D19B69"/>
	<a:midPointStop  offset="0.4" style="stop-color:#D19B69"/>
	<a:midPointStop  offset="1" style="stop-color:#996D30"/>
</linearGradient>
<path fill="url(#SVGID_5_)" d="M15.469,52.44c-1.891,0.594-2.295,5.633,0.654,6.49C23.977,59.743,21.881,50.728,15.469,52.44z"/>
<path fill="#91601A" d="M16.387,55.286c-0.264,0.344-0.516,1.709,0.471,1.994C19.986,57.165,18.883,54.899,16.387,55.286z"/>
<linearGradient id="SVGID_6_" gradientUnits="userSpaceOnUse" x1="18.5688" y1="-34.502" x2="18.5688" y2="-30.4473" gradientTransform="matrix(1 -0.0349 0 -1 0 25.247)">
	<stop  offset="0" style="stop-color:#C48D3F"/>
	<stop  offset="0.2432" style="stop-color:#CB9548"/>
	<stop  offset="0.6383" style="stop-color:#DDAA60"/>
	<stop  offset="1" style="stop-color:#F2C37C"/>
	<a:midPointStop  offset="0" style="stop-color:#C48D3F"/>
	<a:midPointStop  offset="0.6" style="stop-color:#C48D3F"/>
	<a:midPointStop  offset="1" style="stop-color:#F2C37C"/>
</linearGradient>
<path fill="url(#SVGID_6_)" d="M16.387,55.286c0.4-0.463,2.584,0.141,4.428-0.318c0.629,2.592-0.037,4.824-4.691,3.963
	C17.99,59.028,18.168,55.233,16.387,55.286z"/>
<linearGradient id="SVGID_7_" gradientUnits="userSpaceOnUse" x1="38.7344" y1="-37.9624" x2="38.7344" y2="-26.6792" gradientTransform="matrix(1 -0.0349 0 -1 0 25.247)">
	<stop  offset="0" style="stop-color:#D69F51"/>
	<stop  offset="0.0895" style="stop-color:#DEA95E"/>
	<stop  offset="0.3013" style="stop-color:#ECBD78"/>
	<stop  offset="0.52" style="stop-color:#F7CB8A"/>
	<stop  offset="0.748" style="stop-color:#FDD395"/>
	<stop  offset="1" style="stop-color:#FFD699"/>
	<a:midPointStop  offset="0" style="stop-color:#D69F51"/>
	<a:midPointStop  offset="0.2727" style="stop-color:#D69F51"/>
	<a:midPointStop  offset="1" style="stop-color:#FFD699"/>
</linearGradient>
<path fill="url(#SVGID_7_)" d="M16.039,61.802c2.242-0.098,3.35-2.551,3.252-4.922c0.754-0.455,1.6-0.701,1.6-0.701
	s-1.035-0.4-1.76-0.523c-0.42-1.824-1.961-3.6-3.662-3.215c9.676-3.463,27.746,1.699,43.293-2.523
	c2.924-0.793,4.713,7.268,1.621,9.123c-8.02,4.813-24.559,1.006-28.6,1.352C21.287,61.292,18.459,62.474,16.039,61.802z"/>
</svg>
