<?xml version="1.0" encoding="utf-8"?>
<!-- Generator: Adobe Illustrator 15.0.0, SVG Export Plug-In . SVG Version: 6.00 Build 0)  -->
<!DOCTYPE svg PUBLIC "-//W3C//DTD SVG 1.1//EN" "http://www.w3.org/Graphics/SVG/1.1/DTD/svg11.dtd" [
	<!ENTITY ns_flows "http://ns.adobe.com/Flows/1.0/">
	<!ENTITY ns_extend "http://ns.adobe.com/Extensibility/1.0/">
	<!ENTITY ns_ai "http://ns.adobe.com/AdobeIllustrator/10.0/">
	<!ENTITY ns_graphs "http://ns.adobe.com/Graphs/1.0/">
]>
<svg version="1.1" id="Layer_1" xmlns:x="&ns_extend;" xmlns:i="&ns_ai;" xmlns:graph="&ns_graphs;"
	 xmlns="http://www.w3.org/2000/svg" xmlns:xlink="http://www.w3.org/1999/xlink" xmlns:a="http://ns.adobe.com/AdobeSVGViewerExtensions/3.0/"
	 x="0px" y="0px" width="64px" height="64px" viewBox="0 0 64 64" enable-background="new 0 0 64 64" xml:space="preserve">
<path fill="#013366" d="M11,52c0,0-2,0-2,4s2,4,2,4h6v-8H11z"/>
<path fill="#006DAE" d="M17,52v8h36c0,0,2,0,2-2v-8L17,52z"/>
<linearGradient id="SVGID_1_" gradientUnits="userSpaceOnUse" x1="32.2524" y1="7" x2="32.2524" y2="15.958" gradientTransform="matrix(1 0 0 -1 0 66)">
	<stop  offset="0" style="stop-color:#FFFFFF"/>
	<stop  offset="0.2258" style="stop-color:#F5F6F7"/>
	<stop  offset="0.6071" style="stop-color:#DBDFE2"/>
	<stop  offset="1" style="stop-color:#B9C2C7"/>
	<a:midPointStop  offset="0" style="stop-color:#FFFFFF"/>
	<a:midPointStop  offset="0.5" style="stop-color:#FFFFFF"/>
	<a:midPointStop  offset="0.2258" style="stop-color:#F5F6F7"/>
	<a:midPointStop  offset="0.5" style="stop-color:#F5F6F7"/>
	<a:midPointStop  offset="0.6071" style="stop-color:#DBDFE2"/>
	<a:midPointStop  offset="0.5" style="stop-color:#DBDFE2"/>
	<a:midPointStop  offset="1" style="stop-color:#B9C2C7"/>
</linearGradient>
<path fill="url(#SVGID_1_)" d="M16.98,53h-5.936c-0.037,0-0.072,0.001-0.109,0.011C10.715,53.071,10,53.463,10,56
	c0,2.331,0.604,2.851,0.873,2.967C10.932,58.992,10.994,59,11.059,59h41.447c0,0,2,0,2-2v-6.455c0-0.294-0.25-0.525-0.543-0.501
	L17.02,52.998C17.008,52.999,16.994,53,16.98,53z"/>
<path fill="#006DAE" d="M53,53H17v-6h38v4C55,53,53,53,53,53z"/>
<path fill="#0FB4D4" d="M55,6c0,0,0-2-2-2H17v48h36c0,0,2,0,2-2V6z"/>
<linearGradient id="SVGID_2_" gradientUnits="userSpaceOnUse" x1="9" y1="30" x2="17" y2="30">
	<stop  offset="0.2182" style="stop-color:#013366"/>
	<stop  offset="1" style="stop-color:#006DAE"/>
	<a:midPointStop  offset="0.2182" style="stop-color:#013366"/>
	<a:midPointStop  offset="0.5" style="stop-color:#013366"/>
	<a:midPointStop  offset="1" style="stop-color:#006DAE"/>
</linearGradient>
<path fill="url(#SVGID_2_)" d="M11,52c0,0-2,0-2,4V8c0-4,2-4,2-4h6v48H11z"/>
<path fill="#BEC3CF" d="M10.238,58.041c0.057,0.184,0.119,0.332,0.184,0.451l42.941-0.226L10.238,58.041z"/>
<path fill="#BEC3CF" d="M10.059,57.109c0.02,0.164,0.041,0.315,0.066,0.453l43.238-0.228L10.059,57.109z"/>
<path fill="#BEC3CF" d="M10.004,56.176c0.002,0.16,0.006,0.313,0.016,0.455l43.346-0.227L10.004,56.176z"/>
<path fill="#BEC3CF" d="M10.027,55.244c-0.01,0.143-0.018,0.295-0.021,0.455l43.357-0.228L10.027,55.244z"/>
<path fill="#BEC3CF" d="M10.148,54.313c-0.029,0.137-0.055,0.288-0.076,0.454l43.291-0.227L10.148,54.313z"/>
<path fill="#BEC3CF" d="M10.496,53.383c-0.074,0.113-0.148,0.265-0.215,0.451l43.082-0.227L10.496,53.383z"/>
<path id="Shape_15_" fill="#006DAE" d="M35,12.749c1.244,0,2.246,1.007,2.246,2.253c0,1.242-1.002,2.249-2.246,2.249
	s-2.25-1.007-2.25-2.249C32.75,13.756,33.756,12.749,35,12.749z M35,12c-1.654,0-3,1.343-3,3.002C32,16.658,33.346,18,35,18
	c1.656,0,3-1.342,3-2.998c0-0.799-0.318-1.563-0.877-2.124C36.559,12.315,35.797,12,35,12z"/>
<path id="Combined-Shape_8_" fill="#006DAE" d="M35.6,15.298c-0.043,0.008-0.08-0.005-0.113-0.036
	c-0.029-0.029-0.043-0.068-0.035-0.112v-0.301c-0.008-0.039,0.006-0.081,0.035-0.11c0.033-0.029,0.07-0.046,0.113-0.038h0.977
	c0.039-0.008,0.082,0.009,0.111,0.038s0.041,0.071,0.037,0.11v0.153c0,0.695-0.42,1.327-1.064,1.593
	c-0.645,0.268-1.387,0.119-1.879-0.375c-0.035-0.024-0.055-0.063-0.055-0.107c0-0.041,0.02-0.079,0.055-0.104l0.318-0.321
	c0.023-0.034,0.064-0.051,0.105-0.051s0.08,0.017,0.105,0.051c0.24,0.24,0.588,0.338,0.916,0.258
	c0.33-0.078,0.596-0.321,0.701-0.647H35.6z"/>
<path fill="#006DAE" d="M24.531,24.346l-0.986-3.021c-0.023-0.075,0.014-0.124,0.092-0.124h0.465c0.061,0,0.105,0.026,0.123,0.091
	l0.729,2.403l0.73-2.403c0.018-0.065,0.063-0.091,0.123-0.091h0.463c0.08,0,0.117,0.048,0.094,0.124l-0.986,3.021
	c-0.018,0.06-0.063,0.091-0.123,0.091h-0.6C24.594,24.438,24.549,24.406,24.531,24.346z"/>
<path fill="#006DAE" d="M28.738,23.284c0,0.049-0.004,0.096-0.006,0.142c-0.01,0.07-0.053,0.102-0.119,0.102h-0.477h-1.158
	c0.082,0.329,0.332,0.479,0.627,0.479c0.174,0,0.33-0.069,0.422-0.169c0.041-0.038,0.078-0.061,0.135-0.061l0.371-0.003
	c0.08,0,0.123,0.051,0.09,0.12c-0.174,0.39-0.555,0.607-1.025,0.607c-0.752,0-1.238-0.527-1.238-1.218
	c0-0.687,0.498-1.218,1.225-1.218C28.268,22.063,28.738,22.602,28.738,23.284z M28.143,23.059c-0.068-0.331-0.313-0.46-0.563-0.46
	c-0.316,0-0.533,0.17-0.604,0.46H28.143z"/>
<path fill="#006DAE" d="M30.375,22.195v0.437c0,0.07-0.031,0.106-0.086,0.106c-0.279-0.001-0.549,0.147-0.549,0.56v1.03
	c0,0.071-0.039,0.11-0.109,0.11h-0.377c-0.07,0-0.109-0.039-0.109-0.11v-2.092c0-0.071,0.039-0.11,0.109-0.11h0.377
	c0.07,0,0.109,0.039,0.109,0.11v0.239c0.1-0.236,0.291-0.356,0.521-0.385C30.336,22.079,30.375,22.125,30.375,22.195z"/>
<path fill="#006DAE" d="M32.438,23.766c0,0.493-0.424,0.734-0.934,0.734c-0.473,0-0.875-0.22-0.928-0.685
	c-0.008-0.075,0.035-0.114,0.105-0.114h0.371c0.066,0,0.09,0.036,0.117,0.095c0.039,0.123,0.164,0.179,0.334,0.179
	c0.219,0,0.338-0.075,0.338-0.209c0-0.396-1.244-0.08-1.244-0.969c0-0.487,0.424-0.734,0.906-0.734c0.43,0,0.826,0.22,0.881,0.684
	c0.008,0.075-0.037,0.115-0.107,0.115h-0.369c-0.066,0-0.09-0.036-0.119-0.099c-0.033-0.119-0.15-0.175-0.285-0.175
	c-0.189,0-0.311,0.075-0.311,0.209C31.193,23.201,32.438,22.874,32.438,23.766z"/>
<path fill="#006DAE" d="M32.887,21.692v-0.381c0-0.071,0.039-0.11,0.109-0.11h0.377c0.07,0,0.109,0.039,0.109,0.11v0.381
	c0,0.07-0.039,0.11-0.109,0.11h-0.377C32.926,21.802,32.887,21.763,32.887,21.692z M32.887,24.328v-2.092
	c0-0.071,0.039-0.11,0.109-0.11h0.377c0.07,0,0.109,0.039,0.109,0.11v2.092c0,0.07-0.039,0.11-0.109,0.11h-0.377
	C32.926,24.438,32.887,24.398,32.887,24.328z"/>
<path fill="#006DAE" d="M33.908,23.282c0-0.688,0.545-1.218,1.223-1.218s1.223,0.53,1.223,1.218c0,0.688-0.545,1.218-1.223,1.218
	S33.908,23.969,33.908,23.282z M35.758,23.282c0-0.375-0.273-0.638-0.627-0.638s-0.627,0.264-0.627,0.638s0.273,0.638,0.627,0.638
	S35.758,23.656,35.758,23.282z"/>
<path fill="#006DAE" d="M38.002,22.063c0.43,0,0.752,0.331,0.752,0.897v1.367c0,0.07-0.039,0.11-0.111,0.11h-0.375
	c-0.072,0-0.111-0.04-0.111-0.11v-1.322c0-0.265-0.156-0.39-0.365-0.39c-0.234,0-0.418,0.135-0.418,0.483v1.229
	c0,0.07-0.039,0.11-0.109,0.11h-0.377c-0.07,0-0.109-0.04-0.109-0.11v-2.092c0-0.071,0.039-0.11,0.109-0.11h0.377
	c0.07,0,0.109,0.039,0.109,0.11v0.127C37.502,22.168,37.715,22.063,38.002,22.063L38.002,22.063z"/>
<path fill="#006DAE" d="M42.568,23.44c0,0.695-0.547,1.06-1.156,1.06c-0.576,0-1.096-0.326-1.152-0.946
	c-0.004-0.075,0.039-0.114,0.109-0.114h0.42c0.066,0,0.1,0.036,0.113,0.103c0.043,0.208,0.225,0.337,0.51,0.337
	c0.334,0,0.52-0.179,0.52-0.44S41.746,23,41.412,23h-0.895c-0.07,0-0.111-0.042-0.105-0.114l0.113-1.579
	c0.004-0.066,0.047-0.105,0.113-0.105h1.668c0.07,0,0.111,0.039,0.111,0.11v0.376c0,0.071-0.041,0.11-0.111,0.11h-1.18l-0.041,0.583
	h0.359C42.057,22.38,42.568,22.745,42.568,23.44z"/>
<path fill="#006DAE" d="M42.9,24.328v-0.439c0-0.071,0.039-0.11,0.109-0.11h0.439c0.07,0,0.109,0.039,0.109,0.11v0.439
	c0,0.07-0.039,0.11-0.109,0.11H43.01C42.939,24.438,42.9,24.398,42.9,24.328z"/>
<path fill="#006DAE" d="M43.873,22.819c0-0.999,0.471-1.681,1.295-1.681c0.826,0,1.295,0.682,1.295,1.681S45.994,24.5,45.168,24.5
	C44.344,24.5,43.873,23.818,43.873,22.819z M45.828,22.819c0-0.684-0.227-1.061-0.66-1.061s-0.658,0.377-0.658,1.061
	s0.225,1.061,0.658,1.061S45.828,23.503,45.828,22.819z"/>
</svg>
