<?xml version="1.0" encoding="utf-8"?>
<!-- Generator: Adobe Illustrator 15.0.0, SVG Export Plug-In . SVG Version: 6.00 Build 0)  -->
<!DOCTYPE svg PUBLIC "-//W3C//DTD SVG 1.1//EN" "http://www.w3.org/Graphics/SVG/1.1/DTD/svg11.dtd" [
	<!ENTITY ns_flows "http://ns.adobe.com/Flows/1.0/">
	<!ENTITY ns_extend "http://ns.adobe.com/Extensibility/1.0/">
	<!ENTITY ns_ai "http://ns.adobe.com/AdobeIllustrator/10.0/">
	<!ENTITY ns_graphs "http://ns.adobe.com/Graphs/1.0/">
]>
<svg version="1.1" id="Layer_1" xmlns:x="&ns_extend;" xmlns:i="&ns_ai;" xmlns:graph="&ns_graphs;"
	 xmlns="http://www.w3.org/2000/svg" xmlns:xlink="http://www.w3.org/1999/xlink" xmlns:a="http://ns.adobe.com/AdobeSVGViewerExtensions/3.0/"
	 x="0px" y="0px" width="64px" height="64px" viewBox="0 0 64 64" enable-background="new 0 0 64 64" xml:space="preserve">
<rect x="15.056" y="12" fill="#C1CACF" width="38.89" height="50"/>
<rect x="48.5" y="41.5" fill="#F2F5F7" width="5" height="4"/>
<rect x="53.5" y="41.5" fill="#7AB51D" width="6" height="4"/>
<linearGradient id="SVGID_1_" gradientUnits="userSpaceOnUse" x1="6.0918" y1="19.3291" x2="56.909" y2="48.6685">
	<stop  offset="0" style="stop-color:#B9C2C7"/>
	<stop  offset="0.2824" style="stop-color:#C0C8CD"/>
	<stop  offset="0.6847" style="stop-color:#D2D9DD"/>
	<stop  offset="1" style="stop-color:#E6EBED"/>
	<a:midPointStop  offset="0" style="stop-color:#B9C2C7"/>
	<a:midPointStop  offset="0.6303" style="stop-color:#B9C2C7"/>
	<a:midPointStop  offset="1" style="stop-color:#E6EBED"/>
</linearGradient>
<rect x="12.057" y="8.999" fill="url(#SVGID_1_)" width="38.889" height="50"/>
<rect x="18.538" y="19.185" fill="#99A8AE" width="29.63" height="0.926"/>
<rect x="18.538" y="22.888" fill="#99A8AE" width="29.63" height="0.926"/>
<rect x="18.538" y="26.592" fill="#99A8AE" width="29.63" height="0.926"/>
<rect x="18.538" y="30.295" fill="#99A8AE" width="29.63" height="0.926"/>
<rect x="18.538" y="38.999" fill="#99A8AE" width="29.63" height="0.926"/>
<rect x="18.538" y="43.258" fill="#99A8AE" width="29.63" height="0.927"/>
<rect x="18.538" y="46.962" fill="#99A8AE" width="29.63" height="0.926"/>
<rect x="18.538" y="50.666" fill="#99A8AE" width="29.63" height="0.926"/>
<rect x="18.538" y="54.369" fill="#99A8AE" width="29.63" height="0.926"/>
<rect x="45.502" y="13.499" fill="#E6E9EB" width="5" height="4"/>
<rect x="50.502" y="13.499" fill="#E8000D" width="6" height="4"/>
<path fill="#E6EBEF" d="M44.5,52V20.085C44.5,14.704,33.285,2,30.222,2H4.5v50H44.5z"/>
<linearGradient id="SVGID_2_" gradientUnits="userSpaceOnUse" x1="42.6514" y1="9.9014" x2="30.2468" y2="18.1929">
	<stop  offset="0" style="stop-color:#4E5E67"/>
	<stop  offset="0.0407" style="stop-color:#5B6A72"/>
	<stop  offset="0.1948" style="stop-color:#859198"/>
	<stop  offset="0.3517" style="stop-color:#A8B1B7"/>
	<stop  offset="0.5098" style="stop-color:#C3CBD0"/>
	<stop  offset="0.6694" style="stop-color:#D7DDE1"/>
	<stop  offset="0.8315" style="stop-color:#E2E7EC"/>
	<stop  offset="1" style="stop-color:#E6EBEF"/>
	<a:midPointStop  offset="0" style="stop-color:#4E5E67"/>
	<a:midPointStop  offset="0.2848" style="stop-color:#4E5E67"/>
	<a:midPointStop  offset="1" style="stop-color:#E6EBEF"/>
</linearGradient>
<path fill="url(#SVGID_2_)" d="M30.222,2.012c2.872,0,14.278,11.338,14.278,18.073V38.25c0,0-44.566-5.725-34.288-36.25
	L30.222,2.012z"/>
<rect x="8.667" y="7.833" fill="#99A8AE" width="10" height="0.834"/>
<rect x="8.667" y="14.5" fill="#99A8AE" width="31.667" height="0.833"/>
<rect x="8.667" y="17.833" fill="#99A8AE" width="31.667" height="0.834"/>
<rect x="8.667" y="21.167" fill="#99A8AE" width="31.667" height="0.833"/>
<rect x="8.667" y="24.5" fill="#99A8AE" width="31.667" height="0.833"/>
<rect x="8.667" y="27.833" fill="#99A8AE" width="27.5" height="0.834"/>
<rect x="8.667" y="34.5" fill="#99A8AE" width="17.5" height="0.833"/>
<rect x="8.667" y="37.833" fill="#99A8AE" width="31.667" height="0.834"/>
<rect x="8.667" y="41.167" fill="#99A8AE" width="31.667" height="0.833"/>
<rect x="8.667" y="44.5" fill="#99A8AE" width="10.833" height="0.833"/>
<rect x="8.667" y="47.833" fill="#99A8AE" width="5" height="0.834"/>
<linearGradient id="SVGID_3_" gradientUnits="userSpaceOnUse" x1="548.4326" y1="114.4551" x2="542.1481" y2="108.1705" gradientTransform="matrix(0 -1 1 0 -74.9365 557.3223)">
	<stop  offset="0" style="stop-color:#D3D7DB"/>
	<stop  offset="0.0202" style="stop-color:#D6DADE"/>
	<stop  offset="0.159" style="stop-color:#E9EBED"/>
	<stop  offset="0.324" style="stop-color:#F5F6F7"/>
	<stop  offset="0.5403" style="stop-color:#FDFDFD"/>
	<stop  offset="1" style="stop-color:#FFFFFF"/>
	<a:midPointStop  offset="0" style="stop-color:#D3D7DB"/>
	<a:midPointStop  offset="0.1636" style="stop-color:#D3D7DB"/>
	<a:midPointStop  offset="1" style="stop-color:#FFFFFF"/>
</linearGradient>
<path fill="url(#SVGID_3_)" d="M30.222,2.012c3.827,0,14.278,10.783,14.278,18.073c0,0-1.146-6.942-11.84-5.484
	C33.979,6.268,31.531,2.204,30.222,2.012z"/>
<rect x="38.5" y="31.999" fill="#FFFFFF" width="5" height="4"/>
<rect x="43.5" y="31.999" fill="#0FB4D4" width="6" height="4"/>
</svg>
