<?xml version="1.0" encoding="utf-8"?>
<!-- Generator: Adobe Illustrator 19.0.0, SVG Export Plug-In . SVG Version: 6.00 Build 0)  -->
<svg version="1.1" id="Layer_1" xmlns="http://www.w3.org/2000/svg" xmlns:xlink="http://www.w3.org/1999/xlink" x="0px" y="0px"
	 width="64px" height="64px" viewBox="0 0 64 64" enable-background="new 0 0 64 64" xml:space="preserve">
<radialGradient id="SVGID_1_" cx="37.7397" cy="49.4789" r="9.1848" gradientUnits="userSpaceOnUse">
	<stop  offset="0.0033" style="stop-color:#464253"/>
	<stop  offset="0.3569" style="stop-color:#312D3D"/>
	<stop  offset="0.5916" style="stop-color:#211D2D"/>
	<stop  offset="0.9065" style="stop-color:#1A1626"/>
</radialGradient>
<polygon fill="url(#SVGID_1_)" points="42.568,60 47.574,53.246 34.849,41.41 25.151,43.801 "/>
<radialGradient id="SVGID_2_" cx="58.8921" cy="31.4844" r="6.3588" gradientTransform="matrix(1 0 0 2 0 -31.4844)" gradientUnits="userSpaceOnUse">
	<stop  offset="0.0818" style="stop-color:#E1E3E7"/>
	<stop  offset="0.2147" style="stop-color:#D9E0E4"/>
	<stop  offset="0.3952" style="stop-color:#D6DDE1"/>
	<stop  offset="0.6287" style="stop-color:#C2CACD"/>
	<stop  offset="0.7669" style="stop-color:#A2AAAD"/>
	<stop  offset="1" style="stop-color:#A2AAAD"/>
</radialGradient>
<path fill="url(#SVGID_2_)" d="M56.396,39.92c7.472,0,7.472-16.872,0-16.872l-0.612-0.002v16.877L56.396,39.92z"/>
<radialGradient id="SVGID_3_" cx="52.7907" cy="31.4829" r="7.7148" gradientUnits="userSpaceOnUse">
	<stop  offset="0" style="stop-color:#8F999D"/>
	<stop  offset="0.319" style="stop-color:#78848A"/>
	<stop  offset="0.8589" style="stop-color:#4E5E67"/>
</radialGradient>
<path fill="url(#SVGID_3_)" d="M55.784,39.92c5.233,0.005,5.231-16.872,0-16.874l-9.911,0.002V39.92H55.784z"/>
<radialGradient id="SVGID_4_" cx="50.3371" cy="31.4844" r="6.7504" gradientTransform="matrix(1 0 0 2 0 -31.4844)" gradientUnits="userSpaceOnUse">
	<stop  offset="0.0818" style="stop-color:#E1E3E7"/>
	<stop  offset="0.2147" style="stop-color:#D9E0E4"/>
	<stop  offset="0.3952" style="stop-color:#D6DDE1"/>
	<stop  offset="0.6287" style="stop-color:#C2CACD"/>
	<stop  offset="0.7669" style="stop-color:#A2AAAD"/>
	<stop  offset="1" style="stop-color:#A2AAAD"/>
</radialGradient>
<path fill="url(#SVGID_4_)" d="M50.879,39.923c5.232-0.003,5.229-16.875,0-16.877h-5.006V39.92L50.879,39.923z"/>
<radialGradient id="SVGID_5_" cx="37.1573" cy="31.4844" r="21.0808" gradientUnits="userSpaceOnUse">
	<stop  offset="0" style="stop-color:#FF3B3B"/>
	<stop  offset="0.1564" style="stop-color:#FB3737"/>
	<stop  offset="0.3184" style="stop-color:#F02B2A"/>
	<stop  offset="0.4823" style="stop-color:#DD1616"/>
	<stop  offset="0.6115" style="stop-color:#C90100"/>
	<stop  offset="0.9366" style="stop-color:#981317"/>
</radialGradient>
<path fill="url(#SVGID_5_)" d="M45.873,39.92c6.412-1.294,6.412-15.575,0-16.872c-7.081-1.431-22.24-18.132-22.24-18.132v53.137
	C23.633,58.053,38.792,41.353,45.873,39.92z"/>
<radialGradient id="SVGID_6_" cx="20.8399" cy="31.4844" r="21.7216" gradientTransform="matrix(1 0 0 2 0 -31.4844)" gradientUnits="userSpaceOnUse">
	<stop  offset="0.4499" style="stop-color:#C90100"/>
	<stop  offset="0.5233" style="stop-color:#DD1616"/>
	<stop  offset="0.6165" style="stop-color:#F02B2A"/>
	<stop  offset="0.7086" style="stop-color:#FB3737"/>
	<stop  offset="0.7975" style="stop-color:#FF3B3B"/>
</radialGradient>
<path fill="url(#SVGID_6_)" d="M20.185,58.969C2.764,58.969,2.764,4,20.185,4C39.352,4,39.352,58.969,20.185,58.969z"/>
<linearGradient id="SVGID_7_" gradientUnits="userSpaceOnUse" x1="8.5268" y1="12.116" x2="30.7878" y2="50.6733">
	<stop  offset="0" style="stop-color:#F83333"/>
	<stop  offset="0.0738" style="stop-color:#F32E2E"/>
	<stop  offset="0.1627" style="stop-color:#E6201F"/>
	<stop  offset="0.2592" style="stop-color:#CF0807"/>
	<stop  offset="0.2822" style="stop-color:#C90100"/>
	<stop  offset="0.6953" style="stop-color:#941C1F"/>
	<stop  offset="0.9223" style="stop-color:#700D0E"/>
</linearGradient>
<path fill="url(#SVGID_7_)" d="M29.844,20.512c-0.29-1.697-1.428-7.285-4.717-10.879c-0.054-0.061-0.437-0.457-0.431-0.447
	c-1.519-1.538-3.312-2.437-5.386-2.437c-4.896,0-8.046,6.282-9.453,14.366l-0.001,0c-0.001,0.006-0.001,0.011-0.002,0.017
	c-0.372,2.142-0.772,8.232-0.693,8.847c-0.704,20.212,5.97,26.243,10.152,26.243c5.386,0,8.896-5.979,10.537-13.776
	C24.373,37.462,23.623,26.009,29.844,20.512z"/>
<linearGradient id="SVGID_8_" gradientUnits="userSpaceOnUse" x1="17.8586" y1="26.0752" x2="19.5253" y2="40.7419">
	<stop  offset="0" style="stop-color:#545061"/>
	<stop  offset="0.1791" style="stop-color:#464253"/>
	<stop  offset="0.4592" style="stop-color:#312D3D"/>
	<stop  offset="0.7" style="stop-color:#211D2D"/>
	<stop  offset="0.9065" style="stop-color:#1A1626"/>
</linearGradient>
<path fill="url(#SVGID_8_)" d="M29.827,20.385c0,0,0.738,3.904,0.738,11.097c0,7.325-0.738,11.1-0.738,11.1L6.624,38.677V24.289
	L29.827,20.385z"/>
<radialGradient id="SVGID_9_" cx="9.7397" cy="31.6872" r="11.5027" gradientUnits="userSpaceOnUse">
	<stop  offset="0.2188" style="stop-color:#FF3B3B"/>
	<stop  offset="0.3392" style="stop-color:#FB3737"/>
	<stop  offset="0.4638" style="stop-color:#F02A2A"/>
	<stop  offset="0.5787" style="stop-color:#DF1818"/>
	<stop  offset="1" style="stop-color:#C90100"/>
</radialGradient>
<ellipse fill="url(#SVGID_9_)" cx="6.623" cy="31.482" rx="4.623" ry="7.194"/>
<linearGradient id="SVGID_10_" gradientUnits="userSpaceOnUse" x1="39.6858" y1="31.5529" x2="54.1142" y2="56.5436">
	<stop  offset="0" style="stop-color:#78848A"/>
	<stop  offset="0.5378" style="stop-color:#4E5E67"/>
</linearGradient>
<polygon fill="url(#SVGID_10_)" points="42.568,60 52.266,57.61 52.266,29.889 42.568,29.889 "/>
<radialGradient id="SVGID_11_" cx="47.4183" cy="35.0937" r="2.8079" gradientUnits="userSpaceOnUse">
	<stop  offset="0.5419" style="stop-color:#F1E9E8"/>
	<stop  offset="0.7832" style="stop-color:#D9E0E4"/>
	<stop  offset="1" style="stop-color:#C2CACD"/>
</radialGradient>
<path fill="url(#SVGID_11_)" d="M50.232,35.078c-0.01,1.548-1.275,2.807-2.829,2.817c-1.554,0.008-2.806-1.24-2.799-2.785
	c0.01-1.551,1.275-2.809,2.829-2.818C48.99,32.283,50.241,33.529,50.232,35.078z"/>
<linearGradient id="SVGID_12_" gradientUnits="userSpaceOnUse" x1="45.3698" y1="35.0939" x2="49.4666" y2="35.0939">
	<stop  offset="0" style="stop-color:#A2AAAD"/>
	<stop  offset="0.2168" style="stop-color:#78848A"/>
	<stop  offset="0.4315" style="stop-color:#4E5E67"/>
	<stop  offset="0.9673" style="stop-color:#39474E"/>
</linearGradient>
<path fill="url(#SVGID_12_)" d="M45.418,37.086c-0.529-0.524,3.476-4.509,4.001-3.984C49.946,33.625,45.945,37.612,45.418,37.086z"
	/>
</svg>
