<?xml version="1.0" encoding="utf-8"?>
<!-- Generator: Adobe Illustrator 15.0.0, SVG Export Plug-In . SVG Version: 6.00 Build 0)  -->
<!DOCTYPE svg PUBLIC "-//W3C//DTD SVG 1.1//EN" "http://www.w3.org/Graphics/SVG/1.1/DTD/svg11.dtd" [
	<!ENTITY ns_flows "http://ns.adobe.com/Flows/1.0/">
	<!ENTITY ns_extend "http://ns.adobe.com/Extensibility/1.0/">
	<!ENTITY ns_ai "http://ns.adobe.com/AdobeIllustrator/10.0/">
	<!ENTITY ns_graphs "http://ns.adobe.com/Graphs/1.0/">
]>
<svg version="1.1" id="Layer_1" xmlns:x="&ns_extend;" xmlns:i="&ns_ai;" xmlns:graph="&ns_graphs;"
	 xmlns="http://www.w3.org/2000/svg" xmlns:xlink="http://www.w3.org/1999/xlink" xmlns:a="http://ns.adobe.com/AdobeSVGViewerExtensions/3.0/"
	 x="0px" y="0px" width="64px" height="64px" viewBox="0 0 64 64" enable-background="new 0 0 64 64" xml:space="preserve">
<linearGradient id="SVGID_1_" gradientUnits="userSpaceOnUse" x1="26.9995" y1="52" x2="41" y2="52">
	<stop  offset="0.1697" style="stop-color:#9E6C48"/>
	<stop  offset="0.348" style="stop-color:#996948"/>
	<stop  offset="0.55" style="stop-color:#8C6148"/>
	<stop  offset="0.7394" style="stop-color:#785647"/>
	<a:midPointStop  offset="0.1697" style="stop-color:#9E6C48"/>
	<a:midPointStop  offset="0.6809" style="stop-color:#9E6C48"/>
	<a:midPointStop  offset="0.7394" style="stop-color:#785647"/>
</linearGradient>
<rect x="27" y="42" fill="url(#SVGID_1_)" width="14" height="20"/>
<radialGradient id="SVGID_2_" cx="30.6416" cy="13.7095" r="11.3679" gradientTransform="matrix(-0.0878 -0.9737 4.9807 -0.4291 -34.9507 53.2923)" gradientUnits="userSpaceOnUse">
	<stop  offset="0" style="stop-color:#ABBDC5"/>
	<stop  offset="0.2599" style="stop-color:#A7B8C0"/>
	<stop  offset="0.5664" style="stop-color:#9AAAB2"/>
	<stop  offset="0.8952" style="stop-color:#86949A"/>
	<stop  offset="1" style="stop-color:#7E8B91"/>
	<a:midPointStop  offset="0" style="stop-color:#ABBDC5"/>
	<a:midPointStop  offset="0.6727" style="stop-color:#ABBDC5"/>
	<a:midPointStop  offset="1" style="stop-color:#7E8B91"/>
</radialGradient>
<path fill="url(#SVGID_2_)" d="M45.816,6C36.879,6,17.13,7.027,17.13,7.027L33.314,49L62,42.938V20.725C62,12.025,54.754,6,45.816,6
	z"/>
<path fill="#687A82" d="M36.986,48.342C36.109,48.78,33.314,49,33.314,49s-0.51-3.583,0-6.875c0.613,2.354,2.252,0.987,3.676,1.761
	C38.631,44.776,38.396,47.636,36.986,48.342z"/>
<path fill="#6E8189" d="M17.13,7.027C8.193,7.027,2,14.082,2,22.781v23.824L33.314,49V22.781
	C33.314,14.082,26.068,7.027,17.13,7.027z"/>
<linearGradient id="SVGID_3_" gradientUnits="userSpaceOnUse" x1="17.3726" y1="48.3242" x2="17.3726" y2="7.7036">
	<stop  offset="0" style="stop-color:#7E8B91"/>
	<stop  offset="0.1472" style="stop-color:#859399"/>
	<stop  offset="1" style="stop-color:#ABBDC5"/>
	<a:midPointStop  offset="0" style="stop-color:#7E8B91"/>
	<a:midPointStop  offset="0.4788" style="stop-color:#7E8B91"/>
	<a:midPointStop  offset="1" style="stop-color:#ABBDC5"/>
</linearGradient>
<path fill="url(#SVGID_3_)" d="M16.845,7.703c-8.627,0-14.568,6.836-14.568,15.27v23.295l30.191,2.057V22.973
	C32.468,14.539,25.474,7.703,16.845,7.703z"/>
<linearGradient id="SVGID_4_" gradientUnits="userSpaceOnUse" x1="572.7656" y1="346.3828" x2="572.7656" y2="353.5566" gradientTransform="matrix(-1 0 0 -1 590.4238 361.4414)">
	<stop  offset="0" style="stop-color:#1A1626;stop-opacity:0"/>
	<stop  offset="0.9394" style="stop-color:#1A1626;stop-opacity:0.15"/>
	<a:midPointStop  offset="0" style="stop-color:#1A1626;stop-opacity:0"/>
	<a:midPointStop  offset="0.4606" style="stop-color:#1A1626;stop-opacity:0"/>
	<a:midPointStop  offset="0.9394" style="stop-color:#1A1626;stop-opacity:0.15"/>
</linearGradient>
<path fill="url(#SVGID_4_)" d="M19.494,12.791c0-1.688,0-4.906,0-4.906l-3.672,0.811c0,0,0,2.221,0,4.096
	C15.822,15.814,19.494,15.814,19.494,12.791z"/>
<radialGradient id="SVGID_5_" cx="574.0596" cy="350.8477" r="2.8891" gradientTransform="matrix(0.0287 -0.9996 9.9959 0.2871 -3507.1455 483.701)" gradientUnits="userSpaceOnUse">
	<stop  offset="0.0909" style="stop-color:#6E8189"/>
	<stop  offset="0.2659" style="stop-color:#677880"/>
	<stop  offset="0.5561" style="stop-color:#555E69"/>
	<stop  offset="0.9236" style="stop-color:#373544"/>
	<stop  offset="1" style="stop-color:#302C3B"/>
	<a:midPointStop  offset="0.0909" style="stop-color:#6E8189"/>
	<a:midPointStop  offset="0.596" style="stop-color:#6E8189"/>
	<a:midPointStop  offset="1" style="stop-color:#302C3B"/>
</radialGradient>
<path fill="url(#SVGID_5_)" d="M15.884,13.68c1.049,0,1.771-0.832,1.771-1.855c0-1.688,0.828-3.906,1.82-3.906
	c0,0-2.188-0.412-3.523-0.189c-0.986,0.164-1.969,2.221-1.969,4.096C13.984,12.848,14.835,13.68,15.884,13.68z"/>
<radialGradient id="SVGID_6_" cx="35.6309" cy="67.335" r="1.5775" gradientTransform="matrix(1 0 0 1.1667 0 -32.796)" gradientUnits="userSpaceOnUse">
	<stop  offset="0.0909" style="stop-color:#CFD8DD"/>
	<stop  offset="0.5899" style="stop-color:#A0ABB0"/>
	<stop  offset="1" style="stop-color:#7E8A8F"/>
	<a:midPointStop  offset="0.0909" style="stop-color:#CFD8DD"/>
	<a:midPointStop  offset="0.4727" style="stop-color:#CFD8DD"/>
	<a:midPointStop  offset="1" style="stop-color:#7E8A8F"/>
</radialGradient>
<path fill="url(#SVGID_6_)" d="M37.078,46.171c0,1.999-2.572,1.999-2.572,0C34.506,44.17,37.078,44.17,37.078,46.171z"/>
<linearGradient id="SVGID_7_" gradientUnits="userSpaceOnUse" x1="18.1084" y1="40.7881" x2="16.0348" y2="29.0281">
	<stop  offset="0" style="stop-color:#ABBDC5"/>
	<stop  offset="1" style="stop-color:#6E8189"/>
	<a:midPointStop  offset="0" style="stop-color:#ABBDC5"/>
	<a:midPointStop  offset="0.5" style="stop-color:#ABBDC5"/>
	<a:midPointStop  offset="1" style="stop-color:#6E8189"/>
</linearGradient>
<path fill="url(#SVGID_7_)" d="M27.164,39.18L27.164,39.18l-0.047-0.002l-20.191-1.36c-0.402-0.027-0.732-0.378-0.732-0.782v-5.661
	c0-0.401,0.326-0.728,0.727-0.728l20.225,0.966c0.406,0.02,0.736,0.366,0.736,0.773v6.076c0,0.194-0.074,0.376-0.209,0.511
	C27.537,39.106,27.357,39.18,27.164,39.18z M6.931,31.147c-0.139,0-0.238,0.1-0.238,0.227v5.661c0,0.145,0.123,0.274,0.268,0.284
	l20.188,1.36l0.016,0.25v-0.25l0,0c0.061,0,0.115-0.021,0.154-0.062c0.041-0.04,0.063-0.096,0.063-0.156v-6.076
	c0-0.142-0.119-0.268-0.26-0.273L6.931,31.147L6.931,31.147z"/>
<path fill="#6E8189" d="M13.443,23.037l-0.01,5.836c0,0.119-0.066,0.182-0.191,0.176l-0.443-0.021
	c-0.121-0.007-0.188-0.075-0.188-0.195l0.002-4.631l-1.652,3.577c-0.043,0.099-0.111,0.134-0.213,0.129l-0.395-0.017
	c-0.104-0.003-0.17-0.047-0.213-0.146l-1.635-3.632l0.031,4.534c0.002,0.117-0.063,0.179-0.178,0.173l-0.424-0.019
	c-0.115-0.006-0.178-0.073-0.18-0.19l-0.047-5.67c-0.002-0.118,0.061-0.183,0.18-0.181l0.426,0.007l0.193,0.003
	c0.102,0.001,0.168,0.04,0.211,0.144l1.828,4.064l1.836-4.005c0.045-0.104,0.115-0.142,0.219-0.141l0.391,0.006l0.26,0.004
	C13.376,22.845,13.443,22.915,13.443,23.037z"/>
<path fill="#6E8189" d="M19.75,29.352l-0.52-0.025c-0.111-0.004-0.191-0.062-0.23-0.167l-0.48-1.276l-2.896-0.115l-0.438,1.217
	c-0.035,0.098-0.111,0.148-0.217,0.144l-0.496-0.023c-0.141-0.008-0.203-0.093-0.158-0.222l2.146-5.833
	c0.035-0.099,0.115-0.156,0.225-0.154l0.643,0.01c0.109,0.004,0.191,0.063,0.23,0.162l2.354,6.071
	C19.962,29.277,19.898,29.357,19.75,29.352z M18.218,27.085l-1.201-3.188L15.9,27.001L18.218,27.085z"/>
<path fill="#6E8189" d="M20.974,22.963l0.486,0.007c0.135,0.002,0.209,0.075,0.209,0.201l0.018,6.076
	c0,0.127-0.072,0.191-0.207,0.185L21,29.409c-0.133-0.006-0.205-0.079-0.205-0.202l-0.027-6.05
	C20.767,23.029,20.839,22.96,20.974,22.963z"/>
<path fill="#6E8189" d="M27.087,29.068l-0.002,0.427c-0.002,0.129-0.078,0.195-0.217,0.188l-3.221-0.15l-0.283-0.013
	c-0.135-0.006-0.209-0.078-0.209-0.204v-6.12c0-0.128,0.074-0.198,0.211-0.195l0.5,0.006c0.137,0.003,0.211,0.075,0.211,0.205
	l-0.008,5.527l2.803,0.121C27.013,28.865,27.089,28.938,27.087,29.068z"/>
<linearGradient id="SVGID_8_" gradientUnits="userSpaceOnUse" x1="-359.8916" y1="361.2754" x2="-359.8916" y2="336.5391" gradientTransform="matrix(-4.371139e-008 1 -1 -4.371139e-008 396.8785 393.6823)">
	<stop  offset="0" style="stop-color:#CF0000"/>
	<stop  offset="1" style="stop-color:#FF000E"/>
	<a:midPointStop  offset="0" style="stop-color:#CF0000"/>
	<a:midPointStop  offset="0.5" style="stop-color:#CF0000"/>
	<a:midPointStop  offset="1" style="stop-color:#FF000E"/>
</linearGradient>
<path fill="url(#SVGID_8_)" d="M60.34,40.001V26.197l-22.736,4.071c-2.666,0-2.666,4,0,4l16.674-3.166v10.281L60.34,40.001z"/>
<polygon fill="#1A1626" points="41.129,28.904 34.779,36.249 34,36.386 34,29.44 41.129,28.472 "/>
<linearGradient id="SVGID_9_" gradientUnits="userSpaceOnUse" x1="38.6045" y1="35.6436" x2="37.6086" y2="29.3557">
	<stop  offset="0.8303" style="stop-color:#302C3B"/>
	<stop  offset="0.8747" style="stop-color:#343240"/>
	<stop  offset="0.9346" style="stop-color:#3E434F"/>
	<stop  offset="1" style="stop-color:#4E5E67"/>
	<a:midPointStop  offset="0.8303" style="stop-color:#302C3B"/>
	<a:midPointStop  offset="0.6429" style="stop-color:#302C3B"/>
	<a:midPointStop  offset="1" style="stop-color:#4E5E67"/>
</linearGradient>
<polygon fill="url(#SVGID_9_)" points="41.129,28.904 34.482,29.851 34.773,30.147 34.779,36.249 41.518,35.073 41.494,29.132 "/>
</svg>
