<?xml version="1.0" encoding="utf-8"?>
<!-- Generator: Adobe Illustrator 15.0.0, SVG Export Plug-In . SVG Version: 6.00 Build 0)  -->
<!DOCTYPE svg PUBLIC "-//W3C//DTD SVG 1.1//EN" "http://www.w3.org/Graphics/SVG/1.1/DTD/svg11.dtd" [
	<!ENTITY ns_flows "http://ns.adobe.com/Flows/1.0/">
	<!ENTITY ns_extend "http://ns.adobe.com/Extensibility/1.0/">
	<!ENTITY ns_ai "http://ns.adobe.com/AdobeIllustrator/10.0/">
	<!ENTITY ns_graphs "http://ns.adobe.com/Graphs/1.0/">
]>
<svg version="1.1" id="Layer_1" xmlns:x="&ns_extend;" xmlns:i="&ns_ai;" xmlns:graph="&ns_graphs;"
	 xmlns="http://www.w3.org/2000/svg" xmlns:xlink="http://www.w3.org/1999/xlink" xmlns:a="http://ns.adobe.com/AdobeSVGViewerExtensions/3.0/"
	 x="0px" y="0px" width="64px" height="64px" viewBox="0 0 64 64" enable-background="new 0 0 64 64" xml:space="preserve">
<polygon fill="#C2906D" points="52.428,26.288 56.305,45.329 7.696,45.329 11.574,26.288 "/>
<radialGradient id="SVGID_1_" cx="68.2773" cy="34.9893" r="17.1056" gradientTransform="matrix(0.8667 0 0 9.9997 -27.1737 -314.8847)" gradientUnits="userSpaceOnUse">
	<stop  offset="0" style="stop-color:#D6A57C"/>
	<stop  offset="0.5336" style="stop-color:#D3A27A"/>
	<stop  offset="0.9308" style="stop-color:#CB9973"/>
	<stop  offset="1" style="stop-color:#C99671"/>
	<a:midPointStop  offset="0" style="stop-color:#D6A57C"/>
	<a:midPointStop  offset="0.7636" style="stop-color:#D6A57C"/>
	<a:midPointStop  offset="1" style="stop-color:#C99671"/>
</radialGradient>
<rect x="12.441" y="26.288" fill="url(#SVGID_1_)" width="39.12" height="17.416"/>
<radialGradient id="SVGID_2_" cx="68.2773" cy="56.1533" r="21.5662" gradientTransform="matrix(0.8667 0 0 1 -27.1737 0.0084)" gradientUnits="userSpaceOnUse">
	<stop  offset="0" style="stop-color:#C99671"/>
	<stop  offset="0.4246" style="stop-color:#C7936E"/>
	<stop  offset="0.7406" style="stop-color:#BF8A65"/>
	<stop  offset="1" style="stop-color:#B47D56"/>
	<a:midPointStop  offset="0" style="stop-color:#C99671"/>
	<a:midPointStop  offset="0.7636" style="stop-color:#C99671"/>
	<a:midPointStop  offset="1" style="stop-color:#B47D56"/>
</radialGradient>
<polygon fill="url(#SVGID_2_)" points="51.561,41.704 12.441,41.704 9.43,56.117 54.57,56.117 "/>
<path fill="#D6A57C" d="M43.297,45.921C42.131,55.674,32,56.117,32,56.117s-10.129-0.443-11.295-10.196H6V62h52V45.921H43.297z"/>
<linearGradient id="SVGID_3_" gradientUnits="userSpaceOnUse" x1="32.0005" y1="56.1172" x2="32.0005" y2="26.0015">
	<stop  offset="0" style="stop-color:#FED0AC"/>
	<stop  offset="0.5882" style="stop-color:#FEDEC6"/>
	<stop  offset="1" style="stop-color:#FEE5D3"/>
	<a:midPointStop  offset="0" style="stop-color:#FED0AC"/>
	<a:midPointStop  offset="0.4303" style="stop-color:#FED0AC"/>
	<a:midPointStop  offset="1" style="stop-color:#FEE5D3"/>
</linearGradient>
<path fill="url(#SVGID_3_)" d="M53.729,26.001H10.274L6,45.921h14.705C20.705,56.35,32,56.117,32,56.117s11.297,0.232,11.297-10.196
	H58L53.729,26.001z M42.666,44.329C42.666,55.473,32,55,32,55s-10.664,0.473-10.664-10.671H9.43l3.011-17.041h39.12l3.01,17.041
	H42.666z"/>
<linearGradient id="SVGID_4_" gradientUnits="userSpaceOnUse" x1="42" y1="31.9995" x2="22.0008" y2="12.0003" gradientTransform="matrix(-1 0 0 -1 64.001 36)">
	<stop  offset="0" style="stop-color:#FF000E"/>
	<stop  offset="1" style="stop-color:#CF0000"/>
	<a:midPointStop  offset="0" style="stop-color:#FF000E"/>
	<a:midPointStop  offset="0.5" style="stop-color:#FF000E"/>
	<a:midPointStop  offset="1" style="stop-color:#CF0000"/>
</linearGradient>
<polygon fill="url(#SVGID_4_)" points="32,34 46.001,18 40.001,18 40.001,2 24.001,2 24.001,18 18.001,18 "/>
</svg>
