<?xml version="1.0" encoding="utf-8"?>
<!-- Generator: Adobe Illustrator 15.0.0, SVG Export Plug-In . SVG Version: 6.00 Build 0)  -->
<!DOCTYPE svg PUBLIC "-//W3C//DTD SVG 1.1//EN" "http://www.w3.org/Graphics/SVG/1.1/DTD/svg11.dtd" [
	<!ENTITY ns_flows "http://ns.adobe.com/Flows/1.0/">
	<!ENTITY ns_extend "http://ns.adobe.com/Extensibility/1.0/">
	<!ENTITY ns_ai "http://ns.adobe.com/AdobeIllustrator/10.0/">
	<!ENTITY ns_graphs "http://ns.adobe.com/Graphs/1.0/">
]>
<svg version="1.1" id="Layer_1" xmlns:x="&ns_extend;" xmlns:i="&ns_ai;" xmlns:graph="&ns_graphs;"
	 xmlns="http://www.w3.org/2000/svg" xmlns:xlink="http://www.w3.org/1999/xlink" xmlns:a="http://ns.adobe.com/AdobeSVGViewerExtensions/3.0/"
	 x="0px" y="0px" width="64px" height="64px" viewBox="0 0 64 64" enable-background="new 0 0 64 64" xml:space="preserve">
<linearGradient id="SVGID_1_" gradientUnits="userSpaceOnUse" x1="45.3428" y1="62" x2="45.3428" y2="16.1846">
	<stop  offset="0" style="stop-color:#B3815D"/>
	<stop  offset="0.2175" style="stop-color:#BF8C66"/>
	<stop  offset="0.6874" style="stop-color:#D49E75"/>
	<stop  offset="1" style="stop-color:#DBA57B"/>
	<a:midPointStop  offset="0" style="stop-color:#B3815D"/>
	<a:midPointStop  offset="0.3818" style="stop-color:#B3815D"/>
	<a:midPointStop  offset="1" style="stop-color:#DBA57B"/>
</linearGradient>
<path fill="url(#SVGID_1_)" d="M31.9,31.561C29.167,36.025,31.9,62,31.9,62c2.081,0,25.53-15.406,26.282-16.238
	c0.91-1.012,2.553-28.359,1.453-29.578C59.635,16.184,35.885,25.055,31.9,31.561z"/>
<linearGradient id="SVGID_2_" gradientUnits="userSpaceOnUse" x1="31.9004" y1="31.561" x2="31.9004" y2="2.0005">
	<stop  offset="0" style="stop-color:#EBB68D"/>
	<stop  offset="0.3182" style="stop-color:#E4AF87"/>
	<stop  offset="0.7963" style="stop-color:#CF9C77"/>
	<stop  offset="1" style="stop-color:#C4926E"/>
	<a:midPointStop  offset="0" style="stop-color:#EBB68D"/>
	<a:midPointStop  offset="0.6182" style="stop-color:#EBB68D"/>
	<a:midPointStop  offset="1" style="stop-color:#C4926E"/>
</linearGradient>
<path fill="url(#SVGID_2_)" d="M31.9,2C30.685,2,5.556,14.627,4.166,16.168c0,0,8.891,14.023,27.734,15.393l27.735-15.377
	C57.863,14.217,33.219,2,31.9,2z"/>
<path fill="#9E6C49" d="M31.9,31.561l27.735-15.377C56.65,17.276,39.297,26.62,31.9,31.561z"/>
<linearGradient id="SVGID_3_" gradientUnits="userSpaceOnUse" x1="8.2461" y1="48.8721" x2="28.7284" y2="28.3898">
	<stop  offset="0" style="stop-color:#E0B18B"/>
	<stop  offset="0.3523" style="stop-color:#E6B690"/>
	<stop  offset="0.8155" style="stop-color:#F6C49C"/>
	<stop  offset="1" style="stop-color:#FFCBA3"/>
	<a:midPointStop  offset="0" style="stop-color:#E0B18B"/>
	<a:midPointStop  offset="0.6485" style="stop-color:#E0B18B"/>
	<a:midPointStop  offset="1" style="stop-color:#FFCBA3"/>
</linearGradient>
<path fill="url(#SVGID_3_)" d="M4.166,16.168c-0.701,0.775,1.008,29.562,1.65,30.273C6.271,46.945,29.351,62,31.9,62V31.561
	L4.166,16.168z"/>
<linearGradient id="SVGID_4_" gradientUnits="userSpaceOnUse" x1="16.5952" y1="15.2954" x2="50.0303" y2="15.2954">
	<stop  offset="0" style="stop-color:#785647"/>
	<stop  offset="0.2003" style="stop-color:#7F5C4B"/>
	<stop  offset="0.5021" style="stop-color:#946C55"/>
	<stop  offset="0.8662" style="stop-color:#B68767"/>
	<stop  offset="1" style="stop-color:#C4926E"/>
	<a:midPointStop  offset="0" style="stop-color:#785647"/>
	<a:midPointStop  offset="0.6182" style="stop-color:#785647"/>
	<a:midPointStop  offset="1" style="stop-color:#C4926E"/>
</linearGradient>
<path fill="url(#SVGID_4_)" d="M50.027,21.047c-11.984-6.678-28-14.51-28-14.51l-5.432,2.734c0,0,15.205,7.51,27.991,14.781
	C46.115,24.038,50.158,22.682,50.027,21.047z"/>
<path opacity="0.1" fill="#1A1626" d="M19.494,7.813c0,0,15.129,7.549,27.913,14.82C34.748,15.016,19.494,7.813,19.494,7.813z"/>
<linearGradient id="SVGID_5_" gradientUnits="userSpaceOnUse" x1="47.4072" y1="35.3027" x2="47.4072" y2="21.0479">
	<stop  offset="0" style="stop-color:#785647"/>
	<stop  offset="0.1593" style="stop-color:#896450"/>
	<stop  offset="0.5078" style="stop-color:#A97D60"/>
	<stop  offset="0.8005" style="stop-color:#BD8C6A"/>
	<stop  offset="1" style="stop-color:#C4926E"/>
	<a:midPointStop  offset="0" style="stop-color:#785647"/>
	<a:midPointStop  offset="0.3758" style="stop-color:#785647"/>
	<a:midPointStop  offset="1" style="stop-color:#C4926E"/>
</linearGradient>
<path fill="url(#SVGID_5_)" d="M50.027,21.047c0,0-2.467,1.676-5.441,3.006c0.176,4.898,0.031,11.25,0.031,11.25l5.449-3.375
	C50.066,31.927,50.457,26.62,50.027,21.047z"/>
<linearGradient id="SVGID_6_" gradientUnits="userSpaceOnUse" x1="48.0361" y1="52.4277" x2="46.2028" y2="47.1769">
	<stop  offset="0" style="stop-color:#785647"/>
	<stop  offset="0.2003" style="stop-color:#7F5C4B"/>
	<stop  offset="0.5021" style="stop-color:#946C55"/>
	<stop  offset="0.8662" style="stop-color:#B68767"/>
	<stop  offset="1" style="stop-color:#C4926E"/>
	<a:midPointStop  offset="0" style="stop-color:#785647"/>
	<a:midPointStop  offset="0.6182" style="stop-color:#785647"/>
	<a:midPointStop  offset="1" style="stop-color:#C4926E"/>
</linearGradient>
<path fill="url(#SVGID_6_)" d="M50.229,46.439c0,0-2.268,1.406-5.34,3.229c-0.034,3.02-0.307,5.133-0.307,5.133l5.484-3.523
	C50.066,51.277,50.289,49.252,50.229,46.439z"/>
<polygon fill="#F2F5F7" points="5.925,19.731 12.162,23.217 12.476,34.385 6.24,30.893 "/>
<polygon fill="#4E5E67" points="6.708,24.838 6.708,25.18 11.662,27.953 11.662,27.607 "/>
<polygon fill="#4E5E67" points="7.056,30.429 6.927,25.874 6.693,25.739 6.822,30.294 "/>
<polygon fill="#4E5E67" points="7.267,30.574 7.138,26.018 7.056,25.947 7.185,30.502 "/>
<polygon fill="#4E5E67" points="7.783,30.845 7.654,26.29 7.419,26.155 7.548,30.71 "/>
<polygon fill="#4E5E67" points="7.994,30.99 7.865,26.434 7.783,26.363 7.912,30.918 "/>
<polygon fill="#4E5E67" points="8.509,31.261 8.38,26.706 8.146,26.571 8.275,31.126 "/>
<polygon fill="#4E5E67" points="8.72,31.406 8.591,26.85 8.509,26.779 8.638,31.334 "/>
<polygon fill="#4E5E67" points="9.083,31.614 8.955,27.058 8.873,26.987 9.001,31.542 "/>
<polygon fill="#4E5E67" points="9.599,31.885 9.47,27.33 9.236,27.195 9.365,31.75 "/>
<polygon fill="#4E5E67" points="9.81,32.03 9.681,27.474 9.599,27.403 9.728,31.958 "/>
<polygon fill="#4E5E67" points="10.326,32.301 10.197,27.746 9.962,27.611 10.091,32.167 "/>
<polygon fill="#4E5E67" points="10.537,32.446 10.408,27.89 10.326,27.819 10.455,32.375 "/>
<polygon fill="#4E5E67" points="10.9,32.654 10.771,28.098 10.689,28.027 10.818,32.583 "/>
<polygon fill="#4E5E67" points="11.263,32.862 11.134,28.306 11.052,28.235 11.181,32.791 "/>
<polygon fill="#4E5E67" points="11.779,33.133 11.65,28.578 11.416,28.443 11.544,32.999 "/>
<path fill="#4E5E67" d="M6.66,22.475c-0.004-0.025,0.002-0.036,0.014-0.03l0.059,0.034c0.01,0.006,0.016,0.021,0.016,0.045
	c0.008,0.078,0.037,0.132,0.08,0.156c0.047,0.026,0.066-0.008,0.064-0.069c-0.004-0.078-0.041-0.134-0.086-0.194
	c-0.068-0.095-0.15-0.202-0.158-0.434c-0.008-0.208,0.061-0.275,0.137-0.231s0.15,0.184,0.164,0.4
	c0.002,0.027-0.004,0.037-0.014,0.03l-0.059-0.033c-0.01-0.006-0.016-0.021-0.018-0.046c-0.008-0.073-0.033-0.122-0.068-0.143
	c-0.035-0.021-0.057,0.012-0.053,0.073c0.002,0.08,0.035,0.135,0.078,0.197c0.068,0.093,0.156,0.2,0.164,0.432
	c0.008,0.209-0.059,0.275-0.145,0.227C6.751,22.841,6.673,22.698,6.66,22.475z"/>
<path fill="#4E5E67" d="M7.343,22.131l0.037,1.016c0.002,0.024-0.004,0.033-0.014,0.028L7.308,23.14
	c-0.012-0.005-0.018-0.021-0.018-0.046l-0.016-0.42l-0.152-0.087l0.016,0.421c0.004,0.023-0.002,0.033-0.012,0.029l-0.061-0.035
	c-0.01-0.006-0.016-0.022-0.016-0.047L7.011,21.94c0-0.022,0.004-0.033,0.014-0.027l0.059,0.034
	c0.012,0.006,0.018,0.022,0.018,0.047l0.016,0.389l0.152,0.087l-0.016-0.389c-0.002-0.023,0.002-0.035,0.014-0.029l0.059,0.033
	C7.335,22.09,7.343,22.108,7.343,22.131z"/>
<path fill="#4E5E67" d="M7.441,22.152L7.5,22.187c0.01,0.005,0.016,0.022,0.018,0.047l0.037,1.014
	c0.002,0.024-0.004,0.034-0.012,0.029l-0.061-0.035c-0.012-0.006-0.016-0.021-0.016-0.046l-0.039-1.015
	C7.427,22.157,7.429,22.147,7.441,22.152z"/>
<path fill="#4E5E67" d="M7.937,22.792c0.008,0.201-0.055,0.323-0.139,0.274L7.716,23.02l0.012,0.328
	c0.002,0.023-0.004,0.033-0.014,0.028l-0.059-0.034c-0.012-0.007-0.016-0.021-0.018-0.046l-0.037-1.015
	c0-0.023,0.002-0.034,0.014-0.028l0.074,0.042l0.082,0.047C7.857,22.392,7.929,22.593,7.937,22.792z M7.847,22.741
	c-0.004-0.09-0.033-0.178-0.068-0.196l-0.082-0.048l0.012,0.322l0.082,0.048C7.826,22.887,7.849,22.832,7.847,22.741z"/>
<path fill="#4E5E67" d="M8.423,22.755l0.004,0.13c0,0.025-0.004,0.035-0.014,0.029l-0.096-0.054l0.031,0.847
	c0.002,0.023-0.002,0.035-0.012,0.027l-0.061-0.032c-0.01-0.006-0.016-0.022-0.018-0.047l-0.031-0.848l-0.094-0.055
	c-0.01-0.005-0.016-0.021-0.016-0.046l-0.006-0.131c-0.002-0.024,0.004-0.034,0.014-0.028l0.184,0.107l0.096,0.054
	C8.416,22.714,8.421,22.732,8.423,22.755z"/>
<path fill="#4E5E67" d="M8.443,23.264c-0.012-0.318,0.086-0.505,0.217-0.429s0.246,0.385,0.258,0.703
	c0.014,0.319-0.084,0.506-0.215,0.429C8.57,23.892,8.455,23.583,8.443,23.264z M8.828,23.487c-0.008-0.209-0.078-0.395-0.16-0.441
	c-0.082-0.049-0.141,0.063-0.135,0.271c0.01,0.209,0.078,0.394,0.162,0.442C8.777,23.806,8.837,23.697,8.828,23.487z"/>
<path fill="#4E5E67" d="M9.144,23.427c0,0.132-0.121,0.049-0.121-0.083S9.144,23.295,9.144,23.427z"/>
<path fill="#4E5E67" d="M9.144,24.023c0,0.132-0.121,0.05-0.121-0.083C9.023,23.808,9.144,23.891,9.144,24.023z"/>
</svg>
