<?xml version="1.0" encoding="utf-8"?>
<!-- Generator: Adobe Illustrator 15.0.0, SVG Export Plug-In . SVG Version: 6.00 Build 0)  -->
<!DOCTYPE svg PUBLIC "-//W3C//DTD SVG 1.1//EN" "http://www.w3.org/Graphics/SVG/1.1/DTD/svg11.dtd" [
	<!ENTITY ns_flows "http://ns.adobe.com/Flows/1.0/">
	<!ENTITY ns_extend "http://ns.adobe.com/Extensibility/1.0/">
	<!ENTITY ns_ai "http://ns.adobe.com/AdobeIllustrator/10.0/">
	<!ENTITY ns_graphs "http://ns.adobe.com/Graphs/1.0/">
]>
<svg version="1.1" id="Layer_1" xmlns:x="&ns_extend;" xmlns:i="&ns_ai;" xmlns:graph="&ns_graphs;"
	 xmlns="http://www.w3.org/2000/svg" xmlns:xlink="http://www.w3.org/1999/xlink" xmlns:a="http://ns.adobe.com/AdobeSVGViewerExtensions/3.0/"
	 x="0px" y="0px" width="64px" height="64px" viewBox="0 0 64 64" enable-background="new 0 0 64 64" xml:space="preserve">
<linearGradient id="SVGID_1_" gradientUnits="userSpaceOnUse" x1="14.4023" y1="15.251" x2="23.5957" y2="15.251">
	<stop  offset="0" style="stop-color:#D6E5ED"/>
	<stop  offset="0.0475" style="stop-color:#D1E0E7"/>
	<stop  offset="0.4807" style="stop-color:#A8B2B8"/>
	<stop  offset="0.812" style="stop-color:#8F969A"/>
	<stop  offset="1" style="stop-color:#858C8F"/>
	<a:midPointStop  offset="0" style="stop-color:#D6E5ED"/>
	<a:midPointStop  offset="0.4182" style="stop-color:#D6E5ED"/>
	<a:midPointStop  offset="1" style="stop-color:#858C8F"/>
</linearGradient>
<path fill="url(#SVGID_1_)" d="M23.137,14.251h-8.274c-0.253,0-0.46,0.18-0.46,0.4v1.6h9.193v-1.6
	C23.596,14.431,23.389,14.251,23.137,14.251z"/>
<rect x="14.633" y="14.651" opacity="0.2" fill="#1A1626" width="0.459" height="1.6"/>
<rect x="15.552" y="14.651" opacity="0.2" fill="#1A1626" width="0.46" height="1.6"/>
<rect x="16.471" y="14.651" opacity="0.2" fill="#1A1626" width="0.461" height="1.6"/>
<rect x="17.391" y="14.651" opacity="0.2" fill="#1A1626" width="0.459" height="1.6"/>
<rect x="18.311" y="14.651" opacity="0.2" fill="#1A1626" width="0.459" height="1.6"/>
<rect x="19.229" y="14.651" opacity="0.2" fill="#1A1626" width="0.46" height="1.6"/>
<rect x="20.148" y="14.651" opacity="0.2" fill="#1A1626" width="0.46" height="1.6"/>
<rect x="21.068" y="14.651" opacity="0.2" fill="#1A1626" width="0.459" height="1.6"/>
<rect x="21.987" y="14.651" opacity="0.2" fill="#1A1626" width="0.46" height="1.6"/>
<rect x="22.906" y="14.651" opacity="0.2" fill="#1A1626" width="0.46" height="1.6"/>
<rect x="2" y="22.001" fill="#CFD8DD" width="2" height="0.999"/>
<rect x="60" y="22.001" fill="#CFD8DD" width="2" height="0.999"/>
<linearGradient id="SVGID_2_" gradientUnits="userSpaceOnUse" x1="6.332" y1="15.2129" x2="13.3438" y2="15.2129">
	<stop  offset="0" style="stop-color:#D6E5ED"/>
	<stop  offset="0.0475" style="stop-color:#D1E0E7"/>
	<stop  offset="0.4807" style="stop-color:#A8B2B8"/>
	<stop  offset="0.812" style="stop-color:#8F969A"/>
	<stop  offset="1" style="stop-color:#858C8F"/>
	<a:midPointStop  offset="0" style="stop-color:#D6E5ED"/>
	<a:midPointStop  offset="0.4182" style="stop-color:#D6E5ED"/>
	<a:midPointStop  offset="1" style="stop-color:#858C8F"/>
</linearGradient>
<path fill="url(#SVGID_2_)" d="M13.332,16.126h-7c0,0,0.406-1.295,0.905-1.496c1.197-0.486,3.993-0.486,5.19,0
	C12.977,14.851,13.423,16.413,13.332,16.126z"/>
<rect x="8.804" y="14.126" fill="#CFD8DD" width="2.058" height="2"/>
<linearGradient id="SVGID_3_" gradientUnits="userSpaceOnUse" x1="3" y1="35" x2="61" y2="35">
	<stop  offset="0.9" style="stop-color:#323844"/>
	<stop  offset="1" style="stop-color:#1A1626"/>
	<a:midPointStop  offset="0.9" style="stop-color:#323844"/>
	<a:midPointStop  offset="0.5" style="stop-color:#323844"/>
	<a:midPointStop  offset="1" style="stop-color:#1A1626"/>
</linearGradient>
<rect x="3" y="22.001" fill="url(#SVGID_3_)" width="58" height="25.999"/>
<linearGradient id="SVGID_4_" gradientUnits="userSpaceOnUse" x1="3" y1="49" x2="61" y2="49">
	<stop  offset="0" style="stop-color:#7B8589"/>
	<stop  offset="0.0116" style="stop-color:#8D979B"/>
	<stop  offset="0.0341" style="stop-color:#AAB3B8"/>
	<stop  offset="0.0566" style="stop-color:#BEC8CC"/>
	<stop  offset="0.0787" style="stop-color:#CBD4D9"/>
	<stop  offset="0.1" style="stop-color:#CFD8DD"/>
	<stop  offset="0.9" style="stop-color:#CFD8DD"/>
	<stop  offset="0.9213" style="stop-color:#CBD4D9"/>
	<stop  offset="0.9434" style="stop-color:#BEC8CC"/>
	<stop  offset="0.9659" style="stop-color:#AAB3B8"/>
	<stop  offset="0.9884" style="stop-color:#8D979B"/>
	<stop  offset="1" style="stop-color:#7B8589"/>
	<a:midPointStop  offset="0" style="stop-color:#7B8589"/>
	<a:midPointStop  offset="0.3" style="stop-color:#7B8589"/>
	<a:midPointStop  offset="0.1" style="stop-color:#CFD8DD"/>
	<a:midPointStop  offset="0.5" style="stop-color:#CFD8DD"/>
	<a:midPointStop  offset="0.9" style="stop-color:#CFD8DD"/>
	<a:midPointStop  offset="0.7" style="stop-color:#CFD8DD"/>
	<a:midPointStop  offset="1" style="stop-color:#7B8589"/>
</linearGradient>
<path fill="url(#SVGID_4_)" d="M59.031,50H4.968C3,50,3,48,3,48h58C61,48,61,50,59.031,50z"/>
<linearGradient id="SVGID_5_" gradientUnits="userSpaceOnUse" x1="3" y1="18.001" x2="61" y2="18.001">
	<stop  offset="0" style="stop-color:#7B8589"/>
	<stop  offset="0.0116" style="stop-color:#8D979B"/>
	<stop  offset="0.0341" style="stop-color:#AAB3B8"/>
	<stop  offset="0.0566" style="stop-color:#BEC8CC"/>
	<stop  offset="0.0787" style="stop-color:#CBD4D9"/>
	<stop  offset="0.1" style="stop-color:#CFD8DD"/>
	<stop  offset="0.9" style="stop-color:#CFD8DD"/>
	<stop  offset="0.9213" style="stop-color:#CBD4D9"/>
	<stop  offset="0.9434" style="stop-color:#BEC8CC"/>
	<stop  offset="0.9659" style="stop-color:#AAB3B8"/>
	<stop  offset="0.9884" style="stop-color:#8D979B"/>
	<stop  offset="1" style="stop-color:#7B8589"/>
	<a:midPointStop  offset="0" style="stop-color:#7B8589"/>
	<a:midPointStop  offset="0.3" style="stop-color:#7B8589"/>
	<a:midPointStop  offset="0.1" style="stop-color:#CFD8DD"/>
	<a:midPointStop  offset="0.5" style="stop-color:#CFD8DD"/>
	<a:midPointStop  offset="0.9" style="stop-color:#CFD8DD"/>
	<a:midPointStop  offset="0.7" style="stop-color:#CFD8DD"/>
	<a:midPointStop  offset="1" style="stop-color:#7B8589"/>
</linearGradient>
<path fill="url(#SVGID_5_)" d="M61,14.948l-1.477-0.947c0,0-20.447,0-28.598,0c-5.083,0-5.729,2.113-10.601,2.113
	c-1.599,0-13.772,0-16.325,0c-1,0-1,0.85-1,0.85v5.037h58V14.948z"/>
<circle fill="#99A8AE" cx="28.989" cy="44.813" r="2.687"/>
<circle fill="#302C3B" cx="28.989" cy="44.813" r="1.974"/>
<radialGradient id="SVGID_6_" cx="41" cy="33.459" r="15.5" gradientTransform="matrix(0.7071 -0.7071 4.2426 4.2426 -129.9458 -79.5041)" gradientUnits="userSpaceOnUse">
	<stop  offset="0.2303" style="stop-color:#EFFAFF"/>
	<stop  offset="0.3695" style="stop-color:#E7F2F7"/>
	<stop  offset="0.5869" style="stop-color:#D1DCE1"/>
	<stop  offset="0.8538" style="stop-color:#ADB9BD"/>
	<stop  offset="1" style="stop-color:#96A2A6"/>
	<a:midPointStop  offset="0.2303" style="stop-color:#EFFAFF"/>
	<a:midPointStop  offset="0.61" style="stop-color:#EFFAFF"/>
	<a:midPointStop  offset="1" style="stop-color:#96A2A6"/>
</radialGradient>
<circle fill="url(#SVGID_6_)" cx="41" cy="33.459" r="15.5"/>
<circle fill="#1A1626" cx="41" cy="33.459" r="13.621"/>
<circle fill="#25222E" cx="40.999" cy="33.459" r="12.212"/>
<linearGradient id="SVGID_7_" gradientUnits="userSpaceOnUse" x1="33.3613" y1="25.8208" x2="48.6387" y2="41.0982">
	<stop  offset="0" style="stop-color:#302C3B"/>
	<stop  offset="0.4746" style="stop-color:#312E3D"/>
	<stop  offset="0.7489" style="stop-color:#363742"/>
	<stop  offset="0.972" style="stop-color:#3F454B"/>
	<stop  offset="1" style="stop-color:#40474D"/>
	<a:midPointStop  offset="0" style="stop-color:#302C3B"/>
	<a:midPointStop  offset="0.8061" style="stop-color:#302C3B"/>
	<a:midPointStop  offset="1" style="stop-color:#40474D"/>
</linearGradient>
<circle fill="url(#SVGID_7_)" cx="41" cy="33.459" r="10.803"/>
<circle opacity="0.2" fill="#302C3B" cx="41" cy="33.459" r="6.74"/>
<circle fill="#35313D" cx="41" cy="33.459" r="7.045"/>
<circle fill="#272430" cx="41" cy="33.459" r="5.637"/>
<circle fill="#2D2A36" cx="40.999" cy="33.459" r="4.228"/>
<circle fill="#35313D" cx="41" cy="33.459" r="2.818"/>
<circle fill="#1A1626" cx="41" cy="33.459" r="0.939"/>
<radialGradient id="SVGID_8_" cx="584.2715" cy="38.9941" r="25.3169" gradientTransform="matrix(0.3583 0.4654 -0.5242 0.4036 -154.4499 -262.5237)" gradientUnits="userSpaceOnUse">
	<stop  offset="0" style="stop-color:#FFFFFF;stop-opacity:0.2"/>
	<stop  offset="1" style="stop-color:#FFFFFF;stop-opacity:0"/>
	<a:midPointStop  offset="0" style="stop-color:#FFFFFF;stop-opacity:0.2"/>
	<a:midPointStop  offset="0.5515" style="stop-color:#FFFFFF;stop-opacity:0.2"/>
	<a:midPointStop  offset="1" style="stop-color:#FFFFFF;stop-opacity:0"/>
</radialGradient>
<path fill="url(#SVGID_8_)" d="M44.313,38.18c-3.785,2.92-8.956,2.557-11.542-0.807c-2.592-3.365-1.621-8.455,2.168-11.371
	c3.788-2.924,8.959-2.557,11.551,0.805C49.084,30.174,48.105,35.267,44.313,38.18z"/>
<circle fill="#4E5E67" cx="24.299" cy="19.058" r="1.5"/>
<circle fill="#99A8AE" cx="24.299" cy="19.058" r="1"/>
<circle fill="#1A1626" cx="24.299" cy="19.058" r="0.65"/>
<linearGradient id="SVGID_9_" gradientUnits="userSpaceOnUse" x1="3" y1="35" x2="20.3252" y2="35">
	<stop  offset="0" style="stop-color:#302C3B"/>
	<stop  offset="0.0155" style="stop-color:#33313F"/>
	<stop  offset="0.0989" style="stop-color:#3F4551"/>
	<stop  offset="0.1937" style="stop-color:#47535D"/>
	<stop  offset="0.3087" style="stop-color:#4C5B65"/>
	<stop  offset="0.5" style="stop-color:#4E5E67"/>
	<stop  offset="0.6307" style="stop-color:#4A5862"/>
	<stop  offset="0.8028" style="stop-color:#414853"/>
	<stop  offset="0.9973" style="stop-color:#302C3B"/>
	<stop  offset="1" style="stop-color:#302C3B"/>
	<a:midPointStop  offset="0" style="stop-color:#302C3B"/>
	<a:midPointStop  offset="0.2" style="stop-color:#302C3B"/>
	<a:midPointStop  offset="0.5" style="stop-color:#4E5E67"/>
	<a:midPointStop  offset="0.6485" style="stop-color:#4E5E67"/>
	<a:midPointStop  offset="1" style="stop-color:#302C3B"/>
</linearGradient>
<rect x="3" y="22.001" fill="url(#SVGID_9_)" width="17.325" height="25.999"/>
<linearGradient id="SVGID_10_" gradientUnits="userSpaceOnUse" x1="18.2817" y1="34.5625" x2="18.2817" y2="2.0015">
	<stop  offset="0" style="stop-color:#FF4D00"/>
	<stop  offset="0.2986" style="stop-color:#FF7400"/>
	<stop  offset="0.5819" style="stop-color:#FF9200"/>
	<stop  offset="0.8251" style="stop-color:#FFA400"/>
	<stop  offset="1" style="stop-color:#FFAA00"/>
	<a:midPointStop  offset="0" style="stop-color:#FF4D00"/>
	<a:midPointStop  offset="0.3636" style="stop-color:#FF4D00"/>
	<a:midPointStop  offset="1" style="stop-color:#FFAA00"/>
</linearGradient>
<polygon fill="url(#SVGID_10_)" points="24.741,20.017 34.563,14.571 23.545,15.054 26.815,8.294 20.85,12.536 21.586,3.22 
	17.244,10.901 10.711,2.001 13.517,13.087 3.715,9.833 11.527,16.972 2,18.823 11.132,20.903 6.009,30.045 14.392,24.979 
	14.739,34.563 18.174,25.811 22.789,32.735 22.535,24.416 30.489,27.454 "/>
<linearGradient id="SVGID_11_" gradientUnits="userSpaceOnUse" x1="18.1758" y1="26.791" x2="18.1758" y2="9.2295">
	<stop  offset="0" style="stop-color:#FFB500"/>
	<stop  offset="0.0869" style="stop-color:#FFBA00"/>
	<stop  offset="0.6742" style="stop-color:#FFDA00"/>
	<stop  offset="1" style="stop-color:#FFE600"/>
	<a:midPointStop  offset="0" style="stop-color:#FFB500"/>
	<a:midPointStop  offset="0.4242" style="stop-color:#FFB500"/>
	<a:midPointStop  offset="1" style="stop-color:#FFE600"/>
</linearGradient>
<polygon fill="url(#SVGID_11_)" points="21.892,19.19 27.64,16.521 21.263,16.335 22.976,12.546 19.598,14.478 19.722,9.325 
	17.454,13.624 14.04,9.229 15.532,14.763 9.837,13.323 14.489,17.337 8.712,18.692 14.001,19.911 10.272,25.625 15.989,21.755 
	16.144,26.791 18.198,22.19 20.517,25.625 20.478,21.464 24.655,23.296 "/>
<linearGradient id="SVGID_12_" gradientUnits="userSpaceOnUse" x1="18.1758" y1="21.7275" x2="18.1758" y2="14.292">
	<stop  offset="0" style="stop-color:#FFF1A3"/>
	<stop  offset="0.1596" style="stop-color:#FFF4B6"/>
	<stop  offset="0.5273" style="stop-color:#FFFADE"/>
	<stop  offset="0.8203" style="stop-color:#FFFEF6"/>
	<stop  offset="1" style="stop-color:#FFFFFF"/>
	<a:midPointStop  offset="0" style="stop-color:#FFF1A3"/>
	<a:midPointStop  offset="0.4" style="stop-color:#FFF1A3"/>
	<a:midPointStop  offset="1" style="stop-color:#FFFFFF"/>
</linearGradient>
<polygon fill="url(#SVGID_12_)" points="19.749,18.507 22.183,17.382 19.482,17.298 20.209,15.694 18.778,16.517 18.832,14.331 
	17.87,16.149 16.425,14.292 17.059,16.638 14.646,16.024 16.615,17.724 14.169,18.3 16.407,18.815 14.832,21.235 17.251,19.595 
	17.317,21.728 18.186,19.778 19.169,21.235 19.152,19.476 20.921,20.251 "/>
</svg>
