<?xml version="1.0" encoding="utf-8"?>
<!-- Generator: Adobe Illustrator 15.0.0, SVG Export Plug-In . SVG Version: 6.00 Build 0)  -->
<!DOCTYPE svg PUBLIC "-//W3C//DTD SVG 1.1//EN" "http://www.w3.org/Graphics/SVG/1.1/DTD/svg11.dtd" [
	<!ENTITY ns_flows "http://ns.adobe.com/Flows/1.0/">
	<!ENTITY ns_extend "http://ns.adobe.com/Extensibility/1.0/">
	<!ENTITY ns_ai "http://ns.adobe.com/AdobeIllustrator/10.0/">
	<!ENTITY ns_graphs "http://ns.adobe.com/Graphs/1.0/">
]>
<svg version="1.1" id="Layer_1" xmlns:x="&ns_extend;" xmlns:i="&ns_ai;" xmlns:graph="&ns_graphs;"
	 xmlns="http://www.w3.org/2000/svg" xmlns:xlink="http://www.w3.org/1999/xlink" xmlns:a="http://ns.adobe.com/AdobeSVGViewerExtensions/3.0/"
	 x="0px" y="0px" width="64px" height="64px" viewBox="0 0 64 64" enable-background="new 0 0 64 64" xml:space="preserve">
<linearGradient id="SVGID_1_" gradientUnits="userSpaceOnUse" x1="39" y1="61" x2="39" y2="3.0005">
	<stop  offset="0" style="stop-color:#58636B"/>
	<stop  offset="0.0225" style="stop-color:#525964"/>
	<stop  offset="0.0737" style="stop-color:#494858"/>
	<stop  offset="0.13" style="stop-color:#433E51"/>
	<stop  offset="0.2" style="stop-color:#413B4F"/>
	<stop  offset="0.9" style="stop-color:#413B4F"/>
	<stop  offset="0.935" style="stop-color:#433E51"/>
	<stop  offset="0.9631" style="stop-color:#494858"/>
	<stop  offset="0.9888" style="stop-color:#525964"/>
	<stop  offset="1" style="stop-color:#58636B"/>
	<a:midPointStop  offset="0" style="stop-color:#58636B"/>
	<a:midPointStop  offset="0.25" style="stop-color:#58636B"/>
	<a:midPointStop  offset="0.2" style="stop-color:#413B4F"/>
	<a:midPointStop  offset="0.5" style="stop-color:#413B4F"/>
	<a:midPointStop  offset="0.9" style="stop-color:#413B4F"/>
	<a:midPointStop  offset="0.75" style="stop-color:#413B4F"/>
	<a:midPointStop  offset="1" style="stop-color:#58636B"/>
</linearGradient>
<path fill="url(#SVGID_1_)" d="M54,58c0,1.65-1.35,3-3,3H27c-1.65,0-3-1.35-3-3V6c0-1.649,1.35-3,3-3h24c1.65,0,3,1.351,3,3V58z"/>
<path fill="#1A1626" d="M41.574,5h-5.148c-0.568,0-0.568-1,0-1h5.148C42.141,4,42.141,5,41.574,5z"/>
<path fill="#6E8189" d="M29.303,4.5c0,1-1.5,1-1.5,0S29.303,3.5,29.303,4.5z"/>
<radialGradient id="SVGID_2_" cx="39.501" cy="60.8887" r="106.2294" gradientTransform="matrix(1 0 0 0.6847 -4.882813e-004 19.1959)" gradientUnits="userSpaceOnUse">
	<stop  offset="0.1091" style="stop-color:#FFEA80"/>
	<stop  offset="0.3818" style="stop-color:#190BB0"/>
	<stop  offset="0.4046" style="stop-color:#180AA2"/>
	<stop  offset="0.4899" style="stop-color:#150674"/>
	<stop  offset="0.5717" style="stop-color:#120450"/>
	<stop  offset="0.6477" style="stop-color:#100236"/>
	<stop  offset="0.7159" style="stop-color:#0F0026"/>
	<stop  offset="0.7697" style="stop-color:#0F0021"/>
	<a:midPointStop  offset="0.1091" style="stop-color:#FFEA80"/>
	<a:midPointStop  offset="0.5" style="stop-color:#FFEA80"/>
	<a:midPointStop  offset="0.3818" style="stop-color:#190BB0"/>
	<a:midPointStop  offset="0.3431" style="stop-color:#190BB0"/>
	<a:midPointStop  offset="0.7697" style="stop-color:#0F0021"/>
</radialGradient>
<path fill="url(#SVGID_2_)" d="M51,6H27c-1.1,0-2,0.9-2,2v48c0,1.102,0.9,2,2,2h24c1.1,0,2-0.898,2-2V8C53,6.9,52.1,6,51,6z"/>
<linearGradient id="SVGID_3_" gradientUnits="userSpaceOnUse" x1="9.7539" y1="61.248" x2="68.2474" y2="2.7546" gradientTransform="matrix(1 0 0 1 -4.882813e-004 0)">
	<stop  offset="0.2" style="stop-color:#FF00B7;stop-opacity:0"/>
	<stop  offset="0.47" style="stop-color:#57DCFF;stop-opacity:0.5"/>
	<stop  offset="0.52" style="stop-color:#57DCFF;stop-opacity:0.5"/>
	<stop  offset="0.8" style="stop-color:#FF00B7;stop-opacity:0"/>
	<a:midPointStop  offset="0.2" style="stop-color:#FF00B7;stop-opacity:0"/>
	<a:midPointStop  offset="0.5" style="stop-color:#FF00B7;stop-opacity:0"/>
	<a:midPointStop  offset="0.47" style="stop-color:#57DCFF;stop-opacity:0.5"/>
	<a:midPointStop  offset="0.5" style="stop-color:#57DCFF;stop-opacity:0.5"/>
	<a:midPointStop  offset="0.52" style="stop-color:#57DCFF;stop-opacity:0.5"/>
	<a:midPointStop  offset="0.5" style="stop-color:#57DCFF;stop-opacity:0.5"/>
	<a:midPointStop  offset="0.8" style="stop-color:#FF00B7;stop-opacity:0"/>
</linearGradient>
<path fill="url(#SVGID_3_)" d="M51,6H27c-1.1,0-2,0.9-2,2v48c0,1.102,0.9,2,2,2h24c1.1,0,2-0.898,2-2V8C53,6.9,52.1,6,51,6z"/>
<linearGradient id="SVGID_4_" gradientUnits="userSpaceOnUse" x1="239.1494" y1="61.3164" x2="262.0742" y2="61.3164" gradientTransform="matrix(0.7071 -0.7071 0.7071 0.7071 -181.5416 161.3828)">
	<stop  offset="0.2485" style="stop-color:#02005E;stop-opacity:0"/>
	<stop  offset="0.5" style="stop-color:#02005E"/>
	<stop  offset="1" style="stop-color:#02005E;stop-opacity:0"/>
	<a:midPointStop  offset="0.2485" style="stop-color:#02005E;stop-opacity:0"/>
	<a:midPointStop  offset="0.5976" style="stop-color:#02005E;stop-opacity:0"/>
	<a:midPointStop  offset="0.5" style="stop-color:#02005E"/>
	<a:midPointStop  offset="0.4699" style="stop-color:#02005E"/>
	<a:midPointStop  offset="1" style="stop-color:#02005E;stop-opacity:0"/>
</linearGradient>
<path opacity="0.35" fill="url(#SVGID_4_)" d="M51.025,29.757c-1.033-0.992-3.395,1.243-4.037-0.393
	c-1.197-3.044-2.834,1.588-4.457-1.592c-0.918-1.798-2.15,1.585-3.996-0.149c-1.029-0.966,4.287-3.221-0.975-2.636
	c-1.748,0.194-1.184-1.44-2.182-1.943c-1.221-0.614-1.041-3.475-2.271-2.315c-1.33,1.254-2.217-4.486-3.004-1.807
	c-0.869,2.963-2.586-1.242-3.59-0.866c-3.027,1.132,2.418-3.856-0.291-4.152c-0.512-0.056-0.904-0.078-1.223-0.098v10.702
	c0.646,1.029,1.404,1.684,2.57,0.771c2.402-1.881-2.346,8.021,0.574,6.857c1.328-0.529,6.818-1.365,6.346,0.377
	c-1.754,6.455,2.395,1.047,4.758,0.928c4.143-0.207-3.236,8.104,1.078,5.744c1.369-0.748,3.594-4.416,4.479-3.732
	c3.277,2.533,3.098,5.256,2.939,6.551C47.412,44.748,53,41.306,53,41.306v-10.65C52.25,30.556,51.572,30.283,51.025,29.757z"/>
<path fill="#1A1626" d="M27,58h24c1.1,0,2-0.898,2-2v-3.963c-2.207-0.111-5.248-3.75-7.438-3.725
	c-1.689,0.02-3.973,2.703-5.625,2.984c-1.393,0.24-4.215-0.916-5.625-0.746c-2.072,0.248-5.414,2.822-7.5,2.986
	c-0.525,0.041-1.143-0.031-1.813-0.17V56C25,57.102,25.9,58,27,58z"/>
<path opacity="0.2" fill="#FFFFFF" d="M31.998,25.498c0.877,0,0.877-1.313,0-1.313C31.123,24.185,31.123,25.498,31.998,25.498z"/>
<path opacity="0.2" fill="#FFFFFF" d="M29.885,27.253c0.877,0,0.875-1.315,0-1.315C29.008,25.938,29.008,27.253,29.885,27.253z"/>
<path opacity="0.2" fill="#FFFFFF" d="M38.219,37.779c0.877,0,0.877-1.314,0-1.314C37.34,36.465,37.34,37.779,38.219,37.779z"/>
<path opacity="0.2" fill="#FFFFFF" d="M50.301,39.287c0.877,0.002,0.877-1.316,0-1.316S49.424,39.287,50.301,39.287z"/>
<path opacity="0.2" fill="#FFFFFF" d="M35.225,28.156c0.877-0.012,0.859-1.325-0.018-1.316C34.33,26.85,34.348,28.167,35.225,28.156
	z"/>
<path opacity="0.2" fill="#FFFFFF" d="M43.041,26.376c0.584-0.001,0.582-0.877,0-0.877C42.457,25.499,42.457,26.376,43.041,26.376z"
	/>
<path opacity="0.2" fill="#FFFFFF" d="M26.816,21.333c0.586,0,0.586-0.88,0.002-0.878C26.232,20.455,26.232,21.333,26.816,21.333z"
	/>
<path opacity="0.2" fill="#FFFFFF" d="M38.334,29.007c0.586,0.002,0.586-0.877,0-0.876C37.748,28.13,37.748,29.009,38.334,29.007z"
	/>
<path opacity="0.2" fill="#FFFFFF" d="M48.305,34.93c0.582,0,0.582-0.881,0-0.879C47.719,34.051,47.719,34.93,48.305,34.93z"/>
<path opacity="0.2" fill="#FFFFFF" d="M51.449,31.86c0.582-0.001,0.582-0.878,0-0.879C50.863,30.981,50.863,31.86,51.449,31.86z"/>
<path opacity="0.2" fill="#FFFFFF" d="M28.568,30.105c0.584-0.002,0.584-0.878,0-0.88C27.984,29.226,27.984,30.105,28.568,30.105z"
	/>
<path opacity="0.2" fill="#FFFFFF" d="M52.107,35.146c0.877,0,0.877-1.313,0-1.313S51.23,35.148,52.107,35.146z"/>
<path opacity="0.2" fill="#FFFFFF" d="M46.109,40.163c0.877,0,0.877-1.315,0-1.315S45.232,40.162,46.109,40.163z"/>
<path opacity="0.2" fill="#FFFFFF" d="M46.986,27.689c0.586,0,0.586-0.877,0-0.877S46.402,27.689,46.986,27.689z"/>
<path opacity="0.2" fill="#FFFFFF" d="M29.227,22.43c0.584-0.001,0.584-0.877,0-0.878C28.641,21.552,28.641,22.43,29.227,22.43z"/>
<path opacity="0.2" fill="#FFFFFF" d="M45.451,33.893c0.879,0,0.879-1.318,0-1.316C44.576,32.576,44.576,33.893,45.451,33.893z"/>
<path opacity="0.2" fill="#FFFFFF" d="M30.748,30.762c0.586-0.001,0.586-0.878,0-0.878C30.164,29.884,30.164,30.761,30.748,30.762z"
	/>
<path opacity="0.2" fill="#FFFFFF" d="M26.816,24.402c0.586,0,0.586-0.879,0-0.879S26.23,24.402,26.816,24.402z"/>
<path opacity="0.2" fill="#FFFFFF" d="M38.656,31.658c0.879,0,0.877-1.316,0-1.316S37.779,31.658,38.656,31.658z"/>
<path opacity="0.2" fill="#FFFFFF" d="M48.305,30.981c0.582-0.002,0.582-0.878,0-0.879C47.719,30.103,47.719,30.981,48.305,30.981z"
	/>
<path opacity="0.2" fill="#FFFFFF" d="M50.303,28.131c0.584,0,0.582-0.877,0-0.877C49.717,27.254,49.717,28.131,50.303,28.131z"/>
<path opacity="0.2" fill="#FFFFFF" d="M26.504,27.936c0.582,0.003,0.582-0.877,0-0.876C25.918,27.06,25.918,27.936,26.504,27.936z"
	/>
<path opacity="0.2" fill="#FFFFFF" d="M33.611,33.674c0.586-0.002,0.586-0.879,0-0.877C33.027,32.795,33.027,33.672,33.611,33.674z"
	/>
<path opacity="0.2" fill="#FFFFFF" d="M30.541,35.805c0.586,0.002,0.586-0.875,0-0.875C29.957,34.93,29.957,35.805,30.541,35.805z"
	/>
<path opacity="0.2" fill="#FFFFFF" d="M44.141,37.342c0.584,0,0.586-0.877,0-0.877S43.555,37.344,44.141,37.342z"/>
<path fill="#B7FF3B" d="M31.455,50.029c-0.762,0.629-3.15,0.629-3.91,0c-0.762-0.627-0.691-3.291,0-3.998s3.219-0.707,3.91,0
	S32.215,49.402,31.455,50.029z"/>
<path fill="#FFE600" d="M50.455,50.029c-0.762,0.629-3.15,0.629-3.91,0c-0.762-0.627-0.691-3.291,0-3.998s3.219-0.707,3.91,0
	S51.215,49.402,50.455,50.029z"/>
<path fill="#FF38F6" d="M44.121,50.029c-0.76,0.629-3.15,0.629-3.91,0c-0.762-0.627-0.691-3.291,0-3.998s3.221-0.707,3.91,0
	C44.813,46.738,44.883,49.402,44.121,50.029z"/>
<path fill="#57CDFF" d="M37.789,50.029c-0.762,0.629-3.152,0.629-3.91,0c-0.762-0.627-0.693-3.291,0-3.998
	c0.689-0.707,3.219-0.707,3.91,0C38.479,46.738,38.549,49.402,37.789,50.029z"/>
<path fill="#57CDFF" d="M46.543,38.972c0.762-0.628,3.15-0.628,3.91,0c0.762,0.628,0.691,3.292,0,3.999s-3.219,0.707-3.91,0
	S45.783,39.6,46.543,38.972z"/>
<path fill="#FF38F6" d="M27.543,38.972c0.762-0.628,3.15-0.628,3.91,0c0.762,0.628,0.691,3.292,0,3.999s-3.219,0.707-3.91,0
	S26.783,39.6,27.543,38.972z"/>
<path fill="#FFE600" d="M33.877,38.972c0.76-0.628,3.15-0.628,3.91,0c0.762,0.628,0.691,3.292,0,3.999s-3.221,0.707-3.91,0
	C33.186,42.264,33.115,39.6,33.877,38.972z"/>
<path fill="#B7FF3B" d="M40.209,38.972c0.762-0.628,3.152-0.628,3.91,0c0.762,0.628,0.693,3.292,0,3.999
	c-0.689,0.707-3.219,0.707-3.91,0C39.52,42.264,39.449,39.6,40.209,38.972z"/>
<path fill="#FFFFFF" d="M33.719,30.097c-0.004-0.054,0.021-0.08,0.072-0.08h0.115c0.045,0,0.076,0.026,0.08,0.076
	c0.031,0.368,0.279,0.506,0.57,0.506c0.311,0,0.574-0.157,0.574-0.544v-1.846c0-0.05,0.027-0.077,0.076-0.077h0.115
	c0.051,0,0.076,0.027,0.076,0.077v1.846c0,0.548-0.408,0.805-0.842,0.805C34.143,30.859,33.752,30.626,33.719,30.097z"/>
<path fill="#FFFFFF" d="M37.381,28.975v1.762c0,0.05-0.027,0.077-0.078,0.077h-0.1c-0.049,0-0.076-0.027-0.076-0.077V30.56
	c-0.15,0.229-0.359,0.3-0.59,0.3c-0.355,0-0.65-0.269-0.65-0.709v-1.176c0-0.05,0.027-0.076,0.076-0.076h0.1
	c0.051,0,0.076,0.026,0.076,0.076v1.176c0,0.303,0.188,0.464,0.445,0.464c0.26,0,0.543-0.161,0.543-0.636v-1.004
	c0-0.05,0.027-0.076,0.076-0.076h0.1C37.354,28.898,37.381,28.925,37.381,28.975z"/>
<path fill="#FFFFFF" d="M37.914,30.736v-2.604c0-0.05,0.025-0.076,0.076-0.076h0.1c0.049,0,0.076,0.026,0.076,0.076v2.604
	c0,0.05-0.027,0.077-0.076,0.077h-0.1C37.939,30.813,37.914,30.786,37.914,30.736z"/>
<path fill="#FFFFFF" d="M39.992,28.898h0.111c0.053,0,0.08,0.034,0.061,0.088l-0.9,2.531c-0.016,0.043-0.045,0.062-0.088,0.062
	h-0.111c-0.053,0-0.08-0.034-0.061-0.088l0.244-0.693l-0.738-1.812c-0.023-0.054,0-0.088,0.057-0.088h0.107
	c0.043,0,0.072,0.016,0.088,0.058l0.613,1.489l0.529-1.485C39.918,28.917,39.949,28.898,39.992,28.898z"/>
<path fill="#FFFFFF" d="M41.963,28.132h0.143c0.049,0,0.076,0.027,0.076,0.077v2.527c0,0.05-0.027,0.077-0.076,0.077H41.99
	c-0.049,0-0.076-0.027-0.076-0.077v-2.31l-0.578,0.311c-0.055,0.03-0.092,0.004-0.092-0.054v-0.13c0-0.042,0.02-0.073,0.053-0.092
	l0.57-0.307C41.898,28.136,41.93,28.132,41.963,28.132z"/>
<path fill="#FFFFFF" d="M42.641,28.132h1.492c0.051,0,0.078,0.027,0.078,0.077v0.126c0,0.035-0.008,0.065-0.02,0.096l-0.969,2.325
	c-0.016,0.042-0.047,0.058-0.088,0.058h-0.119c-0.059,0-0.08-0.035-0.059-0.088l0.973-2.341h-1.289
	c-0.051,0-0.078-0.026-0.078-0.076v-0.1C42.563,28.159,42.59,28.132,42.641,28.132z"/>
<path fill="#FFFFFF" d="M31.068,18.421h4.352c0.152,0,0.234,0.083,0.234,0.234v0.529c0,0.104-0.021,0.195-0.057,0.292l-2.682,6.48
	c-0.047,0.126-0.139,0.176-0.27,0.176h-0.58c-0.174,0-0.246-0.104-0.178-0.27l2.672-6.473h-3.492c-0.15,0-0.234-0.082-0.234-0.234
	v-0.501C30.834,18.504,30.918,18.421,31.068,18.421z"/>
<path fill="#FFFFFF" d="M36.121,21.575v-0.717c0-0.151,0.082-0.233,0.232-0.233h0.717c0.152,0,0.234,0.082,0.234,0.233v0.717
	c0,0.151-0.082,0.233-0.234,0.233h-0.717C36.203,21.809,36.121,21.727,36.121,21.575z M36.121,25.899v-0.717
	c0-0.151,0.082-0.233,0.232-0.233h0.717c0.152,0,0.234,0.082,0.234,0.233v0.717c0,0.151-0.082,0.233-0.234,0.233h-0.717
	C36.203,26.133,36.121,26.051,36.121,25.899z"/>
<path fill="#FFFFFF" d="M40.244,18.421h0.631c0.152,0,0.234,0.083,0.234,0.234v7.244c0,0.151-0.082,0.233-0.234,0.233h-0.551
	c-0.15,0-0.234-0.082-0.234-0.233v-6.404l-1.605,0.868c-0.162,0.094-0.281,0.014-0.281-0.163v-0.57c0-0.126,0.057-0.22,0.164-0.28
	l1.586-0.856C40.047,18.435,40.137,18.421,40.244,18.421z"/>
<path fill="#FFFFFF" d="M42.389,18.421h4.352c0.152,0,0.234,0.083,0.234,0.234v0.529c0,0.104-0.021,0.195-0.059,0.292l-2.68,6.48
	c-0.047,0.126-0.141,0.176-0.27,0.176h-0.582c-0.172,0-0.244-0.104-0.176-0.27l2.672-6.473h-3.492c-0.152,0-0.234-0.082-0.234-0.234
	v-0.501C42.154,18.504,42.236,18.421,42.389,18.421z"/>
<path fill="#B3C2C6" d="M47.25,54.713c0,1-1.5,1-1.5,0S47.25,53.713,47.25,54.713z"/>
<path fill="#B3C2C6" d="M32.25,54.713c0,1-1.5,1-1.5,0S32.25,53.713,32.25,54.713z"/>
<path fill="#B3C2C6" d="M39.75,54.713c0,1-1.5,1-1.5,0S39.75,53.713,39.75,54.713z"/>
<polygon fill="#CFD8DD" points="48.373,7.139 48.373,7.001 48.096,7.001 48.096,7.139 47.912,7.139 47.912,7.991 48.557,7.991 
	48.557,7.139 "/>
<polygon fill="#CFD8DD" points="47.227,7.991 46.322,7.991 47.227,7.001 "/>
<path fill="#CFD8DD" d="M44.893,7.116l0.557,0.875l0.555-0.875C45.809,6.962,45.09,6.962,44.893,7.116z"/>
<path fill="#CFD8DD" d="M49.172,7.025h0.051c0.018,0,0.027,0.011,0.027,0.029v0.903c0,0.016-0.01,0.025-0.027,0.025h-0.041
	c-0.02,0-0.029-0.01-0.029-0.025V7.132l-0.207,0.11c-0.018,0.01-0.031,0.001-0.031-0.019V7.177c0-0.016,0.006-0.026,0.02-0.032
	l0.203-0.109C49.148,7.028,49.16,7.025,49.172,7.025z"/>
<path fill="#CFD8DD" d="M49.426,7.506c0-0.297,0.131-0.496,0.363-0.496c0.236,0,0.363,0.199,0.363,0.496
	C50.152,7.801,50.025,8,49.789,8C49.557,8,49.426,7.801,49.426,7.506z M50.057,7.506c0-0.256-0.1-0.403-0.268-0.403
	s-0.266,0.147-0.266,0.403s0.098,0.402,0.266,0.402S50.057,7.762,50.057,7.506z"/>
<path fill="#CFD8DD" d="M50.289,7.506c0-0.297,0.131-0.496,0.363-0.496c0.234,0,0.363,0.199,0.363,0.496
	C51.016,7.801,50.887,8,50.652,8C50.42,8,50.289,7.801,50.289,7.506z M50.92,7.506c0-0.256-0.1-0.403-0.268-0.403
	s-0.266,0.147-0.266,0.403s0.098,0.402,0.266,0.402S50.92,7.762,50.92,7.506z"/>
<path fill="#CFD8DD" d="M51.139,7.215c0-0.113,0.09-0.205,0.209-0.205c0.121,0,0.209,0.092,0.209,0.205S51.471,7.42,51.348,7.42
	C51.229,7.42,51.139,7.328,51.139,7.215z M51.203,7.951l0.635-0.907c0.01-0.011,0.02-0.019,0.035-0.019h0.043
	c0.023,0,0.031,0.016,0.02,0.034l-0.639,0.907c-0.008,0.01-0.02,0.017-0.033,0.017h-0.043C51.199,7.983,51.189,7.969,51.203,7.951z
	 M51.469,7.215c0-0.067-0.047-0.123-0.121-0.123c-0.072,0-0.121,0.056-0.121,0.123c0,0.069,0.049,0.124,0.121,0.124
	C51.422,7.339,51.469,7.284,51.469,7.215z M51.58,7.795c0-0.112,0.09-0.205,0.211-0.205C51.91,7.59,52,7.683,52,7.795
	C52,7.909,51.91,8,51.791,8C51.67,8,51.58,7.909,51.58,7.795z M51.912,7.795c0-0.068-0.049-0.123-0.121-0.123
	c-0.074,0-0.123,0.055-0.123,0.123s0.049,0.124,0.123,0.124C51.863,7.919,51.912,7.863,51.912,7.795z"/>
<linearGradient id="SVGID_5_" gradientUnits="userSpaceOnUse" x1="12" y1="42" x2="12" y2="22.0005">
	<stop  offset="0" style="stop-color:#018BC9"/>
	<stop  offset="0.2685" style="stop-color:#058ECB"/>
	<stop  offset="0.5268" style="stop-color:#1097D3"/>
	<stop  offset="0.7799" style="stop-color:#24A6DF"/>
	<stop  offset="1" style="stop-color:#3BB8ED"/>
	<a:midPointStop  offset="0" style="stop-color:#018BC9"/>
	<a:midPointStop  offset="0.7152" style="stop-color:#018BC9"/>
	<a:midPointStop  offset="1" style="stop-color:#3BB8ED"/>
</linearGradient>
<polygon fill="url(#SVGID_5_)" points="22,32 11.892,22 11.892,26.536 2,26.536 2,37.464 11.892,37.464 11.892,42 "/>
</svg>
