<?xml version="1.0" encoding="utf-8"?>
<!-- Generator: Adobe Illustrator 15.0.0, SVG Export Plug-In . SVG Version: 6.00 Build 0)  -->
<!DOCTYPE svg PUBLIC "-//W3C//DTD SVG 1.1//EN" "http://www.w3.org/Graphics/SVG/1.1/DTD/svg11.dtd" [
	<!ENTITY ns_flows "http://ns.adobe.com/Flows/1.0/">
	<!ENTITY ns_extend "http://ns.adobe.com/Extensibility/1.0/">
	<!ENTITY ns_ai "http://ns.adobe.com/AdobeIllustrator/10.0/">
	<!ENTITY ns_graphs "http://ns.adobe.com/Graphs/1.0/">
]>
<svg version="1.1" id="Layer_1" xmlns:x="&ns_extend;" xmlns:i="&ns_ai;" xmlns:graph="&ns_graphs;"
	 xmlns="http://www.w3.org/2000/svg" xmlns:xlink="http://www.w3.org/1999/xlink" xmlns:a="http://ns.adobe.com/AdobeSVGViewerExtensions/3.0/"
	 x="0px" y="0px" width="64px" height="64px" viewBox="0 0 64 64" enable-background="new 0 0 64 64" xml:space="preserve">
<linearGradient id="SVGID_1_" gradientUnits="userSpaceOnUse" x1="31.9995" y1="2" x2="31.9995" y2="62.0005">
	<stop  offset="0" style="stop-color:#FF9900"/>
	<stop  offset="0.2875" style="stop-color:#FF9500"/>
	<stop  offset="0.5853" style="stop-color:#FF8800"/>
	<stop  offset="0.8868" style="stop-color:#FF7400"/>
	<stop  offset="1" style="stop-color:#FF6A00"/>
	<a:midPointStop  offset="0" style="stop-color:#FF9900"/>
	<a:midPointStop  offset="0.7" style="stop-color:#FF9900"/>
	<a:midPointStop  offset="1" style="stop-color:#FF6A00"/>
</linearGradient>
<path fill="url(#SVGID_1_)" d="M62,54c0,4.399-3.6,8-8,8H10c-4.4,0-8-3.601-8-8V10c0-4.4,3.6-8,8-8h44c4.4,0,8,3.6,8,8V54z"/>
<path fill="#FFFFFF" d="M38.801,12H25.2c-2.5,0-4.5,2-4.5,4.4v31.1c0,2.5,2,4.4,4.5,4.4h13.601c2.5,0,4.5-2,4.5-4.4V16.4
	C43.301,14,41.301,12,38.801,12z M29.8,13.6h4.399c0.301,0,0.602,0.2,0.602,0.601c0,0.3-0.301,0.6-0.602,0.6H29.8
	c-0.301,0-0.601-0.2-0.601-0.6C29.3,13.9,29.5,13.6,29.8,13.6z M32,49.8c-0.8,0-1.4-0.6-1.4-1.3s0.601-1.3,1.4-1.3
	c0.801,0,1.401,0.6,1.401,1.3S32.8,49.8,32,49.8z M41.1,44.9H23V16.5h18.1C41.1,16.4,41.1,44.9,41.1,44.9z"/>
<path fill="#FFFFFF" d="M18.6,19.1C11.4,27.4,13.6,39.7,18.7,44.9c0.3,0.3,0.7-0.2,0.5-0.601c-4-6.7-4.5-17.399,0-24.7
	C19.4,19.2,18.9,18.8,18.6,19.1z"/>
<path fill="#FFFFFF" d="M13.2,41.8c-3.3-5.399-3.7-14.2,0-20.2c0.2-0.3-0.2-0.699-0.5-0.399C6.8,28,8.6,38,12.8,42.2
	C13.1,42.6,13.4,42.2,13.2,41.8z"/>
<path fill="#FFFFFF" d="M45.4,44.9c7.199-8.301,5-20.601-0.1-25.801C45,18.8,44.6,19.3,44.801,19.7c4,6.7,4.5,17.399,0,24.7
	C44.6,44.8,45.1,45.2,45.4,44.9z"/>
<path fill="#FFFFFF" d="M50.801,22.2c3.299,5.399,3.699,14.2,0,20.2C50.6,42.7,51,43.1,51.301,42.8c5.898-6.8,4.1-16.8-0.102-21
	C50.9,21.4,50.6,21.8,50.801,22.2z"/>
</svg>
