<?xml version="1.0" encoding="utf-8"?>
<!-- Generator: Adobe Illustrator 19.0.0, SVG Export Plug-In . SVG Version: 6.00 Build 0)  -->
<svg version="1.1" id="Layer_1" xmlns="http://www.w3.org/2000/svg" xmlns:xlink="http://www.w3.org/1999/xlink" x="0px" y="0px"
	 width="64px" height="64px" viewBox="0 0 64 64" enable-background="new 0 0 64 64" xml:space="preserve">
<linearGradient id="SVGID_1_" gradientUnits="userSpaceOnUse" x1="32" y1="2" x2="32" y2="62">
	<stop  offset="0" style="stop-color:#00ABF1"/>
	<stop  offset="0.2292" style="stop-color:#00A7EF"/>
	<stop  offset="0.4667" style="stop-color:#009AE9"/>
	<stop  offset="0.7079" style="stop-color:#0086E0"/>
	<stop  offset="0.9504" style="stop-color:#0069D3"/>
	<stop  offset="1" style="stop-color:#0062D0"/>
</linearGradient>
<path fill="url(#SVGID_1_)" d="M62,54c0,4.4-3.6,8-8,8H10c-4.4,0-8-3.6-8-8V10c0-4.4,3.6-8,8-8h44c4.4,0,8,3.6,8,8V54z"/>
<path fill="#FFFFFF" d="M42,26v4l10-8l-10-8v4c-7.266,0-11.237,6.621-14.43,11.942C24.649,34.809,22.545,38,20,38h-8v8h8
	c7.265,0,11.237-6.621,14.43-11.941C37.35,29.19,39.455,26,42,26z"/>
<path fill="#FFFFFF" d="M42,38c-1.771,0-3.336-1.572-5.105-4.155c-0.26,0.425-0.512,0.845-0.75,1.243
	c-1.148,1.914-2.395,3.979-3.85,5.889C34.766,43.828,37.842,46,42,46v4l10-8l-10-8V38z"/>
<path fill="#FFFFFF" d="M25.105,30.155c0.259-0.425,0.511-0.844,0.75-1.242c1.148-1.914,2.395-3.979,3.85-5.89
	C27.233,20.172,24.157,18,20,18h-8v8h8C21.772,26,23.336,27.572,25.105,30.155z"/>
</svg>
