<?xml version="1.0" encoding="utf-8"?>
<!-- Generator: Adobe Illustrator 15.0.0, SVG Export Plug-In . SVG Version: 6.00 Build 0)  -->
<!DOCTYPE svg PUBLIC "-//W3C//DTD SVG 1.1//EN" "http://www.w3.org/Graphics/SVG/1.1/DTD/svg11.dtd" [
	<!ENTITY ns_flows "http://ns.adobe.com/Flows/1.0/">
	<!ENTITY ns_extend "http://ns.adobe.com/Extensibility/1.0/">
	<!ENTITY ns_ai "http://ns.adobe.com/AdobeIllustrator/10.0/">
	<!ENTITY ns_graphs "http://ns.adobe.com/Graphs/1.0/">
]>
<svg version="1.1" id="Layer_1" xmlns:x="&ns_extend;" xmlns:i="&ns_ai;" xmlns:graph="&ns_graphs;"
	 xmlns="http://www.w3.org/2000/svg" xmlns:xlink="http://www.w3.org/1999/xlink" xmlns:a="http://ns.adobe.com/AdobeSVGViewerExtensions/3.0/"
	 x="0px" y="0px" width="64px" height="64px" viewBox="0 0 64 64" enable-background="new 0 0 64 64" xml:space="preserve">
<radialGradient id="SVGID_1_" cx="84.5254" cy="15.3389" r="27.7189" gradientTransform="matrix(1 0 0 20.0008 -59.5986 -270.5157)" gradientUnits="userSpaceOnUse">
	<stop  offset="0" style="stop-color:#9BE022"/>
	<stop  offset="0.1186" style="stop-color:#87C622"/>
	<stop  offset="0.2483" style="stop-color:#76B223"/>
	<stop  offset="0.3764" style="stop-color:#6CA523"/>
	<stop  offset="0.5" style="stop-color:#69A123"/>
	<stop  offset="0.7236" style="stop-color:#6BA323"/>
	<stop  offset="0.8186" style="stop-color:#70AA23"/>
	<stop  offset="0.8893" style="stop-color:#7AB723"/>
	<stop  offset="0.9474" style="stop-color:#88C822"/>
	<stop  offset="0.998" style="stop-color:#9ADF22"/>
	<stop  offset="1" style="stop-color:#9BE022"/>
	<a:midPointStop  offset="0" style="stop-color:#9BE022"/>
	<a:midPointStop  offset="0.3" style="stop-color:#9BE022"/>
	<a:midPointStop  offset="0.5" style="stop-color:#69A123"/>
	<a:midPointStop  offset="0.85" style="stop-color:#69A123"/>
	<a:midPointStop  offset="1" style="stop-color:#9BE022"/>
</radialGradient>
<path fill="url(#SVGID_1_)" d="M52,55.345c-0.002,7.54-39.998,7.54-40,0V6.808h40V55.345z"/>
<path fill="#FFFFFF" d="M32.375,15.022c0,0.11-0.096,0.2-0.213,0.2H31.84c-0.117,0-0.215-0.09-0.215-0.2v-2.6
	c0-0.11,0.098-0.2,0.215-0.2h0.322c0.117,0,0.213,0.09,0.213,0.2V15.022z"/>
<path fill="#FFFFFF" d="M30.701,14.097c-0.109,0-0.201-0.096-0.201-0.214v-0.321c0-0.118,0.092-0.214,0.201-0.214h2.6
	c0.109,0,0.199,0.097,0.199,0.214v0.321c0,0.118-0.09,0.214-0.199,0.214H30.701z"/>
<path fill="#FFFFFF" d="M30.701,57.875c-0.109,0-0.201-0.096-0.201-0.214V57.34c0-0.118,0.092-0.215,0.201-0.215h2.6
	c0.109,0,0.199,0.097,0.199,0.215v0.321c0,0.118-0.09,0.214-0.199,0.214H30.701z"/>
<path id="diamond_3_" fill="#FFFFFF" d="M29.131,41.664l0.536-0.537c0.011-0.01,0.024-0.018,0.038-0.018
	c0.016,0,0.029,0.008,0.039,0.018l0.537,0.537c0.01,0.01,0.016,0.022,0.016,0.037c0,0.014-0.006,0.028-0.016,0.039l-0.537,0.536
	c-0.021,0.021-0.055,0.021-0.077,0l-0.536-0.536C29.109,41.719,29.109,41.684,29.131,41.664z"/>
<path id="pixels_3_" fill="#FFFFFF" d="M30.638,33.402c0-0.794,0.671-1.451,1.536-1.451c0.867,0,1.537,0.657,1.537,1.451
	c0,0.461-0.188,0.803-0.496,1.025h1.456c0.037-0.004,0.072,0.008,0.099,0.033c0.025,0.025,0.039,0.061,0.033,0.098v0.368
	c0.006,0.036-0.008,0.071-0.033,0.097c-0.026,0.026-0.062,0.039-0.099,0.033h-3.823c-0.037,0.006-0.072-0.007-0.098-0.033
	c-0.025-0.025-0.038-0.061-0.034-0.097v-0.368c-0.006-0.037,0.007-0.072,0.033-0.098c0.024-0.025,0.062-0.039,0.097-0.035h0.289
	c-0.309-0.221-0.497-0.564-0.497-1.025V33.402z M33.112,33.505c0-0.526-0.391-0.922-0.935-0.922c-0.543,0-0.935,0.396-0.935,0.922
	c0,0.526,0.39,0.921,0.931,0.921C32.717,34.426,33.112,34.031,33.112,33.505z M33.639,31.456c0.004,0.036-0.008,0.071-0.034,0.097
	s-0.062,0.039-0.097,0.033h-2.662c-0.035,0.006-0.072-0.007-0.097-0.033c-0.026-0.026-0.039-0.061-0.035-0.097v-0.368
	c-0.004-0.036,0.009-0.071,0.035-0.098c0.024-0.025,0.062-0.038,0.097-0.033h2.658c0.035-0.004,0.072,0.008,0.096,0.033
	c0.026,0.027,0.039,0.062,0.035,0.098L33.639,31.456z M33.479,28.244c0.088-0.059,0.159-0.017,0.159,0.088v0.382
	c0.001,0.064-0.033,0.125-0.088,0.158l-0.891,0.569l0.891,0.569c0.055,0.033,0.089,0.093,0.088,0.158v0.382
	c0,0.104-0.07,0.146-0.159,0.088l-1.345-0.861l-1.259,0.804c-0.088,0.06-0.158,0.019-0.158-0.087v-0.381
	c-0.002-0.065,0.032-0.125,0.087-0.157l0.803-0.514l-0.803-0.515c-0.055-0.033-0.089-0.093-0.087-0.158v-0.382
	c0-0.104,0.069-0.146,0.158-0.088l1.259,0.806L33.479,28.244z M30.642,26.698c0-0.874,0.702-1.446,1.542-1.446
	c0.051,0,0.097,0,0.143,0.005c0.035,0.001,0.069,0.016,0.093,0.042c0.024,0.026,0.034,0.062,0.03,0.096v2.177
	c0.479-0.096,0.725-0.452,0.725-0.897c0.008-0.243-0.094-0.477-0.279-0.634c-0.049-0.04-0.076-0.099-0.078-0.161v-0.373
	c0-0.097,0.06-0.15,0.141-0.112c0.476,0.214,0.764,0.692,0.764,1.289c0,0.931-0.659,1.542-1.535,1.542
	c-0.875,0.001-1.548-0.616-1.548-1.529H30.642z M31.93,27.578v-1.69c-0.498,0.083-0.713,0.438-0.713,0.814
	c-0.003,0.471,0.273,0.79,0.709,0.876H31.93z M33.639,24.792c0.004,0.036-0.008,0.071-0.034,0.097
	c-0.026,0.026-0.062,0.039-0.097,0.034h-3.943c-0.037,0.004-0.072-0.008-0.099-0.034c-0.024-0.026-0.038-0.062-0.032-0.097v-0.368
	c-0.006-0.037,0.008-0.073,0.032-0.098c0.026-0.026,0.062-0.038,0.099-0.034h3.943c0.035-0.004,0.07,0.008,0.097,0.034
	c0.026,0.025,0.038,0.061,0.034,0.098V24.792z M31.535,23.23c0.588,0,0.164-1.621,1.279-1.621c0.575,0,0.896,0.501,0.896,1.148
	c0,0.598-0.287,1.075-0.84,1.139c-0.037,0.008-0.077-0.002-0.104-0.027c-0.028-0.026-0.043-0.063-0.037-0.101v-0.362
	c0-0.08,0.044-0.111,0.117-0.14c0.209-0.049,0.296-0.253,0.296-0.508c0-0.307-0.108-0.517-0.331-0.517
	c-0.58,0-0.166,1.621-1.279,1.621c-0.57,0-0.896-0.502-0.896-1.104c0-0.546,0.286-1.017,0.842-1.081
	c0.037-0.009,0.074,0.001,0.104,0.028c0.027,0.026,0.041,0.063,0.036,0.101v0.362c0,0.079-0.044,0.112-0.12,0.139
	c-0.209,0.047-0.293,0.243-0.293,0.45C31.205,23.018,31.313,23.23,31.535,23.23z"/>
<path id="joy_3_" fill="#FFFFFF" d="M30.714,41.537c-0.004-0.035,0.009-0.072,0.035-0.097c0.026-0.026,0.062-0.038,0.097-0.034
	h2.905c0.766,0,1.14,0.356,1.135,1.065c0.003,0.036-0.011,0.072-0.037,0.097c-0.026,0.025-0.062,0.039-0.099,0.035h-0.347
	c-0.036,0.004-0.071-0.01-0.097-0.035c-0.027-0.024-0.04-0.061-0.037-0.097c-0.01-0.294-0.16-0.435-0.52-0.435h-2.904
	c-0.035,0.004-0.07-0.008-0.097-0.033c-0.026-0.026-0.039-0.062-0.035-0.098V41.537z M33.711,39.502
	c-0.004,0.848-0.693,1.532-1.54,1.529c-0.849-0.002-1.533-0.69-1.533-1.537c0.001-0.848,0.688-1.535,1.536-1.535
	c0.41-0.002,0.803,0.159,1.093,0.45C33.556,38.699,33.715,39.094,33.711,39.502z M33.098,39.502
	c0.004-0.375-0.218-0.715-0.563-0.861c-0.344-0.146-0.742-0.07-1.009,0.193c-0.267,0.262-0.347,0.66-0.205,1.007
	c0.142,0.345,0.479,0.572,0.853,0.572c0.245,0.007,0.482-0.086,0.656-0.259C33.006,39.982,33.102,39.748,33.098,39.502z
	 M30.822,35.973c-0.066-0.018-0.112-0.08-0.108-0.15v-0.399c0-0.093,0.056-0.139,0.149-0.107l3.834,1.315
	c0.068,0.019,0.111,0.082,0.105,0.152v0.399c0,0.093-0.055,0.14-0.148,0.108L33.6,36.929l-2.734,1.079
	c-0.09,0.033-0.152-0.007-0.152-0.104v-0.396c-0.006-0.068,0.038-0.129,0.103-0.149l1.909-0.744L30.822,35.973z"/>
<path id="Shape_6_" fill="#FFFFFF" d="M30.001,46.828c0-1.152,0.933-2.086,2.087-2.086c1.151,0,2.085,0.934,2.085,2.086
	s-0.934,2.086-2.085,2.086C30.934,48.914,30.001,47.98,30.001,46.828z M29.305,46.828c0,1.535,1.245,2.781,2.783,2.781
	c1.534,0,2.78-1.246,2.78-2.781c0-1.537-1.246-2.781-2.78-2.781c-0.739,0-1.446,0.293-1.969,0.814
	C29.599,45.383,29.305,46.09,29.305,46.828z"/>
<path id="Combined-Shape_2_" fill="#FFFFFF" d="M32.364,46.271c0.005,0.038-0.007,0.076-0.034,0.104s-0.064,0.04-0.104,0.034h-0.279
	c-0.037,0.006-0.076-0.006-0.104-0.034s-0.041-0.066-0.034-0.104v-0.904c-0.007-0.038,0.007-0.076,0.034-0.104
	c0.027-0.026,0.066-0.04,0.104-0.034h0.141c0.646,0,1.23,0.39,1.477,0.987c0.248,0.597,0.111,1.285-0.347,1.742
	c-0.023,0.032-0.06,0.05-0.099,0.05s-0.075-0.018-0.099-0.05l-0.296-0.296c-0.031-0.022-0.049-0.059-0.049-0.098
	s0.018-0.074,0.049-0.098c0.222-0.223,0.313-0.545,0.238-0.85c-0.072-0.307-0.299-0.551-0.599-0.648V46.271z"/>
<path fill="#619C37" d="M51.998,6.808C52,2.253,12,2.255,12,6.808S52,11.361,51.998,6.808z"/>
<path fill="#CFD8DD" d="M48.988,6.35c0.002-3.148-33.973-3.147-33.973,0C15.016,9.495,48.99,9.495,48.988,6.35z"/>
<radialGradient id="SVGID_2_" cx="89.5439" cy="-13.6641" r="5.9982" gradientTransform="matrix(1 0 0 5.218 -59.5986 77.3055)" gradientUnits="userSpaceOnUse">
	<stop  offset="0" style="stop-color:#B3C2C6"/>
	<stop  offset="0.2131" style="stop-color:#AEBDC1"/>
	<stop  offset="0.4787" style="stop-color:#A0ADB2"/>
	<stop  offset="0.771" style="stop-color:#889499"/>
	<stop  offset="1" style="stop-color:#717B80"/>
	<a:midPointStop  offset="0" style="stop-color:#B3C2C6"/>
	<a:midPointStop  offset="0.6606" style="stop-color:#B3C2C6"/>
	<a:midPointStop  offset="1" style="stop-color:#717B80"/>
</radialGradient>
<path fill="url(#SVGID_2_)" d="M39.102,4.325H24.898l-1.111,2.15c0,1.618,16.426,1.618,16.424,0L39.102,4.325z"/>
<path fill="#B3C2C6" d="M39.102,4.325c0-1.618-14.203-1.618-14.203,0C24.898,5.941,39.102,5.941,39.102,4.325z"/>
<path fill="#CFD8DD" d="M38.482,3.985c0-1.313-12.961-1.313-12.961,0S38.482,5.298,38.482,3.985z"/>
</svg>
