<?xml version="1.0" encoding="utf-8"?>
<!-- Generator: Adobe Illustrator 15.0.0, SVG Export Plug-In . SVG Version: 6.00 Build 0)  -->
<!DOCTYPE svg PUBLIC "-//W3C//DTD SVG 1.1//EN" "http://www.w3.org/Graphics/SVG/1.1/DTD/svg11.dtd" [
	<!ENTITY ns_flows "http://ns.adobe.com/Flows/1.0/">
	<!ENTITY ns_extend "http://ns.adobe.com/Extensibility/1.0/">
	<!ENTITY ns_ai "http://ns.adobe.com/AdobeIllustrator/10.0/">
	<!ENTITY ns_graphs "http://ns.adobe.com/Graphs/1.0/">
]>
<svg version="1.1" id="Layer_1" xmlns:x="&ns_extend;" xmlns:i="&ns_ai;" xmlns:graph="&ns_graphs;"
	 xmlns="http://www.w3.org/2000/svg" xmlns:xlink="http://www.w3.org/1999/xlink" xmlns:a="http://ns.adobe.com/AdobeSVGViewerExtensions/3.0/"
	 x="0px" y="0px" width="64px" height="64px" viewBox="0 0 64 64" enable-background="new 0 0 64 64" xml:space="preserve">
<linearGradient id="SVGID_1_" gradientUnits="userSpaceOnUse" x1="209.0449" y1="-83.5005" x2="209.0449" y2="-128.9145" gradientTransform="matrix(0.7071 -0.7071 0.7071 0.7071 -41.1071 259.4258)">
	<stop  offset="0" style="stop-color:#FFD94D"/>
	<stop  offset="1" style="stop-color:#F5AF31"/>
	<a:midPointStop  offset="0" style="stop-color:#FFD94D"/>
	<a:midPointStop  offset="0.5" style="stop-color:#FFD94D"/>
	<a:midPointStop  offset="1" style="stop-color:#F5AF31"/>
</linearGradient>
<path fill="url(#SVGID_1_)" d="M33.449,7.947c-4.257,4.303-5.736,10.345-4.443,15.858h-0.002c0.206,0.981,0.465,2.313-0.105,2.889
	C21.81,33.855,8.515,47.218,2.213,53.584L2.159,55.83c0,0,1.014,1.605-0.159,5.112c0,0.245,3.297-0.371,6.443-0.403
	c0,0,9.621-9.106,23.294-23.275c0.146-0.151,3.274,3.232,3.409,3.099c1.858-1.857,1.451-2.178,2.917-3.66
	c0.797-0.807,1.886-0.561,3.977-0.23l0,0c5.284,1.048,10.97-0.498,15.061-4.63c6.532-6.599,6.532-17.296-0.001-23.895
	C50.568,1.351,39.982,1.351,33.449,7.947z M53.019,17.458c-1.473,1.487-3.859,1.487-5.33,0c-1.473-1.485-1.472-3.896,0-5.385
	c1.472-1.487,3.858-1.487,5.33,0.002C54.488,13.561,54.488,15.973,53.019,17.458z"/>
<linearGradient id="SVGID_2_" gradientUnits="userSpaceOnUse" x1="232.6074" y1="-85.8027" x2="232.6074" y2="-126.9969" gradientTransform="matrix(0.7071 -0.7071 0.7071 0.7071 -41.1071 259.4258)">
	<stop  offset="0" style="stop-color:#FFC55E"/>
	<stop  offset="1" style="stop-color:#FFD94D"/>
	<a:midPointStop  offset="0" style="stop-color:#FFC55E"/>
	<a:midPointStop  offset="0.5" style="stop-color:#FFC55E"/>
	<a:midPointStop  offset="1" style="stop-color:#FFD94D"/>
</linearGradient>
<path fill="url(#SVGID_2_)" d="M34.549,9.059c-3.002,3.033-4.481,7.023-4.439,11l15.007,15.158
	c3.936,0.042,7.884-1.451,10.887-4.484c5.927-5.985,5.927-15.691,0-21.674C50.078,3.073,40.474,3.073,34.549,9.059z M53.019,17.458
	c-1.473,1.487-3.859,1.487-5.33,0c-1.473-1.485-1.472-3.896,0-5.385c1.472-1.487,3.858-1.487,5.33,0.002
	C54.488,13.561,54.488,15.973,53.019,17.458z"/>
<linearGradient id="SVGID_3_" gradientUnits="userSpaceOnUse" x1="232.8125" y1="-103.4673" x2="241.7179" y2="-112.3727" gradientTransform="matrix(0.7071 -0.7071 0.7071 0.7071 -41.1071 259.4258)">
	<stop  offset="0" style="stop-color:#E09500"/>
	<stop  offset="0.4667" style="stop-color:#FFE173"/>
	<stop  offset="0.5479" style="stop-color:#FDDD6D"/>
	<stop  offset="0.6609" style="stop-color:#F8D15B"/>
	<stop  offset="0.7925" style="stop-color:#F0BD3D"/>
	<stop  offset="0.9371" style="stop-color:#E5A214"/>
	<stop  offset="1" style="stop-color:#E09500"/>
	<a:midPointStop  offset="0" style="stop-color:#E09500"/>
	<a:midPointStop  offset="0.5065" style="stop-color:#E09500"/>
	<a:midPointStop  offset="0.4667" style="stop-color:#FFE173"/>
	<a:midPointStop  offset="0.6364" style="stop-color:#FFE173"/>
	<a:midPointStop  offset="1" style="stop-color:#E09500"/>
</linearGradient>
<path fill="url(#SVGID_3_)" d="M47.091,11.47c-1.803,1.82-1.802,4.771,0,6.592c1.801,1.822,4.72,1.822,6.524,0
	c1.801-1.82,1.802-4.771,0-6.593C51.811,9.649,48.892,9.65,47.091,11.47z M52.925,17.364c-1.421,1.436-3.727,1.436-5.145,0
	c-1.422-1.435-1.422-3.76,0.002-5.198c1.417-1.435,3.722-1.435,5.142,0C54.346,13.604,54.346,15.93,52.925,17.364z"/>
<linearGradient id="SVGID_4_" gradientUnits="userSpaceOnUse" x1="195.9023" y1="-102.5498" x2="195.9023" y2="-106.9187" gradientTransform="matrix(0.7071 -0.7071 0.7071 0.7071 -41.1071 259.4258)">
	<stop  offset="0" style="stop-color:#FFD94D"/>
	<stop  offset="1" style="stop-color:#D68E00"/>
	<a:midPointStop  offset="0" style="stop-color:#FFD94D"/>
	<a:midPointStop  offset="0.5" style="stop-color:#FFD94D"/>
	<a:midPointStop  offset="1" style="stop-color:#D68E00"/>
</linearGradient>
<path fill="url(#SVGID_4_)" d="M35.277,33.441c2.189-2.211,4.411,0.033,2.223,2.247c-1.256,1.268-5.238,5.29-5.684,5.742
	c-0.196,0.198-2.451-0.079-2.576,0.049c-0.371,0.372-1.129,1.14-1.5,1.514c-0.146,0.146-0.291,2.849-0.553,3.112
	c-0.304,0.306-1.916,0.285-2.063,0.433c-0.242,0.246-1.284,1.297-1.42,1.434c-0.087,0.088,0.013,1.094-0.279,1.388
	c-0.31,0.315-2.75,0.389-2.914,0.555c-0.265,0.266-0.896,0.903-1.157,1.168c-0.136,0.138-0.301,2.768-0.463,2.934
	c-0.271,0.275-2.941,0.979-3.077,1.115c-0.286,0.284-0.769,0.775-1.049,1.063c-0.149,0.145-0.522,2.044-0.727,2.252
	c-0.262,0.266-2.033,0.349-2.499,0.699c-0.139,0.102-1.057,1.558-1.179,1.53c-0.911-0.201-1.917-0.137-1.917-0.137
	S34.535,34.194,35.277,33.441z"/>
<linearGradient id="SVGID_5_" gradientUnits="userSpaceOnUse" x1="193.5313" y1="-109.8687" x2="193.5313" y2="-114.8675" gradientTransform="matrix(0.7071 -0.7071 0.7071 0.7071 -41.1071 259.4258)">
	<stop  offset="0" style="stop-color:#FFD94D"/>
	<stop  offset="1" style="stop-color:#D68E00"/>
	<a:midPointStop  offset="0" style="stop-color:#FFD94D"/>
	<a:midPointStop  offset="0.5" style="stop-color:#FFD94D"/>
	<a:midPointStop  offset="1" style="stop-color:#D68E00"/>
</linearGradient>
<path fill="url(#SVGID_5_)" d="M32.249,30.383C31.216,31.427,2,60.942,2,60.942l0.159-5.112c0,0,26.606-26.879,27.641-27.921
	C32.045,25.64,34.495,28.115,32.249,30.383z"/>
<linearGradient id="SVGID_6_" gradientUnits="userSpaceOnUse" x1="219.3857" y1="-97.2227" x2="241.5239" y2="-119.3608" gradientTransform="matrix(0.7071 -0.7071 0.7071 0.7071 -41.1071 259.4258)">
	<stop  offset="0" style="stop-color:#E09500"/>
	<stop  offset="0.4667" style="stop-color:#FFE173"/>
	<stop  offset="0.5479" style="stop-color:#FDDD6D"/>
	<stop  offset="0.6609" style="stop-color:#F8D15B"/>
	<stop  offset="0.7925" style="stop-color:#F0BD3D"/>
	<stop  offset="0.9371" style="stop-color:#E5A214"/>
	<stop  offset="1" style="stop-color:#E09500"/>
	<a:midPointStop  offset="0" style="stop-color:#E09500"/>
	<a:midPointStop  offset="0.5065" style="stop-color:#E09500"/>
	<a:midPointStop  offset="0.4667" style="stop-color:#FFE173"/>
	<a:midPointStop  offset="0.6364" style="stop-color:#FFE173"/>
	<a:midPointStop  offset="1" style="stop-color:#E09500"/>
</linearGradient>
<path fill="url(#SVGID_6_)" d="M56.236,30.967c-2.969,3-6.921,4.628-11.124,4.584l-0.136-0.002L29.779,20.198v-0.136
	c-0.044-4.248,1.566-8.241,4.537-11.24c6.044-6.104,15.876-6.104,21.918,0C62.282,14.929,62.282,24.862,56.236,30.967z
	 M45.251,34.885c3.975,0.006,7.709-1.549,10.518-4.39c5.785-5.846,5.785-15.356,0-21.201c-5.787-5.846-15.2-5.846-20.984,0
	c-2.813,2.84-4.352,6.609-4.346,10.625L45.251,34.885z"/>
</svg>
