<?xml version="1.0" encoding="utf-8"?>
<!-- Generator: Adobe Illustrator 15.0.0, SVG Export Plug-In . SVG Version: 6.00 Build 0)  -->
<!DOCTYPE svg PUBLIC "-//W3C//DTD SVG 1.1//EN" "http://www.w3.org/Graphics/SVG/1.1/DTD/svg11.dtd" [
	<!ENTITY ns_flows "http://ns.adobe.com/Flows/1.0/">
	<!ENTITY ns_extend "http://ns.adobe.com/Extensibility/1.0/">
	<!ENTITY ns_ai "http://ns.adobe.com/AdobeIllustrator/10.0/">
	<!ENTITY ns_graphs "http://ns.adobe.com/Graphs/1.0/">
]>
<svg version="1.1" id="Layer_1" xmlns:x="&ns_extend;" xmlns:i="&ns_ai;" xmlns:graph="&ns_graphs;"
	 xmlns="http://www.w3.org/2000/svg" xmlns:xlink="http://www.w3.org/1999/xlink" xmlns:a="http://ns.adobe.com/AdobeSVGViewerExtensions/3.0/"
	 x="0px" y="0px" width="64px" height="64px" viewBox="0 0 64 64" enable-background="new 0 0 64 64" xml:space="preserve">
<linearGradient id="SVGID_1_" gradientUnits="userSpaceOnUse" x1="-335.5464" y1="208.7637" x2="-312.5785" y2="185.7958" gradientTransform="matrix(0.7071 0.7071 -0.7071 0.7071 414.4004 107.889)">
	<stop  offset="0" style="stop-color:#707B7D"/>
	<stop  offset="0.0993" style="stop-color:#939C9F"/>
	<stop  offset="0.205" style="stop-color:#B2B9BC"/>
	<stop  offset="0.2949" style="stop-color:#C5CBCE"/>
	<stop  offset="0.3576" style="stop-color:#CCD1D4"/>
	<stop  offset="1" style="stop-color:#707B7D"/>
	<a:midPointStop  offset="0" style="stop-color:#707B7D"/>
	<a:midPointStop  offset="0.3704" style="stop-color:#707B7D"/>
	<a:midPointStop  offset="0.3576" style="stop-color:#CCD1D4"/>
	<a:midPointStop  offset="0.5" style="stop-color:#CCD1D4"/>
	<a:midPointStop  offset="1" style="stop-color:#707B7D"/>
</linearGradient>
<path fill="url(#SVGID_1_)" d="M33.64,30.363c-4.547-4.547-6.172-12.125-0.487-17.81l6.919-6.919
	c5.687-5.687,13.263-4.061,17.81,0.485c4.545,4.544,6.171,12.122,0.484,17.809l-6.919,6.919
	C45.761,36.533,38.184,34.907,33.64,30.363z M53.307,10.694c-1.698-1.698-5.436-3.712-8.661-0.485l-6.918,6.918
	c-3.227,3.227-1.213,6.963,0.485,8.662c1.698,1.698,5.435,3.71,8.66,0.484l6.918-6.92C57.018,16.129,55.005,12.394,53.307,10.694z"
	/>
<linearGradient id="SVGID_2_" gradientUnits="userSpaceOnUse" x1="-336.999" y1="236.1973" x2="-311.127" y2="236.1973" gradientTransform="matrix(0.7071 0.7071 -0.7071 0.7071 414.4004 107.889)">
	<stop  offset="0" style="stop-color:#707B7D"/>
	<stop  offset="0.0993" style="stop-color:#939C9F"/>
	<stop  offset="0.205" style="stop-color:#B2B9BC"/>
	<stop  offset="0.2949" style="stop-color:#C5CBCE"/>
	<stop  offset="0.3576" style="stop-color:#CCD1D4"/>
	<stop  offset="1" style="stop-color:#707B7D"/>
	<a:midPointStop  offset="0" style="stop-color:#707B7D"/>
	<a:midPointStop  offset="0.3704" style="stop-color:#707B7D"/>
	<a:midPointStop  offset="0.3576" style="stop-color:#CCD1D4"/>
	<a:midPointStop  offset="0.5" style="stop-color:#CCD1D4"/>
	<a:midPointStop  offset="1" style="stop-color:#707B7D"/>
</linearGradient>
<path fill="url(#SVGID_2_)" d="M6.122,57.881c-4.547-4.546-6.175-12.122-0.487-17.81l6.916-6.916
	c5.688-5.688,13.265-4.061,17.81,0.485c4.545,4.544,6.172,12.121,0.484,17.809l-6.916,6.916
	C18.241,64.053,10.665,62.425,6.122,57.881z M25.787,38.215c-1.698-1.698-5.436-3.713-8.662-0.486l-6.916,6.917
	c-3.227,3.227-1.213,6.962,0.486,8.661c1.698,1.698,5.434,3.712,8.659,0.485l6.917-6.917C29.498,43.648,27.486,39.914,25.787,38.215
	z"/>
<linearGradient id="SVGID_3_" gradientUnits="userSpaceOnUse" x1="-327.7578" y1="216.7393" x2="-320.3652" y2="216.7393" gradientTransform="matrix(0.7071 0.7071 -0.7071 0.7071 414.4004 107.889)">
	<stop  offset="0" style="stop-color:#707B7D"/>
	<stop  offset="0.0808" style="stop-color:#939C9F"/>
	<stop  offset="0.1668" style="stop-color:#B2B9BC"/>
	<stop  offset="0.2399" style="stop-color:#C5CBCE"/>
	<stop  offset="0.2909" style="stop-color:#CCD1D4"/>
	<stop  offset="0.7515" style="stop-color:#707B7D"/>
	<a:midPointStop  offset="0" style="stop-color:#707B7D"/>
	<a:midPointStop  offset="0.3704" style="stop-color:#707B7D"/>
	<a:midPointStop  offset="0.2909" style="stop-color:#CCD1D4"/>
	<a:midPointStop  offset="0.5" style="stop-color:#CCD1D4"/>
	<a:midPointStop  offset="0.7515" style="stop-color:#707B7D"/>
</linearGradient>
<path fill="url(#SVGID_3_)" d="M21.48,42.521c-1.446-1.446-1.589-3.639-0.326-4.901l16.465-16.465
	c1.265-1.265,3.455-1.118,4.9,0.326c1.442,1.443,1.591,3.638,0.327,4.901L26.381,42.849C25.118,44.11,22.923,43.965,21.48,42.521z"
	/>
</svg>
