<?xml version="1.0" encoding="utf-8"?>
<!-- Generator: Adobe Illustrator 15.0.0, SVG Export Plug-In . SVG Version: 6.00 Build 0)  -->
<!DOCTYPE svg PUBLIC "-//W3C//DTD SVG 1.1//EN" "http://www.w3.org/Graphics/SVG/1.1/DTD/svg11.dtd" [
	<!ENTITY ns_flows "http://ns.adobe.com/Flows/1.0/">
	<!ENTITY ns_extend "http://ns.adobe.com/Extensibility/1.0/">
	<!ENTITY ns_ai "http://ns.adobe.com/AdobeIllustrator/10.0/">
	<!ENTITY ns_graphs "http://ns.adobe.com/Graphs/1.0/">
]>
<svg version="1.1" id="Layer_1" xmlns:x="&ns_extend;" xmlns:i="&ns_ai;" xmlns:graph="&ns_graphs;"
	 xmlns="http://www.w3.org/2000/svg" xmlns:xlink="http://www.w3.org/1999/xlink" xmlns:a="http://ns.adobe.com/AdobeSVGViewerExtensions/3.0/"
	 x="0px" y="0px" width="64px" height="64px" viewBox="0 0 64 64" enable-background="new 0 0 64 64" xml:space="preserve">
<path fill="#F59E01" d="M51.993,12.736l-0.115-0.115c-0.247-0.25-0.226-0.625,0.05-0.84c0.273-0.215,0.695-0.188,0.943,0.063
	l0.115,0.115c0.246,0.25,0.225,0.625-0.049,0.84C52.662,13.014,52.24,12.986,51.993,12.736z"/>
<path fill="#F59E01" d="M52.867,12.469l-0.115-0.115c-0.248-0.25-0.226-0.625,0.049-0.84c0.273-0.215,0.695-0.188,0.943,0.063
	l0.115,0.116c0.247,0.249,0.225,0.624-0.049,0.839C53.536,12.746,53.113,12.719,52.867,12.469z"/>
<path fill="#F59E01" d="M51.455,12.193l-0.116-0.116c-0.247-0.249-0.226-0.625,0.05-0.84c0.273-0.214,0.695-0.187,0.943,0.063
	l0.115,0.116c0.246,0.25,0.225,0.625-0.049,0.84C52.124,12.471,51.701,12.442,51.455,12.193z"/>
<path fill="#F9B700" d="M52.193,11.79l-0.115-0.116c-0.247-0.248-0.225-0.625,0.049-0.839c0.274-0.215,0.697-0.187,0.943,0.063
	l0.115,0.116c0.247,0.248,0.225,0.625-0.049,0.839C52.863,12.067,52.44,12.039,52.193,11.79z"/>
<linearGradient id="SVGID_1_" gradientUnits="userSpaceOnUse" x1="126.3467" y1="-205.5513" x2="126.3467" y2="-262.5229" gradientTransform="matrix(0.7071 0.7071 -0.7071 0.7071 -222.457 108.5433)">
	<stop  offset="0.103" style="stop-color:#F59E01"/>
	<stop  offset="0.2953" style="stop-color:#F8B510"/>
	<stop  offset="0.5583" style="stop-color:#FCCD1F"/>
	<stop  offset="0.8004" style="stop-color:#FEDC29"/>
	<stop  offset="1" style="stop-color:#FFE12C"/>
	<a:midPointStop  offset="0.103" style="stop-color:#F59E01"/>
	<a:midPointStop  offset="0.3333" style="stop-color:#F59E01"/>
	<a:midPointStop  offset="1" style="stop-color:#FFE12C"/>
</linearGradient>
<path fill="url(#SVGID_1_)" d="M21.69,62l-0.382-2.307l-0.953-15.189L5.288,43.543L3,43.157l38.717-39.03c0,0,1.334-1.347,2.67,0
	c0,0,5.895,8.664,16.02,16.15c1.336,1.346,0,2.691,0,2.691L21.69,62z"/>
<linearGradient id="SVGID_2_" gradientUnits="userSpaceOnUse" x1="126.3398" y1="-206.9121" x2="126.3398" y2="-262.5229" gradientTransform="matrix(0.7071 0.7071 -0.7071 0.7071 -222.457 108.5433)">
	<stop  offset="0" style="stop-color:#CF0000"/>
	<stop  offset="0.3788" style="stop-color:#E90007"/>
	<stop  offset="0.7319" style="stop-color:#F9000C"/>
	<stop  offset="1" style="stop-color:#FF000E"/>
	<a:midPointStop  offset="0" style="stop-color:#CF0000"/>
	<a:midPointStop  offset="0.3516" style="stop-color:#CF0000"/>
	<a:midPointStop  offset="1" style="stop-color:#FF000E"/>
</linearGradient>
<polygon fill="url(#SVGID_2_)" points="21.309,59.693 19.021,45.85 5.288,43.543 44.387,4.127 60.406,20.277 "/>
<path fill="#FFFFFF" d="M48.813,15.83c-0.605-0.619-0.606-1.623,0-2.242c0.605-0.619,1.586-0.619,2.19,0
	c0.604,0.621,0.604,1.623,0,2.242C50.398,16.451,49.418,16.451,48.813,15.83z"/>
<path fill="#F9B700" d="M50.034,13.896l-0.108-0.109c-0.23-0.232-0.23-0.609,0-0.842s0.604-0.232,0.834,0l0.109,0.11
	c0.23,0.232,0.23,0.608,0,0.841S50.265,14.129,50.034,13.896z"/>
<path fill="#FDCA47" d="M50.173,13.268l-0.109-0.109c-0.229-0.232-0.229-0.609,0-0.842c0.23-0.232,0.604-0.232,0.835,0l0.109,0.11
	c0.23,0.231,0.23,0.608,0,0.841S50.403,13.5,50.173,13.268z"/>
<path fill="#F9B700" d="M50.53,12.858l-0.109-0.11c-0.23-0.232-0.23-0.609,0-0.841c0.23-0.232,0.604-0.232,0.835,0l0.108,0.11
	c0.231,0.232,0.231,0.608,0,0.841C51.135,13.091,50.761,13.091,50.53,12.858z"/>
<path fill="#FDCA47" d="M50.669,12.229l-0.109-0.109c-0.23-0.232-0.23-0.609,0-0.842s0.604-0.232,0.835,0l0.108,0.11
	c0.23,0.232,0.23,0.608,0,0.841S50.898,12.461,50.669,12.229z"/>
<path fill="#F9B700" d="M51.025,11.82l-0.109-0.11c-0.23-0.232-0.23-0.608,0-0.841s0.604-0.232,0.835,0l0.108,0.109
	c0.23,0.232,0.23,0.609,0,0.842S51.256,12.053,51.025,11.82z"/>
<path fill="#FDCA47" d="M51.164,11.191l-0.109-0.111c-0.23-0.232-0.23-0.608,0-0.841s0.604-0.232,0.834,0l0.109,0.11
	c0.23,0.232,0.23,0.609,0,0.842C51.768,11.423,51.395,11.423,51.164,11.191z"/>
<path fill="#F9B700" d="M51.521,10.781l-0.109-0.109c-0.23-0.232-0.23-0.609,0-0.842s0.604-0.232,0.834,0l0.109,0.11
	c0.23,0.231,0.23,0.608,0,0.841S51.752,11.014,51.521,10.781z"/>
<path fill="#FDCA47" d="M51.978,10.473l-0.109-0.11c-0.229-0.232-0.229-0.608,0-0.841c0.231-0.232,0.604-0.232,0.835,0l0.109,0.109
	c0.23,0.232,0.23,0.609,0,0.842S52.208,10.705,51.978,10.473z"/>
<path fill="#F9B700" d="M50.759,14.627l-0.118-0.119c-0.23-0.232-0.23-0.609,0-0.842c0.23-0.231,0.604-0.231,0.834,0l0.118,0.12
	c0.23,0.231,0.23,0.608,0,0.841C51.363,14.859,50.989,14.859,50.759,14.627z"/>
<path fill="#FDCA47" d="M51.402,14.508l-0.117-0.119c-0.23-0.232-0.23-0.609,0-0.842s0.604-0.232,0.834,0l0.118,0.119
	c0.23,0.232,0.23,0.609,0,0.842S51.633,14.74,51.402,14.508z"/>
<path fill="#F9B700" d="M51.811,14.15l-0.117-0.12c-0.23-0.232-0.23-0.608,0-0.841s0.604-0.232,0.834,0l0.118,0.119
	c0.23,0.232,0.23,0.609,0,0.842C52.415,14.382,52.041,14.382,51.811,14.15z"/>
<path fill="#FDCA47" d="M52.455,14.03l-0.118-0.12c-0.23-0.231-0.23-0.608,0-0.84c0.23-0.232,0.604-0.232,0.835,0l0.117,0.119
	c0.23,0.232,0.23,0.608,0,0.841C53.059,14.262,52.686,14.262,52.455,14.03z"/>
<path fill="#F9B700" d="M52.863,13.672l-0.119-0.119c-0.23-0.232-0.23-0.608,0-0.841s0.604-0.232,0.835,0l0.118,0.119
	c0.23,0.232,0.23,0.608,0,0.841S53.094,13.904,52.863,13.672z"/>
<path fill="#FDCA47" d="M53.508,13.553l-0.119-0.119c-0.23-0.232-0.23-0.609,0-0.842c0.23-0.231,0.604-0.231,0.834,0l0.119,0.12
	c0.23,0.232,0.23,0.608,0,0.841S53.738,13.785,53.508,13.553z"/>
<path fill="#F9B700" d="M53.916,13.195l-0.119-0.119c-0.23-0.232-0.23-0.609,0-0.842s0.604-0.232,0.834,0l0.119,0.119
	c0.23,0.232,0.23,0.609,0,0.842S54.146,13.428,53.916,13.195z"/>
<path fill="#FDCA47" d="M54.215,12.729l-0.117-0.119c-0.23-0.232-0.23-0.609,0-0.842s0.604-0.232,0.834,0l0.118,0.119
	c0.23,0.232,0.23,0.609,0,0.842S54.445,12.961,54.215,12.729z"/>
<path fill="#F59E01" d="M55.025,11.203l-0.115-0.115c-0.248-0.25-0.226-0.625,0.049-0.84c0.273-0.215,0.696-0.187,0.943,0.063
	l0.115,0.115c0.246,0.25,0.225,0.625-0.049,0.84C55.694,11.48,55.271,11.453,55.025,11.203z"/>
<path fill="#F59E01" d="M55.563,10.599l-0.115-0.116c-0.247-0.249-0.225-0.625,0.049-0.84c0.274-0.214,0.697-0.186,0.943,0.063
	l0.115,0.117c0.248,0.248,0.226,0.625-0.049,0.839C56.232,10.876,55.811,10.848,55.563,10.599z"/>
<path fill="#F59E01" d="M53.51,11.97l-0.115-0.116c-0.248-0.249-0.226-0.625,0.049-0.84c0.273-0.214,0.695-0.186,0.943,0.063
	l0.115,0.117c0.247,0.248,0.225,0.625-0.049,0.839C54.179,12.247,53.756,12.219,53.51,11.97z"/>
<path fill="#F59E01" d="M54.383,11.703l-0.116-0.117c-0.247-0.248-0.226-0.625,0.05-0.839c0.273-0.215,0.695-0.187,0.943,0.063
	l0.115,0.116c0.246,0.249,0.225,0.625-0.049,0.84C55.052,11.98,54.629,11.951,54.383,11.703z"/>
<path fill="#F59E01" d="M55.875,9.909L55.75,9.783c-0.247-0.248-0.225-0.625,0.049-0.839c0.274-0.215,0.697-0.187,0.943,0.063
	l0.125,0.126c0.248,0.248,0.226,0.625-0.049,0.839C56.545,10.187,56.122,10.158,55.875,9.909z"/>
<path fill="#F59E01" d="M56.215,9.105L56.09,8.979c-0.246-0.248-0.225-0.624,0.049-0.839c0.274-0.214,0.697-0.187,0.943,0.063
	l0.125,0.126c0.248,0.249,0.226,0.625-0.049,0.84C56.885,9.382,56.462,9.354,56.215,9.105z"/>
<path fill="#F59E01" d="M56.805,8.552L56.68,8.426c-0.248-0.249-0.226-0.625,0.049-0.84c0.273-0.214,0.696-0.186,0.943,0.063
	l0.125,0.127c0.246,0.248,0.225,0.624-0.049,0.839C57.474,8.828,57.051,8.801,56.805,8.552z"/>
<path fill="#F59E01" d="M57.145,7.748L57.02,7.621c-0.248-0.248-0.226-0.625,0.049-0.839c0.273-0.215,0.696-0.187,0.943,0.063
	l0.125,0.126c0.247,0.248,0.225,0.625-0.049,0.839C57.813,8.024,57.391,7.996,57.145,7.748z"/>
<path fill="#F59E01" d="M57.732,7.194l-0.124-0.126c-0.247-0.249-0.226-0.625,0.049-0.84s0.696-0.186,0.944,0.063l0.124,0.126
	c0.247,0.249,0.226,0.625-0.049,0.84C58.402,7.471,57.98,7.443,57.732,7.194z"/>
<path fill="#F59E01" d="M58.073,6.39l-0.124-0.126c-0.248-0.249-0.226-0.625,0.049-0.84c0.273-0.215,0.696-0.186,0.943,0.063
	l0.125,0.126c0.246,0.249,0.225,0.625-0.049,0.839C58.742,6.666,58.32,6.639,58.073,6.39z"/>
<path fill="#F59E01" d="M58.662,5.836l-0.124-0.125c-0.247-0.249-0.226-0.625,0.049-0.84s0.696-0.187,0.944,0.063l0.124,0.125
	c0.247,0.25,0.226,0.625-0.049,0.84S58.91,6.086,58.662,5.836z"/>
<path fill="#F59E01" d="M59.365,5.396L59.24,5.271c-0.247-0.249-0.225-0.625,0.049-0.84c0.274-0.214,0.697-0.186,0.943,0.063
	l0.125,0.126c0.247,0.249,0.225,0.625-0.049,0.839C60.034,5.674,59.611,5.646,59.365,5.396z"/>
<path fill="#F59E01" d="M52.701,11.156l-0.115-0.117c-0.247-0.248-0.225-0.625,0.049-0.84c0.274-0.214,0.697-0.186,0.943,0.063
	l0.116,0.117c0.247,0.249,0.225,0.625-0.05,0.839C53.371,11.433,52.949,11.404,52.701,11.156z"/>
<path fill="#F9B700" d="M53.439,10.753l-0.115-0.116c-0.246-0.249-0.225-0.625,0.05-0.84c0.274-0.214,0.696-0.186,0.943,0.063
	l0.115,0.116c0.247,0.249,0.226,0.625-0.05,0.84C54.109,11.029,53.688,11.002,53.439,10.753z"/>
<path fill="#F59E01" d="M53.948,10.118l-0.115-0.116c-0.247-0.249-0.226-0.625,0.049-0.84s0.696-0.186,0.944,0.063l0.115,0.117
	c0.246,0.248,0.225,0.625-0.05,0.839C54.617,10.396,54.195,10.367,53.948,10.118z"/>
<path fill="#F9B700" d="M54.352,9.378l-0.115-0.116c-0.247-0.249-0.225-0.625,0.049-0.84c0.274-0.215,0.697-0.187,0.943,0.063
	l0.115,0.117c0.248,0.248,0.226,0.624-0.049,0.839C55.021,9.654,54.6,9.627,54.352,9.378z"/>
<path fill="#F59E01" d="M54.547,8.57l-0.125-0.126c-0.247-0.249-0.225-0.625,0.049-0.839c0.273-0.215,0.697-0.188,0.943,0.063
	l0.125,0.125c0.246,0.249,0.225,0.625-0.049,0.84C55.216,8.847,54.793,8.818,54.547,8.57z"/>
<path fill="#F9B700" d="M54.752,7.63l-0.125-0.126c-0.247-0.248-0.225-0.625,0.049-0.839c0.274-0.215,0.697-0.187,0.943,0.063
	l0.125,0.126c0.248,0.248,0.226,0.625-0.049,0.839C55.422,7.907,54.999,7.879,54.752,7.63z"/>
<path fill="#F59E01" d="M55.207,6.941l-0.125-0.125c-0.247-0.25-0.225-0.625,0.049-0.84c0.274-0.215,0.697-0.187,0.943,0.063
	l0.125,0.125c0.247,0.249,0.225,0.625-0.049,0.84C55.876,7.219,55.453,7.19,55.207,6.941z"/>
<path fill="#F9B700" d="M55.412,6.002l-0.125-0.126c-0.246-0.249-0.225-0.625,0.049-0.84c0.274-0.214,0.697-0.187,0.944,0.063
	l0.124,0.126c0.248,0.249,0.226,0.625-0.049,0.84C56.082,6.279,55.659,6.25,55.412,6.002z"/>
<path fill="#F59E01" d="M55.867,5.313l-0.125-0.125c-0.246-0.25-0.225-0.625,0.049-0.84c0.274-0.215,0.697-0.187,0.943,0.063
	l0.125,0.125c0.247,0.25,0.225,0.625-0.049,0.84C56.536,5.59,56.113,5.563,55.867,5.313z"/>
<path fill="#F9B700" d="M56.073,4.373l-0.125-0.126c-0.247-0.249-0.226-0.625,0.049-0.839c0.274-0.215,0.696-0.188,0.944,0.062
	l0.124,0.126c0.247,0.249,0.226,0.625-0.049,0.84S56.32,4.621,56.073,4.373z"/>
<path fill="#F59E01" d="M56.527,3.684l-0.124-0.125c-0.247-0.249-0.226-0.625,0.049-0.84s0.696-0.187,0.943,0.063l0.124,0.125
	c0.248,0.25,0.226,0.625-0.049,0.84C57.197,3.961,56.775,3.934,56.527,3.684z"/>
<path fill="#F9B700" d="M57.096,3.109l-0.125-0.125c-0.246-0.25-0.225-0.625,0.049-0.84c0.274-0.215,0.697-0.188,0.943,0.063
	l0.125,0.125c0.248,0.25,0.226,0.625-0.049,0.84C57.766,3.387,57.343,3.358,57.096,3.109z"/>
</svg>
