<?xml version="1.0" encoding="utf-8"?>
<!-- Generator: Adobe Illustrator 15.0.0, SVG Export Plug-In . SVG Version: 6.00 Build 0)  -->
<!DOCTYPE svg PUBLIC "-//W3C//DTD SVG 1.1//EN" "http://www.w3.org/Graphics/SVG/1.1/DTD/svg11.dtd" [
	<!ENTITY ns_flows "http://ns.adobe.com/Flows/1.0/">
	<!ENTITY ns_extend "http://ns.adobe.com/Extensibility/1.0/">
	<!ENTITY ns_ai "http://ns.adobe.com/AdobeIllustrator/10.0/">
	<!ENTITY ns_graphs "http://ns.adobe.com/Graphs/1.0/">
]>
<svg version="1.1" id="Layer_1" xmlns:x="&ns_extend;" xmlns:i="&ns_ai;" xmlns:graph="&ns_graphs;"
	 xmlns="http://www.w3.org/2000/svg" xmlns:xlink="http://www.w3.org/1999/xlink" xmlns:a="http://ns.adobe.com/AdobeSVGViewerExtensions/3.0/"
	 x="0px" y="0px" width="64px" height="64px" viewBox="0 0 64 64" enable-background="new 0 0 64 64" xml:space="preserve">
<linearGradient id="SVGID_1_" gradientUnits="userSpaceOnUse" x1="3" y1="20" x2="61" y2="20">
	<stop  offset="0" style="stop-color:#4E585E"/>
	<stop  offset="0.3201" style="stop-color:#41444E"/>
	<stop  offset="0.7152" style="stop-color:#343240"/>
	<stop  offset="1" style="stop-color:#302C3B"/>
	<a:midPointStop  offset="0" style="stop-color:#4E585E"/>
	<a:midPointStop  offset="0.3636" style="stop-color:#4E585E"/>
	<a:midPointStop  offset="1" style="stop-color:#302C3B"/>
</linearGradient>
<polygon fill="url(#SVGID_1_)" points="3,20 19,4 19,14 61,14 61,26 19,26 19,36 "/>
<path fill="#302C3B" d="M16.76,54.806c0,2.772-2.069,4.897-4.863,4.897H4.601H4.243c-0.336,0-0.522-0.188-0.522-0.523v-14.36
	c0-0.335,0.187-0.522,0.522-0.522h2.503h3.378c2.636,0,4.545,1.776,4.545,4.159c0,0.675-0.207,1.325-0.558,1.88
	C15.721,51.174,16.76,52.813,16.76,54.806z M6.747,47.137v2.606h4.432c0.299-0.299,0.465-0.713,0.465-1.121
	c0-0.864-0.583-1.485-1.519-1.485H6.747z M13.734,54.641c0-1.243-0.721-2.223-2.201-2.223H6.747v4.445h4.765
	C13.008,56.863,13.734,55.879,13.734,54.641z"/>
<path fill="#302C3B" d="M30.606,59.703H28.4c-0.292,0-0.501-0.132-0.589-0.436L27.07,56.94h-5.911l-0.742,2.327
	c-0.088,0.304-0.297,0.436-0.589,0.436h-2.206c-0.38,0-0.562-0.216-0.436-0.589l4.897-14.383c0.088-0.286,0.313-0.435,0.604-0.435
	h2.851c0.291,0,0.517,0.148,0.604,0.435l4.898,14.383C31.168,59.487,30.986,59.703,30.606,59.703z M26.166,54.102l-2.051-6.438
	l-2.051,6.438H26.166z"/>
<path fill="#302C3B" d="M31.323,52c0-4.501,3.361-8,8.027-8c3.438,0,6.377,2.118,7.324,5.211c0.093,0.357-0.095,0.588-0.452,0.588
	h-2.141c-0.291,0-0.468-0.143-0.594-0.413c-0.688-1.496-2.283-2.437-4.138-2.437c-3.021,0-5.001,2.09-5.001,5.051
	c0,2.96,1.98,5.051,5.001,5.051c1.854,0,3.45-0.941,4.138-2.438c0.126-0.27,0.303-0.413,0.594-0.413h2.141
	c0.357,0,0.55,0.215,0.457,0.545C45.766,57.843,42.812,60,39.351,60C34.685,60,31.323,56.5,31.323,52z"/>
<path fill="#302C3B" d="M59.839,59.703h-2.316c-0.27,0-0.479-0.094-0.634-0.319l-5.265-6.917v6.714c0,0.335-0.188,0.522-0.522,0.522
	H49.12c-0.336,0-0.521-0.188-0.521-0.522V44.82c0-0.336,0.186-0.523,0.521-0.523h1.981c0.335,0,0.522,0.188,0.522,0.523v6.287
	l5.045-6.492c0.17-0.219,0.357-0.318,0.627-0.318h2.316c0.424,0,0.589,0.287,0.324,0.633l-5.227,6.863l5.447,7.277
	C60.405,59.422,60.263,59.703,59.839,59.703z"/>
</svg>
