<?xml version="1.0" encoding="utf-8"?>
<!-- Generator: Adobe Illustrator 15.0.0, SVG Export Plug-In . SVG Version: 6.00 Build 0)  -->
<!DOCTYPE svg PUBLIC "-//W3C//DTD SVG 1.1//EN" "http://www.w3.org/Graphics/SVG/1.1/DTD/svg11.dtd" [
	<!ENTITY ns_flows "http://ns.adobe.com/Flows/1.0/">
	<!ENTITY ns_extend "http://ns.adobe.com/Extensibility/1.0/">
	<!ENTITY ns_ai "http://ns.adobe.com/AdobeIllustrator/10.0/">
	<!ENTITY ns_graphs "http://ns.adobe.com/Graphs/1.0/">
]>
<svg version="1.1" id="Layer_1" xmlns:x="&ns_extend;" xmlns:i="&ns_ai;" xmlns:graph="&ns_graphs;"
	 xmlns="http://www.w3.org/2000/svg" xmlns:xlink="http://www.w3.org/1999/xlink" xmlns:a="http://ns.adobe.com/AdobeSVGViewerExtensions/3.0/"
	 x="0px" y="0px" width="64px" height="64px" viewBox="0 0 64 64" enable-background="new 0 0 64 64" xml:space="preserve">
<linearGradient id="SVGID_1_" gradientUnits="userSpaceOnUse" x1="31.9995" y1="2" x2="31.9995" y2="62.0005">
	<stop  offset="0" style="stop-color:#00ABF1"/>
	<stop  offset="0.2292" style="stop-color:#00A7EF"/>
	<stop  offset="0.4667" style="stop-color:#009AE9"/>
	<stop  offset="0.708" style="stop-color:#0086E0"/>
	<stop  offset="0.9504" style="stop-color:#0069D3"/>
	<stop  offset="1" style="stop-color:#0062D0"/>
	<a:midPointStop  offset="0" style="stop-color:#00ABF1"/>
	<a:midPointStop  offset="0.7" style="stop-color:#00ABF1"/>
	<a:midPointStop  offset="1" style="stop-color:#0062D0"/>
</linearGradient>
<path fill="url(#SVGID_1_)" d="M62,54c0,4.399-3.6,8-8,8H10c-4.399,0-8-3.601-8-8V10c0-4.4,3.601-8,8-8h44c4.4,0,8,3.6,8,8V54z"/>
<path fill="#FFFFFF" d="M28.371,28.457c0.146,0.428-0.063,0.673-0.497,0.673h-2.525c-0.333,0-0.573-0.151-0.673-0.498l-0.849-2.663
	h-6.765l-0.849,2.663c-0.101,0.347-0.34,0.498-0.674,0.498h-2.525c-0.435,0-0.643-0.246-0.498-0.673l5.604-16.46
	c0.101-0.327,0.359-0.497,0.692-0.497h3.262c0.334,0,0.592,0.17,0.693,0.497L28.371,28.457L28.371,28.457z M22.791,22.721
	l-2.347-7.367l-2.348,7.367H22.791z"/>
<path fill="#FFFFFF" d="M51.529,23.526c0,3.173-2.367,5.604-5.564,5.604h-8.35h-0.41c-0.383,0-0.598-0.214-0.598-0.598V12.098
	c0-0.384,0.215-0.598,0.598-0.598h2.865h3.865c3.018,0,5.201,2.034,5.201,4.76c0,0.771-0.236,1.516-0.639,2.151
	C50.34,19.37,51.529,21.247,51.529,23.526z M40.07,14.749v2.985h5.072c0.342-0.343,0.531-0.816,0.531-1.284
	c0-0.989-0.666-1.7-1.738-1.7L40.07,14.749z M48.066,23.337c0-1.423-0.824-2.544-2.518-2.544H40.07v5.088h5.453
	C47.236,25.881,48.066,24.754,48.066,23.337z"/>
<path fill="#FFFFFF" d="M10.975,43.345c0-5.15,3.847-9.156,9.187-9.156c3.936,0,7.297,2.425,8.381,5.964
	c0.106,0.409-0.107,0.674-0.518,0.674h-2.449c-0.334,0-0.535-0.164-0.68-0.473c-0.787-1.712-2.613-2.789-4.735-2.789
	c-3.457,0-5.724,2.393-5.724,5.78s2.267,5.78,5.724,5.78c2.122,0,3.948-1.077,4.735-2.79c0.145-0.309,0.346-0.472,0.68-0.472h2.449
	c0.41,0,0.631,0.245,0.523,0.623c-1.045,3.546-4.427,6.014-8.387,6.014C14.822,52.5,10.975,48.495,10.975,43.345z"/>
<path fill="#FFFFFF" d="M53.025,43.345c0,4.955-3.641,8.814-8.502,8.814h-6.359h-0.535c-0.383,0-0.598-0.213-0.598-0.598V35.128
	c0-0.385,0.215-0.599,0.598-0.599h2.865h4.029C49.385,34.529,53.025,38.39,53.025,43.345z M49.688,43.345
	c0-3.256-2.104-5.49-5.164-5.49h-4.029v10.98h4.029C47.584,48.835,49.688,46.6,49.688,43.345z"/>
</svg>
