<?xml version="1.0" encoding="utf-8"?>
<!-- Generator: Adobe Illustrator 15.0.0, SVG Export Plug-In . SVG Version: 6.00 Build 0)  -->
<!DOCTYPE svg PUBLIC "-//W3C//DTD SVG 1.1//EN" "http://www.w3.org/Graphics/SVG/1.1/DTD/svg11.dtd" [
	<!ENTITY ns_flows "http://ns.adobe.com/Flows/1.0/">
	<!ENTITY ns_extend "http://ns.adobe.com/Extensibility/1.0/">
	<!ENTITY ns_ai "http://ns.adobe.com/AdobeIllustrator/10.0/">
	<!ENTITY ns_graphs "http://ns.adobe.com/Graphs/1.0/">
]>
<svg version="1.1" id="Layer_1" xmlns:x="&ns_extend;" xmlns:i="&ns_ai;" xmlns:graph="&ns_graphs;"
	 xmlns="http://www.w3.org/2000/svg" xmlns:xlink="http://www.w3.org/1999/xlink" xmlns:a="http://ns.adobe.com/AdobeSVGViewerExtensions/3.0/"
	 x="0px" y="0px" width="64px" height="64px" viewBox="0 0 64 64" enable-background="new 0 0 64 64" xml:space="preserve">
<linearGradient id="SVGID_1_" gradientUnits="userSpaceOnUse" x1="32.0005" y1="62" x2="32.0005" y2="2.0005">
	<stop  offset="0" style="stop-color:#FF7B00"/>
	<stop  offset="0.2417" style="stop-color:#FB6B00"/>
	<stop  offset="0.7114" style="stop-color:#F04200"/>
	<stop  offset="1" style="stop-color:#E82500"/>
	<a:midPointStop  offset="0" style="stop-color:#FF7B00"/>
	<a:midPointStop  offset="0.5576" style="stop-color:#FF7B00"/>
	<a:midPointStop  offset="1" style="stop-color:#E82500"/>
</linearGradient>
<path fill="url(#SVGID_1_)" d="M53.371,19.292c-1.205,5.751-6.008,7.191-6.008,7.191S46.16,9.876,32.3,2
	c0.548,8.376-7.366,12.563-10.825,19.622c-0.932-5.322-4.067-9.917-9.763-13c1.465,5.667-2.357,10.119-5.043,20
	C-0.15,53.704,15.047,62,31.982,62C60.874,62,64.065,34.757,53.371,19.292z"/>
<linearGradient id="SVGID_2_" gradientUnits="userSpaceOnUse" x1="32.5288" y1="62" x2="32.5288" y2="10.1978">
	<stop  offset="0" style="stop-color:#FFAA00"/>
	<stop  offset="0.1749" style="stop-color:#FFA400"/>
	<stop  offset="0.4181" style="stop-color:#FF9200"/>
	<stop  offset="0.7014" style="stop-color:#FF7400"/>
	<stop  offset="1" style="stop-color:#FF4D00"/>
	<a:midPointStop  offset="0" style="stop-color:#FFAA00"/>
	<a:midPointStop  offset="0.6364" style="stop-color:#FFAA00"/>
	<a:midPointStop  offset="1" style="stop-color:#FF4D00"/>
</linearGradient>
<path fill="url(#SVGID_2_)" d="M53.496,26.717c-3.733,6.06-8.798,6.076-8.798,6.076s-1.217-12.834-10.055-22.596
	C32.065,21.225,23.419,21.588,19.454,32c-1.491-4.5,0.643-8.878-4.813-15.795c1.627,8.833-3.955,12.667-5.354,22.583
	C7.485,51.578,19.517,62,31.982,62C53.605,62,60.071,41.192,53.496,26.717z"/>
<linearGradient id="SVGID_3_" gradientUnits="userSpaceOnUse" x1="-318.3252" y1="62" x2="-318.3252" y2="17.5435" gradientTransform="matrix(-1 0 0 1 -286.2363 0)">
	<stop  offset="0" style="stop-color:#FFB500"/>
	<stop  offset="0.0869" style="stop-color:#FFBA00"/>
	<stop  offset="0.6742" style="stop-color:#FFDA00"/>
	<stop  offset="1" style="stop-color:#FFE600"/>
	<a:midPointStop  offset="0" style="stop-color:#FFB500"/>
	<a:midPointStop  offset="0.4242" style="stop-color:#FFB500"/>
	<a:midPointStop  offset="1" style="stop-color:#FFE600"/>
</linearGradient>
<path fill="url(#SVGID_3_)" d="M31.982,62C20.021,62,7.837,46.459,14.949,31.376c0.73,6.438,5.783,6.875,5.783,6.875
	c3.592-12.438,11.797-12.875,14.733-20.708c4.625,7.834,6.568,21.516,6.568,21.516s4.693-0.307,8.753-4.474
	C53.425,46.46,46.501,62,31.982,62z"/>
<linearGradient id="SVGID_4_" gradientUnits="userSpaceOnUse" x1="-317.5796" y1="60" x2="-317.5796" y2="25.7515" gradientTransform="matrix(-1 0 0 1 -286.2363 0)">
	<stop  offset="0.2424" style="stop-color:#FFF2AB"/>
	<stop  offset="0.3596" style="stop-color:#FFF1A5"/>
	<stop  offset="0.5236" style="stop-color:#FFEF92"/>
	<stop  offset="0.7153" style="stop-color:#FFEC74"/>
	<stop  offset="0.9263" style="stop-color:#FFE74B"/>
	<stop  offset="1" style="stop-color:#FFE53B"/>
	<a:midPointStop  offset="0.2424" style="stop-color:#FFF2AB"/>
	<a:midPointStop  offset="0.6349" style="stop-color:#FFF2AB"/>
	<a:midPointStop  offset="1" style="stop-color:#FFE53B"/>
</linearGradient>
<path fill="url(#SVGID_4_)" d="M32.32,60c-9.443,0-15.849-11.312-15.199-16.937c0,0,6.97,7.689,7.132,0.636
	c0.133-5.823,3.299-12.761,11.151-17.948c-1.644,6.874,3.744,10.614,2.808,20c0,0,3.495,1.728,6.689-2.438
	C47.329,49.597,43.618,60,32.32,60z"/>
</svg>
