<?xml version="1.0" encoding="utf-8"?>
<!-- Generator: Adobe Illustrator 19.0.0, SVG Export Plug-In . SVG Version: 6.00 Build 0)  -->
<svg version="1.1" id="Layer_1" xmlns="http://www.w3.org/2000/svg" xmlns:xlink="http://www.w3.org/1999/xlink" x="0px" y="0px"
	 width="64px" height="64px" viewBox="0 0 64 64" enable-background="new 0 0 64 64" xml:space="preserve">
<linearGradient id="SVGID_1_" gradientUnits="userSpaceOnUse" x1="32" y1="2" x2="32" y2="62">
	<stop  offset="0" style="stop-color:#00ABF1"/>
	<stop  offset="0.2292" style="stop-color:#00A7EF"/>
	<stop  offset="0.4667" style="stop-color:#009AE9"/>
	<stop  offset="0.7079" style="stop-color:#0086E0"/>
	<stop  offset="0.9504" style="stop-color:#0069D3"/>
	<stop  offset="1" style="stop-color:#0062D0"/>
</linearGradient>
<path fill="url(#SVGID_1_)" d="M62,54c0,4.4-3.6,8-8,8H10c-4.4,0-8-3.6-8-8V10c0-4.4,3.6-8,8-8h44c4.4,0,8,3.6,8,8V54z"/>
<rect x="14" y="14" fill="#FFFFFF" width="16" height="4"/>
<polygon fill="#FFFFFF" points="14,22 14,26 20,26 20,30 24,30 24,26 30,26 30,22 "/>
<path fill="#FFFFFF" d="M49.521,18.986c-0.322-0.488-0.736-0.883-1.195-1.232c-0.131-0.1-0.197-0.145-0.33-0.238l-0.266-0.213
	c-0.172-0.145-0.332-0.291-0.482-0.44c-0.598-0.594-0.973-1.213-1.146-1.746c-0.154-0.457-0.172-0.84-0.15-1.117h-3.234
	L40.65,24.809c-0.607-0.172-1.283-0.27-2.002-0.27C36.08,24.539,34,25.762,34,27.27c0,1.508,2.08,2.73,4.648,2.73
	c2.426,0,4.414-1.092,4.627-2.484l1.916-10.023c0.262,0.213,0.541,0.416,0.838,0.6c0.23,0.142,0.469,0.275,0.713,0.402
	c0.123,0.061,0.248,0.119,0.371,0.18c0.08,0.041,0.236,0.119,0.31,0.164c0.381,0.209,0.754,0.475,1.025,0.773
	c0.275,0.299,0.453,0.643,0.502,1.02c0.053,0.375-0.023,0.779-0.178,1.158c-0.316,0.768-0.885,1.426-1.4,1.949
	c-0.525,0.524-1.021,0.92-1.375,1.188c-0.357,0.268-0.574,0.406-0.574,0.406s0.238-0.109,0.639-0.328
	c0.398-0.221,0.965-0.551,1.592-1.014c0.619-0.467,1.33-1.059,1.859-1.904c0.26-0.424,0.461-0.926,0.484-1.48
	C50.027,20.051,49.843,19.469,49.521,18.986z"/>
<path fill="#FFFFFF" d="M27.66,46.529l1.32-1.123l-1.955-2.213l-1.4,1.256l-2.705-2.762c1.654-0.607,2.82-2.031,2.82-3.688
	c0-2.205-2.066-4-4.603-4c-2.537,0-4.604,1.795-4.604,4c0,0.902,0.35,1.732,0.934,2.404C15.972,41.377,15,42.922,15,44.668
	C15,47.607,17.751,50,21.136,50c1.623,0,3.17-0.566,4.307-1.535L26.927,50h0.012L29,47.902L27.66,46.529z M19.601,38
	c0-0.736,0.689-1.334,1.535-1.334c0.848,0,1.537,0.598,1.537,1.334c0,0.736-0.689,1.334-1.537,1.334
	C20.291,39.334,19.601,38.736,19.601,38z M21.136,47.334c-1.691,0-3.068-1.195-3.068-2.666c0-0.971,0.602-1.82,1.494-2.285
	l3.891,4.025C22.875,46.986,22.031,47.334,21.136,47.334z"/>
<polygon fill="#FFFFFF" points="50,34 46,34 34,50 38,50 "/>
<path fill="#FFFFFF" d="M38,42c-2.205,0-4-1.795-4-4c0-2.207,1.795-4,4-4c2.207,0,4,1.793,4,4C42,40.205,40.207,42,38,42z M38,36
	c-1.102,0-2,0.896-2,2c0,1.102,0.898,2,2,2c1.104,0,2-0.898,2-2C40,36.896,39.103,36,38,36z"/>
<path fill="#FFFFFF" d="M46,50c-2.205,0-4-1.793-4-4c0-2.207,1.795-4,4-4c2.207,0,4,1.793,4,4C50,48.207,48.207,50,46,50z M46,44
	c-1.102,0-2,0.898-2,2c0,1.104,0.898,2,2,2c1.104,0,2-0.896,2-2C48,44.898,47.103,44,46,44z"/>
</svg>
