<?xml version="1.0" encoding="utf-8"?>
<!-- Generator: Adobe Illustrator 15.0.0, SVG Export Plug-In . SVG Version: 6.00 Build 0)  -->
<!DOCTYPE svg PUBLIC "-//W3C//DTD SVG 1.1//EN" "http://www.w3.org/Graphics/SVG/1.1/DTD/svg11.dtd" [
	<!ENTITY ns_flows "http://ns.adobe.com/Flows/1.0/">
	<!ENTITY ns_extend "http://ns.adobe.com/Extensibility/1.0/">
	<!ENTITY ns_ai "http://ns.adobe.com/AdobeIllustrator/10.0/">
	<!ENTITY ns_graphs "http://ns.adobe.com/Graphs/1.0/">
]>
<svg version="1.1" id="Layer_1" xmlns:x="&ns_extend;" xmlns:i="&ns_ai;" xmlns:graph="&ns_graphs;"
	 xmlns="http://www.w3.org/2000/svg" xmlns:xlink="http://www.w3.org/1999/xlink" xmlns:a="http://ns.adobe.com/AdobeSVGViewerExtensions/3.0/"
	 x="0px" y="0px" width="64px" height="64px" viewBox="0 0 64 64" enable-background="new 0 0 64 64" xml:space="preserve">
<linearGradient id="SVGID_1_" gradientUnits="userSpaceOnUse" x1="2" y1="32" x2="32" y2="32">
	<stop  offset="0" style="stop-color:#FFC800"/>
	<stop  offset="1" style="stop-color:#FFE14D"/>
	<a:midPointStop  offset="0" style="stop-color:#FFC800"/>
	<a:midPointStop  offset="0.5" style="stop-color:#FFC800"/>
	<a:midPointStop  offset="1" style="stop-color:#FFE14D"/>
</linearGradient>
<path fill="url(#SVGID_1_)" d="M22.992,21.93l6.179-4.691l-3.033,19.584c-8.416-0.121-12.922,0.616-12.922,0.616
	s-1.494-5.212-1.027-9.567c0.375-3.523,2.715-3.957,2.715-3.957l3.51,3.037c-2.168-9.83,0.826-18.266,0.826-18.266
	S9.97,17.379,6.955,24.592C3.859,32,2,40.818,2,40.818l6.4,5.914c0,0,5.648-1.664,9.963-1.998c4.129-0.318,7.906-0.398,7.906-0.398
	v8.48L32,62V2L22.992,21.93z"/>
<linearGradient id="SVGID_2_" gradientUnits="userSpaceOnUse" x1="-2057.3701" y1="32" x2="-2027.3701" y2="32" gradientTransform="matrix(-1 0 0 1 -1995.3701 0)">
	<stop  offset="0" style="stop-color:#FFE14D"/>
	<stop  offset="1" style="stop-color:#FFCC00"/>
	<a:midPointStop  offset="0" style="stop-color:#FFE14D"/>
	<a:midPointStop  offset="0.5" style="stop-color:#FFE14D"/>
	<a:midPointStop  offset="1" style="stop-color:#FFCC00"/>
</linearGradient>
<path fill="url(#SVGID_2_)" d="M41.008,21.93l-6.179-4.691l3.032,19.584c8.416-0.121,12.923,0.616,12.923,0.616
	s1.493-5.212,1.026-9.567c-0.375-3.523-2.715-3.957-2.715-3.957l-3.51,3.037c2.168-9.83-0.826-18.266-0.826-18.266
	s9.27,8.693,12.285,15.906C60.141,32,62,40.818,62,40.818l-6.4,5.914c0,0-5.647-1.664-9.963-1.998
	c-4.129-0.318-7.906-0.398-7.906-0.398v8.48L32,62V2L41.008,21.93z"/>
<polygon fill="#F9C802" points="29.475,14.864 24.478,18.644 22.992,21.93 29.171,17.239 "/>
<polygon fill="#F9C802" points="34.525,14.864 34.829,17.239 41.008,21.93 39.522,18.644 "/>
<path fill="#F9C802" d="M12.437,26.497c-0.006,0.053-0.008,0.108-0.013,0.162c0.706-2.413,2.48-2.744,2.48-2.744l3.51,3.037
	c-0.222-1.006-0.378-1.993-0.5-2.962l-2.796-2.45C15.118,21.54,12.807,22.974,12.437,26.497z"/>
<path fill="#F9C802" d="M48.883,21.54l-2.797,2.45c-0.122,0.97-0.277,1.956-0.5,2.962l3.51-3.037c0,0,1.775,0.331,2.48,2.744
	c-0.005-0.054-0.007-0.109-0.013-0.162C51.193,22.974,48.883,21.54,48.883,21.54z"/>
<path fill="#F9C802" d="M55.305,45.357c0,0-5.577-1.664-9.838-1.998c-4.078-0.318-7.736-0.398-7.736-0.398v1.375
	c0,0,3.777,0.08,7.906,0.398c4.315,0.334,9.963,1.998,9.963,1.998l6.4-5.914c0,0-0.115-0.544-0.333-1.47L55.305,45.357z"/>
<path fill="#F9C802" d="M26.269,42.961c0,0-3.658,0.08-7.736,0.398c-4.261,0.334-9.838,1.998-9.838,1.998l-6.362-6.009
	C2.115,40.274,2,40.818,2,40.818l6.4,5.914c0,0,5.648-1.664,9.963-1.998c4.129-0.318,7.906-0.398,7.906-0.398V42.961z"/>
<polygon fill="#F9C802" points="26.269,50.104 26.269,52.816 32,62 37.73,52.816 37.73,50.104 32,59.288 "/>
</svg>
