<?xml version="1.0" encoding="utf-8"?>
<!-- Generator: Adobe Illustrator 19.0.0, SVG Export Plug-In . SVG Version: 6.00 Build 0)  -->
<svg version="1.1" id="Layer_1" xmlns="http://www.w3.org/2000/svg" xmlns:xlink="http://www.w3.org/1999/xlink" x="0px" y="0px"
	 width="64px" height="64px" viewBox="0 0 64 64" enable-background="new 0 0 64 64" xml:space="preserve">
<linearGradient id="SVGID_1_" gradientUnits="userSpaceOnUse" x1="32" y1="2" x2="32" y2="62">
	<stop  offset="0" style="stop-color:#BC2AF7"/>
	<stop  offset="0.2161" style="stop-color:#B928F3"/>
	<stop  offset="0.4401" style="stop-color:#B121E6"/>
	<stop  offset="0.6677" style="stop-color:#A217D2"/>
	<stop  offset="0.8963" style="stop-color:#8E08B5"/>
	<stop  offset="0.9949" style="stop-color:#8400A6"/>
</linearGradient>
<path fill="url(#SVGID_1_)" d="M62,54c0,4.4-3.6,8-8,8H10c-4.4,0-8-3.6-8-8V10c0-4.4,3.6-8,8-8h44c4.4,0,8,3.6,8,8V54z"/>
<path fill="#FFFFFF" d="M50.084,21.773c-0.322,9.314-7.692,16.917-16.881,17.533V36.76c7.848-0.604,13.997-6.948,14.391-14.944
	l0.026-0.524h-2.404l-0.021,0.479c-0.285,6.646-5.4,11.956-11.992,12.554v-2.223c5.495-0.584,9.598-4.843,9.83-10.288l0.022-0.521
	H40.65l-0.04,0.455c-0.364,4.104-3.441,7.35-7.407,7.908v-2.607c2.664-0.516,4.606-2.559,4.889-5.204l0.06-0.553h-2.417l-0.07,0.417
	c-0.225,1.341-1.166,2.402-2.462,2.831v-5.248h-2.409v5.248c-1.296-0.43-2.237-1.49-2.461-2.831l-0.07-0.417h-2.417l0.06,0.553
	c0.284,2.645,2.225,4.688,4.889,5.204v2.607c-3.967-0.559-7.043-3.804-7.406-7.907l-0.041-0.456h-2.406l0.022,0.521
	c0.233,5.445,4.336,9.704,9.83,10.288v2.223c-6.592-0.598-11.706-5.907-11.991-12.554l-0.021-0.479h-2.404l0.026,0.524
	c0.394,7.996,6.543,14.34,14.39,14.944v2.547c-9.189-0.616-16.56-8.22-16.883-17.533l-0.017-0.482h-2.405l0.017,0.517
	c0.358,10.648,8.787,19.312,19.288,19.934v4.691c-0.963,0.321-1.779,0.992-2.031,1.65c-1.82,0.527-2.896,1.465-2.896,2.539
	c0,1.885,4.693,2.031,6.131,2.031c1.438,0,6.131-0.146,6.131-2.031c0-1.074-1.076-2.012-2.895-2.539
	c-0.252-0.658-1.068-1.329-2.031-1.65v-4.691c10.499-0.621,18.929-9.285,19.289-19.934l0.018-0.517h-2.409L50.084,21.773z"/>
<path fill="#FFFFFF" d="M12.775,19.814c0.31,0,0.595-0.125,0.802-0.351c0.147-0.161,0.323-0.45,0.323-0.914
	c0-0.694-0.184-1.113-0.346-1.483c-0.199-0.453-0.356-0.811-0.109-1.79l0.486-1.929l-1.341,1.47
	c-0.055,0.061-1.339,1.499-1.058,3.787C11.629,19.398,12.231,19.814,12.775,19.814z"/>
<path fill="#FFFFFF" d="M17.67,19.814c0.31,0,0.595-0.125,0.802-0.351c0.147-0.161,0.323-0.45,0.323-0.914
	c0-0.694-0.184-1.113-0.346-1.483c-0.199-0.453-0.356-0.811-0.109-1.79l0.486-1.929l-1.34,1.47
	c-0.055,0.061-1.339,1.499-1.058,3.787C16.524,19.398,17.125,19.814,17.67,19.814z"/>
<path fill="#FFFFFF" d="M22.243,19.814c0.31,0,0.595-0.125,0.802-0.351c0.147-0.161,0.323-0.45,0.323-0.914
	c0-0.694-0.184-1.113-0.346-1.483c-0.199-0.453-0.356-0.811-0.109-1.79l0.486-1.929l-1.34,1.47
	c-0.055,0.061-1.339,1.499-1.058,3.788C21.098,19.398,21.699,19.814,22.243,19.814z"/>
<path fill="#FFFFFF" d="M27.188,19.814c0.31,0,0.595-0.125,0.802-0.351c0.148-0.161,0.323-0.45,0.323-0.914
	c0-0.694-0.184-1.113-0.346-1.483c-0.199-0.453-0.357-0.811-0.11-1.79l0.486-1.929l-1.34,1.47c-0.055,0.061-1.339,1.499-1.058,3.788
	C26.042,19.398,26.644,19.814,27.188,19.814z"/>
<path fill="#FFFFFF" d="M32.065,17.814c0.31,0,0.595-0.125,0.802-0.351c0.147-0.161,0.323-0.45,0.323-0.914
	c0-0.694-0.184-1.113-0.346-1.483c-0.199-0.453-0.356-0.812-0.11-1.79l0.486-1.929l-1.34,1.47c-0.055,0.061-1.339,1.499-1.058,3.788
	C30.919,17.398,31.521,17.814,32.065,17.814z"/>
<path fill="#FFFFFF" d="M36.943,19.814c0.309,0,0.595-0.125,0.802-0.351c0.148-0.161,0.323-0.45,0.323-0.914
	c0-0.694-0.184-1.113-0.346-1.483c-0.199-0.453-0.356-0.811-0.109-1.79l0.486-1.929l-1.341,1.47
	c-0.055,0.061-1.339,1.499-1.059,3.788C35.797,19.398,36.398,19.814,36.943,19.814z"/>
<path fill="#FFFFFF" d="M41.887,19.814c0.31,0,0.595-0.125,0.802-0.351c0.147-0.161,0.323-0.45,0.323-0.914
	c0-0.694-0.184-1.113-0.346-1.483c-0.199-0.453-0.356-0.811-0.109-1.79l0.486-1.929l-1.341,1.47
	c-0.055,0.061-1.339,1.499-1.058,3.787C40.741,19.398,41.343,19.814,41.887,19.814z"/>
<path fill="#FFFFFF" d="M46.461,19.814c0.31,0,0.595-0.125,0.802-0.351c0.147-0.161,0.323-0.45,0.323-0.914
	c0-0.694-0.184-1.113-0.346-1.483c-0.199-0.453-0.356-0.811-0.109-1.79l0.486-1.929l-1.341,1.47
	c-0.055,0.061-1.339,1.499-1.058,3.787C45.315,19.398,45.917,19.814,46.461,19.814z"/>
<path fill="#FFFFFF" d="M51.354,19.814c0.31,0,0.595-0.125,0.802-0.351c0.147-0.161,0.323-0.45,0.323-0.914
	c0-0.694-0.184-1.113-0.346-1.483c-0.199-0.453-0.356-0.811-0.109-1.79l0.486-1.929l-1.341,1.47
	c-0.055,0.061-1.339,1.499-1.058,3.787C50.208,19.398,50.81,19.814,51.354,19.814z"/>
</svg>
