<?xml version="1.0" encoding="utf-8"?>
<!-- Generator: Adobe Illustrator 15.0.0, SVG Export Plug-In . SVG Version: 6.00 Build 0)  -->
<!DOCTYPE svg PUBLIC "-//W3C//DTD SVG 1.1//EN" "http://www.w3.org/Graphics/SVG/1.1/DTD/svg11.dtd" [
	<!ENTITY ns_flows "http://ns.adobe.com/Flows/1.0/">
	<!ENTITY ns_extend "http://ns.adobe.com/Extensibility/1.0/">
	<!ENTITY ns_ai "http://ns.adobe.com/AdobeIllustrator/10.0/">
	<!ENTITY ns_graphs "http://ns.adobe.com/Graphs/1.0/">
]>
<svg version="1.1" id="Layer_1" xmlns:x="&ns_extend;" xmlns:i="&ns_ai;" xmlns:graph="&ns_graphs;"
	 xmlns="http://www.w3.org/2000/svg" xmlns:xlink="http://www.w3.org/1999/xlink" xmlns:a="http://ns.adobe.com/AdobeSVGViewerExtensions/3.0/"
	 x="0px" y="0px" width="64px" height="64px" viewBox="0 0 64 64" enable-background="new 0 0 64 64" xml:space="preserve">
<polygon fill="#4E5E67" points="14,54 2,42 2,2 14,14 "/>
<rect x="14" y="14" fill="#302C3B" width="48" height="40"/>
<polygon fill="#1A1626" points="62,14 14,14 2,2 50,2 "/>
<path fill="#F2F5F7" d="M16,12h40l-8-8H8L16,12z"/>
<polygon fill="#CFD8DD" points="48,4 8,4 10,6 48,6 54,12 56,12 "/>
<polygon fill="#FFE12C" points="13,26 62,26 62,32 14,32 "/>
<polygon fill="#F9B700" points="13,26.5 62,26.5 62,31.5 14,31.5 "/>
<polygon fill="#FFE12C" points="14,32 2,20 2,14 14,26 "/>
<polygon fill="#FFCC12" points="14,31.5 2,19.5 2,14.5 14,26.5 "/>
<rect x="42" y="36" fill="#F9B700" width="12" height="6"/>
<polygon fill="#F9B700" points="13,36 17.5,36 17.5,42 14,42 "/>
<rect x="60" y="36" fill="#F9B700" width="2" height="6"/>
<polygon fill="#FFE12C" points="12,34 12,40 14,42 14,36 "/>
<polygon fill="#FFE12C" points="6,28 6,33.5 10,38 10,32 "/>
<polygon fill="#FFE12C" points="2,24 2,30 4,32 4,26 "/>
<rect x="14" y="54" fill="#4E5E67" width="48" height="8"/>
<polygon fill="#6E8189" points="14,62 2,50 2,42 14,54 "/>
<rect x="14" y="56" fill="#6E8189" width="6" height="2"/>
<polygon fill="#4E5E67" points="12,54 8,50 8,48 12,52 "/>
<polygon fill="#4E5E67" points="14,60 10,56 10,54 14,58 "/>
<polygon fill="#4E5E67" points="8,54 4,50 4,48 8,52 "/>
<polygon fill="#4E5E67" points="6,48 2,44 2,42 6,46 "/>
<rect x="20" y="60" fill="#6E8189" width="6" height="2"/>
<rect x="32" y="60" fill="#6E8189" width="6" height="2"/>
<rect x="44" y="58" fill="#6E8189" width="6" height="2"/>
<rect x="23" y="58" fill="#6E8189" width="6" height="2"/>
<rect x="54" y="60" fill="#6E8189" width="6" height="2"/>
<rect x="36" y="56" fill="#6E8189" width="6" height="2"/>
<rect x="48" y="54" fill="#6E8189" width="6" height="2"/>
<rect x="56" y="56" fill="#6E8189" width="6" height="2"/>
<polygon fill="#F9B700" points="24,36 24,54 36,54 36,36 "/>
<polygon fill="#EA8800" points="24.75,37 24.75,54 26.25,54 26.25,37 "/>
<polygon fill="#EA8800" points="33.75,37 33.75,54 35.25,54 35.25,37 "/>
<polygon fill="#EA8800" points="24.75,36.75 24.75,38.25 35.25,38.25 35.25,36.75 "/>
<polygon fill="#EA8800" points="24.75,41.25 24.75,42.75 35.25,42.75 35.25,41.25 "/>
<polygon fill="#EA8800" points="24.75,45.75 24.75,47.25 35.25,47.25 35.25,45.75 "/>
<path fill="#EA8800" d="M26.762,53h6.479c0.68,0,0.68,1,0,1h-6.479C26.08,54,26.08,53,26.762,53z"/>
<path fill="#EA8800" d="M26.762,51.5h6.479c0.68,0,0.68,1,0,1h-6.479C26.08,52.5,26.08,51.5,26.762,51.5z"/>
<path fill="#EA8800" d="M26.762,50h6.479c0.68,0,0.68,1,0,1h-6.479C26.08,51,26.08,50,26.762,50z"/>
<path fill="#F9B700" d="M26,37.5c0,0.667-1,0.667-1,0S26,36.833,26,37.5z"/>
<path fill="#F9B700" d="M30.5,37.5c0,0.667-1,0.667-1,0S30.5,36.833,30.5,37.5z"/>
<path fill="#F9B700" d="M35,37.5c0,0.667-1,0.667-1,0S35,36.833,35,37.5z"/>
<path fill="#F9B700" d="M31.227,37h2.047c0.637,0,0.637,1,0,1h-2.047C30.592,38,30.592,37,31.227,37z"/>
<path fill="#F9B700" d="M26.727,37h2.047c0.637,0,0.637,1,0,1h-2.047C26.092,38,26.092,37,26.727,37z"/>
<path fill="#F9B700" d="M35,38.727v2.047c0,0.636-1,0.636-1,0v-2.047C34,38.091,35,38.091,35,38.727z"/>
<path fill="#F9B700" d="M30.5,42c0,0.667-1,0.667-1,0S30.5,41.333,30.5,42z"/>
<path fill="#F9B700" d="M31.227,41.5h2.047c0.637,0,0.637,1,0,1h-2.047C30.592,42.5,30.592,41.5,31.227,41.5z"/>
<path fill="#F9B700" d="M26.727,41.5h2.047c0.637,0,0.637,1,0,1h-2.047C26.092,42.5,26.092,41.5,26.727,41.5z"/>
<path fill="#F9B700" d="M34.5,42.5c-0.666,0-0.666-1,0-1C35.168,41.5,35.168,42.5,34.5,42.5z"/>
<path fill="#F9B700" d="M25.5,42.5c-0.666,0-0.666-1,0-1C26.168,41.5,26.168,42.5,25.5,42.5z"/>
<path fill="#F9B700" d="M30.5,46.5c0,0.667-1,0.667-1,0S30.5,45.833,30.5,46.5z"/>
<path fill="#F9B700" d="M31.227,46h2.047c0.637,0,0.637,1,0,1h-2.047C30.592,47,30.592,46,31.227,46z"/>
<path fill="#F9B700" d="M26.727,46h2.047c0.637,0,0.637,1,0,1h-2.047C26.092,47,26.092,46,26.727,46z"/>
<path fill="#F9B700" d="M34.5,47c-0.666,0-0.666-1,0-1C35.168,46,35.168,47,34.5,47z"/>
<path fill="#F9B700" d="M25.5,47c-0.666,0-0.666-1,0-1C26.168,46,26.168,47,25.5,47z"/>
<path fill="#F9B700" d="M35,47.727v2.047c0,0.636-1,0.636-1,0v-2.047C34,47.091,35,47.091,35,47.727z"/>
<path fill="#F9B700" d="M35,43.227v2.047c0,0.636-1,0.636-1,0v-2.047C34,42.591,35,42.591,35,43.227z"/>
<path fill="#F9B700" d="M26,38.727v2.047c0,0.636-1,0.636-1,0v-2.047C25,38.091,26,38.091,26,38.727z"/>
<path fill="#F9B700" d="M26,47.727v2.047c0,0.636-1,0.636-1,0v-2.047C25,47.091,26,47.091,26,47.727z"/>
<path fill="#F9B700" d="M35,50.977v2.047c0,0.636-1,0.636-1,0v-2.047C34,50.341,35,50.341,35,50.977z"/>
<path fill="#F9B700" d="M26,50.977v2.047c0,0.636-1,0.636-1,0v-2.047C25,50.341,26,50.341,26,50.977z"/>
<path fill="#F9B700" d="M26,43.227v2.047c0,0.636-1,0.636-1,0v-2.047C25,42.591,26,42.591,26,43.227z"/>
<polygon fill="#1A1626" points="32,54 30,46.5 28,54 "/>
<polygon fill="#302C3B" points="31,54 30,46.5 28,54 "/>
<path fill="#F9B700" d="M58.208,38.035C57.929,37.151,57.273,37.283,57,36.5c-0.273,0.783-0.93,0.651-1.208,1.535
	c-1.09,0.287-0.992,2.38-0.09,2.369c0,0-0.021,1.096,1.298,1.096s1.298-1.096,1.298-1.096C59.2,40.415,59.298,38.322,58.208,38.035z
	"/>
<path fill="#F9B700" d="M40.208,38.035C39.929,37.151,39.273,37.283,39,36.5c-0.273,0.783-0.93,0.651-1.208,1.535
	c-1.09,0.287-0.992,2.38-0.09,2.369c0,0-0.021,1.096,1.298,1.096s1.298-1.096,1.298-1.096C41.2,40.415,41.298,38.322,40.208,38.035z
	"/>
<path fill="#F9B700" d="M22.208,38.035C21.929,37.151,21.273,37.283,21,36.5c-0.273,0.783-0.93,0.651-1.208,1.535
	c-1.09,0.287-0.992,2.38-0.09,2.369c0,0-0.021,1.096,1.298,1.096s1.298-1.096,1.298-1.096C23.2,40.415,23.298,38.322,22.208,38.035z
	"/>
<rect x="25.5" y="54" fill="#3E4A52" width="9" height="2"/>
<path fill="#6E8189" d="M30,55.5c-0.666,0-0.666-1,0-1C30.667,54.5,30.667,55.5,30,55.5z"/>
</svg>
