<?xml version="1.0" encoding="utf-8"?>
<!-- Generator: Adobe Illustrator 19.0.0, SVG Export Plug-In . SVG Version: 6.00 Build 0)  -->
<svg version="1.1" id="Layer_1" xmlns="http://www.w3.org/2000/svg" xmlns:xlink="http://www.w3.org/1999/xlink" x="0px" y="0px"
	 width="64px" height="64px" viewBox="0 0 64 64" enable-background="new 0 0 64 64" xml:space="preserve">
<linearGradient id="SVGID_1_" gradientUnits="userSpaceOnUse" x1="32" y1="2" x2="32" y2="62">
	<stop  offset="0" style="stop-color:#BC2AF7"/>
	<stop  offset="0.2161" style="stop-color:#B928F3"/>
	<stop  offset="0.4401" style="stop-color:#B121E6"/>
	<stop  offset="0.6677" style="stop-color:#A217D2"/>
	<stop  offset="0.8963" style="stop-color:#8E08B5"/>
	<stop  offset="0.9949" style="stop-color:#8400A6"/>
</linearGradient>
<path fill="url(#SVGID_1_)" d="M62,54c0,4.4-3.6,8-8,8H10c-4.4,0-8-3.6-8-8V10c0-4.4,3.6-8,8-8h44c4.4,0,8,3.6,8,8V54z"/>
<path fill-rule="evenodd" clip-rule="evenodd" fill="#FFFFFF" d="M48.829,30.402c-1.244-2.052-3.351-4.239-6.6-4.217
	c-4.57,0.031-6.354,3.665-7.879,6.709c-0.476,0.948-1.236,2.412-2.307,2.62c-1.271,0.247-1.982-0.483-2.818-0.831
	c1.748-1.415,3.316-3.066,3.586-5.687c0.433-4.222-2.174-6.877-5.637-7.156c-3.351-0.271-6.049,0.648-8.201,1.853
	c-0.58,0.325-1.756,1.033-1.795,1.598c-0.027,0.408,1.449,2.392,2.629,5.175c1.527-0.982,3.692-2.777,6.149-3.003
	c4.27-0.391,4.607,3.756,0.387,4.537c-1.752,0.323-3.301-0.13-4.742-0.383c0.811,1.866-0.42,5.377,1.025,6.645
	c1.357,1.191,3.262-0.24,4.805-0.191c2.244,0.071,3.83,2.541,2.756,4.984c-1.383,3.142-6.723,3.931-9.932,1.917
	c-6.133-3.85-5.029-11.118-6.15-11.118c-1.48,0-2.172,18.147,11.02,18.147c5.279,0,9.725-3.969,9.289-9.584
	c-0.125-1.634-0.746-3.083-1.152-4.345c1.086,0.117,2.152,0.023,3.141-0.127c-1.355,2.323-0.471,6.688,0.703,8.434
	c1.762,2.619,5.959,3.521,9.035,1.47c2.551-1.702,4.244-4.5,4.484-8.435C50.843,35.792,50.214,32.682,48.829,30.402z M41.975,42.671
	c-3.039,0.322-4.965-1.27-5.191-4.792c2.543-1.046,3.383-5.468,6.471-7.285c2.674-1.572,4.182,1.621,4.357,3.898
	C47.942,38.77,45.616,42.284,41.975,42.671z"/>
<path fill-rule="evenodd" clip-rule="evenodd" fill="#FFFFFF" d="M36.817,19.668c0,0,3.689-2.539,3.684-3.866
	C40.495,14.486,36.817,12,36.817,12s-3.678,2.475-3.686,3.802C33.128,17.141,36.817,19.668,36.817,19.668z"/>
<path fill-rule="evenodd" clip-rule="evenodd" fill="#FFFFFF" d="M35.887,24.971c5.248,1.181,11.916-2.908,11.916-4.281
	c0-1.75-3.152-3.414-3.715-4.153c-1.691,2.176-4.74,4.945-8.65,3.897c-3.906-1.047-5.51-6.198-5.51-6.198
	c-0.527,1.665-0.52,3.679,0.064,5.24C30.87,21.815,33.387,24.409,35.887,24.971z"/>
</svg>
