<?xml version="1.0" encoding="utf-8"?>
<!-- Generator: Adobe Illustrator 15.0.0, SVG Export Plug-In . SVG Version: 6.00 Build 0)  -->
<!DOCTYPE svg PUBLIC "-//W3C//DTD SVG 1.1//EN" "http://www.w3.org/Graphics/SVG/1.1/DTD/svg11.dtd" [
	<!ENTITY ns_flows "http://ns.adobe.com/Flows/1.0/">
	<!ENTITY ns_extend "http://ns.adobe.com/Extensibility/1.0/">
	<!ENTITY ns_ai "http://ns.adobe.com/AdobeIllustrator/10.0/">
	<!ENTITY ns_graphs "http://ns.adobe.com/Graphs/1.0/">
]>
<svg version="1.1" id="Layer_1" xmlns:x="&ns_extend;" xmlns:i="&ns_ai;" xmlns:graph="&ns_graphs;"
	 xmlns="http://www.w3.org/2000/svg" xmlns:xlink="http://www.w3.org/1999/xlink" xmlns:a="http://ns.adobe.com/AdobeSVGViewerExtensions/3.0/"
	 x="0px" y="0px" width="64px" height="64px" viewBox="0 0 64 64" enable-background="new 0 0 64 64" xml:space="preserve">
<linearGradient id="SVGID_1_" gradientUnits="userSpaceOnUse" x1="32.0005" y1="62" x2="32.0005" y2="2.0005">
	<stop  offset="0" style="stop-color:#AFB7BA"/>
	<stop  offset="0.1173" style="stop-color:#BAC1C4"/>
	<stop  offset="0.4612" style="stop-color:#D5DADD"/>
	<stop  offset="0.7666" style="stop-color:#E5EAED"/>
	<stop  offset="1" style="stop-color:#EBEFF2"/>
	<a:midPointStop  offset="0" style="stop-color:#AFB7BA"/>
	<a:midPointStop  offset="0.35" style="stop-color:#AFB7BA"/>
	<a:midPointStop  offset="1" style="stop-color:#EBEFF2"/>
</linearGradient>
<path fill="url(#SVGID_1_)" d="M62,32C62,15.435,48.566,2,32,2C15.432,2,2,15.434,2,32c0,16.568,13.432,30,30,30
	C48.566,62,62,48.568,62,32z"/>
<path fill="#302C3B" d="M30.119,4.998h0.748c0.117,0,0.182,0.064,0.182,0.182v4.994c0,0.116-0.064,0.182-0.182,0.182h-0.688
	c-0.116,0-0.181-0.065-0.181-0.182V6.058l-1.036,0.569c-0.124,0.073-0.218,0.014-0.218-0.124V5.835c0-0.097,0.039-0.169,0.125-0.218
	l1.025-0.562C29.967,5.012,30.034,4.998,30.119,4.998z"/>
<path fill="#302C3B" d="M31.74,10.177V9.711c0-0.086,0.027-0.154,0.092-0.219l1.693-1.708c0.33-0.336,0.613-0.728,0.613-1.097
	c0-0.442-0.264-0.683-0.652-0.683c-0.379,0-0.641,0.163-0.701,0.533C32.768,6.651,32.707,6.71,32.6,6.71h-0.682
	c-0.114,0-0.178-0.063-0.17-0.186c0.086-1.057,0.891-1.526,1.715-1.526c0.854,0,1.709,0.531,1.709,1.689
	c0,0.601-0.376,1.192-0.83,1.641L33.284,9.36h1.794c0.114,0,0.178,0.064,0.178,0.178v0.639c0,0.115-0.063,0.179-0.178,0.179h-3.16
	C31.804,10.355,31.74,10.292,31.74,10.177z"/>
<path fill="#302C3B" d="M9.27,32.207h0.002l-1.557,2.356c-0.051,0.079-0.122,0.114-0.214,0.114H6.715
	c-0.143,0-0.193-0.094-0.115-0.214l1.02-1.495c-1.091-0.025-1.847-0.769-1.847-1.824c0-1.073,0.783-1.824,1.905-1.824
	c1.128,0,1.905,0.751,1.905,1.824C9.583,31.553,9.471,31.915,9.27,32.207z M7.678,31.997c0.49,0,0.872-0.318,0.872-0.853
	c0-0.533-0.382-0.852-0.872-0.852c-0.484,0-0.873,0.324-0.873,0.852C6.805,31.673,7.193,31.997,7.678,31.997z"/>
<path fill="#302C3B" d="M33.905,57.174c0,1.074-0.782,1.824-1.905,1.824c-1.129,0-1.905-0.75-1.905-1.824
	c0-0.408,0.112-0.77,0.313-1.061l-0.001-0.002l1.556-2.355c0.051-0.078,0.122-0.114,0.213-0.114h0.787
	c0.143,0,0.193,0.095,0.114,0.214l-1.019,1.495C33.149,55.377,33.905,56.119,33.905,57.174z M32.873,57.174
	c0-0.527-0.389-0.852-0.873-0.852c-0.49,0-0.873,0.318-0.873,0.852S31.51,58.026,32,58.026
	C32.484,58.026,32.873,57.701,32.873,57.174z"/>
<path fill="#302C3B" d="M58.195,32.957c0,1.127-0.888,1.721-1.879,1.721c-0.934,0-1.777-0.529-1.869-1.535
	c-0.008-0.122,0.063-0.186,0.177-0.186h0.683c0.107,0,0.16,0.059,0.185,0.166c0.067,0.34,0.362,0.549,0.825,0.549
	c0.543,0,0.845-0.291,0.845-0.715s-0.302-0.715-0.845-0.715h-0.382c-0.114,0-0.179-0.064-0.179-0.18V31.68
	c0-0.084,0.026-0.149,0.076-0.221l0.881-1.17h-1.886c-0.114,0-0.179-0.064-0.179-0.179v-0.611c0-0.114,0.064-0.179,0.179-0.179
	h2.946c0.115,0,0.178,0.064,0.178,0.179v0.556c0,0.084-0.025,0.15-0.076,0.221l-0.893,1.176
	C57.673,31.653,58.195,32.178,58.195,32.957z"/>
<circle fill="#7A848A" cx="53.991" cy="44.697" r="0.803"/>
<circle fill="#7A848A" cx="10.008" cy="19.304" r="0.804"/>
<circle fill="#7A848A" cx="19.302" cy="53.991" r="0.803"/>
<circle fill="#7A848A" cx="44.697" cy="10.008" r="0.804"/>
<circle fill="#7A848A" cx="44.696" cy="53.991" r="0.804"/>
<circle fill="#7A848A" cx="19.302" cy="10.01" r="0.803"/>
<circle fill="#7A848A" cx="10.008" cy="44.697" r="0.803"/>
<circle fill="#7A848A" cx="53.991" cy="19.303" r="0.804"/>
<linearGradient id="SVGID_2_" gradientUnits="userSpaceOnUse" x1="283.4941" y1="-1367.9336" x2="283.4941" y2="-1386.0566" gradientTransform="matrix(1 0 0 -1 -251.4941 -1337.542)">
	<stop  offset="0" style="stop-color:#272430"/>
	<stop  offset="0.5663" style="stop-color:#3C4049"/>
	<stop  offset="1" style="stop-color:#4E585E"/>
	<a:midPointStop  offset="0" style="stop-color:#272430"/>
	<a:midPointStop  offset="0.5333" style="stop-color:#272430"/>
	<a:midPointStop  offset="1" style="stop-color:#4E585E"/>
</linearGradient>
<path fill="url(#SVGID_2_)" d="M33.334,48.072c0,0.59-2.668,0.59-2.668-0.001L30,31.999c0-0.887,0.895-1.607,2-1.607
	c1.104,0.001,2,0.72,2,1.608L33.334,48.072z"/>
<linearGradient id="SVGID_3_" gradientUnits="userSpaceOnUse" x1="221.9473" y1="-1381.9082" x2="221.9473" y2="-1356.9423" gradientTransform="matrix(1 0 0 -1 -189.9473 -1346.8721)">
	<stop  offset="0" style="stop-color:#4E585E"/>
	<stop  offset="0.4337" style="stop-color:#3C4049"/>
	<stop  offset="1" style="stop-color:#272430"/>
	<a:midPointStop  offset="0" style="stop-color:#4E585E"/>
	<a:midPointStop  offset="0.4667" style="stop-color:#4E585E"/>
	<a:midPointStop  offset="1" style="stop-color:#272430"/>
</linearGradient>
<path fill="url(#SVGID_3_)" d="M33.34,32c0,0.74-0.601,1.34-1.34,1.34c-0.74,0-1.34-0.6-1.34-1.34l0.283-20.491
	c0.076-0.547,2.037-0.547,2.113,0L33.34,32z"/>
</svg>
