<?xml version="1.0" encoding="utf-8"?>
<!-- Generator: Adobe Illustrator 15.0.0, SVG Export Plug-In . SVG Version: 6.00 Build 0)  -->
<!DOCTYPE svg PUBLIC "-//W3C//DTD SVG 1.1//EN" "http://www.w3.org/Graphics/SVG/1.1/DTD/svg11.dtd" [
	<!ENTITY ns_flows "http://ns.adobe.com/Flows/1.0/">
	<!ENTITY ns_extend "http://ns.adobe.com/Extensibility/1.0/">
	<!ENTITY ns_ai "http://ns.adobe.com/AdobeIllustrator/10.0/">
	<!ENTITY ns_graphs "http://ns.adobe.com/Graphs/1.0/">
]>
<svg version="1.1" id="Layer_1" xmlns:x="&ns_extend;" xmlns:i="&ns_ai;" xmlns:graph="&ns_graphs;"
	 xmlns="http://www.w3.org/2000/svg" xmlns:xlink="http://www.w3.org/1999/xlink" xmlns:a="http://ns.adobe.com/AdobeSVGViewerExtensions/3.0/"
	 x="0px" y="0px" width="64px" height="64px" viewBox="0 0 64 64" enable-background="new 0 0 64 64" xml:space="preserve">
<linearGradient id="SVGID_1_" gradientUnits="userSpaceOnUse" x1="32.0005" y1="62" x2="32.0005" y2="2.0005">
	<stop  offset="0" style="stop-color:#AFB7BA"/>
	<stop  offset="0.1173" style="stop-color:#BAC1C4"/>
	<stop  offset="0.4612" style="stop-color:#D5DADD"/>
	<stop  offset="0.7666" style="stop-color:#E5EAED"/>
	<stop  offset="1" style="stop-color:#EBEFF2"/>
	<a:midPointStop  offset="0" style="stop-color:#AFB7BA"/>
	<a:midPointStop  offset="0.35" style="stop-color:#AFB7BA"/>
	<a:midPointStop  offset="1" style="stop-color:#EBEFF2"/>
</linearGradient>
<circle fill="url(#SVGID_1_)" cx="32" cy="32" r="30"/>
<path fill="#302C3B" d="M30.119,4.998h0.747c0.117,0,0.183,0.064,0.183,0.182v4.994c0,0.116-0.065,0.182-0.183,0.182h-0.688
	c-0.115,0-0.182-0.065-0.182-0.182V6.058L28.96,6.627c-0.124,0.073-0.217,0.014-0.217-0.124V5.835c0-0.097,0.037-0.169,0.124-0.218
	l1.025-0.562C29.964,5.012,30.033,4.998,30.119,4.998z"/>
<path fill="#302C3B" d="M31.739,10.177V9.711c0-0.086,0.028-0.154,0.092-0.219l1.693-1.708c0.33-0.336,0.613-0.728,0.613-1.097
	c0-0.442-0.264-0.683-0.652-0.683c-0.377,0-0.639,0.163-0.7,0.533c-0.02,0.113-0.079,0.172-0.186,0.172h-0.682
	c-0.115,0-0.179-0.063-0.172-0.186c0.087-1.057,0.893-1.526,1.717-1.526c0.854,0,1.707,0.531,1.707,1.689
	c0,0.601-0.375,1.192-0.83,1.641L33.283,9.36h1.793c0.115,0,0.178,0.064,0.178,0.178v0.639c0,0.115-0.063,0.179-0.178,0.179h-3.159
	C31.802,10.355,31.739,10.292,31.739,10.177z"/>
<path fill="#302C3B" d="M9.268,32.207h0.002l-1.557,2.356c-0.051,0.079-0.122,0.114-0.214,0.114H6.714
	c-0.143,0-0.194-0.094-0.115-0.214l1.02-1.495c-1.091-0.025-1.847-0.769-1.847-1.824c0-1.073,0.783-1.824,1.905-1.824
	c1.128,0,1.905,0.751,1.905,1.824C9.582,31.553,9.469,31.915,9.268,32.207z M7.676,31.997c0.49,0,0.873-0.318,0.873-0.853
	c0-0.533-0.382-0.852-0.873-0.852c-0.484,0-0.873,0.324-0.873,0.852C6.804,31.673,7.192,31.997,7.676,31.997z"/>
<path fill="#302C3B" d="M33.904,57.174c0,1.074-0.783,1.824-1.906,1.824c-1.128,0-1.905-0.75-1.905-1.824
	c0-0.408,0.112-0.77,0.313-1.061l-0.001-0.002l1.555-2.355c0.051-0.078,0.123-0.114,0.215-0.114h0.787
	c0.141,0,0.192,0.095,0.114,0.214l-1.02,1.495C33.148,55.377,33.904,56.119,33.904,57.174z M32.871,57.174
	c0-0.527-0.388-0.852-0.872-0.852c-0.49,0-0.872,0.318-0.872,0.852s0.382,0.853,0.872,0.853
	C32.483,58.026,32.871,57.701,32.871,57.174z"/>
<path fill="#302C3B" d="M58.193,32.957c0,1.127-0.887,1.721-1.877,1.721c-0.936,0-1.779-0.529-1.869-1.535
	c-0.008-0.122,0.061-0.186,0.176-0.186h0.684c0.105,0,0.158,0.059,0.184,0.166c0.068,0.34,0.361,0.549,0.826,0.549
	c0.541,0,0.844-0.291,0.844-0.715s-0.303-0.715-0.844-0.715h-0.383c-0.115,0-0.178-0.064-0.178-0.18V31.68
	c0-0.084,0.025-0.149,0.076-0.221l0.879-1.17h-1.885c-0.115,0-0.18-0.064-0.18-0.179v-0.611c0-0.114,0.064-0.179,0.18-0.179h2.945
	c0.115,0,0.18,0.064,0.18,0.179v0.556c0,0.084-0.027,0.15-0.076,0.221l-0.895,1.176C57.672,31.653,58.193,32.178,58.193,32.957z"/>
<path fill="#7A848A" d="M54.391,44.002c0.385,0.221,0.516,0.712,0.293,1.096c-0.221,0.385-0.713,0.517-1.096,0.294
	c-0.387-0.22-0.516-0.712-0.295-1.097C53.516,43.91,54.006,43.778,54.391,44.002z"/>
<circle fill="#7A848A" cx="10.007" cy="19.304" r="0.803"/>
<circle fill="#7A848A" cx="19.301" cy="53.991" r="0.803"/>
<circle fill="#7A848A" cx="44.695" cy="10.008" r="0.803"/>
<circle fill="#7A848A" cx="44.694" cy="53.991" r="0.804"/>
<circle fill="#7A848A" cx="19.301" cy="10.01" r="0.803"/>
<circle fill="#7A848A" cx="10.007" cy="44.697" r="0.803"/>
<path fill="#7A848A" d="M54.391,19.999c-0.383,0.223-0.877,0.091-1.096-0.294c-0.225-0.384-0.092-0.877,0.293-1.098
	c0.385-0.222,0.875-0.091,1.096,0.294C54.906,19.286,54.775,19.778,54.391,19.999z"/>
<linearGradient id="SVGID_2_" gradientUnits="userSpaceOnUse" x1="-2622.6826" y1="-432.3906" x2="-2622.6826" y2="-450.5127" gradientTransform="matrix(-0.5 -0.866 0.866 -0.5 -903.4979 -2456.2415)">
	<stop  offset="0" style="stop-color:#272430"/>
	<stop  offset="0.5663" style="stop-color:#3C4049"/>
	<stop  offset="1" style="stop-color:#4E585E"/>
	<a:midPointStop  offset="0" style="stop-color:#272430"/>
	<a:midPointStop  offset="0.5333" style="stop-color:#272430"/>
	<a:midPointStop  offset="1" style="stop-color:#4E585E"/>
</linearGradient>
<path fill="url(#SVGID_2_)" d="M17.415,38.881c-0.511,0.295,0.822,2.605,1.333,2.31l14.253-7.458
	c0.768-0.444,0.943-1.58,0.391-2.536c-0.553-0.956-1.624-1.373-2.393-0.929L17.415,38.881z"/>
<linearGradient id="SVGID_3_" gradientUnits="userSpaceOnUse" x1="221.9463" y1="-1381.9082" x2="221.9463" y2="-1356.9423" gradientTransform="matrix(1 0 0 -1 -189.9473 -1346.8721)">
	<stop  offset="0" style="stop-color:#4E585E"/>
	<stop  offset="0.4337" style="stop-color:#3C4049"/>
	<stop  offset="1" style="stop-color:#272430"/>
	<a:midPointStop  offset="0" style="stop-color:#4E585E"/>
	<a:midPointStop  offset="0.4667" style="stop-color:#4E585E"/>
	<a:midPointStop  offset="1" style="stop-color:#272430"/>
</linearGradient>
<path fill="url(#SVGID_3_)" d="M33.338,32c0,0.74-0.6,1.34-1.339,1.34S30.66,32.74,30.66,32l0.281-20.491
	c0.076-0.547,2.039-0.547,2.116,0L33.338,32z"/>
</svg>
