<?xml version="1.0" encoding="utf-8"?>
<!-- Generator: Adobe Illustrator 15.0.0, SVG Export Plug-In . SVG Version: 6.00 Build 0)  -->
<!DOCTYPE svg PUBLIC "-//W3C//DTD SVG 1.1//EN" "http://www.w3.org/Graphics/SVG/1.1/DTD/svg11.dtd" [
	<!ENTITY ns_flows "http://ns.adobe.com/Flows/1.0/">
	<!ENTITY ns_extend "http://ns.adobe.com/Extensibility/1.0/">
	<!ENTITY ns_ai "http://ns.adobe.com/AdobeIllustrator/10.0/">
	<!ENTITY ns_graphs "http://ns.adobe.com/Graphs/1.0/">
]>
<svg version="1.1" id="Layer_1" xmlns:x="&ns_extend;" xmlns:i="&ns_ai;" xmlns:graph="&ns_graphs;"
	 xmlns="http://www.w3.org/2000/svg" xmlns:xlink="http://www.w3.org/1999/xlink" xmlns:a="http://ns.adobe.com/AdobeSVGViewerExtensions/3.0/"
	 x="0px" y="0px" width="64px" height="64px" viewBox="0 0 64 64" enable-background="new 0 0 64 64" xml:space="preserve">
<linearGradient id="SVGID_1_" gradientUnits="userSpaceOnUse" x1="20.5781" y1="41.7432" x2="43.1338" y2="41.7432">
	<stop  offset="0.2303" style="stop-color:#CFD8DD"/>
	<stop  offset="0.5477" style="stop-color:#C7D2D6"/>
	<stop  offset="1" style="stop-color:#B3C2C6"/>
	<a:midPointStop  offset="0.2303" style="stop-color:#CFD8DD"/>
	<a:midPointStop  offset="0.61" style="stop-color:#CFD8DD"/>
	<a:midPointStop  offset="1" style="stop-color:#B3C2C6"/>
</linearGradient>
<path fill="url(#SVGID_1_)" d="M20.578,21.486v36.368c0,5.527,22.556,5.527,22.556,0V21.486H20.578z"/>
<radialGradient id="SVGID_2_" cx="30.6445" cy="23.0688" r="12.4789" gradientTransform="matrix(1.0037 0 0 0.3917 1.1403 14.0324)" gradientUnits="userSpaceOnUse">
	<stop  offset="0.6303" style="stop-color:#F7F1ED"/>
	<stop  offset="1" style="stop-color:#D9E2E8"/>
	<a:midPointStop  offset="0.6303" style="stop-color:#F7F1ED"/>
	<a:midPointStop  offset="0.5152" style="stop-color:#F7F1ED"/>
	<a:midPointStop  offset="1" style="stop-color:#D9E2E8"/>
</radialGradient>
<path fill="url(#SVGID_2_)" d="M43.647,22.897c1.359-3.896-18.708-6.321-23.069-1.411c-1.48,1.667,0.428,2.49-0.213,4.827
	c-1.767,6.438,3.481-1.958,3.063,2.083c-0.568,5.489-2.274,13.104,0.418,12.448c1.411-0.344-0.031-5.969,1.066-10.406
	c0.796-3.219,4.514-3.131,5.269-0.979c3.366,9.592,9.517-7.713,10.393-0.063c0.516,4.5-1.326,16.782,1.903,15.438
	c3.426-1.427-2.01-13.169,0.656-16.25C45.405,25.959,42.339,26.65,43.647,22.897z"/>
<path fill="#CFD8DD" d="M40.911,22.623c-2.747,4.068-14.928,3.666-17.612,0.221c-1.547-1.982,3.905-3.535,8.557-2.382
	C37.731,21.918,41.776,21.338,40.911,22.623z"/>
<linearGradient id="SVGID_3_" gradientUnits="userSpaceOnUse" x1="31.5903" y1="20.3008" x2="31.5903" y2="2">
	<stop  offset="0" style="stop-color:#FF7B00"/>
	<stop  offset="0.2417" style="stop-color:#FB6B00"/>
	<stop  offset="0.7114" style="stop-color:#F04200"/>
	<stop  offset="1" style="stop-color:#E82500"/>
	<a:midPointStop  offset="0" style="stop-color:#FF7B00"/>
	<a:midPointStop  offset="0.5576" style="stop-color:#FF7B00"/>
	<a:midPointStop  offset="1" style="stop-color:#E82500"/>
</linearGradient>
<path fill="url(#SVGID_3_)" d="M31.298,2c-1.165,6.547-11.813,18.301-0.097,18.301C41.679,20.301,36.985,6.241,31.298,2z"/>
<linearGradient id="SVGID_4_" gradientUnits="userSpaceOnUse" x1="31.5386" y1="20.3008" x2="31.5386" y2="4.5">
	<stop  offset="0" style="stop-color:#FFAA00"/>
	<stop  offset="0.1749" style="stop-color:#FFA400"/>
	<stop  offset="0.4181" style="stop-color:#FF9200"/>
	<stop  offset="0.7014" style="stop-color:#FF7400"/>
	<stop  offset="1" style="stop-color:#FF4D00"/>
	<a:midPointStop  offset="0" style="stop-color:#FFAA00"/>
	<a:midPointStop  offset="0.6364" style="stop-color:#FFAA00"/>
	<a:midPointStop  offset="1" style="stop-color:#FF4D00"/>
</linearGradient>
<path fill="url(#SVGID_4_)" d="M32.015,4.5c-0.788,3.364-10.333,15.801-0.813,15.801C39.999,20.301,34.721,7.478,32.015,4.5z"/>
<linearGradient id="SVGID_5_" gradientUnits="userSpaceOnUse" x1="-317.4976" y1="20.3008" x2="-317.4976" y2="6.9141" gradientTransform="matrix(-1 0 0 1 -286.2363 0)">
	<stop  offset="0" style="stop-color:#FFB500"/>
	<stop  offset="0.0869" style="stop-color:#FFBA00"/>
	<stop  offset="0.6742" style="stop-color:#FFDA00"/>
	<stop  offset="1" style="stop-color:#FFE600"/>
	<a:midPointStop  offset="0" style="stop-color:#FFB500"/>
	<a:midPointStop  offset="0.4242" style="stop-color:#FFB500"/>
	<a:midPointStop  offset="1" style="stop-color:#FFE600"/>
</linearGradient>
<path fill="url(#SVGID_5_)" d="M31.201,20.301c-6.56,0-0.997-10.087,1.425-13.387C32.88,13.167,37.295,20.301,31.201,20.301z"/>
<linearGradient id="SVGID_6_" gradientUnits="userSpaceOnUse" x1="-317.5376" y1="19.6904" x2="-317.5376" y2="9.2441" gradientTransform="matrix(-1 0 0 1 -286.2363 0)">
	<stop  offset="0.2424" style="stop-color:#FFF2AB"/>
	<stop  offset="0.3596" style="stop-color:#FFF1A5"/>
	<stop  offset="0.5236" style="stop-color:#FFEF92"/>
	<stop  offset="0.7153" style="stop-color:#FFEC74"/>
	<stop  offset="0.9263" style="stop-color:#FFE74B"/>
	<stop  offset="1" style="stop-color:#FFE53B"/>
	<a:midPointStop  offset="0.2424" style="stop-color:#FFF2AB"/>
	<a:midPointStop  offset="0.6349" style="stop-color:#FFF2AB"/>
	<a:midPointStop  offset="1" style="stop-color:#FFE53B"/>
</linearGradient>
<path fill="url(#SVGID_6_)" d="M31.304,19.69c-2.891,0-1.893-6.17,0.944-10.446C31.911,14.311,34.763,19.69,31.304,19.69z"/>
<linearGradient id="SVGID_7_" gradientUnits="userSpaceOnUse" x1="31.5386" y1="23.6895" x2="31.5386" y2="16.5181">
	<stop  offset="0.2303" style="stop-color:#F3F3F3"/>
	<stop  offset="0.246" style="stop-color:#D5D5D7"/>
	<stop  offset="0.2699" style="stop-color:#AFADB3"/>
	<stop  offset="0.2963" style="stop-color:#8C8A92"/>
	<stop  offset="0.3248" style="stop-color:#706D77"/>
	<stop  offset="0.3563" style="stop-color:#585561"/>
	<stop  offset="0.3919" style="stop-color:#464350"/>
	<stop  offset="0.4341" style="stop-color:#393644"/>
	<stop  offset="0.4892" style="stop-color:#322E3D"/>
	<stop  offset="0.6061" style="stop-color:#302C3B"/>
	<stop  offset="0.6237" style="stop-color:#4E473B"/>
	<stop  offset="0.6515" style="stop-color:#776C3B"/>
	<stop  offset="0.6819" style="stop-color:#9C8D3B"/>
	<stop  offset="0.7145" style="stop-color:#BBA83B"/>
	<stop  offset="0.7499" style="stop-color:#D4BE3B"/>
	<stop  offset="0.7893" style="stop-color:#E7D03B"/>
	<stop  offset="0.835" style="stop-color:#F5DC3B"/>
	<stop  offset="0.8925" style="stop-color:#FDE33B"/>
	<stop  offset="1" style="stop-color:#FFE53B"/>
	<a:midPointStop  offset="0.2303" style="stop-color:#F3F3F3"/>
	<a:midPointStop  offset="0.1639" style="stop-color:#F3F3F3"/>
	<a:midPointStop  offset="0.6061" style="stop-color:#302C3B"/>
	<a:midPointStop  offset="0.1818" style="stop-color:#302C3B"/>
	<a:midPointStop  offset="1" style="stop-color:#FFE53B"/>
</linearGradient>
<path fill="url(#SVGID_7_)" d="M32.329,23.407c-0.141,0.476-0.9,0.306-0.8-0.18c0.917-4.399-0.803-4.923-1.046-6.148
	c-0.072-0.369,1.176-0.669,1.185-0.523C31.719,17.397,33.183,20.552,32.329,23.407z"/>
</svg>
