<?xml version="1.0" encoding="utf-8"?>
<!-- Generator: Adobe Illustrator 15.0.0, SVG Export Plug-In . SVG Version: 6.00 Build 0)  -->
<!DOCTYPE svg PUBLIC "-//W3C//DTD SVG 1.1//EN" "http://www.w3.org/Graphics/SVG/1.1/DTD/svg11.dtd" [
	<!ENTITY ns_flows "http://ns.adobe.com/Flows/1.0/">
	<!ENTITY ns_extend "http://ns.adobe.com/Extensibility/1.0/">
	<!ENTITY ns_ai "http://ns.adobe.com/AdobeIllustrator/10.0/">
	<!ENTITY ns_graphs "http://ns.adobe.com/Graphs/1.0/">
]>
<svg version="1.1" id="Layer_1" xmlns:x="&ns_extend;" xmlns:i="&ns_ai;" xmlns:graph="&ns_graphs;"
	 xmlns="http://www.w3.org/2000/svg" xmlns:xlink="http://www.w3.org/1999/xlink" xmlns:a="http://ns.adobe.com/AdobeSVGViewerExtensions/3.0/"
	 x="0px" y="0px" width="64px" height="64px" viewBox="0 0 64 64" enable-background="new 0 0 64 64" xml:space="preserve">
<linearGradient id="SVGID_1_" gradientUnits="userSpaceOnUse" x1="32.0005" y1="62" x2="32.0005" y2="2.0005">
	<stop  offset="0" style="stop-color:#AFB7BA"/>
	<stop  offset="0.1173" style="stop-color:#BAC1C4"/>
	<stop  offset="0.4612" style="stop-color:#D5DADD"/>
	<stop  offset="0.7666" style="stop-color:#E5EAED"/>
	<stop  offset="1" style="stop-color:#EBEFF2"/>
	<a:midPointStop  offset="0" style="stop-color:#AFB7BA"/>
	<a:midPointStop  offset="0.35" style="stop-color:#AFB7BA"/>
	<a:midPointStop  offset="1" style="stop-color:#EBEFF2"/>
</linearGradient>
<circle fill="url(#SVGID_1_)" cx="32" cy="32" r="30"/>
<path fill="#302C3B" d="M30.12,4.999h0.748c0.117,0,0.182,0.064,0.182,0.182v4.994c0,0.116-0.064,0.182-0.182,0.182h-0.689
	c-0.115,0-0.181-0.065-0.181-0.182V6.059l-1.036,0.569c-0.123,0.073-0.217,0.014-0.217-0.124V5.836c0-0.097,0.038-0.169,0.125-0.218
	l1.025-0.562C29.966,5.013,30.034,4.999,30.12,4.999z"/>
<path fill="#302C3B" d="M31.741,10.178V9.712c0-0.086,0.027-0.154,0.092-0.219l1.693-1.708c0.33-0.336,0.613-0.728,0.613-1.097
	c0-0.442-0.264-0.683-0.652-0.683c-0.379,0-0.64,0.163-0.701,0.533c-0.019,0.113-0.078,0.172-0.186,0.172h-0.682
	c-0.115,0-0.178-0.063-0.171-0.186c0.087-1.057,0.892-1.526,1.715-1.526c0.854,0,1.709,0.531,1.709,1.689
	c0,0.601-0.377,1.192-0.83,1.641l-1.059,1.032h1.795c0.113,0,0.178,0.064,0.178,0.178v0.639c0,0.115-0.064,0.179-0.178,0.179h-3.16
	C31.803,10.356,31.741,10.293,31.741,10.178z"/>
<path fill="#302C3B" d="M9.27,32.207l0.002,0.002l-1.557,2.355c-0.051,0.079-0.122,0.115-0.214,0.115H6.715
	c-0.143,0-0.194-0.094-0.115-0.215l1.02-1.495c-1.091-0.024-1.847-0.769-1.847-1.824c0-1.073,0.783-1.824,1.905-1.824
	c1.128,0,1.905,0.751,1.905,1.824C9.583,31.555,9.471,31.916,9.27,32.207z M7.678,31.998c0.49,0,0.873-0.318,0.873-0.853
	c0-0.533-0.382-0.852-0.873-0.852c-0.484,0-0.873,0.324-0.873,0.852C6.805,31.674,7.194,31.998,7.678,31.998z"/>
<path fill="#302C3B" d="M33.904,57.176C33.904,58.248,33.123,59,32,59c-1.129,0-1.906-0.752-1.906-1.824
	c0-0.408,0.113-0.771,0.314-1.063h-0.002l1.556-2.356c0.051-0.079,0.122-0.114,0.214-0.114h0.787c0.142,0,0.193,0.094,0.113,0.214
	l-1.018,1.495C33.148,55.377,33.904,56.12,33.904,57.176z M32.873,57.176c0-0.528-0.388-0.853-0.872-0.853
	c-0.49,0-0.873,0.319-0.873,0.853S31.51,58.027,32,58.027C32.485,58.027,32.873,57.703,32.873,57.176z"/>
<path fill="#302C3B" d="M58.195,32.957c0,1.129-0.889,1.723-1.879,1.723c-0.934,0-1.777-0.53-1.869-1.536
	c-0.008-0.122,0.063-0.187,0.176-0.187h0.684c0.107,0,0.16,0.059,0.184,0.168c0.068,0.338,0.363,0.548,0.826,0.548
	c0.543,0,0.844-0.29,0.844-0.716c0-0.424-0.301-0.715-0.844-0.715h-0.383c-0.113,0-0.178-0.063-0.178-0.178v-0.383
	c0-0.085,0.025-0.15,0.076-0.222l0.881-1.17h-1.887c-0.113,0-0.178-0.064-0.178-0.179V29.5c0-0.114,0.064-0.179,0.178-0.179h2.947
	c0.115,0,0.178,0.064,0.178,0.179v0.556c0,0.084-0.025,0.15-0.076,0.221l-0.893,1.177C57.672,31.654,58.195,32.178,58.195,32.957z"
	/>
<circle fill="#7A848A" cx="53.99" cy="44.697" r="0.803"/>
<circle fill="#7A848A" cx="10.009" cy="19.305" r="0.803"/>
<circle fill="#7A848A" cx="19.302" cy="53.992" r="0.804"/>
<circle fill="#7A848A" cx="44.696" cy="10.009" r="0.804"/>
<circle fill="#7A848A" cx="44.696" cy="53.992" r="0.804"/>
<circle fill="#7A848A" cx="19.302" cy="10.011" r="0.803"/>
<circle fill="#7A848A" cx="10.009" cy="44.697" r="0.803"/>
<circle fill="#7A848A" cx="53.99" cy="19.304" r="0.804"/>
<linearGradient id="SVGID_2_" gradientUnits="userSpaceOnUse" x1="383.3906" y1="-995.7837" x2="383.3906" y2="-1013.9063" gradientTransform="matrix(0.9659 0.2589 0.2589 -0.9659 -80.0932 -1030.6396)">
	<stop  offset="0" style="stop-color:#272430"/>
	<stop  offset="0.5663" style="stop-color:#3C4049"/>
	<stop  offset="1" style="stop-color:#4E585E"/>
	<a:midPointStop  offset="0" style="stop-color:#272430"/>
	<a:midPointStop  offset="0.5333" style="stop-color:#272430"/>
	<a:midPointStop  offset="1" style="stop-color:#4E585E"/>
</linearGradient>
<path fill="url(#SVGID_2_)" d="M29.127,47.87c-0.152,0.569-2.728-0.12-2.575-0.69l3.517-15.697c0.229-0.856,1.279-1.321,2.348-1.035
	c1.066,0.287,1.746,1.213,1.515,2.071L29.127,47.87z"/>
<linearGradient id="SVGID_3_" gradientUnits="userSpaceOnUse" x1="-2498.3677" y1="-556.0249" x2="-2498.3677" y2="-531.0589" gradientTransform="matrix(-1 0 0 1 -2466.3672 584.9902)">
	<stop  offset="0" style="stop-color:#4E585E"/>
	<stop  offset="0.4337" style="stop-color:#3C4049"/>
	<stop  offset="1" style="stop-color:#272430"/>
	<a:midPointStop  offset="0" style="stop-color:#4E585E"/>
	<a:midPointStop  offset="0.4667" style="stop-color:#4E585E"/>
	<a:midPointStop  offset="1" style="stop-color:#272430"/>
</linearGradient>
<path fill="url(#SVGID_3_)" d="M30.661,32c0-0.739,0.602-1.339,1.34-1.339c0.74,0,1.339,0.6,1.339,1.339l-0.283,20.492
	c-0.076,0.547-2.037,0.547-2.113,0L30.661,32z"/>
</svg>
