<?xml version="1.0" encoding="utf-8"?>
<!-- Generator: Adobe Illustrator 15.0.0, SVG Export Plug-In . SVG Version: 6.00 Build 0)  -->
<!DOCTYPE svg PUBLIC "-//W3C//DTD SVG 1.1//EN" "http://www.w3.org/Graphics/SVG/1.1/DTD/svg11.dtd" [
	<!ENTITY ns_flows "http://ns.adobe.com/Flows/1.0/">
	<!ENTITY ns_extend "http://ns.adobe.com/Extensibility/1.0/">
	<!ENTITY ns_ai "http://ns.adobe.com/AdobeIllustrator/10.0/">
	<!ENTITY ns_graphs "http://ns.adobe.com/Graphs/1.0/">
]>
<svg version="1.1" id="Layer_1" xmlns:x="&ns_extend;" xmlns:i="&ns_ai;" xmlns:graph="&ns_graphs;"
	 xmlns="http://www.w3.org/2000/svg" xmlns:xlink="http://www.w3.org/1999/xlink" xmlns:a="http://ns.adobe.com/AdobeSVGViewerExtensions/3.0/"
	 x="0px" y="0px" width="64px" height="64px" viewBox="0 0 64 64" enable-background="new 0 0 64 64" xml:space="preserve">
<linearGradient id="SVGID_1_" gradientUnits="userSpaceOnUse" x1="-1719.4614" y1="62" x2="-1719.4614" y2="2.0005" gradientTransform="matrix(-1 0 0 1 -1687.4609 4.882813e-004)">
	<stop  offset="0" style="stop-color:#AFB7BA"/>
	<stop  offset="0.1173" style="stop-color:#BAC1C4"/>
	<stop  offset="0.4612" style="stop-color:#D5DADD"/>
	<stop  offset="0.7666" style="stop-color:#E5EAED"/>
	<stop  offset="1" style="stop-color:#EBEFF2"/>
	<a:midPointStop  offset="0" style="stop-color:#AFB7BA"/>
	<a:midPointStop  offset="0.35" style="stop-color:#AFB7BA"/>
	<a:midPointStop  offset="1" style="stop-color:#EBEFF2"/>
</linearGradient>
<circle fill="url(#SVGID_1_)" cx="32" cy="32" r="30"/>
<path fill="#302C3B" d="M30.12,4.998h0.747c0.117,0,0.183,0.064,0.183,0.182v4.994c0,0.117-0.065,0.182-0.183,0.182h-0.688
	c-0.115,0-0.181-0.065-0.181-0.182V6.058l-1.036,0.569c-0.124,0.073-0.217,0.014-0.217-0.124V5.835c0-0.097,0.038-0.169,0.124-0.218
	l1.025-0.561C29.966,5.011,30.034,4.998,30.12,4.998z"/>
<path fill="#302C3B" d="M31.74,10.176V9.711c0-0.086,0.028-0.155,0.092-0.219l1.694-1.708c0.33-0.336,0.613-0.728,0.613-1.097
	c0-0.442-0.264-0.683-0.652-0.683c-0.379,0-0.64,0.163-0.701,0.534C32.767,6.651,32.707,6.71,32.6,6.71h-0.682
	c-0.115,0-0.179-0.064-0.171-0.186c0.086-1.057,0.892-1.526,1.715-1.526c0.854,0,1.709,0.531,1.709,1.689
	c0,0.601-0.377,1.192-0.83,1.641L33.283,9.36h1.795c0.113,0,0.178,0.064,0.178,0.178v0.638c0,0.115-0.064,0.179-0.178,0.179h-3.16
	C31.803,10.355,31.74,10.292,31.74,10.176z"/>
<path fill="#302C3B" d="M9.269,32.207h0.003l-1.557,2.356c-0.052,0.08-0.122,0.115-0.214,0.115H6.715
	c-0.144,0-0.194-0.094-0.115-0.215l1.02-1.495c-1.092-0.025-1.848-0.769-1.848-1.824c0-1.073,0.783-1.824,1.905-1.824
	c1.129,0,1.905,0.751,1.905,1.824C9.583,31.552,9.47,31.915,9.269,32.207z M7.677,31.998c0.49,0,0.873-0.319,0.873-0.853
	c0-0.533-0.383-0.852-0.873-0.852c-0.483,0-0.872,0.325-0.872,0.852C6.805,31.672,7.194,31.998,7.677,31.998z"/>
<path fill="#302C3B" d="M33.904,57.174c0,1.074-0.781,1.824-1.905,1.824c-1.128,0-1.905-0.75-1.905-1.824
	c0-0.408,0.112-0.77,0.313-1.061l-0.001-0.002l1.556-2.355c0.051-0.078,0.122-0.115,0.214-0.115h0.787
	c0.142,0,0.193,0.096,0.113,0.215l-1.018,1.494C33.148,55.377,33.904,56.119,33.904,57.174z M32.873,57.174
	c0-0.527-0.389-0.852-0.873-0.852c-0.49,0-0.872,0.318-0.872,0.852s0.382,0.852,0.872,0.852
	C32.484,58.025,32.873,57.701,32.873,57.174z"/>
<path fill="#302C3B" d="M58.195,32.957c0,1.127-0.889,1.721-1.879,1.721c-0.934,0-1.777-0.529-1.869-1.535
	c-0.008-0.123,0.063-0.186,0.176-0.186h0.684c0.107,0,0.16,0.059,0.184,0.167c0.068,0.34,0.363,0.549,0.826,0.549
	c0.543,0,0.844-0.291,0.844-0.715c0-0.424-0.301-0.715-0.844-0.715h-0.383c-0.113,0-0.178-0.064-0.178-0.18v-0.383
	c0-0.084,0.025-0.149,0.076-0.221l0.881-1.169h-1.887c-0.113,0-0.178-0.064-0.178-0.179v-0.611c0-0.115,0.064-0.179,0.178-0.179
	h2.947c0.115,0,0.178,0.064,0.178,0.179v0.555c0,0.084-0.025,0.15-0.076,0.221l-0.893,1.175
	C57.672,31.654,58.195,32.177,58.195,32.957z"/>
<path fill="#7A848A" d="M54.393,44.002c0.383,0.221,0.516,0.711,0.293,1.096c-0.221,0.385-0.713,0.516-1.098,0.293
	c-0.385-0.219-0.516-0.711-0.295-1.096C53.516,43.91,54.008,43.777,54.393,44.002z"/>
<circle fill="#7A848A" cx="10.008" cy="19.304" r="0.803"/>
<circle fill="#7A848A" cx="19.302" cy="53.991" r="0.803"/>
<circle fill="#7A848A" cx="44.696" cy="10.008" r="0.804"/>
<circle fill="#7A848A" cx="44.696" cy="53.991" r="0.804"/>
<circle fill="#7A848A" cx="19.302" cy="10.01" r="0.803"/>
<circle fill="#7A848A" cx="10.008" cy="44.696" r="0.802"/>
<circle fill="#7A848A" cx="53.99" cy="19.303" r="0.804"/>
<linearGradient id="SVGID_2_" gradientUnits="userSpaceOnUse" x1="-1496.1431" y1="162.3457" x2="-1496.1431" y2="144.2236" gradientTransform="matrix(-0.966 0.2588 0.2588 0.966 -1454.8143 263.9067)">
	<stop  offset="0" style="stop-color:#272430"/>
	<stop  offset="0.5663" style="stop-color:#3C4049"/>
	<stop  offset="1" style="stop-color:#4E585E"/>
	<a:midPointStop  offset="0" style="stop-color:#272430"/>
	<a:midPointStop  offset="0.5333" style="stop-color:#272430"/>
	<a:midPointStop  offset="1" style="stop-color:#4E585E"/>
</linearGradient>
<path fill="url(#SVGID_2_)" d="M26.553,16.821c-0.153-0.57,2.423-1.26,2.576-0.69l4.804,15.353c0.229,0.855-0.449,1.784-1.517,2.069
	c-1.066,0.285-2.118-0.176-2.348-1.035L26.553,16.821z"/>
<linearGradient id="SVGID_3_" gradientUnits="userSpaceOnUse" x1="31.9985" y1="28.9644" x2="31.9985" y2="53.9314">
	<stop  offset="0" style="stop-color:#4E585E"/>
	<stop  offset="0.4337" style="stop-color:#3C4049"/>
	<stop  offset="1" style="stop-color:#272430"/>
	<a:midPointStop  offset="0" style="stop-color:#4E585E"/>
	<a:midPointStop  offset="0.4667" style="stop-color:#4E585E"/>
	<a:midPointStop  offset="1" style="stop-color:#272430"/>
</linearGradient>
<path fill="url(#SVGID_3_)" d="M33.338,32c0-0.739-0.599-1.339-1.338-1.339c-0.74,0-1.34,0.6-1.34,1.339l0.282,20.493
	c0.076,0.547,2.038,0.547,2.115,0L33.338,32z"/>
</svg>
