<?xml version="1.0" encoding="utf-8"?>
<!-- Generator: Adobe Illustrator 15.0.0, SVG Export Plug-In . SVG Version: 6.00 Build 0)  -->
<!DOCTYPE svg PUBLIC "-//W3C//DTD SVG 1.1//EN" "http://www.w3.org/Graphics/SVG/1.1/DTD/svg11.dtd" [
	<!ENTITY ns_flows "http://ns.adobe.com/Flows/1.0/">
	<!ENTITY ns_extend "http://ns.adobe.com/Extensibility/1.0/">
	<!ENTITY ns_ai "http://ns.adobe.com/AdobeIllustrator/10.0/">
	<!ENTITY ns_graphs "http://ns.adobe.com/Graphs/1.0/">
]>
<svg version="1.1" id="Layer_1" xmlns:x="&ns_extend;" xmlns:i="&ns_ai;" xmlns:graph="&ns_graphs;"
	 xmlns="http://www.w3.org/2000/svg" xmlns:xlink="http://www.w3.org/1999/xlink" xmlns:a="http://ns.adobe.com/AdobeSVGViewerExtensions/3.0/"
	 x="0px" y="0px" width="64px" height="64px" viewBox="0 0 64 64" enable-background="new 0 0 64 64" xml:space="preserve">
<path fill="#E6B045" d="M32.524,16.336c0,0-5.338-3.094-4.832,0.324c4.328,4.084,5.502,10.378,5.502,10.378
	S35.458,19.345,32.524,16.336z"/>
<path fill="#1A1626" d="M20.372,58.553c0,0-1.205,1.646,0,3.447h3.332v-1.252c0,0,0.559,1.252,5.651,1.252
	c1.76,0,1.941-1.627,0.092-1.723c-1.869-0.098-1.596-1.334-3.344-3.449L20.372,58.553z"/>
<path fill="#1A1626" d="M40.372,58.553c0,0-1.201,1.646,0,3.447h3.336v-1.252c0,0,0.557,1.252,5.646,1.252
	c1.76,0,1.945-1.627,0.094-1.723c-1.869-0.098-1.594-1.334-3.342-3.449L40.372,58.553z"/>
<path fill="#302C3B" d="M44.081,46.727c-0.555-2.758-5.424-6.039-8.203-11.477c0,0-4.303,0-11.247,0c0,0-3.059,1.459-1.393,8.049
	c1.018,4-1.107,10.748-4.441,15.666c0,0,4.906,1.783,10,0c0,0-1.525-3.434,1.086-10.07c0.842-2.143-1.109-4.271,0.863-9.004
	c0,0,0.953,2.01,8.068,8.035c0,0-1.406,6.191,0.264,11.039c0,0,1.063,0.451,4.902,0.451c3.588,0,5.373-0.451,5.373-0.451
	S45.915,55.93,44.081,46.727z"/>
<path fill="#47C6A3" d="M32.524,16.336c0.771,2.442,0.574,9.365,0.574,9.365s-1.205-8-5.613-9.66c0,0,2.338,11.597,0,20.484
	c0,0,5.365,1.045,8.324-1.076C38.972,22.284,32.524,16.336,32.524,16.336z"/>
<path fill="#302C3B" d="M33.612,17.197c1.824-1.25,5.422,0.45,8.27-0.564c0.83-0.294,2.977-2.61,4.434-6.815l3.59,2.936
	c0,0-2.102,4.471-4.748,7.9c-0.391,0.5-2.619,1.045-7.311,0.587c0,0-1.75,9.019,2.9,14.867c0,0-2.1-0.865-5.328-1.188
	C35.419,34.92,37.856,27.544,33.612,17.197z"/>
<path fill="#1A1626" d="M36.849,36.941c0,0-0.529-0.727-1.039-1.492v-0.488c0,0,2.654,0.094,4.938,1.146
	C40.747,36.107,41.19,37.5,36.849,36.941z"/>
<path fill="#302C3B" d="M27.782,17.576c0,0-2.721-1.591-4.649-0.146c-10.346,7.769-8.854,5.291-10.078,15.196l4.848,0.137
	c0.436-7.44,1.113-7.563,7.064-9.8c0,0,3.444,6.309-4.023,13.144c0,0-0.27,4.904,10.225,1.93
	C31.167,38.035,35.81,29.459,27.782,17.576z"/>
<path fill="#3AB0A2" d="M13,33.471c0,0,1.902,0.703,5.189,0.111C18.19,33.582,16.604,32.355,13,33.471z"/>
<path fill="#47C6A3" d="M13.055,31.271c0,0,0.029,1.22-0.055,2.198c0,0,1.771-0.662,5.189,0.113c0,0-0.164-1.092-0.1-2.217
	c0,0-0.371-0.441-1.834-0.574l-0.662,1.93l-0.668-1.993C14.928,30.728,13.838,30.685,13.055,31.271z"/>
<path fill="#3AB0A2" d="M50.521,12.037c0,0-1.555-1.558-4.295-2.37C46.226,9.667,47.317,11.528,50.521,12.037z"/>
<path fill="#47C6A3" d="M49.546,13.81c0,0,0.494-1.004,0.975-1.771c0,0-2.035-0.391-4.295-2.37c0,0-0.338,0.958-0.865,1.847
	c0,0,0.205,0.567,1.258,1.248l1.322-1.312l-0.344,1.89C47.597,13.341,48.702,13.978,49.546,13.81z"/>
<path fill="#6E8189" d="M27.485,16.041l-2.52,0.903l2.739,1.354L26.7,20.587c0,0,8.721,5.225,4.467,17.448
	C34.897,30.385,31.968,20.293,27.485,16.041z"/>
<path fill="#6E8189" d="M32.335,16.041l2.965,0.783l-0.977,1.313l2.455,0.521c0,0,1.473,8.102-1.359,16.262
	C37.161,26.203,34.331,19.039,32.335,16.041z"/>
<path fill="#1A1626" d="M21.325,36.285c0,0,6.881,1.563,9.842,1.75c-3.682,0.223-7.782-0.832-8.161-0.408
	c-0.096,0.313-0.166,0.787-0.166,0.787C21.895,38.051,21.391,37.418,21.325,36.285z"/>
<path fill="#FFCC66" d="M13.534,33.336c-0.092,3.156,0.752,3.973,2.195,4.506c1.305,0.482-0.271-2.971,0.721-3.184
	c0.234,1.635,1.283,1.85,1.199,0.818c-0.084-1.01-0.082-1.6-0.334-2.068C16.624,33.205,14.288,33.072,13.534,33.336z"/>
<path fill="#FFCC66" d="M48.69,5.974c0.326-0.557,1.301-0.088,0.994,0.596c-0.143,0.316-0.539,1.074-0.848,1.713
	c1.574,0.514,3.311,1.336,1.154,3.607c0,0-2.053-0.514-3.381-1.904C47.286,8.603,48.034,7.094,48.69,5.974z"/>
<path fill="#DB9D3A" d="M48.468,10.14c0.289,0.406,1.08,0.998,1.709,0.891c-0.793,0.238-1.688-0.407-1.854-0.868L48.468,10.14z"/>
<path fill="#DB9D3A" d="M49.122,9.731c0.479-0.16,0.248-0.922-0.238-0.793c-0.902,0.232-1.732,0.479-1.732,0.479
	s0.768-0.412,1.766-0.604c0.566-0.11,0.975,0.822,0.277,1.025c-0.938,0.273-1.365,0.939-1.365,0.939S48.091,10.073,49.122,9.731z"/>
<path id="Path_70_" fill="#FFCC66" d="M36.002,8.822c-0.895,0.106-1.542,3.1-0.978,3.89c0.079,0.11,0.539,0.286,0.882-0.41
	c0.19-0.387,0.735-0.709,0.905-1.505C37.028,9.776,36.894,8.713,36.002,8.822z"/>
<path id="Path_69_" fill="#FFCC66" d="M24.438,8.822c0.895,0.106,1.542,3.1,0.978,3.89c-0.079,0.11-0.54,0.286-0.882-0.41
	c-0.189-0.387-0.736-0.709-0.905-1.505C23.411,9.776,23.547,8.713,24.438,8.822z"/>
<path id="Path_68_" fill="#DB9D3A" d="M35.978,9.395c-0.232,0.073-0.488,0.429-0.627,1.02c0.818-0.175,0.613,1.182-0.096,1.207
	c0.007,0.138,0.015,0.277,0.031,0.425c0.342-0.495,0.691-0.296,1.034-1.034C36.63,10.349,36.556,9.214,35.978,9.395z"/>
<path id="Path_67_" fill="#DB9D3A" d="M25.088,10.412c-0.139-0.589-0.394-0.944-0.627-1.018c-0.577-0.181-0.653,0.954-0.342,1.617
	c0.344,0.738,0.692,0.539,1.034,1.034c0.017-0.147,0.026-0.288,0.031-0.425C24.483,11.589,24.281,10.247,25.088,10.412z"/>
<path id="Path_66_" fill="#FFCC66" d="M30.219,3.068c-3.877,0-5.746,2.929-5.513,7.002c0.047,0.819,0.557,3.491,1.037,4.451
	c0.492,0.98,2.136,2.493,3.144,2.808c0.638,0.196,2.03,0.196,2.667,0c1.007-0.314,2.653-1.827,3.144-2.808
	c0.481-0.96,0.991-3.632,1.037-4.451C35.968,5.997,34.099,3.068,30.219,3.068z"/>
<path id="Path_65_" fill="#966F42" d="M34.435,8.522c-0.888-0.47-2.586-0.492-3.219-0.165c-0.135,0.063-0.045,0.507,0.068,0.466
	c0.881-0.349,2.304-0.356,3.128,0.029C34.522,8.902,34.568,8.588,34.435,8.522z"/>
<path id="Path_64_" fill="#966F42" d="M26.005,8.522c0.888-0.47,2.584-0.492,3.219-0.165c0.134,0.063,0.044,0.507-0.07,0.466
	c-0.883-0.349-2.301-0.356-3.127,0.029C25.917,8.902,25.872,8.588,26.005,8.522z"/>
<path id="Path_63_" fill="#DB9D3A" d="M31.267,12.591c-0.111-0.077-0.371,0.042-1.048,0.042c-0.675,0-0.935-0.119-1.046-0.042
	c-0.131,0.092,0.078,0.513,1.046,0.513C31.188,13.104,31.399,12.683,31.267,12.591z"/>
<path id="Path_62_" fill="#DB9D3A" d="M30.219,14.186c-0.87-0.256-2.164,0.122-2.164,0.122c0.493,0.535,0.853,1.229,2.164,1.229
	c1.505,0,1.761-0.789,2.166-1.229C32.385,14.308,31.093,13.928,30.219,14.186z"/>
<path id="Path_61_" fill="#FFFFFF" d="M28.379,14.397c0.915,0.767,2.762,0.771,3.682,0C31.084,14.439,29.361,14.44,28.379,14.397z"
	/>
<path id="Path_60_" fill="#FFFFFF" d="M29.357,10.119c0.031,0.258-0.142,0.562-0.624,0.789c-0.307,0.146-0.945,0.315-1.782-0.037
	c-0.375-0.158-0.742-0.65-0.708-0.923C26.696,9.094,28.931,8.969,29.357,10.119z"/>
<linearGradient id="Oval_1_" gradientUnits="userSpaceOnUse" x1="-424.1851" y1="480.5938" x2="-424.1851" y2="480.8604" gradientTransform="matrix(6.5701 0 0 -6.5701 2814.7805 3168.5281)">
	<stop  offset="0" style="stop-color:#A6694A"/>
	<stop  offset="1" style="stop-color:#4F2A1E"/>
	<a:midPointStop  offset="0" style="stop-color:#A6694A"/>
	<a:midPointStop  offset="0.5" style="stop-color:#A6694A"/>
	<a:midPointStop  offset="1" style="stop-color:#4F2A1E"/>
</linearGradient>
<circle id="Oval_10_" fill="url(#Oval_1_)" cx="27.841" cy="10.103" r="0.877"/>
<path id="Path_59_" fill="#1A1626" d="M27.401,10.087c0,0.607,0.878,0.607,0.878,0C28.279,9.524,27.401,9.524,27.401,10.087z"/>
<path id="Path_58_" fill="#AB968C" d="M27.268,9.841c0,0.254,0.368,0.254,0.368,0C27.636,9.605,27.268,9.605,27.268,9.841z"/>
<path id="Path_57_" fill="#DB9D3A" d="M29.361,10.154c-0.356-1.144-2.788-0.976-3.118-0.206
	C26.365,8.964,29.058,8.703,29.361,10.154z"/>
<path id="Path_56_" fill="#FFFFFF" d="M31.083,10.119c-0.033,0.258,0.141,0.562,0.624,0.789c0.306,0.146,0.944,0.315,1.78-0.037
	c0.377-0.158,0.742-0.65,0.711-0.923C33.743,9.094,31.507,8.969,31.083,10.119z"/>
<linearGradient id="Oval_2_" gradientUnits="userSpaceOnUse" x1="-426.1626" y1="480.5938" x2="-426.1626" y2="480.8604" gradientTransform="matrix(6.5701 0 0 -6.5701 2832.511 3168.5281)">
	<stop  offset="0" style="stop-color:#A6694A"/>
	<stop  offset="1" style="stop-color:#4F2A1E"/>
	<a:midPointStop  offset="0" style="stop-color:#A6694A"/>
	<a:midPointStop  offset="0.5" style="stop-color:#A6694A"/>
	<a:midPointStop  offset="1" style="stop-color:#4F2A1E"/>
</linearGradient>
<circle id="Oval_9_" fill="url(#Oval_2_)" cx="32.579" cy="10.103" r="0.877"/>
<path id="Path_55_" fill="#1A1626" d="M32.14,10.087c0,0.607,0.879,0.607,0.879,0C33.019,9.524,32.14,9.524,32.14,10.087z"/>
<path id="Path_54_" fill="#AB968C" d="M32.007,9.841c0,0.254,0.367,0.254,0.367,0C32.374,9.605,32.007,9.605,32.007,9.841z"/>
<path id="Path_53_" fill="#DB9D3A" d="M31.079,10.154c0.357-1.143,2.785-0.979,3.119-0.206C34.073,8.964,31.382,8.703,31.079,10.154
	z"/>
<path fill="#7A6056" d="M35.174,4.037C34.325,2.892,32.772,2,30.219,2c-2.55,0-4.104,0.892-4.953,2.037
	C24.063,5.662,36.375,5.662,35.174,4.037z"/>
<linearGradient id="SVGID_1_" gradientUnits="userSpaceOnUse" x1="30.2197" y1="11.0723" x2="30.2197" y2="3.5522">
	<stop  offset="0.5" style="stop-color:#473834"/>
	<stop  offset="0.6387" style="stop-color:#503F3A"/>
	<stop  offset="0.8641" style="stop-color:#68524A"/>
	<stop  offset="1" style="stop-color:#7A6056"/>
	<a:midPointStop  offset="0.5" style="stop-color:#473834"/>
	<a:midPointStop  offset="0.6" style="stop-color:#473834"/>
	<a:midPointStop  offset="1" style="stop-color:#7A6056"/>
</linearGradient>
<path fill="url(#SVGID_1_)" d="M35.174,4.037c-0.849-1.146-2.401,0.098-4.955,0.098c-2.55,0-4.104-1.243-4.953-0.098
	c-1.202,1.625-0.793,7.035-0.258,7.035c0.084,0,0.097-1.894,0.258-3.202c0.132-1.065,0.386-2.1,0.677-2.269
	c0.891-0.516,2.607,0.222,4.276,0.222s3.388-0.737,4.279-0.222c0.291,0.169,0.544,1.203,0.676,2.269
	c0.161,1.309,0.173,3.202,0.259,3.202C35.968,11.072,36.375,5.662,35.174,4.037z"/>
</svg>
