<?xml version="1.0" encoding="utf-8"?>
<!-- Generator: Adobe Illustrator 15.0.0, SVG Export Plug-In . SVG Version: 6.00 Build 0)  -->
<!DOCTYPE svg PUBLIC "-//W3C//DTD SVG 1.1//EN" "http://www.w3.org/Graphics/SVG/1.1/DTD/svg11.dtd" [
	<!ENTITY ns_flows "http://ns.adobe.com/Flows/1.0/">
	<!ENTITY ns_extend "http://ns.adobe.com/Extensibility/1.0/">
	<!ENTITY ns_ai "http://ns.adobe.com/AdobeIllustrator/10.0/">
	<!ENTITY ns_graphs "http://ns.adobe.com/Graphs/1.0/">
]>
<svg version="1.1" id="Layer_1" xmlns:x="&ns_extend;" xmlns:i="&ns_ai;" xmlns:graph="&ns_graphs;"
	 xmlns="http://www.w3.org/2000/svg" xmlns:xlink="http://www.w3.org/1999/xlink" xmlns:a="http://ns.adobe.com/AdobeSVGViewerExtensions/3.0/"
	 x="0px" y="0px" width="64px" height="64px" viewBox="0 0 64 64" enable-background="new 0 0 64 64" xml:space="preserve">
<radialGradient id="SVGID_1_" cx="32" cy="32" r="30" gradientUnits="userSpaceOnUse">
	<stop  offset="0" style="stop-color:#CFD8DD"/>
	<stop  offset="0.4253" style="stop-color:#BBC6CB"/>
	<stop  offset="1" style="stop-color:#99A8AE"/>
	<a:midPointStop  offset="0" style="stop-color:#CFD8DD"/>
	<a:midPointStop  offset="0.5455" style="stop-color:#CFD8DD"/>
	<a:midPointStop  offset="1" style="stop-color:#99A8AE"/>
</radialGradient>
<path fill="url(#SVGID_1_)" d="M61.094,31.382c-5.421-3.704-9.352-13.196-8.088-19.534l0.213-1.067l-1.072,0.183
	c-1.192,0.204-2.391,0.308-3.564,0.308c-6.435,0-12.107-2.988-15.974-8.415L32,2l-0.609,0.855c-3.86,5.426-9.53,8.415-15.966,8.415
	c-1.173,0-2.372-0.104-3.564-0.308l-1.071-0.183l0.212,1.067c1.26,6.34-2.674,15.833-8.095,19.533L2,32l0.907,0.619
	c5.42,3.697,9.354,13.189,8.094,19.533l-0.212,1.068l1.072-0.184c1.194-0.205,2.396-0.31,3.571-0.31
	c6.431,0,12.098,2.989,15.958,8.417L32,62l0.608-0.855c3.866-5.428,9.537-8.417,15.966-8.417c1.176,0,2.377,0.104,3.571,0.31
	l1.073,0.184l-0.213-1.068c-1.264-6.342,2.667-15.834,8.088-19.533L62,32L61.094,31.382z M58.554,31.251H52.32
	c-3.583-2.59-6.16-8.814-5.428-13.103l4.395-4.4C51.04,19.745,54.103,27.127,58.554,31.251z M32.748,28.873
	c0.294,0.167,0.605,0.297,0.931,0.387l-0.931,0.933V28.873z M31.252,30.192l-0.931-0.933c0.326-0.09,0.638-0.219,0.931-0.386V30.192
	z M30.194,31.251h-1.388c0.169-0.311,0.308-0.642,0.409-0.979L30.194,31.251z M30.194,32.749l-0.979,0.979
	c-0.101-0.338-0.239-0.669-0.408-0.979H30.194z M31.252,33.808v1.318c-0.293-0.167-0.604-0.296-0.931-0.386L31.252,33.808z
	 M32.748,33.808l0.931,0.933c-0.326,0.091-0.638,0.22-0.931,0.387V33.808z M33.806,32.749h1.39c-0.17,0.312-0.309,0.643-0.409,0.981
	L33.806,32.749z M33.806,31.251l0.98-0.981c0.101,0.34,0.239,0.67,0.409,0.981H33.806z M35.051,27.885
	c-0.902,0.092-1.724-0.252-2.303-0.956v-4.917c1.593,1.464,3.611,2.316,5.768,2.406L35.051,27.885z M31.252,26.93
	c-0.579,0.704-1.402,1.048-2.303,0.955l-3.467-3.47c2.165-0.09,4.178-0.938,5.77-2.4V26.93z M27.906,28.96
	c0.046,0.742-0.389,1.786-0.953,2.291h-5.009c1.312-1.582,2.233-3.799,2.424-5.833L27.906,28.96z M26.953,32.749
	c0.563,0.505,0.997,1.549,0.953,2.291l-3.537,3.541c-0.191-2.034-1.113-4.25-2.424-5.832H26.953z M28.949,36.113
	c0.9-0.093,1.724,0.252,2.303,0.957v4.918c-1.596-1.466-3.613-2.305-5.78-2.393L28.949,36.113z M32.748,37.071
	c0.579-0.705,1.4-1.05,2.303-0.958l3.469,3.474c-2.157,0.097-4.178,0.939-5.771,2.402V37.071z M36.096,35.041
	c-0.05-0.753,0.378-1.783,0.95-2.292h5.011c-1.313,1.582-2.234,3.8-2.424,5.834L36.096,35.041z M37.047,31.251
	c-0.563-0.505-0.996-1.549-0.951-2.293l3.537-3.541c0.189,2.033,1.111,4.251,2.424,5.834H37.047z M40.104,22.826
	c-2.892,0.421-5.588-0.7-7.356-3.052l0.001-5.779c2.979,3.187,7.062,4.904,11.43,4.752L40.104,22.826z M31.252,19.772
	c-1.764,2.354-4.457,3.476-7.356,3.054l-4.075-4.08c4.369,0.153,8.454-1.564,11.433-4.752L31.252,19.772z M22.842,23.89
	c0.359,2.391-1.094,5.893-3.056,7.361h-5.824c2.808-2.854,4.742-7.511,4.771-11.476L22.842,23.89z M19.787,32.749
	c1.963,1.469,3.414,4.97,3.055,7.361l-4.109,4.115c-0.028-3.967-1.963-8.625-4.771-11.477H19.787z M23.896,41.174
	c2.896-0.424,5.591,0.697,7.356,3.053l-0.001,5.802c-2.847-3.059-6.694-4.792-10.851-4.792c-0.196,0-0.397,0.025-0.595,0.032
	L23.896,41.174z M32.748,44.227c1.768-2.354,4.463-3.478,7.355-3.053l4.074,4.078c-4.369-0.155-8.45,1.564-11.431,4.754
	L32.748,44.227z M41.162,40.114c-0.365-2.389,1.085-5.893,3.051-7.365h5.826c-2.807,2.854-4.741,7.514-4.767,11.48L41.162,40.114z
	 M44.213,31.251c-1.965-1.474-3.416-4.978-3.051-7.365l4.11-4.115c0.025,3.965,1.96,8.625,4.768,11.48H44.213z M50.219,12.699
	l-4.378,4.382c-0.746,0.117-1.496,0.183-2.23,0.183c-4.358,0.001-8.202-1.998-10.861-5.619V5.442
	C37.168,10.531,43.498,13.185,50.219,12.699z M15.425,12.768c6.117,0,11.776-2.643,15.828-7.318v6.193
	c-2.656,3.621-6.499,5.621-10.858,5.621c-0.736,0.001-1.488-0.065-2.236-0.183L13.782,12.7
	C14.332,12.74,14.881,12.768,15.425,12.768L15.425,12.768z M12.72,13.755l4.393,4.397c0.73,4.29-1.849,10.511-5.433,13.099H5.447
	C9.896,27.129,12.96,19.752,12.72,13.755z M5.447,32.749h6.231c3.583,2.584,6.163,8.807,5.434,13.099l-4.393,4.397
	C12.961,44.245,9.896,36.867,5.447,32.749z M15.433,51.23c-0.545,0-1.097,0.026-1.648,0.068l4.374-4.381
	c0.75-0.116,1.504-0.184,2.242-0.184c4.354,0,8.193,1.999,10.851,5.621v6.192C27.199,53.871,21.544,51.23,15.433,51.23z
	 M32.747,58.56v-6.202c2.659-3.623,6.503-5.623,10.857-5.623c0.736,0,1.488,0.067,2.236,0.184l4.376,4.381
	C43.496,50.808,37.168,53.466,32.747,58.56z M51.287,50.252l-4.395-4.4c-0.732-4.29,1.845-10.515,5.428-13.103h6.232
	C54.103,36.871,51.04,44.252,51.287,50.252z"/>
</svg>
