<?xml version="1.0" encoding="utf-8"?>
<!-- Generator: Adobe Illustrator 15.0.0, SVG Export Plug-In . SVG Version: 6.00 Build 0)  -->
<!DOCTYPE svg PUBLIC "-//W3C//DTD SVG 1.1//EN" "http://www.w3.org/Graphics/SVG/1.1/DTD/svg11.dtd" [
	<!ENTITY ns_flows "http://ns.adobe.com/Flows/1.0/">
	<!ENTITY ns_extend "http://ns.adobe.com/Extensibility/1.0/">
	<!ENTITY ns_ai "http://ns.adobe.com/AdobeIllustrator/10.0/">
	<!ENTITY ns_graphs "http://ns.adobe.com/Graphs/1.0/">
]>
<svg version="1.1" id="Layer_1" xmlns:x="&ns_extend;" xmlns:i="&ns_ai;" xmlns:graph="&ns_graphs;"
	 xmlns="http://www.w3.org/2000/svg" xmlns:xlink="http://www.w3.org/1999/xlink" xmlns:a="http://ns.adobe.com/AdobeSVGViewerExtensions/3.0/"
	 x="0px" y="0px" width="64px" height="64px" viewBox="0 0 64 64" enable-background="new 0 0 64 64" xml:space="preserve">
<radialGradient id="SVGID_1_" cx="24.3779" cy="59.7539" r="9.598" gradientTransform="matrix(1.027 0 0 0.2172 6.9635 46.773)" gradientUnits="userSpaceOnUse">
	<stop  offset="0.1091" style="stop-color:#81878A"/>
	<stop  offset="0.2795" style="stop-color:#898F92;stop-opacity:0.8087"/>
	<stop  offset="0.5503" style="stop-color:#9EA6A9;stop-opacity:0.5048"/>
	<stop  offset="0.8857" style="stop-color:#C1CACF;stop-opacity:0.1283"/>
	<stop  offset="1" style="stop-color:#CFD8DD;stop-opacity:0"/>
	<a:midPointStop  offset="0.1091" style="stop-color:#81878A"/>
	<a:midPointStop  offset="0.6061" style="stop-color:#81878A"/>
	<a:midPointStop  offset="1" style="stop-color:#CFD8DD;stop-opacity:0"/>
</radialGradient>
<path fill="url(#SVGID_1_)" d="M32,61.999c-13.333,0-13.333-4.49,0-4.49C45.334,57.509,45.334,61.999,32,61.999z"/>
<path fill="#302C3B" d="M32.438,48.991h-3.814v2.85l0,0c0.01,3.588,3.826,3.586,3.814,0V48.991z"/>
<path fill="#FFFFFF" d="M32.061,48.991h-3.063v2.094l0,0c0.006,1.695,3.066,1.693,3.063,0V48.991z"/>
<path fill="#302C3B" d="M35.604,49.585h-3.816v2.852l0,0c0.012,3.588,3.826,3.586,3.816,0V49.585z"/>
<path fill="#FFFFFF" d="M35.227,49.585h-3.061v2.096l0,0c0.002,1.695,3.064,1.693,3.061,0V49.585z"/>
<path fill="#FFCC66" d="M37.787,35.399c1.451-1.436,0.322,2.744,1.67,1.41c1.254-1.24,0.189-3.355,0.189-3.355l-2.137-0.379
	C37.51,33.075,36.588,36.587,37.787,35.399z"/>
<path fill="#FFCC66" d="M26.208,35.399c-1.451-1.438-0.322,2.742-1.668,1.41c-1.256-1.242-0.189-3.355-0.189-3.355l2.137-0.379
	C26.487,33.075,27.408,36.585,26.208,35.399z"/>
<path fill="#302C3B" d="M39.115,19.149c-0.859-0.563-4.828-2.035-4.828-2.035h-4.549c0,0-3.974,1.477-4.835,2.035
	c-1.252,0.811-0.977,14.699-0.977,14.699l2.512,0.182c0.898,7.906,1.774,16.736,1.774,16.736l7.572,0.002
	c0,0,0.873-8.832,1.773-16.738l2.51-0.182C40.068,33.849,40.359,19.962,39.115,19.149z"/>
<polygon fill="#1A1626" points="32.521,37.569 31.998,50.769 31.477,37.569 "/>
<polygon fill="#1A1626" points="37.908,24.565 37.559,33.526 37.209,24.565 "/>
<polygon fill="#1A1626" points="26.786,24.665 26.438,33.626 26.089,24.665 "/>
<rect x="26.438" y="32.513" fill="#1A1626" width="11.12" height="1.113"/>
<rect x="29.412" y="16.681" fill="#E6B045" width="5.174" height="2.697"/>
<path fill="#E6EBEF" d="M34.105,23.979c0.629-1.508,0.643-7.113,0.643-7.113c-0.92,1.658-2.648,2.414-2.75,2.457
	c-0.102-0.043-1.828-0.799-2.75-2.457c0,0,0.016,5.605,0.645,7.113l2.113,4.148L34.105,23.979z"/>
<polygon fill="#302C3B" points="33.416,25.64 32.664,21.368 33.016,20.638 31.998,19.425 30.98,20.638 31.334,21.368 30.58,25.64 
	31.996,28.128 "/>
<path fill="#FFFFFF" d="M31.998,19.323c-0.102-0.043-1.828-0.799-2.75-2.457c0,0,0.006,1.412,0.117,2.924
	c0.342,0.564,0.91,1.439,1.131,1.439c0.324,0,1.502-1.732,1.502-1.732s1.168,1.732,1.523,1.732c0.254,0,0.789-0.844,1.109-1.418
	c0.113-1.52,0.117-2.945,0.117-2.945C33.828,18.524,32.1,19.28,31.998,19.323"/>
<path fill="#4E5E67" d="M27.331,20.382l1.644-0.564l-1.841-1.488c0,0,1.149-1.121,2.278-1.457v2.945c0,0,1.689,6.502,2.584,8.311
	C31.996,28.128,27.982,22.071,27.331,20.382z"/>
<path fill="#4E5E67" d="M36.664,20.382l-1.641-0.564l1.838-1.488c0,0-1.148-1.121-2.275-1.457v2.945c0,0-1.695,6.502-2.59,8.311
	C31.996,28.128,36.014,22.071,36.664,20.382z"/>
<path id="Path_791_" fill="#FFCC66" d="M37.743,9.169c-0.89,0.107-1.53,3.085-0.972,3.87c0.078,0.11,0.536,0.285,0.875-0.408
	c0.189-0.383,0.73-0.704,0.9-1.497C38.762,10.12,38.627,9.063,37.743,9.169z"/>
<path id="Path_790_" fill="#FFCC66" d="M26.258,9.169c0.89,0.107,1.531,3.085,0.972,3.87c-0.078,0.11-0.536,0.285-0.876-0.408
	c-0.188-0.383-0.73-0.704-0.898-1.497C25.239,10.12,25.374,9.063,26.258,9.169z"/>
<path id="Path_789_" fill="#DB9D3A" d="M37.719,9.741c-0.232,0.073-0.484,0.425-0.622,1.013c0.811-0.174,0.608,1.177-0.097,1.202
	c0.006,0.135,0.016,0.275,0.031,0.422c0.341-0.493,0.686-0.294,1.026-1.028C38.366,10.688,38.293,9.56,37.719,9.741z"/>
<path id="Path_788_" fill="#DB9D3A" d="M26.904,10.751c-0.138-0.585-0.39-0.939-0.621-1.011c-0.574-0.181-0.648,0.948-0.34,1.608
	c0.341,0.734,0.686,0.536,1.026,1.028c0.016-0.147,0.025-0.287,0.031-0.423C26.304,11.922,26.104,10.587,26.904,10.751z"/>
<path id="Path_787_" fill="#FFCC66" d="M32,3.446c-3.851,0-5.707,2.914-5.475,6.966c0.047,0.815,0.553,3.475,1.029,4.428
	c0.488,0.976,2.121,2.48,3.122,2.792c0.632,0.196,2.016,0.196,2.647,0c1.001-0.312,2.635-1.816,3.123-2.792
	c0.477-0.953,0.981-3.612,1.027-4.428C37.708,6.36,35.854,3.446,32,3.446z"/>
<path id="Path_784_" fill="#DB9D3A" d="M33.04,12.919c-0.109-0.077-0.368,0.041-1.04,0.041c-0.67,0-0.93-0.118-1.039-0.041
	c-0.132,0.093,0.078,0.512,1.039,0.512C32.963,13.431,33.172,13.012,33.04,12.919z"/>
<path id="Path_783_" fill="#DB9D3A" d="M32,14.506c-0.865-0.254-2.15,0.121-2.15,0.121c0.49,0.533,0.848,1.224,2.15,1.224
	c1.493,0,1.747-0.785,2.151-1.224C34.151,14.627,32.866,14.25,32,14.506z"/>
<path id="Path_782_" fill="#FFFFFF" d="M30.174,14.717c0.908,0.763,2.742,0.767,3.654,0C32.861,14.758,31.147,14.759,30.174,14.717z
	"/>
<path fill="#302C3B" d="M32.762,9.769c-0.435,0.223-1.088,0.223-1.523,0c-0.467-0.241-1.035-0.399-1.715-0.46
	c-0.664-0.061-2.074-0.057-2.776,0.196c-0.084,0.029-0.162,0.067-0.24,0.106c-0.043,0.021-0.051,0.04-0.051,0.122v0.104
	c0,0.204-0.024,0.124,0.116,0.207c0.273,0.166,0.427,0.589,0.513,1.174c0.118,0.85,0.526,1.383,1.193,1.64
	c0.616,0.233,1.306,0.226,1.919-0.023c0.334-0.137,0.629-0.354,0.863-0.703c0.408-0.614,0.286-0.998,0.497-1.524
	c0.185-0.46,0.701-0.46,0.886,0c0.211,0.526,0.091,0.91,0.5,1.524c0.231,0.35,0.525,0.566,0.862,0.703
	c0.61,0.249,1.3,0.256,1.919,0.023c0.665-0.257,1.074-0.791,1.191-1.64c0.084-0.585,0.239-1.009,0.515-1.174
	c0.139-0.083,0.114-0.003,0.114-0.207V9.732c0-0.082-0.008-0.101-0.049-0.122c-0.078-0.04-0.158-0.078-0.24-0.106
	c-0.705-0.252-2.113-0.256-2.777-0.196C33.798,9.37,33.229,9.527,32.762,9.769"/>
<linearGradient id="SVGID_2_" gradientUnits="userSpaceOnUse" x1="34.7354" y1="12.5474" x2="34.7354" y2="9.7285">
	<stop  offset="0" style="stop-color:#4E5E67"/>
	<stop  offset="0.2345" style="stop-color:#50606A"/>
	<stop  offset="0.381" style="stop-color:#576872"/>
	<stop  offset="0.5033" style="stop-color:#647681"/>
	<stop  offset="0.6124" style="stop-color:#758A95"/>
	<stop  offset="0.7126" style="stop-color:#8CA3B0"/>
	<stop  offset="0.8063" style="stop-color:#A7C2D1"/>
	<stop  offset="0.8934" style="stop-color:#C7E6F7"/>
	<stop  offset="0.9091" style="stop-color:#CEEDFF"/>
	<a:midPointStop  offset="0" style="stop-color:#4E5E67"/>
	<a:midPointStop  offset="0.7939" style="stop-color:#4E5E67"/>
	<a:midPointStop  offset="0.9091" style="stop-color:#CEEDFF"/>
</linearGradient>
<path opacity="0.3" fill="url(#SVGID_2_)" d="M33.053,10.143c-0.264,0.235-0.022,1.93,0.781,2.246
	c0.502,0.196,1.49,0.313,2.172-0.285c0.559-0.492,0.678-1.976,0.281-2.208C35.852,9.642,33.619,9.642,33.053,10.143z"/>
<linearGradient id="SVGID_3_" gradientUnits="userSpaceOnUse" x1="29.3003" y1="12.5483" x2="29.3003" y2="9.7285">
	<stop  offset="0" style="stop-color:#4E5E67"/>
	<stop  offset="0.2345" style="stop-color:#50606A"/>
	<stop  offset="0.381" style="stop-color:#576872"/>
	<stop  offset="0.5033" style="stop-color:#647681"/>
	<stop  offset="0.6124" style="stop-color:#758A95"/>
	<stop  offset="0.7126" style="stop-color:#8CA3B0"/>
	<stop  offset="0.8063" style="stop-color:#A7C2D1"/>
	<stop  offset="0.8934" style="stop-color:#C7E6F7"/>
	<stop  offset="0.9091" style="stop-color:#CEEDFF"/>
	<a:midPointStop  offset="0" style="stop-color:#4E5E67"/>
	<a:midPointStop  offset="0.7939" style="stop-color:#4E5E67"/>
	<a:midPointStop  offset="0.9091" style="stop-color:#CEEDFF"/>
</linearGradient>
<path opacity="0.3" fill="url(#SVGID_3_)" d="M30.982,10.145c0.264,0.233,0.022,1.93-0.781,2.244
	c-0.502,0.196-1.488,0.315-2.17-0.285c-0.559-0.49-0.68-1.976-0.283-2.208C28.186,9.642,30.416,9.642,30.982,10.145z"/>
<path fill="#4E5E67" d="M40.842,7.205c0,1.883-3.957,2.866-8.84,2.866c-4.886,0-8.843-0.983-8.843-2.866
	c0-0.895,3.957,0.426,8.843,0.426C36.883,7.631,40.842,6.31,40.842,7.205z"/>
<path fill="#4E5E67" d="M37.316,6.967c0,1.352-10.632,1.352-10.632,0c0-7.249,2.38-4.425,5.317-4.425
	C34.936,2.542,37.316-0.282,37.316,6.967z"/>
<path opacity="0.4" fill="#302C3B" d="M32.002,3.007c-1.475,0-4.027-1.11-3.166-0.205c1.133,1.188,5.238,1.142,6.328,0
	C36.025,1.896,33.475,3.007,32.002,3.007z"/>
<path fill="#302C3B" d="M26.685,6.388v1.281c2.077,0.843,8.554,0.843,10.632,0V6.388C35.242,7.233,28.76,7.233,26.685,6.388z"/>
</svg>
