<?xml version="1.0" encoding="utf-8"?>
<!-- Generator: Adobe Illustrator 15.0.0, SVG Export Plug-In . SVG Version: 6.00 Build 0)  -->
<!DOCTYPE svg PUBLIC "-//W3C//DTD SVG 1.1//EN" "http://www.w3.org/Graphics/SVG/1.1/DTD/svg11.dtd" [
	<!ENTITY ns_flows "http://ns.adobe.com/Flows/1.0/">
	<!ENTITY ns_extend "http://ns.adobe.com/Extensibility/1.0/">
	<!ENTITY ns_ai "http://ns.adobe.com/AdobeIllustrator/10.0/">
	<!ENTITY ns_graphs "http://ns.adobe.com/Graphs/1.0/">
]>
<svg version="1.1" id="Layer_1" xmlns:x="&ns_extend;" xmlns:i="&ns_ai;" xmlns:graph="&ns_graphs;"
	 xmlns="http://www.w3.org/2000/svg" xmlns:xlink="http://www.w3.org/1999/xlink" xmlns:a="http://ns.adobe.com/AdobeSVGViewerExtensions/3.0/"
	 x="0px" y="0px" width="64px" height="64px" viewBox="0 0 64 64" enable-background="new 0 0 64 64" xml:space="preserve">
<path fill="#302C3B" d="M36.123,24.626c-2.357,1.182-5.893,1.182-8.249,0c-2.517-1.3-5.592-2.131-9.274-2.455
	c-3.593-0.317-11.215-0.307-15.025,1.043c-0.438,0.153-0.867,0.353-1.285,0.566c-0.234,0.119-0.28,0.208-0.28,0.648v0.569
	c0,1.068-0.134,0.653,0.628,1.099c1.48,0.871,2.319,3.134,2.771,6.247c0.642,4.539,2.854,7.382,6.452,8.741
	c3.338,1.259,7.07,1.216,10.385-0.113c1.811-0.728,3.4-1.879,4.663-3.745c2.219-3.273,1.553-5.315,2.695-8.127
	c0.996-2.454,3.796-2.454,4.795,0c1.144,2.813,0.479,4.854,2.695,8.127c1.259,1.866,2.853,3.018,4.663,3.745
	c3.312,1.329,7.045,1.372,10.383,0.113c3.598-1.358,5.813-4.202,6.454-8.741c0.449-3.113,1.29-5.376,2.771-6.247
	c0.76-0.445,0.627-0.03,0.627-1.099v-0.569c0-0.44-0.048-0.529-0.28-0.648c-0.418-0.214-0.849-0.413-1.284-0.566
	c-3.812-1.35-11.434-1.361-15.026-1.043C41.715,22.496,38.639,23.327,36.123,24.626"/>
<linearGradient id="SVGID_1_" gradientUnits="userSpaceOnUse" x1="46.793" y1="39.4355" x2="46.793" y2="24.4087">
	<stop  offset="0" style="stop-color:#4E5E67"/>
	<stop  offset="0.2345" style="stop-color:#50606A"/>
	<stop  offset="0.381" style="stop-color:#576872"/>
	<stop  offset="0.5033" style="stop-color:#647681"/>
	<stop  offset="0.6124" style="stop-color:#758A95"/>
	<stop  offset="0.7126" style="stop-color:#8CA3B0"/>
	<stop  offset="0.8063" style="stop-color:#A7C2D1"/>
	<stop  offset="0.8934" style="stop-color:#C7E6F7"/>
	<stop  offset="0.9091" style="stop-color:#CEEDFF"/>
	<a:midPointStop  offset="0" style="stop-color:#4E5E67"/>
	<a:midPointStop  offset="0.7939" style="stop-color:#4E5E67"/>
	<a:midPointStop  offset="0.9091" style="stop-color:#CEEDFF"/>
</linearGradient>
<path opacity="0.3" fill="url(#SVGID_1_)" d="M37.697,26.619c-1.434,1.251-0.132,10.294,4.221,11.969
	c2.715,1.043,8.053,1.676,11.742-1.521c3.021-2.615,3.672-10.536,1.525-11.767C52.826,23.946,40.762,23.946,37.697,26.619z"/>
<linearGradient id="SVGID_2_" gradientUnits="userSpaceOnUse" x1="17.394" y1="39.4385" x2="17.394" y2="24.4121">
	<stop  offset="0" style="stop-color:#4E5E67"/>
	<stop  offset="0.2345" style="stop-color:#50606A"/>
	<stop  offset="0.381" style="stop-color:#576872"/>
	<stop  offset="0.5033" style="stop-color:#647681"/>
	<stop  offset="0.6124" style="stop-color:#758A95"/>
	<stop  offset="0.7126" style="stop-color:#8CA3B0"/>
	<stop  offset="0.8063" style="stop-color:#A7C2D1"/>
	<stop  offset="0.8934" style="stop-color:#C7E6F7"/>
	<stop  offset="0.9091" style="stop-color:#CEEDFF"/>
	<a:midPointStop  offset="0" style="stop-color:#4E5E67"/>
	<a:midPointStop  offset="0.7939" style="stop-color:#4E5E67"/>
	<a:midPointStop  offset="0.9091" style="stop-color:#CEEDFF"/>
</linearGradient>
<path opacity="0.3" fill="url(#SVGID_2_)" d="M26.489,26.622c1.434,1.25,0.132,10.296-4.219,11.968
	c-2.716,1.045-8.052,1.677-11.743-1.519c-3.021-2.615-3.673-10.536-1.526-11.768C11.361,23.95,23.424,23.95,26.489,26.622z"/>
</svg>
