<?xml version="1.0" encoding="utf-8"?>
<!-- Generator: Adobe Illustrator 15.0.0, SVG Export Plug-In . SVG Version: 6.00 Build 0)  -->
<!DOCTYPE svg PUBLIC "-//W3C//DTD SVG 1.1//EN" "http://www.w3.org/Graphics/SVG/1.1/DTD/svg11.dtd" [
	<!ENTITY ns_flows "http://ns.adobe.com/Flows/1.0/">
	<!ENTITY ns_extend "http://ns.adobe.com/Extensibility/1.0/">
	<!ENTITY ns_ai "http://ns.adobe.com/AdobeIllustrator/10.0/">
	<!ENTITY ns_graphs "http://ns.adobe.com/Graphs/1.0/">
]>
<svg version="1.1" id="Layer_1" xmlns:x="&ns_extend;" xmlns:i="&ns_ai;" xmlns:graph="&ns_graphs;"
	 xmlns="http://www.w3.org/2000/svg" xmlns:xlink="http://www.w3.org/1999/xlink" xmlns:a="http://ns.adobe.com/AdobeSVGViewerExtensions/3.0/"
	 x="0px" y="0px" width="64px" height="64px" viewBox="0 0 64 64" enable-background="new 0 0 64 64" xml:space="preserve">
<path fill="#302C3B" d="M8.787,52.754c2.701-1.365,13.908-4.969,13.908-4.969h16.695c0,0,11.199,3.596,13.885,4.965
	C57.18,54.734,58,62,58,62H4C4,62,4.871,54.73,8.787,52.754z"/>
<polygon fill="#E6EBEF" points="22.652,47.785 39.348,47.785 37.957,62 23.957,62 "/>
<polygon fill="#DEB38A" points="22,49.949 31,54.781 40,49.949 40,41.914 22,41.914 "/>
<path fill="#1A1626" d="M32.924,57.844c-0.518-1.393-3.328-1.393-3.846,0c-0.412,1.105-0.758,2.559-1.047,4.156h5.938
	C33.68,60.402,33.334,58.949,32.924,57.844z"/>
<path fill="#302C3B" d="M32.775,57.844c-0.4,0.504-3.195,0.559-3.549,0c-0.84-1.324-2.219-3.945-2.219-3.945S30.49,52.117,31,52.117
	c0.514,0,3.994,1.781,3.994,1.781S33.74,56.631,32.775,57.844z"/>
<path fill="#FFFFFF" d="M40,46.91l1.492,1.131c0,0-1.008,2.949-2.506,10.191L31,52.117C31,52.117,37.436,52.229,40,46.91z"/>
<path fill="#FFFFFF" d="M22,46.91l-1.49,1.131c0,0,1.006,2.949,2.504,10.191L31,52.117C31,52.117,24.564,52.229,22,46.91z"/>
<path fill="#404754" d="M40.508,62c0,0,3.299-4.465,5.252-8.746l-2.646-4.248l3.109-1.59c0,0-2.594-4.104-6.223-5.502
	c0,0-0.699,12.541-4.242,20.086H40.508z"/>
<path fill="#404754" d="M21.496,62c0,0-3.299-4.465-5.252-8.746l2.646-4.248l-3.109-1.59c0,0,2.594-4.104,6.223-5.502
	c0,0,0.699,12.541,4.242,20.086H21.496z"/>
<path id="Path_261_" fill="#FFD8B4" d="M47.441,25.395c-2.545,0.307-4.383,8.814-2.781,11.06c0.225,0.313,1.535,0.814,2.508-1.168
	c0.539-1.098,2.092-2.014,2.574-4.277C50.359,28.11,49.975,25.088,47.441,25.395z"/>
<path id="Path_260_" fill="#FFD8B4" d="M14.561,25.395c2.545,0.307,4.383,8.814,2.781,11.06c-0.225,0.313-1.535,0.814-2.51-1.168
	c-0.537-1.098-2.092-2.014-2.572-4.277C11.641,28.11,12.027,25.088,14.561,25.395z"/>
<path id="Path_259_" fill="#DEB38A" d="M47.373,27.024c-0.664,0.209-1.389,1.221-1.781,2.898c2.32-0.498,1.74,3.361-0.277,3.433
	c0.02,0.389,0.045,0.787,0.094,1.207c0.971-1.408,1.959-0.844,2.938-2.939C49.227,29.735,49.018,26.51,47.373,27.024z"/>
<path id="Path_258_" fill="#DEB38A" d="M16.41,29.918c-0.395-1.676-1.117-2.686-1.781-2.895c-1.643-0.514-1.855,2.711-0.973,4.599
	c0.979,2.096,1.967,1.531,2.939,2.939c0.047-0.42,0.074-0.82,0.09-1.209C14.689,33.26,14.117,29.448,16.41,29.918z"/>
<path id="Path_257_" fill="#FFD8B4" d="M31,9.035c-11.027,0-16.34,8.329-15.676,19.909c0.133,2.33,1.582,9.929,2.947,12.656
	c1.398,2.789,6.074,7.09,8.938,7.98c1.811,0.561,5.773,0.561,7.582,0c2.865-0.891,7.543-5.191,8.939-7.98
	c1.369-2.727,2.814-10.324,2.945-12.656C47.344,17.364,42.031,9.035,31,9.035z"/>
<path id="Path_256_" fill="#A88868" d="M42.982,24.545c-2.521-1.336-7.348-1.4-9.146-0.469c-0.387,0.178-0.131,1.441,0.193,1.322
	c2.504-0.99,6.547-1.012,8.893,0.084C43.234,25.625,43.365,24.731,42.982,24.545z"/>
<path id="Path_255_" fill="#A88868" d="M19.02,24.545c2.521-1.336,7.346-1.4,9.146-0.469c0.385,0.178,0.131,1.441-0.193,1.322
	c-2.51-0.99-6.547-1.012-8.895,0.084C18.768,25.625,18.639,24.731,19.02,24.545z"/>
<path id="Path_254_" fill="#DEB38A" d="M33.977,36.109c-0.314-0.219-1.053,0.119-2.977,0.119c-1.92,0-2.66-0.338-2.975-0.119
	C27.648,36.375,28.248,37.57,31,37.57C33.754,37.57,34.355,36.375,33.977,36.109z"/>
<path id="Path_253_" fill="#FFFFFF" d="M33.891,29.09c-0.104,0.822,0.452,1.796,2.001,2.527c0.981,0.465,3.024,1.012,5.708-0.121
	c1.208-0.506,2.379-2.082,2.272-2.957C42.417,25.801,35.252,25.401,33.891,29.09z"/>
<linearGradient id="Oval_1_" gradientUnits="userSpaceOnUse" x1="-425.2329" y1="477.417" x2="-425.2329" y2="478.2725" gradientTransform="matrix(6.5701 0 0 -6.5701 2832.511 3168.5281)">
	<stop  offset="0" style="stop-color:#A6694A"/>
	<stop  offset="1" style="stop-color:#4F2A1E"/>
	<a:midPointStop  offset="0" style="stop-color:#A6694A"/>
	<a:midPointStop  offset="0.5" style="stop-color:#A6694A"/>
	<a:midPointStop  offset="1" style="stop-color:#4F2A1E"/>
</linearGradient>
<path id="Oval_37_" fill="url(#Oval_1_)" d="M38.688,26.227c1.555,0,2.814,1.258,2.814,2.809c0,1.555-1.26,2.81-2.814,2.81
	s-2.814-1.255-2.814-2.81C35.873,27.485,37.133,26.227,38.688,26.227z"/>
<path id="Path_252_" fill="#1A1626" d="M37.282,28.985c0,1.943,2.814,1.943,2.814,0C40.097,27.18,37.282,27.18,37.282,28.985z"/>
<path id="Path_251_" fill="#AB968C" d="M36.853,28.196c0,0.814,1.181,0.814,1.181,0C38.033,27.444,36.853,27.444,36.853,28.196z"/>
<path id="Path_250_" fill="#DEB38A" d="M33.879,29.198c1.141-3.66,8.929-3.137,9.993-0.658
	C43.477,25.385,34.852,24.549,33.879,29.198z"/>
<path fill="#523E3A" d="M45.086,11.793C42.672,8.533,38.254,6,31,6c-7.252,0-11.668,2.533-14.082,5.794
	C13.5,16.411,48.502,16.411,45.086,11.793z"/>
<linearGradient id="SVGID_1_" gradientUnits="userSpaceOnUse" x1="31.0015" y1="31.793" x2="31.0015" y2="10.4121">
	<stop  offset="0.5" style="stop-color:#1E110E"/>
	<stop  offset="0.6367" style="stop-color:#271916"/>
	<stop  offset="0.859" style="stop-color:#3F2E2A"/>
	<stop  offset="1" style="stop-color:#523E3A"/>
	<a:midPointStop  offset="0.5" style="stop-color:#1E110E"/>
	<a:midPointStop  offset="0.6" style="stop-color:#1E110E"/>
	<a:midPointStop  offset="1" style="stop-color:#523E3A"/>
</linearGradient>
<path fill="url(#SVGID_1_)" d="M45.086,11.793C42.672,8.533,38.254,12.069,31,12.069c-7.252,0-11.668-3.536-14.082-0.275
	c-3.418,4.617-2.258,20-0.736,20c0.24,0,0.275-5.38,0.736-9.103c0.373-3.029,1.094-5.969,1.924-6.449
	c2.531-1.467,7.412,0.631,12.158,0.631s9.629-2.098,12.162-0.631c0.828,0.48,1.547,3.42,1.924,6.449
	c0.459,3.723,0.494,9.103,0.734,9.103C47.342,31.793,48.502,16.411,45.086,11.793z"/>
<path fill="#3A3D4A" d="M58.469,49.967C60.033,54.281,60,62,60,62h-9.238c0,0-1.176-10.43,0.479-11.223
	C54.586,49.176,58.236,49.322,58.469,49.967z"/>
<path fill="#FFD8B4" d="M45.488,39.844c-0.873-1.279,2.57-2.223,3.139,0.023c0.229,0.908,9.631,0.668,10.381,2.01
	c1.352,2.41-1.748,7.166-1.293,8.145c0.453,0.979-6.324,2.516-6.191,1.285c0.436-4.033-1.584-2.508-2.449-5.9
	C48.422,42.855,46.654,41.555,45.488,39.844z"/>
<linearGradient id="SVGID_2_" gradientUnits="userSpaceOnUse" x1="40.3301" y1="37.6846" x2="40.3301" y2="20.1016">
	<stop  offset="0" style="stop-color:#FFFFFF;stop-opacity:0"/>
	<stop  offset="1" style="stop-color:#FFFFFF"/>
	<a:midPointStop  offset="0" style="stop-color:#FFFFFF;stop-opacity:0"/>
	<a:midPointStop  offset="0.5" style="stop-color:#FFFFFF;stop-opacity:0"/>
	<a:midPointStop  offset="1" style="stop-color:#FFFFFF"/>
</linearGradient>
<circle opacity="0.65" fill="url(#SVGID_2_)" cx="40.331" cy="28.893" r="8.789"/>
<polygon fill="#BEC3CF" points="48.217,38.977 50.412,36.785 48.063,34.436 45.869,36.633 "/>
<path fill="#BEC3CF" d="M47.235,35.801c3.816-3.816,3.815-9.998,0.001-13.816c-3.814-3.813-10-3.814-13.813,0
	c-3.815,3.814-3.815,10.003,0,13.818C37.236,39.617,43.424,39.617,47.235,35.801z M34.652,34.57
	c-3.138-3.131-3.137-8.222,0.002-11.357c3.134-3.137,8.218-3.135,11.352,0c3.14,3.137,3.14,8.224,0,11.359
	C42.872,37.709,37.786,37.709,34.652,34.57z"/>
<rect x="51.019" y="36.02" transform="matrix(-0.7072 0.707 -0.707 -0.7072 120.0875 33.5843)" fill="#302C3B" width="4.141" height="11.274"/>
<path fill="#BEC3CF" d="M55.334,47.682c0.48,0.48,4.263-3.297,3.779-3.781l-0.294-0.293c-0.483-0.484-4.265,3.295-3.781,3.777
	L55.334,47.682z"/>
<path fill="#FFD8B4" d="M53.711,36.953c1.753-0.063,2.167,1.357,2.167,1.357c1.589,0.176,2.189,1.715,2.189,1.715
	c3.056,1.553-1.414,7.904-2.428,4.652c-1.293,1.602-3.145,0.502-2.048-1.363c-1.411,1.916-3.018-0.213-2.218-1.396
	c0.301-0.441,0.516-0.99,0.868-1.496c-1.462,1.924-2.885-0.064-2.396-1.271c0.543-1.336,1.364-2.549,1.787-2.834
	C52.474,35.75,53.484,36.541,53.711,36.953z"/>
<path fill="#DEB38A" d="M50.188,40.838c1.529,1.74,3.1-1.988,3.15-2.719C52.346,40.594,50.846,41.439,50.188,40.838z"/>
<path fill="#DEB38A" d="M51.566,43.688c1.53,1.742,3.387-1.916,3.82-4.061C54.062,43.467,52.224,44.291,51.566,43.688z"/>
<path fill="#DEB38A" d="M53.589,45.193c1.529,1.742,3.502-1.941,3.935-4.086C56.199,44.947,54.247,45.797,53.589,45.193z"/>
<path fill="#302C3B" d="M58,20.542c0,2.146-12.091,4.416-27,4.416c-14.913,0-27-2.27-27-4.416s12.087-3.887,27-3.887
	C45.909,16.655,58,18.395,58,20.542z"/>
<path fill="#302C3B" d="M47.836,17.081c0,4.111-33.672,4.111-33.672,0C14.164-4.932,21.7,3.644,31,3.644
	C40.298,3.644,47.836-4.932,47.836,17.081z"/>
<path fill="#1A1626" d="M31,5.06c-4.667,0-12.748-3.377-10.02-0.627c3.584,3.607,16.584,3.477,20.037,0
	C43.749,1.683,35.665,5.06,31,5.06z"/>
<path fill="#1A1626" d="M14.164,15.325v3.889c6.579,2.561,27.093,2.561,33.672,0v-3.889C41.265,17.887,20.733,17.887,14.164,15.325z
	"/>
<path id="Path_249_" fill="#DEB38A" d="M30.999,40.342c-2.48-0.727-6.156,0.346-6.156,0.346c1.4,1.523,2.426,3.496,6.156,3.496
	c4.273,0,5.002-2.24,6.158-3.496C37.157,40.688,33.479,39.611,30.999,40.342z"/>
<path id="Path_248_" fill="#FFFFFF" d="M25.767,40.945c2.602,2.178,7.852,2.193,10.467,0C33.462,41.064,28.558,41.064,25.767,40.945
	z"/>
<path fill="#45332C" d="M20.813,29.975c1.665-0.945,4.659-1.008,6.457,0c0.415,0.234,1.105,0.072,0.951-0.201
	c-1.571-2.77-6.792-2.766-8.359,0C19.707,30.047,20.398,30.211,20.813,29.975z"/>
</svg>
