<?xml version="1.0" encoding="utf-8"?>
<!-- Generator: Adobe Illustrator 15.0.0, SVG Export Plug-In . SVG Version: 6.00 Build 0)  -->
<!DOCTYPE svg PUBLIC "-//W3C//DTD SVG 1.1//EN" "http://www.w3.org/Graphics/SVG/1.1/DTD/svg11.dtd" [
	<!ENTITY ns_flows "http://ns.adobe.com/Flows/1.0/">
	<!ENTITY ns_extend "http://ns.adobe.com/Extensibility/1.0/">
	<!ENTITY ns_ai "http://ns.adobe.com/AdobeIllustrator/10.0/">
	<!ENTITY ns_graphs "http://ns.adobe.com/Graphs/1.0/">
]>
<svg version="1.1" id="Layer_1" xmlns:x="&ns_extend;" xmlns:i="&ns_ai;" xmlns:graph="&ns_graphs;"
	 xmlns="http://www.w3.org/2000/svg" xmlns:xlink="http://www.w3.org/1999/xlink" xmlns:a="http://ns.adobe.com/AdobeSVGViewerExtensions/3.0/"
	 x="0px" y="0px" width="64px" height="64px" viewBox="0 0 64 64" enable-background="new 0 0 64 64" xml:space="preserve">
<path fill="#1A1714" d="M38.582,50.743c15.168-6.066,11.65-20.477,11.65-20.477H11.766c0,0-3.516,14.411,11.648,20.477
	c0,0,3.035,0.758,7.584,0.758C35.549,51.501,38.582,50.743,38.582,50.743z"/>
<linearGradient id="SVGID_1_" gradientUnits="userSpaceOnUse" x1="45.166" y1="51.499" x2="45.166" y2="6.1147">
	<stop  offset="0.05" style="stop-color:#1A1714"/>
	<stop  offset="0.112" style="stop-color:#1F1B18"/>
	<stop  offset="0.4761" style="stop-color:#37322C"/>
	<stop  offset="0.7" style="stop-color:#403A33"/>
	<a:midPointStop  offset="0.05" style="stop-color:#1A1714"/>
	<a:midPointStop  offset="0.4" style="stop-color:#1A1714"/>
	<a:midPointStop  offset="0.7" style="stop-color:#403A33"/>
</linearGradient>
<path fill="url(#SVGID_1_)" d="M46.332,31.805c1.172,4.932-1.553,14.6-7.75,18.938c9.102-1.518,13.168-10.111,13.168-16.705
	L46.332,31.805z"/>
<linearGradient id="SVGID_2_" gradientUnits="userSpaceOnUse" x1="1763.9805" y1="51.499" x2="1763.9805" y2="6.1147" gradientTransform="matrix(-1 0 0 1 1780.8145 0)">
	<stop  offset="0.05" style="stop-color:#1A1714"/>
	<stop  offset="0.112" style="stop-color:#1F1B18"/>
	<stop  offset="0.4761" style="stop-color:#37322C"/>
	<stop  offset="0.7" style="stop-color:#403A33"/>
	<a:midPointStop  offset="0.05" style="stop-color:#1A1714"/>
	<a:midPointStop  offset="0.4" style="stop-color:#1A1714"/>
	<a:midPointStop  offset="0.7" style="stop-color:#403A33"/>
</linearGradient>
<path fill="url(#SVGID_2_)" d="M15.666,31.805c-1.172,4.932,1.555,14.6,7.752,18.938C14.316,49.226,10.25,40.632,10.25,34.038
	L15.666,31.805z"/>
<path fill="#302C3B" d="M8.787,52.755c2.701-1.365,13.908-4.969,13.908-4.969h16.695c0,0,11.199,3.596,13.885,4.965
	C57.18,54.735,58,62.001,58,62.001H4C4,62.001,4.871,54.731,8.787,52.755z"/>
<polygon fill="#E6EBEF" points="22.652,47.786 39.348,47.786 37.957,62.001 23.957,62.001 "/>
<polygon fill="#302116" points="22,49.95 31,54.782 40,49.95 40,41.915 22,41.915 "/>
<path fill="#1A1626" d="M32.924,57.845c-0.518-1.393-3.328-1.393-3.846,0c-0.412,1.105-0.758,2.559-1.047,4.156h5.938
	C33.68,60.403,33.334,58.95,32.924,57.845z"/>
<path fill="#302C3B" d="M32.775,57.845c-0.4,0.504-3.195,0.559-3.549,0c-0.84-1.324-2.219-3.945-2.219-3.945S30.49,52.118,31,52.118
	c0.514,0,3.994,1.781,3.994,1.781S33.74,56.632,32.775,57.845z"/>
<path fill="#FFFFFF" d="M40,46.911l1.492,1.131c0,0-1.008,2.949-2.506,10.191L31,52.118C31,52.118,37.436,52.229,40,46.911z"/>
<path fill="#FFFFFF" d="M22,46.911l-1.49,1.131c0,0,1.006,2.949,2.504,10.191L31,52.118C31,52.118,24.564,52.229,22,46.911z"/>
<path fill="#404754" d="M40.508,62.001c0,0,3.299-4.465,5.252-8.746l-2.646-4.248l3.109-1.59c0,0-2.594-4.104-6.223-5.502
	c0,0-0.699,12.541-4.242,20.086H40.508z"/>
<path fill="#404754" d="M21.496,62.001c0,0-3.299-4.465-5.252-8.746l2.646-4.248l-3.109-1.59c0,0,2.594-4.104,6.223-5.502
	c0,0,0.699,12.541,4.242,20.086H21.496z"/>
<path fill="#614A36" d="M31,8.275c-11.006,0-16.307,8.963-15.645,20.487c0.137,2.314,0.781,5.657,1.576,8.52
	C18.582,43.233,27.291,49.226,31,49.226c3.707,0,12.416-5.992,14.068-11.943c0.795-2.863,1.439-6.206,1.574-8.52
	C47.305,17.238,42.006,8.275,31,8.275z"/>
<path fill="#472B27" d="M30.998,39.872c-2.578-1.135-2.6-0.047-6.58,0.221c1.494,1.697,2.594,3.879,6.578,3.879
	c4.574,0,5.348-2.479,6.586-3.879C33.596,39.825,33.58,38.737,30.998,39.872z"/>
<path fill="#FFFFFF" d="M25.613,40.515c2.6,2.705,8.205,2.67,10.771,0.002C32.383,40.946,29.615,40.946,25.613,40.515z"/>
<path fill="#403229" d="M42.693,24.928c-2.391-1.426-6.68-1.6-8.377-0.629c-0.359,0.195-0.262,1.225,0.049,1.096
	c2.42-1.006,6.107-1.057,8.379,0.109C43.049,25.657,43.057,25.135,42.693,24.928z"/>
<path fill="#403229" d="M19.305,24.928c2.391-1.426,6.678-1.6,8.379-0.629c0.359,0.195,0.264,1.225-0.049,1.096
	c-2.422-1.006-6.105-1.059-8.381,0.109C18.949,25.657,18.943,25.135,19.305,24.928z"/>
<path fill="#302116" d="M33.473,36.214c-0.262-0.184-0.877,0.1-2.475,0.1c-1.596,0-2.211-0.283-2.473-0.1
	c-0.314,0.221,0.184,1.219,2.473,1.219S33.789,36.437,33.473,36.214z"/>
<path id="Path_1891_" fill="#FFFFFF" d="M33.875,29.256c-0.104,0.82,0.454,1.797,2.001,2.527c0.981,0.465,3.024,1.012,5.71-0.121
	c1.205-0.506,2.376-2.086,2.271-2.959C42.402,25.959,35.238,25.557,33.875,29.256z"/>
<linearGradient id="Oval_1_" gradientUnits="userSpaceOnUse" x1="-425.2354" y1="477.3916" x2="-425.2354" y2="478.248" gradientTransform="matrix(6.5701 0 0 -6.5701 2832.511 3168.5281)">
	<stop  offset="0" style="stop-color:#A6694A"/>
	<stop  offset="1" style="stop-color:#4F2A1E"/>
	<a:midPointStop  offset="0" style="stop-color:#A6694A"/>
	<a:midPointStop  offset="0.5" style="stop-color:#A6694A"/>
	<a:midPointStop  offset="1" style="stop-color:#4F2A1E"/>
</linearGradient>
<circle id="Oval_241_" fill="url(#Oval_1_)" cx="38.674" cy="29.2" r="2.813"/>
<path id="Path_1890_" fill="#1A1626" d="M37.269,29.149c0,1.945,2.813,1.945,2.813,0C40.081,27.342,37.269,27.342,37.269,29.149z"/>
<path id="Path_1889_" fill="#AB968C" d="M36.838,28.36c0,0.818,1.181,0.818,1.181,0C38.019,27.604,36.838,27.604,36.838,28.36z"/>
<path id="Path_1888_" fill="#45332C" d="M33.864,29.364c1.141-3.67,8.927-3.145,9.992-0.66
	C43.461,25.542,34.837,24.706,33.864,29.364z"/>
<linearGradient id="SVGID_3_" gradientUnits="userSpaceOnUse" x1="31.0005" y1="51.499" x2="31.0005" y2="6.1135">
	<stop  offset="0.05" style="stop-color:#1A1714"/>
	<stop  offset="0.112" style="stop-color:#1F1B18"/>
	<stop  offset="0.4761" style="stop-color:#37322C"/>
	<stop  offset="0.7" style="stop-color:#403A33"/>
	<a:midPointStop  offset="0.05" style="stop-color:#1A1714"/>
	<a:midPointStop  offset="0.4" style="stop-color:#1A1714"/>
	<a:midPointStop  offset="0.7" style="stop-color:#403A33"/>
</linearGradient>
<path fill="url(#SVGID_3_)" d="M43.385,9.884c1.258-1.795-9.387-5.582-19.438-3.023C13.908,9.16,10.25,24.202,10.25,34.038
	c0.898,0.713,4.396-1.065,5.416-2.233c0.416-1.723,1.072-3.494,1.684-5.328c7.539-4.366,16.07-5.394,21.992-10.618
	c-0.758,2.275,3.256,5.145,5.309,10.618c0.664,1.773,1.26,3.553,1.682,5.328c1.674,1.54,3.014,2.268,5.418,2.233
	C51.75,25.719,47.41,8.722,43.385,9.884z"/>
<path fill="#1A1714" d="M12.059,32.542c6.943-9.246,27.438-8.619,31.326-22.657C35.834,21.666,13.955,23.653,12.059,32.542z"/>
<path fill="#3A3D4A" d="M58.469,49.968C60.033,54.282,60,62.001,60,62.001h-9.238c0,0-1.176-10.43,0.479-11.223
	C54.586,49.177,58.236,49.323,58.469,49.968z"/>
<path fill="#614A36" d="M45.488,39.845c-0.873-1.279,2.57-2.223,3.139,0.023c0.229,0.908,9.631,0.668,10.381,2.01
	c1.352,2.41-1.748,7.166-1.293,8.145c0.453,0.979-6.324,2.516-6.191,1.285c0.436-4.033-1.584-2.508-2.449-5.9
	C48.422,42.856,46.654,41.556,45.488,39.845z"/>
<linearGradient id="SVGID_4_" gradientUnits="userSpaceOnUse" x1="40.3301" y1="37.6855" x2="40.3301" y2="20.1006">
	<stop  offset="0" style="stop-color:#FFFFFF;stop-opacity:0"/>
	<stop  offset="1" style="stop-color:#FFFFFF"/>
	<a:midPointStop  offset="0" style="stop-color:#FFFFFF;stop-opacity:0"/>
	<a:midPointStop  offset="0.5" style="stop-color:#FFFFFF;stop-opacity:0"/>
	<a:midPointStop  offset="1" style="stop-color:#FFFFFF"/>
</linearGradient>
<circle opacity="0.65" fill="url(#SVGID_4_)" cx="40.331" cy="28.893" r="8.79"/>
<polygon fill="#BEC3CF" points="48.217,38.978 50.412,36.786 48.063,34.437 45.869,36.634 "/>
<path fill="#BEC3CF" d="M47.235,35.802c3.816-3.817,3.815-9.999,0.001-13.818c-3.814-3.813-10-3.814-13.813,0
	c-3.815,3.815-3.815,10.005,0,13.82C37.236,39.618,43.424,39.618,47.235,35.802z M34.652,34.571
	c-3.138-3.131-3.137-8.223,0.002-11.358c3.134-3.138,8.218-3.136,11.352,0c3.14,3.137,3.14,8.225,0,11.36
	C42.872,37.71,37.786,37.71,34.652,34.571z"/>
<rect x="51.019" y="36.021" transform="matrix(-0.7072 0.707 -0.707 -0.7072 120.0882 33.586)" fill="#302C3B" width="4.141" height="11.274"/>
<path fill="#BEC3CF" d="M55.334,47.683c0.48,0.48,4.263-3.297,3.779-3.781l-0.294-0.293c-0.483-0.484-4.265,3.295-3.781,3.777
	L55.334,47.683z"/>
<path fill="#614A36" d="M53.711,36.954c1.753-0.063,2.167,1.357,2.167,1.357c1.589,0.176,2.189,1.715,2.189,1.715
	c3.056,1.553-1.414,7.904-2.428,4.652c-1.293,1.602-3.145,0.502-2.048-1.363c-1.411,1.916-3.018-0.213-2.218-1.396
	c0.301-0.441,0.516-0.99,0.868-1.496c-1.462,1.924-2.885-0.064-2.396-1.271c0.543-1.336,1.364-2.549,1.787-2.834
	C52.474,35.751,53.484,36.542,53.711,36.954z"/>
<path fill="#302116" d="M50.188,40.839c1.529,1.74,3.1-1.988,3.15-2.719C52.346,40.595,50.846,41.44,50.188,40.839z"/>
<path fill="#302116" d="M51.566,43.688c1.53,1.742,3.387-1.916,3.82-4.061C54.062,43.468,52.224,44.292,51.566,43.688z"/>
<path fill="#302116" d="M53.589,45.194c1.529,1.742,3.502-1.941,3.935-4.086C56.199,44.948,54.247,45.798,53.589,45.194z"/>
<path fill="#302C3B" d="M58,20.541c0,2.147-12.091,4.417-27,4.417c-14.913,0-27-2.27-27-4.417c0-2.146,12.087-3.887,27-3.887
	C45.909,16.654,58,18.394,58,20.541z"/>
<path fill="#302C3B" d="M49,17.08c0,4.111-36,4.111-36,0C13-4.932,21.058,3.644,31,3.644C40.939,3.644,49-4.932,49,17.08z"/>
<path fill="#1A1626" d="M31,5.06c-4.99,0-13.629-3.377-10.711-0.627c3.831,3.607,17.729,3.477,21.42,0
	C44.63,1.683,35.988,5.06,31,5.06z"/>
<path fill="#1A1626" d="M13,15.324v3.889c7.033,2.561,28.967,2.561,36,0v-3.889C41.974,17.886,20.024,17.886,13,15.324z"/>
<path fill="#302116" d="M20.813,29.975c1.665-0.945,4.659-1.008,6.457,0c0.415,0.234,1.105,0.072,0.951-0.201
	c-1.571-2.77-6.792-2.766-8.359,0C19.707,30.047,20.398,30.211,20.813,29.975z"/>
</svg>
