<?xml version="1.0" encoding="utf-8"?>
<!-- Generator: Adobe Illustrator 15.0.0, SVG Export Plug-In . SVG Version: 6.00 Build 0)  -->
<!DOCTYPE svg PUBLIC "-//W3C//DTD SVG 1.1//EN" "http://www.w3.org/Graphics/SVG/1.1/DTD/svg11.dtd" [
	<!ENTITY ns_flows "http://ns.adobe.com/Flows/1.0/">
	<!ENTITY ns_extend "http://ns.adobe.com/Extensibility/1.0/">
	<!ENTITY ns_ai "http://ns.adobe.com/AdobeIllustrator/10.0/">
	<!ENTITY ns_graphs "http://ns.adobe.com/Graphs/1.0/">
]>
<svg version="1.1" id="Layer_1" xmlns:x="&ns_extend;" xmlns:i="&ns_ai;" xmlns:graph="&ns_graphs;"
	 xmlns="http://www.w3.org/2000/svg" xmlns:xlink="http://www.w3.org/1999/xlink" xmlns:a="http://ns.adobe.com/AdobeSVGViewerExtensions/3.0/"
	 x="0px" y="0px" width="64px" height="64px" viewBox="0 0 64 64" enable-background="new 0 0 64 64" xml:space="preserve">
<radialGradient id="SVGID_1_" cx="219.041" cy="9.9673" r="9.2201" gradientTransform="matrix(0.6996 0.716 -0.6996 0.716 -131.2607 -117.4816)" gradientUnits="userSpaceOnUse">
	<stop  offset="0" style="stop-color:#8A6859"/>
	<stop  offset="1" style="stop-color:#785647"/>
	<a:midPointStop  offset="0" style="stop-color:#8A6859"/>
	<a:midPointStop  offset="0.5212" style="stop-color:#8A6859"/>
	<a:midPointStop  offset="1" style="stop-color:#785647"/>
</radialGradient>
<path fill="url(#SVGID_1_)" d="M23.967,49.201l-7.889-8.354c-4.73,1.215-8.807,4.244-9.224,8.207
	c-0.513,4.869,6.526,13.6,12.691,9.258C23.267,55.691,23.967,49.201,23.967,49.201z"/>
<path fill="#73564A" d="M17.593,42.451l-0.769-0.813c0,0-6.133,0.807-8.74,5.805C12.547,42.752,17.593,42.451,17.593,42.451z"/>
<path fill="#73564A" d="M18.482,43.395l-0.769-0.813c0,0-6.345,2.496-8.953,7.492C13.224,45.383,18.482,43.395,18.482,43.395z"/>
<path fill="#73564A" d="M22.001,43.389l-0.769-0.816c0,0-6.345,2.498-8.953,7.494C16.742,45.375,22.001,43.389,22.001,43.389z"/>
<linearGradient id="SVGID_2_" gradientUnits="userSpaceOnUse" x1="213.7051" y1="22.0659" x2="229.7656" y2="22.0659" gradientTransform="matrix(0.7071 0.7071 -0.7071 0.7071 -131.6396 -115.1959)">
	<stop  offset="0" style="stop-color:#FF3333"/>
	<stop  offset="0.2909" style="stop-color:#EF2729"/>
	<stop  offset="0.8566" style="stop-color:#C60910"/>
	<stop  offset="1" style="stop-color:#BA0009"/>
	<a:midPointStop  offset="0" style="stop-color:#FF3333"/>
	<a:midPointStop  offset="0.5576" style="stop-color:#FF3333"/>
	<a:midPointStop  offset="1" style="stop-color:#BA0009"/>
</linearGradient>
<path fill="url(#SVGID_2_)" d="M2,59.004c0,0,7.507,6.957,17.381-0.33c2.226-1.643-4.789,0.26-3.73-2.678
	c0.451-1.254-4.321,0.068-4.182-3.182c0.094-2.176-3.494,0.715-4.27-3.605C6.52,45.428,6.201,57.514,2,59.004z"/>
<linearGradient id="SVGID_3_" gradientUnits="userSpaceOnUse" x1="9.2051" y1="115.1484" x2="9.2051" y2="129.1738" gradientTransform="matrix(0.7071 -0.7071 0.7071 0.7071 -51.0817 -57.3799)">
	<stop  offset="0" style="stop-color:#0085D4"/>
	<stop  offset="0.0945" style="stop-color:#0080CC"/>
	<stop  offset="0.6976" style="stop-color:#00639E"/>
	<stop  offset="1" style="stop-color:#00588C"/>
	<a:midPointStop  offset="0" style="stop-color:#0085D4"/>
	<a:midPointStop  offset="0.4485" style="stop-color:#0085D4"/>
	<a:midPointStop  offset="1" style="stop-color:#00588C"/>
</linearGradient>
<path fill="url(#SVGID_3_)" d="M44.559,9.827C37.01,17.551,27.41,29.125,19.604,37.115c1.403,6.303,8.087,8.275,8.087,8.275
	c7.806-7.988,19.174-17.876,26.662-25.541c6.613-6.768,9.077-14.736,6.841-17.025S51.172,3.059,44.559,9.827z"/>
<linearGradient id="SVGID_4_" gradientUnits="userSpaceOnUse" x1="-19.6509" y1="116.8008" x2="-19.6509" y2="128.4336" gradientTransform="matrix(0.7071 -0.7071 0.7071 0.7071 -51.0817 -57.3799)">
	<stop  offset="0" style="stop-color:#B3C2C6"/>
	<stop  offset="0.2131" style="stop-color:#AEBDC1"/>
	<stop  offset="0.4787" style="stop-color:#A0ADB2"/>
	<stop  offset="0.771" style="stop-color:#889499"/>
	<stop  offset="1" style="stop-color:#717B80"/>
	<a:midPointStop  offset="0" style="stop-color:#B3C2C6"/>
	<a:midPointStop  offset="0.6606" style="stop-color:#B3C2C6"/>
	<a:midPointStop  offset="1" style="stop-color:#717B80"/>
</linearGradient>
<path fill="url(#SVGID_4_)" d="M23.965,49.205c1.242-1.271,2.484-2.543,3.727-3.814c-2.903-2.537-5.607-5.305-8.087-8.275
	c-1.241,1.271-2.483,2.541-3.726,3.813C18.357,43.9,21.063,46.666,23.965,49.205z"/>
<linearGradient id="SVGID_5_" gradientUnits="userSpaceOnUse" x1="-18.6016" y1="122.5996" x2="-17.6875" y2="122.5996" gradientTransform="matrix(0.7071 -0.7071 0.7071 0.7071 -51.0817 -57.3799)">
	<stop  offset="0" style="stop-color:#717B80"/>
	<stop  offset="0.229" style="stop-color:#889499"/>
	<stop  offset="0.5213" style="stop-color:#A0ADB2"/>
	<stop  offset="0.7869" style="stop-color:#AEBDC1"/>
	<stop  offset="1" style="stop-color:#B3C2C6"/>
	<a:midPointStop  offset="0" style="stop-color:#717B80"/>
	<a:midPointStop  offset="0.3394" style="stop-color:#717B80"/>
	<a:midPointStop  offset="1" style="stop-color:#B3C2C6"/>
</linearGradient>
<path fill="url(#SVGID_5_)" d="M27.063,46.352c-0.111,0.113-0.285,0.137-0.386,0.051c-2.928-2.496-5.622-5.254-8.06-8.25
	c-0.085-0.104-0.063-0.279,0.05-0.395c0.112-0.113,0.271-0.123,0.354-0.02c2.438,2.996,5.133,5.754,8.061,8.25
	C27.183,46.074,27.174,46.236,27.063,46.352z"/>
<linearGradient id="SVGID_6_" gradientUnits="userSpaceOnUse" x1="-19.7612" y1="122.6133" x2="-18.8477" y2="122.6133" gradientTransform="matrix(0.7071 -0.7071 0.7071 0.7071 -51.0817 -57.3799)">
	<stop  offset="0" style="stop-color:#717B80"/>
	<stop  offset="0.229" style="stop-color:#889499"/>
	<stop  offset="0.5213" style="stop-color:#A0ADB2"/>
	<stop  offset="0.7869" style="stop-color:#AEBDC1"/>
	<stop  offset="1" style="stop-color:#B3C2C6"/>
	<a:midPointStop  offset="0" style="stop-color:#717B80"/>
	<a:midPointStop  offset="0.3394" style="stop-color:#717B80"/>
	<a:midPointStop  offset="1" style="stop-color:#B3C2C6"/>
</linearGradient>
<path fill="url(#SVGID_6_)" d="M26.252,47.18c-0.111,0.115-0.285,0.139-0.386,0.053c-2.927-2.496-5.622-5.254-8.06-8.25
	c-0.084-0.104-0.063-0.281,0.051-0.395c0.111-0.115,0.27-0.123,0.354-0.02c2.439,2.996,5.133,5.754,8.061,8.248
	C26.372,46.902,26.364,47.066,26.252,47.18z"/>
</svg>
