<?xml version="1.0" encoding="utf-8"?>
<!-- Generator: Adobe Illustrator 15.0.0, SVG Export Plug-In . SVG Version: 6.00 Build 0)  -->
<!DOCTYPE svg PUBLIC "-//W3C//DTD SVG 1.1//EN" "http://www.w3.org/Graphics/SVG/1.1/DTD/svg11.dtd" [
	<!ENTITY ns_flows "http://ns.adobe.com/Flows/1.0/">
	<!ENTITY ns_extend "http://ns.adobe.com/Extensibility/1.0/">
	<!ENTITY ns_ai "http://ns.adobe.com/AdobeIllustrator/10.0/">
	<!ENTITY ns_graphs "http://ns.adobe.com/Graphs/1.0/">
]>
<svg version="1.1" id="Layer_1" xmlns:x="&ns_extend;" xmlns:i="&ns_ai;" xmlns:graph="&ns_graphs;"
	 xmlns="http://www.w3.org/2000/svg" xmlns:xlink="http://www.w3.org/1999/xlink" xmlns:a="http://ns.adobe.com/AdobeSVGViewerExtensions/3.0/"
	 x="0px" y="0px" width="64px" height="64px" viewBox="0 0 64 64" enable-background="new 0 0 64 64" xml:space="preserve">
<linearGradient id="SVGID_1_" gradientUnits="userSpaceOnUse" x1="-396.3232" y1="209.0801" x2="-361.0737" y2="173.8306" gradientTransform="matrix(0.9397 0.342 -0.342 0.9397 441.5181 -18.1901)">
	<stop  offset="0" style="stop-color:#99A8AE"/>
	<stop  offset="0.0182" style="stop-color:#9BAAB0"/>
	<stop  offset="0.2636" style="stop-color:#B8C3C9"/>
	<stop  offset="0.478" style="stop-color:#C9D3D8"/>
	<stop  offset="0.6364" style="stop-color:#CFD8DD"/>
	<a:midPointStop  offset="0" style="stop-color:#99A8AE"/>
	<a:midPointStop  offset="0.3576" style="stop-color:#99A8AE"/>
	<a:midPointStop  offset="0.6364" style="stop-color:#CFD8DD"/>
</linearGradient>
<path fill="url(#SVGID_1_)" d="M33.646,24.919c-1.187,2.674-12.987,29.118-13.612,30.352c-4.698,9.27-17.821,2.79-14.103-6.297
	C12.88,31.994,21.815,8.696,21.815,8.696c3.229-8.377,16.107-4.092,11.883,5.368c-0.98,2.193-11.206,28.318-11.671,29.399
	c-2.823,6.56-11.483,2.776-9.053-3.042c1.645-3.938,3.948-7.096,8.491-19.407c-0.442-0.376-1.499-0.823-2.091-0.74
	C14.846,32.546,12.56,35.672,10.9,39.637c-3.707,8.865,9.105,14.138,13.188,4.633c0.485-1.118,10.705-27.229,11.662-29.372
	C40.93,3.307,24.19-3.633,19.718,7.973c0,0-8.927,23.275-15.866,40.234C-0.98,60.008,16.068,67.995,22.038,56.2
	c0.658-1.297,12.48-27.789,13.66-30.449C34.481,25.001,33.653,24.92,33.646,24.919z"/>
<linearGradient id="SVGID_2_" gradientUnits="userSpaceOnUse" x1="-300.7783" y1="980.5811" x2="-265.4779" y2="945.2806" gradientTransform="matrix(-0.9397 0.342 -0.342 -0.9397 107.7568 1033.4723)">
	<stop  offset="0" style="stop-color:#99A8AE"/>
	<stop  offset="1" style="stop-color:#CFD8DD"/>
	<a:midPointStop  offset="0" style="stop-color:#99A8AE"/>
	<a:midPointStop  offset="0.5152" style="stop-color:#99A8AE"/>
	<a:midPointStop  offset="1" style="stop-color:#CFD8DD"/>
</linearGradient>
<path fill="url(#SVGID_2_)" d="M38.835,46.047c-0.81-2.815-8.767-30.697-9.08-32.044C27.396,3.869,41.61,0.392,44.602,9.753
	c5.592,17.499,13.72,41.123,13.72,41.123c2.91,8.505-9.707,13.506-12.551,3.531c-0.658-2.313-9.615-28.936-9.955-30.064
	c-2.053-6.848,7.012-9.521,8.89-3.494c1.271,4.081,1.536,7.985,5.969,20.353c0.582,0.003,1.679-0.333,2.076-0.778
	c-4.418-12.33-4.676-16.2-5.952-20.308c-2.858-9.188-16.059-4.983-13.079,4.936c0.349,1.17,9.301,27.778,9.946,30.038
	c3.482,12.222,20.762,6.773,16.729-5.009c0,0-8.122-23.599-13.705-41.077C42.805-3.158,24.614,1.688,27.622,14.58
	c0.33,1.419,8.301,29.349,9.107,32.149C38.143,46.521,38.829,46.049,38.835,46.047z"/>
<linearGradient id="SVGID_3_" gradientUnits="userSpaceOnUse" x1="-410.6377" y1="194.7656" x2="-375.3882" y2="159.5161" gradientTransform="matrix(0.9397 0.342 -0.342 0.9397 441.5176 -18.1901)">
	<stop  offset="0" style="stop-color:#99A8AE"/>
	<stop  offset="0.0182" style="stop-color:#9BAAB0"/>
	<stop  offset="0.2636" style="stop-color:#B8C3C9"/>
	<stop  offset="0.478" style="stop-color:#C9D3D8"/>
	<stop  offset="0.6364" style="stop-color:#CFD8DD"/>
	<a:midPointStop  offset="0" style="stop-color:#99A8AE"/>
	<a:midPointStop  offset="0.3576" style="stop-color:#99A8AE"/>
	<a:midPointStop  offset="0.6364" style="stop-color:#CFD8DD"/>
</linearGradient>
<path fill="url(#SVGID_3_)" d="M22.349,7.587c2.77-4.86,9.362-4.09,11.504,0h2.316c-2.502-6.432-12.718-8.378-16.281,0H22.349z"/>
</svg>
