<?xml version="1.0" encoding="utf-8"?>
<!-- Generator: Adobe Illustrator 15.0.0, SVG Export Plug-In . SVG Version: 6.00 Build 0)  -->
<!DOCTYPE svg PUBLIC "-//W3C//DTD SVG 1.1//EN" "http://www.w3.org/Graphics/SVG/1.1/DTD/svg11.dtd" [
	<!ENTITY ns_flows "http://ns.adobe.com/Flows/1.0/">
	<!ENTITY ns_extend "http://ns.adobe.com/Extensibility/1.0/">
	<!ENTITY ns_ai "http://ns.adobe.com/AdobeIllustrator/10.0/">
	<!ENTITY ns_graphs "http://ns.adobe.com/Graphs/1.0/">
]>
<svg version="1.1" id="Layer_1" xmlns:x="&ns_extend;" xmlns:i="&ns_ai;" xmlns:graph="&ns_graphs;"
	 xmlns="http://www.w3.org/2000/svg" xmlns:xlink="http://www.w3.org/1999/xlink" xmlns:a="http://ns.adobe.com/AdobeSVGViewerExtensions/3.0/"
	 x="0px" y="0px" width="64px" height="64px" viewBox="0 0 64 64" enable-background="new 0 0 64 64" xml:space="preserve">
<radialGradient id="SVGID_1_" cx="85.5488" cy="46.2207" r="24.2554" gradientTransform="matrix(0.6881 -0.6895 0.1415 0.1419 -13.9428 64.8694)" gradientUnits="userSpaceOnUse">
	<stop  offset="0" style="stop-color:#4E5E67"/>
	<stop  offset="1" style="stop-color:#302C3B"/>
	<a:midPointStop  offset="0" style="stop-color:#4E5E67"/>
	<a:midPointStop  offset="0.5" style="stop-color:#4E5E67"/>
	<a:midPointStop  offset="1" style="stop-color:#302C3B"/>
</radialGradient>
<path fill="url(#SVGID_1_)" d="M55.255,3.551c-3.058,2.513-14.007,12.564-15.256,13.816c-1.94,1.941,4.604,8.504,6.543,6.562
	C47.789,22.678,58.229,11.3,60.736,8.23c1.09-1.33,2.013-3.811,0.37-5.458C59.467,1.126,56.585,2.46,55.255,3.551z"/>
<radialGradient id="SVGID_2_" cx="64.4648" cy="46.3496" r="21.7493" gradientTransform="matrix(0.6788 -0.6802 0.1786 0.1792 -16.3035 63.747)" gradientUnits="userSpaceOnUse">
	<stop  offset="0" style="stop-color:#4E5E67"/>
	<stop  offset="0.2252" style="stop-color:#49555F"/>
	<stop  offset="0.5911" style="stop-color:#3A3D4A"/>
	<stop  offset="0.8" style="stop-color:#302C3B"/>
	<a:midPointStop  offset="0" style="stop-color:#4E5E67"/>
	<a:midPointStop  offset="0.6" style="stop-color:#4E5E67"/>
	<a:midPointStop  offset="0.8" style="stop-color:#302C3B"/>
</radialGradient>
<path fill="url(#SVGID_2_)" d="M46.207,23.72c-7.015,7.028-15.35,15.655-15.35,15.655c-0.977,0.979-7.351-5.207-6.27-6.291
	c0,0,8.606-8.352,15.621-15.38C41.957,15.952,47.955,21.966,46.207,23.72z"/>
<radialGradient id="SVGID_3_" cx="-139.2563" cy="46.3848" r="13.9035" gradientTransform="matrix(-0.6788 0.6802 0.1448 0.1453 -73.2929 123.9873)" gradientUnits="userSpaceOnUse">
	<stop  offset="0" style="stop-color:#302C3B"/>
	<stop  offset="0.4852" style="stop-color:#231F2F"/>
	<stop  offset="1" style="stop-color:#1A1626"/>
	<a:midPointStop  offset="0" style="stop-color:#302C3B"/>
	<a:midPointStop  offset="0.4" style="stop-color:#302C3B"/>
	<a:midPointStop  offset="1" style="stop-color:#1A1626"/>
</radialGradient>
<path fill="url(#SVGID_3_)" d="M27.542,42.696l7.586-7.706c0.92-0.934-5.054-7.286-6.166-6.186l-7.689,7.602
	C19.524,38.158,25.793,44.447,27.542,42.696z"/>
<radialGradient id="SVGID_4_" cx="64.084" cy="23.7036" r="4.0514" gradientTransform="matrix(0.5163 -0.5163 -0.5567 -0.5567 4.0896 86.2618)" gradientUnits="userSpaceOnUse">
	<stop  offset="0" style="stop-color:#B3C2C6"/>
	<stop  offset="0.1272" style="stop-color:#AAB9BD"/>
	<stop  offset="1" style="stop-color:#717B80"/>
	<a:midPointStop  offset="0" style="stop-color:#B3C2C6"/>
	<a:midPointStop  offset="0.4848" style="stop-color:#B3C2C6"/>
	<a:midPointStop  offset="1" style="stop-color:#717B80"/>
</radialGradient>
<path fill="url(#SVGID_4_)" d="M21.229,36.723c-0.196,0.209-0.758,0.858-0.758,0.858c-0.522,0.534,5.263,6.54,5.896,5.915
	c0,0,0.649-0.563,0.859-0.757C28.253,41.772,22.193,35.694,21.229,36.723z"/>
<radialGradient id="SVGID_5_" cx="101.4043" cy="23.6611" r="3.9205" gradientTransform="matrix(0.3864 -0.3872 -0.7309 -0.7333 1.0985 97.5881)" gradientUnits="userSpaceOnUse">
	<stop  offset="0" style="stop-color:#B3C2C6"/>
	<stop  offset="0.1272" style="stop-color:#AAB9BD"/>
	<stop  offset="1" style="stop-color:#717B80"/>
	<a:midPointStop  offset="0" style="stop-color:#B3C2C6"/>
	<a:midPointStop  offset="0.4848" style="stop-color:#B3C2C6"/>
	<a:midPointStop  offset="1" style="stop-color:#717B80"/>
</radialGradient>
<path fill="url(#SVGID_5_)" d="M20.509,37.992l-0.763,0.855c-0.525,0.533,4.727,6.001,5.36,5.379l0.854-0.766
	C26.955,42.465,21.503,36.994,20.509,37.992z"/>
<radialGradient id="SVGID_6_" cx="99.6191" cy="23.6611" r="3.9202" gradientTransform="matrix(0.3864 -0.3872 -0.5551 -0.5569 -3.3655 93.7199)" gradientUnits="userSpaceOnUse">
	<stop  offset="0" style="stop-color:#B3C2C6"/>
	<stop  offset="0.1272" style="stop-color:#AAB9BD"/>
	<stop  offset="1" style="stop-color:#717B80"/>
	<a:midPointStop  offset="0" style="stop-color:#B3C2C6"/>
	<a:midPointStop  offset="0.4848" style="stop-color:#B3C2C6"/>
	<a:midPointStop  offset="1" style="stop-color:#717B80"/>
</radialGradient>
<path fill="url(#SVGID_6_)" d="M19.515,38.989l-0.763,0.855c-0.525,0.532,4.727,6.001,5.36,5.38l0.854-0.768
	C25.961,43.461,20.509,37.99,19.515,38.989z"/>
<radialGradient id="SVGID_7_" cx="36.2988" cy="45.9922" r="11.3613" gradientTransform="matrix(0.7057 -0.7071 0.1448 0.1453 -14.5406 65.2308)" gradientUnits="userSpaceOnUse">
	<stop  offset="0" style="stop-color:#302C3B"/>
	<stop  offset="0.4852" style="stop-color:#231F2F"/>
	<stop  offset="1" style="stop-color:#1A1626"/>
	<a:midPointStop  offset="0" style="stop-color:#302C3B"/>
	<a:midPointStop  offset="0.4" style="stop-color:#302C3B"/>
	<a:midPointStop  offset="1" style="stop-color:#1A1626"/>
</radialGradient>
<path fill="url(#SVGID_7_)" d="M18.858,40.192c-6.43,7.225-7.26,7.118-7.323,7.181c-0.294,0.294,0.977,1.92,2.052,3.028
	c1.104,1.078,2.727,2.353,3.023,2.058c0.061-0.063-0.053-0.9,7.154-7.344c0.309-0.309-0.709-1.861-1.939-3.089
	C20.6,40.793,19.165,39.886,18.858,40.192z"/>
<path fill="#4E5E67" d="M54.86,3.756c-0.092-0.093-0.242-0.081-0.346,0.012c-1.646,1.479-13.728,12.316-13.729,12.318
	c-0.364,0.328-0.982,0.362-0.483-0.115C48.184,8.424,53.921,3.262,53.924,3.26c0.566-0.544,1.499-0.873,1.818-0.55
	c0.577,0.576,0.577,0.576,0.021,0.964C55.304,3.992,55.181,4.076,54.86,3.756z"/>
<path fill="#4E5E67" d="M9.917,60.376c1.055-1.541,1.525-2.802,5.58-7.745c0.164-0.218-3.926-4.316-4.146-4.152
	c-4.931,4.066-6.185,4.54-7.722,5.597c-0.267,0.196-0.118,5.259-1.264,7.494c0.002,0.075,0.002,0.075,0.076,0.077
	C4.671,60.498,9.719,60.642,9.917,60.376z"/>
<radialGradient id="SVGID_8_" cx="-178.583" cy="313.8203" r="4.9028" gradientTransform="matrix(0.7071 0.7072 -2.9804 2.981 1063.6583 -747.1754)" gradientUnits="userSpaceOnUse">
	<stop  offset="0.6485" style="stop-color:#CFD8DD"/>
	<stop  offset="0.7397" style="stop-color:#CAD4D9"/>
	<stop  offset="0.8413" style="stop-color:#BDC8CD"/>
	<stop  offset="0.9475" style="stop-color:#A7B4BA"/>
	<stop  offset="1" style="stop-color:#99A8AE"/>
	<a:midPointStop  offset="0.6485" style="stop-color:#CFD8DD"/>
	<a:midPointStop  offset="0.6848" style="stop-color:#CFD8DD"/>
	<a:midPointStop  offset="1" style="stop-color:#99A8AE"/>
</radialGradient>
<path fill="url(#SVGID_8_)" d="M9.94,60.578c1.146-1.649,1.665-2.988,6.045-8.288c0.436-0.569-3.722-4.734-4.292-4.302
	c-5.288,4.392-6.62,4.916-8.266,6.062c-0.285,0.212-0.428,0.558-0.4,0.947c0.09,1.298,0.125,4.464-1.027,6.826l5.75-5.75
	c-0.302-0.391-0.288-0.947,0.07-1.308c0.39-0.391,1.021-0.391,1.412,0c0.39,0.392,0.389,1.025,0,1.413
	c-0.36,0.36-0.915,0.371-1.306,0.07L2.177,62c2.358-1.177,5.516-1.112,6.82-1.021C9.386,61.006,9.728,60.862,9.94,60.578z"/>
</svg>
