<?xml version="1.0" encoding="utf-8"?>
<!-- Generator: Adobe Illustrator 15.0.0, SVG Export Plug-In . SVG Version: 6.00 Build 0)  -->
<!DOCTYPE svg PUBLIC "-//W3C//DTD SVG 1.1//EN" "http://www.w3.org/Graphics/SVG/1.1/DTD/svg11.dtd" [
	<!ENTITY ns_flows "http://ns.adobe.com/Flows/1.0/">
	<!ENTITY ns_extend "http://ns.adobe.com/Extensibility/1.0/">
	<!ENTITY ns_ai "http://ns.adobe.com/AdobeIllustrator/10.0/">
	<!ENTITY ns_graphs "http://ns.adobe.com/Graphs/1.0/">
]>
<svg version="1.1" id="Layer_1" xmlns:x="&ns_extend;" xmlns:i="&ns_ai;" xmlns:graph="&ns_graphs;"
	 xmlns="http://www.w3.org/2000/svg" xmlns:xlink="http://www.w3.org/1999/xlink" xmlns:a="http://ns.adobe.com/AdobeSVGViewerExtensions/3.0/"
	 x="0px" y="0px" width="64px" height="64px" viewBox="0 0 64 64" enable-background="new 0 0 64 64" xml:space="preserve">
<radialGradient id="SVGID_1_" cx="31.2993" cy="27.749" r="47.4841" gradientTransform="matrix(-4.384689e-008 1.0447 -0.7103 -3.233561e-008 49.7028 -14.2368)" gradientUnits="userSpaceOnUse">
	<stop  offset="0.4364" style="stop-color:#FFCC66"/>
	<stop  offset="0.6776" style="stop-color:#FECA64"/>
	<stop  offset="0.7849" style="stop-color:#FAC55D"/>
	<stop  offset="0.8654" style="stop-color:#F2BC50"/>
	<stop  offset="0.903" style="stop-color:#EDB547"/>
	<a:midPointStop  offset="0.4364" style="stop-color:#FFCC66"/>
	<a:midPointStop  offset="0.844" style="stop-color:#FFCC66"/>
	<a:midPointStop  offset="0.903" style="stop-color:#EDB547"/>
</radialGradient>
<path fill="url(#SVGID_1_)" d="M52.711,31.238c-7.864,0.17-8.557,8.043-10.846,6.153c-0.471-0.391-0.65-2.309-0.402-3.168
	c1.91-6.613,4.647-18.057,5.354-20.807c1.5-5.822-6.362-8.014-7.859-2.191c-0.242,0.939,0.434-1.686,0.729-2.834
	c1.499-5.822-6.362-8.016-7.86-2.191c-0.855,3.332-4.597,17.867-6.388,24.83c-0.223,0.012-0.441,0.025-0.662,0.041
	c-1.274-7.535-3.354-19.82-3.821-22.57c-1.004-5.936-9-4.467-7.996,1.471c0.176,1.039,0.528,3.125,0.968,5.711
	c-0.897-5.262-7.996-3.957-7.102,1.311c0.457,2.705,2.072,12.186,3.054,18.053c0.402,2.393-0.064,7.285-0.186,9.709
	c-0.477,9.584,5.034,16.467,15.89,16.482c23.727,0.033,17.047-17.186,30.974-25.879C58.284,34.279,56.634,31.158,52.711,31.238z"/>
<path fill="#D9A640" d="M41.648,36.594c-4.011,0.172-10.265,7.078-9.945,14.758c0.49-6.951,7.395-13.238,11.253-13.193
	L41.648,36.594z"/>
<path fill="#D9A640" d="M52.695,30.482c-7.538,0.082-9.356,7.391-10.318,6.36c-0.335-0.357-0.53-1.164-0.193-2.408
	c1.405-5.205,5.19-20.166,5.36-20.826c1.258-4.889-3.394-8.031-6.962-5.926C41.25,1.561,32.815-0.518,31.1,6.01l-5.913,22.986
	c-1.277-7.541-3.063-18.1-3.491-20.621c-1.214-7.18-10.736-5.021-9.477,1.723l0.357,2.1c-2.994-1.842-7.231,0.557-6.491,4.922
	c0,0,2.328,13.701,3.056,18.053c0.303,1.807-0.17,9.035-0.194,9.545C8.378,56.121,15.239,61.977,25.582,62
	c24.175,0.055,17.857-17.566,31.373-26.002C59.37,34.488,57.455,30.429,52.695,30.482z M56.163,34.715
	c-14.314,8.934-7.369,25.811-30.579,25.775c-9.965-0.014-15.623-5.969-15.141-15.699c0.023-0.5,0.508-7.891,0.176-9.871
	c-0.729-4.352-3.056-18.055-3.056-18.055c-0.716-4.25,4.888-5.4,5.624-1.057l2.921,17.266l1.479-0.254L13.697,9.842
	c-0.845-4.9,5.683-6.158,6.521-1.213c0.467,2.748,3.935,23.238,3.935,23.238l1.877-0.115l6.524-25.365
	c1.261-4.895,7.638-2.957,6.407,1.814l-5.981,23.251l1.45,0.379l5.256-20.419c1.264-4.924,7.644-2.986,6.408,1.814
	c-0.172,0.666-3.905,15.781-5.349,20.785c-0.439,1.52-0.355,3.135,0.645,3.965c3.284,2.723,3.702-5.903,11.338-5.983
	C55.916,31.958,57.139,34.109,56.163,34.715z"/>
</svg>
