<?xml version="1.0" encoding="utf-8"?>
<!-- Generator: Adobe Illustrator 15.0.0, SVG Export Plug-In . SVG Version: 6.00 Build 0)  -->
<!DOCTYPE svg PUBLIC "-//W3C//DTD SVG 1.1//EN" "http://www.w3.org/Graphics/SVG/1.1/DTD/svg11.dtd" [
	<!ENTITY ns_flows "http://ns.adobe.com/Flows/1.0/">
	<!ENTITY ns_extend "http://ns.adobe.com/Extensibility/1.0/">
	<!ENTITY ns_ai "http://ns.adobe.com/AdobeIllustrator/10.0/">
	<!ENTITY ns_graphs "http://ns.adobe.com/Graphs/1.0/">
]>
<svg version="1.1" id="Layer_1" xmlns:x="&ns_extend;" xmlns:i="&ns_ai;" xmlns:graph="&ns_graphs;"
	 xmlns="http://www.w3.org/2000/svg" xmlns:xlink="http://www.w3.org/1999/xlink" xmlns:a="http://ns.adobe.com/AdobeSVGViewerExtensions/3.0/"
	 x="0px" y="0px" width="64px" height="64px" viewBox="0 0 64 64" enable-background="new 0 0 64 64" xml:space="preserve">
<radialGradient id="SVGID_1_" cx="31.2993" cy="27.748" r="47.4839" gradientTransform="matrix(-4.384689e-008 1.0447 -0.7103 -3.233559e-008 49.7021 -14.2369)" gradientUnits="userSpaceOnUse">
	<stop  offset="0.4364" style="stop-color:#B88A6F"/>
	<stop  offset="0.6578" style="stop-color:#B6886D"/>
	<stop  offset="0.7563" style="stop-color:#AF8166"/>
	<stop  offset="0.8301" style="stop-color:#A2755A"/>
	<stop  offset="0.8917" style="stop-color:#906348"/>
	<stop  offset="0.903" style="stop-color:#8C5F44"/>
	<a:midPointStop  offset="0.4364" style="stop-color:#B88A6F"/>
	<a:midPointStop  offset="0.844" style="stop-color:#B88A6F"/>
	<a:midPointStop  offset="0.903" style="stop-color:#8C5F44"/>
</radialGradient>
<path fill="url(#SVGID_1_)" d="M52.71,31.239c-7.863,0.17-8.557,8.042-10.846,6.152c-0.471-0.391-0.65-2.309-0.402-3.168
	c1.91-6.613,4.648-18.057,5.355-20.807c1.5-5.822-6.363-8.014-7.859-2.191c-0.242,0.939,0.434-1.686,0.729-2.834
	c1.498-5.822-6.363-8.016-7.861-2.191C30.97,9.531,27.23,24.066,25.439,31.03c-0.223,0.012-0.441,0.025-0.662,0.041
	C23.501,23.535,21.421,11.25,20.955,8.5c-1.004-5.936-9-4.467-7.996,1.471c0.176,1.039,0.529,3.125,0.969,5.711
	c-0.898-5.262-7.996-3.957-7.102,1.311c0.457,2.705,2.072,12.186,3.053,18.053c0.402,2.393-0.064,7.285-0.186,9.709
	c-0.477,9.584,5.035,16.467,15.891,16.482C49.31,61.27,42.63,44.051,56.558,35.357C58.284,34.279,56.634,31.159,52.71,31.239z"/>
<path fill="#70513D" d="M41.647,36.594c-4.01,0.172-10.265,7.078-9.945,14.758c0.49-6.951,7.396-13.238,11.253-13.193L41.647,36.594
	z"/>
<path fill="#70513D" d="M52.694,30.482c-7.537,0.082-9.355,7.391-10.318,6.359c-0.334-0.357-0.529-1.164-0.193-2.408
	c1.406-5.205,5.191-20.166,5.361-20.826c1.258-4.889-3.395-8.031-6.963-5.926c0.668-6.121-7.767-8.199-9.482-1.672l-5.912,22.986
	c-1.277-7.541-3.064-18.1-3.492-20.621c-1.213-7.18-10.736-5.021-9.477,1.723l0.357,2.1c-2.994-1.842-7.23,0.557-6.49,4.922
	c0,0,2.328,13.702,3.055,18.053c0.303,1.807-0.17,9.035-0.193,9.545C8.378,56.121,15.238,61.977,25.582,62
	c24.175,0.055,17.857-17.566,31.373-26.002C59.37,34.488,57.454,30.43,52.694,30.482z M56.163,34.715
	c-14.314,8.934-7.369,25.811-30.58,25.775c-9.965-0.014-15.623-5.969-15.141-15.699c0.023-0.5,0.508-7.891,0.176-9.871
	C9.89,30.568,7.564,16.865,7.564,16.865c-0.717-4.25,4.887-5.4,5.623-1.057l2.922,17.266l1.479-0.253L13.697,9.842
	c-0.846-4.9,5.682-6.158,6.52-1.213c0.467,2.748,3.936,23.239,3.936,23.239l1.877-0.115l6.523-25.366
	c1.261-4.895,7.638-2.957,6.408,1.814l-5.982,23.252l1.451,0.379l5.256-20.42c1.264-4.924,7.643-2.986,6.408,1.814
	c-0.172,0.666-3.906,15.781-5.35,20.785c-0.439,1.52-0.355,3.135,0.645,3.965c3.285,2.723,3.703-5.902,11.338-5.982
	C55.915,31.959,57.138,34.109,56.163,34.715z"/>
</svg>
