<?xml version="1.0" encoding="utf-8"?>
<!-- Generator: Adobe Illustrator 15.0.0, SVG Export Plug-In . SVG Version: 6.00 Build 0)  -->
<!DOCTYPE svg PUBLIC "-//W3C//DTD SVG 1.1//EN" "http://www.w3.org/Graphics/SVG/1.1/DTD/svg11.dtd" [
	<!ENTITY ns_flows "http://ns.adobe.com/Flows/1.0/">
	<!ENTITY ns_extend "http://ns.adobe.com/Extensibility/1.0/">
	<!ENTITY ns_ai "http://ns.adobe.com/AdobeIllustrator/10.0/">
	<!ENTITY ns_graphs "http://ns.adobe.com/Graphs/1.0/">
]>
<svg version="1.1" id="Layer_1" xmlns:x="&ns_extend;" xmlns:i="&ns_ai;" xmlns:graph="&ns_graphs;"
	 xmlns="http://www.w3.org/2000/svg" xmlns:xlink="http://www.w3.org/1999/xlink" xmlns:a="http://ns.adobe.com/AdobeSVGViewerExtensions/3.0/"
	 x="0px" y="0px" width="64px" height="64px" viewBox="0 0 64 64" enable-background="new 0 0 64 64" xml:space="preserve">
<path fill="#4E5E67" d="M48,11H16c-1.1,0-2,0.899-2,2v16h36V13C50,11.899,49.1,11,48,11z"/>
<path fill="#CFD8DD" d="M48,11.25H16c-0.549,0-1,0.45-1,1v15h34v-15C49,11.7,48.551,11.25,48,11.25z"/>
<rect x="18" y="6" fill="#F2F5F7" width="28" height="23"/>
<path fill="#566873" d="M2,47.47v5.832c0,1.069,0.9,1.944,2,1.944h56c1.1,0,2-0.875,2-1.944V47.47C53.2,36.58,11.898,37.57,2,47.47z
	"/>
<linearGradient id="SVGID_1_" gradientUnits="userSpaceOnUse" x1="32.0005" y1="47.4697" x2="32.0005" y2="27.0005">
	<stop  offset="0" style="stop-color:#6E8189"/>
	<stop  offset="0.5476" style="stop-color:#70838B"/>
	<stop  offset="0.7828" style="stop-color:#758A92"/>
	<stop  offset="0.9578" style="stop-color:#80969F"/>
	<stop  offset="1" style="stop-color:#839AA3"/>
	<a:midPointStop  offset="0" style="stop-color:#6E8189"/>
	<a:midPointStop  offset="0.8485" style="stop-color:#6E8189"/>
	<a:midPointStop  offset="1" style="stop-color:#839AA3"/>
</linearGradient>
<path fill="url(#SVGID_1_)" d="M60.223,27c-10.09,0-46.355,0-56.445,0C2.752,27,2,47.47,2,47.47h60C62,47.47,61.248,27,60.223,27z"
	/>
<path fill="#6E8189" d="M12,51.357v6.833c0,1.068,0.864,1.943,1.92,1.943h36.159c1.056,0,1.921-0.875,1.921-1.943v-6.833H12z"/>
<linearGradient id="SVGID_2_" gradientUnits="userSpaceOnUse" x1="32" y1="47.4697" x2="32" y2="27.0005">
	<stop  offset="0" style="stop-color:#4E5E67"/>
	<stop  offset="0.542" style="stop-color:#506069"/>
	<stop  offset="0.7858" style="stop-color:#556770"/>
	<stop  offset="0.9695" style="stop-color:#5F727D"/>
	<stop  offset="1" style="stop-color:#617580"/>
	<a:midPointStop  offset="0" style="stop-color:#4E5E67"/>
	<a:midPointStop  offset="0.8424" style="stop-color:#4E5E67"/>
	<a:midPointStop  offset="1" style="stop-color:#617580"/>
</linearGradient>
<path fill="url(#SVGID_2_)" d="M55.848,27c-8.395,0-39.301,0-47.695,0c-0.41,0-1.311,20.47-1.311,20.47h50.317
	C57.158,47.47,56.258,27,55.848,27z"/>
<path fill="#B3C2C6" d="M52,51.357v-1.943c0-1.069-0.9-1.944-2-1.944H14c-1.1,0-2,0.875-2,1.944v1.943H52z"/>
<rect x="15" y="51.357" fill="#1A1626" width="34" height="6.833"/>
<linearGradient id="SVGID_3_" gradientUnits="userSpaceOnUse" x1="32.0005" y1="62" x2="32.0005" y2="54.3574">
	<stop  offset="0" style="stop-color:#4E5E67"/>
	<stop  offset="0.276" style="stop-color:#4C5B64"/>
	<stop  offset="0.4958" style="stop-color:#45515B"/>
	<stop  offset="0.6964" style="stop-color:#38404C"/>
	<stop  offset="0.8843" style="stop-color:#272937"/>
	<stop  offset="1" style="stop-color:#1A1626"/>
	<a:midPointStop  offset="0" style="stop-color:#4E5E67"/>
	<a:midPointStop  offset="0.7515" style="stop-color:#4E5E67"/>
	<a:midPointStop  offset="1" style="stop-color:#1A1626"/>
</linearGradient>
<path fill="url(#SVGID_3_)" d="M47,54.357H17l-2,3.878c0,0,0.656,3.765,5.143,3.765h23.714C48.343,62,49,58.235,49,58.235L47,54.357
	z"/>
<path id="diamond_2_" fill="#CFD8DD" d="M30.426,44.375l0.14,0.14c0.003,0.003,0.005,0.007,0.005,0.01
	c0,0.004-0.002,0.008-0.005,0.011l-0.14,0.139c-0.002,0.003-0.006,0.005-0.01,0.005c-0.003,0-0.008-0.002-0.01-0.005l-0.14-0.139
	c-0.005-0.006-0.005-0.015,0-0.021l0.14-0.14C30.412,44.369,30.422,44.369,30.426,44.375z"/>
<path id="pixels_2_" fill="#CFD8DD" d="M32.572,44.767c0.207,0,0.378,0.175,0.378,0.398c0,0.226-0.171,0.4-0.378,0.4
	c-0.119,0-0.208-0.049-0.266-0.129v0.378c0.001,0.01-0.002,0.019-0.01,0.025c-0.006,0.007-0.015,0.011-0.024,0.009h-0.096
	c-0.01,0.002-0.019-0.002-0.024-0.009c-0.008-0.007-0.011-0.016-0.01-0.025v-0.993c-0.001-0.01,0.002-0.019,0.01-0.025
	c0.006-0.007,0.015-0.01,0.024-0.009h0.096c0.01-0.002,0.019,0.002,0.024,0.009c0.008,0.006,0.011,0.016,0.01,0.024v0.075
	c0.058-0.079,0.146-0.129,0.268-0.129H32.572z M32.547,45.409c0.136,0,0.239-0.101,0.239-0.242s-0.104-0.242-0.239-0.242
	c-0.137,0-0.24,0.1-0.24,0.24C32.307,45.307,32.41,45.409,32.547,45.409z M33.079,45.546c-0.01,0.001-0.019-0.002-0.026-0.009
	c-0.006-0.006-0.01-0.016-0.008-0.024V44.82c-0.002-0.009,0.002-0.019,0.008-0.024c0.008-0.007,0.017-0.011,0.026-0.009h0.095
	c0.01-0.002,0.02,0.002,0.025,0.009c0.008,0.006,0.01,0.016,0.01,0.024v0.69c0,0.01-0.002,0.02-0.01,0.025
	c-0.006,0.007-0.016,0.01-0.025,0.01H33.079z M33.914,45.505c0.015,0.023,0.004,0.041-0.023,0.041h-0.1
	c-0.016,0-0.032-0.009-0.041-0.022l-0.148-0.231l-0.147,0.231c-0.009,0.014-0.024,0.022-0.041,0.022h-0.099
	c-0.027,0-0.039-0.018-0.023-0.041l0.224-0.35l-0.208-0.327c-0.017-0.022-0.006-0.041,0.021-0.041h0.1
	c0.017,0,0.032,0.009,0.041,0.023l0.133,0.208l0.134-0.208c0.009-0.015,0.024-0.023,0.041-0.023h0.1
	c0.026,0,0.038,0.019,0.022,0.041l-0.209,0.327L33.914,45.505z M34.315,44.768c0.228,0,0.376,0.183,0.376,0.4
	c0,0.014,0,0.025-0.002,0.037c0,0.01-0.004,0.019-0.011,0.024s-0.017,0.009-0.024,0.008h-0.566c0.025,0.124,0.117,0.188,0.233,0.188
	c0.063,0.002,0.124-0.024,0.165-0.073c0.01-0.012,0.025-0.02,0.041-0.021h0.098c0.025,0,0.038,0.016,0.029,0.037
	c-0.057,0.124-0.181,0.198-0.336,0.198c-0.242,0-0.4-0.171-0.4-0.399C33.918,44.941,34.078,44.767,34.315,44.768L34.315,44.768z
	 M34.087,45.103h0.439c-0.021-0.13-0.114-0.186-0.212-0.186c-0.122-0.001-0.205,0.071-0.228,0.184V45.103z M34.811,45.546
	c-0.009,0.001-0.019-0.002-0.025-0.009c-0.006-0.006-0.01-0.016-0.008-0.024v-1.024c-0.002-0.01,0.002-0.02,0.008-0.025
	c0.007-0.007,0.017-0.011,0.025-0.009h0.096c0.01-0.002,0.02,0.002,0.025,0.009c0.006,0.006,0.01,0.016,0.01,0.025v1.024
	c0,0.009-0.004,0.019-0.01,0.024c-0.006,0.007-0.016,0.01-0.025,0.009H34.811z M35.217,45c0,0.152,0.42,0.042,0.42,0.332
	c0,0.149-0.13,0.233-0.297,0.233c-0.156,0-0.28-0.075-0.297-0.219c-0.002-0.01,0-0.021,0.007-0.026
	c0.007-0.008,0.017-0.012,0.026-0.01h0.095c0.021,0,0.028,0.012,0.036,0.03c0.013,0.054,0.065,0.076,0.133,0.076
	c0.078,0,0.133-0.027,0.133-0.085c0-0.15-0.42-0.044-0.42-0.333c0-0.147,0.13-0.232,0.287-0.232c0.141,0,0.264,0.074,0.279,0.219
	c0.003,0.01,0,0.019-0.007,0.026c-0.007,0.007-0.017,0.011-0.026,0.01h-0.094c-0.021,0-0.029-0.012-0.035-0.032
	c-0.014-0.053-0.064-0.075-0.117-0.075C35.271,44.914,35.217,44.942,35.217,45z"/>
<path id="joy_2_" fill="#CFD8DD" d="M30.459,44.787c0.01-0.002,0.019,0.002,0.025,0.009c0.006,0.007,0.01,0.016,0.009,0.024v0.755
	c0,0.199-0.093,0.296-0.276,0.296c-0.01,0-0.02-0.003-0.025-0.011c-0.007-0.007-0.01-0.016-0.009-0.025v-0.09
	c-0.001-0.009,0.002-0.019,0.009-0.025c0.006-0.007,0.016-0.01,0.025-0.01c0.076-0.003,0.112-0.041,0.112-0.135V44.82
	c-0.001-0.009,0.002-0.018,0.009-0.024c0.006-0.007,0.016-0.011,0.025-0.009H30.459z M30.988,45.565
	c-0.221-0.002-0.398-0.181-0.398-0.4c0.002-0.22,0.18-0.398,0.4-0.398c0.22,0,0.398,0.179,0.398,0.398
	c0.001,0.107-0.041,0.209-0.116,0.284C31.197,45.525,31.094,45.566,30.988,45.565z M30.988,45.405
	c0.098,0.001,0.186-0.056,0.223-0.146c0.039-0.089,0.02-0.191-0.049-0.262c-0.068-0.069-0.172-0.09-0.262-0.053
	c-0.09,0.036-0.148,0.124-0.148,0.221c-0.002,0.064,0.021,0.126,0.066,0.172C30.863,45.382,30.924,45.406,30.988,45.405z
	 M31.904,44.814c0.006-0.017,0.021-0.029,0.039-0.027h0.104c0.024,0,0.036,0.014,0.028,0.038l-0.342,0.996
	c-0.005,0.018-0.021,0.029-0.039,0.027h-0.104c-0.024,0-0.036-0.014-0.028-0.039l0.094-0.273l-0.279-0.711
	c-0.01-0.022,0.002-0.039,0.026-0.039h0.104c0.018-0.002,0.032,0.01,0.038,0.027l0.193,0.495L31.904,44.814z"/>
<path id="Shape_2_" fill="#CFD8DD" d="M29.084,44.602c0.299,0,0.542,0.242,0.542,0.542c0,0.299-0.243,0.542-0.542,0.542
	s-0.541-0.243-0.541-0.542C28.543,44.844,28.785,44.602,29.084,44.602z M29.084,44.421c-0.398,0-0.723,0.322-0.723,0.723
	c0,0.398,0.324,0.722,0.723,0.722c0.4,0,0.723-0.323,0.723-0.722c0-0.192-0.076-0.376-0.211-0.512
	C29.459,44.497,29.275,44.421,29.084,44.421z"/>
<path id="Combined-Shape_3_" fill="#CFD8DD" d="M29.229,45.215c-0.01,0.002-0.02-0.001-0.027-0.009
	c-0.007-0.007-0.01-0.017-0.008-0.026v-0.073c-0.002-0.009,0.001-0.02,0.008-0.026c0.008-0.007,0.018-0.011,0.027-0.009h0.235
	c0.01-0.002,0.021,0.002,0.027,0.009s0.011,0.018,0.009,0.026v0.037c0,0.168-0.102,0.319-0.256,0.384
	c-0.156,0.064-0.334,0.028-0.453-0.09c-0.008-0.007-0.014-0.016-0.014-0.026c0-0.01,0.006-0.02,0.014-0.025l0.076-0.077
	c0.006-0.008,0.016-0.013,0.025-0.013s0.02,0.005,0.025,0.013c0.059,0.058,0.142,0.082,0.221,0.062
	c0.08-0.018,0.144-0.077,0.168-0.155H29.229z"/>
<path fill="#E81C27" d="M60.146,42.255c0,1-1.5,1-1.5,0C58.646,41.256,60.146,41.256,60.146,42.255z"/>
<path fill="#92C932" d="M60.521,45.151c0,1.333-2,1.333-2,0S60.521,43.818,60.521,45.151z"/>
<path fill="#1A1626" d="M31.625,53.499v6.355c0,0.455,0.75,0.455,0.75,0v-6.355H31.625z"/>
<path fill="#1A1626" d="M26.599,53.499l-0.969,6.298c-0.07,0.449,0.675,0.544,0.741,0.114l0.987-6.412H26.599z"/>
<path fill="#1A1626" d="M21.564,53.499l-1.922,6.244c-0.133,0.432,0.595,0.615,0.717,0.221l1.99-6.465H21.564z"/>
<path fill="#1A1626" d="M36.643,53.499l0.986,6.412c0.066,0.43,0.812,0.335,0.742-0.114l-0.97-6.298H36.643z"/>
<path fill="#1A1626" d="M42.436,53.499h-0.784l1.99,6.465c0.122,0.395,0.85,0.211,0.717-0.221L42.436,53.499z"/>
</svg>
