<?xml version="1.0" encoding="utf-8"?>
<!-- Generator: Adobe Illustrator 15.0.0, SVG Export Plug-In . SVG Version: 6.00 Build 0)  -->
<!DOCTYPE svg PUBLIC "-//W3C//DTD SVG 1.1//EN" "http://www.w3.org/Graphics/SVG/1.1/DTD/svg11.dtd" [
	<!ENTITY ns_flows "http://ns.adobe.com/Flows/1.0/">
	<!ENTITY ns_extend "http://ns.adobe.com/Extensibility/1.0/">
	<!ENTITY ns_ai "http://ns.adobe.com/AdobeIllustrator/10.0/">
	<!ENTITY ns_graphs "http://ns.adobe.com/Graphs/1.0/">
]>
<svg version="1.1" id="Layer_1" xmlns:x="&ns_extend;" xmlns:i="&ns_ai;" xmlns:graph="&ns_graphs;"
	 xmlns="http://www.w3.org/2000/svg" xmlns:xlink="http://www.w3.org/1999/xlink" xmlns:a="http://ns.adobe.com/AdobeSVGViewerExtensions/3.0/"
	 x="0px" y="0px" width="64px" height="64px" viewBox="0 0 64 64" enable-background="new 0 0 64 64" xml:space="preserve">
<radialGradient id="SVGID_1_" cx="31.9165" cy="24.334" r="23.3063" gradientTransform="matrix(1 0 0 1.5875 0 -14.2969)" gradientUnits="userSpaceOnUse">
	<stop  offset="0" style="stop-color:#ECF1F5"/>
	<stop  offset="0.3963" style="stop-color:#E9EEF2"/>
	<stop  offset="0.7218" style="stop-color:#DFE5EA"/>
	<stop  offset="1" style="stop-color:#CFD8DD"/>
	<a:midPointStop  offset="0" style="stop-color:#ECF1F5"/>
	<a:midPointStop  offset="0.7455" style="stop-color:#ECF1F5"/>
	<a:midPointStop  offset="1" style="stop-color:#CFD8DD"/>
</radialGradient>
<path fill="url(#SVGID_1_)" d="M48.51,28.503C48.51,34.189,57.344,62,32,62C6.656,62,15.49,34.189,15.49,28.503
	C15.49,18.151,9.902,2,32,2C54.1,2,48.51,18.151,48.51,28.503z"/>
<path fill="#B3C2C6" d="M15.458,29.201c0.011-0.284,0.021-0.568,0.032-0.853c11.005-0.346,22.017-0.346,33.021,0
	c0.012,0.284,0.021,0.568,0.033,0.853C37.518,28.854,26.483,28.854,15.458,29.201z"/>
<path fill="#B3C2C6" d="M35.246,20.473c0,4.455-6.492,4.455-6.492,0v-8.429c0-4.454,6.492-4.454,6.492,0V20.473z"/>
<rect x="31.574" y="2" fill="#B3C2C6" width="0.852" height="26.201"/>
<linearGradient id="SVGID_2_" gradientUnits="userSpaceOnUse" x1="29.5645" y1="16.2583" x2="34.4355" y2="16.2583">
	<stop  offset="0" style="stop-color:#4E5E67"/>
	<stop  offset="0.2803" style="stop-color:#4C5A63"/>
	<stop  offset="0.5664" style="stop-color:#444E59"/>
	<stop  offset="0.8543" style="stop-color:#383947"/>
	<stop  offset="1" style="stop-color:#302C3B"/>
	<a:midPointStop  offset="0" style="stop-color:#4E5E67"/>
	<a:midPointStop  offset="0.703" style="stop-color:#4E5E67"/>
	<a:midPointStop  offset="1" style="stop-color:#302C3B"/>
</linearGradient>
<path fill="url(#SVGID_2_)" d="M34.436,19.881c0,3.828-4.871,3.828-4.871,0v-7.244c0-3.829,4.871-3.829,4.871,0V19.881z"/>
</svg>
