<?xml version="1.0" encoding="utf-8"?>
<!-- Generator: Adobe Illustrator 15.0.0, SVG Export Plug-In . SVG Version: 6.00 Build 0)  -->
<!DOCTYPE svg PUBLIC "-//W3C//DTD SVG 1.1//EN" "http://www.w3.org/Graphics/SVG/1.1/DTD/svg11.dtd" [
	<!ENTITY ns_flows "http://ns.adobe.com/Flows/1.0/">
	<!ENTITY ns_extend "http://ns.adobe.com/Extensibility/1.0/">
	<!ENTITY ns_ai "http://ns.adobe.com/AdobeIllustrator/10.0/">
	<!ENTITY ns_graphs "http://ns.adobe.com/Graphs/1.0/">
]>
<svg version="1.1" id="Layer_1" xmlns:x="&ns_extend;" xmlns:i="&ns_ai;" xmlns:graph="&ns_graphs;"
	 xmlns="http://www.w3.org/2000/svg" xmlns:xlink="http://www.w3.org/1999/xlink" xmlns:a="http://ns.adobe.com/AdobeSVGViewerExtensions/3.0/"
	 x="0px" y="0px" width="64px" height="64px" viewBox="0 0 64 64" enable-background="new 0 0 64 64" xml:space="preserve">
<radialGradient id="SVGID_1_" cx="462.5547" cy="-6.8345" r="11.9215" gradientTransform="matrix(0.7071 -0.7087 0.7071 0.7087 -272.5309 382.4414)" gradientUnits="userSpaceOnUse">
	<stop  offset="0" style="stop-color:#ABBDC5"/>
	<stop  offset="0.2599" style="stop-color:#A7B8C0"/>
	<stop  offset="0.5664" style="stop-color:#9AAAB2"/>
	<stop  offset="0.8952" style="stop-color:#86949A"/>
	<stop  offset="1" style="stop-color:#7E8B91"/>
	<a:midPointStop  offset="0" style="stop-color:#ABBDC5"/>
	<a:midPointStop  offset="0.6727" style="stop-color:#ABBDC5"/>
	<a:midPointStop  offset="1" style="stop-color:#7E8B91"/>
</radialGradient>
<path fill="url(#SVGID_1_)" d="M38.323,58.384c4.48,8.62,17.352,0.221,21.998-8.427c0.152-0.286,0.008-0.906,0.142-1.192
	c0.042-0.088,0.371,0.159,0.413,0.071c0.231-0.516-0.009-1.281,0.158-1.79c0.027-0.084,0.493,0.084,0.52-0.001
	c0.207-0.685-0.071-1.499-0.001-2.154c0.01-0.09,0.438-0.04,0.444-0.129c0.05-0.676-0.542-1.447-0.666-2.067
	c-0.017-0.082,0.524-0.045,0.504-0.126c-0.396-1.632-1.451-3.023-3.352-3.989C49.566,35.03,34.556,49.037,38.323,58.384z"/>
<linearGradient id="SVGID_2_" gradientUnits="userSpaceOnUse" x1="449.1768" y1="-38.2334" x2="477.4355" y2="-38.2334" gradientTransform="matrix(0.7071 -0.7071 0.7071 0.7071 -272.5372 382.7539)">
	<stop  offset="0" style="stop-color:#6E8088"/>
	<stop  offset="0.0263" style="stop-color:#88979E"/>
	<stop  offset="0.0606" style="stop-color:#A2AFB5"/>
	<stop  offset="0.0985" style="stop-color:#B6C1C7"/>
	<stop  offset="0.1414" style="stop-color:#C4CED3"/>
	<stop  offset="0.1935" style="stop-color:#CCD6DB"/>
	<stop  offset="0.28" style="stop-color:#CFD8DD"/>
	<stop  offset="0.31" style="stop-color:#D2DBDF"/>
	<stop  offset="0.4961" style="stop-color:#E1E7E9"/>
	<stop  offset="0.65" style="stop-color:#E6EBED"/>
	<stop  offset="1" style="stop-color:#B3C2C6"/>
	<a:midPointStop  offset="0" style="stop-color:#6E8088"/>
	<a:midPointStop  offset="0.2" style="stop-color:#6E8088"/>
	<a:midPointStop  offset="0.28" style="stop-color:#CFD8DD"/>
	<a:midPointStop  offset="0.3333" style="stop-color:#CFD8DD"/>
	<a:midPointStop  offset="0.65" style="stop-color:#E6EBED"/>
	<a:midPointStop  offset="0.5" style="stop-color:#E6EBED"/>
	<a:midPointStop  offset="1" style="stop-color:#B3C2C6"/>
</linearGradient>
<path fill="url(#SVGID_2_)" d="M58.483,38.579c0,0-24.473-13.776-38.43-36.009C18.47,0.045,3.765,6.033,2.001,17.999
	c-0.136,0.914,19.031,16.516,36.322,40.385C37.198,49.678,51.828,36.234,58.483,38.579z"/>
<path fill="#4E5E67" d="M9.651,25.628c4.092,4.103,7.84,8.259,11.933,12.36c-0.002,0.002,0.419-0.186,0.45-0.292
	c-4.719-4.739-6.988-9.875-6.956-9.849c-0.003-0.004,1.287,2.453,3.45,5.229c-0.657-0.904-0.982-1.564-1.089-1.953
	c-0.098-0.242-0.154-0.526-0.125-0.626c-0.163-0.21-0.31-0.586-0.296-0.729c-0.227-0.212-0.451-0.679-0.333-0.72
	c-0.214-0.3-0.374-0.854-0.162-0.722c0.008-0.046,0.021-0.076,0.035-0.093c-0.173-0.31-0.269-0.883-0.119-0.813
	c-0.174-0.346-0.226-1.006-0.03-0.792c0.014-0.024,0.026-0.044,0.037-0.058c-0.134-0.366-0.11-0.982,0.063-0.752
	c0.006-0.01,0.015-0.014,0.02-0.021c-0.12-0.371-0.054-1.009,0.111-0.762c0.006-0.011,0.017-0.017,0.026-0.025
	c-0.135-0.345-0.134-0.867,0.049-0.678c0.037-0.062,0.073-0.078,0.106-0.065c0.015-0.355,0.173-0.735,0.272-0.502
	c0.015-0.013,0.024-0.017,0.038-0.023c0.024-0.304,0.142-0.578,0.241-0.384c0.037-0.031,0.07-0.042,0.095-0.037
	c-0.072-0.363,0.172-1.009,0.292-0.725c0.102-0.063,0.152-0.016,0.164,0.078c0.152-0.32,0.527-0.625,0.512-0.359
	c0.302-0.027,0.022,0.387-0.266,0.587c0.002,0.002,0.001,0.002,0.001,0.004c0.31-0.043,0.013,0.447-0.276,0.644
	c0.017,0.205-0.236,0.709-0.46,0.757c0.008,0.136-0.065,0.371-0.171,0.552c0.088,0.12-0.089,0.62-0.29,0.802
	c0.124,0.063,0.084,0.611-0.059,0.873c0.153-0.048,0.135,0.427,0.021,0.743c0.095,0.07,0.095,0.486,0.013,0.77
	c0.072-0.055,0.13,0.054,0.162,0.227c-0.014-0.163,0.016-0.258,0.111-0.17c0.02-0.043,0.035-0.065,0.054-0.079
	c-0.08-0.254-0.102-0.599-0.05-0.727c-0.129-0.338-0.155-0.771,0.02-0.608c0.015-0.035,0.033-0.057,0.048-0.071
	c-0.021-0.287,0.029-0.528,0.149-0.368c0.012-0.02,0.026-0.032,0.039-0.046c-0.065-0.367,0.009-0.835,0.151-0.616
	c0.02-0.023,0.036-0.038,0.052-0.045c-0.015-0.293,0.094-0.67,0.194-0.707c-0.038-0.38,0.171-0.939,0.28-0.666
	c0.009-0.005,0.014-0.008,0.022-0.014c-0.016-0.37,0.398-0.984,0.446-0.666c0.098-0.03,0.141,0.004,0.144,0.076
	c0.15-0.244,0.361-0.406,0.368-0.197c0.328-0.063,0,0.49-0.296,0.681c0.026,0.121-0.14,0.41-0.327,0.58c0,0.008,0,0.016,0.001,0.028
	c0.337-0.023-0.104,0.585-0.413,0.689c0.008,0.015,0.016,0.031,0.022,0.058c0.292-0.138,0.091,0.531-0.153,0.784
	c0.154,0.013,0.047,0.562-0.132,0.824c0.091,0.1,0.043,0.564-0.083,0.821c0.063,0.176,0.076,0.517,0.023,0.744
	c0.199-0.174,0.195,0.441,0.068,0.792c0.138,0.073,0.21,0.853,0.044,1.055c0.036,0.19,0.049,0.438,0.021,0.616
	c0.101,0.059,0.178,0.521,0.148,0.838c0.484,0.682,1.314,1.729,2.715,3.217c-0.521-0.83-0.847-1.474-1.033-1.935
	c-0.189-0.092-0.37-0.688-0.362-0.925c-0.149-0.222-0.271-0.559-0.253-0.693c-0.227-0.218-0.447-0.69-0.327-0.725
	c-0.209-0.306-0.36-0.863-0.149-0.728c0.011-0.049,0.023-0.074,0.039-0.093c-0.172-0.314-0.255-0.89-0.102-0.813
	c-0.171-0.349-0.207-1.015-0.015-0.794c0.013-0.023,0.025-0.042,0.035-0.056c-0.125-0.37-0.086-0.986,0.08-0.752
	c0.009-0.01,0.015-0.017,0.023-0.023c-0.112-0.371-0.032-1.014,0.128-0.756c0.01-0.012,0.02-0.02,0.027-0.024
	c-0.122-0.354-0.111-0.872,0.065-0.678c0.041-0.061,0.077-0.078,0.11-0.066c0.024-0.354,0.195-0.735,0.288-0.497
	c0.015-0.011,0.026-0.015,0.041-0.02c0.028-0.307,0.155-0.576,0.248-0.38c0.041-0.03,0.074-0.041,0.099-0.038
	c-0.063-0.366,0.202-1.004,0.313-0.715c0.107-0.063,0.156-0.016,0.166,0.079c0.164-0.316,0.548-0.615,0.526-0.35
	c0.301-0.019,0.008,0.39-0.284,0.582c0,0.002,0,0.001,0,0.005c0.314-0.036,0,0.444-0.296,0.64c0.012,0.205-0.255,0.702-0.483,0.749
	c0.005,0.136-0.076,0.369-0.187,0.547c0.088,0.12-0.104,0.616-0.308,0.797c0.117,0.066,0.068,0.612-0.081,0.871
	c0.156-0.045,0.126,0.428,0.008,0.742c0.094,0.074,0.083,0.487-0.003,0.772c0.071-0.055,0.129,0.058,0.159,0.233
	c-0.013-0.167,0.018-0.263,0.114-0.17c0.017-0.046,0.037-0.067,0.057-0.078c-0.078-0.258-0.091-0.602-0.039-0.729
	c-0.121-0.341-0.137-0.772,0.036-0.609c0.017-0.035,0.032-0.058,0.05-0.066c-0.018-0.289,0.041-0.528,0.158-0.368
	c0.016-0.018,0.028-0.033,0.039-0.042c-0.059-0.37,0.03-0.838,0.167-0.616c0.021-0.021,0.038-0.034,0.057-0.044
	c-0.012-0.292,0.107-0.665,0.209-0.705c-0.029-0.379,0.194-0.935,0.299-0.659c0.01-0.006,0.015-0.008,0.021-0.012
	c-0.001-0.372,0.429-0.98,0.468-0.656c0.099-0.029,0.14,0.006,0.142,0.076c0.16-0.238,0.377-0.396,0.376-0.188
	c0.327-0.053-0.014,0.489-0.315,0.676c0.025,0.123-0.153,0.404-0.345,0.572c-0.001,0.009,0.001,0.015,0.001,0.028
	c0.339-0.016-0.119,0.585-0.434,0.682c0.009,0.012,0.016,0.032,0.021,0.06c0.3-0.135,0.083,0.533-0.17,0.779
	c0.156,0.018,0.033,0.563-0.15,0.819c0.092,0.104,0.033,0.567-0.098,0.823c0.058,0.176,0.067,0.518,0.008,0.744
	c0.203-0.175,0.188,0.449,0.053,0.792c0.137,0.076,0.195,0.845,0.033,1.048c0.051,0.282,0.045,0.693-0.072,0.814
	c0.101,0.24,0.253,0.547,0.512,0.954c-0.979-2.714,2.314-3.524,2.359-3.491c-0.148-0.093-4.612,1.839-0.228,5.637
	c1.16-2.914,3.024-5.483,5.376-7.491c-0.702-0.724-1.406-1.447-2.12-2.162c-0.236,0.202-0.468,0.408-0.693,0.62
	c-0.294-0.297-0.59-0.592-0.885-0.883c0.181-0.168,0.363-0.334,0.549-0.496c-0.509-0.04-0.957-0.37-0.896-0.995
	c0.045-0.461,0.317-0.758,0.663-0.904c-0.546-0.035-1.033-0.366-0.956-0.988c0.053-0.442,0.338-0.722,0.699-0.852
	c-0.563-0.048-1.06-0.384-0.973-0.979c0.182-1.297,2.598-1.012,2.442,0.084c0.665-0.675,2.421-0.266,2.253,0.626
	c0.691-0.612,2.414-0.159,2.283,0.657c0.229-0.09,0.457-0.177,0.689-0.257c0.297,0.294,0.592,0.589,0.886,0.883
	c-0.298,0.104-0.592,0.215-0.884,0.334c0.712,0.716,1.413,1.437,2.103,2.161c0.675-0.275,1.365-0.513,2.071-0.71
	c-3.942-3.977-8.572-8.188-12.415-12.446C15.257,14.043,9.843,22.571,9.651,25.628z M12.188,27.342
	c-0.087,0.271-0.357,0.005-0.271-0.265C12.006,26.81,12.276,27.072,12.188,27.342z M14.565,29.152
	c-0.095,0.269-0.363,0.002-0.269-0.269C14.392,28.614,14.66,28.881,14.565,29.152z M10.947,23.563
	c-0.074,0.17-0.254-0.004-0.18-0.174C10.841,23.22,11.022,23.394,10.947,23.563z M12.874,24.96
	c-0.079,0.169-0.259-0.004-0.183-0.177C12.773,24.616,12.953,24.79,12.874,24.96z M15.192,25.092
	c-0.095,0.163-0.274-0.012-0.184-0.175C15.104,24.755,15.286,24.932,15.192,25.092z M13.771,21.705
	c-0.106,0.154-0.29-0.019-0.187-0.173C13.688,21.381,13.874,21.552,13.771,21.705z M14.992,22.281
	c-0.159,0.229-0.437-0.029-0.276-0.258C14.879,21.797,15.156,22.057,14.992,22.281z M22.833,28.63
	c-0.117,0.15-0.297-0.031-0.18-0.182C22.773,28.303,22.954,28.482,22.833,28.63z M25.088,29.596
	c-0.186,0.214-0.452-0.058-0.268-0.271C25.011,29.112,25.278,29.383,25.088,29.596z M15.767,19.414
	c-0.134,0.142-0.323-0.028-0.189-0.17C15.709,19.104,15.898,19.274,15.767,19.414z M17.997,20.702
	c-0.131,0.131-0.318-0.04-0.187-0.173C17.944,20.399,18.13,20.572,17.997,20.702z M21.621,23.522
	c-0.208,0.194-0.482-0.071-0.277-0.265C21.55,23.064,21.828,23.33,21.621,23.522z M15.779,16.947c0.137-0.117,0.33,0.048,0.191,0.17
	C15.833,17.239,15.642,17.072,15.779,16.947z M20.421,21.324c0.142-0.123,0.331,0.053,0.189,0.175
	C20.468,21.622,20.281,21.447,20.421,21.324z M23.221,23.687c-0.145,0.123-0.328-0.055-0.185-0.178
	C23.181,23.386,23.366,23.564,23.221,23.687z M21.651,13.633c0.258-0.101,0.563,0.153,0.304,0.253
	C21.696,13.988,21.392,13.735,21.651,13.633z M25.548,19.724c-0.254,0.126-0.538-0.138-0.282-0.266
	C25.521,19.333,25.806,19.598,25.548,19.724z M23.38,18.301c-1.419,0.754-3.305,0.76-4.388-0.211
	c-1.077-0.963-0.987-2.531,0.373-3.296c1.358-0.77,3.517-0.419,4.652,0.56C25.159,16.332,24.796,17.543,23.38,18.301z M28.69,19.242
	c-0.185,0.061-0.372-0.116-0.19-0.178C28.683,19.007,28.872,19.181,28.69,19.242z"/>
<path fill="#4E5E67" d="M30.207,25.345c-0.189-0.192-0.442-0.181-0.698-0.067c-0.454-0.464-1.254,0.021-0.799,0.488
	c-0.202,0.166-0.287,0.359-0.096,0.551C29.354,27.07,30.941,26.096,30.207,25.345z"/>
<path fill="#6E8189" d="M8.556,16.152c-0.08-0.098-0.095-0.217-0.043-0.338c0.097-0.244,0.203-0.482,0.313-0.719
	c0.055-0.107,0.124-0.116,0.207-0.038c0.296,0.31,0.532,0.175,0.759-0.23c0.259-0.462,0.297-0.897,0.031-1.257
	c-0.728-0.971-1.454-1.941-2.176-2.913c-0.071-0.095-0.067-0.208,0.01-0.315C7.807,10.13,7.96,9.927,8.123,9.723
	c0.08-0.103,0.169-0.105,0.235-0.014c0.713,0.966,1.429,1.93,2.146,2.896c0.692,0.931,0.411,2.14-0.081,3.062
	C9.942,16.535,9.317,17.021,8.556,16.152z"/>
<path fill="#6E8189" d="M10.33,11.139c-0.931-1.255-0.736-3.301,0.717-4.337c1.45-1.048,3.497-0.689,4.36,0.5
	c0.874,1.194,0.218,2.757-1.166,3.87C12.854,12.274,11.267,12.406,10.33,11.139z M14.313,7.874
	c-0.579-0.791-1.772-0.933-2.681-0.271c-0.902,0.661-1.089,1.85-0.484,2.668c0.605,0.826,1.622,0.777,2.502,0.093
	C14.529,9.672,14.896,8.673,14.313,7.874z"/>
<path fill="#6E8189" d="M19.006,4.015c-0.187,0.759-0.351,1.569-0.489,2.427c0.398,0.545,0.797,1.091,1.198,1.64
	c0.063,0.087,0.021,0.155-0.114,0.199c-0.267,0.08-0.531,0.167-0.79,0.261c-0.134,0.046-0.245,0.025-0.308-0.062
	c-0.405-0.557-0.808-1.109-1.21-1.661c-1.126-0.478-2.234-0.931-3.331-1.364c-0.151-0.062-0.141-0.163,0.011-0.228
	c0.29-0.129,0.585-0.254,0.882-0.366c0.112-0.044,0.21-0.039,0.31,0.008c0.723,0.322,1.448,0.651,2.177,0.991
	c0.063-0.578,0.133-1.137,0.215-1.676c0.009-0.074,0.068-0.124,0.188-0.146c0.327-0.063,0.656-0.117,0.988-0.163
	C18.906,3.854,19.029,3.908,19.006,4.015z"/>
<path fill="#6E8189" d="M9.979,17.796c0.137,0.153,0.273,0.307,0.405,0.462c3.006-4.635,7.869-8.124,13.89-9.603
	c-0.11-0.149-0.232-0.299-0.341-0.449C17.883,9.666,13.002,13.153,9.979,17.796z"/>
<path fill="#6E8189" d="M10.878,18.863c0.13,0.161,0.262,0.322,0.389,0.487c3.008-4.62,7.866-8.098,13.872-9.571
	c-0.11-0.152-0.239-0.299-0.349-0.449C18.767,10.786,13.903,14.248,10.878,18.863z"/>
<path fill="#6E8189" d="M38.535,26.074c-6.606,2.791-11.709,8.364-13.875,15.295c0.233,0.265,0.465,0.523,0.7,0.793
	c2.168-7.014,7.339-12.65,14.037-15.43C39.112,26.511,38.821,26.295,38.535,26.074z"/>
<path fill="#6E8189" d="M41.13,28.083c-6.885,2.757-12.196,8.516-14.364,15.703c0.231,0.269,0.463,0.541,0.693,0.813
	c2.163-7.269,7.538-13.087,14.509-15.837C41.688,28.536,41.412,28.305,41.13,28.083z"/>
<path fill="#6E8189" d="M43.579,30.064c-7.092,2.803-12.569,8.707-14.807,16.089c0.229,0.274,0.459,0.553,0.689,0.829
	c2.229-7.472,7.772-13.441,14.955-16.241C44.14,30.514,43.857,30.29,43.579,30.064z"/>
<path fill="#6E8189" d="M46.024,32.054c-7.312,2.854-12.961,8.923-15.254,16.521c0.228,0.28,0.456,0.561,0.685,0.842
	c2.278-7.688,7.991-13.825,15.391-16.677C46.571,32.509,46.299,32.282,46.024,32.054z"/>
<path fill="#6E8189" d="M48.436,34.062c-7.532,2.914-13.35,9.157-15.679,16.984c0.226,0.287,0.451,0.567,0.679,0.857
	c2.316-7.931,8.206-14.255,15.839-17.166C48.993,34.515,48.713,34.289,48.436,34.062z"/>
<path fill="#6E8189" d="M50.875,35.964c-7.763,3.025-13.771,9.449-16.227,17.506c0.225,0.292,0.449,0.584,0.674,0.88
	c2.444-8.198,8.563-14.729,16.474-17.741C51.485,36.397,51.179,36.185,50.875,35.964z"/>
<radialGradient id="SVGID_3_" cx="462.3428" cy="-32.0854" r="17.259" fx="462.3103" fy="-32.081" gradientTransform="matrix(0.7071 -0.7087 0.2226 0.2231 -288.0775 366.8593)" gradientUnits="userSpaceOnUse">
	<stop  offset="0.6121" style="stop-color:#BF8B65"/>
	<stop  offset="0.8061" style="stop-color:#EBBB96"/>
	<a:midPointStop  offset="0.6121" style="stop-color:#BF8B65"/>
	<a:midPointStop  offset="0.5" style="stop-color:#BF8B65"/>
	<a:midPointStop  offset="0.8061" style="stop-color:#EBBB96"/>
</radialGradient>
<path fill="url(#SVGID_3_)" d="M21.584,37.988c0,0,4.102-12.277,15.909-15.024c1.334,0.253,1.739,1.558,1.739,1.558
	S26.932,27.473,23.41,39.957C21.78,39.478,21.584,37.988,21.584,37.988z"/>
<linearGradient id="SVGID_4_" gradientUnits="userSpaceOnUse" x1="457.2041" y1="-5.8301" x2="465.0342" y2="-5.8301" gradientTransform="matrix(0.7071 -0.7071 0.7071 0.7071 -272.5372 382.7539)">
	<stop  offset="0" style="stop-color:#7B9099"/>
	<stop  offset="1" style="stop-color:#302C3B"/>
	<a:midPointStop  offset="0" style="stop-color:#7B9099"/>
	<a:midPointStop  offset="0.5" style="stop-color:#7B9099"/>
	<a:midPointStop  offset="1" style="stop-color:#302C3B"/>
</linearGradient>
<path fill="url(#SVGID_4_)" d="M51.908,51.171c1.658,1.661-3.004,6.534-5.1,4.345c-1.887-1.969,1.372-6.414,4.117-6.956
	C50.926,48.56,52.127,49.794,51.908,51.171z"/>
<path fill="#6E8189" d="M53.483,56.355c-0.219,0.22-0.448,0.439-0.689,0.658c-3.534,3.2-9.074,5.158-11.372,2.854
	c-1.292-1.295-1.533-3.486-0.676-6.172c0.807-2.526,2.52-5.229,4.7-7.414c4.211-4.219,8.504-6.473,11.777-6.183
	c1.73,0.152,3.384,1.38,4.107,2.596c-1.01-1.143-2.473-2.21-4.128-2.357c-3.204-0.282-7.427,1.945-11.588,6.114
	c-2.153,2.158-3.846,4.826-4.642,7.318c-0.827,2.594-0.608,4.699,0.618,5.928c1.991,1.997,7.151,0.66,11.041-2.861
	c2.269-2.052,3.591-4.258,3.637-6.057c0.023-0.92-0.277-1.698-0.893-2.314c-1.286-1.289-4.882-0.313-7.125,1.936
	c-1.758,1.765-2.34,4.053-1.295,5.1c0.266,0.266,0.648,0.407,1.11,0.407c0.912,0,2.03-0.553,2.92-1.444
	c0.003-0.002,0.006-0.005,0.007-0.008c0.708-0.708,1.622-2.241,0.914-3.284c0.993,0.735,0.018,2.692-0.743,3.454
	c-0.003,0.003-0.006,0.006-0.008,0.008c-0.947,0.948-2.102,1.516-3.09,1.516c-0.526,0-0.969-0.166-1.28-0.479
	c-1.138-1.142-0.557-3.58,1.296-5.44c2.371-2.375,6.068-3.333,7.463-1.934c0.663,0.664,0.988,1.502,0.963,2.489
	C56.466,52.482,55.399,54.436,53.483,56.355z"/>
<path fill="#6E8189" d="M52.361,55.907c-1.516,1.521-3.294,2.64-5.009,3.154c-1.744,0.522-3.175,0.343-4.024-0.511
	c-1.04-1.043-1.269-2.888-0.625-5.063c0.636-2.147,2.068-4.448,3.929-6.314c3.365-3.372,6.979-5.117,10.175-4.913
	c1.973,0.125,3.745,1.104,4.761,2.613c-1.259-1.369-2.873-2.252-4.775-2.374c-3.128-0.198-6.675,1.521-9.99,4.844
	c-1.834,1.839-3.244,4.104-3.868,6.213c-0.617,2.089-0.413,3.848,0.563,4.825c0.785,0.787,2.13,0.947,3.786,0.45
	c1.653-0.496,3.443-1.623,4.909-3.093c1.504-1.508,2.815-4.092,2.285-5.91c-0.273-0.933-0.989-1.532-2.132-1.784l0.052-0.234
	c1.216,0.268,2.014,0.942,2.31,1.951C55.271,51.688,53.952,54.312,52.361,55.907z"/>
<path fill="#6E8189" d="M61.034,47.046c-1.027-1.222-2.526-2.143-4.288-2.295c-2.725-0.238-5.923,1.126-8.35,3.556
	c-1.505,1.51-2.599,3.25-3.076,4.901c-0.471,1.625-0.286,2.964,0.517,3.77c0.398,0.397,0.966,0.587,1.643,0.545
	c1.532-0.098,3.363-1.294,4.777-3.12c0.912-1.182,1.123-3.329,0.456-4.688c-0.256-0.523-0.867-1.154-1.787-1.154l0.111-0.231
	c0.816,0,1.488,0.453,1.891,1.28c0.702,1.433,0.481,3.694-0.483,4.94c-1.454,1.885-3.352,3.113-4.951,3.213
	c-0.746,0.047-1.377-0.167-1.825-0.615c-0.87-0.869-1.073-2.292-0.577-4.007c0.489-1.688,1.603-3.465,3.135-5.003
	c2.476-2.478,5.748-3.867,8.54-3.626C58.603,44.67,60.207,45.75,61.034,47.046z"/>
<path fill="#6E8189" d="M60.463,48.765c-1.338-1.32-2.507-2.138-4.211-2.243c-2.619-0.166-5.72,1.359-8.104,3.986l-0.178-0.162
	c2.461-2.718,5.565-4.235,8.298-4.065C58.046,46.392,59.221,47.178,60.463,48.765z"/>
<path fill="#6E8189" d="M55.008,56.461c0.907-0.845,1.728-1.799,2.314-2.891c0.585-1.08,0.937-2.332,0.746-3.553
	c-0.171-1.217-0.997-2.31-2.132-2.758c-1.128-0.471-2.424-0.355-3.555,0.072L52.3,47.106c1.179-0.424,2.531-0.522,3.707-0.013
	c1.184,0.489,2.026,1.652,2.182,2.906c0.172,1.259-0.209,2.521-0.813,3.6C56.766,54.69,55.928,55.63,55.008,56.461z"/>
</svg>
