<?xml version="1.0" encoding="utf-8"?>
<!-- Generator: Adobe Illustrator 15.0.0, SVG Export Plug-In . SVG Version: 6.00 Build 0)  -->
<!DOCTYPE svg PUBLIC "-//W3C//DTD SVG 1.1//EN" "http://www.w3.org/Graphics/SVG/1.1/DTD/svg11.dtd" [
	<!ENTITY ns_flows "http://ns.adobe.com/Flows/1.0/">
	<!ENTITY ns_extend "http://ns.adobe.com/Extensibility/1.0/">
	<!ENTITY ns_ai "http://ns.adobe.com/AdobeIllustrator/10.0/">
	<!ENTITY ns_graphs "http://ns.adobe.com/Graphs/1.0/">
]>
<svg version="1.1" id="Layer_1" xmlns:x="&ns_extend;" xmlns:i="&ns_ai;" xmlns:graph="&ns_graphs;"
	 xmlns="http://www.w3.org/2000/svg" xmlns:xlink="http://www.w3.org/1999/xlink" xmlns:a="http://ns.adobe.com/AdobeSVGViewerExtensions/3.0/"
	 x="0px" y="0px" width="64px" height="64px" viewBox="0 0 64 64" enable-background="new 0 0 64 64" xml:space="preserve">
<linearGradient id="SVGID_1_" gradientUnits="userSpaceOnUse" x1="25.2007" y1="62" x2="25.2007" y2="2.0005">
	<stop  offset="0" style="stop-color:#424E57"/>
	<stop  offset="1" style="stop-color:#5B6D78"/>
	<a:midPointStop  offset="0" style="stop-color:#424E57"/>
	<a:midPointStop  offset="0.5" style="stop-color:#424E57"/>
	<a:midPointStop  offset="1" style="stop-color:#5B6D78"/>
</linearGradient>
<path fill="url(#SVGID_1_)" d="M43.534,38.395c-5.289-1.643-3.786-2.932,1.258-4.8c2.413-0.878,0.953-2.761,1.011-4.262
	c0.029-0.694,2.79-0.553,2.587-3.215c-0.13-1.868-4.336-4.53-5.477-5.663c-0.666-0.651,1.344-2.448-0.072-4.034
	c-1.938-2.152-2.24-5.905-3.41-8.001c0,0,0.896-1.345,0.217-2.096c-5.897-6.541-27.88-5.932-33.501,3.682
	C-0.17,20.795-0.256,35.718,12.867,43.76C18.704,47.343,7.897,57,11.232,57c15.912,0,23.125,5,23.125,5
	c0-2.167-2.573-11.926,1.937-11.571c3.931,0.297,8.729,0.127,8.295-4.205c-0.115-1.316-0.274-2.492,0.665-3.582
	C46.179,41.566,47.538,39.626,43.534,38.395z"/>
<polygon fill="#4E5E67" points="52.563,36.346 61.999,39.648 62,33.044 "/>
<polygon fill="#4E5E67" points="51.88,29.971 60.888,25.634 56.218,20.963 "/>
<polygon fill="#4E5E67" points="51.88,42.684 56.217,51.691 60.888,47.021 "/>
</svg>
