<?xml version="1.0" encoding="utf-8"?>
<!-- Generator: Adobe Illustrator 15.0.0, SVG Export Plug-In . SVG Version: 6.00 Build 0)  -->
<!DOCTYPE svg PUBLIC "-//W3C//DTD SVG 1.1//EN" "http://www.w3.org/Graphics/SVG/1.1/DTD/svg11.dtd" [
	<!ENTITY ns_flows "http://ns.adobe.com/Flows/1.0/">
	<!ENTITY ns_extend "http://ns.adobe.com/Extensibility/1.0/">
	<!ENTITY ns_ai "http://ns.adobe.com/AdobeIllustrator/10.0/">
	<!ENTITY ns_graphs "http://ns.adobe.com/Graphs/1.0/">
]>
<svg version="1.1" id="Layer_1" xmlns:x="&ns_extend;" xmlns:i="&ns_ai;" xmlns:graph="&ns_graphs;"
	 xmlns="http://www.w3.org/2000/svg" xmlns:xlink="http://www.w3.org/1999/xlink" xmlns:a="http://ns.adobe.com/AdobeSVGViewerExtensions/3.0/"
	 x="0px" y="0px" width="64px" height="64px" viewBox="0 0 64 64" enable-background="new 0 0 64 64" xml:space="preserve">
<radialGradient id="SVGID_1_" cx="58.5527" cy="-26.0283" r="4.6468" gradientTransform="matrix(0.8995 0 0 0.8457 -33.2792 27.4077)" gradientUnits="userSpaceOnUse">
	<stop  offset="0" style="stop-color:#FFE14D"/>
	<stop  offset="0.2499" style="stop-color:#FFDF4A"/>
	<stop  offset="0.4691" style="stop-color:#FFD93F"/>
	<stop  offset="0.6767" style="stop-color:#FFCF2D"/>
	<stop  offset="0.8761" style="stop-color:#FFC214"/>
	<stop  offset="1" style="stop-color:#FFB700"/>
	<a:midPointStop  offset="0" style="stop-color:#FFE14D"/>
	<a:midPointStop  offset="0.7333" style="stop-color:#FFE14D"/>
	<a:midPointStop  offset="1" style="stop-color:#FFB700"/>
</radialGradient>
<path fill="url(#SVGID_1_)" d="M19.458,8.552C23.083,7.652,23.225,3.425,24.067,2c-2.137,1.187-2.699,0.421-4.158,1.467
	c-0.328,0.233-2.033-1.158-2.307-0.94c-0.326,0.256-0.422,1.612-1.519,2.511C12.058,8.337,18.025,9.306,19.458,8.552z"/>
<linearGradient id="SVGID_2_" gradientUnits="userSpaceOnUse" x1="15.5293" y1="5.9595" x2="21.8623" y2="5.9595">
	<stop  offset="0" style="stop-color:#FFE14D"/>
	<stop  offset="0.6521" style="stop-color:#FFC418"/>
	<stop  offset="1" style="stop-color:#FFB700"/>
	<a:midPointStop  offset="0" style="stop-color:#FFE14D"/>
	<a:midPointStop  offset="0.4606" style="stop-color:#FFE14D"/>
	<a:midPointStop  offset="1" style="stop-color:#FFB700"/>
</linearGradient>
<path fill="url(#SVGID_2_)" d="M18.366,9.153c0,0-0.062-5.015,3.496-6.388c-3.08,0-4.203,3.328-5.722,0.95
	C13.945,7.071,18.366,9.153,18.366,9.153z"/>
<path fill="#115E5E" d="M15.732,8.425c0.769-0.769,3.58-0.769,4.349,0C21.769,10.112,14.045,10.112,15.732,8.425z"/>
<linearGradient id="SVGID_3_" gradientUnits="userSpaceOnUse" x1="32.0923" y1="62" x2="32.0923" y2="9.3745">
	<stop  offset="0" style="stop-color:#5DCFBE"/>
	<stop  offset="1" style="stop-color:#9EF2E6"/>
	<a:midPointStop  offset="0" style="stop-color:#5DCFBE"/>
	<a:midPointStop  offset="0.5" style="stop-color:#5DCFBE"/>
	<a:midPointStop  offset="1" style="stop-color:#9EF2E6"/>
</linearGradient>
<path fill="url(#SVGID_3_)" d="M44.561,52.313c0,0-5.918-4.298-2.83-13.952c2.582-0.319,9.051-0.665,9.051-0.665l-9.459-1.189
	l8.217-3.464L39.51,34.657l5.066-5.792l-7.609,4.745l-1.49-7.501l-1.363,7.706l-7.529-4.667l5.127,5.351l-8.51,0.562
	c-4.521-13.464-2.178-17.438-3.666-20.489l2.781-0.913l-1.9-4.284l-5.877,0.225c-2.182,4.164-0.781,4.899,0.553,5.222
	c0.541,4.914-0.59,6.469,1.059,7.839c1.623,2.41,0.213,8.168,2.26,15.615c-0.113,0.462-5.602,10.981-0.166,11.902
	C22.221,53.889,19.281,55.15,21.99,62h28.031C47.953,55.631,48.631,53.637,44.561,52.313z M28.588,43.967
	c-2.357,0.094-1.783-5.434-1.783-5.434l2.479-0.203C31.912,40.9,28.588,43.967,28.588,43.967z M30.197,36.26l-4.973,1.177
	l-1.209-1.868L30.197,36.26z"/>
<path fill="#198787" d="M44.887,52.226c-0.088-2.216-2.785-3.961-2.584-10.447c0.082-0.271,0.936-0.157,0.516-3.323
	c2.582-0.318,7.963-0.759,7.963-0.759l-7.943-0.062c0.012-0.8-0.33-1.554-0.33-1.554c2.295-1.059,7.031-3.038,7.031-3.038
	l-7.277,2.267c0,0-0.418-0.986-1.615-1.697c1.246-1.579,3.93-4.747,3.93-4.747l-5.041,4.149c0,0-1.016-0.561-2.547-0.709
	l-1.512-6.196l-0.338,6.209c0,0-1.854,0.25-2.883,0.79l-5.672-3.96l4.387,4.898c-0.852,0.589-1.518,1.304-1.518,1.304l-5.248-0.314
	c-0.703-4.976-2.785-8.241-3.766-13.5c1.146-1.459-0.854-3.697,0.551-6.216c2.23,0.102,3.949-1.434,1.279-4.071
	c0.611-0.734,0.49-2.388-4.041-2.388c-4.969,0-5.363,1.06-4.729,2.503c-1.086,1.171-0.256,3.633,1.078,3.956
	c0.313,0.54-0.066,1.248,0.633,1.947c-0.313,0.077-0.703,1.387-0.188,2.419c-0.359,1.217-0.172,2.449,1.172,3.112
	c1.494,7.816-0.713,7.939,1.869,15.828c-4.205,5.403-3.76,12.647,0.453,12.362c-0.738,3.142,0.742,3.963,1.76,4.749
	c-0.768,1.289-0.758,2.626,0.309,3.134c-0.17,1.083-1.313,2.171-0.854,3.128h3.982c0,0,4.211-4.899,5.637-14.639
	C25.939,56.416,21.166,58.2,21.166,58.2c-0.377-5.607,8.705-10.154,8.98-15.534c1.307,3.249,3.221,4.119,5.275,5.493
	c4.707-0.84,1.25,1.477,11.006,5.716c-4.029,0.445-7.57-1.691-7.57-1.691s0.039,4.863-3.201,9.816c0,0,2.914-1.275,5.463-6.276
	c0,0,6.529-0.417,8.068,6.276H51C50.037,60.425,50.195,53.329,44.887,52.226z M29.375,36.271c0,0-0.242,0.536-0.16,0.928
	l-3.252,0.307c-0.912-0.302-1.654-1.805-1.654-1.805L29.375,36.271z M19.354,9.775c0.209,0.024,0.254,0.754,0.047,0.77
	C11.482,11.131,14.123,9.144,19.354,9.775z M13.805,13.617c-1.025-3.78,6.773-2.278,7.947-0.499
	C17.705,12.579,16.605,13.087,13.805,13.617z M16.32,19.563c1.328,0.076,2.307,0.799,1.854,1.261
	c-0.875-0.062-1.057-0.521-1.932-0.414c0,0,0.109,1.088,0.203,1.71c-1.297-0.431-1.109-1.849-0.797-2.588
	c-0.422-1.155-0.123-2.013,0.031-2.126c-0.635-0.963-0.313-1.479-0.469-2.512c1.422,0.139,0.156,1.541,1.328,2.589
	c0.359,0.153,1.438-0.432,1.922,0.323c-0.703,0.509-1.672-0.062-2.254,0.694c0.848,0.015,2.441-0.001,2.391,0.952
	C17.648,19.671,17.037,18.969,16.32,19.563z M18.711,23.282c0.426,3.958-1.811,3.347-1.979-0.074
	C16.732,23.208,18.643,22.636,18.711,23.282z M19.898,18.377c0.492,2.519-1.051,1.002-1.223-1.709
	C18.625,15.89,19.455,16.11,19.898,18.377z M17.836,49.945c-2.139-10.31,1.465-5.596,3.398-4.509
	c-2.689-7.012-4.336-9.518-3.898-17.677c3.521-0.308,0.563,4.951,5.652,14.724C24.707,36.364,24.836,46.717,17.836,49.945z
	 M28.549,43.868c-1.947-0.288-0.465-4.05-1.529-5.175l2.254-0.143c0.547,1.427-0.494,2.104,0.516,3.417
	C29.42,42.643,28.857,43.14,28.549,43.868z M32.063,43.583c-0.557-1.278,1.33-3.271,2.689-2.564
	c0.545-0.101,0.553-0.697,0.621-1.234c-0.5-0.629-2.145-0.355-1.447,0.096c-0.207,0.157-0.932,0.19-0.932,0.19
	c0.049-1.444,2.586-1.424,3.102-2.756c1.105,0.411,1.814,1.185,2.793,1.711c-0.854,0.134-1.822,0.162-2.377,0.569
	c-0.17,2.364,1.049,3.212-1.346,3.134c-0.043,0.483,0.787,0.165,0.725,0.665c-0.373,0.133-0.779,0.234-0.932,0.568
	c0.174-0.024,1.271-0.663,1.344,0.191c-0.426-0.074-0.529,0.146-0.93,0.095c0.316,0.502,1.828,0.238,1.861,1.33
	C35.373,46.553,32.68,44.995,32.063,43.583z M37.855,44.913c0.219-1.397-0.875-2.156-0.725-3.989
	c0.357,0.494,1.834,0.149,2.311,0.537C39.557,41.871,38.998,43.904,37.855,44.913z M35.787,36.366
	c-1.264,1.339-3.383,2.435-5.066,2.848c-0.238-4.542,7.387-7.191,10.443-1.612C39.293,37.993,37.006,37.199,35.787,36.366z"/>
<path fill="#198787" d="M26.566,62h2.672c0,0,2.828-3.065,3.785-9.158C31.586,56.398,26.541,61.926,26.566,62z"/>
<path fill-rule="evenodd" clip-rule="evenodd" fill="#115E5E" d="M31.466,36.409c-0.178,0.222-0.306,0.442-0.306,0.442
	c-0.771-0.698-1.415-0.665-1.415-0.665C29.954,35.088,30.692,35.756,31.466,36.409z"/>
<path fill-rule="evenodd" clip-rule="evenodd" fill="#115E5E" d="M32.019,35.77c-0.227,0.165-0.387,0.373-0.387,0.373
	c-0.645-0.816-1.346-0.946-1.346-0.946C30.892,34.203,31.361,34.998,32.019,35.77z"/>
<path fill-rule="evenodd" clip-rule="evenodd" fill="#115E5E" d="M32.692,35.223c-0.236,0.143-0.436,0.319-0.436,0.319
	c-0.475-0.927-1.161-1.174-1.161-1.174C31.884,33.513,32.198,34.338,32.692,35.223z"/>
<path fill-rule="evenodd" clip-rule="evenodd" fill="#115E5E" d="M33.444,34.785c-0.271,0.107-0.478,0.257-0.478,0.257
	c-0.315-0.991-0.948-1.345-0.948-1.345C32.937,32.982,33.103,33.831,33.444,34.785z"/>
<path fill-rule="evenodd" clip-rule="evenodd" fill="#115E5E" d="M34.354,34.445c-0.306,0.07-0.559,0.199-0.559,0.199
	c-0.188-1.016-0.709-1.518-0.709-1.518C34.124,32.602,34.14,33.411,34.354,34.445z"/>
<path fill-rule="evenodd" clip-rule="evenodd" fill="#115E5E" d="M35.331,34.268c-0.32,0.038-0.622,0.101-0.622,0.101
	c-0.146-1.051-0.477-1.6-0.477-1.6C35.31,32.328,35.234,33.09,35.331,34.268z"/>
<path fill-rule="evenodd" clip-rule="evenodd" fill="#115E5E" d="M31.046,37.083c-0.137,0.249-0.213,0.509-0.213,0.509
	c-0.531-0.438-1.027-0.357-1.387-0.408C29.504,36.018,30.495,36.648,31.046,37.083z"/>
<path fill-rule="evenodd" clip-rule="evenodd" fill="#115E5E" d="M40.634,36.334c0.184,0.223,0.313,0.443,0.313,0.443
	c0.785-0.699,1.441-0.666,1.441-0.666C42.176,35.014,41.424,35.682,40.634,36.334z"/>
<path fill-rule="evenodd" clip-rule="evenodd" fill="#115E5E" d="M40.071,35.694c0.232,0.166,0.395,0.373,0.395,0.373
	c0.657-0.815,1.372-0.945,1.372-0.945C41.22,34.129,40.741,34.923,40.071,35.694z"/>
<path fill-rule="evenodd" clip-rule="evenodd" fill="#115E5E" d="M39.386,35.147c0.24,0.143,0.443,0.319,0.443,0.319
	c0.482-0.926,1.184-1.173,1.184-1.173C40.209,33.438,39.888,34.263,39.386,35.147z"/>
<path fill-rule="evenodd" clip-rule="evenodd" fill="#115E5E" d="M38.619,34.71c0.274,0.107,0.486,0.258,0.486,0.258
	c0.321-0.991,0.966-1.345,0.966-1.345C39.136,32.908,38.968,33.757,38.619,34.71z"/>
<path fill-rule="evenodd" clip-rule="evenodd" fill="#115E5E" d="M37.69,34.371c0.313,0.069,0.569,0.199,0.569,0.199
	c0.192-1.017,0.724-1.519,0.724-1.519C37.925,32.527,37.91,33.336,37.69,34.371z"/>
<path fill-rule="evenodd" clip-rule="evenodd" fill="#115E5E" d="M36.696,34.192c0.326,0.038,0.634,0.102,0.634,0.102
	c0.149-1.052,0.485-1.6,0.485-1.6C36.718,32.254,36.794,33.016,36.696,34.192z"/>
<path fill-rule="evenodd" clip-rule="evenodd" fill="#115E5E" d="M41.063,37.009c0.139,0.249,0.217,0.508,0.217,0.508
	c0.541-0.437,1.047-0.356,1.414-0.407C42.634,35.942,41.624,36.573,41.063,37.009z"/>
<path fill-rule="evenodd" clip-rule="evenodd" fill="#115E5E" d="M36.444,32.514c-0.109,0.649-0.053,1.691-0.053,1.691
	c-0.352-0.027-0.761,0.013-0.761,0.013s-0.008-0.917-0.146-1.663C35.695,32.447,36.216,32.377,36.444,32.514z"/>
</svg>
