<?xml version="1.0" encoding="utf-8"?>
<!-- Generator: Adobe Illustrator 15.0.0, SVG Export Plug-In . SVG Version: 6.00 Build 0)  -->
<!DOCTYPE svg PUBLIC "-//W3C//DTD SVG 1.1//EN" "http://www.w3.org/Graphics/SVG/1.1/DTD/svg11.dtd" [
	<!ENTITY ns_flows "http://ns.adobe.com/Flows/1.0/">
	<!ENTITY ns_extend "http://ns.adobe.com/Extensibility/1.0/">
	<!ENTITY ns_ai "http://ns.adobe.com/AdobeIllustrator/10.0/">
	<!ENTITY ns_graphs "http://ns.adobe.com/Graphs/1.0/">
]>
<svg version="1.1" id="Layer_1" xmlns:x="&ns_extend;" xmlns:i="&ns_ai;" xmlns:graph="&ns_graphs;"
	 xmlns="http://www.w3.org/2000/svg" xmlns:xlink="http://www.w3.org/1999/xlink" xmlns:a="http://ns.adobe.com/AdobeSVGViewerExtensions/3.0/"
	 x="0px" y="0px" width="64px" height="64px" viewBox="0 0 64 64" enable-background="new 0 0 64 64" xml:space="preserve">
<linearGradient id="SVGID_1_" gradientUnits="userSpaceOnUse" x1="2.8145" y1="33.7148" x2="60.0684" y2="33.7148">
	<stop  offset="0" style="stop-color:#5B666E"/>
	<stop  offset="0.2305" style="stop-color:#515862"/>
	<stop  offset="1" style="stop-color:#302C3B"/>
	<a:midPointStop  offset="0" style="stop-color:#5B666E"/>
	<a:midPointStop  offset="0.4788" style="stop-color:#5B666E"/>
	<a:midPointStop  offset="1" style="stop-color:#302C3B"/>
</linearGradient>
<path fill="url(#SVGID_1_)" d="M2.822,42.338c1.937-5.719,8.189-4.53,9.474-9.532c5.443-3.342,13.285-11.366,13.285-11.366h10.13
	l24.357,20.898c-8.475,2.371-19.129,2.464-19.129,2.464l-10.794,1.189c0,0-12.831-0.222-15.149-1.885l-6.513-0.758
	C8.483,43.349,2.582,43.046,2.822,42.338z"/>
<path fill="#1A1626" d="M30.901,21.439l0.609,5.646l-2.221,2.124l-1.217,3.751l-6.262,4.151l10.326-4.386l-3.998,2.875l1.803,5.159
	l-6.199-1.849l6.402,7.08l10.794-1.189l-3.625-8.603l12.855,5.918l-8.408-7.871l-2.201-4.853l9.934,6.947
	c0,0,3.313,5.697,10.574,5.997c-1.336-2.293-4.229-3.433-5.316-5.193c-1.354-2.191-4.375-3.526-5.258-5.27
	C45.354,28.349,30.901,21.439,30.901,21.439z"/>
<polygon fill="#1A1626" points="21.467,31.289 19.227,35.11 5.532,41.326 21.122,35.218 22.574,31.949 29.321,23.799 "/>
<path fill="#1A1626" d="M18.773,39.121c-6.298,1.94-10.29,4.228-10.29,4.228l6.513,0.758C14.996,44.106,16.146,40.805,18.773,39.121
	z"/>
<path fill="#E6EBEF" d="M38.133,25.575c0,0-2.785-9.575-3.266-9.575c-0.227,0-0.436,0.076-0.855,0.199
	c-0.928,0.275-1.019,0.091-1.875-0.097c-0.694-0.151-1.254,0.22-1.673,0.444c-1.716,0.923-4.379,4.312-5.843,5.517
	c-6.679,4.668-9.626,8.871-9.626,8.871l4.386-1.6l-1.131,2.222c0,0,3.278-1.104,5.406-2.15c1.268-0.627,3.303-2.914,3.573-2.463
	c0.449,0.743-1.766,2.931-1.766,2.931l1.053-0.274L25.463,31.4l3.07-2.424l-1.618,2.58c0,0,2.313-2.383,2.836-2.698
	c3.702-2.228-1.698,3.247-1.698,3.247s6.212-2.778,8.351-3.052c2.781-0.351,5.887,2.07,5.887,2.07L38.133,25.575z"/>
<path fill="#B3C2C6" d="M41.99,23.062c-2.115-1.533-3.512-4.53-5.48-6.202C36.172,16.566,35.385,16,34.867,16
	c-1.076,0-1.838,2.918-2.828,3.466c0,0,0.603,0.626,0.246,1.954c0,0,1.167-1.147,1.167-0.26c0,1.772,1.543,1.666,1.834,2.477
	c1.168,3.258,3.031,5.5,3.91,5.813c1.729,0.616,3.082,1.68,3.082,1.68l-0.713-1.642c2.225-0.08,3.529,1.019,3.529,1.019
	s1.691-0.831,4.398,1.368C47.734,28.412,44.961,25.206,41.99,23.062z"/>
<path fill="#E6EBEF" d="M41.49,28.006c0,0-2.504-2.473-6.799-8.698C38.688,28.464,41.49,28.006,41.49,28.006z"/>
<path fill="#B3C2C6" d="M24.622,26.667c0,0,2.506-2.473,6.8-8.699C27.425,27.125,24.622,26.667,24.622,26.667z"/>
<path fill="#B3C2C6" d="M20.849,26.636c0,0,1.96-1.239,5.569-4.672C22.642,27.378,20.849,26.636,20.849,26.636z"/>
<path fill="#E6EBEF" d="M41.734,24.994c0,0-1.541-1.521-4.184-5.353C40.01,25.276,41.734,24.994,41.734,24.994z"/>
<path fill="#B3C2C6" d="M32.04,23.062c0,0,0.51,1.232,0.885,1.456c0.375,0.227,1.439,1.196,1.439,1.585
	c0,0.39,1.059,1.814,1.434,1.879c0.381,0.064-0.904,0.129-2.344-1.747c-1.439-1.88-1.414,1.358-1.414,1.358
	S30.932,25.916,32.04,23.062z"/>
<linearGradient id="SVGID_2_" gradientUnits="userSpaceOnUse" x1="2" y1="43.3105" x2="62" y2="43.3105">
	<stop  offset="0" style="stop-color:#9BE323"/>
	<stop  offset="1" style="stop-color:#52A100"/>
	<a:midPointStop  offset="0" style="stop-color:#9BE323"/>
	<a:midPointStop  offset="0.5" style="stop-color:#9BE323"/>
	<a:midPointStop  offset="1" style="stop-color:#52A100"/>
</linearGradient>
<path fill="url(#SVGID_2_)" d="M2,44.55c0-2.924,1.467-4.883,2.91-4.573c1.359-2.374,4.313-1.982,4.037-0.063
	c0.717-0.185,2.761,1.013,2.448,2.125c1.526-1.01,3.555-0.204,4.161,0.699c0.733-1.125,4.833-1.977,5.376,0.604
	c0.963-1.838,4.86-1.94,6.191-0.724c0.928-2.001,4.896-1.293,5.789,1.265c1.593-2.834,5.082-3.147,6.843-1.963
	c0.475-0.757,3.619-2.274,5.381-0.251c1.398-1.136,4.221-1.178,5.307,0.544c-0.484-3.23,2.178-3.414,3.83-2.63
	c-0.355-1.733,2.838-1.624,3.41-0.31c0.814-0.475,2.363,0.131,2.258,2.052C61.176,41.153,62,43.259,62,44.55
	C62,44.55,37.684,53.065,2,44.55z"/>
<linearGradient id="SVGID_3_" gradientUnits="userSpaceOnUse" x1="32.0005" y1="56.9873" x2="32.0005" y2="44.5498">
	<stop  offset="0" style="stop-color:#009AF7"/>
	<stop  offset="0.1209" style="stop-color:#0DA3F4"/>
	<stop  offset="0.4955" style="stop-color:#30BAEC"/>
	<stop  offset="0.8019" style="stop-color:#46C9E8"/>
	<stop  offset="1" style="stop-color:#4ECEE6"/>
	<a:midPointStop  offset="0" style="stop-color:#009AF7"/>
	<a:midPointStop  offset="0.3879" style="stop-color:#009AF7"/>
	<a:midPointStop  offset="1" style="stop-color:#4ECEE6"/>
</linearGradient>
<path fill="url(#SVGID_3_)" d="M62,44.55c-20.504,1.448-39.498,1.448-60,0c0,0.656,2.16,1.148,5.397,1.477
	c-2.258,0.315-3.689,0.738-3.689,1.27c0,0.865,3.758,1.442,8.781,1.737c-2.984,0.327-4.956,0.802-4.956,1.427
	c0,0.965,4.676,1.574,10.576,1.828c-2.248,0.275-3.697,0.659-3.697,1.154c0,0.889,4.664,1.421,10.262,1.6
	c-2.08,0.178-3.52,0.466-3.52,0.863c0,1.34,16.333,1.436,18.671,0.287c5.508-0.07,10.602-0.525,10.602-1.37
	c0-0.516-1.896-0.887-4.627-1.113c4.98-0.217,8.916-0.732,8.916-1.549c0-0.341-0.691-0.63-1.857-0.866
	c3.297-0.328,5.506-0.822,5.506-1.486c0-0.59-1.748-1.045-4.445-1.37c4.232-0.315,7.246-0.859,7.246-1.634
	c0-0.419-0.883-0.77-2.355-1.055C60.785,45.442,62,45.042,62,44.55z"/>
<path fill="#129FDB" d="M45.658,58.149c0,1.244-16.337,1.244-16.337,0S45.658,56.905,45.658,58.149z"/>
<path fill="#129FDB" d="M39.191,60.183c0,1.089-14.306,1.089-14.306,0C24.885,59.093,39.191,59.093,39.191,60.183z"/>
<path fill="#129FDB" d="M39.541,61.417c0,0.777-10.22,0.777-10.22,0C29.321,60.638,39.541,60.638,39.541,61.417z"/>
</svg>
