<?xml version="1.0" encoding="utf-8"?>
<!-- Generator: Adobe Illustrator 15.0.0, SVG Export Plug-In . SVG Version: 6.00 Build 0)  -->
<!DOCTYPE svg PUBLIC "-//W3C//DTD SVG 1.1//EN" "http://www.w3.org/Graphics/SVG/1.1/DTD/svg11.dtd" [
	<!ENTITY ns_flows "http://ns.adobe.com/Flows/1.0/">
	<!ENTITY ns_extend "http://ns.adobe.com/Extensibility/1.0/">
	<!ENTITY ns_ai "http://ns.adobe.com/AdobeIllustrator/10.0/">
	<!ENTITY ns_graphs "http://ns.adobe.com/Graphs/1.0/">
]>
<svg version="1.1" id="Layer_1" xmlns:x="&ns_extend;" xmlns:i="&ns_ai;" xmlns:graph="&ns_graphs;"
	 xmlns="http://www.w3.org/2000/svg" xmlns:xlink="http://www.w3.org/1999/xlink" xmlns:a="http://ns.adobe.com/AdobeSVGViewerExtensions/3.0/"
	 x="0px" y="0px" width="64px" height="64px" viewBox="0 0 64 64" enable-background="new 0 0 64 64" xml:space="preserve">
<linearGradient id="SVGID_1_" gradientUnits="userSpaceOnUse" x1="32.6733" y1="61.7207" x2="32.6733" y2="1.7207" gradientTransform="matrix(1 0 0 1 -0.6733 0.2793)">
	<stop  offset="0" style="stop-color:#FF9500"/>
	<stop  offset="0.0934" style="stop-color:#FF9F03"/>
	<stop  offset="0.4902" style="stop-color:#FFC710"/>
	<stop  offset="0.8062" style="stop-color:#FFDF17"/>
	<stop  offset="1" style="stop-color:#FFE81A"/>
	<a:midPointStop  offset="0" style="stop-color:#FF9500"/>
	<a:midPointStop  offset="0.4" style="stop-color:#FF9500"/>
	<a:midPointStop  offset="1" style="stop-color:#FFE81A"/>
</linearGradient>
<circle fill="url(#SVGID_1_)" cx="32" cy="32" r="30"/>
<path fill="#1A1626" d="M16.098,39.883c4.833,14.299,26.972,14.299,31.805,0c0.308-0.908-0.136-1.973-1.021-0.668
	c-6.372,9.377-23.391,9.377-29.764,0C16.233,37.91,15.79,38.975,16.098,39.883z"/>
<linearGradient id="SVGID_2_" gradientUnits="userSpaceOnUse" x1="42.0244" y1="44.4521" x2="53.5138" y2="56.7075" gradientTransform="matrix(1 0 0 1 -0.6733 0.2793)">
	<stop  offset="0" style="stop-color:#690900"/>
	<stop  offset="0.0186" style="stop-color:#76120B"/>
	<stop  offset="0.0782" style="stop-color:#9A2C2B"/>
	<stop  offset="0.1433" style="stop-color:#B94247"/>
	<stop  offset="0.2141" style="stop-color:#D2545D"/>
	<stop  offset="0.2928" style="stop-color:#E5626E"/>
	<stop  offset="0.3837" style="stop-color:#F36C7A"/>
	<stop  offset="0.4978" style="stop-color:#FB7181"/>
	<stop  offset="0.7091" style="stop-color:#FD7383"/>
	<a:midPointStop  offset="0" style="stop-color:#690900"/>
	<a:midPointStop  offset="0.1833" style="stop-color:#690900"/>
	<a:midPointStop  offset="0.7091" style="stop-color:#FD7383"/>
</linearGradient>
<path fill="url(#SVGID_2_)" d="M36.628,50.031c0,0,3.752,3.891,4.638,4.777c4.822,4.822,9.463,5.021,12.203,2.287
	c2.733-2.738,2.532-7.377-2.29-12.201c-0.887-0.885-3.86-3.531-3.86-3.531s-1.869-0.727-5.247,3.566
	C36.465,48.061,36.628,50.031,36.628,50.031z"/>
<linearGradient id="SVGID_3_" gradientUnits="userSpaceOnUse" x1="42.9473" y1="44.7178" x2="52.0923" y2="53.5475" gradientTransform="matrix(1 0 0 1 -0.6733 0.2793)">
	<stop  offset="0" style="stop-color:#420600;stop-opacity:0.18"/>
	<stop  offset="0.1185" style="stop-color:#5F0800;stop-opacity:0.1658"/>
	<stop  offset="0.2926" style="stop-color:#820B00;stop-opacity:0.1449"/>
	<stop  offset="0.4686" style="stop-color:#9E0D00;stop-opacity:0.1238"/>
	<stop  offset="0.6448" style="stop-color:#B20F00;stop-opacity:0.1026"/>
	<stop  offset="0.8217" style="stop-color:#BE1000;stop-opacity:0.0814"/>
	<stop  offset="1" style="stop-color:#C21000;stop-opacity:0.06"/>
	<a:midPointStop  offset="0" style="stop-color:#420600;stop-opacity:0.18"/>
	<a:midPointStop  offset="0.2909" style="stop-color:#420600;stop-opacity:0.18"/>
	<a:midPointStop  offset="1" style="stop-color:#C21000;stop-opacity:0.06"/>
</linearGradient>
<path fill="url(#SVGID_3_)" d="M42.331,44.605c0,0,4.7,3.418,8.983,9.191c-5.752-6.148-9.694-8.611-9.694-8.611
	s0.187-0.16,0.451-0.271C42.288,44.539,42.331,44.605,42.331,44.605z"/>
<path fill="#1A1626" d="M15.735,29.104c4.273-5.522,7.258-5.522,11.53,0c0.648,0.835,1.973,0.214,1.697-0.597
	c-3.627-10.675-11.299-10.675-14.926,0C13.762,29.317,15.087,29.938,15.735,29.104z"/>
<path fill="#1A1626" d="M36.735,29.104c4.273-5.522,7.258-5.522,11.53,0c0.648,0.835,1.973,0.213,1.697-0.597
	c-3.627-10.675-11.299-10.675-14.926,0C34.762,29.317,36.087,29.938,36.735,29.104z"/>
</svg>
