<?xml version="1.0" encoding="utf-8"?>
<!-- Generator: Adobe Illustrator 15.0.0, SVG Export Plug-In . SVG Version: 6.00 Build 0)  -->
<!DOCTYPE svg PUBLIC "-//W3C//DTD SVG 1.1//EN" "http://www.w3.org/Graphics/SVG/1.1/DTD/svg11.dtd" [
	<!ENTITY ns_flows "http://ns.adobe.com/Flows/1.0/">
	<!ENTITY ns_extend "http://ns.adobe.com/Extensibility/1.0/">
	<!ENTITY ns_ai "http://ns.adobe.com/AdobeIllustrator/10.0/">
	<!ENTITY ns_graphs "http://ns.adobe.com/Graphs/1.0/">
]>
<svg version="1.1" id="Layer_1" xmlns:x="&ns_extend;" xmlns:i="&ns_ai;" xmlns:graph="&ns_graphs;"
	 xmlns="http://www.w3.org/2000/svg" xmlns:xlink="http://www.w3.org/1999/xlink" xmlns:a="http://ns.adobe.com/AdobeSVGViewerExtensions/3.0/"
	 x="0px" y="0px" width="64px" height="64px" viewBox="0 0 64 64" enable-background="new 0 0 64 64" xml:space="preserve">
<linearGradient id="SVGID_1_" gradientUnits="userSpaceOnUse" x1="32" y1="62" x2="32" y2="2.0005">
	<stop  offset="0" style="stop-color:#FF9500"/>
	<stop  offset="0.0934" style="stop-color:#FF9F03"/>
	<stop  offset="0.4902" style="stop-color:#FFC710"/>
	<stop  offset="0.8062" style="stop-color:#FFDF17"/>
	<stop  offset="1" style="stop-color:#FFE81A"/>
	<a:midPointStop  offset="0" style="stop-color:#FF9500"/>
	<a:midPointStop  offset="0.4" style="stop-color:#FF9500"/>
	<a:midPointStop  offset="1" style="stop-color:#FFE81A"/>
</linearGradient>
<circle fill="url(#SVGID_1_)" cx="32" cy="32" r="30"/>
<linearGradient id="SVGID_2_" gradientUnits="userSpaceOnUse" x1="32.0005" y1="38.498" x2="32.0005" y2="18.1416">
	<stop  offset="0" style="stop-color:#1A1626"/>
	<stop  offset="0.4251" style="stop-color:#1F1B2B"/>
	<stop  offset="0.9255" style="stop-color:#2D2938"/>
	<stop  offset="1" style="stop-color:#302C3B"/>
	<a:midPointStop  offset="0" style="stop-color:#1A1626"/>
	<a:midPointStop  offset="0.6727" style="stop-color:#1A1626"/>
	<a:midPointStop  offset="1" style="stop-color:#302C3B"/>
</linearGradient>
<path fill="url(#SVGID_2_)" d="M36.123,20.814c-2.357,1.205-5.892,1.205-8.249,0c-2.518-1.321-5.592-2.169-9.274-2.499
	c-3.593-0.323-11.215-0.312-15.027,1.062c-0.438,0.156-0.866,0.359-1.283,0.577c-0.234,0.123-0.282,0.212-0.282,0.66v0.579
	c0,1.088-0.133,0.666,0.627,1.119c1.48,0.887,2.321,3.189,2.771,6.358c0.642,4.621,2.855,7.515,6.453,8.898
	c3.338,1.279,7.071,1.236,10.384-0.115c1.811-0.741,3.4-1.912,4.664-3.813c2.218-3.332,1.553-5.411,2.695-8.273
	c0.996-2.499,3.795-2.499,4.793,0c1.145,2.862,0.48,4.941,2.695,8.273c1.262,1.9,2.854,3.071,4.666,3.813
	c3.311,1.352,7.044,1.395,10.382,0.115c3.597-1.384,5.813-4.277,6.454-8.898c0.449-3.169,1.291-5.471,2.771-6.358
	c0.76-0.453,0.627-0.03,0.627-1.119v-0.579c0-0.448-0.049-0.538-0.282-0.66c-0.415-0.218-0.847-0.421-1.282-0.577
	c-3.813-1.374-11.434-1.386-15.026-1.062C41.716,18.645,38.64,19.493,36.123,20.814"/>
<linearGradient id="SVGID_3_" gradientUnits="userSpaceOnUse" x1="46.7939" y1="35.8887" x2="46.7939" y2="20.5933">
	<stop  offset="0" style="stop-color:#708694"/>
	<stop  offset="1" style="stop-color:#C2DFF0"/>
	<a:midPointStop  offset="0" style="stop-color:#708694"/>
	<a:midPointStop  offset="0.5" style="stop-color:#708694"/>
	<a:midPointStop  offset="1" style="stop-color:#C2DFF0"/>
</linearGradient>
<path opacity="0.3" fill="url(#SVGID_3_)" d="M37.698,22.843c-1.434,1.272-0.132,10.479,4.22,12.183
	c2.715,1.063,8.053,1.706,11.742-1.546c3.021-2.663,3.674-10.726,1.526-11.979C52.826,20.123,40.764,20.123,37.698,22.843z"/>
<linearGradient id="SVGID_4_" gradientUnits="userSpaceOnUse" x1="17.394" y1="35.8926" x2="17.394" y2="20.5962">
	<stop  offset="0" style="stop-color:#708694"/>
	<stop  offset="1" style="stop-color:#C2DFF0"/>
	<a:midPointStop  offset="0" style="stop-color:#708694"/>
	<a:midPointStop  offset="0.5" style="stop-color:#708694"/>
	<a:midPointStop  offset="1" style="stop-color:#C2DFF0"/>
</linearGradient>
<path opacity="0.3" fill="url(#SVGID_4_)" d="M26.49,22.846c1.434,1.272,0.132,10.48-4.219,12.182
	c-2.716,1.063-8.054,1.708-11.744-1.546C7.506,30.82,6.854,22.758,9.001,21.503C11.361,20.125,23.423,20.125,26.49,22.846z"/>
<path fill="#1A1626" d="M24.659,50.003c7.75,2.006,17.273-1.016,21.293-7.304c0.329-0.516-0.183-1.063-0.7-0.654
	c-4.201,3.316-13.119,5.785-19.649,3.876C23.103,45.189,22.016,49.318,24.659,50.003z"/>
</svg>
