<?xml version="1.0" encoding="utf-8"?>
<!-- Generator: Adobe Illustrator 15.0.0, SVG Export Plug-In . SVG Version: 6.00 Build 0)  -->
<!DOCTYPE svg PUBLIC "-//W3C//DTD SVG 1.1//EN" "http://www.w3.org/Graphics/SVG/1.1/DTD/svg11.dtd" [
	<!ENTITY ns_flows "http://ns.adobe.com/Flows/1.0/">
	<!ENTITY ns_extend "http://ns.adobe.com/Extensibility/1.0/">
	<!ENTITY ns_ai "http://ns.adobe.com/AdobeIllustrator/10.0/">
	<!ENTITY ns_graphs "http://ns.adobe.com/Graphs/1.0/">
]>
<svg version="1.1" id="Layer_1" xmlns:x="&ns_extend;" xmlns:i="&ns_ai;" xmlns:graph="&ns_graphs;"
	 xmlns="http://www.w3.org/2000/svg" xmlns:xlink="http://www.w3.org/1999/xlink" xmlns:a="http://ns.adobe.com/AdobeSVGViewerExtensions/3.0/"
	 x="0px" y="0px" width="64px" height="64px" viewBox="0 0 64 64" enable-background="new 0 0 64 64" xml:space="preserve">
<linearGradient id="SVGID_1_" gradientUnits="userSpaceOnUse" x1="31.9819" y1="62.1865" x2="31.9819" y2="2.187" gradientTransform="matrix(1 0 0 1 0.0181 -0.186)">
	<stop  offset="0" style="stop-color:#FF9500"/>
	<stop  offset="0.0934" style="stop-color:#FF9F03"/>
	<stop  offset="0.4902" style="stop-color:#FFC710"/>
	<stop  offset="0.8062" style="stop-color:#FFDF17"/>
	<stop  offset="1" style="stop-color:#FFE81A"/>
	<a:midPointStop  offset="0" style="stop-color:#FF9500"/>
	<a:midPointStop  offset="0.4" style="stop-color:#FF9500"/>
	<a:midPointStop  offset="1" style="stop-color:#FFE81A"/>
</linearGradient>
<circle fill="url(#SVGID_1_)" cx="32" cy="32" r="30"/>
<path fill="#1A1626" d="M41.789,43.729c1.729-1.99,1.301-5.039-0.979-5.84c-2.283-0.801-5.041,1.361-8.787-1.07
	c1.598,4.295,6.768,2.922,7.871,3.65c0.697,0.463,0.148,2.602-2.133,3.971c2.612,0.504,3.859,2.328,3.361,3
	c-0.787,1.063-6.115,1.541-6.147,6.121c2.688-3.564,6.021-2.477,7.891-4.01C44.734,48.018,44.094,45.008,41.789,43.729z"/>
<path fill="#1A1626" d="M15.479,31.972c3.25-6.181,6.188-6.699,11.355-2.002c0.783,0.709,1.979-0.132,1.567-0.882
	c-5.426-9.884-12.98-8.552-14.699,2.592C13.573,32.525,14.986,32.907,15.479,31.972z"/>
<path fill="#1A1626" d="M36.16,28.325c3.25-6.18,6.188-6.698,11.355-2.002c0.783,0.709,1.979-0.133,1.567-0.883
	c-5.426-9.883-12.98-8.551-14.698,2.592C34.254,28.878,35.667,29.26,36.16,28.325z"/>
</svg>
