<?xml version="1.0" encoding="utf-8"?>
<!-- Generator: Adobe Illustrator 15.0.0, SVG Export Plug-In . SVG Version: 6.00 Build 0)  -->
<!DOCTYPE svg PUBLIC "-//W3C//DTD SVG 1.1//EN" "http://www.w3.org/Graphics/SVG/1.1/DTD/svg11.dtd" [
	<!ENTITY ns_flows "http://ns.adobe.com/Flows/1.0/">
	<!ENTITY ns_extend "http://ns.adobe.com/Extensibility/1.0/">
	<!ENTITY ns_ai "http://ns.adobe.com/AdobeIllustrator/10.0/">
	<!ENTITY ns_graphs "http://ns.adobe.com/Graphs/1.0/">
]>
<svg version="1.1" id="Layer_1" xmlns:x="&ns_extend;" xmlns:i="&ns_ai;" xmlns:graph="&ns_graphs;"
	 xmlns="http://www.w3.org/2000/svg" xmlns:xlink="http://www.w3.org/1999/xlink" xmlns:a="http://ns.adobe.com/AdobeSVGViewerExtensions/3.0/"
	 x="0px" y="0px" width="64px" height="64px" viewBox="0 0 64 64" enable-background="new 0 0 64 64" xml:space="preserve">
<linearGradient id="SVGID_1_" gradientUnits="userSpaceOnUse" x1="32.0005" y1="62" x2="32.0005" y2="2.0005">
	<stop  offset="0" style="stop-color:#FF9500"/>
	<stop  offset="0.0934" style="stop-color:#FF9F03"/>
	<stop  offset="0.4902" style="stop-color:#FFC710"/>
	<stop  offset="0.8062" style="stop-color:#FFDF17"/>
	<stop  offset="1" style="stop-color:#FFE81A"/>
	<a:midPointStop  offset="0" style="stop-color:#FF9500"/>
	<a:midPointStop  offset="0.4" style="stop-color:#FF9500"/>
	<a:midPointStop  offset="1" style="stop-color:#FFE81A"/>
</linearGradient>
<circle fill="url(#SVGID_1_)" cx="32" cy="32" r="30"/>
<path fill="#1A1626" d="M37,48.885c0,5.881-10,5.881-10,0c0-3.087,2.239-5.589,5-5.589C34.762,43.296,37,45.798,37,48.885z"/>
<ellipse fill="#1A1626" cx="22" cy="31" rx="4" ry="5"/>
<ellipse fill="#1A1626" cx="42" cy="31" rx="4" ry="5"/>
<path fill="#D69600" d="M11.587,21.003c3.358-3.636,8.861-5.829,13.217-6.003c1.045-0.041,2.41,3.421,1.312,3.454
	c-5.655,0.173-9.789,1.017-14.03,3.579C11.039,22.666,10.616,22.054,11.587,21.003z"/>
<path fill="#D69600" d="M52.413,21.003c-3.358-3.636-8.861-5.829-13.217-6.003c-1.045-0.041-2.41,3.421-1.312,3.454
	c5.655,0.173,9.789,1.017,14.03,3.579C52.961,22.666,53.384,22.054,52.413,21.003z"/>
</svg>
