<?xml version="1.0" encoding="utf-8"?>
<!-- Generator: Adobe Illustrator 15.0.0, SVG Export Plug-In . SVG Version: 6.00 Build 0)  -->
<!DOCTYPE svg PUBLIC "-//W3C//DTD SVG 1.1//EN" "http://www.w3.org/Graphics/SVG/1.1/DTD/svg11.dtd" [
	<!ENTITY ns_flows "http://ns.adobe.com/Flows/1.0/">
	<!ENTITY ns_extend "http://ns.adobe.com/Extensibility/1.0/">
	<!ENTITY ns_ai "http://ns.adobe.com/AdobeIllustrator/10.0/">
	<!ENTITY ns_graphs "http://ns.adobe.com/Graphs/1.0/">
]>
<svg version="1.1" id="Layer_1" xmlns:x="&ns_extend;" xmlns:i="&ns_ai;" xmlns:graph="&ns_graphs;"
	 xmlns="http://www.w3.org/2000/svg" xmlns:xlink="http://www.w3.org/1999/xlink" xmlns:a="http://ns.adobe.com/AdobeSVGViewerExtensions/3.0/"
	 x="0px" y="0px" width="64px" height="64px" viewBox="0 0 64 64" enable-background="new 0 0 64 64" xml:space="preserve">
<linearGradient id="SVGID_1_" gradientUnits="userSpaceOnUse" x1="32.0005" y1="62" x2="32.0005" y2="2.0005">
	<stop  offset="0" style="stop-color:#FF9500"/>
	<stop  offset="0.0934" style="stop-color:#FF9F03"/>
	<stop  offset="0.4902" style="stop-color:#FFC710"/>
	<stop  offset="0.8062" style="stop-color:#FFDF17"/>
	<stop  offset="1" style="stop-color:#FFE81A"/>
	<a:midPointStop  offset="0" style="stop-color:#FF9500"/>
	<a:midPointStop  offset="0.4" style="stop-color:#FF9500"/>
	<a:midPointStop  offset="1" style="stop-color:#FFE81A"/>
</linearGradient>
<circle fill="url(#SVGID_1_)" cx="32" cy="32" r="30"/>
<linearGradient id="SVGID_2_" gradientUnits="userSpaceOnUse" x1="22.605" y1="26.6504" x2="22.605" y2="14.8931">
	<stop  offset="0" style="stop-color:#005B91"/>
	<stop  offset="1" style="stop-color:#007EC9"/>
	<a:midPointStop  offset="0" style="stop-color:#005B91"/>
	<a:midPointStop  offset="0.5" style="stop-color:#005B91"/>
	<a:midPointStop  offset="1" style="stop-color:#007EC9"/>
</linearGradient>
<path fill="url(#SVGID_2_)" d="M26.973,21.244c-0.213-0.403-0.686-0.556-1.059-0.348l-2.002,1.162l0.668-4.975
	c0.025-0.184-0.012-0.373-0.098-0.539l-0.637-1.207c-0.104-0.193-0.271-0.34-0.471-0.406c-0.199-0.068-0.41-0.045-0.588,0.061
	l-4.941,2.865c-0.176,0.104-0.307,0.275-0.359,0.489c-0.051,0.213-0.021,0.44,0.08,0.636l0.672,1.27
	c0.215,0.406,0.686,0.56,1.057,0.349l1.867-1.083l-0.66,4.881c-0.023,0.184,0.01,0.373,0.098,0.541l0.67,1.268
	c0.182,0.342,0.547,0.509,0.883,0.42c0.059-0.018,0.117-0.039,0.174-0.074l5.037-2.914c0.176-0.107,0.305-0.281,0.357-0.49
	c0.055-0.215,0.025-0.439-0.078-0.635L26.973,21.244z"/>
<linearGradient id="SVGID_3_" gradientUnits="userSpaceOnUse" x1="34.9326" y1="20.2983" x2="34.9326" y2="5.6558">
	<stop  offset="0" style="stop-color:#005B91"/>
	<stop  offset="1" style="stop-color:#007EC9"/>
	<a:midPointStop  offset="0" style="stop-color:#005B91"/>
	<a:midPointStop  offset="0.5" style="stop-color:#005B91"/>
	<a:midPointStop  offset="1" style="stop-color:#007EC9"/>
</linearGradient>
<path fill="url(#SVGID_3_)" d="M40.648,8.027c-0.113-0.188-0.287-0.32-0.488-0.371l-7.869-1.978c-0.416-0.106-0.824,0.168-0.91,0.61
	l-0.379,1.948C30.959,8.45,31,8.672,31.111,8.855c0.113,0.189,0.291,0.32,0.49,0.371l3.613,0.91l-5.471,4.732
	c-0.133,0.115-0.225,0.275-0.26,0.454l-0.379,1.946c-0.041,0.212,0,0.434,0.113,0.623c0.113,0.186,0.287,0.317,0.488,0.367
	l8.016,2.018c0.111,0.027,0.221,0.027,0.328,0.004c0.088-0.017,0.174-0.052,0.254-0.105c0.17-0.114,0.287-0.297,0.328-0.512
	l0.379-1.943c0.084-0.441-0.186-0.887-0.602-0.992l-3.83-0.963l5.561-4.82c0.133-0.111,0.223-0.275,0.258-0.454l0.361-1.843
	C40.801,8.436,40.762,8.213,40.648,8.027z"/>
<linearGradient id="SVGID_4_" gradientUnits="userSpaceOnUse" x1="52.5908" y1="22.4595" x2="52.5908" y2="2">
	<stop  offset="0" style="stop-color:#005B91"/>
	<stop  offset="1" style="stop-color:#007EC9"/>
	<a:midPointStop  offset="0" style="stop-color:#005B91"/>
	<a:midPointStop  offset="0.5" style="stop-color:#005B91"/>
	<a:midPointStop  offset="1" style="stop-color:#007EC9"/>
</linearGradient>
<path fill="url(#SVGID_4_)" d="M54.977,22.416c0.189-0.068,0.342-0.209,0.428-0.389l1.154-2.461
	c0.178-0.377,0.018-0.829-0.365-1.008l-5.834-2.756l10.125-5.032c0.152-0.074,0.275-0.2,0.348-0.354l1.096-2.338
	c0.178-0.377,0.018-0.828-0.363-1.006l-10.582-5c-0.379-0.178-0.83-0.016-1.006,0.361L48.82,4.9c-0.18,0.379-0.02,0.83,0.361,1.008
	l5.543,2.619l-9.971,4.946c-0.152,0.075-0.275,0.2-0.346,0.353l-1.156,2.457c-0.084,0.182-0.094,0.392-0.023,0.58
	c0.035,0.105,0.098,0.201,0.176,0.279c0.061,0.061,0.133,0.111,0.213,0.148l10.781,5.094C54.58,22.473,54.789,22.483,54.977,22.416z
	"/>
<path fill="#1A1626" d="M27.265,35.49c-2.971,2.192-8.32,2.338-11.53,0c-0.742-0.54-1.973-0.165-1.697,0.465
	c2.805,6.422,12.127,6.408,14.926,0C29.238,35.325,28.003,34.945,27.265,35.49z"/>
<path fill="#1A1626" d="M36.735,35.49c2.971,2.192,8.32,2.338,11.53,0c0.742-0.54,1.973-0.165,1.697,0.465
	c-2.805,6.422-12.127,6.408-14.926,0C34.762,35.325,35.997,34.945,36.735,35.49z"/>
<path fill="#1A1626" d="M37,52.549c0,5.882-10,5.882-10,0c0-3.086,2.239-5.588,5-5.588C34.762,46.961,37,49.463,37,52.549z"/>
</svg>
