<?xml version="1.0" encoding="utf-8"?>
<!-- Generator: Adobe Illustrator 15.0.0, SVG Export Plug-In . SVG Version: 6.00 Build 0)  -->
<!DOCTYPE svg PUBLIC "-//W3C//DTD SVG 1.1//EN" "http://www.w3.org/Graphics/SVG/1.1/DTD/svg11.dtd" [
	<!ENTITY ns_flows "http://ns.adobe.com/Flows/1.0/">
	<!ENTITY ns_extend "http://ns.adobe.com/Extensibility/1.0/">
	<!ENTITY ns_ai "http://ns.adobe.com/AdobeIllustrator/10.0/">
	<!ENTITY ns_graphs "http://ns.adobe.com/Graphs/1.0/">
]>
<svg version="1.1" id="Layer_1" xmlns:x="&ns_extend;" xmlns:i="&ns_ai;" xmlns:graph="&ns_graphs;"
	 xmlns="http://www.w3.org/2000/svg" xmlns:xlink="http://www.w3.org/1999/xlink" xmlns:a="http://ns.adobe.com/AdobeSVGViewerExtensions/3.0/"
	 x="0px" y="0px" width="64px" height="64px" viewBox="0 0 64 64" enable-background="new 0 0 64 64" xml:space="preserve">
<path fill="#F9C302" d="M57.765,30.853L30.266,18.815"/>
<path fill="#F9C302" d="M57.686,5.831c-1.163-3.74-3.004-4.131-5.076-3.682C43.574,4.1,34.155,13.511,30.266,18.815l26.461,10.627
	C60.131,21.638,59.063,10.254,57.686,5.831z"/>
<path fill="#F9C302" d="M6.234,30.853l27.499-12.038"/>
<path fill="#F9C302" d="M6.313,5.831C7.477,2.09,9.317,1.7,11.39,2.149C20.425,4.1,29.844,13.511,33.733,18.815L7.272,29.442
	C3.868,21.638,4.936,10.254,6.313,5.831z"/>
<linearGradient id="SVGID_1_" gradientUnits="userSpaceOnUse" x1="43.3936" y1="15.3833" x2="57.3389" y2="15.3833">
	<stop  offset="0" style="stop-color:#960000;stop-opacity:0.7"/>
	<stop  offset="1" style="stop-color:#FF82EB;stop-opacity:0.5"/>
	<a:midPointStop  offset="0" style="stop-color:#960000;stop-opacity:0.7"/>
	<a:midPointStop  offset="0.5" style="stop-color:#960000;stop-opacity:0.7"/>
	<a:midPointStop  offset="1" style="stop-color:#FF82EB;stop-opacity:0.5"/>
</linearGradient>
<path fill="url(#SVGID_1_)" d="M56.525,7.783c-0.691-3.127-2.373-3.952-4.701-2.789c-8.912,4.447-8.426,12.478-8.426,12.478
	l11.912,8.805C55.311,26.276,58.903,18.531,56.525,7.783z"/>
<linearGradient id="SVGID_2_" gradientUnits="userSpaceOnUse" x1="6.6597" y1="15.3833" x2="20.6045" y2="15.3833">
	<stop  offset="0" style="stop-color:#FF82EB;stop-opacity:0.5"/>
	<stop  offset="1" style="stop-color:#960000;stop-opacity:0.7"/>
	<a:midPointStop  offset="0" style="stop-color:#FF82EB;stop-opacity:0.5"/>
	<a:midPointStop  offset="0.5" style="stop-color:#FF82EB;stop-opacity:0.5"/>
	<a:midPointStop  offset="1" style="stop-color:#960000;stop-opacity:0.7"/>
</linearGradient>
<path fill="url(#SVGID_2_)" d="M12.175,4.994c-2.329-1.163-4.01-0.338-4.702,2.789C5.096,18.531,8.688,26.276,8.688,26.276
	L20.6,17.471C20.6,17.471,21.086,9.441,12.175,4.994z"/>
<path fill="#F9C302" d="M8.527,32.629l24.102-16.931"/>
<path fill="#F9C302" d="M56.854,31.632L33.74,15.267"/>
<path fill="#F9C302" d="M7.145,31.632l23.113-16.366"/>
<linearGradient id="SVGID_3_" gradientUnits="userSpaceOnUse" x1="112" y1="1256" x2="112" y2="1202.0527" gradientTransform="matrix(1 0 0 1 -80 -1194)">
	<stop  offset="0" style="stop-color:#F9B700"/>
	<stop  offset="0.7212" style="stop-color:#F9C802"/>
	<a:midPointStop  offset="0" style="stop-color:#F9B700"/>
	<a:midPointStop  offset="0.5" style="stop-color:#F9B700"/>
	<a:midPointStop  offset="0.7212" style="stop-color:#F9C802"/>
</linearGradient>
<path fill="url(#SVGID_3_)" d="M32,8.052C7.963,8.052,3,43.18,3,43.18C6.32,53.924,25.725,62,32,62c6.273,0,25.68-8.076,29-18.82
	C61,43.182,56.035,8.052,32,8.052z"/>
<path fill="#F9C802" d="M10.865,13.75c3.35,1.26,3.891,2.148,3.891,2.148s-2.504-0.25-5.037,0.96
	c1.544,0.74,2.109,2.604,2.109,2.604s-1.309-0.11-2.707,0.481c1.15,1.047,1.053,2.979,1.053,2.979l8.904-10.559
	C19.078,12.367,14.73,11.83,10.865,13.75z"/>
<path fill="#F9C802" d="M53.133,13.75c-3.348,1.26-3.889,2.148-3.889,2.148s2.504-0.25,5.037,0.96
	c-1.545,0.74-2.111,2.604-2.111,2.604s1.309-0.11,2.709,0.481c-1.15,1.047-1.053,2.979-1.053,2.979L44.92,12.366
	C44.92,12.367,49.27,11.83,53.133,13.75z"/>
<path fill="#DE9400" d="M34.469,8.192C33.666,8.107,32.85,8.052,32,8.052s-1.668,0.055-2.469,0.14
	C30.334,15.08,31.918,23.037,32,23.854C32.082,23.037,33.666,15.078,34.469,8.192z"/>
<path fill="#DE9400" d="M39.732,9.421c-0.828-0.308-1.691-0.561-2.584-0.767c1.932,5.74,2.908,11.044,2.863,11.03
	C39.992,19.708,40.381,14.888,39.732,9.421z"/>
<path fill="#DE9400" d="M23.986,19.685c-0.047,0.014,0.934-5.292,2.863-11.03c-0.891,0.206-1.756,0.459-2.586,0.767
	C23.619,14.888,24.006,19.707,23.986,19.685z"/>
<path fill="#DE9400" d="M3.615,44.771c5.37-0.521,11.287-1.457,11.922-1.504c-0.646-0.055-6.828-1.016-12.288-1.527
	C3.076,42.65,3,43.182,3,43.182C3.163,43.705,3.38,44.244,3.615,44.771z"/>
<path fill="#DE9400" d="M11.271,38.844c0.021,0.018-3.396-0.277-7.438,0.154c-0.178,0.752-0.32,1.42-0.438,1.992
	C7.604,39.539,11.279,38.811,11.271,38.844z"/>
<path fill="#DE9400" d="M11.271,47.684c0.009,0.035-3.237-0.605-7.132-1.893c0.34,0.629,0.814,1.277,1.243,1.895
	C8.766,47.924,11.287,47.67,11.271,47.684z"/>
<path fill="#DE9400" d="M61,43.182c0,0-0.076-0.531-0.25-1.441c-5.459,0.512-11.643,1.473-12.287,1.527
	c0.633,0.047,6.551,0.982,11.92,1.504C60.619,44.244,60.836,43.705,61,43.182z"/>
<path fill="#DE9400" d="M60.604,40.99c-0.117-0.572-0.26-1.24-0.436-1.992c-4.043-0.432-7.459-0.137-7.439-0.154
	C52.719,38.811,56.395,39.539,60.604,40.99z"/>
<path fill="#DE9400" d="M58.617,47.686c0.428-0.617,0.904-1.266,1.242-1.895c-3.895,1.287-7.141,1.928-7.131,1.893
	C52.713,47.67,55.232,47.924,58.617,47.686z"/>
<path fill="#BB7A0A" d="M36.707,37.752c-0.943-1.002-8.475-1.002-9.416,0C25.848,39.279,30.133,43,32,43
	C33.865,43,38.152,39.279,36.707,37.752z"/>
<ellipse fill="#1A1626" cx="43.499" cy="32" rx="3.5" ry="5"/>
<ellipse fill="#1A1626" cx="20.499" cy="32" rx="3.5" ry="5"/>
<path fill="#1A1626" d="M24.614,52.484c4.5-2.848,10.275-2.848,14.77,0c0.639,0.404,0.717-0.367,0.52-0.707
	c-3.648-6.371-12.158-6.371-15.809,0C23.897,52.117,23.976,52.889,24.614,52.484z"/>
<radialGradient id="SVGID_4_" cx="-58.7842" cy="15.1621" r="13.0794" gradientTransform="matrix(0.8863 0 0 0.9091 67.7384 34.1218)" gradientUnits="userSpaceOnUse">
	<stop  offset="0" style="stop-color:#75D6FF"/>
	<stop  offset="0.18" style="stop-color:#70D4FD"/>
	<stop  offset="0.3863" style="stop-color:#62D0F7"/>
	<stop  offset="0.6056" style="stop-color:#4BC8ED"/>
	<stop  offset="0.8324" style="stop-color:#2CBEE0"/>
	<stop  offset="1" style="stop-color:#0FB4D4"/>
	<a:midPointStop  offset="0" style="stop-color:#75D6FF"/>
	<a:midPointStop  offset="0.6788" style="stop-color:#75D6FF"/>
	<a:midPointStop  offset="1" style="stop-color:#0FB4D4"/>
</radialGradient>
<path fill="url(#SVGID_4_)" d="M20.497,41c-3.809,5.209-5.998,10.004-5.998,13.939c0,3.346,2.688,6.061,6,6.061
	c3.314,0,6-2.715,6-6.061C26.499,51.004,24.245,46.125,20.497,41z"/>
<path id="Shape_22_" fill="#6E8189" d="M42.835,29.873c0,1.498-1.818,1.498-1.818,0C41.017,28.373,42.835,28.373,42.835,29.873
	L42.835,29.873z"/>
<path id="Shape_21_" fill="#6E8189" d="M19.835,29.873c0,1.498-1.818,1.498-1.818,0C18.017,28.373,19.835,28.373,19.835,29.873
	L19.835,29.873z"/>
</svg>
