<?xml version="1.0" encoding="utf-8"?>
<!-- Generator: Adobe Illustrator 15.0.0, SVG Export Plug-In . SVG Version: 6.00 Build 0)  -->
<!DOCTYPE svg PUBLIC "-//W3C//DTD SVG 1.1//EN" "http://www.w3.org/Graphics/SVG/1.1/DTD/svg11.dtd" [
	<!ENTITY ns_flows "http://ns.adobe.com/Flows/1.0/">
	<!ENTITY ns_extend "http://ns.adobe.com/Extensibility/1.0/">
	<!ENTITY ns_ai "http://ns.adobe.com/AdobeIllustrator/10.0/">
	<!ENTITY ns_graphs "http://ns.adobe.com/Graphs/1.0/">
]>
<svg version="1.1" id="Layer_1" xmlns:x="&ns_extend;" xmlns:i="&ns_ai;" xmlns:graph="&ns_graphs;"
	 xmlns="http://www.w3.org/2000/svg" xmlns:xlink="http://www.w3.org/1999/xlink" xmlns:a="http://ns.adobe.com/AdobeSVGViewerExtensions/3.0/"
	 x="0px" y="0px" width="64px" height="64px" viewBox="0 0 64 64" enable-background="new 0 0 64 64" xml:space="preserve">
<path fill="#F9C302" d="M57.766,30.853L30.267,18.815"/>
<path fill="#F9C302" d="M57.687,5.831C56.523,2.09,54.683,1.7,52.61,2.149C43.575,4.1,34.156,13.511,30.267,18.815l26.461,10.627
	C60.132,21.638,59.063,10.254,57.687,5.831z"/>
<path fill="#F9C302" d="M6.235,30.853l27.499-12.038"/>
<path fill="#F9C302" d="M6.313,5.831C7.478,2.09,9.318,1.7,11.391,2.149C20.426,4.1,29.845,13.511,33.734,18.815L7.273,29.442
	C3.869,21.638,4.937,10.254,6.313,5.831z"/>
<linearGradient id="SVGID_1_" gradientUnits="userSpaceOnUse" x1="43.3945" y1="15.3833" x2="57.3398" y2="15.3833">
	<stop  offset="0" style="stop-color:#960000;stop-opacity:0.7"/>
	<stop  offset="1" style="stop-color:#FF82EB;stop-opacity:0.5"/>
	<a:midPointStop  offset="0" style="stop-color:#960000;stop-opacity:0.7"/>
	<a:midPointStop  offset="0.5" style="stop-color:#960000;stop-opacity:0.7"/>
	<a:midPointStop  offset="1" style="stop-color:#FF82EB;stop-opacity:0.5"/>
</linearGradient>
<path fill="url(#SVGID_1_)" d="M56.526,7.783c-0.691-3.127-2.373-3.952-4.701-2.789c-8.912,4.447-8.426,12.478-8.426,12.478
	l11.912,8.805C55.312,26.276,58.904,18.531,56.526,7.783z"/>
<linearGradient id="SVGID_2_" gradientUnits="userSpaceOnUse" x1="6.6602" y1="15.3833" x2="20.6055" y2="15.3833">
	<stop  offset="0" style="stop-color:#FF82EB;stop-opacity:0.5"/>
	<stop  offset="1" style="stop-color:#960000;stop-opacity:0.7"/>
	<a:midPointStop  offset="0" style="stop-color:#FF82EB;stop-opacity:0.5"/>
	<a:midPointStop  offset="0.5" style="stop-color:#FF82EB;stop-opacity:0.5"/>
	<a:midPointStop  offset="1" style="stop-color:#960000;stop-opacity:0.7"/>
</linearGradient>
<path fill="url(#SVGID_2_)" d="M12.176,4.994c-2.329-1.163-4.01-0.338-4.702,2.789C5.096,18.531,8.688,26.276,8.688,26.276
	l11.912-8.805C20.601,17.471,21.087,9.441,12.176,4.994z"/>
<path fill="#F9C302" d="M8.527,32.629L32.63,15.698"/>
<path fill="#F9C302" d="M56.854,31.632L33.741,15.267"/>
<path fill="#F9C302" d="M7.146,31.632l23.112-16.366"/>
<linearGradient id="SVGID_3_" gradientUnits="userSpaceOnUse" x1="112" y1="1256" x2="112" y2="1202.0527" gradientTransform="matrix(1 0 0 1 -80 -1194)">
	<stop  offset="0" style="stop-color:#F9B700"/>
	<stop  offset="0.7212" style="stop-color:#F9C802"/>
	<a:midPointStop  offset="0" style="stop-color:#F9B700"/>
	<a:midPointStop  offset="0.5" style="stop-color:#F9B700"/>
	<a:midPointStop  offset="0.7212" style="stop-color:#F9C802"/>
</linearGradient>
<path fill="url(#SVGID_3_)" d="M32,8.052C7.964,8.052,3,43.18,3,43.18C6.321,53.924,25.726,62,32,62c6.273,0,25.68-8.076,29-18.82
	C61,43.182,56.035,8.052,32,8.052z"/>
<path fill="#F9C802" d="M10.865,13.75c3.35,1.26,3.891,2.148,3.891,2.148s-2.504-0.25-5.037,0.96c1.545,0.74,2.11,2.604,2.11,2.604
	s-1.309-0.11-2.708,0.481c1.151,1.047,1.054,2.979,1.054,2.979l8.904-10.559C19.079,12.367,14.731,11.83,10.865,13.75z"/>
<path fill="#F9C802" d="M53.134,13.75c-3.349,1.26-3.889,2.148-3.889,2.148s2.503-0.25,5.037,0.96
	c-1.546,0.74-2.111,2.604-2.111,2.604s1.308-0.11,2.708,0.481c-1.15,1.047-1.053,2.979-1.053,2.979l-8.905-10.559
	C44.921,12.367,49.27,11.83,53.134,13.75z"/>
<path fill="#DE9400" d="M34.469,8.192C33.667,8.107,32.85,8.052,32,8.052c-0.849,0-1.667,0.055-2.469,0.14
	C30.335,15.08,31.918,23.037,32,23.854C32.082,23.037,33.667,15.078,34.469,8.192z"/>
<path fill="#DE9400" d="M39.732,9.421c-0.828-0.308-1.691-0.561-2.584-0.767c1.932,5.74,2.908,11.044,2.863,11.03
	C39.993,19.708,40.381,14.888,39.732,9.421z"/>
<path fill="#DE9400" d="M23.987,19.685c-0.047,0.014,0.933-5.292,2.863-11.03c-0.892,0.206-1.756,0.459-2.586,0.767
	C23.619,14.888,24.007,19.707,23.987,19.685z"/>
<path fill="#DE9400" d="M3.616,44.771c5.37-0.521,11.287-1.457,11.921-1.504c-0.646-0.055-6.828-1.016-12.288-1.527
	C3.076,42.65,3,43.182,3,43.182C3.163,43.705,3.38,44.244,3.616,44.771z"/>
<path fill="#DE9400" d="M11.271,38.844c0.02,0.018-3.396-0.277-7.439,0.154c-0.177,0.752-0.319,1.42-0.437,1.992
	C7.605,39.539,11.28,38.811,11.271,38.844z"/>
<path fill="#DE9400" d="M11.271,47.684c0.009,0.035-3.237-0.605-7.132-1.893c0.339,0.629,0.814,1.277,1.243,1.895
	C8.767,47.924,11.287,47.67,11.271,47.684z"/>
<path fill="#DE9400" d="M61,43.182c0,0-0.076-0.531-0.249-1.441c-5.46,0.512-11.643,1.473-12.288,1.527
	c0.634,0.047,6.552,0.982,11.921,1.504C60.62,44.244,60.837,43.705,61,43.182z"/>
<path fill="#DE9400" d="M60.604,40.99c-0.117-0.572-0.26-1.24-0.437-1.992c-4.043-0.432-7.459-0.137-7.438-0.154
	C52.72,38.811,56.396,39.539,60.604,40.99z"/>
<path fill="#DE9400" d="M58.618,47.686c0.428-0.617,0.903-1.266,1.242-1.895c-3.895,1.287-7.141,1.928-7.131,1.893
	C52.713,47.67,55.233,47.924,58.618,47.686z"/>
<path fill="#BB7A0A" d="M36.707,37.752c-0.943-1.002-8.474-1.002-9.415,0C25.849,39.279,30.134,43,32,43
	C33.865,43,38.152,39.279,36.707,37.752z"/>
<radialGradient id="SVGID_4_" cx="16.6509" cy="42.1094" r="10.0005" gradientUnits="userSpaceOnUse">
	<stop  offset="0.1" style="stop-color:#FF6399"/>
	<stop  offset="0.2515" style="stop-color:#FF6795;stop-opacity:0.8316"/>
	<stop  offset="0.4086" style="stop-color:#FF7489;stop-opacity:0.6571"/>
	<stop  offset="0.5682" style="stop-color:#FF8875;stop-opacity:0.4798"/>
	<stop  offset="0.7296" style="stop-color:#FFA55A;stop-opacity:0.3005"/>
	<stop  offset="0.8907" style="stop-color:#FFCA36;stop-opacity:0.1215"/>
	<stop  offset="1" style="stop-color:#FFE81A;stop-opacity:0"/>
	<a:midPointStop  offset="0.1" style="stop-color:#FF6399"/>
	<a:midPointStop  offset="0.7" style="stop-color:#FF6399"/>
	<a:midPointStop  offset="1" style="stop-color:#FFE81A;stop-opacity:0"/>
</radialGradient>
<path opacity="0.6" fill="url(#SVGID_4_)" d="M16.651,32.108c5.521,0,10,4.48,10,10.001c0,5.523-4.479,10.001-10,10.001
	c-5.523,0-10-4.478-10-10.001C6.651,36.589,11.127,32.108,16.651,32.108z"/>
<radialGradient id="SVGID_5_" cx="47.3496" cy="41.8906" r="10.0005" gradientUnits="userSpaceOnUse">
	<stop  offset="0.1" style="stop-color:#FF6399"/>
	<stop  offset="0.2515" style="stop-color:#FF6795;stop-opacity:0.8316"/>
	<stop  offset="0.4086" style="stop-color:#FF7489;stop-opacity:0.6571"/>
	<stop  offset="0.5682" style="stop-color:#FF8875;stop-opacity:0.4798"/>
	<stop  offset="0.7296" style="stop-color:#FFA55A;stop-opacity:0.3005"/>
	<stop  offset="0.8907" style="stop-color:#FFCA36;stop-opacity:0.1215"/>
	<stop  offset="1" style="stop-color:#FFE81A;stop-opacity:0"/>
	<a:midPointStop  offset="0.1" style="stop-color:#FF6399"/>
	<a:midPointStop  offset="0.7" style="stop-color:#FF6399"/>
	<a:midPointStop  offset="1" style="stop-color:#FFE81A;stop-opacity:0"/>
</radialGradient>
<path opacity="0.6" fill="url(#SVGID_5_)" d="M47.35,31.89c5.521,0,10,4.48,10,10.001c0,5.525-4.479,10.001-10,10.001
	c-5.525,0-10-4.476-10-10.001C37.35,36.37,41.824,31.89,47.35,31.89z"/>
<path fill="#1A1626" d="M38.365,50.457c1.306-1.059,1.374-3.021,0.032-3.775c-1.345-0.756-3.316,0.297-5.398-1.645
	c0.527,2.873,3.926,2.583,4.537,3.163c0.387,0.368-0.194,1.649-1.779,2.257c1.585,0.605,2.165,1.889,1.779,2.256
	c-0.611,0.58-4.01,0.291-4.538,3.162c2.083-1.939,4.055-0.889,5.398-1.645C39.739,53.475,39.671,51.515,38.365,50.457z"/>
<path fill="#1A1626" d="M15.666,33.148c4.102-4.294,6.967-4.294,11.069,0c0.622,0.65,1.893,0.166,1.629-0.464
	c-3.481-8.303-10.847-8.303-14.329,0C13.771,33.314,15.043,33.799,15.666,33.148z"/>
<path fill="#1A1626" d="M37.267,33.148c4.102-4.294,6.967-4.294,11.068,0c0.623,0.65,1.895,0.166,1.629-0.464
	c-3.48-8.303-10.847-8.303-14.328,0C35.372,33.314,36.644,33.799,37.267,33.148z"/>
</svg>
