<?xml version="1.0" encoding="utf-8"?>
<!-- Generator: Adobe Illustrator 15.0.0, SVG Export Plug-In . SVG Version: 6.00 Build 0)  -->
<!DOCTYPE svg PUBLIC "-//W3C//DTD SVG 1.1//EN" "http://www.w3.org/Graphics/SVG/1.1/DTD/svg11.dtd" [
	<!ENTITY ns_flows "http://ns.adobe.com/Flows/1.0/">
	<!ENTITY ns_extend "http://ns.adobe.com/Extensibility/1.0/">
	<!ENTITY ns_ai "http://ns.adobe.com/AdobeIllustrator/10.0/">
	<!ENTITY ns_graphs "http://ns.adobe.com/Graphs/1.0/">
]>
<svg version="1.1" id="Layer_1" xmlns:x="&ns_extend;" xmlns:i="&ns_ai;" xmlns:graph="&ns_graphs;"
	 xmlns="http://www.w3.org/2000/svg" xmlns:xlink="http://www.w3.org/1999/xlink" xmlns:a="http://ns.adobe.com/AdobeSVGViewerExtensions/3.0/"
	 x="0px" y="0px" width="64px" height="64px" viewBox="0 0 64 64" enable-background="new 0 0 64 64" xml:space="preserve">
<path fill="#FF7A00" d="M15.432,52.752c2.501-1.365,11.067-4.331,11.067-4.331l18.977-0.037c0,0,8.661,2.995,11.147,4.364
	C60.239,54.732,60.999,62,60.999,62H13C13,62,11.806,54.729,15.432,52.752z"/>
<path fill="#ED6A00" d="M52.666,62h-0.694C51.972,56.666,52.666,56.666,52.666,62z"/>
<path fill="#ED6A00" d="M26.5,48.421c0,8.123,18.977,8.086,18.977-0.037l-1.708-0.601H28.31L26.5,48.421z"/>
<path fill="#E6B045" d="M28,48.011c0,6.358,16,6.358,16,0c0-2.164,0-7.035,0-7.035H28C28,40.976,28,45.847,28,48.011z"/>
<path fill="#473834" d="M51.211,38.785c1.083,0.714,2.331,1.247,3.788,1.521c-2.587-5.888,1.313-18.238-6.682-27.311
	c-11.271,0.337-12.829,36.722,2.882,31.883c-1-0.433-1.628-1.316-1.995-2.43c1.211,0.347,2.626,0.358,4.275-0.148
	C52.167,41.733,51.499,40.399,51.211,38.785z"/>
<path fill="#473834" d="M22.92,12.995C14.925,22.068,19.586,34.418,17,40.306c1.456-0.273,2.706-0.807,3.788-1.521
	c-0.288,1.614-0.957,2.948-2.269,3.515c1.647,0.507,3.063,0.495,4.273,0.148c-0.367,1.113-0.993,1.997-1.993,2.43
	C36.508,49.717,34.191,13.332,22.92,12.995z"/>
<path id="Path_634_" fill="#FFCC66" d="M52.441,25.392c-2.546,0.308-4.383,8.816-2.783,11.062c0.225,0.314,1.536,0.813,2.509-1.167
	c0.538-1.098,2.093-2.014,2.573-4.278C55.358,28.109,54.975,25.085,52.441,25.392z"/>
<path id="Path_633_" fill="#FFCC66" d="M19.558,25.392c2.546,0.308,4.384,8.816,2.782,11.062c-0.224,0.314-1.537,0.813-2.508-1.167
	c-0.539-1.098-2.094-2.014-2.574-4.278C16.641,28.109,17.026,25.085,19.558,25.392z"/>
<path id="Path_632_" fill="#DB9D3A" d="M52.372,27.023c-0.664,0.208-1.389,1.219-1.782,2.896c2.322-0.498,1.742,3.363-0.275,3.435
	c0.018,0.389,0.045,0.788,0.092,1.208c0.973-1.409,1.96-0.844,2.938-2.941C54.226,29.731,54.017,26.507,52.372,27.023z"/>
<path id="Path_631_" fill="#DB9D3A" d="M21.409,29.915c-0.394-1.674-1.116-2.685-1.78-2.892c-1.645-0.516-1.855,2.708-0.975,4.599
	c0.979,2.097,1.966,1.532,2.939,2.941c0.048-0.421,0.074-0.821,0.091-1.21C19.687,33.258,19.116,29.445,21.409,29.915z"/>
<path fill="#FFCC66" d="M35.999,9.034C24.97,9.034,19.658,18,20.322,29.527c0.137,2.317,0.782,5.662,1.58,8.525
	C23.555,44.005,32.283,50,35.999,50c3.716,0,12.443-5.995,14.099-11.948c0.797-2.863,1.442-6.208,1.579-8.525
	C52.34,18,47.029,9.034,35.999,9.034z"/>
<path id="Path_630_" fill="#966F42" d="M47.98,24.542c-2.521-1.333-7.349-1.399-9.146-0.47c-0.386,0.179-0.131,1.443,0.193,1.323
	c2.505-0.99,6.548-1.012,8.893,0.084C48.233,25.623,48.363,24.728,47.98,24.542z"/>
<path id="Path_629_" fill="#966F42" d="M24.018,24.542c2.521-1.333,7.346-1.399,9.146-0.47c0.384,0.179,0.131,1.443-0.193,1.323
	c-2.51-0.99-6.546-1.012-8.894,0.084C23.765,25.623,23.636,24.728,24.018,24.542z"/>
<path id="Path_628_" fill="#DB9D3A" d="M38.976,36.108c-0.315-0.22-1.054,0.118-2.977,0.118c-1.921,0-2.66-0.338-2.977-0.118
	c-0.375,0.265,0.225,1.462,2.977,1.462C38.752,37.57,39.354,36.373,38.976,36.108z"/>
<path id="Path_627_" fill="#DB9D3A" d="M35.999,40.646c-2.48-0.729-6.156,0.345-6.156,0.345c1.4,1.522,2.426,3.497,6.156,3.497
	c4.273,0,5.001-2.242,6.157-3.497C42.156,40.99,38.479,39.913,35.999,40.646z"/>
<path id="Path_626_" fill="#FFFFFF" d="M30.767,41.248c2.6,2.178,7.85,2.192,10.466,0C38.462,41.366,33.557,41.368,30.767,41.248z"
	/>
<path id="Path_625_" fill="#FFFFFF" d="M33.545,29.085c0.095,0.729-0.401,1.593-1.773,2.241c-0.872,0.411-2.684,0.896-5.065-0.106
	c-1.067-0.449-2.108-1.85-2.015-2.623C25.983,26.167,32.337,25.811,33.545,29.085z"/>
<linearGradient id="Oval_1_" gradientUnits="userSpaceOnUse" x1="-423.9731" y1="477.4658" x2="-423.9731" y2="478.2246" gradientTransform="matrix(6.5701 0 0 -6.5701 2814.7805 3168.5281)">
	<stop  offset="0" style="stop-color:#A6694A"/>
	<stop  offset="1" style="stop-color:#4F2A1E"/>
	<a:midPointStop  offset="0" style="stop-color:#A6694A"/>
	<a:midPointStop  offset="0.5" style="stop-color:#A6694A"/>
	<a:midPointStop  offset="1" style="stop-color:#4F2A1E"/>
</linearGradient>
<ellipse id="Oval_82_" fill="url(#Oval_1_)" cx="29.234" cy="29.036" rx="2.497" ry="2.492"/>
<path id="Path_624_" fill="#1A1626" d="M27.987,28.99c0,1.725,2.497,1.725,2.497,0C30.484,27.39,27.987,27.39,27.987,28.99z"/>
<path id="Path_623_" fill="#AB968C" d="M27.607,28.292c0,0.723,1.046,0.723,1.046,0C28.653,27.623,27.607,27.623,27.607,28.292z"/>
<path id="Path_622_" fill="#DB9D3A" d="M33.557,29.182c-1.012-3.252-7.923-2.772-8.865-0.585
	C25.04,25.796,32.694,25.057,33.557,29.182z"/>
<path id="Path_621_" fill="#FFFFFF" d="M38.453,29.085c-0.095,0.729,0.401,1.593,1.773,2.241c0.872,0.411,2.684,0.896,5.065-0.106
	c1.069-0.449,2.108-1.85,2.015-2.623C46.018,26.167,39.661,25.811,38.453,29.085z"/>
<linearGradient id="Oval_2_" gradientUnits="userSpaceOnUse" x1="-424.6211" y1="477.4658" x2="-424.6211" y2="478.2246" gradientTransform="matrix(6.5701 0 0 -6.5701 2832.511 3168.5281)">
	<stop  offset="0" style="stop-color:#A6694A"/>
	<stop  offset="1" style="stop-color:#4F2A1E"/>
	<a:midPointStop  offset="0" style="stop-color:#A6694A"/>
	<a:midPointStop  offset="0.5" style="stop-color:#A6694A"/>
	<a:midPointStop  offset="1" style="stop-color:#4F2A1E"/>
</linearGradient>
<circle id="Oval_81_" fill="url(#Oval_2_)" cx="42.709" cy="29.036" r="2.492"/>
<path id="Path_620_" fill="#1A1626" d="M41.461,28.99c0,1.725,2.497,1.725,2.497,0C43.958,27.39,41.461,27.39,41.461,28.99z"/>
<path id="Path_619_" fill="#AB968C" d="M41.082,28.292c0,0.723,1.046,0.723,1.046,0C42.128,27.623,41.082,27.623,41.082,28.292z"/>
<path id="Path_618_" fill="#DB9D3A" d="M38.442,29.182c1.012-3.251,7.919-2.786,8.864-0.585
	C46.957,25.796,39.305,25.057,38.442,29.182z"/>
<linearGradient id="SVGID_1_" gradientUnits="userSpaceOnUse" x1="35.8359" y1="31.8169" x2="35.8359" y2="5.9995">
	<stop  offset="0" style="stop-color:#473834"/>
	<stop  offset="0.2717" style="stop-color:#594640"/>
	<stop  offset="0.7226" style="stop-color:#715950"/>
	<stop  offset="1" style="stop-color:#7A6056"/>
	<a:midPointStop  offset="0" style="stop-color:#473834"/>
	<a:midPointStop  offset="0.4" style="stop-color:#473834"/>
	<a:midPointStop  offset="1" style="stop-color:#7A6056"/>
</linearGradient>
<path fill="url(#SVGID_1_)" d="M36.001,6c-6.711,0-10.064,3.035-10.744,4.473c-8.113,1.852-10.723,15.515-4.649,21.344
	c0.755-6.21,1.48-10.201,5.617-14.404c2.412,3.227,7.423,5.042,11.91,5.042c-2.124-1.541-3.573-3.051-4.71-4.458
	c7.493,3.433,15.885,5.63,17.968,13.82C58.602,20.358,52.613,6,36.001,6z"/>
<path fill="#FF7A00" d="M6.551,22.441c0.357-1.523,9.519-1.535,9.277,0.36c-0.812,6.423,0.342,12.335,0.563,13.233
	c0.391,1.584,3.081,7.836,4.617,8.738c2.328,1.368,5.49,3.648,5.49,3.648L13,62c0,0-6.266-16.652-6.932-20.332
	C5.533,38.719,4.958,29.201,6.551,22.441z"/>
<path fill="#FFCC66" d="M15.293,22.447c0,1.176-8.326,1.176-8.326,0C6.967,14.711,15.293,14.984,15.293,22.447z"/>
<path fill="#FFCC66" d="M21.458,11.167c-3,0.064-3.258,3.041-4.129,2.325c-0.183-0.146-0.248-0.872-0.154-1.196
	c0.683-2.334,1.728-6.646,2.041-7.859c0.57-2.2-2.426-3.028-2.995-0.829c-0.029,0.108-1.859,8.194-1.99,8.162
	c-0.121-0.031-0.211-9.199-0.267-10.076c-0.147-2.425-3.301-2.162-3.098,0.26c0.008,0.098,0.354,9.816,0.146,9.816
	c-0.18,0-1.857-8.119-2.037-8.968c-0.5-2.377-3.58-1.657-3.026,0.707c0.022,0.091,2.096,8.261,1.901,8.261
	c-0.162,0-2.299-5.128-2.299-5.128C4.886,4.739,2.449,5.567,3.115,7.472c1.414,4.049,2.156,4.635,1.947,8.802
	c-0.183,3.628,1.936,6.22,6.074,6.226c9.045,0.014,6.483-6.492,11.793-9.774C23.588,12.318,22.955,11.137,21.458,11.167z"/>
<path fill="#473834" d="M25.257,10.471c-0.103,5.72,2.208,10,12.878,11.982C30.486,22.97,22.636,18.348,25.257,10.471z"/>
<path fill="#473834" d="M25.927,17.048c-2.786,2.746-5.913,7.504-5.319,14.769c0.554-6.005,3.313-10.949,5.811-14.153
	C26.242,17.472,26.078,17.266,25.927,17.048z"/>
<path fill="#473834" d="M30.705,15.235c5.594,5.341,19.344,4.994,20.688,16.582C47.805,20.545,35.646,23.074,30.705,15.235z"/>
</svg>
