<?xml version="1.0" encoding="utf-8"?>
<!-- Generator: Adobe Illustrator 15.0.0, SVG Export Plug-In . SVG Version: 6.00 Build 0)  -->
<!DOCTYPE svg PUBLIC "-//W3C//DTD SVG 1.1//EN" "http://www.w3.org/Graphics/SVG/1.1/DTD/svg11.dtd" [
	<!ENTITY ns_flows "http://ns.adobe.com/Flows/1.0/">
	<!ENTITY ns_extend "http://ns.adobe.com/Extensibility/1.0/">
	<!ENTITY ns_ai "http://ns.adobe.com/AdobeIllustrator/10.0/">
	<!ENTITY ns_graphs "http://ns.adobe.com/Graphs/1.0/">
]>
<svg version="1.1" id="Layer_1" xmlns:x="&ns_extend;" xmlns:i="&ns_ai;" xmlns:graph="&ns_graphs;"
	 xmlns="http://www.w3.org/2000/svg" xmlns:xlink="http://www.w3.org/1999/xlink" xmlns:a="http://ns.adobe.com/AdobeSVGViewerExtensions/3.0/"
	 x="0px" y="0px" width="64px" height="64px" viewBox="0 0 64 64" enable-background="new 0 0 64 64" xml:space="preserve">
<path fill="#FF7A00" d="M11.432,52.752C13.934,51.387,22.5,48.42,22.5,48.42l18.977-0.037c0,0,8.662,2.996,11.148,4.365
	C56.24,54.732,57,62,57,62H7C7,62,7.807,54.729,11.432,52.752z"/>
<path fill="#ED6A00" d="M16.027,62h-0.695C15.332,56.666,16.027,56.666,16.027,62z"/>
<path fill="#ED6A00" d="M48.666,62h-0.693C47.973,56.666,48.666,56.666,48.666,62z"/>
<path fill="#ED6A00" d="M22.5,48.42c0,8.123,18.977,8.086,18.977-0.037l-1.707-0.6H24.311L22.5,48.42z"/>
<path fill="#69452D" d="M24,48.01c0,6.359,16,6.359,16,0c0-2.164,0-7.035,0-7.035H24C24,40.975,24,45.846,24,48.01z"/>
<path fill="#3B2118" d="M47.211,38.785c1.082,0.715,2.33,1.248,3.787,1.52c-2.586-5.887,1.314-18.236-6.682-27.31
	c-11.27,0.337-12.828,36.722,2.883,31.882c-1-0.432-1.629-1.314-1.996-2.43c1.211,0.348,2.627,0.359,4.275-0.148
	C48.166,41.734,47.498,40.398,47.211,38.785z"/>
<path fill="#3B2118" d="M18.92,12.995c-7.996,9.073-3.334,21.423-5.922,27.31c1.457-0.271,2.707-0.805,3.789-1.52
	c-0.289,1.613-0.957,2.949-2.27,3.514c1.648,0.508,3.063,0.496,4.273,0.148c-0.367,1.115-0.992,1.998-1.992,2.43
	C32.508,49.717,30.191,13.332,18.92,12.995z"/>
<path id="Path_1926_" fill="#916B50" d="M48.441,25.392c-2.547,0.308-4.383,8.815-2.783,11.061c0.225,0.314,1.535,0.813,2.508-1.168
	c0.539-1.098,2.094-2.012,2.574-4.277C51.357,28.109,50.975,25.085,48.441,25.392z"/>
<path id="Path_1925_" fill="#916B50" d="M15.557,25.392c2.547,0.308,4.385,8.815,2.783,11.061c-0.225,0.314-1.537,0.813-2.508-1.168
	c-0.539-1.098-2.094-2.012-2.574-4.277C12.641,28.109,13.025,25.085,15.557,25.392z"/>
<path id="Path_1924_" fill="#69452D" d="M48.371,27.023c-0.664,0.208-1.389,1.219-1.781,2.896c2.322-0.498,1.742,3.361-0.275,3.434
	c0.018,0.389,0.045,0.789,0.092,1.209c0.973-1.41,1.959-0.844,2.938-2.941C50.225,29.731,50.016,26.508,48.371,27.023z"/>
<path id="Path_1923_" fill="#69452D" d="M17.408,29.916c-0.395-1.674-1.117-2.685-1.781-2.892c-1.645-0.516-1.855,2.708-0.975,4.598
	c0.979,2.097,1.967,1.531,2.939,2.941c0.049-0.422,0.074-0.822,0.092-1.209C15.686,33.258,15.115,29.446,17.408,29.916z"/>
<path fill="#916B50" d="M31.998,9.035C20.969,9.035,15.656,18,16.32,29.527c0.137,2.317,0.783,5.66,1.58,8.523
	C19.555,44.006,28.281,50,31.998,50s12.443-5.994,14.1-11.949c0.797-2.863,1.441-6.207,1.578-8.523
	C48.34,18,43.029,9.035,31.998,9.035z"/>
<path id="Path_1922_" fill="#69452D" d="M34.975,36.107c-0.314-0.219-1.053,0.119-2.977,0.119c-1.92,0-2.66-0.338-2.977-0.119
	c-0.375,0.266,0.225,1.463,2.977,1.463C34.752,37.57,35.354,36.373,34.975,36.107z"/>
<path id="Path_1921_" fill="#FFFFFF" d="M29.545,29.085c0.094,0.729-0.402,1.593-1.773,2.241c-0.873,0.411-2.684,0.896-5.066-0.107
	c-1.066-0.449-2.107-1.849-2.014-2.623C21.982,26.167,28.336,25.811,29.545,29.085z"/>
<linearGradient id="Oval_1_" gradientUnits="userSpaceOnUse" x1="-424.582" y1="477.4658" x2="-424.582" y2="478.2246" gradientTransform="matrix(6.5701 0 0 -6.5701 2814.7805 3168.5281)">
	<stop  offset="0" style="stop-color:#A6694A"/>
	<stop  offset="1" style="stop-color:#4F2A1E"/>
	<a:midPointStop  offset="0" style="stop-color:#A6694A"/>
	<a:midPointStop  offset="0.5" style="stop-color:#A6694A"/>
	<a:midPointStop  offset="1" style="stop-color:#4F2A1E"/>
</linearGradient>
<ellipse id="Oval_256_" fill="url(#Oval_1_)" cx="25.232" cy="29.037" rx="2.498" ry="2.492"/>
<path id="Path_1920_" fill="#1A1626" d="M23.986,28.991c0,1.725,2.496,1.725,2.496,0C26.482,27.391,23.986,27.391,23.986,28.991z"/>
<path id="Path_1919_" fill="#AB968C" d="M23.605,28.293c0,0.723,1.047,0.723,1.047,0C24.652,27.623,23.605,27.623,23.605,28.293z"/>
<path id="Path_1918_" fill="#69452D" d="M29.557,29.182c-1.014-3.252-7.924-2.772-8.865-0.585
	C21.039,25.796,28.693,25.057,29.557,29.182z"/>
<path id="Path_1917_" fill="#FFFFFF" d="M34.453,29.085c-0.096,0.729,0.4,1.593,1.773,2.241c0.871,0.411,2.684,0.896,5.064-0.107
	c1.07-0.449,2.109-1.849,2.016-2.623C42.018,26.167,35.66,25.811,34.453,29.085z"/>
<linearGradient id="Oval_2_" gradientUnits="userSpaceOnUse" x1="-425.23" y1="477.4658" x2="-425.23" y2="478.2246" gradientTransform="matrix(6.5701 0 0 -6.5701 2832.511 3168.5281)">
	<stop  offset="0" style="stop-color:#A6694A"/>
	<stop  offset="1" style="stop-color:#4F2A1E"/>
	<a:midPointStop  offset="0" style="stop-color:#A6694A"/>
	<a:midPointStop  offset="0.5" style="stop-color:#A6694A"/>
	<a:midPointStop  offset="1" style="stop-color:#4F2A1E"/>
</linearGradient>
<circle id="Oval_255_" fill="url(#Oval_2_)" cx="38.709" cy="29.037" r="2.492"/>
<path id="Path_1916_" fill="#1A1626" d="M37.461,28.991c0,1.725,2.496,1.725,2.496,0C39.957,27.391,37.461,27.391,37.461,28.991z"/>
<path id="Path_1915_" fill="#AB968C" d="M37.082,28.293c0,0.723,1.045,0.723,1.045,0C38.127,27.623,37.082,27.623,37.082,28.293z"/>
<path id="Path_1914_" fill="#69452D" d="M34.441,29.182c1.012-3.251,7.92-2.786,8.865-0.585
	C42.957,25.796,35.305,25.057,34.441,29.182z"/>
<path fill="#5C3821" d="M27.383,42.979c2.813-1.717,6.422-1.717,9.232,0c0.398,0.242,0.447-0.018,0.324-0.227
	c-2.08-3.498-7.801-3.498-9.881,0C26.936,42.961,26.982,43.221,27.383,42.979z"/>
<path fill="#5E4431" d="M43.236,24.508c-2.637-2.165-7.045,0.862-8.813,0.531c-0.373,0.024-0.018,1.273,0.293,1.254
	c2.426-0.035,6.088-2.917,8.531-0.953C43.57,25.564,43.631,24.813,43.236,24.508z"/>
<path fill="#5E4431" d="M20.762,24.508c2.635-2.165,7.045,0.862,8.813,0.531c0.373,0.024,0.018,1.273-0.295,1.254
	c-2.424-0.035-6.084-2.917-8.531-0.953C20.428,25.564,20.365,24.813,20.762,24.508z"/>
<path fill="#69452D" d="M29.631,43.863c1.441-0.822,3.295-0.822,4.738,0c0.203,0.115,0.229-0.01,0.166-0.109
	c-1.068-1.676-4.004-1.676-5.072,0C29.4,43.854,29.424,43.979,29.631,43.863z"/>
<linearGradient id="SVGID_1_" gradientUnits="userSpaceOnUse" x1="31.8354" y1="31.8179" x2="31.8354" y2="6">
	<stop  offset="0" style="stop-color:#3B2118"/>
	<stop  offset="0.0953" style="stop-color:#40251C"/>
	<stop  offset="0.6555" style="stop-color:#58392F"/>
	<stop  offset="1" style="stop-color:#614036"/>
	<a:midPointStop  offset="0" style="stop-color:#3B2118"/>
	<a:midPointStop  offset="0.4" style="stop-color:#3B2118"/>
	<a:midPointStop  offset="1" style="stop-color:#614036"/>
</linearGradient>
<path fill="url(#SVGID_1_)" d="M32,6c-6.711,0-10.064,3.035-10.744,4.473c-8.113,1.852-10.723,15.515-4.648,21.345
	c0.754-6.211,1.48-10.201,5.617-14.405c2.412,3.227,7.424,5.042,11.91,5.042c-2.125-1.541-3.574-3.051-4.711-4.458
	c7.494,3.433,15.885,5.63,17.969,13.821C54.602,20.359,48.613,6,32,6z"/>
<path fill="#3B2118" d="M21.42,10.472c-0.102,5.72,2.209,10,12.879,11.982C26.648,22.97,18.799,18.348,21.42,10.472z"/>
<path fill="#3B2118" d="M22.09,17.048c-2.785,2.746-5.912,7.504-5.318,14.769c0.553-6.004,3.313-10.949,5.811-14.152
	C22.404,17.472,22.24,17.266,22.09,17.048z"/>
<path fill="#3B2118" d="M26.867,15.235c5.596,5.341,19.346,4.994,20.689,16.582C43.969,20.546,31.811,23.075,26.867,15.235z"/>
</svg>
