<?xml version="1.0" encoding="utf-8"?>
<!-- Generator: Adobe Illustrator 15.0.0, SVG Export Plug-In . SVG Version: 6.00 Build 0)  -->
<!DOCTYPE svg PUBLIC "-//W3C//DTD SVG 1.1//EN" "http://www.w3.org/Graphics/SVG/1.1/DTD/svg11.dtd" [
	<!ENTITY ns_flows "http://ns.adobe.com/Flows/1.0/">
	<!ENTITY ns_extend "http://ns.adobe.com/Extensibility/1.0/">
	<!ENTITY ns_ai "http://ns.adobe.com/AdobeIllustrator/10.0/">
	<!ENTITY ns_graphs "http://ns.adobe.com/Graphs/1.0/">
]>
<svg version="1.1" id="Layer_1" xmlns:x="&ns_extend;" xmlns:i="&ns_ai;" xmlns:graph="&ns_graphs;"
	 xmlns="http://www.w3.org/2000/svg" xmlns:xlink="http://www.w3.org/1999/xlink" xmlns:a="http://ns.adobe.com/AdobeSVGViewerExtensions/3.0/"
	 x="0px" y="0px" width="64px" height="64px" viewBox="0 0 64 64" enable-background="new 0 0 64 64" xml:space="preserve">
<path fill="#3B2118" d="M47.211,38.785c1.084,0.715,2.332,1.248,3.789,1.521c-2.588-5.889,1.313-18.238-6.682-27.311
	c-11.271,0.337-12.83,36.721,2.881,31.883c-1-0.434-1.627-1.316-1.994-2.43c1.211,0.346,2.625,0.357,4.275-0.148
	C48.168,41.734,47.5,40.399,47.211,38.785z"/>
<path fill="#3B2118" d="M18.92,12.996c-7.994,9.073-3.334,21.422-5.92,27.311c1.455-0.273,2.705-0.807,3.787-1.521
	c-0.287,1.614-0.957,2.949-2.268,3.516c1.646,0.506,3.063,0.494,4.273,0.148c-0.367,1.113-0.994,1.996-1.994,2.43
	C32.508,49.717,30.191,13.333,18.92,12.996z"/>
<path fill="#FF7A00" d="M24.313,49.266c0,0-2.119-3.066-6.863-5.605c-0.83-0.443-5.963-12.436-5.963-13.733
	c0-4.252,1.838-13.27,5.629-18.561c1.25-1.743-5.447-6.92-6.752-5.215C1.57,17.646,0,27.973,0,32.48C0,36.953,10.725,62,10.725,62
	L24.313,49.266z"/>
<path fill="#FF7A00" d="M39.688,49.266c0,0,2.119-3.066,6.863-5.605c0.83-0.443,5.965-12.436,5.965-13.733
	c0-4.252-1.84-13.27-5.631-18.561c-1.25-1.743,5.447-6.92,6.752-5.215C62.43,17.646,64,27.973,64,32.48
	C64,36.953,53.275,62,53.275,62L39.688,49.266z"/>
<path fill="#916B50" d="M20.234,0.546c-1.842,0.281-6.939,3.252-8.623,5.781c-0.922,1.385,3.74,4.527,5.1,3.629
	c4.104-2.707,2.709-5.316,7.711-6.313c5.986-1.194,7.703-1.865,7.703-3.255C32.125-0.226,24.223-0.065,20.234,0.546z"/>
<path fill="#916B50" d="M43.766,0.546c1.84,0.281,6.938,3.252,8.621,5.781c0.924,1.385-3.74,4.527-5.1,3.629
	c-4.102-2.707-2.709-5.316-7.711-6.313c-5.986-1.194-7.703-1.865-7.703-3.255C31.873-0.226,39.777-0.065,43.766,0.546z"/>
<path fill="#FF7A00" d="M24.125,48.264c3.723-1.299,12.189-1.502,15.83,0C43.941,49.906,53.275,62,53.275,62H10.725
	C10.725,62,20.033,49.689,24.125,48.264z"/>
<path fill="#ED6A00" d="M22.5,47.5c0,8.123,19,8.094,19-0.029C41.5,45.635,22.5,45.666,22.5,47.5z"/>
<path fill="#69452D" d="M24,47.01c0,6.359,16,6.359,16,0c0-2.164,0-7.035,0-7.035H24C24,39.975,24,44.846,24,47.01z"/>
<path id="Path_1943_" fill="#916B50" d="M48.441,25.393c-2.545,0.308-4.383,8.816-2.783,11.061c0.225,0.314,1.537,0.814,2.51-1.167
	c0.537-1.097,2.092-2.013,2.572-4.276C51.359,28.11,50.975,25.086,48.441,25.393z"/>
<path id="Path_1942_" fill="#916B50" d="M15.559,25.393c2.545,0.308,4.383,8.816,2.781,11.061c-0.223,0.314-1.537,0.814-2.508-1.167
	c-0.539-1.097-2.094-2.013-2.574-4.276C12.641,28.11,13.025,25.086,15.559,25.393z"/>
<path id="Path_1941_" fill="#69452D" d="M48.373,27.024c-0.664,0.208-1.389,1.219-1.783,2.896c2.322-0.498,1.742,3.362-0.275,3.435
	c0.018,0.388,0.045,0.787,0.092,1.207c0.973-1.409,1.961-0.844,2.939-2.939C50.227,29.732,50.018,26.508,48.373,27.024z"/>
<path id="Path_1940_" fill="#69452D" d="M17.408,29.916c-0.393-1.674-1.115-2.685-1.779-2.892c-1.645-0.516-1.855,2.708-0.975,4.599
	c0.979,2.096,1.965,1.53,2.939,2.939c0.047-0.421,0.074-0.82,0.09-1.209C15.688,33.258,15.115,29.446,17.408,29.916z"/>
<path fill="#916B50" d="M32,9.035c-11.029,0-16.342,8.965-15.678,20.493c0.137,2.318,0.781,5.661,1.58,8.525
	C19.555,44.006,28.283,50,32,50c3.715,0,12.443-5.994,14.098-11.947c0.797-2.864,1.443-6.207,1.58-8.525
	C48.34,18,43.029,9.035,32,9.035z"/>
<path id="Path_1939_" fill="#5E4431" d="M43.98,24.543c-2.521-1.333-7.348-1.399-9.146-0.47c-0.385,0.179-0.131,1.443,0.193,1.323
	c2.506-0.99,6.549-1.012,8.893,0.084C44.234,25.624,44.363,24.729,43.98,24.543z"/>
<path id="Path_1938_" fill="#5E4431" d="M20.018,24.543c2.521-1.333,7.346-1.399,9.146-0.47c0.385,0.179,0.131,1.443-0.193,1.323
	c-2.51-0.99-6.545-1.012-8.893,0.084C19.766,25.624,19.637,24.729,20.018,24.543z"/>
<path id="Path_1937_" fill="#69452D" d="M34.977,36.108c-0.316-0.22-1.055,0.118-2.977,0.118s-2.66-0.338-2.977-0.118
	C28.646,36.373,29.248,37.57,32,37.57S35.354,36.373,34.977,36.108z"/>
<path id="Path_1936_" fill="#69452D" d="M32,40.646c-2.48-0.728-6.156,0.345-6.156,0.345c1.4,1.523,2.426,3.497,6.156,3.497
	c4.273,0,5-2.241,6.156-3.497C38.156,40.99,34.479,39.914,32,40.646z"/>
<path id="Path_1935_" fill="#FFFFFF" d="M26.768,41.248c2.6,2.178,7.85,2.193,10.467,0C34.463,41.367,29.557,41.368,26.768,41.248z"
	/>
<path id="Path_1934_" fill="#FFFFFF" d="M29.545,29.086c0.096,0.729-0.4,1.593-1.773,2.24c-0.871,0.412-2.684,0.896-5.064-0.106
	c-1.068-0.449-2.109-1.849-2.016-2.623C21.982,26.167,28.338,25.812,29.545,29.086z"/>
<linearGradient id="Oval_1_" gradientUnits="userSpaceOnUse" x1="-424.582" y1="477.4658" x2="-424.582" y2="478.2246" gradientTransform="matrix(6.5701 0 0 -6.5701 2814.7805 3168.5281)">
	<stop  offset="0" style="stop-color:#A6694A"/>
	<stop  offset="1" style="stop-color:#4F2A1E"/>
	<a:midPointStop  offset="0" style="stop-color:#A6694A"/>
	<a:midPointStop  offset="0.5" style="stop-color:#A6694A"/>
	<a:midPointStop  offset="1" style="stop-color:#4F2A1E"/>
</linearGradient>
<circle id="Oval_258_" fill="url(#Oval_1_)" cx="25.234" cy="29.037" r="2.492"/>
<path id="Path_1933_" fill="#1A1626" d="M23.986,28.991c0,1.725,2.498,1.725,2.498,0C26.484,27.391,23.986,27.391,23.986,28.991z"/>
<path id="Path_1932_" fill="#AB968C" d="M23.607,28.293c0,0.723,1.045,0.723,1.045,0C24.652,27.624,23.607,27.624,23.607,28.293z"/>
<path id="Path_1931_" fill="#69452D" d="M29.557,29.183c-1.012-3.252-7.924-2.772-8.865-0.585
	C21.039,25.797,28.693,25.058,29.557,29.183z"/>
<path id="Path_1930_" fill="#FFFFFF" d="M34.453,29.086c-0.094,0.729,0.402,1.593,1.773,2.24c0.873,0.412,2.684,0.896,5.066-0.106
	c1.068-0.449,2.107-1.849,2.014-2.623C42.018,26.167,35.662,25.812,34.453,29.086z"/>
<linearGradient id="Oval_2_" gradientUnits="userSpaceOnUse" x1="-425.23" y1="477.4658" x2="-425.23" y2="478.2246" gradientTransform="matrix(6.5701 0 0 -6.5701 2832.511 3168.5281)">
	<stop  offset="0" style="stop-color:#A6694A"/>
	<stop  offset="1" style="stop-color:#4F2A1E"/>
	<a:midPointStop  offset="0" style="stop-color:#A6694A"/>
	<a:midPointStop  offset="0.5" style="stop-color:#A6694A"/>
	<a:midPointStop  offset="1" style="stop-color:#4F2A1E"/>
</linearGradient>
<circle id="Oval_257_" fill="url(#Oval_2_)" cx="38.709" cy="29.037" r="2.492"/>
<path id="Path_1929_" fill="#1A1626" d="M37.461,28.991c0,1.725,2.498,1.725,2.498,0C39.959,27.391,37.461,27.391,37.461,28.991z"/>
<path id="Path_1928_" fill="#AB968C" d="M37.082,28.293c0,0.723,1.047,0.723,1.047,0C38.129,27.624,37.082,27.624,37.082,28.293z"/>
<path id="Path_1927_" fill="#69452D" d="M34.443,29.183c1.012-3.251,7.918-2.786,8.863-0.585
	C42.957,25.797,35.305,25.058,34.443,29.183z"/>
<linearGradient id="SVGID_1_" gradientUnits="userSpaceOnUse" x1="31.8359" y1="31.8184" x2="31.8359" y2="6.0005">
	<stop  offset="0" style="stop-color:#3B2118"/>
	<stop  offset="0.0953" style="stop-color:#40251C"/>
	<stop  offset="0.6555" style="stop-color:#58392F"/>
	<stop  offset="1" style="stop-color:#614036"/>
	<a:midPointStop  offset="0" style="stop-color:#3B2118"/>
	<a:midPointStop  offset="0.4" style="stop-color:#3B2118"/>
	<a:midPointStop  offset="1" style="stop-color:#614036"/>
</linearGradient>
<path fill="url(#SVGID_1_)" d="M32.002,6c-6.713,0-10.064,3.035-10.744,4.473c-8.113,1.852-10.723,15.515-4.65,21.345
	c0.756-6.211,1.48-10.201,5.617-14.405c2.412,3.227,7.424,5.042,11.91,5.042c-2.123-1.541-3.572-3.051-4.709-4.458
	c7.492,3.433,15.885,5.63,17.967,13.821C54.602,20.359,48.613,6,32.002,6z"/>
<path fill="#3B2118" d="M21.258,10.472c-0.104,5.72,2.207,10,12.879,11.982C26.486,22.971,18.637,18.349,21.258,10.472z"/>
<path fill="#3B2118" d="M21.928,17.049c-2.787,2.746-5.914,7.504-5.32,14.77c0.555-6.005,3.313-10.95,5.811-14.153
	C22.242,17.473,22.078,17.267,21.928,17.049z"/>
<path fill="#3B2118" d="M26.705,15.236c5.594,5.341,19.344,4.994,20.688,16.583C43.805,20.546,31.646,23.075,26.705,15.236z"/>
</svg>
