<?xml version="1.0" encoding="utf-8"?>
<!-- Generator: Adobe Illustrator 15.0.0, SVG Export Plug-In . SVG Version: 6.00 Build 0)  -->
<!DOCTYPE svg PUBLIC "-//W3C//DTD SVG 1.1//EN" "http://www.w3.org/Graphics/SVG/1.1/DTD/svg11.dtd" [
	<!ENTITY ns_flows "http://ns.adobe.com/Flows/1.0/">
	<!ENTITY ns_extend "http://ns.adobe.com/Extensibility/1.0/">
	<!ENTITY ns_ai "http://ns.adobe.com/AdobeIllustrator/10.0/">
	<!ENTITY ns_graphs "http://ns.adobe.com/Graphs/1.0/">
]>
<svg version="1.1" id="Layer_1" xmlns:x="&ns_extend;" xmlns:i="&ns_ai;" xmlns:graph="&ns_graphs;"
	 xmlns="http://www.w3.org/2000/svg" xmlns:xlink="http://www.w3.org/1999/xlink" xmlns:a="http://ns.adobe.com/AdobeSVGViewerExtensions/3.0/"
	 x="0px" y="0px" width="64px" height="64px" viewBox="0 0 64 64" enable-background="new 0 0 64 64" xml:space="preserve">
<path fill="#6B4435" d="M39.583,50.742c15.168-6.066,13.652-20.476,13.652-20.476H10.768c0,0-1.517,14.41,13.648,20.476
	c0,0,3.035,0.758,7.583,0.758C36.551,51.5,39.583,50.742,39.583,50.742z"/>
<linearGradient id="SVGID_1_" gradientUnits="userSpaceOnUse" x1="47.167" y1="51.498" x2="47.167" y2="6.1138">
	<stop  offset="0.05" style="stop-color:#6B4435"/>
	<stop  offset="0.088" style="stop-color:#6E4637"/>
	<stop  offset="0.467" style="stop-color:#865947"/>
	<stop  offset="0.7" style="stop-color:#8F604D"/>
	<a:midPointStop  offset="0.05" style="stop-color:#6B4435"/>
	<a:midPointStop  offset="0.4" style="stop-color:#6B4435"/>
	<a:midPointStop  offset="0.7" style="stop-color:#8F604D"/>
</linearGradient>
<path fill="url(#SVGID_1_)" d="M47.335,31.804c1.551,6.532,0.732,12.999-7.752,18.938c9.102-1.518,15.168-10.111,15.168-16.705
	L47.335,31.804z"/>
<linearGradient id="SVGID_2_" gradientUnits="userSpaceOnUse" x1="1763.9795" y1="51.498" x2="1763.9795" y2="6.1138" gradientTransform="matrix(-1 0 0 1 1780.8145 0)">
	<stop  offset="0.05" style="stop-color:#6B4435"/>
	<stop  offset="0.088" style="stop-color:#6E4637"/>
	<stop  offset="0.467" style="stop-color:#865947"/>
	<stop  offset="0.7" style="stop-color:#8F604D"/>
	<a:midPointStop  offset="0.05" style="stop-color:#6B4435"/>
	<a:midPointStop  offset="0.4" style="stop-color:#6B4435"/>
	<a:midPointStop  offset="0.7" style="stop-color:#8F604D"/>
</linearGradient>
<path fill="url(#SVGID_2_)" d="M16.668,31.804c-1.552,6.532-0.733,12.999,7.751,18.938C15.317,49.225,9.251,40.631,9.251,34.037
	L16.668,31.804z"/>
<path fill="#8E3ED6" d="M12.254,52.752C14.656,51.387,23,48.361,23,48.361h18c0,0,8.412,3.018,10.801,4.387
	C55.27,54.732,56,62,56,62H8C8,62,8.773,54.729,12.254,52.752z"/>
<path fill="#732EB0" d="M16.666,62H16C16,56.666,16.666,56.666,16.666,62z"/>
<path fill="#732EB0" d="M48,62h-0.668C47.332,56.666,48,56.666,48,62z"/>
<path fill="#732EB0" d="M23,48.361c0,8.123,18,8.123,18,0l-1.543-0.535H24.5L23,48.361z"/>
<path fill="#8C5F44" d="M24.5,48.01c0,6.359,15,6.359,15,0c0-2.164,0-7.035,0-7.035h-15C24.5,40.975,24.5,45.846,24.5,48.01z"/>
<path fill="#B88A6F" d="M32.001,8.276c-11.005,0-16.306,8.962-15.644,20.485c0.136,2.315,0.78,5.657,1.575,8.52
	c1.65,5.951,10.359,11.943,14.068,11.943c3.707,0,12.416-5.992,14.068-11.943c0.795-2.863,1.439-6.205,1.576-8.52
	C48.306,17.238,43.009,8.276,32.001,8.276z"/>
<path fill="#8C5F44" d="M34.475,36.213c-0.263-0.184-0.877,0.1-2.476,0.1c-1.597,0-2.211-0.283-2.473-0.1
	c-0.314,0.221,0.185,1.217,2.473,1.217C34.288,37.43,34.79,36.436,34.475,36.213z"/>
<path id="Path_1583_" fill="#FFFFFF" d="M29.553,29.25c0.093,0.727-0.401,1.591-1.771,2.238c-0.869,0.411-2.678,0.896-5.055-0.107
	c-1.065-0.448-2.104-1.847-2.01-2.62C22.006,26.333,28.347,25.977,29.553,29.25z"/>
<linearGradient id="Oval_1_" gradientUnits="userSpaceOnUse" x1="-424.5796" y1="477.4404" x2="-424.5796" y2="478.1992" gradientTransform="matrix(6.5701 0 0 -6.5701 2814.7805 3168.5281)">
	<stop  offset="0" style="stop-color:#A6694A"/>
	<stop  offset="1" style="stop-color:#4F2A1E"/>
	<a:midPointStop  offset="0" style="stop-color:#A6694A"/>
	<a:midPointStop  offset="0.5" style="stop-color:#A6694A"/>
	<a:midPointStop  offset="1" style="stop-color:#4F2A1E"/>
</linearGradient>
<circle id="Oval_216_" fill="url(#Oval_1_)" cx="25.25" cy="29.201" r="2.49"/>
<path id="Path_1582_" fill="#1A1626" d="M24.006,29.156c0,1.723,2.491,1.723,2.491,0C26.497,27.556,24.006,27.556,24.006,29.156z"/>
<path id="Path_1581_" fill="#AB968C" d="M23.627,28.458c0,0.723,1.044,0.723,1.044,0C24.671,27.789,23.627,27.789,23.627,28.458z"/>
<path id="Path_1580_" fill="#45332C" d="M29.564,29.346c-1.012-3.251-7.908-2.771-8.847-0.585
	C21.065,25.962,28.702,25.223,29.564,29.346z"/>
<path id="Path_1579_" fill="#FFFFFF" d="M34.449,29.25c-0.093,0.727,0.401,1.591,1.771,2.238c0.869,0.411,2.678,0.896,5.055-0.107
	c1.066-0.448,2.104-1.847,2.01-2.62C41.997,26.333,35.655,25.977,34.449,29.25z"/>
<linearGradient id="Oval_2_" gradientUnits="userSpaceOnUse" x1="-425.2319" y1="477.4404" x2="-425.2319" y2="478.1992" gradientTransform="matrix(6.5701 0 0 -6.5701 2832.511 3168.5281)">
	<stop  offset="0" style="stop-color:#A6694A"/>
	<stop  offset="1" style="stop-color:#4F2A1E"/>
	<a:midPointStop  offset="0" style="stop-color:#A6694A"/>
	<a:midPointStop  offset="0.5" style="stop-color:#A6694A"/>
	<a:midPointStop  offset="1" style="stop-color:#4F2A1E"/>
</linearGradient>
<circle id="Oval_215_" fill="url(#Oval_2_)" cx="38.695" cy="29.201" r="2.49"/>
<path id="Path_1578_" fill="#1A1626" d="M37.451,29.156c0,1.723,2.492,1.723,2.492,0C39.943,27.556,37.451,27.556,37.451,29.156z"/>
<path id="Path_1577_" fill="#AB968C" d="M37.072,28.458c0,0.723,1.044,0.723,1.044,0C38.116,27.789,37.072,27.789,37.072,28.458z"/>
<path id="Path_1576_" fill="#45332C" d="M34.438,29.346c1.011-3.249,7.902-2.784,8.846-0.585
	C42.935,25.962,35.3,25.223,34.438,29.346z"/>
<path fill="#854F34" d="M27.386,42.979c2.813-1.715,6.422-1.715,9.232,0c0.398,0.242,0.447-0.018,0.324-0.227
	c-2.08-3.498-7.801-3.498-9.881,0C26.938,42.961,26.985,43.221,27.386,42.979z"/>
<path fill="#78513A" d="M43.239,24.643c-2.637-2.165-7.046,0.862-8.813,0.531c-0.373,0.024-0.017,1.273,0.294,1.254
	c2.426-0.035,6.087-2.917,8.531-0.953C43.572,25.699,43.634,24.947,43.239,24.643z"/>
<path fill="#78513A" d="M20.765,24.643c2.635-2.165,7.044,0.862,8.812,0.531c0.373,0.024,0.019,1.273-0.294,1.254
	c-2.424-0.035-6.085-2.917-8.531-0.953C20.43,25.699,20.368,24.947,20.765,24.643z"/>
<path fill="#8C5F44" d="M29.634,43.863c1.441-0.822,3.295-0.822,4.738,0c0.203,0.115,0.229-0.008,0.166-0.107
	c-1.068-1.676-4.004-1.676-5.072,0C29.403,43.855,29.427,43.979,29.634,43.863z"/>
<linearGradient id="SVGID_3_" gradientUnits="userSpaceOnUse" x1="32.0015" y1="51.4971" x2="32.0015" y2="6.1131">
	<stop  offset="0.05" style="stop-color:#6B4435"/>
	<stop  offset="0.088" style="stop-color:#6E4637"/>
	<stop  offset="0.467" style="stop-color:#865947"/>
	<stop  offset="0.7" style="stop-color:#8F604D"/>
	<a:midPointStop  offset="0.05" style="stop-color:#6B4435"/>
	<a:midPointStop  offset="0.4" style="stop-color:#6B4435"/>
	<a:midPointStop  offset="0.7" style="stop-color:#8F604D"/>
</linearGradient>
<path fill="url(#SVGID_3_)" d="M44.388,9.884c1.256-1.794-9.389-5.582-19.438-3.023C14.91,9.16,9.251,24.201,9.251,34.037
	c0.898,0.713,6.396-1.064,7.417-2.233c0.416-1.721,1.071-3.492,1.683-5.328c7.539-4.365,16.07-5.393,21.992-10.617
	c-0.759,2.275,3.256,5.145,5.309,10.617c0.666,1.775,1.262,3.554,1.684,5.328c1.674,1.542,5.014,2.268,7.416,2.233
	C54.751,25.717,48.411,8.723,44.388,9.884z"/>
<path fill="#6B4435" d="M11.059,32.542c6.944-9.247,29.438-8.62,33.329-22.657C36.835,21.666,12.956,23.653,11.059,32.542z"/>
</svg>
