<?xml version="1.0" encoding="utf-8"?>
<!-- Generator: Adobe Illustrator 15.0.0, SVG Export Plug-In . SVG Version: 6.00 Build 0)  -->
<!DOCTYPE svg PUBLIC "-//W3C//DTD SVG 1.1//EN" "http://www.w3.org/Graphics/SVG/1.1/DTD/svg11.dtd" [
	<!ENTITY ns_flows "http://ns.adobe.com/Flows/1.0/">
	<!ENTITY ns_extend "http://ns.adobe.com/Extensibility/1.0/">
	<!ENTITY ns_ai "http://ns.adobe.com/AdobeIllustrator/10.0/">
	<!ENTITY ns_graphs "http://ns.adobe.com/Graphs/1.0/">
]>
<svg version="1.1" id="Layer_1" xmlns:x="&ns_extend;" xmlns:i="&ns_ai;" xmlns:graph="&ns_graphs;"
	 xmlns="http://www.w3.org/2000/svg" xmlns:xlink="http://www.w3.org/1999/xlink" xmlns:a="http://ns.adobe.com/AdobeSVGViewerExtensions/3.0/"
	 x="0px" y="0px" width="64px" height="64px" viewBox="0 0 64 64" enable-background="new 0 0 64 64" xml:space="preserve">
<path fill="#FF7A00" d="M11.432,52.752c2.502-1.365,11.068-4.331,11.068-4.331l18.977-0.037c0,0,8.662,2.995,11.148,4.364
	C56.24,54.732,57,62,57,62H7C7,62,7.807,54.729,11.432,52.752z"/>
<path fill="#ED6A00" d="M16.027,62h-0.695C15.332,56.667,16.027,56.667,16.027,62z"/>
<path fill="#ED6A00" d="M48.666,62h-0.693C47.973,56.667,48.666,56.667,48.666,62z"/>
<path fill="#ED6A00" d="M22.5,48.421c0,8.123,18.977,8.086,18.977-0.037l-1.707-0.601H24.311L22.5,48.421z"/>
<path fill="#E6B045" d="M24,48.011c0,6.358,16,6.358,16,0c0-2.164,0-7.035,0-7.035H24C24,40.976,24,45.847,24,48.011z"/>
<path fill="#473834" d="M47.211,38.785c1.083,0.714,2.331,1.247,3.788,1.521c-2.587-5.888,1.313-18.237-6.682-27.311
	c-11.271,0.337-12.829,36.722,2.882,31.883c-1-0.433-1.628-1.316-1.995-2.43c1.211,0.347,2.626,0.358,4.275-0.148
	C48.167,41.733,47.499,40.399,47.211,38.785z"/>
<path fill="#473834" d="M18.92,12.995c-7.995,9.073-3.334,21.423-5.921,27.311c1.456-0.273,2.706-0.807,3.788-1.521
	c-0.288,1.614-0.957,2.948-2.269,3.515c1.647,0.507,3.063,0.495,4.273,0.148c-0.367,1.113-0.993,1.997-1.993,2.43
	C32.508,49.717,30.191,13.332,18.92,12.995z"/>
<path id="Path_463_" fill="#FFCC66" d="M48.441,25.392c-2.546,0.308-4.383,8.816-2.783,11.061c0.225,0.314,1.536,0.813,2.509-1.168
	c0.538-1.097,2.093-2.012,2.573-4.276C51.358,28.109,50.975,25.085,48.441,25.392z"/>
<path id="Path_462_" fill="#FFCC66" d="M15.558,25.392c2.546,0.308,4.384,8.816,2.782,11.061c-0.224,0.314-1.537,0.813-2.508-1.168
	c-0.539-1.097-2.094-2.012-2.574-4.276C12.641,28.109,13.025,25.085,15.558,25.392z"/>
<path id="Path_461_" fill="#DB9D3A" d="M48.372,27.023c-0.664,0.208-1.389,1.219-1.782,2.896c2.322-0.498,1.742,3.361-0.275,3.435
	c0.018,0.388,0.045,0.788,0.092,1.208c0.973-1.41,1.96-0.844,2.938-2.94C50.226,29.731,50.017,26.508,48.372,27.023z"/>
<path id="Path_460_" fill="#DB9D3A" d="M17.408,29.916c-0.394-1.674-1.116-2.685-1.78-2.892c-1.645-0.516-1.855,2.708-0.975,4.599
	c0.979,2.097,1.966,1.53,2.939,2.94c0.048-0.422,0.074-0.821,0.091-1.209C15.687,33.258,15.115,29.446,17.408,29.916z"/>
<path fill="#FFCC66" d="M31.999,9.035C20.97,9.035,15.657,18,16.321,29.527c0.137,2.317,0.782,5.66,1.58,8.524
	C19.555,44.005,28.282,50,31.999,50c3.716,0,12.443-5.995,14.099-11.948c0.797-2.864,1.442-6.207,1.579-8.524
	C48.34,18,43.029,9.035,31.999,9.035z"/>
<path id="Path_457_" fill="#DB9D3A" d="M34.976,36.108c-0.315-0.22-1.054,0.118-2.977,0.118c-1.921,0-2.66-0.338-2.977-0.118
	c-0.376,0.265,0.225,1.462,2.977,1.462C34.752,37.57,35.354,36.373,34.976,36.108z"/>
<path id="Path_454_" fill="#FFFFFF" d="M29.545,29.085c0.095,0.729-0.401,1.593-1.773,2.241c-0.872,0.412-2.684,0.896-5.065-0.107
	c-1.067-0.448-2.108-1.849-2.015-2.622C21.982,26.167,28.337,25.811,29.545,29.085z"/>
<linearGradient id="Oval_1_" gradientUnits="userSpaceOnUse" x1="-424.582" y1="477.4658" x2="-424.582" y2="478.2246" gradientTransform="matrix(6.5701 0 0 -6.5701 2814.7805 3168.5281)">
	<stop  offset="0" style="stop-color:#A6694A"/>
	<stop  offset="1" style="stop-color:#4F2A1E"/>
	<a:midPointStop  offset="0" style="stop-color:#A6694A"/>
	<a:midPointStop  offset="0.5" style="stop-color:#A6694A"/>
	<a:midPointStop  offset="1" style="stop-color:#4F2A1E"/>
</linearGradient>
<circle id="Oval_60_" fill="url(#Oval_1_)" cx="25.233" cy="29.037" r="2.492"/>
<path id="Path_453_" fill="#1A1626" d="M23.986,28.991c0,1.725,2.497,1.725,2.497,0C26.483,27.391,23.986,27.391,23.986,28.991z"/>
<path id="Path_452_" fill="#AB968C" d="M23.606,28.293c0,0.723,1.046,0.723,1.046,0C24.652,27.623,23.606,27.623,23.606,28.293z"/>
<path id="Path_451_" fill="#DB9D3A" d="M29.557,29.182c-1.013-3.252-7.924-2.772-8.865-0.585
	C21.039,25.796,28.693,25.057,29.557,29.182z"/>
<path id="Path_450_" fill="#FFFFFF" d="M34.453,29.085c-0.095,0.729,0.401,1.593,1.773,2.241c0.872,0.412,2.684,0.896,5.065-0.107
	c1.069-0.448,2.108-1.849,2.015-2.622C42.018,26.167,35.661,25.811,34.453,29.085z"/>
<linearGradient id="Oval_2_" gradientUnits="userSpaceOnUse" x1="-425.23" y1="477.4658" x2="-425.23" y2="478.2246" gradientTransform="matrix(6.5701 0 0 -6.5701 2832.511 3168.5281)">
	<stop  offset="0" style="stop-color:#A6694A"/>
	<stop  offset="1" style="stop-color:#4F2A1E"/>
	<a:midPointStop  offset="0" style="stop-color:#A6694A"/>
	<a:midPointStop  offset="0.5" style="stop-color:#A6694A"/>
	<a:midPointStop  offset="1" style="stop-color:#4F2A1E"/>
</linearGradient>
<circle id="Oval_59_" fill="url(#Oval_2_)" cx="38.709" cy="29.037" r="2.492"/>
<path id="Path_449_" fill="#1A1626" d="M37.461,28.991c0,1.725,2.497,1.725,2.497,0C39.958,27.391,37.461,27.391,37.461,28.991z"/>
<path id="Path_448_" fill="#AB968C" d="M37.082,28.293c0,0.723,1.046,0.723,1.046,0C38.128,27.623,37.082,27.623,37.082,28.293z"/>
<path id="Path_447_" fill="#DB9D3A" d="M34.442,29.182c1.012-3.251,7.919-2.786,8.864-0.585
	C42.957,25.796,35.305,25.057,34.442,29.182z"/>
<path fill="#C1873C" d="M27.384,42.979c2.813-1.717,6.422-1.717,9.232,0c0.398,0.24,0.447-0.02,0.324-0.227
	c-2.08-3.499-7.801-3.499-9.881,0C26.937,42.96,26.983,43.22,27.384,42.979z"/>
<path fill="#966F42" d="M43.237,24.508c-2.637-2.165-7.046,0.862-8.813,0.531c-0.373,0.024-0.017,1.273,0.294,1.254
	c2.426-0.035,6.087-2.917,8.531-0.953C43.57,25.564,43.632,24.813,43.237,24.508z"/>
<path fill="#966F42" d="M20.763,24.508c2.635-2.165,7.044,0.862,8.812,0.531c0.373,0.024,0.019,1.273-0.294,1.254
	c-2.424-0.035-6.085-2.917-8.531-0.953C20.428,25.564,20.366,24.813,20.763,24.508z"/>
<path fill="#DB9D3A" d="M29.632,43.863c1.441-0.822,3.295-0.822,4.738,0c0.203,0.116,0.229-0.009,0.166-0.108
	c-1.068-1.676-4.004-1.676-5.072,0C29.401,43.854,29.425,43.979,29.632,43.863z"/>
<linearGradient id="SVGID_1_" gradientUnits="userSpaceOnUse" x1="31.8354" y1="31.8184" x2="31.8354" y2="6">
	<stop  offset="0" style="stop-color:#473834"/>
	<stop  offset="0.2717" style="stop-color:#594640"/>
	<stop  offset="0.7226" style="stop-color:#715950"/>
	<stop  offset="1" style="stop-color:#7A6056"/>
	<a:midPointStop  offset="0" style="stop-color:#473834"/>
	<a:midPointStop  offset="0.4" style="stop-color:#473834"/>
	<a:midPointStop  offset="1" style="stop-color:#7A6056"/>
</linearGradient>
<path fill="url(#SVGID_1_)" d="M32.001,6c-6.712,0-10.064,3.035-10.744,4.473c-8.113,1.852-10.723,15.515-4.649,21.345
	c0.755-6.211,1.48-10.202,5.617-14.405c2.412,3.227,7.424,5.042,11.91,5.042c-2.124-1.541-3.573-3.051-4.71-4.458
	c7.493,3.433,15.885,5.63,17.968,13.821C54.602,20.359,48.613,6,32.001,6z"/>
<path fill="#473834" d="M21.421,10.472c-0.103,5.72,2.208,10,12.879,11.982C26.649,22.97,18.8,18.348,21.421,10.472z"/>
<path fill="#473834" d="M22.091,17.048c-2.786,2.746-5.913,7.504-5.319,14.769c0.554-6.005,3.313-10.949,5.811-14.153
	C22.405,17.472,22.241,17.266,22.091,17.048z"/>
<path fill="#473834" d="M26.868,15.235c5.595,5.341,19.345,4.994,20.688,16.582C43.969,20.546,31.811,23.075,26.868,15.235z"/>
</svg>
