<?xml version="1.0" encoding="utf-8"?>
<!-- Generator: Adobe Illustrator 15.0.0, SVG Export Plug-In . SVG Version: 6.00 Build 0)  -->
<!DOCTYPE svg PUBLIC "-//W3C//DTD SVG 1.1//EN" "http://www.w3.org/Graphics/SVG/1.1/DTD/svg11.dtd" [
	<!ENTITY ns_flows "http://ns.adobe.com/Flows/1.0/">
	<!ENTITY ns_extend "http://ns.adobe.com/Extensibility/1.0/">
	<!ENTITY ns_ai "http://ns.adobe.com/AdobeIllustrator/10.0/">
	<!ENTITY ns_graphs "http://ns.adobe.com/Graphs/1.0/">
]>
<svg version="1.1" id="Layer_1" xmlns:x="&ns_extend;" xmlns:i="&ns_ai;" xmlns:graph="&ns_graphs;"
	 xmlns="http://www.w3.org/2000/svg" xmlns:xlink="http://www.w3.org/1999/xlink" xmlns:a="http://ns.adobe.com/AdobeSVGViewerExtensions/3.0/"
	 x="0px" y="0px" width="64px" height="64px" viewBox="0 0 64 64" enable-background="new 0 0 64 64" xml:space="preserve">
<path fill="#3B2118" d="M39.582,50.741c15.168-6.066,13.65-20.475,13.65-20.475H10.766c0,0-1.516,14.409,13.648,20.475
	c0,0,3.035,0.759,7.584,0.759C36.549,51.5,39.582,50.741,39.582,50.741z"/>
<linearGradient id="SVGID_1_" gradientUnits="userSpaceOnUse" x1="47.166" y1="51.4971" x2="47.166" y2="6.1151">
	<stop  offset="0.05" style="stop-color:#3B2118"/>
	<stop  offset="0.112" style="stop-color:#40251C"/>
	<stop  offset="0.4761" style="stop-color:#58392F"/>
	<stop  offset="0.7" style="stop-color:#614036"/>
	<a:midPointStop  offset="0.05" style="stop-color:#3B2118"/>
	<a:midPointStop  offset="0.4" style="stop-color:#3B2118"/>
	<a:midPointStop  offset="0.7" style="stop-color:#614036"/>
</linearGradient>
<path fill="url(#SVGID_1_)" d="M47.332,31.804c1.553,6.532,0.734,12.999-7.75,18.937c9.102-1.517,15.168-10.11,15.168-16.704
	L47.332,31.804z"/>
<linearGradient id="SVGID_2_" gradientUnits="userSpaceOnUse" x1="1763.9805" y1="51.4971" x2="1763.9805" y2="6.1151" gradientTransform="matrix(-1 0 0 1 1780.8145 0)">
	<stop  offset="0.05" style="stop-color:#3B2118"/>
	<stop  offset="0.112" style="stop-color:#40251C"/>
	<stop  offset="0.4761" style="stop-color:#58392F"/>
	<stop  offset="0.7" style="stop-color:#614036"/>
	<a:midPointStop  offset="0.05" style="stop-color:#3B2118"/>
	<a:midPointStop  offset="0.4" style="stop-color:#3B2118"/>
	<a:midPointStop  offset="0.7" style="stop-color:#614036"/>
</linearGradient>
<path fill="url(#SVGID_2_)" d="M16.666,31.804c-1.551,6.532-0.732,12.999,7.752,18.937C15.316,49.225,9.25,40.631,9.25,34.037
	L16.666,31.804z"/>
<path fill="#8E3ED6" d="M41,46.953c-3.979-2.102-14.021-2.101-18,0C18.972,49.08,12.725,62,12.725,62h38.551
	C51.275,62,45.027,49.08,41,46.953z"/>
<path fill="#732EB0" d="M23,46.767c0,8.123,18,8.093,18-0.03C41,44.902,23,44.932,23,46.767z"/>
<path fill="#69452D" d="M24.501,46.276c0,6.358,15,6.358,15,0c0-2.164,0-7.035,0-7.035h-15
	C24.501,39.241,24.501,44.112,24.501,46.276z"/>
<path fill="#916B50" d="M32,8.276c-11.006,0-16.307,8.962-15.645,20.485c0.137,2.315,0.781,5.657,1.576,8.519
	C19.582,43.231,28.291,49.225,32,49.225c3.707,0,12.416-5.993,14.068-11.944c0.795-2.862,1.439-6.204,1.574-8.519
	C48.305,17.238,43.006,8.276,32,8.276z"/>
<path fill="#733B2A" d="M31.998,39.869c-2.578-1.134-2.6-0.045-6.58,0.221c1.494,1.698,2.594,3.88,6.578,3.88
	c4.574,0,5.348-2.479,6.586-3.88C34.596,39.824,34.58,38.735,31.998,39.869z"/>
<path fill="#FFFFFF" d="M26.613,40.514c2.6,2.705,8.205,2.669,10.771,0.002C33.383,40.945,30.615,40.945,26.613,40.514z"/>
<path fill="#5E4431" d="M43.693,24.927c-2.391-1.425-6.68-1.601-8.377-0.629c-0.359,0.196-0.264,1.226,0.049,1.097
	c2.42-1.008,6.107-1.058,8.379,0.108C44.049,25.657,44.057,25.134,43.693,24.927z"/>
<path fill="#5E4431" d="M20.305,24.927c2.391-1.425,6.678-1.601,8.379-0.629c0.359,0.196,0.264,1.226-0.049,1.097
	c-2.422-1.008-6.105-1.06-8.381,0.108C19.949,25.657,19.943,25.134,20.305,24.927z"/>
<path fill="#69452D" d="M34.473,36.213c-0.262-0.184-0.877,0.099-2.475,0.099s-2.211-0.282-2.473-0.099
	c-0.314,0.221,0.184,1.217,2.473,1.217S34.789,36.435,34.473,36.213z"/>
<path id="Path_2006_" fill="#FFFFFF" d="M29.551,29.25c0.094,0.727-0.4,1.591-1.77,2.238c-0.869,0.411-2.678,0.896-5.055-0.107
	c-1.066-0.448-2.104-1.847-2.01-2.62C22.004,26.333,28.346,25.977,29.551,29.25z"/>
<linearGradient id="Oval_1_" gradientUnits="userSpaceOnUse" x1="-424.5796" y1="477.4404" x2="-424.5796" y2="478.1992" gradientTransform="matrix(6.5701 0 0 -6.5701 2814.7805 3168.5281)">
	<stop  offset="0" style="stop-color:#A6694A"/>
	<stop  offset="1" style="stop-color:#4F2A1E"/>
	<a:midPointStop  offset="0" style="stop-color:#A6694A"/>
	<a:midPointStop  offset="0.5" style="stop-color:#A6694A"/>
	<a:midPointStop  offset="1" style="stop-color:#4F2A1E"/>
</linearGradient>
<circle id="Oval_272_" fill="url(#Oval_1_)" cx="25.248" cy="29.201" r="2.49"/>
<path id="Path_2005_" fill="#1A1626" d="M24.004,29.156c0,1.723,2.492,1.723,2.492,0C26.496,27.556,24.004,27.556,24.004,29.156z"/>
<path id="Path_2004_" fill="#AB968C" d="M23.625,28.458c0,0.723,1.045,0.723,1.045,0C24.67,27.789,23.625,27.789,23.625,28.458z"/>
<path id="Path_2003_" fill="#45332C" d="M29.563,29.346c-1.012-3.251-7.908-2.771-8.846-0.585
	C21.064,25.962,28.701,25.223,29.563,29.346z"/>
<path id="Path_2002_" fill="#FFFFFF" d="M34.447,29.25c-0.092,0.727,0.402,1.591,1.771,2.238c0.869,0.411,2.678,0.896,5.055-0.107
	c1.066-0.448,2.104-1.847,2.01-2.62C41.996,26.333,35.654,25.977,34.447,29.25z"/>
<linearGradient id="Oval_2_" gradientUnits="userSpaceOnUse" x1="-425.2319" y1="477.4404" x2="-425.2319" y2="478.1992" gradientTransform="matrix(6.5701 0 0 -6.5701 2832.511 3168.5281)">
	<stop  offset="0" style="stop-color:#A6694A"/>
	<stop  offset="1" style="stop-color:#4F2A1E"/>
	<a:midPointStop  offset="0" style="stop-color:#A6694A"/>
	<a:midPointStop  offset="0.5" style="stop-color:#A6694A"/>
	<a:midPointStop  offset="1" style="stop-color:#4F2A1E"/>
</linearGradient>
<circle id="Oval_271_" fill="url(#Oval_2_)" cx="38.693" cy="29.201" r="2.49"/>
<path id="Path_2001_" fill="#1A1626" d="M37.449,29.156c0,1.723,2.492,1.723,2.492,0C39.941,27.556,37.449,27.556,37.449,29.156z"/>
<path id="Path_2000_" fill="#AB968C" d="M37.07,28.458c0,0.723,1.045,0.723,1.045,0C38.115,27.789,37.07,27.789,37.07,28.458z"/>
<path id="Path_1999_" fill="#45332C" d="M34.438,29.346c1.01-3.249,7.902-2.784,8.846-0.585
	C42.934,25.962,35.299,25.223,34.438,29.346z"/>
<linearGradient id="SVGID_3_" gradientUnits="userSpaceOnUse" x1="32.0005" y1="51.4971" x2="32.0005" y2="6.1131">
	<stop  offset="0.05" style="stop-color:#3B2118"/>
	<stop  offset="0.112" style="stop-color:#40251C"/>
	<stop  offset="0.4761" style="stop-color:#58392F"/>
	<stop  offset="0.7" style="stop-color:#614036"/>
	<a:midPointStop  offset="0.05" style="stop-color:#3B2118"/>
	<a:midPointStop  offset="0.4" style="stop-color:#3B2118"/>
	<a:midPointStop  offset="0.7" style="stop-color:#614036"/>
</linearGradient>
<path fill="url(#SVGID_3_)" d="M44.385,9.884c1.258-1.794-9.387-5.582-19.438-3.023C14.908,9.16,9.25,24.201,9.25,34.037
	c0.898,0.713,6.396-1.064,7.416-2.233c0.416-1.721,1.072-3.492,1.684-5.328c7.539-4.365,16.07-5.393,21.992-10.617
	c-0.76,2.275,3.256,5.145,5.309,10.617c0.666,1.775,1.26,3.554,1.682,5.328c1.674,1.541,5.014,2.267,7.418,2.233
	C54.75,25.717,48.408,8.723,44.385,9.884z"/>
<path fill="#3B2118" d="M11.057,32.542c6.945-9.247,29.439-8.62,33.328-22.657C36.834,21.666,12.955,23.653,11.057,32.542z"/>
<path fill="#8E3ED6" d="M23.026,46.664c-1.432-1.289-5.224-1.559-6.536-2.694c-2.658-2.301-6.006-10.745-6.006-12.044
	c0-4.252,2.84-15.27,6.631-20.56c1.25-1.743-5.448-6.92-6.752-5.215C1.57,17.646,0,28.973,0,33.48C0,37.953,12.725,62,12.725,62
	S23,50.741,23.026,46.664z"/>
<path fill="#916B50" d="M20.234,0.546c-1.842,0.281-6.939,3.252-8.623,5.781c-0.922,1.385,3.74,4.527,5.101,3.629
	c4.103-2.707,2.708-5.316,7.71-6.313c5.987-1.194,7.704-1.865,7.704-3.255C32.126-0.226,24.223-0.065,20.234,0.546z"/>
<path fill="#8E3ED6" d="M51.275,62C51.275,62,64,37.953,64,33.48c0-4.508-1.57-15.834-10.363-27.33
	c-1.304-1.705-8.002,3.472-6.752,5.215c3.791,5.29,6.631,16.308,6.631,20.56c0,1.299-3.348,9.744-6.006,12.044
	c-1.313,1.136-5.104,1.405-6.536,2.694C41,50.741,51.275,62,51.275,62z"/>
<path fill="#916B50" d="M31.874,0.389c0,1.39,1.717,2.061,7.704,3.255c5.002,0.997,3.607,3.606,7.71,6.313
	c1.36,0.898,6.022-2.244,5.101-3.629c-1.684-2.529-6.781-5.5-8.623-5.781C39.777-0.065,31.874-0.226,31.874,0.389z"/>
</svg>
