<?xml version="1.0" encoding="utf-8"?>
<!-- Generator: Adobe Illustrator 15.0.0, SVG Export Plug-In . SVG Version: 6.00 Build 0)  -->
<!DOCTYPE svg PUBLIC "-//W3C//DTD SVG 1.1//EN" "http://www.w3.org/Graphics/SVG/1.1/DTD/svg11.dtd" [
	<!ENTITY ns_flows "http://ns.adobe.com/Flows/1.0/">
	<!ENTITY ns_extend "http://ns.adobe.com/Extensibility/1.0/">
	<!ENTITY ns_ai "http://ns.adobe.com/AdobeIllustrator/10.0/">
	<!ENTITY ns_graphs "http://ns.adobe.com/Graphs/1.0/">
]>
<svg version="1.1" id="Layer_1" xmlns:x="&ns_extend;" xmlns:i="&ns_ai;" xmlns:graph="&ns_graphs;"
	 xmlns="http://www.w3.org/2000/svg" xmlns:xlink="http://www.w3.org/1999/xlink" xmlns:a="http://ns.adobe.com/AdobeSVGViewerExtensions/3.0/"
	 x="0px" y="0px" width="64px" height="64px" viewBox="0 0 64 64" enable-background="new 0 0 64 64" xml:space="preserve">
<path fill="#3AB0A2" d="M9.787,52.752c2.701-1.365,11.711-4.251,11.711-4.251l21-0.031c0,0,9.092,2.909,11.777,4.278
	C58.18,54.732,59,62,59,62H5C5,62,5.871,54.729,9.787,52.752z"/>
<path fill="#2B998D" d="M14.75,62H14C14,56.667,14.75,56.667,14.75,62z"/>
<path fill="#2B998D" d="M50,62h-0.75C49.25,56.667,50,56.667,50,62z"/>
<path fill="#2B998D" d="M21.498,48.501c0,8.123,21,8.092,21-0.031l-2.107-0.687H23.695L21.498,48.501z"/>
<path fill="#8C5F44" d="M23,48.011c0,6.358,18,6.358,18,0c0-2.164,0-7.035,0-7.035H23C23,40.976,23,45.847,23,48.011z"/>
<path id="Path_1774_" fill="#B88A6F" d="M48.439,25.394c-2.545,0.307-4.383,8.814-2.781,11.061c0.225,0.313,1.535,0.814,2.508-1.168
	c0.539-1.098,2.092-2.014,2.574-4.277C51.357,28.108,50.973,25.087,48.439,25.394z"/>
<path id="Path_1773_" fill="#B88A6F" d="M15.559,25.394c2.545,0.307,4.383,8.814,2.781,11.061c-0.225,0.313-1.535,0.814-2.51-1.168
	c-0.537-1.098-2.092-2.014-2.572-4.277C12.639,28.108,13.025,25.087,15.559,25.394z"/>
<path id="Path_1772_" fill="#8C5F44" d="M48.371,27.022c-0.664,0.209-1.389,1.221-1.781,2.898c2.32-0.498,1.74,3.361-0.277,3.434
	c0.02,0.389,0.045,0.787,0.094,1.207c0.971-1.408,1.959-0.844,2.938-2.939C50.225,29.733,50.016,26.509,48.371,27.022z"/>
<path id="Path_1771_" fill="#8C5F44" d="M17.408,29.917c-0.395-1.676-1.117-2.686-1.781-2.895c-1.643-0.514-1.855,2.711-0.973,4.6
	c0.979,2.096,1.967,1.531,2.939,2.939c0.047-0.42,0.074-0.82,0.09-1.209C15.688,33.259,15.115,29.446,17.408,29.917z"/>
<path id="Path_1770_" fill="#B88A6F" d="M31.998,9.034c-11.027,0-16.34,8.328-15.676,19.908c0.133,2.33,1.582,9.93,2.947,12.656
	c1.398,2.789,6.074,7.09,8.938,7.98c1.811,0.561,5.773,0.561,7.582,0c2.865-0.891,7.543-5.191,8.939-7.98
	c1.369-2.727,2.814-10.324,2.945-12.656C48.342,17.362,43.029,9.034,31.998,9.034z"/>
<path id="Path_1769_" fill="#8C5F44" d="M34.975,36.108c-0.314-0.219-1.053,0.119-2.977,0.119c-1.92,0-2.66-0.338-2.975-0.119
	c-0.377,0.266,0.223,1.461,2.975,1.461C34.752,37.569,35.354,36.374,34.975,36.108z"/>
<path id="Path_1768_" fill="#FFFFFF" d="M29.545,29.085c0.094,0.73-0.402,1.594-1.773,2.242c-0.871,0.412-2.686,0.896-5.066-0.107
	c-1.066-0.449-2.107-1.848-2.014-2.623C21.982,26.167,28.336,25.812,29.545,29.085z"/>
<linearGradient id="Oval_1_" gradientUnits="userSpaceOnUse" x1="-424.582" y1="477.4121" x2="-424.582" y2="478.1699" gradientTransform="matrix(6.5701 0 0 -6.5701 2814.7805 3168.5281)">
	<stop  offset="0" style="stop-color:#A6694A"/>
	<stop  offset="1" style="stop-color:#4F2A1E"/>
	<a:midPointStop  offset="0" style="stop-color:#A6694A"/>
	<a:midPointStop  offset="0.5" style="stop-color:#A6694A"/>
	<a:midPointStop  offset="1" style="stop-color:#4F2A1E"/>
</linearGradient>
<circle id="Oval_240_" fill="url(#Oval_1_)" cx="25.234" cy="29.391" r="2.492"/>
<path id="Path_1767_" fill="#1A1626" d="M23.986,29.344c0,1.725,2.496,1.725,2.496,0C26.482,27.744,23.986,27.744,23.986,29.344z"/>
<path id="Path_1766_" fill="#AB968C" d="M23.607,28.645c0,0.723,1.045,0.723,1.045,0C24.652,27.977,23.607,27.977,23.607,28.645z"/>
<path id="Path_1765_" fill="#8C5F44" d="M29.557,29.181c-1.014-3.25-7.926-2.77-8.865-0.584
	C21.039,25.798,28.693,25.058,29.557,29.181z"/>
<path id="Path_1764_" fill="#FFFFFF" d="M34.453,29.085c-0.094,0.73,0.4,1.594,1.773,2.242c0.871,0.412,2.684,0.896,5.064-0.107
	c1.07-0.449,2.109-1.848,2.016-2.623C42.016,26.167,35.66,25.812,34.453,29.085z"/>
<linearGradient id="Oval_2_" gradientUnits="userSpaceOnUse" x1="-425.23" y1="477.4121" x2="-425.23" y2="478.1699" gradientTransform="matrix(6.5701 0 0 -6.5701 2832.511 3168.5281)">
	<stop  offset="0" style="stop-color:#A6694A"/>
	<stop  offset="1" style="stop-color:#4F2A1E"/>
	<a:midPointStop  offset="0" style="stop-color:#A6694A"/>
	<a:midPointStop  offset="0.5" style="stop-color:#A6694A"/>
	<a:midPointStop  offset="1" style="stop-color:#4F2A1E"/>
</linearGradient>
<circle id="Oval_239_" fill="url(#Oval_2_)" cx="38.707" cy="29.391" r="2.492"/>
<path id="Path_1763_" fill="#1A1626" d="M37.461,29.344c0,1.725,2.496,1.725,2.496,0C39.957,27.744,37.461,27.744,37.461,29.344z"/>
<path id="Path_1762_" fill="#AB968C" d="M37.08,28.645c0,0.723,1.047,0.723,1.047,0C38.127,27.977,37.08,27.977,37.08,28.645z"/>
<path id="Path_1761_" fill="#8C5F44" d="M34.441,29.181c1.012-3.248,7.92-2.783,8.865-0.584
	C42.955,25.798,35.305,25.058,34.441,29.181z"/>
<path fill="#8F604D" d="M46.084,11.793C43.67,8.532,39.252,6,31.998,6c-7.252,0-11.668,2.532-14.082,5.793
	C14.498,16.409,49.5,16.409,46.084,11.793z"/>
<linearGradient id="SVGID_1_" gradientUnits="userSpaceOnUse" x1="31.9995" y1="31.792" x2="31.9995" y2="10.4116">
	<stop  offset="0.5" style="stop-color:#6B4435"/>
	<stop  offset="0.6793" style="stop-color:#744B3B"/>
	<stop  offset="0.9708" style="stop-color:#8C5E4B"/>
	<stop  offset="1" style="stop-color:#8F604D"/>
	<a:midPointStop  offset="0.5" style="stop-color:#6B4435"/>
	<a:midPointStop  offset="0.6" style="stop-color:#6B4435"/>
	<a:midPointStop  offset="1" style="stop-color:#8F604D"/>
</linearGradient>
<path fill="url(#SVGID_1_)" d="M46.084,11.793c-2.414-3.261-6.832,0.275-14.086,0.275c-7.252,0-11.668-3.536-14.082-0.275
	c-3.418,4.616-2.258,19.999-0.736,19.999c0.24,0,0.275-5.381,0.736-9.104c0.373-3.029,1.094-5.969,1.924-6.449
	c2.531-1.467,7.412,0.631,12.158,0.631s9.629-2.098,12.162-0.631c0.828,0.48,1.547,3.42,1.924,6.449
	c0.459,3.723,0.494,9.104,0.734,9.104C48.34,31.792,49.5,16.409,46.084,11.793z"/>
<path fill="#854F34" d="M27.385,42.979c2.813-1.717,6.422-1.717,9.232,0c0.398,0.241,0.447-0.019,0.324-0.227
	c-2.08-3.498-7.801-3.498-9.881,0C26.938,42.96,26.984,43.22,27.385,42.979z"/>
<path fill="#78513A" d="M44.146,25.833c-1.736-2.937-6.914-1.6-8.463-2.516c-0.359-0.105-0.451,1.19-0.152,1.279
	c2.291,0.797,6.717-0.659,8.342,2.022C44.1,26.939,44.414,26.254,44.146,25.833z"/>
<path fill="#78513A" d="M19.855,25.832c1.736-2.936,6.914-1.599,8.461-2.515c0.359-0.105,0.453,1.189,0.154,1.279
	c-2.291,0.796-6.717-0.659-8.344,2.022C19.902,26.939,19.588,26.254,19.855,25.832z"/>
<rect x="18.705" y="31.301" fill="#B88A6F" width="26.588" height="2.48"/>
</svg>
