<?xml version="1.0" encoding="utf-8"?>
<!-- Generator: Adobe Illustrator 15.0.0, SVG Export Plug-In . SVG Version: 6.00 Build 0)  -->
<!DOCTYPE svg PUBLIC "-//W3C//DTD SVG 1.1//EN" "http://www.w3.org/Graphics/SVG/1.1/DTD/svg11.dtd" [
	<!ENTITY ns_flows "http://ns.adobe.com/Flows/1.0/">
	<!ENTITY ns_extend "http://ns.adobe.com/Extensibility/1.0/">
	<!ENTITY ns_ai "http://ns.adobe.com/AdobeIllustrator/10.0/">
	<!ENTITY ns_graphs "http://ns.adobe.com/Graphs/1.0/">
]>
<svg version="1.1" id="Layer_1" xmlns:x="&ns_extend;" xmlns:i="&ns_ai;" xmlns:graph="&ns_graphs;"
	 xmlns="http://www.w3.org/2000/svg" xmlns:xlink="http://www.w3.org/1999/xlink" xmlns:a="http://ns.adobe.com/AdobeSVGViewerExtensions/3.0/"
	 x="0px" y="0px" width="64px" height="64px" viewBox="0 0 64 64" enable-background="new 0 0 64 64" xml:space="preserve">
<path id="Path_2159_" fill="#916B50" d="M48.44,25.394c-2.545,0.307-4.383,8.814-2.781,11.061c0.225,0.313,1.535,0.814,2.508-1.168
	c0.539-1.098,2.092-2.014,2.574-4.277C51.358,28.108,50.974,25.087,48.44,25.394z"/>
<path id="Path_2158_" fill="#916B50" d="M15.56,25.394c2.545,0.307,4.383,8.814,2.781,11.061c-0.225,0.313-1.535,0.814-2.51-1.168
	c-0.537-1.098-2.092-2.014-2.572-4.277C12.64,28.108,13.026,25.087,15.56,25.394z"/>
<path id="Path_2157_" fill="#69452D" d="M48.372,27.022c-0.664,0.209-1.389,1.221-1.781,2.898c2.32-0.498,1.74,3.361-0.277,3.434
	c0.02,0.389,0.045,0.787,0.094,1.207c0.971-1.408,1.959-0.844,2.938-2.939C50.226,29.733,50.017,26.509,48.372,27.022z"/>
<path id="Path_2156_" fill="#69452D" d="M17.409,29.917c-0.395-1.676-1.117-2.686-1.781-2.895c-1.643-0.514-1.855,2.711-0.973,4.6
	c0.979,2.096,1.967,1.531,2.939,2.939c0.047-0.42,0.074-0.82,0.09-1.209C15.688,33.259,15.116,29.446,17.409,29.917z"/>
<path id="Path_2155_" fill="#916B50" d="M31.999,9.034c-11.027,0-16.34,8.328-15.676,19.908c0.133,2.33,1.582,9.93,2.947,12.656
	c1.398,2.789,6.074,7.09,8.938,7.98c1.811,0.561,5.773,0.561,7.582,0c2.865-0.891,7.543-5.191,8.939-7.98
	c1.369-2.727,2.814-10.324,2.945-12.656C48.343,17.362,43.03,9.034,31.999,9.034z"/>
<path id="Path_2154_" fill="#5E4431" d="M43.981,24.544c-2.521-1.336-7.348-1.4-9.146-0.469c-0.387,0.178-0.131,1.441,0.193,1.322
	c2.504-0.99,6.547-1.012,8.893,0.084C44.233,25.624,44.364,24.729,43.981,24.544z"/>
<path id="Path_2153_" fill="#5E4431" d="M20.019,24.544c2.521-1.336,7.346-1.4,9.146-0.469c0.385,0.178,0.131,1.441-0.193,1.322
	c-2.51-0.99-6.547-1.012-8.895,0.084C19.767,25.624,19.638,24.729,20.019,24.544z"/>
<path id="Path_2152_" fill="#69452D" d="M34.976,36.108c-0.314-0.219-1.053,0.119-2.977,0.119c-1.92,0-2.66-0.338-2.975-0.119
	c-0.377,0.266,0.223,1.461,2.975,1.461C34.753,37.569,35.354,36.374,34.976,36.108z"/>
<path id="Path_2151_" fill="#69452D" d="M31.999,40.646c-2.479-0.729-6.154,0.346-6.154,0.346c1.398,1.521,2.424,3.494,6.154,3.494
	c4.275,0,5.002-2.24,6.156-3.494C38.155,40.991,34.479,39.911,31.999,40.646z"/>
<path id="Path_2150_" fill="#FFFFFF" d="M26.767,41.249c2.602,2.176,7.852,2.191,10.467,0
	C34.462,41.366,29.558,41.368,26.767,41.249z"/>
<path id="Path_2149_" fill="#FFFFFF" d="M29.546,29.085c0.094,0.73-0.402,1.594-1.773,2.242c-0.871,0.412-2.686,0.896-5.066-0.107
	c-1.066-0.449-2.107-1.848-2.014-2.623C21.983,26.167,28.337,25.812,29.546,29.085z"/>
<linearGradient id="Oval_1_" gradientUnits="userSpaceOnUse" x1="-424.5815" y1="477.4658" x2="-424.5815" y2="478.2236" gradientTransform="matrix(6.5701 0 0 -6.5701 2814.7805 3168.5281)">
	<stop  offset="0" style="stop-color:#A6694A"/>
	<stop  offset="1" style="stop-color:#4F2A1E"/>
	<a:midPointStop  offset="0" style="stop-color:#A6694A"/>
	<a:midPointStop  offset="0.5" style="stop-color:#A6694A"/>
	<a:midPointStop  offset="1" style="stop-color:#4F2A1E"/>
</linearGradient>
<circle id="Oval_292_" fill="url(#Oval_1_)" cx="25.235" cy="29.038" r="2.492"/>
<path id="Path_2148_" fill="#1A1626" d="M23.987,28.991c0,1.725,2.496,1.725,2.496,0C26.483,27.392,23.987,27.392,23.987,28.991z"/>
<path id="Path_2147_" fill="#AB968C" d="M23.608,28.292c0,0.723,1.045,0.723,1.045,0C24.653,27.624,23.608,27.624,23.608,28.292z"/>
<path id="Path_2146_" fill="#69452D" d="M29.558,29.181c-1.014-3.25-7.926-2.77-8.865-0.584
	C21.04,25.798,28.694,25.058,29.558,29.181z"/>
<path id="Path_2145_" fill="#FFFFFF" d="M34.454,29.085c-0.094,0.73,0.4,1.594,1.773,2.242c0.871,0.412,2.684,0.896,5.064-0.107
	c1.07-0.449,2.109-1.848,2.016-2.623C42.017,26.167,35.661,25.812,34.454,29.085z"/>
<linearGradient id="Oval_2_" gradientUnits="userSpaceOnUse" x1="-425.23" y1="477.4658" x2="-425.23" y2="478.2236" gradientTransform="matrix(6.5701 0 0 -6.5701 2832.511 3168.5281)">
	<stop  offset="0" style="stop-color:#A6694A"/>
	<stop  offset="1" style="stop-color:#4F2A1E"/>
	<a:midPointStop  offset="0" style="stop-color:#A6694A"/>
	<a:midPointStop  offset="0.5" style="stop-color:#A6694A"/>
	<a:midPointStop  offset="1" style="stop-color:#4F2A1E"/>
</linearGradient>
<circle id="Oval_291_" fill="url(#Oval_2_)" cx="38.708" cy="29.038" r="2.492"/>
<path id="Path_2144_" fill="#1A1626" d="M37.462,28.991c0,1.725,2.496,1.725,2.496,0C39.958,27.392,37.462,27.392,37.462,28.991z"/>
<path id="Path_2143_" fill="#AB968C" d="M37.081,28.292c0,0.723,1.047,0.723,1.047,0C38.128,27.624,37.081,27.624,37.081,28.292z"/>
<path id="Path_2142_" fill="#69452D" d="M34.442,29.181c1.012-3.248,7.92-2.783,8.865-0.584
	C42.956,25.798,35.306,25.058,34.442,29.181z"/>
<path fill="#614036" d="M46.085,11.793C43.671,8.532,39.253,6,31.999,6c-7.252,0-11.668,2.532-14.082,5.793
	C14.499,16.409,49.501,16.409,46.085,11.793z"/>
<linearGradient id="SVGID_1_" gradientUnits="userSpaceOnUse" x1="32.0005" y1="31.792" x2="32.0005" y2="10.4116">
	<stop  offset="0.5" style="stop-color:#3B2118"/>
	<stop  offset="0.6722" style="stop-color:#44281F"/>
	<stop  offset="0.9523" style="stop-color:#5C3C32"/>
	<stop  offset="1" style="stop-color:#614036"/>
	<a:midPointStop  offset="0.5" style="stop-color:#3B2118"/>
	<a:midPointStop  offset="0.6" style="stop-color:#3B2118"/>
	<a:midPointStop  offset="1" style="stop-color:#614036"/>
</linearGradient>
<path fill="url(#SVGID_1_)" d="M46.085,11.793c-2.414-3.261-6.832,0.275-14.086,0.275c-7.252,0-11.668-3.536-14.082-0.275
	c-3.418,4.616-2.258,19.999-0.736,19.999c0.24,0,0.275-5.381,0.736-9.104c0.373-3.029,1.094-5.969,1.924-6.449
	c2.531-1.467,7.412,0.631,12.158,0.631s9.629-2.098,12.162-0.631c0.828,0.48,1.547,3.42,1.924,6.449
	c0.459,3.723,0.494,9.104,0.734,9.104C48.341,31.792,49.501,16.409,46.085,11.793z"/>
<path fill="#2B998D" d="M52.526,49.438c-6.625-6.104-35.377-6.715-41.279,0.011C6.286,55.102,12.952,62,12.952,62h37.873
	C50.825,62,58.007,54.488,52.526,49.438z"/>
<path fill="#916B50" d="M5.753,25.305c0.865,0.643,14.594,9.099,14.594,9.099l-1.592,5.394c-4.533-2.541-7.605-5.166-14.197-12.235
	C3.337,26.255,4.296,24.226,5.753,25.305z"/>
<path fill="#916B50" d="M58.218,25.409c-0.877,0.641-14.834,9.099-14.834,9.099l1.621,5.393c4.605-2.541,7.727-5.168,14.43-12.235
	C60.673,26.358,59.7,24.329,58.218,25.409z"/>
<path fill="#3AB0A2" d="M41.271,44.557c2.166-1.844,5.957-5.309,5.957-5.309L44.423,33c0,0-5.217,2.939-12.656,6.342
	C24.327,35.939,19.108,33,19.108,33l-2.807,6.248c0,0,3.793,3.465,5.959,5.309C11.249,49.92,3.944,55.617,10.437,61.076
	c3.979,3.346,11.492-3.016,21.328-9.346c9.834,6.33,17.352,12.69,21.328,9.346C59.587,55.617,52.282,49.92,41.271,44.557z"/>
<linearGradient id="SVGID_2_" gradientUnits="userSpaceOnUse" x1="268.5039" y1="-315.3525" x2="276.6819" y2="-313.6156" gradientTransform="matrix(1 0 0 -1 -236 -260)">
	<stop  offset="0" style="stop-color:#2B998D"/>
	<stop  offset="1" style="stop-color:#3AB0A2"/>
	<a:midPointStop  offset="0" style="stop-color:#2B998D"/>
	<a:midPointStop  offset="0.5" style="stop-color:#2B998D"/>
	<a:midPointStop  offset="1" style="stop-color:#3AB0A2"/>
</linearGradient>
<path fill="url(#SVGID_2_)" d="M31.767,51.73l9.504-7.174l5.773,16.643C47.044,61.199,43.095,59.902,31.767,51.73z"/>
<linearGradient id="SVGID_3_" gradientUnits="userSpaceOnUse" x1="260.1328" y1="-304.8247" x2="260.0526" y2="-300.2797" gradientTransform="matrix(1 0 0 -1 -236 -260)">
	<stop  offset="0" style="stop-color:#2B998D"/>
	<stop  offset="1" style="stop-color:#3AB0A2"/>
	<a:midPointStop  offset="0" style="stop-color:#2B998D"/>
	<a:midPointStop  offset="0.5" style="stop-color:#2B998D"/>
	<a:midPointStop  offset="1" style="stop-color:#3AB0A2"/>
</linearGradient>
<path fill="url(#SVGID_3_)" d="M22.263,44.557l9.504-5.215l-15.463-0.094C16.304,39.248,19.3,42.238,22.263,44.557z"/>
</svg>
