<?xml version="1.0" encoding="utf-8"?>
<!-- Generator: Adobe Illustrator 15.0.0, SVG Export Plug-In . SVG Version: 6.00 Build 0)  -->
<!DOCTYPE svg PUBLIC "-//W3C//DTD SVG 1.1//EN" "http://www.w3.org/Graphics/SVG/1.1/DTD/svg11.dtd" [
	<!ENTITY ns_flows "http://ns.adobe.com/Flows/1.0/">
	<!ENTITY ns_extend "http://ns.adobe.com/Extensibility/1.0/">
	<!ENTITY ns_ai "http://ns.adobe.com/AdobeIllustrator/10.0/">
	<!ENTITY ns_graphs "http://ns.adobe.com/Graphs/1.0/">
]>
<svg version="1.1" id="Layer_1" xmlns:x="&ns_extend;" xmlns:i="&ns_ai;" xmlns:graph="&ns_graphs;"
	 xmlns="http://www.w3.org/2000/svg" xmlns:xlink="http://www.w3.org/1999/xlink" xmlns:a="http://ns.adobe.com/AdobeSVGViewerExtensions/3.0/"
	 x="0px" y="0px" width="64px" height="64px" viewBox="0 0 64 64" enable-background="new 0 0 64 64" xml:space="preserve">
<path fill="#0FB4D4" d="M39.501,0.079c3.996,1.072-2.166,9.336-2.48,9.252C36.702,9.247,35.497-0.994,39.501,0.079z"/>
<path fill="#0FB4D4" d="M53.636,8.184c2.373,3.389-7.66,5.76-7.848,5.492C45.601,13.407,51.259,4.788,53.636,8.184z"/>
<path fill="#0FB4D4" d="M24.502,0.079c3.995-1.07,2.791,9.168,2.477,9.252C26.662,9.417,20.498,1.151,24.502,0.079z"/>
<path fill="#0FB4D4" d="M10.363,8.18c2.373-3.389,8.033,5.23,7.846,5.496C18.021,13.946,7.986,11.575,10.363,8.18z"/>
<path fill="#2B998D" d="M50.206,32.651c-7.477-3.535-28.936-3.535-36.413,0c-4.849,2.292-9.048,21.836,0.804,27.051h34.807
	C59.255,54.487,55.056,34.942,50.206,32.651z"/>
<path fill="#3AB0A2" d="M10.977,50.255c-0.823,0.322,1.021-1.994,4.64-1.77c5.296-8.281,3.319-19.108-2.177-15.639
	C8.152,36.181,2.672,51.829,4.288,55.272c2.211,4.715,14.063,5.594,14.063,5.594s0.457-3.727,4.363-6.17
	C15.648,50.608,16.123,48.243,10.977,50.255z"/>
<path fill="#FFD8B4" d="M31.142,58.46c1.51-1.031-4.478-3.973-7.89-3.973c-5.041,0-10.096,7.592-1.53,6.564
	c3.751,0.406,5.7,1.848,5.852,0.123c0,0,0.768-0.131,1.598,0.303c0.855,0.453,1.973-0.58,1.244-1.209
	C32.228,60.337,32.077,58.759,31.142,58.46z"/>
<path fill="#DEB38A" d="M23.732,59.204c0,0,5.438,1.051,3.571,2.629C28.15,60.554,23.732,59.204,23.732,59.204z"/>
<path fill="#DEB38A" d="M24.857,57.907c0,0,7.413,1.785,5.546,3.365C31.249,59.993,24.857,57.907,24.857,57.907z"/>
<path fill="#DEB38A" d="M25.878,56.368c0,0,7.453,1.352,5.793,3.459C32.397,58.099,25.878,56.368,25.878,56.368z"/>
<path fill="#3AB0A2" d="M53.022,50.255c0.824,0.322-1.02-1.994-4.639-1.77c-5.297-8.281-3.32-19.108,2.176-15.639
	c5.287,3.334,10.768,18.983,9.152,22.426c-2.211,4.715-14.064,5.594-14.064,5.594s-0.457-3.727-4.363-6.17
	C48.351,50.608,47.876,48.243,53.022,50.255z"/>
<path fill="#FFD8B4" d="M32.858,58.46c-1.512-1.031,4.477-3.973,7.889-3.973c5.041,0,10.096,7.592,1.531,6.564
	c-3.752,0.406-5.701,1.848-5.852,0.123c0,0-0.768-0.131-1.598,0.303c-0.857,0.453-1.973-0.58-1.244-1.209
	C31.772,60.337,31.921,58.759,32.858,58.46z"/>
<path fill="#DEB38A" d="M40.267,59.204c0,0-5.438,1.051-3.57,2.629C35.849,60.554,40.267,59.204,40.267,59.204z"/>
<path fill="#DEB38A" d="M39.142,57.907c0,0-7.412,1.785-5.547,3.365C32.749,59.993,39.142,57.907,39.142,57.907z"/>
<path fill="#DEB38A" d="M38.122,56.368c0,0-7.455,1.352-5.793,3.459C31.603,58.099,38.122,56.368,38.122,56.368z"/>
<path id="Path_836_" fill="#FFD8B4" d="M12.811,36.116c2.35,0.072,4.712,6.982,3.435,8.957c-0.181,0.275-1.337,0.785-2.385-0.787
	c-0.58-0.869-2.072-1.516-2.693-3.355C10.368,38.575,10.477,36.044,12.811,36.116z"/>
<path id="Path_835_" fill="#DEB38A" d="M13.121,38.636c0.622,0.107,1.356,0.814,1.838,2.045c-2.154-0.207-1.343,2.646,0.503,2.557
	c0.013,0.293,0.019,0.594,0.004,0.912c-0.989-0.986-1.849-0.492-2.896-1.996C11.627,40.8,11.583,38.366,13.121,38.636z"/>
<path id="Path_834_" fill="#FFD8B4" d="M51.188,36.116c-2.348,0.072-4.712,6.982-3.431,8.957c0.179,0.275,1.335,0.785,2.384-0.787
	c0.58-0.869,2.071-1.516,2.692-3.355C53.632,38.575,53.523,36.044,51.188,36.116z"/>
<path id="Path_833_" fill="#DEB38A" d="M49.044,40.677c0.48-1.229,1.213-1.934,1.833-2.041c1.54-0.27,1.495,2.164,0.553,3.518
	c-1.045,1.506-1.906,1.01-2.896,1.996c-0.015-0.318-0.009-0.621,0.005-0.914C50.367,43.308,51.168,40.489,49.044,40.677z"/>
<path fill="#FFD8B4" d="M32.002,18.247c-12.354,0-18.306,9.346-17.56,22.34C14.981,50.013,27.114,53.999,32,53.999
	c4.88,0,17.024-3.986,17.559-13.412C50.307,27.592,44.354,18.247,32.002,18.247z"/>
<path id="Path_832_" fill="#DEB38A" d="M34.88,49.593c-0.305-0.213-1.021,0.115-2.88,0.115s-2.575-0.328-2.882-0.115
	c-0.363,0.258,0.219,1.418,2.882,1.418S35.247,49.851,34.88,49.593z"/>
<path id="Path_831_" fill="#FFFFFF" d="M29.337,43.235c0.101,0.793-0.436,1.73-1.926,2.436c-0.946,0.447-2.914,0.975-5.5-0.115
	c-1.159-0.488-2.288-2.012-2.187-2.854C21.126,40.06,28.024,39.673,29.337,43.235z"/>
<linearGradient id="Oval_1_" gradientUnits="userSpaceOnUse" x1="-424.6699" y1="475.2793" x2="-424.6699" y2="476.1045" gradientTransform="matrix(6.5701 0 0 -6.5701 2814.7805 3168.5281)">
	<stop  offset="0" style="stop-color:#A6694A"/>
	<stop  offset="1" style="stop-color:#4F2A1E"/>
	<a:midPointStop  offset="0" style="stop-color:#A6694A"/>
	<a:midPointStop  offset="0.5" style="stop-color:#A6694A"/>
	<a:midPointStop  offset="1" style="stop-color:#4F2A1E"/>
</linearGradient>
<circle id="Oval_114_" fill="url(#Oval_1_)" cx="24.656" cy="43.182" r="2.71"/>
<path id="Path_830_" fill="#1A1626" d="M23.301,43.132c0,1.875,2.71,1.875,2.71,0C26.011,41.392,23.301,41.392,23.301,43.132z"/>
<path id="Path_829_" fill="#AB968C" d="M22.891,42.374c0,0.785,1.136,0.785,1.136,0C24.026,41.644,22.891,41.644,22.891,42.374z"/>
<path id="Path_828_" fill="#DEB38A" d="M29.35,43.341c-1.101-3.539-8.604-3.018-9.625-0.639
	C20.103,39.657,28.412,38.853,29.35,43.341z"/>
<path id="Path_827_" fill="#FFFFFF" d="M34.665,43.235c-0.103,0.793,0.436,1.73,1.926,2.436c0.944,0.447,2.912,0.975,5.5-0.115
	c1.158-0.488,2.287-2.012,2.186-2.854C42.877,40.06,35.976,39.673,34.665,43.235z"/>
<linearGradient id="Oval_2_" gradientUnits="userSpaceOnUse" x1="-425.1421" y1="475.2793" x2="-425.1421" y2="476.1045" gradientTransform="matrix(6.5701 0 0 -6.5701 2832.511 3168.5281)">
	<stop  offset="0" style="stop-color:#A6694A"/>
	<stop  offset="1" style="stop-color:#4F2A1E"/>
	<a:midPointStop  offset="0" style="stop-color:#A6694A"/>
	<a:midPointStop  offset="0.5" style="stop-color:#A6694A"/>
	<a:midPointStop  offset="1" style="stop-color:#4F2A1E"/>
</linearGradient>
<circle id="Oval_113_" fill="url(#Oval_2_)" cx="39.284" cy="43.182" r="2.71"/>
<path id="Path_826_" fill="#1A1626" d="M37.931,43.132c0,1.875,2.71,1.875,2.71,0C40.641,41.392,37.931,41.392,37.931,43.132z"/>
<path id="Path_825_" fill="#AB968C" d="M37.519,42.374c0,0.785,1.135,0.785,1.135,0C38.653,41.644,37.519,41.644,37.519,42.374z"/>
<path id="Path_824_" fill="#DEB38A" d="M34.651,43.341c1.1-3.537,8.598-3.029,9.625-0.639C43.896,39.657,35.59,38.853,34.651,43.341
	z"/>
<path id="Path_823_" fill="#DEB38A" d="M44.451,39.011c-2.331-1.471-7.026-1.898-8.864-1.145c-0.394,0.143-0.265,1.375,0.063,1.285
	c2.534-0.758,6.473-0.475,8.654,0.756C44.596,40.067,44.807,39.218,44.451,39.011z"/>
<path id="Path_822_" fill="#DEB38A" d="M19.548,39.011c2.332-1.471,7.025-1.898,8.867-1.145c0.391,0.143,0.263,1.375-0.063,1.285
	c-2.539-0.758-6.472-0.475-8.658,0.756C19.404,40.067,19.193,39.218,19.548,39.011z"/>
<linearGradient id="SVGID_1_" gradientUnits="userSpaceOnUse" x1="32.0181" y1="41.4971" x2="32.0181" y2="13.999">
	<stop  offset="0" style="stop-color:#1E110E"/>
	<stop  offset="0.2821" style="stop-color:#31211E"/>
	<stop  offset="0.7266" style="stop-color:#493632"/>
	<stop  offset="1" style="stop-color:#523E3A"/>
	<a:midPointStop  offset="0" style="stop-color:#1E110E"/>
	<a:midPointStop  offset="0.4" style="stop-color:#1E110E"/>
	<a:midPointStop  offset="1" style="stop-color:#523E3A"/>
</linearGradient>
<path fill="url(#SVGID_1_)" d="M32.024,13.999c-21.474,0-21.764,23.043-16.784,27.499c0,0,0.527-7.391,5.447-10.868
	c-0.422,1.652-0.415,3.354-0.359,4.842c3.789-1.174,6.591-2.686,8.584-4.567c-0.399,1.98-0.29,3.987-0.223,5.461
	c3.476-1.098,6.651-2.58,8.516-4.754c1.687,1.917,4.114,3.631,6.799,4.553c0.478-1.465,0.661-3.225,0.126-4.856
	c4.173,4.106,4.662,10.178,4.662,10.178C53.771,37.032,53.498,13.999,32.024,13.999z"/>
<path fill="#1E110E" d="M43.735,29.752l0.541,2.079c0,0,2.907,2.38,4.516,9.656C48.371,33.524,43.735,29.752,43.735,29.752z"/>
<path fill="#1E110E" d="M42.788,28.107c0,0,3.271,3.459,1.216,8.058C44.203,32.855,42.788,28.107,42.788,28.107z"/>
<path fill="#1E110E" d="M30.268,28.816c-1.25,5.771-9.939,6.656-9.939,6.656S26.705,32.399,30.268,28.816z"/>
<path fill="#1E110E" d="M38.454,29.003c-1.041,5.854-9.765,7.363-9.765,7.363S35.059,33.111,38.454,29.003z"/>
<path fill="#1E110E" d="M21.309,30c-5.844,6.846-6.068,11.498-6.068,11.498S13.976,34.212,21.309,30z"/>
</svg>
