<?xml version="1.0" encoding="utf-8"?>
<!-- Generator: Adobe Illustrator 15.0.0, SVG Export Plug-In . SVG Version: 6.00 Build 0)  -->
<!DOCTYPE svg PUBLIC "-//W3C//DTD SVG 1.1//EN" "http://www.w3.org/Graphics/SVG/1.1/DTD/svg11.dtd" [
	<!ENTITY ns_flows "http://ns.adobe.com/Flows/1.0/">
	<!ENTITY ns_extend "http://ns.adobe.com/Extensibility/1.0/">
	<!ENTITY ns_ai "http://ns.adobe.com/AdobeIllustrator/10.0/">
	<!ENTITY ns_graphs "http://ns.adobe.com/Graphs/1.0/">
]>
<svg version="1.1" id="Layer_1" xmlns:x="&ns_extend;" xmlns:i="&ns_ai;" xmlns:graph="&ns_graphs;"
	 xmlns="http://www.w3.org/2000/svg" xmlns:xlink="http://www.w3.org/1999/xlink" xmlns:a="http://ns.adobe.com/AdobeSVGViewerExtensions/3.0/"
	 x="0px" y="0px" width="64px" height="64px" viewBox="0 0 64 64" enable-background="new 0 0 64 64" xml:space="preserve">
<path fill="#EDB547" d="M38.719,19.962c-1.053-3.836-2.209-8.424-2.209-14.842c0-3.121-4.51-3.234-4.51,0v14.842H38.719z"/>
<path fill="#D9A640" d="M38.061,20.148c-1.13-4.115-2.232-8.666-2.232-15.022c0-2.329-3.146-2.335-3.146-0.005h-1.363
	c0-4.164,5.873-4.158,5.873,0.005c0,6.187,1.08,10.636,2.184,14.661L38.061,20.148z"/>
<path fill="#018BC9" d="M62,62V48.817c0,0-6.85-4.407-11.021-7.491C48.573,39.548,36.064,49.4,37.428,52.74
	c0.604,1.476,5.568,9.26,5.568,9.26H62z"/>
<radialGradient id="SVGID_1_" cx="41.6426" cy="11.813" r="18.3066" gradientTransform="matrix(1 0 0 1.5779 0 0.7847)" gradientUnits="userSpaceOnUse">
	<stop  offset="0.4364" style="stop-color:#FFCC66"/>
	<stop  offset="0.6631" style="stop-color:#FDCA63"/>
	<stop  offset="0.8319" style="stop-color:#F8C35A"/>
	<stop  offset="0.9819" style="stop-color:#EEB749"/>
	<stop  offset="1" style="stop-color:#EDB547"/>
	<a:midPointStop  offset="0.4364" style="stop-color:#FFCC66"/>
	<a:midPointStop  offset="0.7634" style="stop-color:#FFCC66"/>
	<a:midPointStop  offset="1" style="stop-color:#EDB547"/>
</radialGradient>
<path fill="url(#SVGID_1_)" d="M49.922,42.967c0,0-6.986-5.961-7.34-8.4c-0.482-3.334-0.623-6.162-2.146-10.09
	c-1.477-3.815-2.683-7.939-3.112-14.482C37.023,5.412,32,5.929,32,9.488v37.153c0,0,0.751,1.563,4.668,2.408
	c1.02,0.219,2.199,2.953,2.199,2.953C42.617,52.33,49.771,45.934,49.922,42.967z"/>
<path fill="#D9A640" d="M39.33,51.381c-0.451-0.954-1.42-2.715-2.5-2.947c-3.443-0.742-4.197-2.041-4.207-2.055l-1.22,0.609
	c0.093,0.189,1.016,1.889,5.139,2.777c0.349,0.08,1.185,1.322,1.719,2.559C38.261,52.324,40.644,51.313,39.33,51.381z"/>
<path fill="#D9A640" d="M50.367,42.48c-2.627-2.24-6.879-6.387-7.109-7.979c-0.438-3.043-0.604-6.157-2.187-10.239
	c-1.331-3.439-2.626-7.549-3.067-14.281c-0.346-5.267-6.686-5.234-6.686-0.462h1.363c0-2.92,3.732-2.925,3.961,0.552
	c0.455,6.914,1.787,11.143,3.158,14.683c1.479,3.815,1.695,7.101,2.107,9.943c0.348,2.406,5.832,7.311,7.288,8.576
	C50.064,43.797,50.367,42.48,50.367,42.48z"/>
<path fill="#018BC9" d="M49.531,41.484c-0.34,4.688-7.797,10.443-11.875,9.91C37.324,58.988,59.273,47.787,49.531,41.484z"/>
<rect x="31.318" y="5.121" fill="#D9A640" width="1.363" height="42.245"/>
<path fill="#EDB547" d="M25.283,19.962c1.053-3.836,2.207-8.424,2.207-14.842c0-3.121,4.51-3.234,4.51,0v14.842H25.283z"/>
<path fill="#D9A640" d="M25.939,20.148c1.13-4.115,2.232-8.666,2.232-15.022c0-2.329,3.146-2.335,3.146-0.005h1.363
	c0-4.164-5.873-4.158-5.873,0.005c0,6.187-1.078,10.636-2.184,14.661L25.939,20.148z"/>
<path fill="#018BC9" d="M2,62V48.817c0,0,6.85-4.407,11.021-7.491c2.407-1.778,14.916,8.074,13.551,11.414
	C25.971,54.216,21.004,62,21.004,62H2z"/>
<radialGradient id="SVGID_2_" cx="689.457" cy="11.8125" r="18.3074" gradientTransform="matrix(-1 0 0 1.5779 711.8145 0.785)" gradientUnits="userSpaceOnUse">
	<stop  offset="0.4364" style="stop-color:#FFCC66"/>
	<stop  offset="0.6631" style="stop-color:#FDCA63"/>
	<stop  offset="0.8319" style="stop-color:#F8C35A"/>
	<stop  offset="0.9819" style="stop-color:#EEB749"/>
	<stop  offset="1" style="stop-color:#EDB547"/>
	<a:midPointStop  offset="0.4364" style="stop-color:#FFCC66"/>
	<a:midPointStop  offset="0.7634" style="stop-color:#FFCC66"/>
	<a:midPointStop  offset="1" style="stop-color:#EDB547"/>
</radialGradient>
<path fill="url(#SVGID_2_)" d="M14.078,42.967c0,0,6.988-5.961,7.34-8.4c0.482-3.334,0.625-6.162,2.146-10.09
	c1.479-3.815,2.683-7.939,3.112-14.482C26.979,5.412,32,5.929,32,9.488v37.153c0,0-0.751,1.563-4.668,2.408
	c-1.02,0.219-2.199,2.953-2.199,2.953C21.383,52.33,14.23,45.934,14.078,42.967z"/>
<path fill="#D9A640" d="M24.672,51.381c0.451-0.954,1.419-2.715,2.498-2.947c3.445-0.742,4.199-2.041,4.207-2.055l1.22,0.609
	c-0.091,0.189-1.015,1.889-5.139,2.777c-0.349,0.08-1.183,1.322-1.717,2.559C25.741,52.324,23.358,51.313,24.672,51.381z"/>
<path fill="#D9A640" d="M13.635,42.48c2.627-2.24,6.879-6.387,7.107-7.979c0.439-3.043,0.605-6.157,2.187-10.239
	c1.331-3.439,2.626-7.549,3.067-14.281c0.346-5.267,6.686-5.234,6.686-0.462h-1.363c0-2.92-3.732-2.925-3.961,0.552
	c-0.453,6.914-1.785,11.143-3.158,14.683c-1.477,3.815-1.693,7.101-2.107,9.943c-0.348,2.406-5.83,7.311-7.287,8.576
	C13.938,43.797,13.635,42.48,13.635,42.48z"/>
<path fill="#018BC9" d="M14.47,41.484c0.341,4.688,7.798,10.443,11.875,9.91C26.677,58.988,4.727,47.787,14.47,41.484z"/>
<rect x="31.318" y="5.121" fill="#D9A640" width="1.363" height="42.245"/>
</svg>
