<?xml version="1.0" encoding="utf-8"?>
<!-- Generator: Adobe Illustrator 15.0.0, SVG Export Plug-In . SVG Version: 6.00 Build 0)  -->
<!DOCTYPE svg PUBLIC "-//W3C//DTD SVG 1.1//EN" "http://www.w3.org/Graphics/SVG/1.1/DTD/svg11.dtd" [
	<!ENTITY ns_flows "http://ns.adobe.com/Flows/1.0/">
	<!ENTITY ns_extend "http://ns.adobe.com/Extensibility/1.0/">
	<!ENTITY ns_ai "http://ns.adobe.com/AdobeIllustrator/10.0/">
	<!ENTITY ns_graphs "http://ns.adobe.com/Graphs/1.0/">
]>
<svg version="1.1" id="Layer_1" xmlns:x="&ns_extend;" xmlns:i="&ns_ai;" xmlns:graph="&ns_graphs;"
	 xmlns="http://www.w3.org/2000/svg" xmlns:xlink="http://www.w3.org/1999/xlink" xmlns:a="http://ns.adobe.com/AdobeSVGViewerExtensions/3.0/"
	 x="0px" y="0px" width="64px" height="64px" viewBox="0 0 64 64" enable-background="new 0 0 64 64" xml:space="preserve">
<path fill="#BA9757" d="M44.786,50.741c15.168-6.066,13.65-20.476,13.65-20.476H15.97c0,0-1.516,14.41,13.648,20.476
	c0,0,3.035,0.759,7.583,0.759C41.753,51.5,44.786,50.741,44.786,50.741z"/>
<linearGradient id="SVGID_1_" gradientUnits="userSpaceOnUse" x1="52.3701" y1="51.4971" x2="52.3701" y2="6.1128">
	<stop  offset="0.05" style="stop-color:#BA9757"/>
	<stop  offset="0.1973" style="stop-color:#C6A265"/>
	<stop  offset="0.5085" style="stop-color:#DBB77D"/>
	<stop  offset="0.7" style="stop-color:#E3BE86"/>
	<a:midPointStop  offset="0.05" style="stop-color:#BA9757"/>
	<a:midPointStop  offset="0.4" style="stop-color:#BA9757"/>
	<a:midPointStop  offset="0.7" style="stop-color:#E3BE86"/>
</linearGradient>
<path fill="url(#SVGID_1_)" d="M52.536,31.803c1.553,6.533,0.734,13-7.75,18.938c9.102-1.517,15.168-10.11,15.168-16.704
	L52.536,31.803z"/>
<linearGradient id="SVGID_2_" gradientUnits="userSpaceOnUse" x1="1758.7754" y1="51.4971" x2="1758.7754" y2="6.1128" gradientTransform="matrix(-1 0 0 1 1780.8145 0)">
	<stop  offset="0.05" style="stop-color:#BA9757"/>
	<stop  offset="0.1973" style="stop-color:#C6A265"/>
	<stop  offset="0.5085" style="stop-color:#DBB77D"/>
	<stop  offset="0.7" style="stop-color:#E3BE86"/>
	<a:midPointStop  offset="0.05" style="stop-color:#BA9757"/>
	<a:midPointStop  offset="0.4" style="stop-color:#BA9757"/>
	<a:midPointStop  offset="0.7" style="stop-color:#E3BE86"/>
</linearGradient>
<path fill="url(#SVGID_2_)" d="M21.871,31.803c-1.551,6.533-0.732,13,7.752,18.938c-9.102-1.517-15.168-10.11-15.168-16.704
	L21.871,31.803z"/>
<path fill="#8E3ED6" d="M17.458,52.752c2.402-1.365,10.746-4.39,10.746-4.39h18c0,0,8.412,3.017,10.801,4.386
	C60.474,54.732,61.204,62,61.204,62h-44C17.205,62,13.978,54.729,17.458,52.752z"/>
<path fill="#732EB0" d="M53.204,62h-0.668C52.536,56.667,53.204,56.667,53.204,62z"/>
<path fill="#732EB0" d="M28.205,48.362c0,8.123,18,8.123,18,0l-1.543-0.536H29.705L28.205,48.362z"/>
<path fill="#C99B71" d="M29.705,48.011c0,6.358,15,6.358,15,0c0-2.164,0-7.035,0-7.035h-15
	C29.705,40.976,29.705,45.847,29.705,48.011z"/>
<path fill="#EBC199" d="M37.204,8.275c-11.005,0-16.306,8.962-15.644,20.485c0.137,2.315,0.781,5.658,1.576,8.52
	c1.65,5.951,10.359,11.944,14.068,11.944c3.707,0,12.416-5.993,14.068-11.944c0.795-2.862,1.439-6.205,1.574-8.52
	C53.509,17.237,48.21,8.275,37.204,8.275z"/>
<path fill="#C98655" d="M37.202,39.869c-2.578-1.134-2.6-0.045-6.58,0.221c1.494,1.698,2.593,3.88,6.578,3.88
	c4.574,0,5.348-2.479,6.586-3.88C39.8,39.824,39.784,38.735,37.202,39.869z"/>
<path fill="#FFFFFF" d="M31.818,40.514c2.599,2.705,8.205,2.669,10.771,0.002C38.587,40.945,35.819,40.945,31.818,40.514z"/>
<path fill="#A17C5B" d="M48.897,24.926c-2.391-1.425-6.68-1.601-8.377-0.629c-0.359,0.196-0.264,1.226,0.049,1.097
	c2.42-1.008,6.107-1.058,8.379,0.108C49.253,25.656,49.261,25.133,48.897,24.926z"/>
<path fill="#A17C5B" d="M25.509,24.926c2.391-1.425,6.678-1.601,8.378-0.629c0.359,0.196,0.264,1.226-0.049,1.097
	c-2.421-1.008-6.105-1.06-8.38,0.108C25.154,25.656,25.148,25.133,25.509,24.926z"/>
<path fill="#C99B71" d="M39.677,36.213c-0.262-0.184-0.877,0.099-2.475,0.099s-2.211-0.282-2.473-0.099
	c-0.314,0.221,0.184,1.217,2.473,1.217S39.993,36.435,39.677,36.213z"/>
<path id="Path_1098_" fill="#FFFFFF" d="M34.755,29.25c0.094,0.727-0.4,1.591-1.769,2.238c-0.869,0.411-2.678,0.896-5.055-0.107
	c-1.066-0.448-2.104-1.847-2.01-2.62C27.208,26.332,33.55,25.976,34.755,29.25z"/>
<linearGradient id="Oval_1_" gradientUnits="userSpaceOnUse" x1="-423.7876" y1="477.4414" x2="-423.7876" y2="478.1992" gradientTransform="matrix(6.5701 0 0 -6.5701 2814.7805 3168.5281)">
	<stop  offset="0" style="stop-color:#A6694A"/>
	<stop  offset="1" style="stop-color:#4F2A1E"/>
	<a:midPointStop  offset="0" style="stop-color:#A6694A"/>
	<a:midPointStop  offset="0.5" style="stop-color:#A6694A"/>
	<a:midPointStop  offset="1" style="stop-color:#4F2A1E"/>
</linearGradient>
<circle id="Oval_148_" fill="url(#Oval_1_)" cx="30.453" cy="29.2" r="2.49"/>
<path id="Path_1097_" fill="#1A1626" d="M29.208,29.155c0,1.723,2.492,1.723,2.492,0C31.701,27.555,29.208,27.555,29.208,29.155z"/>
<path id="Path_1096_" fill="#AB968C" d="M28.83,28.457c0,0.723,1.045,0.723,1.045,0C29.875,27.788,28.83,27.788,28.83,28.457z"/>
<path id="Path_1095_" fill="#45332C" d="M34.767,29.345c-1.012-3.251-7.908-2.771-8.845-0.585
	C26.269,25.961,33.905,25.222,34.767,29.345z"/>
<path id="Path_1094_" fill="#FFFFFF" d="M39.651,29.25c-0.092,0.727,0.402,1.591,1.771,2.238c0.869,0.411,2.678,0.896,5.055-0.107
	c1.066-0.448,2.104-1.847,2.01-2.62C47.2,26.332,40.858,25.976,39.651,29.25z"/>
<linearGradient id="Oval_2_" gradientUnits="userSpaceOnUse" x1="-424.4399" y1="477.4414" x2="-424.4399" y2="478.1992" gradientTransform="matrix(6.5701 0 0 -6.5701 2832.511 3168.5281)">
	<stop  offset="0" style="stop-color:#A6694A"/>
	<stop  offset="1" style="stop-color:#4F2A1E"/>
	<a:midPointStop  offset="0" style="stop-color:#A6694A"/>
	<a:midPointStop  offset="0.5" style="stop-color:#A6694A"/>
	<a:midPointStop  offset="1" style="stop-color:#4F2A1E"/>
</linearGradient>
<circle id="Oval_147_" fill="url(#Oval_2_)" cx="43.897" cy="29.2" r="2.49"/>
<path id="Path_1093_" fill="#1A1626" d="M42.653,29.155c0,1.723,2.492,1.723,2.492,0C45.146,27.555,42.653,27.555,42.653,29.155z"/>
<path id="Path_1092_" fill="#AB968C" d="M42.274,28.457c0,0.723,1.045,0.723,1.045,0C43.319,27.788,42.274,27.788,42.274,28.457z"/>
<path id="Path_1091_" fill="#45332C" d="M39.642,29.345c1.01-3.249,7.902-2.784,8.846-0.585
	C48.138,25.961,40.503,25.222,39.642,29.345z"/>
<linearGradient id="SVGID_3_" gradientUnits="userSpaceOnUse" x1="37.2041" y1="51.498" x2="37.2041" y2="6.1126">
	<stop  offset="0.05" style="stop-color:#BA9757"/>
	<stop  offset="0.1973" style="stop-color:#C6A265"/>
	<stop  offset="0.5085" style="stop-color:#DBB77D"/>
	<stop  offset="0.7" style="stop-color:#E3BE86"/>
	<a:midPointStop  offset="0.05" style="stop-color:#BA9757"/>
	<a:midPointStop  offset="0.4" style="stop-color:#BA9757"/>
	<a:midPointStop  offset="0.7" style="stop-color:#E3BE86"/>
</linearGradient>
<path fill="url(#SVGID_3_)" d="M49.589,9.883c1.258-1.794-9.387-5.582-19.437-3.023C20.113,9.159,14.455,24.2,14.455,34.037
	c0.898,0.713,6.396-1.065,7.416-2.234c0.416-1.721,1.072-3.492,1.684-5.328c7.539-4.365,16.07-5.393,21.992-10.617
	c-0.76,2.275,3.256,5.145,5.309,10.617c0.666,1.775,1.26,3.554,1.682,5.328c1.674,1.542,5.014,2.268,7.418,2.234
	C59.954,25.716,53.612,8.722,49.589,9.883z"/>
<path fill="#BA9757" d="M16.261,32.541c6.945-9.247,29.439-8.62,33.328-22.657C42.038,21.665,18.16,23.652,16.261,32.541z"/>
<path fill="#8E3ED6" d="M6.345,22.441c0.357-1.523,9.52-1.535,9.277,0.36c-0.811,6.423,0.342,12.335,0.564,13.233
	c0.391,1.584,4.76,8.573,6.295,9.476c2.328,1.368,5.723,2.853,5.723,2.853L17.205,62c0,0-10.676-16.652-11.342-20.332
	C5.328,38.719,4.751,29.201,6.345,22.441z"/>
<path fill="#EBC199" d="M15.087,22.447c0,1.176-8.326,1.176-8.326,0C6.761,14.711,15.087,14.984,15.087,22.447z"/>
<path fill="#EBC199" d="M21.251,11.167c-3,0.064-3.258,3.041-4.129,2.325c-0.182-0.146-0.248-0.872-0.154-1.196
	c0.684-2.334,1.729-6.646,2.041-7.859c0.57-2.2-2.426-3.028-2.994-0.829c-0.029,0.108-1.859,8.194-1.99,8.162
	c-0.121-0.031-0.211-9.199-0.268-10.076c-0.146-2.425-3.301-2.162-3.098,0.26c0.008,0.098,0.355,9.816,0.146,9.816
	c-0.18,0-1.857-8.119-2.037-8.968c-0.5-2.377-3.58-1.657-3.027,0.707c0.023,0.091,2.096,8.261,1.902,8.261
	c-0.162,0-2.299-5.128-2.299-5.128C4.681,4.739,2.244,5.567,2.91,7.472c1.414,4.049,2.156,4.635,1.947,8.802
	c-0.184,3.628,1.936,6.22,6.074,6.226c9.045,0.014,6.482-6.492,11.793-9.774C23.382,12.318,22.75,11.137,21.251,11.167z"/>
</svg>
