<?xml version="1.0" encoding="utf-8"?>
<!-- Generator: Adobe Illustrator 15.0.0, SVG Export Plug-In . SVG Version: 6.00 Build 0)  -->
<!DOCTYPE svg PUBLIC "-//W3C//DTD SVG 1.1//EN" "http://www.w3.org/Graphics/SVG/1.1/DTD/svg11.dtd" [
	<!ENTITY ns_flows "http://ns.adobe.com/Flows/1.0/">
	<!ENTITY ns_extend "http://ns.adobe.com/Extensibility/1.0/">
	<!ENTITY ns_ai "http://ns.adobe.com/AdobeIllustrator/10.0/">
	<!ENTITY ns_graphs "http://ns.adobe.com/Graphs/1.0/">
]>
<svg version="1.1" id="Layer_1" xmlns:x="&ns_extend;" xmlns:i="&ns_ai;" xmlns:graph="&ns_graphs;"
	 xmlns="http://www.w3.org/2000/svg" xmlns:xlink="http://www.w3.org/1999/xlink" xmlns:a="http://ns.adobe.com/AdobeSVGViewerExtensions/3.0/"
	 x="0px" y="0px" width="64px" height="64px" viewBox="0 0 64 64" enable-background="new 0 0 64 64" xml:space="preserve">
<path fill="#3AB0A2" d="M24.313,49.266c0,0-2.119-3.068-6.861-5.605c-0.83-0.443-5.965-12.436-5.965-13.733
	c0-4.252,1.84-13.27,5.631-18.561c1.25-1.743-5.449-6.92-6.754-5.215C1.57,17.646,0,27.973,0,32.481C0,36.953,10.725,62,10.725,62
	L24.313,49.266z"/>
<path fill="#3AB0A2" d="M39.688,49.266c0,0,2.119-3.068,6.863-5.605c0.83-0.443,5.965-12.436,5.965-13.733
	c0-4.252-1.84-13.27-5.631-18.561c-1.25-1.743,5.449-6.92,6.752-5.215C62.43,17.646,64,27.973,64,32.481
	C64,36.953,53.275,62,53.275,62L39.688,49.266z"/>
<path fill="#916B50" d="M20.234,0.546c-1.842,0.281-6.939,3.252-8.623,5.781c-0.922,1.385,3.74,4.527,5.102,3.629
	c4.102-2.707,2.707-5.316,7.709-6.313c5.988-1.194,7.705-1.865,7.705-3.255C32.127-0.226,24.223-0.065,20.234,0.546z"/>
<path fill="#916B50" d="M43.766,0.546c1.84,0.281,6.939,3.252,8.621,5.781c0.924,1.385-3.74,4.527-5.1,3.629
	c-4.102-2.707-2.707-5.316-7.709-6.313c-5.988-1.194-7.705-1.865-7.705-3.255C31.873-0.226,39.777-0.065,43.766,0.546z"/>
<path fill="#3AB0A2" d="M24.125,48.264c3.723-1.299,12.189-1.5,15.832,0C43.941,49.906,53.275,62,53.275,62H10.725
	C10.725,62,20.033,49.689,24.125,48.264z"/>
<path fill="#2B998D" d="M21.5,47.5c0,8.123,21,8.094,21-0.029C42.5,45.637,21.5,45.666,21.5,47.5z"/>
<path fill="#69452D" d="M23,47.01c0,6.359,18,6.359,18,0c0-2.164,0-7.035,0-7.035H23C23,39.975,23,44.846,23,47.01z"/>
<path id="Path_2115_" fill="#916B50" d="M48.441,25.393c-2.545,0.307-4.383,8.814-2.781,11.06c0.225,0.313,1.535,0.814,2.508-1.168
	c0.539-1.098,2.092-2.014,2.574-4.277C51.359,28.108,50.975,25.086,48.441,25.393z"/>
<path id="Path_2114_" fill="#916B50" d="M15.561,25.393c2.545,0.307,4.383,8.814,2.781,11.06c-0.225,0.313-1.535,0.814-2.51-1.168
	c-0.537-1.098-2.092-2.014-2.572-4.277C12.641,28.108,13.027,25.086,15.561,25.393z"/>
<path id="Path_2113_" fill="#69452D" d="M48.373,27.022c-0.664,0.209-1.389,1.221-1.781,2.898c2.32-0.498,1.74,3.361-0.277,3.433
	c0.02,0.389,0.045,0.787,0.094,1.207c0.971-1.408,1.959-0.844,2.938-2.939C50.227,29.733,50.018,26.508,48.373,27.022z"/>
<path id="Path_2112_" fill="#69452D" d="M17.41,29.917c-0.395-1.676-1.117-2.686-1.781-2.895c-1.643-0.514-1.855,2.711-0.973,4.599
	c0.979,2.096,1.967,1.531,2.939,2.939c0.047-0.42,0.074-0.82,0.09-1.209C15.689,33.258,15.117,29.446,17.41,29.917z"/>
<path id="Path_2111_" fill="#916B50" d="M32,9.034c-11.027,0-16.34,8.328-15.676,19.908c0.133,2.33,1.582,9.929,2.947,12.656
	c1.398,2.789,6.074,7.09,8.938,7.98c1.811,0.561,5.773,0.561,7.582,0c2.865-0.891,7.543-5.191,8.939-7.98
	c1.369-2.727,2.814-10.324,2.945-12.656C48.344,17.362,43.031,9.034,32,9.034z"/>
<path id="Path_2110_" fill="#5E4431" d="M43.982,24.543c-2.521-1.336-7.348-1.4-9.146-0.469c-0.387,0.178-0.131,1.441,0.193,1.322
	c2.504-0.99,6.547-1.012,8.893,0.084C44.234,25.624,44.365,24.729,43.982,24.543z"/>
<path id="Path_2109_" fill="#5E4431" d="M20.02,24.543c2.521-1.336,7.346-1.4,9.146-0.469c0.385,0.178,0.131,1.441-0.193,1.322
	c-2.51-0.99-6.547-1.012-8.895,0.084C19.768,25.624,19.639,24.729,20.02,24.543z"/>
<path id="Path_2108_" fill="#69452D" d="M34.977,36.107c-0.314-0.219-1.053,0.119-2.977,0.119c-1.92,0-2.66-0.338-2.975-0.119
	c-0.377,0.266,0.223,1.461,2.975,1.461C34.754,37.568,35.355,36.373,34.977,36.107z"/>
<path id="Path_2107_" fill="#69452D" d="M32,40.645c-2.479-0.729-6.154,0.346-6.154,0.346c1.398,1.521,2.424,3.494,6.154,3.494
	c4.275,0,5.002-2.24,6.156-3.494C38.156,40.99,34.48,39.91,32,40.645z"/>
<path id="Path_2106_" fill="#FFFFFF" d="M26.768,41.248c2.602,2.176,7.852,2.191,10.467,0
	C34.463,41.365,29.559,41.367,26.768,41.248z"/>
<path id="Path_2105_" fill="#FFFFFF" d="M29.547,29.084c0.094,0.73-0.402,1.594-1.773,2.242c-0.871,0.412-2.686,0.896-5.066-0.107
	c-1.066-0.449-2.107-1.847-2.014-2.623C21.984,26.167,28.338,25.811,29.547,29.084z"/>
<linearGradient id="Oval_1_" gradientUnits="userSpaceOnUse" x1="-424.5815" y1="477.4658" x2="-424.5815" y2="478.2236" gradientTransform="matrix(6.5701 0 0 -6.5701 2814.7805 3168.5281)">
	<stop  offset="0" style="stop-color:#A6694A"/>
	<stop  offset="1" style="stop-color:#4F2A1E"/>
	<a:midPointStop  offset="0" style="stop-color:#A6694A"/>
	<a:midPointStop  offset="0.5" style="stop-color:#A6694A"/>
	<a:midPointStop  offset="1" style="stop-color:#4F2A1E"/>
</linearGradient>
<circle id="Oval_288_" fill="url(#Oval_1_)" cx="25.236" cy="29.037" r="2.492"/>
<path id="Path_2104_" fill="#1A1626" d="M23.988,28.991c0,1.725,2.496,1.725,2.496,0C26.484,27.391,23.988,27.391,23.988,28.991z"/>
<path id="Path_2103_" fill="#AB968C" d="M23.609,28.292c0,0.723,1.045,0.723,1.045,0C24.654,27.624,23.609,27.624,23.609,28.292z"/>
<path id="Path_2102_" fill="#69452D" d="M29.559,29.18c-1.014-3.25-7.926-2.77-8.865-0.584
	C21.041,25.797,28.695,25.057,29.559,29.18z"/>
<path id="Path_2101_" fill="#FFFFFF" d="M34.455,29.084c-0.094,0.73,0.4,1.594,1.773,2.242c0.871,0.412,2.684,0.896,5.064-0.107
	c1.07-0.449,2.109-1.847,2.016-2.623C42.018,26.167,35.662,25.811,34.455,29.084z"/>
<linearGradient id="Oval_2_" gradientUnits="userSpaceOnUse" x1="-425.23" y1="477.4658" x2="-425.23" y2="478.2236" gradientTransform="matrix(6.5701 0 0 -6.5701 2832.511 3168.5281)">
	<stop  offset="0" style="stop-color:#A6694A"/>
	<stop  offset="1" style="stop-color:#4F2A1E"/>
	<a:midPointStop  offset="0" style="stop-color:#A6694A"/>
	<a:midPointStop  offset="0.5" style="stop-color:#A6694A"/>
	<a:midPointStop  offset="1" style="stop-color:#4F2A1E"/>
</linearGradient>
<circle id="Oval_287_" fill="url(#Oval_2_)" cx="38.709" cy="29.037" r="2.492"/>
<path id="Path_2100_" fill="#1A1626" d="M37.463,28.991c0,1.725,2.496,1.725,2.496,0C39.959,27.391,37.463,27.391,37.463,28.991z"/>
<path id="Path_2099_" fill="#AB968C" d="M37.082,28.292c0,0.723,1.047,0.723,1.047,0C38.129,27.624,37.082,27.624,37.082,28.292z"/>
<path id="Path_2098_" fill="#69452D" d="M34.443,29.18c1.012-3.248,7.92-2.783,8.865-0.584
	C42.957,25.797,35.307,25.057,34.443,29.18z"/>
<path fill="#614036" d="M46.086,11.792C43.672,8.532,39.254,6,32,6c-7.252,0-11.668,2.532-14.082,5.793
	C14.5,16.409,49.502,16.409,46.086,11.792z"/>
<linearGradient id="SVGID_1_" gradientUnits="userSpaceOnUse" x1="32.0015" y1="31.791" x2="32.0015" y2="10.4111">
	<stop  offset="0.5" style="stop-color:#3B2118"/>
	<stop  offset="0.6722" style="stop-color:#44281F"/>
	<stop  offset="0.9523" style="stop-color:#5C3C32"/>
	<stop  offset="1" style="stop-color:#614036"/>
	<a:midPointStop  offset="0.5" style="stop-color:#3B2118"/>
	<a:midPointStop  offset="0.6" style="stop-color:#3B2118"/>
	<a:midPointStop  offset="1" style="stop-color:#614036"/>
</linearGradient>
<path fill="url(#SVGID_1_)" d="M46.086,11.792C43.672,8.532,39.254,12.068,32,12.068c-7.252,0-11.668-3.536-14.082-0.275
	c-3.418,4.616-2.258,19.999-0.736,19.999c0.24,0,0.275-5.38,0.736-9.103c0.373-3.029,1.094-5.969,1.924-6.449
	C22.373,14.772,27.254,16.87,32,16.87s9.629-2.098,12.162-0.631c0.828,0.48,1.547,3.42,1.924,6.449
	c0.459,3.723,0.494,9.103,0.734,9.103C48.342,31.791,49.502,16.409,46.086,11.792z"/>
</svg>
