<?xml version="1.0" encoding="utf-8"?>
<!-- Generator: Adobe Illustrator 15.0.0, SVG Export Plug-In . SVG Version: 6.00 Build 0)  -->
<!DOCTYPE svg PUBLIC "-//W3C//DTD SVG 1.1//EN" "http://www.w3.org/Graphics/SVG/1.1/DTD/svg11.dtd" [
	<!ENTITY ns_flows "http://ns.adobe.com/Flows/1.0/">
	<!ENTITY ns_extend "http://ns.adobe.com/Extensibility/1.0/">
	<!ENTITY ns_ai "http://ns.adobe.com/AdobeIllustrator/10.0/">
	<!ENTITY ns_graphs "http://ns.adobe.com/Graphs/1.0/">
]>
<svg version="1.1" id="Layer_1" xmlns:x="&ns_extend;" xmlns:i="&ns_ai;" xmlns:graph="&ns_graphs;"
	 xmlns="http://www.w3.org/2000/svg" xmlns:xlink="http://www.w3.org/1999/xlink" xmlns:a="http://ns.adobe.com/AdobeSVGViewerExtensions/3.0/"
	 x="0px" y="0px" width="64px" height="64px" viewBox="0 0 64 64" enable-background="new 0 0 64 64" xml:space="preserve">
<path fill="#FF7A00" d="M15.433,52.752c2.5-1.365,11.066-4.332,11.066-4.332l18.978-0.037c0,0,8.66,2.996,11.146,4.365
	C60.239,54.732,60.999,62,60.999,62H13C13,62,11.806,54.729,15.433,52.752z"/>
<path fill="#ED6A00" d="M52.667,62h-0.695C51.972,56.666,52.667,56.666,52.667,62z"/>
<path fill="#ED6A00" d="M26.5,48.42c0,8.123,18.978,8.086,18.978-0.037l-1.709-0.6H28.31L26.5,48.42z"/>
<path fill="#302116" d="M28,48.01c0,6.359,16,6.359,16,0c0-2.164,0-7.035,0-7.035H28C28,40.975,28,45.846,28,48.01z"/>
<path fill="#1A1714" d="M51.212,38.785c1.082,0.714,2.33,1.247,3.787,1.52c-2.586-5.887,1.314-18.237-6.682-27.31
	c-11.27,0.337-12.828,36.722,2.883,31.882c-1-0.432-1.629-1.315-1.996-2.43c1.211,0.348,2.627,0.359,4.275-0.148
	C52.167,41.733,51.499,40.398,51.212,38.785z"/>
<path fill="#1A1714" d="M22.921,12.995c-7.996,9.073-3.334,21.423-5.922,27.31c1.457-0.272,2.707-0.806,3.789-1.52
	c-0.289,1.613-0.957,2.948-2.27,3.514c1.648,0.508,3.063,0.496,4.273,0.148c-0.367,1.114-0.992,1.998-1.992,2.43
	C36.509,49.717,34.192,13.332,22.921,12.995z"/>
<path id="Path_2359_" fill="#614A36" d="M52.442,25.392c-2.547,0.308-4.383,8.815-2.783,11.062c0.225,0.314,1.535,0.813,2.508-1.168
	c0.539-1.098,2.094-2.013,2.574-4.277C55.358,28.109,54.976,25.085,52.442,25.392z"/>
<path id="Path_2358_" fill="#614A36" d="M19.558,25.392c2.547,0.308,4.385,8.815,2.783,11.062c-0.225,0.314-1.537,0.813-2.508-1.168
	c-0.539-1.098-2.094-2.013-2.574-4.277C16.642,28.109,17.027,25.085,19.558,25.392z"/>
<path id="Path_2357_" fill="#302116" d="M52.372,27.023c-0.664,0.208-1.389,1.219-1.781,2.896c2.322-0.498,1.742,3.362-0.275,3.434
	c0.018,0.389,0.045,0.789,0.092,1.209c0.973-1.41,1.959-0.844,2.938-2.941C54.226,29.731,54.017,26.507,52.372,27.023z"/>
<path id="Path_2356_" fill="#302116" d="M21.41,29.915c-0.395-1.674-1.117-2.685-1.781-2.892c-1.645-0.516-1.855,2.708-0.975,4.598
	c0.979,2.098,1.967,1.531,2.939,2.941c0.049-0.422,0.074-0.822,0.092-1.21C19.687,33.258,19.117,29.445,21.41,29.915z"/>
<path fill="#614A36" d="M35.999,9.034C24.97,9.034,19.658,18,20.322,29.527c0.137,2.317,0.783,5.661,1.58,8.524
	C23.556,44.005,32.283,50,35.999,50c3.717,0,12.443-5.995,14.1-11.949c0.797-2.863,1.441-6.207,1.578-8.524
	C52.341,18,47.03,9.034,35.999,9.034z"/>
<path id="Path_2355_" fill="#403229" d="M47.981,24.542c-2.521-1.333-7.35-1.399-9.146-0.47c-0.387,0.179-0.131,1.443,0.193,1.323
	c2.504-0.99,6.547-1.012,8.893,0.084C48.233,25.623,48.364,24.728,47.981,24.542z"/>
<path id="Path_2354_" fill="#403229" d="M24.019,24.542c2.521-1.333,7.346-1.399,9.146-0.47c0.383,0.179,0.131,1.443-0.193,1.323
	c-2.51-0.99-6.547-1.012-8.895,0.084C23.765,25.623,23.636,24.728,24.019,24.542z"/>
<path id="Path_2353_" fill="#302116" d="M38.976,36.107c-0.314-0.219-1.053,0.119-2.977,0.119c-1.92,0-2.66-0.338-2.977-0.119
	c-0.375,0.266,0.225,1.463,2.977,1.463C38.753,37.57,39.354,36.373,38.976,36.107z"/>
<path id="Path_2352_" fill="#302116" d="M35.999,40.645c-2.48-0.728-6.156,0.346-6.156,0.346c1.4,1.522,2.426,3.496,6.156,3.496
	c4.273,0,5.002-2.242,6.158-3.496C42.157,40.99,38.479,39.912,35.999,40.645z"/>
<path id="Path_2351_" fill="#FFFFFF" d="M30.767,41.248c2.601,2.178,7.851,2.192,10.466,0
	C38.462,41.365,33.558,41.367,30.767,41.248z"/>
<path id="Path_2350_" fill="#FFFFFF" d="M33.546,29.085c0.094,0.729-0.402,1.593-1.773,2.241c-0.873,0.411-2.684,0.896-5.066-0.107
	c-1.066-0.449-2.107-1.849-2.014-2.623C25.984,26.167,32.337,25.811,33.546,29.085z"/>
<linearGradient id="Oval_1_" gradientUnits="userSpaceOnUse" x1="-423.9731" y1="477.4658" x2="-423.9731" y2="478.2246" gradientTransform="matrix(6.5701 0 0 -6.5701 2814.7805 3168.5281)">
	<stop  offset="0" style="stop-color:#A6694A"/>
	<stop  offset="1" style="stop-color:#4F2A1E"/>
	<a:midPointStop  offset="0" style="stop-color:#A6694A"/>
	<a:midPointStop  offset="0.5" style="stop-color:#A6694A"/>
	<a:midPointStop  offset="1" style="stop-color:#4F2A1E"/>
</linearGradient>
<ellipse id="Oval_314_" fill="url(#Oval_1_)" cx="29.234" cy="29.036" rx="2.498" ry="2.492"/>
<path id="Path_2349_" fill="#1A1626" d="M27.988,28.99c0,1.725,2.496,1.725,2.496,0C30.484,27.39,27.988,27.39,27.988,28.99z"/>
<path id="Path_2348_" fill="#AB968C" d="M27.607,28.292c0,0.723,1.047,0.723,1.047,0C28.654,27.623,27.607,27.623,27.607,28.292z"/>
<path id="Path_2347_" fill="#302116" d="M33.558,29.182c-1.013-3.252-7.923-2.772-8.865-0.585
	C25.041,25.796,32.695,25.057,33.558,29.182z"/>
<path id="Path_2346_" fill="#FFFFFF" d="M38.454,29.085c-0.096,0.729,0.4,1.593,1.773,2.241c0.871,0.411,2.684,0.896,5.064-0.107
	c1.07-0.449,2.109-1.849,2.016-2.623C46.019,26.167,39.661,25.811,38.454,29.085z"/>
<linearGradient id="Oval_2_" gradientUnits="userSpaceOnUse" x1="-424.6206" y1="477.4658" x2="-424.6206" y2="478.2246" gradientTransform="matrix(6.5701 0 0 -6.5701 2832.511 3168.5281)">
	<stop  offset="0" style="stop-color:#A6694A"/>
	<stop  offset="1" style="stop-color:#4F2A1E"/>
	<a:midPointStop  offset="0" style="stop-color:#A6694A"/>
	<a:midPointStop  offset="0.5" style="stop-color:#A6694A"/>
	<a:midPointStop  offset="1" style="stop-color:#4F2A1E"/>
</linearGradient>
<circle id="Oval_313_" fill="url(#Oval_2_)" cx="42.71" cy="29.036" r="2.492"/>
<path id="Path_2345_" fill="#1A1626" d="M41.462,28.99c0,1.725,2.496,1.725,2.496,0C43.958,27.39,41.462,27.39,41.462,28.99z"/>
<path id="Path_2344_" fill="#AB968C" d="M41.083,28.292c0,0.723,1.045,0.723,1.045,0C42.128,27.623,41.083,27.623,41.083,28.292z"/>
<path id="Path_2343_" fill="#302116" d="M38.442,29.182c1.012-3.251,7.92-2.786,8.865-0.585
	C46.958,25.796,39.306,25.057,38.442,29.182z"/>
<linearGradient id="SVGID_1_" gradientUnits="userSpaceOnUse" x1="35.8359" y1="31.8174" x2="35.8359" y2="5.9995">
	<stop  offset="0" style="stop-color:#1A1714"/>
	<stop  offset="0.0953" style="stop-color:#1F1B18"/>
	<stop  offset="0.6555" style="stop-color:#37322C"/>
	<stop  offset="1" style="stop-color:#403A33"/>
	<a:midPointStop  offset="0" style="stop-color:#1A1714"/>
	<a:midPointStop  offset="0.4" style="stop-color:#1A1714"/>
	<a:midPointStop  offset="1" style="stop-color:#403A33"/>
</linearGradient>
<path fill="url(#SVGID_1_)" d="M36.001,6c-6.71,0-10.064,3.035-10.744,4.473c-8.113,1.852-10.723,15.515-4.648,21.345
	c0.754-6.211,1.48-10.201,5.617-14.405c2.412,3.227,7.423,5.042,11.91,5.042c-2.125-1.541-3.574-3.051-4.711-4.458
	c7.494,3.433,15.885,5.63,17.969,13.821C58.603,20.358,52.614,6,36.001,6z"/>
<path fill="#FF7A00" d="M6.552,22.441c0.357-1.523,9.518-1.535,9.277,0.36c-0.813,6.423,0.342,12.335,0.563,13.232
	c0.391,1.584,3.082,7.837,4.617,8.739c2.328,1.368,5.49,3.647,5.49,3.647L13,62c0,0-6.266-16.652-6.932-20.332
	C5.533,38.719,4.958,29.201,6.552,22.441z"/>
<path fill="#614A36" d="M15.294,22.447c0,1.176-8.326,1.176-8.326,0C6.968,14.711,15.294,14.984,15.294,22.447z"/>
<path fill="#614A36" d="M21.458,11.167c-3,0.064-3.258,3.041-4.129,2.325c-0.184-0.146-0.248-0.872-0.154-1.196
	c0.682-2.334,1.727-6.646,2.041-7.859c0.57-2.2-2.426-3.028-2.996-0.829c-0.029,0.108-1.859,8.194-1.99,8.162
	c-0.121-0.031-0.211-9.199-0.266-10.076c-0.148-2.425-3.301-2.162-3.098,0.26c0.008,0.098,0.354,9.816,0.145,9.816
	c-0.18,0-1.857-8.119-2.037-8.968c-0.5-2.377-3.58-1.657-3.025,0.707c0.021,0.091,2.096,8.261,1.9,8.261
	c-0.162,0-2.299-5.128-2.299-5.128C4.886,4.739,2.449,5.567,3.115,7.472c1.414,4.049,2.156,4.635,1.947,8.802
	c-0.182,3.628,1.936,6.22,6.074,6.226c9.045,0.014,6.484-6.492,11.793-9.774C23.589,12.318,22.955,11.137,21.458,11.167z"/>
<path fill="#1A1714" d="M25.257,10.471c-0.102,5.72,2.209,10,12.878,11.982C30.486,22.97,22.636,18.348,25.257,10.471z"/>
<path fill="#1A1714" d="M25.927,17.048c-2.785,2.746-5.912,7.504-5.318,14.769c0.553-6.004,3.313-10.949,5.811-14.152
	C26.242,17.472,26.078,17.266,25.927,17.048z"/>
<path fill="#1A1714" d="M30.705,15.235c5.595,5.341,19.345,4.994,20.689,16.582C47.806,20.545,35.647,23.074,30.705,15.235z"/>
</svg>
