<?xml version="1.0" encoding="utf-8"?>
<!-- Generator: Adobe Illustrator 15.0.0, SVG Export Plug-In . SVG Version: 6.00 Build 0)  -->
<!DOCTYPE svg PUBLIC "-//W3C//DTD SVG 1.1//EN" "http://www.w3.org/Graphics/SVG/1.1/DTD/svg11.dtd" [
	<!ENTITY ns_flows "http://ns.adobe.com/Flows/1.0/">
	<!ENTITY ns_extend "http://ns.adobe.com/Extensibility/1.0/">
	<!ENTITY ns_ai "http://ns.adobe.com/AdobeIllustrator/10.0/">
	<!ENTITY ns_graphs "http://ns.adobe.com/Graphs/1.0/">
]>
<svg version="1.1" id="Layer_1" xmlns:x="&ns_extend;" xmlns:i="&ns_ai;" xmlns:graph="&ns_graphs;"
	 xmlns="http://www.w3.org/2000/svg" xmlns:xlink="http://www.w3.org/1999/xlink" xmlns:a="http://ns.adobe.com/AdobeSVGViewerExtensions/3.0/"
	 x="0px" y="0px" width="64px" height="64px" viewBox="0 0 64 64" enable-background="new 0 0 64 64" xml:space="preserve">
<path fill="#0FB4D4" d="M30.028,7.064c0,4.17,2,8.936,2,8.936s2-4.766,2-8.936C34.027,0.313,30.028,0.313,30.028,7.064z"/>
<path fill="#0FB4D4" d="M19.799,9.262C21.885,12.873,26,16,26,16s-0.65-5.127-2.734-8.738C19.887,1.414,16.424,3.414,19.799,9.262z"
	/>
<path fill="#0FB4D4" d="M40.734,7.264C38.65,10.873,38,16,38,16s4.113-3.125,6.199-6.736C47.576,3.416,44.111,1.414,40.734,7.264z"
	/>
<linearGradient id="SVGID_1_" gradientUnits="userSpaceOnUse" x1="347.8203" y1="315.1553" x2="347.8203" y2="326.6064" gradientTransform="matrix(0.9489 0 0 -1.0554 -317.2043 394.1573)">
	<stop  offset="0" style="stop-color:#FFCC66"/>
	<stop  offset="0.3029" style="stop-color:#FBC760"/>
	<stop  offset="0.7112" style="stop-color:#F2BB4F"/>
	<stop  offset="0.8545" style="stop-color:#EDB547"/>
	<a:midPointStop  offset="0" style="stop-color:#FFCC66"/>
	<a:midPointStop  offset="0.6429" style="stop-color:#FFCC66"/>
	<a:midPointStop  offset="0.8545" style="stop-color:#EDB547"/>
</linearGradient>
<path fill="url(#SVGID_1_)" d="M5.2,49.457c0.496,1.928,0.936,8.533,0.936,10.857c0,1.609,13.299,1.666,13.299,0
	c0-1.326,0.227-8.465,1.051-9.881C20.2,50.102,5.2,49.457,5.2,49.457z"/>
<path fill="#D9A640" d="M19.012,60.219C17.903,61.385,7.6,61.244,6.557,60.211c-0.01-2.209-0.432-8.859-0.91-10.754H4.754
	c0.508,1.961,0.955,8.566,0.955,10.961c0,2.109,14.148,2.109,14.148,0c0-1.184,0.168-8.273,0.924-9.639
	c-0.197-0.234-0.396-0.463-0.598-0.689C19.245,51.613,19.016,58.879,19.012,60.219z"/>
<linearGradient id="SVGID_2_" gradientUnits="userSpaceOnUse" x1="203.3008" y1="-557.6968" x2="203.0616" y2="-596.7795" gradientTransform="matrix(0.9312 -0.0058 -0.0057 0.9459 -175.2413 582.1159)">
	<stop  offset="0" style="stop-color:#EDB547"/>
	<stop  offset="0.0365" style="stop-color:#F0B94C"/>
	<stop  offset="0.1693" style="stop-color:#F9C45B"/>
	<stop  offset="0.3292" style="stop-color:#FECA63"/>
	<stop  offset="0.5879" style="stop-color:#FFCC66"/>
	<a:midPointStop  offset="0" style="stop-color:#EDB547"/>
	<a:midPointStop  offset="0.2045" style="stop-color:#EDB547"/>
	<a:midPointStop  offset="0.5879" style="stop-color:#FFCC66"/>
</linearGradient>
<path fill="url(#SVGID_2_)" d="M29.231,35.111c-4.895,0.127-5.334,4.904-6.752,3.766c-0.369-0.299-0.229-2.354-0.229-2.354
	c0.084-3.375,0.145-8.021,0.188-14.859c0.021-3.439-5.018-3.41-5.041,0.033c0.008-0.865,0.012-1.746,0.02-2.65
	c0.021-3.438-5.02-3.436-5.037,0.031c-0.006,0.928-0.014,1.805-0.02,2.648c0.021-3.432-5.016-3.4-5.037,0.033
	c-0.006,0.734-0.014,2.418-0.027,4.406c-0.125-3.424-4.299-3.324-4.439,0.105c-0.15,3.902-0.381,11.84-0.4,15.98
	c-0.029,5.943,3.309,11.387,9.793,11.221c14.1-0.361,10.688-10.559,19.375-15.875C32.7,36.938,31.67,35.049,29.231,35.111z"/>
<path fill="#D9A640" d="M22.235,38.408c-2.494,0.117-6.404,4.326-6.227,8.984c0.324-4.221,4.637-8.055,7.039-8.039L22.235,38.408z"
	/>
<path fill="#D9A640" d="M29.231,34.637c-4.711,0.123-5.898,4.563-6.441,3.889c-0.154-0.195-0.139-1.129-0.08-1.99
	c0.088-3.555,0.146-8.279,0.188-14.869c0.018-2.984-3.293-3.859-5.025-2.242l0.004-0.375c0-4.07-5.953-4.07-5.953,0.027
	l-0.004,0.398c-1.68-1.572-5.035-0.738-5.053,2.283l-0.014,2.121c-1.59-1.541-4.336-0.482-4.451,2.375
	C2.247,30.117,2.016,38.037,2,42.252c-0.018,3.285,1.467,8.961,6.418,10.566c-3.715-1.996-5.523-7.252-5.508-10.563
	c0.02-4.201,0.252-12.107,0.404-15.963c0.111-2.848,3.412-2.887,3.523-0.119l-0.063,9.824l0.92,0.006l0.059-9.834l0,0l0.027-4.408
	c0-2.816,4.121-2.816,4.121-0.039l-0.086,14.242l0.914,0.008l0.094-15.043l0.012-1.85c0.018-2.904,4.137-2.756,4.123-0.039
	l-0.018,2.652l0,0l-0.086,14.24l0.914,0.008l0.088-14.26c0-2.799,4.121-2.799,4.121-0.02c0,6.582-0.098,11.301-0.186,14.826
	c-0.104,1.533,0.031,2.463,0.404,2.762c2,1.607,2.252-3.541,7.033-3.664c2.023,0,2.74,1.234,2.158,1.604
	c-7.512,4.752-6.791,13.564-14.977,15.803c9.219-1.695,8.357-10.652,15.443-14.986C33.238,37.16,32.407,34.637,29.231,34.637z"/>
<linearGradient id="SVGID_3_" gradientUnits="userSpaceOnUse" x1="1488.9521" y1="315.1553" x2="1488.9521" y2="326.6064" gradientTransform="matrix(-0.9489 0 0 -1.0554 1464.0247 394.1573)">
	<stop  offset="0" style="stop-color:#FFCC66"/>
	<stop  offset="0.3029" style="stop-color:#FBC760"/>
	<stop  offset="0.7112" style="stop-color:#F2BB4F"/>
	<stop  offset="0.8545" style="stop-color:#EDB547"/>
	<a:midPointStop  offset="0" style="stop-color:#FFCC66"/>
	<a:midPointStop  offset="0.6429" style="stop-color:#FFCC66"/>
	<a:midPointStop  offset="0.8545" style="stop-color:#EDB547"/>
</linearGradient>
<path fill="url(#SVGID_3_)" d="M58.801,49.457c-0.496,1.928-0.936,8.533-0.936,10.857c0,1.609-13.301,1.666-13.301,0
	c0-1.326-0.225-8.465-1.049-9.881C43.799,50.102,58.801,49.457,58.801,49.457z"/>
<path fill="#D9A640" d="M44.988,60.219c1.109,1.166,11.41,1.025,12.455-0.008c0.01-2.209,0.43-8.859,0.908-10.754h0.893
	c-0.506,1.961-0.955,8.566-0.955,10.961c0,2.109-14.146,2.109-14.146,0c0-1.184-0.168-8.273-0.926-9.639
	c0.199-0.234,0.396-0.463,0.6-0.689C44.754,51.613,44.982,58.879,44.988,60.219z"/>
<linearGradient id="SVGID_4_" gradientUnits="userSpaceOnUse" x1="1366.167" y1="-550.5659" x2="1365.9277" y2="-589.6492" gradientTransform="matrix(-0.9312 -0.0058 0.0057 0.9459 1322.0605 582.1154)">
	<stop  offset="0" style="stop-color:#EDB547"/>
	<stop  offset="0.0365" style="stop-color:#F0B94C"/>
	<stop  offset="0.1693" style="stop-color:#F9C45B"/>
	<stop  offset="0.3292" style="stop-color:#FECA63"/>
	<stop  offset="0.5879" style="stop-color:#FFCC66"/>
	<a:midPointStop  offset="0" style="stop-color:#EDB547"/>
	<a:midPointStop  offset="0.2045" style="stop-color:#EDB547"/>
	<a:midPointStop  offset="0.5879" style="stop-color:#FFCC66"/>
</linearGradient>
<path fill="url(#SVGID_4_)" d="M34.768,35.111c4.895,0.127,5.336,4.904,6.754,3.766c0.367-0.299,0.229-2.354,0.229-2.354
	c-0.086-3.375-0.146-8.021-0.188-14.859c-0.023-3.439,5.016-3.41,5.039,0.033c-0.008-0.865-0.012-1.746-0.02-2.65
	c-0.02-3.438,5.021-3.436,5.039,0.031c0.006,0.928,0.012,1.805,0.018,2.648c-0.021-3.432,5.018-3.4,5.039,0.033
	c0.006,0.734,0.012,2.418,0.025,4.406c0.125-3.424,4.299-3.324,4.439,0.105c0.152,3.902,0.383,11.84,0.4,15.98
	c0.029,5.943-3.309,11.387-9.793,11.221c-14.098-0.361-10.686-10.559-19.373-15.875C31.299,36.938,32.331,35.049,34.768,35.111z"/>
<path fill="#D9A640" d="M41.764,38.408c2.496,0.117,6.406,4.326,6.229,8.984c-0.324-4.221-4.639-8.055-7.039-8.039L41.764,38.408z"
	/>
<path fill="#D9A640" d="M34.768,34.637c4.711,0.123,5.898,4.563,6.441,3.889c0.156-0.195,0.141-1.129,0.082-1.99
	c-0.088-3.555-0.148-8.279-0.188-14.869c-0.018-2.984,3.291-3.859,5.023-2.242l-0.002-0.375c0-4.07,5.953-4.07,5.953,0.027
	l0.002,0.398c1.682-1.572,5.037-0.738,5.053,2.283l0.016,2.121c1.588-1.541,4.336-0.482,4.451,2.375
	c0.152,3.863,0.385,11.783,0.4,15.998c0.018,3.285-1.469,8.961-6.418,10.566c3.715-1.996,5.521-7.252,5.506-10.563
	c-0.02-4.201-0.25-12.107-0.402-15.963c-0.113-2.848-3.412-2.887-3.523-0.119l0.061,9.824l-0.918,0.006l-0.059-9.834h-0.002
	l-0.027-4.408c0-2.816-4.119-2.816-4.119-0.039l0.086,14.242l-0.916,0.008L51.176,20.93l-0.012-1.85
	c-0.02-2.904-4.139-2.756-4.123-0.039l0.018,2.652h-0.002l0.088,14.24l-0.916,0.008l-0.086-14.26c0-2.799-4.123-2.799-4.123-0.02
	c0,6.582,0.098,11.301,0.188,14.826c0.104,1.533-0.031,2.463-0.404,2.762c-2,1.607-2.254-3.541-7.035-3.664
	c-2.021,0-2.74,1.234-2.158,1.604c7.511,4.752,6.792,13.564,14.976,15.803c-9.217-1.695-8.355-10.652-15.441-14.986
	C30.76,37.16,31.592,34.637,34.768,34.637z"/>
</svg>
