<?xml version="1.0" encoding="utf-8"?>
<!-- Generator: Adobe Illustrator 15.0.0, SVG Export Plug-In . SVG Version: 6.00 Build 0)  -->
<!DOCTYPE svg PUBLIC "-//W3C//DTD SVG 1.1//EN" "http://www.w3.org/Graphics/SVG/1.1/DTD/svg11.dtd" [
	<!ENTITY ns_flows "http://ns.adobe.com/Flows/1.0/">
	<!ENTITY ns_extend "http://ns.adobe.com/Extensibility/1.0/">
	<!ENTITY ns_ai "http://ns.adobe.com/AdobeIllustrator/10.0/">
	<!ENTITY ns_graphs "http://ns.adobe.com/Graphs/1.0/">
]>
<svg version="1.1" id="Layer_1" xmlns:x="&ns_extend;" xmlns:i="&ns_ai;" xmlns:graph="&ns_graphs;"
	 xmlns="http://www.w3.org/2000/svg" xmlns:xlink="http://www.w3.org/1999/xlink" xmlns:a="http://ns.adobe.com/AdobeSVGViewerExtensions/3.0/"
	 x="0px" y="0px" width="64px" height="64px" viewBox="0 0 64 64" enable-background="new 0 0 64 64" xml:space="preserve">
<path fill="#99A8AE" d="M41.894,2H22.106c-1.559,0-2.825,1.278-2.825,2.855c0,0.393,0.317,0.713,0.709,0.713
	c0.391,0,0.707-0.32,0.707-0.713c0-0.789,0.633-1.428,1.411-1.428h3.845c1.646,0,1.808,0.792,2.085,2.102
	c0.082,0.395,0.181,1.968,0.363,2.407h1.72c-0.372-0.229-0.519-1.82-0.699-2.7c-0.117-0.552-0.257-1.221-0.599-1.809h6.358
	c-0.344,0.588-0.482,1.258-0.597,1.809c-0.186,0.88-0.332,2.471-0.703,2.7h1.717c0.183-0.438,0.283-2.013,0.365-2.407
	c0.275-1.31,0.441-2.102,2.084-2.102h3.848c0.777,0,1.412,0.639,1.412,1.428c0,0.393,0.318,0.713,0.709,0.713
	c0.389,0,0.705-0.32,0.705-0.713C44.719,3.278,43.453,2,41.894,2z"/>
<polygon fill="#4E5E67" points="39.025,36.757 24.975,36.757 13.874,62 50.126,62 "/>
<polygon fill="#302C3B" points="46.717,62 48.442,62 32.864,24.686 "/>
<polygon fill="#B3C2C6" points="50.126,62 54,62 32.864,24.686 "/>
<polygon fill="#302C3B" points="15.557,62 17.283,62 31.138,24.686 "/>
<polygon fill="#B3C2C6" points="13.874,62 10,62 31.138,24.686 "/>
<path fill="#014D87" d="M14.399,43.111c0,2.223,2.2,8.889,3.301,8.889h28.6c1.101,0,3.301-6.666,3.301-8.889v-5.556H14.399V43.111z"
	/>
<path fill="#018BC9" d="M14.399,32v6.666c0,2.223,2.2,8.89,5.5,8.89h24.201c3.3,0,5.5-6.667,5.5-8.89V32H14.399z"/>
<linearGradient id="SVGID_1_" gradientUnits="userSpaceOnUse" x1="-162" y1="124.666" x2="-162" y2="162.4443" gradientTransform="matrix(1 0 0 -1 194 170)">
	<stop  offset="0" style="stop-color:#C6CFD4"/>
	<stop  offset="0.5131" style="stop-color:#DCE3E7"/>
	<stop  offset="0.8606" style="stop-color:#E6EBEF"/>
	<a:midPointStop  offset="0" style="stop-color:#C6CFD4"/>
	<a:midPointStop  offset="0.5" style="stop-color:#C6CFD4"/>
	<a:midPointStop  offset="0.5131" style="stop-color:#DCE3E7"/>
	<a:midPointStop  offset="0.5" style="stop-color:#DCE3E7"/>
	<a:midPointStop  offset="0.8606" style="stop-color:#E6EBEF"/>
</linearGradient>
<path fill="url(#SVGID_1_)" d="M43,7.556H21c-5.082,0-6.601,3.385-6.601,5.556V32L21,36.444c5.337,3.594,4.4,8.89,8.8,8.89h4.4
	c4.399,0,4.693-6.125,8.8-8.89L49.601,32V13.111C49.601,10.941,48.082,7.556,43,7.556z"/>
<ellipse fill="#FFFFFF" cx="19.899" cy="42" rx="2.201" ry="2.223"/>
<ellipse fill="#FFFFFF" cx="44.101" cy="42" rx="2.199" ry="2.223"/>
<path fill="#013366" d="M34.2,49.777h-4.4L28.7,52h6.6L34.2,49.777z"/>
<path fill="#99A8AE" d="M44.101,12H19.899c-3.3,0-2.199,7.778-2.199,7.778h28.6C46.3,19.778,47.4,12,44.101,12z"/>
<linearGradient id="SVGID_2_" gradientUnits="userSpaceOnUse" x1="-162" y1="132.4453" x2="-162" y2="156.8887" gradientTransform="matrix(1 0 0 -1 194 170)">
	<stop  offset="0" style="stop-color:#302C3B"/>
	<stop  offset="0.2358" style="stop-color:#41424F"/>
	<stop  offset="0.7404" style="stop-color:#616B76"/>
	<stop  offset="1" style="stop-color:#6E7B85"/>
	<a:midPointStop  offset="0" style="stop-color:#302C3B"/>
	<a:midPointStop  offset="0.4424" style="stop-color:#302C3B"/>
	<a:midPointStop  offset="1" style="stop-color:#6E7B85"/>
</linearGradient>
<path fill="url(#SVGID_2_)" d="M44.101,13.111H19.899c-2.199,0-2.199,6.667-2.199,6.667s0.652,11.771,3.3,14.445
	c4.4,4.443,17.6,4.443,22,0c2.646-2.672,3.3-14.445,3.3-14.445S46.3,13.111,44.101,13.111z"/>
<path fill="#302C3B" d="M42.494,18.879H21.509c-2.924,0-2.924-4.869,0-4.869h20.985C45.417,14.01,45.417,18.879,42.494,18.879z"/>
<path fill="#F9B700" d="M27.817,17.133c-0.004-0.074,0.034-0.113,0.103-0.113h0.413c0.064,0,0.1,0.039,0.111,0.109
	c0.03,0.265,0.188,0.368,0.436,0.368c0.279,0,0.441-0.133,0.441-0.397v-2.151c0-0.07,0.039-0.109,0.107-0.109h0.409
	c0.069,0,0.108,0.039,0.108,0.109V17.1c0,0.693-0.518,1.012-1.066,1.012C28.354,18.111,27.864,17.824,27.817,17.133z"/>
<path fill="#F9B700" d="M30.347,16.444c0-0.938,0.734-1.666,1.65-1.666c0.915,0,1.65,0.729,1.65,1.666
	c0,0.938-0.735,1.667-1.65,1.667C31.081,18.111,30.347,17.382,30.347,16.444z M33.022,16.444c0-0.616-0.45-1.052-1.025-1.052
	c-0.577,0-1.026,0.436-1.026,1.052c0,0.617,0.449,1.053,1.026,1.053C32.572,17.497,33.022,17.061,33.022,16.444z"/>
<path fill="#F9B700" d="M36.166,14.97L35.2,16.625v1.316c0,0.069-0.039,0.108-0.108,0.108h-0.408c-0.069,0-0.108-0.039-0.108-0.108
	v-1.317L33.61,14.97c-0.043-0.076-0.01-0.131,0.072-0.131h0.475c0.061,0,0.1,0.026,0.127,0.077l0.604,1.1l0.604-1.1
	c0.028-0.051,0.066-0.077,0.127-0.077h0.474C36.176,14.839,36.21,14.894,36.166,14.97z"/>
</svg>
