<?xml version="1.0" encoding="utf-8"?>
<!-- Generator: Adobe Illustrator 15.0.0, SVG Export Plug-In . SVG Version: 6.00 Build 0)  -->
<!DOCTYPE svg PUBLIC "-//W3C//DTD SVG 1.1//EN" "http://www.w3.org/Graphics/SVG/1.1/DTD/svg11.dtd" [
	<!ENTITY ns_flows "http://ns.adobe.com/Flows/1.0/">
	<!ENTITY ns_extend "http://ns.adobe.com/Extensibility/1.0/">
	<!ENTITY ns_ai "http://ns.adobe.com/AdobeIllustrator/10.0/">
	<!ENTITY ns_graphs "http://ns.adobe.com/Graphs/1.0/">
]>
<svg version="1.1" id="Layer_1" xmlns:x="&ns_extend;" xmlns:i="&ns_ai;" xmlns:graph="&ns_graphs;"
	 xmlns="http://www.w3.org/2000/svg" xmlns:xlink="http://www.w3.org/1999/xlink" xmlns:a="http://ns.adobe.com/AdobeSVGViewerExtensions/3.0/"
	 x="0px" y="0px" width="64px" height="64px" viewBox="0 0 64 64" enable-background="new 0 0 64 64" xml:space="preserve">
<rect x="28.037" y="54" fill="#013366" width="33.963" height="5"/>
<circle fill="#6E8189" cx="55.993" cy="57" r="5.005"/>
<circle fill="#99A8AE" cx="55.994" cy="57" r="4.004"/>
<circle fill="#6E8189" cx="55.994" cy="57" r="2.002"/>
<circle fill="#6E8189" cx="37.976" cy="57" r="5.005"/>
<circle fill="#99A8AE" cx="37.975" cy="57" r="4.004"/>
<circle fill="#6E8189" cx="37.975" cy="57" r="2.002"/>
<polygon fill="#6E8189" points="49.987,60 43.981,60 42.98,57 50.988,57 "/>
<path fill="#4E5E67" d="M55.993,56H37.975c-1.334,0-1.334,2,0,2h18.019C57.328,58,57.328,56,55.993,56z"/>
<radialGradient id="SVGID_1_" cx="53.167" cy="39.4824" r="189.8768" gradientTransform="matrix(0.9125 -0.4091 0.1242 0.2771 -0.2515 50.2958)" gradientUnits="userSpaceOnUse">
	<stop  offset="0.32" style="stop-color:#C6CFD4"/>
	<stop  offset="0.3469" style="stop-color:#D3DADF"/>
	<stop  offset="0.3888" style="stop-color:#DEE4E9"/>
	<stop  offset="0.448" style="stop-color:#E5EAEE"/>
	<stop  offset="0.6121" style="stop-color:#E7ECF0"/>
	<a:midPointStop  offset="0.32" style="stop-color:#C6CFD4"/>
	<a:midPointStop  offset="0.13" style="stop-color:#C6CFD4"/>
	<a:midPointStop  offset="0.6121" style="stop-color:#E7ECF0"/>
</radialGradient>
<path fill="url(#SVGID_1_)" d="M62,6c-13.912,1.938-20,6-20,6S22.309,27.185,12,32C5.825,37.49,2,43.178,2,47c0,4.74,9,8,9,8h51V6z"
	/>
<linearGradient id="SVGID_2_" gradientUnits="userSpaceOnUse" x1="26.9966" y1="32" x2="26.9966" y2="12">
	<stop  offset="0" style="stop-color:#302C3B"/>
	<stop  offset="0.2926" style="stop-color:#454754"/>
	<stop  offset="0.7557" style="stop-color:#636D78"/>
	<stop  offset="1" style="stop-color:#6E7B85"/>
	<a:midPointStop  offset="0" style="stop-color:#302C3B"/>
	<a:midPointStop  offset="0.4364" style="stop-color:#302C3B"/>
	<a:midPointStop  offset="1" style="stop-color:#6E7B85"/>
</linearGradient>
<path fill="url(#SVGID_2_)" d="M42,12c-2.023,9.615-27.433,20-30,20C11.593,29.49,29.192,13.74,42,12"/>
<linearGradient id="SVGID_3_" gradientUnits="userSpaceOnUse" x1="44" y1="46" x2="44" y2="21.0005">
	<stop  offset="0" style="stop-color:#005687"/>
	<stop  offset="0.0043" style="stop-color:#005688"/>
	<stop  offset="0.2509" style="stop-color:#0F6DA3"/>
	<stop  offset="0.4993" style="stop-color:#1A7CB7"/>
	<stop  offset="0.7485" style="stop-color:#2086C3"/>
	<stop  offset="1" style="stop-color:#2289C7"/>
	<a:midPointStop  offset="0" style="stop-color:#005687"/>
	<a:midPointStop  offset="0.2909" style="stop-color:#005687"/>
	<a:midPointStop  offset="1" style="stop-color:#2289C7"/>
</linearGradient>
<path fill="url(#SVGID_3_)" d="M62,21c0,0-36,10-36,20c0,4.625,6.42,5,16,5h20V21z"/>
<path fill="#B3C2C6" d="M15.469,39.127c-1.145-1.125-3.613-0.52-5.516,1.355c-1.904,1.875-2.521,4.309-1.379,5.434
	c1.143,1.127,3.666,0.846,5.516-1.355C15.805,42.518,16.609,40.254,15.469,39.127"/>
<radialGradient id="SVGID_4_" cx="11.333" cy="42.5625" r="2.9904" gradientTransform="matrix(0.7071 0.7071 -0.9884 0.9884 45.3885 -7.5203)" gradientUnits="userSpaceOnUse">
	<stop  offset="0" style="stop-color:#FFE600"/>
	<stop  offset="0.1978" style="stop-color:#FDE100"/>
	<stop  offset="0.4376" style="stop-color:#F7D200"/>
	<stop  offset="0.6992" style="stop-color:#EDBA00"/>
	<stop  offset="0.9746" style="stop-color:#DF9800"/>
	<stop  offset="1" style="stop-color:#DE9400"/>
	<a:midPointStop  offset="0" style="stop-color:#FFE600"/>
	<a:midPointStop  offset="0.6667" style="stop-color:#FFE600"/>
	<a:midPointStop  offset="1" style="stop-color:#DE9400"/>
</radialGradient>
<path fill="url(#SVGID_4_)" d="M14.57,40.996c-0.852-0.863-2.693-0.396-4.113,1.045c-1.42,1.439-1.883,3.313-1.029,4.176
	c0.734,0.742,2.844,0.24,4.115-1.043C14.967,43.736,15.424,41.861,14.57,40.996"/>
<linearGradient id="SVGID_5_" gradientUnits="userSpaceOnUse" x1="6.9082" y1="56" x2="62" y2="56">
	<stop  offset="0" style="stop-color:#005687"/>
	<stop  offset="0.0043" style="stop-color:#005688"/>
	<stop  offset="0.2509" style="stop-color:#0F6DA3"/>
	<stop  offset="0.4993" style="stop-color:#1A7CB7"/>
	<stop  offset="0.7485" style="stop-color:#2086C3"/>
	<stop  offset="1" style="stop-color:#2289C7"/>
	<a:midPointStop  offset="0" style="stop-color:#005687"/>
	<a:midPointStop  offset="0.2909" style="stop-color:#005687"/>
	<a:midPointStop  offset="1" style="stop-color:#2289C7"/>
</linearGradient>
<path fill="url(#SVGID_5_)" d="M11,55l-4.092,5h21.057c8.898,0,8.519-4,34.035-4v-4C35.482,52,11,55,11,55z"/>
</svg>
