<?xml version="1.0" encoding="utf-8"?>
<!-- Generator: Adobe Illustrator 15.0.0, SVG Export Plug-In . SVG Version: 6.00 Build 0)  -->
<!DOCTYPE svg PUBLIC "-//W3C//DTD SVG 1.1//EN" "http://www.w3.org/Graphics/SVG/1.1/DTD/svg11.dtd" [
	<!ENTITY ns_flows "http://ns.adobe.com/Flows/1.0/">
	<!ENTITY ns_extend "http://ns.adobe.com/Extensibility/1.0/">
	<!ENTITY ns_ai "http://ns.adobe.com/AdobeIllustrator/10.0/">
	<!ENTITY ns_graphs "http://ns.adobe.com/Graphs/1.0/">
]>
<svg version="1.1" id="Layer_1" xmlns:x="&ns_extend;" xmlns:i="&ns_ai;" xmlns:graph="&ns_graphs;"
	 xmlns="http://www.w3.org/2000/svg" xmlns:xlink="http://www.w3.org/1999/xlink" xmlns:a="http://ns.adobe.com/AdobeSVGViewerExtensions/3.0/"
	 x="0px" y="0px" width="64px" height="64px" viewBox="0 0 64 64" enable-background="new 0 0 64 64" xml:space="preserve">
<path fill="#CFD8DD" d="M21.879,19.011h-1.17c3.438-4.168,7.128-7.266,7.128-7.266l0.235,0.478
	C28.072,12.223,25.1,15.321,21.879,19.011z"/>
<path fill="#CFD8DD" d="M16.854,18.62l-0.326-0.379c0.147-0.128,15.095-12.824,38.804-14.56l0.037,0.498
	C31.831,5.903,17.001,18.493,16.854,18.62z"/>
<path fill="#B3C2C6" d="M26.947,12.682c0.929-0.515,1.832-0.98,2.634-1.354l-0.556-1.195c-0.888,0.413-1.896,0.938-2.932,1.52
	C26.367,12.004,26.651,12.348,26.947,12.682z"/>
<polygon fill="#B3C2C6" points="15.14,18.414 18.627,16.573 18.071,15.378 15.14,16.897 "/>
<path fill="#4E5E67" d="M53.594,4.457c2.031,0.044,3.371-0.607,3.675-1.438c0.267-0.729-0.754-1.44-1.034-0.719
	c-0.438,1.125-1.953,1.381-2.844,1.469L53.594,4.457z"/>
<path fill="#4E5E67" d="M18.469,18.414H15.14c4.424-4.295,12.348-7.911,12.348-7.911l0.885,1.793
	C28.372,12.296,23.229,14.733,18.469,18.414z"/>
<path fill="#E6EBEF" d="M31.168,17.979h-17.5c-0.916,0-1.668,0.75-1.668,1.666h20.834C32.834,18.729,32.084,17.979,31.168,17.979z"
	/>
<path fill="#CFD8DD" d="M34.168,19h-23.5C9.752,19,9,19.75,9,20.666h26.834C35.834,19.75,35.084,19,34.168,19z"/>
<linearGradient id="SVGID_1_" gradientUnits="userSpaceOnUse" x1="32.0005" y1="56" x2="32.0005" y2="40.739">
	<stop  offset="0" style="stop-color:#77B516"/>
	<stop  offset="0.9753" style="stop-color:#99D334"/>
	<stop  offset="1" style="stop-color:#9AD435"/>
	<a:midPointStop  offset="0" style="stop-color:#77B516"/>
	<a:midPointStop  offset="0.5273" style="stop-color:#77B516"/>
	<a:midPointStop  offset="1" style="stop-color:#9AD435"/>
</linearGradient>
<path fill="url(#SVGID_1_)" d="M2,42c0,2.597,0,9,0,11.001C2,54.932,3.057,56,4.475,56H57.35C59,56,62,51.847,62,51.19
	c0-1.741,0-9.19,0-9.19H2z"/>
<path fill="#E6EBEF" d="M59.957,20c0,0-39.23,0-52.641,0c-1.326,0-2.221,1.044-3.001,2.975L2,43h60c0,0,0-16.013,0-20.025
	c0-0.453,0-0.879,0-1.261C62,20.716,61.248,20,59.957,20z"/>
<path fill="#F2F5F7" d="M2,43.542h3.475v3H2V43.542z"/>
<path fill="#529320" d="M22.287,49.625h8v5h-8V49.625z"/>
<path fill="#4E5E67" d="M22.287,49.625h0.47v5h-0.47V49.625z"/>
<path fill="#4E5E67" d="M23.229,49.625h0.47v5h-0.47V49.625z"/>
<path fill="#4E5E67" d="M24.17,49.625h0.47v5h-0.47V49.625z"/>
<path fill="#4E5E67" d="M25.111,49.625h0.47v5h-0.47V49.625z"/>
<path fill="#4E5E67" d="M26.052,49.625h0.471v5h-0.471V49.625z"/>
<path fill="#4E5E67" d="M26.993,49.625h0.471v5h-0.471V49.625z"/>
<path fill="#4E5E67" d="M27.935,49.625h0.47v5h-0.47V49.625z"/>
<path fill="#4E5E67" d="M28.876,49.625h0.47v5h-0.47V49.625z"/>
<path fill="#4E5E67" d="M29.817,49.625h0.47v5h-0.47V49.625z"/>
<path fill="#CFD8DD" d="M35.245,53h2v2h-2V53z"/>
<path fill="#FFFFFF" d="M35.37,53.125h1.75v0.75h-1.75V53.125z"/>
<path fill="#F59E01" d="M7.475,43.542c0.551,0-0.449,3-1,3h-1v-3H7.475z"/>
<path fill="#1A1626" d="M4.314,22.975c0,0-2.115,3.633-2.314,20.025c0,0,2.255,0,2.825,0c4.109,0,10.501-5.288,10.501-5.288h43.398
	c1.186,0,1.523-1.023,1.523-1.529c0-1.593,0-13.208,0-13.208H4.314z"/>
<polygon fill="#529320" points="3,47 2,47.25 5.475,47.25 5.475,56 5.725,56 5.725,47.25 21.475,47.25 21.475,56 21.725,56 
	21.725,47.25 30.85,47.25 30.85,56 31.1,56 31.1,47.25 41.225,47.25 41.225,56 41.475,56 41.475,47.25 57.225,47.25 57.225,56 
	57.475,56 57.475,47.25 62,47.25 62,47 "/>
<linearGradient id="SVGID_2_" gradientUnits="userSpaceOnUse" x1="8.0889" y1="41" x2="8.0889" y2="24.9751">
	<stop  offset="0" style="stop-color:#302C3B"/>
	<stop  offset="0.2926" style="stop-color:#454754"/>
	<stop  offset="0.7557" style="stop-color:#636D78"/>
	<stop  offset="1" style="stop-color:#6E7B85"/>
	<a:midPointStop  offset="0" style="stop-color:#302C3B"/>
	<a:midPointStop  offset="0.4364" style="stop-color:#302C3B"/>
	<a:midPointStop  offset="1" style="stop-color:#6E7B85"/>
</linearGradient>
<path fill="url(#SVGID_2_)" d="M3.639,24.975h10.504v10.737c0,0-6.193,5.288-10.303,5.288c-0.57,0-1.805,0-1.805,0
	C2.035,29.742,3.639,24.975,3.639,24.975z"/>
<linearGradient id="SVGID_3_" gradientUnits="userSpaceOnUse" x1="22.6602" y1="35.7119" x2="22.6602" y2="24.9751">
	<stop  offset="0" style="stop-color:#302C3B"/>
	<stop  offset="0.2926" style="stop-color:#454754"/>
	<stop  offset="0.7557" style="stop-color:#636D78"/>
	<stop  offset="1" style="stop-color:#6E7B85"/>
	<a:midPointStop  offset="0" style="stop-color:#302C3B"/>
	<a:midPointStop  offset="0.4364" style="stop-color:#302C3B"/>
	<a:midPointStop  offset="1" style="stop-color:#6E7B85"/>
</linearGradient>
<rect x="16.143" y="24.975" fill="url(#SVGID_3_)" width="13.035" height="10.737"/>
<linearGradient id="SVGID_4_" gradientUnits="userSpaceOnUse" x1="37.6953" y1="35.7119" x2="37.6953" y2="24.9751">
	<stop  offset="0" style="stop-color:#302C3B"/>
	<stop  offset="0.2926" style="stop-color:#454754"/>
	<stop  offset="0.7557" style="stop-color:#636D78"/>
	<stop  offset="1" style="stop-color:#6E7B85"/>
	<a:midPointStop  offset="0" style="stop-color:#302C3B"/>
	<a:midPointStop  offset="0.4364" style="stop-color:#302C3B"/>
	<a:midPointStop  offset="1" style="stop-color:#6E7B85"/>
</linearGradient>
<rect x="31.178" y="24.975" fill="url(#SVGID_4_)" width="13.035" height="10.737"/>
<linearGradient id="SVGID_5_" gradientUnits="userSpaceOnUse" x1="52.2305" y1="35.7119" x2="52.2305" y2="24.9751">
	<stop  offset="0" style="stop-color:#302C3B"/>
	<stop  offset="0.2926" style="stop-color:#454754"/>
	<stop  offset="0.7557" style="stop-color:#636D78"/>
	<stop  offset="1" style="stop-color:#6E7B85"/>
	<a:midPointStop  offset="0" style="stop-color:#302C3B"/>
	<a:midPointStop  offset="0.4364" style="stop-color:#302C3B"/>
	<a:midPointStop  offset="1" style="stop-color:#6E7B85"/>
</linearGradient>
<path fill="url(#SVGID_5_)" d="M46.213,24.975v10.737h10.512c1.186,0,1.523-1.023,1.523-1.529c0-1.593,0-9.208,0-9.208H46.213z"/>
<path fill="#CFD8DD" d="M5.256,21.79c0,1.648,0,5.385,0,5.385l1.469,0.8c0,0,0-4.738,0-6.185C6.725,20.793,5.256,20.797,5.256,21.79
	z"/>
<path fill="#E6EBEF" d="M5.256,34.038c0,0.275,0.225,0.5,0.5,0.5H8.26c0.275,0,0.5-0.225,0.5-0.5v-6.363c0-0.275-0.225-0.5-0.5-0.5
	H5.256V34.038z"/>
<path fill="#1A1626" d="M13.597,49c-3.863-0.003-6.994,3.128-6.997,6.993c0,0.003,0,0.003,0,0.007h14
	C20.6,52.131,17.466,49,13.597,49z"/>
<radialGradient id="SVGID_6_" cx="-27.624" cy="97.4941" r="5.2053" gradientTransform="matrix(1.1526 0 0 1.1526 45.4398 -56.3708)" gradientUnits="userSpaceOnUse">
	<stop  offset="0.4909" style="stop-color:#5B666E"/>
	<stop  offset="0.6437" style="stop-color:#525A64"/>
	<stop  offset="0.9181" style="stop-color:#3C3B49"/>
	<stop  offset="1" style="stop-color:#343040"/>
	<a:midPointStop  offset="0.4909" style="stop-color:#5B666E"/>
	<a:midPointStop  offset="0.5765" style="stop-color:#5B666E"/>
	<a:midPointStop  offset="1" style="stop-color:#343040"/>
</radialGradient>
<circle fill="url(#SVGID_6_)" cx="13.6" cy="56" r="6"/>
<circle fill="#E6EBEF" cx="13.6" cy="56" r="4.2"/>
<path fill="#4E5E67" d="M17.188,57.22c0.131-0.383,0.205-0.793,0.205-1.22s-0.074-0.837-0.205-1.219L15.079,56L17.188,57.22z"/>
<path fill="#4E5E67" d="M14.338,54.718l2.109-1.217c-0.539-0.615-1.274-1.057-2.109-1.222V54.718z"/>
<path fill="#4E5E67" d="M10.01,54.78C9.878,55.163,9.806,55.573,9.806,56s0.072,0.837,0.204,1.219L12.12,56L10.01,54.78z"/>
<path fill="#4E5E67" d="M14.338,57.28v2.44c0.837-0.165,1.57-0.606,2.112-1.222L14.338,57.28z"/>
<path fill="#4E5E67" d="M12.858,54.72v-2.44c-0.833,0.165-1.57,0.606-2.109,1.222L12.858,54.72z"/>
<path fill="#4E5E67" d="M12.858,57.282l-2.109,1.217c0.542,0.615,1.276,1.057,2.109,1.222V57.282z"/>
<circle fill="#CFD8DD" cx="13.598" cy="56" r="3.092"/>
<path fill="#4E5E67" d="M13.854,53.716c0,0.336-0.507,0.336-0.507,0C13.347,53.378,13.854,53.378,13.854,53.716z"/>
<path fill="#4E5E67" d="M13.854,58.284c0,0.338-0.507,0.338-0.507,0C13.347,57.948,13.854,57.948,13.854,58.284z"/>
<path fill="#4E5E67" d="M15.705,55.073c-0.289,0.166-0.539-0.266-0.251-0.433C15.741,54.476,15.993,54.907,15.705,55.073z"/>
<path fill="#4E5E67" d="M11.745,57.359c-0.287,0.167-0.539-0.267-0.247-0.435C11.786,56.759,12.034,57.192,11.745,57.359z"/>
<path fill="#4E5E67" d="M15.454,57.358c-0.288-0.166-0.038-0.6,0.248-0.433C15.99,57.093,15.741,57.524,15.454,57.358z"/>
<path fill="#4E5E67" d="M11.495,55.073c-0.289-0.166-0.037-0.598,0.25-0.433C12.034,54.808,11.783,55.239,11.495,55.073z"/>
<path fill="#E6EBEF" d="M15.878,56c0,1.257-1.024,2.276-2.281,2.276c-1.255,0-2.274-1.02-2.274-2.276s1.02-2.276,2.274-2.276
	C14.854,53.724,15.878,54.743,15.878,56z"/>
<path fill="#1A1626" d="M49.347,49c-3.863-0.003-6.994,3.128-6.997,6.993c0,0.003,0,0.003,0,0.007h14
	C56.35,52.131,53.216,49,49.347,49z"/>
<radialGradient id="SVGID_7_" cx="3.3931" cy="97.4941" r="5.2053" gradientTransform="matrix(1.1526 0 0 1.1526 45.4398 -56.3708)" gradientUnits="userSpaceOnUse">
	<stop  offset="0.4909" style="stop-color:#5B666E"/>
	<stop  offset="0.6437" style="stop-color:#525A64"/>
	<stop  offset="0.9181" style="stop-color:#3C3B49"/>
	<stop  offset="1" style="stop-color:#343040"/>
	<a:midPointStop  offset="0.4909" style="stop-color:#5B666E"/>
	<a:midPointStop  offset="0.5765" style="stop-color:#5B666E"/>
	<a:midPointStop  offset="1" style="stop-color:#343040"/>
</radialGradient>
<circle fill="url(#SVGID_7_)" cx="49.35" cy="56" r="6"/>
<path fill="#E6EBEF" d="M53.55,56c0,2.319-1.88,4.2-4.203,4.2c-2.317,0-4.196-1.881-4.196-4.2s1.879-4.2,4.196-4.2
	C51.67,51.8,53.55,53.681,53.55,56z"/>
<path fill="#4E5E67" d="M52.938,57.22c0.131-0.383,0.204-0.793,0.204-1.22s-0.073-0.837-0.204-1.219L50.826,56L52.938,57.22z"/>
<path fill="#4E5E67" d="M50.088,54.718l2.109-1.217c-0.539-0.615-1.274-1.057-2.109-1.222V54.718z"/>
<path fill="#4E5E67" d="M45.76,54.78c-0.132,0.383-0.204,0.793-0.204,1.22s0.072,0.837,0.204,1.219L47.87,56L45.76,54.78z"/>
<path fill="#4E5E67" d="M50.088,57.28v2.44c0.837-0.165,1.57-0.606,2.112-1.222L50.088,57.28z"/>
<path fill="#4E5E67" d="M48.608,54.72v-2.44c-0.833,0.165-1.57,0.606-2.109,1.222L48.608,54.72z"/>
<path fill="#4E5E67" d="M48.608,57.282l-2.109,1.217c0.542,0.615,1.276,1.057,2.109,1.222V57.282z"/>
<path fill="#CFD8DD" d="M52.44,56c0,1.708-1.383,3.091-3.094,3.091c-1.705,0-3.091-1.383-3.091-3.091s1.386-3.091,3.091-3.091
	C51.058,52.909,52.44,54.292,52.44,56z"/>
<path fill="#4E5E67" d="M49.604,53.716c0,0.336-0.507,0.336-0.507,0C49.097,53.378,49.604,53.378,49.604,53.716z"/>
<path fill="#4E5E67" d="M49.604,58.284c0,0.338-0.507,0.338-0.507,0C49.097,57.948,49.604,57.948,49.604,58.284z"/>
<path fill="#4E5E67" d="M51.452,55.073c-0.289,0.166-0.539-0.266-0.248-0.433C51.491,54.476,51.74,54.907,51.452,55.073z"/>
<path fill="#4E5E67" d="M47.495,57.359c-0.287,0.167-0.539-0.267-0.25-0.435C47.533,56.759,47.784,57.192,47.495,57.359z"/>
<path fill="#4E5E67" d="M51.201,57.358c-0.288-0.166-0.038-0.6,0.251-0.433C51.74,57.093,51.491,57.524,51.201,57.358z"/>
<path fill="#4E5E67" d="M47.245,55.073c-0.289-0.166-0.037-0.598,0.25-0.433C47.784,54.808,47.533,55.239,47.245,55.073z"/>
<circle fill="#E6EBEF" cx="49.349" cy="56" r="2.277"/>
<path fill="#E81C27" d="M61,44v3c0,0.55,0.451,1,1,1v-5C61.451,43,61,43.45,61,44z"/>
</svg>
