<?xml version="1.0" encoding="utf-8"?>
<!-- Generator: Adobe Illustrator 15.0.0, SVG Export Plug-In . SVG Version: 6.00 Build 0)  -->
<!DOCTYPE svg PUBLIC "-//W3C//DTD SVG 1.1//EN" "http://www.w3.org/Graphics/SVG/1.1/DTD/svg11.dtd" [
	<!ENTITY ns_flows "http://ns.adobe.com/Flows/1.0/">
	<!ENTITY ns_extend "http://ns.adobe.com/Extensibility/1.0/">
	<!ENTITY ns_ai "http://ns.adobe.com/AdobeIllustrator/10.0/">
	<!ENTITY ns_graphs "http://ns.adobe.com/Graphs/1.0/">
]>
<svg version="1.1" id="Layer_1" xmlns:x="&ns_extend;" xmlns:i="&ns_ai;" xmlns:graph="&ns_graphs;"
	 xmlns="http://www.w3.org/2000/svg" xmlns:xlink="http://www.w3.org/1999/xlink" xmlns:a="http://ns.adobe.com/AdobeSVGViewerExtensions/3.0/"
	 x="0px" y="0px" width="64px" height="64px" viewBox="0 0 64 64" enable-background="new 0 0 64 64" xml:space="preserve">
<linearGradient id="SVGID_1_" gradientUnits="userSpaceOnUse" x1="30" y1="48" x2="34" y2="48">
	<stop  offset="0.1455" style="stop-color:#CFD8DD"/>
	<stop  offset="0.4056" style="stop-color:#C3CDD2"/>
	<stop  offset="0.877" style="stop-color:#A3B0B6"/>
	<stop  offset="1" style="stop-color:#99A8AE"/>
	<a:midPointStop  offset="0.1455" style="stop-color:#CFD8DD"/>
	<a:midPointStop  offset="0.5745" style="stop-color:#CFD8DD"/>
	<a:midPointStop  offset="1" style="stop-color:#99A8AE"/>
</linearGradient>
<path fill="url(#SVGID_1_)" d="M30,34v28h4V34H30z"/>
<g>
	<path fill="#006DAE" d="M48,35c0,0.55-0.45,1-1,1H17c-0.55,0-1-0.45-1-1V3c0-0.55,0.45-1,1-1h30c0.55,0,1,0.45,1,1V35z"/>
</g>
<linearGradient id="SVGID_2_" gradientUnits="userSpaceOnUse" x1="24" y1="31.9995" x2="40" y2="31.9995" gradientTransform="matrix(1 0 0 -1 0 93)">
	<stop  offset="0.1455" style="stop-color:#CFD8DD"/>
	<stop  offset="0.4056" style="stop-color:#C3CDD2"/>
	<stop  offset="0.877" style="stop-color:#A3B0B6"/>
	<stop  offset="1" style="stop-color:#99A8AE"/>
	<a:midPointStop  offset="0.1455" style="stop-color:#CFD8DD"/>
	<a:midPointStop  offset="0.5745" style="stop-color:#CFD8DD"/>
	<a:midPointStop  offset="1" style="stop-color:#99A8AE"/>
</linearGradient>
<path fill="url(#SVGID_2_)" d="M24,62v-1.551c0-0.598,16-0.598,16,0V62H24z"/>
<circle fill="#FFE12C" cx="32" cy="19" r="12"/>
<path fill="#006DAE" d="M38,23c0,0.55-0.449,1-1,1H27c-0.55,0-1-0.45-1-1V13c0-0.55,0.45-1,1-1h10c0.551,0,1,0.45,1,1V23z"/>
<path fill="#006DAE" d="M27,25.5c0,0.275,0.225,0.5,0.5,0.5h1c0.275,0,0.5-0.225,0.5-0.5V23h-2V25.5z"/>
<path fill="#006DAE" d="M35,23v2.5c0,0.275,0.225,0.5,0.5,0.5h1c0.275,0,0.5-0.225,0.5-0.5V23H35z"/>
<circle fill="#FFE12C" cx="28" cy="21" r="1"/>
<circle fill="#FFE12C" cx="36" cy="21" r="1"/>
<path fill="#FFE12C" d="M36,17.25c0,0.413-0.338,0.75-0.75,0.75h-6.5C28.337,18,28,17.663,28,17.25v-2.5
	c0-0.413,0.337-0.75,0.75-0.75h6.5c0.412,0,0.75,0.337,0.75,0.75V17.25z"/>
</svg>
