<?xml version="1.0" encoding="utf-8"?>
<!-- Generator: Adobe Illustrator 15.0.0, SVG Export Plug-In . SVG Version: 6.00 Build 0)  -->
<!DOCTYPE svg PUBLIC "-//W3C//DTD SVG 1.1//EN" "http://www.w3.org/Graphics/SVG/1.1/DTD/svg11.dtd" [
	<!ENTITY ns_flows "http://ns.adobe.com/Flows/1.0/">
	<!ENTITY ns_extend "http://ns.adobe.com/Extensibility/1.0/">
	<!ENTITY ns_ai "http://ns.adobe.com/AdobeIllustrator/10.0/">
	<!ENTITY ns_graphs "http://ns.adobe.com/Graphs/1.0/">
]>
<svg version="1.1" id="Layer_1" xmlns:x="&ns_extend;" xmlns:i="&ns_ai;" xmlns:graph="&ns_graphs;"
	 xmlns="http://www.w3.org/2000/svg" xmlns:xlink="http://www.w3.org/1999/xlink" xmlns:a="http://ns.adobe.com/AdobeSVGViewerExtensions/3.0/"
	 x="0px" y="0px" width="64px" height="64px" viewBox="0 0 64 64" enable-background="new 0 0 64 64" xml:space="preserve">
<polygon fill="#4E5E67" points="31.691,32.527 31.691,37.886 48,62 49,54 "/>
<polygon fill="#47565E" points="62,62 48,62 48,54 62,53 "/>
<polygon fill="#6E8189" points="32.393,34 48,54 62,54 62,34 "/>
<path fill="#F9B700" d="M33.777,32.923h-0.889L50.05,54h2.153L33.777,32.923z"/>
<path fill="#99A8AE" d="M56,50.547C55.979,46.188,56,2.53,56,2.53c0-0.707-2-0.707-2,0c0,0,0.023,43.657,0,48.017
	C53.998,51.15,56.004,51.15,56,50.547z"/>
<path fill="#018BC9" d="M45,3.5h9v9h-9V3.5z"/>
<path fill="#FFFFFF" d="M51.9,5H47.1c-0.328,0-0.6,0.279-0.6,0.619v4.762c0,0.34,0.271,0.619,0.6,0.619h4.803
	c0.328,0,0.599-0.278,0.599-0.619V5.619C52.5,5.279,52.23,5,51.9,5z M47.701,10.588c-0.275,0-0.5-0.231-0.5-0.517
	c0-0.286,0.225-0.517,0.5-0.517s0.5,0.231,0.5,0.517C48.201,10.357,47.977,10.588,47.701,10.588z M51.301,10.588
	c-0.275,0-0.5-0.231-0.5-0.517c0-0.286,0.225-0.517,0.5-0.517s0.5,0.231,0.5,0.517C51.801,10.357,51.576,10.588,51.301,10.588z
	 M51.751,8.523c0,0.17-0.136,0.31-0.301,0.31h-3.899c-0.164,0-0.3-0.139-0.3-0.31V6.046c0-0.17,0.136-0.31,0.3-0.31h3.899
	c0.165,0,0.301,0.139,0.301,0.31V8.523z"/>
<path fill="#99A8AE" d="M30.994,8H13.006c-1.417,0-2.568,1.15-2.568,2.57c0,0.354,0.289,0.642,0.645,0.642s0.643-0.288,0.643-0.642
	c0-0.71,0.575-1.285,1.282-1.285h3.496c1.496,0,1.644,0.713,1.896,1.892c0.074,0.355,0.164,1.771,0.33,2.166h1.563
	c-0.338-0.206-0.472-1.638-0.636-2.43c-0.106-0.497-0.233-1.099-0.545-1.628h5.781c-0.313,0.529-0.438,1.132-0.543,1.628
	c-0.168,0.792-0.301,2.224-0.639,2.43h1.561c0.166-0.395,0.258-1.812,0.332-2.166c0.25-1.179,0.401-1.892,1.895-1.892h3.498
	c0.707,0,1.283,0.575,1.283,1.285c0,0.354,0.289,0.642,0.645,0.642c0.354,0,0.641-0.288,0.641-0.642C33.563,9.15,32.412,8,30.994,8z
	"/>
<polygon fill="#4E5E67" points="28.387,39.281 15.613,39.281 5.521,62 38.479,62 "/>
<polygon fill="#302C3B" points="35.379,62 36.947,62 22.785,28.417 "/>
<polygon fill="#B3C2C6" points="38.479,62 42,62 22.785,28.417 "/>
<polygon fill="#302C3B" points="7.052,62 8.621,62 21.216,28.417 "/>
<polygon fill="#B3C2C6" points="5.521,62 2,62 21.216,28.417 "/>
<path fill="#014D87" d="M6,45c0,2,2,8,3,8h26c1,0,3-6,3-8v-5H6V45z"/>
<path fill="#018BC9" d="M6,35v6c0,2,2,8,5,8h22c3,0,5-6,5-8v-6H6z"/>
<linearGradient id="SVGID_1_" gradientUnits="userSpaceOnUse" x1="-172" y1="123" x2="-172" y2="157" gradientTransform="matrix(1 0 0 -1 194 170)">
	<stop  offset="0" style="stop-color:#C6CFD4"/>
	<stop  offset="0.5131" style="stop-color:#DCE3E7"/>
	<stop  offset="0.8606" style="stop-color:#E6EBEF"/>
	<a:midPointStop  offset="0" style="stop-color:#C6CFD4"/>
	<a:midPointStop  offset="0.5" style="stop-color:#C6CFD4"/>
	<a:midPointStop  offset="0.5131" style="stop-color:#DCE3E7"/>
	<a:midPointStop  offset="0.5" style="stop-color:#DCE3E7"/>
	<a:midPointStop  offset="0.8606" style="stop-color:#E6EBEF"/>
</linearGradient>
<path fill="url(#SVGID_1_)" d="M32,13H12c-4.62,0-6,3.047-6,5v17l6,4c4.852,3.234,4,8,8,8h4c4,0,4.268-5.512,8-8l6-4V18
	C38,16.047,36.62,13,32,13z"/>
<circle fill="#FFFFFF" cx="11" cy="44" r="2"/>
<circle fill="#FFFFFF" cx="33" cy="44" r="2"/>
<path fill="#013366" d="M24,51h-4l-1,2h6L24,51z"/>
<path fill="#99A8AE" d="M33,17H11c-3,0-2,7-2,7h26C35,24,36,17,33,17z"/>
<linearGradient id="SVGID_2_" gradientUnits="userSpaceOnUse" x1="-172" y1="130" x2="-172" y2="152" gradientTransform="matrix(1 0 0 -1 194 170)">
	<stop  offset="0" style="stop-color:#302C3B"/>
	<stop  offset="0.2358" style="stop-color:#41424F"/>
	<stop  offset="0.7404" style="stop-color:#616B76"/>
	<stop  offset="1" style="stop-color:#6E7B85"/>
	<a:midPointStop  offset="0" style="stop-color:#302C3B"/>
	<a:midPointStop  offset="0.4424" style="stop-color:#302C3B"/>
	<a:midPointStop  offset="1" style="stop-color:#6E7B85"/>
</linearGradient>
<path fill="url(#SVGID_2_)" d="M33,18H11c-2,0-2,6-2,6s0.594,10.594,3,13c4,4,16,4,20,0c2.404-2.404,3-13,3-13S35,18,33,18z"/>
<path fill="#302C3B" d="M31.54,23.191H12.462c-2.657,0-2.657-4.382,0-4.382H31.54C34.197,18.809,34.197,23.191,31.54,23.191z"/>
<path fill="#F9B700" d="M18.197,21.62c-0.004-0.067,0.031-0.102,0.094-0.102h0.375c0.059,0,0.091,0.035,0.102,0.098
	c0.027,0.238,0.171,0.331,0.396,0.331c0.254,0,0.402-0.12,0.402-0.357v-1.937c0-0.063,0.034-0.098,0.098-0.098h0.371
	c0.063,0,0.099,0.035,0.099,0.098v1.937c0,0.624-0.47,0.91-0.97,0.91C18.687,22.5,18.24,22.242,18.197,21.62z"/>
<path fill="#F9B700" d="M20.497,21c0-0.844,0.667-1.5,1.5-1.5c0.832,0,1.5,0.656,1.5,1.5c0,0.844-0.668,1.5-1.5,1.5
	C21.164,22.5,20.497,21.844,20.497,21z M22.93,21c0-0.555-0.409-0.947-0.933-0.947c-0.524,0-0.933,0.392-0.933,0.947
	c0,0.555,0.408,0.947,0.933,0.947C22.521,21.947,22.93,21.555,22.93,21z"/>
<path fill="#F9B700" d="M25.787,19.673l-0.878,1.489v1.184c0,0.063-0.035,0.098-0.099,0.098h-0.371
	c-0.063,0-0.099-0.035-0.099-0.098v-1.186l-0.877-1.488c-0.039-0.069-0.009-0.118,0.066-0.118h0.432c0.054,0,0.09,0.023,0.114,0.069
	l0.55,0.99l0.549-0.99c0.025-0.046,0.061-0.069,0.115-0.069h0.431C25.796,19.555,25.827,19.604,25.787,19.673z"/>
</svg>
