<?xml version="1.0" encoding="utf-8"?>
<!-- Generator: Adobe Illustrator 15.0.0, SVG Export Plug-In . SVG Version: 6.00 Build 0)  -->
<!DOCTYPE svg PUBLIC "-//W3C//DTD SVG 1.1//EN" "http://www.w3.org/Graphics/SVG/1.1/DTD/svg11.dtd" [
	<!ENTITY ns_flows "http://ns.adobe.com/Flows/1.0/">
	<!ENTITY ns_extend "http://ns.adobe.com/Extensibility/1.0/">
	<!ENTITY ns_ai "http://ns.adobe.com/AdobeIllustrator/10.0/">
	<!ENTITY ns_graphs "http://ns.adobe.com/Graphs/1.0/">
]>
<svg version="1.1" id="Layer_1" xmlns:x="&ns_extend;" xmlns:i="&ns_ai;" xmlns:graph="&ns_graphs;"
	 xmlns="http://www.w3.org/2000/svg" xmlns:xlink="http://www.w3.org/1999/xlink" xmlns:a="http://ns.adobe.com/AdobeSVGViewerExtensions/3.0/"
	 x="0px" y="0px" width="64px" height="64px" viewBox="0 0 64 64" enable-background="new 0 0 64 64" xml:space="preserve">
<g>
	<g>
		<path fill="#302C3B" d="M47.85,14c-14.539,0-29.958,0-44.652,0c-0.568,0-1.546,1-1.071,1c17.763,0,28.563,0,44.651,0
			C47.249,15,48.413,14,47.85,14z"/>
		<rect x="24.219" y="17.293" fill="#4E5E67" width="1.563" height="1.5"/>
		<rect x="23.787" y="14.618" fill="#302C3B" width="2.426" height="3.025"/>
		<rect x="21" y="13" fill="#4E5E67" width="8" height="3"/>
	</g>
	<g>
		<path fill="#302C3B" d="M60.264,26.652c0,0.215-10.48,0.215-10.48,0C49.783,26.436,60.264,26.436,60.264,26.652z"/>
		<path fill="#302C3B" d="M55.023,31.768c-0.221,0-0.221-10.23,0-10.23C55.246,21.537,55.246,31.768,55.023,31.768z"/>
		<path fill="#302C3B" d="M58.729,30.268c-0.158,0.152-7.566-7.078-7.41-7.234C51.477,22.883,58.887,30.115,58.729,30.268z"/>
		<path fill="#302C3B" d="M51.318,30.268c-0.156-0.152,7.254-7.387,7.41-7.234C58.887,23.188,51.477,30.422,51.318,30.268z"/>
	</g>
	<ellipse fill="#E81C27" cx="55.024" cy="26.652" rx="1.392" ry="1.359"/>
	<linearGradient id="SVGID_1_" gradientUnits="userSpaceOnUse" x1="35.2227" y1="25.209" x2="35.2227" y2="20.875">
		<stop  offset="0" style="stop-color:#99A8AE"/>
		<stop  offset="0.0993" style="stop-color:#A6B4BB"/>
		<stop  offset="0.3212" style="stop-color:#BCCBD3"/>
		<stop  offset="0.5279" style="stop-color:#CAD8E1"/>
		<stop  offset="0.703" style="stop-color:#CFDDE6"/>
		<a:midPointStop  offset="0" style="stop-color:#99A8AE"/>
		<a:midPointStop  offset="0.3276" style="stop-color:#99A8AE"/>
		<a:midPointStop  offset="0.703" style="stop-color:#CFDDE6"/>
	</linearGradient>
	<path fill="url(#SVGID_1_)" d="M33.152,22.14c0.062-0.776,3.787-1.292,3.996-1.264c0.21,0.029,0.235,3.353-0.13,3.353
		c-0.366,0-3.632,0.323-3.736,0.91S33.126,22.463,33.152,22.14z"/>
	<path fill="#B00505" d="M50.002,24.684c-7.704,1.161-15.623,0.573-15.623,0.573s0-1.353,0-2.332c0-0.982-1.984-2.063-1.984-2.785
		c0-0.645-0.069-1.566-0.279-1.566H19.75c-0.916,0-1.392,1.98-6.129,3.743c3.147,10.392,29.408,6.826,36.381,5.896V24.684z"/>
	<linearGradient id="SVGID_2_" gradientUnits="userSpaceOnUse" x1="27.8584" y1="43.8506" x2="27.8584" y2="21.2964">
		<stop  offset="0" style="stop-color:#C40000"/>
		<stop  offset="0.0656" style="stop-color:#CE0002"/>
		<stop  offset="0.2453" style="stop-color:#E40008"/>
		<stop  offset="0.4433" style="stop-color:#F3000B"/>
		<stop  offset="0.6717" style="stop-color:#FC000D"/>
		<stop  offset="1" style="stop-color:#FF000E"/>
		<a:midPointStop  offset="0" style="stop-color:#C40000"/>
		<a:midPointStop  offset="0.2242" style="stop-color:#C40000"/>
		<a:midPointStop  offset="1" style="stop-color:#FF000E"/>
	</linearGradient>
	<path fill="url(#SVGID_2_)" d="M6.479,40.763c7.142,6.297,26.57,2.081,28.128-4.742c0.313-1.372,15.74-5.56,15.74-5.56
		l-0.346-3.704c0,0-12.694,1.43-15.518,1.068c-2.168-2.333-6.688-5.479-10.19-6.116c-0.688-0.126-7.678-1.42-12.728,1.334
		C7.582,26.43,3.292,36.111,6.479,40.763z"/>
	<linearGradient id="SVGID_3_" gradientUnits="userSpaceOnUse" x1="7.4092" y1="40.7627" x2="7.4092" y2="23.0435">
		<stop  offset="0" style="stop-color:#302C3B"/>
		<stop  offset="0.2926" style="stop-color:#454754"/>
		<stop  offset="0.7557" style="stop-color:#636D78"/>
		<stop  offset="1" style="stop-color:#6E7B85"/>
		<a:midPointStop  offset="0" style="stop-color:#302C3B"/>
		<a:midPointStop  offset="0.4364" style="stop-color:#302C3B"/>
		<a:midPointStop  offset="1" style="stop-color:#6E7B85"/>
	</linearGradient>
	<path fill="url(#SVGID_3_)" d="M11.566,23.043c-1.764,1.302-14.02,11.818-5.087,17.72C6.103,35.557,9.022,25.707,11.566,23.043z"/>
	<linearGradient id="SVGID_4_" gradientUnits="userSpaceOnUse" x1="55.2432" y1="32.5723" x2="55.2432" y2="13">
		<stop  offset="0" style="stop-color:#C40000"/>
		<stop  offset="0.0656" style="stop-color:#CE0002"/>
		<stop  offset="0.2453" style="stop-color:#E40008"/>
		<stop  offset="0.4433" style="stop-color:#F3000B"/>
		<stop  offset="0.6717" style="stop-color:#FC000D"/>
		<stop  offset="1" style="stop-color:#FF000E"/>
		<a:midPointStop  offset="0" style="stop-color:#C40000"/>
		<a:midPointStop  offset="0.2242" style="stop-color:#C40000"/>
		<a:midPointStop  offset="1" style="stop-color:#FF000E"/>
	</linearGradient>
	<path fill="url(#SVGID_4_)" d="M58.314,20.875c-0.547-0.555,0.201-6.969,1.025-6.969c0.264,0,0.412-0.906,0.158-0.906
		c-2.855,0-5.191,0.832-5.525,1.617c-2.656,6.258-5.838,11.531-5.455,15.551c0.457,0.803,2.607,2.404,6.508,2.404
		c3.203,0,6.467-3.384,6.854-4.521c0.193-0.57,0.127-1.946,0-2.407C61.678,24.914,60.506,23.093,58.314,20.875z M55.023,30.505
		c-2.18,0-3.945-1.724-3.945-3.853s1.766-3.852,3.945-3.852s3.947,1.723,3.947,3.852S57.203,30.505,55.023,30.505z"/>
	<path fill="#CFD8DD" d="M19.158,31.904c-0.102-0.274-0.183-0.496-0.944-0.148l-0.799,0.365c-0.763,0.348-0.682,0.568-0.58,0.843
		C16.896,33.128,19.219,32.068,19.158,31.904z"/>
	<path fill="#302C3B" d="M16.608,49.428c-0.053,0.433-1.472,0.615-1.412,0.175c0.321-2.383-0.106-5.676-0.99-7.727
		c-0.124-0.286,1.229-0.557,1.365-0.268C16.376,43.323,16.879,47.22,16.608,49.428z"/>
	<path fill="#302C3B" d="M30.281,49.512C30.17,50,28.595,50.209,28.729,49.72c0.862-3.173-0.229-7.573-1.244-9.937
		c-0.142-0.331,1.343-0.646,1.498-0.313C29.902,41.444,31.061,46.105,30.281,49.512z"/>
	<linearGradient id="SVGID_5_" gradientUnits="userSpaceOnUse" x1="22.4214" y1="52.4805" x2="21.9657" y2="49.0172">
		<stop  offset="0" style="stop-color:#343040"/>
		<stop  offset="0.0819" style="stop-color:#3C3B49"/>
		<stop  offset="0.3563" style="stop-color:#525A64"/>
		<stop  offset="0.5091" style="stop-color:#5B666E"/>
		<a:midPointStop  offset="0" style="stop-color:#343040"/>
		<a:midPointStop  offset="0.4235" style="stop-color:#343040"/>
		<a:midPointStop  offset="0.5091" style="stop-color:#5B666E"/>
	</linearGradient>
	<path fill="url(#SVGID_5_)" d="M36.75,49.299c-1.779,0-22.693,0-26.914,0c-1.088,0-1.482-1.363-1.822-3.128
		c-0.162-0.843-1.893-0.198-1.744,0.602C6.706,49.115,7.43,51,8.872,51c5.031,0,26.094,0,27.832,0
		C37.748,51,37.779,49.299,36.75,49.299z"/>
	<g>
		<path fill="#BF0505" d="M9.437,40.014c-0.759,0-1.18-0.13-1.281-0.396c-0.142-0.371-0.457-2.79,0.058-4.967l0.24,0.056
			c-0.495,2.091-0.197,4.482-0.066,4.826c0.058,0.153,0.509,0.29,1.58,0.223c3.089-0.194,9.207-1.913,9.491-3.117
			c0.367-1.551,0.467-5.161,0.326-7.431l0.247-0.016c0.141,2.287,0.038,5.93-0.333,7.501c-0.341,1.438-6.806,3.119-9.716,3.303
			C9.784,40.008,9.603,40.014,9.437,40.014z"/>
	</g>
	<linearGradient id="SVGID_6_" gradientUnits="userSpaceOnUse" x1="14.0693" y1="35.4766" x2="14.0693" y2="23.5132">
		<stop  offset="0" style="stop-color:#302C3B"/>
		<stop  offset="0.2926" style="stop-color:#454754"/>
		<stop  offset="0.7557" style="stop-color:#636D78"/>
		<stop  offset="1" style="stop-color:#6E7B85"/>
		<a:midPointStop  offset="0" style="stop-color:#302C3B"/>
		<a:midPointStop  offset="0.4364" style="stop-color:#302C3B"/>
		<a:midPointStop  offset="1" style="stop-color:#6E7B85"/>
	</linearGradient>
	<path fill="url(#SVGID_6_)" d="M11.366,24.704C10.5,25.845,7.995,34.813,8.099,35.43c0.105,0.618,11.953-5.123,11.944-5.748
		c-0.016-1.165-0.016-5.099-1.286-5.982C17.937,23.128,11.915,23.983,11.366,24.704z"/>
</g>
</svg>
