<?xml version="1.0" encoding="utf-8"?>
<!-- Generator: Adobe Illustrator 15.0.0, SVG Export Plug-In . SVG Version: 6.00 Build 0)  -->
<!DOCTYPE svg PUBLIC "-//W3C//DTD SVG 1.1//EN" "http://www.w3.org/Graphics/SVG/1.1/DTD/svg11.dtd" [
	<!ENTITY ns_flows "http://ns.adobe.com/Flows/1.0/">
	<!ENTITY ns_extend "http://ns.adobe.com/Extensibility/1.0/">
	<!ENTITY ns_ai "http://ns.adobe.com/AdobeIllustrator/10.0/">
	<!ENTITY ns_graphs "http://ns.adobe.com/Graphs/1.0/">
]>
<svg version="1.1" id="Layer_1" xmlns:x="&ns_extend;" xmlns:i="&ns_ai;" xmlns:graph="&ns_graphs;"
	 xmlns="http://www.w3.org/2000/svg" xmlns:xlink="http://www.w3.org/1999/xlink" xmlns:a="http://ns.adobe.com/AdobeSVGViewerExtensions/3.0/"
	 x="0px" y="0px" width="64px" height="64px" viewBox="0 0 64 64" enable-background="new 0 0 64 64" xml:space="preserve">
<path fill="#F59E01" d="M33.673,21h-1.876v3h3.953C35.75,24,35.295,21,33.673,21z"/>
<path fill="#AB5110" d="M32.291,21.502h-0.494V24h0.494V21.502z"/>
<path fill="#4E5E67" d="M56.596,56.075c-5.906,0-40.663,0-46.45,0C2.438,56.075,2,52.999,2,52.999h59.234
	C61.234,52.999,60.342,56.075,56.596,56.075z"/>
<linearGradient id="SVGID_1_" gradientUnits="userSpaceOnUse" x1="32.0005" y1="55" x2="32.0005" y2="24.0005">
	<stop  offset="0" style="stop-color:#F9C802"/>
	<stop  offset="1" style="stop-color:#FFE600"/>
	<a:midPointStop  offset="0" style="stop-color:#F9C802"/>
	<a:midPointStop  offset="0.5" style="stop-color:#F9C802"/>
	<a:midPointStop  offset="1" style="stop-color:#FFE600"/>
</linearGradient>
<path fill="url(#SVGID_1_)" d="M60.563,43.35c0,0-0.832-2.141-0.063-3.65c0,0,0.322-1.709-0.541-2.679
	c-0.867-0.656-3.064-0.677-3.646-1.599c-1.281-2.031-4.596-7.643-5.688-9.451C50.088,25.081,48.574,24,46.875,24H30.813
	c-1.885,0-3.182,1.242-3.938,1.971C25.096,27.684,16.75,36.484,16.75,36.484C4.906,38.797,2.988,42.318,2.988,42.318v2.13
	C2.988,45.226,2,46.208,2,47.24c0,2.927,0,5.759,0,5.759S2.144,55,7.933,55h50.206c5.598,0,3.867-10.595,2.44-10.595
	C60.299,43.916,60.563,43.35,60.563,43.35z"/>
<linearGradient id="SVGID_2_" gradientUnits="userSpaceOnUse" x1="77.4707" y1="-568.9702" x2="78.6533" y2="-568.9702" gradientTransform="matrix(0 -1 1 0 605.7095 121.9531)">
	<stop  offset="0" style="stop-color:#FFE600"/>
	<stop  offset="1" style="stop-color:#F9C802"/>
	<a:midPointStop  offset="0" style="stop-color:#FFE600"/>
	<a:midPointStop  offset="0.5" style="stop-color:#FFE600"/>
	<a:midPointStop  offset="1" style="stop-color:#F9C802"/>
</linearGradient>
<path fill="url(#SVGID_2_)" d="M60.579,44.405l-0.016-1.056c0,0-36.93-0.298-47.664,0.562
	C23.656,44.771,60.579,44.405,60.579,44.405z"/>
<path fill="#E81C27" d="M60.5,39.699h-2.031l-0.744,3.65h2.839C60.563,43.35,61.699,42.149,60.5,39.699z"/>
<linearGradient id="SVGID_3_" gradientUnits="userSpaceOnUse" x1="37.1523" y1="37.0205" x2="37.1523" y2="25.9712">
	<stop  offset="0" style="stop-color:#302C3B"/>
	<stop  offset="0.2926" style="stop-color:#454754"/>
	<stop  offset="0.7557" style="stop-color:#636D78"/>
	<stop  offset="1" style="stop-color:#6E7B85"/>
	<a:midPointStop  offset="0" style="stop-color:#302C3B"/>
	<a:midPointStop  offset="0.4364" style="stop-color:#302C3B"/>
	<a:midPointStop  offset="1" style="stop-color:#6E7B85"/>
</linearGradient>
<path fill="url(#SVGID_3_)" d="M22.36,35.413c-0.655,0.884-0.29,1.607,0.81,1.607h27.758c1.1,0,1.632-0.821,1.184-1.825
	l-3.311-7.398c-0.449-1.005-1.717-1.826-2.816-1.826h-14.63c-1.101,0-2.2,0.692-2.854,1.576L22.36,35.413z"/>
<polygon fill="#F59E01" points="40.5,25.971 38.697,25.971 38.28,37.021 40.84,37.021 "/>
<path fill="#F9C802" d="M41.574,53.626H21.482l-0.018-0.104c-0.505-3.107-0.923-5.602-1.26-7.611
	c-1.224-7.305-1.381-8.243-0.75-8.972c0.28-0.324,1.303-1.562,2.598-3.128c1.854-2.245,4.163-5.04,5.455-6.557
	c1.215-1.427,2.307-2.253,4.289-2.253h14.244c1.894,0,3.134,0.785,3.902,2.47c0.23,0.504,4.522,9.384,4.522,10.822v9.27
	c-1.185-1.438-10.763-3.406-12.871,5.964L41.574,53.626z M21.695,53.376h19.676c2.078-9.556,11.738-7.485,12.845-6.3v-8.783
	c0-1.382-4.269-10.212-4.499-10.719c-0.725-1.585-1.893-2.323-3.676-2.323H31.797c-1.896,0-2.903,0.761-4.1,2.165
	c-1.29,1.516-3.598,4.309-5.453,6.554c-1.295,1.568-2.318,2.807-2.601,3.133c-0.554,0.64-0.372,1.722,0.808,8.766
	C20.785,47.856,21.197,50.317,21.695,53.376z"/>
<rect x="39.436" y="25.126" fill="#F9C802" width="0.25" height="28.375"/>
<rect x="2.988" y="42.318" fill="#E6EBEF" width="3.286" height="2.13"/>
<path fill="#F59E01" d="M7.261,42.318H6.274v2.13h2.2C8.474,44.448,8.397,42.865,7.261,42.318z"/>
<path fill="#1A1626" d="M4.07,50.166H2.514v2.727h3.468C5.982,52.893,5.861,50.867,4.07,50.166z"/>
<path fill="#4E5E67" d="M4.968,50.75H2.216v0.5h3.18C5.28,51.075,5.135,50.909,4.968,50.75z"/>
<path fill="#4E5E67" d="M2.216,52.365h3.67c-0.037-0.15-0.088-0.316-0.163-0.5H2.216V52.365z"/>
<rect x="39.414" y="40.891" fill="#302C3B" width="2.967" height="3"/>
<rect x="36.449" y="43.891" fill="#302C3B" width="2.965" height="3"/>
<rect x="33.482" y="40.891" fill="#302C3B" width="2.967" height="3"/>
<rect x="30.518" y="43.891" fill="#302C3B" width="2.965" height="3"/>
<rect x="27.551" y="40.891" fill="#302C3B" width="2.967" height="3"/>
<rect x="24.586" y="43.891" fill="#302C3B" width="2.965" height="3"/>
<rect x="21.62" y="40.891" fill="#302C3B" width="2.966" height="3"/>
<path fill="#F59E01" d="M25.172,37.263V34.82c0.002-1.03-4.256-0.189-4.256,0.682v1.742C20.916,37.609,25.172,38.11,25.172,37.263z"
	/>
<path fill="#F59E01" d="M37.436,39.099c0-0.475,0-0.861-1.212-0.861h-1.271c-1.213,0-1.213,0.387-1.213,0.861
	C33.74,39.385,37.436,39.385,37.436,39.099z"/>
<path fill="#F59E01" d="M52.117,39.099c0-0.475,0-0.861-1.211-0.861h-1.271c-1.213,0-1.213,0.387-1.213,0.861
	C48.422,39.385,52.117,39.385,52.117,39.099z"/>
<path fill="#1A1626" d="M58.024,55.002c0-4.423-3.578-8.002-8-8.002c-4.414-0.002-7.996,3.586-8,8.002H58.024z"/>
<radialGradient id="SVGID_4_" cx="3.9785" cy="96.626" r="6.0732" gradientTransform="matrix(1.1526 0 0 1.1526 45.4398 -56.3708)" gradientUnits="userSpaceOnUse">
	<stop  offset="0.4909" style="stop-color:#5B666E"/>
	<stop  offset="0.6437" style="stop-color:#525A64"/>
	<stop  offset="0.9181" style="stop-color:#3C3B49"/>
	<stop  offset="1" style="stop-color:#343040"/>
	<a:midPointStop  offset="0.4909" style="stop-color:#5B666E"/>
	<a:midPointStop  offset="0.5765" style="stop-color:#5B666E"/>
	<a:midPointStop  offset="1" style="stop-color:#343040"/>
</radialGradient>
<circle fill="url(#SVGID_4_)" cx="50.024" cy="55" r="7"/>
<circle fill="#E6EBEF" cx="50.025" cy="55" r="4.841"/>
<path fill="#4E5E67" d="M53.554,56.198c0.129-0.377,0.201-0.779,0.201-1.198s-0.072-0.821-0.201-1.197L51.478,55L53.554,56.198z"/>
<path fill="#4E5E67" d="M50.751,53.74l2.074-1.196c-0.531-0.605-1.254-1.038-2.074-1.201V53.74z"/>
<path fill="#4E5E67" d="M46.497,53.802c-0.127,0.377-0.201,0.779-0.201,1.198s0.074,0.821,0.201,1.197L48.573,55L46.497,53.802z"/>
<path fill="#4E5E67" d="M50.751,56.259v2.398c0.822-0.163,1.543-0.596,2.076-1.201L50.751,56.259z"/>
<path fill="#4E5E67" d="M49.298,53.741v-2.398c-0.82,0.163-1.543,0.596-2.074,1.201L49.298,53.741z"/>
<path fill="#4E5E67" d="M49.298,56.26l-2.074,1.196c0.533,0.605,1.254,1.038,2.074,1.201V56.26z"/>
<circle fill="#CFD8DD" cx="50.024" cy="55" r="1.902"/>
<circle fill="#E6EBEF" cx="50.025" cy="55" r="0.632"/>
<path fill="#4E5E67" d="M50.298,53.861c0,0.361-0.545,0.361-0.545,0S50.298,53.5,50.298,53.861z"/>
<path fill="#4E5E67" d="M50.298,56.139c0,0.361-0.545,0.361-0.545,0S50.298,55.777,50.298,56.139z"/>
<path fill="#4E5E67" d="M51.147,54.665c-0.314,0.183-0.586-0.288-0.271-0.47C51.188,54.015,51.46,54.485,51.147,54.665z"/>
<path fill="#4E5E67" d="M49.175,55.805c-0.313,0.181-0.584-0.29-0.271-0.471C49.218,55.152,49.489,55.623,49.175,55.805z"/>
<path fill="#4E5E67" d="M50.874,55.805c-0.313-0.182-0.041-0.652,0.273-0.471C51.46,55.515,51.188,55.985,50.874,55.805z"/>
<path fill="#4E5E67" d="M48.903,54.665c-0.314-0.18-0.041-0.65,0.271-0.47C49.489,54.377,49.218,54.848,48.903,54.665z"/>
<path fill="#1A1626" d="M21.975,55.002c0-4.423-3.578-8.002-8.001-8.002c-4.412-0.002-7.994,3.586-7.998,8.002H21.975z"/>
<radialGradient id="SVGID_5_" cx="-27.2979" cy="96.6279" r="6.073" gradientTransform="matrix(1.1526 0 0 1.1526 45.4398 -56.3708)" gradientUnits="userSpaceOnUse">
	<stop  offset="0.4909" style="stop-color:#5B666E"/>
	<stop  offset="0.6437" style="stop-color:#525A64"/>
	<stop  offset="0.9181" style="stop-color:#3C3B49"/>
	<stop  offset="1" style="stop-color:#343040"/>
	<a:midPointStop  offset="0.4909" style="stop-color:#5B666E"/>
	<a:midPointStop  offset="0.5765" style="stop-color:#5B666E"/>
	<a:midPointStop  offset="1" style="stop-color:#343040"/>
</radialGradient>
<circle fill="url(#SVGID_5_)" cx="13.975" cy="55.002" r="7"/>
<circle fill="#E6EBEF" cx="13.976" cy="55.002" r="4.841"/>
<path fill="#4E5E67" d="M17.504,56.201c0.129-0.378,0.201-0.779,0.201-1.199s-0.072-0.821-0.201-1.197l-2.074,1.197L17.504,56.201z"
	/>
<path fill="#4E5E67" d="M14.702,53.742l2.074-1.197c-0.531-0.604-1.254-1.037-2.074-1.201V53.742z"/>
<path fill="#4E5E67" d="M10.448,53.803c-0.127,0.378-0.199,0.779-0.199,1.199s0.072,0.821,0.199,1.198l2.076-1.198L10.448,53.803z"
	/>
<path fill="#4E5E67" d="M14.702,56.261v2.399c0.824-0.163,1.543-0.597,2.076-1.201L14.702,56.261z"/>
<path fill="#4E5E67" d="M13.249,53.743v-2.399c-0.82,0.164-1.543,0.597-2.074,1.201L13.249,53.743z"/>
<path fill="#4E5E67" d="M13.249,56.262l-2.074,1.197c0.533,0.604,1.254,1.038,2.074,1.201V56.262z"/>
<circle fill="#CFD8DD" cx="13.975" cy="55.002" r="1.902"/>
<circle fill="#E6EBEF" cx="13.977" cy="55.002" r="0.633"/>
<path fill="#4E5E67" d="M14.249,53.864c0,0.36-0.545,0.36-0.545,0C13.704,53.501,14.249,53.501,14.249,53.864z"/>
<path fill="#4E5E67" d="M14.249,56.14c0,0.363-0.545,0.363-0.545,0C13.704,55.779,14.249,55.779,14.249,56.14z"/>
<path fill="#4E5E67" d="M15.098,54.668c-0.314,0.182-0.584-0.289-0.27-0.471C15.139,54.017,15.411,54.486,15.098,54.668z"/>
<path fill="#4E5E67" d="M13.125,55.807c-0.313,0.181-0.584-0.289-0.271-0.471C13.168,55.154,13.44,55.626,13.125,55.807z"/>
<path fill="#4E5E67" d="M14.825,55.807c-0.311-0.181-0.041-0.652,0.273-0.471C15.411,55.518,15.139,55.987,14.825,55.807z"/>
<path fill="#4E5E67" d="M12.854,54.668c-0.314-0.182-0.041-0.651,0.271-0.471C13.44,54.379,13.168,54.85,12.854,54.668z"/>
</svg>
