<?xml version="1.0" encoding="utf-8"?>
<!-- Generator: Adobe Illustrator 15.0.0, SVG Export Plug-In . SVG Version: 6.00 Build 0)  -->
<!DOCTYPE svg PUBLIC "-//W3C//DTD SVG 1.1//EN" "http://www.w3.org/Graphics/SVG/1.1/DTD/svg11.dtd" [
	<!ENTITY ns_flows "http://ns.adobe.com/Flows/1.0/">
	<!ENTITY ns_extend "http://ns.adobe.com/Extensibility/1.0/">
	<!ENTITY ns_ai "http://ns.adobe.com/AdobeIllustrator/10.0/">
	<!ENTITY ns_graphs "http://ns.adobe.com/Graphs/1.0/">
]>
<svg version="1.1" id="Layer_1" xmlns:x="&ns_extend;" xmlns:i="&ns_ai;" xmlns:graph="&ns_graphs;"
	 xmlns="http://www.w3.org/2000/svg" xmlns:xlink="http://www.w3.org/1999/xlink" xmlns:a="http://ns.adobe.com/AdobeSVGViewerExtensions/3.0/"
	 x="0px" y="0px" width="64px" height="64px" viewBox="0 0 64 64" enable-background="new 0 0 64 64" xml:space="preserve">
<path fill="#FFD733" d="M8.995,25.575c-0.592-3.418-0.889-5.209-1.74-5.209c-1.109,0-2.667,0-3.628,0
	c-0.539,0-1.623,0.979-1.623,1.832c0,1.424-0.064,1.9,0.443,1.9c1.702,0,4.625,0,4.625,0l0.592,3.268
	C7.663,27.366,9.106,26.218,8.995,25.575z"/>
<path fill="#FFD733" d="M55.006,25.575c0.592-3.418,0.888-5.209,1.74-5.209c1.109,0,2.666,0,3.628,0
	c0.539,0,1.623,0.979,1.623,1.832c0,1.424,0.063,1.9-0.443,1.9c-1.702,0-4.624,0-4.624,0l-0.592,3.268
	C56.338,27.366,54.895,26.218,55.006,25.575z"/>
<path fill="#FFD733" d="M40.9,4.975C40.781,4.438,40.224,4,39.662,4H24.375c-0.562,0-1.119,0.438-1.238,0.975L22.019,11h20
	L40.9,4.975z"/>
<linearGradient id="SVGID_1_" gradientUnits="userSpaceOnUse" x1="8.1924" y1="62" x2="8.1924" y2="51.0459">
	<stop  offset="0" style="stop-color:#5B666E"/>
	<stop  offset="0.0095" style="stop-color:#59636C"/>
	<stop  offset="0.097" style="stop-color:#494D58"/>
	<stop  offset="0.192" style="stop-color:#3D3C4B"/>
	<stop  offset="0.2988" style="stop-color:#363343"/>
	<stop  offset="0.4424" style="stop-color:#343040"/>
	<a:midPointStop  offset="0" style="stop-color:#5B666E"/>
	<a:midPointStop  offset="0.2361" style="stop-color:#5B666E"/>
	<a:midPointStop  offset="0.4424" style="stop-color:#343040"/>
</linearGradient>
<path fill="url(#SVGID_1_)" d="M2.889,51.046v7.824c0,1.722,1.363,3.13,3.03,3.13h4.546c1.667,0,3.03-1.408,3.03-3.13v-7.824H2.889z
	"/>
<linearGradient id="SVGID_2_" gradientUnits="userSpaceOnUse" x1="55.8086" y1="62" x2="55.8086" y2="51.0459">
	<stop  offset="0" style="stop-color:#5B666E"/>
	<stop  offset="0.0095" style="stop-color:#59636C"/>
	<stop  offset="0.097" style="stop-color:#494D58"/>
	<stop  offset="0.192" style="stop-color:#3D3C4B"/>
	<stop  offset="0.2988" style="stop-color:#363343"/>
	<stop  offset="0.4424" style="stop-color:#343040"/>
	<a:midPointStop  offset="0" style="stop-color:#5B666E"/>
	<a:midPointStop  offset="0.2361" style="stop-color:#5B666E"/>
	<a:midPointStop  offset="0.4424" style="stop-color:#343040"/>
</linearGradient>
<path fill="url(#SVGID_2_)" d="M61.111,51.046v7.824c0,1.722-1.363,3.13-3.032,3.13h-4.544c-1.666,0-3.03-1.408-3.03-3.13v-7.824
	H61.111z"/>
<linearGradient id="SVGID_3_" gradientUnits="userSpaceOnUse" x1="32.0449" y1="50.3779" x2="32.0449" y2="10.0005">
	<stop  offset="0.103" style="stop-color:#F9B700"/>
	<stop  offset="0.1921" style="stop-color:#FBCA00"/>
	<stop  offset="0.3009" style="stop-color:#FDDA00"/>
	<stop  offset="0.4255" style="stop-color:#FFE300"/>
	<stop  offset="0.6" style="stop-color:#FFE600"/>
	<a:midPointStop  offset="0.103" style="stop-color:#F9B700"/>
	<a:midPointStop  offset="0.2289" style="stop-color:#F9B700"/>
	<a:midPointStop  offset="0.6" style="stop-color:#FFE600"/>
</linearGradient>
<path fill="url(#SVGID_3_)" d="M61.777,47.092c0.265-9.593-1.668-16.08-4.481-20.979c-1.945-3.387-4.256-11.077-6.629-14.15
	c-2.019-2.617-35.226-2.617-37.247,0c-2.371,3.073-4.683,10.765-6.627,14.15c-2.813,4.9-4.746,11.384-4.481,20.979
	c0,0,1.425,1.106,2,1.214c13.631,2.544,41.922,2.974,55.465,0C60.349,48.181,61.777,47.092,61.777,47.092z"/>
<path fill="#302C3B" d="M17.435,43.695c-1.145,0.79-1.266,3.337-1.49,5.356c9.384,0.946,22.595,1.037,32.111,0.046
	c-0.223-2.024-0.342-4.604-1.494-5.402C46.116,43.392,18.064,43.262,17.435,43.695z"/>
<rect x="19.057" y="44.346" fill="#4E5E67" width="25.886" height="0.474"/>
<rect x="18.518" y="45.982" fill="#4E5E67" width="26.964" height="0.474"/>
<rect x="17.978" y="47.62" fill="#4E5E67" width="28.044" height="0.474"/>
<linearGradient id="SVGID_4_" gradientUnits="userSpaceOnUse" x1="46.4609" y1="69.1943" x2="46.4609" y2="60.4619" gradientTransform="matrix(1.0341 0 0 1.0385 -16.0452 -15.6973)">
	<stop  offset="0" style="stop-color:#424A4F"/>
	<stop  offset="0.7535" style="stop-color:#535C63"/>
	<stop  offset="1" style="stop-color:#59636B"/>
	<a:midPointStop  offset="0" style="stop-color:#424A4F"/>
	<a:midPointStop  offset="0.5455" style="stop-color:#424A4F"/>
	<a:midPointStop  offset="1" style="stop-color:#59636B"/>
</linearGradient>
<path fill="url(#SVGID_4_)" d="M61.777,47.092c0,0-10.663,2.084-29.732,2.084c-19.07-0.001-29.733-2.084-29.733-2.084
	c-0.351,0.305-0.772,4.852,1,6.214c4.94,3.803,53.368,3.81,57.465,0C62.44,51.76,61.996,47.283,61.777,47.092z"/>
<path fill="#F9B700" d="M11.616,40.81c2.81,0.442,12.607,1.1,20.385,1.1c7.777,0,17.574-0.657,20.383-1.1l0.069,0.253
	C49.63,41.509,39.797,42.169,32,42.169c-7.799,0-17.631-0.66-20.454-1.106L11.616,40.81z"/>
<path fill="#F9B700" d="M11.003,22.699c-2.271,2.216-1.784,5.717-1.223,9.771c0.319,2.307,0.65,4.691,0.522,7.114l0.25,0.013
	c0.128-2.446-0.203-4.843-0.525-7.161c-0.553-3.986-1.03-7.431,1.15-9.558L11.003,22.699z"/>
<path fill="#F9B700" d="M52.997,22.699l-0.175,0.179c2.181,2.127,1.703,5.571,1.15,9.558c-0.322,2.318-0.653,4.715-0.525,7.161
	l0.25-0.013c-0.128-2.423,0.203-4.808,0.522-7.114C54.781,28.416,55.268,24.915,52.997,22.699z"/>
<path fill="#FFFFFF" d="M16.588,41.505c0,0-9.877,0.896-11.993-1.229c-1.251-1.257-0.102-4.858,0.596-5.069
	c0.749-0.228,8.442,0.396,10.235,1.932C16.344,37.922,16.588,41.505,16.588,41.505z"/>
<path fill="#99A8AE" d="M13.026,37.196c-2.332-0.254-2.719,3.351-0.385,3.601C14.971,41.05,15.358,37.445,13.026,37.196z"/>
<path fill="#99A8AE" d="M8.065,36.279c-2.576-0.278-3.037,4.025-0.459,4.305C10.18,40.861,10.641,36.557,8.065,36.279z"/>
<path fill="#FFFFFF" d="M47.448,41.505c0,0,9.877,0.896,11.993-1.229c1.252-1.257,0.102-4.858-0.596-5.069
	c-0.749-0.228-8.441,0.396-10.235,1.932C47.692,37.922,47.448,41.505,47.448,41.505z"/>
<path fill="#99A8AE" d="M51.012,37.196c2.332-0.254,2.718,3.351,0.384,3.601C49.065,41.05,48.68,37.445,51.012,37.196z"/>
<path fill="#99A8AE" d="M55.973,36.279c2.575-0.278,3.036,4.025,0.459,4.305C53.857,40.861,53.396,36.557,55.973,36.279z"/>
<linearGradient id="SVGID_5_" gradientUnits="userSpaceOnUse" x1="32.0005" y1="26.6528" x2="32.0005" y2="11.627">
	<stop  offset="0" style="stop-color:#302C3B"/>
	<stop  offset="0.2926" style="stop-color:#454754"/>
	<stop  offset="0.7557" style="stop-color:#636D78"/>
	<stop  offset="1" style="stop-color:#6E7B85"/>
	<a:midPointStop  offset="0" style="stop-color:#302C3B"/>
	<a:midPointStop  offset="0.4364" style="stop-color:#302C3B"/>
	<a:midPointStop  offset="1" style="stop-color:#6E7B85"/>
</linearGradient>
<path fill="url(#SVGID_5_)" d="M54.301,24.37c-0.929-2.986-3.808-9.38-4.933-11.281c-1.151-1.949-33.584-1.949-34.736,0
	C13.507,14.99,10.628,21.384,9.7,24.37c-0.412,1.322,0.984,1.794,1.6,1.877c3.97,0.541,37.432,0.541,41.402,0
	C53.316,26.164,54.713,25.692,54.301,24.37z"/>
<path fill="#302C3B" d="M29.528,6.102v0.363c0,0.064-0.045,0.1-0.125,0.1h-0.766v2.332C28.637,8.963,28.592,9,28.511,9h-0.476
	c-0.08,0-0.125-0.037-0.125-0.104V6.564h-0.767c-0.08,0-0.125-0.035-0.125-0.1V6.102C27.019,6.037,27.064,6,27.144,6h1.493h0.766
	C29.483,6,29.528,6.037,29.528,6.102z"/>
<path fill="#302C3B" d="M32.608,9h-0.529c-0.069,0-0.121-0.027-0.141-0.086l-0.18-0.453H30.34l-0.178,0.453
	C30.141,8.973,30.091,9,30.02,9h-0.529c-0.09,0-0.135-0.043-0.104-0.115l1.175-2.801C30.583,6.027,30.638,6,30.708,6h0.685
	c0.069,0,0.124,0.027,0.146,0.084l1.175,2.801C32.743,8.957,32.7,9,32.608,9z M31.542,7.908l-0.493-1.254l-0.492,1.254H31.542z"/>
<path fill="#302C3B" d="M35.709,9h-0.551c-0.064,0-0.114-0.02-0.15-0.068l-0.646-0.9l-0.646,0.9C33.681,8.98,33.632,9,33.566,9
	h-0.551c-0.097,0-0.134-0.051-0.084-0.121l1.019-1.42l-0.959-1.336C32.94,6.051,32.978,6,33.074,6h0.551
	c0.066,0,0.115,0.018,0.15,0.068l0.587,0.816l0.587-0.816C34.984,6.018,35.033,6,35.1,6h0.551c0.096,0,0.135,0.051,0.084,0.123
	l-0.96,1.336l1.02,1.42C35.844,8.949,35.805,9,35.709,9z"/>
<path fill="#302C3B" d="M36.418,6h0.476c0.08,0,0.125,0.037,0.125,0.102v2.795C37.019,8.963,36.974,9,36.894,9h-0.476
	c-0.081,0-0.125-0.037-0.125-0.104V6.102C36.293,6.037,36.337,6,36.418,6z"/>
</svg>
