<?xml version="1.0" encoding="utf-8"?>
<!-- Generator: Adobe Illustrator 15.0.0, SVG Export Plug-In . SVG Version: 6.00 Build 0)  -->
<!DOCTYPE svg PUBLIC "-//W3C//DTD SVG 1.1//EN" "http://www.w3.org/Graphics/SVG/1.1/DTD/svg11.dtd" [
	<!ENTITY ns_flows "http://ns.adobe.com/Flows/1.0/">
	<!ENTITY ns_extend "http://ns.adobe.com/Extensibility/1.0/">
	<!ENTITY ns_ai "http://ns.adobe.com/AdobeIllustrator/10.0/">
	<!ENTITY ns_graphs "http://ns.adobe.com/Graphs/1.0/">
]>
<svg version="1.1" id="Layer_1" xmlns:x="&ns_extend;" xmlns:i="&ns_ai;" xmlns:graph="&ns_graphs;"
	 xmlns="http://www.w3.org/2000/svg" xmlns:xlink="http://www.w3.org/1999/xlink" xmlns:a="http://ns.adobe.com/AdobeSVGViewerExtensions/3.0/"
	 x="0px" y="0px" width="64px" height="64px" viewBox="0 0 64 64" enable-background="new 0 0 64 64" xml:space="preserve">
<path fill="#D9B18D" d="M30.256,18.915c-1.238-0.73-2.656,0.873-2.785,1.34c-0.422,1.533-5.15-1.262-4.338-2.994
	c0.707-1.506,0.107-3.434,0.107-3.434C24.146,13.409,27.787,8.114,30.256,18.915z"/>
<path fill="#EBC199" d="M30.551,3.385c3.873,0.971,5.07,3.906,4.148,7.16c-0.209,0.736,0.16,2.059,1.039,2.963
	c0.318,0.33,0.318,0.73,0.125,0.979c-0.375,0.492-1.105,0.432-1.428,0.602c-0.719,0.373-0.078,0.912-0.635,1.379
	c-0.254,0.213-0.893-0.154-0.297,1.143c-0.836,0.504,0.354,2-1.684,2.035c-1.068,0.02-5.326-2.9-5.809-3.82
	c-0.508-0.967-0.221-2.646-0.221-2.646c-2.941-1.133-3.775-3.861-2.885-6.563C24.152,2.84,28.039,2.754,30.551,3.385z"/>
<path fill="#C99B71" d="M33.801,16.467c-0.389,0.193-0.26,0.564-0.26,0.564c0.178,0.016,0.172,0.605-0.092,0.584
	c-0.92-0.082-1.695-0.947-1.932-1.447C32.965,16.221,34.605,15.709,33.801,16.467z"/>
<path fill="#FFFFFF" d="M33.801,16.467c0,0-0.186,0.492-0.26,0.564c-0.287-0.025-1.209-0.314-1.754-0.746L33.801,16.467z"/>
<linearGradient id="SVGID_1_" gradientUnits="userSpaceOnUse" x1="-1696.2246" y1="-55.9209" x2="-1685.1758" y2="-55.9209" gradientTransform="matrix(-0.9962 -0.0872 -0.0872 0.9962 -1659.599 -84.1998)">
	<stop  offset="0" style="stop-color:#BA9757"/>
	<stop  offset="0.6461" style="stop-color:#D8B379"/>
	<stop  offset="1" style="stop-color:#E3BE86"/>
	<a:midPointStop  offset="0" style="stop-color:#BA9757"/>
	<a:midPointStop  offset="0.4303" style="stop-color:#BA9757"/>
	<a:midPointStop  offset="1" style="stop-color:#E3BE86"/>
</linearGradient>
<path fill="url(#SVGID_1_)" d="M24.465,4.684c3.16-3.961,10.354-0.766,10.787,0.309c0.154,0.389-0.16,1.285-0.516,1.848
	c-1.18-0.104-3.43-1.293-5.064-0.691c-2.422,0.891-0.195,5.855-2.365,5.924C26.967,12.083,23.088,6.674,24.465,4.684z"/>
<linearGradient id="SVGID_2_" gradientUnits="userSpaceOnUse" x1="-1696.1572" y1="-54.6367" x2="-1682.5239" y2="-54.6367" gradientTransform="matrix(-0.9962 -0.0872 -0.0872 0.9962 -1659.599 -84.1998)">
	<stop  offset="0" style="stop-color:#E3BE86"/>
	<stop  offset="0.323" style="stop-color:#E0BB83"/>
	<stop  offset="0.5887" style="stop-color:#D7B379"/>
	<stop  offset="0.8333" style="stop-color:#C8A567"/>
	<stop  offset="1" style="stop-color:#BA9757"/>
	<a:midPointStop  offset="0" style="stop-color:#E3BE86"/>
	<a:midPointStop  offset="0.7455" style="stop-color:#E3BE86"/>
	<a:midPointStop  offset="1" style="stop-color:#BA9757"/>
</linearGradient>
<path fill="url(#SVGID_2_)" d="M22.596,4.446c0.918-1.281,2.674-2.729,6.344-2.398c3.313,0.297,5.879,1.871,6.313,2.945
	c-1.217-0.105-4.777-1.982-6.836-0.707c-3.201,1.984-0.848,5.268-1.725,7.123c-1.371,2.906-3.238,3.576-3.238,3.576
	C21.291,13.116,20.221,7.764,22.596,4.446z"/>
<path fill="#C99B71" d="M35.855,14.491c-0.336,0.701-2.092,0.705-2.57-0.225C34.145,15.01,36.049,14.084,35.855,14.491z"/>
<path fill="#EBC199" d="M26.098,9.514c1.439,0.434,1.607,3.787,0.445,4.41c-0.162,0.088-0.973,0.107-1.326-0.742
	c-0.197-0.471-1-1.002-1.039-1.893C24.125,10.147,24.666,9.084,26.098,9.514z"/>
<path id="Path_1331_" fill="#C99B71" d="M25.967,10.124c0.361,0.158,0.674,0.621,0.725,1.285c-1.289-0.473-1.361,1.018-0.201,1.297
	c-0.051,0.139-0.107,0.283-0.18,0.432c-0.416-0.641-1.045-0.555-1.391-1.447C24.609,10.885,25.07,9.727,25.967,10.124z"/>
<path fill="#FFFFFF" d="M31.391,11.254c-0.039,0.211,0.564,1.033,1.412,1.18c0.48,0.084,0.688-0.277,0.834-0.674
	C33.881,10.157,31.934,10.565,31.391,11.254z"/>
<linearGradient id="Path_1_" gradientUnits="userSpaceOnUse" x1="-1694.4878" y1="-51.3755" x2="-1694.4878" y2="-53.0811" gradientTransform="matrix(-0.9962 -0.0872 -0.0872 0.9962 -1659.599 -84.1998)">
	<stop  offset="0" style="stop-color:#A6694A"/>
	<stop  offset="1" style="stop-color:#4F2A1E"/>
	<a:midPointStop  offset="0" style="stop-color:#A6694A"/>
	<a:midPointStop  offset="0.5" style="stop-color:#A6694A"/>
	<a:midPointStop  offset="1" style="stop-color:#4F2A1E"/>
</linearGradient>
<path id="Path_1330_" fill="url(#Path_1_)" d="M33.688,11.559c-0.104,1.174-1.463,1.055-1.361-0.119
	C32.422,10.348,33.781,10.467,33.688,11.559z"/>
<path id="Path_1329_" fill="#1A1626" d="M33.549,11.495c-0.051,0.586-0.729,0.527-0.678-0.061
	C32.918,10.889,33.596,10.948,33.549,11.495z"/>
<path id="Path_1328_" fill="#AB968C" d="M33.15,11.219c-0.021,0.246-0.416,0.211-0.395-0.035
	C32.775,10.954,33.17,10.989,33.15,11.219z"/>
<path fill="#C99B71" d="M31.391,11.254c0.43-0.699,2.297-1.074,2.26-0.08C33.453,10.487,32.07,10.733,31.391,11.254z"/>
<path id="Path_1327_" fill="#A17C5B" d="M31.188,9.555c0.881-0.447,2.484-0.334,3.047,0.082c0.123,0.082-0.004,0.568-0.107,0.512
	C33.33,9.69,31.99,9.563,31.178,9.924C31.066,9.971,31.057,9.618,31.188,9.555z"/>
<path fill="#3AB0A2" d="M12.018,35.384c0,0,8.24,2.053,11.598,1.32c-0.031-7.668,4.615-9.249,4.199-15.506
	c-0.184-2.752-4.469-4.539-4.469-4.539C17.908,20.848,14.477,28.145,12.018,35.384z"/>
<path fill="#B00505" d="M14.193,45.546c16.107-3.523,31.736-8.035,46.805-13.44c0.332-0.025,0.666-0.051,1.002-0.078
	c-0.053-0.664-0.105-1.328-0.158-1.994c-18.832,1.49-37.746,1.572-56.588,0.248c-0.09-0.34-0.18-0.682-0.27-1.021
	C3.99,29.19,2.994,29.114,2,29.036C2.629,37.442,9.344,43.917,14.193,45.546z"/>
<linearGradient id="SVGID_3_" gradientUnits="userSpaceOnUse" x1="5.7754" y1="39.3779" x2="61.1133" y2="39.3779">
	<stop  offset="0" style="stop-color:#FF3B3B"/>
	<stop  offset="0.2816" style="stop-color:#FC3838"/>
	<stop  offset="0.5284" style="stop-color:#F32D2D"/>
	<stop  offset="0.7622" style="stop-color:#E31B1B"/>
	<stop  offset="0.9869" style="stop-color:#CD0302"/>
	<stop  offset="1" style="stop-color:#CC0100"/>
	<a:midPointStop  offset="0" style="stop-color:#FF3B3B"/>
	<a:midPointStop  offset="0.7333" style="stop-color:#FF3B3B"/>
	<a:midPointStop  offset="1" style="stop-color:#CC0100"/>
</linearGradient>
<path fill="url(#SVGID_3_)" d="M14.193,45.546c3.268,1.703,43.047,1.391,46.02-0.621c1.344-4.949,0.785-12.819,0.785-12.819
	c-18.381,1.405-36.836,1.477-55.223,0.219C8.463,41.802,14.199,45.554,14.193,45.546z"/>
<path fill="#B00505" d="M60.746,36.739c-9.363,2.131-40.605,1.535-52.703,0C20.959,37.149,44.084,38.063,60.746,36.739z"/>
<path fill="#B00505" d="M60.176,41.429c-8.688,2.131-37.674,1.537-48.896,0C23.262,41.839,44.717,42.755,60.176,41.429z"/>
<linearGradient id="SVGID_4_" gradientUnits="userSpaceOnUse" x1="38.7236" y1="290.6387" x2="47.4785" y2="290.6387" gradientTransform="matrix(0.7071 0.7071 -0.7071 0.7071 193.792 -184.2116)">
	<stop  offset="0" style="stop-color:#DB9442"/>
	<stop  offset="0.3947" style="stop-color:#CF843D"/>
	<stop  offset="1" style="stop-color:#B86432"/>
	<a:midPointStop  offset="0" style="stop-color:#DB9442"/>
	<a:midPointStop  offset="0.5576" style="stop-color:#DB9442"/>
	<a:midPointStop  offset="1" style="stop-color:#B86432"/>
</linearGradient>
<path fill="url(#SVGID_4_)" d="M20.201,45.468C16.65,47.474,8.316,55.509,8.502,56.833c0.379,2.691,2.504,4.775,5.164,5.164
	c1.34,0.195,9.422-8.064,11.422-11.641c2.996-5.361,2.193-7.088,2.193-7.088S25.514,42.464,20.201,45.468z"/>
<linearGradient id="SVGID_5_" gradientUnits="userSpaceOnUse" x1="40.9463" y1="254.5488" x2="45.2383" y2="254.5488" gradientTransform="matrix(0.7071 0.7071 -0.7071 0.7071 193.792 -184.2116)">
	<stop  offset="0" style="stop-color:#DB9442"/>
	<stop  offset="0.3947" style="stop-color:#CF843D"/>
	<stop  offset="1" style="stop-color:#B86432"/>
	<a:midPointStop  offset="0" style="stop-color:#DB9442"/>
	<a:midPointStop  offset="0.5576" style="stop-color:#DB9442"/>
	<a:midPointStop  offset="1" style="stop-color:#B86432"/>
</linearGradient>
<path fill="url(#SVGID_5_)" d="M47.418,26.139l-3.035-3.035c-1.055,1.057-1.74,4.777-1.74,4.777S46.361,27.2,47.418,26.139z"/>
<linearGradient id="SVGID_6_" gradientUnits="userSpaceOnUse" x1="43.0967" y1="302.707" x2="43.0967" y2="252.2451" gradientTransform="matrix(0.7071 0.7071 -0.7071 0.7071 193.792 -184.2116)">
	<stop  offset="0" style="stop-color:#F5A54A"/>
	<stop  offset="0.3395" style="stop-color:#EB9E47"/>
	<stop  offset="1" style="stop-color:#DB9442"/>
	<a:midPointStop  offset="0" style="stop-color:#F5A54A"/>
	<a:midPointStop  offset="0.4424" style="stop-color:#F5A54A"/>
	<a:midPointStop  offset="1" style="stop-color:#DB9442"/>
</linearGradient>
<path fill="url(#SVGID_6_)" d="M10.813,60.792c0,0-0.594-0.369-1.072-1.059l35.627-35.645l1.064,1.066L10.813,60.792z"/>
<path fill="#EBC199" d="M41.877,27.577l0.711-0.711c-0.805-0.758-1.139-0.012-2.725,1.002c0,0-5.906-0.559-9.75-3.322l-1.803,3.225
	c4.5,2.746,10.424,2.762,10.424,2.762c0.475,0.443,1.969,0.758,2.676,0.65c0.973-0.148,2.076-1.02,1.943-1.77
	C44.547,27.954,42.098,28.358,41.877,27.577z"/>
<path fill="#C99B71" d="M42.533,29.579c0,0,0.656,0.141,0.82-0.166C43.064,29.532,42.533,29.579,42.533,29.579z"/>
<path fill="#C99B71" d="M42.143,30.43c0,0,0.752,0.133,0.916-0.174C42.77,30.374,42.143,30.43,42.143,30.43z"/>
<path fill="#C99B71" d="M41.564,30.924c0,0,0.662,0.195,0.828-0.111C42.102,30.932,41.564,30.924,41.564,30.924z"/>
<path fill="#25A898" d="M27.023,20.239c-0.701-1.143-2.469-1.016-3.461-0.08c-0.996,0.934-0.734,2.26-0.141,3.467
	c0.902,1.828,2.615,3.336,4.619,4.555l2.57-4.162C29.244,23.034,27.98,21.797,27.023,20.239z"/>
</svg>
