<?xml version="1.0" encoding="utf-8"?>
<!-- Generator: Adobe Illustrator 15.0.0, SVG Export Plug-In . SVG Version: 6.00 Build 0)  -->
<!DOCTYPE svg PUBLIC "-//W3C//DTD SVG 1.1//EN" "http://www.w3.org/Graphics/SVG/1.1/DTD/svg11.dtd" [
	<!ENTITY ns_flows "http://ns.adobe.com/Flows/1.0/">
	<!ENTITY ns_extend "http://ns.adobe.com/Extensibility/1.0/">
	<!ENTITY ns_ai "http://ns.adobe.com/AdobeIllustrator/10.0/">
	<!ENTITY ns_graphs "http://ns.adobe.com/Graphs/1.0/">
]>
<svg version="1.1" id="Layer_1" xmlns:x="&ns_extend;" xmlns:i="&ns_ai;" xmlns:graph="&ns_graphs;"
	 xmlns="http://www.w3.org/2000/svg" xmlns:xlink="http://www.w3.org/1999/xlink" xmlns:a="http://ns.adobe.com/AdobeSVGViewerExtensions/3.0/"
	 x="0px" y="0px" width="64px" height="64px" viewBox="0 0 64 64" enable-background="new 0 0 64 64" xml:space="preserve">
<path fill="#E6C2A3" d="M32.652,22.722c0,0-1.464,2.039-2.547,4.31c-1.667,1.646-4.398,5.335-4.874,5.902
	c-0.462,0.549-2.257,1.678-2.406,2.193c-0.634,2.188-0.866,2.338-0.511,3.635c0.271,0.982,0.549,0.232,0.509-0.313
	c-0.06-0.85,0.552-2.182,1.228-1.799c-0.928,1.287-0.309,2.18,0.004,1.678c0.805-1.299,1.543-1.881,1.529-2.941
	c-0.004-0.43,1.292-2.043,4.042-3.396c1.672-0.823,2.925-2.463,3.75-3.943c0.785-1.299,2.236-2.219,2.695-3.086
	C35.394,23.344,34.065,23.383,32.652,22.722z"/>
<linearGradient id="SVGID_1_" gradientUnits="userSpaceOnUse" x1="38.3252" y1="9.9971" x2="47.3291" y2="9.9971">
	<stop  offset="0" style="stop-color:#1E110E"/>
	<stop  offset="0.3478" style="stop-color:#362622"/>
	<stop  offset="0.7394" style="stop-color:#4B3834"/>
	<stop  offset="1" style="stop-color:#523E3A"/>
	<a:midPointStop  offset="0" style="stop-color:#1E110E"/>
	<a:midPointStop  offset="0.3818" style="stop-color:#1E110E"/>
	<a:midPointStop  offset="1" style="stop-color:#523E3A"/>
</linearGradient>
<path fill="url(#SVGID_1_)" d="M45.442,14.705c0.545,0.199,1.166,0.273,1.887,0.143C42.22,11.934,46.343,0.41,38.325,3.44
	l1.125,2.891c2.266,0.438-1.107,6.475,3.041,8.537c-0.408-0.383-0.408-1.183-0.301-2.128c0.795,2.716,1.633,4.642,4.838,4.273
	C46.452,16.888,45.88,15.923,45.442,14.705z"/>
<path fill="#8E3ED6" d="M37.632,3.477c-0.953,0.667,0.23,3.359,2.141,3.474C41.341,7.048,39.2,2.377,37.632,3.477z"/>
<path fill="#E6C2A3" d="M30.636,16.546c1.133-0.54,1.666,0.497,1.742,0.912c0.25,1.365,5.041-0.227,4.466-1.794
	c-0.5-1.362,0.166-2.992,0.166-2.992C36.257,12.241,33.601,7.349,30.636,16.546z"/>
<path fill="#FFD8B4" d="M31.451,3.042c-3.443,0.55-4.705,3.009-4.15,5.907c0.125,0.655-0.297,1.776-1.129,2.496
	c-0.303,0.262-0.334,0.609-0.186,0.841c0.291,0.455,0.93,0.459,1.197,0.63c0.596,0.38-0.002,0.8,0.447,1.248
	c0.205,0.204,0.789-0.066,0.172,1.015c0.686,0.502-0.172,1.641,1.309,1.897c0.701,0.121,3.393-0.955,4.806-2.848
	c0.799-1.069,0.928-2.313,0.928-2.313c2.643-0.762,3.576-3.069,3.006-5.483C37.054,3.056,33.683,2.686,31.451,3.042z"/>
<path fill="#DE935D" d="M27.63,14.165c0.324,0.198,0.182,0.51,0.182,0.51c-0.154,0-0.193,0.514,0.037,0.514
	c0.807,0,1.547-0.692,1.789-1.111C28.375,14.014,26.99,13.444,27.63,14.165z"/>
<path fill="#FFFFFF" d="M27.63,14.165c0,0,0.123,0.441,0.182,0.51c0.254,0,1.076-0.182,1.584-0.516L27.63,14.165z"/>
<linearGradient id="SVGID_2_" gradientUnits="userSpaceOnUse" x1="27.4048" y1="7.9717" x2="40.1016" y2="7.9717">
	<stop  offset="0" style="stop-color:#523E3A"/>
	<stop  offset="0.3094" style="stop-color:#4F3B37"/>
	<stop  offset="0.5639" style="stop-color:#45322F"/>
	<stop  offset="0.7983" style="stop-color:#332420"/>
	<stop  offset="1" style="stop-color:#1E110E"/>
	<a:midPointStop  offset="0" style="stop-color:#523E3A"/>
	<a:midPointStop  offset="0.7455" style="stop-color:#523E3A"/>
	<a:midPointStop  offset="1" style="stop-color:#1E110E"/>
</linearGradient>
<path fill="url(#SVGID_2_)" d="M38.532,4.841c-0.619-1.987-3.648-3.289-6.578-2.708c-2.848,0.565-4.947,2.521-4.486,3.801
	c0.656,1.814,4.684,1.782,6.181,4.854c0.021,0.211,1.084,0.357,1.129,0.543c0.359,1.488,1.502,2.724,1.918,2.612
	C39.606,13.165,41.669,6.049,38.532,4.841z"/>
<path fill="#DEB38A" d="M25.996,12.291c0.238,0.634,1.764,0.771,2.25,0C27.443,12.872,25.857,11.921,25.996,12.291z"/>
<path fill="#FFD8B4" d="M34.856,8.708c-1.285,0.266-1.686,3.168-0.725,3.798c0.135,0.089,0.84,0.167,1.211-0.544
	c0.207-0.394,0.945-0.794,1.047-1.565C36.522,9.408,36.134,8.444,34.856,8.708z"/>
<path id="Path_940_" fill="#DEB38A" d="M34.923,9.247c-0.326,0.111-0.633,0.488-0.729,1.063c1.158-0.313,1.105,0.987,0.078,1.142
	c0.033,0.126,0.072,0.255,0.123,0.389c0.408-0.523,0.951-0.402,1.318-1.151C36.046,10.012,35.733,8.971,34.923,9.247z"/>
<path id="Path_939_" fill="#A88868" d="M30.427,8.355c-0.732-0.424-2.133-0.443-2.656-0.149c-0.111,0.058-0.037,0.458,0.057,0.42
	c0.729-0.313,1.9-0.321,2.582,0.026C30.501,8.698,30.539,8.414,30.427,8.355z"/>
<path fill="#FFFFFF" d="M30.123,9.838c0.016,0.186-0.57,0.854-1.316,0.917c-0.428,0.036-0.58-0.294-0.674-0.648
	C28.039,8.695,29.703,9.197,30.123,9.838z"/>
<linearGradient id="Path_1_" gradientUnits="userSpaceOnUse" x1="28.6987" y1="10.6987" x2="28.6987" y2="9.2109">
	<stop  offset="0" style="stop-color:#A6694A"/>
	<stop  offset="1" style="stop-color:#4F2A1E"/>
	<a:midPointStop  offset="0" style="stop-color:#A6694A"/>
	<a:midPointStop  offset="0.5" style="stop-color:#A6694A"/>
	<a:midPointStop  offset="1" style="stop-color:#4F2A1E"/>
</linearGradient>
<path id="Path_938_" fill="url(#Path_1_)" d="M28.103,9.927c0,1.028,1.191,1.028,1.191,0C29.294,8.972,28.103,8.972,28.103,9.927z"
	/>
<path id="Path_937_" fill="#1A1626" d="M28.226,9.881c0,0.514,0.596,0.514,0.596,0C28.822,9.403,28.226,9.403,28.226,9.881z"/>
<path id="Path_936_" fill="#AB968C" d="M28.595,9.673c0,0.215,0.346,0.215,0.346,0C28.941,9.472,28.595,9.472,28.595,9.673z"/>
<path fill="#45332C" d="M30.123,9.838C29.8,9.197,28.205,8.73,28.162,9.596C28.386,9.014,29.57,9.333,30.123,9.838z"/>
<path fill="#6E8189" d="M16.378,55.641c0,0-0.596,0.072-0.291,0.34c3.877,3.393,8.947,6.025,8.947,6.025
	c0.293-0.113,0.289-0.443,0.289-0.443L16.378,55.641z"/>
<path fill="#99A8AE" d="M24.38,56.988c-4.373-1.709-7.33-2.521-8.002-1.348c4.914,3.92,8.945,5.922,8.945,5.922
	C27.419,59.697,26.212,58.072,24.38,56.988z"/>
<path fill="#1A1626" d="M19.697,55.402c0.385,1.219,0.861,1.662,1.217,1.143c0.334,0.682,0.809,0.527,0.984,0.199
	c0.447,0.566,0.932,0.156,0.553-0.793C22.22,55.434,19.593,55.074,19.697,55.402z"/>
<path fill="#6E8189" d="M40.087,61.563c0,0-0.234,0.307,0.086,0.443c4.076-0.305,7.826-7.414,7.826-7.414
	c0-0.283-0.262-0.453-0.262-0.453L40.087,61.563z"/>
<path fill="#99A8AE" d="M43.608,54.717c-3.215,4.313-3.799,5.809-3.521,6.846c3.914-0.408,7.65-7.424,7.65-7.424
	C45.765,50.889,44.177,53.955,43.608,54.717z"/>
<path fill="#1A1626" d="M40.942,58.547c1.268-0.021,1.832-0.352,1.451-0.846c0.746-0.125,0.744-0.629,0.49-0.896
	c0.672-0.266,0.432-0.855-0.576-0.764C41.747,56.115,40.601,58.553,40.942,58.547z"/>
<path fill="#1A1626" d="M36.874,32.311c-8.222-1.227-7.5,2.283-7.5,2.283c1.205,6.002,3.816,13.25,4.806,14.496
	c0.826,1.041,4.754,3.682,7.836,7.32c2.154-1.021,6.002-2.369,4.951-3.396c-3.998-3.91-7.848-7.383-7.848-7.383
	C36.39,41.211,35.661,36.465,36.874,32.311z"/>
<path fill="#302C3B" d="M37.007,32.209c0,0-4.773-3.006-6.712,1.799c-0.666,4.633-4.568,9.127-5.252,10.58
	c-0.746,1.59-1.355,7-3.34,10.945c2.236,1.801,4.307,6.086,4.727,4.73c1.867-6.021,4.059-13.424,4.059-13.424
	C36.353,38.713,39.3,39.59,37.007,32.209z"/>
<path fill="#8E3ED6" d="M37.007,32.209c0,0-3.125,0.166-7.699,2.416c-0.393-2.721,1.092-7.377,0.305-8.107
	c-3.041-2.815,1.023-3.796,1.943-7.974c0.129-0.587,0.479-1.242,0.742-1.341c0.613,2.114,3.111-1.448,4.519-1.62
	C41.403,19.474,35.778,27.433,37.007,32.209z"/>
<path fill="#E6C2A3" d="M42.509,25.822c-0.178-0.502-1.191-2.333-2.213-4.131c-1.166,0.574-2.313,1.177-3.426,1.816
	c0.998,1.364,2.025,2.813,2.568,3.709c0.178,2.477,1.008,4.952,0.734,7.858c-0.125,1.258-0.971,0.5-1.674,3.141
	c-0.11,0.414,0.844,0.359,1.154-0.592c0.967,0.398-1.076,3.639,0.393,3.045c0.531,0.156,1.891-0.422,2.453-2.422
	c0.091-0.324,0.141-2.748,0.076-3.07C42.329,33.928,42.829,26.707,42.509,25.822z"/>
<path fill="#DEB38A" d="M40.78,38.871c0,0-0.248,1.305-0.734,1.797C40.702,40.262,40.78,38.871,40.78,38.871z"/>
<path fill="#DEB38A" d="M41.593,38.477c0,0-0.326,1.592-0.813,2.082C41.437,40.152,41.593,38.477,41.593,38.477z"/>
<path fill="#DEB38A" d="M42.115,38.387c0,0-0.171,1.217-0.657,1.707C42.114,39.688,42.115,38.387,42.115,38.387z"/>
<path fill="#732EB0" d="M41.364,23.075c-0.809-1.517-1.949-3.49-3.314-5.621c-1.473-2.296-4.941-0.164-3.75,2.302
	c0.646,1.341,1.678,3.123,3.318,5.51C38.782,24.436,40.042,23.7,41.364,23.075z"/>
</svg>
