<?xml version="1.0" encoding="utf-8"?>
<!-- Generator: Adobe Illustrator 15.0.0, SVG Export Plug-In . SVG Version: 6.00 Build 0)  -->
<!DOCTYPE svg PUBLIC "-//W3C//DTD SVG 1.1//EN" "http://www.w3.org/Graphics/SVG/1.1/DTD/svg11.dtd" [
	<!ENTITY ns_flows "http://ns.adobe.com/Flows/1.0/">
	<!ENTITY ns_extend "http://ns.adobe.com/Extensibility/1.0/">
	<!ENTITY ns_ai "http://ns.adobe.com/AdobeIllustrator/10.0/">
	<!ENTITY ns_graphs "http://ns.adobe.com/Graphs/1.0/">
]>
<svg version="1.1" id="Layer_1" xmlns:x="&ns_extend;" xmlns:i="&ns_ai;" xmlns:graph="&ns_graphs;"
	 xmlns="http://www.w3.org/2000/svg" xmlns:xlink="http://www.w3.org/1999/xlink" xmlns:a="http://ns.adobe.com/AdobeSVGViewerExtensions/3.0/"
	 x="0px" y="0px" width="64px" height="64px" viewBox="0 0 64 64" enable-background="new 0 0 64 64" xml:space="preserve">
<path fill="#FAC150" d="M23.629,19.761c0.986-1.002,2.775-0.423,3.014-0.013c0.786,1.34,4.503-1.922,3.298-3.352
	c-1.05-1.244-0.97-3.216-0.97-3.216C28.008,13.015,23.229,8.937,23.629,19.761z"/>
<path fill="#7A6056" d="M17.305,14.003c-0.535-2.915,2.326-4.779,0.33-7.005C14.592,8.992,15.268,11.778,17.305,14.003z"/>
<path fill="#FFCC66" d="M19.422,5.17c-3.416,1.899-3.804,4.974-2.108,7.813c0.384,0.643,0.37,1.983-0.232,3.063
	c-0.219,0.392-0.117,0.767,0.128,0.955c0.481,0.368,1.155,0.127,1.501,0.204c0.774,0.172,0.306,0.844,0.952,1.145
	c0.292,0.136,0.804-0.374,0.568,1.003c0.915,0.265,0.171,1.978,2.104,1.498c1.016-0.254,3.813-3.644,4.059-4.958
	c0.284-1.531,0.002-2.678,0.002-2.678c2.492-1.815,2.59-4.603,1.065-6.926C25.329,3.036,21.637,3.94,19.422,5.17z"/>
<path fill="#DB9D3A" d="M19.663,18.349c0.416,0.084,0.385,0.468,0.385,0.468c-0.164,0.06-0.007,0.613,0.235,0.524
	c0.849-0.31,1.363-1.321,1.458-1.855C20.389,17.905,18.711,17.835,19.663,18.349z"/>
<path fill="#FFFFFF" d="M19.663,18.349c0,0,0.298,0.416,0.385,0.468c0.267-0.097,1.064-0.605,1.47-1.15L19.663,18.349z"/>
<path fill="#DB9D3A" d="M17.221,17c0.494,0.579,2.152,0.138,2.37-0.861C18.967,17.058,16.933,16.667,17.221,17z"/>
<path id="Path_404_" fill="#966F42" d="M20.381,11.158c-0.934-0.166-2.418,0.352-2.855,0.862c-0.097,0.103,0.135,0.495,0.22,0.42
	c0.646-0.609,1.879-1.068,2.729-0.964C20.588,11.49,20.52,11.176,20.381,11.158z"/>
<linearGradient id="SVGID_1_" gradientUnits="userSpaceOnUse" x1="35.2363" y1="340.8838" x2="25.5812" y2="330.4807" gradientTransform="matrix(0.9397 -0.342 0.342 0.9397 -119.4899 -295.3305)">
	<stop  offset="0" style="stop-color:#473834"/>
	<stop  offset="0.1952" style="stop-color:#5B4842"/>
	<stop  offset="0.4314" style="stop-color:#6D554D"/>
	<stop  offset="0.6881" style="stop-color:#775D54"/>
	<stop  offset="1" style="stop-color:#7A6056"/>
	<a:midPointStop  offset="0" style="stop-color:#473834"/>
	<a:midPointStop  offset="0.2545" style="stop-color:#473834"/>
	<a:midPointStop  offset="1" style="stop-color:#7A6056"/>
</linearGradient>
<path fill="url(#SVGID_1_)" d="M21.112,7.5c3.964,1.785,6.099,5.41,6.781,8.463C31.367,13.018,29.161,3.475,21.112,7.5z"/>
<linearGradient id="SVGID_2_" gradientUnits="userSpaceOnUse" x1="36.2158" y1="340.499" x2="25.7246" y2="329.1951" gradientTransform="matrix(0.9397 -0.342 0.342 0.9397 -119.4899 -295.3305)">
	<stop  offset="0" style="stop-color:#473834"/>
	<stop  offset="0.1952" style="stop-color:#5B4842"/>
	<stop  offset="0.4314" style="stop-color:#6D554D"/>
	<stop  offset="0.6881" style="stop-color:#775D54"/>
	<stop  offset="1" style="stop-color:#7A6056"/>
	<a:midPointStop  offset="0" style="stop-color:#473834"/>
	<a:midPointStop  offset="0.2545" style="stop-color:#473834"/>
	<a:midPointStop  offset="1" style="stop-color:#7A6056"/>
</linearGradient>
<path fill="url(#SVGID_2_)" d="M29.682,15.019c1.387-2.524,0.473-7.582-2.266-10.102c-2.021-1.859-4.267-2.354-7.65-1.112
	c-2.741,1.004-4.448,3.401-4.251,5.376c0.275,2.751,4.22,1.203,6.272,2.794c0,0,0.087-1.58-1.599-3.127
	C26.796,13.731,26.706,6.958,29.682,15.019z"/>
<path fill="#FFCC66" d="M25.18,9.833c-1.251,0.772-0.561,3.982,0.695,4.278c0.176,0.04,0.946-0.146,1.067-1.039
	c0.065-0.494,0.688-1.198,0.502-2.051C27.202,9.93,26.424,9.065,25.18,9.833z"/>
<path id="Path_403_" fill="#DB9D3A" d="M25.458,10.372c-0.302,0.243-0.48,0.759-0.359,1.4c1.099-0.775,1.543,0.616,0.518,1.172
	c0.083,0.121,0.175,0.242,0.28,0.363c0.23-0.71,0.846-0.789,0.945-1.719C26.932,10.748,26.205,9.773,25.458,10.372z"/>
<path fill="#FFFFFF" d="M20.631,12.848c0.089,0.189-0.272,1.118-1.035,1.471c-0.434,0.201-0.722-0.088-0.958-0.425
	C18,12.443,19.943,12.333,20.631,12.848z"/>
<linearGradient id="Path_1_" gradientUnits="userSpaceOnUse" x1="24.6792" y1="338.4814" x2="24.6792" y2="336.8154" gradientTransform="matrix(0.9397 -0.342 0.342 0.9397 -119.4899 -295.3305)">
	<stop  offset="0" style="stop-color:#A6694A"/>
	<stop  offset="1" style="stop-color:#4F2A1E"/>
	<a:midPointStop  offset="0" style="stop-color:#A6694A"/>
	<a:midPointStop  offset="0.5" style="stop-color:#A6694A"/>
	<a:midPointStop  offset="1" style="stop-color:#4F2A1E"/>
</linearGradient>
<path id="Path_402_" fill="url(#Path_1_)" d="M18.539,13.717c0.394,1.082,1.648,0.624,1.254-0.457
	C19.427,12.254,18.172,12.71,18.539,13.717z"/>
<path id="Path_401_" fill="#1A1626" d="M18.652,13.619c0.197,0.543,0.823,0.314,0.625-0.227
	C19.094,12.888,18.469,13.116,18.652,13.619z"/>
<path id="Path_400_" fill="#AB968C" d="M18.959,13.26c0.082,0.226,0.446,0.093,0.364-0.132
	C19.246,12.917,18.882,13.048,18.959,13.26z"/>
<path fill="#DB9D3A" d="M20.631,12.848c-0.583-0.553-2.443-0.434-2.156,0.496C18.488,12.645,19.856,12.527,20.631,12.848z"/>
<path fill="#99A8AE" d="M50,38.999c-6.076,0-11,4.924-11,11s4.924,11,11,11c6.074,0,11-4.924,11-11S56.074,38.999,50,38.999z
	 M50,58.999c-4.971,0-9-4.029-9-9s4.029-9,9-9s9,4.029,9,9S54.971,58.999,50,58.999z"/>
<path fill="#99A8AE" d="M14,38.999c-6.076,0-11,4.924-11,11s4.924,11,11,11c6.074,0,11-4.924,11-11S20.074,38.999,14,38.999z
	 M14,58.999c-4.971,0-9-4.029-9-9s4.029-9,9-9c4.972,0,9,4.029,9,9S18.972,58.999,14,58.999z"/>
<path fill="#302C3B" d="M14,37.999c-6.626,0-12,5.373-12,12c0,6.628,5.374,12,12,12s12-5.372,12-12
	C26,43.374,20.626,37.999,14,37.999z M14,60C8.478,60,4,55.522,4,49.999c0-5.521,4.477-10.001,10-10.001c5.523,0,10,4.479,10,10.001
	C24,55.524,19.523,60,14,60z"/>
<path fill="#302C3B" d="M50,37.999c-6.627,0-12,5.373-12,12c0,6.628,5.373,12,12,12s12-5.372,12-12
	C62,43.374,56.627,37.999,50,37.999z M50,60c-5.523,0-10-4.478-10-10.001c0-5.521,4.477-10.001,10-10.001s10,4.479,10,10.001
	C60,55.524,55.523,60,50,60z"/>
<path fill="#F7C259" d="M28.156,31.735c-1.714,3.544,2.362,3.545,6.377,10.272l1.934-2.93c-2.637-2.76-1.303-3.396-3.064-6.717
	L28.156,31.735z"/>
<path fill="#ED6A00" d="M39.654,32.42L37,26.999c-2.615,1.5-7.147,2.342-8.844,4.736c0,0,1.581,1.614,6.217,3.141
	C36.322,34.101,39.654,32.42,39.654,32.42z"/>
<path fill="#302C3B" d="M21,27.999c-0.717-0.336-3-1-3-1v2l1.883,0.471L19,32.999l2,1l1-4C22,29.999,23.565,29.202,21,27.999z"/>
<path fill="#0FB4D4" d="M50.66,49.233L40.521,37.192l1.373-2.744c0.246-0.494-1.543-1.389-1.789-0.896l-1.316,2.635l-19.494-4.368
	l-6.237,17.85c-0.396,1.121,1.524,1.684,1.887,0.666l5.386-15.26l11.877,15.533c0.008,0.012,0.021,0.016,0.029,0.023
	c0.088,0.105,0.619,0.367,0.765,0.367h17c0.006,0,0.014,0,0.02,0C50.572,50.999,50.881,49.415,50.66,49.233z M37.867,38.03
	l-5.046,10.092L22.465,34.577L37.867,38.03z M34.617,48.999l4.932-9.857l8.301,9.857H34.617z"/>
<path fill="#302C3B" d="M16,49.999c0,2.668-4,2.668-4,0C12,47.333,16,47.333,16,49.999z"/>
<polygon fill="#BEC3CF" points="50,47.999 32.999,46.999 32.999,45.999 50,46.999 "/>
<polygon fill="#BEC3CF" points="50,52.999 33,53.999 33,52.999 50,51.999 "/>
<path fill="#302C3B" d="M53,49.999c0,4-6,4-6,0S53,45.999,53,49.999z"/>
<path fill="#302C3B" d="M32.999,53.999c-5.33,0-5.33-8,0-8C38.334,45.999,38.334,53.999,32.999,53.999z"/>
<polygon fill="#6E8189" points="31,56.999 29,56.999 32,49.999 34,49.999 "/>
<path fill="#99A8AE" d="M34,50.003c0,1.33-2,1.33-2,0C32,48.665,34,48.665,34,50.003z"/>
<path fill="#302C3B" d="M45,34.999c-2,1-4-1-8-1c0,0,0-2,2-2c4.123,0,5.434-0.783,7,0C48,32.999,46.264,34.368,45,34.999z"/>
<path fill="#FFCC66" d="M31.985,39.443c-0.514,2.102,2.671,6.995,1.185,14.159h4.221c-1.107-7.164,0.672-8.639,0.172-13.967
	C37.563,39.636,32.612,36.891,31.985,39.443z"/>
<path fill="#FF7A00" d="M46.236,25.461c-4.908-10.568-18.126-13.109-19.691-9.086C25.492,19.088,32.762,21.745,37,26.999
	c-1.633,3-4.763,8.822-5.015,12.445c0,0,1.96,0.044,5.667,1.478C40.186,33.362,49.064,31.555,46.236,25.461z"/>
<path fill="#FFA959" d="M36.271,40.421l-1.996-0.587c0.945-4.285,3.307-6.796,5.156-8.841c1.629-1.799,2.537-2.881,2.303-4.207
	c-0.564-3.188-4.67-6.254-11.56-8.637l0.654-1.891c5.38,1.861,11.982,5.137,12.875,10.178c0.418,2.355-1.068,3.998-2.787,5.898
	C39.137,34.302,37.102,36.657,36.271,40.421z"/>
<path fill="#FFCC66" d="M27.124,23.423c0.156,0.887,0.324,1.341,0.376,1.876c-3.188,1.656-3.997,2.465-6.982,0.699
	c-2-1.182-5.875-1.273-5.052,2.797c0.354,1.748,2.56-2.938,3.402-1.313c1.332,2.563,1.801,2.018,3.693,1.918
	c4.49-0.236,9.12-0.4,8.946-2.123c-0.105-1.043,0.053-3.302,0.053-3.302L27.124,23.423z"/>
<path fill="#ED6A00" d="M31.454,17.665c-0.531-3.928-5.321-3.313-5.084-0.086c0.135,1.857,0.755,5.845,0.755,5.845
	c2.417,0.74,4.437,0.553,4.437,0.553C31.697,21.867,31.721,19.649,31.454,17.665z"/>
<path fill="#302C3B" d="M20,28.004c0,2.658-4,2.658-4,0C16,25.333,20,25.333,20,28.004z"/>
<path fill="#99A8AE" d="M19,28c0,1.33-2,1.33-2,0C17,26.665,19,26.665,19,28z"/>
<path fill="#99A8AE" d="M27,56.999c0,0-0.416,1.724,0.001,2c0.489,0.324,2.32-0.698,2.33,0.004h0.004
	c0.01-0.702,2.319-0.702,2.329,0h0.004c0.01-0.702,1.841,0.32,2.33-0.004c0.418-0.276,0.002-2,0.002-2H27z"/>
<path fill="#302C3B" d="M31,57.718c0,0.667-1,0.667-1,0S31,57.051,31,57.718z"/>
<path fill="#302C3B" d="M29.352,57.718c0,0.333-2,0.333-2,0S29.352,57.385,29.352,57.718z"/>
<path fill="#302C3B" d="M33.648,57.718c0,0.333-2,0.333-2,0S33.648,57.385,33.648,57.718z"/>
<path fill="#302C3B" d="M28.286,8.354c0,0-1.153-0.264-1.12,0.016c0.133,1.164-0.562,3.971-0.562,3.971s-3.101-1.477-4.483-4.502
	c-0.117-0.258-0.892,0.381-0.92,0.662c-0.171,1.707,5.004,5.129,5.004,5.129s-1.197,4.592-2.341,6.033
	C26.993,20.111,28.286,8.354,28.286,8.354z"/>
<path fill="#E81C27" d="M37.285,52.821c-1.072,1.034-3.385,0.831-4.049,0.309c-2.236,0.819-2.585,1.917-5.596,2.217
	c-1.249,0.124-0.867,1.535-0.64,1.652c1.151,0.591,5.225-0.425,9.287,0.292C38.207,57.63,37.572,52.792,37.285,52.821z"/>
<path fill="#302C3B" d="M32.741,53.328c-0.74,0.171-1.092,0.563-1.092,0.563C33.061,55.06,34.184,54.737,32.741,53.328z"/>
<path fill="#302C3B" d="M31.519,53.999c-0.741,0.171-1.093,0.563-1.093,0.563C31.596,55.529,32.734,55.186,31.519,53.999z"/>
<path fill="#302C3B" d="M30.324,54.645c-0.741,0.171-0.765,0.314-0.765,0.314C30.427,55.677,31.258,55.557,30.324,54.645z"/>
<path fill-rule="evenodd" clip-rule="evenodd" fill="#E81C27" d="M30.846,6.232c0.227,0.152,1.32,0.725,1.357,0.99
	c0.018,0.129-0.102,0.334-0.098,0.486c0.008,0.246,1.193,1.67,1.005,1.854c-1.57,1.539,0.494,1.057-0.476,1.826
	c-0.738,0.585-1.557,1.142-2.258,1.571c-0.887,0.543-1.787-0.129-6.086-2.153c-0.084-0.04-1.162,0.49-1.628,0.463
	c-0.332-0.02-1.772-0.48-2.113-0.547c-1.004-0.195-5.284-0.424-5.817-0.865C14.075,4.958,22.207-2.34,32.327,5.352
	C32.727,5.656,30.846,6.232,30.846,6.232z"/>
<path fill-rule="evenodd" clip-rule="evenodd" fill="#8A0404" d="M15.78,8.048c-0.281,0.398,3.302-3.588,9.664-4.047
	C23.663,2.277,17.611,4.263,15.78,8.048z"/>
<path fill-rule="evenodd" clip-rule="evenodd" fill="#8A0404" d="M31.094,6.382c0,0,1.084-0.416,1.276-0.891
	c-1.516-0.159-2.479-0.463-2.812,0.023L31.094,6.382z"/>
<path fill-rule="evenodd" clip-rule="evenodd" fill="#8A0404" d="M28.042,7.937c2.903,1.082,4.469,2.611,4.469,2.611
	s0.092-0.416,0.537-0.922c-0.735-1.289-2.645-2.842-3.025-2.854C29.459,6.753,27.639,7.789,28.042,7.937z"/>
<path fill-rule="evenodd" clip-rule="evenodd" fill="#8A0404" d="M16.864,8.468c-0.488,0.766,1.717,0.693,4.073,0.42
	c0.849-0.1,6.302-2.154,6.67-2.738c0.079-0.125-0.29-1.184-0.603-1.191C24.742,4.906,18.016,6.988,16.864,8.468z"/>
</svg>
