<?xml version="1.0" encoding="utf-8"?>
<!-- Generator: Adobe Illustrator 15.0.0, SVG Export Plug-In . SVG Version: 6.00 Build 0)  -->
<!DOCTYPE svg PUBLIC "-//W3C//DTD SVG 1.1//EN" "http://www.w3.org/Graphics/SVG/1.1/DTD/svg11.dtd" [
	<!ENTITY ns_flows "http://ns.adobe.com/Flows/1.0/">
	<!ENTITY ns_extend "http://ns.adobe.com/Extensibility/1.0/">
	<!ENTITY ns_ai "http://ns.adobe.com/AdobeIllustrator/10.0/">
	<!ENTITY ns_graphs "http://ns.adobe.com/Graphs/1.0/">
]>
<svg version="1.1" id="Layer_1" xmlns:x="&ns_extend;" xmlns:i="&ns_ai;" xmlns:graph="&ns_graphs;"
	 xmlns="http://www.w3.org/2000/svg" xmlns:xlink="http://www.w3.org/1999/xlink" xmlns:a="http://ns.adobe.com/AdobeSVGViewerExtensions/3.0/"
	 x="0px" y="0px" width="64px" height="64px" viewBox="0 0 64 64" enable-background="new 0 0 64 64" xml:space="preserve">
<path fill="#FAC150" d="M32.651,22.723c0,0-1.463,2.039-2.547,4.31c-1.666,1.646-4.397,5.336-4.874,5.901
	c-0.462,0.549-2.256,1.678-2.406,2.196c-0.634,2.187-0.867,2.336-0.51,3.633c0.27,0.984,0.548,0.234,0.508-0.313
	c-0.06-0.849,0.552-2.182,1.228-1.797c-0.927,1.285-0.308,2.179,0.004,1.676c0.804-1.297,1.542-1.879,1.529-2.941
	c-0.004-0.43,1.292-2.041,4.042-3.396c1.672-0.823,2.924-2.463,3.75-3.943c0.785-1.299,2.236-2.219,2.695-3.086
	C35.393,23.345,34.064,23.384,32.651,22.723z"/>
<linearGradient id="SVGID_1_" gradientUnits="userSpaceOnUse" x1="38.3252" y1="9.9971" x2="47.3281" y2="9.9971">
	<stop  offset="0" style="stop-color:#473834"/>
	<stop  offset="0.339" style="stop-color:#5E4A43"/>
	<stop  offset="0.7359" style="stop-color:#735A51"/>
	<stop  offset="1" style="stop-color:#7A6056"/>
	<a:midPointStop  offset="0" style="stop-color:#473834"/>
	<a:midPointStop  offset="0.3818" style="stop-color:#473834"/>
	<a:midPointStop  offset="1" style="stop-color:#7A6056"/>
</linearGradient>
<path fill="url(#SVGID_1_)" d="M45.442,14.705c0.545,0.2,1.166,0.273,1.886,0.143C42.219,11.934,46.342,0.41,38.325,3.44
	l1.125,2.891c2.266,0.439-1.108,6.475,3.041,8.537c-0.409-0.382-0.409-1.182-0.301-2.128c0.795,2.716,1.633,4.642,4.837,4.273
	C46.451,16.888,45.88,15.924,45.442,14.705z"/>
<path fill="#8E3ED6" d="M37.631,3.477c-0.952,0.667,0.231,3.359,2.142,3.474C41.341,7.048,39.2,2.377,37.631,3.477z"/>
<path fill="#FAC150" d="M30.636,16.546c1.133-0.54,1.666,0.497,1.742,0.912c0.25,1.365,5.041-0.227,4.465-1.794
	c-0.5-1.362,0.167-2.992,0.167-2.992C36.257,12.241,33.601,7.349,30.636,16.546z"/>
<path fill="#FFCC66" d="M31.451,3.042c-3.443,0.55-4.705,3.009-4.15,5.907c0.125,0.655-0.297,1.776-1.129,2.496
	c-0.303,0.262-0.334,0.609-0.186,0.841c0.291,0.455,0.93,0.459,1.197,0.63c0.596,0.38-0.002,0.8,0.447,1.248
	c0.204,0.204,0.789-0.066,0.172,1.015c0.686,0.502-0.172,1.641,1.308,1.897c0.702,0.121,3.394-0.955,4.807-2.848
	c0.799-1.069,0.928-2.313,0.928-2.313c2.642-0.762,3.575-3.069,3.006-5.483C37.054,3.056,33.683,2.686,31.451,3.042z"/>
<path fill="#D47706" d="M27.63,14.165c0.324,0.198,0.182,0.51,0.182,0.51c-0.155,0-0.193,0.514,0.037,0.514
	c0.807,0,1.546-0.692,1.789-1.111C28.375,14.014,26.99,13.444,27.63,14.165z"/>
<path fill="#FFFFFF" d="M27.63,14.165c0,0,0.123,0.441,0.182,0.51c0.254,0,1.076-0.182,1.583-0.516L27.63,14.165z"/>
<linearGradient id="SVGID_2_" gradientUnits="userSpaceOnUse" x1="27.4043" y1="7.9717" x2="40.1016" y2="7.9717">
	<stop  offset="0" style="stop-color:#7A6056"/>
	<stop  offset="0.3119" style="stop-color:#775D54"/>
	<stop  offset="0.5686" style="stop-color:#6D554D"/>
	<stop  offset="0.8048" style="stop-color:#5B4842"/>
	<stop  offset="1" style="stop-color:#473834"/>
	<a:midPointStop  offset="0" style="stop-color:#7A6056"/>
	<a:midPointStop  offset="0.7455" style="stop-color:#7A6056"/>
	<a:midPointStop  offset="1" style="stop-color:#473834"/>
</linearGradient>
<path fill="url(#SVGID_2_)" d="M38.531,4.842c-0.618-1.988-3.647-3.29-6.577-2.708c-2.849,0.565-4.948,2.521-4.486,3.8
	c0.656,1.814,4.684,1.783,6.181,4.854c0.021,0.211,1.084,0.357,1.129,0.542c0.359,1.488,1.502,2.724,1.918,2.612
	C39.606,13.165,41.669,6.049,38.531,4.842z"/>
<path fill="#DB9D3A" d="M25.996,12.291c0.238,0.634,1.763,0.771,2.25,0C27.442,12.872,25.856,11.921,25.996,12.291z"/>
<path fill="#FFCC66" d="M34.855,8.708c-1.284,0.266-1.686,3.168-0.724,3.798c0.135,0.089,0.84,0.167,1.211-0.544
	c0.207-0.394,0.945-0.794,1.047-1.565C36.522,9.408,36.134,8.444,34.855,8.708z"/>
<path id="Path_252_" fill="#DB9D3A" d="M34.923,9.247c-0.326,0.111-0.633,0.488-0.729,1.063c1.158-0.313,1.105,0.987,0.077,1.142
	c0.034,0.126,0.073,0.255,0.124,0.389c0.408-0.523,0.95-0.402,1.318-1.151C36.045,10.012,35.733,8.971,34.923,9.247z"/>
<path id="Path_248_" fill="#966F42" d="M30.427,8.355c-0.732-0.424-2.134-0.443-2.656-0.149c-0.111,0.058-0.037,0.458,0.057,0.42
	c0.728-0.313,1.9-0.321,2.582,0.026C30.5,8.698,30.539,8.414,30.427,8.355z"/>
<path fill="#FFFFFF" d="M30.122,9.839c0.017,0.186-0.569,0.854-1.316,0.917c-0.427,0.036-0.579-0.294-0.674-0.648
	C28.039,8.695,29.702,9.197,30.122,9.839z"/>
<linearGradient id="Path_1_" gradientUnits="userSpaceOnUse" x1="28.6978" y1="10.6987" x2="28.6978" y2="9.2114">
	<stop  offset="0" style="stop-color:#A6694A"/>
	<stop  offset="1" style="stop-color:#4F2A1E"/>
	<a:midPointStop  offset="0" style="stop-color:#A6694A"/>
	<a:midPointStop  offset="0.5" style="stop-color:#A6694A"/>
	<a:midPointStop  offset="1" style="stop-color:#4F2A1E"/>
</linearGradient>
<path id="Path_256_" fill="url(#Path_1_)" d="M28.102,9.928c0,1.028,1.191,1.028,1.191,0C29.293,8.973,28.102,8.973,28.102,9.928z"
	/>
<path id="Path_255_" fill="#1A1626" d="M28.226,9.882c0,0.514,0.595,0.514,0.595,0C28.821,9.403,28.226,9.403,28.226,9.882z"/>
<path id="Path_254_" fill="#AB968C" d="M28.594,9.674c0,0.215,0.346,0.215,0.346,0C28.94,9.473,28.594,9.473,28.594,9.674z"/>
<path fill="#45332C" d="M30.122,9.839c-0.321-0.642-1.917-1.108-1.96-0.242C28.386,9.015,29.57,9.333,30.122,9.839z"/>
<path fill="#6E8189" d="M16.378,55.641c0,0-0.596,0.072-0.291,0.34c3.877,3.393,8.947,6.025,8.947,6.025
	c0.293-0.113,0.289-0.443,0.289-0.443L16.378,55.641z"/>
<path fill="#99A8AE" d="M24.38,56.988c-4.373-1.709-7.33-2.521-8.002-1.348c4.914,3.92,8.945,5.922,8.945,5.922
	C27.419,59.697,26.212,58.072,24.38,56.988z"/>
<path fill="#1A1626" d="M19.697,55.402c0.385,1.219,0.861,1.662,1.217,1.143c0.334,0.682,0.809,0.527,0.984,0.199
	c0.447,0.566,0.932,0.156,0.553-0.793C22.22,55.434,19.593,55.074,19.697,55.402z"/>
<path fill="#6E8189" d="M40.087,61.563c0,0-0.234,0.307,0.086,0.443c4.076-0.305,7.826-7.414,7.826-7.414
	c0-0.283-0.262-0.453-0.262-0.453L40.087,61.563z"/>
<path fill="#99A8AE" d="M43.608,54.717c-3.215,4.313-3.799,5.809-3.521,6.846c3.914-0.408,7.65-7.424,7.65-7.424
	C45.765,50.889,44.177,53.955,43.608,54.717z"/>
<path fill="#1A1626" d="M40.942,58.547c1.268-0.021,1.832-0.352,1.451-0.846c0.746-0.125,0.744-0.629,0.49-0.896
	c0.672-0.266,0.432-0.855-0.576-0.764C41.747,56.115,40.601,58.553,40.942,58.547z"/>
<path fill="#1A1626" d="M36.874,32.31c-8.222-1.227-7.5,2.284-7.5,2.284c1.205,6.002,3.816,13.25,4.806,14.496
	c0.826,1.041,4.754,3.682,7.836,7.32c2.154-1.021,6.002-2.369,4.951-3.396c-3.998-3.91-7.848-7.383-7.848-7.383
	C36.39,41.211,35.661,36.465,36.874,32.31z"/>
<path fill="#302C3B" d="M37.007,32.208c0,0-4.773-3.006-6.712,1.799c-0.666,4.633-4.568,9.127-5.252,10.58
	c-0.746,1.59-1.355,7-3.34,10.945c2.236,1.801,4.307,6.086,4.727,4.73c1.867-6.021,4.059-13.424,4.059-13.424
	C36.353,38.713,39.3,39.59,37.007,32.208z"/>
<path fill="#8E3ED6" d="M37.007,32.208c0,0-3.125,0.166-7.699,2.417c-0.394-2.721,1.091-7.377,0.304-8.106
	c-3.041-2.816,1.024-3.796,1.943-7.974c0.129-0.587,0.479-1.242,0.742-1.341c0.614,2.114,3.112-1.448,4.519-1.62
	C41.403,19.474,35.778,27.433,37.007,32.208z"/>
<path fill="#FAC150" d="M42.509,25.822c-0.179-0.502-1.192-2.333-2.214-4.131c-1.165,0.574-2.312,1.177-3.426,1.816
	c0.999,1.364,2.026,2.813,2.569,3.709c0.177,2.477,1.008,4.951,0.734,7.857c-0.125,1.258-0.971,0.501-1.675,3.141
	c-0.109,0.414,0.844,0.359,1.155-0.592c0.967,0.398-1.077,3.639,0.392,3.045c0.531,0.156,1.891-0.422,2.453-2.422
	c0.092-0.323,0.141-2.747,0.077-3.07C42.328,33.929,42.828,26.707,42.509,25.822z"/>
<path fill="#DB9D3A" d="M40.779,38.871c0,0-0.248,1.307-0.734,1.797C40.701,40.262,40.779,38.871,40.779,38.871z"/>
<path fill="#DB9D3A" d="M41.592,38.477c0,0-0.326,1.592-0.813,2.082C41.436,40.152,41.592,38.477,41.592,38.477z"/>
<path fill="#DB9D3A" d="M42.115,38.387c0,0-0.172,1.217-0.658,1.707C42.113,39.688,42.115,38.387,42.115,38.387z"/>
<path fill="#732EB0" d="M41.363,23.075c-0.809-1.517-1.948-3.49-3.314-5.621c-1.472-2.296-4.941-0.164-3.749,2.302
	c0.646,1.341,1.678,3.123,3.318,5.51C38.781,24.437,40.042,23.7,41.363,23.075z"/>
</svg>
