<?xml version="1.0" encoding="utf-8"?>
<!-- Generator: Adobe Illustrator 15.0.0, SVG Export Plug-In . SVG Version: 6.00 Build 0)  -->
<!DOCTYPE svg PUBLIC "-//W3C//DTD SVG 1.1//EN" "http://www.w3.org/Graphics/SVG/1.1/DTD/svg11.dtd" [
	<!ENTITY ns_flows "http://ns.adobe.com/Flows/1.0/">
	<!ENTITY ns_extend "http://ns.adobe.com/Extensibility/1.0/">
	<!ENTITY ns_ai "http://ns.adobe.com/AdobeIllustrator/10.0/">
	<!ENTITY ns_graphs "http://ns.adobe.com/Graphs/1.0/">
]>
<svg version="1.1" id="Layer_1" xmlns:x="&ns_extend;" xmlns:i="&ns_ai;" xmlns:graph="&ns_graphs;"
	 xmlns="http://www.w3.org/2000/svg" xmlns:xlink="http://www.w3.org/1999/xlink" xmlns:a="http://ns.adobe.com/AdobeSVGViewerExtensions/3.0/"
	 x="0px" y="0px" width="64px" height="64px" viewBox="0 0 64 64" enable-background="new 0 0 64 64" xml:space="preserve">
<linearGradient id="SVGID_1_" gradientUnits="userSpaceOnUse" x1="88" y1="-138.0039" x2="88" y2="-82.0083" gradientTransform="matrix(1 0 0 -1 -56 -80)">
	<stop  offset="0" style="stop-color:#697378"/>
	<stop  offset="0.1088" style="stop-color:#727C82"/>
	<stop  offset="0.4414" style="stop-color:#87949A"/>
	<stop  offset="0.7475" style="stop-color:#94A3A9"/>
	<stop  offset="1" style="stop-color:#99A8AE"/>
	<a:midPointStop  offset="0" style="stop-color:#697378"/>
	<a:midPointStop  offset="0.5" style="stop-color:#697378"/>
	<a:midPointStop  offset="0.1088" style="stop-color:#727C82"/>
	<a:midPointStop  offset="0.5" style="stop-color:#727C82"/>
	<a:midPointStop  offset="0.4414" style="stop-color:#87949A"/>
	<a:midPointStop  offset="0.5" style="stop-color:#87949A"/>
	<a:midPointStop  offset="0.7475" style="stop-color:#94A3A9"/>
	<a:midPointStop  offset="0.5" style="stop-color:#94A3A9"/>
	<a:midPointStop  offset="1" style="stop-color:#99A8AE"/>
</linearGradient>
<path fill="url(#SVGID_1_)" d="M45.691,2.008c-0.357-0.055-6.848,23.744-15.433,21.504L13,14.836c0,0,0.267,12.152-11,18.154v25.013
	h60V27.235C50.266,13.961,52.723,3.106,45.691,2.008z"/>
<path fill="#CFD8DD" d="M30.258,23.512c10.085-3.096,13.632-22.949,15.593-21.43c0.957,0.742,5.113,15.416,0.85,12.205
	c-6.563-4.936,1.939,5.246,2.004,10.895c0.039,3.57-13.656-10.469-4.609,13.81L30.258,23.512z"/>
<polygon fill="#CFD8DD" points="56.682,28.588 51.4,18.407 52.906,25.68 "/>
<polygon fill="#CFD8DD" points="51.809,40.494 51.1,33.801 47.207,30.008 "/>
<path fill="#CFD8DD" d="M2,30.456c0,0,8.621-4.355,10.906-15.541c0.188-0.926,3.074,5.576,4.5,12.379
	c0.621,2.973-4.314-3.23-4.313,1.096c0.002,6.527-5.188,14.097-5.188,14.097C10.748,25.112,2,43.988,2,43.988V30.456z"/>
<linearGradient id="SVGID_2_" gradientUnits="userSpaceOnUse" x1="88" y1="-142" x2="88" y2="-126.7148" gradientTransform="matrix(1 0 0 -1 -56 -80)">
	<stop  offset="0" style="stop-color:#916958"/>
	<stop  offset="0.21" style="stop-color:#8B6454"/>
	<stop  offset="0.4866" style="stop-color:#7B5748"/>
	<stop  offset="0.799" style="stop-color:#5F4034"/>
	<stop  offset="1" style="stop-color:#4A2F24"/>
	<a:midPointStop  offset="0" style="stop-color:#916958"/>
	<a:midPointStop  offset="0.5" style="stop-color:#916958"/>
	<a:midPointStop  offset="0.21" style="stop-color:#8B6454"/>
	<a:midPointStop  offset="0.5" style="stop-color:#8B6454"/>
	<a:midPointStop  offset="0.4866" style="stop-color:#7B5748"/>
	<a:midPointStop  offset="0.5" style="stop-color:#7B5748"/>
	<a:midPointStop  offset="0.799" style="stop-color:#5F4034"/>
	<a:midPointStop  offset="0.5" style="stop-color:#5F4034"/>
	<a:midPointStop  offset="1" style="stop-color:#4A2F24"/>
</linearGradient>
<path fill="url(#SVGID_2_)" d="M62,46.715c-36.494,2.33-42.457,8.854-60,9.65V62h60V46.715z"/>
<path fill="#99A8AE" d="M47.6,40.065c-5.266,0-9.533,4.268-9.533,9.533c0,5.267,4.268,9.534,9.533,9.534
	c5.264,0,9.533-4.268,9.533-9.534C57.133,44.333,52.863,40.065,47.6,40.065z M47.6,57.399c-4.309,0-7.801-3.492-7.801-7.801
	c0-4.308,3.492-7.8,7.801-7.8s7.801,3.492,7.801,7.8C55.4,53.907,51.908,57.399,47.6,57.399z"/>
<path fill="#99A8AE" d="M16.4,40.065c-5.267,0-9.533,4.268-9.533,9.533c0,5.267,4.267,9.534,9.533,9.534
	c5.265,0,9.533-4.268,9.533-9.534C25.934,44.333,21.665,40.065,16.4,40.065z M16.4,57.399c-4.308,0-7.8-3.492-7.8-7.801
	c0-4.308,3.492-7.8,7.8-7.8c4.309,0,7.8,3.492,7.8,7.8C24.2,53.907,20.709,57.399,16.4,57.399z"/>
<path fill="#302C3B" d="M16.4,39.449c-5.605,0-10.15,4.544-10.15,10.149c0,5.606,4.545,10.15,10.15,10.15
	c5.604,0,10.149-4.544,10.149-10.15C26.55,43.995,22.005,39.449,16.4,39.449z M16.4,58.058c-4.671,0-8.458-3.786-8.458-8.459
	c0-4.67,3.787-8.458,8.458-8.458c4.672,0,8.458,3.788,8.458,8.458C24.858,54.272,21.072,58.058,16.4,58.058z"/>
<rect x="13.996" y="59.419" transform="matrix(-0.9849 -0.1733 0.1733 -0.9849 18.7079 120.8957)" fill="#302C3B" width="1.268" height="0.425"/>
<rect x="17.533" y="39.353" transform="matrix(-0.9851 -0.1722 0.1722 -0.9851 29.2501 81.6709)" fill="#302C3B" width="1.27" height="0.426"/>
<rect x="12.282" y="58.959" transform="matrix(-0.94 -0.3413 0.3413 -0.94 4.8595 119.1987)" fill="#302C3B" width="1.268" height="0.425"/>
<rect x="19.249" y="39.813" transform="matrix(-0.9401 -0.3408 0.3408 -0.9401 24.9357 84.4321)" fill="#302C3B" width="1.269" height="0.426"/>
<rect x="10.673" y="58.208" transform="matrix(-0.8665 -0.4991 0.4991 -0.8665 -8.0552 114.6888)" fill="#302C3B" width="1.268" height="0.426"/>
<rect x="20.858" y="40.563" transform="matrix(-0.8669 -0.4985 0.4985 -0.8669 19.8007 86.8394)" fill="#302C3B" width="1.27" height="0.427"/>
<rect x="9.217" y="57.19" transform="matrix(-0.766 -0.6428 0.6428 -0.766 -19.5024 107.7068)" fill="#302C3B" width="1.268" height="0.426"/>
<rect x="22.312" y="41.581" transform="matrix(-0.767 -0.6417 0.6417 -0.767 13.7273 88.5751)" fill="#302C3B" width="1.271" height="0.428"/>
<rect x="7.962" y="55.934" transform="matrix(-0.6432 -0.7657 0.7657 -0.6432 -28.8658 98.8433)" fill="#302C3B" width="1.268" height="0.426"/>
<rect x="23.568" y="42.838" transform="matrix(-0.6434 -0.7656 0.7656 -0.6434 6.816 89.2768)" fill="#302C3B" width="1.271" height="0.426"/>
<rect x="6.943" y="54.48" transform="matrix(-0.4997 -0.8662 0.8662 -0.4997 -36.0107 88.5866)" fill="#302C3B" width="1.268" height="0.426"/>
<rect x="24.588" y="44.292" transform="matrix(-0.5009 -0.8655 0.8655 -0.5009 -0.6656 88.6259)" fill="#302C3B" width="1.269" height="0.426"/>
<rect x="6.194" y="52.87" transform="matrix(-0.3422 -0.9396 0.9396 -0.3422 -40.7143 77.6656)" fill="#302C3B" width="1.267" height="0.426"/>
<rect x="25.337" y="45.901" transform="matrix(-0.3429 -0.9394 0.9394 -0.3429 -8.4417 86.3231)" fill="#302C3B" width="1.27" height="0.426"/>
<rect x="5.734" y="51.155" transform="matrix(-0.1741 -0.9847 0.9847 -0.1741 -43.1068 66.5836)" fill="#302C3B" width="1.267" height="0.425"/>
<rect x="25.797" y="47.616" transform="matrix(-0.1745 -0.9847 0.9847 -0.1745 -16.0512 82.2013)" fill="#302C3B" width="1.27" height="0.426"/>
<rect x="6" y="48.964" fill="#302C3B" width="0.426" height="1.27"/>
<rect x="26.375" y="48.963" fill="#302C3B" width="0.425" height="1.271"/>
<rect x="5.733" y="47.617" transform="matrix(0.174 -0.9847 0.9847 0.174 -41.8403 45.7775)" fill="#302C3B" width="1.268" height="0.425"/>
<rect x="25.797" y="51.154" transform="matrix(0.1729 -0.9849 0.9849 0.1729 -28.7309 68.5218)" fill="#302C3B" width="1.271" height="0.427"/>
<rect x="6.194" y="45.902" transform="matrix(0.342 -0.9397 0.9397 0.342 -38.8415 36.7599)" fill="#302C3B" width="1.268" height="0.425"/>
<rect x="25.337" y="52.869" transform="matrix(0.3412 -0.94 0.94 0.3412 -32.7862 59.3814)" fill="#302C3B" width="1.271" height="0.427"/>
<rect x="6.944" y="44.292" transform="matrix(0.4997 -0.8662 0.8662 0.4997 -34.7587 28.8299)" fill="#302C3B" width="1.268" height="0.425"/>
<rect x="24.587" y="54.479" transform="matrix(0.499 -0.8666 0.8666 0.499 -34.7596 49.2558)" fill="#302C3B" width="1.27" height="0.426"/>
<rect x="7.962" y="42.838" transform="matrix(0.6425 -0.7663 0.7663 0.6425 -29.9172 21.9806)" fill="#302C3B" width="1.269" height="0.425"/>
<rect x="23.569" y="55.933" transform="matrix(0.6421 -0.7666 0.7666 0.6421 -34.3808 38.6517)" fill="#302C3B" width="1.27" height="0.427"/>
<rect x="9.217" y="41.582" transform="matrix(0.7653 -0.6437 0.6437 0.7653 -24.5917 16.1533)" fill="#302C3B" width="1.27" height="0.426"/>
<rect x="22.313" y="57.19" transform="matrix(0.7659 -0.6429 0.6429 0.7659 -31.5334 28.1888)" fill="#302C3B" width="1.27" height="0.426"/>
<rect x="10.673" y="40.563" transform="matrix(0.8659 -0.5003 0.5003 0.8659 -18.8826 11.1262)" fill="#302C3B" width="1.269" height="0.425"/>
<rect x="20.859" y="58.208" transform="matrix(0.8662 -0.4997 0.4997 0.8662 -26.3173 18.5573)" fill="#302C3B" width="1.268" height="0.426"/>
<rect x="12.281" y="39.812" transform="matrix(0.9395 -0.3424 0.3424 0.9395 -12.9246 6.8424)" fill="#302C3B" width="1.269" height="0.426"/>
<rect x="19.251" y="58.959" transform="matrix(0.94 -0.3411 0.3411 0.94 -18.9892 10.3299)" fill="#302C3B" width="1.268" height="0.426"/>
<rect x="13.997" y="39.353" transform="matrix(0.9848 -0.1739 0.1739 0.9848 -6.6566 3.1467)" fill="#302C3B" width="1.269" height="0.425"/>
<rect x="17.535" y="59.419" transform="matrix(0.9849 -0.1731 0.1731 0.9849 -10.0495 4.0461)" fill="#302C3B" width="1.269" height="0.425"/>
<rect x="15.766" y="39.198" fill="#302C3B" width="1.269" height="0.426"/>
<rect x="15.766" y="59.573" fill="#302C3B" width="1.269" height="0.427"/>
<path fill="#302C3B" d="M47.6,39.449c-5.605,0-10.15,4.544-10.15,10.149c0,5.606,4.545,10.15,10.15,10.15s10.15-4.544,10.15-10.15
	C57.75,43.995,53.205,39.449,47.6,39.449z M47.6,58.058c-4.67,0-8.457-3.786-8.457-8.459c0-4.67,3.787-8.458,8.457-8.458
	c4.672,0,8.459,3.788,8.459,8.458C56.059,54.272,52.271,58.058,47.6,58.058z"/>
<rect x="45.195" y="59.419" transform="matrix(-0.9849 -0.1731 0.1731 -0.9849 80.6443 126.2966)" fill="#302C3B" width="1.269" height="0.425"/>
<rect x="48.733" y="39.353" transform="matrix(-0.9851 -0.1721 0.1721 -0.9851 91.1894 87.0395)" fill="#302C3B" width="1.271" height="0.426"/>
<rect x="43.481" y="58.959" transform="matrix(-0.94 -0.3413 0.3413 -0.94 65.3854 129.8475)" fill="#302C3B" width="1.268" height="0.425"/>
<rect x="50.449" y="39.813" transform="matrix(-0.9401 -0.3408 0.3408 -0.9401 85.4681 95.0657)" fill="#302C3B" width="1.269" height="0.426"/>
<rect x="41.871" y="58.208" transform="matrix(-0.8667 -0.4988 0.4988 -0.8667 50.2049 130.2575)" fill="#302C3B" width="1.269" height="0.426"/>
<rect x="52.059" y="40.563" transform="matrix(-0.8667 -0.4988 0.4988 -0.8667 78.0251 102.4011)" fill="#302C3B" width="1.269" height="0.426"/>
<rect x="40.418" y="57.19" transform="matrix(-0.7657 -0.6432 0.6432 -0.7657 35.5626 127.7605)" fill="#302C3B" width="1.268" height="0.426"/>
<rect x="53.511" y="41.581" transform="matrix(-0.767 -0.6417 0.6417 -0.767 68.8551 108.5955)" fill="#302C3B" width="1.271" height="0.428"/>
<rect x="39.162" y="55.934" transform="matrix(-0.6437 -0.7653 0.7653 -0.6437 22.4411 122.7428)" fill="#302C3B" width="1.268" height="0.426"/>
<rect x="54.768" y="42.838" transform="matrix(-0.6429 -0.7659 0.7659 -0.6429 58.0477 113.1643)" fill="#302C3B" width="1.27" height="0.426"/>
<rect x="38.143" y="54.48" transform="matrix(-0.5003 -0.8659 0.8659 -0.5003 10.8201 115.6304)" fill="#302C3B" width="1.269" height="0.426"/>
<rect x="55.786" y="44.292" transform="matrix(-0.5014 -0.8652 0.8652 -0.5014 46.2065 115.6362)" fill="#302C3B" width="1.27" height="0.426"/>
<rect x="37.393" y="52.87" transform="matrix(-0.3422 -0.9396 0.9396 -0.3422 1.1625 106.9808)" fill="#302C3B" width="1.267" height="0.426"/>
<rect x="56.537" y="45.901" transform="matrix(-0.3429 -0.9394 0.9394 -0.3429 33.4543 115.6313)" fill="#302C3B" width="1.27" height="0.426"/>
<rect x="36.933" y="51.155" transform="matrix(-0.1741 -0.9847 0.9847 -0.1741 -6.4752 97.3057)" fill="#302C3B" width="1.267" height="0.426"/>
<rect x="56.997" y="47.616" transform="matrix(-0.1752 -0.9845 0.9845 -0.1752 20.6417 112.9504)" fill="#302C3B" width="1.271" height="0.426"/>
<rect x="37.199" y="48.964" fill="#302C3B" width="0.426" height="1.27"/>
<rect x="57.573" y="48.963" fill="#302C3B" width="0.426" height="1.271"/>
<rect x="36.933" y="47.617" transform="matrix(0.174 -0.9847 0.9847 0.174 -16.0695 76.5013)" fill="#302C3B" width="1.268" height="0.425"/>
<rect x="56.996" y="51.154" transform="matrix(0.1721 -0.9851 0.9851 0.1721 -2.8883 99.2976)" fill="#302C3B" width="1.271" height="0.427"/>
<rect x="37.392" y="45.902" transform="matrix(0.342 -0.9397 0.9397 0.342 -18.3125 66.0775)" fill="#302C3B" width="1.268" height="0.426"/>
<rect x="56.537" y="52.87" transform="matrix(0.3426 -0.9395 0.9395 0.3426 -12.2844 88.6085)" fill="#302C3B" width="1.271" height="0.425"/>
<rect x="38.143" y="44.292" transform="matrix(0.5003 -0.8659 0.8659 0.5003 -19.1573 55.816)" fill="#302C3B" width="1.269" height="0.426"/>
<rect x="55.787" y="54.479" transform="matrix(0.4996 -0.8662 0.8662 0.4996 -19.144 76.2426)" fill="#302C3B" width="1.271" height="0.426"/>
<rect x="39.161" y="42.838" transform="matrix(0.6429 -0.7659 0.7659 0.6429 -18.7636 45.8548)" fill="#302C3B" width="1.27" height="0.426"/>
<rect x="54.768" y="55.933" transform="matrix(0.6425 -0.7663 0.7663 0.6425 -23.2174 62.5244)" fill="#302C3B" width="1.271" height="0.427"/>
<rect x="40.417" y="41.582" transform="matrix(0.7649 -0.6441 0.6441 0.7649 -17.2703 36.2665)" fill="#302C3B" width="1.269" height="0.426"/>
<rect x="53.514" y="57.19" transform="matrix(0.7659 -0.6429 0.6429 0.7659 -24.2309 48.2475)" fill="#302C3B" width="1.27" height="0.426"/>
<rect x="41.871" y="40.563" transform="matrix(0.8661 -0.4999 0.4999 0.8661 -14.6923 26.7122)" fill="#302C3B" width="1.27" height="0.425"/>
<rect x="52.059" y="58.208" transform="matrix(0.8664 -0.4994 0.4994 0.8664 -22.1334 34.119)" fill="#302C3B" width="1.269" height="0.426"/>
<rect x="43.481" y="39.812" transform="matrix(0.9396 -0.3422 0.3422 0.9396 -11.0325 17.5115)" fill="#302C3B" width="1.27" height="0.426"/>
<rect x="50.45" y="58.96" transform="matrix(0.94 -0.3413 0.3413 0.94 -17.1286 20.9887)" fill="#302C3B" width="1.268" height="0.426"/>
<rect x="45.196" y="39.353" transform="matrix(0.9848 -0.1739 0.1739 0.9848 -6.1814 8.5715)" fill="#302C3B" width="1.269" height="0.425"/>
<rect x="48.735" y="59.419" transform="matrix(0.9849 -0.1734 0.1734 0.9849 -9.5918 9.4632)" fill="#302C3B" width="1.267" height="0.425"/>
<rect x="46.965" y="39.198" fill="#302C3B" width="1.27" height="0.426"/>
<rect x="46.965" y="59.573" fill="#302C3B" width="1.27" height="0.427"/>
<path fill="#FAC150" d="M24.744,23.393c0.854-0.868,2.405-0.366,2.612-0.011c0.682,1.161,3.902-1.666,2.859-2.904
	c-0.91-1.079-0.842-2.787-0.842-2.787C28.54,17.546,24.396,14.012,24.744,23.393z"/>
<path fill="#7A6056" d="M19.263,18.403c-0.463-2.526,2.016-4.142,0.286-6.071C16.911,14.059,17.497,16.474,19.263,18.403z"/>
<path fill="#FFCC66" d="M21.098,10.748c-2.96,1.646-3.297,4.311-1.827,6.771c0.333,0.557,0.32,1.719-0.201,2.654
	c-0.189,0.339-0.101,0.664,0.111,0.827c0.417,0.319,1.001,0.11,1.301,0.177c0.672,0.149,0.266,0.731,0.825,0.992
	c0.253,0.118,0.697-0.324,0.492,0.869c0.793,0.229,0.148,1.714,1.824,1.299c0.881-0.221,3.306-3.158,3.519-4.297
	c0.246-1.327,0.001-2.321,0.001-2.321c2.161-1.573,2.245-3.989,0.924-6.003C26.217,8.897,23.017,9.681,21.098,10.748z"/>
<path fill="#DB9D3A" d="M21.307,22.169c0.36,0.073,0.334,0.405,0.334,0.405c-0.142,0.052-0.007,0.532,0.204,0.455
	c0.735-0.269,1.182-1.146,1.264-1.608C21.936,21.785,20.481,21.724,21.307,22.169z"/>
<path fill="#FFFFFF" d="M21.307,22.169c0,0,0.258,0.36,0.334,0.405c0.23-0.083,0.922-0.524,1.274-0.997L21.307,22.169z"/>
<path fill="#DB9D3A" d="M19.19,21c0.428,0.502,1.865,0.12,2.054-0.746C20.703,21.05,18.94,20.711,19.19,21z"/>
<path id="Path_682_" fill="#966F42" d="M21.929,15.937c-0.81-0.145-2.096,0.305-2.475,0.747c-0.083,0.089,0.118,0.429,0.191,0.364
	c0.56-0.528,1.628-0.926,2.365-0.836C22.108,16.224,22.049,15.953,21.929,15.937z"/>
<linearGradient id="SVGID_3_" gradientUnits="userSpaceOnUse" x1="33.9072" y1="345.2324" x2="25.539" y2="336.2159" gradientTransform="matrix(0.9397 -0.342 0.342 0.9397 -119.4899 -295.3305)">
	<stop  offset="0" style="stop-color:#473834"/>
	<stop  offset="0.1952" style="stop-color:#5B4842"/>
	<stop  offset="0.4314" style="stop-color:#6D554D"/>
	<stop  offset="0.6881" style="stop-color:#775D54"/>
	<stop  offset="1" style="stop-color:#7A6056"/>
	<a:midPointStop  offset="0" style="stop-color:#473834"/>
	<a:midPointStop  offset="0.2545" style="stop-color:#473834"/>
	<a:midPointStop  offset="1" style="stop-color:#7A6056"/>
</linearGradient>
<path fill="url(#SVGID_3_)" d="M22.563,12.766c3.436,1.547,5.286,4.689,5.877,7.335C31.45,17.549,29.538,9.278,22.563,12.766z"/>
<linearGradient id="SVGID_4_" gradientUnits="userSpaceOnUse" x1="34.7549" y1="344.8975" x2="25.6633" y2="335.1016" gradientTransform="matrix(0.9397 -0.342 0.342 0.9397 -119.4899 -295.3305)">
	<stop  offset="0" style="stop-color:#473834"/>
	<stop  offset="0.1952" style="stop-color:#5B4842"/>
	<stop  offset="0.4314" style="stop-color:#6D554D"/>
	<stop  offset="0.6881" style="stop-color:#775D54"/>
	<stop  offset="1" style="stop-color:#7A6056"/>
	<a:midPointStop  offset="0" style="stop-color:#473834"/>
	<a:midPointStop  offset="0.2545" style="stop-color:#473834"/>
	<a:midPointStop  offset="1" style="stop-color:#7A6056"/>
</linearGradient>
<path fill="url(#SVGID_4_)" d="M29.989,19.284c1.203-2.188,0.41-6.571-1.963-8.755c-1.75-1.612-3.698-2.04-6.629-0.965
	c-2.376,0.87-3.855,2.948-3.685,4.66c0.237,2.384,3.657,1.042,5.436,2.421c0,0,0.076-1.369-1.386-2.71
	C27.489,18.167,27.411,12.297,29.989,19.284z"/>
<path fill="#FFCC66" d="M26.088,14.789c-1.084,0.669-0.486,3.451,0.603,3.708c0.152,0.034,0.82-0.127,0.925-0.901
	c0.057-0.428,0.596-1.038,0.434-1.777C27.84,14.873,27.167,14.123,26.088,14.789z"/>
<path id="Path_681_" fill="#DB9D3A" d="M26.328,15.255c-0.261,0.211-0.416,0.658-0.311,1.214c0.952-0.672,1.336,0.534,0.448,1.016
	c0.072,0.104,0.152,0.21,0.243,0.314c0.199-0.615,0.733-0.684,0.819-1.489C27.606,15.582,26.976,14.737,26.328,15.255z"/>
<path fill="#FFFFFF" d="M22.146,17.402c0.077,0.164-0.236,0.969-0.897,1.274c-0.376,0.175-0.625-0.076-0.83-0.368
	C19.864,17.05,21.549,16.956,22.146,17.402z"/>
<linearGradient id="Path_1_" gradientUnits="userSpaceOnUse" x1="24.7573" y1="343.1504" x2="24.7573" y2="341.7051" gradientTransform="matrix(0.9397 -0.342 0.342 0.9397 -119.4899 -295.3305)">
	<stop  offset="0" style="stop-color:#A6694A"/>
	<stop  offset="1" style="stop-color:#4F2A1E"/>
	<a:midPointStop  offset="0" style="stop-color:#A6694A"/>
	<a:midPointStop  offset="0.5" style="stop-color:#A6694A"/>
	<a:midPointStop  offset="1" style="stop-color:#4F2A1E"/>
</linearGradient>
<path id="Path_680_" fill="url(#Path_1_)" d="M20.332,18.155c0.341,0.938,1.429,0.541,1.087-0.396
	C21.102,16.887,20.014,17.283,20.332,18.155z"/>
<path id="Path_679_" fill="#1A1626" d="M20.43,18.07c0.171,0.471,0.714,0.272,0.542-0.196C20.813,17.437,20.271,17.634,20.43,18.07z
	"/>
<path id="Path_678_" fill="#AB968C" d="M20.696,17.759c0.071,0.195,0.387,0.08,0.315-0.114
	C20.944,17.461,20.629,17.576,20.696,17.759z"/>
<path fill="#DB9D3A" d="M22.146,17.402c-0.506-0.479-2.118-0.376-1.869,0.43C20.288,17.226,21.474,17.124,22.146,17.402z"/>
<path fill="#F7C259" d="M28.667,33.771c-1.485,3.071,2.049,3.072,5.527,8.902l1.676-2.539c-2.285-2.392-1.129-2.943-2.654-5.821
	L28.667,33.771z"/>
<path fill="#ED6A00" d="M38.633,34.365l-2.301-4.699c-2.268,1.3-6.193,2.029-7.666,4.104c0,0,1.371,1.398,5.388,2.723
	C35.744,35.82,38.633,34.365,38.633,34.365z"/>
<path fill="#302C3B" d="M22.465,30.533c-0.621-0.291-2.6-0.866-2.6-0.866V31.4l1.632,0.407l-0.766,3.059l1.733,0.866l0.867-3.466
	C23.332,32.266,24.688,31.576,22.465,30.533z"/>
<path fill="#0FB4D4" d="M48.172,48.937L39.385,38.5l1.189-2.378c0.213-0.429-1.338-1.204-1.551-0.777l-1.141,2.284l-16.896-3.785
	l-5.406,15.47c-0.343,0.972,1.321,1.46,1.636,0.578l4.668-13.227l10.293,13.463c0.008,0.011,0.02,0.014,0.027,0.021
	c0.074,0.092,0.535,0.318,0.662,0.318h14.734c0.004,0,0.012,0,0.016,0C48.096,50.467,48.363,49.094,48.172,48.937z M37.084,39.227
	l-4.375,8.747l-8.975-11.74L37.084,39.227z M34.268,48.733l4.273-8.544l7.195,8.544H34.268z"/>
<path fill="#302C3B" d="M18.132,49.6c0,2.313-3.467,2.313-3.467,0C14.665,47.289,18.132,47.289,18.132,49.6z"/>
<polygon fill="#BEC3CF" points="47.6,47.866 32.864,47 32.864,46.133 47.6,47 "/>
<polygon fill="#BEC3CF" points="47.6,52.2 32.866,53.066 32.866,52.2 47.6,51.333 "/>
<path fill="#302C3B" d="M50.199,49.6c0,3.467-5.199,3.467-5.199,0S50.199,46.133,50.199,49.6z"/>
<path fill="#302C3B" d="M32.864,53.066c-4.619,0-4.619-6.934,0-6.934C37.488,46.133,37.488,53.066,32.864,53.066z"/>
<polygon fill="#6E8189" points="31.131,55.667 29.399,55.667 31.999,49.6 33.732,49.6 "/>
<path fill="#99A8AE" d="M33.732,49.604c0,1.152-1.734,1.152-1.734,0C31.999,48.443,33.732,48.443,33.732,49.604z"/>
<path fill="#302C3B" d="M43.266,36.6c-1.732,0.866-3.467-0.867-6.934-0.867c0,0,0-1.733,1.734-1.733c3.572,0,4.709-0.679,6.066,0
	C45.865,34.866,44.361,36.053,43.266,36.6z"/>
<path fill="#FFCC66" d="M31.987,40.451c-0.445,1.821,2.314,6.063,1.025,12.272h3.658c-0.959-6.21,0.582-7.487,0.15-12.105
	C36.82,40.618,32.53,38.239,31.987,40.451z"/>
<path fill="#FF7A00" d="M44.338,28.333c-4.254-9.159-15.71-11.361-17.066-7.874c-0.913,2.351,5.387,4.653,9.061,9.207
	c-1.416,2.6-4.128,7.645-4.345,10.785c0,0,1.699,0.038,4.912,1.28C39.094,35.181,46.789,33.615,44.338,28.333z"/>
<path fill="#FFA959" d="M35.701,41.299l-1.73-0.509c0.818-3.714,2.865-5.891,4.469-7.663c1.412-1.558,2.199-2.496,1.996-3.645
	c-0.49-2.763-4.047-5.421-10.019-7.486l0.566-1.638c4.664,1.612,10.384,4.451,11.16,8.82c0.361,2.042-0.928,3.466-2.416,5.112
	C38.184,35.995,36.422,38.036,35.701,41.299z"/>
<path fill="#FFCC66" d="M27.772,26.568c0.137,0.769,0.281,1.162,0.326,1.626c-2.762,1.435-3.462,2.136-6.05,0.605
	c-1.733-1.024-5.092-1.104-4.378,2.424c0.307,1.516,2.218-2.546,2.948-1.138c1.154,2.222,1.561,1.749,3.201,1.663
	c3.892-0.205,7.904-0.348,7.753-1.841c-0.092-0.903,0.045-2.861,0.045-2.861L27.772,26.568z"/>
<path fill="#ED6A00" d="M31.526,21.577c-0.461-3.404-4.612-2.871-4.407-0.075c0.116,1.61,0.653,5.066,0.653,5.066
	c2.096,0.642,3.846,0.479,3.846,0.479C31.737,25.218,31.758,23.296,31.526,21.577z"/>
<path fill="#302C3B" d="M21.599,30.538c0,2.304-3.467,2.304-3.467,0C18.132,28.222,21.599,28.222,21.599,30.538z"/>
<path fill="#99A8AE" d="M20.731,30.535c0,1.152-1.733,1.152-1.733,0C18.998,29.376,20.731,29.376,20.731,30.535z"/>
<path fill="#99A8AE" d="M27.665,55.667c0,0-0.359,1.494,0.002,1.733c0.424,0.281,2.012-0.605,2.02,0.003h0.004
	c0.008-0.608,2.01-0.608,2.018,0h0.004c0.008-0.608,1.595,0.278,2.019-0.003c0.361-0.239,0.002-1.733,0.002-1.733H27.665z"/>
<path fill="#302C3B" d="M31.131,56.29c0,0.578-0.865,0.578-0.865,0S31.131,55.712,31.131,56.29z"/>
<path fill="#302C3B" d="M29.704,56.29c0,0.288-1.734,0.288-1.734,0C27.969,56.001,29.704,56.001,29.704,56.29z"/>
<path fill="#302C3B" d="M33.428,56.29c0,0.288-1.734,0.288-1.734,0C31.694,56.001,33.428,56.001,33.428,56.29z"/>
<path fill="#302C3B" d="M28.78,13.506c0,0-1-0.229-0.971,0.014c0.115,1.009-0.487,3.441-0.487,3.441s-2.687-1.279-3.886-3.901
	c-0.102-0.224-0.772,0.33-0.797,0.573c-0.148,1.479,4.337,4.445,4.337,4.445s-1.038,3.98-2.029,5.229
	C27.659,23.697,28.78,13.506,28.78,13.506z"/>
<path fill="#E81C27" d="M36.58,52.046c-0.93,0.896-2.934,0.721-3.51,0.268c-1.939,0.71-2.242,1.661-4.849,1.921
	c-1.083,0.108-0.752,1.331-0.557,1.433c0.998,0.512,4.529-0.368,8.048,0.253C37.377,56.214,36.828,52.021,36.58,52.046z"/>
<path fill="#302C3B" d="M32.641,52.485c-0.643,0.148-0.947,0.487-0.947,0.487C32.918,53.986,33.891,53.707,32.641,52.485z"/>
<path fill="#302C3B" d="M31.583,53.066c-0.643,0.148-0.947,0.488-0.947,0.488C31.649,54.394,32.635,54.095,31.583,53.066z"/>
<path fill="#302C3B" d="M30.545,53.626c-0.643,0.148-0.662,0.272-0.662,0.272C30.635,54.521,31.356,54.417,30.545,53.626z"/>
<path fill-rule="evenodd" clip-rule="evenodd" fill="#E81C27" d="M30.999,11.667c0.197,0.132,1.145,0.628,1.176,0.858
	c0.016,0.111-0.088,0.289-0.084,0.422c0.008,0.213,1.035,1.447,0.873,1.606c-1.361,1.334,0.427,0.915-0.414,1.582
	c-0.639,0.507-1.348,0.99-1.957,1.362c-0.768,0.471-1.549-0.112-5.275-1.866c-0.073-0.035-1.007,0.425-1.411,0.401
	c-0.287-0.018-1.536-0.417-1.832-0.475c-0.87-0.169-4.579-0.367-5.042-0.75c-0.569-4.246,6.479-10.571,15.25-3.904
	C32.629,11.168,30.999,11.667,30.999,11.667z"/>
<path fill-rule="evenodd" clip-rule="evenodd" fill="#8A0404" d="M17.94,13.242c-0.243,0.346,2.862-3.109,8.376-3.508
	C24.773,8.24,19.528,9.961,17.94,13.242z"/>
<path fill-rule="evenodd" clip-rule="evenodd" fill="#8A0404" d="M31.215,11.798c0,0,0.938-0.361,1.105-0.772
	c-1.314-0.138-2.148-0.401-2.438,0.021L31.215,11.798z"/>
<path fill-rule="evenodd" clip-rule="evenodd" fill="#8A0404" d="M28.567,13.145c2.518,0.938,3.873,2.264,3.873,2.264
	s0.08-0.36,0.467-0.799c-0.637-1.117-2.293-2.463-2.621-2.474C29.797,12.12,28.219,13.017,28.567,13.145z"/>
<path fill-rule="evenodd" clip-rule="evenodd" fill="#8A0404" d="M18.881,13.606c-0.423,0.663,1.488,0.601,3.529,0.364
	c0.736-0.087,5.463-1.867,5.782-2.374c0.068-0.108-0.252-1.025-0.523-1.032C25.708,10.518,19.879,12.323,18.881,13.606z"/>
</svg>
