<?xml version="1.0" encoding="utf-8"?>
<!-- Generator: Adobe Illustrator 15.0.0, SVG Export Plug-In . SVG Version: 6.00 Build 0)  -->
<!DOCTYPE svg PUBLIC "-//W3C//DTD SVG 1.1//EN" "http://www.w3.org/Graphics/SVG/1.1/DTD/svg11.dtd" [
	<!ENTITY ns_flows "http://ns.adobe.com/Flows/1.0/">
	<!ENTITY ns_extend "http://ns.adobe.com/Extensibility/1.0/">
	<!ENTITY ns_ai "http://ns.adobe.com/AdobeIllustrator/10.0/">
	<!ENTITY ns_graphs "http://ns.adobe.com/Graphs/1.0/">
]>
<svg version="1.1" id="Layer_1" xmlns:x="&ns_extend;" xmlns:i="&ns_ai;" xmlns:graph="&ns_graphs;"
	 xmlns="http://www.w3.org/2000/svg" xmlns:xlink="http://www.w3.org/1999/xlink" xmlns:a="http://ns.adobe.com/AdobeSVGViewerExtensions/3.0/"
	 x="0px" y="0px" width="64px" height="64px" viewBox="0 0 64 64" enable-background="new 0 0 64 64" xml:space="preserve">
<polygon fill="#99A8AE" points="42.289,32.167 40.535,32.106 42.537,27.981 44.385,28.042 "/>
<path fill="#99A8AE" d="M17.851,27.257c0.312-0.023,1.831-0.181,1.727,0.113c-0.742,2.09-1.106,3.016-1.106,3.016h1.586l1.28-3.522
	c0.316-0.926-0.491-1.231-3.011-0.993c-0.845,0.08-1.335-0.339-1.335-0.929c0-0.297,0.128-0.598,0.351-0.824
	c0.18-0.184,0.505-0.403,1.035-0.403v-1.5c-0.82,0-1.569,0.304-2.107,0.854c-0.495,0.506-0.778,1.188-0.778,1.873
	C15.492,26.111,16.382,27.366,17.851,27.257z"/>
<linearGradient id="SVGID_1_" gradientUnits="userSpaceOnUse" x1="20.7114" y1="24.3418" x2="20.7114" y2="22">
	<stop  offset="0" style="stop-color:#302C3B"/>
	<stop  offset="0.364" style="stop-color:#3D3E4B"/>
	<stop  offset="1" style="stop-color:#5B666E"/>
	<a:midPointStop  offset="0" style="stop-color:#302C3B"/>
	<a:midPointStop  offset="0.5515" style="stop-color:#302C3B"/>
	<a:midPointStop  offset="1" style="stop-color:#5B666E"/>
</linearGradient>
<path fill="url(#SVGID_1_)" d="M23.263,22c-1.631,0-4.615,0-5.005,0c-0.802,0-0.763,2.342,0,2.342c0.25,0,1,0,1,0
	c0.925-1.492,3.043-0.06,4.005-0.726C24.069,23.058,23.741,22,23.263,22z"/>
<path fill="#99A8AE" d="M41.037,50.389c0,0.334,19,0.334,19,0C60.037,50.057,41.037,50.057,41.037,50.389z"/>
<path fill="#99A8AE" d="M50.537,40.889c-0.334,0-0.334,19,0,19C50.869,59.889,50.869,40.889,50.537,40.889z"/>
<path fill="#99A8AE" d="M43.818,43.672c-0.234,0.234,13.199,13.67,13.436,13.436C57.488,56.871,44.055,43.436,43.818,43.672z"/>
<path fill="#99A8AE" d="M57.254,43.672c-0.236-0.234-13.67,13.199-13.436,13.436C44.055,57.342,57.49,43.908,57.254,43.672z"/>
<path fill="#99A8AE" d="M41.76,54.025c0.127,0.309,17.682-6.963,17.553-7.271C59.186,46.447,41.633,53.719,41.76,54.025z"/>
<path fill="#99A8AE" d="M46.9,41.611c-0.307,0.129,6.965,17.682,7.271,17.555C54.48,59.039,47.209,41.484,46.9,41.611z"/>
<path fill="#99A8AE" d="M41.76,46.754c-0.127,0.307,17.426,7.578,17.555,7.271C59.441,53.717,41.887,46.445,41.76,46.754z"/>
<path fill="#99A8AE" d="M54.172,41.613c-0.307-0.127-7.578,17.426-7.271,17.555C47.209,59.293,54.48,41.74,54.172,41.613z"/>
<path fill="#99A8AE" d="M50.5,39.957c-5.822,0-10.541,4.719-10.541,10.543c0,5.822,4.719,10.541,10.541,10.541
	S61.043,56.322,61.043,50.5C61.043,44.676,56.322,39.957,50.5,39.957z M50.5,59.125c-4.764,0-8.625-3.861-8.625-8.625
	s3.861-8.627,8.625-8.627c4.766,0,8.625,3.863,8.625,8.627S55.266,59.125,50.5,59.125z"/>
<path fill="#302C3B" d="M50.5,38.998c-6.35,0-11.5,5.15-11.5,11.502C39,56.85,44.15,62,50.5,62C56.852,62,62,56.85,62,50.5
	S56.852,38.998,50.5,38.998z M50.5,60.082c-5.291,0-9.582-4.289-9.582-9.582s4.291-9.584,9.582-9.584
	c5.293,0,9.584,4.291,9.584,9.584C60.084,55.795,55.793,60.082,50.5,60.082z"/>
<path fill="#99A8AE" d="M3.963,50.389c0,0.334,19,0.334,19,0C22.963,50.057,3.963,50.057,3.963,50.389z"/>
<path fill="#99A8AE" d="M13.463,40.889c-0.334,0-0.334,19,0,19C13.795,59.889,13.795,40.889,13.463,40.889z"/>
<path fill="#99A8AE" d="M6.744,43.672C6.51,43.906,19.943,57.342,20.18,57.107C20.414,56.871,6.98,43.436,6.744,43.672z"/>
<path fill="#99A8AE" d="M20.18,43.672C19.943,43.438,6.51,56.871,6.744,57.107C6.98,57.342,20.416,43.908,20.18,43.672z"/>
<path fill="#99A8AE" d="M4.686,54.025c0.127,0.309,17.682-6.963,17.553-7.271C22.111,46.447,4.559,53.719,4.686,54.025z"/>
<path fill="#99A8AE" d="M9.826,41.611c-0.307,0.129,6.965,17.682,7.271,17.555C17.406,59.039,10.135,41.484,9.826,41.611z"/>
<path fill="#99A8AE" d="M4.686,46.754c-0.127,0.307,17.426,7.578,17.555,7.271C22.367,53.717,4.813,46.445,4.686,46.754z"/>
<path fill="#99A8AE" d="M17.098,41.613c-0.307-0.127-7.578,17.426-7.271,17.555C10.135,59.293,17.406,41.74,17.098,41.613z"/>
<path fill="#99A8AE" d="M13.5,39.957c-5.823,0-10.542,4.719-10.542,10.543c0,5.822,4.719,10.541,10.542,10.541
	c5.821,0,10.542-4.719,10.542-10.541C24.042,44.676,19.321,39.957,13.5,39.957z M13.5,59.125c-4.764,0-8.625-3.861-8.625-8.625
	s3.861-8.627,8.625-8.627c4.765,0,8.625,3.863,8.625,8.627S18.265,59.125,13.5,59.125z"/>
<path fill="#302C3B" d="M13.5,38.998C7.149,38.998,2,44.148,2,50.5C2,56.85,7.149,62,13.5,62S25,56.85,25,50.5
	S19.851,38.998,13.5,38.998z M13.5,60.082c-5.292,0-9.583-4.289-9.583-9.582s4.291-9.584,9.583-9.584
	c5.293,0,9.583,4.291,9.583,9.584C23.083,55.795,18.793,60.082,13.5,60.082z"/>
<polygon fill="#6E8189" points="34.242,42.293 31.341,48.84 33.342,48.84 35.834,42.171 "/>
<path fill="#6E8189" d="M31.4,41.61c0,0-0.416,1.723,0.002,2c0.488,0.324,2.321-0.699,2.331,0.004h0.004
	c0.01-0.703,2.318-0.703,2.328,0h0.004c0.01-0.703,1.842,0.32,2.33-0.004c0.418-0.277,0.002-2,0.002-2H31.4z"/>
<linearGradient id="SVGID_2_" gradientUnits="userSpaceOnUse" x1="29.0757" y1="34.916" x2="29.0757" y2="33.0758">
	<stop  offset="0" style="stop-color:#009AF7"/>
	<stop  offset="0.1209" style="stop-color:#0DA3F4"/>
	<stop  offset="0.4955" style="stop-color:#30BAEC"/>
	<stop  offset="0.8019" style="stop-color:#46C9E8"/>
	<stop  offset="1" style="stop-color:#4ECEE6"/>
	<a:midPointStop  offset="0" style="stop-color:#009AF7"/>
	<a:midPointStop  offset="0.3879" style="stop-color:#009AF7"/>
	<a:midPointStop  offset="1" style="stop-color:#4ECEE6"/>
</linearGradient>
<rect x="17.911" y="32.783" fill="url(#SVGID_2_)" width="22.329" height="2.434"/>
<linearGradient id="SVGID_3_" gradientUnits="userSpaceOnUse" x1="23.8711" y1="43.9092" x2="25.6008" y2="42.0965">
	<stop  offset="0" style="stop-color:#009AF7"/>
	<stop  offset="0.1209" style="stop-color:#0DA3F4"/>
	<stop  offset="0.4955" style="stop-color:#30BAEC"/>
	<stop  offset="0.8019" style="stop-color:#46C9E8"/>
	<stop  offset="1" style="stop-color:#4ECEE6"/>
	<a:midPointStop  offset="0" style="stop-color:#009AF7"/>
	<a:midPointStop  offset="0.3879" style="stop-color:#009AF7"/>
	<a:midPointStop  offset="1" style="stop-color:#4ECEE6"/>
</linearGradient>
<path fill="url(#SVGID_3_)" d="M32.208,48.643L18.654,35.217l-1.547,1.971l13.68,13.633C31.277,50.105,31.74,49.373,32.208,48.643z"
	/>
<linearGradient id="SVGID_4_" gradientUnits="userSpaceOnUse" x1="40.9863" y1="49.1924" x2="40.9863" y2="51.6508">
	<stop  offset="0" style="stop-color:#4ECEE6"/>
	<stop  offset="0.1981" style="stop-color:#46C9E8"/>
	<stop  offset="0.5045" style="stop-color:#30BAEC"/>
	<stop  offset="0.8791" style="stop-color:#0DA3F4"/>
	<stop  offset="1" style="stop-color:#009AF7"/>
	<a:midPointStop  offset="0" style="stop-color:#4ECEE6"/>
	<a:midPointStop  offset="0.6121" style="stop-color:#4ECEE6"/>
	<a:midPointStop  offset="1" style="stop-color:#009AF7"/>
</linearGradient>
<path fill="url(#SVGID_4_)" d="M33.066,49.152c-0.536,0.83-1.065,1.662-1.631,2.471h19.102v-2.471H33.066z"/>
<linearGradient id="SVGID_5_" gradientUnits="userSpaceOnUse" x1="44.0068" y1="42.6621" x2="46.007" y2="41.329">
	<stop  offset="0" style="stop-color:#009AF7"/>
	<stop  offset="0.1209" style="stop-color:#0DA3F4"/>
	<stop  offset="0.4955" style="stop-color:#30BAEC"/>
	<stop  offset="0.8019" style="stop-color:#46C9E8"/>
	<stop  offset="1" style="stop-color:#4ECEE6"/>
	<a:midPointStop  offset="0" style="stop-color:#009AF7"/>
	<a:midPointStop  offset="0.3879" style="stop-color:#009AF7"/>
	<a:midPointStop  offset="1" style="stop-color:#4ECEE6"/>
</linearGradient>
<polygon fill="url(#SVGID_5_)" points="49.016,50 39,35.287 40.986,34 51,48.713 "/>
<linearGradient id="SVGID_6_" gradientUnits="userSpaceOnUse" x1="38.002" y1="41.4775" x2="35.8476" y2="40.3591">
	<stop  offset="0" style="stop-color:#009AF7"/>
	<stop  offset="0.1209" style="stop-color:#0DA3F4"/>
	<stop  offset="0.4955" style="stop-color:#30BAEC"/>
	<stop  offset="0.8019" style="stop-color:#46C9E8"/>
	<stop  offset="1" style="stop-color:#4ECEE6"/>
	<a:midPointStop  offset="0" style="stop-color:#009AF7"/>
	<a:midPointStop  offset="0.3879" style="stop-color:#009AF7"/>
	<a:midPointStop  offset="1" style="stop-color:#4ECEE6"/>
</linearGradient>
<polygon fill="url(#SVGID_6_)" points="33.09,50.939 30.908,49.836 40.123,31.974 42.889,31.974 "/>
<path fill="#B3C2C6" d="M50.053,47.518c-1.326-0.121-14.506-1.361-17.581-1.621c-2.744-0.221-4.896,1.904-4.896,4.461
	c0,2.428,1.926,4.479,4.482,4.479c0.137,0,16.668-1.518,17.995-1.643c1.848-0.166,2.961-1.361,2.961-2.836
	C53.014,48.881,51.9,47.688,50.053,47.518z M49.957,52.385c-1.326,0.123-14.502,1.365-17.573,1.623
	c-2.197,0.191-0.107-7.311,0-7.301c3.069,0.26,16.247,1.498,17.573,1.621C51.348,48.455,51.348,52.258,49.957,52.385z"/>
<path fill="#99A8AE" d="M48.537,50.387c0,2.67,4,2.67,4,0C52.537,47.723,48.537,47.723,48.537,50.387z"/>
<path fill="#6E8189" d="M49.537,50.391c0,1.334,2,1.334,2,0S49.537,49.057,49.537,50.391z"/>
<path fill="#6E8189" d="M43.172,28.85c0,1.334,2,1.334,2,0S43.172,27.516,43.172,28.85z"/>
<linearGradient id="SVGID_7_" gradientUnits="userSpaceOnUse" x1="16.3662" y1="40.6172" x2="14.4803" y2="39.863">
	<stop  offset="0" style="stop-color:#009AF7"/>
	<stop  offset="0.1209" style="stop-color:#0DA3F4"/>
	<stop  offset="0.4955" style="stop-color:#30BAEC"/>
	<stop  offset="0.8019" style="stop-color:#46C9E8"/>
	<stop  offset="1" style="stop-color:#4ECEE6"/>
	<a:midPointStop  offset="0" style="stop-color:#009AF7"/>
	<a:midPointStop  offset="0.3879" style="stop-color:#009AF7"/>
	<a:midPointStop  offset="1" style="stop-color:#4ECEE6"/>
</linearGradient>
<path fill="url(#SVGID_7_)" d="M20.237,30.979l-3.042,8.136c0.904,6.053-3.284,11.705-3.284,11.705l-1.044-0.877
	c2.938-4.328,2.062-11.271,2.062-11.271l2.875-7.692H20.237z"/>
<path fill="#302C3B" d="M11.463,50.387c0,2.67,4,2.67,4,0C15.463,47.723,11.463,47.723,11.463,50.387z"/>
<linearGradient id="SVGID_8_" gradientUnits="userSpaceOnUse" x1="43.002" y1="29.0684" x2="43.002" y2="25">
	<stop  offset="0" style="stop-color:#302C3B"/>
	<stop  offset="0.364" style="stop-color:#3D3E4B"/>
	<stop  offset="1" style="stop-color:#5B666E"/>
	<a:midPointStop  offset="0" style="stop-color:#302C3B"/>
	<a:midPointStop  offset="0.5515" style="stop-color:#302C3B"/>
	<a:midPointStop  offset="1" style="stop-color:#5B666E"/>
</linearGradient>
<path fill="url(#SVGID_8_)" d="M47.049,25c-2.01,0-4.02,2.094-9.756,1.43c-0.471-0.055-0.289,1.387,0,1.713
	C38.84,29.887,47.359,28.771,48.529,28C48.945,27.727,49.832,25,47.049,25"/>
<path fill="#99A8AE" d="M28,50.389c0,5.332,8,5.332,8,0C36,45.055,28,45.055,28,50.389z"/>
<path fill="#6E8189" d="M30,50.387c0,2.67,4,2.67,4,0C34,47.723,30,47.723,30,50.387z"/>
<polygon fill="#6E8189" points="31,50.389 29.148,56.295 31.148,56.295 33,50.389 "/>
<path fill="#99A8AE" d="M26.5,56.295c0,0-0.416,1.723,0.002,2c0.488,0.324,2.32-0.699,2.33,0.004h0.004
	c0.01-0.703,2.318-0.703,2.328,0h0.004c0.01-0.703,1.842,0.32,2.331-0.004c0.418-0.277,0.002-2,0.002-2H26.5z"/>
<path fill="#302C3B" d="M30.5,57.014c0,0.666-1,0.666-1,0C29.5,56.346,30.5,56.346,30.5,57.014z"/>
<path fill="#302C3B" d="M28.851,57.014c0,0.332-2,0.332-2,0C26.852,56.68,28.851,56.68,28.851,57.014z"/>
<path fill="#302C3B" d="M33.148,57.014c0,0.332-2,0.332-2,0C31.148,56.68,33.148,56.68,33.148,57.014z"/>
<path fill="#E6EBEF" d="M31,50.389c0,1.334,2,1.334,2,0S31,49.055,31,50.389z"/>
<polygon fill="#6E8189" points="20.534,30.979 17.507,30.979 17.862,30.015 20.846,30.015 "/>
</svg>
