<?xml version="1.0" encoding="utf-8"?>
<!-- Generator: Adobe Illustrator 15.0.0, SVG Export Plug-In . SVG Version: 6.00 Build 0)  -->
<!DOCTYPE svg PUBLIC "-//W3C//DTD SVG 1.1//EN" "http://www.w3.org/Graphics/SVG/1.1/DTD/svg11.dtd" [
	<!ENTITY ns_flows "http://ns.adobe.com/Flows/1.0/">
	<!ENTITY ns_extend "http://ns.adobe.com/Extensibility/1.0/">
	<!ENTITY ns_ai "http://ns.adobe.com/AdobeIllustrator/10.0/">
	<!ENTITY ns_graphs "http://ns.adobe.com/Graphs/1.0/">
]>
<svg version="1.1" id="Layer_1" xmlns:x="&ns_extend;" xmlns:i="&ns_ai;" xmlns:graph="&ns_graphs;"
	 xmlns="http://www.w3.org/2000/svg" xmlns:xlink="http://www.w3.org/1999/xlink" xmlns:a="http://ns.adobe.com/AdobeSVGViewerExtensions/3.0/"
	 x="0px" y="0px" width="64px" height="64px" viewBox="0 0 64 64" enable-background="new 0 0 64 64" xml:space="preserve">
<linearGradient id="SVGID_1_" gradientUnits="userSpaceOnUse" x1="88" y1="-138.0039" x2="88" y2="-82.0083" gradientTransform="matrix(1 0 0 -1 -56 -80)">
	<stop  offset="0" style="stop-color:#697378"/>
	<stop  offset="0.1088" style="stop-color:#727C82"/>
	<stop  offset="0.4414" style="stop-color:#87949A"/>
	<stop  offset="0.7475" style="stop-color:#94A3A9"/>
	<stop  offset="1" style="stop-color:#99A8AE"/>
	<a:midPointStop  offset="0" style="stop-color:#697378"/>
	<a:midPointStop  offset="0.5" style="stop-color:#697378"/>
	<a:midPointStop  offset="0.1088" style="stop-color:#727C82"/>
	<a:midPointStop  offset="0.5" style="stop-color:#727C82"/>
	<a:midPointStop  offset="0.4414" style="stop-color:#87949A"/>
	<a:midPointStop  offset="0.5" style="stop-color:#87949A"/>
	<a:midPointStop  offset="0.7475" style="stop-color:#94A3A9"/>
	<a:midPointStop  offset="0.5" style="stop-color:#94A3A9"/>
	<a:midPointStop  offset="1" style="stop-color:#99A8AE"/>
</linearGradient>
<path fill="url(#SVGID_1_)" d="M45.691,2.008c-0.357-0.055-6.848,23.744-15.434,21.504L13,14.836c0,0,0.268,12.152-11,18.154v25.014
	h60V27.235C50.266,13.961,52.723,3.106,45.691,2.008z"/>
<path fill="#CFD8DD" d="M30.258,23.512c10.086-3.096,13.633-22.949,15.594-21.43c0.957,0.742,5.113,15.416,0.85,12.205
	c-6.563-4.936,1.939,5.246,2.004,10.895c0.039,3.57-13.656-10.469-4.609,13.81L30.258,23.512z"/>
<polygon fill="#CFD8DD" points="56.682,28.588 51.4,18.407 52.906,25.68 "/>
<polygon fill="#CFD8DD" points="51.809,40.494 51.1,33.801 47.207,30.008 "/>
<path fill="#CFD8DD" d="M2,30.456c0,0,8.621-4.355,10.906-15.541c0.189-0.926,3.074,5.576,4.5,12.379
	c0.621,2.973-4.314-3.23-4.313,1.096c0.002,6.527-5.188,14.097-5.188,14.097C10.748,25.112,2,43.988,2,43.988V30.456z"/>
<linearGradient id="SVGID_2_" gradientUnits="userSpaceOnUse" x1="88" y1="-142" x2="88" y2="-126.7148" gradientTransform="matrix(1 0 0 -1 -56 -80)">
	<stop  offset="0" style="stop-color:#916958"/>
	<stop  offset="0.21" style="stop-color:#8B6454"/>
	<stop  offset="0.4866" style="stop-color:#7B5748"/>
	<stop  offset="0.799" style="stop-color:#5F4034"/>
	<stop  offset="1" style="stop-color:#4A2F24"/>
	<a:midPointStop  offset="0" style="stop-color:#916958"/>
	<a:midPointStop  offset="0.5" style="stop-color:#916958"/>
	<a:midPointStop  offset="0.21" style="stop-color:#8B6454"/>
	<a:midPointStop  offset="0.5" style="stop-color:#8B6454"/>
	<a:midPointStop  offset="0.4866" style="stop-color:#7B5748"/>
	<a:midPointStop  offset="0.5" style="stop-color:#7B5748"/>
	<a:midPointStop  offset="0.799" style="stop-color:#5F4034"/>
	<a:midPointStop  offset="0.5" style="stop-color:#5F4034"/>
	<a:midPointStop  offset="1" style="stop-color:#4A2F24"/>
</linearGradient>
<path fill="url(#SVGID_2_)" d="M62,46.715c-36.494,2.33-42.457,8.854-60,9.65V62h60V46.715z"/>
<path fill="#99A8AE" d="M47.602,40.066c-5.268,0-9.533,4.268-9.533,9.533s4.266,9.533,9.533,9.533c5.264,0,9.533-4.268,9.533-9.533
	S52.865,40.066,47.602,40.066z M47.602,57.4c-4.309,0-7.801-3.492-7.801-7.801s3.492-7.801,7.801-7.801
	c4.307,0,7.799,3.492,7.799,7.801S51.908,57.4,47.602,57.4z"/>
<path fill="#99A8AE" d="M16.4,40.066c-5.266,0-9.533,4.268-9.533,9.533s4.268,9.533,9.533,9.533s9.533-4.268,9.533-9.533
	S21.666,40.066,16.4,40.066z M16.4,57.4c-4.307,0-7.799-3.492-7.799-7.801s3.492-7.801,7.799-7.801c4.309,0,7.801,3.492,7.801,7.801
	S20.709,57.4,16.4,57.4z"/>
<path fill="#302C3B" d="M16.4,39.449c-5.605,0-10.15,4.545-10.15,10.15s4.545,10.15,10.15,10.15s10.15-4.545,10.15-10.15
	C26.551,43.996,22.006,39.449,16.4,39.449z M16.4,58.059c-4.67,0-8.457-3.787-8.457-8.459c0-4.67,3.787-8.459,8.457-8.459
	c4.672,0,8.459,3.789,8.459,8.459C24.859,54.273,21.072,58.059,16.4,58.059z"/>
<rect x="13.996" y="59.42" transform="matrix(-0.9848 -0.1739 0.1739 -0.9848 18.6705 120.8993)" fill="#302C3B" width="1.269" height="0.425"/>
<rect x="17.533" y="39.354" transform="matrix(-0.9851 -0.1721 0.1721 -0.9851 29.2564 81.6715)" fill="#302C3B" width="1.271" height="0.426"/>
<rect x="12.282" y="58.96" transform="matrix(-0.9397 -0.342 0.342 -0.9397 4.817 119.193)" fill="#302C3B" width="1.268" height="0.424"/>
<rect x="19.25" y="39.813" transform="matrix(-0.9399 -0.3415 0.3415 -0.9399 24.9053 84.437)" fill="#302C3B" width="1.27" height="0.426"/>
<rect x="10.674" y="58.21" transform="matrix(-0.8663 -0.4995 0.4995 -0.8663 -8.0753 114.6827)" fill="#302C3B" width="1.267" height="0.424"/>
<rect x="20.86" y="40.563" transform="matrix(-0.8667 -0.4988 0.4988 -0.8667 19.7848 86.8392)" fill="#302C3B" width="1.269" height="0.426"/>
<rect x="9.218" y="57.191" transform="matrix(-0.7653 -0.6437 0.6437 -0.7653 -19.5555 107.6764)" fill="#302C3B" width="1.268" height="0.426"/>
<rect x="22.312" y="41.582" transform="matrix(-0.7673 -0.6412 0.6412 -0.7673 13.7543 88.5823)" fill="#302C3B" width="1.27" height="0.428"/>
<rect x="7.962" y="55.935" transform="matrix(-0.6437 -0.7653 0.7653 -0.6437 -28.8402 98.8665)" fill="#302C3B" width="1.268" height="0.426"/>
<rect x="23.569" y="42.838" transform="matrix(-0.6429 -0.7659 0.7659 -0.6429 6.7904 89.2673)" fill="#302C3B" width="1.27" height="0.426"/>
<rect x="6.943" y="54.48" transform="matrix(-0.4999 -0.8661 0.8661 -0.4999 -36.0008 88.6001)" fill="#302C3B" width="1.27" height="0.426"/>
<rect x="24.588" y="44.292" transform="matrix(-0.4999 -0.8661 0.8661 -0.4999 -0.7112 88.5991)" fill="#302C3B" width="1.27" height="0.425"/>
<rect x="6.194" y="52.871" transform="matrix(-0.3425 -0.9395 0.9395 -0.3425 -40.7083 77.6788)" fill="#302C3B" width="1.266" height="0.426"/>
<rect x="25.337" y="45.901" transform="matrix(-0.3429 -0.9394 0.9394 -0.3429 -8.4417 86.3231)" fill="#302C3B" width="1.27" height="0.426"/>
<rect x="5.734" y="51.156" transform="matrix(-0.1741 -0.9847 0.9847 -0.1741 -43.1062 66.5841)" fill="#302C3B" width="1.267" height="0.425"/>
<rect x="25.798" y="47.617" transform="matrix(-0.1754 -0.9845 0.9845 -0.1754 -16.0209 82.2408)" fill="#302C3B" width="1.27" height="0.426"/>
<rect x="6" y="48.965" fill="#302C3B" width="0.426" height="1.27"/>
<rect x="26.375" y="48.965" fill="#302C3B" width="0.426" height="1.27"/>
<rect x="5.733" y="47.618" transform="matrix(0.1739 -0.9848 0.9848 0.1739 -41.8406 45.7849)" fill="#302C3B" width="1.269" height="0.425"/>
<rect x="25.797" y="51.154" transform="matrix(0.1721 -0.9851 0.9851 0.1721 -28.7175 68.564)" fill="#302C3B" width="1.271" height="0.427"/>
<rect x="6.194" y="45.903" transform="matrix(0.342 -0.9397 0.9397 0.342 -38.8417 36.7607)" fill="#302C3B" width="1.268" height="0.424"/>
<rect x="25.338" y="52.869" transform="matrix(0.341 -0.9401 0.9401 0.341 -32.7839 59.3977)" fill="#302C3B" width="1.272" height="0.427"/>
<rect x="6.945" y="44.294" transform="matrix(0.5006 -0.8657 0.8657 0.5006 -34.7426 28.7867)" fill="#302C3B" width="1.268" height="0.423"/>
<rect x="24.587" y="54.479" transform="matrix(0.4993 -0.8664 0.8664 0.4993 -34.7582 49.2396)" fill="#302C3B" width="1.271" height="0.426"/>
<rect x="7.963" y="42.839" transform="matrix(0.6429 -0.7659 0.7659 0.6429 -29.9044 21.9586)" fill="#302C3B" width="1.27" height="0.424"/>
<rect x="23.568" y="55.933" transform="matrix(0.6421 -0.7666 0.7666 0.6421 -34.3794 38.6466)" fill="#302C3B" width="1.271" height="0.427"/>
<rect x="9.218" y="41.582" transform="matrix(0.7646 -0.6446 0.6446 0.7646 -24.6197 16.1911)" fill="#302C3B" width="1.27" height="0.426"/>
<rect x="22.314" y="57.191" transform="matrix(0.7659 -0.6429 0.6429 0.7659 -31.5335 28.1895)" fill="#302C3B" width="1.27" height="0.426"/>
<rect x="10.674" y="40.564" transform="matrix(0.8657 -0.5006 0.5006 0.8657 -18.8942 11.1381)" fill="#302C3B" width="1.268" height="0.424"/>
<rect x="20.859" y="58.209" transform="matrix(0.8661 -0.4999 0.4999 0.8661 -26.3287 18.571)" fill="#302C3B" width="1.27" height="0.426"/>
<rect x="12.282" y="39.813" transform="matrix(0.9394 -0.3429 0.3429 0.9394 -12.9399 6.8546)" fill="#302C3B" width="1.27" height="0.426"/>
<rect x="19.251" y="58.96" transform="matrix(0.9399 -0.3415 0.3415 0.9399 -19.0118 10.3482)" fill="#302C3B" width="1.27" height="0.426"/>
<rect x="13.997" y="39.353" transform="matrix(0.9848 -0.1739 0.1739 0.9848 -6.6567 3.1468)" fill="#302C3B" width="1.269" height="0.426"/>
<rect x="17.535" y="59.421" transform="matrix(0.985 -0.1724 0.1724 0.985 -10.0075 4.0248)" fill="#302C3B" width="1.269" height="0.425"/>
<rect x="15.766" y="39.199" fill="#302C3B" width="1.27" height="0.426"/>
<rect x="15.766" y="59.574" fill="#302C3B" width="1.27" height="0.426"/>
<path fill="#302C3B" d="M47.602,39.449c-5.605,0-10.15,4.545-10.15,10.15s4.545,10.15,10.15,10.15
	c5.604,0,10.148-4.545,10.148-10.15C57.75,43.996,53.205,39.449,47.602,39.449z M47.602,58.059c-4.672,0-8.459-3.787-8.459-8.459
	c0-4.67,3.787-8.459,8.459-8.459s8.457,3.789,8.457,8.459C56.059,54.273,52.273,58.059,47.602,58.059z"/>
<rect x="45.197" y="59.42" transform="matrix(-0.9847 -0.1741 0.1741 -0.9847 80.5778 126.3335)" fill="#302C3B" width="1.267" height="0.425"/>
<rect x="48.735" y="39.354" transform="matrix(-0.985 -0.1724 0.1724 -0.985 91.1786 87.0527)" fill="#302C3B" width="1.269" height="0.426"/>
<rect x="43.482" y="58.96" transform="matrix(-0.9397 -0.342 0.342 -0.9397 65.3362 129.8632)" fill="#302C3B" width="1.268" height="0.425"/>
<rect x="50.449" y="39.813" transform="matrix(-0.9399 -0.3415 0.3415 -0.9399 85.4281 95.0915)" fill="#302C3B" width="1.27" height="0.426"/>
<rect x="41.873" y="58.21" transform="matrix(-0.8663 -0.4995 0.4995 -0.8663 50.1531 130.2653)" fill="#302C3B" width="1.267" height="0.424"/>
<rect x="52.058" y="40.563" transform="matrix(-0.8671 -0.4981 0.4981 -0.8671 78.0724 102.3816)" fill="#302C3B" width="1.27" height="0.427"/>
<rect x="40.417" y="57.19" transform="matrix(-0.7659 -0.6429 0.6429 -0.7659 35.5905 127.7635)" fill="#302C3B" width="1.27" height="0.427"/>
<rect x="53.514" y="41.582" transform="matrix(-0.7667 -0.642 0.642 -0.7667 68.8314 108.6043)" fill="#302C3B" width="1.269" height="0.427"/>
<rect x="39.163" y="55.935" transform="matrix(-0.6428 -0.7661 0.7661 -0.6428 22.3638 122.7239)" fill="#302C3B" width="1.267" height="0.426"/>
<rect x="54.768" y="42.837" transform="matrix(-0.6438 -0.7652 0.7652 -0.6438 58.1302 113.1611)" fill="#302C3B" width="1.271" height="0.427"/>
<rect x="38.143" y="54.48" transform="matrix(-0.4999 -0.8661 0.8661 -0.4999 10.7963 115.6204)" fill="#302C3B" width="1.27" height="0.426"/>
<rect x="55.787" y="44.291" transform="matrix(-0.5011 -0.8654 0.8654 -0.5011 46.1806 115.6331)" fill="#302C3B" width="1.271" height="0.427"/>
<rect x="37.394" y="52.871" transform="matrix(-0.3438 -0.939 0.939 -0.3438 1.2557 107.0454)" fill="#302C3B" width="1.267" height="0.426"/>
<rect x="56.536" y="45.901" transform="matrix(-0.3442 -0.9389 0.9389 -0.3442 33.5546 115.6655)" fill="#302C3B" width="1.271" height="0.428"/>
<rect x="36.935" y="51.155" transform="matrix(-0.1741 -0.9847 0.9847 -0.1741 -6.4729 97.3076)" fill="#302C3B" width="1.267" height="0.426"/>
<rect x="56.998" y="47.617" transform="matrix(-0.1739 -0.9848 0.9848 -0.1739 20.5521 112.9014)" fill="#302C3B" width="1.269" height="0.426"/>
<rect x="37.201" y="48.965" fill="#302C3B" width="0.426" height="1.27"/>
<rect x="57.574" y="48.965" fill="#302C3B" width="0.426" height="1.27"/>
<rect x="36.934" y="47.617" transform="matrix(0.1739 -0.9848 0.9848 0.1739 -16.0653 76.5098)" fill="#302C3B" width="1.269" height="0.426"/>
<rect x="56.996" y="51.154" transform="matrix(0.1721 -0.9851 0.9851 0.1721 -2.8883 99.2976)" fill="#302C3B" width="1.271" height="0.427"/>
<rect x="37.394" y="45.903" transform="matrix(0.3433 -0.9392 0.9392 0.3433 -18.3405 65.9981)" fill="#302C3B" width="1.269" height="0.424"/>
<rect x="56.537" y="52.869" transform="matrix(0.341 -0.9401 0.9401 0.341 -12.2237 88.7269)" fill="#302C3B" width="1.272" height="0.427"/>
<rect x="38.144" y="44.294" transform="matrix(0.5006 -0.8657 0.8657 0.5006 -19.162 55.795)" fill="#302C3B" width="1.268" height="0.423"/>
<rect x="55.787" y="54.48" transform="matrix(0.4993 -0.8664 0.8664 0.4993 -19.1356 76.2727)" fill="#302C3B" width="1.271" height="0.424"/>
<rect x="39.163" y="42.838" transform="matrix(0.642 -0.7667 0.7667 0.642 -18.76 45.9246)" fill="#302C3B" width="1.269" height="0.426"/>
<rect x="54.769" y="55.933" transform="matrix(0.6412 -0.7673 0.7673 0.6412 -23.2066 62.6568)" fill="#302C3B" width="1.27" height="0.427"/>
<rect x="40.417" y="41.582" transform="matrix(0.7652 -0.6438 0.6438 0.7652 -17.2682 36.2438)" fill="#302C3B" width="1.271" height="0.426"/>
<rect x="53.514" y="57.191" transform="matrix(0.7659 -0.6429 0.6429 0.7659 -24.2312 48.2476)" fill="#302C3B" width="1.27" height="0.426"/>
<rect x="41.873" y="40.564" transform="matrix(0.8657 -0.5006 0.5006 0.8657 -14.7033 26.7568)" fill="#302C3B" width="1.268" height="0.424"/>
<rect x="52.06" y="58.209" transform="matrix(0.8657 -0.5006 0.5006 0.8657 -22.1683 34.2271)" fill="#302C3B" width="1.268" height="0.426"/>
<rect x="43.482" y="39.812" transform="matrix(0.9392 -0.3433 0.3433 0.9392 -11.0608 17.5805)" fill="#302C3B" width="1.269" height="0.426"/>
<rect x="50.451" y="58.96" transform="matrix(0.9397 -0.342 0.342 0.9397 -17.1563 21.0385)" fill="#302C3B" width="1.268" height="0.426"/>
<rect x="45.197" y="39.353" transform="matrix(0.9848 -0.1739 0.1739 0.9848 -6.1814 8.5716)" fill="#302C3B" width="1.269" height="0.426"/>
<rect x="48.736" y="59.421" transform="matrix(0.985 -0.1724 0.1724 0.985 -9.5405 9.4031)" fill="#302C3B" width="1.269" height="0.424"/>
<rect x="46.967" y="39.199" fill="#302C3B" width="1.268" height="0.426"/>
<rect x="46.967" y="59.574" fill="#302C3B" width="1.268" height="0.426"/>
<path fill="#8C5F44" d="M24.744,23.393c0.855-0.867,2.406-0.365,2.613-0.01c0.68,1.16,3.902-1.666,2.857-2.904
	c-0.91-1.08-0.842-2.787-0.842-2.787C28.539,17.547,24.396,14.012,24.744,23.393z"/>
<path fill="#8F604D" d="M19.264,18.403c-0.463-2.525,2.016-4.141,0.285-6.07C16.912,14.059,17.498,16.475,19.264,18.403z"/>
<path fill="#B88A6F" d="M21.098,10.749c-2.959,1.646-3.297,4.311-1.826,6.771c0.332,0.557,0.32,1.719-0.201,2.654
	c-0.189,0.338-0.102,0.664,0.111,0.826c0.416,0.32,1,0.111,1.301,0.178c0.672,0.148,0.266,0.73,0.824,0.992
	c0.254,0.117,0.697-0.324,0.492,0.869c0.793,0.229,0.148,1.713,1.824,1.299c0.881-0.221,3.307-3.158,3.52-4.297
	c0.246-1.328,0-2.322,0-2.322c2.16-1.572,2.246-3.988,0.924-6.002C26.217,8.897,23.018,9.682,21.098,10.749z"/>
<path fill="#8C5F44" d="M21.307,22.17c0.361,0.072,0.334,0.404,0.334,0.404c-0.141,0.053-0.006,0.533,0.205,0.455
	c0.734-0.268,1.182-1.145,1.264-1.607C21.936,21.786,20.482,21.725,21.307,22.17z"/>
<path fill="#FFFFFF" d="M21.307,22.17c0,0,0.258,0.359,0.334,0.404c0.23-0.082,0.922-0.523,1.275-0.996L21.307,22.17z"/>
<path fill="#8C5F44" d="M19.191,21c0.428,0.502,1.865,0.121,2.053-0.746C20.703,21.051,18.941,20.711,19.191,21z"/>
<path id="Path_1639_" fill="#78513A" d="M21.93,15.938c-0.811-0.145-2.096,0.305-2.475,0.746c-0.084,0.09,0.117,0.43,0.191,0.365
	c0.559-0.529,1.627-0.926,2.365-0.836C22.109,16.225,22.049,15.954,21.93,15.938z"/>
<linearGradient id="SVGID_3_" gradientUnits="userSpaceOnUse" x1="33.9072" y1="345.2334" x2="25.5381" y2="336.2159" gradientTransform="matrix(0.9397 -0.342 0.342 0.9397 -119.4899 -295.3305)">
	<stop  offset="0" style="stop-color:#6B4435"/>
	<stop  offset="0.0671" style="stop-color:#704839"/>
	<stop  offset="0.341" style="stop-color:#825644"/>
	<stop  offset="0.6384" style="stop-color:#8C5D4B"/>
	<stop  offset="1" style="stop-color:#8F604D"/>
	<a:midPointStop  offset="0" style="stop-color:#6B4435"/>
	<a:midPointStop  offset="0.2545" style="stop-color:#6B4435"/>
	<a:midPointStop  offset="1" style="stop-color:#8F604D"/>
</linearGradient>
<path fill="url(#SVGID_3_)" d="M22.563,12.766c3.436,1.547,5.287,4.689,5.877,7.336C31.451,17.549,29.539,9.278,22.563,12.766z"/>
<linearGradient id="SVGID_4_" gradientUnits="userSpaceOnUse" x1="34.7559" y1="344.8984" x2="25.6636" y2="335.1019" gradientTransform="matrix(0.9397 -0.342 0.342 0.9397 -119.4899 -295.3305)">
	<stop  offset="0" style="stop-color:#6B4435"/>
	<stop  offset="0.0671" style="stop-color:#704839"/>
	<stop  offset="0.341" style="stop-color:#825644"/>
	<stop  offset="0.6384" style="stop-color:#8C5D4B"/>
	<stop  offset="1" style="stop-color:#8F604D"/>
	<a:midPointStop  offset="0" style="stop-color:#6B4435"/>
	<a:midPointStop  offset="0.2545" style="stop-color:#6B4435"/>
	<a:midPointStop  offset="1" style="stop-color:#8F604D"/>
</linearGradient>
<path fill="url(#SVGID_4_)" d="M29.99,19.284c1.203-2.188,0.41-6.57-1.963-8.754c-1.752-1.613-3.699-2.041-6.631-0.965
	c-2.375,0.869-3.855,2.947-3.684,4.66c0.236,2.383,3.656,1.041,5.436,2.42c0,0,0.076-1.369-1.387-2.709
	C27.49,18.168,27.41,12.297,29.99,19.284z"/>
<path fill="#B88A6F" d="M26.088,14.79c-1.084,0.668-0.486,3.451,0.604,3.707c0.152,0.035,0.82-0.127,0.924-0.9
	c0.057-0.428,0.598-1.039,0.436-1.777C27.842,14.874,27.168,14.124,26.088,14.79z"/>
<path id="Path_1638_" fill="#8C5F44" d="M26.328,15.256c-0.26,0.211-0.416,0.658-0.311,1.213c0.953-0.672,1.338,0.535,0.449,1.016
	c0.072,0.105,0.152,0.211,0.242,0.314c0.199-0.615,0.734-0.684,0.82-1.488C27.607,15.583,26.977,14.737,26.328,15.256z"/>
<path fill="#FFFFFF" d="M22.146,17.403c0.076,0.164-0.236,0.969-0.898,1.273c-0.375,0.176-0.625-0.076-0.83-0.367
	C19.865,17.051,21.549,16.956,22.146,17.403z"/>
<linearGradient id="Path_1_" gradientUnits="userSpaceOnUse" x1="24.7578" y1="343.1504" x2="24.7578" y2="341.7061" gradientTransform="matrix(0.9397 -0.342 0.342 0.9397 -119.4899 -295.3305)">
	<stop  offset="0" style="stop-color:#A6694A"/>
	<stop  offset="1" style="stop-color:#4F2A1E"/>
	<a:midPointStop  offset="0" style="stop-color:#A6694A"/>
	<a:midPointStop  offset="0.5" style="stop-color:#A6694A"/>
	<a:midPointStop  offset="1" style="stop-color:#4F2A1E"/>
</linearGradient>
<path id="Path_1637_" fill="url(#Path_1_)" d="M20.332,18.155c0.342,0.939,1.43,0.541,1.088-0.395
	C21.102,16.887,20.014,17.284,20.332,18.155z"/>
<path id="Path_1636_" fill="#1A1626" d="M20.43,18.071c0.172,0.471,0.715,0.271,0.543-0.197
	C20.814,17.438,20.271,17.635,20.43,18.071z"/>
<path id="Path_1635_" fill="#AB968C" d="M20.697,17.76c0.07,0.195,0.387,0.08,0.314-0.115C20.945,17.461,20.629,17.577,20.697,17.76
	z"/>
<path fill="#8C5F44" d="M22.146,17.403c-0.506-0.48-2.119-0.377-1.869,0.43C20.289,17.227,21.475,17.124,22.146,17.403z"/>
<path fill="#B88A6F" d="M28.668,33.771c-1.486,3.07,2.047,3.072,5.527,8.902l1.676-2.539c-2.285-2.393-1.129-2.943-2.656-5.822
	L28.668,33.771z"/>
<path fill="#ED6A00" d="M38.633,34.365l-2.299-4.699c-2.268,1.301-6.195,2.029-7.666,4.105c0,0,1.371,1.398,5.389,2.723
	C35.746,35.82,38.633,34.365,38.633,34.365z"/>
<path fill="#302C3B" d="M22.465,30.534c-0.621-0.291-2.6-0.867-2.6-0.867v1.734l1.633,0.406l-0.766,3.061l1.732,0.865l0.867-3.467
	C23.332,32.266,24.689,31.576,22.465,30.534z"/>
<path fill="#0FB4D4" d="M48.172,48.938L39.385,38.5l1.189-2.377c0.215-0.43-1.336-1.205-1.549-0.777l-1.143,2.283l-16.895-3.785
	l-5.406,15.471c-0.344,0.971,1.32,1.459,1.635,0.578l4.668-13.227L32.18,50.129c0.006,0.01,0.02,0.014,0.025,0.02
	c0.076,0.092,0.535,0.318,0.662,0.318h14.734c0.006,0,0.012,0,0.018,0C48.096,50.467,48.363,49.094,48.172,48.938z M37.084,39.227
	l-4.373,8.748l-8.977-11.74L37.084,39.227z M34.268,48.734l4.275-8.545l7.193,8.545H34.268z"/>
<path fill="#302C3B" d="M18.133,49.6c0,2.313-3.467,2.313-3.467,0C14.666,47.289,18.133,47.289,18.133,49.6z"/>
<polygon fill="#BEC3CF" points="47.6,47.867 32.865,47 32.865,46.133 47.6,47 "/>
<polygon fill="#BEC3CF" points="47.6,52.201 32.865,53.066 32.865,52.201 47.6,51.334 "/>
<path fill="#302C3B" d="M50.201,49.6c0,3.467-5.201,3.467-5.201,0S50.201,46.133,50.201,49.6z"/>
<path fill="#302C3B" d="M32.865,53.066c-4.621,0-4.621-6.934,0-6.934C37.488,46.133,37.488,53.066,32.865,53.066z"/>
<polygon fill="#6E8189" points="31.133,55.668 29.398,55.668 32,49.6 33.732,49.6 "/>
<path fill="#99A8AE" d="M33.732,49.604c0,1.152-1.732,1.152-1.732,0C32,48.443,33.732,48.443,33.732,49.604z"/>
<path fill="#302C3B" d="M43.268,36.6c-1.734,0.867-3.467-0.867-6.934-0.867c0,0,0-1.732,1.732-1.732c3.574,0,4.709-0.68,6.066,0
	C45.867,34.867,44.361,36.053,43.268,36.6z"/>
<path fill="#B88A6F" d="M31.986,40.451c-0.445,1.822,2.314,6.063,1.027,12.273h3.658c-0.961-6.211,0.582-7.488,0.148-12.105
	C36.82,40.619,32.529,38.24,31.986,40.451z"/>
<path fill="#FF7A00" d="M44.338,28.334c-4.254-9.16-15.711-11.361-17.066-7.875c-0.912,2.352,5.389,4.654,9.063,9.207
	c-1.416,2.599-4.129,7.646-4.348,10.785c0,0,1.699,0.039,4.912,1.281C39.096,35.182,46.789,33.615,44.338,28.334z"/>
<path fill="#FFA959" d="M35.703,41.299l-1.732-0.508c0.82-3.715,2.867-5.891,4.471-7.664c1.41-1.559,2.197-2.496,1.994-3.644
	c-0.488-2.764-4.047-5.422-10.02-7.486l0.568-1.639c4.662,1.613,10.385,4.451,11.158,8.82c0.363,2.043-0.926,3.466-2.416,5.113
	C38.186,35.996,36.422,38.037,35.703,41.299z"/>
<path fill="#B88A6F" d="M27.773,26.569c0.135,0.768,0.279,1.162,0.326,1.625c-2.764,1.436-3.463,2.137-6.051,0.605
	c-1.734-1.023-5.092-1.104-4.379,2.424c0.307,1.515,2.219-2.545,2.949-1.137c1.154,2.22,1.561,1.748,3.201,1.662
	c3.891-0.205,7.902-0.347,7.752-1.839c-0.09-0.904,0.047-2.861,0.047-2.861L27.773,26.569z"/>
<path fill="#ED6A00" d="M31.525,21.577c-0.461-3.404-4.611-2.871-4.406-0.074c0.117,1.609,0.654,5.066,0.654,5.066
	c2.094,0.641,3.846,0.479,3.846,0.479C31.736,25.219,31.758,23.297,31.525,21.577z"/>
<path fill="#302C3B" d="M21.6,30.538c0,2.304-3.467,2.304-3.467,0C18.133,28.223,21.6,28.223,21.6,30.538z"/>
<path fill="#99A8AE" d="M20.732,30.536c0,1.152-1.734,1.152-1.734,0C18.998,29.377,20.732,29.377,20.732,30.536z"/>
<path fill="#99A8AE" d="M27.666,55.668c0,0-0.359,1.494,0.002,1.732c0.424,0.281,2.01-0.605,2.02,0.004h0.002
	c0.01-0.609,2.012-0.609,2.02,0h0.004c0.008-0.609,1.594,0.277,2.02-0.004c0.361-0.238,0-1.732,0-1.732H27.666z"/>
<path fill="#302C3B" d="M31.133,56.291c0,0.578-0.867,0.578-0.867,0S31.133,55.713,31.133,56.291z"/>
<path fill="#302C3B" d="M29.703,56.291c0,0.287-1.732,0.287-1.732,0C27.971,56.002,29.703,56.002,29.703,56.291z"/>
<path fill="#302C3B" d="M33.428,56.291c0,0.287-1.732,0.287-1.732,0C31.695,56.002,33.428,56.002,33.428,56.291z"/>
<path fill="#302C3B" d="M28.779,13.506c0,0-0.998-0.229-0.969,0.014c0.115,1.01-0.488,3.441-0.488,3.441s-2.686-1.279-3.885-3.9
	c-0.102-0.225-0.773,0.33-0.797,0.572c-0.148,1.48,4.336,4.445,4.336,4.445s-1.037,3.98-2.029,5.23
	C27.66,23.698,28.779,13.506,28.779,13.506z"/>
<path fill="#E81C27" d="M36.58,52.047c-0.93,0.896-2.934,0.721-3.51,0.268c-1.938,0.709-2.24,1.66-4.85,1.92
	c-1.082,0.109-0.752,1.332-0.555,1.434c0.996,0.512,4.529-0.369,8.049,0.252C37.379,56.215,36.828,52.021,36.58,52.047z"/>
<path fill="#302C3B" d="M32.643,52.486c-0.643,0.148-0.947,0.486-0.947,0.486C32.92,53.986,33.893,53.707,32.643,52.486z"/>
<path fill="#302C3B" d="M31.582,53.066c-0.643,0.148-0.947,0.488-0.947,0.488C31.648,54.395,32.635,54.096,31.582,53.066z"/>
<path fill="#302C3B" d="M30.547,53.627c-0.643,0.148-0.662,0.271-0.662,0.271C30.637,54.521,31.355,54.418,30.547,53.627z"/>
<path fill-rule="evenodd" clip-rule="evenodd" fill="#E81C27" d="M31,11.668c0.195,0.131,1.145,0.627,1.176,0.857
	c0.016,0.111-0.088,0.289-0.084,0.422c0.006,0.213,1.033,1.447,0.871,1.607c-1.361,1.334,0.428,0.914-0.412,1.582
	c-0.641,0.506-1.35,0.99-1.957,1.361c-0.77,0.471-1.549-0.111-5.275-1.865c-0.074-0.035-1.008,0.424-1.412,0.4
	c-0.287-0.018-1.535-0.416-1.832-0.475c-0.869-0.168-4.578-0.367-5.041-0.75c-0.57-4.246,6.479-10.57,15.25-3.904
	C32.629,11.168,31,11.668,31,11.668z"/>
<path fill-rule="evenodd" clip-rule="evenodd" fill="#8A0404" d="M17.941,13.243c-0.244,0.346,2.861-3.109,8.375-3.508
	C24.773,8.241,19.529,9.961,17.941,13.243z"/>
<path fill-rule="evenodd" clip-rule="evenodd" fill="#8A0404" d="M31.215,11.799c0,0,0.939-0.361,1.105-0.773
	c-1.313-0.137-2.148-0.4-2.438,0.021L31.215,11.799z"/>
<path fill-rule="evenodd" clip-rule="evenodd" fill="#8A0404" d="M28.568,13.145c2.516,0.939,3.873,2.264,3.873,2.264
	s0.08-0.359,0.465-0.799c-0.637-1.117-2.291-2.463-2.621-2.473C29.799,12.12,28.221,13.018,28.568,13.145z"/>
<path fill-rule="evenodd" clip-rule="evenodd" fill="#8A0404" d="M18.881,13.606c-0.422,0.664,1.488,0.602,3.529,0.365
	c0.736-0.088,5.463-1.867,5.781-2.375c0.068-0.107-0.25-1.025-0.521-1.031C25.709,10.518,19.879,12.323,18.881,13.606z"/>
</svg>
