<?xml version="1.0" encoding="utf-8"?>
<!-- Generator: Adobe Illustrator 15.0.0, SVG Export Plug-In . SVG Version: 6.00 Build 0)  -->
<!DOCTYPE svg PUBLIC "-//W3C//DTD SVG 1.1//EN" "http://www.w3.org/Graphics/SVG/1.1/DTD/svg11.dtd" [
	<!ENTITY ns_flows "http://ns.adobe.com/Flows/1.0/">
	<!ENTITY ns_extend "http://ns.adobe.com/Extensibility/1.0/">
	<!ENTITY ns_ai "http://ns.adobe.com/AdobeIllustrator/10.0/">
	<!ENTITY ns_graphs "http://ns.adobe.com/Graphs/1.0/">
]>
<svg version="1.1" id="Layer_1" xmlns:x="&ns_extend;" xmlns:i="&ns_ai;" xmlns:graph="&ns_graphs;"
	 xmlns="http://www.w3.org/2000/svg" xmlns:xlink="http://www.w3.org/1999/xlink" xmlns:a="http://ns.adobe.com/AdobeSVGViewerExtensions/3.0/"
	 x="0px" y="0px" width="64px" height="64px" viewBox="0 0 64 64" enable-background="new 0 0 64 64" xml:space="preserve">
<linearGradient id="SVGID_1_" gradientUnits="userSpaceOnUse" x1="88" y1="-138.0039" x2="88" y2="-82.0083" gradientTransform="matrix(1 0 0 -1 -56 -80)">
	<stop  offset="0" style="stop-color:#697378"/>
	<stop  offset="0.1088" style="stop-color:#727C82"/>
	<stop  offset="0.4414" style="stop-color:#87949A"/>
	<stop  offset="0.7475" style="stop-color:#94A3A9"/>
	<stop  offset="1" style="stop-color:#99A8AE"/>
	<a:midPointStop  offset="0" style="stop-color:#697378"/>
	<a:midPointStop  offset="0.5" style="stop-color:#697378"/>
	<a:midPointStop  offset="0.1088" style="stop-color:#727C82"/>
	<a:midPointStop  offset="0.5" style="stop-color:#727C82"/>
	<a:midPointStop  offset="0.4414" style="stop-color:#87949A"/>
	<a:midPointStop  offset="0.5" style="stop-color:#87949A"/>
	<a:midPointStop  offset="0.7475" style="stop-color:#94A3A9"/>
	<a:midPointStop  offset="0.5" style="stop-color:#94A3A9"/>
	<a:midPointStop  offset="1" style="stop-color:#99A8AE"/>
</linearGradient>
<path fill="url(#SVGID_1_)" d="M45.691,2.008c-0.357-0.055-6.848,23.744-15.434,21.504L13,14.836c0,0,0.267,12.152-11,18.154v25.013
	h60V27.235C50.266,13.961,52.723,3.106,45.691,2.008z"/>
<path fill="#CFD8DD" d="M30.257,23.512c10.086-3.096,13.633-22.949,15.594-21.43c0.957,0.742,5.113,15.416,0.85,12.205
	c-6.563-4.936,1.939,5.246,2.004,10.895c0.039,3.57-13.656-10.469-4.609,13.81L30.257,23.512z"/>
<polygon fill="#CFD8DD" points="56.682,28.588 51.4,18.407 52.906,25.68 "/>
<polygon fill="#CFD8DD" points="51.809,40.494 51.1,33.801 47.207,30.008 "/>
<path fill="#CFD8DD" d="M2,30.456c0,0,8.621-4.355,10.906-15.541c0.188-0.926,3.074,5.576,4.5,12.379
	c0.621,2.973-4.314-3.23-4.313,1.096c0.002,6.527-5.188,14.097-5.188,14.097C10.748,25.112,2,43.988,2,43.988V30.456z"/>
<linearGradient id="SVGID_2_" gradientUnits="userSpaceOnUse" x1="88" y1="-142" x2="88" y2="-126.7148" gradientTransform="matrix(1 0 0 -1 -56 -80)">
	<stop  offset="0" style="stop-color:#916958"/>
	<stop  offset="0.21" style="stop-color:#8B6454"/>
	<stop  offset="0.4866" style="stop-color:#7B5748"/>
	<stop  offset="0.799" style="stop-color:#5F4034"/>
	<stop  offset="1" style="stop-color:#4A2F24"/>
	<a:midPointStop  offset="0" style="stop-color:#916958"/>
	<a:midPointStop  offset="0.5" style="stop-color:#916958"/>
	<a:midPointStop  offset="0.21" style="stop-color:#8B6454"/>
	<a:midPointStop  offset="0.5" style="stop-color:#8B6454"/>
	<a:midPointStop  offset="0.4866" style="stop-color:#7B5748"/>
	<a:midPointStop  offset="0.5" style="stop-color:#7B5748"/>
	<a:midPointStop  offset="0.799" style="stop-color:#5F4034"/>
	<a:midPointStop  offset="0.5" style="stop-color:#5F4034"/>
	<a:midPointStop  offset="1" style="stop-color:#4A2F24"/>
</linearGradient>
<path fill="url(#SVGID_2_)" d="M62,46.715c-36.494,2.33-42.457,8.854-60,9.65V62h60V46.715z"/>
<path fill="#99A8AE" d="M47.6,40.065c-5.266,0-9.533,4.268-9.533,9.533c0,5.267,4.268,9.534,9.533,9.534s9.533-4.268,9.533-9.534
	C57.133,44.333,52.865,40.065,47.6,40.065z M47.6,57.399c-4.307,0-7.799-3.492-7.799-7.801c0-4.308,3.492-7.8,7.799-7.8
	c4.309,0,7.801,3.492,7.801,7.8C55.4,53.907,51.908,57.399,47.6,57.399z"/>
<path fill="#99A8AE" d="M16.4,40.065c-5.266,0-9.533,4.268-9.533,9.533c0,5.267,4.267,9.534,9.533,9.534
	c5.265,0,9.533-4.268,9.533-9.534C25.933,44.333,21.665,40.065,16.4,40.065z M16.4,57.399c-4.308,0-7.8-3.492-7.8-7.801
	c0-4.308,3.492-7.8,7.8-7.8c4.309,0,7.8,3.492,7.8,7.8C24.2,53.907,20.709,57.399,16.4,57.399z"/>
<path fill="#302C3B" d="M16.4,39.449c-5.605,0-10.15,4.544-10.15,10.149c0,5.606,4.545,10.15,10.15,10.15s10.15-4.544,10.15-10.15
	C26.55,43.995,22.005,39.449,16.4,39.449z M16.4,58.058c-4.671,0-8.458-3.786-8.458-8.459c0-4.67,3.787-8.458,8.458-8.458
	c4.672,0,8.458,3.788,8.458,8.458C24.858,54.272,21.072,58.058,16.4,58.058z"/>
<rect x="13.996" y="59.419" transform="matrix(-0.9849 -0.1733 0.1733 -0.9849 18.7079 120.8957)" fill="#302C3B" width="1.268" height="0.425"/>
<rect x="17.533" y="39.353" transform="matrix(-0.9851 -0.1722 0.1722 -0.9851 29.2501 81.6709)" fill="#302C3B" width="1.27" height="0.426"/>
<rect x="12.282" y="58.959" transform="matrix(-0.94 -0.3413 0.3413 -0.94 4.8591 119.1986)" fill="#302C3B" width="1.268" height="0.425"/>
<rect x="19.249" y="39.813" transform="matrix(-0.9402 -0.3407 0.3407 -0.9402 24.941 84.4314)" fill="#302C3B" width="1.27" height="0.426"/>
<rect x="10.672" y="58.208" transform="matrix(-0.8665 -0.4991 0.4991 -0.8665 -8.0561 114.6885)" fill="#302C3B" width="1.268" height="0.426"/>
<rect x="20.858" y="40.563" transform="matrix(-0.8669 -0.4985 0.4985 -0.8669 19.7997 86.8392)" fill="#302C3B" width="1.27" height="0.427"/>
<rect x="9.217" y="57.19" transform="matrix(-0.766 -0.6428 0.6428 -0.766 -19.5028 107.7066)" fill="#302C3B" width="1.268" height="0.426"/>
<rect x="22.312" y="41.581" transform="matrix(-0.7668 -0.6419 0.6419 -0.7668 13.7158 88.5728)" fill="#302C3B" width="1.27" height="0.427"/>
<rect x="7.962" y="55.934" transform="matrix(-0.6432 -0.7657 0.7657 -0.6432 -28.8666 98.8429)" fill="#302C3B" width="1.268" height="0.426"/>
<rect x="23.568" y="42.838" transform="matrix(-0.6434 -0.7656 0.7656 -0.6434 6.816 89.2768)" fill="#302C3B" width="1.271" height="0.426"/>
<rect x="6.943" y="54.48" transform="matrix(-0.5 -0.866 0.866 -0.5 -36.0001 88.6008)" fill="#302C3B" width="1.269" height="0.427"/>
<rect x="24.587" y="44.292" transform="matrix(-0.5011 -0.8654 0.8654 -0.5011 -0.6516 88.6341)" fill="#302C3B" width="1.27" height="0.426"/>
<rect x="6.193" y="52.87" transform="matrix(-0.3426 -0.9395 0.9395 -0.3426 -40.7057 77.6826)" fill="#302C3B" width="1.267" height="0.426"/>
<rect x="25.337" y="45.901" transform="matrix(-0.3429 -0.9394 0.9394 -0.3429 -8.4424 86.3227)" fill="#302C3B" width="1.27" height="0.426"/>
<rect x="5.734" y="51.155" transform="matrix(-0.1738 -0.9848 0.9848 -0.1738 -43.1129 66.5646)" fill="#302C3B" width="1.267" height="0.425"/>
<rect x="25.797" y="47.616" transform="matrix(-0.1745 -0.9847 0.9847 -0.1745 -16.0515 82.2011)" fill="#302C3B" width="1.27" height="0.426"/>
<rect x="6" y="48.964" fill="#302C3B" width="0.425" height="1.27"/>
<rect x="26.374" y="48.963" fill="#302C3B" width="0.425" height="1.271"/>
<rect x="5.733" y="47.617" transform="matrix(0.1736 -0.9848 0.9848 0.1736 -41.8412 45.7956)" fill="#302C3B" width="1.268" height="0.425"/>
<rect x="25.796" y="51.154" transform="matrix(0.1729 -0.9849 0.9849 0.1729 -28.7311 68.5216)" fill="#302C3B" width="1.271" height="0.426"/>
<rect x="6.193" y="45.902" transform="matrix(0.3423 -0.9396 0.9396 0.3423 -38.8383 36.7431)" fill="#302C3B" width="1.268" height="0.425"/>
<rect x="25.337" y="52.869" transform="matrix(0.3412 -0.94 0.94 0.3412 -32.7865 59.381)" fill="#302C3B" width="1.271" height="0.427"/>
<rect x="6.944" y="44.292" transform="matrix(0.5 -0.866 0.866 0.5 -34.7536 28.8156)" fill="#302C3B" width="1.269" height="0.425"/>
<rect x="24.587" y="54.479" transform="matrix(0.4993 -0.8664 0.8664 0.4993 -34.7578 49.2359)" fill="#302C3B" width="1.27" height="0.426"/>
<rect x="7.962" y="42.838" transform="matrix(0.6425 -0.7663 0.7663 0.6425 -29.9174 21.9802)" fill="#302C3B" width="1.269" height="0.425"/>
<rect x="23.569" y="55.933" transform="matrix(0.6421 -0.7666 0.7666 0.6421 -34.3808 38.6517)" fill="#302C3B" width="1.27" height="0.427"/>
<rect x="9.217" y="41.582" transform="matrix(0.7653 -0.6437 0.6437 0.7653 -24.5918 16.153)" fill="#302C3B" width="1.27" height="0.426"/>
<rect x="22.313" y="57.19" transform="matrix(0.7658 -0.6431 0.6431 0.7658 -31.5407 28.2021)" fill="#302C3B" width="1.269" height="0.426"/>
<rect x="10.672" y="40.563" transform="matrix(0.8659 -0.5003 0.5003 0.8659 -18.8826 11.1259)" fill="#302C3B" width="1.269" height="0.425"/>
<rect x="20.859" y="58.208" transform="matrix(0.8663 -0.4995 0.4995 0.8663 -26.3097 18.5479)" fill="#302C3B" width="1.269" height="0.426"/>
<rect x="12.281" y="39.812" transform="matrix(0.9395 -0.3425 0.3425 0.9395 -12.929 6.8457)" fill="#302C3B" width="1.269" height="0.426"/>
<rect x="19.25" y="58.959" transform="matrix(0.94 -0.3411 0.3411 0.94 -18.9893 10.3297)" fill="#302C3B" width="1.268" height="0.426"/>
<rect x="13.997" y="39.353" transform="matrix(0.9848 -0.1739 0.1739 0.9848 -6.6566 3.1467)" fill="#302C3B" width="1.269" height="0.425"/>
<rect x="17.535" y="59.419" transform="matrix(0.9849 -0.1732 0.1732 0.9849 -10.0532 4.0479)" fill="#302C3B" width="1.269" height="0.425"/>
<rect x="15.766" y="39.198" fill="#302C3B" width="1.269" height="0.426"/>
<rect x="15.766" y="59.573" fill="#302C3B" width="1.269" height="0.427"/>
<path fill="#302C3B" d="M47.6,39.449c-5.604,0-10.148,4.544-10.148,10.149c0,5.606,4.545,10.15,10.148,10.15
	c5.605,0,10.15-4.544,10.15-10.15C57.75,43.995,53.205,39.449,47.6,39.449z M47.6,58.058c-4.67,0-8.457-3.786-8.457-8.459
	c0-4.67,3.787-8.458,8.457-8.458c4.672,0,8.459,3.788,8.459,8.458C56.059,54.272,52.271,58.058,47.6,58.058z"/>
<rect x="45.195" y="59.419" transform="matrix(-0.9849 -0.1731 0.1731 -0.9849 80.6443 126.2966)" fill="#302C3B" width="1.269" height="0.425"/>
<rect x="48.735" y="39.353" transform="matrix(-0.985 -0.1724 0.1724 -0.985 91.1788 87.0508)" fill="#302C3B" width="1.269" height="0.426"/>
<rect x="43.481" y="58.959" transform="matrix(-0.9401 -0.3408 0.3408 -0.9401 65.4225 129.8363)" fill="#302C3B" width="1.269" height="0.425"/>
<rect x="50.449" y="39.813" transform="matrix(-0.9401 -0.3408 0.3408 -0.9401 85.4681 95.0657)" fill="#302C3B" width="1.269" height="0.426"/>
<rect x="41.873" y="58.209" transform="matrix(-0.8663 -0.4995 0.4995 -0.8663 50.1533 130.2644)" fill="#302C3B" width="1.267" height="0.425"/>
<rect x="52.059" y="40.563" transform="matrix(-0.8667 -0.4988 0.4988 -0.8667 78.0251 102.4011)" fill="#302C3B" width="1.269" height="0.426"/>
<rect x="40.418" y="57.19" transform="matrix(-0.7657 -0.6432 0.6432 -0.7657 35.5626 127.7605)" fill="#302C3B" width="1.268" height="0.426"/>
<rect x="53.514" y="41.582" transform="matrix(-0.7663 -0.6425 0.6425 -0.7663 68.7926 108.6112)" fill="#302C3B" width="1.269" height="0.426"/>
<rect x="39.162" y="55.934" transform="matrix(-0.6437 -0.7653 0.7653 -0.6437 22.4411 122.7428)" fill="#302C3B" width="1.268" height="0.426"/>
<rect x="54.768" y="42.837" transform="matrix(-0.6438 -0.7652 0.7652 -0.6438 58.1302 113.1611)" fill="#302C3B" width="1.271" height="0.427"/>
<rect x="38.143" y="54.48" transform="matrix(-0.5003 -0.8659 0.8659 -0.5003 10.8201 115.6304)" fill="#302C3B" width="1.269" height="0.426"/>
<rect x="55.787" y="44.291" transform="matrix(-0.5014 -0.8652 0.8652 -0.5014 46.208 115.6371)" fill="#302C3B" width="1.27" height="0.427"/>
<rect x="37.394" y="52.87" transform="matrix(-0.3436 -0.9391 0.9391 -0.3436 1.2419 107.035)" fill="#302C3B" width="1.268" height="0.426"/>
<rect x="56.537" y="45.901" transform="matrix(-0.3429 -0.9394 0.9394 -0.3429 33.4543 115.6313)" fill="#302C3B" width="1.27" height="0.426"/>
<rect x="36.934" y="51.156" transform="matrix(-0.1741 -0.9847 0.9847 -0.1741 -6.4741 97.3067)" fill="#302C3B" width="1.267" height="0.425"/>
<rect x="56.997" y="47.616" transform="matrix(-0.1752 -0.9845 0.9845 -0.1752 20.6417 112.9504)" fill="#302C3B" width="1.271" height="0.426"/>
<rect x="37.201" y="48.964" fill="#302C3B" width="0.424" height="1.27"/>
<rect x="57.574" y="48.963" fill="#302C3B" width="0.426" height="1.271"/>
<rect x="36.933" y="47.617" transform="matrix(0.174 -0.9847 0.9847 0.174 -16.0695 76.5013)" fill="#302C3B" width="1.268" height="0.425"/>
<rect x="56.996" y="51.154" transform="matrix(0.1721 -0.9851 0.9851 0.1721 -2.8883 99.2976)" fill="#302C3B" width="1.271" height="0.427"/>
<rect x="37.394" y="45.903" transform="matrix(0.3433 -0.9392 0.9392 0.3433 -18.34 65.9977)" fill="#302C3B" width="1.269" height="0.424"/>
<rect x="56.538" y="52.869" transform="matrix(0.3412 -0.94 0.94 0.3412 -12.233 88.7087)" fill="#302C3B" width="1.271" height="0.427"/>
<rect x="38.144" y="44.293" transform="matrix(0.5003 -0.8659 0.8659 0.5003 -19.1568 55.8169)" fill="#302C3B" width="1.269" height="0.424"/>
<rect x="55.787" y="54.479" transform="matrix(0.4996 -0.8662 0.8662 0.4996 -19.144 76.2426)" fill="#302C3B" width="1.271" height="0.426"/>
<rect x="39.162" y="42.839" transform="matrix(0.6429 -0.7659 0.7659 0.6429 -18.7633 45.8556)" fill="#302C3B" width="1.27" height="0.424"/>
<rect x="54.769" y="55.933" transform="matrix(0.6425 -0.7663 0.7663 0.6425 -23.217 62.5252)" fill="#302C3B" width="1.271" height="0.425"/>
<rect x="40.417" y="41.582" transform="matrix(0.7649 -0.6441 0.6441 0.7649 -17.2703 36.2665)" fill="#302C3B" width="1.269" height="0.426"/>
<rect x="53.514" y="57.19" transform="matrix(0.7659 -0.6429 0.6429 0.7659 -24.2309 48.2475)" fill="#302C3B" width="1.27" height="0.426"/>
<rect x="41.873" y="40.563" transform="matrix(0.8657 -0.5006 0.5006 0.8657 -14.703 26.7567)" fill="#302C3B" width="1.268" height="0.425"/>
<rect x="52.059" y="58.208" transform="matrix(0.8664 -0.4994 0.4994 0.8664 -22.1334 34.119)" fill="#302C3B" width="1.269" height="0.426"/>
<rect x="43.481" y="39.812" transform="matrix(0.9396 -0.3422 0.3422 0.9396 -11.0325 17.5115)" fill="#302C3B" width="1.27" height="0.426"/>
<rect x="50.45" y="58.96" transform="matrix(0.9401 -0.3408 0.3408 0.9401 -17.1084 20.9532)" fill="#302C3B" width="1.269" height="0.426"/>
<rect x="45.196" y="39.353" transform="matrix(0.9848 -0.1736 0.1736 0.9848 -6.1731 8.5577)" fill="#302C3B" width="1.271" height="0.425"/>
<rect x="48.735" y="59.419" transform="matrix(0.9849 -0.1731 0.1731 0.9849 -9.5784 9.4476)" fill="#302C3B" width="1.269" height="0.425"/>
<rect x="46.967" y="39.198" fill="#302C3B" width="1.268" height="0.426"/>
<rect x="46.967" y="59.573" fill="#302C3B" width="1.268" height="0.427"/>
<path fill="#FAC150" d="M24.744,23.393c0.854-0.869,2.405-0.366,2.611-0.012c0.682,1.163,3.904-1.665,2.859-2.904
	c-0.91-1.078-0.842-2.787-0.842-2.787C28.54,17.547,24.396,14.012,24.744,23.393z"/>
<path fill="#FFCC66" d="M21.097,10.748c-2.959,1.646-3.296,4.31-1.827,6.771c0.332,0.558,0.32,1.721-0.201,2.654
	c-0.189,0.339-0.101,0.666,0.112,0.828c0.417,0.319,1,0.111,1.3,0.178c0.671,0.148,0.266,0.73,0.824,0.991
	c0.254,0.118,0.697-0.322,0.493,0.869c0.794,0.229,0.149,1.714,1.825,1.298c0.879-0.22,3.726-3.543,3.919-4.403
	c0.203-0.902-0.4-2.214-0.4-2.214c2.16-1.573,2.245-3.99,0.921-6.003C26.217,8.898,23.016,9.681,21.097,10.748z"/>
<path fill="#DB9D3A" d="M21.305,22.169c0.361,0.073,0.335,0.404,0.335,0.404c-0.142,0.052-0.007,0.533,0.204,0.457
	c0.736-0.269,1.182-1.146,1.264-1.608C21.935,21.785,20.48,21.724,21.305,22.169z"/>
<path fill="#FFFFFF" d="M21.305,22.169c0,0,0.26,0.361,0.335,0.404c0.231-0.083,0.922-0.522,1.274-0.996L21.305,22.169z"/>
<linearGradient id="SVGID_3_" gradientUnits="userSpaceOnUse" x1="23.2842" y1="339.2676" x2="32.6514" y2="339.2676" gradientTransform="matrix(0.9397 -0.342 0.342 0.9397 -119.4899 -295.3305)">
	<stop  offset="0" style="stop-color:#473834"/>
	<stop  offset="0.0561" style="stop-color:#4B3B36"/>
	<stop  offset="0.6687" style="stop-color:#6D564D"/>
	<stop  offset="1" style="stop-color:#7A6056"/>
	<a:midPointStop  offset="0" style="stop-color:#473834"/>
	<a:midPointStop  offset="0.4303" style="stop-color:#473834"/>
	<a:midPointStop  offset="1" style="stop-color:#7A6056"/>
</linearGradient>
<path fill="url(#SVGID_3_)" d="M26.366,10.476c-3.458-2.549-8.646,1.645-8.767,2.62c-0.042,0.351,0.412,1.015,0.829,1.397
	c0.942-0.343,2.523-1.812,3.995-1.677c2.179,0.198,1.444,4.748,3.236,4.329C25.939,17.081,27.929,11.802,26.366,10.476z"/>
<linearGradient id="SVGID_4_" gradientUnits="userSpaceOnUse" x1="23.3408" y1="340.3555" x2="34.8994" y2="340.3555" gradientTransform="matrix(0.9397 -0.342 0.342 0.9397 -119.4899 -295.3305)">
	<stop  offset="0" style="stop-color:#7A6056"/>
	<stop  offset="0.3119" style="stop-color:#775D54"/>
	<stop  offset="0.5686" style="stop-color:#6D554D"/>
	<stop  offset="0.8048" style="stop-color:#5B4842"/>
	<stop  offset="1" style="stop-color:#473834"/>
	<a:midPointStop  offset="0" style="stop-color:#7A6056"/>
	<a:midPointStop  offset="0.7455" style="stop-color:#7A6056"/>
	<a:midPointStop  offset="1" style="stop-color:#473834"/>
</linearGradient>
<path fill="url(#SVGID_4_)" d="M27.843,9.871c-1.033-0.848-2.788-1.646-5.719-0.571c-2.649,0.97-4.405,2.821-4.525,3.797
	c0.974-0.354,3.478-2.672,5.442-2.079c3.057,0.921,1.851,4.124,2.976,5.451c1.76,2.078,3.437,2.216,3.437,2.216
	C30.812,16.68,30.515,12.065,27.843,9.871z"/>
<path fill="#DB9D3A" d="M19.188,21c0.428,0.501,1.867,0.12,2.055-0.746C20.703,21.052,18.94,20.711,19.188,21z"/>
<path fill="#FFCC66" d="M26.088,14.787c-1.084,0.671-0.486,3.453,0.603,3.709c0.152,0.035,0.82-0.126,0.923-0.899
	c0.058-0.428,0.599-1.038,0.437-1.777C27.84,14.873,27.167,14.123,26.088,14.787z"/>
<path id="Path_687_" fill="#DB9D3A" d="M26.328,15.256c-0.261,0.211-0.416,0.656-0.311,1.212c0.953-0.671,1.338,0.535,0.449,1.017
	c0.072,0.104,0.15,0.209,0.242,0.314c0.2-0.615,0.734-0.684,0.82-1.488C27.607,15.583,26.976,14.736,26.328,15.256z"/>
<path fill="#FFFFFF" d="M22.134,17.374c0.078,0.164-0.235,0.969-0.897,1.275c-0.376,0.173-0.625-0.076-0.83-0.368
	C19.854,17.022,21.539,16.928,22.134,17.374z"/>
<linearGradient id="Path_1_" gradientUnits="userSpaceOnUse" x1="24.7573" y1="343.1191" x2="24.7573" y2="341.6748" gradientTransform="matrix(0.9397 -0.342 0.342 0.9397 -119.4899 -295.3305)">
	<stop  offset="0" style="stop-color:#A6694A"/>
	<stop  offset="1" style="stop-color:#4F2A1E"/>
	<a:midPointStop  offset="0" style="stop-color:#A6694A"/>
	<a:midPointStop  offset="0.5" style="stop-color:#A6694A"/>
	<a:midPointStop  offset="1" style="stop-color:#4F2A1E"/>
</linearGradient>
<path id="Path_686_" fill="url(#Path_1_)" d="M20.32,18.125c0.342,0.938,1.43,0.543,1.088-0.396
	C21.091,16.859,20.003,17.253,20.32,18.125z"/>
<path id="Path_685_" fill="#1A1626" d="M20.42,18.043c0.171,0.469,0.713,0.271,0.542-0.197
	C20.803,17.409,20.261,17.606,20.42,18.043z"/>
<path id="Path_684_" fill="#AB968C" d="M20.686,17.731c0.07,0.195,0.387,0.081,0.315-0.115
	C20.934,17.432,20.619,17.547,20.686,17.731z"/>
<path fill="#DB9D3A" d="M22.134,17.374c-0.505-0.479-2.117-0.375-1.868,0.431C20.278,17.197,21.464,17.096,22.134,17.374z"/>
<path id="Path_683_" fill="#966F42" d="M21.929,15.939c-0.821-0.175-2.108,0.271-2.478,0.734c-0.083,0.094,0.128,0.464,0.2,0.396
	c0.553-0.551,1.621-0.948,2.367-0.83C22.118,16.25,22.05,15.958,21.929,15.939z"/>
<path fill="#F7C259" d="M28.667,33.771c-1.486,3.071,2.047,3.072,5.528,8.902l1.676-2.539c-2.285-2.392-1.129-2.943-2.656-5.821
	L28.667,33.771z"/>
<path fill="#25A898" d="M38.633,34.365l-2.301-4.699c-2.266,1.3-6.194,2.029-7.665,4.104c0,0,1.37,1.398,5.389,2.723
	C35.746,35.82,38.633,34.365,38.633,34.365z"/>
<path fill="#302C3B" d="M22.465,30.533c-0.621-0.291-2.6-0.866-2.6-0.866V31.4l1.632,0.407l-0.765,3.059l1.733,0.866l0.867-3.466
	C23.332,32.266,24.688,31.576,22.465,30.533z"/>
<path fill="#0FB4D4" d="M48.172,48.937L39.385,38.5l1.189-2.378c0.213-0.429-1.336-1.204-1.551-0.777l-1.141,2.284l-16.896-3.785
	l-5.406,15.47c-0.343,0.972,1.321,1.46,1.635,0.578l4.668-13.227l10.294,13.463c0.007,0.011,0.02,0.014,0.026,0.021
	c0.075,0.092,0.535,0.318,0.662,0.318h14.735c0.006,0,0.012,0,0.018,0C48.096,50.467,48.363,49.094,48.172,48.937z M37.084,39.227
	l-4.374,8.747l-8.976-11.74L37.084,39.227z M34.268,48.733l4.273-8.544l7.195,8.544H34.268z"/>
<path fill="#302C3B" d="M18.131,49.6c0,2.313-3.467,2.313-3.467,0C14.665,47.289,18.131,47.289,18.131,49.6z"/>
<polygon fill="#BEC3CF" points="47.6,47.866 32.864,47 32.864,46.133 47.6,47 "/>
<polygon fill="#BEC3CF" points="47.6,52.2 32.866,53.066 32.866,52.2 47.6,51.333 "/>
<path fill="#302C3B" d="M50.199,49.6c0,3.467-5.199,3.467-5.199,0S50.199,46.133,50.199,49.6z"/>
<path fill="#302C3B" d="M32.864,53.066c-4.62,0-4.62-6.934,0-6.934C37.488,46.133,37.488,53.066,32.864,53.066z"/>
<polygon fill="#6E8189" points="31.132,55.667 29.398,55.667 32,49.6 33.732,49.6 "/>
<path fill="#99A8AE" d="M33.732,49.604c0,1.152-1.733,1.152-1.733,0C32,48.443,33.732,48.443,33.732,49.604z"/>
<path fill="#302C3B" d="M43.266,36.6c-1.732,0.866-3.467-0.867-6.934-0.867c0,0,0-1.733,1.734-1.733c3.572,0,4.709-0.679,6.066,0
	C45.867,34.866,44.361,36.053,43.266,36.6z"/>
<path fill="#FFCC66" d="M31.986,40.451c-0.445,1.821,2.315,6.063,1.028,12.272h3.658c-0.961-6.21,0.582-7.487,0.148-12.105
	C36.82,40.618,32.529,38.239,31.986,40.451z"/>
<path fill="#3AB0A2" d="M44.338,28.333c-4.254-9.159-15.711-11.361-17.067-7.874c-0.913,2.351,5.389,4.653,9.061,9.207
	c-1.414,2.6-4.127,7.645-4.346,10.785c0,0,1.7,0.038,4.913,1.28C39.094,35.181,46.789,33.615,44.338,28.333z"/>
<path fill="#47D6C6" d="M35.701,41.299l-1.73-0.509c0.82-3.714,2.867-5.891,4.469-7.663c1.412-1.558,2.199-2.496,1.996-3.645
	c-0.488-2.763-4.047-5.421-10.02-7.486l0.567-1.638c4.664,1.612,10.386,4.451,11.16,8.82c0.361,2.042-0.926,3.466-2.416,5.112
	C38.184,35.995,36.422,38.036,35.701,41.299z"/>
<path fill="#FFCC66" d="M27.773,26.568c0.135,0.769,0.279,1.162,0.326,1.626c-2.763,1.435-3.464,2.136-6.051,0.605
	c-1.733-1.024-5.092-1.104-4.378,2.424c0.307,1.516,2.218-2.546,2.949-1.138c1.154,2.222,1.561,1.749,3.201,1.663
	c3.891-0.205,7.903-0.348,7.752-1.841c-0.091-0.903,0.047-2.861,0.047-2.861L27.773,26.568z"/>
<path fill="#25A898" d="M31.525,21.577c-0.461-3.404-4.611-2.871-4.406-0.075c0.117,1.61,0.654,5.066,0.654,5.066
	c2.094,0.642,3.846,0.479,3.846,0.479C31.736,25.218,31.757,23.296,31.525,21.577z"/>
<path fill="#302C3B" d="M21.598,30.538c0,2.304-3.467,2.304-3.467,0C18.131,28.222,21.598,28.222,21.598,30.538z"/>
<path fill="#99A8AE" d="M20.731,30.535c0,1.152-1.733,1.152-1.733,0C18.998,29.376,20.731,29.376,20.731,30.535z"/>
<path fill="#99A8AE" d="M27.666,55.667c0,0-0.36,1.494,0.001,1.733c0.425,0.281,2.011-0.605,2.02,0.003h0.003
	c0.009-0.608,2.011-0.608,2.02,0h0.003c0.009-0.608,1.595,0.278,2.019-0.003c0.361-0.239,0.002-1.733,0.002-1.733H27.666z"/>
<path fill="#302C3B" d="M31.132,56.29c0,0.578-0.867,0.578-0.867,0S31.132,55.712,31.132,56.29z"/>
<path fill="#302C3B" d="M29.703,56.29c0,0.288-1.732,0.288-1.732,0C27.97,56.001,29.703,56.001,29.703,56.29z"/>
<path fill="#302C3B" d="M33.428,56.29c0,0.288-1.733,0.288-1.733,0C31.695,56.001,33.428,56.001,33.428,56.29z"/>
<path fill="#302C3B" d="M28.779,13.506c0,0-0.998-0.229-0.97,0.014c0.115,1.009-0.487,3.441-0.487,3.441s-2.687-1.279-3.886-3.901
	c-0.102-0.224-0.772,0.33-0.797,0.573c-0.148,1.479,4.337,4.445,4.337,4.445s-1.038,3.98-2.029,5.229
	C27.66,23.697,28.779,13.506,28.779,13.506z"/>
<path fill="#E81C27" d="M36.58,52.046c-0.93,0.896-2.934,0.721-3.51,0.268c-1.938,0.71-2.241,1.661-4.85,1.921
	c-1.083,0.108-0.752,1.331-0.555,1.433c0.996,0.512,4.528-0.368,8.049,0.253C37.379,56.214,36.828,52.021,36.58,52.046z"/>
<path fill="#302C3B" d="M32.641,52.485c-0.642,0.148-0.946,0.487-0.946,0.487C32.919,53.986,33.893,53.707,32.641,52.485z"/>
<path fill="#302C3B" d="M31.582,53.066c-0.643,0.148-0.947,0.488-0.947,0.488C31.648,54.394,32.634,54.095,31.582,53.066z"/>
<path fill="#302C3B" d="M30.546,53.626c-0.643,0.148-0.662,0.272-0.662,0.272C30.636,54.521,31.355,54.417,30.546,53.626z"/>
<path fill-rule="evenodd" clip-rule="evenodd" fill="#E81C27" d="M30.999,11.667c0.196,0.132,1.145,0.628,1.177,0.858
	c0.016,0.111-0.088,0.289-0.084,0.422c0.006,0.213,1.034,1.447,0.871,1.606c-1.361,1.334,0.428,0.915-0.413,1.582
	c-0.64,0.507-1.349,0.99-1.956,1.362c-0.77,0.471-1.549-0.112-5.276-1.866c-0.073-0.035-1.007,0.425-1.411,0.401
	c-0.288-0.018-1.536-0.417-1.832-0.475c-0.87-0.169-4.579-0.367-5.042-0.75c-0.569-4.246,6.479-10.571,15.25-3.904
	C32.628,11.168,30.999,11.667,30.999,11.667z"/>
<path fill-rule="evenodd" clip-rule="evenodd" fill="#8A0404" d="M17.94,13.242c-0.244,0.346,2.862-3.109,8.376-3.508
	C24.773,8.24,19.528,9.961,17.94,13.242z"/>
<path fill-rule="evenodd" clip-rule="evenodd" fill="#8A0404" d="M31.214,11.798c0,0,0.938-0.361,1.105-0.772
	c-1.313-0.138-2.148-0.401-2.438,0.021L31.214,11.798z"/>
<path fill-rule="evenodd" clip-rule="evenodd" fill="#8A0404" d="M28.568,13.145c2.517,0.938,3.873,2.264,3.873,2.264
	s0.079-0.36,0.465-0.799c-0.637-1.117-2.292-2.463-2.621-2.474C29.797,12.12,28.219,13.017,28.568,13.145z"/>
<path fill-rule="evenodd" clip-rule="evenodd" fill="#8A0404" d="M18.88,13.606c-0.423,0.663,1.489,0.601,3.53,0.364
	c0.736-0.087,5.462-1.867,5.781-2.374c0.068-0.108-0.251-1.025-0.522-1.032C25.708,10.518,19.878,12.323,18.88,13.606z"/>
</svg>
