<?xml version="1.0" encoding="utf-8"?>
<!-- Generator: Adobe Illustrator 15.0.0, SVG Export Plug-In . SVG Version: 6.00 Build 0)  -->
<!DOCTYPE svg PUBLIC "-//W3C//DTD SVG 1.1//EN" "http://www.w3.org/Graphics/SVG/1.1/DTD/svg11.dtd" [
	<!ENTITY ns_flows "http://ns.adobe.com/Flows/1.0/">
	<!ENTITY ns_extend "http://ns.adobe.com/Extensibility/1.0/">
	<!ENTITY ns_ai "http://ns.adobe.com/AdobeIllustrator/10.0/">
	<!ENTITY ns_graphs "http://ns.adobe.com/Graphs/1.0/">
]>
<svg version="1.1" id="Layer_1" xmlns:x="&ns_extend;" xmlns:i="&ns_ai;" xmlns:graph="&ns_graphs;"
	 xmlns="http://www.w3.org/2000/svg" xmlns:xlink="http://www.w3.org/1999/xlink" xmlns:a="http://ns.adobe.com/AdobeSVGViewerExtensions/3.0/"
	 x="0px" y="0px" width="64px" height="64px" viewBox="0 0 64 64" enable-background="new 0 0 64 64" xml:space="preserve">
<path fill="#C99B71" d="M23.629,19.762c0.986-1.004,2.775-0.424,3.012-0.014c0.787,1.342,4.504-1.922,3.299-3.352
	c-1.049-1.244-0.969-3.217-0.969-3.217C28.008,13.016,23.229,8.938,23.629,19.762z"/>
<path fill="#EBC199" d="M19.42,5.17c-3.414,1.898-3.803,4.973-2.107,7.813c0.383,0.643,0.369,1.984-0.232,3.063
	c-0.217,0.391-0.115,0.768,0.129,0.955c0.48,0.369,1.154,0.129,1.502,0.205c0.773,0.172,0.305,0.844,0.949,1.145
	c0.293,0.135,0.805-0.373,0.57,1.002c0.916,0.266,0.172,1.979,2.105,1.498c1.014-0.254,4.299-4.088,4.521-5.08
	c0.234-1.043-0.461-2.555-0.461-2.555c2.492-1.816,2.59-4.604,1.063-6.928C25.328,3.038,21.635,3.94,19.42,5.17z"/>
<path fill="#C99B71" d="M19.66,18.35c0.416,0.084,0.387,0.467,0.387,0.467c-0.162,0.059-0.008,0.615,0.236,0.525
	c0.85-0.309,1.363-1.322,1.457-1.855C20.387,17.905,18.709,17.836,19.66,18.35z"/>
<path fill="#FFFFFF" d="M19.66,18.35c0,0,0.301,0.416,0.387,0.467c0.268-0.098,1.064-0.604,1.471-1.15L19.66,18.35z"/>
<linearGradient id="SVGID_1_" gradientUnits="userSpaceOnUse" x1="22.979" y1="334.002" x2="33.7871" y2="334.002" gradientTransform="matrix(0.9397 -0.342 0.342 0.9397 -119.4899 -295.3305)">
	<stop  offset="0" style="stop-color:#BA9757"/>
	<stop  offset="0.6461" style="stop-color:#D8B379"/>
	<stop  offset="1" style="stop-color:#E3BE86"/>
	<a:midPointStop  offset="0" style="stop-color:#BA9757"/>
	<a:midPointStop  offset="0.4303" style="stop-color:#BA9757"/>
	<a:midPointStop  offset="1" style="stop-color:#E3BE86"/>
</linearGradient>
<path fill="url(#SVGID_1_)" d="M25.5,4.858c-3.99-2.941-9.977,1.896-10.115,3.023c-0.047,0.404,0.477,1.17,0.957,1.611
	c1.086-0.395,2.91-2.09,4.607-1.934c2.516,0.229,1.666,5.479,3.734,4.994C25.008,12.477,27.303,6.387,25.5,4.858z"/>
<linearGradient id="SVGID_2_" gradientUnits="userSpaceOnUse" x1="23.0435" y1="335.2578" x2="36.3799" y2="335.2578" gradientTransform="matrix(0.9397 -0.342 0.342 0.9397 -119.4899 -295.3305)">
	<stop  offset="0" style="stop-color:#E3BE86"/>
	<stop  offset="0.323" style="stop-color:#E0BB83"/>
	<stop  offset="0.5887" style="stop-color:#D7B379"/>
	<stop  offset="0.8333" style="stop-color:#C8A567"/>
	<stop  offset="1" style="stop-color:#BA9757"/>
	<a:midPointStop  offset="0" style="stop-color:#E3BE86"/>
	<a:midPointStop  offset="0.7455" style="stop-color:#E3BE86"/>
	<a:midPointStop  offset="1" style="stop-color:#BA9757"/>
</linearGradient>
<path fill="url(#SVGID_2_)" d="M27.203,4.159C26.012,3.18,23.988,2.26,20.605,3.5c-3.057,1.119-5.082,3.254-5.221,4.381
	c1.123-0.41,4.014-3.084,6.279-2.398c3.527,1.061,2.135,4.758,3.434,6.289c2.031,2.396,3.965,2.557,3.965,2.557
	C30.631,12.016,30.287,6.69,27.203,4.159z"/>
<path fill="#C99B71" d="M17.219,17c0.494,0.578,2.154,0.139,2.371-0.861C18.967,17.061,16.932,16.667,17.219,17z"/>
<path fill="#EBC199" d="M25.18,9.831c-1.252,0.775-0.561,3.984,0.695,4.279c0.176,0.041,0.945-0.145,1.064-1.037
	c0.066-0.494,0.691-1.197,0.504-2.051C27.201,9.93,26.424,9.065,25.18,9.831z"/>
<path id="Path_1251_" fill="#C99B71" d="M25.457,10.374c-0.301,0.242-0.48,0.756-0.359,1.398c1.1-0.775,1.543,0.617,0.518,1.172
	c0.084,0.121,0.174,0.242,0.279,0.363c0.23-0.709,0.848-0.789,0.945-1.717C26.932,10.749,26.203,9.772,25.457,10.374z"/>
<path fill="#FFFFFF" d="M20.617,12.817c0.09,0.188-0.271,1.117-1.035,1.471c-0.434,0.199-0.721-0.088-0.957-0.426
	C17.986,12.411,19.93,12.301,20.617,12.817z"/>
<linearGradient id="Path_1_" gradientUnits="userSpaceOnUse" x1="24.6782" y1="338.4463" x2="24.6782" y2="336.7793" gradientTransform="matrix(0.9397 -0.342 0.342 0.9397 -119.4899 -295.3305)">
	<stop  offset="0" style="stop-color:#A6694A"/>
	<stop  offset="1" style="stop-color:#4F2A1E"/>
	<a:midPointStop  offset="0" style="stop-color:#A6694A"/>
	<a:midPointStop  offset="0.5" style="stop-color:#A6694A"/>
	<a:midPointStop  offset="1" style="stop-color:#4F2A1E"/>
</linearGradient>
<path id="Path_1250_" fill="url(#Path_1_)" d="M18.525,13.684c0.395,1.082,1.648,0.625,1.254-0.457
	C19.414,12.221,18.158,12.678,18.525,13.684z"/>
<path id="Path_1249_" fill="#1A1626" d="M18.641,13.588c0.195,0.541,0.822,0.313,0.625-0.227
	C19.082,12.856,18.457,13.084,18.641,13.588z"/>
<path id="Path_1248_" fill="#AB968C" d="M18.947,13.229c0.08,0.225,0.445,0.092,0.363-0.133
	C19.232,12.883,18.869,13.016,18.947,13.229z"/>
<path fill="#C99B71" d="M20.617,12.817c-0.582-0.555-2.441-0.434-2.154,0.496C18.477,12.612,19.844,12.497,20.617,12.817z"/>
<path id="Path_1247_" fill="#A17C5B" d="M20.381,11.161c-0.947-0.201-2.432,0.313-2.859,0.848c-0.096,0.107,0.148,0.535,0.232,0.457
	c0.637-0.637,1.869-1.096,2.73-0.959C20.6,11.52,20.521,11.184,20.381,11.161z"/>
<path fill="#99A8AE" d="M50,38.998c-6.076,0-11,4.924-11,11s4.924,11,11,11c6.074,0,11-4.924,11-11S56.074,38.998,50,38.998z
	 M50,58.998c-4.971,0-9-4.029-9-9s4.029-9,9-9s9,4.029,9,9S54.971,58.998,50,58.998z"/>
<path fill="#99A8AE" d="M14,38.998c-6.076,0-11,4.924-11,11s4.924,11,11,11c6.074,0,11-4.924,11-11S20.074,38.998,14,38.998z
	 M14,58.998c-4.971,0-9-4.029-9-9s4.029-9,9-9s9,4.029,9,9S18.971,58.998,14,58.998z"/>
<path fill="#302C3B" d="M14,37.998c-6.627,0-12,5.373-12,12c0,6.629,5.373,12,12,12c6.625,0,12-5.371,12-12
	C26,43.373,20.625,37.998,14,37.998z M14,60C8.477,60,4,55.521,4,49.998c0-5.521,4.477-10,10-10s9.998,4.479,9.998,10
	C23.998,55.523,19.523,60,14,60z"/>
<path fill="#302C3B" d="M50,37.998c-6.627,0-12,5.373-12,12c0,6.629,5.373,12,12,12c6.625,0,12-5.371,12-12
	C62,43.373,56.625,37.998,50,37.998z M50,60c-5.523,0-10-4.479-10-10.002c0-5.521,4.477-10,10-10s9.998,4.479,9.998,10
	C59.998,55.523,55.523,60,50,60z"/>
<path fill="#EBC199" d="M28.154,31.735c-1.713,3.544,2.363,3.544,6.379,10.271l1.934-2.93c-2.637-2.76-1.303-3.396-3.064-6.716
	L28.154,31.735z"/>
<path fill="#25A898" d="M39.654,32.42L37,26.999c-2.615,1.5-7.148,2.342-8.846,4.736c0,0,1.582,1.613,6.219,3.14
	C36.322,34.1,39.654,32.42,39.654,32.42z"/>
<path fill="#302C3B" d="M21,27.999c-0.717-0.336-3-1-3-1v2l1.883,0.471L19,32.999l2,1l1-4C22,29.999,23.564,29.202,21,27.999z"/>
<path fill="#0FB4D4" d="M50.66,49.232L40.521,37.191l1.373-2.744c0.246-0.494-1.543-1.389-1.789-0.896l-1.316,2.635l-19.494-4.367
	l-6.238,17.849c-0.395,1.121,1.525,1.684,1.887,0.666l5.387-15.26l11.877,15.533c0.008,0.012,0.021,0.016,0.029,0.023
	c0.088,0.105,0.619,0.367,0.766,0.367h17c0.006,0,0.014,0,0.02,0C50.572,50.998,50.881,49.414,50.66,49.232z M37.867,38.029
	L32.82,48.121L22.465,34.576L37.867,38.029z M34.617,48.998l4.932-9.857l8.301,9.857H34.617z"/>
<path fill="#302C3B" d="M16,49.998c0,2.668-4,2.668-4,0C12,47.332,16,47.332,16,49.998z"/>
<polygon fill="#BEC3CF" points="50,47.998 32.998,46.998 32.998,45.998 50,46.998 "/>
<polygon fill="#BEC3CF" points="50,52.998 33,53.998 33,52.998 50,51.998 "/>
<path fill="#302C3B" d="M53,49.998c0,4-6,4-6,0S53,45.998,53,49.998z"/>
<path fill="#302C3B" d="M32.998,53.998c-5.33,0-5.33-8,0-8C38.334,45.998,38.334,53.998,32.998,53.998z"/>
<polygon fill="#6E8189" points="31,56.998 29,56.998 32,49.998 34,49.998 "/>
<path fill="#99A8AE" d="M34,50.002c0,1.33-2,1.33-2,0C32,48.664,34,48.664,34,50.002z"/>
<path fill="#302C3B" d="M45,34.998c-2,1-4-1-8-1c0,0,0-2,2-2c4.123,0,5.434-0.783,7,0C48,32.999,46.264,34.367,45,34.998z"/>
<path fill="#EBC199" d="M31.984,39.443c-0.514,2.102,2.672,6.994,1.186,14.158h4.221c-1.107-7.164,0.672-8.639,0.172-13.967
	C37.563,39.635,32.611,36.891,31.984,39.443z"/>
<path fill="#3AB0A2" d="M46.236,25.461c-4.908-10.568-18.127-13.109-19.691-9.086C25.492,19.088,32.762,21.745,37,26.999
	c-1.633,3-4.764,8.822-5.016,12.445c0,0,1.961,0.043,5.668,1.477C40.186,33.361,49.064,31.555,46.236,25.461z"/>
<path fill="#47D6C6" d="M36.271,40.42l-1.996-0.586c0.945-4.285,3.307-6.797,5.156-8.841c1.629-1.799,2.537-2.881,2.303-4.207
	c-0.564-3.188-4.67-6.254-11.561-8.637l0.654-1.891c5.381,1.861,11.982,5.137,12.875,10.178c0.418,2.355-1.068,3.998-2.787,5.898
	C39.137,34.301,37.102,36.656,36.271,40.42z"/>
<path fill="#EBC199" d="M27.123,23.424c0.156,0.887,0.324,1.34,0.377,1.875c-3.188,1.656-3.996,2.465-6.982,0.699
	c-2-1.182-5.875-1.273-5.051,2.797c0.354,1.748,2.559-2.938,3.402-1.313c1.332,2.563,1.801,2.018,3.693,1.918
	c4.49-0.236,9.119-0.4,8.945-2.123c-0.105-1.043,0.053-3.301,0.053-3.301L27.123,23.424z"/>
<path fill="#25A898" d="M31.453,17.665c-0.531-3.928-5.32-3.313-5.084-0.086c0.135,1.857,0.754,5.846,0.754,5.846
	c2.416,0.74,4.438,0.553,4.438,0.553C31.695,21.868,31.721,19.649,31.453,17.665z"/>
<path fill="#302C3B" d="M20,28.004c0,2.658-4,2.658-4,0C16,25.333,20,25.333,20,28.004z"/>
<path fill="#99A8AE" d="M19,28c0,1.33-2,1.33-2,0C17,26.665,19,26.665,19,28z"/>
<path fill="#99A8AE" d="M27,56.998c0,0-0.416,1.725,0,2c0.49,0.324,2.32-0.697,2.33,0.004h0.004c0.01-0.701,2.32-0.701,2.33,0h0.004
	c0.01-0.701,1.84,0.32,2.33-0.004c0.416-0.275,0.002-2,0.002-2H27z"/>
<path fill="#302C3B" d="M31,57.717c0,0.668-1,0.668-1,0C30,57.051,31,57.051,31,57.717z"/>
<path fill="#302C3B" d="M29.352,57.717c0,0.334-2,0.334-2,0C27.352,57.385,29.352,57.385,29.352,57.717z"/>
<path fill="#302C3B" d="M33.648,57.717c0,0.334-2,0.334-2,0C31.648,57.385,33.648,57.385,33.648,57.717z"/>
<path fill="#302C3B" d="M28.285,8.354c0,0-1.152-0.264-1.119,0.016c0.133,1.164-0.563,3.971-0.563,3.971s-3.1-1.477-4.482-4.502
	c-0.117-0.258-0.893,0.381-0.92,0.662c-0.172,1.707,5.004,5.129,5.004,5.129s-1.197,4.592-2.342,6.033
	C26.992,20.112,28.285,8.354,28.285,8.354z"/>
<path fill="#E81C27" d="M37.285,52.82c-1.072,1.035-3.385,0.832-4.049,0.309c-2.236,0.82-2.586,1.918-5.598,2.217
	c-1.248,0.125-0.867,1.535-0.639,1.652c1.15,0.592,5.225-0.424,9.285,0.293C38.205,57.629,37.572,52.791,37.285,52.82z"/>
<path fill="#302C3B" d="M32.74,53.328c-0.74,0.17-1.092,0.563-1.092,0.563C33.061,55.059,34.184,54.736,32.74,53.328z"/>
<path fill="#302C3B" d="M31.518,53.998c-0.74,0.172-1.092,0.563-1.092,0.563C31.596,55.529,32.732,55.186,31.518,53.998z"/>
<path fill="#302C3B" d="M30.322,54.645c-0.74,0.17-0.764,0.314-0.764,0.314C30.426,55.676,31.258,55.557,30.322,54.645z"/>
<path fill-rule="evenodd" clip-rule="evenodd" fill="#E81C27" d="M30.846,6.233c0.227,0.152,1.32,0.725,1.357,0.99
	c0.018,0.129-0.102,0.334-0.098,0.486c0.008,0.246,1.193,1.67,1.006,1.854c-1.57,1.539,0.494,1.057-0.477,1.826
	c-0.738,0.584-1.557,1.141-2.258,1.57c-0.887,0.543-1.787-0.129-6.086-2.152c-0.086-0.041-1.162,0.49-1.629,0.463
	c-0.332-0.02-1.771-0.48-2.113-0.547c-1.004-0.195-5.283-0.424-5.818-0.865c-0.656-4.9,7.477-12.197,17.596-4.506
	C32.727,5.657,30.846,6.233,30.846,6.233z"/>
<path fill-rule="evenodd" clip-rule="evenodd" fill="#8A0404" d="M15.779,8.049c-0.281,0.398,3.301-3.588,9.664-4.047
	C23.662,2.278,17.611,4.264,15.779,8.049z"/>
<path fill-rule="evenodd" clip-rule="evenodd" fill="#8A0404" d="M31.094,6.383c0,0,1.084-0.416,1.275-0.891
	c-1.516-0.16-2.479-0.463-2.811,0.023L31.094,6.383z"/>
<path fill-rule="evenodd" clip-rule="evenodd" fill="#8A0404" d="M28.041,7.938c2.902,1.082,4.469,2.611,4.469,2.611
	s0.092-0.416,0.537-0.922c-0.736-1.289-2.646-2.842-3.025-2.854C29.459,6.754,27.639,7.79,28.041,7.938z"/>
<path fill-rule="evenodd" clip-rule="evenodd" fill="#8A0404" d="M16.863,8.469c-0.488,0.766,1.717,0.693,4.072,0.42
	c0.85-0.1,6.303-2.154,6.67-2.738c0.08-0.125-0.289-1.184-0.602-1.191C24.74,4.907,18.016,6.989,16.863,8.469z"/>
</svg>
