<?xml version="1.0" encoding="utf-8"?>
<!-- Generator: Adobe Illustrator 19.0.0, SVG Export Plug-In . SVG Version: 6.00 Build 0)  -->
<svg version="1.1" id="Layer_1" xmlns="http://www.w3.org/2000/svg" xmlns:xlink="http://www.w3.org/1999/xlink" x="0px" y="0px"
	 width="64px" height="64px" viewBox="0 0 64 64" enable-background="new 0 0 64 64" xml:space="preserve">
<linearGradient id="SVGID_1_" gradientUnits="userSpaceOnUse" x1="18.7049" y1="8.9734" x2="45.294" y2="55.0271">
	<stop  offset="0" style="stop-color:#FFE12C"/>
	<stop  offset="0.5027" style="stop-color:#FFE12C"/>
	<stop  offset="1" style="stop-color:#F9C802"/>
</linearGradient>
<path fill="url(#SVGID_1_)" d="M60.685,28.813L35.188,3.314c-1.753-1.753-4.622-1.752-6.375,0L3.314,28.813
	c-1.752,1.753-1.753,4.622,0,6.375l25.498,25.498c1.753,1.752,4.622,1.752,6.375,0l25.497-25.498
	C62.438,33.435,62.438,30.566,60.685,28.813z"/>
<linearGradient id="SVGID_2_" gradientUnits="userSpaceOnUse" x1="20.0007" y1="11.2172" x2="43.9995" y2="52.7844">
	<stop  offset="0" style="stop-color:#464253"/>
	<stop  offset="0.6189" style="stop-color:#211D2D"/>
	<stop  offset="1" style="stop-color:#1A1626"/>
</linearGradient>
<path fill="url(#SVGID_2_)" d="M58.029,29.344L34.656,5.971c-1.465-1.464-3.848-1.464-5.312,0L5.971,29.344
	c-1.465,1.464-1.465,3.848,0,5.313L29.345,58.03c1.464,1.465,3.847,1.465,5.312,0L58.03,34.657
	C59.493,33.191,59.493,30.808,58.029,29.344z M56.967,33.594L33.594,56.967c-0.879,0.879-2.309,0.879-3.188,0L7.034,33.594
	c-0.879-0.879-0.879-2.309,0-3.188L30.406,7.033c0.879-0.879,2.309-0.879,3.188,0l23.373,23.373
	C57.845,31.285,57.845,32.715,56.967,33.594z"/>
<linearGradient id="SVGID_3_" gradientUnits="userSpaceOnUse" x1="26.3387" y1="16.5139" x2="30.1793" y2="23.1661">
	<stop  offset="0" style="stop-color:#464253"/>
	<stop  offset="0.6189" style="stop-color:#211D2D"/>
	<stop  offset="1" style="stop-color:#1A1626"/>
</linearGradient>
<circle fill="url(#SVGID_3_)" cx="28.259" cy="19.84" r="3.84"/>
<linearGradient id="SVGID_4_" gradientUnits="userSpaceOnUse" x1="36.0267" y1="20.2573" x2="39.1453" y2="25.6587">
	<stop  offset="0" style="stop-color:#464253"/>
	<stop  offset="0.6189" style="stop-color:#211D2D"/>
	<stop  offset="1" style="stop-color:#1A1626"/>
</linearGradient>
<circle fill="url(#SVGID_4_)" cx="37.586" cy="22.958" r="3.118"/>
<linearGradient id="SVGID_5_" gradientUnits="userSpaceOnUse" x1="24.4049" y1="23.2671" x2="38.294" y2="47.3237">
	<stop  offset="0" style="stop-color:#464253"/>
	<stop  offset="0.6189" style="stop-color:#211D2D"/>
	<stop  offset="1" style="stop-color:#1A1626"/>
</linearGradient>
<path fill="url(#SVGID_5_)" d="M20.729,43.566c-0.352,0.565-0.178,1.308,0.389,1.658c0.197,0.123,0.417,0.182,0.635,0.182
	c0.4,0,0.797-0.201,1.024-0.569l3.979-6.412c0.132-0.211,0.192-0.457,0.18-0.705l-0.173-3.028h0.954l1.647,3.277l-0.42,6.751
	c-0.042,0.664,0.464,1.236,1.126,1.278C30.099,45.999,30.124,46,30.148,46c0.631,0,1.162-0.492,1.202-1.131l0.439-7.076
	c0.015-0.212-0.029-0.425-0.124-0.616l-1.613-3.211c0.001-0.011,0.006-0.02,0.006-0.031l0.3-5.126l0.951,1.965
	c0.081,0.168,0.219,0.303,0.388,0.381l0.897,0.411l0.625,1.844l-1.499,0.425l0.621,2.198L33.87,35.6l-0.579,1.404
	c-0.102,0.247-0.074,0.528,0.072,0.75c0.147,0.223,0.396,0.357,0.663,0.36l1.729,0.018l-0.065,0.549l-2.878,5.127
	c-0.218,0.388-0.08,0.877,0.307,1.095c0.124,0.07,0.259,0.103,0.394,0.103c0.281,0,0.554-0.148,0.701-0.411l2.955-5.266
	c0.052-0.092,0.085-0.192,0.097-0.297l0.108-0.883l2.359,0.023l0.73,1.514l0.234,4.898c0.02,0.43,0.375,0.765,0.802,0.765
	c0.014,0,0.025-0.001,0.038-0.001c0.444-0.021,0.784-0.398,0.766-0.841l-0.242-5.062c-0.006-0.106-0.032-0.212-0.079-0.31
	l-0.456-0.945l0.187,0.001c0,0,0.003,0,0.005,0c0.277,0,0.535-0.143,0.682-0.378c0.148-0.238,0.163-0.535,0.038-0.785l-2.374-4.744
	l0.4-2.766l0.802,1.433c0.054,0.101,0.131,0.188,0.222,0.255l3.235,2.397c0.144,0.108,0.312,0.159,0.478,0.159
	c0.247,0,0.488-0.112,0.647-0.325c0.263-0.356,0.189-0.86-0.167-1.125l-3.096-2.294l-1.74-3.118c-0.165-0.299-0.492-0.444-0.812-0.4
	c-0.019-0.002-0.035-0.012-0.056-0.012h-4.781c-0.236,0-0.459,0.104-0.612,0.283c-0.061,0.071-0.099,0.158-0.129,0.244
	c-0.061,0.051-0.122,0.103-0.168,0.174l-1.662,2.612l-2.081-4.298c-0.004-0.011-0.014-0.017-0.019-0.026
	c-0.045-0.324-0.271-0.6-0.601-0.677l-5.514-1.296h-0.002c-0.113-0.027-0.229-0.021-0.343,0.002
	c-0.033,0.006-0.062,0.023-0.097,0.034c-0.075,0.025-0.145,0.059-0.211,0.106c-0.016,0.012-0.034,0.013-0.051,0.025
	c-0.021,0.018-0.028,0.045-0.048,0.064c-0.025,0.027-0.06,0.045-0.082,0.077l-2.461,3.379c-0.179,0.244-0.205,0.566-0.067,0.835
	l1.863,3.687l-2.918,1.159l1.236,3.11l3.121-1.24l0.154,2.732L20.729,43.566z M34.768,32.971l-0.767-2.262
	c-0.002-0.005-0.003-0.011-0.005-0.016l-0.012-0.034l0.762-1.194l0.478,2.859l-0.241,0.586L34.768,32.971z M22.705,27.743
	l0.859-1.179l0.204,3.28L22.705,27.743z"/>
</svg>
