<?xml version="1.0" encoding="utf-8"?>
<!-- Generator: Adobe Illustrator 19.0.0, SVG Export Plug-In . SVG Version: 6.00 Build 0)  -->
<svg version="1.1" id="Layer_1" xmlns="http://www.w3.org/2000/svg" xmlns:xlink="http://www.w3.org/1999/xlink" x="0px" y="0px"
	 width="64px" height="64px" viewBox="0 0 64 64" enable-background="new 0 0 64 64" xml:space="preserve">
<radialGradient id="SVGID_1_" cx="32" cy="32" r="26.2001" gradientUnits="userSpaceOnUse">
	<stop  offset="0" style="stop-color:#545061"/>
	<stop  offset="0.2793" style="stop-color:#464253"/>
	<stop  offset="0.6105" style="stop-color:#312D3D"/>
	<stop  offset="0.7961" style="stop-color:#211D2D"/>
	<stop  offset="0.9556" style="stop-color:#1A1626"/>
</radialGradient>
<path fill="url(#SVGID_1_)" d="M56.631,40.325C45.531,73.166-3.73,56.517,7.369,23.675S67.73,7.483,56.631,40.325z"/>
<path fill="#FFFFFF" d="M46.146,28.134c-1.433,0-2.773,0.383-3.935,1.045L39.448,25.4l0.938-2.376
	c4.744-3.146,1.957-2.276-3.559-2.276c-1.254,0-2.691,0.12,1.672,2.134l-0.633,1.586H26.185c0.01-0.067,0.018-0.132,0.024-0.199
	c0.132-1.263-0.413-2.321-1.227-3.554c-0.212-0.32-0.737-0.965,0.204-0.965c0.899,0,3.602,0,3.602,0l1.132-1.815
	c0,0-5.738,0.004-5.746,0.004c-0.554,0.05-1.308,0.37-1.597,1.097c-0.415,1.043,0.344,2.107,0.999,2.854
	c1.42,1.618,0.76,2.891,0.063,4.243c-0.025,0.048-0.907,1.338-2.015,2.949c-1.121-0.604-2.403-0.947-3.767-0.947
	c-4.4,0-7.967,3.567-7.967,7.967s3.566,7.967,7.967,7.967c4.399,0,7.967-3.567,7.967-7.967c0-2.35-1.023-4.456-2.643-5.914
	c0.46-0.649,0.785-1.109,0.842-1.194l7.558,7.692c-0.618,0.902-0.147,3.118,1.899,3.105l0.398,2.457h-0.716v0.908h2.493v-0.908
	h-0.86l-0.414-2.558c0.703-0.229,1.258-0.791,1.471-1.498l2.538-0.298c0.813,3.536,3.973,6.175,7.756,6.175
	c4.4,0,7.967-3.567,7.967-7.967S50.546,28.134,46.146,28.134z M24.006,36.101c0,3.396-2.753,6.15-6.149,6.15
	c-3.396,0-6.15-2.753-6.15-6.15c0-3.396,2.755-6.15,6.15-6.15c0.98,0,1.904,0.235,2.726,0.644c-1.489,2.164-3.046,4.409-3.436,4.941
	c-0.638,0.865,0.768,2.01,1.459,1.074c0.192-0.263,2.032-2.843,3.517-4.933C23.282,32.796,24.006,34.362,24.006,36.101z
	 M33.648,35.144l-0.52-3.237h0.713v-0.909H31.35v0.909h0.859l0.546,3.387l-7.737-7.876l0.575-1.135H37.15L33.648,35.144z
	 M35.641,36.388c-0.097-0.168-0.214-0.321-0.35-0.457l3.372-8.535l2.086,2.857c-1.573,1.453-2.566,3.526-2.568,5.837L35.641,36.388z
	 M41.825,31.727l2.649,3.625l-4.466,0.524C40.066,34.255,40.747,32.792,41.825,31.727z M46.146,42.251
	c-2.85,0-5.239-1.942-5.938-4.572l7.564-0.888l-4.483-6.134c0.854-0.449,1.825-0.707,2.856-0.707c3.397,0,6.15,2.753,6.15,6.15
	C52.296,39.497,49.543,42.251,46.146,42.251z"/>
<linearGradient id="SVGID_2_" gradientUnits="userSpaceOnUse" x1="16.9976" y1="6.015" x2="47.0024" y2="57.9849">
	<stop  offset="0" style="stop-color:#FF3B3B"/>
	<stop  offset="0.2558" style="stop-color:#FB3737"/>
	<stop  offset="0.5207" style="stop-color:#F02B2A"/>
	<stop  offset="0.7889" style="stop-color:#DD1616"/>
	<stop  offset="1" style="stop-color:#C90100"/>
</linearGradient>
<path fill="url(#SVGID_2_)" d="M32,2C15.432,2,2,15.432,2,32c0,16.568,13.432,30,30,30c16.568,0,30-13.432,30-30
	C62,15.432,48.568,2,32,2z M56,32c0,5.546-1.886,10.649-5.045,14.713L17.289,13.045C21.353,9.886,26.455,8,32,8
	C45.256,8,56,18.746,56,32z M8,32c0-5.545,1.887-10.648,5.046-14.712l33.666,33.668C42.648,54.114,37.546,56,32,56
	C18.746,56,8,45.256,8,32z"/>
</svg>
