<?xml version="1.0" encoding="utf-8"?>
<!-- Generator: Adobe Illustrator 15.0.0, SVG Export Plug-In . SVG Version: 6.00 Build 0)  -->
<!DOCTYPE svg PUBLIC "-//W3C//DTD SVG 1.1//EN" "http://www.w3.org/Graphics/SVG/1.1/DTD/svg11.dtd" [
	<!ENTITY ns_flows "http://ns.adobe.com/Flows/1.0/">
	<!ENTITY ns_extend "http://ns.adobe.com/Extensibility/1.0/">
	<!ENTITY ns_ai "http://ns.adobe.com/AdobeIllustrator/10.0/">
	<!ENTITY ns_graphs "http://ns.adobe.com/Graphs/1.0/">
]>
<svg version="1.1" id="Layer_1" xmlns:x="&ns_extend;" xmlns:i="&ns_ai;" xmlns:graph="&ns_graphs;"
	 xmlns="http://www.w3.org/2000/svg" xmlns:xlink="http://www.w3.org/1999/xlink" xmlns:a="http://ns.adobe.com/AdobeSVGViewerExtensions/3.0/"
	 x="0px" y="0px" width="64px" height="64px" viewBox="0 0 64 64" enable-background="new 0 0 64 64" xml:space="preserve">
<linearGradient id="SVGID_1_" gradientUnits="userSpaceOnUse" x1="-265.2793" y1="887.5283" x2="-255.1885" y2="887.5283" gradientTransform="matrix(0.4748 -0.8801 0.8801 0.4748 -622.3313 -639.4166)">
	<stop  offset="0" style="stop-color:#3B2118"/>
	<stop  offset="0.1892" style="stop-color:#452920"/>
	<stop  offset="0.6761" style="stop-color:#5A3A30"/>
	<stop  offset="1" style="stop-color:#614036"/>
	<a:midPointStop  offset="0" style="stop-color:#3B2118"/>
	<a:midPointStop  offset="0.3818" style="stop-color:#3B2118"/>
	<a:midPointStop  offset="1" style="stop-color:#614036"/>
</linearGradient>
<path fill="url(#SVGID_1_)" d="M41.26,10.938c0.486-0.432,0.891-1.004,1.145-1.784c-5.594,3.489-14.766-6.71-16.045,2.81
	l3.451,0.429c1.639-2.001,5.799,4.54,10.039,1.543c-0.594,0.201-1.383-0.225-2.258-0.834c3.102,0.66,5.445,0.857,6.789-2.498
	C43.951,11.105,42.695,11.156,41.26,10.938z"/>
<path fill="#8E3ED6" d="M29.73,7.604c-1.297,0.149-1.568,3.435,0.254,4.567C31.477,13.106,31.863,7.36,29.73,7.604z"/>
<path fill="#69452D" d="M23.744,19.715c0.984-1.003,3.012-0.455,3.25-0.045c0.787,1.342,4.156-1.833,2.949-3.264
	c-1.049-1.242-0.971-3.216-0.971-3.216C28.014,13.025,23.34,8.893,23.744,19.715z"/>
<path fill="#916B50" d="M19.426,5.182c-3.416,1.897-3.803,4.971-2.107,7.812c0.383,0.643,0.369,1.984-0.232,3.062
	c-0.219,0.392-0.119,0.769,0.127,0.956c0.48,0.368,1.154,0.127,1.502,0.204c0.773,0.173,0.305,0.845,0.949,1.143
	c0.295,0.139,0.807-0.372,0.57,1.005c0.914,0.266,0.449,1.793,2.105,1.495c0.785-0.141,3.207-2.307,3.971-4.842
	c0.432-1.432,0.092-2.792,0.092-2.792c2.49-1.813,2.588-4.604,1.063-6.928C25.332,3.047,21.639,3.948,19.426,5.182z"/>
<path fill="#733B2A" d="M19.664,18.357c0.418,0.086,0.387,0.468,0.387,0.468c-0.164,0.06-0.006,0.615,0.236,0.526
	c0.85-0.309,1.363-1.32,1.459-1.856C20.391,17.914,18.715,17.844,19.664,18.357z"/>
<path fill="#FFFFFF" d="M19.664,18.357c0,0,0.299,0.418,0.387,0.468c0.268-0.097,1.064-0.604,1.471-1.149L19.664,18.357z"/>
<linearGradient id="SVGID_2_" gradientUnits="userSpaceOnUse" x1="23.2295" y1="335.4238" x2="37.46" y2="335.4238" gradientTransform="matrix(0.9397 -0.342 0.342 0.9397 -119.4899 -295.3305)">
	<stop  offset="0" style="stop-color:#614036"/>
	<stop  offset="0.3534" style="stop-color:#5E3D33"/>
	<stop  offset="0.6441" style="stop-color:#54352B"/>
	<stop  offset="0.9118" style="stop-color:#42271E"/>
	<stop  offset="1" style="stop-color:#3B2118"/>
	<a:midPointStop  offset="0" style="stop-color:#614036"/>
	<a:midPointStop  offset="0.7455" style="stop-color:#614036"/>
	<a:midPointStop  offset="1" style="stop-color:#3B2118"/>
</linearGradient>
<path fill="url(#SVGID_2_)" d="M27.572,4.36c-1.414-1.857-5.102-2.064-7.965-0.33c-2.783,1.688-4.246,4.551-3.268,5.722
	c1.387,1.658,5.615,0.083,8.371,2.743c0.104,0.213,1.277-0.04,1.396,0.137c0.949,1.431,2.625,2.295,3.021,2.018
	C31.896,12.715,31.34,4.429,27.572,4.36z"/>
<path fill="#69452D" d="M17.225,17.013c0.494,0.574,2.152,0.136,2.369-0.864C18.971,17.067,16.936,16.677,17.225,17.013z"/>
<path fill="#916B50" d="M25.184,9.843c-1.25,0.772-0.561,3.982,0.693,4.277c0.176,0.042,0.949-0.146,1.066-1.037
	c0.066-0.495,0.691-1.199,0.504-2.052C27.207,9.94,26.428,9.073,25.184,9.843z"/>
<path id="Path_2399_" fill="#69452D" d="M25.461,10.383c-0.301,0.242-0.48,0.758-0.361,1.398c1.102-0.772,1.543,0.616,0.52,1.174
	c0.084,0.118,0.176,0.238,0.279,0.361c0.23-0.708,0.848-0.788,0.947-1.719C26.936,10.759,26.209,9.782,25.461,10.383z"/>
<path id="Path_2398_" fill="#5E4431" d="M20.383,11.168c-0.934-0.166-2.416,0.352-2.855,0.86c-0.094,0.104,0.137,0.497,0.221,0.42
	c0.646-0.608,1.879-1.064,2.73-0.961C20.592,11.5,20.523,11.188,20.383,11.168z"/>
<path fill="#FFFFFF" d="M20.631,12.849c0.088,0.188-0.273,1.117-1.035,1.47c-0.436,0.202-0.723-0.089-0.959-0.425
	C17.998,12.441,19.941,12.332,20.631,12.849z"/>
<linearGradient id="Path_1_" gradientUnits="userSpaceOnUse" x1="24.6792" y1="338.4805" x2="24.6792" y2="336.8125" gradientTransform="matrix(0.9397 -0.342 0.342 0.9397 -119.4899 -295.3305)">
	<stop  offset="0" style="stop-color:#A6694A"/>
	<stop  offset="1" style="stop-color:#4F2A1E"/>
	<a:midPointStop  offset="0" style="stop-color:#A6694A"/>
	<a:midPointStop  offset="0.5" style="stop-color:#A6694A"/>
	<a:midPointStop  offset="1" style="stop-color:#4F2A1E"/>
</linearGradient>
<path id="Path_2397_" fill="url(#Path_1_)" d="M18.537,13.716c0.395,1.083,1.648,0.625,1.256-0.457
	C19.426,12.252,18.172,12.709,18.537,13.716z"/>
<path id="Path_2396_" fill="#1A1626" d="M18.65,13.62c0.197,0.541,0.822,0.312,0.627-0.229C19.094,12.888,18.467,13.115,18.65,13.62
	z"/>
<path id="Path_2395_" fill="#AB968C" d="M18.959,13.26c0.082,0.226,0.445,0.093,0.363-0.132
	C19.246,12.915,18.881,13.047,18.959,13.26z"/>
<path fill="#45332C" d="M20.631,12.849c-0.586-0.554-2.445-0.434-2.158,0.495C18.486,12.644,19.855,12.527,20.631,12.849z"/>
<path fill="#99A8AE" d="M50,38.998c-6.076,0-11,4.924-11,11s4.924,11,11,11c6.074,0,11-4.924,11-11S56.074,38.998,50,38.998z
	 M50,58.998c-4.971,0-9-4.029-9-9s4.029-9,9-9s9,4.029,9,9S54.971,58.998,50,58.998z"/>
<path fill="#99A8AE" d="M14,38.998c-6.076,0-11,4.924-11,11s4.924,11,11,11c6.074,0,11-4.924,11-11S20.074,38.998,14,38.998z
	 M14,58.998c-4.971,0-9-4.029-9-9s4.029-9,9-9s9,4.029,9,9S18.971,58.998,14,58.998z"/>
<path fill="#302C3B" d="M14,37.998c-6.627,0-12,5.373-12,12c0,6.629,5.373,12,12,12c6.625,0,12-5.371,12-12
	C26,43.373,20.625,37.998,14,37.998z M14,60C8.477,60,4,55.521,4,49.998c0-5.521,4.477-10,10-10s9.998,4.479,9.998,10
	C23.998,55.523,19.523,60,14,60z"/>
<path fill="#302C3B" d="M50,37.998c-6.627,0-12,5.373-12,12c0,6.629,5.373,12,12,12c6.625,0,12-5.371,12-12
	C62,43.373,56.625,37.998,50,37.998z M50,60c-5.523,0-10-4.479-10-10.002c0-5.521,4.477-10,10-10s9.998,4.479,9.998,10
	C59.998,55.523,55.523,60,50,60z"/>
<path fill="#916B50" d="M28.154,31.735c-1.713,3.544,2.363,3.544,6.379,10.271l1.934-2.93c-2.637-2.76-1.303-3.396-3.064-6.716
	L28.154,31.735z"/>
<path fill="#732EB0" d="M39.654,32.42L37,26.999c-2.615,1.5-7.148,2.342-8.846,4.736c0,0,1.582,1.613,6.219,3.14
	C36.322,34.1,39.654,32.42,39.654,32.42z"/>
<path fill="#302C3B" d="M21,27.999c-0.717-0.336-3-1-3-1v2l1.883,0.471L19,32.999l2,1l1-4C22,29.999,23.564,29.202,21,27.999z"/>
<path fill="#0FB4D4" d="M50.66,49.232L40.521,37.191l1.373-2.744c0.246-0.494-1.543-1.389-1.789-0.896l-1.316,2.635l-19.494-4.367
	l-6.238,17.849c-0.395,1.121,1.525,1.684,1.887,0.666l5.387-15.26l11.877,15.533c0.008,0.012,0.021,0.016,0.029,0.023
	c0.088,0.105,0.619,0.367,0.766,0.367h17c0,0,0.014,0,0.02,0C50.572,50.998,50.881,49.414,50.66,49.232z M37.867,38.029
	L32.82,48.121L22.465,34.576L37.867,38.029z M34.617,48.998l4.932-9.857l8.301,9.857H34.617z"/>
<path fill="#302C3B" d="M16,49.998c0,2.668-4,2.668-4,0C12,47.332,16,47.332,16,49.998z"/>
<polygon fill="#BEC3CF" points="50,47.998 32.998,46.998 32.998,45.998 50,46.998 "/>
<polygon fill="#BEC3CF" points="50,52.998 33,53.998 33,52.998 50,51.998 "/>
<path fill="#302C3B" d="M53,49.998c0,4-6,4-6,0S53,45.998,53,49.998z"/>
<path fill="#302C3B" d="M32.998,53.998c-5.33,0-5.33-8,0-8C38.334,45.998,38.334,53.998,32.998,53.998z"/>
<polygon fill="#6E8189" points="31,56.998 29,56.998 32,49.998 34,49.998 "/>
<path fill="#99A8AE" d="M34,50.002c0,1.33-2,1.33-2,0C32,48.664,34,48.664,34,50.002z"/>
<path fill="#302C3B" d="M45,34.998c-2,1-4-1-8-1c0,0,0-2,2-2c4.123,0,5.434-0.783,7,0C48,32.999,46.264,34.367,45,34.998z"/>
<path fill="#916B50" d="M31.984,39.443c-0.514,2.102,2.672,6.994,1.186,14.158h4.221c-1.107-7.164,0.672-8.639,0.172-13.967
	C37.563,39.635,32.611,36.891,31.984,39.443z"/>
<path fill="#8E3ED6" d="M46.236,25.462c-4.908-10.568-18.127-13.109-19.691-9.086c-0.742,1.913,0.877,7.465,6.205,6.584
	c0.602-0.1,3,2.489,4.25,4.039c-1.633,3-4.764,8.821-5.016,12.444c0,0,1.961,0.043,5.668,1.477
	C40.186,33.361,49.064,31.555,46.236,25.462z"/>
<path fill="#BE75FF" d="M36.271,40.42l-1.996-0.586c0.945-4.285,3.307-6.797,5.156-8.841c1.629-1.798,2.537-2.88,2.303-4.207
	c-0.564-3.188-4.67-6.254-11.561-8.637l0.654-1.891c5.381,1.861,11.982,5.137,12.875,10.178c0.418,2.355-1.068,3.998-2.787,5.898
	C39.137,34.301,37.102,36.656,36.271,40.42z"/>
<path fill="#916B50" d="M27.123,23.424c0.156,0.887,0.324,1.341,0.377,1.876c-3.188,1.656-3.996,2.465-6.982,0.699
	c-2-1.182-5.875-1.273-5.051,2.797c0.354,1.748,2.559-2.938,3.402-1.313c1.332,2.562,1.801,2.018,3.693,1.918
	c4.49-0.236,9.119-0.4,8.945-2.123c-0.105-1.043,0.053-3.302,0.053-3.302L27.123,23.424z"/>
<path fill="#732EB0" d="M31.453,17.665c-0.531-3.928-5.32-3.313-5.084-0.086c0.135,1.857,0.754,5.845,0.754,5.845
	c2.416,0.74,4.438,0.553,4.438,0.553C31.695,21.867,31.721,19.649,31.453,17.665z"/>
<path fill="#302C3B" d="M20,28.005c0,2.658-4,2.658-4,0C16,25.333,20,25.333,20,28.005z"/>
<path fill="#99A8AE" d="M19,28.001c0,1.33-2,1.33-2,0C17,26.665,19,26.665,19,28.001z"/>
<path fill="#99A8AE" d="M27,56.998c0,0-0.416,1.725,0,2c0.49,0.324,2.32-0.697,2.33,0.004h0.004c0.01-0.701,2.32-0.701,2.33,0h0.004
	c0.01-0.701,1.84,0.32,2.33-0.004c0.416-0.275,0.002-2,0.002-2H27z"/>
<path fill="#302C3B" d="M31,57.717c0,0.668-1,0.668-1,0C30,57.051,31,57.051,31,57.717z"/>
<path fill="#302C3B" d="M29.352,57.717c0,0.334-2,0.334-2,0C27.352,57.385,29.352,57.385,29.352,57.717z"/>
<path fill="#302C3B" d="M33.648,57.717c0,0.334-2,0.334-2,0C31.648,57.385,33.648,57.385,33.648,57.717z"/>
<path fill="#302C3B" d="M28.285,8.354c0,0-1.152-0.264-1.119,0.016c0.133,1.164-0.563,3.971-0.563,3.971s-3.1-1.477-4.482-4.502
	c-0.117-0.258-0.893,0.381-0.92,0.662c-0.172,1.707,5.004,5.129,5.004,5.129s-1.197,4.592-2.342,6.033
	C26.992,20.111,28.285,8.354,28.285,8.354z"/>
<path fill="#E81C27" d="M37.285,52.82c-1.072,1.035-3.385,0.832-4.049,0.309c-2.236,0.82-2.586,1.918-5.598,2.217
	c-1.248,0.125-0.867,1.535-0.639,1.652c1.15,0.592,5.225-0.424,9.285,0.293C38.205,57.629,37.572,52.791,37.285,52.82z"/>
<path fill="#302C3B" d="M32.74,53.328c-0.74,0.17-1.092,0.563-1.092,0.563C33.061,55.059,34.184,54.736,32.74,53.328z"/>
<path fill="#302C3B" d="M31.518,53.998c-0.74,0.172-1.092,0.563-1.092,0.563C31.596,55.529,32.732,55.186,31.518,53.998z"/>
<path fill="#302C3B" d="M30.322,54.645c-0.74,0.17-0.764,0.314-0.764,0.314C30.426,55.676,31.258,55.557,30.322,54.645z"/>
<path fill-rule="evenodd" clip-rule="evenodd" fill="#E81C27" d="M31.221,6.232c0.227,0.152,1.32,0.725,1.357,0.99
	c0.018,0.129-0.102,0.334-0.098,0.486c0.008,0.246,1.193,1.67,1.006,1.854c-1.57,1.539,0.494,1.057-0.477,1.826
	c-0.738,0.585-1.557,1.142-2.258,1.571c-0.887,0.543-1.787-0.129-6.086-2.153c-0.086-0.04-1.162,0.49-1.629,0.463
	c-0.332-0.02-1.771-0.48-2.113-0.547c-1.004-0.195-5.283-0.424-5.818-0.865C14.449,4.958,22.582-2.34,32.701,5.353
	C33.102,5.656,31.221,6.232,31.221,6.232z"/>
<path fill-rule="evenodd" clip-rule="evenodd" fill="#8A0404" d="M16.154,8.049c-0.281,0.398,3.301-3.588,9.664-4.047
	C24.037,2.277,17.986,4.264,16.154,8.049z"/>
<path fill-rule="evenodd" clip-rule="evenodd" fill="#8A0404" d="M31.469,6.383c0,0,1.084-0.416,1.275-0.891
	c-1.516-0.159-2.479-0.463-2.811,0.023L31.469,6.383z"/>
<path fill-rule="evenodd" clip-rule="evenodd" fill="#8A0404" d="M28.416,7.938c2.902,1.082,4.469,2.611,4.469,2.611
	s0.092-0.416,0.537-0.922c-0.736-1.289-2.646-2.842-3.025-2.854C29.834,6.754,28.014,7.789,28.416,7.938z"/>
<path fill-rule="evenodd" clip-rule="evenodd" fill="#8A0404" d="M17.238,8.469c-0.488,0.766,1.717,0.693,4.072,0.42
	c0.85-0.1,6.303-2.154,6.67-2.738c0.08-0.125-0.289-1.184-0.602-1.191C25.115,4.906,18.391,6.988,17.238,8.469z"/>
</svg>
