<?xml version="1.0" encoding="utf-8"?>
<!-- Generator: Adobe Illustrator 15.0.0, SVG Export Plug-In . SVG Version: 6.00 Build 0)  -->
<!DOCTYPE svg PUBLIC "-//W3C//DTD SVG 1.1//EN" "http://www.w3.org/Graphics/SVG/1.1/DTD/svg11.dtd" [
	<!ENTITY ns_flows "http://ns.adobe.com/Flows/1.0/">
	<!ENTITY ns_extend "http://ns.adobe.com/Extensibility/1.0/">
	<!ENTITY ns_ai "http://ns.adobe.com/AdobeIllustrator/10.0/">
	<!ENTITY ns_graphs "http://ns.adobe.com/Graphs/1.0/">
]>
<svg version="1.1" id="Layer_1" xmlns:x="&ns_extend;" xmlns:i="&ns_ai;" xmlns:graph="&ns_graphs;"
	 xmlns="http://www.w3.org/2000/svg" xmlns:xlink="http://www.w3.org/1999/xlink" xmlns:a="http://ns.adobe.com/AdobeSVGViewerExtensions/3.0/"
	 x="0px" y="0px" width="64px" height="64px" viewBox="0 0 64 64" enable-background="new 0 0 64 64" xml:space="preserve">
<path fill="#302116" d="M23.629,19.762c0.986-1.002,2.775-0.424,3.014-0.014c0.787,1.34,4.504-1.922,3.299-3.352
	c-1.049-1.244-0.971-3.215-0.971-3.215C28.008,13.016,23.229,8.938,23.629,19.762z"/>
<path fill="#403A33" d="M17.305,14.004c-0.533-2.916,2.326-4.779,0.33-7.006C14.592,8.993,15.268,11.778,17.305,14.004z"/>
<path fill="#614A36" d="M19.422,5.17c-3.414,1.9-3.803,4.975-2.107,7.813c0.383,0.643,0.369,1.984-0.232,3.063
	c-0.219,0.393-0.117,0.768,0.129,0.955c0.48,0.369,1.154,0.127,1.5,0.205c0.775,0.172,0.307,0.844,0.953,1.145
	c0.291,0.135,0.803-0.375,0.568,1.002c0.914,0.266,0.17,1.979,2.104,1.498c1.016-0.254,3.814-3.643,4.059-4.957
	c0.285-1.531,0.002-2.678,0.002-2.678c2.492-1.816,2.592-4.604,1.066-6.926C25.33,3.036,21.637,3.94,19.422,5.17z"/>
<path fill="#302116" d="M19.664,18.35c0.414,0.084,0.385,0.467,0.385,0.467c-0.164,0.061-0.008,0.613,0.234,0.525
	c0.85-0.311,1.363-1.322,1.459-1.855C20.389,17.905,18.711,17.836,19.664,18.35z"/>
<path fill="#FFFFFF" d="M19.664,18.35c0,0,0.297,0.416,0.385,0.467c0.266-0.096,1.064-0.605,1.471-1.15L19.664,18.35z"/>
<path fill="#302116" d="M17.221,17c0.494,0.58,2.152,0.139,2.371-0.861C18.967,17.059,16.934,16.667,17.221,17z"/>
<path id="Path_2680_" fill="#472B27" d="M20.381,11.159c-0.934-0.166-2.418,0.352-2.854,0.861c-0.098,0.104,0.135,0.496,0.219,0.42
	c0.646-0.609,1.879-1.068,2.729-0.963C20.588,11.491,20.52,11.176,20.381,11.159z"/>
<linearGradient id="SVGID_1_" gradientUnits="userSpaceOnUse" x1="35.2354" y1="340.8848" x2="25.5802" y2="330.4817" gradientTransform="matrix(0.9397 -0.342 0.342 0.9397 -119.4899 -295.3305)">
	<stop  offset="0" style="stop-color:#1A1714"/>
	<stop  offset="0.0882" style="stop-color:#211E1A"/>
	<stop  offset="0.3559" style="stop-color:#332E28"/>
	<stop  offset="0.6466" style="stop-color:#3D3730"/>
	<stop  offset="1" style="stop-color:#403A33"/>
	<a:midPointStop  offset="0" style="stop-color:#1A1714"/>
	<a:midPointStop  offset="0.2545" style="stop-color:#1A1714"/>
	<a:midPointStop  offset="1" style="stop-color:#403A33"/>
</linearGradient>
<path fill="url(#SVGID_1_)" d="M21.111,7.5c3.965,1.785,6.1,5.41,6.781,8.463C31.367,13.018,29.162,3.475,21.111,7.5z"/>
<linearGradient id="SVGID_2_" gradientUnits="userSpaceOnUse" x1="36.2158" y1="340.5" x2="25.7246" y2="329.1961" gradientTransform="matrix(0.9397 -0.342 0.342 0.9397 -119.4899 -295.3305)">
	<stop  offset="0" style="stop-color:#1A1714"/>
	<stop  offset="0.0882" style="stop-color:#211E1A"/>
	<stop  offset="0.3559" style="stop-color:#332E28"/>
	<stop  offset="0.6466" style="stop-color:#3D3730"/>
	<stop  offset="1" style="stop-color:#403A33"/>
	<a:midPointStop  offset="0" style="stop-color:#1A1714"/>
	<a:midPointStop  offset="0.2545" style="stop-color:#1A1714"/>
	<a:midPointStop  offset="1" style="stop-color:#403A33"/>
</linearGradient>
<path fill="url(#SVGID_2_)" d="M29.682,15.02c1.387-2.525,0.473-7.582-2.266-10.102c-2.02-1.859-4.266-2.354-7.648-1.113
	c-2.742,1.004-4.449,3.402-4.252,5.377c0.275,2.75,4.221,1.203,6.271,2.793c0,0,0.088-1.58-1.598-3.127
	C26.797,13.731,26.705,6.959,29.682,15.02z"/>
<path fill="#614A36" d="M25.18,9.833c-1.25,0.773-0.561,3.982,0.695,4.279c0.176,0.039,0.947-0.146,1.066-1.039
	c0.066-0.494,0.689-1.199,0.502-2.051C27.203,9.93,26.424,9.065,25.18,9.833z"/>
<path id="Path_2679_" fill="#302116" d="M25.457,10.372c-0.301,0.244-0.48,0.76-0.357,1.4c1.098-0.775,1.543,0.617,0.518,1.172
	c0.082,0.121,0.174,0.242,0.279,0.363c0.23-0.709,0.846-0.789,0.945-1.719C26.932,10.749,26.205,9.774,25.457,10.372z"/>
<path fill="#FFFFFF" d="M20.631,12.848c0.09,0.189-0.271,1.119-1.035,1.471c-0.434,0.201-0.721-0.088-0.957-0.424
	C18,12.444,19.943,12.334,20.631,12.848z"/>
<linearGradient id="Path_1_" gradientUnits="userSpaceOnUse" x1="24.6792" y1="338.4814" x2="24.6792" y2="336.8154" gradientTransform="matrix(0.9397 -0.342 0.342 0.9397 -119.4899 -295.3305)">
	<stop  offset="0" style="stop-color:#A6694A"/>
	<stop  offset="1" style="stop-color:#4F2A1E"/>
	<a:midPointStop  offset="0" style="stop-color:#A6694A"/>
	<a:midPointStop  offset="0.5" style="stop-color:#A6694A"/>
	<a:midPointStop  offset="1" style="stop-color:#4F2A1E"/>
</linearGradient>
<path id="Path_2678_" fill="url(#Path_1_)" d="M18.539,13.717c0.393,1.082,1.648,0.625,1.254-0.457
	C19.428,12.254,18.172,12.711,18.539,13.717z"/>
<path id="Path_2677_" fill="#1A1626" d="M18.652,13.62c0.197,0.543,0.822,0.314,0.625-0.227
	C19.094,12.889,18.469,13.116,18.652,13.62z"/>
<path id="Path_2676_" fill="#AB968C" d="M18.959,13.26c0.082,0.227,0.447,0.094,0.365-0.131
	C19.246,12.917,18.883,13.049,18.959,13.26z"/>
<path fill="#302116" d="M20.631,12.848c-0.582-0.553-2.443-0.434-2.156,0.496C18.488,12.645,19.857,12.528,20.631,12.848z"/>
<path fill="#99A8AE" d="M50,38.998c-6.076,0-11,4.924-11,11s4.924,11,11,11c6.074,0,11-4.924,11-11S56.074,38.998,50,38.998z
	 M50,58.998c-4.971,0-9-4.029-9-9s4.029-9,9-9s9,4.029,9,9S54.971,58.998,50,58.998z"/>
<path fill="#99A8AE" d="M14,38.998c-6.076,0-11,4.924-11,11s4.924,11,11,11c6.074,0,11-4.924,11-11S20.074,38.998,14,38.998z
	 M14,58.998c-4.971,0-9-4.029-9-9s4.029-9,9-9c4.973,0,9,4.029,9,9S18.973,58.998,14,58.998z"/>
<path fill="#302C3B" d="M14,37.998c-6.627,0-12,5.373-12,12c0,6.629,5.373,12,12,12s12-5.371,12-12
	C26,43.373,20.627,37.998,14,37.998z M14,60C8.479,60,4,55.521,4,49.998c0-5.521,4.479-10,10-10c5.523,0,10,4.479,10,10
	C24,55.523,19.523,60,14,60z"/>
<path fill="#302C3B" d="M50,37.998c-6.627,0-12,5.373-12,12c0,6.629,5.373,12,12,12s12-5.371,12-12
	C62,43.373,56.627,37.998,50,37.998z M50,60c-5.521,0-10-4.479-10-10.002c0-5.521,4.479-10,10-10c5.523,0,10,4.479,10,10
	C60,55.523,55.523,60,50,60z"/>
<path fill="#614A36" d="M28.156,31.734c-1.715,3.545,2.363,3.545,6.377,10.271l1.934-2.93c-2.637-2.76-1.303-3.396-3.064-6.717
	L28.156,31.734z"/>
<path fill="#ED6A00" d="M39.654,32.42L37,26.999c-2.615,1.5-7.146,2.342-8.844,4.736c0,0,1.582,1.613,6.217,3.141
	C36.322,34.1,39.654,32.42,39.654,32.42z"/>
<path fill="#302C3B" d="M21,27.999c-0.717-0.336-3-1-3-1v2l1.883,0.471L19,32.998l2,1l1-4C22,29.998,23.566,29.202,21,27.999z"/>
<path fill="#0FB4D4" d="M50.66,49.232L40.521,37.191l1.373-2.744c0.246-0.494-1.543-1.389-1.789-0.896l-1.316,2.635l-19.494-4.367
	l-6.236,17.85c-0.396,1.121,1.523,1.684,1.887,0.666l5.385-15.26l11.877,15.533c0.008,0.012,0.023,0.016,0.031,0.023
	c0.086,0.105,0.617,0.367,0.764,0.367h17c0.006,0,0.014,0,0.014,0C50.572,50.998,50.881,49.414,50.66,49.232z M37.867,38.029
	L32.82,48.121L22.465,34.576L37.867,38.029z M34.617,48.998l4.932-9.857l8.301,9.857H34.617z"/>
<path fill="#302C3B" d="M16,49.998c0,2.668-4,2.668-4,0C12,47.332,16,47.332,16,49.998z"/>
<polygon fill="#BEC3CF" points="50,47.998 32.998,46.998 32.998,45.998 50,46.998 "/>
<polygon fill="#BEC3CF" points="50,52.998 33,53.998 33,52.998 50,51.998 "/>
<path fill="#302C3B" d="M53,49.998c0,4-6,4-6,0S53,45.998,53,49.998z"/>
<path fill="#302C3B" d="M32.998,53.998c-5.33,0-5.33-8,0-8C38.334,45.998,38.334,53.998,32.998,53.998z"/>
<polygon fill="#6E8189" points="31,56.998 29,56.998 32,49.998 34,49.998 "/>
<path fill="#99A8AE" d="M34,50.002c0,1.33-2,1.33-2,0C32,48.664,34,48.664,34,50.002z"/>
<path fill="#302C3B" d="M45,34.998c-2,1-4-1-8-1c0,0,0-2,2-2c4.123,0,5.434-0.783,7,0C48,32.998,46.264,34.367,45,34.998z"/>
<path fill="#614A36" d="M31.984,39.443c-0.514,2.102,2.672,6.994,1.186,14.158h4.221c-1.107-7.164,0.672-8.639,0.172-13.967
	C37.563,39.635,32.611,36.891,31.984,39.443z"/>
<path fill="#FF7A00" d="M46.236,25.461c-4.908-10.568-18.127-13.109-19.691-9.086C25.492,19.088,32.762,21.745,37,26.999
	c-1.633,3-4.764,8.822-5.016,12.445c0,0,1.963,0.043,5.67,1.477C40.188,33.361,49.064,31.555,46.236,25.461z"/>
<path fill="#FFA959" d="M36.273,40.42l-1.998-0.586c0.945-4.285,3.307-6.797,5.156-8.842c1.629-1.798,2.537-2.88,2.303-4.207
	c-0.564-3.188-4.67-6.254-11.561-8.637l0.654-1.891c5.381,1.861,11.982,5.137,12.875,10.178c0.418,2.355-1.068,3.998-2.787,5.898
	C39.137,34.301,37.104,36.656,36.273,40.42z"/>
<path fill="#614A36" d="M27.125,23.424c0.156,0.887,0.322,1.34,0.375,1.875c-3.188,1.656-3.996,2.465-6.98,0.699
	c-2-1.182-5.875-1.273-5.053,2.797c0.355,1.748,2.561-2.938,3.402-1.313c1.332,2.562,1.801,2.018,3.693,1.918
	c4.49-0.236,9.119-0.4,8.945-2.123c-0.105-1.043,0.053-3.301,0.053-3.301L27.125,23.424z"/>
<path fill="#ED6A00" d="M31.453,17.665c-0.531-3.928-5.32-3.313-5.084-0.086c0.135,1.857,0.756,5.846,0.756,5.846
	c2.416,0.74,4.436,0.553,4.436,0.553C31.697,21.868,31.723,19.649,31.453,17.665z"/>
<path fill="#302C3B" d="M20,28.004c0,2.658-4,2.658-4,0C16,25.333,20,25.333,20,28.004z"/>
<path fill="#99A8AE" d="M19,28c0,1.33-2,1.33-2,0C17,26.665,19,26.665,19,28z"/>
<path fill="#99A8AE" d="M27,56.998c0,0-0.416,1.725,0.002,2c0.488,0.324,2.32-0.697,2.33,0.004h0.004
	c0.01-0.701,2.318-0.701,2.328,0h0.004c0.01-0.701,1.842,0.32,2.33-0.004c0.418-0.275,0.002-2,0.002-2H27z"/>
<path fill="#302C3B" d="M31,57.717c0,0.668-1,0.668-1,0C30,57.051,31,57.051,31,57.717z"/>
<path fill="#302C3B" d="M29.352,57.717c0,0.334-2,0.334-2,0C27.352,57.385,29.352,57.385,29.352,57.717z"/>
<path fill="#302C3B" d="M33.648,57.717c0,0.334-2,0.334-2,0C31.648,57.385,33.648,57.385,33.648,57.717z"/>
<path fill="#302C3B" d="M28.285,8.354c0,0-1.152-0.264-1.119,0.016c0.133,1.164-0.561,3.971-0.561,3.971s-3.102-1.477-4.484-4.502
	c-0.117-0.258-0.891,0.381-0.92,0.662c-0.17,1.707,5.004,5.129,5.004,5.129s-1.197,4.592-2.34,6.033
	C26.994,20.112,28.285,8.354,28.285,8.354z"/>
<path fill="#E81C27" d="M37.285,52.82c-1.072,1.035-3.385,0.832-4.049,0.309c-2.236,0.82-2.586,1.918-5.596,2.217
	c-1.25,0.125-0.867,1.535-0.641,1.652c1.15,0.592,5.225-0.424,9.287,0.293C38.207,57.629,37.572,52.791,37.285,52.82z"/>
<path fill="#302C3B" d="M32.742,53.328c-0.742,0.17-1.094,0.563-1.094,0.563C33.063,55.059,34.184,54.736,32.742,53.328z"/>
<path fill="#302C3B" d="M31.52,53.998c-0.742,0.172-1.094,0.563-1.094,0.563C31.596,55.529,32.734,55.186,31.52,53.998z"/>
<path fill="#302C3B" d="M30.324,54.645c-0.742,0.17-0.764,0.314-0.764,0.314C30.428,55.676,31.258,55.557,30.324,54.645z"/>
<path fill-rule="evenodd" clip-rule="evenodd" fill="#E81C27" d="M30.846,6.233c0.227,0.152,1.32,0.725,1.357,0.99
	c0.018,0.129-0.102,0.334-0.098,0.486c0.01,0.246,1.193,1.67,1.006,1.854c-1.57,1.539,0.494,1.057-0.477,1.826
	c-0.736,0.584-1.555,1.141-2.256,1.57c-0.887,0.543-1.787-0.129-6.088-2.152c-0.084-0.041-1.162,0.49-1.629,0.463
	c-0.33-0.02-1.771-0.48-2.113-0.547c-1.004-0.195-5.283-0.424-5.816-0.865c-0.658-4.9,7.475-12.197,17.594-4.506
	C32.727,5.657,30.846,6.233,30.846,6.233z"/>
<path fill-rule="evenodd" clip-rule="evenodd" fill="#8A0404" d="M15.779,8.049c-0.281,0.398,3.303-3.588,9.664-4.047
	C23.664,2.278,17.611,4.264,15.779,8.049z"/>
<path fill-rule="evenodd" clip-rule="evenodd" fill="#8A0404" d="M31.096,6.383c0,0,1.082-0.416,1.275-0.891
	c-1.516-0.16-2.479-0.463-2.813,0.023L31.096,6.383z"/>
<path fill-rule="evenodd" clip-rule="evenodd" fill="#8A0404" d="M28.041,7.938c2.904,1.082,4.469,2.611,4.469,2.611
	s0.092-0.416,0.537-0.922c-0.734-1.289-2.645-2.842-3.023-2.854C29.461,6.754,27.639,7.79,28.041,7.938z"/>
<path fill-rule="evenodd" clip-rule="evenodd" fill="#8A0404" d="M16.865,8.469c-0.488,0.766,1.717,0.693,4.072,0.42
	c0.848-0.1,6.303-2.154,6.67-2.738c0.078-0.125-0.291-1.184-0.604-1.191C24.742,4.907,18.016,6.989,16.865,8.469z"/>
</svg>
