<?xml version="1.0" encoding="utf-8"?>
<!-- Generator: Adobe Illustrator 15.0.0, SVG Export Plug-In . SVG Version: 6.00 Build 0)  -->
<!DOCTYPE svg PUBLIC "-//W3C//DTD SVG 1.1//EN" "http://www.w3.org/Graphics/SVG/1.1/DTD/svg11.dtd" [
	<!ENTITY ns_flows "http://ns.adobe.com/Flows/1.0/">
	<!ENTITY ns_extend "http://ns.adobe.com/Extensibility/1.0/">
	<!ENTITY ns_ai "http://ns.adobe.com/AdobeIllustrator/10.0/">
	<!ENTITY ns_graphs "http://ns.adobe.com/Graphs/1.0/">
]>
<svg version="1.1" id="Layer_1" xmlns:x="&ns_extend;" xmlns:i="&ns_ai;" xmlns:graph="&ns_graphs;"
	 xmlns="http://www.w3.org/2000/svg" xmlns:xlink="http://www.w3.org/1999/xlink" xmlns:a="http://ns.adobe.com/AdobeSVGViewerExtensions/3.0/"
	 x="0px" y="0px" width="64px" height="64px" viewBox="0 0 64 64" enable-background="new 0 0 64 64" xml:space="preserve">
<path fill="#FAC150" d="M32.65,22.718c0,0-1.464,2.039-2.547,4.31c-1.667,1.646-4.398,5.336-4.874,5.901
	c-0.462,0.548-2.256,1.677-2.406,2.195c-0.634,2.187-0.867,2.336-0.51,3.633c0.27,0.984,0.548,0.234,0.508-0.313
	c-0.06-0.849,0.552-2.182,1.228-1.797c-0.927,1.285-0.308,2.179,0.004,1.676c0.804-1.297,1.542-1.879,1.529-2.941
	c-0.004-0.43,1.292-2.041,4.042-3.395c1.672-0.823,2.925-2.463,3.751-3.943c0.785-1.299,2.236-2.219,2.695-3.086
	C35.393,23.34,34.064,23.379,32.65,22.718z"/>
<path fill="#FAC150" d="M30.34,16.557c1.133-0.54,1.459,0.451,1.533,0.866c0.25,1.365,5.359-0.194,4.785-1.762
	c-0.5-1.363,0.168-2.992,0.168-2.992C36.07,12.237,33.307,7.359,30.34,16.557z"/>
<path fill="#FFCC66" d="M31.266,3.039c-3.443,0.55-4.707,3.009-4.152,5.907c0.125,0.655-0.295,1.776-1.128,2.496
	c-0.303,0.262-0.332,0.609-0.184,0.841c0.29,0.455,0.929,0.459,1.195,0.63c0.598,0.38,0,0.8,0.449,1.248
	c0.203,0.204,0.787-0.066,0.17,1.015c0.688,0.502-0.459,1.711,1.309,1.897c0.928,0.098,4.852-2.115,5.342-2.878
	c0.514-0.802,0.393-2.283,0.393-2.283c2.643-0.762,3.576-3.069,3.006-5.483C36.869,3.053,33.496,2.683,31.266,3.039z"/>
<path fill="#DB9D3A" d="M27.445,14.161c0.322,0.198,0.182,0.51,0.182,0.51c-0.156,0-0.195,0.514,0.035,0.514
	c0.807,0,1.547-0.692,1.789-1.111C28.189,14.011,26.803,13.44,27.445,14.161z"/>
<path fill="#FFFFFF" d="M27.445,14.161c0,0,0.123,0.441,0.182,0.51c0.252,0,1.076-0.182,1.582-0.516L27.445,14.161z"/>
<linearGradient id="SVGID_1_" gradientUnits="userSpaceOnUse" x1="26.9961" y1="6.7095" x2="36.6387" y2="6.7095">
	<stop  offset="0" style="stop-color:#473834"/>
	<stop  offset="0.0561" style="stop-color:#4B3B36"/>
	<stop  offset="0.6687" style="stop-color:#6D564D"/>
	<stop  offset="1" style="stop-color:#7A6056"/>
	<a:midPointStop  offset="0" style="stop-color:#473834"/>
	<a:midPointStop  offset="0.4303" style="stop-color:#473834"/>
	<a:midPointStop  offset="1" style="stop-color:#7A6056"/>
</linearGradient>
<path fill="url(#SVGID_1_)" d="M36.457,4.632c-2.447-3.683-8.943-1.453-9.402-0.553c-0.164,0.325,0.041,1.128,0.309,1.645
	c1.033,0,3.08-0.863,4.455-0.216c2.039,0.959-0.275,5.102,1.605,5.327C33.719,10.87,37.502,6.466,36.457,4.632z"/>
<linearGradient id="SVGID_2_" gradientUnits="userSpaceOnUse" x1="27.0547" y1="7.8296" x2="38.9531" y2="7.8296">
	<stop  offset="0" style="stop-color:#7A6056"/>
	<stop  offset="0.3119" style="stop-color:#775D54"/>
	<stop  offset="0.5686" style="stop-color:#6D554D"/>
	<stop  offset="0.8048" style="stop-color:#5B4842"/>
	<stop  offset="1" style="stop-color:#473834"/>
	<a:midPointStop  offset="0" style="stop-color:#7A6056"/>
	<a:midPointStop  offset="0.7455" style="stop-color:#7A6056"/>
	<a:midPointStop  offset="1" style="stop-color:#473834"/>
</linearGradient>
<path fill="url(#SVGID_2_)" d="M38.1,4.566C37.398,3.382,35.982,1.992,32.768,2c-2.902,0.006-5.254,1.179-5.713,2.079
	c1.066,0,4.305-1.359,5.996-0.095c2.633,1.968,0.338,4.641,0.959,6.321c0.971,2.63,2.545,3.354,2.545,3.354
	C38.574,12.199,39.912,7.63,38.1,4.566z"/>
<path fill="#DB9D3A" d="M25.809,12.287c0.238,0.634,1.763,0.771,2.251,0C27.256,12.868,25.67,11.918,25.809,12.287z"/>
<path fill="#FFCC66" d="M34.67,8.704c-1.285,0.267-1.686,3.169-0.723,3.799c0.135,0.089,0.838,0.167,1.211-0.544
	c0.205-0.394,0.943-0.794,1.047-1.565C36.336,9.404,35.947,8.44,34.67,8.704z"/>
<path id="Path_169_" fill="#DB9D3A" d="M34.738,9.243c-0.326,0.111-0.635,0.488-0.729,1.063c1.158-0.313,1.105,0.987,0.076,1.142
	c0.033,0.126,0.072,0.255,0.123,0.389c0.41-0.523,0.951-0.402,1.318-1.151C35.859,10.009,35.547,8.968,34.738,9.243z"/>
<path fill="#FFFFFF" d="M29.936,9.814c0.018,0.186-0.568,0.854-1.316,0.917c-0.426,0.037-0.578-0.293-0.674-0.648
	C27.854,8.671,29.516,9.173,29.936,9.814z"/>
<linearGradient id="Path_1_" gradientUnits="userSpaceOnUse" x1="28.5117" y1="10.6748" x2="28.5117" y2="9.187">
	<stop  offset="0" style="stop-color:#A6694A"/>
	<stop  offset="1" style="stop-color:#4F2A1E"/>
	<a:midPointStop  offset="0" style="stop-color:#A6694A"/>
	<a:midPointStop  offset="0.5" style="stop-color:#A6694A"/>
	<a:midPointStop  offset="1" style="stop-color:#4F2A1E"/>
</linearGradient>
<path id="Path_168_" fill="url(#Path_1_)" d="M27.916,9.904c0,1.028,1.191,1.028,1.191,0C29.107,8.948,27.916,8.948,27.916,9.904z"
	/>
<path id="Path_167_" fill="#1A1626" d="M28.041,9.858c0,0.514,0.594,0.514,0.594,0C28.635,9.379,28.041,9.379,28.041,9.858z"/>
<path id="Path_166_" fill="#AB968C" d="M28.408,9.649c0,0.215,0.346,0.215,0.346,0C28.754,9.448,28.408,9.448,28.408,9.649z"/>
<path fill="#DB9D3A" d="M29.936,9.814c-0.32-0.642-1.916-1.108-1.959-0.242C28.201,8.99,29.385,9.309,29.936,9.814z"/>
<path id="Path_165_" fill="#966F42" d="M30.242,8.354c-0.732-0.457-2.135-0.479-2.656-0.161c-0.113,0.062-0.039,0.494,0.055,0.453
	c0.729-0.339,1.902-0.347,2.582,0.029C30.314,8.723,30.352,8.417,30.242,8.354z"/>
<path fill="#6E8189" d="M16.379,55.635c0,0-0.598,0.072-0.293,0.34C19.965,59.367,25.034,62,25.034,62
	c0.293-0.113,0.289-0.443,0.289-0.443L16.379,55.635z"/>
<path fill="#99A8AE" d="M24.379,56.982c-4.373-1.709-7.33-2.521-8-1.348c4.912,3.92,8.943,5.922,8.943,5.922
	C27.42,59.691,26.213,58.066,24.379,56.982z"/>
<path fill="#1A1626" d="M19.696,55.396c0.387,1.219,0.861,1.662,1.217,1.143c0.334,0.682,0.809,0.527,0.984,0.199
	c0.447,0.566,0.934,0.156,0.555-0.793C22.221,55.428,19.592,55.068,19.696,55.396z"/>
<path fill="#6E8189" d="M40.086,61.557c0,0-0.234,0.307,0.088,0.443C44.25,61.695,48,54.586,48,54.586
	c0-0.283-0.264-0.453-0.264-0.453L40.086,61.557z"/>
<path fill="#99A8AE" d="M43.609,54.711c-3.217,4.313-3.801,5.809-3.523,6.846c3.916-0.408,7.65-7.424,7.65-7.424
	C45.764,50.883,44.178,53.949,43.609,54.711z"/>
<path fill="#1A1626" d="M40.943,58.541c1.266-0.021,1.832-0.352,1.449-0.846c0.748-0.125,0.746-0.629,0.49-0.896
	c0.672-0.266,0.432-0.855-0.576-0.764C41.746,56.109,40.602,58.547,40.943,58.541z"/>
<path fill="#1A1626" d="M37.455,31.766c-8.221-1.227-8.197,2.775-8.197,2.775c1.205,6.002,3.934,13.297,4.922,14.543
	c0.828,1.041,4.754,3.682,7.836,7.32c2.156-1.021,6.002-2.369,4.951-3.396c-3.998-3.91-7.846-7.383-7.846-7.383
	C36.389,41.207,36.244,35.92,37.455,31.766z"/>
<path fill="#302C3B" d="M37.455,31.766c0,0-5.223-2.568-7.162,2.238c-0.664,4.633-4.568,9.125-5.251,10.58
	c-0.746,1.59-1.354,6.998-3.338,10.943c2.234,1.801,4.307,6.086,4.727,4.73c1.865-6.021,4.058-13.422,4.058-13.422
	C36.352,38.709,39.748,39.146,37.455,31.766z"/>
<path fill="#3AB0A2" d="M37.676,32.206c0,0-3.967,0.166-8.418,2.416c-1.344-5.856-1.197-14.231,2.561-17.419
	c0.752,1.479,3.496-1.109,4.84-1.541C41.717,20.432,36.391,25.604,37.676,32.206z"/>
<path fill="#FAC150" d="M42.51,25.817c-0.178-0.502-1.191-2.333-2.213-4.131c-1.166,0.574-2.313,1.177-3.426,1.816
	c0.998,1.364,2.025,2.813,2.568,3.709c0.178,2.477,1.008,4.951,0.734,7.856c-0.125,1.258-0.971,0.501-1.674,3.141
	c-0.11,0.414,0.844,0.359,1.154-0.592c0.967,0.398-1.076,3.639,0.393,3.045c0.531,0.156,1.891-0.422,2.453-2.422
	c0.091-0.323,0.141-2.747,0.076-3.07C42.33,33.923,42.83,26.702,42.51,25.817z"/>
<path fill="#DB9D3A" d="M40.781,38.865c0,0-0.248,1.307-0.734,1.797C40.703,40.256,40.781,38.865,40.781,38.865z"/>
<path fill="#DB9D3A" d="M41.594,38.471c0,0-0.326,1.592-0.813,2.082C41.438,40.146,41.594,38.471,41.594,38.471z"/>
<path fill="#DB9D3A" d="M42.116,38.381c0,0-0.171,1.217-0.657,1.707C42.115,39.682,42.116,38.381,42.116,38.381z"/>
<path fill="#25A898" d="M41.365,23.07c-0.809-1.517-1.949-3.49-3.314-5.621c-1.473-2.296-4.941-0.164-3.75,2.302
	c0.646,1.341,1.678,3.123,3.318,5.51C38.783,24.432,40.043,23.695,41.365,23.07z"/>
</svg>
