<?xml version="1.0" encoding="utf-8"?>
<!-- Generator: Adobe Illustrator 15.0.0, SVG Export Plug-In . SVG Version: 6.00 Build 0)  -->
<!DOCTYPE svg PUBLIC "-//W3C//DTD SVG 1.1//EN" "http://www.w3.org/Graphics/SVG/1.1/DTD/svg11.dtd" [
	<!ENTITY ns_flows "http://ns.adobe.com/Flows/1.0/">
	<!ENTITY ns_extend "http://ns.adobe.com/Extensibility/1.0/">
	<!ENTITY ns_ai "http://ns.adobe.com/AdobeIllustrator/10.0/">
	<!ENTITY ns_graphs "http://ns.adobe.com/Graphs/1.0/">
]>
<svg version="1.1" id="Layer_1" xmlns:x="&ns_extend;" xmlns:i="&ns_ai;" xmlns:graph="&ns_graphs;"
	 xmlns="http://www.w3.org/2000/svg" xmlns:xlink="http://www.w3.org/1999/xlink" xmlns:a="http://ns.adobe.com/AdobeSVGViewerExtensions/3.0/"
	 x="0px" y="0px" width="64px" height="64px" viewBox="0 0 64 64" enable-background="new 0 0 64 64" xml:space="preserve">
<linearGradient id="SVGID_1_" gradientUnits="userSpaceOnUse" x1="14" y1="49" x2="14" y2="36">
	<stop  offset="0" style="stop-color:#E6EBED"/>
	<stop  offset="1" style="stop-color:#C6CFD4"/>
	<a:midPointStop  offset="0" style="stop-color:#E6EBED"/>
	<a:midPointStop  offset="0.5152" style="stop-color:#E6EBED"/>
	<a:midPointStop  offset="1" style="stop-color:#C6CFD4"/>
</linearGradient>
<rect x="4" y="36" fill="url(#SVGID_1_)" width="20" height="13"/>
<rect x="4" y="54" fill="#302C3B" width="4" height="8"/>
<rect x="56" y="54" fill="#302C3B" width="4" height="8"/>
<linearGradient id="SVGID_2_" gradientUnits="userSpaceOnUse" x1="32.0005" y1="58" x2="32.0005" y2="16.0005">
	<stop  offset="0" style="stop-color:#5B666E"/>
	<stop  offset="1" style="stop-color:#302C3B"/>
	<a:midPointStop  offset="0" style="stop-color:#5B666E"/>
	<a:midPointStop  offset="0.497" style="stop-color:#5B666E"/>
	<a:midPointStop  offset="1" style="stop-color:#302C3B"/>
</linearGradient>
<path fill="url(#SVGID_2_)" d="M61,48H6V17c0-0.551-0.449-1-1-1H3c-0.549,0-1,0.449-1,1v40c0,0.549,0.451,1,1,1h58
	c0.549,0,1-0.451,1-1v-8C62,48.449,61.549,48,61,48z"/>
<linearGradient id="SVGID_3_" gradientUnits="userSpaceOnUse" x1="41.5205" y1="48" x2="41.5205" y2="36">
	<stop  offset="0" style="stop-color:#CF0000"/>
	<stop  offset="1" style="stop-color:#FF000E"/>
	<a:midPointStop  offset="0" style="stop-color:#CF0000"/>
	<a:midPointStop  offset="0.5091" style="stop-color:#CF0000"/>
	<a:midPointStop  offset="1" style="stop-color:#FF000E"/>
</linearGradient>
<path fill="url(#SVGID_3_)" d="M59,36c-2,0-37,0-37,0v12h39C61,48,61.5,36,59,36z"/>
<path fill="#F46C60" d="M29,36c0-1.689-8-2.053-8,0c0,8.982,0,12,0,12h8C29,48,29,39.106,29,36z"/>
<path fill="#E6EBEF" d="M23.51,36.341c-1.627,4.826-18.512,2.084-19.172-6.65c-0.273-3.61,3.66-4.766,8.916,0.984
	C16.213,33.912,24.998,31.925,23.51,36.341z"/>
</svg>
