<?xml version="1.0" encoding="utf-8"?>
<!-- Generator: Adobe Illustrator 15.0.0, SVG Export Plug-In . SVG Version: 6.00 Build 0)  -->
<!DOCTYPE svg PUBLIC "-//W3C//DTD SVG 1.1//EN" "http://www.w3.org/Graphics/SVG/1.1/DTD/svg11.dtd" [
	<!ENTITY ns_flows "http://ns.adobe.com/Flows/1.0/">
	<!ENTITY ns_extend "http://ns.adobe.com/Extensibility/1.0/">
	<!ENTITY ns_ai "http://ns.adobe.com/AdobeIllustrator/10.0/">
	<!ENTITY ns_graphs "http://ns.adobe.com/Graphs/1.0/">
]>
<svg version="1.1" id="Layer_1" xmlns:x="&ns_extend;" xmlns:i="&ns_ai;" xmlns:graph="&ns_graphs;"
	 xmlns="http://www.w3.org/2000/svg" xmlns:xlink="http://www.w3.org/1999/xlink" xmlns:a="http://ns.adobe.com/AdobeSVGViewerExtensions/3.0/"
	 x="0px" y="0px" width="64px" height="64px" viewBox="0 0 64 64" enable-background="new 0 0 64 64" xml:space="preserve">
<rect x="2" y="60" fill="#6E8189" width="60" height="2"/>
<rect x="34.739" y="35.131" transform="matrix(0.9963 -0.0863 0.0863 0.9963 -2.9872 3.1619)" fill="#6E8189" width="0.702" height="2.023"/>
<rect x="34.234" y="35.279" transform="matrix(0.7664 0.6424 -0.6424 0.7664 31.1734 -13.7207)" fill="#6E8189" width="0.433" height="1.438"/>
<rect x="34.25" y="36.315" transform="matrix(-0.64 0.7684 -0.7684 -0.64 84.9816 34.2502)" fill="#6E8189" width="0.433" height="1.438"/>
<circle fill="#302C3B" cx="35.222" cy="37.925" r="1.2"/>
<circle fill="#99A8AE" cx="35.221" cy="37.926" r="0.6"/>
<circle fill="#99A8AE" cx="33.957" cy="36.577" r="0.376"/>
<path fill="#CFD8DD" d="M14.824,16l2.177,11.423c0,0,11.542,4.008,12.774,0.017c-4.471-1.926-7.327-2.204-11.696-10.518
	C17.658,16.121,14.824,16,14.824,16z"/>
<linearGradient id="SVGID_1_" gradientUnits="userSpaceOnUse" x1="2.5225" y1="112.917" x2="50.3145" y2="112.917" gradientTransform="matrix(0.9962 0.0871 -0.0871 0.9962 21.8286 -83.2628)">
	<stop  offset="0.297" style="stop-color:#E6EBEF"/>
	<stop  offset="0.5884" style="stop-color:#E1E7EB"/>
	<stop  offset="0.9319" style="stop-color:#D3DBE0"/>
	<stop  offset="1" style="stop-color:#CFD8DD"/>
	<a:midPointStop  offset="0.297" style="stop-color:#E6EBEF"/>
	<a:midPointStop  offset="0.6724" style="stop-color:#E6EBEF"/>
	<a:midPointStop  offset="1" style="stop-color:#CFD8DD"/>
</linearGradient>
<path fill="url(#SVGID_1_)" d="M15.961,26.896c-1.854,0.311-1.359,1.175-0.738,1.596c4.369,2.957,12.998,5.816,18.629,6.31
	c2.695,0.236,20.214,1.77,22.357,1.956c0.717,0.063,4.125-0.115,4.523-0.344c1.347-0.765,1.605-1.569,0.846-2.421
	c-0.641-0.718-2.797-2.525-3.244-2.891c-0.449-0.364-2.758-1.217-4.482-1.477C49.517,28.973,22.172,25.854,15.961,26.896z"/>
<path fill="#302C3B" d="M58.811,32.99c0.803,0.575,1.217,0.089,1.768,0.04c-0.268-0.244-0.559-0.498-0.84-0.741
	c-0.227-0.019-0.563-0.049-0.816-0.07C58.765,32.203,58.676,32.893,58.811,32.99z"/>
<path fill="#CFD8DD" d="M14.821,23.056L12,22.809l5.48,5.719c0,0,3.846,0.336,5.07,0.443c0.364,0.032,0.469-1.229,0.122-1.397
	C19.614,26.096,14.821,23.056,14.821,23.056z"/>
<path fill="#018BC9" d="M14.821,23.056L12,22.809l2.799,0.457l7.752,5.705c0.364,0.032,0.469-1.229,0.122-1.397
	C19.614,26.096,14.821,23.056,14.821,23.056z"/>
<path fill="#302C3B" d="M54.047,33.051c-0.482-0.042-0.379-1.249,0.104-1.208C54.636,31.886,54.53,33.094,54.047,33.051z"/>
<path fill="#302C3B" d="M52.318,32.899c-0.484-0.041-0.377-1.25,0.104-1.206C52.904,31.735,52.799,32.943,52.318,32.899z"/>
<path fill="#302C3B" d="M50.589,32.749c-0.483-0.043-0.378-1.251,0.106-1.208C51.175,31.584,51.071,32.79,50.589,32.749z"/>
<path fill="#302C3B" d="M48.857,32.598c-0.481-0.043-0.375-1.25,0.106-1.208C49.447,31.432,49.342,32.639,48.857,32.598z"/>
<path fill="#302C3B" d="M36.084,31.48c-0.48-0.042-0.375-1.25,0.105-1.208C36.673,30.314,36.567,31.522,36.084,31.48z"/>
<path fill="#302C3B" d="M34.357,31.329c-0.485-0.043-0.379-1.25,0.105-1.208C34.942,30.163,34.838,31.371,34.357,31.329z"/>
<path fill="#302C3B" d="M32.626,31.177c-0.481-0.042-0.376-1.249,0.106-1.208C33.215,30.012,33.108,31.221,32.626,31.177z"/>
<path fill="#302C3B" d="M30.898,31.025c-0.483-0.042-0.377-1.251,0.105-1.207C31.484,29.86,31.378,31.068,30.898,31.025z"/>
<path fill="#302C3B" d="M29.168,30.875c-0.483-0.042-0.379-1.251,0.105-1.208C29.756,29.71,29.65,30.916,29.168,30.875z"/>
<path fill="#CFD8DD" d="M49.293,32.452c-4.691-2.63-17.893-9.607-17.893-9.607c-1.824-2.457-2.994-4.08-3.736-3.786
	c-0.209,0.563,1.065,4.58,2.105,6.01c2.609,3.587,12.604,9.696,12.604,9.696s4.254,0.372,6.828,0.599
	C50.146,35.445,50.189,32.956,49.293,32.452z"/>
<path fill="#018BC9" d="M31.378,23.106c0.739,1.075,13.546,8.137,18.571,10.95c0.082-0.93-0.316-1.415-0.656-1.604
	c-4.691-2.63-17.104-9.081-17.639-9.847c-2.801-4.023-3.893-3.805-3.99-3.547C27.664,19.059,28.631,19.11,31.378,23.106z"/>
<linearGradient id="SVGID_2_" gradientUnits="userSpaceOnUse" x1="33.9092" y1="117.6377" x2="33.9092" y2="114.415" gradientTransform="matrix(0.9962 0.0871 -0.0871 0.9962 21.8286 -83.2628)">
	<stop  offset="0" style="stop-color:#CFD8DD"/>
	<stop  offset="0.0587" style="stop-color:#D3DBE0"/>
	<stop  offset="0.3548" style="stop-color:#E1E7EB"/>
	<stop  offset="0.6061" style="stop-color:#E6EBEF"/>
	<a:midPointStop  offset="0" style="stop-color:#CFD8DD"/>
	<a:midPointStop  offset="0.3276" style="stop-color:#CFD8DD"/>
	<a:midPointStop  offset="0.6061" style="stop-color:#E6EBEF"/>
</linearGradient>
<path fill="url(#SVGID_2_)" d="M48.098,34.121c0,0-3.19-1.074-5,0.097l-0.145,1.667c1.579,1.477,4.908,0.987,4.908,0.987
	L48.098,34.121z"/>
<polygon fill="#99A8AE" points="48.049,36.886 48.285,34.135 48.098,34.113 47.861,36.87 "/>
<rect x="42.096" y="34.95" transform="matrix(-0.0864 0.9963 -0.9963 -0.0864 81.5535 -4.7017)" fill="#99A8AE" width="1.673" height="0.186"/>
<linearGradient id="SVGID_3_" gradientUnits="userSpaceOnUse" x1="29.2778" y1="113.8984" x2="29.2778" y2="110.6768" gradientTransform="matrix(0.9962 0.0871 -0.0871 0.9962 21.8286 -83.2628)">
	<stop  offset="0" style="stop-color:#CFD8DD"/>
	<stop  offset="0.0587" style="stop-color:#D3DBE0"/>
	<stop  offset="0.3548" style="stop-color:#E1E7EB"/>
	<stop  offset="0.6061" style="stop-color:#E6EBEF"/>
	<a:midPointStop  offset="0" style="stop-color:#CFD8DD"/>
	<a:midPointStop  offset="0.3276" style="stop-color:#CFD8DD"/>
	<a:midPointStop  offset="0.6061" style="stop-color:#E6EBEF"/>
</linearGradient>
<path fill="url(#SVGID_3_)" d="M43.811,29.992c0,0-3.193-1.072-5,0.097l-0.146,1.669c1.578,1.475,4.908,0.987,4.908,0.987
	L43.811,29.992z"/>
<rect x="42.405" y="31.28" transform="matrix(-0.086 0.9963 -0.9963 -0.086 78.8059 -9.5523)" fill="#99A8AE" width="2.76" height="0.186"/>
<rect x="37.806" y="30.821" transform="matrix(-0.0874 0.9962 -0.9962 -0.0874 72.8195 -4.878)" fill="#99A8AE" width="1.675" height="0.187"/>
<rect x="32.264" y="35.003" transform="matrix(0.9962 -0.0877 0.0877 0.9962 -3.0311 2.9973)" fill="#6E8189" width="0.702" height="2.023"/>
<rect x="31.759" y="35.151" transform="matrix(0.7653 0.6437 -0.6437 0.7653 30.5959 -12.1633)" fill="#6E8189" width="0.434" height="1.437"/>
<rect x="31.775" y="36.187" transform="matrix(-0.6413 0.7673 -0.7673 -0.6413 80.8262 36.0255)" fill="#6E8189" width="0.434" height="1.437"/>
<circle fill="#302C3B" cx="32.748" cy="37.797" r="1.2"/>
<circle fill="#99A8AE" cx="32.748" cy="37.797" r="0.6"/>
<circle fill="#99A8AE" cx="31.483" cy="36.448" r="0.376"/>
<rect x="51.658" y="36.478" transform="matrix(0.9962 -0.0877 0.0877 0.9962 -3.0858 4.7029)" fill="#6E8189" width="0.702" height="2.023"/>
<rect x="51.153" y="36.626" transform="matrix(0.7653 0.6437 -0.6437 0.7653 36.098 -24.3014)" fill="#6E8189" width="0.434" height="1.438"/>
<rect x="51.169" y="37.662" transform="matrix(-0.6413 0.7673 -0.7673 -0.6413 113.7889 23.5667)" fill="#6E8189" width="0.434" height="1.438"/>
<circle fill="#302C3B" cx="52.141" cy="39.273" r="1.2"/>
<circle fill="#99A8AE" cx="52.141" cy="39.273" r="0.6"/>
<circle fill="#99A8AE" cx="50.876" cy="37.924" r="0.375"/>
<rect x="50.288" y="36.021" transform="matrix(0.9962 0.0874 -0.0874 0.9962 3.4065 -4.3826)" fill="#CFD8DD" width="2.939" height="1.387"/>
<rect x="31.682" y="34.545" transform="matrix(0.9962 0.0872 -0.0872 0.9962 3.2018 -2.8141)" fill="#CFD8DD" width="4.255" height="1.387"/>
<path fill="#E6EBEF" d="M2.018,31.771c-0.726-0.248,20.845,3.422,20.845,3.422S11.756,35.095,2.018,31.771z"/>
<path fill="#E6EBEF" d="M2.014,25.67c-0.555-0.189,15.912,2.612,15.912,2.612S9.447,28.208,2.014,25.67z"/>
<path fill="#E6EBEF" d="M5.243,16.685c-0.438-0.15,12.583,2.065,12.583,2.065S11.121,18.691,5.243,16.685z"/>
<path fill="#E6EBEF" d="M5.729,22.214c-0.332-0.113,9.502,1.56,9.502,1.56S10.168,23.729,5.729,22.214z"/>
<path fill="#E6EBEF" d="M15.244,20.634c-0.555-0.189,15.912,2.612,15.912,2.612S22.678,23.172,15.244,20.634z"/>
</svg>
