<?xml version="1.0" encoding="utf-8"?>
<!-- Generator: Adobe Illustrator 15.0.0, SVG Export Plug-In . SVG Version: 6.00 Build 0)  -->
<!DOCTYPE svg PUBLIC "-//W3C//DTD SVG 1.1//EN" "http://www.w3.org/Graphics/SVG/1.1/DTD/svg11.dtd">
<svg version="1.1" id="Layer_1" xmlns="http://www.w3.org/2000/svg" xmlns:xlink="http://www.w3.org/1999/xlink" x="0px" y="0px"
	 width="64px" height="64px" viewBox="0 0 64 64" enable-background="new 0 0 64 64" xml:space="preserve">
<path fill="#6E8189" d="M53.455,30.104c-11.746,8.135,0.457,2.458,3.516,4.854C59.01,31.369,54.391,32.275,53.455,30.104z"/>
<path fill="#BEC3CF" d="M59.229,37.176l1.404-6.409c-0.42-0.381-3.645-0.83-4.371-0.64c-2.313,0.608-2.863,4.229-1.834,5.848
	C54.838,36.627,58.225,37.551,59.229,37.176z"/>
<path fill="#CFD8DD" d="M59.355,37.133c3.373-1.193,3.082-7.355-0.154-6.504C55.959,31.479,56.184,38.258,59.355,37.133z"/>
<path fill="#AAA8B0" d="M59.141,30.325c0,0-1.336-0.243-2.248-0.242c-2.576,0.635-3.219,3.95-2.049,6.226
	c0.971,0.527,2.232,0.764,2.232,0.764C55.268,35.311,56.135,30.083,59.141,30.325z"/>
<path fill="#BEC3CF" d="M59.906,36.035c2.178-0.77,1.99-4.748-0.098-4.199C57.717,32.385,57.861,36.76,59.906,36.035z"/>
<path fill="#302C3B" d="M59.629,34.961c1.186-0.418,1.084-2.583-0.055-2.283C58.438,32.976,58.518,35.355,59.629,34.961z"/>
<path fill="#6E8189" d="M31.522,52.705c-0.229,1.756,2.582,2.166,0.012,5.205C26.7,56.723,23.11,55.902,31.522,52.705z"/>
<path fill="#BEC3CF" d="M36.057,61.9l1.621-7.398c-0.484-0.439-4.207-0.959-5.044-0.738c-2.668,0.701-3.305,4.881-2.117,6.75
	C30.991,61.266,34.898,62.334,36.057,61.9z"/>
<path fill="#CFD8DD" d="M36.205,61.852c3.893-1.379,3.557-8.492-0.18-7.508C32.284,55.324,32.543,63.148,36.205,61.852z"/>
<path fill="#AAA8B0" d="M35.957,53.992c0,0-1.545-0.281-2.596-0.279c-2.974,0.732-3.714,4.561-2.365,7.186
	c1.119,0.609,2.576,0.883,2.576,0.883C31.487,59.746,32.487,53.713,35.957,53.992z"/>
<path fill="#BEC3CF" d="M36.84,60.584c2.514-0.889,2.297-5.48-0.113-4.848C34.313,56.371,34.479,61.42,36.84,60.584z"/>
<path fill="#302C3B" d="M36.52,59.344c1.369-0.482,1.252-2.98-0.063-2.635C35.143,57.053,35.236,59.799,36.52,59.344z"/>
<path fill="#C4926E" d="M55.969,16.067c4.221,0.271,8.318,5.505,4.537,10.915c-0.709,1.019-2.895,1.702-4.459,3.178
	c-21.73,20.463-22.08,20.248-26.296,26.016c-3.383,4.625-21.275,8.029-26.525,4.104c-1.463-1.096-1.561-2.154-0.342-3.023
	C17.67,55.271,46.48,29.354,55.969,16.067z"/>
<path fill="#302C3B" d="M55.488,16.021c-6.195-0.398-11.74,5.129-14.801,8.843c-1.24,1.508-2.469,1.227-6.611,4.691
	c-5.082,4.248-12.501,10.254-18.404,15.473c-3.998,3.531-5.029,5.777-7.094,7.252c-2.225,1.588-8.592,4.768-5.945,6.75
	c5.252,3.928,22.969,1.141,26.346-3.488c4.214-5.764,4.568-5.551,26.296-26.013c1.564-1.476,3.75-2.159,4.463-3.176
	C62.799,21.965,60.908,16.369,55.488,16.021z"/>
</svg>
