<?xml version="1.0" encoding="utf-8"?>
<!-- Generator: Adobe Illustrator 15.0.0, SVG Export Plug-In . SVG Version: 6.00 Build 0)  -->
<!DOCTYPE svg PUBLIC "-//W3C//DTD SVG 1.1//EN" "http://www.w3.org/Graphics/SVG/1.1/DTD/svg11.dtd" [
	<!ENTITY ns_flows "http://ns.adobe.com/Flows/1.0/">
	<!ENTITY ns_extend "http://ns.adobe.com/Extensibility/1.0/">
	<!ENTITY ns_ai "http://ns.adobe.com/AdobeIllustrator/10.0/">
	<!ENTITY ns_graphs "http://ns.adobe.com/Graphs/1.0/">
]>
<svg version="1.1" id="Layer_1" xmlns:x="&ns_extend;" xmlns:i="&ns_ai;" xmlns:graph="&ns_graphs;"
	 xmlns="http://www.w3.org/2000/svg" xmlns:xlink="http://www.w3.org/1999/xlink" xmlns:a="http://ns.adobe.com/AdobeSVGViewerExtensions/3.0/"
	 x="0px" y="0px" width="64px" height="64px" viewBox="0 0 64 64" enable-background="new 0 0 64 64" xml:space="preserve">
<linearGradient id="SVGID_1_" gradientUnits="userSpaceOnUse" x1="2.7524" y1="32" x2="61.2559" y2="32">
	<stop  offset="0.5455" style="stop-color:#FFCC66"/>
	<stop  offset="0.7454" style="stop-color:#FECA63"/>
	<stop  offset="0.8691" style="stop-color:#F9C45B"/>
	<stop  offset="0.9718" style="stop-color:#F0B94C"/>
	<stop  offset="1" style="stop-color:#EDB547"/>
	<a:midPointStop  offset="0.5455" style="stop-color:#FFCC66"/>
	<a:midPointStop  offset="0.7955" style="stop-color:#FFCC66"/>
	<a:midPointStop  offset="1" style="stop-color:#EDB547"/>
</linearGradient>
<path fill="url(#SVGID_1_)" d="M60.11,52.791c-1.321,8.885-22.913,7.998-25.769,0.914C29.447,41.541,18.677,30.473,9.586,32.561
	c-11.281,2.59-1.688-14.55,14.469-7.189c0,0-0.716-2.992,0.066-9.563c-4.178,0-4.824,0.267-4.824,0.267
	c-2.175,2.533-11.19,6.148-14.555,5.561c-2.611-0.457-2.714-4.932,0.053-6.856c2.767-1.923,11.283-6.808,13.111-7.235
	c6.895-1.619,13.178-3.382,16.431-2.581c7.389,1.819,19.809,7.942,22.983,12.229C60.709,21.768,62.614,35.954,60.11,52.791z"/>
<path fill="#D9A640" d="M57.925,16.734C54.69,12.365,42.141,6.098,34.516,4.221C33.912,4.072,33.223,4,32.406,4
	c-3.007,0-7.119,0.989-11.879,2.134c-0.915,0.22-1.848,0.444-2.791,0.666C15.728,7.271,7.098,12.253,4.369,14.15
	c-2.077,1.444-2.63,3.926-2.264,5.619c0.307,1.419,1.244,2.398,2.509,2.621c0.284,0.049,0.605,0.074,0.955,0.074
	c3.874,0,11.721-3.191,14.125-5.696c0.333-0.057,1.277-0.168,3.583-0.191l0.845-1.532c-3.903,0-4.873,0.226-5.108,0.323
	l-0.166,0.069l-0.119,0.137c-1.894,2.206-9.642,5.362-13.159,5.362c-0.265,0-0.499-0.018-0.697-0.053
	c-0.888-0.154-1.19-0.969-1.292-1.44c-0.271-1.249,0.208-3.035,1.644-4.034c2.799-1.946,11.164-6.726,12.854-7.121
	c0.946-0.222,1.881-0.447,2.799-0.668c4.475-1.076,8.7-2.092,11.53-2.092c0.685,0,1.275,0.06,1.754,0.178
	c7.322,1.802,19.576,7.918,22.558,11.944c3.171,4.283,5.176,18.014,2.647,35.026c-0.637,4.278-6.636,5.795-11.579,5.795
	c-6.204,0-11.564-2.126-12.745-5.056c-4.268-10.604-13.84-21.875-23.176-21.875c-0.831,0-1.654,0.093-2.445,0.274
	c-0.723,0.166-1.373,0.25-1.934,0.25c-0.001,0-0.001,0-0.001,0c-0.965,0-1.641-0.253-1.902-0.712
	c-0.278-0.489-0.148-1.303,0.35-2.177c1.344-2.356,5.094-4.892,10.151-4.892c2.486,0,5.063,0.6,7.662,1.784l-0.447-1.83
	c-2.375-0.924-4.915-1.482-7.215-1.482c-5.688,0-9.853,2.841-11.458,5.656c-0.794,1.394-0.918,2.709-0.35,3.705
	c0.384,0.674,1.252,1.477,3.209,1.477h0.001c0.673,0,1.436-0.097,2.268-0.288c0.682-0.157,1.393-0.235,2.111-0.235
	c8.677,0,17.697,10.779,21.779,20.924C35.307,58.12,42.141,60,47.786,60c5.543,0,12.292-1.858,13.07-7.096
	C63.447,35.481,61.279,21.264,57.925,16.734z"/>
<path fill="#D9A640" d="M28.847,9.148c-4.61,2.107-5.822,4.115-6.036,5.623c-0.417,2.938,0.629,15.611,1.514,17.702
	c0.897,2.121,4.034,5.423,7.782,4.722l-0.373-2.021c-2.771,0.649-5.167-1.916-5.781-3.566c-1.098-2.944-1.812-15.26-1.569-16.697
	C24.687,13.105,25.632,11.748,28.847,9.148z"/>
<path fill="#D9A640" d="M34.728,11.886c-4.531,2.674-6.135,3.357-6.351,6.825c-0.122,1.974,1.068,12.213,1.553,15.09
	c0.798,4.737,3.135,6.787,8.992,5.69l-0.372-2.021c-4.719,1.106-6.131-0.163-6.993-4.536c-0.602-3.061-1.262-11.007-1.356-14.171
	C30.099,15.434,31.953,14.64,34.728,11.886z"/>
<path fill="#D9A640" d="M35.39,24.685c0.455,3.025,1.179,10.935,2.042,13.625c1.489,4.647,9.662,3.565,9.274-1.528
	c-0.191-2.514-1.396-7.348-1.876-11.228c-0.334-2.7,1.565-4.79,4.905-3.629c-3.806-2.314-6.521-0.782-6.351,3.431
	c0.058,1.438,1.219,8.055,1.561,11.011c0.399,3.443-4.899,3.754-5.722,1.369c-0.659-1.91-1.657-10.332-2.17-13.371
	c-0.536-3.175-0.547-6.068,3.019-8.841C34.732,18.096,34.788,20.683,35.39,24.685z"/>
</svg>
