<?xml version="1.0" encoding="utf-8"?>
<!-- Generator: Adobe Illustrator 15.0.0, SVG Export Plug-In . SVG Version: 6.00 Build 0)  -->
<!DOCTYPE svg PUBLIC "-//W3C//DTD SVG 1.1//EN" "http://www.w3.org/Graphics/SVG/1.1/DTD/svg11.dtd" [
	<!ENTITY ns_flows "http://ns.adobe.com/Flows/1.0/">
	<!ENTITY ns_extend "http://ns.adobe.com/Extensibility/1.0/">
	<!ENTITY ns_ai "http://ns.adobe.com/AdobeIllustrator/10.0/">
	<!ENTITY ns_graphs "http://ns.adobe.com/Graphs/1.0/">
]>
<svg version="1.1" id="Layer_1" xmlns:x="&ns_extend;" xmlns:i="&ns_ai;" xmlns:graph="&ns_graphs;"
	 xmlns="http://www.w3.org/2000/svg" xmlns:xlink="http://www.w3.org/1999/xlink" xmlns:a="http://ns.adobe.com/AdobeSVGViewerExtensions/3.0/"
	 x="0px" y="0px" width="64px" height="64px" viewBox="0 0 64 64" enable-background="new 0 0 64 64" xml:space="preserve">
<radialGradient id="SVGID_1_" cx="-359.4717" cy="5.4829" r="51.2108" gradientTransform="matrix(-1 0 0 0.8268 -338.2461 0.9494)" gradientUnits="userSpaceOnUse">
	<stop  offset="0.6485" style="stop-color:#B88A6F"/>
	<stop  offset="0.7658" style="stop-color:#B5876C"/>
	<stop  offset="0.8615" style="stop-color:#AB7D62"/>
	<stop  offset="0.9492" style="stop-color:#9A6C51"/>
	<stop  offset="1" style="stop-color:#8C5F44"/>
	<a:midPointStop  offset="0.6485" style="stop-color:#B88A6F"/>
	<a:midPointStop  offset="0.7473" style="stop-color:#B88A6F"/>
	<a:midPointStop  offset="1" style="stop-color:#8C5F44"/>
</radialGradient>
<path fill="url(#SVGID_1_)" d="M57.202,12.469c-4.553,0-10.361-0.209-19.111,0.014C18.534,12.984,6.981,9.598,3.993,14.209
	c-2.605,4.02-0.238,13.293-0.688,22.571c-0.273,5.639,6.049,6.225,6.049,6.225c-0.828,3.143,1.529,11.264,8.355,8.783
	c6.873-2.496,13.643-2.578,16.848-4.922c2.879-2.105,6.475-6.994,9.016-9.537c0.436-0.438,9.781-3.855,13.629-3.855
	C62.657,33.474,62.657,12.469,57.202,12.469z"/>
<path fill="#70513D" d="M8.481,43.63c-2.508-0.498-6.146-2.375-5.928-6.889C3.013,27.25,0.569,18.104,3.36,13.797
	c3.314-5.113,14.365-1.545,34.709-2.068c2.719-0.068,17.801-0.014,19.129-0.014c6.402,0,6.402,22.505,0,22.505
	c-3.553,0-12.354,3.16-13.164,3.691c-2.842,2.879-5.92,7.277-9.037,9.557c-3.418,2.5-10.268,2.564-17.035,5.021
	C11.192,54.95,8.028,47.931,8.481,43.63z M4.622,14.613c-2.354,3.629-0.137,13.219-0.57,22.2c-0.254,5.24,5.648,5.506,6.252,5.521
	c-1.23,2.938,0.818,11.047,7.146,8.744c6.859-2.488,13.754-2.697,16.66-4.822c2.34-1.711,7.582-8.172,8.928-9.461
	c0.742-0.711,10.291-4.076,14.16-4.076c4.461,0,4.461-19.505,0-19.505c-1.334,0-16.385-0.055-19.09,0.014
	C19.634,13.701,7.249,10.559,4.622,14.613z"/>
<path fill="#70513D" d="M22.833,24.34c-3.207,1.305-8.162,3.055-11.398,0.451c3.322,3.912,0.629,6.121,0.588,9.204
	c1.387-3.38,2.699-4.009,2.994-4.083c0.58-0.146,2.072,2.297,2.072,2.297c0.023-2.953-2.121-3.336-2.08-3.975
	c0.029-0.445,3.574-0.053,7.023-1.361c0.729-0.275,1.104,13.356-12.355,15.183c-1.254,0.166-0.896,1.648,0.58,1.648
	C26.911,40.603,24.435,23.688,22.833,24.34z"/>
</svg>
