<?xml version="1.0" encoding="utf-8"?>
<!-- Generator: Adobe Illustrator 15.0.0, SVG Export Plug-In . SVG Version: 6.00 Build 0)  -->
<!DOCTYPE svg PUBLIC "-//W3C//DTD SVG 1.1//EN" "http://www.w3.org/Graphics/SVG/1.1/DTD/svg11.dtd" [
	<!ENTITY ns_flows "http://ns.adobe.com/Flows/1.0/">
	<!ENTITY ns_extend "http://ns.adobe.com/Extensibility/1.0/">
	<!ENTITY ns_ai "http://ns.adobe.com/AdobeIllustrator/10.0/">
	<!ENTITY ns_graphs "http://ns.adobe.com/Graphs/1.0/">
]>
<svg version="1.1" id="Layer_1" xmlns:x="&ns_extend;" xmlns:i="&ns_ai;" xmlns:graph="&ns_graphs;"
	 xmlns="http://www.w3.org/2000/svg" xmlns:xlink="http://www.w3.org/1999/xlink" xmlns:a="http://ns.adobe.com/AdobeSVGViewerExtensions/3.0/"
	 x="0px" y="0px" width="64px" height="64px" viewBox="0 0 64 64" enable-background="new 0 0 64 64" xml:space="preserve">
<path fill="#FFCC66" d="M38.955,49.932c-0.201-0.223-0.4-0.409-0.597-0.578l3.029-20.951c0,0-10.906-1.476-7.058-8.306
	c2.585-4.591,3.508-9.027,0.854-13.896c-3.311-6.075-8.156-2.777-8.01-0.17c0.739,13.084-6.64,16.252-8.712,19.544
	c-6.334,10.075-3.173,21.184-0.098,24.284c3.885,3.922,9.67,4.813,13.89,4.863c0.001,0.001,0.001,0.002,0.001,0.002
	c5.566,1.832,9.299,5.011,11.029,5.995c3.47,1.98,6.66-2.261,3.396-5.008C44.302,53.708,40.936,52.125,38.955,49.932z"/>
<path fill="#D9A640" d="M42.9,61.41c-2.415-1.381-5.289-4.066-10.779-5.898c-4.322-0.068-10.268-1.018-14.307-5.09
	c-3.485-3.52-6.47-14.963-0.008-25.24c2.045-3.251,9.311-6.399,8.596-19.092c-0.193-3.395,5.739-7.078,9.467-0.24
	c2.514,4.61,2.247,9.125-0.858,14.642c-3.302,5.866,6.225,7.126,7.243,7.264l0,0l0,0c-0.948,7.684-2.421,19.985-2.524,21.883
	c1.873,1.943,5.264,3.65,7.457,5.502C51.283,58.592,47.015,63.754,42.9,61.41z M27.955,6.003c0.754,13.36-6.861,16.87-8.83,20
	c-6.36,10.116-2.724,20.788-0.202,23.332c3.705,3.738,9.42,4.602,13.461,4.653l0,0c5.81,1.909,8.749,4.563,11.291,6.079
	c2.563,1.528,5.117-1.55,2.51-3.747c-2.116-1.784-5.771-3.605-7.805-5.855c-0.306-0.335-0.436-0.477,2.15-21.41
	c-4.628-0.924-10.003-3.764-6.875-9.319c2.818-5.003,3.08-9.058,0.85-13.148C31.63,1.315,27.851,4.155,27.955,6.003z"/>
<path fill="#D9A640" d="M34.732,37.927l0.303,1.406c-1.879,3.342-9.968,6.163-16.334,2.733C24.801,44.51,33.107,41.23,34.732,37.927
	z"/>
<linearGradient id="SVGID_1_" gradientUnits="userSpaceOnUse" x1="-96.0366" y1="244.3887" x2="-74.8673" y2="244.3887" gradientTransform="matrix(0.9161 0.0374 -0.0384 0.9327 128.9236 -193.8122)">
	<stop  offset="0.2545" style="stop-color:#EDB547"/>
	<stop  offset="0.4424" style="stop-color:#FFCC66"/>
	<a:midPointStop  offset="0.2545" style="stop-color:#EDB547"/>
	<a:midPointStop  offset="0.5152" style="stop-color:#EDB547"/>
	<a:midPointStop  offset="0.4424" style="stop-color:#FFCC66"/>
</linearGradient>
<path fill="url(#SVGID_1_)" d="M45.894,34.935c-4.671-0.19-8.263-0.335-11.912-0.482c-3.596-0.149-2.791-5.011-0.627-6.152
	c0.814-0.429,2.217-0.958,3.964-1.109c1.948-0.164,5.245-0.208,9.028,0.635C50.313,28.707,50.158,35.108,45.894,34.935z"/>
<path fill="#D9A640" d="M45.865,35.709L33.95,35.225c-4.478-0.184-3.772-6.127-0.959-7.609c0.995-0.523,2.502-1.043,4.26-1.196
	c1.718-0.146,5.206-0.271,9.263,0.65C51.507,28.206,51,35.883,45.865,35.709z M33.718,28.984c-1.385,0.73-2.533,4.577,0.294,4.693
	l11.915,0.484c3.216,0.18,3.435-4.883,0.251-5.583c-3.864-0.844-7.166-0.754-8.792-0.617C36.019,28.08,34.663,28.487,33.718,28.984z
	"/>
<linearGradient id="SVGID_2_" gradientUnits="userSpaceOnUse" x1="-69.9482" y1="251.8096" x2="-52.3653" y2="251.8096" gradientTransform="matrix(0.9494 0.0389 -0.0384 0.9327 105.9499 -194.1401)">
	<stop  offset="0.2545" style="stop-color:#EDB547"/>
	<stop  offset="0.4424" style="stop-color:#FFCC66"/>
	<a:midPointStop  offset="0.2545" style="stop-color:#EDB547"/>
	<a:midPointStop  offset="0.5152" style="stop-color:#EDB547"/>
	<a:midPointStop  offset="0.4424" style="stop-color:#FFCC66"/>
</linearGradient>
<path fill="url(#SVGID_2_)" d="M45.147,42.371c-4.649-0.191-8.223-0.336-11.861-0.484c-4.766-0.191-4.458-7.641,0.311-7.445
	c3.577,0.145,8.107,0.328,11.86,0.48C50.225,35.116,49.918,42.564,45.147,42.371z"/>
<path fill="#D9A640" d="M45.116,43.143l-11.861-0.483c-5.997-0.401-5.201-9.3,0.372-8.993l11.861,0.484
	C51.453,34.465,50.769,43.42,45.116,43.143z M33.318,41.115l11.859,0.48c3.694,0.186,3.995-5.694,0.248-5.898l-11.86-0.484
	C30.091,34.889,29.276,40.834,33.318,41.115z"/>
<linearGradient id="SVGID_3_" gradientUnits="userSpaceOnUse" x1="-69.9419" y1="259.5137" x2="-49.8113" y2="259.5137" gradientTransform="matrix(0.9494 0.0389 -0.0384 0.9327 105.9499 -194.1401)">
	<stop  offset="0.2545" style="stop-color:#EDB547"/>
	<stop  offset="0.4424" style="stop-color:#FFCC66"/>
	<a:midPointStop  offset="0.2545" style="stop-color:#EDB547"/>
	<a:midPointStop  offset="0.5152" style="stop-color:#EDB547"/>
	<a:midPointStop  offset="0.4424" style="stop-color:#FFCC66"/>
</linearGradient>
<path fill="url(#SVGID_3_)" d="M43.848,49.268c-4.342-0.177-7.679-0.31-11.077-0.451c-4.451-0.18-4.163-7.137,0.29-6.955
	c3.34,0.135,7.568,0.308,11.074,0.45C48.586,42.491,48.298,49.447,43.848,49.268z"/>
<path fill="#D9A640" d="M43.815,50.04L32.74,49.59c-5.557-0.379-5.058-8.633,0.352-8.502l11.074,0.451
	C49.926,41.977,49.047,50.281,43.815,50.04z M32.801,48.043l11.078,0.452c3.291,0.165,3.74-5.13,0.225-5.411l-11.074-0.45
	C29.759,42.463,29.324,47.893,32.801,48.043z"/>
</svg>
