<?xml version="1.0" encoding="utf-8"?>
<!-- Generator: Adobe Illustrator 15.0.0, SVG Export Plug-In . SVG Version: 6.00 Build 0)  -->
<!DOCTYPE svg PUBLIC "-//W3C//DTD SVG 1.1//EN" "http://www.w3.org/Graphics/SVG/1.1/DTD/svg11.dtd" [
	<!ENTITY ns_flows "http://ns.adobe.com/Flows/1.0/">
	<!ENTITY ns_extend "http://ns.adobe.com/Extensibility/1.0/">
	<!ENTITY ns_ai "http://ns.adobe.com/AdobeIllustrator/10.0/">
	<!ENTITY ns_graphs "http://ns.adobe.com/Graphs/1.0/">
]>
<svg version="1.1" id="Layer_1" xmlns:x="&ns_extend;" xmlns:i="&ns_ai;" xmlns:graph="&ns_graphs;"
	 xmlns="http://www.w3.org/2000/svg" xmlns:xlink="http://www.w3.org/1999/xlink" xmlns:a="http://ns.adobe.com/AdobeSVGViewerExtensions/3.0/"
	 x="0px" y="0px" width="64px" height="64px" viewBox="0 0 64 64" enable-background="new 0 0 64 64" xml:space="preserve">
<radialGradient id="SVGID_1_" cx="1055.1162" cy="-582.4365" r="39.4758" gradientTransform="matrix(0.0056 0.8974 0.5267 0.0032 340.6661 -915.0872)" gradientUnits="userSpaceOnUse">
	<stop  offset="0.7091" style="stop-color:#EBC199"/>
	<stop  offset="1" style="stop-color:#EBC199"/>
	<a:midPointStop  offset="0.7091" style="stop-color:#EBC199"/>
	<a:midPointStop  offset="0.6582" style="stop-color:#EBC199"/>
	<a:midPointStop  offset="1" style="stop-color:#EBC199"/>
</radialGradient>
<path fill="url(#SVGID_1_)" d="M12.355,32.217c8.023,0.199,8.746,7.756,11.072,5.951c0.602-0.469,0.373-3.719,0.373-3.719
	c-0.139-5.336-0.242-12.684-0.309-23.495c-0.035-5.438,8.225-5.393,8.26,0.053c-0.01-1.367-0.018-2.762-0.029-4.191
	c-0.033-5.434,8.227-5.43,8.258,0.051c0.01,1.465,0.021,2.854,0.031,4.191c-0.037-5.43,8.225-5.379,8.258,0.049
	c0.008,1.158,0.021,3.822,0.045,6.967c0.205-5.412,7.051-5.254,7.275,0.168c0.252,6.168,0.629,18.715,0.66,25.266
	c0.047,9.395-5.426,18-16.059,17.738c-23.11-0.57-17.514-16.693-31.754-25.1C6.671,35.107,8.357,32.119,12.355,32.217z"/>
<path fill="#B08863" d="M8.056,36.793C22.023,45.039,16.625,61.42,40.191,62C53.391,62,57.037,50.787,57,43.504
	c-0.031-6.66-0.41-19.184-0.662-25.293c-0.186-4.514-4.691-6.188-7.297-3.75l-0.021-3.359c-0.029-4.777-5.531-6.092-8.283-3.607
	L40.73,6.863c0-6.477-9.758-6.477-9.758-0.043l0.004,0.594c-2.84-2.555-8.266-1.174-8.234,3.547
	c0.064,10.418,0.162,17.889,0.307,23.508c0.096,1.359,0.121,2.838-0.135,3.146c-0.889,1.063-2.836-5.957-10.559-6.15
	C7.15,31.465,5.789,35.457,8.056,36.793z M12.355,32.965c7.838,0.195,8.254,8.336,11.533,5.797c0.609-0.477,0.83-1.943,0.66-4.365
	c-0.145-5.577-0.307-13.038-0.307-23.446c0-4.395,6.758-4.395,6.758,0.031l0.143,22.545l1.5-0.01L32.5,11.001h0.002L32.472,6.81
	c-0.023-4.299,6.731-4.531,6.758,0.061l0.021,2.924l0,0l0.15,23.784l1.5-0.01L40.762,11.05c0-4.396,6.756-4.395,6.756,0.061
	l0.045,6.967h0.002l0.098,15.551l1.5-0.01l-0.098-15.536c0.182-4.371,5.588-4.311,5.775,0.189c0.25,6.098,0.629,18.594,0.66,25.239
	C55.539,51.467,51.379,60.5,40.191,60.5C17.474,59.941,23.613,44.232,8.818,35.502C7.855,34.934,9.041,32.965,12.355,32.965z"/>
</svg>
