<?xml version="1.0" encoding="utf-8"?>
<!-- Generator: Adobe Illustrator 15.0.0, SVG Export Plug-In . SVG Version: 6.00 Build 0)  -->
<!DOCTYPE svg PUBLIC "-//W3C//DTD SVG 1.1//EN" "http://www.w3.org/Graphics/SVG/1.1/DTD/svg11.dtd" [
	<!ENTITY ns_flows "http://ns.adobe.com/Flows/1.0/">
	<!ENTITY ns_extend "http://ns.adobe.com/Extensibility/1.0/">
	<!ENTITY ns_ai "http://ns.adobe.com/AdobeIllustrator/10.0/">
	<!ENTITY ns_graphs "http://ns.adobe.com/Graphs/1.0/">
]>
<svg version="1.1" id="Layer_1" xmlns:x="&ns_extend;" xmlns:i="&ns_ai;" xmlns:graph="&ns_graphs;"
	 xmlns="http://www.w3.org/2000/svg" xmlns:xlink="http://www.w3.org/1999/xlink" xmlns:a="http://ns.adobe.com/AdobeSVGViewerExtensions/3.0/"
	 x="0px" y="0px" width="64px" height="64px" viewBox="0 0 64 64" enable-background="new 0 0 64 64" xml:space="preserve">
<path fill="#B88A6F" d="M38.954,49.931c-0.201-0.223-0.4-0.408-0.596-0.578l3.029-20.949c0,0-10.906-1.477-7.059-8.307
	c2.586-4.592,3.508-9.027,0.854-13.895c-3.31-6.076-8.156-2.777-8.009-0.17c0.738,13.084-6.64,16.252-8.712,19.543
	c-6.334,10.074-3.172,21.184-0.098,24.285c3.885,3.92,9.669,4.813,13.89,4.863l0,0c5.566,1.832,9.3,5.012,11.029,5.996
	c3.471,1.98,6.66-2.262,3.396-5.008C44.302,53.708,40.935,52.124,38.954,49.931z"/>
<path fill="#70513D" d="M42.899,61.409c-2.414-1.381-5.289-4.066-10.779-5.898c-4.322-0.066-10.267-1.018-14.306-5.09
	c-3.484-3.518-6.469-14.961-0.008-25.238c2.045-3.252,9.31-6.398,8.596-19.092c-0.193-3.396,5.74-7.078,9.468-0.24
	c2.514,4.609,2.246,9.125-0.859,14.641c-3.302,5.867,6.225,7.127,7.244,7.264l0,0l0,0c-0.949,7.684-2.422,19.984-2.525,21.883
	c1.873,1.943,5.264,3.652,7.457,5.502C51.282,58.591,47.015,63.755,42.899,61.409z M27.955,6.003c0.754,13.361-6.861,16.871-8.83,20
	c-6.361,10.115-2.725,20.789-0.203,23.332c3.705,3.738,9.419,4.602,13.46,4.652l0,0c5.81,1.91,8.75,4.563,11.291,6.08
	c2.564,1.529,5.117-1.551,2.51-3.748c-2.115-1.783-5.771-3.605-7.805-5.855c-0.305-0.334-0.436-0.477,2.15-21.408
	c-4.627-0.926-10.003-3.764-6.875-9.32c2.818-5.002,3.08-9.057,0.85-13.146C31.63,1.315,27.851,4.155,27.955,6.003z"/>
<path fill="#70513D" d="M34.731,37.927l0.303,1.406c-1.879,3.342-9.968,6.164-16.333,2.734
	C24.801,44.509,33.106,41.229,34.731,37.927z"/>
<linearGradient id="SVGID_1_" gradientUnits="userSpaceOnUse" x1="-95.8931" y1="244.958" x2="-74.7232" y2="244.958" gradientTransform="matrix(0.9161 0.0374 -0.0384 0.9327 128.8093 -194.34)">
	<stop  offset="0.2545" style="stop-color:#8C5F44"/>
	<stop  offset="0.4424" style="stop-color:#B88A6F"/>
	<a:midPointStop  offset="0.2545" style="stop-color:#8C5F44"/>
	<a:midPointStop  offset="0.5152" style="stop-color:#8C5F44"/>
	<a:midPointStop  offset="0.4424" style="stop-color:#B88A6F"/>
</linearGradient>
<path fill="url(#SVGID_1_)" d="M45.894,34.935c-4.672-0.191-8.264-0.336-11.912-0.482c-3.597-0.148-2.791-5.012-0.627-6.152
	c0.814-0.428,2.217-0.959,3.963-1.109c1.949-0.164,5.246-0.207,9.029,0.635C50.313,28.708,50.157,35.108,45.894,34.935z"/>
<path fill="#70513D" d="M45.864,35.708L33.95,35.226c-4.478-0.186-3.773-6.129-0.96-7.609c0.996-0.523,2.503-1.043,4.261-1.195
	c1.717-0.146,5.205-0.271,9.262,0.65C51.507,28.206,50.999,35.882,45.864,35.708z M33.718,28.985
	c-1.386,0.729-2.533,4.576,0.293,4.691l11.916,0.484c3.215,0.182,3.434-4.883,0.25-5.582c-3.863-0.844-7.166-0.754-8.791-0.617
	C36.019,28.079,34.663,28.487,33.718,28.985z"/>
<linearGradient id="SVGID_2_" gradientUnits="userSpaceOnUse" x1="-69.6299" y1="251.8408" x2="-52.0456" y2="251.8408" gradientTransform="matrix(0.9494 0.0389 -0.0384 0.9327 105.643 -194.1679)">
	<stop  offset="0.2545" style="stop-color:#8C5F44"/>
	<stop  offset="0.4424" style="stop-color:#B88A6F"/>
	<a:midPointStop  offset="0.2545" style="stop-color:#8C5F44"/>
	<a:midPointStop  offset="0.5152" style="stop-color:#8C5F44"/>
	<a:midPointStop  offset="0.4424" style="stop-color:#B88A6F"/>
</linearGradient>
<path fill="url(#SVGID_2_)" d="M45.147,42.37c-4.65-0.191-8.223-0.336-11.861-0.482c-4.767-0.193-4.458-7.643,0.311-7.447
	c3.576,0.145,8.107,0.328,11.859,0.482C50.224,35.116,49.917,42.563,45.147,42.37z"/>
<path fill="#70513D" d="M45.116,43.144l-11.861-0.484c-5.998-0.402-5.201-9.299,0.371-8.992l11.861,0.482
	C51.452,34.464,50.769,43.419,45.116,43.144z M33.317,41.114l11.859,0.482c3.695,0.186,3.996-5.695,0.248-5.9l-11.859-0.482
	C30.091,34.888,29.275,40.833,33.317,41.114z"/>
<linearGradient id="SVGID_3_" gradientUnits="userSpaceOnUse" x1="-69.6226" y1="259.5439" x2="-49.4915" y2="259.5439" gradientTransform="matrix(0.9494 0.0389 -0.0384 0.9327 105.643 -194.1679)">
	<stop  offset="0.2545" style="stop-color:#8C5F44"/>
	<stop  offset="0.4424" style="stop-color:#B88A6F"/>
	<a:midPointStop  offset="0.2545" style="stop-color:#8C5F44"/>
	<a:midPointStop  offset="0.5152" style="stop-color:#8C5F44"/>
	<a:midPointStop  offset="0.4424" style="stop-color:#B88A6F"/>
</linearGradient>
<path fill="url(#SVGID_3_)" d="M43.847,49.269c-4.342-0.178-7.678-0.311-11.076-0.453c-4.451-0.18-4.164-7.137,0.289-6.955
	c3.34,0.135,7.568,0.309,11.074,0.451C48.585,42.491,48.298,49.446,43.847,49.269z"/>
<path fill="#70513D" d="M43.815,50.04L32.74,49.589c-5.557-0.377-5.059-8.631,0.351-8.5l11.074,0.449
	C49.925,41.976,49.046,50.28,43.815,50.04z M32.8,48.042l11.078,0.453c3.291,0.166,3.74-5.131,0.225-5.412l-11.074-0.449
	C29.759,42.464,29.324,47.892,32.8,48.042z"/>
</svg>
