<?xml version="1.0" encoding="utf-8"?>
<!-- Generator: Adobe Illustrator 15.0.0, SVG Export Plug-In . SVG Version: 6.00 Build 0)  -->
<!DOCTYPE svg PUBLIC "-//W3C//DTD SVG 1.1//EN" "http://www.w3.org/Graphics/SVG/1.1/DTD/svg11.dtd" [
	<!ENTITY ns_flows "http://ns.adobe.com/Flows/1.0/">
	<!ENTITY ns_extend "http://ns.adobe.com/Extensibility/1.0/">
	<!ENTITY ns_ai "http://ns.adobe.com/AdobeIllustrator/10.0/">
	<!ENTITY ns_graphs "http://ns.adobe.com/Graphs/1.0/">
]>
<svg version="1.1" id="Layer_1" xmlns:x="&ns_extend;" xmlns:i="&ns_ai;" xmlns:graph="&ns_graphs;"
	 xmlns="http://www.w3.org/2000/svg" xmlns:xlink="http://www.w3.org/1999/xlink" xmlns:a="http://ns.adobe.com/AdobeSVGViewerExtensions/3.0/"
	 x="0px" y="0px" width="64px" height="64px" viewBox="0 0 64 64" enable-background="new 0 0 64 64" xml:space="preserve">
<linearGradient id="SVGID_1_" gradientUnits="userSpaceOnUse" x1="32.0005" y1="62" x2="32.0005" y2="2.0005">
	<stop  offset="0" style="stop-color:#FF9500"/>
	<stop  offset="0.0934" style="stop-color:#FF9F03"/>
	<stop  offset="0.4902" style="stop-color:#FFC710"/>
	<stop  offset="0.8062" style="stop-color:#FFDF17"/>
	<stop  offset="1" style="stop-color:#FFE81A"/>
	<a:midPointStop  offset="0" style="stop-color:#FF9500"/>
	<a:midPointStop  offset="0.4" style="stop-color:#FF9500"/>
	<a:midPointStop  offset="1" style="stop-color:#FFE81A"/>
</linearGradient>
<circle fill="url(#SVGID_1_)" cx="32" cy="32" r="30"/>
<ellipse fill="#1A1626" cx="22" cy="25" rx="4" ry="5"/>
<ellipse fill="#1A1626" cx="42" cy="25" rx="4" ry="5"/>
<path fill="#96A3A8" d="M29.877,43h-1.601c-0.11,0-0.2,0.08-0.2,0.18v3.641c0,0.1,0.09,0.18,0.2,0.18h1.601
	c0.109,0,0.199-0.08,0.199-0.18V43.18C30.077,43.08,29.987,43,29.877,43z"/>
<path fill="#6E8189" d="M19.877,41h-1.601c-0.11,0-0.2,0.08-0.2,0.18v3.641c0,0.1,0.09,0.18,0.2,0.18h1.601
	c0.109,0,0.199-0.08,0.199-0.18V41.18C20.077,41.08,19.987,41,19.877,41z"/>
<path fill="#6E8189" d="M31.877,41h-1.601c-0.11,0-0.2,0.08-0.2,0.18v3.641c0,0.1,0.09,0.18,0.2,0.18h1.601
	c0.109,0,0.199-0.08,0.199-0.18V41.18C32.077,41.08,31.987,41,31.877,41z"/>
<path fill="#96A3A8" d="M21.877,43h-1.601c-0.11,0-0.2,0.08-0.2,0.18v3.641c0,0.1,0.09,0.18,0.2,0.18h1.601
	c0.109,0,0.199-0.08,0.199-0.18V43.18C22.077,43.08,21.987,43,21.877,43z"/>
<path fill="#6E8189" d="M23.877,41h-1.601c-0.11,0-0.2,0.08-0.2,0.18v3.641c0,0.1,0.09,0.18,0.2,0.18h1.601
	c0.109,0,0.199-0.08,0.199-0.18V41.18C24.077,41.08,23.987,41,23.877,41z"/>
<path fill="#96A3A8" d="M25.877,43h-1.601c-0.11,0-0.2,0.08-0.2,0.18v3.641c0,0.1,0.09,0.18,0.2,0.18h1.601
	c0.109,0,0.199-0.08,0.199-0.18V43.18C26.077,43.08,25.987,43,25.877,43z"/>
<path fill="#6E8189" d="M27.877,41h-1.601c-0.11,0-0.2,0.08-0.2,0.18v3.641c0,0.1,0.09,0.18,0.2,0.18h1.601
	c0.109,0,0.199-0.08,0.199-0.18V41.18C28.077,41.08,27.987,41,27.877,41z"/>
<path fill="#96A3A8" d="M41.877,43h-1.6c-0.111,0-0.201,0.08-0.201,0.18v3.641c0,0.1,0.09,0.18,0.201,0.18h1.6
	c0.109,0,0.199-0.08,0.199-0.18V43.18C42.076,43.08,41.986,43,41.877,43z"/>
<path fill="#6E8189" d="M43.877,41h-1.6c-0.111,0-0.201,0.08-0.201,0.18v3.641c0,0.1,0.09,0.18,0.201,0.18h1.6
	c0.109,0,0.199-0.08,0.199-0.18V41.18C44.076,41.08,43.986,41,43.877,41z"/>
<path fill="#96A3A8" d="M33.877,43h-1.6c-0.11,0-0.2,0.08-0.2,0.18v3.641c0,0.1,0.09,0.18,0.2,0.18h1.6
	c0.109,0,0.199-0.08,0.199-0.18V43.18C34.076,43.08,33.986,43,33.877,43z"/>
<path fill="#6E8189" d="M35.877,41h-1.6c-0.111,0-0.201,0.08-0.201,0.18v3.641c0,0.1,0.09,0.18,0.201,0.18h1.6
	c0.109,0,0.199-0.08,0.199-0.18V41.18C36.076,41.08,35.986,41,35.877,41z"/>
<path fill="#96A3A8" d="M37.877,43h-1.6c-0.111,0-0.201,0.08-0.201,0.18v3.641c0,0.1,0.09,0.18,0.201,0.18h1.6
	c0.109,0,0.199-0.08,0.199-0.18V43.18C38.076,43.08,37.986,43,37.877,43z"/>
<path fill="#6E8189" d="M39.877,41h-1.6c-0.111,0-0.201,0.08-0.201,0.18v3.641c0,0.1,0.09,0.18,0.201,0.18h1.6
	c0.109,0,0.199-0.08,0.199-0.18V41.18C40.076,41.08,39.986,41,39.877,41z"/>
<path fill="#A4B2B8" d="M17.877,41h-2.601c-0.11,0-0.2,0.08-0.2,0.18v5.641c0,0.1,0.09,0.18,0.2,0.18h2.601
	c0.109,0,0.199-0.08,0.199-0.18V41.18C18.077,41.08,17.987,41,17.877,41z"/>
<path fill="#A4B2B8" d="M48.409,45.948c0.685,0,0.686-3.896,0-3.896c-0.443,0-1.302,0.055-1.398,0
	C46.546,41.785,46.181,41,45.437,41c-3.352,0-3.352,6,0,6c0.743,0,1.109-0.785,1.574-1.052
	C47.107,45.893,47.834,45.948,48.409,45.948z"/>
<path fill="#6E8189" d="M48.423,44.301v-0.602c0-0.109-0.08-0.199-0.18-0.199h-3.641c-0.1,0-0.18,0.09-0.18,0.199v0.602
	c0,0.109,0.08,0.199,0.18,0.199h3.641C48.343,44.5,48.423,44.41,48.423,44.301z"/>
<path fill="#96A3A8" d="M49.399,45.742c-1.509-2.345-4.542-1.809-5.155,0.91c-0.598,2.637-1.441,6.431-0.908,9.451
	c0.801,4.549,3.266,5.235,6.066,4.74c2.803-0.492,4.885-1.98,4.082-6.529C52.951,51.293,50.861,48.018,49.399,45.742z
	 M48.945,47.415c0.545,3.087-3.159,3.74-3.703,0.653C44.697,44.98,48.4,44.328,48.945,47.415z M44.995,56.409
	c-0.825-4.687,6.206-5.927,7.034-1.239C52.855,59.857,45.822,61.097,44.995,56.409z"/>
<path fill="#6E8189" d="M46.654,42.905l-1.141,0.201c-0.209,0.037-0.354,0.219-0.32,0.409l0.55,3.115
	c0.032,0.189,0.23,0.312,0.44,0.275l1.14-0.202c0.209-0.036,0.353-0.218,0.318-0.409l-0.549-3.115
	C47.06,42.99,46.861,42.869,46.654,42.905z"/>
</svg>
