<?xml version="1.0" encoding="utf-8"?>
<!-- Generator: Adobe Illustrator 15.0.0, SVG Export Plug-In . SVG Version: 6.00 Build 0)  -->
<!DOCTYPE svg PUBLIC "-//W3C//DTD SVG 1.1//EN" "http://www.w3.org/Graphics/SVG/1.1/DTD/svg11.dtd" [
	<!ENTITY ns_flows "http://ns.adobe.com/Flows/1.0/">
	<!ENTITY ns_extend "http://ns.adobe.com/Extensibility/1.0/">
	<!ENTITY ns_ai "http://ns.adobe.com/AdobeIllustrator/10.0/">
	<!ENTITY ns_graphs "http://ns.adobe.com/Graphs/1.0/">
]>
<svg version="1.1" id="Layer_1" xmlns:x="&ns_extend;" xmlns:i="&ns_ai;" xmlns:graph="&ns_graphs;"
	 xmlns="http://www.w3.org/2000/svg" xmlns:xlink="http://www.w3.org/1999/xlink" xmlns:a="http://ns.adobe.com/AdobeSVGViewerExtensions/3.0/"
	 x="0px" y="0px" width="64px" height="64px" viewBox="0 0 64 64" enable-background="new 0 0 64 64" xml:space="preserve">
<path fill="#1A1714" d="M39.582,50.742c15.168-6.066,13.652-20.476,13.652-20.476H10.766c0,0-1.516,14.41,13.648,20.476
	c0,0,3.035,0.758,7.584,0.758C36.549,51.5,39.582,50.742,39.582,50.742z"/>
<linearGradient id="SVGID_1_" gradientUnits="userSpaceOnUse" x1="47.166" y1="51.498" x2="47.166" y2="6.1149">
	<stop  offset="0.05" style="stop-color:#1A1714"/>
	<stop  offset="0.112" style="stop-color:#1F1B18"/>
	<stop  offset="0.4761" style="stop-color:#37322C"/>
	<stop  offset="0.7" style="stop-color:#403A33"/>
	<a:midPointStop  offset="0.05" style="stop-color:#1A1714"/>
	<a:midPointStop  offset="0.4" style="stop-color:#1A1714"/>
	<a:midPointStop  offset="0.7" style="stop-color:#403A33"/>
</linearGradient>
<path fill="url(#SVGID_1_)" d="M47.334,31.805c1.551,6.531,0.732,12.998-7.752,18.938c9.102-1.518,15.168-10.111,15.168-16.705
	L47.334,31.805z"/>
<linearGradient id="SVGID_2_" gradientUnits="userSpaceOnUse" x1="1763.9805" y1="51.498" x2="1763.9805" y2="6.1149" gradientTransform="matrix(-1 0 0 1 1780.8145 0)">
	<stop  offset="0.05" style="stop-color:#1A1714"/>
	<stop  offset="0.112" style="stop-color:#1F1B18"/>
	<stop  offset="0.4761" style="stop-color:#37322C"/>
	<stop  offset="0.7" style="stop-color:#403A33"/>
	<a:midPointStop  offset="0.05" style="stop-color:#1A1714"/>
	<a:midPointStop  offset="0.4" style="stop-color:#1A1714"/>
	<a:midPointStop  offset="0.7" style="stop-color:#403A33"/>
</linearGradient>
<path fill="url(#SVGID_2_)" d="M16.666,31.805c-1.551,6.531-0.732,12.998,7.752,18.938C15.316,49.225,9.25,40.631,9.25,34.037
	L16.666,31.805z"/>
<path fill="#8E3ED6" d="M12.254,52.752C14.656,51.387,23,48.361,23,48.361h18c0,0,8.412,3.018,10.801,4.387
	C55.27,54.732,56,62,56,62H8C8,62,8.773,54.729,12.254,52.752z"/>
<path fill="#732EB0" d="M16.666,62H16C16,56.666,16.666,56.666,16.666,62z"/>
<path fill="#732EB0" d="M48,62h-0.668C47.332,56.666,48,56.666,48,62z"/>
<path fill="#732EB0" d="M23,48.361c0,8.123,18,8.123,18,0l-1.543-0.535H24.5L23,48.361z"/>
<path fill="#302116" d="M24.5,48.01c0,6.359,15,6.359,15,0c0-2.164,0-7.035,0-7.035h-15C24.5,40.975,24.5,45.846,24.5,48.01z"/>
<path fill="#614A36" d="M32,8.276c-11.006,0-16.307,8.962-15.645,20.485c0.137,2.315,0.781,5.657,1.576,8.52
	C19.582,43.232,28.291,49.225,32,49.225c3.707,0,12.416-5.992,14.068-11.943c0.795-2.863,1.439-6.205,1.576-8.52
	C48.305,17.238,43.008,8.276,32,8.276z"/>
<path fill="#403229" d="M43.693,24.927c-2.391-1.425-6.68-1.601-8.377-0.629c-0.359,0.196-0.264,1.226,0.049,1.097
	c2.42-1.008,6.107-1.058,8.381,0.108C44.049,25.657,44.057,25.134,43.693,24.927z"/>
<path fill="#403229" d="M20.305,24.927c2.391-1.425,6.678-1.601,8.379-0.629c0.359,0.196,0.264,1.226-0.049,1.097
	c-2.422-1.008-6.105-1.06-8.381,0.108C19.949,25.657,19.943,25.134,20.305,24.927z"/>
<path fill="#302116" d="M34.473,36.213c-0.262-0.184-0.877,0.1-2.475,0.1s-2.211-0.283-2.473-0.1
	c-0.314,0.221,0.184,1.217,2.473,1.217S34.789,36.436,34.473,36.213z"/>
<linearGradient id="SVGID_3_" gradientUnits="userSpaceOnUse" x1="32.0005" y1="51.4971" x2="32.0005" y2="6.1131">
	<stop  offset="0.05" style="stop-color:#1A1714"/>
	<stop  offset="0.112" style="stop-color:#1F1B18"/>
	<stop  offset="0.4761" style="stop-color:#37322C"/>
	<stop  offset="0.7" style="stop-color:#403A33"/>
	<a:midPointStop  offset="0.05" style="stop-color:#1A1714"/>
	<a:midPointStop  offset="0.4" style="stop-color:#1A1714"/>
	<a:midPointStop  offset="0.7" style="stop-color:#403A33"/>
</linearGradient>
<path fill="url(#SVGID_3_)" d="M44.387,9.884c1.256-1.794-9.389-5.582-19.439-3.023C14.908,9.16,9.25,24.201,9.25,34.037
	c0.898,0.713,6.396-1.064,7.416-2.232c0.416-1.721,1.072-3.493,1.684-5.329c7.539-4.365,16.07-5.393,21.992-10.617
	c-0.76,2.275,3.256,5.145,5.309,10.617c0.666,1.775,1.262,3.554,1.684,5.329c1.674,1.541,5.014,2.268,7.416,2.232
	C54.75,25.717,48.41,8.723,44.387,9.884z"/>
<path fill="#1A1714" d="M11.057,32.541c6.945-9.247,29.439-8.62,33.33-22.657C36.834,21.666,12.955,23.653,11.057,32.541z"/>
<path fill="#301F12" d="M28.844,28.86c-2.016,1.285-5.145,1.285-7.16,0c-0.309-0.197-0.492,0.016-0.395,0.182
	c1.957,3.318,5.99,3.318,7.947,0C29.336,28.876,29.15,28.663,28.844,28.86z"/>
<path fill="#301F12" d="M42.318,28.86c-2.016,1.285-5.145,1.285-7.16,0c-0.309-0.197-0.49,0.016-0.395,0.182
	c1.957,3.318,5.99,3.318,7.947,0C42.811,28.876,42.625,28.663,42.318,28.86z"/>
<path fill="#301F12" d="M27.383,42.979c2.813-1.716,6.422-1.716,9.232,0c0.398,0.242,0.447-0.018,0.324-0.227
	c-2.08-3.498-7.801-3.498-9.881,0C26.936,42.961,26.982,43.221,27.383,42.979z"/>
<path opacity="0.3" enable-background="new    " d="M46.617,49.773c0,0-13.252-12.988-4.291-26.897
	c-3.654,0.201-4.164,5.016-4.289,3.141c-0.17-2.584-1.127-7.516-1.256-8.846c-0.229-2.408-3.307-2.357-3.578,0.047
	c0.133,1.707,0.748,6.764,0.607,6.779c-0.133,0.012-2.873-6.565-3.246-7.42c-1.031-2.371-3.754-1.635-3.359,0.953
	c0.764,2.768,2.752,7.172,2.543,7.249c-0.18,0.064-3.457-4.733-3.918-5.529c-1.193-2.061-4.213-0.242-2.797,1.922
	c0.053,0.082,3.861,5.726,3.668,5.797c-0.162,0.059-2.893-2.734-2.893-2.734c-1.369-1.189-3.33,0.207-2.229,1.781
	c2.455,3.513,3.281,3.13,4.59,7.373c0.643,2.086,2.158,4.76,3.875,5.391c0.068,0.361,0.1,0.656,0.219,1.047
	c-0.217,0.25-0.248,0.836-0.197,1.045C32.982,51.987,38.4,62,38.4,62h16.414C54.814,62,48.799,52.393,46.617,49.773z"/>
<path fill="#8E3ED6" d="M30.625,40.152c-0.428-1.715,9.512-5.307,9.988-3.201C42.236,44.082,54.184,62,54.184,62l-14.721-0.002
	C39.463,61.998,33.711,52.492,30.625,40.152z"/>
<path fill="#785B43" d="M39.908,36.781c0.455,1.248-8.385,4.465-8.838,3.217C28.08,31.789,37.025,28.858,39.908,36.781z"/>
<path fill="#785B43" d="M41.531,23.051c-2.975,1.156-2.15,4.227-3.283,3.828c-0.232-0.082-0.564-0.781-0.59-1.141
	c-0.166-2.582-0.689-7.273-0.818-8.604c-0.229-2.406-3.527-2.145-3.297,0.264c0.012,0.119,1.121,8.869,0.98,8.885
	c-0.133,0.012-3.563-9.123-3.936-9.979c-1.029-2.371-4.086-0.959-3.002,1.387c0.043,0.096,3.93,9.686,3.719,9.762
	c-0.18,0.064-4.813-7.441-5.297-8.223c-1.365-2.197-4.188-0.355-2.771,1.807c0.055,0.082,5.1,7.496,4.906,7.566
	c-0.162,0.059-4.162-4.289-4.162-4.289c-1.359-1.662-3.496,0.055-2.137,1.719c2.889,3.533,3.842,3.848,5.15,8.089
	c1.139,3.691,4.199,5.516,8.338,4.016c9.051-3.279,4.121-8.851,8.234-14.066C44.08,23.426,43.016,22.478,41.531,23.051z"/>
</svg>
