<?xml version="1.0" encoding="utf-8"?>
<!-- Generator: Adobe Illustrator 15.0.0, SVG Export Plug-In . SVG Version: 6.00 Build 0)  -->
<!DOCTYPE svg PUBLIC "-//W3C//DTD SVG 1.1//EN" "http://www.w3.org/Graphics/SVG/1.1/DTD/svg11.dtd" [
	<!ENTITY ns_flows "http://ns.adobe.com/Flows/1.0/">
	<!ENTITY ns_extend "http://ns.adobe.com/Extensibility/1.0/">
	<!ENTITY ns_ai "http://ns.adobe.com/AdobeIllustrator/10.0/">
	<!ENTITY ns_graphs "http://ns.adobe.com/Graphs/1.0/">
]>
<svg version="1.1" id="Layer_1" xmlns:x="&ns_extend;" xmlns:i="&ns_ai;" xmlns:graph="&ns_graphs;"
	 xmlns="http://www.w3.org/2000/svg" xmlns:xlink="http://www.w3.org/1999/xlink" xmlns:a="http://ns.adobe.com/AdobeSVGViewerExtensions/3.0/"
	 x="0px" y="0px" width="64px" height="64px" viewBox="0 0 64 64" enable-background="new 0 0 64 64" xml:space="preserve">
<linearGradient id="SVGID_1_" gradientUnits="userSpaceOnUse" x1="641.0723" y1="45.9297" x2="661.3945" y2="45.9297" gradientTransform="matrix(0.9874 0 0 0.9797 -589.0613 -28.75)">
	<stop  offset="0" style="stop-color:#000000"/>
	<stop  offset="0.0436" style="stop-color:#0A0603"/>
	<stop  offset="0.2809" style="stop-color:#3F2513"/>
	<stop  offset="0.5031" style="stop-color:#683D20"/>
	<stop  offset="0.7039" style="stop-color:#864F29"/>
	<stop  offset="0.8762" style="stop-color:#98592E"/>
	<stop  offset="1" style="stop-color:#9E5D30"/>
	<a:midPointStop  offset="0" style="stop-color:#000000"/>
	<a:midPointStop  offset="0.3636" style="stop-color:#000000"/>
	<a:midPointStop  offset="1" style="stop-color:#9E5D30"/>
</linearGradient>
<path fill="url(#SVGID_1_)" d="M55.948,8.943c3.408-2.94,9.483-0.927,7.745,6.107c-2.721,11.004-20.723,12.396-19.719,5.938
	C43.975,20.988,52.121,12.246,55.948,8.943z"/>
<linearGradient id="SVGID_2_" gradientUnits="userSpaceOnUse" x1="-30.6797" y1="45.9297" x2="-10.3574" y2="45.9297" gradientTransform="matrix(-0.9874 0 0 0.9797 -10.2268 -28.75)">
	<stop  offset="0" style="stop-color:#000000"/>
	<stop  offset="0.0436" style="stop-color:#0A0603"/>
	<stop  offset="0.2809" style="stop-color:#3F2513"/>
	<stop  offset="0.5031" style="stop-color:#683D20"/>
	<stop  offset="0.7039" style="stop-color:#864F29"/>
	<stop  offset="0.8762" style="stop-color:#98592E"/>
	<stop  offset="1" style="stop-color:#9E5D30"/>
	<a:midPointStop  offset="0" style="stop-color:#000000"/>
	<a:midPointStop  offset="0.3636" style="stop-color:#000000"/>
	<a:midPointStop  offset="1" style="stop-color:#9E5D30"/>
</linearGradient>
<path fill="url(#SVGID_2_)" d="M8.052,8.943c-3.408-2.94-9.484-0.927-7.745,6.107c2.72,11.004,20.723,12.396,19.719,5.938
	C20.026,20.988,11.878,12.246,8.052,8.943z"/>
<linearGradient id="SVGID_3_" gradientUnits="userSpaceOnUse" x1="32.0005" y1="64" x2="32.0005" y2="8.0005">
	<stop  offset="0" style="stop-color:#FF9500"/>
	<stop  offset="0.0934" style="stop-color:#FF9F03"/>
	<stop  offset="0.4902" style="stop-color:#FFC710"/>
	<stop  offset="0.8062" style="stop-color:#FFDF17"/>
	<stop  offset="1" style="stop-color:#FFE81A"/>
	<a:midPointStop  offset="0" style="stop-color:#FF9500"/>
	<a:midPointStop  offset="0.4" style="stop-color:#FF9500"/>
	<a:midPointStop  offset="1" style="stop-color:#FFE81A"/>
</linearGradient>
<circle fill="url(#SVGID_3_)" cx="32" cy="36" r="28"/>
<linearGradient id="SVGID_4_" gradientUnits="userSpaceOnUse" x1="32.0005" y1="28.7539" x2="32.0005" y2="8.0701">
	<stop  offset="0.3091" style="stop-color:#FFE81A;stop-opacity:0"/>
	<stop  offset="0.3115" style="stop-color:#FFE71A;stop-opacity:0.0059"/>
	<stop  offset="0.4466" style="stop-color:#E8B20F;stop-opacity:0.3388"/>
	<stop  offset="0.5638" style="stop-color:#D78B07;stop-opacity:0.6272"/>
	<stop  offset="0.6572" style="stop-color:#CD7402;stop-opacity:0.8572"/>
	<stop  offset="0.7152" style="stop-color:#C96B00"/>
	<a:midPointStop  offset="0.3091" style="stop-color:#FFE81A;stop-opacity:0"/>
	<a:midPointStop  offset="0.3971" style="stop-color:#FFE81A;stop-opacity:0"/>
	<a:midPointStop  offset="0.7152" style="stop-color:#C96B00"/>
</linearGradient>
<path fill="url(#SVGID_4_)" d="M59.071,28.837C55.906,16.845,44.988,8,32,8C19.013,8,8.094,16.845,4.929,28.837H59.071z"/>
<ellipse fill="#1A1626" cx="22.667" cy="32.37" rx="3.733" ry="4.667"/>
<path fill="#1A1626" d="M41.334,27.703c2.061,0,3.732,2.089,3.732,4.668c0,2.577-1.672,4.666-3.732,4.666
	c-2.064,0-3.734-2.089-3.734-4.666C37.6,29.792,39.27,27.703,41.334,27.703z"/>
<path fill="#1A1626" d="M25.148,51.837c7.233,1.872,16.122-0.947,19.874-6.816c0.307-0.481-0.17-0.992-0.654-0.611
	c-3.92,3.096-12.242,5.399-18.337,3.618C23.696,47.345,22.682,51.198,25.148,51.837z"/>
<radialGradient id="SVGID_5_" cx="291.3672" cy="156.9238" r="11.0817" gradientTransform="matrix(0.6013 0 0 4.6017 -136.2048 -711.4983)" gradientUnits="userSpaceOnUse">
	<stop  offset="0" style="stop-color:#996540"/>
	<stop  offset="0.5894" style="stop-color:#AD7650"/>
	<stop  offset="1" style="stop-color:#B47D56"/>
	<a:midPointStop  offset="0" style="stop-color:#996540"/>
	<a:midPointStop  offset="0.3818" style="stop-color:#996540"/>
	<a:midPointStop  offset="1" style="stop-color:#B47D56"/>
</radialGradient>
<path fill="url(#SVGID_5_)" d="M42.955,0.689C40.102-1.938,36.661,3.798,32,3.745c-0.262,5.841-0.652,11.677-1.172,17.502
	c-0.309-0.375,6.318-0.125,16.328-10.108C44.307,5.425,44.872,2.457,42.955,0.689z"/>
<radialGradient id="SVGID_6_" cx="-1068.8472" cy="156.9238" r="11.0808" gradientTransform="matrix(-0.6013 0 0 4.6017 -617.656 -711.4983)" gradientUnits="userSpaceOnUse">
	<stop  offset="0" style="stop-color:#996540"/>
	<stop  offset="0.5894" style="stop-color:#AD7650"/>
	<stop  offset="1" style="stop-color:#B47D56"/>
	<a:midPointStop  offset="0" style="stop-color:#996540"/>
	<a:midPointStop  offset="0.3818" style="stop-color:#996540"/>
	<a:midPointStop  offset="1" style="stop-color:#B47D56"/>
</radialGradient>
<path fill="url(#SVGID_6_)" d="M21.045,0.689C23.897-1.938,27.339,3.797,32,3.745c0.262,5.841,0.652,11.677,1.172,17.502
	c0.309-0.378-6.315-0.124-16.327-10.108C19.694,5.425,19.128,2.457,21.045,0.689z"/>
<radialGradient id="SVGID_7_" cx="50.1563" cy="50.293" r="12.4144" gradientTransform="matrix(0.9449 0 0 1.2144 -15.3947 -46.9372)" gradientUnits="userSpaceOnUse">
	<stop  offset="0" style="stop-color:#4D4B54"/>
	<stop  offset="0.2891" style="stop-color:#47454E"/>
	<stop  offset="0.6902" style="stop-color:#35333D"/>
	<stop  offset="1" style="stop-color:#23202B"/>
	<a:midPointStop  offset="0" style="stop-color:#4D4B54"/>
	<a:midPointStop  offset="0.6364" style="stop-color:#4D4B54"/>
	<a:midPointStop  offset="1" style="stop-color:#23202B"/>
</radialGradient>
<path fill="url(#SVGID_7_)" d="M47.156,11.139c0,0-6.922,1.641-15.156,1.641c-8.235,0-15.155-1.641-15.155-1.641l-1.269,2.059
	c-0.193,5.256,33.039,5.256,32.846,0.001L47.156,11.139z"/>
<radialGradient id="SVGID_8_" cx="32.9648" cy="32.0278" r="17.5022" gradientTransform="matrix(0.9978 0 0 1.0784 -0.8922 -19.0699)" gradientUnits="userSpaceOnUse">
	<stop  offset="0.2606" style="stop-color:#B47D56"/>
	<stop  offset="0.8105" style="stop-color:#A8683B"/>
	<stop  offset="1" style="stop-color:#A36031"/>
	<a:midPointStop  offset="0.2606" style="stop-color:#B47D56"/>
	<a:midPointStop  offset="0.5347" style="stop-color:#B47D56"/>
	<a:midPointStop  offset="1" style="stop-color:#A36031"/>
</radialGradient>
<path fill="url(#SVGID_8_)" d="M32,14.966c-14.968,0-19.944-2.688-23.948-6.022C12.223,13.355,17.783,21.998,32,21.992
	c14.217,0.006,19.777-8.637,23.948-13.049C51.943,12.278,46.967,14.966,32,14.966z"/>
</svg>
