<?xml version="1.0" encoding="utf-8"?>
<!-- Generator: Adobe Illustrator 15.0.0, SVG Export Plug-In . SVG Version: 6.00 Build 0)  -->
<!DOCTYPE svg PUBLIC "-//W3C//DTD SVG 1.1//EN" "http://www.w3.org/Graphics/SVG/1.1/DTD/svg11.dtd" [
	<!ENTITY ns_flows "http://ns.adobe.com/Flows/1.0/">
	<!ENTITY ns_extend "http://ns.adobe.com/Extensibility/1.0/">
	<!ENTITY ns_ai "http://ns.adobe.com/AdobeIllustrator/10.0/">
	<!ENTITY ns_graphs "http://ns.adobe.com/Graphs/1.0/">
]>
<svg version="1.1" id="Layer_1" xmlns:x="&ns_extend;" xmlns:i="&ns_ai;" xmlns:graph="&ns_graphs;"
	 xmlns="http://www.w3.org/2000/svg" xmlns:xlink="http://www.w3.org/1999/xlink" xmlns:a="http://ns.adobe.com/AdobeSVGViewerExtensions/3.0/"
	 x="0px" y="0px" width="64px" height="64px" viewBox="0 0 64 64" enable-background="new 0 0 64 64" xml:space="preserve">
<path fill="#3AB0A2" d="M9.787,52.752c2.701-1.365,11.713-4.25,11.713-4.25l21-0.031c0,0,9.09,2.908,11.775,4.277
	C58.18,54.732,59,62,59,62H5C5,62,5.871,54.729,9.787,52.752z"/>
<path fill="#2B998D" d="M14.75,62H14C14,56.668,14.75,56.668,14.75,62z"/>
<path fill="#2B998D" d="M50,62h-0.75C49.25,56.668,50,56.668,50,62z"/>
<path fill="#2B998D" d="M21.5,48.502c0,8.123,21,8.092,21-0.031l-2.109-0.688H23.695L21.5,48.502z"/>
<path fill="#8C5F44" d="M23,48.012c0,6.357,18,6.357,18,0c0-2.164,0-7.035,0-7.035H23C23,40.977,23,45.848,23,48.012z"/>
<path id="Path_1677_" fill="#B88A6F" d="M48.441,25.394c-2.545,0.307-4.383,8.815-2.781,11.062c0.225,0.313,1.535,0.814,2.508-1.168
	c0.539-1.098,2.092-2.015,2.574-4.278C51.359,28.108,50.975,25.087,48.441,25.394z"/>
<path id="Path_1676_" fill="#B88A6F" d="M15.561,25.394c2.545,0.307,4.383,8.815,2.781,11.062c-0.225,0.313-1.535,0.814-2.51-1.168
	c-0.537-1.098-2.092-2.015-2.572-4.278C12.641,28.108,13.027,25.087,15.561,25.394z"/>
<path id="Path_1675_" fill="#8C5F44" d="M48.373,27.022c-0.664,0.209-1.389,1.221-1.781,2.898c2.32-0.498,1.74,3.361-0.277,3.434
	c0.02,0.389,0.045,0.788,0.094,1.208c0.971-1.409,1.959-0.845,2.938-2.94C50.227,29.733,50.018,26.509,48.373,27.022z"/>
<path id="Path_1674_" fill="#8C5F44" d="M17.41,29.917c-0.395-1.676-1.117-2.686-1.781-2.895c-1.643-0.514-1.855,2.711-0.973,4.6
	c0.979,2.096,1.967,1.531,2.939,2.94c0.047-0.42,0.074-0.821,0.09-1.21C15.689,33.259,15.117,29.446,17.41,29.917z"/>
<path id="Path_1673_" fill="#B88A6F" d="M32,9.034c-11.027,0-16.34,8.328-15.676,19.908c0.133,2.33,1.582,9.931,2.947,12.657
	c1.398,2.789,6.074,7.09,8.938,7.98c1.811,0.561,5.773,0.561,7.582,0c2.865-0.891,7.543-5.191,8.939-7.98
	c1.369-2.727,2.814-10.325,2.945-12.657C48.344,17.362,43.031,9.034,32,9.034z"/>
<path id="Path_1672_" fill="#78513A" d="M43.982,24.544c-2.521-1.336-7.348-1.4-9.146-0.469c-0.387,0.178-0.131,1.441,0.193,1.322
	c2.504-0.99,6.547-1.012,8.893,0.084C44.234,25.624,44.365,24.729,43.982,24.544z"/>
<path id="Path_1671_" fill="#78513A" d="M20.02,24.544c2.521-1.336,7.346-1.4,9.146-0.469c0.385,0.178,0.131,1.441-0.193,1.322
	c-2.51-0.99-6.547-1.012-8.895,0.084C19.768,25.624,19.639,24.729,20.02,24.544z"/>
<path id="Path_1670_" fill="#8C5F44" d="M34.977,36.109c-0.314-0.219-1.053,0.119-2.977,0.119c-1.92,0-2.66-0.338-2.975-0.119
	C28.648,36.375,29.248,37.57,32,37.57C34.754,37.57,35.355,36.375,34.977,36.109z"/>
<path fill="#8F604D" d="M46.086,11.793C43.672,8.532,39.254,6,32,6c-7.252,0-11.668,2.532-14.082,5.793
	C14.5,16.409,49.502,16.409,46.086,11.793z"/>
<linearGradient id="SVGID_1_" gradientUnits="userSpaceOnUse" x1="32.0015" y1="31.792" x2="32.0015" y2="10.4116">
	<stop  offset="0.5" style="stop-color:#6B4435"/>
	<stop  offset="0.6793" style="stop-color:#744B3B"/>
	<stop  offset="0.9708" style="stop-color:#8C5E4B"/>
	<stop  offset="1" style="stop-color:#8F604D"/>
	<a:midPointStop  offset="0.5" style="stop-color:#6B4435"/>
	<a:midPointStop  offset="0.6" style="stop-color:#6B4435"/>
	<a:midPointStop  offset="1" style="stop-color:#8F604D"/>
</linearGradient>
<path fill="url(#SVGID_1_)" d="M46.086,11.793C43.672,8.532,39.254,12.068,32,12.068c-7.252,0-11.668-3.536-14.082-0.275
	c-3.418,4.616-2.258,19.999-0.736,19.999c0.24,0,0.275-5.381,0.736-9.104c0.373-3.029,1.094-5.969,1.924-6.449
	C22.373,14.772,27.254,16.87,32,16.87s9.629-2.098,12.162-0.631c0.828,0.48,1.547,3.42,1.924,6.449
	c0.459,3.723,0.494,9.104,0.734,9.104C48.342,31.792,49.502,16.409,46.086,11.793z"/>
<path fill="#45332C" d="M28.815,28.86c-2.016,1.285-5.145,1.285-7.16,0c-0.309-0.197-0.492,0.016-0.395,0.182
	c1.957,3.318,5.99,3.318,7.947,0C29.308,28.876,29.122,28.663,28.815,28.86z"/>
<path fill="#45332C" d="M42.291,28.86c-2.016,1.285-5.145,1.285-7.16,0c-0.309-0.197-0.49,0.016-0.395,0.182
	c1.957,3.318,5.99,3.318,7.947,0C42.783,28.876,42.598,28.663,42.291,28.86z"/>
<path fill="#854F34" d="M27.386,42.979c2.813-1.716,6.422-1.716,9.232,0c0.398,0.242,0.447-0.018,0.324-0.227
	c-2.08-3.498-7.801-3.498-9.881,0C26.938,42.961,26.985,43.221,27.386,42.979z"/>
<path opacity="0.3" enable-background="new    " d="M46.436,49.773c0,0-13.252-12.988-4.291-26.897
	c-3.654,0.201-4.164,5.017-4.289,3.142c-0.17-2.584-1.127-7.517-1.256-8.847c-0.229-2.407-3.308-2.356-3.578,0.047
	c0.133,1.707,0.747,6.765,0.606,6.779c-0.133,0.012-2.873-6.564-3.246-7.42c-1.03-2.371-3.753-1.635-3.358,0.953
	c0.764,2.768,2.752,7.172,2.542,7.248c-0.179,0.064-3.456-4.733-3.917-5.529c-1.194-2.061-4.213-0.242-2.797,1.922
	c0.053,0.082,3.86,5.726,3.667,5.797c-0.161,0.06-2.893-2.733-2.893-2.733c-1.368-1.189-3.329,0.207-2.228,1.781
	c2.455,3.513,3.28,3.13,4.589,7.372c0.643,2.087,2.158,4.761,3.875,5.392c0.068,0.361,0.1,0.656,0.219,1.047
	c-0.217,0.25-0.248,0.836-0.197,1.045C32.8,51.987,38.218,62,38.218,62h16.415C54.633,62,48.616,52.393,46.436,49.773z"/>
<path fill="#3AB0A2" d="M30.443,40.152c-0.428-1.715,9.511-5.307,9.988-3.201C42.054,44.082,54.002,62,54.002,62l-14.721-0.002
	C39.281,61.998,33.529,52.492,30.443,40.152z"/>
<path fill="#D19D7E" d="M39.727,36.781c0.455,1.248-8.386,4.465-8.838,3.217C27.898,31.788,36.843,28.858,39.727,36.781z"/>
<path fill="#D19D7E" d="M41.35,23.051c-2.976,1.156-2.15,4.228-3.283,3.828c-0.232-0.082-0.564-0.78-0.59-1.141
	c-0.166-2.582-0.689-7.273-0.818-8.604c-0.229-2.405-3.527-2.145-3.297,0.265c0.012,0.119,1.121,8.869,0.979,8.885
	c-0.133,0.012-3.562-9.123-3.935-9.979c-1.029-2.371-4.086-0.959-3.002,1.387c0.043,0.096,3.929,9.686,3.719,9.762
	c-0.18,0.064-4.813-7.44-5.298-8.223c-1.365-2.197-4.187-0.355-2.771,1.807c0.055,0.082,5.1,7.496,4.905,7.566
	c-0.161,0.059-4.162-4.289-4.162-4.289c-1.358-1.662-3.496,0.055-2.136,1.719c2.888,3.533,3.842,3.848,5.15,8.09
	c1.139,3.691,4.198,5.516,8.338,4.016c9.05-3.279,4.121-8.852,8.233-14.066C43.898,23.426,42.833,22.478,41.35,23.051z"/>
</svg>
