<?xml version="1.0" encoding="utf-8"?>
<!-- Generator: Adobe Illustrator 15.0.0, SVG Export Plug-In . SVG Version: 6.00 Build 0)  -->
<!DOCTYPE svg PUBLIC "-//W3C//DTD SVG 1.1//EN" "http://www.w3.org/Graphics/SVG/1.1/DTD/svg11.dtd" [
	<!ENTITY ns_flows "http://ns.adobe.com/Flows/1.0/">
	<!ENTITY ns_extend "http://ns.adobe.com/Extensibility/1.0/">
	<!ENTITY ns_ai "http://ns.adobe.com/AdobeIllustrator/10.0/">
	<!ENTITY ns_graphs "http://ns.adobe.com/Graphs/1.0/">
]>
<svg version="1.1" id="Layer_1" xmlns:x="&ns_extend;" xmlns:i="&ns_ai;" xmlns:graph="&ns_graphs;"
	 xmlns="http://www.w3.org/2000/svg" xmlns:xlink="http://www.w3.org/1999/xlink" xmlns:a="http://ns.adobe.com/AdobeSVGViewerExtensions/3.0/"
	 x="0px" y="0px" width="64px" height="64px" viewBox="0 0 64 64" enable-background="new 0 0 64 64" xml:space="preserve">
<linearGradient id="SVGID_1_" gradientUnits="userSpaceOnUse" x1="32.0005" y1="62" x2="32.0005" y2="2.0005">
	<stop  offset="0" style="stop-color:#FF9500"/>
	<stop  offset="0.0934" style="stop-color:#FF9F03"/>
	<stop  offset="0.4902" style="stop-color:#FFC710"/>
	<stop  offset="0.8062" style="stop-color:#FFDF17"/>
	<stop  offset="1" style="stop-color:#FFE81A"/>
	<a:midPointStop  offset="0" style="stop-color:#FF9500"/>
	<a:midPointStop  offset="0.4" style="stop-color:#FF9500"/>
	<a:midPointStop  offset="1" style="stop-color:#FFE81A"/>
</linearGradient>
<circle fill="url(#SVGID_1_)" cx="32" cy="32" r="30"/>
<path fill="#D69600" d="M36.316,16.821c6.275-2.584,8.906-4.239,14.977-0.425c0.633,0.397,0.068,1.227-0.635,0.926
	c-5.785-2.474-9.416,1.508-14.033,2.805C35.732,20.378,35.725,17.065,36.316,16.821z"/>
<path fill="#1A1626" d="M37.107,48H26.895c-2.524,0-2.524-4,0-4h10.213C39.631,44,39.631,48,37.107,48z"/>
<ellipse fill="#1A1626" cx="22" cy="29.5" rx="4" ry="4.5"/>
<ellipse fill="#1A1626" cx="42" cy="28.5" rx="4" ry="5.5"/>
<path fill="#D69600" d="M27.096,20.619c-3.795,0.169-8.471-2.889-14.396,1.369c-0.708,0.509-0.388,1.464,0.364,1.053
	c5.376-2.943,10.12,1.711,14.741,0.77C28.552,23.658,27.861,20.584,27.096,20.619z"/>
</svg>
