<?xml version="1.0" encoding="utf-8"?>
<!-- Generator: Adobe Illustrator 15.0.0, SVG Export Plug-In . SVG Version: 6.00 Build 0)  -->
<!DOCTYPE svg PUBLIC "-//W3C//DTD SVG 1.1//EN" "http://www.w3.org/Graphics/SVG/1.1/DTD/svg11.dtd" [
	<!ENTITY ns_flows "http://ns.adobe.com/Flows/1.0/">
	<!ENTITY ns_extend "http://ns.adobe.com/Extensibility/1.0/">
	<!ENTITY ns_ai "http://ns.adobe.com/AdobeIllustrator/10.0/">
	<!ENTITY ns_graphs "http://ns.adobe.com/Graphs/1.0/">
]>
<svg version="1.1" id="Layer_1" xmlns:x="&ns_extend;" xmlns:i="&ns_ai;" xmlns:graph="&ns_graphs;"
	 xmlns="http://www.w3.org/2000/svg" xmlns:xlink="http://www.w3.org/1999/xlink" xmlns:a="http://ns.adobe.com/AdobeSVGViewerExtensions/3.0/"
	 x="0px" y="0px" width="64px" height="64px" viewBox="0 0 64 64" enable-background="new 0 0 64 64" xml:space="preserve">
<path fill="#FF7A00" d="M11.432,52.752c2.502-1.365,11.068-4.331,11.068-4.331l18.977-0.037c0,0,8.662,2.995,11.148,4.364
	C56.24,54.732,57,62,57,62H7C7,62,7.807,54.729,11.432,52.752z"/>
<path fill="#ED6A00" d="M16.027,62h-0.695C15.332,56.667,16.027,56.667,16.027,62z"/>
<path fill="#ED6A00" d="M22.5,48.421c0,8.123,18.977,8.086,18.977-0.037l-1.707-0.601H24.311L22.5,48.421z"/>
<path fill="#69452D" d="M24,48.011c0,6.358,16,6.358,16,0c0-2.164,0-7.035,0-7.035H24C24,40.976,24,45.847,24,48.011z"/>
<path fill="#3B2118" d="M47.209,38.785c1.084,0.714,2.332,1.247,3.789,1.521c-2.588-5.888,1.313-18.237-6.682-27.311
	c-11.271,0.337-12.83,36.722,2.881,31.883c-1-0.433-1.627-1.316-1.994-2.43c1.211,0.347,2.625,0.358,4.275-0.148
	C48.166,41.733,47.498,40.398,47.209,38.785z"/>
<path fill="#3B2118" d="M18.918,12.995c-7.994,9.073-3.334,21.423-5.92,27.311c1.455-0.273,2.705-0.807,3.787-1.521
	c-0.287,1.613-0.957,2.948-2.268,3.515c1.646,0.507,3.063,0.495,4.273,0.148c-0.367,1.113-0.994,1.997-1.994,2.43
	C32.506,49.717,30.189,13.332,18.918,12.995z"/>
<path id="Path_1817_" fill="#916B50" d="M48.439,25.392c-2.545,0.309-4.383,8.816-2.783,11.062c0.225,0.314,1.537,0.813,2.51-1.168
	c0.537-1.097,2.092-2.013,2.572-4.276C51.357,28.109,50.973,25.085,48.439,25.392z"/>
<path id="Path_1816_" fill="#916B50" d="M15.557,25.392c2.545,0.309,4.383,8.816,2.781,11.062c-0.223,0.314-1.537,0.813-2.508-1.168
	c-0.539-1.097-2.094-2.013-2.574-4.276C12.639,28.109,13.023,25.085,15.557,25.392z"/>
<path id="Path_1815_" fill="#69452D" d="M48.371,27.023c-0.664,0.208-1.389,1.219-1.783,2.896c2.322-0.498,1.742,3.361-0.275,3.435
	c0.018,0.388,0.045,0.788,0.092,1.208c0.973-1.41,1.961-0.844,2.939-2.94C50.225,29.731,50.016,26.508,48.371,27.023z"/>
<path id="Path_1814_" fill="#69452D" d="M17.406,29.915c-0.393-1.674-1.115-2.685-1.779-2.892c-1.645-0.516-1.855,2.708-0.975,4.599
	c0.979,2.097,1.965,1.53,2.939,2.94c0.047-0.422,0.074-0.821,0.09-1.21C15.686,33.258,15.113,29.445,17.406,29.915z"/>
<path fill="#916B50" d="M31.998,9.034C20.969,9.034,15.656,18,16.32,29.527c0.137,2.317,0.781,5.66,1.58,8.524
	C19.553,44.005,28.281,50,31.998,50c3.715,0,12.443-5.995,14.098-11.948c0.797-2.864,1.443-6.207,1.58-8.524
	C48.338,18,43.027,9.034,31.998,9.034z"/>
<path id="Path_1813_" fill="#5E4431" d="M43.979,24.544c-2.521-1.336-7.348-1.4-9.146-0.469c-0.387,0.178-0.131,1.441,0.193,1.322
	c2.504-0.99,6.547-1.012,8.893,0.084C44.23,25.624,44.361,24.729,43.979,24.544z"/>
<path id="Path_1812_" fill="#5E4431" d="M20.016,24.544c2.521-1.336,7.346-1.4,9.146-0.469c0.385,0.178,0.131,1.441-0.193,1.322
	c-2.51-0.99-6.547-1.012-8.895,0.084C19.764,25.624,19.635,24.729,20.016,24.544z"/>
<path id="Path_1811_" fill="#69452D" d="M34.973,36.108c-0.314-0.219-1.053,0.119-2.977,0.119c-1.92,0-2.66-0.338-2.975-0.119
	c-0.377,0.266,0.223,1.461,2.975,1.461C34.75,37.569,35.352,36.374,34.973,36.108z"/>
<path fill="#45332C" d="M28.813,28.86c-2.016,1.285-5.145,1.285-7.16,0c-0.309-0.197-0.492,0.016-0.395,0.182
	c1.957,3.318,5.99,3.318,7.947,0C29.305,28.876,29.119,28.663,28.813,28.86z"/>
<path fill="#45332C" d="M42.287,28.86c-2.016,1.285-5.145,1.285-7.16,0c-0.309-0.197-0.49,0.016-0.395,0.182
	c1.957,3.318,5.99,3.318,7.947,0C42.779,28.876,42.594,28.663,42.287,28.86z"/>
<path fill="#5C3821" d="M27.383,42.979c2.813-1.716,6.422-1.716,9.232,0c0.398,0.241,0.447-0.019,0.324-0.227
	c-2.08-3.498-7.801-3.498-9.881,0C26.936,42.96,26.982,43.22,27.383,42.979z"/>
<linearGradient id="SVGID_1_" gradientUnits="userSpaceOnUse" x1="31.834" y1="31.8174" x2="31.834" y2="6">
	<stop  offset="0" style="stop-color:#3B2118"/>
	<stop  offset="0.0953" style="stop-color:#40251C"/>
	<stop  offset="0.6555" style="stop-color:#58392F"/>
	<stop  offset="1" style="stop-color:#614036"/>
	<a:midPointStop  offset="0" style="stop-color:#3B2118"/>
	<a:midPointStop  offset="0.4" style="stop-color:#3B2118"/>
	<a:midPointStop  offset="1" style="stop-color:#614036"/>
</linearGradient>
<path fill="url(#SVGID_1_)" d="M32,6c-6.713,0-10.064,3.034-10.744,4.473c-8.113,1.852-10.723,15.516-4.65,21.345
	c0.756-6.211,1.48-10.201,5.617-14.404c2.412,3.227,7.424,5.042,11.91,5.042c-2.123-1.541-3.572-3.051-4.709-4.458
	c7.492,3.433,15.885,5.63,17.967,13.82C54.6,20.358,48.611,6,32,6z"/>
<path fill="#3B2118" d="M21.256,10.472c-0.104,5.72,2.207,10,12.879,11.982C26.484,22.97,18.635,18.348,21.256,10.472z"/>
<path fill="#3B2118" d="M21.926,17.048c-2.787,2.746-5.914,7.504-5.32,14.77c0.555-6.005,3.313-10.949,5.811-14.153
	C22.24,17.472,22.076,17.266,21.926,17.048z"/>
<path fill="#3B2118" d="M26.703,15.235c5.594,5.341,19.344,4.994,20.688,16.582C43.803,20.546,31.645,23.074,26.703,15.235z"/>
<path opacity="0.3" enable-background="new    " d="M46.617,49.772c0,0-13.252-12.988-4.291-26.896
	c-3.654,0.201-4.164,5.016-4.289,3.141c-0.17-2.584-1.127-7.516-1.256-8.846c-0.229-2.408-3.307-2.357-3.578,0.047
	c0.133,1.706,0.748,6.764,0.607,6.779c-0.133,0.012-2.873-6.565-3.246-7.42c-1.031-2.371-3.754-1.636-3.359,0.952
	c0.764,2.769,2.752,7.173,2.543,7.249c-0.18,0.063-3.457-4.733-3.918-5.529c-1.193-2.062-4.213-0.242-2.797,1.922
	c0.053,0.082,3.861,5.726,3.668,5.797c-0.162,0.059-2.893-2.734-2.893-2.734c-1.369-1.188-3.33,0.207-2.229,1.781
	c2.455,3.513,3.281,3.13,4.59,7.373c0.643,2.086,2.158,4.76,3.875,5.391c0.068,0.362,0.1,0.656,0.219,1.047
	c-0.217,0.25-0.248,0.836-0.197,1.045C32.982,51.986,38.4,62,38.4,62h16.414C54.814,62,48.799,52.392,46.617,49.772z"/>
<path fill="#FF7A00" d="M30.625,40.152c-0.428-1.715,9.512-5.307,9.988-3.201C42.236,44.082,54.184,62,54.184,62l-14.721-0.002
	C39.463,61.998,33.711,52.492,30.625,40.152z"/>
<path fill="#AD8060" d="M39.908,36.781c0.455,1.248-8.385,4.465-8.838,3.217C28.08,31.788,37.025,28.857,39.908,36.781z"/>
<path fill="#AD8060" d="M41.531,23.051c-2.975,1.156-2.15,4.227-3.283,3.828c-0.232-0.082-0.564-0.781-0.59-1.142
	c-0.166-2.581-0.689-7.272-0.818-8.604c-0.229-2.406-3.527-2.145-3.297,0.264c0.012,0.119,1.121,8.869,0.98,8.886
	c-0.133,0.012-3.563-9.123-3.936-9.979c-1.029-2.371-4.086-0.959-3.002,1.387c0.043,0.097,3.93,9.687,3.719,9.763
	c-0.18,0.063-4.813-7.441-5.297-8.224c-1.365-2.196-4.188-0.354-2.771,1.808c0.055,0.082,5.1,7.496,4.906,7.565
	c-0.162,0.06-4.162-4.289-4.162-4.289c-1.359-1.662-3.496,0.056-2.137,1.72c2.889,3.532,3.842,3.848,5.15,8.089
	c1.139,3.692,4.199,5.517,8.338,4.017c9.051-3.279,4.121-8.852,8.234-14.067C44.08,23.426,43.016,22.477,41.531,23.051z"/>
</svg>
