<?xml version="1.0" encoding="utf-8"?>
<!-- Generator: Adobe Illustrator 15.0.0, SVG Export Plug-In . SVG Version: 6.00 Build 0)  -->
<!DOCTYPE svg PUBLIC "-//W3C//DTD SVG 1.1//EN" "http://www.w3.org/Graphics/SVG/1.1/DTD/svg11.dtd" [
	<!ENTITY ns_flows "http://ns.adobe.com/Flows/1.0/">
	<!ENTITY ns_extend "http://ns.adobe.com/Extensibility/1.0/">
	<!ENTITY ns_ai "http://ns.adobe.com/AdobeIllustrator/10.0/">
	<!ENTITY ns_graphs "http://ns.adobe.com/Graphs/1.0/">
]>
<svg version="1.1" id="Layer_1" xmlns:x="&ns_extend;" xmlns:i="&ns_ai;" xmlns:graph="&ns_graphs;"
	 xmlns="http://www.w3.org/2000/svg" xmlns:xlink="http://www.w3.org/1999/xlink" xmlns:a="http://ns.adobe.com/AdobeSVGViewerExtensions/3.0/"
	 x="0px" y="0px" width="64px" height="64px" viewBox="0 0 64 64" enable-background="new 0 0 64 64" xml:space="preserve">
<path fill="#916B50" d="M9.463,50.942c5.502-4.254,4.793-6.424,8.125-9.572c2.859-4.865,2.172-10.082,7.063-11.891
	c3.1,3.213,0.041,8.146-2.27,11.16c-0.531,3.41-4.816,7.951-8.168,10.889C9.102,56.007,6.119,53.53,9.463,50.942z"/>
<path fill="#916B50" d="M49.893,15.437c-1.85,4.166-3.143,5.82-4.086,8.035c-3.313,1.643-4.656,0.746-7.875,2.176
	c-7.076,3.482-1.635,16.047,0.375,11.373c0.637-6.664,4.74-6.643,10.24-9.607c1.531-0.822,4.166-11.031,4.166-11.031
	S50.193,14.757,49.893,15.437z"/>
<path fill="#8E3ED6" d="M37.932,25.647c-9.047,1.578-13.281,3.832-13.281,3.832c-1.043,4.658-5.902,8.715-2.301,12.652
	c1.209,1.32,0.652,5.436-0.73,9.885l14.012-1.99c0.328-5.844,2.836-5.506,2.676-13.006C36.832,38.399,33.98,28.974,37.932,25.647z"
	/>
<path fill="#48C2F9" d="M2,61.999h60V49.163c-32.494-0.939-42.373,3.053-60,1.004V61.999z"/>
<path fill="#7ED2FC" d="M62,54.823c-22.668-0.26-39.189,2.209-60,1.5v5.676h60V54.823z"/>
<path fill="#732EB0" d="M35.281,38.05c0.621,2.852-3.291,5.477-5.443,3.816C31.865,42.046,34.422,39.71,35.281,38.05z"/>
<radialGradient id="SVGID_1_" cx="53.7734" cy="8.4424" r="8.0095" gradientTransform="matrix(0.9987 0 0 1 -0.5357 0)" gradientUnits="userSpaceOnUse">
	<stop  offset="0" style="stop-color:#FAE803"/>
	<stop  offset="0.2582" style="stop-color:#FAE103"/>
	<stop  offset="0.636" style="stop-color:#FACD03"/>
	<stop  offset="1" style="stop-color:#FAB403"/>
	<a:midPointStop  offset="0" style="stop-color:#FAE803"/>
	<a:midPointStop  offset="0.6242" style="stop-color:#FAE803"/>
	<a:midPointStop  offset="1" style="stop-color:#FAB403"/>
</radialGradient>
<ellipse fill="url(#SVGID_1_)" cx="54" cy="10.011" rx="8" ry="8.01"/>
<path fill="#302C3B" d="M61.111,6.792c-0.531-0.748-1.07-1.195-1.395-1.424c0.074-0.268,0.127-0.531,0.158-0.791
	c-0.098-0.109-0.199-0.213-0.303-0.313c-0.102,2.291-2.508,5.16-3.305,6.109c-0.043,0.051-0.08,0.096-0.115,0.137
	c-0.965-0.234-2.119-0.488-3.303-0.736c0.852-2.914,2.455-6.189,4.205-7.168c-0.127-0.053-0.256-0.102-0.385-0.148
	c-1.854,1.227-3.363,4.576-4.143,7.25c-1.326-0.275-2.668-0.541-3.795-0.76c0.121-1.242,0.5-2.635,1.02-3.754
	c0.707-1.521,1.682-2.578,2.824-3.068c-0.387,0.07-0.762,0.168-1.125,0.289c-0.787,0.607-1.467,1.502-1.998,2.643
	c-0.529,1.141-0.914,2.557-1.045,3.828C47.9,8.788,47.445,8.7,47.064,8.628c-0.143-0.027-0.273-0.053-0.393-0.074
	c-0.045-0.516-0.039-1.732,0.756-3.109c-0.463,0.666-0.826,1.402-1.07,2.191c-0.047,0.439-0.029,0.791-0.006,1.018
	c-0.123,0.209-0.234,0.469-0.33,0.768C46.008,9.616,46,9.812,46,10.011c0,0.375,0.025,0.746,0.076,1.109
	c0.018-0.922,0.244-1.734,0.529-2.248c0.121,0.023,0.254,0.049,0.396,0.074c2.07,0.398,6.355,1.217,9.078,1.885
	c0.305,1.074,0.545,2.053,0.715,2.914c-1.441,0.445-3.811,0.49-5.963,0.105c-2.465-0.438-4.172-1.322-4.709-2.436
	c0.049,0.285,0.115,0.563,0.195,0.836c0.336,0.354,0.789,0.674,1.355,0.959c0.828,0.416,1.902,0.75,3.1,0.963
	c0.992,0.176,2.031,0.264,3.01,0.264c1.174,0,2.26-0.125,3.074-0.369c0.189,1.035,0.275,1.889,0.25,2.518
	c-1.068,0.578-2.721,0.883-4.34,0.799c-1.307-0.064-2.486-0.369-3.445-0.875c0.568,0.41,1.191,0.748,1.855,0.998
	c0.5,0.107,1.025,0.176,1.574,0.203c0.178,0.01,0.357,0.014,0.537,0.014c1.406,0,2.793-0.275,3.785-0.756
	c-0.027,0.195-0.068,0.359-0.127,0.492c0.135-0.055,0.268-0.111,0.398-0.172c0.357-1.48-0.41-4.645-0.951-6.557
	c0.037-0.043,0.078-0.094,0.125-0.15c0.387-0.459,1.043-1.24,1.676-2.174c1.107,1.395,2.957,3.854,2.002,6.668
	c0.186-0.229,0.357-0.465,0.518-0.711c0.182-1.072,0.027-2.189-0.467-3.334c-0.521-1.211-1.318-2.225-1.863-2.91
	c0.49-0.754,0.947-1.588,1.229-2.424c0.291,0.217,0.768,0.631,1.232,1.285c0.539,0.758,0.922,1.631,1.143,2.6
	c-0.035-0.652-0.146-1.283-0.328-1.883C61.5,7.38,61.316,7.079,61.111,6.792z"/>
<path fill="#855E45" d="M24.805,28.206c1.645-0.783,2.418,0.723,2.529,1.324c0.361,1.98,7.314-0.33,6.48-2.604
	c-0.727-1.977,0.242-4.344,0.242-4.344C32.961,21.958,29.107,14.858,24.805,28.206z"/>
<path fill="#916B50" d="M25.986,8.61c-4.996,0.797-6.828,4.365-6.023,8.57c0.182,0.951-0.43,2.578-1.639,3.623
	c-0.439,0.381-0.484,0.885-0.27,1.221c0.424,0.66,1.35,0.666,1.738,0.914c0.865,0.551-0.004,1.162,0.648,1.813
	c0.297,0.295,1.146-0.096,0.25,1.471c0.994,0.729-0.25,2.381,1.898,2.754c1.018,0.176,4.924-1.385,6.977-4.131
	c1.158-1.555,1.346-3.359,1.346-3.359c3.834-1.105,5.189-4.453,4.363-7.957C34.119,8.628,29.227,8.091,25.986,8.61z"/>
<path fill="#733B2A" d="M20.441,24.751c0.471,0.287,0.264,0.738,0.264,0.738c-0.225,0-0.279,0.744,0.055,0.744
	c1.17,0,2.244-1.004,2.596-1.611C21.521,24.53,19.512,23.704,20.441,24.751z"/>
<path fill="#FFFFFF" d="M20.441,24.751c0,0,0.18,0.641,0.264,0.738c0.369,0,1.563-0.264,2.299-0.748L20.441,24.751z"/>
<path fill="#69452D" d="M18.07,22.03c0.346,0.92,2.557,1.119,3.266,0C20.168,22.874,17.867,21.495,18.07,22.03z"/>
<path id="Path_2389_" fill="#5E4431" d="M24.5,16.319c-1.063-0.615-3.096-0.645-3.854-0.219c-0.162,0.084-0.055,0.666,0.082,0.611
	c1.057-0.457,2.758-0.467,3.748,0.037C24.607,16.815,24.662,16.403,24.5,16.319z"/>
<path fill="#FFFFFF" d="M24.057,18.472c0.025,0.27-0.826,1.242-1.91,1.332c-0.619,0.051-0.84-0.428-0.977-0.941
	C21.035,16.812,23.447,17.542,24.057,18.472z"/>
<linearGradient id="Path_1_" gradientUnits="userSpaceOnUse" x1="21.9912" y1="19.7202" x2="21.9912" y2="17.5625">
	<stop  offset="0" style="stop-color:#A6694A"/>
	<stop  offset="1" style="stop-color:#4F2A1E"/>
	<a:midPointStop  offset="0" style="stop-color:#A6694A"/>
	<a:midPointStop  offset="0.5" style="stop-color:#A6694A"/>
	<a:midPointStop  offset="1" style="stop-color:#4F2A1E"/>
</linearGradient>
<path id="Path_2388_" fill="url(#Path_1_)" d="M21.127,18.603c0,1.49,1.729,1.49,1.729,0C22.855,17.216,21.127,17.216,21.127,18.603
	z"/>
<path id="Path_2387_" fill="#1A1626" d="M21.307,18.534c0,0.746,0.863,0.746,0.863,0C22.17,17.839,21.307,17.839,21.307,18.534z"/>
<path id="Path_2386_" fill="#AB968C" d="M21.842,18.231c0,0.314,0.5,0.314,0.5,0C22.342,17.942,21.842,17.942,21.842,18.231z"/>
<path fill="#45332C" d="M24.057,18.472c-0.465-0.93-2.781-1.607-2.844-0.352C21.539,17.274,23.256,17.737,24.057,18.472z"/>
<linearGradient id="SVGID_2_" gradientUnits="userSpaceOnUse" x1="20.3574" y1="15.4307" x2="38.3604" y2="15.4307">
	<stop  offset="0" style="stop-color:#8E3ED6"/>
	<stop  offset="0.2286" style="stop-color:#8A3BD1"/>
	<stop  offset="0.5057" style="stop-color:#7F34C2"/>
	<stop  offset="0.8069" style="stop-color:#6C28AA"/>
	<stop  offset="1" style="stop-color:#5D1E96"/>
	<a:midPointStop  offset="0" style="stop-color:#8E3ED6"/>
	<a:midPointStop  offset="0.6667" style="stop-color:#8E3ED6"/>
	<a:midPointStop  offset="1" style="stop-color:#5D1E96"/>
</linearGradient>
<path fill="url(#SVGID_2_)" d="M38.021,13.401c-2.527-9.529-16.107-8.172-17.664-1.021c0,0,9.463-0.289,13.27,11.846
	C36.807,22.608,39.291,18.122,38.021,13.401z"/>
<linearGradient id="SVGID_3_" gradientUnits="userSpaceOnUse" x1="28.4155" y1="19.7666" x2="34.0527" y2="19.7666">
	<stop  offset="0" style="stop-color:#8E3ED6"/>
	<stop  offset="0.2286" style="stop-color:#8A3BD1"/>
	<stop  offset="0.5057" style="stop-color:#7F34C2"/>
	<stop  offset="0.8069" style="stop-color:#6C28AA"/>
	<stop  offset="1" style="stop-color:#5D1E96"/>
	<a:midPointStop  offset="0" style="stop-color:#8E3ED6"/>
	<a:midPointStop  offset="0.6667" style="stop-color:#8E3ED6"/>
	<a:midPointStop  offset="1" style="stop-color:#5D1E96"/>
</linearGradient>
<path fill="url(#SVGID_3_)" d="M34.053,19.526c0.051,3.789-5.584,4.273-5.637,0.482C28.361,16.218,33.996,15.733,34.053,19.526z"/>
</svg>
