<?xml version="1.0" encoding="utf-8"?>
<!-- Generator: Adobe Illustrator 15.0.0, SVG Export Plug-In . SVG Version: 6.00 Build 0)  -->
<!DOCTYPE svg PUBLIC "-//W3C//DTD SVG 1.1//EN" "http://www.w3.org/Graphics/SVG/1.1/DTD/svg11.dtd" [
	<!ENTITY ns_flows "http://ns.adobe.com/Flows/1.0/">
	<!ENTITY ns_extend "http://ns.adobe.com/Extensibility/1.0/">
	<!ENTITY ns_ai "http://ns.adobe.com/AdobeIllustrator/10.0/">
	<!ENTITY ns_graphs "http://ns.adobe.com/Graphs/1.0/">
]>
<svg version="1.1" id="Layer_1" xmlns:x="&ns_extend;" xmlns:i="&ns_ai;" xmlns:graph="&ns_graphs;"
	 xmlns="http://www.w3.org/2000/svg" xmlns:xlink="http://www.w3.org/1999/xlink" xmlns:a="http://ns.adobe.com/AdobeSVGViewerExtensions/3.0/"
	 x="0px" y="0px" width="64px" height="64px" viewBox="0 0 64 64" enable-background="new 0 0 64 64" xml:space="preserve">
<path fill="#E6EBEF" d="M22.644,43.705c-2.674,1.084-3.35,5.258-6.73,7.969c-1.406-1.703-3.586-4.521-4.436-6.74
	c0,0-3.385-0.672-4.916,0.57c1.453,4.814,4.578,9.586,7.078,12.557c1.582,1.881,8.688-1.941,10.268-5.82
	C23.907,52.24,24.169,50.504,22.644,43.705z"/>
<path fill="#8C5F44" d="M5.378,43.734c0.449,0.211,1.611-2.158,1.16-2.369c0,0-2.299-0.738-3.023-0.715
	c-1.713,0.055-1.693,1.486-1.287,1.588C3.411,42.525,5.378,43.734,5.378,43.734z"/>
<path fill="#B88A6F" d="M5.583,36.65c-0.049,2.545,0.529,4.285,0.529,4.285c0-1.25,0.141-3.623,0.313-4.66
	c0.238-1.436,2.178-1.604,2.047-0.158c-0.209,2.311,0.107,4.803,0.107,4.803s0.262-2.199,0.42-4.049
	c0.123-1.398,1.973-1.254,1.945,0.148c-0.021,1.131-0.379,4.594-0.379,4.594s0.641-0.834,0.797-2.852
	c0.082-1.053,1.324-0.74,1.359,0.301c0.061,1.854-0.203,2.326-0.438,3.197c-0.125,0.465-0.176,1.764-0.957,3.094
	c-0.484,0.824-3.6,1.061-4.5,0.404c-0.508-0.373-2.197-2.746-2.574-3.559c-0.41-0.881-0.748-3.271-0.609-5.289
	C3.743,35.453,5.61,35.189,5.583,36.65z"/>
<path fill="#E6EBEF" d="M45.356,43.705c4.266,2.668,5.41,14.734,12.58,15.484c-1.176,2.533-3.877,2.529-5.563,2.529
	c-2.604,0-6.242-5.859-8.354-8.313C44.021,53.406,43.831,50.504,45.356,43.705z"/>
<path fill="#E6EBEF" d="M22.644,43.705c1.598-1.072,7.313-2.895,7.313-2.895h8.141c0,0,5.674,1.816,7.26,2.895L44.716,62H23.302
	L22.644,43.705z"/>
<rect x="34.862" y="40.811" fill="#CFD8DD" width="0.25" height="21.189"/>
<rect x="32.89" y="40.811" fill="#CFD8DD" width="0.25" height="21.189"/>
<path fill="#3AB0A2" d="M25.095,42.545c1.178-0.592,2.363-0.891,2.363-0.891V62h-2.363V42.545z"/>
<path fill="#3AB0A2" d="M42.931,42.545c-1.176-0.592-2.363-0.891-2.363-0.891V62h2.363V42.545z"/>
<path fill="#8C5F44" d="M59.759,59.262c-0.313,0.375-2.43-1.277-2.121-1.654c0,0,1.74-1.619,2.404-1.896
	c1.568-0.658,2.197,0.639,1.877,0.896C60.983,57.359,59.759,59.262,59.759,59.262z"/>
<radialGradient id="SVGID_1_" cx="55.1611" cy="53.75" r="4.5" gradientUnits="userSpaceOnUse">
	<stop  offset="0.2121" style="stop-color:#FF3B3B"/>
	<stop  offset="0.4183" style="stop-color:#F63131"/>
	<stop  offset="0.7712" style="stop-color:#DE1615"/>
	<stop  offset="1" style="stop-color:#CC0100"/>
	<a:midPointStop  offset="0.2121" style="stop-color:#FF3B3B"/>
	<a:midPointStop  offset="0.5879" style="stop-color:#FF3B3B"/>
	<a:midPointStop  offset="1" style="stop-color:#CC0100"/>
</radialGradient>
<path fill="url(#SVGID_1_)" d="M56.036,50.5c-2.482,0-4.5,2.018-4.5,4.504c0,2.484,2.018,4.496,4.5,4.496
	c2.484,0,4.5-2.012,4.5-4.496C60.536,52.518,58.521,50.5,56.036,50.5z"/>
<radialGradient id="SVGID_2_" cx="633.4668" cy="-21.2969" r="3.2019" gradientTransform="matrix(0.3583 0.4654 -0.7924 0.61 -189.2077 -228.6484)" gradientUnits="userSpaceOnUse">
	<stop  offset="0" style="stop-color:#FFFFFF"/>
	<stop  offset="1" style="stop-color:#FFFFFF;stop-opacity:0"/>
	<a:midPointStop  offset="0" style="stop-color:#FFFFFF"/>
	<a:midPointStop  offset="0.4857" style="stop-color:#FFFFFF"/>
	<a:midPointStop  offset="1" style="stop-color:#FFFFFF;stop-opacity:0"/>
</radialGradient>
<path opacity="0.5" fill="url(#SVGID_2_)" d="M55.786,54.666c-1.402,1.078-3.051,1.285-3.684,0.463
	c-0.635-0.824-0.014-2.365,1.389-3.443c1.4-1.08,3.051-1.287,3.684-0.465C57.81,52.045,57.187,53.586,55.786,54.666z"/>
<path fill="#B88A6F" d="M58.774,57.584c-0.1,0.586-0.354,1.068-0.354,1.068s0.119-1.201,0-1.871
	c-0.236-1.324-2.025-1.211-1.936,0.066c0.074,1.043-0.311,1.998-0.311,1.998s-0.244-0.955-0.354-1.953
	c-0.15-1.375-2.166-1.219-2.102,0.162c0.037,0.762,0.16,1.775,0.16,1.775s-0.262-0.516-0.387-1.113
	c-0.27-1.297-1.967-1.293-1.764,0.021c0.396,2.555,2.09,2.568,2.371,1.914c0.338,0.775,1.477,0.709,1.943,0.242
	c0.385,0.451,1.789,0.533,2.156-0.129c0.691,0.676,1.924-0.08,2.143-1.535C60.538,56.938,58.993,56.295,58.774,57.584z"/>
<rect x="29.677" y="38.371" fill="#8C5F44" width="8.646" height="4.689"/>
<path fill="#F5F5F5" d="M38.323,40.193l1.256,1.135l-1.08,4.318l-4.5-2.586L38.323,40.193z"/>
<path fill="#F5F5F5" d="M29.677,40.193l-1.256,1.135l1.08,4.318l4.5-2.586L29.677,40.193z"/>
<radialGradient id="SVGID_3_" cx="585.3447" cy="-103.7407" r="14.9007" fx="573.4222" fy="-98.3342" gradientTransform="matrix(-0.8672 -1.000000e-004 -5.047310e-005 -0.525 534.1432 -5.6712)" gradientUnits="userSpaceOnUse">
	<stop  offset="0.2606" style="stop-color:#3AB0A2"/>
	<stop  offset="0.3636" style="stop-color:#2B998D"/>
	<stop  offset="0.503" style="stop-color:#3AB0A2"/>
	<a:midPointStop  offset="0.2606" style="stop-color:#3AB0A2"/>
	<a:midPointStop  offset="0.5" style="stop-color:#3AB0A2"/>
	<a:midPointStop  offset="0.3636" style="stop-color:#2B998D"/>
	<a:midPointStop  offset="0.5" style="stop-color:#2B998D"/>
	<a:midPointStop  offset="0.503" style="stop-color:#3AB0A2"/>
</radialGradient>
<path fill="url(#SVGID_3_)" d="M33.688,44.207c-0.646,2.105-3.98,2.676-4.176,2.365c-0.4-0.631-0.771-3.184-0.008-4.594
	C29.622,41.762,33.196,41.811,33.688,44.207z"/>
<radialGradient id="SVGID_4_" cx="107.1123" cy="-103.4131" r="14.9061" fx="95.1855" fy="-98.0046" gradientTransform="matrix(0.8672 -3.000000e-004 1.514193e-004 -0.525 -51.4084 -5.5265)" gradientUnits="userSpaceOnUse">
	<stop  offset="0.2606" style="stop-color:#3AB0A2"/>
	<stop  offset="0.3636" style="stop-color:#2B998D"/>
	<stop  offset="0.503" style="stop-color:#3AB0A2"/>
	<a:midPointStop  offset="0.2606" style="stop-color:#3AB0A2"/>
	<a:midPointStop  offset="0.5" style="stop-color:#3AB0A2"/>
	<a:midPointStop  offset="0.3636" style="stop-color:#2B998D"/>
	<a:midPointStop  offset="0.5" style="stop-color:#2B998D"/>
	<a:midPointStop  offset="0.503" style="stop-color:#3AB0A2"/>
</radialGradient>
<path fill="url(#SVGID_4_)" d="M34.31,44.207c0.646,2.105,3.982,2.676,4.18,2.365c0.398-0.631,0.77-3.186,0.006-4.596
	C38.378,41.76,34.806,41.811,34.31,44.207z"/>
<linearGradient id="SVGID_5_" gradientUnits="userSpaceOnUse" x1="71.7949" y1="45.5889" x2="71.7949" y2="43.1191" gradientTransform="matrix(1.1359 -2.000000e-004 -2.000000e-004 1 -47.5442 -0.1381)">
	<stop  offset="0.097" style="stop-color:#2B998D"/>
	<stop  offset="0.5515" style="stop-color:#3AB0A2"/>
	<a:midPointStop  offset="0.097" style="stop-color:#2B998D"/>
	<a:midPointStop  offset="0.5" style="stop-color:#2B998D"/>
	<a:midPointStop  offset="0.5515" style="stop-color:#3AB0A2"/>
</linearGradient>
<path fill="url(#SVGID_5_)" d="M34.003,45.371c-0.895,0.002-1.115,0.477-1.119-1.168c0-1.646,0.223-1.17,1.115-1.172
	c0.895,0,1.115-0.477,1.117,1.17C35.118,45.842,34.896,45.371,34.003,45.371z"/>
<path fill="#302C3B" d="M33.626,49.129c-0.002-0.5,0.748-0.5,0.75,0C34.376,49.627,33.626,49.629,33.626,49.129z"/>
<path fill="#302C3B" d="M33.626,53.973c-0.002-0.5,0.748-0.5,0.75,0C34.376,54.471,33.626,54.473,33.626,53.973z"/>
<path fill="#302C3B" d="M33.626,58.816c-0.002-0.5,0.748-0.5,0.75,0C34.376,59.314,33.626,59.316,33.626,58.816z"/>
<radialGradient id="SVGID_6_" cx="42.7568" cy="5.25" r="4.5" gradientUnits="userSpaceOnUse">
	<stop  offset="0" style="stop-color:#FFE02E"/>
	<stop  offset="0.2489" style="stop-color:#FFDA29"/>
	<stop  offset="0.5857" style="stop-color:#FFC91A"/>
	<stop  offset="0.9714" style="stop-color:#FFAC02"/>
	<stop  offset="1" style="stop-color:#FFAA00"/>
	<a:midPointStop  offset="0" style="stop-color:#FFE02E"/>
	<a:midPointStop  offset="0.6424" style="stop-color:#FFE02E"/>
	<a:midPointStop  offset="1" style="stop-color:#FFAA00"/>
</radialGradient>
<path fill="url(#SVGID_6_)" d="M43.632,2c-2.482,0-4.5,2.018-4.5,4.504c0,2.484,2.018,4.496,4.5,4.496c2.484,0,4.5-2.012,4.5-4.496
	C48.132,4.018,46.116,2,43.632,2z"/>
<radialGradient id="SVGID_7_" cx="555.4072" cy="-41.1885" r="3.2026" gradientTransform="matrix(0.3583 0.4654 -0.7924 0.61 -189.2077 -228.6484)" gradientUnits="userSpaceOnUse">
	<stop  offset="0" style="stop-color:#FFFFFF"/>
	<stop  offset="1" style="stop-color:#FFFFFF;stop-opacity:0"/>
	<a:midPointStop  offset="0" style="stop-color:#FFFFFF"/>
	<a:midPointStop  offset="0.4857" style="stop-color:#FFFFFF"/>
	<a:midPointStop  offset="1" style="stop-color:#FFFFFF;stop-opacity:0"/>
</radialGradient>
<path opacity="0.5" fill="url(#SVGID_7_)" d="M43.581,6.203c-1.402,1.078-3.053,1.287-3.686,0.463s-0.012-2.363,1.389-3.443
	c1.402-1.08,3.053-1.285,3.686-0.463C45.604,3.582,44.981,5.125,43.581,6.203z"/>
<radialGradient id="SVGID_8_" cx="9.876" cy="15.7695" r="4.5" gradientUnits="userSpaceOnUse">
	<stop  offset="0" style="stop-color:#9BE022"/>
	<stop  offset="0.2668" style="stop-color:#91D422"/>
	<stop  offset="0.7474" style="stop-color:#78B423"/>
	<stop  offset="1" style="stop-color:#69A123"/>
	<a:midPointStop  offset="0" style="stop-color:#9BE022"/>
	<a:midPointStop  offset="0.5758" style="stop-color:#9BE022"/>
	<a:midPointStop  offset="1" style="stop-color:#69A123"/>
</radialGradient>
<path fill="url(#SVGID_8_)" d="M10.501,12.27c-2.484,0-4.5,2.016-4.5,4.502s2.016,4.498,4.5,4.498c2.482,0,4.5-2.012,4.5-4.498
	S12.983,12.27,10.501,12.27z"/>
<radialGradient id="SVGID_9_" cx="534.7549" cy="-8.4683" r="3.2017" gradientTransform="matrix(0.3583 0.4654 -0.7924 0.61 -189.2077 -228.6484)" gradientUnits="userSpaceOnUse">
	<stop  offset="0" style="stop-color:#FFFFFF"/>
	<stop  offset="1" style="stop-color:#FFFFFF;stop-opacity:0"/>
	<a:midPointStop  offset="0" style="stop-color:#FFFFFF"/>
	<a:midPointStop  offset="0.4857" style="stop-color:#FFFFFF"/>
	<a:midPointStop  offset="1" style="stop-color:#FFFFFF;stop-opacity:0"/>
</radialGradient>
<path opacity="0.5" fill="url(#SVGID_9_)" d="M10.253,16.551c-1.402,1.08-3.051,1.287-3.684,0.463
	c-0.635-0.822-0.014-2.363,1.389-3.443c1.402-1.078,3.051-1.285,3.684-0.463C12.276,13.932,11.653,15.475,10.253,16.551z"/>
<path id="Path_2067_" fill="#B88A6F" d="M43.489,27.678c-1.469,0.178-2.529,5.088-1.605,6.383c0.131,0.182,0.887,0.471,1.447-0.674
	c0.311-0.633,1.207-1.162,1.486-2.469C45.173,29.244,44.95,27.502,43.489,27.678z"/>
<path id="Path_2066_" fill="#B88A6F" d="M24.511,27.678c1.469,0.178,2.529,5.088,1.605,6.383c-0.129,0.182-0.885,0.471-1.449-0.674
	c-0.309-0.633-1.205-1.162-1.482-2.469C22.827,29.244,23.05,27.502,24.511,27.678z"/>
<path id="Path_2065_" fill="#8C5F44" d="M43.45,28.617c-0.383,0.121-0.803,0.705-1.029,1.674c1.34-0.289,1.006,1.939-0.16,1.982
	c0.012,0.225,0.027,0.453,0.055,0.695c0.561-0.813,1.131-0.486,1.695-1.695C44.521,30.182,44.399,28.322,43.45,28.617z"/>
<path id="Path_2064_" fill="#8C5F44" d="M25.579,30.289c-0.229-0.967-0.645-1.551-1.029-1.672c-0.947-0.295-1.07,1.564-0.561,2.656
	c0.564,1.209,1.135,0.883,1.697,1.695c0.027-0.242,0.043-0.473,0.051-0.697C24.585,32.217,24.255,30.016,25.579,30.289z"/>
<path id="Path_2063_" fill="#B88A6F" d="M33.999,18.236c-6.363,0-9.43,4.807-9.047,11.488c0.076,1.346,0.912,5.732,1.701,7.305
	c0.807,1.611,3.506,4.094,5.158,4.607c1.045,0.324,3.332,0.324,4.377,0c1.652-0.514,4.354-2.996,5.158-4.607
	c0.791-1.572,1.625-5.957,1.701-7.305C43.433,23.043,40.366,18.236,33.999,18.236z"/>
<path id="Path_2062_" fill="#78513A" d="M40.915,27.188c-1.455-0.771-4.24-0.809-5.279-0.271c-0.223,0.104-0.074,0.832,0.113,0.764
	c1.443-0.57,3.777-0.584,5.131,0.049C41.062,27.811,41.136,27.295,40.915,27.188z"/>
<path id="Path_2061_" fill="#78513A" d="M27.085,27.188c1.455-0.771,4.24-0.809,5.279-0.271c0.223,0.104,0.076,0.832-0.113,0.764
	c-1.447-0.57-3.777-0.584-5.133,0.049C26.94,27.811,26.866,27.295,27.085,27.188z"/>
<path id="Path_2060_" fill="#8C5F44" d="M35.718,33.861c-0.182-0.125-0.607,0.068-1.719,0.068c-1.107,0-1.535-0.193-1.717-0.068
	c-0.217,0.154,0.129,0.844,1.717,0.844C35.589,34.705,35.937,34.016,35.718,33.861z"/>
<path id="Path_2059_" fill="#8C5F44" d="M33.999,36.48c-1.43-0.42-3.551,0.199-3.551,0.199c0.807,0.879,1.398,2.018,3.551,2.018
	c2.469,0,2.887-1.293,3.553-2.018C37.552,36.68,35.433,36.057,33.999,36.48z"/>
<path id="Path_2058_" fill="#FFFFFF" d="M30.979,36.828c1.502,1.256,4.533,1.266,6.041,0C35.421,36.896,32.591,36.896,30.979,36.828
	z"/>
<path fill="#8F604D" d="M42.13,19.828c-1.393-1.883-3.943-3.344-8.131-3.344c-4.184,0-6.734,1.461-8.127,3.344
	C23.899,22.492,44.101,22.492,42.13,19.828z"/>
<linearGradient id="SVGID_10_" gradientUnits="userSpaceOnUse" x1="34" y1="31.3711" x2="34" y2="19.0303">
	<stop  offset="0.5" style="stop-color:#6B4435"/>
	<stop  offset="0.6793" style="stop-color:#744B3B"/>
	<stop  offset="0.9708" style="stop-color:#8C5E4B"/>
	<stop  offset="1" style="stop-color:#8F604D"/>
	<a:midPointStop  offset="0.5" style="stop-color:#6B4435"/>
	<a:midPointStop  offset="0.6" style="stop-color:#6B4435"/>
	<a:midPointStop  offset="1" style="stop-color:#8F604D"/>
</linearGradient>
<path fill="url(#SVGID_10_)" d="M42.13,19.828c-1.393-1.883-3.943,0.158-8.131,0.158c-4.184,0-6.734-2.041-8.127-0.158
	c-1.973,2.664-1.303,11.543-0.426,11.543c0.139,0,0.16-3.105,0.426-5.254c0.215-1.75,0.631-3.445,1.111-3.723
	c1.461-0.848,4.277,0.363,7.016,0.363c2.74,0,5.559-1.211,7.02-0.363c0.479,0.277,0.893,1.973,1.111,3.723
	c0.266,2.148,0.285,5.254,0.424,5.254C43.431,31.371,44.101,22.492,42.13,19.828z"/>
<path id="Path_2057_" fill="#FFFFFF" d="M32.587,29.811c0.055,0.42-0.23,0.918-1.021,1.291c-0.502,0.236-1.545,0.518-2.918-0.063
	c-0.613-0.258-1.213-1.064-1.16-1.512C28.231,28.125,31.892,27.92,32.587,29.811z"/>
<linearGradient id="Oval_1_" gradientUnits="userSpaceOnUse" x1="-423.8071" y1="477.5703" x2="-423.8071" y2="477.9492" gradientTransform="matrix(6.5701 0 0 -6.5701 2814.7805 3168.5281)">
	<stop  offset="0" style="stop-color:#A6694A"/>
	<stop  offset="1" style="stop-color:#4F2A1E"/>
	<a:midPointStop  offset="0" style="stop-color:#A6694A"/>
	<a:midPointStop  offset="0.5" style="stop-color:#A6694A"/>
	<a:midPointStop  offset="1" style="stop-color:#4F2A1E"/>
</linearGradient>
<path id="Oval_168_" fill="url(#Oval_1_)" d="M30.321,28.35c0.795,0,1.439,0.219,1.439,1.057c0,0.793-0.645,1.438-1.439,1.438
	c-0.793,0-1.438-0.645-1.438-1.438C28.884,28.303,29.528,28.35,30.321,28.35z"/>
<path id="Path_2056_" fill="#1A1626" d="M29.604,29.381c0,0.994,1.438,0.994,1.438,0C31.042,28.457,29.604,28.457,29.604,29.381z"/>
<path id="Path_2055_" fill="#AB968C" d="M29.386,28.977c0,0.418,0.604,0.418,0.604,0C29.989,28.592,29.386,28.592,29.386,28.977z"/>
<path id="Path_2054_" fill="#8C5F44" d="M32.593,29.865c-0.584-1.877-4.564-1.6-5.105-0.338
	C27.688,27.912,32.097,27.484,32.593,29.865z"/>
<path id="Path_2053_" fill="#FFFFFF" d="M35.413,29.811c-0.053,0.42,0.232,0.918,1.021,1.291c0.502,0.236,1.547,0.518,2.918-0.063
	c0.615-0.258,1.215-1.064,1.16-1.512C39.771,28.125,36.11,27.92,35.413,29.811z"/>
<linearGradient id="Oval_2_" gradientUnits="userSpaceOnUse" x1="-425.3252" y1="477.5703" x2="-425.3252" y2="477.9492" gradientTransform="matrix(6.5701 0 0 -6.5701 2832.511 3168.5281)">
	<stop  offset="0" style="stop-color:#A6694A"/>
	<stop  offset="1" style="stop-color:#4F2A1E"/>
	<a:midPointStop  offset="0" style="stop-color:#A6694A"/>
	<a:midPointStop  offset="0.5" style="stop-color:#A6694A"/>
	<a:midPointStop  offset="1" style="stop-color:#4F2A1E"/>
</linearGradient>
<path id="Oval_167_" fill="url(#Oval_2_)" d="M38.083,28.35c0.795,0,1.438-0.047,1.438,1.057c0,0.793-0.643,1.438-1.438,1.438
	s-1.438-0.645-1.438-1.438C36.646,28.303,37.288,28.35,38.083,28.35z"/>
<path id="Path_2052_" fill="#1A1626" d="M37.366,29.381c0,0.994,1.436,0.994,1.436,0C38.802,28.457,37.366,28.457,37.366,29.381z"/>
<path id="Path_2051_" fill="#AB968C" d="M37.146,28.977c0,0.418,0.604,0.418,0.604,0C37.749,28.592,37.146,28.592,37.146,28.977z"/>
<path id="Path_2050_" fill="#8C5F44" d="M35.407,29.865c0.582-1.875,4.561-1.607,5.105-0.338
	C40.312,27.912,35.903,27.484,35.407,29.865z"/>
<path fill="#4E5E67" d="M48.644,24.141c0,2.549-29.285,2.549-29.285,0S48.644,21.592,48.644,24.141z"/>
<path fill="#302C3B" d="M43.501,23.061c0,2.193-19,2.193-19,0C24.501,10.979,43.501,10.979,43.501,23.061z"/>
</svg>
