<?xml version="1.0" encoding="utf-8"?>
<!-- Generator: Adobe Illustrator 15.0.0, SVG Export Plug-In . SVG Version: 6.00 Build 0)  -->
<!DOCTYPE svg PUBLIC "-//W3C//DTD SVG 1.1//EN" "http://www.w3.org/Graphics/SVG/1.1/DTD/svg11.dtd" [
	<!ENTITY ns_flows "http://ns.adobe.com/Flows/1.0/">
	<!ENTITY ns_extend "http://ns.adobe.com/Extensibility/1.0/">
	<!ENTITY ns_ai "http://ns.adobe.com/AdobeIllustrator/10.0/">
	<!ENTITY ns_graphs "http://ns.adobe.com/Graphs/1.0/">
]>
<svg version="1.1" id="Layer_1" xmlns:x="&ns_extend;" xmlns:i="&ns_ai;" xmlns:graph="&ns_graphs;"
	 xmlns="http://www.w3.org/2000/svg" xmlns:xlink="http://www.w3.org/1999/xlink" xmlns:a="http://ns.adobe.com/AdobeSVGViewerExtensions/3.0/"
	 x="0px" y="0px" width="64px" height="64px" viewBox="0 0 64 64" enable-background="new 0 0 64 64" xml:space="preserve">
<path fill="#1A1714" d="M31.067,34.272C42.3,31.921,43.007,21.741,43.007,21.741l-29.373-5.193c0,0-2.809,9.809,6.941,15.869
	c0,0,2.008,0.898,5.154,1.455C28.878,34.429,31.067,34.272,31.067,34.272z"/>
<linearGradient id="SVGID_1_" gradientUnits="userSpaceOnUse" x1="87.3711" y1="-38.0938" x2="87.3711" y2="-70.0408" gradientTransform="matrix(0.9848 0.1736 -0.1736 0.9848 -56.4368 58.068)">
	<stop  offset="0.05" style="stop-color:#1A1714"/>
	<stop  offset="0.112" style="stop-color:#1F1B18"/>
	<stop  offset="0.4761" style="stop-color:#37322C"/>
	<stop  offset="0.7" style="stop-color:#403A33"/>
	<a:midPointStop  offset="0.05" style="stop-color:#1A1714"/>
	<a:midPointStop  offset="0.4" style="stop-color:#1A1714"/>
	<a:midPointStop  offset="0.7" style="stop-color:#403A33"/>
</linearGradient>
<path fill="url(#SVGID_1_)" d="M38.739,22.089c0.275,4.719-1.078,9.102-7.672,12.184c6.48,0.061,11.725-5.156,12.529-9.729
	L38.739,22.089z"/>
<linearGradient id="SVGID_2_" gradientUnits="userSpaceOnUse" x1="1715.0371" y1="-38.9331" x2="1715.0371" y2="-70.8942" gradientTransform="matrix(-0.9848 -0.1736 -0.1736 0.9848 1697.4486 368.0895)">
	<stop  offset="0.05" style="stop-color:#1A1714"/>
	<stop  offset="0.112" style="stop-color:#1F1B18"/>
	<stop  offset="0.4761" style="stop-color:#37322C"/>
	<stop  offset="0.7" style="stop-color:#403A33"/>
	<a:midPointStop  offset="0.05" style="stop-color:#1A1714"/>
	<a:midPointStop  offset="0.4" style="stop-color:#1A1714"/>
	<a:midPointStop  offset="0.7" style="stop-color:#403A33"/>
</linearGradient>
<path fill="url(#SVGID_2_)" d="M17.526,18.339c-1.869,4.34-2.094,8.924,3.053,14.08c-6.111-2.166-9.26-8.867-8.455-13.439
	L17.526,18.339z"/>
<path fill="#732EB0" d="M30.304,59.657c15.193-2.551,19.805-4.963,20.652-7.652C51.614,49.927,46.329,39.478,30.304,59.657z"/>
<path fill="#614A36" d="M21.618,28.009c0.188,0.938-0.148,2.432-0.148,2.432c-2.787,1.008,6.148,18.09,19.238,20.174
	c10.746-6.238-2.318-16.129-3.311-16.988c-1.65-1.426-3.648-1.291-6.814-1.945v-1.24L21.618,28.009z"/>
<linearGradient id="SVGID_3_" gradientUnits="userSpaceOnUse" x1="41.1572" y1="44.0156" x2="37.9233" y2="38.3565" gradientTransform="matrix(1 0 0 1 -1.4385 0)">
	<stop  offset="0" style="stop-color:#302116"/>
	<stop  offset="0.1773" style="stop-color:#423022"/>
	<stop  offset="0.424" style="stop-color:#533E2D"/>
	<stop  offset="0.6886" style="stop-color:#5E4734"/>
	<stop  offset="1" style="stop-color:#614A36"/>
	<a:midPointStop  offset="0" style="stop-color:#302116"/>
	<a:midPointStop  offset="0.2606" style="stop-color:#302116"/>
	<a:midPointStop  offset="1" style="stop-color:#614A36"/>
</linearGradient>
<path fill="url(#SVGID_3_)" d="M30.89,38.769c4.17,2.143,5.771,5.07,5.486,7.455c3.408,0.471,6.354-0.029,7.463-5.031
	c-0.691-2.223-3.73-3.773-5.787-4.953C34.624,34.688,30.31,34.665,30.89,38.769z"/>
<linearGradient id="SVGID_4_" gradientUnits="userSpaceOnUse" x1="32.979" y1="52.584" x2="31.604" y2="38.001" gradientTransform="matrix(1 0 0 1 -1.4385 0)">
	<stop  offset="0" style="stop-color:#5D1E96"/>
	<stop  offset="0.1931" style="stop-color:#6C28AA"/>
	<stop  offset="0.4943" style="stop-color:#7F34C2"/>
	<stop  offset="0.7714" style="stop-color:#8A3BD1"/>
	<stop  offset="1" style="stop-color:#8E3ED6"/>
	<a:midPointStop  offset="0" style="stop-color:#5D1E96"/>
	<a:midPointStop  offset="0.3333" style="stop-color:#5D1E96"/>
	<a:midPointStop  offset="1" style="stop-color:#8E3ED6"/>
</linearGradient>
<path fill="url(#SVGID_4_)" d="M21.47,30.44c-11.742,3.271-5.16,13.684,2.197,27.873c11.016-1.236,19.895-3.492,21.773-7.727
	c2.857-6.43-4.242-13.629-5.08-14.648c-3.756-4.582-8.131-4.242-9.777-4.258c3.352,1.024,6.168,3.889,7.855,4.787
	c9.684,5.158,4.861,7.662-2.527,11.402C26.124,44.765,22.188,34.95,21.47,30.44z"/>
<linearGradient id="SVGID_5_" gradientUnits="userSpaceOnUse" x1="41.2217" y1="45.6504" x2="52.5703" y2="45.6504" gradientTransform="matrix(1 0 0 1 -1.4385 0)">
	<stop  offset="0" style="stop-color:#E635DE"/>
	<stop  offset="0.1777" style="stop-color:#DA30D3"/>
	<stop  offset="0.4992" style="stop-color:#BA24B4"/>
	<stop  offset="0.925" style="stop-color:#871083"/>
	<stop  offset="1" style="stop-color:#7D0C7A"/>
	<a:midPointStop  offset="0" style="stop-color:#E635DE"/>
	<a:midPointStop  offset="0.5758" style="stop-color:#E635DE"/>
	<a:midPointStop  offset="1" style="stop-color:#7D0C7A"/>
</linearGradient>
<path fill="url(#SVGID_5_)" d="M51.13,47.284c0.156-9.055-11.678-7.588-11.34-0.738C43.899,54.657,51.13,47.284,51.13,47.284z"/>
<linearGradient id="SVGID_6_" gradientUnits="userSpaceOnUse" x1="37.2402" y1="54.6846" x2="35.7712" y2="46.6205" gradientTransform="matrix(1 0 0 1 -1.4385 0)">
	<stop  offset="0" style="stop-color:#018BC9"/>
	<stop  offset="0.3755" style="stop-color:#0597CC"/>
	<stop  offset="1" style="stop-color:#0FB4D4"/>
	<a:midPointStop  offset="0" style="stop-color:#018BC9"/>
	<a:midPointStop  offset="0.5758" style="stop-color:#018BC9"/>
	<a:midPointStop  offset="1" style="stop-color:#0FB4D4"/>
</linearGradient>
<path fill="url(#SVGID_6_)" d="M47.888,50.542c0.162-9.057-23.129-3.877-24.939,4.6C27.058,63.251,47.888,50.542,47.888,50.542z"/>
<path fill="#614A36" d="M51.731,45.354c-0.047-1.094-0.939-1.984-1.463-1.836c-0.719,2.357-4.246,5.273-5.273,4.445
	c-1.197-0.959-0.168-4.129-1.334-3.18c-1.156,0.938-0.152,6.188-1.074,6.479c-1.133,1.041,2.072,3.559,2.686,3.479
	C51.483,50.54,52.626,48.587,51.731,45.354z"/>
<path fill="#8E3ED6" d="M42.481,51.001c-7.697,2.416-10.441,2.133-17.721,4.453c-5.396-19.738-6.291-23.799-7.402-23.068
	c-9.676,6.363,1.801,27.73,4.109,29.008c2.986,1.656,13.094,0.055,23.988-6.518C45.831,53.397,43.403,50.712,42.481,51.001z"/>
<path fill="#302116" d="M20.579,23.86c0.098,4.273,3.719,9.199,5.572,9.527c1.852,0.326,6.936-3.059,8.486-7.041
	C35.384,24.433,20.53,21.808,20.579,23.86z"/>
<path fill="#614A36" d="M31.001,3.896C23.39,2.55,18.63,8.116,17.683,16.19c-0.188,1.621-0.148,4.018,0.051,6.1
	c0.416,4.33,6.803,9.563,9.367,10.016c2.564,0.456,7.006-2.727,9.52-6.273c1.248-1.758,2.328-4.428,2.705-6.016
	C41.187,12.104,38.616,5.241,31.001,3.896z"/>
<path fill="#403229" d="M38.548,17.312c-1.48-1.281-4.426-1.926-5.717-1.461c-0.273,0.092-0.332,0.818-0.102,0.766
	c1.797-0.402,4.354,0.014,5.783,1.1C38.704,17.86,38.774,17.499,38.548,17.312z"/>
<path fill="#403229" d="M22.37,14.452c1.828-0.697,4.814-0.293,5.871,0.586c0.227,0.182,0.033,0.883-0.166,0.756
	c-1.553-0.994-4.096-1.48-5.811-0.949C22.034,14.913,22.095,14.55,22.37,14.452z"/>
<path fill="#302116" d="M30.544,24.093c-0.16-0.158-0.621-0.037-1.727-0.232c-1.104-0.195-1.494-0.467-1.697-0.371
	c-0.246,0.115-0.021,0.867,1.563,1.146C30.265,24.915,30.733,24.286,30.544,24.093z"/>
<path fill="#302116" d="M27.796,18.224c-1.551,0.645-3.715,0.262-4.953-0.877c-0.188-0.174-0.342-0.049-0.295,0.078
	c0.949,2.541,3.738,3.035,5.498,0.971C28.136,18.294,28.032,18.124,27.796,18.224z"/>
<path fill="#302116" d="M37.116,19.87c-1.551,0.645-3.715,0.262-4.953-0.875c-0.189-0.174-0.34-0.049-0.295,0.078
	c0.949,2.541,3.738,3.033,5.498,0.971C37.454,19.942,37.353,19.771,37.116,19.87z"/>
<path fill="#472B27" d="M28.3,26.245c-1.645-1.102-1.793-0.35-4.58-0.652c0.828,1.359,1.322,3.008,4.08,3.494
	c3.164,0.561,4-1.064,5.027-1.885C30.103,26.53,30.224,25.772,28.3,26.245z"/>
<path fill="#FFFFFF" d="M24.497,26.032c1.467,2.195,5.35,2.854,7.449,1.318C29.126,27.159,27.212,26.821,24.497,26.032z"/>
<linearGradient id="SVGID_7_" gradientUnits="userSpaceOnUse" x1="76.7158" y1="-38.1079" x2="76.7158" y2="-70.0539" gradientTransform="matrix(0.9848 0.1736 -0.1736 0.9848 -56.4368 58.068)">
	<stop  offset="0.05" style="stop-color:#1A1714"/>
	<stop  offset="0.112" style="stop-color:#1F1B18"/>
	<stop  offset="0.4761" style="stop-color:#37322C"/>
	<stop  offset="0.7" style="stop-color:#403A33"/>
	<a:midPointStop  offset="0.05" style="stop-color:#1A1714"/>
	<a:midPointStop  offset="0.4" style="stop-color:#1A1714"/>
	<a:midPointStop  offset="0.7" style="stop-color:#403A33"/>
</linearGradient>
<path fill="url(#SVGID_7_)" d="M39.374,6.526c1.088-1.092-5.814-5.02-13.076-4.475c-7.225,0.367-12.975,10.105-14.174,16.928
	c0.535,0.604,4.555,0.043,5.402-0.641c0.498-1.145,1.166-2.293,1.814-3.49c5.746-2.105,11.773-1.775,16.506-4.674
	c-0.803,1.484,1.625,3.965,2.379,8.012c0.242,1.313,0.438,2.619,0.514,3.902c0.969,1.271,3.191,2.186,4.857,2.455
	C44.612,18.774,42.298,6.212,39.374,6.526z"/>
<path fill="#1A1714" d="M13.556,18.163c5.932-5.564,21.414-2.379,25.818-11.637C32.712,13.772,15.954,12.231,13.556,18.163z"/>
</svg>
