<?xml version="1.0" encoding="utf-8"?>
<!-- Generator: Adobe Illustrator 15.0.0, SVG Export Plug-In . SVG Version: 6.00 Build 0)  -->
<!DOCTYPE svg PUBLIC "-//W3C//DTD SVG 1.1//EN" "http://www.w3.org/Graphics/SVG/1.1/DTD/svg11.dtd" [
	<!ENTITY ns_flows "http://ns.adobe.com/Flows/1.0/">
	<!ENTITY ns_extend "http://ns.adobe.com/Extensibility/1.0/">
	<!ENTITY ns_ai "http://ns.adobe.com/AdobeIllustrator/10.0/">
	<!ENTITY ns_graphs "http://ns.adobe.com/Graphs/1.0/">
]>
<svg version="1.1" id="Layer_1" xmlns:x="&ns_extend;" xmlns:i="&ns_ai;" xmlns:graph="&ns_graphs;"
	 xmlns="http://www.w3.org/2000/svg" xmlns:xlink="http://www.w3.org/1999/xlink" xmlns:a="http://ns.adobe.com/AdobeSVGViewerExtensions/3.0/"
	 x="0px" y="0px" width="64px" height="64px" viewBox="0 0 64 64" enable-background="new 0 0 64 64" xml:space="preserve">
<path fill="#FF7A00" d="M49.893,15.437c-1.85,4.166-3.143,5.82-4.086,8.035c-3.313,1.643-4.654,0.746-7.875,2.176
	c-9.047,1.578-13.281,3.832-13.281,3.832c-4.891,1.809-4.785,6.732-7.645,11.598c-3.332,3.148-2.041,5.611-7.543,9.865
	c-3.344,2.588-0.361,5.064,4.75,0.586c2.914-2.555,6.533-6.32,7.777-9.502c-0.008,4.076,0.301,7.834-0.371,9.99l14.012-1.99
	c0.76-4.533,2.676-7.367,2.676-13.006c0.637-6.664,4.832-5.854,10.334-8.818c1.529-0.822,4.072-11.82,4.072-11.82
	S50.193,14.757,49.893,15.437z"/>
<path fill="#ED6A00" d="M22.477,35.403c-0.979,2.574-0.582,4.672-1.639,8.82c0.488-0.76,0.873-1.506,1.152-2.225
	C21.994,39.825,22.092,37.565,22.477,35.403z"/>
<path fill="#48C2F9" d="M2,61.999h60V49.163c-32.494-0.939-42.373,3.053-60,1.004V61.999z"/>
<path fill="#7ED2FC" d="M62,54.823c-22.666-0.26-39.188,2.209-60,1.5v5.676h60V54.823z"/>
<radialGradient id="SVGID_1_" cx="53.7734" cy="8.4424" r="8.0095" gradientTransform="matrix(0.9987 0 0 1 -0.5357 0)" gradientUnits="userSpaceOnUse">
	<stop  offset="0" style="stop-color:#FAE803"/>
	<stop  offset="0.2582" style="stop-color:#FAE103"/>
	<stop  offset="0.636" style="stop-color:#FACD03"/>
	<stop  offset="1" style="stop-color:#FAB403"/>
	<a:midPointStop  offset="0" style="stop-color:#FAE803"/>
	<a:midPointStop  offset="0.6242" style="stop-color:#FAE803"/>
	<a:midPointStop  offset="1" style="stop-color:#FAB403"/>
</radialGradient>
<ellipse fill="url(#SVGID_1_)" cx="54" cy="10.011" rx="8" ry="8.01"/>
<path fill="#302C3B" d="M61.111,6.792c-0.531-0.748-1.07-1.195-1.395-1.424c0.074-0.268,0.129-0.531,0.158-0.791
	c-0.098-0.109-0.199-0.213-0.303-0.313c-0.102,2.291-2.508,5.16-3.305,6.109c-0.043,0.051-0.08,0.096-0.115,0.137
	c-0.965-0.234-2.119-0.488-3.303-0.736c0.852-2.914,2.455-6.189,4.205-7.168c-0.127-0.053-0.256-0.102-0.385-0.148
	c-1.854,1.227-3.363,4.576-4.143,7.25c-1.326-0.275-2.668-0.541-3.795-0.76c0.121-1.242,0.5-2.635,1.02-3.754
	c0.707-1.521,1.682-2.578,2.824-3.068c-0.387,0.07-0.762,0.168-1.125,0.289c-0.787,0.607-1.467,1.502-1.998,2.643
	c-0.529,1.141-0.914,2.557-1.045,3.828C47.9,8.788,47.445,8.7,47.064,8.628c-0.143-0.027-0.273-0.053-0.393-0.074
	c-0.045-0.516-0.039-1.732,0.756-3.109c-0.463,0.666-0.826,1.402-1.07,2.191c-0.047,0.439-0.029,0.791-0.006,1.018
	c-0.123,0.209-0.234,0.469-0.33,0.768C46.008,9.616,46,9.812,46,10.011c0,0.375,0.025,0.746,0.076,1.109
	c0.018-0.922,0.244-1.734,0.531-2.248c0.119,0.023,0.252,0.049,0.395,0.074c2.07,0.398,6.355,1.217,9.078,1.885
	c0.305,1.074,0.545,2.053,0.715,2.914c-1.441,0.445-3.811,0.49-5.963,0.105c-2.465-0.438-4.172-1.322-4.709-2.436
	c0.049,0.285,0.115,0.563,0.195,0.836c0.336,0.354,0.789,0.674,1.355,0.959c0.828,0.416,1.902,0.75,3.1,0.963
	c0.992,0.176,2.031,0.264,3.01,0.264c1.174,0,2.26-0.125,3.074-0.369c0.189,1.035,0.275,1.889,0.252,2.518
	c-1.07,0.578-2.721,0.883-4.342,0.799c-1.307-0.064-2.486-0.369-3.445-0.875c0.568,0.41,1.191,0.748,1.855,0.998
	c0.5,0.107,1.025,0.176,1.574,0.203c0.178,0.01,0.357,0.014,0.537,0.014c1.406,0,2.793-0.275,3.785-0.756
	c-0.027,0.195-0.068,0.359-0.127,0.492c0.135-0.055,0.268-0.111,0.398-0.172c0.357-1.48-0.41-4.645-0.951-6.557
	c0.037-0.043,0.078-0.094,0.125-0.15c0.387-0.459,1.043-1.24,1.676-2.174c1.107,1.395,2.957,3.854,2.002,6.668
	c0.186-0.229,0.357-0.465,0.518-0.711c0.182-1.072,0.027-2.189-0.467-3.334c-0.521-1.211-1.318-2.225-1.863-2.91
	c0.49-0.754,0.947-1.588,1.229-2.424c0.291,0.217,0.768,0.631,1.232,1.285c0.541,0.758,0.922,1.631,1.143,2.6
	c-0.035-0.652-0.146-1.283-0.328-1.883C61.5,7.38,61.316,7.079,61.111,6.792z"/>
<path fill="#E6C2A3" d="M24.646,28.237c1.643-0.783,2.115,0.656,2.225,1.258c0.363,1.979,7.777-0.281,6.943-2.557
	c-0.725-1.979,0.244-4.342,0.244-4.342C32.963,21.968,28.951,14.892,24.646,28.237z"/>
<path fill="#FFD8B4" d="M25.988,8.62c-4.996,0.799-6.83,4.369-6.025,8.574c0.184,0.951-0.428,2.576-1.639,3.623
	c-0.439,0.379-0.482,0.881-0.266,1.221c0.422,0.658,1.348,0.664,1.736,0.91c0.865,0.555-0.002,1.162,0.65,1.814
	c0.295,0.295,1.143-0.098,0.248,1.471c0.996,0.73-0.668,2.484,1.896,2.756c1.348,0.143,6.254-2.744,7.135-4.234
	c1.023-1.738,1.188-3.258,1.188-3.258c3.836-1.105,5.191-4.451,4.363-7.955C34.121,8.642,29.227,8.104,25.988,8.62z"/>
<path fill="#DEB38A" d="M20.445,24.763c0.469,0.287,0.262,0.74,0.262,0.74c-0.227,0-0.281,0.742,0.055,0.742
	c1.168,0,2.242-1.004,2.596-1.613C21.523,24.546,19.514,23.718,20.445,24.763z"/>
<path fill="#FFFFFF" d="M20.445,24.763c0,0,0.178,0.639,0.262,0.74c0.367,0,1.563-0.266,2.297-0.748L20.445,24.763z"/>
<path fill="#DEB38A" d="M18.07,22.042c0.346,0.922,2.559,1.119,3.266,0C20.17,22.884,17.869,21.507,18.07,22.042z"/>
<path id="Path_184_" fill="#A88868" d="M24.504,16.331c-1.063-0.615-3.098-0.645-3.855-0.215c-0.164,0.08-0.055,0.662,0.08,0.607
	c1.057-0.455,2.76-0.465,3.748,0.037C24.607,16.827,24.664,16.415,24.504,16.331z"/>
<path fill="#FFFFFF" d="M24.059,18.499c0.025,0.268-0.826,1.238-1.91,1.33c-0.619,0.053-0.84-0.428-0.979-0.941
	C21.037,16.837,23.449,17.567,24.059,18.499z"/>
<linearGradient id="Path_1_" gradientUnits="userSpaceOnUse" x1="21.9932" y1="19.7456" x2="21.9932" y2="17.5864">
	<stop  offset="0" style="stop-color:#A6694A"/>
	<stop  offset="1" style="stop-color:#4F2A1E"/>
	<a:midPointStop  offset="0" style="stop-color:#A6694A"/>
	<a:midPointStop  offset="0.5" style="stop-color:#A6694A"/>
	<a:midPointStop  offset="1" style="stop-color:#4F2A1E"/>
</linearGradient>
<path id="Path_183_" fill="url(#Path_1_)" d="M21.129,18.628c0,1.49,1.729,1.49,1.729,0C22.857,17.239,21.129,17.239,21.129,18.628z
	"/>
<path id="Path_182_" fill="#1A1626" d="M21.309,18.562c0,0.744,0.863,0.744,0.863,0C22.172,17.866,21.309,17.866,21.309,18.562z"/>
<path id="Path_181_" fill="#AB968C" d="M21.842,18.257c0,0.313,0.502,0.313,0.502,0C22.344,17.966,21.842,17.966,21.842,18.257z"/>
<path fill="#DEB38A" d="M24.059,18.499c-0.465-0.932-2.781-1.611-2.844-0.354C21.541,17.302,23.26,17.765,24.059,18.499z"/>
<linearGradient id="SVGID_2_" gradientUnits="userSpaceOnUse" x1="20.3594" y1="15.4307" x2="38.3623" y2="15.4307">
	<stop  offset="0" style="stop-color:#FF7A00"/>
	<stop  offset="1" style="stop-color:#D86100"/>
	<a:midPointStop  offset="0" style="stop-color:#FF7A00"/>
	<a:midPointStop  offset="0.5" style="stop-color:#FF7A00"/>
	<a:midPointStop  offset="1" style="stop-color:#D86100"/>
</linearGradient>
<path fill="url(#SVGID_2_)" d="M38.023,13.401c-2.527-9.529-16.107-8.172-17.664-1.021c0,0,9.463-0.289,13.27,11.846
	C36.809,22.608,39.293,18.122,38.023,13.401z"/>
<linearGradient id="SVGID_3_" gradientUnits="userSpaceOnUse" x1="28.4175" y1="19.7666" x2="34.0547" y2="19.7666">
	<stop  offset="0" style="stop-color:#FF7A00"/>
	<stop  offset="1" style="stop-color:#D86100"/>
	<a:midPointStop  offset="0" style="stop-color:#FF7A00"/>
	<a:midPointStop  offset="0.5" style="stop-color:#FF7A00"/>
	<a:midPointStop  offset="1" style="stop-color:#D86100"/>
</linearGradient>
<path fill="url(#SVGID_3_)" d="M34.055,19.526c0.051,3.789-5.584,4.273-5.637,0.482C28.363,16.218,33.998,15.733,34.055,19.526z"/>
</svg>
