<?xml version="1.0" encoding="utf-8"?>
<!-- Generator: Adobe Illustrator 15.0.0, SVG Export Plug-In . SVG Version: 6.00 Build 0)  -->
<!DOCTYPE svg PUBLIC "-//W3C//DTD SVG 1.1//EN" "http://www.w3.org/Graphics/SVG/1.1/DTD/svg11.dtd" [
	<!ENTITY ns_flows "http://ns.adobe.com/Flows/1.0/">
	<!ENTITY ns_extend "http://ns.adobe.com/Extensibility/1.0/">
	<!ENTITY ns_ai "http://ns.adobe.com/AdobeIllustrator/10.0/">
	<!ENTITY ns_graphs "http://ns.adobe.com/Graphs/1.0/">
]>
<svg version="1.1" id="Layer_1" xmlns:x="&ns_extend;" xmlns:i="&ns_ai;" xmlns:graph="&ns_graphs;"
	 xmlns="http://www.w3.org/2000/svg" xmlns:xlink="http://www.w3.org/1999/xlink" xmlns:a="http://ns.adobe.com/AdobeSVGViewerExtensions/3.0/"
	 x="0px" y="0px" width="64px" height="64px" viewBox="0 0 64 64" enable-background="new 0 0 64 64" xml:space="preserve">
<path fill="#3B2118" d="M31.066,34.272c11.234-2.352,11.941-12.531,11.941-12.531l-29.373-5.193c0,0-2.809,9.809,6.941,15.869
	c0,0,2.006,0.898,5.152,1.455C28.879,34.429,31.066,34.272,31.066,34.272z"/>
<linearGradient id="SVGID_1_" gradientUnits="userSpaceOnUse" x1="87.3711" y1="-38.0933" x2="87.3711" y2="-70.0415" gradientTransform="matrix(0.9848 0.1736 -0.1736 0.9848 -56.4368 58.068)">
	<stop  offset="0.05" style="stop-color:#3B2118"/>
	<stop  offset="0.112" style="stop-color:#40251C"/>
	<stop  offset="0.4761" style="stop-color:#58392F"/>
	<stop  offset="0.7" style="stop-color:#614036"/>
	<a:midPointStop  offset="0.05" style="stop-color:#3B2118"/>
	<a:midPointStop  offset="0.4" style="stop-color:#3B2118"/>
	<a:midPointStop  offset="0.7" style="stop-color:#614036"/>
</linearGradient>
<path fill="url(#SVGID_1_)" d="M38.738,22.089c0.277,4.719-1.078,9.102-7.672,12.184c6.482,0.061,11.727-5.156,12.531-9.729
	L38.738,22.089z"/>
<linearGradient id="SVGID_2_" gradientUnits="userSpaceOnUse" x1="1715.0391" y1="-38.9331" x2="1715.0391" y2="-70.8954" gradientTransform="matrix(-0.9848 -0.1736 -0.1736 0.9848 1697.4486 368.0895)">
	<stop  offset="0.05" style="stop-color:#3B2118"/>
	<stop  offset="0.112" style="stop-color:#40251C"/>
	<stop  offset="0.4761" style="stop-color:#58392F"/>
	<stop  offset="0.7" style="stop-color:#614036"/>
	<a:midPointStop  offset="0.05" style="stop-color:#3B2118"/>
	<a:midPointStop  offset="0.4" style="stop-color:#3B2118"/>
	<a:midPointStop  offset="0.7" style="stop-color:#614036"/>
</linearGradient>
<path fill="url(#SVGID_2_)" d="M17.527,18.339c-1.869,4.34-2.094,8.924,3.051,14.08c-6.109-2.166-9.258-8.867-8.455-13.439
	L17.527,18.339z"/>
<path fill="#732EB0" d="M30.305,59.657c15.193-2.551,19.805-4.963,20.652-7.652C51.615,49.927,46.33,39.478,30.305,59.657z"/>
<path fill="#916B50" d="M21.619,28.009c0.186,0.938-0.148,2.432-0.148,2.432c-2.787,1.008,6.148,18.09,19.236,20.174
	c10.748-6.238-2.318-16.129-3.309-16.988c-1.65-1.426-3.648-1.291-6.814-1.945v-1.24L21.619,28.009z"/>
<linearGradient id="SVGID_3_" gradientUnits="userSpaceOnUse" x1="41.1572" y1="44.0166" x2="37.9229" y2="38.3567" gradientTransform="matrix(1 0 0 1 -1.4385 0)">
	<stop  offset="0" style="stop-color:#69452D"/>
	<stop  offset="0.3484" style="stop-color:#7E5940"/>
	<stop  offset="0.6964" style="stop-color:#8C664C"/>
	<stop  offset="1" style="stop-color:#916B50"/>
	<a:midPointStop  offset="0" style="stop-color:#69452D"/>
	<a:midPointStop  offset="0.3212" style="stop-color:#69452D"/>
	<a:midPointStop  offset="1" style="stop-color:#916B50"/>
</linearGradient>
<path fill="url(#SVGID_3_)" d="M30.889,38.769c4.172,2.143,5.773,5.07,5.488,7.455c3.406,0.471,6.354-0.029,7.463-5.031
	c-0.691-2.223-3.73-3.773-5.787-4.953C34.623,34.688,30.311,34.665,30.889,38.769z"/>
<linearGradient id="SVGID_4_" gradientUnits="userSpaceOnUse" x1="32.98" y1="52.584" x2="31.605" y2="38.001" gradientTransform="matrix(1 0 0 1 -1.4385 0)">
	<stop  offset="0" style="stop-color:#5D1E96"/>
	<stop  offset="0.1931" style="stop-color:#6C28AA"/>
	<stop  offset="0.4943" style="stop-color:#7F34C2"/>
	<stop  offset="0.7714" style="stop-color:#8A3BD1"/>
	<stop  offset="1" style="stop-color:#8E3ED6"/>
	<a:midPointStop  offset="0" style="stop-color:#5D1E96"/>
	<a:midPointStop  offset="0.3333" style="stop-color:#5D1E96"/>
	<a:midPointStop  offset="1" style="stop-color:#8E3ED6"/>
</linearGradient>
<path fill="url(#SVGID_4_)" d="M21.471,30.44c-11.742,3.271-5.16,13.684,2.197,27.873c11.014-1.236,19.893-3.492,21.773-7.727
	c2.857-6.43-4.242-13.629-5.08-14.648c-3.756-4.582-8.131-4.242-9.777-4.258c3.35,1.024,6.168,3.889,7.854,4.787
	c9.684,5.158,4.863,7.662-2.525,11.402C26.125,44.765,22.189,34.95,21.471,30.44z"/>
<linearGradient id="SVGID_5_" gradientUnits="userSpaceOnUse" x1="41.2207" y1="45.6504" x2="52.5693" y2="45.6504" gradientTransform="matrix(1 0 0 1 -1.4385 0)">
	<stop  offset="0" style="stop-color:#E635DE"/>
	<stop  offset="0.1777" style="stop-color:#DA30D3"/>
	<stop  offset="0.4992" style="stop-color:#BA24B4"/>
	<stop  offset="0.925" style="stop-color:#871083"/>
	<stop  offset="1" style="stop-color:#7D0C7A"/>
	<a:midPointStop  offset="0" style="stop-color:#E635DE"/>
	<a:midPointStop  offset="0.5758" style="stop-color:#E635DE"/>
	<a:midPointStop  offset="1" style="stop-color:#7D0C7A"/>
</linearGradient>
<path fill="url(#SVGID_5_)" d="M51.129,47.284c0.158-9.055-11.676-7.588-11.34-0.738C43.9,54.657,51.129,47.284,51.129,47.284z"/>
<linearGradient id="SVGID_6_" gradientUnits="userSpaceOnUse" x1="37.2412" y1="54.6846" x2="35.7722" y2="46.6205" gradientTransform="matrix(1 0 0 1 -1.4385 0)">
	<stop  offset="0" style="stop-color:#018BC9"/>
	<stop  offset="0.3755" style="stop-color:#0597CC"/>
	<stop  offset="1" style="stop-color:#0FB4D4"/>
	<a:midPointStop  offset="0" style="stop-color:#018BC9"/>
	<a:midPointStop  offset="0.5758" style="stop-color:#018BC9"/>
	<a:midPointStop  offset="1" style="stop-color:#0FB4D4"/>
</linearGradient>
<path fill="url(#SVGID_6_)" d="M47.889,50.542c0.16-9.057-23.129-3.877-24.939,4.6C27.057,63.251,47.889,50.542,47.889,50.542z"/>
<path fill="#916B50" d="M51.732,45.354c-0.047-1.094-0.939-1.984-1.463-1.836c-0.721,2.357-4.246,5.273-5.273,4.445
	c-1.197-0.959-0.168-4.129-1.336-3.18c-1.154,0.938-0.15,6.188-1.072,6.479c-1.135,1.041,2.072,3.559,2.686,3.479
	C51.484,50.54,52.625,48.587,51.732,45.354z"/>
<path fill="#8E3ED6" d="M42.482,51.001c-7.697,2.416-10.441,2.133-17.721,4.453c-5.396-19.738-6.291-23.799-7.404-23.068
	c-9.676,6.363,1.803,27.73,4.111,29.008c2.986,1.656,13.092,0.055,23.988-6.518C45.83,53.397,43.404,50.712,42.482,51.001z"/>
<path fill="#69452D" d="M20.578,23.86c0.1,4.273,3.721,9.199,5.574,9.527c1.852,0.326,6.934-3.059,8.486-7.041
	C35.385,24.433,20.531,21.808,20.578,23.86z"/>
<path fill="#916B50" d="M31.002,3.896C23.391,2.55,18.631,8.116,17.684,16.19c-0.189,1.621-0.15,4.018,0.051,6.1
	c0.416,4.33,6.803,9.563,9.367,10.016c2.564,0.456,7.004-2.727,9.52-6.273c1.246-1.758,2.328-4.428,2.705-6.016
	C41.188,12.104,38.617,5.241,31.002,3.896z"/>
<path fill="#5E4431" d="M38.547,17.312c-1.479-1.281-4.424-1.926-5.717-1.461c-0.271,0.092-0.332,0.818-0.1,0.766
	c1.795-0.402,4.354,0.014,5.783,1.1C38.705,17.86,38.773,17.499,38.547,17.312z"/>
<path fill="#5E4431" d="M22.369,14.452c1.828-0.697,4.816-0.293,5.873,0.586c0.225,0.182,0.033,0.883-0.168,0.756
	c-1.551-0.994-4.094-1.48-5.809-0.949C22.035,14.913,22.096,14.55,22.369,14.452z"/>
<path fill="#69452D" d="M30.543,24.093c-0.158-0.158-0.619-0.037-1.725-0.232c-1.104-0.195-1.494-0.467-1.697-0.371
	c-0.246,0.115-0.021,0.867,1.561,1.146C30.266,24.915,30.734,24.286,30.543,24.093z"/>
<path fill="#45332C" d="M27.797,18.224c-1.551,0.645-3.715,0.262-4.953-0.877c-0.189-0.174-0.342-0.049-0.295,0.078
	c0.949,2.541,3.738,3.035,5.498,0.971C28.135,18.294,28.033,18.124,27.797,18.224z"/>
<path fill="#45332C" d="M37.117,19.87c-1.551,0.645-3.717,0.262-4.953-0.875c-0.189-0.174-0.342-0.049-0.295,0.078
	c0.949,2.541,3.738,3.033,5.496,0.971C37.455,19.942,37.354,19.771,37.117,19.87z"/>
<path fill="#733B2A" d="M28.301,26.245c-1.646-1.102-1.793-0.35-4.58-0.652c0.826,1.359,1.322,3.008,4.078,3.494
	c3.164,0.561,4-1.064,5.027-1.885C30.104,26.53,30.225,25.772,28.301,26.245z"/>
<path fill="#FFFFFF" d="M24.496,26.032c1.469,2.195,5.35,2.854,7.451,1.318C29.127,27.159,27.211,26.821,24.496,26.032z"/>
<linearGradient id="SVGID_7_" gradientUnits="userSpaceOnUse" x1="76.7158" y1="-38.1084" x2="76.7158" y2="-70.0536" gradientTransform="matrix(0.9848 0.1736 -0.1736 0.9848 -56.4368 58.068)">
	<stop  offset="0.05" style="stop-color:#3B2118"/>
	<stop  offset="0.112" style="stop-color:#40251C"/>
	<stop  offset="0.4761" style="stop-color:#58392F"/>
	<stop  offset="0.7" style="stop-color:#614036"/>
	<a:midPointStop  offset="0.05" style="stop-color:#3B2118"/>
	<a:midPointStop  offset="0.4" style="stop-color:#3B2118"/>
	<a:midPointStop  offset="0.7" style="stop-color:#614036"/>
</linearGradient>
<path fill="url(#SVGID_7_)" d="M39.375,6.526c1.086-1.092-5.814-5.02-13.078-4.475c-7.223,0.367-12.973,10.105-14.174,16.928
	c0.537,0.604,4.555,0.043,5.404-0.641c0.496-1.145,1.166-2.293,1.813-3.49c5.748-2.105,11.775-1.775,16.508-4.674
	c-0.803,1.484,1.625,3.965,2.377,8.012c0.244,1.313,0.439,2.619,0.514,3.902c0.971,1.271,3.193,2.186,4.859,2.455
	C44.611,18.774,42.299,6.212,39.375,6.526z"/>
<path fill="#3B2118" d="M13.557,18.163c5.932-5.564,21.414-2.379,25.818-11.637C32.713,13.772,15.953,12.231,13.557,18.163z"/>
</svg>
