<?xml version="1.0" encoding="utf-8"?>
<!-- Generator: Adobe Illustrator 15.0.0, SVG Export Plug-In . SVG Version: 6.00 Build 0)  -->
<!DOCTYPE svg PUBLIC "-//W3C//DTD SVG 1.1//EN" "http://www.w3.org/Graphics/SVG/1.1/DTD/svg11.dtd" [
	<!ENTITY ns_flows "http://ns.adobe.com/Flows/1.0/">
	<!ENTITY ns_extend "http://ns.adobe.com/Extensibility/1.0/">
	<!ENTITY ns_ai "http://ns.adobe.com/AdobeIllustrator/10.0/">
	<!ENTITY ns_graphs "http://ns.adobe.com/Graphs/1.0/">
]>
<svg version="1.1" id="Layer_1" xmlns:x="&ns_extend;" xmlns:i="&ns_ai;" xmlns:graph="&ns_graphs;"
	 xmlns="http://www.w3.org/2000/svg" xmlns:xlink="http://www.w3.org/1999/xlink" xmlns:a="http://ns.adobe.com/AdobeSVGViewerExtensions/3.0/"
	 x="0px" y="0px" width="64px" height="64px" viewBox="0 0 64 64" enable-background="new 0 0 64 64" xml:space="preserve">
<linearGradient id="SVGID_1_" gradientUnits="userSpaceOnUse" x1="-1136.0386" y1="-555.0879" x2="-1128.5474" y2="-555.0879" gradientTransform="matrix(-0.4495 1.0552 -1.0288 -0.3897 -1061.5024 1033.7767)">
	<stop  offset="0" style="stop-color:#473834"/>
	<stop  offset="0.339" style="stop-color:#5E4A43"/>
	<stop  offset="0.7359" style="stop-color:#735A51"/>
	<stop  offset="1" style="stop-color:#7A6056"/>
	<a:midPointStop  offset="0" style="stop-color:#473834"/>
	<a:midPointStop  offset="0.3818" style="stop-color:#473834"/>
	<a:midPointStop  offset="1" style="stop-color:#7A6056"/>
</linearGradient>
<path fill="url(#SVGID_1_)" d="M13.53,56.068c-0.377,0.414-0.672,0.936-0.829,1.61c4.406-3.541,12.73,3.816,13.135-4.205
	l-2.896,0.05c-1.223,1.847-5.128-3.073-8.447-0.098c0.481-0.236,1.165,0.023,1.935,0.427c-2.623-0.186-4.583-0.073-5.469,2.859
	C11.282,56.246,12.321,56.06,13.53,56.068z"/>
<path fill="#8E3ED6" d="M26.086,54.881c0.425-0.869-1.523-2.351-2.961-1.664C21.945,53.777,25.387,56.314,26.086,54.881z"/>
<path fill="#8E3ED6" d="M9.007,2.367c0,0,3.346-1.106,6.492,0.521l2.417,0.528C17.954,3.757,17.81,3.81,17.81,3.81
	s-2.242,0.783-8.667-1.099C9.142,2.711,8.962,2.667,9.007,2.367z"/>
<path fill="#302C3B" d="M13.837,6.368c-0.451-1.403-5.046-1.44-4.695-3.657c0,0,3.105-1.06,6.25,0.569L17.81,3.81
	C17.81,7.546,16.345,6.979,13.837,6.368z"/>
<path fill="#8E3ED6" d="M11.33,4.9c0.996-0.624,1.605-0.664,1.558-0.106c0.645-0.284,0.902,0.092,0.838,0.418
	c0.661-0.14,0.773,0.415-0.061,0.855C13.19,6.294,11.06,5.067,11.33,4.9z"/>
<path fill="#FFCC66" d="M16.968,6.258c1.936,4.517,4.287,5.677,4.748,10.071c1.062,3.891,2.57,4.813,3.722,8.504
	c-0.287,1.633-3.199,2.562-5.367,2.294c-2.203-6.547-2.703-9.775-2.707-10.951c-0.002-0.887-0.07-3.036-2.869-8.947
	C14.267,6.746,16.864,6.014,16.968,6.258z"/>
<path fill="#F2F5F7" d="M17.2,5.983c0.084,0.056,0.072,0.942,0.072,0.942c-0.674-0.319-2.451-0.184-2.777,0.303
	c-0.127-0.281-0.262-0.562-0.391-0.854C13.949,6.023,16.312,5.399,17.2,5.983z"/>
<path fill="#8E3ED6" d="M55,20.319c0,0-1.57-3.046-5.047-4.022l-2.133-1.262c-0.281,0.215-0.219,0.35-0.219,0.35
	s1.023,2.071,7.045,5.087C54.646,20.472,54.809,20.563,55,20.319z"/>
<path fill="#302C3B" d="M48.535,19.881c1.375-0.686,4.699,2.395,6.111,0.591c0,0-1.434-2.85-4.912-3.824l-2.133-1.263
	C44.799,18.028,46.275,18.617,48.535,19.881z"/>
<path fill="#8E3ED6" d="M51.436,20.54c-0.248-1.114-0.654-1.556-1.039-1.129c-0.25-0.638-0.717-0.546-0.916-0.271
	c-0.367-0.545-0.865-0.23-0.598,0.646C49.055,20.267,51.504,20.841,51.436,20.54z"/>
<path fill="#FFCC66" d="M46.445,17.646c-4.635,1.767-7.068,0.843-10.591,3.587c-3.573,1.96-5.331,1.556-8.822,3.31
	c-0.99,1.353,0.346,4.104,2.044,5.481c6.301-2.995,8.996-4.573,9.855-5.395c0.648-0.619,2.268-2.398,8.52-4.518
	C47.961,19.938,46.697,17.549,46.445,17.646z"/>
<path fill="#F2F5F7" d="M46.484,17.286c-0.098-0.022-0.736,0.606-0.736,0.606c0.701,0.264,1.83,1.643,1.703,2.219
	c0.293-0.105,0.59-0.204,0.893-0.316C48.709,19.661,47.529,17.52,46.484,17.286z"/>
<path fill="#302C3B" d="M18.628,23.088c0,0,2.818-0.016,5.978-1.886c0,0,0.826,2.442,1.689,3.23c1.131-0.739,3.684-1.91,3.684-1.91
	s0.66,3.419,3.692,5.632c0,0-4.27,2.554-5.323,4.294c0,0-4.188,1.582-8.611-1.292C19.737,31.156,18.597,26.489,18.628,23.088z"/>
<path fill="#FFCC66" d="M32.022,41.766c1.108,0.233,2.118,0.466,2.799,0.665c1.708,1.796,3.995,3.117,5.569,5.57
	c0.207,0.323-0.197,1.339,0.105,2.148c0.383,1.023-0.07,1.616,0.191,1.662c0.587,0.103,1.02-0.42,0.834-1.46
	c1.104,0.274,0.936,1.633,1.715,2.694c0.18,0.244,0.75,0.264,0.611-0.375c0,0,0.611,0.359,0.484-0.421
	c0.545,0,0.333-0.656,0.333-0.656c0.933-0.191-1.993-4.764-2.31-5.138c-1.85-2.171-4.563-6.263-5.398-6.721
	c-0.352-0.193-1.843-1.219-3.282-1.699C33.147,39.29,32.598,40.533,32.022,41.766z"/>
<path fill="#DB9D3A" d="M43.848,52.671c-0.611-0.952-1.344-2.314-1.344-2.314S43.082,52.058,43.848,52.671z"/>
<path fill="#DB9D3A" d="M44.332,52.25c-0.484-0.359-1.563-2.326-1.563-2.326S43.754,52.25,44.332,52.25z"/>
<path fill="#DB9D3A" d="M44.665,51.594c-0.634-0.507-1.567-2.255-1.567-2.255S44.035,51.515,44.665,51.594z"/>
<path fill="#FFCC66" d="M12.733,61.018c-0.33-0.068-0.484,0.876,0.185,0.915c3.112,0.177,3.643,0.021,4.804-0.646
	c0.844-0.483,0.915,0.915,2.54,0.646c0.533-0.089,0.642-0.841,0.261-0.935c-1.417-0.355-1.465-1.457-1.894-2.423
	c-0.479-1.081-0.419-7.758-0.419-7.758s0.367-1.845,1.553-3.473l-3.402-2.557c-2.09,6.987-1.904,3.686,0.176,12.602
	c0.134,0.573-0.296,1.661-0.603,2.285C15.527,60.502,13.483,61.173,12.733,61.018z"/>
<path fill="#8E3ED6" d="M15.821,45.241c0,0,2.189,0.788,3.898,2.913c0,0,0.564-2.444,2.004-3.685
	c3.203-1.468,3.317,0.371,8.017-2.583l3.562,0.436c0,0-0.1-2.37,0.984-4.39c0,0-2.239-0.539-3.444-0.793
	c-0.176-0.037-2.273-2.319-1.502-5.913c0,0-5.416,0.615-10.025-1.203c-0.711,4.033,1.447,7.67,0.088,10.313
	C18.952,40.994,16.794,43.017,15.821,45.241z"/>
<path fill="#DB9D3A" d="M12.907,61.036c2.076,0.085,2.823-0.665,2.823-0.665S14.749,60.986,12.907,61.036z"/>
<path fill="#E6B045" d="M28.36,41.686c-0.354-2.012-5.102-1.176-4.747,0.836c0.121,0.687,0.392,2.227,0.392,2.227l4.748-0.836
	C28.753,43.912,28.481,42.372,28.36,41.686z"/>
<path id="Path_474_" fill="#FFCC66" d="M32.494,48.574c-0.823,0.046-1.881-2.551-1.5-3.353c0.053-0.11,0.441-0.343,0.859,0.232
	c0.231,0.317,0.774,0.52,1.054,1.21C33.265,47.551,33.312,48.53,32.494,48.574z"/>
<path id="Path_473_" fill="#FFCC66" d="M22.087,50.41c0.789-0.239,0.895-3.041,0.263-3.663c-0.089-0.087-0.532-0.172-0.729,0.512
	c-0.109,0.378-0.55,0.754-0.576,1.497C21.012,49.712,21.303,50.649,22.087,50.41z"/>
<path id="Path_472_" fill="#DB9D3A" d="M32.38,48.063c-0.222-0.03-0.508-0.311-0.726-0.819c0.763,0.028,0.363-1.164-0.28-1.075
	c-0.016-0.125-0.029-0.251-0.038-0.387c0.386,0.392,0.667,0.156,1.094,0.768C32.815,47.099,32.93,48.132,32.38,48.063z"/>
<path id="Path_471_" fill="#DB9D3A" d="M22.42,48.873c-0.031,0.552-0.203,0.913-0.402,1.016c-0.491,0.255-0.738-0.757-0.564-1.404
	c0.192-0.72,0.536-0.596,0.766-1.096c0.038,0.13,0.069,0.256,0.096,0.379C21.688,47.909,21.72,49.148,22.42,48.873z"/>
<path fill="#FFCC66" d="M28.204,54.678c3.49-0.615,4.67-3.753,3.816-7.371c-0.173-0.728-0.564-1.752-0.977-2.615
	c-0.856-1.795-3.954-3.209-5.129-3.002c-1.176,0.208-3.603,2.597-3.794,4.574c-0.092,0.954-0.109,2.05-0.023,2.792
	C22.532,52.747,24.713,55.294,28.204,54.678z"/>
<path fill="#D47706" d="M26.437,44.657c0.882,0.216,0.828-0.13,2.075-0.438c-0.568-0.453-1.039-1.084-2.303-0.861
	c-1.451,0.256-1.558,1.084-1.872,1.598C25.616,44.816,25.682,45.163,26.437,44.657z"/>
<path fill="#FFFFFF" d="M28.109,44.152c-0.976-0.712-2.751-0.388-3.417,0.602C25.938,44.393,26.815,44.239,28.109,44.152z"/>
<path fill="#966F42" d="M23.564,50.051c0.838,0.318,2.208,0.134,2.692-0.269c0.103-0.083,0.015-0.404-0.077-0.346
	c-0.711,0.454-1.878,0.677-2.664,0.435C23.411,49.84,23.437,50.006,23.564,50.051z"/>
<path fill="#966F42" d="M30.982,48.742c-0.679,0.587-2.029,0.882-2.622,0.669c-0.125-0.042-0.152-0.373-0.046-0.351
	c0.824,0.185,1.995-0.008,2.651-0.504C31.054,48.492,31.084,48.657,30.982,48.742z"/>
<path fill="#DB9D3A" d="M25.857,45.957c0.093,0.043,0.273-0.082,0.78-0.171c0.506-0.089,0.717-0.033,0.79-0.105
	c0.087-0.088-0.127-0.378-0.853-0.251C25.848,45.559,25.745,45.902,25.857,45.957z"/>
<path id="Path_470_" fill="#FFFFFF" d="M27.807,47.889c-0.07-0.227,0.039-0.527,0.436-0.809c0.253-0.18,0.799-0.436,1.61-0.25
	c0.363,0.085,0.77,0.469,0.784,0.72C30.364,48.393,28.373,48.86,27.807,47.889z"/>
<linearGradient id="Oval_1_" gradientUnits="userSpaceOnUse" x1="-679.4619" y1="470.5596" x2="-679.4619" y2="470.8037" gradientTransform="matrix(-6.4703 1.1409 1.1409 6.4703 -4904.1465 -2222.5925)">
	<stop  offset="0" style="stop-color:#A6694A"/>
	<stop  offset="1" style="stop-color:#4F2A1E"/>
	<a:midPointStop  offset="0" style="stop-color:#A6694A"/>
	<a:midPointStop  offset="0.5" style="stop-color:#A6694A"/>
	<a:midPointStop  offset="1" style="stop-color:#4F2A1E"/>
</linearGradient>
<circle id="Oval_42_" fill="url(#Oval_1_)" cx="29.175" cy="47.663" r="0.802"/>
<path id="Path_469_" fill="#1A1626" d="M29.572,47.609c-0.096-0.546-0.887-0.408-0.79,0.14
	C28.871,48.255,29.661,48.115,29.572,47.609z"/>
<path id="Path_468_" fill="#AB968C" d="M29.731,47.81c-0.041-0.229-0.372-0.171-0.332,0.059
	C29.438,48.08,29.769,48.022,29.731,47.81z"/>
<path id="Path_467_" fill="#45332C" d="M27.798,47.859c0.502,0.975,2.663,0.437,2.838-0.31
	C30.683,48.458,28.302,49.117,27.798,47.859z"/>
<path id="Path_466_" fill="#FFFFFF" d="M26.254,48.163c-0.011-0.236-0.216-0.482-0.686-0.612c-0.299-0.082-0.9-0.135-1.598,0.316
	c-0.313,0.203-0.563,0.705-0.49,0.943C24.024,49.51,26.055,49.268,26.254,48.163z"/>
<linearGradient id="Oval_2_" gradientUnits="userSpaceOnUse" x1="-681.501" y1="470.5586" x2="-681.501" y2="470.8027" gradientTransform="matrix(-6.4703 1.1409 1.1409 6.4703 -4921.6074 -2219.5105)">
	<stop  offset="0" style="stop-color:#A6694A"/>
	<stop  offset="1" style="stop-color:#4F2A1E"/>
	<a:midPointStop  offset="0" style="stop-color:#A6694A"/>
	<a:midPointStop  offset="0.5" style="stop-color:#A6694A"/>
	<a:midPointStop  offset="1" style="stop-color:#4F2A1E"/>
</linearGradient>
<circle id="Oval_41_" fill="url(#Oval_2_)" cx="24.911" cy="48.416" r="0.802"/>
<path id="Path_465_" fill="#1A1626" d="M25.308,48.361c-0.097-0.546-0.886-0.408-0.79,0.14
	C24.607,49.009,25.396,48.867,25.308,48.361z"/>
<path id="Path_464_" fill="#AB968C" d="M25.467,48.562c-0.041-0.231-0.372-0.173-0.332,0.059
	C25.174,48.832,25.504,48.774,25.467,48.562z"/>
<path id="Path_463_" fill="#45332C" d="M26.252,48.132c-0.138,1.087-2.35,1.325-2.772,0.679
	C23.747,49.68,26.21,49.486,26.252,48.132z"/>
<linearGradient id="SVGID_2_" gradientUnits="userSpaceOnUse" x1="68.6416" y1="76.7334" x2="68.6416" y2="68.9082" gradientTransform="matrix(0.9848 -0.1736 -0.1736 -0.9848 -27.3719 135.1889)">
	<stop  offset="0" style="stop-color:#473834"/>
	<stop  offset="0.2717" style="stop-color:#594640"/>
	<stop  offset="0.7226" style="stop-color:#715950"/>
	<stop  offset="1" style="stop-color:#7A6056"/>
	<a:midPointStop  offset="0" style="stop-color:#473834"/>
	<a:midPointStop  offset="0.4" style="stop-color:#473834"/>
	<a:midPointStop  offset="1" style="stop-color:#7A6056"/>
</linearGradient>
<path fill="url(#SVGID_2_)" d="M28.319,55.401c-2.104,0.371-3.326-0.404-3.62-0.823c-1.827-0.3-3.387-2.85-2.654-6.016
	c0.688,2.252,1.179,2.867,3.44,4.357c2.176-2.474,6.138-2.76,6.391-6.091C33.996,50.529,32.453,54.672,28.319,55.401z"/>
<path fill="#473834" d="M25.485,52.92c-1.923-0.905-3.242-2.396-3.44-4.357C22.76,50.666,23.625,51.502,25.485,52.92z"/>
<path fill="#473834" d="M24.699,54.578c1.165-3.931,7.194-3.681,7.177-7.749C31.364,50.66,25.356,50.402,24.699,54.578z"/>
</svg>
