<?xml version="1.0" encoding="utf-8"?>
<!-- Generator: Adobe Illustrator 15.0.0, SVG Export Plug-In . SVG Version: 6.00 Build 0)  -->
<!DOCTYPE svg PUBLIC "-//W3C//DTD SVG 1.1//EN" "http://www.w3.org/Graphics/SVG/1.1/DTD/svg11.dtd" [
	<!ENTITY ns_flows "http://ns.adobe.com/Flows/1.0/">
	<!ENTITY ns_extend "http://ns.adobe.com/Extensibility/1.0/">
	<!ENTITY ns_ai "http://ns.adobe.com/AdobeIllustrator/10.0/">
	<!ENTITY ns_graphs "http://ns.adobe.com/Graphs/1.0/">
]>
<svg version="1.1" id="Layer_1" xmlns:x="&ns_extend;" xmlns:i="&ns_ai;" xmlns:graph="&ns_graphs;"
	 xmlns="http://www.w3.org/2000/svg" xmlns:xlink="http://www.w3.org/1999/xlink" xmlns:a="http://ns.adobe.com/AdobeSVGViewerExtensions/3.0/"
	 x="0px" y="0px" width="64px" height="64px" viewBox="0 0 64 64" enable-background="new 0 0 64 64" xml:space="preserve">
<path fill="#FAC150" d="M23.438,17.219c-1.25-1.227-1.414,1.887-1.539,2.236c0,0-1.439-2.75-4.467-4.018
	c0,0,0.198-0.293,1.149-2.289C20.51,7.397,23.438,17.219,23.438,17.219z"/>
<path fill="#FFCC66" d="M26.844,3.8c3.346,1.496,3.961,4.337,2.607,7.131c-0.305,0.631-0.183,1.885,0.469,2.842
	c0.235,0.349,0.171,0.71-0.043,0.904c-0.419,0.384-1.068,0.213-1.386,0.315c-0.71,0.223-0.218,0.811-0.795,1.145
	c-0.263,0.152-0.782-0.281-0.45,0.984c-0.835,0.322,0.001,1.863-1.845,1.57c-0.969-0.152-4.353-3.468-4.643-4.377
	c-0.304-0.953,0.222-2.425,0.222-2.425c-2.477-1.493-2.796-4.091-1.56-6.388C21.148,2.29,24.674,2.832,26.844,3.8z"/>
<path fill="#DB9D3A" d="M27.58,16.321c0,0,0.312,0.982-0.383,0.797c-0.82-0.22-0.849-0.911-1.518-1.316
	c1.036,0.059,2.061-0.081,2.242,0.042C27.994,15.891,27.82,16.164,27.58,16.321z"/>
<linearGradient id="SVGID_1_" gradientUnits="userSpaceOnUse" x1="-1783.3042" y1="-258.752" x2="-1773.1641" y2="-258.752" gradientTransform="matrix(-0.9659 -0.2588 -0.2588 0.9659 -1759.2784 -202.9005)">
	<stop  offset="0" style="stop-color:#473834"/>
	<stop  offset="0.0561" style="stop-color:#4B3B36"/>
	<stop  offset="0.6687" style="stop-color:#6D564D"/>
	<stop  offset="1" style="stop-color:#7A6056"/>
	<a:midPointStop  offset="0" style="stop-color:#473834"/>
	<a:midPointStop  offset="0.4303" style="stop-color:#473834"/>
	<a:midPointStop  offset="1" style="stop-color:#7A6056"/>
</linearGradient>
<path fill="url(#SVGID_1_)" d="M21.135,4.005c3.488-3.074,9.48,0.958,9.701,1.997c0.078,0.375-0.348,1.135-0.762,1.587
	c-1.049-0.28-2.892-1.715-4.465-1.432c-2.331,0.419-1.109,5.258-3.081,4.974C22.219,11.086,19.575,5.583,21.135,4.005z"/>
<linearGradient id="SVGID_2_" gradientUnits="userSpaceOnUse" x1="-1783.2427" y1="-257.5742" x2="-1770.7305" y2="-257.5742" gradientTransform="matrix(-0.9659 -0.2588 -0.2588 0.9659 -1759.2784 -202.9005)">
	<stop  offset="0" style="stop-color:#7A6056"/>
	<stop  offset="0.3119" style="stop-color:#775D54"/>
	<stop  offset="0.5686" style="stop-color:#6D554D"/>
	<stop  offset="0.8048" style="stop-color:#5B4842"/>
	<stop  offset="1" style="stop-color:#473834"/>
	<a:midPointStop  offset="0" style="stop-color:#7A6056"/>
	<a:midPointStop  offset="0.7455" style="stop-color:#7A6056"/>
	<a:midPointStop  offset="1" style="stop-color:#473834"/>
</linearGradient>
<path fill="url(#SVGID_2_)" d="M19.486,3.492c1.034-1.012,2.85-2.038,6.114-1.156c2.947,0.797,5.016,2.628,5.236,3.667
	c-1.082-0.29-4.002-2.552-6.064-1.728c-3.21,1.282-1.606,4.623-2.695,6.159c-1.702,2.408-3.497,2.715-3.497,2.715
	C16.925,11.116,16.811,6.11,19.486,3.492z"/>
<path fill="#DB9D3A" d="M29.867,14.679c-0.414,0.579-2.001,0.304-2.285-0.613C28.24,14.875,30.109,14.342,29.867,14.679z"/>
<path fill="#FFCC66" d="M21.843,8.628c1.233,0.62,0.849,3.678-0.3,4.055c-0.161,0.054-0.896-0.058-1.081-0.882
	c-0.102-0.455-0.743-1.063-0.638-1.875C19.959,8.886,20.617,8.012,21.843,8.628z"/>
<path id="Path_763_" fill="#DB9D3A" d="M21.627,9.158c0.3,0.202,0.511,0.668,0.45,1.276c-1.09-0.633-1.391,0.702-0.388,1.14
	c-0.068,0.118-0.144,0.238-0.231,0.36c-0.274-0.643-0.856-0.668-1.025-1.527C20.279,9.629,20.88,8.658,21.627,9.158z"/>
<path fill="#FFFFFF" d="M26.349,11.043c-0.068,0.185,0.347,1.023,1.087,1.29c0.424,0.154,0.668-0.14,0.861-0.475
	C28.775,10.45,26.951,10.506,26.349,11.043z"/>
<linearGradient id="Path_1_" gradientUnits="userSpaceOnUse" x1="-1781.7104" y1="-254.582" x2="-1781.7104" y2="-256.1465" gradientTransform="matrix(-0.9659 -0.2588 -0.2588 0.9659 -1759.2784 -202.9005)">
	<stop  offset="0" style="stop-color:#A6694A"/>
	<stop  offset="1" style="stop-color:#4F2A1E"/>
	<a:midPointStop  offset="0" style="stop-color:#A6694A"/>
	<a:midPointStop  offset="0.5" style="stop-color:#A6694A"/>
	<a:midPointStop  offset="1" style="stop-color:#4F2A1E"/>
</linearGradient>
<path id="Path_762_" fill="url(#Path_1_)" d="M28.377,11.684c-0.281,1.045-1.491,0.721-1.211-0.324
	C27.426,10.389,28.637,10.714,28.377,11.684z"/>
<path id="Path_761_" fill="#1A1626" d="M28.262,11.606c-0.141,0.521-0.742,0.359-0.604-0.163
	C27.789,10.957,28.392,11.119,28.262,11.606z"/>
<path id="Path_760_" fill="#AB968C" d="M27.945,11.293c-0.059,0.217-0.41,0.123-0.352-0.096C27.648,10.994,28,11.089,27.945,11.293z
	"/>
<path fill="#DB9D3A" d="M26.349,11.043c0.501-0.563,2.249-0.604,2.057,0.288C28.336,10.679,27.046,10.681,26.349,11.043z"/>
<path id="Path_759_" fill="#966F42" d="M26.557,9.163c0.906-0.048,2.208,0.645,2.525,1.203c0.073,0.113-0.215,0.475-0.281,0.39
	c-0.498-0.684-1.574-1.289-2.39-1.289C26.301,9.464,26.422,9.165,26.557,9.163z"/>
<path fill="#3AB0A2" d="M19.895,13.094c0.221,0.764,1.996,1.497,2.725,1.205c1.355-0.539,2.426-4.337,1.754-5.653
	c-0.361-0.706-2.293-1.328-2.988-0.96C20.092,8.372,19.342,11.185,19.895,13.094z M23.006,8.575
	c0.449-0.491,1.418,0.419,0.971,0.912S22.561,9.068,23.006,8.575z M23.055,12.909c0.377,0.671-0.934,1.44-1.313,0.774
	C21.363,13.014,22.676,12.243,23.055,12.909z M22.457,8.296c0.186,0.674-1.141,1.056-1.33,0.382
	C20.941,8.001,22.268,7.622,22.457,8.296z"/>
<path fill="#F2F5F7" d="M25.695,19.298c0.281,0.248,0.76-0.221,0.691-0.456c-0.299-1.033-2.66-4.716-3.508-5.547
	c-0.357-0.351-0.793,0.171-0.693,0.455C22.578,14.881,24.895,18.592,25.695,19.298z"/>
<path fill="#E3E6E8" d="M28.363,3.699c0.271-0.348-0.238-0.752-0.494-0.628c-1.123,0.536-5.137,3.823-6.043,4.897
	c-0.285,0.334,0.133,0.823,0.49,0.632C23.551,7.94,27.596,4.695,28.363,3.699z"/>
<path fill="#F2F5F7" d="M29.02,4.046c0.207-0.352-0.334-0.705-0.559-0.57c-0.99,0.591-4.326,3.999-5.031,5.087
	c-0.299,0.457,0.289,0.751,0.557,0.572C25.061,8.423,28.432,5.051,29.02,4.046z"/>
<path fill="#FAC150" d="M36.361,15.663c-2.426,2.535-5.182,7.967-6.547,8.332c-2.416,0.648-6.676-1.609-9.178-1.857
	c-3.83-0.385-2.447-5.479,0.494-4.549c2.611,0.824,6.039,1.963,7.422,2.441c2.209-2.686,5.805-3.984,5.432-6.693
	C33.664,10.981,38.449,13.481,36.361,15.663z"/>
<path fill="#FAC150" d="M22.061,37.998c-3.018,0.346-3.514,1.914-5.166,3.084c0.564,0.357,1.652,6.148,0.191,8.457l3.668,0.311
	c1.645-5.854,2.693-6.303,2.813-8.889C23.605,40.092,23.08,39.207,22.061,37.998z"/>
<path fill="#25A898" d="M22.061,37.998c-2.236-3.197-7.076-6.644-7.076-6.644L10.1,35.268c1.516,4.1,5.195,4.646,7.084,6.018
	C19.021,40.404,20.229,38.811,22.061,37.998z"/>
<path fill="#E6EBEF" d="M17.07,49.209l3.691,0.096l0.184-1.221l-3.611-0.482C17.334,47.602,16.879,48.563,17.07,49.209z"/>
<path fill="#3AB0A2" d="M19.473,55.875l-3.145-0.313c-0.459-0.045-0.119-0.773-0.119-0.773s3.115-1.5,12.346,0.391
	C28.555,55.18,26.07,58.264,19.473,55.875z"/>
<path fill="#302C3B" d="M16.768,51.75c-0.398-0.924,0.059-3.643,0.346-3.453c0.553,0.365,2.744,0.475,3.264,0.189
	c-0.396-1.947,1.293-1.598,1.252-1.014c-0.574,8.17,7.658,3.949,6.926,7.707c0,0-4.281,1.93-8.906-0.021l-3.439-0.369
	C15.994,52.719,16.77,51.752,16.768,51.75z"/>
<path fill="#3AB0A2" d="M24.008,52.623c-1.58,0.506-1.916,0.184-1.645-0.586c-0.977,0.16-1.18-0.465-0.973-0.898
	c-0.941-0.051-0.885-0.875,0.404-1.184C22.518,49.813,24.434,52.486,24.008,52.623z"/>
<path fill="#F7C259" d="M17.416,15.02c1.256,10.758,5.113,14.65,6.139,3.326C22.287,17.817,21.092,14.981,17.416,15.02z"/>
<path fill="#FFCC66" d="M18.984,41.875c0,0-2.555-2.088-6.758,0.895c0,0,0.498,1.275,0.449,2.408
	c-4.074,0.455-4.059,2.787-6.674,5.564l3.162,1.738c1.734-3.176,6.83-3.055,9.041-5.295C19.654,45.719,18.984,41.875,18.984,41.875z
	"/>
<path fill="#3AB0A2" d="M18.984,41.875c-0.096-1.92,0.49-4.568-1.623-8.445c-1.615-2.957,6.479-3.544,6.479-15.041
	c0,0-0.592-0.813-0.748-0.369c-0.865,2.451-3.547-0.045-4.355-1.926c-0.547-1.268-3.061-2.17-4.832-0.443
	c-4.83,4.701-3.135,10.025-5.473,13.91c-1.387,2.303-1.852,5.187,0.17,7.183c1.504,1.484,2.063,3.709,3.625,6.025
	C14.061,41.936,16.686,41.186,18.984,41.875z"/>
<path fill="#FAC150" d="M12.186,18.442c-2.053,4.553,2.547,6.717,4.762,2.246C19.693,15.147,14.566,13.161,12.186,18.442z"/>
<path fill="#FFCC66" d="M29.826,26.991c-0.342-0.494,0.168-1.287-0.912-1.072c0,0-0.219-0.771-0.641-0.572
	c-1.525,0.723-1.914,1.057-2.221,2.26c-0.105,0.414-6.93-0.387-9.471-0.311c0.668-3.242,2.719-12.193-0.871-11.955
	c-3.277,0.678-3.992,14.873-2.836,15.143c5.494,1.273,11.861-0.707,13.301-0.496c2.008,0.291,4.307-0.479,3.787-1.689
	C29.727,27.754,30.141,27.45,29.826,26.991z"/>
<path fill="#E6EBEF" d="M5.33,51.623l3.352,1.547l0.652-1.049L6.207,50.25C6.207,50.25,5.408,50.953,5.33,51.623z"/>
<path fill="#3AB0A2" d="M4.898,58.695l-2.764-1.529C1.73,56.941,2.33,56.408,2.33,56.408s3.455-0.146,11.186,5.24
	C13.516,61.648,10.016,63.5,4.898,58.695z"/>
<path fill="#302C3B" d="M4.047,53.836c-0.002-1.006,1.494-3.32,1.684-3.033c0.363,0.553,2.332,1.521,2.92,1.465
	c0.408-1.947,1.822-0.957,1.553-0.436c-3.758,7.275,5.471,6.654,3.313,9.816c0,0-4.695,0.08-8.172-3.541L2.33,56.408
	C2.953,54.422,4.047,53.84,4.047,53.836z"/>
<path fill="#3AB0A2" d="M10.352,57.502c-1.65-0.16-1.834-0.588-1.279-1.189c-0.959-0.238-0.9-0.893-0.537-1.209
	c-0.846-0.42-0.469-1.152,0.838-0.928C10.094,54.332,10.795,57.545,10.352,57.502z"/>
<path fill="#FAC150" d="M39.641,17.219c1.25-1.227,1.414,1.887,1.539,2.236c0,0,1.439-2.75,4.467-4.018c0,0-0.197-0.293-1.148-2.289
	C42.568,7.397,39.641,17.219,39.641,17.219z"/>
<path fill="#FFCC66" d="M36.234,3.8c-3.346,1.496-3.961,4.337-2.607,7.131c0.305,0.631,0.183,1.885-0.469,2.842
	c-0.235,0.349-0.171,0.71,0.043,0.904c0.419,0.384,1.068,0.213,1.386,0.315c0.71,0.223,0.218,0.811,0.795,1.145
	c0.263,0.152,0.782-0.281,0.45,0.984c0.835,0.322-0.001,1.863,1.845,1.57c0.969-0.152,4.353-3.468,4.643-4.377
	c0.304-0.953-0.222-2.425-0.222-2.425c2.477-1.493,2.796-4.091,1.56-6.388C41.93,2.29,38.404,2.832,36.234,3.8z"/>
<path fill="#DB9D3A" d="M35.498,16.321c0,0-0.312,0.982,0.383,0.797c0.82-0.22,0.849-0.911,1.518-1.316
	c-1.036,0.059-2.061-0.081-2.242,0.042C35.084,15.891,35.258,16.164,35.498,16.321z"/>
<linearGradient id="SVGID_3_" gradientUnits="userSpaceOnUse" x1="108.5947" y1="248.1572" x2="118.7354" y2="248.1572" gradientTransform="matrix(0.9659 -0.2588 0.2588 0.9659 -136.2166 -202.9005)">
	<stop  offset="0" style="stop-color:#473834"/>
	<stop  offset="0.0561" style="stop-color:#4B3B36"/>
	<stop  offset="0.6687" style="stop-color:#6D564D"/>
	<stop  offset="1" style="stop-color:#7A6056"/>
	<a:midPointStop  offset="0" style="stop-color:#473834"/>
	<a:midPointStop  offset="0.4303" style="stop-color:#473834"/>
	<a:midPointStop  offset="1" style="stop-color:#7A6056"/>
</linearGradient>
<path fill="url(#SVGID_3_)" d="M41.943,4.005c-3.488-3.074-9.48,0.958-9.701,1.997c-0.078,0.375,0.348,1.135,0.762,1.587
	c1.049-0.28,2.892-1.715,4.465-1.432c2.332,0.419,1.109,5.258,3.081,4.974C40.859,11.086,43.503,5.583,41.943,4.005z"/>
<linearGradient id="SVGID_4_" gradientUnits="userSpaceOnUse" x1="108.6563" y1="249.335" x2="121.168" y2="249.335" gradientTransform="matrix(0.9659 -0.2588 0.2588 0.9659 -136.2166 -202.9005)">
	<stop  offset="0" style="stop-color:#7A6056"/>
	<stop  offset="0.3119" style="stop-color:#775D54"/>
	<stop  offset="0.5686" style="stop-color:#6D554D"/>
	<stop  offset="0.8048" style="stop-color:#5B4842"/>
	<stop  offset="1" style="stop-color:#473834"/>
	<a:midPointStop  offset="0" style="stop-color:#7A6056"/>
	<a:midPointStop  offset="0.7455" style="stop-color:#7A6056"/>
	<a:midPointStop  offset="1" style="stop-color:#473834"/>
</linearGradient>
<path fill="url(#SVGID_4_)" d="M43.592,3.492c-1.033-1.012-2.85-2.038-6.113-1.156c-2.947,0.797-5.016,2.628-5.236,3.667
	c1.082-0.29,4.002-2.552,6.064-1.728c3.209,1.282,1.605,4.623,2.694,6.159c1.702,2.408,3.497,2.715,3.497,2.715
	C46.152,11.116,46.268,6.11,43.592,3.492z"/>
<path fill="#DB9D3A" d="M33.211,14.679c0.414,0.579,2.001,0.304,2.285-0.613C34.838,14.875,32.969,14.342,33.211,14.679z"/>
<path fill="#FFCC66" d="M41.235,8.628c-1.233,0.62-0.849,3.678,0.3,4.055c0.161,0.054,0.896-0.058,1.082-0.882
	c0.102-0.455,0.742-1.063,0.637-1.875C43.119,8.886,42.461,8.012,41.235,8.628z"/>
<path id="Path_758_" fill="#DB9D3A" d="M41.451,9.158c-0.301,0.202-0.512,0.668-0.45,1.276c1.09-0.633,1.392,0.702,0.388,1.14
	c0.068,0.118,0.144,0.238,0.231,0.36c0.274-0.643,0.856-0.668,1.025-1.527C42.799,9.629,42.198,8.658,41.451,9.158z"/>
<path fill="#FFFFFF" d="M36.729,11.043c0.067,0.185-0.347,1.023-1.087,1.29c-0.424,0.154-0.668-0.14-0.861-0.475
	C34.303,10.45,36.127,10.506,36.729,11.043z"/>
<linearGradient id="Path_2_" gradientUnits="userSpaceOnUse" x1="110.1875" y1="252.3271" x2="110.1875" y2="250.7627" gradientTransform="matrix(0.9659 -0.2588 0.2588 0.9659 -136.2166 -202.9005)">
	<stop  offset="0" style="stop-color:#A6694A"/>
	<stop  offset="1" style="stop-color:#4F2A1E"/>
	<a:midPointStop  offset="0" style="stop-color:#A6694A"/>
	<a:midPointStop  offset="0.5" style="stop-color:#A6694A"/>
	<a:midPointStop  offset="1" style="stop-color:#4F2A1E"/>
</linearGradient>
<path id="Path_757_" fill="url(#Path_2_)" d="M34.701,11.684c0.281,1.045,1.491,0.721,1.211-0.324
	C35.652,10.389,34.441,10.714,34.701,11.684z"/>
<path id="Path_756_" fill="#1A1626" d="M34.816,11.606c0.141,0.521,0.742,0.359,0.604-0.163
	C35.289,10.957,34.687,11.119,34.816,11.606z"/>
<path id="Path_755_" fill="#AB968C" d="M35.133,11.293c0.059,0.217,0.41,0.123,0.352-0.096
	C35.43,10.994,35.078,11.089,35.133,11.293z"/>
<path fill="#DB9D3A" d="M36.729,11.043c-0.501-0.563-2.249-0.604-2.057,0.288C34.742,10.679,36.032,10.681,36.729,11.043z"/>
<path id="Path_754_" fill="#966F42" d="M36.521,9.163c-0.906-0.048-2.208,0.645-2.525,1.203c-0.073,0.113,0.215,0.475,0.281,0.39
	c0.498-0.684,1.574-1.289,2.391-1.289C36.777,9.464,36.656,9.165,36.521,9.163z"/>
<path fill="#E81C27" d="M41.693,7.686c-0.695-0.368-2.627,0.254-2.988,0.96c-0.672,1.316,0.398,5.114,1.754,5.653
	c0.729,0.292,2.504-0.441,2.725-1.205C43.736,11.185,42.986,8.372,41.693,7.686z M39.102,9.487
	c-0.447-0.493,0.521-1.403,0.971-0.912C40.518,9.068,39.549,9.98,39.102,9.487z M41.336,13.683
	c-0.379,0.666-1.689-0.104-1.313-0.774C40.402,12.243,41.715,13.014,41.336,13.683z M41.951,8.678
	c-0.189,0.674-1.516,0.292-1.33-0.382C40.811,7.622,42.137,8.001,41.951,8.678z"/>
<path fill="#F2F5F7" d="M37.383,19.298c-0.281,0.248-0.76-0.221-0.691-0.456c0.299-1.033,2.66-4.716,3.508-5.547
	c0.357-0.351,0.793,0.171,0.693,0.455C40.5,14.881,38.184,18.592,37.383,19.298z"/>
<path fill="#E3E6E8" d="M34.715,3.699c-0.271-0.348,0.238-0.752,0.494-0.628c1.123,0.536,5.137,3.823,6.043,4.897
	c0.285,0.334-0.133,0.823-0.49,0.632C39.527,7.94,35.482,4.695,34.715,3.699z"/>
<path fill="#F2F5F7" d="M34.059,4.046c-0.207-0.352,0.334-0.705,0.559-0.57c0.99,0.591,4.326,3.999,5.031,5.087
	c0.299,0.457-0.289,0.751-0.557,0.572C38.018,8.423,34.646,5.051,34.059,4.046z"/>
<path fill="#FAC150" d="M30.906,32.959c0.158-0.539-0.525-1.094,0.496-1.219c0,0-0.033-0.748,0.4-0.693
	c1.563,0.195,2.004,0.377,2.629,1.355c0.213,0.338,6.031-2.365,8.307-3.039c-1.537-2.682-5.969-10.02-2.715-10.855
	c3.102-0.355,7.879,12.023,6.932,12.6c-4.5,2.732-10.725,2.835-11.938,3.441c-1.697,0.844-3.961,0.834-3.852-0.393
	C31.217,33.607,30.76,33.457,30.906,32.959z"/>
<path fill="#FAC150" d="M51.309,41.408c-0.414-1.195,3.314-3.145,0.1-3.578c-2.105-0.283-8.268,1.861-5.398,6.561
	c1.463,1.689,4.842,0.305,8.877,3.592l2.137-2.955C53.359,43.26,54.033,41.652,51.309,41.408z"/>
<path fill="#F7C259" d="M45.664,15.02c-1.258,10.758-5.115,14.65-6.141,3.326C40.791,17.817,41.986,14.981,45.664,15.02z"/>
<path fill="#FFCC66" d="M47.229,43.811c-1.893-1.34-2.814-3.793-6.516-2.309c-1.279,2.422-1.002,3.85-0.596,4.838
	c0.775,1.889,3.348,2.146,5.068,7.174l3.666-0.324c-1.244-3.34-0.906-5.191-2.838-7.133C45.99,45.271,46.375,44.635,47.229,43.811z"
	/>
<path fill="#E81C27" d="M55.154,30.559c-3.033-4.186-1.15-10.207-5.98-14.908c-1.771-1.727-4.285-0.824-4.832,0.443
	c-0.809,1.881-3.49,4.377-4.355,1.926c-0.156-0.443-0.748,0.369-0.748,0.369c0,10.344,8.957,13.01,6.9,15.109
	c-2.104,2.145-4.072,5.18-5.426,8.004c2.217,0.52,4.674,0.99,6.516,2.309c2.725-1.813,3.195-3.613,5.793-4.605
	C56.621,37.83,57.365,33.609,55.154,30.559z"/>
<path fill="#FAC150" d="M50.893,18.442c2.053,4.553-2.547,6.717-4.762,2.246C43.385,15.147,48.512,13.161,50.893,18.442z"/>
<path fill="#E6EBEF" d="M56.92,45.168l-2.541,2.68l-0.994-0.734l2.213-2.895C55.598,44.219,56.6,44.576,56.92,45.168z"/>
<path fill="#E81C27" d="M59.936,51.582l2.002-2.445c0.293-0.357-0.461-0.631-0.461-0.631s-3.264,1.143-8.455,9.006
	C53.021,57.512,56.959,57.936,59.936,51.582z"/>
<path fill="#302C3B" d="M58.932,46.75c-0.371-0.934-2.617-2.531-2.686-2.195c-0.135,0.648-1.605,2.275-2.174,2.441
	c-1.098-1.658-2.045-0.215-1.604,0.17c6.184,5.369-2.623,8.205,0.553,10.346c0,0,4.393-1.662,6.283-6.313l2.172-2.693
	C60.164,46.891,58.932,46.754,58.932,46.75z"/>
<path fill="#E81C27" d="M54.428,52.488c1.475-0.76,1.486-1.225,0.75-1.576c0.803-0.578,0.506-1.162,0.051-1.324
	c0.631-0.701,0.01-1.244-1.121-0.551C53.496,49.447,54.031,52.693,54.428,52.488z"/>
<path fill="#FFCC66" d="M45.84,15.409c-3.467,0.967-6.029,2.82-10.113,3.117c-2.047,0.146-10.133,0.039-10.912-0.154
	c-3.041-0.754-6.617-4.467-7.398-3.352c0.084,0.68,2.115,2.189,2.936,3.619c0.625,1.09,2.58,2.17,3.924,1.66
	c0.621-0.234,10.102,2.689,11.35,2.473c4.375-0.758,10.707-1.258,12.34-2.023C52.307,18.721,49.52,14.383,45.84,15.409z"/>
<path fill="#E6EBEF" d="M49.053,54.426l-3.689,0.096l-0.186-1.221l3.613-0.482C48.791,52.818,49.246,53.779,49.053,54.426z"/>
<path fill="#E81C27" d="M46.652,61.092l3.143-0.313c0.461-0.045,0.121-0.773,0.121-0.773s-3.115-1.5-12.346,0.391
	C37.57,60.396,40.053,63.48,46.652,61.092z"/>
<path fill="#302C3B" d="M49.357,56.967c0.398-0.924-0.061-3.643-0.348-3.453c-0.553,0.365-2.744,0.475-3.262,0.189
	c0.395-1.947-1.295-1.598-1.254-1.014c0.574,8.17-7.656,3.949-6.924,7.707c0,0,4.281,1.93,8.904-0.021l3.441-0.369
	C50.129,57.936,49.355,56.969,49.357,56.967z"/>
<path fill="#E81C27" d="M42.115,57.84c1.58,0.506,1.918,0.184,1.645-0.586c0.977,0.16,1.18-0.465,0.973-0.898
	c0.943-0.051,0.887-0.875-0.402-1.184C43.605,55.029,41.691,57.703,42.115,57.84z"/>
<path fill="#DB9D3A" d="M31.313,31.763c2.171-0.567,1.925,0.75,1.925,0.75S33.762,30.9,31.313,31.763z"/>
<path fill="#DB9D3A" d="M31.493,32.617c2.073-0.595,1.878,0.61,1.878,0.61S33.836,31.734,31.493,32.617z"/>
<path fill="#DB9D3A" d="M31.501,33.279c2.342-0.568,1.905,0.623,1.905,0.623S34.162,32.515,31.501,33.279z"/>
<path fill="#DB9D3A" d="M31.803,33.957c2.282-0.949,2.387,0.946-0.014,0.855C33.938,34.617,33.941,33.316,31.803,33.957z"/>
</svg>
