<?xml version="1.0" encoding="utf-8"?>
<!-- Generator: Adobe Illustrator 15.0.0, SVG Export Plug-In . SVG Version: 6.00 Build 0)  -->
<!DOCTYPE svg PUBLIC "-//W3C//DTD SVG 1.1//EN" "http://www.w3.org/Graphics/SVG/1.1/DTD/svg11.dtd" [
	<!ENTITY ns_flows "http://ns.adobe.com/Flows/1.0/">
	<!ENTITY ns_extend "http://ns.adobe.com/Extensibility/1.0/">
	<!ENTITY ns_ai "http://ns.adobe.com/AdobeIllustrator/10.0/">
	<!ENTITY ns_graphs "http://ns.adobe.com/Graphs/1.0/">
]>
<svg version="1.1" id="Layer_1" xmlns:x="&ns_extend;" xmlns:i="&ns_ai;" xmlns:graph="&ns_graphs;"
	 xmlns="http://www.w3.org/2000/svg" xmlns:xlink="http://www.w3.org/1999/xlink" xmlns:a="http://ns.adobe.com/AdobeSVGViewerExtensions/3.0/"
	 x="0px" y="0px" width="64px" height="64px" viewBox="0 0 64 64" enable-background="new 0 0 64 64" xml:space="preserve">
<path fill="#FF7A00" d="M9.007,2.367c0,0,3.346-1.106,6.492,0.521l2.417,0.528C17.953,3.757,17.81,3.81,17.81,3.81
	s-2.242,0.783-8.668-1.099C9.142,2.711,8.962,2.667,9.007,2.367z"/>
<path fill="#302C3B" d="M13.837,6.368c-0.451-1.403-5.047-1.44-4.695-3.657c0,0,3.105-1.06,6.25,0.569L17.81,3.81
	C17.81,7.546,16.345,6.979,13.837,6.368z"/>
<path fill="#FF7A00" d="M11.329,4.9c0.996-0.624,1.605-0.664,1.559-0.106c0.645-0.284,0.902,0.092,0.838,0.418
	c0.66-0.14,0.773,0.415-0.061,0.855C13.19,6.294,11.06,5.067,11.329,4.9z"/>
<path fill="#FFCC66" d="M16.968,6.258c1.936,4.517,4.287,5.677,4.748,10.071c1.062,3.891,2.57,4.813,3.722,8.504
	c-0.286,1.633-3.199,2.562-5.366,2.294c-2.203-6.547-2.703-9.775-2.707-10.951c-0.002-0.887-0.07-3.036-2.869-8.947
	C14.267,6.746,16.864,6.014,16.968,6.258z"/>
<path fill="#F2F5F7" d="M17.2,5.983c0.084,0.056,0.072,0.942,0.072,0.942c-0.674-0.319-2.451-0.184-2.777,0.303
	c-0.127-0.281-0.262-0.562-0.391-0.854C13.948,6.023,16.312,5.399,17.2,5.983z"/>
<path fill="#FF7A00" d="M55,20.319c0,0-1.57-3.046-5.047-4.022l-2.133-1.262c-0.281,0.215-0.219,0.35-0.219,0.35
	s1.023,2.071,7.045,5.087C54.646,20.472,54.808,20.563,55,20.319z"/>
<path fill="#302C3B" d="M48.535,19.881c1.375-0.686,4.699,2.395,6.111,0.591c0,0-1.434-2.85-4.912-3.824l-2.133-1.263
	C44.799,18.028,46.275,18.617,48.535,19.881z"/>
<path fill="#FF7A00" d="M51.436,20.54c-0.248-1.114-0.654-1.556-1.039-1.129c-0.25-0.638-0.717-0.546-0.916-0.271
	c-0.367-0.545-0.865-0.23-0.598,0.646C49.055,20.267,51.504,20.841,51.436,20.54z"/>
<path fill="#FFCC66" d="M46.445,17.646c-4.635,1.767-7.068,0.843-10.592,3.587c-3.572,1.96-5.33,1.556-8.821,3.31
	c-0.99,1.353,0.346,4.104,2.044,5.481c6.301-2.995,8.996-4.573,9.855-5.395c0.648-0.619,2.268-2.398,8.52-4.518
	C47.961,19.938,46.697,17.549,46.445,17.646z"/>
<path fill="#F2F5F7" d="M46.484,17.286c-0.098-0.022-0.736,0.606-0.736,0.606c0.701,0.264,1.83,1.643,1.703,2.219
	c0.293-0.105,0.59-0.204,0.893-0.316C48.709,19.661,47.529,17.52,46.484,17.286z"/>
<path fill="#302C3B" d="M18.628,23.088c0,0,2.817-0.016,5.978-1.886c0,0,0.826,2.442,1.689,3.23c1.132-0.739,3.684-1.91,3.684-1.91
	s0.66,3.419,3.691,5.632c0,0-4.27,2.554-5.322,4.294c0,0-4.188,1.582-8.611-1.292C19.736,31.156,18.597,26.489,18.628,23.088z"/>
<path fill="#FFCC66" d="M32.021,41.766c1.107,0.233,2.117,0.466,2.799,0.665c1.709,1.796,3.996,3.117,5.57,5.57
	c0.207,0.323-0.197,1.339,0.105,2.148c0.383,1.023-0.07,1.616,0.191,1.662c0.587,0.103,1.02-0.42,0.834-1.46
	c1.103,0.274,0.935,1.633,1.714,2.694c0.181,0.244,0.751,0.264,0.612-0.375c0,0,0.61,0.359,0.484-0.421
	c0.544,0,0.333-0.656,0.333-0.656c0.933-0.191-1.993-4.764-2.31-5.138c-1.85-2.171-4.563-6.263-5.398-6.721
	c-0.352-0.193-1.844-1.219-3.283-1.699C33.146,39.29,32.598,40.533,32.021,41.766z"/>
<path fill="#DB9D3A" d="M43.848,52.671c-0.612-0.952-1.344-2.314-1.344-2.314S43.081,52.058,43.848,52.671z"/>
<path fill="#DB9D3A" d="M44.332,52.25c-0.484-0.359-1.563-2.326-1.563-2.326S43.753,52.25,44.332,52.25z"/>
<path fill="#DB9D3A" d="M44.665,51.594c-0.634-0.507-1.568-2.255-1.568-2.255S44.034,51.515,44.665,51.594z"/>
<path fill="#FFCC66" d="M12.732,61.018c-0.33-0.068-0.483,0.876,0.186,0.915c3.111,0.177,3.643,0.021,4.804-0.646
	c0.844-0.483,0.915,0.915,2.54,0.646c0.533-0.089,0.642-0.841,0.261-0.935c-1.417-0.355-1.465-1.457-1.894-2.423
	c-0.479-1.081-0.419-7.758-0.419-7.758s0.367-1.845,1.553-3.473l-3.402-2.557c-2.09,6.987-1.904,3.686,0.176,12.602
	c0.134,0.573-0.296,1.661-0.603,2.285C15.527,60.502,13.482,61.173,12.732,61.018z"/>
<path fill="#FF7A00" d="M15.821,45.241c0,0,2.189,0.788,3.897,2.913c0,0,0.564-2.444,2.004-3.685
	c3.203-1.468,3.317,0.371,8.017-2.583l3.562,0.436c0,0-0.1-2.37,0.984-4.39c0,0-2.238-0.539-3.443-0.793
	c-0.176-0.037-2.273-2.319-1.502-5.913c0,0-5.415,0.615-10.024-1.203c-0.711,4.033,1.447,7.67,0.088,10.313
	C18.952,40.994,16.794,43.017,15.821,45.241z"/>
<path fill="#E6B045" d="M28.344,41.898c0,0-0.898-0.764-2.466-0.487s-2.15,1.301-2.15,1.301l0.447,2.537l4.616-0.813L28.344,41.898z
	"/>
<path fill="#DB9D3A" d="M12.907,61.036c2.075,0.085,2.822-0.665,2.822-0.665S14.748,60.986,12.907,61.036z"/>
<path fill="#473834" d="M21.993,46.626c-0.384-0.166-0.809-0.266-1.286-0.271c1.15,1.726,0.604,5.865,3.647,8.299
	c3.554-0.736,2.01-12.378-2.699-9.964c0.342,0.082,0.589,0.328,0.769,0.661c-0.403-0.043-0.852,0.032-1.347,0.285
	C21.525,45.743,21.812,46.13,21.993,46.626z"/>
<path fill="#473834" d="M32.404,53.235c2.026-3.328-0.143-6.989,0.348-9.004c-0.446,0.168-0.813,0.406-1.116,0.694
	c0.001-0.528,0.139-0.989,0.522-1.243c-0.55-0.068-0.998,0.014-1.362,0.192c0.054-0.374,0.203-0.689,0.496-0.884
	C26.041,42.333,28.813,53.758,32.404,53.235z"/>
<path id="Path_510_" fill="#FFCC66" d="M22.353,50.948c0.79-0.239,0.896-3.045,0.263-3.668c-0.089-0.087-0.532-0.172-0.729,0.511
	c-0.11,0.378-0.551,0.757-0.577,1.503C21.276,50.249,21.567,51.188,22.353,50.948z"/>
<path id="Path_497_" fill="#FFCC66" d="M32.776,49.11c-0.825,0.045-1.883-2.555-1.501-3.356c0.053-0.113,0.441-0.345,0.86,0.229
	c0.232,0.318,0.775,0.523,1.055,1.215C33.549,48.085,33.596,49.066,32.776,49.11z"/>
<path id="Path_496_" fill="#DB9D3A" d="M22.283,50.427c0.198-0.104,0.372-0.465,0.402-1.02c-0.708,0.288-0.74-0.97-0.104-1.105
	c-0.027-0.123-0.058-0.248-0.097-0.38c-0.229,0.503-0.573,0.378-0.767,1.099C21.544,49.671,21.791,50.682,22.283,50.427z"/>
<path id="Path_495_" fill="#DB9D3A" d="M31.938,47.778c0.217,0.509,0.503,0.789,0.725,0.818c0.55,0.071,0.438-0.964,0.052-1.515
	c-0.428-0.611-0.709-0.377-1.097-0.771c0.009,0.137,0.022,0.266,0.039,0.39C32.295,46.619,32.688,47.799,31.938,47.778z"/>
<path fill="#FFCC66" d="M28.48,55.225c3.496-0.617,4.678-3.761,3.821-7.385c-0.172-0.729-0.564-1.754-0.978-2.619
	c-0.857-1.798-3.959-3.213-5.138-3.005c-1.178,0.207-3.608,2.598-3.8,4.581c-0.092,0.954-0.109,2.052-0.022,2.795
	C22.8,53.29,24.983,55.841,28.48,55.225z"/>
<path id="Path_494_" fill="#966F42" d="M23.814,50.969c0.874,0.282,2.408,0.034,2.926-0.362c0.112-0.078-0.04-0.465-0.136-0.409
	c-0.739,0.454-2.019,0.688-2.824,0.471C23.674,50.641,23.682,50.932,23.814,50.969z"/>
<path id="Path_493_" fill="#966F42" d="M31.41,49.629c-0.725,0.564-2.251,0.855-2.873,0.661c-0.132-0.035-0.121-0.451-0.013-0.432
	c0.851,0.174,2.131-0.044,2.814-0.523C31.43,49.272,31.521,49.55,31.41,49.629z"/>
<path id="Path_492_" fill="#DB9D3A" d="M26.021,46.793c0.112,0.052,0.328-0.098,0.938-0.204c0.608-0.107,0.862-0.042,0.95-0.129
	c0.104-0.104-0.152-0.452-1.025-0.298C26.01,46.315,25.887,46.729,26.021,46.793z"/>
<path id="Path_491_" fill="#DB9D3A" d="M26.71,45.186c0.827,0.093,1.933-0.453,1.933-0.453c-0.529-0.406-0.964-0.976-2.147-0.767
	c-1.354,0.238-1.459,0.991-1.756,1.455C24.739,45.421,25.967,45.557,26.71,45.186z"/>
<path id="Path_490_" fill="#FFFFFF" d="M28.336,44.702c-0.947-0.546-2.612-0.258-3.318,0.585
	C25.89,45.094,27.444,44.819,28.336,44.702z"/>
<path id="Path_489_" fill="#FFFFFF" d="M28.136,48.719c-0.07-0.226,0.038-0.527,0.437-0.81c0.253-0.18,0.8-0.435,1.611-0.25
	c0.364,0.083,0.772,0.47,0.786,0.721C30.696,49.224,28.702,49.692,28.136,48.719z"/>
<linearGradient id="Oval_1_" gradientUnits="userSpaceOnUse" x1="-659.8462" y1="554.8262" x2="-659.8462" y2="555.0703" gradientTransform="matrix(-6.4703 1.1409 1.1409 6.4703 -4873.0371 -2789.3699)">
	<stop  offset="0" style="stop-color:#A6694A"/>
	<stop  offset="1" style="stop-color:#4F2A1E"/>
	<a:midPointStop  offset="0" style="stop-color:#A6694A"/>
	<a:midPointStop  offset="0.5" style="stop-color:#A6694A"/>
	<a:midPointStop  offset="1" style="stop-color:#4F2A1E"/>
</linearGradient>
<circle id="Oval_48_" fill="url(#Oval_1_)" cx="29.505" cy="48.494" r="0.803"/>
<path id="Path_488_" fill="#1A1626" d="M29.902,48.438c-0.096-0.547-0.887-0.407-0.791,0.14
	C29.201,49.086,29.992,48.946,29.902,48.438z"/>
<path id="Path_487_" fill="#AB968C" d="M30.063,48.64c-0.04-0.23-0.372-0.172-0.332,0.059C29.769,48.911,30.1,48.853,30.063,48.64z"
	/>
<path id="Path_111_" fill="#DB9D3A" d="M28.127,48.69c0.503,0.975,2.667,0.437,2.843-0.311C31.016,49.288,28.632,49.95,28.127,48.69
	z"/>
<path id="Path_110_" fill="#FFFFFF" d="M26.58,48.993c-0.012-0.236-0.216-0.482-0.688-0.611c-0.299-0.083-0.9-0.136-1.6,0.316
	c-0.314,0.202-0.565,0.705-0.492,0.945C24.346,50.344,26.38,50.102,26.58,48.993z"/>
<linearGradient id="Oval_2_" gradientUnits="userSpaceOnUse" x1="-661.8853" y1="554.8262" x2="-661.8853" y2="555.0703" gradientTransform="matrix(-6.4703 1.1409 1.1409 6.4703 -4890.498 -2786.2917)">
	<stop  offset="0" style="stop-color:#A6694A"/>
	<stop  offset="1" style="stop-color:#4F2A1E"/>
	<a:midPointStop  offset="0" style="stop-color:#A6694A"/>
	<a:midPointStop  offset="0.5" style="stop-color:#A6694A"/>
	<a:midPointStop  offset="1" style="stop-color:#4F2A1E"/>
</linearGradient>
<circle id="Oval_47_" fill="url(#Oval_2_)" cx="25.234" cy="49.248" r="0.804"/>
<path id="Path_109_" fill="#1A1626" d="M25.632,49.191c-0.097-0.547-0.889-0.407-0.792,0.14
	C24.93,49.839,25.722,49.699,25.632,49.191z"/>
<path id="Path_108_" fill="#AB968C" d="M25.791,49.393c-0.04-0.23-0.372-0.172-0.331,0.059
	C25.497,49.664,25.829,49.605,25.791,49.393z"/>
<path id="Path_107_" fill="#DB9D3A" d="M26.578,48.963c-0.139,1.089-2.354,1.327-2.777,0.681
	C24.069,50.513,26.535,50.32,26.578,48.963z"/>
<linearGradient id="SVGID_1_" gradientUnits="userSpaceOnUse" x1="-1517.8618" y1="-477.0518" x2="-1517.8618" y2="-485.377" gradientTransform="matrix(-0.9848 0.1736 -0.1736 -0.9848 -1550.3502 -158.32)">
	<stop  offset="0" style="stop-color:#473834"/>
	<stop  offset="0.2717" style="stop-color:#594640"/>
	<stop  offset="0.7226" style="stop-color:#715950"/>
	<stop  offset="1" style="stop-color:#7A6056"/>
	<a:midPointStop  offset="0" style="stop-color:#473834"/>
	<a:midPointStop  offset="0.4" style="stop-color:#473834"/>
	<a:midPointStop  offset="1" style="stop-color:#7A6056"/>
</linearGradient>
<path fill="url(#SVGID_1_)" d="M28.65,56.188c2.126-0.375,3.02-1.525,3.155-2.021c2.467-1.042,2.529-5.526,0.277-7.038
	c0.109,2.014,0.103,3.322-0.974,4.888c-0.944-0.89-2.635-1.186-4.058-0.935c0.76,0.37,1.304,0.769,1.743,1.152
	c-2.567-0.672-5.351-0.9-6.47-3.385C20.682,52.892,23.385,57.116,28.65,56.188z"/>
<path fill="#473834" d="M31.8,54.166c-0.287-1.821-1.26-3.051-4.759-3.083C29.44,50.491,32.192,51.52,31.8,54.166z"/>
<path fill="#473834" d="M31.22,52.115c0.73-1.027,1.457-2.713,0.861-4.986c0.161,1.938-0.438,3.662-1.052,4.818
	C31.097,51.999,31.159,52.055,31.22,52.115z"/>
<path fill="#473834" d="M29.805,52.959c-2.075-1.383-6.421-0.503-7.496-4.105C24.079,52.23,27.797,50.747,29.805,52.959z"/>
</svg>
