<?xml version="1.0" encoding="utf-8"?>
<!-- Generator: Adobe Illustrator 15.0.0, SVG Export Plug-In . SVG Version: 6.00 Build 0)  -->
<!DOCTYPE svg PUBLIC "-//W3C//DTD SVG 1.1//EN" "http://www.w3.org/Graphics/SVG/1.1/DTD/svg11.dtd" [
	<!ENTITY ns_flows "http://ns.adobe.com/Flows/1.0/">
	<!ENTITY ns_extend "http://ns.adobe.com/Extensibility/1.0/">
	<!ENTITY ns_ai "http://ns.adobe.com/AdobeIllustrator/10.0/">
	<!ENTITY ns_graphs "http://ns.adobe.com/Graphs/1.0/">
]>
<svg version="1.1" id="Layer_1" xmlns:x="&ns_extend;" xmlns:i="&ns_ai;" xmlns:graph="&ns_graphs;"
	 xmlns="http://www.w3.org/2000/svg" xmlns:xlink="http://www.w3.org/1999/xlink" xmlns:a="http://ns.adobe.com/AdobeSVGViewerExtensions/3.0/"
	 x="0px" y="0px" width="64px" height="64px" viewBox="0 0 64 64" enable-background="new 0 0 64 64" xml:space="preserve">
<path fill="#916B50" d="M24.696,23.986c0,0-3.164,1.938-4.686,2.313c-2.335-0.193-6.743,0.291-7.482,0.297
	c-0.717,0.008-2.742-0.619-3.232-0.396c-2.073,0.943-2.337,0.863-3.09,1.979c-0.57,0.846,0.18,0.568,0.568,0.182
	c0.604-0.598,2.015-1.002,2.164-0.238c-1.58,0.133-1.855,1.186-1.271,1.096c1.509-0.236,2.431-0.055,3.228-0.756
	c0.324-0.283,2.283-0.053,5.209,0.857c2.313,0.719,4.36,0.564,5.262,0.355c2.5-0.584,4.479-1.793,4.479-1.793L24.696,23.986z"/>
<path fill="#3AB0A2" d="M57.831,61.98c0,0,0.854-3.619-1.27-6.748l-0.84-2.48c-0.379-0.004-0.42,0.152-0.42,0.152
	s-0.617,2.43,2.139,8.971C57.44,61.875,57.507,62.061,57.831,61.98z"/>
<path fill="#302C3B" d="M52.925,57.328c1.586,0.332,2.123,5.141,4.516,4.547c0,0,0.826-3.363-1.299-6.49l-0.84-2.48
	C51.204,53.287,51.983,54.764,52.925,57.328z"/>
<path fill="#3AB0A2" d="M54.804,59.809c0.576-1.111,0.555-1.754-0.053-1.646c0.242-0.705-0.197-0.936-0.547-0.834
	c0.082-0.707-0.539-0.768-0.932,0.152C53.075,58,54.649,60.107,54.804,59.809z"/>
<path fill="#3AB0A2" d="M47.612,59.889c0,0-0.352-3.701-3.369-5.994l-1.592-2.086c-0.361,0.115-0.352,0.277-0.352,0.277
	s0.195,2.5,4.906,7.828C47.206,59.914,47.329,60.066,47.612,59.889z"/>
<path fill="#302C3B" d="M41.411,56.957c1.607-0.186,3.721,4.275,5.795,2.957c0,0-0.295-3.449-3.313-5.742L42.3,52.086
	C38.539,53.746,39.692,54.826,41.411,56.957z"/>
<path fill="#3AB0A2" d="M44.048,58.787c0.188-1.234-0.039-1.836-0.582-1.543c0.002-0.744-0.486-0.824-0.785-0.617
	c-0.148-0.695-0.76-0.557-0.836,0.438C41.825,57.621,43.995,59.121,44.048,58.787z"/>
<path fill="#916B50" d="M40.839,53.494c-4.815-0.416-5.804-4.188-10.622-3.115c0.299-1.961,0.686-3.285,0.686-3.285
	s-4.793,0.762-6.756,0.813c-0.432,3.611,1.619,6.266,2.336,6.635c1.033,0.535,6.15-0.057,13.698,2.043
	C40.798,56.754,41.157,53.521,40.839,53.494z"/>
<path fill="#F2F5F7" d="M41.169,53.494c-0.211-0.229-1.221-0.266-1.221-0.266s0.785,1.949,0.232,3.355
	c0.359,0.092,0.721,0.184,1.088,0.287C41.884,57.043,41.987,54.387,41.169,53.494z"/>
<path fill="#3AB0A2" d="M30.4,49.697c0.125,0.146,0.402,0.418,0.566,0.518c0.469,4.52-1.426,4.889-1.426,4.889
	c-3.689,1.154-5.018-2.496-5.018-2.496C25.668,51.107,28.926,49.887,30.4,49.697z"/>
<path fill="#916B50" d="M52.765,53.824c-5.578-1.869-5.201-4.832-10.498-4.969c-0.391-1.945-1.129-3.344-1.76-4.789
	c-1.927,0.496-3.679,3.295-5.505,4.006c1.381,2.586,2.971,4.846,3.652,5.277c0.981,0.625,5.851,0.727,13.177,3.492
	C52.429,57.066,53.067,53.926,52.765,53.824z"/>
<path fill="#F2F5F7" d="M53.071,53.527c-0.074-0.098-1.133,0-1.133,0c0.443,0.77,0.443,2.883-0.107,3.314
	c0.348,0.123,0.695,0.256,1.057,0.383C53.321,57.377,53.853,54.523,53.071,53.527z"/>
<path fill="#3AB0A2" d="M42.099,47.658c0.199,0.852,0.568,0.975,1.488,1.217c-0.395,4.369-2.305,5.223-2.305,5.223
	c-1.842,0-4.013-1.068-4.483-2.764C37.121,50.072,39.3,49.27,42.099,47.658z"/>
<path fill="#302C3B" d="M37.898,37.563H25.572c-0.709,2.857-2.785,6.641-1.857,12.916c1.418,0.676,7.5-2.527,7.5-2.527
	c0.225-2.426,0.475-3.068,1.309-3.488c0.24-0.121,1.395,3.117,2.785,4.66l6.702-3.977L37.898,37.563z"/>
<path fill="#47D6C6" d="M41.354,45.537c-0.488,0.367-1.336,0.793-1.336,0.793l-4.794-8.768h1.535L41.354,45.537z"/>
<path fill="#916B50" d="M42.987,17.662l2.834-5.514l3.057,1.297c0,0-2.07,5.613-3.145,7.281c-0.822,1.273-4.902,2.855-4.902,2.855
	l-1.438-4.197L42.987,17.662z"/>
<radialGradient id="SVGID_1_" cx="43.7148" cy="5.1802" r="11.5431" gradientTransform="matrix(1.0076 0 0 1 0.1642 0)" gradientUnits="userSpaceOnUse">
	<stop  offset="0" style="stop-color:#9BE022"/>
	<stop  offset="0.3647" style="stop-color:#99DE22"/>
	<stop  offset="0.5757" style="stop-color:#93D522"/>
	<stop  offset="0.7475" style="stop-color:#87C722"/>
	<stop  offset="0.8974" style="stop-color:#78B423"/>
	<stop  offset="1" style="stop-color:#69A123"/>
	<a:midPointStop  offset="0" style="stop-color:#9BE022"/>
	<a:midPointStop  offset="0.8061" style="stop-color:#9BE022"/>
	<a:midPointStop  offset="1" style="stop-color:#69A123"/>
</radialGradient>
<path fill="url(#SVGID_1_)" d="M52.229,2.923c3.355,1.902,4.504,6.111,2.568,9.406c-1.938,3.295-6.223,4.42-9.574,2.518
	c-3.352-1.898-4.504-6.107-2.566-9.402C44.593,2.148,48.88,1.023,52.229,2.923z"/>
<radialGradient id="SVGID_2_" cx="43.7148" cy="5.1802" r="11.5427" gradientTransform="matrix(1.0076 0 0 1 0.1642 0)" gradientUnits="userSpaceOnUse">
	<stop  offset="0" style="stop-color:#FF000E"/>
	<stop  offset="0.2242" style="stop-color:#F8000C"/>
	<stop  offset="0.5531" style="stop-color:#E40008"/>
	<stop  offset="0.9448" style="stop-color:#C40001"/>
	<stop  offset="1" style="stop-color:#BF0000"/>
	<a:midPointStop  offset="0" style="stop-color:#FF000E"/>
	<a:midPointStop  offset="0.6242" style="stop-color:#FF000E"/>
	<a:midPointStop  offset="1" style="stop-color:#BF0000"/>
</radialGradient>
<path fill="url(#SVGID_2_)" d="M52.019,2.816c-4.373,4.961-11.184,5.605-3.611-0.762c0.018-0.016,0.035-0.029,0.051-0.043
	C49.663,1.964,50.89,2.224,52.019,2.816z"/>
<radialGradient id="SVGID_3_" cx="43.7158" cy="5.1802" r="11.542" gradientTransform="matrix(1.0076 0 0 1 0.1642 0)" gradientUnits="userSpaceOnUse">
	<stop  offset="0" style="stop-color:#FF000E"/>
	<stop  offset="0.2242" style="stop-color:#F8000C"/>
	<stop  offset="0.5531" style="stop-color:#E40008"/>
	<stop  offset="0.9448" style="stop-color:#C40001"/>
	<stop  offset="1" style="stop-color:#BF0000"/>
	<a:midPointStop  offset="0" style="stop-color:#FF000E"/>
	<a:midPointStop  offset="0.6242" style="stop-color:#FF000E"/>
	<a:midPointStop  offset="1" style="stop-color:#BF0000"/>
</radialGradient>
<path fill="url(#SVGID_3_)" d="M51.249,15.306c-3.484-9.078,1.418-11.145,2.576-1.701C53.091,14.367,52.21,14.943,51.249,15.306z"/>
<radialGradient id="SVGID_4_" cx="43.7158" cy="5.1787" r="11.5456" gradientTransform="matrix(1.0076 0 0 1 0.1642 0)" gradientUnits="userSpaceOnUse">
	<stop  offset="0" style="stop-color:#FF000E"/>
	<stop  offset="0.2242" style="stop-color:#F8000C"/>
	<stop  offset="0.5531" style="stop-color:#E40008"/>
	<stop  offset="0.9448" style="stop-color:#C40001"/>
	<stop  offset="1" style="stop-color:#BF0000"/>
	<a:midPointStop  offset="0" style="stop-color:#FF000E"/>
	<a:midPointStop  offset="0.6242" style="stop-color:#FF000E"/>
	<a:midPointStop  offset="1" style="stop-color:#BF0000"/>
</radialGradient>
<path fill="url(#SVGID_4_)" d="M41.753,8.255c7.998,1.857,7.854,6.111,0.529,3.318C41.833,10.531,41.646,9.392,41.753,8.255z"/>
<path fill="#3AB0A2" d="M41.505,23.406c-1.193-0.799-1.787-4.355-1.787-4.355c-7.103,2.152-11.802,2.152-16.942,5.297l2.381,4.252
	c0.297-0.15,0.596-0.314,0.891-0.482c-0.799,4.473-0.818,10.135-0.818,10.135l12.895-0.604c0,0-2.252-5.715-0.877-10.514
	C37.594,25.927,41.505,23.406,41.505,23.406z"/>
<path fill="#47D6C6" d="M36.072,20.041c-0.988,0.094-1.518,0.359-1.518,0.359c-1.619,8.229-0.244,17.426-0.244,17.426h1.641
	C35.951,37.826,34.52,28.273,36.072,20.041z"/>
<path fill="#855E45" d="M27.058,21.359c1.328-0.633,2.297,1.287,2.75,3.318c1.531-2.078,4.281-2.984,4.747-4.277
	c-0.284-1.088-0.212-2.438-0.212-2.438C33.456,17.457,30.536,10.576,27.058,21.359z"/>
<path fill="#916B50" d="M28.142,5.511c-4.035,0.645-5.518,3.527-4.867,6.926c0.146,0.768-0.347,2.082-1.323,2.926
	c-0.354,0.307-0.39,0.715-0.216,0.986c0.34,0.533,1.09,0.537,1.402,0.738c0.699,0.445,0,0.938,0.525,1.463
	c0.238,0.24,0.924-0.078,0.2,1.189c0.806,0.59-0.538,2.006,1.534,2.225c1.088,0.115,5.688-2.479,6.263-3.373
	c0.603-0.941,0.46-2.678,0.46-2.678c3.099-0.893,4.193-3.598,3.525-6.43C34.712,5.527,30.759,5.093,28.142,5.511z"/>
<path fill="#69452D" d="M23.663,18.55c0.379,0.232,0.213,0.598,0.213,0.598c-0.182,0-0.229,0.604,0.042,0.604
	c0.946,0,1.813-0.813,2.098-1.305C24.535,18.375,22.911,17.707,23.663,18.55z"/>
<path fill="#FFFFFF" d="M23.663,18.55c0,0,0.145,0.518,0.213,0.598c0.297,0,1.262-0.213,1.855-0.604L23.663,18.55z"/>
<linearGradient id="SVGID_5_" gradientUnits="userSpaceOnUse" x1="23.1372" y1="9.8135" x2="34.4424" y2="9.8135">
	<stop  offset="0" style="stop-color:#3B2118"/>
	<stop  offset="0.5795" style="stop-color:#54352C"/>
	<stop  offset="1" style="stop-color:#614036"/>
	<a:midPointStop  offset="0" style="stop-color:#3B2118"/>
	<a:midPointStop  offset="0.4303" style="stop-color:#3B2118"/>
	<a:midPointStop  offset="1" style="stop-color:#614036"/>
</linearGradient>
<path fill="url(#SVGID_5_)" d="M34.229,7.378C31.36,3.06,23.744,5.673,23.206,6.73c-0.192,0.381,0.048,1.322,0.361,1.928
	c1.211,0,3.61-1.012,5.224-0.252c2.39,1.123-0.323,5.98,1.882,6.244C31.019,14.693,35.454,9.529,34.229,7.378z"/>
<linearGradient id="SVGID_6_" gradientUnits="userSpaceOnUse" x1="23.2061" y1="11.1274" x2="37.1563" y2="11.1274">
	<stop  offset="0" style="stop-color:#614036"/>
	<stop  offset="0.3534" style="stop-color:#5E3D33"/>
	<stop  offset="0.6441" style="stop-color:#54352B"/>
	<stop  offset="0.9118" style="stop-color:#42271E"/>
	<stop  offset="1" style="stop-color:#3B2118"/>
	<a:midPointStop  offset="0" style="stop-color:#614036"/>
	<a:midPointStop  offset="0.7455" style="stop-color:#614036"/>
	<a:midPointStop  offset="1" style="stop-color:#3B2118"/>
</linearGradient>
<path fill="url(#SVGID_6_)" d="M36.154,7.302c-0.821-1.389-2.481-3.02-6.251-3.01C26.5,4.298,23.744,5.673,23.206,6.73
	c1.25,0,5.047-1.594,7.029-0.111c3.088,2.307,0.396,5.441,1.125,7.412c1.139,3.082,2.982,3.932,2.982,3.932
	C36.712,16.25,38.28,10.894,36.154,7.302z"/>
<path fill="#69452D" d="M21.745,16.353c0.279,0.744,2.067,0.904,2.639,0C23.442,17.035,21.583,15.921,21.745,16.353z"/>
<path fill="#916B50" d="M32.134,12.152c-1.506,0.313-1.976,3.717-0.847,4.455c0.157,0.104,0.982,0.195,1.419-0.639
	c0.241-0.461,1.107-0.93,1.229-1.834C34.088,12.974,33.632,11.843,32.134,12.152z"/>
<path id="Path_2558_" fill="#69452D" d="M32.214,12.785c-0.383,0.131-0.744,0.572-0.854,1.246c1.357-0.367,1.296,1.156,0.09,1.338
	c0.039,0.148,0.084,0.299,0.144,0.455c0.481-0.613,1.115-0.471,1.546-1.35C33.528,13.683,33.163,12.462,32.214,12.785z"/>
<path fill="#FFFFFF" d="M26.583,13.455c0.021,0.217-0.667,1.002-1.543,1.074c-0.499,0.043-0.678-0.344-0.79-0.76
	C24.143,12.113,26.091,12.703,26.583,13.455z"/>
<linearGradient id="Path_1_" gradientUnits="userSpaceOnUse" x1="24.9141" y1="14.4639" x2="24.9141" y2="12.7192">
	<stop  offset="0" style="stop-color:#A6694A"/>
	<stop  offset="1" style="stop-color:#4F2A1E"/>
	<a:midPointStop  offset="0" style="stop-color:#A6694A"/>
	<a:midPointStop  offset="0.5" style="stop-color:#A6694A"/>
	<a:midPointStop  offset="1" style="stop-color:#4F2A1E"/>
</linearGradient>
<path id="Path_2557_" fill="url(#Path_1_)" d="M24.216,13.56c0,1.205,1.396,1.205,1.396,0C25.612,12.439,24.216,12.439,24.216,13.56
	z"/>
<path id="Path_2556_" fill="#1A1626" d="M24.362,13.505c0,0.602,0.696,0.602,0.696,0C25.059,12.945,24.362,12.945,24.362,13.505z"/>
<path id="Path_2555_" fill="#AB968C" d="M24.793,13.261c0,0.252,0.405,0.252,0.405,0C25.198,13.025,24.793,13.025,24.793,13.261z"/>
<path fill="#69452D" d="M26.583,13.455c-0.375-0.752-2.246-1.299-2.297-0.283C24.55,12.488,25.938,12.863,26.583,13.455z"/>
<path id="Path_2554_" fill="#5E4431" d="M26.942,11.742c-0.859-0.535-2.502-0.563-3.113-0.189c-0.133,0.072-0.047,0.58,0.064,0.531
	c0.854-0.396,2.229-0.406,3.026,0.035C27.028,12.173,27.071,11.816,26.942,11.742z"/>
</svg>
