<?xml version="1.0" encoding="utf-8"?>
<!-- Generator: Adobe Illustrator 15.0.0, SVG Export Plug-In . SVG Version: 6.00 Build 0)  -->
<!DOCTYPE svg PUBLIC "-//W3C//DTD SVG 1.1//EN" "http://www.w3.org/Graphics/SVG/1.1/DTD/svg11.dtd" [
	<!ENTITY ns_flows "http://ns.adobe.com/Flows/1.0/">
	<!ENTITY ns_extend "http://ns.adobe.com/Extensibility/1.0/">
	<!ENTITY ns_ai "http://ns.adobe.com/AdobeIllustrator/10.0/">
	<!ENTITY ns_graphs "http://ns.adobe.com/Graphs/1.0/">
]>
<svg version="1.1" id="Layer_1" xmlns:x="&ns_extend;" xmlns:i="&ns_ai;" xmlns:graph="&ns_graphs;"
	 xmlns="http://www.w3.org/2000/svg" xmlns:xlink="http://www.w3.org/1999/xlink" xmlns:a="http://ns.adobe.com/AdobeSVGViewerExtensions/3.0/"
	 x="0px" y="0px" width="64px" height="64px" viewBox="0 0 64 64" enable-background="new 0 0 64 64" xml:space="preserve">
<path fill="#473834" d="M38.548,37.594c10.143-6.289,7.224-16.463,7.224-16.463L15.22,26.518c0,0,0.737,10.56,12.417,13
	c0,0,2.279,0.16,5.552-0.416C36.463,38.523,38.548,37.594,38.548,37.594z"/>
<linearGradient id="SVGID_1_" gradientUnits="userSpaceOnUse" x1="-20.2764" y1="-109.498" x2="-20.2764" y2="-142.6539" gradientTransform="matrix(0.9848 -0.1736 0.1736 0.9848 83.083 141.4891)">
	<stop  offset="0.05" style="stop-color:#473834"/>
	<stop  offset="0.2266" style="stop-color:#594640"/>
	<stop  offset="0.5197" style="stop-color:#715950"/>
	<stop  offset="0.7" style="stop-color:#7A6056"/>
	<a:midPointStop  offset="0.05" style="stop-color:#473834"/>
	<a:midPointStop  offset="0.4" style="stop-color:#473834"/>
	<a:midPointStop  offset="0.7" style="stop-color:#7A6056"/>
</linearGradient>
<path fill="url(#SVGID_1_)" d="M41.722,22.986c1.946,4.502,2.178,9.26-3.174,14.608c6.355-2.246,9.63-9.198,8.793-13.941
	L41.722,22.986z"/>
<linearGradient id="SVGID_2_" gradientUnits="userSpaceOnUse" x1="1823.248" y1="-109.498" x2="1823.248" y2="-142.6539" gradientTransform="matrix(-0.9848 0.1736 0.1736 0.9848 1836.843 -167.7461)">
	<stop  offset="0.05" style="stop-color:#473834"/>
	<stop  offset="0.2266" style="stop-color:#594640"/>
	<stop  offset="0.5197" style="stop-color:#715950"/>
	<stop  offset="0.7" style="stop-color:#7A6056"/>
	<a:midPointStop  offset="0.05" style="stop-color:#473834"/>
	<a:midPointStop  offset="0.4" style="stop-color:#473834"/>
	<a:midPointStop  offset="0.7" style="stop-color:#7A6056"/>
</linearGradient>
<path fill="url(#SVGID_2_)" d="M19.661,26.876c-0.287,4.897,1.122,9.446,7.979,12.642c-6.74,0.063-12.194-5.35-13.031-10.094
	L19.661,26.876z"/>
<rect x="7.612" y="28.447" fill="#FFCC66" width="4.891" height="2.133"/>
<path fill="#FFCC66" d="M58.736,23.35c0.938-1.533-0.471-2.51-2.693,0.176c-1.717,2.072-7.514,5.795-3.326,6.732
	c2.982,0.668,10.254-4.387,11.162-9.473C64.705,16.164,61.1,22.354,58.736,23.35z"/>
<path fill="#FFCC66" d="M5.262,23.35c-0.938-1.533,0.471-2.51,2.691,0.176c1.717,2.072,7.516,5.795,3.328,6.732
	c-2.982,0.668-10.254-4.387-11.16-9.473C-0.707,16.164,2.897,22.354,5.262,23.35z"/>
<rect x="51.881" y="28.447" fill="#FFCC66" width="4.889" height="2.133"/>
<path fill="#8E3ED6" d="M57.348,30.168h-6.09l0.219,13.143c0,0-2.051-3.754-5.363-6.299c-5.061-3.885-8.887-0.824-13.921-0.824
	c-5.035,0-8.863-3.061-13.924,0.824c-3.314,2.545-5.363,6.299-5.363,6.299l0.221-13.143H7.034c0,0-0.783,15.77-0.488,21.018
	c0.275,4.848,5.432,5.688,13.785-4.385c0.922,7.063,0.813,15.291,0.813,15.291h22.095c0,0-0.111-8.229,0.813-15.291
	c8.352,10.072,13.51,9.232,13.787,4.385C58.133,45.938,57.348,30.168,57.348,30.168z"/>
<polygon fill="#732EB0" points="14.833,40.475 12.917,42.549 12.809,47.309 "/>
<polygon fill="#732EB0" points="49.549,40.475 51.467,42.549 51.574,47.309 "/>
<path fill="#732EB0" d="M25.425,35.355c0,5.936,13.15,5.912,13.15-0.021C38.575,33.994,25.425,34.016,25.425,35.355z"/>
<path fill="#E6B045" d="M26.521,34.998c0,4.645,10.958,4.645,10.958,0c0-1.58,0-5.14,0-5.14H26.521
	C26.521,29.858,26.522,33.418,26.521,34.998z"/>
<path fill="#FFCC66" d="M27.707,8.004C19.79,9.4,17.113,16.52,19.051,24.727c0.392,1.648,1.279,3.971,2.214,5.929
	c1.943,4.073,8.969,7.28,11.636,6.809c2.667-0.471,8.172-5.887,8.606-10.378c0.21-2.16,0.25-4.646,0.052-6.329
	C40.574,12.383,35.625,6.608,27.707,8.004z"/>
<path fill="#966F42" d="M38.231,18.5c-1.9-0.722-5.008-0.304-6.105,0.61c-0.235,0.187-0.035,0.915,0.174,0.782
	c1.612-1.032,4.258-1.535,6.042-0.984C38.58,18.98,38.52,18.603,38.231,18.5z"/>
<path fill="#966F42" d="M21.406,21.467c1.539-1.328,4.602-1.999,5.948-1.515c0.282,0.095,0.344,0.848,0.104,0.794
	c-1.87-0.417-4.527,0.013-6.017,1.142C21.243,22.037,21.172,21.662,21.406,21.467z"/>
<path fill="#DB9D3A" d="M33.029,27.79c-0.211-0.099-0.618,0.183-1.766,0.385c-1.15,0.203-1.627,0.077-1.792,0.243
	c-0.198,0.199,0.285,0.853,1.934,0.562C33.051,28.688,33.284,27.909,33.029,27.79z"/>
<path id="Path_43_" fill="#FFFFFF" d="M28.606,23.405c0.159,0.511-0.087,1.195-0.99,1.834c-0.572,0.407-1.812,0.984-3.648,0.564
	c-0.824-0.187-1.748-1.062-1.779-1.63C22.805,22.263,27.323,21.203,28.606,23.405z"/>
<linearGradient id="Oval_1_" gradientUnits="userSpaceOnUse" x1="-433.9448" y1="501.1338" x2="-433.9448" y2="501.6875" gradientTransform="matrix(6.4703 -1.1409 -1.1409 -6.4703 3405.3096 2773.0984)">
	<stop  offset="0" style="stop-color:#A6694A"/>
	<stop  offset="1" style="stop-color:#4F2A1E"/>
	<a:midPointStop  offset="0" style="stop-color:#A6694A"/>
	<a:midPointStop  offset="0.5" style="stop-color:#A6694A"/>
	<a:midPointStop  offset="1" style="stop-color:#4F2A1E"/>
</linearGradient>
<circle id="Oval_6_" fill="url(#Oval_1_)" cx="25.504" cy="23.915" r="1.819"/>
<path id="Path_42_" fill="#1A1626" d="M24.602,24.041c0.219,1.239,2.014,0.922,1.795-0.316C26.194,22.573,24.4,22.89,24.602,24.041z
	"/>
<path id="Path_41_" fill="#AB968C" d="M24.243,23.585c0.092,0.521,0.844,0.388,0.752-0.132
	C24.91,22.972,24.158,23.105,24.243,23.585z"/>
<path id="Path_40_" fill="#45332C" d="M28.627,23.472c-1.142-2.21-6.041-0.99-6.439,0.701
	C22.083,22.116,27.483,20.615,28.627,23.472z"/>
<path id="Path_39_" fill="#FFFFFF" d="M32.129,22.784c0.024,0.535,0.49,1.093,1.556,1.385c0.678,0.186,2.041,0.305,3.624-0.718
	c0.711-0.458,1.279-1.596,1.114-2.14C37.188,19.727,32.582,20.275,32.129,22.784z"/>
<linearGradient id="Oval_2_" gradientUnits="userSpaceOnUse" x1="-435.1489" y1="501.1338" x2="-435.1489" y2="501.6875" gradientTransform="matrix(6.4703 -1.1409 -1.1409 -6.4703 3422.7705 2770.0203)">
	<stop  offset="0" style="stop-color:#A6694A"/>
	<stop  offset="1" style="stop-color:#4F2A1E"/>
	<a:midPointStop  offset="0" style="stop-color:#A6694A"/>
	<a:midPointStop  offset="0.5" style="stop-color:#A6694A"/>
	<a:midPointStop  offset="1" style="stop-color:#4F2A1E"/>
</linearGradient>
<circle id="Oval_5_" fill="url(#Oval_2_)" cx="35.177" cy="22.209" r="1.819"/>
<path id="Path_38_" fill="#1A1626" d="M34.274,22.335c0.219,1.239,2.014,0.922,1.795-0.317
	C35.866,20.868,34.072,21.184,34.274,22.335z"/>
<path id="Path_37_" fill="#AB968C" d="M33.915,21.88c0.092,0.521,0.844,0.388,0.752-0.132C34.582,21.267,33.83,21.399,33.915,21.88z
	"/>
<path id="Path_36_" fill="#45332C" d="M32.133,22.854c0.315-2.465,5.333-3.006,6.291-1.543
	C37.816,19.341,32.23,19.778,32.133,22.854z"/>
<linearGradient id="SVGID_3_" gradientUnits="userSpaceOnUse" x1="-31.355" y1="-109.4985" x2="-31.355" y2="-142.653" gradientTransform="matrix(0.9848 -0.1736 0.1736 0.9848 83.083 141.4891)">
	<stop  offset="0.05" style="stop-color:#473834"/>
	<stop  offset="0.2266" style="stop-color:#594640"/>
	<stop  offset="0.5197" style="stop-color:#715950"/>
	<stop  offset="0.7" style="stop-color:#7A6056"/>
	<a:midPointStop  offset="0.05" style="stop-color:#473834"/>
	<a:midPointStop  offset="0.4" style="stop-color:#473834"/>
	<a:midPointStop  offset="0.7" style="stop-color:#7A6056"/>
</linearGradient>
<path fill="url(#SVGID_3_)" d="M36.821,7.59c0.677-1.45-7.46-2.825-14.369,0.291c-6.931,2.927-9.093,14.466-7.845,21.543
	c0.736,0.399,4.468-1.578,5.053-2.548c0.081-1.291,0.328-2.648,0.535-4.046c4.869-4.097,10.876-5.918,14.473-10.428
	c-0.257,1.734,2.996,3.288,5.167,6.965c0.704,1.193,1.357,2.397,1.886,3.62c1.399,0.897,3.895,0.996,5.619,0.667
	C46.285,17.667,39.567,6.245,36.821,7.59z"/>
<path fill="#473834" d="M15.718,28.118c3.824-7.533,20.085-9.936,21.103-20.528C32.883,17.024,15.957,21.483,15.718,28.118z"/>
<path fill="#C1873C" d="M34.506,31.433c-1.665,0.267-4.032,0.416-5.952,0.259c-0.724-0.059-0.911,0.938-0.152,1.038
	c2.133,0.274,4.595,0.057,6.327-0.731C35.147,31.807,34.906,31.369,34.506,31.433z"/>
</svg>
