<?xml version="1.0" encoding="utf-8"?>
<!-- Generator: Adobe Illustrator 15.0.0, SVG Export Plug-In . SVG Version: 6.00 Build 0)  -->
<!DOCTYPE svg PUBLIC "-//W3C//DTD SVG 1.1//EN" "http://www.w3.org/Graphics/SVG/1.1/DTD/svg11.dtd" [
	<!ENTITY ns_flows "http://ns.adobe.com/Flows/1.0/">
	<!ENTITY ns_extend "http://ns.adobe.com/Extensibility/1.0/">
	<!ENTITY ns_ai "http://ns.adobe.com/AdobeIllustrator/10.0/">
	<!ENTITY ns_graphs "http://ns.adobe.com/Graphs/1.0/">
]>
<svg version="1.1" id="Layer_1" xmlns:x="&ns_extend;" xmlns:i="&ns_ai;" xmlns:graph="&ns_graphs;"
	 xmlns="http://www.w3.org/2000/svg" xmlns:xlink="http://www.w3.org/1999/xlink" xmlns:a="http://ns.adobe.com/AdobeSVGViewerExtensions/3.0/"
	 x="0px" y="0px" width="64px" height="64px" viewBox="0 0 64 64" enable-background="new 0 0 64 64" xml:space="preserve">
<linearGradient id="SVGID_1_" gradientUnits="userSpaceOnUse" x1="36.1904" y1="13.6665" x2="46.7354" y2="13.6665">
	<stop  offset="0" style="stop-color:#1A1714"/>
	<stop  offset="0.1892" style="stop-color:#24201C"/>
	<stop  offset="0.6761" style="stop-color:#39332D"/>
	<stop  offset="1" style="stop-color:#403A33"/>
	<a:midPointStop  offset="0" style="stop-color:#1A1714"/>
	<a:midPointStop  offset="0.3818" style="stop-color:#1A1714"/>
	<a:midPointStop  offset="1" style="stop-color:#403A33"/>
</linearGradient>
<path fill="url(#SVGID_1_)" d="M44.526,19.179c0.639,0.234,1.365,0.32,2.209,0.168C40.751,15.935,45.581,2.435,36.19,5.986
	l1.316,3.385c2.654,0.514-1.297,7.586,3.563,10c-0.479-0.449-0.479-1.385-0.352-2.492c0.932,3.182,1.912,5.438,5.666,5.006
	C45.708,21.738,45.04,20.609,44.526,19.179z"/>
<path fill="#8E3ED6" d="M35.376,6.029c-1.115,0.781,0.271,3.936,2.51,4.068C39.722,10.212,37.216,4.74,35.376,6.029z"/>
<path fill="#614A36" d="M24.698,23.986c0,0-3.166,1.938-4.686,2.313c-2.336-0.193-6.744,0.291-7.484,0.297
	c-0.717,0.008-2.742-0.619-3.23-0.396c-2.074,0.943-2.338,0.863-3.092,1.979c-0.57,0.846,0.18,0.568,0.57,0.182
	c0.604-0.598,2.014-1.002,2.162-0.238c-1.58,0.133-1.855,1.186-1.27,1.096c1.508-0.236,2.43-0.055,3.229-0.756
	c0.322-0.283,2.309-0.438,5.236,0.473c2.313,0.719,4.316,0.738,5.219,0.529c2.5-0.584,4.492-1.582,4.492-1.582L24.698,23.986z"/>
<path fill="#8E3ED6" d="M57.831,61.98c0,0,0.854-3.619-1.27-6.748l-0.84-2.48c-0.379-0.004-0.42,0.152-0.42,0.152
	s-0.617,2.43,2.139,8.971C57.44,61.875,57.507,62.061,57.831,61.98z"/>
<path fill="#302C3B" d="M52.925,57.328c1.586,0.332,2.123,5.141,4.516,4.547c0,0,0.826-3.363-1.299-6.49l-0.84-2.48
	C51.204,53.287,51.983,54.764,52.925,57.328z"/>
<path fill="#8E3ED6" d="M54.804,59.809c0.576-1.111,0.555-1.754-0.053-1.646c0.242-0.705-0.197-0.936-0.547-0.834
	c0.082-0.707-0.539-0.768-0.932,0.152C53.075,58,54.649,60.107,54.804,59.809z"/>
<path fill="#8E3ED6" d="M47.612,59.889c0,0-0.352-3.701-3.369-5.994l-1.592-2.086c-0.361,0.115-0.352,0.277-0.352,0.277
	s0.195,2.5,4.906,7.828C47.206,59.914,47.329,60.066,47.612,59.889z"/>
<path fill="#302C3B" d="M41.411,56.957c1.607-0.186,3.721,4.275,5.795,2.957c0,0-0.295-3.449-3.313-5.742L42.3,52.086
	C38.54,53.746,39.692,54.826,41.411,56.957z"/>
<path fill="#8E3ED6" d="M44.048,58.787c0.188-1.234-0.039-1.836-0.582-1.543c0.002-0.744-0.486-0.824-0.785-0.617
	c-0.148-0.695-0.76-0.557-0.836,0.438C41.825,57.621,43.995,59.121,44.048,58.787z"/>
<path fill="#614A36" d="M40.839,53.494c-4.814-0.416-5.803-4.188-10.621-3.115c0.299-1.961,0.686-3.285,0.686-3.285
	s-4.793,0.762-6.756,0.813c-0.432,3.611,1.619,6.266,2.336,6.635c1.033,0.535,6.15-0.057,13.697,2.043
	C40.798,56.754,41.157,53.521,40.839,53.494z"/>
<path fill="#F2F5F7" d="M41.169,53.494c-0.211-0.229-1.221-0.266-1.221-0.266s0.785,1.949,0.232,3.355
	c0.359,0.092,0.721,0.184,1.088,0.287C41.884,57.043,41.987,54.387,41.169,53.494z"/>
<path fill="#8E3ED6" d="M30.401,49.697c0.125,0.146,0.402,0.418,0.566,0.518c0.469,4.52-1.426,4.889-1.426,4.889
	c-3.689,1.154-5.018-2.496-5.018-2.496C25.669,51.107,28.927,49.887,30.401,49.697z"/>
<path fill="#614A36" d="M52.765,53.824c-5.578-1.869-5.201-4.832-10.498-4.969c-0.391-1.945-1.129-3.344-1.76-4.789
	c-1.926,0.496-3.678,3.295-5.504,4.006c1.381,2.586,2.971,4.846,3.652,5.277c0.98,0.625,5.85,0.727,13.176,3.492
	C52.429,57.066,53.067,53.926,52.765,53.824z"/>
<path fill="#F2F5F7" d="M53.071,53.527c-0.074-0.098-1.133,0-1.133,0c0.443,0.77,0.443,2.883-0.107,3.314
	c0.348,0.123,0.695,0.256,1.057,0.383C53.321,57.377,53.853,54.523,53.071,53.527z"/>
<path fill="#8E3ED6" d="M42.099,47.658c0.199,0.852,0.568,0.975,1.488,1.217c-0.395,4.369-2.305,5.223-2.305,5.223
	c-1.842,0-4.012-1.068-4.482-2.764C37.122,50.072,39.3,49.27,42.099,47.658z"/>
<path fill="#302C3B" d="M37.899,37.563H25.573c-0.709,2.857-2.785,6.641-1.857,12.916c1.418,0.676,7.5-2.527,7.5-2.527
	c0.225-2.426,0.475-3.068,1.309-3.488c0.24-0.121,1.395,3.117,2.785,4.66l6.701-3.977L37.899,37.563z"/>
<path fill="#C28FEF" d="M41.354,45.537c-0.488,0.367-1.336,0.793-1.336,0.793l-4.793-8.768h1.535L41.354,45.537z"/>
<path fill="#614A36" d="M43.2,17.568l2.471-5.977l3.057,1.297c0,0-2.145,5.451-3.219,7.119c-0.822,1.273-4.912,2.797-4.912,2.797
	l-1.354-3.615L43.2,17.568z"/>
<radialGradient id="SVGID_2_" cx="43.7148" cy="5.1802" r="11.5431" gradientTransform="matrix(1.0076 0 0 1 0.1642 0)" gradientUnits="userSpaceOnUse">
	<stop  offset="0" style="stop-color:#9BE022"/>
	<stop  offset="0.3647" style="stop-color:#99DE22"/>
	<stop  offset="0.5757" style="stop-color:#93D522"/>
	<stop  offset="0.7475" style="stop-color:#87C722"/>
	<stop  offset="0.8974" style="stop-color:#78B423"/>
	<stop  offset="1" style="stop-color:#69A123"/>
	<a:midPointStop  offset="0" style="stop-color:#9BE022"/>
	<a:midPointStop  offset="0.8061" style="stop-color:#9BE022"/>
	<a:midPointStop  offset="1" style="stop-color:#69A123"/>
</radialGradient>
<path fill="url(#SVGID_2_)" d="M52.229,2.923c3.355,1.902,4.504,6.111,2.568,9.406c-1.938,3.295-6.223,4.42-9.574,2.518
	c-3.352-1.898-4.504-6.107-2.566-9.402C44.593,2.148,48.88,1.023,52.229,2.923z"/>
<radialGradient id="SVGID_3_" cx="43.7148" cy="5.1802" r="11.5427" gradientTransform="matrix(1.0076 0 0 1 0.1642 0)" gradientUnits="userSpaceOnUse">
	<stop  offset="0" style="stop-color:#FF000E"/>
	<stop  offset="0.2242" style="stop-color:#F8000C"/>
	<stop  offset="0.5531" style="stop-color:#E40008"/>
	<stop  offset="0.9448" style="stop-color:#C40001"/>
	<stop  offset="1" style="stop-color:#BF0000"/>
	<a:midPointStop  offset="0" style="stop-color:#FF000E"/>
	<a:midPointStop  offset="0.6242" style="stop-color:#FF000E"/>
	<a:midPointStop  offset="1" style="stop-color:#BF0000"/>
</radialGradient>
<path fill="url(#SVGID_3_)" d="M52.019,2.816c-4.373,4.961-11.184,5.605-3.611-0.762c0.018-0.016,0.035-0.029,0.051-0.043
	C49.663,1.964,50.89,2.224,52.019,2.816z"/>
<radialGradient id="SVGID_4_" cx="43.7158" cy="5.1802" r="11.542" gradientTransform="matrix(1.0076 0 0 1 0.1642 0)" gradientUnits="userSpaceOnUse">
	<stop  offset="0" style="stop-color:#FF000E"/>
	<stop  offset="0.2242" style="stop-color:#F8000C"/>
	<stop  offset="0.5531" style="stop-color:#E40008"/>
	<stop  offset="0.9448" style="stop-color:#C40001"/>
	<stop  offset="1" style="stop-color:#BF0000"/>
	<a:midPointStop  offset="0" style="stop-color:#FF000E"/>
	<a:midPointStop  offset="0.6242" style="stop-color:#FF000E"/>
	<a:midPointStop  offset="1" style="stop-color:#BF0000"/>
</radialGradient>
<path fill="url(#SVGID_4_)" d="M51.249,15.306c-3.484-9.078,1.418-11.145,2.576-1.701C53.091,14.367,52.21,14.943,51.249,15.306z"/>
<radialGradient id="SVGID_5_" cx="43.7158" cy="5.1787" r="11.5456" gradientTransform="matrix(1.0076 0 0 1 0.1642 0)" gradientUnits="userSpaceOnUse">
	<stop  offset="0" style="stop-color:#FF000E"/>
	<stop  offset="0.2242" style="stop-color:#F8000C"/>
	<stop  offset="0.5531" style="stop-color:#E40008"/>
	<stop  offset="0.9448" style="stop-color:#C40001"/>
	<stop  offset="1" style="stop-color:#BF0000"/>
	<a:midPointStop  offset="0" style="stop-color:#FF000E"/>
	<a:midPointStop  offset="0.6242" style="stop-color:#FF000E"/>
	<a:midPointStop  offset="1" style="stop-color:#BF0000"/>
</radialGradient>
<path fill="url(#SVGID_5_)" d="M41.753,8.255c7.998,1.857,7.854,6.111,0.529,3.318C41.833,10.531,41.646,9.392,41.753,8.255z"/>
<path fill="#8E3ED6" d="M41.505,23.406c-1.193-0.799-1.787-4.355-1.787-4.355c-7.102,2.152-11.801,2.152-16.941,5.297l2.381,4.252
	c0.297-0.15,0.596-0.314,0.891-0.482c0.117,1.377,0.566,2.064,0.555,2.377c-0.141,3.694-1.373,7.758-1.373,7.758l12.895-0.604
	c0,0-2.646-5.934-1.271-10.733C37.2,25.708,41.505,23.406,41.505,23.406z"/>
<path fill="#C28FEF" d="M36.073,20.041c-0.988,0.094-1.518,0.359-1.518,0.359c-1.619,8.229-0.244,17.426-0.244,17.426h1.641
	C35.952,37.826,34.521,28.273,36.073,20.041z"/>
<path fill="#523E30" d="M27.058,21.359c1.328-0.633,2.299,1.287,2.752,3.318c1.531-2.078,4.281-2.984,4.746-4.277
	c-0.285-1.088-0.213-2.438-0.213-2.438C33.458,17.457,30.536,10.576,27.058,21.359z"/>
<path fill="#614A36" d="M28.138,5.519c-4.033,0.645-5.512,3.525-4.861,6.92c0.146,0.768-0.348,2.08-1.322,2.924
	c-0.355,0.307-0.393,0.713-0.219,0.984c0.342,0.533,1.09,0.537,1.402,0.738c0.699,0.445-0.002,0.938,0.525,1.461
	c0.238,0.24,0.924-0.076,0.201,1.189c0.803,0.588-0.201,1.922,1.531,2.223c0.822,0.141,3.975-1.119,5.631-3.336
	c0.936-1.252,1.086-2.709,1.086-2.709c3.096-0.893,4.189-3.596,3.521-6.424C34.7,5.535,30.753,5.101,28.138,5.519z"/>
<path fill="#472B27" d="M23.663,18.546c0.379,0.232,0.211,0.598,0.211,0.598c-0.182,0-0.225,0.602,0.045,0.602
	c0.943,0,1.811-0.811,2.096-1.301C24.534,18.371,22.911,17.703,23.663,18.546z"/>
<path fill="#FFFFFF" d="M23.663,18.546c0,0,0.143,0.518,0.211,0.598c0.299,0,1.262-0.213,1.855-0.604L23.663,18.546z"/>
<linearGradient id="SVGID_6_" gradientUnits="userSpaceOnUse" x1="23.397" y1="11.2939" x2="38.2705" y2="11.2939">
	<stop  offset="0" style="stop-color:#403A33"/>
	<stop  offset="0.3534" style="stop-color:#3D3730"/>
	<stop  offset="0.6441" style="stop-color:#332E28"/>
	<stop  offset="0.9118" style="stop-color:#211E1A"/>
	<stop  offset="1" style="stop-color:#1A1714"/>
	<a:midPointStop  offset="0" style="stop-color:#403A33"/>
	<a:midPointStop  offset="0.7455" style="stop-color:#403A33"/>
	<a:midPointStop  offset="1" style="stop-color:#1A1714"/>
</linearGradient>
<path fill="url(#SVGID_6_)" d="M36.431,7.626c-0.723-2.328-4.271-3.854-7.703-3.17c-3.338,0.66-5.797,2.951-5.256,4.449
	c0.77,2.127,5.486,2.088,7.242,5.688c0.023,0.246,1.27,0.418,1.322,0.635c0.42,1.742,1.758,3.189,2.246,3.059
	C37.69,17.376,40.106,9.041,36.431,7.626z"/>
<path fill="#302116" d="M21.747,16.351c0.279,0.744,2.064,0.904,2.637,0C23.442,17.033,21.583,15.919,21.747,16.351z"/>
<path fill="#614A36" d="M32.126,12.156c-1.504,0.313-1.975,3.711-0.848,4.449c0.158,0.104,0.984,0.195,1.418-0.637
	c0.242-0.461,1.107-0.93,1.227-1.834C34.079,12.976,33.624,11.847,32.126,12.156z"/>
<path id="Path_2972_" fill="#302116" d="M32.204,12.787c-0.381,0.131-0.74,0.572-0.854,1.244c1.357-0.367,1.295,1.156,0.092,1.338
	c0.039,0.146,0.086,0.299,0.145,0.455c0.479-0.613,1.113-0.471,1.545-1.35C33.519,13.683,33.153,12.464,32.204,12.787z"/>
<path id="Path_2971_" fill="#472B27" d="M26.938,11.742c-0.857-0.496-2.5-0.52-3.111-0.174c-0.131,0.066-0.043,0.535,0.066,0.49
	c0.852-0.367,2.227-0.375,3.023,0.031C27.024,12.144,27.069,11.81,26.938,11.742z"/>
<path fill="#FFFFFF" d="M26.581,13.48c0.02,0.219-0.668,1-1.543,1.074c-0.5,0.043-0.678-0.344-0.789-0.76
	C24.14,12.14,26.089,12.728,26.581,13.48z"/>
<linearGradient id="Path_1_" gradientUnits="userSpaceOnUse" x1="24.9121" y1="14.4873" x2="24.9121" y2="12.7441">
	<stop  offset="0" style="stop-color:#A6694A"/>
	<stop  offset="1" style="stop-color:#4F2A1E"/>
	<a:midPointStop  offset="0" style="stop-color:#A6694A"/>
	<a:midPointStop  offset="0.5" style="stop-color:#A6694A"/>
	<a:midPointStop  offset="1" style="stop-color:#4F2A1E"/>
</linearGradient>
<path id="Path_2970_" fill="url(#Path_1_)" d="M24.214,13.583c0,1.205,1.396,1.205,1.396,0
	C25.61,12.464,24.214,12.464,24.214,13.583z"/>
<path id="Path_2969_" fill="#1A1626" d="M24.36,13.531c0,0.602,0.695,0.602,0.695,0C25.056,12.97,24.36,12.97,24.36,13.531z"/>
<path id="Path_2968_" fill="#AB968C" d="M24.792,13.287c0,0.252,0.404,0.252,0.404,0C25.196,13.05,24.792,13.05,24.792,13.287z"/>
<path fill="#45332C" d="M26.581,13.48c-0.377-0.752-2.246-1.299-2.297-0.283C24.548,12.515,25.935,12.888,26.581,13.48z"/>
</svg>
