<?xml version="1.0" encoding="utf-8"?>
<!-- Generator: Adobe Illustrator 15.0.0, SVG Export Plug-In . SVG Version: 6.00 Build 0)  -->
<!DOCTYPE svg PUBLIC "-//W3C//DTD SVG 1.1//EN" "http://www.w3.org/Graphics/SVG/1.1/DTD/svg11.dtd" [
	<!ENTITY ns_flows "http://ns.adobe.com/Flows/1.0/">
	<!ENTITY ns_extend "http://ns.adobe.com/Extensibility/1.0/">
	<!ENTITY ns_ai "http://ns.adobe.com/AdobeIllustrator/10.0/">
	<!ENTITY ns_graphs "http://ns.adobe.com/Graphs/1.0/">
]>
<svg version="1.1" id="Layer_1" xmlns:x="&ns_extend;" xmlns:i="&ns_ai;" xmlns:graph="&ns_graphs;"
	 xmlns="http://www.w3.org/2000/svg" xmlns:xlink="http://www.w3.org/1999/xlink" xmlns:a="http://ns.adobe.com/AdobeSVGViewerExtensions/3.0/"
	 x="0px" y="0px" width="64px" height="64px" viewBox="0 0 64 64" enable-background="new 0 0 64 64" xml:space="preserve">
<radialGradient id="SVGID_1_" cx="32" cy="32.9082" r="38.3969" gradientUnits="userSpaceOnUse">
	<stop  offset="0.3333" style="stop-color:#EEF2F5"/>
	<stop  offset="0.647" style="stop-color:#E4E8EA"/>
	<stop  offset="1" style="stop-color:#D4D7D9"/>
	<a:midPointStop  offset="0.3333" style="stop-color:#EEF2F5"/>
	<a:midPointStop  offset="0.5856" style="stop-color:#EEF2F5"/>
	<a:midPointStop  offset="1" style="stop-color:#D4D7D9"/>
</radialGradient>
<path fill="url(#SVGID_1_)" d="M58.96,27.923c-0.781-5.012-5.547-10.132-9.01-17.307C49.218,8.923,39.895,4.488,32,3.816
	c-7.894,0.672-17.218,5.106-17.95,6.8c-3.463,7.175-8.229,12.295-9.01,17.307c-0.293,1.882,1,16.694,4.723,19.47
	c1.41,1.051,7.955-3.736,8.336-5.541c0.393-1.863-3.051-7.398-3.771-11.108c0.809-1.665,2.861-3.17,3.449-6.609
	c1.027,5.374,0.527,10.319,4.08,13.544c-2.055,3.172-4.578,14.082-7.484,19.969C16.669,61.596,24.121,62,32,62
	c7.878,0,15.331-0.404,17.628-4.354c-2.906-5.887-5.43-16.797-7.484-19.969c3.552-3.225,3.053-8.17,4.08-13.544
	c0.586,3.439,2.642,4.944,3.449,6.609c-0.72,3.71-4.165,9.245-3.771,11.108c0.381,1.805,6.926,6.592,8.335,5.541
	C57.96,44.617,59.253,29.805,58.96,27.923z"/>
<path fill="#CFD8DD" d="M14.769,11.597c-1.213-1.961,3.271,8.167,2.42,11.73c-0.205,0.86-1.977-3.237-1.535-1.571
	c0.719,2.722,0.125,10.306-4.582,2.055c1.834,7.553,6.059,15.25,5.455,16.982c-2.238,0.658-6.732,4.004-6.908,4.891
	c-0.176,0.889-2.938-6.096-3.711-9.301c0.629,6.133,3.01,11.508,4.195,11.6c2.449,0.188,8.148-4.648,8.32-6.209
	c0.109-1.006-2.818-8.865-3.904-10.828c0,0,2.084-1.867,3.111-5.092c0.934,3.924-2.289,8.25,2.699,10.75
	c0.432,0.047,2.359,2.492,0.385,2.74c-1.795,1.439-3.363,10.334-7.574,17.254c0.412,1.699,3.76,3.879,6.41,4.342
	c-5.967-2.801-0.283-21.049,5.857-20.709c7.542-3.01,0.296-1.977-3.521-5.535C17.013,30.154,22.12,23.488,14.769,11.597z"/>
<path fill="#CFD8DD" d="M49.231,11.597c1.212-1.961-3.271,8.167-2.422,11.73c0.207,0.86,1.979-3.237,1.537-1.571
	c-0.719,2.722-0.126,10.306,4.582,2.055c-1.834,7.553-6.06,15.25-5.455,16.982c2.238,0.658,6.732,4.004,6.908,4.891
	c0.176,0.889,2.937-6.096,3.711-9.301c-0.629,6.133-3.01,11.508-4.195,11.6c-2.45,0.188-8.148-4.648-8.319-6.209
	c-0.11-1.006,2.817-8.865,3.902-10.828c0,0-2.083-1.867-3.11-5.092c-0.934,3.924,2.289,8.25-2.7,10.75
	c-0.431,0.047-2.358,2.492-0.383,2.74c1.794,1.439,3.362,10.334,7.573,17.254c-0.412,1.699-3.76,3.879-6.41,4.342
	c5.966-2.801,0.283-21.049-5.857-20.709c-7.541-3.01-0.297-1.977,3.521-5.535C46.987,30.154,41.88,23.488,49.231,11.597z"/>
<path fill="#6E8189" d="M10.099,47.256c1.412-2.459,5.088-3.648,7.473-5.623C16.815,43.916,11.36,47.773,10.099,47.256z"/>
<path fill="#6E8189" d="M53.901,47.256c-1.412-2.459-5.088-3.648-7.473-5.623C47.185,43.916,52.64,47.773,53.901,47.256z"/>
<path fill="#99A8AE" d="M37.462,2c0,0,3.016,4.05-5.463,11.814C23.522,6.052,26.539,2,26.539,2H37.462z"/>
<path fill="#6E8189" d="M37.462,5.789c0,0,3.016,4.051-5.463,11.814c-8.477-7.762-5.46-11.814-5.46-11.814H37.462z"/>
<path fill="#CFD8DD" d="M33.653,14.715C29.726,9.586,26.313,6.621,26.539,2c-1.11,0.867-2.438,1.935-3.466,4.463
	c0,5.367,3.078,8.609,6.538,13.432C30.955,18.17,32.138,16.293,33.653,14.715z"/>
<path fill="#CFD8DD" d="M20.2,61.781C18.36,16.568,38.004,13.109,37.462,2c1.109,0.867,2.438,1.935,3.467,4.463
	c0,12.896-18.281,15.367-16.438,55.225C22.435,62,20.2,61.781,20.2,61.781z"/>
<path fill="#302C3B" d="M43.419,36.639C42.158,37.037,36.88,37.52,32,37.52s-10.159-0.482-11.419-0.881
	c-0.793-0.252-1.012,2.715-0.586,3.238c0.947,1.166,6.813,1.389,12.005,1.389s11.058-0.223,12.006-1.389
	C44.431,39.354,44.212,36.387,43.419,36.639z"/>
<path fill="#CFD8DD" d="M33.896,38.998c2.811-0.676,5.582,6.785,6.096,8.824c0.514,2.041-0.5,6.105,0.549,11.111
	c0.123,0.59-4.415,0.336-4.491-0.209c-0.837-6.066,0.446-9.143,0.142-10.787C35.888,46.293,34.885,40.77,33.896,38.998z"/>
<path fill="#CFD8DD" d="M31.948,40.35c-2.816-0.574-5.51,5.43-6.002,7.074c-0.492,1.643,0.562,4.939-0.436,8.975
	c-0.116,0.479,4.417,0.318,4.487-0.121c0.774-4.896-0.54-7.396-0.252-8.723C30.031,46.229,30.978,41.773,31.948,40.35z"/>
<path fill="#302C3B" d="M33.206,37.938c2.668-1.111,6.586,5.816,7.416,7.75c0.83,1.932,0.473,6.107,2.3,10.883
	c0.216,0.564-4.306,1.031-4.467,0.506c-1.787-5.859-1.007-9.098-1.567-10.674C36.328,44.826,34.464,39.531,33.206,37.938z"/>
<path fill="#302C3B" d="M28.76,40.252c1.172,1.488,3.889,2.258,5.512,0.158C35.051,39.4,28.209,39.553,28.76,40.252z"/>
<path fill="#302C3B" d="M31.53,38.178c-3-0.715-6.43,5.613-7.104,7.354s0.187,5.305-1.237,9.586
	c-0.168,0.506,4.758,0.496,4.87,0.027c1.257-5.209,0.047-7.93,0.472-9.338C28.954,44.398,30.358,39.666,31.53,38.178z"/>
<path fill="#302C3B" d="M28.739,38.67c0.756-1.32,0.385-1.893,1.205-2.07c0.818-0.176,1.942-0.105,3.982,1.486
	c0.98,0.766,0.048,2.771-0.532,2.32C30.981,38.525,28.385,39.291,28.739,38.67z"/>
<path fill="#1A1626" d="M28.825,38.896c-1.078-0.986,3.537-0.195,5.131,1.645C34.255,40.887,31.356,39.291,28.825,38.896z"/>
<path fill="#1A1626" d="M36.209,39.141c-0.104-1.457,4.921,5.615,4.811,8.047C40.128,44.104,37.772,41.17,36.209,39.141z"/>
<path fill="#1A1626" d="M28.451,47.078c-0.752-1.885,0.435-4.393,2.651-7.912C32.495,39.156,28.724,43.01,28.451,47.078z"/>
<path fill="#1A1626" d="M35.89,37.217c1.039,0.863,1.926,4.965-0.727,4.602C34.556,41.734,36.282,39.387,35.89,37.217z"/>
<path fill="#302C3B" d="M32,41.699c2.223-0.246,3.22,0.475,3.89-0.232c0.67-0.703,1.155-1.781,0-4.25
	c-0.555-1.186-3.793-1.207-3.807-0.303C32.815,37.967,32.38,40.049,32,41.699z"/>
<path fill="#1A1626" d="M32.083,36.914c0.578-1.291,1.654,4.809-0.083,4.785C32.483,40.807,32.538,39.326,32.083,36.914z"/>
</svg>
