<?xml version="1.0" encoding="utf-8"?>
<!-- Generator: Adobe Illustrator 15.0.0, SVG Export Plug-In . SVG Version: 6.00 Build 0)  -->
<!DOCTYPE svg PUBLIC "-//W3C//DTD SVG 1.1//EN" "http://www.w3.org/Graphics/SVG/1.1/DTD/svg11.dtd">
<svg version="1.1" id="Layer_1" xmlns="http://www.w3.org/2000/svg" xmlns:xlink="http://www.w3.org/1999/xlink" x="0px" y="0px"
	 width="64px" height="64px" viewBox="0 0 64 64" enable-background="new 0 0 64 64" xml:space="preserve">
<path fill="#6E8189" d="M58.955,38.929C61.874,23.004,40.998,2.125,25.073,5.044C40.354,4.666,59.336,23.648,58.955,38.929z"/>
<path fill="#6E8189" d="M60.793,29.599C63.066,17.196,46.806,0.932,34.402,3.208C46.305,2.912,61.089,17.698,60.793,29.599z"/>
<path fill="#6E8189" d="M61.85,20.586c1.588-8.665-9.771-20.023-18.436-18.437C51.729,1.943,62.057,12.271,61.85,20.586z"/>
<path fill="#018BC9" d="M7.379,13.51c-20.471,20.469,22.643,63.582,43.112,43.11C70.961,36.151,27.849-6.962,7.379,13.51z"/>
<path fill="#006DAE" d="M11.868,10.187c-0.512,0.416-1.014,0.857-1.502,1.346c-20.471,20.471,21.632,62.573,42.102,42.102
	c0.487-0.487,0.929-0.99,1.347-1.501c-0.834,1.582-1.924,3.089-3.323,4.486C30.022,77.092-13.091,33.979,7.379,13.51
	C8.777,12.112,10.284,11.021,11.868,10.187z"/>
<path fill="#75D6FF" d="M23.427,52.468C11.372,44.564,3.043,28.581,7.598,18.15C4.389,30.516,14.401,46.035,23.427,52.468z"/>
<path fill="#006DAE" d="M47.012,46.104c-2.123,2.123-4.361,3.167-7.338,3.369c-3.468,0.235-3.242,2.059,0,2.041
	c3.092-0.018,5.993-1.286,8.42-3.712C62.695,33.201,29.705,1.11,15.102,15.711c-3.728,3.729-4.512,8.214-3.566,12.438
	c1.992,8.894,6.897,10.971,4.621,4.983c-2.939-7.737-1.68-12.724,1.74-16.145C31.225,3.66,60.342,32.776,47.012,46.104z"/>
<path fill="#75D6FF" d="M30.593,46.226c-10.075-5.717-18.402-18.138-12.872-27.002C13.145,29.601,22.159,40.552,30.593,46.226z"/>
<path fill="#75D6FF" d="M34.15,16.328c7.609,4.914,16.843,15.753,14.928,24.268C51.998,33.36,42.844,20.676,34.15,16.328z"/>
</svg>
