<?xml version="1.0" encoding="utf-8"?>
<!-- Generator: Adobe Illustrator 15.0.0, SVG Export Plug-In . SVG Version: 6.00 Build 0)  -->
<!DOCTYPE svg PUBLIC "-//W3C//DTD SVG 1.1//EN" "http://www.w3.org/Graphics/SVG/1.1/DTD/svg11.dtd" [
	<!ENTITY ns_flows "http://ns.adobe.com/Flows/1.0/">
	<!ENTITY ns_extend "http://ns.adobe.com/Extensibility/1.0/">
	<!ENTITY ns_ai "http://ns.adobe.com/AdobeIllustrator/10.0/">
	<!ENTITY ns_graphs "http://ns.adobe.com/Graphs/1.0/">
]>
<svg version="1.1" id="Layer_1" xmlns:x="&ns_extend;" xmlns:i="&ns_ai;" xmlns:graph="&ns_graphs;"
	 xmlns="http://www.w3.org/2000/svg" xmlns:xlink="http://www.w3.org/1999/xlink" xmlns:a="http://ns.adobe.com/AdobeSVGViewerExtensions/3.0/"
	 x="0px" y="0px" width="64px" height="64px" viewBox="0 0 64 64" enable-background="new 0 0 64 64" xml:space="preserve">
<polygon fill="#CFD8DD" points="58,28.132 55.5,26.867 55.5,25.867 58,27.132 "/>
<polygon fill="#CFD8DD" points="58,32.131 52,29.132 52,28.132 58,31.131 "/>
<polygon fill="#CFD8DD" points="58,36.131 52,33.131 52,32.131 58,35.131 "/>
<polygon fill="#CFD8DD" points="58,40.131 52,37.131 52,36.131 58,39.131 "/>
<polygon fill="#CFD8DD" points="58,44.131 52,41.131 52,40.131 58,43.131 "/>
<polygon fill="#CFD8DD" points="58,48.131 52,45.131 52,44.131 58,47.131 "/>
<polygon fill="#CFD8DD" points="58,52.131 52,49.131 52,48.131 58,51.131 "/>
<polygon fill="#CFD8DD" points="58,56.131 52,53.131 52,52.131 58,55.131 "/>
<rect x="55" y="21.715" fill="#CFD8DD" width="1" height="36"/>
<polygon fill="#CFD8DD" points="6,28.132 8.5,26.867 8.5,25.867 6,27.132 "/>
<polygon fill="#CFD8DD" points="6,32.131 12,29.132 12,28.132 6,31.131 "/>
<polygon fill="#CFD8DD" points="6,36.131 12,33.131 12,32.131 6,35.131 "/>
<polygon fill="#CFD8DD" points="6,40.131 12,37.131 12,36.131 6,39.131 "/>
<polygon fill="#CFD8DD" points="6,44.131 12,41.131 12,40.131 6,43.131 "/>
<polygon fill="#CFD8DD" points="6,48.131 12,45.131 12,44.131 6,47.131 "/>
<polygon fill="#CFD8DD" points="6,52.131 12,49.131 12,48.131 6,51.131 "/>
<polygon fill="#CFD8DD" points="6,56.131 12,53.131 12,52.131 6,55.131 "/>
<rect x="8" y="21.715" fill="#CFD8DD" width="1" height="36"/>
<rect x="8" y="24.132" fill="#CFD8DD" width="48" height="1"/>
<rect x="12" y="28.132" fill="#CFD8DD" width="40" height="1"/>
<rect x="12" y="32.131" fill="#CFD8DD" width="40" height="1"/>
<rect x="12" y="36.131" fill="#CFD8DD" width="40" height="1"/>
<rect x="12" y="40.131" fill="#CFD8DD" width="40" height="1"/>
<rect x="12" y="44.131" fill="#CFD8DD" width="40" height="1"/>
<rect x="12" y="48.131" fill="#CFD8DD" width="40" height="1"/>
<rect x="12" y="52.131" fill="#CFD8DD" width="40" height="1"/>
<rect x="51.5" y="20.632" fill="#CFD8DD" width="1" height="35.999"/>
<rect x="47.5" y="20.632" fill="#CFD8DD" width="1" height="35.999"/>
<rect x="43.5" y="20.632" fill="#CFD8DD" width="1" height="35.999"/>
<rect x="39.5" y="20.632" fill="#CFD8DD" width="1" height="35.999"/>
<rect x="35.5" y="20.632" fill="#CFD8DD" width="1" height="35.999"/>
<rect x="31.5" y="20.632" fill="#CFD8DD" width="1" height="35.999"/>
<rect x="27.5" y="20.632" fill="#CFD8DD" width="1" height="35.999"/>
<rect x="23.5" y="20.632" fill="#CFD8DD" width="1" height="35.999"/>
<rect x="19.5" y="20.632" fill="#CFD8DD" width="1" height="35.999"/>
<rect x="15.5" y="20.632" fill="#CFD8DD" width="1" height="35.999"/>
<rect x="11.5" y="20.632" fill="#CFD8DD" width="1" height="35.999"/>
<path fill="#B3C2C6" d="M53,31.766c0-2.266,6-8.85,6-8.85l-1-3.932c0,0-8,8.65-8,11.799c0,5.555,0,24.58,0,24.58H14
	c0,0,0-19.025,0-24.58c0-3.148-8-11.799-8-11.799l-1,3.932c0,0,6,6.584,6,8.85c0,5.9,0,23.597,0,23.597l-6,2.949l1,2.951l6-2.951h40
	l6,2.951l1-2.951l-6-2.949C53,55.363,53,37.666,53,31.766z"/>
<linearGradient id="SVGID_1_" gradientUnits="userSpaceOnUse" x1="2" y1="40" x2="62" y2="40">
	<stop  offset="0" style="stop-color:#BF0000"/>
	<stop  offset="0.05" style="stop-color:#FF000E"/>
	<stop  offset="0.95" style="stop-color:#FF000E"/>
	<stop  offset="1" style="stop-color:#BF0000"/>
	<a:midPointStop  offset="0" style="stop-color:#BF0000"/>
	<a:midPointStop  offset="0.5" style="stop-color:#BF0000"/>
	<a:midPointStop  offset="0.05" style="stop-color:#FF000E"/>
	<a:midPointStop  offset="0.5" style="stop-color:#FF000E"/>
	<a:midPointStop  offset="0.95" style="stop-color:#FF000E"/>
	<a:midPointStop  offset="0.5" style="stop-color:#FF000E"/>
	<a:midPointStop  offset="1" style="stop-color:#BF0000"/>
</linearGradient>
<path fill="url(#SVGID_1_)" d="M56,18H8c-3.252,0-6,2.703-6,5.9c0,0,0,29.682,0,37.363c0,0.982,4,0.982,4,0C6,53.172,6,23.9,6,23.9
	c0-1.108,1.076-1.967,2-1.967h48c0.926,0,2,0.858,2,1.967c0,0,0,29.559,0,37.363c0,0.982,4,0.982,4,0C62,54.4,62,23.9,62,23.9
	C62,20.703,59.252,18,56,18z"/>
</svg>
