<?xml version="1.0" encoding="utf-8"?>
<!-- Generator: Adobe Illustrator 15.0.0, SVG Export Plug-In . SVG Version: 6.00 Build 0)  -->
<!DOCTYPE svg PUBLIC "-//W3C//DTD SVG 1.1//EN" "http://www.w3.org/Graphics/SVG/1.1/DTD/svg11.dtd" [
	<!ENTITY ns_flows "http://ns.adobe.com/Flows/1.0/">
	<!ENTITY ns_extend "http://ns.adobe.com/Extensibility/1.0/">
	<!ENTITY ns_ai "http://ns.adobe.com/AdobeIllustrator/10.0/">
	<!ENTITY ns_graphs "http://ns.adobe.com/Graphs/1.0/">
]>
<svg version="1.1" id="Layer_1" xmlns:x="&ns_extend;" xmlns:i="&ns_ai;" xmlns:graph="&ns_graphs;"
	 xmlns="http://www.w3.org/2000/svg" xmlns:xlink="http://www.w3.org/1999/xlink" xmlns:a="http://ns.adobe.com/AdobeSVGViewerExtensions/3.0/"
	 x="0px" y="0px" width="64px" height="64px" viewBox="0 0 64 64" enable-background="new 0 0 64 64" xml:space="preserve">
<linearGradient id="SVGID_1_" gradientUnits="userSpaceOnUse" x1="24.001" y1="16" x2="42.001" y2="16">
	<stop  offset="0" style="stop-color:#FF000E"/>
	<stop  offset="0.7283" style="stop-color:#DD0004"/>
	<stop  offset="1" style="stop-color:#CF0000"/>
	<a:midPointStop  offset="0" style="stop-color:#FF000E"/>
	<a:midPointStop  offset="0.5273" style="stop-color:#FF000E"/>
	<a:midPointStop  offset="1" style="stop-color:#CF0000"/>
</linearGradient>
<polygon fill="url(#SVGID_1_)" points="36.001,2 24.001,30 29.001,30 42.001,2 "/>
<linearGradient id="SVGID_2_" gradientUnits="userSpaceOnUse" x1="34.001" y1="16" x2="54" y2="16">
	<stop  offset="0" style="stop-color:#005687"/>
	<stop  offset="0.2619" style="stop-color:#0B669B"/>
	<stop  offset="0.7365" style="stop-color:#1C7FBB"/>
	<stop  offset="1" style="stop-color:#2289C7"/>
	<a:midPointStop  offset="0" style="stop-color:#005687"/>
	<a:midPointStop  offset="0.4242" style="stop-color:#005687"/>
	<a:midPointStop  offset="1" style="stop-color:#2289C7"/>
</linearGradient>
<polygon fill="url(#SVGID_2_)" points="48.001,2 34.001,30 40,30 54,2 "/>
<linearGradient id="SVGID_3_" gradientUnits="userSpaceOnUse" x1="29.001" y1="16" x2="48.001" y2="16">
	<stop  offset="0.3333" style="stop-color:#EEF2F5"/>
	<stop  offset="0.647" style="stop-color:#E4E8EA"/>
	<stop  offset="1" style="stop-color:#D4D7D9"/>
	<a:midPointStop  offset="0.3333" style="stop-color:#EEF2F5"/>
	<a:midPointStop  offset="0.5856" style="stop-color:#EEF2F5"/>
	<a:midPointStop  offset="1" style="stop-color:#D4D7D9"/>
</linearGradient>
<polygon fill="url(#SVGID_3_)" points="42.001,2 29.001,30 34.001,30 48.001,2 "/>
<path fill="#F9B700" d="M40.001,28h-16c0,0-4,0-4,4v4h2v-4c0-2,2-2,2-2h16c0,0,2,0,2,2v4h2v-4C44.001,28,40.001,28,40.001,28z"/>
<linearGradient id="SVGID_4_" gradientUnits="userSpaceOnUse" x1="22.001" y1="16" x2="40.001" y2="16">
	<stop  offset="0" style="stop-color:#005687"/>
	<stop  offset="0.2619" style="stop-color:#0B669B"/>
	<stop  offset="0.7365" style="stop-color:#1C7FBB"/>
	<stop  offset="1" style="stop-color:#2289C7"/>
	<a:midPointStop  offset="0" style="stop-color:#005687"/>
	<a:midPointStop  offset="0.4242" style="stop-color:#005687"/>
	<a:midPointStop  offset="1" style="stop-color:#2289C7"/>
</linearGradient>
<polygon fill="url(#SVGID_4_)" points="28.001,2 22.001,2 34.001,30 40.001,30 "/>
<linearGradient id="SVGID_5_" gradientUnits="userSpaceOnUse" x1="10" y1="16" x2="29.001" y2="16">
	<stop  offset="0" style="stop-color:#CF0000"/>
	<stop  offset="0.2717" style="stop-color:#DD0004"/>
	<stop  offset="1" style="stop-color:#FF000E"/>
	<a:midPointStop  offset="0" style="stop-color:#CF0000"/>
	<a:midPointStop  offset="0.4727" style="stop-color:#CF0000"/>
	<a:midPointStop  offset="1" style="stop-color:#FF000E"/>
</linearGradient>
<polygon fill="url(#SVGID_5_)" points="16.001,2 10,2 24,30 29.001,30 "/>
<radialGradient id="SVGID_6_" cx="25.001" cy="16" r="11.7686" gradientUnits="userSpaceOnUse">
	<stop  offset="0.3333" style="stop-color:#EEF2F5"/>
	<stop  offset="0.647" style="stop-color:#E4E8EA"/>
	<stop  offset="1" style="stop-color:#D4D7D9"/>
	<a:midPointStop  offset="0.3333" style="stop-color:#EEF2F5"/>
	<a:midPointStop  offset="0.5856" style="stop-color:#EEF2F5"/>
	<a:midPointStop  offset="1" style="stop-color:#D4D7D9"/>
</radialGradient>
<polygon fill="url(#SVGID_6_)" points="29.001,30 34.001,30 22.001,2 16.001,2 "/>
<radialGradient id="SVGID_7_" cx="44.0469" cy="43.4688" r="13.9995" gradientTransform="matrix(0.8082 -0.8082 4.0408 4.0408 -179.2439 -94.0504)" gradientUnits="userSpaceOnUse">
	<stop  offset="0.1636" style="stop-color:#FAD103"/>
	<stop  offset="0.3241" style="stop-color:#F9CD09"/>
	<stop  offset="0.5373" style="stop-color:#F7C31A"/>
	<stop  offset="0.7793" style="stop-color:#F4B235"/>
	<stop  offset="0.8667" style="stop-color:#F2AB41"/>
	<a:midPointStop  offset="0.1636" style="stop-color:#FAD103"/>
	<a:midPointStop  offset="0.6466" style="stop-color:#FAD103"/>
	<a:midPointStop  offset="0.8667" style="stop-color:#F2AB41"/>
</radialGradient>
<ellipse fill="url(#SVGID_7_)" cx="32" cy="46" rx="16" ry="16"/>
<radialGradient id="SVGID_8_" cx="44.0469" cy="43.4688" r="11.999" gradientTransform="matrix(0.8082 0.8082 -1.6163 1.6163 66.6617 -59.8554)" gradientUnits="userSpaceOnUse">
	<stop  offset="0.1636" style="stop-color:#FAD103"/>
	<stop  offset="0.3546" style="stop-color:#F9CD09"/>
	<stop  offset="0.6082" style="stop-color:#F7C31A"/>
	<stop  offset="0.896" style="stop-color:#F4B235"/>
	<stop  offset="1" style="stop-color:#F2AB41"/>
	<a:midPointStop  offset="0.1636" style="stop-color:#FAD103"/>
	<a:midPointStop  offset="0.6466" style="stop-color:#FAD103"/>
	<a:midPointStop  offset="1" style="stop-color:#F2AB41"/>
</radialGradient>
<path fill="url(#SVGID_8_)" d="M32,32.285c7.58,0,13.714,6.144,13.714,13.715S39.58,59.714,32,59.714
	c-7.576,0-13.714-6.143-13.714-13.714S24.424,32.285,32,32.285z"/>
<path fill="#D47706" d="M34.099,37v12.813c0,0.656,0.075,1.158,0.227,1.506c0.151,0.349,0.417,0.59,0.798,0.725
	s0.905,0.202,1.575,0.202V53h-8.984v-0.754c0.716,0,1.269-0.062,1.658-0.185c0.39-0.124,0.672-0.363,0.846-0.719
	c0.175-0.355,0.262-0.865,0.262-1.529v-8.261c0-0.656-0.073-1.108-0.22-1.355c-0.147-0.247-0.403-0.37-0.771-0.37
	c-0.486,0-1.078,0.174-1.775,0.521l-0.412-0.648L33.313,37H34.099z"/>
</svg>
