<?xml version="1.0" encoding="utf-8"?>
<!-- Generator: Adobe Illustrator 15.0.0, SVG Export Plug-In . SVG Version: 6.00 Build 0)  -->
<!DOCTYPE svg PUBLIC "-//W3C//DTD SVG 1.1//EN" "http://www.w3.org/Graphics/SVG/1.1/DTD/svg11.dtd" [
	<!ENTITY ns_flows "http://ns.adobe.com/Flows/1.0/">
	<!ENTITY ns_extend "http://ns.adobe.com/Extensibility/1.0/">
	<!ENTITY ns_ai "http://ns.adobe.com/AdobeIllustrator/10.0/">
	<!ENTITY ns_graphs "http://ns.adobe.com/Graphs/1.0/">
]>
<svg version="1.1" id="Layer_1" xmlns:x="&ns_extend;" xmlns:i="&ns_ai;" xmlns:graph="&ns_graphs;"
	 xmlns="http://www.w3.org/2000/svg" xmlns:xlink="http://www.w3.org/1999/xlink" xmlns:a="http://ns.adobe.com/AdobeSVGViewerExtensions/3.0/"
	 x="0px" y="0px" width="64px" height="64px" viewBox="0 0 64 64" enable-background="new 0 0 64 64" xml:space="preserve">
<linearGradient id="SVGID_1_" gradientUnits="userSpaceOnUse" x1="127.6084" y1="31.9912" x2="146.8887" y2="31.9912" gradientTransform="matrix(0.7071 -0.7071 0.7071 0.7071 -87.3786 106.7168)">
	<stop  offset="0" style="stop-color:#D3D8DB"/>
	<stop  offset="0.358" style="stop-color:#CFD5D8"/>
	<stop  offset="0.7017" style="stop-color:#C4CDD1"/>
	<stop  offset="1" style="stop-color:#B3C2C6"/>
	<a:midPointStop  offset="0" style="stop-color:#D3D8DB"/>
	<a:midPointStop  offset="0.5" style="stop-color:#D3D8DB"/>
	<a:midPointStop  offset="0.358" style="stop-color:#CFD5D8"/>
	<a:midPointStop  offset="0.5" style="stop-color:#CFD5D8"/>
	<a:midPointStop  offset="0.7017" style="stop-color:#C4CDD1"/>
	<a:midPointStop  offset="0.5" style="stop-color:#C4CDD1"/>
	<a:midPointStop  offset="1" style="stop-color:#B3C2C6"/>
</linearGradient>
<path fill="url(#SVGID_1_)" d="M3.776,3.777c-4.828,4.825,0.797,17.522,9.562,21.825c4.093,2.009,9.747,1.266,12.447,2.859
	c10.31,6.092,27.054,40.306,35.019,32.342c7.966-7.963-26.249-24.71-32.341-35.02c-1.595-2.698-0.853-8.354-2.858-12.444
	C21.301,4.572,8.601-1.051,3.776,3.777z"/>
<radialGradient id="SVGID_2_" cx="17.2476" cy="13.7749" r="10.5979" gradientTransform="matrix(0.7071 -0.7071 1.1586 1.1586 -11.1983 10.1275)" gradientUnits="userSpaceOnUse">
	<stop  offset="0" style="stop-color:#D3D8DB"/>
	<stop  offset="0.3454" style="stop-color:#CDD4D7"/>
	<stop  offset="0.7994" style="stop-color:#BDC9CC"/>
	<stop  offset="1" style="stop-color:#B3C2C6"/>
	<a:midPointStop  offset="0" style="stop-color:#D3D8DB"/>
	<a:midPointStop  offset="0.6485" style="stop-color:#D3D8DB"/>
	<a:midPointStop  offset="1" style="stop-color:#B3C2C6"/>
</radialGradient>
<path fill="url(#SVGID_2_)" d="M23.767,12.437C20.107,4.65,8.817-0.104,4.356,4.357c-4.462,4.459,0.294,15.749,8.08,19.41
	C23.117,28.79,28.795,23.12,23.767,12.437z"/>
<radialGradient id="SVGID_3_" cx="461.8672" cy="-27.832" r="7.6919" gradientTransform="matrix(0.8757 0.8352 -0.2253 0.2603 -358.7798 -324.2676)" gradientUnits="userSpaceOnUse">
	<stop  offset="0" style="stop-color:#FFFFFF"/>
	<stop  offset="1" style="stop-color:#FFFFFF;stop-opacity:0"/>
	<a:midPointStop  offset="0" style="stop-color:#FFFFFF"/>
	<a:midPointStop  offset="0.5" style="stop-color:#FFFFFF"/>
	<a:midPointStop  offset="1" style="stop-color:#FFFFFF;stop-opacity:0"/>
</radialGradient>
<path opacity="0.5" fill="url(#SVGID_3_)" d="M58.927,60.893C56.3,63.93,42.34,50.616,44.97,47.581
	C47.596,44.545,61.557,57.86,58.927,60.893z"/>
</svg>
