<?xml version="1.0" encoding="utf-8"?>
<!-- Generator: Adobe Illustrator 15.0.0, SVG Export Plug-In . SVG Version: 6.00 Build 0)  -->
<!DOCTYPE svg PUBLIC "-//W3C//DTD SVG 1.1//EN" "http://www.w3.org/Graphics/SVG/1.1/DTD/svg11.dtd" [
	<!ENTITY ns_flows "http://ns.adobe.com/Flows/1.0/">
	<!ENTITY ns_extend "http://ns.adobe.com/Extensibility/1.0/">
	<!ENTITY ns_ai "http://ns.adobe.com/AdobeIllustrator/10.0/">
	<!ENTITY ns_graphs "http://ns.adobe.com/Graphs/1.0/">
]>
<svg version="1.1" id="Layer_1" xmlns:x="&ns_extend;" xmlns:i="&ns_ai;" xmlns:graph="&ns_graphs;"
	 xmlns="http://www.w3.org/2000/svg" xmlns:xlink="http://www.w3.org/1999/xlink" xmlns:a="http://ns.adobe.com/AdobeSVGViewerExtensions/3.0/"
	 x="0px" y="0px" width="64px" height="64px" viewBox="0 0 64 64" enable-background="new 0 0 64 64" xml:space="preserve">
<linearGradient id="SVGID_1_" gradientUnits="userSpaceOnUse" x1="-103.1851" y1="17.479" x2="-66.4824" y2="17.479" gradientTransform="matrix(0.7071 0.7071 -0.7071 0.7071 103.8789 78.2386)">
	<stop  offset="0" style="stop-color:#DEA252"/>
	<stop  offset="1" style="stop-color:#C98730"/>
	<a:midPointStop  offset="0" style="stop-color:#DEA252"/>
	<a:midPointStop  offset="0.5" style="stop-color:#DEA252"/>
	<a:midPointStop  offset="1" style="stop-color:#C98730"/>
</linearGradient>
<path fill="url(#SVGID_1_)" d="M36.025,45.392C27.432,69.164,8.753,59.676,7.398,57.294c-13.432-23.607,6.328-29.39,11.393-35.442
	C30.379-2.563,43.063,1.427,59.992,8.179C67.135,39.006,38.285,39.155,36.025,45.392z"/>
<path fill="#E6AA57" d="M7.89,31.476c0.393,13.802,8.787,21.905,22.672,23.882c0.973,0.137,2.531-1.81,1.559-1.944
	C19.49,51.613,10.07,43.406,9.769,29.765C9.746,28.724,7.851,30.191,7.89,31.476z"/>
<path fill="#E6AA57" d="M3.341,40.109c0.525,7.99,9.584,18.143,22.356,19.431c1.211,0.121,3.051-1.3,1.834-1.417
	C14.851,56.839,5.06,45.95,4.119,37.151C3.916,35.255,3.224,38.317,3.341,40.109z"/>
<path fill="#E6AA57" d="M14.476,26.272c-1.406,10.638,11.569,23.292,20.5,22.069c0.613-0.083,1.389-2.295,0.771-2.21
	c-8.322,1.14-20.932-10.251-19.426-21.615C16.468,23.422,14.646,25,14.476,26.272z"/>
<path fill="#E6AA57" d="M21.445,16.228c-1.609,12.689,5.143,22.041,18.483,26.439c1.246,0.413,2.682-1.359,2.088-1.523
	c-12.428-3.51-20.403-15.745-18.612-27.267C23.474,13.433,21.648,14.634,21.445,16.228z"/>
<path fill="#E6AA57" d="M25.412,10.682c6.541,7.892,8.77,23.314,24.779,26.446c1.313,0.256,2.645-1.532,2.045-1.634
	C37.318,32.998,33.877,17.07,27.123,8.731C26.658,8.159,25.015,10.206,25.412,10.682z"/>
<path fill="#E6AA57" d="M32.432,4.391c-1.258-0.476-2.744,1.6-2.146,1.747C41.57,8.936,43.432,26.089,55.848,32.445
	c0.545,0.278,2.076-1.68,1.529-1.961C46.371,24.792,44.842,9.084,32.432,4.391z"/>
<path fill="#E6AA57" d="M41.68,2.541c-1.686-0.9-4.041,0.148-3.455,0.395c13.785,5.787,13.465,14.794,21.047,23.92
	c0.396,0.474,1.441-1.681,0.945-2.216C52.906,16.766,57.213,10.838,41.68,2.541z"/>
<path fill="#E6AA57" d="M52.811,5.507C31.727,6.06,28.639,17.475,20.509,23.5C7.171,33.386,1.853,42.934,6.304,55.394
	c0.203,0.57,1.594,3.091,1.258,1.575C4.093,41.372,9.416,35.155,21.55,25.397c8.364-6.727,15.5-19.88,33.678-18.645
	C56.492,6.84,54.215,5.474,52.811,5.507z"/>
<path fill="#E6AA57" d="M58.188,7.748c-20.279,4.941-29.051,19.181-32.781,21.115C12.931,35.346,9.263,48.523,7.482,57.419
	c-0.123,0.617,1.678,1.395,1.801,0.774c1.686-8.419,5.51-21.253,17.112-27.285C30.389,28.833,40.039,14.49,60.08,8.96
	C60.672,8.797,60.232,7.247,58.188,7.748z"/>
<path fill="#E6AA57" d="M59.686,7.963c-8.33,16.804-27.832,22.092-31.113,27.75C23.476,44.506,14.353,54.931,7.56,57.326
	c-0.586,0.212,1.158,1.79,1.746,1.579c9.285-3.276,18.594-17.594,21.168-22.037c2.982-5.136,21.49-8.16,29.834-27.214
	C60.525,9.155,59.971,7.388,59.686,7.963z"/>
<path fill="#E6AA57" d="M60.033,11.643C57.02,29.402,45.83,33.614,35.652,39.515c-3.494,2.024-9.004,18.501-25.09,19.661
	c-0.609,0.042,1.082,0.828,1.695,0.854c15.411,0.663,21.479-16.468,24.438-18.508c10.406-7.171,21.322-9.867,23.863-26.332
	C60.787,13.7,60.141,11.025,60.033,11.643z"/>
<path fill="#E6AA57" d="M60.852,7.907c7.24,31.251-22.018,32.267-23.996,37.735C27.957,70.252,8.257,60.581,6.617,57.702
	C-8,32.03,16.64,24.779,18.025,21.625C32.252-10.806,50.664,6.59,60.055,7.217C60.424,7.244,60.787,7.647,60.852,7.907z
	 M35.186,45.028c2.572-7.122,30.551-6.403,24.068-36.069c-9.268-1.334-26.77-16.164-39.653,13.491
	C18.095,25.919-5.842,33.525,8.162,56.774C9.253,58.488,26.873,68.01,35.186,45.028z"/>
<radialGradient id="SVGID_2_" cx="331.8291" cy="89.335" r="26.6515" gradientTransform="matrix(-0.2699 0.481 -0.4167 -0.2131 164.3089 -122.1876)" gradientUnits="userSpaceOnUse">
	<stop  offset="0" style="stop-color:#FFEBC2"/>
	<stop  offset="1" style="stop-color:#FFEBC2;stop-opacity:0"/>
	<a:midPointStop  offset="0" style="stop-color:#FFEBC2"/>
	<a:midPointStop  offset="0.5" style="stop-color:#FFEBC2"/>
	<a:midPointStop  offset="1" style="stop-color:#FFEBC2;stop-opacity:0"/>
</radialGradient>
<path opacity="0.3" fill="url(#SVGID_2_)" d="M30.091,31.679C13.257,23.07,28.168-3.497,44.992,5.115
	C61.824,13.723,46.917,40.29,30.091,31.679z"/>
<radialGradient id="SVGID_3_" cx="386.0879" cy="92.9004" r="26.6523" gradientTransform="matrix(-0.2699 0.481 -0.4167 -0.2131 159.7387 -124.5252)" gradientUnits="userSpaceOnUse">
	<stop  offset="0" style="stop-color:#FFEBC2"/>
	<stop  offset="1" style="stop-color:#FFEBC2;stop-opacity:0"/>
	<a:midPointStop  offset="0" style="stop-color:#FFEBC2"/>
	<a:midPointStop  offset="0.5" style="stop-color:#FFEBC2"/>
	<a:midPointStop  offset="1" style="stop-color:#FFEBC2;stop-opacity:0"/>
</radialGradient>
<path opacity="0.3" fill="url(#SVGID_3_)" d="M9.392,54.683c-16.834-8.609-1.923-35.176,14.902-26.566
	C41.125,36.727,26.219,63.293,9.392,54.683z"/>
</svg>
