<?xml version="1.0" encoding="utf-8"?>
<!-- Generator: Adobe Illustrator 15.0.0, SVG Export Plug-In . SVG Version: 6.00 Build 0)  -->
<!DOCTYPE svg PUBLIC "-//W3C//DTD SVG 1.1//EN" "http://www.w3.org/Graphics/SVG/1.1/DTD/svg11.dtd" [
	<!ENTITY ns_flows "http://ns.adobe.com/Flows/1.0/">
	<!ENTITY ns_extend "http://ns.adobe.com/Extensibility/1.0/">
	<!ENTITY ns_ai "http://ns.adobe.com/AdobeIllustrator/10.0/">
	<!ENTITY ns_graphs "http://ns.adobe.com/Graphs/1.0/">
]>
<svg version="1.1" id="Layer_1" xmlns:x="&ns_extend;" xmlns:i="&ns_ai;" xmlns:graph="&ns_graphs;"
	 xmlns="http://www.w3.org/2000/svg" xmlns:xlink="http://www.w3.org/1999/xlink" xmlns:a="http://ns.adobe.com/AdobeSVGViewerExtensions/3.0/"
	 x="0px" y="0px" width="64px" height="64px" viewBox="0 0 64 64" enable-background="new 0 0 64 64" xml:space="preserve">
<radialGradient id="SVGID_1_" cx="-22.7061" cy="22.9536" r="20.3539" gradientTransform="matrix(0.7151 0.7108 -2.2265 2.2133 113.8345 -21.7099)" gradientUnits="userSpaceOnUse">
	<stop  offset="0" style="stop-color:#77B516"/>
	<stop  offset="1" style="stop-color:#297124"/>
	<a:midPointStop  offset="0" style="stop-color:#77B516"/>
	<a:midPointStop  offset="0.5" style="stop-color:#77B516"/>
	<a:midPointStop  offset="1" style="stop-color:#297124"/>
</radialGradient>
<path fill="url(#SVGID_1_)" d="M48.571,38.499c-0.051-0.041,2.24-0.452,2.632-2.886c2.313-2.71,4.261-5.465,5.84-8.176
	c0,0,1.657-0.875,1.284-2.332c0.645-1.259,7.961-17.496-0.046-21.995C53.694,0.534,47.859,2.609,41.529,7.6
	c0,0-2.539,0.191-3.589,3.078c-4.771,5.132-9.25,9.882-11.299,12.466c-2.282,0.47-2.059,2.639-2.059,2.639
	c-2.155,2.803-4.379,5.366-6.55,7.729c-1.825,0.348-2.049,2.196-2.049,2.196c-1.557,1.644-6.44,6.713-7.315,7.67
	c-2.185,0.689-2.672,3.092-2.672,3.092c-2.531,3.158-3.788,5.941-3.67,8.811c0,0-1.202,1.904,1.017,4.023
	c1.603,2.549,4.881,3.258,9.255,2.266c0,0,1.655,0.912,3.347-0.982c2.501-0.889,10.53-5.121,11.717-5.848
	c0,0,1.687,0.313,2.771-1.764c1.873-1.229,3.788-2.559,5.733-3.998c0,0,1.428,0.01,2.045-1.531
	C39.792,46.235,46.872,40.258,48.571,38.499z"/>
<path fill="#7AB51D" d="M49.088,15.551c-3.917-1.231-4.759,8.161-1.522,3.041C49.116,16.149,52.621,16.664,49.088,15.551z"/>
<path fill="#7AB51D" d="M39.18,17.521c-3.952-1.119-4.513,8.293-1.427,3.08C39.224,18.115,42.742,18.528,39.18,17.521z"/>
<path fill="#7AB51D" d="M45.88,34.486c4.841,0.389,3.289-10.648,0.936-3.9C45.688,33.81,41.514,34.142,45.88,34.486z"/>
<path fill="#7AB51D" d="M33.869,46.042c3.505,0.277,2.38-7.714,0.677-2.828C33.729,45.548,30.706,45.788,33.869,46.042z"/>
<path fill="#7AB51D" d="M18.655,56.911c3.278,1.266,4.516-6.707,1.466-2.512C18.666,56.401,15.699,55.769,18.655,56.911z"/>
<path fill="#7AB51D" d="M54.31,23.963c3.503,0.312,2.438-7.694,0.699-2.819C54.178,23.47,51.151,23.682,54.31,23.963z"/>
<path fill="#7AB51D" d="M14.448,43.183c-2.759-0.219-1.874,6.061-0.532,2.219C14.556,43.571,16.933,43.382,14.448,43.183z"/>
<path fill="#7AB51D" d="M36.122,28.435c-2.762-0.219-1.875,6.062-0.534,2.22C36.229,28.824,38.605,28.635,36.122,28.435z"/>
<path fill="#7AB51D" d="M10.079,52.372c-2.758-0.217-1.875,6.059-0.533,2.219C10.185,52.761,12.562,52.575,10.079,52.372z"/>
<path fill="#7AB51D" d="M51.49,6.717c-2.567-1.018-3.596,5.243-1.168,1.965C51.479,7.119,53.807,7.634,51.49,6.717z"/>
<path fill="#7AB51D" d="M27.351,30.748c-4.1-0.324-2.784,9.014-0.791,3.3C27.511,31.322,31.044,31.042,27.351,30.748z"/>
<path fill="#7AB51D" d="M23.544,40.537c-3.983-1.007-4.269,8.417-1.337,3.122C23.606,41.13,27.138,41.443,23.544,40.537z"/>
<path fill="#7AB51D" d="M42.913,24.975c0,0-18.579,22.083-29.33,27.542C13.583,52.517,31.155,45.94,42.913,24.975z"/>
<path fill="#7AB51D" d="M56.563,5.52c0,0-0.348,9.04-9.063,16.666C47.501,22.186,58.968,17.207,56.563,5.52z"/>
<path fill="#7AB51D" d="M19.862,33.892c0,0,14.229-18.315,22.885-25.482C42.747,8.41,28.29,27.619,19.862,33.892z"/>
</svg>
