<?xml version="1.0" encoding="utf-8"?>
<!-- Generator: Adobe Illustrator 15.0.0, SVG Export Plug-In . SVG Version: 6.00 Build 0)  -->
<!DOCTYPE svg PUBLIC "-//W3C//DTD SVG 1.1//EN" "http://www.w3.org/Graphics/SVG/1.1/DTD/svg11.dtd" [
	<!ENTITY ns_flows "http://ns.adobe.com/Flows/1.0/">
	<!ENTITY ns_extend "http://ns.adobe.com/Extensibility/1.0/">
	<!ENTITY ns_ai "http://ns.adobe.com/AdobeIllustrator/10.0/">
	<!ENTITY ns_graphs "http://ns.adobe.com/Graphs/1.0/">
]>
<svg version="1.1" id="Layer_1" xmlns:x="&ns_extend;" xmlns:i="&ns_ai;" xmlns:graph="&ns_graphs;"
	 xmlns="http://www.w3.org/2000/svg" xmlns:xlink="http://www.w3.org/1999/xlink" xmlns:a="http://ns.adobe.com/AdobeSVGViewerExtensions/3.0/"
	 x="0px" y="0px" width="64px" height="64px" viewBox="0 0 64 64" enable-background="new 0 0 64 64" xml:space="preserve">
<path fill="#302C3B" d="M20.809,5.309c-2.727,0.083-6.366-3.534-8.587-3.298c-1.34,0.14-10.07,8.871-10.211,10.21
	c-0.236,2.221,3.382,5.86,3.298,8.588l2.106-4.771c-1.388-0.265-2.919-3.3-2.837-3.896c0.145-1.082,6.482-7.42,7.564-7.565
	c0.597-0.081,3.632,1.45,3.896,2.838L20.809,5.309z"/>
<path fill="#302C3B" d="M43.191,58.691c2.727-0.084,6.367,3.533,8.588,3.297c1.34-0.139,10.07-8.871,10.209-10.209
	c0.238-2.221-3.381-5.861-3.297-8.588l-2.105,4.77c1.387,0.266,2.918,3.301,2.836,3.896c-0.145,1.082-6.482,7.42-7.564,7.564
	c-0.596,0.082-3.631-1.449-3.896-2.838L43.191,58.691z"/>
<radialGradient id="SVGID_1_" cx="31.9824" cy="31.9814" r="28.8149" gradientUnits="userSpaceOnUse">
	<stop  offset="0.8485" style="stop-color:#302C3B"/>
	<stop  offset="0.9323" style="stop-color:#404652"/>
	<stop  offset="1" style="stop-color:#4E5E67"/>
	<a:midPointStop  offset="0.8485" style="stop-color:#302C3B"/>
	<a:midPointStop  offset="0.5357" style="stop-color:#302C3B"/>
	<a:midPointStop  offset="1" style="stop-color:#4E5E67"/>
</radialGradient>
<path fill="url(#SVGID_1_)" d="M31.982,3.167c-39.068,0-37.767,57.63,0,57.63C71.051,60.797,69.746,3.167,31.982,3.167z"/>
<radialGradient id="SVGID_2_" cx="31.9819" cy="31.9814" r="27.1612" gradientUnits="userSpaceOnUse">
	<stop  offset="0" style="stop-color:#FFB829"/>
	<stop  offset="0.3045" style="stop-color:#FFB529"/>
	<stop  offset="0.555" style="stop-color:#FFAB28"/>
	<stop  offset="0.7856" style="stop-color:#FF9927"/>
	<stop  offset="1" style="stop-color:#FF8226"/>
	<a:midPointStop  offset="0" style="stop-color:#FFB829"/>
	<a:midPointStop  offset="0.7455" style="stop-color:#FFB829"/>
	<a:midPointStop  offset="1" style="stop-color:#FF8226"/>
</radialGradient>
<path fill="url(#SVGID_2_)" d="M31.982,7.969c-32.558,0-31.473,48.025,0,48.025C64.541,55.994,63.453,7.969,31.982,7.969z"/>
<path fill="#FFE12C" d="M19.876,24.478c-2.849,2.852-1.493,4.21,1.357,1.358C24.086,22.986,22.177,22.179,19.876,24.478z"/>
<path fill="#FFE12C" d="M50.611,27.359c-2.848,2.851-1.494,4.21,1.359,1.36C54.822,25.866,52.912,25.06,50.611,27.359z"/>
<path fill="#FFE12C" d="M35.244,50.412c-2.85,2.854-1.494,4.209,1.359,1.359C39.455,48.92,37.545,48.111,35.244,50.412z"/>
<path fill="#FFE12C" d="M18.061,16.701c-2.663-1.865-4.403-0.738-1.103,1.575C20.262,20.587,21.364,19.014,18.061,16.701z"/>
<path fill="#FFE12C" d="M25.746,42.635c-2.663-1.865-4.403-0.738-1.102,1.574C27.947,46.52,29.047,44.947,25.746,42.635z"/>
<path fill="#FFE12C" d="M44.637,46.313c-2.662-1.865-4.402-0.738-1.102,1.576C46.838,50.199,47.939,48.627,44.637,46.313z"/>
<path fill="#FFE12C" d="M43.996,13.82c-2.664-1.866-4.406-0.738-1.104,1.574C46.195,17.706,47.299,16.132,43.996,13.82z"/>
<path fill="#FFE12C" d="M35.352,13.82c-2.664-1.866-4.404-0.738-1.102,1.574C37.553,17.706,38.654,16.132,35.352,13.82z"/>
<path fill="#FFE12C" d="M44.955,24.385c-2.662-1.866-4.402-0.738-1.1,1.574C47.156,28.271,48.258,26.698,44.955,24.385z"/>
<path fill="#FFE12C" d="M24.678,49.451c-2.849,2.854-1.491,4.209,1.359,1.359C28.889,47.959,26.978,47.152,24.678,49.451z"/>
<path fill="#FFE12C" d="M32.363,31.202c-2.85,2.853-1.492,4.208,1.357,1.359C36.572,29.709,34.664,28.903,32.363,31.202z"/>
<path fill="#529320" d="M11.812,27.179c-1.162,0-1.395,1.921,0,1.921C13.206,29.1,12.974,27.179,11.812,27.179z"/>
<path fill="#529320" d="M28.141,31.982c-1.163,0-1.394,1.92,0,1.92C29.535,33.902,29.303,31.982,28.141,31.982z"/>
<path fill="#529320" d="M18.536,35.824c-1.162,0-1.394,1.92,0,1.92C19.928,37.744,19.698,35.824,18.536,35.824z"/>
<path fill="#529320" d="M20.456,45.428c-1.161,0-1.393,1.922,0,1.922C21.85,47.35,21.618,45.428,20.456,45.428z"/>
<path fill="#529320" d="M29.1,16.614c-1.162,0-1.393,1.921,0.002,1.921C30.494,18.535,30.264,16.614,29.1,16.614z"/>
<path fill="#529320" d="M40.627,15.653c-1.162,0-1.395,1.922,0,1.922C42.02,17.575,41.789,15.653,40.627,15.653z"/>
<path fill="#529320" d="M46.391,35.824c-1.164,0-1.395,1.92,0,1.92C47.783,37.744,47.553,35.824,46.391,35.824z"/>
<path fill="#529320" d="M31.021,51.193c1.162-0.002,1.395,1.92,0,1.92C29.629,53.113,29.859,51.191,31.021,51.193z"/>
<path fill="#297124" d="M45.213,17.954c-0.004,0-1.045,5.095,4.557,5.057l0.541-1.523C45.59,20.476,46.389,17.214,45.213,17.954z"/>
<path fill="#297124" d="M18.214,20.846l-1.595-0.271c-0.175,4.825-3.525,4.603-2.593,5.637
	C14.025,26.213,19.224,26.356,18.214,20.846z"/>
<path fill="#297124" d="M38.326,45.074l-1.141,1.148c3.844,2.926,1.729,5.535,3.109,5.369C40.299,51.592,43.41,47.426,38.326,45.074
	z"/>
<path fill="#FFE8BB" d="M44.797,30.721c0,0,0.326-3.225-2.422,0.407C39.982,34.295,47.896,32.97,44.797,30.721z"/>
<radialGradient id="SVGID_3_" cx="35.4717" cy="37.9492" r="10.3074" gradientTransform="matrix(0.7699 -0.6382 0.405 0.4886 -7.2066 42.0441)" gradientUnits="userSpaceOnUse">
	<stop  offset="0" style="stop-color:#D47706"/>
	<stop  offset="0.2451" style="stop-color:#C26C0C"/>
	<stop  offset="0.7336" style="stop-color:#944F1A"/>
	<stop  offset="1" style="stop-color:#783E23"/>
	<a:midPointStop  offset="0" style="stop-color:#D47706"/>
	<a:midPointStop  offset="0.5515" style="stop-color:#D47706"/>
	<a:midPointStop  offset="1" style="stop-color:#783E23"/>
</radialGradient>
<path fill="url(#SVGID_3_)" d="M39.545,32.629c-1.502,0.791-2.889,1.263-6.551,1.423c-7.027,0.309-9.46,10.551-3.076,12.893
	c6.973,2.551,7.482-7.24,10.951-10.576C45.428,31.982,44.18,29.448,39.545,32.629z"/>
<path fill="#FFE8BB" d="M20.065,30.043c0,0-1.408,2.919,2.415,0.445C25.812,28.332,17.92,26.869,20.065,30.043z"/>
<radialGradient id="SVGID_4_" cx="28.3643" cy="25.0933" r="15.2573" gradientTransform="matrix(0.9432 -0.3321 0.1625 0.4615 -2.4672 22.9329)" gradientUnits="userSpaceOnUse">
	<stop  offset="0" style="stop-color:#D47706"/>
	<stop  offset="0.2451" style="stop-color:#C26C0C"/>
	<stop  offset="0.7336" style="stop-color:#944F1A"/>
	<stop  offset="1" style="stop-color:#783E23"/>
	<a:midPointStop  offset="0" style="stop-color:#D47706"/>
	<a:midPointStop  offset="0.5515" style="stop-color:#D47706"/>
	<a:midPointStop  offset="1" style="stop-color:#783E23"/>
</radialGradient>
<path fill="url(#SVGID_4_)" d="M39.596,19.887c-5.926-4.123-9.508,4.242-13.906,6.19c-5.788,2.564-5.48,5.371-0.037,3.968
	c1.681-0.229,3.148-0.198,6.642,0.902C39.004,33.063,45.178,23.771,39.596,19.887z"/>
<path fill="#529320" d="M49.271,24.297c-1.162,0-1.395,1.921,0,1.921S50.434,24.297,49.271,24.297z"/>
<path fill="#E81C27" d="M24.482,37.574c0.166-0.381,0.999-1.535,1.103-1.934c0,0-0.716,0.488-1.527,1.129
	c0.325-0.551,0.653-1.17,0.828-1.697c0,0-3.125,1.277-4.201,4.014c-0.566,1.439-7.506,2.727-4.035-5.1
	c1.828-4.123-5.074-6.613-5.074,0.939c-1.305,1.303-0.66,4.418,0.484,4.418c-0.406,1.613,0.738,3.086,3.203,3.086
	c2.838,2.465,6.192,0.219,7.178-1.895c0,0,2.354-0.521,3.778-4.029C26.218,36.506,25.089,37.326,24.482,37.574z"/>
<path fill="#E81C27" d="M28.939,10.905c-1.133-1.461-4.302-1.213-4.446-0.076c-1.548-0.608-3.152,0.341-3.464,2.788
	c-2.803,2.506-0.995,6.118,0.978,7.358c0,0,0.22,2.401,3.521,4.259c0,0-0.673-1.224-0.843-1.858
	c0.359,0.211,1.398,1.183,1.781,1.339c0,0-0.394-0.773-0.93-1.66c0.506,0.393,1.079,0.797,1.581,1.036c0,0-0.873-3.262-3.453-4.674
	c-1.355-0.742-1.759-7.787,5.565-3.36C33.09,18.388,36.43,11.853,28.939,10.905z"/>
<path fill="#E81C27" d="M51.037,33.197c0,0-0.309-2.39-3.674-4.125c0,0,0.717,1.2,0.908,1.826c-0.365-0.197-1.441-1.13-1.828-1.271
	c0,0,0.424,0.757,0.99,1.624c-0.52-0.375-1.105-0.758-1.617-0.979c0,0,0.99,3.227,3.621,4.543c1.381,0.691,2.043,7.717-5.436,3.563
	c-3.943-2.188-7.041,4.463,0.477,5.137c1.186,1.42,4.344,1.055,4.445-0.086c1.57,0.549,3.139-0.461,3.359-2.916
	C54.992,37.908,53.053,34.365,51.037,33.197z"/>
</svg>
