<?xml version="1.0" encoding="utf-8"?>
<!-- Generator: Adobe Illustrator 15.0.0, SVG Export Plug-In . SVG Version: 6.00 Build 0)  -->
<!DOCTYPE svg PUBLIC "-//W3C//DTD SVG 1.1//EN" "http://www.w3.org/Graphics/SVG/1.1/DTD/svg11.dtd" [
	<!ENTITY ns_flows "http://ns.adobe.com/Flows/1.0/">
	<!ENTITY ns_extend "http://ns.adobe.com/Extensibility/1.0/">
	<!ENTITY ns_ai "http://ns.adobe.com/AdobeIllustrator/10.0/">
	<!ENTITY ns_graphs "http://ns.adobe.com/Graphs/1.0/">
]>
<svg version="1.1" id="Layer_1" xmlns:x="&ns_extend;" xmlns:i="&ns_ai;" xmlns:graph="&ns_graphs;"
	 xmlns="http://www.w3.org/2000/svg" xmlns:xlink="http://www.w3.org/1999/xlink" xmlns:a="http://ns.adobe.com/AdobeSVGViewerExtensions/3.0/"
	 x="0px" y="0px" width="64px" height="64px" viewBox="0 0 64 64" enable-background="new 0 0 64 64" xml:space="preserve">
<path fill="#FFE1BD" d="M46.328,3.702C34.938,2.063,2.423,39.334,5.194,48.778C6.834,49.321,46.316,27.02,46.328,3.702z"/>
<path fill="#77B516" d="M49.518,13.755C44.953-3.766,40.301,9.582,38.23,6.424c-4.47-6.813-7.484,7.014-10.255,1.054
	c-2.301-4.942-5.45-1.314-5.379,6.782c0.088,9.915-11.878-1.618-9.086,7.559c2.776,9.13-12.865,1.938-6.426,13.535
	c2.127,3.827-10.169,8.337,4.211,13.874C11.295,49.228,53.904,42.198,49.518,13.755z"/>
<path fill="#E81C27" d="M28.012,16.385l11.708-6.145C35.442,1.875,23.732,8.023,28.012,16.385z"/>
<path fill="#C21413" d="M29.715,15.498l8.328-4.367C35.079,5.34,26.751,9.708,29.715,15.498z"/>
<path fill="#F79886" d="M31.452,10.749c-0.378,0.39,0.713,0.735,0.82,0.678C32.382,11.366,31.85,10.334,31.452,10.749z"/>
<path fill="#F79886" d="M32.552,9.909c-0.515,0.177,0.292,0.979,0.417,0.975C33.092,10.879,33.098,9.722,32.552,9.909z"/>
<path fill="#E81C27" d="M12.555,32.98l11.708-6.145C19.987,18.471,8.275,24.618,12.555,32.98z"/>
<path fill="#C21413" d="M14.258,32.093l8.326-4.367C19.622,21.936,11.292,26.303,14.258,32.093z"/>
<path fill="#014F27" d="M23.152,15.219c7.341-10.114,21.417,0.889,14.073,11C29.883,36.332,11.547,16.588,23.152,15.219z"/>
<path fill="#B8E866" d="M24.491,16.267c5.866-8.079,17.417,0.949,11.55,9.027C30.172,33.376,14.133,17.487,24.491,16.267z"/>
<path fill="#014F27" d="M22.374,39.545c-4.262,11.76-20.788,5.002-16.521-6.758C10.116,21.029,33.128,35.05,22.374,39.545z"/>
<path fill="#B8E866" d="M20.801,38.899c-3.406,9.396-16.969,3.849-13.559-5.545C10.65,23.959,30.401,34.891,20.801,38.899z"/>
<radialGradient id="SVGID_1_" cx="12.5098" cy="31.6973" r="6.0005" gradientTransform="matrix(1 0 0 0.9906 -2.5099 5.272)" gradientUnits="userSpaceOnUse">
	<stop  offset="0" style="stop-color:#FFA8EC"/>
	<stop  offset="0.3809" style="stop-color:#FEA6EB"/>
	<stop  offset="0.5295" style="stop-color:#FC9FE9"/>
	<stop  offset="0.6376" style="stop-color:#F993E4"/>
	<stop  offset="0.7261" style="stop-color:#F482DD"/>
	<stop  offset="0.8025" style="stop-color:#EE6BD5"/>
	<stop  offset="0.8706" style="stop-color:#E64FCA"/>
	<stop  offset="0.9325" style="stop-color:#DC2EBE"/>
	<stop  offset="0.9879" style="stop-color:#D209B0"/>
	<stop  offset="1" style="stop-color:#CF00AC"/>
	<a:midPointStop  offset="0" style="stop-color:#FFA8EC"/>
	<a:midPointStop  offset="0.8606" style="stop-color:#FFA8EC"/>
	<a:midPointStop  offset="1" style="stop-color:#CF00AC"/>
</radialGradient>
<path fill="url(#SVGID_1_)" d="M10,42.615c-7.996-0.001-8.004-11.889,0-11.889C17.997,30.726,18.004,42.615,10,42.615z"/>
<radialGradient id="SVGID_2_" cx="12.5093" cy="31.6973" r="4.7366" gradientTransform="matrix(1 0 0 0.9906 -2.5099 5.272)" gradientUnits="userSpaceOnUse">
	<stop  offset="0" style="stop-color:#FFA8EC"/>
	<stop  offset="0.3809" style="stop-color:#FEA6EB"/>
	<stop  offset="0.5295" style="stop-color:#FC9FE9"/>
	<stop  offset="0.6376" style="stop-color:#F993E4"/>
	<stop  offset="0.7261" style="stop-color:#F482DD"/>
	<stop  offset="0.8025" style="stop-color:#EE6BD5"/>
	<stop  offset="0.8706" style="stop-color:#E64FCA"/>
	<stop  offset="0.9325" style="stop-color:#DC2EBE"/>
	<stop  offset="0.9879" style="stop-color:#D209B0"/>
	<stop  offset="1" style="stop-color:#CF00AC"/>
	<a:midPointStop  offset="0" style="stop-color:#FFA8EC"/>
	<a:midPointStop  offset="0.8606" style="stop-color:#FFA8EC"/>
	<a:midPointStop  offset="1" style="stop-color:#CF00AC"/>
</radialGradient>
<path fill="url(#SVGID_2_)" d="M10,41.362c-6.313,0-6.32-9.384-0.001-9.384C16.313,31.978,16.318,41.363,10,41.362z"/>
<radialGradient id="SVGID_3_" cx="12.5093" cy="31.6973" r="3.1584" gradientTransform="matrix(1 0 0 0.9906 -2.5099 5.272)" gradientUnits="userSpaceOnUse">
	<stop  offset="0" style="stop-color:#FFA8EC"/>
	<stop  offset="0.3809" style="stop-color:#FEA6EB"/>
	<stop  offset="0.5295" style="stop-color:#FC9FE9"/>
	<stop  offset="0.6376" style="stop-color:#F993E4"/>
	<stop  offset="0.7261" style="stop-color:#F482DD"/>
	<stop  offset="0.8025" style="stop-color:#EE6BD5"/>
	<stop  offset="0.8706" style="stop-color:#E64FCA"/>
	<stop  offset="0.9325" style="stop-color:#DC2EBE"/>
	<stop  offset="0.9879" style="stop-color:#D209B0"/>
	<stop  offset="1" style="stop-color:#CF00AC"/>
	<a:midPointStop  offset="0" style="stop-color:#FFA8EC"/>
	<a:midPointStop  offset="0.8606" style="stop-color:#FFA8EC"/>
	<a:midPointStop  offset="1" style="stop-color:#CF00AC"/>
</radialGradient>
<path fill="url(#SVGID_3_)" d="M10,39.799C5.79,39.8,5.786,33.542,10,33.542C14.208,33.542,14.213,39.799,10,39.799z"/>
<radialGradient id="SVGID_4_" cx="12.5098" cy="31.6973" r="1.5789" gradientTransform="matrix(1 0 0 0.9906 -2.5099 5.272)" gradientUnits="userSpaceOnUse">
	<stop  offset="0" style="stop-color:#FFA8EC"/>
	<stop  offset="0.3809" style="stop-color:#FEA6EB"/>
	<stop  offset="0.5295" style="stop-color:#FC9FE9"/>
	<stop  offset="0.6376" style="stop-color:#F993E4"/>
	<stop  offset="0.7261" style="stop-color:#F482DD"/>
	<stop  offset="0.8025" style="stop-color:#EE6BD5"/>
	<stop  offset="0.8706" style="stop-color:#E64FCA"/>
	<stop  offset="0.9325" style="stop-color:#DC2EBE"/>
	<stop  offset="0.9879" style="stop-color:#D209B0"/>
	<stop  offset="1" style="stop-color:#CF00AC"/>
	<a:midPointStop  offset="0" style="stop-color:#FFA8EC"/>
	<a:midPointStop  offset="0.8606" style="stop-color:#FFA8EC"/>
	<a:midPointStop  offset="1" style="stop-color:#CF00AC"/>
</radialGradient>
<path fill="url(#SVGID_4_)" d="M10,38.234C7.896,38.235,7.893,35.106,10,35.106C12.103,35.106,12.107,38.234,10,38.234z"/>
<path fill="#77B516" d="M5.252,44.025c-10.844-6.068,9.049-2.67,7.312-9.809c-1.749-7.173,17.173-2.168,14.06-10.459
	c-2.122-5.64,5.256-13.795,8.693-11.067c3.837,3.044,1.409-19.189,6.861-7.016C48.131,18.971,22.008,55.784,5.252,44.025z"/>
<radialGradient id="SVGID_5_" cx="31.5088" cy="16.6973" r="5.9995" gradientTransform="matrix(1 0 0 0.9906 -2.5099 5.272)" gradientUnits="userSpaceOnUse">
	<stop  offset="0" style="stop-color:#FFA8EC"/>
	<stop  offset="0.3809" style="stop-color:#FEA6EB"/>
	<stop  offset="0.5295" style="stop-color:#FC9FE9"/>
	<stop  offset="0.6376" style="stop-color:#F993E4"/>
	<stop  offset="0.7261" style="stop-color:#F482DD"/>
	<stop  offset="0.8025" style="stop-color:#EE6BD5"/>
	<stop  offset="0.8706" style="stop-color:#E64FCA"/>
	<stop  offset="0.9325" style="stop-color:#DC2EBE"/>
	<stop  offset="0.9879" style="stop-color:#D209B0"/>
	<stop  offset="1" style="stop-color:#CF00AC"/>
	<a:midPointStop  offset="0" style="stop-color:#FFA8EC"/>
	<a:midPointStop  offset="0.8606" style="stop-color:#FFA8EC"/>
	<a:midPointStop  offset="1" style="stop-color:#CF00AC"/>
</radialGradient>
<path fill="url(#SVGID_5_)" d="M29,27.754C21.004,27.755,20.996,15.869,29,15.869C36.996,15.868,37.003,27.755,29,27.754z"/>
<radialGradient id="SVGID_6_" cx="31.5088" cy="16.6973" r="4.7363" gradientTransform="matrix(1 0 0 0.9906 -2.5099 5.272)" gradientUnits="userSpaceOnUse">
	<stop  offset="0" style="stop-color:#FFA8EC"/>
	<stop  offset="0.3809" style="stop-color:#FEA6EB"/>
	<stop  offset="0.5295" style="stop-color:#FC9FE9"/>
	<stop  offset="0.6376" style="stop-color:#F993E4"/>
	<stop  offset="0.7261" style="stop-color:#F482DD"/>
	<stop  offset="0.8025" style="stop-color:#EE6BD5"/>
	<stop  offset="0.8706" style="stop-color:#E64FCA"/>
	<stop  offset="0.9325" style="stop-color:#DC2EBE"/>
	<stop  offset="0.9879" style="stop-color:#D209B0"/>
	<stop  offset="1" style="stop-color:#CF00AC"/>
	<a:midPointStop  offset="0" style="stop-color:#FFA8EC"/>
	<a:midPointStop  offset="0.8606" style="stop-color:#FFA8EC"/>
	<a:midPointStop  offset="1" style="stop-color:#CF00AC"/>
</radialGradient>
<path fill="url(#SVGID_6_)" d="M29,26.503c-6.313,0-6.318-9.383-0.001-9.384C35.313,17.12,35.317,26.502,29,26.503z"/>
<radialGradient id="SVGID_7_" cx="31.5088" cy="16.6973" r="3.1582" gradientTransform="matrix(1 0 0 0.9906 -2.5099 5.272)" gradientUnits="userSpaceOnUse">
	<stop  offset="0" style="stop-color:#FFA8EC"/>
	<stop  offset="0.3809" style="stop-color:#FEA6EB"/>
	<stop  offset="0.5295" style="stop-color:#FC9FE9"/>
	<stop  offset="0.6376" style="stop-color:#F993E4"/>
	<stop  offset="0.7261" style="stop-color:#F482DD"/>
	<stop  offset="0.8025" style="stop-color:#EE6BD5"/>
	<stop  offset="0.8706" style="stop-color:#E64FCA"/>
	<stop  offset="0.9325" style="stop-color:#DC2EBE"/>
	<stop  offset="0.9879" style="stop-color:#D209B0"/>
	<stop  offset="1" style="stop-color:#CF00AC"/>
	<a:midPointStop  offset="0" style="stop-color:#FFA8EC"/>
	<a:midPointStop  offset="0.8606" style="stop-color:#FFA8EC"/>
	<a:midPointStop  offset="1" style="stop-color:#CF00AC"/>
</radialGradient>
<path fill="url(#SVGID_7_)" d="M29,24.94c-4.21,0-4.213-6.257-0.001-6.257C33.209,18.683,33.212,24.94,29,24.94z"/>
<radialGradient id="SVGID_8_" cx="31.5098" cy="16.6973" r="1.5789" gradientTransform="matrix(1 0 0 0.9906 -2.5099 5.272)" gradientUnits="userSpaceOnUse">
	<stop  offset="0" style="stop-color:#FFA8EC"/>
	<stop  offset="0.3809" style="stop-color:#FEA6EB"/>
	<stop  offset="0.5295" style="stop-color:#FC9FE9"/>
	<stop  offset="0.6376" style="stop-color:#F993E4"/>
	<stop  offset="0.7261" style="stop-color:#F482DD"/>
	<stop  offset="0.8025" style="stop-color:#EE6BD5"/>
	<stop  offset="0.8706" style="stop-color:#E64FCA"/>
	<stop  offset="0.9325" style="stop-color:#DC2EBE"/>
	<stop  offset="0.9879" style="stop-color:#D209B0"/>
	<stop  offset="1" style="stop-color:#CF00AC"/>
	<a:midPointStop  offset="0" style="stop-color:#FFA8EC"/>
	<a:midPointStop  offset="0.8606" style="stop-color:#FFA8EC"/>
	<a:midPointStop  offset="1" style="stop-color:#CF00AC"/>
</radialGradient>
<path fill="url(#SVGID_8_)" d="M29,23.375c-2.104,0-2.105-3.129,0.001-3.128C31.104,20.248,31.107,23.376,29,23.375z"/>
<radialGradient id="SVGID_9_" cx="41.5088" cy="3.6968" r="6.0002" gradientTransform="matrix(1 0 0 0.9906 -2.5099 5.272)" gradientUnits="userSpaceOnUse">
	<stop  offset="0" style="stop-color:#FFA8EC"/>
	<stop  offset="0.3809" style="stop-color:#FEA6EB"/>
	<stop  offset="0.5295" style="stop-color:#FC9FE9"/>
	<stop  offset="0.6376" style="stop-color:#F993E4"/>
	<stop  offset="0.7261" style="stop-color:#F482DD"/>
	<stop  offset="0.8025" style="stop-color:#EE6BD5"/>
	<stop  offset="0.8706" style="stop-color:#E64FCA"/>
	<stop  offset="0.9325" style="stop-color:#DC2EBE"/>
	<stop  offset="0.9879" style="stop-color:#D209B0"/>
	<stop  offset="1" style="stop-color:#CF00AC"/>
	<a:midPointStop  offset="0" style="stop-color:#FFA8EC"/>
	<a:midPointStop  offset="0.8606" style="stop-color:#FFA8EC"/>
	<a:midPointStop  offset="1" style="stop-color:#CF00AC"/>
</radialGradient>
<path fill="url(#SVGID_9_)" d="M39,14.877c-7.997,0-8.003-11.887,0-11.888C46.996,2.99,47.004,14.878,39,14.877z"/>
<radialGradient id="SVGID_10_" cx="41.5088" cy="3.6968" r="4.7363" gradientTransform="matrix(1 0 0 0.9906 -2.5099 5.272)" gradientUnits="userSpaceOnUse">
	<stop  offset="0" style="stop-color:#FFA8EC"/>
	<stop  offset="0.3809" style="stop-color:#FEA6EB"/>
	<stop  offset="0.5295" style="stop-color:#FC9FE9"/>
	<stop  offset="0.6376" style="stop-color:#F993E4"/>
	<stop  offset="0.7261" style="stop-color:#F482DD"/>
	<stop  offset="0.8025" style="stop-color:#EE6BD5"/>
	<stop  offset="0.8706" style="stop-color:#E64FCA"/>
	<stop  offset="0.9325" style="stop-color:#DC2EBE"/>
	<stop  offset="0.9879" style="stop-color:#D209B0"/>
	<stop  offset="1" style="stop-color:#CF00AC"/>
	<a:midPointStop  offset="0" style="stop-color:#FFA8EC"/>
	<a:midPointStop  offset="0.8606" style="stop-color:#FFA8EC"/>
	<a:midPointStop  offset="1" style="stop-color:#CF00AC"/>
</radialGradient>
<path fill="url(#SVGID_10_)" d="M39,13.625c-6.313,0-6.318-9.384,0-9.384C45.313,4.242,45.318,13.625,39,13.625z"/>
<radialGradient id="SVGID_11_" cx="41.5088" cy="3.6968" r="3.1582" gradientTransform="matrix(1 0 0 0.9906 -2.5099 5.272)" gradientUnits="userSpaceOnUse">
	<stop  offset="0" style="stop-color:#FFA8EC"/>
	<stop  offset="0.3809" style="stop-color:#FEA6EB"/>
	<stop  offset="0.5295" style="stop-color:#FC9FE9"/>
	<stop  offset="0.6376" style="stop-color:#F993E4"/>
	<stop  offset="0.7261" style="stop-color:#F482DD"/>
	<stop  offset="0.8025" style="stop-color:#EE6BD5"/>
	<stop  offset="0.8706" style="stop-color:#E64FCA"/>
	<stop  offset="0.9325" style="stop-color:#DC2EBE"/>
	<stop  offset="0.9879" style="stop-color:#D209B0"/>
	<stop  offset="1" style="stop-color:#CF00AC"/>
	<a:midPointStop  offset="0" style="stop-color:#FFA8EC"/>
	<a:midPointStop  offset="0.8606" style="stop-color:#FFA8EC"/>
	<a:midPointStop  offset="1" style="stop-color:#CF00AC"/>
</radialGradient>
<path fill="url(#SVGID_11_)" d="M38.999,12.062c-4.208,0-4.212-6.257,0.001-6.257C43.209,5.805,43.213,12.062,38.999,12.062z"/>
<path fill="#014F27" d="M19.835,25.781c-6.003,10.967,9.935,19.034,15.931,8.067C41.766,22.88,16.123,14.682,19.835,25.781z"/>
<path fill="#B8E866" d="M21.352,26.547c-4.792,8.765,8.283,15.381,13.074,6.621C39.219,24.403,18.037,16.641,21.352,26.547z"/>
<path fill="#014F27" d="M40.996,6.317c-12.473,1.448-9.633,19.008,2.839,17.555C56.309,22.42,47.841-3.083,40.996,6.317z"/>
<path fill="#B8E866" d="M41.268,7.987c-9.967,1.159-7.636,15.57,2.329,14.406C53.563,21.233,47.377-0.405,41.268,7.987z"/>
<path fill="#E81C27" d="M36.154,21.811l8.073-10.426C36.868,5.506,28.793,15.932,36.154,21.811z"/>
<path fill="#C21413" d="M36.428,13.484c5.118,3.612,3.814,4.798-0.699,1.445c-0.471-0.35-1.179,3.268,0.941,5.823l6.686-8.257
	C39.167,9.441,35.939,13.14,36.428,13.484z"/>
<path fill="#F79886" d="M38.049,13.125c-0.404,0.362,0.658,0.784,0.771,0.73C38.934,13.804,38.475,12.739,38.049,13.125z"/>
<path fill="#F79886" d="M39.205,12.362c-0.525,0.142,0.223,0.996,0.347,1.002S39.763,12.214,39.205,12.362z"/>
<path fill="#F79886" d="M40.73,12.232c-0.531-0.121-0.275,0.983-0.17,1.047C40.669,13.341,41.292,12.361,40.73,12.232z"/>
<path fill="#E81C27" d="M25.817,35.781l9.482-9.19C28.853,19.739,19.368,28.93,25.817,35.781z"/>
<path fill="#C21413" d="M27.276,27.575c4.553,4.294,3.091,5.286-0.898,1.333c-0.416-0.411-1.634,3.07,0.1,5.898l7.798-7.239
	C30.566,23.957,26.842,27.165,27.276,27.575z"/>
<path fill="#E81C27" d="M14.121,46.363l6.989-11.204C13.224,30.026,6.235,41.232,14.121,46.363z"/>
<path fill="#C21413" d="M15.141,44.74l4.97-7.967C14.653,33.222,9.68,41.188,15.141,44.74z"/>
<path fill="#89CC14" d="M47.051,9.458c-6.205-10.959-2.396,9.07-9.343,6.853c-6.978-2.233-1.735,17.398-9.827,13.7
	c-5.505-2.517-13.242,4.506-10.533,8.185c3.031,4.108-18.545,0.243-6.645,6.565C23.702,51.67,53.173,20.633,47.051,9.458z"/>
<linearGradient id="SVGID_12_" gradientUnits="userSpaceOnUse" x1="93.5" y1="496.9814" x2="93.5" y2="448.4121" gradientTransform="matrix(0.891 -0.454 0.454 0.891 -264.2898 -341.2926)">
	<stop  offset="0" style="stop-color:#D6A57C"/>
	<stop  offset="0.0566" style="stop-color:#DAA981"/>
	<stop  offset="0.4088" style="stop-color:#EEBF99"/>
	<stop  offset="0.7328" style="stop-color:#FBCCA8"/>
	<stop  offset="1" style="stop-color:#FFD1AD"/>
	<a:midPointStop  offset="0" style="stop-color:#D6A57C"/>
	<a:midPointStop  offset="0.3333" style="stop-color:#D6A57C"/>
	<a:midPointStop  offset="1" style="stop-color:#FFD1AD"/>
</linearGradient>
<path fill="url(#SVGID_12_)" d="M46.328,3.702C46.742,29.271,6.877,47.758,5.194,48.778c0.512,0.973,3.616,3.969,5,5.099
	c3.316,2.708,5.579,3.404,7.922,4.608c3.601,1.851,5.784,1.97,9.266,2.827c5.73,1.411,9.981,0.514,14.163-1.446
	c4.708-2.207,6.936-1.645,11.705-6.369c5.163-5.113,4.746-6.601,7.338-11.357c1.284-2.355,1.425-6.725,1.412-9.478
	c-0.014-3.274-0.834-6.379-2.046-9.019c-0.97-2.113-1.686-4.909-2.344-6.272c-1.314-2.723-4.344-7.182-6.519-9.689
	C48.757,4.989,46.379,3.753,46.328,3.702z"/>
<path opacity="0.3" fill="#CF8A54" d="M19.092,49.546c0.493,3.292,3.758,3.237,5.686,2.282
	C26.743,50.859,18.75,47.253,19.092,49.546z"/>
<path opacity="0.3" fill="#CF8A54" d="M31.08,54.369c2.31,1.619,3.288-0.27,3.259-1.915C34.306,50.779,29.466,53.239,31.08,54.369z"
	/>
<path opacity="0.3" fill="#CF8A54" d="M29.921,42.529c-2.524,0.158-1.588,2.451-0.293,3.852
	C30.955,47.809,31.688,42.421,29.921,42.529z"/>
<path opacity="0.3" fill="#CF8A54" d="M40.818,31.537c0.488,3.286,3.756,3.234,5.682,2.278
	C48.463,32.841,40.474,29.237,40.818,31.537z"/>
<path opacity="0.3" fill="#CF8A54" d="M48.074,48.359c2.309,1.616,3.281-0.273,3.254-1.919
	C51.297,44.768,46.459,47.229,48.074,48.359z"/>
<path opacity="0.3" fill="#CF8A54" d="M41.801,41.25c-2.523,0.159-1.588,2.449-0.293,3.854
	C42.832,46.536,43.564,41.142,41.801,41.25z"/>
<path opacity="0.3" fill="#CF8A54" d="M47.205,21.198c0.316,2.133,2.434,2.094,3.684,1.477
	C52.163,22.046,46.98,19.707,47.205,21.198z"/>
<path opacity="0.3" fill="#CF8A54" d="M55.799,29.495c1.495,1.046,2.127-0.179,2.109-1.246
	C57.886,27.159,54.75,28.761,55.799,29.495z"/>
<path opacity="0.3" fill="#CF8A54" d="M54.926,19.162c-1.637,0.102-1.029,1.589-0.188,2.502
	C55.598,22.587,56.074,19.09,54.926,19.162z"/>
<path fill="#FFE1BD" d="M46.328,3.702c-0.357-0.05-0.463,1.148-0.388,1.54c0.521,2.652-1.7,4.1-1.712,6.708
	c-0.014,2.771-2.715,4.165-2.986,6.935c-0.25,2.548-3.951,3.326-4.142,5.603c-0.148,1.798-2.584,1.576-3.125,2.786
	c-2.362,5.295-5.082,3.417-6.03,6.051c-0.742,2.06-4.491,2.789-5.897,4.911c-0.914,1.378-5.4,2.766-6.321,4.252
	c-0.891,1.435-3.47,1.401-4.547,2.631c-0.894,1.021-2.326,1.427-3.547,2.032c0,0-2.635,0.958-2.439,1.628
	c1.027-0.014,2.09-0.439,3.299-1.059c2.398-1.23,3.491-3.147,6.688-3.716c2.179-0.387,2.948-2.907,5.03-3.466
	c2.221-0.597,3.094-2.819,4.859-3.515c2.605-1.027,3.359-3.448,5.478-4.252c2.708-1.026,3.315-3.863,5.319-5.267
	c2.234-1.565,2.465-3.635,4.187-4.706c2.216-1.378,1.451-3.375,2.673-4.689c1.604-1.727,1.13-4.136,2.469-5.463
	c1.127-1.119,0.527-3.34,1.25-4.412C47.296,6.972,47.249,4.926,46.328,3.702z"/>
<path fill="#F79886" d="M14.429,39.23c-0.19,0.505,0.948,0.402,1.025,0.304C15.532,39.438,14.634,38.694,14.429,39.23z"/>
<path fill="#F79886" d="M15.112,38.03c-0.404,0.363,0.654,0.787,0.769,0.735C15.993,38.715,15.54,37.647,15.112,38.03z"/>
<path fill="#F79886" d="M16.41,37.229c-0.528,0.131,0.205,0.998,0.33,1.007C16.864,38.242,16.97,37.089,16.41,37.229z"/>
<path fill="#F79886" d="M15.993,27.342c-0.375,0.392,0.713,0.738,0.822,0.678C16.923,27.961,16.393,26.929,15.993,27.342z"/>
<path fill="#F79886" d="M17.093,26.504c-0.516,0.176,0.294,0.978,0.417,0.974C17.635,27.477,17.641,26.317,17.093,26.504z"/>
<path fill="#F79886" d="M18.606,26.269c-0.539-0.084-0.205,0.999-0.094,1.055C18.624,27.377,19.177,26.359,18.606,26.269z"/>
<path fill="#F79886" d="M28.932,27.445c-0.451,0.304,0.541,0.869,0.659,0.834C29.711,28.244,29.41,27.124,28.932,27.445z"/>
<path fill="#F79886" d="M30.186,26.855c-0.541,0.063,0.077,1.016,0.2,1.039S30.76,26.786,30.186,26.855z"/>
<path fill="#F79886" d="M31.715,26.939c-0.51-0.194-0.415,0.935-0.316,1.011C31.495,28.028,32.254,27.145,31.715,26.939z"/>
</svg>
