<?xml version="1.0" encoding="utf-8"?>
<!-- Generator: Adobe Illustrator 15.0.0, SVG Export Plug-In . SVG Version: 6.00 Build 0)  -->
<!DOCTYPE svg PUBLIC "-//W3C//DTD SVG 1.1//EN" "http://www.w3.org/Graphics/SVG/1.1/DTD/svg11.dtd" [
	<!ENTITY ns_flows "http://ns.adobe.com/Flows/1.0/">
	<!ENTITY ns_extend "http://ns.adobe.com/Extensibility/1.0/">
	<!ENTITY ns_ai "http://ns.adobe.com/AdobeIllustrator/10.0/">
	<!ENTITY ns_graphs "http://ns.adobe.com/Graphs/1.0/">
]>
<svg version="1.1" id="Layer_1" xmlns:x="&ns_extend;" xmlns:i="&ns_ai;" xmlns:graph="&ns_graphs;"
	 xmlns="http://www.w3.org/2000/svg" xmlns:xlink="http://www.w3.org/1999/xlink" xmlns:a="http://ns.adobe.com/AdobeSVGViewerExtensions/3.0/"
	 x="0px" y="0px" width="64px" height="64px" viewBox="0 0 64 64" enable-background="new 0 0 64 64" xml:space="preserve">
<path fill="#A87854" d="M28.045,2.098c7.617-0.944,17.757,5.057,23.041,10.705C45.088,7.669,35.559,3.069,28.045,2.098
	C29.136,1.963,30.225,2.379,28.045,2.098z"/>
<path fill="#A8714A" d="M17.627,7.401c2.645,7.028,13.229,11.056,13.879,18.923C29.145,19.009,18.684,15.361,17.627,7.401
	C17.977,8.328,17.76,8.396,17.627,7.401z"/>
<path fill="#8A5D3D" d="M8.398,49.65c-1.577-6.902-6.584-14.504-6.393-21.914C3.383,35.38,8.19,41.737,8.398,49.65
	C7.542,45.905,8.347,47.732,8.398,49.65z"/>
<path fill="#785136" d="M13.732,39.467c-2.41-6.038-8.593-10.65-9.729-17.1C6.727,28.649,12.67,32.3,13.732,39.467
	C13.115,37.92,13.489,37.82,13.732,39.467z"/>
<path fill="#785136" d="M10.368,10.961c1.5,8.615,9.178,13.586,14.525,19.682C18.391,26.886,10.114,19.028,10.368,10.961
	C10.729,13.031,10.334,12.014,10.368,10.961z"/>
<path fill="#785136" d="M21.006,4.159c10.512,1.776,13.743,8.62,18.899,16.763C33.37,14.056,30.686,7.757,21.006,4.159
	C23.168,4.525,23.06,4.922,21.006,4.159z"/>
<path fill="#8A5D3D" d="M20.045,28.675c-3.871-2.485-11.352-8.952-11.9-14.538C10.125,19.684,16.163,24.471,20.045,28.675
	C17.354,26.946,20.045,28.675,20.045,28.675z"/>
<linearGradient id="SVGID_1_" gradientUnits="userSpaceOnUse" x1="77.4229" y1="45.9521" x2="82.6735" y2="6.8221" gradientTransform="matrix(1 0 0 1 -45.7588 14.0073)">
	<stop  offset="0" style="stop-color:#5E3C2C"/>
	<stop  offset="0.1158" style="stop-color:#6A4632"/>
	<stop  offset="0.3511" style="stop-color:#7D543A"/>
	<stop  offset="0.5941" style="stop-color:#885D3F"/>
	<stop  offset="0.8545" style="stop-color:#8C6041"/>
	<a:midPointStop  offset="0" style="stop-color:#5E3C2C"/>
	<a:midPointStop  offset="0.2788" style="stop-color:#5E3C2C"/>
	<a:midPointStop  offset="0.8545" style="stop-color:#8C6041"/>
</linearGradient>
<path fill="url(#SVGID_1_)" d="M48.425,6.359C84.261,41.009,41.796,83.83,5.961,49.177L48.425,6.359z"/>
<path fill="#45332C" d="M48.489,6.432c-5.61-6.289-16.788-6.904-31.254,4.892c-0.53,0.433-1.299,3.372-1.585,3.679
	c-0.205,0.175-3.359,1.176-3.636,1.493C2.445,27.401-1.158,39.952,5.157,48.271c4.053,5.468,17.234,5.431,27.285-0.67
	c1.122-0.679,1.452-4.449,1.452-4.449s3.682-0.456,4.125-0.706c4.129-2.323,1.527-8.687,8.979-14.926
	c1.308-1.096,0.046-5.866,0.046-5.866s2.412,0.335,2.74-0.288C52.159,16.852,52.26,10.655,48.489,6.432z"/>
<path fill="#FFFFFF" d="M47.976,20.797c2.254-4.353,2.422-10.271-1.027-14.234c-5.129-5.91-15.483-6.303-29.028,5.205
	c-0.5,0.422-1.241,3.24-1.516,3.542c-0.191,0.168-3.123,1.178-3.389,1.484C4.02,27.369,0.539,39.416,6.293,47.248
	c3.696,5.149,15.918,4.885,25.305-1.108c1.049-0.668,1.396-4.273,1.396-4.273s3.42-0.497,3.833-0.744
	c3.851-2.288,1.513-8.319,8.493-14.403c1.225-1.068,0.113-5.601,0.113-5.601S47.667,21.396,47.976,20.797z"/>
<linearGradient id="SVGID_2_" gradientUnits="userSpaceOnUse" x1="6.813" y1="31.6816" x2="-4.7465" y2="15.1076" gradientTransform="matrix(0.9297 -0.3684 0.3684 0.9297 18.7062 6.8052)">
	<stop  offset="0" style="stop-color:#A7AEB3"/>
	<stop  offset="0.0181" style="stop-color:#AAB1B6"/>
	<stop  offset="0.2168" style="stop-color:#C4CACF"/>
	<stop  offset="0.4204" style="stop-color:#D7DCE1"/>
	<stop  offset="0.63" style="stop-color:#E2E7EB"/>
	<stop  offset="0.8545" style="stop-color:#E6EBEF"/>
	<a:midPointStop  offset="0" style="stop-color:#A7AEB3"/>
	<a:midPointStop  offset="0.2788" style="stop-color:#A7AEB3"/>
	<a:midPointStop  offset="0.8545" style="stop-color:#E6EBEF"/>
</linearGradient>
<path fill="url(#SVGID_2_)" d="M43.275,20.715c1.934-3.798,2.204-8.888-0.51-12.209c-4.04-4.952-12.458-5.029-23.75,5.204
	c-0.414,0.376-1.086,2.816-1.312,3.083c-0.162,0.147-2.571,1.091-2.792,1.362C7.346,27.473,4.236,37.915,8.74,44.505
	c2.888,4.334,12.841,3.8,20.619-1.592c0.87-0.598,1.236-3.705,1.236-3.705s2.794-0.515,3.137-0.738
	c3.186-2.064,1.424-7.189,7.243-12.595c1.021-0.95,0.224-4.822,0.224-4.822S43.009,21.239,43.275,20.715z"/>
<path fill="#A8714A" d="M61.991,35.813C60.552,23.478,54.87,13.792,46.198,5.1C55.866,12.314,62.265,23.619,61.991,35.813
	C61.647,32.859,62.024,34.326,61.991,35.813z"/>
<path fill="#A87854" d="M50.364,14.137c6.516,4.055,10.627,15.098,11.184,22.812C60.112,29.186,55.595,19.616,50.364,14.137
	C51.298,14.718,51.882,15.726,50.364,14.137z"/>
<path fill="#A87854" d="M61.458,39.937c-3.492-7.608-7.709-14.789-12.168-21.862C54.89,23.865,59.647,32.056,61.458,39.937
	C61.019,38.979,60.985,37.884,61.458,39.937z"/>
<path fill="#A87854" d="M47.229,19.566c4.758,2.293,11.088,16.612,13.354,20.779C56.095,35.084,52.304,23.731,47.229,19.566
	C48.175,20.021,48.86,20.905,47.229,19.566z"/>
<path fill="#A8714A" d="M60.556,43.251c-4.158-6.425-8.961-12.328-14.404-17.708C52.628,30.083,57.431,35.986,60.556,43.251
	C58.331,40.112,59.015,39.723,60.556,43.251z"/>
<path fill="#A8714A" d="M45.423,26.106c2.645,7.028,13.229,11.056,13.879,18.922C56.94,37.714,46.479,34.066,45.423,26.106
	C45.772,27.033,45.556,27.1,45.423,26.106z"/>
<path fill="#A87854" d="M58.808,47.29c-4.916-4.372-7.223-16.709-14.82-16.705C51.698,28.775,55.353,42.72,58.808,47.29
	C57.337,45.981,57.62,45.72,58.808,47.29z"/>
<path fill="#A8714A" d="M41.749,29.642c2.791,7.321,15.555,9.795,15.084,18.502C55.55,39.429,43.267,38.38,41.749,29.642
	C42.483,31.57,42.103,31.683,41.749,29.642z"/>
<path fill="#A8714A" d="M55.997,51.55c-7.088-7.946-6.143-8.056-16.848-15.737C49.593,40.865,50.778,42.173,55.997,51.55
	C55.323,50.795,55.007,49.771,55.997,51.55z"/>
<path fill="#A8714A" d="M54.536,53.153c-4.248-7.828-9.463-9.793-17.518-12.492C45.374,41.667,51.915,44.517,54.536,53.153
	C53.626,51.476,53.981,51.329,54.536,53.153z"/>
<path fill="#A8714A" d="M39.149,61.454c-11.083-1.67-23.991-3.736-31.284-13.25C16.604,56.638,28.049,58.114,39.149,61.454
	C36.288,61.023,36.378,60.62,39.149,61.454z"/>
<path fill="#A8714A" d="M34.708,61.9c-9.096,0.839-18.202-3.771-25.84-8.216C17.5,56.624,25.452,61.003,34.708,61.9
	C33.569,62.005,32.432,61.68,34.708,61.9z"/>
<path fill="#785136" d="M42.487,60.652c-8.086-6.167-22.87,1.09-27.565-9.503C21.272,61.024,34.827,52.589,42.487,60.652
	C40.452,59.101,41.606,59.726,42.487,60.652z"/>
<path fill="#A8714A" d="M45.716,59.447c-8.045-1.128-13.163-4.987-18.043-11.716C32.573,53.354,38.587,57.259,45.716,59.447
	C43.894,59.192,42.259,58.188,45.716,59.447z"/>
<path fill="#A8714A" d="M29.786,45.965c6.573,2.729,12.043,6.904,16.413,12.522C41.021,53.929,35.55,49.755,29.786,45.965
	C32.911,47.488,32.497,48.157,29.786,45.965z"/>
<path fill="#A8714A" d="M48.813,56.894c-3.986-5.957-9.105-10.69-15.355-14.2C40.612,45.226,45.731,49.958,48.813,56.894
	C46.808,53.943,47.501,53.563,48.813,56.894z"/>
<path fill="#A87854" d="M52.849,54.84c-4.203-3.882-8.99-9.92-14.537-11.899C43.897,43.487,50.364,50.97,52.849,54.84
	C52.849,54.84,51.12,52.147,52.849,54.84z"/>
<path fill="#8A5D3D" d="M35.056,61.798C22.852,62.097,11.643,56.505,4.342,46.7C13.155,55.482,22.661,60.411,35.056,61.798
	C33.581,61.833,32.12,61.47,35.056,61.798z"/>
<path fill="#8A5D3D" d="M16.172,50.147c5.277,5.219,12.879,9.748,20.157,11.49C28.961,60.987,20.161,56.466,16.172,50.147
	C17.581,51.54,17.229,51.821,16.172,50.147z"/>
<path fill="#8A5D3D" d="M39.149,61.2c-6.135-3.535-15.114-5.031-20.418-10.209C25.274,55.177,33.204,55.973,39.149,61.2
	C35.821,59.282,37.708,59.933,39.149,61.2z"/>
<path fill="#A87854" d="M24.36,50.317c5.791,1.91,10.715,6.897,15.229,10.768C33.968,58.298,29.608,53.649,24.36,50.317
	C25.856,50.812,25.68,51.155,24.36,50.317z"/>
<path fill="#785136" d="M40.923,60.652c-4.354-4.827-11.752-7.011-15.053-12.667C30.602,52.935,37.442,54.298,40.923,60.652
	C39.808,59.415,40.124,59.192,40.923,60.652z"/>
<path fill="#8A5D3D" d="M27.047,46.218c7.645,1.307,10.268,11.322,17.225,13.586C36.866,59.29,33.597,48.722,27.047,46.218
	C28.917,46.536,27.917,46.55,27.047,46.218z"/>
<path fill="#8A5D3D" d="M46.151,58.7c-7.689-2.154-13.131-6.891-16.323-14.21C33.897,50.805,39.337,55.542,46.151,58.7
	C42.472,58.03,42.722,57.274,46.151,58.7z"/>
<path fill="#785136" d="M28.885,42.251c8.842,1.471,10.069,14.434,18.979,15.793C38.913,58.491,36.415,45.239,28.885,42.251
	C29.936,42.425,29.872,42.642,28.885,42.251z"/>
<path fill="#8A5D3D" d="M49.562,57.434c-8.15-2.574-10.047-9.653-14.506-15.982C40.749,46.713,42.458,53.413,49.562,57.434
	C47.8,56.878,47.952,56.523,49.562,57.434z"/>
<path fill="#785136" d="M50.794,56.499c-9.139-5.059-8.514-8.445-11.996-16.563C43.593,45.96,43.993,50.708,50.794,56.499
	C49.228,55.632,49.431,55.337,50.794,56.499z"/>
<path fill="#8A5D3D" d="M52.397,55.038c-9.072-2.703-11.465-12.01-12.492-20.388C42.702,42.872,43.954,50.508,52.397,55.038
	C51.386,54.737,50.544,54.044,52.397,55.038z"/>
<path fill="#785136" d="M41.378,31.409c1.5,8.616,9.178,13.586,14.525,19.682C49.401,47.333,41.124,39.476,41.378,31.409
	C41.739,33.479,41.345,32.461,41.378,31.409z"/>
<path fill="#785136" d="M60.698,39.651c-7.488-9.284-5.129-22.999-13.25-31.282C56.235,15.107,55.222,30.291,60.698,39.651
	C59.792,38.527,59.241,37.161,60.698,39.651z"/>
<path fill="#785136" d="M61.144,35.21c-0.896-9.255-5.275-17.208-8.217-25.84C57.374,17.005,61.987,26.118,61.144,35.21
	C60.923,32.934,61.249,34.071,61.144,35.21z"/>
<path fill="#785136" d="M48.214,20.802c8.891,5.881,9.072,13.448,10.488,22.981C55.509,34.859,55.606,28.012,48.214,20.802
	C50.042,22.012,49.782,22.332,48.214,20.802z"/>
<path fill="#785136" d="M58.69,46.218c-3.021-8.796-7.17-16.921-13.482-23.799C52.616,27.85,57.313,37.299,58.69,46.218
	C57.937,44.022,58.337,43.921,58.69,46.218z"/>
<path fill="#785136" d="M45.208,30.289c3.789,5.765,7.963,11.234,12.521,16.411C52.112,42.331,47.938,36.861,45.208,30.289
	C47.401,33.001,46.731,33.414,45.208,30.289z"/>
<path fill="#785136" d="M57.464,48.65c-6.936-3.083-11.668-8.201-14.199-15.356C46.774,39.544,51.507,44.663,57.464,48.65
	C54.134,47.337,54.515,46.645,57.464,48.65z"/>
<path fill="#8A5D3D" d="M54.083,53.352c-3.871-2.485-11.352-8.952-11.9-14.537C44.163,44.36,50.2,49.147,54.083,53.352
	C51.392,51.623,54.083,53.352,54.083,53.352z"/>
</svg>
