<?xml version="1.0" encoding="utf-8"?>
<!-- Generator: Adobe Illustrator 15.0.0, SVG Export Plug-In . SVG Version: 6.00 Build 0)  -->
<!DOCTYPE svg PUBLIC "-//W3C//DTD SVG 1.1//EN" "http://www.w3.org/Graphics/SVG/1.1/DTD/svg11.dtd" [
	<!ENTITY ns_flows "http://ns.adobe.com/Flows/1.0/">
	<!ENTITY ns_extend "http://ns.adobe.com/Extensibility/1.0/">
	<!ENTITY ns_ai "http://ns.adobe.com/AdobeIllustrator/10.0/">
	<!ENTITY ns_graphs "http://ns.adobe.com/Graphs/1.0/">
]>
<svg version="1.1" id="Layer_1" xmlns:x="&ns_extend;" xmlns:i="&ns_ai;" xmlns:graph="&ns_graphs;"
	 xmlns="http://www.w3.org/2000/svg" xmlns:xlink="http://www.w3.org/1999/xlink" xmlns:a="http://ns.adobe.com/AdobeSVGViewerExtensions/3.0/"
	 x="0px" y="0px" width="64px" height="64px" viewBox="0 0 64 64" enable-background="new 0 0 64 64" xml:space="preserve">
<path fill="#AB5C10" d="M2.537,44.977v5.463c0,1.713,1.388,3.322,5.944,2.354c4.557-0.963,16.051,10.391,21.5,9.105
	c5.447-1.393,9.41-3.748,28.629-6.105c2.576-0.32,3.369-1.178,3.369-2.031c0-0.754,0-5.359,0-5.359L2.537,44.977z"/>
<path fill="#D99025" d="M2.537,44.977c0,1.715,1.388,3.318,5.944,2.357c4.557-0.963,16.051,10.389,21.5,9.102
	c5.447-1.391,9.41-3.75,28.629-6.104c6.736-0.857,2.279-5.035-3.367-6.105C51.478,43.584,2.537,34.141,2.537,44.977z"/>
<path fill="#92C932" d="M58.905,42.707C52.042,28.976-11.954,34.9,7.062,45.52c-1.734,8.443,8.461,1.619,9.137,4.717
	c0.674,3.096,4.691,6.902,6.781,3.789c2.191-3.125,5.605,6.078,9.328,1.215c4.967-6.49,8.783,3.211,10.828-2.416
	c3.02-8.314,6.23,3.824,7.965-3.242c0.846-3.445,5.854,4.508,6.287-2.016C57.524,45.531,65.503,47.328,58.905,42.707z"/>
<path fill="#E03636" d="M60.845,40.021c-4.746-6.418-24.373,4.326-24.373,4.326S58.239,51.938,60.845,40.021z"/>
<path fill="#E03636" d="M45.317,46.016c-0.049-1.285,0.484-2.912-8.031-2.686c-8.518,0.227-28.285-3.5-28.285-3.5
	S9.54,54.488,30.556,51.738C41.015,50.367,45.423,48.906,45.317,46.016z"/>
<path fill="#F46C60" d="M25.044,52.813c-14.234,0-16.146-10.406-16.643-13.174c0,0,2.16,8.887,11.119,11.246
	c14.459,3.807,18.914-8.705,26.852-5.684C48.747,46.105,44.774,52.813,25.044,52.813z M44.144,45.955
	c-3.633-0.113-9.48,4.23-11.824,5.178C37.247,51.51,48.872,46.105,44.144,45.955z"/>
<path fill="#F46C60" d="M46.354,39.072c-0.684,9.525-41.383,10.545-40.699,1.023C6.339,30.566,47.038,29.544,46.354,39.072z"/>
<path fill="#E03636" d="M46.001,37.734c0.336,9.123-39.658,10.689-39.993,1.568C5.86,35.285,45.854,33.719,46.001,37.734z"/>
<path fill="#F46C60" d="M45.673,46.557L45.673,46.557L45.673,46.557l0.26-1.08c0,0,4.893,1.467,7.295-1.141
	c6.816-7.406,7.967-4.51,7.801-3.523C59.937,47.375,49.882,47.994,45.673,46.557z M52.993,46.057c4.232-0.809,7.125-3.6,7.049-5.1
	C59.952,39.129,55.278,44.355,52.993,46.057z"/>
<path fill="#FFE12C" d="M2,39.615l0.718,0.945c3.283-1.184,18.16-5.564,31.496,10.537c0,0,11.9-13.615,27.289-11.84v-1.184
	C55.909,22.537,5.692,13.796,2,39.615z"/>
<path opacity="0.3" fill="#1A1626" d="M4.177,34.205c0,0-0.18,2.572,4.377,1.607c4.557-0.963,17.732,13,22.34,9.697
	c7.504-5.383,19.326-5.641,27.26-8.246C33.247,25.152,4.177,34.205,4.177,34.205z"/>
<path fill="#AB5C10" d="M2.537,26.39v5.461c0,1.713,1.388,3.321,5.944,2.356s16.051,10.389,21.5,9.102
	c5.447-1.391,9.41-3.746,28.629-6.102c2.477-0.322,3.369-1.072,3.369-1.928v-5.463L2.537,26.39z"/>
<path fill="#F5CFA0" d="M2.537,26.281c0,1.715,1.388,3.32,5.944,2.357c4.557-0.967,16.051,10.387,21.5,9.104
	c5.447-1.393,9.41-3.748,28.629-6.104c6.736-0.857,2.279-5.035-3.367-6.105c-3.766-0.643-13.375-2.785-14.367-5.252
	c-0.988-2.461-14.266-3.104-22.783-1.07C9.474,21.25,2.537,23.498,2.537,26.281z"/>
<path fill="#FFE8BB" d="M3.357,26.258c0,1.645,1.171,2.644,5.646,1.721c4.476-0.926,15.773,10.197,21.125,8.966
	c5.35-1.334,8.7-3.453,27.574-5.708c6.406-0.796,2.283-4.396-3.064-5.385c-3.698-0.616-13.307-2.824-14.281-5.188
	c-0.971-2.357-13.603-2.847-21.969-0.906C9.925,21.72,3.357,23.592,3.357,26.258z"/>
<path fill="#FFEDCC" d="M8.853,24.233c0.992,0,0.992,1.356,0,1.356C7.862,25.589,7.862,24.233,8.853,24.233z"/>
<path fill="#FFEDCC" d="M16.472,25.137c1.322,0,1.322,1.811,0,1.811S15.149,25.137,16.472,25.137z"/>
<path fill="#FFEDCC" d="M21.116,21.17c0.992,0,0.992,1.356,0,1.356C20.126,22.527,20.126,21.17,21.116,21.17z"/>
<path fill="#FFEDCC" d="M27.161,23.897c0.99,0,0.99,1.356,0,1.356C26.169,25.253,26.169,23.897,27.161,23.897z"/>
<path fill="#FFEDCC" d="M37.653,25.253c0.992,0,0.992,1.358,0,1.358C36.663,26.612,36.663,25.253,37.653,25.253z"/>
<path fill="#FFEDCC" d="M34.421,20.67c0.992,0,0.992,1.356,0,1.356C33.431,22.027,33.431,20.67,34.421,20.67z"/>
<path fill="#FFEDCC" d="M55.741,27.835c0.99,0,0.99,1.358,0,1.358C54.749,29.194,54.749,27.835,55.741,27.835z"/>
<path fill="#FFEDCC" d="M51.384,29.254c0.992,0,0.992,1.358,0,1.358C50.394,30.613,50.394,29.254,51.384,29.254z"/>
<path fill="#FFEDCC" d="M46.243,25.59c0.992,0,0.992,1.357,0,1.357C45.253,26.948,45.253,25.59,46.243,25.59z"/>
<path fill="#FFEDCC" d="M33.249,30.159c1.32,0,1.32,1.811,0,1.811S31.929,30.159,33.249,30.159z"/>
<path fill="#FFEDCC" d="M43.153,29.254c1.322,0,1.322,1.81,0,1.81S41.831,29.254,43.153,29.254z"/>
<path fill="#FFEDCC" d="M23.595,29.254c1.322,0,1.322,1.81,0,1.81S22.272,29.254,23.595,29.254z"/>
</svg>
