<?xml version="1.0" encoding="utf-8"?>
<!-- Generator: Adobe Illustrator 15.0.0, SVG Export Plug-In . SVG Version: 6.00 Build 0)  -->
<!DOCTYPE svg PUBLIC "-//W3C//DTD SVG 1.1//EN" "http://www.w3.org/Graphics/SVG/1.1/DTD/svg11.dtd">
<svg version="1.1" id="Layer_1" xmlns="http://www.w3.org/2000/svg" xmlns:xlink="http://www.w3.org/1999/xlink" x="0px" y="0px"
	 width="64px" height="64px" viewBox="0 0 64 64" enable-background="new 0 0 64 64" xml:space="preserve">
<path fill="#529320" d="M4.061,58.239c4.973-9.198,38.13-34.699,28.045-46.907C28.651,7.15,25.417-3.38,18.454,5.392
	c-2.604,3.276-13.46,0.773-7.822,12.59c2.85,5.978-10.785,2.608-3.893,14.732C9.696,37.914-2.732,41.152,4.061,58.239z"/>
<path fill="#7AB51D" d="M4.303,59.5c3.857-8.347,33.865-42.166,27.205-47.084c-4.11-3.038-4.557-10.061-7.945-8.41
	c-5.634,2.748-2.137,5.118-6.974,4.778c-4.506-0.317,0.898,2.883-4.514,3.539c-4.475,0.542,2.535,8.408-1.234,10.378
	c-5.277,2.761-0.796,3.565-4.609,5.609c-2.315,1.238,5.137,5.246,1.997,8.199c-3.17,2.98,0.894,3.497-2.716,6.039
	c-4.188,2.945,2.13,2.089-1.525,6.221C2.644,50.294,3.848,58.616,4.303,59.5z"/>
<path fill="#E5EFCD" d="M7.131,59.262c6.873-23.142,2.174-28.01,17.217-51.036C5.497,30.529,12.238,35.787,3.222,56.421
	C0.902,59.284,8.069,61.83,7.131,59.262z"/>
<path fill="#529320" d="M58.765,17.055c2.808-10.884-7.927-7.686-14.031-10.166c-11.164-4.538-4.774,4.926-12.537,6.098
	c-12.531,1.889-16.846,31.992-13.762,35.051c31.04-2.854,25.732-17.466,34.375-17.487C69.897,30.507,57.715,21.116,58.765,17.055z"
	/>
<path fill="#7AB51D" d="M26.531,38.997c6.721,4.34,24.617-0.368,22.767-6.794c-1.32-4.59,12.937-1.449,9.527-6.058
	c-4.121-5.571,3.937-1.813-0.379-6.046c-4.632-4.547,0.889-2.256-1.287-9.022c-1.307-4.066-10.163,0.561-15.644-3.795
	c-4.825-3.834-2.921,5.966-4.915,5.581c-6.37-1.238-1.91,4.887-6.967,4.042C24.346,16.021,17.711,30.744,26.531,38.997z"/>
<path fill="#A3C86B" d="M26.412,37.01l3.007,1.808c5.124-8.648,8.155-14.627,24.15-24.556C34.503,22.855,31.898,28.994,26.412,37.01
	z"/>
<path fill="#529320" d="M4.723,59.437c8.991-5.807-1.439-17.941,11.381-16.873c9.01,0.752,0.615-9.096,12.722-6.221
	c7.849,1.862,0.814-7.547,11.396-6.089c6.557,0.901,7.078-7.784,12.979-1.745c3.224,3.302,13.185,3.347,4.877,10.985
	c-3.106,2.853,0.806,12.823-12.187,8.906c-6.57-1.982-1.428,10.51-14.886,5.444C25.23,51.671,23.34,63.811,4.723,59.437z"/>
<path fill="#92C932" d="M4.723,59.437c8.235-4.651,3.616-12.145,7.369-10.14c3.543,1.894-0.377-6.09,4.294-4.276
	c4.315,1.676,3.973-5.616,6.438-4.471c4.416,2.047-1.456-6.347,6.449-3.192c5.279,2.104,3.269-6.605,6.778-4.709
	c3.361,1.813,3.451-3.884,7.583-1.467c1.294,0.751,5.416-7.156,6.9-3.114c1.687,4.581,11.028,3.104,9.713,6.504
	c-2.19,5.658-5.078,2.636-4.143,7.17c0.869,4.222-3.111-0.503-3.149,4.693c-0.029,4.295-9.063-1.394-10.667,2.411
	c-2.245,5.322-3.619,1.181-5.292,5.03c-1.016,2.336-6.084-4.23-8.784-0.907c-2.727,3.354-3.753-0.425-5.973,3.293
	c-2.568,4.311-2.427-1.765-6.299,2.185C14.514,59.902,5.696,59.76,4.723,59.437z"/>
<path fill="#E5EFCD" d="M8.945,61.632c19.366-10.398,21.236-19.349,48.663-26.857c-29.786,4.56-28.396,12.721-49.613,22.28
	C4.245,57.702,7.065,62.644,8.945,61.632z"/>
<path fill="#529320" d="M5.51,58.79c6.408-8.257,19.052,1.93,18.245-10.142c-0.566-8.488,9.695-0.288,6.949-11.749
	c-1.779-7.431,8.047-0.52,6.771-10.503c-0.791-6.185,8.466-6.396,2.194-12.128c-3.429-3.134-3.221-12.492-11.563-4.937
	c-3.117,2.824-13.624-1.171-9.79,11.154c1.939,6.233-11.225,1.002-6.18,13.802C14.299,39.782,1.333,41.164,5.51,58.79z"/>
<path fill="#92C932" d="M5.51,58.79c5.158-7.587,13.015-3.004,10.976-6.598c-1.921-3.385,6.471,0.555,4.663-3.889
	c-1.672-4.107,6.077-3.551,4.925-5.9c-2.066-4.215,6.713,1.57,3.563-5.956c-2.106-5.023,7.113-2.854,5.186-6.213
	c-1.842-3.211,4.219-3.114,1.759-7.071c-0.771-1.24,7.75-4.851,3.488-6.379c-4.832-1.731-3.019-10.457-6.67-9.331
	c-6.078,1.871-2.937,4.681-7.735,3.658c-4.47-0.953,0.454,2.938-5.074,2.802c-4.575-0.11,1.245,8.561-2.841,9.941
	c-5.723,1.934-1.35,3.362-5.492,4.807c-2.513,0.878,4.345,5.851,0.741,8.278c-3.644,2.451,0.353,3.538-3.659,5.5
	c-4.653,2.273,1.813,2.339-2.488,5.847C5.264,49.579,5.188,57.863,5.51,58.79z"/>
<path fill="#E5EFCD" d="M3.68,56.461c-2.519,2.793,3.379,6.996,4.86,5.035C10.23,47.281,27.69,41.629,29.435,18.648
	C18.875,47.051,11.98,39.308,3.68,56.461z"/>
</svg>
