<?xml version="1.0" encoding="utf-8"?>
<!-- Generator: Adobe Illustrator 15.0.0, SVG Export Plug-In . SVG Version: 6.00 Build 0)  -->
<!DOCTYPE svg PUBLIC "-//W3C//DTD SVG 1.1//EN" "http://www.w3.org/Graphics/SVG/1.1/DTD/svg11.dtd" [
	<!ENTITY ns_flows "http://ns.adobe.com/Flows/1.0/">
	<!ENTITY ns_extend "http://ns.adobe.com/Extensibility/1.0/">
	<!ENTITY ns_ai "http://ns.adobe.com/AdobeIllustrator/10.0/">
	<!ENTITY ns_graphs "http://ns.adobe.com/Graphs/1.0/">
]>
<svg version="1.1" id="Layer_1" xmlns:x="&ns_extend;" xmlns:i="&ns_ai;" xmlns:graph="&ns_graphs;"
	 xmlns="http://www.w3.org/2000/svg" xmlns:xlink="http://www.w3.org/1999/xlink" xmlns:a="http://ns.adobe.com/AdobeSVGViewerExtensions/3.0/"
	 x="0px" y="0px" width="64px" height="64px" viewBox="0 0 64 64" enable-background="new 0 0 64 64" xml:space="preserve">
<polygon fill="#99A8AE" points="32.631,28.975 30.727,21.002 20.999,12 13.243,13.403 9,25.05 12.602,33.479 32.631,41.248 
	52.449,32.409 55,23.149 50.247,14.312 42.948,13.238 35.479,19.02 "/>
<polygon fill="#E81C27" points="34.005,34.108 38.734,7.785 41.414,8.482 35.756,35.293 "/>
<path fill="#302C3B" d="M38.555,8.807c0.18-1.021,0.32-1.08,0.832-5.629c0.211-1.859,3.734-1.374,3.269,0.453
	c-1.241,4.852-1.241,4.852-1.444,5.814C41.062,10.182,38.428,9.546,38.555,8.807z"/>
<polygon fill="#E81C27" points="40.894,28.604 46.609,9.278 49.144,10.366 42.464,30.048 "/>
<path fill="#302C3B" d="M46.314,10.277c0.295-0.999,0.438-1.037,1.48-5.545c0.422-1.839,3.805-0.845,3.136,0.927
	c-1.787,4.707-1.787,4.707-2.098,5.646C48.597,12.022,46.102,11.004,46.314,10.277z"/>
<path fill="#B3C2C6" d="M32.631,62c8.318-1.929,14.816-5.01,14.816-5.01l5.347-23.511c0,0-9.027-1.765-20.163,5.338V62z"/>
<polygon fill="#CFD8DD" points="52.794,33.479 48.041,35.455 44.094,43.178 47.447,56.99 "/>
<polygon fill="#E6EBEF" points="29.963,28.242 21.79,20.644 14.347,19.433 9.481,25.71 11.423,34.701 32.631,38.817 "/>
<path fill="#CFD8DD" d="M32.631,38.817c9.181-3.804,20.163-5.338,20.163-5.338l1.357-9.835l-1.442-3.468
	c0,0-2.745,0.605-2.236-3.084c0.166-1.195-1.539-3.371-3.139-0.936c-1.104,1.68-3.396,5.533-3.396,5.533l1.726-0.304l0.51,1.351
	l-6.081,1.21l-5.234,5.893L32.631,38.817z"/>
<polygon fill="#E6EBEF" points="32.631,62 48.465,39.751 43.334,36.446 32.631,38.817 "/>
<path fill="#F2F5F7" d="M11.423,34.701l5.3,24.141C23.642,61.113,32.631,62,32.631,62V38.817
	C32.631,38.817,22.027,35.419,11.423,34.701z"/>
<path fill-rule="evenodd" clip-rule="evenodd" fill="#E81C27" d="M26.713,55.976c-0.303-1.239,1.309-0.836,1.318-2.026
	c-1.395-0.169-1.68-1.4-2.294-2.317c0.315-0.423,0.895-0.563,1.124-1.078c-1.4-0.415-1.774-1.571-2.135-2.472
	c0.506-0.276,0.793-0.787,1.313-1.044c-1.104-0.374-1.643-1.293-2.108-2.279c0.074-0.576,0.413-0.864,0.753-1.155
	c-1.314-0.673-2.766-3.154-2.766-3.154s-0.861,2.021-2.065,2.197c0.436,0.443,0.871,0.887,1.103,1.522
	c-0.227,0.85-0.543,1.599-1.607,1.543c0.619,0.483,1.057,1.137,1.662,1.633c-0.137,0.804-0.218,1.869-1.583,1.734
	c0.381,0.638,1.029,1.021,1.478,1.596c-0.405,0.715-0.372,1.896-1.794,1.507c0.33,1.258,1.917,1.486,1.932,2.67l-2.896-0.574
	l0.19,1.445l11.458,2.273l-0.19-1.446L26.713,55.976z M24.373,46.745c-0.37,0.708-2.769,0.227-3.347-0.663
	C21.228,45.465,23.995,46.014,24.373,46.745z M25.002,50.172c-0.405,0.675-3.121,0.122-3.716-0.737
	C21.463,48.729,24.625,49.356,25.002,50.172z M25.497,53.074c-0.583,0.668-3.213,0.093-3.954-0.783
	C21.791,51.364,24.987,51.998,25.497,53.074z M21.889,54.035c0.514-0.1,3.146,0.422,3.716,0.736
	c0.044,0.337,0.088,0.674,0.132,1.011l-3.715-0.737C21.977,54.708,21.932,54.372,21.889,54.035z"/>
</svg>
