<?xml version="1.0" encoding="utf-8"?>
<!-- Generator: Adobe Illustrator 15.0.0, SVG Export Plug-In . SVG Version: 6.00 Build 0)  -->
<!DOCTYPE svg PUBLIC "-//W3C//DTD SVG 1.1//EN" "http://www.w3.org/Graphics/SVG/1.1/DTD/svg11.dtd" [
	<!ENTITY ns_flows "http://ns.adobe.com/Flows/1.0/">
	<!ENTITY ns_extend "http://ns.adobe.com/Extensibility/1.0/">
	<!ENTITY ns_ai "http://ns.adobe.com/AdobeIllustrator/10.0/">
	<!ENTITY ns_graphs "http://ns.adobe.com/Graphs/1.0/">
]>
<svg version="1.1" id="Layer_1" xmlns:x="&ns_extend;" xmlns:i="&ns_ai;" xmlns:graph="&ns_graphs;"
	 xmlns="http://www.w3.org/2000/svg" xmlns:xlink="http://www.w3.org/1999/xlink" xmlns:a="http://ns.adobe.com/AdobeSVGViewerExtensions/3.0/"
	 x="0px" y="0px" width="64px" height="64px" viewBox="0 0 64 64" enable-background="new 0 0 64 64" xml:space="preserve">
<path fill="#CFD8DD" d="M20.764,9.311c-0.175-1.521,9.613,4.372,10.009,14.491c0.033,0.65-4.557,0.052-7.361-2.206
	C23.411,21.596,21.39,14.84,20.764,9.311z"/>
<path fill="#6E8189" d="M21.504,11.38c-0.1-1.068,6.44,4.229,6.604,11.241c0.015,0.451-3.074-0.544-4.943-2.452
	C23.164,20.169,21.87,15.264,21.504,11.38z"/>
<radialGradient id="SVGID_1_" cx="-183.3535" cy="-660.6094" r="4.5466" gradientTransform="matrix(0.7071 -0.706 4.2426 4.236 2953.0869 2689.5977)" gradientUnits="userSpaceOnUse">
	<stop  offset="0" style="stop-color:#C28FEF"/>
	<stop  offset="0.6667" style="stop-color:#B357E6"/>
	<a:midPointStop  offset="0" style="stop-color:#C28FEF"/>
	<a:midPointStop  offset="0.4878" style="stop-color:#C28FEF"/>
	<a:midPointStop  offset="0.6667" style="stop-color:#B357E6"/>
</radialGradient>
<path fill="url(#SVGID_1_)" d="M15.237,20.204l4.21,5.791c3.406-0.386,6.184-3.182,6.588-6.578l-5.715-4.142
	C18.37,16.384,15.237,20.204,15.237,20.204z"/>
<radialGradient id="SVGID_2_" cx="-183.3545" cy="-665.7393" r="3.9545" gradientTransform="matrix(0.7071 -0.706 4.2426 4.236 2971.2236 2707.7061)" gradientUnits="userSpaceOnUse">
	<stop  offset="0" style="stop-color:#75D6FF"/>
	<stop  offset="0.1023" style="stop-color:#67CDF8"/>
	<stop  offset="0.6667" style="stop-color:#1A9ED6"/>
	<a:midPointStop  offset="0" style="stop-color:#75D6FF"/>
	<a:midPointStop  offset="0.4878" style="stop-color:#75D6FF"/>
	<a:midPointStop  offset="0.6667" style="stop-color:#1A9ED6"/>
</radialGradient>
<path fill="url(#SVGID_2_)" d="M12.453,16.378l4.573,6.288c0,0,2.388-4.685,5.671-5.667l-6.23-4.516
	C14.956,13.478,12.453,16.378,12.453,16.378z"/>
<radialGradient id="SVGID_3_" cx="-183.3564" cy="-670.1016" r="3.7471" gradientTransform="matrix(0.7071 -0.706 4.2426 4.236 2986.6465 2723.105)" gradientUnits="userSpaceOnUse">
	<stop  offset="0" style="stop-color:#78FFC7"/>
	<stop  offset="0.0538" style="stop-color:#72F9C3"/>
	<stop  offset="0.7212" style="stop-color:#25B399"/>
	<a:midPointStop  offset="0" style="stop-color:#78FFC7"/>
	<a:midPointStop  offset="0.4878" style="stop-color:#78FFC7"/>
	<a:midPointStop  offset="0.7212" style="stop-color:#25B399"/>
</radialGradient>
<path fill="url(#SVGID_3_)" d="M9.698,12.589l4.857,6.68c0,0,1.706-3.847,4.726-4.744l-6.625-4.802
	C11.57,10.527,9.698,12.589,9.698,12.589z"/>
<radialGradient id="SVGID_4_" cx="-183.3545" cy="-674.4961" r="3.5638" gradientTransform="matrix(0.7071 -0.706 4.2426 4.236 3002.1833 2738.6177)" gradientUnits="userSpaceOnUse">
	<stop  offset="0" style="stop-color:#DCFF91"/>
	<stop  offset="0.1798" style="stop-color:#C5EF74"/>
	<stop  offset="0.6667" style="stop-color:#88C427"/>
	<a:midPointStop  offset="0" style="stop-color:#DCFF91"/>
	<a:midPointStop  offset="0.4878" style="stop-color:#DCFF91"/>
	<a:midPointStop  offset="0.6667" style="stop-color:#88C427"/>
</radialGradient>
<path fill="url(#SVGID_4_)" d="M6.968,8.832l5.071,6.975c0,0,1.732-2.855,3.781-3.793L8.876,6.984
	C8.195,7.542,6.968,8.832,6.968,8.832z"/>
<radialGradient id="SVGID_5_" cx="-183.356" cy="-678.918" r="3.4113" gradientTransform="matrix(0.7071 -0.706 4.2426 4.236 3017.8169 2754.2271)" gradientUnits="userSpaceOnUse">
	<stop  offset="0" style="stop-color:#FFED80"/>
	<stop  offset="0.2612" style="stop-color:#FFD24C"/>
	<stop  offset="0.6667" style="stop-color:#FFAA00"/>
	<a:midPointStop  offset="0" style="stop-color:#FFED80"/>
	<a:midPointStop  offset="0.4878" style="stop-color:#FFED80"/>
	<a:midPointStop  offset="0.6667" style="stop-color:#FFAA00"/>
</radialGradient>
<path fill="url(#SVGID_5_)" d="M4.258,5.104l5.224,7.186c0,0,1.344-2.354,2.815-2.828l-7.17-5.196
	C4.828,4.535,4.258,5.104,4.258,5.104z"/>
<radialGradient id="SVGID_6_" cx="-183.356" cy="-682.9985" r="3.0459" gradientTransform="matrix(0.7071 -0.706 4.2426 4.236 3032.2437 2768.6313)" gradientUnits="userSpaceOnUse">
	<stop  offset="0" style="stop-color:#FF8E80"/>
	<stop  offset="0.2727" style="stop-color:#F44C45"/>
	<stop  offset="0.6061" style="stop-color:#E80000"/>
	<a:midPointStop  offset="0" style="stop-color:#FF8E80"/>
	<a:midPointStop  offset="0.4878" style="stop-color:#FF8E80"/>
	<a:midPointStop  offset="0.6061" style="stop-color:#E80000"/>
</radialGradient>
<path fill="url(#SVGID_6_)" d="M6.884,8.718c0,0,0.612-1.37,1.835-1.85L2,2L6.884,8.718z"/>
<path fill="#FA5393" d="M27.41,15.844c6.271,8.859,18.752,15.305,26.139,9.785C51.495,13.038,37.936,9.281,27.41,15.844z"/>
<path fill="#FF8CBC" d="M32.011,18.223c5.143,10.114,17.659,19.29,26.972,15.583C59.275,21.006,45.015,14.215,32.011,18.223z"/>
<path fill="#FA5393" d="M39.777,22.956c2.333,11.099,11.514,25.268,21.473,24.1C63.81,29.895,53.377,22.452,39.777,22.956z"/>
<path fill="#FF8CBC" d="M47.586,29.994c-1.761,11.202,3.121,20.145,10.464,26.665C67.586,49.627,58.178,30.769,47.586,29.994z"/>
<linearGradient id="SVGID_7_" gradientUnits="userSpaceOnUse" x1="43.7949" y1="62" x2="43.7949" y2="37.8932">
	<stop  offset="0.2545" style="stop-color:#CFD8DD"/>
	<stop  offset="0.6086" style="stop-color:#D7DFE3"/>
	<stop  offset="1" style="stop-color:#E6EBEF"/>
	<a:midPointStop  offset="0.2545" style="stop-color:#CFD8DD"/>
	<a:midPointStop  offset="0.6098" style="stop-color:#CFD8DD"/>
	<a:midPointStop  offset="1" style="stop-color:#E6EBEF"/>
</linearGradient>
<path fill="url(#SVGID_7_)" d="M31.89,18.089c-5.329,8.313-0.612,27.623-0.612,27.623C38.891,47.405,32.357,62,37.373,62
	c14.235,0,20.677-5.341,20.677-5.341C60.247,37.59,42.838,18.793,31.89,18.089z"/>
<linearGradient id="SVGID_8_" gradientUnits="userSpaceOnUse" x1="31.7339" y1="42.5156" x2="41.4698" y2="47.0158">
	<stop  offset="0" style="stop-color:#302C3B;stop-opacity:0.2"/>
	<stop  offset="1" style="stop-color:#302C3B;stop-opacity:0"/>
	<a:midPointStop  offset="0" style="stop-color:#302C3B;stop-opacity:0.2"/>
	<a:midPointStop  offset="0.6098" style="stop-color:#302C3B;stop-opacity:0.2"/>
	<a:midPointStop  offset="1" style="stop-color:#302C3B;stop-opacity:0"/>
</linearGradient>
<path fill="url(#SVGID_8_)" d="M37.683,28.177c-9.815-0.734-6.405,17.535-6.405,17.535C38.891,47.405,32.357,62,37.373,62
	C35.493,51.567,45.517,41.899,37.683,28.177z"/>
<linearGradient id="SVGID_9_" gradientUnits="userSpaceOnUse" x1="26.6094" y1="54.7441" x2="21.1288" y2="37.6291">
	<stop  offset="0.2545" style="stop-color:#CFD8DD"/>
	<stop  offset="0.6086" style="stop-color:#D7DFE3"/>
	<stop  offset="1" style="stop-color:#E6EBEF"/>
	<a:midPointStop  offset="0.2545" style="stop-color:#CFD8DD"/>
	<a:midPointStop  offset="0.6098" style="stop-color:#CFD8DD"/>
	<a:midPointStop  offset="1" style="stop-color:#E6EBEF"/>
</linearGradient>
<path fill="url(#SVGID_9_)" d="M36.44,19.825c-0.502-2.269-2.981-11.295-8.191-13.819c-0.63-0.306-1.164,11.457-1.164,11.457
	c-6.486,7.19-22.823,22.766-24.704,25.039c-1.886,2.271,3.841,9.003,3.841,9.003c1.592,0.188,3.576,1.535,4.388,2.109
	c1.5,1.065,5.145-3.055,9.23-3.816c15.373-2.881,18.42-7.961,18.932-12.748C39.966,25.893,36.44,19.825,36.44,19.825z"/>
<path fill="#302C3B" d="M6.323,45.384c-0.53,0.375-1.824,0.654-2.216,0.147c-0.393-0.507,0.27-1.611,0.798-1.984
	c0.526-0.371,1.274-0.263,1.664,0.243C6.963,44.296,6.852,45.013,6.323,45.384z"/>
<path fill="#302C3B" d="M16.25,42.61c-0.12,2.353-1.307,4.662-3.13,6.34c-0.927,0.832-2.013,1.5-3.185,1.93
	c-1.17,0.438-2.416,0.637-3.643,0.619c2.337-0.709,4.461-1.699,6.133-3.246c0.842-0.759,1.572-1.635,2.206-2.58
	C15.252,44.716,15.816,43.706,16.25,42.61z"/>
<path fill="#302C3B" d="M16.736,34.482c0,0,0.934-0.687,1.777-0.519c0,0-1.155,1.143-0.287,2.918c0,0,0.938-2.15,2.552-2.282
	c0,0-1.104,1.564,0.306,2.99c0,0,0.296-2.176,2.389-2.828c0,0-0.294,1.141,0.728,2.503c0,0-0.315-1.966,1.114-2.922
	c1.435-0.957,3.026-1.481,3.838-3.929c0,0-3.483,3.558-8.29,2.574C19.616,32.733,17.742,32.396,16.736,34.482z"/>
<path fill="#99A8AE" d="M28.266,7.74c0.164-1.062,5.208,5.671,3.648,12.509c-0.098,0.441-3.807-0.781-4.192-3.582
	C27.722,16.667,27.669,11.595,28.266,7.74z"/>
<path fill="#99A8AE" d="M5.073,41.566c-0.538,0.329-0.442,0.532,0.03,0.356c0.474-0.175,2.782-0.76,2.976,1.674
	c0,0,0.13,1.089,0.423,0.008C8.791,42.518,8.1,39.716,5.073,41.566z"/>
<path fill="#FA5393" d="M27.219,14.903c0,0-1.452,9.146,9.952,16.467C37.171,31.37,15.751,26.137,27.219,14.903z"/>
<path fill="#FA5393" d="M56.819,38.535C40.5,32.79,41.216,15.568,35.497,16.008C32.596,30.377,47.773,38.024,56.819,38.535z"/>
</svg>
