<?xml version="1.0" encoding="utf-8"?>
<!-- Generator: Adobe Illustrator 15.0.0, SVG Export Plug-In . SVG Version: 6.00 Build 0)  -->
<!DOCTYPE svg PUBLIC "-//W3C//DTD SVG 1.1//EN" "http://www.w3.org/Graphics/SVG/1.1/DTD/svg11.dtd" [
	<!ENTITY ns_flows "http://ns.adobe.com/Flows/1.0/">
	<!ENTITY ns_extend "http://ns.adobe.com/Extensibility/1.0/">
	<!ENTITY ns_ai "http://ns.adobe.com/AdobeIllustrator/10.0/">
	<!ENTITY ns_graphs "http://ns.adobe.com/Graphs/1.0/">
]>
<svg version="1.1" id="Layer_1" xmlns:x="&ns_extend;" xmlns:i="&ns_ai;" xmlns:graph="&ns_graphs;"
	 xmlns="http://www.w3.org/2000/svg" xmlns:xlink="http://www.w3.org/1999/xlink" xmlns:a="http://ns.adobe.com/AdobeSVGViewerExtensions/3.0/"
	 x="0px" y="0px" width="64px" height="64px" viewBox="0 0 64 64" enable-background="new 0 0 64 64" xml:space="preserve">
<path fill="#99A8AE" d="M55.383,34.045c8.319-3.859,4.682-16.318-5.213-13.621C49.026,25.446,50.253,29.942,55.383,34.045z"/>
<linearGradient id="SVGID_1_" gradientUnits="userSpaceOnUse" x1="1100.3193" y1="-937.958" x2="1112.3848" y2="-937.958" gradientTransform="matrix(0 0.8976 0.9921 0 984.8666 -964.6935)">
	<stop  offset="0" style="stop-color:#646F78"/>
	<stop  offset="0.0091" style="stop-color:#657079"/>
	<stop  offset="0.2298" style="stop-color:#7C8990"/>
	<stop  offset="0.4607" style="stop-color:#8C9AA1"/>
	<stop  offset="0.7084" style="stop-color:#96A5AB"/>
	<stop  offset="1" style="stop-color:#99A8AE"/>
	<a:midPointStop  offset="0" style="stop-color:#646F78"/>
	<a:midPointStop  offset="0.2606" style="stop-color:#646F78"/>
	<a:midPointStop  offset="1" style="stop-color:#99A8AE"/>
</linearGradient>
<path fill="url(#SVGID_1_)" d="M55.3,33.783c5.852-4.701,2.341-12.553-4.668-10.492C49.727,26.625,51.286,31.198,55.3,33.783z"/>
<path fill="#99A8AE" d="M8.617,34.045c-8.319-3.859-4.682-16.318,5.213-13.621C14.973,25.446,13.747,29.942,8.617,34.045z"/>
<linearGradient id="SVGID_2_" gradientUnits="userSpaceOnUse" x1="1100.3193" y1="1174.916" x2="1112.3848" y2="1174.916" gradientTransform="matrix(0 0.8976 -0.9921 0 1175.3154 -964.6935)">
	<stop  offset="0" style="stop-color:#646F78"/>
	<stop  offset="0.0091" style="stop-color:#657079"/>
	<stop  offset="0.2298" style="stop-color:#7C8990"/>
	<stop  offset="0.4607" style="stop-color:#8C9AA1"/>
	<stop  offset="0.7084" style="stop-color:#96A5AB"/>
	<stop  offset="1" style="stop-color:#99A8AE"/>
	<a:midPointStop  offset="0" style="stop-color:#646F78"/>
	<a:midPointStop  offset="0.2606" style="stop-color:#646F78"/>
	<a:midPointStop  offset="1" style="stop-color:#99A8AE"/>
</linearGradient>
<path fill="url(#SVGID_2_)" d="M8.7,33.783c-5.852-4.701-2.341-12.553,4.668-10.492C14.273,26.625,12.714,31.198,8.7,33.783z"/>
<radialGradient id="SVGID_3_" cx="32" cy="32" r="32.3202" gradientTransform="matrix(1 0 0 1.3446 0 -11.0275)" gradientUnits="userSpaceOnUse">
	<stop  offset="0.3818" style="stop-color:#3E4A52"/>
	<stop  offset="0.4432" style="stop-color:#3C474F"/>
	<stop  offset="1" style="stop-color:#302C3B"/>
	<a:midPointStop  offset="0.3818" style="stop-color:#3E4A52"/>
	<a:midPointStop  offset="0.4653" style="stop-color:#3E4A52"/>
	<a:midPointStop  offset="1" style="stop-color:#302C3B"/>
</radialGradient>
<path fill="url(#SVGID_3_)" d="M51.438,23.909C50.795,13.75,50.947,2,32,2S13.205,13.75,12.562,23.909
	C12.354,27.197,3.545,32,5.284,41.227c0.484-1.585,1.5-2.704,1.5-2.704c-0.9,2.466-0.649,4.972-0.649,4.972
	c0.675-1.705,1.793-2.949,1.793-2.949s-0.706,2.686-0.23,5.113c0.72-1.319,1.787-2.703,1.787-2.703S9.534,62,32,62
	c22.47,0,22.517-19.045,22.517-19.045s1.066,1.384,1.786,2.703c0.476-2.428-0.23-5.113-0.23-5.113s1.118,1.244,1.793,2.949
	c0,0,0.251-2.506-0.649-4.972c0,0,1.017,1.119,1.5,2.704C60.457,32,51.646,27.197,51.438,23.909z"/>
<linearGradient id="SVGID_4_" gradientUnits="userSpaceOnUse" x1="32.0005" y1="51.3574" x2="32.0005" y2="36.4719">
	<stop  offset="0" style="stop-color:#646F78"/>
	<stop  offset="0.0091" style="stop-color:#657079"/>
	<stop  offset="0.2298" style="stop-color:#7C8990"/>
	<stop  offset="0.4607" style="stop-color:#8C9AA1"/>
	<stop  offset="0.7084" style="stop-color:#96A5AB"/>
	<stop  offset="1" style="stop-color:#99A8AE"/>
	<a:midPointStop  offset="0" style="stop-color:#646F78"/>
	<a:midPointStop  offset="0.2606" style="stop-color:#646F78"/>
	<a:midPointStop  offset="1" style="stop-color:#99A8AE"/>
</linearGradient>
<path fill="url(#SVGID_4_)" d="M32,22.8c-24.085,0-8.358,12.02-8.358,12.02s-1.311,5.165,0.232,6.065
	c-1.954,2.223-4.163,5.604-2.413,7.277C22.875,49.518,32,51.357,32,51.357s9.125-1.84,10.539-3.195
	c1.75-1.674-0.459-5.055-2.413-7.277c1.543-0.9,0.232-6.065,0.232-6.065S56.085,22.8,32,22.8z"/>
<linearGradient id="SVGID_5_" gradientUnits="userSpaceOnUse" x1="32.0005" y1="56.4961" x2="32.0005" y2="47.6094">
	<stop  offset="0" style="stop-color:#646F78"/>
	<stop  offset="0.3416" style="stop-color:#737F87"/>
	<stop  offset="1" style="stop-color:#99A8AE"/>
	<a:midPointStop  offset="0" style="stop-color:#646F78"/>
	<a:midPointStop  offset="0.5576" style="stop-color:#646F78"/>
	<a:midPointStop  offset="1" style="stop-color:#99A8AE"/>
</linearGradient>
<path fill="url(#SVGID_5_)" d="M43.004,47.609c0,0-3.935,3.1-11.004,3.1s-11.004-3.1-11.004-3.1
	c-1.079,1.809-1.04,8.887,11.004,8.887C44.046,56.496,44.084,49.418,43.004,47.609z"/>
<ellipse fill="#99A8AE" cx="40.391" cy="28.267" rx="8.541" ry="7.854"/>
<linearGradient id="SVGID_6_" gradientUnits="userSpaceOnUse" x1="125.8271" y1="35.0547" x2="125.8271" y2="21.4785" gradientTransform="matrix(1 0 0 1 -85.4355 0)">
	<stop  offset="0.2061" style="stop-color:#7B8A94;stop-opacity:0"/>
	<stop  offset="1" style="stop-color:#7B8A94"/>
	<a:midPointStop  offset="0.2061" style="stop-color:#7B8A94;stop-opacity:0"/>
	<a:midPointStop  offset="0.5274" style="stop-color:#7B8A94;stop-opacity:0"/>
	<a:midPointStop  offset="1" style="stop-color:#7B8A94"/>
</linearGradient>
<ellipse fill="url(#SVGID_6_)" cx="40.392" cy="28.267" rx="7.503" ry="6.788"/>
<ellipse fill="#99A8AE" cx="23.609" cy="28.267" rx="8.541" ry="7.854"/>
<linearGradient id="SVGID_7_" gradientUnits="userSpaceOnUse" x1="109.0459" y1="35.0547" x2="109.0459" y2="21.4785" gradientTransform="matrix(1 0 0 1 -85.4355 0)">
	<stop  offset="0.2061" style="stop-color:#7B8A94;stop-opacity:0"/>
	<stop  offset="1" style="stop-color:#7B8A94"/>
	<a:midPointStop  offset="0.2061" style="stop-color:#7B8A94;stop-opacity:0"/>
	<a:midPointStop  offset="0.5274" style="stop-color:#7B8A94;stop-opacity:0"/>
	<a:midPointStop  offset="1" style="stop-color:#7B8A94"/>
</linearGradient>
<ellipse fill="url(#SVGID_7_)" cx="23.61" cy="28.267" rx="7.503" ry="6.788"/>
<ellipse fill="#302C3B" cx="40.391" cy="28.267" rx="2.379" ry="3.415"/>
<path id="Shape_26_" fill="#6E8189" d="M40.275,26.988c0,1.138-1.359,1.138-1.359,0C38.916,25.849,40.275,25.849,40.275,26.988
	L40.275,26.988z"/>
<ellipse fill="#302C3B" cx="23.609" cy="28.267" rx="2.379" ry="3.415"/>
<path id="Shape_27_" fill="#6E8189" d="M23.494,26.988c0,1.138-1.359,1.138-1.359,0C22.135,25.849,23.494,25.849,23.494,26.988
	L23.494,26.988z"/>
<path fill="#99A8AE" d="M41.601,39.332c0,3.233-2.239,3.311-5.001,3.311c-2.761,0-4.999-0.077-4.999-3.311
	c0-3.234,2.238-5.857,4.999-5.857C39.361,33.475,41.601,36.098,41.601,39.332z"/>
<path fill="#302C3B" d="M37.069,37.74c-1.038-2.127-3.505,0.098-3.751,1.463C33.001,40.961,38.491,40.652,37.069,37.74z"/>
<path fill="#99A8AE" d="M22.399,39.332c0,3.233,2.239,3.311,5.001,3.311c2.761,0,4.999-0.077,4.999-3.311
	c0-3.234-2.238-5.857-4.999-5.857C24.639,33.475,22.399,36.098,22.399,39.332z"/>
<path fill="#302C3B" d="M26.931,37.74c1.038-2.127,3.504,0.098,3.751,1.462C30.999,40.961,25.509,40.652,26.931,37.74z"/>
</svg>
