<?xml version="1.0" encoding="utf-8"?>
<!-- Generator: Adobe Illustrator 15.0.0, SVG Export Plug-In . SVG Version: 6.00 Build 0)  -->
<!DOCTYPE svg PUBLIC "-//W3C//DTD SVG 1.1//EN" "http://www.w3.org/Graphics/SVG/1.1/DTD/svg11.dtd" [
	<!ENTITY ns_flows "http://ns.adobe.com/Flows/1.0/">
	<!ENTITY ns_extend "http://ns.adobe.com/Extensibility/1.0/">
	<!ENTITY ns_ai "http://ns.adobe.com/AdobeIllustrator/10.0/">
	<!ENTITY ns_graphs "http://ns.adobe.com/Graphs/1.0/">
]>
<svg version="1.1" id="Layer_1" xmlns:x="&ns_extend;" xmlns:i="&ns_ai;" xmlns:graph="&ns_graphs;"
	 xmlns="http://www.w3.org/2000/svg" xmlns:xlink="http://www.w3.org/1999/xlink" xmlns:a="http://ns.adobe.com/AdobeSVGViewerExtensions/3.0/"
	 x="0px" y="0px" width="64px" height="64px" viewBox="0 0 64 64" enable-background="new 0 0 64 64" xml:space="preserve">
<linearGradient id="SVGID_1_" gradientUnits="userSpaceOnUse" x1="46.167" y1="25.1211" x2="58.9889" y2="2.9129">
	<stop  offset="0.5879" style="stop-color:#FF9400"/>
	<stop  offset="0.6293" style="stop-color:#F89002"/>
	<stop  offset="0.691" style="stop-color:#E38608"/>
	<stop  offset="0.7655" style="stop-color:#C27511"/>
	<stop  offset="0.8498" style="stop-color:#945E1F"/>
	<stop  offset="0.9413" style="stop-color:#59412F"/>
	<stop  offset="1" style="stop-color:#302C3B"/>
	<a:midPointStop  offset="0.5879" style="stop-color:#FF9400"/>
	<a:midPointStop  offset="0.6207" style="stop-color:#FF9400"/>
	<a:midPointStop  offset="1" style="stop-color:#302C3B"/>
</linearGradient>
<path fill="url(#SVGID_1_)" d="M57.35,31.577L38.277,12.948c0,0,14.088-13.428,19.832-10.542
	C60.906,3.811,59.887,27.777,57.35,31.577z"/>
<radialGradient id="SVGID_2_" cx="63.1377" cy="18.2988" r="14.8642" fx="61.4359" fy="18.9004" gradientTransform="matrix(0.7071 0.7071 -0.8549 0.8549 34.1356 -42.0957)" gradientUnits="userSpaceOnUse">
	<stop  offset="0.297" style="stop-color:#F0E9E2"/>
	<stop  offset="0.4578" style="stop-color:#EDE5DD"/>
	<stop  offset="0.6476" style="stop-color:#E5DACF"/>
	<stop  offset="0.8514" style="stop-color:#D8C8B7"/>
	<stop  offset="1" style="stop-color:#CCB7A1"/>
	<a:midPointStop  offset="0.297" style="stop-color:#F0E9E2"/>
	<a:midPointStop  offset="0.6724" style="stop-color:#F0E9E2"/>
	<a:midPointStop  offset="1" style="stop-color:#CCB7A1"/>
</radialGradient>
<path fill="url(#SVGID_2_)" d="M55.861,29.902c1.48-6.248,2.373-23.632,0.729-25.32c-6.387,2.501-10.678,6.592-13.393,10.102
	C48.588,18.128,51.6,25.169,55.861,29.902z"/>
<linearGradient id="SVGID_3_" gradientUnits="userSpaceOnUse" x1="5.0117" y1="2.9131" x2="17.8335" y2="25.1211">
	<stop  offset="0" style="stop-color:#302C3B"/>
	<stop  offset="0.0587" style="stop-color:#59412F"/>
	<stop  offset="0.1502" style="stop-color:#945E1F"/>
	<stop  offset="0.2345" style="stop-color:#C27511"/>
	<stop  offset="0.309" style="stop-color:#E38608"/>
	<stop  offset="0.3707" style="stop-color:#F89002"/>
	<stop  offset="0.4121" style="stop-color:#FF9400"/>
	<a:midPointStop  offset="0" style="stop-color:#302C3B"/>
	<a:midPointStop  offset="0.3793" style="stop-color:#302C3B"/>
	<a:midPointStop  offset="0.4121" style="stop-color:#FF9400"/>
</linearGradient>
<path fill="url(#SVGID_3_)" d="M6.65,31.577l19.072-18.629c0,0-14.088-13.428-19.832-10.542C3.094,3.811,4.113,27.777,6.65,31.577z"
	/>
<radialGradient id="SVGID_4_" cx="1365.4736" cy="18.2988" r="14.8642" fx="1363.7717" fy="18.9004" gradientTransform="matrix(-0.7071 0.7071 0.8549 0.8549 950.7549 -962.9863)" gradientUnits="userSpaceOnUse">
	<stop  offset="0.297" style="stop-color:#F0E9E2"/>
	<stop  offset="0.4578" style="stop-color:#EDE5DD"/>
	<stop  offset="0.6476" style="stop-color:#E5DACF"/>
	<stop  offset="0.8514" style="stop-color:#D8C8B7"/>
	<stop  offset="1" style="stop-color:#CCB7A1"/>
	<a:midPointStop  offset="0.297" style="stop-color:#F0E9E2"/>
	<a:midPointStop  offset="0.6724" style="stop-color:#F0E9E2"/>
	<a:midPointStop  offset="1" style="stop-color:#CCB7A1"/>
</radialGradient>
<path fill="url(#SVGID_4_)" d="M8.139,29.902C6.658,23.654,5.766,6.27,7.41,4.582c6.387,2.501,10.678,6.592,13.393,10.102
	C15.412,18.128,12.4,25.169,8.139,29.902z"/>
<linearGradient id="SVGID_5_" gradientUnits="userSpaceOnUse" x1="32.0005" y1="59.2061" x2="32.0005" y2="11.8699">
	<stop  offset="0" style="stop-color:#DB5B00"/>
	<stop  offset="0.1822" style="stop-color:#E16500"/>
	<stop  offset="0.486" style="stop-color:#F17E00"/>
	<stop  offset="0.697" style="stop-color:#FF9400"/>
	<a:midPointStop  offset="0" style="stop-color:#DB5B00"/>
	<a:midPointStop  offset="0.594" style="stop-color:#DB5B00"/>
	<a:midPointStop  offset="0.697" style="stop-color:#FF9400"/>
</linearGradient>
<path fill="url(#SVGID_5_)" d="M51.73,20.852c-0.305-2.22,0.006-4.048,0.006-4.048c-0.414,0.178-0.982,0.509-1.594,0.947
	c-0.229-1.787-0.125-3.148-0.125-3.148c-0.637,0.391-1.637,1.252-2.553,2.35c-4.707-3.68-10.264-5.285-15.467-5.285
	s-10.756,1.604-15.463,5.285c-0.916-1.098-1.916-1.959-2.553-2.35c0,0,0.104,1.361-0.125,3.148c-0.611-0.438-1.18-0.77-1.594-0.947
	c0,0,0.311,1.828,0.006,4.048c0,0-10.27,11.075-10.27,23.213c0,0,23.065,3.177,29.998,15.041C38.931,47.242,62,43.065,62,43.065
	C62,31.157,51.73,20.852,51.73,20.852z"/>
<path fill="#F0E9E2" d="M55.195,46.08C56.723,44.438,62,43.065,62,43.065s-19.322-1.805-30.002,9.553
	C21.318,41.261,2,44.065,2,44.065s5.277,1.373,6.805,3.015C6.996,46.841,3,48.706,3,48.706s13,0.516,18.591,8.182
	C23.399,59.368,27.276,62,31.998,62s8.603-2.632,10.411-5.112C48,49.222,61,47.706,61,47.706S57.004,45.841,55.195,46.08z"/>
<linearGradient id="Shape_1_" gradientUnits="userSpaceOnUse" x1="32.0005" y1="49.1279" x2="32.0005" y2="22.6904">
	<stop  offset="0.2182" style="stop-color:#FF9E00"/>
	<stop  offset="0.3718" style="stop-color:#F79500;stop-opacity:0.662"/>
	<stop  offset="0.6727" style="stop-color:#EA8800;stop-opacity:0"/>
	<a:midPointStop  offset="0.2182" style="stop-color:#FF9E00"/>
	<a:midPointStop  offset="0.4314" style="stop-color:#FF9E00"/>
	<a:midPointStop  offset="0.6727" style="stop-color:#EA8800;stop-opacity:0"/>
</linearGradient>
<path id="Shape_113_" fill="url(#Shape_1_)" d="M37.945,47.923c0,1.606-11.891,1.606-11.891,0c0-2.773,2.547-25.233,5.943-25.233
	C35.396,22.69,37.945,45.149,37.945,47.923L37.945,47.923z"/>
<path fill="#302C3B" d="M31.998,50.372c-1.698,7.979-5.68,6.194-7.62,5.001c-3.177-1.954,3.193,6.029,7.62,1
	c4.428,5.029,10.804-2.954,7.626-1C37.684,56.566,33.696,58.352,31.998,50.372z"/>
<path id="Shape_78_" fill="#302C3B" d="M26.055,47.854c0-1.606,11.891-1.606,11.891,0c0,2.774-2.551,5.233-5.947,5.233
	C28.599,53.087,26.055,50.628,26.055,47.854L26.055,47.854z"/>
<path fill="#302C3B" d="M51.801,34.772c-7.293-0.094-10.928,1.865-13.878,6.965C37.215,33.003,46.844,30.784,51.801,34.772z"/>
<path fill="#302C3B" d="M49.487,34.372c-1.109,6.311-5.924,7.365-10.385,5.451C38.867,35.222,45.027,31.94,49.487,34.372z"/>
<path fill="#FF9900" d="M47.765,34.819c-0.778,5.099-6.042,4.768-7.411,3.305C41.77,35.15,45.074,34.489,47.765,34.819z"/>
<path fill="#302C3B" d="M41.972,36.165c-0.191,2.096,2.688,2.385,2.872,0.285C45.029,34.362,42.158,34.068,41.972,36.165z"/>
<path fill="#302C3B" d="M14.664,34.372c1.109,6.311,5.924,7.365,10.385,5.451C25.284,35.222,19.124,31.94,14.664,34.372z"/>
<path fill="#302C3B" d="M12.351,34.772c7.293-0.094,10.928,1.865,13.878,6.965C26.937,33.003,17.308,30.784,12.351,34.772z"/>
<path fill="#FF9900" d="M16.387,34.819c0.778,5.099,6.042,4.768,7.411,3.305C22.382,35.15,19.077,34.489,16.387,34.819z"/>
<path fill="#302C3B" d="M19.308,36.45c0.185,2.1,3.064,1.811,2.872-0.285C21.993,34.068,19.122,34.362,19.308,36.45z"/>
</svg>
