<?xml version="1.0" encoding="utf-8"?>
<!-- Generator: Adobe Illustrator 15.0.0, SVG Export Plug-In . SVG Version: 6.00 Build 0)  -->
<!DOCTYPE svg PUBLIC "-//W3C//DTD SVG 1.1//EN" "http://www.w3.org/Graphics/SVG/1.1/DTD/svg11.dtd" [
	<!ENTITY ns_flows "http://ns.adobe.com/Flows/1.0/">
	<!ENTITY ns_extend "http://ns.adobe.com/Extensibility/1.0/">
	<!ENTITY ns_ai "http://ns.adobe.com/AdobeIllustrator/10.0/">
	<!ENTITY ns_graphs "http://ns.adobe.com/Graphs/1.0/">
]>
<svg version="1.1" id="Layer_1" xmlns:x="&ns_extend;" xmlns:i="&ns_ai;" xmlns:graph="&ns_graphs;"
	 xmlns="http://www.w3.org/2000/svg" xmlns:xlink="http://www.w3.org/1999/xlink" xmlns:a="http://ns.adobe.com/AdobeSVGViewerExtensions/3.0/"
	 x="0px" y="0px" width="64px" height="64px" viewBox="0 0 64 64" enable-background="new 0 0 64 64" xml:space="preserve">
<linearGradient id="SVGID_1_" gradientUnits="userSpaceOnUse" x1="45.0078" y1="15.0239" x2="45.0078" y2="2.3672">
	<stop  offset="0" style="stop-color:#6E8189"/>
	<stop  offset="1" style="stop-color:#99A8AE"/>
	<a:midPointStop  offset="0" style="stop-color:#6E8189"/>
	<a:midPointStop  offset="0.5" style="stop-color:#6E8189"/>
	<a:midPointStop  offset="1" style="stop-color:#99A8AE"/>
</linearGradient>
<path fill="url(#SVGID_1_)" d="M31.381,8.69l18.317,6.334C47.976,4.765,61.131,4.742,58.211,3.778
	C43.055-1.226,31.381,8.69,31.381,8.69z"/>
<linearGradient id="SVGID_2_" gradientUnits="userSpaceOnUse" x1="30.7227" y1="32.729" x2="30.7227" y2="18.2759">
	<stop  offset="0" style="stop-color:#99A8AE"/>
	<stop  offset="1" style="stop-color:#6E8189"/>
	<a:midPointStop  offset="0" style="stop-color:#99A8AE"/>
	<a:midPointStop  offset="0.5" style="stop-color:#99A8AE"/>
	<a:midPointStop  offset="1" style="stop-color:#6E8189"/>
</linearGradient>
<path fill="url(#SVGID_2_)" d="M27.596,18.276c0,0,1.627,7.364-7.3,12.826c-4.987,3.052,17.944,2.172,21.56-5.756L27.596,18.276z"/>
<linearGradient id="SVGID_3_" gradientUnits="userSpaceOnUse" x1="2.1167" y1="32" x2="61.0498" y2="32">
	<stop  offset="0" style="stop-color:#6E8189"/>
	<stop  offset="0.1228" style="stop-color:#798B92"/>
	<stop  offset="0.3913" style="stop-color:#8B9BA2"/>
	<stop  offset="0.6757" style="stop-color:#96A5AB"/>
	<stop  offset="1" style="stop-color:#99A8AE"/>
	<a:midPointStop  offset="0" style="stop-color:#6E8189"/>
	<a:midPointStop  offset="0.2667" style="stop-color:#6E8189"/>
	<a:midPointStop  offset="1" style="stop-color:#99A8AE"/>
</linearGradient>
<path fill="url(#SVGID_3_)" d="M2.271,7.055c-1.242,0.912,5.228,8.65,11.287,10.98c0.588,3.729,9.893,3.928,18.747,9.146
	c8.959,5.279,17.917,15.704,7.066,23.956c-14.02-5.338-23.722-0.273-20.438,0.475c25.472,5.801,0.917,9.469,1.513,9.609
	c10.821,2.561,17.047-1.828,18.094-4.012c25.19-0.67,28.116-29.258,14.348-43.538C41.592,1.956,14.846-2.183,2.271,7.055z"/>
<radialGradient id="SVGID_4_" cx="27.1187" cy="44.2695" r="32.0658" gradientTransform="matrix(0.9842 0 0 1 1.4979 0)" gradientUnits="userSpaceOnUse">
	<stop  offset="0.7394" style="stop-color:#CBD4DB"/>
	<stop  offset="0.856" style="stop-color:#D3DCE2"/>
	<stop  offset="1" style="stop-color:#E4ECF2"/>
	<a:midPointStop  offset="0.7394" style="stop-color:#CBD4DB"/>
	<a:midPointStop  offset="0.6098" style="stop-color:#CBD4DB"/>
	<a:midPointStop  offset="1" style="stop-color:#E4ECF2"/>
</radialGradient>
<path fill="url(#SVGID_4_)" d="M2.271,7.055c-1.473,0.441,3.154,8.51,11.287,10.98c0.588,3.729,10.156,4.453,19.013,9.672
	c8.959,5.279,26.429,22.5,5.97,29.502c22.202,1.023,23.147-25.01,9.379-39.29C36.625,6.206,18.962,2.04,2.271,7.055z"/>
<linearGradient id="SVGID_5_" gradientUnits="userSpaceOnUse" x1="53.5684" y1="28.0815" x2="53.5684" y2="13.8735">
	<stop  offset="0" style="stop-color:#6E8189"/>
	<stop  offset="0.1228" style="stop-color:#798B92"/>
	<stop  offset="0.3913" style="stop-color:#8B9BA2"/>
	<stop  offset="0.6757" style="stop-color:#96A5AB"/>
	<stop  offset="1" style="stop-color:#99A8AE"/>
	<a:midPointStop  offset="0" style="stop-color:#6E8189"/>
	<a:midPointStop  offset="0.2667" style="stop-color:#6E8189"/>
	<a:midPointStop  offset="1" style="stop-color:#99A8AE"/>
</linearGradient>
<path fill="url(#SVGID_5_)" d="M45.596,14.686c-2.095,2.988,2.956,8.957,15.455,13.279C66.162,29.781,49.13,9.645,45.596,14.686z"/>
<path fill="#6E8189" d="M32.571,13.684c0,0,1.426-1.857,1.468-3.377c0.049-1.541,0.572-4.805-1.337-5.785
	c0,0,2.443,0.396,2.328,4.129C34.921,12.389,33.823,12.858,32.571,13.684z"/>
<path fill="#6E8189" d="M35.777,14.686c0,0,1.426-1.857,1.469-3.375c0.048-1.543,0.57-4.805-1.338-5.787
	c0,0,2.443,0.396,2.328,4.129C38.126,13.393,37.028,13.86,35.777,14.686z"/>
<path fill="#6E8189" d="M38.951,15.565c0,0,1.427-1.857,1.469-3.377c0.049-1.541,0.572-4.805-1.337-5.785
	c0,0,2.443,0.396,2.328,4.129C41.302,14.27,40.204,14.739,38.951,15.565z"/>
<ellipse fill="#302C3B" cx="21.278" cy="5.526" rx="1.992" ry="2.004"/>
<path id="Shape_57_" fill="#6E8189" d="M20.862,4.601c0,0.697-0.83,0.697-0.83,0C20.032,3.902,20.862,3.902,20.862,4.601
	L20.862,4.601z"/>
<path fill="#FFFFFF" d="M13.559,18.036c-2.022-6.672,9.524-0.303,17.822-6.672C24.847,13.866,3.101,8.432,13.559,18.036z"/>
<radialGradient id="SVGID_6_" cx="19.4033" cy="15.0239" r="7.0003" gradientTransform="matrix(0.9842 0 0 1 1.4979 0)" gradientUnits="userSpaceOnUse">
	<stop  offset="0" style="stop-color:#F5000D"/>
	<stop  offset="0.2223" style="stop-color:#F2000D"/>
	<stop  offset="0.4173" style="stop-color:#E7000B"/>
	<stop  offset="0.6021" style="stop-color:#D50009"/>
	<stop  offset="0.7805" style="stop-color:#BC0106"/>
	<stop  offset="0.9529" style="stop-color:#9B0101"/>
	<stop  offset="1" style="stop-color:#910100"/>
	<a:midPointStop  offset="0" style="stop-color:#F5000D"/>
	<a:midPointStop  offset="0.7333" style="stop-color:#F5000D"/>
	<a:midPointStop  offset="1" style="stop-color:#910100"/>
</radialGradient>
<path fill="url(#SVGID_6_)" d="M27.861,12.012c0,0-1.165,0.334-1.598,1.627c-0.286-0.148-0.911-1.531-0.911-1.531
	s-1.406,0.23-1.916,2.053c-0.341-0.213-1.102-2.072-1.102-2.072s-1.453,0.574-1.709,2.246c-0.34-0.34-1.013-2.301-1.013-2.301
	s-1.445,0.877-1.336,2.313c-0.369-0.268-1.544-2.324-1.544-2.324s-0.915,0.871-0.655,2.459c-0.418-0.158-2.156-2.291-2.156-2.291
	s-0.464,1.34-0.162,2.906c-1.405-0.691-2.358-2.162-2.358-2.162s0.192,1.572,0.919,2.848c0,0-0.35,0.143-1.007-0.24
	c0.533,0.994,1.576,2.014,2.245,2.494c-1.659-5.668,8.259-0.924,16.317-5.668C29.884,12.362,28.748,12.665,27.861,12.012z"/>
</svg>
