<?xml version="1.0" encoding="utf-8"?>
<!-- Generator: Adobe Illustrator 15.0.0, SVG Export Plug-In . SVG Version: 6.00 Build 0)  -->
<!DOCTYPE svg PUBLIC "-//W3C//DTD SVG 1.1//EN" "http://www.w3.org/Graphics/SVG/1.1/DTD/svg11.dtd" [
	<!ENTITY ns_flows "http://ns.adobe.com/Flows/1.0/">
	<!ENTITY ns_extend "http://ns.adobe.com/Extensibility/1.0/">
	<!ENTITY ns_ai "http://ns.adobe.com/AdobeIllustrator/10.0/">
	<!ENTITY ns_graphs "http://ns.adobe.com/Graphs/1.0/">
]>
<svg version="1.1" id="Layer_1" xmlns:x="&ns_extend;" xmlns:i="&ns_ai;" xmlns:graph="&ns_graphs;"
	 xmlns="http://www.w3.org/2000/svg" xmlns:xlink="http://www.w3.org/1999/xlink" xmlns:a="http://ns.adobe.com/AdobeSVGViewerExtensions/3.0/"
	 x="0px" y="0px" width="64px" height="64px" viewBox="0 0 64 64" enable-background="new 0 0 64 64" xml:space="preserve">
<path fill-rule="evenodd" clip-rule="evenodd" fill="#302C3B" d="M31.998,25.499C16.596,4.595-3.875,0.866,3.582,12.548
	c8.244,12.912-2.18,18.422,6.967,19.996c-10.002,11.753,5.617,33.095,14.51,22.671c4.777-5.598,3.432-12.402,6.939-16.458
	c3.51,4.056,2.164,10.86,6.941,16.458c8.893,10.424,24.512-10.918,14.512-22.671c9.146-1.574-1.277-7.084,6.967-19.996
	C67.875,0.866,47.402,4.595,31.998,25.499z"/>
<path fill="#FFE8BB" d="M53.482,12.894c-1.887,2.41-4.488,1.781-4.865,0C48.021,10.083,54.928,11.042,53.482,12.894z"/>
<path fill="#FFE8BB" d="M55.391,10.245c0.344-1.994,2.055-2.445,2.832-1.523C59.449,10.169,55.125,11.778,55.391,10.245z"/>
<path fill="#FFE8BB" d="M54.301,13.28c1.744-1.025,3.193-0.01,2.994,1.18C56.982,16.333,52.963,14.069,54.301,13.28z"/>
<path fill="#C21413" d="M54.779,18.683c0.607-0.479,0.723-1.396,0.689-2.043c-0.061-1.191-4.531-1.287-4.531-1.287
	s-1.094,1.535-2.311,3.016C51.576,18.917,53.996,19.3,54.779,18.683z"/>
<path fill="#D47706" d="M54.871,20.304c-2.789-0.242-7.08-0.721-7.08-0.721c-1.104,1.053-3.373,2.967-3.373,2.967
	c3.326,1.191,6.992,2.291,9.918,2.49C55.316,25.104,56.146,20.413,54.871,20.304z"/>
<path fill="#C21413" d="M48.963,15.366c0,0-3.15-0.498-4.584,0.387c-0.775,0.477-8.23,7.549-10.566,9.873v1.969
	C38.682,24.593,44.916,21.106,48.963,15.366z"/>
<path fill="#F59E01" d="M54.459,27.198c-2.514-1.066-11.104-3.895-11.729-3.617c-1.354,0.604-8.918,4.721-8.918,4.721v1.248
	c14.154-1.271,19.564,1.605,20.061,0.973C54.33,29.938,55.363,27.581,54.459,27.198z"/>
<path fill="#C21413" d="M9.221,18.683c-0.609-0.479-0.725-1.396-0.691-2.043c0.063-1.191,4.531-1.287,4.531-1.287
	s1.094,1.535,2.313,3.016C12.424,18.917,10.004,19.3,9.221,18.683z"/>
<path fill="#D47706" d="M9.127,20.304c2.789-0.242,7.082-0.721,7.082-0.721c1.104,1.053,3.371,2.967,3.371,2.967
	c-3.326,1.191-6.99,2.291-9.916,2.49C8.684,25.104,7.852,20.413,9.127,20.304z"/>
<path fill="#C21413" d="M15.035,15.366c0,0,3.152-0.498,4.586,0.387c0.773,0.477,8.229,7.549,10.564,9.873v1.969
	C25.316,24.593,19.082,21.106,15.035,15.366z"/>
<path fill="#F59E01" d="M9.539,27.198c2.514-1.066,11.104-3.895,11.727-3.617c1.355,0.604,8.92,4.721,8.92,4.721v1.248
	c-14.152-1.271-19.563,1.605-20.061,0.973C9.67,29.938,8.635,27.581,9.539,27.198z"/>
<path fill="#FFE8BB" d="M10.518,12.894c1.887,2.41,4.486,1.781,4.865,0C15.977,10.083,9.07,11.042,10.518,12.894z"/>
<path fill="#FFE8BB" d="M8.609,10.245C8.266,8.251,6.555,7.8,5.775,8.722C4.551,10.169,8.875,11.778,8.609,10.245z"/>
<path fill="#FFE8BB" d="M9.697,13.28c-1.742-1.025-3.191-0.01-2.992,1.18C7.016,16.333,11.035,14.069,9.697,13.28z"/>
<path fill="#F9B700" d="M28.258,42.854c-0.529,0.748-1.387-2.827-3.178-3.729c-0.773-0.391-0.939-1.068,7.441-7.1v1
	C29.684,34.937,29.473,41.126,28.258,42.854z"/>
<path fill="#F9B700" d="M13.648,32.392c0.914-0.361,9.66-0.621,9.66-0.621c-2.684,5.311-9.969,4.186-13.297,6.367
	C9.691,36.45,12.539,32.827,13.648,32.392z"/>
<path fill="#F9B700" d="M31.227,31.864c-11.059,7.184-10.223,10.3-13.172,8.313c-0.441-0.297,3.17-4.092,6.771-7.924
	C25.949,31.06,31.227,31.864,31.227,31.864z"/>
<path fill="#FFE12C" d="M19.398,42.174c0.242,1.004-5.371,4.707-6.258,9.004C5.762,43.723,18.818,39.786,19.398,42.174z"/>
<path fill="#FFE12C" d="M18.818,37.081c0,0-1.848,2.977-2.9,3.293c-4.055,1.215-5.723,4.331-5.723,4.331
	C7.057,38.903,15.064,37.546,18.818,37.081z"/>
<path fill="#FFE12C" d="M23.594,39.37c7.152,5.905,1.93,11.575-0.873,14.2C9.611,50.164,18.135,47.568,23.594,39.37z"/>
<path fill="#FFE8BB" d="M17.008,53.307c-0.336-1.949-2.006-2.389-2.766-1.488C13.047,53.232,17.268,54.803,17.008,53.307z"/>
<path fill="#FFE8BB" d="M21.074,54.043c-1.701-1.002-3.115-0.01-2.922,1.152C18.457,57.023,22.381,54.813,21.074,54.043z"/>
<path fill="#F9B700" d="M35.74,42.854c0.529,0.748,1.385-2.827,3.178-3.729c0.773-0.391,0.938-1.068-7.441-7.1v1
	C34.314,34.937,34.523,41.126,35.74,42.854z"/>
<path fill="#F9B700" d="M50.352,32.392c-0.916-0.361-9.662-0.621-9.662-0.621c2.684,5.311,9.971,4.186,13.297,6.367
	C54.307,36.45,51.459,32.827,50.352,32.392z"/>
<path fill="#F9B700" d="M32.771,31.864c11.059,7.184,10.223,10.3,13.172,8.313c0.443-0.297-3.17-4.092-6.771-7.924
	C38.049,31.06,32.771,31.864,32.771,31.864z"/>
<path fill="#FFE12C" d="M44.602,42.174c-0.244,1.004,5.369,4.707,6.258,9.004C58.238,43.723,45.18,39.786,44.602,42.174z"/>
<path fill="#FFE12C" d="M45.18,37.081c0,0,1.85,2.977,2.902,3.293c4.053,1.215,5.721,4.331,5.721,4.331
	C56.941,38.903,48.936,37.546,45.18,37.081z"/>
<path fill="#FFE12C" d="M40.402,39.37c-7.152,5.905-1.93,11.575,0.875,14.2C54.389,50.164,45.865,47.568,40.402,39.37z"/>
<path fill="#FFE8BB" d="M46.99,53.307c0.336-1.949,2.006-2.389,2.766-1.488C50.953,53.232,46.73,54.803,46.99,53.307z"/>
<path fill="#FFE8BB" d="M42.924,54.043c1.703-1.002,3.117-0.01,2.924,1.152C45.543,57.023,41.617,54.813,42.924,54.043z"/>
<radialGradient id="SVGID_1_" cx="32" cy="30.5068" r="13.3878" gradientTransform="matrix(-4.371139e-008 1 -0.251 -1.097335e-008 39.6585 -1.4932)" gradientUnits="userSpaceOnUse">
	<stop  offset="0" style="stop-color:#3E4A52"/>
	<stop  offset="0.3655" style="stop-color:#3B444D"/>
	<stop  offset="0.8728" style="stop-color:#33323F"/>
	<stop  offset="1" style="stop-color:#302C3B"/>
	<a:midPointStop  offset="0" style="stop-color:#3E4A52"/>
	<a:midPointStop  offset="0.6364" style="stop-color:#3E4A52"/>
	<a:midPointStop  offset="1" style="stop-color:#302C3B"/>
</radialGradient>
<path fill-rule="evenodd" clip-rule="evenodd" fill="url(#SVGID_1_)" d="M38.161,8.813c-2.967,3.492-3.146,9.209-4.871,11.049
	c-0.161,0.172-0.827-1.356-0.749-0.23c0.062,0.883-1.144,0.883-1.082,0c0.078-1.126-0.588,0.402-0.749,0.23
	c-1.725-1.84-1.904-7.557-4.871-11.049c-1.063-1.249-3.083-0.165-0.146,0.48c1.13,0.248,5.037,11.41,4.217,13.148
	C28.037,26.42,28.637,51.761,32,51.761s3.963-25.341,2.09-29.319c-0.82-1.738,3.087-12.9,4.217-13.148
	C41.244,8.647,39.224,7.563,38.161,8.813z"/>
</svg>
