<?xml version="1.0" encoding="utf-8"?>
<!-- Generator: Adobe Illustrator 15.0.0, SVG Export Plug-In . SVG Version: 6.00 Build 0)  -->
<!DOCTYPE svg PUBLIC "-//W3C//DTD SVG 1.1//EN" "http://www.w3.org/Graphics/SVG/1.1/DTD/svg11.dtd" [
	<!ENTITY ns_flows "http://ns.adobe.com/Flows/1.0/">
	<!ENTITY ns_extend "http://ns.adobe.com/Extensibility/1.0/">
	<!ENTITY ns_ai "http://ns.adobe.com/AdobeIllustrator/10.0/">
	<!ENTITY ns_graphs "http://ns.adobe.com/Graphs/1.0/">
]>
<svg version="1.1" id="Layer_1" xmlns:x="&ns_extend;" xmlns:i="&ns_ai;" xmlns:graph="&ns_graphs;"
	 xmlns="http://www.w3.org/2000/svg" xmlns:xlink="http://www.w3.org/1999/xlink" xmlns:a="http://ns.adobe.com/AdobeSVGViewerExtensions/3.0/"
	 x="0px" y="0px" width="64px" height="64px" viewBox="0 0 64 64" enable-background="new 0 0 64 64" xml:space="preserve">
<path fill="#A3815A" d="M26.701,11.51c-0.744-0.537-1.396-1-1.915-1.355c-1.426-0.979-4.402,3.398-2.975,4.375
	c0.498,0.342,1.169,0.785,1.954,1.295L26.701,11.51z"/>
<path fill="#BA9367" d="M30.316,8.223c-0.523-0.756-0.984-1.41-1.355-1.918c-1.018-1.399-5.278,1.729-4.257,3.129
	c0.356,0.488,0.841,1.131,1.413,1.875L30.316,8.223z"/>
<path fill="#CFA472" d="M34.59,6.344c-0.239-0.889-0.455-1.661-0.635-2.265c-0.491-1.661-5.549-0.151-5.057,1.511
	c0.172,0.581,0.414,1.35,0.703,2.242L34.59,6.344z"/>
<path fill="#DEB07A" d="M39.434,5.456c-0.049-0.919-0.098-1.719-0.146-2.346c-0.135-1.729-5.396-1.318-5.261,0.41
	c0.045,0.604,0.121,1.408,0.219,2.342L39.434,5.456z"/>
<path fill="#DEB07A" d="M44.205,6.139c0.182-0.903,0.332-1.689,0.441-2.311c0.299-1.707-4.896-2.626-5.196-0.92
	c-0.106,0.598-0.231,1.395-0.371,2.322L44.205,6.139z"/>
<path fill="#F3CD9F" d="M48.773,8.694c0.412-0.822,0.765-1.541,1.033-2.11c0.736-1.567-4.033-3.833-4.771-2.267
	c-0.259,0.549-0.59,1.284-0.969,2.143L48.773,8.694z"/>
<path fill="#F3CD9F" d="M53.24,12.331c0.561-0.73,1.041-1.367,1.412-1.877c1.02-1.398-3.24-4.527-4.26-3.129
	c-0.356,0.49-0.82,1.148-1.353,1.92L53.24,12.331z"/>
<path fill="#F3CD9F" d="M56.355,17.272c0.754-0.525,1.406-0.984,1.914-1.357c1.393-1.021-1.713-5.303-3.109-4.281
	c-0.488,0.357-1.129,0.842-1.871,1.414L56.355,17.272z"/>
<path fill="#F3CD9F" d="M58.161,22.51c0.847-0.352,1.581-0.666,2.153-0.922c1.578-0.707-0.568-5.547-2.145-4.842
	c-0.553,0.246-1.279,0.584-2.124,0.988L58.161,22.51z"/>
<path fill="#F3CD9F" d="M58.652,28.254c0.914-0.084,1.707-0.164,2.33-0.238c1.713-0.203,1.098-5.465-0.615-5.264
	c-0.602,0.07-1.396,0.18-2.324,0.311L58.652,28.254z"/>
<path fill="#F3CD9F" d="M57.736,33.783c0.906,0.137,1.695,0.248,2.318,0.326c1.714,0.215,2.365-5.042,0.652-5.255
	c-0.601-0.078-1.398-0.164-2.328-0.256L57.736,33.783z"/>
<path fill="#F3CD9F" d="M55.016,38.817c0.84,0.373,1.569,0.691,2.149,0.932c1.595,0.666,3.617-4.229,2.022-4.892
	c-0.559-0.236-1.305-0.531-2.178-0.871L55.016,38.817z"/>
<path fill="#DEB07A" d="M51.217,42.915c0.701,0.594,1.313,1.109,1.802,1.504c1.343,1.09,4.657-3.035,3.313-4.123
	c-0.469-0.381-1.102-0.877-1.844-1.449L51.217,42.915z"/>
<linearGradient id="SVGID_1_" gradientUnits="userSpaceOnUse" x1="23.7646" y1="24.0449" x2="58.7773" y2="24.0449">
	<stop  offset="0" style="stop-color:#302C3B"/>
	<stop  offset="1" style="stop-color:#464E54"/>
	<a:midPointStop  offset="0" style="stop-color:#302C3B"/>
	<a:midPointStop  offset="0.5212" style="stop-color:#302C3B"/>
	<a:midPointStop  offset="1" style="stop-color:#464E54"/>
</linearGradient>
<path fill="url(#SVGID_1_)" d="M58.043,23.063l-2.137,0.344l2.255-0.896c0,0-0.229-2.555-2.115-4.775l-1.485,0.738l1.795-1.201
	c0,0-0.758-2.451-3.066-4.225l-1.682,1.34l1.633-2.057c0,0-1.465-2.102-4.2-3.086l-1.692,2.537l1.426-3.088
	c0,0-1.807-1.756-4.641-2.221l0.072-0.334c0,0-2.238-1.238-5.126-0.908l-0.021,0.15c-0.789-0.131-2.729-0.32-4.813,0.48l0.057,0.484
	c-0.729,0.025-2.751,0.213-4.701,1.486l0.202,0.592c-0.808,0.354-2.421,1.215-3.688,2.885l0.33,0.416
	c-0.566,0.498-1.977,1.904-2.682,4.1L42.517,35.24l8.7,7.675c0,0,2.164-1.371,3.271-4.068l-0.985-0.734l1.513,0.705
	c0,0,1.689-1.929,1.994-4.831l-1.615-0.596l2.342,0.393c0,0,1.116-2.308,0.643-5.185l-2.035-0.168l2.309-0.176
	C58.652,28.254,59.188,25.745,58.043,23.063z"/>
<linearGradient id="SVGID_2_" gradientUnits="userSpaceOnUse" x1="28.1191" y1="24.9063" x2="53.5586" y2="24.9063">
	<stop  offset="0" style="stop-color:#947552"/>
	<stop  offset="0.1904" style="stop-color:#987955"/>
	<stop  offset="0.3848" style="stop-color:#A48460"/>
	<stop  offset="0.5812" style="stop-color:#B99871"/>
	<stop  offset="0.7788" style="stop-color:#D5B38A"/>
	<stop  offset="0.9758" style="stop-color:#FAD5A9"/>
	<stop  offset="1" style="stop-color:#FFDAAD"/>
	<a:midPointStop  offset="0" style="stop-color:#947552"/>
	<a:midPointStop  offset="0.703" style="stop-color:#947552"/>
	<a:midPointStop  offset="1" style="stop-color:#FFDAAD"/>
</linearGradient>
<path fill="url(#SVGID_2_)" d="M28.119,18.553l5.459,3.42c3.013-11.418,21.23,0.07,8.938,13.267l4.866,4.29
	C66.23,21.227,36.729-2.539,28.119,18.553z"/>
<path fill="#DE8F01" d="M17.476,51.401c1.164,5.271-2.662,6.809-2.561,7.396c-0.379,0.584-3.415,0.088-3.432,0.848
	c-1.33,0.809-0.985,1.072-0.005,0.758c0.657,0.111,5.014,0.289,5.273-0.307c0.33,0.605,0.574,0.904,0.855,0.904
	c0.23,0,0.531-0.662,0.886-0.992c1.426,0.496,2.2-0.15,3.164,0.221c-0.208-1.096-2.521-0.428-2.818-2.648
	c-0.422-3.137,2.657-1.654,2.444-2.967c-0.442,0.291-2.921,0.605-1.038-3.047C18.706,50.927,17.476,51.401,17.476,51.401z"/>
<linearGradient id="SVGID_3_" gradientUnits="userSpaceOnUse" x1="2.0005" y1="34.1738" x2="45.6084" y2="34.1738" gradientTransform="matrix(1 0 0 1.0041 0 -0.3999)">
	<stop  offset="0" style="stop-color:#302C3B"/>
	<stop  offset="0.7695" style="stop-color:#515862"/>
	<stop  offset="1" style="stop-color:#5B666E"/>
	<a:midPointStop  offset="0" style="stop-color:#302C3B"/>
	<a:midPointStop  offset="0.5212" style="stop-color:#302C3B"/>
	<a:midPointStop  offset="1" style="stop-color:#5B666E"/>
</linearGradient>
<path fill="url(#SVGID_3_)" d="M41.869,31.93c14.176,8.667-15.491,32.956-30.079,16.516C-20.885,34.041,38.414-11.068,41.869,31.93z
	"/>
<path fill="#F3CD9F" d="M51.768,49.222c3.099,0.846,6.213,1.264,8.971,1.007c-11.359-7-10.192-12.097-18.307-15.832
	c-1.618-0.745-8.976,6.701-13.84,8.996c3.139,7.117,9.518,12.525,22.788,11.285c-2.407-1.277-4.509-2.665-6.4-4.072
	c4.177,1.564,8.624,2.473,12.41,2.12C55.309,51.619,53.457,50.432,51.768,49.222z"/>
<linearGradient id="SVGID_4_" gradientUnits="userSpaceOnUse" x1="27.8936" y1="127.0215" x2="55.8174" y2="127.0215" gradientTransform="matrix(0.8063 -0.5915 0.5915 0.8063 -79.8862 -38.9356)">
	<stop  offset="0" style="stop-color:#5B666E"/>
	<stop  offset="0.2305" style="stop-color:#515862"/>
	<stop  offset="1" style="stop-color:#302C3B"/>
	<a:midPointStop  offset="0" style="stop-color:#5B666E"/>
	<a:midPointStop  offset="0.4788" style="stop-color:#5B666E"/>
	<a:midPointStop  offset="1" style="stop-color:#302C3B"/>
</linearGradient>
<path fill="url(#SVGID_4_)" d="M36.347,27.73c12.79,7.94,13.388,27.228-2.158,22.523C-2.046,51.138,13.803,9.583,36.347,27.73z"/>
<path fill="#F59E01" d="M22.941,52.401c1.164,5.271-2.661,6.809-2.561,7.396c-0.379,0.584-3.415,0.088-3.432,0.848
	c-1.33,0.809-0.985,1.072-0.005,0.758c0.657,0.111,5.014,0.289,5.273-0.307c0.33,0.605,0.574,0.904,0.855,0.904
	c0.23,0,0.531-0.662,0.885-0.992c1.426,0.496,2.2-0.15,3.165,0.221c-0.209-1.096-2.522-0.428-2.818-2.648
	c-0.423-3.137,2.656-1.654,2.444-2.967c-0.442,0.291-2.922,0.605-1.038-3.047C24.171,51.927,22.941,52.401,22.941,52.401z"/>
<linearGradient id="SVGID_5_" gradientUnits="userSpaceOnUse" x1="3.5493" y1="20.0288" x2="17.5811" y2="20.0288">
	<stop  offset="0" style="stop-color:#FF4545"/>
	<stop  offset="0.3088" style="stop-color:#FC4242"/>
	<stop  offset="0.5795" style="stop-color:#F13737"/>
	<stop  offset="0.8351" style="stop-color:#E02625"/>
	<stop  offset="1" style="stop-color:#D11615"/>
	<a:midPointStop  offset="0" style="stop-color:#FF4545"/>
	<a:midPointStop  offset="0.7333" style="stop-color:#FF4545"/>
	<a:midPointStop  offset="1" style="stop-color:#D11615"/>
</linearGradient>
<path fill="url(#SVGID_5_)" d="M12.606,26.577c-1.88-5.885,1.625-8.6,2.755-9.572c7.808-6.729-7.538-14.053-6.953-3.82
	c0.569,9.967-5.685,9-4.767,18.705C7.927,32.59,12.606,26.577,12.606,26.577z"/>
<radialGradient id="SVGID_6_" cx="9.2051" cy="11.4238" r="6.3505" gradientUnits="userSpaceOnUse">
	<stop  offset="0" style="stop-color:#4ECEE6"/>
	<stop  offset="0.1728" style="stop-color:#47C5E1"/>
	<stop  offset="0.4545" style="stop-color:#33ADD3"/>
	<stop  offset="0.8081" style="stop-color:#1485BC"/>
	<stop  offset="1" style="stop-color:#006DAE"/>
	<a:midPointStop  offset="0" style="stop-color:#4ECEE6"/>
	<a:midPointStop  offset="0.6" style="stop-color:#4ECEE6"/>
	<a:midPointStop  offset="1" style="stop-color:#006DAE"/>
</radialGradient>
<path fill="url(#SVGID_6_)" d="M7.797,12.239c-0.003,0.029-0.029,4.879,0.396,5.094c6.37-0.435,8.583-6.366,6.854-8.349
	C13.407,7.104,8.316,7.601,7.797,12.239z"/>
<path opacity="0.3" fill="#1A1626" d="M26.133,28.249c2.283,2.615,6.083,0.613,5.22-2.748
	C30.176,27.012,28.046,28.131,26.133,28.249z"/>
<path opacity="0.3" fill="#1A1626" d="M27.122,34.761c2.283,2.615,6.083,0.613,5.22-2.748
	C31.164,33.524,29.034,34.644,27.122,34.761z"/>
<path opacity="0.3" fill="#1A1626" d="M17.581,28.012c2.028,2.816,6,1.182,5.456-2.246C21.723,27.161,19.497,28.077,17.581,28.012z"
	/>
<path opacity="0.3" fill="#1A1626" d="M4.563,34.708c0.979,3.33,5.268,3.105,5.892-0.309C8.753,35.278,6.349,35.405,4.563,34.708z"
	/>
<path opacity="0.3" fill="#1A1626" d="M6.585,42.712c0.979,3.33,5.268,3.105,5.892-0.309C10.775,43.282,8.371,43.409,6.585,42.712z"
	/>
<path opacity="0.3" fill="#1A1626" d="M35.699,36.915c1.982,2.271,5.281,0.533,4.532-2.385
	C39.209,35.843,37.359,36.813,35.699,36.915z"/>
<path opacity="0.3" fill="#1A1626" d="M28.592,42.706c1.982,2.27,5.281,0.531,4.533-2.387
	C32.103,41.632,30.253,42.604,28.592,42.706z"/>
<path opacity="0.3" fill="#1A1626" d="M17.794,35.353c1.067,2.818,4.765,2.338,5.079-0.658
	C21.458,35.569,19.386,35.835,17.794,35.353z"/>
<path opacity="0.3" fill="#1A1626" d="M19.712,42.712c1.051,2.824,4.751,2.367,5.083-0.627
	C23.375,42.95,21.301,43.204,19.712,42.712z"/>
<path opacity="0.3" fill="#1A1626" d="M31.019,19.593c1.443-2.646-1.327-5.141-3.806-3.428C28.797,16.669,30.35,18.07,31.019,19.593
	z"/>
<path opacity="0.3" fill="#1A1626" d="M35.164,24.906c2.945-0.639,3.021-4.365,0.104-5.121
	C35.922,21.314,35.879,23.404,35.164,24.906z"/>
<path opacity="0.3" fill="#1A1626" d="M23.379,22.344c2.946-0.639,3.021-4.365,0.104-5.121
	C24.138,18.752,24.094,20.842,23.379,22.344z"/>
<path opacity="0.3" fill="#1A1626" d="M17.645,23.994c2.032-2.225-0.064-5.308-2.88-4.236
	C16.184,20.625,17.358,22.355,17.645,23.994z"/>
<path opacity="0.3" fill="#1A1626" d="M35.164,45.272c1.982,2.27,5.281,0.531,4.532-2.387
	C38.674,44.198,36.824,45.171,35.164,45.272z"/>
<path fill="#302C3B" d="M11.82,13.569c-1.624,0-1.624-2.549,0-2.549C13.442,11.02,13.442,13.569,11.82,13.569z"/>
<path id="Shape_69_" fill="#6E8189" d="M11.603,11.85c0,0.443-0.681,0.443-0.681,0C10.922,11.405,11.603,11.405,11.603,11.85
	L11.603,11.85z"/>
<path fill="#D47706" d="M10.922,14.575c0,0-3.874,0.863-4.966,3.908C7.358,16.938,11.254,17.43,10.922,14.575z"/>
<path fill="#F59E01" d="M10.922,14.575c-2.388,0.205-1.514-1.629-2.848-0.682c-2.764,1.965-2.59,4.18-2.018,5.102
	C5.957,15.684,10.092,16.887,10.922,14.575z"/>
<radialGradient id="SVGID_7_" cx="8.7041" cy="12.4766" r="7.2958" gradientUnits="userSpaceOnUse">
	<stop  offset="0" style="stop-color:#FF4545"/>
	<stop  offset="0.3088" style="stop-color:#FC4242"/>
	<stop  offset="0.5795" style="stop-color:#F13737"/>
	<stop  offset="0.8351" style="stop-color:#E02625"/>
	<stop  offset="1" style="stop-color:#D11615"/>
	<a:midPointStop  offset="0" style="stop-color:#FF4545"/>
	<a:midPointStop  offset="0.7333" style="stop-color:#FF4545"/>
	<a:midPointStop  offset="1" style="stop-color:#D11615"/>
</radialGradient>
<path fill="url(#SVGID_7_)" d="M8.316,13.739c-0.487-0.6-0.16-2.431-0.519-1.5c-0.107,0.277-3.1,4.527-2.909,5.51
	c0.736,3.795-0.676,9.742-0.24,9.326c1.955-1.865,1.229-7.784,1.086-9.38C5.641,16.648,6.891,14.82,8.316,13.739z"/>
</svg>
