<?xml version="1.0" encoding="utf-8"?>
<!-- Generator: Adobe Illustrator 15.0.0, SVG Export Plug-In . SVG Version: 6.00 Build 0)  -->
<!DOCTYPE svg PUBLIC "-//W3C//DTD SVG 1.1//EN" "http://www.w3.org/Graphics/SVG/1.1/DTD/svg11.dtd" [
	<!ENTITY ns_flows "http://ns.adobe.com/Flows/1.0/">
	<!ENTITY ns_extend "http://ns.adobe.com/Extensibility/1.0/">
	<!ENTITY ns_ai "http://ns.adobe.com/AdobeIllustrator/10.0/">
	<!ENTITY ns_graphs "http://ns.adobe.com/Graphs/1.0/">
]>
<svg version="1.1" id="Layer_1" xmlns:x="&ns_extend;" xmlns:i="&ns_ai;" xmlns:graph="&ns_graphs;"
	 xmlns="http://www.w3.org/2000/svg" xmlns:xlink="http://www.w3.org/1999/xlink" xmlns:a="http://ns.adobe.com/AdobeSVGViewerExtensions/3.0/"
	 x="0px" y="0px" width="64px" height="64px" viewBox="0 0 64 64" enable-background="new 0 0 64 64" xml:space="preserve">
<path fill="#D6A57C" d="M53.629,24.037c-2.826,0.602-8.897,1.684-16.357,5.778c0.997,1.534,4.005,5.657,4.733,5.617
	C52.953,36.803,57.525,23.203,53.629,24.037z"/>
<linearGradient id="SVGID_1_" gradientUnits="userSpaceOnUse" x1="44.2852" y1="27.709" x2="51.2954" y2="31.7563">
	<stop  offset="0" style="stop-color:#5E412B"/>
	<stop  offset="0.0628" style="stop-color:#6B4A31"/>
	<stop  offset="0.2489" style="stop-color:#8A6041"/>
	<stop  offset="0.4287" style="stop-color:#A1704D"/>
	<stop  offset="0.5979" style="stop-color:#AF7A54"/>
	<stop  offset="0.7455" style="stop-color:#B47D56"/>
	<a:midPointStop  offset="0" style="stop-color:#5E412B"/>
	<a:midPointStop  offset="0.3212" style="stop-color:#5E412B"/>
	<a:midPointStop  offset="0.7455" style="stop-color:#B47D56"/>
</linearGradient>
<path fill="url(#SVGID_1_)" d="M52.522,25.229c-12.753,3.354-11.148,9.214-9.759,9.131C51.903,35.492,55.92,24.335,52.522,25.229z"
	/>
<path fill="#D6A57C" d="M10.371,24.037c2.826,0.602,8.898,1.684,16.357,5.778c-0.997,1.534-4.005,5.657-4.733,5.617
	C11.047,36.803,6.475,23.203,10.371,24.037z"/>
<linearGradient id="SVGID_2_" gradientUnits="userSpaceOnUse" x1="253.2012" y1="27.7095" x2="260.2106" y2="31.7563" gradientTransform="matrix(-1 0 0 1 272.916 0)">
	<stop  offset="0" style="stop-color:#5E412B"/>
	<stop  offset="0.0628" style="stop-color:#6B4A31"/>
	<stop  offset="0.2489" style="stop-color:#8A6041"/>
	<stop  offset="0.4287" style="stop-color:#A1704D"/>
	<stop  offset="0.5979" style="stop-color:#AF7A54"/>
	<stop  offset="0.7455" style="stop-color:#B47D56"/>
	<a:midPointStop  offset="0" style="stop-color:#5E412B"/>
	<a:midPointStop  offset="0.3212" style="stop-color:#5E412B"/>
	<a:midPointStop  offset="0.7455" style="stop-color:#B47D56"/>
</linearGradient>
<path fill="url(#SVGID_2_)" d="M11.478,25.229c12.753,3.354,11.148,9.214,9.759,9.131C12.097,35.492,8.08,24.335,11.478,25.229z"/>
<path fill="#D6A57C" d="M45.013,37.565c-3.064-4.845,0.547-7.906-1.712-9.253c-3.918-2.329-7.764-2.476-11.301-2.476
	c-3.535,0-7.383,0.146-11.3,2.476c-2.257,1.347,1.35,4.408-1.713,9.253c-3.068,4.847-0.265,9.086,3.406,11.943
	c3.673,2.864,0.287,9.083,5.37,11.441C28.932,61.487,30.385,62,32,62c1.617,0,3.07-0.513,4.235-1.05
	c5.088-2.358,1.696-8.577,5.368-11.441C45.277,46.651,48.077,42.412,45.013,37.565z"/>
<path fill="#B47D56" d="M43.734,33.769c0.065,1.117,0.384,2.378,1.278,3.797c3.064,4.847,0.265,9.086-3.409,11.943
	c-1.524,1.19-1.827,2.955-2.032,4.785v0.002c0-2.563,0.211-7.279,2.276-11.989C43.66,38.176,43.737,36.113,43.734,33.769z"/>
<path fill="#B47D56" d="M20.268,33.769c-0.064,1.117-0.384,2.378-1.28,3.797c-3.068,4.847-0.265,9.086,3.406,11.943
	c1.527,1.19,1.833,2.955,2.033,4.785l0.004,0.002c0-2.563-0.212-7.279-2.276-11.989C20.343,38.176,20.263,36.113,20.268,33.769z"/>
<path fill="#B47D56" d="M21.872,35.041c-0.157,0.188,2.222,1.615,3.086,4.281c0.953,2.639-0.123,5.008,0.128,5.089
	c0.205,0.174,1.849-2.319,0.791-5.343C24.859,36.036,21.933,34.791,21.872,35.041z"/>
<path fill="#B47D56" d="M42.128,35.041c0.155,0.188-2.22,1.615-3.082,4.281c-0.955,2.639,0.117,5.008-0.132,5.089
	c-0.202,0.174-1.851-2.319-0.792-5.343C39.141,36.036,42.07,34.791,42.128,35.041z"/>
<path fill="#B47D56" d="M27.498,26.061c-2.185,1.94-3.526,3.947-0.747,8.946c3.129,5.635,2.019,15.85,5.249,15.85
	c3.232,0,2.121-10.215,5.249-15.85c2.777-4.999,1.44-7.006-0.747-8.946c-1.539-0.188-3.049-0.224-4.502-0.224
	C30.549,25.837,29.042,25.872,27.498,26.061z"/>
<path fill="#302C3B" d="M39.734,40.637c-0.296,1.689,0.409,3.228,1.575,3.434c1.165,0.209,2.346-0.99,2.641-2.675
	c0.294-1.694-0.415-3.23-1.58-3.438C41.209,37.747,40.026,38.947,39.734,40.637z"/>
<path fill="#6E8189" d="M41.534,39.907c0,0.783-1.056,0.783-1.056,0C40.479,39.122,41.534,39.122,41.534,39.907z"/>
<path fill="#785647" d="M45.307,38.489c-1.247-0.258-1.364-1.13-2.655-1.13c-1.175,0-2.867,0.963-2.984,3.917
	C40.518,38.213,43.55,39.809,45.307,38.489z"/>
<path fill="#302C3B" d="M24.269,40.637c0.295,1.689-0.411,3.228-1.577,3.434c-1.166,0.209-2.344-0.99-2.639-2.675
	c-0.294-1.694,0.413-3.23,1.579-3.438C22.793,37.747,23.978,38.947,24.269,40.637z"/>
<path fill="#6E8189" d="M20.563,39.638c0,0.78,1.053,0.78,1.053,0C21.615,38.851,20.563,38.851,20.563,39.638z"/>
<path fill="#785647" d="M18.693,38.489c1.25-0.258,1.367-1.13,2.655-1.13c1.178,0,2.867,0.963,2.988,3.917
	C23.483,38.213,20.452,39.809,18.693,38.489z"/>
<path fill="#785647" d="M31.993,56.767c-0.847,4.125-2.83,3.204-3.798,2.586c-1.586-1.009,1.588,3.115,3.798,0.517
	c2.212,2.599,5.399-1.526,3.813-0.517C34.837,59.971,32.843,60.892,31.993,56.767z"/>
<path id="Shape_77_" fill="#302C3B" d="M26.824,55.536c0-2.032,2.316-2.424,5.176-2.424c2.856,0,5.176,0.392,5.176,2.424
	c0,1.619-4.122,3.05-5.176,3.05C30.944,58.586,26.824,57.155,26.824,55.536L26.824,55.536z"/>
<path fill="#1A1626" d="M36.23,55.837c0.519-2.224-3.612,0.91-3.04,2.311C34.699,56.641,35.998,56.838,36.23,55.837z"/>
<path fill="#1A1626" d="M27.768,55.837c-0.517-2.224,3.614,0.91,3.04,2.311C29.301,56.641,28.002,56.838,27.768,55.837z"/>
<path fill="#785647" d="M61.411,2.271c-0.214-0.715-1.559,0.117-1.434,0.995c0.207,1.465,0.422,4.837-1.597,6.575
	c0.138-1.401-0.253-3.205-0.697-3.914c-0.229-0.361-0.976,0.112-0.946,0.788c0.136,3.126,0.142,3.627-0.016,4.684
	c-0.156,1.053-0.909-1.643-2.392-4.693c-0.279-0.576-1.309,0.247-1.06,0.756c1.787,3.656,2.223,6.761,1.293,9.229
	c-1.091,2.9-3.924,4.559-6.251,5.584c0.365-1.479,0.291-3.512-0.054-4.074c-0.302-0.488-0.82-0.141-0.965,0.212
	c-0.261,0.633-0.842,3.919-2.147,4.699c-1.009,0.604-4.935,0.993-5.785,1.234c0.039-0.303,1.579-4.588-0.988-9.048
	c-0.357-0.62-1.516,0.079-1.251,0.74c2.178,5.429,0.003,8.391-1.571,9.475c-2.284,1.573,2.027,3.36,2.478,2.013
	c0.201-0.604,1.864-0.868,3.789-1.178c4.851-0.773,12.968-2.071,15.813-11.238c0.444-1.428,1.255-2.499,2.04-3.531
	C61.263,9.479,62.909,7.307,61.411,2.271z"/>
<path fill="#785647" d="M4.33,11.578c0.785,1.032,1.596,2.104,2.04,3.531c2.845,9.167,10.962,10.465,15.813,11.238
	c1.925,0.31,3.588,0.574,3.789,1.178c0.45,1.348,4.762-0.439,2.478-2.013c-1.574-1.084-3.749-4.046-1.571-9.475
	c0.265-0.661-0.894-1.36-1.251-0.74c-2.567,4.46-1.027,8.745-0.988,9.048c-0.851-0.241-4.776-0.631-5.785-1.234
	c-1.306-0.78-1.887-4.066-2.147-4.699c-0.145-0.353-0.663-0.7-0.965-0.212c-0.345,0.563-0.419,2.596-0.054,4.074
	c-2.327-1.025-5.16-2.684-6.251-5.584c-0.93-2.469-0.494-5.573,1.293-9.229c0.249-0.509-0.78-1.332-1.06-0.756
	c-1.482,3.051-2.235,5.746-2.392,4.693c-0.157-1.057-0.151-1.558-0.016-4.684c0.029-0.676-0.718-1.149-0.946-0.788
	C5.872,6.636,5.481,8.439,5.619,9.841C3.601,8.103,3.815,4.73,4.022,3.266c0.125-0.878-1.22-1.71-1.434-0.995
	C1.091,7.307,2.737,9.479,4.33,11.578z"/>
</svg>
