<?xml version="1.0" encoding="utf-8"?>
<!-- Generator: Adobe Illustrator 15.0.0, SVG Export Plug-In . SVG Version: 6.00 Build 0)  -->
<!DOCTYPE svg PUBLIC "-//W3C//DTD SVG 1.1//EN" "http://www.w3.org/Graphics/SVG/1.1/DTD/svg11.dtd" [
	<!ENTITY ns_flows "http://ns.adobe.com/Flows/1.0/">
	<!ENTITY ns_extend "http://ns.adobe.com/Extensibility/1.0/">
	<!ENTITY ns_ai "http://ns.adobe.com/AdobeIllustrator/10.0/">
	<!ENTITY ns_graphs "http://ns.adobe.com/Graphs/1.0/">
]>
<svg version="1.1" id="Layer_1" xmlns:x="&ns_extend;" xmlns:i="&ns_ai;" xmlns:graph="&ns_graphs;"
	 xmlns="http://www.w3.org/2000/svg" xmlns:xlink="http://www.w3.org/1999/xlink" xmlns:a="http://ns.adobe.com/AdobeSVGViewerExtensions/3.0/"
	 x="0px" y="0px" width="64px" height="64px" viewBox="0 0 64 64" enable-background="new 0 0 64 64" xml:space="preserve">
<path fill="#302C3B" d="M36.739,19.586c-0.971,0-1.758-0.779-1.758-1.743c0-0.963,0.787-1.744,1.758-1.744
	c0.969,0,1.756,0.782,1.756,1.744C38.497,18.807,37.708,19.586,36.739,19.586z"/>
<path id="Shape_21_" fill="#6E8189" d="M37.396,17.575c-0.666,0-0.666-1,0-1C38.063,16.576,38.063,17.575,37.396,17.575
	L37.396,17.575z"/>
<path fill="#302C3B" d="M25.505,17.842c0-0.963,0.785-1.744,1.754-1.744c0.973,0,1.758,0.782,1.758,1.744
	c0,0.964-0.785,1.743-1.758,1.743C26.292,19.586,25.503,18.807,25.505,17.842z"/>
<path id="Shape_7_" fill="#6E8189" d="M26.603,17.575c-0.666,0-0.666-1,0-1C27.271,16.575,27.269,17.575,26.603,17.575
	L26.603,17.575z"/>
<path fill="#AF1F23" d="M56.854,50.967c-0.443,1.619-1.234,6.854-0.922,6.765c2.251-1.747,3.05-5.421,3.047-6.642
	C58.979,51.09,57.273,49.639,56.854,50.967z"/>
<linearGradient id="SVGID_1_" gradientUnits="userSpaceOnUse" x1="-10.4199" y1="405.5537" x2="-10.4199" y2="413.1758" gradientTransform="matrix(0.9871 0.16 -0.16 0.9871 131.8368 -354.7588)">
	<stop  offset="0" style="stop-color:#B00000"/>
	<stop  offset="1" style="stop-color:#FF6800"/>
	<a:midPointStop  offset="0" style="stop-color:#B00000"/>
	<a:midPointStop  offset="0.5" style="stop-color:#B00000"/>
	<a:midPointStop  offset="1" style="stop-color:#FF6800"/>
</linearGradient>
<path fill="url(#SVGID_1_)" d="M53.852,43.451c-2.523,0.634-0.341,2.587,2.483,7.807c0.487,0.9,2.605,0.301,3.096-0.607
	C59.92,49.74,54.82,43.429,53.852,43.451z"/>
<linearGradient id="SVGID_2_" gradientUnits="userSpaceOnUse" x1="-18.8813" y1="403.7705" x2="-18.8813" y2="407.8994" gradientTransform="matrix(0.9871 0.16 -0.16 0.9871 131.8368 -354.7588)">
	<stop  offset="0" style="stop-color:#B00000"/>
	<stop  offset="1" style="stop-color:#FF6800"/>
	<a:midPointStop  offset="0" style="stop-color:#B00000"/>
	<a:midPointStop  offset="0.5" style="stop-color:#B00000"/>
	<a:midPointStop  offset="1" style="stop-color:#FF6800"/>
</linearGradient>
<path fill="url(#SVGID_2_)" d="M43.179,42.961c0,0,1.683,1.036,10.295,2.802c0.58,0.052,1.031-1.177,0.872-1.864
	c-0.157-0.688-5.852-4.154-10.683-3.447C43.664,40.449,40.62,40.895,43.179,42.961z"/>
<path fill="#AF1F23" d="M52.191,10.009c0,0-7.107-12.63-16.793-6.169c-0.305,1.077,5.268-0.893,6.902,2.149
	C44.848,10.725,50.389,12.057,52.191,10.009z"/>
<linearGradient id="SVGID_3_" gradientUnits="userSpaceOnUse" x1="100.3467" y1="-94.9243" x2="100.3467" y2="-85.376" gradientTransform="matrix(1 0 0 -1 -56 -80)">
	<stop  offset="0" style="stop-color:#B00000"/>
	<stop  offset="1" style="stop-color:#FF6800"/>
	<a:midPointStop  offset="0" style="stop-color:#B00000"/>
	<a:midPointStop  offset="0.5" style="stop-color:#B00000"/>
	<a:midPointStop  offset="1" style="stop-color:#FF6800"/>
</linearGradient>
<path fill="url(#SVGID_3_)" d="M40.984,7.552c1.521-0.807,2.322-0.674,2.322-0.674c0.865-1.533,2.428-0.752,2.428-0.752
	s3.232-3.283,6.457,3.883l-3.363,4.915c-9.525-2.151-12.326-7.371-12.326-7.371S38.465,6.017,40.984,7.552z"/>
<linearGradient id="SVGID_4_" gradientUnits="userSpaceOnUse" x1="104.5068" y1="-95.4956" x2="110.7471" y2="-95.4956" gradientTransform="matrix(1 0 0 -1 -56 -80)">
	<stop  offset="0" style="stop-color:#B00000"/>
	<stop  offset="1" style="stop-color:#FF6800"/>
	<a:midPointStop  offset="0" style="stop-color:#B00000"/>
	<a:midPointStop  offset="0.5" style="stop-color:#B00000"/>
	<a:midPointStop  offset="1" style="stop-color:#FF6800"/>
</linearGradient>
<path fill="url(#SVGID_4_)" d="M52.596,21.472c-0.479,0.418-3.988-4.884-4.088-7.365c-0.051-1.301,1.842-4.311,3.15-4.604
	C52.9,9.226,57.361,17.302,52.596,21.472z"/>
<linearGradient id="SVGID_5_" gradientUnits="userSpaceOnUse" x1="101.5947" y1="-105.1265" x2="108.9434" y2="-97.7778" gradientTransform="matrix(1 0 0 -1 -56 -80)">
	<stop  offset="0" style="stop-color:#B00000"/>
	<stop  offset="1" style="stop-color:#FF6800"/>
	<a:midPointStop  offset="0" style="stop-color:#B00000"/>
	<a:midPointStop  offset="0.5" style="stop-color:#B00000"/>
	<a:midPointStop  offset="1" style="stop-color:#FF6800"/>
</linearGradient>
<path fill="url(#SVGID_5_)" d="M54.258,19.143c0.277,0.727-3.752,6.01-7.748,6.862l-2.59-2.553c0,0,3.297-4.502,5.922-5.583
	C50.518,17.693,53.98,18.416,54.258,19.143z"/>
<path fill="#AF1F23" d="M11.811,10.009c0,0,7.107-12.63,16.793-6.169c0.305,1.077-5.268-0.893-6.904,2.149
	C19.152,10.725,13.611,12.057,11.811,10.009z"/>
<linearGradient id="SVGID_6_" gradientUnits="userSpaceOnUse" x1="279.7119" y1="-94.9243" x2="279.7119" y2="-85.376" gradientTransform="matrix(-1 0 0 -1 299.3672 -80)">
	<stop  offset="0" style="stop-color:#B00000"/>
	<stop  offset="1" style="stop-color:#FF6800"/>
	<a:midPointStop  offset="0" style="stop-color:#B00000"/>
	<a:midPointStop  offset="0.5" style="stop-color:#B00000"/>
	<a:midPointStop  offset="1" style="stop-color:#FF6800"/>
</linearGradient>
<path fill="url(#SVGID_6_)" d="M23.016,7.552c-1.521-0.807-2.322-0.674-2.322-0.674c-0.863-1.533-2.426-0.752-2.426-0.752
	s-3.234-3.283-6.457,3.883l3.361,4.915C24.699,12.773,27.5,7.554,27.5,7.554S25.537,6.017,23.016,7.552z"/>
<linearGradient id="SVGID_7_" gradientUnits="userSpaceOnUse" x1="283.874" y1="-95.4956" x2="290.1123" y2="-95.4956" gradientTransform="matrix(-1 0 0 -1 299.3672 -80)">
	<stop  offset="0" style="stop-color:#B00000"/>
	<stop  offset="1" style="stop-color:#FF6800"/>
	<a:midPointStop  offset="0" style="stop-color:#B00000"/>
	<a:midPointStop  offset="0.5" style="stop-color:#B00000"/>
	<a:midPointStop  offset="1" style="stop-color:#FF6800"/>
</linearGradient>
<path fill="url(#SVGID_7_)" d="M11.404,21.472c0.479,0.418,3.99-4.884,4.088-7.365c0.051-1.301-1.84-4.311-3.15-4.604
	C11.102,9.226,6.641,17.302,11.404,21.472z"/>
<linearGradient id="SVGID_8_" gradientUnits="userSpaceOnUse" x1="280.96" y1="-105.127" x2="288.3086" y2="-97.7783" gradientTransform="matrix(-1 0 0 -1 299.3672 -80)">
	<stop  offset="0" style="stop-color:#B00000"/>
	<stop  offset="1" style="stop-color:#FF6800"/>
	<a:midPointStop  offset="0" style="stop-color:#B00000"/>
	<a:midPointStop  offset="0.5" style="stop-color:#B00000"/>
	<a:midPointStop  offset="1" style="stop-color:#FF6800"/>
</linearGradient>
<path fill="url(#SVGID_8_)" d="M9.744,19.143c-0.277,0.727,3.75,6.01,7.746,6.862l2.592-2.553c0,0-3.299-4.502-5.922-5.583
	C13.484,17.693,10.021,18.416,9.744,19.143z"/>
<path fill="#AF1F23" d="M49.859,57.011c0.199,1.331,1.465,5.229,1.732,4.978c1.504-2.556,0.854-5.445,0.377-6.234
	C51.969,55.754,49.752,55.885,49.859,57.011z"/>
<linearGradient id="SVGID_9_" gradientUnits="userSpaceOnUse" x1="-14.332" y1="-68.2456" x2="-14.332" y2="-61.5806" gradientTransform="matrix(0.8989 -0.4381 -0.4381 -0.8989 34.0832 -10.9635)">
	<stop  offset="0" style="stop-color:#B00000"/>
	<stop  offset="1" style="stop-color:#FF6800"/>
	<a:midPointStop  offset="0" style="stop-color:#B00000"/>
	<a:midPointStop  offset="0.5" style="stop-color:#B00000"/>
	<a:midPointStop  offset="1" style="stop-color:#FF6800"/>
</linearGradient>
<path fill="url(#SVGID_9_)" d="M48.645,50.465c-2.748,0.896,0.15,5.766,0.529,6.172c0.684,0.733,2.336,0.031,3.078-0.815
	C52.996,54.977,49.645,50.309,48.645,50.465z"/>
<linearGradient id="SVGID_10_" gradientUnits="userSpaceOnUse" x1="99.1641" y1="-132.5234" x2="99.1641" y2="-125.4102" gradientTransform="matrix(1 0 0 -1 -56 -80)">
	<stop  offset="0" style="stop-color:#B00000"/>
	<stop  offset="1" style="stop-color:#FF6800"/>
	<a:midPointStop  offset="0" style="stop-color:#B00000"/>
	<a:midPointStop  offset="0.5" style="stop-color:#B00000"/>
	<a:midPointStop  offset="1" style="stop-color:#FF6800"/>
</linearGradient>
<path fill="url(#SVGID_10_)" d="M37.438,45.74c2.633-1.781,11.588,4.195,11.74,4.863c0.154,0.668-0.564,1.914-1.182,1.92
	c-9.119-0.926-10.674-3.787-10.674-3.787S36.818,46.158,37.438,45.74z"/>
<linearGradient id="SVGID_11_" gradientUnits="userSpaceOnUse" x1="200.3662" y1="-130.0962" x2="200.3662" y2="-119.0264" gradientTransform="matrix(0.9538 0.3006 0.3006 -0.9538 -104.7648 -149.4058)">
	<stop  offset="0" style="stop-color:#B00000"/>
	<stop  offset="1" style="stop-color:#FF6800"/>
	<a:midPointStop  offset="0" style="stop-color:#B00000"/>
	<a:midPointStop  offset="0.5" style="stop-color:#B00000"/>
	<a:midPointStop  offset="1" style="stop-color:#FF6800"/>
</linearGradient>
<path fill="url(#SVGID_11_)" d="M43.047,32.643c-0.4-0.744,0.332-5.119,11.055-7.122c0.57-0.207,0.541,1.533,0.582,2.309
	C48.104,35.65,44.373,35.112,43.047,32.643z"/>
<path fill="#AF1F23" d="M59.416,19.591c0.012-1.857,1.195-8.122,1.482-7.939c1.766,2.505,0.963,6.501,0.615,7.804
	C61.516,19.457,59.463,21.128,59.416,19.591z"/>
<linearGradient id="SVGID_12_" gradientUnits="userSpaceOnUse" x1="206.293" y1="-121.2998" x2="206.293" y2="-110.5806" gradientTransform="matrix(0.9538 0.3006 0.3006 -0.9538 -104.7648 -149.4058)">
	<stop  offset="0" style="stop-color:#B00000"/>
	<stop  offset="1" style="stop-color:#FF6800"/>
	<a:midPointStop  offset="0" style="stop-color:#B00000"/>
	<a:midPointStop  offset="0.5" style="stop-color:#B00000"/>
	<a:midPointStop  offset="1" style="stop-color:#FF6800"/>
</linearGradient>
<path fill="url(#SVGID_12_)" d="M54.682,27.832c-6.037-0.091,3.199-8.137,3.779-8.852c0.701-0.861,2.691-0.472,3.264,0.505
	C62.301,20.463,55.693,27.804,54.682,27.832z"/>
<path fill="#AF1F23" d="M14.141,57.011c-0.199,1.331-1.465,5.229-1.732,4.978c-1.504-2.556-0.854-5.445-0.377-6.234
	C12.031,55.754,14.248,55.885,14.141,57.011z"/>
<linearGradient id="SVGID_13_" gradientUnits="userSpaceOnUse" x1="49.0391" y1="-99.1304" x2="49.0391" y2="-92.4653" gradientTransform="matrix(-0.8989 -0.4381 0.4381 -0.8989 100.411 -10.9635)">
	<stop  offset="0" style="stop-color:#B00000"/>
	<stop  offset="1" style="stop-color:#FF6800"/>
	<a:midPointStop  offset="0" style="stop-color:#B00000"/>
	<a:midPointStop  offset="0.5" style="stop-color:#B00000"/>
	<a:midPointStop  offset="1" style="stop-color:#FF6800"/>
</linearGradient>
<path fill="url(#SVGID_13_)" d="M15.355,50.465c2.748,0.896-0.15,5.766-0.529,6.172c-0.684,0.733-2.336,0.031-3.078-0.815
	C11.004,54.977,14.355,50.309,15.355,50.465z"/>
<linearGradient id="SVGID_14_" gradientUnits="userSpaceOnUse" x1="169.6582" y1="-132.5234" x2="169.6582" y2="-125.4102" gradientTransform="matrix(-1 0 0 -1 190.4941 -80)">
	<stop  offset="0" style="stop-color:#B00000"/>
	<stop  offset="1" style="stop-color:#FF6800"/>
	<a:midPointStop  offset="0" style="stop-color:#B00000"/>
	<a:midPointStop  offset="0.5" style="stop-color:#B00000"/>
	<a:midPointStop  offset="1" style="stop-color:#FF6800"/>
</linearGradient>
<path fill="url(#SVGID_14_)" d="M26.563,45.74c-2.633-1.781-11.588,4.195-11.74,4.863c-0.154,0.668,0.564,1.914,1.182,1.92
	c9.119-0.926,10.674-3.787,10.674-3.787S27.182,46.158,26.563,45.74z"/>
<path fill="#AF1F23" d="M58.803,41.711c0.504,1.4,2.664,5.56,2.875,5.32c0.93-2.521-0.385-5.582-1.045-6.445
	C60.633,40.586,58.436,40.533,58.803,41.711z"/>
<linearGradient id="SVGID_15_" gradientUnits="userSpaceOnUse" x1="166.7119" y1="-130.0928" x2="175.5195" y2="-130.0928" gradientTransform="matrix(0.9805 0.1965 0.1965 -0.9805 -85.6912 -121.8444)">
	<stop  offset="0" style="stop-color:#FF6800"/>
	<stop  offset="1" style="stop-color:#B00000"/>
	<a:midPointStop  offset="0" style="stop-color:#FF6800"/>
	<a:midPointStop  offset="0.5" style="stop-color:#FF6800"/>
	<a:midPointStop  offset="1" style="stop-color:#B00000"/>
</linearGradient>
<path fill="url(#SVGID_15_)" d="M52.949,36.045c-2.064,1.682,4.625,5.788,5.25,6.237c0.834,0.601,2.518-0.849,2.6-1.907
	C60.879,39.316,53.83,35.604,52.949,36.045z"/>
<linearGradient id="SVGID_16_" gradientUnits="userSpaceOnUse" x1="161.9004" y1="-130.5039" x2="161.9004" y2="-126.4102" gradientTransform="matrix(0.9805 0.1965 0.1965 -0.9805 -85.6912 -121.8444)">
	<stop  offset="0" style="stop-color:#B00000"/>
	<stop  offset="1" style="stop-color:#FF6800"/>
	<a:midPointStop  offset="0" style="stop-color:#B00000"/>
	<a:midPointStop  offset="0.5" style="stop-color:#B00000"/>
	<a:midPointStop  offset="1" style="stop-color:#FF6800"/>
</linearGradient>
<path fill="url(#SVGID_16_)" d="M41.889,36.627c0,0,1.854,0.969,12.168,2.144c0.686,0.006,1.32-1.36,1.059-2.102
	c-0.266-0.741-7.34-4.038-12.934-2.837C42.182,33.832,38.17,35.237,41.889,36.627z"/>
<path fill="#AF1F23" d="M5.197,41.711c-0.504,1.4-2.664,5.56-2.875,5.32c-0.93-2.521,0.385-5.582,1.045-6.445
	C3.367,40.586,5.564,40.533,5.197,41.711z"/>
<linearGradient id="SVGID_17_" gradientUnits="userSpaceOnUse" x1="235.8311" y1="-116.2412" x2="244.6396" y2="-116.2412" gradientTransform="matrix(-0.9805 0.1965 -0.1965 -0.9805 220.1854 -121.8444)">
	<stop  offset="0" style="stop-color:#FF6800"/>
	<stop  offset="1" style="stop-color:#B00000"/>
	<a:midPointStop  offset="0" style="stop-color:#FF6800"/>
	<a:midPointStop  offset="0.5" style="stop-color:#FF6800"/>
	<a:midPointStop  offset="1" style="stop-color:#B00000"/>
</linearGradient>
<path fill="url(#SVGID_17_)" d="M11.051,36.045c2.064,1.682-4.625,5.788-5.25,6.237c-0.834,0.601-2.518-0.849-2.6-1.907
	C3.121,39.316,10.17,35.604,11.051,36.045z"/>
<linearGradient id="SVGID_18_" gradientUnits="userSpaceOnUse" x1="231.0215" y1="-116.6509" x2="231.0215" y2="-112.5571" gradientTransform="matrix(-0.9805 0.1965 -0.1965 -0.9805 220.1854 -121.8444)">
	<stop  offset="0" style="stop-color:#B00000"/>
	<stop  offset="1" style="stop-color:#FF6800"/>
	<a:midPointStop  offset="0" style="stop-color:#B00000"/>
	<a:midPointStop  offset="0.5" style="stop-color:#B00000"/>
	<a:midPointStop  offset="1" style="stop-color:#FF6800"/>
</linearGradient>
<path fill="url(#SVGID_18_)" d="M22.111,36.627c0,0-1.854,0.969-12.168,2.144c-0.686,0.006-1.32-1.36-1.059-2.102
	c0.266-0.741,7.34-4.038,12.934-2.837C21.818,33.832,25.83,35.237,22.111,36.627z"/>
<path fill="#AF1F23" d="M6.683,50.967c0.443,1.619,1.234,6.854,0.922,6.765c-2.251-1.747-3.05-5.421-3.047-6.642
	C4.558,51.09,6.264,49.639,6.683,50.967z"/>
<linearGradient id="SVGID_19_" gradientUnits="userSpaceOnUse" x1="399.6309" y1="399.0039" x2="399.6309" y2="406.626" gradientTransform="matrix(-0.9871 0.16 0.16 0.9871 337.5162 -413.8857)">
	<stop  offset="0" style="stop-color:#B00000"/>
	<stop  offset="1" style="stop-color:#FF6800"/>
	<a:midPointStop  offset="0" style="stop-color:#B00000"/>
	<a:midPointStop  offset="0.5" style="stop-color:#B00000"/>
	<a:midPointStop  offset="1" style="stop-color:#FF6800"/>
</linearGradient>
<path fill="url(#SVGID_19_)" d="M9.686,43.451c2.523,0.634,0.341,2.586-2.483,7.807c-0.487,0.9-2.605,0.301-3.096-0.607
	C3.617,49.74,8.717,43.429,9.686,43.451z"/>
<linearGradient id="SVGID_20_" gradientUnits="userSpaceOnUse" x1="391.1699" y1="397.2207" x2="391.1699" y2="401.3496" gradientTransform="matrix(-0.9871 0.16 0.16 0.9871 337.5162 -413.8857)">
	<stop  offset="0" style="stop-color:#B00000"/>
	<stop  offset="1" style="stop-color:#FF6800"/>
	<a:midPointStop  offset="0" style="stop-color:#B00000"/>
	<a:midPointStop  offset="0.5" style="stop-color:#B00000"/>
	<a:midPointStop  offset="1" style="stop-color:#FF6800"/>
</linearGradient>
<path fill="url(#SVGID_20_)" d="M20.358,42.961c0,0-1.683,1.036-10.295,2.802c-0.58,0.052-1.031-1.177-0.872-1.864
	c0.157-0.688,5.852-4.154,10.683-3.447C19.873,40.449,22.917,40.894,20.358,42.961z"/>
<linearGradient id="SVGID_21_" gradientUnits="userSpaceOnUse" x1="267.5986" y1="-108.9072" x2="267.5986" y2="-97.8374" gradientTransform="matrix(-0.9538 0.3006 -0.3006 -0.9538 239.259 -149.4058)">
	<stop  offset="0" style="stop-color:#B00000"/>
	<stop  offset="1" style="stop-color:#FF6800"/>
	<a:midPointStop  offset="0" style="stop-color:#B00000"/>
	<a:midPointStop  offset="0.5" style="stop-color:#B00000"/>
	<a:midPointStop  offset="1" style="stop-color:#FF6800"/>
</linearGradient>
<path fill="url(#SVGID_21_)" d="M20.953,32.643c0.4-0.744-0.332-5.119-11.055-7.122c-0.57-0.207-0.541,1.533-0.582,2.309
	C15.896,35.65,19.627,35.112,20.953,32.643z"/>
<path fill="#AF1F23" d="M4.584,19.591c-0.012-1.857-1.195-8.122-1.482-7.939c-1.766,2.505-0.963,6.501-0.615,7.804
	C2.484,19.457,4.537,21.128,4.584,19.591z"/>
<linearGradient id="SVGID_22_" gradientUnits="userSpaceOnUse" x1="273.5244" y1="-100.1108" x2="273.5244" y2="-89.3916" gradientTransform="matrix(-0.9538 0.3006 -0.3006 -0.9538 239.259 -149.4058)">
	<stop  offset="0" style="stop-color:#B00000"/>
	<stop  offset="1" style="stop-color:#FF6800"/>
	<a:midPointStop  offset="0" style="stop-color:#B00000"/>
	<a:midPointStop  offset="0.5" style="stop-color:#B00000"/>
	<a:midPointStop  offset="1" style="stop-color:#FF6800"/>
</linearGradient>
<path fill="url(#SVGID_22_)" d="M9.318,27.832c6.037-0.091-3.199-8.137-3.779-8.852c-0.701-0.861-2.691-0.472-3.264,0.505
	C1.699,20.463,8.307,27.804,9.318,27.832z"/>
<radialGradient id="SVGID_23_" cx="41.0332" cy="28.5542" r="16.5426" gradientTransform="matrix(1.0828 0 0 1.3294 -12.4312 -3.9626)" gradientUnits="userSpaceOnUse">
	<stop  offset="0" style="stop-color:#FF6800"/>
	<stop  offset="0.2668" style="stop-color:#FD6500"/>
	<stop  offset="0.4524" style="stop-color:#F65C00"/>
	<stop  offset="0.6133" style="stop-color:#EA4D00"/>
	<stop  offset="0.7602" style="stop-color:#DA3700"/>
	<stop  offset="0.8963" style="stop-color:#C41B00"/>
	<stop  offset="1" style="stop-color:#B00000"/>
	<a:midPointStop  offset="0" style="stop-color:#FF6800"/>
	<a:midPointStop  offset="0.7758" style="stop-color:#FF6800"/>
	<a:midPointStop  offset="1" style="stop-color:#B00000"/>
</radialGradient>
<path fill="url(#SVGID_23_)" d="M49.768,27.213c-0.142-0.649,0.338-1.214,0.338-1.214s-0.723-0.353-0.998-0.958
	c-0.276-0.607,0.118-1.581,0.118-1.581s-1.083-0.176-1.387-0.975c-0.235-0.615,0.03-1.251,0.03-1.251s-1.131,0.309-1.857-0.346
	c-0.505-0.454-0.495-1.386-0.495-1.386s-0.978,0.43-1.882,0.048c-0.795-0.335-1.21-1.137-1.21-1.137s-0.818,0.739-1.794,0.655
	c-0.553-0.048-1.59-1.103-1.59-1.103s-1.085,0.844-1.811,0.783c-0.576-0.049-1.641-1.022-1.641-1.022s-1.184,0.932-1.659,0.895
	C32.998,18.547,32,17.692,32,17.692s-0.998,0.855-1.931,0.929c-0.476,0.037-1.658-0.895-1.658-0.895s-1.064,0.974-1.642,1.022
	c-0.726,0.061-1.811-0.783-1.811-0.783s-1.037,1.054-1.59,1.103c-0.975,0.084-1.794-0.655-1.794-0.655s-0.415,0.801-1.21,1.137
	c-0.904,0.382-1.882-0.048-1.882-0.048s0.01,0.932-0.495,1.386c-0.727,0.655-1.856,0.346-1.856,0.346s0.265,0.636,0.029,1.251
	c-0.305,0.799-1.387,0.975-1.387,0.975s0.395,0.973,0.118,1.581c-0.274,0.606-0.998,0.958-0.998,0.958s0.479,0.565,0.339,1.214
	c-0.142,0.647-0.763,1-0.763,1.661c0,13.422,10.973,14.429,12.183,18.187c1.393,4.324,11.3,4.324,12.693,0
	c1.21-3.758,12.183-4.765,12.183-18.187C50.529,28.213,49.908,27.86,49.768,27.213z"/>
<path id="Shape_47_" fill="#AF1F23" d="M45.115,8.681c-0.666,0-0.666-1,0-1C45.783,7.682,45.783,8.681,45.115,8.681L45.115,8.681z"
	/>
<path id="Shape_48_" fill="#AF1F23" d="M47.658,10.95c-0.666,0-0.666-1,0-1C48.326,9.951,48.326,10.95,47.658,10.95L47.658,10.95z"
	/>
<path id="Shape_49_" fill="#AF1F23" d="M48.324,8.48c-1.066,0-1.066-1.6,0-1.6C49.391,6.883,49.391,8.48,48.324,8.48L48.324,8.48z"
	/>
<path id="Shape_50_" fill="#AF1F23" d="M52.346,12.962c-0.666,0-0.666-1,0-1C53.014,11.963,53.014,12.962,52.346,12.962
	L52.346,12.962z"/>
<path id="Shape_53_" fill="#AF1F23" d="M51.127,21.202c-0.666,0-0.666-1,0-1C51.795,20.203,51.795,21.202,51.127,21.202
	L51.127,21.202z"/>
<path id="Shape_52_" fill="#AF1F23" d="M52.191,16.295c-1.066,0-1.066-1.6,0-1.6C53.258,14.698,53.258,16.295,52.191,16.295
	L52.191,16.295z"/>
<path id="Shape_65_" fill="#AF1F23" d="M18.885,8.681c0.668,0,0.668-1,0-1C18.219,7.682,18.219,8.681,18.885,8.681L18.885,8.681z"/>
<path id="Shape_64_" fill="#AF1F23" d="M16.342,10.95c1.066,0,1.066-1.6,0-1.6C15.275,9.352,15.275,10.95,16.342,10.95L16.342,10.95
	z"/>
<path id="Shape_63_" fill="#AF1F23" d="M15.676,8.181c0.668,0,0.668-1,0-1C15.01,7.182,15.01,8.181,15.676,8.181L15.676,8.181z"/>
<path id="Shape_60_" fill="#AF1F23" d="M11.654,12.962c0.668,0,0.668-1,0-1C10.988,11.963,10.988,12.962,11.654,12.962
	L11.654,12.962z"/>
<path id="Shape_56_" fill="#AF1F23" d="M11.357,16.481c1.066,0,1.066-1.6,0-1.6C10.291,14.884,10.291,16.481,11.357,16.481
	L11.357,16.481z"/>
<path id="Shape_55_" fill="#AF1F23" d="M12.873,21.202c0.668,0,0.668-1,0-1C12.207,20.203,12.207,21.202,12.873,21.202
	L12.873,21.202z"/>
<path id="Shape_34_" fill="#AF1F23" d="M22.645,26.288c-1.045,0-1.045-1.567,0-1.567C23.689,24.723,23.689,26.288,22.645,26.288
	L22.645,26.288z"/>
<path id="Shape_35_" fill="#AF1F23" d="M22.908,30.487c-0.801,0-0.801-1.2,0-1.2C23.709,29.289,23.709,30.487,22.908,30.487
	L22.908,30.487z"/>
<path id="Shape_66_" fill="#AF1F23" d="M18.545,38.042c-0.801,0-0.801-1.2,0-1.2C19.344,36.844,19.344,38.042,18.545,38.042
	L18.545,38.042z"/>
<path id="Shape_36_" fill="#AF1F23" d="M20.486,34.462c-1.047,0-1.047-1.567,0-1.567C21.531,32.897,21.531,34.462,20.486,34.462
	L20.486,34.462z"/>
<path id="Shape_37_" fill="#AF1F23" d="M43.525,40.184c-1.045,0-1.045-1.566,0-1.566C44.57,38.619,44.57,40.184,43.525,40.184
	L43.525,40.184z"/>
<path id="Shape_38_" fill="#AF1F23" d="M45.436,35.246c-1.047,0-1.047-1.568,0-1.568C46.48,33.68,46.48,35.246,45.436,35.246
	L45.436,35.246z"/>
<path id="Shape_43_" fill="#AF1F23" d="M40.91,36.843c-0.801,0-0.801-1.199,0-1.199C41.709,35.645,41.709,36.843,40.91,36.843
	L40.91,36.843z"/>
<path id="Shape_46_" fill="#AF1F23" d="M38.848,42.171c-0.801,0-0.801-1.199,0-1.199C39.648,40.973,39.648,42.171,38.848,42.171
	L38.848,42.171z"/>
<path id="Shape_25_" fill="#AF1F23" d="M18.545,30.214c-1.047,0-1.047-1.567,0-1.567C19.59,28.647,19.588,30.214,18.545,30.214
	L18.545,30.214z"/>
</svg>
