<?xml version="1.0" encoding="utf-8"?>
<!-- Generator: Adobe Illustrator 15.0.0, SVG Export Plug-In . SVG Version: 6.00 Build 0)  -->
<!DOCTYPE svg PUBLIC "-//W3C//DTD SVG 1.1//EN" "http://www.w3.org/Graphics/SVG/1.1/DTD/svg11.dtd" [
	<!ENTITY ns_flows "http://ns.adobe.com/Flows/1.0/">
	<!ENTITY ns_extend "http://ns.adobe.com/Extensibility/1.0/">
	<!ENTITY ns_ai "http://ns.adobe.com/AdobeIllustrator/10.0/">
	<!ENTITY ns_graphs "http://ns.adobe.com/Graphs/1.0/">
]>
<svg version="1.1" id="Layer_1" xmlns:x="&ns_extend;" xmlns:i="&ns_ai;" xmlns:graph="&ns_graphs;"
	 xmlns="http://www.w3.org/2000/svg" xmlns:xlink="http://www.w3.org/1999/xlink" xmlns:a="http://ns.adobe.com/AdobeSVGViewerExtensions/3.0/"
	 x="0px" y="0px" width="64px" height="64px" viewBox="0 0 64 64" enable-background="new 0 0 64 64" xml:space="preserve">
<path fill="#302C3B" d="M55.01,60.254c-0.253-1.025-2.377,1.287-1.189,1.428C56.011,61.939,55.25,61.234,55.01,60.254z"/>
<path fill="#302C3B" d="M21.098,58.332c-0.37-0.967-2.209,1.525-1.012,1.525C22.291,59.857,21.451,59.258,21.098,58.332z"/>
<path fill-rule="evenodd" clip-rule="evenodd" fill="#8A6859" d="M23.424,49.273c-0.309,4.238-2.295,7.963-3.275,10.225
	c1.969,0,2.965,0.811,5.279-1.205c-0.609-1.979,1.977-3.564,2.617-6.072C26.469,51.322,24.986,50.211,23.424,49.273z"/>
<path fill="#594640" d="M21.628,58.52c-0.445-0.98-2.658,1.541-1.218,1.541C23.063,60.061,22.053,59.453,21.628,58.52z"/>
<path fill="#594640" d="M23.007,58.648c-0.362-0.813-2.159,1.277-0.989,1.277C24.173,59.926,23.353,59.424,23.007,58.648z"/>
<path fill="#302C3B" d="M45.877,58.795c-0.395-0.957-2.356,1.508-1.08,1.508C47.15,60.303,46.255,59.709,45.877,58.795z"/>
<path fill-rule="evenodd" clip-rule="evenodd" fill="#8A6859" d="M48.359,50.23c-0.329,4.002-2.449,7.52-3.496,9.654
	c2.102,0,3.165,0.766,5.634-1.139c-0.649-1.867,2.11-3.365,2.793-5.732C51.608,52.164,50.026,51.115,48.359,50.23z"/>
<path fill="#594640" d="M46.443,58.959c-0.475-0.922-2.837,1.457-1.301,1.457C47.976,60.416,46.896,59.844,46.443,58.959z"/>
<path fill="#594640" d="M47.915,59.082c-0.387-0.768-2.306,1.207-1.057,1.207C49.159,60.289,48.284,59.814,47.915,59.082z"/>
<path fill="#302C3B" d="M28.996,60.074c-0.148-1.078-2.498,1.109-1.328,1.361C29.824,61.896,29.137,61.102,28.996,60.074z"/>
<path fill="#785647" d="M10.734,33.438c-0.854-1.34-2.58,4.122,2.291,3.54C13.422,34.764,11.209,34.182,10.734,33.438z"/>
<linearGradient id="SVGID_1_" gradientUnits="userSpaceOnUse" x1="32.0005" y1="61.9395" x2="32.0005" y2="26.0015">
	<stop  offset="0" style="stop-color:#916E60"/>
	<stop  offset="0.3149" style="stop-color:#957163"/>
	<stop  offset="0.6459" style="stop-color:#A27C6C"/>
	<stop  offset="0.9834" style="stop-color:#B78D7B"/>
	<stop  offset="1" style="stop-color:#B88E7C"/>
	<a:midPointStop  offset="0" style="stop-color:#916E60"/>
	<a:midPointStop  offset="0.697" style="stop-color:#916E60"/>
	<a:midPointStop  offset="1" style="stop-color:#B88E7C"/>
</linearGradient>
<path fill-rule="evenodd" clip-rule="evenodd" fill="url(#SVGID_1_)" d="M37.564,26.208c-2.943,0.359-7.848,1.764-8.408,3.121
	c-1.611-1.574-4.646-2.02-5.518-0.311c-3.699-0.422-6.268,4.501-9.457,5.62c-3.49-0.211-4.404,3.621-6.426,4.664
	c-1.268,0.652-0.598,1.551-0.582,2.576c-1.646,1.141-1.963,3.199-3.533,4.029c-0.627-0.609-1.426,0.672-1.215,1.561
	c-0.918,2.781-0.529,6.402,2.941,6.17c2.145,0.887,4.988,0.631,6.975-2.141c2.283,1.018,4.807,1.549,5.809-0.105
	c1.09,0.988,3.678,0.117,4.963-1.143c1.318,0.137,2.307,2.32,4.113,1.705c0.416-0.143,1.396,6.516,0.818,9.355
	c3.648,0.629,3.223,0.07,5.242-0.895c-0.736-2.953,0.922-4.133,0.676-7.145c0,0,7,1.752,14.752-1.025c0,0,2.809,2.002,6.449,2.299
	c2.07,2.236-0.41,4.75-1.047,6.633c1.723,1.395,3.99,0.623,5.779-0.313c-0.461-3.428,0.811-5.49,0.264-8.117
	c-0.337-1.617-1.766-2.02-1.84-3.436c-0.103-1.965,1.955-2.766,1.576-5.309c0.674,1.49-0.176,4.791,0.789,5.932
	c1.367-1.053,1.3-2.951,1.313-4.371C62.125,31.527,50.021,24.691,37.564,26.208z"/>
<path fill-rule="evenodd" clip-rule="evenodd" fill="#AB8A7B" d="M20.564,44.49c-1.957,5.934-3.941,3.926-5.381,4.221
	c-1.311,0.895-2.551,2.906-2.551,2.906c2.205,0.934,4.557,1.576,5.518-0.014c0.854,0.779,3.643,0.352,4.963-1.08
	c0.525-0.115,2.096,2.6,4.113,1.432c-1.309-0.164-3.412-1.889-2.809-4.594C22.084,51.955,20.564,47.002,20.564,44.49z"/>
<path fill-rule="evenodd" clip-rule="evenodd" fill="#AB8A7B" d="M33.43,47.637c0,0,0.613,3.313,0.533,5.635
	c3.209,2.496,10.652,2.457,14.534-0.852C43.455,49.24,41.021,51.826,33.43,47.637z"/>
<path fill="#1A1626" d="M15.293,41.453c-0.375,1.686-2.703,2.418-3.156,0.744C12.246,41.5,13.199,40.795,15.293,41.453z"/>
<path id="Shape_2_" fill="#6E8189" d="M13.066,41.82c0.059,0.428-0.465,0.533-0.522,0.102C12.489,41.492,13.011,41.389,13.066,41.82
	L13.066,41.82z"/>
<path fill="#785647" d="M6.51,49.057c0.955-0.592,3.615-0.707,2.52-1.293C7.801,47.115,5.393,49.748,6.51,49.057z"/>
<path fill-rule="evenodd" clip-rule="evenodd" fill="#785647" d="M19.496,39.195l-0.243,0.195c2.263,4.412,0.206,8.766-1.103,12.213
	C20.585,48.881,22.338,42.895,19.496,39.195z"/>
<path fill-rule="evenodd" clip-rule="evenodd" fill="#785647" d="M23.113,50.523c2.426-2.93,2.594-7.252,0-9.357
	C24.926,44.092,24.547,46.752,23.113,50.523z"/>
<path fill-rule="evenodd" clip-rule="evenodd" fill="#785647" d="M16.77,41.189c-2.322-2.652-4.928-2.408-5.771,1.008
	C12.514,39.648,14.102,39.85,16.77,41.189z"/>
<path fill-rule="evenodd" clip-rule="evenodd" fill="#785647" d="M58.645,47.813c2.424-2.928,2.802-8.482,0.207-10.586
	C60.666,40.148,60.076,44.043,58.645,47.813z"/>
<path fill-rule="evenodd" clip-rule="evenodd" fill="#785647" d="M25.861,45.434c3.201-6.918,2.332-13.672-2.223-16.415
	C28.006,33.208,27.295,41.666,25.861,45.434z"/>
<path fill-rule="evenodd" clip-rule="evenodd" fill="#785647" d="M26.07,49.057c5.842-8.674,7.641-16.984,3.086-19.727
	C33.523,33.519,29.502,42.262,26.07,49.057z"/>
<path fill-rule="evenodd" clip-rule="evenodd" fill="#785647" d="M39.943,50.104c10.081,1.5,8.554,4.662,16.785,4.441
	C49.984,53.949,48.271,49.273,39.943,50.104z"/>
<path fill-rule="evenodd" clip-rule="evenodd" fill="#785647" d="M27.227,51.955c-0.529-2.898,6.414-2.33,8.402-5.635
	C32.939,48.734,24.859,48.551,27.227,51.955z"/>
<path fill-rule="evenodd" clip-rule="evenodd" fill="#785647" d="M5.367,53.639c7.037,2.18,6.385-2.129,9.816-4.928
	C11.205,50.398,11.705,54.879,5.367,53.639z"/>
<path fill="#785647" d="M21.35,35.215c-0.433-1.205-1.942-1.249-2.734,0.117c0.832-1.063,2.043-0.941,2.334,0.16
	c0.376,1.428-0.551,3.396-2.348,4.24C20.856,39.027,21.917,36.793,21.35,35.215z"/>
<linearGradient id="SVGID_2_" gradientUnits="userSpaceOnUse" x1="16.6255" y1="37.7529" x2="20.2603" y2="37.7529">
	<stop  offset="0" style="stop-color:#473833"/>
	<stop  offset="0.1268" style="stop-color:#523F38"/>
	<stop  offset="0.4264" style="stop-color:#674C40"/>
	<stop  offset="0.7204" style="stop-color:#745345"/>
	<stop  offset="1" style="stop-color:#785647"/>
	<a:midPointStop  offset="0" style="stop-color:#473833"/>
	<a:midPointStop  offset="0.303" style="stop-color:#473833"/>
	<a:midPointStop  offset="1" style="stop-color:#785647"/>
</linearGradient>
<path fill="url(#SVGID_2_)" d="M16.863,39.695c2.33,0.24,3.705-1.881,3.338-3.27c-0.307-1.158-2.064-0.791-2.211,1.613
	C17.936,38.912,15.955,39.439,16.863,39.695z"/>
<path fill="#594640" d="M29.375,60.328c-0.326-1.025-2.82,1.219-1.391,1.387C30.619,62.027,29.688,61.307,29.375,60.328z"/>
<path fill="#594640" d="M30.549,60.465c-0.396-0.795-2.098,1.375-0.93,1.322C31.771,61.691,30.93,61.227,30.549,60.465z"/>
<path fill="#594640" d="M55.397,60.496c-0.327-1.025-2.821,1.219-1.391,1.389C56.642,62.195,55.71,61.475,55.397,60.496z"/>
<path fill="#594640" d="M56.642,60.785c-0.263-0.85-2.293,1.018-1.132,1.154C57.649,62.193,56.895,61.598,56.642,60.785z"/>
</svg>
