<?xml version="1.0" encoding="utf-8"?>
<!-- Generator: Adobe Illustrator 15.0.0, SVG Export Plug-In . SVG Version: 6.00 Build 0)  -->
<!DOCTYPE svg PUBLIC "-//W3C//DTD SVG 1.1//EN" "http://www.w3.org/Graphics/SVG/1.1/DTD/svg11.dtd" [
	<!ENTITY ns_flows "http://ns.adobe.com/Flows/1.0/">
	<!ENTITY ns_extend "http://ns.adobe.com/Extensibility/1.0/">
	<!ENTITY ns_ai "http://ns.adobe.com/AdobeIllustrator/10.0/">
	<!ENTITY ns_graphs "http://ns.adobe.com/Graphs/1.0/">
]>
<svg version="1.1" id="Layer_1" xmlns:x="&ns_extend;" xmlns:i="&ns_ai;" xmlns:graph="&ns_graphs;"
	 xmlns="http://www.w3.org/2000/svg" xmlns:xlink="http://www.w3.org/1999/xlink" xmlns:a="http://ns.adobe.com/AdobeSVGViewerExtensions/3.0/"
	 x="0px" y="0px" width="64px" height="64px" viewBox="0 0 64 64" enable-background="new 0 0 64 64" xml:space="preserve">
<path fill="#BEC3CF" d="M60.027,50.145l1.271-1.3c0.075-0.311,0.145-0.624,0.207-0.941l-1.02,0.315l1.159-1.07
	c0.031-0.194,0.058-0.391,0.085-0.587l-0.869,0.323l1.037-1.896c0.085-1.133,0.101-2.295,0.048-3.477l-2.002,0.707l1.953-1.55
	c-0.012-0.167-0.021-0.333-0.036-0.5h-1.125l1.042-0.819c-0.022-0.196-0.046-0.393-0.07-0.59h-1.056l0.905-1.046
	c-0.03-0.188-0.062-0.378-0.095-0.567l-1.019,0.53l0.878-1.282c-0.037-0.186-0.071-0.373-0.11-0.559l-2.018,1.841l1.686-3.256
	c-0.207-0.821-0.442-1.643-0.705-2.46l-1.269,0.924l1.084-1.49c-0.065-0.194-0.134-0.387-0.202-0.58l-1.079,0.737l0.729-1.685
	c-0.247-0.646-0.511-1.287-0.791-1.922l-0.97,0.607l0.666-1.285c-0.191-0.413-0.392-0.823-0.597-1.229l-2.802,1.134l2.262-2.167
	c-0.061-0.112-0.123-0.223-0.184-0.333l-1.604,0.757l1.128-1.592c-0.04-0.069-0.08-0.138-0.121-0.207l-2.48,0.839l1.709-2.092
	c-0.342-0.529-0.698-1.047-1.064-1.557l-1.561,0.857l0.748-1.947c-0.08-0.103-0.159-0.205-0.239-0.307l-0.843,0.72l0.367-1.304
	c-0.559-0.675-1.141-1.327-1.746-1.951l-1.579,1.577l0.932-2.229c-0.096-0.093-0.193-0.183-0.29-0.275l-1.309,1.4l0.509-2.134
	c-0.126-0.112-0.253-0.223-0.381-0.332l-0.753,0.822l0.09-1.371c-0.118-0.096-0.235-0.193-0.355-0.287l-0.526,1.075v-1.471
	c-0.717-0.533-1.453-1.033-2.213-1.488l-0.953,1.501l-0.095-2.094c-0.177-0.095-0.356-0.185-0.536-0.275l-0.445,1.286l-0.15-1.577
	c-0.094-0.044-0.188-0.086-0.282-0.129l-0.366,2.101l-0.403-2.437c-0.17-0.07-0.34-0.14-0.512-0.206l-0.544,1.456l-0.696-1.897
	c-0.793-0.254-1.604-0.46-2.43-0.625l-0.499,2.022V9.185c-0.063-0.011-0.125-0.025-0.188-0.036l-0.395,1.86V9.092
	c-0.629-0.093-1.264-0.164-1.91-0.202l-0.215,1.412l-0.561-1.438c-2.017-0.048-4.111,0.173-6.274,0.715
	c2.127,3.259,24.487,41.866,29.506,46.699c1.576-1.706,2.712-3.795,3.448-6.134H60.027z"/>
<path fill="#CFD8DD" d="M20.743,4.352c-0.173-1.631,9.496,4.684,9.887,15.526c0.033,0.696-4.501,0.056-7.271-2.363
	C23.358,17.515,21.362,10.275,20.743,4.352z"/>
<path fill="#99A8AE" d="M21.746,6.982c-0.099-1.146,6.361,4.532,6.521,12.044c0.016,0.482-3.036-0.583-4.883-2.627
	C23.385,16.398,22.107,11.143,21.746,6.982z"/>
<path fill="#1A1626" d="M61.978,41.5l-2.033,0.719l1.99-1.578c-0.012-0.16-0.023-0.315-0.037-0.472h-1.16l1.084-0.853
	c-0.02-0.188-0.041-0.375-0.063-0.557h-1.105l0.951-1.101c-0.027-0.186-0.059-0.364-0.088-0.54l-1.072,0.558l0.924-1.349
	c-0.037-0.187-0.074-0.361-0.111-0.533l-2.063,1.882l1.715-3.312c-0.207-0.764-0.361-1.193-0.361-1.193
	c-1.383,4.377-5.129,6.703-5.129,6.703l2.117,9.736c2.896-2.475,4.445-5.875,4.445-5.875C62.009,42.965,62.005,42.218,61.978,41.5z"
	/>
<path fill="#1A1626" d="M58.663,27.934l-0.986,0.617l0.69-1.331c-0.181-0.413-0.368-0.814-0.561-1.208l-2.862,1.159l2.317-2.22
	c-0.058-0.106-0.115-0.208-0.173-0.312l-1.671,0.789l1.176-1.659c-0.033-0.055-0.065-0.109-0.099-0.164l-2.551,0.863l1.752-2.145
	c-0.363-0.553-0.721-1.062-1.063-1.529l-1.605,0.882l0.764-1.987c-0.076-0.097-0.155-0.198-0.229-0.289l-0.869,0.743l0.377-1.337
	c-0.654-0.772-1.078-1.199-1.078-1.199c-1.2,4.765-4.842,7.625-4.842,7.625l6.492,10.285c3.377-2.913,5.263-6.979,5.263-6.979
	C58.829,28.332,58.744,28.135,58.663,27.934z"/>
<path fill="#1A1626" d="M45.45,12.158l-0.964,1.519l-0.097-2.136c-0.175-0.095-0.348-0.188-0.52-0.275l-0.46,1.327l-0.155-1.63
	c-0.091-0.042-0.18-0.083-0.269-0.124l-0.375,2.149l-0.412-2.491c-0.167-0.068-0.328-0.131-0.487-0.192l-0.56,1.497l-0.712-1.94
	c-1.186-0.369-1.943-0.488-1.943-0.488c1.777,4.206,1.515,9.092,1.515,9.092l5.122,4.485c1.782-5.871,1.179-10.228,1.179-10.228
	C46.023,12.521,45.736,12.336,45.45,12.158z"/>
<path fill="#302C3B" d="M26.111,9.959v0.8l-0.344-0.669c-0.49,0.196-1.028,0.446-1.613,0.744l0.026,0.759l-0.531-0.497
	c-0.152,0.082-0.313,0.172-0.471,0.261l0.214,1.569L22.39,11.81c-0.145,0.086-0.287,0.168-0.437,0.259l0.324,1.524l-0.923-1.152
	c-0.137,0.085-0.269,0.166-0.407,0.254l0.122,0.606l-0.337-0.466c-0.327,0.211-0.666,0.434-1.014,0.667l0.393,1.257l-0.785-0.991
	c-0.469,0.319-0.948,0.65-1.454,1.01c3.733,6.178,5.843,12.823,5.843,12.823S36.922,5.96,26.111,9.959z"/>
<linearGradient id="SVGID_1_" gradientUnits="userSpaceOnUse" x1="43.4102" y1="62" x2="43.4102" y2="36.1717">
	<stop  offset="0.2545" style="stop-color:#CFD8DD"/>
	<stop  offset="0.6086" style="stop-color:#D7DFE3"/>
	<stop  offset="1" style="stop-color:#E6EBEF"/>
	<a:midPointStop  offset="0.2545" style="stop-color:#CFD8DD"/>
	<a:midPointStop  offset="0.6098" style="stop-color:#CFD8DD"/>
	<a:midPointStop  offset="1" style="stop-color:#E6EBEF"/>
</linearGradient>
<path fill="url(#SVGID_1_)" d="M31.65,14.953c-5.264,8.905-0.605,29.596-0.605,29.596C38.564,46.362,32.112,62,37.066,62
	c14.06,0,20.424-5.722,20.424-5.722C59.659,35.846,42.464,15.708,31.65,14.953z"/>
<path fill="#302C3B" d="M55.418,39.875c-1.831,9.91-3.268,15.416-6.485,20.541c2.502-0.729,4.45-1.59,5.837-2.343
	c0.845-2.487,1.974-5.179,2.766-8.462C57.535,46.496,56.607,42.496,55.418,39.875z"/>
<path fill="#302C3B" d="M47.151,25.231c-3.976,19.23-1.173,19.224-6.206,36.603c1.276-0.102,2.482-0.244,3.604-0.429
	c1.661-5.543,6.509-17.551,9.094-25.89C52.317,31.746,49.555,27.413,47.151,25.231z"/>
<path fill="#302C3B" d="M40.012,18.465c0.651,7.05-3.862,17.297-6.467,27.703c2.08,2.77,1.327,8.162,1.443,11.881
	c1.592-9.896,9.226-25.747,10.146-35.099C43.821,20.871,41.718,19.329,40.012,18.465z"/>
<linearGradient id="SVGID_2_" gradientUnits="userSpaceOnUse" x1="31.3052" y1="41.2441" x2="41.5132" y2="45.9625">
	<stop  offset="0" style="stop-color:#1A1626;stop-opacity:0.6"/>
	<stop  offset="1" style="stop-color:#1A1626;stop-opacity:0"/>
	<a:midPointStop  offset="0" style="stop-color:#1A1626;stop-opacity:0.6"/>
	<a:midPointStop  offset="0.6098" style="stop-color:#1A1626;stop-opacity:0.6"/>
	<a:midPointStop  offset="1" style="stop-color:#1A1626;stop-opacity:0"/>
</linearGradient>
<path fill="url(#SVGID_2_)" d="M37.372,25.76c-9.696-0.786-6.327,18.789-6.327,18.789C38.564,46.362,32.112,62,37.066,62
	C35.209,50.822,45.11,40.463,37.372,25.76z"/>
<linearGradient id="SVGID_3_" gradientUnits="userSpaceOnUse" x1="32.1577" y1="51.1416" x2="26.423" y2="33.2328">
	<stop  offset="0.2545" style="stop-color:#CFD8DD"/>
	<stop  offset="0.6086" style="stop-color:#D7DFE3"/>
	<stop  offset="1" style="stop-color:#E6EBEF"/>
	<a:midPointStop  offset="0.2545" style="stop-color:#CFD8DD"/>
	<a:midPointStop  offset="0.6098" style="stop-color:#CFD8DD"/>
	<a:midPointStop  offset="1" style="stop-color:#E6EBEF"/>
</linearGradient>
<path fill="url(#SVGID_3_)" d="M36.146,16.813C35.649,14.383,33.2,4.711,28.054,2.006c-0.622-0.327-1.148,12.275-1.148,12.275
	c-7.169,7.02-11.652,12.448-11.652,12.448c-5.392,6.615-0.15,22.914,3.885,22.097c15.186-3.086,18.805-8.429,19.31-13.558
	C39.627,23.313,36.146,16.813,36.146,16.813z"/>
<path fill="#99A8AE" d="M28.07,3.866c0.163-1.138,5.144,6.075,3.604,13.402c-0.098,0.473-3.761-0.838-4.142-3.839
	C27.533,13.429,27.481,7.994,28.07,3.866z"/>
<path fill="#302C3B" d="M26.55,27.171c0,4.237-4.737,4.237-4.737,0S26.55,22.934,26.55,27.171z"/>
<path fill="#6E8189" d="M24.121,26.091c0,1.058-1.457,1.058-1.457,0C22.664,25.031,24.121,25.031,24.121,26.091z"/>
<path fill="#302C3B" d="M31.634,20.143c2.599,12.155-4.345,10.833,0.568,24.145c0,0,3.062-1.785,3.926-3.298
	C32.272,32.865,37.325,28.142,31.634,20.143z"/>
<path fill="#302C3B" d="M29.988,45.469c-4.087-5.076-3.118-11.264-12.337-10.482c8.205,2.162,4.519,7.91,7.027,12.471
	C24.679,47.457,27.757,46.736,29.988,45.469z"/>
<path fill="#302C3B" d="M22.439,17.703c2.862,0.848,2.093,5.173,6.703,7.125c-3.186-3.507-0.478-7.437-4.538-10.068
	C23.51,15.966,22.439,17.703,22.439,17.703z"/>
<path fill="#302C3B" d="M13.575,31.854c1.022-3.398,10.271-2.527,7.058-11.156c0,0-1.521,1.627-2.072,2.251
	c-0.372,3.424-2.872,3.858-4.686,6.434C13.556,29.836,13.575,31.854,13.575,31.854z"/>
<path fill="#302C3B" d="M15.253,26.729C8.923,33.535,3.622,39.486,2.649,41.15c-1.188,2.031-0.014,2.768-0.6,5.774
	c-0.396,2.031,1.67,3.743,3.242,3.747c0.072,1.828,3.533,1.972,4.344,2.587c1.174,0.894,5.695,0.171,7.045-3.321
	c0.811-0.465,1.639-0.865,2.457-1.111C24.021,41.894,12.171,37.542,15.253,26.729z"/>
<path fill="#1A1626" d="M6.151,44.913c-0.529,0.401-1.822,0.701-2.213,0.158c-0.393-0.544,0.27-1.727,0.797-2.126
	c0.525-0.398,1.273-0.283,1.662,0.26C6.79,43.748,6.679,44.516,6.151,44.913z"/>
<path fill="#1A1626" d="M13.735,47.588c-0.121,2.521-7.672,2.766-8.443,3.084C5.577,49.932,13.302,48.764,13.735,47.588z"/>
<path fill="#1A1626" d="M4.903,40.823c-0.537,0.352-0.443,0.569,0.029,0.382s2.779-0.814,2.973,1.793c0,0,0.129,1.167,0.422,0.009
	C8.616,41.842,7.925,38.84,4.903,40.823z"/>
</svg>
