<?xml version="1.0" encoding="utf-8"?>
<!-- Generator: Adobe Illustrator 15.0.0, SVG Export Plug-In . SVG Version: 6.00 Build 0)  -->
<!DOCTYPE svg PUBLIC "-//W3C//DTD SVG 1.1//EN" "http://www.w3.org/Graphics/SVG/1.1/DTD/svg11.dtd" [
	<!ENTITY ns_flows "http://ns.adobe.com/Flows/1.0/">
	<!ENTITY ns_extend "http://ns.adobe.com/Extensibility/1.0/">
	<!ENTITY ns_ai "http://ns.adobe.com/AdobeIllustrator/10.0/">
	<!ENTITY ns_graphs "http://ns.adobe.com/Graphs/1.0/">
]>
<svg version="1.1" id="Layer_1" xmlns:x="&ns_extend;" xmlns:i="&ns_ai;" xmlns:graph="&ns_graphs;"
	 xmlns="http://www.w3.org/2000/svg" xmlns:xlink="http://www.w3.org/1999/xlink" xmlns:a="http://ns.adobe.com/AdobeSVGViewerExtensions/3.0/"
	 x="0px" y="0px" width="64px" height="64px" viewBox="0 0 64 64" enable-background="new 0 0 64 64" xml:space="preserve">
<path fill="#D44F00" d="M2.586,33.506c1.544-1.087,8.463-5.218,6.962-5.777C8.253,27.242-0.286,35.53,2.586,33.506z"/>
<path fill="#E05400" d="M17.547,26.445c-0.006-0.833-7.085-0.078-7.896,0.381c-0.203,0.112-0.86,2.69-0.512,2.519
	C10.563,28.646,17.551,27.236,17.547,26.445z"/>
<path fill="#D44F00" d="M17.235,25.437c-0.438-0.321-0.676,1.686-0.206,1.974c2.288,1.406,8.026,1.813,8.193,0.919
	C25.354,27.638,19.576,27.174,17.235,25.437z"/>
<path fill="#D44F00" d="M31.484,36.089c1.334-0.92,4.372-1.239,3.188-1.905C33.652,33.606,28.875,37.882,31.484,36.089z"/>
<path fill="#E05400" d="M37.889,34.745c0.145-0.691-2.19-1.566-2.964-1.297c-0.195,0.067-1.221,2.118-0.894,2.022
	C35.375,35.081,37.75,35.402,37.889,34.745z"/>
<path fill="#D44F00" d="M37.803,33.868c-0.315-0.326-0.88,1.308-0.531,1.608c1.705,1.474,6.539,2.581,6.844,1.861
	C44.351,36.782,39.492,35.622,37.803,33.868z"/>
<path fill="#D44F00" d="M6.087,39.864c1.228-1.418,7.003-7.061,5.228-7.229C9.785,32.484,3.8,42.505,6.087,39.864z"/>
<path fill="#E05400" d="M19.244,29.455c-0.304-0.796-7.457,1.653-8.143,2.29c-0.172,0.157,0.062,2.787,0.365,2.537
	C12.708,33.267,19.53,30.212,19.244,29.455z"/>
<path fill="#D44F00" d="M18.555,28.565c-0.573-0.201-0.104,1.779,0.49,1.939c2.905,0.789,9.068-0.221,8.923-1.117
	C27.856,28.693,21.632,29.657,18.555,28.565z"/>
<path fill="#D44F00" d="M15.5,44.669c0.521-1.637,3.273-8.355,1.869-8.111C16.156,36.765,14.531,47.716,15.5,44.669z"/>
<path fill="#D44F00" d="M21.087,31.302c-0.497-0.061,0.44,1.725,0.941,1.742c2.446,0.088,6.849-2.289,6.477-3.113
	C28.217,29.294,23.753,31.64,21.087,31.302z"/>
<path fill="#E05400" d="M25.359,34.028c-0.677-0.492-3.739,4.871-3.789,5.705c-0.014,0.207,1.731,2.191,1.772,1.85
	C23.516,40.181,26,34.493,25.359,34.028z"/>
<path fill="#D44F00" d="M24.382,33.646c-0.487,0.113,1.012,1.469,1.488,1.313c2.327-0.756,5.634-4.5,4.997-5.146
	C30.376,29.313,27.001,33.048,24.382,33.646z"/>
<path fill="#D44F00" d="M32.608,39.443c1.216-1.024,4.199-1.589,2.941-2.155C34.464,36.797,30.23,41.441,32.608,39.443z"/>
<path fill="#E05400" d="M38.815,37.586c0.062-0.7-2.366-1.382-3.104-1.05c-0.187,0.081-0.958,2.206-0.645,2.085
	C36.355,38.124,38.755,38.251,38.815,37.586z"/>
<path fill="#D44F00" d="M38.625,36.719c-0.354-0.298-0.719,1.374-0.336,1.646c1.874,1.328,6.814,2.037,7.031,1.297
	C45.486,39.087,40.517,38.327,38.625,36.719z"/>
<path fill="#D44F00" d="M32.39,43.397c0.766-1.298,3.379-2.637,1.973-2.834C33.149,40.39,30.892,45.935,32.39,43.397z"/>
<path fill="#E05400" d="M37.569,39.966c-0.205-0.681-2.764-0.674-3.338-0.16c-0.144,0.128-0.074,2.352,0.178,2.15
	C35.442,41.139,37.765,40.612,37.569,39.966z"/>
<path fill="#D44F00" d="M37.063,39.194c-0.448-0.188-0.162,1.496,0.303,1.65c2.275,0.755,7.226,0.096,7.15-0.664
	C44.458,39.593,39.462,40.21,37.063,39.194z"/>
<path fill="#D44F00" d="M34.056,44.315c1.238-1.01,4.233-1.542,2.987-2.121C35.968,41.69,31.636,46.286,34.056,44.315z"/>
<path fill="#E05400" d="M40.304,42.526c0.076-0.697-2.34-1.406-3.085-1.084c-0.187,0.08-1.003,2.197-0.687,2.078
	C37.831,43.038,40.23,43.19,40.304,42.526z"/>
<path fill="#D44F00" d="M40.131,41.658c-0.349-0.302-0.747,1.364-0.369,1.64c1.847,1.349,6.773,2.109,7.005,1.373
	C46.946,44.101,41.989,43.285,40.131,41.658z"/>
<path fill="#D44F00" d="M31.342,46.096c1.587-0.556,4.604-0.118,3.693-1.046C34.25,44.247,28.242,47.177,31.342,46.096z"/>
<path fill="#E05400" d="M37.925,46.374c0.372-0.625-1.57-2.037-2.403-1.968c-0.209,0.017-1.879,1.731-1.533,1.72
	C35.405,46.081,37.572,46.97,37.925,46.374z"/>
<path fill="#D44F00" d="M38.139,45.513c-0.195-0.389-1.282,1.038-1.049,1.411c1.139,1.829,5.396,4.071,5.929,3.458
	C43.431,49.905,39.169,47.605,38.139,45.513z"/>
<path fill="#B04100" d="M11.63,19.205C-14.095,3.104,30.425-3.127,51.654,10.971C25.999-6.435-14.594,4.262,10.225,19.548
	C10.76,19.312,11.63,19.205,11.63,19.205z"/>
<path fill="#B04100" d="M13.131,19.165C-9.14,3.508,31.58,1.293,49.907,14.912C27.781-1.863-9.665,4.468,11.837,19.361
	C12.337,19.195,13.131,19.165,13.131,19.165z"/>
<radialGradient id="SVGID_1_" cx="19.2324" cy="37.0166" r="37.3791" gradientTransform="matrix(0.874 0.1831 -0.1542 0.7176 18.591 7.4392)" gradientUnits="userSpaceOnUse">
	<stop  offset="0" style="stop-color:#FF8800"/>
	<stop  offset="0.31" style="stop-color:#FC8500"/>
	<stop  offset="0.5257" style="stop-color:#F37C00"/>
	<stop  offset="0.7127" style="stop-color:#E46D00"/>
	<stop  offset="0.8823" style="stop-color:#CE5800"/>
	<stop  offset="1" style="stop-color:#BA4500"/>
	<a:midPointStop  offset="0" style="stop-color:#FF8800"/>
	<a:midPointStop  offset="0.7758" style="stop-color:#FF8800"/>
	<a:midPointStop  offset="1" style="stop-color:#BA4500"/>
</radialGradient>
<path fill="url(#SVGID_1_)" d="M61.506,39.048c0.609-1.221-1.98-7.871-3.932-9.182c0.013-1.527-3.829-5.458-5.356-5.74
	c-9.35-10.566-56.144-6.466-40.135-2.039c10.616,2.937,13.128,11.914,29.012,10.996c0,0-3.211,4.213,3,6.236
	c-0.765,0.154-2.498,2.121-0.508,4.139c-0.913,0.563-1.67,2.469-0.719,3.605c-1.076-0.107-3.562,1.115-3.497,2.955
	c-0.862,0.684-8.307,0.475-12.596-2.207c0,0-4.708,1.273-4.817,2.479c0.122,5.299,10.567,11.514,12.568,10.65
	c1.933,2.137,13.488,0.771,14.539-1.701c2.476-0.334,9.033-6.582,8.95-8.135C60.584,49.962,63.089,40.929,61.506,39.048z"/>
<path fill="#B04100" d="M57.375,29.116c-2.564,8.451-13.28,10.203-13.28,10.203s10.061-0.564,13.946-9.053
	C57.985,29.677,57.375,29.116,57.375,29.116z"/>
<path fill="#B04100" d="M61.587,38.28c-6.22,5.498-18,5.178-18,5.178s10.389,1.617,18.213-3.855
	C61.964,39.032,61.587,38.28,61.587,38.28z"/>
<path fill="#B04100" d="M58.622,50.688c-7.011,0.402-15.754-3.625-15.754-3.625s6.533,4.318,14.912,4.775
	C58.302,51.474,58.622,50.688,58.622,50.688z"/>
<path fill="#B04100" d="M49.935,58.966c-3.783-4.711-10.563-8.947-10.563-8.947s7.856,6.627,9.341,9.709
	C49.379,59.692,49.935,58.966,49.935,58.966z"/>
<linearGradient id="SVGID_2_" gradientUnits="userSpaceOnUse" x1="22.02" y1="52.5605" x2="22.02" y2="30.9404">
	<stop  offset="0" style="stop-color:#DE2800"/>
	<stop  offset="0.1007" style="stop-color:#E33204"/>
	<stop  offset="0.4787" style="stop-color:#F25411"/>
	<stop  offset="0.792" style="stop-color:#FC6919"/>
	<stop  offset="1" style="stop-color:#FF701C"/>
	<a:midPointStop  offset="0" style="stop-color:#DE2800"/>
	<a:midPointStop  offset="0.3818" style="stop-color:#DE2800"/>
	<a:midPointStop  offset="1" style="stop-color:#FF701C"/>
</linearGradient>
<path fill="url(#SVGID_2_)" d="M27.895,49.714c-0.505-13.121-8.555-23.321-9.816-16.695c-1.828,0.73-1.713,2.596-0.935,3.52
	c-2.425,1.781,0.238,4.164,0.986,5.504c-3.033,2.195,1.608,4.998,4.3,9.789C23.735,54.159,27.915,50.218,27.895,49.714z"/>
<path fill="#302C3B" d="M28.172,25.646c-3.931,0-3.931-6.098,0-6.098C32.104,19.548,32.104,25.646,28.172,25.646z"/>
<path id="Shape_40_" fill="#6E8189" d="M27.648,21.535c0,1.061-1.65,1.061-1.65,0C25.999,20.47,27.648,20.47,27.648,21.535
	L27.648,21.535z"/>
</svg>
