<?xml version="1.0" encoding="utf-8"?>
<!-- Generator: Adobe Illustrator 15.0.0, SVG Export Plug-In . SVG Version: 6.00 Build 0)  -->
<!DOCTYPE svg PUBLIC "-//W3C//DTD SVG 1.1//EN" "http://www.w3.org/Graphics/SVG/1.1/DTD/svg11.dtd" [
	<!ENTITY ns_flows "http://ns.adobe.com/Flows/1.0/">
	<!ENTITY ns_extend "http://ns.adobe.com/Extensibility/1.0/">
	<!ENTITY ns_ai "http://ns.adobe.com/AdobeIllustrator/10.0/">
	<!ENTITY ns_graphs "http://ns.adobe.com/Graphs/1.0/">
]>
<svg version="1.1" id="Layer_1" xmlns:x="&ns_extend;" xmlns:i="&ns_ai;" xmlns:graph="&ns_graphs;"
	 xmlns="http://www.w3.org/2000/svg" xmlns:xlink="http://www.w3.org/1999/xlink" xmlns:a="http://ns.adobe.com/AdobeSVGViewerExtensions/3.0/"
	 x="0px" y="0px" width="64px" height="64px" viewBox="0 0 64 64" enable-background="new 0 0 64 64" xml:space="preserve">
<path fill="#8C82FF" d="M24.453,34.663c0,0-3.182,4.493-5.565,5.81c-1.425,0.786-2.474-0.608-1.103-1.479
	c2.407-1.529,5.125-5.661,5.125-5.661L24.453,34.663z"/>
<path fill="#8C82FF" d="M34.299,44.878c0,0-3.18,4.495-5.565,5.812c-1.426,0.785-2.474-0.608-1.104-1.479
	c2.408-1.528,5.125-5.662,5.125-5.662L34.299,44.878z"/>
<path fill="#8C82FF" d="M41.953,29.232c0,0,3.181-4.494,5.565-5.81c1.425-0.786,2.474,0.609,1.103,1.479
	c-2.407,1.53-5.124,5.662-5.124,5.662L41.953,29.232z"/>
<path fill="#0167FF" d="M36.808,22.716c0,0,4.344-3.432,7.015-4.038c1.594-0.361,2.203,1.263,0.638,1.72
	c-2.754,0.804-6.55,4.017-6.55,4.017L36.808,22.716z"/>
<path fill="#8C82FF" d="M45.092,53.911c0,0-1.158,5.36-2.834,7.478c-1.002,1.267-2.515,0.375-1.597-0.948
	c1.613-2.325,2.484-7.175,2.484-7.175L45.092,53.911z"/>
<path fill="#0167FF" d="M18.267,29.896c0,0-2.906,2.296-3.693,5.964c-0.333,1.556-2.241,1.165-1.938-0.399
	c0.705-3.651,3.843-6.558,3.843-6.558L18.267,29.896z"/>
<path fill="#0167FF" d="M38.657,52.559c0,0-2.907,2.296-3.694,5.964c-0.333,1.554-2.241,1.164-1.938-0.401
	c0.704-3.649,3.843-6.555,3.843-6.555L38.657,52.559z"/>
<path fill="#0167FF" d="M49.983,52.318c0,0,0.813,3.585,3.814,5.932c1.271,0.996,0.075,2.491-1.221,1.521
	c-3.021-2.268-4.291-6.333-4.291-6.333L49.983,52.318z"/>
<path fill="#8C82FF" d="M53.284,48.323c0,0,2.993,2.221,6.818,2.104c1.621-0.048,1.707,1.856,0.083,1.939
	c-3.788,0.188-7.441-2.108-7.441-2.108L53.284,48.323z"/>
<path fill="#0167FF" d="M53.354,43.053c0,0,3.719,0.434,6.944-1.569c1.368-0.849,2.428,0.756,1.075,1.636
	c-3.154,2.048-7.481,1.877-7.481,1.877L53.354,43.053z"/>
<path fill="#8C82FF" d="M50.247,37.442c0,0,3.682-0.654,6.158-3.501c1.051-1.205,2.544,0.025,1.515,1.257
	c-2.397,2.869-6.577,3.948-6.577,3.948L50.247,37.442z"/>
<path fill="#0167FF" d="M46.902,33.025c0,0,3.364-1.591,4.975-4.984c0.685-1.439,2.455-0.638,1.8,0.818
	c-1.527,3.395-5.257,5.528-5.257,5.528L46.902,33.025z"/>
<path fill="#8C82FF" d="M32.876,18.057c0,0,3.364-1.592,4.975-4.985c0.685-1.44,2.454-0.639,1.8,0.817
	c-1.528,3.396-5.257,5.529-5.257,5.529L32.876,18.057z"/>
<path fill="#0167FF" d="M29.278,12.661c0,0,3.032-2.136,4.023-5.755c0.422-1.534,2.304-1.042,1.914,0.504
	c-0.907,3.604-4.204,6.336-4.204,6.336L29.278,12.661z"/>
<path fill="#0167FF" d="M23.803,10.398c0,0,1.542-3.336,0.568-6.969c-0.412-1.541,1.465-2.028,1.912-0.492
	c1.038,3.582-0.431,7.565-0.431,7.565L23.803,10.398z"/>
<path fill="#8C82FF" d="M18.839,11.441c0,0,0.299-3.657-1.866-6.762c-0.919-1.317,0.677-2.398,1.626-1.096
	c2.209,3.036,2.202,7.278,2.202,7.278L18.839,11.441z"/>
<path fill="#8C82FF" d="M13.728,24.73c0,0-1.559,3.671-5.512,5.306c-1.69,0.697-2.404-0.892-0.847-1.805
	c3.384-1.981,4.913-4.933,4.913-4.933L13.728,24.73z"/>
<path fill="#0167FF" d="M11.009,22.187c0,0-3.334-0.828-7.66,0.955C1.81,23.776,1.468,21.884,2.95,21.15
	c3.28-1.625,7.812-0.961,7.812-0.961L11.009,22.187z"/>
<path fill="#8C82FF" d="M11.294,17.12c0,0-2.284-2.079-6.871-2.859c-1.846-0.313-1.569-2.287,0.282-2.004
	c5.216,0.798,7.378,2.997,7.378,2.997L11.294,17.12z"/>
<path fill="#0167FF" d="M14.087,12.412c0,0-3.379-2.199-5.271-5.473C7.82,5.213,9.642,4.159,10.671,5.864
	c1.947,3.225,4.922,5.162,4.922,5.162L14.087,12.412z"/>
<path fill="#0167FF" d="M30.527,39.828c0,0-2.884,1.47-5.742,4.504c-1.188,1.262-2.788-0.148-1.612-1.422
	c2.77-3.001,6.085-4.661,6.085-4.661L30.527,39.828z"/>
<linearGradient id="SVGID_1_" gradientUnits="userSpaceOnUse" x1="9.0483" y1="32.3916" x2="56.5801" y2="32.3916">
	<stop  offset="0" style="stop-color:#C954FF"/>
	<stop  offset="1" style="stop-color:#0084FF"/>
	<a:midPointStop  offset="0" style="stop-color:#C954FF"/>
	<a:midPointStop  offset="0.5" style="stop-color:#C954FF"/>
	<a:midPointStop  offset="1" style="stop-color:#0084FF"/>
</linearGradient>
<path fill="url(#SVGID_1_)" d="M42.925,57.432c-4.327-0.661-7.829-3.528-9.607-7.861c-3.222-7.853-7.144-10.613-11.297-13.534
	c-3.713-2.611-7.55-5.313-11.046-11.482c-2.549-4.498-2.568-9.096-0.055-12.615c2.486-3.482,7.055-5.279,11.637-4.579
	c4.346,0.664,8.135,3.438,10.667,7.808c2.859,4.938,6.746,7.958,10.504,10.878c4.819,3.744,9.801,7.616,12.129,15.284
	c1.458,4.808,0.701,9.194-2.131,12.353C51.1,56.614,46.961,58.051,42.925,57.432z"/>
<radialGradient id="SVGID_2_" cx="32.8086" cy="32.3926" r="30.2164" gradientTransform="matrix(0.7071 0.7071 -0.2894 0.2894 18.9843 -0.1815)" gradientUnits="userSpaceOnUse">
	<stop  offset="0" style="stop-color:#0077FF"/>
	<stop  offset="0.3008" style="stop-color:#0275FD;stop-opacity:0.7804"/>
	<stop  offset="0.4681" style="stop-color:#0A6EF8;stop-opacity:0.6583"/>
	<stop  offset="0.6027" style="stop-color:#1861EE;stop-opacity:0.56"/>
	<stop  offset="0.7199" style="stop-color:#2C4FE0;stop-opacity:0.4745"/>
	<stop  offset="0.8257" style="stop-color:#4538CE;stop-opacity:0.3972"/>
	<stop  offset="0.9219" style="stop-color:#641CB9;stop-opacity:0.327"/>
	<stop  offset="1" style="stop-color:#8300A3;stop-opacity:0.27"/>
	<a:midPointStop  offset="0" style="stop-color:#0077FF"/>
	<a:midPointStop  offset="0.8121" style="stop-color:#0077FF"/>
	<a:midPointStop  offset="1" style="stop-color:#8300A3;stop-opacity:0.27"/>
</radialGradient>
<path fill="url(#SVGID_2_)" d="M53.455,41.319c-3.774-12.442-15.048-13.572-21.496-24.704c-7.813-13.488-25.993-5.135-18.767,7.621
	c6.953,12.27,15.461,9.521,21.424,24.057C39.559,60.335,57.679,55.245,53.455,41.319z"/>
<path fill="#00A2FF" d="M46.453,50.847c-0.394,1.104-2.085,0.517-1.693-0.588C45.152,49.156,46.845,49.741,46.453,50.847z"/>
<path fill="#00A2FF" d="M42.102,48.522c-0.613,1.727-3.261,0.81-2.646-0.916C40.07,45.881,42.717,46.798,42.102,48.522z"/>
<path fill="#00A2FF" d="M47.523,46.711c-0.394,1.104-2.086,0.517-1.694-0.585C46.223,45.02,47.915,45.607,47.523,46.711z"/>
<path fill="#00A2FF" d="M49.978,42.592c-0.395,1.102-2.087,0.516-1.694-0.589S50.37,41.485,49.978,42.592z"/>
<path fill="#00A2FF" d="M47.26,37.929c-0.275,0.777-1.467,0.362-1.189-0.414C46.345,36.739,47.536,37.151,47.26,37.929z"/>
<path fill="#00A2FF" d="M43.989,42.038c-0.604,1.702-3.215,0.799-2.61-0.904C41.985,39.431,44.595,40.336,43.989,42.038z"/>
<path fill="#00A2FF" d="M41.726,30.887c1.339,0.603,0.429,2.567-0.909,1.964C39.477,32.248,40.387,30.284,41.726,30.887z"/>
<path fill="#00A2FF" d="M38.797,36.931c2.093,0.942,0.669,4.009-1.425,3.067C35.279,39.058,36.702,35.989,38.797,36.931z"/>
<path fill="#00A2FF" d="M35.704,32.168c1.34,0.604,0.427,2.567-0.912,1.964C33.451,33.53,34.363,31.565,35.704,32.168z"/>
<path fill="#00A2FF" d="M33.897,26.898c1.34,0.602,0.43,2.566-0.91,1.964C31.646,28.258,32.556,26.295,33.897,26.898z"/>
<path fill="#00A2FF" d="M24.988,28.848c0.944,0.425,0.301,1.808-0.639,1.383C23.404,29.807,24.046,28.425,24.988,28.848z"/>
<path fill="#00A2FF" d="M29.732,30.97c2.064,0.929,0.662,3.958-1.404,3.029C26.259,33.068,27.666,30.041,29.732,30.97z"/>
<path fill="#00A2FF" d="M15.613,21.781c-1.203-0.585-0.317-2.347,0.883-1.763C17.7,20.603,16.814,22.365,15.613,21.781z"/>
<path fill="#00A2FF" d="M18.539,17.249c-1.879-0.915-0.496-3.668,1.381-2.755C21.8,15.409,20.418,18.163,18.539,17.249z"/>
<path fill="#00A2FF" d="M20.37,23.511c-1.202-0.584-0.319-2.346,0.885-1.761C22.456,22.334,21.573,24.097,20.37,23.511z"/>
<path fill="#00A2FF" d="M25.968,25.868c-1.2-0.584-0.316-2.348,0.887-1.762C28.056,24.692,27.173,26.453,25.968,25.868z"/>
<path fill="#00A2FF" d="M30.4,24.018c-0.846-0.412-0.223-1.653,0.622-1.241C31.87,23.188,31.247,24.429,30.4,24.018z"/>
<path fill="#00A2FF" d="M26.159,19.942c-1.854-0.901-0.489-3.619,1.364-2.717C29.376,18.126,28.013,20.845,26.159,19.942z"/>
</svg>
