<?xml version="1.0" encoding="utf-8"?>
<!-- Generator: Adobe Illustrator 15.0.0, SVG Export Plug-In . SVG Version: 6.00 Build 0)  -->
<!DOCTYPE svg PUBLIC "-//W3C//DTD SVG 1.1//EN" "http://www.w3.org/Graphics/SVG/1.1/DTD/svg11.dtd" [
	<!ENTITY ns_flows "http://ns.adobe.com/Flows/1.0/">
	<!ENTITY ns_extend "http://ns.adobe.com/Extensibility/1.0/">
	<!ENTITY ns_ai "http://ns.adobe.com/AdobeIllustrator/10.0/">
	<!ENTITY ns_graphs "http://ns.adobe.com/Graphs/1.0/">
]>
<svg version="1.1" id="Layer_1" xmlns:x="&ns_extend;" xmlns:i="&ns_ai;" xmlns:graph="&ns_graphs;"
	 xmlns="http://www.w3.org/2000/svg" xmlns:xlink="http://www.w3.org/1999/xlink" xmlns:a="http://ns.adobe.com/AdobeSVGViewerExtensions/3.0/"
	 x="0px" y="0px" width="64px" height="64px" viewBox="0 0 64 64" enable-background="new 0 0 64 64" xml:space="preserve">
<path fill="#FFCC66" d="M38.527,19.994c-0.623,13.959-0.248,11.862-13.563,20.248c-4.179,2.635-5.237,5.215-8.51,6.146
	c-4.489,1.275-5.168-0.717-10.231,0.68c-1.196,0.33-5.638-1.08-3.29,4.098c-0.463,1.063-0.744,3.059,1.924,3.799
	c-0.097,1.129,1.221,2.541,2.847,2.104c0.539,0.867,2.129,1.803,3.015,1.328c0.275,1.555,1.842,2.828,4.822,1.197
	c10.535,6.291,18.696-4.236,26.78-4.795c6.199-0.428,25.308,5.277,17.061-16.68c-1.775-4.732-0.322-8.748,1.237-14.652
	C63.616,12.129,38.928,10.98,38.527,19.994z"/>
<path fill="#E6B045" d="M60.378,41.076c4.457,15.723-10.075,11.586-19.87,13.867c-12,2.793-18.282,9.254-24.725,4.07
	c-2.6,2.311-5.944-1.043-3.555-2.156c0.525-3.238,5.499-2.826,5.58-4.482c-0.951,1.178-5.256,0.637-5.922,3.984
	c-1.075-0.121-1.553,0.867-1.553,0.867c-1.355,0.338-3.723-1.826-1.169-2.443c0.522-3.238,6.319-2.957,6.399-4.611
	c-0.951,1.174-5.991,0.809-6.657,4.154c-0.167-0.004-1.489,0.232-1.741,1.33c-1.196-0.102-3.016-2.039-0.375-2.295
	c0.6-2.852,4.441-3.533,6.691-4.061c-2.554,0.086-6.352,0.459-7.095,3.412c-1.575,0.338-1.544,1.088-1.544,1.088
	c-1.092-0.5-2.633-3.586,0.004-3.158c1.338-1.896,4.76-2.697,7.055-2.76c-1.867-0.703-6.131,0.541-7.354,2.014
	c-2.129,0.688-2.389-1.023-2.074-2.008c-0.965,1.414-0.205,3.119,0.07,3.398c-0.498,2.42,0.801,3.912,2.077,3.971
	c0.046,1.311,1.534,2.709,2.89,2.143c0,0,0.65,2.145,2.814,1.633c0.466,1.039,1.804,2.791,5.197,0.889
	c8.211,5.65,15.443-1.816,25.307-3.646C48.256,54.896,67.708,59.473,60.378,41.076z"/>
<path fill="#E6B045" d="M51.105,42.109c2.607-1.393,3.027-6.682-0.506-13.518C50.326,30.879,52.559,37.941,51.105,42.109z"/>
<path fill="#FFE8BB" d="M5.662,47.156c-2.874-0.533-3.271,0.438-3.271,0.438s-0.694,2.797,2.229,1.539
	C6.412,48.363,5.662,47.156,5.662,47.156z"/>
<path fill="#FFE8BB" d="M5.177,50.393c-1.924-0.02-1.994,0.834-1.994,0.834s0.084,2.396,1.704,0.939
	C5.88,51.275,5.177,50.393,5.177,50.393z"/>
<path fill="#FFE8BB" d="M6.888,53.225c-1.682,0.23-1.667,0.934-1.667,0.934s0.286,1.934,1.571,0.545
	C7.58,53.852,6.888,53.225,6.888,53.225z"/>
<path fill="#FFE8BB" d="M9.277,54.631c-1.656,0.371-1.583,1.068-1.583,1.068s0.447,1.904,1.611,0.412
	C10.019,55.197,9.277,54.631,9.277,54.631z"/>
<path fill="#FFE8BB" d="M12.464,56.545c-1.577,0.627-1.396,1.305-1.396,1.305s0.739,1.811,1.655,0.154
	C13.287,56.988,12.464,56.545,12.464,56.545z"/>
</svg>
