<?xml version="1.0" encoding="utf-8"?>
<!-- Generator: Adobe Illustrator 15.0.0, SVG Export Plug-In . SVG Version: 6.00 Build 0)  -->
<!DOCTYPE svg PUBLIC "-//W3C//DTD SVG 1.1//EN" "http://www.w3.org/Graphics/SVG/1.1/DTD/svg11.dtd" [
	<!ENTITY ns_flows "http://ns.adobe.com/Flows/1.0/">
	<!ENTITY ns_extend "http://ns.adobe.com/Extensibility/1.0/">
	<!ENTITY ns_ai "http://ns.adobe.com/AdobeIllustrator/10.0/">
	<!ENTITY ns_graphs "http://ns.adobe.com/Graphs/1.0/">
]>
<svg version="1.1" id="Layer_1" xmlns:x="&ns_extend;" xmlns:i="&ns_ai;" xmlns:graph="&ns_graphs;"
	 xmlns="http://www.w3.org/2000/svg" xmlns:xlink="http://www.w3.org/1999/xlink" xmlns:a="http://ns.adobe.com/AdobeSVGViewerExtensions/3.0/"
	 x="0px" y="0px" width="64px" height="64px" viewBox="0 0 64 64" enable-background="new 0 0 64 64" xml:space="preserve">
<path fill="#EBC199" d="M38.527,19.994c-0.623,13.959-0.248,11.862-13.563,20.249c-4.18,2.635-5.238,5.215-8.51,6.146
	c-4.49,1.275-5.168-0.717-10.232,0.68c-1.195,0.33-5.637-1.08-3.289,4.098c-0.463,1.063-0.744,3.059,1.924,3.799
	c-0.098,1.129,1.221,2.541,2.846,2.104c0.539,0.867,2.129,1.803,3.016,1.328c0.275,1.555,1.842,2.828,4.822,1.197
	c10.535,6.292,18.695-4.236,26.779-4.795c6.199-0.428,25.307,5.277,17.061-16.68c-1.775-4.732-0.322-8.748,1.236-14.653
	C63.615,12.128,38.928,10.98,38.527,19.994z"/>
<path fill="#C99B71" d="M60.377,41.076c4.457,15.723-10.074,11.586-19.869,13.867c-12,2.793-18.281,9.255-24.725,4.07
	c-2.6,2.311-5.945-1.043-3.555-2.156c0.525-3.238,5.498-2.826,5.58-4.482c-0.951,1.178-5.256,0.637-5.922,3.984
	c-1.076-0.121-1.553,0.867-1.553,0.867c-1.355,0.338-3.723-1.826-1.17-2.443c0.523-3.238,6.32-2.957,6.4-4.611
	c-0.951,1.174-5.992,0.809-6.658,4.154c-0.166-0.004-1.488,0.232-1.74,1.33c-1.197-0.102-3.016-2.039-0.375-2.295
	c0.6-2.852,4.441-3.533,6.691-4.061c-2.555,0.086-6.352,0.459-7.096,3.412c-1.574,0.338-1.543,1.088-1.543,1.088
	c-1.092-0.5-2.633-3.586,0.004-3.158c1.338-1.896,4.76-2.697,7.055-2.76c-1.867-0.703-6.131,0.541-7.354,2.014
	c-2.129,0.688-2.389-1.023-2.074-2.008c-0.965,1.414-0.205,3.119,0.07,3.398c-0.498,2.42,0.801,3.912,2.076,3.971
	c0.047,1.311,1.535,2.709,2.891,2.143c0,0,0.65,2.145,2.814,1.633c0.465,1.039,1.803,2.792,5.197,0.889
	c8.211,5.651,15.443-1.816,25.307-3.646C48.256,54.896,67.707,59.473,60.377,41.076z"/>
<path fill="#C99B71" d="M51.105,42.109c2.607-1.393,3.027-6.682-0.506-13.518C50.326,30.879,52.559,37.941,51.105,42.109z"/>
<path fill="#F7D8BD" d="M5.662,47.156c-2.875-0.533-3.271,0.438-3.271,0.438s-0.693,2.797,2.23,1.539
	C6.412,48.363,5.662,47.156,5.662,47.156z"/>
<path fill="#F7D8BD" d="M5.178,50.393c-1.924-0.02-1.994,0.834-1.994,0.834s0.084,2.396,1.703,0.939
	C5.881,51.275,5.178,50.393,5.178,50.393z"/>
<path fill="#F7D8BD" d="M6.889,53.225c-1.682,0.23-1.668,0.934-1.668,0.934s0.287,1.934,1.572,0.545
	C7.58,53.852,6.889,53.225,6.889,53.225z"/>
<path fill="#F7D8BD" d="M9.277,54.631c-1.656,0.371-1.584,1.068-1.584,1.068s0.447,1.904,1.611,0.412
	C10.02,55.197,9.277,54.631,9.277,54.631z"/>
<path fill="#F7D8BD" d="M12.465,56.545c-1.578,0.627-1.396,1.305-1.396,1.305s0.74,1.811,1.656,0.154
	C13.287,56.988,12.465,56.545,12.465,56.545z"/>
</svg>
