<?xml version="1.0" encoding="utf-8"?>
<!-- Generator: Adobe Illustrator 15.0.0, SVG Export Plug-In . SVG Version: 6.00 Build 0)  -->
<!DOCTYPE svg PUBLIC "-//W3C//DTD SVG 1.1//EN" "http://www.w3.org/Graphics/SVG/1.1/DTD/svg11.dtd" [
	<!ENTITY ns_flows "http://ns.adobe.com/Flows/1.0/">
	<!ENTITY ns_extend "http://ns.adobe.com/Extensibility/1.0/">
	<!ENTITY ns_ai "http://ns.adobe.com/AdobeIllustrator/10.0/">
	<!ENTITY ns_graphs "http://ns.adobe.com/Graphs/1.0/">
]>
<svg version="1.1" id="Layer_1" xmlns:x="&ns_extend;" xmlns:i="&ns_ai;" xmlns:graph="&ns_graphs;"
	 xmlns="http://www.w3.org/2000/svg" xmlns:xlink="http://www.w3.org/1999/xlink" xmlns:a="http://ns.adobe.com/AdobeSVGViewerExtensions/3.0/"
	 x="0px" y="0px" width="64px" height="64px" viewBox="0 0 64 64" enable-background="new 0 0 64 64" xml:space="preserve">
<path fill="#473834" d="M37.186,32.603C47.563,28.455,46.523,18.6,46.523,18.6H17.476c0,0-1.039,9.855,9.335,14.003
	c0,0,2.077,0.52,5.188,0.52C35.113,33.123,37.186,32.603,37.186,32.603z"/>
<linearGradient id="SVGID_1_" gradientUnits="userSpaceOnUse" x1="42.374" y1="33.1201" x2="42.374" y2="2.0776">
	<stop  offset="0.05" style="stop-color:#473834"/>
	<stop  offset="0.2266" style="stop-color:#594640"/>
	<stop  offset="0.5197" style="stop-color:#715950"/>
	<stop  offset="0.7" style="stop-color:#7A6056"/>
	<a:midPointStop  offset="0.05" style="stop-color:#473834"/>
	<a:midPointStop  offset="0.4" style="stop-color:#473834"/>
	<a:midPointStop  offset="0.7" style="stop-color:#7A6056"/>
</linearGradient>
<path fill="url(#SVGID_1_)" d="M42.488,19.65c1.063,4.469,0.502,8.891-5.303,12.953c6.227-1.036,10.377-6.914,10.377-11.425
	L42.488,19.65z"/>
<linearGradient id="SVGID_2_" gradientUnits="userSpaceOnUse" x1="1759.1895" y1="33.1201" x2="1759.1895" y2="2.0776" gradientTransform="matrix(-1 0 0 1 1780.8145 0)">
	<stop  offset="0.05" style="stop-color:#473834"/>
	<stop  offset="0.2266" style="stop-color:#594640"/>
	<stop  offset="0.5197" style="stop-color:#715950"/>
	<stop  offset="0.7" style="stop-color:#7A6056"/>
	<a:midPointStop  offset="0.05" style="stop-color:#473834"/>
	<a:midPointStop  offset="0.4" style="stop-color:#473834"/>
	<a:midPointStop  offset="0.7" style="stop-color:#7A6056"/>
</linearGradient>
<path fill="url(#SVGID_2_)" d="M21.512,19.65c-1.063,4.469-0.503,8.891,5.301,12.953c-6.225-1.036-10.376-6.914-10.376-11.425
	L21.512,19.65z"/>
<path fill="#E81C27" d="M42.738,30.422c-1.607-1.608-3.959-1.137-3.959-1.137c-4.602-1.942-8.955-1.942-13.557-0.001
	c0,0-2.352-0.471-3.961,1.138C12.183,30.568,7.326,47.066,5.507,62h52.985C56.674,47.066,51.816,30.568,42.738,30.422z"/>
<path fill="#850000" d="M47.971,36.234H16.03c0,0-6.495,10.012-2.803,25.766h37.544C54.465,46.246,47.971,36.234,47.971,36.234z"/>
<path fill="#A3141B" d="M18.749,30.906c0,0,3.111-0.775,6.393,0.217C21.719,29.224,18.749,30.906,18.749,30.906z"/>
<path fill="#A3141B" d="M23.828,29.252c0,0,2.204,0.066,4.235,1.941C26.266,28.568,23.828,29.252,23.828,29.252z"/>
<path fill="#A3141B" d="M45.252,30.906c0,0-3.111-0.775-6.393,0.217C42.281,29.224,45.252,30.906,45.252,30.906z"/>
<path fill="#A3141B" d="M40.172,29.252c0,0-2.203,0.066-4.234,1.941C37.734,28.568,40.172,29.252,40.172,29.252z"/>
<path fill="#006DAE" d="M59.9,48.041c-0.859-2.525-5.617-8.796-11.93-11.807c-1.156-2.177-6.445-5.752-11.469-4.172
	C35.283,32.446,34.25,33.481,32,33.48c-2.252,0.001-3.283-1.035-4.503-1.418c-5.024-1.581-10.313,1.995-11.468,4.172
	C9.716,39.245,4.958,45.516,4.099,48.041c-0.836,2.461,3.574,5.855,12.129,11.622c3.973-1.062,1.895-3.951,1.895-3.951
	c-3.121-1.746-4.263-4.73-6.903-7.399c0,0,7.18-3.417,8.604-6.974c0.324-0.808,0.672,0.501,0.522,0.898
	c-2.229,5.919,1.787,7.872,1.912,10.019c0.184,3.158,0.252,6.756-0.362,9.744h20.208c-0.613-2.988-0.545-6.586-0.361-9.744
	c0.125-2.146,4.141-4.1,1.912-10.019c-0.15-0.397,0.197-1.706,0.521-0.898c1.424,3.557,8.605,6.974,8.605,6.974
	c-2.641,2.669-3.783,5.653-6.904,7.399c0,0-2.078,2.89,1.895,3.951C56.326,53.896,60.736,50.502,59.9,48.041z"/>
<linearGradient id="SVGID_3_" gradientUnits="userSpaceOnUse" x1="32.0005" y1="50.8174" x2="32.0005" y2="36.8164">
	<stop  offset="0" style="stop-color:#FFF047"/>
	<stop  offset="0.0078" style="stop-color:#FFF049"/>
	<stop  offset="0.2289" style="stop-color:#FFF273"/>
	<stop  offset="0.444" style="stop-color:#FFF394"/>
	<stop  offset="0.6487" style="stop-color:#FFF4AC"/>
	<stop  offset="0.8388" style="stop-color:#FFF5BA"/>
	<stop  offset="1" style="stop-color:#FFF5BF"/>
	<a:midPointStop  offset="0" style="stop-color:#FFF047"/>
	<a:midPointStop  offset="0.3273" style="stop-color:#FFF047"/>
	<a:midPointStop  offset="1" style="stop-color:#FFF5BF"/>
</linearGradient>
<path fill="url(#SVGID_3_)" d="M32,36.816c-3.86,0-7,3.141-7,7.001c0,3.859,3.14,7,7,7c3.859,0,7-3.141,7-7
	C39,39.957,35.859,36.816,32,36.816L32,36.816z"/>
<g id="Shape_3_">
	<g>
		<linearGradient id="SVGID_4_" gradientUnits="userSpaceOnUse" x1="32.0005" y1="50.3799" x2="32.0005" y2="37.2539">
			<stop  offset="0" style="stop-color:#E81C27"/>
			<stop  offset="0.157" style="stop-color:#EA2324"/>
			<stop  offset="0.3936" style="stop-color:#EE381D"/>
			<stop  offset="0.6805" style="stop-color:#F55A11"/>
			<stop  offset="1" style="stop-color:#FF8800"/>
			<a:midPointStop  offset="0" style="stop-color:#E81C27"/>
			<a:midPointStop  offset="0.6182" style="stop-color:#E81C27"/>
			<a:midPointStop  offset="1" style="stop-color:#FF8800"/>
		</linearGradient>
		<path fill="url(#SVGID_4_)" d="M32,38.895c2.714,0,4.921,2.209,4.921,4.923c0,2.713-2.207,4.922-4.921,4.922
			c-2.713,0-4.923-2.209-4.923-4.922C27.078,41.104,29.288,38.895,32,38.895z M32,37.254c-3.623,0-6.563,2.939-6.563,6.563
			c0,3.623,2.94,6.563,6.563,6.563c3.625,0,6.562-2.939,6.562-6.563C38.563,40.193,35.625,37.254,32,37.254z"/>
	</g>
</g>
<linearGradient id="Combined-Shape_1_" gradientUnits="userSpaceOnUse" x1="32.4956" y1="47.5918" x2="32.4956" y2="43.1592">
	<stop  offset="0" style="stop-color:#E81C27"/>
	<stop  offset="0.157" style="stop-color:#EA2324"/>
	<stop  offset="0.3936" style="stop-color:#EE381D"/>
	<stop  offset="0.6805" style="stop-color:#F55A11"/>
	<stop  offset="1" style="stop-color:#FF8800"/>
	<a:midPointStop  offset="0" style="stop-color:#E81C27"/>
	<a:midPointStop  offset="0.6182" style="stop-color:#E81C27"/>
	<a:midPointStop  offset="1" style="stop-color:#FF8800"/>
</linearGradient>
<path id="Combined-Shape_4_" fill="url(#Combined-Shape_1_)" d="M33.314,44.475c-0.221,0-0.331-0.109-0.331-0.328V43.49
	c0-0.222,0.11-0.331,0.331-0.331h2.131c0.221,0,0.33,0.109,0.33,0.331v0.327c0,2.085-1.689,3.774-3.775,3.774
	c-1.014,0-1.965-0.403-2.667-1.105c-0.156-0.157-0.156-0.308-0.003-0.465l0.701-0.695c0.153-0.154,0.307-0.154,0.461,0
	c0.399,0.397,0.936,0.625,1.508,0.625c0.947,0,1.751-0.618,2.031-1.477H33.314z"/>
<linearGradient id="SVGID_5_" gradientUnits="userSpaceOnUse" x1="31.9883" y1="60.915" x2="31.9883" y2="54.5166">
	<stop  offset="0" style="stop-color:#FF8800"/>
	<stop  offset="0.2113" style="stop-color:#FFA113"/>
	<stop  offset="0.5427" style="stop-color:#FFC32B"/>
	<stop  offset="0.8176" style="stop-color:#FFD83A"/>
	<stop  offset="1" style="stop-color:#FFDF40"/>
	<a:midPointStop  offset="0" style="stop-color:#FF8800"/>
	<a:midPointStop  offset="0.3818" style="stop-color:#FF8800"/>
	<a:midPointStop  offset="1" style="stop-color:#FFDF40"/>
</linearGradient>
<path fill="url(#SVGID_5_)" d="M42.605,56.646c-0.703-0.705-4.033,0.06-7.375-1.295c-2.663-1.079-3.662-1.146-6.486,0.001
	c-3.332,1.352-6.651,0.59-7.352,1.294c-0.431,0.435-0.64,1.987,0,2.373c1.023,0.616,4.206-0.11,7.338,1.177
	c2.309,0.948,4.15,0.962,6.486,0.027c3.232-1.293,6.475-0.533,7.389-1.204C43.189,58.59,43.037,57.08,42.605,56.646z"/>
<path fill="#FF9E00" d="M29.147,55.744c-0.133,0.143-0.236,0.295-0.3,0.46c-0.227,0.589-0.336,2.69,0,3.212
	c0.062,0.095,0.139,0.184,0.224,0.271C28.884,58.693,28.973,56.538,29.147,55.744z"/>
<path fill="#FF9E00" d="M25.549,56.225c-0.134,0.108-0.237,0.224-0.3,0.349c-0.227,0.444-0.337,2.034,0,2.429
	c0.061,0.07,0.138,0.139,0.223,0.203C25.286,58.455,25.375,56.826,25.549,56.225z"/>
<path fill="#FF9E00" d="M34.828,55.744c0.133,0.143,0.236,0.295,0.301,0.46c0.227,0.589,0.336,2.69,0,3.212
	c-0.061,0.095-0.139,0.184-0.225,0.271C35.092,58.693,35.002,56.538,34.828,55.744z"/>
<path fill="#FF9E00" d="M38.426,56.225c0.135,0.108,0.236,0.224,0.301,0.349c0.227,0.444,0.336,2.034,0,2.429
	c-0.061,0.07-0.139,0.139-0.225,0.203C38.689,58.455,38.6,56.826,38.426,56.225z"/>
<path fill="#FFCC66" d="M18.132,55.734c2.076,0.324,2.814-1.258,4.203-0.832c0,0,0.288,0.488,0.377,1.429
	c0.086,0.896,0.482,1.814,2.498,2.923c1.328,0.728,0.318,2.109-0.905,1.602c-0.344,0.719-1.375,0.719-1.375,0.719
	c-1.813,1.438-5.16-1.172-6.693-1.889C18.126,57.602,18.132,55.734,18.132,55.734z"/>
<path fill="#DB9D3A" d="M21.852,59.793c0,0,0.97,0.607,2.453,1.063C22.963,60.229,21.852,59.793,21.852,59.793z"/>
<path fill="#DB9D3A" d="M20.864,60.938c0,0,0.707,0.637,2.066,0.637C21.852,61.414,20.864,60.938,20.864,60.938z"/>
<path fill="#FFCC66" d="M45.877,55.734c-2.076,0.324-2.814-1.258-4.203-0.832c0,0-0.287,0.488-0.377,1.429
	c-0.086,0.896-0.482,1.814-2.498,2.923c-1.328,0.728-0.318,2.109,0.904,1.602c0.344,0.719,1.375,0.719,1.375,0.719
	c1.813,1.438,5.16-1.172,6.693-1.889C45.883,57.602,45.877,55.734,45.877,55.734z"/>
<path fill="#DB9D3A" d="M42.156,59.793c0,0-0.971,0.607-2.453,1.063C41.045,60.229,42.156,59.793,42.156,59.793z"/>
<path fill="#DB9D3A" d="M43.145,60.938c0,0-0.707,0.637-2.066,0.637C42.156,61.414,43.145,60.938,43.145,60.938z"/>
<path fill="#E6B045" d="M27.5,30.799c0,3.827,9,3.827,9,0c0-1.302,0-4.235,0-4.235h-9C27.5,26.564,27.5,29.497,27.5,30.799z"/>
<path fill="#FFCC66" d="M32,3.557c-7.527,0-11.155,6.128-10.702,14.012c0.093,1.585,0.534,3.871,1.078,5.827
	c1.13,4.07,7.087,8.171,9.624,8.171c2.535,0,8.492-4.101,9.623-8.171c0.545-1.957,0.986-4.242,1.078-5.827
	C43.152,9.686,39.529,3.557,32,3.557z"/>
<path fill="#D47706" d="M31.999,25.166c-1.763-0.773-1.777-0.029-4.5,0.152c1.022,1.162,1.775,2.655,4.5,2.655
	c3.128,0,3.656-1.696,4.503-2.655C33.775,25.136,33.766,24.393,31.999,25.166z"/>
<path fill="#FFFFFF" d="M28.315,25.609c1.777,1.849,5.615,1.826,7.369,0C32.947,25.904,31.054,25.904,28.315,25.609z"/>
<path fill="#966F42" d="M39.998,14.946c-1.635-0.973-4.568-1.094-5.727-0.43c-0.248,0.134-0.184,0.838,0.031,0.75
	c1.654-0.69,4.178-0.723,5.73,0.076C40.242,15.446,40.248,15.087,39.998,14.946z"/>
<path fill="#966F42" d="M24,14.946c1.636-0.973,4.568-1.094,5.731-0.43c0.245,0.134,0.182,0.838-0.035,0.75
	c-1.654-0.69-4.176-0.723-5.731,0.076C23.757,15.446,23.752,15.087,24,14.946z"/>
<path fill="#DB9D3A" d="M33.691,22.666c-0.178-0.125-0.6,0.069-1.693,0.069c-1.092,0-1.513-0.194-1.692-0.069
	c-0.214,0.152,0.126,0.834,1.692,0.834C33.564,23.5,33.906,22.818,33.691,22.666z"/>
<path fill="#E81C27" d="M32.018,15.699c-2.745,0.002-8.313-4.523-10.937,0.977c1.142,10.52,8.134,2.352,10.937,2.355
	c2.796,0.004,9.853,8.26,10.9-2.355C40.295,11.173,34.756,15.697,32.018,15.699z"/>
<linearGradient id="SVGID_6_" gradientUnits="userSpaceOnUse" x1="32" y1="33.1221" x2="32" y2="2.0782">
	<stop  offset="0.05" style="stop-color:#473834"/>
	<stop  offset="0.2266" style="stop-color:#594640"/>
	<stop  offset="0.5197" style="stop-color:#715950"/>
	<stop  offset="0.7" style="stop-color:#7A6056"/>
	<a:midPointStop  offset="0.05" style="stop-color:#473834"/>
	<a:midPointStop  offset="0.4" style="stop-color:#473834"/>
	<a:midPointStop  offset="0.7" style="stop-color:#7A6056"/>
</linearGradient>
<path fill="url(#SVGID_6_)" d="M40.471,4.656c0.861-1.226-6.418-3.818-13.293-2.067c-6.867,1.571-10.74,11.86-10.74,18.589
	c0.616,0.488,4.376-0.727,5.075-1.528c0.283-1.175,0.732-2.389,1.151-3.644c5.155-2.987,10.991-3.688,15.043-7.264
	c-0.521,1.559,2.225,3.521,3.629,7.264c0.457,1.214,0.861,2.431,1.152,3.644c1.146,1.055,3.43,1.551,5.074,1.528
	C47.563,15.486,43.225,3.863,40.471,4.656z"/>
<path fill="#473834" d="M17.673,20.154c4.75-6.324,20.137-5.896,22.797-15.498C35.307,12.714,18.974,14.074,17.673,20.154z"/>
<path id="Path_105_" fill="#FFFFFF" d="M30.327,17.904c0.063,0.496-0.273,1.088-1.211,1.531c-0.594,0.282-1.834,0.612-3.458-0.073
	c-0.729-0.308-1.439-1.262-1.375-1.793C25.164,15.909,29.5,15.665,30.327,17.904z"/>
<linearGradient id="Oval_1_" gradientUnits="userSpaceOnUse" x1="-424.2549" y1="479.2852" x2="-424.2549" y2="479.8037" gradientTransform="matrix(6.5701 0 0 -6.5701 2814.7805 3168.5281)">
	<stop  offset="0" style="stop-color:#A6694A"/>
	<stop  offset="1" style="stop-color:#4F2A1E"/>
	<a:midPointStop  offset="0" style="stop-color:#A6694A"/>
	<a:midPointStop  offset="0.5" style="stop-color:#A6694A"/>
	<a:midPointStop  offset="1" style="stop-color:#4F2A1E"/>
</linearGradient>
<path id="Oval_16_" fill="url(#Oval_1_)" d="M27.381,16.166c0.943,0,1.705,0.764,1.705,1.703c0,0.941-0.762,1.703-1.705,1.703
	c-0.938,0-1.703-0.762-1.703-1.703C25.679,16.929,26.443,16.166,27.381,16.166z"/>
<path id="Path_104_" fill="#1A1626" d="M26.53,17.837c0,1.18,1.707,1.18,1.707,0C28.237,16.744,26.53,16.744,26.53,17.837z"/>
<path id="Path_103_" fill="#AB968C" d="M26.273,17.361c0,0.494,0.713,0.494,0.713,0C26.987,16.904,26.273,16.904,26.273,17.361z"/>
<path id="Path_102_" fill="#A3141B" d="M30.334,17.969c-0.691-2.225-5.411-1.897-6.052-0.4
	C24.521,15.654,29.745,15.149,30.334,17.969z"/>
<path id="Path_101_" fill="#FFFFFF" d="M33.676,17.904c-0.064,0.496,0.273,1.088,1.211,1.531c0.594,0.282,1.83,0.612,3.457-0.073
	c0.727-0.308,1.438-1.262,1.373-1.793C38.838,15.909,34.5,15.665,33.676,17.904z"/>
<linearGradient id="Oval_2_" gradientUnits="userSpaceOnUse" x1="-425.5542" y1="479.2852" x2="-425.5542" y2="479.8037" gradientTransform="matrix(6.5701 0 0 -6.5701 2832.511 3168.5281)">
	<stop  offset="0" style="stop-color:#A6694A"/>
	<stop  offset="1" style="stop-color:#4F2A1E"/>
	<a:midPointStop  offset="0" style="stop-color:#A6694A"/>
	<a:midPointStop  offset="0.5" style="stop-color:#A6694A"/>
	<a:midPointStop  offset="1" style="stop-color:#4F2A1E"/>
</linearGradient>
<circle id="Oval_15_" fill="url(#Oval_2_)" cx="36.58" cy="17.869" r="1.703"/>
<path id="Path_100_" fill="#1A1626" d="M35.727,17.837c0,1.18,1.705,1.18,1.705,0C37.432,16.744,35.727,16.744,35.727,17.837z"/>
<path id="Path_99_" fill="#AB968C" d="M35.469,17.361c0,0.494,0.713,0.494,0.713,0C36.182,16.904,35.469,16.904,35.469,17.361z"/>
<path id="Path_98_" fill="#A3141B" d="M33.666,17.969c0.693-2.221,5.404-1.904,6.051-0.4C39.477,15.654,34.256,15.149,33.666,17.969
	z"/>
</svg>
