<?xml version="1.0" encoding="utf-8"?>
<!-- Generator: Adobe Illustrator 15.0.0, SVG Export Plug-In . SVG Version: 6.00 Build 0)  -->
<!DOCTYPE svg PUBLIC "-//W3C//DTD SVG 1.1//EN" "http://www.w3.org/Graphics/SVG/1.1/DTD/svg11.dtd" [
	<!ENTITY ns_flows "http://ns.adobe.com/Flows/1.0/">
	<!ENTITY ns_extend "http://ns.adobe.com/Extensibility/1.0/">
	<!ENTITY ns_ai "http://ns.adobe.com/AdobeIllustrator/10.0/">
	<!ENTITY ns_graphs "http://ns.adobe.com/Graphs/1.0/">
]>
<svg version="1.1" id="Layer_1" xmlns:x="&ns_extend;" xmlns:i="&ns_ai;" xmlns:graph="&ns_graphs;"
	 xmlns="http://www.w3.org/2000/svg" xmlns:xlink="http://www.w3.org/1999/xlink" xmlns:a="http://ns.adobe.com/AdobeSVGViewerExtensions/3.0/"
	 x="0px" y="0px" width="64px" height="64px" viewBox="0 0 64 64" enable-background="new 0 0 64 64" xml:space="preserve">
<path fill="#3AB0A2" d="M43.465,28.865c-1.58-1.639-4.811-1.158-4.811-1.16c-2.258-0.988-4.455-1.48-6.653-1.48
	c-2.197,0-4.395,0.492-6.655,1.48c0.002,0.002-3.229-0.479-4.809,1.16C12.526,30.597,7.888,41.567,9.999,62h22.002h22
	C56.113,41.567,51.475,30.597,43.465,28.865z"/>
<path fill="#148779" d="M47.322,35.779H32.001H16.681c-1.939,1.886-6.535,8.073-3.934,26.221h19.254h19.252
	C53.855,43.853,49.262,37.665,47.322,35.779z"/>
<path fill="#189E8D" d="M18.669,29.464c3.816-1.252,7.467,2.625,7.467,2.625S23.032,26.947,18.669,29.464z"/>
<path fill="#189E8D" d="M45.334,29.464c-3.818-1.252-7.467,2.625-7.467,2.625S40.969,26.947,45.334,29.464z"/>
<path fill="#302C3B" d="M60.066,43.848c-1.646-3.445-3.115-5.381-5.705-6.721H9.64c-2.59,1.34-4.057,3.275-5.705,6.721
	c-7.943,6.857,11.139,15.619,11.139,15.619c4.932-1.152,2.035-4.285,2.035-4.285c-3.35-1.895-3.34-4.949-6.734-7.988
	c3.166-0.648,6.439-3.688,6.439-3.688c0.871,6.271,4.721,6.975,3.934,18.494h22.507c-0.787-11.52,3.063-12.223,3.934-18.494
	c0,0,3.273,3.039,6.439,3.688c-3.395,3.039-3.385,6.094-6.734,7.988c0,0-2.896,3.133,2.035,4.285
	C48.928,59.467,68.01,50.705,60.066,43.848z"/>
<path fill="#3AB0A2" d="M61.906,48.398c-0.516,6.238-12.979,11.068-12.979,11.068s-1.598-0.244-1.873-2.955
	C52.746,55.137,60.689,43.535,61.906,48.398z"/>
<linearGradient id="SVGID_1_" gradientUnits="userSpaceOnUse" x1="-10.6548" y1="36.582" x2="-24.2105" y2="36.582" gradientTransform="matrix(-1 0 0 1 29.7764 0)">
	<stop  offset="0" style="stop-color:#ABBDC5"/>
	<stop  offset="0.0865" style="stop-color:#A6B8BF"/>
	<stop  offset="0.6622" style="stop-color:#89979E"/>
	<stop  offset="0.9758" style="stop-color:#7E8B91"/>
	<a:midPointStop  offset="0" style="stop-color:#ABBDC5"/>
	<a:midPointStop  offset="0.4286" style="stop-color:#ABBDC5"/>
	<a:midPointStop  offset="0.9758" style="stop-color:#7E8B91"/>
</linearGradient>
<path fill="url(#SVGID_1_)" d="M54.361,37.127c-4.59,0.467-7.033,4.801-7.033,4.801s-2.592-7.246-7.123-9.02
	C46.414,28.96,53.146,32.683,54.361,37.127z"/>
<linearGradient id="SVGID_2_" gradientUnits="userSpaceOnUse" x1="9.8662" y1="36.583" x2="23.4219" y2="36.583">
	<stop  offset="0" style="stop-color:#ABBDC5"/>
	<stop  offset="0.0865" style="stop-color:#A6B8BF"/>
	<stop  offset="0.6622" style="stop-color:#89979E"/>
	<stop  offset="0.9758" style="stop-color:#7E8B91"/>
	<a:midPointStop  offset="0" style="stop-color:#ABBDC5"/>
	<a:midPointStop  offset="0.4286" style="stop-color:#ABBDC5"/>
	<a:midPointStop  offset="0.9758" style="stop-color:#7E8B91"/>
</linearGradient>
<path fill="url(#SVGID_2_)" d="M9.64,37.127c4.59,0.467,7.035,4.801,7.035,4.801s2.59-7.246,7.121-9.02
	C17.587,28.96,10.854,32.683,9.64,37.127z"/>
<path fill="#3AB0A2" d="M2.095,48.398c0.516,6.238,12.979,11.068,12.979,11.068s1.6-0.244,1.873-2.955
	C11.255,55.137,3.312,43.535,2.095,48.398z"/>
<linearGradient id="SVGID_3_" gradientUnits="userSpaceOnUse" x1="-26.4458" y1="56.2998" x2="-24.225" y2="53.1147" gradientTransform="matrix(-1 0 0 1 29.7764 0)">
	<stop  offset="0" style="stop-color:#7E8B91"/>
	<stop  offset="0.4396" style="stop-color:#909FA5"/>
	<stop  offset="1" style="stop-color:#ABBDC5"/>
	<a:midPointStop  offset="0" style="stop-color:#7E8B91"/>
	<a:midPointStop  offset="0.5455" style="stop-color:#7E8B91"/>
	<a:midPointStop  offset="1" style="stop-color:#ABBDC5"/>
</linearGradient>
<path fill="url(#SVGID_3_)" d="M61.906,49.461c-0.516,6.238-12.979,10.006-12.979,10.006s-1.598,0.818-1.873-1.893
	C52.746,56.199,60.689,44.598,61.906,49.461z"/>
<linearGradient id="SVGID_4_" gradientUnits="userSpaceOnUse" x1="7.7788" y1="56.2998" x2="9.9996" y2="53.1147">
	<stop  offset="0" style="stop-color:#7E8B91"/>
	<stop  offset="0.4396" style="stop-color:#909FA5"/>
	<stop  offset="1" style="stop-color:#ABBDC5"/>
	<a:midPointStop  offset="0" style="stop-color:#7E8B91"/>
	<a:midPointStop  offset="0.5455" style="stop-color:#7E8B91"/>
	<a:midPointStop  offset="1" style="stop-color:#ABBDC5"/>
</linearGradient>
<path fill="url(#SVGID_4_)" d="M2.095,49.461c0.516,6.238,12.979,10.006,12.979,10.006s1.6,0.818,1.873-1.893
	C11.255,56.199,3.312,44.598,2.095,49.461z"/>
<path fill="#DEB38A" d="M26.501,30.738c0,3.497,10.999,3.497,10.999,0c0-1.189,0-2.902,0-2.902H26.501
	C26.501,27.835,26.501,29.548,26.501,30.738z"/>
<linearGradient id="SVGID_5_" gradientUnits="userSpaceOnUse" x1="32.0005" y1="62" x2="32.0005" y2="53.6777">
	<stop  offset="0" style="stop-color:#7E8B91"/>
	<stop  offset="0.631" style="stop-color:#9DAEB5"/>
	<stop  offset="1" style="stop-color:#ABBDC5"/>
	<a:midPointStop  offset="0" style="stop-color:#7E8B91"/>
	<a:midPointStop  offset="0.4424" style="stop-color:#7E8B91"/>
	<a:midPointStop  offset="1" style="stop-color:#ABBDC5"/>
</linearGradient>
<path fill="url(#SVGID_5_)" d="M44.127,54.742c-0.803-0.805-3.443-1.064-3.443-1.064l-2.281,3.875H25.599l-2.281-3.875
	c0,0-2.643,0.26-3.443,1.064C19.38,55.24,20.688,62,20.688,62h22.624C43.313,62,44.619,55.24,44.127,54.742z"/>
<path fill="#4E5E67" d="M16.112,41.061c0,0,0.469,4.061,2.855,4.945c2.182,0.809,8.725,0.904,11.375-0.031
	c0.531-0.188,1.658-1.248,1.658-1.248s1.125,1.061,1.657,1.248c2.65,0.936,9.193,0.84,11.375,0.031
	c2.389-0.885,2.855-4.945,2.855-4.945H16.112z"/>
<path fill="#FFD8B4" d="M17.04,55.135c2.182,0.361,2.287-0.859,3.088-0.992c0.479-0.078,0.824,0.615,0.924,1.646
	c0.096,0.982,1.236,1.988,3.326,3.203c1.377,0.797,0.33,2.313-0.938,1.756c-0.357,0.787-1.426,0.787-1.426,0.787
	c-1.879,1.574-5.35-1.285-6.939-2.07C17.034,57.182,17.04,55.135,17.04,55.135z"/>
<path fill="#DEB38A" d="M20.897,59.582c0,0,1.006,0.668,2.543,1.166C22.048,60.061,20.897,59.582,20.897,59.582z"/>
<path fill="#DEB38A" d="M19.872,60.836c0,0,0.732,0.699,2.143,0.699C20.897,61.359,19.872,60.836,19.872,60.836z"/>
<path fill="#FFD8B4" d="M46.961,55.135c-2.182,0.361-2.287-0.859-3.088-0.992c-0.479-0.078-0.824,0.615-0.924,1.646
	c-0.096,0.982-1.236,1.988-3.326,3.203c-1.377,0.797-0.33,2.313,0.938,1.756c0.357,0.787,1.426,0.787,1.426,0.787
	c1.879,1.574,5.35-1.285,6.939-2.07C46.967,57.182,46.961,55.135,46.961,55.135z"/>
<path fill="#DEB38A" d="M43.104,59.582c0,0-1.006,0.668-2.543,1.166C41.953,60.061,43.104,59.582,43.104,59.582z"/>
<path fill="#DEB38A" d="M44.129,60.836c0,0-0.732,0.699-2.143,0.699C43.104,61.359,44.129,60.836,44.129,60.836z"/>
<linearGradient id="SVGID_6_" gradientUnits="userSpaceOnUse" x1="-2.8394" y1="38.9717" x2="-18.1901" y2="38.9717" gradientTransform="matrix(-1 0 0 1 29.7764 0)">
	<stop  offset="0" style="stop-color:#ABBDC5"/>
	<stop  offset="0.369" style="stop-color:#9DAEB5"/>
	<stop  offset="1" style="stop-color:#7E8B91"/>
	<a:midPointStop  offset="0" style="stop-color:#ABBDC5"/>
	<a:midPointStop  offset="0.5576" style="stop-color:#ABBDC5"/>
	<a:midPointStop  offset="1" style="stop-color:#7E8B91"/>
</linearGradient>
<path fill="url(#SVGID_6_)" d="M42.74,33.52c1.684,0.957,5.201,6.664,5.148,7.541c-0.059,1.002-1.795,2.855-2.59,3.408
	c-1.674,1.164-10.389,0.859-11.867,0.252c-0.59-0.244-1.43-0.914-1.43-0.914V33.361C32.001,33.361,39.617,31.744,42.74,33.52z"/>
<linearGradient id="SVGID_7_" gradientUnits="userSpaceOnUse" x1="16.7266" y1="38.9727" x2="32.0792" y2="38.9727">
	<stop  offset="0" style="stop-color:#ABBDC5"/>
	<stop  offset="0.369" style="stop-color:#9DAEB5"/>
	<stop  offset="1" style="stop-color:#7E8B91"/>
	<a:midPointStop  offset="0" style="stop-color:#ABBDC5"/>
	<a:midPointStop  offset="0.5576" style="stop-color:#ABBDC5"/>
	<a:midPointStop  offset="1" style="stop-color:#7E8B91"/>
</linearGradient>
<path fill="url(#SVGID_7_)" d="M21.261,33.52c-1.684,0.957-5.201,6.664-5.148,7.541c0.061,1.002,1.797,2.855,2.59,3.408
	c1.674,1.164,10.389,0.859,11.868,0.252c0.59-0.244,1.432-0.914,1.432-0.914V33.361C32.001,33.361,24.384,31.744,21.261,33.52z"/>
<path fill="#D4DCE0" d="M11.409,36.415L7.888,30.57l5.672,4.119C13.134,36.203,11.409,36.415,11.409,36.415z"/>
<path fill="#D4DCE0" d="M15.499,33.123l-1.486-8.113l4.656,7.079C17.538,33.619,15.499,33.123,15.499,33.123z"/>
<path fill="#D4DCE0" d="M52.588,36.415l3.521-5.845l-5.672,4.119C50.865,36.203,52.588,36.415,52.588,36.415z"/>
<path fill="#D4DCE0" d="M48.5,33.123l1.484-8.113l-4.656,7.079C46.459,33.619,48.5,33.123,48.5,33.123z"/>
<path id="Path_307_" fill="#FFD8B4" d="M43.225,15.261c-1.738,0.211-2.992,6.029-1.9,7.564c0.154,0.215,1.049,0.557,1.713-0.799
	c0.367-0.75,1.428-1.377,1.758-2.924C45.215,17.119,44.953,15.052,43.225,15.261z"/>
<path id="Path_301_" fill="#FFD8B4" d="M20.778,15.261c1.736,0.211,2.992,6.029,1.898,7.564c-0.152,0.215-1.049,0.557-1.713-0.799
	c-0.367-0.75-1.428-1.377-1.756-2.924C18.786,17.119,19.05,15.05,20.778,15.261z"/>
<path id="Path_300_" fill="#DEB38A" d="M43.178,16.376c-0.453,0.143-0.947,0.834-1.217,1.98c1.584-0.34,1.189,2.299-0.188,2.35
	c0.012,0.266,0.029,0.539,0.063,0.826c0.664-0.965,1.338-0.576,2.004-2.012C44.443,18.23,44.299,16.025,43.178,16.376z"/>
<path id="Path_299_" fill="#DEB38A" d="M22.04,18.355c-0.268-1.146-0.762-1.836-1.215-1.979c-1.123-0.354-1.266,1.854-0.664,3.145
	c0.668,1.436,1.342,1.047,2.006,2.012c0.033-0.289,0.051-0.563,0.063-0.828C20.866,20.64,20.476,18.033,22.04,18.355z"/>
<path id="Path_298_" fill="#FFD8B4" d="M32.001,4.076c-7.528,0-11.155,5.695-10.702,13.613c0.092,1.594,1.078,6.791,2.012,8.654
	c0.955,1.908,4.145,4.85,6.102,5.457c1.236,0.385,3.94,0.385,5.176,0c1.955-0.607,5.146-3.549,6.102-5.457
	c0.934-1.863,1.92-7.061,2.01-8.654C43.156,9.771,39.531,4.076,32.001,4.076z"/>
<path id="Path_297_" fill="#A88868" d="M39.385,12.63c-1.945-0.099-4.951,1.254-5.795,2.348c-0.188,0.222,0.336,0.931,0.502,0.764
	c1.264-1.335,3.758-2.515,5.525-2.513C39.852,13.227,39.674,12.634,39.385,12.63z"/>
<path id="Path_296_" fill="#A88868" d="M24.618,12.63c1.945-0.099,4.95,1.253,5.793,2.348c0.186,0.222-0.336,0.931-0.502,0.764
	c-1.268-1.336-3.756-2.515-5.526-2.514C24.149,13.226,24.329,12.634,24.618,12.63z"/>
<path id="Path_295_" fill="#DEB38A" d="M34.033,22.589c-0.215-0.15-0.721,0.08-2.032,0.08c-1.313,0-1.816-0.23-2.033-0.08
	c-0.256,0.182,0.154,1,2.033,1C33.881,23.589,34.291,22.771,34.033,22.589z"/>
<path fill="#523E3A" d="M41.615,5.962C39.969,3.732,36.953,2,32.001,2s-7.967,1.732-9.614,3.963
	C20.054,9.119,43.947,9.119,41.615,5.962z"/>
<linearGradient id="SVGID_8_" gradientUnits="userSpaceOnUse" x1="32.0015" y1="19.6382" x2="32.0015" y2="5.0176">
	<stop  offset="0.5" style="stop-color:#1E110E"/>
	<stop  offset="0.6367" style="stop-color:#271916"/>
	<stop  offset="0.859" style="stop-color:#3F2E2A"/>
	<stop  offset="1" style="stop-color:#523E3A"/>
	<a:midPointStop  offset="0.5" style="stop-color:#1E110E"/>
	<a:midPointStop  offset="0.6" style="stop-color:#1E110E"/>
	<a:midPointStop  offset="1" style="stop-color:#523E3A"/>
</linearGradient>
<path fill="url(#SVGID_8_)" d="M41.615,5.962c-1.646-2.23-4.662,0.188-9.614,0.188s-7.967-2.418-9.614-0.188
	c-2.334,3.156-1.541,13.676-0.504,13.676c0.166,0,0.189-3.682,0.504-6.227c0.254-2.072,0.746-4.08,1.313-4.408
	c1.729-1.004,5.061,0.43,8.301,0.43c3.239,0,6.573-1.434,8.301-0.43c0.564,0.328,1.057,2.336,1.313,4.408
	c0.314,2.545,0.338,6.227,0.504,6.227C43.156,19.638,43.947,9.119,41.615,5.962z"/>
<path fill="#3AB0A2" d="M32.019,15.699c-2.746,0.002-8.315-4.523-10.938,0.977c1.143,10.52,8.135,2.352,10.938,2.355
	c2.797,0.004,9.854,8.26,10.901-2.355C40.297,11.173,34.758,15.697,32.019,15.699z"/>
<path id="Path_294_" fill="#FFFFFF" d="M30.328,17.904c0.063,0.496-0.273,1.088-1.211,1.531c-0.594,0.281-1.834,0.611-3.459-0.074
	c-0.729-0.307-1.439-1.262-1.375-1.793C25.165,15.908,29.501,15.664,30.328,17.904z"/>
<linearGradient id="Oval_1_" gradientUnits="userSpaceOnUse" x1="-424.2549" y1="479.2852" x2="-424.2549" y2="479.8037" gradientTransform="matrix(6.5701 0 0 -6.5701 2814.7805 3168.5281)">
	<stop  offset="0" style="stop-color:#C20606"/>
	<stop  offset="1" style="stop-color:#5E0000"/>
	<a:midPointStop  offset="0" style="stop-color:#C20606"/>
	<a:midPointStop  offset="0.5" style="stop-color:#C20606"/>
	<a:midPointStop  offset="1" style="stop-color:#5E0000"/>
</linearGradient>
<path id="Oval_36_" fill="url(#Oval_1_)" d="M27.382,16.166c0.944,0,1.706,0.764,1.706,1.703c0,0.941-0.762,1.703-1.706,1.703
	c-0.938,0-1.703-0.762-1.703-1.703C25.679,16.929,26.444,16.166,27.382,16.166z"/>
<path id="Path_293_" fill="#1A1626" d="M26.53,17.837c0,1.18,1.708,1.18,1.708,0C28.238,16.744,26.53,16.744,26.53,17.837z"/>
<path id="Path_292_" fill="#AB968C" d="M26.274,17.361c0,0.494,0.713,0.494,0.713,0C26.987,16.904,26.274,16.904,26.274,17.361z"/>
<path id="Path_291_" fill="#148779" d="M30.335,17.968c-0.691-2.225-5.411-1.896-6.053-0.4
	C24.522,15.654,29.746,15.148,30.335,17.968z"/>
<path id="Path_290_" fill="#FFFFFF" d="M33.678,17.904c-0.064,0.496,0.273,1.088,1.211,1.531c0.594,0.281,1.83,0.611,3.457-0.074
	c0.727-0.307,1.438-1.262,1.373-1.793C38.84,15.908,34.502,15.664,33.678,17.904z"/>
<linearGradient id="Oval_2_" gradientUnits="userSpaceOnUse" x1="-425.5537" y1="479.2852" x2="-425.5537" y2="479.8037" gradientTransform="matrix(6.5701 0 0 -6.5701 2832.511 3168.5281)">
	<stop  offset="0" style="stop-color:#C20606"/>
	<stop  offset="1" style="stop-color:#5E0000"/>
	<a:midPointStop  offset="0" style="stop-color:#C20606"/>
	<a:midPointStop  offset="0.5" style="stop-color:#C20606"/>
	<a:midPointStop  offset="1" style="stop-color:#5E0000"/>
</linearGradient>
<circle id="Oval_35_" fill="url(#Oval_2_)" cx="36.582" cy="17.869" r="1.703"/>
<path id="Path_289_" fill="#1A1626" d="M35.729,17.837c0,1.18,1.705,1.18,1.705,0C37.434,16.744,35.729,16.744,35.729,17.837z"/>
<path id="Path_288_" fill="#AB968C" d="M35.471,17.361c0,0.494,0.713,0.494,0.713,0C36.184,16.904,35.471,16.904,35.471,17.361z"/>
<path id="Path_287_" fill="#148779" d="M33.668,17.968c0.693-2.221,5.404-1.904,6.051-0.4
	C39.479,15.654,34.258,15.148,33.668,17.968z"/>
<path fill="#DEB38A" d="M37.021,24.287c0,2.352-5.215,4.773-7.934,2.387C35.184,26.785,37.021,24.287,37.021,24.287z"/>
<path fill="#C29C79" d="M32.603,25.701c-1.145-0.229-1.813,0.781-3.516,0.973c6.141,0.574,7.934-2.387,7.934-2.387
	C35.412,25.841,33.744,24.966,32.603,25.701z"/>
</svg>
