<?xml version="1.0" encoding="utf-8"?>
<!-- Generator: Adobe Illustrator 15.0.0, SVG Export Plug-In . SVG Version: 6.00 Build 0)  -->
<!DOCTYPE svg PUBLIC "-//W3C//DTD SVG 1.1//EN" "http://www.w3.org/Graphics/SVG/1.1/DTD/svg11.dtd" [
	<!ENTITY ns_flows "http://ns.adobe.com/Flows/1.0/">
	<!ENTITY ns_extend "http://ns.adobe.com/Extensibility/1.0/">
	<!ENTITY ns_ai "http://ns.adobe.com/AdobeIllustrator/10.0/">
	<!ENTITY ns_graphs "http://ns.adobe.com/Graphs/1.0/">
]>
<svg version="1.1" id="Layer_1" xmlns:x="&ns_extend;" xmlns:i="&ns_ai;" xmlns:graph="&ns_graphs;"
	 xmlns="http://www.w3.org/2000/svg" xmlns:xlink="http://www.w3.org/1999/xlink" xmlns:a="http://ns.adobe.com/AdobeSVGViewerExtensions/3.0/"
	 x="0px" y="0px" width="64px" height="64px" viewBox="0 0 64 64" enable-background="new 0 0 64 64" xml:space="preserve">
<path fill="#EBC199" d="M45.362,2.465C24.995,14.529,24.146,20.219,21.345,22.252c-1.857,1.348-1.492,2.078-1.01,5.279
	c0.152,1.023,1.051,1.236,1.557,2.523c2.385,6.068,2.191,11.586,2.369,16.135c0.076,1.992-0.482,4.709-4.666,8.344
	c-1.314,1.143-1.518,2.045-2.623,2.576c-1.518,0.727-1.895,0.137-3.607,0.943c-0.404,0.191-2.086,0.051-0.896,1.547
	c-0.094,0.373-0.057,1.037,0.947,1.084c0.043,0.367,0.607,0.727,1.156,0.471c0.254,0.24,0.883,0.428,1.168,0.213
	c0.205,0.48,0.85,0.775,1.805,0.043c4.189,1.27,6.389-2.684,9.234-3.438c2.186-0.576,8.234-0.77,5.238-6.121
	c-1.322-2.363-1.336-3.418-1.424-5.064c-0.346-6.389,2.471-7.34,0.793-17.279c1.57-3.156,9.805-4.391,19.945-13.857
	C52.476,9.725,49.978-0.271,45.362,2.465z"/>
<path fill="#C99B71" d="M29.208,27.521c2.564,2.234,2.65,9.365,1.512,15.848c1.168-4.057,2.373-8.746,1.16-13.783
	c3.129-3.922,15.32-6.922,19.725-13.451c0.633-0.938,0.646-5.268-1.01-10.07c3.496,14.225-12.938,16.52-19.107,22.467
	C31.487,28.531,30.116,27.521,29.208,27.521z"/>
<path fill="#C99B71" d="M32.017,51.852c2.389,4.742-2.533,4.869-5.875,6.295c-4.096,1.746-5.896,4.264-8.551,3.061
	c-0.771,0.924-2.195,0.086-1.416-0.439c-0.033-1.074,1.771-1.299,1.688-1.834c-0.262,0.445-1.834,0.574-1.844,1.697
	c-0.391,0.037-0.496,0.387-0.496,0.387c-0.461,0.205-1.451-0.322-0.582-0.699c-0.033-1.076,2.053-1.398,1.973-1.932
	c-0.262,0.445-2.086,0.684-2.096,1.803c-0.061,0.01-0.518,0.182-0.531,0.551c-0.436,0.055-1.217-0.439-0.291-0.707
	c0.02-0.959,1.344-1.449,2.113-1.779c-0.906,0.209-2.236,0.598-2.303,1.596c-0.537,0.221-0.475,0.459-0.475,0.459
	c-0.426-0.084-1.186-0.963-0.215-1.012c0.35-0.703,1.518-1.201,2.332-1.387c-0.715-0.092-2.152,0.607-2.49,1.17
	c-0.713,0.369-0.92-0.16-0.877-0.5c-0.248,0.525,0.139,1.016,0.256,1.088c-0.012,0.811,0.553,1.197,1.012,1.125
	c0.107,0.414,0.732,0.76,1.178,0.482c0,0,0.379,0.643,1.119,0.326c0.236,0.297,0.832,0.764,1.912-0.088
	c3.318,1.23,5.391-1.678,8.791-2.961C28.905,57.584,35.882,57.232,32.017,51.852z"/>
<path fill="#C99B71" d="M29.054,53.279c0.838-0.631,0.625-2.357-1.102-4.299C28.011,49.734,29.288,51.842,29.054,53.279z"/>
</svg>
