<?xml version="1.0" encoding="utf-8"?>
<!-- Generator: Adobe Illustrator 15.0.0, SVG Export Plug-In . SVG Version: 6.00 Build 0)  -->
<!DOCTYPE svg PUBLIC "-//W3C//DTD SVG 1.1//EN" "http://www.w3.org/Graphics/SVG/1.1/DTD/svg11.dtd" [
	<!ENTITY ns_flows "http://ns.adobe.com/Flows/1.0/">
	<!ENTITY ns_extend "http://ns.adobe.com/Extensibility/1.0/">
	<!ENTITY ns_ai "http://ns.adobe.com/AdobeIllustrator/10.0/">
	<!ENTITY ns_graphs "http://ns.adobe.com/Graphs/1.0/">
]>
<svg version="1.1" id="Layer_1" xmlns:x="&ns_extend;" xmlns:i="&ns_ai;" xmlns:graph="&ns_graphs;"
	 xmlns="http://www.w3.org/2000/svg" xmlns:xlink="http://www.w3.org/1999/xlink" xmlns:a="http://ns.adobe.com/AdobeSVGViewerExtensions/3.0/"
	 x="0px" y="0px" width="64px" height="64px" viewBox="0 0 64 64" enable-background="new 0 0 64 64" xml:space="preserve">
<path fill="#E81C27" d="M42.739,30.423c-1.607-1.608-3.959-1.138-3.959-1.138c-4.602-1.941-8.955-1.942-13.557-0.001
	c0,0-2.352-0.471-3.963,1.139C12.183,30.568,7.327,47.066,5.509,62h52.984C56.675,47.066,51.817,30.568,42.739,30.423z"/>
<path fill="#850000" d="M47.972,36.235H16.03c0,0-6.494,10.012-2.803,25.765h37.545C54.466,46.247,47.972,36.235,47.972,36.235z"/>
<path fill="#A3141B" d="M18.749,30.906c0,0,3.111-0.775,6.393,0.217C21.72,29.225,18.749,30.906,18.749,30.906z"/>
<path fill="#A3141B" d="M23.829,29.252c0,0,2.203,0.066,4.234,1.941C26.267,28.568,23.829,29.252,23.829,29.252z"/>
<path fill="#A3141B" d="M45.253,30.906c0,0-3.111-0.775-6.393,0.217C42.282,29.225,45.253,30.906,45.253,30.906z"/>
<path fill="#A3141B" d="M40.173,29.252c0,0-2.203,0.066-4.234,1.941C37.735,28.568,40.173,29.252,40.173,29.252z"/>
<path fill="#006DAE" d="M59.901,48.042c-0.859-2.525-5.617-8.796-11.93-11.807c-1.156-2.177-6.445-5.753-11.469-4.173
	c-1.219,0.384-2.252,1.42-4.502,1.419c-2.252,0.001-3.283-1.035-4.502-1.419c-5.025-1.58-10.313,1.996-11.469,4.173
	C9.718,39.246,4.96,45.517,4.099,48.042c-0.836,2.46,3.574,5.854,12.129,11.622c3.973-1.063,1.895-3.951,1.895-3.951
	c-3.121-1.746-4.262-4.73-6.902-7.399c0,0,6.746-1.765,8.217-5.321c0.334-0.808,2.51,5.118,2.637,7.265
	c0.188,3.158,0.438,8.756-0.176,11.743h20.207c-0.613-2.987-0.365-8.585-0.178-11.743c0.129-2.146,2.305-8.072,2.639-7.265
	c1.469,3.557,8.217,5.321,8.217,5.321c-2.641,2.669-3.783,5.653-6.904,7.399c0,0-2.078,2.889,1.895,3.951
	C56.327,53.896,60.737,50.502,59.901,48.042z"/>
<linearGradient id="SVGID_1_" gradientUnits="userSpaceOnUse" x1="32.0015" y1="50.8184" x2="32.0015" y2="36.8174">
	<stop  offset="0" style="stop-color:#FFF047"/>
	<stop  offset="0.0078" style="stop-color:#FFF049"/>
	<stop  offset="0.2289" style="stop-color:#FFF273"/>
	<stop  offset="0.444" style="stop-color:#FFF394"/>
	<stop  offset="0.6487" style="stop-color:#FFF4AC"/>
	<stop  offset="0.8388" style="stop-color:#FFF5BA"/>
	<stop  offset="1" style="stop-color:#FFF5BF"/>
	<a:midPointStop  offset="0" style="stop-color:#FFF047"/>
	<a:midPointStop  offset="0.3273" style="stop-color:#FFF047"/>
	<a:midPointStop  offset="1" style="stop-color:#FFF5BF"/>
</linearGradient>
<path fill="url(#SVGID_1_)" d="M32.001,36.817c-3.859,0-7,3.141-7,7.001c0,3.859,3.141,7,7,7s7-3.141,7-7
	C39.001,39.958,35.86,36.817,32.001,36.817L32.001,36.817z"/>
<g id="Shape_25_">
	<g>
		<linearGradient id="SVGID_2_" gradientUnits="userSpaceOnUse" x1="32.0015" y1="50.3809" x2="32.0015" y2="37.2549">
			<stop  offset="0" style="stop-color:#E81C27"/>
			<stop  offset="0.157" style="stop-color:#EA2324"/>
			<stop  offset="0.3936" style="stop-color:#EE381D"/>
			<stop  offset="0.6805" style="stop-color:#F55A11"/>
			<stop  offset="1" style="stop-color:#FF8800"/>
			<a:midPointStop  offset="0" style="stop-color:#E81C27"/>
			<a:midPointStop  offset="0.6182" style="stop-color:#E81C27"/>
			<a:midPointStop  offset="1" style="stop-color:#FF8800"/>
		</linearGradient>
		<path fill="url(#SVGID_2_)" d="M32.001,38.896c2.715,0,4.922,2.209,4.922,4.923c0,2.713-2.207,4.922-4.922,4.922
			c-2.713,0-4.922-2.209-4.922-4.922C27.079,41.104,29.288,38.896,32.001,38.896z M32.001,37.255c-3.623,0-6.563,2.939-6.563,6.563
			c0,3.623,2.939,6.563,6.563,6.563c3.625,0,6.563-2.939,6.563-6.563C38.563,40.194,35.626,37.255,32.001,37.255z"/>
	</g>
</g>
<linearGradient id="Combined-Shape_1_" gradientUnits="userSpaceOnUse" x1="32.4971" y1="47.5928" x2="32.4971" y2="43.1602">
	<stop  offset="0" style="stop-color:#E81C27"/>
	<stop  offset="0.157" style="stop-color:#EA2324"/>
	<stop  offset="0.3936" style="stop-color:#EE381D"/>
	<stop  offset="0.6805" style="stop-color:#F55A11"/>
	<stop  offset="1" style="stop-color:#FF8800"/>
	<a:midPointStop  offset="0" style="stop-color:#E81C27"/>
	<a:midPointStop  offset="0.6182" style="stop-color:#E81C27"/>
	<a:midPointStop  offset="1" style="stop-color:#FF8800"/>
</linearGradient>
<path id="Combined-Shape_13_" fill="url(#Combined-Shape_1_)" d="M33.315,44.476c-0.221,0-0.33-0.109-0.33-0.328v-0.656
	c0-0.222,0.109-0.331,0.33-0.331h2.131c0.221,0,0.33,0.109,0.33,0.331v0.327c0,2.085-1.689,3.774-3.775,3.774
	c-1.014,0-1.965-0.403-2.666-1.105c-0.156-0.157-0.156-0.308-0.004-0.465l0.701-0.695c0.154-0.154,0.307-0.154,0.461,0
	c0.4,0.397,0.936,0.625,1.508,0.625c0.947,0,1.752-0.618,2.031-1.477H33.315z"/>
<linearGradient id="SVGID_3_" gradientUnits="userSpaceOnUse" x1="31.9897" y1="60.916" x2="31.9897" y2="54.5166">
	<stop  offset="0" style="stop-color:#FF8800"/>
	<stop  offset="0.2113" style="stop-color:#FFA113"/>
	<stop  offset="0.5427" style="stop-color:#FFC32B"/>
	<stop  offset="0.8176" style="stop-color:#FFD83A"/>
	<stop  offset="1" style="stop-color:#FFDF40"/>
	<a:midPointStop  offset="0" style="stop-color:#FF8800"/>
	<a:midPointStop  offset="0.3818" style="stop-color:#FF8800"/>
	<a:midPointStop  offset="1" style="stop-color:#FFDF40"/>
</linearGradient>
<path fill="url(#SVGID_3_)" d="M42.606,56.646c-0.703-0.705-4.033,0.059-7.375-1.295c-2.662-1.08-3.662-1.146-6.486,0.001
	c-3.332,1.352-6.65,0.59-7.352,1.294c-0.43,0.435-0.639,1.986,0,2.373c1.023,0.616,4.205-0.11,7.338,1.176
	c2.309,0.949,4.15,0.963,6.486,0.028c3.232-1.293,6.475-0.533,7.389-1.204C43.19,58.591,43.038,57.081,42.606,56.646z"/>
<path fill="#FF9E00" d="M29.147,55.745c-0.133,0.143-0.236,0.295-0.299,0.46c-0.227,0.588-0.336,2.69,0,3.212
	c0.061,0.095,0.139,0.184,0.223,0.271C28.886,58.693,28.974,56.539,29.147,55.745z"/>
<path fill="#FF9E00" d="M25.55,56.226c-0.133,0.108-0.236,0.224-0.299,0.349c-0.229,0.444-0.338,2.033,0,2.428
	c0.061,0.071,0.137,0.139,0.223,0.204C25.286,58.455,25.376,56.826,25.55,56.226z"/>
<path fill="#FF9E00" d="M34.829,55.745c0.133,0.143,0.236,0.295,0.301,0.46c0.227,0.588,0.336,2.69,0,3.212
	c-0.061,0.095-0.139,0.184-0.225,0.271C35.093,58.693,35.003,56.539,34.829,55.745z"/>
<path fill="#FF9E00" d="M38.427,56.226c0.135,0.108,0.236,0.224,0.301,0.349c0.227,0.444,0.336,2.033,0,2.428
	c-0.061,0.071-0.139,0.139-0.225,0.204C38.69,58.455,38.601,56.826,38.427,56.226z"/>
<path fill="#916B50" d="M18.132,55.735c2.076,0.324,2.734-1.258,4.133-0.832c0,0,0.357,0.487,0.447,1.429
	c0.086,0.896,0.482,1.814,2.498,2.922c1.328,0.729,0.318,2.11-0.904,1.603c-0.344,0.719-1.375,0.719-1.375,0.719
	c-1.813,1.438-5.16-1.172-6.693-1.889C18.126,57.602,18.132,55.735,18.132,55.735z"/>
<path fill="#69452D" d="M21.853,59.794c0,0,0.971,0.607,2.453,1.063C22.964,60.229,21.853,59.794,21.853,59.794z"/>
<path fill="#69452D" d="M20.864,60.938c0,0,0.707,0.637,2.066,0.637C21.853,61.415,20.864,60.938,20.864,60.938z"/>
<path fill="#916B50" d="M45.878,55.735c-2.076,0.324-2.732-1.258-4.133-0.832c0,0-0.357,0.487-0.447,1.429
	c-0.086,0.896-0.482,1.814-2.498,2.922c-1.328,0.729-0.318,2.11,0.904,1.603c0.344,0.719,1.375,0.719,1.375,0.719
	c1.813,1.438,5.16-1.172,6.693-1.889C45.884,57.602,45.878,55.735,45.878,55.735z"/>
<path fill="#69452D" d="M42.157,59.794c0,0-0.971,0.607-2.453,1.063C41.046,60.229,42.157,59.794,42.157,59.794z"/>
<path fill="#69452D" d="M43.146,60.938c0,0-0.707,0.637-2.066,0.637C42.157,61.415,43.146,60.938,43.146,60.938z"/>
<path fill="#69452D" d="M27.001,30.8c0,3.827,10,3.827,10,0c0-1.303,0-4.235,0-4.235h-10C27.001,26.564,27.001,29.497,27.001,30.8z"
	/>
<path fill="#3B2118" d="M42.384,24.421c0.738,0.488,1.592,0.853,2.586,1.039c-1.766-4.026,0.896-12.471-4.561-18.676
	c-7.693,0.23-8.758,25.111,1.967,21.803c-0.684-0.296-1.111-0.899-1.361-1.662c0.826,0.237,1.793,0.245,2.918-0.101
	C43.036,26.437,42.581,25.523,42.384,24.421z"/>
<path fill="#3B2118" d="M23.073,6.784c-5.457,6.205-2.275,14.649-4.041,18.676c0.994-0.187,1.846-0.551,2.586-1.039
	c-0.197,1.103-0.654,2.016-1.549,2.403c1.125,0.346,2.09,0.338,2.916,0.101c-0.25,0.763-0.678,1.366-1.359,1.662
	C32.349,31.896,30.767,7.015,23.073,6.784z"/>
<path id="Path_1343_" fill="#916B50" d="M43.224,15.262c-1.736,0.211-2.992,6.028-1.898,7.563c0.152,0.215,1.047,0.557,1.711-0.798
	c0.369-0.75,1.43-1.377,1.758-2.925C45.216,17.12,44.952,15.052,43.224,15.262z"/>
<path id="Path_1342_" fill="#916B50" d="M20.778,15.262c1.738,0.211,2.992,6.028,1.898,7.563c-0.152,0.215-1.049,0.557-1.713-0.798
	c-0.367-0.75-1.428-1.377-1.756-2.925C18.786,17.12,19.05,15.052,20.778,15.262z"/>
<path id="Path_1341_" fill="#69452D" d="M43.177,16.377c-0.453,0.143-0.947,0.834-1.217,1.98c1.586-0.34,1.189,2.3-0.188,2.349
	c0.012,0.266,0.029,0.539,0.063,0.827c0.664-0.965,1.338-0.577,2.006-2.011C44.442,18.229,44.3,16.024,43.177,16.377z"/>
<path id="Path_1340_" fill="#69452D" d="M22.04,18.354c-0.268-1.145-0.762-1.836-1.215-1.978c-1.121-0.353-1.266,1.853-0.664,3.146
	c0.668,1.434,1.342,1.046,2.006,2.011c0.033-0.289,0.051-0.563,0.063-0.828C20.866,20.641,20.476,18.033,22.04,18.354z"/>
<path fill="#916B50" d="M32.001,4.075c-7.529,0-11.154,6.131-10.701,14.014c0.092,1.585,0.533,3.871,1.078,5.83
	c1.129,4.071,7.086,8.171,9.623,8.171c2.535,0,8.494-4.1,9.623-8.171c0.545-1.959,0.984-4.245,1.078-5.83
	C43.153,10.206,39.53,4.075,32.001,4.075z"/>
<path id="Path_1339_" fill="#5E4431" d="M40.179,14.681c-1.721-0.912-5.016-0.956-6.242-0.321c-0.264,0.123-0.09,0.987,0.131,0.905
	c1.711-0.677,4.469-0.692,6.07,0.058C40.353,15.42,40.44,14.808,40.179,14.681z"/>
<path id="Path_1338_" fill="#5E4431" d="M23.821,14.681c1.723-0.912,5.016-0.956,6.244-0.321c0.262,0.123,0.09,0.987-0.131,0.905
	c-1.715-0.677-4.469-0.692-6.072,0.058C23.649,15.42,23.562,14.808,23.821,14.681z"/>
<path id="Path_1337_" fill="#69452D" d="M34.032,22.59c-0.215-0.15-0.719,0.081-2.031,0.081c-1.311,0-1.816-0.231-2.031-0.081
	c-0.258,0.181,0.152,1,2.031,1S34.29,22.771,34.032,22.59z"/>
<path id="Path_1336_" fill="#69452D" d="M32.001,25.692c-1.693-0.498-4.201,0.235-4.201,0.235c0.955,1.042,1.654,2.392,4.201,2.392
	c2.916,0,3.414-1.533,4.203-2.392C36.204,25.928,33.692,25.191,32.001,25.692z"/>
<path id="Path_1335_" fill="#FFFFFF" d="M28.429,26.104c1.775,1.489,5.359,1.499,7.145,0C33.683,26.186,30.335,26.187,28.429,26.104
	z"/>
<path fill="#E81C27" d="M32.019,15.699c-2.746,0.002-8.314-4.523-10.938,0.977c1.143,10.52,8.135,2.352,10.938,2.355
	c2.797,0.004,9.854,8.26,10.9-2.355C40.296,11.174,34.757,15.697,32.019,15.699z"/>
<path id="Path_1334_" fill="#FFFFFF" d="M30.327,17.904c0.063,0.496-0.273,1.088-1.211,1.531c-0.594,0.281-1.834,0.611-3.459-0.073
	c-0.729-0.308-1.439-1.262-1.375-1.793C25.165,15.909,29.501,15.665,30.327,17.904z"/>
<linearGradient id="Oval_1_" gradientUnits="userSpaceOnUse" x1="-424.2549" y1="479.2852" x2="-424.2549" y2="479.8037" gradientTransform="matrix(6.5701 0 0 -6.5701 2814.7805 3168.5281)">
	<stop  offset="0" style="stop-color:#A6694A"/>
	<stop  offset="1" style="stop-color:#4F2A1E"/>
	<a:midPointStop  offset="0" style="stop-color:#A6694A"/>
	<a:midPointStop  offset="0.5" style="stop-color:#A6694A"/>
	<a:midPointStop  offset="1" style="stop-color:#4F2A1E"/>
</linearGradient>
<path id="Oval_144_" fill="url(#Oval_1_)" d="M27.382,16.166c0.943,0,1.705,0.764,1.705,1.703c0,0.941-0.762,1.703-1.705,1.703
	c-0.938,0-1.703-0.762-1.703-1.703C25.679,16.93,26.444,16.166,27.382,16.166z"/>
<path id="Path_1333_" fill="#1A1626" d="M26.53,17.838c0,1.18,1.707,1.18,1.707,0C28.237,16.744,26.53,16.744,26.53,17.838z"/>
<path id="Path_1332_" fill="#AB968C" d="M26.274,17.361c0,0.494,0.713,0.494,0.713,0C26.987,16.904,26.274,16.904,26.274,17.361z"/>
<path id="Path_1331_" fill="#A3141B" d="M30.335,17.969c-0.691-2.225-5.41-1.896-6.053-0.399
	C24.522,15.654,29.745,15.149,30.335,17.969z"/>
<path id="Path_1330_" fill="#FFFFFF" d="M33.677,17.904c-0.064,0.496,0.273,1.088,1.211,1.531c0.594,0.281,1.83,0.611,3.457-0.073
	c0.727-0.308,1.438-1.262,1.373-1.793C38.839,15.909,34.501,15.665,33.677,17.904z"/>
<linearGradient id="Oval_2_" gradientUnits="userSpaceOnUse" x1="-425.5537" y1="479.2852" x2="-425.5537" y2="479.8037" gradientTransform="matrix(6.5701 0 0 -6.5701 2832.511 3168.5281)">
	<stop  offset="0" style="stop-color:#A6694A"/>
	<stop  offset="1" style="stop-color:#4F2A1E"/>
	<a:midPointStop  offset="0" style="stop-color:#A6694A"/>
	<a:midPointStop  offset="0.5" style="stop-color:#A6694A"/>
	<a:midPointStop  offset="1" style="stop-color:#4F2A1E"/>
</linearGradient>
<circle id="Oval_143_" fill="url(#Oval_2_)" cx="36.581" cy="17.869" r="1.703"/>
<path id="Path_1329_" fill="#1A1626" d="M35.728,17.838c0,1.18,1.705,1.18,1.705,0C37.433,16.744,35.728,16.744,35.728,17.838z"/>
<path id="Path_1328_" fill="#AB968C" d="M35.47,17.361c0,0.494,0.713,0.494,0.713,0C36.183,16.904,35.47,16.904,35.47,17.361z"/>
<path id="Path_1327_" fill="#A3141B" d="M33.667,17.969c0.693-2.221,5.404-1.904,6.051-0.399
	C39.478,15.654,34.257,15.149,33.667,17.969z"/>
<linearGradient id="SVGID_4_" gradientUnits="userSpaceOnUse" x1="31.8892" y1="19.6563" x2="31.8892" y2="2">
	<stop  offset="0" style="stop-color:#3B2118"/>
	<stop  offset="0.0953" style="stop-color:#40251C"/>
	<stop  offset="0.6555" style="stop-color:#58392F"/>
	<stop  offset="1" style="stop-color:#614036"/>
	<a:midPointStop  offset="0" style="stop-color:#3B2118"/>
	<a:midPointStop  offset="0.4" style="stop-color:#3B2118"/>
	<a:midPointStop  offset="1" style="stop-color:#614036"/>
</linearGradient>
<path fill="url(#SVGID_4_)" d="M32.001,2c-4.58,0-6.869,2.075-7.332,3.06c-5.539,1.266-7.32,10.609-3.174,14.597
	c0.514-4.248,1.01-6.977,3.834-9.851c1.646,2.206,5.066,3.447,8.129,3.447c-1.449-1.054-2.438-2.086-3.215-3.049
	c5.115,2.348,10.844,3.851,12.264,9.452C47.429,11.819,43.341,2,32.001,2z"/>
<path fill="#3B2118" d="M24.655,5.059c-0.07,3.911,1.51,6.839,8.807,8.194C28.229,13.606,22.862,10.444,24.655,5.059z"/>
<path fill="#3B2118" d="M25.112,9.556c-1.904,1.878-4.043,5.133-3.637,10.101c0.379-4.106,2.266-7.487,3.973-9.679
	C25.329,9.846,25.216,9.705,25.112,9.556z"/>
<path fill="#3B2118" d="M28.38,8.315c3.826,3.653,13.23,3.416,14.148,11.341C40.075,11.948,31.761,13.678,28.38,8.315z"/>
</svg>
