<?xml version="1.0" encoding="utf-8"?>
<!-- Generator: Adobe Illustrator 15.0.0, SVG Export Plug-In . SVG Version: 6.00 Build 0)  -->
<!DOCTYPE svg PUBLIC "-//W3C//DTD SVG 1.1//EN" "http://www.w3.org/Graphics/SVG/1.1/DTD/svg11.dtd" [
	<!ENTITY ns_flows "http://ns.adobe.com/Flows/1.0/">
	<!ENTITY ns_extend "http://ns.adobe.com/Extensibility/1.0/">
	<!ENTITY ns_ai "http://ns.adobe.com/AdobeIllustrator/10.0/">
	<!ENTITY ns_graphs "http://ns.adobe.com/Graphs/1.0/">
]>
<svg version="1.1" id="Layer_1" xmlns:x="&ns_extend;" xmlns:i="&ns_ai;" xmlns:graph="&ns_graphs;"
	 xmlns="http://www.w3.org/2000/svg" xmlns:xlink="http://www.w3.org/1999/xlink" xmlns:a="http://ns.adobe.com/AdobeSVGViewerExtensions/3.0/"
	 x="0px" y="0px" width="64px" height="64px" viewBox="0 0 64 64" enable-background="new 0 0 64 64" xml:space="preserve">
<polygon fill="#6E8189" points="62,62 56.5,62 56.5,59 59,59 59,56.5 62,56.5 "/>
<path fill="#6E8189" d="M49.5,62h-7v-3h7V62z M35.5,62h-7v-3h7V62z M21.5,62h-7v-3h7V62z"/>
<polygon fill="#6E8189" points="7.5,62 2,62 2,56.5 5,56.5 5,59 7.5,59 "/>
<path fill="#6E8189" d="M5,49.5H2v-7h3V49.5z M5,35.5H2v-7h3V35.5z M5,21.5H2v-7h3V21.5z"/>
<polygon fill="#6E8189" points="5,7.5 2,7.5 2,2 7.5,2 7.5,5 5,5 "/>
<path fill="#6E8189" d="M49.5,5h-7V2h7V5z M35.5,5h-7V2h7V5z M21.5,5h-7V2h7V5z"/>
<polygon fill="#6E8189" points="62,7.5 59,7.5 59,5 56.5,5 56.5,2 62,2 "/>
<path fill="#6E8189" d="M62,49.5h-3v-7h3V49.5z M62,35.5h-3v-7h3V35.5z M62,21.5h-3v-7h3V21.5z"/>
<path id="Path_565_" fill="#FFCC66" d="M51.904,32.092c-3.082,0.373-5.307,10.691-3.369,13.413c0.271,0.381,1.859,0.988,3.036-1.416
	c0.652-1.329,2.534-2.439,3.116-5.185C55.435,35.387,54.97,31.721,51.904,32.092z"/>
<path id="Path_564_" fill="#FFCC66" d="M12.098,32.092c3.082,0.373,5.307,10.691,3.367,13.413c-0.271,0.381-1.859,0.988-3.036-1.416
	c-0.652-1.329-2.534-2.439-3.116-5.185C8.565,35.387,9.032,31.72,12.098,32.092z"/>
<path id="Path_563_" fill="#DB9D3A" d="M51.819,34.07c-0.803,0.253-1.68,1.479-2.156,3.514c2.811-0.604,2.107,4.076-0.334,4.164
	c0.021,0.471,0.054,0.956,0.111,1.464c1.177-1.708,2.372-1.021,3.556-3.564C54.063,37.355,53.811,33.445,51.819,34.07z"/>
<path id="Path_562_" fill="#DB9D3A" d="M14.337,37.577c-0.477-2.03-1.352-3.256-2.154-3.507c-1.991-0.626-2.246,3.285-1.179,5.577
	c1.184,2.543,2.379,1.856,3.558,3.564c0.058-0.51,0.09-0.995,0.109-1.466C12.254,41.631,11.563,37.008,14.337,37.577z"/>
<path id="Path_561_" fill="#FFCC66" d="M32,12c-13.349,0-19.781,10.23-18.977,24.455C13.186,39.316,14.937,48.651,16.59,52h30.82
	c1.656-3.349,3.406-12.683,3.566-15.545C51.783,22.23,45.353,12,32,12z"/>
</svg>
