<?xml version="1.0" encoding="utf-8"?>
<!-- Generator: Adobe Illustrator 15.0.0, SVG Export Plug-In . SVG Version: 6.00 Build 0)  -->
<!DOCTYPE svg PUBLIC "-//W3C//DTD SVG 1.1//EN" "http://www.w3.org/Graphics/SVG/1.1/DTD/svg11.dtd" [
	<!ENTITY ns_flows "http://ns.adobe.com/Flows/1.0/">
	<!ENTITY ns_extend "http://ns.adobe.com/Extensibility/1.0/">
	<!ENTITY ns_ai "http://ns.adobe.com/AdobeIllustrator/10.0/">
	<!ENTITY ns_graphs "http://ns.adobe.com/Graphs/1.0/">
]>
<svg version="1.1" id="Layer_1" xmlns:x="&ns_extend;" xmlns:i="&ns_ai;" xmlns:graph="&ns_graphs;"
	 xmlns="http://www.w3.org/2000/svg" xmlns:xlink="http://www.w3.org/1999/xlink" xmlns:a="http://ns.adobe.com/AdobeSVGViewerExtensions/3.0/"
	 x="0px" y="0px" width="64px" height="64px" viewBox="0 0 64 64" enable-background="new 0 0 64 64" xml:space="preserve">
<path fill="#1E110E" d="M37.188,32.603C47.564,28.456,46.523,18.6,46.523,18.6H17.476c0,0-1.039,9.855,9.336,14.003
	c0,0,2.077,0.52,5.188,0.52C35.113,33.123,37.188,32.603,37.188,32.603z"/>
<linearGradient id="SVGID_1_" gradientUnits="userSpaceOnUse" x1="42.376" y1="33.1201" x2="42.376" y2="2.0776">
	<stop  offset="0.05" style="stop-color:#1E110E"/>
	<stop  offset="0.2334" style="stop-color:#31211E"/>
	<stop  offset="0.5223" style="stop-color:#493632"/>
	<stop  offset="0.7" style="stop-color:#523E3A"/>
	<a:midPointStop  offset="0.05" style="stop-color:#1E110E"/>
	<a:midPointStop  offset="0.4" style="stop-color:#1E110E"/>
	<a:midPointStop  offset="0.7" style="stop-color:#523E3A"/>
</linearGradient>
<path fill="url(#SVGID_1_)" d="M42.488,19.65c1.063,4.469,0.502,8.891-5.301,12.953c6.227-1.036,10.377-6.913,10.377-11.425
	L42.488,19.65z"/>
<linearGradient id="SVGID_2_" gradientUnits="userSpaceOnUse" x1="1759.1895" y1="33.1201" x2="1759.1895" y2="2.0776" gradientTransform="matrix(-1 0 0 1 1780.8145 0)">
	<stop  offset="0.05" style="stop-color:#1E110E"/>
	<stop  offset="0.2334" style="stop-color:#31211E"/>
	<stop  offset="0.5223" style="stop-color:#493632"/>
	<stop  offset="0.7" style="stop-color:#523E3A"/>
	<a:midPointStop  offset="0.05" style="stop-color:#1E110E"/>
	<a:midPointStop  offset="0.4" style="stop-color:#1E110E"/>
	<a:midPointStop  offset="0.7" style="stop-color:#523E3A"/>
</linearGradient>
<path fill="url(#SVGID_2_)" d="M21.513,19.65c-1.063,4.469-0.504,8.891,5.301,12.953c-6.225-1.036-10.377-6.913-10.377-11.425
	L21.513,19.65z"/>
<path fill="#E81C27" d="M42.74,30.422c-1.607-1.608-3.961-1.137-3.961-1.137c-4.602-1.942-8.954-1.943-13.558-0.002
	c0,0-2.352-0.471-3.961,1.139C12.183,30.568,7.326,47.066,5.507,62h52.987C56.674,47.066,51.818,30.568,42.74,30.422z"/>
<path fill="#850000" d="M47.971,36.234H16.03c0,0-6.494,10.012-2.803,25.766h37.546C54.465,46.246,47.971,36.234,47.971,36.234z"/>
<path fill="#A3141B" d="M18.749,30.906c0,0,3.111-0.775,6.393,0.217C21.72,29.224,18.749,30.906,18.749,30.906z"/>
<path fill="#A3141B" d="M23.828,29.252c0,0,2.204,0.065,4.236,1.94C26.267,28.568,23.828,29.252,23.828,29.252z"/>
<path fill="#A3141B" d="M45.252,30.906c0,0-3.111-0.775-6.393,0.217C42.281,29.224,45.252,30.906,45.252,30.906z"/>
<path fill="#A3141B" d="M40.172,29.252c0,0-2.203,0.065-4.234,1.94C37.734,28.568,40.172,29.252,40.172,29.252z"/>
<path fill="#006DAE" d="M59.902,48.041c-0.859-2.525-5.617-8.796-11.932-11.807c-1.154-2.177-6.443-5.752-11.467-4.171
	c-1.221,0.383-2.252,1.418-4.504,1.417c-2.25,0.001-3.283-1.035-4.502-1.417c-5.023-1.581-10.313,1.995-11.468,4.171
	C9.716,39.245,4.958,45.516,4.099,48.041c-0.836,2.461,3.574,5.855,12.129,11.622c3.973-1.062,1.895-3.951,1.895-3.951
	c-3.121-1.746-4.264-4.73-6.902-7.399c0,0,7.18-3.417,8.604-6.974c0.324-0.808,0.672,0.501,0.523,0.898
	c-2.229,5.919,1.786,7.872,1.911,10.019c0.185,3.158,0.252,6.756-0.362,9.744h20.21c-0.615-2.988-0.547-6.586-0.363-9.744
	c0.125-2.146,4.141-4.1,1.912-10.019c-0.148-0.397,0.199-1.706,0.523-0.898c1.424,3.557,8.604,6.974,8.604,6.974
	c-2.639,2.669-3.781,5.653-6.902,7.399c0,0-2.078,2.89,1.895,3.951C56.328,53.896,60.738,50.502,59.902,48.041z"/>
<linearGradient id="SVGID_3_" gradientUnits="userSpaceOnUse" x1="32.0005" y1="50.8174" x2="32.0005" y2="36.8164">
	<stop  offset="0" style="stop-color:#FFF047"/>
	<stop  offset="0.0078" style="stop-color:#FFF049"/>
	<stop  offset="0.2289" style="stop-color:#FFF273"/>
	<stop  offset="0.444" style="stop-color:#FFF394"/>
	<stop  offset="0.6487" style="stop-color:#FFF4AC"/>
	<stop  offset="0.8388" style="stop-color:#FFF5BA"/>
	<stop  offset="1" style="stop-color:#FFF5BF"/>
	<a:midPointStop  offset="0" style="stop-color:#FFF047"/>
	<a:midPointStop  offset="0.3273" style="stop-color:#FFF047"/>
	<a:midPointStop  offset="1" style="stop-color:#FFF5BF"/>
</linearGradient>
<path fill="url(#SVGID_3_)" d="M32,36.816c-3.859,0-7,3.141-7,7.001c0,3.859,3.14,7,7,7c3.862,0,7-3.141,7-7
	C39,39.957,35.861,36.816,32,36.816L32,36.816z"/>
<g id="Shape_11_">
	<g>
		<linearGradient id="SVGID_4_" gradientUnits="userSpaceOnUse" x1="32.0005" y1="50.3799" x2="32.0005" y2="37.2539">
			<stop  offset="0" style="stop-color:#E81C27"/>
			<stop  offset="0.157" style="stop-color:#EA2324"/>
			<stop  offset="0.3936" style="stop-color:#EE381D"/>
			<stop  offset="0.6805" style="stop-color:#F55A11"/>
			<stop  offset="1" style="stop-color:#FF8800"/>
			<a:midPointStop  offset="0" style="stop-color:#E81C27"/>
			<a:midPointStop  offset="0.6182" style="stop-color:#E81C27"/>
			<a:midPointStop  offset="1" style="stop-color:#FF8800"/>
		</linearGradient>
		<path fill="url(#SVGID_4_)" d="M32,38.895c2.715,0,4.924,2.209,4.924,4.923c0,2.713-2.209,4.922-4.924,4.922
			c-2.711,0-4.922-2.209-4.922-4.922C27.077,41.104,29.289,38.895,32,38.895z M32,37.254c-3.621,0-6.562,2.939-6.562,6.563
			c0,3.623,2.941,6.563,6.562,6.563c3.625,0,6.563-2.939,6.563-6.563C38.563,40.193,35.625,37.254,32,37.254z"/>
	</g>
</g>
<linearGradient id="Combined-Shape_1_" gradientUnits="userSpaceOnUse" x1="32.4956" y1="47.5918" x2="32.4956" y2="43.1592">
	<stop  offset="0" style="stop-color:#E81C27"/>
	<stop  offset="0.157" style="stop-color:#EA2324"/>
	<stop  offset="0.3936" style="stop-color:#EE381D"/>
	<stop  offset="0.6805" style="stop-color:#F55A11"/>
	<stop  offset="1" style="stop-color:#FF8800"/>
	<a:midPointStop  offset="0" style="stop-color:#E81C27"/>
	<a:midPointStop  offset="0.6182" style="stop-color:#E81C27"/>
	<a:midPointStop  offset="1" style="stop-color:#FF8800"/>
</linearGradient>
<path id="Combined-Shape_3_" fill="url(#Combined-Shape_1_)" d="M33.314,44.475c-0.219,0-0.331-0.109-0.331-0.328V43.49
	c0-0.222,0.112-0.331,0.331-0.331h2.131c0.221,0,0.33,0.109,0.33,0.331v0.327c0,2.085-1.688,3.774-3.776,3.774
	c-1.012,0-1.963-0.403-2.666-1.105c-0.156-0.157-0.156-0.308-0.002-0.465l0.699-0.695c0.154-0.154,0.309-0.154,0.463,0
	c0.398,0.397,0.936,0.625,1.506,0.625c0.949,0,1.754-0.618,2.034-1.477H33.314z"/>
<linearGradient id="SVGID_5_" gradientUnits="userSpaceOnUse" x1="31.9883" y1="60.915" x2="31.9883" y2="54.5166">
	<stop  offset="0" style="stop-color:#FF8800"/>
	<stop  offset="0.2113" style="stop-color:#FFA113"/>
	<stop  offset="0.5427" style="stop-color:#FFC32B"/>
	<stop  offset="0.8176" style="stop-color:#FFD83A"/>
	<stop  offset="1" style="stop-color:#FFDF40"/>
	<a:midPointStop  offset="0" style="stop-color:#FF8800"/>
	<a:midPointStop  offset="0.3818" style="stop-color:#FF8800"/>
	<a:midPointStop  offset="1" style="stop-color:#FFDF40"/>
</linearGradient>
<path fill="url(#SVGID_5_)" d="M42.605,56.646c-0.701-0.705-4.033,0.06-7.373-1.295c-2.665-1.079-3.663-1.146-6.489,0.001
	c-3.331,1.352-6.65,0.59-7.35,1.294c-0.432,0.435-0.641,1.987,0,2.373c1.023,0.616,4.205-0.11,7.336,1.177
	c2.311,0.948,4.152,0.962,6.487,0.027c3.234-1.293,6.477-0.533,7.389-1.204C43.189,58.59,43.037,57.08,42.605,56.646z"/>
<path fill="#FF9E00" d="M29.148,55.744c-0.135,0.143-0.236,0.295-0.301,0.46c-0.227,0.589-0.336,2.69,0,3.212
	c0.061,0.095,0.139,0.184,0.223,0.271C28.884,58.693,28.974,56.538,29.148,55.744z"/>
<path fill="#FF9E00" d="M25.55,56.225c-0.135,0.108-0.237,0.224-0.301,0.349c-0.227,0.444-0.336,2.034,0,2.429
	c0.061,0.07,0.139,0.139,0.223,0.203C25.286,58.455,25.375,56.826,25.55,56.225z"/>
<path fill="#FF9E00" d="M34.83,55.744c0.131,0.143,0.234,0.295,0.299,0.46c0.227,0.589,0.336,2.69,0,3.212
	c-0.061,0.095-0.139,0.184-0.223,0.271C35.092,58.693,35.002,56.538,34.83,55.744z"/>
<path fill="#FF9E00" d="M38.428,56.225c0.133,0.108,0.236,0.224,0.299,0.349c0.227,0.444,0.338,2.034,0,2.429
	c-0.061,0.07-0.139,0.139-0.223,0.203C38.689,58.455,38.602,56.826,38.428,56.225z"/>
<path fill="#FFD8B4" d="M18.132,55.734c2.076,0.324,2.814-1.258,4.203-0.832c0,0,0.287,0.488,0.377,1.429
	c0.086,0.896,0.482,1.814,2.498,2.923c1.328,0.728,0.318,2.109-0.904,1.602c-0.344,0.719-1.375,0.719-1.375,0.719
	c-1.813,1.438-5.16-1.172-6.693-1.889C18.126,57.602,18.132,55.734,18.132,55.734z"/>
<path fill="#DEB38A" d="M21.853,59.793c0,0,0.97,0.607,2.453,1.063C22.963,60.229,21.853,59.793,21.853,59.793z"/>
<path fill="#DEB38A" d="M20.864,60.938c0,0,0.707,0.637,2.066,0.637C21.853,61.414,20.864,60.938,20.864,60.938z"/>
<path fill="#FFD8B4" d="M45.877,55.734c-2.076,0.324-2.813-1.258-4.201-0.832c0,0-0.289,0.488-0.379,1.429
	c-0.086,0.896-0.482,1.814-2.498,2.923c-1.328,0.728-0.316,2.109,0.906,1.602c0.344,0.719,1.375,0.719,1.375,0.719
	c1.813,1.438,5.158-1.172,6.691-1.889C45.883,57.602,45.877,55.734,45.877,55.734z"/>
<path fill="#DEB38A" d="M42.158,59.793c0,0-0.971,0.607-2.453,1.063C41.047,60.229,42.158,59.793,42.158,59.793z"/>
<path fill="#DEB38A" d="M43.146,60.938c0,0-0.707,0.637-2.066,0.637C42.158,61.414,43.146,60.938,43.146,60.938z"/>
<path fill="#DEB38A" d="M27.501,30.799c0,3.827,9.001,3.827,9.001,0c0-1.303,0-4.234,0-4.234h-9.001
	C27.501,26.565,27.501,29.497,27.501,30.799z"/>
<path fill="#FFD8B4" d="M32.001,3.557c-7.528,0-11.157,6.129-10.704,14.012c0.094,1.586,0.535,3.871,1.078,5.827
	c1.131,4.07,7.088,8.171,9.625,8.171c2.536,0,8.491-4.101,9.624-8.171c0.543-1.956,0.984-4.241,1.076-5.827
	C43.154,9.686,39.531,3.557,32.001,3.557z"/>
<path fill="#DE935D" d="M32,25.166c-1.764-0.772-1.777-0.029-4.5,0.152c1.022,1.162,1.776,2.655,4.5,2.655
	c3.129,0,3.657-1.696,4.504-2.655C33.775,25.136,33.766,24.393,32,25.166z"/>
<path fill="#FFFFFF" d="M28.316,25.61c1.777,1.848,5.616,1.825,7.37,0C32.947,25.904,31.054,25.904,28.316,25.61z"/>
<path fill="#A88868" d="M40,14.946c-1.637-0.973-4.568-1.094-5.729-0.43c-0.246,0.134-0.184,0.838,0.031,0.75
	c1.654-0.69,4.178-0.724,5.732,0.075C40.242,15.446,40.25,15.087,40,14.946z"/>
<path fill="#A88868" d="M24.001,14.946c1.635-0.973,4.569-1.094,5.731-0.43c0.246,0.134,0.182,0.838-0.035,0.75
	c-1.654-0.69-4.176-0.724-5.731,0.075C23.757,15.446,23.753,15.087,24.001,14.946z"/>
<path fill="#DEB38A" d="M33.693,22.666c-0.18-0.125-0.6,0.069-1.694,0.069c-1.092,0-1.514-0.194-1.693-0.069
	C30.093,22.818,30.433,23.5,32,23.5C33.566,23.5,33.908,22.818,33.693,22.666z"/>
<path fill="#E81C27" d="M32.019,15.699c-2.746,0.002-8.315-4.523-10.938,0.977c1.143,10.52,8.133,2.352,10.938,2.355
	c2.795,0.004,9.854,8.26,10.901-2.355C40.297,11.173,34.758,15.697,32.019,15.699z"/>
<linearGradient id="SVGID_6_" gradientUnits="userSpaceOnUse" x1="32.0005" y1="33.1221" x2="32.0005" y2="2.0774">
	<stop  offset="0.05" style="stop-color:#1E110E"/>
	<stop  offset="0.2334" style="stop-color:#31211E"/>
	<stop  offset="0.5223" style="stop-color:#493632"/>
	<stop  offset="0.7" style="stop-color:#523E3A"/>
	<a:midPointStop  offset="0.05" style="stop-color:#1E110E"/>
	<a:midPointStop  offset="0.4" style="stop-color:#1E110E"/>
	<a:midPointStop  offset="0.7" style="stop-color:#523E3A"/>
</linearGradient>
<path fill="url(#SVGID_6_)" d="M40.473,4.657c0.859-1.227-6.42-3.818-13.296-2.068c-6.867,1.572-10.74,11.86-10.74,18.59
	c0.617,0.487,4.377-0.727,5.076-1.528c0.283-1.175,0.732-2.389,1.15-3.644c5.157-2.986,10.993-3.688,15.044-7.264
	c-0.52,1.559,2.225,3.521,3.629,7.264c0.457,1.215,0.863,2.432,1.152,3.644c1.146,1.056,3.43,1.552,5.076,1.528
	C47.564,15.487,43.227,3.864,40.473,4.657z"/>
<path fill="#1E110E" d="M17.673,20.155c4.75-6.324,20.14-5.896,22.8-15.498C35.309,12.714,18.974,14.075,17.673,20.155z"/>
<path id="Path_424_" fill="#FFFFFF" d="M30.326,17.904c0.063,0.496-0.273,1.088-1.211,1.531c-0.594,0.282-1.833,0.612-3.458-0.073
	c-0.729-0.308-1.439-1.262-1.375-1.793C25.164,15.909,29.501,15.665,30.326,17.904z"/>
<linearGradient id="Oval_1_" gradientUnits="userSpaceOnUse" x1="-424.2549" y1="479.2852" x2="-424.2549" y2="479.8037" gradientTransform="matrix(6.5701 0 0 -6.5701 2814.7805 3168.5281)">
	<stop  offset="0" style="stop-color:#A6694A"/>
	<stop  offset="1" style="stop-color:#4F2A1E"/>
	<a:midPointStop  offset="0" style="stop-color:#A6694A"/>
	<a:midPointStop  offset="0.5" style="stop-color:#A6694A"/>
	<a:midPointStop  offset="1" style="stop-color:#4F2A1E"/>
</linearGradient>
<circle id="Oval_52_" fill="url(#Oval_1_)" cx="27.382" cy="17.869" r="1.703"/>
<path id="Path_423_" fill="#1A1626" d="M26.53,17.837c0,1.181,1.706,1.181,1.706,0C28.236,16.744,26.53,16.744,26.53,17.837z"/>
<path id="Path_422_" fill="#AB968C" d="M26.273,17.362c0,0.494,0.713,0.494,0.713,0C26.986,16.905,26.273,16.905,26.273,17.362z"/>
<path id="Path_421_" fill="#A3141B" d="M30.335,17.969c-0.693-2.226-5.412-1.897-6.053-0.4
	C24.521,15.654,29.746,15.149,30.335,17.969z"/>
<path id="Path_420_" fill="#FFFFFF" d="M33.676,17.904c-0.064,0.496,0.273,1.088,1.211,1.531c0.594,0.282,1.832,0.612,3.459-0.073
	c0.727-0.308,1.438-1.262,1.373-1.793C38.838,15.909,34.502,15.665,33.676,17.904z"/>
<linearGradient id="Oval_2_" gradientUnits="userSpaceOnUse" x1="-425.5537" y1="479.2852" x2="-425.5537" y2="479.8037" gradientTransform="matrix(6.5701 0 0 -6.5701 2832.511 3168.5281)">
	<stop  offset="0" style="stop-color:#A6694A"/>
	<stop  offset="1" style="stop-color:#4F2A1E"/>
	<a:midPointStop  offset="0" style="stop-color:#A6694A"/>
	<a:midPointStop  offset="0.5" style="stop-color:#A6694A"/>
	<a:midPointStop  offset="1" style="stop-color:#4F2A1E"/>
</linearGradient>
<circle id="Oval_51_" fill="url(#Oval_2_)" cx="36.58" cy="17.869" r="1.703"/>
<path id="Path_419_" fill="#1A1626" d="M35.729,17.837c0,1.181,1.703,1.181,1.703,0C37.432,16.744,35.729,16.744,35.729,17.837z"/>
<path id="Path_418_" fill="#AB968C" d="M35.471,17.362c0,0.494,0.713,0.494,0.713,0C36.184,16.905,35.471,16.905,35.471,17.362z"/>
<path id="Path_417_" fill="#A3141B" d="M33.668,17.969c0.691-2.222,5.404-1.904,6.051-0.4
	C39.479,15.654,34.258,15.149,33.668,17.969z"/>
</svg>
