<?xml version="1.0" encoding="utf-8"?>
<!-- Generator: Adobe Illustrator 15.0.0, SVG Export Plug-In . SVG Version: 6.00 Build 0)  -->
<!DOCTYPE svg PUBLIC "-//W3C//DTD SVG 1.1//EN" "http://www.w3.org/Graphics/SVG/1.1/DTD/svg11.dtd" [
	<!ENTITY ns_flows "http://ns.adobe.com/Flows/1.0/">
	<!ENTITY ns_extend "http://ns.adobe.com/Extensibility/1.0/">
	<!ENTITY ns_ai "http://ns.adobe.com/AdobeIllustrator/10.0/">
	<!ENTITY ns_graphs "http://ns.adobe.com/Graphs/1.0/">
]>
<svg version="1.1" id="Layer_1" xmlns:x="&ns_extend;" xmlns:i="&ns_ai;" xmlns:graph="&ns_graphs;"
	 xmlns="http://www.w3.org/2000/svg" xmlns:xlink="http://www.w3.org/1999/xlink" xmlns:a="http://ns.adobe.com/AdobeSVGViewerExtensions/3.0/"
	 x="0px" y="0px" width="64px" height="64px" viewBox="0 0 64 64" enable-background="new 0 0 64 64" xml:space="preserve">
<rect x="52.453" y="36.958" fill="#4E5E67" width="1.761" height="2.095"/>
<path fill="#1A1626" d="M30.795,54.024v-1.911c0,0-11.112,0.233-24.104-1.87c-0.104,1.979,2.144,2.337,2.966,2.479
	C20.369,54.563,30.795,54.024,30.795,54.024z"/>
<rect x="23.986" y="20.781" fill="#4E5E67" width="2.019" height="0.491"/>
<rect x="23.986" y="20.087" fill="#4E5E67" width="2.019" height="0.49"/>
<rect x="23.271" y="21.175" fill="#1A1626" width="3.45" height="0.49"/>
<rect x="23.271" y="20.438" fill="#1A1626" width="3.45" height="0.491"/>
<rect x="23.271" y="19.745" fill="#1A1626" width="3.45" height="0.49"/>
<path fill="#1A1626" d="M25.647,19.99h-1.303c0,0-0.409-2.15,0-2.56c0.23-0.231,1.073-0.231,1.303,0
	C26.057,17.839,25.647,19.99,25.647,19.99z"/>
<path fill="#1A1626" d="M24.996,21.42l-1.142,2.734c0,0-0.369-0.629-5.501-1.568c-0.321-0.058-0.281-0.938,0.042-0.983
	C21.521,21.175,24.996,21.42,24.996,21.42z"/>
<linearGradient id="SVGID_1_" gradientUnits="userSpaceOnUse" x1="34.2305" y1="41.2246" x2="36.7793" y2="41.2246">
	<stop  offset="0" style="stop-color:#5B666E"/>
	<stop  offset="0.215" style="stop-color:#566069"/>
	<stop  offset="0.4906" style="stop-color:#4A5059"/>
	<stop  offset="0.7978" style="stop-color:#343640"/>
	<stop  offset="1" style="stop-color:#23212B"/>
	<a:midPointStop  offset="0" style="stop-color:#5B666E"/>
	<a:midPointStop  offset="0.6545" style="stop-color:#5B666E"/>
	<a:midPointStop  offset="1" style="stop-color:#23212B"/>
</linearGradient>
<rect x="34.23" y="39.615" fill="url(#SVGID_1_)" width="2.549" height="3.219"/>
<path fill="#1A1626" d="M18.047,52.604v-1.98l-14.04-2c0,0-0.099,1.349,0.463,1.62C7.663,51.784,18.047,52.604,18.047,52.604z"/>
<rect x="19.683" y="54.317" fill="#4E5E67" width="0.286" height="6.195"/>
<rect x="16.729" y="57.271" fill="#4E5E67" width="6.194" height="0.285"/>
<rect x="19.683" y="54.317" transform="matrix(0.7063 0.708 -0.708 0.7063 46.4706 2.8297)" fill="#4E5E67" width="0.286" height="6.194"/>
<rect x="19.683" y="54.316" transform="matrix(-0.7063 0.708 -0.708 -0.7063 74.4745 83.927)" fill="#4E5E67" width="0.286" height="6.196"/>
<path fill="#1A1626" d="M19.785,60.898c-1.92-0.023-3.465-1.604-3.442-3.525c0.023-1.921,1.604-3.466,3.524-3.442
	c1.92,0.022,3.464,1.604,3.442,3.525C23.286,59.377,21.705,60.922,19.785,60.898z M19.856,54.801
	c-1.441-0.016-2.626,1.142-2.644,2.583c-0.017,1.442,1.141,2.626,2.582,2.643c1.441,0.018,2.626-1.14,2.643-2.582
	C22.455,56.003,21.298,54.818,19.856,54.801z"/>
<path fill="#B3C2C6" d="M19.771,62c-2.527-0.03-4.56-2.111-4.53-4.641c0.03-2.528,2.11-4.561,4.639-4.531
	c2.528,0.031,4.561,2.111,4.531,4.641C24.38,59.997,22.299,62.03,19.771,62z M19.867,53.975c-1.898-0.021-3.457,1.502-3.479,3.399
	c-0.022,1.897,1.5,3.457,3.398,3.479c1.896,0.022,3.458-1.501,3.479-3.398C23.287,55.557,21.764,53.997,19.867,53.975z"/>
<linearGradient id="SVGID_2_" gradientUnits="userSpaceOnUse" x1="40.248" y1="56.5361" x2="40.248" y2="41.6475">
	<stop  offset="0" style="stop-color:#23212B"/>
	<stop  offset="0.3136" style="stop-color:#32333C"/>
	<stop  offset="0.9394" style="stop-color:#576169"/>
	<stop  offset="1" style="stop-color:#5B666E"/>
	<a:midPointStop  offset="0" style="stop-color:#23212B"/>
	<a:midPointStop  offset="0.5515" style="stop-color:#23212B"/>
	<a:midPointStop  offset="1" style="stop-color:#5B666E"/>
</linearGradient>
<path fill="url(#SVGID_2_)" d="M60,55.557c0,0-28.037,3.974-39.058-4.084c-0.65-0.475-0.535-2.617,0-3.219
	c6.118-6.868,29.923-7.946,35.729-5.225C59.342,44.281,60,55.557,60,55.557z"/>
<polygon fill="#1A1626" points="21.049,50.996 19.049,57.414 20.604,57.414 25.603,50.996 "/>
<path fill="#B3C2C6" d="M19.814,58.327c-0.503-0.006-0.909-0.42-0.903-0.924c0.006-0.505,0.421-0.91,0.925-0.905
	c0.504,0.007,0.91,0.422,0.904,0.927C20.734,57.928,20.319,58.334,19.814,58.327z"/>
<path fill="#1A1626" d="M59.09,53.24c0-5.751-4.653-10.406-10.405-10.406c-5.737-0.002-10.396,4.663-10.399,10.406H59.09z"/>
<circle fill="#B3C2C6" cx="48.687" cy="53.234" r="8.764"/>
<circle fill="#1A1626" cx="48.688" cy="53.234" r="6.063"/>
<path fill="#B3C2C6" d="M53.105,54.733c0.158-0.471,0.25-0.978,0.25-1.499c0-0.527-0.092-1.027-0.25-1.499l-2.598,1.499
	L53.105,54.733z"/>
<path fill="#B3C2C6" d="M49.597,51.655l2.597-1.496c-0.664-0.759-1.57-1.3-2.597-1.505V51.655z"/>
<path fill="#B3C2C6" d="M44.268,51.732c-0.158,0.475-0.249,0.975-0.249,1.502c0,0.521,0.091,1.028,0.249,1.498l2.602-1.498
	L44.268,51.732z"/>
<path fill="#B3C2C6" d="M49.597,54.811v3.003c1.028-0.205,1.933-0.744,2.597-1.501L49.597,54.811z"/>
<path fill="#B3C2C6" d="M47.777,51.655v-3.001c-1.027,0.205-1.932,0.746-2.597,1.505L47.777,51.655z"/>
<path fill="#B3C2C6" d="M47.777,54.813l-2.597,1.499c0.666,0.757,1.569,1.296,2.597,1.501V54.813z"/>
<circle fill="#B3C2C6" cx="48.688" cy="53.232" r="1.096"/>
<linearGradient id="SVGID_3_" gradientUnits="userSpaceOnUse" x1="51.6641" y1="7.1455" x2="59.5762" y2="7.1455">
	<stop  offset="0" style="stop-color:#2289C7"/>
	<stop  offset="0.2619" style="stop-color:#1779B3"/>
	<stop  offset="0.7365" style="stop-color:#066093"/>
	<stop  offset="1" style="stop-color:#005687"/>
	<a:midPointStop  offset="0" style="stop-color:#2289C7"/>
	<a:midPointStop  offset="0.4242" style="stop-color:#2289C7"/>
	<a:midPointStop  offset="1" style="stop-color:#005687"/>
</linearGradient>
<path fill="url(#SVGID_3_)" d="M57.864,11.88c-1.194,0.844-5.008,0.316-5.777-0.929c-1.229-1.987,0.413-7.48,2.473-8.585
	c1.571-0.843,4.2-0.238,4.806,1.867C59.896,6.083,59.436,10.771,57.864,11.88z"/>
<linearGradient id="SVGID_4_" gradientUnits="userSpaceOnUse" x1="175.6191" y1="62.5566" x2="191.043" y2="62.5566" gradientTransform="matrix(0.9847 -0.174 0.174 0.9847 -139.0078 -7.0949)">
	<stop  offset="0" style="stop-color:#2289C7"/>
	<stop  offset="0.2619" style="stop-color:#1779B3"/>
	<stop  offset="0.7365" style="stop-color:#066093"/>
	<stop  offset="1" style="stop-color:#005687"/>
	<a:midPointStop  offset="0" style="stop-color:#2289C7"/>
	<a:midPointStop  offset="0.4242" style="stop-color:#2289C7"/>
	<a:midPointStop  offset="1" style="stop-color:#005687"/>
</linearGradient>
<path fill="url(#SVGID_4_)" d="M54.951,33.239c-0.086,1.016-8.244,1.702-8.39,0.588c-0.958-7.271,1.664-18.391,5.813-22.393
	c0.987-0.952,6.038-1.382,5.962,0.523C58.111,17.545,55.486,26.958,54.951,33.239z"/>
<rect x="23.757" y="35.396" fill="#1A1626" width="28.875" height="4.219"/>
<rect x="54.036" y="36.396" fill="#E81C27" width="0.519" height="3.219"/>
<linearGradient id="SVGID_5_" gradientUnits="userSpaceOnUse" x1="34.334" y1="37.3174" x2="34.334" y2="30.4673">
	<stop  offset="0" style="stop-color:#005687"/>
	<stop  offset="0.2635" style="stop-color:#066093"/>
	<stop  offset="0.7381" style="stop-color:#1779B3"/>
	<stop  offset="1" style="stop-color:#2289C7"/>
	<a:midPointStop  offset="0" style="stop-color:#005687"/>
	<a:midPointStop  offset="0.5758" style="stop-color:#005687"/>
	<a:midPointStop  offset="1" style="stop-color:#2289C7"/>
</linearGradient>
<path fill="url(#SVGID_5_)" d="M47.004,37.317c-1.823,0-23.601,0-25.246,0c-2.513,0-1.417-7.437,4.688-6.537
	c13.25,1.952,15.227,0.972,19.6-0.281C48.08,29.917,49.121,37.317,47.004,37.317z"/>
<path fill="#1A1626" d="M54.948,33.014c0,5.118-7.671,5.118-7.671,0C47.277,27.894,54.948,27.894,54.948,33.014z"/>
<path fill="#4E5E67" d="M53.887,33.014c0,3.701-5.548,3.701-5.548,0C48.339,29.311,53.887,29.311,53.887,33.014z"/>
<path fill="#1A1626" d="M52.178,33.014c0,1.421-2.131,1.421-2.131,0C50.047,31.59,52.178,31.59,52.178,33.014z"/>
<polygon fill="#1A1626" points="47.006,25.124 48.951,37.317 47.004,37.317 45.107,25.241 "/>
<path fill="#4E5E67" d="M46.801,27.836c-2.015,1.006-2.57-2.153-3.931-2.353c-4.69-0.688-14.297-1.205-18.638-1.031
	c-1.262,0.051-0.783-2.644,0.464-2.809c8.553-1.134,18.267,0.258,23.969,1.392c0.608,0.121,0.176,1.563-0.634,1.46
	C47.945,26.785,47.751,27.361,46.801,27.836z"/>
<path fill="#1A1626" d="M47.006,26.331c0,1.036-1.552,1.036-1.552,0S47.006,25.294,47.006,26.331z"/>
</svg>
