<?xml version="1.0" encoding="utf-8"?>
<!-- Generator: Adobe Illustrator 15.0.0, SVG Export Plug-In . SVG Version: 6.00 Build 0)  -->
<!DOCTYPE svg PUBLIC "-//W3C//DTD SVG 1.1//EN" "http://www.w3.org/Graphics/SVG/1.1/DTD/svg11.dtd" [
	<!ENTITY ns_flows "http://ns.adobe.com/Flows/1.0/">
	<!ENTITY ns_extend "http://ns.adobe.com/Extensibility/1.0/">
	<!ENTITY ns_ai "http://ns.adobe.com/AdobeIllustrator/10.0/">
	<!ENTITY ns_graphs "http://ns.adobe.com/Graphs/1.0/">
]>
<svg version="1.1" id="Layer_1" xmlns:x="&ns_extend;" xmlns:i="&ns_ai;" xmlns:graph="&ns_graphs;"
	 xmlns="http://www.w3.org/2000/svg" xmlns:xlink="http://www.w3.org/1999/xlink" xmlns:a="http://ns.adobe.com/AdobeSVGViewerExtensions/3.0/"
	 x="0px" y="0px" width="64px" height="64px" viewBox="0 0 64 64" enable-background="new 0 0 64 64" xml:space="preserve">
<path fill="#98A7AD" d="M18,45.5h-7v-1h7V45.5z"/>
<rect x="21.5" y="28" fill="#014D86" width="24" height="6"/>
<path fill="#B3C2C6" d="M44,52V25c0-0.552-0.448-1-1-1H24c-0.551,0-1,0.448-1,1v11c0,1.323-2,1.32-2,0V25c0-1.654,1.346-3,3-3h19
	c1.654,0,3,1.346,3,3v27C46,53.323,44,53.32,44,52z"/>
<path fill="#B3C2C6" d="M44,31v-8c0-4.95,3.818-14.864,5.46-18.896c0.533-1.31,1.874-2.064,3.271-1.828l4.434,0.738
	c1.303,0.219,0.979,2.188-0.328,1.973l-4.434-0.738c-0.463-0.076-0.912,0.174-1.092,0.609C50.064,7.918,46,18.273,46,23v8
	C46,32.32,44,32.323,44,31z"/>
<path fill="#98A7AD" d="M47,53h-8c-2.807,0-5.27-1.15-7.877-2.368C28.353,49.338,25.488,48,22,48h-4c-1.322,0-1.322-2,0-2h4
	c3.934,0,7.141,1.498,9.969,2.818C34.37,49.939,36.639,51,39,51h8C48.323,51,48.32,53,47,53z"/>
<rect x="21.794" y="52.555" fill="#4E5E67" width="0.41" height="8.892"/>
<rect x="17.554" y="56.795" fill="#4E5E67" width="8.892" height="0.41"/>
<rect x="21.794" y="52.555" transform="matrix(0.7059 0.7083 -0.7083 0.7059 46.8428 1.1807)" fill="#4E5E67" width="0.411" height="8.891"/>
<rect x="21.794" y="52.554" transform="matrix(-0.7059 0.7083 -0.7083 -0.7059 77.9021 81.6552)" fill="#4E5E67" width="0.411" height="8.893"/>
<path fill="#1A1626" d="M21.94,62c-2.756-0.033-4.973-2.302-4.94-5.06c0.033-2.757,2.302-4.974,5.059-4.94s4.973,2.303,4.941,5.06
	C26.966,59.816,24.697,62.033,21.94,62z M22.044,53.25c-2.069-0.024-3.77,1.637-3.794,3.706c-0.024,2.069,1.637,3.77,3.706,3.794
	s3.77-1.637,3.794-3.706S24.113,53.274,22.044,53.25z"/>
<path fill="#B3C2C6" d="M17,49V38c0-1.654,1.346-3,3-3h25c1.323,0,1.32,2,0,2H20c-0.551,0-1,0.448-1,1v11H17z"/>
<path fill="#B3C2C6" d="M8.06,55.025l3.545-13.922C12,39.846,13.15,39,14.468,39H18v2H14.47c-0.439,0-0.824,0.282-0.955,0.701
	L9.968,55.623L8.06,55.025z"/>
<polygon fill="#302C3B" points="10.457,55.396 2.392,53.875 2,56.061 9.931,57.472 "/>
<path fill="#013366" d="M51.488,4.5c-4.283,9.802-3.146,6.15-4.988,16C51.982,14.689,51.488,4.5,51.488,4.5z"/>
<path fill="#98A7AD" d="M42.439,20H23.56c-0.687,0-0.808,2,0,2h18.879C43.246,22,43.125,20,42.439,20z"/>
<path fill="#1A1626" d="M61.547,2.98L52.74,2.003c-0.278-0.03-0.528,0.171-0.557,0.449L52.002,4.26
	c-0.045,0.448,0.768,0.876,1.146,0.918c0.611,0.067,0.648-0.295,1.261-0.228s0.575,0.432,1.188,0.5
	c0.613,0.067,0.649-0.295,1.264-0.228c0.611,0.067,0.576,0.432,1.188,0.498c0.613,0.068,0.649-0.295,1.264-0.227
	s0.578,0.432,1.193,0.5c0.389,0.043,1.264-0.199,1.311-0.653l0.182-1.805C62.025,3.262,61.822,3.014,61.547,2.98z"/>
<path fill="#014D86" d="M43.865,19.691c0.503-2.664,4.527-14.293,5.131-15.777c0.375-0.919,3.15,0.213,2.779,1.131
	c-0.588,1.441-4.485,12.673-4.963,15.203C46.626,21.236,43.682,20.663,43.865,19.691z"/>
<path fill="#1A1626" d="M48.504,51H47v2h1.504C49.165,53,49.166,51,48.504,51z"/>
<path fill="#CED7DC" d="M7.674,57.639l0.748-2.968l1.515,0.268l-0.75,2.969L7.674,57.639z"/>
<path fill="#98A7AD" d="M22.562,55.95c-2.238-1.469-3.479-3.099-3.479-5.186c0-1.595,0-2.871,0-2.871l-2.162-0.002
	c0,0,0,1.442,0,3.224c0,2.751,1.446,4.626,4.461,6.792C22.76,58.897,24.032,56.915,22.562,55.95z"/>
<path fill="#CED7DC" d="M21.991,57.75c-0.413-0.005-0.745-0.346-0.741-0.759c0.006-0.413,0.346-0.745,0.759-0.741
	c0.413,0.005,0.746,0.346,0.741,0.759S22.404,57.755,21.991,57.75z"/>
<rect x="28.746" y="44.598" fill="#4E5E67" width="32.508" height="0.805"/>
<rect x="44.598" y="28.746" fill="#4E5E67" width="0.805" height="32.508"/>
<rect x="44.597" y="28.746" transform="matrix(-0.7083 0.7059 -0.7059 -0.7083 108.6395 45.1092)" fill="#4E5E67" width="0.805" height="32.508"/>
<rect x="44.597" y="28.746" transform="matrix(-0.7083 -0.7059 0.7059 -0.7083 45.1092 108.6395)" fill="#4E5E67" width="0.805" height="32.508"/>
<path fill="#1A1626" d="M45,62c-9.374,0-17-7.626-17-17s7.626-17,17-17s17,7.626,17,17S54.374,62,45,62z M45,30
	c-8.271,0-15,6.729-15,15s6.729,15,15,15s15-6.729,15-15S53.271,30,45,30z"/>
<path fill="#B3C2C6" d="M45,60.5c-8.547,0-15.5-6.953-15.5-15.5S36.453,29.5,45,29.5S60.5,36.453,60.5,45S53.547,60.5,45,60.5z
	 M45,30.5c-7.995,0-14.5,6.505-14.5,14.5S37.005,59.5,45,59.5S59.5,52.995,59.5,45S52.995,30.5,45,30.5z"/>
<path fill="#CED7DC" d="M45,59c-7.721,0-14-6.28-14-14s6.282-14,14-14s14,6.28,14,14S52.721,59,45,59z M45,33
	c-6.617,0-12,5.383-12,12s5.383,12,12,12s12-5.383,12-12S51.617,33,45,33z"/>
<circle fill="#98A7AD" cx="45" cy="45" r="3"/>
<circle fill="#CED7DC" cx="45" cy="45" r="1.5"/>
</svg>
