<?xml version="1.0" encoding="utf-8"?>
<!-- Generator: Adobe Illustrator 15.0.0, SVG Export Plug-In . SVG Version: 6.00 Build 0)  -->
<!DOCTYPE svg PUBLIC "-//W3C//DTD SVG 1.1//EN" "http://www.w3.org/Graphics/SVG/1.1/DTD/svg11.dtd" [
	<!ENTITY ns_flows "http://ns.adobe.com/Flows/1.0/">
	<!ENTITY ns_extend "http://ns.adobe.com/Extensibility/1.0/">
	<!ENTITY ns_ai "http://ns.adobe.com/AdobeIllustrator/10.0/">
	<!ENTITY ns_graphs "http://ns.adobe.com/Graphs/1.0/">
]>
<svg version="1.1" id="Layer_1" xmlns:x="&ns_extend;" xmlns:i="&ns_ai;" xmlns:graph="&ns_graphs;"
	 xmlns="http://www.w3.org/2000/svg" xmlns:xlink="http://www.w3.org/1999/xlink" xmlns:a="http://ns.adobe.com/AdobeSVGViewerExtensions/3.0/"
	 x="0px" y="0px" width="64px" height="64px" viewBox="0 0 64 64" enable-background="new 0 0 64 64" xml:space="preserve">
<path fill="#3AB0A2" d="M43.463,28.865c-1.58-1.639-4.811-1.158-4.811-1.16c-2.258-0.988-4.455-1.48-6.652-1.48
	s-4.395,0.492-6.654,1.48c0.002,0.002-3.229-0.479-4.809,1.16C12.525,30.597,7.887,41.567,9.998,62H32h22
	C56.111,41.567,51.473,30.597,43.463,28.865z"/>
<path fill="#148779" d="M47.32,35.779H32H16.68C14.74,37.665,10.145,43.853,12.746,62H32h19.254
	C53.855,43.853,49.26,37.665,47.32,35.779z"/>
<path fill="#189E8D" d="M18.668,29.464c3.816-1.252,7.467,2.625,7.467,2.625S23.031,26.947,18.668,29.464z"/>
<path fill="#189E8D" d="M45.332,29.464c-3.816-1.252-7.467,2.625-7.467,2.625S40.969,26.947,45.332,29.464z"/>
<path fill="#302C3B" d="M60.064,43.848c-1.646-3.445-3.113-5.381-5.703-6.721H9.641c-2.59,1.34-4.059,3.275-5.705,6.721
	c-7.943,6.857,11.139,15.619,11.139,15.619c4.932-1.152,2.035-4.285,2.035-4.285c-3.35-1.895-3.34-4.949-6.736-7.988
	c3.166-0.648,6.441-3.688,6.441-3.688c0.871,6.271,4.721,6.975,3.934,18.494h22.504c-0.787-11.52,3.063-12.223,3.934-18.494
	c0,0,3.275,3.039,6.441,3.688c-3.396,3.039-3.387,6.094-6.736,7.988c0,0-2.896,3.133,2.035,4.285
	C48.926,59.467,68.008,50.705,60.064,43.848z"/>
<path fill="#3AB0A2" d="M61.906,48.398c-0.518,6.238-12.98,11.068-12.98,11.068s-1.598-0.244-1.873-2.955
	C52.744,55.137,60.689,43.535,61.906,48.398z"/>
<linearGradient id="SVGID_1_" gradientUnits="userSpaceOnUse" x1="-10.6528" y1="36.582" x2="-24.2104" y2="36.582" gradientTransform="matrix(-1 0 0 1 29.7764 0)">
	<stop  offset="0" style="stop-color:#ABBDC5"/>
	<stop  offset="0.0865" style="stop-color:#A6B8BF"/>
	<stop  offset="0.6622" style="stop-color:#89979E"/>
	<stop  offset="0.9758" style="stop-color:#7E8B91"/>
	<a:midPointStop  offset="0" style="stop-color:#ABBDC5"/>
	<a:midPointStop  offset="0.4286" style="stop-color:#ABBDC5"/>
	<a:midPointStop  offset="0.9758" style="stop-color:#7E8B91"/>
</linearGradient>
<path fill="url(#SVGID_1_)" d="M54.361,37.127c-4.592,0.467-7.035,4.801-7.035,4.801s-2.592-7.246-7.123-9.02
	C46.414,28.96,53.145,32.683,54.361,37.127z"/>
<linearGradient id="SVGID_2_" gradientUnits="userSpaceOnUse" x1="9.8672" y1="36.583" x2="23.4229" y2="36.583">
	<stop  offset="0" style="stop-color:#ABBDC5"/>
	<stop  offset="0.0865" style="stop-color:#A6B8BF"/>
	<stop  offset="0.6622" style="stop-color:#89979E"/>
	<stop  offset="0.9758" style="stop-color:#7E8B91"/>
	<a:midPointStop  offset="0" style="stop-color:#ABBDC5"/>
	<a:midPointStop  offset="0.4286" style="stop-color:#ABBDC5"/>
	<a:midPointStop  offset="0.9758" style="stop-color:#7E8B91"/>
</linearGradient>
<path fill="url(#SVGID_2_)" d="M9.641,37.127c4.59,0.467,7.033,4.801,7.033,4.801s2.592-7.246,7.123-9.02
	C17.588,28.96,10.855,32.683,9.641,37.127z"/>
<path fill="#3AB0A2" d="M2.096,48.398c0.514,6.238,12.979,11.068,12.979,11.068s1.598-0.244,1.873-2.955
	C11.256,55.137,3.311,43.535,2.096,48.398z"/>
<linearGradient id="SVGID_3_" gradientUnits="userSpaceOnUse" x1="-26.4443" y1="56.2988" x2="-24.2239" y2="53.1142" gradientTransform="matrix(-1 0 0 1 29.7764 0)">
	<stop  offset="0" style="stop-color:#7E8B91"/>
	<stop  offset="0.4396" style="stop-color:#909FA5"/>
	<stop  offset="1" style="stop-color:#ABBDC5"/>
	<a:midPointStop  offset="0" style="stop-color:#7E8B91"/>
	<a:midPointStop  offset="0.5455" style="stop-color:#7E8B91"/>
	<a:midPointStop  offset="1" style="stop-color:#ABBDC5"/>
</linearGradient>
<path fill="url(#SVGID_3_)" d="M61.906,49.461c-0.518,6.238-12.98,10.006-12.98,10.006s-1.598,0.818-1.873-1.893
	C52.744,56.199,60.689,44.598,61.906,49.461z"/>
<linearGradient id="SVGID_4_" gradientUnits="userSpaceOnUse" x1="7.7798" y1="56.2998" x2="10.0006" y2="53.1147">
	<stop  offset="0" style="stop-color:#7E8B91"/>
	<stop  offset="0.4396" style="stop-color:#909FA5"/>
	<stop  offset="1" style="stop-color:#ABBDC5"/>
	<a:midPointStop  offset="0" style="stop-color:#7E8B91"/>
	<a:midPointStop  offset="0.5455" style="stop-color:#7E8B91"/>
	<a:midPointStop  offset="1" style="stop-color:#ABBDC5"/>
</linearGradient>
<path fill="url(#SVGID_4_)" d="M2.096,49.461c0.514,6.238,12.979,10.006,12.979,10.006s1.598,0.818,1.873-1.893
	C11.256,56.199,3.311,44.598,2.096,49.461z"/>
<path fill="#C99B71" d="M26.5,30.738c0,3.497,11,3.497,11,0c0-1.189,0-2.902,0-2.902h-11C26.5,27.835,26.5,29.548,26.5,30.738z"/>
<linearGradient id="SVGID_5_" gradientUnits="userSpaceOnUse" x1="31.9995" y1="62" x2="31.9995" y2="53.6777">
	<stop  offset="0" style="stop-color:#7E8B91"/>
	<stop  offset="0.631" style="stop-color:#9DAEB5"/>
	<stop  offset="1" style="stop-color:#ABBDC5"/>
	<a:midPointStop  offset="0" style="stop-color:#7E8B91"/>
	<a:midPointStop  offset="0.4424" style="stop-color:#7E8B91"/>
	<a:midPointStop  offset="1" style="stop-color:#ABBDC5"/>
</linearGradient>
<path fill="url(#SVGID_5_)" d="M44.125,54.742c-0.801-0.805-3.443-1.064-3.443-1.064L38.4,57.553H25.598l-2.281-3.875
	c0,0-2.641,0.26-3.443,1.064C19.381,55.24,20.688,62,20.688,62h22.623C43.311,62,44.619,55.24,44.125,54.742z"/>
<path fill="#4E5E67" d="M16.113,41.061c0,0,0.467,4.061,2.855,4.945c2.18,0.809,8.723,0.904,11.375-0.031
	C30.875,45.787,32,44.727,32,44.727s1.125,1.061,1.656,1.248c2.652,0.936,9.195,0.84,11.375,0.031
	c2.389-0.885,2.857-4.945,2.857-4.945H16.113z"/>
<path fill="#EBC199" d="M17.039,55.135c2.182,0.361,2.287-0.859,3.09-0.992c0.479-0.078,0.824,0.615,0.924,1.646
	c0.096,0.982,1.236,1.988,3.326,3.203c1.377,0.797,0.33,2.313-0.939,1.756c-0.355,0.787-1.426,0.787-1.426,0.787
	c-1.879,1.574-5.35-1.285-6.939-2.07C17.033,57.182,17.039,55.135,17.039,55.135z"/>
<path fill="#C99B71" d="M20.896,59.582c0,0,1.006,0.668,2.543,1.166C22.049,60.061,20.896,59.582,20.896,59.582z"/>
<path fill="#C99B71" d="M19.871,60.836c0,0,0.734,0.699,2.143,0.699C20.896,61.359,19.871,60.836,19.871,60.836z"/>
<path fill="#EBC199" d="M46.961,55.135c-2.182,0.361-2.287-0.859-3.09-0.992c-0.479-0.078-0.824,0.615-0.924,1.646
	c-0.096,0.982-1.236,1.988-3.326,3.203c-1.375,0.797-0.33,2.313,0.939,1.756c0.355,0.787,1.426,0.787,1.426,0.787
	c1.879,1.574,5.35-1.285,6.939-2.07C46.967,57.182,46.961,55.135,46.961,55.135z"/>
<path fill="#C99B71" d="M43.104,59.582c0,0-1.006,0.668-2.543,1.166C41.951,60.061,43.104,59.582,43.104,59.582z"/>
<path fill="#C99B71" d="M44.129,60.836c0,0-0.734,0.699-2.143,0.699C43.104,61.359,44.129,60.836,44.129,60.836z"/>
<linearGradient id="SVGID_6_" gradientUnits="userSpaceOnUse" x1="-2.8379" y1="38.9717" x2="-18.19" y2="38.9717" gradientTransform="matrix(-1 0 0 1 29.7764 0)">
	<stop  offset="0" style="stop-color:#ABBDC5"/>
	<stop  offset="0.369" style="stop-color:#9DAEB5"/>
	<stop  offset="1" style="stop-color:#7E8B91"/>
	<a:midPointStop  offset="0" style="stop-color:#ABBDC5"/>
	<a:midPointStop  offset="0.5576" style="stop-color:#ABBDC5"/>
	<a:midPointStop  offset="1" style="stop-color:#7E8B91"/>
</linearGradient>
<path fill="url(#SVGID_6_)" d="M42.74,33.52c1.682,0.957,5.199,6.664,5.148,7.541c-0.061,1.002-1.797,2.855-2.592,3.408
	c-1.672,1.164-10.387,0.859-11.865,0.252C32.842,44.477,32,43.807,32,43.807V33.361C32,33.361,39.615,31.744,42.74,33.52z"/>
<linearGradient id="SVGID_7_" gradientUnits="userSpaceOnUse" x1="16.7275" y1="38.9727" x2="32.0778" y2="38.9727">
	<stop  offset="0" style="stop-color:#ABBDC5"/>
	<stop  offset="0.369" style="stop-color:#9DAEB5"/>
	<stop  offset="1" style="stop-color:#7E8B91"/>
	<a:midPointStop  offset="0" style="stop-color:#ABBDC5"/>
	<a:midPointStop  offset="0.5576" style="stop-color:#ABBDC5"/>
	<a:midPointStop  offset="1" style="stop-color:#7E8B91"/>
</linearGradient>
<path fill="url(#SVGID_7_)" d="M21.26,33.52c-1.682,0.957-5.199,6.664-5.146,7.541c0.059,1.002,1.795,2.855,2.59,3.408
	c1.672,1.164,10.387,0.859,11.865,0.252C31.158,44.477,32,43.807,32,43.807V33.361C32,33.361,24.385,31.744,21.26,33.52z"/>
<path fill="#D4DCE0" d="M11.41,36.415L7.889,30.57l5.672,4.119C13.135,36.203,11.41,36.415,11.41,36.415z"/>
<path fill="#D4DCE0" d="M15.5,33.123l-1.486-8.113l4.654,7.079C17.537,33.619,15.5,33.123,15.5,33.123z"/>
<path fill="#D4DCE0" d="M52.588,36.415l3.52-5.845l-5.672,4.119C50.865,36.203,52.588,36.415,52.588,36.415z"/>
<path fill="#D4DCE0" d="M48.5,33.123l1.482-8.113l-4.654,7.079C46.459,33.619,48.5,33.123,48.5,33.123z"/>
<path id="Path_726_" fill="#EBC199" d="M43.225,15.261c-1.738,0.211-2.992,6.029-1.9,7.564c0.152,0.215,1.049,0.557,1.713-0.799
	c0.367-0.75,1.428-1.377,1.756-2.924C45.215,17.119,44.953,15.052,43.225,15.261z"/>
<path id="Path_725_" fill="#EBC199" d="M20.777,15.261c1.738,0.211,2.992,6.029,1.898,7.564c-0.152,0.215-1.047,0.557-1.711-0.799
	c-0.369-0.75-1.43-1.377-1.758-2.924C18.785,17.119,19.049,15.05,20.777,15.261z"/>
<path id="Path_724_" fill="#C99B71" d="M43.176,16.376c-0.453,0.143-0.947,0.834-1.215,1.98c1.584-0.34,1.188,2.299-0.189,2.35
	c0.012,0.266,0.031,0.539,0.063,0.826c0.664-0.965,1.338-0.576,2.006-2.012C44.441,18.23,44.299,16.025,43.176,16.376z"/>
<path id="Path_723_" fill="#C99B71" d="M22.041,18.355c-0.27-1.146-0.762-1.836-1.215-1.979c-1.123-0.354-1.268,1.854-0.666,3.145
	c0.668,1.436,1.342,1.047,2.006,2.012c0.033-0.289,0.051-0.563,0.063-0.828C20.865,20.64,20.477,18.033,22.041,18.355z"/>
<path id="Path_722_" fill="#EBC199" d="M32,4.076c-7.527,0-11.154,5.695-10.701,13.613c0.092,1.594,1.08,6.791,2.012,8.654
	c0.955,1.908,4.146,4.85,6.102,5.457c1.236,0.385,3.941,0.385,5.176,0c1.955-0.607,5.148-3.549,6.102-5.457
	c0.934-1.863,1.922-7.061,2.012-8.654C43.156,9.771,39.529,4.076,32,4.076z"/>
<path id="Path_721_" fill="#A17C5B" d="M39.383,12.63c-1.945-0.099-4.951,1.254-5.795,2.348c-0.186,0.222,0.336,0.931,0.502,0.764
	c1.266-1.335,3.758-2.515,5.525-2.513C39.852,13.227,39.672,12.634,39.383,12.63z"/>
<path id="Path_720_" fill="#A17C5B" d="M24.617,12.63c1.945-0.099,4.949,1.253,5.795,2.348c0.186,0.222-0.338,0.931-0.502,0.764
	c-1.268-1.336-3.758-2.515-5.527-2.514C24.148,13.226,24.328,12.634,24.617,12.63z"/>
<path id="Path_719_" fill="#C99B71" d="M34.031,22.589c-0.215-0.15-0.719,0.08-2.031,0.08c-1.311,0-1.816-0.23-2.031-0.08
	c-0.258,0.182,0.152,1,2.031,1S34.291,22.771,34.031,22.589z"/>
<path fill="#E3BE86" d="M41.615,5.962C39.967,3.732,36.951,2,32,2s-7.965,1.732-9.613,3.963C20.055,9.119,43.947,9.119,41.615,5.962
	z"/>
<linearGradient id="SVGID_8_" gradientUnits="userSpaceOnUse" x1="32.0015" y1="19.6382" x2="32.0015" y2="5.0176">
	<stop  offset="0.5" style="stop-color:#BA9757"/>
	<stop  offset="0.6473" style="stop-color:#C29E60"/>
	<stop  offset="0.8867" style="stop-color:#D7B378"/>
	<stop  offset="1" style="stop-color:#E3BE86"/>
	<a:midPointStop  offset="0.5" style="stop-color:#BA9757"/>
	<a:midPointStop  offset="0.6" style="stop-color:#BA9757"/>
	<a:midPointStop  offset="1" style="stop-color:#E3BE86"/>
</linearGradient>
<path fill="url(#SVGID_8_)" d="M41.615,5.962C39.967,3.732,36.951,6.15,32,6.15s-7.965-2.418-9.613-0.188
	c-2.332,3.156-1.539,13.676-0.502,13.676c0.164,0,0.188-3.682,0.502-6.227c0.256-2.072,0.748-4.08,1.313-4.408
	C25.428,8,28.762,9.433,32,9.433c3.24,0,6.572-1.434,8.301-0.43c0.566,0.328,1.057,2.336,1.314,4.408
	c0.314,2.545,0.336,6.227,0.502,6.227C43.154,19.638,43.947,9.119,41.615,5.962z"/>
<path fill="#3AB0A2" d="M32.02,15.699c-2.746,0.002-8.314-4.523-10.938,0.977c1.141,10.52,8.133,2.352,10.938,2.355
	c2.795,0.004,9.852,8.26,10.9-2.355C40.295,11.173,34.756,15.697,32.02,15.699z"/>
<path id="Path_718_" fill="#FFFFFF" d="M30.326,17.904c0.063,0.496-0.273,1.088-1.211,1.531c-0.594,0.281-1.832,0.611-3.457-0.074
	c-0.729-0.307-1.439-1.262-1.375-1.793C25.164,15.908,29.502,15.664,30.326,17.904z"/>
<linearGradient id="Oval_1_" gradientUnits="userSpaceOnUse" x1="-424.2549" y1="479.2852" x2="-424.2549" y2="479.8037" gradientTransform="matrix(6.5701 0 0 -6.5701 2814.7805 3168.5281)">
	<stop  offset="0" style="stop-color:#C20606"/>
	<stop  offset="1" style="stop-color:#5E0000"/>
	<a:midPointStop  offset="0" style="stop-color:#C20606"/>
	<a:midPointStop  offset="0.5" style="stop-color:#C20606"/>
	<a:midPointStop  offset="1" style="stop-color:#5E0000"/>
</linearGradient>
<circle id="Oval_78_" fill="url(#Oval_1_)" cx="27.383" cy="17.869" r="1.703"/>
<path id="Path_717_" fill="#1A1626" d="M26.531,17.837c0,1.18,1.705,1.18,1.705,0C28.236,16.744,26.531,16.744,26.531,17.837z"/>
<path id="Path_716_" fill="#AB968C" d="M26.273,17.361c0,0.494,0.713,0.494,0.713,0C26.986,16.904,26.273,16.904,26.273,17.361z"/>
<path id="Path_715_" fill="#148779" d="M30.336,17.968c-0.693-2.225-5.412-1.896-6.053-0.4
	C24.521,15.654,29.746,15.148,30.336,17.968z"/>
<path id="Path_710_" fill="#FFFFFF" d="M33.676,17.904c-0.064,0.496,0.273,1.088,1.211,1.531c0.594,0.281,1.832,0.611,3.459-0.074
	c0.727-0.307,1.438-1.262,1.373-1.793C38.838,15.908,34.502,15.664,33.676,17.904z"/>
<linearGradient id="Oval_2_" gradientUnits="userSpaceOnUse" x1="-425.5537" y1="479.2852" x2="-425.5537" y2="479.8037" gradientTransform="matrix(6.5701 0 0 -6.5701 2832.511 3168.5281)">
	<stop  offset="0" style="stop-color:#C20606"/>
	<stop  offset="1" style="stop-color:#5E0000"/>
	<a:midPointStop  offset="0" style="stop-color:#C20606"/>
	<a:midPointStop  offset="0.5" style="stop-color:#C20606"/>
	<a:midPointStop  offset="1" style="stop-color:#5E0000"/>
</linearGradient>
<circle id="Oval_77_" fill="url(#Oval_2_)" cx="36.58" cy="17.869" r="1.703"/>
<path id="Path_709_" fill="#1A1626" d="M35.729,17.837c0,1.18,1.703,1.18,1.703,0C37.432,16.744,35.729,16.744,35.729,17.837z"/>
<path id="Path_708_" fill="#AB968C" d="M35.471,17.361c0,0.494,0.713,0.494,0.713,0C36.184,16.904,35.471,16.904,35.471,17.361z"/>
<path id="Path_707_" fill="#148779" d="M33.668,17.968c0.691-2.221,5.404-1.904,6.051-0.4
	C39.479,15.654,34.258,15.148,33.668,17.968z"/>
<path fill="#C99B71" d="M37.02,24.287c0,2.352-5.215,4.773-7.934,2.387C35.184,26.785,37.02,24.287,37.02,24.287z"/>
<path fill="#B38A64" d="M32.602,25.701c-1.145-0.229-1.813,0.781-3.516,0.973c6.141,0.574,7.934-2.387,7.934-2.387
	C35.41,25.841,33.742,24.966,32.602,25.701z"/>
</svg>
