<?xml version="1.0" encoding="utf-8"?>
<!-- Generator: Adobe Illustrator 15.0.0, SVG Export Plug-In . SVG Version: 6.00 Build 0)  -->
<!DOCTYPE svg PUBLIC "-//W3C//DTD SVG 1.1//EN" "http://www.w3.org/Graphics/SVG/1.1/DTD/svg11.dtd" [
	<!ENTITY ns_flows "http://ns.adobe.com/Flows/1.0/">
	<!ENTITY ns_extend "http://ns.adobe.com/Extensibility/1.0/">
	<!ENTITY ns_ai "http://ns.adobe.com/AdobeIllustrator/10.0/">
	<!ENTITY ns_graphs "http://ns.adobe.com/Graphs/1.0/">
]>
<svg version="1.1" id="Layer_1" xmlns:x="&ns_extend;" xmlns:i="&ns_ai;" xmlns:graph="&ns_graphs;"
	 xmlns="http://www.w3.org/2000/svg" xmlns:xlink="http://www.w3.org/1999/xlink" xmlns:a="http://ns.adobe.com/AdobeSVGViewerExtensions/3.0/"
	 x="0px" y="0px" width="64px" height="64px" viewBox="0 0 64 64" enable-background="new 0 0 64 64" xml:space="preserve">
<path fill="#BA9757" d="M42.385,24.421c0.738,0.488,1.59,0.853,2.586,1.039c-1.768-4.026,0.896-12.471-4.561-18.676
	c-7.693,0.23-8.757,25.111,1.967,21.803c-0.684-0.296-1.111-0.899-1.363-1.662c0.828,0.237,1.793,0.245,2.918-0.101
	C43.037,26.437,42.58,25.523,42.385,24.421z"/>
<path fill="#BA9757" d="M23.074,6.784c-5.459,6.205-2.277,14.649-4.043,18.676c0.994-0.187,1.848-0.551,2.586-1.039
	c-0.197,1.103-0.654,2.016-1.549,2.403c1.125,0.346,2.092,0.338,2.918,0.101c-0.252,0.763-0.678,1.366-1.361,1.662
	C32.348,31.896,30.768,7.015,23.074,6.784z"/>
<path fill="#3AB0A2" d="M43.463,28.865c-1.58-1.639-4.811-1.158-4.809-1.16c-2.26-0.988-4.457-1.48-6.654-1.48
	c-2.197,0-4.395,0.492-6.653,1.48c0,0.002-3.23-0.479-4.811,1.16C12.527,30.598,7.889,41.567,10,62h22h22.001
	C56.113,41.567,51.475,30.598,43.463,28.865z"/>
<path fill="#148779" d="M47.32,35.779H32H16.68C14.74,37.665,10.145,43.853,12.746,62H32h19.253
	C53.855,43.853,49.26,37.665,47.32,35.779z"/>
<path fill="#189E8D" d="M18.668,29.465c3.816-1.252,7.467,2.625,7.467,2.625S23.031,26.947,18.668,29.465z"/>
<path fill="#189E8D" d="M45.332,29.465c-3.816-1.252-7.467,2.625-7.467,2.625S40.969,26.947,45.332,29.465z"/>
<path fill="#302C3B" d="M60.064,43.848c-1.646-3.445-5.703-6.721-5.703-6.721H9.641c0,0-4.059,3.275-5.705,6.721
	c-7.943,6.857,11.139,15.619,11.139,15.619c4.932-1.152,2.035-4.285,2.035-4.285c-3.35-1.895-7.176-7.474-7.176-7.474l7.881-5.886
	c0.871,5.977,3.721,8.658,2.934,20.178h22.504c-0.787-11.52,2.063-14.201,2.934-20.178l7.881,5.886c0,0-3.826,5.579-7.176,7.474
	c0,0-2.896,3.133,2.035,4.285C48.926,59.467,68.008,50.705,60.064,43.848z"/>
<path fill="#3AB0A2" d="M61.906,48.398c-0.518,6.238-12.98,11.068-12.98,11.068s-1.598-0.244-1.873-2.955
	C52.744,55.137,60.689,43.535,61.906,48.398z"/>
<linearGradient id="SVGID_1_" gradientUnits="userSpaceOnUse" x1="-10.6528" y1="36.582" x2="-24.2104" y2="36.582" gradientTransform="matrix(-1 0 0 1 29.7764 0)">
	<stop  offset="0" style="stop-color:#ABBDC5"/>
	<stop  offset="0.0865" style="stop-color:#A6B8BF"/>
	<stop  offset="0.6622" style="stop-color:#89979E"/>
	<stop  offset="0.9758" style="stop-color:#7E8B91"/>
	<a:midPointStop  offset="0" style="stop-color:#ABBDC5"/>
	<a:midPointStop  offset="0.4286" style="stop-color:#ABBDC5"/>
	<a:midPointStop  offset="0.9758" style="stop-color:#7E8B91"/>
</linearGradient>
<path fill="url(#SVGID_1_)" d="M54.361,37.127c-4.592,0.467-7.553,4.801-7.553,4.801s-2.074-7.246-6.605-9.02
	C46.414,28.961,53.145,32.684,54.361,37.127z"/>
<linearGradient id="SVGID_2_" gradientUnits="userSpaceOnUse" x1="9.8672" y1="36.583" x2="23.4229" y2="36.583">
	<stop  offset="0" style="stop-color:#ABBDC5"/>
	<stop  offset="0.0865" style="stop-color:#A6B8BF"/>
	<stop  offset="0.6622" style="stop-color:#89979E"/>
	<stop  offset="0.9758" style="stop-color:#7E8B91"/>
	<a:midPointStop  offset="0" style="stop-color:#ABBDC5"/>
	<a:midPointStop  offset="0.4286" style="stop-color:#ABBDC5"/>
	<a:midPointStop  offset="0.9758" style="stop-color:#7E8B91"/>
</linearGradient>
<path fill="url(#SVGID_2_)" d="M9.641,37.127c4.59,0.467,7.553,4.801,7.553,4.801s2.072-7.246,6.604-9.02
	C17.588,28.961,10.855,32.684,9.641,37.127z"/>
<path fill="#3AB0A2" d="M2.096,48.398c0.514,6.238,12.979,11.068,12.979,11.068s1.598-0.244,1.873-2.955
	C11.256,55.137,3.311,43.535,2.096,48.398z"/>
<linearGradient id="SVGID_3_" gradientUnits="userSpaceOnUse" x1="-26.4443" y1="56.2988" x2="-24.2239" y2="53.1142" gradientTransform="matrix(-1 0 0 1 29.7764 0)">
	<stop  offset="0" style="stop-color:#7E8B91"/>
	<stop  offset="0.4396" style="stop-color:#909FA5"/>
	<stop  offset="1" style="stop-color:#ABBDC5"/>
	<a:midPointStop  offset="0" style="stop-color:#7E8B91"/>
	<a:midPointStop  offset="0.5455" style="stop-color:#7E8B91"/>
	<a:midPointStop  offset="1" style="stop-color:#ABBDC5"/>
</linearGradient>
<path fill="url(#SVGID_3_)" d="M61.906,49.461c-0.518,6.238-12.98,10.006-12.98,10.006s-1.598,0.818-1.873-1.893
	C52.744,56.199,60.689,44.598,61.906,49.461z"/>
<linearGradient id="SVGID_4_" gradientUnits="userSpaceOnUse" x1="7.7798" y1="56.2998" x2="10.0006" y2="53.1147">
	<stop  offset="0" style="stop-color:#7E8B91"/>
	<stop  offset="0.4396" style="stop-color:#909FA5"/>
	<stop  offset="1" style="stop-color:#ABBDC5"/>
	<a:midPointStop  offset="0" style="stop-color:#7E8B91"/>
	<a:midPointStop  offset="0.5455" style="stop-color:#7E8B91"/>
	<a:midPointStop  offset="1" style="stop-color:#ABBDC5"/>
</linearGradient>
<path fill="url(#SVGID_4_)" d="M2.096,49.461c0.514,6.238,12.979,10.006,12.979,10.006s1.598,0.818,1.873-1.893
	C11.256,56.199,3.311,44.598,2.096,49.461z"/>
<path fill="#C99B71" d="M27,30.738c0,3.496,10,3.496,10,0c0-1.189,0-2.902,0-2.902H27C27,27.836,27,29.549,27,30.738z"/>
<linearGradient id="SVGID_5_" gradientUnits="userSpaceOnUse" x1="31.9995" y1="62" x2="31.9995" y2="53.6777">
	<stop  offset="0" style="stop-color:#7E8B91"/>
	<stop  offset="0.631" style="stop-color:#9DAEB5"/>
	<stop  offset="1" style="stop-color:#ABBDC5"/>
	<a:midPointStop  offset="0" style="stop-color:#7E8B91"/>
	<a:midPointStop  offset="0.4424" style="stop-color:#7E8B91"/>
	<a:midPointStop  offset="1" style="stop-color:#ABBDC5"/>
</linearGradient>
<path fill="url(#SVGID_5_)" d="M44.125,54.742c-0.801-0.805-3.443-1.064-3.443-1.064L38.4,57.553H25.598l-2.281-3.875
	c0,0-2.641,0.26-3.443,1.064C19.381,55.24,20.688,62,20.688,62h22.623C43.311,62,44.619,55.24,44.125,54.742z"/>
<path fill="#4E5E67" d="M16.949,41.061c0,0,0.443,4.061,2.705,4.945c2.066,0.809,8.266,0.904,10.778-0.031
	C30.934,45.787,32,44.727,32,44.727s1.066,1.061,1.57,1.248c2.512,0.936,8.709,0.84,10.775,0.031
	c2.264-0.885,2.707-4.945,2.707-4.945H16.949z"/>
<path fill="#EBC199" d="M17.039,55.135c2.182,0.361,2.287-0.859,3.09-0.992c0.479-0.078,0.824,0.615,0.924,1.646
	c0.096,0.982,1.236,1.988,3.326,3.203c1.377,0.797,0.33,2.313-0.939,1.756c-0.355,0.787-1.426,0.787-1.426,0.787
	c-1.879,1.574-5.35-1.285-6.939-2.07C17.033,57.182,17.039,55.135,17.039,55.135z"/>
<path fill="#C99B71" d="M20.896,59.582c0,0,1.006,0.668,2.543,1.166C22.049,60.061,20.896,59.582,20.896,59.582z"/>
<path fill="#C99B71" d="M19.871,60.836c0,0,0.734,0.699,2.143,0.699C20.896,61.359,19.871,60.836,19.871,60.836z"/>
<path fill="#EBC199" d="M46.961,55.135c-2.182,0.361-2.287-0.859-3.09-0.992c-0.479-0.078-0.824,0.615-0.924,1.646
	c-0.096,0.982-1.236,1.988-3.326,3.203c-1.375,0.797-0.33,2.313,0.939,1.756c0.355,0.787,1.426,0.787,1.426,0.787
	c1.879,1.574,5.35-1.285,6.939-2.07C46.967,57.182,46.961,55.135,46.961,55.135z"/>
<path fill="#C99B71" d="M43.104,59.582c0,0-1.006,0.668-2.543,1.166C41.951,60.061,43.104,59.582,43.104,59.582z"/>
<path fill="#C99B71" d="M44.129,60.836c0,0-0.734,0.699-2.143,0.699C43.104,61.359,44.129,60.836,44.129,60.836z"/>
<linearGradient id="SVGID_6_" gradientUnits="userSpaceOnUse" x1="-2.8062" y1="38.9717" x2="-17.3501" y2="38.9717" gradientTransform="matrix(-1 0 0 1 29.7764 0)">
	<stop  offset="0" style="stop-color:#ABBDC5"/>
	<stop  offset="0.369" style="stop-color:#9DAEB5"/>
	<stop  offset="1" style="stop-color:#7E8B91"/>
	<a:midPointStop  offset="0" style="stop-color:#ABBDC5"/>
	<a:midPointStop  offset="0.5576" style="stop-color:#ABBDC5"/>
	<a:midPointStop  offset="1" style="stop-color:#7E8B91"/>
</linearGradient>
<path fill="url(#SVGID_6_)" d="M42.174,33.52c1.596,0.957,4.928,6.664,4.879,7.541c-0.057,1.002-1.701,2.855-2.455,3.408
	c-1.584,1.164-9.842,0.859-11.242,0.252C32.797,44.477,32,43.807,32,43.807V33.361C32,33.361,39.215,31.744,42.174,33.52z"/>
<linearGradient id="SVGID_7_" gradientUnits="userSpaceOnUse" x1="17.5313" y1="38.9727" x2="32.0743" y2="38.9727">
	<stop  offset="0" style="stop-color:#ABBDC5"/>
	<stop  offset="0.369" style="stop-color:#9DAEB5"/>
	<stop  offset="1" style="stop-color:#7E8B91"/>
	<a:midPointStop  offset="0" style="stop-color:#ABBDC5"/>
	<a:midPointStop  offset="0.5576" style="stop-color:#ABBDC5"/>
	<a:midPointStop  offset="1" style="stop-color:#7E8B91"/>
</linearGradient>
<path fill="url(#SVGID_7_)" d="M21.826,33.52c-1.594,0.957-4.926,6.664-4.877,7.541c0.057,1.002,1.701,2.855,2.453,3.408
	c1.586,1.164,9.842,0.859,11.243,0.252C31.204,44.477,32,43.807,32,43.807V33.361C32,33.361,24.785,31.744,21.826,33.52z"/>
<path fill="#D4DCE0" d="M11.41,36.415L7.889,30.57l5.672,4.118C13.135,36.203,11.41,36.415,11.41,36.415z"/>
<path fill="#D4DCE0" d="M15.5,33.123l-1.486-8.112l4.654,7.079C17.537,33.619,15.5,33.123,15.5,33.123z"/>
<path fill="#D4DCE0" d="M52.588,36.415l3.52-5.845l-5.672,4.118C50.865,36.203,52.588,36.415,52.588,36.415z"/>
<path fill="#D4DCE0" d="M48.5,33.123l1.482-8.112l-4.654,7.079C46.459,33.619,48.5,33.123,48.5,33.123z"/>
<path id="Path_694_" fill="#EBC199" d="M43.225,15.262c-1.738,0.211-2.992,6.028-1.9,7.563c0.152,0.215,1.049,0.557,1.713-0.798
	c0.367-0.75,1.428-1.377,1.756-2.925C45.215,17.12,44.953,15.052,43.225,15.262z"/>
<path id="Path_693_" fill="#EBC199" d="M20.779,15.262c1.736,0.211,2.99,6.028,1.898,7.563c-0.154,0.215-1.049,0.557-1.713-0.798
	c-0.367-0.75-1.428-1.377-1.758-2.925C18.787,17.12,19.049,15.052,20.779,15.262z"/>
<path id="Path_692_" fill="#C99B71" d="M43.176,16.377c-0.453,0.143-0.947,0.834-1.215,1.98c1.584-0.34,1.188,2.3-0.189,2.349
	c0.014,0.266,0.031,0.539,0.064,0.827c0.662-0.965,1.336-0.577,2.004-2.011C44.441,18.229,44.299,16.024,43.176,16.377z"/>
<path id="Path_691_" fill="#C99B71" d="M22.041,18.354c-0.27-1.145-0.762-1.836-1.215-1.978c-1.123-0.353-1.268,1.853-0.664,3.146
	c0.666,1.434,1.34,1.046,2.006,2.011c0.031-0.289,0.051-0.563,0.061-0.828C20.867,20.641,20.477,18.033,22.041,18.354z"/>
<path fill="#EBC199" d="M32,4.075c-7.528,0-11.155,6.131-10.702,14.014c0.094,1.585,0.535,3.871,1.078,5.83
	C23.506,27.99,29.463,32.09,32,32.09c2.537,0,8.494-4.1,9.625-8.171c0.543-1.959,0.984-4.245,1.078-5.83
	C43.154,10.206,39.529,4.075,32,4.075z"/>
<path id="Path_690_" fill="#A17C5B" d="M39.383,12.631c-1.945-0.099-4.949,1.254-5.795,2.348c-0.186,0.222,0.338,0.931,0.502,0.764
	c1.266-1.335,3.76-2.515,5.527-2.513C39.852,13.228,39.674,12.635,39.383,12.631z"/>
<path id="Path_689_" fill="#A17C5B" d="M24.617,12.631c1.947-0.099,4.95,1.253,5.795,2.348c0.186,0.222-0.336,0.931-0.502,0.764
	c-1.268-1.336-3.758-2.515-5.528-2.514C24.148,13.227,24.328,12.635,24.617,12.631z"/>
<path id="Path_688_" fill="#C99B71" d="M34.031,22.59c-0.215-0.15-0.719,0.08-2.031,0.08c-1.311,0-1.816-0.23-2.031-0.08
	c-0.258,0.182,0.152,1,2.031,1C33.879,23.59,34.291,22.771,34.031,22.59z"/>
<path fill="#C99B71" d="M37.02,24.287c0,2.352-5.214,4.773-7.933,2.387C35.184,26.785,37.02,24.287,37.02,24.287z"/>
<path fill="#B38A64" d="M32.602,25.701c-1.145-0.229-1.813,0.781-3.516,0.973c6.14,0.574,7.933-2.387,7.933-2.387
	C35.41,25.842,33.742,24.967,32.602,25.701z"/>
<path fill="#3AB0A2" d="M32.02,15.699c-2.746,0.002-8.315-4.523-10.938,0.977c1.141,10.52,8.133,2.352,10.938,2.355
	c2.794,0.004,9.851,8.26,10.9-2.355C40.295,11.174,34.756,15.697,32.02,15.699z"/>
<path id="Path_687_" fill="#FFFFFF" d="M30.327,17.904c0.063,0.496-0.273,1.088-1.211,1.531c-0.594,0.281-1.832,0.611-3.458-0.074
	c-0.729-0.307-1.439-1.262-1.375-1.793C25.164,15.908,29.502,15.664,30.327,17.904z"/>
<linearGradient id="Oval_1_" gradientUnits="userSpaceOnUse" x1="-424.2549" y1="479.2852" x2="-424.2549" y2="479.8037" gradientTransform="matrix(6.5701 0 0 -6.5701 2814.7805 3168.5281)">
	<stop  offset="0" style="stop-color:#C20606"/>
	<stop  offset="1" style="stop-color:#5E0000"/>
	<a:midPointStop  offset="0" style="stop-color:#C20606"/>
	<a:midPointStop  offset="0.5" style="stop-color:#C20606"/>
	<a:midPointStop  offset="1" style="stop-color:#5E0000"/>
</linearGradient>
<circle id="Oval_70_" fill="url(#Oval_1_)" cx="27.383" cy="17.869" r="1.703"/>
<path id="Path_686_" fill="#1A1626" d="M26.531,17.838c0,1.18,1.706,1.18,1.706,0C28.237,16.744,26.531,16.744,26.531,17.838z"/>
<path id="Path_685_" fill="#AB968C" d="M26.273,17.361c0,0.494,0.713,0.494,0.713,0C26.986,16.904,26.273,16.904,26.273,17.361z"/>
<path id="Path_684_" fill="#148779" d="M30.336,17.969c-0.693-2.225-5.413-1.896-6.053-0.4
	C24.521,15.654,29.747,15.148,30.336,17.969z"/>
<path id="Path_683_" fill="#FFFFFF" d="M33.676,17.904c-0.064,0.496,0.273,1.088,1.211,1.531c0.594,0.281,1.832,0.611,3.459-0.074
	c0.727-0.307,1.438-1.262,1.373-1.793C38.838,15.908,34.502,15.664,33.676,17.904z"/>
<linearGradient id="Oval_2_" gradientUnits="userSpaceOnUse" x1="-425.5537" y1="479.2852" x2="-425.5537" y2="479.8037" gradientTransform="matrix(6.5701 0 0 -6.5701 2832.511 3168.5281)">
	<stop  offset="0" style="stop-color:#C20606"/>
	<stop  offset="1" style="stop-color:#5E0000"/>
	<a:midPointStop  offset="0" style="stop-color:#C20606"/>
	<a:midPointStop  offset="0.5" style="stop-color:#C20606"/>
	<a:midPointStop  offset="1" style="stop-color:#5E0000"/>
</linearGradient>
<circle id="Oval_69_" fill="url(#Oval_2_)" cx="36.58" cy="17.869" r="1.703"/>
<path id="Path_682_" fill="#1A1626" d="M35.729,17.838c0,1.18,1.703,1.18,1.703,0C37.432,16.744,35.729,16.744,35.729,17.838z"/>
<path id="Path_681_" fill="#AB968C" d="M35.471,17.361c0,0.494,0.713,0.494,0.713,0C36.184,16.904,35.471,16.904,35.471,17.361z"/>
<path id="Path_680_" fill="#148779" d="M33.668,17.969c0.691-2.221,5.404-1.904,6.051-0.4
	C39.479,15.654,34.258,15.148,33.668,17.969z"/>
<linearGradient id="SVGID_8_" gradientUnits="userSpaceOnUse" x1="31.8892" y1="19.6563" x2="31.8892" y2="1.999">
	<stop  offset="0" style="stop-color:#BA9757"/>
	<stop  offset="0.2266" style="stop-color:#C6A265"/>
	<stop  offset="0.7054" style="stop-color:#DBB77D"/>
	<stop  offset="1" style="stop-color:#E3BE86"/>
	<a:midPointStop  offset="0" style="stop-color:#BA9757"/>
	<a:midPointStop  offset="0.4" style="stop-color:#BA9757"/>
	<a:midPointStop  offset="1" style="stop-color:#E3BE86"/>
</linearGradient>
<path fill="url(#SVGID_8_)" d="M32.002,1.999c-4.58,0-6.87,2.076-7.334,3.061c-5.539,1.266-7.318,10.609-3.174,14.597
	c0.516-4.248,1.01-6.977,3.834-9.851c1.646,2.206,5.069,3.447,8.131,3.447c-1.449-1.054-2.439-2.086-3.214-3.049
	c5.115,2.348,10.841,3.851,12.263,9.452C47.43,11.819,43.342,1.999,32.002,1.999z"/>
<path fill="#BA9757" d="M24.654,5.059c-0.07,3.911,1.51,6.839,8.809,8.194C28.231,13.605,22.863,10.444,24.654,5.059z"/>
<path fill="#BA9757" d="M25.113,9.556c-1.906,1.878-4.045,5.132-3.639,10.101c0.379-4.106,2.266-7.488,3.975-9.68
	C25.328,9.846,25.215,9.705,25.113,9.556z"/>
<path fill="#BA9757" d="M28.379,8.315c3.828,3.653,13.23,3.416,14.15,11.341C40.074,11.948,31.76,13.678,28.379,8.315z"/>
</svg>
