<?xml version="1.0" encoding="utf-8"?>
<!-- Generator: Adobe Illustrator 15.0.0, SVG Export Plug-In . SVG Version: 6.00 Build 0)  -->
<!DOCTYPE svg PUBLIC "-//W3C//DTD SVG 1.1//EN" "http://www.w3.org/Graphics/SVG/1.1/DTD/svg11.dtd" [
	<!ENTITY ns_flows "http://ns.adobe.com/Flows/1.0/">
	<!ENTITY ns_extend "http://ns.adobe.com/Extensibility/1.0/">
	<!ENTITY ns_ai "http://ns.adobe.com/AdobeIllustrator/10.0/">
	<!ENTITY ns_graphs "http://ns.adobe.com/Graphs/1.0/">
]>
<svg version="1.1" id="Layer_1" xmlns:x="&ns_extend;" xmlns:i="&ns_ai;" xmlns:graph="&ns_graphs;"
	 xmlns="http://www.w3.org/2000/svg" xmlns:xlink="http://www.w3.org/1999/xlink" xmlns:a="http://ns.adobe.com/AdobeSVGViewerExtensions/3.0/"
	 x="0px" y="0px" width="64px" height="64px" viewBox="0 0 64 64" enable-background="new 0 0 64 64" xml:space="preserve">
<path fill="#E81C27" d="M42.739,30.422c-1.608-1.608-3.96-1.138-3.96-1.138c-4.602-1.941-8.955-1.942-13.557-0.001
	c0,0-2.352-0.471-3.961,1.139C12.183,30.568,7.326,47.066,5.507,62h52.985C56.674,47.066,51.817,30.568,42.739,30.422z"/>
<path fill="#850000" d="M47.971,36.235H16.03c0,0-6.495,10.012-2.803,25.765h37.545C54.465,46.247,47.971,36.235,47.971,36.235z"/>
<path fill="#A3141B" d="M18.749,30.906c0,0,3.111-0.775,6.393,0.217C21.719,29.224,18.749,30.906,18.749,30.906z"/>
<path fill="#A3141B" d="M23.828,29.251c0,0,2.204,0.066,4.234,1.942C26.266,28.568,23.828,29.251,23.828,29.251z"/>
<path fill="#A3141B" d="M45.252,30.906c0,0-3.111-0.775-6.393,0.217C42.281,29.224,45.252,30.906,45.252,30.906z"/>
<path fill="#A3141B" d="M40.172,29.251c0,0-2.203,0.066-4.234,1.942C37.734,28.568,40.172,29.251,40.172,29.251z"/>
<path fill="#006DAE" d="M59.901,48.042c-0.86-2.525-5.618-8.796-11.931-11.807c-1.156-2.177-6.444-5.753-11.469-4.173
	c-1.219,0.384-2.251,1.42-4.502,1.419c-2.251,0.001-3.283-1.035-4.502-1.419c-5.024-1.581-10.313,1.996-11.469,4.173
	C9.716,39.246,4.958,45.517,4.099,48.042c-0.836,2.46,3.574,5.854,12.129,11.622c3.973-1.063,1.895-3.951,1.895-3.951
	c-3.121-1.746-4.263-4.73-6.903-7.399c0,0,6.747-1.765,8.216-5.321c0.334-0.808,2.51,5.118,2.638,7.265
	c0.188,3.158,0.437,8.756-0.177,11.743h20.208c-0.613-2.987-0.364-8.585-0.177-11.743c0.128-2.146,2.304-8.072,2.638-7.265
	c1.47,3.557,8.217,5.321,8.217,5.321c-2.641,2.669-3.782,5.653-6.903,7.399c0,0-2.078,2.889,1.895,3.951
	C56.327,53.896,60.737,50.502,59.901,48.042z"/>
<linearGradient id="SVGID_1_" gradientUnits="userSpaceOnUse" x1="32.0005" y1="50.8184" x2="32.0005" y2="36.8174">
	<stop  offset="0" style="stop-color:#FFF047"/>
	<stop  offset="0.0078" style="stop-color:#FFF049"/>
	<stop  offset="0.2289" style="stop-color:#FFF273"/>
	<stop  offset="0.444" style="stop-color:#FFF394"/>
	<stop  offset="0.6487" style="stop-color:#FFF4AC"/>
	<stop  offset="0.8388" style="stop-color:#FFF5BA"/>
	<stop  offset="1" style="stop-color:#FFF5BF"/>
	<a:midPointStop  offset="0" style="stop-color:#FFF047"/>
	<a:midPointStop  offset="0.3273" style="stop-color:#FFF047"/>
	<a:midPointStop  offset="1" style="stop-color:#FFF5BF"/>
</linearGradient>
<path fill="url(#SVGID_1_)" d="M32,36.817c-3.859,0-7,3.141-7,7.001c0,3.859,3.141,7,7,7s7-3.141,7-7
	C39,39.958,35.859,36.817,32,36.817L32,36.817z"/>
<g id="Shape_7_">
	<g>
		<linearGradient id="SVGID_2_" gradientUnits="userSpaceOnUse" x1="32.0005" y1="50.3809" x2="32.0005" y2="37.2549">
			<stop  offset="0" style="stop-color:#E81C27"/>
			<stop  offset="0.157" style="stop-color:#EA2324"/>
			<stop  offset="0.3936" style="stop-color:#EE381D"/>
			<stop  offset="0.6805" style="stop-color:#F55A11"/>
			<stop  offset="1" style="stop-color:#FF8800"/>
			<a:midPointStop  offset="0" style="stop-color:#E81C27"/>
			<a:midPointStop  offset="0.6182" style="stop-color:#E81C27"/>
			<a:midPointStop  offset="1" style="stop-color:#FF8800"/>
		</linearGradient>
		<path fill="url(#SVGID_2_)" d="M32,38.896c2.715,0,4.922,2.209,4.922,4.923c0,2.713-2.207,4.922-4.922,4.922
			c-2.713,0-4.922-2.209-4.922-4.922C27.078,41.104,29.287,38.896,32,38.896z M32,37.255c-3.623,0-6.563,2.939-6.563,6.563
			c0,3.623,2.939,6.563,6.563,6.563c3.625,0,6.563-2.939,6.563-6.563C38.563,40.194,35.625,37.255,32,37.255z"/>
	</g>
</g>
<linearGradient id="Combined-Shape_1_" gradientUnits="userSpaceOnUse" x1="32.4961" y1="47.5928" x2="32.4961" y2="43.1602">
	<stop  offset="0" style="stop-color:#E81C27"/>
	<stop  offset="0.157" style="stop-color:#EA2324"/>
	<stop  offset="0.3936" style="stop-color:#EE381D"/>
	<stop  offset="0.6805" style="stop-color:#F55A11"/>
	<stop  offset="1" style="stop-color:#FF8800"/>
	<a:midPointStop  offset="0" style="stop-color:#E81C27"/>
	<a:midPointStop  offset="0.6182" style="stop-color:#E81C27"/>
	<a:midPointStop  offset="1" style="stop-color:#FF8800"/>
</linearGradient>
<path id="Combined-Shape_5_" fill="url(#Combined-Shape_1_)" d="M33.314,44.476c-0.22,0-0.33-0.109-0.33-0.328v-0.656
	c0-0.222,0.11-0.331,0.33-0.331h2.131c0.221,0,0.33,0.109,0.33,0.331v0.327c0,2.085-1.689,3.774-3.775,3.774
	c-1.013,0-1.965-0.403-2.666-1.105c-0.156-0.157-0.156-0.308-0.003-0.465l0.7-0.695c0.154-0.154,0.308-0.154,0.461,0
	c0.4,0.397,0.936,0.625,1.508,0.625c0.948,0,1.753-0.618,2.032-1.477H33.314z"/>
<linearGradient id="SVGID_3_" gradientUnits="userSpaceOnUse" x1="31.9883" y1="60.916" x2="31.9883" y2="54.5166">
	<stop  offset="0" style="stop-color:#FF8800"/>
	<stop  offset="0.2113" style="stop-color:#FFA113"/>
	<stop  offset="0.5427" style="stop-color:#FFC32B"/>
	<stop  offset="0.8176" style="stop-color:#FFD83A"/>
	<stop  offset="1" style="stop-color:#FFDF40"/>
	<a:midPointStop  offset="0" style="stop-color:#FF8800"/>
	<a:midPointStop  offset="0.3818" style="stop-color:#FF8800"/>
	<a:midPointStop  offset="1" style="stop-color:#FFDF40"/>
</linearGradient>
<path fill="url(#SVGID_3_)" d="M42.605,56.646c-0.703-0.705-4.033,0.059-7.375-1.295c-2.662-1.08-3.661-1.146-6.486,0.001
	c-3.332,1.352-6.65,0.59-7.351,1.294c-0.431,0.435-0.64,1.986,0,2.373c1.023,0.616,4.206-0.11,7.337,1.176
	c2.31,0.949,4.151,0.963,6.486,0.028c3.232-1.293,6.475-0.533,7.389-1.204C43.189,58.591,43.037,57.081,42.605,56.646z"/>
<path fill="#FF9E00" d="M29.146,55.745c-0.133,0.143-0.235,0.295-0.299,0.46c-0.227,0.588-0.336,2.69,0,3.212
	c0.061,0.095,0.139,0.184,0.223,0.271C28.885,58.693,28.973,56.539,29.146,55.745z"/>
<path fill="#FF9E00" d="M25.549,56.226c-0.134,0.108-0.237,0.224-0.3,0.349c-0.227,0.444-0.337,2.033,0,2.428
	c0.061,0.071,0.138,0.139,0.223,0.204C25.286,58.455,25.375,56.826,25.549,56.226z"/>
<path fill="#FF9E00" d="M34.829,55.745c0.132,0.143,0.235,0.295,0.3,0.46c0.227,0.588,0.336,2.69,0,3.212
	c-0.061,0.095-0.139,0.184-0.224,0.271C35.092,58.693,35.002,56.539,34.829,55.745z"/>
<path fill="#FF9E00" d="M38.426,56.226c0.135,0.108,0.236,0.224,0.301,0.349c0.227,0.444,0.336,2.033,0,2.428
	c-0.061,0.071-0.139,0.139-0.224,0.204C38.689,58.455,38.601,56.826,38.426,56.226z"/>
<path fill="#FFCC66" d="M18.132,55.735c2.076,0.324,2.733-1.258,4.132-0.832c0,0,0.358,0.487,0.448,1.429
	c0.086,0.896,0.482,1.814,2.498,2.922c1.328,0.729,0.318,2.11-0.905,1.603c-0.344,0.719-1.375,0.719-1.375,0.719
	c-1.813,1.438-5.16-1.172-6.693-1.889C18.126,57.602,18.132,55.735,18.132,55.735z"/>
<path fill="#DB9D3A" d="M21.852,59.794c0,0,0.97,0.607,2.453,1.063C22.963,60.229,21.852,59.794,21.852,59.794z"/>
<path fill="#DB9D3A" d="M20.864,60.938c0,0,0.707,0.637,2.066,0.637C21.852,61.415,20.864,60.938,20.864,60.938z"/>
<path fill="#FFCC66" d="M45.877,55.735c-2.076,0.324-2.732-1.258-4.132-0.832c0,0-0.358,0.487-0.448,1.429
	c-0.086,0.896-0.482,1.814-2.498,2.922c-1.328,0.729-0.318,2.11,0.904,1.603c0.344,0.719,1.375,0.719,1.375,0.719
	c1.813,1.438,5.16-1.172,6.693-1.889C45.883,57.602,45.877,55.735,45.877,55.735z"/>
<path fill="#DB9D3A" d="M42.156,59.794c0,0-0.97,0.607-2.453,1.063C41.046,60.229,42.156,59.794,42.156,59.794z"/>
<path fill="#DB9D3A" d="M43.145,60.938c0,0-0.707,0.637-2.066,0.637C42.156,61.415,43.145,60.938,43.145,60.938z"/>
<path fill="#E6B045" d="M27,30.799c0,3.828,10,3.828,10,0c0-1.303,0-4.235,0-4.235H27C27,26.564,27,29.497,27,30.799z"/>
<path fill="#473834" d="M42.383,24.42c0.739,0.488,1.592,0.853,2.586,1.039c-1.766-4.026,0.896-12.471-4.561-18.676
	c-7.693,0.23-8.757,25.112,1.967,21.803c-0.683-0.296-1.11-0.899-1.361-1.662c0.826,0.237,1.793,0.245,2.918-0.101
	C43.036,26.436,42.58,25.523,42.383,24.42z"/>
<path fill="#473834" d="M23.073,6.784c-5.458,6.205-2.276,14.649-4.042,18.676c0.994-0.187,1.847-0.551,2.586-1.039
	c-0.197,1.103-0.654,2.016-1.548,2.403c1.125,0.346,2.09,0.338,2.917,0.101c-0.251,0.763-0.678,1.366-1.361,1.662
	C32.348,31.896,30.766,7.014,23.073,6.784z"/>
<path id="Path_213_" fill="#FFCC66" d="M43.224,15.261c-1.737,0.211-2.992,6.028-1.899,7.563c0.152,0.215,1.048,0.557,1.712-0.798
	c0.368-0.75,1.429-1.377,1.757-2.925C45.215,17.12,44.952,15.051,43.224,15.261z"/>
<path id="Path_212_" fill="#FFCC66" d="M20.778,15.261c1.737,0.211,2.992,6.028,1.898,7.563c-0.153,0.215-1.048,0.557-1.712-0.798
	c-0.368-0.75-1.428-1.377-1.757-2.925C18.786,17.12,19.049,15.051,20.778,15.261z"/>
<path id="Path_211_" fill="#DB9D3A" d="M43.176,16.376c-0.453,0.143-0.947,0.834-1.216,1.98c1.585-0.34,1.188,2.3-0.188,2.349
	c0.012,0.266,0.03,0.539,0.063,0.827c0.664-0.965,1.338-0.577,2.006-2.011C44.441,18.229,44.299,16.024,43.176,16.376z"/>
<path id="Path_209_" fill="#DB9D3A" d="M22.04,18.354c-0.269-1.145-0.762-1.836-1.215-1.978c-1.123-0.353-1.267,1.853-0.665,3.146
	c0.667,1.434,1.341,1.046,2.006,2.011c0.033-0.289,0.051-0.563,0.062-0.828C20.866,20.64,20.476,18.033,22.04,18.354z"/>
<path fill="#FFCC66" d="M32,4.075c-7.528,0-11.154,6.131-10.702,14.014c0.093,1.585,0.534,3.871,1.078,5.83
	C23.505,27.99,29.463,32.09,32,32.09c2.536,0,8.494-4.1,9.623-8.171c0.545-1.959,0.985-4.245,1.078-5.83
	C43.153,10.206,39.529,4.075,32,4.075z"/>
<path id="Path_208_" fill="#966F42" d="M40.179,14.68c-1.722-0.912-5.017-0.956-6.243-0.321c-0.264,0.123-0.09,0.987,0.131,0.905
	c1.711-0.677,4.47-0.692,6.07,0.058C40.352,15.419,40.439,14.807,40.179,14.68z"/>
<path id="Path_207_" fill="#966F42" d="M23.821,14.68c1.722-0.912,5.015-0.956,6.243-0.321c0.263,0.123,0.09,0.987-0.131,0.905
	c-1.714-0.677-4.469-0.692-6.072,0.058C23.649,15.419,23.561,14.807,23.821,14.68z"/>
<path id="Path_206_" fill="#DB9D3A" d="M34.031,22.589c-0.215-0.15-0.719,0.081-2.031,0.081c-1.311,0-1.816-0.231-2.031-0.081
	c-0.258,0.181,0.152,1,2.031,1S34.29,22.77,34.031,22.589z"/>
<path id="Path_205_" fill="#DB9D3A" d="M32,25.692c-1.693-0.498-4.201,0.235-4.201,0.235c0.955,1.042,1.654,2.392,4.201,2.392
	c2.917,0,3.414-1.533,4.203-2.392C36.203,25.927,33.691,25.191,32,25.692z"/>
<path id="Path_204_" fill="#FFFFFF" d="M28.428,26.104c1.775,1.489,5.359,1.499,7.145,0C33.682,26.185,30.334,26.186,28.428,26.104z
	"/>
<path fill="#E81C27" d="M32.018,15.699c-2.745,0.002-8.313-4.523-10.937,0.977c1.142,10.52,8.134,2.352,10.937,2.355
	c2.797,0.004,9.854,8.26,10.9-2.355C40.295,11.173,34.756,15.697,32.018,15.699z"/>
<path id="Path_86_" fill="#FFFFFF" d="M30.326,17.904c0.063,0.496-0.273,1.088-1.211,1.531c-0.594,0.281-1.834,0.611-3.458-0.073
	c-0.729-0.308-1.439-1.262-1.375-1.793C25.164,15.909,29.5,15.665,30.326,17.904z"/>
<linearGradient id="Oval_1_" gradientUnits="userSpaceOnUse" x1="-424.2549" y1="479.2852" x2="-424.2549" y2="479.8037" gradientTransform="matrix(6.5701 0 0 -6.5701 2814.7805 3168.5281)">
	<stop  offset="0" style="stop-color:#A6694A"/>
	<stop  offset="1" style="stop-color:#4F2A1E"/>
	<a:midPointStop  offset="0" style="stop-color:#A6694A"/>
	<a:midPointStop  offset="0.5" style="stop-color:#A6694A"/>
	<a:midPointStop  offset="1" style="stop-color:#4F2A1E"/>
</linearGradient>
<path id="Oval_14_" fill="url(#Oval_1_)" d="M27.381,16.166c0.943,0,1.705,0.764,1.705,1.703c0,0.941-0.762,1.703-1.705,1.703
	c-0.938,0-1.703-0.762-1.703-1.703C25.678,16.929,26.443,16.166,27.381,16.166z"/>
<path id="Path_85_" fill="#1A1626" d="M26.53,17.837c0,1.18,1.707,1.18,1.707,0C28.236,16.744,26.53,16.744,26.53,17.837z"/>
<path id="Path_84_" fill="#AB968C" d="M26.273,17.361c0,0.494,0.713,0.494,0.713,0C26.986,16.904,26.273,16.904,26.273,17.361z"/>
<path id="Path_83_" fill="#A3141B" d="M30.334,17.968c-0.691-2.225-5.411-1.896-6.052-0.399
	C24.521,15.654,29.744,15.149,30.334,17.968z"/>
<path id="Path_82_" fill="#FFFFFF" d="M33.676,17.904c-0.064,0.496,0.273,1.088,1.211,1.531c0.594,0.281,1.83,0.611,3.457-0.073
	c0.727-0.308,1.438-1.262,1.373-1.793C38.838,15.909,34.5,15.665,33.676,17.904z"/>
<linearGradient id="Oval_2_" gradientUnits="userSpaceOnUse" x1="-425.5542" y1="479.2852" x2="-425.5542" y2="479.8037" gradientTransform="matrix(6.5701 0 0 -6.5701 2832.511 3168.5281)">
	<stop  offset="0" style="stop-color:#A6694A"/>
	<stop  offset="1" style="stop-color:#4F2A1E"/>
	<a:midPointStop  offset="0" style="stop-color:#A6694A"/>
	<a:midPointStop  offset="0.5" style="stop-color:#A6694A"/>
	<a:midPointStop  offset="1" style="stop-color:#4F2A1E"/>
</linearGradient>
<circle id="Oval_13_" fill="url(#Oval_2_)" cx="36.58" cy="17.869" r="1.703"/>
<path id="Path_81_" fill="#1A1626" d="M35.727,17.837c0,1.18,1.705,1.18,1.705,0C37.432,16.744,35.727,16.744,35.727,17.837z"/>
<path id="Path_80_" fill="#AB968C" d="M35.469,17.361c0,0.494,0.713,0.494,0.713,0C36.182,16.904,35.469,16.904,35.469,17.361z"/>
<path id="Path_79_" fill="#A3141B" d="M33.666,17.968c0.693-2.221,5.404-1.904,6.051-0.399
	C39.477,15.654,34.256,15.149,33.666,17.968z"/>
<linearGradient id="SVGID_4_" gradientUnits="userSpaceOnUse" x1="31.8887" y1="19.6558" x2="31.8887" y2="1.9995">
	<stop  offset="0" style="stop-color:#473834"/>
	<stop  offset="0.2717" style="stop-color:#594640"/>
	<stop  offset="0.7226" style="stop-color:#715950"/>
	<stop  offset="1" style="stop-color:#7A6056"/>
	<a:midPointStop  offset="0" style="stop-color:#473834"/>
	<a:midPointStop  offset="0.4" style="stop-color:#473834"/>
	<a:midPointStop  offset="1" style="stop-color:#7A6056"/>
</linearGradient>
<path fill="url(#SVGID_4_)" d="M32.001,2c-4.581,0-6.87,2.075-7.333,3.06c-5.539,1.266-7.319,10.609-3.173,14.597
	c0.515-4.248,1.01-6.977,3.834-9.851c1.646,2.206,5.066,3.447,8.13,3.447c-1.45-1.054-2.438-2.086-3.215-3.049
	c5.114,2.348,10.843,3.851,12.264,9.452C47.429,11.819,43.341,2,32.001,2z"/>
<path fill="#473834" d="M24.654,5.058c-0.071,3.912,1.51,6.839,8.808,8.194C28.229,13.605,22.862,10.444,24.654,5.058z"/>
<path fill="#473834" d="M25.112,9.555c-1.905,1.878-4.043,5.132-3.638,10.101c0.379-4.106,2.266-7.488,3.974-9.679
	C25.328,9.845,25.215,9.705,25.112,9.555z"/>
<path fill="#473834" d="M28.379,8.315c3.826,3.653,13.23,3.416,14.149,11.34C40.074,11.948,31.76,13.677,28.379,8.315z"/>
</svg>
