<?xml version="1.0" encoding="utf-8"?>
<!-- Generator: Adobe Illustrator 15.0.0, SVG Export Plug-In . SVG Version: 6.00 Build 0)  -->
<!DOCTYPE svg PUBLIC "-//W3C//DTD SVG 1.1//EN" "http://www.w3.org/Graphics/SVG/1.1/DTD/svg11.dtd" [
	<!ENTITY ns_flows "http://ns.adobe.com/Flows/1.0/">
	<!ENTITY ns_extend "http://ns.adobe.com/Extensibility/1.0/">
	<!ENTITY ns_ai "http://ns.adobe.com/AdobeIllustrator/10.0/">
	<!ENTITY ns_graphs "http://ns.adobe.com/Graphs/1.0/">
]>
<svg version="1.1" id="Layer_1" xmlns:x="&ns_extend;" xmlns:i="&ns_ai;" xmlns:graph="&ns_graphs;"
	 xmlns="http://www.w3.org/2000/svg" xmlns:xlink="http://www.w3.org/1999/xlink" xmlns:a="http://ns.adobe.com/AdobeSVGViewerExtensions/3.0/"
	 x="0px" y="0px" width="64px" height="64px" viewBox="0 0 64 64" enable-background="new 0 0 64 64" xml:space="preserve">
<path fill="#F9B700" d="M22.232,22.072c7.651-0.299,6.745-9.184,0-9.783V22.072z"/>
<path fill="#F9B700" d="M2,29.857l59.993-11.779v33.74L2,62v-9.683c6.24,0,6.745-12.378,0-12.378V29.857z"/>
<path fill="#FFE12C" d="M2,29.857C2,28.959,16.395,17.68,16.395,17.68c5.437,3.094,10.973-1.497,5.838-5.391l5.135-4.092
	c2.113,0,19.226-2.496,34.023,10.281C61.391,18.578,2,30.756,2,29.857z"/>
<path fill="#F59E01" d="M61.993,18.079c-0.502-0.499-9.563-7.885-23.05-9.483c9.36,2.496,21.642,7.188,20.03,9.683
	c-0.401,0.699-16.609,3.694-16.609,4.193C43.774,22.371,62.397,19.676,61.993,18.079z"/>
<path fill="#F9B700" d="M42.466,13.387c-3.522-5.39-12.582-2.496-11.777,2.396L42.466,13.387z"/>
<path fill="#D99025" d="M42.466,13.387c-2.919-1.997-9.764-2.096-11.777,2.396C31.997,21.373,43.976,18.478,42.466,13.387z"/>
<path fill="#FFE12C" d="M19.112,41.637c4.328,8.086,13.388,2.694,11.878-4.891L19.112,41.637z"/>
<path fill="#D47706" d="M19.112,41.637c3.222,2.895,10.368,2.396,11.878-4.891C28.978,27.961,16.898,33.751,19.112,41.637z"/>
<path fill="#FFE12C" d="M45.888,36.246c5.234,7.887,14.195,2.096,11.98-5.49L45.888,36.246z"/>
<path fill="#D47706" d="M45.888,36.246c3.625,2.695,10.974,1.897,11.98-5.49C54.847,22.072,42.868,28.46,45.888,36.246z"/>
<path fill="#FFE12C" d="M47.095,46.428c0.807,7.886-7.851,9.283-10.366,3.295L47.095,46.428z"/>
<path fill="#D47706" d="M47.095,46.428c-0.904,3.793-5.938,7.387-10.366,3.295C34.111,42.635,44.982,39.84,47.095,46.428z"/>
<path fill="#FFE12C" d="M19.414,50.721c1.712,5.09-3.725,7.486-6.24,4.092L19.414,50.721z"/>
<path fill="#D47706" d="M19.414,50.721c0,2.595-2.718,5.89-6.24,4.092C10.255,50.621,16.999,46.728,19.414,50.721z"/>
<path fill="#F9B700" d="M21.227,22.471c-2.315-3.095-7.952-1.398-7.349,1.397L21.227,22.471z"/>
<path fill="#D99025" d="M21.227,22.471c-1.813-1.198-6.141-1.198-7.349,1.397C14.784,27.163,22.232,25.466,21.227,22.471z"/>
</svg>
