<?xml version="1.0" encoding="utf-8"?>
<!-- Generator: Adobe Illustrator 15.0.0, SVG Export Plug-In . SVG Version: 6.00 Build 0)  -->
<!DOCTYPE svg PUBLIC "-//W3C//DTD SVG 1.1//EN" "http://www.w3.org/Graphics/SVG/1.1/DTD/svg11.dtd" [
	<!ENTITY ns_flows "http://ns.adobe.com/Flows/1.0/">
	<!ENTITY ns_extend "http://ns.adobe.com/Extensibility/1.0/">
	<!ENTITY ns_ai "http://ns.adobe.com/AdobeIllustrator/10.0/">
	<!ENTITY ns_graphs "http://ns.adobe.com/Graphs/1.0/">
]>
<svg version="1.1" id="Layer_1" xmlns:x="&ns_extend;" xmlns:i="&ns_ai;" xmlns:graph="&ns_graphs;"
	 xmlns="http://www.w3.org/2000/svg" xmlns:xlink="http://www.w3.org/1999/xlink" xmlns:a="http://ns.adobe.com/AdobeSVGViewerExtensions/3.0/"
	 x="0px" y="0px" width="64px" height="64px" viewBox="0 0 64 64" enable-background="new 0 0 64 64" xml:space="preserve">
<path fill="#FAC150" d="M32.552,28.34c1.439-0.681,1.853,0.567,1.948,1.091c0.317,1.72,6.812-0.245,6.083-2.22
	c-0.636-1.717,0.214-3.769,0.214-3.769C39.835,22.897,36.323,16.751,32.552,28.34z"/>
<path fill="#FFCC66" d="M33.728,11.309c-4.375,0.693-5.982,3.792-5.277,7.443c0.159,0.825-0.377,2.238-1.435,3.145
	c-0.386,0.329-0.423,0.768-0.233,1.058c0.369,0.574,1.18,0.58,1.519,0.794c0.759,0.479,0,1.009,0.571,1.573
	c0.26,0.257,1.001-0.084,0.217,1.278c0.874,0.632-0.584,2.155,1.664,2.39c1.179,0.125,6.166-2.665,6.789-3.625
	c0.652-1.01,0.499-2.875,0.499-2.875c3.358-0.96,4.546-3.868,3.82-6.909C40.851,11.326,36.563,10.86,33.728,11.309z"/>
<path fill="#DB9D3A" d="M28.873,25.322c0.41,0.25,0.23,0.642,0.23,0.642c-0.197,0-0.248,0.647,0.046,0.647
	c1.026,0,1.966-0.873,2.274-1.4C29.818,25.131,28.056,24.413,28.873,25.322z"/>
<path fill="#FFFFFF" d="M28.873,25.322c0,0,0.157,0.556,0.23,0.642c0.321,0,1.367-0.229,2.012-0.65L28.873,25.322z"/>
<linearGradient id="SVGID_1_" gradientUnits="userSpaceOnUse" x1="28.3022" y1="15.9336" x2="40.5586" y2="15.9336">
	<stop  offset="0" style="stop-color:#473834"/>
	<stop  offset="0.0561" style="stop-color:#4B3B36"/>
	<stop  offset="0.6687" style="stop-color:#6D564D"/>
	<stop  offset="1" style="stop-color:#7A6056"/>
	<a:midPointStop  offset="0" style="stop-color:#473834"/>
	<a:midPointStop  offset="0.4303" style="stop-color:#473834"/>
	<a:midPointStop  offset="1" style="stop-color:#7A6056"/>
</linearGradient>
<path fill="url(#SVGID_1_)" d="M40.327,13.315c-3.11-4.639-11.368-1.83-11.951-0.696c-0.208,0.41,0.053,1.42,0.393,2.072
	c1.313,0,3.913-1.087,5.662-0.272c2.591,1.208-0.35,6.428,2.041,6.712C36.846,21.175,41.656,15.626,40.327,13.315z"/>
<linearGradient id="SVGID_2_" gradientUnits="userSpaceOnUse" x1="28.3765" y1="17.3447" x2="43.5" y2="17.3447">
	<stop  offset="0" style="stop-color:#7A6056"/>
	<stop  offset="0.3119" style="stop-color:#775D54"/>
	<stop  offset="0.5686" style="stop-color:#6D554D"/>
	<stop  offset="0.8048" style="stop-color:#5B4842"/>
	<stop  offset="1" style="stop-color:#473834"/>
	<a:midPointStop  offset="0" style="stop-color:#7A6056"/>
	<a:midPointStop  offset="0.7455" style="stop-color:#7A6056"/>
	<a:midPointStop  offset="1" style="stop-color:#473834"/>
</linearGradient>
<path fill="url(#SVGID_2_)" d="M42.413,13.234c-0.889-1.493-2.689-3.245-6.775-3.234c-3.689,0.008-6.678,1.485-7.261,2.62
	c1.355,0,5.47-1.713,7.621-0.12c3.347,2.479,0.43,5.848,1.22,7.964c1.233,3.313,3.233,4.226,3.233,4.226
	C43.019,22.85,44.719,17.093,42.413,13.234z"/>
<path fill="#DB9D3A" d="M26.792,22.96c0.303,0.799,2.242,0.972,2.861,0C28.632,23.692,26.617,22.495,26.792,22.96z"/>
<path fill="#FFCC66" d="M38.056,18.447c-1.634,0.336-2.143,3.992-0.919,4.786c0.171,0.112,1.065,0.21,1.538-0.686
	c0.262-0.496,1.201-1,1.332-1.972C40.174,19.329,39.68,18.114,38.056,18.447z"/>
<path id="Path_462_" fill="#DB9D3A" d="M38.142,19.125c-0.415,0.141-0.805,0.615-0.925,1.338c1.472-0.396,1.404,1.244,0.097,1.438
	c0.042,0.159,0.092,0.321,0.156,0.489c0.521-0.659,1.209-0.507,1.676-1.451C39.567,20.09,39.171,18.779,38.142,19.125z"/>
<path fill="#FFFFFF" d="M32.038,19.844c0.023,0.234-0.723,1.077-1.673,1.157c-0.541,0.045-0.734-0.371-0.856-0.817
	C29.392,18.404,31.504,19.037,32.038,19.844z"/>
<linearGradient id="Path_1_" gradientUnits="userSpaceOnUse" x1="30.229" y1="20.9287" x2="30.229" y2="19.0547">
	<stop  offset="0" style="stop-color:#A6694A"/>
	<stop  offset="1" style="stop-color:#4F2A1E"/>
	<a:midPointStop  offset="0" style="stop-color:#A6694A"/>
	<a:midPointStop  offset="0.5" style="stop-color:#A6694A"/>
	<a:midPointStop  offset="1" style="stop-color:#4F2A1E"/>
</linearGradient>
<path id="Path_461_" fill="url(#Path_1_)" d="M29.472,19.958c0,1.295,1.514,1.295,1.514,0
	C30.986,18.754,29.472,18.754,29.472,19.958z"/>
<path id="Path_460_" fill="#1A1626" d="M29.63,19.9c0,0.647,0.754,0.647,0.754,0C30.384,19.297,29.63,19.297,29.63,19.9z"/>
<path id="Path_354_" fill="#AB968C" d="M30.097,19.637c0,0.271,0.439,0.271,0.439,0C30.537,19.384,30.097,19.384,30.097,19.637z"/>
<path fill="#DB9D3A" d="M32.038,19.844c-0.406-0.808-2.435-1.395-2.489-0.305C29.833,18.807,31.337,19.208,32.038,19.844z"/>
<path id="Path_353_" fill="#966F42" d="M32.426,18.005c-0.931-0.576-2.712-0.605-3.374-0.203c-0.145,0.077-0.051,0.622,0.068,0.57
	c0.926-0.427,2.418-0.436,3.283,0.038C32.52,18.47,32.567,18.084,32.426,18.005z"/>
<path fill="#6E8189" d="M46.947,61.82c0,0,0.462,0.242,0.552-0.244c-1.425-5.605-11.563-8.9-11.563-8.9
	c-0.365,0.078-0.519,0.49-0.519,0.49L46.947,61.82z"/>
<path fill="#99A8AE" d="M38.969,59.965c2.395,1.186,6.71,2.523,7.979,1.855c-1.516-5.354-11.529-8.654-11.529-8.654
	C31.72,56.805,37.835,59.404,38.969,59.965z"/>
<path fill="#1A1626" d="M42.835,61.443c-0.345-1.756-0.916-2.461-1.461-1.791c-0.352-1.008-1.001-0.869-1.277-0.439
	c-0.52-0.863-1.216-0.367-0.844,1.01C39.489,60.988,42.933,61.92,42.835,61.443z"/>
<path fill="#302C3B" d="M41.607,48.391c0,0-4.855-4.68-9.792-0.715c-4.529,2.49-11.211,5.639-14.432,8.34
	c-2.179,1.83-0.007,5.625,3.009,5.92c2.417,0.236,8.924-0.123,18.828-1.85c0,0-2.553-1.637-3.367-3.885
	C41.288,55.828,44.616,54.701,41.607,48.391z"/>
<path fill="#1A1626" d="M42.437,53.777c-3.914,3.631-12.3,1.451-16.848,3.346C31.007,56.58,40.718,57.676,42.437,53.777z"/>
<path fill="#3AB0A2" d="M42.544,50.521c0,0-4.709-3.76-10.728-2.846c0.303-9.48-1.029-12.953,2.552-18.703
	c0.833,2.851,3.218-1.784,6.215-1.762C44.323,31.539,40.208,39.611,42.544,50.521z"/>
<path fill="#FFCC66" d="M38.04,42.193c0.211-0.59,1.849-3.004,2.266-5.391c-1.479-0.35-2.961-0.66-4.438-0.914
	c-0.114,1.98-0.778,2.893-1.63,5.275c-1.682,2.375-3.557,5.158-5.962,7.584c-0.158,0.16-2.279,0.656-2.65,0.859
	c-0.459,0.252-1.472,0.775-1.528,1.346c-0.635,1.219,1.714,0.408,3.448,0.371c1.807-0.039,2.563-0.547,2.7-0.865
	C31.05,48.588,37.669,43.23,38.04,42.193z"/>
<path fill="#DB9D3A" d="M26.131,49.775c-1.77,0.258-2.035,1.178-2.035,1.178S24.51,50.236,26.131,49.775z"/>
<path fill="#DB9D3A" d="M26.568,50.42c-2.812,0.467-2.471,1.09-2.471,1.09S24.097,50.953,26.568,50.42z"/>
<path fill="#25A898" d="M40.237,38.852c0.398-1.977,1.149-4.527,1.5-7.475c0.381-3.174-4.33-3.833-5.088-0.711
	c-0.412,1.695-1.12,3.991-1.411,7.374C36.903,38.158,38.582,38.432,40.237,38.852z"/>
</svg>
