<?xml version="1.0" encoding="utf-8"?>
<!-- Generator: Adobe Illustrator 15.0.0, SVG Export Plug-In . SVG Version: 6.00 Build 0)  -->
<!DOCTYPE svg PUBLIC "-//W3C//DTD SVG 1.1//EN" "http://www.w3.org/Graphics/SVG/1.1/DTD/svg11.dtd" [
	<!ENTITY ns_flows "http://ns.adobe.com/Flows/1.0/">
	<!ENTITY ns_extend "http://ns.adobe.com/Extensibility/1.0/">
	<!ENTITY ns_ai "http://ns.adobe.com/AdobeIllustrator/10.0/">
	<!ENTITY ns_graphs "http://ns.adobe.com/Graphs/1.0/">
]>
<svg version="1.1" id="Layer_1" xmlns:x="&ns_extend;" xmlns:i="&ns_ai;" xmlns:graph="&ns_graphs;"
	 xmlns="http://www.w3.org/2000/svg" xmlns:xlink="http://www.w3.org/1999/xlink" xmlns:a="http://ns.adobe.com/AdobeSVGViewerExtensions/3.0/"
	 x="0px" y="0px" width="64px" height="64px" viewBox="0 0 64 64" enable-background="new 0 0 64 64" xml:space="preserve">
<path fill="#7A3B0F" d="M46.038,54.39c-0.899,2.555-0.857,4.806-0.857,4.806c-1.739-0.051-3.232-0.445-4.339-0.851
	c-0.062,1.364-0.749,2.426-0.749,2.426c-0.701-0.322-1.101-0.629-1.313-0.912c-0.633,1.123-1.52,1.79-1.52,1.79
	c-0.333-1.083-1.46-2.457-3.17-3.558L46.038,54.39z"/>
<path fill="#A6561C" d="M17.745,3.703c0.708,0.366,1.618,3.37,2.513,3.131c-1.549-1.744-1.048-4.677-1.048-4.677
	c0.361,0.441,2.317,2.177,2.471,2.487C21.655,3.672,21.604,2,21.604,2c0.799,2.203,4.106,6.539,6.224,7.546l-9.445,3.451
	C17.412,9.371,17.745,3.703,17.745,3.703z"/>
<radialGradient id="SVGID_1_" cx="214.7295" cy="38.7168" r="7.4082" gradientTransform="matrix(0.9084 -0.3319 0.6335 1.7474 -198.215 11.4952)" gradientUnits="userSpaceOnUse">
	<stop  offset="0" style="stop-color:#FFC042"/>
	<stop  offset="0.2705" style="stop-color:#F5AE3D"/>
	<stop  offset="0.8099" style="stop-color:#D9802E"/>
	<stop  offset="1" style="stop-color:#CF6E29"/>
	<a:midPointStop  offset="0" style="stop-color:#FFC042"/>
	<a:midPointStop  offset="0.5515" style="stop-color:#FFC042"/>
	<a:midPointStop  offset="1" style="stop-color:#CF6E29"/>
</radialGradient>
<path fill="url(#SVGID_1_)" d="M22.942,2.056c-0.898,2.104,0.469,3.958,0.071,5.569c-1.353-0.801-2.937-5.017-2.937-5.017
	c-0.091,0.606-1.223,3.739,0.061,6.548c-2.34,0.044-3.2-3.936-3.2-3.936c-1.1,4.471,0.959,6.294-2.795,11.036l18.033-6.87
	C24.103,9.995,25.466,5.405,22.942,2.056z"/>
<path fill="#A6561C" d="M31.128,59.288C33.842,60.443,35.229,62,35.229,62c2.059-1.155,3.604-2.387,4.674-3.373
	c0.945,0.887,2.451,1.166,2.451,1.166c0.637-0.671,0.92-1.139,0.994-1.467c1.479,0.355,2.972,0.238,2.972,0.238
	c-0.292-0.95,0.186-2.61,1.537-4.46L31.128,59.288z"/>
<radialGradient id="SVGID_2_" cx="212.7021" cy="68.4131" r="34.0319" gradientTransform="matrix(0.9084 -0.3319 0.3199 0.8825 -188.4323 38.4758)" gradientUnits="userSpaceOnUse">
	<stop  offset="0" style="stop-color:#FFD073"/>
	<stop  offset="0.1782" style="stop-color:#FCCB6F"/>
	<stop  offset="0.3943" style="stop-color:#F5BC64"/>
	<stop  offset="0.63" style="stop-color:#E9A451"/>
	<stop  offset="0.8782" style="stop-color:#D98238"/>
	<stop  offset="1" style="stop-color:#CF6E29"/>
	<a:midPointStop  offset="0" style="stop-color:#FFD073"/>
	<a:midPointStop  offset="0.6667" style="stop-color:#FFD073"/>
	<a:midPointStop  offset="1" style="stop-color:#CF6E29"/>
</radialGradient>
<path fill="url(#SVGID_2_)" d="M60.408,29.676c3.259,13.765-7.411,23.578-20.633,28.409c-13.222,4.83-27.678,4.201-33.996-8.448
	c-8.116-16.25,2.749-33.26,16.988-38.462C37.007,5.972,56.22,11.991,60.408,29.676z"/>
<linearGradient id="SVGID_3_" gradientUnits="userSpaceOnUse" x1="207.9688" y1="117.5996" x2="207.9688" y2="48.0324" gradientTransform="matrix(0.9397 -0.342 0.342 0.9397 -192.4157 28.1088)">
	<stop  offset="0" style="stop-color:#A34B2F"/>
	<stop  offset="1" style="stop-color:#A34B2F;stop-opacity:0"/>
	<a:midPointStop  offset="0" style="stop-color:#A34B2F"/>
	<a:midPointStop  offset="0.3" style="stop-color:#A34B2F"/>
	<a:midPointStop  offset="1" style="stop-color:#A34B2F;stop-opacity:0"/>
</linearGradient>
<path opacity="0.6" fill="url(#SVGID_3_)" d="M23.351,13c4.092,14.956,9.364,29.038,15.916,44.27
	C35.116,41.055,27.308,20.026,23.351,13z"/>
<linearGradient id="SVGID_4_" gradientUnits="userSpaceOnUse" x1="222.25" y1="117.5869" x2="222.25" y2="48.0166" gradientTransform="matrix(0.9397 -0.342 0.342 0.9397 -192.4157 28.1088)">
	<stop  offset="0" style="stop-color:#A34B2F"/>
	<stop  offset="1" style="stop-color:#A34B2F;stop-opacity:0"/>
	<a:midPointStop  offset="0" style="stop-color:#A34B2F"/>
	<a:midPointStop  offset="0.3" style="stop-color:#A34B2F"/>
	<a:midPointStop  offset="1" style="stop-color:#A34B2F;stop-opacity:0"/>
</linearGradient>
<path opacity="0.6" fill="url(#SVGID_4_)" d="M33.932,10.134C45.719,20.315,52.415,36.97,48.922,52.74
	C54.106,38.577,48.878,20.913,33.932,10.134z"/>
<linearGradient id="SVGID_5_" gradientUnits="userSpaceOnUse" x1="215.4648" y1="117.5928" x2="215.4648" y2="48.024" gradientTransform="matrix(0.9397 -0.342 0.342 0.9397 -192.4157 28.1088)">
	<stop  offset="0" style="stop-color:#A34B2F"/>
	<stop  offset="1" style="stop-color:#A34B2F;stop-opacity:0"/>
	<a:midPointStop  offset="0" style="stop-color:#A34B2F"/>
	<a:midPointStop  offset="0.3" style="stop-color:#A34B2F"/>
	<a:midPointStop  offset="1" style="stop-color:#A34B2F;stop-opacity:0"/>
</linearGradient>
<path opacity="0.6" fill="url(#SVGID_5_)" d="M28.585,12.087c9.246,12.001,14.302,27.467,15.329,42.482
	C44.798,39.486,40.22,24.104,28.585,12.087z"/>
<linearGradient id="SVGID_6_" gradientUnits="userSpaceOnUse" x1="230.0098" y1="117.5762" x2="230.0098" y2="48.006" gradientTransform="matrix(0.9397 -0.342 0.342 0.9397 -192.4157 28.1088)">
	<stop  offset="0" style="stop-color:#A34B2F"/>
	<stop  offset="1" style="stop-color:#A34B2F;stop-opacity:0"/>
	<a:midPointStop  offset="0" style="stop-color:#A34B2F"/>
	<a:midPointStop  offset="0.3" style="stop-color:#A34B2F"/>
	<a:midPointStop  offset="1" style="stop-color:#A34B2F;stop-opacity:0"/>
</linearGradient>
<path opacity="0.6" fill="url(#SVGID_6_)" d="M43.724,12.566c8.881,8.29,12.453,19.968,11.469,31.872
	C58.379,32.205,55.342,20.522,43.724,12.566z"/>
<linearGradient id="SVGID_7_" gradientUnits="userSpaceOnUse" x1="193.6826" y1="117.6123" x2="193.6826" y2="48.0435" gradientTransform="matrix(0.9397 -0.342 0.342 0.9397 -192.4157 28.1088)">
	<stop  offset="0" style="stop-color:#A34B2F"/>
	<stop  offset="1" style="stop-color:#A34B2F;stop-opacity:0"/>
	<a:midPointStop  offset="0" style="stop-color:#A34B2F"/>
	<a:midPointStop  offset="0.3" style="stop-color:#A34B2F"/>
	<a:midPointStop  offset="1" style="stop-color:#A34B2F;stop-opacity:0"/>
</linearGradient>
<path opacity="0.6" fill="url(#SVGID_7_)" d="M28.942,60.039C17.155,49.858,10.459,33.203,13.953,17.434
	C8.768,31.596,13.996,49.26,28.942,60.039z"/>
<linearGradient id="SVGID_8_" gradientUnits="userSpaceOnUse" x1="200.4688" y1="117.6055" x2="200.4688" y2="48.0382" gradientTransform="matrix(0.9397 -0.342 0.342 0.9397 -192.4157 28.1088)">
	<stop  offset="0" style="stop-color:#A34B2F"/>
	<stop  offset="1" style="stop-color:#A34B2F;stop-opacity:0"/>
	<a:midPointStop  offset="0" style="stop-color:#A34B2F"/>
	<a:midPointStop  offset="0.3" style="stop-color:#A34B2F"/>
	<a:midPointStop  offset="1" style="stop-color:#A34B2F;stop-opacity:0"/>
</linearGradient>
<path opacity="0.6" fill="url(#SVGID_8_)" d="M34.29,58.086c-9.247-12.003-14.303-27.468-15.329-42.481
	C18.074,30.685,22.655,46.067,34.29,58.086z"/>
<linearGradient id="SVGID_9_" gradientUnits="userSpaceOnUse" x1="185.9238" y1="117.6221" x2="185.9238" y2="48.0559" gradientTransform="matrix(0.9397 -0.342 0.342 0.9397 -192.4157 28.1088)">
	<stop  offset="0" style="stop-color:#A34B2F"/>
	<stop  offset="1" style="stop-color:#A34B2F;stop-opacity:0"/>
	<a:midPointStop  offset="0" style="stop-color:#A34B2F"/>
	<a:midPointStop  offset="0.3" style="stop-color:#A34B2F"/>
	<a:midPointStop  offset="1" style="stop-color:#A34B2F;stop-opacity:0"/>
</linearGradient>
<path opacity="0.6" fill="url(#SVGID_9_)" d="M19.149,57.607c-8.88-8.292-12.453-19.971-11.466-31.872
	C4.495,37.968,7.532,49.649,19.149,57.607z"/>
<radialGradient id="SVGID_10_" cx="207.6631" cy="68.4111" r="20.231" gradientTransform="matrix(0.7442 -0.6137 0.4279 0.501 -161.7201 123.0909)" gradientUnits="userSpaceOnUse">
	<stop  offset="0" style="stop-color:#FDEB99;stop-opacity:0.9"/>
	<stop  offset="1" style="stop-color:#FDEB99;stop-opacity:0"/>
	<a:midPointStop  offset="0" style="stop-color:#FDEB99;stop-opacity:0.9"/>
	<a:midPointStop  offset="0.4485" style="stop-color:#FDEB99;stop-opacity:0.9"/>
	<a:midPointStop  offset="1" style="stop-color:#FDEB99;stop-opacity:0"/>
</radialGradient>
<path fill="url(#SVGID_10_)" d="M11.233,20.052C-4.162,34.799,6.748,61.998,34.331,37.964C56.079,19.01,30.241,1.843,11.233,20.052z
	"/>
<radialGradient id="SVGID_11_" cx="224.8926" cy="92.0996" r="14.6101" gradientTransform="matrix(-0.733 0.6266 -0.3748 -0.4227 244.6792 -56.8723)" gradientUnits="userSpaceOnUse">
	<stop  offset="0" style="stop-color:#FDEB99;stop-opacity:0.9"/>
	<stop  offset="1" style="stop-color:#FDEB99;stop-opacity:0"/>
	<a:midPointStop  offset="0" style="stop-color:#FDEB99;stop-opacity:0.9"/>
	<a:midPointStop  offset="0.4485" style="stop-color:#FDEB99;stop-opacity:0.9"/>
	<a:midPointStop  offset="1" style="stop-color:#FDEB99;stop-opacity:0"/>
</radialGradient>
<path opacity="0.7" fill="url(#SVGID_11_)" d="M36.741,39.71c-19.824,16.144,0.94,29.075,19.348,5.718
	C61.097,39.068,59.698,21.018,36.741,39.71z"/>
</svg>
