<?xml version="1.0" encoding="utf-8"?>
<!-- Generator: Adobe Illustrator 15.0.0, SVG Export Plug-In . SVG Version: 6.00 Build 0)  -->
<!DOCTYPE svg PUBLIC "-//W3C//DTD SVG 1.1//EN" "http://www.w3.org/Graphics/SVG/1.1/DTD/svg11.dtd" [
	<!ENTITY ns_flows "http://ns.adobe.com/Flows/1.0/">
	<!ENTITY ns_extend "http://ns.adobe.com/Extensibility/1.0/">
	<!ENTITY ns_ai "http://ns.adobe.com/AdobeIllustrator/10.0/">
	<!ENTITY ns_graphs "http://ns.adobe.com/Graphs/1.0/">
]>
<svg version="1.1" id="Layer_1" xmlns:x="&ns_extend;" xmlns:i="&ns_ai;" xmlns:graph="&ns_graphs;"
	 xmlns="http://www.w3.org/2000/svg" xmlns:xlink="http://www.w3.org/1999/xlink" xmlns:a="http://ns.adobe.com/AdobeSVGViewerExtensions/3.0/"
	 x="0px" y="0px" width="64px" height="64px" viewBox="0 0 64 64" enable-background="new 0 0 64 64" xml:space="preserve">
<path fill="#EBC199" d="M25.359,28.034c-0.734-1.438-2.797-1.438-2.797-1.438c-0.984,3.016-1.541,8.407-1.551,9.146
	c-0.009,0.718-0.682,2.729-0.471,3.223c0.896,2.094,0.811,2.356,1.909,3.135c0.832,0.589,0.571-0.167,0.194-0.565
	c-0.584-0.617-0.955-2.036-0.189-2.168c0.098,1.583,1.144,1.882,1.066,1.295c-0.201-1.514,0.001-2.432-0.682-3.245
	c-0.275-0.329-0.295-2.397,0.975-5.188C24.585,30.531,25.031,29.409,25.359,28.034z"/>
<path fill="#EBC199" d="M38.643,28.034c0.734-1.438,2.797-1.438,2.797-1.438c0.984,3.016,1.539,8.407,1.549,9.146
	c0.01,0.718,0.683,2.729,0.471,3.223c-0.896,2.094-0.811,2.356-1.908,3.135c-0.832,0.589-0.572-0.167-0.194-0.565
	c0.583-0.617,0.955-2.036,0.189-2.168c-0.099,1.583-1.144,1.882-1.066,1.295c0.201-1.514-0.001-2.432,0.682-3.245
	c0.275-0.329,0.295-2.397-0.974-5.188C39.416,30.531,38.971,29.409,38.643,28.034z"/>
<path fill="#302C3B" d="M37.609,33.957H26.393c-0.979,5.166-0.256,12.302-1.488,24.896c-0.156,1.586,5.654,1.596,5.604,0
	c-0.242-7.347,0.445-12.938,0.938-17.416c0.037-0.334,1.072-0.334,1.109,0c0.492,4.478,1.182,10.069,0.939,17.416
	c-0.053,1.596,5.76,1.586,5.604,0C37.865,46.259,38.588,39.123,37.609,33.957z"/>
<path fill="#3AB0A2" d="M39.037,19.847c-0.906-1.135-4.635-2.271-4.635-2.271H29.6c0,0-3.73,1.137-4.635,2.271
	c-0.793,0.992-2.32,5.816-2.658,6.982c0.045,0.055,1.227,0.112,3.287,1.702c0,0,0.641-1.935,0.891-2.447
	c0.588,3.813-0.297,7.448-0.092,7.873c0.584,1.213,10.625,1.227,11.217,0c0.205-0.425-0.68-4.06-0.094-7.873
	c0.252,0.513,0.893,2.447,0.893,2.447c2.061-1.59,3.242-1.647,3.287-1.702C41.357,25.663,39.83,20.839,39.037,19.847z"/>
<path fill="#6E8189" d="M24.646,61.602c0.184,0.452,5.762,0.637,5.971-0.084C31.426,58.725,23.736,59.372,24.646,61.602z"/>
<path fill="#99A8AE" d="M24.727,61.053c0.041,0.392,5.834,0.597,5.896,0C31.119,56.3,24.273,56.696,24.727,61.053z"/>
<path fill="#1A1626" d="M29.883,58.226c-0.645-1.102-3.703-1.096-4.344,0c-0.117,0.192-0.316,0.716,0.457,0.286
	c-0.768,0.602-0.768,1.127,0,0.678c-0.773,0.578-0.574,0.943-0.457,0.896c1.176-0.582,3.166-0.582,4.344,0
	c0.119,0.047,0.316-0.318-0.457-0.896c0.768,0.449,0.768-0.076,0-0.678C30.199,58.941,30.002,58.418,29.883,58.226z"/>
<path fill="#6E8189" d="M39.355,61.602c-0.184,0.452-5.762,0.637-5.971-0.084C32.576,58.725,40.266,59.372,39.355,61.602z"/>
<path fill="#99A8AE" d="M39.275,61.053c-0.041,0.392-5.834,0.597-5.896,0C32.883,56.3,39.727,56.696,39.275,61.053z"/>
<path fill="#1A1626" d="M34.119,58.226c0.645-1.102,3.701-1.096,4.344,0c0.117,0.192,0.316,0.716-0.457,0.286
	c0.768,0.602,0.768,1.127,0,0.678c0.773,0.578,0.574,0.943,0.457,0.896c-1.178-0.582-3.166-0.582-4.344,0
	c-0.119,0.047-0.316-0.318,0.457-0.896c-0.768,0.449-0.768-0.076,0-0.678C33.803,58.941,34,58.418,34.119,58.226z"/>
<path fill="#2B998D" d="M28.719,17.874c0,2.926,6.563,2.92,6.563-0.005l-0.59-0.212h-5.346L28.719,17.874z"/>
<path fill="#C99B71" d="M29.25,17.906c0,2.175,5.5,2.175,5.5,0c0-0.74,0-2.406,0-2.406h-5.5C29.25,15.5,29.25,17.166,29.25,17.906z"
	/>
<path id="Path_1494_" fill="#EBC199" d="M38.131,9.243c-0.949,0.114-1.635,3.293-1.037,4.131c0.083,0.118,0.572,0.305,0.934-0.436
	c0.202-0.409,0.781-0.752,0.961-1.598C39.219,10.258,39.074,9.129,38.131,9.243z"/>
<path id="Path_1493_" fill="#EBC199" d="M25.871,9.243c0.949,0.114,1.634,3.293,1.037,4.131c-0.084,0.118-0.573,0.305-0.936-0.436
	c-0.201-0.409-0.779-0.752-0.959-1.598C24.783,10.258,24.928,9.129,25.871,9.243z"/>
<path id="Path_1492_" fill="#C99B71" d="M38.105,9.853c-0.248,0.078-0.519,0.455-0.664,1.081c0.865-0.186,0.648,1.257-0.104,1.284
	c0.006,0.144,0.016,0.293,0.033,0.45c0.363-0.526,0.73-0.314,1.096-1.098C38.796,10.864,38.717,9.66,38.105,9.853z"/>
<path id="Path_1491_" fill="#C99B71" d="M26.561,10.932c-0.146-0.624-0.416-1.002-0.663-1.079c-0.613-0.192-0.692,1.012-0.363,1.718
	c0.364,0.783,0.732,0.571,1.096,1.098c0.018-0.157,0.027-0.307,0.034-0.451C25.919,12.182,25.707,10.757,26.561,10.932z"/>
<path id="Path_1490_" fill="#EBC199" d="M32,3.133c-4.11,0-6.092,3.111-5.844,7.437c0.05,0.87,0.59,3.709,1.098,4.727
	c0.522,1.042,2.266,2.648,3.334,2.981c0.674,0.209,2.151,0.209,2.826,0c1.068-0.333,2.812-1.939,3.332-2.981
	c0.51-1.018,1.049-3.855,1.099-4.727C38.094,6.244,36.113,3.133,32,3.133z"/>
<path id="Path_1489_" fill="#A17C5B" d="M36.467,8.926c-0.939-0.498-2.739-0.522-3.41-0.175c-0.143,0.066-0.047,0.538,0.072,0.494
	c0.936-0.37,2.441-0.378,3.316,0.031C36.563,9.329,36.611,8.995,36.467,8.926z"/>
<path id="Path_1488_" fill="#A17C5B" d="M27.533,8.926c0.94-0.498,2.739-0.522,3.41-0.175c0.144,0.066,0.049,0.538-0.072,0.494
	c-0.936-0.37-2.439-0.378-3.316,0.031C27.439,9.329,27.392,8.995,27.533,8.926z"/>
<path id="Path_1487_" fill="#C99B71" d="M33.11,13.246c-0.117-0.082-0.394,0.043-1.11,0.043c-0.715,0-0.992-0.125-1.109-0.043
	c-0.141,0.099,0.084,0.546,1.109,0.546C33.027,13.792,33.252,13.345,33.11,13.246z"/>
<path id="Path_1486_" fill="#C99B71" d="M32,14.94c-0.924-0.272-2.295,0.129-2.295,0.129c0.521,0.568,0.904,1.306,2.295,1.306
	c1.594,0,1.865-0.837,2.297-1.306C34.297,15.069,32.924,14.666,32,14.94z"/>
<path id="Path_1485_" fill="#FFFFFF" d="M30.05,15.165c0.97,0.813,2.927,0.819,3.901,0C32.919,15.209,31.09,15.21,30.05,15.165z"/>
<path id="Path_1484_" fill="#FFFFFF" d="M31.086,10.623c0.035,0.271-0.15,0.594-0.662,0.836c-0.324,0.154-1,0.335-1.888-0.039
	c-0.399-0.168-0.786-0.691-0.751-0.979C28.266,9.532,30.635,9.399,31.086,10.623z"/>
<linearGradient id="Oval_1_" gradientUnits="userSpaceOnUse" x1="-423.936" y1="480.5088" x2="-423.936" y2="480.792" gradientTransform="matrix(6.5701 0 0 -6.5701 2814.7805 3168.5281)">
	<stop  offset="0" style="stop-color:#A6694A"/>
	<stop  offset="1" style="stop-color:#4F2A1E"/>
	<a:midPointStop  offset="0" style="stop-color:#A6694A"/>
	<a:midPointStop  offset="0.5" style="stop-color:#A6694A"/>
	<a:midPointStop  offset="1" style="stop-color:#4F2A1E"/>
</linearGradient>
<circle id="Oval_122_" fill="url(#Oval_1_)" cx="29.479" cy="10.604" r="0.931"/>
<path id="Path_1483_" fill="#1A1626" d="M29.014,10.588c0,0.643,0.93,0.643,0.93,0C29.943,9.99,29.014,9.99,29.014,10.588z"/>
<path id="Path_1482_" fill="#AB968C" d="M28.871,10.327c0,0.27,0.391,0.27,0.391,0C29.262,10.076,28.871,10.076,28.871,10.327z"/>
<path id="Path_1481_" fill="#C99B71" d="M31.09,10.659c-0.377-1.215-2.955-1.036-3.305-0.219
	C27.915,9.395,30.768,9.118,31.09,10.659z"/>
<path id="Path_1480_" fill="#FFFFFF" d="M32.915,10.623c-0.034,0.271,0.149,0.594,0.661,0.836c0.325,0.154,1,0.335,1.889-0.039
	c0.399-0.168,0.786-0.691,0.752-0.979C35.735,9.532,33.366,9.399,32.915,10.623z"/>
<linearGradient id="Oval_2_" gradientUnits="userSpaceOnUse" x1="-425.8701" y1="480.5088" x2="-425.8701" y2="480.792" gradientTransform="matrix(6.5701 0 0 -6.5701 2832.511 3168.5281)">
	<stop  offset="0" style="stop-color:#A6694A"/>
	<stop  offset="1" style="stop-color:#4F2A1E"/>
	<a:midPointStop  offset="0" style="stop-color:#A6694A"/>
	<a:midPointStop  offset="0.5" style="stop-color:#A6694A"/>
	<a:midPointStop  offset="1" style="stop-color:#4F2A1E"/>
</linearGradient>
<circle id="Oval_121_" fill="url(#Oval_2_)" cx="34.502" cy="10.604" r="0.931"/>
<path id="Path_1479_" fill="#1A1626" d="M34.037,10.588c0,0.643,0.932,0.643,0.932,0C34.969,9.99,34.037,9.99,34.037,10.588z"/>
<path id="Path_1478_" fill="#AB968C" d="M33.895,10.327c0,0.27,0.391,0.27,0.391,0C34.285,10.076,33.895,10.076,33.895,10.327z"/>
<path id="Path_1477_" fill="#C99B71" d="M32.912,10.659c0.377-1.215,2.952-1.041,3.305-0.219
	C36.086,9.395,33.233,9.118,32.912,10.659z"/>
<path fill="#E3BE86" d="M37.252,4.164C36.352,2.946,34.705,2,32,2c-2.703,0-4.35,0.946-5.25,2.164
	C25.477,5.888,38.525,5.888,37.252,4.164z"/>
<linearGradient id="SVGID_1_" gradientUnits="userSpaceOnUse" x1="32.0005" y1="11.6338" x2="32.0005" y2="3.6484">
	<stop  offset="0.5" style="stop-color:#BA9757"/>
	<stop  offset="0.6473" style="stop-color:#C29E60"/>
	<stop  offset="0.8867" style="stop-color:#D7B378"/>
	<stop  offset="1" style="stop-color:#E3BE86"/>
	<a:midPointStop  offset="0.5" style="stop-color:#BA9757"/>
	<a:midPointStop  offset="0.6" style="stop-color:#BA9757"/>
	<a:midPointStop  offset="1" style="stop-color:#E3BE86"/>
</linearGradient>
<path fill="url(#SVGID_1_)" d="M37.252,4.164c-0.9-1.218-2.547,0.104-5.252,0.104c-2.703,0-4.35-1.321-5.25-0.104
	c-1.273,1.724-0.842,7.47-0.275,7.47c0.091,0,0.104-2.011,0.275-3.4c0.139-1.132,0.408-2.229,0.717-2.408
	C28.41,5.277,30.231,6.061,32,6.061c1.77,0,3.591-0.783,4.534-0.235c0.31,0.179,0.577,1.276,0.718,2.408
	c0.171,1.39,0.184,3.4,0.274,3.4C38.093,11.634,38.525,5.888,37.252,4.164z"/>
</svg>
