<?xml version="1.0" encoding="utf-8"?>
<!-- Generator: Adobe Illustrator 15.0.0, SVG Export Plug-In . SVG Version: 6.00 Build 0)  -->
<!DOCTYPE svg PUBLIC "-//W3C//DTD SVG 1.1//EN" "http://www.w3.org/Graphics/SVG/1.1/DTD/svg11.dtd" [
	<!ENTITY ns_flows "http://ns.adobe.com/Flows/1.0/">
	<!ENTITY ns_extend "http://ns.adobe.com/Extensibility/1.0/">
	<!ENTITY ns_ai "http://ns.adobe.com/AdobeIllustrator/10.0/">
	<!ENTITY ns_graphs "http://ns.adobe.com/Graphs/1.0/">
]>
<svg version="1.1" id="Layer_1" xmlns:x="&ns_extend;" xmlns:i="&ns_ai;" xmlns:graph="&ns_graphs;"
	 xmlns="http://www.w3.org/2000/svg" xmlns:xlink="http://www.w3.org/1999/xlink" xmlns:a="http://ns.adobe.com/AdobeSVGViewerExtensions/3.0/"
	 x="0px" y="0px" width="64px" height="64px" viewBox="0 0 64 64" enable-background="new 0 0 64 64" xml:space="preserve">
<path fill="#FAC150" d="M32.557,28.34c1.439-0.681,1.852,0.568,1.948,1.091c0.317,1.719,6.813-0.245,6.081-2.219
	c-0.635-1.718,0.215-3.77,0.215-3.77C39.84,22.896,36.327,16.752,32.557,28.34z"/>
<path fill="#7A6056" d="M28.051,19.825c0.561-3.285,4.331-4.153,3.068-7.271C27.103,13.489,26.742,16.693,28.051,19.825z"/>
<path fill="#FFCC66" d="M33.732,11.309c-4.377,0.694-5.983,3.792-5.277,7.444c0.16,0.825-0.376,2.237-1.436,3.145
	c-0.386,0.33-0.422,0.765-0.233,1.059c0.37,0.573,1.182,0.578,1.521,0.792c0.758,0.48-0.001,1.009,0.57,1.575
	c0.258,0.256,1.002-0.086,0.217,1.277c0.873,0.632-0.585,2.155,1.662,2.392c1.181,0.123,5.477-2.382,6.249-3.677
	c0.896-1.508,1.04-2.827,1.04-2.827c3.358-0.959,4.546-3.866,3.822-6.907C40.855,11.326,36.568,10.861,33.732,11.309z"/>
<path fill="#DB9D3A" d="M28.877,25.323c0.41,0.249,0.229,0.643,0.229,0.643c-0.197,0-0.246,0.644,0.048,0.644
	c1.023,0,1.965-0.87,2.273-1.399C29.822,25.134,28.061,24.415,28.877,25.323z"/>
<path fill="#FFFFFF" d="M28.877,25.323c0,0,0.156,0.554,0.229,0.643c0.321,0,1.368-0.232,2.013-0.65L28.877,25.323z"/>
<path fill="#DB9D3A" d="M26.797,22.96c0.303,0.8,2.24,0.972,2.859,0C28.637,23.691,26.621,22.495,26.797,22.96z"/>
<path id="Path_306_" fill="#966F42" d="M32.432,18.002c-0.931-0.535-2.713-0.559-3.377-0.188c-0.143,0.071-0.048,0.575,0.072,0.529
	c0.924-0.396,2.416-0.406,3.281,0.033C32.523,18.433,32.572,18.076,32.432,18.002z"/>
<linearGradient id="SVGID_1_" gradientUnits="userSpaceOnUse" x1="42.1846" y1="23.6709" x2="31.3008" y2="11.944">
	<stop  offset="0" style="stop-color:#473834"/>
	<stop  offset="0.1952" style="stop-color:#5B4842"/>
	<stop  offset="0.4314" style="stop-color:#6D554D"/>
	<stop  offset="0.6881" style="stop-color:#775D54"/>
	<stop  offset="1" style="stop-color:#7A6056"/>
	<a:midPointStop  offset="0" style="stop-color:#473834"/>
	<a:midPointStop  offset="0.2545" style="stop-color:#473834"/>
	<a:midPointStop  offset="1" style="stop-color:#7A6056"/>
</linearGradient>
<path fill="url(#SVGID_1_)" d="M34.629,14.419c3.533,3.41,4.401,8.058,3.944,11.546C43.418,24.189,44.77,13.262,34.629,14.419z"/>
<linearGradient id="SVGID_2_" gradientUnits="userSpaceOnUse" x1="43.2656" y1="23.2632" x2="31.4258" y2="10.5062">
	<stop  offset="0" style="stop-color:#473834"/>
	<stop  offset="0.1952" style="stop-color:#5B4842"/>
	<stop  offset="0.4314" style="stop-color:#6D554D"/>
	<stop  offset="0.6881" style="stop-color:#775D54"/>
	<stop  offset="1" style="stop-color:#7A6056"/>
	<a:midPointStop  offset="0" style="stop-color:#473834"/>
	<a:midPointStop  offset="0.2545" style="stop-color:#473834"/>
	<a:midPointStop  offset="1" style="stop-color:#7A6056"/>
</linearGradient>
<path fill="url(#SVGID_2_)" d="M40.846,25.657c2.458-2.133,3.445-7.828,1.504-11.541C40.916,11.374,38.715,9.99,34.629,10
	c-3.311,0.008-6.061,1.881-6.616,4.042c-0.774,3.013,4.03,2.894,5.601,5.363c0,0,0.705-1.636-0.492-3.916
	C38.271,23.188,40.801,15.999,40.846,25.657z"/>
<path fill="#FFCC66" d="M38.06,18.447c-1.634,0.335-2.142,3.992-0.919,4.787c0.172,0.11,1.065,0.209,1.539-0.687
	c0.262-0.497,1.2-1.001,1.331-1.973C40.178,19.329,39.684,18.115,38.06,18.447z"/>
<path id="Path_305_" fill="#DB9D3A" d="M38.146,19.125c-0.416,0.14-0.807,0.617-0.926,1.341c1.471-0.396,1.404,1.243,0.097,1.438
	c0.042,0.16,0.093,0.321,0.157,0.489c0.521-0.66,1.209-0.507,1.674-1.452C39.572,20.089,39.174,18.78,38.146,19.125z"/>
<path fill="#FFFFFF" d="M32.041,19.884c0.023,0.233-0.723,1.076-1.672,1.155c-0.543,0.046-0.734-0.37-0.856-0.817
	C29.396,18.442,31.508,19.075,32.041,19.884z"/>
<linearGradient id="Path_1_" gradientUnits="userSpaceOnUse" x1="30.2314" y1="20.9673" x2="30.2314" y2="19.0933">
	<stop  offset="0" style="stop-color:#A6694A"/>
	<stop  offset="1" style="stop-color:#4F2A1E"/>
	<a:midPointStop  offset="0" style="stop-color:#A6694A"/>
	<a:midPointStop  offset="0.5" style="stop-color:#A6694A"/>
	<a:midPointStop  offset="1" style="stop-color:#4F2A1E"/>
</linearGradient>
<path id="Path_304_" fill="url(#Path_1_)" d="M29.475,19.997c0,1.294,1.514,1.294,1.514,0
	C30.988,18.792,29.475,18.792,29.475,19.997z"/>
<path id="Path_303_" fill="#1A1626" d="M29.635,19.939c0,0.647,0.753,0.647,0.753,0C30.388,19.336,29.635,19.336,29.635,19.939z"/>
<path id="Path_302_" fill="#AB968C" d="M30.101,19.675c0,0.271,0.439,0.271,0.439,0C30.54,19.422,30.101,19.422,30.101,19.675z"/>
<path fill="#DB9D3A" d="M32.041,19.884c-0.406-0.809-2.435-1.396-2.49-0.306C29.838,18.845,31.342,19.247,32.041,19.884z"/>
<path fill="#6E8189" d="M46.945,61.82c0,0,0.461,0.242,0.555-0.244c-1.426-5.605-11.564-8.9-11.564-8.9
	c-0.365,0.078-0.52,0.49-0.52,0.49L46.945,61.82z"/>
<path fill="#99A8AE" d="M38.97,59.965c2.392,1.186,6.708,2.523,7.976,1.855c-1.516-5.354-11.529-8.654-11.529-8.654
	C31.721,56.805,37.834,59.404,38.97,59.965z"/>
<path fill="#1A1626" d="M42.834,61.443c-0.346-1.756-0.914-2.461-1.459-1.791c-0.354-1.008-1-0.869-1.277-0.439
	c-0.52-0.863-1.218-0.367-0.846,1.01C39.49,60.988,42.932,61.92,42.834,61.443z"/>
<path fill="#302C3B" d="M41.605,48.391c0,0-4.855-4.68-9.789-0.715c-4.529,2.49-11.213,5.639-14.431,8.34
	c-2.182,1.83-0.007,5.625,3.007,5.92c2.419,0.236,8.923-0.123,18.827-1.85c0,0-2.55-1.637-3.365-3.885
	C41.287,55.828,44.614,54.701,41.605,48.391z"/>
<path fill="#1A1626" d="M42.436,53.777c-3.914,3.631-12.301,1.451-16.847,3.346C31.006,56.58,40.719,57.676,42.436,53.777z"/>
<path fill="#FF7A00" d="M42.545,50.521c0,0-4.709-3.76-10.729-2.846c1.094-9-1.197-13.922,2.618-18.528
	c0.804,2.27,3.468-1.146,6.151-1.936C44.765,33.172,39.549,40.164,42.545,50.521z"/>
<path fill="#FFCC66" d="M38.352,42.279c0.211-0.588,1.848-3.004,2.266-5.391c-1.479-0.35-2.961-0.66-4.439-0.914
	c-0.114,1.98-0.777,2.893-1.631,5.275c-1.68,2.375-3.556,5.158-5.961,7.584c-0.158,0.158-2.277,0.654-2.65,0.859
	c-0.459,0.252-1.471,0.775-1.527,1.346c-0.636,1.219,1.714,0.408,3.446,0.371c1.808-0.039,2.564-0.547,2.702-0.865
	C31.362,48.674,37.98,43.316,38.352,42.279z"/>
<path fill="#DB9D3A" d="M26.443,49.861c-1.77,0.258-2.035,1.178-2.035,1.178S24.823,50.322,26.443,49.861z"/>
<path fill="#DB9D3A" d="M26.881,50.506c-2.813,0.465-2.473,1.09-2.473,1.09S24.408,51.039,26.881,50.506z"/>
<path fill="#ED6A00" d="M40.549,38.938c0.398-1.977,1.148-4.525,1.5-7.475c0.38-3.174-4.331-3.833-5.088-0.711
	c-0.412,1.695-1.12,3.991-1.411,7.374C37.215,38.244,38.893,38.518,40.549,38.938z"/>
</svg>
