<?xml version="1.0" encoding="utf-8"?>
<!-- Generator: Adobe Illustrator 15.0.0, SVG Export Plug-In . SVG Version: 6.00 Build 0)  -->
<!DOCTYPE svg PUBLIC "-//W3C//DTD SVG 1.1//EN" "http://www.w3.org/Graphics/SVG/1.1/DTD/svg11.dtd" [
	<!ENTITY ns_flows "http://ns.adobe.com/Flows/1.0/">
	<!ENTITY ns_extend "http://ns.adobe.com/Extensibility/1.0/">
	<!ENTITY ns_ai "http://ns.adobe.com/AdobeIllustrator/10.0/">
	<!ENTITY ns_graphs "http://ns.adobe.com/Graphs/1.0/">
]>
<svg version="1.1" id="Layer_1" xmlns:x="&ns_extend;" xmlns:i="&ns_ai;" xmlns:graph="&ns_graphs;"
	 xmlns="http://www.w3.org/2000/svg" xmlns:xlink="http://www.w3.org/1999/xlink" xmlns:a="http://ns.adobe.com/AdobeSVGViewerExtensions/3.0/"
	 x="0px" y="0px" width="64px" height="64px" viewBox="0 0 64 64" enable-background="new 0 0 64 64" xml:space="preserve">
<path fill="#3B2118" d="M43.582,50.741c15.168-6.066,13.651-20.475,13.651-20.475H14.767c0,0-1.517,14.409,13.648,20.475
	c0,0,3.035,0.76,7.583,0.76C40.55,51.501,43.582,50.741,43.582,50.741z"/>
<linearGradient id="SVGID_1_" gradientUnits="userSpaceOnUse" x1="52.416" y1="51.4971" x2="52.416" y2="6.114" gradientTransform="matrix(1 0 0 1 -1.25 0)">
	<stop  offset="0.05" style="stop-color:#3B2118"/>
	<stop  offset="0.112" style="stop-color:#40251C"/>
	<stop  offset="0.4761" style="stop-color:#58392F"/>
	<stop  offset="0.7" style="stop-color:#614036"/>
	<a:midPointStop  offset="0.05" style="stop-color:#3B2118"/>
	<a:midPointStop  offset="0.4" style="stop-color:#3B2118"/>
	<a:midPointStop  offset="0.7" style="stop-color:#614036"/>
</linearGradient>
<path fill="url(#SVGID_1_)" d="M51.333,31.804c1.552,6.533,0.733,13-7.751,18.938c9.102-1.516,15.168-10.109,15.168-16.703
	L51.333,31.804z"/>
<linearGradient id="SVGID_2_" gradientUnits="userSpaceOnUse" x1="1758.7305" y1="51.4971" x2="1758.7305" y2="6.114" gradientTransform="matrix(-1 0 0 1 1779.5645 0)">
	<stop  offset="0.05" style="stop-color:#3B2118"/>
	<stop  offset="0.112" style="stop-color:#40251C"/>
	<stop  offset="0.4761" style="stop-color:#58392F"/>
	<stop  offset="0.7" style="stop-color:#614036"/>
	<a:midPointStop  offset="0.05" style="stop-color:#3B2118"/>
	<a:midPointStop  offset="0.4" style="stop-color:#3B2118"/>
	<a:midPointStop  offset="0.7" style="stop-color:#614036"/>
</linearGradient>
<path fill="url(#SVGID_2_)" d="M20.667,31.804c-1.552,6.533-0.733,13,7.751,18.938C19.316,49.226,13.25,40.632,13.25,34.038
	L20.667,31.804z"/>
<linearGradient id="SVGID_3_" gradientUnits="userSpaceOnUse" x1="1731.7813" y1="55.1816" x2="1779.7815" y2="55.1816" gradientTransform="matrix(-1 0 0 1 1791.7813 0)">
	<stop  offset="0.7" style="stop-color:#8E3ED6"/>
	<stop  offset="1" style="stop-color:#5D1E96"/>
	<a:midPointStop  offset="0.7" style="stop-color:#8E3ED6"/>
	<a:midPointStop  offset="0.5" style="stop-color:#8E3ED6"/>
	<a:midPointStop  offset="1" style="stop-color:#5D1E96"/>
</linearGradient>
<path fill="url(#SVGID_3_)" d="M16.689,52.487C19.562,51.03,27,48.362,27,48.362h18c0,0,8.344,3.025,10.745,4.391
	C59.226,54.729,60,62.001,60,62.001H16.689V52.487z"/>
<path fill="#732EB0" d="M51.333,62.001H52C52,56.667,51.333,56.667,51.333,62.001z"/>
<path fill="#732EB0" d="M45,48.362c0,8.123-18,8.123-18,0l1.542-0.535H43.5L45,48.362z"/>
<path fill="#69452D" d="M43.5,48.011c0,6.359-15,6.359-15,0c0-2.164,0-7.035,0-7.035h15C43.5,40.976,43.5,45.847,43.5,48.011z"/>
<path fill="#916B50" d="M36,8.276c-11.005,0-16.306,8.962-15.644,20.485c0.136,2.316,0.78,5.658,1.575,8.519
	C23.582,43.231,32.291,49.226,36,49.226c3.707,0,12.416-5.994,14.068-11.945c0.795-2.861,1.439-6.203,1.575-8.519
	C52.305,17.238,47.007,8.276,36,8.276z"/>
<path fill="#733B2A" d="M35.998,39.87c-2.578-1.135-2.599-0.045-6.58,0.221c1.494,1.697,2.595,3.879,6.579,3.879
	c4.574,0,5.347-2.479,6.585-3.879C38.597,39.825,38.58,38.735,35.998,39.87z"/>
<path fill="#FFFFFF" d="M30.613,40.515c2.6,2.705,8.205,2.668,10.772,0.002C37.384,40.946,34.616,40.946,30.613,40.515z"/>
<path fill="#5E4431" d="M47.693,24.927c-2.391-1.425-6.68-1.601-8.376-0.629c-0.359,0.196-0.264,1.226,0.048,1.097
	c2.42-1.008,6.108-1.058,8.38,0.108C48.049,25.657,48.057,25.134,47.693,24.927z"/>
<path fill="#5E4431" d="M24.305,24.927c2.391-1.425,6.679-1.601,8.379-0.629c0.36,0.196,0.264,1.226-0.049,1.097
	c-2.422-1.008-6.105-1.06-8.38,0.108C23.949,25.657,23.943,25.134,24.305,24.927z"/>
<path fill="#69452D" d="M38.474,36.214c-0.263-0.184-0.877,0.098-2.476,0.098c-1.597,0-2.211-0.281-2.473-0.098
	c-0.314,0.221,0.185,1.217,2.473,1.217C38.287,37.431,38.789,36.435,38.474,36.214z"/>
<path id="Path_1966_" fill="#FFFFFF" d="M33.552,29.25c0.093,0.727-0.401,1.591-1.771,2.239c-0.869,0.41-2.678,0.895-5.055-0.107
	c-1.065-0.449-2.104-1.847-2.01-2.621C26.005,26.333,32.346,25.977,33.552,29.25z"/>
<linearGradient id="Oval_1_" gradientUnits="userSpaceOnUse" x1="-423.7808" y1="477.4414" x2="-423.7808" y2="478.1992" gradientTransform="matrix(6.5701 0 0 -6.5701 2813.5305 3168.5281)">
	<stop  offset="0" style="stop-color:#A6694A"/>
	<stop  offset="1" style="stop-color:#4F2A1E"/>
	<a:midPointStop  offset="0" style="stop-color:#A6694A"/>
	<a:midPointStop  offset="0.5" style="stop-color:#A6694A"/>
	<a:midPointStop  offset="1" style="stop-color:#4F2A1E"/>
</linearGradient>
<circle id="Oval_262_" fill="url(#Oval_1_)" cx="29.249" cy="29.2" r="2.49"/>
<path id="Path_1965_" fill="#1A1626" d="M28.005,29.156c0,1.723,2.491,1.723,2.491,0C30.496,27.556,28.005,27.556,28.005,29.156z"/>
<path id="Path_1964_" fill="#AB968C" d="M27.626,28.458c0,0.723,1.044,0.723,1.044,0C28.67,27.789,27.626,27.789,27.626,28.458z"/>
<path id="Path_1963_" fill="#45332C" d="M33.563,29.346c-1.012-3.251-7.908-2.771-8.847-0.585
	C25.064,25.962,32.701,25.223,33.563,29.346z"/>
<path id="Path_1962_" fill="#FFFFFF" d="M38.448,29.25c-0.093,0.727,0.401,1.591,1.771,2.239c0.869,0.41,2.678,0.895,5.055-0.107
	c1.066-0.449,2.104-1.847,2.01-2.621C45.996,26.333,39.654,25.977,38.448,29.25z"/>
<linearGradient id="Oval_2_" gradientUnits="userSpaceOnUse" x1="-424.4326" y1="477.4414" x2="-424.4326" y2="478.1992" gradientTransform="matrix(6.5701 0 0 -6.5701 2831.261 3168.5281)">
	<stop  offset="0" style="stop-color:#A6694A"/>
	<stop  offset="1" style="stop-color:#4F2A1E"/>
	<a:midPointStop  offset="0" style="stop-color:#A6694A"/>
	<a:midPointStop  offset="0.5" style="stop-color:#A6694A"/>
	<a:midPointStop  offset="1" style="stop-color:#4F2A1E"/>
</linearGradient>
<circle id="Oval_261_" fill="url(#Oval_2_)" cx="42.694" cy="29.2" r="2.49"/>
<path id="Path_1961_" fill="#1A1626" d="M41.45,29.156c0,1.723,2.492,1.723,2.492,0C43.942,27.556,41.45,27.556,41.45,29.156z"/>
<path id="Path_1960_" fill="#AB968C" d="M41.071,28.458c0,0.723,1.044,0.723,1.044,0C42.115,27.789,41.071,27.789,41.071,28.458z"/>
<path id="Path_1959_" fill="#45332C" d="M38.438,29.346c1.011-3.249,7.902-2.784,8.846-0.585
	C46.934,25.962,39.299,25.223,38.438,29.346z"/>
<linearGradient id="SVGID_4_" gradientUnits="userSpaceOnUse" x1="37.25" y1="51.499" x2="37.25" y2="6.1135" gradientTransform="matrix(1 0 0 1 -1.25 0)">
	<stop  offset="0.05" style="stop-color:#3B2118"/>
	<stop  offset="0.112" style="stop-color:#40251C"/>
	<stop  offset="0.4761" style="stop-color:#58392F"/>
	<stop  offset="0.7" style="stop-color:#614036"/>
	<a:midPointStop  offset="0.05" style="stop-color:#3B2118"/>
	<a:midPointStop  offset="0.4" style="stop-color:#3B2118"/>
	<a:midPointStop  offset="0.7" style="stop-color:#614036"/>
</linearGradient>
<path fill="url(#SVGID_4_)" d="M48.386,9.884c1.257-1.794-9.388-5.582-19.438-3.023C18.909,9.16,13.25,24.201,13.25,34.038
	c0.898,0.713,6.396-1.064,7.417-2.234c0.416-1.72,1.071-3.492,1.683-5.328c7.539-4.365,16.07-5.393,21.992-10.617
	c-0.759,2.275,3.256,5.145,5.309,10.617c0.666,1.775,1.261,3.554,1.683,5.328c1.674,1.541,5.014,2.268,7.417,2.234
	C58.75,25.717,52.409,8.723,48.386,9.884z"/>
<path fill="#3B2118" d="M15.058,32.542c6.944-9.248,29.438-8.621,33.328-22.658C40.834,21.666,16.955,23.653,15.058,32.542z"/>
<path fill="#8E3ED6" d="M10.626,62.001c0,0,2.467-10.029,3.031-10.623c1.053-1.104,5.824-0.666,6.635,0.021
	s0.334,10.602,0.334,10.602H10.626z"/>
<path fill="#916B50" d="M21.819,42.222c-1.18,0.689-5.258,1.887-7.215,1.109c-0.703-0.279-2.121,0.73-1.479,4.266v0.002
	c0.061,1.221,0.695,3.324,0.865,4.313c0.162,0.93,5.635,1.336,6.076,0c0.201-0.613,0.086-1.33,0.666-1.674
	c1.449-0.855,3.16-4.129,3.266-6.115C24.042,43.298,23.079,43.331,21.819,42.222z"/>
<path fill="#916B50" d="M16.03,41.792c0.924-3.057,2.07-5.686,2.865-7.355c0.572-1.203,2.389-0.35,1.979,1.01
	c-1.043,3.459-1.85,5.715-1.947,6.346C18.827,42.421,16.03,41.792,16.03,41.792z"/>
<path fill="#69452D" d="M20.938,44.55l0.457,0.102c-1.227,0.518-2.885,3.195-2.457,5.17C18.194,47.757,19.683,45.149,20.938,44.55z"
	/>
<path fill="#916B50" d="M14.698,42.724c-0.648-0.602,0.502-1.314,1.279-1.572c1.838-0.613,3.631-0.611,3.809-0.1
	s1.498,3.111,1.309,3.443C19.806,46.747,16.245,44.151,14.698,42.724z"/>
<path fill="#69452D" d="M19.786,41.009c-0.178-0.512-1.975-0.553-3.656,0.092c1.893-0.387,3.16-0.414,3.338,0.098
	s1.439,2.725,1.408,3.264c-0.051,0.932-1.668,0.68-1.566,0.992c1.379,0.029,1.754-0.6,1.861-1.037
	C21.261,44.048,19.964,41.521,19.786,41.009z"/>
<path fill="#916B50" d="M21.642,44.765c-3.129-1.102-2.627-3.656-1.537-4.018c0.266-0.09,0.857,0.865,2.334,1.971
	C22.683,42.899,21.735,44.718,21.642,44.765z"/>
<path fill="#69452D" d="M19.493,41.284c-0.639,0.945-0.389,2.84,2.148,3.48C20.118,43.999,18.917,42.653,19.493,41.284z"/>
<path fill="#916B50" d="M13.854,44.53c-0.65-0.6,0.303-2.352,1.119-2.262c2.178,0.238,3.791,0.078,3.969,0.592
	c0.176,0.512,1.498,3.111,1.309,3.441C18.962,48.556,15.401,45.96,13.854,44.53z"/>
<path fill="#69452D" d="M18.942,42.817c-0.178-0.512-2.775-0.518-3.066-0.467c-0.201,0.033,2.572,0.143,2.748,0.654
	c0.178,0.514,1.438,2.725,1.408,3.266c-0.051,0.93-1.393,0.676-1.293,0.988c1.379,0.029,1.482-0.598,1.588-1.035
	C20.417,45.856,19.118,43.329,18.942,42.817z"/>
<path fill="#69452D" d="M19.12,44.823c-0.324-0.641-3.854-1.25-3.854-1.25s3.369,1.055,3.498,1.373
	c0.273,0.688-0.23,2.746-0.252,2.99s-0.123,0.33-0.393,0.33c-0.279,0-2.131-0.504-2.637-0.504c-0.604,0,0.008-1.262,0.834-1.322
	c0.711-0.049,0.939,0.285,0.939,0.285s-0.303-0.775-0.949-0.719c-1.121,0.098-2.066,1.41-2.063,1.506
	c0.439-0.379,0.783-0.506,0.783-0.506c-0.447,0.834,0.125,1.133,0.455,1.133c0.455,0,2.307,0.504,2.637,0.504
	c0.586,0,0.742-0.367,0.768-0.676C18.911,47.731,19.392,45.358,19.12,44.823z"/>
<path fill="#0FB4D4" d="M9.419,25.444c-3.131,5.473,0.174,10.905,0.314,11.133c0.619,0.992,1.604,0.275,0.99-0.721
	c-0.123-0.2-3.006-4.968-0.291-9.718C11.003,25.145,9.921,24.56,9.419,25.444z"/>
<path fill="#0FB4D4" d="M5.613,24.376C2.228,30.611,5.202,36.54,5.331,36.788c0.544,1.058,1.586,0.435,1.044-0.62
	c-0.027-0.057-2.761-5.542,0.271-11.125C7.19,24.041,6.099,23.487,5.613,24.376z"/>
</svg>
