<?xml version="1.0" encoding="utf-8"?>
<!-- Generator: Adobe Illustrator 15.0.0, SVG Export Plug-In . SVG Version: 6.00 Build 0)  -->
<!DOCTYPE svg PUBLIC "-//W3C//DTD SVG 1.1//EN" "http://www.w3.org/Graphics/SVG/1.1/DTD/svg11.dtd">
<svg version="1.1" id="Layer_1" xmlns="http://www.w3.org/2000/svg" xmlns:xlink="http://www.w3.org/1999/xlink" x="0px" y="0px"
	 width="64px" height="64px" viewBox="0 0 64 64" enable-background="new 0 0 64 64" xml:space="preserve">
<path fill="#CFD8DD" d="M46.553,19.024l-3.129-2.938H20.575l-3.127,2.938L15.407,51.99C18.603,60.041,32,60.041,32,60.041
	s13.396,0,16.593-8.051L46.553,19.024z"/>
<path fill="#F2F5F7" d="M45.018,26.018H18.98l-1.6,24.481c2.814,7.095,26.424,7.095,29.239,0L45.018,26.018z"/>
<path fill="#FFFFFF" d="M45.018,26.018c0,5.689-26.038,5.689-26.038,0S45.018,20.328,45.018,26.018z"/>
<path fill="#4E5E67" d="M44.717,14.999c0,6.602-25.435,6.602-25.435,0C19.282,8.396,44.717,8.396,44.717,14.999z"/>
<path fill="#6E8189" d="M20.376,6.57v7.401c0,6.093,23.247,6.093,23.247,0V6.57H20.376z"/>
<path fill="#B3C2C6" d="M23.64,6.572v10.686c1.772,0.684,4.091,1.095,6.527,1.23V6.572H23.64z"/>
<path fill="#99A8AE" d="M43.623,6.57c0,6.093-23.247,6.093-23.247,0C20.376,0.477,43.623,0.477,43.623,6.57z"/>
<path fill="#302C3B" d="M33.287,3.153c0,0.674-2.574,0.674-2.574,0C30.713,2.479,33.287,2.479,33.287,3.153z"/>
<path fill="#302C3B" d="M33.287,5.777c0,0.674-2.574,0.674-2.574,0C30.713,5.102,33.287,5.102,33.287,5.777z"/>
<path fill="#302C3B" d="M33.287,8.4c0,0.674-2.574,0.674-2.574,0C30.713,7.726,33.287,7.726,33.287,8.4z"/>
<path fill="#302C3B" d="M39.498,4.465c0,0.674-2.574,0.674-2.574,0S39.498,3.791,39.498,4.465z"/>
<path fill="#302C3B" d="M39.498,7.089c0,0.674-2.574,0.674-2.574,0C36.924,6.414,39.498,6.414,39.498,7.089z"/>
<path fill="#302C3B" d="M27.076,4.465c0,0.674-2.573,0.674-2.573,0S27.076,3.791,27.076,4.465z"/>
<path fill="#302C3B" d="M27.076,7.089c0,0.674-2.573,0.674-2.573,0C24.502,6.414,27.076,6.414,27.076,7.089z"/>
<path fill="#B3C2C6" d="M20.705,7.75c2.711,4.732,19.889,4.714,22.59,0C38.971,10.964,25.028,10.964,20.705,7.75z"/>
<path fill="#4E5E67" d="M43.623,8.905v1.923c0,0-1.967,2.238-10.66,1.523C42.045,11.707,43.623,8.905,43.623,8.905z"/>
<path fill="#4E5E67" d="M20.376,12.278v1.854c0,0,5.107,3.492,13.8,2.778C25.095,16.267,20.376,12.278,20.376,12.278z"/>
<path fill="#4E5E67" d="M43.623,12.245v1.694c-7.27,2.962-20.049,0.608-23.247-3.458V8.787
	C24.32,13.233,37.477,14.999,43.623,12.245z"/>
<path opacity="0.05" fill="#6E8189" d="M20.675,54.538c0.759,1.217,8.07,2.19,8.869,1.872c0.797-0.318,1.936-32.609,1.503-32.599
	c-3.008,0.081-7.182-0.555-8.865-1.169C21.707,22.47,20.268,53.886,20.675,54.538z"/>
<path opacity="0.1" fill="#6E8189" d="M17.544,52.835c0.194,0.33,3.479-30.601,3.096-30.764c-1.317-0.563-2.704-2.913-2.727-2.521
	C16.239,47.751,15.869,49.992,17.544,52.835z"/>
<path fill="#B3C2C6" d="M46.553,19.024c1.076,29.311,2.67,31.686-0.307,35.25c-0.283,0.34-3.465-32.191-3.465-32.191
	s1.992,32.753,1.375,33.334c-0.326,0.308-10.098,2.94-10.574,2.492C33.096,57.451,32,23.838,32,23.838s-1.096,33.613-1.583,34.071
	c-0.476,0.448-10.247-2.185-10.574-2.492c-0.617-0.581,1.376-33.334,1.376-33.334s-3.183,32.531-3.466,32.191
	c-2.976-3.564-1.382-5.939-0.305-35.25c0,0-2.449,32.69-2.448,32.967c0.002,0.511,2.146,6.341,2.718,6.745
	C18.375,59.199,31.44,62,32,62c0.56,0,13.625-2.801,14.281-3.264c0.572-0.404,2.717-6.234,2.719-6.745
	C49,51.715,46.553,19.024,46.553,19.024z"/>
<path opacity="0.2" fill="#6E8189" d="M43.324,54.538c-0.758,1.217-8.07,2.19-8.867,1.872c-0.799-0.318-1.936-32.609-1.503-32.599
	c3.007,0.081,7.181-0.555,8.865-1.169C42.293,22.47,43.732,53.886,43.324,54.538z"/>
<path opacity="0.3" fill="#6E8189" d="M46.455,52.835c-0.193,0.33-3.479-30.601-3.096-30.764c1.318-0.563,2.703-2.913,2.727-2.521
	C47.762,47.751,48.131,49.992,46.455,52.835z"/>
</svg>
