<?xml version="1.0" encoding="utf-8"?>
<!-- Generator: Adobe Illustrator 15.0.0, SVG Export Plug-In . SVG Version: 6.00 Build 0)  -->
<!DOCTYPE svg PUBLIC "-//W3C//DTD SVG 1.1//EN" "http://www.w3.org/Graphics/SVG/1.1/DTD/svg11.dtd" [
	<!ENTITY ns_flows "http://ns.adobe.com/Flows/1.0/">
	<!ENTITY ns_extend "http://ns.adobe.com/Extensibility/1.0/">
	<!ENTITY ns_ai "http://ns.adobe.com/AdobeIllustrator/10.0/">
	<!ENTITY ns_graphs "http://ns.adobe.com/Graphs/1.0/">
]>
<svg version="1.1" id="Layer_1" xmlns:x="&ns_extend;" xmlns:i="&ns_ai;" xmlns:graph="&ns_graphs;"
	 xmlns="http://www.w3.org/2000/svg" xmlns:xlink="http://www.w3.org/1999/xlink" xmlns:a="http://ns.adobe.com/AdobeSVGViewerExtensions/3.0/"
	 x="0px" y="0px" width="64px" height="64px" viewBox="0 0 64 64" enable-background="new 0 0 64 64" xml:space="preserve">
<path fill="#BA9757" d="M34.833,18.717c5.666-2.268,5.1-7.65,5.1-7.65H24.066c0,0-0.566,5.383,5.1,7.65c0,0,1.135,0.283,2.834,0.283
	C33.7,19,34.833,18.717,34.833,18.717z"/>
<linearGradient id="SVGID_1_" gradientUnits="userSpaceOnUse" x1="37.666" y1="18.999" x2="37.666" y2="2.0408">
	<stop  offset="0.05" style="stop-color:#BA9757"/>
	<stop  offset="0.1973" style="stop-color:#C6A265"/>
	<stop  offset="0.5085" style="stop-color:#DBB77D"/>
	<stop  offset="0.7" style="stop-color:#E3BE86"/>
	<a:midPointStop  offset="0.05" style="stop-color:#BA9757"/>
	<a:midPointStop  offset="0.4" style="stop-color:#BA9757"/>
	<a:midPointStop  offset="0.7" style="stop-color:#E3BE86"/>
</linearGradient>
<path fill="url(#SVGID_1_)" d="M37.728,11.641c0.58,2.441,0.275,4.857-2.895,7.076c3.4-0.567,5.666-3.777,5.666-6.242L37.728,11.641
	z"/>
<linearGradient id="SVGID_2_" gradientUnits="userSpaceOnUse" x1="1754.4805" y1="18.999" x2="1754.4805" y2="2.0408" gradientTransform="matrix(-1 0 0 1 1780.8145 0)">
	<stop  offset="0.05" style="stop-color:#BA9757"/>
	<stop  offset="0.1973" style="stop-color:#C6A265"/>
	<stop  offset="0.5085" style="stop-color:#DBB77D"/>
	<stop  offset="0.7" style="stop-color:#E3BE86"/>
	<a:midPointStop  offset="0.05" style="stop-color:#BA9757"/>
	<a:midPointStop  offset="0.4" style="stop-color:#BA9757"/>
	<a:midPointStop  offset="0.7" style="stop-color:#E3BE86"/>
</linearGradient>
<path fill="url(#SVGID_2_)" d="M26.271,11.641c-0.58,2.441-0.273,4.857,2.896,7.076c-3.4-0.567-5.668-3.777-5.668-6.242
	L26.271,11.641z"/>
<path fill="#EBC199" d="M26.095,28.033c-0.652-1.438-2.486-1.438-2.486-1.438c-0.875,3.016-1.154,8.406-1.164,9.146
	c-0.008,0.717-0.594,2.727-0.408,3.223c0.779,2.094,0.703,2.355,1.658,3.133c0.725,0.59,0.498-0.166,0.17-0.564
	c-0.508-0.617-0.83-2.035-0.164-2.168c0.084,1.582,0.994,1.881,0.926,1.295c-0.174-1.514,0.002-2.432-0.592-3.244
	c-0.24-0.33-0.256-2.398,0.848-5.189C25.552,30.531,25.804,29.408,26.095,28.033z"/>
<path fill="#EBC199" d="M37.905,28.033c0.652-1.438,2.486-1.438,2.486-1.438c0.875,3.016,1.154,8.406,1.162,9.146
	c0.01,0.717,0.594,2.727,0.41,3.223c-0.779,2.094-0.705,2.355-1.66,3.133c-0.723,0.59-0.496-0.166-0.168-0.564
	c0.508-0.617,0.83-2.035,0.164-2.168c-0.084,1.582-0.994,1.881-0.926,1.295c0.174-1.514-0.002-2.432,0.592-3.244
	c0.238-0.33,0.256-2.398-0.848-5.189C38.448,30.531,38.196,29.408,37.905,28.033z"/>
<path fill="#302C3B" d="M36.983,33.969h-9.966c-0.869,5.027-0.426,12.289-1.563,24.885c-0.145,1.586,5.215,1.596,5.168,0
	c-0.223-7.348,0.328-12.939,0.822-17.416c0.037-0.334,1.074-0.334,1.111,0c0.492,4.477,1.044,10.068,0.822,17.416
	c-0.049,1.596,5.313,1.586,5.168,0C37.409,46.258,37.851,38.996,36.983,33.969z"/>
<path fill="#6E8189" d="M25.216,61.602c0.17,0.451,5.314,0.637,5.508-0.084C31.47,58.725,24.376,59.371,25.216,61.602z"/>
<path fill="#99A8AE" d="M25.291,61.053c0.037,0.391,5.381,0.596,5.439,0C31.187,56.299,24.873,56.695,25.291,61.053z"/>
<path fill="#1A1626" d="M30.046,58.225c-0.596-1.102-3.414-1.096-4.006,0c-0.109,0.193-0.293,0.717,0.42,0.287
	c-0.707,0.602-0.707,1.127,0,0.678c-0.713,0.578-0.529,0.943-0.42,0.896c1.084-0.582,2.92-0.582,4.006,0
	c0.109,0.047,0.293-0.318-0.422-0.896c0.709,0.449,0.709-0.076,0-0.678C30.339,58.941,30.156,58.418,30.046,58.225z"/>
<path fill="#6E8189" d="M38.784,61.602c-0.17,0.451-5.314,0.637-5.508-0.084C32.531,58.725,39.624,59.371,38.784,61.602z"/>
<path fill="#99A8AE" d="M38.71,61.053c-0.037,0.391-5.381,0.596-5.439,0C32.814,56.299,39.126,56.695,38.71,61.053z"/>
<path fill="#1A1626" d="M33.954,58.225c0.594-1.102,3.414-1.096,4.006,0c0.109,0.193,0.293,0.717-0.422,0.287
	c0.709,0.602,0.709,1.127,0,0.678c0.715,0.578,0.531,0.943,0.422,0.896c-1.084-0.582-2.92-0.582-4.006,0
	c-0.109,0.047-0.293-0.318,0.42-0.896c-0.707,0.449-0.707-0.076,0-0.678C33.661,58.941,33.845,58.418,33.954,58.225z"/>
<path fill="#8E3ED6" d="M37.851,28.531c1.881-1.59,2.691-1.648,2.73-1.703c-0.299-1.166-1.527-5.674-2.557-6.982
	c-0.816-1.035-4.191-2.271-4.191-2.271h-3.666c0,0-3.375,1.236-4.191,2.271c-1.029,1.309-2.258,5.816-2.557,6.982
	c0.039,0.055,0.85,0.113,2.73,1.703c0,0,0.842-2.936,1.01-3.851c0.086,1.245,0.438,2.392,0.438,2.656
	c0.018,2.981-0.719,6.317-0.58,6.632c0.381,0.865,9.583,0.867,9.966,0c0.139-0.314-0.598-3.65-0.582-6.632
	c0.002-0.265,0.354-1.411,0.439-2.656C37.009,25.596,37.851,28.531,37.851,28.531z"/>
<path fill="#732EB0" d="M29.265,17.933c0,2.794,5.468,2.78,5.468-0.013l-0.551-0.258h-4.335L29.265,17.933z"/>
<path fill="#C99B71" d="M29.75,17.906c0,2.174,4.5,2.174,4.5,0c0-0.74,0-2.406,0-2.406h-4.5C29.75,15.5,29.75,17.166,29.75,17.906z"
	/>
<path fill="#EBC199" d="M32,2.85c-4.111,0-6.092,3.349-5.844,7.654c0.051,0.865,0.291,2.113,0.588,3.184
	c0.617,2.223,3.871,4.462,5.256,4.462c1.384,0,4.638-2.239,5.255-4.462c0.297-1.07,0.539-2.318,0.59-3.184
	C38.091,6.198,36.112,2.85,32,2.85z"/>
<path fill="#C98655" d="M32,14.654c-0.963-0.424-0.971-0.018-2.459,0.082c0.559,0.635,0.969,1.449,2.459,1.449
	c1.708,0,1.996-0.926,2.458-1.449C32.97,14.637,32.964,14.23,32,14.654z"/>
<path fill="#FFFFFF" d="M29.988,14.895c0.971,1.012,3.064,0.998,4.023,0.001C32.517,15.057,31.482,15.057,29.988,14.895z"/>
<path fill="#A17C5B" d="M36.368,9.071c-0.893-0.532-2.496-0.598-3.129-0.235c-0.135,0.074-0.1,0.458,0.018,0.41
	c0.904-0.377,2.281-0.395,3.131,0.041C36.501,9.344,36.505,9.148,36.368,9.071z"/>
<path fill="#A17C5B" d="M27.63,9.071c0.893-0.532,2.494-0.598,3.131-0.235c0.135,0.074,0.098,0.458-0.02,0.41
	c-0.904-0.377-2.281-0.396-3.131,0.041C27.498,9.344,27.496,9.148,27.63,9.071z"/>
<path fill="#C99B71" d="M32.923,13.288c-0.098-0.069-0.326,0.037-0.924,0.037s-0.826-0.106-0.924-0.037
	c-0.117,0.083,0.068,0.454,0.924,0.454S33.042,13.371,32.923,13.288z"/>
<path id="Path_1436_" fill="#FFFFFF" d="M31.085,10.687c0.035,0.271-0.15,0.595-0.662,0.836c-0.324,0.154-1,0.335-1.889-0.04
	c-0.398-0.168-0.785-0.689-0.75-0.979C28.265,9.596,30.634,9.463,31.085,10.687z"/>
<linearGradient id="Oval_1_" gradientUnits="userSpaceOnUse" x1="-423.936" y1="480.499" x2="-423.936" y2="480.7822" gradientTransform="matrix(6.5701 0 0 -6.5701 2814.7805 3168.5281)">
	<stop  offset="0" style="stop-color:#A6694A"/>
	<stop  offset="1" style="stop-color:#4F2A1E"/>
	<a:midPointStop  offset="0" style="stop-color:#A6694A"/>
	<a:midPointStop  offset="0.5" style="stop-color:#A6694A"/>
	<a:midPointStop  offset="1" style="stop-color:#4F2A1E"/>
</linearGradient>
<circle id="Oval_116_" fill="url(#Oval_1_)" cx="29.478" cy="10.668" r="0.931"/>
<path id="Path_1435_" fill="#1A1626" d="M29.013,10.65c0,0.645,0.93,0.645,0.93,0C29.943,10.053,29.013,10.053,29.013,10.65z"/>
<path id="Path_1434_" fill="#AB968C" d="M28.871,10.391c0,0.27,0.391,0.27,0.391,0C29.261,10.141,28.871,10.141,28.871,10.391z"/>
<path id="Path_1433_" fill="#45332C" d="M31.089,10.723c-0.377-1.215-2.955-1.035-3.305-0.219
	C27.914,9.458,30.767,9.182,31.089,10.723z"/>
<path id="Path_1432_" fill="#FFFFFF" d="M32.914,10.687c-0.033,0.271,0.15,0.595,0.662,0.836c0.324,0.154,1,0.335,1.889-0.04
	c0.398-0.168,0.785-0.689,0.752-0.979C35.733,9.596,33.364,9.463,32.914,10.687z"/>
<linearGradient id="Oval_2_" gradientUnits="userSpaceOnUse" x1="-425.8706" y1="480.499" x2="-425.8706" y2="480.7822" gradientTransform="matrix(6.5701 0 0 -6.5701 2832.511 3168.5281)">
	<stop  offset="0" style="stop-color:#A6694A"/>
	<stop  offset="1" style="stop-color:#4F2A1E"/>
	<a:midPointStop  offset="0" style="stop-color:#A6694A"/>
	<a:midPointStop  offset="0.5" style="stop-color:#A6694A"/>
	<a:midPointStop  offset="1" style="stop-color:#4F2A1E"/>
</linearGradient>
<circle id="Oval_115_" fill="url(#Oval_2_)" cx="34.501" cy="10.668" r="0.931"/>
<path id="Path_1431_" fill="#1A1626" d="M34.036,10.65c0,0.645,0.93,0.645,0.93,0C34.966,10.053,34.036,10.053,34.036,10.65z"/>
<path id="Path_1430_" fill="#AB968C" d="M33.894,10.391c0,0.27,0.391,0.27,0.391,0C34.284,10.141,33.894,10.141,33.894,10.391z"/>
<path id="Path_1429_" fill="#45332C" d="M32.912,10.723c0.376-1.215,2.951-1.041,3.304-0.219
	C36.085,9.458,33.231,9.182,32.912,10.723z"/>
<linearGradient id="SVGID_3_" gradientUnits="userSpaceOnUse" x1="31.9995" y1="18.9985" x2="31.9995" y2="2.0417">
	<stop  offset="0.05" style="stop-color:#BA9757"/>
	<stop  offset="0.1973" style="stop-color:#C6A265"/>
	<stop  offset="0.5085" style="stop-color:#DBB77D"/>
	<stop  offset="0.7" style="stop-color:#E3BE86"/>
	<a:midPointStop  offset="0.05" style="stop-color:#BA9757"/>
	<a:midPointStop  offset="0.4" style="stop-color:#BA9757"/>
	<a:midPointStop  offset="0.7" style="stop-color:#E3BE86"/>
</linearGradient>
<path fill="url(#SVGID_3_)" d="M36.626,3.451c0.471-0.67-3.506-2.086-7.261-1.13C25.615,3.18,23.5,8.8,23.5,12.475
	c0.336,0.268,2.391-0.396,2.771-0.834c0.154-0.643,0.4-1.305,0.629-1.99c2.816-1.631,6.004-2.016,8.216-3.967
	c-0.283,0.85,1.217,1.922,1.982,3.967c0.25,0.662,0.471,1.327,0.629,1.99c0.625,0.576,1.873,0.848,2.771,0.834
	C40.499,9.367,38.13,3.018,36.626,3.451z"/>
<path fill="#BA9757" d="M24.175,11.916c2.594-3.455,10.998-3.221,12.451-8.465C33.806,7.853,24.884,8.596,24.175,11.916z"/>
</svg>
