<?xml version="1.0" encoding="utf-8"?>
<!-- Generator: Adobe Illustrator 15.0.0, SVG Export Plug-In . SVG Version: 6.00 Build 0)  -->
<!DOCTYPE svg PUBLIC "-//W3C//DTD SVG 1.1//EN" "http://www.w3.org/Graphics/SVG/1.1/DTD/svg11.dtd" [
	<!ENTITY ns_flows "http://ns.adobe.com/Flows/1.0/">
	<!ENTITY ns_extend "http://ns.adobe.com/Extensibility/1.0/">
	<!ENTITY ns_ai "http://ns.adobe.com/AdobeIllustrator/10.0/">
	<!ENTITY ns_graphs "http://ns.adobe.com/Graphs/1.0/">
]>
<svg version="1.1" id="Layer_1" xmlns:x="&ns_extend;" xmlns:i="&ns_ai;" xmlns:graph="&ns_graphs;"
	 xmlns="http://www.w3.org/2000/svg" xmlns:xlink="http://www.w3.org/1999/xlink" xmlns:a="http://ns.adobe.com/AdobeSVGViewerExtensions/3.0/"
	 x="0px" y="0px" width="64px" height="64px" viewBox="0 0 64 64" enable-background="new 0 0 64 64" xml:space="preserve">
<linearGradient id="SVGID_1_" gradientUnits="userSpaceOnUse" x1="10" y1="50.8252" x2="54" y2="50.8252">
	<stop  offset="0" style="stop-color:#FFEDCF"/>
	<stop  offset="1" style="stop-color:#FFD39C"/>
	<a:midPointStop  offset="0" style="stop-color:#FFEDCF"/>
	<a:midPointStop  offset="0.4909" style="stop-color:#FFEDCF"/>
	<a:midPointStop  offset="1" style="stop-color:#FFD39C"/>
</linearGradient>
<path fill="url(#SVGID_1_)" d="M10,39.65l4.398,18.662c0,4.916,35.201,4.916,35.201,0L54,39.65H10z"/>
<linearGradient id="SVGID_2_" gradientUnits="userSpaceOnUse" x1="208" y1="59.5977" x2="208" y2="39.6504" gradientTransform="matrix(1 0 0 1 -194.6367 0)">
	<stop  offset="0" style="stop-color:#FFB069"/>
	<stop  offset="1" style="stop-color:#FFB069;stop-opacity:0.1"/>
	<a:midPointStop  offset="0" style="stop-color:#FFB069"/>
	<a:midPointStop  offset="0.5" style="stop-color:#FFB069"/>
	<a:midPointStop  offset="1" style="stop-color:#FFB069;stop-opacity:0.1"/>
</linearGradient>
<path fill="url(#SVGID_2_)" d="M10.928,39.65c8.047,39.469,3.754,9.721,3.509,0.729C12.968,40.166,12.385,39.922,10.928,39.65z"/>
<linearGradient id="SVGID_3_" gradientUnits="userSpaceOnUse" x1="212.2168" y1="60.6182" x2="212.2168" y2="40.0625" gradientTransform="matrix(1 0 0 1 -194.6367 0)">
	<stop  offset="0" style="stop-color:#FFB069"/>
	<stop  offset="1" style="stop-color:#FFB069;stop-opacity:0.1"/>
	<a:midPointStop  offset="0" style="stop-color:#FFB069"/>
	<a:midPointStop  offset="0.5" style="stop-color:#FFB069"/>
	<a:midPointStop  offset="1" style="stop-color:#FFB069;stop-opacity:0.1"/>
</linearGradient>
<path fill="url(#SVGID_3_)" d="M15.314,40.063c7.046,37.902,3.74,14.387,3.861,0.592C17.59,40.49,16.891,40.293,15.314,40.063z"/>
<linearGradient id="SVGID_4_" gradientUnits="userSpaceOnUse" x1="216.666" y1="61.4238" x2="216.666" y2="40.9727" gradientTransform="matrix(1 0 0 1 -194.6367 0)">
	<stop  offset="0" style="stop-color:#FFB069"/>
	<stop  offset="1" style="stop-color:#FFB069;stop-opacity:0.1"/>
	<a:midPointStop  offset="0" style="stop-color:#FFB069"/>
	<a:midPointStop  offset="0.5" style="stop-color:#FFB069"/>
	<a:midPointStop  offset="1" style="stop-color:#FFB069;stop-opacity:0.1"/>
</linearGradient>
<path fill="url(#SVGID_4_)" d="M20.054,40.973c5.854,36.717,3.288,15.805,3.901,0.396C22.358,41.271,21.646,41.137,20.054,40.973z"
	/>
<linearGradient id="SVGID_5_" gradientUnits="userSpaceOnUse" x1="221.4336" y1="61.7119" x2="221.4336" y2="41.3691" gradientTransform="matrix(1 0 0 1 -194.6367 0)">
	<stop  offset="0" style="stop-color:#FFB069"/>
	<stop  offset="1" style="stop-color:#FFB069;stop-opacity:0.1"/>
	<a:midPointStop  offset="0" style="stop-color:#FFB069"/>
	<a:midPointStop  offset="0.5" style="stop-color:#FFB069"/>
	<a:midPointStop  offset="1" style="stop-color:#FFB069;stop-opacity:0.1"/>
</linearGradient>
<path fill="url(#SVGID_5_)" d="M24.835,41.369c4.659,35.514,2.721,17.186,3.925,0.199C27.157,41.535,26.435,41.471,24.835,41.369z"
	/>
<linearGradient id="SVGID_6_" gradientUnits="userSpaceOnUse" x1="226.5781" y1="59.5977" x2="226.5781" y2="39.6504" gradientTransform="matrix(-1 0 0 1 277.2637 0)">
	<stop  offset="0" style="stop-color:#FFB069"/>
	<stop  offset="1" style="stop-color:#FFB069;stop-opacity:0.1"/>
	<a:midPointStop  offset="0" style="stop-color:#FFB069"/>
	<a:midPointStop  offset="0.5" style="stop-color:#FFB069"/>
	<a:midPointStop  offset="1" style="stop-color:#FFB069;stop-opacity:0.1"/>
</linearGradient>
<path fill="url(#SVGID_6_)" d="M53.12,39.65c-8.045,39.469-3.752,9.721-3.507,0.729C51.082,40.166,51.665,39.922,53.12,39.65z"/>
<linearGradient id="SVGID_7_" gradientUnits="userSpaceOnUse" x1="230.7949" y1="60.6182" x2="230.7949" y2="40.0625" gradientTransform="matrix(-1 0 0 1 277.2637 0)">
	<stop  offset="0" style="stop-color:#FFB069"/>
	<stop  offset="1" style="stop-color:#FFB069;stop-opacity:0.1"/>
	<a:midPointStop  offset="0" style="stop-color:#FFB069"/>
	<a:midPointStop  offset="0.5" style="stop-color:#FFB069"/>
	<a:midPointStop  offset="1" style="stop-color:#FFB069;stop-opacity:0.1"/>
</linearGradient>
<path fill="url(#SVGID_7_)" d="M48.733,40.063c-7.046,37.902-3.738,14.387-3.859,0.592C46.46,40.49,47.159,40.293,48.733,40.063z"/>
<linearGradient id="SVGID_8_" gradientUnits="userSpaceOnUse" x1="235.2451" y1="61.4238" x2="235.2451" y2="40.9727" gradientTransform="matrix(-1 0 0 1 277.2637 0)">
	<stop  offset="0" style="stop-color:#FFB069"/>
	<stop  offset="1" style="stop-color:#FFB069;stop-opacity:0.1"/>
	<a:midPointStop  offset="0" style="stop-color:#FFB069"/>
	<a:midPointStop  offset="0.5" style="stop-color:#FFB069"/>
	<a:midPointStop  offset="1" style="stop-color:#FFB069;stop-opacity:0.1"/>
</linearGradient>
<path fill="url(#SVGID_8_)" d="M43.994,40.973c-5.854,36.717-3.288,15.805-3.899,0.396C41.689,41.271,42.404,41.137,43.994,40.973z"
	/>
<linearGradient id="SVGID_9_" gradientUnits="userSpaceOnUse" x1="240.0137" y1="61.7119" x2="240.0137" y2="41.3691" gradientTransform="matrix(-1 0 0 1 277.2637 0)">
	<stop  offset="0" style="stop-color:#FFB069"/>
	<stop  offset="1" style="stop-color:#FFB069;stop-opacity:0.1"/>
	<a:midPointStop  offset="0" style="stop-color:#FFB069"/>
	<a:midPointStop  offset="0.5" style="stop-color:#FFB069"/>
	<a:midPointStop  offset="1" style="stop-color:#FFB069;stop-opacity:0.1"/>
</linearGradient>
<path fill="url(#SVGID_9_)" d="M39.213,41.369c-4.659,35.514-2.721,17.186-3.927,0.199C36.891,41.535,37.613,41.471,39.213,41.369z"
	/>
<linearGradient id="SVGID_10_" gradientUnits="userSpaceOnUse" x1="31.9995" y1="61.7979" x2="31.9995" y2="40.9492">
	<stop  offset="0" style="stop-color:#FFB069"/>
	<stop  offset="1" style="stop-color:#FFB069;stop-opacity:0.1"/>
	<a:midPointStop  offset="0" style="stop-color:#FFB069"/>
	<a:midPointStop  offset="0.5" style="stop-color:#FFB069"/>
	<a:midPointStop  offset="1" style="stop-color:#FFB069;stop-opacity:0.1"/>
</linearGradient>
<path fill="url(#SVGID_10_)" d="M30.031,40.949c2.937,28.906,1.227,26.668,3.936,0C32.362,40.98,31.636,40.98,30.031,40.949z"/>
<radialGradient id="SVGID_11_" cx="34.5146" cy="170.708" r="30.9949" gradientTransform="matrix(0.9167 0 0 0.1728 0.1971 7.7974)" gradientUnits="userSpaceOnUse">
	<stop  offset="0" style="stop-color:#AB5400"/>
	<stop  offset="0.7799" style="stop-color:#F4A45C"/>
	<stop  offset="0.8909" style="stop-color:#FFB069"/>
	<a:midPointStop  offset="0" style="stop-color:#AB5400"/>
	<a:midPointStop  offset="0.5102" style="stop-color:#AB5400"/>
	<a:midPointStop  offset="0.8909" style="stop-color:#FFB069"/>
</radialGradient>
<path fill="url(#SVGID_11_)" d="M10,39.658c0,0.504,1.248,0.58,2.46,1.014c0.649,0.234,1.218,1.291,2.155,1.492
	c0.733,0.158,1.708-0.549,2.598-0.414c0.771,0.121,1.479,1.092,2.351,1.189c0.786,0.09,1.696-0.697,2.554-0.621
	c0.797,0.063,1.563,0.992,2.413,1.043c0.806,0.049,1.676-0.781,2.521-0.75c0.811,0.029,1.614,0.926,2.458,0.939
	c0.814,0.016,1.65-0.848,2.49-0.848s1.676,0.863,2.49,0.848c0.844-0.014,1.649-0.91,2.46-0.939c0.846-0.031,1.716,0.799,2.52,0.75
	c0.851-0.051,1.616-0.98,2.413-1.043c0.859-0.076,1.768,0.711,2.553,0.621c0.87-0.098,1.577-1.068,2.346-1.186
	c0.89-0.137,1.862,0.57,2.599,0.41c0.936-0.201,1.507-1.258,2.154-1.49C52.748,40.238,54,40.166,54,39.658
	C54,30.152,10,30.15,10,39.658z"/>
<radialGradient id="SVGID_12_" cx="25.0625" cy="17.5352" r="25.1316" gradientTransform="matrix(0.9816 0 0 0.9647 1.4075 0.6185)" gradientUnits="userSpaceOnUse">
	<stop  offset="0" style="stop-color:#FFA3DA"/>
	<stop  offset="0.2492" style="stop-color:#FF9ED8"/>
	<stop  offset="0.543" style="stop-color:#FF90D2"/>
	<stop  offset="0.8581" style="stop-color:#FF78C9"/>
	<stop  offset="1" style="stop-color:#FF6BC4"/>
	<a:midPointStop  offset="0" style="stop-color:#FFA3DA"/>
	<a:midPointStop  offset="0.6727" style="stop-color:#FFA3DA"/>
	<a:midPointStop  offset="1" style="stop-color:#FF6BC4"/>
</radialGradient>
<path fill="url(#SVGID_12_)" d="M12.48,33.781c0,0-2.361,0.586-2.361,1.637c0,1.049,2.361,1.049,2.361,1.049s-0.708,0.875,0,1.635
	c0,0,1.005-0.584,2.128-0.994c0,0,0.53,1.926,3.131,1.926c1.477,0,3.071-0.641,3.071-0.641s3.014,1.051,5.906,1.051
	c2.896,0,6.776-1.635,6.776-1.635s1.732,1.168,5.396,1.168c3.662,0,8.624-1.869,8.624-1.869s0.885,0.525,2.657,0.525
	c4.02,0,6.026-5.836-0.588-8.811c0,0,3.307-6.711-5.614-11.145c0,0,0.992-2.727-6.318-6.652C34.564,9.369,33.873,5.307,34.791,2
	c0,0-1.463,1.355-3.683,4.842c-3.012,4.727-7.344,5.059-6.638,8.5c0,0-5.904,1.869-5.904,6.828c0,0-4.196,2.684-3.131,5.777
	C15.436,27.947,10.354,30.457,12.48,33.781z"/>
<path fill="#FF6BC3" d="M12.48,36.467c18.597-10.414,34.922-5.768,36.163-13.207c0.892,4.916-6.459,6.939-11.711,8.123
	C35.839,31.637,15.121,36.018,12.48,36.467z"/>
<path fill="#F75EB9" d="M20.811,38.393c12.148-6.184,25.825-5.611,28.771-9.57C48.16,34.676,27.663,38.334,20.811,38.393z"/>
<path fill="#F75EB9" d="M50.96,31.014c1.998,6.707-7.269,11.271-17.467,6.795C39.651,36.75,49.582,37.129,50.96,31.014z"/>
<path fill="#FF6BC3" d="M44.135,19.359c1.416-0.023,2.799,0.906,3.072,2.447c0.249,1.049-0.215,2.412-2.639,3.559
	c-4.305,1.98-23.061,3.672-30.292,5.41c7.464-4.402,25.72-6.398,29.469-7.482C47.092,22.299,45.58,20.234,44.135,19.359z"/>
<path fill="#FF6BC3" d="M34.791,2c-0.716,3.176-0.043,6.703,2.464,9.398c1.684,1.795,5.208,3.254,4.285,7.305
	c-0.556,2.496-2.653,4.625-5.189,4.92c-2.838,0.313-5.123-2.418-3.371-5.566c1.034-1.766,2.442-1.951,2.04-2.684
	c-0.657-1.373-3.665-2.586-1.904-7.52c0.188,6.498,4.723,5.232,4.062,8.438c-0.393,1.746-3.053,3.322-1.884,4.422
	c1.337,1.066,4.701-1.832,3.771-4.461C38.555,14.648,30.975,9.422,34.791,2z"/>
<path fill="#FF6BC3" d="M34.791,2c-0.589,2.789-4.267,6.146-4.236,8.498c0.12,2.268,3.422,5.275,0.657,7.559
	c0.309-3.521-3.207-3.393-3.413-7.752C27.879,6.414,32.821,3.609,34.791,2z"/>
<path fill="#FF6BC3" d="M31.173,21.906c-4.886,1.537-7.751,3.301-10.828,2.635c-4.952-1.027-1.842-8.852,3.277-8.861
	c-2.754,2.232-4.921,6.186-1.422,6.549C24.081,22.387,27.767,20.818,31.173,21.906z"/>
<path fill="#FF6BC3" d="M29.634,19.609c-2.805-1.777-6.368-2.502-6.33-5.771c0.015-2.309,2.419-3.803,4.365-3.277
	C23.622,15.68,27.799,15.24,29.634,19.609z"/>
<path fill="#FFFFFF" d="M27.988,13.104c-1.418,0-1.495,2.202,0,2.202C29.482,15.306,29.594,13.104,27.988,13.104z"/>
<path fill="#FFFFFF" d="M38.137,17.509c-1.418,0-1.496,2.203,0,2.203C39.631,19.712,39.741,17.509,38.137,17.509z"/>
<path fill="#FFFFFF" d="M21.223,25.219c-1.416,0-1.494,2.203,0,2.203C22.719,27.422,22.828,25.219,21.223,25.219z"/>
<path fill="#FFFFFF" d="M16.713,30.729c-1.418,0-1.494,2.201,0,2.201C18.208,32.93,18.319,30.729,16.713,30.729z"/>
<path fill="#FFFFFF" d="M22.352,35.133c-1.418,0-1.495,2.203,0,2.203C23.846,37.336,23.956,35.133,22.352,35.133z"/>
<path fill="#FFFFFF" d="M50.188,33.101c-1.419,0-1.495,2.203,0,2.203C51.681,35.304,51.793,33.101,50.188,33.101z"/>
<path fill="#FFFFFF" d="M29.133,15.857c-0.709,0-0.746,1.103,0,1.103C29.881,16.959,29.936,15.857,29.133,15.857z"/>
<path fill="#FFFFFF" d="M28.006,23.566c-0.709,0-0.748,1.103,0,1.103C28.752,24.669,28.807,23.566,28.006,23.566z"/>
<path fill="#FFFFFF" d="M18.673,36.235c-0.709,0-0.747,1.103,0,1.103C19.421,37.337,19.474,36.235,18.673,36.235z"/>
<path fill="#FFFFFF" d="M35.617,32.93c-0.709,0-0.748,1.101,0,1.101C36.363,34.03,36.421,32.93,35.617,32.93z"/>
<path fill="#FFFFFF" d="M30.459,29.312c-0.709,0-0.746,1.103,0,1.103C31.207,30.414,31.262,29.312,30.459,29.312z"/>
<path fill="#FFFFFF" d="M15.103,34.753c-0.709,0-0.748,1.102,0,1.102C15.849,35.854,15.903,34.753,15.103,34.753z"/>
<path fill="#FFFFFF" d="M33.643,14.756c-0.709,0-0.748,1.102,0,1.102C34.389,15.857,34.444,14.756,33.643,14.756z"/>
<path fill="#FFFFFF" d="M26.879,34.582c-0.709,0-0.748,1.102,0,1.102C27.625,35.684,27.68,34.582,26.879,34.582z"/>
<path fill="#FFFFFF" d="M31.389,33.48c-0.711,0-0.748,1.103,0,1.103C32.137,34.582,32.19,33.48,31.389,33.48z"/>
<path fill="#FFFFFF" d="M20.113,31.277c-0.709,0-0.747,1.103,0,1.103C20.861,32.38,20.914,31.277,20.113,31.277z"/>
<path fill="#FFFFFF" d="M24.623,30.177c-0.709,0-0.748,1.103,0,1.103C25.37,31.277,25.426,30.177,24.623,30.177z"/>
<path fill="#FFFFFF" d="M39.844,35.916c-0.709,0-0.746,1.103,0,1.103C40.592,37.018,40.646,35.916,39.844,35.916z"/>
<path fill="#FFFFFF" d="M44.92,34.582c-0.71,0-0.75,1.102,0,1.102C45.665,35.684,45.721,34.582,44.92,34.582z"/>
<path fill="#FFFFFF" d="M33.643,23.097c-0.711,0-0.748,1.102,0,1.102C34.389,24.196,34.444,23.097,33.643,23.097z"/>
<path fill="#FFFFFF" d="M17.859,25.771c-0.709,0-0.748,1.102,0,1.102C18.605,26.872,18.66,25.771,17.859,25.771z"/>
<path fill="#FFFFFF" d="M22.159,19.418c-0.989,0.993,0.574,2.581,1.616,1.535C24.817,19.906,23.279,18.292,22.159,19.418z"/>
<path fill="#FFFFFF" d="M25.546,20.765c-0.492,0.496,0.289,1.289,0.81,0.767C26.878,21.007,26.106,20.201,25.546,20.765z"/>
<path fill="#FFFFFF" d="M38.354,22.878c-0.457,1.39,1.654,2.168,2.146,0.674C40.936,22.234,38.811,21.488,38.354,22.878z"/>
<path fill="#FFFFFF" d="M34.938,27.237c-0.227,0.695,0.828,1.084,1.076,0.336C36.229,26.915,35.168,26.542,34.938,27.237z"/>
<path fill="#FFFFFF" d="M41.536,26.872c-0.71,0-0.748,1.102,0,1.102C42.282,27.974,42.338,26.872,41.536,26.872z"/>
<path fill="#FFFFFF" d="M47.174,24.668c-0.709,0-0.748,1.102,0,1.102C47.919,25.769,47.973,24.668,47.174,24.668z"/>
<path fill="#FFFFFF" d="M40.971,31.104c-0.709,0-0.746,1.102,0,1.102C41.719,32.204,41.773,31.104,40.971,31.104z"/>
<path fill="#FFFFFF" d="M46.045,30.414c-0.71,0-0.748,1.102,0,1.102C46.792,31.516,46.847,30.414,46.045,30.414z"/>
<path fill="#FFFFFF" d="M49.095,28.249c0-0.692-1.129-0.729-1.129,0S49.095,29.033,49.095,28.249z"/>
<path fill="#FFFFFF" d="M37.873,12.806c0-0.692-1.129-0.729-1.129,0C36.744,13.537,37.873,13.59,37.873,12.806z"/>
<path fill="#FFFFFF" d="M43.227,23.097c-0.709,0-0.747,1.102,0,1.102C43.973,24.196,44.028,23.097,43.227,23.097z"/>
<path fill="#FFFFFF" d="M44.92,20.356c-0.71,0-0.75,1.104,0,1.104C45.665,21.46,45.721,20.356,44.92,20.356z"/>
<path fill="#FFFFFF" d="M31.371,19.712c-1.419,0-1.495,2.203,0,2.203C32.865,21.915,32.975,19.712,31.371,19.712z"/>
<path fill="#FFFFFF" d="M32.629,8.386c-0.709,0-0.746,1.103,0,1.103C33.377,9.486,33.432,8.386,32.629,8.386z"/>
</svg>
