<?xml version="1.0" encoding="utf-8"?>
<!-- Generator: Adobe Illustrator 15.0.0, SVG Export Plug-In . SVG Version: 6.00 Build 0)  -->
<!DOCTYPE svg PUBLIC "-//W3C//DTD SVG 1.1//EN" "http://www.w3.org/Graphics/SVG/1.1/DTD/svg11.dtd" [
	<!ENTITY ns_flows "http://ns.adobe.com/Flows/1.0/">
	<!ENTITY ns_extend "http://ns.adobe.com/Extensibility/1.0/">
	<!ENTITY ns_ai "http://ns.adobe.com/AdobeIllustrator/10.0/">
	<!ENTITY ns_graphs "http://ns.adobe.com/Graphs/1.0/">
]>
<svg version="1.1" id="Layer_1" xmlns:x="&ns_extend;" xmlns:i="&ns_ai;" xmlns:graph="&ns_graphs;"
	 xmlns="http://www.w3.org/2000/svg" xmlns:xlink="http://www.w3.org/1999/xlink" xmlns:a="http://ns.adobe.com/AdobeSVGViewerExtensions/3.0/"
	 x="0px" y="0px" width="64px" height="64px" viewBox="0 0 64 64" enable-background="new 0 0 64 64" xml:space="preserve">
<path fill="#614A36" d="M25.359,28.034c-0.734-1.438-2.797-1.438-2.797-1.438c-0.984,3.016-1.541,8.406-1.551,9.146
	c-0.01,0.718-0.682,2.728-0.471,3.223c0.896,2.094,0.811,2.356,1.908,3.134c0.832,0.59,0.572-0.166,0.195-0.564
	c-0.584-0.617-0.955-2.036-0.189-2.168c0.098,1.582,1.143,1.881,1.066,1.295c-0.201-1.514,0-2.432-0.682-3.245
	c-0.275-0.329-0.295-2.397,0.975-5.188C24.584,30.531,25.031,29.409,25.359,28.034z"/>
<path fill="#614A36" d="M38.643,28.034c0.734-1.438,2.797-1.438,2.797-1.438c0.984,3.016,1.539,8.406,1.549,9.146
	c0.01,0.718,0.682,2.728,0.471,3.223c-0.896,2.094-0.811,2.356-1.908,3.134c-0.832,0.59-0.572-0.166-0.195-0.564
	c0.584-0.617,0.955-2.036,0.189-2.168c-0.098,1.582-1.143,1.881-1.066,1.295c0.201-1.514,0-2.432,0.682-3.245
	c0.275-0.329,0.295-2.397-0.973-5.188C39.416,30.531,38.971,29.409,38.643,28.034z"/>
<path fill="#302C3B" d="M37.609,33.957H26.391c-0.977,5.166-0.254,12.302-1.488,24.896c-0.154,1.586,5.656,1.596,5.605,0
	c-0.242-7.347,0.445-12.938,0.938-17.416c0.037-0.334,1.072-0.334,1.109,0c0.492,4.478,1.182,10.069,0.939,17.416
	c-0.053,1.596,5.758,1.586,5.604,0C37.863,46.259,38.588,39.123,37.609,33.957z"/>
<path fill="#FF7A00" d="M39.037,19.847c-0.906-1.135-4.635-2.271-4.635-2.271H29.6c0,0-3.73,1.137-4.637,2.271
	c-0.791,0.992-2.318,5.816-2.658,6.982c0.047,0.055,1.227,0.112,3.287,1.702c0,0,0.643-1.935,0.893-2.447
	c0.588,3.813-0.299,7.448-0.094,7.873c0.586,1.213,10.627,1.227,11.219,0c0.205-0.425-0.68-4.06-0.094-7.873
	c0.25,0.513,0.893,2.447,0.893,2.447c2.061-1.59,3.242-1.647,3.287-1.702C41.355,25.663,39.828,20.839,39.037,19.847z"/>
<path fill="#6E8189" d="M24.645,61.602c0.186,0.452,5.762,0.637,5.971-0.084C31.426,58.725,23.734,59.372,24.645,61.602z"/>
<path fill="#99A8AE" d="M24.727,61.053c0.041,0.392,5.832,0.597,5.896,0C31.119,56.3,24.273,56.696,24.727,61.053z"/>
<path fill="#1A1626" d="M29.881,58.226c-0.645-1.102-3.701-1.096-4.342,0c-0.119,0.192-0.318,0.716,0.457,0.286
	c-0.768,0.602-0.768,1.127,0,0.678c-0.775,0.578-0.576,0.943-0.457,0.896c1.176-0.582,3.166-0.582,4.342,0
	c0.119,0.047,0.318-0.318-0.455-0.896c0.768,0.449,0.768-0.076,0-0.678C30.199,58.941,30,58.418,29.881,58.226z"/>
<path fill="#6E8189" d="M39.355,61.602c-0.184,0.452-5.762,0.637-5.971-0.084C32.574,58.725,40.266,59.372,39.355,61.602z"/>
<path fill="#99A8AE" d="M39.275,61.053c-0.041,0.392-5.834,0.597-5.896,0C32.883,56.3,39.727,56.696,39.275,61.053z"/>
<path fill="#1A1626" d="M34.119,58.226c0.645-1.102,3.701-1.096,4.342,0c0.119,0.192,0.318,0.716-0.455,0.286
	c0.766,0.602,0.766,1.127,0,0.678c0.773,0.578,0.574,0.943,0.455,0.896c-1.176-0.582-3.166-0.582-4.342,0
	c-0.119,0.047-0.318-0.318,0.455-0.896c-0.766,0.449-0.766-0.076,0-0.678C33.801,58.941,34,58.418,34.119,58.226z"/>
<path fill="#ED6A00" d="M29,17.78c0,3.038,6,3.023,6-0.014l-0.539-0.191h-4.889L29,17.78z"/>
<path fill="#302116" d="M29.5,17.906c0,2.175,5,2.175,5,0c0-0.74,0-2.406,0-2.406h-5C29.5,15.5,29.5,17.166,29.5,17.906z"/>
<path fill="#1A1714" d="M37.672,14.245c0.402,0.268,0.869,0.467,1.412,0.568c-0.965-2.199,0.49-6.813-2.492-10.201
	c-4.201,0.126-4.781,13.717,1.076,11.909c-0.373-0.162-0.607-0.492-0.744-0.908c0.451,0.13,0.979,0.134,1.594-0.055
	C38.027,15.347,37.779,14.848,37.672,14.245z"/>
<path fill="#1A1714" d="M27.123,4.612c-2.98,3.389-1.242,8.002-2.207,10.201c0.543-0.102,1.01-0.301,1.414-0.568
	c-0.107,0.603-0.357,1.102-0.846,1.313c0.613,0.188,1.141,0.185,1.592,0.055c-0.137,0.416-0.369,0.746-0.742,0.908
	C32.189,18.329,31.326,4.738,27.123,4.612z"/>
<path id="Path_2722_" fill="#614A36" d="M38.131,9.243c-0.949,0.114-1.635,3.293-1.037,4.131c0.082,0.117,0.572,0.305,0.934-0.436
	c0.201-0.41,0.781-0.752,0.961-1.598C39.219,10.257,39.074,9.128,38.131,9.243z"/>
<path id="Path_2721_" fill="#614A36" d="M25.871,9.243c0.949,0.114,1.633,3.293,1.037,4.131c-0.084,0.117-0.574,0.305-0.936-0.436
	c-0.201-0.41-0.779-0.752-0.959-1.598C24.783,10.257,24.928,9.128,25.871,9.243z"/>
<path id="Path_2720_" fill="#302116" d="M38.105,9.852c-0.248,0.079-0.52,0.456-0.664,1.082c0.865-0.186,0.648,1.256-0.104,1.282
	c0.006,0.146,0.016,0.295,0.033,0.453c0.363-0.527,0.73-0.316,1.096-1.1C38.795,10.863,38.717,9.659,38.105,9.852z"/>
<path id="Path_2719_" fill="#302116" d="M26.561,10.932c-0.146-0.624-0.416-1.003-0.664-1.08c-0.613-0.192-0.691,1.012-0.363,1.718
	c0.365,0.783,0.732,0.572,1.096,1.1c0.018-0.158,0.027-0.308,0.035-0.453C25.918,12.181,25.707,10.757,26.561,10.932z"/>
<path fill="#614A36" d="M32,3.133c-4.111,0-6.092,3.349-5.844,7.655c0.051,0.865,0.291,2.114,0.588,3.184
	c0.617,2.224,3.871,4.462,5.256,4.462s4.639-2.238,5.256-4.462c0.297-1.069,0.539-2.318,0.59-3.184
	C38.092,6.481,36.113,3.133,32,3.133z"/>
<path id="Path_2718_" fill="#472B27" d="M36.467,8.926c-0.939-0.498-2.74-0.522-3.41-0.175c-0.143,0.066-0.047,0.538,0.072,0.494
	c0.936-0.37,2.441-0.379,3.316,0.031C36.563,9.329,36.611,8.995,36.467,8.926z"/>
<path id="Path_2717_" fill="#472B27" d="M27.533,8.926c0.939-0.498,2.738-0.522,3.41-0.175c0.143,0.066,0.049,0.538-0.072,0.494
	c-0.936-0.37-2.439-0.379-3.316,0.031C27.439,9.329,27.391,8.995,27.533,8.926z"/>
<path id="Path_2716_" fill="#302116" d="M33.109,13.245C32.992,13.163,32.717,13.29,32,13.29c-0.715,0-0.992-0.127-1.109-0.045
	c-0.141,0.1,0.084,0.547,1.109,0.547C33.027,13.792,33.252,13.345,33.109,13.245z"/>
<path id="Path_2715_" fill="#302116" d="M32,14.94c-0.924-0.272-2.295,0.129-2.295,0.129c0.521,0.568,0.904,1.306,2.295,1.306
	c1.594,0,1.865-0.837,2.297-1.306C34.297,15.069,32.924,14.666,32,14.94z"/>
<path id="Path_2714_" fill="#FFFFFF" d="M30.049,15.165c0.971,0.813,2.928,0.818,3.902,0C32.918,15.21,31.09,15.21,30.049,15.165z"
	/>
<path id="Path_2713_" fill="#FFFFFF" d="M31.086,10.622c0.035,0.272-0.15,0.595-0.662,0.837c-0.324,0.154-1,0.335-1.889-0.04
	c-0.398-0.168-0.785-0.69-0.75-0.979C28.266,9.532,30.635,9.399,31.086,10.622z"/>
<linearGradient id="Oval_1_" gradientUnits="userSpaceOnUse" x1="-423.936" y1="480.5088" x2="-423.936" y2="480.792" gradientTransform="matrix(6.5701 0 0 -6.5701 2814.7805 3168.5281)">
	<stop  offset="0" style="stop-color:#A6694A"/>
	<stop  offset="1" style="stop-color:#4F2A1E"/>
	<a:midPointStop  offset="0" style="stop-color:#A6694A"/>
	<a:midPointStop  offset="0.5" style="stop-color:#A6694A"/>
	<a:midPointStop  offset="1" style="stop-color:#4F2A1E"/>
</linearGradient>
<circle id="Oval_220_" fill="url(#Oval_1_)" cx="29.479" cy="10.604" r="0.931"/>
<path id="Path_2712_" fill="#1A1626" d="M29.014,10.587c0,0.644,0.93,0.644,0.93,0C29.943,9.989,29.014,9.989,29.014,10.587z"/>
<path id="Path_2711_" fill="#AB968C" d="M28.871,10.325c0,0.271,0.391,0.271,0.391,0C29.262,10.075,28.871,10.075,28.871,10.325z"/>
<path id="Path_2710_" fill="#302116" d="M31.09,10.657c-0.377-1.213-2.955-1.034-3.305-0.217
	C27.914,9.394,30.768,9.118,31.09,10.657z"/>
<path id="Path_2709_" fill="#FFFFFF" d="M32.914,10.622c-0.033,0.272,0.15,0.595,0.662,0.837c0.324,0.154,1,0.335,1.889-0.04
	c0.398-0.168,0.785-0.69,0.752-0.979C35.734,9.532,33.365,9.399,32.914,10.622z"/>
<linearGradient id="Oval_2_" gradientUnits="userSpaceOnUse" x1="-425.8701" y1="480.5088" x2="-425.8701" y2="480.792" gradientTransform="matrix(6.5701 0 0 -6.5701 2832.511 3168.5281)">
	<stop  offset="0" style="stop-color:#A6694A"/>
	<stop  offset="1" style="stop-color:#4F2A1E"/>
	<a:midPointStop  offset="0" style="stop-color:#A6694A"/>
	<a:midPointStop  offset="0.5" style="stop-color:#A6694A"/>
	<a:midPointStop  offset="1" style="stop-color:#4F2A1E"/>
</linearGradient>
<circle id="Oval_219_" fill="url(#Oval_2_)" cx="34.502" cy="10.604" r="0.931"/>
<path id="Path_2708_" fill="#1A1626" d="M34.037,10.587c0,0.644,0.932,0.644,0.932,0C34.969,9.989,34.037,9.989,34.037,10.587z"/>
<path id="Path_2707_" fill="#AB968C" d="M33.895,10.325c0,0.271,0.391,0.271,0.391,0C34.285,10.075,33.895,10.075,33.895,10.325z"/>
<path id="Path_2706_" fill="#302116" d="M32.912,10.657c0.377-1.213,2.951-1.039,3.305-0.217
	C36.086,9.394,33.232,9.118,32.912,10.657z"/>
<linearGradient id="SVGID_1_" gradientUnits="userSpaceOnUse" x1="31.9399" y1="11.6426" x2="31.9399" y2="2">
	<stop  offset="0" style="stop-color:#1A1714"/>
	<stop  offset="0.0953" style="stop-color:#1F1B18"/>
	<stop  offset="0.6555" style="stop-color:#37322C"/>
	<stop  offset="1" style="stop-color:#403A33"/>
	<a:midPointStop  offset="0" style="stop-color:#1A1714"/>
	<a:midPointStop  offset="0.4" style="stop-color:#1A1714"/>
	<a:midPointStop  offset="1" style="stop-color:#403A33"/>
</linearGradient>
<path fill="url(#SVGID_1_)" d="M32,2c-2.5,0-3.752,1.133-4.006,1.671c-3.023,0.691-3.996,5.795-1.732,7.972
	c0.281-2.319,0.553-3.81,2.094-5.38c0.9,1.205,2.768,1.883,4.441,1.883c-0.791-0.576-1.332-1.139-1.756-1.665
	c2.793,1.282,5.922,2.103,6.699,5.162C40.428,7.362,38.193,2,32,2z"/>
<path fill="#1A1714" d="M27.988,3.671c-0.039,2.136,0.824,3.734,4.811,4.475C29.941,8.339,27.01,6.612,27.988,3.671z"/>
<path fill="#1A1714" d="M28.238,6.126c-1.041,1.025-2.209,2.803-1.986,5.517c0.207-2.243,1.236-4.089,2.17-5.286
	C28.355,6.284,28.295,6.208,28.238,6.126z"/>
<path fill="#1A1714" d="M30.023,5.449c2.09,1.995,7.225,1.866,7.727,6.193C36.41,7.433,31.869,8.378,30.023,5.449z"/>
</svg>
