<?xml version="1.0" encoding="utf-8"?>
<!-- Generator: Adobe Illustrator 15.0.0, SVG Export Plug-In . SVG Version: 6.00 Build 0)  -->
<!DOCTYPE svg PUBLIC "-//W3C//DTD SVG 1.1//EN" "http://www.w3.org/Graphics/SVG/1.1/DTD/svg11.dtd" [
	<!ENTITY ns_flows "http://ns.adobe.com/Flows/1.0/">
	<!ENTITY ns_extend "http://ns.adobe.com/Extensibility/1.0/">
	<!ENTITY ns_ai "http://ns.adobe.com/AdobeIllustrator/10.0/">
	<!ENTITY ns_graphs "http://ns.adobe.com/Graphs/1.0/">
]>
<svg version="1.1" id="Layer_1" xmlns:x="&ns_extend;" xmlns:i="&ns_ai;" xmlns:graph="&ns_graphs;"
	 xmlns="http://www.w3.org/2000/svg" xmlns:xlink="http://www.w3.org/1999/xlink" xmlns:a="http://ns.adobe.com/AdobeSVGViewerExtensions/3.0/"
	 x="0px" y="0px" width="64px" height="64px" viewBox="0 0 64 64" enable-background="new 0 0 64 64" xml:space="preserve">
<path fill="#CFD8DD" d="M61.962,25.896c0.472,1.755-3.563,4.932-5.562,5.967l-33.6,17.407c-1.51,0.781-4.355,1.104-6.412,0.109
	c-6.363-3.065-10.305-5.287-13.277-10.161c-0.764-1.252-2.127-2.841,0.128-4.629C3.239,34.589,56.76,20.793,61.962,25.896z"/>
<path fill="#E6EBEF" d="M61.186,24.54c0.729,0.716,1.543,2.197-0.457,3.233L22.258,47.702c-1.511,0.782-4.356,1.106-6.414,0.114
	C9.48,44.748,5.539,42.524,2.567,37.652c-0.764-1.252-0.223-2.809,1.966-3.939c0,0,26.581-12.999,35.65-17.147
	c2.039-0.933,3.753-0.574,5.406,0.09C48.775,17.929,55.983,19.438,61.186,24.54z"/>
<path fill="#F2F5F7" d="M40.436,21.114C31.771,25.077,6.371,37.499,6.371,37.499c-1.024,0.53-1.67,1.158-1.977,1.802
	c3.256,3.939,6.256,5.47,11.675,8.081c2.024,0.977,4.828,0.659,6.315-0.112l37.263-19.303c-5.095-4.479-11.149-5.606-14.046-6.769
	C44.021,20.566,42.385,20.224,40.436,21.114z"/>
<path fill="#FFE363" d="M52.279,25.715c0.131-0.126,0.444-9.449-0.041-9.924c-0.346-0.341-17.492,11.271-17.662,11.605
	c-0.17,0.339-0.24,10.278,0.428,10.278C35.959,37.675,51.471,26.515,52.279,25.715z"/>
<path fill="#FCC947" d="M35.004,37.675c0.258,0-0.064-9.918-0.428-10.278c-0.441-0.434-9.15-2.797-9.15-2.398
	c0,0.955,0.831,9.914,1.453,10.528C27.328,35.97,34.122,37.675,35.004,37.675z"/>
<path fill="#FDEB99" d="M25.426,24.998c0,0.289,8.696,2.398,9.15,2.398c0.521,0,17.838-11.434,17.662-11.605
	c-0.911-0.9-7.084-1.883-7.869-1.784C43.35,14.137,25.426,24.368,25.426,24.998z"/>
<path fill="#FCC947" d="M20.462,33.138c-0.506,0.568-1.339,2.609-0.968,2.946c0.369,0.336,9.59,5.295,9.875,5.238
	c0.285-0.06,1.014-2.485,1.014-2.683C30.383,38.443,20.86,32.685,20.462,33.138z"/>
<path fill="#FFE363" d="M34.715,35.55c0,0.506-0.512,2.05-1.168,2.641c-0.654,0.589-3.966,3.132-4.178,3.132
	c-0.142,0,0.723-2.675,0.863-2.814C30.451,38.291,34.715,35.3,34.715,35.55z"/>
<path fill="#FDEB99" d="M25.166,30.469c-0.665-0.035-4.554,2.466-4.704,2.669c-0.149,0.196,9.42,5.449,9.67,5.477
	c0.251,0.025,4.556-2.615,4.583-3.064C34.744,35.101,25.708,30.498,25.166,30.469z"/>
<path fill="#FCC947" d="M11.586,35.662c-0.383,0.132,0.597,7.651,1.225,8.271c0.34,0.333,0.267-3.134,0.209-3.359
	C12.963,40.352,12.054,35.501,11.586,35.662z"/>
<path fill="#FDEB99" d="M11.586,35.662c-0.201,0.201,1.049,4.928,1.264,5.138c0.469,0.463,11.205-0.752,11.205-1.01
	c0-0.49-1.969-4.994-2.567-5.248C20.889,34.285,11.76,35.491,11.586,35.662z"/>
<path fill="#FFE363" d="M12.811,43.934c0.355,0.349,9.932-0.774,10.387-1.028c0.458-0.252,0.857-2.552,0.857-3.115
	c0-0.358-11.205,1.01-11.205,1.01S12.611,43.736,12.811,43.934z"/>
</svg>
