<?xml version="1.0" encoding="utf-8"?>
<!-- Generator: Adobe Illustrator 15.0.0, SVG Export Plug-In . SVG Version: 6.00 Build 0)  -->
<!DOCTYPE svg PUBLIC "-//W3C//DTD SVG 1.1//EN" "http://www.w3.org/Graphics/SVG/1.1/DTD/svg11.dtd" [
	<!ENTITY ns_flows "http://ns.adobe.com/Flows/1.0/">
	<!ENTITY ns_extend "http://ns.adobe.com/Extensibility/1.0/">
	<!ENTITY ns_ai "http://ns.adobe.com/AdobeIllustrator/10.0/">
	<!ENTITY ns_graphs "http://ns.adobe.com/Graphs/1.0/">
]>
<svg version="1.1" id="Layer_1" xmlns:x="&ns_extend;" xmlns:i="&ns_ai;" xmlns:graph="&ns_graphs;"
	 xmlns="http://www.w3.org/2000/svg" xmlns:xlink="http://www.w3.org/1999/xlink" xmlns:a="http://ns.adobe.com/AdobeSVGViewerExtensions/3.0/"
	 x="0px" y="0px" width="64px" height="64px" viewBox="0 0 64 64" enable-background="new 0 0 64 64" xml:space="preserve">
<linearGradient id="SVGID_1_" gradientUnits="userSpaceOnUse" x1="31.0039" y1="35.2969" x2="51.2275" y2="35.2969">
	<stop  offset="0" style="stop-color:#B9F44C"/>
	<stop  offset="0.1759" style="stop-color:#95E76C"/>
	<stop  offset="0.3211" style="stop-color:#7EDE81"/>
	<stop  offset="0.4131" style="stop-color:#76DB88"/>
	<stop  offset="0.637" style="stop-color:#4AC5A3"/>
	<stop  offset="0.8767" style="stop-color:#20B0BC"/>
	<stop  offset="1" style="stop-color:#10A8C6"/>
	<a:midPointStop  offset="0" style="stop-color:#B9F44C"/>
	<a:midPointStop  offset="0.5" style="stop-color:#B9F44C"/>
	<a:midPointStop  offset="0.1759" style="stop-color:#95E76C"/>
	<a:midPointStop  offset="0.5" style="stop-color:#95E76C"/>
	<a:midPointStop  offset="0.3211" style="stop-color:#7EDE81"/>
	<a:midPointStop  offset="0.5" style="stop-color:#7EDE81"/>
	<a:midPointStop  offset="0.4131" style="stop-color:#76DB88"/>
	<a:midPointStop  offset="0.5" style="stop-color:#76DB88"/>
	<a:midPointStop  offset="0.637" style="stop-color:#4AC5A3"/>
	<a:midPointStop  offset="0.5" style="stop-color:#4AC5A3"/>
	<a:midPointStop  offset="0.8767" style="stop-color:#20B0BC"/>
	<a:midPointStop  offset="0.5" style="stop-color:#20B0BC"/>
	<a:midPointStop  offset="1" style="stop-color:#10A8C6"/>
</linearGradient>
<path fill="url(#SVGID_1_)" d="M49.381,45.567c-12.342,0.86-18.377-11.13-18.377-19.066c8.639-4.966,17.461,3.157,17.271,11.271
	C48.221,40.187,54.127,45.238,49.381,45.567z"/>
<path opacity="0.1" fill="#297124" d="M49.754,44.056c-3.863-1.409-5.648-4.766-7.543-8.32c-1.092-2.052-2.209-4.132-3.756-5.835
	c5-0.047,6.869,2.449,8.207,6.493c0.041,0.118,0.146,0.193,0.26,0.193c0.031,0,0.061-0.006,0.092-0.017
	c0.141-0.052,0.217-0.216,0.166-0.364c-1.428-4.312-3.566-7.127-9.273-6.869c-1.662-1.616-3.807-2.8-6.875-3.124
	c-0.15-0.018-0.287,0.101-0.301,0.26c-0.016,0.157,0.098,0.298,0.246,0.313c1.393,0.146,2.582,0.479,3.619,0.947
	c-0.855,2.615,0.227,4.167,1.484,5.946c1.221,1.726,2.604,3.683,2.604,7.184c0,0.157,0.123,0.283,0.273,0.283
	c0.152,0,0.275-0.126,0.275-0.283c0-3.688-1.504-5.814-2.711-7.523c-1.203-1.703-2.154-3.065-1.428-5.369
	c3.234,1.673,4.906,4.79,6.639,8.047c1.859,3.488,3.781,7.1,7.842,8.579c0.029,0.011,0.063,0.017,0.092,0.017
	c0.113,0,0.219-0.074,0.258-0.192C49.973,44.27,49.898,44.105,49.754,44.056z"/>
<linearGradient id="SVGID_2_" gradientUnits="userSpaceOnUse" x1="31.0039" y1="14.2939" x2="58" y2="14.2939">
	<stop  offset="0" style="stop-color:#B9F44C"/>
	<stop  offset="0.1759" style="stop-color:#95E76C"/>
	<stop  offset="0.3211" style="stop-color:#7EDE81"/>
	<stop  offset="0.4131" style="stop-color:#76DB88"/>
	<stop  offset="0.637" style="stop-color:#4AC5A3"/>
	<stop  offset="0.8767" style="stop-color:#20B0BC"/>
	<stop  offset="1" style="stop-color:#10A8C6"/>
	<a:midPointStop  offset="0" style="stop-color:#B9F44C"/>
	<a:midPointStop  offset="0.5" style="stop-color:#B9F44C"/>
	<a:midPointStop  offset="0.1759" style="stop-color:#95E76C"/>
	<a:midPointStop  offset="0.5" style="stop-color:#95E76C"/>
	<a:midPointStop  offset="0.3211" style="stop-color:#7EDE81"/>
	<a:midPointStop  offset="0.5" style="stop-color:#7EDE81"/>
	<a:midPointStop  offset="0.4131" style="stop-color:#76DB88"/>
	<a:midPointStop  offset="0.5" style="stop-color:#76DB88"/>
	<a:midPointStop  offset="0.637" style="stop-color:#4AC5A3"/>
	<a:midPointStop  offset="0.5" style="stop-color:#4AC5A3"/>
	<a:midPointStop  offset="0.8767" style="stop-color:#20B0BC"/>
	<a:midPointStop  offset="0.5" style="stop-color:#20B0BC"/>
	<a:midPointStop  offset="1" style="stop-color:#10A8C6"/>
</linearGradient>
<path fill="url(#SVGID_2_)" d="M56.648,2.289C37.615-0.607,31.004,19.047,31.004,26.501c8.744,0.423,15.301-0.571,15.523-5.846
	c0.201-4.805,7.652-2.271,6.371-9.26C52.371,8.517,61.311,2.996,56.648,2.289z"/>
<path opacity="0.2" fill="#297124" d="M47.357,9.201c3.002-1.419,6.105-2.887,8.787-5.368c0.113-0.104,0.123-0.285,0.023-0.403
	c-0.102-0.121-0.275-0.131-0.389-0.025c-2.619,2.424-5.547,3.808-8.648,5.275c-6.162,2.913-12.529,5.927-16.336,17.575
	c0.244,0.045,0.383,0.235,0.414,0.452c2.006-1.118,3.844-3.128,5.787-5.258c0.463-0.51,0.932-1.021,1.402-1.522
	c1.727,0.103,2.533,1.016,3.246,1.827c0.605,0.697,1.189,1.368,2.201,1.368c0.5,0,1.102-0.162,1.861-0.564
	c0.133-0.071,0.189-0.244,0.119-0.387c-0.066-0.141-0.23-0.196-0.365-0.125c-1.934,1.022-2.52,0.345-3.412-0.677
	c-0.682-0.779-1.529-1.713-3.166-1.954c3.457-3.6,7.225-6.488,12.447-4.21c0.137,0.061,0.301-0.007,0.359-0.152
	s-0.008-0.315-0.146-0.376c-6.533-2.845-11,2.054-14.943,6.375c-1.725,1.896-3.369,3.688-5.092,4.81
	C35.258,14.927,41.406,12.014,47.357,9.201z"/>
<linearGradient id="SVGID_3_" gradientUnits="userSpaceOnUse" x1="794.334" y1="32.644" x2="811.7529" y2="32.644" gradientTransform="matrix(-1 0 0 1 825.2188 0)">
	<stop  offset="0" style="stop-color:#B9F44C"/>
	<stop  offset="0.1759" style="stop-color:#95E76C"/>
	<stop  offset="0.3211" style="stop-color:#7EDE81"/>
	<stop  offset="0.4131" style="stop-color:#76DB88"/>
	<stop  offset="0.637" style="stop-color:#4AC5A3"/>
	<stop  offset="0.8767" style="stop-color:#20B0BC"/>
	<stop  offset="1" style="stop-color:#10A8C6"/>
	<a:midPointStop  offset="0" style="stop-color:#B9F44C"/>
	<a:midPointStop  offset="0.5" style="stop-color:#B9F44C"/>
	<a:midPointStop  offset="0.1759" style="stop-color:#95E76C"/>
	<a:midPointStop  offset="0.5" style="stop-color:#95E76C"/>
	<a:midPointStop  offset="0.3211" style="stop-color:#7EDE81"/>
	<a:midPointStop  offset="0.5" style="stop-color:#7EDE81"/>
	<a:midPointStop  offset="0.4131" style="stop-color:#76DB88"/>
	<a:midPointStop  offset="0.5" style="stop-color:#76DB88"/>
	<a:midPointStop  offset="0.637" style="stop-color:#4AC5A3"/>
	<a:midPointStop  offset="0.5" style="stop-color:#4AC5A3"/>
	<a:midPointStop  offset="0.8767" style="stop-color:#20B0BC"/>
	<a:midPointStop  offset="0.5" style="stop-color:#20B0BC"/>
	<a:midPointStop  offset="1" style="stop-color:#10A8C6"/>
</linearGradient>
<path fill="url(#SVGID_3_)" d="M15.057,41.49c10.629,0.741,15.828-9.585,15.828-16.423c-7.441-4.277-15.039,2.72-14.879,9.709
	C16.057,36.852,10.969,41.204,15.057,41.49z"/>
<path opacity="0.1" fill="#297124" d="M14.732,40.188c3.328-1.215,4.867-4.105,6.5-7.165c0.939-1.77,1.902-3.561,3.236-5.026
	c-4.307-0.041-5.918,2.107-7.07,5.59c-0.037,0.103-0.127,0.167-0.225,0.167c-0.027,0-0.053-0.004-0.08-0.014
	c-0.121-0.045-0.186-0.186-0.143-0.313c1.229-3.714,3.072-6.139,7.988-5.917c1.432-1.394,3.279-2.41,5.922-2.689
	c0.129-0.017,0.246,0.084,0.26,0.224c0.012,0.134-0.084,0.257-0.213,0.269c-1.203,0.126-2.223,0.413-3.117,0.814
	c0.736,2.257-0.197,3.59-1.281,5.123c-1.049,1.485-2.24,3.173-2.24,6.188c0,0.136-0.105,0.246-0.236,0.246
	c-0.129,0-0.236-0.11-0.236-0.246c0-3.179,1.295-5.009,2.336-6.48c1.033-1.467,1.855-2.641,1.227-4.625
	c-2.787,1.441-4.223,4.127-5.717,6.93c-1.6,3.006-3.258,6.117-6.754,7.389c-0.025,0.011-0.053,0.017-0.078,0.017
	c-0.098,0-0.189-0.064-0.223-0.166C14.545,40.372,14.609,40.231,14.732,40.188z"/>
<linearGradient id="SVGID_4_" gradientUnits="userSpaceOnUse" x1="794.334" y1="14.5527" x2="817.5859" y2="14.5527" gradientTransform="matrix(-1 0 0 1 825.2188 0)">
	<stop  offset="0" style="stop-color:#B9F44C"/>
	<stop  offset="0.1759" style="stop-color:#95E76C"/>
	<stop  offset="0.3211" style="stop-color:#7EDE81"/>
	<stop  offset="0.4131" style="stop-color:#76DB88"/>
	<stop  offset="0.637" style="stop-color:#4AC5A3"/>
	<stop  offset="0.8767" style="stop-color:#20B0BC"/>
	<stop  offset="1" style="stop-color:#10A8C6"/>
	<a:midPointStop  offset="0" style="stop-color:#B9F44C"/>
	<a:midPointStop  offset="0.5" style="stop-color:#B9F44C"/>
	<a:midPointStop  offset="0.1759" style="stop-color:#95E76C"/>
	<a:midPointStop  offset="0.5" style="stop-color:#95E76C"/>
	<a:midPointStop  offset="0.3211" style="stop-color:#7EDE81"/>
	<a:midPointStop  offset="0.5" style="stop-color:#7EDE81"/>
	<a:midPointStop  offset="0.4131" style="stop-color:#76DB88"/>
	<a:midPointStop  offset="0.5" style="stop-color:#76DB88"/>
	<a:midPointStop  offset="0.637" style="stop-color:#4AC5A3"/>
	<a:midPointStop  offset="0.5" style="stop-color:#4AC5A3"/>
	<a:midPointStop  offset="0.8767" style="stop-color:#20B0BC"/>
	<a:midPointStop  offset="0.5" style="stop-color:#20B0BC"/>
	<a:midPointStop  offset="1" style="stop-color:#10A8C6"/>
</linearGradient>
<path fill="url(#SVGID_4_)" d="M8.797,4.213c16.395-2.495,22.088,14.435,22.088,20.854c-7.531,0.363-13.18-0.494-13.371-5.034
	c-0.174-4.138-6.592-1.959-5.486-7.976C12.48,9.579,4.781,4.825,8.797,4.213z"/>
<path opacity="0.2" fill="#297124" d="M16.797,10.167C14.213,8.945,11.539,7.68,9.23,5.544c-0.098-0.09-0.105-0.246-0.02-0.348
	c0.086-0.104,0.236-0.111,0.332-0.022c2.258,2.087,4.779,3.279,7.449,4.543c5.307,2.51,10.793,5.105,14.07,15.138
	c-0.207,0.04-0.328,0.203-0.354,0.392c-1.73-0.963-3.313-2.694-4.986-4.531c-0.4-0.438-0.801-0.877-1.207-1.312
	c-1.488,0.088-2.184,0.876-2.795,1.577c-0.521,0.599-1.025,1.177-1.898,1.177c-0.43,0-0.949-0.141-1.602-0.486
	c-0.117-0.063-0.164-0.211-0.105-0.331c0.059-0.122,0.201-0.17,0.316-0.109c1.668,0.88,2.172,0.298,2.939-0.585
	c0.586-0.67,1.318-1.474,2.725-1.682c-2.977-3.101-6.221-5.587-10.719-3.625c-0.121,0.051-0.26-0.006-0.311-0.133
	c-0.051-0.124,0.006-0.271,0.129-0.322c5.627-2.451,9.473,1.767,12.871,5.49c1.482,1.631,2.9,3.178,4.383,4.145
	C27.219,15.099,21.924,12.59,16.797,10.167z"/>
<path fill="#916B50" d="M38.217,43.884c-0.369-0.802-2.098-1.73-3.195-0.055c-3.061,0.15-4.32-2.918-6.697-3.462
	c1.838-2.971,1.879-4.501,1.922-10.154c0,0-2.684-0.943-4.561,0.17c-2.189,6.616-1.309,11.281-0.885,12.729
	c0.139,0.47,0.748,1.498,1.27,1.591c3.557,0.632,9.955,2.36,9.955,2.36c1.406,0.269,3.521,3.089,5.328,3.042
	C43.877,50.033,40.943,49.772,38.217,43.884z"/>
<path fill="#69452D" d="M35.625,43.188c-0.32,0.137-0.332,0.225-0.604,0.641c-2.34,0.115-3.342-1.433-4.879-2.514
	c0.586,2.166,0.979,3.947,1.545,4.632c2.543,0.62,4.338,1.115,4.338,1.115c0.465,0.089,0.631,0.3,1.166,0.604
	C37.051,44.7,35.961,43.844,35.625,43.188z"/>
<path fill="#916B50" d="M41.061,54.125c0.24-0.854-0.438-2.779-2.316-2.334c-2.35-2.087-1.363-5.425-2.764-7.53
	c-1.99-2.991,0.168-5.5-0.193-11.148c0,0-5.621-1.216-5.645,4.061c-0.01,2.41,0.117,4.286,0.682,5.678
	c0.184,0.452,0.725,2.478,1.051,2.921c2.213,3.017,5.377,9.092,5.377,9.092c0.863,1.206,1.053,5.36,2.412,6.623
	C41.566,63.244,39.307,60.415,41.061,54.125z"/>
<path fill="#916B50" d="M24.529,17.344c-1.285,0.03-7.287,3.692-8.002,2.991c-2.096-2.054-4.947-3.822-5.688-5.352
	c-1.166-1.944-5.705,1.411-1.451,1.963c1.855,1.776,3.365,5.08,6.355,6.684c0.84,0.45,6.588-0.543,8.918-2.051
	C25.369,19.941,25.313,18.496,24.529,17.344z"/>
<path fill="#FFE12C" d="M12.014,7.301L6.787,20.854c-0.08,0.208-0.861-0.072-0.781-0.278l5.188-13.46
	C11.75,6.825,12.014,7.301,12.014,7.301z"/>
<polygon fill="#F9C802" points="12.563,9.214 12.881,7.462 14.566,6.715 12.924,5.888 12.709,4.12 11.375,5.359 9.551,5.014 
	10.373,6.61 9.461,8.162 11.301,7.907 "/>
<path fill="#916B50" d="M42.072,23.992c-0.824-1.464-2.223-4.118-3.857-5.512c-0.516,0.585-2.049,2.781-2.049,2.781
	s1.516,1.322,3.141,3.382c1.012,1.279,0.129,1.743,1.156,7.264c-1.391,3.78-1.361,4.938-0.346,3.158
	c0.445-0.031,0.268,0.369,0.453,1.856c0.363,2.938,1.529-0.505,1.529-0.505c0.926-0.235,0.26-3.222,0.135-4.428
	C42.039,30.104,43.357,26.271,42.072,23.992z"/>
<path fill="#69452D" d="M41.328,37.952c0.385-0.746,0.18-2.462,0.18-2.462S41.551,37.345,41.328,37.952z"/>
<path fill="#69452D" d="M41.771,37.231c0.383-0.746,0.182-1.878,0.182-1.878S41.992,36.624,41.771,37.231z"/>
<path fill="#69452D" d="M42.033,36.619c0.383-0.746,0.209-1.541,0.209-1.541S42.256,36.012,42.033,36.619z"/>
<linearGradient id="SVGID_5_" gradientUnits="userSpaceOnUse" x1="30.312" y1="30.7104" x2="30.312" y2="16.0615">
	<stop  offset="0" style="stop-color:#FF6A00"/>
	<stop  offset="0.344" style="stop-color:#FF6800"/>
	<stop  offset="0.5431" style="stop-color:#FF5F00"/>
	<stop  offset="0.7052" style="stop-color:#FF5100"/>
	<stop  offset="0.8474" style="stop-color:#FF3D00"/>
	<stop  offset="0.9754" style="stop-color:#FF2400"/>
	<stop  offset="1" style="stop-color:#FF1E00"/>
	<a:midPointStop  offset="0" style="stop-color:#FF6A00"/>
	<a:midPointStop  offset="0.8061" style="stop-color:#FF6A00"/>
	<a:midPointStop  offset="1" style="stop-color:#FF1E00"/>
</linearGradient>
<path fill-rule="evenodd" clip-rule="evenodd" fill="url(#SVGID_5_)" d="M25.623,28.796c0.016-3.268-0.52-3.917-1.031-6.957
	c-0.172,0.021-1.234,0.403-1.234,0.403s-1.414-1.496-1.373-3.961c0.553-0.782,3.863-2.22,7.969-2.22
	c4.563,0,7.729,1.333,8.688,2.812c-0.471,1.799-1.857,2.966-1.857,2.966s-0.941-0.481-1.113-0.562
	c-0.643,2.896-1.32,3.417-0.928,7.073C34.98,30.56,26.672,32.113,25.623,28.796z"/>
<linearGradient id="SVGID_6_" gradientUnits="userSpaceOnUse" x1="30.3774" y1="37.4746" x2="30.3774" y2="28.3511">
	<stop  offset="0" style="stop-color:#FF1E00"/>
	<stop  offset="0.0246" style="stop-color:#FF2400"/>
	<stop  offset="0.1526" style="stop-color:#FF3D00"/>
	<stop  offset="0.2948" style="stop-color:#FF5100"/>
	<stop  offset="0.4569" style="stop-color:#FF5F00"/>
	<stop  offset="0.656" style="stop-color:#FF6800"/>
	<stop  offset="1" style="stop-color:#FF6A00"/>
	<a:midPointStop  offset="0" style="stop-color:#FF1E00"/>
	<a:midPointStop  offset="0.1939" style="stop-color:#FF1E00"/>
	<a:midPointStop  offset="1" style="stop-color:#FF6A00"/>
</linearGradient>
<path fill="url(#SVGID_6_)" d="M34.742,28.351l-9.119,0.468c0,0-0.656,3.479-0.656,4.099c0,1.235,4.201,5.158,5.176,4.479
	c0.922-2.593,4.84-4.411,5.645-4.284C35.658,32.029,34.742,28.351,34.742,28.351z"/>
<path fill="#916B50" d="M27.43,16.283c-1.736,1.155,0.037,3.2,2.729,3.2s4.465-2.045,2.729-3.2
	C32.047,15.724,28.27,15.724,27.43,16.283z"/>
<path fill="#FF8800" d="M26.453,20.279c0,0.606-0.957,0.606-0.957,0C25.496,19.672,26.453,19.672,26.453,20.279z"/>
<path fill="#FF8800" d="M32.068,23.614c0,0.607-0.955,0.607-0.955,0C31.113,23.008,32.068,23.008,32.068,23.614z"/>
<path fill="#FF8800" d="M27.803,26.36c0,0.607-0.957,0.607-0.957,0C26.846,25.754,27.803,25.754,27.803,26.36z"/>
<path fill="#FF8800" d="M31.432,29.348c0,0.467-0.736,0.467-0.736,0S31.432,28.881,31.432,29.348z"/>
<path fill="#FF8800" d="M30.42,21.384c0,0.606-0.957,0.606-0.957,0C29.463,20.775,30.42,20.775,30.42,21.384z"/>
<path fill="#FF9900" d="M33.77,21.506c0,0.306-0.48,0.306-0.48,0C33.289,21.201,33.77,21.201,33.77,21.506z"/>
<path fill="#FF9900" d="M35.236,18.646c0,0.306-0.48,0.306-0.48,0C34.756,18.342,35.236,18.342,35.236,18.646z"/>
<path fill="#FF9900" d="M25.396,18.052c0,0.306-0.48,0.306-0.48,0S25.396,17.746,25.396,18.052z"/>
<path fill="#FF9900" d="M26.455,23.012c0,0.305-0.48,0.305-0.48,0C25.975,22.706,26.455,22.706,26.455,23.012z"/>
<path fill="#FF9900" d="M28.836,28.688c0,0.306-0.48,0.306-0.48,0C28.355,28.384,28.836,28.384,28.836,28.688z"/>
<path fill="#FF9900" d="M34.012,29.227c0,0.306-0.482,0.306-0.482,0C33.529,28.922,34.012,28.922,34.012,29.227z"/>
<path fill="#FF9900" d="M30.383,31.751c0,0.306-0.48,0.306-0.48,0S30.383,31.445,30.383,31.751z"/>
<path fill="#FF9900" d="M29.982,34.454c0,0.19-0.301,0.19-0.301,0S29.982,34.264,29.982,34.454z"/>
<path fill="#FF9900" d="M27.623,33.056c0,0.19-0.299,0.19-0.299,0S27.623,32.865,27.623,33.056z"/>
<path fill="#FF9900" d="M33.439,32.472c0,0.191-0.301,0.191-0.301,0C33.139,32.281,33.439,32.281,33.439,32.472z"/>
<path fill="#FF9900" d="M26.844,30.188c0,0.19-0.301,0.19-0.301,0S26.844,29.998,26.844,30.188z"/>
<path fill="#FF9900" d="M30.773,25.981c0,0.306-0.48,0.306-0.48,0C30.293,25.677,30.773,25.677,30.773,25.981z"/>
<path fill="#FF9900" d="M33.77,26.432c0,0.306-0.48,0.306-0.48,0S33.77,26.126,33.77,26.432z"/>
<path fill="#FF9900" d="M34.252,23.386c0,0.306-0.482,0.306-0.482,0C33.77,23.081,34.252,23.081,34.252,23.386z"/>
<path fill="#FF9900" d="M28.543,24.655c0,0.306-0.48,0.306-0.48,0C28.063,24.351,28.543,24.351,28.543,24.655z"/>
<path fill="#69452D" d="M27.232,15.86c0.344,1.162,2.154,2.331,2.926,2.331s2.582-1.169,2.924-2.331
	C33.248,15.302,27.068,15.302,27.232,15.86z"/>
<path fill="#FF4C00" d="M35.162,13.984c0.355,0.235,0.768,0.41,1.246,0.5c-0.852-1.937,0.432-5.999-2.197-8.983
	c-3.709,0.11-4.221,12.079,0.947,10.487c-0.328-0.142-0.535-0.433-0.656-0.799c0.398,0.114,0.863,0.118,1.406-0.049
	C35.477,14.954,35.256,14.516,35.162,13.984z"/>
<path fill="#FF4C00" d="M25.855,5.501c-2.629,2.984-1.096,7.047-1.947,8.983c0.479-0.09,0.891-0.265,1.246-0.5
	c-0.096,0.531-0.314,0.97-0.746,1.156c0.541,0.167,1.008,0.163,1.406,0.049c-0.121,0.366-0.328,0.657-0.656,0.799
	C30.326,17.58,29.563,5.611,25.855,5.501z"/>
<path id="Path_1441_" fill="#916B50" d="M35.566,9.579c-0.838,0.101-1.441,2.899-0.916,3.638c0.074,0.104,0.506,0.268,0.826-0.384
	c0.178-0.36,0.688-0.662,0.846-1.406C36.525,10.473,36.4,9.478,35.566,9.579z"/>
<path id="Path_1440_" fill="#916B50" d="M24.75,9.579c0.838,0.101,1.441,2.899,0.914,3.638c-0.072,0.104-0.504,0.268-0.824-0.384
	c-0.178-0.36-0.689-0.662-0.846-1.406C23.791,10.473,23.916,9.478,24.75,9.579z"/>
<path id="Path_1439_" fill="#69452D" d="M35.543,10.115c-0.217,0.068-0.455,0.401-0.586,0.953c0.764-0.164,0.574,1.105-0.09,1.13
	c0.006,0.127,0.014,0.259,0.029,0.397c0.32-0.464,0.645-0.278,0.967-0.968C36.154,11.006,36.084,9.945,35.543,10.115z"/>
<path id="Path_1438_" fill="#69452D" d="M25.359,11.066c-0.131-0.551-0.367-0.883-0.586-0.951c-0.541-0.17-0.611,0.891-0.32,1.513
	c0.32,0.689,0.646,0.504,0.967,0.968c0.016-0.139,0.023-0.271,0.029-0.398C24.793,12.166,24.604,10.912,25.359,11.066z"/>
<path fill="#916B50" d="M30.158,4.198c-3.629,0-5.375,2.949-5.158,6.741c0.045,0.762,0.258,1.861,0.521,2.804
	c0.543,1.958,3.414,3.931,4.637,3.931s4.094-1.973,4.637-3.931c0.264-0.942,0.475-2.042,0.52-2.804
	C35.533,7.147,33.787,4.198,30.158,4.198z"/>
<path id="Path_1437_" fill="#5E4431" d="M34.1,9.3c-0.83-0.439-2.418-0.461-3.01-0.155c-0.127,0.06-0.043,0.476,0.064,0.436
	c0.824-0.325,2.154-0.333,2.926,0.028C34.182,9.654,34.225,9.36,34.1,9.3z"/>
<path id="Path_1436_" fill="#5E4431" d="M26.217,9.3c0.83-0.439,2.416-0.461,3.008-0.155c0.127,0.06,0.043,0.476-0.063,0.436
	c-0.826-0.325-2.154-0.333-2.926,0.028C26.133,9.654,26.092,9.36,26.217,9.3z"/>
<path id="Path_1435_" fill="#69452D" d="M31.137,13.104c-0.104-0.072-0.346,0.039-0.979,0.039s-0.875-0.111-0.979-0.039
	c-0.125,0.087,0.072,0.481,0.979,0.481S31.262,13.19,31.137,13.104z"/>
<path id="Path_1434_" fill="#69452D" d="M30.158,14.596c-0.816-0.239-2.025,0.114-2.025,0.114c0.461,0.501,0.799,1.149,2.025,1.149
	c1.406,0,1.645-0.737,2.025-1.149C32.184,14.71,30.975,14.355,30.158,14.596z"/>
<path id="Path_1433_" fill="#FFFFFF" d="M28.438,14.795c0.855,0.716,2.582,0.721,3.441,0C30.969,14.833,29.355,14.834,28.438,14.795
	z"/>
<path id="Path_1432_" fill="#FFFFFF" d="M29.352,10.794c0.031,0.239-0.133,0.523-0.584,0.736c-0.287,0.136-0.883,0.295-1.666-0.035
	c-0.352-0.147-0.693-0.607-0.664-0.862C26.863,9.834,28.953,9.717,29.352,10.794z"/>
<linearGradient id="Oval_1_" gradientUnits="userSpaceOnUse" x1="-424.1714" y1="480.499" x2="-424.1714" y2="480.749" gradientTransform="matrix(6.5701 0 0 -6.5701 2814.7805 3168.5281)">
	<stop  offset="0" style="stop-color:#A6694A"/>
	<stop  offset="1" style="stop-color:#4F2A1E"/>
	<a:midPointStop  offset="0" style="stop-color:#A6694A"/>
	<a:midPointStop  offset="0.5" style="stop-color:#A6694A"/>
	<a:midPointStop  offset="1" style="stop-color:#4F2A1E"/>
</linearGradient>
<circle id="Oval_156_" fill="url(#Oval_1_)" cx="27.932" cy="10.778" r="0.82"/>
<path id="Path_1431_" fill="#1A1626" d="M27.521,10.763c0,0.567,0.822,0.567,0.822,0C28.344,10.236,27.521,10.236,27.521,10.763z"/>
<path id="Path_1430_" fill="#AB968C" d="M27.396,10.533c0,0.237,0.346,0.237,0.346,0C27.742,10.313,27.396,10.313,27.396,10.533z"/>
<path id="Path_1429_" fill="#69452D" d="M29.355,10.825c-0.334-1.069-2.607-0.912-2.918-0.192
	C26.553,9.712,29.07,9.469,29.355,10.825z"/>
<path id="Path_1428_" fill="#FFFFFF" d="M30.965,10.794c-0.031,0.239,0.133,0.523,0.584,0.736c0.287,0.136,0.883,0.295,1.666-0.035
	c0.352-0.147,0.693-0.607,0.662-0.862C33.453,9.834,31.363,9.717,30.965,10.794z"/>
<linearGradient id="Oval_2_" gradientUnits="userSpaceOnUse" x1="-426.1953" y1="480.499" x2="-426.1953" y2="480.749" gradientTransform="matrix(6.5701 0 0 -6.5701 2832.511 3168.5281)">
	<stop  offset="0" style="stop-color:#A6694A"/>
	<stop  offset="1" style="stop-color:#4F2A1E"/>
	<a:midPointStop  offset="0" style="stop-color:#A6694A"/>
	<a:midPointStop  offset="0.5" style="stop-color:#A6694A"/>
	<a:midPointStop  offset="1" style="stop-color:#4F2A1E"/>
</linearGradient>
<circle id="Oval_155_" fill="url(#Oval_2_)" cx="32.365" cy="10.778" r="0.82"/>
<path id="Path_1427_" fill="#1A1626" d="M31.955,10.763c0,0.567,0.82,0.567,0.82,0C32.775,10.236,31.955,10.236,31.955,10.763z"/>
<path id="Path_1426_" fill="#AB968C" d="M31.83,10.533c0,0.237,0.344,0.237,0.344,0C32.174,10.313,31.83,10.313,31.83,10.533z"/>
<path id="Path_1425_" fill="#69452D" d="M30.961,10.825c0.334-1.069,2.605-0.916,2.916-0.192
	C33.762,9.712,31.246,9.469,30.961,10.825z"/>
<linearGradient id="SVGID_7_" gradientUnits="userSpaceOnUse" x1="30.1045" y1="11.6924" x2="30.1045" y2="3.2002">
	<stop  offset="0" style="stop-color:#FF1E00"/>
	<stop  offset="0.0246" style="stop-color:#FF2400"/>
	<stop  offset="0.1526" style="stop-color:#FF3D00"/>
	<stop  offset="0.2948" style="stop-color:#FF5100"/>
	<stop  offset="0.4569" style="stop-color:#FF5F00"/>
	<stop  offset="0.656" style="stop-color:#FF6800"/>
	<stop  offset="1" style="stop-color:#FF6A00"/>
	<a:midPointStop  offset="0" style="stop-color:#FF1E00"/>
	<a:midPointStop  offset="0.1939" style="stop-color:#FF1E00"/>
	<a:midPointStop  offset="1" style="stop-color:#FF6A00"/>
</linearGradient>
<path fill="url(#SVGID_7_)" d="M30.158,3.2c-2.207,0-3.311,0.998-3.533,1.471c-2.67,0.609-3.527,5.104-1.529,7.021
	c0.248-2.043,0.486-3.355,1.848-4.738c0.793,1.062,2.441,1.658,3.918,1.658c-0.699-0.507-1.176-1.003-1.551-1.466
	c2.465,1.129,5.227,1.852,5.91,4.546C37.594,7.923,35.623,3.2,30.158,3.2z"/>
<linearGradient id="SVGID_8_" gradientUnits="userSpaceOnUse" x1="34.5693" y1="12.4067" x2="26.0498" y2="5.3454">
	<stop  offset="0" style="stop-color:#FF1E00"/>
	<stop  offset="0.1291" style="stop-color:#FF2300"/>
	<stop  offset="0.2858" style="stop-color:#FF3200"/>
	<stop  offset="0.4567" style="stop-color:#FF4B00"/>
	<stop  offset="0.6379" style="stop-color:#FF6D00"/>
	<stop  offset="0.825" style="stop-color:#FF9800"/>
	<stop  offset="1" style="stop-color:#FFC800"/>
	<a:midPointStop  offset="0" style="stop-color:#FF1E00"/>
	<a:midPointStop  offset="0.6667" style="stop-color:#FF1E00"/>
	<a:midPointStop  offset="1" style="stop-color:#FFC800"/>
</linearGradient>
<path fill="url(#SVGID_8_)" d="M26.625,4.671c-0.023,1.254,0.98,3.337,4.236,3.941C28.344,8.782,25.762,7.262,26.625,4.671z"/>
<linearGradient id="SVGID_9_" gradientUnits="userSpaceOnUse" x1="24.4365" y1="11.5181" x2="25.8898" y2="5.1891">
	<stop  offset="0" style="stop-color:#FF1E00"/>
	<stop  offset="0.1946" style="stop-color:#FF3A00"/>
	<stop  offset="0.6118" style="stop-color:#FF8100"/>
	<stop  offset="1" style="stop-color:#FFC800"/>
	<a:midPointStop  offset="0" style="stop-color:#FF1E00"/>
	<a:midPointStop  offset="0.5333" style="stop-color:#FF1E00"/>
	<a:midPointStop  offset="1" style="stop-color:#FFC800"/>
</linearGradient>
<path fill="url(#SVGID_9_)" d="M26.52,5.356c-0.744,0.538-2.27,3.175-1.424,6.336C23.066,6.903,26.52,5.356,26.52,5.356z"/>
<linearGradient id="SVGID_10_" gradientUnits="userSpaceOnUse" x1="36.6904" y1="8.2344" x2="27.1757" y2="3.5786">
	<stop  offset="0" style="stop-color:#FF1E00"/>
	<stop  offset="0.1572" style="stop-color:#FF4100"/>
	<stop  offset="0.4454" style="stop-color:#FF7A00"/>
	<stop  offset="0.6921" style="stop-color:#FFA500"/>
	<stop  offset="0.8849" style="stop-color:#FFBE00"/>
	<stop  offset="1" style="stop-color:#FFC800"/>
	<a:midPointStop  offset="0" style="stop-color:#FF1E00"/>
	<a:midPointStop  offset="0.4061" style="stop-color:#FF1E00"/>
	<a:midPointStop  offset="1" style="stop-color:#FFC800"/>
</linearGradient>
<path fill="url(#SVGID_10_)" d="M26.625,4.671c0,0,7.473-2.671,9.5,4.717C34.279,4.887,28.705,4.252,26.625,4.671z"/>
<linearGradient id="SVGID_11_" gradientUnits="userSpaceOnUse" x1="35.3623" y1="11.4507" x2="26.8428" y2="4.3894">
	<stop  offset="0" style="stop-color:#FF1E00"/>
	<stop  offset="0.1291" style="stop-color:#FF2300"/>
	<stop  offset="0.2858" style="stop-color:#FF3200"/>
	<stop  offset="0.4567" style="stop-color:#FF4B00"/>
	<stop  offset="0.6379" style="stop-color:#FF6D00"/>
	<stop  offset="0.825" style="stop-color:#FF9800"/>
	<stop  offset="1" style="stop-color:#FFC800"/>
	<a:midPointStop  offset="0" style="stop-color:#FF1E00"/>
	<a:midPointStop  offset="0.6667" style="stop-color:#FF1E00"/>
	<a:midPointStop  offset="1" style="stop-color:#FFC800"/>
</linearGradient>
<path fill="url(#SVGID_11_)" d="M26.625,4.671c0.578,2.105,8.453,2.085,8.596,7.021C34.455,7.892,25.449,7.063,26.625,4.671z"/>
<path fill="#916B50" d="M7.832,15.844c0,0,0.445-0.159,0.332-0.692c0.504-0.006,0.594-0.541,0.43-0.822
	c0.205,0.033,0.41-0.352,0.41-0.352s-0.229,1.413,0.27,1.73c1.09,0.698,1.635-0.494,1.559-0.938
	c-0.234-1.371-1.484-1.371-1.984-2.59c-0.09-0.219-0.891-0.066-0.57,0.975c0,0-0.691-0.289-0.771,0.643
	c-0.469-0.239-0.771,0.559-0.459,0.857c-0.535,0.352-0.418,0.873-0.199,0.99C6.398,16.604,8.189,16.913,7.832,15.844z"/>
<path fill="#69452D" d="M7.832,15.844c-0.373-0.022-0.984-0.198-0.984-0.198S7.314,15.96,7.832,15.844z"/>
<path fill="#69452D" d="M8.164,15.151c-0.373-0.023-1.117-0.496-1.117-0.496S7.648,15.267,8.164,15.151z"/>
<path fill="#69452D" d="M8.594,14.329c-0.371-0.021-1.088-0.531-1.088-0.531S8.078,14.444,8.594,14.329z"/>
<path fill="#69452D" d="M9.004,13.978c-0.107-0.545-0.727-0.822-0.727-0.822S8.74,13.56,9.004,13.978z"/>
</svg>
