<?xml version="1.0" encoding="utf-8"?>
<!-- Generator: Adobe Illustrator 15.0.0, SVG Export Plug-In . SVG Version: 6.00 Build 0)  -->
<!DOCTYPE svg PUBLIC "-//W3C//DTD SVG 1.1//EN" "http://www.w3.org/Graphics/SVG/1.1/DTD/svg11.dtd" [
	<!ENTITY ns_flows "http://ns.adobe.com/Flows/1.0/">
	<!ENTITY ns_extend "http://ns.adobe.com/Extensibility/1.0/">
	<!ENTITY ns_ai "http://ns.adobe.com/AdobeIllustrator/10.0/">
	<!ENTITY ns_graphs "http://ns.adobe.com/Graphs/1.0/">
]>
<svg version="1.1" id="Layer_1" xmlns:x="&ns_extend;" xmlns:i="&ns_ai;" xmlns:graph="&ns_graphs;"
	 xmlns="http://www.w3.org/2000/svg" xmlns:xlink="http://www.w3.org/1999/xlink" xmlns:a="http://ns.adobe.com/AdobeSVGViewerExtensions/3.0/"
	 x="0px" y="0px" width="64px" height="64px" viewBox="0 0 64 64" enable-background="new 0 0 64 64" xml:space="preserve">
<path opacity="0.15" fill="#A6AEB0" d="M2,61.999h60V28.308c-24.664,9.24-39.113-8.316-60,0V61.999z"/>
<path opacity="0.15" fill="#A6AEB0" d="M62,61.999H2v-23.57c24.666,8.541,39.115-7.687,60,0V61.999z"/>
<path fill="#FFCC66" d="M9.787,52.753c2.701-1.365,13.908-4.969,13.908-4.969h16.695c0,0,11.199,3.596,13.885,4.965
	C58.18,54.733,59,61.999,59,61.999H5C5,61.999,5.871,54.729,9.787,52.753z"/>
<path fill="#FFCC66" d="M23,49.948c0,0,2.887,2.832,9,2.832c6.111,0,9-2.832,9-2.832v-8.035H23V49.948z"/>
<path fill="#E6B045" d="M22.078,42.958c1.09,3.146,7.533,9.004,9.92,9.004c2.389,0,8.836-5.857,9.922-9.004
	C42.99,39.88,21.014,39.88,22.078,42.958z"/>
<path fill="#FFFFFF" d="M23,42.009c-1.307-0.445-3.596,1.879-4.223,3.178c-5.658,0.775-8.719,12.076-7.457,16.813h16.41
	C25.137,55.302,23,42.009,23,42.009z"/>
<path fill="#F5F5F5" d="M17.381,61.999c-1.813-7.107,0.5-14.135,0.5-14.135s-1.283,7.438,1.313,14.135H17.381z"/>
<path fill="#F5F5F5" d="M19.758,48.44c0,0-0.797,5.867,2.313,12.135L19.758,48.44z"/>
<path fill="#F5F5F5" d="M13.971,52.692c0,0-1.482,4.025,0.84,8.98L13.971,52.692z"/>
<path fill="#FFFFFF" d="M46.119,45.61c-0.75-2.723-3.814-4.047-5.119-3.602c0,0-0.996,13.293-3.592,19.99H52.68
	C53.947,57.241,52.408,46.524,46.119,45.61z"/>
<path fill="#F5F5F5" d="M48.035,61.999c1.813-7.107-0.5-14.135-0.5-14.135s1.281,7.438-1.313,14.135H48.035z"/>
<path fill="#F5F5F5" d="M41.035,61.999c1.813-7.107,1.875-16.813,1.875-16.813s-0.684,10.115-3.387,16.813H41.035z"/>
<path fill="#F5F5F5" d="M44.932,49.024c0,0,0.797,5.867-2.313,12.135L44.932,49.024z"/>
<path fill="#F5F5F5" d="M50.082,51.981c0,0,1.875,3.859,0.055,9.021L50.082,51.981z"/>
<path fill="#473834" d="M47.213,38.784c1.082,0.715,2.33,1.248,3.787,1.521c-2.586-5.889,1.314-18.236-6.682-27.31
	c-11.27,0.337-12.828,36.72,2.883,31.882c-1-0.434-1.629-1.316-1.996-2.43c1.211,0.346,2.627,0.357,4.275-0.148
	C48.168,41.733,47.5,40.399,47.213,38.784z"/>
<path fill="#473834" d="M18.922,12.996C10.926,22.07,15.588,34.417,13,40.306c1.457-0.273,2.707-0.807,3.789-1.521
	c-0.289,1.615-0.957,2.949-2.27,3.516c1.648,0.506,3.063,0.494,4.273,0.148c-0.367,1.113-0.992,1.996-1.992,2.43
	C32.51,49.716,30.193,13.333,18.922,12.996z"/>
<path id="Path_354_" fill="#FFCC66" d="M48.443,25.393c-2.547,0.308-4.383,8.815-2.783,11.059c0.225,0.314,1.535,0.814,2.508-1.166
	c0.539-1.098,2.094-2.014,2.574-4.277C51.359,28.109,50.977,25.086,48.443,25.393z"/>
<path id="Path_353_" fill="#FFCC66" d="M15.559,25.393c2.547,0.308,4.385,8.815,2.783,11.059c-0.225,0.314-1.537,0.814-2.508-1.166
	c-0.539-1.098-2.094-2.014-2.574-4.277C12.643,28.109,13.027,25.086,15.559,25.393z"/>
<path id="Path_352_" fill="#DB9D3A" d="M48.373,27.025c-0.664,0.207-1.389,1.219-1.781,2.895c2.322-0.498,1.742,3.363-0.275,3.435
	c0.018,0.389,0.045,0.787,0.092,1.207c0.973-1.408,1.959-0.844,2.938-2.939C50.227,29.732,50.018,26.509,48.373,27.025z"/>
<path id="Path_351_" fill="#DB9D3A" d="M17.41,29.916c-0.395-1.674-1.117-2.684-1.781-2.891c-1.645-0.516-1.855,2.707-0.975,4.597
	c0.979,2.096,1.967,1.531,2.939,2.939c0.049-0.42,0.074-0.82,0.092-1.209C15.688,33.257,15.117,29.447,17.41,29.916z"/>
<path fill="#FFCC66" d="M32,9.036c-11.029,0-16.342,8.965-15.678,20.491c0.137,2.318,0.783,5.662,1.58,8.525
	C19.557,44.005,28.283,49.999,32,49.999s12.443-5.994,14.1-11.947c0.797-2.863,1.441-6.207,1.578-8.525
	C48.342,18.001,43.031,9.036,32,9.036z"/>
<path id="Path_350_" fill="#966F42" d="M43.982,24.544c-2.521-1.334-7.35-1.399-9.146-0.471c-0.387,0.18-0.131,1.443,0.193,1.324
	c2.504-0.99,6.547-1.013,8.893,0.084C44.234,25.625,44.365,24.729,43.982,24.544z"/>
<path id="Path_349_" fill="#966F42" d="M20.02,24.544c2.521-1.334,7.346-1.399,9.146-0.471c0.383,0.18,0.131,1.443-0.193,1.324
	c-2.51-0.99-6.547-1.013-8.895,0.084C19.766,25.625,19.637,24.729,20.02,24.544z"/>
<path id="Path_348_" fill="#DB9D3A" d="M34.977,36.108c-0.314-0.221-1.053,0.117-2.977,0.117c-1.92,0-2.66-0.338-2.977-0.117
	c-0.375,0.264,0.225,1.461,2.977,1.461C34.754,37.569,35.355,36.372,34.977,36.108z"/>
<path id="Path_347_" fill="#DB9D3A" d="M32,40.646c-2.48-0.729-6.156,0.344-6.156,0.344c1.4,1.523,2.426,3.498,6.156,3.498
	c4.273,0,5.002-2.242,6.158-3.498C38.158,40.989,34.48,39.913,32,40.646z"/>
<path id="Path_346_" fill="#FFFFFF" d="M26.768,41.247c2.602,2.178,7.852,2.193,10.467,0C34.463,41.366,29.559,41.368,26.768,41.247
	z"/>
<linearGradient id="SVGID_1_" gradientUnits="userSpaceOnUse" x1="31.8374" y1="31.8174" x2="31.8374" y2="6.001">
	<stop  offset="0" style="stop-color:#473834"/>
	<stop  offset="0.2717" style="stop-color:#594640"/>
	<stop  offset="0.7226" style="stop-color:#715950"/>
	<stop  offset="1" style="stop-color:#7A6056"/>
	<a:midPointStop  offset="0" style="stop-color:#473834"/>
	<a:midPointStop  offset="0.4" style="stop-color:#473834"/>
	<a:midPointStop  offset="1" style="stop-color:#7A6056"/>
</linearGradient>
<path fill="url(#SVGID_1_)" d="M32.002,6.001c-6.711,0-10.064,3.035-10.744,4.473c-8.113,1.852-10.723,15.516-4.648,21.343
	c0.754-6.209,1.48-10.2,5.617-14.403c2.412,3.226,7.424,5.042,11.91,5.042c-2.125-1.541-3.574-3.051-4.711-4.458
	c7.494,3.433,15.885,5.63,17.969,13.819C54.604,20.36,48.615,6.001,32.002,6.001z"/>
<path opacity="0.2" fill="#A6AEB0" d="M62,61.999H2V48.55c24.031-7.939,37.939,8.662,60,0V61.999z"/>
<path fill="#45332C" d="M28.842,28.861c-2.016,1.285-5.145,1.285-7.158,0c-0.309-0.197-0.494,0.016-0.396,0.182
	c1.957,3.318,5.99,3.318,7.949,0C29.334,28.876,29.148,28.664,28.842,28.861z"/>
<path fill="#45332C" d="M42.316,28.861c-2.014,1.285-5.143,1.285-7.158,0c-0.311-0.197-0.49,0.016-0.395,0.182
	c1.957,3.318,5.988,3.318,7.945,0C42.811,28.876,42.625,28.664,42.316,28.861z"/>
<path fill="#473834" d="M21.258,10.473c-0.102,5.72,2.209,10,12.879,11.982C26.486,22.971,18.637,18.349,21.258,10.473z"/>
<path fill="#473834" d="M21.93,17.049c-2.787,2.745-5.914,7.503-5.32,14.769c0.553-6.004,3.313-10.949,5.811-14.152
	C22.242,17.472,22.08,17.267,21.93,17.049z"/>
<path fill="#473834" d="M26.705,15.236c5.596,5.341,19.344,4.994,20.689,16.582C43.807,20.546,31.648,23.075,26.705,15.236z"/>
</svg>
