<?xml version="1.0" encoding="utf-8"?>
<!-- Generator: Adobe Illustrator 15.0.0, SVG Export Plug-In . SVG Version: 6.00 Build 0)  -->
<!DOCTYPE svg PUBLIC "-//W3C//DTD SVG 1.1//EN" "http://www.w3.org/Graphics/SVG/1.1/DTD/svg11.dtd" [
	<!ENTITY ns_flows "http://ns.adobe.com/Flows/1.0/">
	<!ENTITY ns_extend "http://ns.adobe.com/Extensibility/1.0/">
	<!ENTITY ns_ai "http://ns.adobe.com/AdobeIllustrator/10.0/">
	<!ENTITY ns_graphs "http://ns.adobe.com/Graphs/1.0/">
]>
<svg version="1.1" id="Layer_1" xmlns:x="&ns_extend;" xmlns:i="&ns_ai;" xmlns:graph="&ns_graphs;"
	 xmlns="http://www.w3.org/2000/svg" xmlns:xlink="http://www.w3.org/1999/xlink" xmlns:a="http://ns.adobe.com/AdobeSVGViewerExtensions/3.0/"
	 x="0px" y="0px" width="64px" height="64px" viewBox="0 0 64 64" enable-background="new 0 0 64 64" xml:space="preserve">
<path fill="#1A1626" d="M39.057,42.834c14.668-5.4,11.813-19.229,11.813-19.229H12.568c0,0-2.845,13.829,11.821,19.229
	c0,0,2.935,0.676,7.333,0.676C36.124,43.51,39.057,42.834,39.057,42.834z"/>
<path fill="#302C3B" d="M46.553,24.974c1.5,5.816,0.709,12.575-7.496,17.86c8.801-1.35,13.182-10,13.182-15.872L46.553,24.974z"/>
<path fill="#302C3B" d="M16.896,24.974c-1.501,5.816-0.709,12.575,7.496,17.86c-8.802-1.35-13.191-10-13.191-15.872L16.896,24.974z"
	/>
<path fill="#8E3ED6" d="M14.247,45.066c1.398-3.02,8.441-6.295,8.441-6.295l18.583-0.027c0,0,7.096,3.283,8.494,6.318
	C54.27,54.84,46.969,51.873,46.969,62h-29.98C16.988,51.9,9.736,54.811,14.247,45.066z"/>
<path fill="#732EB0" d="M22.688,38.771c0,7.311,18.583,7.281,18.583-0.027l-1.863-0.619H24.632L22.688,38.771z"/>
<path fill="#4E5E67" d="M24.017,38.33c0,5.723,15.93,5.723,15.93,0c0-1.945,0-6.331,0-6.331h-15.93
	C24.017,32,24.017,36.385,24.017,38.33z"/>
<path fill="#8E3ED6" d="M22.688,38.771c-2.98,0.279-6.028,0.752-6.028,0.752c-6.098-1.242-8.786,1.549-12.619,5.258
	c-2.37,2.291,2.847,10.42,5.707,8.857C12.096,52.357,22.688,38.771,22.688,38.771z"/>
<path fill="#631BA1" d="M11.917,50.4c9.381-0.908,10.478-3.078,6.395-8.057C23.937,52.357,11.389,45.623,11.917,50.4z"/>
<path fill="#3E4A52" d="M17.914,49.051C15.21,51.377,6.77,50.006,4.282,46.824c-1.818-2.326,3.948-3.709,3.929-4.297
	c-0.056-1.752,9.927-0.49,9.603,1.02C17.565,44.703,20.682,46.67,17.914,49.051z"/>
<path fill="#6E8189" d="M17.565,44.703c-5.637-4.42-12.715-0.281-13.164,1.008c-1.811,5.213-5.098,7.203-4.27,8.273
	c1.208,1.563,1.619,3.5,2.104,4.621c0.267,0.619,1.516,0.625,1.519-0.535c0.002-0.947-0.196-2.004-0.069-2.09
	c1.824,2.654,1.378,4.232,1.834,4.748c0.531,0.604,2.542,0.67,1.967-2.371c0,0,0.854,1.475,1.117,2.768
	c0.28,1.373,2.443,1.08,2.594-0.523c0.129-1.377-0.865-3.885-0.865-3.885s0.817,1.242,1.576,2.861
	c0.423,0.904,1.602,0.232,1.846-1.25c0.31-1.879-1.446-5.59-1.377-6.072c0.165-1.154,1.198-0.807,2.299-2.143
	c0,0-1.247,2.391-0.083,4.631c0.768,1.48,2.396,1.008,2.203,0.023c-0.582-2.971,1.123-3.105,1.123-4.654
	C17.917,48.697,18.768,45.646,17.565,44.703z"/>
<path fill="#3E4A52" d="M3.637,58.6c0.156-2.221-1.293-4.539-1.164-4.893c0.192-0.527,0.543-1.357,1.082-2.27
	c0.155,0.52-0.734,1.869-0.484,2.707C3.24,54.707,4.489,57.166,3.637,58.6z"/>
<path fill="#3E4A52" d="M7.316,60.508c0.572-2.186-2.025-5.846-1.896-6.199c0.192-0.527,0.825-2.199,1.201-3.908
	c-0.055,2.205-0.517,3.047-0.587,4.002C5.967,55.307,8.489,58.652,7.316,60.508z"/>
<path fill="#3E4A52" d="M10.991,61.256c0.572-2.184-1.454-5.875-1.559-6.236c-0.34-1.172-0.347-3.195,0.03-4.906
	c-0.056,2.207,0.08,3.652,0.501,4.939C10.243,55.904,12.163,59.402,10.991,61.256z"/>
<path fill="#8E3ED6" d="M41.313,38.771c2.98,0.279,6.027,0.752,6.027,0.752c6.098-1.242,8.785,1.549,12.619,5.258
	c2.369,2.291-2.848,10.42-5.707,8.857C51.904,52.357,41.313,38.771,41.313,38.771z"/>
<path fill="#631BA1" d="M52.082,50.4c-9.381-0.908-10.477-3.078-6.395-8.057C40.063,52.357,52.611,45.623,52.082,50.4z"/>
<path fill="#3E4A52" d="M46.086,49.051c2.705,2.326,11.145,0.955,13.633-2.227c1.816-2.326-3.949-3.709-3.93-4.297
	c0.057-1.752-9.926-0.49-9.602,1.02C46.436,44.703,43.318,46.67,46.086,49.051z"/>
<path fill="#6E8189" d="M46.436,44.703c5.637-4.42,12.715-0.281,13.164,1.008c1.811,5.213,5.098,7.203,4.27,8.273
	c-1.209,1.563-1.619,3.5-2.104,4.621c-0.268,0.619-1.516,0.625-1.52-0.535c-0.002-0.947,0.197-2.004,0.07-2.09
	c-1.824,2.654-1.379,4.232-1.834,4.748c-0.531,0.604-2.541,0.67-1.967-2.371c0,0-0.854,1.475-1.117,2.768
	c-0.279,1.373-2.443,1.08-2.594-0.523c-0.129-1.377,0.865-3.885,0.865-3.885s-0.818,1.242-1.576,2.861
	c-0.424,0.904-1.602,0.232-1.846-1.25c-0.311-1.879,1.445-5.59,1.377-6.072c-0.166-1.154-1.199-0.807-2.299-2.143
	c0,0,1.246,2.391,0.082,4.631c-0.768,1.48-2.396,1.008-2.203,0.023c0.582-2.971-1.123-3.105-1.123-4.654
	C46.082,48.697,45.232,45.646,46.436,44.703z"/>
<path fill="#3E4A52" d="M60.363,58.6c-0.156-2.221,1.293-4.539,1.164-4.893c-0.191-0.527-0.543-1.357-1.082-2.27
	c-0.154,0.52,0.734,1.869,0.484,2.707C60.76,54.707,59.512,57.166,60.363,58.6z"/>
<path fill="#3E4A52" d="M56.684,60.508c-0.572-2.186,2.025-5.846,1.896-6.199c-0.191-0.527-0.824-2.199-1.201-3.908
	c0.055,2.205,0.518,3.047,0.588,4.002C58.033,55.307,55.512,58.652,56.684,60.508z"/>
<path fill="#3E4A52" d="M53.01,61.256c-0.572-2.184,1.453-5.875,1.559-6.236c0.34-1.172,0.348-3.195-0.029-4.906
	c0.055,2.207-0.08,3.652-0.502,4.939C53.758,55.904,51.838,59.402,53.01,61.256z"/>
<path fill="#8E3ED6" d="M11.052,39.949c1.144-0.102,2.807,0.066,3.29-0.475c-0.276-0.828,0.214-1.344,0.214-1.344
	S11,38.395,11.052,39.949z"/>
<path fill="#8E3ED6" d="M11.353,40.057c-1.038,0.449-2.371,1.373-3.09,1.137c-0.229-0.84-0.939-1.051-0.939-1.051
	S10.521,38.697,11.353,40.057z"/>
<path fill="#732EB0" d="M12.463,39.717c-1.038,0.449-1.53,0.834-2.249,0.598c-0.229-0.84-0.001-1.848-0.001-1.848
	S11.632,38.357,12.463,39.717z"/>
<path fill="#4E5E67" d="M14.635,39.475c-1.306,0.199-1.684,1.768-4.846,2.396c-1.178,0.166-1.633-0.684-1.633-0.684
	S11.353,38.955,14.635,39.475z"/>
<path fill="#6E8189" d="M14.852,39.475c-1.306,0.199-1.536,1.117-3.127,1.771c-0.474-0.725-2.116-0.602-2.116-0.602
	S11.569,38.955,14.852,39.475z"/>
<path fill="#732EB0" d="M12.254,41.688c-1.037,0.449-3.141,1.135-4.038,0.586c-0.229-0.838-1.442-1.133-1.442-1.133
	S11.423,40.328,12.254,41.688z"/>
<path fill="#732EB0" d="M41.404,53.895c-0.951,1.07-0.592,3.158,0.068,3.473c0.949-0.861,3.199-0.184,3.199-0.184
	S43.125,53.605,41.404,53.895z"/>
<path fill="#732EB0" d="M40.502,54.412c-0.623-1.133-2.467-2.088-2.287-3.229c2.223-0.205,2.215-2.568,2.215-2.568
	S42.727,51.684,40.502,54.412z"/>
<path fill="#631BA1" d="M39.053,52.186c-0.361,0.639-2.528,0.564-3.301-0.855c0.226-1.217-0.299-2.865-0.299-2.865
	S38.088,48.457,39.053,52.186z"/>
<path fill="#732EB0" d="M37.391,56.184c-1.001-1.396-2.962-0.221-4.233-2.057c1.088-0.762,2.595-2.797,2.595-2.797
	S38.328,54.137,37.391,56.184z"/>
<path fill="#631BA1" d="M41.473,57.367c-1.516-0.121-1.896,1.404-3.582,2.07c0.326-1.477-0.5-3.254-0.5-3.254
	S41.479,53.758,41.473,57.367z"/>
<path fill="#631BA1" d="M39.969,52.912c0.248,1.504,0.684,2.225,1.344,2.537c0.891-0.914,3.016-1.93,3.016-1.93
	S41.697,51.834,39.969,52.912z"/>
<path fill="#4E5E67" d="M41.369,56.506c-1.992-1.355-3.887-0.428-3.887-0.428s0.154-1.732-1.505-4.502
	c1.288,0.553,3.075,0.609,3.075,0.609S41.74,53.381,41.369,56.506z"/>
<path fill="#6E8189" d="M41.369,56.506c-1.992-1.355-3.979-0.322-3.979-0.322s-0.117-1.896-1.113-4.082
	C38.313,53.715,40.297,52.184,41.369,56.506z"/>
<path fill="#732EB0" d="M26.084,54.143c-2.067,2.168-1.939,3.598,0.06,3.768C28.144,58.078,27.47,52.689,26.084,54.143z"/>
<path fill="#732EB0" d="M27.121,56.432c-1.302,0.467-1.338,2.482,0.042,2.6C28.542,59.146,29.715,55.5,27.121,56.432z"/>
<path fill="#732EB0" d="M21.691,55.422c-0.737-0.598-0.917,1.699,0.029,1.779C22.665,57.281,24.119,57.387,21.691,55.422z"/>
<path fill="#631BA1" d="M24.07,58.188c-0.995,0.607-0.626,1.16,0.019,1.215S24.624,57.85,24.07,58.188z"/>
<path fill="#631BA1" d="M19.719,52.102c0.793-0.078,3.097-1.152,0.725-2.951C19.809,48.668,18.924,52.18,19.719,52.102z"/>
<path fill="#732EB0" d="M40.078,46.82c0.639-0.303,1.703-0.873-0.264-1.301C39.123,45.369,37.25,48.168,40.078,46.82z"/>
<path fill="#4E5E67" d="M51.795,45.512c0.703-0.07,3.572-0.27,2.938-0.584C52.639,43.893,51.09,45.58,51.795,45.512z"/>
<path fill="#4E5E67" d="M53.512,46.609c-0.842,0.547,3.129,1.662,3.563,0.754C57.244,47.008,55.355,45.41,53.512,46.609z"/>
<path fill="#732EB0" d="M28.156,48.168c1.061,0-0.541-1.998-3.219-1.998C23.875,46.17,24.615,48.172,28.156,48.168z"/>
<path fill="#4E5E67" d="M9.993,46.203c-0.498,1.32,2.983,1.379,3.482,0.059C13.973,44.939,10.491,44.883,9.993,46.203z"/>
<path fill="#4E5E67" d="M10.584,48.502c-0.236,0.625,1.41,0.65,1.646,0.027C12.465,47.904,10.819,47.877,10.584,48.502z"/>
<path fill="#4E5E67" d="M13.375,47.643c-0.162,0.426,0.962,0.445,1.123,0.02C14.659,47.234,13.536,47.217,13.375,47.643z"/>
<path fill="#6E8189" d="M31.724,2.207c-10.673,0-15.815,8.693-15.173,19.869c0.132,2.246,0.756,5.486,1.528,8.264
	c1.6,5.772,10.047,11.584,13.645,11.584c3.596,0,12.043-5.813,13.645-11.584c0.771-2.777,1.396-6.018,1.527-8.264
	C47.539,10.9,42.4,2.207,31.724,2.207z"/>
<path fill="#302C3B" d="M43.709,17.697c-2.436-1.207-7.093-1.268-8.827-0.426c-0.371,0.164-0.127,1.311,0.186,1.199
	c2.421-0.895,6.319-0.916,8.583,0.078C43.951,18.675,44.078,17.867,43.709,17.697z"/>
<path fill="#302C3B" d="M19.741,17.697c2.434-1.207,7.09-1.268,8.826-0.426c0.371,0.164,0.127,1.311-0.186,1.199
	c-2.422-0.895-6.318-0.916-8.584,0.078C19.497,18.675,19.372,17.867,19.741,17.697z"/>
<path fill="#1A1626" d="M36.132,36.506c0,1.559-1.973,2.131-4.406,2.131s-4.404-0.572-4.404-2.131
	C27.321,30.527,36.132,30.527,36.132,36.506z"/>
<path fill="#4E5E67" d="M37.412,19.453c-5.214,1.604-2.052,8.943,3.162,7.34C45.787,25.189,42.625,17.851,37.412,19.453z"/>
<path fill="#4E5E67" d="M26.04,19.453c-5.215-1.602-8.377,5.736-3.166,7.34C28.089,28.396,31.251,21.056,26.04,19.453z"/>
<path fill="#4E5E67" d="M23.896,30.003c-1.073-0.09-1.041,1.932,0.032,2.021S24.969,30.093,23.896,30.003z"/>
<path fill="#4E5E67" d="M22.061,30.689c-0.508-0.043-0.492,0.912,0.016,0.957C22.583,31.687,22.567,30.732,22.061,30.689z"/>
<path fill="#4E5E67" d="M22.814,32.173c-0.347-0.029-0.337,0.623,0.01,0.652S23.16,32.203,22.814,32.173z"/>
<path fill="#4E5E67" d="M38.123,35.789c0.695,0.822,2.102-0.629,1.408-1.451C38.836,33.514,37.43,34.967,38.123,35.789z"/>
<path fill="#4E5E67" d="M39.906,36.602c0.328,0.389,0.994-0.297,0.666-0.688C40.242,35.525,39.578,36.213,39.906,36.602z"/>
<path fill="#4E5E67" d="M40.424,35.02c0.223,0.266,0.678-0.203,0.453-0.469S40.199,34.754,40.424,35.02z"/>
<path id="Path_548_" fill="#4E5E67" d="M34.697,28.734c-0.314-0.219-1.053,0.119-2.977,0.119c-1.92,0-2.66-0.338-2.975-0.119
	c-0.377,0.266,0.223,1.461,2.975,1.461C34.475,30.195,35.076,29,34.697,28.734z"/>
<path fill="#F46C60" d="M35.414,37.387c0,1.559-1.654,2.131-3.691,2.131s-3.689-0.572-3.689-2.131
	C28.033,34.934,35.414,34.934,35.414,37.387z"/>
<path fill="#E03636" d="M31.726,37.756l0.586-2.186c-0.389-0.027-0.783-0.027-1.17,0L31.726,37.756z"/>
<path fill="#FCC7C3" d="M21.073,22.576c0-3,6.973-3,6.973,0C28.046,26.576,21.073,26.576,21.073,22.576z"/>
<path fill="#FC5A4E" d="M24.628,24.957c-0.038,0.145-0.381,0.395-0.396,0.299c-0.029-0.17-0.167-0.512,0.153-0.68
	c-0.437,0.184-0.197,0.723-0.188,0.771c0.005,0.033-0.003,0.141-0.009,0.213c0.021,0.002,0.041,0.004,0.063,0.006l-0.004-0.24
	C24.247,25.326,24.586,25.242,24.628,24.957z"/>
<path fill="#FC5A4E" d="M25.403,25.392c0.094-0.031,0.1-0.607-0.368-0.742c0.344,0.125,0.364,0.537,0.332,0.672
	c-0.019,0.074-0.385-0.113-0.424-0.227c0.042,0.223,0.405,0.281,0.405,0.281l-0.004,0.131c0.016-0.004,0.031-0.006,0.047-0.01
	C25.384,25.449,25.382,25.398,25.403,25.392z"/>
<path fill="#FC5A4E" d="M26.205,24.628c0.035,0.146-0.149,0.527-0.208,0.451c-0.106-0.137-0.39-0.373-0.187-0.672
	c-0.298,0.367,0.168,0.73,0.199,0.768c0.014,0.02,0.041,0.076,0.066,0.133c0.018-0.008,0.035-0.014,0.053-0.021l-0.085-0.152
	C26.044,25.134,26.303,24.9,26.205,24.628z"/>
<path fill="#FC5A4E" d="M26.953,24.607c0.067-0.07-0.21-0.588-0.686-0.494c0.362-0.047,0.582,0.313,0.62,0.447
	c0.021,0.076-0.393,0.076-0.482-0.006c0.146,0.178,0.493,0.064,0.493,0.064l0.092,0.18c0.016-0.012,0.032-0.025,0.048-0.039
	C26.995,24.712,26.931,24.63,26.953,24.607z"/>
<path fill="#FC5A4E" d="M27.216,23.441c0.133,0.123,0.2,0.631,0.09,0.592c-0.196-0.066-0.639-0.115-0.633-0.551
	c-0.056,0.566,0.653,0.623,0.71,0.641c0.028,0.01,0.1,0.053,0.164,0.094c0.013-0.02,0.027-0.037,0.04-0.057l-0.197-0.104
	C27.39,24.056,27.494,23.65,27.216,23.441z"/>
<path fill="#FC5A4E" d="M27.822,22.931c0.022-0.123-0.561-0.463-0.966-0.02c0.324-0.311,0.756-0.094,0.874,0.02
	c0.065,0.063-0.336,0.363-0.474,0.342c0.251,0.08,0.52-0.291,0.52-0.291L28,23.119c0.005-0.027,0.009-0.057,0.013-0.086
	C27.944,23.015,27.814,22.974,27.822,22.931z"/>
<path fill="#FC5A4E" d="M27.327,21.966c0.163,0.043,0.441,0.43,0.334,0.447c-0.191,0.031-0.576,0.186-0.762-0.176
	c0.203,0.49,0.811,0.225,0.864,0.215c0.043-0.008,0.206,0.008,0.278,0.014c-0.002-0.025-0.004-0.049-0.006-0.074l-0.296,0.004
	C27.74,22.396,27.647,22.015,27.327,21.966z"/>
<path fill="#FC5A4E" d="M23.874,25.011c-0.039,0.111-0.396,0.301-0.413,0.227c-0.029-0.131-0.004-0.539,0.329-0.666
	c-0.453,0.137-0.455,0.707-0.364,0.736c0.023,0.008,0.018,0.068,0.007,0.125c0.016,0.004,0.032,0.006,0.048,0.012l-0.002-0.152
	C23.479,25.292,23.83,25.23,23.874,25.011z"/>
<path fill="#FC5A4E" d="M23.097,24.039c0.263,0.385-0.099,0.686-0.232,0.859c-0.075,0.098-0.313-0.393-0.27-0.578
	c-0.124,0.346,0.209,0.646,0.209,0.646l-0.104,0.191c0.021,0.012,0.043,0.021,0.065,0.031c0.031-0.07,0.065-0.145,0.084-0.168
	C22.888,24.974,23.481,24.511,23.097,24.039z"/>
<path fill="#FC5A4E" d="M22.445,24.224c-0.098,0.09-0.492,0.15-0.462,0.076c0.056-0.131,0.318-0.502,0.657-0.51
	c-0.44-0.02-0.78,0.506-0.727,0.563c0.018,0.02-0.056,0.105-0.104,0.156c0.012,0.012,0.024,0.023,0.036,0.037l0.117-0.189
	C21.964,24.357,22.28,24.414,22.445,24.224z"/>
<path fill="#FC5A4E" d="M22.59,23.021c0.034,0.486-0.559,0.516-0.82,0.578c-0.146,0.037-0.084-0.525,0.087-0.654
	c-0.363,0.215-0.198,0.676-0.198,0.676l-0.347,0.139c0.013,0.027,0.026,0.055,0.039,0.084c0.092-0.049,0.265-0.137,0.32-0.15
	C21.746,23.677,22.698,23.656,22.59,23.021z"/>
<path fill="#FC5A4E" d="M21.953,22.669c-0.179,0.07-0.624-0.18-0.527-0.281c0.174-0.182,0.768-0.596,1.113-0.307
	c-0.42-0.432-1.232,0.188-1.23,0.336c0.001,0.049-0.142,0.131-0.235,0.178c0,0.031,0.002,0.063,0.003,0.094l0.28-0.221
	C21.356,22.468,21.618,22.853,21.953,22.669z"/>
<linearGradient id="SVGID_1_" gradientUnits="userSpaceOnUse" x1="24.7607" y1="24.5757" x2="24.7607" y2="20.5767">
	<stop  offset="0" style="stop-color:#A6694A"/>
	<stop  offset="1" style="stop-color:#4F2A1E"/>
	<a:midPointStop  offset="0" style="stop-color:#A6694A"/>
	<a:midPointStop  offset="0.5" style="stop-color:#A6694A"/>
	<a:midPointStop  offset="1" style="stop-color:#4F2A1E"/>
</linearGradient>
<path fill="url(#SVGID_1_)" d="M22.761,22.501c0,2.766,4,2.766,4,0C26.761,19.935,22.761,19.935,22.761,22.501z"/>
<path fill="#1A1626" d="M23.929,22.544c0,1.148,1.662,1.148,1.662,0C25.591,21.48,23.929,21.48,23.929,22.544z"/>
<path fill="#3E4A52" d="M28.046,22.58c0,0,0-0.002,0-0.004c0-4-6.973-4-6.973,0c0,0.002,0,0.004,0,0.004
	C22.474,21.523,26.794,21.636,28.046,22.58z"/>
<path fill="#FCC7C3" d="M42.377,22.576c0-3-6.974-3-6.974,0C35.403,26.576,42.377,26.576,42.377,22.576z"/>
<path fill="#FC5A4E" d="M38.822,24.957c0.037,0.145,0.381,0.395,0.395,0.299c0.029-0.17,0.168-0.512-0.152-0.68
	c0.438,0.184,0.197,0.723,0.188,0.771c-0.006,0.033,0.002,0.141,0.008,0.213c-0.02,0.002-0.041,0.004-0.061,0.006l0.002-0.24
	C39.201,25.326,38.863,25.242,38.822,24.957z"/>
<path fill="#FC5A4E" d="M38.047,25.392c-0.094-0.031-0.1-0.607,0.367-0.742c-0.344,0.125-0.363,0.537-0.332,0.672
	c0.018,0.074,0.385-0.113,0.424-0.227c-0.043,0.223-0.406,0.281-0.406,0.281l0.004,0.131c-0.016-0.004-0.029-0.006-0.045-0.01
	C38.066,25.449,38.068,25.398,38.047,25.392z"/>
<path fill="#FC5A4E" d="M37.244,24.628c-0.035,0.146,0.15,0.527,0.209,0.451c0.105-0.137,0.389-0.373,0.186-0.672
	c0.299,0.367-0.168,0.73-0.199,0.768c-0.014,0.02-0.041,0.076-0.066,0.133c-0.018-0.008-0.035-0.014-0.053-0.021l0.084-0.152
	C37.404,25.134,37.146,24.9,37.244,24.628z"/>
<path fill="#FC5A4E" d="M36.495,24.607c-0.066-0.07,0.211-0.588,0.687-0.494c-0.362-0.047-0.582,0.313-0.62,0.447
	c-0.021,0.076,0.392,0.076,0.481-0.006c-0.146,0.178-0.493,0.064-0.493,0.064l-0.091,0.18c-0.017-0.012-0.032-0.025-0.048-0.039
	C36.453,24.712,36.519,24.63,36.495,24.607z"/>
<path fill="#FC5A4E" d="M36.232,23.441c-0.132,0.123-0.199,0.631-0.09,0.592c0.197-0.066,0.64-0.115,0.633-0.551
	c0.057,0.566-0.653,0.623-0.709,0.641c-0.029,0.01-0.1,0.053-0.164,0.094c-0.014-0.02-0.027-0.037-0.04-0.057l0.196-0.104
	C36.059,24.056,35.954,23.65,36.232,23.441z"/>
<path fill="#FC5A4E" d="M35.626,22.931c-0.022-0.123,0.561-0.463,0.967-0.02c-0.324-0.311-0.757-0.094-0.875,0.02
	c-0.065,0.063,0.337,0.363,0.474,0.342c-0.25,0.08-0.52-0.291-0.52-0.291l-0.223,0.137c-0.005-0.027-0.009-0.057-0.013-0.086
	C35.504,23.015,35.634,22.974,35.626,22.931z"/>
<path fill="#FC5A4E" d="M36.121,21.966c-0.162,0.043-0.44,0.43-0.334,0.447c0.191,0.031,0.576,0.186,0.763-0.176
	c-0.203,0.49-0.811,0.225-0.864,0.215c-0.044-0.008-0.206,0.008-0.278,0.014c0.001-0.025,0.003-0.049,0.006-0.074l0.295,0.004
	C35.708,22.396,35.802,22.015,36.121,21.966z"/>
<path fill="#FC5A4E" d="M39.576,25.011c0.039,0.111,0.395,0.301,0.412,0.227c0.029-0.131,0.004-0.539-0.33-0.666
	c0.455,0.137,0.455,0.707,0.365,0.736c-0.023,0.008-0.018,0.068-0.006,0.125c-0.018,0.004-0.033,0.006-0.049,0.012l0.002-0.152
	C39.971,25.292,39.619,25.23,39.576,25.011z"/>
<path fill="#FC5A4E" d="M40.352,24.039c-0.262,0.385,0.1,0.686,0.234,0.859c0.074,0.098,0.313-0.393,0.27-0.578
	c0.123,0.346-0.209,0.646-0.209,0.646l0.104,0.191c-0.021,0.012-0.043,0.021-0.064,0.031c-0.031-0.07-0.066-0.145-0.084-0.168
	C40.561,24.974,39.969,24.511,40.352,24.039z"/>
<path fill="#FC5A4E" d="M41.004,24.224c0.098,0.09,0.492,0.15,0.463,0.076c-0.057-0.131-0.318-0.502-0.658-0.51
	c0.441-0.02,0.781,0.506,0.727,0.563c-0.018,0.02,0.055,0.105,0.104,0.156c-0.012,0.012-0.023,0.023-0.035,0.037l-0.119-0.189
	C41.484,24.357,41.17,24.414,41.004,24.224z"/>
<path fill="#FC5A4E" d="M40.859,23.021c-0.033,0.486,0.559,0.516,0.82,0.578c0.146,0.037,0.084-0.525-0.086-0.654
	c0.363,0.215,0.197,0.676,0.197,0.676l0.348,0.139c-0.014,0.027-0.027,0.055-0.041,0.084c-0.09-0.049-0.264-0.137-0.32-0.15
	C41.703,23.677,40.75,23.656,40.859,23.021z"/>
<path fill="#FC5A4E" d="M41.496,22.669c0.178,0.07,0.623-0.18,0.527-0.281c-0.174-0.182-0.768-0.596-1.113-0.307
	c0.42-0.432,1.232,0.188,1.23,0.336c0,0.049,0.141,0.131,0.234,0.178c0,0.031,0,0.063-0.002,0.094l-0.279-0.221
	C42.094,22.468,41.832,22.853,41.496,22.669z"/>
<linearGradient id="SVGID_2_" gradientUnits="userSpaceOnUse" x1="-1825.6636" y1="24.5757" x2="-1825.6636" y2="20.5767" gradientTransform="matrix(-1 0 0 1 -1786.9746 0)">
	<stop  offset="0" style="stop-color:#A6694A"/>
	<stop  offset="1" style="stop-color:#4F2A1E"/>
	<a:midPointStop  offset="0" style="stop-color:#A6694A"/>
	<a:midPointStop  offset="0.5" style="stop-color:#A6694A"/>
	<a:midPointStop  offset="1" style="stop-color:#4F2A1E"/>
</linearGradient>
<path fill="url(#SVGID_2_)" d="M40.689,22.501c0,2.766-4.001,2.766-4.001,0C36.688,19.935,40.689,19.935,40.689,22.501z"/>
<path fill="#1A1626" d="M39.521,22.544c0,1.148-1.662,1.148-1.662,0C37.859,21.48,39.521,21.48,39.521,22.544z"/>
<path fill="#3E4A52" d="M35.403,22.58c0,0,0-0.002,0-0.004c0-4,6.974-4,6.974,0c0,0.002,0,0.004,0,0.004
	C41.025,21.076,37.359,20.216,35.403,22.58z"/>
<path fill="#302C3B" d="M14.354,15.371c-3.958,3.309-5.273,13.9-2.253,19.805c-0.77-5.936,2.681-9.102,2.681-9.102L14.354,15.371z"
	/>
<path fill="#302C3B" d="M23.226,3.248c-6.913,2.211-13.52,10.4-13.302,18.773c2.693-7.053,7.371-6.744,7.371-6.744L23.226,3.248z"/>
<path fill="#302C3B" d="M43.701,10.265V5.458c2.945-0.914,9.355,6.344,10.027,14.801C50.654,13.062,43.701,10.265,43.701,10.265z"/>
<path fill="#302C3B" d="M48.777,12.164l-3.795,4.477c0,0,6.469,9.266,5.986,19.788C55.117,25.75,53.346,16.505,48.777,12.164z"/>
<path fill="#302C3B" d="M43.701,5.458c1.217-1.598-9.078-4.971-18.796-2.691c-9.708,2.045-13.704,15.438-13.704,24.195
	c0.811,0.635,4.709-0.947,5.696-1.988c0.402-1.533,1.036-3.109,1.627-4.744c7.291-3.887,15.541-4.801,21.267-9.453
	c-0.732,2.027,3.148,4.58,5.133,9.453c0.645,1.58,1.219,3.164,1.629,4.744c1.617,1.371,3.518,2.02,5.686,1.988
	C52.238,19.556,47.594,4.425,43.701,5.458z"/>
<path fill="#1A1626" d="M12.832,25.63c6.263-8.232,27.108-7.676,30.87-20.172C36.399,15.947,14.543,17.716,12.832,25.63z"/>
</svg>
