<?xml version="1.0" encoding="utf-8"?>
<!-- Generator: Adobe Illustrator 15.0.0, SVG Export Plug-In . SVG Version: 6.00 Build 0)  -->
<!DOCTYPE svg PUBLIC "-//W3C//DTD SVG 1.1//EN" "http://www.w3.org/Graphics/SVG/1.1/DTD/svg11.dtd" [
	<!ENTITY ns_flows "http://ns.adobe.com/Flows/1.0/">
	<!ENTITY ns_extend "http://ns.adobe.com/Extensibility/1.0/">
	<!ENTITY ns_ai "http://ns.adobe.com/AdobeIllustrator/10.0/">
	<!ENTITY ns_graphs "http://ns.adobe.com/Graphs/1.0/">
]>
<svg version="1.1" id="Layer_1" xmlns:x="&ns_extend;" xmlns:i="&ns_ai;" xmlns:graph="&ns_graphs;"
	 xmlns="http://www.w3.org/2000/svg" xmlns:xlink="http://www.w3.org/1999/xlink" xmlns:a="http://ns.adobe.com/AdobeSVGViewerExtensions/3.0/"
	 x="0px" y="0px" width="64px" height="64px" viewBox="0 0 64 64" enable-background="new 0 0 64 64" xml:space="preserve">
<path fill="#1A1626" d="M62,25c-8.074,8.922-20.783,8.977-30,8.971C22.783,33.977,10.076,33.922,2,25
	c0,16.412,16.279,21.006,9.486,30.965c-2.146,3.146,43.176,3.146,41.029,0C45.723,46.006,62,41.412,62,25z"/>
<path fill="#E81C27" d="M32,33.971c-9.217,0.006-19.984-0.516-28-7.018c0,9.727,23.279,21.068,16.486,31.025
	c-2.146,3.148,25.174,3.148,23.027,0c-6.793-9.957,16.488-21.299,16.488-31.025C51.986,33.455,41.217,33.977,32,33.971z"/>
<path fill="#1A1626" d="M11.433,52.754c2.501-1.365,12.878-4.969,12.878-4.969H39.77c0,0,10.369,3.596,12.855,4.965
	C56.24,54.734,57,62,57,62H7C7,62,7.807,54.73,11.433,52.754z"/>
<polygon fill="#E6EBEF" points="24.383,46.785 39.694,46.785 36.159,62 27.849,62 "/>
<path fill="#BA0009" d="M41.533,45.85l-1.684,0.248c0,0-5.057,7.037-7.85,12.744c-2.793-5.707-7.85-12.744-7.85-12.744l-1.684-0.248
	L26.51,62h10.98L41.533,45.85z"/>
<path fill="#F5F5F5" d="M40.226,45.045l0.12,2.188l-2.515,7.385l-5.827-4.629L40.226,45.045z"/>
<path fill="#F5F5F5" d="M23.782,45.045l-0.118,2.188l2.514,7.385l5.826-4.629L23.782,45.045z"/>
<path fill="#302C3B" d="M38.993,62c0,0,3.183-3.684,5.069-7.215l-2.555-3.504l5.182-2.432c0,0-3.464-2.598-6.966-3.752
	c0,0-1.896,10.678-5.314,16.902H38.993z"/>
<path fill="#302C3B" d="M25.007,62c0,0-3.185-3.684-5.069-7.215l2.555-3.504l-5.182-2.432c0,0,3.464-2.598,6.966-3.752
	c0,0,1.896,10.678,5.314,16.902H25.007z"/>
<path fill="#302C3B" d="M49,41.307c0,0,3.314-19.238-4.682-28.312c-11.27,0.337-5.117,29.884-5.117,29.884L49,41.307z"/>
<path fill="#302C3B" d="M18.922,12.995C10.926,22.068,15,41.307,15,41.307l9.801,1.572C24.801,42.879,30.193,13.332,18.922,12.995z"
	/>
<path id="Path_891_" fill="#FFCC66" d="M48.443,25.393c-2.547,0.308-4.383,8.816-2.783,11.061c0.225,0.314,1.535,0.814,2.508-1.166
	c0.539-1.098,2.094-2.014,2.574-4.278C51.359,28.109,50.977,25.086,48.443,25.393z"/>
<path id="Path_890_" fill="#FFCC66" d="M15.559,25.393c2.547,0.308,4.385,8.816,2.783,11.061c-0.225,0.314-1.537,0.814-2.508-1.166
	c-0.539-1.098-2.094-2.014-2.574-4.278C12.643,28.109,13.027,25.086,15.559,25.393z"/>
<path id="Path_889_" fill="#DB9D3A" d="M48.373,27.023c-0.664,0.209-1.389,1.22-1.781,2.896c2.322-0.498,1.742,3.363-0.275,3.436
	c0.018,0.389,0.045,0.787,0.092,1.207c0.973-1.408,1.959-0.844,2.938-2.94C50.227,29.731,50.018,26.508,48.373,27.023z"/>
<path id="Path_888_" fill="#DB9D3A" d="M17.41,29.916c-0.395-1.675-1.117-2.686-1.781-2.893c-1.645-0.516-1.855,2.708-0.975,4.599
	c0.979,2.096,1.967,1.532,2.939,2.94c0.049-0.42,0.074-0.82,0.092-1.209C15.688,33.258,15.117,29.446,17.41,29.916z"/>
<path fill="#FFCC66" d="M32,9.035c-11.029,0-16.342,8.965-15.678,20.492c0.137,2.318,0.783,5.662,1.58,8.525
	C19.557,44.006,28.283,50,32,50s12.443-5.994,14.1-11.947c0.797-2.863,1.441-6.208,1.578-8.525C48.342,18,43.031,9.035,32,9.035z"/>
<path id="Path_887_" fill="#1A1626" d="M43.982,24.543c-2.521-1.333-7.35-1.398-9.146-0.47c-0.387,0.18-0.131,1.443,0.193,1.323
	c2.504-0.989,6.547-1.012,8.893,0.085C44.234,25.623,44.365,24.729,43.982,24.543z"/>
<path id="Path_886_" fill="#1A1626" d="M20.02,24.543c2.521-1.333,7.346-1.398,9.146-0.47c0.383,0.18,0.131,1.443-0.193,1.323
	c-2.51-0.989-6.547-1.012-8.895,0.085C19.766,25.623,19.637,24.729,20.02,24.543z"/>
<path id="Path_885_" fill="#DB9D3A" d="M34.977,36.109c-0.314-0.221-1.053,0.117-2.977,0.117c-1.92,0-2.66-0.338-2.977-0.117
	C28.648,36.373,29.248,37.57,32,37.57C34.754,37.57,35.355,36.373,34.977,36.109z"/>
<path id="Path_884_" fill="#1A1626" d="M32,40.646c-2.48-0.729-6.156,0.344-6.156,0.344c1.4,1.523,2.426,3.498,6.156,3.498
	c4.273,0,5.002-2.242,6.158-3.498C38.158,40.99,34.48,39.914,32,40.646z"/>
<path id="Path_883_" fill="#FFFFFF" d="M26.768,41.248c2.602,2.178,7.852,2.193,10.467,0C34.463,41.367,29.559,41.369,26.768,41.248
	z"/>
<path id="Path_882_" fill="#FFFFFF" d="M29.547,29.086c0.094,0.729-0.402,1.593-1.773,2.24c-0.873,0.412-2.684,0.897-5.066-0.105
	c-1.066-0.45-2.107-1.85-2.014-2.624C21.984,26.167,28.338,25.812,29.547,29.086z"/>
<linearGradient id="Oval_1_" gradientUnits="userSpaceOnUse" x1="-424.5815" y1="477.4658" x2="-424.5815" y2="478.2246" gradientTransform="matrix(6.5701 0 0 -6.5701 2814.7805 3168.5281)">
	<stop  offset="0" style="stop-color:#C20606"/>
	<stop  offset="1" style="stop-color:#5E0000"/>
	<a:midPointStop  offset="0" style="stop-color:#C20606"/>
	<a:midPointStop  offset="0.5" style="stop-color:#C20606"/>
	<a:midPointStop  offset="1" style="stop-color:#5E0000"/>
</linearGradient>
<ellipse id="Oval_106_" fill="url(#Oval_1_)" cx="25.234" cy="29.037" rx="2.498" ry="2.492"/>
<path id="Path_881_" fill="#1A1626" d="M23.988,28.991c0,1.725,2.496,1.725,2.496,0C26.484,27.391,23.988,27.391,23.988,28.991z"/>
<path id="Path_880_" fill="#AB968C" d="M23.607,28.293c0,0.724,1.047,0.724,1.047,0C24.654,27.623,23.607,27.623,23.607,28.293z"/>
<path id="Path_776_" fill="#1A1626" d="M29.559,29.183c-1.014-3.253-7.924-2.772-8.865-0.586
	C21.041,25.797,28.695,25.058,29.559,29.183z"/>
<path id="Path_775_" fill="#FFFFFF" d="M34.455,29.086c-0.096,0.729,0.4,1.593,1.773,2.24c0.871,0.412,2.684,0.897,5.064-0.105
	c1.07-0.45,2.109-1.85,2.016-2.624C42.02,26.167,35.662,25.812,34.455,29.086z"/>
<linearGradient id="Oval_2_" gradientUnits="userSpaceOnUse" x1="-425.23" y1="477.4658" x2="-425.23" y2="478.2246" gradientTransform="matrix(6.5701 0 0 -6.5701 2832.511 3168.5281)">
	<stop  offset="0" style="stop-color:#C20606"/>
	<stop  offset="1" style="stop-color:#5E0000"/>
	<a:midPointStop  offset="0" style="stop-color:#C20606"/>
	<a:midPointStop  offset="0.5" style="stop-color:#C20606"/>
	<a:midPointStop  offset="1" style="stop-color:#5E0000"/>
</linearGradient>
<circle id="Oval_105_" fill="url(#Oval_2_)" cx="38.711" cy="29.037" r="2.492"/>
<path id="Path_762_" fill="#1A1626" d="M37.463,28.991c0,1.725,2.496,1.725,2.496,0C39.959,27.391,37.463,27.391,37.463,28.991z"/>
<path id="Path_761_" fill="#AB968C" d="M37.084,28.293c0,0.724,1.045,0.724,1.045,0C38.129,27.623,37.084,27.623,37.084,28.293z"/>
<path id="Path_760_" fill="#1A1626" d="M34.443,29.183c1.012-3.251,7.92-2.786,8.865-0.586
	C42.959,25.797,35.307,25.058,34.443,29.183z"/>
<path fill="#302C3B" d="M32.002,6c-6.711,0-10.064,3.035-10.744,4.474c-8.113,1.852-10.723,15.515-4.648,21.344
	c0.754-6.21,1.48-10.201,5.617-14.405c2.412,3.227,7.424,5.042,11.91,5.042c-2.125-1.54-3.574-3.051-4.711-4.458
	c7.494,3.434,15.885,5.631,17.969,13.821C54.604,20.359,48.615,6,32.002,6z"/>
<polygon fill="#FFFFFF" points="27.299,41.281 28.17,44.67 29.098,41.393 "/>
<polygon fill="#FFFFFF" points="36.701,41.281 35.83,44.67 34.902,41.393 "/>
</svg>
