<?xml version="1.0" encoding="utf-8"?>
<!-- Generator: Adobe Illustrator 15.0.0, SVG Export Plug-In . SVG Version: 6.00 Build 0)  -->
<!DOCTYPE svg PUBLIC "-//W3C//DTD SVG 1.1//EN" "http://www.w3.org/Graphics/SVG/1.1/DTD/svg11.dtd" [
	<!ENTITY ns_flows "http://ns.adobe.com/Flows/1.0/">
	<!ENTITY ns_extend "http://ns.adobe.com/Extensibility/1.0/">
	<!ENTITY ns_ai "http://ns.adobe.com/AdobeIllustrator/10.0/">
	<!ENTITY ns_graphs "http://ns.adobe.com/Graphs/1.0/">
]>
<svg version="1.1" id="Layer_1" xmlns:x="&ns_extend;" xmlns:i="&ns_ai;" xmlns:graph="&ns_graphs;"
	 xmlns="http://www.w3.org/2000/svg" xmlns:xlink="http://www.w3.org/1999/xlink" xmlns:a="http://ns.adobe.com/AdobeSVGViewerExtensions/3.0/"
	 x="0px" y="0px" width="64px" height="64px" viewBox="0 0 64 64" enable-background="new 0 0 64 64" xml:space="preserve">
<linearGradient id="SVGID_1_" gradientUnits="userSpaceOnUse" x1="30.2017" y1="34.749" x2="50.2783" y2="34.749">
	<stop  offset="0" style="stop-color:#B9F44C"/>
	<stop  offset="0.1759" style="stop-color:#95E76C"/>
	<stop  offset="0.3211" style="stop-color:#7EDE81"/>
	<stop  offset="0.4131" style="stop-color:#76DB88"/>
	<stop  offset="0.637" style="stop-color:#4AC5A3"/>
	<stop  offset="0.8767" style="stop-color:#20B0BC"/>
	<stop  offset="1" style="stop-color:#10A8C6"/>
	<a:midPointStop  offset="0" style="stop-color:#B9F44C"/>
	<a:midPointStop  offset="0.5" style="stop-color:#B9F44C"/>
	<a:midPointStop  offset="0.1759" style="stop-color:#95E76C"/>
	<a:midPointStop  offset="0.5" style="stop-color:#95E76C"/>
	<a:midPointStop  offset="0.3211" style="stop-color:#7EDE81"/>
	<a:midPointStop  offset="0.5" style="stop-color:#7EDE81"/>
	<a:midPointStop  offset="0.4131" style="stop-color:#76DB88"/>
	<a:midPointStop  offset="0.5" style="stop-color:#76DB88"/>
	<a:midPointStop  offset="0.637" style="stop-color:#4AC5A3"/>
	<a:midPointStop  offset="0.5" style="stop-color:#4AC5A3"/>
	<a:midPointStop  offset="0.8767" style="stop-color:#20B0BC"/>
	<a:midPointStop  offset="0.5" style="stop-color:#20B0BC"/>
	<a:midPointStop  offset="1" style="stop-color:#10A8C6"/>
</linearGradient>
<path fill="url(#SVGID_1_)" d="M48.444,44.169c-12.252,0.789-18.243-10.207-18.243-17.487c8.577-4.555,17.334,2.896,17.147,10.339
	C47.294,39.233,53.157,43.867,48.444,44.169z"/>
<path opacity="0.1" fill="#297124" d="M48.815,42.782c-3.836-1.292-5.607-4.37-7.488-7.631c-1.084-1.881-2.193-3.79-3.729-5.352
	c4.963-0.043,6.818,2.246,8.148,5.955c0.039,0.108,0.145,0.178,0.258,0.178c0.029,0,0.059-0.006,0.09-0.016
	c0.141-0.047,0.215-0.197,0.166-0.334c-1.418-3.954-3.541-6.536-9.207-6.3c-1.65-1.482-3.779-2.568-6.825-2.865
	c-0.15-0.017-0.285,0.092-0.299,0.238c-0.016,0.144,0.096,0.272,0.244,0.286c1.383,0.135,2.563,0.439,3.592,0.869
	c-0.848,2.399,0.227,3.822,1.475,5.454c1.211,1.582,2.584,3.378,2.584,6.588c0,0.145,0.123,0.261,0.271,0.261
	c0.152,0,0.273-0.116,0.273-0.261c0-3.382-1.492-5.332-2.691-6.9c-1.193-1.562-2.139-2.812-1.416-4.925
	c3.211,1.535,4.869,4.395,6.59,7.381c1.846,3.2,3.754,6.512,7.785,7.869c0.029,0.01,0.061,0.016,0.09,0.016
	c0.113,0,0.219-0.068,0.256-0.177C49.032,42.979,48.958,42.829,48.815,42.782z"/>
<linearGradient id="SVGID_2_" gradientUnits="userSpaceOnUse" x1="30.2017" y1="15.4854" x2="57.001" y2="15.4854">
	<stop  offset="0" style="stop-color:#B9F44C"/>
	<stop  offset="0.1759" style="stop-color:#95E76C"/>
	<stop  offset="0.3211" style="stop-color:#7EDE81"/>
	<stop  offset="0.4131" style="stop-color:#76DB88"/>
	<stop  offset="0.637" style="stop-color:#4AC5A3"/>
	<stop  offset="0.8767" style="stop-color:#20B0BC"/>
	<stop  offset="1" style="stop-color:#10A8C6"/>
	<a:midPointStop  offset="0" style="stop-color:#B9F44C"/>
	<a:midPointStop  offset="0.5" style="stop-color:#B9F44C"/>
	<a:midPointStop  offset="0.1759" style="stop-color:#95E76C"/>
	<a:midPointStop  offset="0.5" style="stop-color:#95E76C"/>
	<a:midPointStop  offset="0.3211" style="stop-color:#7EDE81"/>
	<a:midPointStop  offset="0.5" style="stop-color:#7EDE81"/>
	<a:midPointStop  offset="0.4131" style="stop-color:#76DB88"/>
	<a:midPointStop  offset="0.5" style="stop-color:#76DB88"/>
	<a:midPointStop  offset="0.637" style="stop-color:#4AC5A3"/>
	<a:midPointStop  offset="0.5" style="stop-color:#4AC5A3"/>
	<a:midPointStop  offset="0.8767" style="stop-color:#20B0BC"/>
	<a:midPointStop  offset="0.5" style="stop-color:#20B0BC"/>
	<a:midPointStop  offset="1" style="stop-color:#10A8C6"/>
</linearGradient>
<path fill="url(#SVGID_2_)" d="M55.659,4.475C36.765,1.818,30.202,19.846,30.202,26.682c8.68,0.388,15.19-0.524,15.411-5.361
	c0.199-4.406,7.598-2.084,6.324-8.493C51.413,10.188,60.288,5.124,55.659,4.475z"/>
<path opacity="0.2" fill="#297124" d="M46.437,10.814c2.98-1.301,6.061-2.647,8.723-4.923c0.113-0.096,0.123-0.262,0.023-0.37
	c-0.102-0.111-0.273-0.12-0.385-0.024c-2.602,2.225-5.508,3.493-8.586,4.839c-6.117,2.672-12.439,5.437-16.217,16.12
	c0.242,0.041,0.379,0.216,0.41,0.415c1.992-1.025,3.817-2.869,5.747-4.823c0.459-0.467,0.924-0.937,1.391-1.396
	c1.715,0.094,2.516,0.931,3.223,1.676c0.602,0.64,1.182,1.255,2.186,1.255c0.496,0,1.094-0.148,1.848-0.518
	c0.133-0.065,0.188-0.224,0.119-0.354c-0.066-0.129-0.23-0.181-0.363-0.115c-1.92,0.938-2.502,0.316-3.387-0.621
	c-0.678-0.715-1.52-1.57-3.145-1.792c3.434-3.301,7.174-5.951,12.357-3.861c0.137,0.056,0.299-0.006,0.357-0.14
	s-0.008-0.289-0.146-0.345c-6.484-2.609-10.92,1.883-14.834,5.847c-1.713,1.739-3.344,3.383-5.055,4.412
	C34.425,16.066,40.528,13.395,46.437,10.814z"/>
<linearGradient id="SVGID_3_" gradientUnits="userSpaceOnUse" x1="795.1367" y1="32.3154" x2="812.4287" y2="32.3154" gradientTransform="matrix(-1 0 0 1 825.2188 0)">
	<stop  offset="0" style="stop-color:#B9F44C"/>
	<stop  offset="0.1759" style="stop-color:#95E76C"/>
	<stop  offset="0.3211" style="stop-color:#7EDE81"/>
	<stop  offset="0.4131" style="stop-color:#76DB88"/>
	<stop  offset="0.637" style="stop-color:#4AC5A3"/>
	<stop  offset="0.8767" style="stop-color:#20B0BC"/>
	<stop  offset="1" style="stop-color:#10A8C6"/>
	<a:midPointStop  offset="0" style="stop-color:#B9F44C"/>
	<a:midPointStop  offset="0.5" style="stop-color:#B9F44C"/>
	<a:midPointStop  offset="0.1759" style="stop-color:#95E76C"/>
	<a:midPointStop  offset="0.5" style="stop-color:#95E76C"/>
	<a:midPointStop  offset="0.3211" style="stop-color:#7EDE81"/>
	<a:midPointStop  offset="0.5" style="stop-color:#7EDE81"/>
	<a:midPointStop  offset="0.4131" style="stop-color:#76DB88"/>
	<a:midPointStop  offset="0.5" style="stop-color:#76DB88"/>
	<a:midPointStop  offset="0.637" style="stop-color:#4AC5A3"/>
	<a:midPointStop  offset="0.5" style="stop-color:#4AC5A3"/>
	<a:midPointStop  offset="0.8767" style="stop-color:#20B0BC"/>
	<a:midPointStop  offset="0.5" style="stop-color:#20B0BC"/>
	<a:midPointStop  offset="1" style="stop-color:#10A8C6"/>
</linearGradient>
<path fill="url(#SVGID_3_)" d="M14.369,40.43c10.553,0.68,15.713-8.791,15.713-15.063c-7.387-3.924-14.93,2.495-14.77,8.905
	C15.361,36.176,10.311,40.168,14.369,40.43z"/>
<path opacity="0.1" fill="#297124" d="M14.047,39.235c3.305-1.113,4.832-3.765,6.453-6.571c0.934-1.622,1.889-3.266,3.213-4.61
	c-4.275-0.037-5.875,1.934-7.02,5.127c-0.035,0.094-0.125,0.154-0.223,0.154c-0.027,0-0.051-0.005-0.078-0.014
	c-0.121-0.04-0.186-0.169-0.143-0.287c1.221-3.406,3.051-5.631,7.93-5.428c1.422-1.277,3.256-2.21,5.879-2.466
	c0.129-0.015,0.244,0.077,0.258,0.205c0.012,0.123-0.082,0.235-0.211,0.246c-1.193,0.116-2.207,0.379-3.094,0.747
	c0.731,2.069-0.195,3.293-1.271,4.698c-1.043,1.363-2.225,2.91-2.225,5.676c0,0.125-0.105,0.226-0.234,0.226
	s-0.234-0.101-0.234-0.226c0-2.915,1.285-4.594,2.318-5.944c1.025-1.345,1.842-2.421,1.217-4.241
	c-2.766,1.321-4.191,3.785-5.674,6.356c-1.588,2.757-3.234,5.609-6.705,6.776c-0.025,0.009-0.053,0.015-0.078,0.015
	c-0.098,0-0.188-0.06-0.221-0.151C13.861,39.404,13.926,39.275,14.047,39.235z"/>
<linearGradient id="SVGID_4_" gradientUnits="userSpaceOnUse" x1="795.1367" y1="15.7236" x2="818.2188" y2="15.7236" gradientTransform="matrix(-1 0 0 1 825.2188 0)">
	<stop  offset="0" style="stop-color:#B9F44C"/>
	<stop  offset="0.1759" style="stop-color:#95E76C"/>
	<stop  offset="0.3211" style="stop-color:#7EDE81"/>
	<stop  offset="0.4131" style="stop-color:#76DB88"/>
	<stop  offset="0.637" style="stop-color:#4AC5A3"/>
	<stop  offset="0.8767" style="stop-color:#20B0BC"/>
	<stop  offset="1" style="stop-color:#10A8C6"/>
	<a:midPointStop  offset="0" style="stop-color:#B9F44C"/>
	<a:midPointStop  offset="0.5" style="stop-color:#B9F44C"/>
	<a:midPointStop  offset="0.1759" style="stop-color:#95E76C"/>
	<a:midPointStop  offset="0.5" style="stop-color:#95E76C"/>
	<a:midPointStop  offset="0.3211" style="stop-color:#7EDE81"/>
	<a:midPointStop  offset="0.5" style="stop-color:#7EDE81"/>
	<a:midPointStop  offset="0.4131" style="stop-color:#76DB88"/>
	<a:midPointStop  offset="0.5" style="stop-color:#76DB88"/>
	<a:midPointStop  offset="0.637" style="stop-color:#4AC5A3"/>
	<a:midPointStop  offset="0.5" style="stop-color:#4AC5A3"/>
	<a:midPointStop  offset="0.8767" style="stop-color:#20B0BC"/>
	<a:midPointStop  offset="0.5" style="stop-color:#20B0BC"/>
	<a:midPointStop  offset="1" style="stop-color:#10A8C6"/>
</linearGradient>
<path fill="url(#SVGID_4_)" d="M8.156,6.239C24.43,3.951,30.083,19.479,30.083,25.367c-7.477,0.333-13.084-0.453-13.274-4.617
	c-0.172-3.796-6.543-1.797-5.447-7.315C11.813,11.161,4.168,6.801,8.156,6.239z"/>
<path opacity="0.2" fill="#297124" d="M16.098,11.701c-2.566-1.121-5.221-2.282-7.512-4.241C8.488,7.378,8.48,7.234,8.566,7.142
	c0.086-0.096,0.234-0.103,0.33-0.021c2.24,1.914,4.744,3.008,7.395,4.167c5.268,2.302,10.715,4.682,13.969,13.884
	c-0.207,0.036-0.326,0.186-0.352,0.359c-1.719-0.884-3.29-2.472-4.952-4.156c-0.396-0.401-0.795-0.805-1.197-1.203
	c-1.477,0.081-2.168,0.804-2.775,1.446c-0.518,0.55-1.018,1.079-1.885,1.079c-0.426,0-0.941-0.129-1.59-0.445
	c-0.115-0.057-0.162-0.193-0.104-0.304c0.059-0.111,0.199-0.156,0.314-0.1c1.654,0.806,2.156,0.272,2.918-0.537
	c0.582-0.614,1.309-1.352,2.705-1.542c-2.955-2.844-6.176-5.125-10.643-3.325c-0.119,0.046-0.258-0.006-0.307-0.122
	c-0.051-0.114,0.006-0.248,0.127-0.296c5.586-2.248,9.404,1.621,12.777,5.036c1.473,1.496,2.879,2.914,4.352,3.801
	C26.443,16.224,21.188,13.923,16.098,11.701z"/>
<path fill="#C99B71" d="M38.454,52.788c-0.563-1.769-2.215-0.503-3.604-3.172c-0.613-1.17-0.912,0.289-1.643,0.09
	c-2.913-0.782-4.083-5.356-8.05-6.223c11.394-4.961,4.874-11.068,3.452-10.567c-3.026,1.069-7.647,10.223-6.483,11.518
	C29.598,52.752,38.612,53.291,38.454,52.788z"/>
<path fill="#C99B71" d="M25.178,22.26c-0.797,2.806-0.797,4.355-0.654,4.985c-0.725,1.475-0.244,2.93-0.488,4.234
	c-0.064,0.347-0.41-0.535-0.674-1c0,0-0.338,0.538-0.074,1.119c0,0-1.037-0.727-1.254-1.477c-0.387,1.281,1.107,2.226,0.916,2.54
	c-0.346,0.562-1.26,0.942-1.258,1.814c1.473-1.353,1.979-0.554,2.891-1.169c0.605,0.036,0.996-0.497,0.561-1.513
	C25.371,30.842,27.885,26.883,25.178,22.26z"/>
<path fill="#EBC199" d="M33.183,19.099c-0.401-0.097-0.391-0.168-0.991-0.192c-0.727-0.895,1.243-2.613-2.34-2.288
	c-2.648,0.461-0.773,1.772-1.541,2.471c-1.396,0.11-1.266,0.635-1.76,0.674c-2.547,0.179-3.582,2.867-1.305,4.406
	c-0.537,1.456,0.412,2.688,0.41,4.168c-0.01,2.737,1.52,4.219,2.825,6.214c-4.797,3.184-10.797,7.944-9.965,9.415
	c7.246,12.807,15.657,18.652,15.772,17.982c0.412-2.354-2.174-1.698-2.208-5.599c-0.014-1.712-1.299-0.238-2.033-0.965
	c-4.196-4.152-2.633-8.093-7.032-10.786c16.292-3.441,12.845-11.253,10.538-12.739c-4.499-2.899-1.264-4.149,0.535-8.52
	C34.733,21.773,35.476,19.662,33.183,19.099z"/>
<path fill="#EBC199" d="M46.091,16.932c-0.16,1.385-3.99,3.584-5.264,5.086c-0.818-0.017-2.922-1.186-5.102-1.853
	c-4.35-3.965-7.178,3.245-1.002,3.105c1.141,0.437,5.873,1.437,7.094,0.843c1.813-0.884,4.529-5.662,5.848-5.719
	C51.681,18.223,46.276,15.319,46.091,16.932z"/>
<path fill="#C99B71" d="M27.729,17.229c2.262,2.522,2.719,2.519,4.971-0.007L27.729,17.229z"/>
<radialGradient id="SVGID_5_" cx="26.5767" cy="29.7207" r="29.7219" gradientTransform="matrix(0.9904 0.1384 -0.0541 0.387 1.8636 14.5398)" gradientUnits="userSpaceOnUse">
	<stop  offset="0" style="stop-color:#8E3ED6"/>
	<stop  offset="0.5697" style="stop-color:#CD41E3"/>
	<stop  offset="0.704" style="stop-color:#B540DE"/>
	<stop  offset="0.8916" style="stop-color:#993FD8"/>
	<stop  offset="1" style="stop-color:#8E3ED6"/>
	<a:midPointStop  offset="0" style="stop-color:#8E3ED6"/>
	<a:midPointStop  offset="0.5" style="stop-color:#8E3ED6"/>
	<a:midPointStop  offset="0.5697" style="stop-color:#CD41E3"/>
	<a:midPointStop  offset="0.4146" style="stop-color:#CD41E3"/>
	<a:midPointStop  offset="1" style="stop-color:#8E3ED6"/>
</radialGradient>
<path fill="url(#SVGID_5_)" d="M25.305,20.097c3.143-0.359,7.319,0.26,8.819,3.162c-2.008,5.674-4.588,4.773,0.305,8.821
	c5.412,4.477-1.41,15.534-1.26,10.375c0.09-3.09-3.266,3.786-3.481,0.63c-0.182-2.699-3.997,1.641-3.84-0.18
	c0.42-4.83-5.219,2.139-4.32-1.53c0.482-1.951-5.453,0.218-2.627-1.358c2.508-1.401,6.078-5.54,7.615-7.398
	c-1.777-3.691-1.098-6.54-1.928-7.802C23.119,22.577,24.059,20.617,25.305,20.097z"/>
<path fill="#E642FF" d="M25.625,21.747c0,0.519-0.777,0.519-0.777,0S25.625,21.229,25.625,21.747z"/>
<path fill="#E642FF" d="M29.704,25.139c0,0.519-0.777,0.519-0.777,0S29.704,24.62,29.704,25.139z"/>
<path fill="#E642FF" d="M27.516,28.201c0,0.519-0.778,0.519-0.778,0S27.516,27.683,27.516,28.201z"/>
<path fill="#E642FF" d="M30.649,31.387c0,0.519-0.777,0.519-0.777,0S30.649,30.868,30.649,31.387z"/>
<path fill="#E642FF" d="M33.253,36.819c0,0.519-0.778,0.519-0.778,0S33.253,36.301,33.253,36.819z"/>
<path fill="#E642FF" d="M28.682,40.063c0,0.519-0.777,0.519-0.777,0S28.682,39.545,28.682,40.063z"/>
<path fill="#E642FF" d="M24.057,38.532c0,0.519-0.777,0.519-0.777,0S24.057,38.014,24.057,38.532z"/>
<path fill="#E642FF" d="M28.293,35.138c0,0.519-0.777,0.519-0.777,0S28.293,34.619,28.293,35.138z"/>
<path fill="#E642FF" d="M34.778,41.06c0,0.519-0.777,0.519-0.777,0S34.778,40.541,34.778,41.06z"/>
<path fill="#E642FF" d="M35.013,34.153c0,0.519-0.777,0.519-0.777,0S35.013,33.635,35.013,34.153z"/>
<path fill="#E642FF" d="M32.862,23.778c0,0.519-0.777,0.519-0.777,0S32.862,23.26,32.862,23.778z"/>
<path fill="#FF66FA" d="M30.844,27.066c0,0.261-0.391,0.261-0.391,0S30.844,26.806,30.844,27.066z"/>
<path fill="#FF66FA" d="M26.34,25.631c0,0.261-0.391,0.261-0.391,0S26.34,25.37,26.34,25.631z"/>
<path fill="#FF66FA" d="M28.231,22.331c0,0.261-0.391,0.261-0.391,0S28.231,22.07,28.231,22.331z"/>
<path fill="#FF66FA" d="M28.231,31.774c0,0.261-0.391,0.261-0.391,0S28.231,31.514,28.231,31.774z"/>
<path fill="#FF66FA" d="M30.958,34.281c0,0.261-0.391,0.261-0.391,0S30.958,34.021,30.958,34.281z"/>
<path fill="#FF66FA" d="M31.622,38.921c0,0.261-0.391,0.261-0.391,0S31.622,38.66,31.622,38.921z"/>
<path fill="#FF66FA" d="M27.182,37.632c0,0.261-0.391,0.261-0.391,0S27.182,37.371,27.182,37.632z"/>
<path fill="#FF66FA" d="M22.855,40.538c0,0.261-0.391,0.261-0.391,0S22.855,40.277,22.855,40.538z"/>
<path fill="#FF66FA" d="M34.974,38.21c0,0.261-0.391,0.261-0.391,0S34.974,37.949,34.974,38.21z"/>
<path fill="#FF66FA" d="M33.06,32.407c0,0.261-0.391,0.261-0.391,0S33.06,32.146,33.06,32.407z"/>
<path fill="#FF66FA" d="M29.981,36.431c0,0.261-0.391,0.261-0.391,0S29.981,36.17,29.981,36.431z"/>
<path fill="#FF66FA" d="M25.48,35.526c0,0.261-0.391,0.261-0.391,0S25.48,35.266,25.48,35.526z"/>
<path fill="#FF66FA" d="M30.278,28.785c0,0.261-0.391,0.261-0.391,0S30.278,28.524,30.278,28.785z"/>
<path fill="#FF66FA" d="M30.473,22.895c0,0.261-0.391,0.261-0.391,0S30.473,22.634,30.473,22.895z"/>
<path fill="#FF66FA" d="M26.814,23.52c0,0.261-0.391,0.261-0.391,0S26.814,23.259,26.814,23.52z"/>
<radialGradient id="SVGID_6_" cx="241.9785" cy="-160.1924" r="5.2702" gradientTransform="matrix(1.1736 -0.2941 0.4296 0.9968 -184.6927 233.0194)" gradientUnits="userSpaceOnUse">
	<stop  offset="0" style="stop-color:#FFABF7"/>
	<stop  offset="0.1555" style="stop-color:#FDA6F6"/>
	<stop  offset="0.3287" style="stop-color:#F699F2"/>
	<stop  offset="0.5105" style="stop-color:#EA83EB"/>
	<stop  offset="0.6982" style="stop-color:#DA64E2"/>
	<stop  offset="0.8886" style="stop-color:#C53CD7"/>
	<stop  offset="1" style="stop-color:#B721CF"/>
	<a:midPointStop  offset="0" style="stop-color:#FFABF7"/>
	<a:midPointStop  offset="0.6848" style="stop-color:#FFABF7"/>
	<a:midPointStop  offset="1" style="stop-color:#B721CF"/>
</radialGradient>
<path fill="url(#SVGID_6_)" d="M27.133,4.722c0.12,1.211,5.702,4.914,7.63,3.265c3.113-2.664-0.51-7.035-4.27-5.758
	C28.598,1.92,26.984,3.203,27.133,4.722z"/>
<linearGradient id="SVGID_7_" gradientUnits="userSpaceOnUse" x1="79.4209" y1="-71.8428" x2="83.1709" y2="-71.8428" gradientTransform="matrix(0.9898 0.1426 -0.1426 0.9898 -58.5797 63.519)">
	<stop  offset="0" style="stop-color:#FFABF7"/>
	<stop  offset="0.2111" style="stop-color:#FDA8F6"/>
	<stop  offset="0.3793" style="stop-color:#F89EF3"/>
	<stop  offset="0.5327" style="stop-color:#EF8DEE"/>
	<stop  offset="0.6774" style="stop-color:#E375E7"/>
	<stop  offset="0.8158" style="stop-color:#D357DF"/>
	<stop  offset="0.9478" style="stop-color:#C032D4"/>
	<stop  offset="1" style="stop-color:#B721CF"/>
	<a:midPointStop  offset="0" style="stop-color:#FFABF7"/>
	<a:midPointStop  offset="0.7515" style="stop-color:#FFABF7"/>
	<a:midPointStop  offset="1" style="stop-color:#B721CF"/>
</linearGradient>
<path fill="url(#SVGID_7_)" d="M33.747,5.936c-1.034-3.096-2.543-3.359-3.254-3.707C32.024,1.85,34.142,3.188,33.747,5.936z"/>
<path fill="#8E3ED6" d="M28.286,4.898c-0.951,1.033,6.213,3.725,6.245,1.674C34.563,4.406,29.653,3.41,28.286,4.898z"/>
<path id="Path_746_" fill="#EBC199" d="M24.739,10.549c0.84,0.102,1.445,2.91,0.918,3.65c-0.074,0.104-0.507,0.27-0.826-0.385
	c-0.178-0.362-0.69-0.664-0.849-1.412C23.778,11.445,23.905,10.447,24.739,10.549z"/>
<path id="Path_745_" fill="#EBC199" d="M35.575,10.549c-0.84,0.102-1.443,2.91-0.916,3.65c0.074,0.104,0.506,0.27,0.826-0.385
	c0.178-0.362,0.689-0.664,0.848-1.412C36.536,11.445,36.409,10.447,35.575,10.549z"/>
<path id="Path_744_" fill="#C99B71" d="M24.763,11.088c0.219,0.068,0.457,0.402,0.587,0.955c-0.765-0.164-0.573,1.11,0.091,1.135
	c-0.006,0.127-0.014,0.26-0.03,0.398c-0.32-0.465-0.646-0.279-0.968-0.971C24.151,11.981,24.221,10.917,24.763,11.088z"/>
<path id="Path_743_" fill="#C99B71" d="M34.966,12.042c0.129-0.553,0.367-0.887,0.586-0.954c0.543-0.171,0.611,0.894,0.32,1.518
	c-0.32,0.691-0.646,0.506-0.967,0.971c-0.016-0.14-0.025-0.271-0.031-0.399C35.532,13.145,35.722,11.887,34.966,12.042z"/>
<path fill="#EBC199" d="M30.157,5.148c3.635,0,5.385,2.96,5.167,6.766c-0.045,0.764-0.258,1.867-0.52,2.813
	c-0.545,1.965-3.422,3.944-4.647,3.944c-1.223,0-4.099-1.979-4.644-3.944c-0.264-0.946-0.476-2.05-0.521-2.813
	C24.773,8.108,26.522,5.148,30.157,5.148z"/>
<path fill="#C98655" d="M30.159,15.582c0.852-0.374,0.857-0.015,2.172,0.073c-0.494,0.561-0.857,1.28-2.172,1.28
	c-1.512,0-1.766-0.818-2.174-1.28C29.299,15.567,29.305,15.208,30.159,15.582z"/>
<path fill="#FFFFFF" d="M31.936,15.795c-0.857,0.893-2.709,0.881-3.557,0C29.7,15.938,30.614,15.938,31.936,15.795z"/>
<path fill="#A17C5B" d="M26.296,10.647c0.789-0.471,2.207-0.528,2.765-0.207c0.119,0.064,0.088,0.404-0.016,0.361
	c-0.799-0.333-2.016-0.349-2.767,0.036C26.179,10.889,26.177,10.716,26.296,10.647z"/>
<path fill="#A17C5B" d="M34.021,10.647c-0.789-0.471-2.208-0.528-2.768-0.207c-0.119,0.064-0.088,0.404,0.016,0.361
	c0.801-0.333,2.018-0.35,2.768,0.036C34.138,10.889,34.14,10.716,34.021,10.647z"/>
<path fill="#C99B71" d="M29.34,14.375c0.088-0.061,0.289,0.033,0.818,0.033c0.527,0,0.729-0.094,0.816-0.033
	c0.104,0.072-0.061,0.402-0.816,0.402S29.237,14.447,29.34,14.375z"/>
<path id="Path_742_" fill="#FFFFFF" d="M29.348,12.075c0.031,0.24-0.131,0.526-0.584,0.739c-0.287,0.136-0.885,0.296-1.668-0.035
	c-0.353-0.148-0.694-0.61-0.664-0.865C26.857,11.111,28.952,10.994,29.348,12.075z"/>
<linearGradient id="Oval_1_" gradientUnits="userSpaceOnUse" x1="-424.1719" y1="480.3037" x2="-424.1719" y2="480.5537" gradientTransform="matrix(6.5701 0 0 -6.5701 2814.7805 3168.5281)">
	<stop  offset="0" style="stop-color:#A6694A"/>
	<stop  offset="1" style="stop-color:#4F2A1E"/>
	<a:midPointStop  offset="0" style="stop-color:#A6694A"/>
	<a:midPointStop  offset="0.5" style="stop-color:#A6694A"/>
	<a:midPointStop  offset="1" style="stop-color:#4F2A1E"/>
</linearGradient>
<circle id="Oval_80_" fill="url(#Oval_1_)" cx="27.928" cy="12.059" r="0.823"/>
<path id="Path_741_" fill="#1A1626" d="M27.518,12.043c0,0.57,0.822,0.57,0.822,0C28.34,11.516,27.518,11.516,27.518,12.043z"/>
<path id="Path_740_" fill="#AB968C" d="M27.391,11.813c0,0.239,0.346,0.239,0.346,0C27.737,11.592,27.391,11.592,27.391,11.813z"/>
<path id="Path_739_" fill="#45332C" d="M29.352,12.106c-0.334-1.073-2.611-0.915-2.92-0.192
	C26.547,10.989,29.069,10.745,29.352,12.106z"/>
<path id="Path_738_" fill="#FFFFFF" d="M30.965,12.075c-0.029,0.24,0.133,0.526,0.586,0.739c0.287,0.136,0.883,0.296,1.668-0.035
	c0.354-0.148,0.695-0.61,0.664-0.865C33.458,11.111,31.364,10.994,30.965,12.075z"/>
<linearGradient id="Oval_2_" gradientUnits="userSpaceOnUse" x1="-426.1948" y1="480.3037" x2="-426.1948" y2="480.5537" gradientTransform="matrix(6.5701 0 0 -6.5701 2832.511 3168.5281)">
	<stop  offset="0" style="stop-color:#A6694A"/>
	<stop  offset="1" style="stop-color:#4F2A1E"/>
	<a:midPointStop  offset="0" style="stop-color:#A6694A"/>
	<a:midPointStop  offset="0.5" style="stop-color:#A6694A"/>
	<a:midPointStop  offset="1" style="stop-color:#4F2A1E"/>
</linearGradient>
<circle id="Oval_79_" fill="url(#Oval_2_)" cx="32.368" cy="12.059" r="0.823"/>
<path id="Path_737_" fill="#1A1626" d="M31.958,12.043c0,0.57,0.822,0.57,0.822,0C32.78,11.516,31.958,11.516,31.958,12.043z"/>
<path id="Path_736_" fill="#AB968C" d="M31.833,11.813c0,0.239,0.344,0.239,0.344,0C32.176,11.592,31.833,11.592,31.833,11.813z"/>
<path id="Path_735_" fill="#45332C" d="M30.963,12.106c0.332-1.073,2.61-0.919,2.92-0.192
	C33.769,10.989,31.247,10.745,30.963,12.106z"/>
<linearGradient id="SVGID_8_" gradientUnits="userSpaceOnUse" x1="-937.5708" y1="12.4199" x2="-937.5708" y2="4.3975" gradientTransform="matrix(-1 0 0 1 -907.3428 0)">
	<stop  offset="0" style="stop-color:#B721CF"/>
	<stop  offset="1" style="stop-color:#FFABF7"/>
	<a:midPointStop  offset="0" style="stop-color:#B721CF"/>
	<a:midPointStop  offset="0.5" style="stop-color:#B721CF"/>
	<a:midPointStop  offset="1" style="stop-color:#FFABF7"/>
</linearGradient>
<path fill="url(#SVGID_8_)" d="M30.17,4.397c2.191,0,3.288,1.002,3.51,1.477c1.789,0.628,2.912,3.481,1.607,6.546
	c-0.293-2.396-0.68-3.104-2.698-5.013c-2.639,2.11-6.689,1.695-7.539,5.013C23.571,8.307,25.866,4.397,30.17,4.397z"/>
<path fill="#B721CF" d="M32.59,7.407c1.782,1.257,2.846,2.998,2.698,5.013C34.942,10.171,34.218,9.173,32.59,7.407z"/>
<path fill="#B721CF" d="M33.681,5.874c-1.877,3.761-7.92,2.436-8.629,6.546C26.251,8.643,32.272,9.974,33.681,5.874z"/>
<path fill="#FFE12C" d="M45.138,10.765l4.18,10.839c0.064,0.167,0.689-0.057,0.625-0.222l-4.148-10.765
	C45.349,10.385,45.138,10.765,45.138,10.765z"/>
<polygon fill="#F9C802" points="44.7,12.295 44.444,10.894 43.097,10.296 44.411,9.635 44.583,8.221 45.649,9.213 47.108,8.936 
	46.45,10.213 47.179,11.453 45.708,11.25 "/>
<path fill="#EBC199" d="M48.483,17.597c0,0-0.357-0.128-0.266-0.554c-0.402-0.004-0.477-0.433-0.346-0.658
	c-0.162,0.027-0.326-0.28-0.326-0.28s0.182,1.13-0.217,1.384c-0.871,0.559-1.307-0.395-1.246-0.75
	c0.188-1.096,1.188-1.096,1.586-2.07c0.072-0.176,0.713-0.055,0.457,0.779c0,0,0.553-0.232,0.617,0.514
	c0.375-0.191,0.617,0.446,0.367,0.686c0.428,0.281,0.336,0.697,0.16,0.791C49.628,18.205,48.196,18.451,48.483,17.597z"/>
<path fill="#C99B71" d="M48.483,17.597c0.299-0.017,0.787-0.159,0.787-0.159S48.897,17.689,48.483,17.597z"/>
<path fill="#C99B71" d="M48.218,17.043c0.297-0.018,0.893-0.396,0.893-0.396S48.63,17.136,48.218,17.043z"/>
<path fill="#C99B71" d="M47.872,16.385c0.299-0.017,0.871-0.424,0.871-0.424S48.284,16.478,47.872,16.385z"/>
<path fill="#C99B71" d="M47.546,16.104c0.086-0.436,0.58-0.657,0.58-0.657S47.755,15.77,47.546,16.104z"/>
</svg>
