<?xml version="1.0" encoding="utf-8"?>
<!-- Generator: Adobe Illustrator 15.0.0, SVG Export Plug-In . SVG Version: 6.00 Build 0)  -->
<!DOCTYPE svg PUBLIC "-//W3C//DTD SVG 1.1//EN" "http://www.w3.org/Graphics/SVG/1.1/DTD/svg11.dtd" [
	<!ENTITY ns_flows "http://ns.adobe.com/Flows/1.0/">
	<!ENTITY ns_extend "http://ns.adobe.com/Extensibility/1.0/">
	<!ENTITY ns_ai "http://ns.adobe.com/AdobeIllustrator/10.0/">
	<!ENTITY ns_graphs "http://ns.adobe.com/Graphs/1.0/">
]>
<svg version="1.1" id="Layer_1" xmlns:x="&ns_extend;" xmlns:i="&ns_ai;" xmlns:graph="&ns_graphs;"
	 xmlns="http://www.w3.org/2000/svg" xmlns:xlink="http://www.w3.org/1999/xlink" xmlns:a="http://ns.adobe.com/AdobeSVGViewerExtensions/3.0/"
	 x="0px" y="0px" width="64px" height="64px" viewBox="0 0 64 64" enable-background="new 0 0 64 64" xml:space="preserve">
<linearGradient id="SVGID_1_" gradientUnits="userSpaceOnUse" x1="-105.9165" y1="-594.0654" x2="-96.2876" y2="-594.0654" gradientTransform="matrix(0.9709 0.2395 -0.2395 0.9709 12.3007 632.4319)">
	<stop  offset="0" style="stop-color:#1A1714"/>
	<stop  offset="0.1892" style="stop-color:#24201C"/>
	<stop  offset="0.6761" style="stop-color:#39332D"/>
	<stop  offset="1" style="stop-color:#403A33"/>
	<a:midPointStop  offset="0" style="stop-color:#1A1714"/>
	<a:midPointStop  offset="0.3818" style="stop-color:#1A1714"/>
	<a:midPointStop  offset="1" style="stop-color:#403A33"/>
</linearGradient>
<path fill="url(#SVGID_1_)" d="M57.929,36.998c0.516,0.348,1.143,0.584,1.922,0.633c-4.561-4.334,2.676-15.247-6.426-14.155
	l0.426,3.291c2.242,1.036-2.811,6.44,0.973,9.646c-0.33-0.502-0.123-1.332,0.23-2.285c0.131,3.023,0.51,5.236,3.93,5.676
	C58.417,39.525,58.071,38.377,57.929,36.998z"/>
<path fill="#8E3ED6" d="M58.257,25.548c-0.447-1.16-3.549-0.627-4.16,1.327C53.589,28.477,58.993,27.461,58.257,25.548z"/>
<path fill="#302116" d="M45.636,22.91c1.162,0.67,1.139,2.673,0.818,2.993c-1.053,1.048,2.688,3.402,3.721,1.945
	c0.896-1.265,2.74-1.666,2.74-1.666C52.837,25.257,55.54,19.952,45.636,22.91z"/>
<path fill="#614A36" d="M58.034,15.448c-2.568-2.703-5.5-2.327-7.721-0.081c-0.502,0.507-1.744,0.813-2.885,0.515
	c-0.414-0.108-0.738,0.075-0.854,0.347c-0.225,0.534,0.16,1.097,0.17,1.438c0.027,0.756-0.707,0.482-0.828,1.15
	c-0.059,0.305,0.537,0.654-0.793,0.768c-0.027,0.906-1.549,0.841-0.879,2.3c0.316,0.694,2.898,2.415,5.422,2.514
	c1.426,0.058,2.604-0.583,2.604-0.583c2.27,1.868,4.871,1.294,6.656-0.67C61.419,20.398,59.704,17.199,58.034,15.448z"/>
<path fill="#472B27" d="M45.917,18.816c0.02,0.405-0.34,0.469-0.34,0.469c-0.094-0.137-0.57,0.14-0.43,0.344
	c0.486,0.711,1.545,0.945,2.063,0.902C46.499,19.381,46.163,17.813,45.917,18.816z"/>
<path fill="#FFFFFF" d="M45.917,18.816c0,0-0.314,0.376-0.34,0.469c0.152,0.224,0.813,0.839,1.412,1.083L45.917,18.816z"/>
<linearGradient id="SVGID_2_" gradientUnits="userSpaceOnUse" x1="-841.4341" y1="-876.7012" x2="-827.8491" y2="-876.7012" gradientTransform="matrix(0.5662 0.8242 -0.8242 0.5662 -194.9176 1204.7623)">
	<stop  offset="0" style="stop-color:#403A33"/>
	<stop  offset="0.3534" style="stop-color:#3D3730"/>
	<stop  offset="0.6441" style="stop-color:#332E28"/>
	<stop  offset="0.9118" style="stop-color:#211E1A"/>
	<stop  offset="1" style="stop-color:#1A1714"/>
	<a:midPointStop  offset="0" style="stop-color:#403A33"/>
	<a:midPointStop  offset="0.7455" style="stop-color:#403A33"/>
	<a:midPointStop  offset="1" style="stop-color:#1A1714"/>
</linearGradient>
<path fill="url(#SVGID_2_)" d="M60.739,22.78c1.381-1.75,0.689-5.207-1.596-7.439c-2.225-2.17-5.219-2.836-6.07-1.654
	c-1.201,1.678,1.266,5.211-0.535,8.391c-0.172,0.147,0.342,1.173,0.209,1.324c-1.098,1.219-1.494,2.975-1.143,3.273
	C54.052,28.77,61.577,26.278,60.739,22.78z"/>
<path fill="#302116" d="M46.577,16.24c-0.412,0.593,0.389,2.021,1.363,1.982C46.944,17.865,46.819,15.893,46.577,16.24z"/>
<path fill="#614A36" d="M55.103,21.882c-1.014-0.971-3.814,0.432-3.785,1.662c0,0.176,0.361,0.843,1.213,0.739
	c0.471-0.058,1.273,0.354,2.014-0.025C55.495,23.776,56.112,22.849,55.103,21.882z"/>
<path id="Path_2934_" fill="#302116" d="M54.669,22.268c-0.295-0.222-0.814-0.263-1.377,0.002c0.977,0.83-0.201,1.571-0.961,0.759
	c-0.088,0.106-0.178,0.219-0.268,0.345c0.709,0.043,0.932,0.594,1.814,0.467C54.675,23.721,55.403,22.815,54.669,22.268z"/>
<path id="Path_2933_" fill="#472B27" d="M52.731,17.764c-0.07-0.902-0.902-2.149-1.475-2.435c-0.119-0.063-0.43,0.246-0.336,0.306
	c0.715,0.452,1.432,1.48,1.539,2.293C52.476,18.035,52.747,17.897,52.731,17.764z"/>
<path fill="#FFFFFF" d="M51.239,18.392c-0.154,0.129-1.098,0.016-1.607-0.605c-0.291-0.353-0.09-0.688,0.166-0.986
	C50.985,15.864,51.55,17.635,51.239,18.392z"/>
<linearGradient id="Path_1_" gradientUnits="userSpaceOnUse" x1="-840.0498" y1="-873.7832" x2="-840.0498" y2="-875.3755" gradientTransform="matrix(0.5662 0.8242 -0.8242 0.5662 -194.9176 1204.7623)">
	<stop  offset="0" style="stop-color:#A6694A"/>
	<stop  offset="1" style="stop-color:#4F2A1E"/>
	<a:midPointStop  offset="0" style="stop-color:#A6694A"/>
	<a:midPointStop  offset="0.5" style="stop-color:#A6694A"/>
	<a:midPointStop  offset="1" style="stop-color:#4F2A1E"/>
</linearGradient>
<path id="Path_2932_" fill="url(#Path_1_)" d="M49.937,16.665c-0.906,0.626-0.184,1.674,0.723,1.051
	C51.501,17.138,50.78,16.087,49.937,16.665z"/>
<path id="Path_2931_" fill="#1A1626" d="M50.054,16.748c-0.455,0.312-0.094,0.834,0.359,0.522
	C50.835,16.982,50.476,16.457,50.054,16.748z"/>
<path id="Path_2930_" fill="#AB968C" d="M50.458,16.946c-0.188,0.129,0.021,0.435,0.209,0.304
	C50.847,17.129,50.636,16.824,50.458,16.946z"/>
<path fill="#45332C" d="M51.239,18.392c0.371-0.672-0.184-2.361-0.975-1.874C50.917,16.362,51.351,17.6,51.239,18.392z"/>
<path fill="#302C3B" d="M57.22,24.393c0,0-0.033-1.128-0.283-1.032c-1.043,0.402-3.803,0.432-3.803,0.432s0.625-3.22,3.09-5.219
	c0.211-0.171-0.564-0.732-0.832-0.693c-1.617,0.251-3.545,5.85-3.545,5.85s-4.557,0.095-6.162-0.616
	C46.019,26.111,57.22,24.393,57.22,24.393z"/>
<path fill="#E81C27" d="M61.524,16.437c-1.85-3.85-6.311-5.465-9.965-3.608c-1.008,0.51,2.279,4.018,3.617,6.808
	c1.221,2.544,1.83,7.76,3.07,7.128C61.901,24.913,63.37,20.287,61.524,16.437z"/>
<polygon fill="#916858" points="32.362,12.508 34.104,2 15.192,2 20.452,38.193 22.614,28.1 35.069,14.744 "/>
<polygon fill="#6B4D40" points="23.569,2 20.452,18.24 23.169,19.455 19.854,31.422 23.569,32.422 19.792,46.08 16.856,51.213 
	16.122,56.484 20.153,59.994 20.575,62 1.679,62 1.679,2 "/>
<polygon fill="#9E7666" points="2.103,51.734 6.243,54.379 11.388,56.545 16.2,56.328 20.153,59.994 11.011,58.078 5.929,55.33 "/>
<polygon fill="#9E7666" points="14.272,32.453 2.103,29.547 20.081,30.604 23.569,32.422 "/>
<polygon fill="#543D32" points="10.95,31.66 5.741,46.838 2.312,29.547 "/>
<polygon fill="#543D32" points="17.448,32.453 14.741,42.303 14.272,32.453 "/>
<polygon fill="#543D32" points="5.929,55.33 3.776,60.756 2.103,51.734 "/>
<polygon fill="#543D32" points="11.011,58.078 10.415,61.121 8.421,56.678 "/>
<polygon fill="#543D32" points="3.608,16.82 11.448,25.486 14.46,20.119 "/>
<polygon fill="#543D32" points="3.315,2 6.964,5.891 7.497,12.766 13.144,9.141 16.122,2 "/>
<polygon fill="#9E7666" points="3.608,16.82 14.774,18.738 20.501,17.986 24.476,20.059 20.042,19.563 14.46,20.119 "/>
<polygon fill="#6B4D40" points="24.476,11.324 34.429,12.281 35.069,14.744 "/>
<polygon fill="#543D32" points="21.062,22.813 20.042,19.563 24.386,19.922 21.235,26.432 "/>
<polygon fill="#6B4D40" points="33.591,2 40.649,2 35.599,4.734 32.81,9.807 31.792,4.215 "/>
<path fill="#614A36" d="M34.296,29.1c-1.258-0.689-5.486,3.814-9.775,6.771c-0.262,0.18,0.73,2.279,1,2.123
	c3.459-1.996,5.658-1.996,7.518-4.047c0.285,0.592,1.041,1.258,1.422,2.131c0.264,0.604,4.416-2.467,3.9-2.967
	C35.62,30.453,35.399,29.705,34.296,29.1z"/>
<path fill="#614A36" d="M42.888,20.375c-0.793-1.854-2.949-4.652-3.842-6.256c-0.527-0.949-3.727-2.832-4.572-2.792
	c-0.68,0.03-3.775,1.581-3.348,2.226c2.045-0.98,2.367-0.76,2.703-0.633c0.857,0.328,1.494,1.158-0.855,1.656
	c-0.406,0.086-0.502,0.605,0.416,0.461c1.465-0.236,1.398-0.557,2.438-0.703c0.705-0.1,1.145,0.396,1.402,0.916
	c1.18,2.385,1.268,4.764,2.615,6.789c2.123,3.193,2.088,4.848,4.369,6.188c0.482,0.281,2.992-0.848,2.869-1.332
	C46.544,24.744,43.673,22.209,42.888,20.375z"/>
<path fill="#302C3B" d="M24.858,35.635c-0.818-0.656-1.803-4.107-2.746-3.771c-1.266,3.311,0,3.352,1.168,6.895
	c0.174,0.525,2.029,0.506,2.24-0.764L24.858,35.635z"/>
<path fill="#5D1E96" d="M39.788,34.156c-0.229-0.771-1.777-1.893-1.777-1.893s-2.244,1.994-3.906,3.477c0,0,0.541,2.059,0.559,3.338
	C34.69,41.258,40.421,36.293,39.788,34.156z"/>
<path fill="#302C3B" d="M39.024,37.281L25.638,2h1.541l13.471,35.533C40.606,37.658,38.407,39.201,39.024,37.281z"/>
<path fill="#614A36" d="M39.507,24.824c-3.887-0.707-5.055-0.473-6.65-0.686c-1.094-1.213-5.047-2.322-6.176-3.465
	c-0.773-2.084-3.352-2.385-3.625-2.42c-0.615-0.08-2.549,0.164-2.602,0.641c-0.07,0.617,2.092,0.629,2.639,1.084
	c0.496,0.412,0.865,1.586,1.539,1.854c1.637,0.65,6.68,5.527,7.404,5.91c0.803,0.424,2.443,0.42,6.127,0.961
	C38.878,28.809,40.216,24.953,39.507,24.824z"/>
<path fill="#614A36" d="M17.458,55.268c2.439-4.408,3.281-7.168,5.061-8.908c1.275-1.248,4.039-2.994,5.879-4.449
	c0.598-0.475,4.178,3.172,3.568,3.639c-1.385,1.07-4.688,2.111-6.328,2.9c-1.162,2.998-3.729,3.336-5.32,5.93
	C20.14,54.664,17.286,55.578,17.458,55.268z"/>
<path fill="#302C3B" d="M17.458,55.268c-0.986,0.85-4.572,2.23-4.107,3.166c3.602,0.906,3.432-0.598,7.303-1.857
	c0.551-0.18,0.494-1.176-0.336-2.197L17.458,55.268z"/>
<path fill="#8E3ED6" d="M39.212,24.6l-1.611,4.162c1.426,0.066,1.723,0.41,1.723,0.41s-0.918,1.355,0.389,2.262
	c-0.51,1.42-0.848,2.918-1.598,3.939c-1.633,2.221-6.969,3.801-10.074,6.488c-0.109,0.945,3.426,4.219,3.426,4.219
	c1.971-1.059,5.775-1.225,8.244-1.393c6.406-0.436,4.01-6.83,10.369-16.422c0.668-1.008-3.807-2.999-4.975-3.09
	C43.419,25.045,39.212,24.6,39.212,24.6z"/>
<path fill="#302116" d="M23.325,19.138c-1.797-0.896-2.67-0.495-2.67-0.495S21.56,18.513,23.325,19.138z"/>
<path fill="#302116" d="M23.888,18.708c-1.281-0.648-1.967-0.406-1.967-0.406S22.513,18.278,23.888,18.708z"/>
<path fill="#302C3B" d="M38.858,33.941c0,0,2.221,3.666,5.834,6.574c-0.176,0.859-0.689,1.555-0.689,1.555l-1.268-0.838
	l-5.566,2.943c0,0,0.027,0.268,0.176,0.676c-0.779,0.199-1.576,0.152-1.576,0.152s-1.375-3.262-1.467-6.916
	c0.529-0.439,1.471-0.824,1.471-0.824c0.254,2.896,0.947,5.49,0.947,5.49l4.732-2.75c0,0-1.518-1.5-3.309-4.678
	C38.396,34.438,38.858,33.941,38.858,33.941z"/>
</svg>
