<?xml version="1.0" encoding="utf-8"?>
<!-- Generator: Adobe Illustrator 15.0.0, SVG Export Plug-In . SVG Version: 6.00 Build 0)  -->
<!DOCTYPE svg PUBLIC "-//W3C//DTD SVG 1.1//EN" "http://www.w3.org/Graphics/SVG/1.1/DTD/svg11.dtd" [
	<!ENTITY ns_flows "http://ns.adobe.com/Flows/1.0/">
	<!ENTITY ns_extend "http://ns.adobe.com/Extensibility/1.0/">
	<!ENTITY ns_ai "http://ns.adobe.com/AdobeIllustrator/10.0/">
	<!ENTITY ns_graphs "http://ns.adobe.com/Graphs/1.0/">
]>
<svg version="1.1" id="Layer_1" xmlns:x="&ns_extend;" xmlns:i="&ns_ai;" xmlns:graph="&ns_graphs;"
	 xmlns="http://www.w3.org/2000/svg" xmlns:xlink="http://www.w3.org/1999/xlink" xmlns:a="http://ns.adobe.com/AdobeSVGViewerExtensions/3.0/"
	 x="0px" y="0px" width="64px" height="64px" viewBox="0 0 64 64" enable-background="new 0 0 64 64" xml:space="preserve">
<path id="Path_186_" fill="#FFD8B4" d="M53.635,28.562c-3.35,0.406-5.768,11.621-3.662,14.581c0.295,0.414,2.021,1.074,3.301-1.539
	c0.709-1.446,2.754-2.653,3.387-5.637C57.473,32.144,56.967,28.158,53.635,28.562z"/>
<path id="Path_185_" fill="#FFD8B4" d="M10.367,28.562c3.35,0.406,5.768,11.621,3.66,14.581c-0.295,0.414-2.021,1.074-3.301-1.539
	c-0.709-1.446-2.754-2.653-3.387-5.637C6.527,32.144,7.035,28.157,10.367,28.562z"/>
<path id="Path_184_" fill="#DEB38A" d="M53.543,30.713c-0.873,0.274-1.826,1.606-2.344,3.818c3.055-0.656,2.291,4.431-0.363,4.526
	c0.023,0.512,0.059,1.039,0.121,1.593c1.279-1.858,2.578-1.112,3.865-3.876C55.982,34.283,55.707,30.033,53.543,30.713z"/>
<path id="Path_183_" fill="#DEB38A" d="M12.801,34.524c-0.518-2.207-1.469-3.539-2.342-3.812c-2.164-0.681-2.441,3.57-1.281,6.062
	c1.287,2.764,2.586,2.018,3.867,3.876c0.063-0.556,0.098-1.083,0.119-1.595C10.537,38.931,9.785,33.905,12.801,34.524z"/>
<path id="Path_182_" fill="#FFD8B4" d="M32,6.999c-14.51,0-21.502,10.572-20.627,25.271c0.176,2.957,2.08,12.604,3.877,16.065
	c1.842,3.541,7.992,9,11.762,10.129c2.383,0.713,7.596,0.713,9.977,0c3.77-1.129,9.924-6.588,11.762-10.129
	c1.801-3.461,3.703-13.106,3.877-16.065C53.504,17.571,46.514,6.999,32,6.999z"/>
<path id="Path_181_" fill="#A88868" d="M47.766,27.442c-3.318-1.758-9.67-1.843-12.035-0.619c-0.508,0.237-0.172,1.902,0.254,1.744
	c3.297-1.304,8.615-1.334,11.701,0.111C48.098,28.866,48.27,27.687,47.766,27.442z"/>
<path id="Path_180_" fill="#A88868" d="M16.234,27.442c3.318-1.758,9.666-1.843,12.035-0.619c0.506,0.237,0.172,1.902-0.254,1.744
	c-3.303-1.304-8.613-1.334-11.703,0.111C15.902,28.866,15.732,27.687,16.234,27.442z"/>
<path id="Path_179_" fill="#DEB38A" d="M35.916,42.688c-0.414-0.289-1.387,0.156-3.916,0.156c-2.527,0-3.5-0.445-3.916-0.156
	c-0.496,0.35,0.295,1.928,3.916,1.928C35.623,44.615,36.414,43.037,35.916,42.688z"/>
<path id="Path_178_" fill="#DEB38A" d="M32,48.668c-3.264-0.959-8.1,0.455-8.1,0.455c1.842,2.008,3.191,4.609,8.1,4.609
	c5.623,0,6.58-2.955,8.102-4.609C40.102,49.123,35.262,47.703,32,48.668z"/>
<path id="Path_177_" fill="#FFFFFF" d="M25.115,49.463c3.422,2.871,10.33,2.891,13.771,0C35.24,49.619,28.787,49.621,25.115,49.463z
	"/>
<path id="Path_176_" fill="#FFFFFF" d="M28.771,33.432c0.123,0.961-0.529,2.099-2.334,2.952c-1.146,0.543-3.531,1.182-6.666-0.141
	c-1.404-0.592-2.773-2.438-2.65-3.457C18.82,29.584,27.182,29.114,28.771,33.432z"/>
<linearGradient id="Oval_1_" gradientUnits="userSpaceOnUse" x1="-424.9072" y1="476.6855" x2="-424.9072" y2="477.6855" gradientTransform="matrix(6.5701 0 0 -6.5701 2814.7805 3168.5281)">
	<stop  offset="0" style="stop-color:#A6694A"/>
	<stop  offset="1" style="stop-color:#4F2A1E"/>
	<a:midPointStop  offset="0" style="stop-color:#A6694A"/>
	<a:midPointStop  offset="0.5" style="stop-color:#A6694A"/>
	<a:midPointStop  offset="1" style="stop-color:#4F2A1E"/>
</linearGradient>
<circle id="Oval_18_" fill="url(#Oval_1_)" cx="23.098" cy="33.366" r="3.285"/>
<path id="Path_175_" fill="#1A1626" d="M21.457,33.306c0,2.273,3.285,2.273,3.285,0C24.742,31.196,21.457,31.196,21.457,33.306z"/>
<path id="Path_174_" fill="#AB968C" d="M20.957,32.387c0,0.952,1.377,0.952,1.377,0C22.334,31.503,20.957,31.503,20.957,32.387z"/>
<path id="Path_173_" fill="#DEB38A" d="M28.787,33.559c-1.334-4.288-10.428-3.655-11.666-0.772
	C17.58,29.096,27.65,28.121,28.787,33.559z"/>
<path id="Path_172_" fill="#FFFFFF" d="M35.229,33.432c-0.123,0.961,0.529,2.099,2.334,2.952c1.146,0.543,3.531,1.182,6.666-0.141
	c1.406-0.592,2.773-2.438,2.65-3.457C45.182,29.584,36.818,29.114,35.229,33.432z"/>
<linearGradient id="Oval_2_" gradientUnits="userSpaceOnUse" x1="-424.9072" y1="476.6855" x2="-424.9072" y2="477.6855" gradientTransform="matrix(6.5701 0 0 -6.5701 2832.511 3168.5281)">
	<stop  offset="0" style="stop-color:#A6694A"/>
	<stop  offset="1" style="stop-color:#4F2A1E"/>
	<a:midPointStop  offset="0" style="stop-color:#A6694A"/>
	<a:midPointStop  offset="0.5" style="stop-color:#A6694A"/>
	<a:midPointStop  offset="1" style="stop-color:#4F2A1E"/>
</linearGradient>
<circle id="Oval_17_" fill="url(#Oval_2_)" cx="40.828" cy="33.366" r="3.285"/>
<path id="Path_171_" fill="#1A1626" d="M39.188,33.306c0,2.273,3.285,2.273,3.285,0C42.473,31.196,39.188,31.196,39.188,33.306z"/>
<path id="Path_170_" fill="#AB968C" d="M38.688,32.387c0,0.952,1.377,0.952,1.377,0C40.064,31.503,38.688,31.503,38.688,32.387z"/>
<path id="Path_169_" fill="#DEB38A" d="M35.215,33.559c1.332-4.286,10.42-3.672,11.664-0.772
	C46.418,29.096,36.35,28.121,35.215,33.559z"/>
<path fill="#523E3A" d="M50.533,10.637C47.357,6.338,41.545,3,32,3c-9.543,0-15.355,3.338-18.531,7.637
	C8.973,16.723,55.029,16.723,50.533,10.637z"/>
<linearGradient id="SVGID_1_" gradientUnits="userSpaceOnUse" x1="32.0015" y1="36.9971" x2="32.0015" y2="8.8164">
	<stop  offset="0.5" style="stop-color:#1E110E"/>
	<stop  offset="0.6367" style="stop-color:#271916"/>
	<stop  offset="0.859" style="stop-color:#3F2E2A"/>
	<stop  offset="1" style="stop-color:#523E3A"/>
	<a:midPointStop  offset="0.5" style="stop-color:#1E110E"/>
	<a:midPointStop  offset="0.6" style="stop-color:#1E110E"/>
	<a:midPointStop  offset="1" style="stop-color:#523E3A"/>
</linearGradient>
<path fill="url(#SVGID_1_)" d="M50.533,10.637C47.357,6.338,41.545,11,32,11c-9.543,0-15.355-4.662-18.531-0.363
	c-4.496,6.086-2.969,26.36-0.969,26.36c0.318,0,0.363-7.093,0.969-11.999c0.492-3.994,1.441-7.867,2.531-8.5
	c3.332-1.934,9.756,0.83,16,0.83s12.67-2.764,16.002-0.83c1.09,0.633,2.037,4.506,2.531,8.5c0.605,4.906,0.65,11.999,0.969,11.999
	C53.502,36.997,55.029,16.723,50.533,10.637z"/>
<linearGradient id="SVGID_2_" gradientUnits="userSpaceOnUse" x1="32.0015" y1="63" x2="32.0015" y2="27.937">
	<stop  offset="0" style="stop-color:#523E3A"/>
	<stop  offset="0.141" style="stop-color:#3F2E2A"/>
	<stop  offset="0.3633" style="stop-color:#271916"/>
	<stop  offset="0.5" style="stop-color:#1E110E"/>
	<a:midPointStop  offset="0" style="stop-color:#523E3A"/>
	<a:midPointStop  offset="0.4" style="stop-color:#523E3A"/>
	<a:midPointStop  offset="0.5" style="stop-color:#1E110E"/>
</linearGradient>
<path fill="url(#SVGID_2_)" d="M14.506,51.926c1.814,3.678,8.736,7.346,12.506,8.52c2.383,0.74,7.596,0.74,9.977,0
	c3.77-1.174,10.695-4.842,12.508-8.52c4.09-8.281,3.902-23.829,3.902-23.829l-2.578-0.16c0.816,6.883-0.547,18.681-6.861,19.78
	c-0.949,0.166-1.625-0.877-2.414-1.281c-3.111-1.598-15.945-1.613-19.088,0c-0.789,0.404-1.465,1.447-2.414,1.281
	c-6.314-1.1-7.68-12.897-6.863-19.78l-2.576,0.16C10.604,28.097,10.424,43.645,14.506,51.926z M23.885,49.299
	C26.83,48.031,32,48.668,32,48.668s5.17-0.637,8.117,0.631c1.332,0.574-2.816,6.09-5.518,4.887c-1.537-0.686-3.662-0.686-5.199,0
	C26.699,55.389,22.551,49.873,23.885,49.299z"/>
</svg>
