<?xml version="1.0" encoding="utf-8"?>
<!-- Generator: Adobe Illustrator 15.0.0, SVG Export Plug-In . SVG Version: 6.00 Build 0)  -->
<!DOCTYPE svg PUBLIC "-//W3C//DTD SVG 1.1//EN" "http://www.w3.org/Graphics/SVG/1.1/DTD/svg11.dtd" [
	<!ENTITY ns_flows "http://ns.adobe.com/Flows/1.0/">
	<!ENTITY ns_extend "http://ns.adobe.com/Extensibility/1.0/">
	<!ENTITY ns_ai "http://ns.adobe.com/AdobeIllustrator/10.0/">
	<!ENTITY ns_graphs "http://ns.adobe.com/Graphs/1.0/">
]>
<svg version="1.1" id="Layer_1" xmlns:x="&ns_extend;" xmlns:i="&ns_ai;" xmlns:graph="&ns_graphs;"
	 xmlns="http://www.w3.org/2000/svg" xmlns:xlink="http://www.w3.org/1999/xlink" xmlns:a="http://ns.adobe.com/AdobeSVGViewerExtensions/3.0/"
	 x="0px" y="0px" width="64px" height="64px" viewBox="0 0 64 64" enable-background="new 0 0 64 64" xml:space="preserve">
<path fill="#EBC199" d="M50.641,28.035c0.734-1.438,2.797-1.438,2.797-1.438c0.984,3.016,1.541,8.405,1.551,9.144
	c0.009,0.719,0.682,2.729,0.471,3.223c-0.896,2.094-0.811,2.357-1.909,3.135c-0.832,0.59-0.571-0.166-0.194-0.564
	c0.584-0.617,0.955-2.037,0.189-2.168c-0.098,1.582-1.144,1.881-1.066,1.295c0.201-1.514-0.001-2.432,0.682-3.246
	c0.275-0.328,0.295-2.396-0.975-5.187C51.415,30.531,50.969,29.41,50.641,28.035z"/>
<path fill="#EBC199" d="M36.914,28.086c-0.55-1.518-2.597-1.773-2.597-1.773c-1.352,2.869-2.573,8.149-2.675,8.88
	c-0.1,0.711-1.018,2.623-0.868,3.139c0.628,2.189,0.511,1.439,1.503,2.348c0.752,0.689,0.589-0.094,0.263-0.535
	c-0.501-0.686-0.694-1.141,0.082-1.176c-0.099,1.584,0.9,2.01,0.897,1.418c-0.012-1.527,0.304-2.412-0.272-3.305
	c-0.232-0.361,0.006-2.416,1.611-5.025C35.835,30.469,36.417,29.41,36.914,28.086z"/>
<path fill="#302C3B" d="M38.391,33.956h11.217c0.979,5.166,0.256,12.303,1.488,24.896c0.156,1.586-5.654,1.596-5.604,0
	c0.242-7.346-0.445-12.938-0.938-17.416c-0.037-0.334-1.072-0.334-1.109,0c-0.492,4.479-1.182,10.07-0.939,17.416
	c0.053,1.596-5.76,1.586-5.604,0C38.135,46.259,37.412,39.122,38.391,33.956z"/>
<path fill="#FFBD00" d="M36.963,19.848c0.906-1.135,4.635-2.271,4.635-2.271H46.4c0,0,3.73,1.137,4.635,2.271
	c0.793,0.992,2.32,5.816,2.658,6.982c-0.045,0.055-1.227,0.111-3.287,1.701c0,0-0.641-1.934-0.891-2.447
	c-0.588,3.814,0.297,7.448,0.092,7.872c-0.584,1.213-10.625,1.227-11.217,0c-0.205-0.424,0.68-4.058,0.094-7.872
	c-0.252,0.514-1.4,2.525-1.4,2.525c-1.847-1.834-3.012-2.039-3.049-2.098C34.515,25.396,36.17,20.84,36.963,19.848z"/>
<path fill="#6E8189" d="M51.354,61.601c-0.184,0.453-5.762,0.637-5.971-0.084C44.574,58.724,52.264,59.372,51.354,61.601z"/>
<path fill="#99A8AE" d="M51.273,61.052c-0.041,0.393-5.834,0.598-5.896,0C44.881,56.3,51.727,56.696,51.273,61.052z"/>
<path fill="#1A1626" d="M46.117,58.226c0.645-1.102,3.703-1.096,4.344,0c0.117,0.191,0.316,0.715-0.457,0.285
	c0.768,0.602,0.768,1.127,0,0.678c0.773,0.578,0.574,0.943,0.457,0.896c-1.176-0.582-3.166-0.582-4.344,0
	c-0.119,0.047-0.316-0.318,0.457-0.896c-0.768,0.449-0.768-0.076,0-0.678C45.801,58.94,45.998,58.417,46.117,58.226z"/>
<path fill="#6E8189" d="M36.645,61.601c0.184,0.453,5.762,0.637,5.971-0.084C43.424,58.724,35.734,59.372,36.645,61.601z"/>
<path fill="#99A8AE" d="M36.725,61.052c0.041,0.393,5.834,0.598,5.896,0C43.117,56.3,36.273,56.696,36.725,61.052z"/>
<path fill="#1A1626" d="M41.881,58.226c-0.645-1.102-3.701-1.096-4.344,0c-0.117,0.191-0.316,0.715,0.457,0.285
	c-0.768,0.602-0.768,1.127,0,0.678c-0.773,0.578-0.574,0.943-0.457,0.896c1.178-0.582,3.166-0.582,4.344,0
	c0.119,0.047,0.316-0.318-0.457-0.896c0.768,0.449,0.768-0.076,0-0.678C42.197,58.94,42,58.417,41.881,58.226z"/>
<path fill="#FFA600" d="M47.281,17.875c0,2.926-6.563,2.92-6.563-0.006l0.59-0.211h5.346L47.281,17.875z"/>
<path fill="#C99B71" d="M46.75,17.906c0,2.176-5.5,2.176-5.5,0c0-0.74,0-2.406,0-2.406h5.5C46.75,15.5,46.75,17.166,46.75,17.906z"
	/>
<path fill="#BA9757" d="M49.671,14.246c0.403,0.268,0.869,0.467,1.412,0.568c-0.965-2.199,0.49-6.813-2.491-10.201
	C44.39,4.738,43.81,18.33,49.667,16.521c-0.373-0.162-0.607-0.492-0.744-0.908c0.451,0.131,0.979,0.135,1.594-0.055
	C50.026,15.348,49.778,14.848,49.671,14.246z"/>
<path fill="#BA9757" d="M39.123,4.613c-2.98,3.389-1.242,8.002-2.208,10.201c0.544-0.102,1.01-0.301,1.414-0.568
	c-0.107,0.602-0.357,1.102-0.846,1.313c0.613,0.189,1.141,0.186,1.593,0.055c-0.138,0.416-0.37,0.746-0.743,0.908
	C44.189,18.33,43.325,4.738,39.123,4.613z"/>
<path id="Path_1663_" fill="#EBC199" d="M50.13,9.244c-0.949,0.113-1.635,3.293-1.037,4.131c0.083,0.117,0.572,0.305,0.934-0.436
	c0.202-0.41,0.781-0.752,0.961-1.598C51.218,10.258,51.073,9.129,50.13,9.244z"/>
<path id="Path_1662_" fill="#EBC199" d="M37.87,9.244c0.949,0.113,1.634,3.293,1.037,4.131c-0.084,0.117-0.573,0.305-0.936-0.436
	c-0.201-0.41-0.779-0.752-0.959-1.598C36.782,10.258,36.927,9.129,37.87,9.244z"/>
<path id="Path_1227_" fill="#C99B71" d="M50.104,9.852c-0.248,0.08-0.519,0.457-0.664,1.082c0.865-0.186,0.648,1.256-0.104,1.283
	c0.006,0.145,0.016,0.295,0.033,0.453c0.363-0.527,0.73-0.316,1.096-1.1C50.795,10.863,50.716,9.66,50.104,9.852z"/>
<path id="Path_1226_" fill="#C99B71" d="M38.56,10.932c-0.146-0.623-0.416-1.002-0.663-1.08c-0.613-0.191-0.692,1.012-0.363,1.719
	c0.364,0.783,0.732,0.572,1.096,1.1c0.018-0.158,0.027-0.309,0.034-0.453C37.918,12.182,37.706,10.758,38.56,10.932z"/>
<path fill="#EBC199" d="M43.999,3.133c-4.111,0-6.092,3.35-5.844,7.656c0.051,0.865,0.291,2.113,0.588,3.184
	c0.617,2.223,3.871,4.461,5.256,4.461c1.386,0,4.64-2.238,5.256-4.461c0.298-1.07,0.539-2.318,0.59-3.184
	C50.091,6.482,48.112,3.133,43.999,3.133z"/>
<path id="Path_1225_" fill="#A17C5B" d="M48.466,8.926c-0.939-0.498-2.739-0.521-3.41-0.174c-0.143,0.066-0.047,0.537,0.072,0.494
	c0.936-0.371,2.441-0.379,3.316,0.031C48.562,9.33,48.61,8.996,48.466,8.926z"/>
<path id="Path_1224_" fill="#A17C5B" d="M39.532,8.926c0.94-0.498,2.739-0.521,3.41-0.174c0.144,0.066,0.049,0.537-0.072,0.494
	c-0.936-0.371-2.439-0.379-3.316,0.031C39.438,9.33,39.391,8.996,39.532,8.926z"/>
<path id="Path_1223_" fill="#C99B71" d="M45.109,13.246c-0.117-0.082-0.394,0.045-1.11,0.045c-0.715,0-0.992-0.127-1.109-0.045
	c-0.141,0.1,0.084,0.547,1.109,0.547C45.026,13.793,45.251,13.346,45.109,13.246z"/>
<path id="Path_1222_" fill="#C99B71" d="M43.999,14.941c-0.924-0.273-2.295,0.129-2.295,0.129c0.521,0.568,0.904,1.305,2.295,1.305
	c1.594,0,1.865-0.836,2.297-1.305C46.296,15.07,44.923,14.666,43.999,14.941z"/>
<path id="Path_1221_" fill="#FFFFFF" d="M42.049,15.166c0.97,0.813,2.927,0.818,3.901,0C44.918,15.211,43.089,15.211,42.049,15.166z
	"/>
<path id="Path_1220_" fill="#FFFFFF" d="M43.085,10.623c0.035,0.271-0.15,0.594-0.662,0.836c-0.324,0.154-1,0.336-1.888-0.039
	c-0.399-0.168-0.786-0.691-0.751-0.979C40.265,9.533,42.634,9.4,43.085,10.623z"/>
<linearGradient id="Oval_1_" gradientUnits="userSpaceOnUse" x1="-422.1099" y1="480.5088" x2="-422.1099" y2="480.792" gradientTransform="matrix(6.5701 0 0 -6.5701 2814.7805 3168.5281)">
	<stop  offset="0" style="stop-color:#A6694A"/>
	<stop  offset="1" style="stop-color:#4F2A1E"/>
	<a:midPointStop  offset="0" style="stop-color:#A6694A"/>
	<a:midPointStop  offset="0.5" style="stop-color:#A6694A"/>
	<a:midPointStop  offset="1" style="stop-color:#4F2A1E"/>
</linearGradient>
<circle id="Oval_206_" fill="url(#Oval_1_)" cx="41.478" cy="10.604" r="0.931"/>
<path id="Path_1219_" fill="#1A1626" d="M41.013,10.588c0,0.643,0.93,0.643,0.93,0C41.942,9.99,41.013,9.99,41.013,10.588z"/>
<path id="Path_1218_" fill="#AB968C" d="M40.87,10.326c0,0.271,0.391,0.271,0.391,0C41.261,10.076,40.87,10.076,40.87,10.326z"/>
<path id="Path_1217_" fill="#C99B71" d="M43.089,10.658c-0.377-1.213-2.955-1.035-3.305-0.217
	C39.914,9.395,42.767,9.119,43.089,10.658z"/>
<path id="Path_1216_" fill="#FFFFFF" d="M44.914,10.623c-0.034,0.271,0.149,0.594,0.661,0.836c0.325,0.154,1,0.336,1.889-0.039
	c0.399-0.168,0.786-0.691,0.752-0.979C47.734,9.533,45.365,9.4,44.914,10.623z"/>
<linearGradient id="Oval_2_" gradientUnits="userSpaceOnUse" x1="-424.0435" y1="480.5088" x2="-424.0435" y2="480.792" gradientTransform="matrix(6.5701 0 0 -6.5701 2832.511 3168.5281)">
	<stop  offset="0" style="stop-color:#A6694A"/>
	<stop  offset="1" style="stop-color:#4F2A1E"/>
	<a:midPointStop  offset="0" style="stop-color:#A6694A"/>
	<a:midPointStop  offset="0.5" style="stop-color:#A6694A"/>
	<a:midPointStop  offset="1" style="stop-color:#4F2A1E"/>
</linearGradient>
<circle id="Oval_205_" fill="url(#Oval_2_)" cx="46.501" cy="10.604" r="0.931"/>
<path id="Path_1215_" fill="#1A1626" d="M46.036,10.588c0,0.643,0.932,0.643,0.932,0C46.968,9.99,46.036,9.99,46.036,10.588z"/>
<path id="Path_1214_" fill="#AB968C" d="M45.894,10.326c0,0.271,0.391,0.271,0.391,0C46.284,10.076,45.894,10.076,45.894,10.326z"/>
<path id="Path_1213_" fill="#C99B71" d="M44.911,10.658c0.377-1.213,2.952-1.039,3.305-0.217
	C48.085,9.395,45.232,9.119,44.911,10.658z"/>
<linearGradient id="SVGID_1_" gradientUnits="userSpaceOnUse" x1="43.9395" y1="11.6426" x2="43.9395" y2="2">
	<stop  offset="0" style="stop-color:#BA9757"/>
	<stop  offset="0.2266" style="stop-color:#C6A265"/>
	<stop  offset="0.7054" style="stop-color:#DBB77D"/>
	<stop  offset="1" style="stop-color:#E3BE86"/>
	<a:midPointStop  offset="0" style="stop-color:#BA9757"/>
	<a:midPointStop  offset="0.4" style="stop-color:#BA9757"/>
	<a:midPointStop  offset="1" style="stop-color:#E3BE86"/>
</linearGradient>
<path fill="url(#SVGID_1_)" d="M44,2c-2.501,0-3.752,1.133-4.006,1.672c-3.024,0.691-3.997,5.795-1.732,7.971
	c0.28-2.318,0.552-3.809,2.094-5.379c0.899,1.205,2.767,1.883,4.44,1.883C44.005,7.57,43.464,7.008,43.04,6.48
	c2.793,1.283,5.922,2.104,6.699,5.162C52.427,7.363,50.193,2,44,2z"/>
<path fill="#EBC199" d="M13.359,28.035c-0.734-1.438-2.797-1.438-2.797-1.438c-0.984,3.016-1.541,8.405-1.551,9.144
	C9.003,36.46,8.33,38.47,8.541,38.964c0.896,2.094,0.811,2.357,1.909,3.135c0.832,0.59,0.571-0.166,0.194-0.564
	c-0.584-0.617-0.955-2.037-0.189-2.168c0.098,1.582,1.144,1.881,1.066,1.295c-0.201-1.514,0.001-2.432-0.682-3.246
	c-0.275-0.328-0.295-2.396,0.975-5.187C12.585,30.531,13.031,29.41,13.359,28.035z"/>
<path fill="#EBC199" d="M27.086,28.086c0.55-1.518,2.597-1.773,2.597-1.773c1.352,2.869,2.573,8.149,2.675,8.88
	c0.1,0.711,1.018,2.623,0.868,3.139c-0.628,2.189-0.511,1.439-1.503,2.348c-0.752,0.689-0.589-0.094-0.263-0.535
	c0.501-0.686,0.694-1.141-0.082-1.176c0.099,1.584-0.9,2.01-0.897,1.418c0.012-1.527-0.304-2.412,0.272-3.305
	c0.232-0.361-0.006-2.416-1.611-5.025C28.165,30.469,27.583,29.41,27.086,28.086z"/>
<path fill="#302C3B" d="M25.609,33.956H14.393c-0.979,5.166-0.256,12.303-1.488,24.896c-0.156,1.586,5.654,1.596,5.604,0
	c-0.242-7.346,0.445-12.938,0.938-17.416c0.037-0.334,1.072-0.334,1.109,0c0.492,4.479,1.182,10.07,0.939,17.416
	c-0.053,1.596,5.76,1.586,5.604,0C25.865,46.259,26.588,39.122,25.609,33.956z"/>
<path fill="#FF7A00" d="M27.037,19.848c-0.906-1.135-4.635-2.271-4.635-2.271H17.6c0,0-3.73,1.137-4.635,2.271
	c-0.793,0.992-2.32,5.816-2.658,6.982c0.045,0.055,1.227,0.111,3.287,1.701c0,0,0.641-1.934,0.891-2.447
	c0.588,3.814-0.297,7.448-0.092,7.872c0.584,1.213,10.625,1.227,11.217,0c0.205-0.424-0.68-4.058-0.094-7.872
	c0.252,0.514,1.4,2.525,1.4,2.525c1.847-1.834,3.012-2.039,3.049-2.098C29.485,25.396,27.83,20.84,27.037,19.848z"/>
<path fill="#6E8189" d="M12.646,61.601c0.184,0.453,5.762,0.637,5.971-0.084C19.426,58.724,11.736,59.372,12.646,61.601z"/>
<path fill="#99A8AE" d="M12.727,61.052c0.041,0.393,5.834,0.598,5.896,0C19.119,56.3,12.273,56.696,12.727,61.052z"/>
<path fill="#1A1626" d="M17.883,58.226c-0.645-1.102-3.703-1.096-4.344,0c-0.117,0.191-0.316,0.715,0.457,0.285
	c-0.768,0.602-0.768,1.127,0,0.678c-0.773,0.578-0.574,0.943-0.457,0.896c1.176-0.582,3.166-0.582,4.344,0
	c0.119,0.047,0.316-0.318-0.457-0.896c0.768,0.449,0.768-0.076,0-0.678C18.199,58.94,18.002,58.417,17.883,58.226z"/>
<path fill="#6E8189" d="M27.355,61.601c-0.184,0.453-5.762,0.637-5.971-0.084C20.576,58.724,28.266,59.372,27.355,61.601z"/>
<path fill="#99A8AE" d="M27.275,61.052c-0.041,0.393-5.834,0.598-5.896,0C20.883,56.3,27.727,56.696,27.275,61.052z"/>
<path fill="#1A1626" d="M22.119,58.226c0.645-1.102,3.701-1.096,4.344,0c0.117,0.191,0.316,0.715-0.457,0.285
	c0.768,0.602,0.768,1.127,0,0.678c0.773,0.578,0.574,0.943,0.457,0.896c-1.178-0.582-3.166-0.582-4.344,0
	c-0.119,0.047-0.316-0.318,0.457-0.896c-0.768,0.449-0.768-0.076,0-0.678C21.803,58.94,22,58.417,22.119,58.226z"/>
<path fill="#ED6A00" d="M16.719,17.875c0,2.926,6.563,2.92,6.563-0.006l-0.59-0.211h-5.346L16.719,17.875z"/>
<path fill="#C99B71" d="M17.25,17.906c0,2.176,5.5,2.176,5.5,0c0-0.74,0-2.406,0-2.406h-5.5C17.25,15.5,17.25,17.166,17.25,17.906z"
	/>
<path fill="#BA9757" d="M25.673,14.246c0.403,0.268,0.869,0.467,1.412,0.568c-0.965-2.199,0.49-6.813-2.491-10.201
	c-4.202,0.125-4.782,13.717,1.075,11.908c-0.373-0.162-0.607-0.492-0.744-0.908c0.451,0.131,0.979,0.135,1.594-0.055
	C26.028,15.348,25.78,14.848,25.673,14.246z"/>
<path fill="#BA9757" d="M15.125,4.613c-2.98,3.389-1.242,8.002-2.208,10.201c0.544-0.102,1.01-0.301,1.414-0.568
	c-0.107,0.602-0.357,1.102-0.846,1.313c0.613,0.189,1.141,0.186,1.593,0.055c-0.138,0.416-0.37,0.746-0.743,0.908
	C20.191,18.33,19.327,4.738,15.125,4.613z"/>
<path id="Path_1212_" fill="#EBC199" d="M26.132,9.244c-0.949,0.113-1.635,3.293-1.037,4.131c0.083,0.117,0.572,0.305,0.934-0.436
	c0.202-0.41,0.781-0.752,0.961-1.598C27.22,10.258,27.075,9.129,26.132,9.244z"/>
<path id="Path_1211_" fill="#EBC199" d="M13.872,9.244c0.949,0.113,1.634,3.293,1.037,4.131c-0.084,0.117-0.573,0.305-0.936-0.436
	c-0.201-0.41-0.779-0.752-0.959-1.598C12.784,10.258,12.929,9.129,13.872,9.244z"/>
<path id="Path_1210_" fill="#C99B71" d="M26.106,9.852c-0.248,0.08-0.519,0.457-0.664,1.082c0.865-0.186,0.648,1.256-0.104,1.283
	c0.006,0.145,0.016,0.295,0.033,0.453c0.363-0.527,0.73-0.316,1.096-1.1C26.797,10.863,26.718,9.66,26.106,9.852z"/>
<path id="Path_1209_" fill="#C99B71" d="M14.562,10.932c-0.146-0.623-0.416-1.002-0.663-1.08c-0.613-0.191-0.692,1.012-0.363,1.719
	c0.364,0.783,0.732,0.572,1.096,1.1c0.018-0.158,0.027-0.309,0.034-0.453C13.92,12.182,13.708,10.758,14.562,10.932z"/>
<path fill="#EBC199" d="M20.001,3.133c-4.111,0-6.092,3.35-5.844,7.656c0.051,0.865,0.291,2.113,0.588,3.184
	c0.617,2.223,3.871,4.461,5.256,4.461c1.386,0,4.64-2.238,5.256-4.461c0.298-1.07,0.539-2.318,0.59-3.184
	C26.093,6.482,24.114,3.133,20.001,3.133z"/>
<path id="Path_1208_" fill="#A17C5B" d="M24.468,8.926c-0.939-0.498-2.739-0.521-3.41-0.174c-0.143,0.066-0.047,0.537,0.072,0.494
	c0.936-0.371,2.441-0.379,3.316,0.031C24.563,9.33,24.612,8.996,24.468,8.926z"/>
<path id="Path_1207_" fill="#A17C5B" d="M15.534,8.926c0.94-0.498,2.739-0.521,3.41-0.174c0.144,0.066,0.049,0.537-0.072,0.494
	c-0.936-0.371-2.439-0.379-3.316,0.031C15.44,9.33,15.393,8.996,15.534,8.926z"/>
<path id="Path_1206_" fill="#C99B71" d="M21.111,13.246c-0.117-0.082-0.394,0.045-1.11,0.045c-0.715,0-0.992-0.127-1.109-0.045
	c-0.141,0.1,0.084,0.547,1.109,0.547C21.028,13.793,21.253,13.346,21.111,13.246z"/>
<path id="Path_1205_" fill="#C99B71" d="M20.001,14.941c-0.924-0.273-2.295,0.129-2.295,0.129c0.521,0.568,0.904,1.305,2.295,1.305
	c1.594,0,1.865-0.836,2.297-1.305C22.298,15.07,20.925,14.666,20.001,14.941z"/>
<path id="Path_1204_" fill="#FFFFFF" d="M18.051,15.166c0.97,0.813,2.927,0.818,3.901,0C20.92,15.211,19.091,15.211,18.051,15.166z"
	/>
<path id="Path_1203_" fill="#FFFFFF" d="M19.087,10.623c0.035,0.271-0.15,0.594-0.662,0.836c-0.324,0.154-1,0.336-1.888-0.039
	c-0.399-0.168-0.786-0.691-0.751-0.979C16.267,9.533,18.636,9.4,19.087,10.623z"/>
<linearGradient id="Oval_3_" gradientUnits="userSpaceOnUse" x1="-425.7622" y1="480.5088" x2="-425.7622" y2="480.792" gradientTransform="matrix(6.5701 0 0 -6.5701 2814.7805 3168.5281)">
	<stop  offset="0" style="stop-color:#A6694A"/>
	<stop  offset="1" style="stop-color:#4F2A1E"/>
	<a:midPointStop  offset="0" style="stop-color:#A6694A"/>
	<a:midPointStop  offset="0.5" style="stop-color:#A6694A"/>
	<a:midPointStop  offset="1" style="stop-color:#4F2A1E"/>
</linearGradient>
<circle id="Oval_182_" fill="url(#Oval_3_)" cx="17.479" cy="10.604" r="0.931"/>
<path id="Path_1202_" fill="#1A1626" d="M17.015,10.588c0,0.643,0.93,0.643,0.93,0C17.944,9.99,17.015,9.99,17.015,10.588z"/>
<path id="Path_1201_" fill="#AB968C" d="M16.872,10.326c0,0.271,0.391,0.271,0.391,0C17.263,10.076,16.872,10.076,16.872,10.326z"/>
<path id="Path_1200_" fill="#C99B71" d="M19.091,10.658c-0.377-1.213-2.955-1.035-3.305-0.217
	C15.916,9.395,18.769,9.119,19.091,10.658z"/>
<path id="Path_1199_" fill="#FFFFFF" d="M20.916,10.623c-0.034,0.271,0.149,0.594,0.661,0.836c0.325,0.154,1,0.336,1.889-0.039
	c0.399-0.168,0.786-0.691,0.752-0.979C23.736,9.533,21.367,9.4,20.916,10.623z"/>
<linearGradient id="Oval_4_" gradientUnits="userSpaceOnUse" x1="-427.6968" y1="480.5088" x2="-427.6968" y2="480.792" gradientTransform="matrix(6.5701 0 0 -6.5701 2832.511 3168.5281)">
	<stop  offset="0" style="stop-color:#A6694A"/>
	<stop  offset="1" style="stop-color:#4F2A1E"/>
	<a:midPointStop  offset="0" style="stop-color:#A6694A"/>
	<a:midPointStop  offset="0.5" style="stop-color:#A6694A"/>
	<a:midPointStop  offset="1" style="stop-color:#4F2A1E"/>
</linearGradient>
<circle id="Oval_181_" fill="url(#Oval_4_)" cx="22.503" cy="10.604" r="0.931"/>
<path id="Path_1198_" fill="#1A1626" d="M22.038,10.588c0,0.643,0.932,0.643,0.932,0C22.97,9.99,22.038,9.99,22.038,10.588z"/>
<path id="Path_1197_" fill="#AB968C" d="M21.896,10.326c0,0.271,0.391,0.271,0.391,0C22.286,10.076,21.896,10.076,21.896,10.326z"/>
<path id="Path_1196_" fill="#C99B71" d="M20.913,10.658c0.377-1.213,2.952-1.039,3.305-0.217
	C24.087,9.395,21.234,9.119,20.913,10.658z"/>
<linearGradient id="SVGID_2_" gradientUnits="userSpaceOnUse" x1="19.9409" y1="11.6426" x2="19.9409" y2="2">
	<stop  offset="0" style="stop-color:#BA9757"/>
	<stop  offset="0.2266" style="stop-color:#C6A265"/>
	<stop  offset="0.7054" style="stop-color:#DBB77D"/>
	<stop  offset="1" style="stop-color:#E3BE86"/>
	<a:midPointStop  offset="0" style="stop-color:#BA9757"/>
	<a:midPointStop  offset="0.4" style="stop-color:#BA9757"/>
	<a:midPointStop  offset="1" style="stop-color:#E3BE86"/>
</linearGradient>
<path fill="url(#SVGID_2_)" d="M20.002,2c-2.501,0-3.752,1.133-4.006,1.672c-3.024,0.691-3.997,5.795-1.732,7.971
	c0.28-2.318,0.552-3.809,2.094-5.379c0.899,1.205,2.767,1.883,4.44,1.883c-0.791-0.576-1.332-1.139-1.756-1.666
	c2.793,1.283,5.922,2.104,6.699,5.162C28.429,7.363,26.195,2,20.002,2z"/>
<path fill="#BA9757" d="M39.987,3.672c-0.038,2.135,0.825,3.734,4.811,4.475C41.941,8.34,39.009,6.613,39.987,3.672z"/>
<path fill="#BA9757" d="M40.237,6.127c-1.04,1.027-2.207,2.803-1.985,5.516c0.206-2.242,1.236-4.088,2.17-5.285
	C40.356,6.285,40.295,6.209,40.237,6.127z"/>
<path fill="#BA9757" d="M42.022,5.451c2.09,1.994,7.225,1.865,7.728,6.191C48.41,7.434,43.868,8.379,42.022,5.451z"/>
<path fill="#BA9757" d="M15.989,3.672c-0.038,2.135,0.825,3.734,4.811,4.475C17.943,8.34,15.011,6.613,15.989,3.672z"/>
<path fill="#BA9757" d="M16.239,6.127c-1.04,1.027-2.207,2.803-1.985,5.516c0.206-2.242,1.236-4.088,2.17-5.285
	C16.358,6.285,16.297,6.209,16.239,6.127z"/>
<path fill="#BA9757" d="M18.024,5.451c2.09,1.994,7.225,1.865,7.728,6.191C24.412,7.434,19.87,8.379,18.024,5.451z"/>
</svg>
