<?xml version="1.0" encoding="utf-8"?>
<!-- Generator: Adobe Illustrator 15.0.0, SVG Export Plug-In . SVG Version: 6.00 Build 0)  -->
<!DOCTYPE svg PUBLIC "-//W3C//DTD SVG 1.1//EN" "http://www.w3.org/Graphics/SVG/1.1/DTD/svg11.dtd" [
	<!ENTITY ns_flows "http://ns.adobe.com/Flows/1.0/">
	<!ENTITY ns_extend "http://ns.adobe.com/Extensibility/1.0/">
	<!ENTITY ns_ai "http://ns.adobe.com/AdobeIllustrator/10.0/">
	<!ENTITY ns_graphs "http://ns.adobe.com/Graphs/1.0/">
]>
<svg version="1.1" id="Layer_1" xmlns:x="&ns_extend;" xmlns:i="&ns_ai;" xmlns:graph="&ns_graphs;"
	 xmlns="http://www.w3.org/2000/svg" xmlns:xlink="http://www.w3.org/1999/xlink" xmlns:a="http://ns.adobe.com/AdobeSVGViewerExtensions/3.0/"
	 x="0px" y="0px" width="64px" height="64px" viewBox="0 0 64 64" enable-background="new 0 0 64 64" xml:space="preserve">
<path fill="#CFD8DD" d="M42.582,50.74c15.168-6.066,11.65-20.475,11.65-20.475H15.766c0,0-3.516,14.408,11.648,20.475
	c0,0,3.035,0.76,7.584,0.76C39.549,51.5,42.582,50.74,42.582,50.74z"/>
<path fill="#E6EBEF" d="M50.332,31.803c1.172,4.932-1.553,14.6-7.75,18.938c9.102-1.516,13.168-10.109,13.168-16.703L50.332,31.803z
	"/>
<path fill="#E6EBEF" d="M19.666,31.803c-1.172,4.932,1.555,14.6,7.752,18.938C18.316,49.225,14.25,40.631,14.25,34.037
	L19.666,31.803z"/>
<path fill="#006DAE" d="M15.256,52.75c2.4-1.365,37.158-1.373,39.545-0.004C58.271,54.73,59,61.998,59,61.998H11
	C11,61.998,11.775,54.727,15.256,52.75z"/>
<path fill="#614A36" d="M42.459,47.781h-14.84c0,0-9.963,3.604-12.363,4.969L35,61.998l19.801-9.252
	C52.414,51.377,42.459,47.781,42.459,47.781z"/>
<path fill="#302116" d="M37.269,54.799c-1.277,0.75-2.27,2.459-2.27,2.459s-0.992-1.709-2.268-2.459
	c2.266,3.84,1.719,5.568,1.719,5.568h1.098C35.548,60.367,34.997,58.4,37.269,54.799z"/>
<path fill="#614A36" d="M27.499,49.951c0,0,2.361,2.832,7.5,2.832c5.141,0,7.5-2.832,7.5-2.832v-8.035h-15V49.951z"/>
<path fill="#302116" d="M24.511,39.283c1.23,5.951,7.723,11.945,10.488,11.945c2.764,0,9.256-5.994,10.488-11.945
	C46.079,36.422,23.919,36.422,24.511,39.283z"/>
<path fill="#0081CF" d="M49.274,50.133c1.641-0.908,4.422,0.25,4.328,1.959c1.608-0.51,3.344,0.129,3.177,2.566
	c5.653,5.82-9.563,7.34-21.268,7.34v-2.566C42.041,56.297,45.337,47.539,49.274,50.133z"/>
<path fill="#006DAE" d="M48.434,52.092c0,0-2.889,5.652-12.556,8.275C35.878,60.367,43.822,56.771,48.434,52.092z"/>
<path fill="#006DAE" d="M53.603,52.164c0,0-4.947,8.473-18.091,9.834C35.512,61.998,47.895,58.525,53.603,52.164z"/>
<path fill="#006DAE" d="M56.779,54.658c0,0-3.896,6.057-21.268,7.34C35.512,61.998,53.654,62.158,56.779,54.658z"/>
<path fill="#014D87" d="M34.488,59.432v2.566h1.023v-2.566H34.488z"/>
<path fill="#0081CF" d="M20.726,50.131c-1.641-0.908-4.422,0.25-4.328,1.959c-1.608-0.508-3.344,0.131-3.177,2.568
	c-5.653,5.82,9.563,7.34,21.268,7.34v-2.566C27.959,56.295,24.663,47.537,20.726,50.131z"/>
<path fill="#006DAE" d="M21.566,52.092c0,0,2.889,5.65,12.556,8.273C34.122,60.365,26.178,56.771,21.566,52.092z"/>
<path fill="#006DAE" d="M16.397,52.162c0,0,4.947,8.475,18.091,9.836C34.488,61.998,22.105,58.525,16.397,52.162z"/>
<path fill="#006DAE" d="M13.221,54.658c0,0,3.896,6.057,21.268,7.34C34.488,61.998,16.346,62.158,13.221,54.658z"/>
<path fill="#F59E01" d="M29.406,59.994c0,1.334-2,1.334-2,0S29.406,58.66,29.406,59.994z"/>
<path fill="#F59E01" d="M42.594,59.994c0,1.334-2,1.334-2,0S42.594,58.66,42.594,59.994z"/>
<path fill="#F9B700" d="M41.877,60.492c-4.512,1.158-9.242,1.158-13.754,0c0.098-0.379,0.195-0.76,0.293-1.141
	c4.32,1.109,8.848,1.109,13.168,0C41.682,59.732,41.779,60.113,41.877,60.492z"/>
<path fill="#014D87" d="M62,25.402c0,5.486-5.424,4.588-27,4.588S8,30.889,8,25.402C8,19.91,62,19.91,62,25.402z"/>
<path fill="#614A36" d="M35,8.275c-11.006,0-16.307,8.961-15.645,20.484c0.137,2.316,0.781,5.656,1.576,8.52
	C22.582,43.23,31.291,49.225,35,49.225c3.707,0,12.416-5.994,14.068-11.945c0.795-2.863,1.439-6.203,1.574-8.52
	C51.305,17.236,46.006,8.275,35,8.275z"/>
<path fill="#472B27" d="M34.998,39.869c-2.578-1.135-2.6-0.047-6.58,0.221c1.494,1.697,2.594,3.879,6.578,3.879
	c4.574,0,5.348-2.479,6.586-3.879C37.596,39.822,37.58,38.734,34.998,39.869z"/>
<path fill="#FFFFFF" d="M29.613,40.514c2.6,2.705,8.205,2.668,10.771,0.002C36.383,40.945,33.615,40.945,29.613,40.514z"/>
<path fill="#E6EBEF" d="M46.693,24.926c-2.391-1.426-6.68-1.6-8.377-0.629c-0.359,0.197-0.262,1.227,0.049,1.098
	c2.42-1.008,6.107-1.059,8.379,0.107C47.049,25.656,47.057,25.133,46.693,24.926z"/>
<path fill="#E6EBEF" d="M23.305,24.926c2.391-1.426,6.678-1.6,8.379-0.629c0.359,0.197,0.264,1.227-0.049,1.098
	c-2.422-1.008-6.105-1.061-8.381,0.107C22.949,25.656,22.943,25.133,23.305,24.926z"/>
<path fill="#302116" d="M37.473,36.213c-0.262-0.184-0.877,0.098-2.475,0.098c-1.596,0-2.211-0.281-2.473-0.098
	c-0.314,0.221,0.184,1.217,2.473,1.217S37.789,36.434,37.473,36.213z"/>
<path id="Path_1935_" fill="#FFFFFF" d="M32.551,29.25c0.094,0.727-0.4,1.59-1.77,2.236c-0.869,0.412-2.678,0.896-5.055-0.105
	c-1.064-0.449-2.104-1.848-2.01-2.621C25.004,26.332,31.346,25.977,32.551,29.25z"/>
<linearGradient id="Oval_1_" gradientUnits="userSpaceOnUse" x1="-424.1235" y1="477.4414" x2="-424.1235" y2="478.1992" gradientTransform="matrix(6.5701 0 0 -6.5701 2814.7805 3168.5281)">
	<stop  offset="0" style="stop-color:#A6694A"/>
	<stop  offset="1" style="stop-color:#4F2A1E"/>
	<a:midPointStop  offset="0" style="stop-color:#A6694A"/>
	<a:midPointStop  offset="0.5" style="stop-color:#A6694A"/>
	<a:midPointStop  offset="1" style="stop-color:#4F2A1E"/>
</linearGradient>
<circle id="Oval_251_" fill="url(#Oval_1_)" cx="28.248" cy="29.199" r="2.49"/>
<path id="Path_1934_" fill="#1A1626" d="M27.004,29.154c0,1.723,2.492,1.723,2.492,0C29.496,27.555,27.004,27.555,27.004,29.154z"/>
<path id="Path_1933_" fill="#AB968C" d="M26.625,28.457c0,0.723,1.045,0.723,1.045,0C27.67,27.787,26.625,27.787,26.625,28.457z"/>
<path id="Path_1932_" fill="#45332C" d="M32.563,29.346c-1.012-3.252-7.908-2.771-8.846-0.586
	C24.064,25.961,31.701,25.223,32.563,29.346z"/>
<path id="Path_1931_" fill="#FFFFFF" d="M37.447,29.25c-0.092,0.727,0.402,1.59,1.771,2.236c0.869,0.412,2.678,0.896,5.055-0.105
	c1.066-0.449,2.104-1.848,2.01-2.621C44.996,26.332,38.654,25.977,37.447,29.25z"/>
<linearGradient id="Oval_2_" gradientUnits="userSpaceOnUse" x1="-424.7754" y1="477.4414" x2="-424.7754" y2="478.1992" gradientTransform="matrix(6.5701 0 0 -6.5701 2832.511 3168.5281)">
	<stop  offset="0" style="stop-color:#A6694A"/>
	<stop  offset="1" style="stop-color:#4F2A1E"/>
	<a:midPointStop  offset="0" style="stop-color:#A6694A"/>
	<a:midPointStop  offset="0.5" style="stop-color:#A6694A"/>
	<a:midPointStop  offset="1" style="stop-color:#4F2A1E"/>
</linearGradient>
<circle id="Oval_250_" fill="url(#Oval_2_)" cx="41.695" cy="29.199" r="2.49"/>
<path id="Path_1930_" fill="#1A1626" d="M40.451,29.154c0,1.723,2.49,1.723,2.49,0C42.941,27.555,40.451,27.555,40.451,29.154z"/>
<path id="Path_1929_" fill="#AB968C" d="M40.07,28.457c0,0.723,1.045,0.723,1.045,0C41.115,27.787,40.07,27.787,40.07,28.457z"/>
<path id="Path_1928_" fill="#45332C" d="M37.438,29.346c1.01-3.25,7.902-2.785,8.846-0.586
	C45.934,25.961,38.299,25.223,37.438,29.346z"/>
<path fill="#E6EBEF" d="M47.385,9.883c1.258-1.793-9.387-5.582-19.438-3.023C17.908,9.158,14.25,24.199,14.25,34.037
	c0.898,0.711,4.396-1.066,5.416-2.234c0.416-1.721,1.072-3.492,1.684-5.328c7.539-4.365,16.07-5.393,21.992-10.617
	c-0.758,2.275,3.256,5.145,5.309,10.617c0.664,1.775,1.26,3.553,1.682,5.328c1.674,1.541,3.014,2.268,5.418,2.234
	C55.75,25.717,51.41,8.723,47.385,9.883z"/>
<path fill="#CFD8DD" d="M16.059,32.541c6.943-9.248,27.438-8.621,31.326-22.658C39.834,21.664,17.955,23.652,16.059,32.541z"/>
<linearGradient id="SVGID_1_" gradientUnits="userSpaceOnUse" x1="34.9922" y1="28.9634" x2="34.9922" y2="22.0898">
	<stop  offset="0.2788" style="stop-color:#1A1626;stop-opacity:0"/>
	<stop  offset="1" style="stop-color:#1A1626;stop-opacity:0.8"/>
	<a:midPointStop  offset="0.2788" style="stop-color:#1A1626;stop-opacity:0"/>
	<a:midPointStop  offset="0.6723" style="stop-color:#1A1626;stop-opacity:0"/>
	<a:midPointStop  offset="1" style="stop-color:#1A1626;stop-opacity:0.8"/>
</linearGradient>
<path fill="url(#SVGID_1_)" d="M60.391,26.141c-13.846,2.795-37.912,4.621-50.797,0.004C18.479,21.738,46.273,19.824,60.391,26.141z
	"/>
<path fill="#006DAE" d="M62,25.281C62,28.533,56.576,23,35,23c-21.574,0-27,5.533-27,2.281C8,14.025,62,14.025,62,25.281z"/>
<path fill="#006DAE" d="M51.056,13.488c0.207-3.02-6.548-5.309-5.5-8.465C46.063,3.496,49.168,2.471,47.745,0
	c-2.354,3.305-14.04,0-19.878,5.828C23.196,8.014,13.382,17.65,17.609,21.01c8.89-1.203,26.604-1.686,37.656,0
	C59.406,17.719,52.549,14.012,51.056,13.488z"/>
<path opacity="0.2" fill="#013366" enable-background="new    " d="M47.745,0c1.679,3.121-5.302,3.961-5.681,7.922
	c1.757-2.223,3.763-0.629,3.454-1.678C44.764,3.574,49.443,2.996,47.745,0z"/>
<path opacity="0.2" fill="#013366" enable-background="new    " d="M49.078,10.27c0,0-12.204,0-24.834,5.949
	c8.761-2.145,20.849-3.945,26.812-2.729C51.407,12.121,49.078,10.27,49.078,10.27z"/>
<path opacity="0.2" fill="#013366" enable-background="new    " d="M52.392,16.219c0,0-4.33,0.762-16.355,2.855
	C45.827,14.98,52.392,16.219,52.392,16.219z"/>
<radialGradient id="SVGID_2_" cx="6.6147" cy="39.0459" r="6.1295" gradientUnits="userSpaceOnUse">
	<stop  offset="0.2303" style="stop-color:#A2FF00"/>
	<stop  offset="0.432" style="stop-color:#9FFD02"/>
	<stop  offset="0.563" style="stop-color:#97F608"/>
	<stop  offset="0.674" style="stop-color:#88E911"/>
	<stop  offset="0.7737" style="stop-color:#73D81F"/>
	<stop  offset="0.8659" style="stop-color:#57C231"/>
	<stop  offset="0.9514" style="stop-color:#36A647"/>
	<stop  offset="1" style="stop-color:#209456"/>
	<a:midPointStop  offset="0.2303" style="stop-color:#A2FF00"/>
	<a:midPointStop  offset="0.7874" style="stop-color:#A2FF00"/>
	<a:midPointStop  offset="1" style="stop-color:#209456"/>
</radialGradient>
<path fill="url(#SVGID_2_)" d="M8.269,34.646C4.81,34.646,2,37.453,2,40.918c0,3.463,2.81,6.266,6.269,6.266
	s6.269-2.803,6.269-6.266C14.537,37.453,11.728,34.646,8.269,34.646z"/>
<radialGradient id="SVGID_3_" cx="558.2207" cy="61.3242" r="8.6306" gradientTransform="matrix(0.3583 0.4654 -0.7152 0.5506 -151.4179 -257.4933)" gradientUnits="userSpaceOnUse">
	<stop  offset="0" style="stop-color:#FFFFFF"/>
	<stop  offset="1" style="stop-color:#FFFFFF;stop-opacity:0"/>
	<a:midPointStop  offset="0" style="stop-color:#FFFFFF"/>
	<a:midPointStop  offset="0.5515" style="stop-color:#FFFFFF"/>
	<a:midPointStop  offset="1" style="stop-color:#FFFFFF;stop-opacity:0"/>
</radialGradient>
<path fill="url(#SVGID_3_)" d="M8.081,40.525c-1.761,1.357-3.904,1.527-4.785,0.381c-0.884-1.146-0.172-3.174,1.589-4.531
	c1.763-1.355,3.906-1.527,4.79-0.381C10.559,37.143,9.845,39.172,8.081,40.525z"/>
<linearGradient id="SVGID_4_" gradientUnits="userSpaceOnUse" x1="5.9497" y1="51.752" x2="15.7588" y2="51.752">
	<stop  offset="0.2545" style="stop-color:#916958"/>
	<stop  offset="0.4316" style="stop-color:#8D6655"/>
	<stop  offset="0.6087" style="stop-color:#815C4C"/>
	<stop  offset="0.7858" style="stop-color:#6D4C3E"/>
	<stop  offset="0.9621" style="stop-color:#513529"/>
	<stop  offset="1" style="stop-color:#4A2F24"/>
	<a:midPointStop  offset="0.2545" style="stop-color:#916958"/>
	<a:midPointStop  offset="0.7073" style="stop-color:#916958"/>
	<a:midPointStop  offset="1" style="stop-color:#4A2F24"/>
</linearGradient>
<path fill="url(#SVGID_4_)" d="M13.878,41.504c0,0,2.925,3.916,1.326,5.816C13.005,49.926,15.759,62,15.759,62h-2.974
	c0,0-0.967-9.277-6.632-14.861C4.451,45.463,13.984,46.75,13.878,41.504z"/>
<linearGradient id="SVGID_5_" gradientUnits="userSpaceOnUse" x1="3.5229" y1="43.7637" x2="14.854" y2="43.7637">
	<stop  offset="0.2545" style="stop-color:#916958"/>
	<stop  offset="0.4316" style="stop-color:#8D6655"/>
	<stop  offset="0.6087" style="stop-color:#815C4C"/>
	<stop  offset="0.7858" style="stop-color:#6D4C3E"/>
	<stop  offset="0.9621" style="stop-color:#513529"/>
	<stop  offset="1" style="stop-color:#4A2F24"/>
	<a:midPointStop  offset="0.2545" style="stop-color:#916958"/>
	<a:midPointStop  offset="0.7073" style="stop-color:#916958"/>
	<a:midPointStop  offset="1" style="stop-color:#4A2F24"/>
</linearGradient>
<path fill="url(#SVGID_5_)" d="M14.016,38.789c1.271,0.141,1.632,7.486-2.864,9.746C9.25,49.49,3.018,46.98,3.556,44.922
	c0.435-1.643,5.303,1.121,6.794,0.305C11.973,44.334,12.173,38.592,14.016,38.789z"/>
</svg>
