<?xml version="1.0" encoding="utf-8"?>
<!-- Generator: Adobe Illustrator 15.0.0, SVG Export Plug-In . SVG Version: 6.00 Build 0)  -->
<!DOCTYPE svg PUBLIC "-//W3C//DTD SVG 1.1//EN" "http://www.w3.org/Graphics/SVG/1.1/DTD/svg11.dtd" [
	<!ENTITY ns_flows "http://ns.adobe.com/Flows/1.0/">
	<!ENTITY ns_extend "http://ns.adobe.com/Extensibility/1.0/">
	<!ENTITY ns_ai "http://ns.adobe.com/AdobeIllustrator/10.0/">
	<!ENTITY ns_graphs "http://ns.adobe.com/Graphs/1.0/">
]>
<svg version="1.1" id="Layer_1" xmlns:x="&ns_extend;" xmlns:i="&ns_ai;" xmlns:graph="&ns_graphs;"
	 xmlns="http://www.w3.org/2000/svg" xmlns:xlink="http://www.w3.org/1999/xlink" xmlns:a="http://ns.adobe.com/AdobeSVGViewerExtensions/3.0/"
	 x="0px" y="0px" width="64px" height="64px" viewBox="0 0 64 64" enable-background="new 0 0 64 64" xml:space="preserve">
<linearGradient id="SVGID_1_" gradientUnits="userSpaceOnUse" x1="32.0005" y1="56.1094" x2="32.0005" y2="26.1138">
	<stop  offset="0" style="stop-color:#FFD059"/>
	<stop  offset="1" style="stop-color:#FFE98C"/>
	<a:midPointStop  offset="0" style="stop-color:#FFD059"/>
	<a:midPointStop  offset="0.5" style="stop-color:#FFD059"/>
	<a:midPointStop  offset="1" style="stop-color:#FFE98C"/>
</linearGradient>
<path fill="url(#SVGID_1_)" d="M46.708,26.113H17.292c0,7.029-5.987,22.52-1.813,27.832c2.266,2.885,30.775,2.885,33.041,0
	C52.695,48.633,46.708,33.143,46.708,26.113z"/>
<rect x="23" y="40.912" fill="#E6B045" width="18" height="16.035"/>
<path fill="#3AAB1F" d="M54.277,50.943c-0.086-0.041-0.104-0.336,0-0.424c-3.512-1.289-6.008-2.193-9.166-2.848
	c-0.941-4.15,1.971-6.018,1.971-6.018C39.486,41.654,32,58.242,32,58.242s-7.484-16.588-15.082-16.588c0,0,2.912,1.867,1.971,6.018
	c-3.158,0.654-5.654,1.559-9.164,2.848c0.102,0.088,0.084,0.383,0,0.424C5.822,52.887,5,60,5,60h54
	C59,60,58.18,52.887,54.277,50.943z"/>
<path fill="#299900" d="M54.277,50.52C49.709,55.393,51.432,60,51.432,60s-0.316-5.258,3.02-8.963
	C54.561,50.76,54.445,50.533,54.277,50.52z"/>
<path fill="#299900" d="M34.854,57.439c0,0,7.598-5.154,10.248-9.775C42.988,53.26,34.854,57.439,34.854,57.439z"/>
<path fill="#299900" d="M9.725,50.52c4.566,4.873,2.844,9.48,2.844,9.48s0.316-5.258-3.021-8.963
	C9.439,50.76,9.555,50.533,9.725,50.52z"/>
<path fill="#299900" d="M29.146,57.439c0,0-7.598-5.154-10.248-9.775C21.012,53.26,29.146,57.439,29.146,57.439z"/>
<path fill="#C9CDD1" d="M33.688,57.35c0,3.283-3.375,3.283-3.375,0C30.313,54.305,33.688,54.305,33.688,57.35z"/>
<path fill="#E6EBEF" d="M33.131,57.373c0,2.463-2.25,2.463-2.25,0C30.881,55.09,33.131,55.09,33.131,57.373z"/>
<path fill="#FFE98C" d="M47.263,33.867h-3.391C42.319,51.123,44.121,60,44.121,60H47.4C47.35,44.957,47.864,54.527,47.263,33.867z"
	/>
<path fill="#FFE98C" d="M20.128,33.867h-3.39C16.137,54.527,16.65,44.957,16.6,60h3.281C19.881,60,21.681,51.123,20.128,33.867z"/>
<path id="Path_513_" fill="#FFCC66" d="M51.963,19.206c-5.262,2.317-8.247,12.138-6.029,15.247c0.225,0.313,1.535,0.814,2.508-1.168
	c0.539-1.098,2.005-2.033,2.574-4.277C51.784,25.976,53.778,18.406,51.963,19.206z"/>
<path id="Path_512_" fill="#DB9D3A" d="M51.479,20.586c-1.815,0.773-3.183,3.768-3.946,5.875c1.669,0.364,1.207,3.512-0.858,3.76
	c-0.026,0.389-0.041,1.92,0.008,2.34c0.971-1.408,1.959-0.844,2.938-2.939C50.5,27.732,52.477,20.16,51.479,20.586z"/>
<path id="Path_511_" fill="#FFCC66" d="M12.037,19.206c5.262,2.317,8.247,12.138,6.029,15.247c-0.225,0.313-1.535,0.814-2.508-1.168
	c-0.539-1.098-2.005-2.033-2.574-4.277C12.216,25.976,10.222,18.406,12.037,19.206z"/>
<path id="Path_476_" fill="#DB9D3A" d="M12.521,20.586c1.815,0.773,3.183,3.768,3.946,5.875c-1.669,0.364-1.207,3.512,0.858,3.76
	c0.026,0.389,0.041,1.92-0.008,2.34c-0.971-1.408-1.959-0.844-2.938-2.939C13.5,27.732,11.523,20.16,12.521,20.586z"/>
<path id="Path_475_" fill="#FFCC66" d="M32,7.033c-11.027,0-16.34,8.328-15.676,19.908c0.133,2.33,1.582,9.93,2.947,12.656
	c1.398,2.789,6.074,7.09,8.938,7.98c1.811,0.561,5.773,0.561,7.582,0c2.865-0.891,7.543-5.191,8.939-7.98
	c1.369-2.727,2.814-10.324,2.945-12.656C48.344,15.361,43.031,7.033,32,7.033z"/>
<path id="Path_474_" fill="#966F42" d="M43.982,22.543c-2.521-1.336-7.348-1.4-9.146-0.469c-0.387,0.178-0.131,1.441,0.193,1.322
	c2.504-0.99,6.547-1.012,8.893,0.084C44.234,23.623,44.365,22.729,43.982,22.543z"/>
<path id="Path_473_" fill="#966F42" d="M20.02,22.543c2.521-1.336,7.346-1.4,9.146-0.469c0.385,0.178,0.131,1.441-0.193,1.322
	c-2.51-0.99-6.547-1.012-8.895,0.084C19.768,23.623,19.639,22.729,20.02,22.543z"/>
<path id="Path_472_" fill="#DB9D3A" d="M34.977,34.107c-0.314-0.219-1.053,0.119-2.977,0.119c-1.92,0-2.66-0.338-2.975-0.119
	c-0.377,0.266,0.223,1.461,2.975,1.461C34.754,35.568,35.355,34.373,34.977,34.107z"/>
<path id="Path_471_" fill="#DB9D3A" d="M32,38.645c-2.479-0.729-6.154,0.346-6.154,0.346c1.398,1.521,2.424,3.494,6.154,3.494
	c4.275,0,5.002-2.24,6.156-3.494C38.156,38.99,34.48,37.91,32,38.645z"/>
<path id="Path_470_" fill="#FFFFFF" d="M26.768,39.248c2.602,2.176,7.852,2.191,10.467,0C34.463,39.365,29.559,39.367,26.768,39.248
	z"/>
<path id="Path_469_" fill="#FFFFFF" d="M29.547,27.084c0.094,0.73-0.402,1.594-1.773,2.242c-0.871,0.412-2.686,0.896-5.066-0.107
	c-1.066-0.449-2.107-1.848-2.014-2.623C21.984,24.166,28.338,23.811,29.547,27.084z"/>
<linearGradient id="Oval_1_" gradientUnits="userSpaceOnUse" x1="-424.5815" y1="477.7695" x2="-424.5815" y2="478.5283" gradientTransform="matrix(6.5701 0 0 -6.5701 2814.7805 3168.5281)">
	<stop  offset="0" style="stop-color:#A6694A"/>
	<stop  offset="1" style="stop-color:#4F2A1E"/>
	<a:midPointStop  offset="0" style="stop-color:#A6694A"/>
	<a:midPointStop  offset="0.5" style="stop-color:#A6694A"/>
	<a:midPointStop  offset="1" style="stop-color:#4F2A1E"/>
</linearGradient>
<circle id="Oval_74_" fill="url(#Oval_1_)" cx="25.236" cy="27.037" r="2.492"/>
<path id="Path_267_" fill="#1A1626" d="M23.988,26.99c0,1.725,2.496,1.725,2.496,0C26.484,25.391,23.988,25.391,23.988,26.99z"/>
<path id="Path_224_" fill="#AB968C" d="M23.609,26.291c0,0.723,1.045,0.723,1.045,0C24.654,25.623,23.609,25.623,23.609,26.291z"/>
<path id="Path_223_" fill="#DB9D3A" d="M29.559,27.18c-1.014-3.25-7.926-2.77-8.865-0.584C21.041,23.797,28.695,23.057,29.559,27.18
	z"/>
<path id="Path_214_" fill="#FFFFFF" d="M34.455,27.084c-0.094,0.73,0.4,1.594,1.773,2.242c0.871,0.412,2.684,0.896,5.064-0.107
	c1.07-0.449,2.109-1.848,2.016-2.623C42.018,24.166,35.662,23.811,34.455,27.084z"/>
<linearGradient id="Oval_2_" gradientUnits="userSpaceOnUse" x1="-425.23" y1="477.7695" x2="-425.23" y2="478.5283" gradientTransform="matrix(6.5701 0 0 -6.5701 2832.511 3168.5281)">
	<stop  offset="0" style="stop-color:#A6694A"/>
	<stop  offset="1" style="stop-color:#4F2A1E"/>
	<a:midPointStop  offset="0" style="stop-color:#A6694A"/>
	<a:midPointStop  offset="0.5" style="stop-color:#A6694A"/>
	<a:midPointStop  offset="1" style="stop-color:#4F2A1E"/>
</linearGradient>
<circle id="Oval_73_" fill="url(#Oval_2_)" cx="38.709" cy="27.037" r="2.492"/>
<path id="Path_213_" fill="#1A1626" d="M37.463,26.99c0,1.725,2.496,1.725,2.496,0C39.959,25.391,37.463,25.391,37.463,26.99z"/>
<path id="Path_212_" fill="#AB968C" d="M37.082,26.291c0,0.723,1.047,0.723,1.047,0C38.129,25.623,37.082,25.623,37.082,26.291z"/>
<path id="Path_211_" fill="#DB9D3A" d="M34.443,27.18c1.012-3.248,7.92-2.783,8.865-0.584C42.957,23.797,35.307,23.057,34.443,27.18
	z"/>
<linearGradient id="SVGID_2_" gradientUnits="userSpaceOnUse" x1="32.0024" y1="13.2544" x2="32.0024" y2="4">
	<stop  offset="0" style="stop-color:#FFE98C"/>
	<stop  offset="0.5586" style="stop-color:#FFE284"/>
	<stop  offset="1" style="stop-color:#FFD97A"/>
	<a:midPointStop  offset="0" style="stop-color:#FFE98C"/>
	<a:midPointStop  offset="0.6121" style="stop-color:#FFE98C"/>
	<a:midPointStop  offset="1" style="stop-color:#FFD97A"/>
</linearGradient>
<path fill="url(#SVGID_2_)" d="M46.086,9.793C43.672,6.531,39.254,4,32,4c-7.252,0-11.668,2.531-14.082,5.793
	C14.5,14.408,49.502,14.408,46.086,9.793z"/>
<path fill="#FFE98C" d="M46.086,9.793C43.672,6.531,32,10.068,32,10.068S20.332,6.531,17.918,9.793
	c-3.418,4.615-2.258,15.998-0.736,15.998c0.24,0,0.275-1.381,0.736-5.104c0.373-3.029,1.094-5.969,1.924-6.449
	C22.373,12.771,32,14.869,32,14.869s9.629-2.098,12.162-0.631c0.828,0.48,1.547,3.42,1.924,6.449
	c0.459,3.723,0.494,5.104,0.734,5.104C48.342,25.791,49.502,14.408,46.086,9.793z"/>
</svg>
