<?xml version="1.0" encoding="utf-8"?>
<!-- Generator: Adobe Illustrator 15.0.0, SVG Export Plug-In . SVG Version: 6.00 Build 0)  -->
<!DOCTYPE svg PUBLIC "-//W3C//DTD SVG 1.1//EN" "http://www.w3.org/Graphics/SVG/1.1/DTD/svg11.dtd" [
	<!ENTITY ns_flows "http://ns.adobe.com/Flows/1.0/">
	<!ENTITY ns_extend "http://ns.adobe.com/Extensibility/1.0/">
	<!ENTITY ns_ai "http://ns.adobe.com/AdobeIllustrator/10.0/">
	<!ENTITY ns_graphs "http://ns.adobe.com/Graphs/1.0/">
]>
<svg version="1.1" id="Layer_1" xmlns:x="&ns_extend;" xmlns:i="&ns_ai;" xmlns:graph="&ns_graphs;"
	 xmlns="http://www.w3.org/2000/svg" xmlns:xlink="http://www.w3.org/1999/xlink" xmlns:a="http://ns.adobe.com/AdobeSVGViewerExtensions/3.0/"
	 x="0px" y="0px" width="64px" height="64px" viewBox="0 0 64 64" enable-background="new 0 0 64 64" xml:space="preserve">
<path fill="#F9B700" d="M49.566,53.634c0,0.577,3.051,0.577,3.051,0C52.617,51.298,49.566,51.298,49.566,53.634z"/>
<path fill="#F59E01" d="M46.775,55.403c0,0.714,8.633,0.714,8.633,0C55.408,52.509,46.775,52.509,46.775,55.403z"/>
<path fill="#F59E01" d="M46.775,61.464c0,0.715,8.633,0.715,8.633,0C55.408,58.57,46.775,58.57,46.775,61.464z"/>
<path fill="#F59E01" d="M58.018,58.75c7.49,3.768,3.059-7.946-2.23-2.877C51.299,58.022,56.631,62.745,58.018,58.75z M56.307,56.527
	c3.063-2.932,6.52,2.457,2.711,1.927c1.23-1.854-2.215-2.368-1.773-0.688c-0.953-0.583-2.105,0.658-1.016,1.445
	C54.943,59.006,54.619,57.337,56.307,56.527z"/>
<path fill="#F9B700" d="M56.969,55.685c-5.346-2.747-8.012,0.461-16.769-2.452c-0.768,0.432-2.227,0.507-1.18,1.749
	C47.221,53.91,49.211,66.06,56.969,55.685z"/>
<path fill="#AB5C10" d="M40.347,53.522c-0.098-0.192-1.516,0.53-1.418,0.724C39.323,55.021,40.743,54.3,40.347,53.522z"/>
<linearGradient id="SVGID_1_" gradientUnits="userSpaceOnUse" x1="9.5571" y1="40.9375" x2="57.8154" y2="40.9375">
	<stop  offset="0" style="stop-color:#0FB4D4"/>
	<stop  offset="0.1838" style="stop-color:#0EADD2"/>
	<stop  offset="0.4419" style="stop-color:#0B9BCB"/>
	<stop  offset="0.7425" style="stop-color:#057DC0"/>
	<stop  offset="1" style="stop-color:#005EB5"/>
	<a:midPointStop  offset="0" style="stop-color:#0FB4D4"/>
	<a:midPointStop  offset="0.6341" style="stop-color:#0FB4D4"/>
	<a:midPointStop  offset="1" style="stop-color:#005EB5"/>
</linearGradient>
<path fill="url(#SVGID_1_)" d="M36.212,35.595c-2.148,8.856-8.318,10.971-10.66,5.188c-2.859-0.82-12.17-0.821-15.037,0
	C4.757,54.463,26.442,64.82,36.087,41.896c8.062-19.156,22.897-8.189,5.895,2.105c-9.945,6.021-6.08,8.955-1.818,10.307
	c-4.088-3.482-1.293-5.332,3.776-7.602C77.141,31.839,40.952,16.052,36.212,35.595z"/>
<path fill="#0FB4D4" d="M24.95,38.648c0,2.668-13.836,2.668-13.836,0c0,0-0.117-4.637-2-7.721H26.95
	C25.065,34.012,24.95,38.648,24.95,38.648z"/>
<path fill="#F9B700" d="M25.552,40.782c0,2.667-7.52,4.408-7.52,4.408s-7.518-1.741-7.518-4.408c0.734-2.154,0.6-2.134,0.6-2.134
	c4.031,1.861,9.807,1.86,13.836,0C24.95,38.648,24.843,39.19,25.552,40.782z"/>
<path fill="#0FB4D4" d="M26.667,32.561c1.654-3.795,4.326-8.099,2.871-10.677c-4.01-7.097-19.006-7.097-23.016,0
	c-1.455,2.578,1.217,6.882,2.871,10.677H26.667z"/>
<path fill="#0FB4D4" d="M11.755,19.631c-2.662-3.04-8.287-0.059-7.578,3.059c-4.77,6.349-0.24,8.695-0.063,10.624
	c7.08-0.228,8.846-5.727,6.635-9.012C12.366,23.195,13.222,21.309,11.755,19.631z"/>
<path fill="#00859E" d="M7.433,24.412c-1.746-0.479-3.352-2.131-2.473-4.291c-0.654,0.744-0.992,1.651-0.783,2.568
	c-4.77,6.349-0.24,8.695-0.063,10.624c2.684-2.509-3.068-5.556,0.877-9.702C6.026,24.46,7.433,24.412,7.433,24.412z"/>
<path fill="#00859E" d="M12.274,22.553c-1.088,1.504-2.135,1.91-3.027,2.011c0,0,0.355,0.056,0.605,0.016
	c1.982,1.658,1.373,4.401,0.807,5.778c1.318-1.884,1.279-4.289,0.09-6.056C11.433,23.832,11.981,23.225,12.274,22.553z"/>
<path fill="#0FB4D4" d="M24.308,19.631c2.662-3.04,8.287-0.059,7.578,3.059c4.77,6.349,0.24,8.695,0.063,10.624
	c-7.08-0.228-8.846-5.727-6.635-9.012C23.696,23.195,22.841,21.309,24.308,19.631z"/>
<path fill="#00859E" d="M28.628,24.412c1.748-0.479,3.354-2.131,2.473-4.291c0.652,0.744,0.994,1.651,0.785,2.568
	c4.77,6.349,0.24,8.695,0.063,10.624c-2.684-2.509,3.066-5.556-0.877-9.702C30.034,24.46,28.628,24.412,28.628,24.412z"/>
<path fill="#00859E" d="M23.786,22.553c1.088,1.504,2.135,1.91,3.027,2.011c0,0-0.355,0.056-0.604,0.016
	c-0.85,0.712-1.225,1.621-1.328,2.538c2.49,0.389,9.748,5.38-0.275,1.295c-7.65,1.799-4.256-1.236-0.184-1.35
	c0.033-0.98,0.338-1.939,0.891-2.761C24.628,23.832,24.081,23.225,23.786,22.553z"/>
<path fill="#0FB4D4" d="M21.177,32.691c-1.105,0.91-9.75,4.01-14.967,1.313C0.222,33.961,8.267,23.695,21.177,32.691z"/>
<path fill="#00859E" d="M21.177,32.691c-1.105,0.91-9.707,5.143-15.367,1.502c-3.021-0.021-2.367-2.693,0.68-4.181
	c-5.873,5.075,26.416,5.726,4.443-0.973C13.749,29.021,17.257,29.96,21.177,32.691z"/>
<path fill="#0FB4D4" d="M10.134,29.104c7.084,0.264,12.754,9.217,20.016,5.365c5.35-0.762-2.188-8.933-9.35-6.519
	C14.212,28.42,14.323,27.018,10.134,29.104z"/>
<path fill="#00859E" d="M10.134,29.104c8.189,1.588,12.717,9.428,20.24,5.588c2.141-0.254,2.904-2.619-0.42-4.853
	c3.588,5.375-6.027,5.216-8.777,2.694c-1.164-1.064,5.254-0.637,6.879-1.414C19.185,32.072,16.233,28.754,10.134,29.104z"/>
<path fill="#D47706" d="M13.349,27.947c-0.703,0.228-1.041,1.556-0.402,2.031c0.639,0.474,4.381,2.553,4.83,2.383
	c-0.666-0.922,0.512-4.084,2.139-4.244C19.589,27.535,15.729,27.176,13.349,27.947z"/>
<path fill="#F9B700" d="M17.978,29.979c0.254-0.57,0.613-1.107,1.045-1.456c-2.76-0.796-6.203-0.032-6.236-0.032
	c-0.152,0.299-0.213,0.66-0.15,0.973C14.312,29.48,16.267,29.523,17.978,29.979z"/>
<path fill="#D47706" d="M12.831,39.293c-0.598-0.184-1.176-0.394-1.717-0.645c0,0,0.135-0.021-0.6,2.134
	c0,0.874,0.813,1.646,1.898,2.293C12.673,41.813,12.806,40.546,12.831,39.293z"/>
<path fill="#D47706" d="M24.95,38.648c-0.543,0.25-1.119,0.461-1.715,0.644c0.023,1.254,0.158,2.52,0.416,3.783
	c1.088-0.647,1.9-1.419,1.9-2.293C24.843,39.19,24.95,38.648,24.95,38.648z"/>
<path id="Path_237_" fill="#0FB4D4" d="M24.953,8.9c-1.071,0.129-1.845,3.718-1.171,4.664c0.094,0.134,0.647,0.344,1.056-0.491
	c0.227-0.463,0.882-0.849,1.084-1.805C26.182,10.046,26.02,8.771,24.953,8.9z"/>
<path id="Path_236_" fill="#0FB4D4" d="M11.108,8.9c1.072,0.129,1.846,3.718,1.171,4.664c-0.094,0.134-0.648,0.344-1.056-0.491
	c-0.228-0.463-0.882-0.849-1.084-1.805C9.88,10.046,10.042,8.77,11.108,8.9z"/>
<path id="Path_235_" fill="#00859E" d="M24.925,9.588c-0.28,0.088-0.585,0.515-0.75,1.222c0.977-0.21,0.732,1.419-0.117,1.449
	c0.008,0.163,0.019,0.331,0.039,0.51c0.409-0.595,0.825-0.356,1.237-1.241C25.705,10.73,25.617,9.371,24.925,9.588z"/>
<path id="Path_234_" fill="#00859E" d="M11.887,10.807c-0.166-0.706-0.47-1.132-0.75-1.219c-0.692-0.218-0.781,1.143-0.41,1.939
	c0.413,0.885,0.829,0.646,1.238,1.241c0.021-0.179,0.03-0.348,0.039-0.512C11.162,12.218,10.922,10.609,11.887,10.807z"/>
<path id="Path_233_" fill="#0FB4D4" d="M18.031,2c-4.644,0-6.881,3.512-6.6,8.398c0.057,0.982,0.665,4.188,1.24,5.338
	c0.59,1.176,2.558,2.989,3.764,3.366c0.763,0.235,2.43,0.235,3.192,0c1.206-0.377,3.175-2.19,3.764-3.366
	c0.576-1.15,1.185-4.355,1.24-5.338C24.912,5.512,22.674,2,18.031,2z"/>
<path id="Path_232_" fill="#014D87" d="M23.076,8.542c-1.063-0.563-3.095-0.59-3.851-0.198c-0.163,0.075-0.055,0.608,0.081,0.558
	c1.055-0.417,2.756-0.427,3.744,0.036C23.182,8.996,23.237,8.619,23.076,8.542z"/>
<path id="Path_231_" fill="#014D87" d="M12.986,8.542c1.063-0.563,3.092-0.59,3.851-0.198C17,8.419,16.892,8.952,16.756,8.901
	C15.7,8.484,14,8.475,13.011,8.938C12.879,8.996,12.825,8.619,12.986,8.542z"/>
<path id="Path_230_" fill="#00859E" d="M19.283,13.42c-0.133-0.093-0.443,0.05-1.252,0.05s-1.12-0.143-1.254-0.05
	c-0.159,0.111,0.095,0.617,1.254,0.617C19.189,14.037,19.443,13.531,19.283,13.42z"/>
<path id="Path_229_" fill="#00859E" d="M18.031,15.333c-1.044-0.308-2.593,0.146-2.593,0.146c0.591,0.642,1.021,1.475,2.593,1.475
	c1.8,0,2.106-0.945,2.593-1.475C20.624,15.479,19.075,15.024,18.031,15.333z"/>
<path id="Path_228_" fill="#FFFFFF" d="M15.827,15.588c1.095,0.919,3.306,0.925,4.407,0C19.068,15.638,17.002,15.638,15.827,15.588z
	"/>
<path id="Path_227_" fill="#FFFFFF" d="M16.997,10.458c0.04,0.307-0.168,0.671-0.747,0.944c-0.368,0.174-1.13,0.378-2.133-0.045
	c-0.45-0.189-0.887-0.779-0.848-1.106C13.813,9.227,16.489,9.076,16.997,10.458z"/>
<linearGradient id="Oval_1_" gradientUnits="userSpaceOnUse" x1="-426.1118" y1="480.5156" x2="-426.1118" y2="480.8359" gradientTransform="matrix(6.5701 0 0 -6.5701 2814.7805 3168.5281)">
	<stop  offset="0" style="stop-color:#74717D"/>
	<stop  offset="1" style="stop-color:#28272E"/>
	<a:midPointStop  offset="0" style="stop-color:#74717D"/>
	<a:midPointStop  offset="0.5" style="stop-color:#74717D"/>
	<a:midPointStop  offset="1" style="stop-color:#28272E"/>
</linearGradient>
<circle id="Oval_30_" fill="url(#Oval_1_)" cx="15.183" cy="10.437" r="1.051"/>
<path id="Path_226_" fill="#1A1626" d="M14.657,10.418c0,0.727,1.052,0.727,1.052,0C15.708,9.743,14.657,9.743,14.657,10.418z"/>
<path id="Path_225_" fill="#9F9AAB" d="M14.497,10.124c0,0.304,0.44,0.304,0.44,0C14.937,9.841,14.497,9.841,14.497,10.124z"/>
<path id="Path_224_" fill="#00859E" d="M17.002,10.499c-0.426-1.373-3.336-1.17-3.732-0.248C13.417,9.07,16.639,8.759,17.002,10.499
	z"/>
<path id="Path_223_" fill="#FFFFFF" d="M19.063,10.458c-0.039,0.307,0.169,0.671,0.748,0.944c0.366,0.174,1.13,0.378,2.132-0.045
	c0.45-0.189,0.887-0.779,0.849-1.106C22.248,9.227,19.572,9.076,19.063,10.458z"/>
<linearGradient id="Oval_2_" gradientUnits="userSpaceOnUse" x1="-427.9468" y1="480.5156" x2="-427.9468" y2="480.8359" gradientTransform="matrix(6.5701 0 0 -6.5701 2832.511 3168.5281)">
	<stop  offset="0" style="stop-color:#74717D"/>
	<stop  offset="1" style="stop-color:#28272E"/>
	<a:midPointStop  offset="0" style="stop-color:#74717D"/>
	<a:midPointStop  offset="0.5" style="stop-color:#74717D"/>
	<a:midPointStop  offset="1" style="stop-color:#28272E"/>
</linearGradient>
<circle id="Oval_29_" fill="url(#Oval_2_)" cx="20.856" cy="10.437" r="1.051"/>
<path id="Path_222_" fill="#1A1626" d="M20.331,10.418c0,0.727,1.05,0.727,1.05,0C21.381,9.743,20.331,9.743,20.331,10.418z"/>
<path id="Path_221_" fill="#9F9AAB" d="M20.17,10.124c0,0.304,0.442,0.304,0.442,0C20.612,9.841,20.17,9.841,20.17,10.124z"/>
<path id="Path_195_" fill="#00859E" d="M19.06,10.499c0.426-1.372,3.334-1.176,3.732-0.248C22.644,9.07,19.422,8.759,19.06,10.499z"
	/>
<path fill="#302C3B" d="M18.86,18.162c-0.481-0.167-0.828-0.764-0.828-0.764s-0.346,0.597-0.827,0.764
	c-2.336,0.81-4.333-2.086-4.333-2.086c1.399,3.225,5.159,5.65,5.159,5.65s3.74-2.379,5.156-5.646
	C23.188,16.081,21.196,18.972,18.86,18.162z"/>
</svg>
