<?xml version="1.0" encoding="utf-8"?>
<!-- Generator: Adobe Illustrator 15.0.0, SVG Export Plug-In . SVG Version: 6.00 Build 0)  -->
<!DOCTYPE svg PUBLIC "-//W3C//DTD SVG 1.1//EN" "http://www.w3.org/Graphics/SVG/1.1/DTD/svg11.dtd" [
	<!ENTITY ns_flows "http://ns.adobe.com/Flows/1.0/">
	<!ENTITY ns_extend "http://ns.adobe.com/Extensibility/1.0/">
	<!ENTITY ns_ai "http://ns.adobe.com/AdobeIllustrator/10.0/">
	<!ENTITY ns_graphs "http://ns.adobe.com/Graphs/1.0/">
]>
<svg version="1.1" id="Layer_1" xmlns:x="&ns_extend;" xmlns:i="&ns_ai;" xmlns:graph="&ns_graphs;"
	 xmlns="http://www.w3.org/2000/svg" xmlns:xlink="http://www.w3.org/1999/xlink" xmlns:a="http://ns.adobe.com/AdobeSVGViewerExtensions/3.0/"
	 x="0px" y="0px" width="64px" height="64px" viewBox="0 0 64 64" enable-background="new 0 0 64 64" xml:space="preserve">
<path fill="#302C3B" d="M38.844,44.302H25.155c-1.764,3.146-9.683-1.265-14.405-0.111c0,0,17.038,12.522,21.499,12.553
	c4.462-0.03,20.999-12.553,20.999-12.553C48.526,43.037,40.607,47.447,38.844,44.302z"/>
<path fill="#FFCC66" d="M32.595,54.008c0.807,0.251,1.605,0.41,2.4,0.418c1.393-0.493,2.991,0.895,4.47,1.201
	c1.666,0.344,4.248-0.678,5.559,0.278c1.691-0.497,2.319,1.401,1.166,1.813c0.299,0.555-0.125,0.998-0.386,1.068
	c0.209,0.479-0.198,0.982-0.427,0.991c0.118,0.36-0.171,0.759-0.519,0.833c-0.333,2.182-7.199-0.972-9.019-1.379
	c-0.793-0.18-1.381-0.893-2.362-1.346l-1.444-0.061C32.292,56.568,32.44,55.256,32.595,54.008z"/>
<path fill="#DB9D3A" d="M44.883,57.531c0.449,0.424,1.561,0.602,1.77-0.17C46.291,57.574,46.045,57.584,44.883,57.531z"/>
<path fill="#DB9D3A" d="M44.71,58.918c0,0,1.316,0.309,1.55-0.612C45.9,58.768,44.71,58.918,44.71,58.918z"/>
<path fill="#DB9D3A" d="M44.481,59.998c0,0,1.052,0.242,1.307-0.607C45.429,59.851,44.481,59.998,44.481,59.998z"/>
<path fill="#DB9D3A" d="M44.054,60.728c0,0,1.06,0.294,1.271-0.478C44.965,60.709,44.054,60.728,44.054,60.728z"/>
<path fill="#4E5E67" d="M10.767,44.111c6.32-1.305,12.377,6.596,22.544,10.098c-0.518,2.5-0.791,3.994-0.791,3.994
	c-12.787-0.576-19.326-4.46-22.724-6.781C6.943,49.471,7.007,44.889,10.767,44.111z"/>
<path fill="#FFCC66" d="M31.405,54.369c-0.807,0.26-1.607,0.425-2.4,0.434c-1.395-0.512-2.993,0.926-4.472,1.244
	c-1.666,0.357-4.246-0.702-5.557,0.289c-1.693-0.516-2.321,1.451-1.166,1.879c-0.299,0.574,0.123,1.033,0.386,1.107
	c-0.209,0.495,0.196,1.016,0.425,1.025c-0.116,0.375,0.173,0.785,0.519,0.863c0.333,2.26,7.201-1.008,9.019-1.43
	c0.795-0.186,1.383-0.926,2.362-1.395l1.446-0.063C31.708,57.021,31.56,55.662,31.405,54.369z"/>
<path fill="#DB9D3A" d="M19.115,58.02c-0.449,0.439-1.559,0.623-1.77-0.177C17.709,58.064,17.955,58.074,19.115,58.02z"/>
<path fill="#DB9D3A" d="M19.29,59.457c0,0-1.316,0.318-1.55-0.636C18.1,59.301,19.29,59.457,19.29,59.457z"/>
<path fill="#DB9D3A" d="M19.517,60.574c0,0-1.052,0.251-1.307-0.629C18.571,60.424,19.517,60.574,19.517,60.574z"/>
<path fill="#DB9D3A" d="M19.944,61.331c0,0-1.06,0.304-1.269-0.495C19.035,61.313,19.944,61.331,19.944,61.331z"/>
<path fill="#4E5E67" d="M53.232,44.117c-6.319-1.352-12.453,6.697-22.62,10.325c0.518,2.591,0.867,4.274,0.867,4.274
	c12.785-0.598,19.326-4.621,22.724-7.027C57.057,49.669,56.992,44.922,53.232,44.117z"/>
<path fill="#FFCC66" d="M61.332,41.926c-0.127-0.027-1.324,0.032-1.324,0.032s1.131-0.313,1.438-0.411
	c0.83-0.262,0.572-1.089-0.053-1.089c-0.93-0.001-2.055,0.399-2.055,0.399s0.008-1.203-0.135-1.986
	c-0.074-0.428-1.203-0.469-1.574-0.721c-0.088-0.06-0.176-0.072-0.26-0.066c0.93-0.658,0.355-1.43-0.094-1.251
	c-1.227,0.488-1.521-0.089-2.107,0.457c-0.41,0.382-1.834,2.402-2.221,2.291c-1.87-0.543-4.101-2.541-4.905-3.591
	c-3.91-5.106-2.274-12.179-8.039-11.861c-0.759-0.169-1.941-0.28-4.14-0.339c-0.263-0.54-0.389-1.173-0.441-1.791h-6.844
	c-0.053,0.618-0.179,1.251-0.441,1.791c-2.198,0.059-3.381,0.17-4.14,0.339c-5.765-0.318-4.129,6.755-8.039,11.861
	c-0.805,1.05-3.035,3.048-4.905,3.591c-0.387,0.111-1.811-1.909-2.221-2.291c-0.586-0.546-0.881,0.031-2.108-0.457
	c-0.448-0.179-1.023,0.593-0.093,1.251c-0.085-0.006-0.173,0.007-0.26,0.066c-0.371,0.252-1.5,0.293-1.575,0.721
	c-0.142,0.783-0.134,1.986-0.134,1.986s-1.126-0.4-2.056-0.399c-0.624,0-0.882,0.827-0.052,1.089
	c0.306,0.098,1.437,0.411,1.437,0.411s-1.197-0.06-1.324-0.032c-0.837,0.176-0.867,1.111,0.061,1.26
	c0.215,0.035,0.767-0.045,0.898-0.037c-0.582,0.258-0.688,1.289,0.571,1.256c1.7-0.046,3.265,0.244,3.919,0.244
	c0.496,0,2.952-0.146,3.849-1.428c0.654-0.938,4.346-1.508,6.016-2.775c1.215-0.926,4.023-3.256,4.829-7.002
	c-0.044,2.238,0.857,4.605,0.857,4.605h16.664c0,0,0.901-2.367,0.857-4.605c0.806,3.746,3.614,6.076,4.829,7.002
	c1.67,1.268,5.361,1.838,6.017,2.775c0.896,1.281,3.352,1.428,3.848,1.428c0.654,0,2.219-0.29,3.92-0.244
	c1.258,0.033,1.152-0.998,0.57-1.256c0.133-0.008,0.684,0.072,0.898,0.037C62.199,43.037,62.17,42.102,61.332,41.926z M8.308,39.901
	c-0.563,0.651-0.255,1.478-1.99,0.665c-0.229-0.314-0.31-0.761-0.146-1.104c0.856-0.403,0.943-0.923,0.765-1.198
	c0.292,0.149,0.672,0.287,1.173,0.398C8.392,39.088,8.308,39.901,8.308,39.901z M57.682,40.566c-1.734,0.813-1.426-0.014-1.99-0.665
	c0,0-0.084-0.813,0.199-1.239c0.5-0.111,0.881-0.249,1.172-0.398c-0.178,0.275-0.092,0.795,0.766,1.198
	C57.992,39.806,57.91,40.252,57.682,40.566z"/>
<path fill="#DB9D3A" d="M8.015,42.879c0.045-0.646,0.924-2.246,2.407-2.059C9.037,41.207,8.361,42.172,8.015,42.879z"/>
<path fill="#DB9D3A" d="M6.397,42.089c-1.979-0.16-4.993,0.074-4.294-1.362C1.952,41.949,4.829,41.715,6.397,42.089z"/>
<path fill="#DB9D3A" d="M4.664,40.637l-0.005,0.221C5.526,41.172,5.97,41.1,5.97,41.1S5.474,40.969,4.664,40.637z"/>
<path fill="#DB9D3A" d="M6.61,43.279c-2.397-0.434-4.901,0.689-4.542-0.893C2.12,43.654,4.304,42.512,6.61,43.279z"/>
<path fill="#DB9D3A" d="M55.984,42.879c-0.045-0.646-0.924-2.246-2.406-2.059C54.963,41.207,55.639,42.172,55.984,42.879z"/>
<path fill="#DB9D3A" d="M57.604,42.089c1.979-0.16,4.992,0.074,4.293-1.362C62.049,41.949,59.172,41.715,57.604,42.089z"/>
<path fill="#DB9D3A" d="M59.336,40.637l0.006,0.221c-0.867,0.314-1.313,0.242-1.313,0.242S58.525,40.969,59.336,40.637z"/>
<path fill="#DB9D3A" d="M57.391,43.279c2.396-0.434,4.9,0.689,4.541-0.893C61.881,43.654,59.695,42.512,57.391,43.279z"/>
<path fill="#FF7A00" d="M40.476,38.085c0,0-1.96-6.558-0.548-13.956c0.055-0.288-2.936-0.763-3.014-0.36
	c-2.143,11.159-7.688,11.157-9.828,0c-0.078-0.402-3.068,0.072-3.014,0.36c1.412,7.398-0.548,13.956-0.548,13.956
	c0.732,3.774,0.974,6.917,0.974,6.917c3.984,4.561,11.02,4.557,15.002,0C39.5,45.002,39.743,41.859,40.476,38.085z"/>
<path fill="#FFCC66" d="M27.739,24.545c0,0,1.367,1.453,4.261,1.453c2.893,0,4.26-1.453,4.26-1.453v-4.122h-8.521V24.545z"/>
<path id="Path_394_" fill="#E6B045" d="M27.049,21.289c0.543,1.431,2.361,3.637,3.477,4.094c0.703,0.287,2.246,0.287,2.949,0
	c1.115-0.457,2.934-2.663,3.477-4.094C37.484,19.89,26.517,19.89,27.049,21.289z"/>
<path fill="#473834" d="M39.804,18.82c0.556,0.365,1.196,0.639,1.943,0.779c-1.327-3.021,0.674-9.356-3.428-14.011
	c-5.782,0.173-6.582,18.839,1.479,16.356c-0.513-0.223-0.835-0.676-1.023-1.246c0.621,0.178,1.347,0.184,2.192-0.076
	C40.295,20.332,39.951,19.648,39.804,18.82z"/>
<path fill="#473834" d="M25.29,5.588c-4.102,4.654-1.71,10.99-3.038,14.011c0.747-0.141,1.388-0.414,1.943-0.779
	c-0.147,0.828-0.491,1.512-1.164,1.803c0.845,0.26,1.571,0.254,2.192,0.076c-0.188,0.57-0.51,1.023-1.023,1.246
	C32.261,24.427,31.072,5.761,25.29,5.588z"/>
<path id="Path_411_" fill="#FFCC66" d="M40.436,11.948c-1.307,0.159-2.249,4.523-1.429,5.675c0.116,0.161,0.788,0.417,1.288-0.599
	c0.275-0.563,1.072-1.032,1.319-2.194C41.932,13.341,41.734,11.791,40.436,11.948z"/>
<path id="Path_410_" fill="#FFCC66" d="M23.564,11.948c1.306,0.159,2.25,4.523,1.428,5.675c-0.115,0.161-0.789,0.417-1.287-0.599
	c-0.277-0.563-1.074-1.032-1.321-2.194C22.068,13.341,22.266,11.791,23.564,11.948z"/>
<path id="Path_409_" fill="#DB9D3A" d="M40.399,12.785c-0.341,0.107-0.712,0.625-0.914,1.486c1.191-0.256,0.894,1.725-0.142,1.762
	c0.01,0.199,0.023,0.404,0.047,0.619c0.499-0.723,1.006-0.432,1.508-1.508C41.35,14.174,41.243,12.521,40.399,12.785z"/>
<path id="Path_408_" fill="#DB9D3A" d="M24.514,14.269c-0.202-0.859-0.573-1.378-0.914-1.484c-0.844-0.264-0.952,1.39-0.5,2.359
	c0.502,1.076,1.009,0.785,1.508,1.508c0.024-0.215,0.038-0.42,0.046-0.62C23.631,15.984,23.337,14.027,24.514,14.269z"/>
<path fill="#FFCC66" d="M32,3.556c-5.659,0-8.384,4.6-8.043,10.514c0.07,1.188,0.401,2.904,0.811,4.373
	c0.848,3.055,5.326,6.13,7.233,6.13c1.906,0,6.383-3.075,7.232-6.13c0.409-1.469,0.74-3.185,0.811-4.373
	C40.383,8.156,37.658,3.556,32,3.556z"/>
<path id="Path_407_" fill="#966F42" d="M38.146,11.513c-1.293-0.685-3.77-0.719-4.692-0.242c-0.198,0.092-0.067,0.74,0.099,0.68
	c1.285-0.508,3.359-0.52,4.563,0.043C38.275,12.066,38.343,11.607,38.146,11.513z"/>
<path id="Path_406_" fill="#966F42" d="M25.853,11.513c1.293-0.685,3.768-0.719,4.692-0.242c0.197,0.092,0.067,0.74-0.099,0.68
	c-1.288-0.508-3.358-0.52-4.563,0.043C25.723,12.066,25.657,11.607,25.853,11.513z"/>
<path id="Path_405_" fill="#DB9D3A" d="M33.526,17.446c-0.161-0.112-0.54,0.062-1.526,0.062s-1.365-0.174-1.527-0.062
	c-0.193,0.136,0.115,0.75,1.527,0.75S33.721,17.582,33.526,17.446z"/>
<linearGradient id="SVGID_1_" gradientUnits="userSpaceOnUse" x1="31.916" y1="15.2446" x2="31.916" y2="1.9995">
	<stop  offset="0" style="stop-color:#473834"/>
	<stop  offset="0.2717" style="stop-color:#594640"/>
	<stop  offset="0.7226" style="stop-color:#715950"/>
	<stop  offset="1" style="stop-color:#7A6056"/>
	<a:midPointStop  offset="0" style="stop-color:#473834"/>
	<a:midPointStop  offset="0.4" style="stop-color:#473834"/>
	<a:midPointStop  offset="1" style="stop-color:#7A6056"/>
</linearGradient>
<path fill="url(#SVGID_1_)" d="M32,2c-3.443,0-5.162,1.557-5.511,2.295c-4.163,0.95-5.501,7.959-2.386,10.95
	c0.387-3.187,0.76-5.233,2.882-7.39c1.237,1.655,3.809,2.586,6.11,2.586c-1.09-0.79-1.834-1.564-2.417-2.287
	c3.845,1.762,8.149,2.889,9.218,7.091C43.596,9.367,40.523,2,32,2z"/>
<path fill="#45332C" d="M30.365,13.727c-1.033,0.659-2.639,0.659-3.673,0c-0.158-0.101-0.252,0.008-0.202,0.093
	c1.004,1.703,3.072,1.703,4.077,0C30.618,13.735,30.523,13.626,30.365,13.727z"/>
<path fill="#45332C" d="M37.279,13.727c-1.034,0.659-2.64,0.659-3.674,0c-0.158-0.101-0.251,0.008-0.202,0.093
	c1.004,1.703,3.073,1.703,4.077,0C37.531,13.735,37.437,13.626,37.279,13.727z"/>
<path fill="#E6A400" d="M35.121,20.025c-1.827,1.864-4.513,1.735-6.242,0C31.073,20.191,32.927,20.191,35.121,20.025z"/>
<path fill="#D99025" d="M32,19.95c-0.869-0.28-1.66,0.226-3.121,0.075c0.724,0.335,2.014,0.447,3.121,0.481
	c1.107-0.034,2.397-0.146,3.121-0.481C33.662,20.174,32.869,19.668,32,19.95z"/>
<path fill="#473834" d="M26.489,4.293c-0.053,2.935,1.132,5.131,6.607,6.147C29.172,10.706,25.144,8.334,26.489,4.293z"/>
<path fill="#473834" d="M26.832,7.667c-1.429,1.409-3.033,3.85-2.729,7.576c0.284-3.08,1.7-5.616,2.98-7.26
	C26.994,7.885,26.91,7.78,26.832,7.667z"/>
<path fill="#473834" d="M29.283,6.738c2.871,2.74,9.924,2.562,10.613,8.506C38.057,9.462,31.818,10.759,29.283,6.738z"/>
</svg>
