<?xml version="1.0" encoding="utf-8"?>
<!-- Generator: Adobe Illustrator 15.0.0, SVG Export Plug-In . SVG Version: 6.00 Build 0)  -->
<!DOCTYPE svg PUBLIC "-//W3C//DTD SVG 1.1//EN" "http://www.w3.org/Graphics/SVG/1.1/DTD/svg11.dtd" [
	<!ENTITY ns_flows "http://ns.adobe.com/Flows/1.0/">
	<!ENTITY ns_extend "http://ns.adobe.com/Extensibility/1.0/">
	<!ENTITY ns_ai "http://ns.adobe.com/AdobeIllustrator/10.0/">
	<!ENTITY ns_graphs "http://ns.adobe.com/Graphs/1.0/">
]>
<svg version="1.1" id="Layer_1" xmlns:x="&ns_extend;" xmlns:i="&ns_ai;" xmlns:graph="&ns_graphs;"
	 xmlns="http://www.w3.org/2000/svg" xmlns:xlink="http://www.w3.org/1999/xlink" xmlns:a="http://ns.adobe.com/AdobeSVGViewerExtensions/3.0/"
	 x="0px" y="0px" width="64px" height="64px" viewBox="0 0 64 64" enable-background="new 0 0 64 64" xml:space="preserve">
<path fill="#006DAE" d="M14.434,52.75c2.5-1.365,38.705-1.373,41.191-0.004C59.24,54.73,60,61.998,60,61.998H10
	C10,61.998,10.807,54.727,14.434,52.75z"/>
<path fill="#006DAE" d="M42.77,47.781H27.311c0,0-10.377,3.604-12.877,4.969L35,61.998l20.625-9.252
	C53.139,51.377,42.77,47.781,42.77,47.781z"/>
<path fill="#006099" d="M25.002,48.598c0,8.488,19.994,8.459,19.994-0.031L43,47.889H27L25.002,48.598z"/>
<path fill="#8C5F44" d="M27,48.072c0,6.359,16,6.359,16,0c0-2.164,0-7.158,0-7.158H27C27,40.914,27,45.908,27,48.072z"/>
<path fill="#014D87" d="M34.477,58.904v3.094h1.045v-3.094H34.477z"/>
<path fill="#0081CF" d="M20.402,47.688c-1.678-1.094-4.521,0.303-4.426,2.363c-1.645-0.615-3.42,0.154-3.248,3.094
	c-5.781,7.02,9.779,8.852,21.748,8.852v-3.094c-3.799-2.15-6.711-6.443-9.1-9.213C24.59,48.773,27,47.889,27,47.889v-2.955
	C24.221,44.934,20.627,46.246,20.402,47.688z"/>
<path fill="#006DAE" d="M21.262,50.051c0,0,2.955,6.816,12.84,9.979C34.102,60.029,25.977,55.693,21.262,50.051z"/>
<path fill="#006DAE" d="M15.977,50.137c0,0,5.059,10.219,18.5,11.859C34.477,61.996,21.814,57.809,15.977,50.137z"/>
<path fill="#006DAE" d="M12.729,53.145c0,0,3.982,7.305,21.748,8.852C34.477,61.996,15.924,62.189,12.729,53.145z"/>
<path fill="#0081CF" d="M49.598,47.688c1.678-1.094,4.521,0.303,4.424,2.363c1.646-0.615,3.42,0.154,3.25,3.094
	c5.781,7.02-9.779,8.852-21.75,8.852v-3.094c3.799-2.15,6.713-6.443,9.1-9.213C45.41,48.773,43,47.889,43,47.889v-2.955
	C45.777,44.934,49.371,46.246,49.598,47.688z"/>
<path fill="#006DAE" d="M48.736,50.051c0,0-2.953,6.816-12.838,9.979C35.898,60.029,44.021,55.693,48.736,50.051z"/>
<path fill="#006DAE" d="M54.021,50.137c0,0-5.059,10.219-18.5,11.859C35.521,61.996,48.186,57.809,54.021,50.137z"/>
<path fill="#006DAE" d="M57.271,53.145c0,0-3.984,7.305-21.75,8.852C35.521,61.996,54.074,62.189,57.271,53.145z"/>
<path fill="#F59E01" d="M29.172,59.992c0,1.334-2.082,1.334-2.082,0S29.172,58.658,29.172,59.992z"/>
<path fill="#F59E01" d="M42.91,59.992c0,1.334-2.084,1.334-2.084,0S42.91,58.658,42.91,59.992z"/>
<path fill="#F9B700" d="M42.162,60.49c-4.699,1.158-9.627,1.158-14.326,0c0.102-0.379,0.203-0.76,0.305-1.141
	c4.5,1.109,9.217,1.109,13.717,0C41.959,59.73,42.061,60.111,42.162,60.49z"/>
<path fill="#014D87" d="M62,25.402c0,5.486-5.424,4.586-27,4.586s-27,0.9-27-4.586C8,19.91,62,19.91,62,25.402z"/>
<path fill="#CFD8DD" d="M50.213,38.775c1.082,0.715,2.33,1.248,3.787,1.521c-2.586-5.889,1.314-18.238-6.682-27.311
	c-11.27,0.336-12.828,36.721,2.883,31.883c-1-0.434-1.629-1.316-1.996-2.43c1.211,0.346,2.627,0.357,4.275-0.148
	C51.168,41.725,50.5,40.389,50.213,38.775z"/>
<path fill="#CFD8DD" d="M21.922,12.986C13.926,22.059,18.588,34.408,16,40.297c1.457-0.273,2.707-0.807,3.789-1.521
	c-0.289,1.613-0.957,2.949-2.27,3.516c1.648,0.506,3.063,0.494,4.273,0.148c-0.367,1.113-0.992,1.996-1.992,2.43
	C35.51,49.707,33.193,13.322,21.922,12.986z"/>
<path id="Path_1136_" fill="#B88A6F" d="M51.443,25.383c-2.547,0.307-4.383,8.816-2.783,11.061c0.225,0.314,1.535,0.814,2.508-1.168
	c0.539-1.096,2.094-2.012,2.574-4.275C54.359,28.1,53.977,25.076,51.443,25.383z"/>
<path id="Path_1135_" fill="#B88A6F" d="M18.559,25.383c2.547,0.307,4.385,8.816,2.783,11.061c-0.225,0.314-1.537,0.814-2.508-1.168
	C18.295,34.18,16.74,33.264,16.26,31C15.643,28.1,16.027,25.076,18.559,25.383z"/>
<path id="Path_1134_" fill="#8C5F44" d="M51.373,27.014c-0.664,0.209-1.389,1.219-1.781,2.896c2.322-0.498,1.742,3.361-0.275,3.436
	c0.018,0.387,0.045,0.787,0.092,1.207c0.973-1.41,1.959-0.844,2.938-2.939C53.227,29.723,53.018,26.498,51.373,27.014z"/>
<path id="Path_1133_" fill="#8C5F44" d="M20.41,29.906c-0.395-1.674-1.117-2.686-1.781-2.893c-1.645-0.516-1.855,2.709-0.975,4.6
	c0.979,2.096,1.967,1.529,2.939,2.939c0.049-0.422,0.074-0.82,0.092-1.209C18.688,33.248,18.117,29.436,20.41,29.906z"/>
<path fill="#B88A6F" d="M35,9.025c-11.029,0-16.342,8.965-15.678,20.492c0.137,2.318,0.783,5.66,1.58,8.525
	C22.557,43.996,31.283,49.99,35,49.99s12.443-5.994,14.1-11.947c0.797-2.865,1.441-6.207,1.578-8.525
	C51.342,17.99,46.031,9.025,35,9.025z"/>
<path id="Path_1132_" fill="#E6EBEF" d="M46.982,24.533c-2.521-1.334-7.35-1.398-9.146-0.471c-0.387,0.18-0.131,1.443,0.193,1.324
	c2.504-0.99,6.547-1.012,8.893,0.084C47.234,25.613,47.365,24.719,46.982,24.533z"/>
<path id="Path_1131_" fill="#E6EBEF" d="M23.02,24.533c2.521-1.334,7.346-1.398,9.146-0.471c0.383,0.18,0.131,1.443-0.193,1.324
	c-2.51-0.99-6.547-1.012-8.895,0.084C22.766,25.613,22.637,24.719,23.02,24.533z"/>
<path id="Path_1130_" fill="#8C5F44" d="M37.977,36.098c-0.314-0.219-1.053,0.119-2.977,0.119c-1.92,0-2.66-0.338-2.977-0.119
	c-0.375,0.266,0.225,1.463,2.977,1.463C37.754,37.561,38.355,36.363,37.977,36.098z"/>
<path id="Path_1129_" fill="#8C5F44" d="M35,40.635c-2.48-0.727-6.156,0.346-6.156,0.346c1.4,1.523,2.426,3.496,6.156,3.496
	c4.273,0,5.002-2.24,6.158-3.496C41.158,40.98,37.48,39.904,35,40.635z"/>
<path id="Path_1128_" fill="#FFFFFF" d="M29.768,41.238c2.602,2.178,7.852,2.193,10.467,0
	C37.463,41.357,32.559,41.357,29.768,41.238z"/>
<path id="Path_1127_" fill="#FFFFFF" d="M32.547,29.076c0.094,0.729-0.402,1.594-1.773,2.24c-0.873,0.412-2.684,0.896-5.066-0.107
	c-1.066-0.447-2.107-1.848-2.014-2.621C24.984,26.156,31.338,25.801,32.547,29.076z"/>
<linearGradient id="Oval_1_" gradientUnits="userSpaceOnUse" x1="-424.1255" y1="477.4668" x2="-424.1255" y2="478.2256" gradientTransform="matrix(6.5701 0 0 -6.5701 2814.7805 3168.5281)">
	<stop  offset="0" style="stop-color:#A6694A"/>
	<stop  offset="1" style="stop-color:#4F2A1E"/>
	<a:midPointStop  offset="0" style="stop-color:#A6694A"/>
	<a:midPointStop  offset="0.5" style="stop-color:#A6694A"/>
	<a:midPointStop  offset="1" style="stop-color:#4F2A1E"/>
</linearGradient>
<ellipse id="Oval_144_" fill="url(#Oval_1_)" cx="28.234" cy="29.027" rx="2.498" ry="2.492"/>
<path id="Path_1126_" fill="#1A1626" d="M26.988,28.98c0,1.725,2.496,1.725,2.496,0C29.484,27.381,26.988,27.381,26.988,28.98z"/>
<path id="Path_1125_" fill="#AB968C" d="M26.607,28.283c0,0.723,1.047,0.723,1.047,0C27.654,27.613,26.607,27.613,26.607,28.283z"/>
<path id="Path_1124_" fill="#8C5F44" d="M32.559,29.172c-1.014-3.252-7.924-2.771-8.865-0.584
	C24.041,25.787,31.695,25.047,32.559,29.172z"/>
<path id="Path_1123_" fill="#FFFFFF" d="M37.455,29.076c-0.096,0.729,0.4,1.594,1.773,2.24c0.871,0.412,2.684,0.896,5.064-0.107
	c1.07-0.447,2.109-1.848,2.016-2.621C45.02,26.156,38.662,25.801,37.455,29.076z"/>
<linearGradient id="Oval_2_" gradientUnits="userSpaceOnUse" x1="-424.7729" y1="477.4668" x2="-424.7729" y2="478.2256" gradientTransform="matrix(6.5701 0 0 -6.5701 2832.511 3168.5281)">
	<stop  offset="0" style="stop-color:#A6694A"/>
	<stop  offset="1" style="stop-color:#4F2A1E"/>
	<a:midPointStop  offset="0" style="stop-color:#A6694A"/>
	<a:midPointStop  offset="0.5" style="stop-color:#A6694A"/>
	<a:midPointStop  offset="1" style="stop-color:#4F2A1E"/>
</linearGradient>
<circle id="Oval_143_" fill="url(#Oval_2_)" cx="41.711" cy="29.027" r="2.492"/>
<path id="Path_1122_" fill="#1A1626" d="M40.463,28.98c0,1.725,2.496,1.725,2.496,0C42.959,27.381,40.463,27.381,40.463,28.98z"/>
<path id="Path_1121_" fill="#AB968C" d="M40.084,28.283c0,0.723,1.045,0.723,1.045,0C41.129,27.613,40.084,27.613,40.084,28.283z"/>
<path id="Path_1120_" fill="#8C5F44" d="M37.443,29.172c1.012-3.25,7.92-2.785,8.865-0.584
	C45.959,25.787,38.307,25.047,37.443,29.172z"/>
<path fill="#E6EBEF" d="M35.002,5.99c-6.711,0-10.064,3.035-10.744,4.473c-8.113,1.852-10.723,15.516-4.648,21.346
	c0.754-6.211,1.48-10.201,5.617-14.404c2.412,3.227,7.424,5.041,11.91,5.041c-2.125-1.541-3.574-3.051-4.711-4.457
	c7.494,3.432,15.885,5.629,17.969,13.82C57.604,20.35,51.615,5.99,35.002,5.99z"/>
<radialGradient id="SVGID_1_" cx="6.6147" cy="39.0459" r="6.1295" gradientUnits="userSpaceOnUse">
	<stop  offset="0.2303" style="stop-color:#A2FF00"/>
	<stop  offset="0.432" style="stop-color:#9FFD02"/>
	<stop  offset="0.563" style="stop-color:#97F608"/>
	<stop  offset="0.674" style="stop-color:#88E911"/>
	<stop  offset="0.7737" style="stop-color:#73D81F"/>
	<stop  offset="0.8659" style="stop-color:#57C231"/>
	<stop  offset="0.9514" style="stop-color:#36A647"/>
	<stop  offset="1" style="stop-color:#209456"/>
	<a:midPointStop  offset="0.2303" style="stop-color:#A2FF00"/>
	<a:midPointStop  offset="0.7874" style="stop-color:#A2FF00"/>
	<a:midPointStop  offset="1" style="stop-color:#209456"/>
</radialGradient>
<path fill="url(#SVGID_1_)" d="M8.268,34.646C4.809,34.646,2,37.453,2,40.918c0,3.463,2.809,6.266,6.268,6.266
	s6.27-2.803,6.27-6.266C14.537,37.453,11.727,34.646,8.268,34.646z"/>
<radialGradient id="SVGID_2_" cx="558.2178" cy="61.3252" r="8.6321" gradientTransform="matrix(0.3583 0.4654 -0.7152 0.5506 -151.4179 -257.4933)" gradientUnits="userSpaceOnUse">
	<stop  offset="0" style="stop-color:#FFFFFF"/>
	<stop  offset="1" style="stop-color:#FFFFFF;stop-opacity:0"/>
	<a:midPointStop  offset="0" style="stop-color:#FFFFFF"/>
	<a:midPointStop  offset="0.5515" style="stop-color:#FFFFFF"/>
	<a:midPointStop  offset="1" style="stop-color:#FFFFFF;stop-opacity:0"/>
</radialGradient>
<path fill="url(#SVGID_2_)" d="M8.08,40.525c-1.76,1.357-3.904,1.527-4.785,0.381c-0.883-1.146-0.172-3.174,1.59-4.533
	c1.762-1.355,3.906-1.525,4.789-0.379C10.559,37.143,9.844,39.172,8.08,40.525z"/>
<linearGradient id="SVGID_3_" gradientUnits="userSpaceOnUse" x1="5.9487" y1="51.752" x2="15.7578" y2="51.752">
	<stop  offset="0.2545" style="stop-color:#916958"/>
	<stop  offset="0.4316" style="stop-color:#8D6655"/>
	<stop  offset="0.6087" style="stop-color:#815C4C"/>
	<stop  offset="0.7858" style="stop-color:#6D4C3E"/>
	<stop  offset="0.9621" style="stop-color:#513529"/>
	<stop  offset="1" style="stop-color:#4A2F24"/>
	<a:midPointStop  offset="0.2545" style="stop-color:#916958"/>
	<a:midPointStop  offset="0.7073" style="stop-color:#916958"/>
	<a:midPointStop  offset="1" style="stop-color:#4A2F24"/>
</linearGradient>
<path fill="url(#SVGID_3_)" d="M13.877,41.504c0,0,2.926,3.916,1.326,5.816C13.004,49.926,15.758,62,15.758,62h-2.973
	c0,0-0.967-9.277-6.633-14.861C4.451,45.463,13.984,46.75,13.877,41.504z"/>
<linearGradient id="SVGID_4_" gradientUnits="userSpaceOnUse" x1="3.522" y1="43.7637" x2="14.8535" y2="43.7637">
	<stop  offset="0.2545" style="stop-color:#916958"/>
	<stop  offset="0.4316" style="stop-color:#8D6655"/>
	<stop  offset="0.6087" style="stop-color:#815C4C"/>
	<stop  offset="0.7858" style="stop-color:#6D4C3E"/>
	<stop  offset="0.9621" style="stop-color:#513529"/>
	<stop  offset="1" style="stop-color:#4A2F24"/>
	<a:midPointStop  offset="0.2545" style="stop-color:#916958"/>
	<a:midPointStop  offset="0.7073" style="stop-color:#916958"/>
	<a:midPointStop  offset="1" style="stop-color:#4A2F24"/>
</linearGradient>
<path fill="url(#SVGID_4_)" d="M14.016,38.789c1.271,0.141,1.631,7.486-2.865,9.746c-1.9,0.955-8.133-1.555-7.596-3.613
	c0.436-1.643,5.303,1.123,6.795,0.305C11.973,44.334,12.172,38.592,14.016,38.789z"/>
<linearGradient id="SVGID_5_" gradientUnits="userSpaceOnUse" x1="34.9922" y1="28.9634" x2="34.9922" y2="22.0898">
	<stop  offset="0.2788" style="stop-color:#1A1626;stop-opacity:0"/>
	<stop  offset="1" style="stop-color:#1A1626;stop-opacity:0.8"/>
	<a:midPointStop  offset="0.2788" style="stop-color:#1A1626;stop-opacity:0"/>
	<a:midPointStop  offset="0.6723" style="stop-color:#1A1626;stop-opacity:0"/>
	<a:midPointStop  offset="1" style="stop-color:#1A1626;stop-opacity:0.8"/>
</linearGradient>
<path fill="url(#SVGID_5_)" d="M60.391,26.141c-13.846,2.795-37.912,4.621-50.797,0.004C18.479,21.738,46.273,19.824,60.391,26.141z
	"/>
<path fill="#006DAE" d="M62,25.281C62,28.533,56.576,23,35,23c-21.574,0-27,5.533-27,2.281C8,14.025,62,14.025,62,25.281z"/>
<path fill="#006DAE" d="M51.039,13.488c0.205-3.02-6.539-5.309-5.494-8.465C46.051,3.496,49.15,2.471,47.732,0
	c-2.348,3.305-14.018,0-19.848,5.828C23.223,8.014,13.424,17.65,17.645,21.01c8.875-1.203,26.563-1.686,37.596,0
	C59.371,17.719,52.527,14.012,51.039,13.488z"/>
<path opacity="0.2" fill="#013366" enable-background="new    " d="M47.732,0c1.674,3.121-5.293,3.961-5.676,7.922
	c1.756-2.223,3.76-0.629,3.451-1.678C44.754,3.574,49.426,2.996,47.732,0z"/>
<path opacity="0.2" fill="#013366" enable-background="new    " d="M49.063,10.27c0,0-12.184,0-24.795,5.949
	c8.746-2.145,20.816-3.945,26.771-2.729C51.389,12.121,49.063,10.27,49.063,10.27z"/>
<path opacity="0.2" fill="#013366" enable-background="new    " d="M52.371,16.219c0,0-4.324,0.762-16.33,2.855
	C45.816,14.98,52.371,16.219,52.371,16.219z"/>
</svg>
