<?xml version="1.0" encoding="utf-8"?>
<!-- Generator: Adobe Illustrator 15.0.0, SVG Export Plug-In . SVG Version: 6.00 Build 0)  -->
<!DOCTYPE svg PUBLIC "-//W3C//DTD SVG 1.1//EN" "http://www.w3.org/Graphics/SVG/1.1/DTD/svg11.dtd" [
	<!ENTITY ns_flows "http://ns.adobe.com/Flows/1.0/">
	<!ENTITY ns_extend "http://ns.adobe.com/Extensibility/1.0/">
	<!ENTITY ns_ai "http://ns.adobe.com/AdobeIllustrator/10.0/">
	<!ENTITY ns_graphs "http://ns.adobe.com/Graphs/1.0/">
]>
<svg version="1.1" id="Layer_1" xmlns:x="&ns_extend;" xmlns:i="&ns_ai;" xmlns:graph="&ns_graphs;"
	 xmlns="http://www.w3.org/2000/svg" xmlns:xlink="http://www.w3.org/1999/xlink" xmlns:a="http://ns.adobe.com/AdobeSVGViewerExtensions/3.0/"
	 x="0px" y="0px" width="64px" height="64px" viewBox="0 0 64 64" enable-background="new 0 0 64 64" xml:space="preserve">
<path fill="#FF7A00" d="M14.247,45.066c1.398-3.02,8.441-6.295,8.441-6.295l18.583-0.027c0,0,7.096,3.283,8.494,6.318
	c4.504,9.776-2.797,6.81-2.797,16.938h-29.98C16.988,51.899,9.736,54.81,14.247,45.066z"/>
<path fill="#ED6A00" d="M22.688,38.771c0,7.31,18.583,7.281,18.583-0.027l-1.863-0.619H24.632L22.688,38.771z"/>
<path fill="#4E5E67" d="M24.017,38.33c0,5.722,15.93,5.722,15.93,0c0-1.946,0-6.33,0-6.33h-15.93
	C24.017,32,24.017,36.384,24.017,38.33z"/>
<path fill="#FF7A00" d="M22.688,38.771c-2.98,0.279-6.028,0.751-6.028,0.751c-6.098-1.242-8.786,1.549-12.619,5.258
	c-2.37,2.291,2.847,10.42,5.707,8.858C12.096,52.356,22.688,38.771,22.688,38.771z"/>
<path fill="#D15D00" d="M11.917,50.399c9.381-0.908,10.478-3.078,6.395-8.057C23.937,52.356,11.389,45.623,11.917,50.399z"/>
<path fill="#3E4A52" d="M17.914,49.051C15.21,51.377,6.77,50.005,4.282,46.823c-1.818-2.326,3.948-3.708,3.929-4.296
	c-0.056-1.753,9.927-0.49,9.603,1.019C17.565,44.702,20.682,46.67,17.914,49.051z"/>
<path fill="#6E8189" d="M17.565,44.702c-5.637-4.42-12.715-0.28-13.164,1.009c-1.811,5.213-5.098,7.202-4.27,8.272
	c1.208,1.563,1.619,3.5,2.104,4.621c0.267,0.619,1.516,0.625,1.519-0.535c0.002-0.946-0.196-2.003-0.069-2.089
	c1.824,2.654,1.378,4.231,1.834,4.748c0.531,0.603,2.542,0.669,1.967-2.372c0,0,0.854,1.475,1.117,2.768
	c0.28,1.373,2.443,1.081,2.594-0.522c0.129-1.377-0.865-3.885-0.865-3.885s0.817,1.242,1.576,2.861
	c0.423,0.903,1.602,0.232,1.846-1.251c0.31-1.879-1.446-5.589-1.377-6.072c0.165-1.153,1.198-0.807,2.299-2.142
	c0,0-1.247,2.39-0.083,4.631c0.768,1.479,2.396,1.008,2.203,0.022c-0.582-2.97,1.123-3.105,1.123-4.653
	C17.917,48.697,18.768,45.646,17.565,44.702z"/>
<path fill="#3E4A52" d="M3.637,58.599c0.156-2.22-1.293-4.539-1.164-4.892c0.192-0.527,0.543-1.357,1.082-2.27
	c0.155,0.519-0.734,1.868-0.484,2.706C3.24,54.707,4.489,57.166,3.637,58.599z"/>
<path fill="#3E4A52" d="M7.316,60.507c0.572-2.185-2.025-5.846-1.896-6.198c0.192-0.527,0.825-2.199,1.201-3.909
	c-0.055,2.205-0.517,3.048-0.587,4.003C5.967,55.306,8.489,58.652,7.316,60.507z"/>
<path fill="#3E4A52" d="M10.991,61.256c0.572-2.185-1.454-5.875-1.559-6.237c-0.34-1.171-0.347-3.195,0.03-4.905
	c-0.056,2.206,0.08,3.652,0.501,4.938C10.243,55.904,12.163,59.402,10.991,61.256z"/>
<path fill="#FF7A00" d="M41.313,38.771c2.98,0.279,6.027,0.751,6.027,0.751c6.098-1.242,8.785,1.549,12.619,5.258
	c2.369,2.291-2.848,10.42-5.707,8.858C51.904,52.356,41.313,38.771,41.313,38.771z"/>
<path fill="#D15D00" d="M52.082,50.399c-9.381-0.908-10.477-3.078-6.395-8.057C40.063,52.356,52.611,45.623,52.082,50.399z"/>
<path fill="#3E4A52" d="M46.086,49.051c2.705,2.326,11.145,0.954,13.633-2.228c1.816-2.326-3.949-3.708-3.93-4.296
	c0.057-1.753-9.926-0.49-9.602,1.019C46.436,44.702,43.318,46.67,46.086,49.051z"/>
<path fill="#6E8189" d="M46.436,44.702c5.637-4.42,12.715-0.28,13.164,1.009c1.811,5.213,5.098,7.202,4.27,8.272
	c-1.209,1.563-1.619,3.5-2.104,4.621c-0.268,0.619-1.516,0.625-1.52-0.535c-0.002-0.946,0.197-2.003,0.07-2.089
	c-1.824,2.654-1.379,4.231-1.834,4.748c-0.531,0.603-2.541,0.669-1.967-2.372c0,0-0.854,1.475-1.117,2.768
	c-0.279,1.373-2.443,1.081-2.594-0.522c-0.129-1.377,0.865-3.885,0.865-3.885s-0.818,1.242-1.576,2.861
	c-0.424,0.903-1.602,0.232-1.846-1.251c-0.311-1.879,1.445-5.589,1.377-6.072c-0.166-1.153-1.199-0.807-2.299-2.142
	c0,0,1.246,2.39,0.082,4.631c-0.768,1.479-2.396,1.008-2.203,0.022c0.582-2.97-1.123-3.105-1.123-4.653
	C46.082,48.697,45.232,45.646,46.436,44.702z"/>
<path fill="#3E4A52" d="M60.363,58.599c-0.156-2.22,1.293-4.539,1.164-4.892c-0.191-0.527-0.543-1.357-1.082-2.27
	c-0.154,0.519,0.734,1.868,0.484,2.706C60.76,54.707,59.512,57.166,60.363,58.599z"/>
<path fill="#3E4A52" d="M56.684,60.507c-0.572-2.185,2.025-5.846,1.896-6.198c-0.191-0.527-0.824-2.199-1.201-3.909
	c0.055,2.205,0.518,3.048,0.588,4.003C58.033,55.306,55.512,58.652,56.684,60.507z"/>
<path fill="#3E4A52" d="M53.01,61.256c-0.572-2.185,1.453-5.875,1.559-6.237c0.34-1.171,0.348-3.195-0.029-4.905
	c0.055,2.206-0.08,3.652-0.502,4.938C53.758,55.904,51.838,59.402,53.01,61.256z"/>
<path fill="#FF7A00" d="M11.052,39.948c1.144-0.102,2.807,0.066,3.29-0.475c-0.276-0.828,0.214-1.343,0.214-1.343
	S11,38.394,11.052,39.948z"/>
<path fill="#FF7A00" d="M11.353,40.056c-1.038,0.449-2.371,1.373-3.09,1.137c-0.229-0.84-0.939-1.051-0.939-1.051
	S10.521,38.696,11.353,40.056z"/>
<path fill="#ED6A00" d="M12.463,39.716c-1.038,0.449-1.53,0.835-2.249,0.598c-0.229-0.84-0.001-1.848-0.001-1.848
	S11.632,38.356,12.463,39.716z"/>
<path fill="#4E5E67" d="M14.635,39.474c-1.306,0.199-1.684,1.768-4.846,2.397c-1.178,0.165-1.633-0.685-1.633-0.685
	S11.353,38.954,14.635,39.474z"/>
<path fill="#6E8189" d="M14.852,39.474c-1.306,0.199-1.536,1.117-3.127,1.771c-0.474-0.725-2.116-0.602-2.116-0.602
	S11.569,38.954,14.852,39.474z"/>
<path fill="#ED6A00" d="M12.254,41.687c-1.037,0.449-3.141,1.135-4.038,0.587c-0.229-0.839-1.442-1.134-1.442-1.134
	S11.423,40.327,12.254,41.687z"/>
<path fill="#ED6A00" d="M41.404,53.894c-0.951,1.071-0.592,3.159,0.068,3.473c0.949-0.861,3.199-0.183,3.199-0.183
	S43.125,53.605,41.404,53.894z"/>
<path fill="#ED6A00" d="M40.502,54.411c-0.623-1.133-2.467-2.088-2.287-3.229c2.223-0.205,2.215-2.568,2.215-2.568
	S42.727,51.683,40.502,54.411z"/>
<path fill="#D15D00" d="M39.053,52.185c-0.361,0.64-2.527,0.564-3.301-0.855c0.227-1.216-0.299-2.864-0.299-2.864
	S38.088,48.456,39.053,52.185z"/>
<path fill="#ED6A00" d="M37.391,56.184c-1-1.397-2.961-0.222-4.232-2.058c1.088-0.762,2.594-2.797,2.594-2.797
	S38.328,54.137,37.391,56.184z"/>
<path fill="#D15D00" d="M41.473,57.366c-1.516-0.121-1.896,1.404-3.582,2.071c0.326-1.478-0.5-3.254-0.5-3.254
	S41.479,53.757,41.473,57.366z"/>
<path fill="#D15D00" d="M39.969,52.911c0.248,1.504,0.684,2.225,1.344,2.538c0.891-0.915,3.016-1.93,3.016-1.93
	S41.697,51.833,39.969,52.911z"/>
<path fill="#4E5E67" d="M41.369,56.505c-1.992-1.354-3.887-0.427-3.887-0.427s0.154-1.732-1.504-4.503
	c1.287,0.553,3.074,0.609,3.074,0.609S41.74,53.38,41.369,56.505z"/>
<path fill="#6E8189" d="M41.369,56.505c-1.992-1.354-3.979-0.321-3.979-0.321s-0.117-1.897-1.113-4.083
	C38.313,53.715,40.297,52.184,41.369,56.505z"/>
<path fill="#ED6A00" d="M26.084,54.142c-2.067,2.169-1.939,3.598,0.06,3.768C28.144,58.077,27.47,52.688,26.084,54.142z"/>
<path fill="#ED6A00" d="M27.121,56.431c-1.301,0.467-1.337,2.482,0.042,2.6C28.542,59.146,29.714,55.5,27.121,56.431z"/>
<path fill="#ED6A00" d="M21.691,55.421c-0.737-0.598-0.917,1.699,0.029,1.78C22.665,57.28,24.119,57.387,21.691,55.421z"/>
<path fill="#D15D00" d="M24.07,58.187c-0.995,0.607-0.626,1.16,0.019,1.215S24.624,57.85,24.07,58.187z"/>
<path fill="#D15D00" d="M19.719,52.101c0.793-0.078,3.097-1.151,0.725-2.951C19.809,48.668,18.924,52.179,19.719,52.101z"/>
<path fill="#ED6A00" d="M40.078,46.82c0.639-0.304,1.703-0.874-0.264-1.302C39.123,45.368,37.25,48.168,40.078,46.82z"/>
<path fill="#4E5E67" d="M51.795,45.511c0.703-0.07,3.572-0.269,2.938-0.583C52.639,43.892,51.09,45.58,51.795,45.511z"/>
<path fill="#4E5E67" d="M53.512,46.608c-0.842,0.547,3.129,1.662,3.563,0.754C57.244,47.007,55.355,45.409,53.512,46.608z"/>
<path fill="#ED6A00" d="M28.156,48.168c1.061-0.001-0.541-1.999-3.218-1.999C23.875,46.169,24.615,48.172,28.156,48.168z"/>
<path fill="#4E5E67" d="M9.993,46.202c-0.498,1.32,2.983,1.379,3.482,0.059C13.973,44.939,10.491,44.882,9.993,46.202z"/>
<path fill="#4E5E67" d="M10.584,48.501c-0.236,0.625,1.41,0.65,1.646,0.027C12.465,47.903,10.819,47.876,10.584,48.501z"/>
<path fill="#4E5E67" d="M13.375,47.643c-0.162,0.426,0.962,0.444,1.123,0.019C14.659,47.234,13.536,47.216,13.375,47.643z"/>
<path fill="#302C3B" d="M22.208,9.94l0.021-3.873c-4.529,0.14-9.621,5.162-8.964,13.443C14.859,12.862,22.208,9.94,22.208,9.94z"/>
<path fill="#302C3B" d="M41.104,4.023l-0.627,5.604c0,0,7.65,3.947,10.186,12.633C51.354,11.991,45.828,6.067,41.104,4.023z"/>
<path fill="#302C3B" d="M17.719,11.913c-3.309,2.293-5.329,9.989-3.672,16.054c0.69-4.914,4.003-6.768,4.003-6.768L17.719,11.913z"
	/>
<path fill="#302C3B" d="M45.781,31.806c0.98,0.648,2.113,1.133,3.438,1.381c-2.348-5.353,1.191-16.578-6.063-24.827
	C32.927,8.666,31.513,41.741,45.77,37.344c-0.908-0.394-1.477-1.196-1.811-2.21c1.1,0.315,2.383,0.326,3.879-0.134
	C46.648,34.484,46.041,33.271,45.781,31.806z"/>
<path fill="#302C3B" d="M20.109,8.359c-7.255,8.249-3.025,19.475-5.373,24.827c1.322-0.248,2.456-0.732,3.438-1.381
	c-0.262,1.465-0.869,2.679-2.058,3.194c1.495,0.46,2.779,0.449,3.877,0.134c-0.333,1.014-0.901,1.816-1.809,2.21
	C32.439,41.741,30.337,8.666,20.109,8.359z"/>
<path id="Path_714_" fill="#6E8189" d="M46.896,19.63c-2.309,0.28-3.977,8.014-2.525,10.054c0.203,0.286,1.395,0.74,2.277-1.061
	c0.488-0.997,1.898-1.83,2.336-3.888C49.543,22.1,49.195,19.351,46.896,19.63z"/>
<path id="Path_713_" fill="#6E8189" d="M17.059,19.63c2.31,0.28,3.977,8.014,2.524,10.054c-0.203,0.286-1.394,0.74-2.276-1.061
	c-0.489-0.997-1.898-1.83-2.335-3.888C14.411,22.1,14.76,19.351,17.059,19.63z"/>
<path id="Path_712_" fill="#4E5E67" d="M46.834,21.112c-0.602,0.189-1.26,1.108-1.617,2.633c2.107-0.452,1.58,3.057-0.25,3.122
	c0.016,0.353,0.041,0.717,0.084,1.1c0.883-1.283,1.777-0.768,2.666-2.673C48.516,23.574,48.326,20.644,46.834,21.112z"/>
<path id="Path_711_" fill="#4E5E67" d="M18.737,23.741c-0.357-1.521-1.013-2.44-1.615-2.629c-1.492-0.469-1.684,2.462-0.883,4.182
	c0.887,1.905,1.783,1.39,2.667,2.673c0.043-0.385,0.067-0.748,0.083-1.102C17.176,26.78,16.657,23.313,18.737,23.741z"/>
<path fill="#6E8189" d="M31.977,4.759c-10.008,0-14.828,8.15-14.226,18.629c0.124,2.107,0.71,5.146,1.433,7.75
	C20.685,36.55,28.605,42,31.977,42c3.373,0,11.291-5.45,12.792-10.862c0.725-2.604,1.311-5.643,1.434-7.75
	C46.805,12.909,41.986,4.759,31.977,4.759z"/>
<path fill="#E81C27" d="M31.888,14.923C31.984,14.923,31.984,14.923,31.888,14.923C31.984,14.923,31.984,14.923,31.888,14.923z"/>
<path fill="#302C3B" d="M43.961,17.632c-2.436-1.207-7.092-1.268-8.826-0.426c-0.371,0.164-0.127,1.311,0.186,1.199
	c2.42-0.895,6.318-0.916,8.582,0.078C44.203,18.61,44.33,17.802,43.961,17.632z"/>
<path fill="#302C3B" d="M19.994,17.632c2.434-1.207,7.089-1.268,8.826-0.426c0.371,0.164,0.127,1.311-0.186,1.199
	c-2.421-0.895-6.318-0.916-8.583,0.078C19.75,18.61,19.625,17.802,19.994,17.632z"/>
<path fill="#1A1626" d="M36.385,36.44c0,1.559-1.973,2.131-4.407,2.131c-2.434,0-4.404-0.572-4.404-2.131
	C27.574,30.462,36.385,30.462,36.385,36.44z"/>
<path fill="#4E5E67" d="M37.664,19.388c-5.213,1.604-2.051,8.943,3.162,7.34S42.877,17.786,37.664,19.388z"/>
<path fill="#4E5E67" d="M26.293,19.388c-5.215-1.602-8.377,5.736-3.166,7.34C28.341,28.331,31.503,20.991,26.293,19.388z"/>
<path fill="#4E5E67" d="M24.148,29.938c-1.073-0.09-1.041,1.931,0.032,2.022C25.254,32.051,25.222,30.029,24.148,29.938z"/>
<path fill="#4E5E67" d="M22.313,30.625c-0.507-0.043-0.492,0.912,0.016,0.955C22.836,31.623,22.821,30.667,22.313,30.625z"/>
<path fill="#4E5E67" d="M23.067,32.109c-0.347-0.029-0.336,0.623,0.01,0.652S23.414,32.139,23.067,32.109z"/>
<path fill="#4E5E67" d="M38.377,35.725c0.695,0.822,2.102-0.63,1.406-1.453C39.088,33.449,37.682,34.9,38.377,35.725z"/>
<path fill="#4E5E67" d="M40.16,36.537c0.328,0.389,0.992-0.297,0.664-0.688C40.496,35.461,39.83,36.148,40.16,36.537z"/>
<path fill="#4E5E67" d="M40.676,34.953c0.225,0.267,0.68-0.202,0.455-0.468C40.906,34.219,40.451,34.688,40.676,34.953z"/>
<path id="Path_698_" fill="#4E5E67" d="M34.951,28.669c-0.314-0.219-1.053,0.119-2.977,0.119c-1.92,0-2.66-0.338-2.975-0.119
	c-0.377,0.266,0.223,1.461,2.975,1.461C34.729,30.13,35.33,28.935,34.951,28.669z"/>
<path fill="#F46C60" d="M35.668,37.321c0,1.559-1.654,2.131-3.692,2.131c-2.037,0-3.689-0.572-3.689-2.131
	C28.287,34.868,35.668,34.868,35.668,37.321z"/>
<path fill="#E03636" d="M31.978,37.69l0.586-2.186c-0.389-0.027-0.783-0.027-1.17,0L31.978,37.69z"/>
<path fill="#FCC7C3" d="M21.326,22.511c0-3,6.972-3,6.972,0C28.298,26.512,21.326,26.512,21.326,22.511z"/>
<path fill="#FC5A4E" d="M24.881,24.893c-0.038,0.145-0.381,0.395-0.396,0.299c-0.029-0.17-0.167-0.513,0.153-0.68
	c-0.437,0.183-0.197,0.723-0.188,0.771c0.005,0.032-0.002,0.142-0.008,0.214c0.021,0.001,0.041,0.003,0.062,0.004L24.5,25.262
	C24.5,25.262,24.839,25.178,24.881,24.893z"/>
<path fill="#FC5A4E" d="M25.656,25.326c0.094-0.03,0.1-0.605-0.368-0.74c0.343,0.125,0.364,0.537,0.332,0.671
	c-0.018,0.075-0.384-0.112-0.423-0.226c0.042,0.223,0.405,0.281,0.405,0.281l-0.004,0.129c0.016-0.002,0.031-0.005,0.046-0.008
	C25.637,25.384,25.635,25.334,25.656,25.326z"/>
<path fill="#FC5A4E" d="M26.458,24.564c0.035,0.145-0.149,0.527-0.208,0.45c-0.106-0.136-0.39-0.372-0.186-0.672
	c-0.298,0.368,0.167,0.731,0.199,0.769c0.014,0.02,0.042,0.076,0.066,0.131c0.018-0.006,0.035-0.013,0.053-0.02l-0.084-0.153
	C26.297,25.069,26.556,24.835,26.458,24.564z"/>
<path fill="#FC5A4E" d="M27.207,24.543c0.066-0.071-0.211-0.59-0.686-0.495c0.361-0.046,0.582,0.313,0.619,0.448
	c0.021,0.075-0.392,0.075-0.481-0.008c0.146,0.18,0.493,0.066,0.493,0.066l0.092,0.18c0.016-0.014,0.031-0.025,0.047-0.039
	C27.249,24.647,27.183,24.566,27.207,24.543z"/>
<path fill="#FC5A4E" d="M27.469,23.377c0.132,0.123,0.2,0.63,0.09,0.592c-0.196-0.066-0.64-0.116-0.633-0.553
	c-0.056,0.568,0.653,0.625,0.71,0.642c0.028,0.01,0.1,0.054,0.164,0.095c0.013-0.02,0.027-0.037,0.039-0.057l-0.196-0.104
	C27.643,23.992,27.748,23.584,27.469,23.377z"/>
<path fill="#FC5A4E" d="M28.076,22.866c0.022-0.123-0.561-0.462-0.967-0.019c0.324-0.311,0.757-0.096,0.875,0.018
	c0.065,0.064-0.336,0.363-0.474,0.342c0.251,0.082,0.52-0.289,0.52-0.289l0.224,0.137c0.004-0.029,0.008-0.059,0.012-0.087
	C28.198,22.95,28.068,22.91,28.076,22.866z"/>
<path fill="#FC5A4E" d="M27.581,21.902c0.163,0.043,0.44,0.43,0.334,0.446c-0.191,0.032-0.576,0.186-0.763-0.175
	c0.203,0.49,0.811,0.225,0.865,0.214c0.043-0.007,0.205,0.007,0.277,0.015c-0.001-0.025-0.003-0.05-0.006-0.074l-0.295,0.003
	C27.994,22.331,27.9,21.95,27.581,21.902z"/>
<path fill="#FC5A4E" d="M24.127,24.945c-0.039,0.112-0.396,0.302-0.413,0.229c-0.029-0.133-0.004-0.541,0.329-0.668
	c-0.454,0.139-0.455,0.708-0.365,0.738c0.023,0.008,0.018,0.068,0.007,0.123c0.016,0.004,0.032,0.008,0.048,0.012l-0.002-0.15
	C23.731,25.229,24.083,25.166,24.127,24.945z"/>
<path fill="#FC5A4E" d="M23.35,23.975c0.263,0.385-0.099,0.685-0.233,0.858c-0.075,0.098-0.313-0.392-0.27-0.578
	c-0.124,0.346,0.209,0.647,0.209,0.647l-0.104,0.191c0.021,0.01,0.043,0.021,0.065,0.031c0.031-0.071,0.065-0.145,0.084-0.168
	C23.141,24.908,23.734,24.447,23.35,23.975z"/>
<path fill="#FC5A4E" d="M22.699,24.159c-0.098,0.091-0.493,0.15-0.462,0.077c0.056-0.133,0.318-0.502,0.658-0.512
	c-0.441-0.02-0.781,0.508-0.727,0.564c0.018,0.02-0.055,0.104-0.103,0.155c0.012,0.013,0.024,0.024,0.036,0.036l0.118-0.188
	C22.217,24.292,22.533,24.35,22.699,24.159z"/>
<path fill="#FC5A4E" d="M22.843,22.955c0.034,0.486-0.559,0.516-0.821,0.58c-0.146,0.035-0.084-0.525,0.087-0.655
	c-0.363,0.216-0.198,0.676-0.198,0.676l-0.347,0.138c0.013,0.029,0.026,0.057,0.04,0.084c0.091-0.047,0.265-0.135,0.32-0.148
	C21.999,23.613,22.952,23.592,22.843,22.955z"/>
<path fill="#FC5A4E" d="M22.207,22.604c-0.179,0.072-0.624-0.179-0.528-0.28c0.174-0.183,0.768-0.595,1.113-0.306
	c-0.42-0.432-1.232,0.188-1.23,0.336c0,0.049-0.142,0.129-0.235,0.178c0,0.031,0.001,0.063,0.002,0.094l0.28-0.221
	C21.609,22.404,21.871,22.789,22.207,22.604z"/>
<linearGradient id="SVGID_1_" gradientUnits="userSpaceOnUse" x1="25.0132" y1="24.5107" x2="25.0132" y2="20.5117">
	<stop  offset="0" style="stop-color:#A6694A"/>
	<stop  offset="1" style="stop-color:#4F2A1E"/>
	<a:midPointStop  offset="0" style="stop-color:#A6694A"/>
	<a:midPointStop  offset="0.5" style="stop-color:#A6694A"/>
	<a:midPointStop  offset="1" style="stop-color:#4F2A1E"/>
</linearGradient>
<path fill="url(#SVGID_1_)" d="M23.014,22.437c0,2.766,4,2.766,4,0C27.013,19.87,23.014,19.87,23.014,22.437z"/>
<path fill="#1A1626" d="M24.182,22.479c0,1.148,1.662,1.148,1.662,0C25.844,21.415,24.182,21.415,24.182,22.479z"/>
<path fill="#3E4A52" d="M28.298,22.515c0,0,0-0.002,0-0.004c0-4-6.972-4-6.972,0c0,0.002,0,0.004,0,0.004
	C22.727,21.459,27.047,21.57,28.298,22.515z"/>
<path fill="#FCC7C3" d="M42.629,22.511c0-3-6.973-3-6.973,0C35.656,26.512,42.629,26.512,42.629,22.511z"/>
<path fill="#FC5A4E" d="M39.074,24.893c0.037,0.145,0.381,0.395,0.396,0.299c0.029-0.17,0.168-0.513-0.152-0.68
	c0.436,0.183,0.197,0.723,0.188,0.771c-0.006,0.032,0.002,0.142,0.008,0.214c-0.021,0.001-0.041,0.003-0.063,0.004l0.004-0.238
	C39.455,25.262,39.115,25.178,39.074,24.893z"/>
<path fill="#FC5A4E" d="M38.299,25.326c-0.094-0.03-0.1-0.605,0.367-0.74c-0.342,0.125-0.363,0.537-0.33,0.671
	c0.018,0.075,0.383-0.112,0.422-0.226c-0.041,0.223-0.404,0.281-0.404,0.281l0.004,0.129c-0.016-0.002-0.031-0.005-0.047-0.008
	C38.318,25.384,38.32,25.334,38.299,25.326z"/>
<path fill="#FC5A4E" d="M37.498,24.564c-0.035,0.145,0.148,0.527,0.207,0.45c0.105-0.136,0.391-0.372,0.186-0.672
	c0.299,0.368-0.166,0.731-0.197,0.769c-0.016,0.02-0.043,0.076-0.066,0.131c-0.018-0.006-0.035-0.013-0.053-0.02l0.084-0.153
	C37.658,25.069,37.398,24.835,37.498,24.564z"/>
<path fill="#FC5A4E" d="M36.748,24.543c-0.066-0.071,0.211-0.59,0.686-0.495c-0.361-0.046-0.58,0.313-0.619,0.448
	c-0.02,0.075,0.393,0.075,0.482-0.008c-0.146,0.18-0.494,0.066-0.494,0.066l-0.09,0.18c-0.018-0.014-0.033-0.025-0.049-0.039
	C36.707,24.647,36.771,24.566,36.748,24.543z"/>
<path fill="#FC5A4E" d="M36.486,23.377c-0.133,0.123-0.199,0.63-0.09,0.592c0.197-0.066,0.639-0.116,0.633-0.553
	c0.057,0.568-0.654,0.625-0.709,0.642c-0.029,0.01-0.1,0.054-0.164,0.095c-0.014-0.02-0.027-0.037-0.041-0.057l0.197-0.104
	C36.313,23.992,36.207,23.584,36.486,23.377z"/>
<path fill="#FC5A4E" d="M35.879,22.866c-0.021-0.123,0.561-0.462,0.967-0.019c-0.324-0.311-0.756-0.096-0.875,0.018
	c-0.064,0.064,0.338,0.363,0.475,0.342c-0.25,0.082-0.52-0.289-0.52-0.289l-0.223,0.137c-0.006-0.029-0.01-0.059-0.014-0.087
	C35.758,22.95,35.887,22.91,35.879,22.866z"/>
<path fill="#FC5A4E" d="M36.375,21.902c-0.162,0.043-0.441,0.43-0.334,0.446c0.191,0.032,0.576,0.186,0.762-0.175
	c-0.203,0.49-0.811,0.225-0.863,0.214c-0.045-0.007-0.207,0.007-0.279,0.015c0.002-0.025,0.004-0.05,0.006-0.074l0.295,0.003
	C35.961,22.331,36.055,21.95,36.375,21.902z"/>
<path fill="#FC5A4E" d="M39.828,24.945c0.039,0.112,0.396,0.302,0.412,0.229c0.029-0.133,0.006-0.541-0.328-0.668
	c0.453,0.139,0.455,0.708,0.365,0.738c-0.023,0.008-0.018,0.068-0.008,0.123c-0.016,0.004-0.031,0.008-0.049,0.012l0.004-0.15
	C40.225,25.229,39.871,25.166,39.828,24.945z"/>
<path fill="#FC5A4E" d="M40.605,23.975c-0.264,0.385,0.098,0.685,0.232,0.858c0.074,0.098,0.314-0.392,0.27-0.578
	c0.123,0.346-0.209,0.647-0.209,0.647l0.105,0.191c-0.021,0.01-0.045,0.021-0.066,0.031c-0.031-0.071-0.064-0.145-0.084-0.168
	C40.814,24.908,40.221,24.447,40.605,23.975z"/>
<path fill="#FC5A4E" d="M41.256,24.159c0.098,0.091,0.494,0.15,0.463,0.077c-0.055-0.133-0.318-0.502-0.658-0.512
	c0.441-0.02,0.781,0.508,0.729,0.564c-0.02,0.02,0.055,0.104,0.102,0.155c-0.012,0.013-0.023,0.024-0.035,0.036l-0.117-0.188
	C41.738,24.292,41.422,24.35,41.256,24.159z"/>
<path fill="#FC5A4E" d="M41.111,22.955c-0.033,0.486,0.561,0.516,0.822,0.58c0.145,0.035,0.084-0.525-0.088-0.655
	c0.363,0.216,0.199,0.676,0.199,0.676l0.346,0.138c-0.012,0.029-0.025,0.057-0.039,0.084c-0.092-0.047-0.266-0.135-0.32-0.148
	C41.957,23.613,41.004,23.592,41.111,22.955z"/>
<path fill="#FC5A4E" d="M41.748,22.604c0.18,0.072,0.625-0.179,0.529-0.28c-0.176-0.183-0.77-0.595-1.113-0.306
	c0.42-0.432,1.23,0.188,1.229,0.336c0,0.049,0.143,0.129,0.236,0.178c0,0.031-0.002,0.063-0.002,0.094l-0.281-0.221
	C42.346,22.404,42.084,22.789,41.748,22.604z"/>
<linearGradient id="SVGID_2_" gradientUnits="userSpaceOnUse" x1="-1825.916" y1="24.5107" x2="-1825.916" y2="20.5117" gradientTransform="matrix(-1 0 0 1 -1786.9746 0)">
	<stop  offset="0" style="stop-color:#A6694A"/>
	<stop  offset="1" style="stop-color:#4F2A1E"/>
	<a:midPointStop  offset="0" style="stop-color:#A6694A"/>
	<a:midPointStop  offset="0.5" style="stop-color:#A6694A"/>
	<a:midPointStop  offset="1" style="stop-color:#4F2A1E"/>
</linearGradient>
<path fill="url(#SVGID_2_)" d="M40.941,22.437c0,2.766-4,2.766-4,0C36.941,19.87,40.941,19.87,40.941,22.437z"/>
<path fill="#1A1626" d="M39.773,22.479c0,1.148-1.662,1.148-1.662,0C38.111,21.415,39.773,21.415,39.773,22.479z"/>
<path fill="#3E4A52" d="M35.656,22.515c0,0,0-0.002,0-0.004c0-4,6.973-4,6.973,0c0,0.002,0,0.004,0,0.004
	C41.279,21.012,37.611,20.15,35.656,22.515z"/>
<path fill="#302C3B" d="M31.978,2c-6.089,0-9.132,2.759-9.749,4.067C14.867,7.75,12.5,20.171,18.011,25.472
	c0.684-5.647,1.342-9.274,5.097-13.095c2.188,2.932,6.735,4.582,10.808,4.582c-1.928-1.4-3.243-2.772-4.274-4.053
	c6.799,3.121,14.413,5.119,16.303,12.565C52.488,15.054,47.053,2,31.978,2z"/>
<path fill="#1A1626" d="M22.211,6.066c-0.094,5.2,2.007,9.091,11.708,10.894C26.964,17.429,19.829,13.226,22.211,6.066z"/>
<path fill="#1A1626" d="M22.82,12.044c-2.533,2.496-5.375,6.823-4.836,13.427c0.504-5.459,3.012-9.954,5.283-12.867
	C23.107,12.43,22.957,12.243,22.82,12.044z"/>
<path fill="#1A1626" d="M27.163,10.396c5.088,4.856,17.589,4.542,18.81,15.076C42.711,15.225,31.657,17.524,27.163,10.396z"/>
</svg>
