<?xml version="1.0" encoding="utf-8"?>
<!-- Generator: Adobe Illustrator 15.0.0, SVG Export Plug-In . SVG Version: 6.00 Build 0)  -->
<!DOCTYPE svg PUBLIC "-//W3C//DTD SVG 1.1//EN" "http://www.w3.org/Graphics/SVG/1.1/DTD/svg11.dtd" [
	<!ENTITY ns_flows "http://ns.adobe.com/Flows/1.0/">
	<!ENTITY ns_extend "http://ns.adobe.com/Extensibility/1.0/">
	<!ENTITY ns_ai "http://ns.adobe.com/AdobeIllustrator/10.0/">
	<!ENTITY ns_graphs "http://ns.adobe.com/Graphs/1.0/">
]>
<svg version="1.1" id="Layer_1" xmlns:x="&ns_extend;" xmlns:i="&ns_ai;" xmlns:graph="&ns_graphs;"
	 xmlns="http://www.w3.org/2000/svg" xmlns:xlink="http://www.w3.org/1999/xlink" xmlns:a="http://ns.adobe.com/AdobeSVGViewerExtensions/3.0/"
	 x="0px" y="0px" width="64px" height="64px" viewBox="0 0 64 64" enable-background="new 0 0 64 64" xml:space="preserve">
<path id="Path_70_" fill="#FFCC66" d="M53.635,28.563c-3.35,0.406-5.768,11.621-3.662,14.58c0.295,0.414,2.021,1.074,3.301-1.539
	c0.709-1.445,2.754-2.652,3.387-5.635C57.473,32.145,56.967,28.16,53.635,28.563z"/>
<path id="Path_69_" fill="#FFCC66" d="M10.367,28.563c3.35,0.406,5.768,11.621,3.66,14.58c-0.295,0.414-2.021,1.074-3.301-1.539
	c-0.709-1.445-2.754-2.652-3.387-5.635C6.527,32.145,7.035,28.158,10.367,28.563z"/>
<path id="Path_68_" fill="#DB9D3A" d="M53.543,30.715c-0.873,0.273-1.826,1.605-2.344,3.818c3.055-0.656,2.291,4.432-0.363,4.525
	c0.023,0.512,0.059,1.039,0.121,1.592c1.279-1.855,2.578-1.109,3.865-3.875C55.982,34.285,55.707,30.035,53.543,30.715z"/>
<path id="Path_51_" fill="#DB9D3A" d="M12.801,34.525c-0.518-2.207-1.469-3.539-2.342-3.811c-2.164-0.682-2.441,3.57-1.281,6.061
	c1.287,2.766,2.586,2.02,3.867,3.875c0.063-0.555,0.098-1.082,0.119-1.594C10.537,38.932,9.785,33.906,12.801,34.525z"/>
<path id="Path_50_" fill="#FFCC66" d="M32,7C17.49,7,10.498,18.006,11.373,33.309c0.889,15.528,6.628,24.314,16.639,27.269
	c1.913,0.563,6.063,0.563,7.977,0c9.995-2.948,15.766-11.741,16.639-27.269C53.504,18.006,46.514,7,32,7z"/>
<path id="Path_49_" fill="#97A5AA" d="M47.691,28.464c-3.303-1.438-9.625-1.506-11.979-0.506c-0.506,0.195-0.172,1.853,0.252,1.723
	c3.281-1.065,8.576-1.091,11.646,0.091C48.021,29.925,48.193,28.664,47.691,28.464z"/>
<path id="Path_48_" fill="#97A5AA" d="M16.307,28.464c3.305-1.438,9.621-1.506,11.98-0.506c0.502,0.195,0.17,1.853-0.254,1.723
	c-3.287-1.065-8.572-1.091-11.648,0.091C15.977,29.925,15.809,28.664,16.307,28.464z"/>
<path fill="#DB9D3A" d="M35.262,43.84c-0.346-0.242-1.156,0.131-3.264,0.131c-2.105,0-2.916-0.373-3.262-0.131
	c-0.414,0.291,0.244,1.607,3.262,1.607S35.678,44.133,35.262,43.84z"/>
<path fill="#E6B045" d="M35.45,35.495c1.369,3.934,7.803,5.934,7.803,5.934S36.497,37.624,35.45,35.495z"/>
<path fill="#E6B045" d="M20.749,41.429c0,0,6.414-1.959,7.803-5.934C27.505,37.624,20.749,41.429,20.749,41.429z"/>
<path id="Path_67_" fill="#FFFFFF" d="M28.753,34.159c0.207,0.947-0.344,2.137-2.066,3.145c-1.096,0.641-3.416,1.484-6.654,0.441
	c-1.449-0.469-2.975-2.188-2.941-3.213C18.505,31.194,26.794,29.997,28.753,34.159z"/>
<linearGradient id="Oval_1_" gradientUnits="userSpaceOnUse" x1="-424.9067" y1="476.498" x2="-424.9067" y2="477.498" gradientTransform="matrix(6.5701 0 0 -6.5701 2814.7805 3168.5281)">
	<stop  offset="0" style="stop-color:#A6694A"/>
	<stop  offset="1" style="stop-color:#4F2A1E"/>
	<a:midPointStop  offset="0" style="stop-color:#A6694A"/>
	<a:midPointStop  offset="0.5" style="stop-color:#A6694A"/>
	<a:midPointStop  offset="1" style="stop-color:#4F2A1E"/>
</linearGradient>
<circle id="Oval_10_" fill="url(#Oval_1_)" cx="23.099" cy="34.601" r="3.285"/>
<path id="Path_66_" fill="#1A1626" d="M21.458,34.54c0,2.273,3.285,2.273,3.285,0C24.743,32.431,21.458,32.431,21.458,34.54z"/>
<path id="Path_65_" fill="#AB968C" d="M20.958,33.622c0,0.951,1.377,0.951,1.377,0C22.335,32.737,20.958,32.737,20.958,33.622z"/>
<path id="Path_64_" fill="#DB9D3A" d="M28.78,34.284c-1.703-4.156-10.707-2.732-11.689,0.248
	C17.228,30.815,27.175,28.966,28.78,34.284z"/>
<path id="Path_63_" fill="#FFFFFF" d="M35.247,34.159c-0.207,0.947,0.344,2.137,2.068,3.145c1.094,0.641,3.414,1.484,6.652,0.441
	c1.453-0.467,2.975-2.188,2.941-3.213C45.497,31.194,37.208,29.997,35.247,34.159z"/>
<linearGradient id="Oval_2_" gradientUnits="userSpaceOnUse" x1="-424.9072" y1="476.498" x2="-424.9072" y2="477.498" gradientTransform="matrix(6.5701 0 0 -6.5701 2832.511 3168.5281)">
	<stop  offset="0" style="stop-color:#A6694A"/>
	<stop  offset="1" style="stop-color:#4F2A1E"/>
	<a:midPointStop  offset="0" style="stop-color:#A6694A"/>
	<a:midPointStop  offset="0.5" style="stop-color:#A6694A"/>
	<a:midPointStop  offset="1" style="stop-color:#4F2A1E"/>
</linearGradient>
<circle id="Oval_9_" fill="url(#Oval_2_)" cx="40.829" cy="34.601" r="3.285"/>
<path id="Path_62_" fill="#1A1626" d="M39.188,34.54c0,2.273,3.285,2.273,3.285,0C42.474,32.431,39.188,32.431,39.188,34.54z"/>
<path id="Path_61_" fill="#AB968C" d="M38.688,33.622c0,0.951,1.377,0.951,1.377,0C40.065,32.737,38.688,32.737,38.688,33.622z"/>
<path id="Path_60_" fill="#DB9D3A" d="M35.222,34.284c1.701-4.154,10.701-2.75,11.688,0.248
	C46.772,30.815,36.827,28.966,35.222,34.284z"/>
<path fill="#DB9D3A" d="M23.203,49.425c3.281,3.059,14.27,3.096,17.594,0C32.762,51.214,31.346,51.238,23.203,49.425z"/>
<path fill="#E6B045" d="M27.053,44.368c-2.695,2.891-5.588,4.697-4.479,8.791C22.693,49.272,25.156,48.54,27.053,44.368z"/>
<path fill="#E6B045" d="M41.426,53.157c1.102-4.049-1.758-5.871-4.479-8.787C38.842,48.546,41.303,49.272,41.426,53.157z"/>
<linearGradient id="SVGID_1_" gradientUnits="userSpaceOnUse" x1="31.7852" y1="37.0332" x2="31.7852" y2="3.0005">
	<stop  offset="0" style="stop-color:#828F94"/>
	<stop  offset="0.3462" style="stop-color:#99A6AB"/>
	<stop  offset="0.737" style="stop-color:#ACBBBF"/>
	<stop  offset="1" style="stop-color:#B3C2C6"/>
	<a:midPointStop  offset="0" style="stop-color:#828F94"/>
	<a:midPointStop  offset="0.3793" style="stop-color:#828F94"/>
	<a:midPointStop  offset="1" style="stop-color:#B3C2C6"/>
</linearGradient>
<path fill="url(#SVGID_1_)" d="M32.002,3c-8.83,0-13.242,4-14.137,5.896c-10.676,2.44-14.108,20.451-6.117,28.137
	c0.992-8.188,1.947-13.447,7.391-18.988c3.174,4.252,9.768,6.646,15.672,6.646c-2.795-2.031-4.701-4.021-6.197-5.877
	c9.859,4.525,20.9,7.422,23.641,18.219C61.741,21.928,53.861,3,32.002,3z"/>
<path fill="#778B94" d="M17.84,8.895c-0.135,7.54,2.91,13.182,16.978,15.795C24.732,25.37,14.385,19.277,17.84,8.895z"/>
<path fill="#778B94" d="M18.724,17.563c-3.673,3.619-7.795,9.892-7.013,19.47c0.729-7.917,4.366-14.435,7.66-18.657
	C19.138,18.122,18.922,17.851,18.724,17.563z"/>
<path fill="#778B94" d="M25.021,15.174c7.375,7.041,25.5,6.583,27.271,21.859C47.563,22.174,31.535,25.508,25.021,15.174z"/>
</svg>
