<?xml version="1.0" encoding="utf-8"?>
<!-- Generator: Adobe Illustrator 15.0.0, SVG Export Plug-In . SVG Version: 6.00 Build 0)  -->
<!DOCTYPE svg PUBLIC "-//W3C//DTD SVG 1.1//EN" "http://www.w3.org/Graphics/SVG/1.1/DTD/svg11.dtd" [
	<!ENTITY ns_flows "http://ns.adobe.com/Flows/1.0/">
	<!ENTITY ns_extend "http://ns.adobe.com/Extensibility/1.0/">
	<!ENTITY ns_ai "http://ns.adobe.com/AdobeIllustrator/10.0/">
	<!ENTITY ns_graphs "http://ns.adobe.com/Graphs/1.0/">
]>
<svg version="1.1" id="Layer_1" xmlns:x="&ns_extend;" xmlns:i="&ns_ai;" xmlns:graph="&ns_graphs;"
	 xmlns="http://www.w3.org/2000/svg" xmlns:xlink="http://www.w3.org/1999/xlink" xmlns:a="http://ns.adobe.com/AdobeSVGViewerExtensions/3.0/"
	 x="0px" y="0px" width="64px" height="64px" viewBox="0 0 64 64" enable-background="new 0 0 64 64" xml:space="preserve">
<path id="Path_250_" fill="#FFCC66" d="M53.635,28.561c-3.35,0.406-5.768,11.623-3.662,14.582c0.295,0.414,2.021,1.074,3.301-1.539
	c0.709-1.445,2.754-2.652,3.387-5.637C57.473,32.143,56.967,28.158,53.635,28.561z"/>
<path id="Path_249_" fill="#FFCC66" d="M10.367,28.561c3.35,0.406,5.768,11.623,3.66,14.582c-0.295,0.414-2.021,1.074-3.301-1.539
	c-0.709-1.445-2.754-2.652-3.387-5.637C6.527,32.143,7.035,28.157,10.367,28.561z"/>
<path id="Path_248_" fill="#DB9D3A" d="M53.543,30.713c-0.873,0.273-1.826,1.605-2.344,3.818c3.055-0.656,2.291,4.432-0.363,4.527
	c0.023,0.512,0.059,1.039,0.121,1.592c1.279-1.857,2.578-1.111,3.865-3.875C55.982,34.283,55.707,30.033,53.543,30.713z"/>
<path id="Path_245_" fill="#DB9D3A" d="M12.801,34.523c-0.518-2.207-1.469-3.539-2.342-3.811c-2.164-0.682-2.441,3.57-1.281,6.063
	c1.287,2.764,2.586,2.018,3.867,3.875c0.063-0.555,0.098-1.082,0.119-1.594C10.537,38.932,9.785,33.904,12.801,34.523z"/>
<path id="Path_244_" fill="#FFCC66" d="M32,6.999c-14.51,0-21.502,10.572-20.627,25.272c0.176,2.955,2.08,12.604,3.877,16.063
	c1.842,3.543,7.992,9,11.762,10.131c2.383,0.713,7.596,0.713,9.977,0c3.77-1.131,9.924-6.588,11.762-10.131
	c1.801-3.459,3.703-13.105,3.877-16.063C53.504,17.571,46.514,6.999,32,6.999z"/>
<path id="Path_243_" fill="#966F42" d="M47.766,27.442c-3.318-1.758-9.67-1.843-12.035-0.619c-0.508,0.237-0.172,1.902,0.254,1.744
	c3.297-1.304,8.615-1.334,11.701,0.111C48.098,28.866,48.27,27.686,47.766,27.442z"/>
<path id="Path_242_" fill="#966F42" d="M16.234,27.442c3.318-1.758,9.666-1.843,12.035-0.619c0.506,0.237,0.172,1.902-0.254,1.744
	c-3.303-1.304-8.613-1.334-11.703,0.111C15.902,28.866,15.732,27.686,16.234,27.442z"/>
<path id="Path_241_" fill="#DB9D3A" d="M35.916,42.688c-0.414-0.289-1.387,0.156-3.916,0.156c-2.527,0-3.5-0.445-3.916-0.156
	c-0.496,0.35,0.295,1.928,3.916,1.928C35.623,44.615,36.414,43.037,35.916,42.688z"/>
<path id="Path_240_" fill="#DB9D3A" d="M32,48.668c-3.264-0.959-8.1,0.455-8.1,0.455c1.842,2.008,3.191,4.609,8.1,4.609
	c5.623,0,6.58-2.955,8.102-4.609C40.102,49.123,35.262,47.703,32,48.668z"/>
<path id="Path_239_" fill="#FFFFFF" d="M25.115,49.463c3.422,2.871,10.33,2.891,13.771,0C35.24,49.619,28.787,49.621,25.115,49.463z
	"/>
<path id="Path_238_" fill="#FFFFFF" d="M28.771,33.432c0.123,0.961-0.529,2.098-2.334,2.951c-1.146,0.545-3.531,1.184-6.666-0.141
	c-1.404-0.592-2.773-2.438-2.65-3.457C18.82,29.583,27.182,29.114,28.771,33.432z"/>
<linearGradient id="Oval_1_" gradientUnits="userSpaceOnUse" x1="-424.9072" y1="476.6865" x2="-424.9072" y2="477.6865" gradientTransform="matrix(6.5701 0 0 -6.5701 2814.7805 3168.5281)">
	<stop  offset="0" style="stop-color:#A6694A"/>
	<stop  offset="1" style="stop-color:#4F2A1E"/>
	<a:midPointStop  offset="0" style="stop-color:#A6694A"/>
	<a:midPointStop  offset="0.5" style="stop-color:#A6694A"/>
	<a:midPointStop  offset="1" style="stop-color:#4F2A1E"/>
</linearGradient>
<circle id="Oval_34_" fill="url(#Oval_1_)" cx="23.098" cy="33.365" r="3.285"/>
<path id="Path_237_" fill="#1A1626" d="M21.457,33.305c0,2.273,3.285,2.273,3.285,0C24.742,31.195,21.457,31.195,21.457,33.305z"/>
<path id="Path_236_" fill="#AB968C" d="M20.957,32.387c0,0.951,1.377,0.951,1.377,0C22.334,31.502,20.957,31.502,20.957,32.387z"/>
<path id="Path_235_" fill="#DB9D3A" d="M28.787,33.559c-1.334-4.289-10.428-3.656-11.666-0.773
	C17.58,29.095,27.65,28.121,28.787,33.559z"/>
<path id="Path_234_" fill="#FFFFFF" d="M35.229,33.432c-0.123,0.961,0.529,2.098,2.334,2.951c1.146,0.545,3.531,1.184,6.666-0.141
	c1.406-0.592,2.773-2.438,2.65-3.457C45.182,29.583,36.818,29.114,35.229,33.432z"/>
<linearGradient id="Oval_2_" gradientUnits="userSpaceOnUse" x1="-424.9072" y1="476.6865" x2="-424.9072" y2="477.6865" gradientTransform="matrix(6.5701 0 0 -6.5701 2832.511 3168.5281)">
	<stop  offset="0" style="stop-color:#A6694A"/>
	<stop  offset="1" style="stop-color:#4F2A1E"/>
	<a:midPointStop  offset="0" style="stop-color:#A6694A"/>
	<a:midPointStop  offset="0.5" style="stop-color:#A6694A"/>
	<a:midPointStop  offset="1" style="stop-color:#4F2A1E"/>
</linearGradient>
<circle id="Oval_33_" fill="url(#Oval_2_)" cx="40.828" cy="33.365" r="3.285"/>
<path id="Path_233_" fill="#1A1626" d="M39.188,33.305c0,2.273,3.285,2.273,3.285,0C42.473,31.195,39.188,31.195,39.188,33.305z"/>
<path id="Path_232_" fill="#AB968C" d="M38.688,32.387c0,0.951,1.377,0.951,1.377,0C40.064,31.502,38.688,31.502,38.688,32.387z"/>
<path id="Path_231_" fill="#DB9D3A" d="M35.215,33.559c1.332-4.287,10.42-3.672,11.664-0.773
	C46.418,29.095,36.35,28.121,35.215,33.559z"/>
<path fill="#7A6056" d="M50.533,10.636C47.357,6.337,41.545,3,32,3c-9.543,0-15.355,3.338-18.531,7.637
	C8.973,16.722,55.029,16.722,50.533,10.636z"/>
<linearGradient id="SVGID_1_" gradientUnits="userSpaceOnUse" x1="32.0015" y1="36.998" x2="32.0015" y2="8.8159">
	<stop  offset="0.5" style="stop-color:#473834"/>
	<stop  offset="0.6387" style="stop-color:#503F3A"/>
	<stop  offset="0.8641" style="stop-color:#68524A"/>
	<stop  offset="1" style="stop-color:#7A6056"/>
	<a:midPointStop  offset="0.5" style="stop-color:#473834"/>
	<a:midPointStop  offset="0.6" style="stop-color:#473834"/>
	<a:midPointStop  offset="1" style="stop-color:#7A6056"/>
</linearGradient>
<path fill="url(#SVGID_1_)" d="M50.533,10.636C47.357,6.337,41.545,11,32,11c-9.543,0-15.355-4.662-18.531-0.363
	C8.973,16.722,10.5,36.998,12.5,36.998c0.318,0,0.363-7.094,0.969-12c0.492-3.994,1.441-7.867,2.531-8.5
	c3.332-1.934,9.756,0.83,16,0.83s12.67-2.764,16.002-0.83c1.09,0.633,2.037,4.506,2.531,8.5c0.605,4.906,0.65,12,0.969,12
	C53.502,36.998,55.029,16.722,50.533,10.636z"/>
<linearGradient id="SVGID_2_" gradientUnits="userSpaceOnUse" x1="32.0005" y1="63" x2="32.0005" y2="27.9365">
	<stop  offset="0" style="stop-color:#7A6056"/>
	<stop  offset="0.1359" style="stop-color:#68524A"/>
	<stop  offset="0.3613" style="stop-color:#503F3A"/>
	<stop  offset="0.5" style="stop-color:#473834"/>
	<a:midPointStop  offset="0" style="stop-color:#7A6056"/>
	<a:midPointStop  offset="0.4" style="stop-color:#7A6056"/>
	<a:midPointStop  offset="0.5" style="stop-color:#473834"/>
</linearGradient>
<path fill="url(#SVGID_2_)" d="M14.505,51.926c1.815,3.678,8.737,7.346,12.507,8.52c2.383,0.74,7.596,0.74,9.977,0
	c3.77-1.174,10.695-4.842,12.507-8.52c4.091-8.283,3.902-23.83,3.902-23.83l-2.577-0.16c0.816,6.882-0.548,18.679-6.862,19.781
	c-0.949,0.164-1.625-0.877-2.414-1.283c-3.111-1.598-15.945-1.613-19.088,0c-0.789,0.406-1.465,1.447-2.414,1.283
	c-6.314-1.102-7.679-12.898-6.862-19.781l-2.577,0.16C10.603,28.096,10.423,43.643,14.505,51.926z M23.884,49.299
	C26.83,48.029,32,48.668,32,48.668s5.17-0.639,8.116,0.631c1.333,0.572-2.815,6.09-5.517,4.887c-1.537-0.686-3.662-0.686-5.199,0
	C26.699,55.389,22.551,49.871,23.884,49.299z"/>
</svg>
