<?xml version="1.0" encoding="utf-8"?>
<!-- Generator: Adobe Illustrator 15.0.0, SVG Export Plug-In . SVG Version: 6.00 Build 0)  -->
<!DOCTYPE svg PUBLIC "-//W3C//DTD SVG 1.1//EN" "http://www.w3.org/Graphics/SVG/1.1/DTD/svg11.dtd" [
	<!ENTITY ns_flows "http://ns.adobe.com/Flows/1.0/">
	<!ENTITY ns_extend "http://ns.adobe.com/Extensibility/1.0/">
	<!ENTITY ns_ai "http://ns.adobe.com/AdobeIllustrator/10.0/">
	<!ENTITY ns_graphs "http://ns.adobe.com/Graphs/1.0/">
]>
<svg version="1.1" id="Layer_1" xmlns:x="&ns_extend;" xmlns:i="&ns_ai;" xmlns:graph="&ns_graphs;"
	 xmlns="http://www.w3.org/2000/svg" xmlns:xlink="http://www.w3.org/1999/xlink" xmlns:a="http://ns.adobe.com/AdobeSVGViewerExtensions/3.0/"
	 x="0px" y="0px" width="64px" height="64px" viewBox="0 0 64 64" enable-background="new 0 0 64 64" xml:space="preserve">
<path fill="#614A36" d="M27.086,28.085c0.551-1.518,2.598-1.773,2.598-1.773c1.352,2.869,2.572,8.151,2.674,8.881
	c0.1,0.711,1.018,2.623,0.869,3.139c-0.629,2.189-0.387,1.314-1.373,2.23c-0.309,0.289-0.424-0.016-0.393-0.418
	c0,0-0.273-0.885-0.484-0.895c0.051,0.395-0.824,0.178-0.609-0.375c0.133-0.344-0.094-1.109,0.387-1.793
	c0.246-0.352-0.006-2.416-1.611-5.025C28.166,30.468,27.584,29.41,27.086,28.085z"/>
<path fill="#614A36" d="M13.359,28.035c-0.734-1.438-2.797-1.438-2.797-1.438c-0.984,3.016-1.541,8.407-1.551,9.145
	c-0.008,0.719-0.682,2.729-0.471,3.223c0.896,2.094,0.811,2.357,1.91,3.135c0.832,0.59,0.57-0.166,0.193-0.564
	c-0.584-0.617-0.955-2.037-0.189-2.168c0.098,1.582,1.145,1.881,1.066,1.295c-0.201-1.514,0.002-2.432-0.682-3.246
	c-0.275-0.328-0.295-2.396,0.975-5.188C12.586,30.531,13.031,29.41,13.359,28.035z"/>
<path fill="#302C3B" d="M25.609,33.957H14.393c-0.979,5.166-0.256,12.303-1.488,24.896c-0.156,1.586,5.654,1.596,5.604,0
	c-0.242-7.346,0.445-12.938,0.938-17.416c0.037-0.334,1.072-0.334,1.109,0c0.492,4.479,1.182,10.07,0.939,17.416
	c-0.053,1.596,5.76,1.586,5.604,0C25.865,46.26,26.588,39.123,25.609,33.957z"/>
<path fill="#FF7A00" d="M27.037,19.847c-0.906-1.135-4.635-2.271-4.635-2.271H17.6c0,0-3.73,1.137-4.635,2.271
	c-0.793,0.992-2.32,5.816-2.658,6.982c0.045,0.055,1.227,0.111,3.287,1.701c0,0,0.641-1.934,0.891-2.447
	c0.588,3.814-0.297,7.45-0.092,7.874c0.584,1.213,10.625,1.227,11.217,0c0.205-0.424-0.68-4.059-0.094-7.874
	c0.252,0.514,1.4,2.525,1.4,2.525c1.848-1.834,3.012-2.039,3.049-2.098C29.486,25.396,27.83,20.839,27.037,19.847z"/>
<path fill="#6E8189" d="M12.646,61.602c0.184,0.453,5.762,0.637,5.971-0.084C19.426,58.725,11.736,59.373,12.646,61.602z"/>
<path fill="#99A8AE" d="M12.727,61.053c0.041,0.393,5.834,0.598,5.896,0C19.119,56.301,12.273,56.697,12.727,61.053z"/>
<path fill="#1A1626" d="M17.883,58.227c-0.645-1.102-3.703-1.096-4.344,0c-0.117,0.191-0.316,0.715,0.457,0.285
	c-0.768,0.602-0.768,1.127,0,0.678c-0.773,0.578-0.574,0.943-0.457,0.896c1.176-0.582,3.166-0.582,4.344,0
	c0.119,0.047,0.316-0.318-0.457-0.896c0.768,0.449,0.768-0.076,0-0.678C18.199,58.941,18.002,58.418,17.883,58.227z"/>
<path fill="#6E8189" d="M27.355,61.602c-0.184,0.453-5.762,0.637-5.971-0.084C20.576,58.725,28.266,59.373,27.355,61.602z"/>
<path fill="#99A8AE" d="M27.275,61.053c-0.041,0.393-5.834,0.598-5.896,0C20.883,56.301,27.727,56.697,27.275,61.053z"/>
<path fill="#1A1626" d="M22.119,58.227c0.645-1.102,3.701-1.096,4.344,0c0.117,0.191,0.316,0.715-0.457,0.285
	c0.768,0.602,0.768,1.127,0,0.678c0.773,0.578,0.574,0.943,0.457,0.896c-1.178-0.582-3.166-0.582-4.344,0
	c-0.119,0.047-0.316-0.318,0.457-0.896c-0.768,0.449-0.768-0.076,0-0.678C21.803,58.941,22,58.418,22.119,58.227z"/>
<path fill="#ED6A00" d="M16.719,17.875c0,2.926,6.563,2.92,6.563-0.006l-0.59-0.211h-5.346L16.719,17.875z"/>
<path fill="#302116" d="M17.25,17.906c0,2.176,5.5,2.176,5.5,0c0-0.74,0-2.406,0-2.406h-5.5C17.25,15.5,17.25,17.166,17.25,17.906z"
	/>
<path fill="#1A1714" d="M25.674,14.246c0.402,0.268,0.869,0.467,1.412,0.568c-0.965-2.199,0.49-6.813-2.492-10.201
	c-4.201,0.125-4.781,13.717,1.076,11.908c-0.373-0.162-0.607-0.492-0.744-0.908c0.451,0.131,0.979,0.135,1.594-0.055
	C26.029,15.347,25.781,14.847,25.674,14.246z"/>
<path fill="#1A1714" d="M15.125,4.613c-2.98,3.389-1.242,8.002-2.207,10.201c0.543-0.102,1.01-0.301,1.414-0.568
	c-0.107,0.602-0.357,1.102-0.846,1.313c0.613,0.189,1.141,0.186,1.592,0.055c-0.137,0.416-0.369,0.746-0.742,0.908
	C20.191,18.33,19.328,4.738,15.125,4.613z"/>
<path id="Path_1369_" fill="#614A36" d="M26.133,9.244c-0.949,0.113-1.635,3.293-1.037,4.131c0.082,0.117,0.572,0.305,0.934-0.436
	c0.201-0.41,0.781-0.752,0.961-1.598C27.221,10.257,27.076,9.128,26.133,9.244z"/>
<path id="Path_1368_" fill="#614A36" d="M13.873,9.244c0.949,0.113,1.633,3.293,1.037,4.131c-0.084,0.117-0.574,0.305-0.936-0.436
	c-0.201-0.41-0.779-0.752-0.959-1.598C12.785,10.257,12.93,9.128,13.873,9.244z"/>
<path id="Path_1367_" fill="#302116" d="M26.107,9.851c-0.248,0.08-0.52,0.457-0.664,1.082c0.865-0.186,0.648,1.256-0.104,1.283
	c0.006,0.145,0.016,0.295,0.033,0.453c0.363-0.527,0.73-0.316,1.096-1.1C26.797,10.863,26.719,9.66,26.107,9.851z"/>
<path id="Path_1366_" fill="#302116" d="M14.563,10.931c-0.146-0.623-0.416-1.002-0.664-1.08c-0.613-0.191-0.691,1.012-0.363,1.719
	c0.365,0.783,0.732,0.572,1.096,1.1c0.018-0.158,0.027-0.309,0.035-0.453C13.92,12.181,13.709,10.757,14.563,10.931z"/>
<path fill="#614A36" d="M20.002,3.132c-4.111,0-6.092,3.35-5.844,7.656c0.051,0.865,0.291,2.113,0.588,3.184
	c0.617,2.223,3.871,4.461,5.256,4.461s4.639-2.238,5.256-4.461c0.297-1.07,0.539-2.318,0.59-3.184
	C26.094,6.482,24.115,3.132,20.002,3.132z"/>
<path id="Path_1365_" fill="#403229" d="M24.469,8.925c-0.939-0.498-2.74-0.521-3.41-0.174c-0.143,0.066-0.047,0.537,0.072,0.494
	c0.936-0.371,2.441-0.379,3.316,0.031C24.564,9.33,24.613,8.996,24.469,8.925z"/>
<path id="Path_1364_" fill="#403229" d="M15.535,8.925c0.939-0.498,2.738-0.521,3.41-0.174c0.143,0.066,0.049,0.537-0.072,0.494
	c-0.936-0.371-2.439-0.379-3.316,0.031C15.441,9.33,15.393,8.996,15.535,8.925z"/>
<path id="Path_1363_" fill="#302116" d="M21.111,13.246c-0.117-0.082-0.393,0.045-1.109,0.045c-0.715,0-0.992-0.127-1.109-0.045
	c-0.141,0.1,0.084,0.547,1.109,0.547C21.029,13.792,21.254,13.345,21.111,13.246z"/>
<path id="Path_1362_" fill="#302116" d="M20.002,14.941c-0.924-0.273-2.295,0.129-2.295,0.129c0.521,0.568,0.904,1.305,2.295,1.305
	c1.594,0,1.865-0.836,2.297-1.305C22.299,15.07,20.926,14.666,20.002,14.941z"/>
<path id="Path_1361_" fill="#FFFFFF" d="M18.051,15.166c0.971,0.813,2.928,0.818,3.902,0C20.92,15.21,19.092,15.21,18.051,15.166z"
	/>
<path id="Path_1360_" fill="#FFFFFF" d="M19.088,10.623c0.035,0.271-0.15,0.594-0.662,0.836c-0.324,0.154-1,0.336-1.889-0.039
	c-0.398-0.168-0.785-0.691-0.75-0.979C16.268,9.533,18.637,9.4,19.088,10.623z"/>
<linearGradient id="Oval_1_" gradientUnits="userSpaceOnUse" x1="-425.7622" y1="480.5088" x2="-425.7622" y2="480.792" gradientTransform="matrix(6.5701 0 0 -6.5701 2814.7805 3168.5281)">
	<stop  offset="0" style="stop-color:#A6694A"/>
	<stop  offset="1" style="stop-color:#4F2A1E"/>
	<a:midPointStop  offset="0" style="stop-color:#A6694A"/>
	<a:midPointStop  offset="0.5" style="stop-color:#A6694A"/>
	<a:midPointStop  offset="1" style="stop-color:#4F2A1E"/>
</linearGradient>
<circle id="Oval_172_" fill="url(#Oval_1_)" cx="17.48" cy="10.604" r="0.931"/>
<path id="Path_1359_" fill="#1A1626" d="M17.016,10.587c0,0.643,0.93,0.643,0.93,0C17.945,9.99,17.016,9.99,17.016,10.587z"/>
<path id="Path_1358_" fill="#AB968C" d="M16.873,10.326c0,0.271,0.391,0.271,0.391,0C17.264,10.076,16.873,10.076,16.873,10.326z"/>
<path id="Path_1357_" fill="#302116" d="M19.092,10.658c-0.377-1.213-2.955-1.035-3.305-0.217
	C15.916,9.394,18.77,9.119,19.092,10.658z"/>
<path id="Path_1356_" fill="#FFFFFF" d="M20.916,10.623c-0.033,0.271,0.15,0.594,0.662,0.836c0.324,0.154,1,0.336,1.889-0.039
	c0.398-0.168,0.785-0.691,0.752-0.979C23.736,9.533,21.367,9.4,20.916,10.623z"/>
<linearGradient id="Oval_2_" gradientUnits="userSpaceOnUse" x1="-427.6958" y1="480.5088" x2="-427.6958" y2="480.792" gradientTransform="matrix(6.5701 0 0 -6.5701 2832.511 3168.5281)">
	<stop  offset="0" style="stop-color:#A6694A"/>
	<stop  offset="1" style="stop-color:#4F2A1E"/>
	<a:midPointStop  offset="0" style="stop-color:#A6694A"/>
	<a:midPointStop  offset="0.5" style="stop-color:#A6694A"/>
	<a:midPointStop  offset="1" style="stop-color:#4F2A1E"/>
</linearGradient>
<circle id="Oval_171_" fill="url(#Oval_2_)" cx="22.504" cy="10.604" r="0.931"/>
<path id="Path_1355_" fill="#1A1626" d="M22.039,10.587c0,0.643,0.932,0.643,0.932,0C22.971,9.99,22.039,9.99,22.039,10.587z"/>
<path id="Path_1354_" fill="#AB968C" d="M21.896,10.326c0,0.271,0.391,0.271,0.391,0C22.287,10.076,21.896,10.076,21.896,10.326z"/>
<path id="Path_1353_" fill="#302116" d="M20.914,10.658c0.377-1.213,2.951-1.039,3.305-0.217
	C24.088,9.394,21.234,9.119,20.914,10.658z"/>
<linearGradient id="SVGID_1_" gradientUnits="userSpaceOnUse" x1="19.9419" y1="11.6421" x2="19.9419" y2="1.9995">
	<stop  offset="0" style="stop-color:#1A1714"/>
	<stop  offset="0.0953" style="stop-color:#1F1B18"/>
	<stop  offset="0.6555" style="stop-color:#37322C"/>
	<stop  offset="1" style="stop-color:#403A33"/>
	<a:midPointStop  offset="0" style="stop-color:#1A1714"/>
	<a:midPointStop  offset="0.4" style="stop-color:#1A1714"/>
	<a:midPointStop  offset="1" style="stop-color:#403A33"/>
</linearGradient>
<path fill="url(#SVGID_1_)" d="M20.002,2c-2.5,0-3.752,1.133-4.006,1.672C12.973,4.363,12,9.466,14.264,11.642
	c0.281-2.318,0.553-3.809,2.094-5.379c0.9,1.205,2.768,1.883,4.441,1.883c-0.791-0.576-1.332-1.139-1.756-1.666
	c2.793,1.283,5.922,2.104,6.699,5.162C28.43,7.363,26.195,2,20.002,2z"/>
<path fill="#1A1714" d="M15.99,3.671c-0.039,2.135,0.824,3.734,4.811,4.475C17.943,8.339,15.012,6.613,15.99,3.671z"/>
<path fill="#1A1714" d="M16.24,6.126c-1.041,1.027-2.207,2.803-1.986,5.516c0.207-2.242,1.236-4.088,2.17-5.285
	C16.359,6.285,16.297,6.208,16.24,6.126z"/>
<path fill="#1A1714" d="M18.025,5.451c2.09,1.994,7.225,1.865,7.727,6.191C24.412,7.433,19.871,8.378,18.025,5.451z"/>
<path fill="#EBC199" d="M36.914,28.085c-0.549-1.518-2.596-1.773-2.596-1.773c-1.352,2.869-2.574,8.151-2.676,8.881
	c-0.1,0.711-1.219,2.607-1.139,3.139c0.154,1.027,0.723,1.814,0.957,1.813c0.523-0.887,1.406-1.629,1.186-0.193
	c0.174,0.596,0.908-0.436,1.049-1.404c0.037-0.266-0.344-0.938-0.447-1.465c-0.084-0.422,0.006-2.416,1.611-5.025
	C35.836,30.468,36.418,29.41,36.914,28.085z"/>
<path fill="#EBC199" d="M50.641,28.035c0.734-1.438,2.797-1.438,2.797-1.438c0.984,3.016,1.541,8.407,1.551,9.145
	c0.01,0.719,0.682,2.729,0.471,3.223c-0.896,2.094-0.811,2.357-1.908,3.135c-0.832,0.59-0.572-0.166-0.195-0.564
	c0.584-0.617,0.955-2.037,0.189-2.168c-0.098,1.582-1.143,1.881-1.066,1.295c0.201-1.514,0-2.432,0.682-3.246
	c0.275-0.328,0.295-2.396-0.975-5.188C51.416,30.531,50.969,29.41,50.641,28.035z"/>
<path fill="#302C3B" d="M38.391,33.957h11.217c0.979,5.166,0.256,12.303,1.488,24.896c0.156,1.586-5.654,1.596-5.604,0
	c0.242-7.346-0.445-12.938-0.938-17.416c-0.037-0.334-1.072-0.334-1.109,0c-0.492,4.479-1.182,10.07-0.939,17.416
	c0.053,1.596-5.76,1.586-5.604,0C38.135,46.26,37.412,39.123,38.391,33.957z"/>
<path fill="#FFBD00" d="M36.963,19.847c0.906-1.135,4.635-2.271,4.635-2.271H46.4c0,0,3.73,1.137,4.635,2.271
	c0.793,0.992,2.32,5.816,2.658,6.982c-0.045,0.055-1.227,0.111-3.287,1.701c0,0-0.641-1.934-0.891-2.447
	c-0.588,3.814,0.297,7.45,0.092,7.874c-0.584,1.213-10.625,1.227-11.217,0c-0.205-0.424,0.68-4.059,0.094-7.874
	c-0.252,0.514-1.4,2.525-1.4,2.525c-1.846-1.834-3.012-2.039-3.049-2.098C34.516,25.396,36.17,20.839,36.963,19.847z"/>
<path fill="#6E8189" d="M51.354,61.602c-0.184,0.453-5.762,0.637-5.971-0.084C44.574,58.725,52.264,59.373,51.354,61.602z"/>
<path fill="#99A8AE" d="M51.273,61.053c-0.041,0.393-5.834,0.598-5.896,0C44.881,56.301,51.727,56.697,51.273,61.053z"/>
<path fill="#1A1626" d="M46.117,58.227c0.645-1.102,3.703-1.096,4.344,0c0.117,0.191,0.316,0.715-0.457,0.285
	c0.768,0.602,0.768,1.127,0,0.678c0.773,0.578,0.574,0.943,0.457,0.896c-1.176-0.582-3.166-0.582-4.344,0
	c-0.119,0.047-0.316-0.318,0.457-0.896c-0.768,0.449-0.768-0.076,0-0.678C45.801,58.941,45.998,58.418,46.117,58.227z"/>
<path fill="#6E8189" d="M36.645,61.602c0.184,0.453,5.762,0.637,5.971-0.084C43.424,58.725,35.734,59.373,36.645,61.602z"/>
<path fill="#99A8AE" d="M36.725,61.053c0.041,0.393,5.834,0.598,5.896,0C43.117,56.301,36.273,56.697,36.725,61.053z"/>
<path fill="#1A1626" d="M41.881,58.227c-0.645-1.102-3.701-1.096-4.344,0c-0.117,0.191-0.316,0.715,0.457,0.285
	c-0.768,0.602-0.768,1.127,0,0.678c-0.773,0.578-0.574,0.943-0.457,0.896c1.178-0.582,3.166-0.582,4.344,0
	c0.119,0.047,0.316-0.318-0.457-0.896c0.768,0.449,0.768-0.076,0-0.678C42.197,58.941,42,58.418,41.881,58.227z"/>
<path fill="#FFA600" d="M47.281,17.875c0,2.926-6.563,2.92-6.563-0.006l0.59-0.211h5.346L47.281,17.875z"/>
<path fill="#C99B71" d="M46.75,17.906c0,2.176-5.5,2.176-5.5,0c0-0.74,0-2.406,0-2.406h5.5C46.75,15.5,46.75,17.166,46.75,17.906z"
	/>
<path fill="#BA9757" d="M49.672,14.246c0.402,0.268,0.869,0.467,1.412,0.568c-0.965-2.199,0.49-6.813-2.492-10.201
	c-4.201,0.125-4.781,13.717,1.076,11.908c-0.373-0.162-0.607-0.492-0.744-0.908c0.451,0.131,0.979,0.135,1.594-0.055
	C50.027,15.347,49.779,14.847,49.672,14.246z"/>
<path fill="#BA9757" d="M39.123,4.613c-2.98,3.389-1.242,8.002-2.207,10.201c0.543-0.102,1.01-0.301,1.414-0.568
	c-0.107,0.602-0.357,1.102-0.846,1.313c0.613,0.189,1.141,0.186,1.592,0.055c-0.137,0.416-0.369,0.746-0.742,0.908
	C44.189,18.33,43.326,4.738,39.123,4.613z"/>
<path id="Path_1386_" fill="#EBC199" d="M50.131,9.244c-0.949,0.113-1.635,3.293-1.037,4.131c0.082,0.117,0.572,0.305,0.934-0.436
	c0.201-0.41,0.781-0.752,0.961-1.598C51.219,10.257,51.074,9.128,50.131,9.244z"/>
<path id="Path_1385_" fill="#EBC199" d="M37.871,9.244c0.949,0.113,1.633,3.293,1.037,4.131c-0.084,0.117-0.574,0.305-0.936-0.436
	c-0.201-0.41-0.779-0.752-0.959-1.598C36.783,10.257,36.928,9.128,37.871,9.244z"/>
<path id="Path_1384_" fill="#C99B71" d="M50.105,9.851c-0.248,0.08-0.52,0.457-0.664,1.082c0.865-0.186,0.648,1.256-0.104,1.283
	c0.006,0.145,0.016,0.295,0.033,0.453c0.363-0.527,0.73-0.316,1.096-1.1C50.795,10.863,50.717,9.66,50.105,9.851z"/>
<path id="Path_1383_" fill="#C99B71" d="M38.561,10.931c-0.146-0.623-0.416-1.002-0.664-1.08c-0.613-0.191-0.691,1.012-0.363,1.719
	c0.365,0.783,0.732,0.572,1.096,1.1c0.018-0.158,0.027-0.309,0.035-0.453C37.918,12.181,37.707,10.757,38.561,10.931z"/>
<path fill="#EBC199" d="M44,3.132c-4.111,0-6.092,3.35-5.844,7.656c0.051,0.865,0.291,2.113,0.588,3.184
	c0.617,2.223,3.871,4.461,5.256,4.461s4.639-2.238,5.256-4.461c0.297-1.07,0.539-2.318,0.59-3.184
	C50.092,6.482,48.113,3.132,44,3.132z"/>
<path id="Path_1382_" fill="#A17C5B" d="M48.467,8.925c-0.939-0.498-2.74-0.521-3.41-0.174c-0.143,0.066-0.047,0.537,0.072,0.494
	c0.936-0.371,2.441-0.379,3.316,0.031C48.563,9.33,48.611,8.996,48.467,8.925z"/>
<path id="Path_1381_" fill="#A17C5B" d="M39.533,8.925c0.939-0.498,2.738-0.521,3.41-0.174c0.143,0.066,0.049,0.537-0.072,0.494
	c-0.936-0.371-2.439-0.379-3.316,0.031C39.439,9.33,39.391,8.996,39.533,8.925z"/>
<path id="Path_1380_" fill="#C99B71" d="M45.109,13.246c-0.117-0.082-0.393,0.045-1.109,0.045c-0.715,0-0.992-0.127-1.109-0.045
	c-0.141,0.1,0.084,0.547,1.109,0.547C45.027,13.792,45.252,13.345,45.109,13.246z"/>
<path id="Path_1379_" fill="#C99B71" d="M44,14.941c-0.924-0.273-2.295,0.129-2.295,0.129c0.521,0.568,0.904,1.305,2.295,1.305
	c1.594,0,1.865-0.836,2.297-1.305C46.297,15.07,44.924,14.666,44,14.941z"/>
<path id="Path_1378_" fill="#FFFFFF" d="M42.049,15.166c0.971,0.813,2.928,0.818,3.902,0C44.918,15.21,43.09,15.21,42.049,15.166z"
	/>
<path id="Path_1377_" fill="#FFFFFF" d="M43.086,10.623c0.035,0.271-0.15,0.594-0.662,0.836c-0.324,0.154-1,0.336-1.889-0.039
	c-0.398-0.168-0.785-0.691-0.75-0.979C40.266,9.533,42.635,9.4,43.086,10.623z"/>
<linearGradient id="Oval_3_" gradientUnits="userSpaceOnUse" x1="-422.1099" y1="480.5088" x2="-422.1099" y2="480.792" gradientTransform="matrix(6.5701 0 0 -6.5701 2814.7805 3168.5281)">
	<stop  offset="0" style="stop-color:#A6694A"/>
	<stop  offset="1" style="stop-color:#4F2A1E"/>
	<a:midPointStop  offset="0" style="stop-color:#A6694A"/>
	<a:midPointStop  offset="0.5" style="stop-color:#A6694A"/>
	<a:midPointStop  offset="1" style="stop-color:#4F2A1E"/>
</linearGradient>
<circle id="Oval_174_" fill="url(#Oval_3_)" cx="41.479" cy="10.604" r="0.931"/>
<path id="Path_1376_" fill="#1A1626" d="M41.014,10.587c0,0.643,0.93,0.643,0.93,0C41.943,9.99,41.014,9.99,41.014,10.587z"/>
<path id="Path_1375_" fill="#AB968C" d="M40.871,10.326c0,0.271,0.391,0.271,0.391,0C41.262,10.076,40.871,10.076,40.871,10.326z"/>
<path id="Path_1374_" fill="#C99B71" d="M43.09,10.658c-0.377-1.213-2.955-1.035-3.305-0.217
	C39.914,9.394,42.768,9.119,43.09,10.658z"/>
<path id="Path_1373_" fill="#FFFFFF" d="M44.914,10.623c-0.033,0.271,0.15,0.594,0.662,0.836c0.324,0.154,1,0.336,1.889-0.039
	c0.398-0.168,0.785-0.691,0.752-0.979C47.734,9.533,45.365,9.4,44.914,10.623z"/>
<linearGradient id="Oval_4_" gradientUnits="userSpaceOnUse" x1="-424.0435" y1="480.5088" x2="-424.0435" y2="480.792" gradientTransform="matrix(6.5701 0 0 -6.5701 2832.511 3168.5281)">
	<stop  offset="0" style="stop-color:#A6694A"/>
	<stop  offset="1" style="stop-color:#4F2A1E"/>
	<a:midPointStop  offset="0" style="stop-color:#A6694A"/>
	<a:midPointStop  offset="0.5" style="stop-color:#A6694A"/>
	<a:midPointStop  offset="1" style="stop-color:#4F2A1E"/>
</linearGradient>
<circle id="Oval_173_" fill="url(#Oval_4_)" cx="46.502" cy="10.604" r="0.931"/>
<path id="Path_1372_" fill="#1A1626" d="M46.037,10.587c0,0.643,0.932,0.643,0.932,0C46.969,9.99,46.037,9.99,46.037,10.587z"/>
<path id="Path_1371_" fill="#AB968C" d="M45.895,10.326c0,0.271,0.391,0.271,0.391,0C46.285,10.076,45.895,10.076,45.895,10.326z"/>
<path id="Path_1370_" fill="#C99B71" d="M44.912,10.658c0.377-1.213,2.951-1.039,3.305-0.217
	C48.086,9.394,45.232,9.119,44.912,10.658z"/>
<linearGradient id="SVGID_2_" gradientUnits="userSpaceOnUse" x1="43.9395" y1="11.6421" x2="43.9395" y2="1.9995">
	<stop  offset="0" style="stop-color:#BA9757"/>
	<stop  offset="0.2266" style="stop-color:#C6A265"/>
	<stop  offset="0.7054" style="stop-color:#DBB77D"/>
	<stop  offset="1" style="stop-color:#E3BE86"/>
	<a:midPointStop  offset="0" style="stop-color:#BA9757"/>
	<a:midPointStop  offset="0.4" style="stop-color:#BA9757"/>
	<a:midPointStop  offset="1" style="stop-color:#E3BE86"/>
</linearGradient>
<path fill="url(#SVGID_2_)" d="M44,2c-2.5,0-3.752,1.133-4.006,1.672c-3.023,0.691-3.996,5.795-1.732,7.971
	c0.281-2.318,0.553-3.809,2.094-5.379c0.9,1.205,2.768,1.883,4.441,1.883c-0.791-0.576-1.332-1.139-1.756-1.666
	c2.793,1.283,5.922,2.104,6.699,5.162C52.428,7.363,50.193,2,44,2z"/>
<path fill="#BA9757" d="M39.988,3.671c-0.039,2.135,0.824,3.734,4.811,4.475C41.941,8.339,39.01,6.613,39.988,3.671z"/>
<path fill="#BA9757" d="M40.238,6.126c-1.041,1.027-2.207,2.803-1.986,5.516c0.207-2.242,1.236-4.088,2.17-5.285
	C40.357,6.285,40.295,6.208,40.238,6.126z"/>
<path fill="#BA9757" d="M42.023,5.451c2.09,1.994,7.225,1.865,7.727,6.191C48.41,7.433,43.869,8.378,42.023,5.451z"/>
</svg>
