<?xml version="1.0" encoding="utf-8"?>
<!-- Generator: Adobe Illustrator 15.0.0, SVG Export Plug-In . SVG Version: 6.00 Build 0)  -->
<!DOCTYPE svg PUBLIC "-//W3C//DTD SVG 1.1//EN" "http://www.w3.org/Graphics/SVG/1.1/DTD/svg11.dtd" [
	<!ENTITY ns_flows "http://ns.adobe.com/Flows/1.0/">
	<!ENTITY ns_extend "http://ns.adobe.com/Extensibility/1.0/">
	<!ENTITY ns_ai "http://ns.adobe.com/AdobeIllustrator/10.0/">
	<!ENTITY ns_graphs "http://ns.adobe.com/Graphs/1.0/">
]>
<svg version="1.1" id="Layer_1" xmlns:x="&ns_extend;" xmlns:i="&ns_ai;" xmlns:graph="&ns_graphs;"
	 xmlns="http://www.w3.org/2000/svg" xmlns:xlink="http://www.w3.org/1999/xlink" xmlns:a="http://ns.adobe.com/AdobeSVGViewerExtensions/3.0/"
	 x="0px" y="0px" width="64px" height="64px" viewBox="0 0 64 64" enable-background="new 0 0 64 64" xml:space="preserve">
<path fill="#1A1626" d="M62,19.243c-8.074,10.42-20.783,10.482-30,10.475c-9.217,0.008-21.924-0.055-30-10.475
	c0,19.167,15.279,24.532,8.486,36.159c-2.146,3.676,45.176,3.676,43.029,0C46.725,43.775,62,38.41,62,19.243z"/>
<path fill="#E81C27" d="M32,29.718c-9.217,0.008-19.984-0.6-28-8.193c0,11.358,20.279,24.603,13.486,36.231
	c-2.146,3.676,31.176,3.676,29.027,0c-6.793-11.629,13.488-24.874,13.488-36.231C51.986,29.118,41.217,29.726,32,29.718z"/>
<path fill="#1A1626" d="M12.256,52.762c2.4-1.365,12.363-4.969,12.363-4.969h14.84c0,0,9.955,3.596,12.342,4.965
	C55.271,54.742,56,62.01,56,62.01H8C8,62.01,8.775,54.738,12.256,52.762z"/>
<rect x="15.811" y="21.139" fill="#1A1626" width="32.379" height="30.584"/>
<path fill="#FFCC66" d="M32,47.488c-5.879,0-15.438,1.564-15.438,1.564l2.217,6.436c0,0,3.109,4.959,13.219,6.508v0.002
	c0,0,0.002,0,0.002-0.002c0,0.002,0,0.002,0,0.002l0.002-0.002c10.109-1.549,13.219-6.508,13.219-6.508l2.219-6.436
	C47.439,49.053,37.879,47.488,32,47.488z"/>
<path fill="#E6B045" d="M34.27,54.43C32.992,55.18,32,56.889,32,56.889s-0.992-1.709-2.268-2.459
	c2.266,3.84,1.719,5.568,1.719,5.568h1.098C32.549,59.998,31.998,58.031,34.27,54.43z"/>
<path fill="#E81C27" d="M32.002,61.996c4.057-0.621,6.986-1.793,9.041-2.971H32l0,0h-9.043c2.055,1.178,4.984,2.35,9.041,2.971
	v0.002c0,0,0.002,0,0.002-0.002c0,0.002,0,0.002,0,0.002L32.002,61.996z"/>
<path fill="#302C3B" d="M42.992,62c0,0,5.635-7.818,7.965-16.525l-9.004,1.246c0,0,0.131,5.955-3.076,15.279H42.992z"/>
<path fill="#302C3B" d="M21.006,62c0,0-5.633-7.818-7.961-16.525l9,1.246c0,0-0.131,5.955,3.078,15.279H21.006z"/>
<path fill="#FFCC66" d="M24.5,49.949c0,0,2.361,2.832,7.5,2.832c5.141,0,7.5-2.832,7.5-2.832v-8.035h-15V49.949z"/>
<path fill="#E6B045" d="M21.512,39.281c1.23,5.951,7.723,11.945,10.488,11.945c2.764,0,9.256-5.994,10.488-11.945
	C43.08,36.42,20.92,36.42,21.512,39.281z"/>
<path fill="#FFCC66" d="M32,8.276c-11.002,0-16.305,8.962-15.643,20.485c0.135,2.315,0.779,5.659,1.574,8.521
	C19.582,43.232,28.291,49.227,32,49.227c3.707,0,12.416-5.994,14.068-11.945c0.795-2.861,1.439-6.206,1.576-8.521
	C48.305,17.238,43.008,8.276,32,8.276z"/>
<path fill="#1A1626" d="M43.693,24.927c-2.391-1.425-6.68-1.601-8.375-0.629c-0.359,0.196-0.264,1.226,0.047,1.097
	c2.42-1.008,6.109-1.058,8.381,0.108C44.049,25.656,44.057,25.134,43.693,24.927z"/>
<path fill="#1A1626" d="M20.305,24.927c2.391-1.425,6.68-1.601,8.379-0.629c0.361,0.196,0.264,1.226-0.049,1.097
	c-2.422-1.008-6.105-1.06-8.379,0.108C19.949,25.656,19.943,25.134,20.305,24.927z"/>
<path fill="#DB9D3A" d="M34.475,36.215c-0.264-0.184-0.877,0.098-2.477,0.098c-1.596,0-2.211-0.281-2.473-0.098
	c-0.314,0.221,0.186,1.217,2.473,1.217C34.287,37.432,34.789,36.436,34.475,36.215z"/>
<path id="Path_786_" fill="#FFFFFF" d="M29.553,29.25c0.092,0.727-0.402,1.591-1.771,2.238c-0.869,0.412-2.678,0.896-5.055-0.107
	c-1.064-0.448-2.104-1.846-2.01-2.62C22.006,26.332,28.346,25.977,29.553,29.25z"/>
<linearGradient id="Oval_1_" gradientUnits="userSpaceOnUse" x1="-424.5796" y1="477.4404" x2="-424.5796" y2="478.1992" gradientTransform="matrix(6.5701 0 0 -6.5701 2814.7805 3168.5281)">
	<stop  offset="0" style="stop-color:#C20606"/>
	<stop  offset="1" style="stop-color:#5E0000"/>
	<a:midPointStop  offset="0" style="stop-color:#C20606"/>
	<a:midPointStop  offset="0.5" style="stop-color:#C20606"/>
	<a:midPointStop  offset="1" style="stop-color:#5E0000"/>
</linearGradient>
<circle id="Oval_122_" fill="url(#Oval_1_)" cx="25.25" cy="29.2" r="2.49"/>
<path id="Path_785_" fill="#1A1626" d="M24.006,29.155c0,1.723,2.49,1.723,2.49,0C26.496,27.556,24.006,27.556,24.006,29.155z"/>
<path id="Path_784_" fill="#AB968C" d="M23.627,28.457c0,0.723,1.043,0.723,1.043,0C24.67,27.788,23.627,27.788,23.627,28.457z"/>
<path id="Path_783_" fill="#1A1626" d="M29.564,29.346c-1.012-3.251-7.908-2.771-8.848-0.585
	C21.064,25.962,28.701,25.223,29.564,29.346z"/>
<path id="Path_782_" fill="#FFFFFF" d="M34.449,29.25c-0.094,0.727,0.4,1.591,1.77,2.238c0.869,0.412,2.678,0.896,5.055-0.107
	c1.066-0.448,2.104-1.846,2.01-2.62C41.996,26.332,35.654,25.977,34.449,29.25z"/>
<linearGradient id="Oval_2_" gradientUnits="userSpaceOnUse" x1="-425.2319" y1="477.4404" x2="-425.2319" y2="478.1992" gradientTransform="matrix(6.5701 0 0 -6.5701 2832.511 3168.5281)">
	<stop  offset="0" style="stop-color:#C20606"/>
	<stop  offset="1" style="stop-color:#5E0000"/>
	<a:midPointStop  offset="0" style="stop-color:#C20606"/>
	<a:midPointStop  offset="0.5" style="stop-color:#C20606"/>
	<a:midPointStop  offset="1" style="stop-color:#5E0000"/>
</linearGradient>
<circle id="Oval_121_" fill="url(#Oval_2_)" cx="38.695" cy="29.2" r="2.49"/>
<path id="Path_781_" fill="#1A1626" d="M37.451,29.155c0,1.723,2.492,1.723,2.492,0C39.943,27.556,37.451,27.556,37.451,29.155z"/>
<path id="Path_780_" fill="#AB968C" d="M37.072,28.457c0,0.723,1.043,0.723,1.043,0C38.115,27.788,37.072,27.788,37.072,28.457z"/>
<path id="Path_779_" fill="#1A1626" d="M34.438,29.346c1.012-3.249,7.902-2.784,8.846-0.585
	C42.934,25.962,35.299,25.223,34.438,29.346z"/>
<path fill="#AB1C27" d="M32.002,40.916c-2.162-0.285-4.389-0.33-6.627-0.096c4.84,3.803,8.412,3.803,13.254,0
	C36.389,40.586,34.176,40.631,32.002,40.916z"/>
<polygon fill="#FFFFFF" points="27.52,40.836 28.35,44.15 29.232,40.92 "/>
<polygon fill="#FFFFFF" points="36.479,40.836 35.648,44.15 34.764,40.92 "/>
<path fill="#820505" d="M34.643,39.971c-1.957-0.791-2.654,0.264-2.641,0.25c0.012,0.014-0.688-1.041-2.641-0.25
	c-1.502,0.594-3.986,0.82-3.986,0.85c2.717-0.043,3.117,0.77,6.627,0.66c3.506,0.109,3.908-0.703,6.627-0.66
	C38.629,40.791,36.143,40.564,34.643,39.971z"/>
<path fill="#302C3B" d="M42.619,50.139c0,0,9.297-10.561,9.316-12.496c0,0-2-6.713-2-16.055C49.936,13.597,42.502,6,32.002,6
	s-17.936,7.597-17.936,15.588c0,9.342-2,16.055-2,16.055c0.02,1.936,9.316,12.496,9.316,12.496
	C15.92,32.597,18.9,19.534,18.9,19.534c-0.002,0,0.428,2.609,0.428,2.609s1.957,0.326,4.678,0.627
	c0.125,0.014,0.38-1.098,0.38-1.098s0.28,1.169,0.424,1.184c2.194,0.226,4.773,0.418,7.192,0.418c1.089,0,2.209-0.039,3.313-0.103
	c0.16-0.009,0.48-1.168,0.48-1.168s0.273,1.121,0.409,1.111c4.495-0.312,8.472-0.973,8.472-0.973l0.428-2.609
	C45.104,19.534,48.082,32.597,42.619,50.139z"/>
</svg>
