<?xml version="1.0" encoding="utf-8"?>
<!-- Generator: Adobe Illustrator 15.0.0, SVG Export Plug-In . SVG Version: 6.00 Build 0)  -->
<!DOCTYPE svg PUBLIC "-//W3C//DTD SVG 1.1//EN" "http://www.w3.org/Graphics/SVG/1.1/DTD/svg11.dtd" [
	<!ENTITY ns_flows "http://ns.adobe.com/Flows/1.0/">
	<!ENTITY ns_extend "http://ns.adobe.com/Extensibility/1.0/">
	<!ENTITY ns_ai "http://ns.adobe.com/AdobeIllustrator/10.0/">
	<!ENTITY ns_graphs "http://ns.adobe.com/Graphs/1.0/">
]>
<svg version="1.1" id="Layer_1" xmlns:x="&ns_extend;" xmlns:i="&ns_ai;" xmlns:graph="&ns_graphs;"
	 xmlns="http://www.w3.org/2000/svg" xmlns:xlink="http://www.w3.org/1999/xlink" xmlns:a="http://ns.adobe.com/AdobeSVGViewerExtensions/3.0/"
	 x="0px" y="0px" width="64px" height="64px" viewBox="0 0 64 64" enable-background="new 0 0 64 64" xml:space="preserve">
<path opacity="0.15" fill="#A6AEB0" d="M2,62h60V28.308c-24.664,9.24-39.113-8.317-60,0V62z"/>
<path opacity="0.15" fill="#A6AEB0" d="M62,62H2V38.429c24.666,8.542,39.115-7.688,60,0V62z"/>
<path fill="#614A36" d="M9.787,52.754c2.701-1.365,13.908-4.969,13.908-4.969h16.695c0,0,11.199,3.596,13.885,4.965
	C58.18,54.734,59,62,59,62H5C5,62,5.871,54.73,9.787,52.754z"/>
<path fill="#614A36" d="M23,49.949c0,0,2.887,2.832,9,2.832c6.111,0,9-2.832,9-2.832v-8.035H23V49.949z"/>
<path fill="#302116" d="M22.078,42.959c1.09,3.146,7.533,9.004,9.92,9.004c2.389,0,8.836-5.857,9.922-9.004
	C42.99,39.88,21.014,39.88,22.078,42.959z"/>
<path fill="#FFFFFF" d="M23,42.01c-1.307-0.445-3.596,1.879-4.223,3.178C13.119,45.963,10.059,57.264,11.32,62h16.41
	C25.137,55.303,23,42.01,23,42.01z"/>
<path fill="#F5F5F5" d="M17.381,62c-1.813-7.107,0.5-14.135,0.5-14.135S16.598,55.303,19.193,62H17.381z"/>
<path fill="#F5F5F5" d="M19.758,48.441c0,0-0.797,5.867,2.313,12.135L19.758,48.441z"/>
<path fill="#F5F5F5" d="M13.971,52.693c0,0-1.482,4.025,0.84,8.98L13.971,52.693z"/>
<path fill="#FFFFFF" d="M46.119,45.611c-0.75-2.723-3.814-4.047-5.119-3.602c0,0-0.996,13.293-3.592,19.99H52.68
	C53.947,57.242,52.408,46.525,46.119,45.611z"/>
<path fill="#F5F5F5" d="M48.035,62c1.813-7.107-0.5-14.135-0.5-14.135S48.816,55.303,46.223,62H48.035z"/>
<path fill="#F5F5F5" d="M41.035,62c1.813-7.107,1.875-16.813,1.875-16.813S42.227,55.303,39.523,62H41.035z"/>
<path fill="#F5F5F5" d="M44.932,49.025c0,0,0.797,5.867-2.313,12.135L44.932,49.025z"/>
<path fill="#F5F5F5" d="M50.082,51.982c0,0,1.875,3.859,0.055,9.021L50.082,51.982z"/>
<path fill="#1A1714" d="M47.213,38.784c1.082,0.715,2.33,1.248,3.787,1.521c-2.586-5.889,1.314-18.237-6.682-27.311
	c-11.27,0.337-12.828,36.722,2.883,31.884c-1-0.434-1.629-1.316-1.996-2.43c1.211,0.346,2.627,0.357,4.275-0.148
	C48.168,41.734,47.5,40.399,47.213,38.784z"/>
<path fill="#1A1714" d="M18.922,12.995C10.926,22.069,15.588,34.417,13,40.306c1.457-0.273,2.707-0.807,3.789-1.521
	c-0.289,1.615-0.957,2.95-2.27,3.517c1.648,0.506,3.063,0.494,4.273,0.148c-0.367,1.113-0.992,1.996-1.992,2.43
	C32.51,49.717,30.193,13.333,18.922,12.995z"/>
<path id="Path_1759_" fill="#614A36" d="M48.443,25.393c-2.547,0.307-4.383,8.815-2.783,11.059c0.225,0.314,1.535,0.814,2.508-1.166
	c0.539-1.098,2.094-2.014,2.574-4.277C51.359,28.108,50.977,25.086,48.443,25.393z"/>
<path id="Path_1758_" fill="#614A36" d="M15.559,25.393c2.547,0.307,4.385,8.815,2.783,11.059c-0.225,0.314-1.537,0.814-2.508-1.166
	c-0.539-1.098-2.094-2.014-2.574-4.277C12.643,28.108,13.027,25.086,15.559,25.393z"/>
<path id="Path_1757_" fill="#302116" d="M48.373,27.024c-0.664,0.207-1.389,1.219-1.781,2.895c2.322-0.498,1.742,3.363-0.275,3.436
	c0.018,0.389,0.045,0.787,0.092,1.207c0.973-1.408,1.959-0.844,2.938-2.939C50.227,29.731,50.018,26.509,48.373,27.024z"/>
<path id="Path_1756_" fill="#302116" d="M17.41,29.915c-0.395-1.674-1.117-2.684-1.781-2.891c-1.645-0.516-1.855,2.707-0.975,4.598
	c0.979,2.096,1.967,1.531,2.939,2.939c0.049-0.42,0.074-0.82,0.092-1.209C15.688,33.257,15.117,29.446,17.41,29.915z"/>
<path fill="#614A36" d="M32,9.035c-11.029,0-16.342,8.965-15.678,20.491c0.137,2.318,0.783,5.662,1.58,8.525
	C19.557,44.006,28.283,50,32,50s12.443-5.994,14.1-11.948c0.797-2.863,1.441-6.207,1.578-8.525C48.342,18,43.031,9.035,32,9.035z"/>
<path id="Path_1755_" fill="#403229" d="M43.982,24.543c-2.521-1.334-7.35-1.398-9.146-0.471c-0.387,0.18-0.131,1.443,0.193,1.324
	c2.504-0.99,6.547-1.012,8.893,0.084C44.234,25.624,44.365,24.729,43.982,24.543z"/>
<path id="Path_1754_" fill="#403229" d="M20.02,24.543c2.521-1.334,7.346-1.398,9.146-0.471c0.383,0.18,0.131,1.443-0.193,1.324
	c-2.51-0.99-6.547-1.012-8.895,0.084C19.766,25.624,19.637,24.729,20.02,24.543z"/>
<path id="Path_1753_" fill="#302116" d="M34.977,36.108c-0.314-0.221-1.053,0.117-2.977,0.117c-1.92,0-2.66-0.338-2.977-0.117
	c-0.375,0.264,0.225,1.461,2.977,1.461C34.754,37.569,35.355,36.372,34.977,36.108z"/>
<path id="Path_1752_" fill="#302116" d="M32,40.646c-2.48-0.729-6.156,0.344-6.156,0.344c1.4,1.524,2.426,3.499,6.156,3.499
	c4.273,0,5.002-2.242,6.158-3.499C38.158,40.989,34.48,39.913,32,40.646z"/>
<path id="Path_1751_" fill="#FFFFFF" d="M26.768,41.248c2.602,2.178,7.852,2.193,10.467,0
	C34.463,41.367,29.559,41.369,26.768,41.248z"/>
<linearGradient id="SVGID_1_" gradientUnits="userSpaceOnUse" x1="31.8374" y1="31.8174" x2="31.8374" y2="6">
	<stop  offset="0" style="stop-color:#1A1714"/>
	<stop  offset="0.0953" style="stop-color:#1F1B18"/>
	<stop  offset="0.6555" style="stop-color:#37322C"/>
	<stop  offset="1" style="stop-color:#403A33"/>
	<a:midPointStop  offset="0" style="stop-color:#1A1714"/>
	<a:midPointStop  offset="0.4" style="stop-color:#1A1714"/>
	<a:midPointStop  offset="1" style="stop-color:#403A33"/>
</linearGradient>
<path fill="url(#SVGID_1_)" d="M32.002,6c-6.711,0-10.064,3.035-10.744,4.473c-8.113,1.852-10.723,15.516-4.648,21.345
	c0.754-6.209,1.48-10.2,5.617-14.404c2.412,3.226,7.424,5.042,11.91,5.042c-2.125-1.541-3.574-3.051-4.711-4.458
	c7.494,3.433,15.885,5.63,17.969,13.82C54.604,20.36,48.615,6,32.002,6z"/>
<path opacity="0.2" fill="#A6AEB0" d="M62,62H2V48.551c24.031-7.94,37.939,8.662,60,0V62z"/>
<path fill="#302116" d="M28.842,28.86c-2.016,1.285-5.145,1.285-7.158,0c-0.309-0.197-0.494,0.016-0.396,0.182
	c1.957,3.318,5.99,3.318,7.949,0C29.334,28.876,29.148,28.663,28.842,28.86z"/>
<path fill="#302116" d="M42.316,28.86c-2.014,1.285-5.143,1.285-7.158,0c-0.311-0.197-0.49,0.016-0.395,0.182
	c1.957,3.318,5.988,3.318,7.945,0C42.811,28.876,42.625,28.663,42.316,28.86z"/>
<path fill="#1A1714" d="M21.258,10.472c-0.102,5.72,2.209,10,12.879,11.982C26.486,22.97,18.637,18.348,21.258,10.472z"/>
<path fill="#1A1714" d="M21.93,17.048c-2.787,2.745-5.914,7.503-5.32,14.769c0.553-6.004,3.313-10.95,5.811-14.153
	C22.242,17.471,22.08,17.266,21.93,17.048z"/>
<path fill="#1A1714" d="M26.705,15.235c5.596,5.342,19.344,4.994,20.689,16.583C43.807,20.545,31.648,23.075,26.705,15.235z"/>
</svg>
