<?xml version="1.0" encoding="utf-8"?>
<!-- Generator: Adobe Illustrator 15.0.0, SVG Export Plug-In . SVG Version: 6.00 Build 0)  -->
<!DOCTYPE svg PUBLIC "-//W3C//DTD SVG 1.1//EN" "http://www.w3.org/Graphics/SVG/1.1/DTD/svg11.dtd" [
	<!ENTITY ns_flows "http://ns.adobe.com/Flows/1.0/">
	<!ENTITY ns_extend "http://ns.adobe.com/Extensibility/1.0/">
	<!ENTITY ns_ai "http://ns.adobe.com/AdobeIllustrator/10.0/">
	<!ENTITY ns_graphs "http://ns.adobe.com/Graphs/1.0/">
]>
<svg version="1.1" id="Layer_1" xmlns:x="&ns_extend;" xmlns:i="&ns_ai;" xmlns:graph="&ns_graphs;"
	 xmlns="http://www.w3.org/2000/svg" xmlns:xlink="http://www.w3.org/1999/xlink" xmlns:a="http://ns.adobe.com/AdobeSVGViewerExtensions/3.0/"
	 x="0px" y="0px" width="64px" height="64px" viewBox="0 0 64 64" enable-background="new 0 0 64 64" xml:space="preserve">
<path fill="#302C3B" d="M38.844,44.301H25.156c-1.764,3.146-9.684-1.264-14.406-0.111c0,0,17.039,12.523,21.5,12.553
	c4.461-0.029,20.998-12.553,20.998-12.553C48.527,43.037,40.607,47.447,38.844,44.301z"/>
<path fill="#916B50" d="M32.596,54.008c0.807,0.25,1.605,0.41,2.4,0.418c1.393-0.494,2.99,0.895,4.469,1.201
	c1.666,0.344,4.248-0.678,5.559,0.277c1.691-0.496,2.32,1.402,1.166,1.814c0.299,0.555-0.125,0.998-0.385,1.068
	c0.209,0.479-0.199,0.982-0.428,0.99c0.119,0.361-0.17,0.76-0.518,0.834c-0.334,2.182-7.199-0.973-9.02-1.379
	c-0.793-0.18-1.381-0.893-2.361-1.346l-1.445-0.061C32.293,56.568,32.441,55.256,32.596,54.008z"/>
<path fill="#69452D" d="M44.883,57.531c0.449,0.424,1.561,0.602,1.77-0.17C46.291,57.574,46.045,57.584,44.883,57.531z"/>
<path fill="#69452D" d="M44.711,58.918c0,0,1.316,0.309,1.549-0.613C45.9,58.768,44.711,58.918,44.711,58.918z"/>
<path fill="#69452D" d="M44.482,59.998c0,0,1.051,0.242,1.307-0.607C45.43,59.85,44.482,59.998,44.482,59.998z"/>
<path fill="#69452D" d="M44.055,60.727c0,0,1.059,0.295,1.27-0.477C44.965,60.709,44.055,60.727,44.055,60.727z"/>
<path fill="#4E5E67" d="M10.768,44.111c6.32-1.305,12.377,6.596,22.545,10.098c-0.518,2.5-0.791,3.994-0.791,3.994
	c-12.787-0.576-19.326-4.461-22.725-6.781C6.943,49.471,7.008,44.889,10.768,44.111z"/>
<path fill="#916B50" d="M31.406,54.369c-0.807,0.26-1.607,0.424-2.4,0.434c-1.395-0.512-2.994,0.926-4.473,1.244
	c-1.666,0.357-4.246-0.703-5.557,0.289c-1.693-0.516-2.32,1.451-1.166,1.879c-0.299,0.574,0.123,1.033,0.387,1.107
	c-0.209,0.494,0.195,1.016,0.424,1.025c-0.115,0.375,0.174,0.785,0.52,0.863c0.332,2.26,7.201-1.008,9.018-1.43
	c0.795-0.186,1.383-0.926,2.363-1.395l1.445-0.063C31.709,57.021,31.561,55.662,31.406,54.369z"/>
<path fill="#69452D" d="M19.115,58.02c-0.449,0.439-1.559,0.623-1.77-0.178C17.709,58.064,17.955,58.074,19.115,58.02z"/>
<path fill="#69452D" d="M19.291,59.457c0,0-1.316,0.318-1.551-0.637C18.1,59.301,19.291,59.457,19.291,59.457z"/>
<path fill="#69452D" d="M19.518,60.574c0,0-1.053,0.25-1.307-0.629C18.572,60.424,19.518,60.574,19.518,60.574z"/>
<path fill="#69452D" d="M19.945,61.33c0,0-1.061,0.305-1.27-0.494C19.035,61.313,19.945,61.33,19.945,61.33z"/>
<path fill="#4E5E67" d="M53.232,44.117c-6.318-1.352-12.453,6.697-22.619,10.324c0.518,2.592,0.867,4.275,0.867,4.275
	c12.785-0.598,19.326-4.621,22.723-7.027C57.057,49.668,56.992,44.922,53.232,44.117z"/>
<path fill="#916B50" d="M61.332,41.926c-0.127-0.027-1.324,0.031-1.324,0.031s1.131-0.313,1.438-0.41
	c0.83-0.262,0.572-1.09-0.053-1.09c-0.93,0-2.055,0.4-2.055,0.4s0.008-1.203-0.135-1.986c-0.074-0.428-1.203-0.469-1.574-0.721
	c-0.088-0.061-0.176-0.072-0.26-0.066c0.93-0.658,0.355-1.43-0.094-1.252c-1.227,0.488-1.521-0.088-2.107,0.457
	c-0.41,0.383-1.834,2.402-2.221,2.291c-1.869-0.543-4.1-2.541-4.904-3.59c-3.91-5.105-2.275-12.18-8.039-11.861
	c-0.76-0.168-1.941-0.279-4.141-0.338c-0.262-0.541-0.389-1.174-0.441-1.791h-6.844c-0.053,0.617-0.178,1.25-0.441,1.791
	c-2.197,0.059-3.381,0.17-4.139,0.338c-5.766-0.318-4.129,6.756-8.039,11.861c-0.805,1.049-3.035,3.047-4.906,3.59
	c-0.387,0.111-1.811-1.908-2.221-2.291c-0.586-0.545-0.881,0.031-2.107-0.457c-0.449-0.178-1.023,0.594-0.094,1.252
	c-0.084-0.006-0.172,0.006-0.26,0.066c-0.371,0.252-1.5,0.293-1.574,0.721c-0.143,0.783-0.135,1.986-0.135,1.986
	s-1.125-0.4-2.055-0.4c-0.625,0-0.883,0.828-0.053,1.09c0.307,0.098,1.438,0.41,1.438,0.41s-1.197-0.059-1.324-0.031
	c-0.838,0.176-0.867,1.111,0.061,1.26c0.215,0.035,0.766-0.045,0.898-0.037c-0.582,0.258-0.688,1.289,0.57,1.256
	c1.701-0.047,3.266,0.244,3.92,0.244c0.496,0,2.951-0.146,3.848-1.428c0.654-0.938,4.348-1.508,6.018-2.775
	c1.215-0.926,4.023-3.256,4.828-7.002c-0.043,2.238,0.857,4.605,0.857,4.605h16.664c0,0,0.902-2.367,0.857-4.605
	c0.807,3.746,3.615,6.076,4.83,7.002c1.67,1.268,5.361,1.838,6.016,2.775c0.896,1.281,3.352,1.428,3.848,1.428
	c0.654,0,2.219-0.291,3.92-0.244c1.258,0.033,1.152-0.998,0.57-1.256c0.133-0.008,0.684,0.072,0.898,0.037
	C62.199,43.037,62.17,42.102,61.332,41.926z M8.309,39.9c-0.564,0.652-0.256,1.479-1.99,0.666c-0.229-0.314-0.311-0.762-0.146-1.105
	c0.857-0.402,0.943-0.922,0.766-1.197c0.291,0.148,0.672,0.287,1.172,0.398C8.393,39.088,8.309,39.9,8.309,39.9z M57.682,40.566
	c-1.734,0.813-1.426-0.014-1.99-0.666c0,0-0.084-0.813,0.199-1.238c0.5-0.111,0.881-0.25,1.172-0.398
	c-0.178,0.275-0.092,0.795,0.766,1.197C57.992,39.805,57.91,40.252,57.682,40.566z"/>
<path fill="#69452D" d="M8.016,42.879c0.045-0.646,0.924-2.246,2.406-2.059C9.037,41.207,8.361,42.172,8.016,42.879z"/>
<path fill="#69452D" d="M6.396,42.088c-1.979-0.16-4.992,0.074-4.293-1.361C1.951,41.949,4.828,41.715,6.396,42.088z"/>
<path fill="#69452D" d="M4.664,40.637l-0.006,0.221C5.525,41.172,5.971,41.1,5.971,41.1S5.475,40.969,4.664,40.637z"/>
<path fill="#69452D" d="M6.609,43.279c-2.396-0.434-4.9,0.689-4.541-0.893C2.119,43.654,4.305,42.512,6.609,43.279z"/>
<path fill="#69452D" d="M55.984,42.879c-0.045-0.646-0.924-2.246-2.406-2.059C54.963,41.207,55.639,42.172,55.984,42.879z"/>
<path fill="#69452D" d="M57.604,42.088c1.979-0.16,4.992,0.074,4.293-1.361C62.049,41.949,59.172,41.715,57.604,42.088z"/>
<path fill="#69452D" d="M59.336,40.637l0.006,0.221c-0.867,0.314-1.313,0.242-1.313,0.242S58.525,40.969,59.336,40.637z"/>
<path fill="#69452D" d="M57.391,43.279c2.396-0.434,4.9,0.689,4.541-0.893C61.881,43.654,59.695,42.512,57.391,43.279z"/>
<path fill="#FF7A00" d="M40.477,38.084c0,0-1.961-6.557-0.549-13.955c0.055-0.287-2.936-0.762-3.014-0.359
	c-2.143,11.158-7.688,11.156-9.828,0c-0.078-0.402-3.068,0.072-3.014,0.359c1.412,7.398-0.547,13.955-0.547,13.955
	c0.732,3.775,0.973,6.918,0.973,6.918c3.984,4.561,11.02,4.557,15.002,0C39.5,45.002,39.744,41.859,40.477,38.084z"/>
<path fill="#916B50" d="M27.74,24.545c0,0,1.367,1.453,4.26,1.453s4.26-1.453,4.26-1.453v-4.121h-8.52V24.545z"/>
<path id="Path_2187_" fill="#69452D" d="M27.049,21.289c0.543,1.43,2.361,3.637,3.477,4.094c0.703,0.287,2.246,0.287,2.949,0
	c1.115-0.457,2.934-2.664,3.477-4.094C37.484,19.891,26.518,19.891,27.049,21.289z"/>
<path fill="#3B2118" d="M39.805,18.82c0.555,0.365,1.195,0.639,1.943,0.779c-1.328-3.021,0.674-9.357-3.428-14.012
	c-5.783,0.174-6.582,18.84,1.479,16.357c-0.514-0.223-0.836-0.676-1.023-1.246c0.621,0.178,1.346,0.184,2.191-0.076
	C40.295,20.332,39.951,19.648,39.805,18.82z"/>
<path fill="#3B2118" d="M25.289,5.588c-4.102,4.654-1.709,10.99-3.037,14.012c0.748-0.141,1.389-0.414,1.943-0.779
	c-0.146,0.828-0.49,1.512-1.164,1.803c0.846,0.26,1.572,0.254,2.193,0.076c-0.189,0.57-0.51,1.023-1.023,1.246
	C32.262,24.428,31.072,5.762,25.289,5.588z"/>
<path id="Path_2186_" fill="#916B50" d="M40.436,11.947c-1.307,0.16-2.248,4.523-1.428,5.676c0.115,0.16,0.787,0.416,1.287-0.6
	c0.275-0.563,1.072-1.031,1.32-2.193C41.932,13.342,41.734,11.791,40.436,11.947z"/>
<path id="Path_2185_" fill="#916B50" d="M23.564,11.947c1.307,0.16,2.25,4.523,1.428,5.676c-0.115,0.16-0.789,0.416-1.287-0.6
	c-0.275-0.563-1.074-1.031-1.32-2.193C22.068,13.342,22.266,11.791,23.564,11.947z"/>
<path id="Path_2184_" fill="#69452D" d="M40.4,12.785c-0.342,0.107-0.713,0.625-0.914,1.486c1.191-0.256,0.893,1.725-0.143,1.762
	c0.01,0.199,0.023,0.404,0.047,0.619c0.5-0.723,1.006-0.432,1.508-1.508C41.35,14.174,41.244,12.521,40.4,12.785z"/>
<path id="Path_2183_" fill="#69452D" d="M24.514,14.27c-0.201-0.859-0.572-1.379-0.912-1.484c-0.844-0.264-0.953,1.389-0.5,2.359
	c0.502,1.076,1.008,0.785,1.508,1.508c0.023-0.215,0.037-0.42,0.047-0.621C23.631,15.984,23.338,14.027,24.514,14.27z"/>
<path fill="#916B50" d="M32,3.557c-5.658,0-8.385,4.6-8.043,10.514c0.07,1.188,0.4,2.904,0.811,4.373
	c0.848,3.055,5.326,6.129,7.232,6.129s6.383-3.074,7.232-6.129c0.41-1.469,0.74-3.186,0.811-4.373
	C40.383,8.156,37.658,3.557,32,3.557z"/>
<path id="Path_2182_" fill="#5E4431" d="M38.146,11.514c-1.293-0.686-3.77-0.719-4.691-0.242c-0.199,0.092-0.068,0.74,0.098,0.68
	c1.285-0.508,3.359-0.52,4.563,0.043C38.275,12.066,38.344,11.607,38.146,11.514z"/>
<path id="Path_2181_" fill="#5E4431" d="M25.854,11.514c1.293-0.686,3.768-0.719,4.691-0.242c0.197,0.092,0.068,0.74-0.098,0.68
	c-1.289-0.508-3.359-0.52-4.564,0.043C25.723,12.066,25.658,11.607,25.854,11.514z"/>
<path id="Path_2180_" fill="#69452D" d="M33.527,17.445c-0.162-0.111-0.541,0.063-1.527,0.063s-1.365-0.174-1.527-0.063
	c-0.193,0.137,0.115,0.75,1.527,0.75S33.721,17.582,33.527,17.445z"/>
<linearGradient id="SVGID_1_" gradientUnits="userSpaceOnUse" x1="31.9165" y1="15.2441" x2="31.9165" y2="2">
	<stop  offset="0" style="stop-color:#3B2118"/>
	<stop  offset="0.0953" style="stop-color:#40251C"/>
	<stop  offset="0.6555" style="stop-color:#58392F"/>
	<stop  offset="1" style="stop-color:#614036"/>
	<a:midPointStop  offset="0" style="stop-color:#3B2118"/>
	<a:midPointStop  offset="0.4" style="stop-color:#3B2118"/>
	<a:midPointStop  offset="1" style="stop-color:#614036"/>
</linearGradient>
<path fill="url(#SVGID_1_)" d="M32,2c-3.443,0-5.162,1.557-5.512,2.295c-4.162,0.949-5.5,7.959-2.385,10.949
	c0.387-3.186,0.76-5.232,2.883-7.389c1.236,1.654,3.809,2.586,6.109,2.586c-1.09-0.791-1.834-1.564-2.416-2.287
	c3.844,1.762,8.148,2.889,9.217,7.09C43.596,9.367,40.523,2,32,2z"/>
<path fill="#45332C" d="M30.365,13.727c-1.033,0.66-2.639,0.66-3.672,0c-0.158-0.1-0.254,0.008-0.203,0.094
	c1.004,1.703,3.072,1.703,4.078,0C30.619,13.734,30.523,13.627,30.365,13.727z"/>
<path fill="#45332C" d="M37.279,13.727c-1.033,0.66-2.639,0.66-3.674,0c-0.158-0.1-0.25,0.008-0.201,0.094
	c1.004,1.703,3.072,1.703,4.076,0C37.531,13.734,37.438,13.627,37.279,13.727z"/>
<path fill="#69452D" d="M35.121,20.025c-1.826,1.863-4.512,1.734-6.242,0C31.074,20.191,32.928,20.191,35.121,20.025z"/>
<path fill="#422C1D" d="M32,19.949c-0.869-0.279-1.66,0.227-3.121,0.076c0.725,0.334,2.014,0.447,3.121,0.48
	c1.107-0.033,2.398-0.146,3.121-0.48C33.662,20.174,32.869,19.668,32,19.949z"/>
<path fill="#3B2118" d="M26.488,4.293c-0.053,2.936,1.133,5.131,6.607,6.148C29.172,10.705,25.145,8.334,26.488,4.293z"/>
<path fill="#3B2118" d="M26.832,7.668c-1.428,1.408-3.033,3.85-2.729,7.576c0.285-3.08,1.699-5.617,2.98-7.26
	C26.994,7.885,26.91,7.779,26.832,7.668z"/>
<path fill="#3B2118" d="M29.283,6.738c2.871,2.74,9.924,2.561,10.613,8.506C38.057,9.463,31.818,10.76,29.283,6.738z"/>
</svg>
