<?xml version="1.0" encoding="utf-8"?>
<!-- Generator: Adobe Illustrator 15.0.0, SVG Export Plug-In . SVG Version: 6.00 Build 0)  -->
<!DOCTYPE svg PUBLIC "-//W3C//DTD SVG 1.1//EN" "http://www.w3.org/Graphics/SVG/1.1/DTD/svg11.dtd" [
	<!ENTITY ns_flows "http://ns.adobe.com/Flows/1.0/">
	<!ENTITY ns_extend "http://ns.adobe.com/Extensibility/1.0/">
	<!ENTITY ns_ai "http://ns.adobe.com/AdobeIllustrator/10.0/">
	<!ENTITY ns_graphs "http://ns.adobe.com/Graphs/1.0/">
]>
<svg version="1.1" id="Layer_1" xmlns:x="&ns_extend;" xmlns:i="&ns_ai;" xmlns:graph="&ns_graphs;"
	 xmlns="http://www.w3.org/2000/svg" xmlns:xlink="http://www.w3.org/1999/xlink" xmlns:a="http://ns.adobe.com/AdobeSVGViewerExtensions/3.0/"
	 x="0px" y="0px" width="64px" height="64px" viewBox="0 0 64 64" enable-background="new 0 0 64 64" xml:space="preserve">
<linearGradient id="SVGID_1_" gradientUnits="userSpaceOnUse" x1="31.0044" y1="35.2969" x2="51.2285" y2="35.2969">
	<stop  offset="0" style="stop-color:#B9F44C"/>
	<stop  offset="0.1759" style="stop-color:#95E76C"/>
	<stop  offset="0.3211" style="stop-color:#7EDE81"/>
	<stop  offset="0.4131" style="stop-color:#76DB88"/>
	<stop  offset="0.637" style="stop-color:#4AC5A3"/>
	<stop  offset="0.8767" style="stop-color:#20B0BC"/>
	<stop  offset="1" style="stop-color:#10A8C6"/>
	<a:midPointStop  offset="0" style="stop-color:#B9F44C"/>
	<a:midPointStop  offset="0.5" style="stop-color:#B9F44C"/>
	<a:midPointStop  offset="0.1759" style="stop-color:#95E76C"/>
	<a:midPointStop  offset="0.5" style="stop-color:#95E76C"/>
	<a:midPointStop  offset="0.3211" style="stop-color:#7EDE81"/>
	<a:midPointStop  offset="0.5" style="stop-color:#7EDE81"/>
	<a:midPointStop  offset="0.4131" style="stop-color:#76DB88"/>
	<a:midPointStop  offset="0.5" style="stop-color:#76DB88"/>
	<a:midPointStop  offset="0.637" style="stop-color:#4AC5A3"/>
	<a:midPointStop  offset="0.5" style="stop-color:#4AC5A3"/>
	<a:midPointStop  offset="0.8767" style="stop-color:#20B0BC"/>
	<a:midPointStop  offset="0.5" style="stop-color:#20B0BC"/>
	<a:midPointStop  offset="1" style="stop-color:#10A8C6"/>
</linearGradient>
<path fill="url(#SVGID_1_)" d="M49.381,45.567c-12.342,0.86-18.376-11.13-18.376-19.066c8.64-4.966,17.461,3.157,17.273,11.271
	C48.223,40.187,54.129,45.238,49.381,45.567z"/>
<path opacity="0.1" fill="#297124" d="M49.755,44.056c-3.864-1.409-5.648-4.766-7.543-8.32c-1.092-2.052-2.21-4.132-3.756-5.835
	c4.999-0.047,6.868,2.449,8.208,6.493c0.039,0.118,0.146,0.193,0.26,0.193c0.029,0,0.059-0.006,0.091-0.017
	c0.142-0.052,0.216-0.216,0.167-0.364c-1.429-4.312-3.567-7.127-9.274-6.869c-1.663-1.616-3.808-2.8-6.875-3.124
	c-0.151-0.018-0.287,0.101-0.301,0.26c-0.016,0.157,0.097,0.298,0.246,0.313c1.393,0.146,2.582,0.479,3.619,0.947
	c-0.854,2.615,0.229,4.167,1.485,5.946c1.22,1.726,2.603,3.683,2.603,7.184c0,0.157,0.124,0.283,0.274,0.283
	c0.153,0,0.275-0.126,0.275-0.283c0-3.688-1.504-5.814-2.712-7.523c-1.202-1.703-2.154-3.065-1.426-5.369
	c3.234,1.673,4.904,4.79,6.638,8.047c1.859,3.488,3.781,7.1,7.843,8.579c0.029,0.011,0.061,0.017,0.09,0.017
	c0.114,0,0.221-0.074,0.258-0.192C49.974,44.27,49.898,44.105,49.755,44.056z"/>
<linearGradient id="SVGID_2_" gradientUnits="userSpaceOnUse" x1="31.0044" y1="14.2939" x2="58" y2="14.2939">
	<stop  offset="0" style="stop-color:#B9F44C"/>
	<stop  offset="0.1759" style="stop-color:#95E76C"/>
	<stop  offset="0.3211" style="stop-color:#7EDE81"/>
	<stop  offset="0.4131" style="stop-color:#76DB88"/>
	<stop  offset="0.637" style="stop-color:#4AC5A3"/>
	<stop  offset="0.8767" style="stop-color:#20B0BC"/>
	<stop  offset="1" style="stop-color:#10A8C6"/>
	<a:midPointStop  offset="0" style="stop-color:#B9F44C"/>
	<a:midPointStop  offset="0.5" style="stop-color:#B9F44C"/>
	<a:midPointStop  offset="0.1759" style="stop-color:#95E76C"/>
	<a:midPointStop  offset="0.5" style="stop-color:#95E76C"/>
	<a:midPointStop  offset="0.3211" style="stop-color:#7EDE81"/>
	<a:midPointStop  offset="0.5" style="stop-color:#7EDE81"/>
	<a:midPointStop  offset="0.4131" style="stop-color:#76DB88"/>
	<a:midPointStop  offset="0.5" style="stop-color:#76DB88"/>
	<a:midPointStop  offset="0.637" style="stop-color:#4AC5A3"/>
	<a:midPointStop  offset="0.5" style="stop-color:#4AC5A3"/>
	<a:midPointStop  offset="0.8767" style="stop-color:#20B0BC"/>
	<a:midPointStop  offset="0.5" style="stop-color:#20B0BC"/>
	<a:midPointStop  offset="1" style="stop-color:#10A8C6"/>
</linearGradient>
<path fill="url(#SVGID_2_)" d="M56.648,2.289C37.616-0.607,31.004,19.047,31.004,26.501c8.744,0.423,15.301-0.571,15.524-5.846
	c0.2-4.805,7.653-2.271,6.37-9.26C52.371,8.517,61.312,2.996,56.648,2.289z"/>
<path opacity="0.2" fill="#297124" d="M47.358,9.201c3.002-1.419,6.105-2.887,8.787-5.368c0.113-0.104,0.123-0.285,0.023-0.403
	c-0.103-0.121-0.275-0.131-0.388-0.025c-2.621,2.424-5.548,3.808-8.649,5.275c-6.161,2.913-12.53,5.927-16.335,17.575
	c0.244,0.045,0.382,0.235,0.413,0.452c2.007-1.118,3.844-3.128,5.789-5.258c0.462-0.51,0.931-1.021,1.4-1.522
	c1.728,0.103,2.534,1.016,3.247,1.827c0.605,0.697,1.189,1.368,2.201,1.368c0.5,0,1.102-0.162,1.861-0.564
	c0.134-0.071,0.188-0.244,0.12-0.387c-0.067-0.141-0.232-0.196-0.366-0.125c-1.934,1.022-2.521,0.345-3.411-0.677
	c-0.684-0.779-1.531-1.713-3.168-1.954c3.459-3.6,7.227-6.488,12.448-4.21c0.138,0.061,0.301-0.007,0.359-0.152
	c0.06-0.146-0.008-0.315-0.147-0.376c-6.531-2.845-11,2.054-14.942,6.375c-1.726,1.896-3.368,3.688-5.092,4.81
	C35.259,14.927,41.407,12.014,47.358,9.201z"/>
<linearGradient id="SVGID_3_" gradientUnits="userSpaceOnUse" x1="794.334" y1="32.644" x2="811.7529" y2="32.644" gradientTransform="matrix(-1 0 0 1 825.2188 0)">
	<stop  offset="0" style="stop-color:#B9F44C"/>
	<stop  offset="0.1759" style="stop-color:#95E76C"/>
	<stop  offset="0.3211" style="stop-color:#7EDE81"/>
	<stop  offset="0.4131" style="stop-color:#76DB88"/>
	<stop  offset="0.637" style="stop-color:#4AC5A3"/>
	<stop  offset="0.8767" style="stop-color:#20B0BC"/>
	<stop  offset="1" style="stop-color:#10A8C6"/>
	<a:midPointStop  offset="0" style="stop-color:#B9F44C"/>
	<a:midPointStop  offset="0.5" style="stop-color:#B9F44C"/>
	<a:midPointStop  offset="0.1759" style="stop-color:#95E76C"/>
	<a:midPointStop  offset="0.5" style="stop-color:#95E76C"/>
	<a:midPointStop  offset="0.3211" style="stop-color:#7EDE81"/>
	<a:midPointStop  offset="0.5" style="stop-color:#7EDE81"/>
	<a:midPointStop  offset="0.4131" style="stop-color:#76DB88"/>
	<a:midPointStop  offset="0.5" style="stop-color:#76DB88"/>
	<a:midPointStop  offset="0.637" style="stop-color:#4AC5A3"/>
	<a:midPointStop  offset="0.5" style="stop-color:#4AC5A3"/>
	<a:midPointStop  offset="0.8767" style="stop-color:#20B0BC"/>
	<a:midPointStop  offset="0.5" style="stop-color:#20B0BC"/>
	<a:midPointStop  offset="1" style="stop-color:#10A8C6"/>
</linearGradient>
<path fill="url(#SVGID_3_)" d="M15.057,41.49c10.63,0.741,15.827-9.585,15.827-16.423c-7.44-4.277-15.039,2.72-14.877,9.709
	C16.056,36.852,10.968,41.204,15.057,41.49z"/>
<path opacity="0.1" fill="#297124" d="M14.732,40.188c3.329-1.215,4.867-4.105,6.501-7.165c0.94-1.77,1.902-3.561,3.236-5.026
	c-4.307-0.041-5.918,2.107-7.071,5.59c-0.035,0.103-0.126,0.167-0.225,0.167c-0.027,0-0.051-0.004-0.078-0.014
	c-0.122-0.045-0.188-0.186-0.144-0.313c1.229-3.714,3.073-6.139,7.987-5.917c1.433-1.394,3.28-2.41,5.922-2.689
	c0.13-0.017,0.246,0.084,0.26,0.224c0.012,0.134-0.082,0.257-0.212,0.269c-1.202,0.126-2.224,0.413-3.117,0.814
	c0.736,2.257-0.196,3.59-1.28,5.123c-1.051,1.485-2.241,3.173-2.241,6.188c0,0.136-0.106,0.246-0.236,0.246s-0.235-0.11-0.235-0.246
	c0-3.179,1.294-5.009,2.335-6.48c1.033-1.467,1.855-2.641,1.226-4.625c-2.786,1.441-4.222,4.127-5.715,6.93
	c-1.6,3.006-3.259,6.117-6.755,7.389c-0.025,0.011-0.053,0.017-0.078,0.017c-0.099,0-0.189-0.064-0.223-0.166
	C14.545,40.372,14.61,40.231,14.732,40.188z"/>
<linearGradient id="SVGID_4_" gradientUnits="userSpaceOnUse" x1="794.334" y1="14.5527" x2="817.585" y2="14.5527" gradientTransform="matrix(-1 0 0 1 825.2188 0)">
	<stop  offset="0" style="stop-color:#B9F44C"/>
	<stop  offset="0.1759" style="stop-color:#95E76C"/>
	<stop  offset="0.3211" style="stop-color:#7EDE81"/>
	<stop  offset="0.4131" style="stop-color:#76DB88"/>
	<stop  offset="0.637" style="stop-color:#4AC5A3"/>
	<stop  offset="0.8767" style="stop-color:#20B0BC"/>
	<stop  offset="1" style="stop-color:#10A8C6"/>
	<a:midPointStop  offset="0" style="stop-color:#B9F44C"/>
	<a:midPointStop  offset="0.5" style="stop-color:#B9F44C"/>
	<a:midPointStop  offset="0.1759" style="stop-color:#95E76C"/>
	<a:midPointStop  offset="0.5" style="stop-color:#95E76C"/>
	<a:midPointStop  offset="0.3211" style="stop-color:#7EDE81"/>
	<a:midPointStop  offset="0.5" style="stop-color:#7EDE81"/>
	<a:midPointStop  offset="0.4131" style="stop-color:#76DB88"/>
	<a:midPointStop  offset="0.5" style="stop-color:#76DB88"/>
	<a:midPointStop  offset="0.637" style="stop-color:#4AC5A3"/>
	<a:midPointStop  offset="0.5" style="stop-color:#4AC5A3"/>
	<a:midPointStop  offset="0.8767" style="stop-color:#20B0BC"/>
	<a:midPointStop  offset="0.5" style="stop-color:#20B0BC"/>
	<a:midPointStop  offset="1" style="stop-color:#10A8C6"/>
</linearGradient>
<path fill="url(#SVGID_4_)" d="M8.798,4.213c16.393-2.495,22.086,14.435,22.086,20.854c-7.531,0.363-13.18-0.494-13.37-5.034
	c-0.173-4.138-6.591-1.959-5.487-7.976C12.481,9.579,4.781,4.825,8.798,4.213z"/>
<path opacity="0.2" fill="#297124" d="M16.797,10.167c-2.585-1.222-5.259-2.487-7.566-4.623c-0.099-0.09-0.106-0.246-0.02-0.348
	c0.087-0.104,0.236-0.111,0.332-0.022c2.257,2.087,4.779,3.279,7.449,4.543c5.306,2.51,10.793,5.105,14.071,15.138
	c-0.209,0.04-0.329,0.203-0.354,0.392c-1.731-0.963-3.313-2.694-4.987-4.531c-0.399-0.438-0.801-0.877-1.206-1.312
	c-1.487,0.088-2.184,0.876-2.796,1.577c-0.521,0.599-1.024,1.177-1.898,1.177c-0.429,0-0.948-0.141-1.602-0.486
	c-0.116-0.063-0.163-0.211-0.104-0.331c0.06-0.122,0.201-0.17,0.317-0.109c1.666,0.88,2.172,0.298,2.939-0.585
	c0.586-0.67,1.317-1.474,2.725-1.682c-2.977-3.101-6.221-5.587-10.721-3.625c-0.12,0.051-0.26-0.006-0.309-0.133
	c-0.052-0.124,0.006-0.271,0.128-0.322c5.627-2.451,9.473,1.767,12.871,5.49c1.483,1.631,2.899,3.178,4.383,4.145
	C27.219,15.099,21.925,12.59,16.797,10.167z"/>
<path fill="#FFCC66" d="M24.531,19.284c-0.698-0.273-2.844,0.938-3.62,1.633c-2.209,0.291-4.003,1.654-4.384,1.358
	c-1.876-1.46-4.072-2.437-6.421-5.542c0-1.964-5.34,1.097-1.768,2.046c2.334,0.736,4.271,5.628,7.263,7.231
	c0.84,0.45,6.6-0.33,8.93-1.838C25.239,22.534,25.313,20.437,24.531,19.284z"/>
<path fill="#FFCC66" d="M37.084,52.952c0.012-0.789-1.19-1.104-2.802-0.189c-2.645-1.093-1.884-2.705-4.401-4.259
	c-0.277-0.172-5.079-1.341-5.073-1.323c0.395,1.181-0.024,2.967,2.089,4.443c2.744,1.921,6.69,4.959,6.69,4.959
	c1.582,1.438,2.535,4.36,4.655,5.117C40.462,62.494,36.986,58.772,37.084,52.952z"/>
<path fill="#FFCC66" d="M47.732,53.915c-0.033-0.892-1.334-2.482-3.077-1.421c-3.028-1.176-2.546-3.005-5.102-5.308
	c-0.325-0.293-6.354,0.113-6.188,0.298c0.551,0.612,0.909,1.694,1.993,2.407c3.19,2.103,8.695,6.43,8.695,6.43
	c1.254,0.848,2.78,4.717,4.551,5.449C51.081,62.787,47.992,60.47,47.732,53.915z"/>
<linearGradient id="SVGID_5_" gradientUnits="userSpaceOnUse" x1="32.3296" y1="52.1064" x2="32.3296" y2="34.1533">
	<stop  offset="0" style="stop-color:#00B5B5"/>
	<stop  offset="0.3473" style="stop-color:#00C2BC"/>
	<stop  offset="1" style="stop-color:#00D6C8"/>
	<a:midPointStop  offset="0" style="stop-color:#00B5B5"/>
	<a:midPointStop  offset="0.4545" style="stop-color:#00B5B5"/>
	<a:midPointStop  offset="1" style="stop-color:#00D6C8"/>
</linearGradient>
<path fill="url(#SVGID_5_)" d="M39.26,47.927c-0.999-1.771,2.957,1.383,0.401-0.92c-3.855-3.475-1.5-7.554-3.892-12.854
	c-5.82,1.449-9.932,0.17-9.932,0.17c-1.5,3.874-2.301,9.674-1.209,12.945c0.395,1.181,0.316,2.923,2.09,4.477
	c1.127,0.987,0.581-0.325,0.323-0.659c-0.466-0.602,1.688,0.482,1.396,0.069c-0.862-1.223,0.888-0.601,0.491-1.101
	c-1.14-1.439,1.722,0.081,1.313-0.404c-0.834-0.991,1.209-0.307-0.17-1.158c-0.958-0.592,0.783-3.649,0.358-6.918
	c1.167,3.269,1.92,4.785,2.936,5.91c0.551,0.612,0.713,1.609,1.684,2.458c1.148,1.004,0.753-0.02,0.551-0.584
	c-0.535-1.498,2.235,1.168,1.433-0.165c-1.046-1.735,2.156,0.524,1.684-0.27C37.496,46.871,39.771,48.834,39.26,47.927z"/>
<path fill="#FFCC66" d="M42.927,25.752c-1.271-1.099-1.318-2.356-3.664-3.87c-1.558-2.979-4.993-3.059-4.993-3.059
	c-0.499,0.253,0.371,5.62,5.906,8.705c1.62,0.903,0.352,1.133,3.184,5.981c-0.033,4.027,0.661,4.935,1.016,2.915
	c0.408-0.18,0.377,0.257,1.054,1.594c1.336,2.644,1.269-0.992,1.269-0.992c0.793-0.533-0.703-3.131-1.229-4.224
	C44.646,31.096,44.905,27.462,42.927,25.752z"/>
<linearGradient id="SVGID_6_" gradientUnits="userSpaceOnUse" x1="30.0562" y1="34.6514" x2="30.0562" y2="18.1372">
	<stop  offset="0" style="stop-color:#00D6C8"/>
	<stop  offset="0.6527" style="stop-color:#00C2BC"/>
	<stop  offset="1" style="stop-color:#00B5B5"/>
	<a:midPointStop  offset="0" style="stop-color:#00D6C8"/>
	<a:midPointStop  offset="0.5455" style="stop-color:#00D6C8"/>
	<a:midPointStop  offset="1" style="stop-color:#00B5B5"/>
</linearGradient>
<path fill-rule="evenodd" clip-rule="evenodd" fill="url(#SVGID_6_)" d="M25.938,32.736c0.017-3.268-1.709-5.085-2.221-8.125
	c-0.173-1.026,1.16-4.281,0.514-5.366c1.328-1.319,9.082-1.62,11.915-0.022c-0.676,1.152,0.511,3.783,0.217,5.109
	c-0.645,2.896-1.173,4.303-0.756,7.959C35.857,34.5,27.05,36.054,25.938,32.736z"/>
<path fill="#00B5C2" d="M35.606,32.291c-1.965,2.337-8.215,2.761-9.668,0.468c-0.207,0.103-0.283,1.297-0.101,1.564
	c1.359,1.997,6.101,2.446,9.932-0.17C36.003,33.918,35.727,32.291,35.606,32.291z"/>
<path fill="#FFCC66" d="M27.762,17.744c-1.524,1.856,2.396,9.145,2.396,9.145s3.921-7.288,2.396-9.145
	C31.817,16.845,28.5,16.845,27.762,17.744z"/>
<path fill="#00E0E0" d="M26.566,22.157c0,0.606-0.957,0.606-0.957,0C25.609,21.55,26.566,21.55,26.566,22.157z"/>
<path fill="#00E0E0" d="M33.688,27.98c0,0.607-0.958,0.607-0.958,0S33.688,27.373,33.688,27.98z"/>
<path fill="#00E0E0" d="M28.119,29.261c0,0.607-0.956,0.607-0.956,0S28.119,28.653,28.119,29.261z"/>
<path fill="#00E0E0" d="M32.448,32.535c0,0.607-0.957,0.607-0.957,0S32.448,31.928,32.448,32.535z"/>
<path fill="#00E0E0" d="M34.245,23.202c0,0.607-0.957,0.607-0.957,0S34.245,22.595,34.245,23.202z"/>
<path fill="#7DE0FF" d="M32.569,25.57c0,0.306-0.48,0.306-0.48,0C32.088,25.266,32.569,25.266,32.569,25.57z"/>
<path fill="#7DE0FF" d="M34.997,20.649c0,0.306-0.481,0.306-0.481,0C34.516,20.345,34.997,20.345,34.997,20.649z"/>
<path fill="#7DE0FF" d="M25.975,19.992c0,0.306-0.481,0.306-0.481,0S25.975,19.687,25.975,19.992z"/>
<path fill="#7DE0FF" d="M25.849,24.884c0,0.306-0.481,0.306-0.481,0S25.849,24.578,25.849,24.884z"/>
<path fill="#7DE0FF" d="M29.133,32.291c0,0.306-0.481,0.306-0.481,0C28.652,31.986,29.133,31.986,29.133,32.291z"/>
<path fill="#7DE0FF" d="M31.491,29.486c0,0.306-0.481,0.306-0.481,0C31.009,29.182,31.491,29.182,31.491,29.486z"/>
<path fill="#7DE0FF" d="M34.389,31.153c0,0.306-0.48,0.306-0.48,0S34.389,30.848,34.389,31.153z"/>
<path fill="#7DE0FF" d="M34.997,25.112c0,0.306-0.481,0.306-0.481,0C34.516,24.808,34.997,24.808,34.997,25.112z"/>
<path fill="#7DE0FF" d="M28.542,26.596c0,0.306-0.48,0.306-0.48,0C28.062,26.291,28.542,26.291,28.542,26.596z"/>
<path fill="#FFCC66" d="M27.509,18.763c0,0,0.854,0.908,2.663,0.908s2.663-0.908,2.663-0.908v-2.576h-5.326V18.763z"/>
<path id="Path_93_" fill="#E6B045" d="M27.078,16.727c0.34,0.895,1.477,2.273,2.173,2.56c0.439,0.18,1.404,0.18,1.844,0
	c0.696-0.286,1.834-1.665,2.173-2.56C33.601,15.853,26.746,15.853,27.078,16.727z"/>
<path id="Path_535_" fill="#FFCC66" d="M35.581,10.67c-0.837,0.102-1.441,2.905-0.915,3.645c0.073,0.104,0.505,0.269,0.825-0.384
	c0.177-0.361,0.688-0.663,0.847-1.409C36.541,11.565,36.414,10.569,35.581,10.67z"/>
<path id="Path_534_" fill="#FFCC66" d="M24.764,10.67c0.838,0.102,1.442,2.905,0.915,3.645c-0.073,0.104-0.506,0.269-0.825-0.384
	c-0.178-0.361-0.688-0.663-0.847-1.409C23.804,11.565,23.931,10.568,24.764,10.67z"/>
<path id="Path_533_" fill="#DB9D3A" d="M35.559,11.208c-0.219,0.068-0.457,0.401-0.586,0.954c0.764-0.164,0.572,1.108-0.091,1.132
	c0.006,0.128,0.015,0.26,0.03,0.398c0.319-0.465,0.645-0.278,0.966-0.969C36.168,12.101,36.1,11.038,35.559,11.208z"/>
<path id="Path_532_" fill="#DB9D3A" d="M25.373,12.16c-0.13-0.552-0.367-0.885-0.586-0.952c-0.541-0.171-0.61,0.893-0.32,1.516
	c0.322,0.69,0.647,0.504,0.967,0.969c0.017-0.14,0.024-0.271,0.03-0.399C24.806,13.263,24.619,12.006,25.373,12.16z"/>
<path id="Path_531_" fill="#FFCC66" d="M30.172,5.279c-3.628,0-5.376,2.744-5.156,6.562c0.044,0.768,0.52,3.271,0.969,4.17
	c0.461,0.919,1.998,2.336,2.94,2.63c0.596,0.185,1.898,0.185,2.494,0c0.942-0.294,2.481-1.711,2.941-2.63
	c0.45-0.898,0.926-3.402,0.969-4.17C35.549,8.023,33.801,5.279,30.172,5.279z"/>
<path id="Path_530_" fill="#966F42" d="M34.114,10.391c-0.83-0.439-2.418-0.461-3.009-0.155c-0.127,0.06-0.043,0.476,0.063,0.436
	c0.824-0.325,2.154-0.333,2.925,0.028C34.197,10.746,34.24,10.451,34.114,10.391z"/>
<path id="Path_529_" fill="#966F42" d="M26.231,10.391c0.83-0.439,2.416-0.461,3.009-0.155c0.127,0.06,0.043,0.476-0.063,0.436
	c-0.825-0.325-2.153-0.333-2.926,0.028C26.148,10.746,26.105,10.451,26.231,10.391z"/>
<path id="Path_528_" fill="#DB9D3A" d="M31.151,14.201c-0.104-0.072-0.347,0.039-0.979,0.039s-0.875-0.111-0.979-0.039
	c-0.124,0.088,0.074,0.482,0.979,0.482S31.276,14.289,31.151,14.201z"/>
<path id="Path_527_" fill="#DB9D3A" d="M30.172,15.696c-0.815-0.24-2.025,0.114-2.025,0.114c0.461,0.501,0.798,1.152,2.025,1.152
	c1.406,0,1.646-0.739,2.025-1.152C32.198,15.811,30.988,15.455,30.172,15.696z"/>
<path id="Path_526_" fill="#FFFFFF" d="M28.451,15.896c0.855,0.718,2.583,0.722,3.443,0C30.983,15.935,29.369,15.935,28.451,15.896z
	"/>
<path id="Path_525_" fill="#FFFFFF" d="M29.365,11.888c0.031,0.24-0.132,0.524-0.583,0.738c-0.287,0.135-0.883,0.295-1.666-0.036
	c-0.352-0.147-0.693-0.608-0.663-0.864C26.877,10.926,28.967,10.808,29.365,11.888z"/>
<linearGradient id="Oval_1_" gradientUnits="userSpaceOnUse" x1="-424.1689" y1="480.333" x2="-424.1689" y2="480.583" gradientTransform="matrix(6.5701 0 0 -6.5701 2814.7805 3168.5281)">
	<stop  offset="0" style="stop-color:#A6694A"/>
	<stop  offset="1" style="stop-color:#4F2A1E"/>
	<a:midPointStop  offset="0" style="stop-color:#A6694A"/>
	<a:midPointStop  offset="0.5" style="stop-color:#A6694A"/>
	<a:midPointStop  offset="1" style="stop-color:#4F2A1E"/>
</linearGradient>
<circle id="Oval_72_" fill="url(#Oval_1_)" cx="27.947" cy="11.871" r="0.821"/>
<path id="Path_524_" fill="#1A1626" d="M27.537,11.856c0,0.567,0.821,0.567,0.821,0C28.358,11.329,27.537,11.329,27.537,11.856z"/>
<path id="Path_523_" fill="#AB968C" d="M27.412,11.626c0,0.238,0.344,0.238,0.344,0C27.755,11.405,27.412,11.405,27.412,11.626z"/>
<path id="Path_522_" fill="#DB9D3A" d="M29.369,11.919c-0.333-1.072-2.606-0.913-2.916-0.193
	C26.568,10.804,29.084,10.56,29.369,11.919z"/>
<path id="Path_521_" fill="#FFFFFF" d="M30.979,11.888c-0.03,0.24,0.133,0.524,0.584,0.738c0.286,0.135,0.883,0.295,1.667-0.036
	c0.352-0.147,0.693-0.608,0.663-0.864C33.468,10.926,31.376,10.808,30.979,11.888z"/>
<linearGradient id="Oval_2_" gradientUnits="userSpaceOnUse" x1="-426.1929" y1="480.333" x2="-426.1929" y2="480.583" gradientTransform="matrix(6.5701 0 0 -6.5701 2832.511 3168.5281)">
	<stop  offset="0" style="stop-color:#A6694A"/>
	<stop  offset="1" style="stop-color:#4F2A1E"/>
	<a:midPointStop  offset="0" style="stop-color:#A6694A"/>
	<a:midPointStop  offset="0.5" style="stop-color:#A6694A"/>
	<a:midPointStop  offset="1" style="stop-color:#4F2A1E"/>
</linearGradient>
<circle id="Oval_71_" fill="url(#Oval_2_)" cx="32.379" cy="11.871" r="0.821"/>
<path id="Path_520_" fill="#1A1626" d="M31.969,11.856c0,0.567,0.821,0.567,0.821,0C32.791,11.329,31.969,11.329,31.969,11.856z"/>
<path id="Path_519_" fill="#AB968C" d="M31.844,11.626c0,0.238,0.345,0.238,0.345,0C32.189,11.405,31.844,11.405,31.844,11.626z"/>
<path id="Path_518_" fill="#DB9D3A" d="M30.976,11.919c0.333-1.071,2.605-0.918,2.917-0.193
	C33.777,10.804,31.259,10.56,30.976,11.919z"/>
<linearGradient id="SVGID_7_" gradientUnits="userSpaceOnUse" x1="30.1724" y1="4.2354" x2="30.1724" y2="13.0084">
	<stop  offset="0.103" style="stop-color:#00EDD1"/>
	<stop  offset="0.1777" style="stop-color:#00E5CA"/>
	<stop  offset="0.508" style="stop-color:#00C8B0"/>
	<stop  offset="0.7936" style="stop-color:#00B6A1"/>
	<stop  offset="1" style="stop-color:#00B09B"/>
	<a:midPointStop  offset="0.103" style="stop-color:#00EDD1"/>
	<a:midPointStop  offset="0.3624" style="stop-color:#00EDD1"/>
	<a:midPointStop  offset="1" style="stop-color:#00B09B"/>
</linearGradient>
<path fill="url(#SVGID_7_)" d="M34.806,6.188c-0.794-1.074-2.248-1.409-4.633-1.409s-3.839,0.335-4.633,1.409
	c-1.124,1.521-0.742,6.591-0.242,6.591c0.08,0,0.091-1.773,0.242-3c0.123-0.999,0.36-1.967,0.633-2.125
	c0.833-0.483,2.438,0.207,4,0.207c1.561,0,3.167-0.69,4-0.207c0.272,0.158,0.51,1.126,0.633,2.125c0.151,1.227,0.163,3,0.242,3
	C35.548,12.779,35.93,7.71,34.806,6.188z"/>
<path fill="#00EDD1" d="M34.806,6.189c-0.767-1.095-2.248-1.923-4.633-1.91l0,0l0,0c-2.386-0.013-3.866,0.815-4.633,1.91
	c0,0,1.951,1.672,4.633,1.672S34.911,7.522,34.806,6.189z"/>
<linearGradient id="SVGID_8_" gradientUnits="userSpaceOnUse" x1="28.9038" y1="4.2363" x2="28.9038" y2="13.0072">
	<stop  offset="0.103" style="stop-color:#00EDD1"/>
	<stop  offset="0.1777" style="stop-color:#00E5CA"/>
	<stop  offset="0.508" style="stop-color:#00C8B0"/>
	<stop  offset="0.7936" style="stop-color:#00B6A1"/>
	<stop  offset="1" style="stop-color:#00B09B"/>
	<a:midPointStop  offset="0.103" style="stop-color:#00EDD1"/>
	<a:midPointStop  offset="0.3624" style="stop-color:#00EDD1"/>
	<a:midPointStop  offset="1" style="stop-color:#00B09B"/>
</linearGradient>
<path fill="url(#SVGID_8_)" d="M25.506,5.62c-0.413,2.087,3.213,2.97,6.827,2.397C28.591,7.686,26.78,6.977,25.506,5.62z"/>
<path fill="#00EDD1" d="M25.506,5.62c0.338,1.538,2.756,2.28,4.51,2.375C27.177,7.266,26.88,5.929,25.506,5.62z"/>
<linearGradient id="SVGID_9_" gradientUnits="userSpaceOnUse" x1="29.8784" y1="4.2358" x2="29.8784" y2="13.0069">
	<stop  offset="0.103" style="stop-color:#00EDD1"/>
	<stop  offset="0.1777" style="stop-color:#00E5CA"/>
	<stop  offset="0.508" style="stop-color:#00C8B0"/>
	<stop  offset="0.7936" style="stop-color:#00B6A1"/>
	<stop  offset="1" style="stop-color:#00B09B"/>
	<a:midPointStop  offset="0.103" style="stop-color:#00EDD1"/>
	<a:midPointStop  offset="0.3624" style="stop-color:#00EDD1"/>
	<a:midPointStop  offset="1" style="stop-color:#00B09B"/>
</linearGradient>
<path fill="url(#SVGID_9_)" d="M25.817,5.183c-0.053,2.308,4.767,3.855,8.125,2.353C32.238,5.873,27.425,6.337,25.817,5.183z"/>
<path fill="#00EDD1" d="M25.817,5.183c0.888,1.648,3.447,2.823,6.395,2.289C28.731,6.876,27.887,5.144,25.817,5.183z"/>
<path fill="#00EDD1" d="M26.364,4.846c1.383,1.188,7.375,4.108,8.226,1.802C33.704,7.792,30.583,4.385,26.364,4.846z"/>
<linearGradient id="SVGID_10_" gradientUnits="userSpaceOnUse" x1="30.5229" y1="4.2354" x2="30.5229" y2="13.0079">
	<stop  offset="0.103" style="stop-color:#00EDD1"/>
	<stop  offset="0.1777" style="stop-color:#00E5CA"/>
	<stop  offset="0.508" style="stop-color:#00C8B0"/>
	<stop  offset="0.7936" style="stop-color:#00B6A1"/>
	<stop  offset="1" style="stop-color:#00B09B"/>
	<a:midPointStop  offset="0.103" style="stop-color:#00EDD1"/>
	<a:midPointStop  offset="0.3624" style="stop-color:#00EDD1"/>
	<a:midPointStop  offset="1" style="stop-color:#00B09B"/>
</linearGradient>
<path fill="url(#SVGID_10_)" d="M26.364,4.846c0.23,1.833,6.961,4.267,8.319,2.045C32.639,7.896,27.537,5.929,26.364,4.846z"/>
<linearGradient id="SVGID_11_" gradientUnits="userSpaceOnUse" x1="31.8594" y1="4.2349" x2="31.8594" y2="13.0095">
	<stop  offset="0.103" style="stop-color:#00EDD1"/>
	<stop  offset="0.1777" style="stop-color:#00E5CA"/>
	<stop  offset="0.508" style="stop-color:#00C8B0"/>
	<stop  offset="0.7936" style="stop-color:#00B6A1"/>
	<stop  offset="1" style="stop-color:#00B09B"/>
	<a:midPointStop  offset="0.103" style="stop-color:#00EDD1"/>
	<a:midPointStop  offset="0.3624" style="stop-color:#00EDD1"/>
	<a:midPointStop  offset="1" style="stop-color:#00B09B"/>
</linearGradient>
<path fill="url(#SVGID_11_)" d="M28.904,5.279c1.592,1.625,6.15,3.133,5.902,0.91C34.713,7.231,31.106,6.469,28.904,5.279z"/>
<path fill="#FFE12C" d="M12.015,9.558L6.788,23.111c-0.08,0.208-0.861-0.072-0.782-0.278l5.188-13.46
	C11.751,9.082,12.015,9.558,12.015,9.558z"/>
<polygon fill="#F9C802" points="12.563,11.471 12.882,9.719 14.567,8.972 12.925,8.145 12.709,6.377 11.375,7.616 9.551,7.271 
	10.373,8.867 9.462,10.419 11.302,10.164 "/>
<path fill="#FFCC66" d="M7.832,18.101c0,0,0.445-0.16,0.332-0.692c0.504-0.006,0.595-0.541,0.431-0.823
	c0.204,0.034,0.409-0.352,0.409-0.352s-0.228,1.414,0.27,1.731c1.09,0.698,1.634-0.494,1.559-0.938
	c-0.234-1.371-1.484-1.371-1.984-2.589c-0.09-0.219-0.891-0.067-0.571,0.975c0,0-0.69-0.29-0.772,0.642
	c-0.468-0.239-0.771,0.559-0.458,0.858c-0.537,0.351-0.419,0.872-0.2,0.989C6.399,18.862,8.19,19.169,7.832,18.101z"/>
<path fill="#E6B045" d="M7.832,18.101c-0.373-0.022-0.983-0.199-0.983-0.199S7.315,18.217,7.832,18.101z"/>
<path fill="#E6B045" d="M8.164,17.408c-0.372-0.023-1.116-0.496-1.116-0.496S7.648,17.524,8.164,17.408z"/>
<path fill="#E6B045" d="M8.595,16.585c-0.372-0.021-1.089-0.531-1.089-0.531S8.079,16.701,8.595,16.585z"/>
<path fill="#E6B045" d="M9.004,16.234c-0.106-0.544-0.727-0.821-0.727-0.821S8.741,15.816,9.004,16.234z"/>
</svg>
