<?xml version="1.0" encoding="utf-8"?>
<!-- Generator: Adobe Illustrator 15.0.0, SVG Export Plug-In . SVG Version: 6.00 Build 0)  -->
<!DOCTYPE svg PUBLIC "-//W3C//DTD SVG 1.1//EN" "http://www.w3.org/Graphics/SVG/1.1/DTD/svg11.dtd" [
	<!ENTITY ns_flows "http://ns.adobe.com/Flows/1.0/">
	<!ENTITY ns_extend "http://ns.adobe.com/Extensibility/1.0/">
	<!ENTITY ns_ai "http://ns.adobe.com/AdobeIllustrator/10.0/">
	<!ENTITY ns_graphs "http://ns.adobe.com/Graphs/1.0/">
]>
<svg version="1.1" id="Layer_1" xmlns:x="&ns_extend;" xmlns:i="&ns_ai;" xmlns:graph="&ns_graphs;"
	 xmlns="http://www.w3.org/2000/svg" xmlns:xlink="http://www.w3.org/1999/xlink" xmlns:a="http://ns.adobe.com/AdobeSVGViewerExtensions/3.0/"
	 x="0px" y="0px" width="64px" height="64px" viewBox="0 0 64 64" enable-background="new 0 0 64 64" xml:space="preserve">
<path fill="#EBC199" d="M9.177,19.459c4.826-1.156,5.113-0.963,5.213-4.492c0.727-0.609,4.666-0.609,5.389,0
	c0.1,3.529,0.389,3.336,5.217,4.492c0.184-0.072,3.904,0.035,3.043,4.205c-0.383,1.855-3.773,3.174-4.197,6.307H10.329
	c-0.426-3.133-3.816-4.451-4.199-6.307C5.267,19.495,8.983,19.383,9.177,19.459z"/>
<linearGradient id="SVGID_1_" gradientUnits="userSpaceOnUse" x1="-1786.8867" y1="49.0293" x2="-1786.8867" y2="21.6211" gradientTransform="matrix(-1 -0.0013 -0.0013 1 -1741.2678 0.8938)">
	<stop  offset="0.2303" style="stop-color:#FFAA00"/>
	<stop  offset="0.2354" style="stop-color:#FFAA00"/>
	<stop  offset="0.7101" style="stop-color:#FF9100"/>
	<stop  offset="1" style="stop-color:#FF8800"/>
	<a:midPointStop  offset="0.2303" style="stop-color:#FFAA00"/>
	<a:midPointStop  offset="0.4016" style="stop-color:#FFAA00"/>
	<a:midPointStop  offset="1" style="stop-color:#FF8800"/>
</linearGradient>
<path fill="url(#SVGID_1_)" d="M55.282,24.85c8.686,24-5.893,20.613-9.666,27.396c-0.309-6.725-20.143-6.02-9.152-24.603
	c0.42,5.939,6.652,6.578,9.768,15.238C46.94,32.932,54.364,33.65,55.282,24.85z"/>
<linearGradient id="SVGID_2_" gradientUnits="userSpaceOnUse" x1="-1787.9858" y1="46.2188" x2="-1751.5078" y2="46.2188" gradientTransform="matrix(-1 -0.0013 -0.0013 1 -1741.2678 0.8938)">
	<stop  offset="0.1394" style="stop-color:#FFAA00"/>
	<stop  offset="0.8727" style="stop-color:#FF8800"/>
	<a:midPointStop  offset="0.1394" style="stop-color:#FFAA00"/>
	<a:midPointStop  offset="0.5175" style="stop-color:#FFAA00"/>
	<a:midPointStop  offset="0.8727" style="stop-color:#FF8800"/>
</linearGradient>
<path fill="url(#SVGID_2_)" d="M11.671,36.807c-0.746,1.744-1.875,4.424-1.348,8.348c3.088,23.008,31.129,19.68,35.908,6.49
	c0.48-1.33,1.102-2.287-1.576-0.932c-7.188,3.627-12.514,3.807-17.273-7.008c-1.092-2.482-3.096-5.463-4.852-6.875
	C18.108,37.145,16.979,37.764,11.671,36.807z"/>
<path fill="#EBC199" d="M11.624,37.158c0,2.666,10.918,2.666,10.918,0c0,0,0.859-6.25,2.551-9.333H9.073
	C10.767,30.909,11.624,37.158,11.624,37.158z"/>
<path fill="#C99B71" d="M10.796,32.825c-0.602-1.793-1.785-7.273-0.957-8.672c1.707,1.332,1.398,3.238,2.098,3.129
	c3.768-0.58,7.844-1.059,9.938,0.594c0.281,0.223,0.938-2.406,1.758-3.723c0.809,1.594,0.422,6.973-0.313,8.77
	C17.534,32.532,14.567,31.454,10.796,32.825z"/>
<path fill="#C99B71" d="M16.415,35.961c0.361,1.295-0.314,1.148-0.135,1.576C16.452,37.947,17.573,37.23,16.415,35.961z"/>
<path fill="#C99B71" d="M13.808,16.18c0.385,1.301,2.414,2.611,3.277,2.611s2.891-1.311,3.275-2.611
	C20.546,15.555,13.624,15.555,13.808,16.18z"/>
<path fill="#FF4C00" d="M22.69,14.079c0.396,0.264,0.857,0.459,1.395,0.561c-0.953-2.17,0.484-6.719-2.461-10.063
	c-4.154,0.125-4.727,13.529,1.061,11.746c-0.367-0.158-0.6-0.484-0.734-0.895c0.445,0.127,0.967,0.133,1.574-0.055
	C23.042,15.165,22.794,14.674,22.69,14.079z"/>
<path fill="#FF4C00" d="M12.267,4.577c-2.945,3.344-1.229,7.893-2.182,10.063c0.537-0.102,0.996-0.297,1.396-0.561
	c-0.107,0.596-0.354,1.086-0.836,1.295c0.605,0.188,1.127,0.182,1.574,0.055c-0.137,0.41-0.367,0.736-0.734,0.895
	C17.272,18.106,16.419,4.702,12.267,4.577z"/>
<path id="Path_927_" fill="#EBC199" d="M23.142,9.145c-0.938,0.113-1.613,3.248-1.025,4.074c0.084,0.115,0.566,0.299,0.926-0.43
	c0.197-0.404,0.77-0.742,0.947-1.576C24.216,10.145,24.077,9.032,23.142,9.145z"/>
<path id="Path_926_" fill="#EBC199" d="M11.028,9.145c0.938,0.113,1.613,3.248,1.023,4.074c-0.082,0.115-0.564,0.299-0.924-0.43
	c-0.199-0.404-0.771-0.742-0.947-1.576C9.952,10.145,10.095,9.032,11.028,9.145z"/>
<path id="Path_925_" fill="#C99B71" d="M23.116,9.745c-0.244,0.078-0.512,0.449-0.656,1.068c0.855-0.184,0.643,1.238-0.102,1.266
	c0.008,0.143,0.016,0.289,0.033,0.445c0.359-0.52,0.723-0.313,1.084-1.084C23.8,10.743,23.722,9.555,23.116,9.745z"/>
<path id="Path_924_" fill="#C99B71" d="M11.71,10.811c-0.146-0.617-0.412-0.99-0.656-1.066c-0.605-0.189-0.684,0.998-0.359,1.695
	c0.359,0.771,0.725,0.564,1.082,1.084c0.018-0.156,0.027-0.305,0.035-0.447C11.075,12.042,10.864,10.637,11.71,10.811z"/>
<path fill="#EBC199" d="M17.085,3.118c-4.064,0-6.021,3.303-5.777,7.551c0.051,0.854,0.289,2.084,0.584,3.141
	c0.609,2.193,3.824,4.402,5.193,4.402s4.584-2.209,5.193-4.402c0.295-1.057,0.531-2.287,0.582-3.141
	C23.104,6.42,21.147,3.118,17.085,3.118z"/>
<path id="Path_923_" fill="#A17C5B" d="M21.499,8.833c-0.93-0.492-2.707-0.516-3.371-0.174C17.987,8.725,18.081,9.19,18.2,9.147
	c0.924-0.365,2.412-0.373,3.275,0.031C21.591,9.229,21.64,8.899,21.499,8.833z"/>
<path id="Path_922_" fill="#A17C5B" d="M12.671,8.833c0.928-0.492,2.705-0.516,3.369-0.174c0.143,0.066,0.047,0.531-0.07,0.488
	c-0.926-0.365-2.412-0.373-3.277,0.031C12.577,9.229,12.53,8.899,12.671,8.833z"/>
<path id="Path_921_" fill="#C99B71" d="M18.181,13.092c-0.115-0.08-0.389,0.043-1.096,0.043c-0.709,0-0.98-0.123-1.098-0.043
	c-0.139,0.098,0.082,0.539,1.098,0.539C18.099,13.631,18.321,13.19,18.181,13.092z"/>
<path id="Path_920_" fill="#C99B71" d="M17.085,14.764c-0.914-0.268-2.268,0.127-2.268,0.127c0.516,0.561,0.893,1.287,2.268,1.287
	c1.574,0,1.842-0.824,2.27-1.287C19.354,14.891,17.999,14.495,17.085,14.764z"/>
<path id="Path_919_" fill="#FFFFFF" d="M15.157,14.987c0.957,0.801,2.893,0.807,3.855,0C17.991,15.03,16.185,15.03,15.157,14.987z"
	/>
<path id="Path_918_" fill="#FFFFFF" d="M16.181,10.504c0.035,0.27-0.148,0.588-0.652,0.826c-0.322,0.152-0.99,0.33-1.867-0.039
	c-0.393-0.166-0.777-0.682-0.742-0.967C13.396,9.43,15.735,9.299,16.181,10.504z"/>
<linearGradient id="Oval_1_" gradientUnits="userSpaceOnUse" x1="-420.4438" y1="480.5283" x2="-420.4438" y2="480.8076" gradientTransform="matrix(6.5701 0 0 -6.5701 2776.9524 3168.5281)">
	<stop  offset="0" style="stop-color:#A6694A"/>
	<stop  offset="1" style="stop-color:#4F2A1E"/>
	<a:midPointStop  offset="0" style="stop-color:#A6694A"/>
	<a:midPointStop  offset="0.5" style="stop-color:#A6694A"/>
	<a:midPointStop  offset="1" style="stop-color:#4F2A1E"/>
</linearGradient>
<circle id="Oval_106_" fill="url(#Oval_1_)" cx="14.591" cy="10.487" r="0.918"/>
<path id="Path_917_" fill="#1A1626" d="M14.132,10.469c0,0.637,0.922,0.637,0.922,0C15.054,9.881,14.132,9.881,14.132,10.469z"/>
<path id="Path_916_" fill="#AB968C" d="M13.991,10.213c0,0.266,0.387,0.266,0.387,0C14.378,9.967,13.991,9.967,13.991,10.213z"/>
<path id="Path_915_" fill="#C99B71" d="M16.185,10.542c-0.373-1.199-2.918-1.021-3.266-0.217
	C13.048,9.293,15.866,9.02,16.185,10.542z"/>
<path id="Path_914_" fill="#FFFFFF" d="M17.989,10.504c-0.035,0.27,0.148,0.588,0.654,0.826c0.32,0.152,0.988,0.33,1.865-0.039
	c0.393-0.166,0.775-0.682,0.742-0.967C20.776,9.43,18.435,9.299,17.989,10.504z"/>
<linearGradient id="Oval_2_" gradientUnits="userSpaceOnUse" x1="-422.3872" y1="480.5283" x2="-422.3872" y2="480.8076" gradientTransform="matrix(6.5701 0 0 -6.5701 2794.6829 3168.5281)">
	<stop  offset="0" style="stop-color:#A6694A"/>
	<stop  offset="1" style="stop-color:#4F2A1E"/>
	<a:midPointStop  offset="0" style="stop-color:#A6694A"/>
	<a:midPointStop  offset="0.5" style="stop-color:#A6694A"/>
	<a:midPointStop  offset="1" style="stop-color:#4F2A1E"/>
</linearGradient>
<path id="Oval_105_" fill="url(#Oval_2_)" d="M19.558,9.569c0.508,0,0.918,0.412,0.918,0.918c0,0.508-0.41,0.918-0.918,0.918
	c-0.51,0-0.922-0.41-0.922-0.918C18.636,9.981,19.048,9.569,19.558,9.569z"/>
<path id="Path_913_" fill="#1A1626" d="M19.099,10.469c0,0.637,0.918,0.637,0.918,0C20.017,9.881,19.099,9.881,19.099,10.469z"/>
<path id="Path_912_" fill="#AB968C" d="M18.958,10.213c0,0.266,0.385,0.266,0.385,0C19.343,9.967,18.958,9.967,18.958,10.213z"/>
<path id="Path_911_" fill="#C99B71" d="M17.983,10.542c0.375-1.199,2.918-1.027,3.268-0.217C21.12,9.293,18.302,9.02,17.983,10.542z
	"/>
<linearGradient id="SVGID_3_" gradientUnits="userSpaceOnUse" x1="54.8516" y1="11.5122" x2="54.8516" y2="2.0005" gradientTransform="matrix(1 0 0 1 -37.8281 0)">
	<stop  offset="0" style="stop-color:#FF1E00"/>
	<stop  offset="0.0246" style="stop-color:#FF2400"/>
	<stop  offset="0.1526" style="stop-color:#FF3D00"/>
	<stop  offset="0.2948" style="stop-color:#FF5100"/>
	<stop  offset="0.4569" style="stop-color:#FF5F00"/>
	<stop  offset="0.656" style="stop-color:#FF6800"/>
	<stop  offset="1" style="stop-color:#FF6A00"/>
	<a:midPointStop  offset="0" style="stop-color:#FF1E00"/>
	<a:midPointStop  offset="0.1939" style="stop-color:#FF1E00"/>
	<a:midPointStop  offset="1" style="stop-color:#FF6A00"/>
</linearGradient>
<path fill="url(#SVGID_3_)" d="M17.085,2c-2.471,0-3.707,1.117-3.957,1.648c-2.99,0.682-3.951,5.715-1.713,7.863
	c0.277-2.289,0.545-3.76,2.068-5.309c0.889,1.189,2.736,1.859,4.389,1.859c-0.783-0.568-1.316-1.125-1.736-1.643
	c2.76,1.264,5.854,2.074,6.619,5.092C25.411,7.29,23.206,2,17.085,2z"/>
<linearGradient id="SVGID_4_" gradientUnits="userSpaceOnUse" x1="59.8545" y1="12.3125" x2="50.3123" y2="4.4036" gradientTransform="matrix(1 0 0 1 -37.8281 0)">
	<stop  offset="0" style="stop-color:#FF1E00"/>
	<stop  offset="0.1291" style="stop-color:#FF2300"/>
	<stop  offset="0.2858" style="stop-color:#FF3200"/>
	<stop  offset="0.4567" style="stop-color:#FF4B00"/>
	<stop  offset="0.6379" style="stop-color:#FF6D00"/>
	<stop  offset="0.825" style="stop-color:#FF9800"/>
	<stop  offset="1" style="stop-color:#FFC800"/>
	<a:midPointStop  offset="0" style="stop-color:#FF1E00"/>
	<a:midPointStop  offset="0.6667" style="stop-color:#FF1E00"/>
	<a:midPointStop  offset="1" style="stop-color:#FFC800"/>
</linearGradient>
<path fill="url(#SVGID_4_)" d="M13.128,3.649c-0.025,1.404,1.098,3.736,4.744,4.414C15.054,8.252,12.161,6.549,13.128,3.649z"/>
<linearGradient id="SVGID_5_" gradientUnits="userSpaceOnUse" x1="48.5039" y1="11.3169" x2="50.1315" y2="4.2289" gradientTransform="matrix(1 0 0 1 -37.8281 0)">
	<stop  offset="0" style="stop-color:#FF1E00"/>
	<stop  offset="0.1946" style="stop-color:#FF3A00"/>
	<stop  offset="0.6118" style="stop-color:#FF8100"/>
	<stop  offset="1" style="stop-color:#FFC800"/>
	<a:midPointStop  offset="0" style="stop-color:#FF1E00"/>
	<a:midPointStop  offset="0.5333" style="stop-color:#FF1E00"/>
	<a:midPointStop  offset="1" style="stop-color:#FFC800"/>
</linearGradient>
<path fill="url(#SVGID_5_)" d="M13.009,4.417c-0.832,0.602-2.541,3.555-1.594,7.096C9.142,6.149,13.009,4.417,13.009,4.417z"/>
<linearGradient id="SVGID_6_" gradientUnits="userSpaceOnUse" x1="62.2295" y1="7.6387" x2="51.5732" y2="2.4243" gradientTransform="matrix(1 0 0 1 -37.8281 0)">
	<stop  offset="0" style="stop-color:#FF1E00"/>
	<stop  offset="0.1572" style="stop-color:#FF4100"/>
	<stop  offset="0.4454" style="stop-color:#FF7A00"/>
	<stop  offset="0.6921" style="stop-color:#FFA500"/>
	<stop  offset="0.8849" style="stop-color:#FFBE00"/>
	<stop  offset="1" style="stop-color:#FFC800"/>
	<a:midPointStop  offset="0" style="stop-color:#FF1E00"/>
	<a:midPointStop  offset="0.4061" style="stop-color:#FF1E00"/>
	<a:midPointStop  offset="1" style="stop-color:#FFC800"/>
</linearGradient>
<path fill="url(#SVGID_6_)" d="M13.128,3.649c0,0,8.369-2.992,10.641,5.281C21.7,3.889,15.458,3.178,13.128,3.649z"/>
<linearGradient id="SVGID_7_" gradientUnits="userSpaceOnUse" x1="60.7412" y1="11.2407" x2="51.1992" y2="3.332" gradientTransform="matrix(1 0 0 1 -37.8281 0)">
	<stop  offset="0" style="stop-color:#FF1E00"/>
	<stop  offset="0.1291" style="stop-color:#FF2300"/>
	<stop  offset="0.2858" style="stop-color:#FF3200"/>
	<stop  offset="0.4567" style="stop-color:#FF4B00"/>
	<stop  offset="0.6379" style="stop-color:#FF6D00"/>
	<stop  offset="0.825" style="stop-color:#FF9800"/>
	<stop  offset="1" style="stop-color:#FFC800"/>
	<a:midPointStop  offset="0" style="stop-color:#FF1E00"/>
	<a:midPointStop  offset="0.6667" style="stop-color:#FF1E00"/>
	<a:midPointStop  offset="1" style="stop-color:#FFC800"/>
</linearGradient>
<path fill="url(#SVGID_7_)" d="M13.128,3.649c0.646,2.357,9.467,2.334,9.627,7.863C21.897,7.254,11.812,6.327,13.128,3.649z"/>
<path fill="#EBC199" d="M27.964,23.178c-0.85-1.189-3.693-0.229-4.184,0.588c-0.881,2.016-1.219,4.881-1.672,5.359
	c-3.68-0.979-10.791-0.279-9.896,2.066c8.758,1.326,11.34,1.557,13.076,1.492C25.88,32.665,27.765,28.907,27.964,23.178z"/>
<path fill="#C99B71" d="M22.108,29.125c-3.68-0.979-10.791-0.279-9.896,2.066c0,0,2.129,0.436,4.043,0.598
	C18.345,30.114,20.903,29.176,22.108,29.125z"/>
<path fill="#EBC199" d="M6.208,23.178c0.85-1.189,3.441-0.197,3.932,0.619c0.883,2.016,0.969,3.678,1.422,4.154
	c6.203-0.877,9.984-1.346,10.943,1.227c-4.275-0.658-7.48,3.279-13.709,3.744C8.204,32.967,6.208,28.11,6.208,23.178z"/>
</svg>
