<?xml version="1.0" encoding="utf-8"?>
<!-- Generator: Adobe Illustrator 15.0.0, SVG Export Plug-In . SVG Version: 6.00 Build 0)  -->
<!DOCTYPE svg PUBLIC "-//W3C//DTD SVG 1.1//EN" "http://www.w3.org/Graphics/SVG/1.1/DTD/svg11.dtd" [
	<!ENTITY ns_flows "http://ns.adobe.com/Flows/1.0/">
	<!ENTITY ns_extend "http://ns.adobe.com/Extensibility/1.0/">
	<!ENTITY ns_ai "http://ns.adobe.com/AdobeIllustrator/10.0/">
	<!ENTITY ns_graphs "http://ns.adobe.com/Graphs/1.0/">
]>
<svg version="1.1" id="Layer_1" xmlns:x="&ns_extend;" xmlns:i="&ns_ai;" xmlns:graph="&ns_graphs;"
	 xmlns="http://www.w3.org/2000/svg" xmlns:xlink="http://www.w3.org/1999/xlink" xmlns:a="http://ns.adobe.com/AdobeSVGViewerExtensions/3.0/"
	 x="0px" y="0px" width="64px" height="64px" viewBox="0 0 64 64" enable-background="new 0 0 64 64" xml:space="preserve">
<path fill="#006DAE" d="M14.434,52.752c2.5-1.365,38.706-1.373,41.192-0.004C59.241,54.732,60,62,60,62H10
	C10,62,10.808,54.729,14.434,52.752z"/>
<path fill="#006DAE" d="M42.77,47.783H27.312c0,0-10.378,3.604-12.878,4.969L35,62l20.626-9.252
	C53.14,51.379,42.77,47.783,42.77,47.783z"/>
<path fill="#006099" d="M25.003,48.598c0,8.49,19.994,8.459,19.994-0.029L43,47.891H27L25.003,48.598z"/>
<path fill="#E6B045" d="M27,48.074c0,6.359,16,6.359,16,0c0-2.164,0-7.158,0-7.158H27C27,40.916,27,45.91,27,48.074z"/>
<path fill="#014D87" d="M34.478,58.904V62h1.045v-3.096H34.478z"/>
<path fill="#0081CF" d="M20.402,47.689c-1.678-1.096-4.521,0.301-4.425,2.361c-1.646-0.613-3.42,0.156-3.249,3.096
	c-5.781,7.018,9.779,8.852,21.749,8.852v-3.096c-3.799-2.15-6.712-6.441-9.1-9.213C24.59,48.775,27,47.891,27,47.891v-2.955
	C24.222,44.936,20.628,46.248,20.402,47.689z"/>
<path fill="#006DAE" d="M21.263,50.051c0,0,2.954,6.816,12.839,9.98C34.102,60.031,25.978,55.695,21.263,50.051z"/>
<path fill="#006DAE" d="M15.978,50.139c0,0,5.059,10.217,18.5,11.859C34.478,61.998,21.814,57.811,15.978,50.139z"/>
<path fill="#006DAE" d="M12.729,53.146c0,0,3.983,7.303,21.749,8.852C34.478,61.998,15.925,62.191,12.729,53.146z"/>
<path fill="#0081CF" d="M49.598,47.689c1.678-1.096,4.521,0.301,4.425,2.361c1.646-0.613,3.42,0.156,3.249,3.096
	c5.781,7.018-9.779,8.852-21.749,8.852v-3.096c3.799-2.15,6.712-6.441,9.1-9.213C45.41,48.775,43,47.891,43,47.891v-2.955
	C45.778,44.936,49.372,46.248,49.598,47.689z"/>
<path fill="#006DAE" d="M48.737,50.051c0,0-2.954,6.816-12.839,9.98C35.898,60.031,44.022,55.695,48.737,50.051z"/>
<path fill="#006DAE" d="M54.022,50.139c0,0-5.059,10.217-18.5,11.859C35.522,61.998,48.186,57.811,54.022,50.139z"/>
<path fill="#006DAE" d="M57.271,53.146c0,0-3.983,7.303-21.749,8.852C35.522,61.998,54.075,62.191,57.271,53.146z"/>
<path fill="#F59E01" d="M29.173,59.994c0,1.334-2.083,1.334-2.083,0S29.173,58.66,29.173,59.994z"/>
<path fill="#F59E01" d="M42.91,59.994c0,1.334-2.083,1.334-2.083,0S42.91,58.66,42.91,59.994z"/>
<path fill="#F9B700" d="M42.163,60.492c-4.699,1.158-9.627,1.158-14.326,0c0.102-0.379,0.203-0.76,0.305-1.141
	c4.5,1.109,9.217,1.109,13.717,0C41.96,59.732,42.062,60.113,42.163,60.492z"/>
<path fill="#014D87" d="M62,25.403c0,5.486-5.424,4.587-27,4.587S8,30.889,8,25.403C8,19.91,62,19.91,62,25.403z"/>
<path fill="#CFD8DD" d="M50.213,38.775c1.082,0.715,2.33,1.248,3.787,1.521c-2.586-5.889,1.314-18.237-6.682-27.311
	c-11.27,0.337-12.828,36.721,2.883,31.883c-1-0.434-1.629-1.316-1.996-2.43c1.211,0.346,2.627,0.357,4.275-0.148
	C51.168,41.725,50.5,40.391,50.213,38.775z"/>
<path fill="#CFD8DD" d="M21.922,12.986C13.926,22.06,18.588,34.408,16,40.297c1.457-0.273,2.707-0.807,3.789-1.521
	c-0.289,1.615-0.957,2.949-2.27,3.516c1.648,0.506,3.063,0.494,4.273,0.148c-0.367,1.113-0.992,1.996-1.992,2.43
	C35.51,49.707,33.193,13.323,21.922,12.986z"/>
<path id="Path_879_" fill="#FFCC66" d="M51.443,25.383c-2.547,0.308-4.383,8.816-2.783,11.06c0.225,0.314,1.535,0.814,2.508-1.166
	c0.539-1.098,2.094-2.014,2.574-4.277C54.359,28.1,53.977,25.077,51.443,25.383z"/>
<path id="Path_878_" fill="#FFCC66" d="M18.559,25.383c2.547,0.308,4.385,8.816,2.783,11.06c-0.225,0.314-1.537,0.814-2.508-1.166
	C18.295,34.18,16.74,33.264,16.26,31C15.643,28.1,16.027,25.077,18.559,25.383z"/>
<path id="Path_877_" fill="#DB9D3A" d="M51.373,27.015c-0.664,0.208-1.389,1.219-1.781,2.896c2.322-0.498,1.742,3.363-0.275,3.435
	c0.018,0.389,0.045,0.787,0.092,1.207c0.973-1.408,1.959-0.844,2.938-2.939C53.227,29.723,53.018,26.5,51.373,27.015z"/>
<path id="Path_876_" fill="#DB9D3A" d="M20.41,29.907c-0.395-1.674-1.117-2.685-1.781-2.892c-1.645-0.516-1.855,2.708-0.975,4.599
	c0.979,2.095,1.967,1.531,2.939,2.939c0.049-0.42,0.074-0.82,0.092-1.209C18.688,33.248,18.117,29.437,20.41,29.907z"/>
<path fill="#FFCC66" d="M35,9.026c-11.029,0-16.342,8.965-15.678,20.492c0.137,2.318,0.783,5.662,1.58,8.525
	C22.557,43.996,31.283,49.99,35,49.99s12.443-5.994,14.1-11.947c0.797-2.863,1.441-6.207,1.578-8.525
	C51.342,17.991,46.031,9.026,35,9.026z"/>
<path id="Path_875_" fill="#E6EBEF" d="M46.982,24.535c-2.521-1.334-7.35-1.399-9.146-0.471c-0.387,0.18-0.131,1.443,0.193,1.324
	c2.504-0.99,6.547-1.013,8.893,0.084C47.234,25.615,47.365,24.719,46.982,24.535z"/>
<path id="Path_874_" fill="#E6EBEF" d="M23.02,24.535c2.521-1.334,7.346-1.399,9.146-0.471c0.383,0.18,0.131,1.443-0.193,1.324
	c-2.51-0.99-6.547-1.013-8.895,0.084C22.766,25.615,22.637,24.719,23.02,24.535z"/>
<path id="Path_873_" fill="#DB9D3A" d="M37.977,36.1c-0.314-0.221-1.053,0.117-2.977,0.117c-1.92,0-2.66-0.338-2.977-0.117
	c-0.375,0.264,0.225,1.461,2.977,1.461C37.754,37.561,38.355,36.363,37.977,36.1z"/>
<path id="Path_872_" fill="#DB9D3A" d="M35,40.637c-2.48-0.729-6.156,0.344-6.156,0.344c1.4,1.523,2.426,3.498,6.156,3.498
	c4.273,0,5.002-2.242,6.158-3.498C41.158,40.98,37.48,39.904,35,40.637z"/>
<path id="Path_871_" fill="#FFFFFF" d="M29.768,41.238c2.602,2.178,7.852,2.193,10.467,0C37.463,41.357,32.559,41.359,29.768,41.238
	z"/>
<path id="Path_870_" fill="#FFFFFF" d="M32.547,29.077c0.094,0.729-0.402,1.594-1.773,2.24c-0.873,0.412-2.684,0.896-5.066-0.106
	c-1.066-0.448-2.107-1.849-2.014-2.622C24.984,26.158,31.338,25.802,32.547,29.077z"/>
<linearGradient id="Oval_1_" gradientUnits="userSpaceOnUse" x1="-424.1255" y1="477.4668" x2="-424.1255" y2="478.2256" gradientTransform="matrix(6.5701 0 0 -6.5701 2814.7805 3168.5281)">
	<stop  offset="0" style="stop-color:#A6694A"/>
	<stop  offset="1" style="stop-color:#4F2A1E"/>
	<a:midPointStop  offset="0" style="stop-color:#A6694A"/>
	<a:midPointStop  offset="0.5" style="stop-color:#A6694A"/>
	<a:midPointStop  offset="1" style="stop-color:#4F2A1E"/>
</linearGradient>
<ellipse id="Oval_116_" fill="url(#Oval_1_)" cx="28.234" cy="29.028" rx="2.498" ry="2.492"/>
<path id="Path_861_" fill="#1A1626" d="M26.988,28.982c0,1.725,2.496,1.725,2.496,0C29.484,27.382,26.988,27.382,26.988,28.982z"/>
<path id="Path_860_" fill="#AB968C" d="M26.607,28.284c0,0.724,1.047,0.724,1.047,0C27.654,27.615,26.607,27.615,26.607,28.284z"/>
<path id="Path_859_" fill="#DB9D3A" d="M32.559,29.173c-1.014-3.252-7.924-2.772-8.865-0.585
	C24.041,25.788,31.695,25.048,32.559,29.173z"/>
<path id="Path_858_" fill="#FFFFFF" d="M37.455,29.077c-0.096,0.729,0.4,1.594,1.773,2.24c0.871,0.412,2.684,0.896,5.064-0.106
	c1.07-0.448,2.109-1.849,2.016-2.622C45.02,26.158,38.662,25.802,37.455,29.077z"/>
<linearGradient id="Oval_2_" gradientUnits="userSpaceOnUse" x1="-424.7729" y1="477.4668" x2="-424.7729" y2="478.2256" gradientTransform="matrix(6.5701 0 0 -6.5701 2832.511 3168.5281)">
	<stop  offset="0" style="stop-color:#A6694A"/>
	<stop  offset="1" style="stop-color:#4F2A1E"/>
	<a:midPointStop  offset="0" style="stop-color:#A6694A"/>
	<a:midPointStop  offset="0.5" style="stop-color:#A6694A"/>
	<a:midPointStop  offset="1" style="stop-color:#4F2A1E"/>
</linearGradient>
<circle id="Oval_115_" fill="url(#Oval_2_)" cx="41.711" cy="29.028" r="2.492"/>
<path id="Path_857_" fill="#1A1626" d="M40.463,28.982c0,1.725,2.496,1.725,2.496,0C42.959,27.382,40.463,27.382,40.463,28.982z"/>
<path id="Path_773_" fill="#AB968C" d="M40.084,28.284c0,0.724,1.045,0.724,1.045,0C41.129,27.615,40.084,27.615,40.084,28.284z"/>
<path id="Path_772_" fill="#DB9D3A" d="M37.443,29.173c1.012-3.251,7.92-2.785,8.865-0.585
	C45.959,25.788,38.307,25.048,37.443,29.173z"/>
<path fill="#E6EBEF" d="M35.002,5.991c-6.711,0-10.064,3.035-10.744,4.473c-8.113,1.852-10.723,15.516-4.648,21.345
	c0.754-6.211,1.48-10.201,5.617-14.405c2.412,3.227,7.424,5.042,11.91,5.042c-2.125-1.541-3.574-3.051-4.711-4.458
	c7.494,3.433,15.885,5.63,17.969,13.821C57.604,20.35,51.615,5.991,35.002,5.991z"/>
<radialGradient id="SVGID_1_" cx="6.6147" cy="39.0479" r="6.1288" gradientUnits="userSpaceOnUse">
	<stop  offset="0.2303" style="stop-color:#A2FF00"/>
	<stop  offset="0.432" style="stop-color:#9FFD02"/>
	<stop  offset="0.563" style="stop-color:#97F608"/>
	<stop  offset="0.674" style="stop-color:#88E911"/>
	<stop  offset="0.7737" style="stop-color:#73D81F"/>
	<stop  offset="0.8659" style="stop-color:#57C231"/>
	<stop  offset="0.9514" style="stop-color:#36A647"/>
	<stop  offset="1" style="stop-color:#209456"/>
	<a:midPointStop  offset="0.2303" style="stop-color:#A2FF00"/>
	<a:midPointStop  offset="0.7874" style="stop-color:#A2FF00"/>
	<a:midPointStop  offset="1" style="stop-color:#209456"/>
</radialGradient>
<path fill="url(#SVGID_1_)" d="M8.269,34.648C4.81,34.648,2,37.455,2,40.918s2.81,6.266,6.269,6.266s6.269-2.803,6.269-6.266
	S11.728,34.648,8.269,34.648z"/>
<radialGradient id="SVGID_2_" cx="558.2207" cy="61.3242" r="8.6306" gradientTransform="matrix(0.3583 0.4654 -0.7152 0.5506 -151.4179 -257.4933)" gradientUnits="userSpaceOnUse">
	<stop  offset="0" style="stop-color:#FFFFFF"/>
	<stop  offset="1" style="stop-color:#FFFFFF;stop-opacity:0"/>
	<a:midPointStop  offset="0" style="stop-color:#FFFFFF"/>
	<a:midPointStop  offset="0.5515" style="stop-color:#FFFFFF"/>
	<a:midPointStop  offset="1" style="stop-color:#FFFFFF;stop-opacity:0"/>
</radialGradient>
<path fill="url(#SVGID_2_)" d="M8.081,40.525c-1.761,1.359-3.904,1.527-4.785,0.381c-0.884-1.146-0.172-3.174,1.589-4.531
	c1.763-1.355,3.906-1.527,4.79-0.381C10.559,37.143,9.845,39.174,8.081,40.525z"/>
<linearGradient id="SVGID_3_" gradientUnits="userSpaceOnUse" x1="5.9497" y1="51.7529" x2="15.7588" y2="51.7529">
	<stop  offset="0.2545" style="stop-color:#916958"/>
	<stop  offset="0.4316" style="stop-color:#8D6655"/>
	<stop  offset="0.6087" style="stop-color:#815C4C"/>
	<stop  offset="0.7858" style="stop-color:#6D4C3E"/>
	<stop  offset="0.9621" style="stop-color:#513529"/>
	<stop  offset="1" style="stop-color:#4A2F24"/>
	<a:midPointStop  offset="0.2545" style="stop-color:#916958"/>
	<a:midPointStop  offset="0.7073" style="stop-color:#916958"/>
	<a:midPointStop  offset="1" style="stop-color:#4A2F24"/>
</linearGradient>
<path fill="url(#SVGID_3_)" d="M13.878,41.506c0,0,2.925,3.916,1.326,5.814C13.005,49.926,15.759,62,15.759,62h-2.974
	c0,0-0.967-9.277-6.632-14.859C4.451,45.463,13.984,46.75,13.878,41.506z"/>
<linearGradient id="SVGID_4_" gradientUnits="userSpaceOnUse" x1="3.5229" y1="43.7656" x2="14.854" y2="43.7656">
	<stop  offset="0.2545" style="stop-color:#916958"/>
	<stop  offset="0.4316" style="stop-color:#8D6655"/>
	<stop  offset="0.6087" style="stop-color:#815C4C"/>
	<stop  offset="0.7858" style="stop-color:#6D4C3E"/>
	<stop  offset="0.9621" style="stop-color:#513529"/>
	<stop  offset="1" style="stop-color:#4A2F24"/>
	<a:midPointStop  offset="0.2545" style="stop-color:#916958"/>
	<a:midPointStop  offset="0.7073" style="stop-color:#916958"/>
	<a:midPointStop  offset="1" style="stop-color:#4A2F24"/>
</linearGradient>
<path fill="url(#SVGID_4_)" d="M14.016,38.791c1.271,0.139,1.632,7.484-2.864,9.744c-1.901,0.955-8.134-1.553-7.596-3.613
	c0.435-1.643,5.303,1.123,6.794,0.307C11.973,44.336,12.173,38.592,14.016,38.791z"/>
<linearGradient id="SVGID_5_" gradientUnits="userSpaceOnUse" x1="34.9922" y1="28.9634" x2="34.9922" y2="22.0898">
	<stop  offset="0.2788" style="stop-color:#1A1626;stop-opacity:0"/>
	<stop  offset="1" style="stop-color:#1A1626;stop-opacity:0.8"/>
	<a:midPointStop  offset="0.2788" style="stop-color:#1A1626;stop-opacity:0"/>
	<a:midPointStop  offset="0.6723" style="stop-color:#1A1626;stop-opacity:0"/>
	<a:midPointStop  offset="1" style="stop-color:#1A1626;stop-opacity:0.8"/>
</linearGradient>
<path fill="url(#SVGID_5_)" d="M60.391,26.141c-13.846,2.795-37.912,4.621-50.797,0.004C18.479,21.738,46.273,19.824,60.391,26.141z
	"/>
<path fill="#006DAE" d="M62,25.281C62,28.533,56.576,23,35,23c-21.574,0-27,5.533-27,2.281C8,14.025,62,14.025,62,25.281z"/>
<path fill="#006DAE" d="M51.039,13.488c0.205-3.02-6.538-5.309-5.494-8.465C46.052,3.496,49.151,2.471,47.732,0
	c-2.348,3.305-14.017,0-19.847,5.828C23.224,8.014,13.425,17.65,17.646,21.01c8.874-1.203,26.562-1.686,37.595,0
	C59.372,17.719,52.527,14.012,51.039,13.488z"/>
<path opacity="0.2" fill="#013366" enable-background="new    " d="M47.732,0c1.674,3.121-5.292,3.961-5.675,7.922
	c1.756-2.223,3.759-0.629,3.451-1.678C44.754,3.574,49.426,2.996,47.732,0z"/>
<path opacity="0.2" fill="#013366" enable-background="new    " d="M49.063,10.27c0,0-12.185,0-24.795,5.949
	c8.746-2.145,20.815-3.945,26.771-2.729C51.39,12.121,49.063,10.27,49.063,10.27z"/>
<path opacity="0.2" fill="#013366" enable-background="new    " d="M52.371,16.219c0,0-4.323,0.762-16.33,2.855
	C45.816,14.98,52.371,16.219,52.371,16.219z"/>
</svg>
