<?xml version="1.0" encoding="utf-8"?>
<!-- Generator: Adobe Illustrator 15.0.0, SVG Export Plug-In . SVG Version: 6.00 Build 0)  -->
<!DOCTYPE svg PUBLIC "-//W3C//DTD SVG 1.1//EN" "http://www.w3.org/Graphics/SVG/1.1/DTD/svg11.dtd" [
	<!ENTITY ns_flows "http://ns.adobe.com/Flows/1.0/">
	<!ENTITY ns_extend "http://ns.adobe.com/Extensibility/1.0/">
	<!ENTITY ns_ai "http://ns.adobe.com/AdobeIllustrator/10.0/">
	<!ENTITY ns_graphs "http://ns.adobe.com/Graphs/1.0/">
]>
<svg version="1.1" id="Layer_1" xmlns:x="&ns_extend;" xmlns:i="&ns_ai;" xmlns:graph="&ns_graphs;"
	 xmlns="http://www.w3.org/2000/svg" xmlns:xlink="http://www.w3.org/1999/xlink" xmlns:a="http://ns.adobe.com/AdobeSVGViewerExtensions/3.0/"
	 x="0px" y="0px" width="64px" height="64px" viewBox="0 0 64 64" enable-background="new 0 0 64 64" xml:space="preserve">
<path fill="#F9B700" d="M47.505,53.568c0,0.582,3.066,0.582,3.066,0C50.571,51.214,47.505,51.214,47.505,53.568z"/>
<path fill="#F59E01" d="M44.699,55.352c0,0.721,8.677,0.721,8.677,0C53.376,52.435,44.699,52.435,44.699,55.352z"/>
<path fill="#F59E01" d="M44.699,61.459c0,0.721,8.677,0.721,8.677,0C53.376,58.545,44.699,58.545,44.699,61.459z"/>
<path fill="#F59E01" d="M55.999,58.725c7.527,3.798,3.073-8.008-2.242-2.898C49.245,57.991,54.604,62.751,55.999,58.725z
	 M54.278,56.485c3.078-2.954,6.553,2.476,2.725,1.94c1.237-1.867-2.226-2.385-1.781-0.692c-0.959-0.589-2.117,0.663-1.021,1.456
	C52.909,58.983,52.583,57.301,54.278,56.485z"/>
<path fill="#F9B700" d="M54.944,55.635c-5.373-2.768-8.053,0.465-16.854-2.47c-0.771,0.435-2.237,0.51-1.186,1.762
	C45.147,53.847,47.147,66.092,54.944,55.635z"/>
<path fill="#AB5C10" d="M38.237,53.456c-0.099-0.192-1.523,0.536-1.426,0.729C37.208,54.968,38.636,54.24,38.237,53.456z"/>
<linearGradient id="SVGID_1_" gradientUnits="userSpaceOnUse" x1="7.5913" y1="40.8955" x2="55.1973" y2="40.8955">
	<stop  offset="0" style="stop-color:#0FB4D4"/>
	<stop  offset="0.1838" style="stop-color:#0EADD2"/>
	<stop  offset="0.4419" style="stop-color:#0B9BCB"/>
	<stop  offset="0.7425" style="stop-color:#057DC0"/>
	<stop  offset="1" style="stop-color:#005EB5"/>
	<a:midPointStop  offset="0" style="stop-color:#0FB4D4"/>
	<a:midPointStop  offset="0.6341" style="stop-color:#0FB4D4"/>
	<a:midPointStop  offset="1" style="stop-color:#005EB5"/>
</linearGradient>
<path fill="url(#SVGID_1_)" d="M33.482,35.389c-2.159,8.926-9.371,11.674-11.483,5.846c-2.582-0.826-10.987-0.828-13.575,0
	c-5.196,13.787,15.24,23.609,24.934,0.506c8.103-19.306,23.014-8.253,5.924,2.121c-9.996,6.067-5.622,9.111-1.339,10.473
	c-4.108-3.509-1.788-5.459,3.308-7.746C74.62,31.604,38.247,15.692,33.482,35.389z"/>
<path fill="#FF7A00" d="M21.455,39.084c0,2.688-12.49,2.688-12.49,0c0,0-0.106-5.29-1.806-8.398h16.102
	C21.559,33.794,21.455,39.084,21.455,39.084z"/>
<path fill="#0FB4D4" d="M13.998,32.881c0.256,3.107,1.212,6.41,1.212,6.41s0.956-3.303,1.213-6.41H13.998z"/>
<polygon fill="#0099B5" points="14.789,34.27 16.213,34.645 16.389,33.613 13.945,33.065 14.184,34.488 "/>
<path fill="#F9B700" d="M21.999,41.234c0,2.688-6.788,4.442-6.788,4.442s-6.787-1.755-6.787-4.442
	c0.663-2.172,0.542-2.15,0.542-2.15c3.639,1.875,8.853,1.875,12.49,0C21.455,39.084,21.359,39.63,21.999,41.234z"/>
<path fill="#0FB4D4" d="M18.344,17.728c-0.845-0.614-5.427-0.614-6.268,0c-0.118,3.63,0.035,3.349-5.113,4.598
	c0,2.651,4.999,11.069,8.246,11.069c3.247,0,8.245-8.418,8.245-11.069C18.305,21.076,18.462,21.357,18.344,17.728z"/>
<path fill="#0099B5" d="M18.303,18.849c-2.814,3.452-3.378,3.45-6.192-0.002L18.303,18.849z"/>
<path fill="#D47706" d="M21.455,39.084c-0.506,0.261-1.048,0.477-1.607,0.665c0.047,1.257,0.194,2.524,0.451,3.786
	c0.974-0.649,1.7-1.425,1.7-2.301C21.359,39.63,21.455,39.084,21.455,39.084z"/>
<path fill="#D47706" d="M10.576,39.75c-0.561-0.189-1.104-0.405-1.611-0.666c0,0,0.122-0.021-0.542,2.15
	c0,0.876,0.726,1.651,1.7,2.302C10.38,42.273,10.527,41.006,10.576,39.75z"/>
<path fill="#013863" d="M21.53,15.689c0.45,0.299,0.968,0.521,1.575,0.635c-1.076-2.459,0.546-7.614-2.777-11.403
	c-4.685,0.141-5.333,15.333,1.198,13.313c-0.416-0.181-0.676-0.55-0.83-1.015c0.504,0.145,1.092,0.149,1.777-0.062
	C21.927,16.921,21.649,16.362,21.53,15.689z"/>
<path fill="#013863" d="M9.771,4.921C6.449,8.71,8.386,13.865,7.311,16.324c0.606-0.113,1.125-0.336,1.575-0.635
	c-0.119,0.673-0.397,1.231-0.942,1.468c0.685,0.211,1.271,0.206,1.775,0.062c-0.153,0.465-0.413,0.834-0.829,1.015
	C15.42,20.254,14.457,5.062,9.771,4.921z"/>
<path id="Path_814_" fill="#0FB4D4" d="M22.042,10.097c-1.059,0.129-1.822,3.681-1.157,4.619c0.093,0.131,0.639,0.34,1.042-0.487
	c0.225-0.458,0.87-0.842,1.07-1.787C23.254,11.231,23.094,9.97,22.042,10.097z"/>
<path id="Path_813_" fill="#0FB4D4" d="M8.374,10.097c1.059,0.129,1.822,3.681,1.156,4.619c-0.093,0.131-0.639,0.34-1.042-0.487
	c-0.225-0.458-0.87-0.842-1.07-1.787C7.162,11.231,7.322,9.97,8.374,10.097z"/>
<path id="Path_812_" fill="#00859E" d="M22.013,10.778c-0.276,0.087-0.577,0.509-0.74,1.209c0.964-0.208,0.724,1.404-0.115,1.434
	c0.007,0.162,0.019,0.329,0.038,0.506c0.405-0.59,0.815-0.353,1.222-1.229C22.784,11.909,22.696,10.563,22.013,10.778z"/>
<path id="Path_811_" fill="#00859E" d="M9.143,11.985c-0.163-0.698-0.464-1.121-0.738-1.207c-0.685-0.216-0.772,1.131-0.406,1.92
	c0.407,0.876,0.817,0.639,1.222,1.229c0.02-0.177,0.031-0.344,0.038-0.506C8.428,13.382,8.191,11.789,9.143,11.985z"/>
<path fill="#0FB4D4" d="M15.208,3.267c-4.585,0-6.792,3.744-6.516,8.558c0.057,0.967,0.325,2.363,0.656,3.56
	c0.687,2.485,4.315,4.987,5.86,4.987c1.544,0,5.172-2.502,5.859-4.987c0.331-1.196,0.6-2.593,0.657-3.56
	C22,7.011,19.793,3.267,15.208,3.267z"/>
<path id="Path_810_" fill="#014D87" d="M20.188,9.742c-1.048-0.557-3.054-0.584-3.802-0.195c-0.16,0.074-0.053,0.603,0.081,0.553
	c1.042-0.414,2.721-0.423,3.696,0.034C20.293,10.193,20.348,9.819,20.188,9.742z"/>
<path id="Path_809_" fill="#014D87" d="M10.228,9.742c1.048-0.557,3.053-0.584,3.802-0.195c0.159,0.074,0.053,0.603-0.081,0.553
	c-1.043-0.414-2.72-0.423-3.697,0.034C10.123,10.193,10.07,9.819,10.228,9.742z"/>
<path id="Path_808_" fill="#00859E" d="M16.445,14.572c-0.13-0.093-0.438,0.049-1.237,0.049c-0.798,0-1.106-0.142-1.237-0.049
	c-0.157,0.11,0.093,0.61,1.237,0.61S16.603,14.683,16.445,14.572z"/>
<path id="Path_807_" fill="#00859E" d="M15.208,16.466c-1.03-0.304-2.56,0.144-2.56,0.144c0.582,0.637,1.009,1.46,2.56,1.46
	c1.776,0,2.079-0.936,2.56-1.46C17.768,16.609,16.237,16.159,15.208,16.466z"/>
<path id="Path_806_" fill="#FFFFFF" d="M13.033,16.718c1.081,0.909,3.263,0.915,4.35,0C16.231,16.768,14.192,16.768,13.033,16.718z"
	/>
<path id="Path_805_" fill="#FFFFFF" d="M14.188,11.639c0.039,0.305-0.167,0.665-0.738,0.936c-0.362,0.173-1.114,0.375-2.104-0.044
	c-0.445-0.188-0.876-0.772-0.838-1.095C11.044,10.42,13.686,10.272,14.188,11.639z"/>
<linearGradient id="Oval_1_" gradientUnits="userSpaceOnUse" x1="-426.5356" y1="480.3379" x2="-426.5356" y2="480.6543" gradientTransform="matrix(6.5701 0 0 -6.5701 2814.7805 3168.5281)">
	<stop  offset="0" style="stop-color:#74717D"/>
	<stop  offset="1" style="stop-color:#28272E"/>
	<a:midPointStop  offset="0" style="stop-color:#74717D"/>
	<a:midPointStop  offset="0.5" style="stop-color:#74717D"/>
	<a:midPointStop  offset="1" style="stop-color:#28272E"/>
</linearGradient>
<circle id="Oval_74_" fill="url(#Oval_1_)" cx="12.396" cy="11.619" r="1.041"/>
<path id="Path_804_" fill="#1A1626" d="M11.877,11.6c0,0.72,1.037,0.72,1.037,0C12.915,10.933,11.877,10.933,11.877,11.6z"/>
<path id="Path_803_" fill="#9F9AAB" d="M11.72,11.308c0,0.303,0.435,0.303,0.435,0C12.155,11.028,11.72,11.028,11.72,11.308z"/>
<path id="Path_802_" fill="#00859E" d="M14.192,11.679c-0.42-1.357-3.293-1.157-3.685-0.243
	C10.653,10.266,13.834,9.958,14.192,11.679z"/>
<path id="Path_801_" fill="#FFFFFF" d="M16.228,11.639c-0.039,0.305,0.167,0.665,0.738,0.936c0.362,0.173,1.114,0.375,2.105-0.044
	c0.445-0.188,0.876-0.772,0.837-1.095C19.372,10.42,16.73,10.272,16.228,11.639z"/>
<linearGradient id="Oval_2_" gradientUnits="userSpaceOnUse" x1="-428.3823" y1="480.3379" x2="-428.3823" y2="480.6543" gradientTransform="matrix(6.5701 0 0 -6.5701 2832.511 3168.5281)">
	<stop  offset="0" style="stop-color:#74717D"/>
	<stop  offset="1" style="stop-color:#28272E"/>
	<a:midPointStop  offset="0" style="stop-color:#74717D"/>
	<a:midPointStop  offset="0.5" style="stop-color:#74717D"/>
	<a:midPointStop  offset="1" style="stop-color:#28272E"/>
</linearGradient>
<circle id="Oval_73_" fill="url(#Oval_2_)" cx="17.996" cy="11.619" r="1.041"/>
<path id="Path_800_" fill="#1A1626" d="M17.478,11.6c0,0.72,1.039,0.72,1.039,0C18.517,10.933,17.478,10.933,17.478,11.6z"/>
<path id="Path_799_" fill="#9F9AAB" d="M17.32,11.308c0,0.303,0.435,0.303,0.435,0C17.755,11.028,17.32,11.028,17.32,11.308z"/>
<path id="Path_798_" fill="#00859E" d="M16.224,11.679c0.42-1.357,3.292-1.162,3.684-0.243
	C19.762,10.266,16.583,9.958,16.224,11.679z"/>
<linearGradient id="SVGID_2_" gradientUnits="userSpaceOnUse" x1="15.1401" y1="12.7793" x2="15.1401" y2="2">
	<stop  offset="0" style="stop-color:#012A4A"/>
	<stop  offset="0.3617" style="stop-color:#013A66"/>
	<stop  offset="0.7568" style="stop-color:#01487E"/>
	<stop  offset="1" style="stop-color:#014D87"/>
	<a:midPointStop  offset="0" style="stop-color:#012A4A"/>
	<a:midPointStop  offset="0.4" style="stop-color:#012A4A"/>
	<a:midPointStop  offset="1" style="stop-color:#014D87"/>
</linearGradient>
<path fill="url(#SVGID_2_)" d="M15.208,2c-2.789,0-4.183,1.267-4.466,1.868c-3.372,0.773-4.457,6.478-1.931,8.911
	c0.312-2.592,0.614-4.259,2.334-6.014c1.002,1.348,3.085,2.104,4.95,2.104c-0.882-0.644-1.485-1.273-1.958-1.86
	c3.114,1.433,6.602,2.351,7.468,5.77C24.603,7.995,22.113,2,15.208,2z"/>
<path fill="#FF7A00" d="M10.739,21.324c1.341,1.382,3.141,10.141,3.141,10.141s-11.051,2.697-9.694-7.95
	C4.405,21.801,9.903,20.871,10.739,21.324z"/>
<path fill="#0FB4D4" d="M4.187,24.02c0.553-2.297,3.004-1.066,3.421-0.317c1.04,1.865,1.816,6.099,1.816,8.365
	c6.234-0.884,10.606-2.593,11.569,0c-4.296-0.663-7.898,4.249-14.822,4.523C4.867,36.643,3.492,26.911,4.187,24.02z"/>
<path fill="#0099B5" d="M9.424,32.067c3.697-0.986,7.819-1.296,6.92,1.068c0,0-0.911,0.532-1.827,0.931
	C12.765,32.833,10.634,32.119,9.424,32.067z"/>
<path fill="#FF7A00" d="M19.677,21.324c-1.341,1.382-3.141,10.141-3.141,10.141s11.051,2.697,9.694-7.95
	C26.011,21.801,20.514,20.871,19.677,21.324z"/>
<path fill="#0FB4D4" d="M26.23,24.02c-0.551-2.295-3.022-1.075-3.421-0.317c-0.911,1.729-1.964,5.941-2.105,7.591
	c-6.234-0.884-10.274-1.649-11.279,0.774c4.296-0.663,7.624,4.019,14.822,4.523C25.547,36.682,26.925,26.911,26.23,24.02z"/>
<path fill="#D47706" d="M11.418,30.567c-0.505,0.145-0.725,1.16-0.267,1.463c0.457,0.3,4.117,1.873,4.439,1.767
	c-0.477-0.586-0.019-2.962,1.147-3.062C16.504,30.365,13.124,30.077,11.418,30.567z"/>
<path fill="#F9B700" d="M16.186,30.98c-1.733-0.352-4.41-0.176-5.105-0.133c-0.114,0.178-0.181,0.407-0.179,0.627
	c1.198,0.029,3.409,0.434,4.625,0.689C15.805,31.465,16.186,30.98,16.186,30.98z"/>
</svg>
