<?xml version="1.0" encoding="utf-8"?>
<!-- Generator: Adobe Illustrator 15.0.0, SVG Export Plug-In . SVG Version: 6.00 Build 0)  -->
<!DOCTYPE svg PUBLIC "-//W3C//DTD SVG 1.1//EN" "http://www.w3.org/Graphics/SVG/1.1/DTD/svg11.dtd" [
	<!ENTITY ns_flows "http://ns.adobe.com/Flows/1.0/">
	<!ENTITY ns_extend "http://ns.adobe.com/Extensibility/1.0/">
	<!ENTITY ns_ai "http://ns.adobe.com/AdobeIllustrator/10.0/">
	<!ENTITY ns_graphs "http://ns.adobe.com/Graphs/1.0/">
]>
<svg version="1.1" id="Layer_1" xmlns:x="&ns_extend;" xmlns:i="&ns_ai;" xmlns:graph="&ns_graphs;"
	 xmlns="http://www.w3.org/2000/svg" xmlns:xlink="http://www.w3.org/1999/xlink" xmlns:a="http://ns.adobe.com/AdobeSVGViewerExtensions/3.0/"
	 x="0px" y="0px" width="64px" height="64px" viewBox="0 0 64 64" enable-background="new 0 0 64 64" xml:space="preserve">
<path fill="#1A1626" d="M62,25c-8.074,8.922-20.783,8.977-30,8.971C22.783,33.977,10.076,33.922,2,25
	c0,16.411,19.279,21.005,12.486,30.964c-2.146,3.146,37.176,3.146,35.029,0C42.723,46.005,62,41.411,62,25z"/>
<path fill="#E81C27" d="M32,33.971c-9.217,0.006-19.984-0.516-28-7.018c0,9.726,26.279,21.067,19.486,31.024
	c-2.146,3.148,19.174,3.148,17.027,0c-6.793-9.957,19.488-21.299,19.488-31.024C51.986,33.455,41.217,33.977,32,33.971z"/>
<path fill="#1A1626" d="M9.787,52.751c2.701-1.365,13.908-4.969,13.908-4.969h16.695c0,0,11.199,3.596,13.885,4.965
	C58.18,54.731,59,61.999,59,61.999H5C5,61.999,5.871,54.728,9.787,52.751z"/>
<path fill="#8C5F44" d="M23,49.946c0,0,2.889,2.832,9,2.832c6.113,0,9-2.832,9-2.832v-8.035H23V49.946z"/>
<path id="Path_1364_" fill="#B88A6F" d="M48.441,25.395c-2.545,0.307-4.383,8.814-2.781,11.06c0.225,0.313,1.535,0.814,2.508-1.167
	c0.539-1.098,2.092-2.014,2.574-4.277C51.359,28.109,50.975,25.088,48.441,25.395z"/>
<path id="Path_1363_" fill="#B88A6F" d="M15.561,25.395c2.545,0.307,4.383,8.814,2.781,11.06c-0.225,0.313-1.535,0.814-2.51-1.167
	c-0.537-1.098-2.092-2.014-2.572-4.277C12.641,28.109,13.027,25.088,15.561,25.395z"/>
<path id="Path_1362_" fill="#8C5F44" d="M48.373,27.023c-0.664,0.209-1.389,1.221-1.781,2.898c2.32-0.498,1.74,3.361-0.277,3.434
	c0.02,0.389,0.045,0.787,0.094,1.207c0.971-1.408,1.959-0.844,2.938-2.939C50.227,29.734,50.018,26.51,48.373,27.023z"/>
<path id="Path_1361_" fill="#8C5F44" d="M17.41,29.918c-0.395-1.676-1.117-2.686-1.781-2.895c-1.643-0.514-1.855,2.711-0.973,4.6
	c0.979,2.096,1.967,1.531,2.939,2.939c0.047-0.42,0.074-0.82,0.09-1.209C15.689,33.26,15.117,29.447,17.41,29.918z"/>
<path id="Path_1360_" fill="#B88A6F" d="M32,9.035c-11.027,0-16.34,8.328-15.676,19.908c0.133,2.33,1.582,9.929,2.947,12.655
	c1.398,2.789,6.074,7.09,8.938,7.98c1.811,0.561,5.773,0.561,7.582,0c2.865-0.891,7.543-5.191,8.939-7.98
	c1.369-2.727,2.814-10.323,2.945-12.655C48.344,17.363,43.031,9.035,32,9.035z"/>
<path id="Path_1359_" fill="#1A1626" d="M43.982,24.545c-2.521-1.336-7.348-1.4-9.146-0.469c-0.387,0.178-0.131,1.441,0.193,1.322
	c2.504-0.99,6.547-1.012,8.893,0.084C44.234,25.625,44.365,24.73,43.982,24.545z"/>
<path id="Path_1358_" fill="#1A1626" d="M20.02,24.545c2.521-1.336,7.346-1.4,9.146-0.469c0.385,0.178,0.131,1.441-0.193,1.322
	c-2.51-0.99-6.547-1.012-8.895,0.084C19.768,25.625,19.639,24.73,20.02,24.545z"/>
<path id="Path_1357_" fill="#8C5F44" d="M34.977,36.108c-0.314-0.219-1.053,0.119-2.977,0.119c-1.92,0-2.66-0.338-2.975-0.119
	c-0.377,0.266,0.223,1.461,2.975,1.461C34.754,37.569,35.355,36.374,34.977,36.108z"/>
<path id="Path_1356_" fill="#1A1626" d="M32,40.646c-2.479-0.729-6.154,0.346-6.154,0.346c1.398,1.521,2.424,3.494,6.154,3.494
	c4.275,0,5.002-2.24,6.156-3.494C38.156,40.991,34.48,39.911,32,40.646z"/>
<path id="Path_1355_" fill="#FFFFFF" d="M26.768,41.249c2.602,2.176,7.852,2.191,10.467,0
	C34.463,41.366,29.559,41.368,26.768,41.249z"/>
<path id="Path_1354_" fill="#FFFFFF" d="M29.547,29.086c0.094,0.73-0.402,1.594-1.773,2.242c-0.871,0.412-2.686,0.896-5.066-0.107
	c-1.066-0.449-2.107-1.848-2.014-2.623C21.984,26.168,28.338,25.813,29.547,29.086z"/>
<linearGradient id="Oval_1_" gradientUnits="userSpaceOnUse" x1="-424.5815" y1="477.4648" x2="-424.5815" y2="478.2236" gradientTransform="matrix(6.5701 0 0 -6.5701 2814.7805 3168.5281)">
	<stop  offset="0" style="stop-color:#C20606"/>
	<stop  offset="1" style="stop-color:#5E0000"/>
	<a:midPointStop  offset="0" style="stop-color:#C20606"/>
	<a:midPointStop  offset="0.5" style="stop-color:#C20606"/>
	<a:midPointStop  offset="1" style="stop-color:#5E0000"/>
</linearGradient>
<circle id="Oval_176_" fill="url(#Oval_1_)" cx="25.236" cy="29.039" r="2.492"/>
<path id="Path_1353_" fill="#1A1626" d="M23.988,28.992c0,1.725,2.496,1.725,2.496,0C26.484,27.393,23.988,27.393,23.988,28.992z"/>
<path id="Path_1352_" fill="#AB968C" d="M23.609,28.293c0,0.723,1.045,0.723,1.045,0C24.654,27.625,23.609,27.625,23.609,28.293z"/>
<path id="Path_1351_" fill="#1A1626" d="M29.559,29.182c-1.014-3.25-7.926-2.77-8.865-0.584
	C21.041,25.799,28.695,25.059,29.559,29.182z"/>
<path id="Path_1350_" fill="#FFFFFF" d="M34.455,29.086c-0.094,0.73,0.4,1.594,1.773,2.242c0.871,0.412,2.684,0.896,5.064-0.107
	c1.07-0.449,2.109-1.848,2.016-2.623C42.018,26.168,35.662,25.813,34.455,29.086z"/>
<linearGradient id="Oval_2_" gradientUnits="userSpaceOnUse" x1="-425.23" y1="477.4648" x2="-425.23" y2="478.2236" gradientTransform="matrix(6.5701 0 0 -6.5701 2832.511 3168.5281)">
	<stop  offset="0" style="stop-color:#C20606"/>
	<stop  offset="1" style="stop-color:#5E0000"/>
	<a:midPointStop  offset="0" style="stop-color:#C20606"/>
	<a:midPointStop  offset="0.5" style="stop-color:#C20606"/>
	<a:midPointStop  offset="1" style="stop-color:#5E0000"/>
</linearGradient>
<circle id="Oval_175_" fill="url(#Oval_2_)" cx="38.709" cy="29.039" r="2.492"/>
<path id="Path_1349_" fill="#1A1626" d="M37.463,28.992c0,1.725,2.496,1.725,2.496,0C39.959,27.393,37.463,27.393,37.463,28.992z"/>
<path id="Path_1348_" fill="#AB968C" d="M37.082,28.293c0,0.723,1.047,0.723,1.047,0C38.129,27.625,37.082,27.625,37.082,28.293z"/>
<path id="Path_1347_" fill="#1A1626" d="M34.443,29.182c1.012-3.248,7.92-2.783,8.865-0.584
	C42.957,25.799,35.307,25.059,34.443,29.182z"/>
<path fill="#302C3B" d="M46.086,11.794C43.672,8.533,39.254,6.001,32,6.001c-7.252,0-11.668,2.532-14.082,5.793
	C14.5,16.41,49.502,16.41,46.086,11.794z"/>
<linearGradient id="SVGID_1_" gradientUnits="userSpaceOnUse" x1="32.0015" y1="31.793" x2="32.0015" y2="10.6147">
	<stop  offset="0.5" style="stop-color:#1A1626"/>
	<stop  offset="0.7574" style="stop-color:#231F2F"/>
	<stop  offset="1" style="stop-color:#302C3B"/>
	<a:midPointStop  offset="0.5" style="stop-color:#1A1626"/>
	<a:midPointStop  offset="0.6" style="stop-color:#1A1626"/>
	<a:midPointStop  offset="1" style="stop-color:#302C3B"/>
</linearGradient>
<path fill="url(#SVGID_1_)" d="M46.086,11.794C43.672,8.533,32,13.069,32,13.069s-11.668-4.536-14.082-1.275
	C14.5,16.41,15.66,31.793,17.182,31.793c0.24,0,0.275-5.381,0.736-9.104c0.373-3.029,1.094-5.969,1.924-6.449
	C22.373,14.773,32,17.871,32,17.871s9.629-3.098,12.162-1.631c0.828,0.48,1.547,3.42,1.924,6.449
	c0.459,3.723,0.494,9.104,0.734,9.104C48.342,31.793,49.502,16.41,46.086,11.794z"/>
<polygon fill="#E6EBEF" points="23.276,54.345 24.533,61.999 39.463,61.999 40.722,54.345 "/>
<path fill="#302C3B" d="M41.927,61.999c0,0,2.436-2.756,4.279-9.166l-7.123,0.918c0,0,1.102,1.385-1.436,8.248H41.927z"/>
<path fill="#302C3B" d="M22.05,61.999c0,0-2.414-2.756-4.256-9.166l7.121,0.918c0,0-1.103,1.385,1.437,8.248H22.05z"/>
<radialGradient id="SVGID_2_" cx="690.4189" cy="-134.9121" r="29.2054" fx="667.0508" fy="-124.3153" gradientTransform="matrix(-0.9613 -1.000000e-004 -5.047310e-005 -0.5047 679.4698 -5.4239)" gradientUnits="userSpaceOnUse">
	<stop  offset="0.2606" style="stop-color:#E81C27"/>
	<stop  offset="0.3636" style="stop-color:#B51C27"/>
	<stop  offset="0.503" style="stop-color:#E81C27"/>
	<a:midPointStop  offset="0.2606" style="stop-color:#E81C27"/>
	<a:midPointStop  offset="0.5" style="stop-color:#E81C27"/>
	<a:midPointStop  offset="0.3636" style="stop-color:#B51C27"/>
	<a:midPointStop  offset="0.5" style="stop-color:#B51C27"/>
	<a:midPointStop  offset="0.503" style="stop-color:#E81C27"/>
</radialGradient>
<path fill="url(#SVGID_2_)" d="M31.311,54.065c-1.404,3.967-8.645,5.043-9.072,4.459c-0.869-1.191-1.674-6-0.016-8.656
	C22.479,49.458,30.238,49.552,31.311,54.065z"/>
<radialGradient id="SVGID_3_" cx="17.9766" cy="-134.605" r="29.203" fx="-5.3896" fy="-124.009" gradientTransform="matrix(0.9613 -3.000000e-004 1.514193e-004 -0.5047 30.9319 -5.3377)" gradientUnits="userSpaceOnUse">
	<stop  offset="0.2606" style="stop-color:#E81C27"/>
	<stop  offset="0.3636" style="stop-color:#B51C27"/>
	<stop  offset="0.503" style="stop-color:#E81C27"/>
	<a:midPointStop  offset="0.2606" style="stop-color:#E81C27"/>
	<a:midPointStop  offset="0.5" style="stop-color:#E81C27"/>
	<a:midPointStop  offset="0.3636" style="stop-color:#B51C27"/>
	<a:midPointStop  offset="0.5" style="stop-color:#B51C27"/>
	<a:midPointStop  offset="0.503" style="stop-color:#E81C27"/>
</radialGradient>
<path fill="url(#SVGID_3_)" d="M32.658,54.065c1.404,3.967,8.646,5.041,9.073,4.455c0.869-1.191,1.675-5.998,0.018-8.654
	C41.493,49.456,33.733,49.552,32.658,54.065z"/>
<linearGradient id="SVGID_4_" gradientUnits="userSpaceOnUse" x1="70.0244" y1="56.5332" x2="70.0244" y2="51.8809" gradientTransform="matrix(1.1359 -2.000000e-004 -2.000000e-004 1 -47.5442 -0.1381)">
	<stop  offset="0.097" style="stop-color:#B51C27"/>
	<stop  offset="0.5515" style="stop-color:#E81C27"/>
	<a:midPointStop  offset="0.097" style="stop-color:#B51C27"/>
	<a:midPointStop  offset="0.5" style="stop-color:#B51C27"/>
	<a:midPointStop  offset="0.5515" style="stop-color:#E81C27"/>
</linearGradient>
<path fill="url(#SVGID_4_)" d="M31.989,56.261c-1.941,0.002-2.421,0.893-2.427-2.203c-0.003-3.098,0.479-2.205,2.422-2.209
	c1.941,0,2.421-0.896,2.426,2.203C34.414,57.147,33.933,56.259,31.989,56.261z"/>
<polygon fill="#FFFFFF" points="27.299,41.28 28.17,44.669 29.098,41.392 "/>
<polygon fill="#FFFFFF" points="36.701,41.28 35.83,44.669 34.902,41.392 "/>
</svg>
