<?xml version="1.0" encoding="utf-8"?>
<!-- Generator: Adobe Illustrator 15.0.0, SVG Export Plug-In . SVG Version: 6.00 Build 0)  -->
<!DOCTYPE svg PUBLIC "-//W3C//DTD SVG 1.1//EN" "http://www.w3.org/Graphics/SVG/1.1/DTD/svg11.dtd" [
	<!ENTITY ns_flows "http://ns.adobe.com/Flows/1.0/">
	<!ENTITY ns_extend "http://ns.adobe.com/Extensibility/1.0/">
	<!ENTITY ns_ai "http://ns.adobe.com/AdobeIllustrator/10.0/">
	<!ENTITY ns_graphs "http://ns.adobe.com/Graphs/1.0/">
]>
<svg version="1.1" id="Layer_1" xmlns:x="&ns_extend;" xmlns:i="&ns_ai;" xmlns:graph="&ns_graphs;"
	 xmlns="http://www.w3.org/2000/svg" xmlns:xlink="http://www.w3.org/1999/xlink" xmlns:a="http://ns.adobe.com/AdobeSVGViewerExtensions/3.0/"
	 x="0px" y="0px" width="64px" height="64px" viewBox="0 0 64 64" enable-background="new 0 0 64 64" xml:space="preserve">
<path fill="#E81C27" d="M51,61c0,0.549-0.449,1-1,1H14c-0.55,0-1-0.451-1-1V3c0-0.55,0.45-1,1-1h36c0.551,0,1,0.45,1,1V61z"/>
<path fill="#FFE12C" d="M37.451,24.454c0.697-0.26,1.617-0.026,1.645,0.798c0.027,0.814-3.896,2.033-5.074,1.924
	c-0.635-0.06-1.516-0.389-1.456-1.033C32.625,25.52,35.002,25.368,37.451,24.454z"/>
<path fill="#FFE12C" d="M27.35,24.219c2.392-0.478,4.469,3.283,2.443,3.285C28.786,27.506,25.817,24.526,27.35,24.219z"/>
<path fill="#FFE12C" d="M38.297,30.742c0.451,1.355-1.123,0.995-4.182,1.736c-0.059,0.248-1.281,1.203-1.328,0.393
	c-0.125-2.142-1.619-3.438-1.209-4.053c0.307-0.46,0.835-0.062,1.409-0.047c0.907,0.023,4.002-1.189,4.229-1.221
	c0.771-0.102,2.326,0.615,2.443,1.267C39.84,29.842,38.521,29.979,38.297,30.742z M33.785,30.085
	c0.002,0.344,0.129,0.563,0.143,0.893c0.992-0.089,1.84-0.32,2.631-0.609c0.078-0.244,0.199-0.666,0.141-0.893
	C35.584,29.533,34.803,29.925,33.785,30.085z"/>
<path fill="#FFE12C" d="M27.961,31.07c-0.865,0.037-2.468,1.426-3.664,1.174c-0.682-0.145-1.697-1.248-0.939-1.972
	c1.882-0.078,4.023-0.594,5.497-1.548c0.733-0.476,1.849,0.62,1.88,1.22c0.029,0.605-1.127,1.807-1.975,3.286
	c0.584,0.167,1.233,0.27,1.598,0.656c0.415-0.805,1.119-0.032,1.691,0.047c0.473,0.064,6.511-1.443,7.283-1.361
	c0.783,0.083,2.066,0.876,2.162,1.643c0.078,0.65-0.404,0.89-0.564,1.361c-0.25,0.733-0.525,4.442-0.705,5.208
	c-0.195,0.823-0.889,2.32-1.598,2.3c-1.029-0.027-0.58-1.946-1.223-2.486c-1.623-0.223-2.732,0.455-4.322,0.422
	c-0.107,0.652-0.162,1.492-0.798,1.406c-0.889-0.117-0.9-1.992-0.985-3.191c-0.112-1.553-0.21-2.877-0.47-3.707
	c-0.395,0.725-1.488,0.335-1.832-0.328c-0.154,1.949,0.141,4.451-0.141,6.383c-0.099,0.674-0.197,1.57-0.799,1.594
	c-0.77,0.032-1.186-1.353-1.127-2.158c0.057-0.803,0.529-4.703,0.563-5.678c-0.526,0.652-4.701,4.804-4.979,3.613
	c-0.143-0.609,1.142-1.633,1.409-1.924C25.548,35.25,26.917,33.341,27.961,31.07z M36.275,35.809
	c0.838-0.348,2.408-0.186,2.164,0.894c-0.186,0.81-1.645,0.628-2.396,0.984c0.012,0.292-0.008,0.962,0,1.409
	c0.977-0.275,1.941-0.178,2.396,0.421c0.307-1.517,0.58-3.427,0.375-5.162c-0.928,0.028-1.836,0.073-2.537,0.329
	C36.488,34.789,36.426,35.455,36.275,35.809z M32.566,35.295c0.022,0.51,0.08,0.982,0.14,1.453c0.285-0.324,1.31-0.318,1.88-0.516
	c-0.082-0.396-0.02-0.993-0.094-1.267C33.805,35.03,33.176,35.15,32.566,35.295z M32.988,39.564
	c0.471-0.123,1.057-0.131,1.551-0.234c-0.01-0.512,0-1.002,0.047-1.455c-0.807,0.055-1.453-0.053-1.833-0.422
	C32.883,38.104,32.815,38.954,32.988,39.564z"/>
<path fill="#850404" d="M13,3.328c0,13.06,38,13.059,38,0H13z"/>
<path fill="#D41924" d="M50,2H14c-0.55,0-1,0.45-1,1c0,12.426,38,12.426,38,0C51,2.45,50.551,2,50,2z"/>
<path fill="#850404" d="M37.793,16.454H26.207C26.207,7.655,37.793,7.655,37.793,16.454z"/>
<path fill="#E81C27" d="M37.871,16.884h-11.74C26.131,8.803,37.871,8.803,37.871,16.884z"/>
</svg>
