<?xml version="1.0" encoding="utf-8"?>
<!-- Generator: Adobe Illustrator 15.0.0, SVG Export Plug-In . SVG Version: 6.00 Build 0)  -->
<!DOCTYPE svg PUBLIC "-//W3C//DTD SVG 1.1//EN" "http://www.w3.org/Graphics/SVG/1.1/DTD/svg11.dtd" [
	<!ENTITY ns_flows "http://ns.adobe.com/Flows/1.0/">
	<!ENTITY ns_extend "http://ns.adobe.com/Extensibility/1.0/">
	<!ENTITY ns_ai "http://ns.adobe.com/AdobeIllustrator/10.0/">
	<!ENTITY ns_graphs "http://ns.adobe.com/Graphs/1.0/">
]>
<svg version="1.1" id="Layer_1" xmlns:x="&ns_extend;" xmlns:i="&ns_ai;" xmlns:graph="&ns_graphs;"
	 xmlns="http://www.w3.org/2000/svg" xmlns:xlink="http://www.w3.org/1999/xlink" xmlns:a="http://ns.adobe.com/AdobeSVGViewerExtensions/3.0/"
	 x="0px" y="0px" width="64px" height="64px" viewBox="0 0 64 64" enable-background="new 0 0 64 64" xml:space="preserve">
<linearGradient id="SVGID_1_" gradientUnits="userSpaceOnUse" x1="777.6699" y1="-131.3887" x2="799.0566" y2="-131.3887" gradientTransform="matrix(-0.866 -0.5 -0.5 0.866 639.0477 541.8829)">
	<stop  offset="0.2182" style="stop-color:#CF0000"/>
	<stop  offset="0.5143" style="stop-color:#E90007"/>
	<stop  offset="0.7904" style="stop-color:#F9000C"/>
	<stop  offset="1" style="stop-color:#FF000E"/>
	<a:midPointStop  offset="0.2182" style="stop-color:#CF0000"/>
	<a:midPointStop  offset="0.3516" style="stop-color:#CF0000"/>
	<a:midPointStop  offset="1" style="stop-color:#FF000E"/>
</linearGradient>
<path fill="url(#SVGID_1_)" d="M43.844,17.507L20.714,57.24c-2.841,4.883-21.261-5.665-18.417-10.547L25.424,6.96L43.844,17.507z"/>
<path fill="#B00505" d="M25.424,6.96c-2.369,4.068,16.052,14.617,18.419,10.547C46.213,13.438,27.793,2.89,25.424,6.96z"/>
<path fill="#F59E01" d="M26.185,7.39c-0.091,0.156-0.128,0.331-0.14,0.515l16.363,9.698c0.297-0.11,0.533-0.277,0.677-0.525
	C45.021,13.758,28.119,4.07,26.185,7.39z"/>
<path fill="#D47706" d="M26.045,7.904c-0.203,3.403,12.869,11.004,16.363,9.698C42.613,14.198,29.541,6.599,26.045,7.904z"/>
<path fill="#1A1626" d="M36.682,13.416c-0.422,0.73-4.514-1.637-4.094-2.365C33.01,10.32,37.1,12.687,36.682,13.416z"/>
<path fill="#B47D56" d="M35.166,13.216c12.027-15.419,19.059,2.62,14.912,11.017c-0.471,0.954,1.059,0.841,1.299,0.375
	c5.365-10.35-3.846-29.291-17.813-12.313C34.244,12.814,35.166,13.216,35.166,13.216z"/>
<path fill="#EF4E16" d="M47.877,33.35c-1.844,2.013,0.406-1.994,2.479-7.898C49.793,31.088,49.203,31.896,47.877,33.35z"/>
<path fill="#F59E01" d="M53.582,31.411c-0.379,2.013-0.723-0.865-2.205-5.934C52.459,26.823,53.854,29.959,53.582,31.411z"/>
<path fill="#F9C802" d="M57.305,32.307c0.205,1.277-1.859-1.622-3.215-4.3C56.406,30.336,57.154,31.383,57.305,32.307z"/>
<path fill="#F9C802" d="M50.83,34.795c-0.846,1.059-0.582-2.743,0.168-6C51.809,31.74,51.439,34.03,50.83,34.795z"/>
<path fill="#F9C802" d="M43.275,32.709c-1.5,0.151,1.121-1.742,4.035-3.638C45.52,31.399,44.355,32.601,43.275,32.709z"/>
<path fill="#F9C802" d="M42.49,24.743c-1.457-0.673,2.373-0.376,5.908-0.511C46.361,24.926,43.543,25.231,42.49,24.743z"/>
<path fill="#F59E01" d="M44.797,28.316c-2.236,0.244-0.107-0.712,4.748-3.513C48.789,26.089,46.41,28.14,44.797,28.316z"/>
<path fill="#EF4E16" d="M58.004,28.819c2.455,0.4-1.594-1.051-6.311-3.988C55.041,28.309,56.232,28.531,58.004,28.819z"/>
<path fill="#F59E01" d="M57.754,23.277c1.602-1.164-1.678-0.128-6.07,0.477C53.295,24.162,56.598,24.116,57.754,23.277z"/>
<path fill="#F59E01" d="M44.355,20.169c-2.211-0.416,1.227,1.207,5.197,3.828C48.604,22.675,45.949,20.47,44.355,20.169z"/>
<path fill="#F9C802" d="M61.773,25.707c1.352-0.816-3.613-0.045-7.359-0.146C58.164,26.507,60.799,26.298,61.773,25.707z"/>
<path fill="#F9C802" d="M57.777,19.655c0.428-1.473-2.086,0.493-4.498,2.792C54.385,21.965,57.467,20.72,57.777,19.655z"/>
<path fill="#F9C802" d="M49.488,16.37c-1.209-1.304-0.412,1.713,0.783,5.416C50.266,20.603,50.361,17.313,49.488,16.37z"/>
<path fill="#EF4E16" d="M55.189,17.538c-0.215-2.252-1.268,1.536-3.811,5.381C52.568,21.811,55.344,19.16,55.189,17.538z"/>
<path fill="#F59E01" d="M46.004,35.579c-0.447-1.188,0.447-1.332,1.053-1.348C47.359,34.782,47.625,35.752,46.004,35.579z"/>
<path fill="#EF4E16" d="M53.08,34.441c-0.881-1.013-0.16-1.462,0.361-1.688C53.936,33.191,54.563,34.054,53.08,34.441z"/>
<path fill="#F59E01" d="M59.09,28.919c0.713-0.903,1.271-0.409,1.588-0.033C60.395,29.368,59.762,30.041,59.09,28.919z"/>
<path fill="#EF4E16" d="M58.545,22.678c-0.145-1.208,0.791-1.15,1.408-1.035C60.115,22.223,60.133,23.189,58.545,22.678z"/>
<path fill="#EF4E16" d="M41.246,28.807c0.516-1.032,1.369-0.565,1.889-0.195C42.979,29.149,42.471,29.929,41.246,28.807z"/>
<path fill="#F59E01" d="M55.025,16.065c-0.992-0.928-0.352-1.46,0.127-1.746C55.691,14.706,56.42,15.509,55.025,16.065z"/>
<radialGradient id="SVGID_2_" cx="272.1875" cy="402.752" r="4.3604" gradientTransform="matrix(-0.6865 -0.7317 -0.7271 0.6917 530.5673 -54.7537)" gradientUnits="userSpaceOnUse">
	<stop  offset="0" style="stop-color:#FFFF57"/>
	<stop  offset="0.2064" style="stop-color:#FFF94B"/>
	<stop  offset="0.5797" style="stop-color:#FFEA2B"/>
	<stop  offset="1" style="stop-color:#FFD500"/>
	<a:midPointStop  offset="0" style="stop-color:#FFFF57"/>
	<a:midPointStop  offset="0.5758" style="stop-color:#FFFF57"/>
	<a:midPointStop  offset="1" style="stop-color:#FFD500"/>
</radialGradient>
<polygon fill="url(#SVGID_2_)" points="49.168,26.291 49.514,29.176 51.398,26.951 54.059,28.069 53.104,25.331 55.416,23.563 
	52.574,23.049 52.227,20.164 50.342,22.39 47.684,21.271 48.639,24.008 46.324,25.776 "/>
<radialGradient id="SVGID_3_" cx="272.1885" cy="402.751" r="3.0807" gradientTransform="matrix(-0.6865 -0.7317 -0.7271 0.6917 530.5673 -54.7537)" gradientUnits="userSpaceOnUse">
	<stop  offset="0" style="stop-color:#FFFFFF"/>
	<stop  offset="0.1226" style="stop-color:#FFFFF9;stop-opacity:0.8774"/>
	<stop  offset="0.2842" style="stop-color:#FFFFE9;stop-opacity:0.7158"/>
	<stop  offset="0.4676" style="stop-color:#FFFFCD;stop-opacity:0.5324"/>
	<stop  offset="0.6671" style="stop-color:#FFFFA7;stop-opacity:0.3329"/>
	<stop  offset="0.8773" style="stop-color:#FFFF77;stop-opacity:0.1227"/>
	<stop  offset="1" style="stop-color:#FFFF57;stop-opacity:0"/>
	<a:midPointStop  offset="0" style="stop-color:#FFFFFF"/>
	<a:midPointStop  offset="0.6485" style="stop-color:#FFFFFF"/>
	<a:midPointStop  offset="1" style="stop-color:#FFFF57;stop-opacity:0"/>
</radialGradient>
<polygon fill="url(#SVGID_3_)" points="49.666,25.813 49.914,27.853 51.244,26.281 53.121,27.07 52.447,25.138 54.082,23.887 
	52.074,23.524 51.828,21.486 50.496,23.059 48.619,22.269 49.295,24.202 47.66,25.452 "/>
</svg>
