<?xml version="1.0" encoding="utf-8"?>
<!-- Generator: Adobe Illustrator 15.0.0, SVG Export Plug-In . SVG Version: 6.00 Build 0)  -->
<!DOCTYPE svg PUBLIC "-//W3C//DTD SVG 1.1//EN" "http://www.w3.org/Graphics/SVG/1.1/DTD/svg11.dtd" [
	<!ENTITY ns_flows "http://ns.adobe.com/Flows/1.0/">
	<!ENTITY ns_extend "http://ns.adobe.com/Extensibility/1.0/">
	<!ENTITY ns_ai "http://ns.adobe.com/AdobeIllustrator/10.0/">
	<!ENTITY ns_graphs "http://ns.adobe.com/Graphs/1.0/">
]>
<svg version="1.1" id="Layer_1" xmlns:x="&ns_extend;" xmlns:i="&ns_ai;" xmlns:graph="&ns_graphs;"
	 xmlns="http://www.w3.org/2000/svg" xmlns:xlink="http://www.w3.org/1999/xlink" xmlns:a="http://ns.adobe.com/AdobeSVGViewerExtensions/3.0/"
	 x="0px" y="0px" width="64px" height="64px" viewBox="0 0 64 64" enable-background="new 0 0 64 64" xml:space="preserve">
<path fill="#B8703D" d="M47.887,49.412c0,10.512-31.771,10.512-31.771,0.001C16.117,26.196,47.887,26.196,47.887,49.412z"/>
<path fill="#F5BB87" d="M22.595,43.258c0-12.58,18.812-12.578,18.812-0.001C41.407,56.043,22.595,56.043,22.595,43.258z"/>
<linearGradient id="SVGID_1_" gradientUnits="userSpaceOnUse" x1="0.5903" y1="-37.4961" x2="26.251" y2="-37.4961" gradientTransform="matrix(0.9675 0 0 1.3195 1.4289 99.3393)">
	<stop  offset="0" style="stop-color:#B8703D"/>
	<stop  offset="0.3101" style="stop-color:#BC7441"/>
	<stop  offset="0.6265" style="stop-color:#C8804D"/>
	<stop  offset="0.945" style="stop-color:#DC9362"/>
	<stop  offset="1" style="stop-color:#E09766"/>
	<a:midPointStop  offset="0" style="stop-color:#B8703D"/>
	<a:midPointStop  offset="0.703" style="stop-color:#B8703D"/>
	<a:midPointStop  offset="1" style="stop-color:#E09766"/>
</linearGradient>
<path fill="url(#SVGID_1_)" d="M26.73,55.637c-9.043,7.525-20.909,10.366-24.082-2.773c-3.834-15.88,10.474-20.088,13.654-8.674
	C19.623,43.553,27.808,45.924,26.73,55.637z"/>
<path fill="#F5BB87" d="M13.791,47.855c2.215,13.28-6.777,16.256-10.258,5.315C-0.291,41.148,11.583,34.627,13.791,47.855z"/>
<path fill="#C4926E" d="M9.274,58.391c-0.09,0-0.185-0.006-0.276-0.016l0.078-0.789c0.432,0.051,0.846-0.055,1.222-0.302
	l0.396,0.674C10.254,58.244,9.777,58.391,9.274,58.391z M7.417,57.736C7,57.439,6.597,57.047,6.22,56.568l0.578-0.507
	c0.33,0.421,0.679,0.763,1.038,1.018L7.417,57.736z M11.857,56.67l-0.641-0.412c0.225-0.391,0.41-0.855,0.551-1.384l0.723,0.216
	C12.33,55.688,12.117,56.219,11.857,56.67z M5.324,55.18c-0.244-0.459-0.475-0.963-0.681-1.498l0.693-0.301
	c0.195,0.506,0.411,0.979,0.641,1.408L5.324,55.18z M12.78,53.438l-0.746-0.081c0.04-0.402,0.06-0.833,0.06-1.279l-0.003-0.282
	l0.75-0.018l0.003,0.3C12.843,52.551,12.822,53.009,12.78,53.438z M4.125,52.121c-0.15-0.545-0.269-1.09-0.35-1.619l0.74-0.129
	c0.076,0.498,0.188,1.012,0.329,1.525L4.125,52.121z M11.99,50.221c-0.052-0.498-0.128-1.02-0.227-1.564l0.727-0.207l0.013,0.068
	c0.1,0.557,0.177,1.098,0.231,1.615L11.99,50.221z M3.63,48.838l-0.002-0.18c0-0.516,0.036-1.019,0.107-1.496l0.741,0.123
	c-0.065,0.438-0.098,0.899-0.098,1.373l0.001,0.166L3.63,48.838z M11.398,47.08c-0.154-0.525-0.333-1.012-0.533-1.443l0.674-0.35
	c0.217,0.47,0.41,0.994,0.576,1.559L11.398,47.08z M4.845,45.81l-0.7-0.284c0.205-0.561,0.465-1.067,0.776-1.508l0.602,0.473
	C5.251,44.873,5.024,45.317,4.845,45.81z M10.099,44.354c-0.321-0.41-0.674-0.729-1.046-0.945l0.36-0.693
	c0.457,0.265,0.882,0.646,1.265,1.135L10.099,44.354z M6.527,43.495l-0.395-0.673c0.516-0.336,1.062-0.518,1.624-0.538l0.026,0.792
	C7.353,43.092,6.929,43.233,6.527,43.495z"/>
<linearGradient id="SVGID_2_" gradientUnits="userSpaceOnUse" x1="-9.2451" y1="-37.498" x2="16.4126" y2="-37.498" gradientTransform="matrix(-0.9675 0 0 1.3195 53.0554 99.3393)">
	<stop  offset="0" style="stop-color:#B8703D"/>
	<stop  offset="0.3101" style="stop-color:#BC7441"/>
	<stop  offset="0.6265" style="stop-color:#C8804D"/>
	<stop  offset="0.945" style="stop-color:#DC9362"/>
	<stop  offset="1" style="stop-color:#E09766"/>
	<a:midPointStop  offset="0" style="stop-color:#B8703D"/>
	<a:midPointStop  offset="0.703" style="stop-color:#B8703D"/>
	<a:midPointStop  offset="1" style="stop-color:#E09766"/>
</linearGradient>
<path fill="url(#SVGID_2_)" d="M37.272,55.642c9.041,7.525,20.907,10.356,24.079-2.784c3.835-15.879-10.473-20.087-13.651-8.672
	C44.38,43.548,36.194,45.928,37.272,55.642z"/>
<path fill="#F5BB87" d="M50.21,47.855c-2.214,13.28,6.776,16.256,10.258,5.315C64.291,41.148,52.418,34.627,50.21,47.855z"/>
<radialGradient id="SVGID_3_" cx="41.8652" cy="-34.1138" r="10.4296" gradientTransform="matrix(-0.8859 -0.4175 -0.3728 1.3657 63.2043 112.8476)" gradientUnits="userSpaceOnUse">
	<stop  offset="0.4667" style="stop-color:#C47841"/>
	<stop  offset="0.6614" style="stop-color:#C17640"/>
	<stop  offset="0.8319" style="stop-color:#B66F3D"/>
	<stop  offset="0.9931" style="stop-color:#A46537"/>
	<stop  offset="1" style="stop-color:#A36437"/>
	<a:midPointStop  offset="0.4667" style="stop-color:#C47841"/>
	<a:midPointStop  offset="0.7333" style="stop-color:#C47841"/>
	<a:midPointStop  offset="1" style="stop-color:#A36437"/>
</radialGradient>
<path fill="url(#SVGID_3_)" d="M33.45,50.217c0.775-2.051,2.639-2.293,3.493-3.492c5.501-7.725,2.163-12.332,5.339-14.164
	c5.794,0.569,8.936,12.918,4.285,23.262c-4.338,9.646-15.603,6.891-13.041-0.706C33.796,54.317,32.888,51.702,33.45,50.217z"/>
<radialGradient id="SVGID_4_" cx="-874.0283" cy="-34.1138" r="10.4296" gradientTransform="matrix(0.8859 -0.4175 0.3728 1.3657 812.2283 -269.5391)" gradientUnits="userSpaceOnUse">
	<stop  offset="0.4667" style="stop-color:#C47841"/>
	<stop  offset="0.6614" style="stop-color:#C17640"/>
	<stop  offset="0.8319" style="stop-color:#B66F3D"/>
	<stop  offset="0.9931" style="stop-color:#A46537"/>
	<stop  offset="1" style="stop-color:#A36437"/>
	<a:midPointStop  offset="0.4667" style="stop-color:#C47841"/>
	<a:midPointStop  offset="0.7333" style="stop-color:#C47841"/>
	<a:midPointStop  offset="1" style="stop-color:#A36437"/>
</radialGradient>
<path fill="url(#SVGID_4_)" d="M30.552,50.217c-0.775-2.051-2.639-2.293-3.494-3.492c-5.5-7.725-2.162-12.332-5.338-14.164
	c-5.795,0.569-8.936,12.918-4.285,23.262c4.338,9.646,15.603,6.891,13.041-0.706C30.206,54.317,31.114,51.702,30.552,50.217z"/>
<path fill="#C4926E" d="M53.308,57.958l0.396-0.674c0.376,0.247,0.789,0.353,1.222,0.302l0.078,0.789
	c-0.092,0.01-0.187,0.016-0.276,0.016C54.224,58.391,53.746,58.244,53.308,57.958z M56.164,57.079
	c0.359-0.255,0.708-0.597,1.038-1.018l0.578,0.507c-0.377,0.479-0.78,0.871-1.197,1.168L56.164,57.079z M51.511,55.09l0.723-0.216
	c0.141,0.528,0.325,0.993,0.551,1.384l-0.641,0.412C51.884,56.219,51.671,55.688,51.511,55.09z M58.023,54.789
	c0.229-0.429,0.445-0.902,0.641-1.408l0.693,0.301c-0.207,0.535-0.438,1.039-0.681,1.498L58.023,54.789z M51.157,52.077l0.003-0.3
	l0.75,0.018l-0.003,0.282c0,0.446,0.02,0.877,0.06,1.279l-0.746,0.081C51.179,53.009,51.157,52.551,51.157,52.077z M59.156,51.898
	c0.141-0.514,0.253-1.027,0.329-1.525l0.74,0.129c-0.081,0.529-0.199,1.074-0.35,1.619L59.156,51.898z M51.267,50.133
	c0.055-0.518,0.132-1.059,0.231-1.615l0.013-0.068l0.726,0.207c-0.098,0.545-0.174,1.066-0.226,1.564L51.267,50.133z M59.619,48.824
	l0.002-0.166c0-0.474-0.032-0.936-0.098-1.373l0.74-0.123c0.072,0.478,0.108,0.98,0.108,1.496l-0.003,0.18L59.619,48.824z
	 M51.885,46.846c0.167-0.564,0.36-1.089,0.577-1.559l0.674,0.35c-0.2,0.432-0.379,0.918-0.533,1.443L51.885,46.846z M58.477,44.49
	l0.602-0.473c0.313,0.44,0.572,0.947,0.777,1.508l-0.701,0.284C58.976,45.317,58.749,44.873,58.477,44.49z M53.322,43.85
	c0.383-0.488,0.808-0.87,1.265-1.135l0.36,0.693c-0.372,0.217-0.725,0.535-1.046,0.945L53.322,43.85z M56.218,43.076l0.026-0.792
	c0.563,0.021,1.107,0.202,1.624,0.538l-0.395,0.673C57.07,43.233,56.647,43.092,56.218,43.076z"/>
<path fill="#B8703D" d="M47.723,26.308c-9.791-1.724-7.105-16.944,2.684-15.218C60.195,12.818,57.512,28.033,47.723,26.308z"/>
<path fill="#F5BB87" d="M53.473,19.479c-1.075,6.083-9.887,4.531-8.813-1.556C45.73,11.836,54.546,13.389,53.473,19.479z"/>
<path fill="#B8703D" d="M19.623,21.354C9.829,19.626,12.513,4.41,22.309,6.136C32.094,7.862,29.413,23.079,19.623,21.354z"/>
<path fill="#F5BB87" d="M25.368,14.521c-1.073,6.086-9.887,4.531-8.813-1.551C17.632,6.88,26.442,8.434,25.368,14.521z"/>
<radialGradient id="SVGID_5_" cx="138.375" cy="-11.709" r="23.4066" gradientTransform="matrix(0.9848 0.1736 -0.1799 1.0206 -103.6647 6.579)" gradientUnits="userSpaceOnUse">
	<stop  offset="0" style="stop-color:#E09766"/>
	<stop  offset="0.3922" style="stop-color:#CF8654"/>
	<stop  offset="1" style="stop-color:#B8703D"/>
	<a:midPointStop  offset="0" style="stop-color:#E09766"/>
	<a:midPointStop  offset="0.4606" style="stop-color:#E09766"/>
	<a:midPointStop  offset="1" style="stop-color:#B8703D"/>
</radialGradient>
<path fill="url(#SVGID_5_)" d="M50.412,30.339c-1.851,10.499-14.249,12.427-19.903,11.429c-5.656-0.998-16.647-7.047-14.796-17.546
	C19.802,1.032,54.501,7.149,50.412,30.339z"/>
<path fill="#1A1626" d="M26.568,22.27c0.998,0.176,1.631,1.324,1.411,2.563c-0.219,1.24-1.205,2.105-2.203,1.93
	c-1.002-0.178-1.635-1.328-1.418-2.57C24.578,22.955,25.566,22.096,26.568,22.27z"/>
<path id="Shape_9_" fill="#6E8189" d="M26.018,23.445c-0.132,0.75-1.037,0.588-0.906-0.157
	C25.245,22.538,26.148,22.698,26.018,23.445L26.018,23.445z"/>
<path fill="#1A1626" d="M40.886,24.795c0.995,0.177,1.633,1.322,1.413,2.564c-0.219,1.241-1.207,2.104-2.207,1.926
	c-1-0.175-1.635-1.324-1.414-2.565C38.897,25.479,39.881,24.619,40.886,24.795z"/>
<path id="Shape_8_" fill="#6E8189" d="M40.334,25.972c-0.131,0.746-1.034,0.587-0.904-0.159
	C39.563,25.063,40.467,25.224,40.334,25.972L40.334,25.972z"/>
<path fill="#F5BB87" d="M23.999,30.584c0.519-2.917,4.912-7.427,9.647-6.595c4.73,0.835,7.32,6.577,6.804,9.499
	C38.849,42.565,22.406,39.668,23.999,30.584z"/>
<path fill="#785647" d="M32.641,33.105c0.074-0.425,0.681-3.868,0.771-4.371l-1.169-0.207c-0.09,0.502-0.696,3.946-0.772,4.373
	c-0.174,0.992-4.283,1.305-5.091-1.552c0.674,4.104,5.389,3.284,5.389,3.284s4.145,2.384,6.182-1.244
	C36.211,35.799,32.466,34.099,32.641,33.105z"/>
<path id="Shape_7_" fill="#45332C" d="M36.096,29.883c-0.35,1.966-7.119,0.771-6.773-1.192
	C29.906,25.385,36.667,26.579,36.096,29.883L36.096,29.883z"/>
</svg>
