<?xml version="1.0" encoding="utf-8"?>
<!-- Generator: Adobe Illustrator 15.0.0, SVG Export Plug-In . SVG Version: 6.00 Build 0)  -->
<!DOCTYPE svg PUBLIC "-//W3C//DTD SVG 1.1//EN" "http://www.w3.org/Graphics/SVG/1.1/DTD/svg11.dtd" [
	<!ENTITY ns_flows "http://ns.adobe.com/Flows/1.0/">
	<!ENTITY ns_extend "http://ns.adobe.com/Extensibility/1.0/">
	<!ENTITY ns_ai "http://ns.adobe.com/AdobeIllustrator/10.0/">
	<!ENTITY ns_graphs "http://ns.adobe.com/Graphs/1.0/">
]>
<svg version="1.1" id="Layer_1" xmlns:x="&ns_extend;" xmlns:i="&ns_ai;" xmlns:graph="&ns_graphs;"
	 xmlns="http://www.w3.org/2000/svg" xmlns:xlink="http://www.w3.org/1999/xlink" xmlns:a="http://ns.adobe.com/AdobeSVGViewerExtensions/3.0/"
	 x="0px" y="0px" width="64px" height="64px" viewBox="0 0 64 64" enable-background="new 0 0 64 64" xml:space="preserve">
<linearGradient id="SVGID_1_" gradientUnits="userSpaceOnUse" x1="23.1724" y1="55.2402" x2="62.001" y2="55.2402">
	<stop  offset="0" style="stop-color:#84C41F"/>
	<stop  offset="1" style="stop-color:#3C8A00"/>
	<a:midPointStop  offset="0" style="stop-color:#84C41F"/>
	<a:midPointStop  offset="0.5" style="stop-color:#84C41F"/>
	<a:midPointStop  offset="1" style="stop-color:#3C8A00"/>
</linearGradient>
<path fill="url(#SVGID_1_)" d="M58.925,51.268c-4.327-2.707-12.226-3.939-15.545-1.402c-1.86,1.422-1.88,2.713-1.567,3.545
	c0.973,2.605,6.847,3.082,11.037,2.461v-2.277c-4.465,0.748-8.77-0.188-9.143-0.971c0.001-0.004,0.078-0.328,0.836-0.908
	c2.542-1.943,9.689-0.795,13.374,1.512c1.321,0.826,2.084,1.744,2.04,2.453c-0.022,0.354-0.356,1.615-3.73,3.102
	c-3.717,1.639-7.878,0.898-12.695,0.039c-5.675-1.01-12.106-2.158-19.621,0.234c-0.542,0.172-0.854,0.797-0.698,1.393
	c0.156,0.6,0.729,0.941,1.264,0.77c7.075-2.254,13.266-1.148,18.729-0.176C45.936,61.529,48.582,62,51.122,62
	c2.024,0,3.981-0.299,5.861-1.127c3.25-1.432,4.889-3.08,5.011-5.039C62.065,54.674,61.592,52.938,58.925,51.268z"/>
<linearGradient id="SVGID_2_" gradientUnits="userSpaceOnUse" x1="38.959" y1="48.4648" x2="60.0508" y2="48.4648">
	<stop  offset="0.3455" style="stop-color:#3C8A00"/>
	<stop  offset="1" style="stop-color:#84C41F"/>
	<a:midPointStop  offset="0.3455" style="stop-color:#3C8A00"/>
	<a:midPointStop  offset="0.5" style="stop-color:#3C8A00"/>
	<a:midPointStop  offset="1" style="stop-color:#84C41F"/>
</linearGradient>
<path fill="url(#SVGID_2_)" d="M59.642,48.799c-1.059-1.949-3.872-2.641-7.436-3.516c-3.499-0.859-7.755-1.922-10.581-4.455v2.779
	c3.05,2.125,6.899,3.076,10.139,3.871c2.713,0.668,5.518,1.355,6.126,2.475c0.094,0.174,0.185,0.439,0.051,0.965
	c-0.341,1.35-2.869,2.492-6.287,2.842c-0.469,0.047-0.92,0.074-1.359,0.092v2.25c4.177-0.145,8.809-1.41,9.614-4.576
	C60.164,50.514,60.074,49.596,59.642,48.799z"/>
<path fill="#48851A" d="M48.823,31.989c0,30.431-45.685,30.431-45.685,0C3.138,1.553,48.823,1.553,48.823,31.989z"/>
<path fill="#529320" d="M37.872,51.064c-6.153-5.326-9.404-11.41-9.662-18.088c-0.271-6.945,2.891-14.45,8.454-20.072
	c1.464-1.478-0.574-3.492-2.038-2.015c-6.111,6.176-9.579,14.474-9.28,22.195c0.291,7.502,3.873,14.283,10.65,20.146
	C37.387,54.434,39.458,52.438,37.872,51.064z"/>
<path fill="#529320" d="M31.973,52.773c-6.072-5.219-9.385-11.584-9.847-18.924c-0.608-9.653,3.87-18.349,7.889-22.863
	c1.364-1.526-0.776-3.377-2.143-1.851c-4.382,4.921-9.264,14.398-8.603,24.917c0.512,8.113,4.149,15.127,10.813,20.855
	C31.758,56.35,33.843,54.379,31.973,52.773z"/>
<path fill="#529320" d="M24.295,53.375c-15.901-13.088-8.344-33.392-2.124-42.297c1.149-1.647-1.2-3.29-2.353-1.642
	C11.52,20.95,6.39,42.35,22.472,55.582C23.876,56.742,25.905,54.701,24.295,53.375z"/>
<path fill="#6EA31A" d="M28.727,53.449c-15.901-13.09-8.065-34.216-1.846-43.124c1.148-1.647-1.202-3.29-2.353-1.642
	c-8.3,11.514-13.705,33.738,2.377,46.972C28.31,56.814,30.338,54.775,28.727,53.449z"/>
<path fill="#6EA31A" d="M35.427,52.521c-15.902-13.09-8.74-32.081-2.521-40.987c1.151-1.648-1.197-3.288-2.352-1.64
	c-8.3,11.513-13.032,31.599,3.05,44.835C35.009,55.887,37.039,53.848,35.427,52.521z"/>
<path fill="#7AB51D" d="M5.662,40.479c8.27-1.164,14.415-4.459,18.271-9.797c3.979-5.509,5.302-13.229,3.543-20.655
	c-0.495-2.084,2.366-2.695,2.86-0.61c1.937,8.167,0.448,16.707-3.986,22.844c-4.336,6-11.149,9.694-20.263,10.971
	C4.574,43.439,3.42,40.795,5.662,40.479z"/>
<path fill="#7AB51D" d="M9.358,46.1c8.216-1.215,14.656-4.861,19.133-10.838c5.843-7.796,6.763-17.423,5.779-23.298
	c-0.365-2.165,2.521-2.623,2.887-0.462c1.077,6.421,0.074,16.93-6.297,25.434c-4.956,6.613-12.036,10.682-21.064,11.973
	C7.937,49.174,7.597,46.357,9.358,46.1z"/>
<path fill="#7AB51D" d="M15.101,50.492c21.32-2.547,25.888-23.849,25.328-34.758c-0.116-2.248,2.865-2.394,2.982-0.146
	c0.964,18.727-8.797,35.477-27.946,37.786C13.437,53.617,12.806,50.768,15.101,50.492z"/>
<path fill="#6EA31A" d="M11.663,48.352c21.319-2.545,26.729-24.183,26.167-35.095c-0.115-2.249,2.868-2.394,2.982-0.146
	c0.965,18.726-9.636,35.813-28.784,38.124C9.999,51.479,9.369,48.627,11.663,48.352z"/>
<path fill="#6EA31A" d="M6.596,43.246c21.318-2.549,26.113-19.954,24.624-32.92c-0.115-2.249,2.867-2.392,2.982-0.146
	c1.202,19.702-8.092,33.638-27.241,35.945C4.932,46.371,4.302,43.52,6.596,43.246z"/>
<path fill="#92C932" d="M26.356,29.713c-7.482,0.248-14.564-2.349-21.105-7.75c-1.494-1.232,0.41-3.342,1.908-2.109
	c17.878,14.761,34.7,2.383,37.891-0.248c1.413-1.17,3.312,0.938,1.895,2.104c-2.251,1.856-8.392,6.313-16.817,7.641
	C28.859,29.554,27.602,29.673,26.356,29.713z"/>
<path fill="#92C932" d="M25.752,35.66c-7.05,0-14.83-1.709-22.463-6.289c-1.762-1.056-0.259-3.425,1.506-2.369
	c9.655,5.791,18.971,6.255,25.086,5.63c7.845-0.806,13.958-3.687,17.059-6.118c1.688-1.32,3.488,0.849,1.798,2.17
	C44.169,32.263,35.686,35.66,25.752,35.66z"/>
<path fill="#92C932" d="M3.309,36.736c-1.786-1.033-0.32-3.426,1.467-2.391c15.902,9.203,30.636,4.334,43.199-0.955
	c1.681-0.704,2.818,1.848,1.138,2.557C32.276,43.877,15.794,44.525,3.309,36.736z"/>
<path fill="#7AB51D" d="M2.812,32.698c-1.787-1.035-0.321-3.428,1.467-2.392c15.903,9.204,31.195,4.969,43.756-0.32
	c1.68-0.703,2.82,1.849,1.139,2.558C32.335,40.471,15.295,40.484,2.812,32.698z"/>
<path fill="#7AB51D" d="M3.669,25.478c-1.788-1.031-0.322-3.428,1.466-2.392c13.664,9.191,28.185,7.795,41.789-0.322
	c1.566-0.933,2.819,1.849,1.138,2.558C31.451,35.801,16.154,33.27,3.669,25.478z"/>
<path fill="#7AB51D" d="M47.042,40.971c-2.179-0.338-9.787-1.887-16.269-7.686c-6.411-5.738-9.607-13.558-9.504-23.233
	c0.023-2.155,2.889-2.13,2.865,0.034c-0.258,23.798,20.94,27.759,23.357,28.132C49.677,38.557,48.525,41.199,47.042,40.971z"/>
<path fill="#7AB51D" d="M44.174,45.811c-4.684-0.721-11.859-3.473-17.943-9.025c-4.972-4.537-10.881-12.581-10.793-25.131
	c0.016-2.156,2.88-2.143,2.866,0.022c-0.156,22.279,19.442,30.326,26.321,31.386C46.808,43.398,45.658,46.039,44.174,45.811z"/>
<path fill="#7AB51D" d="M40.835,50.857C26.968,47.887,10.459,36.871,9.558,15.62c-0.092-2.16,2.771-2.273,2.865-0.115
	c0.834,19.673,16.16,29.875,29.031,32.632C43.601,48.598,42.322,51.176,40.835,50.857z"/>
<path fill="#92C932" d="M43.308,48.326c-13.866-2.971-30.377-13.984-31.276-35.24c-0.092-2.158,2.771-2.272,2.864-0.113
	c0.832,19.674,16.159,29.875,29.031,32.634C46.074,46.068,44.795,48.645,43.308,48.326z"/>
<path fill="#92C932" d="M46.646,43.557c-13.867-2.973-27.966-11.761-28.867-33.018c-0.092-2.159,2.771-2.272,2.863-0.113
	c0.834,19.674,13.751,27.651,26.622,30.415C49.411,41.301,48.134,43.877,46.646,43.557z"/>
</svg>
