<?xml version="1.0" encoding="utf-8"?>
<!-- Generator: Adobe Illustrator 15.0.0, SVG Export Plug-In . SVG Version: 6.00 Build 0)  -->
<!DOCTYPE svg PUBLIC "-//W3C//DTD SVG 1.1//EN" "http://www.w3.org/Graphics/SVG/1.1/DTD/svg11.dtd" [
	<!ENTITY ns_flows "http://ns.adobe.com/Flows/1.0/">
	<!ENTITY ns_extend "http://ns.adobe.com/Extensibility/1.0/">
	<!ENTITY ns_ai "http://ns.adobe.com/AdobeIllustrator/10.0/">
	<!ENTITY ns_graphs "http://ns.adobe.com/Graphs/1.0/">
]>
<svg version="1.1" id="Layer_1" xmlns:x="&ns_extend;" xmlns:i="&ns_ai;" xmlns:graph="&ns_graphs;"
	 xmlns="http://www.w3.org/2000/svg" xmlns:xlink="http://www.w3.org/1999/xlink" xmlns:a="http://ns.adobe.com/AdobeSVGViewerExtensions/3.0/"
	 x="0px" y="0px" width="64px" height="64px" viewBox="0 0 64 64" enable-background="new 0 0 64 64" xml:space="preserve">
<polygon fill="#E6EBEF" points="50.26,3.662 48.617,2.947 45.498,3.662 42.854,2.309 36.748,3.662 32.836,2.492 31.498,3.539 
	24.172,2.385 20.141,3.098 15.863,2 11,2.947 11,61.053 13.74,60.338 15.383,61.053 18.502,60.338 21.146,61.691 27.252,60.338 
	31.164,61.508 32.502,60.461 39.828,61.615 43.859,60.902 48.137,62 53,61.053 53,2.947 "/>
<path fill="#99A8AE" d="M22.545,53.951c-0.004-0.053,0.023-0.08,0.072-0.08h0.18c0.045,0,0.07,0.025,0.076,0.074
	c0.033,0.252,0.246,0.387,0.549,0.387c0.285,0,0.486-0.145,0.486-0.371c0-0.236-0.24-0.342-0.514-0.441
	c-0.371-0.137-0.791-0.27-0.791-0.766c0-0.432,0.371-0.672,0.766-0.672c0.398,0,0.756,0.225,0.793,0.66
	c0.004,0.051-0.023,0.078-0.072,0.078h-0.18c-0.045,0-0.07-0.025-0.076-0.072c-0.031-0.229-0.217-0.348-0.465-0.348
	s-0.439,0.131-0.439,0.354c0,0.25,0.223,0.35,0.498,0.453c0.369,0.141,0.809,0.275,0.809,0.754c0,0.436-0.383,0.689-0.814,0.689
	C22.971,54.65,22.58,54.41,22.545,53.951z"/>
<path fill="#99A8AE" d="M26.381,53.725c0,0.023-0.002,0.045-0.002,0.064c-0.006,0.051-0.035,0.072-0.08,0.072h-0.234H24.91
	c0.055,0.326,0.295,0.512,0.607,0.512c0.203,0,0.363-0.09,0.447-0.211c0.023-0.031,0.051-0.049,0.09-0.049h0.172
	c0.055,0,0.084,0.031,0.063,0.076c-0.123,0.279-0.414,0.461-0.775,0.461c-0.553,0-0.92-0.396-0.92-0.93
	c0-0.523,0.365-0.932,0.918-0.932C26.045,52.789,26.381,53.229,26.381,53.725z M26.066,53.59c-0.047-0.348-0.293-0.512-0.557-0.512
	c-0.33,0-0.551,0.205-0.6,0.512H26.066z"/>
<path fill="#99A8AE" d="M28.695,53.721c0,0.523-0.406,0.93-0.898,0.93c-0.297,0-0.525-0.133-0.668-0.346v0.934
	c0,0.049-0.025,0.076-0.076,0.076h-0.156c-0.049,0-0.074-0.027-0.074-0.076V52.91c0-0.049,0.025-0.076,0.074-0.076h0.156
	c0.051,0,0.076,0.027,0.076,0.076v0.225c0.143-0.213,0.371-0.346,0.668-0.346C28.289,52.789,28.695,53.195,28.695,53.721z
	 M28.389,53.721c0-0.361-0.275-0.635-0.631-0.635s-0.629,0.273-0.629,0.635s0.273,0.633,0.629,0.633S28.389,54.082,28.389,53.721z"
	/>
<path fill="#99A8AE" d="M29.939,52.91v0.146c0,0.049-0.027,0.074-0.076,0.074H29.59v1.4c0,0.047-0.025,0.074-0.074,0.074h-0.156
	c-0.049,0-0.076-0.027-0.076-0.074v-1.4H29.01c-0.051,0-0.076-0.025-0.076-0.074V52.91c0-0.049,0.025-0.076,0.076-0.076h0.273
	v-0.492c0-0.047,0.027-0.074,0.076-0.074h0.156c0.049,0,0.074,0.027,0.074,0.074v0.492h0.273
	C29.912,52.834,29.939,52.861,29.939,52.91z"/>
<path fill="#99A8AE" d="M31.598,52.125h0.201c0.049,0,0.074,0.027,0.074,0.076v2.33c0,0.047-0.025,0.074-0.074,0.074h-0.178
	c-0.049,0-0.074-0.027-0.074-0.074v-2.061l-0.516,0.279c-0.055,0.031-0.092,0.004-0.092-0.053v-0.182
	c0-0.041,0.02-0.072,0.053-0.092l0.51-0.275C31.533,52.129,31.563,52.125,31.598,52.125z"/>
<path fill="#99A8AE" d="M34.135,54.531v-0.143c0-0.037,0.01-0.064,0.037-0.092l0.838-0.846c0.191-0.191,0.352-0.396,0.352-0.609
	c0-0.293-0.205-0.441-0.436-0.441c-0.238,0-0.432,0.111-0.461,0.371c-0.006,0.049-0.033,0.074-0.078,0.074h-0.178
	c-0.049,0-0.074-0.025-0.072-0.078c0.037-0.469,0.404-0.686,0.785-0.686c0.379,0,0.768,0.256,0.768,0.76
	c0,0.305-0.199,0.576-0.439,0.814l-0.639,0.633h1.051c0.049,0,0.074,0.025,0.074,0.074v0.168c0,0.047-0.025,0.074-0.074,0.074
	h-1.453C34.16,54.605,34.135,54.578,34.135,54.531z"/>
<path fill="#99A8AE" d="M36.084,53.365c0-0.766,0.344-1.283,0.959-1.283c0.613,0,0.957,0.518,0.957,1.283s-0.344,1.285-0.957,1.285
	C36.428,54.65,36.084,54.131,36.084,53.365z M37.67,53.365c0-0.615-0.227-0.965-0.627-0.965c-0.402,0-0.629,0.35-0.629,0.965
	c0,0.617,0.227,0.967,0.629,0.967C37.443,54.332,37.67,53.982,37.67,53.365z"/>
<path fill="#99A8AE" d="M38.941,52.125h0.201c0.049,0,0.076,0.027,0.076,0.076v2.33c0,0.047-0.027,0.074-0.076,0.074h-0.176
	c-0.049,0-0.076-0.027-0.076-0.074v-2.061l-0.516,0.279c-0.053,0.031-0.09,0.004-0.09-0.053v-0.182c0-0.041,0.018-0.072,0.051-0.092
	l0.512-0.275C38.877,52.129,38.906,52.125,38.941,52.125z"/>
<path fill="#99A8AE" d="M41.545,53.902v0.156c0,0.049-0.027,0.076-0.076,0.076h-0.227v0.396c0,0.047-0.025,0.074-0.074,0.074h-0.18
	c-0.049,0-0.074-0.027-0.074-0.074v-0.396h-1.199c-0.049,0-0.074-0.027-0.074-0.076v-0.182c0-0.033,0.006-0.063,0.021-0.094
	l0.836-1.604c0.02-0.037,0.049-0.055,0.09-0.055h0.197c0.057,0,0.078,0.037,0.053,0.092l-0.842,1.611h0.918v-0.627
	c0-0.047,0.025-0.074,0.074-0.074h0.18c0.049,0,0.074,0.027,0.074,0.074v0.627h0.227C41.518,53.828,41.545,53.854,41.545,53.902z"/>
<rect x="14" y="16.518" fill="#4E5E67" width="36" height="1"/>
<rect x="14" y="40.768" fill="#4E5E67" width="36" height="0.5"/>
<path fill="#99A8AE" d="M31.213,43.9v0.164c0,0.049-0.025,0.076-0.076,0.076h-0.588v2.104c0,0.049-0.025,0.076-0.074,0.076h-0.18
	c-0.049,0-0.074-0.027-0.074-0.076v-2.104h-0.588c-0.051,0-0.076-0.027-0.076-0.076V43.9c0-0.049,0.025-0.076,0.076-0.076h0.916
	h0.588C31.188,43.824,31.213,43.852,31.213,43.9z"/>
<path fill="#99A8AE" d="M31.365,45.072c0-0.719,0.566-1.291,1.293-1.291c0.723,0,1.289,0.572,1.289,1.291s-0.566,1.293-1.289,1.293
	C31.932,46.365,31.365,45.791,31.365,45.072z M33.619,45.072c0-0.547-0.416-0.971-0.961-0.971c-0.547,0-0.963,0.424-0.963,0.971
	s0.416,0.973,0.963,0.973C33.203,46.045,33.619,45.619,33.619,45.072z"/>
<path fill="#99A8AE" d="M35.76,43.9v0.164c0,0.049-0.027,0.076-0.076,0.076h-0.588v2.104c0,0.049-0.027,0.076-0.076,0.076h-0.178
	c-0.049,0-0.076-0.027-0.076-0.076v-2.104h-0.588c-0.049,0-0.076-0.027-0.076-0.076V43.9c0-0.049,0.027-0.076,0.076-0.076h0.918
	h0.588C35.732,43.824,35.76,43.852,35.76,43.9z"/>
<path fill="#99A8AE" d="M37.83,46.32h-0.195c-0.043,0-0.072-0.021-0.086-0.063l-0.178-0.496h-1.113l-0.178,0.496
	c-0.016,0.041-0.045,0.063-0.086,0.063h-0.195c-0.057,0-0.08-0.033-0.061-0.086l0.865-2.348c0.016-0.039,0.047-0.063,0.088-0.063
	h0.244c0.043,0,0.074,0.023,0.088,0.063l0.867,2.348C37.91,46.287,37.885,46.32,37.83,46.32z M37.26,45.453l-0.445-1.238
	l-0.445,1.238H37.26z"/>
<path fill="#99A8AE" d="M39.684,46.082v0.162c0,0.049-0.027,0.076-0.076,0.076h-1.145h-0.104c-0.047,0-0.074-0.027-0.074-0.076V43.9
	c0-0.049,0.027-0.076,0.074-0.076h0.18c0.049,0,0.076,0.027,0.076,0.076v2.105h0.992C39.656,46.006,39.684,46.033,39.684,46.082z"/>
<path fill="#99A8AE" d="M47.504,44.463c-0.006,0.008-0.01,0.014-0.014,0.02l-0.518,0.928c-0.025,0.037-0.393,0.057-0.354,0
	l0.328-0.645c-0.008,0-0.014,0-0.021,0c-0.391,0-0.67-0.27-0.67-0.625c0-0.357,0.279-0.629,0.67-0.629
	c0.387,0,0.666,0.271,0.666,0.629c0,0.117-0.031,0.225-0.086,0.316L47.504,44.463z M46.926,44.451c0.203,0,0.332-0.123,0.332-0.311
	c0-0.186-0.129-0.316-0.332-0.316c-0.207,0-0.338,0.131-0.338,0.316C46.588,44.328,46.719,44.451,46.926,44.451z"/>
<path fill="#99A8AE" d="M49.342,44.877c0,0.324-0.26,0.533-0.654,0.533c-0.396,0-0.656-0.209-0.656-0.533
	c0-0.205,0.107-0.369,0.281-0.461c-0.133-0.084-0.223-0.217-0.223-0.385c0-0.33,0.27-0.52,0.598-0.52
	c0.326,0,0.594,0.189,0.594,0.52c0,0.168-0.088,0.301-0.221,0.385C49.234,44.508,49.342,44.672,49.342,44.877z M49.008,44.83
	c0-0.164-0.129-0.26-0.32-0.26c-0.207,0-0.322,0.096-0.322,0.26c0,0.156,0.115,0.264,0.322,0.264
	C48.893,45.094,49.008,44.986,49.008,44.83z M48.412,44.043c0,0.143,0.098,0.234,0.275,0.234c0.172,0,0.273-0.092,0.273-0.234
	c0-0.137-0.102-0.223-0.273-0.223C48.51,43.82,48.412,43.906,48.412,44.043z"/>
<path fill="#99A8AE" d="M44.942,45.757c0,0.534-0.428,0.878-1.076,0.878c-0.652,0-1.08-0.344-1.08-0.878
	c0-0.337,0.177-0.606,0.463-0.758c-0.219-0.138-0.366-0.356-0.366-0.634c0-0.543,0.443-0.854,0.983-0.854
	c0.536,0,0.977,0.311,0.977,0.854c0,0.277-0.145,0.496-0.363,0.634C44.766,45.15,44.942,45.42,44.942,45.757z M44.393,45.68
	c0-0.27-0.212-0.428-0.526-0.428c-0.341,0-0.53,0.158-0.53,0.428c0,0.258,0.189,0.434,0.53,0.434
	C44.203,46.113,44.393,45.938,44.393,45.68z M43.413,44.385c0,0.234,0.16,0.386,0.453,0.386c0.282,0,0.449-0.151,0.449-0.386
	c0-0.225-0.167-0.365-0.449-0.365C43.573,44.02,43.413,44.16,43.413,44.385z"/>
<path fill="#99A8AE" d="M13.799,24.121c-0.004-0.064,0.029-0.098,0.09-0.098h0.225c0.057,0,0.092,0.033,0.1,0.096
	c0.033,0.371,0.279,0.512,0.586,0.512c0.332,0,0.59-0.166,0.59-0.551v-2.133c0-0.061,0.033-0.096,0.096-0.096h0.223
	c0.063,0,0.096,0.035,0.096,0.096v2.133c0,0.648-0.488,0.951-1.004,0.951C14.305,25.031,13.842,24.756,13.799,24.121z"/>
<path fill="#99A8AE" d="M16.381,23.859c0-0.66,0.523-1.17,1.178-1.17c0.65,0,1.174,0.51,1.174,1.17c0,0.662-0.523,1.172-1.174,1.172
	C16.904,25.031,16.381,24.521,16.381,23.859z M18.346,23.859c0-0.449-0.344-0.793-0.787-0.793c-0.445,0-0.789,0.344-0.789,0.793
	c0,0.451,0.344,0.795,0.789,0.795C18.002,24.654,18.346,24.311,18.346,23.859z"/>
<path fill="#99A8AE" d="M20.705,22.746h0.217c0.066,0,0.1,0.039,0.076,0.107l-1.027,2.938c-0.018,0.053-0.057,0.076-0.109,0.076
	h-0.217c-0.066,0-0.1-0.041-0.078-0.107l0.281-0.807l-0.842-2.098c-0.025-0.068,0.004-0.109,0.072-0.109h0.215
	c0.053,0,0.09,0.02,0.109,0.072l0.641,1.598l0.553-1.594C20.613,22.77,20.652,22.746,20.705,22.746z"/>
<path fill="#99A8AE" d="M42.66,23.414c0-0.963,0.43-1.617,1.203-1.617c0.775,0,1.205,0.654,1.205,1.617s-0.43,1.617-1.205,1.617
	C43.09,25.031,42.66,24.377,42.66,23.414z M44.656,23.414c0-0.777-0.287-1.215-0.793-1.215c-0.504,0-0.791,0.438-0.791,1.215
	s0.287,1.217,0.791,1.217C44.369,24.631,44.656,24.191,44.656,23.414z"/>
<path fill="#99A8AE" d="M46.133,22.746c0-0.57,0.295-0.949,0.791-0.949c0.494,0,0.791,0.379,0.791,0.949
	c0,0.568-0.297,0.947-0.791,0.947C46.428,23.693,46.133,23.314,46.133,22.746z M47.367,22.746c0-0.4-0.168-0.613-0.443-0.613
	s-0.443,0.213-0.443,0.613c0,0.398,0.168,0.609,0.443,0.609S47.367,23.145,47.367,22.746z"/>
<path fill="#99A8AE" d="M47.896,22.746c0-0.57,0.295-0.949,0.791-0.949c0.494,0,0.791,0.379,0.791,0.949
	c0,0.568-0.297,0.947-0.791,0.947C48.19,23.693,47.896,23.314,47.896,22.746z M49.128,22.746c0-0.4-0.166-0.613-0.441-0.613
	s-0.443,0.213-0.443,0.613c0,0.398,0.168,0.609,0.443,0.609S49.128,23.145,49.128,22.746z"/>
<path fill="#99A8AE" d="M14.006,29.389v-2.094c0-0.061,0.035-0.094,0.096-0.094h0.223c0.063,0,0.094,0.033,0.094,0.094v2.076
	c0,0.398,0.26,0.607,0.682,0.607s0.68-0.209,0.68-0.607v-2.076c0-0.061,0.033-0.094,0.096-0.094h0.223
	c0.061,0,0.094,0.033,0.094,0.094v2.094c0,0.645-0.486,0.99-1.092,0.99S14.006,30.033,14.006,29.389z"/>
<path fill="#99A8AE" d="M18.703,28.877v1.352c0,0.063-0.033,0.096-0.096,0.096H18.41c-0.063,0-0.096-0.033-0.096-0.096v-1.338
	c0-0.32-0.195-0.484-0.463-0.484c-0.277,0-0.557,0.168-0.557,0.648v1.174c0,0.063-0.033,0.096-0.094,0.096h-0.199
	c-0.061,0-0.094-0.033-0.094-0.096v-2.041c0-0.061,0.033-0.094,0.094-0.094h0.199c0.061,0,0.094,0.033,0.094,0.094v0.182
	c0.16-0.244,0.391-0.332,0.66-0.332C18.371,28.037,18.703,28.354,18.703,28.877z"/>
<path fill="#99A8AE" d="M19.371,27.598v-0.303c0-0.061,0.033-0.094,0.094-0.094h0.199c0.061,0,0.094,0.033,0.094,0.094v0.303
	c0,0.061-0.033,0.094-0.094,0.094h-0.199C19.404,27.691,19.371,27.658,19.371,27.598z M19.371,30.229v-2.041
	c0-0.061,0.033-0.094,0.094-0.094h0.199c0.061,0,0.094,0.033,0.094,0.094v2.041c0,0.063-0.033,0.096-0.094,0.096h-0.199
	C19.404,30.324,19.371,30.291,19.371,30.229z"/>
<path fill="#99A8AE" d="M22.555,29.686c-0.152,0.412-0.566,0.693-1.051,0.693c-0.676,0-1.176-0.508-1.176-1.17
	c0-0.66,0.5-1.172,1.176-1.172c0.484,0,0.895,0.281,1.051,0.695c0.025,0.064-0.012,0.109-0.078,0.109h-0.219
	c-0.051,0-0.088-0.025-0.113-0.07c-0.121-0.219-0.359-0.355-0.641-0.355c-0.443,0-0.787,0.344-0.787,0.793
	c0,0.447,0.344,0.791,0.787,0.791c0.283,0,0.523-0.139,0.641-0.354c0.025-0.047,0.061-0.068,0.113-0.068h0.219
	C22.543,29.578,22.58,29.619,22.555,29.686z"/>
<path fill="#99A8AE" d="M22.975,29.209c0-0.66,0.523-1.172,1.176-1.172s1.176,0.512,1.176,1.172c0,0.662-0.523,1.17-1.176,1.17
	S22.975,29.871,22.975,29.209z M24.938,29.209c0-0.451-0.344-0.795-0.787-0.795s-0.787,0.344-0.787,0.795
	c0,0.449,0.344,0.795,0.787,0.795S24.938,29.658,24.938,29.209z"/>
<path fill="#99A8AE" d="M26.959,28.15v0.213c0,0.059-0.023,0.094-0.064,0.094c-0.313,0.016-0.609,0.193-0.609,0.674v1.098
	c0,0.063-0.033,0.096-0.094,0.096h-0.199c-0.061,0-0.094-0.033-0.094-0.096v-2.041c0-0.061,0.033-0.094,0.094-0.094h0.199
	c0.061,0,0.094,0.033,0.094,0.094v0.242c0.139-0.244,0.344-0.348,0.578-0.369C26.926,28.055,26.959,28.092,26.959,28.15z"/>
<path fill="#99A8AE" d="M29.221,28.877v1.352c0,0.063-0.035,0.096-0.096,0.096h-0.199c-0.061,0-0.094-0.033-0.094-0.096v-1.338
	c0-0.32-0.197-0.484-0.463-0.484c-0.277,0-0.557,0.168-0.557,0.648v1.174c0,0.063-0.033,0.096-0.096,0.096h-0.199
	c-0.061,0-0.094-0.033-0.094-0.096v-2.041c0-0.061,0.033-0.094,0.094-0.094h0.199c0.063,0,0.096,0.033,0.096,0.094v0.182
	c0.16-0.244,0.391-0.332,0.66-0.332C28.889,28.037,29.221,28.354,29.221,28.877z"/>
<path fill="#99A8AE" d="M32.66,30.025v0.203c0,0.063-0.033,0.096-0.096,0.096h-1.432h-0.129c-0.063,0-0.096-0.033-0.096-0.096
	v-2.934c0-0.061,0.033-0.094,0.096-0.094h0.223c0.061,0,0.094,0.033,0.094,0.094v2.637h1.244
	C32.627,29.932,32.66,29.965,32.66,30.025z"/>
<path fill="#99A8AE" d="M33.123,27.598v-0.303c0-0.061,0.033-0.094,0.096-0.094h0.197c0.063,0,0.096,0.033,0.096,0.094v0.303
	c0,0.061-0.033,0.094-0.096,0.094h-0.197C33.156,27.691,33.123,27.658,33.123,27.598z M33.123,30.229v-2.041
	c0-0.061,0.033-0.094,0.096-0.094h0.197c0.063,0,0.096,0.033,0.096,0.094v2.041c0,0.063-0.033,0.096-0.096,0.096h-0.197
	C33.156,30.324,33.123,30.291,33.123,30.229z"/>
<path fill="#99A8AE" d="M34.725,28.027v0.066h0.49c0.063,0,0.096,0.033,0.096,0.094v0.186c0,0.063-0.033,0.096-0.096,0.096h-0.49
	v1.76c0,0.063-0.033,0.096-0.096,0.096h-0.197c-0.063,0-0.096-0.033-0.096-0.096v-1.76h-0.264c-0.063,0-0.096-0.033-0.096-0.096
	v-0.186c0-0.061,0.033-0.094,0.096-0.094h0.264v-0.066c0-0.564,0.305-0.893,0.879-0.887c0.063,0,0.096,0.041,0.096,0.1v0.186
	c0,0.061-0.033,0.09-0.1,0.09C34.887,27.512,34.725,27.676,34.725,28.027z"/>
<path fill="#99A8AE" d="M37.813,29.215c0,0.027-0.002,0.055-0.002,0.082c-0.006,0.061-0.045,0.09-0.102,0.09h-0.293h-1.453
	c0.066,0.41,0.369,0.645,0.766,0.645c0.256,0,0.457-0.111,0.561-0.266c0.031-0.039,0.064-0.061,0.115-0.061l0.215-0.002
	c0.068,0,0.107,0.039,0.08,0.098c-0.156,0.352-0.521,0.578-0.977,0.578c-0.697,0-1.16-0.498-1.16-1.17
	c0-0.658,0.461-1.172,1.156-1.172C37.393,28.037,37.813,28.588,37.813,29.215z M37.418,29.045c-0.059-0.438-0.367-0.645-0.701-0.645
	c-0.414,0-0.693,0.258-0.756,0.645H37.418z"/>
<path fill="#99A8AE" d="M42.854,30.229v-0.178c0-0.047,0.014-0.08,0.047-0.115l1.057-1.064c0.24-0.24,0.443-0.5,0.443-0.768
	c0-0.369-0.258-0.557-0.549-0.557c-0.299,0-0.543,0.141-0.58,0.469c-0.006,0.061-0.043,0.094-0.1,0.094H42.95
	c-0.063,0-0.096-0.033-0.092-0.1c0.047-0.59,0.51-0.865,0.99-0.865c0.477,0,0.965,0.324,0.965,0.959c0,0.385-0.25,0.725-0.551,1.025
	l-0.805,0.795h1.322c0.061,0,0.094,0.035,0.094,0.096v0.209c0,0.063-0.033,0.096-0.094,0.096h-1.83
	C42.888,30.324,42.854,30.291,42.854,30.229z"/>
<path fill="#99A8AE" d="M47.503,28.096c-0.004,0.008-0.008,0.014-0.012,0.02l-0.518,0.814c-0.025,0.035-0.395,0.055-0.354,0
	l0.328-0.531c-0.008,0-0.016,0-0.023,0c-0.389,0-0.668-0.271-0.668-0.625c0-0.357,0.279-0.629,0.668-0.629s0.666,0.271,0.666,0.629
	c0,0.117-0.029,0.225-0.084,0.318L47.503,28.096z M46.925,28.084c0.203,0,0.334-0.125,0.334-0.311s-0.131-0.316-0.334-0.316
	c-0.205,0-0.336,0.131-0.336,0.316S46.72,28.084,46.925,28.084z"/>
<path fill="#99A8AE" d="M49.267,28.096c-0.004,0.008-0.01,0.014-0.014,0.02l-0.518,0.814c-0.023,0.035-0.393,0.055-0.354,0
	l0.33-0.531c-0.008,0-0.016,0-0.023,0c-0.391,0-0.67-0.271-0.67-0.625c0-0.357,0.279-0.629,0.67-0.629
	c0.387,0,0.666,0.271,0.666,0.629c0,0.117-0.031,0.225-0.086,0.318L49.267,28.096z M48.688,28.084c0.203,0,0.332-0.125,0.332-0.311
	s-0.129-0.316-0.332-0.316c-0.207,0-0.338,0.131-0.338,0.316S48.481,28.084,48.688,28.084z"/>
<path fill="#99A8AE" d="M16.203,32.645v2.934c0,0.063-0.033,0.094-0.094,0.094h-0.225c-0.061,0-0.094-0.031-0.094-0.094v-1.316
	h-1.328v1.316c0,0.063-0.033,0.094-0.094,0.094h-0.225c-0.061,0-0.094-0.031-0.094-0.094v-2.934c0-0.061,0.033-0.096,0.094-0.096
	h0.225c0.061,0,0.094,0.035,0.094,0.096v1.227h1.328v-1.227c0-0.061,0.033-0.096,0.094-0.096h0.225
	C16.17,32.549,16.203,32.584,16.203,32.645z"/>
<path fill="#99A8AE" d="M18.66,34.234v1.344c0,0.063-0.033,0.094-0.094,0.094h-0.195c-0.061,0-0.094-0.031-0.094-0.094v-0.137
	c-0.145,0.195-0.379,0.287-0.662,0.287c-0.408,0-0.785-0.236-0.785-0.713s0.377-0.713,0.785-0.713c0.283,0,0.518,0.096,0.662,0.258
	v-0.316c0-0.355-0.225-0.49-0.484-0.49c-0.229,0-0.432,0.104-0.473,0.314c-0.018,0.055-0.043,0.088-0.1,0.088h-0.197
	c-0.061,0-0.098-0.035-0.094-0.1c0.051-0.406,0.4-0.672,0.863-0.672C18.289,33.385,18.66,33.695,18.66,34.234z M18.277,35.016
	c0-0.238-0.229-0.387-0.551-0.387c-0.35,0-0.508,0.164-0.508,0.387c0,0.225,0.158,0.389,0.508,0.389
	C18.049,35.404,18.277,35.24,18.277,35.016z"/>
<path fill="#99A8AE" d="M21.688,34.559c0,0.66-0.512,1.17-1.129,1.17c-0.377,0-0.664-0.166-0.844-0.434v1.176
	c0,0.061-0.033,0.094-0.094,0.094h-0.199c-0.061,0-0.094-0.033-0.094-0.094v-2.934c0-0.063,0.033-0.096,0.094-0.096h0.199
	c0.061,0,0.094,0.033,0.094,0.096v0.283c0.18-0.268,0.467-0.436,0.844-0.436C21.176,33.385,21.688,33.896,21.688,34.559z
	 M21.299,34.559c0-0.455-0.344-0.801-0.791-0.801c-0.449,0-0.793,0.346-0.793,0.801s0.344,0.797,0.793,0.797
	C20.955,35.355,21.299,35.014,21.299,34.559z"/>
<path fill="#99A8AE" d="M24.621,34.559c0,0.66-0.512,1.17-1.129,1.17c-0.377,0-0.664-0.166-0.844-0.434v1.176
	c0,0.061-0.033,0.094-0.094,0.094h-0.199c-0.061,0-0.094-0.033-0.094-0.094v-2.934c0-0.063,0.033-0.096,0.094-0.096h0.199
	c0.061,0,0.094,0.033,0.094,0.096v0.283c0.18-0.268,0.467-0.436,0.844-0.436C24.109,33.385,24.621,33.896,24.621,34.559z
	 M24.232,34.559c0-0.455-0.344-0.801-0.791-0.801c-0.449,0-0.793,0.346-0.793,0.801s0.344,0.797,0.793,0.797
	C23.889,35.355,24.232,35.014,24.232,34.559z"/>
<path fill="#99A8AE" d="M26.594,33.441h0.217c0.066,0,0.1,0.043,0.076,0.109l-1.027,2.939c-0.016,0.051-0.057,0.074-0.107,0.074
	h-0.219c-0.066,0-0.1-0.039-0.076-0.107l0.281-0.807l-0.842-2.1c-0.027-0.064,0.002-0.109,0.07-0.109h0.215
	c0.053,0,0.09,0.021,0.109,0.074l0.641,1.596l0.555-1.592C26.502,33.467,26.541,33.441,26.594,33.441z"/>
<path fill="#99A8AE" d="M30.514,33.52c0,0.533-0.434,0.971-0.977,0.971h-0.721v1.088c0,0.063-0.031,0.094-0.094,0.094H28.5
	c-0.061,0-0.096-0.031-0.096-0.094v-2.934c0-0.061,0.035-0.096,0.096-0.096h0.316h0.721C30.08,32.549,30.514,32.984,30.514,33.52z
	 M30.1,33.52c0-0.324-0.25-0.582-0.563-0.582h-0.721v1.166h0.721C29.85,34.104,30.1,33.842,30.1,33.52z"/>
<path fill="#99A8AE" d="M30.854,34.559c0-0.662,0.523-1.174,1.176-1.174s1.176,0.512,1.176,1.174c0,0.66-0.523,1.17-1.176,1.17
	S30.854,35.219,30.854,34.559z M32.816,34.559c0-0.453-0.344-0.795-0.787-0.795s-0.787,0.342-0.787,0.795
	c0,0.449,0.344,0.793,0.787,0.793S32.816,35.008,32.816,34.559z"/>
<path fill="#99A8AE" d="M33.65,34.559c0-0.662,0.523-1.174,1.176-1.174s1.176,0.512,1.176,1.174c0,0.66-0.523,1.17-1.176,1.17
	S33.65,35.219,33.65,34.559z M35.613,34.559c0-0.453-0.344-0.795-0.787-0.795s-0.789,0.342-0.789,0.795
	c0,0.449,0.346,0.793,0.789,0.793S35.613,35.008,35.613,34.559z"/>
<path fill="#99A8AE" d="M44.933,34.748c0,0.637-0.508,0.98-1.07,0.98c-0.533,0-1.018-0.311-1.066-0.881
	c-0.004-0.066,0.029-0.1,0.092-0.1h0.227c0.059,0,0.09,0.033,0.098,0.094c0.039,0.316,0.307,0.486,0.65,0.486
	c0.379,0,0.658-0.207,0.658-0.58s-0.279-0.578-0.658-0.578h-0.82c-0.061,0-0.098-0.035-0.094-0.1l0.105-1.43
	c0.004-0.057,0.039-0.092,0.096-0.092h1.566c0.061,0,0.094,0.035,0.094,0.096v0.197c0,0.063-0.033,0.096-0.094,0.096H43.44
	l-0.059,0.83h0.492C44.435,33.768,44.933,34.111,44.933,34.748z"/>
<path fill="#99A8AE" d="M47.503,33.443c-0.004,0.008-0.008,0.014-0.012,0.021l-0.518,0.814c-0.025,0.035-0.395,0.055-0.354,0
	l0.328-0.533c-0.008,0-0.016,0-0.023,0c-0.389,0-0.668-0.27-0.668-0.625s0.279-0.627,0.668-0.627s0.666,0.271,0.666,0.627
	c0,0.117-0.029,0.227-0.084,0.318L47.503,33.443z M46.925,33.434c0.203,0,0.334-0.125,0.334-0.313c0-0.186-0.131-0.314-0.334-0.314
	c-0.205,0-0.336,0.129-0.336,0.314C46.589,33.309,46.72,33.434,46.925,33.434z"/>
<path fill="#99A8AE" d="M49.267,33.443c-0.004,0.008-0.008,0.014-0.014,0.021l-0.518,0.814c-0.023,0.035-0.393,0.055-0.354,0
	l0.33-0.533c-0.008,0-0.016,0-0.023,0c-0.391,0-0.67-0.27-0.67-0.625s0.279-0.627,0.67-0.627c0.387,0,0.666,0.271,0.666,0.627
	c0,0.117-0.031,0.227-0.086,0.318L49.267,33.443z M48.688,33.434c0.203,0,0.334-0.125,0.334-0.313c0-0.186-0.131-0.314-0.334-0.314
	c-0.207,0-0.336,0.129-0.336,0.314C48.353,33.309,48.481,33.434,48.688,33.434z"/>
<path fill="#4E5E67" d="M26.125,14.098h-0.463c-0.08,0-0.143-0.023-0.197-0.088l-1.637-1.906H22.84v1.836
	c0,0.104-0.057,0.158-0.16,0.158h-0.371c-0.104,0-0.158-0.055-0.158-0.158V9.037c0-0.104,0.055-0.158,0.158-0.158h0.531h1.211
	c0.896,0,1.623,0.725,1.623,1.621c0,0.689-0.453,1.291-1.086,1.512l1.627,1.889C26.299,14.004,26.258,14.098,26.125,14.098z
	 M22.84,11.473h1.211c0.514,0,0.932-0.436,0.932-0.973c0-0.543-0.418-0.973-0.932-0.973H22.84V11.473z"/>
<path fill="#4E5E67" d="M29.977,13.6v0.34c0,0.104-0.055,0.158-0.158,0.158h-2.6h-0.104c-0.104,0-0.158-0.055-0.158-0.158V9.037
	c0-0.104,0.055-0.158,0.158-0.158h0.531h2.135c0.104,0,0.158,0.055,0.158,0.158v0.338c0,0.104-0.055,0.158-0.158,0.158h-2.135v1.607
	h1.947c0.104,0,0.16,0.055,0.16,0.158v0.332c0,0.102-0.057,0.158-0.16,0.158h-1.947v1.652h2.172
	C29.922,13.441,29.977,13.498,29.977,13.6z"/>
<path fill="#4E5E67" d="M30.553,11.488c0-1.502,1.137-2.703,2.732-2.703c1.109,0,2.068,0.662,2.418,1.627
	c0.035,0.109-0.02,0.182-0.131,0.182h-0.414c-0.088,0-0.148-0.041-0.188-0.121c-0.281-0.613-0.934-1.018-1.686-1.018
	c-1.221,0-2.041,0.889-2.041,2.033s0.82,2.031,2.041,2.031c0.752,0,1.404-0.404,1.686-1.016c0.039-0.08,0.1-0.121,0.188-0.121h0.414
	c0.111,0,0.172,0.07,0.137,0.166c-0.346,0.971-1.307,1.643-2.424,1.643C31.689,14.191,30.553,12.99,30.553,11.488z"/>
<path fill="#4E5E67" d="M39.666,13.6v0.34c0,0.104-0.055,0.158-0.158,0.158h-2.6h-0.104c-0.104,0-0.158-0.055-0.158-0.158V9.037
	c0-0.104,0.055-0.158,0.158-0.158h0.531h2.135c0.104,0,0.158,0.055,0.158,0.158v0.338c0,0.104-0.055,0.158-0.158,0.158h-2.135v1.607
	h1.947c0.104,0,0.16,0.055,0.16,0.158v0.332c0,0.102-0.057,0.158-0.16,0.158h-1.947v1.652h2.172
	C39.611,13.441,39.666,13.498,39.666,13.6z"/>
<path fill="#4E5E67" d="M40.762,8.879h0.373c0.104,0,0.158,0.055,0.158,0.158v4.902c0,0.104-0.055,0.158-0.158,0.158h-0.373
	c-0.102,0-0.158-0.055-0.158-0.158V9.037C40.604,8.934,40.66,8.879,40.762,8.879z"/>
<path fill="#4E5E67" d="M46.078,10.5c0,0.891-0.725,1.621-1.631,1.621h-1.203v1.818c0,0.104-0.057,0.158-0.158,0.158h-0.373
	c-0.104,0-0.158-0.055-0.158-0.158V9.037c0-0.104,0.055-0.158,0.158-0.158h0.531h1.203C45.354,8.879,46.078,9.604,46.078,10.5z
	 M45.389,10.5c0-0.543-0.42-0.973-0.941-0.973h-1.203v1.945h1.203C44.969,11.473,45.389,11.037,45.389,10.5z"/>
<path fill="#4E5E67" d="M50,9.037v0.338c0,0.104-0.055,0.158-0.158,0.158h-1.23v4.406c0,0.104-0.057,0.158-0.158,0.158H48.08
	c-0.102,0-0.158-0.055-0.158-0.158V9.533h-1.23c-0.104,0-0.158-0.055-0.158-0.158V9.037c0-0.104,0.055-0.158,0.158-0.158h1.92h1.23
	C49.945,8.879,50,8.934,50,9.037z"/>
<path id="Shape_18_" fill="#4E5E67" d="M16.799,9.389c1.158,0,2.096,0.939,2.096,2.102c0,1.158-0.938,2.098-2.096,2.098
	c-1.16,0-2.102-0.939-2.102-2.098C14.697,10.328,15.639,9.389,16.799,9.389z M16.799,8.689C15.254,8.689,14,9.941,14,11.49
	c0,1.545,1.254,2.797,2.799,2.797s2.799-1.252,2.799-2.797c0-0.746-0.297-1.459-0.818-1.982C18.252,8.984,17.541,8.689,16.799,8.689
	z"/>
<path id="Combined-Shape_11_" fill="#4E5E67" d="M17.355,11.766c-0.037,0.008-0.074-0.004-0.104-0.033
	c-0.027-0.027-0.039-0.064-0.035-0.105v-0.281c-0.004-0.035,0.008-0.074,0.035-0.102c0.029-0.027,0.066-0.043,0.104-0.035h0.914
	c0.033-0.008,0.076,0.008,0.104,0.035s0.037,0.066,0.035,0.102v0.145c0,0.648-0.395,1.238-0.996,1.484
	c-0.602,0.25-1.291,0.111-1.752-0.35c-0.033-0.021-0.049-0.059-0.049-0.1c0-0.039,0.016-0.074,0.049-0.096l0.297-0.301
	c0.021-0.031,0.063-0.047,0.1-0.047c0.039,0,0.076,0.016,0.098,0.047c0.225,0.225,0.549,0.314,0.855,0.24
	c0.309-0.072,0.557-0.299,0.652-0.604H17.355z"/>
<rect x="45.463" y="24.496" fill="#99A8AE" width="0.48" height="0.48"/>
<rect x="45.463" y="29.845" fill="#99A8AE" width="0.48" height="0.48"/>
<rect x="45.463" y="35.193" fill="#99A8AE" width="0.48" height="0.48"/>
<rect x="45.463" y="46.182" fill="#99A8AE" width="0.48" height="0.48"/>
<rect x="32.441" y="54.225" fill="#99A8AE" width="0.48" height="0.48"/>
</svg>
