<?xml version="1.0" encoding="utf-8"?>
<!-- Generator: Adobe Illustrator 15.0.0, SVG Export Plug-In . SVG Version: 6.00 Build 0)  -->
<!DOCTYPE svg PUBLIC "-//W3C//DTD SVG 1.1//EN" "http://www.w3.org/Graphics/SVG/1.1/DTD/svg11.dtd">
<svg version="1.1" id="Layer_1" xmlns="http://www.w3.org/2000/svg" xmlns:xlink="http://www.w3.org/1999/xlink" x="0px" y="0px"
	 width="64px" height="64px" viewBox="0 0 64 64" enable-background="new 0 0 64 64" xml:space="preserve">
<path fill="#71B090" d="M62,21.343l-59.992,2.34c0,0-0.145,8.836,0.805,14.362c0.938,5.468,5.283,15.701,14.566,14.912
	c8.736-0.742,14.074-6.348,20.813-9.315c7.887-3.474,15.023-2.104,19.217-5.526C61.912,34.439,62,21.343,62,21.343z"/>
<path fill="#8CDBB3" d="M41.669,11.098c-5.816,0.565-9.525,4.83-16.97,6.456c-7.387,1.614-22.691-0.125-22.691,6.129
	c0,25.497,24.33,10.885,36.001,5.59C46.669,25.344,62,27.644,62,21.343C62,15.059,50.444,10.245,41.669,11.098z"/>
<path fill="#71B090" d="M24.721,31.885c0,2.168-7.314,2.168-7.314,0C17.406,29.719,24.721,29.719,24.721,31.885z"/>
<path fill="#71B090" d="M51.1,14.897c0,1.63-5.499,1.63-5.499,0S51.1,13.267,51.1,14.897z"/>
<path fill="#71B090" d="M33.522,29.523c0,1.245-4.206,1.245-4.206,0C29.316,28.276,33.522,28.276,33.522,29.523z"/>
<path fill="#71B090" d="M12.797,25.346c0.211-0.207,0.336-0.449,0.336-0.728c0-2.166-7.313-2.166-7.313,0
	c0,1.251,2.438,1.775,4.499,1.581c-0.002,0.015-0.01,0.029-0.01,0.044c0,1.221,4.129,1.221,4.129,0
	C14.438,25.717,13.67,25.418,12.797,25.346z"/>
<path fill="#71B090" d="M42.343,17.778c0,1.221-4.126,1.221-4.126,0C38.217,16.556,42.343,16.556,42.343,17.778z"/>
<path fill="#71B090" d="M27.478,27.298c0,0.932-3.155,0.932-3.155,0C24.322,26.362,27.478,26.362,27.478,27.298z"/>
<path fill="#71B090" d="M19.674,22.242c0,1.245-4.207,1.245-4.207,0C15.467,21,19.674,21,19.674,22.242z"/>
<path fill="#71B090" d="M56.671,18.697c0,1.553-5.259,1.553-5.259,0C51.412,17.138,56.671,17.138,56.671,18.697z"/>
<path fill="#71B090" d="M47.179,23.168c0,0.932-3.155,0.932-3.155,0C44.023,22.233,47.179,22.233,47.179,23.168z"/>
<path fill="#71B090" d="M32.305,18.695c0,0.934-3.155,0.934-3.155,0C29.149,17.762,32.305,17.762,32.305,18.695z"/>
<path fill="#5A8C73" d="M27.853,43.521c0,3.467-5,3.467-5,0C22.853,40.05,27.853,40.05,27.853,43.521z"/>
<path fill="#5A8C73" d="M12.758,40.969c0,1.387-2,1.387-2,0S12.758,39.582,12.758,40.969z"/>
<path fill="#5A8C73" d="M40.217,33.51c0,1.388-2,1.388-2,0C38.217,32.124,40.217,32.124,40.217,33.51z"/>
<path fill="#5A8C73" d="M51.787,36.672c0,2.26-3.261,2.26-3.261,0C48.526,34.408,51.787,34.408,51.787,36.672z"/>
<path fill="#5A8C73" d="M54.335,29.967c0.001-0.027,0.008-0.051,0.008-0.08c0-2.263-3.261-2.263-3.261,0
	c0,1.162,0.86,1.722,1.698,1.689c-0.041,0.186-0.068,0.382-0.068,0.598c0,3.055,4.399,3.055,4.399,0
	C57.111,30.379,55.589,29.649,54.335,29.967z"/>
<path fill="#5A8C73" d="M15.133,46.82c0,2.773-4,2.773-4,0C11.133,44.044,15.133,44.044,15.133,46.82z"/>
<path fill="#5A8C73" d="M31.316,36.375c0,1.388-2,1.388-2,0C29.316,34.986,31.316,34.986,31.316,36.375z"/>
<path fill="#5A8C73" d="M36.701,40.162c0,2.395-3.45,2.395-3.45,0C33.251,37.77,36.701,37.77,36.701,40.162z"/>
<path fill="#5A8C73" d="M48.012,32.176c0,1.158-1.666,1.158-1.666,0C46.346,31.019,48.012,31.019,48.012,32.176z"/>
<path fill="#5A8C73" d="M8.31,40.162c0,2.082-2.999,2.082-2.999,0S8.31,38.08,8.31,40.162z"/>
</svg>
