<?xml version="1.0" encoding="utf-8"?>
<!-- Generator: Adobe Illustrator 15.0.0, SVG Export Plug-In . SVG Version: 6.00 Build 0)  -->
<!DOCTYPE svg PUBLIC "-//W3C//DTD SVG 1.1//EN" "http://www.w3.org/Graphics/SVG/1.1/DTD/svg11.dtd" [
	<!ENTITY ns_flows "http://ns.adobe.com/Flows/1.0/">
	<!ENTITY ns_extend "http://ns.adobe.com/Extensibility/1.0/">
	<!ENTITY ns_ai "http://ns.adobe.com/AdobeIllustrator/10.0/">
	<!ENTITY ns_graphs "http://ns.adobe.com/Graphs/1.0/">
]>
<svg version="1.1" id="Layer_1" xmlns:x="&ns_extend;" xmlns:i="&ns_ai;" xmlns:graph="&ns_graphs;"
	 xmlns="http://www.w3.org/2000/svg" xmlns:xlink="http://www.w3.org/1999/xlink" xmlns:a="http://ns.adobe.com/AdobeSVGViewerExtensions/3.0/"
	 x="0px" y="0px" width="64px" height="64px" viewBox="0 0 64 64" enable-background="new 0 0 64 64" xml:space="preserve">
<path fill="#AF0505" d="M32.003,9.869c-4.346,0-25.459,4.977-9.516,39.149l0.951-1.701c0,0-0.853-7.552-2.313-20.175
	c-0.619-6.565,4.148-12.551,10.877-12.551c6.729,0,11.489,5.985,10.87,12.551c-1.459,12.623-2.312,20.175-2.312,20.175l0.951,1.701
	C54.391,19.361,44.871,9.869,32.003,9.869z"/>
<path fill="#98A7AD" d="M23.438,47.317l-0.951,1.701l-10.82,0.965l11.469,11.139l0.445-0.536l0.842-2.858
	C23.902,52.101,23.438,47.317,23.438,47.317z"/>
<path fill="#98A7AD" d="M41.513,49.019l-0.951-1.701c0,0-0.464,4.783-0.984,10.41l0.842,2.858l0.445,0.536l11.469-11.139
	L41.513,49.019z"/>
<path fill="#F36C60" d="M32.003,2C17.95,2,7.834,14.164,9.108,27.684c1.607,13.884,2.176,18.666,2.559,22.3l0,0l0.975-0.087
	c-0.38-3.607-0.944-8.359-2.559-22.316C8.86,14.622,18.559,2.983,32.003,2.983c13.446,0,23.136,11.639,21.915,24.597
	c-1.615,13.957-2.18,18.709-2.561,22.316l0.976,0.087l0,0c0.384-3.634,0.951-8.416,2.559-22.3C56.166,14.164,46.058,2,32.003,2z"/>
<path fill="#E5EAEE" d="M13.29,62l9.846-0.878l0.445-0.536c-0.578-6.252-0.773-8.525-1.094-11.567l-10.82,0.965
	c0.324,3.075,0.516,5.328,1.093,11.573L13.29,62z"/>
<path fill="#E5EAEE" d="M50.709,62l-9.845-0.878l-0.445-0.536c0.579-6.252,0.773-8.525,1.094-11.567l10.82,0.965
	c-0.324,3.075-0.517,5.328-1.093,11.573L50.709,62z"/>
<polygon fill="#B3C2C6" points="12.76,61.557 23.581,60.586 23.136,61.122 13.29,62 "/>
<polygon fill="#B3C2C6" points="40.419,60.586 40.864,61.122 50.709,62 51.24,61.557 "/>
<path fill="#C11413" d="M32.003,11.674c-8.053,0-13.803,7.142-13.059,15.031c1.623,14.028,2.188,18.805,2.567,22.401l0.976-0.088
	c-0.384-3.644-0.947-8.391-2.568-22.416c-0.688-7.294,4.607-13.944,12.084-13.944c7.478,0,12.767,6.65,12.079,13.944
	c-1.622,14.025-2.186,18.772-2.569,22.416l0.976,0.088c0.379-3.597,0.944-8.373,2.567-22.401
	C45.8,18.815,40.058,11.674,32.003,11.674z"/>
<polygon fill="#CFD8DD" points="50.752,61.51 51.83,49.938 41.984,49.062 40.906,60.633 "/>
<path fill="#E81C27" d="M48.355,9.579C44.096,5.009,38.287,2.492,32,2.492c-6.288,0-12.097,2.517-16.356,7.087
	c-4.473,4.799-6.681,11.344-6.049,18.047l2.574,22.313l9.846-0.877l-2.584-22.413c-0.369-3.91,0.914-7.757,3.518-10.551
	c2.364-2.536,5.578-3.932,9.052-3.932s6.688,1.396,9.052,3.932c2.604,2.794,3.887,6.641,3.518,10.551l-2.585,22.413l9.846,0.877
	l2.575-22.313C55.037,20.923,52.829,14.378,48.355,9.579z"/>
<polygon fill="#CFD8DD" points="13.247,61.51 12.169,49.938 22.015,49.062 23.093,60.633 "/>
</svg>
