<?xml version="1.0" encoding="utf-8"?>
<!-- Generator: Adobe Illustrator 15.0.0, SVG Export Plug-In . SVG Version: 6.00 Build 0)  -->
<!DOCTYPE svg PUBLIC "-//W3C//DTD SVG 1.1//EN" "http://www.w3.org/Graphics/SVG/1.1/DTD/svg11.dtd" [
	<!ENTITY ns_flows "http://ns.adobe.com/Flows/1.0/">
	<!ENTITY ns_extend "http://ns.adobe.com/Extensibility/1.0/">
	<!ENTITY ns_ai "http://ns.adobe.com/AdobeIllustrator/10.0/">
	<!ENTITY ns_graphs "http://ns.adobe.com/Graphs/1.0/">
]>
<svg version="1.1" id="Layer_1" xmlns:x="&ns_extend;" xmlns:i="&ns_ai;" xmlns:graph="&ns_graphs;"
	 xmlns="http://www.w3.org/2000/svg" xmlns:xlink="http://www.w3.org/1999/xlink" xmlns:a="http://ns.adobe.com/AdobeSVGViewerExtensions/3.0/"
	 x="0px" y="0px" width="64px" height="64px" viewBox="0 0 64 64" enable-background="new 0 0 64 64" xml:space="preserve">
<path fill="#B3C2C6" d="M20.625,58.491C20.715,60.467,23.023,62,32,62s11.285-1.533,11.375-3.509c0,0,0,2.012-11.375,2.012
	S20.625,58.491,20.625,58.491z"/>
<radialGradient id="SVGID_1_" cx="32" cy="36.5107" r="19.5606" gradientTransform="matrix(1 0 0 2.5145 0 -55.5359)" gradientUnits="userSpaceOnUse">
	<stop  offset="0" style="stop-color:#E5EAEE"/>
	<stop  offset="0.2785" style="stop-color:#E1E7EB"/>
	<stop  offset="0.567" style="stop-color:#D4DDE1"/>
	<stop  offset="0.8591" style="stop-color:#C0CCD0"/>
	<stop  offset="1" style="stop-color:#B3C2C6"/>
	<a:midPointStop  offset="0" style="stop-color:#E5EAEE"/>
	<a:midPointStop  offset="0.7" style="stop-color:#E5EAEE"/>
	<a:midPointStop  offset="1" style="stop-color:#B3C2C6"/>
</radialGradient>
<path fill="url(#SVGID_1_)" d="M32,11.71c-1.857,2.917-13,2.339-13,17.933c0,5.991,0.736,21.189,1.078,27.908
	C20.172,59.397,22.592,60.83,32,60.83s11.828-1.433,11.923-3.279C44.264,50.832,45,35.634,45,29.643
	C45,14.049,33.856,14.627,32,11.71z"/>
<path fill="#B3C2C6" d="M28,12.351v1.995c0,0,0,0.4,4,0.4s4-0.4,4-0.4v-1.995H28z"/>
<linearGradient id="SVGID_2_" gradientUnits="userSpaceOnUse" x1="29.9014" y1="5.542" x2="34.0986" y2="5.542">
	<stop  offset="0" style="stop-color:#F49D01"/>
	<stop  offset="1" style="stop-color:#E98700"/>
	<a:midPointStop  offset="0" style="stop-color:#F49D01"/>
	<a:midPointStop  offset="0.5" style="stop-color:#F49D01"/>
	<a:midPointStop  offset="1" style="stop-color:#E98700"/>
</linearGradient>
<rect x="29.901" y="2.549" fill="url(#SVGID_2_)" width="4.197" height="5.986"/>
<linearGradient id="SVGID_3_" gradientUnits="userSpaceOnUse" x1="30.9087" y1="4.4902" x2="30.9087" y2="2">
	<stop  offset="0" style="stop-color:#E98700"/>
	<stop  offset="1" style="stop-color:#F49D01"/>
	<a:midPointStop  offset="0" style="stop-color:#E98700"/>
	<a:midPointStop  offset="0.5" style="stop-color:#E98700"/>
	<a:midPointStop  offset="1" style="stop-color:#F49D01"/>
</linearGradient>
<path fill="url(#SVGID_3_)" d="M37.509,2v1.66c-4.949,0-9.898-0.17-12.787,0.83l-0.414-0.83c0,0,3.302-1.66,5.775-1.66
	C35.034,3.106,37.509,2,37.509,2z"/>
<linearGradient id="SVGID_4_" gradientUnits="userSpaceOnUse" x1="27.8057" y1="9.1763" x2="36.1943" y2="9.1763">
	<stop  offset="0" style="stop-color:#EB9701"/>
	<stop  offset="0.7152" style="stop-color:#D97E00"/>
	<a:midPointStop  offset="0" style="stop-color:#EB9701"/>
	<a:midPointStop  offset="0.5" style="stop-color:#EB9701"/>
	<a:midPointStop  offset="0.7152" style="stop-color:#D97E00"/>
</linearGradient>
<path fill="url(#SVGID_4_)" d="M34.099,7.937h-4.197l-2.096,1.198c0.609,1.708,7.779,1.708,8.389,0L34.099,7.937z"/>
<path fill="#E5EAEE" d="M19.104,27.202c-0.357,4.224,0.609,23.075,0.89,28.702c7.973,1.4,16.038,1.4,24.011,0
	c0.275-5.503,1.244-24.529,0.891-28.702C31.795,28.836,19.104,27.202,19.104,27.202z"/>
<radialGradient id="SVGID_5_" cx="31.999" cy="42.0781" r="13.9573" gradientTransform="matrix(1 0 0 10 0 -378.7031)" gradientUnits="userSpaceOnUse">
	<stop  offset="0" style="stop-color:#FFFFFF"/>
	<stop  offset="0.2767" style="stop-color:#FAFBFC"/>
	<stop  offset="0.5848" style="stop-color:#EDF0F2"/>
	<stop  offset="0.9071" style="stop-color:#D7DEE3"/>
	<stop  offset="1" style="stop-color:#CFD8DD"/>
	<a:midPointStop  offset="0" style="stop-color:#FFFFFF"/>
	<a:midPointStop  offset="0.6848" style="stop-color:#FFFFFF"/>
	<a:midPointStop  offset="1" style="stop-color:#CFD8DD"/>
</radialGradient>
<path fill="url(#SVGID_5_)" d="M19.104,27.202c-0.357,4.224,0.609,23.075,0.89,28.702c7.973,1.4,16.038,1.4,24.011,0
	c0.275-5.503,1.244-24.529,0.891-28.702C31.795,28.836,19.104,27.202,19.104,27.202z"/>
<linearGradient id="SVGID_6_" gradientUnits="userSpaceOnUse" x1="27" y1="50.6758" x2="32.8936" y2="50.6758" gradientTransform="matrix(1 0 0 1 1 1)">
	<stop  offset="0" style="stop-color:#F49D01"/>
	<stop  offset="1" style="stop-color:#E98700"/>
	<a:midPointStop  offset="0" style="stop-color:#F49D01"/>
	<a:midPointStop  offset="0.5" style="stop-color:#F49D01"/>
	<a:midPointStop  offset="1" style="stop-color:#E98700"/>
</linearGradient>
<path fill="url(#SVGID_6_)" d="M33.71,52.117h-5.526c-0.117,0-0.184-0.066-0.184-0.184v-0.516c0-0.119,0.066-0.185,0.184-0.185
	h5.526c0.119,0,0.184,0.065,0.184,0.185v0.516C33.894,52.051,33.829,52.117,33.71,52.117z"/>
<linearGradient id="SVGID_7_" gradientUnits="userSpaceOnUse" x1="28.6953" y1="47.1445" x2="33" y2="47.1445" gradientTransform="matrix(1 0 0 1 1 1)">
	<stop  offset="0" style="stop-color:#F49D01"/>
	<stop  offset="1" style="stop-color:#E98700"/>
	<a:midPointStop  offset="0" style="stop-color:#F49D01"/>
	<a:midPointStop  offset="0.5" style="stop-color:#F49D01"/>
	<a:midPointStop  offset="1" style="stop-color:#E98700"/>
</linearGradient>
<path fill="url(#SVGID_7_)" d="M31.848,50.306c-1.216,0-2.152-0.962-2.152-2.161s0.937-2.161,2.152-2.161S34,46.945,34,48.145
	S33.063,50.306,31.848,50.306z M31.848,46.867c-0.745,0-1.294,0.557-1.294,1.277s0.549,1.277,1.294,1.277
	c0.744,0,1.293-0.557,1.293-1.277S32.592,46.867,31.848,46.867z"/>
<linearGradient id="SVGID_8_" gradientUnits="userSpaceOnUse" x1="27.4902" y1="43.3047" x2="32.8936" y2="43.3047" gradientTransform="matrix(1 0 0 1 1 1)">
	<stop  offset="0" style="stop-color:#F49D01"/>
	<stop  offset="1" style="stop-color:#E98700"/>
	<a:midPointStop  offset="0" style="stop-color:#F49D01"/>
	<a:midPointStop  offset="0.5" style="stop-color:#F49D01"/>
	<a:midPointStop  offset="1" style="stop-color:#E98700"/>
</linearGradient>
<path fill="url(#SVGID_8_)" d="M29.984,43.107h0.484c0.117,0,0.184,0.064,0.184,0.184v0.568h3.058c0.119,0,0.184,0.066,0.184,0.184
	v0.517c0,0.119-0.064,0.185-0.184,0.185h-3.058v0.572c0,0.119-0.066,0.186-0.184,0.186h-0.484c-0.117,0-0.184-0.066-0.184-0.186
	v-0.572h-1.126c-0.118,0-0.185-0.065-0.185-0.185v-0.517c0-0.117,0.066-0.184,0.185-0.184h1.126v-0.568
	C29.801,43.172,29.867,43.107,29.984,43.107z"/>
<linearGradient id="SVGID_9_" gradientUnits="userSpaceOnUse" x1="27.1641" y1="40.9131" x2="32.8936" y2="40.9131" gradientTransform="matrix(1 0 0 1 1 1)">
	<stop  offset="0" style="stop-color:#F49D01"/>
	<stop  offset="1" style="stop-color:#E98700"/>
	<a:midPointStop  offset="0" style="stop-color:#F49D01"/>
	<a:midPointStop  offset="0.5" style="stop-color:#F49D01"/>
	<a:midPointStop  offset="1" style="stop-color:#E98700"/>
</linearGradient>
<path fill="url(#SVGID_9_)" d="M28.962,42.355h-0.614c-0.119,0-0.184-0.065-0.184-0.185v-0.516c0-0.118,0.064-0.185,0.184-0.185
	h0.614c0.118,0,0.185,0.066,0.185,0.185v0.516C29.146,42.29,29.08,42.355,28.962,42.355z M33.71,42.355h-3.726
	c-0.117,0-0.184-0.065-0.184-0.185v-0.516c0-0.118,0.066-0.185,0.184-0.185h3.726c0.119,0,0.184,0.066,0.184,0.185v0.516
	C33.894,42.29,33.829,42.355,33.71,42.355z"/>
<linearGradient id="SVGID_10_" gradientUnits="userSpaceOnUse" x1="28.6953" y1="37.3809" x2="33" y2="37.3809" gradientTransform="matrix(1 0 0 1 1 1)">
	<stop  offset="0" style="stop-color:#F49D01"/>
	<stop  offset="1" style="stop-color:#E98700"/>
	<a:midPointStop  offset="0" style="stop-color:#F49D01"/>
	<a:midPointStop  offset="0.5" style="stop-color:#F49D01"/>
	<a:midPointStop  offset="1" style="stop-color:#E98700"/>
</linearGradient>
<path fill="url(#SVGID_10_)" d="M31.848,40.542c-1.216,0-2.152-0.962-2.152-2.16c0-1.2,0.937-2.161,2.152-2.161S34,37.182,34,38.382
	C34,39.58,33.063,40.542,31.848,40.542z M31.848,37.105c-0.745,0-1.294,0.555-1.294,1.276c0,0.72,0.549,1.276,1.294,1.276
	c0.744,0,1.293-0.557,1.293-1.276C33.141,37.66,32.592,37.105,31.848,37.105z"/>
<linearGradient id="SVGID_11_" gradientUnits="userSpaceOnUse" x1="28.6953" y1="32.5815" x2="32.8936" y2="32.5815" gradientTransform="matrix(1 0 0 1 1 1)">
	<stop  offset="0" style="stop-color:#F49D01"/>
	<stop  offset="1" style="stop-color:#E98700"/>
	<a:midPointStop  offset="0" style="stop-color:#F49D01"/>
	<a:midPointStop  offset="0.5" style="stop-color:#F49D01"/>
	<a:midPointStop  offset="1" style="stop-color:#E98700"/>
</linearGradient>
<path fill="url(#SVGID_11_)" d="M31.258,31.883h2.452c0.119,0,0.184,0.066,0.184,0.186v0.514c0,0.119-0.064,0.186-0.184,0.186
	h-2.398c-0.528,0-0.79,0.318-0.79,0.749c0,0.462,0.273,0.88,1.023,0.88h2.165c0.119,0,0.184,0.066,0.184,0.184v0.516
	c0,0.119-0.064,0.185-0.184,0.185h-3.726c-0.117,0-0.184-0.065-0.184-0.185V34.58c0-0.117,0.066-0.184,0.184-0.184h0.28
	c-0.399-0.262-0.569-0.662-0.569-1.163C29.695,32.473,30.275,31.883,31.258,31.883z"/>
<linearGradient id="SVGID_12_" gradientUnits="userSpaceOnUse" x1="38.4043" y1="56.7578" x2="38.4043" y2="27.686">
	<stop  offset="0" style="stop-color:#F49D01"/>
	<stop  offset="1" style="stop-color:#E98700"/>
	<a:midPointStop  offset="0" style="stop-color:#F49D01"/>
	<a:midPointStop  offset="0.5" style="stop-color:#F49D01"/>
	<a:midPointStop  offset="1" style="stop-color:#E98700"/>
</linearGradient>
<path fill="url(#SVGID_12_)" d="M37,56.758c0.937-0.067,1.872-0.156,2.808-0.263v-28.81c-0.949,0.063-1.886,0.113-2.808,0.15V56.758
	z"/>
<linearGradient id="SVGID_13_" gradientUnits="userSpaceOnUse" x1="27.8057" y1="11.5293" x2="36.1943" y2="11.5293">
	<stop  offset="0" style="stop-color:#F49D01"/>
	<stop  offset="1" style="stop-color:#E98700"/>
	<a:midPointStop  offset="0" style="stop-color:#F49D01"/>
	<a:midPointStop  offset="0.5" style="stop-color:#F49D01"/>
	<a:midPointStop  offset="1" style="stop-color:#E98700"/>
</linearGradient>
<rect x="27.806" y="9.135" fill="url(#SVGID_13_)" width="8.389" height="4.789"/>
</svg>
