<?xml version="1.0" encoding="utf-8"?>
<!-- Generator: Adobe Illustrator 15.0.0, SVG Export Plug-In . SVG Version: 6.00 Build 0)  -->
<!DOCTYPE svg PUBLIC "-//W3C//DTD SVG 1.1//EN" "http://www.w3.org/Graphics/SVG/1.1/DTD/svg11.dtd" [
	<!ENTITY ns_flows "http://ns.adobe.com/Flows/1.0/">
	<!ENTITY ns_extend "http://ns.adobe.com/Extensibility/1.0/">
	<!ENTITY ns_ai "http://ns.adobe.com/AdobeIllustrator/10.0/">
	<!ENTITY ns_graphs "http://ns.adobe.com/Graphs/1.0/">
]>
<svg version="1.1" id="Layer_1" xmlns:x="&ns_extend;" xmlns:i="&ns_ai;" xmlns:graph="&ns_graphs;"
	 xmlns="http://www.w3.org/2000/svg" xmlns:xlink="http://www.w3.org/1999/xlink" xmlns:a="http://ns.adobe.com/AdobeSVGViewerExtensions/3.0/"
	 x="0px" y="0px" width="64px" height="64px" viewBox="0 0 64 64" enable-background="new 0 0 64 64" xml:space="preserve">
<path fill="#AB4F2F" d="M49.396,56.164c1.324,0,6.352-2.896,6.352-2.896l0.203-0.654l1.42-0.084c0,0,2.726-0.973,3.84-1.648
	c0.162-0.098,0.479-0.604,0.527-1.033c0.277-2.502,0.387-10.23,0.072-10.547l-13.577,4.607L49.396,56.164z"/>
<path fill="#641C0D" d="M49.396,56.164V42.576l-16.17-6.785l0.321,11.688C33.547,47.479,47.88,56.164,49.396,56.164z"/>
<path fill="#DB6331" d="M45.731,31.33c0,0,15.344,7.235,16.078,7.971l-12.414,5.236l-16.17-8.746L45.731,31.33z"/>
<polygon fill="#EB7544" points="41.889,40.445 49.183,44.684 49.396,51.475 49.524,49.049 50.921,47.252 49.524,48.119 
	49.587,44.813 56.415,41.814 57.719,41.674 58.029,41.088 59.054,40.703 61.681,39.355 50.27,43.912 48.997,44.074 "/>
<path fill="#AB4F2F" d="M42.845,54.455c0.224-0.668,0.778-10.992,0.322-11.451L34.17,49.52L35.461,62
	C36.396,62,42.62,55.125,42.845,54.455z"/>
<path fill="#8B3017" d="M35.461,62V47.844l-33.247-6.17C1.82,42.07,2.019,50.822,2.415,52.73c0.038,0.186,0.35,0.48,0.608,0.57
	c1.58,0.553,6.3,1.617,6.3,1.617l3.886,0.541l1.601,0.945l10.39,2.816l1.129-0.08l0.37,0.484C26.698,59.625,33.911,62,35.461,62z"/>
<path fill="#DB6331" d="M2.214,41.674c0.314-0.701,7.733-5.313,9.493-6.207c0.191-0.098,0.551-0.127,0.792-0.082
	c3.753,0.717,29.719,6.664,30.668,7.619l-7.706,6.834L2.214,41.674z"/>
<path fill="#DB6331" d="M14.332,23.28c-0.261,1.955-0.711,6.849-0.711,6.849l38.157-0.569c0,0-1.242-4.707-2.006-6.196
	c-0.274-0.537-0.641-1.002-1.738-0.981C47.712,22.389,46.819,21.994,46.4,22c-0.229,0.003-0.869,0.287-0.869,0.287l-0.911-0.249
	l-19.16,0.415l-1.491,0.241l-2.565-0.153c0,0-4.616,0.012-6.315,0.012C14.77,22.552,14.375,22.952,14.332,23.28z"/>
<path fill="#8B3017" d="M14.309,42.236c1.37,0.211,7.094-0.182,7.094-0.182l1.287-0.381l0.494,0.359l3.185-0.041l0.539-0.809
	l1.366,0.783c0,0,18.544,0.299,22.308-0.143c0.364-0.043,0.762-0.479,0.809-0.896c0.307-2.654,0.389-11.368,0.389-11.368
	l-38.157,0.569c0,0,0.09,9.725,0.336,11.684C13.981,42.004,14.166,42.215,14.309,42.236z"/>
<path fill="#EB7544" d="M2.783,41.814l5.542,1.361l0.833,0.674h0.885c0,0,5.163,1.527,6.456,1.588
	c1.294,0.063,18.111,4.256,18.267,4.4c0.155,0.143,0.553,1.779,0.695,1.893c0.143,0.111,0.865-2.66,1.175-2.936
	c0.311-0.275,2.661-2.217,2.801-2.33c0.14-0.111,0.342,0.08,0.404,0.098c0.062,0.016,0.196-0.406,0.232-0.627
	c0.037-0.221,2.853-2.58,2.893-2.756c0.041-0.176-6.275,5.34-6.463,5.42c-0.186,0.08-1.986,0.498-2.063,0.498
	S3.67,41.85,2.783,41.814z"/>
<path fill="#EB7544" d="M13.83,30.129l8.861,0.141c0,0,0.606,1.124,0.947,1.252c0.342,0.129,1.212-1.214,1.614-1.393
	c0.402-0.18,16.637,0,16.637,0l1.278,0.274l0.258-0.519l0.808,0.434l0.171-0.417l7.17-0.338l-9.561-0.003l-11.019-0.285
	l-5.618,0.285l-1.614-0.285l-1.072,0.578L13.83,30.129z"/>
</svg>
