<?xml version="1.0" encoding="utf-8"?>
<!-- Generator: Adobe Illustrator 15.0.0, SVG Export Plug-In . SVG Version: 6.00 Build 0)  -->
<!DOCTYPE svg PUBLIC "-//W3C//DTD SVG 1.1//EN" "http://www.w3.org/Graphics/SVG/1.1/DTD/svg11.dtd" [
	<!ENTITY ns_flows "http://ns.adobe.com/Flows/1.0/">
	<!ENTITY ns_extend "http://ns.adobe.com/Extensibility/1.0/">
	<!ENTITY ns_ai "http://ns.adobe.com/AdobeIllustrator/10.0/">
	<!ENTITY ns_graphs "http://ns.adobe.com/Graphs/1.0/">
]>
<svg version="1.1" id="Layer_1" xmlns:x="&ns_extend;" xmlns:i="&ns_ai;" xmlns:graph="&ns_graphs;"
	 xmlns="http://www.w3.org/2000/svg" xmlns:xlink="http://www.w3.org/1999/xlink" xmlns:a="http://ns.adobe.com/AdobeSVGViewerExtensions/3.0/"
	 x="0px" y="0px" width="64px" height="64px" viewBox="0 0 64 64" enable-background="new 0 0 64 64" xml:space="preserve">
<path fill="#BA7848" d="M44.935,3.78L3.779,44.935c-6.97,6.973,8.316,22.259,15.286,15.285L60.22,19.064
	C67.192,12.094,51.906-3.192,44.935,3.78z"/>
<path fill="#CC844F" d="M39.446,20.437c-1.764-1.764-4.214-2.154-5.486-0.882L19.555,33.961c-1.272,1.272-0.881,3.723,0.882,5.485
	l4.214,4.215c1.763,1.764,4.214,2.156,5.488,0.882l14.402-14.502c1.274-1.274,0.882-3.725-0.88-5.487L39.446,20.437z"/>
<path fill="#CF8E5F" d="M19.914,34.295l14.406-14.406c1.104-1.105,3.137-0.995,4.809,0.205c-1.729-1.481-3.965-1.742-5.156-0.551
	L19.568,33.948c-1.19,1.19-0.908,3.401,0.57,5.126C18.938,37.409,18.81,35.398,19.914,34.295z"/>
<path fill="#B06F3F" d="M44.208,29.681L29.804,44.183c-1.104,1.105-3.115,0.979-4.78-0.222c1.725,1.479,3.937,1.762,5.128,0.57
	l14.402-14.502c1.189-1.19,0.889-3.378-0.59-5.098C45.166,26.588,45.312,28.58,44.208,29.681z"/>
<path fill="#CF9C76" d="M8.962,55.038c0.572,0.572-0.287,1.433-0.86,0.859C7.529,55.325,8.389,54.465,8.962,55.038z"/>
<path fill="#CF9C76" d="M12.314,51.686c0.573,0.572-0.287,1.433-0.859,0.859C10.881,51.973,11.742,51.112,12.314,51.686z"/>
<path fill="#CF9C76" d="M15.667,48.333c0.572,0.572-0.287,1.433-0.86,0.859C14.234,48.62,15.095,47.76,15.667,48.333z"/>
<path fill="#CF9C76" d="M19.02,44.98c0.573,0.573-0.287,1.434-0.86,0.859C17.585,45.267,18.446,44.406,19.02,44.98z"/>
<path fill="#CF9C76" d="M22.372,41.628c0.573,0.573-0.287,1.434-0.86,0.861C20.939,41.915,21.798,41.055,22.372,41.628z"/>
<path fill="#CF9C76" d="M25.725,38.275c0.573,0.572-0.287,1.433-0.86,0.859C24.292,38.563,25.152,37.701,25.725,38.275z"/>
<path fill="#CF9C76" d="M29.077,34.923c0.573,0.573-0.286,1.434-0.86,0.859C27.644,35.21,28.504,34.35,29.077,34.923z"/>
<path fill="#CF9C76" d="M32.43,31.57c0.573,0.573-0.286,1.434-0.86,0.859C30.996,31.856,31.856,30.996,32.43,31.57z"/>
<path fill="#CF9C76" d="M35.782,28.216c0.573,0.573-0.287,1.434-0.859,0.86C34.349,28.503,35.21,27.643,35.782,28.216z"/>
<path fill="#CF9C76" d="M39.135,24.865c0.572,0.572-0.288,1.433-0.86,0.859C37.701,25.152,38.562,24.292,39.135,24.865z"/>
<path fill="#CF9C76" d="M42.487,21.511c0.574,0.574-0.287,1.435-0.86,0.86C41.054,21.798,41.914,20.938,42.487,21.511z"/>
<path fill="#CF9C76" d="M45.84,18.159c0.572,0.573-0.288,1.434-0.86,0.86C44.406,18.447,45.267,17.586,45.84,18.159z"/>
<path fill="#CF9C76" d="M49.192,14.806c0.572,0.573-0.287,1.434-0.86,0.86C47.759,15.094,48.619,14.234,49.192,14.806z"/>
<path fill="#CF9C76" d="M52.545,11.454c0.573,0.573-0.288,1.434-0.86,0.86C51.111,11.742,51.972,10.881,52.545,11.454z"/>
<path fill="#CF9C76" d="M55.897,8.101c0.573,0.573-0.287,1.434-0.86,0.86C54.465,8.389,55.325,7.529,55.897,8.101z"/>
<path fill="#CF9C76" d="M17.713,57.085c0.573,0.572-0.287,1.433-0.86,0.859C16.281,57.371,17.141,56.511,17.713,57.085z"/>
<path fill="#CF9C76" d="M21.066,53.73c0.573,0.574-0.287,1.435-0.859,0.861C19.633,54.019,20.494,53.158,21.066,53.73z"/>
<path fill="#CF9C76" d="M24.418,50.38c0.574,0.573-0.286,1.434-0.86,0.859C22.985,50.666,23.845,49.806,24.418,50.38z"/>
<path fill="#CF9C76" d="M27.771,47.027c0.572,0.572-0.288,1.433-0.86,0.859C26.337,47.314,27.199,46.454,27.771,47.027z"/>
<path fill="#CF9C76" d="M31.125,43.673c0.572,0.573-0.287,1.435-0.861,0.86C29.691,43.961,30.551,43.101,31.125,43.673z"/>
<path fill="#CF9C76" d="M34.476,40.322c0.572,0.572-0.287,1.433-0.86,0.859C33.042,40.609,33.903,39.749,34.476,40.322z"/>
<path fill="#CF9C76" d="M37.829,36.968c0.573,0.574-0.287,1.436-0.861,0.861C36.395,37.256,37.255,36.396,37.829,36.968z"/>
<path fill="#CF9C76" d="M41.182,33.615c0.573,0.573-0.288,1.433-0.86,0.86C39.748,33.903,40.608,33.043,41.182,33.615z"/>
<path fill="#CF9C76" d="M44.534,30.264c0.572,0.572-0.288,1.433-0.861,0.859C43.101,30.551,43.96,29.69,44.534,30.264z"/>
<path fill="#CF9C76" d="M47.887,26.91c0.573,0.574-0.287,1.435-0.86,0.86C46.452,27.197,47.313,26.336,47.887,26.91z"/>
<path fill="#CF9C76" d="M51.239,23.559c0.572,0.572-0.288,1.433-0.861,0.859C49.806,23.845,50.665,22.985,51.239,23.559z"/>
<path fill="#CF9C76" d="M54.591,20.207c0.574,0.572-0.287,1.433-0.859,0.859C53.157,20.493,54.019,19.632,54.591,20.207z"/>
<path fill="#CF9C76" d="M57.944,16.852c0.572,0.574-0.287,1.435-0.861,0.861C56.511,17.14,57.371,16.28,57.944,16.852z"/>
<path fill="#CF9C76" d="M6.916,46.286c0.572,0.573-0.287,1.434-0.859,0.859C5.482,46.573,6.343,45.713,6.916,46.286z"/>
<path fill="#CF9C76" d="M10.269,42.934c0.572,0.573-0.288,1.434-0.861,0.859C8.835,43.221,9.695,42.36,10.269,42.934z"/>
<path fill="#CF9C76" d="M13.621,39.582c0.574,0.573-0.287,1.434-0.86,0.859C12.187,39.868,13.046,39.008,13.621,39.582z"/>
<path fill="#CF9C76" d="M16.972,36.229c0.573,0.572-0.287,1.433-0.859,0.859C15.54,36.517,16.4,35.656,16.972,36.229z"/>
<path fill="#CF9C76" d="M20.326,32.875c0.574,0.574-0.287,1.434-0.859,0.861C18.893,33.163,19.753,32.302,20.326,32.875z"/>
<path fill="#CF9C76" d="M23.677,29.524c0.574,0.572-0.287,1.433-0.859,0.859C22.245,29.811,23.105,28.951,23.677,29.524z"/>
<path fill="#CF9C76" d="M27.031,26.169c0.574,0.574-0.286,1.435-0.859,0.86C25.597,26.457,26.458,25.596,27.031,26.169z"/>
<path fill="#CF9C76" d="M30.384,22.817c0.572,0.573-0.287,1.434-0.86,0.86C28.951,23.105,29.811,22.245,30.384,22.817z"/>
<path fill="#CF9C76" d="M33.735,19.466c0.573,0.572-0.287,1.433-0.86,0.859C32.302,19.752,33.163,18.892,33.735,19.466z"/>
<path fill="#CF9C76" d="M37.089,16.112c0.573,0.574-0.287,1.435-0.861,0.86C35.654,16.399,36.515,15.539,37.089,16.112z"/>
<path fill="#CF9C76" d="M40.44,12.759c0.573,0.574-0.287,1.435-0.859,0.861C39.007,13.047,39.868,12.187,40.44,12.759z"/>
<path fill="#CF9C76" d="M43.794,9.407c0.572,0.574-0.288,1.435-0.861,0.86C42.36,9.695,43.22,8.834,43.794,9.407z"/>
<path fill="#CF9C76" d="M47.146,6.054c0.573,0.574-0.287,1.435-0.859,0.86C45.712,6.342,46.573,5.482,47.146,6.054z"/>
<path fill="#CF9C76" d="M7.939,50.661c0.572,0.574-0.287,1.434-0.861,0.86C6.505,50.948,7.365,50.089,7.939,50.661z"/>
<path fill="#CF9C76" d="M11.291,47.309c0.573,0.574-0.287,1.434-0.859,0.86C9.858,47.596,10.718,46.736,11.291,47.309z"/>
<path fill="#CF9C76" d="M14.643,43.957c0.575,0.574-0.286,1.434-0.86,0.86C13.21,44.243,14.071,43.384,14.643,43.957z"/>
<path fill="#CF9C76" d="M17.996,40.604c0.572,0.573-0.287,1.433-0.86,0.86S17.422,40.032,17.996,40.604z"/>
<path fill="#CF9C76" d="M21.349,37.251c0.572,0.572-0.287,1.433-0.86,0.86C19.916,37.538,20.777,36.679,21.349,37.251z"/>
<path fill="#CF9C76" d="M24.701,33.899c0.572,0.572-0.287,1.433-0.859,0.86C23.267,34.188,24.127,33.326,24.701,33.899z"/>
<path fill="#CF9C76" d="M28.054,30.545c0.574,0.575-0.286,1.435-0.86,0.86C26.621,30.833,27.481,29.973,28.054,30.545z"/>
<path fill="#CF9C76" d="M31.407,27.193c0.573,0.572-0.287,1.433-0.86,0.86C29.974,27.48,30.833,26.621,31.407,27.193z"/>
<path fill="#CF9C76" d="M34.758,23.841c0.573,0.572-0.286,1.433-0.86,0.86C33.325,24.127,34.186,23.267,34.758,23.841z"/>
<path fill="#CF9C76" d="M38.111,20.488c0.574,0.575-0.286,1.435-0.86,0.86C36.678,20.775,37.538,19.915,38.111,20.488z"/>
<path fill="#CF9C76" d="M41.463,17.135c0.573,0.573-0.286,1.434-0.86,0.86C40.03,17.422,40.891,16.562,41.463,17.135z"/>
<path fill="#CF9C76" d="M44.816,13.783c0.572,0.573-0.288,1.434-0.86,0.86C43.383,14.07,44.243,13.209,44.816,13.783z"/>
<path fill="#CF9C76" d="M48.169,10.43c0.572,0.573-0.287,1.434-0.86,0.86S47.596,9.857,48.169,10.43z"/>
<path fill="#CF9C76" d="M51.521,7.078c0.572,0.572-0.288,1.434-0.86,0.86C50.088,7.365,50.948,6.504,51.521,7.078z"/>
<path fill="#CF9C76" d="M13.338,56.062c0.573,0.573-0.287,1.433-0.86,0.86C11.906,56.348,12.765,55.488,13.338,56.062z"/>
<path fill="#CF9C76" d="M16.691,52.709c0.573,0.573-0.287,1.433-0.86,0.86C15.257,52.995,16.119,52.136,16.691,52.709z"/>
<path fill="#CF9C76" d="M20.043,49.356c0.572,0.573-0.288,1.433-0.86,0.86C18.608,49.642,19.468,48.781,20.043,49.356z"/>
<path fill="#CF9C76" d="M23.395,46.004c0.573,0.573-0.286,1.433-0.86,0.86C21.962,46.292,22.823,45.432,23.395,46.004z"/>
<path fill="#CF9C76" d="M26.75,42.65c0.572,0.574-0.288,1.434-0.861,0.86C25.316,42.938,26.175,42.078,26.75,42.65z"/>
<path fill="#CF9C76" d="M30.1,39.299c0.573,0.573-0.286,1.433-0.86,0.86C28.667,39.587,29.528,38.727,30.1,39.299z"/>
<path fill="#CF9C76" d="M33.453,35.946c0.573,0.573-0.287,1.433-0.86,0.86C32.019,36.231,32.878,35.371,33.453,35.946z"/>
<path fill="#CF9C76" d="M36.806,32.592c0.574,0.573-0.287,1.434-0.859,0.861C35.373,32.879,36.233,32.02,36.806,32.592z"/>
<path fill="#CF9C76" d="M40.158,29.241c0.572,0.573-0.288,1.433-0.86,0.86C38.725,29.529,39.585,28.668,40.158,29.241z"/>
<path fill="#CF9C76" d="M43.511,25.887c0.573,0.573-0.287,1.434-0.86,0.86C42.076,26.173,42.937,25.313,43.511,25.887z"/>
<path fill="#CF9C76" d="M46.863,22.536c0.573,0.572-0.288,1.433-0.86,0.86C45.43,22.824,46.29,21.962,46.863,22.536z"/>
<path fill="#CF9C76" d="M50.216,19.183c0.573,0.572-0.287,1.433-0.86,0.86C48.783,19.469,49.644,18.61,50.216,19.183z"/>
<path fill="#CF9C76" d="M53.568,15.831c0.573,0.572-0.287,1.433-0.86,0.86C52.136,16.117,52.995,15.257,53.568,15.831z"/>
<path fill="#CF9C76" d="M56.921,12.478c0.573,0.572-0.287,1.433-0.86,0.86C55.488,12.764,56.349,11.904,56.921,12.478z"/>
</svg>
