<?xml version="1.0" encoding="utf-8"?>
<!-- Generator: Adobe Illustrator 15.0.0, SVG Export Plug-In . SVG Version: 6.00 Build 0)  -->
<!DOCTYPE svg PUBLIC "-//W3C//DTD SVG 1.1//EN" "http://www.w3.org/Graphics/SVG/1.1/DTD/svg11.dtd" [
	<!ENTITY ns_flows "http://ns.adobe.com/Flows/1.0/">
	<!ENTITY ns_extend "http://ns.adobe.com/Extensibility/1.0/">
	<!ENTITY ns_ai "http://ns.adobe.com/AdobeIllustrator/10.0/">
	<!ENTITY ns_graphs "http://ns.adobe.com/Graphs/1.0/">
]>
<svg version="1.1" id="Layer_1" xmlns:x="&ns_extend;" xmlns:i="&ns_ai;" xmlns:graph="&ns_graphs;"
	 xmlns="http://www.w3.org/2000/svg" xmlns:xlink="http://www.w3.org/1999/xlink" xmlns:a="http://ns.adobe.com/AdobeSVGViewerExtensions/3.0/"
	 x="0px" y="0px" width="64px" height="64px" viewBox="0 0 64 64" enable-background="new 0 0 64 64" xml:space="preserve">
<radialGradient id="SVGID_1_" cx="29.4736" cy="72.5234" r="18.2596" gradientTransform="matrix(1 0 0 1.0597 0 -34.0814)" gradientUnits="userSpaceOnUse">
	<stop  offset="0" style="stop-color:#FFFFFF"/>
	<stop  offset="0.2711" style="stop-color:#FBFBFC"/>
	<stop  offset="0.5561" style="stop-color:#EEF1F3"/>
	<stop  offset="0.8466" style="stop-color:#D9E0E5"/>
	<stop  offset="1" style="stop-color:#CBD4DB"/>
	<a:midPointStop  offset="0" style="stop-color:#FFFFFF"/>
	<a:midPointStop  offset="0.697" style="stop-color:#FFFFFF"/>
	<a:midPointStop  offset="1" style="stop-color:#CBD4DB"/>
</radialGradient>
<path fill="url(#SVGID_1_)" d="M49.163,48.053C49.163,60.921,41.478,62,31.999,62s-17.162-1.079-17.162-13.947
	c0-10.045,7.684-16.188,17.162-16.188C41.479,31.865,49.163,38.008,49.163,48.053z"/>
<radialGradient id="SVGID_2_" cx="28.5767" cy="50.1484" r="12.3447" gradientTransform="matrix(1.0617 0 0 1.0568 -0.959 -32.8451)" gradientUnits="userSpaceOnUse">
	<stop  offset="0" style="stop-color:#FFFFFF"/>
	<stop  offset="0.2606" style="stop-color:#F8F9FA"/>
	<stop  offset="0.6522" style="stop-color:#E3E8EC"/>
	<stop  offset="1" style="stop-color:#CBD4DB"/>
	<a:midPointStop  offset="0" style="stop-color:#FFFFFF"/>
	<a:midPointStop  offset="0.6182" style="stop-color:#FFFFFF"/>
	<a:midPointStop  offset="1" style="stop-color:#CBD4DB"/>
</radialGradient>
<path fill="url(#SVGID_2_)" d="M45.106,23.527c0,7.203-5.867,13.047-13.107,13.047c-7.238,0-13.105-5.844-13.105-13.047
	s5.868-13.044,13.105-13.044C39.241,10.483,45.106,16.324,45.106,23.527z"/>
<path fill="#302C3B" d="M27.616,21.893c0,2.654-4,2.654-4,0C23.616,19.237,27.616,19.237,27.616,21.893z"/>
<path fill="#302C3B" d="M40.384,21.893c0,2.654-4,2.654-4,0C36.384,19.237,40.384,19.237,40.384,21.893z"/>
<path fill="#302C3B" d="M31.873,45.956c-2.666,0-2.472-3.339,0-3.979C34.456,41.308,34.541,45.956,31.873,45.956z"/>
<path fill="#302C3B" d="M31.999,54.743c-2.666,0-2.617-3.72,0.021-3.332C34.021,51.705,34.667,54.743,31.999,54.743z"/>
<path fill="#302C3B" d="M29.728,14.051c-3.436,0.767-11.307-0.753-10.813,1.461c0.424,1.91,4.547,3.387,11.544,1.826
	c6.995-1.559,10.103-4.649,9.681-6.558C39.645,8.563,33.162,13.283,29.728,14.051z"/>
<path fill="#302C3B" d="M29.612,13.527c-6.098,1.362-10.902,0.147-10.502,1.941c0.338,1.522,4.62,3.036,11.279,1.552
	c6.656-1.484,9.893-4.676,9.553-6.195C39.543,9.028,35.708,12.169,29.612,13.527z"/>
<radialGradient id="SVGID_3_" cx="171.6191" cy="-167.4263" r="7.6153" gradientTransform="matrix(0.9138 -0.2038 1.1774 5.2934 68.9548 930.4493)" gradientUnits="userSpaceOnUse">
	<stop  offset="0" style="stop-color:#1A1626"/>
	<stop  offset="0.1928" style="stop-color:#1D1929"/>
	<stop  offset="0.3233" style="stop-color:#262232"/>
	<stop  offset="0.4349" style="stop-color:#353141"/>
	<stop  offset="0.497" style="stop-color:#413D4D"/>
	<stop  offset="0.7091" style="stop-color:#413D4D"/>
	<stop  offset="0.7227" style="stop-color:#3D3949"/>
	<stop  offset="0.814" style="stop-color:#2A2636"/>
	<stop  offset="0.9062" style="stop-color:#1E1A2A"/>
	<stop  offset="1" style="stop-color:#1A1626"/>
	<a:midPointStop  offset="0" style="stop-color:#1A1626"/>
	<a:midPointStop  offset="0.7805" style="stop-color:#1A1626"/>
	<a:midPointStop  offset="0.497" style="stop-color:#413D4D"/>
	<a:midPointStop  offset="0.5" style="stop-color:#413D4D"/>
	<a:midPointStop  offset="0.7091" style="stop-color:#413D4D"/>
	<a:midPointStop  offset="0.2892" style="stop-color:#413D4D"/>
	<a:midPointStop  offset="1" style="stop-color:#1A1626"/>
</radialGradient>
<path fill="url(#SVGID_3_)" d="M34.925,2.365c-4.992,0.911-9.95,2.016-14.855,3.313c0.002-0.001,1.294,3.024,2.49,7.732
	c0.023,2.835,7.273,1.103,7.28,1.15c-0.011-0.047,7.286-1.559,6.105-4.135C35.034,5.653,34.919,2.366,34.925,2.365z"/>
<path fill="#E81C27" d="M35.945,10.427c0.505,1.646-4.06,2.79-6.287,3.313c-2.237,0.475-6.857,1.379-7.099-0.328
	c-0.205,0.173,0.336,1.564,0.625,2.449c0.242,0.708,3.088,1.253,7.029,0.37c3.939-0.876,6.286-2.577,6.205-3.321
	C36.308,11.984,36.205,10.496,35.945,10.427z"/>
<path fill="#302C3B" d="M20.069,5.679c0.344,1.083,15.005-2.183,14.855-3.313C34.702,0.893,19.646,4.249,20.069,5.679z"/>
<path fill="#302C3B" d="M20.252,5.837c1.618,0.527,13.333-2.086,14.575-3.25C32.5,3.733,22.843,5.888,20.252,5.837z"/>
<line fill="#9E6C49" x1="54.298" y1="33.502" x2="51.907" y2="33.502"/>
<path fill="#9E6C49" d="M55.907,28.939c0,0-9.229,9.186-11.128,11.076c-0.516,0.512,1.176,2.195,1.693,1.68
	c1.896-1.887,11.126-11.072,11.126-11.072L55.907,28.939z"/>
<path fill="#014D87" d="M54.661,35.643c-1.33-0.1-3.903-2.703-3.762-3.99C51.444,26.59,59.411,36.008,54.661,35.643z"/>
<path fill="#006DAE" d="M60.878,26.496c-4.076-3.439-6.076,3.861-6.289,1.037c-0.137-1.846-1.516-2.424-2.268,0.326
	c-0.736,2.701,1.172,6.051,4.051,6.145C59.194,34.094,64.255,29.344,60.878,26.496z"/>
<line fill="#9E6C49" x1="9.701" y1="33.502" x2="12.092" y2="33.502"/>
<path fill="#9E6C49" d="M8.094,28.939c0,0,9.229,9.186,11.127,11.076c0.516,0.512-1.176,2.195-1.693,1.68
	C15.631,39.809,6.402,30.623,6.402,30.623L8.094,28.939z"/>
<path fill="#014D87" d="M9.338,35.643c1.33-0.1,3.904-2.703,3.762-3.99C12.555,26.59,4.589,36.008,9.338,35.643z"/>
<path fill="#006DAE" d="M3.122,26.496c4.075-3.439,6.075,3.861,6.288,1.037c0.137-1.846,1.518-2.424,2.268,0.326
	c0.736,2.701-1.172,6.051-4.051,6.145C4.806,34.094-0.255,29.344,3.122,26.496z"/>
<path fill="#B00505" d="M42.943,30.338c-2.585,2.175-19.302,2.175-21.888,0c-1.443-1.215-1.127,5.143-0.418,5.584
	c4.093,2.548,18.631,2.548,22.725,0C44.071,35.48,44.388,29.123,42.943,30.338z"/>
<path fill="#E81C27" d="M21.837,30.761c-0.318-0.13-0.598-0.269-0.781-0.423c-1.443-1.215-1.127,5.143-0.418,5.584
	c0.328,0.205,0.744,0.387,1.199,0.558V30.761z"/>
<path fill="#E81C27" d="M26.366,31.688c-0.691-0.073-1.35-0.158-1.951-0.261v5.743c0.615,0.124,1.27,0.227,1.951,0.316V31.688z"/>
<path fill="#E81C27" d="M30.78,31.944c-0.645-0.015-1.287-0.033-1.914-0.064v5.832c0.63,0.041,1.271,0.068,1.914,0.087V31.944z"/>
<path fill="#E81C27" d="M42.943,30.354c-0.156,0.133-0.385,0.252-0.643,0.368v5.721c0.398-0.156,0.767-0.32,1.062-0.504
	C44.071,35.497,44.388,29.141,42.943,30.354z"/>
<path fill="#E81C27" d="M33.202,31.961v5.854c0.649-0.018,1.296-0.044,1.932-0.086v-5.833
	C34.501,31.928,33.853,31.947,33.202,31.961z"/>
<path fill="#B00505" d="M44.058,45.566c-3.406-0.753-4.705,1.615-5.457,0.354c-2.793-4.688-1.084-14.044-2.282-14.104
	c0.354-0.732,5.823-1.779,5.511,0.46C40.341,42.939,45.94,45.982,44.058,45.566z"/>
<path fill="#E81C27" d="M36.783,33.329c1.657-0.124,3.313-0.253,4.972-0.347c0.027-0.238,0.039-0.459,0.074-0.706
	c0.313-2.239-5.229-1.802-5.511-0.46C36.611,31.831,36.729,32.406,36.783,33.329z"/>
<path fill="#E81C27" d="M41.665,37.742c-0.082-0.854-0.081-1.793-0.045-2.814c-1.607,0.115-3.199,0.356-4.785,0.665
	c0.01,0.868,0.025,1.833,0.074,2.83C38.474,38.089,40.064,37.938,41.665,37.742z"/>
<path fill="#E81C27" d="M42.933,42.732c0,0-0.624-1.561-0.877-2.608c-1.656,0.317-3.233,0.765-4.895,1.065
	c0,0.839,0.324,2.211,0.576,2.744C39.339,43.326,41.139,42.924,42.933,42.732z"/>
<radialGradient id="SVGID_4_" cx="33.2637" cy="53.5371" r="2.5501" gradientTransform="matrix(0.9496 0 0 2.642 0.4127 -117.7121)" gradientUnits="userSpaceOnUse">
	<stop  offset="0" style="stop-color:#FFD500"/>
	<stop  offset="0.9091" style="stop-color:#FF8800"/>
	<a:midPointStop  offset="0" style="stop-color:#FFD500"/>
	<a:midPointStop  offset="0.5101" style="stop-color:#FFD500"/>
	<a:midPointStop  offset="0.9091" style="stop-color:#FF8800"/>
</radialGradient>
<path fill="url(#SVGID_4_)" d="M34.296,25.884c0,1.696-1.205,5.007-2.296,5.009c-1.091-0.002-2.296-3.432-2.296-5.009
	C29.704,23.253,34.296,23.046,34.296,25.884z"/>
<path fill="#A6E4FF" d="M6.353,46.622v-3.996l1.26-1.238c0.119-0.115,0.121-0.306,0.004-0.424c-0.115-0.117-0.305-0.119-0.424-0.003
	l-0.84,0.824v-1.36c0-0.166-0.135-0.301-0.301-0.301c-0.164,0-0.301,0.135-0.301,0.301v1.36l-0.838-0.824
	c-0.119-0.116-0.309-0.114-0.424,0.003c-0.117,0.118-0.115,0.309,0.002,0.424l1.26,1.239v3.995l-1.26,1.238
	c-0.117,0.117-0.119,0.306-0.002,0.424c0.059,0.061,0.135,0.09,0.213,0.09c0.076,0,0.152-0.027,0.211-0.087l0.838-0.824v1.36
	c0,0.167,0.137,0.301,0.301,0.301c0.166,0,0.301-0.134,0.301-0.301v-1.36l0.84,0.824c0.059,0.06,0.135,0.087,0.211,0.087
	s0.154-0.029,0.213-0.09c0.117-0.118,0.115-0.307-0.004-0.424L6.353,46.622z"/>
<path fill="#A6E4FF" d="M9.878,43.778l-1.16-0.313l1.205-0.682c0.148-0.083,0.197-0.267,0.113-0.41
	c-0.086-0.144-0.273-0.191-0.42-0.109l-1.205,0.681l0.301-1.14c0.043-0.161-0.055-0.325-0.219-0.366
	c-0.162-0.043-0.332,0.056-0.373,0.216l-0.453,1.71L4.13,45.364l-1.738-0.474c-0.164-0.044-0.332,0.05-0.379,0.21
	c-0.045,0.159,0.051,0.325,0.215,0.369l1.158,0.314l-1.203,0.682c-0.146,0.081-0.197,0.265-0.113,0.408
	c0.057,0.097,0.162,0.151,0.268,0.151c0.051,0,0.104-0.014,0.15-0.042l1.205-0.679l-0.301,1.139
	c-0.043,0.16,0.057,0.324,0.221,0.365c0.025,0.008,0.051,0.011,0.078,0.011c0.135,0,0.26-0.091,0.295-0.227l0.453-1.71l3.535-1.997
	l1.74,0.472c0.027,0.007,0.055,0.01,0.082,0.01c0.135,0,0.258-0.086,0.295-0.22C10.136,43.988,10.04,43.822,9.878,43.778z"/>
<path fill="#A6E4FF" d="M9.923,46.466l-1.205-0.682l1.16-0.314c0.162-0.044,0.258-0.21,0.213-0.369
	c-0.045-0.16-0.213-0.254-0.377-0.21l-1.74,0.474l-3.535-1.999l-0.453-1.71c-0.043-0.16-0.209-0.259-0.373-0.216
	c-0.164,0.041-0.264,0.205-0.221,0.366l0.301,1.14l-1.205-0.681c-0.146-0.082-0.334-0.034-0.418,0.109s-0.033,0.327,0.113,0.41
	l1.203,0.682l-1.158,0.313c-0.164,0.044-0.26,0.21-0.215,0.369c0.039,0.134,0.162,0.22,0.297,0.22c0.027,0,0.055-0.003,0.082-0.01
	l1.74-0.472l3.535,1.998l0.453,1.709c0.035,0.137,0.16,0.227,0.297,0.227c0.023,0,0.051-0.003,0.076-0.011
	c0.164-0.041,0.262-0.205,0.219-0.365l-0.301-1.139l1.205,0.679c0.049,0.028,0.102,0.042,0.154,0.042
	c0.105,0,0.207-0.055,0.266-0.151C10.12,46.73,10.071,46.547,9.923,46.466z"/>
<path fill="#75D6FF" d="M52.914,16.73v-3.996l1.26-1.238c0.119-0.115,0.121-0.306,0.004-0.424c-0.115-0.117-0.305-0.119-0.424-0.003
	l-0.84,0.824v-1.36c0-0.166-0.135-0.301-0.301-0.301c-0.164,0-0.301,0.135-0.301,0.301v1.36l-0.838-0.824
	c-0.119-0.116-0.309-0.114-0.424,0.003c-0.117,0.118-0.115,0.309,0.002,0.424l1.26,1.239v3.995l-1.26,1.238
	c-0.117,0.117-0.119,0.306-0.002,0.424c0.059,0.061,0.135,0.09,0.213,0.09c0.076,0,0.152-0.027,0.211-0.087l0.838-0.824v1.36
	c0,0.167,0.137,0.301,0.301,0.301c0.166,0,0.301-0.134,0.301-0.301v-1.36l0.84,0.824c0.059,0.06,0.135,0.087,0.211,0.087
	s0.154-0.029,0.213-0.09c0.117-0.118,0.115-0.307-0.004-0.424L52.914,16.73z"/>
<path fill="#75D6FF" d="M56.439,13.887l-1.16-0.313l1.205-0.682c0.148-0.083,0.197-0.267,0.113-0.41
	c-0.086-0.144-0.273-0.191-0.42-0.109l-1.205,0.681l0.301-1.14c0.043-0.161-0.055-0.325-0.219-0.366
	c-0.162-0.043-0.332,0.056-0.373,0.216l-0.453,1.71l-3.537,1.999l-1.738-0.474c-0.164-0.044-0.332,0.05-0.379,0.21
	c-0.045,0.159,0.051,0.325,0.215,0.369l1.158,0.314l-1.203,0.682c-0.146,0.081-0.197,0.265-0.113,0.408
	c0.057,0.097,0.162,0.151,0.268,0.151c0.051,0,0.104-0.014,0.15-0.042l1.205-0.679l-0.301,1.139
	c-0.043,0.16,0.057,0.324,0.221,0.365c0.025,0.008,0.051,0.011,0.078,0.011c0.135,0,0.26-0.091,0.295-0.227L51,15.991l3.535-1.997
	l1.74,0.472c0.027,0.007,0.055,0.01,0.082,0.01c0.135,0,0.258-0.086,0.295-0.22C56.697,14.097,56.602,13.931,56.439,13.887z"/>
<path fill="#75D6FF" d="M56.484,16.574l-1.205-0.682l1.16-0.314c0.162-0.044,0.258-0.21,0.213-0.369
	c-0.045-0.16-0.213-0.254-0.377-0.21l-1.74,0.474L51,13.474l-0.453-1.71c-0.043-0.16-0.209-0.259-0.373-0.216
	c-0.164,0.041-0.264,0.205-0.221,0.366l0.301,1.14l-1.205-0.681c-0.146-0.082-0.334-0.034-0.418,0.109s-0.033,0.327,0.113,0.41
	l1.203,0.682l-1.158,0.313c-0.164,0.044-0.26,0.21-0.215,0.369c0.039,0.134,0.162,0.22,0.297,0.22c0.027,0,0.055-0.003,0.082-0.01
	l1.74-0.472l3.535,1.998l0.453,1.709c0.035,0.137,0.16,0.227,0.297,0.227c0.023,0,0.051-0.003,0.076-0.011
	c0.164-0.041,0.262-0.205,0.219-0.365l-0.301-1.139l1.205,0.679c0.049,0.028,0.102,0.042,0.154,0.042
	c0.105,0,0.207-0.055,0.266-0.151C56.682,16.839,56.633,16.655,56.484,16.574z"/>
<path fill="#75D6FF" d="M10.69,57.948v-2.924l0.923-0.906c0.087-0.085,0.088-0.224,0.002-0.311c-0.084-0.086-0.223-0.087-0.31-0.002
	l-0.615,0.604v-0.996c0-0.121-0.099-0.22-0.22-0.22c-0.12,0-0.22,0.099-0.22,0.22v0.996l-0.613-0.604
	c-0.088-0.085-0.227-0.084-0.311,0.002c-0.086,0.087-0.084,0.226,0.001,0.311l0.923,0.906v2.924l-0.923,0.906
	c-0.085,0.086-0.087,0.224-0.001,0.311c0.043,0.044,0.099,0.065,0.156,0.065c0.056,0,0.111-0.02,0.154-0.063l0.613-0.604v0.996
	c0,0.122,0.1,0.22,0.22,0.22c0.121,0,0.22-0.098,0.22-0.22v-0.996l0.615,0.604c0.043,0.044,0.099,0.063,0.154,0.063
	s0.112-0.021,0.155-0.065c0.086-0.087,0.085-0.225-0.002-0.311L10.69,57.948z"/>
<path fill="#75D6FF" d="M13.271,55.867l-0.849-0.229l0.882-0.499c0.108-0.061,0.145-0.195,0.083-0.3
	c-0.063-0.105-0.2-0.141-0.308-0.08l-0.882,0.498l0.221-0.834c0.031-0.118-0.04-0.238-0.16-0.269
	c-0.119-0.031-0.243,0.041-0.273,0.158l-0.332,1.252l-2.588,1.463l-1.272-0.347c-0.12-0.032-0.243,0.036-0.277,0.153
	c-0.033,0.116,0.037,0.238,0.157,0.271l0.848,0.229l-0.881,0.499c-0.106,0.06-0.145,0.194-0.082,0.299
	c0.041,0.071,0.118,0.111,0.195,0.111c0.037,0,0.076-0.011,0.11-0.031l0.882-0.497L8.523,58.55
	c-0.031,0.117,0.042,0.237,0.162,0.268c0.019,0.005,0.037,0.008,0.057,0.008c0.099,0,0.19-0.066,0.216-0.166l0.332-1.252
	l2.587-1.461l1.273,0.345c0.021,0.005,0.04,0.007,0.061,0.007c0.099,0,0.188-0.063,0.216-0.16
	C13.46,56.021,13.39,55.899,13.271,55.867z"/>
<path fill="#75D6FF" d="M13.304,57.834l-0.882-0.499l0.849-0.229c0.119-0.032,0.189-0.154,0.156-0.271
	c-0.033-0.117-0.156-0.186-0.276-0.153l-1.273,0.347L9.29,55.565l-0.332-1.252c-0.031-0.117-0.152-0.189-0.272-0.158
	c-0.12,0.03-0.193,0.15-0.162,0.269l0.221,0.834L7.862,54.76c-0.107-0.061-0.245-0.025-0.306,0.08
	c-0.063,0.104-0.024,0.239,0.082,0.3l0.881,0.499l-0.848,0.229c-0.12,0.032-0.19,0.154-0.157,0.271
	c0.028,0.098,0.118,0.16,0.218,0.16c0.02,0,0.039-0.002,0.06-0.007l1.273-0.345l2.587,1.462l0.332,1.251
	c0.025,0.1,0.117,0.166,0.217,0.166c0.018,0,0.038-0.003,0.057-0.008c0.12-0.03,0.191-0.15,0.16-0.268l-0.221-0.834l0.882,0.497
	c0.036,0.021,0.074,0.031,0.113,0.031c0.077,0,0.151-0.04,0.194-0.111C13.448,58.028,13.412,57.894,13.304,57.834z"/>
<path fill="#75D6FF" d="M57.818,43.906v-2.924l0.923-0.906c0.087-0.085,0.088-0.224,0.002-0.311
	c-0.084-0.086-0.223-0.087-0.31-0.002l-0.615,0.604v-0.996c0-0.121-0.099-0.22-0.22-0.22c-0.12,0-0.22,0.099-0.22,0.22v0.996
	l-0.613-0.604c-0.088-0.085-0.227-0.084-0.311,0.002c-0.086,0.087-0.084,0.226,0.001,0.311l0.923,0.906v2.924l-0.923,0.906
	c-0.085,0.086-0.087,0.224-0.001,0.311c0.043,0.044,0.099,0.065,0.156,0.065c0.056,0,0.111-0.02,0.154-0.063l0.613-0.604v0.996
	c0,0.122,0.1,0.22,0.22,0.22c0.121,0,0.22-0.098,0.22-0.22v-0.996l0.615,0.604c0.043,0.044,0.099,0.063,0.154,0.063
	s0.112-0.021,0.155-0.065c0.086-0.087,0.085-0.225-0.002-0.311L57.818,43.906z"/>
<path fill="#75D6FF" d="M60.398,41.825l-0.849-0.229l0.882-0.499c0.108-0.061,0.145-0.195,0.083-0.3
	c-0.063-0.105-0.2-0.141-0.308-0.08l-0.882,0.498l0.221-0.834c0.031-0.118-0.04-0.238-0.16-0.269
	c-0.119-0.031-0.243,0.041-0.273,0.158l-0.332,1.252l-2.588,1.463L54.92,42.64c-0.12-0.032-0.243,0.036-0.277,0.153
	c-0.033,0.116,0.037,0.238,0.157,0.271l0.848,0.229l-0.881,0.499c-0.106,0.06-0.145,0.194-0.082,0.299
	c0.041,0.071,0.118,0.111,0.195,0.111c0.037,0,0.076-0.011,0.11-0.031l0.882-0.497l-0.221,0.834
	c-0.031,0.117,0.042,0.237,0.162,0.268c0.019,0.005,0.037,0.008,0.057,0.008c0.099,0,0.19-0.066,0.216-0.166l0.332-1.252
	l2.587-1.461l1.273,0.345c0.021,0.005,0.04,0.007,0.061,0.007c0.099,0,0.188-0.063,0.216-0.16
	C60.588,41.979,60.518,41.857,60.398,41.825z"/>
<path fill="#75D6FF" d="M60.432,43.792l-0.882-0.499l0.849-0.229c0.119-0.032,0.189-0.154,0.156-0.271
	c-0.033-0.117-0.156-0.186-0.276-0.153l-1.273,0.347l-2.587-1.463l-0.332-1.252c-0.031-0.117-0.152-0.189-0.272-0.158
	c-0.12,0.03-0.193,0.15-0.162,0.269l0.221,0.834l-0.882-0.498c-0.107-0.061-0.245-0.025-0.306,0.08
	c-0.063,0.104-0.024,0.239,0.082,0.3l0.881,0.499L54.8,41.825c-0.12,0.032-0.19,0.154-0.157,0.271
	c0.028,0.098,0.118,0.16,0.218,0.16c0.02,0,0.039-0.002,0.06-0.007l1.273-0.345l2.587,1.462l0.332,1.251
	c0.025,0.1,0.117,0.166,0.217,0.166c0.018,0,0.038-0.003,0.057-0.008c0.12-0.03,0.191-0.15,0.16-0.268l-0.221-0.834l0.882,0.497
	c0.036,0.021,0.074,0.031,0.113,0.031c0.077,0,0.151-0.04,0.194-0.111C60.576,43.986,60.54,43.852,60.432,43.792z"/>
<path fill="#A6E4FF" d="M53.749,55.609v-2.924l0.923-0.906c0.087-0.085,0.088-0.224,0.002-0.311
	c-0.084-0.086-0.223-0.087-0.31-0.002l-0.615,0.604v-0.996c0-0.121-0.099-0.22-0.22-0.22c-0.12,0-0.22,0.099-0.22,0.22v0.996
	l-0.613-0.604c-0.088-0.085-0.227-0.084-0.311,0.002c-0.086,0.087-0.084,0.226,0.001,0.311l0.923,0.906v2.924l-0.923,0.906
	c-0.085,0.086-0.087,0.224-0.001,0.311c0.043,0.044,0.099,0.065,0.156,0.065c0.056,0,0.111-0.02,0.154-0.063l0.613-0.604v0.996
	c0,0.122,0.1,0.22,0.22,0.22c0.121,0,0.22-0.098,0.22-0.22v-0.996l0.615,0.604c0.043,0.044,0.099,0.063,0.154,0.063
	s0.112-0.021,0.155-0.065c0.086-0.087,0.085-0.225-0.002-0.311L53.749,55.609z"/>
<path fill="#A6E4FF" d="M56.329,53.528L55.48,53.3l0.882-0.499c0.108-0.061,0.145-0.195,0.083-0.3
	c-0.063-0.105-0.2-0.141-0.308-0.08l-0.882,0.498l0.221-0.834c0.031-0.118-0.04-0.238-0.16-0.269
	c-0.119-0.031-0.243,0.041-0.273,0.158l-0.332,1.252l-2.588,1.463l-1.272-0.347c-0.12-0.032-0.243,0.036-0.277,0.153
	c-0.033,0.116,0.037,0.238,0.157,0.271l0.848,0.229l-0.881,0.499c-0.106,0.06-0.145,0.194-0.082,0.299
	c0.041,0.071,0.118,0.111,0.195,0.111c0.037,0,0.076-0.011,0.11-0.031l0.882-0.497l-0.221,0.834
	c-0.031,0.117,0.042,0.237,0.162,0.268c0.019,0.005,0.037,0.008,0.057,0.008c0.099,0,0.19-0.066,0.216-0.166l0.332-1.252
	l2.587-1.461l1.273,0.345c0.021,0.005,0.04,0.007,0.061,0.007c0.099,0,0.188-0.063,0.216-0.16
	C56.519,53.683,56.448,53.561,56.329,53.528z"/>
<path fill="#A6E4FF" d="M56.362,55.495l-0.882-0.499l0.849-0.229c0.119-0.032,0.189-0.154,0.156-0.271
	c-0.033-0.117-0.156-0.186-0.276-0.153l-1.273,0.347l-2.587-1.463l-0.332-1.252c-0.031-0.117-0.152-0.189-0.272-0.158
	c-0.12,0.03-0.193,0.15-0.162,0.269l0.221,0.834l-0.882-0.498c-0.107-0.061-0.245-0.025-0.306,0.08
	c-0.063,0.104-0.024,0.239,0.082,0.3l0.881,0.499l-0.848,0.229c-0.12,0.032-0.19,0.154-0.157,0.271
	c0.028,0.098,0.118,0.16,0.218,0.16c0.02,0,0.039-0.002,0.06-0.007l1.273-0.345l2.587,1.462l0.332,1.251
	c0.025,0.1,0.117,0.166,0.217,0.166c0.018,0,0.038-0.003,0.057-0.008c0.12-0.03,0.191-0.15,0.16-0.268l-0.221-0.834l0.882,0.497
	c0.036,0.021,0.074,0.031,0.113,0.031c0.077,0,0.151-0.04,0.194-0.111C56.507,55.689,56.471,55.555,56.362,55.495z"/>
<path fill="#A6E4FF" d="M11.116,18.15v-2.924l0.923-0.906c0.087-0.085,0.088-0.224,0.002-0.311c-0.084-0.086-0.223-0.087-0.31-0.002
	l-0.615,0.604v-0.996c0-0.121-0.099-0.22-0.22-0.22c-0.12,0-0.22,0.099-0.22,0.22v0.996l-0.613-0.604
	c-0.088-0.085-0.227-0.084-0.311,0.002c-0.086,0.087-0.084,0.226,0.001,0.311l0.923,0.906v2.924l-0.923,0.906
	c-0.085,0.086-0.087,0.224-0.001,0.311c0.043,0.044,0.099,0.065,0.156,0.065c0.056,0,0.111-0.02,0.154-0.063l0.613-0.604v0.996
	c0,0.122,0.1,0.22,0.22,0.22c0.121,0,0.22-0.098,0.22-0.22v-0.996l0.615,0.604c0.043,0.044,0.099,0.063,0.154,0.063
	s0.112-0.021,0.155-0.065c0.086-0.087,0.085-0.225-0.002-0.311L11.116,18.15z"/>
<path fill="#A6E4FF" d="M13.696,16.069l-0.849-0.229l0.882-0.499c0.108-0.061,0.145-0.195,0.083-0.3
	c-0.063-0.105-0.2-0.141-0.308-0.08l-0.882,0.498l0.221-0.834c0.031-0.118-0.04-0.238-0.16-0.269
	c-0.119-0.031-0.243,0.041-0.273,0.158l-0.332,1.252L9.49,17.23l-1.272-0.347c-0.12-0.032-0.243,0.036-0.277,0.153
	c-0.033,0.116,0.037,0.238,0.157,0.271l0.848,0.229l-0.881,0.499c-0.106,0.06-0.145,0.194-0.082,0.299
	c0.041,0.071,0.118,0.111,0.195,0.111c0.037,0,0.076-0.011,0.11-0.031l0.882-0.497l-0.221,0.834
	c-0.031,0.117,0.042,0.237,0.162,0.268c0.019,0.005,0.037,0.008,0.057,0.008c0.099,0,0.19-0.066,0.216-0.166l0.332-1.252
	l2.587-1.461l1.273,0.345c0.021,0.005,0.04,0.007,0.061,0.007c0.099,0,0.188-0.063,0.216-0.16
	C13.886,16.224,13.815,16.102,13.696,16.069z"/>
<path fill="#A6E4FF" d="M13.729,18.036l-0.882-0.499l0.849-0.229c0.119-0.032,0.189-0.154,0.156-0.271
	c-0.033-0.117-0.156-0.186-0.276-0.153l-1.273,0.347l-2.587-1.463l-0.332-1.252c-0.031-0.117-0.152-0.189-0.272-0.158
	c-0.12,0.03-0.193,0.15-0.162,0.269L9.17,15.46l-0.882-0.498c-0.107-0.061-0.245-0.025-0.306,0.08
	c-0.063,0.104-0.024,0.239,0.082,0.3l0.881,0.499l-0.848,0.229c-0.12,0.032-0.19,0.154-0.157,0.271
	c0.028,0.098,0.118,0.16,0.218,0.16c0.02,0,0.039-0.002,0.06-0.007l1.273-0.345l2.587,1.462l0.332,1.251
	c0.025,0.1,0.117,0.166,0.217,0.166c0.018,0,0.038-0.003,0.057-0.008c0.12-0.03,0.191-0.15,0.16-0.268l-0.221-0.834l0.882,0.497
	c0.036,0.021,0.074,0.031,0.113,0.031c0.077,0,0.151-0.04,0.194-0.111C13.874,18.23,13.838,18.096,13.729,18.036z"/>
</svg>
