<?xml version="1.0" encoding="utf-8"?>
<!-- Generator: Adobe Illustrator 15.0.0, SVG Export Plug-In . SVG Version: 6.00 Build 0)  -->
<!DOCTYPE svg PUBLIC "-//W3C//DTD SVG 1.1//EN" "http://www.w3.org/Graphics/SVG/1.1/DTD/svg11.dtd" [
	<!ENTITY ns_flows "http://ns.adobe.com/Flows/1.0/">
	<!ENTITY ns_extend "http://ns.adobe.com/Extensibility/1.0/">
	<!ENTITY ns_ai "http://ns.adobe.com/AdobeIllustrator/10.0/">
	<!ENTITY ns_graphs "http://ns.adobe.com/Graphs/1.0/">
]>
<svg version="1.1" id="Layer_1" xmlns:x="&ns_extend;" xmlns:i="&ns_ai;" xmlns:graph="&ns_graphs;"
	 xmlns="http://www.w3.org/2000/svg" xmlns:xlink="http://www.w3.org/1999/xlink" xmlns:a="http://ns.adobe.com/AdobeSVGViewerExtensions/3.0/"
	 x="0px" y="0px" width="64px" height="64px" viewBox="0 0 64 64" enable-background="new 0 0 64 64" xml:space="preserve">
<linearGradient id="SVGID_1_" gradientUnits="userSpaceOnUse" x1="12.5752" y1="54.8203" x2="27.6327" y2="9.1491" gradientTransform="matrix(1 0 0 1 -2.2866 -0.9487)">
	<stop  offset="0" style="stop-color:#4AD6FF"/>
	<stop  offset="0.6117" style="stop-color:#1EB2DE"/>
	<stop  offset="1" style="stop-color:#009AC7"/>
	<a:midPointStop  offset="0" style="stop-color:#4AD6FF"/>
	<a:midPointStop  offset="0.5212" style="stop-color:#4AD6FF"/>
	<a:midPointStop  offset="1" style="stop-color:#009AC7"/>
</linearGradient>
<polygon fill="url(#SVGID_1_)" points="25.563,8.296 5.023,48.297 15.705,58.979 "/>
<linearGradient id="SVGID_2_" gradientUnits="userSpaceOnUse" x1="13.043" y1="54.4463" x2="57.6293" y2="38.3913" gradientTransform="matrix(1 0 0 1 -2.2866 -0.9487)">
	<stop  offset="0" style="stop-color:#4AD6FF"/>
	<stop  offset="0.6117" style="stop-color:#1EB2DE"/>
	<stop  offset="1" style="stop-color:#009AC7"/>
	<a:midPointStop  offset="0" style="stop-color:#4AD6FF"/>
	<a:midPointStop  offset="0.5212" style="stop-color:#4AD6FF"/>
	<a:midPointStop  offset="1" style="stop-color:#009AC7"/>
</linearGradient>
<polygon fill="url(#SVGID_2_)" points="55.705,38.441 5.023,48.297 15.705,58.979 "/>
<linearGradient id="SVGID_3_" gradientUnits="userSpaceOnUse" x1="12.4805" y1="54.8574" x2="41.4296" y2="8.7714" gradientTransform="matrix(1 0 0 1 -2.2866 -0.9487)">
	<stop  offset="0" style="stop-color:#94E7FF"/>
	<stop  offset="0.3211" style="stop-color:#68D5F6"/>
	<stop  offset="1" style="stop-color:#00ACE0"/>
	<a:midPointStop  offset="0" style="stop-color:#94E7FF"/>
	<a:midPointStop  offset="0.5212" style="stop-color:#94E7FF"/>
	<a:midPointStop  offset="1" style="stop-color:#00ACE0"/>
</linearGradient>
<polygon fill="url(#SVGID_3_)" points="39.808,8.297 5.023,48.297 15.705,58.979 "/>
<linearGradient id="SVGID_4_" gradientUnits="userSpaceOnUse" x1="12.6519" y1="54.5869" x2="57.488" y2="24.3085" gradientTransform="matrix(1 0 0 1 -2.2866 -0.9487)">
	<stop  offset="0" style="stop-color:#94E7FF"/>
	<stop  offset="0.3211" style="stop-color:#68D5F6"/>
	<stop  offset="1" style="stop-color:#00ACE0"/>
	<a:midPointStop  offset="0" style="stop-color:#94E7FF"/>
	<a:midPointStop  offset="0.5212" style="stop-color:#94E7FF"/>
	<a:midPointStop  offset="1" style="stop-color:#00ACE0"/>
</linearGradient>
<polygon fill="url(#SVGID_4_)" points="55.705,24.195 15.705,58.979 5.023,48.297 "/>
<linearGradient id="SVGID_5_" gradientUnits="userSpaceOnUse" x1="-161.3022" y1="8.1807" x2="-161.3022" y2="-73.3652" gradientTransform="matrix(0.7071 0.7071 -0.7071 0.7071 124.1807 167.9354)">
	<stop  offset="0" style="stop-color:#ADF1FF"/>
	<stop  offset="0.3979" style="stop-color:#63DEFF"/>
	<stop  offset="0.8084" style="stop-color:#1CCBFF"/>
	<stop  offset="1" style="stop-color:#00C4FF"/>
	<a:midPointStop  offset="0" style="stop-color:#ADF1FF"/>
	<a:midPointStop  offset="0.4667" style="stop-color:#ADF1FF"/>
	<a:midPointStop  offset="1" style="stop-color:#00C4FF"/>
</linearGradient>
<path fill="url(#SVGID_5_)" d="M15.644,59.648C16.049,59.242,62,2,62,2S4.752,47.954,4.34,48.366
	c-3.119,3.119-3.119,8.176-0.002,11.295c3.12,3.119,8.176,3.118,11.295,0l0,0L15.644,59.648z"/>
<linearGradient id="SVGID_6_" gradientUnits="userSpaceOnUse" x1="-173.5381" y1="-6.0283" x2="-151.4051" y2="-28.1613" gradientTransform="matrix(0.7071 0.7071 -0.7071 0.7071 124.665 169.1073)">
	<stop  offset="0" style="stop-color:#ADF1FF;stop-opacity:0"/>
	<stop  offset="1" style="stop-color:#ADF1FF"/>
	<a:midPointStop  offset="0" style="stop-color:#ADF1FF;stop-opacity:0"/>
	<a:midPointStop  offset="0.5939" style="stop-color:#ADF1FF;stop-opacity:0"/>
	<a:midPointStop  offset="1" style="stop-color:#ADF1FF"/>
</linearGradient>
<polygon fill="url(#SVGID_6_)" points="37.518,26.485 6.217,49.491 14.512,57.785 "/>
<path fill="#C2F8FF" d="M15.001,32.508c0,2.659-3.987,2.66-3.988,0C11.014,29.85,15.001,29.849,15.001,32.508z"/>
<path fill="#C2F8FF" d="M20.265,24.197c0,1.328-1.994,1.326-1.993-0.001C18.271,22.866,20.265,22.866,20.265,24.197z"/>
<path fill="#C2F8FF" d="M22.281,29.881c-0.001,1.327-1.994,1.326-1.994,0C20.287,28.55,22.281,28.55,22.281,29.881z"/>
<path fill="#C2F8FF" d="M35.967,8.297c0,1.329-1.993,1.329-1.993,0C33.974,6.967,35.967,6.967,35.967,8.297z"/>
<path fill="#C2F8FF" d="M47.189,3.623c0,1.329-1.996,1.329-1.996-0.001C45.193,2.295,47.189,2.295,47.189,3.623z"/>
<path fill="#C2F8FF" d="M44.387,10.976c0,1.327-1.994,1.328-1.994,0C42.394,9.647,44.387,9.647,44.387,10.976z"/>
<path fill="#C2F8FF" d="M48.186,24.82c0,1.327-1.993,1.327-1.993,0C46.191,23.491,48.186,23.491,48.186,24.82z"/>
<path fill="#C2F8FF" d="M55.33,29.882c0,1.325-1.994,1.325-1.994-0.001C53.336,28.55,55.331,28.55,55.33,29.882z"/>
<path fill="#C2F8FF" d="M36.964,38.441c-0.001,1.33-1.995,1.329-1.994,0.001C34.97,37.113,36.964,37.114,36.964,38.441z"/>
<path fill="#C2F8FF" d="M33.063,47.236c0.001,1.33-1.994,1.33-1.994,0S33.063,45.907,33.063,47.236z"/>
<path fill="#C2F8FF" d="M42.393,43.182c0,1.329-1.994,1.329-1.994-0.001C40.398,41.854,42.393,41.854,42.393,43.182z"/>
<path fill="#C2F8FF" d="M33.488,24.196c0.001,2.658-3.988,2.657-3.988,0C29.5,21.537,33.488,21.537,33.488,24.196z"/>
<path fill="#C2F8FF" d="M32.068,12.895c0,2.656-3.99,2.657-3.99-0.001C28.079,10.234,32.067,10.235,32.068,12.895z"/>
<path fill="#C2F8FF" d="M54.335,20.068c-0.001,2.66-3.99,2.66-3.99,0.001C50.345,17.411,54.335,17.409,54.335,20.068z"/>
<path fill="#C2F8FF" d="M48.186,36.845c0,2.66-3.988,2.659-3.988-0.001C44.197,34.186,48.186,34.186,48.186,36.845z"/>
<radialGradient id="SVGID_7_" cx="-161.3311" cy="-0.2256" r="7.5005" gradientTransform="matrix(0.7058 0.7059 -0.7058 0.7059 123.7002 168.0544)" gradientUnits="userSpaceOnUse">
	<stop  offset="0.5212" style="stop-color:#E8FFFF"/>
	<stop  offset="0.9636" style="stop-color:#E8FFFF;stop-opacity:0"/>
	<a:midPointStop  offset="0.5212" style="stop-color:#E8FFFF"/>
	<a:midPointStop  offset="0.6563" style="stop-color:#E8FFFF"/>
	<a:midPointStop  offset="0.9636" style="stop-color:#E8FFFF;stop-opacity:0"/>
</radialGradient>
<circle fill="url(#SVGID_7_)" cx="9.987" cy="54.014" r="7.487"/>
</svg>
