<?xml version="1.0" encoding="utf-8"?>
<!-- Generator: Adobe Illustrator 15.0.0, SVG Export Plug-In . SVG Version: 6.00 Build 0)  -->
<!DOCTYPE svg PUBLIC "-//W3C//DTD SVG 1.1//EN" "http://www.w3.org/Graphics/SVG/1.1/DTD/svg11.dtd" [
	<!ENTITY ns_flows "http://ns.adobe.com/Flows/1.0/">
	<!ENTITY ns_extend "http://ns.adobe.com/Extensibility/1.0/">
	<!ENTITY ns_ai "http://ns.adobe.com/AdobeIllustrator/10.0/">
	<!ENTITY ns_graphs "http://ns.adobe.com/Graphs/1.0/">
]>
<svg version="1.1" id="Layer_1" xmlns:x="&ns_extend;" xmlns:i="&ns_ai;" xmlns:graph="&ns_graphs;"
	 xmlns="http://www.w3.org/2000/svg" xmlns:xlink="http://www.w3.org/1999/xlink" xmlns:a="http://ns.adobe.com/AdobeSVGViewerExtensions/3.0/"
	 x="0px" y="0px" width="64px" height="64px" viewBox="0 0 64 64" enable-background="new 0 0 64 64" xml:space="preserve">
<path fill="#C21413" d="M21.895,34.186c-0.15,0.17-0.376,1.065-0.486,1.683c0.687,0.064,4.027-0.063,3.763-4.418
	C24.235,32.975,22.179,33.865,21.895,34.186z"/>
<path fill="#C21413" d="M42.105,34.186c-0.285-0.32-2.342-1.211-3.278-2.735c-0.264,4.355,3.077,4.482,3.765,4.418
	C42.48,35.251,42.256,34.355,42.105,34.186z"/>
<path fill="#800303" d="M30.804,24.686h2.393c0,0,0.01-0.802-0.027-1.001c-0.088-0.443-2.254-0.43-2.336,0
	C30.793,23.884,30.804,24.686,30.804,24.686z"/>
<radialGradient id="SVGID_1_" cx="43.9844" cy="33.7813" r="6.7417" gradientTransform="matrix(0.901 0 0 0.9963 -29.5719 -0.5542)" gradientUnits="userSpaceOnUse">
	<stop  offset="0.0364" style="stop-color:#FF000E"/>
	<stop  offset="1" style="stop-color:#E30000"/>
	<a:midPointStop  offset="0.0364" style="stop-color:#FF000E"/>
	<a:midPointStop  offset="0.4909" style="stop-color:#FF000E"/>
	<a:midPointStop  offset="1" style="stop-color:#E30000"/>
</radialGradient>
<path fill="url(#SVGID_1_)" d="M2.274,32.318c0,0,0.06,2.002,1.66,3.875c1.88,2.198,13.689,0.286,13.884-3.641
	c0.124-2.507-0.27-3.469-0.27-3.469L2.274,32.318z"/>
<radialGradient id="SVGID_2_" cx="92.6895" cy="33.7813" r="6.7411" gradientTransform="matrix(0.901 0 0 0.9963 -29.5719 -0.5542)" gradientUnits="userSpaceOnUse">
	<stop  offset="0.0364" style="stop-color:#FF000E"/>
	<stop  offset="1" style="stop-color:#E30000"/>
	<a:midPointStop  offset="0.0364" style="stop-color:#FF000E"/>
	<a:midPointStop  offset="0.4909" style="stop-color:#FF000E"/>
	<a:midPointStop  offset="1" style="stop-color:#E30000"/>
</radialGradient>
<path fill="url(#SVGID_2_)" d="M46.451,29.084c0,0-0.393,0.962-0.27,3.469c0.195,3.927,12.004,5.839,13.883,3.641
	c1.601-1.873,1.661-3.875,1.661-3.875L46.451,29.084z"/>
<radialGradient id="SVGID_3_" cx="68.7041" cy="28.4355" r="32.4259" gradientTransform="matrix(0.901 0 0 0.3004 -29.5719 19.2337)" gradientUnits="userSpaceOnUse">
	<stop  offset="0.5697" style="stop-color:#E30000"/>
	<stop  offset="0.8" style="stop-color:#FF000E"/>
	<a:midPointStop  offset="0.5697" style="stop-color:#E30000"/>
	<a:midPointStop  offset="0.5091" style="stop-color:#E30000"/>
	<a:midPointStop  offset="0.8" style="stop-color:#FF000E"/>
</radialGradient>
<path fill="url(#SVGID_3_)" d="M32,16C20.442,16-0.646,18.547,2.274,32.318c0.812,3.826,15.352,0.697,15.274-3.234
	c-0.057-3.013,1.142-3.427,1.775-3.743c2.485-1.236,9.335-1.477,12.676-1.477s10.19,0.24,12.675,1.477
	c0.637,0.316,1.835,0.73,1.776,3.743c-0.074,3.932,14.463,7.061,15.274,3.234C64.645,18.547,43.557,16,32,16z"/>
<path fill="#B00505" d="M29.8,25.744h4.399c0,0,0.021-0.803-0.05-1.002c-0.158-0.443-4.146-0.43-4.301,0
	C29.78,24.941,29.8,25.744,29.8,25.744z"/>
<path fill="#800303" d="M31.999,25.537c-6.621,0-9.049-0.778-9.049-0.778c0.762,5.627,17.337,5.627,18.099,0
	C41.049,24.759,38.622,25.537,31.999,25.537z"/>
<path fill="#B00505" d="M23.403,26.56c2.961,4.788,14.231,4.788,17.192,0H23.403z"/>
<path fill="#C21413" d="M40.904,22.335c0,5.401-3.249,5.923-8.905,5.923c-5.654,0-8.904-0.521-8.904-5.923
	c0-1.522-3.281-1.522-3.281,0c0,1.82,0,3.466,0,4.655c0,0.983,0.942,1.923,2.037,1.923c0.719,0,1.27,0,1.84,0
	c0.741,0,1.234,0.368,1.234,1.371c3.723,1.084,10.428,1.084,14.149,0c0-1.003,0.494-1.371,1.234-1.371c0.57,0,1.121,0,1.84,0
	c1.096,0,2.037-0.939,2.037-1.923c0-1.189,0-2.835,0-4.655C44.186,20.813,40.904,20.813,40.904,22.335z"/>
<linearGradient id="SVGID_4_" gradientUnits="userSpaceOnUse" x1="32.0005" y1="37.8477" x2="32.0005" y2="30.2847">
	<stop  offset="0" style="stop-color:#CF0000"/>
	<stop  offset="0.2384" style="stop-color:#DE0004"/>
	<stop  offset="0.71" style="stop-color:#F6000B"/>
	<stop  offset="1" style="stop-color:#FF000E"/>
	<a:midPointStop  offset="0" style="stop-color:#CF0000"/>
	<a:midPointStop  offset="0.4" style="stop-color:#CF0000"/>
	<a:midPointStop  offset="1" style="stop-color:#FF000E"/>
</linearGradient>
<path fill="url(#SVGID_4_)" d="M39.629,33.354c-0.428-0.714-0.555-3.069-0.555-3.069H24.925c0,0-0.127,2.355-0.555,3.069
	c-0.51,0.851-2.962,1.921-2.962,2.515c0,2.64,21.184,2.64,21.184,0C42.592,35.274,40.14,34.204,39.629,33.354z"/>
<linearGradient id="SVGID_5_" gradientUnits="userSpaceOnUse" x1="32" y1="62" x2="32" y2="37.2002">
	<stop  offset="0" style="stop-color:#CF0000"/>
	<stop  offset="0.2384" style="stop-color:#DE0004"/>
	<stop  offset="0.71" style="stop-color:#F6000B"/>
	<stop  offset="1" style="stop-color:#FF000E"/>
	<a:midPointStop  offset="0" style="stop-color:#CF0000"/>
	<a:midPointStop  offset="0.4" style="stop-color:#CF0000"/>
	<a:midPointStop  offset="1" style="stop-color:#FF000E"/>
</linearGradient>
<path fill="url(#SVGID_5_)" d="M58.346,56.414c-0.246-0.866-2.522-5.997-3.795-7.734c-0.561-0.765-7.62-1.842-12.371-11.479h-20.36
	C17.068,46.838,10.009,47.915,9.448,48.68c-1.272,1.737-3.549,6.868-3.794,7.734c-0.403,1.422-0.568,2.997-0.635,4.111
	C4.967,61.407,5.53,62,7.505,62c6.695,0,42.295,0,48.989,0c1.975,0,2.539-0.593,2.485-1.475
	C58.913,59.411,58.748,57.836,58.346,56.414z"/>
<linearGradient id="SVGID_6_" gradientUnits="userSpaceOnUse" x1="31.9995" y1="54.9609" x2="31.9995" y2="35.8682">
	<stop  offset="0" style="stop-color:#FF543D"/>
	<stop  offset="0.188" style="stop-color:#FF4C39"/>
	<stop  offset="0.4787" style="stop-color:#FF362C"/>
	<stop  offset="0.8342" style="stop-color:#FF1319"/>
	<stop  offset="1" style="stop-color:#FF000E"/>
	<a:midPointStop  offset="0" style="stop-color:#FF543D"/>
	<a:midPointStop  offset="0.6121" style="stop-color:#FF543D"/>
	<a:midPointStop  offset="1" style="stop-color:#FF000E"/>
</linearGradient>
<path fill="url(#SVGID_6_)" d="M42.592,35.868H21.408C19.022,50.028,6.929,54.961,6.929,54.961H57.07
	C57.07,54.961,44.977,50.028,42.592,35.868z"/>
<path fill="#6E8189" d="M41.839,45.856c0,11.203-19.785,11.203-19.785,0C22.054,34.656,41.839,34.656,41.839,45.856z"/>
<path fill="#B3C2C6" d="M41.839,44.971c0,11.202-19.785,11.202-19.785,0C22.054,33.771,41.839,33.771,41.839,44.971z"/>
<polygon fill="#CFD8DD" points="40.616,50.883 40.616,49.349 41.946,47.712 41.946,49.208 "/>
<polygon fill="#FFFFFF" points="38.204,46.425 37.612,47.169 40.616,49.54 41.946,47.712 "/>
<radialGradient id="SVGID_7_" cx="29.4966" cy="29.3223" r="7.4763" gradientTransform="matrix(0.9938 0 0 1.0347 2.563 11.6293)" gradientUnits="userSpaceOnUse">
	<stop  offset="0.2" style="stop-color:#E6EBEF"/>
	<stop  offset="0.8459" style="stop-color:#A8B5BB"/>
	<stop  offset="1" style="stop-color:#99A8AE"/>
	<a:midPointStop  offset="0.2" style="stop-color:#E6EBEF"/>
	<a:midPointStop  offset="0.5152" style="stop-color:#E6EBEF"/>
	<a:midPointStop  offset="1" style="stop-color:#99A8AE"/>
</radialGradient>
<path fill="url(#SVGID_7_)" d="M37.536,44.131c0,6.839-11.178,6.839-11.178,0C26.358,37.915,37.536,37.915,37.536,44.131z"/>
<path fill="#6E8189" d="M38.884,49.937c0,2.143-3.331,2.143-3.331,0C35.553,47.796,38.884,47.796,38.884,49.937z"/>
<path fill="#1A1626" d="M38.85,49.616c-0.313-1.807-2.956-1.807-3.269,0C36.124,48.32,38.31,48.32,38.85,49.616z"/>
<path fill="#6E8189" d="M35.687,51.446c0,2.143-3.33,2.143-3.33,0C32.356,49.306,35.687,49.306,35.687,51.446z"/>
<path fill="#1A1626" d="M35.651,51.126c-0.312-1.807-2.956-1.807-3.268,0C32.926,49.83,35.111,49.83,35.651,51.126z"/>
<path fill="#6E8189" d="M32.028,51.481c0,2.141-3.332,2.141-3.332,0C28.696,49.339,32.028,49.339,32.028,51.481z"/>
<path fill="#1A1626" d="M31.994,51.161c-0.313-1.807-2.957-1.807-3.27,0C29.268,49.865,31.453,49.865,31.994,51.161z"/>
<path fill="#6E8189" d="M28.725,50.21c0,2.076-3.331,2.076-3.331,0C25.394,48.136,28.725,48.136,28.725,50.21z"/>
<path fill="#1A1626" d="M28.69,49.899c-0.313-1.75-2.957-1.75-3.27,0C25.964,48.645,28.15,48.645,28.69,49.899z"/>
<path fill="#6E8189" d="M26.407,47.778c0,1.953-3.33,1.953-3.33,0S26.407,45.825,26.407,47.778z"/>
<path fill="#1A1626" d="M26.373,47.485c-0.312-1.647-2.955-1.647-3.268,0C23.648,46.305,25.833,46.305,26.373,47.485z"/>
<path fill="#6E8189" d="M25.605,44.793c0,1.836-3.214,1.836-3.214,0C22.392,42.958,25.605,42.958,25.605,44.793z"/>
<path fill="#1A1626" d="M25.572,44.518c-0.301-1.548-2.852-1.548-3.153,0C22.942,43.407,25.052,43.407,25.572,44.518z"/>
<path fill="#6E8189" d="M26.284,41.821c0,1.807-3.107,1.807-3.107,0C23.177,40.016,26.284,40.016,26.284,41.821z"/>
<path fill="#1A1626" d="M26.252,41.552c-0.291-1.523-2.758-1.523-3.048,0C23.71,40.458,25.749,40.458,26.252,41.552z"/>
<path fill="#6E8189" d="M28.415,39.517c0,1.695-3.105,1.695-3.105,0S28.415,37.821,28.415,39.517z"/>
<path fill="#1A1626" d="M28.384,39.262c-0.291-1.43-2.757-1.43-3.049,0C25.842,38.237,27.88,38.237,28.384,39.262z"/>
<path fill="#6E8189" d="M31.566,38.237c0,1.643-3.151,1.643-3.151,0C28.415,36.594,31.566,36.594,31.566,38.237z"/>
<path fill="#1A1626" d="M31.535,37.991c-0.296-1.386-2.798-1.386-3.093,0C28.956,36.997,31.023,36.997,31.535,37.991z"/>
<path fill="#6E8189" d="M35.018,38.217c0,1.642-3.151,1.642-3.151,0C31.866,36.573,35.018,36.573,35.018,38.217z"/>
<path fill="#1A1626" d="M34.986,37.971c-0.296-1.387-2.799-1.387-3.094,0C32.405,36.977,34.475,36.977,34.986,37.971z"/>
<path fill="#6E8189" d="M38.297,39.517c0,1.697-3.215,1.697-3.215,0C35.082,37.82,38.297,37.82,38.297,39.517z"/>
<path fill="#1A1626" d="M38.264,39.263c-0.301-1.431-2.853-1.431-3.155,0C35.633,38.236,37.742,38.236,38.264,39.263z"/>
<path fill="#6E8189" d="M40.592,41.878c0,1.795-3.315,1.795-3.315,0C37.276,40.081,40.592,40.081,40.592,41.878z"/>
<path fill="#1A1626" d="M40.558,41.608c-0.311-1.515-2.941-1.515-3.253,0C37.845,40.522,40.02,40.522,40.558,41.608z"/>
</svg>
