<?xml version="1.0" encoding="utf-8"?>
<!-- Generator: Adobe Illustrator 15.0.0, SVG Export Plug-In . SVG Version: 6.00 Build 0)  -->
<!DOCTYPE svg PUBLIC "-//W3C//DTD SVG 1.1//EN" "http://www.w3.org/Graphics/SVG/1.1/DTD/svg11.dtd" [
	<!ENTITY ns_flows "http://ns.adobe.com/Flows/1.0/">
	<!ENTITY ns_extend "http://ns.adobe.com/Extensibility/1.0/">
	<!ENTITY ns_ai "http://ns.adobe.com/AdobeIllustrator/10.0/">
	<!ENTITY ns_graphs "http://ns.adobe.com/Graphs/1.0/">
]>
<svg version="1.1" id="Layer_1" xmlns:x="&ns_extend;" xmlns:i="&ns_ai;" xmlns:graph="&ns_graphs;"
	 xmlns="http://www.w3.org/2000/svg" xmlns:xlink="http://www.w3.org/1999/xlink" xmlns:a="http://ns.adobe.com/AdobeSVGViewerExtensions/3.0/"
	 x="0px" y="0px" width="64px" height="64px" viewBox="0 0 64 64" enable-background="new 0 0 64 64" xml:space="preserve">
<path fill="#529320" d="M33.656,29.154l-0.579-0.145c0,0-8.835,16.122-4.294,31.575c0.769,2.629,4.732,1.266,4.091-1.391
	C28.81,42.341,33.656,29.154,33.656,29.154z"/>
<linearGradient id="SVGID_1_" gradientUnits="userSpaceOnUse" x1="120.8955" y1="59.9014" x2="136.1772" y2="41.662" gradientTransform="matrix(0.9697 -0.2444 0.2444 0.9697 -99.1509 2.4191)">
	<stop  offset="0" style="stop-color:#6CA82E"/>
	<stop  offset="0.0953" style="stop-color:#71AC2F"/>
	<stop  offset="0.6555" style="stop-color:#89C131"/>
	<stop  offset="1" style="stop-color:#92C932"/>
	<a:midPointStop  offset="0" style="stop-color:#6CA82E"/>
	<a:midPointStop  offset="0.4" style="stop-color:#6CA82E"/>
	<a:midPointStop  offset="1" style="stop-color:#92C932"/>
</linearGradient>
<path fill="url(#SVGID_1_)" d="M55.332,15.559C57.085,5.414,45.941,4.055,43.05,8.499c1.235-5.306-7.108-10.473-13.75-2.031
	c-7.399,9.403,3.1,24.479,3.1,24.479S53.439,26.467,55.332,15.559z"/>
<path fill="#6A9E15" d="M32.4,30.946C36.975,19.006,43.051,8.499,43.051,8.499S34.082,21.479,32.4,30.946z"/>
<linearGradient id="SVGID_2_" gradientUnits="userSpaceOnUse" x1="-443.1216" y1="331.9863" x2="-427.8348" y2="313.7408" gradientTransform="matrix(-0.4224 0.9064 0.9064 0.4224 -455.7673 292.5191)">
	<stop  offset="0" style="stop-color:#6CA82E"/>
	<stop  offset="0.0953" style="stop-color:#71AC2F"/>
	<stop  offset="0.6555" style="stop-color:#89C131"/>
	<stop  offset="1" style="stop-color:#92C932"/>
	<a:midPointStop  offset="0" style="stop-color:#6CA82E"/>
	<a:midPointStop  offset="0.4" style="stop-color:#6CA82E"/>
	<a:midPointStop  offset="1" style="stop-color:#92C932"/>
</linearGradient>
<path fill="url(#SVGID_2_)" d="M13.169,50.86c-10.344-0.194-9.86-11.792-4.93-13.779c-5.47,0.21-10.385-9.129-0.803-14.032
	C19.204,17.028,32.4,30.893,32.4,30.893S24.292,51.064,13.169,50.86z"/>
<path fill="#6A9E15" d="M32.4,30.893c-12.647,2.226-24.16,6.188-24.16,6.188S22.738,30.756,32.4,30.893z"/>
<linearGradient id="SVGID_3_" gradientUnits="userSpaceOnUse" x1="4.3726" y1="15.1758" x2="24.7544" y2="27.3399" gradientTransform="matrix(0.9954 0.0959 -0.0959 0.9954 29.6913 15.4352)">
	<stop  offset="0" style="stop-color:#6CA82E"/>
	<stop  offset="0.0953" style="stop-color:#71AC2F"/>
	<stop  offset="0.6555" style="stop-color:#89C131"/>
	<stop  offset="1" style="stop-color:#92C932"/>
	<a:midPointStop  offset="0" style="stop-color:#6CA82E"/>
	<a:midPointStop  offset="0.4" style="stop-color:#6CA82E"/>
	<a:midPointStop  offset="1" style="stop-color:#92C932"/>
</linearGradient>
<path fill="url(#SVGID_3_)" d="M40.499,54.427c10.077,4.231,15.556-5.402,12.003-9.032c5.141,2.478,13.543-4.222,7.256-12.075
	c-6.9-8.622-27.315-2.434-27.315-2.434S29.665,49.875,40.499,54.427z"/>
<path fill="#6A9E15" d="M32.443,30.885c9.711,8.244,20.058,14.509,20.058,14.509S38.43,38.36,32.443,30.885z"/>
</svg>
