<?xml version="1.0" encoding="utf-8"?>
<!-- Generator: Adobe Illustrator 15.0.0, SVG Export Plug-In . SVG Version: 6.00 Build 0)  -->
<!DOCTYPE svg PUBLIC "-//W3C//DTD SVG 1.1//EN" "http://www.w3.org/Graphics/SVG/1.1/DTD/svg11.dtd" [
	<!ENTITY ns_flows "http://ns.adobe.com/Flows/1.0/">
	<!ENTITY ns_extend "http://ns.adobe.com/Extensibility/1.0/">
	<!ENTITY ns_ai "http://ns.adobe.com/AdobeIllustrator/10.0/">
	<!ENTITY ns_graphs "http://ns.adobe.com/Graphs/1.0/">
]>
<svg version="1.1" id="Layer_1" xmlns:x="&ns_extend;" xmlns:i="&ns_ai;" xmlns:graph="&ns_graphs;"
	 xmlns="http://www.w3.org/2000/svg" xmlns:xlink="http://www.w3.org/1999/xlink" xmlns:a="http://ns.adobe.com/AdobeSVGViewerExtensions/3.0/"
	 x="0px" y="0px" width="64px" height="64px" viewBox="0 0 64 64" enable-background="new 0 0 64 64" xml:space="preserve">
<linearGradient id="SVGID_1_" gradientUnits="userSpaceOnUse" x1="88" y1="-82" x2="88" y2="-142" gradientTransform="matrix(1 0 0 -1 -56 -80)">
	<stop  offset="0" style="stop-color:#00C9FF"/>
	<stop  offset="0.4976" style="stop-color:#5D2DFF"/>
	<stop  offset="1" style="stop-color:#F600FF"/>
	<a:midPointStop  offset="0" style="stop-color:#00C9FF"/>
	<a:midPointStop  offset="0.5" style="stop-color:#00C9FF"/>
	<a:midPointStop  offset="0.4976" style="stop-color:#5D2DFF"/>
	<a:midPointStop  offset="0.5" style="stop-color:#5D2DFF"/>
	<a:midPointStop  offset="1" style="stop-color:#F600FF"/>
</linearGradient>
<path fill="url(#SVGID_1_)" d="M32,2C15.433,2,2,15.431,2,32c0,16.566,13.433,30,30,30c16.567,0,30-13.434,30-30
	C62,15.431,48.566,2,32,2z M35,37.518l12.652,12.651c-3.488,3.009-7.848,5.022-12.652,5.624V37.518z M29,55.792
	c-4.805-0.601-9.163-2.615-12.651-5.624L29,37.516V55.792z M8,32C8,19.763,17.166,9.687,29,8.207V29.03L12.32,45.71
	C9.604,41.823,8,37.102,8,32z M51.68,45.711L35,29.032V8.207C46.836,9.687,56,19.763,56,32C56,37.102,54.396,41.823,51.68,45.711z"
	/>
</svg>
