<?xml version="1.0" encoding="utf-8"?>
<!-- Generator: Adobe Illustrator 19.0.0, SVG Export Plug-In . SVG Version: 6.00 Build 0)  -->
<svg version="1.1" id="Layer_1" xmlns="http://www.w3.org/2000/svg" xmlns:xlink="http://www.w3.org/1999/xlink" x="0px" y="0px"
	 width="64px" height="64px" viewBox="0 0 64 64" enable-background="new 0 0 64 64" xml:space="preserve">
<linearGradient id="SVGID_1_" gradientUnits="userSpaceOnUse" x1="32" y1="2" x2="32" y2="62">
	<stop  offset="0" style="stop-color:#BC2AF7"/>
	<stop  offset="0.2161" style="stop-color:#B928F3"/>
	<stop  offset="0.4401" style="stop-color:#B121E6"/>
	<stop  offset="0.6677" style="stop-color:#A217D2"/>
	<stop  offset="0.8963" style="stop-color:#8E08B5"/>
	<stop  offset="0.9949" style="stop-color:#8400A6"/>
</linearGradient>
<path fill="url(#SVGID_1_)" d="M62,54c0,4.4-3.6,8-8,8H10c-4.4,0-8-3.6-8-8V10c0-4.4,3.6-8,8-8h44c4.4,0,8,3.6,8,8V54z"/>
<circle fill="#FFFFFF" cx="32.784" cy="40.965" r="3.375"/>
<path fill="#FFFFFF" d="M32,12c-11.046,0-20,8.954-20,20s8.954,20,20,20s20-8.954,20-20S43.046,12,32,12z M32.541,48.329
	c-4.126-0.083-7.611-3.263-7.979-7.464C24.168,36.363,27.499,32.393,32,32c4.5-0.394,7.83-4.363,7.438-8.864
	c-0.391-4.465-4.285-7.425-8.757-7.434c4.142-0.335,8.411,0.887,11.838,3.763c6.912,5.8,7.816,16.141,2.017,23.054
	C41.431,46.218,37.025,48.179,32.541,48.329z M31.019,20.793c1.689-0.147,3.176,1.101,3.324,2.79c0.147,1.688-1.1,3.176-2.789,3.323
	c-1.689,0.148-3.176-1.1-3.324-2.789C28.083,22.428,29.33,20.941,31.019,20.793z"/>
</svg>
