<?xml version="1.0" encoding="utf-8"?>
<!-- Generator: Adobe Illustrator 19.0.0, SVG Export Plug-In . SVG Version: 6.00 Build 0)  -->
<svg version="1.1" id="Layer_1" xmlns="http://www.w3.org/2000/svg" xmlns:xlink="http://www.w3.org/1999/xlink" x="0px" y="0px"
	 width="64px" height="64px" viewBox="0 0 64 64" enable-background="new 0 0 64 64" xml:space="preserve">
<linearGradient id="SVGID_1_" gradientUnits="userSpaceOnUse" x1="32" y1="2" x2="32" y2="62">
	<stop  offset="0" style="stop-color:#BC2AF7"/>
	<stop  offset="0.2161" style="stop-color:#B928F3"/>
	<stop  offset="0.4401" style="stop-color:#B121E6"/>
	<stop  offset="0.6677" style="stop-color:#A217D2"/>
	<stop  offset="0.8963" style="stop-color:#8E08B5"/>
	<stop  offset="0.9949" style="stop-color:#8400A6"/>
</linearGradient>
<path fill="url(#SVGID_1_)" d="M62,54c0,4.4-3.6,8-8,8H10c-4.4,0-8-3.6-8-8V10c0-4.4,3.6-8,8-8h44c4.4,0,8,3.6,8,8V54z"/>
<path fill="#FFFFFF" d="M40.801,33.258c-2.107,0-4.043,0.686-5.594,1.828V19.975c0-3.505-2.643-7.565-8.238-7.565
	c-2.285,0-4.642,0.774-6.338,2.251c-1.012-1.26-2.375-2.198-3.979-2.598c-1.141-0.282-2.303,0.408-2.588,1.548
	c-0.285,1.14,0.408,2.294,1.551,2.579c1.291,0.321,2.592,1.723,2.592,3.784v21.962c0,1.175,0.957,2.127,2.135,2.127
	c1.18,0,2.135-0.952,2.135-2.127V19.975c0-2.412,2.756-3.311,4.492-3.311c1.74,0,3.969,1.195,3.969,3.311v23.86
	c0,2.824-1.713,4.103-3.484,4.103c-2.851,0-2.851,4.063,0,4.063c2.637,0,5.297-1.304,6.711-3.843
	c1.676,1.672,4.025,2.718,6.637,2.718c5.082,0,9.199-3.944,9.199-8.809C50,37.202,45.883,33.258,40.801,33.258z M40.801,47.179
	c-2.947,0-5.338-2.289-5.338-5.112c0-2.824,2.391-5.112,5.338-5.112c2.949,0,5.34,2.288,5.34,5.112
	C46.14,44.89,43.75,47.179,40.801,47.179z"/>
</svg>
