<?xml version="1.0" encoding="utf-8"?>
<!-- Generator: Adobe Illustrator 19.0.0, SVG Export Plug-In . SVG Version: 6.00 Build 0)  -->
<svg version="1.1" id="Layer_1" xmlns="http://www.w3.org/2000/svg" xmlns:xlink="http://www.w3.org/1999/xlink" x="0px" y="0px"
	 width="64px" height="64px" viewBox="0 0 64 64" enable-background="new 0 0 64 64" xml:space="preserve">
<linearGradient id="SVGID_1_" gradientUnits="userSpaceOnUse" x1="32" y1="2" x2="32" y2="62">
	<stop  offset="0" style="stop-color:#BC2AF7"/>
	<stop  offset="0.2161" style="stop-color:#B928F3"/>
	<stop  offset="0.4401" style="stop-color:#B121E6"/>
	<stop  offset="0.6677" style="stop-color:#A217D2"/>
	<stop  offset="0.8963" style="stop-color:#8E08B5"/>
	<stop  offset="0.9949" style="stop-color:#8400A6"/>
</linearGradient>
<path fill="url(#SVGID_1_)" d="M62,54c0,4.4-3.6,8-8,8H10c-4.4,0-8-3.6-8-8V10c0-4.4,3.6-8,8-8h44c4.4,0,8,3.6,8,8V54z"/>
<path fill="#FFFFFF" d="M49.947,17c-0.37,0-0.726,0.122-1.026,0.353l-8.941,6.797v-5.02c0-1.114-0.977-2.129-2.052-2.129
	c-0.37,0-0.727,0.122-1.029,0.353l-8.938,6.797v-5.02c0-1.114-0.977-2.129-2.054-2.129c-0.368,0-0.725,0.122-1.027,0.353
	l-12.018,9.141c-0.762,0.578-1.05,1.563-0.735,2.509c0.288,0.865,0.996,1.446,1.767,1.446c0.382,0,0.753-0.135,1.102-0.4
	l8.936-6.797v5.02c0,1.114,0.979,2.129,2.055,2.129c0.369,0,0.726-0.122,1.027-0.353l8.936-6.797v5.02
	c0,1.114,0.98,2.129,2.057,2.129c0.367,0,0.724-0.122,1.026-0.353l8.938-6.797v5.02c0,2.685,4.03,2.685,4.03,0v-9.143
	C52,18.016,51.02,17,49.947,17z"/>
<path fill="#FFFFFF" d="M49.947,33.551c-0.37,0-0.726,0.122-1.026,0.353L39.979,40.7v-5.02c0-1.114-0.977-2.129-2.052-2.129
	c-0.37,0-0.727,0.122-1.029,0.353L27.961,40.7v-5.02c0-1.114-0.977-2.129-2.054-2.129c-0.368,0-0.725,0.122-1.027,0.353
	l-12.018,9.14c-0.762,0.578-1.05,1.563-0.735,2.509C12.414,46.418,13.122,47,13.892,47c0.382,0,0.753-0.135,1.102-0.4l8.936-6.796
	v5.02c0,1.114,0.979,2.129,2.055,2.129c0.369,0,0.726-0.122,1.027-0.352l8.936-6.796v5.02c0,1.114,0.98,2.129,2.057,2.129
	c0.367,0,0.724-0.122,1.026-0.352l8.938-6.796v5.02c0,2.685,4.03,2.685,4.03,0v-9.142C52,34.566,51.02,33.551,49.947,33.551z"/>
</svg>
