<?xml version="1.0" encoding="utf-8"?>
<!-- Generator: Adobe Illustrator 19.0.0, SVG Export Plug-In . SVG Version: 6.00 Build 0)  -->
<svg version="1.1" id="Layer_1" xmlns="http://www.w3.org/2000/svg" xmlns:xlink="http://www.w3.org/1999/xlink" x="0px" y="0px"
	 width="64px" height="64px" viewBox="0 0 64 64" enable-background="new 0 0 64 64" xml:space="preserve">
<linearGradient id="SVGID_1_" gradientUnits="userSpaceOnUse" x1="32" y1="2" x2="32" y2="62">
	<stop  offset="0" style="stop-color:#BC2AF7"/>
	<stop  offset="0.2161" style="stop-color:#B928F3"/>
	<stop  offset="0.4401" style="stop-color:#B121E6"/>
	<stop  offset="0.6677" style="stop-color:#A217D2"/>
	<stop  offset="0.8963" style="stop-color:#8E08B5"/>
	<stop  offset="0.9949" style="stop-color:#8400A6"/>
</linearGradient>
<path fill="url(#SVGID_1_)" d="M62,54c0,4.4-3.6,8-8,8H10c-4.4,0-8-3.6-8-8V10c0-4.4,3.6-8,8-8h44c4.4,0,8,3.6,8,8V54z"/>
<path fill="#FFFFFF" d="M40.064,34.328h6.578c1.547,0,2.357-1.173,2.357-2.331s-0.811-2.331-2.357-2.331h-6.578
	c0.662-5.165,3.434-9.778,7.855-13.045c0.893-0.66,1.223-1.727,0.857-2.787c-0.506-1.466-2.164-2.091-3.412-1.163
	c-5.832,4.306-9.398,10.324-10.088,16.995h-6.219c-0.707-6.846-4.41-12.954-10.467-17.249c-1.281-0.907-2.947-0.259-3.438,1.213
	c-0.35,1.054-0.006,2.107,0.9,2.75c4.631,3.283,7.527,7.982,8.203,13.287h-6.898c-1.551,0-2.359,1.172-2.359,2.331
	s0.809,2.331,2.359,2.331h6.902c-0.678,5.291-3.561,9.981-8.172,13.264c-0.904,0.644-1.248,1.697-0.894,2.751
	c0.33,0.991,1.18,1.658,2.117,1.658c0.455,0,0.898-0.151,1.314-0.448c6.037-4.292,9.725-10.392,10.43-17.224h6.219
	c0.692,6.67,4.258,12.688,10.09,16.992c0.418,0.31,0.863,0.467,1.324,0.467c0.914,0,1.754-0.656,2.088-1.631
	c0.365-1.058,0.035-2.125-0.857-2.783C43.498,44.107,40.727,39.493,40.064,34.328z"/>
</svg>
