<?xml version="1.0" encoding="utf-8"?>
<!-- Generator: Adobe Illustrator 15.0.0, SVG Export Plug-In . SVG Version: 6.00 Build 0)  -->
<!DOCTYPE svg PUBLIC "-//W3C//DTD SVG 1.1//EN" "http://www.w3.org/Graphics/SVG/1.1/DTD/svg11.dtd" [
	<!ENTITY ns_flows "http://ns.adobe.com/Flows/1.0/">
	<!ENTITY ns_extend "http://ns.adobe.com/Extensibility/1.0/">
	<!ENTITY ns_ai "http://ns.adobe.com/AdobeIllustrator/10.0/">
	<!ENTITY ns_graphs "http://ns.adobe.com/Graphs/1.0/">
]>
<svg version="1.1" id="Layer_1" xmlns:x="&ns_extend;" xmlns:i="&ns_ai;" xmlns:graph="&ns_graphs;"
	 xmlns="http://www.w3.org/2000/svg" xmlns:xlink="http://www.w3.org/1999/xlink" xmlns:a="http://ns.adobe.com/AdobeSVGViewerExtensions/3.0/"
	 x="0px" y="0px" width="64px" height="64px" viewBox="0 0 64 64" enable-background="new 0 0 64 64" xml:space="preserve">
<linearGradient id="SVGID_1_" gradientUnits="userSpaceOnUse" x1="10.9365" y1="48.7646" x2="30.4531" y2="48.7646">
	<stop  offset="0" style="stop-color:#006B2B"/>
	<stop  offset="0.1825" style="stop-color:#077527"/>
	<stop  offset="0.4879" style="stop-color:#188E1A"/>
	<stop  offset="0.8765" style="stop-color:#35B807"/>
	<stop  offset="1" style="stop-color:#3FC700"/>
	<a:midPointStop  offset="0" style="stop-color:#006B2B"/>
	<a:midPointStop  offset="0.5939" style="stop-color:#006B2B"/>
	<a:midPointStop  offset="1" style="stop-color:#3FC700"/>
</linearGradient>
<path fill="url(#SVGID_1_)" d="M17.176,56.475h13.277v-15.42H11.626c0,0-0.641,5.389-0.685,7.195
	C10.743,56.369,17.176,56.475,17.176,56.475z"/>
<linearGradient id="SVGID_2_" gradientUnits="userSpaceOnUse" x1="19.457" y1="24.4497" x2="6.7068" y2="44.8666">
	<stop  offset="0" style="stop-color:#47DE00"/>
	<stop  offset="0.385" style="stop-color:#46DB00"/>
	<stop  offset="0.6165" style="stop-color:#43D300"/>
	<stop  offset="0.8074" style="stop-color:#3EC500"/>
	<stop  offset="0.9753" style="stop-color:#36B100"/>
	<stop  offset="1" style="stop-color:#35AD00"/>
	<a:midPointStop  offset="0" style="stop-color:#47DE00"/>
	<a:midPointStop  offset="0.8" style="stop-color:#47DE00"/>
	<a:midPointStop  offset="1" style="stop-color:#35AD00"/>
</linearGradient>
<path fill="url(#SVGID_2_)" d="M20.285,34.582l6.096,3.52L18.35,23.863L2,24.027l6.098,3.518L3.205,36.02
	c-0.496,0.859-1.019,2.248-0.295,3.504l8.308,14.389c1.488,2.578,4.079,2.563,5.958,2.563c0,0-8.52-1.75-3.074-11.184L20.285,34.582
	z"/>
<linearGradient id="SVGID_3_" gradientUnits="userSpaceOnUse" x1="47.4502" y1="24.918" x2="56.7002" y2="42.168">
	<stop  offset="0" style="stop-color:#3FC700"/>
	<stop  offset="0.1235" style="stop-color:#35B807"/>
	<stop  offset="0.5121" style="stop-color:#188E1A"/>
	<stop  offset="0.8175" style="stop-color:#077527"/>
	<stop  offset="1" style="stop-color:#006B2B"/>
	<a:midPointStop  offset="0" style="stop-color:#3FC700"/>
	<a:midPointStop  offset="0.4061" style="stop-color:#3FC700"/>
	<a:midPointStop  offset="1" style="stop-color:#006B2B"/>
</linearGradient>
<path fill="url(#SVGID_3_)" d="M60.568,32.635l-6.641-11.499l-13.352,7.71L49.99,45.15c0,0,4.984-2.139,6.57-3.004
	C63.693,38.26,60.568,32.635,60.568,32.635z"/>
<linearGradient id="SVGID_4_" gradientUnits="userSpaceOnUse" x1="31.7402" y1="47.3174" x2="62" y2="47.3174">
	<stop  offset="0" style="stop-color:#47DE00"/>
	<stop  offset="0.385" style="stop-color:#46DB00"/>
	<stop  offset="0.6165" style="stop-color:#43D300"/>
	<stop  offset="0.8074" style="stop-color:#3EC500"/>
	<stop  offset="0.9753" style="stop-color:#36B100"/>
	<stop  offset="1" style="stop-color:#35AD00"/>
	<a:midPointStop  offset="0" style="stop-color:#47DE00"/>
	<a:midPointStop  offset="0.8" style="stop-color:#47DE00"/>
	<a:midPointStop  offset="1" style="stop-color:#35AD00"/>
</linearGradient>
<path fill="url(#SVGID_4_)" d="M40.055,40.887v-7.035L31.74,47.926L40.057,62v-7.039h9.781c0.992,0,2.459-0.242,3.184-1.496
	l8.306-14.387c1.487-2.58,0.181-4.816-0.759-6.443c0,0,2.742,8.252-8.147,8.252H40.055z"/>
<linearGradient id="SVGID_5_" gradientUnits="userSpaceOnUse" x1="18.8818" y1="21.0947" x2="28.7988" y2="4.5947">
	<stop  offset="0" style="stop-color:#3FC700"/>
	<stop  offset="0.1235" style="stop-color:#35B807"/>
	<stop  offset="0.5121" style="stop-color:#188E1A"/>
	<stop  offset="0.8175" style="stop-color:#077527"/>
	<stop  offset="1" style="stop-color:#006B2B"/>
	<a:midPointStop  offset="0" style="stop-color:#3FC700"/>
	<a:midPointStop  offset="0.4061" style="stop-color:#3FC700"/>
	<a:midPointStop  offset="1" style="stop-color:#006B2B"/>
</linearGradient>
<path fill="url(#SVGID_5_)" d="M18.898,5.878l-6.641,11.499l13.354,7.709L35.025,8.78c0,0-4.346-3.248-5.886-4.188
	C22.204,0.361,18.898,5.878,18.898,5.878z"/>
<linearGradient id="SVGID_6_" gradientUnits="userSpaceOnUse" x1="45.6602" y1="23.7275" x2="33.9933" y2="2.3933">
	<stop  offset="0" style="stop-color:#47DE00"/>
	<stop  offset="0.385" style="stop-color:#46DB00"/>
	<stop  offset="0.6165" style="stop-color:#43D300"/>
	<stop  offset="0.8074" style="stop-color:#3EC500"/>
	<stop  offset="0.9753" style="stop-color:#36B100"/>
	<stop  offset="1" style="stop-color:#35AD00"/>
	<a:midPointStop  offset="0" style="stop-color:#47DE00"/>
	<a:midPointStop  offset="0.8" style="stop-color:#47DE00"/>
	<a:midPointStop  offset="1" style="stop-color:#35AD00"/>
</linearGradient>
<path fill="url(#SVGID_6_)" d="M36.3,19.519l-6.094,3.52l16.347,0.161l8.031-14.24l-6.096,3.521l-4.891-8.473
	C43.102,3.148,42.157,2,40.71,2H24.097c-2.979,0-4.261,2.252-5.198,3.878c0,0,5.773-6.502,11.221,2.931L36.3,19.519z"/>
</svg>
