<?xml version="1.0" encoding="utf-8"?>
<!-- Generator: Adobe Illustrator 19.0.0, SVG Export Plug-In . SVG Version: 6.00 Build 0)  -->
<svg version="1.1" id="Layer_1" xmlns="http://www.w3.org/2000/svg" xmlns:xlink="http://www.w3.org/1999/xlink" x="0px" y="0px"
	 width="64px" height="64px" viewBox="0 0 64 64" enable-background="new 0 0 64 64" xml:space="preserve">
<linearGradient id="SVGID_1_" gradientUnits="userSpaceOnUse" x1="32" y1="2" x2="32" y2="62">
	<stop  offset="0" style="stop-color:#BC2AF7"/>
	<stop  offset="0.2161" style="stop-color:#B928F3"/>
	<stop  offset="0.4401" style="stop-color:#B121E6"/>
	<stop  offset="0.6677" style="stop-color:#A217D2"/>
	<stop  offset="0.8963" style="stop-color:#8E08B5"/>
	<stop  offset="0.9949" style="stop-color:#8400A6"/>
</linearGradient>
<path fill="url(#SVGID_1_)" d="M62,54c0,4.4-3.6,8-8,8H10c-4.4,0-8-3.6-8-8V10c0-4.4,3.6-8,8-8h44c4.4,0,8,3.6,8,8V54z"/>
<path fill="#FFFFFF" d="M49.969,32.139c-0.032-0.045-0.064-0.091-0.1-0.139c0.034-0.046,0.067-0.093,0.1-0.14
	c2.716-3.879,3.268-7.514,1.554-10.236c-1.573-2.498-4.9-3.874-9.368-3.874c-0.633,0-1.298,0.03-2.023,0.093
	C38.044,13.749,35.165,11.5,32,11.5c-3.165,0-6.044,2.249-8.133,6.343c-0.725-0.063-1.39-0.093-2.023-0.093
	c-4.468,0-7.794,1.376-9.367,3.874c-1.714,2.721-1.163,6.356,1.554,10.237l0.1,0.137c-0.034,0.046-0.068,0.093-0.101,0.141
	c-2.716,3.881-3.268,7.517-1.553,10.238c1.573,2.498,4.9,3.873,9.368,3.873c0.627,0,1.307-0.031,2.022-0.092
	C25.956,50.251,28.835,52.5,32,52.5c3.165,0,6.044-2.249,8.133-6.342c0.716,0.062,1.395,0.092,2.023,0.092
	c4.468,0,7.794-1.375,9.367-3.873C53.238,39.655,52.686,36.019,49.969,32.139z M42.156,44.104c-0.351,0-0.718-0.01-1.096-0.03
	c0.597-1.54,1.073-3.229,1.418-5.032c2.34-1.629,4.337-3.384,5.947-5.224c1.928,2.953,2.346,5.585,1.17,7.454
	C48.446,43.098,45.804,44.104,42.156,44.104z M31.998,44.359c1.955,0.675,3.88,1.176,5.738,1.492
	c-1.62,2.843-3.64,4.399-5.736,4.399c-2.097,0-4.117-1.556-5.736-4.399C28.12,45.534,30.045,45.033,31.998,44.359z M21.844,19.896
	c0.348,0,0.715,0.01,1.096,0.031c-0.597,1.541-1.073,3.229-1.418,5.031c-2.336,1.626-4.333,3.38-5.948,5.224
	c-1.928-2.954-2.345-5.586-1.168-7.453C15.555,20.902,18.197,19.896,21.844,19.896z M32,19.641
	c-1.951-0.674-3.876-1.174-5.737-1.491c1.62-2.844,3.64-4.399,5.737-4.399c2.098,0,4.119,1.556,5.737,4.4
	C35.881,18.466,33.955,18.966,32,19.641z M42.156,19.896c3.646,0,6.288,1.006,7.439,2.833c1.17,1.858,0.763,4.473-1.171,7.45
	c-1.612-1.842-3.609-3.595-5.945-5.221c-0.345-1.802-0.821-3.491-1.418-5.031C41.442,19.907,41.808,19.896,42.156,19.896z
	 M42.923,28.003c1.601,1.268,2.99,2.608,4.143,3.997c-1.15,1.388-2.54,2.728-4.143,3.998c0.134-1.306,0.202-2.646,0.202-3.998
	C43.125,30.648,43.057,29.308,42.923,28.003z M40.875,32c0,1.981-0.158,3.937-0.471,5.814c-1.106,0.731-2.256,1.414-3.421,2.031
	c-1.57,0.831-3.246,1.575-4.983,2.215c-1.738-0.64-3.414-1.384-4.983-2.215c-1.167-0.618-2.317-1.301-3.421-2.031
	c-0.313-1.883-0.471-3.837-0.471-5.814c0-1.976,0.158-3.931,0.471-5.814c1.108-0.733,2.257-1.416,3.421-2.03
	c1.569-0.831,3.245-1.575,4.983-2.215c1.738,0.64,3.413,1.385,4.983,2.215c1.166,0.616,2.315,1.299,3.42,2.03
	C40.717,28.063,40.875,30.018,40.875,32z M38.076,22.28c-0.926-0.49-1.875-0.949-2.833-1.371c1.196-0.321,2.363-0.566,3.484-0.731
	c0.395,0.941,0.741,1.959,1.034,3.042C39.206,22.894,38.643,22.58,38.076,22.28z M28.758,20.908
	c-0.959,0.422-1.909,0.881-2.834,1.372c-0.573,0.304-1.137,0.619-1.685,0.94c0.294-1.081,0.64-2.1,1.035-3.042
	C26.397,20.343,27.564,20.588,28.758,20.908z M21.077,35.998c-1.601-1.269-2.99-2.609-4.143-3.998
	c1.152-1.389,2.541-2.729,4.143-3.998c-0.134,1.309-0.202,2.649-0.202,3.998C20.875,33.349,20.943,34.689,21.077,35.998z
	 M15.575,33.818c1.61,1.841,3.607,3.596,5.947,5.224c0.345,1.803,0.821,3.491,1.418,5.031c-0.377,0.02-0.744,0.03-1.096,0.03
	c-3.647,0-6.288-1.006-7.439-2.833C13.229,39.403,13.646,36.772,15.575,33.818z M25.924,41.721c0.929,0.491,1.877,0.95,2.833,1.371
	c-1.193,0.32-2.359,0.565-3.484,0.732c-0.394-0.943-0.741-1.962-1.034-3.042C24.793,41.106,25.356,41.421,25.924,41.721z
	 M35.241,43.092c0.958-0.421,1.907-0.88,2.835-1.371c0.573-0.304,1.137-0.619,1.684-0.939c-0.294,1.082-0.64,2.1-1.034,3.042
	C37.601,43.657,36.434,43.412,35.241,43.092z"/>
<circle fill="#FFFFFF" cx="32" cy="32" r="3.75"/>
</svg>
