<?xml version="1.0" encoding="utf-8"?>
<!-- Generator: Adobe Illustrator 19.0.0, SVG Export Plug-In . SVG Version: 6.00 Build 0)  -->
<svg version="1.1" id="Layer_1" xmlns="http://www.w3.org/2000/svg" xmlns:xlink="http://www.w3.org/1999/xlink" x="0px" y="0px"
	 width="64px" height="64px" viewBox="0 0 64 64" enable-background="new 0 0 64 64" xml:space="preserve">
<radialGradient id="SVGID_1_" cx="32.0007" cy="41.789" r="4.5736" gradientUnits="userSpaceOnUse">
	<stop  offset="0.0102" style="stop-color:#FFE12C"/>
	<stop  offset="0.2239" style="stop-color:#FEDA24"/>
	<stop  offset="0.5519" style="stop-color:#FBC50F"/>
	<stop  offset="0.7321" style="stop-color:#F9B700"/>
	<stop  offset="0.891" style="stop-color:#F7AA01"/>
	<stop  offset="1" style="stop-color:#F59E01"/>
</radialGradient>
<path fill="url(#SVGID_1_)" d="M29.191,35.963v10.131c0,0,2.298,0.018,2.81,1.521c0.511-1.504,2.809-1.521,2.809-1.521V35.963
	H29.191z"/>
<radialGradient id="SVGID_2_" cx="32.0012" cy="55.0264" r="6.6825" gradientUnits="userSpaceOnUse">
	<stop  offset="0.0102" style="stop-color:#FFE12C"/>
	<stop  offset="0.2239" style="stop-color:#FEDA24"/>
	<stop  offset="0.5519" style="stop-color:#FBC50F"/>
	<stop  offset="0.7321" style="stop-color:#F9B700"/>
	<stop  offset="0.891" style="stop-color:#F7AA01"/>
	<stop  offset="1" style="stop-color:#F59E01"/>
</radialGradient>
<path fill="url(#SVGID_2_)" d="M35.856,52.168c-0.214-0.973,0.895-3.438-1.279-4.035C32.855,47.658,32,49.447,32,49.447
	s-0.854-1.789-2.578-1.314c-2.174,0.598-1.063,3.063-1.277,4.035c-0.543,2.469-2.522,2.469-2.522,2.469s0.951,1.619,2.511,1.619
	c1.13,0,1.439-0.695,1.439-0.695C29.33,58.256,32,62,32,62s2.669-3.744,2.428-6.439c0,0,0.31,0.695,1.44,0.695
	c1.559,0,2.511-1.619,2.511-1.619S36.398,54.637,35.856,52.168z"/>
<radialGradient id="SVGID_3_" cx="48.9843" cy="40.014" r="15.8522" gradientTransform="matrix(0.7349 0.6782 -1.3563 1.4698 67.2567 -52.0189)" gradientUnits="userSpaceOnUse">
	<stop  offset="0" style="stop-color:#F59E01"/>
	<stop  offset="0.1639" style="stop-color:#F7AA01"/>
	<stop  offset="0.4029" style="stop-color:#F9B700"/>
	<stop  offset="0.5494" style="stop-color:#FBC50F"/>
	<stop  offset="0.816" style="stop-color:#FEDA24"/>
	<stop  offset="0.9898" style="stop-color:#FFE12C"/>
</radialGradient>
<path fill="url(#SVGID_3_)" d="M44.597,25.817c-12.52,6.973-9.953,26.325-1.575,29.55c11.995,4.619,11.575-14.906,3.787-12.813
	c4.946,8.6-8.943,10.143-6.526-2.791c2.063-11.023,18.732-9.762,14.832,5.529C68.695,42.67,60.603,16.906,44.597,25.817z"/>
<radialGradient id="SVGID_4_" cx="15.0164" cy="40.014" r="14.619" gradientTransform="matrix(0.7349 -0.6782 1.3563 1.4698 -50.2911 -8.6162)" gradientUnits="userSpaceOnUse">
	<stop  offset="0" style="stop-color:#F59E01"/>
	<stop  offset="0.1639" style="stop-color:#F7AA01"/>
	<stop  offset="0.4029" style="stop-color:#F9B700"/>
	<stop  offset="0.5494" style="stop-color:#FBC50F"/>
	<stop  offset="0.816" style="stop-color:#FEDA24"/>
	<stop  offset="0.9898" style="stop-color:#FFE12C"/>
</radialGradient>
<path fill="url(#SVGID_4_)" d="M19.404,25.817c12.521,6.973,9.952,26.325,1.575,29.55C8.984,59.986,9.404,40.461,17.192,42.555
	c-4.947,8.6,8.943,10.143,6.526-2.791c-2.062-11.023-18.732-9.762-14.834,5.529C-4.696,42.67,3.398,16.906,19.404,25.817z"/>
<radialGradient id="SVGID_5_" cx="31.9993" cy="22.299" r="15.4504" gradientTransform="matrix(1 0 0 2 0 -22.299)" gradientUnits="userSpaceOnUse">
	<stop  offset="0.0102" style="stop-color:#FFE12C"/>
	<stop  offset="0.2239" style="stop-color:#FEDA24"/>
	<stop  offset="0.5519" style="stop-color:#FBC50F"/>
	<stop  offset="0.7321" style="stop-color:#F9B700"/>
	<stop  offset="0.891" style="stop-color:#F7AA01"/>
	<stop  offset="1" style="stop-color:#F59E01"/>
</radialGradient>
<path fill="url(#SVGID_5_)" d="M32,2c0,0-8.949,10.055-8.019,19.962c0.764,8.146,5.902,14.384,5.902,19.374
	c0,0,1.492,0.014,2.116,1.262c0.624-1.248,2.116-1.262,2.116-1.262c0-4.99,5.14-11.229,5.902-19.374C40.948,12.053,32,2,32,2z"/>
<linearGradient id="SVGID_6_" gradientUnits="userSpaceOnUse" x1="36.0422" y1="2" x2="36.0422" y2="42.598">
	<stop  offset="0.3211" style="stop-color:#F9B700"/>
	<stop  offset="0.5552" style="stop-color:#F7AA01"/>
	<stop  offset="0.7157" style="stop-color:#F59E01"/>
	<stop  offset="0.7853" style="stop-color:#EF9903"/>
	<stop  offset="0.874" style="stop-color:#E08B0A"/>
	<stop  offset="0.9728" style="stop-color:#C67415"/>
	<stop  offset="0.9877" style="stop-color:#C17017"/>
</linearGradient>
<path fill="url(#SVGID_6_)" d="M32,2l-0.001,40.598c0.624-1.248,2.116-1.262,2.116-1.262c0-4.99,5.14-11.229,5.902-19.374
	C40.948,12.053,32,2,32,2z"/>
<linearGradient id="SVGID_7_" gradientUnits="userSpaceOnUse" x1="33.4047" y1="37" x2="33.4047" y2="47.615">
	<stop  offset="0.229" style="stop-color:#F9B700"/>
	<stop  offset="0.3964" style="stop-color:#F7AA01"/>
	<stop  offset="0.5112" style="stop-color:#F59E01"/>
	<stop  offset="0.6331" style="stop-color:#EF9903"/>
	<stop  offset="0.7886" style="stop-color:#E08B0A"/>
	<stop  offset="0.9616" style="stop-color:#C67415"/>
	<stop  offset="0.9877" style="stop-color:#C17017"/>
</linearGradient>
<path fill="url(#SVGID_7_)" d="M32,37v10.615c0.511-1.504,2.809-1.521,2.809-1.521V37H32z"/>
<linearGradient id="SVGID_8_" gradientUnits="userSpaceOnUse" x1="35.1897" y1="48.0528" x2="35.1897" y2="62">
	<stop  offset="0.229" style="stop-color:#F9B700"/>
	<stop  offset="0.5238" style="stop-color:#F7AA01"/>
	<stop  offset="0.726" style="stop-color:#F59E01"/>
	<stop  offset="0.7929" style="stop-color:#EF9903"/>
	<stop  offset="0.8783" style="stop-color:#E08B0A"/>
	<stop  offset="0.9734" style="stop-color:#C67415"/>
	<stop  offset="0.9877" style="stop-color:#C17017"/>
</linearGradient>
<path fill="url(#SVGID_8_)" d="M35.856,52.168c-0.214-0.973,0.895-3.438-1.279-4.035C32.855,47.658,32,49.447,32,49.447V62
	c0,0,2.669-3.744,2.428-6.439c0,0,0.31,0.695,1.44,0.695c1.559,0,2.511-1.619,2.511-1.619S36.398,54.637,35.856,52.168z"/>
<linearGradient id="SVGID_9_" gradientUnits="userSpaceOnUse" x1="44.1655" y1="42.611" x2="44.1655" y2="56.2179">
	<stop  offset="0" style="stop-color:#F9B700"/>
	<stop  offset="0.4306" style="stop-color:#F7AA01"/>
	<stop  offset="0.726" style="stop-color:#F59E01"/>
	<stop  offset="0.7929" style="stop-color:#EF9903"/>
	<stop  offset="0.8783" style="stop-color:#E08B0A"/>
	<stop  offset="0.9734" style="stop-color:#C67415"/>
	<stop  offset="0.9877" style="stop-color:#C17017"/>
</linearGradient>
<path fill="url(#SVGID_9_)" d="M35.968,42.611c0.288,5.873,2.986,11.348,7.034,12.906c8.688,3.346,10.856-6.127,8.436-10.725
	C53.292,55.084,39.71,59.232,35.968,42.611z"/>
<linearGradient id="SVGID_10_" gradientUnits="userSpaceOnUse" x1="48.9581" y1="28.622" x2="48.9581" y2="45.292">
	<stop  offset="0.229" style="stop-color:#F9B700"/>
	<stop  offset="0.394" style="stop-color:#F7AA01"/>
	<stop  offset="0.5072" style="stop-color:#F59E01"/>
	<stop  offset="0.6301" style="stop-color:#EF9903"/>
	<stop  offset="0.7869" style="stop-color:#E08B0A"/>
	<stop  offset="0.9614" style="stop-color:#C67415"/>
	<stop  offset="0.9877" style="stop-color:#C17017"/>
</linearGradient>
<path fill="url(#SVGID_10_)" d="M44.78,30.068c-4.034,2.217-4.986,7.449-4.498,9.695c2.007-10.726,18.659-9.476,14.832,5.529
	C61.374,38.813,55.914,23.952,44.78,30.068z"/>
<linearGradient id="SVGID_11_" gradientUnits="userSpaceOnUse" x1="19.8357" y1="42.611" x2="19.8357" y2="56.2179">
	<stop  offset="0" style="stop-color:#F9B700"/>
	<stop  offset="0.4306" style="stop-color:#F7AA01"/>
	<stop  offset="0.726" style="stop-color:#F59E01"/>
	<stop  offset="0.7929" style="stop-color:#EF9903"/>
	<stop  offset="0.8783" style="stop-color:#E08B0A"/>
	<stop  offset="0.9734" style="stop-color:#C67415"/>
	<stop  offset="0.9877" style="stop-color:#C17017"/>
</linearGradient>
<path fill="url(#SVGID_11_)" d="M28.033,42.611c-0.288,5.873-2.987,11.348-7.034,12.906c-8.688,3.346-10.857-6.127-8.436-10.725
	C10.708,55.084,24.291,59.232,28.033,42.611z"/>
<linearGradient id="SVGID_12_" gradientUnits="userSpaceOnUse" x1="15.0418" y1="28.622" x2="15.0418" y2="45.293">
	<stop  offset="0.229" style="stop-color:#F9B700"/>
	<stop  offset="0.4619" style="stop-color:#F7AA01"/>
	<stop  offset="0.6217" style="stop-color:#F59E01"/>
	<stop  offset="0.7153" style="stop-color:#EF9903"/>
	<stop  offset="0.8347" style="stop-color:#E08B0A"/>
	<stop  offset="0.9676" style="stop-color:#C67415"/>
	<stop  offset="0.9877" style="stop-color:#C17017"/>
</linearGradient>
<path fill="url(#SVGID_12_)" d="M19.22,30.068c4.034,2.217,4.985,7.449,4.498,9.695c-2.008-10.725-18.659-9.475-14.834,5.53
	C2.626,38.813,8.086,23.952,19.22,30.068z"/>
<radialGradient id="SVGID_13_" cx="32.0845" cy="29.1815" r="21.2626" gradientTransform="matrix(0.9988 -0.0481 0.0816 1.6964 -2.3444 -18.779)" gradientUnits="userSpaceOnUse">
	<stop  offset="0.0102" style="stop-color:#FFE12C"/>
	<stop  offset="0.184" style="stop-color:#FEDA24"/>
	<stop  offset="0.4506" style="stop-color:#FBC50F"/>
	<stop  offset="0.5971" style="stop-color:#F9B700"/>
	<stop  offset="0.8361" style="stop-color:#F7AA01"/>
	<stop  offset="1" style="stop-color:#F59E01"/>
</radialGradient>
<path fill="url(#SVGID_13_)" d="M42.25,42h-0.002h-0.642c1.685,0,1.685-3.637,0-3.637c0.001,0,0.001,0,0.001,0h0.643
	c0.828,0,0.828-1.818,0-1.818h-0.002H21.752c-0.828,0-0.828,1.818,0,1.818h0.64l0,0c-1.67,0.003-1.679,3.584-0.03,3.632
	c0.011,0,0.019,0.004,0.03,0.004h-0.64c-0.828,0-0.828,1.818,0,1.818H42.25C43.078,43.818,43.078,42,42.25,42z"/>
<path fill="#FFE463" d="M28.394,50.002c0.054,0.502,0.763-0.48,1.482-1.324C30.34,48.135,28.231,48.492,28.394,50.002z"/>
<path fill="#FFE463" d="M23.424,47.07c0.139-0.715-0.846,2.533-4.452,2.635C17.948,49.734,22.624,51.18,23.424,47.07z"/>
<path fill="#FFE463" d="M48.193,46.756c-0.104-0.658,0.061,2.381-2.988,2.902C44.339,49.805,48.779,50.547,48.193,46.756z"/>
<linearGradient id="SVGID_14_" gradientUnits="userSpaceOnUse" x1="36.2546" y1="38.363" x2="36.2546" y2="42">
	<stop  offset="0.229" style="stop-color:#F9B700"/>
	<stop  offset="0.6475" style="stop-color:#F7AA01"/>
	<stop  offset="0.9346" style="stop-color:#F59E01"/>
</linearGradient>
<path fill="url(#SVGID_14_)" d="M41.606,42H29.639c13.232,0,11.967-3.637,11.967-3.637C43.291,38.363,43.291,42,41.606,42z"/>
<linearGradient id="SVGID_15_" gradientUnits="userSpaceOnUse" x1="35.0292" y1="42" x2="35.0292" y2="43.818">
	<stop  offset="0.229" style="stop-color:#F9B700"/>
	<stop  offset="0.6475" style="stop-color:#F7AA01"/>
	<stop  offset="0.9346" style="stop-color:#F59E01"/>
</linearGradient>
<path fill="url(#SVGID_15_)" d="M42.25,43.818H27.187C44.49,43.818,42.25,42,42.25,42C43.078,42,43.078,43.818,42.25,43.818z"/>
<linearGradient id="SVGID_16_" gradientUnits="userSpaceOnUse" x1="35.0292" y1="36.545" x2="35.0292" y2="38.363">
	<stop  offset="0.229" style="stop-color:#F9B700"/>
	<stop  offset="0.6475" style="stop-color:#F7AA01"/>
	<stop  offset="0.9346" style="stop-color:#F59E01"/>
</linearGradient>
<path fill="url(#SVGID_16_)" d="M42.25,38.363H27.187c17.303,0,15.063-1.818,15.063-1.818C43.078,36.545,43.078,38.363,42.25,38.363
	z"/>
</svg>
