<?xml version="1.0" encoding="utf-8"?>
<!-- Generator: Adobe Illustrator 15.0.0, SVG Export Plug-In . SVG Version: 6.00 Build 0)  -->
<!DOCTYPE svg PUBLIC "-//W3C//DTD SVG 1.1//EN" "http://www.w3.org/Graphics/SVG/1.1/DTD/svg11.dtd" [
	<!ENTITY ns_flows "http://ns.adobe.com/Flows/1.0/">
	<!ENTITY ns_extend "http://ns.adobe.com/Extensibility/1.0/">
	<!ENTITY ns_ai "http://ns.adobe.com/AdobeIllustrator/10.0/">
	<!ENTITY ns_graphs "http://ns.adobe.com/Graphs/1.0/">
]>
<svg version="1.1" id="Layer_1" xmlns:x="&ns_extend;" xmlns:i="&ns_ai;" xmlns:graph="&ns_graphs;"
	 xmlns="http://www.w3.org/2000/svg" xmlns:xlink="http://www.w3.org/1999/xlink" xmlns:a="http://ns.adobe.com/AdobeSVGViewerExtensions/3.0/"
	 x="0px" y="0px" width="64px" height="64px" viewBox="0 0 64 64" enable-background="new 0 0 64 64" xml:space="preserve">
<linearGradient id="SVGID_1_" gradientUnits="userSpaceOnUse" x1="32.0005" y1="62" x2="32.0005" y2="2">
	<stop  offset="0" style="stop-color:#F9C802"/>
	<stop  offset="1" style="stop-color:#FFE12C"/>
	<a:midPointStop  offset="0" style="stop-color:#F9C802"/>
	<a:midPointStop  offset="0.5" style="stop-color:#F9C802"/>
	<a:midPointStop  offset="1" style="stop-color:#FFE12C"/>
</linearGradient>
<path fill="url(#SVGID_1_)" d="M5.9,62c-3.313,0-4.811-2.379-3.328-5.291L29.306,4.182c1.48-2.91,3.907-2.91,5.387,0l26.734,52.527
	C62.91,59.621,61.41,62,58.098,62H5.9z"/>
<path fill="#1A1626" d="M29.542,41.309l-1.086-11.166v-8.057c0-0.697,0.389-1.085,1.086-1.085h4.915
	c0.697,0,1.086,0.388,1.086,1.085v8.057l-1.086,11.166c-0.068,0.65-0.48,0.947-1.097,0.947h-2.72
	C30.023,42.256,29.611,41.959,29.542,41.309z M28.743,51.914V47.57c0-0.697,0.389-1.084,1.086-1.084h4.343
	c0.697,0,1.086,0.387,1.086,1.084v4.344c0,0.697-0.389,1.086-1.086,1.086h-4.343C29.131,53,28.743,52.611,28.743,51.914z"/>
</svg>
