<?xml version="1.0" encoding="utf-8"?>
<!-- Generator: Adobe Illustrator 15.0.0, SVG Export Plug-In . SVG Version: 6.00 Build 0)  -->
<!DOCTYPE svg PUBLIC "-//W3C//DTD SVG 1.1//EN" "http://www.w3.org/Graphics/SVG/1.1/DTD/svg11.dtd" [
	<!ENTITY ns_flows "http://ns.adobe.com/Flows/1.0/">
	<!ENTITY ns_extend "http://ns.adobe.com/Extensibility/1.0/">
	<!ENTITY ns_ai "http://ns.adobe.com/AdobeIllustrator/10.0/">
	<!ENTITY ns_graphs "http://ns.adobe.com/Graphs/1.0/">
]>
<svg version="1.1" id="Layer_1" xmlns:x="&ns_extend;" xmlns:i="&ns_ai;" xmlns:graph="&ns_graphs;"
	 xmlns="http://www.w3.org/2000/svg" xmlns:xlink="http://www.w3.org/1999/xlink" xmlns:a="http://ns.adobe.com/AdobeSVGViewerExtensions/3.0/"
	 x="0px" y="0px" width="64px" height="64px" viewBox="0 0 64 64" enable-background="new 0 0 64 64" xml:space="preserve">
<path fill="#474D2C" d="M52.458,31.708c0,0-5.141-9.206-5.844-10.218c-0.168-0.245-2.016-4.56-2.785-5.385
	c-0.176-0.053-6.211,9.135-7.443,9.437c4.773,7.202,14.889,16.539,20.457,19.232C56.72,43.595,52.458,31.708,52.458,31.708z"/>
<path fill="#737057" d="M34.874,27.281c1.563-1.454,8.604-1.438,8.826-2.916c0.111-0.74,3.125,1.708,3.125,1.708
	c-0.002-1.161-2.83-5.953-2.83-5.953c-0.402-0.598,0.189-2.68-0.166-4.015C43.583,16.03,36.146,24.64,34.874,27.281z"/>
<path fill="#737057" d="M19.483,20.527c-0.645,0.614-1.453,2.293-1.596,2.478c-0.584,0.766-3.926,6.732-4.443,8.752
	c-1.004,3.478-4.51,9.49-4.639,10.863c4.717-1.826,13.215-8.681,17.18-14.144C24.928,28.165,19.633,20.497,19.483,20.527z"/>
<path fill="#474D2C" d="M19.483,20.527c-0.281,1.045,0.254,2.738-0.08,3.189c0,0-3.051,3.89-3.035,4.815c0,0,2.393-1.768,2.5-1.173
	c0.213,1.19-3.26,5.932-3.047,6.448c0.863,2.091,10.127-5.108,11.484-3.859C26.178,27.771,19.694,20.484,19.483,20.527z"/>
<linearGradient id="SVGID_1_" gradientUnits="userSpaceOnUse" x1="32.0005" y1="61.999" x2="32.0005" y2="12.0005">
	<stop  offset="0" style="stop-color:#288F28"/>
	<stop  offset="0.085" style="stop-color:#3F8636"/>
	<stop  offset="0.1981" style="stop-color:#567C45"/>
	<stop  offset="0.3198" style="stop-color:#66754F"/>
	<stop  offset="0.4549" style="stop-color:#707155"/>
	<stop  offset="0.6303" style="stop-color:#737057"/>
	<a:midPointStop  offset="0" style="stop-color:#288F28"/>
	<a:midPointStop  offset="0.2424" style="stop-color:#288F28"/>
	<a:midPointStop  offset="0.6303" style="stop-color:#737057"/>
</linearGradient>
<path fill="url(#SVGID_1_)" d="M35.8,16.698C34.81,14.025,34.009,12,33.858,12c-0.209,0-1.592,1.964-3.809,3.682
	C25.979,21.98,17.409,31.96,17.409,31.96c-4.787,5.459-9.928,12.393-15.371,18.867c-0.705,0.84,8.521,5.666,8.521,5.666l8.814,1.5
	c2.135,2.539,10.354,4.006,10.354,4.006l10.657-2.924c0,0,9.012-0.666,11.387-2.082c1.875-2.084,9.125-3.584,10.23-6.166
	L35.8,16.698z"/>
<polygon fill="#474D2C" points="29.405,25.088 21.86,30.68 19.795,36.516 5.415,49.278 21.538,39.95 23.801,32.573 "/>
<path fill="#3B5216" d="M10.559,56.493l8.814,1.5c0,0-2.418-9.508,0-12.08C13.573,48.878,10.559,56.493,10.559,56.493z"/>
<linearGradient id="SVGID_2_" gradientUnits="userSpaceOnUse" x1="42.0859" y1="61.999" x2="42.0859" y2="12.0005">
	<stop  offset="0" style="stop-color:#1A5E1A"/>
	<stop  offset="0.0572" style="stop-color:#22591C"/>
	<stop  offset="0.2182" style="stop-color:#324E20"/>
	<stop  offset="0.3976" style="stop-color:#3C4722"/>
	<stop  offset="0.6303" style="stop-color:#3F4523"/>
	<a:midPointStop  offset="0" style="stop-color:#1A5E1A"/>
	<a:midPointStop  offset="0.2424" style="stop-color:#1A5E1A"/>
	<a:midPointStop  offset="0.6303" style="stop-color:#3F4523"/>
</linearGradient>
<path fill="url(#SVGID_2_)" d="M62.001,50.827c-0.234-2.795-4.594-6.795-7.203-11.648c-2.156-2.063-7.115-7.604-7.115-7.604
	s-7.08-11.35-9.814-14.624c-1.135-0.893-2.705-3.924-4.01-4.95c-0.107,5.012-0.983,6.325-2.284,11.448l4.584-4.916v10.125l-3.709-3
	l-4.508,7.574l-5.77,9.611l9.52-9.969L27.305,44.29l-1.32,8.529l7.641-8.529l-3.899,17.709l10.657-2.924V46.276l11.387,10.717
	L40.56,38.466l-0.727-6.123l9.689,7.68C49.522,40.022,55.31,50.368,62.001,50.827z"/>
</svg>
