<?xml version="1.0" encoding="utf-8"?>
<!-- Generator: Adobe Illustrator 15.0.0, SVG Export Plug-In . SVG Version: 6.00 Build 0)  -->
<!DOCTYPE svg PUBLIC "-//W3C//DTD SVG 1.1//EN" "http://www.w3.org/Graphics/SVG/1.1/DTD/svg11.dtd" [
	<!ENTITY ns_flows "http://ns.adobe.com/Flows/1.0/">
	<!ENTITY ns_extend "http://ns.adobe.com/Extensibility/1.0/">
	<!ENTITY ns_ai "http://ns.adobe.com/AdobeIllustrator/10.0/">
	<!ENTITY ns_graphs "http://ns.adobe.com/Graphs/1.0/">
]>
<svg version="1.1" id="Layer_1" xmlns:x="&ns_extend;" xmlns:i="&ns_ai;" xmlns:graph="&ns_graphs;"
	 xmlns="http://www.w3.org/2000/svg" xmlns:xlink="http://www.w3.org/1999/xlink" xmlns:a="http://ns.adobe.com/AdobeSVGViewerExtensions/3.0/"
	 x="0px" y="0px" width="64px" height="64px" viewBox="0 0 64 64" enable-background="new 0 0 64 64" xml:space="preserve">
<ellipse fill="#B3C2C6" cx="32" cy="61" rx="30" ry="1"/>
<linearGradient id="SVGID_1_" gradientUnits="userSpaceOnUse" x1="-121.4927" y1="45.0039" x2="-118.8965" y2="45.0039" gradientTransform="matrix(0.9659 0.2588 -0.2588 0.9659 154.5766 29.6994)">
	<stop  offset="0" style="stop-color:#EBBB96"/>
	<stop  offset="1" style="stop-color:#CF9770"/>
	<a:midPointStop  offset="0" style="stop-color:#EBBB96"/>
	<a:midPointStop  offset="0.5" style="stop-color:#EBBB96"/>
	<a:midPointStop  offset="1" style="stop-color:#CF9770"/>
</linearGradient>
<polygon fill="url(#SVGID_1_)" points="23.065,61.108 20.386,61.108 30.782,22.348 33.28,23.017 "/>
<linearGradient id="SVGID_2_" gradientUnits="userSpaceOnUse" x1="-121.4883" y1="40.4512" x2="-118.8994" y2="40.4512" gradientTransform="matrix(0.9659 0.2588 -0.2588 0.9659 154.5766 29.6994)">
	<stop  offset="0" style="stop-color:#CFD8DD"/>
	<stop  offset="1" style="stop-color:#99A8AE"/>
	<a:midPointStop  offset="0" style="stop-color:#CFD8DD"/>
	<a:midPointStop  offset="0.503" style="stop-color:#CFD8DD"/>
	<a:midPointStop  offset="1" style="stop-color:#99A8AE"/>
</linearGradient>
<polygon fill="url(#SVGID_2_)" points="28.369,41.33 25.87,40.661 27.657,34 30.155,34.67 "/>
<linearGradient id="SVGID_3_" gradientUnits="userSpaceOnUse" x1="-135.1875" y1="22.5688" x2="-135.1875" y2="-12.7378" gradientTransform="matrix(0.9659 0.2588 -0.2588 0.9659 154.5766 29.6994)">
	<stop  offset="0" style="stop-color:#B300AF"/>
	<stop  offset="1" style="stop-color:#F02BEB"/>
	<a:midPointStop  offset="0" style="stop-color:#B300AF"/>
	<a:midPointStop  offset="0.5" style="stop-color:#B300AF"/>
	<a:midPointStop  offset="1" style="stop-color:#F02BEB"/>
</linearGradient>
<path fill="url(#SVGID_3_)" d="M37.217,3.343C21.215-0.941,5.476,5.881,3.878,11.84c0,0,6.966,3.771,9.492,2.541
	C13.37,14.381,27.614,0.772,37.217,3.343z"/>
<linearGradient id="SVGID_4_" gradientUnits="userSpaceOnUse" x1="-105.187" y1="40.207" x2="-105.187" y2="4.916" gradientTransform="matrix(0.9659 0.2588 -0.2588 0.9659 154.5766 29.6994)">
	<stop  offset="0" style="stop-color:#CF0000"/>
	<stop  offset="1" style="stop-color:#FF000E"/>
	<a:midPointStop  offset="0" style="stop-color:#CF0000"/>
	<a:midPointStop  offset="0.5" style="stop-color:#CF0000"/>
	<a:midPointStop  offset="1" style="stop-color:#FF000E"/>
</linearGradient>
<path fill="url(#SVGID_4_)" d="M37.217,3.343c9.604,2.571,15.127,21.474,15.127,21.474c1.572,2.328,9.492,2.542,9.492,2.542
	C63.434,21.397,53.225,7.629,37.217,3.343z"/>
<path fill="#990095" d="M3.878,11.84c0,0-0.454,3.037,0.475,3.834c1.625,1.389,4.585,2.182,6.687,1.789
	c1.203-0.225,2.33-3.082,2.33-3.082L3.878,11.84z"/>
<path fill="#CF0000" d="M52.344,24.816c0,0-0.454,3.039,0.475,3.834c1.625,1.391,4.586,2.184,6.687,1.791
	c1.204-0.226,2.331-3.083,2.331-3.083L52.344,24.816z"/>
<linearGradient id="SVGID_5_" gradientUnits="userSpaceOnUse" x1="-130.2744" y1="22.46" x2="-130.2744" y2="-12.6289" gradientTransform="matrix(0.9659 0.2588 -0.2588 0.9659 154.5766 29.6994)">
	<stop  offset="0" style="stop-color:#1774FF"/>
	<stop  offset="1" style="stop-color:#55DAF2"/>
	<a:midPointStop  offset="0" style="stop-color:#1774FF"/>
	<a:midPointStop  offset="0.5" style="stop-color:#1774FF"/>
	<a:midPointStop  offset="1" style="stop-color:#55DAF2"/>
</linearGradient>
<path fill="url(#SVGID_5_)" d="M37.217,3.343c-9.602-2.57-22.25,5.078-23.847,11.038c0,0,9.332,4.157,12.184,3.262L37.217,3.343z"/>
<linearGradient id="SVGID_6_" gradientUnits="userSpaceOnUse" x1="-110.1001" y1="40.2119" x2="-110.1001" y2="4.916" gradientTransform="matrix(0.9659 0.2588 -0.2588 0.9659 154.5766 29.6994)">
	<stop  offset="0" style="stop-color:#FFAA00"/>
	<stop  offset="1" style="stop-color:#FFEA00"/>
	<a:midPointStop  offset="0" style="stop-color:#FFAA00"/>
	<a:midPointStop  offset="0.5" style="stop-color:#FFAA00"/>
	<a:midPointStop  offset="1" style="stop-color:#FFEA00"/>
</linearGradient>
<path fill="url(#SVGID_6_)" d="M37.217,3.343l2.943,18.212c1.708,2.364,12.184,3.262,12.184,3.262
	C53.941,18.854,46.824,5.914,37.217,3.343z"/>
<path fill="#006DAE" d="M13.37,14.381c0,0-0.456,3.037,0.476,3.834c1.624,1.391,7.058,2.844,9.284,2.484
	c1.275-0.205,2.424-3.057,2.424-3.057L13.37,14.381z"/>
<path fill="#FFAA00" d="M40.16,21.555c0,0-0.432,3.044,0.57,3.859c1.746,1.422,7.181,2.877,9.283,2.485
	c1.205-0.224,2.33-3.083,2.33-3.083L40.16,21.555z"/>
<path fill="#529320" d="M25.553,17.643c0,0-0.433,3.044,0.57,3.859c1.748,1.424,9.386,3.469,11.613,3.109
	c1.275-0.206,2.424-3.057,2.424-3.057C34.565,18.405,25.553,17.643,25.553,17.643z"/>
<linearGradient id="SVGID_7_" gradientUnits="userSpaceOnUse" x1="-120.1899" y1="21.7471" x2="-120.1899" y2="4.9155" gradientTransform="matrix(0.9659 0.2588 -0.2588 0.9659 154.5766 29.6994)">
	<stop  offset="0" style="stop-color:#52A100"/>
	<stop  offset="1" style="stop-color:#9BE323"/>
	<a:midPointStop  offset="0" style="stop-color:#52A100"/>
	<a:midPointStop  offset="0.5" style="stop-color:#52A100"/>
	<a:midPointStop  offset="1" style="stop-color:#9BE323"/>
</linearGradient>
<path fill="url(#SVGID_7_)" d="M37.217,3.343c0.002,0.001-8.625,2.973-11.664,14.3l14.607,3.912
	C43.197,10.229,37.217,3.343,37.217,3.343z"/>
<path fill="#302C3B" d="M40.723,4.481c-2.152-1.888-4.328-2.457-7.111-1.903C35.576,2.88,38.87,3.762,40.723,4.481z"/>
</svg>
