<?xml version="1.0" encoding="utf-8"?>
<!-- Generator: Adobe Illustrator 15.0.0, SVG Export Plug-In . SVG Version: 6.00 Build 0)  -->
<!DOCTYPE svg PUBLIC "-//W3C//DTD SVG 1.1//EN" "http://www.w3.org/Graphics/SVG/1.1/DTD/svg11.dtd" [
	<!ENTITY ns_flows "http://ns.adobe.com/Flows/1.0/">
	<!ENTITY ns_extend "http://ns.adobe.com/Extensibility/1.0/">
	<!ENTITY ns_ai "http://ns.adobe.com/AdobeIllustrator/10.0/">
	<!ENTITY ns_graphs "http://ns.adobe.com/Graphs/1.0/">
]>
<svg version="1.1" id="Layer_1" xmlns:x="&ns_extend;" xmlns:i="&ns_ai;" xmlns:graph="&ns_graphs;"
	 xmlns="http://www.w3.org/2000/svg" xmlns:xlink="http://www.w3.org/1999/xlink" xmlns:a="http://ns.adobe.com/AdobeSVGViewerExtensions/3.0/"
	 x="0px" y="0px" width="64px" height="64px" viewBox="0 0 64 64" enable-background="new 0 0 64 64" xml:space="preserve">
<path fill="#B88A6F" d="M27.15,22.462c-2.92,2.844-3.809,4.723-5.402,5.117c-2.447-0.203-6.574,0.578-7.35,0.586
	c-0.751,0.006-2.873-0.656-3.385-0.42c-2.174,0.996-2.449,0.91-3.238,2.09c-0.598,0.893,0.188,0.6,0.596,0.191
	c0.633-0.631,2.11-1.057,2.267-0.252c-1.655,0.143-1.944,1.252-1.331,1.158c1.58-0.248,2.547-0.057,3.383-0.799
	c0.338-0.299,1.762-0.34,4.916,0.262c2.771,0.527,4.516,0.742,5.484,0.742c1.637,0,7.115-5.852,7.115-5.852
	S31.145,14.345,27.15,22.462z"/>
<path fill="#B88A6F" d="M24.002,57.533c1.988-5.916,4.465-5.879,4.611-11.498c0.43-0.086,0.867-0.174,1.299-0.264
	c-0.369-2.602-1.51-3.98-3.26-5.055c-1.627,0.563-2.498,1.576-2.611,1.752c-0.662,1.041-0.309,6.305-3.248,14.074
	C20.553,57.178,23.895,57.854,24.002,57.533z"/>
<path fill="#3AB0A2" d="M21.734,61.604h2.529c0.371,0,0.158-0.607,0.158-0.607s-2.363-1.441-9.871-0.668
	C14.551,60.328,16.285,62.982,21.734,61.604z"/>
<path fill="#302C3B" d="M24.217,58.529c0.393-0.705,0.307-1.508,0.063-1.379c-0.469,0.246-2.379,0.143-2.77-0.125
	c0.469-1.521-0.68-1.941-0.73-1.475c-0.43,3.936-6.514,1.723-6.229,4.777c0,0,3.26,1.877,7.1,0.689l2.771-0.021
	C24.758,59.363,24.217,58.531,24.217,58.529z"/>
<path fill="#3AB0A2" d="M17.285,58.42c0.951,0.93,1.488,0.988,1.568,0.34c0.643,0.463,1.012,0.09,1.02-0.297
	c0.693,0.301,0.947-0.309,0.133-0.992C19.539,57.111,17.029,58.172,17.285,58.42z"/>
<path fill="#B88A6F" d="M53.457,46.756c-5.586-0.471-6.08-2.633-11.016-1.568c-0.168-0.355-0.336-0.715-0.506-1.072
	c-2.193,0.873-3.166,1.73-3.734,3.48c0.838,1.293,1.906,2.648,2.084,2.709c1.049,0.355,5.58-1.457,12.988-0.551
	C53.879,49.828,53.762,46.781,53.457,46.756z"/>
<path fill="#25A898" d="M34.715,40.445c0,0-0.736,7.654,4.43,9.723c0,0,3.332-0.438,3.561-5.947
	c-3.086-1.539,0.709-6.24-2.553-10.551L34.715,40.445z"/>
<path fill="#47D6C6" d="M42.705,44.221c-0.23,4.873-3.135,5.316-3.561,5.947c0.393,0.164,0.795,0.305,1.207,0.406
	c0,0,3.152-0.283,3.381-5.793C43.301,44.621,42.977,44.43,42.705,44.221z"/>
<path fill="#A3765A" d="M35.959,17.658c-3.254,8.578-6.857,12.063-6.523,1.838C30.578,19.308,32.963,16.908,35.959,17.658z"/>
<path fill="#3AB0A2" d="M40.564,33.648l-10.27,0.805c-0.875,1.686-3.549,3.762-5.158,6.109c0,0,0.818,2.889,6.867,4.645
	C34.379,41.313,44.385,41.314,40.564,33.648z"/>
<path fill="#47D6C6" d="M25.137,40.563c0,0-0.467,0.418-0.912,1.162c0,0,2.24,3.734,7.383,5.15c0.113-0.912,0.396-1.668,0.396-1.668
	C28.471,43.992,25.766,41.637,25.137,40.563z"/>
<path fill="#47D6C6" d="M39.873,33.713l-1.457-0.189c2.426,5.563-7.09,5.002-8.781,11.104c0,0,0.895,0.654,1.506,0.832
	C32.631,39.135,43.104,40.25,39.873,33.713z"/>
<path fill="#3AB0A2" d="M38.494,17.669c-0.477-0.861-2.98-0.158-3.172-0.029c-1.914,1.297-3.762,6.398-3.762,6.398
	c-0.234,0.043-2.459-1.18-0.979-4.781c0.357-0.867-1.439,0.291-1.439,0.291c-1.713,7.025,0.441,9.926,1.162,13.34
	c7.932,2.493,10.316-0.697,10.316-0.697S42.635,25.119,38.494,17.669z"/>
<path fill="#47D6C6" d="M35.23,17.705c-2.008,1.152-3.809,6.045-3.809,6.045c-0.236,0.045-1.604-1.688-0.672-4.857
	c-0.305-0.131-0.451,0.07-0.451,0.07c-1.449,5.09,1.316,5.902,1.316,5.902C32.707,22.634,34.031,18.703,35.23,17.705z"/>
<path fill="#47D6C6" d="M30.305,32.888c0.014,0.485,0.014,1-0.01,1.565c7.934,2.492,10.27-0.805,10.27-0.805
	s0.043-0.541,0.057-1.458C39.029,32.568,36.473,34.473,30.305,32.888z"/>
<path fill="#47D6C6" d="M40.814,23.123c1.25,5.801-2.58,6.66-4.666,1.107C33.215,16.417,39.109,15.22,40.814,23.123z"/>
<path fill="#B88A6F" d="M40.426,22.537c0.99,4.596-2.031,5.195-3.785,0.832C34.051,16.917,39.008,15.951,40.426,22.537z"/>
<radialGradient id="SVGID_1_" cx="15.4775" cy="72.0957" r="7.2104" gradientTransform="matrix(1.0548 0 0 1.0506 -6.8719 -35.0184)" gradientUnits="userSpaceOnUse">
	<stop  offset="0" style="stop-color:#FF8800"/>
	<stop  offset="0.2913" style="stop-color:#FC8500"/>
	<stop  offset="0.5282" style="stop-color:#F27E00"/>
	<stop  offset="0.7453" style="stop-color:#E17000"/>
	<stop  offset="0.9273" style="stop-color:#CC6000"/>
	<a:midPointStop  offset="0" style="stop-color:#FF8800"/>
	<a:midPointStop  offset="0.7476" style="stop-color:#FF8800"/>
	<a:midPointStop  offset="0.9273" style="stop-color:#CC6000"/>
</radialGradient>
<ellipse fill="url(#SVGID_1_)" cx="10.659" cy="42.283" rx="6.659" ry="6.631"/>
<path fill="#1A1626" d="M13.957,43.799c-2.453-0.809-4.566-1.506-5.402-3.182c-0.059-0.113-0.104-0.229-0.143-0.346
	c3.188-1.219,6.951-1.502,8.547-0.141c-0.057-0.162-0.119-0.32-0.184-0.475c-0.773-0.52-2.084-0.818-3.561-0.76
	c-1.539,0.063-3.297,0.441-4.885,1.039c-0.117-0.695,0.059-1.443,0.516-2.104c0.787-1.139,2.184-1.805,3.84-1.867
	c-0.205-0.064-0.416-0.121-0.627-0.166c-1.678,0.154-2.809,0.844-3.496,1.838c-0.525,0.758-0.715,1.625-0.559,2.426
	c-0.273,0.109-0.539,0.225-0.797,0.346c-0.191,0.092-0.375,0.184-0.553,0.279c-0.182-0.729-0.277-1.434-0.266-2.08
	c0.008-0.549,0.098-1.199,0.41-1.729c-0.148,0.105-0.295,0.219-0.434,0.338c-0.563,1.279-0.227,2.83-0.02,3.639
	c-0.348,0.197-0.664,0.4-0.943,0.609c-0.182-0.637-0.449-1.24-0.873-1.775c-0.055,0.125-0.105,0.252-0.148,0.381
	c0.346,0.492,0.57,1.043,0.723,1.625c-0.482,0.398-0.844,0.809-1.072,1.219c0.014,0.168,0.037,0.332,0.064,0.496
	c0.197-0.387,0.514-0.842,1.094-1.344c0.141,0.668,0.203,1.369,0.268,2.061c0.094,1.033,0.221,2.391,0.729,3.068
	c0.182,0.164,0.371,0.316,0.568,0.461c-0.709-0.869-0.824-2.148-0.953-3.561c-0.07-0.764-0.139-1.537-0.311-2.273
	c0.279-0.213,0.596-0.422,0.949-0.625c0.285,0.994,0.715,2.037,1.264,3.033c1.107,2.008,2.58,4.047,4.795,4.428
	c0.189-0.055,0.377-0.117,0.559-0.188c-0.422-0.006-0.865-0.119-1.326-0.346c-2.053-1.004-4.164-4.172-4.988-7.098
	c0.195-0.104,0.4-0.207,0.613-0.307c0.24-0.113,0.486-0.221,0.734-0.322c0.043,0.125,0.094,0.25,0.154,0.371
	c0.898,1.805,3.078,2.523,5.604,3.357c0.922,0.305,1.869,0.617,2.824,1.002c0.053-0.104,0.1-0.209,0.143-0.316
	C15.844,44.424,14.889,44.107,13.957,43.799z"/>
<radialGradient id="SVGID_2_" cx="568.5605" cy="6.25" r="4.8779" gradientTransform="matrix(0.3597 0.4654 -0.7956 0.61 -191.1028 -228.6484)" gradientUnits="userSpaceOnUse">
	<stop  offset="0" style="stop-color:#FFDADA"/>
	<stop  offset="1" style="stop-color:#FFDADA;stop-opacity:0"/>
	<a:midPointStop  offset="0" style="stop-color:#FFDADA"/>
	<a:midPointStop  offset="0.4857" style="stop-color:#FFDADA"/>
	<a:midPointStop  offset="1" style="stop-color:#FFDADA;stop-opacity:0"/>
</radialGradient>
<path opacity="0.5" fill="url(#SVGID_2_)" d="M10.191,42.041C8.047,43.684,5.523,44,4.555,42.746s-0.02-3.604,2.127-5.246
	c2.143-1.645,4.664-1.959,5.635-0.705C13.285,38.049,12.332,40.396,10.191,42.041z"/>
<path fill="#B88A6F" d="M36.6,18.33c-2.146,2.473,5.576,6.176,8.334,7.572c-1.451,1.805-4.607,7.231-4.969,7.064
	c-1.057-0.475-1.518-0.387-2.885,0.305c-0.381,0.189,0.068,0.795,0.068,0.795c-0.752,0.662,0.113,0.752,0.291,1.287
	c0.164,0.496,0.617,0.373,0.887,0.857c0.607,1.082,2.438-0.145,3.324-1.773c0.635-1.166,5.59-4.647,7.666-9.379
	C49.754,24.062,38.896,16.341,36.6,18.33z"/>
<path fill="#3AB0A2" d="M57.459,46.857l-1.182-2.24c-0.172-0.328-0.607,0.145-0.607,0.145s-0.17,2.766,4.021,9.053
	C59.691,53.814,61.225,51.037,57.459,46.857z"/>
<path fill="#302C3B" d="M53.586,46.096c-0.805-0.018-1.473,0.434-1.246,0.588c0.438,0.303,1.238,2.043,1.184,2.514
	c-1.563,0.295-1.395,1.508-0.959,1.334c3.674-1.459,4.564,4.961,7.127,3.283c0,0,0.135-3.764-2.709-6.609l-1.313-2.443
	C54.068,45.229,53.588,46.096,53.586,46.096z"/>
<path fill="#3AB0A2" d="M56.73,52.283c0.375-1.275,0.178-1.779-0.434-1.547c0.109-0.785-0.395-0.938-0.738-0.762
	c-0.059-0.756-0.715-0.695-0.938,0.344C54.521,50.9,56.631,52.627,56.73,52.283z"/>
<path fill="#A3765A" d="M28.811,18.337c1.271-0.605,2.199,1.232,2.633,3.178c1.467-1.99,2.411-3.475,4.544-4.096
	c-0.272-1.041-0.202-2.334-0.202-2.334C34.937,14.601,32.141,8.015,28.811,18.337z"/>
<path fill="#B88A6F" d="M29.85,3.166c-3.864,0.617-5.283,3.377-4.66,6.631c0.141,0.734-0.332,1.994-1.268,2.801
	c-0.34,0.295-0.373,0.684-0.205,0.943c0.324,0.512,1.042,0.516,1.342,0.707c0.669,0.428,0,0.898,0.502,1.4
	c0.229,0.23,0.885-0.074,0.192,1.139c0.771,0.564-0.516,1.922,1.469,2.131c1.041,0.109,5.444-2.373,5.995-3.23
	c0.576-0.9,0.44-2.563,0.44-2.563c2.966-0.855,4.015-3.445,3.374-6.154C36.138,3.181,32.354,2.765,29.85,3.166z"/>
<path fill="#8C5F44" d="M25.561,15.648c0.363,0.223,0.204,0.572,0.204,0.572c-0.174,0-0.218,0.578,0.04,0.578
	c0.906,0,1.736-0.777,2.009-1.248C26.396,15.48,24.841,14.839,25.561,15.648z"/>
<path fill="#FFFFFF" d="M25.561,15.648c0,0,0.14,0.496,0.204,0.572c0.284,0,1.208-0.203,1.776-0.578L25.561,15.648z"/>
<linearGradient id="SVGID_3_" gradientUnits="userSpaceOnUse" x1="25.0581" y1="7.2852" x2="35.8799" y2="7.2852">
	<stop  offset="0" style="stop-color:#6B4435"/>
	<stop  offset="0.5606" style="stop-color:#825644"/>
	<stop  offset="1" style="stop-color:#8F604D"/>
	<a:midPointStop  offset="0" style="stop-color:#6B4435"/>
	<a:midPointStop  offset="0.4303" style="stop-color:#6B4435"/>
	<a:midPointStop  offset="1" style="stop-color:#8F604D"/>
</linearGradient>
<path fill="url(#SVGID_3_)" d="M35.676,4.955C32.93,0.82,25.639,3.322,25.124,4.333c-0.185,0.365,0.046,1.266,0.347,1.846
	c1.158,0,3.455-0.969,5-0.242c2.287,1.076-0.31,5.727,1.801,5.979C32.604,11.955,36.85,7.011,35.676,4.955z"/>
<linearGradient id="SVGID_4_" gradientUnits="userSpaceOnUse" x1="25.124" y1="8.5425" x2="38.4785" y2="8.5425">
	<stop  offset="0" style="stop-color:#8F604D"/>
	<stop  offset="0.3616" style="stop-color:#8C5D4B"/>
	<stop  offset="0.659" style="stop-color:#825644"/>
	<stop  offset="0.9329" style="stop-color:#704839"/>
	<stop  offset="1" style="stop-color:#6B4435"/>
	<a:midPointStop  offset="0" style="stop-color:#8F604D"/>
	<a:midPointStop  offset="0.7455" style="stop-color:#8F604D"/>
	<a:midPointStop  offset="1" style="stop-color:#6B4435"/>
</linearGradient>
<path fill="url(#SVGID_4_)" d="M37.52,4.88C36.732,3.55,35.145,1.992,31.535,2c-3.258,0.008-5.896,1.322-6.411,2.334
	c1.196,0,4.831-1.525,6.729-0.105c2.955,2.207,0.379,5.207,1.076,7.094c1.09,2.951,2.855,3.764,2.855,3.764
	C38.053,13.447,39.555,8.32,37.52,4.88z"/>
<path fill="#8C5F44" d="M23.725,13.546c0.268,0.711,1.979,0.865,2.527,0C25.35,14.199,23.57,13.132,23.725,13.546z"/>
<path fill="#B88A6F" d="M33.67,9.525c-1.441,0.299-1.891,3.557-0.811,4.264c0.151,0.1,0.94,0.188,1.357-0.611
	c0.232-0.441,1.061-0.891,1.177-1.756C35.541,10.31,35.104,9.228,33.67,9.525z"/>
<path id="Path_2035_" fill="#8C5F44" d="M33.746,10.128c-0.365,0.125-0.711,0.549-0.816,1.193c1.299-0.352,1.24,1.107,0.086,1.281
	c0.037,0.141,0.08,0.287,0.138,0.436c0.46-0.586,1.067-0.451,1.479-1.291C35.006,10.988,34.654,9.82,33.746,10.128z"/>
<path fill="#FFFFFF" d="M28.357,10.771c0.02,0.207-0.64,0.959-1.479,1.029c-0.477,0.041-0.648-0.33-0.756-0.729
	C26.021,9.488,27.886,10.05,28.357,10.771z"/>
<linearGradient id="Path_1_" gradientUnits="userSpaceOnUse" x1="26.7588" y1="11.7363" x2="26.7588" y2="10.0664">
	<stop  offset="0" style="stop-color:#A6694A"/>
	<stop  offset="1" style="stop-color:#4F2A1E"/>
	<a:midPointStop  offset="0" style="stop-color:#A6694A"/>
	<a:midPointStop  offset="0.5" style="stop-color:#A6694A"/>
	<a:midPointStop  offset="1" style="stop-color:#4F2A1E"/>
</linearGradient>
<path id="Path_2034_" fill="url(#Path_1_)" d="M26.09,10.871c0,1.154,1.338,1.154,1.338,0C27.428,9.798,26.09,9.798,26.09,10.871z"
	/>
<path id="Path_2033_" fill="#1A1626" d="M26.23,10.82c0,0.576,0.666,0.576,0.666,0C26.896,10.283,26.23,10.283,26.23,10.82z"/>
<path id="Path_2032_" fill="#AB968C" d="M26.643,10.585c0,0.24,0.389,0.24,0.389,0C27.031,10.359,26.643,10.359,26.643,10.585z"/>
<path fill="#8C5F44" d="M28.357,10.771c-0.359-0.721-2.15-1.244-2.199-0.271C26.41,9.845,27.739,10.203,28.357,10.771z"/>
<path id="Path_2031_" fill="#78513A" d="M28.7,9.13c-0.822-0.512-2.396-0.537-2.98-0.18c-0.127,0.068-0.044,0.555,0.062,0.508
	C26.6,9.078,27.916,9.07,28.68,9.492C28.782,9.544,28.824,9.203,28.7,9.13z"/>
</svg>
