<?xml version="1.0" encoding="utf-8"?>
<!-- Generator: Adobe Illustrator 15.0.0, SVG Export Plug-In . SVG Version: 6.00 Build 0)  -->
<!DOCTYPE svg PUBLIC "-//W3C//DTD SVG 1.1//EN" "http://www.w3.org/Graphics/SVG/1.1/DTD/svg11.dtd" [
	<!ENTITY ns_flows "http://ns.adobe.com/Flows/1.0/">
	<!ENTITY ns_extend "http://ns.adobe.com/Extensibility/1.0/">
	<!ENTITY ns_ai "http://ns.adobe.com/AdobeIllustrator/10.0/">
	<!ENTITY ns_graphs "http://ns.adobe.com/Graphs/1.0/">
]>
<svg version="1.1" id="Layer_1" xmlns:x="&ns_extend;" xmlns:i="&ns_ai;" xmlns:graph="&ns_graphs;"
	 xmlns="http://www.w3.org/2000/svg" xmlns:xlink="http://www.w3.org/1999/xlink" xmlns:a="http://ns.adobe.com/AdobeSVGViewerExtensions/3.0/"
	 x="0px" y="0px" width="64px" height="64px" viewBox="0 0 64 64" enable-background="new 0 0 64 64" xml:space="preserve">
<radialGradient id="SVGID_1_" cx="15.4766" cy="72.0967" r="7.2106" gradientTransform="matrix(1.0548 0 0 1.0506 -6.8719 -35.0184)" gradientUnits="userSpaceOnUse">
	<stop  offset="0" style="stop-color:#FF8800"/>
	<stop  offset="0.2913" style="stop-color:#FC8500"/>
	<stop  offset="0.5282" style="stop-color:#F27E00"/>
	<stop  offset="0.7453" style="stop-color:#E17000"/>
	<stop  offset="0.9273" style="stop-color:#CC6000"/>
	<a:midPointStop  offset="0" style="stop-color:#FF8800"/>
	<a:midPointStop  offset="0.7476" style="stop-color:#FF8800"/>
	<a:midPointStop  offset="0.9273" style="stop-color:#CC6000"/>
</radialGradient>
<ellipse fill="url(#SVGID_1_)" cx="10.659" cy="42.284" rx="6.659" ry="6.631"/>
<path fill="#1A1626" d="M13.957,43.8c-2.453-0.809-4.566-1.506-5.402-3.182c-0.059-0.113-0.104-0.229-0.143-0.346
	c3.188-1.219,6.951-1.502,8.547-0.141c-0.057-0.162-0.119-0.32-0.184-0.475c-0.773-0.52-2.084-0.818-3.561-0.76
	c-1.539,0.063-3.297,0.441-4.885,1.039c-0.117-0.695,0.059-1.443,0.516-2.104c0.787-1.139,2.184-1.805,3.84-1.867
	c-0.205-0.064-0.416-0.121-0.627-0.166c-1.678,0.154-2.809,0.844-3.496,1.838c-0.525,0.758-0.715,1.625-0.559,2.426
	c-0.273,0.109-0.539,0.225-0.797,0.346c-0.191,0.092-0.375,0.184-0.553,0.279c-0.182-0.729-0.277-1.434-0.266-2.08
	c0.008-0.549,0.098-1.199,0.41-1.729c-0.148,0.105-0.295,0.219-0.434,0.338c-0.563,1.279-0.227,2.83-0.02,3.639
	c-0.348,0.197-0.664,0.4-0.943,0.609c-0.182-0.637-0.449-1.24-0.873-1.775c-0.055,0.125-0.105,0.252-0.148,0.381
	c0.346,0.492,0.57,1.043,0.723,1.625c-0.482,0.398-0.844,0.809-1.072,1.219c0.014,0.168,0.037,0.332,0.064,0.496
	c0.197-0.387,0.514-0.842,1.094-1.344c0.141,0.668,0.203,1.369,0.268,2.061c0.094,1.033,0.221,2.391,0.729,3.068
	c0.182,0.164,0.371,0.316,0.568,0.459c-0.709-0.867-0.824-2.146-0.953-3.559c-0.07-0.764-0.139-1.537-0.311-2.273
	c0.279-0.213,0.596-0.422,0.949-0.625c0.285,0.994,0.715,2.037,1.264,3.033c1.107,2.008,2.58,4.047,4.795,4.428
	c0.189-0.055,0.377-0.117,0.559-0.188c-0.422-0.006-0.865-0.121-1.326-0.348c-2.053-1.002-4.164-4.17-4.988-7.096
	c0.195-0.104,0.4-0.207,0.613-0.307c0.24-0.113,0.486-0.221,0.734-0.322c0.043,0.125,0.094,0.25,0.154,0.371
	c0.898,1.805,3.078,2.523,5.604,3.357c0.922,0.305,1.869,0.617,2.824,1.002c0.053-0.104,0.1-0.209,0.143-0.316
	C15.843,44.425,14.888,44.108,13.957,43.8z"/>
<radialGradient id="SVGID_2_" cx="568.5605" cy="6.251" r="4.8784" gradientTransform="matrix(0.3597 0.4654 -0.7956 0.61 -191.1028 -228.6484)" gradientUnits="userSpaceOnUse">
	<stop  offset="0" style="stop-color:#FFDADA"/>
	<stop  offset="1" style="stop-color:#FFDADA;stop-opacity:0"/>
	<a:midPointStop  offset="0" style="stop-color:#FFDADA"/>
	<a:midPointStop  offset="0.4857" style="stop-color:#FFDADA"/>
	<a:midPointStop  offset="1" style="stop-color:#FFDADA;stop-opacity:0"/>
</radialGradient>
<path opacity="0.5" fill="url(#SVGID_2_)" d="M10.191,42.042c-2.145,1.643-4.668,1.959-5.637,0.705s-0.02-3.604,2.127-5.246
	c2.143-1.645,4.664-1.959,5.635-0.705C13.285,38.05,12.332,40.397,10.191,42.042z"/>
<path fill="#B88A6F" d="M27.151,22.463c-2.919,2.844-3.81,4.723-5.403,5.117c-2.447-0.203-6.574,0.578-7.348,0.586
	c-0.752,0.006-2.873-0.656-3.387-0.42c-2.172,0.996-2.449,0.91-3.238,2.09c-0.598,0.893,0.189,0.6,0.598,0.191
	c0.633-0.631,2.109-1.057,2.266-0.252c-1.656,0.143-1.943,1.252-1.33,1.158c1.58-0.248,2.545-0.057,3.381-0.799
	c0.338-0.299,1.762-0.34,4.916,0.262c2.773,0.527,4.516,0.743,5.484,0.743c1.639,0,7.116-5.852,7.116-5.852
	S31.145,14.346,27.151,22.463z"/>
<path fill="#B88A6F" d="M24.001,57.534c1.988-5.916,4.466-5.881,4.612-11.498c0.43-0.086,0.867-0.174,1.299-0.264
	c-0.369-2.602-1.51-3.98-3.26-5.055c-1.628,0.563-2.499,1.576-2.612,1.752c-0.662,1.041-0.309,6.303-3.248,14.074
	C20.552,57.177,23.894,57.854,24.001,57.534z"/>
<path fill="#FF7A00" d="M21.734,61.603h2.529c0.371,0,0.158-0.605,0.158-0.605s-2.363-1.443-9.871-0.67
	C14.55,60.327,16.285,62.983,21.734,61.603z"/>
<path fill="#302C3B" d="M24.216,58.53c0.393-0.705,0.307-1.508,0.063-1.381c-0.469,0.248-2.379,0.145-2.77-0.125
	c0.469-1.521-0.68-1.941-0.73-1.475c-0.43,3.936-6.514,1.725-6.229,4.777c0,0,3.26,1.879,7.1,0.689l2.771-0.02
	C24.757,59.362,24.216,58.53,24.216,58.53z"/>
<path fill="#FF7A00" d="M17.285,58.421c0.951,0.928,1.488,0.988,1.568,0.338c0.643,0.465,1.012,0.09,1.02-0.295
	c0.693,0.301,0.947-0.311,0.133-0.992C19.539,57.11,17.029,58.171,17.285,58.421z"/>
<path fill="#B88A6F" d="M53.457,46.757c-5.586-0.471-6.08-2.633-11.016-1.568c-0.168-0.355-0.336-0.715-0.506-1.072
	c-2.193,0.873-3.166,1.73-3.734,3.479c0.838,1.295,1.906,2.648,2.084,2.709c1.049,0.355,5.58-1.455,12.988-0.551
	C53.879,49.827,53.762,46.782,53.457,46.757z"/>
<path fill="#ED6A00" d="M34.715,40.446c0,0-0.736,7.652,4.43,9.723c0,0,3.332-0.439,3.561-5.947
	c-3.086-1.539,0.709-6.24-2.553-10.551L34.715,40.446z"/>
<path fill="#FFA959" d="M42.705,44.222c-0.23,4.871-3.135,5.316-3.561,5.947c0.393,0.164,0.795,0.303,1.207,0.404
	c0,0,3.152-0.283,3.381-5.791C43.301,44.622,42.977,44.431,42.705,44.222z"/>
<path fill="#A3765A" d="M35.959,17.658c-3.253,8.578-6.857,12.063-6.523,1.838C30.579,19.309,32.963,16.908,35.959,17.658z"/>
<path fill="#FF7A00" d="M40.564,33.649l-10.269,0.805c-0.875,1.686-3.549,3.762-5.159,6.109c0,0,0.818,2.889,6.868,4.645
	C34.379,41.313,44.385,41.315,40.564,33.649z"/>
<path fill="#FFA959" d="M25.136,40.563c0,0-0.467,0.418-0.912,1.162c0,0,2.241,3.734,7.384,5.15
	c0.113-0.912,0.396-1.668,0.396-1.668C28.471,43.993,25.765,41.638,25.136,40.563z"/>
<path fill="#FFA959" d="M39.873,33.714l-1.457-0.189c2.426,5.563-7.089,5.002-8.781,11.104c0,0,0.895,0.654,1.506,0.832
	C32.631,39.136,43.104,40.251,39.873,33.714z"/>
<path fill="#FF7A00" d="M38.494,17.67c-0.477-0.861-2.98-0.158-3.172-0.029c-1.914,1.297-3.761,6.398-3.761,6.398
	c-0.234,0.043-2.459-1.18-0.979-4.781c0.357-0.867-1.439,0.291-1.439,0.291c-1.713,7.025,0.441,9.926,1.162,13.34
	c7.931,2.493,10.316-0.697,10.316-0.697S42.635,25.119,38.494,17.67z"/>
<path fill="#FFA959" d="M35.23,17.705c-2.008,1.152-3.808,6.045-3.808,6.045c-0.236,0.045-1.604-1.688-0.672-4.857
	c-0.305-0.131-0.451,0.07-0.451,0.07c-1.449,5.09,1.316,5.902,1.316,5.902C32.708,22.635,34.031,18.703,35.23,17.705z"/>
<path fill="#FFA959" d="M30.305,32.889c0.014,0.485,0.014,1-0.01,1.565c7.933,2.492,10.269-0.805,10.269-0.805
	s0.043-0.541,0.057-1.458C39.029,32.569,36.473,34.474,30.305,32.889z"/>
<path fill="#FFA959" d="M40.814,23.123c1.25,5.801-2.58,6.66-4.666,1.107C33.215,16.418,39.109,15.221,40.814,23.123z"/>
<path fill="#B88A6F" d="M40.426,22.537c0.99,4.596-2.031,5.195-3.785,0.832C34.051,16.918,39.008,15.951,40.426,22.537z"/>
<path fill="#B88A6F" d="M36.6,18.33c-2.146,2.473,5.576,6.176,8.334,7.572c-1.451,1.805-4.607,7.231-4.969,7.065
	c-1.057-0.475-1.518-0.387-2.885,0.305c-0.381,0.189,0.068,0.795,0.068,0.795c-0.752,0.662,0.113,0.752,0.291,1.287
	c0.164,0.496,0.617,0.373,0.887,0.857c0.607,1.082,2.438-0.145,3.324-1.773c0.635-1.166,5.59-4.647,7.666-9.38
	C49.754,24.063,38.896,16.342,36.6,18.33z"/>
<path fill="#FF7A00" d="M57.459,46.858l-1.182-2.24c-0.172-0.328-0.607,0.145-0.607,0.145s-0.17,2.766,4.021,9.051
	C59.691,53.813,61.225,51.036,57.459,46.858z"/>
<path fill="#302C3B" d="M53.586,46.097c-0.805-0.018-1.473,0.434-1.246,0.588c0.438,0.303,1.238,2.041,1.184,2.512
	c-1.563,0.295-1.395,1.508-0.959,1.336c3.674-1.461,4.564,4.961,7.127,3.281c0,0,0.135-3.764-2.709-6.607l-1.313-2.443
	C54.068,45.229,53.588,46.097,53.586,46.097z"/>
<path fill="#FF7A00" d="M56.73,52.282c0.375-1.275,0.178-1.777-0.434-1.547c0.109-0.783-0.395-0.936-0.738-0.762
	c-0.059-0.756-0.715-0.695-0.938,0.346C54.521,50.901,56.631,52.628,56.73,52.282z"/>
<path fill="#A3765A" d="M28.811,18.338c1.271-0.605,2.199,1.232,2.633,3.178c1.467-1.99,2.412-3.475,4.544-4.096
	c-0.273-1.041-0.084-2.947-0.084-2.947C35.057,13.988,32.141,8.016,28.811,18.338z"/>
<path fill="#8F604D" d="M24.832,10.744c0.494-2.924,3.821-3.695,2.706-6.471C23.996,5.105,23.677,7.957,24.832,10.744z"/>
<path fill="#B88A6F" d="M29.844,3.166c-3.86,0.617-5.278,3.373-4.655,6.623c0.141,0.734-0.332,1.992-1.268,2.799
	c-0.338,0.295-0.371,0.682-0.205,0.943c0.326,0.51,1.043,0.514,1.342,0.705c0.668,0.426-0.002,0.896,0.502,1.4
	c0.229,0.229,0.884-0.076,0.191,1.137c0.771,0.563-0.516,1.92,1.468,2.129c1.041,0.109,4.83-2.119,5.512-3.271
	c0.791-1.342,0.917-2.516,0.917-2.516c2.963-0.855,4.01-3.441,3.371-6.148C36.127,3.18,32.346,2.768,29.844,3.166z"/>
<path fill="#8C5F44" d="M25.56,15.637c0.363,0.223,0.203,0.572,0.203,0.572c-0.174,0-0.217,0.574,0.041,0.574
	c0.903,0,1.733-0.775,2.007-1.246C26.395,15.469,24.841,14.83,25.56,15.637z"/>
<path fill="#FFFFFF" d="M25.56,15.637c0,0,0.139,0.494,0.203,0.572c0.283,0,1.208-0.205,1.774-0.578L25.56,15.637z"/>
<path fill="#8C5F44" d="M23.726,13.535c0.266,0.711,1.977,0.865,2.523,0C25.347,14.186,23.57,13.121,23.726,13.535z"/>
<path id="Path_1723_" fill="#78513A" d="M28.698,9.121c-0.822-0.475-2.395-0.496-2.979-0.166c-0.127,0.064-0.043,0.514,0.063,0.471
	c0.815-0.352,2.132-0.361,2.896,0.029C28.778,9.506,28.821,9.188,28.698,9.121z"/>
<linearGradient id="SVGID_3_" gradientUnits="userSpaceOnUse" x1="37.3174" y1="14.165" x2="27.6585" y2="3.758">
	<stop  offset="0" style="stop-color:#6B4435"/>
	<stop  offset="0.0671" style="stop-color:#704839"/>
	<stop  offset="0.341" style="stop-color:#825644"/>
	<stop  offset="0.6384" style="stop-color:#8C5D4B"/>
	<stop  offset="1" style="stop-color:#8F604D"/>
	<a:midPointStop  offset="0" style="stop-color:#6B4435"/>
	<a:midPointStop  offset="0.2545" style="stop-color:#6B4435"/>
	<a:midPointStop  offset="1" style="stop-color:#8F604D"/>
</linearGradient>
<path fill="url(#SVGID_3_)" d="M30.635,5.934c3.115,3.033,3.882,7.172,3.48,10.275C38.387,14.629,39.58,4.904,30.635,5.934z"/>
<linearGradient id="SVGID_4_" gradientUnits="userSpaceOnUse" x1="38.2988" y1="13.7808" x2="27.8018" y2="2.4706">
	<stop  offset="0" style="stop-color:#6B4435"/>
	<stop  offset="0.0671" style="stop-color:#704839"/>
	<stop  offset="0.341" style="stop-color:#825644"/>
	<stop  offset="0.6384" style="stop-color:#8C5D4B"/>
	<stop  offset="1" style="stop-color:#8F604D"/>
	<a:midPointStop  offset="0" style="stop-color:#6B4435"/>
	<a:midPointStop  offset="0.2545" style="stop-color:#6B4435"/>
	<a:midPointStop  offset="1" style="stop-color:#8F604D"/>
</linearGradient>
<path fill="url(#SVGID_4_)" d="M36.119,15.936c2.168-1.898,3.037-6.969,1.326-10.271C36.182,3.223,34.24,1.992,30.635,2
	c-2.92,0.006-5.347,1.674-5.837,3.598c-0.684,2.682,3.556,2.576,4.94,4.773c0,0,0.623-1.455-0.434-3.484
	C33.848,13.736,36.078,7.34,36.119,15.936z"/>
<path fill="#B88A6F" d="M33.66,9.518c-1.439,0.299-1.888,3.553-0.808,4.26c0.15,0.1,0.939,0.188,1.357-0.609
	c0.23-0.443,1.057-0.893,1.174-1.758C35.529,10.303,35.094,9.223,33.66,9.518z"/>
<path id="Path_1722_" fill="#8C5F44" d="M33.738,10.121c-0.367,0.125-0.713,0.549-0.816,1.193c1.296-0.354,1.238,1.105,0.083,1.279
	c0.037,0.143,0.082,0.287,0.139,0.436c0.459-0.588,1.066-0.451,1.479-1.293C34.994,10.979,34.645,9.814,33.738,10.121z"/>
<path fill="#FFFFFF" d="M28.352,10.797c0.021,0.207-0.637,0.957-1.475,1.027c-0.479,0.041-0.649-0.328-0.757-0.727
	C26.017,9.514,27.881,10.076,28.352,10.797z"/>
<linearGradient id="Path_1_" gradientUnits="userSpaceOnUse" x1="26.7559" y1="11.7607" x2="26.7559" y2="10.0923">
	<stop  offset="0" style="stop-color:#A6694A"/>
	<stop  offset="1" style="stop-color:#4F2A1E"/>
	<a:midPointStop  offset="0" style="stop-color:#A6694A"/>
	<a:midPointStop  offset="0.5" style="stop-color:#A6694A"/>
	<a:midPointStop  offset="1" style="stop-color:#4F2A1E"/>
</linearGradient>
<path id="Path_1721_" fill="url(#Path_1_)" d="M26.087,10.896c0,1.152,1.337,1.152,1.337,0C27.424,9.824,26.087,9.824,26.087,10.896
	z"/>
<path id="Path_1720_" fill="#1A1626" d="M26.228,10.846c0,0.576,0.667,0.576,0.667,0C26.895,10.309,26.228,10.309,26.228,10.846z"/>
<path id="Path_1719_" fill="#AB968C" d="M26.641,10.611c0,0.24,0.387,0.24,0.387,0C27.028,10.385,26.641,10.385,26.641,10.611z"/>
<path fill="#8C5F44" d="M28.352,10.797c-0.357-0.721-2.147-1.244-2.196-0.271C26.409,9.873,27.735,10.23,28.352,10.797z"/>
</svg>
