<?xml version="1.0" encoding="utf-8"?>
<!-- Generator: Adobe Illustrator 15.0.0, SVG Export Plug-In . SVG Version: 6.00 Build 0)  -->
<!DOCTYPE svg PUBLIC "-//W3C//DTD SVG 1.1//EN" "http://www.w3.org/Graphics/SVG/1.1/DTD/svg11.dtd" [
	<!ENTITY ns_flows "http://ns.adobe.com/Flows/1.0/">
	<!ENTITY ns_extend "http://ns.adobe.com/Extensibility/1.0/">
	<!ENTITY ns_ai "http://ns.adobe.com/AdobeIllustrator/10.0/">
	<!ENTITY ns_graphs "http://ns.adobe.com/Graphs/1.0/">
]>
<svg version="1.1" id="Layer_1" xmlns:x="&ns_extend;" xmlns:i="&ns_ai;" xmlns:graph="&ns_graphs;"
	 xmlns="http://www.w3.org/2000/svg" xmlns:xlink="http://www.w3.org/1999/xlink" xmlns:a="http://ns.adobe.com/AdobeSVGViewerExtensions/3.0/"
	 x="0px" y="0px" width="64px" height="64px" viewBox="0 0 64 64" enable-background="new 0 0 64 64" xml:space="preserve">
<radialGradient id="SVGID_1_" cx="15.4766" cy="72.0947" r="7.2111" gradientTransform="matrix(1.0548 0 0 1.0506 -6.8719 -35.0184)" gradientUnits="userSpaceOnUse">
	<stop  offset="0" style="stop-color:#FF8800"/>
	<stop  offset="0.2913" style="stop-color:#FC8500"/>
	<stop  offset="0.5282" style="stop-color:#F27E00"/>
	<stop  offset="0.7453" style="stop-color:#E17000"/>
	<stop  offset="0.9273" style="stop-color:#CC6000"/>
	<a:midPointStop  offset="0" style="stop-color:#FF8800"/>
	<a:midPointStop  offset="0.7476" style="stop-color:#FF8800"/>
	<a:midPointStop  offset="0.9273" style="stop-color:#CC6000"/>
</radialGradient>
<ellipse fill="url(#SVGID_1_)" cx="10.659" cy="42.283" rx="6.659" ry="6.631"/>
<path fill="#1A1626" d="M13.957,43.799c-2.453-0.809-4.566-1.506-5.402-3.184c-0.059-0.113-0.104-0.229-0.143-0.346
	c3.188-1.219,6.951-1.5,8.547-0.141c-0.057-0.16-0.119-0.318-0.184-0.473c-0.773-0.521-2.084-0.82-3.561-0.76
	c-1.539,0.063-3.297,0.441-4.885,1.039c-0.117-0.695,0.059-1.443,0.516-2.105c0.787-1.137,2.184-1.803,3.84-1.865
	c-0.205-0.066-0.416-0.121-0.627-0.168c-1.678,0.156-2.809,0.846-3.496,1.838c-0.525,0.76-0.715,1.625-0.559,2.428
	c-0.273,0.109-0.539,0.225-0.797,0.346c-0.191,0.09-0.375,0.184-0.553,0.277c-0.182-0.727-0.277-1.432-0.266-2.08
	c0.008-0.547,0.098-1.199,0.41-1.729c-0.148,0.107-0.295,0.221-0.434,0.338c-0.563,1.281-0.227,2.83-0.02,3.639
	c-0.348,0.197-0.664,0.402-0.943,0.609c-0.182-0.637-0.449-1.238-0.873-1.773c-0.055,0.125-0.105,0.252-0.148,0.381
	c0.346,0.49,0.57,1.043,0.723,1.625c-0.482,0.396-0.844,0.807-1.072,1.219c0.014,0.166,0.037,0.332,0.064,0.496
	c0.197-0.389,0.514-0.842,1.094-1.344c0.141,0.668,0.203,1.369,0.268,2.061c0.094,1.031,0.221,2.391,0.729,3.068
	c0.182,0.162,0.371,0.316,0.568,0.459c-0.709-0.869-0.824-2.146-0.953-3.559c-0.07-0.764-0.139-1.537-0.311-2.275
	c0.279-0.211,0.596-0.42,0.949-0.625c0.285,0.996,0.715,2.039,1.264,3.035c1.107,2.008,2.58,4.047,4.795,4.428
	c0.189-0.055,0.377-0.117,0.559-0.188c-0.422-0.006-0.865-0.121-1.326-0.348c-2.053-1.004-4.164-4.172-4.988-7.096
	c0.195-0.105,0.4-0.207,0.613-0.309c0.24-0.113,0.486-0.221,0.734-0.322c0.043,0.127,0.094,0.252,0.154,0.371
	c0.898,1.807,3.078,2.525,5.604,3.357c0.922,0.305,1.869,0.617,2.824,1.002c0.053-0.104,0.1-0.209,0.143-0.314
	C15.843,44.422,14.888,44.105,13.957,43.799z"/>
<radialGradient id="SVGID_2_" cx="568.5566" cy="6.249" r="4.8784" gradientTransform="matrix(0.3597 0.4654 -0.7956 0.61 -191.1028 -228.6484)" gradientUnits="userSpaceOnUse">
	<stop  offset="0" style="stop-color:#FFDADA"/>
	<stop  offset="1" style="stop-color:#FFDADA;stop-opacity:0"/>
	<a:midPointStop  offset="0" style="stop-color:#FFDADA"/>
	<a:midPointStop  offset="0.4857" style="stop-color:#FFDADA"/>
	<a:midPointStop  offset="1" style="stop-color:#FFDADA;stop-opacity:0"/>
</radialGradient>
<path opacity="0.5" fill="url(#SVGID_2_)" d="M10.191,42.039C8.046,43.684,5.523,44,4.554,42.744
	c-0.969-1.254-0.02-3.602,2.127-5.246c2.143-1.643,4.664-1.959,5.635-0.705C13.285,38.047,12.332,40.396,10.191,42.039z"/>
<path fill="#614A36" d="M27.15,22.461c-2.919,2.846-3.809,4.723-5.402,5.119c-2.447-0.203-6.574,0.578-7.349,0.584
	c-0.751,0.008-2.873-0.654-3.386-0.42c-2.173,0.996-2.449,0.912-3.238,2.092c-0.598,0.893,0.188,0.6,0.597,0.191
	c0.633-0.631,2.11-1.059,2.267-0.252c-1.656,0.141-1.944,1.252-1.331,1.156c1.58-0.248,2.546-0.057,3.382-0.797
	c0.338-0.299,1.762-0.342,4.916,0.26c2.772,0.529,4.516,0.742,5.484,0.742c1.638,0,7.115-5.85,7.115-5.85
	S31.144,14.344,27.15,22.461z"/>
<path fill="#614A36" d="M24.001,57.533c1.988-5.916,4.465-5.881,4.611-11.498c0.43-0.088,0.867-0.174,1.299-0.264
	c-0.369-2.604-1.51-3.98-3.26-5.057c-1.627,0.564-2.498,1.578-2.611,1.754c-0.662,1.039-0.309,6.303-3.248,14.074
	C20.552,57.176,23.894,57.854,24.001,57.533z"/>
<path fill="#8E3ED6" d="M21.734,61.602h2.529c0.371,0,0.158-0.605,0.158-0.605s-2.363-1.443-9.871-0.67
	C14.55,60.326,16.285,62.982,21.734,61.602z"/>
<path fill="#302C3B" d="M24.216,58.529c0.393-0.705,0.307-1.508,0.063-1.381c-0.469,0.248-2.379,0.145-2.77-0.125
	c0.469-1.521-0.68-1.941-0.73-1.475c-0.43,3.936-6.514,1.725-6.229,4.777c0,0,3.26,1.879,7.1,0.689l2.771-0.02
	C24.757,59.361,24.216,58.529,24.216,58.529z"/>
<path fill="#8E3ED6" d="M17.285,58.42c0.951,0.928,1.488,0.988,1.568,0.338c0.643,0.465,1.012,0.09,1.02-0.295
	c0.693,0.301,0.947-0.311,0.133-0.992C19.539,57.109,17.029,58.17,17.285,58.42z"/>
<path fill="#614A36" d="M53.457,46.756c-5.586-0.473-6.08-2.633-11.017-1.568c-0.168-0.357-0.336-0.715-0.506-1.072
	c-2.193,0.871-3.166,1.73-3.734,3.479c0.838,1.295,1.906,2.648,2.084,2.709c1.049,0.355,5.581-1.455,12.989-0.551
	C53.879,49.826,53.762,46.781,53.457,46.756z"/>
<path fill="#732EB0" d="M34.714,40.445c0,0-0.736,7.652,4.43,9.723c0,0,3.332-0.439,3.561-5.949
	c-3.086-1.539,0.71-6.24-2.553-10.549L34.714,40.445z"/>
<path fill="#BE75FF" d="M42.704,44.219c-0.23,4.873-3.135,5.318-3.561,5.949c0.393,0.164,0.795,0.303,1.207,0.404
	c0,0,3.153-0.283,3.382-5.791C43.301,44.621,42.976,44.43,42.704,44.219z"/>
<path fill="#523E30" d="M35.958,17.657c-3.253,8.578-6.857,12.064-6.523,1.838C30.578,19.307,32.962,16.907,35.958,17.657z"/>
<path fill="#8E3ED6" d="M40.563,33.646l-10.269,0.805c-0.875,1.686-3.549,3.762-5.158,6.109c0,0,0.818,2.891,6.867,4.645
	C34.378,41.313,44.385,41.314,40.563,33.646z"/>
<path fill="#BE75FF" d="M25.136,40.561c0,0-0.467,0.42-0.912,1.162c0,0,2.24,3.736,7.383,5.152c0.113-0.914,0.396-1.67,0.396-1.67
	C28.47,43.99,25.765,41.635,25.136,40.561z"/>
<path fill="#BE75FF" d="M39.872,33.711l-1.457-0.189c2.426,5.564-7.089,5.004-8.781,11.105c0,0,0.895,0.652,1.506,0.832
	C32.63,39.135,43.104,40.248,39.872,33.711z"/>
<path fill="#8E3ED6" d="M38.493,17.67c-0.477-0.861-2.98-0.16-3.172-0.029c-1.914,1.295-3.761,6.398-3.761,6.398
	c-0.234,0.043-2.459-1.18-0.979-4.781c0.357-0.867-1.439,0.291-1.439,0.291c-1.713,7.023,0.441,9.924,1.162,13.34
	c7.931,2.492,10.316-0.697,10.316-0.697S42.634,25.12,38.493,17.67z"/>
<path fill="#BE75FF" d="M35.229,17.706c-2.008,1.15-3.808,6.043-3.808,6.043c-0.236,0.045-1.604-1.688-0.672-4.855
	c-0.305-0.133-0.451,0.068-0.451,0.068c-1.449,5.09,1.316,5.904,1.316,5.904C32.707,22.635,34.03,18.702,35.229,17.706z"/>
<path fill="#BE75FF" d="M30.304,32.889c0.014,0.484,0.014,0.998-0.01,1.562c7.933,2.492,10.269-0.805,10.269-0.805
	s0.043-0.541,0.057-1.455C39.028,32.569,36.472,34.471,30.304,32.889z"/>
<path fill="#BE75FF" d="M40.813,23.124c1.25,5.801-2.58,6.66-4.666,1.107C33.214,16.417,39.108,15.221,40.813,23.124z"/>
<path fill="#614A36" d="M40.425,22.538c0.99,4.594-2.031,5.195-3.785,0.832C34.05,16.918,39.007,15.952,40.425,22.538z"/>
<path fill="#614A36" d="M36.599,18.331c-2.146,2.471,5.576,6.176,8.335,7.572c-1.451,1.803-4.608,7.228-4.97,7.064
	c-1.057-0.477-1.518-0.387-2.885,0.302c-0.381,0.189,0.068,0.797,0.068,0.797c-0.752,0.66,0.113,0.75,0.291,1.287
	c0.164,0.494,0.617,0.371,0.887,0.857c0.607,1.08,2.438-0.145,3.324-1.773c0.635-1.168,5.591-4.648,7.667-9.378
	C49.754,24.061,38.896,16.342,36.599,18.331z"/>
<path fill="#8E3ED6" d="M57.459,46.857l-1.182-2.24c-0.172-0.328-0.607,0.145-0.607,0.145s-0.17,2.766,4.021,9.051
	C59.691,53.813,61.225,51.035,57.459,46.857z"/>
<path fill="#302C3B" d="M53.586,46.094c-0.805-0.016-1.473,0.434-1.246,0.59c0.438,0.301,1.238,2.041,1.184,2.512
	c-1.563,0.295-1.395,1.508-0.959,1.336c3.674-1.461,4.564,4.961,7.127,3.281c0,0,0.135-3.764-2.709-6.607l-1.313-2.443
	C54.068,45.227,53.588,46.094,53.586,46.094z"/>
<path fill="#8E3ED6" d="M56.73,52.281c0.375-1.275,0.178-1.777-0.434-1.547c0.109-0.783-0.395-0.936-0.738-0.762
	c-0.059-0.756-0.715-0.695-0.938,0.346C54.521,50.9,56.631,52.627,56.73,52.281z"/>
<path fill="#523E30" d="M28.811,18.338c1.271-0.605,2.198,1.232,2.633,3.176c1.466-1.988,2.411-3.473,4.543-4.094
	c-0.273-1.041-0.262-2.021-0.262-2.021C34.877,14.915,32.14,8.016,28.811,18.338z"/>
<linearGradient id="SVGID_3_" gradientUnits="userSpaceOnUse" x1="37.5518" y1="10.9741" x2="47.6465" y2="10.9741">
	<stop  offset="0" style="stop-color:#1A1714"/>
	<stop  offset="0.1892" style="stop-color:#24201C"/>
	<stop  offset="0.6761" style="stop-color:#39332D"/>
	<stop  offset="1" style="stop-color:#403A33"/>
	<a:midPointStop  offset="0" style="stop-color:#1A1714"/>
	<a:midPointStop  offset="0.3818" style="stop-color:#1A1714"/>
	<a:midPointStop  offset="1" style="stop-color:#403A33"/>
</linearGradient>
<path fill="url(#SVGID_3_)" d="M45.532,16.252c0.611,0.225,1.308,0.307,2.114,0.16c-5.729-3.268-1.105-16.189-10.095-12.791
	l1.262,3.24c2.539,0.492-1.244,7.262,3.409,9.572c-0.459-0.428-0.459-1.324-0.337-2.385c0.891,3.045,1.831,5.205,5.424,4.791
	C46.663,18.7,46.022,17.62,45.532,16.252z"/>
<path fill="#8E3ED6" d="M36.772,3.663c-1.067,0.748,0.26,3.768,2.402,3.895C40.933,7.667,38.532,2.43,36.772,3.663z"/>
<path fill="#614A36" d="M29.843,3.176c-3.861,0.615-5.275,3.373-4.654,6.623c0.141,0.734-0.332,1.992-1.266,2.799
	c-0.34,0.293-0.375,0.684-0.208,0.943c0.326,0.51,1.042,0.514,1.343,0.705c0.668,0.426-0.002,0.896,0.502,1.4
	c0.229,0.229,0.885-0.074,0.191,1.137c0.77,0.563-0.191,1.84,1.467,2.129c0.787,0.135,3.805-1.072,5.391-3.193
	c0.896-1.199,1.041-2.594,1.041-2.594c2.961-0.855,4.008-3.441,3.369-6.148C36.126,3.19,32.346,2.776,29.843,3.176z"/>
<path fill="#472B27" d="M25.56,15.647c0.363,0.223,0.203,0.57,0.203,0.57c-0.174,0-0.217,0.576,0.041,0.576
	c0.904,0,1.734-0.775,2.006-1.246C26.394,15.477,24.841,14.838,25.56,15.647z"/>
<path fill="#FFFFFF" d="M25.56,15.647c0,0,0.137,0.494,0.203,0.57c0.285,0,1.207-0.203,1.775-0.578L25.56,15.647z"/>
<linearGradient id="SVGID_4_" gradientUnits="userSpaceOnUse" x1="25.3057" y1="8.7031" x2="39.543" y2="8.7031">
	<stop  offset="0" style="stop-color:#403A33"/>
	<stop  offset="0.3534" style="stop-color:#3D3730"/>
	<stop  offset="0.6441" style="stop-color:#332E28"/>
	<stop  offset="0.9118" style="stop-color:#211E1A"/>
	<stop  offset="1" style="stop-color:#1A1714"/>
	<a:midPointStop  offset="0" style="stop-color:#403A33"/>
	<a:midPointStop  offset="0.7455" style="stop-color:#403A33"/>
	<a:midPointStop  offset="1" style="stop-color:#1A1714"/>
</linearGradient>
<path fill="url(#SVGID_4_)" d="M37.782,5.194c-0.693-2.23-4.09-3.689-7.375-3.037c-3.193,0.635-5.549,2.826-5.03,4.262
	c0.735,2.033,5.252,1.998,6.932,5.441c0.024,0.236,1.215,0.4,1.265,0.609c0.403,1.668,1.685,3.053,2.151,2.93
	C38.987,14.526,41.301,6.547,37.782,5.194z"/>
<path fill="#302116" d="M23.726,13.545c0.268,0.711,1.977,0.865,2.523,0C25.348,14.198,23.57,13.131,23.726,13.545z"/>
<path fill="#614A36" d="M33.661,9.528c-1.44,0.299-1.89,3.553-0.811,4.26c0.151,0.1,0.941,0.188,1.357-0.609
	c0.232-0.441,1.06-0.891,1.174-1.756C35.53,10.313,35.095,9.233,33.661,9.528z"/>
<path id="Path_3007_" fill="#302116" d="M33.736,10.131c-0.366,0.125-0.71,0.549-0.817,1.191c1.298-0.352,1.24,1.107,0.086,1.281
	c0.038,0.141,0.083,0.285,0.14,0.436c0.457-0.588,1.064-0.451,1.479-1.291C34.995,10.991,34.646,9.823,33.736,10.131z"/>
<path id="Path_3006_" fill="#472B27" d="M28.695,9.133c-0.82-0.477-2.393-0.498-2.979-0.168c-0.124,0.064-0.041,0.514,0.064,0.471
	c0.815-0.352,2.131-0.361,2.895,0.029C28.777,9.516,28.82,9.198,28.695,9.133z"/>
<path fill="#FFFFFF" d="M28.353,10.795c0.018,0.209-0.639,0.959-1.477,1.029c-0.479,0.041-0.648-0.33-0.756-0.727
	C26.017,9.514,27.882,10.077,28.353,10.795z"/>
<linearGradient id="Path_1_" gradientUnits="userSpaceOnUse" x1="26.7563" y1="11.7607" x2="26.7563" y2="10.0923">
	<stop  offset="0" style="stop-color:#A6694A"/>
	<stop  offset="1" style="stop-color:#4F2A1E"/>
	<a:midPointStop  offset="0" style="stop-color:#A6694A"/>
	<a:midPointStop  offset="0.5" style="stop-color:#A6694A"/>
	<a:midPointStop  offset="1" style="stop-color:#4F2A1E"/>
</linearGradient>
<path id="Path_3005_" fill="url(#Path_1_)" d="M26.088,10.895c0,1.154,1.336,1.154,1.336,0C27.424,9.825,26.088,9.825,26.088,10.895
	z"/>
<path id="Path_3004_" fill="#1A1626" d="M26.228,10.844c0,0.576,0.666,0.576,0.666,0C26.894,10.307,26.228,10.307,26.228,10.844z"/>
<path id="Path_3003_" fill="#AB968C" d="M26.64,10.612c0,0.24,0.388,0.24,0.388,0C27.028,10.385,26.64,10.385,26.64,10.612z"/>
<path fill="#45332C" d="M28.353,10.795c-0.361-0.719-2.15-1.242-2.197-0.271C26.407,9.872,27.734,10.229,28.353,10.795z"/>
</svg>
