<?xml version="1.0" encoding="utf-8"?>
<!-- Generator: Adobe Illustrator 15.0.0, SVG Export Plug-In . SVG Version: 6.00 Build 0)  -->
<!DOCTYPE svg PUBLIC "-//W3C//DTD SVG 1.1//EN" "http://www.w3.org/Graphics/SVG/1.1/DTD/svg11.dtd" [
	<!ENTITY ns_flows "http://ns.adobe.com/Flows/1.0/">
	<!ENTITY ns_extend "http://ns.adobe.com/Extensibility/1.0/">
	<!ENTITY ns_ai "http://ns.adobe.com/AdobeIllustrator/10.0/">
	<!ENTITY ns_graphs "http://ns.adobe.com/Graphs/1.0/">
]>
<svg version="1.1" id="Layer_1" xmlns:x="&ns_extend;" xmlns:i="&ns_ai;" xmlns:graph="&ns_graphs;"
	 xmlns="http://www.w3.org/2000/svg" xmlns:xlink="http://www.w3.org/1999/xlink" xmlns:a="http://ns.adobe.com/AdobeSVGViewerExtensions/3.0/"
	 x="0px" y="0px" width="64px" height="64px" viewBox="0 0 64 64" enable-background="new 0 0 64 64" xml:space="preserve">
<rect x="8" y="22" fill="#99A8AE" width="38" height="38"/>
<linearGradient id="SVGID_1_" gradientUnits="userSpaceOnUse" x1="-297.5811" y1="58" x2="-297.5811" y2="28.0005" gradientTransform="matrix(-1 0 0 1 -270.5811 0)">
	<stop  offset="0" style="stop-color:#C40000"/>
	<stop  offset="0.2235" style="stop-color:#D80005"/>
	<stop  offset="0.5966" style="stop-color:#F4000B"/>
	<stop  offset="0.8121" style="stop-color:#FF000E"/>
	<a:midPointStop  offset="0" style="stop-color:#C40000"/>
	<a:midPointStop  offset="0.4148" style="stop-color:#C40000"/>
	<a:midPointStop  offset="0.8121" style="stop-color:#FF000E"/>
</linearGradient>
<rect x="10" y="28" fill="url(#SVGID_1_)" width="34" height="30"/>
<path fill="#99A8AE" d="M8,58h38c0.549,0,1,0.45,1,1v1h-1H8H7v-1C7,58.45,7.449,58,8,58z"/>
<rect x="6" y="60" fill="#6E8189" width="42" height="2"/>
<path fill="#6E8189" d="M49,7c3,0,5,5,5,5l-2,1c-0.934-2.107-1.98-4-3-4h-1V7H49z"/>
<rect x="46" y="47" fill="#6E8189" width="2" height="4"/>
<polygon fill="#99A8AE" points="55,19 54,21 53,21 53,19 "/>
<linearGradient id="SVGID_2_" gradientUnits="userSpaceOnUse" x1="-328.5811" y1="18" x2="-320.5811" y2="18" gradientTransform="matrix(-1 0 0 1 -270.5811 0)">
	<stop  offset="0.1879" style="stop-color:#FF000E"/>
	<stop  offset="0.4034" style="stop-color:#F4000B"/>
	<stop  offset="0.7765" style="stop-color:#D80005"/>
	<stop  offset="1" style="stop-color:#C40000"/>
	<a:midPointStop  offset="0.1879" style="stop-color:#FF000E"/>
	<a:midPointStop  offset="0.5852" style="stop-color:#FF000E"/>
	<a:midPointStop  offset="1" style="stop-color:#C40000"/>
</linearGradient>
<path fill="url(#SVGID_2_)" d="M52,14l-1-2l3-1l1,1.333L56,12l2,2l-1,1c0,0,1,2,1,4c0,1.5,0,6,0,6h-2v-6h-4l-2-2L52,14z"/>
<polygon fill="#302C3B" points="50,25 50,17 52,19 52,23 56,23 56,25 "/>
<polygon fill="#6E8189" points="54,25 52,27 46,27 46,25 "/>
<linearGradient id="SVGID_3_" gradientUnits="userSpaceOnUse" x1="-328.5811" y1="40" x2="-318.5811" y2="40" gradientTransform="matrix(-1 0 0 1 -270.5811 0)">
	<stop  offset="0" style="stop-color:#5B666E"/>
	<stop  offset="0.0914" style="stop-color:#494E59"/>
	<stop  offset="0.1916" style="stop-color:#3B3B48"/>
	<stop  offset="0.2951" style="stop-color:#33303E"/>
	<stop  offset="0.4061" style="stop-color:#302C3B"/>
	<stop  offset="0.4667" style="stop-color:#302C3B"/>
	<a:midPointStop  offset="0" style="stop-color:#5B666E"/>
	<a:midPointStop  offset="0.2788" style="stop-color:#5B666E"/>
	<a:midPointStop  offset="0.4061" style="stop-color:#302C3B"/>
	<a:midPointStop  offset="0.5" style="stop-color:#302C3B"/>
	<a:midPointStop  offset="0.4667" style="stop-color:#302C3B"/>
</linearGradient>
<path fill="url(#SVGID_3_)" d="M49,48c1.654,0,3,1.346,3,3c0,1.104,0.896,2,2,2s2-0.896,2-2c0-0.787-0.508-1.752-1.096-2.87
	C54.057,46.516,53,44.506,53,42c0-1.865,0.57-3.818,1.229-6.082C55.059,33.07,56,29.844,56,26v-1h2v1
	c0,4.129-0.982,7.502-1.852,10.479C55.533,38.594,55,40.421,55,42c0,2.014,0.891,3.705,1.674,5.199C57.355,48.495,58,49.72,58,51
	c0,2.206-1.795,4-4,4c-2.207,0-4-1.794-4-4c0-0.552-0.449-1-1-1h-1v-2H49z"/>
<linearGradient id="SVGID_4_" gradientUnits="userSpaceOnUse" x1="-297.5811" y1="29" x2="-297.5811" y2="2" gradientTransform="matrix(-1 0 0 1 -270.5811 0)">
	<stop  offset="0" style="stop-color:#C40000"/>
	<stop  offset="0.2235" style="stop-color:#D80005"/>
	<stop  offset="0.5966" style="stop-color:#F4000B"/>
	<stop  offset="0.8121" style="stop-color:#FF000E"/>
	<a:midPointStop  offset="0" style="stop-color:#C40000"/>
	<a:midPointStop  offset="0.4148" style="stop-color:#C40000"/>
	<a:midPointStop  offset="0.8121" style="stop-color:#FF000E"/>
</linearGradient>
<path fill="url(#SVGID_4_)" d="M8,2h38c1.1,0,2,0.9,2,2v23c0,1.1-0.9,2-2,2H8c-1.1,0-2-0.9-2-2V4C6,2.9,6.9,2,8,2z"/>
<linearGradient id="SVGID_5_" gradientUnits="userSpaceOnUse" x1="-297.5811" y1="27" x2="-297.5811" y2="4" gradientTransform="matrix(-1 0 0 1 -270.5811 0)">
	<stop  offset="0" style="stop-color:#FF000E"/>
	<stop  offset="0.0225" style="stop-color:#FD000E"/>
	<stop  offset="0.6681" style="stop-color:#D40004"/>
	<stop  offset="1" style="stop-color:#C40000"/>
	<a:midPointStop  offset="0" style="stop-color:#FF000E"/>
	<a:midPointStop  offset="0.4424" style="stop-color:#FF000E"/>
	<a:midPointStop  offset="1" style="stop-color:#C40000"/>
</linearGradient>
<path fill="url(#SVGID_5_)" d="M45,4c0.549,0,1,0.45,1,1v21c0,0.55-0.451,1-1,1H9c-0.551,0-1-0.45-1-1V5c0-0.55,0.449-1,1-1H45z"/>
<path id="Shape_2_" fill="#F46C60" d="M27,36.25c3.723,0,6.75,3.028,6.75,6.75s-3.027,6.75-6.75,6.75c-3.721,0-6.75-3.028-6.75-6.75
	S23.279,36.25,27,36.25z M27,34c-4.969,0-9,4.03-9,9s4.031,9,9,9c4.971,0,9-4.03,9-9S31.971,34,27,34z"/>
<path id="Combined-Shape_2_" fill="#F46C60" d="M28.802,43.901c-0.302,0-0.452-0.15-0.452-0.449v-0.9
	c0-0.303,0.15-0.453,0.452-0.453h2.923c0.303,0,0.452,0.15,0.452,0.453V43c0,2.86-2.315,5.177-5.177,5.177
	c-1.389,0-2.693-0.554-3.656-1.516c-0.215-0.216-0.215-0.422-0.004-0.638l0.959-0.954c0.211-0.211,0.422-0.211,0.633,0
	c0.548,0.545,1.283,0.857,2.068,0.857c1.301,0,2.404-0.848,2.786-2.025H28.802z"/>
<rect x="10" y="6" fill="#302C3B" width="34" height="19"/>
<linearGradient id="SVGID_6_" gradientUnits="userSpaceOnUse" x1="29.5005" y1="21" x2="29.5005" y2="10" gradientTransform="matrix(1 0 0 1 -10 0)">
	<stop  offset="0" style="stop-color:#302C3B"/>
	<stop  offset="1" style="stop-color:#6E7B85"/>
	<a:midPointStop  offset="0" style="stop-color:#302C3B"/>
	<a:midPointStop  offset="0.5" style="stop-color:#302C3B"/>
	<a:midPointStop  offset="1" style="stop-color:#6E7B85"/>
</linearGradient>
<rect x="11" y="10" fill="url(#SVGID_6_)" width="17" height="11"/>
<rect x="29" y="10" fill="#FFE12C" width="4" height="11"/>
<rect x="34" y="10" fill="#FFFFFF" width="4" height="11"/>
<rect x="39" y="10" fill="#E81C27" width="4" height="11"/>
<rect x="29.5" y="17.5" fill="#F9B700" width="3" height="3"/>
<rect x="34.5" y="17.5" fill="#CFD8DD" width="3" height="3"/>
<rect x="39.5" y="17.5" fill="#990000" width="3" height="3"/>
<rect x="14.5" y="11.5" fill="#CFD8DD" width="10" height="8"/>
<rect x="17.5" y="12.229" fill="#99A8AE" width="6" height="3"/>
<rect x="17.5" y="15.982" fill="#99A8AE" width="6" height="3"/>
<path d="M16.101,14.578v0.158c0,0.029-0.017,0.047-0.047,0.047h-0.064c-0.03,0-0.047-0.018-0.047-0.047v-0.162
	c-0.262-0.027-0.477-0.18-0.501-0.475c-0.002-0.037,0.02-0.057,0.056-0.057h0.211c0.033,0,0.052,0.018,0.058,0.053
	c0.016,0.088,0.076,0.143,0.177,0.162v-0.4c-0.224-0.08-0.472-0.186-0.472-0.508c0-0.287,0.22-0.445,0.472-0.471v-0.158
	c0-0.031,0.017-0.047,0.047-0.047h0.064c0.03,0,0.047,0.016,0.047,0.047v0.16c0.237,0.029,0.445,0.178,0.47,0.465
	c0.002,0.039-0.02,0.059-0.056,0.059h-0.204c-0.033,0-0.052-0.018-0.058-0.053c-0.015-0.084-0.068-0.133-0.152-0.152v0.396
	c0.23,0.082,0.498,0.18,0.498,0.508C16.599,14.395,16.369,14.555,16.101,14.578z M15.942,13.533v-0.336
	c-0.096,0.018-0.149,0.076-0.149,0.152C15.793,13.436,15.853,13.49,15.942,13.533z M16.276,14.104c0-0.09-0.071-0.143-0.176-0.188
	v0.346C16.215,14.244,16.276,14.184,16.276,14.104z"/>
<path d="M16.499,18.066v0.203c0,0.037-0.021,0.057-0.057,0.057H15.71h-0.111c-0.037,0-0.058-0.02-0.058-0.057v-1.574
	c0-0.035,0.021-0.057,0.058-0.057h0.217c0.037,0,0.058,0.021,0.058,0.057v1.313h0.569C16.479,18.008,16.499,18.029,16.499,18.066z"
	/>
</svg>
