<?xml version="1.0" encoding="utf-8"?>
<!-- Generator: Adobe Illustrator 15.0.0, SVG Export Plug-In . SVG Version: 6.00 Build 0)  -->
<!DOCTYPE svg PUBLIC "-//W3C//DTD SVG 1.1//EN" "http://www.w3.org/Graphics/SVG/1.1/DTD/svg11.dtd" [
	<!ENTITY ns_flows "http://ns.adobe.com/Flows/1.0/">
	<!ENTITY ns_extend "http://ns.adobe.com/Extensibility/1.0/">
	<!ENTITY ns_ai "http://ns.adobe.com/AdobeIllustrator/10.0/">
	<!ENTITY ns_graphs "http://ns.adobe.com/Graphs/1.0/">
]>
<svg version="1.1" id="Layer_1" xmlns:x="&ns_extend;" xmlns:i="&ns_ai;" xmlns:graph="&ns_graphs;"
	 xmlns="http://www.w3.org/2000/svg" xmlns:xlink="http://www.w3.org/1999/xlink" xmlns:a="http://ns.adobe.com/AdobeSVGViewerExtensions/3.0/"
	 x="0px" y="0px" width="64px" height="64px" viewBox="0 0 64 64" enable-background="new 0 0 64 64" xml:space="preserve">
<linearGradient id="SVGID_1_" gradientUnits="userSpaceOnUse" x1="249.3242" y1="1076.54" x2="230.3774" y2="1109.3568" gradientTransform="matrix(-0.866 0.5 -0.5 -0.866 790.2351 869.5457)">
	<stop  offset="0" style="stop-color:#717B80"/>
	<stop  offset="0.229" style="stop-color:#889499"/>
	<stop  offset="0.5213" style="stop-color:#A0ADB2"/>
	<stop  offset="0.7869" style="stop-color:#AEBDC1"/>
	<stop  offset="1" style="stop-color:#B3C2C6"/>
	<a:midPointStop  offset="0" style="stop-color:#717B80"/>
	<a:midPointStop  offset="0.3394" style="stop-color:#717B80"/>
	<a:midPointStop  offset="1" style="stop-color:#B3C2C6"/>
</linearGradient>
<path fill="url(#SVGID_1_)" d="M25.162,26.01l2.16,3.669c6.723,8.678,18.961,32.218,18.961,32.218s1.09-1.444,0.429-3.35
	c-2.593-7.468-12.529-31.485-12.529-31.485c-3.279,0.631-5.478-3.059-5.478-3.059L25.162,26.01z"/>
<path fill="#B3C2C6" d="M27.322,29.679l18.961,32.218c0,0,0.425-0.508,0.52-1.157L29.497,30.381L27.322,29.679z"/>
<linearGradient id="SVGID_2_" gradientUnits="userSpaceOnUse" x1="233.4521" y1="1113.9004" x2="244.8484" y2="1138.3397" gradientTransform="matrix(-0.866 0.5 -0.5 -0.866 790.2351 869.5457)">
	<stop  offset="0" style="stop-color:#CF0000"/>
	<stop  offset="0.1243" style="stop-color:#D60002"/>
	<stop  offset="0.6824" style="stop-color:#F4000B"/>
	<stop  offset="1" style="stop-color:#FF000E"/>
	<a:midPointStop  offset="0" style="stop-color:#CF0000"/>
	<a:midPointStop  offset="0.4182" style="stop-color:#CF0000"/>
	<a:midPointStop  offset="1" style="stop-color:#FF000E"/>
</linearGradient>
<path fill="url(#SVGID_2_)" d="M14.652,19.829c3.087,0.814,5.931-0.407,10.45,6.49c0.304,0.463,4.411-1.699,4.161-2.208
	c-5.27-10.719-6.859-16.078-9.742-20.485C17.677,0.8,12.295,1.962,10,4.785C4.869,11.098,10.781,18.811,14.652,19.829z
	 M13.277,5.366c4.359-3.134,10.197,9.524,6.903,11.615C13.981,20.916,7.141,9.777,13.277,5.366z"/>
<linearGradient id="SVGID_3_" gradientUnits="userSpaceOnUse" x1="-780.4648" y1="660.416" x2="-799.4121" y2="693.2336" gradientTransform="matrix(0.866 0.5 0.5 -0.866 373.6516 1024.1697)">
	<stop  offset="0" style="stop-color:#B3C2C6"/>
	<stop  offset="1" style="stop-color:#D2DBE0"/>
	<a:midPointStop  offset="0" style="stop-color:#B3C2C6"/>
	<a:midPointStop  offset="0.4848" style="stop-color:#B3C2C6"/>
	<a:midPointStop  offset="1" style="stop-color:#D2DBE0"/>
</linearGradient>
<path fill="url(#SVGID_3_)" d="M38.838,26.112l-2.16,3.67C28.877,40.354,17.718,62,17.718,62s-1.091-1.445-0.429-3.35
	c2.593-7.467,12.527-31.484,12.527-31.484c3.28,0.63,5.479-3.061,5.479-3.061L38.838,26.112z"/>
<path fill="#E6EBEF" d="M36.678,29.782L17.718,62c0,0-0.425-0.508-0.521-1.157l17.307-30.358L36.678,29.782z"/>
<linearGradient id="SVGID_4_" gradientUnits="userSpaceOnUse" x1="-783.1025" y1="706.4824" x2="-798.1761" y2="713.5114" gradientTransform="matrix(0.866 0.5 0.5 -0.866 373.6516 1024.1697)">
	<stop  offset="0" style="stop-color:#CF0000"/>
	<stop  offset="0.1243" style="stop-color:#D60002"/>
	<stop  offset="0.6824" style="stop-color:#F4000B"/>
	<stop  offset="1" style="stop-color:#FF000E"/>
	<a:midPointStop  offset="0" style="stop-color:#CF0000"/>
	<a:midPointStop  offset="0.4182" style="stop-color:#CF0000"/>
	<a:midPointStop  offset="1" style="stop-color:#FF000E"/>
</linearGradient>
<path fill="url(#SVGID_4_)" d="M54,4.889c-2.293-2.821-7.676-3.985-9.521-1.161c-2.882,4.41-4.473,9.769-9.741,20.488
	c-0.25,0.508,3.858,2.67,4.161,2.207c4.52-6.898,7.363-5.676,10.45-6.49C53.219,18.914,59.131,11.202,54,4.889z M43.819,17.084
	c-3.292-2.089,2.545-14.748,6.902-11.614C56.86,9.881,50.02,21.021,43.819,17.084z"/>
<path fill="#99A8AE" d="M30.857,32.014c0.486,0.485,1.247,0.53,1.784,0.134l-1.92-1.921C30.326,30.766,30.37,31.525,30.857,32.014z"
	/>
<path fill="#99A8AE" d="M32.805,30.064c-0.486-0.487-1.247-0.531-1.787-0.136l1.924,1.922C33.335,31.311,33.29,30.552,32.805,30.064
	z"/>
<path fill="#6E8189" d="M30.86,30.366l1.642,1.643c0.058-0.041,0.258-0.243,0.298-0.299l-1.641-1.642
	C31.103,30.109,30.902,30.311,30.86,30.366z"/>
</svg>
