<?xml version="1.0" encoding="utf-8"?>
<!-- Generator: Adobe Illustrator 15.0.0, SVG Export Plug-In . SVG Version: 6.00 Build 0)  -->
<!DOCTYPE svg PUBLIC "-//W3C//DTD SVG 1.1//EN" "http://www.w3.org/Graphics/SVG/1.1/DTD/svg11.dtd" [
	<!ENTITY ns_flows "http://ns.adobe.com/Flows/1.0/">
	<!ENTITY ns_extend "http://ns.adobe.com/Extensibility/1.0/">
	<!ENTITY ns_ai "http://ns.adobe.com/AdobeIllustrator/10.0/">
	<!ENTITY ns_graphs "http://ns.adobe.com/Graphs/1.0/">
]>
<svg version="1.1" id="Layer_1" xmlns:x="&ns_extend;" xmlns:i="&ns_ai;" xmlns:graph="&ns_graphs;"
	 xmlns="http://www.w3.org/2000/svg" xmlns:xlink="http://www.w3.org/1999/xlink" xmlns:a="http://ns.adobe.com/AdobeSVGViewerExtensions/3.0/"
	 x="0px" y="0px" width="64px" height="64px" viewBox="0 0 64 64" enable-background="new 0 0 64 64" xml:space="preserve">
<radialGradient id="SVGID_1_" cx="210.7822" cy="-595.4517" r="47.4399" gradientTransform="matrix(-0.0056 0.8974 -0.7639 0.0046 -423.0124 -163.5304)" gradientUnits="userSpaceOnUse">
	<stop  offset="0.4364" style="stop-color:#B88A6F"/>
	<stop  offset="0.6578" style="stop-color:#B6886D"/>
	<stop  offset="0.7563" style="stop-color:#AF8166"/>
	<stop  offset="0.8301" style="stop-color:#A2755A"/>
	<stop  offset="0.8917" style="stop-color:#906348"/>
	<stop  offset="0.903" style="stop-color:#8C5F44"/>
	<a:midPointStop  offset="0.4364" style="stop-color:#B88A6F"/>
	<a:midPointStop  offset="0.844" style="stop-color:#B88A6F"/>
	<a:midPointStop  offset="0.903" style="stop-color:#8C5F44"/>
</radialGradient>
<path fill="url(#SVGID_1_)" d="M51.645,32.215c-8.023,0.201-8.746,7.757-11.072,5.953c-0.602-0.469-0.373-3.721-0.373-3.721
	c0.139-5.335,0.242-12.681,0.309-23.491c0.035-5.438-8.224-5.393-8.259,0.051c0.01-1.365,0.018-2.76,0.029-4.189
	c0.033-5.434-8.227-5.432-8.258,0.051c-0.01,1.465-0.021,2.854-0.031,4.189c0.037-5.428-8.225-5.377-8.258,0.049
	c-0.008,1.16-0.021,3.824-0.045,6.967c-0.205-5.412-7.051-5.252-7.275,0.168c-0.252,6.17-0.629,18.716-0.66,25.267
	c-0.047,9.395,5.426,18,16.059,17.738c23.109-0.57,17.513-16.693,31.753-25.1C57.328,35.105,55.643,32.118,51.645,32.215z"/>
<path fill="#70513D" d="M40.178,37.43c-4.09,0.184-10.5,6.838-10.21,14.203c0.533-6.672,7.603-12.734,11.539-12.707L40.178,37.43z"
	/>
<path fill="#70513D" d="M51.645,31.466c-7.723,0.193-9.67,7.212-10.559,6.149c-0.256-0.309-0.23-1.787-0.135-3.148
	c0.145-5.618,0.242-13.087,0.307-23.505c0.031-4.721-5.395-6.102-8.234-3.547l0.004-0.594c0-6.436-9.757-6.436-9.757,0.043
	l-0.006,0.631c-2.752-2.484-8.254-1.17-8.283,3.607l-0.021,3.357c-2.605-2.438-7.111-0.764-7.297,3.752
	C7.411,24.321,7.032,36.842,7,43.504C6.963,50.787,10.61,62,23.809,62c23.566-0.58,18.167-16.963,32.134-25.207
	C58.211,35.457,56.85,31.466,51.645,31.466z M55.182,35.5c-14.795,8.73-8.656,24.441-31.373,25C12.622,60.5,8.461,51.467,8.5,43.512
	c0.031-6.645,0.41-19.14,0.66-25.239c0.188-4.498,5.594-4.561,5.775-0.188l-0.098,15.532l1.5,0.01l0.098-15.548h0.002l0.045-6.967
	c0-4.455,6.756-4.457,6.756-0.063l-0.141,22.519l1.5,0.01l0.15-23.782l0,0l0.021-2.924c0.027-4.592,6.781-4.359,6.758-0.061
	l-0.029,4.191H31.5l-0.143,22.515l1.5,0.01L33,10.983c0-4.426,6.758-4.426,6.758-0.031c0,10.408-0.162,17.867-0.307,23.442
	c-0.17,2.422,0.051,3.891,0.66,4.367c3.279,2.539,3.695-5.602,11.533-5.796C54.959,32.965,56.145,34.932,55.182,35.5z"/>
</svg>
