<?xml version="1.0" encoding="utf-8"?>
<!-- Generator: Adobe Illustrator 15.0.0, SVG Export Plug-In . SVG Version: 6.00 Build 0)  -->
<!DOCTYPE svg PUBLIC "-//W3C//DTD SVG 1.1//EN" "http://www.w3.org/Graphics/SVG/1.1/DTD/svg11.dtd" [
	<!ENTITY ns_flows "http://ns.adobe.com/Flows/1.0/">
	<!ENTITY ns_extend "http://ns.adobe.com/Extensibility/1.0/">
	<!ENTITY ns_ai "http://ns.adobe.com/AdobeIllustrator/10.0/">
	<!ENTITY ns_graphs "http://ns.adobe.com/Graphs/1.0/">
]>
<svg version="1.1" id="Layer_1" xmlns:x="&ns_extend;" xmlns:i="&ns_ai;" xmlns:graph="&ns_graphs;"
	 xmlns="http://www.w3.org/2000/svg" xmlns:xlink="http://www.w3.org/1999/xlink" xmlns:a="http://ns.adobe.com/AdobeSVGViewerExtensions/3.0/"
	 x="0px" y="0px" width="64px" height="64px" viewBox="0 0 64 64" enable-background="new 0 0 64 64" xml:space="preserve">
<radialGradient id="SVGID_1_" cx="34.9941" cy="39.2998" r="22.9147" gradientUnits="userSpaceOnUse">
	<stop  offset="0.4485" style="stop-color:#FFCC66"/>
	<stop  offset="0.723" style="stop-color:#FECA64"/>
	<stop  offset="0.8551" style="stop-color:#F9C55C"/>
	<stop  offset="0.9565" style="stop-color:#F2BB4F"/>
	<stop  offset="1" style="stop-color:#EDB547"/>
	<a:midPointStop  offset="0.4485" style="stop-color:#FFCC66"/>
	<a:midPointStop  offset="0.8333" style="stop-color:#FFCC66"/>
	<a:midPointStop  offset="1" style="stop-color:#EDB547"/>
</radialGradient>
<path fill="url(#SVGID_1_)" d="M12.946,36.283c-2.889,20.385,11.217,24.891,18.728,24.965c6.503,0.063,15.798-2.592,18.562-14.105
	C55.492,25.233,17.562,28.741,12.946,36.283z"/>
<radialGradient id="SVGID_2_" cx="31.1187" cy="39.2998" r="29.2159" gradientTransform="matrix(0.9771 0.2127 -0.098 0.4504 4.5652 14.9816)" gradientUnits="userSpaceOnUse">
	<stop  offset="0.1697" style="stop-color:#EDB547"/>
	<stop  offset="0.3323" style="stop-color:#F4BE54;stop-opacity:0.5122"/>
	<stop  offset="0.503" style="stop-color:#FFCC66;stop-opacity:0"/>
	<a:midPointStop  offset="0.1697" style="stop-color:#EDB547"/>
	<a:midPointStop  offset="0.5714" style="stop-color:#EDB547"/>
	<a:midPointStop  offset="0.503" style="stop-color:#FFCC66;stop-opacity:0"/>
</radialGradient>
<path fill="url(#SVGID_2_)" d="M12.946,36.283c-2.889,20.385,11.217,24.891,18.728,24.965c6.503,0.063,15.798-2.592,18.562-14.105
	C55.492,25.233,17.562,28.741,12.946,36.283z"/>
<path fill="#D9A640" d="M12.21,36.178C9.248,56.461,22.999,61.914,31.68,62c4.675,0,16.111-1.432,19.291-14.682
	C56.725,23.338,13.373,28.211,12.21,36.178z M49.512,46.969C46.58,59.182,36,60.5,31.68,60.5
	c-8.886-0.086-20.526-5.672-18.009-23.951C18.289,29.686,54.486,26.243,49.512,46.969z"/>
<path fill="#D9A640" d="M42.041,41.193l-1.012-1.264c-4.217-0.85-12.294,3.838-13.725,11.602
	C29.411,44.703,38.037,40.164,42.041,41.193z"/>
<path fill="#D9A640" d="M53.354,8.849c1.45-6.714-8.315-9.093-9.922-2.045c-1.971,8.655-4.232,17.798-5.107,19.462
	c-0.797-1.8-2.607-11.493-3.785-19.983c-0.927-6.688-10.805-5.16-9.942,1.929c1.397,11.489,3.72,22.904,3.722,22.91
	c3.682,3.042,11.58-1.834,20.433,4.849C48.285,28.241,50.314,22.914,53.354,8.849z"/>
<path fill="#FFCC66" d="M44.766,7.255c-1.973,8.655-4.451,21.066-6.485,21.052c-0.962-0.006-2.442-2.328-5.09-21.373
	c-0.75-5.399-7.783-4.094-7.124,1.315c1.397,11.489,4.027,24.264,4.027,24.264c0.355,1.865,5.483-3.258,17.11,2.289
	c-0.238-7.737,1.924-13.049,4.662-26.096C52.951,3.526,45.939,2.097,44.766,7.255z"/>
<path fill="#D9A640" d="M10.548,34.713c-0.828-7.316,9.379-8.267,10.129-0.971l0.707,6.123c0.822,7.242-9.379,8.164-10.137,0.934
	L10.548,34.713z"/>
<linearGradient id="SVGID_3_" gradientUnits="userSpaceOnUse" x1="15.2144" y1="30.2637" x2="16.7143" y2="44.2627">
	<stop  offset="0.5576" style="stop-color:#FFCC66"/>
	<stop  offset="0.7455" style="stop-color:#EDB547"/>
	<a:midPointStop  offset="0.5576" style="stop-color:#FFCC66"/>
	<a:midPointStop  offset="0.4848" style="stop-color:#FFCC66"/>
	<a:midPointStop  offset="0.7455" style="stop-color:#EDB547"/>
</linearGradient>
<path fill="url(#SVGID_3_)" d="M12.04,34.52c-0.586-5.255,6.566-5.947,7.16-0.686l0.691,6.199c0.59,5.236-6.572,5.898-7.165,0.66
	L12.04,34.52z"/>
<path fill="#D9A640" d="M18.86,31.09c-0.828-7.316,9.38-8.27,10.128-0.971l0.707,6.123c0.822,7.242-9.376,8.164-10.134,0.932
	L18.86,31.09z"/>
<linearGradient id="SVGID_4_" gradientUnits="userSpaceOnUse" x1="23.4458" y1="26.6147" x2="25.1123" y2="40.6978">
	<stop  offset="0.5576" style="stop-color:#FFCC66"/>
	<stop  offset="0.7455" style="stop-color:#EDB547"/>
	<a:midPointStop  offset="0.5576" style="stop-color:#FFCC66"/>
	<a:midPointStop  offset="0.4848" style="stop-color:#FFCC66"/>
	<a:midPointStop  offset="0.7455" style="stop-color:#EDB547"/>
</linearGradient>
<path fill="url(#SVGID_4_)" d="M20.353,30.897c-0.586-5.258,6.568-5.947,7.16-0.686l0.693,6.197c0.588,5.236-6.572,5.9-7.164,0.66
	L20.353,30.897z"/>
<path fill="#FFCC66" d="M35.365,31.584c-1.717-0.01-5.789,1.555-11.568,1.725c-2.531,0.072-2.95,4.328,0.881,6.203
	c5.334,2.605,13.566-0.795,16.035,4.939c0.609,1.412,9.514-2.266,8.461-4.982C46.521,32.623,36.564,31.59,35.365,31.584z"/>
<path fill="#D9A640" d="M40.047,44.756c-2.301-5.342-10.65-2.111-15.683-4.566c-4.699-2.301-3.941-7.533-0.587-7.629
	c3.563-0.105,8.567-1.927,11.619-1.927c3.375,0,9.438,0.804,13.299,4.867c1.646,1.734-0.15,2.121-1.34,0.814
	c-2.834-3.105-8.646-4.32-11.959-4.32c-3.337,0-7.88,1.955-11.579,2.064c-1.504,0.043-2.227,3.111,1.174,4.775
	c5.175,2.527,13.655-1.037,16.39,5.313L40.047,44.756z"/>
</svg>
