<?xml version="1.0" encoding="utf-8"?>
<!-- Generator: Adobe Illustrator 15.0.0, SVG Export Plug-In . SVG Version: 6.00 Build 0)  -->
<!DOCTYPE svg PUBLIC "-//W3C//DTD SVG 1.1//EN" "http://www.w3.org/Graphics/SVG/1.1/DTD/svg11.dtd" [
	<!ENTITY ns_flows "http://ns.adobe.com/Flows/1.0/">
	<!ENTITY ns_extend "http://ns.adobe.com/Extensibility/1.0/">
	<!ENTITY ns_ai "http://ns.adobe.com/AdobeIllustrator/10.0/">
	<!ENTITY ns_graphs "http://ns.adobe.com/Graphs/1.0/">
]>
<svg version="1.1" id="Layer_1" xmlns:x="&ns_extend;" xmlns:i="&ns_ai;" xmlns:graph="&ns_graphs;"
	 xmlns="http://www.w3.org/2000/svg" xmlns:xlink="http://www.w3.org/1999/xlink" xmlns:a="http://ns.adobe.com/AdobeSVGViewerExtensions/3.0/"
	 x="0px" y="0px" width="64px" height="64px" viewBox="0 0 64 64" enable-background="new 0 0 64 64" xml:space="preserve">
<radialGradient id="SVGID_1_" cx="31.9995" cy="32" r="22.5941" gradientUnits="userSpaceOnUse">
	<stop  offset="0" style="stop-color:#82EAFF"/>
	<stop  offset="1" style="stop-color:#00C4FF"/>
	<a:midPointStop  offset="0" style="stop-color:#82EAFF"/>
	<a:midPointStop  offset="0.503" style="stop-color:#82EAFF"/>
	<a:midPointStop  offset="1" style="stop-color:#00C4FF"/>
</radialGradient>
<path fill="url(#SVGID_1_)" d="M33.999,45.318V18.68l8.402-8.254c0.787-0.773,0.799-2.039,0.025-2.828
	c-0.775-0.787-2.041-0.799-2.828-0.025l-5.6,5.5V4c0-1.105-0.895-2-2-2c-1.104,0-2,0.895-2,2v9.074l-5.598-5.502
	c-0.789-0.773-2.055-0.762-2.828,0.025c-0.773,0.789-0.764,2.055,0.025,2.828l8.4,8.256v26.637l-8.4,8.254
	c-0.789,0.775-0.799,2.041-0.025,2.828c0.391,0.398,0.908,0.6,1.426,0.6c0.506,0,1.014-0.191,1.402-0.574l5.598-5.5V60
	c0,1.104,0.896,2,2,2c1.105,0,2-0.896,2-2v-9.074l5.6,5.5c0.389,0.383,0.895,0.574,1.4,0.574c0.518,0,1.035-0.201,1.428-0.6
	c0.773-0.787,0.762-2.053-0.025-2.828L33.999,45.318z"/>
<radialGradient id="SVGID_2_" cx="32" cy="31.999" r="24.3149" gradientUnits="userSpaceOnUse">
	<stop  offset="0" style="stop-color:#82EAFF"/>
	<stop  offset="1" style="stop-color:#00C4FF"/>
	<a:midPointStop  offset="0" style="stop-color:#82EAFF"/>
	<a:midPointStop  offset="0.503" style="stop-color:#82EAFF"/>
	<a:midPointStop  offset="1" style="stop-color:#00C4FF"/>
</radialGradient>
<path fill="url(#SVGID_2_)" d="M57.501,26.367l-7.727-2.1l8.029-4.535c0.979-0.553,1.313-1.775,0.748-2.732
	s-1.816-1.287-2.793-0.732l-8.029,4.537l2.006-7.6c0.283-1.068-0.373-2.16-1.467-2.436c-1.09-0.279-2.207,0.367-2.49,1.436
	l-3.012,11.402l-23.578,13.32L7.591,33.779c-1.088-0.297-2.213,0.328-2.516,1.391c-0.303,1.064,0.336,2.168,1.424,2.463l7.729,2.098
	l-8.031,4.537C5.22,44.82,4.884,46.043,5.448,47c0.379,0.641,1.066,1,1.771,1c0.348,0,0.699-0.086,1.02-0.268l8.031-4.537
	l-2.006,7.598c-0.285,1.07,0.373,2.16,1.467,2.438c0.172,0.043,0.342,0.063,0.512,0.063c0.91,0,1.74-0.598,1.979-1.498l3.012-11.404
	L44.81,27.072l11.6,3.148c0.182,0.051,0.367,0.074,0.547,0.074c0.895,0,1.719-0.582,1.969-1.467
	C59.228,27.764,58.589,26.662,57.501,26.367z"/>
<radialGradient id="SVGID_3_" cx="32" cy="32" r="24.3154" gradientUnits="userSpaceOnUse">
	<stop  offset="0" style="stop-color:#82EAFF"/>
	<stop  offset="1" style="stop-color:#00C4FF"/>
	<a:midPointStop  offset="0" style="stop-color:#82EAFF"/>
	<a:midPointStop  offset="0.503" style="stop-color:#82EAFF"/>
	<a:midPointStop  offset="1" style="stop-color:#00C4FF"/>
</radialGradient>
<path fill="url(#SVGID_3_)" d="M57.804,44.268l-8.029-4.537l7.727-2.098c1.088-0.295,1.727-1.398,1.424-2.463
	c-0.301-1.063-1.422-1.688-2.516-1.391l-11.598,3.148l-23.578-13.32l-3.012-11.402c-0.283-1.068-1.398-1.715-2.49-1.436
	c-1.094,0.275-1.752,1.367-1.467,2.438l2.006,7.598l-8.031-4.537C7.263,15.715,6.013,16.043,5.448,17s-0.229,2.18,0.748,2.732
	l8.031,4.537l-7.729,2.098c-1.088,0.295-1.727,1.396-1.424,2.461c0.25,0.887,1.072,1.467,1.969,1.467
	c0.18,0,0.365-0.023,0.547-0.074l11.6-3.148l23.576,13.32l3.012,11.402c0.238,0.902,1.068,1.5,1.979,1.5
	c0.168,0,0.34-0.021,0.512-0.064c1.094-0.275,1.75-1.367,1.467-2.436l-2.006-7.6l8.029,4.537C56.081,47.914,56.433,48,56.78,48
	c0.705,0,1.393-0.359,1.771-1C59.116,46.043,58.782,44.82,57.804,44.268z"/>
</svg>
