<?xml version="1.0" encoding="utf-8"?>
<!-- Generator: Adobe Illustrator 15.0.0, SVG Export Plug-In . SVG Version: 6.00 Build 0)  -->
<!DOCTYPE svg PUBLIC "-//W3C//DTD SVG 1.1//EN" "http://www.w3.org/Graphics/SVG/1.1/DTD/svg11.dtd" [
	<!ENTITY ns_flows "http://ns.adobe.com/Flows/1.0/">
	<!ENTITY ns_extend "http://ns.adobe.com/Extensibility/1.0/">
	<!ENTITY ns_ai "http://ns.adobe.com/AdobeIllustrator/10.0/">
	<!ENTITY ns_graphs "http://ns.adobe.com/Graphs/1.0/">
]>
<svg version="1.1" id="Layer_1" xmlns:x="&ns_extend;" xmlns:i="&ns_ai;" xmlns:graph="&ns_graphs;"
	 xmlns="http://www.w3.org/2000/svg" xmlns:xlink="http://www.w3.org/1999/xlink" xmlns:a="http://ns.adobe.com/AdobeSVGViewerExtensions/3.0/"
	 x="0px" y="0px" width="64px" height="64px" viewBox="0 0 64 64" enable-background="new 0 0 64 64" xml:space="preserve">
<linearGradient id="SVGID_1_" gradientUnits="userSpaceOnUse" x1="54.792" y1="52.8076" x2="8.4629" y2="52.8076">
	<stop  offset="0" style="stop-color:#C90100"/>
	<stop  offset="0.1791" style="stop-color:#D91212"/>
	<stop  offset="0.4756" style="stop-color:#EE2928"/>
	<stop  offset="0.7557" style="stop-color:#FB3636"/>
	<stop  offset="1" style="stop-color:#FF3B3B"/>
	<a:midPointStop  offset="0" style="stop-color:#C90100"/>
	<a:midPointStop  offset="0.3212" style="stop-color:#C90100"/>
	<a:midPointStop  offset="1" style="stop-color:#FF3B3B"/>
</linearGradient>
<path fill="url(#SVGID_1_)" d="M35.255,47.614h-6.923c-1.111,0-1.731,0.62-1.731,1.731v6.923c0,1.112,0.62,1.731,1.731,1.731h6.923
	c1.111,0,1.73-0.619,1.73-1.731v-6.923C36.985,48.234,36.366,47.614,35.255,47.614z"/>
<linearGradient id="SVGID_2_" gradientUnits="userSpaceOnUse" x1="54.7939" y1="23.437" x2="8.4618" y2="23.437">
	<stop  offset="0" style="stop-color:#C90100"/>
	<stop  offset="0.1791" style="stop-color:#D91212"/>
	<stop  offset="0.4756" style="stop-color:#EE2928"/>
	<stop  offset="0.7557" style="stop-color:#FB3636"/>
	<stop  offset="1" style="stop-color:#FF3B3B"/>
	<a:midPointStop  offset="0" style="stop-color:#C90100"/>
	<a:midPointStop  offset="0.3212" style="stop-color:#C90100"/>
	<a:midPointStop  offset="1" style="stop-color:#FF3B3B"/>
</linearGradient>
<path fill="url(#SVGID_2_)" d="M32.741,6c-8.964,0-16.945,4.701-17.783,14.631c-0.073,1.184,0.601,1.804,1.712,1.804h6.577
	c1.039,0,1.604-0.565,1.84-1.622c0.656-3.37,3.48-5.047,7.325-5.047c4.19,0,6.614,1.913,6.614,5.302
	c0,6.706-10.659,9.767-12.062,18.002c-0.236,1.13,0.492,1.804,1.604,1.804h6.687c1.039,0,1.494-0.51,1.84-1.494
	c1.768-5.611,11.952-9.109,11.952-19.076C49.047,10.956,40.958,6,32.741,6z"/>
</svg>
