<?xml version="1.0" encoding="utf-8"?>
<!-- Generator: Adobe Illustrator 19.0.0, SVG Export Plug-In . SVG Version: 6.00 Build 0)  -->
<svg version="1.1" id="Layer_1" xmlns="http://www.w3.org/2000/svg" xmlns:xlink="http://www.w3.org/1999/xlink" x="0px" y="0px"
	 width="64px" height="64px" viewBox="0 0 64 64" enable-background="new 0 0 64 64" xml:space="preserve">
<g>
	<linearGradient id="SVGID_1_" gradientUnits="userSpaceOnUse" x1="36.1224" y1="12.8118" x2="30.9974" y2="43.1868">
		<stop  offset="0" style="stop-color:#FDD41E"/>
		<stop  offset="0.2602" style="stop-color:#FBC50E"/>
		<stop  offset="0.4519" style="stop-color:#F9B700"/>
		<stop  offset="0.582" style="stop-color:#F8B200"/>
		<stop  offset="1" style="stop-color:#F6A401"/>
	</linearGradient>
	<path fill="url(#SVGID_1_)" d="M60.146,54.634c-14.061-8.682-16.969-24.088-18.701-39.227c-0.379-3.312-2.344-10.359-7.361-7.018
		C32.047,9.744,31,11.947,29.818,14.01c-1.354,2.367-2.869,4.558-4.625,6.536C24.88,15.472,24.36,10.335,22.878,5.69
		c-1.145-3.582-5.334-5.153-7.992-1.972C12.8,6.214,10.978,14,6.853,12.798c-4.873-1.419-6.939,6.131-2.088,7.544
		c4.295,1.251,8.078-0.104,11.037-3.358c0.41-0.452,0.785-0.935,1.141-1.432c0.523,4.406,0.58,8.974,0.852,13.188
		c0.178,2.742,3.275,5.158,5.908,3.378c4.475-3.027,7.691-6.679,10.559-10.787c0.1,0.868,0.195,1.736,0.316,2.602
		c2.08,15.102,8.166,29.159,21.605,37.456C60.499,64.056,64.44,57.285,60.146,54.634z"/>
</g>
</svg>
