<?xml version="1.0" encoding="utf-8"?>
<!-- Generator: Adobe Illustrator 19.0.0, SVG Export Plug-In . SVG Version: 6.00 Build 0)  -->
<svg version="1.1" id="Layer_1" xmlns="http://www.w3.org/2000/svg" xmlns:xlink="http://www.w3.org/1999/xlink" x="0px" y="0px"
	 width="64px" height="64px" viewBox="0 0 64 64" enable-background="new 0 0 64 64" xml:space="preserve">
<linearGradient id="SVGID_1_" gradientUnits="userSpaceOnUse" x1="32" y1="2" x2="32" y2="62">
	<stop  offset="0" style="stop-color:#FF3B3B"/>
	<stop  offset="0.2558" style="stop-color:#FB3737"/>
	<stop  offset="0.5207" style="stop-color:#F02B2A"/>
	<stop  offset="0.7889" style="stop-color:#DD1616"/>
	<stop  offset="1" style="stop-color:#C90100"/>
</linearGradient>
<path fill="url(#SVGID_1_)" d="M2,32C2,15.436,15.438,2,32,2c16.572,0,30,13.436,30,30c0,16.57-13.428,30-30,30
	C15.438,62,2,48.57,2,32z"/>
<path fill="#FFFFFF" d="M25.842,36.545c-0.318-0.656-0.793-1.639-1.375-2.623V49h-4.389V35.508c-1.162,3.004-2.482,5.68-3.963,7.592
	c-0.371-1.42-1.375-3.551-2.115-4.861c1.957-2.35,3.859-6.336,5.129-10.106h-4.547v-4.589h5.496v-4.097
	c-1.531,0.272-3.012,0.491-4.439,0.655c-0.211-1.093-0.793-2.733-1.375-3.823c4.072-0.602,8.723-1.64,11.42-3.005l3.225,3.715
	c-1.322,0.601-2.853,1.092-4.441,1.529v5.025h3.699v4.589h-3.699v0.327c0.898,0.875,3.014,3.167,3.912,4.261
	c0.422-2.021,0.688-4.261,0.846-6.336l3.543,0.874c-0.318,4.425-0.953,9.45-2.75,12.509l-3.383-1.803
	c0.633-1.201,1.162-2.678,1.531-4.315L25.842,36.545z"/>
<path fill="#FFFFFF" d="M45.613,38.566c-0.105-2.404-0.846-5.736-1.85-8.796c-1.746,3.88-3.807,7.321-6.24,10.325v2.459
	c0,1.529,0.16,1.748,1.217,1.748h3.172c1.004,0,1.217-0.766,1.375-5.682c0.951,0.766,2.695,1.529,3.963,1.803
	c-0.422,6.445-1.584,8.193-4.861,8.193h-4.283c-3.33,0-4.598-0.928-4.916-3.934c-1.32,1.148-2.695,2.24-4.123,3.225
	c-0.688-0.93-2.539-2.732-3.543-3.553c2.856-1.746,5.393-3.822,7.561-6.281V21.305h4.439v10.598
	c2.803-4.808,4.76-10.489,6.082-16.936l4.65,0.874c-0.846,3.771-1.85,7.267-3.066,10.489l1.639-0.436
	c1.639,3.551,2.908,8.247,3.172,11.362L45.613,38.566z"/>
<path fill="#FFFFFF" d="M39.111,22.178c-1.482-1.802-4.652-4.369-7.402-6.009l3.014-3.168c2.697,1.475,5.975,3.823,7.561,5.682
	L39.111,22.178z"/>
</svg>
