<svg width="24" height="24" viewBox="0 0 24 24" fill="none" xmlns="http://www.w3.org/2000/svg">
<g clip-path="url(#clip0)">
<path d="M8 11.125C7.8235 11.125 7.72715 11.1871 7.70712 11.2071C7.31661 11.5976 6.68344 11.5977 6.29291 11.2071C5.90238 10.8166 5.90236 10.1835 6.29288 9.79293C6.77285 9.31294 7.4265 9.125 8 9.125C8.57349 9.125 9.22715 9.31293 9.70713 9.79293C10.0976 10.1835 10.0976 10.8166 9.70709 11.2071C9.31655 11.5977 8.68339 11.5976 8.29287 11.2071C8.27285 11.1871 8.17651 11.125 8 11.125Z" fill="black"/>
<path d="M15.7071 11.2071C15.7272 11.1871 15.8235 11.125 16 11.125C16.1765 11.125 16.2728 11.1871 16.2929 11.2071C16.6834 11.5976 17.3166 11.5977 17.7071 11.2071C18.0976 10.8166 18.0976 10.1835 17.7071 9.79293C17.2272 9.31293 16.5735 9.125 16 9.125C15.4265 9.125 14.7728 9.31294 14.2929 9.79293C13.9024 10.1835 13.9024 10.8166 14.2929 11.2071C14.6834 11.5977 15.3166 11.5976 15.7071 11.2071Z" fill="black"/>
<path d="M10 13.25C10 14.0591 10.5819 14.65 11.118 15.0227L11.1072 15.0385C11.0753 15.085 11.0252 15.1544 10.9591 15.2355C10.8229 15.4027 10.6389 15.5946 10.4265 15.7433C10.2143 15.8918 10.0162 15.968 9.83515 15.9781C9.6744 15.987 9.43369 15.9503 9.1 15.7C8.65817 15.3686 8.03137 15.4582 7.7 15.9C7.36863 16.3418 7.45817 16.9686 7.9 17.3C8.56631 17.7997 9.26309 18.013 9.94609 17.975C10.6088 17.9382 11.1607 17.6707 11.5735 17.3817C11.7297 17.2724 11.8721 17.1557 12 17.0392C12.1279 17.1557 12.2703 17.2724 12.4265 17.3817C12.8393 17.6707 13.3912 17.9382 14.0539 17.975C14.7369 18.013 15.4337 17.7997 16.1 17.3C16.5418 16.9686 16.6314 16.3418 16.3 15.9C15.9686 15.4582 15.3418 15.3686 14.9 15.7C14.5663 15.9503 14.3256 15.987 14.1648 15.9781C13.9838 15.968 13.7857 15.8918 13.5735 15.7433C13.3611 15.5946 13.1771 15.4027 13.0409 15.2355C12.9748 15.1544 12.9247 15.085 12.8928 15.0385L12.882 15.0227C13.4181 14.65 14 14.0591 14 13.25C14 12.75 13.5 12.25 13 12.25C12.25 12.25 12 13 12 13C12 13 11.75 12.25 11 12.25C10.5 12.25 10 12.75 10 13.25Z" fill="black"/>
<path fill-rule="evenodd" clip-rule="evenodd" d="M8.65079 2.74074C9.07093 3.10086 9.43497 3.4586 9.70893 3.74364C11.1572 3.08545 12.8428 3.08545 14.2911 3.74364C14.565 3.4586 14.9291 3.10086 15.3492 2.74074C15.8174 2.33945 16.376 1.91717 16.9743 1.59085C17.5614 1.27058 18.2639 1 19 1C19.8975 1 20.4935 1.53083 20.8281 2.12672C21.1381 2.67861 21.2721 3.34915 21.3344 3.93794C21.4493 5.02361 21.3519 6.18571 21.2883 6.75697C21.7479 7.50031 22.75 9.41323 22.75 12C22.75 18.0523 18.0523 22.75 12 22.75C5.94772 22.75 1.25 18.0523 1.25 12C1.25 9.41323 2.25211 7.50031 2.71168 6.75697C2.6481 6.18571 2.55068 5.02361 2.66555 3.93794C2.72785 3.34915 2.86193 2.67861 3.17188 2.12672C3.50654 1.53083 4.10246 1 5 1C5.7361 1 6.43855 1.27058 7.02573 1.59085C7.62398 1.91717 8.18262 2.33945 8.65079 2.74074ZM4.71532 6.6723C4.65972 6.21687 4.55257 5.1113 4.65445 4.14838C4.70648 3.65666 4.80362 3.30563 4.91569 3.10606C4.95226 3.04095 4.97986 3.01121 4.99175 3.00013L5 3C5.2639 3 5.62395 3.10442 6.06802 3.34665C6.50102 3.58283 6.94238 3.91055 7.34921 4.25926C7.7528 4.60519 8.10201 4.95412 8.35111 5.21787C8.47505 5.34911 8.57272 5.45767 8.63831 5.53212C8.67108 5.56932 8.69574 5.59789 8.71158 5.6164L8.7286 5.63642L8.73224 5.64074C9.05948 6.03286 9.62968 6.11539 10.0547 5.83205C11.2188 5.05598 12.7812 5.05598 13.9453 5.83205C14.3704 6.11547 14.941 6.03256 15.2682 5.64018L15.2714 5.63642L15.2884 5.6164C15.3043 5.59789 15.3289 5.56932 15.3617 5.53212C15.4273 5.45767 15.5249 5.34911 15.6489 5.21787C15.898 4.95412 16.2472 4.60519 16.6508 4.25926C17.0576 3.91055 17.499 3.58283 17.932 3.34665C18.3761 3.10442 18.7361 3 19 3L19.0083 3.00013C19.0201 3.01121 19.0477 3.04095 19.0843 3.10606C19.1964 3.30563 19.2935 3.65666 19.3455 4.14838C19.4474 5.1113 19.3403 6.21687 19.2847 6.6723C19.2384 7.05131 19.3351 7.41805 19.5285 7.71591C19.8274 8.1764 20.75 9.78394 20.75 12C20.75 16.9477 16.9477 20.75 12 20.75C7.05228 20.75 3.25 16.9477 3.25 12C3.25 9.78394 4.17259 8.1764 4.47155 7.71591C4.66493 7.41805 4.7616 7.05131 4.71532 6.6723ZM4.99175 3.00013L4.98527 3.00048C4.98527 3.00048 4.99148 2.99919 4.99818 2.99464C4.99818 2.99464 4.99594 2.99623 4.99175 3.00013Z" fill="black"/>
</g>
<defs>
<clipPath id="clip0">
<rect width="24" height="24" fill="white"/>
</clipPath>
</defs>
</svg>
