<svg width="24" height="24" viewBox="0 0 24 24" fill="none" xmlns="http://www.w3.org/2000/svg">
<g clip-path="url(#clip0)">
<path fill-rule="evenodd" clip-rule="evenodd" d="M12 3.25C7.16751 3.25 3.25 7.16751 3.25 12C3.25 16.8325 7.16751 20.75 12 20.75C16.8325 20.75 20.75 16.8325 20.75 12C20.75 7.16751 16.8325 3.25 12 3.25ZM1.25 12C1.25 6.06294 6.06294 1.25 12 1.25C17.9371 1.25 22.75 6.06294 22.75 12C22.75 17.9371 17.9371 22.75 12 22.75C6.06294 22.75 1.25 17.9371 1.25 12ZM11.5 6C12.0523 6 12.5 6.44772 12.5 7V12.0401L15.6508 14.7407C16.0701 15.1002 16.1187 15.7315 15.7593 16.1508C15.3998 16.5701 14.7685 16.6187 14.3492 16.2593L10.8492 13.2593C10.6276 13.0693 10.5 12.7919 10.5 12.5V7C10.5 6.44772 10.9477 6 11.5 6Z" fill="black"/>
</g>
<defs>
<clipPath id="clip0">
<rect width="24" height="24" fill="white"/>
</clipPath>
</defs>
</svg>
