<svg width="24" height="24" viewBox="0 0 24 24" fill="none" xmlns="http://www.w3.org/2000/svg">
<g clip-path="url(#clip0)">
<path fill-rule="evenodd" clip-rule="evenodd" d="M12 1.25C6.06294 1.25 1.25 6.06294 1.25 12C1.25 17.9371 6.06294 22.75 12 22.75C17.9371 22.75 22.75 17.9371 22.75 12C22.75 6.06294 17.9371 1.25 12 1.25ZM3.28249 11.2408C3.66729 6.76376 7.4233 3.25 12 3.25C16.4172 3.25 20.0699 6.52312 20.6651 10.7763C20.6626 10.7584 20.66 10.7405 20.6574 10.7226C18.3421 10.3166 16.721 9.55689 15.5821 8.41794C14.4432 7.279 13.6834 5.65795 13.2775 3.34264C12.8605 3.28165 12.4339 3.25 12 3.25C11.7442 3.25 11.491 3.26104 11.2407 3.28255C11.6697 6.05441 12.5705 8.2348 14.1679 9.83216C15.7652 11.4295 17.9456 12.3303 20.7175 12.7593C20.3542 16.986 16.986 20.3542 12.7593 20.7175C12.3303 17.9457 11.4295 15.7653 9.83211 14.1679C8.23475 12.5706 6.05436 11.6697 3.28249 11.2408ZM10.7225 20.6574C10.3166 18.3421 9.55684 16.7211 8.4179 15.5821C7.27895 14.4432 5.65789 13.6835 3.34259 13.2775C3.89992 17.0874 6.91257 20.1001 10.7225 20.6574Z" fill="black"/>
</g>
<defs>
<clipPath id="clip0">
<rect width="24" height="24" fill="white"/>
</clipPath>
</defs>
</svg>
