<svg width="24" height="24" viewBox="0 0 24 24" fill="none" xmlns="http://www.w3.org/2000/svg">
<g clip-path="url(#clip0)">
<path fill-rule="evenodd" clip-rule="evenodd" d="M8.9195 2C7.3593 2 5.94148 2.90717 5.28766 4.32377L3.5244 8.14417L1.44722 7.10557C0.953241 6.85858 0.352567 7.05881 0.105578 7.55279C-0.141411 8.04676 0.0588133 8.64744 0.552792 8.89443L2.01069 9.62338C1.07138 10.4875 0.587769 11.7644 0.75012 13.0632L1.50001 19.0623V21C1.50001 21.5523 1.94772 22 2.50001 22H6.50001C6.95887 22 7.35886 21.6877 7.47015 21.2425L7.78078 20H16.2192L16.5299 21.2425C16.6412 21.6877 17.0411 22 17.5 22H21.5C22.0523 22 22.5 21.5523 22.5 21V19.0623L23.2499 13.0632C23.4122 11.7644 22.9286 10.4875 21.9893 9.62338L23.4472 8.89443C23.9412 8.64744 24.1414 8.04676 23.8944 7.55279C23.6474 7.05881 23.0468 6.85858 22.5528 7.10557L20.4756 8.14417L18.7123 4.32377C18.0585 2.90717 16.6407 2 15.0805 2H8.9195ZM18.4371 8.5H5.56291L7.10358 5.16189C7.43049 4.45358 8.1394 4 8.9195 4H15.0805C15.8606 4 16.5695 4.45358 16.8964 5.16188L18.4371 8.5ZM5.6644 12.5136C5.11963 12.4228 4.6044 12.7908 4.51361 13.3356C4.42281 13.8803 4.79083 14.3956 5.3356 14.4864L8.3356 14.9864C8.88037 15.0772 9.3956 14.7091 9.4864 14.1644C9.57719 13.6196 9.20917 13.1044 8.6644 13.0136L5.6644 12.5136ZM18.6644 14.4864C19.2092 14.3956 19.5772 13.8803 19.4864 13.3356C19.3956 12.7908 18.8804 12.4228 18.3356 12.5136L15.3356 13.0136C14.7908 13.1044 14.4228 13.6196 14.5136 14.1644C14.6044 14.7091 15.1196 15.0772 15.6644 14.9864L18.6644 14.4864Z" fill="black"/>
</g>
<defs>
<clipPath id="clip0">
<rect width="24" height="24" fill="white"/>
</clipPath>
</defs>
</svg>
