<svg xmlns="http://www.w3.org/2000/svg" width="40" height="40" viewBox="0 0 40 40">
    <g fill="none" fill-rule="nonzero">
        <rect width="40" height="40" fill="#0D2944" fill-opacity=".03" rx="20"/>
        <g transform="translate(5.833 9.167)">
            <ellipse cx="21.975" cy="6.186" fill="#96C823" rx="4.136" ry="4.123"/>
            <path fill="#717FA1" d="M8.388 12.226c-4.368 0-6.993 2.958-8.07 6.974a1.934 1.934 0 0 0 1.869 2.434H14.79a1.776 1.776 0 0 0 1.728-2.19c-.99-4.14-3.675-7.218-8.131-7.218z"/>
            <path fill="#96C823" d="M21.346 12.353c-1.948 0-3.224.77-4.556 1.984a12.071 12.071 0 0 1 2.597 5.517h7.154a1.545 1.545 0 0 0 1.491-1.948c-.86-3.183-3.223-5.553-6.686-5.553z"/>
            <ellipse cx="8.388" cy="5.264" fill="#717FA1" rx="5.207" ry="5.191"/>
        </g>
    </g>
</svg>
