<svg xmlns="http://www.w3.org/2000/svg" xmlns:xlink="http://www.w3.org/1999/xlink"  width="100%" height="100%" viewBox="0 0 36 36">
    <defs>
        <path id="a" d="M0 0h36v36H0z"/>
    </defs>
    <g fill="none" fill-rule="evenodd">
        <mask id="b" fill="#fff">
            <use xlink:href="#a"/>
        </mask>
        <use fill="#FFF" fill-rule="nonzero" xlink:href="#a"/>
        <rect width="31.5" height="31.5" x="2.25" y="2.25" fill="#FFF" fill-rule="nonzero" mask="url(#b)" rx="15.75"/>
        <g mask="url(#b)">
            <circle cx="19.92" cy="19.92" r="16.966" stroke="#D4E5FF" stroke-width="1.597" transform="rotate(1 130.593 -88.244)"/>
            <path fill="#EFF5FE" fill-rule="nonzero" stroke="#EFF5FE" stroke-width=".5" d="M31.952 17.987c0-7.7-6.265-13.965-13.965-13.965S4.022 10.287 4.022 17.987c0 2.86.865 5.52 2.345 7.736l.096.15c.083.123.174.239.261.358l.107.146a14.091 14.091 0 0 0 2.208 2.321c.038.032.076.065.116.097.138.113.278.224.421.331l.175.13c.136.099.272.198.411.292.075.05.152.098.228.148.193.125.389.247.588.362.139.081.278.162.42.238.085.046.173.09.26.133a13.391 13.391 0 0 0 1.231.556l.17.067a13.83 13.83 0 0 0 2.303.65l.189.034c.006 0 .097.017.272.048.056.009.112.015.167.023a26.92 26.92 0 0 1 .385.05c.185.02.37.037.558.051.039.003.078.008.116.01l.135.01c.266.014.533.024.803.024a14.325 14.325 0 0 0 .94-.034l.119-.01a14.457 14.457 0 0 0 .782-.081l.09-.012c.128-.017.181-.023.233-.032l.261-.036c.074-.024.137-.034.2-.046a13.937 13.937 0 0 0 2.304-.65l.17-.067a14.508 14.508 0 0 0 .774-.331c.154-.072.306-.147.457-.224l.26-.133c.142-.077.28-.157.42-.238.2-.116.395-.237.588-.363.076-.05.153-.097.228-.147.139-.095.275-.193.411-.293.058-.043.117-.085.175-.13.142-.107.283-.217.421-.33l.116-.097a14.008 14.008 0 0 0 2.208-2.322l.106-.145c.088-.12.178-.236.262-.358l.096-.141a13.946 13.946 0 0 0 2.344-7.745z"/>
            <path fill="#4285F4" fill-rule="nonzero" stroke="#EFF5FE" stroke-width=".5" d="M15.888 18.8c-2.226-.824-3.953-4.628-3.953-7.35 0-.06.007-.119.01-.178l.34-.42c.769-.914 2.08-1.176 3.264-.652.476.212.983.318 1.507.318a3.704 3.704 0 0 0 3.272-1.948c1.48.487 2.803 1.404 3.697 2.56.136 2.84-1.533 6.765-3.91 7.658-.227.086-1.16.543-2.13.543-.926-.001-1.892-.455-2.097-.531z"/>
            <path fill="#EFF5FE" fill-rule="nonzero" stroke="#EFF5FE" stroke-width="1.556" d="M31.021 17.987c0 2.314-.61 4.488-1.672 6.375a6.345 6.345 0 0 0-5.579-4.489l-.518-.024-2.002.222h-.543a.17.17 0 0 1-.17-.17v-.3c0-.085.07-.14.128-.164 2.998-1.127 4.645-6.024 4.253-9.294-.205-1.703-.732-2.978-1.957-4.08 4.893 1.878 8.06 6.378 8.06 11.924zM12.882 6.062c-.09.081.26-.086.173 0a6.936 6.936 0 0 0-2.05 4.942c0 3.086 1.728 7.481 4.338 8.446.055.021.094.085.094.156v.295a.17.17 0 0 1-.17.17h-.543l-2.002-.222h-.254a.49.49 0 0 0-.13.018 6.344 6.344 0 0 0-5.713 4.495 12.95 12.95 0 0 1-1.672-6.375c0-5.544 3.04-10.044 7.93-11.925z"/>
            <path fill="#4285F4" fill-rule="nonzero" d="M18.006 5.399h.015c.228 0 .451.014.666.038 2.308.258 4.248 1.865 5.005 3.998a8.987 8.987 0 0 0-3.49-1.874l-.4-.11-.156.384a2.782 2.782 0 0 1-2.59 1.752c-.393 0-.774-.08-1.13-.238-1.287-.57-2.693-.415-3.732.34.286-.943.8-1.807 1.518-2.523A6.021 6.021 0 0 1 18.006 5.4zM7.794 24.959c.434-2.158 1.282-3.23 4.143-3.887 1.327-.105 3.694-.052 5.937-.054 2.66-.001 4.914-.032 6.186.054 1.738.335 3.565 1.006 4.122 3.965-2.132 2.716-5.22 5.11-10.161 5.11-4.94 0-8.413-2.625-10.227-5.188z"/>
            <path fill="#EFF5FE" fill-rule="nonzero" d="M17.163 22.551h1.648l1.203 5.814H15.96z"/>
            <path fill="#EFF5FE" fill-rule="nonzero" d="M16.561 20.536h2.851v2.172h-2.851z"/>
            <path stroke="#EFF5FE" stroke-width="1.779" d="M24.774 11.145c-.394-.597-2.41-2.574-4.653-2.987-.262.663-1.134 2.187-3.576 2.002-1.168-.161-1.653-.57-2.465-.508-.93.076-2.649.854-2.929 1.987"/>
        </g>
    </g>
</svg>
