<?xml version="1.0" encoding="utf-8"?>
<!-- Generator: Adobe Illustrator 22.1.0, SVG Export Plug-In . SVG Version: 6.00 Build 0)  -->
<svg version="1.1" id="Слой_1" xmlns="http://www.w3.org/2000/svg" xmlns:xlink="http://www.w3.org/1999/xlink" x="0px" y="0px"
	 viewBox="0 0 24 24" width="24" height="24" style="enable-background:new 0 0 24 24;" xml:space="preserve">
<style type="text/css">
	.st0{fill:#BCC3CC;}
</style>
<g>
	<path class="st0" d="M4.6,9.1L4.6,9.1c0.2,0.2,0.9,0.7,2.1,1.5c0.9,0.6,1.8,1.2,2.7,1.9l0.4,0.3c0.2,0.2,0.4,0.3,0.6,0.4
		c0.1,0.1,0.3,0.2,0.5,0.3c0.2,0.1,0.4,0.2,0.6,0.3c0.2,0.1,0.4,0.1,0.5,0.1h0c0.2,0,0.3,0,0.5-0.1c0.2-0.1,0.4-0.2,0.6-0.3
		c0.2-0.1,0.4-0.2,0.5-0.3c0.1-0.1,0.3-0.2,0.6-0.4l0.4-0.3l4.8-3.3c0.5-0.3,0.9-0.8,1.2-1.3c0.3-0.5,0.5-1,0.5-1.5
		c0-0.4-0.2-0.8-0.5-1.2c-0.3-0.3-0.7-0.5-1.2-0.5h-15c-0.5,0-0.9,0.2-1.2,0.5C3,5.6,2.8,6,2.8,6.6C2.8,7,3,7.5,3.4,8
		C3.8,8.5,4.2,8.8,4.6,9.1z"/>
	<path class="st0" d="M20.1,10.2c-2.2,1.5-3.9,2.7-5.1,3.5c-0.4,0.3-0.7,0.5-0.9,0.7c-0.2,0.2-0.6,0.3-1,0.5
		c-0.4,0.2-0.8,0.2-1.1,0.2h0c-0.3,0-0.7-0.1-1.1-0.2c-0.3-0.1-0.7-0.3-1-0.5c-0.2-0.2-0.6-0.4-0.9-0.7c-0.9-0.7-2.6-1.9-5.1-3.5
		c-0.4-0.3-0.7-0.6-1-0.9v8.1c0,0.5,0.2,0.8,0.5,1.2c0.3,0.3,0.7,0.5,1.2,0.5h15c0.5,0,0.8-0.2,1.2-0.5c0.3-0.3,0.5-0.7,0.5-1.2V9.3
		C20.8,9.7,20.5,10,20.1,10.2L20.1,10.2z"/>
</g>
</svg>
