<?xml version="1.0" encoding="utf-8"?>
<!-- Generator: Adobe Illustrator 22.1.0, SVG Export Plug-In . SVG Version: 6.00 Build 0)  -->
<svg version="1.1" id="Слой_1" xmlns="http://www.w3.org/2000/svg" xmlns:xlink="http://www.w3.org/1999/xlink" x="0px" y="0px"
	 viewBox="0 0 24 24" width="24" height="24" style="enable-background:new 0 0 24 24;" xml:space="preserve">
<style type="text/css">
	.st0{fill:#BCC3CC;}
</style>
<g>
	<polygon class="st0" points="10.8,11.3 12.2,11.3 12.5,9.9 11.2,9.9 	"/>
	<path class="st0" d="M11.8,2C6.9,2,3,5.9,3,10.8c0,4.8,3.9,8.7,8.7,8.8v2.7c0,0.1,0,0.2,0.1,0.3c0.2,0.2,0.4,0.2,0.6,0l5.3-5.3
		c1.8-1.7,2.9-4,2.9-6.5C20.5,5.9,16.6,2,11.8,2z M16.2,8.6l-0.3,1.2c0,0.1-0.1,0.1-0.2,0.1H14l-0.3,1.4h1.6c0.1,0,0.1,0,0.1,0.1
		c0,0,0,0.1,0,0.1l-0.3,1.2c0,0.1-0.1,0.1-0.2,0.1h-1.7l-0.4,1.8c0,0.1-0.1,0.1-0.2,0.1h-1.2c-0.1,0-0.1,0-0.1-0.1c0,0,0-0.1,0-0.1
		l0.4-1.7h-1.3l-0.4,1.8c0,0.1-0.1,0.1-0.2,0.1H8.7c-0.1,0-0.1,0-0.1-0.1c0,0,0-0.1,0-0.1L9,12.8H7.3c-0.1,0-0.1,0-0.1-0.1
		c0,0,0-0.1,0-0.2l0.3-1.2c0-0.1,0.1-0.1,0.2-0.1h1.7l0.3-1.4H8c-0.1,0-0.1,0-0.1-0.1c0,0,0-0.1,0-0.2l0.3-1.2
		c0-0.1,0.1-0.1,0.2-0.1H10l0.4-1.8c0-0.1,0.1-0.1,0.2-0.1h1.2c0.1,0,0.1,0,0.1,0.1c0,0,0,0.1,0,0.1l-0.4,1.7h1.3l0.4-1.8
		c0-0.1,0.1-0.1,0.2-0.1h1.2c0.1,0,0.1,0,0.1,0.1c0,0,0,0.1,0,0.1l-0.4,1.7H16c0.1,0,0.1,0,0.1,0.1C16.2,8.5,16.2,8.5,16.2,8.6
		L16.2,8.6z"/>
</g>
</svg>
