<?xml version="1.0" encoding="utf-8"?>
<!-- Generator: Adobe Illustrator 22.1.0, SVG Export Plug-In . SVG Version: 6.00 Build 0)  -->
<svg version="1.1" id="Слой_1" xmlns="http://www.w3.org/2000/svg" xmlns:xlink="http://www.w3.org/1999/xlink" x="0px" y="0px"
	 viewBox="0 0 132 24" style="enable-background:new 0 0 132 24;" xml:space="preserve">
<style type="text/css">
	.st0{fill:#4256F4;}
</style>
<g>
	<g>
		<path d="M45.4,7.2c-0.5-1-1.1-1.9-1.9-2.7c-0.8-0.8-1.8-1.4-2.9-1.8c-1.1-0.4-2.2-0.6-3.4-0.6c-1.2,0-2.3,0.2-3.4,0.6
			c-1.1,0.4-2,1-2.9,1.8c-0.8,0.8-1.5,1.7-1.9,2.7c-0.4,1-0.7,2.1-0.7,3.2c0,1.1,0.2,2.2,0.7,3.2c0.4,1,1.1,1.9,1.9,2.7
			c0.8,0.8,1.8,1.4,2.9,1.8c1.1,0.4,2.2,0.6,3.4,0.6c1.1,0,2.3-0.2,3.4-0.6c1.1-0.4,2-1,2.9-1.8c0.8-0.8,1.5-1.7,1.9-2.7
			c0.4-1,0.7-2.1,0.7-3.2h0C46,9.3,45.8,8.3,45.4,7.2z M42.8,12.7c-0.3,0.7-0.8,1.4-1.3,1.9c-1.1,1.1-2.7,1.7-4.3,1.7
			c-0.8,0-1.6-0.1-2.3-0.4c-0.7-0.3-1.4-0.7-2-1.3c-1.1-1.1-1.8-2.6-1.8-4.2c0-0.8,0.1-1.6,0.5-2.3c0.3-0.7,0.7-1.4,1.3-1.9
			c0.6-0.6,1.2-1,2-1.3c0.7-0.3,1.5-0.4,2.3-0.4c0.8,0,1.6,0.2,2.3,0.5c0.7,0.3,1.4,0.7,1.9,1.3c0.6,0.5,1,1.2,1.3,1.9
			c0.3,0.7,0.5,1.5,0.5,2.3C43.2,11.2,43.1,12,42.8,12.7z"/>
		<path d="M55,7.7c-0.9,0-1.6,0.2-2.2,0.5c-0.6,0.3-1.1,0.9-1.4,1.5V8.1h-2.4v15.1h0h2.4V17c0.4,0.6,0.9,1,1.5,1.3
			c0.6,0.3,1.2,0.4,2,0.4c1.5,0,2.7-0.5,3.6-1.5c0.9-1,1.3-2.3,1.3-4.1c0-1.6-0.4-3-1.3-4C57.5,8.2,56.4,7.7,55,7.7z M56.4,15.8
			c-0.5,0.6-1.2,0.9-2.1,0.9c-0.9,0-1.6-0.3-2.2-1c-0.6-0.6-0.8-1.5-0.8-2.5h0c0-1.1,0.3-1.9,0.8-2.5c0.5-0.6,1.2-0.9,2.2-0.9
			s1.7,0.3,2.2,0.9c0.5,0.6,0.8,1.5,0.8,2.5C57.2,14.3,56.9,15.2,56.4,15.8z"/>
		<path d="M85,9.1c-0.3-0.5-0.8-0.8-1.3-1.1c-0.6-0.2-1.2-0.4-2-0.4c-0.9,0-1.8,0.2-2.4,0.5C78.5,8.5,78,9,77.5,9.7V8.1h-2.3v10.2
			h2.4v-4.7c0-0.8,0-1.5,0.1-1.8c0.1-0.3,0.2-0.7,0.4-0.9c0.3-0.4,0.6-0.7,1.1-0.9c0.4-0.2,1-0.3,1.5-0.3c0.9,0,1.5,0.2,1.8,0.7
			c0.3,0.4,0.5,1.3,0.5,2.7v5.3h2.5v-6.2c0-0.9,0-1.6-0.1-2S85.2,9.4,85,9.1z"/>
		<path d="M67.2,7.7c-1.6,0-3,0.5-4,1.6c-1,1-1.6,2.4-1.6,4c0,1.7,0.5,3,1.5,4c1,1,2.4,1.5,4.1,1.5c1.2,0,2.2-0.3,3.1-0.8
			c0.9-0.5,1.6-1.3,2.2-2.3l-2.1-1.1c-0.4,0.7-0.8,1.2-1.4,1.5c-0.5,0.3-1.2,0.5-2,0.5c-0.9,0-1.6-0.3-2.1-0.8
			c-0.5-0.5-0.8-1.3-0.9-2.2h8.5v-0.4c0-1.7-0.5-3-1.4-4C70.2,8.2,68.9,7.7,67.2,7.7z M70.1,12h-5.9c0.2-0.8,0.5-1.3,1-1.7
			s1.1-0.6,1.9-0.6c0.9,0,1.5,0.2,2,0.6C69.7,10.7,70,11.2,70.1,12L70.1,12z"/>
		<path d="M129.5,1.6v8.2c-0.3-0.7-0.7-1.2-1.4-1.5c-0.6-0.4-1.4-0.5-2.2-0.5c-1.4,0-2.6,0.5-3.5,1.5c-0.9,1-1.3,2.3-1.3,4
			c0,1.7,0.4,3.1,1.3,4.1c0.9,1,2.1,1.5,3.6,1.5c0.8,0,1.4-0.1,2-0.4c0.6-0.3,1.1-0.8,1.5-1.3v1.3h2.4V1.6H129.5z M128.7,15.7
			c-0.5,0.6-1.3,1-2.2,1c-0.9,0-1.7-0.3-2.2-0.9c-0.5-0.6-0.8-1.4-0.8-2.5c0-1.1,0.3-1.9,0.8-2.5c0.5-0.6,1.3-0.9,2.2-0.9
			c0.9,0,1.6,0.3,2.2,0.9c0.5,0.6,0.8,1.4,0.8,2.5C129.5,14.2,129.2,15.1,128.7,15.7z"/>
		<path d="M118,9.1c-0.3-0.5-0.8-0.8-1.3-1.1c-0.6-0.2-1.2-0.4-2-0.4c-0.9,0-1.8,0.2-2.4,0.5c-0.7,0.3-1.2,0.8-1.7,1.5V8.1h-2.3
			v10.2h2.4v-4.7c0-0.8,0-1.5,0.1-1.8c0.1-0.3,0.2-0.7,0.4-0.9c0.3-0.4,0.6-0.7,1.1-0.9c0.4-0.2,1-0.3,1.5-0.3
			c0.9,0,1.5,0.2,1.8,0.7c0.3,0.4,0.5,1.3,0.5,2.7v5.3h2.5v-6.2c0-0.9,0-1.6-0.1-2S118.2,9.4,118,9.1z"/>
		<path d="M102.4,9.7c-0.3-0.7-0.7-1.2-1.4-1.5c-0.6-0.4-1.4-0.5-2.2-0.5c-1.4,0-2.6,0.5-3.5,1.5c-0.9,1-1.3,2.3-1.3,4
			c0,1.7,0.4,3.1,1.3,4.1c0.9,1,2.1,1.5,3.6,1.5c0.8,0,1.4-0.1,2-0.4c0.6-0.3,1.1-0.8,1.5-1.3v1.3h2.4V8.1h-2.4V9.7z M101.7,15.7
			c-0.6,0.6-1.3,1-2.1,1c-0.9,0-1.7-0.3-2.2-0.9c-0.5-0.6-0.8-1.4-0.8-2.5c0-1.1,0.3-1.9,0.8-2.5c0.5-0.6,1.3-0.9,2.2-0.9
			c0.9,0,1.6,0.3,2.2,0.9c0.5,0.6,0.8,1.4,0.8,2.5C102.5,14.2,102.2,15,101.7,15.7z"/>
		<rect x="88.9" y="1.6" width="2.4" height="16.8"/>
	</g>
	<polygon class="st0" points="10.3,0 8.5,1.8 15.6,9 0,9 0,11.6 15.6,11.6 8.5,18.8 10.3,20.6 20.6,10.3 	"/>
</g>
</svg>
