<svg xmlns="http://www.w3.org/2000/svg" width="61" height="57" viewBox="0 0 61 57">
    <g fill="none" fill-rule="evenodd">
        <path fill="#654BFA" d="M57.132 28.4c0 15.686-12.73 28.4-28.435 28.4C12.993 56.8.262 44.087.262 28.4.262 12.716 12.992 0 28.697 0c15.704 0 28.435 12.716 28.435 28.4" opacity=".1"/>
        <path fill="#FFFFFE" d="M16.153 1.082h37.376V5.43h6.413v33.124l-1.843 3.43-4.57 2.718H22.595l-3.587-.854-2.855-3.45-.707-3.712-.43-34.748z"/>
        <path fill="#654BFA" fill-rule="nonzero" d="M59.703 3.798a1.22 1.22 0 0 0-1.215 1.218V37.36c0 3.422-2.776 6.194-6.179 6.194h-29.7c-3.413 0-6.178-2.782-6.178-6.194V2.468h35.584v31.377c0 .67.547 1.219 1.216 1.219a1.22 1.22 0 0 0 1.215-1.219V1.25A1.22 1.22 0 0 0 53.231.031H15.216A1.22 1.22 0 0 0 14 1.249v36.1c0 4.762 3.86 8.63 8.61 8.63h29.689c4.75 0 8.61-3.868 8.61-8.63V5.015a1.206 1.206 0 0 0-1.206-1.218z" opacity=".7"/>
        <path fill="#654BFA" fill-rule="nonzero" d="M47.356 9.495a1.22 1.22 0 0 0 1.215-1.219 1.22 1.22 0 0 0-1.215-1.219H20.858a1.22 1.22 0 0 0-1.216 1.219c0 .67.547 1.219 1.216 1.219h26.498zM47.356 31.895H20.858a1.22 1.22 0 0 0-1.216 1.219c0 .67.547 1.219 1.216 1.219h26.488a1.22 1.22 0 0 0 1.215-1.219c0-.67-.537-1.219-1.205-1.219zM47.356 38.14H25.06a1.22 1.22 0 0 0-1.215 1.219c0 .67.547 1.219 1.215 1.219h22.295a1.22 1.22 0 0 0 1.215-1.219 1.22 1.22 0 0 0-1.215-1.219zM19.237 13.75v13.18c0 .67.547 1.218 1.215 1.218h13.199a1.22 1.22 0 0 0 1.215-1.218V13.75a1.22 1.22 0 0 0-1.215-1.22H20.452a1.22 1.22 0 0 0-1.215 1.22zm2.43 1.218h10.768V25.71H21.668V14.968zM48.004 13.75h-8.741a1.22 1.22 0 0 0-1.216 1.218c0 .67.547 1.218 1.216 1.218h8.741a1.22 1.22 0 0 0 1.216-1.218c0-.67-.537-1.219-1.216-1.219zM48.004 19.253h-8.741a1.22 1.22 0 0 0-1.216 1.219c0 .67.547 1.218 1.216 1.218h8.741a1.22 1.22 0 0 0 1.216-1.218c0-.67-.537-1.219-1.216-1.219zM49.22 26.32a1.22 1.22 0 0 0-1.216-1.218h-8.741a1.22 1.22 0 0 0-1.216 1.219c0 .67.547 1.218 1.216 1.218h8.741c.679 0 1.216-.548 1.216-1.218z" opacity=".7"/>
    </g>
</svg>
