<svg xmlns="http://www.w3.org/2000/svg" width="57" height="62" viewBox="0 0 57 62">
    <g fill="#654BFA" fill-rule="evenodd">
        <path d="M56.806 33.73c0 15.496-12.653 28.057-28.262 28.057-15.61 0-28.263-12.56-28.263-28.057 0-15.495 12.654-28.057 28.263-28.057 15.609 0 28.262 12.562 28.262 28.057" opacity=".1"/>
        <g fill-rule="nonzero" opacity=".7">
            <path d="M3.226 47.032v1.022c0 .565.461 1.023 1.03 1.023h47.317c.568 0 1.029-.458 1.029-1.023v-1.022H3.226z"/>
            <path d="M22.77 18.404H6.313c-.568 0-1.028.458-1.028 1.022v28.628c0 .565.46 1.023 1.028 1.023h16.459c.568 0 1.029-.458 1.029-1.023V19.426c0-.564-.461-1.022-1.03-1.022zm-1.028 28.628h-14.4V20.449h14.4v26.583zM49.516 6.135H33.057c-.568 0-1.028.457-1.028 1.022v40.897c0 .565.46 1.023 1.028 1.023h16.459c.568 0 1.028-.458 1.028-1.023V7.157c0-.565-.46-1.022-1.028-1.022zm-1.029 40.897H34.086V8.179h14.401v38.853z"/>
            <path d="M42.315 0H14.542c-.569 0-1.03.458-1.03 1.022V16.36h2.058V2.045h25.717V4.09h2.057V1.022c0-.564-.46-1.022-1.029-1.022zM9.398 22.493h2.057v18.404H9.398zM13.513 22.493h2.057v18.404h-2.057zM17.627 22.493h2.057v18.404h-2.057zM33.057 11.247h11.315v2.045H33.057zM33.057 16.359h11.315v2.045H33.057zM33.057 21.471h11.315v2.045H33.057zM33.057 26.583h11.315v2.045H33.057zM33.057 31.695h11.315v2.045H33.057zM33.057 36.807h11.315v2.045H33.057z"/>
            <path d="M18.656 5.112h2.057v3.067h-2.057zM18.656 11.247h2.057v3.067h-2.057zM22.77 11.247h2.057v3.067H22.77zM22.77 5.112h2.057v3.067H22.77zM26.885 5.112h2.057v3.067h-2.057zM26.885 11.247h2.057v3.067h-2.057zM26.885 17.381h2.057v3.067h-2.057zM26.885 23.516h2.057v3.067h-2.057zM26.885 29.65h2.057v3.067h-2.057zM26.885 35.785h2.057v3.067h-2.057zM42.315 41.92h-5.143c-.568 0-1.029.457-1.029 1.022v5.112H38.2v-4.09h3.086v4.09h2.058v-5.112c0-.565-.46-1.022-1.029-1.022zM18.656 42.942h-8.229c-.568 0-1.029.458-1.029 1.022v4.09h2.058v-3.067h6.172v3.067h2.057v-4.09c0-.564-.46-1.022-1.029-1.022z"/>
        </g>
    </g>
</svg>
