<?xml version="1.0" encoding="utf-8"?>
<!-- Generator: Adobe Illustrator 22.1.0, SVG Export Plug-In . SVG Version: 6.00 Build 0)  -->
<svg version="1.1" id="Слой_1" xmlns="http://www.w3.org/2000/svg" xmlns:xlink="http://www.w3.org/1999/xlink" x="0px" y="0px"
	 viewBox="0 0 22 17" style="enable-background:new 0 0 22 17;" width="22" height="17" xml:space="preserve">
<g>
	<path d="M21,7H1C0.4,7,0,7.4,0,8v1c0,0.6,0.4,1,1,1h20c0.6,0,1-0.4,1-1V8C22,7.4,21.6,7,21,7z"/>
	<path d="M21,14H1c-0.6,0-1,0.4-1,1v1c0,0.6,0.4,1,1,1h20c0.6,0,1-0.4,1-1v-1C22,14.4,21.6,14,21,14z"/>
	<path d="M21,0H1C0.4,0,0,0.4,0,1v1c0,0.6,0.4,1,1,1h20c0.6,0,1-0.4,1-1V1C22,0.4,21.6,0,21,0z"/>
</g>
</svg>
