<svg width="32" height="32" viewBox="0 0 32 32" fill="none" xmlns="http://www.w3.org/2000/svg">
<g id="ic_android">
<rect id="Rectangle 2" opacity="0.01" width="32" height="32" fill="white" fill-opacity="0.01"/>
<path id="Android" fill-rule="evenodd" clip-rule="evenodd" d="M19.3613 6.093L19.6392 5.68437L19.9171 5.28161L20.5363 4.37615C20.6133 4.26444 20.5816 4.11451 20.4669 4.04101C20.3536 3.96605 20.198 3.99691 20.124 4.10863L19.1786 5.48593L18.8946 5.90044C17.996 5.56089 16.9947 5.37128 15.9375 5.37128C14.8818 5.37128 13.879 5.56089 12.9804 5.90044L12.6979 5.48593L12.4185 5.07876L11.754 4.10863C11.677 3.99691 11.5229 3.96752 11.4081 4.04101C11.2949 4.11451 11.2632 4.26444 11.3387 4.37615L11.9579 5.28161L12.2358 5.68437L12.5152 6.093C10.4053 7.04991 8.9781 8.8623 8.9781 10.9363H22.8969C22.8969 8.8623 21.4697 7.04991 19.3613 6.093ZM12.2086 8.27434C12.2086 8.67562 12.5424 9.00047 12.9547 9.00047C13.367 9.00047 13.7008 8.67562 13.7008 8.27434C13.7008 7.87305 13.367 7.54967 12.9547 7.54967C12.5424 7.54967 12.2086 7.87305 12.2086 8.27434ZM18.1742 8.27434C18.1742 8.67562 18.508 9.00047 18.9203 9.00047C19.3326 9.00047 19.6664 8.67562 19.6664 8.27434C19.6664 7.87305 19.3326 7.54967 18.9203 7.54967C18.508 7.54967 18.1742 7.87305 18.1742 8.27434ZM8.9781 11.9035H9.08533H22.8969V22.5486C22.8969 23.3938 22.1931 24.0817 21.3232 24.0817H20.1859C20.2252 24.2096 20.2479 24.3433 20.2479 24.4845V27.5492C20.2479 28.3503 19.5788 29 18.7542 29C17.9311 29 17.2635 28.3503 17.2635 27.5492V24.4845C17.2635 24.3433 17.2847 24.2096 17.3224 24.0817H14.5526C14.5903 24.2096 14.613 24.3433 14.613 24.4845V27.5492C14.613 28.3503 13.9439 29 13.1208 29C12.2977 29 11.6287 28.3503 11.6287 27.5492V24.4845C11.6287 24.3433 11.6498 24.2096 11.6891 24.0817H10.5533C9.6834 24.0817 8.9781 23.3938 8.9781 22.5486V11.9035ZM6.49216 11.9035C5.66755 11.9035 5 12.5532 5 13.3543V19.5647C5 20.3658 5.66755 21.0155 6.49216 21.0155C7.31527 21.0155 7.98282 20.3658 7.98282 19.5647V13.3543C7.98282 12.5532 7.31527 11.9035 6.49216 11.9035ZM23.8922 13.3543C23.8922 12.5532 24.5597 11.9035 25.3843 11.9035C26.2075 11.9035 26.875 12.5532 26.875 13.3543V19.5647C26.875 20.3658 26.2075 21.0155 25.3843 21.0155C24.5597 21.0155 23.8922 20.3658 23.8922 19.5647V13.3543Z" fill="#1790FF"/>
</g>
</svg>
