<?xml version="1.0" encoding="utf-8"?>
<!-- Generator: Adobe Illustrator 22.1.0, SVG Export Plug-In . SVG Version: 6.00 Build 0)  -->
<svg version="1.1" id="Слой_1" xmlns="http://www.w3.org/2000/svg" xmlns:xlink="http://www.w3.org/1999/xlink" x="0px" y="0px"
	 viewBox="0 0 18 16.4" style="enable-background:new 0 0 18 16.4;" width="18" height="17" xml:space="preserve">
<g>
	<path d="M2.1,0C0.8,0,0,0.8,0,1.9C0,3,0.8,3.9,2.1,3.9h0c1.3,0,2.1-0.9,2.1-1.9C4.2,0.8,3.4,0,2.1,0z"/>
	<rect x="0.5" y="5.2" width="3.5" height="11.1"/>
	<path d="M13.5,5.1c-2,0-3.3,1.1-3.5,1.9V5.2H6.1c0.1,0.9,0,11.1,0,11.1H10v-6c0-0.3,0-0.7,0.1-0.9
		C10.4,8.8,11,8.1,12,8.1c1.4,0,2,1,2,2.5v5.8h4v0v-6.2C18,6.7,16,5.1,13.5,5.1z"/>
</g>
</svg>
