<?xml version="1.0" encoding="utf-8"?>
<!-- Generator: Adobe Illustrator 22.1.0, SVG Export Plug-In . SVG Version: 6.00 Build 0)  -->
<svg version="1.1" id="Слой_1" xmlns="http://www.w3.org/2000/svg" xmlns:xlink="http://www.w3.org/1999/xlink" x="0px" y="0px"
	 viewBox="0 0 15 17" style="enable-background:new 0 0 15 17;" width="15" height="17" xml:space="preserve">
<path d="M14,12.9l-0.6-0.6c-0.9-0.9-1.9-1.5-3-0.8L9.8,12c-0.5,0.3-1.4,2-4.3-1.8S4.5,6,5,5.6l0.7-0.5c1.1-0.8,0.8-1.9,0.2-3
	L5.5,1.5C4.8,0.3,4.1-0.5,3,0.3L2.5,0.7C2,1,0.6,1.9,0.2,3.8c-0.6,2.3,0.3,5,2.7,8.2c2.4,3.1,4.8,4.8,7.2,5c2,0.2,3.3-0.8,3.7-1.1
	l0.6-0.4C15.5,14.7,14.9,13.8,14,12.9z"/>
</svg>
