<?xml version="1.0" encoding="utf-8"?>
<!-- Generator: Adobe Illustrator 22.1.0, SVG Export Plug-In . SVG Version: 6.00 Build 0)  -->
<svg version="1.1" id="Слой_1" xmlns="http://www.w3.org/2000/svg" xmlns:xlink="http://www.w3.org/1999/xlink" x="0px" y="0px"
	 viewBox="0 0 210 169" style="enable-background:new 0 0 210 169;" xml:space="preserve">
<style type="text/css">
	.privacy0{fill:#E3EDFE;}
	.privacy1{fill:#1790FF;}
	.privacy2{fill:#5F6C8E;}
	.privacy3{fill:#566386;}
</style>
<g transform="translate(-15 -10)">
	<g>
		<path class="privacy0" d="M87.9,148.4h-0.3h-2.4c11.1,7.7,24.5,12.2,39,12.2c14.5,0,27.9-4.5,39-12.2L87.9,148.4L87.9,148.4z"/>
		<path class="privacy0" d="M55.7,92.1c0,4.2,0.4,8.2,1.1,12.2l6.1,0l-1.8,3h-3.6c0.2,0.8,0.4,1.7,0.6,2.5h26.6h2.4h0.9H95V142
			c0,0.5-0.4,0.9-0.9,0.9h-6.2h-0.4h-2.9h-6.4c1.9,1.8,4,3.4,6.1,4.9l0.1-1.7h0.1l3,0h0.3l6.2,0c2.2,0,4.1-1.8,4.1-4.1v-7.6v-29.3
			c0-2.3-1.8-4.1-4.1-4.1h-0.9l0-14.5c0-3-2.2-5.5-5.3-6.2V40.7c0-2.6,2.1-4.7,4.7-4.7h70.9c-11.1-7.8-24.7-12.4-39.3-12.4
			C86.4,23.6,55.7,54.3,55.7,92.1z M67.1,107.3h-2.8l1.8-3l2.8,0L67.1,107.3z M65.7,101.1V89.8l18,0l0,11.3H65.7z M74.1,107.3h-3.8
			l1.8-3l3.8,0L74.1,107.3z M80.1,107.3h-2.8l1.8-3l2.8,0L80.1,107.3z M94.2,104.3c0.5,0,0.9,0.4,0.9,0.9v2.2h-7.1H87h-2.4h-1.4
			l1.4-2.3l0.5-0.8l1.9,0h0.9L94.2,104.3z M90,86.6v14.3h-2.1h-1V86.6h-0.2l-2.1,0l-22.1,0v14.3h-3l0-14.3c0-1.8,1.8-3.3,4-3.3
			l21.2,0l1.4,0c0.2,0,0.5,0,0.7,0.1c0.4,0.1,0.9,0.2,1.2,0.4C89.2,84.3,90,85.3,90,86.6z"/>
		<path class="privacy0" d="M177.5,49.1v18.3v8.7v17.6c0,1.1,0.3,2.1,0.8,3h-9.1V40.6c0,0,0-0.1,0-0.1c-1-0.8-1.9-1.6-2.9-2.4
			c0,0,0,0.1,0,0.1c0,0,0,0.1,0,0.1c-0.1,0.4-0.2,0.8-0.3,1.2c0,0,0,0.1,0,0.1c-0.1,0.4-0.1,0.8-0.1,1.2v12v93.8
			c16.3-12.5,26.9-32.2,26.9-54.4C192.7,75.8,187,60.8,177.5,49.1z"/>
	</g>
	<g>
		<path class="privacy1" d="M122.9,24h1v1c0,0.5,0.4,0.9,0.9,0.9c0.5,0,0.9-0.4,0.9-0.9v-1h1.1c0.5,0,0.9-0.4,0.9-0.9
			c0-0.5-0.4-0.9-0.9-0.9h-1.1v-1.1c0-0.5-0.4-0.9-0.9-0.9c-0.5,0-0.9,0.4-0.9,0.9v1.1h-1c-0.5,0-0.9,0.4-0.9,0.9c0,0,0,0,0,0
			C122,23.5,122.4,24,122.9,24z"/>
		<path class="privacy1" d="M34.9,90.1h-1.1v-1.1c0-0.5-0.4-0.9-0.9-0.9c-0.5,0-0.9,0.4-0.9,0.9v1.1h-1c-0.5,0-0.9,0.4-0.9,0.9
			c0,0,0,0,0,0c0,0.5,0.4,0.9,0.9,0.9h1v1c0,0.5,0.4,0.9,0.9,0.9c0.5,0,0.9-0.4,0.9-0.9v-1h1.1c0.5,0,0.9-0.4,0.9-0.9
			C35.9,90.5,35.5,90.1,34.9,90.1z"/>
		<path class="privacy1" d="M198.9,72h-1.1v-1.1c0-0.5-0.4-0.9-0.9-0.9c-0.5,0-0.9,0.4-0.9,0.9V72h-1c-0.5,0-0.9,0.4-0.9,0.9
			c0,0.5,0.4,0.9,0.9,0.9h1v1c0,0.5,0.4,0.9,0.9,0.9c0.5,0,0.9-0.4,0.9-0.9v-1h1.1c0.5,0,0.9-0.4,0.9-0.9S199.5,72,198.9,72z"/>
		<path class="privacy1" d="M86.9,161h-1.1v-1.1c0-0.5-0.4-0.9-0.9-0.9c-0.5,0-0.9,0.4-0.9,0.9v1.1h-1c-0.5,0-0.9,0.4-0.9,0.9
			c0,0.5,0.4,0.9,0.9,0.9h1v1c0,0.5,0.4,0.9,0.9,0.9c0.5,0,0.9-0.4,0.9-0.9v-1h1.1c0.5,0,0.9-0.4,0.9-0.9S87.5,161,86.9,161z"/>
		<path class="privacy1" d="M103.8,65.2v0.1h53.9V47.8h-53.9V65.2z M107.5,51.1h46.6v10.8h-46.6V51.1z"/>
		<rect x="123.5" y="54.8" class="privacy1" width="4.4" height="3.3"/>
		<rect x="113.9" y="54.8" class="privacy1" width="4.2" height="3.3"/>
		<rect x="143.2" y="54.8" class="privacy1" width="4.4" height="3.3"/>
		<rect x="133.4" y="54.8" class="privacy1" width="4.4" height="3.3"/>
		<rect x="105.4" y="125.6" class="privacy1" width="34.4" height="3.3"/>
		<path class="privacy1" d="M103.8,84.3h48.6V71.1h-48.6V84.3z M107.5,74.3h41.2v6.6h-41.2V74.3z"/>
		<path class="privacy1" d="M103.8,102.1L103.8,102.1l48.6,0.1V88.9h-48.6V102.1z M107.5,92.2h41.2v6.6h-41.2V92.2z"/>
		<rect x="105.4" y="116.7" class="privacy1" width="34.4" height="3.3"/>
		<rect x="105.4" y="108.1" class="privacy1" width="45.3" height="3.3"/>
		<polygon class="privacy1" points="87,107.3 84.6,107.3 83.3,107.3 84.6,105.1 85.1,104.3 84.8,104.3 84.6,104.3 82.2,104.3 81.9,104.3 
			80.1,107.3 77.3,107.3 79.1,104.3 78.8,104.3 76.2,104.3 75.9,104.3 74.1,107.3 70.3,107.3 72.1,104.3 71.8,104.3 69.2,104.3 
			68.9,104.3 67.1,107.3 64.3,107.3 66.1,104.3 65.8,104.3 63.2,104.3 62.9,104.3 61.1,107.3 53.4,107.3 53.4,107.6 53.4,109.6 
			53.4,109.8 84.6,109.8 87.1,109.8 87.9,109.8 95,109.8 95,109.6 95,107.6 95,107.3 87.9,107.3 		"/>
		<rect x="74.5" y="136.3" class="privacy1" width="3.1" height="2.5"/>
		<rect x="56.5" y="136.3" class="privacy1" width="15.5" height="2.5"/>
		<rect x="79.7" y="136.3" class="privacy1" width="3.1" height="2.5"/>
		<polygon class="privacy1" points="87.5,136.3 84.9,136.3 84.9,138.8 87.5,138.8 87.9,138.8 88,138.8 88,136.3 87.9,136.3 		"/>
	</g>
	<g>
		<path class="privacy2" d="M188,84.8v8.9c0.1,1.3-1.4,2.8-3.6,3c-2.2-0.2-3.7-1.7-3.6-3V67.4h0V40.7c0-4.2-3.2-7.5-7.3-7.9v-0.1H92.6
			c-4.4,0-8,3.6-8,8v39.4l-21.2,0c-4,0-7.2,2.9-7.2,6.5l0,14.5h-1.9c-2.2,0-4.1,1.8-4.1,4.1V142c0,2.3,1.8,4.1,4.1,4.1l0-0.5v0.5
			l30.2,0h0.1l3,0h0.3l6.2,0c2.2,0,4.1-1.8,4.1-4.1v-7.6v-29.3c0-2.3-1.8-4.1-4.1-4.1h-0.9l0-14.5c0-3-2.2-5.5-5.3-6.2V40.7
			c0-2.6,2.1-4.7,4.7-4.7h74.7c-0.3,0.4-0.5,0.9-0.7,1.3c-0.1,0.3-0.2,0.5-0.3,0.8c0,0,0,0.1,0,0.1c-0.1,0.4-0.2,0.8-0.3,1.2
			c0,0,0,0.1,0,0.1c-0.1,0.4-0.1,0.8-0.1,1.2v12v95.7H87.9v0h-0.3h-3v3.2h84.6V100h15.1h0.1h0.1c3.6-0.2,6.8-2.7,6.8-6.3v-8.9H188z
			 M86.7,86.6l-2.1,0l-22.1,0v14.3h-3l0-14.3c0-1.8,1.8-3.3,4-3.3l21.2,0l1.4,0c0.2,0,0.5,0,0.7,0.1c0.4,0.1,0.9,0.2,1.2,0.4
			c1.2,0.6,2.1,1.6,2.1,2.9v14.3h-2.1h-1V86.6H86.7z M83.8,101.1h-18V89.8l18,0L83.8,101.1z M95,107.3v0.2v2v0.2V142
			c0,0.5-0.4,0.9-0.9,0.9h-6.2h-0.4h-2.9H54.3c-0.5,0-0.9-0.4-0.9-0.9l0-32.2v-0.2l0-2v-0.2l0-2.2l0,0c0-0.5,0.4-0.9,0.9-0.9l8.6,0
			h0.3l2.6,0h0.3l2.8,0h0.3l2.6,0h0.3l3.8,0h0.3l2.6,0h0.3l2.8,0h0.3l2.4,0h0.2h0.3l1.9,0h0.9l6.2,0c0.5,0,0.9,0.4,0.9,0.9V107.3z
			 M169.2,96.7V40.6c0-1.7,1-3.3,2.5-4.1c0.5-0.2,1-0.4,1.6-0.4c2.4,0.2,4.2,2.2,4.2,4.6v26.7v8.7v17.6c0,1.1,0.3,2.1,0.8,3H169.2z"
			/>
		<path class="privacy2" d="M74.2,115.1c-3.3,0-6,2.8-6,6.2c0,2.2,1.1,4.2,2.9,5.3v4.5h6.1v-4.5c1.8-1.1,2.9-3.1,2.9-5.3
			C80.2,117.9,77.5,115.1,74.2,115.1z M75.2,124.1l-1,0.4l-1-0.4l0,0c-1.1-0.4-1.9-1.6-1.9-2.8c0-1.6,1.3-3,2.9-3
			c1.6,0,2.9,1.3,2.9,3C77.1,122.5,76.3,123.6,75.2,124.1z"/>
	</g>
	<g>
		<path class="privacy3" d="M69.6,53.3c0.6-0.4,0.8-1.2,0.4-1.8v0c-0.4-0.6-1.2-0.8-1.8-0.4c-0.6,0.4-0.8,1.2-0.4,1.8c0,0,0,0,0,0
			C68.2,53.5,69,53.7,69.6,53.3z"/>
		<path class="privacy3" d="M65.2,51.2c0.7,0.1,1.4-0.4,1.5-1.2c0,0,0-0.1,0-0.1c0.1-0.7-0.5-1.4-1.2-1.4c-0.7-0.1-1.4,0.5-1.4,1.2
			C64,50.5,64.5,51.2,65.2,51.2C65.2,51.2,65.2,51.2,65.2,51.2z"/>
		<path class="privacy3" d="M67.7,58.8c-0.2-0.7-1-1.1-1.7-0.8c-0.7,0.2-1.1,1-0.8,1.7c0.2,0.5,0.7,0.9,1.3,0.9c0.1,0,0.3,0,0.4-0.1
			C67.5,60.3,67.9,59.5,67.7,58.8C67.7,58.8,67.7,58.8,67.7,58.8z"/>
		<path class="privacy3" d="M63,57.6C63,57.6,63,57.6,63,57.6c-0.6-0.4-1.4-0.2-1.8,0.4c-0.4,0.6-0.2,1.4,0.4,1.8c0,0,0,0,0,0
			c0.6,0.4,1.4,0.2,1.8-0.4C63.8,58.9,63.6,58,63,57.6z"/>
		<path class="privacy3" d="M60.5,52.2C60.5,52.2,60.5,52.3,60.5,52.2c0.5,0.5,1.4,0.5,1.9,0l0,0c0.5-0.5,0.5-1.4,0-1.9c0,0,0,0,0,0
			c-0.5-0.5-1.4-0.5-1.9,0l0,0C60,50.9,60,51.7,60.5,52.2L60.5,52.2z"/>
		<path class="privacy3" d="M181.5,127.3c0.5,0.5,1.4,0.5,1.9,0l0,0l0,0c0.5-0.5,0.5-1.4,0-1.9c0,0,0,0,0,0c-0.5-0.5-1.4-0.5-1.9,0l0,0
			C181,125.9,181,126.7,181.5,127.3C181.5,127.2,181.5,127.3,181.5,127.3z"/>
		<path class="privacy3" d="M61.4,55.1C61.4,55.1,61.4,55.1,61.4,55.1c-0.1-0.7-0.7-1.3-1.5-1.2c-0.7,0.1-1.3,0.7-1.2,1.5
			c0.1,0.7,0.6,1.2,1.3,1.2c0,0,0.1,0,0.1,0C60.9,56.5,61.5,55.8,61.4,55.1z"/>
		<path class="privacy3" d="M188.7,133.8c-0.2-0.7-1-1.1-1.7-0.8c-0.7,0.2-1.1,1-0.8,1.7c0.2,0.5,0.7,0.9,1.3,0.9c0.1,0,0.3,0,0.4-0.1
			C188.5,135.3,188.9,134.5,188.7,133.8C188.7,133.8,188.7,133.8,188.7,133.8z"/>
		<path class="privacy3" d="M190.6,128.3c0.6-0.4,0.8-1.2,0.4-1.8v0c-0.4-0.6-1.2-0.8-1.8-0.4c-0.6,0.4-0.8,1.2-0.4,1.8c0,0,0,0,0,0
			C189.2,128.5,190,128.7,190.6,128.3z"/>
		<path class="privacy3" d="M190.8,130C190.8,130,190.8,130,190.8,130c-0.7-0.2-1.5,0.1-1.7,0.8c-0.2,0.7,0.1,1.5,0.8,1.7
			c0.1,0.1,0.3,0.1,0.4,0.1c0.5,0,1-0.3,1.2-0.9C191.8,131,191.5,130.3,190.8,130z"/>
		<path class="privacy3" d="M186.2,126.2c0.7,0.1,1.4-0.4,1.5-1.2c0,0,0-0.1,0-0.1c0.1-0.7-0.5-1.4-1.2-1.4c-0.7-0.1-1.4,0.5-1.4,1.2
			C185,125.5,185.5,126.2,186.2,126.2C186.2,126.2,186.2,126.2,186.2,126.2z"/>
		<path class="privacy3" d="M182.4,130.1C182.4,130.1,182.4,130.1,182.4,130.1c-0.1-0.7-0.7-1.3-1.5-1.2c-0.7,0.1-1.3,0.7-1.2,1.5
			c0.1,0.7,0.6,1.2,1.3,1.2c0,0,0.1,0,0.1,0C181.9,131.5,182.5,130.8,182.4,130.1z"/>
		<path class="privacy3" d="M69.8,55C69.8,55,69.8,55,69.8,55c-0.7-0.2-1.5,0.1-1.7,0.8c-0.2,0.7,0.1,1.5,0.8,1.7
			c0.1,0.1,0.3,0.1,0.4,0.1c0.5,0,1-0.3,1.2-0.9C70.8,56,70.5,55.3,69.8,55z"/>
		<path class="privacy3" d="M184,132.6C184,132.6,184,132.6,184,132.6c-0.6-0.4-1.4-0.2-1.8,0.4c-0.4,0.6-0.2,1.4,0.4,1.8c0,0,0,0,0,0
			c0.6,0.4,1.4,0.2,1.8-0.4C184.8,133.9,184.6,133,184,132.6z"/>
	</g>
</g>
</svg>
