<svg xmlns="http://www.w3.org/2000/svg" width="16" height="16" viewBox="0 0 16 16">
    <g fill="none" fill-rule="evenodd">
        <path d="M-4-4h24v24H-4z"/>
        <g fill-rule="nonzero">
            <path fill="#BCC3CC" d="M16 14.222V1.778C16 .8 15.2 0 14.222 0H1.778C.8 0 0 .8 0 1.778v12.444C0 15.2.8 16 1.778 16h12.444C15.2 16 16 15.2 16 14.222z"/>
            <path fill="#F9F9F9" d="M8.25 3A3.747 3.747 0 0 0 4.5 6.75c0 2.813 3.75 6.964 3.75 6.964S12 9.562 12 6.75A3.747 3.747 0 0 0 8.25 3zm0 5.09a1.34 1.34 0 1 1 .001-2.68 1.34 1.34 0 0 1-.001 2.68z"/>
        </g>
    </g>
</svg>
