<?xml version="1.0" encoding="utf-8"?>
<!-- Generator: Adobe Illustrator 22.1.0, SVG Export Plug-In . SVG Version: 6.00 Build 0)  -->
<svg version="1.1" id="Слой_1" xmlns="http://www.w3.org/2000/svg" xmlns:xlink="http://www.w3.org/1999/xlink" x="0px" y="0px"
	 viewBox="0 0 20 20" width="20" height="20" style="enable-background:new 0 0 20 20;" xml:space="preserve">
<path d="M11.6,10L11.6,10l3.4-3.4c0.4-0.4,0.4-1,0-1.4l-0.2-0.2c-0.4-0.4-1-0.4-1.4,0L10,8.4L6.6,4.9c-0.4-0.4-1-0.4-1.4,0L4.9,5.2
	c-0.4,0.4-0.4,1,0,1.4L8.3,10l-3.4,3.4c-0.4,0.4-0.4,1,0,1.4l0.2,0.2c0.4,0.4,1,0.4,1.4,0l3.4-3.4l3.4,3.4c0.4,0.4,1,0.4,1.4,0
	l0.2-0.2c0.4-0.4,0.4-1,0-1.4L11.6,10z"/>
</svg>
