<svg xmlns="http://www.w3.org/2000/svg" width="12" height="12" viewBox="0 0 12 12">
    <path fill="#BCC3CC" fill-rule="nonzero" d="M7.308 4.669a.799.799 0 0 1 .232.615.798.798 0 0 1-.232.507.818.818 0 0 1-1.122 0 1.198 1.198 0 0 0-1.693 0L1.944 8.338a1.198 1.198 0 1 0 1.695 1.695l1.507-1.51a.2.2 0 0 1 .218-.043c.405.165.84.249 1.277.247h.08a.2.2 0 0 1 .142.341l-2.096 2.096A2.795 2.795 0 0 1 .817 7.21L3.356 4.67a2.795 2.795 0 0 1 3.952 0zm3.85-3.85a2.795 2.795 0 0 1 0 3.952l-2.54 2.54a2.794 2.794 0 0 1-1.296.735H7.3l-.116.024-.064.012-.137.02h-.068c-.052 0-.098.01-.142.012l-.12.014H6.501a2.779 2.779 0 0 1-.297-.028 3.236 3.236 0 0 1-.241-.05l-.118-.032a1.586 1.586 0 0 1-.128-.041c-.042-.016-.086-.03-.128-.048-.042-.018-.084-.034-.126-.054a2.77 2.77 0 0 1-.798-.56.799.799 0 0 1 0-1.125.818.818 0 0 1 1.122 0 1.198 1.198 0 0 0 1.693 0l.654-.65.016-.019 1.873-1.87a1.198 1.198 0 1 0-1.695-1.695L6.825 3.457a.2.2 0 0 1-.218.044 3.353 3.353 0 0 0-1.275-.25h-.074a.2.2 0 1 1-.146-.341L7.206.82a2.795 2.795 0 0 1 3.952 0z"/>
</svg>
