<?xml version="1.0" encoding="utf-8"?>
<!-- Generator: Adobe Illustrator 22.1.0, SVG Export Plug-In . SVG Version: 6.00 Build 0)  -->
<svg version="1.1" id="Слой_1" xmlns="http://www.w3.org/2000/svg" xmlns:xlink="http://www.w3.org/1999/xlink" x="0px" y="0px"
	 viewBox="0 0 20 20" width="20" height="20" style="enable-background:new 0 0 20 20;" xml:space="preserve">
<path d="M6.6,16.8c-2.1-0.6-3.4,0.4-4,0.4c-0.7,0-0.7-0.6-0.5-1c0.3-0.6,1.2-1.2,0.8-3.6c-0.3-0.8-0.4-1.7-0.4-2.6
	c0-4.3,3.5-7.7,7.8-7.7c4.3,0,7.8,3.5,7.8,7.7s-3.5,7.7-7.8,7.7C9,17.7,7.7,17.4,6.6,16.8z M7.5,6.4c-0.4,0-0.7,0.3-0.7,0.7
	s0.3,0.7,0.7,0.7c0,0,0,0,0,0h5.7c0.4,0,0.7-0.3,0.7-0.7s-0.3-0.7-0.7-0.7c0,0,0,0,0,0H7.5z M7.5,9C7.1,9,6.7,9.3,6.7,9.7
	s0.3,0.7,0.7,0.7c0,0,0,0,0.1,0h3.2c0.4,0,0.7-0.3,0.7-0.7C11.3,9.3,11,9,10.7,9C10.7,9,7.5,9,7.5,9z M7.5,11.5
	c-0.4,0-0.7,0.3-0.7,0.7S7.1,13,7.5,13c0,0,0,0,0,0H12c0.4,0,0.7-0.3,0.7-0.7c0-0.4-0.3-0.7-0.7-0.7H7.5z"/>
</svg>
