<svg width="24" height="24" viewBox="0 0 24 24" fill="none" xmlns="http://www.w3.org/2000/svg">
<g opacity="0.5">
<path d="M11.9999 2.40039C6.6983 2.40039 2.3999 6.69879 2.3999 12.0004C2.3999 17.302 6.6983 21.6004 11.9999 21.6004C17.3015 21.6004 21.5999 17.302 21.5999 12.0004C21.5999 6.69879 17.3015 2.40039 11.9999 2.40039ZM15.3447 8.80039H13.9615C13.1007 8.80039 12.7999 9.25479 12.7999 10.1748V11.2004H15.3231L14.9807 13.6004H12.7999V19.9604C12.5367 19.986 12.2703 20.0004 11.9999 20.0004C11.4519 20.0004 10.9167 19.9444 10.3999 19.8396V13.6004H7.9999V11.2004H10.3999V9.91159C10.3999 7.47159 11.5887 6.40039 13.6167 6.40039C14.5879 6.40039 15.1015 6.47239 15.3447 6.50519V8.80039Z" fill="#272750"/>
</g>
</svg>
