<svg width="24" height="24" viewBox="0 0 24 24" fill="none" xmlns="http://www.w3.org/2000/svg">
<path d="M16.8792 8.81432L18.5382 5.9955C18.6318 5.83746 18.5753 5.6367 18.4162 5.54493C18.2573 5.4531 18.0505 5.50648 17.959 5.66445L16.2782 8.51972C14.9959 7.9452 13.5524 7.62486 12.0001 7.62486C10.4476 7.62486 9.0041 7.9452 7.72178 8.51972L6.04083 5.66445C5.94727 5.50648 5.74266 5.4531 5.58159 5.54493C5.4204 5.6367 5.36593 5.83746 5.45961 5.9955L7.11866 8.81432C4.25776 10.3349 2.32008 13.175 2 16.5H22C21.6799 13.1751 19.7423 10.3349 16.8792 8.81432ZM7.40821 13.7453C6.94444 13.7453 6.57001 13.3758 6.57001 12.923C6.57001 12.4682 6.94661 12.1008 7.40821 12.1008C7.87199 12.1008 8.24636 12.4703 8.24636 12.923C8.24866 13.3758 7.87199 13.7453 7.40821 13.7453ZM16.5896 13.7453C16.1258 13.7453 15.7514 13.3758 15.7514 12.923C15.7514 12.4682 16.128 12.1008 16.5896 12.1008C17.0534 12.1008 17.4279 12.4703 17.4279 12.923C17.4301 13.3758 17.0533 13.7453 16.5896 13.7453Z" fill="#9393A7"/>
</svg>
