<svg width="24" height="24" viewBox="0 0 24 24" fill="none" xmlns="http://www.w3.org/2000/svg">
<path fill-rule="evenodd" clip-rule="evenodd" d="M14.5714 5.82903C14.216 5.82903 13.9283 5.56173 13.9283 5.23153C13.9283 4.90133 14.216 4.63523 14.5714 4.63523C14.9268 4.63523 15.2146 4.90133 15.2146 5.23153C15.2146 5.56173 14.9268 5.82903 14.5714 5.82903ZM9.42879 5.82903C9.07336 5.82903 8.78564 5.56173 8.78564 5.23153C8.78564 4.90133 9.07336 4.63523 9.42879 4.63523C9.78422 4.63523 10.072 4.90133 10.072 5.23153C10.072 5.56173 9.78422 5.82903 9.42879 5.82903ZM14.9516 3.4366L15.1911 3.10036L15.4307 2.76894L15.9645 2.02389C16.0309 1.93196 16.0035 1.80858 15.9046 1.7481C15.8069 1.68642 15.6729 1.71182 15.6091 1.80374L14.794 2.93706L14.5493 3.27816C13.7746 2.99876 12.9115 2.84273 12.0001 2.84273C11.0901 2.84273 10.2256 2.99876 9.45093 3.27816L9.20747 2.93706L8.96662 2.60203L8.39376 1.80374C8.32736 1.71182 8.19457 1.68763 8.09562 1.7481C7.99798 1.80858 7.97063 1.93196 8.03573 2.02389L8.56952 2.76894L8.80907 3.10036L9.04994 3.4366C7.23114 4.22399 6.00081 5.71533 6.00081 7.42196H17.9994C17.9994 5.71533 16.7691 4.22399 14.9516 3.4366ZM6.09326 8.21784H6.00081V16.9772C6.00081 17.6727 6.60882 18.2387 7.35873 18.2387H8.33777C8.30392 18.344 8.28571 18.454 8.28571 18.5701V21.092C8.28571 21.7512 8.86245 22.2858 9.572 22.2858C10.2816 22.2858 10.8583 21.7512 10.8583 21.092V18.5701C10.8583 18.454 10.8388 18.344 10.8062 18.2387H13.194C13.1614 18.344 13.1432 18.454 13.1432 18.5701V21.092C13.1432 21.7512 13.7187 22.2858 14.4282 22.2858C15.1391 22.2858 15.7158 21.7512 15.7158 21.092V18.5701C15.7158 18.454 15.6963 18.344 15.6624 18.2387H16.6428C17.3927 18.2387 17.9994 17.6727 17.9994 16.9772V8.21784H6.09326ZM3.85784 8.21784C3.14699 8.21784 2.57153 8.75245 2.57153 9.41164V14.5219C2.57153 15.181 3.14699 15.7157 3.85784 15.7157C4.56739 15.7157 5.14285 15.181 5.14285 14.5219V9.41164C5.14285 8.75245 4.56739 8.21784 3.85784 8.21784ZM20.1437 8.21784C19.4328 8.21784 18.8574 8.75245 18.8574 9.41164V14.5219C18.8574 15.181 19.4328 15.7157 20.1437 15.7157C20.8532 15.7157 21.4287 15.181 21.4287 14.5219V9.41164C21.4287 8.75245 20.8532 8.21784 20.1437 8.21784Z" fill="#9393A7"/>
</svg>
