<svg width="24" height="24" viewBox="0 0 24 24" fill="none" xmlns="http://www.w3.org/2000/svg">
<g opacity="0.5">
<path d="M17.25 2.03125C16.5859 2.13281 15.9883 2.92578 15.8437 3.9375L15.0312 9.5625C16.0469 9.42578 17.0859 9.35547 17.9062 9.5L18.6562 4.34375C18.8203 3.19141 18.3047 2.14062 17.5312 2.03125C17.4336 2.01562 17.3437 2.01562 17.25 2.03125ZM10.1875 2.53125C10.0898 2.53516 9.99999 2.5625 9.90624 2.59375C9.17187 2.85547 8.89062 3.96484 9.28124 5.0625L11.2187 10.5312C11.3437 10.4062 11.4922 10.2969 11.6562 10.25C12.2422 10.082 13.0547 9.88281 13.9375 9.71875L11.9375 4.09375C11.5937 3.13281 10.8594 2.5 10.1875 2.53125ZM7.74999 9.28125C7.44921 9.25781 7.12109 9.35156 6.87499 9.5625C6.3828 9.98438 6.32812 10.7227 6.74999 11.2188L9.06249 13.9375C9.48437 14.4297 10.2266 14.4844 10.7187 14.0625C11.2109 13.6406 11.2656 12.9023 10.8437 12.4062L8.53124 9.6875C8.3203 9.44141 8.05077 9.30469 7.74999 9.28125ZM16.5937 10.5C15.2422 10.4805 13.4883 10.8828 12.4687 11.0625C11.9062 11.1641 11.6016 11.793 11.75 12.3438C11.8906 12.875 12.4219 13.1328 12.9687 13.125C13.7656 13.1094 16.0625 13.0625 16.0625 13.0625L16.1562 14.3125C16.1562 14.3125 11.8281 16.2031 12.9375 19.0312C10.5547 16.1094 15 13.9375 15 13.9375C15 13.9375 13.6133 14.1367 13.4687 14.1562C12.9492 14.2266 12.1601 14.1094 11.9687 13.8438C11.8984 14.2656 11.7148 14.5898 11.3437 14.9062C10.9453 15.2461 10.457 15.3984 9.99999 15.375C10.2773 16.0312 10.0703 16.8672 9.43749 17.4062C8.67187 18.0586 7.46874 17.832 6.96874 17.0938C6.6289 16.5898 5.98046 15.3906 5.65624 14.7812L7.18749 16.5625C7.60937 17.0547 8.35155 17.1094 8.84374 16.6875C9.33593 16.2656 9.39062 15.5234 8.96874 15.0312L7.43749 13.25C7.01562 12.7578 6.27343 12.7031 5.78124 13.125C4.05077 14.2461 5.18749 17.6797 5.87499 18.7812C7.21484 20.9219 8.91405 22.1484 12.1875 22C15.4883 21.8516 17.3672 20.5547 18.4062 16.6562C18.9648 14.5586 19.6211 11.4062 17.7812 10.6875C17.4609 10.5625 17.043 10.5078 16.5937 10.5Z" fill="#272750"/>
</g>
</svg>
