<svg width="64" height="64" viewBox="0 0 64 64" fill="none" xmlns="http://www.w3.org/2000/svg">
<circle cx="32" cy="32" r="32" fill="#F6F9FB"/>
<mask id="mask0" mask-type="alpha" maskUnits="userSpaceOnUse" x="0" y="0" width="64" height="64">
<circle cx="32" cy="32" r="32" fill="white"/>
</mask>
<g mask="url(#mask0)">
<path d="M53.3495 26.2943C52.6752 24.2189 50.7569 22.8245 48.5759 22.8245C48.0499 22.8245 47.5277 22.9075 47.024 23.0712C45.7486 23.4856 44.711 24.3718 44.1022 25.5665C43.7067 26.3428 43.5244 27.1889 43.5579 28.0362L39.7978 29.2579C38.5922 26.9351 36.339 25.2402 33.668 24.8028V20.8489C35.7725 20.2513 37.319 18.3135 37.319 16.0201C37.319 13.252 35.067 11 32.2989 11C29.5308 11 27.2788 13.252 27.2788 16.0201C27.2788 18.3135 28.8253 20.2512 30.9298 20.8489V24.8028C28.2587 25.2401 26.0054 26.9351 24.8 29.2579L21.0399 28.0362C21.0734 27.1889 20.8911 26.3427 20.4956 25.5665C19.8868 24.3718 18.8492 23.4856 17.5739 23.0713C17.0701 22.9076 16.5479 22.8246 16.0219 22.8246C13.8409 22.8246 11.9226 24.219 11.2482 26.2944C10.8338 27.5696 10.9409 28.9299 11.5496 30.1248C12.1584 31.3195 13.196 32.2057 14.4713 32.62C14.9751 32.7837 15.4973 32.8667 16.0233 32.8667C17.7325 32.8667 19.2803 32.0101 20.1945 30.6407L23.952 31.8616C23.889 32.2767 23.8561 32.7017 23.8561 33.1342C23.8561 35.444 24.7889 37.5399 26.297 39.0658L23.9719 42.266C23.4228 42.0637 22.8399 41.9593 22.2427 41.9593C20.6393 41.9593 19.1199 42.733 18.1784 44.0289C17.3902 45.1137 17.0716 46.4406 17.2815 47.765C17.4912 49.0894 18.2041 50.2528 19.289 51.041C20.1525 51.6684 21.1718 52 22.2367 52C23.8401 52 25.3595 51.2263 26.3011 49.9304C27.649 48.0749 27.5368 45.5983 26.1856 43.8779L28.5106 40.6779C29.6506 41.2527 30.9375 41.5771 32.299 41.5771C33.6604 41.5771 34.9475 41.2527 36.0874 40.6779L38.4123 43.878C37.0611 45.5984 36.9489 48.075 38.297 49.9305C39.2385 51.2264 40.7579 52 42.3612 52C43.4261 52 44.4455 51.6684 45.3089 51.041C46.3938 50.2528 47.1068 49.0894 47.3165 47.765C47.5263 46.4406 47.2078 45.1137 46.4196 44.0289C45.4781 42.733 43.9586 41.9593 42.3553 41.9593C41.758 41.9593 41.1751 42.0637 40.626 42.266L38.301 39.0658C39.8092 37.5399 40.7418 35.444 40.7418 33.1342C40.7418 32.7017 40.709 32.2767 40.646 31.8616L44.4035 30.6407C45.3177 32.0101 46.8654 32.8667 48.5746 32.8667C49.1006 32.8667 49.6228 32.7837 50.1266 32.62C51.4019 32.2056 52.4395 31.3195 53.0483 30.1247C53.657 28.9298 53.7639 27.5695 53.3495 26.2943ZM18.1928 28.5507C17.8862 29.4943 17.0144 30.1284 16.0233 30.1284C15.7851 30.1284 15.5476 30.0905 15.3175 30.0157C14.7378 29.8274 14.2662 29.4245 13.9895 28.8815C13.7128 28.3384 13.6642 27.7202 13.8525 27.1404C14.1591 26.1968 15.0309 25.5627 16.022 25.5627C16.2602 25.5627 16.4977 25.6007 16.7278 25.6753C17.3075 25.8637 17.7792 26.2665 18.0558 26.8096C18.3325 27.3527 18.3811 27.9711 18.1928 28.5507ZM30.0171 16.0202C30.0171 14.762 31.0408 13.7383 32.299 13.7383C33.5572 13.7383 34.5808 14.762 34.5808 16.0202C34.5808 17.2784 33.5572 18.302 32.299 18.302C31.0408 18.302 30.0171 17.2784 30.0171 16.0202ZM24.0858 48.3207C23.6577 48.9099 22.9664 49.2616 22.2366 49.2616C21.7538 49.2616 21.291 49.1108 20.8984 48.8256C20.4053 48.4673 20.0812 47.9385 19.9858 47.3365C19.8905 46.7345 20.0353 46.1314 20.3935 45.6384C20.8216 45.0492 21.5129 44.6974 22.2427 44.6974C22.7255 44.6974 23.1882 44.8482 23.5809 45.1335C24.5987 45.873 24.8253 47.3028 24.0858 48.3207ZM26.5943 33.1341C26.5943 29.9886 29.1534 27.4294 32.299 27.4294C35.4446 27.4294 38.0036 29.9886 38.0036 33.1341C38.0036 36.2796 35.4446 38.8387 32.299 38.8387C29.1534 38.8387 26.5943 36.2796 26.5943 33.1341ZM44.2043 45.6383C44.5626 46.1313 44.7073 46.7345 44.612 47.3364C44.5167 47.9384 44.1926 48.4672 43.6995 48.8255C43.3068 49.1107 42.8441 49.2615 42.3612 49.2615C41.6315 49.2615 40.9403 48.9097 40.5122 48.3206C39.7726 47.3027 39.9991 45.8729 41.017 45.1334C41.4097 44.8481 41.8724 44.6972 42.3552 44.6972C43.0849 44.6973 43.7763 45.0491 44.2043 45.6383ZM50.6084 28.8815C50.3317 29.4246 49.86 29.8274 49.2803 30.0158C49.0502 30.0905 48.8128 30.1284 48.5745 30.1284C47.5836 30.1284 46.7117 29.4943 46.405 28.5507C46.2167 27.971 46.2654 27.3527 46.542 26.8096C46.8187 26.2665 47.2904 25.8637 47.8702 25.6753C48.1003 25.6006 48.3377 25.5627 48.5759 25.5627C49.5669 25.5627 50.4387 26.1968 50.7454 27.1405C50.9338 27.7202 50.8851 28.3384 50.6084 28.8815Z" fill="url(#paint0_linear)"/>
</g>
<circle opacity="0.8" cx="32" cy="32" r="31.5" stroke="#EAECF0"/>
<defs>
<linearGradient id="paint0_linear" x1="53.5966" y1="12.3979" x2="23.6773" y2="51.2267" gradientUnits="userSpaceOnUse">
<stop stop-color="#FEC519"/>
<stop offset="0.278985" stop-color="#E62E5C"/>
<stop offset="0.760754" stop-color="#45A3E6"/>
<stop offset="1" stop-color="#5CE6C3"/>
</linearGradient>
</defs>
</svg>
