<svg width="60" height="60" viewBox="0 0 60 60" fill="none" xmlns="http://www.w3.org/2000/svg">
<circle cx="30" cy="30" r="30" fill="#C5EAF9"/>
<g clip-path="url(#clip0)">
<path d="M28.2642 25.4553C28.2642 26.2175 28.9031 26.6302 29.6914 26.6302C30.4797 26.6302 31.1186 26.2175 31.1186 25.4553" fill="#585E68"/>
<path d="M33.3314 19.5127V23.4745C33.3314 24.5686 32.4446 25.4554 31.3508 25.4554H28.0737C27.5269 25.4554 27.0318 25.2337 26.6732 24.875C26.3145 24.5163 26.0928 24.0212 26.0928 23.4745V19.5127H33.3314Z" fill="#B8B8B8"/>
<path d="M33.3306 19.5127V23.4745C33.3306 24.5686 32.4438 25.4554 31.35 25.4554H29.5875C29.0405 25.4554 28.5454 25.2337 28.1873 24.875C27.8286 24.5163 27.6069 24.0212 27.6069 23.4745V19.5127H33.3306Z" fill="#EBEBEB"/>
<path d="M34.5184 17.3853L33.2901 19.5128H26.0908L24.8627 17.3853C23.5304 15.0778 24.0592 12.4126 25.6784 10.7228C26.6679 9.69124 28.0636 9.02344 29.6906 9.02344C30.0514 9.02344 30.4005 9.05648 30.7366 9.11867C34.3989 9.79759 36.4837 13.9814 34.5184 17.3853Z" fill="#F2A918"/>
<path d="M34.5202 17.3853L33.2919 19.5127H28.1846L26.956 17.3853C25.6237 15.0778 26.1524 12.4126 27.7722 10.7228C28.5421 9.91984 29.5584 9.33735 30.7384 9.11865C34.4007 9.79757 36.4855 13.9813 34.5202 17.3853Z" fill="#FFE261"/>
<path d="M48.6318 47.1789V47.1795H38.1978V47.1789C38.1978 44.2977 40.5334 41.9614 43.4146 41.9614C43.8037 41.9614 44.1834 42.0053 44.5475 42.0849C44.5655 42.0888 44.5826 42.0927 44.6 42.0966C45.5649 42.3207 46.4268 42.8131 47.1042 43.4899C48.0481 44.4338 48.6318 45.7387 48.6318 47.1789Z" fill="#CC0B4B"/>
<path d="M48.6321 47.179V47.1796H40.4644V47.179C40.4644 44.6871 42.2115 42.6023 44.5478 42.085C44.5658 42.0889 44.5829 42.0928 44.6004 42.0967C45.5653 42.3208 46.4271 42.8131 47.1046 43.49C48.0484 44.4338 48.6321 45.7388 48.6321 47.179Z" fill="#EA4455"/>
<path d="M48.6321 35.608V39.161C48.6321 41.7033 46.8134 43.8209 44.4057 44.2838C44.0851 44.3457 43.7538 44.3778 43.4149 44.3778C40.5334 44.3778 38.1978 42.0422 38.1978 39.161V35.608C38.1978 32.7268 40.5337 30.3909 43.4149 30.3909C43.7538 30.3909 44.0851 30.423 44.4057 30.4849C45.4493 30.6853 46.3821 31.1969 47.1039 31.9187C48.0481 32.8632 48.6321 34.1673 48.6321 35.608Z" fill="#FFD0A6"/>
<path d="M44.3137 44.3006C44.0215 44.3514 43.7216 44.3778 43.4143 44.3778C40.5334 44.3778 38.1978 42.0422 38.1978 39.1604V35.6083C38.1978 32.7265 40.5334 30.3909 43.4143 30.3909C43.7216 30.3909 44.0215 30.4173 44.3137 30.4681C41.8609 30.8932 39.9951 33.0327 39.9951 35.6083V39.1604C39.9951 41.7361 41.8609 43.8756 44.3137 44.3006Z" fill="#E8B185"/>
<path d="M48.6321 35.6083V36.3786C42.4557 36.3708 40.4027 33.8447 40.4027 33.8447C40.4027 34.894 39.3534 36.0013 38.1978 36.3786V35.6083C38.1978 32.7268 40.5337 30.3909 43.4149 30.3909C43.7538 30.3909 44.0851 30.4233 44.4057 30.4852C45.4493 30.6856 46.3821 31.1969 47.1039 31.919C48.0481 32.8635 48.6321 34.1676 48.6321 35.6083Z" fill="#FFE261"/>
<path d="M44.314 30.4684C42.0673 30.8574 40.3132 32.6851 40.0341 34.9685C39.6295 35.599 38.9347 36.1374 38.1978 36.378V35.6083C38.1978 32.7265 40.5334 30.3909 43.4146 30.3909C43.7207 30.3909 44.0203 30.4167 44.3116 30.4675C44.3122 30.4675 44.3131 30.4675 44.314 30.4684Z" fill="#F2A918"/>
<path d="M24.6176 39.3157C24.6176 43.2337 21.4414 46.4096 17.5235 46.4096C13.6056 46.4096 10.4297 43.2337 10.4297 39.3157C10.4297 35.3978 13.6056 32.2219 17.5235 32.2219C21.4414 32.2219 24.6176 35.3978 24.6176 39.3157Z" fill="#FFE261"/>
<path d="M46.245 25.0769H40.0293L43.137 28.1849L46.245 25.0769Z" fill="#585E68"/>
<path d="M17.8052 16.4117L21.9277 21.0636L22.1923 16.6764L17.8052 16.4117Z" fill="#585E68"/>
<path d="M28.8224 44.6888L29.6157 38.5242L26.1367 41.2098L28.8224 44.6888Z" fill="#585E68"/>
<path d="M25.4862 23.4747C25.4862 24.7947 26.4878 25.8846 27.7705 26.0258C28.0168 26.7482 28.7384 27.2166 29.6916 27.2166C30.6448 27.2166 31.3664 26.7482 31.6127 26.0258C32.8955 25.8846 33.897 24.7947 33.897 23.4747V19.6358L35.0268 17.6786C36.0407 15.9225 36.1371 13.8632 35.2912 12.0283C34.4513 10.2063 32.7891 8.90313 30.8443 8.54264C30.4676 8.47295 30.0797 8.4375 29.6916 8.4375C27.9943 8.4375 26.4193 9.10501 25.2564 10.3174C23.3341 12.3236 22.9724 15.2817 24.3561 17.6786L25.4862 19.6361V23.4747ZM32.7248 20.099V20.9077H26.6584V20.099H32.7248ZM26.6584 22.0799H32.7248V22.8886H26.6584V22.0799ZM31.33 24.8695H28.0532C27.4932 24.8695 27.0096 24.5378 26.7876 24.0608H32.5956C32.3739 24.5378 31.89 24.8695 31.33 24.8695ZM26.1023 11.1285C27.042 10.1492 28.3166 9.60969 29.6916 9.60969C30.0085 9.60969 30.3246 9.63853 30.6307 9.69501C32.2018 9.9864 33.5461 11.042 34.2269 12.5188C34.9112 14.0034 34.8328 15.6704 34.0118 17.0925L32.9528 18.9268H31.1438C31.2549 18.3167 31.5457 17.9733 31.8945 17.5642C32.3992 16.9721 33.027 16.2352 33.027 14.6538C33.027 14.3303 32.7648 14.0677 32.4412 14.0677C32.1174 14.0677 31.8551 14.3303 31.8551 14.6538C31.8551 15.8035 31.4601 16.267 31.0026 16.8038C30.5703 17.3109 30.0893 17.876 29.9575 18.9268H29.4257C29.2939 17.876 28.8129 17.3109 28.3806 16.8038C27.9234 16.267 27.5281 15.8035 27.5281 14.6538C27.5281 14.3303 27.2658 14.0677 26.9423 14.0677C26.6184 14.0677 26.3562 14.3303 26.3562 14.6538C26.3562 16.2352 26.984 16.9721 27.4887 17.5642C27.8375 17.9733 28.1283 18.3167 28.2397 18.9268H26.4304L25.3714 17.0925C24.2506 15.1513 24.5444 12.7547 26.1023 11.1285Z" fill="black"/>
<path d="M44.4365 40.1949C44.1637 40.4679 43.8008 40.6182 43.4148 40.6182C43.0287 40.6182 42.6662 40.4679 42.3931 40.1949C42.1642 39.966 41.7932 39.966 41.5643 40.1949C41.3354 40.4238 41.3354 40.7948 41.5643 41.0237C42.0587 41.5179 42.7157 41.79 43.4148 41.79C44.1141 41.79 44.7711 41.5179 45.2656 41.0237C45.4945 40.7948 45.4945 40.4238 45.2653 40.1949C45.0367 39.966 44.6654 39.966 44.4365 40.1949Z" fill="black"/>
<path d="M49.2184 35.6082C49.2184 34.0584 48.6145 32.6011 47.5187 31.5046C46.694 30.68 45.6558 30.1282 44.517 29.9095C44.1568 29.8401 43.7861 29.8049 43.4148 29.8049C40.2151 29.8049 37.6118 32.4083 37.6118 35.6082V39.1611C37.6118 40.7136 38.2258 42.1243 39.2223 43.1668C38.1919 44.2419 37.6118 45.6716 37.6118 47.1787C37.6118 47.5025 37.8741 47.7648 38.1976 47.7648H43.2523C43.5761 47.7648 43.8384 47.5025 43.8384 47.1787C43.8384 46.8552 43.5761 46.5926 43.2523 46.5926H38.8207C38.948 45.5877 39.4013 44.6547 40.1148 43.9304C41.0524 44.5814 42.1897 44.9641 43.4148 44.9641C43.7858 44.9641 44.1565 44.9286 44.5167 44.8596C45.3272 44.7036 46.071 44.381 46.7172 43.9325C47.4357 44.664 47.8839 45.591 48.0095 46.5926H45.5966C45.2731 46.5926 45.0106 46.8552 45.0106 47.1787C45.0106 47.5025 45.2731 47.7648 45.5966 47.7648H48.6323C48.9558 47.7648 49.2181 47.5025 49.2181 47.1787C49.2181 45.6731 48.6467 44.2554 47.6088 43.1701C48.6118 42.1189 49.2184 40.6986 49.2184 39.1608V35.6082ZM43.4151 30.9768C43.7116 30.9768 44.0078 31.0051 44.2956 31.0603C45.2037 31.2349 46.0316 31.6753 46.6898 32.3332C47.5646 33.2085 48.0465 34.3714 48.0465 35.6082V35.7833C42.7317 35.6283 40.8733 33.4936 40.8574 33.475C40.7012 33.2824 40.4402 33.2091 40.2067 33.2924C39.973 33.3753 39.8168 33.5964 39.8168 33.8445C39.8168 34.3741 39.3854 34.9978 38.7888 35.4244C38.8855 32.9556 40.9229 30.9768 43.4151 30.9768ZM44.295 43.7084C44.0075 43.764 43.7116 43.7919 43.4148 43.7919C40.8613 43.7919 38.784 41.7146 38.784 39.1608V36.775C39.5891 36.4031 40.3548 35.723 40.7364 34.9143C41.8049 35.6911 44.0526 36.8465 48.0462 36.9555V39.1611C48.0462 41.3781 46.4687 43.2905 44.295 43.7084Z" fill="black"/>
<path d="M41.7283 38.8119V37.5295C41.7283 37.2059 41.4661 36.9434 41.1422 36.9434C40.8187 36.9434 40.5562 37.2059 40.5562 37.5295V38.8119C40.5562 39.1354 40.8187 39.398 41.1422 39.398C41.4661 39.398 41.7283 39.1354 41.7283 38.8119Z" fill="black"/>
<path d="M45.6886 36.9434C45.3648 36.9434 45.1025 37.2059 45.1025 37.5295V38.8119C45.1025 39.1354 45.3648 39.398 45.6886 39.398C46.0125 39.398 46.2747 39.1354 46.2747 38.8119V37.5295C46.2747 37.2059 46.0122 36.9434 45.6886 36.9434Z" fill="black"/>
<path d="M17.5237 31.636C13.2891 31.636 9.84375 35.0811 9.84375 39.3159C9.84375 43.5507 13.2891 46.9958 17.5237 46.9958C21.7585 46.9958 25.2036 43.5507 25.2036 39.3159C25.2036 35.0811 21.7585 31.636 17.5237 31.636ZM17.5237 45.8239C13.9353 45.8239 11.0159 42.9043 11.0159 39.3159C11.0159 35.7275 13.9353 32.8079 17.5237 32.8079C21.1123 32.8079 24.0317 35.7275 24.0317 39.3159C24.0317 42.9043 21.1123 45.8239 17.5237 45.8239Z" fill="black"/>
<path d="M18.0513 38.6593V36.5394C18.446 36.5814 18.7008 36.7085 18.8873 36.8013C19.0165 36.8659 19.1186 36.9167 19.2178 36.9167C19.5299 36.9167 19.6864 36.5294 19.6864 36.3125C19.6864 35.7793 18.6632 35.5862 18.0513 35.5555V35.0403C18.0513 34.821 17.8728 34.6426 17.6535 34.6426C17.4342 34.6426 17.2558 34.821 17.2558 35.0403V35.5841C16.7232 35.6547 16.272 35.8394 15.9505 36.1185C15.5585 36.4588 15.3599 36.9311 15.3599 37.5223C15.3599 38.1066 15.5588 38.5572 15.968 38.8994C16.32 39.1938 16.7779 39.3719 17.2558 39.5428V41.9978C16.6538 41.9254 16.3176 41.6394 16.0719 41.4303C15.9166 41.2984 15.7937 41.1939 15.6615 41.1939C15.4026 41.1939 15.1719 41.5318 15.1719 41.798C15.1719 42.2789 15.9647 42.9807 17.2558 43.0354V43.592C17.2558 43.8113 17.4342 43.9895 17.6535 43.9895C17.8725 43.9895 18.051 43.8113 18.051 43.592V42.9942C18.6016 42.9026 19.0564 42.6725 19.3671 42.3279C19.7035 41.9545 19.8742 41.457 19.8742 40.8493C19.8742 39.4617 18.9345 38.9907 18.0513 38.6593ZM18.8119 40.9638C18.8119 41.4705 18.5488 41.8115 18.0513 41.9515V39.8739C18.4298 40.058 18.8119 40.3329 18.8119 40.9638ZM16.4222 37.418C16.4222 36.9764 16.7106 36.6859 17.2558 36.5778V38.3679C16.7409 38.1588 16.4222 37.9254 16.4222 37.418Z" fill="black"/>
<path d="M35.7628 39.4762C33.9658 40.4528 31.9392 40.9899 29.883 41.0389L30.1969 38.5993C30.2272 38.3641 30.1128 38.134 29.9073 38.0162C29.7015 37.8981 29.4453 37.9159 29.2575 38.0607L25.7785 40.7463C25.6556 40.8412 25.5751 40.9812 25.5556 41.1353C25.5358 41.2894 25.5778 41.4453 25.6727 41.5685L28.3587 45.0475C28.471 45.1935 28.6438 45.2755 28.8225 45.2755C28.8736 45.2755 28.925 45.2686 28.9757 45.2548C29.2046 45.1929 29.3735 44.9992 29.4038 44.7642L29.7321 42.2135C32.0348 42.1877 34.3104 41.5998 36.3228 40.506C36.6073 40.3516 36.7124 39.9956 36.558 39.7114C36.4033 39.4269 36.0473 39.3218 35.7628 39.4762ZM26.9585 41.3159L28.8538 39.8529L28.4218 43.2111L26.9585 41.3159Z" fill="black"/>
<path d="M15.6328 30.4883C15.6821 30.7737 15.9296 30.9752 16.2099 30.9752C16.243 30.9752 16.2763 30.9725 16.31 30.9668C16.629 30.9118 16.8429 30.6087 16.7882 30.2897C16.6626 29.5597 16.5989 28.8123 16.5989 28.0685C16.5989 24.9085 17.7291 21.9047 19.7944 19.5408L21.4887 21.4526C21.6019 21.5803 21.7627 21.65 21.9273 21.65C21.9913 21.65 22.0558 21.6395 22.1183 21.6178C22.3424 21.5403 22.4977 21.3358 22.5122 21.099L22.7768 16.7119C22.7964 16.389 22.5503 16.1111 22.2271 16.0916L17.8399 15.8269C17.6023 15.8125 17.3815 15.9425 17.2779 16.1555C17.1739 16.3688 17.2088 16.6233 17.3662 16.8005L19.0118 18.6576C16.6966 21.2522 15.4268 24.5727 15.4268 28.0685C15.4268 28.8787 15.4962 29.6931 15.6328 30.4883ZM21.5716 17.2265L21.4274 19.6162L19.1819 17.0823L21.5716 17.2265Z" fill="black"/>
<path d="M42.0498 24.4915H40.0278C39.7908 24.4915 39.5769 24.6342 39.4861 24.8532C39.3954 25.0722 39.4456 25.3242 39.6132 25.4918L42.7212 28.5996C42.8357 28.714 42.9856 28.7714 43.1355 28.7714C43.2854 28.7714 43.4356 28.714 43.5501 28.5996L46.6578 25.4918C46.8254 25.3242 46.8756 25.0722 46.7848 24.8532C46.6941 24.6342 46.4802 24.4915 46.2432 24.4915H43.2644C42.3989 21.1624 40.3603 18.2797 37.4839 16.3366C37.2157 16.1552 36.8516 16.2258 36.6701 16.494C36.4893 16.7623 36.5596 17.1267 36.8278 17.3078C39.3813 19.0325 41.2147 21.5637 42.0498 24.4915ZM43.1358 27.3565L41.4427 25.6637H44.8286L43.1358 27.3565Z" fill="black"/>
</g>
<defs>
<clipPath id="clip0">
<rect width="39.375" height="39.375" fill="white" transform="translate(9.84375 8.4375)"/>
</clipPath>
</defs>
</svg>
