<svg width="28" height="28" viewBox="0 0 28 28" fill="none" xmlns="http://www.w3.org/2000/svg">
<path opacity="0.2" fill-rule="evenodd" clip-rule="evenodd" d="M10.6184 5.28528C11.2279 4.67578 12.0546 4.33337 12.9165 4.33337H17.2499C18.1118 4.33337 18.9385 4.67578 19.548 5.28528C20.1575 5.89477 20.4999 6.72142 20.4999 7.58338V8.66668H23.7499C25.5448 8.66668 26.9999 10.1218 26.9999 11.9167V22.75C26.9999 24.545 25.5448 26 23.7499 26H19.4255L19.4165 26.0001L19.4076 26H10.7588L10.7499 26.0001L10.7409 26H6.41651C4.62158 26 3.1665 24.545 3.1665 22.75V11.9167C3.1665 10.1218 4.62158 8.66668 6.41651 8.66668H9.66651V7.58338C9.66651 6.72142 10.0089 5.89477 10.6184 5.28528Z" fill="#EE6151"/>
<path fill-rule="evenodd" clip-rule="evenodd" d="M10.9165 2.33337C10.0546 2.33337 9.22791 2.67578 8.61842 3.28528C8.00893 3.89477 7.66651 4.72142 7.66651 5.58338V6.66668H4.41651C2.62158 6.66668 1.1665 8.12175 1.1665 9.91668V20.75C1.1665 22.545 2.62158 24 4.41651 24H8.7409C8.74388 24.0001 8.74686 24.0001 8.74985 24.0001C8.75284 24.0001 8.75582 24.0001 8.75881 24H17.4076C17.4106 24.0001 17.4135 24.0001 17.4165 24.0001C17.4195 24.0001 17.4225 24.0001 17.4255 24H21.7499C23.5448 24 24.9999 22.545 24.9999 20.75V9.91668C24.9999 8.12175 23.5448 6.66668 21.7499 6.66668H18.4999V5.58338C18.4999 4.72142 18.1575 3.89477 17.548 3.28528C16.9385 2.67578 16.1118 2.33337 15.2499 2.33337H10.9165ZM16.3332 6.66668V5.58338C16.3332 5.29606 16.2191 5.02051 16.0159 4.81735C15.8127 4.61418 15.5372 4.50004 15.2499 4.50004H10.9165C10.6292 4.50004 10.3537 4.61418 10.1505 4.81735C9.94732 5.02051 9.83319 5.29606 9.83319 5.58338V6.66668H16.3332ZM9.83319 8.83335H16.3332V21.8334H9.83319V8.83335ZM7.66651 8.83335H4.41651C3.8182 8.83335 3.33317 9.31837 3.33317 9.91668V20.75C3.33317 21.3483 3.8182 21.8334 4.41651 21.8334H7.66651V8.83335ZM18.4999 21.8334V8.83335H21.7499C22.3482 8.83335 22.8332 9.31837 22.8332 9.91668V20.75C22.8332 21.3483 22.3482 21.8334 21.7499 21.8334H18.4999Z" fill="url(#paint0_linear)"/>
<defs>
<linearGradient id="paint0_linear" x1="1.1665" y1="2.33337" x2="22.7352" y2="26.0589" gradientUnits="userSpaceOnUse">
<stop stop-color="#EB3577"/>
<stop offset="1" stop-color="#F08432"/>
</linearGradient>
</defs>
</svg>
