<svg width="28" height="28" viewBox="0 0 28 28" fill="none" xmlns="http://www.w3.org/2000/svg">
<path opacity="0.2" fill-rule="evenodd" clip-rule="evenodd" d="M25.0001 4.12671V20.4854V25.9383C25.0001 26.5406 24.5118 27.0289 23.9095 27.0289H9.18666C8.17432 27.0289 7.20344 26.6267 6.48761 25.9109C5.77178 25.1951 5.36963 24.2242 5.36963 23.2119V6.85316C5.36963 5.84082 5.77178 4.86995 6.48761 4.15411C7.20344 3.43828 8.17432 3.03613 9.18666 3.03613H23.9095C24.5118 3.03613 25.0001 3.5244 25.0001 4.12671Z" fill="#EE6151"/>
<path fill-rule="evenodd" clip-rule="evenodd" d="M6.16029 3.8268C6.46708 3.52001 6.88317 3.34766 7.31703 3.34766H20.9493V17.5252H7.31703C6.74574 17.5252 6.18766 17.6533 5.68116 17.8935V4.98353C5.68116 4.54967 5.85351 4.13358 6.16029 3.8268ZM5.68116 21.3422C5.68116 21.7761 5.85351 22.1922 6.16029 22.499C6.46708 22.8057 6.88317 22.9781 7.31703 22.9781H20.9493V19.7064H7.31703C6.88317 19.7064 6.46708 19.8787 6.16029 20.1855C5.85351 20.4923 5.68116 20.9084 5.68116 21.3422ZM23.1304 18.6158V2.25708C23.1304 1.65477 22.6422 1.1665 22.0399 1.1665H7.31703C6.30469 1.1665 5.33381 1.56865 4.61798 2.28449C3.90215 3.00032 3.5 3.97119 3.5 4.98353V21.3422C3.5 22.3546 3.90215 23.3254 4.61798 24.0413C5.33381 24.7571 6.30469 25.1593 7.31703 25.1593H22.0399C22.6422 25.1593 23.1304 24.671 23.1304 24.0687V18.6158Z" fill="url(#paint0_linear)"/>
<defs>
<linearGradient id="paint0_linear" x1="3.5" y1="1.1665" x2="27.0177" y2="20.4082" gradientUnits="userSpaceOnUse">
<stop stop-color="#EB3577"/>
<stop offset="1" stop-color="#F08432"/>
</linearGradient>
</defs>
</svg>
