<svg width="28" height="28" viewBox="0 0 28 28" fill="none" xmlns="http://www.w3.org/2000/svg">
<path opacity="0.2" fill-rule="evenodd" clip-rule="evenodd" d="M10.4773 3.3816C10.9379 3.03798 11.5269 2.91596 12.086 3.04837C12.6452 3.18078 13.1169 3.55403 13.3744 4.06769C13.3855 4.08979 13.3959 4.11222 13.4056 4.13496L14.2019 6.00626H17.7179L17.9991 4.65194C18.0023 4.63639 18.0058 4.6209 18.0097 4.6055C18.1674 3.9741 18.6309 3.46368 19.2442 3.24605C19.8573 3.02851 20.5386 3.13242 21.0589 3.52281L21.0593 3.52312L21.0595 3.52329L22.7281 4.77449L22.7294 4.77546C23.3938 5.27504 23.6663 6.14153 23.4087 6.93081L22.0532 11.2499L22.0531 11.2501C21.6541 12.5221 21.6662 13.8875 22.0878 15.1522L22.0878 15.1524L24.8969 23.5746C25.1921 24.4421 24.8374 25.3982 24.0469 25.863C24.0379 25.8684 24.0287 25.8736 24.0196 25.8786C21.4676 27.2899 18.5901 28.0067 15.6745 27.9575C12.7591 28.0085 9.8812 27.2936 7.32838 25.884C7.31898 25.8788 7.30965 25.8735 7.30039 25.8681C6.50992 25.4032 6.15521 24.4471 6.45037 23.5796L9.25934 15.1527L9.25944 15.1524C9.68059 13.8875 9.69273 12.5222 9.29414 11.2501L9.29409 11.2499L9.294 11.2496L7.93854 6.93076C7.68098 6.14149 7.95352 5.27503 8.61785 4.77546L8.61931 4.77437L10.4752 3.38317L10.4773 3.3816Z" fill="#EE6151"/>
<path fill-rule="evenodd" clip-rule="evenodd" d="M9.82498 0.954541C9.30586 0.831604 8.75895 0.944893 8.33139 1.26393L8.32954 1.26531L6.4736 2.65651L6.47231 2.65748C5.85529 3.12148 5.60228 3.92635 5.84182 4.65937L7.19754 8.97902L7.19758 8.97917L7.19766 8.97943C7.605 10.2794 7.5926 11.6747 7.16221 12.9673L7.16212 12.9676L4.35302 21.3949C4.0788 22.2001 4.40799 23.0878 5.14178 23.5193C5.14995 23.5241 5.15819 23.5288 5.1665 23.5334C7.69871 24.9316 10.5535 25.6405 13.4454 25.5895C16.3375 25.6387 19.1919 24.9279 21.7233 23.528L21.7337 23.5222L21.7474 23.5142C22.4812 23.0827 22.8104 22.1952 22.5362 21.3899L19.727 12.9673L19.7269 12.9671C19.2961 11.6747 19.2837 10.2793 19.6915 8.97942L19.6916 8.97933L21.0474 4.65936C21.2869 3.92634 21.0339 3.12147 20.4169 2.65748L20.4157 2.65662L18.7471 1.40537L18.7465 1.40494C18.2634 1.04247 17.6309 0.945981 17.0616 1.14796C16.4922 1.35002 16.0619 1.82391 15.9154 2.41014C15.912 2.42374 15.9089 2.43742 15.9061 2.45115L15.6019 3.91617H11.881L11.0487 1.96034C11.0401 1.94025 11.031 1.92044 11.0212 1.90093C10.7821 1.42402 10.3441 1.07748 9.82498 0.954541ZM7.9019 4.21036L9.28329 3.17488L10.2205 5.37731C10.3853 5.7647 10.7656 6.01617 11.1867 6.01617H16.4564C16.954 6.01617 17.3833 5.66684 17.4844 5.17959L17.861 3.36575L18.9873 4.21033L17.6879 8.35059L17.6879 8.35069C17.3497 9.4284 17.2297 10.5557 17.3273 11.668C16.0617 12.0065 14.7574 12.1846 13.4451 12.1972C12.1324 12.1846 10.8276 12.0064 9.5616 11.6677C9.659 10.5555 9.53914 9.42853 9.20143 8.35099L9.2013 8.35059L7.9019 4.21036ZM9.12358 13.724L6.42311 21.8254C7.34946 22.3141 8.32281 22.6987 9.32532 22.9747L10.1529 18.3326C10.2546 17.7617 10.7999 17.3814 11.3708 17.4832C11.9417 17.585 12.322 18.1303 12.2203 18.7012L11.3856 23.3833C12.0599 23.4666 12.7414 23.5024 13.4254 23.4896C13.4383 23.4893 13.4512 23.4893 13.4642 23.4895C14.1482 23.502 14.8299 23.4657 15.5042 23.3819L14.6698 18.7012C14.568 18.1303 14.9483 17.585 15.5192 17.4832C16.0901 17.3814 16.6354 17.7617 16.7372 18.3326L17.5642 22.972C18.5667 22.6953 19.54 22.31 20.4661 21.8206L17.7657 13.7242C16.359 14.0913 14.9111 14.2841 13.4546 14.2972H13.4357C11.9788 14.2841 10.5306 14.0912 9.12358 13.724Z" fill="url(#paint0_linear)"/>
<defs>
<linearGradient id="paint0_linear" x1="4.25708" y1="0.906006" x2="27.905" y2="18.5082" gradientUnits="userSpaceOnUse">
<stop stop-color="#EB3577"/>
<stop offset="1" stop-color="#F08432"/>
</linearGradient>
</defs>
</svg>
