<svg width="24" height="24" viewBox="0 0 24 24" fill="none" xmlns="http://www.w3.org/2000/svg">
<path d="M19.4691 19.4987C18.5483 20.8803 17.5721 22.2285 16.0855 22.2508C14.599 22.2842 14.122 21.3706 12.4358 21.3706C10.7384 21.3706 10.217 22.2285 8.80815 22.2842C7.35489 22.3399 6.25662 20.8135 5.32476 19.4653C3.42776 16.7132 1.9745 11.6435 3.92697 8.23403C4.89211 6.54042 6.62271 5.47078 8.49753 5.43735C9.91751 5.41507 11.2709 6.40672 12.1473 6.40672C13.0126 6.40672 14.6545 5.21451 16.374 5.39278C17.0951 5.42621 19.1141 5.68248 20.412 7.59892C20.3122 7.66578 18.0047 9.02512 18.0269 11.8441C18.0602 15.209 20.9667 16.3343 21 16.3455C20.9667 16.4235 20.5341 17.9499 19.4691 19.4987ZM13.1346 1.67132C13.9445 0.746522 15.2868 0.0445685 16.3962 0C16.5404 1.30363 16.019 2.6184 15.2424 3.55434C14.477 4.50142 13.2123 5.23679 11.9698 5.13652C11.8034 3.85517 12.4247 2.51812 13.1346 1.67132Z" fill="white"/>
</svg>
