<svg width="24" height="24" viewBox="0 0 24 24" fill="none" xmlns="http://www.w3.org/2000/svg">
<rect x="1.9975" y="1.9975" width="20.005" height="20.005" rx="5.0025" stroke="#9393A7" stroke-width="1.995"/>
<path d="M17.925 12.4716V17.175H15.5596V12.8052C15.5596 12.4506 15.4187 12.1104 15.1679 11.8597C14.9172 11.6089 14.577 11.468 14.2224 11.468C13.4861 11.468 12.8942 12.0703 12.8942 12.8052V17.175H10.5288V9.77879H12.8942V10.7045V10.9695L13.0331 10.7439C13.4518 10.0635 14.3198 9.60749 15.0609 9.60749C15.8205 9.60749 16.549 9.90925 17.0861 10.4464C17.6232 10.9835 17.925 11.712 17.925 12.4716ZM8.54165 7.79165C8.27167 8.06164 7.90549 8.21332 7.52367 8.21332C6.72604 8.21332 6.075 7.57013 6.075 6.77367C6.075 6.38946 6.22763 6.02098 6.4993 5.7493C6.77098 5.47763 7.13946 5.325 7.52367 5.325C8.32013 5.325 8.96332 5.97604 8.96332 6.77367C8.96332 7.15549 8.81164 7.52167 8.54165 7.79165ZM6.35449 9.77879H8.70186V17.175H6.35449V9.77879Z" fill="#9393A7" stroke="white" stroke-width="0.15"/>
</svg>
