<svg width="28" height="28" viewBox="0 0 28 28" fill="none" xmlns="http://www.w3.org/2000/svg">
<path opacity="0.2" d="M6.14355 23.4706C6.14355 21.8463 8.30936 17.5146 16.4311 17.5146C24.5529 17.5146 26.7187 21.8463 26.7187 23.4706C26.7187 25.095 25.6358 26.1779 24.0114 26.1779H8.85081C7.22646 26.1779 6.14355 25.095 6.14355 23.4706Z" fill="#EE6151" stroke="#EE6151" stroke-width="1.625" stroke-linejoin="round"/>
<ellipse opacity="0.2" cx="16.432" cy="9.12143" rx="4.06088" ry="4.06088" fill="#EE6151" stroke="#EE6151" stroke-width="1.625" stroke-linejoin="round"/>
<g clip-path="url(#clip0)">
<path fill-rule="evenodd" clip-rule="evenodd" d="M11.0208 6.68685C11.0208 5.0415 12.3547 3.70768 14 3.70768C15.6453 3.70768 16.9792 5.0415 16.9792 6.68685C16.9792 8.3322 15.6453 9.66602 14 9.66602C12.3547 9.66602 11.0208 8.3322 11.0208 6.68685ZM14 1.54102C11.158 1.54102 8.85417 3.84488 8.85417 6.68685C8.85417 9.52881 11.158 11.8327 14 11.8327C16.842 11.8327 19.1458 9.52881 19.1458 6.68685C19.1458 3.84488 16.842 1.54102 14 1.54102ZM14 13.9993C5.47957 13.9993 2.625 18.6332 2.625 21.041C2.625 22.0997 2.98262 23.0661 3.68709 23.7706C4.39156 24.4751 5.35798 24.8327 6.41667 24.8327H21.5833C22.642 24.8327 23.6084 24.4751 24.3129 23.7706C25.0174 23.0661 25.375 22.0997 25.375 21.041C25.375 18.6332 22.5204 13.9993 14 13.9993ZM4.79167 21.041C4.79167 20.1988 6.27044 16.166 14 16.166C21.7296 16.166 23.2083 20.1988 23.2083 21.041C23.2083 21.6073 23.0243 21.9951 22.7808 22.2385C22.5374 22.482 22.1496 22.666 21.5833 22.666H6.41667C5.85035 22.666 5.4626 22.482 5.21916 22.2385C4.97571 21.9951 4.79167 21.6073 4.79167 21.041Z" fill="url(#paint0_linear)"/>
</g>
<defs>
<linearGradient id="paint0_linear" x1="2.625" y1="1.54102" x2="25.9102" y2="24.2847" gradientUnits="userSpaceOnUse">
<stop stop-color="#EB3577"/>
<stop offset="1" stop-color="#F08432"/>
</linearGradient>
<clipPath id="clip0">
<rect width="26" height="26" fill="white" transform="translate(1 1)"/>
</clipPath>
</defs>
</svg>
