<svg width="29" height="29" viewBox="0 0 29 29" fill="none" xmlns="http://www.w3.org/2000/svg">
<ellipse opacity="0.2" cx="16.4835" cy="15.8048" rx="11.9825" ry="12.5197" fill="#EE6151"/>
<g clip-path="url(#clip0)">
<path fill-rule="evenodd" clip-rule="evenodd" d="M3.85137 14.0054C3.85137 8.39748 8.39748 3.85137 14.0054 3.85137C19.6133 3.85137 24.1594 8.39748 24.1594 14.0054C24.1594 19.6133 19.6133 24.1594 14.0054 24.1594C8.39748 24.1594 3.85137 19.6133 3.85137 14.0054ZM14.0054 1.40039C7.04385 1.40039 1.40039 7.04385 1.40039 14.0054C1.40039 20.967 7.04385 26.6104 14.0054 26.6104C20.967 26.6104 26.6104 20.967 26.6104 14.0054C26.6104 7.04385 20.967 1.40039 14.0054 1.40039ZM9.02122 15.9269C9.56941 15.5926 10.2841 15.7641 10.6214 16.3093L10.6243 16.3139C10.6293 16.3215 10.6394 16.3369 10.6548 16.3589C10.6856 16.4031 10.7367 16.4733 10.808 16.561C10.9515 16.7375 11.1707 16.9775 11.4631 17.2172C12.046 17.6952 12.8872 18.1489 14.0056 18.1489C15.124 18.1489 15.9652 17.6952 16.5481 17.2172C16.8404 16.9775 17.0596 16.7375 17.2032 16.561C17.2744 16.4733 17.3256 16.4031 17.3564 16.3589C17.3717 16.3369 17.3819 16.3218 17.3868 16.3142L17.3877 16.3127L17.389 16.3105L17.3898 16.3093C17.727 15.7641 18.4417 15.5926 18.9899 15.9269C19.5403 16.2625 19.7144 16.9807 19.3788 17.531L19.3777 17.5329L19.3764 17.5349L19.3734 17.5397L19.3658 17.552L19.3436 17.5866C19.3258 17.6141 19.3017 17.6501 19.2715 17.6935C19.2111 17.7802 19.1255 17.8969 19.0144 18.0335C18.7932 18.3056 18.4653 18.6638 18.0282 19.0222C17.1521 19.7406 15.805 20.4832 14.0056 20.4832C12.2061 20.4832 10.859 19.7406 9.98296 19.0222C9.54584 18.6638 9.21798 18.3056 8.99678 18.0335C8.88569 17.8969 8.80005 17.7802 8.73966 17.6935C8.70942 17.6501 8.68539 17.6141 8.66754 17.5866L8.64535 17.552L8.6377 17.5397L8.63474 17.5349L8.63347 17.5329L8.63234 17.531C8.29676 16.9807 8.47087 16.2625 9.02122 15.9269ZM19.2575 11.0876C19.2575 12.0545 18.4737 12.8383 17.5068 12.8383C16.5399 12.8383 15.7561 12.0545 15.7561 11.0876C15.7561 10.1207 16.5399 9.33688 17.5068 9.33688C18.4737 9.33688 19.2575 10.1207 19.2575 11.0876ZM10.504 12.8383C11.4709 12.8383 12.2547 12.0545 12.2547 11.0876C12.2547 10.1207 11.4709 9.33688 10.504 9.33688C9.53713 9.33688 8.75332 10.1207 8.75332 11.0876C8.75332 12.0545 9.53713 12.8383 10.504 12.8383Z" fill="url(#paint0_linear)"/>
</g>
<defs>
<linearGradient id="paint0_linear" x1="1.40039" y1="1.40039" x2="26.6104" y2="26.6104" gradientUnits="userSpaceOnUse">
<stop stop-color="#EB3577"/>
<stop offset="1" stop-color="#F08432"/>
</linearGradient>
<clipPath id="clip0">
<rect width="28.0111" height="28.0111" fill="white"/>
</clipPath>
</defs>
</svg>
