<svg width="60" height="60" viewBox="0 0 60 60" fill="none" xmlns="http://www.w3.org/2000/svg">
<circle cx="30" cy="30" r="30" fill="#FDD9B4"/>
<g clip-path="url(#clip0)">
<path d="M23.7695 14.3003C24.0737 14.3003 24.3456 14.1072 24.4415 13.8187C24.7688 12.8317 25.7004 12.1176 26.7956 12.1176H34.1521C35.2476 12.1176 36.1789 12.8317 36.5065 13.8187C36.6021 14.1072 36.8743 14.3003 37.1782 14.3003H37.9421C38.4032 14.3003 38.7492 13.8661 38.632 13.4204C38.1095 11.4345 36.2995 9.96558 34.1521 9.96558H26.7956C24.6482 9.96558 22.8382 11.4345 22.316 13.4204C22.1988 13.8661 22.5448 14.3003 23.0055 14.3003H23.7695Z" fill="#8B5F46"/>
<path d="M23.3288 49.0968C22.3867 49.0968 21.623 48.3331 21.623 47.3911V45.1447H25.0345V47.3911C25.0345 48.3331 24.2708 49.0968 23.3288 49.0968Z" fill="#2B3A4A"/>
<path d="M37.6183 49.0968C36.6763 49.0968 35.9126 48.3331 35.9126 47.3911V45.1447H39.3237V47.3911C39.3237 48.3331 38.5601 49.0968 37.6183 49.0968Z" fill="#2B3A4A"/>
<path d="M39.831 46.7538H21.1191C19.8258 46.7538 18.7773 45.7057 18.7773 44.4124V23.4106C18.7773 20.7201 20.9589 18.5386 23.6494 18.5386H37.3004C39.9913 18.5386 42.1725 20.7201 42.1725 23.4106V44.4124C42.1725 45.7057 41.1243 46.7538 39.831 46.7538Z" fill="#FDBD37"/>
<path d="M37.2999 18.5394H33.4004C36.0912 18.5394 38.2724 20.7206 38.2724 23.4115V46.7544H39.8305C41.1238 46.7544 42.172 45.7062 42.172 44.4129V23.4115C42.172 20.7206 39.9908 18.5394 37.2999 18.5394Z" fill="#FA9A39"/>
<path d="M18.7773 36.2274V44.4122C18.7773 45.7055 19.8258 46.7537 21.1191 46.7537H39.831C41.1243 46.7537 42.1725 45.7055 42.1725 44.4122V36.2274H18.7773Z" fill="#FC6A58"/>
<path d="M38.271 46.7537H39.8291C39.9906 46.7537 40.1486 46.7374 40.3009 46.7063C40.4534 46.6749 40.6004 46.6291 40.7404 46.5697C40.7755 46.555 40.8099 46.5393 40.844 46.523C40.9123 46.4901 40.9787 46.4538 41.043 46.4147C41.0753 46.3954 41.107 46.3751 41.1381 46.3538C41.1867 46.3209 41.2337 46.2859 41.2795 46.2496C41.322 46.216 41.3635 46.1816 41.4032 46.1453C41.4588 46.0952 41.5117 46.042 41.5622 45.9866C41.5985 45.9466 41.6329 45.9051 41.6665 45.8627C41.7027 45.8168 41.7378 45.7698 41.7704 45.7215C41.7916 45.6901 41.8119 45.6584 41.8316 45.6265C41.8707 45.5619 41.9067 45.4954 41.9396 45.4272C41.9562 45.3933 41.9715 45.3586 41.9866 45.3235C42.0457 45.1836 42.0918 45.0366 42.1229 44.884C42.1542 44.7318 42.1705 44.574 42.1705 44.4122V36.2274H38.271V46.7537Z" fill="#E35052"/>
<path d="M22.0459 35.3311V41.0536C22.0459 42.3635 23.1079 43.4255 24.4178 43.4255H36.5304C37.8406 43.4255 38.9023 42.3635 38.9023 41.0536V35.3311C38.9023 32.2924 36.4391 29.8289 33.4001 29.8289H27.5484C24.5095 29.8289 22.0459 32.2924 22.0459 35.3311Z" fill="#3E678C"/>
<path d="M33.3992 29.8289H29.5C32.5387 29.8289 35.0022 32.2924 35.0022 35.3311V41.0536C35.0022 42.3635 33.9402 43.4255 32.6303 43.4255H36.5296C37.8398 43.4255 38.9015 42.3635 38.9015 41.0536V35.3311C38.9015 32.2924 36.4382 29.8289 33.3992 29.8289Z" fill="#375779"/>
<path d="M35.6678 26.8447C36.2414 26.8447 36.7068 26.3797 36.7068 25.8058V23.4302H34.6289V25.8058C34.6289 26.3797 35.0939 26.8447 35.6678 26.8447Z" fill="#D7DEE3"/>
<path d="M35.9606 33.9304H24.9875C24.6612 33.9304 24.397 34.1949 24.397 34.5209C24.397 34.8469 24.6612 35.1114 24.9875 35.1114H35.9606C36.2866 35.1114 36.5511 34.8469 36.5511 34.5209C36.5511 34.1949 36.2866 33.9304 35.9606 33.9304Z" fill="black"/>
<path d="M42.1717 39.8864C42.498 39.8864 42.7622 39.6222 42.7622 39.2959V23.4111C42.7622 20.7402 40.8356 18.5111 38.2995 18.0402V14.8416C38.5655 14.7665 38.802 14.6081 38.9764 14.3818C39.2225 14.0628 39.3052 13.6575 39.2031 13.2699C38.6 10.9768 36.523 9.375 34.1524 9.375H26.7958C24.4252 9.375 22.3482 10.9768 21.7451 13.2699C21.6433 13.6575 21.7257 14.0628 21.9718 14.3821C22.1462 14.6081 22.383 14.7665 22.649 14.8416V18.0402C20.1126 18.5111 18.186 20.7402 18.186 23.4111V27.0775C18.186 27.4035 18.4505 27.668 18.7765 27.668C19.1029 27.668 19.3671 27.4035 19.3671 27.0775V23.4111C19.3671 21.0503 21.2878 19.1296 23.6486 19.1296H37.2996C39.6604 19.1296 41.5811 21.0503 41.5811 23.4111V35.6372H39.4928V35.3312C39.4928 31.9717 36.7595 29.2384 33.4001 29.2384H27.5481C24.1887 29.2384 21.4554 31.9717 21.4554 35.3312V35.6372H19.3671V29.8289C19.3671 29.5029 19.1026 29.2384 18.7765 29.2384C18.4505 29.2384 18.186 29.5029 18.186 29.8289V44.4125C18.186 46.001 19.4556 47.2983 21.0331 47.3432V47.3915C21.0331 48.6574 22.0631 49.6874 23.3293 49.6874C24.5953 49.6874 25.6256 48.6574 25.6256 47.3915V47.3444H35.3229V47.3915C35.3229 48.6574 36.3529 49.6874 37.6192 49.6874C38.8851 49.6874 39.9151 48.6574 39.9151 47.3915V47.3432C41.4929 47.2983 42.7622 46.0007 42.7622 44.4125V42.0436C42.7622 41.7176 42.498 41.4531 42.1717 41.4531C41.8456 41.4531 41.5811 41.7176 41.5811 42.0436V44.4125C41.5811 45.3782 40.7956 46.1634 39.8302 46.1634H21.1183C20.1526 46.1634 19.3671 45.3779 19.3671 44.4125V36.8182H21.4554V41.0536C21.4554 42.6871 22.7844 44.016 24.4178 44.016H36.5304C38.1642 44.016 39.4928 42.6871 39.4928 41.0536V36.8182H41.5811V39.2962C41.5811 39.6222 41.8456 39.8864 42.1717 39.8864ZM23.8301 14.8892C24.3661 14.8649 24.8327 14.5155 25.0022 14.0047C25.2596 13.229 25.9805 12.708 26.7962 12.708H34.1524C34.9683 12.708 35.6889 13.229 35.9464 14.0044C36.1158 14.5155 36.5824 14.8649 37.1185 14.8892V17.9485H23.8301V14.8892ZM22.8874 13.5704C23.3543 11.7955 24.9616 10.556 26.7958 10.556H34.1524C35.9869 10.556 37.5943 11.7955 38.0611 13.5704C38.0802 13.6436 38.0131 13.7097 37.9424 13.7097H37.1784C37.128 13.7097 37.0822 13.6781 37.0671 13.6325C36.6494 12.3731 35.4779 11.527 34.1524 11.527H26.7958C25.4703 11.527 24.2991 12.3731 23.8811 13.6325C23.866 13.6781 23.8202 13.7097 23.7698 13.7097H23.0058C22.9347 13.7094 22.8683 13.6427 22.8874 13.5704ZM24.4446 47.3912C24.4446 48.006 23.9442 48.5064 23.3293 48.5064C22.7145 48.5064 22.2141 48.006 22.2141 47.3912V47.3444H24.4443V47.3912H24.4446ZM37.6192 48.5064C37.004 48.5064 36.504 48.006 36.504 47.3912V47.3444H38.7341V47.3912C38.7341 48.006 38.234 48.5064 37.6192 48.5064ZM38.3118 41.0536C38.3118 42.036 37.5127 42.835 36.5304 42.835H24.4178C23.4355 42.835 22.6364 42.036 22.6364 41.0536V35.3312C22.6364 32.6231 24.8398 30.4194 27.5484 30.4194H33.4001C36.1084 30.4194 38.3118 32.6228 38.3118 35.3312V41.0536Z" fill="black"/>
<path d="M35.6669 27.4352C36.5653 27.4352 37.296 26.7044 37.296 25.8057V23.4301C37.296 23.1041 37.0318 22.8396 36.7055 22.8396H24.2404C23.9144 22.8396 23.6499 23.1041 23.6499 23.4301C23.6499 23.7561 23.9144 24.0206 24.2404 24.0206H34.0374V25.8057C34.0374 26.7044 34.7682 27.4352 35.6669 27.4352ZM35.6669 26.2541C35.4196 26.2541 35.2185 26.053 35.2185 25.8057V24.0206H36.115V25.8057C36.115 26.053 35.9138 26.2541 35.6669 26.2541Z" fill="black"/>
</g>
<defs>
<clipPath id="clip0">
<rect width="40.3125" height="40.3125" fill="white" transform="translate(10.3125 9.375)"/>
</clipPath>
</defs>
</svg>
