<?xml version="1.0" standalone="no"?>
<!DOCTYPE svg PUBLIC "-//W3C//DTD SVG 1.1//EN" "http://www.w3.org/Graphics/SVG/1.1/DTD/svg11.dtd" >
<svg>
<metadata>
Created by FontForge 20090914 at Sat Dec  2 11:24:37 2017
 By www-data
Copyright &#194;&#169; 2010 Dalton Maag Ltd. All rights reserved. This font may not be altered in any way without prior permission of Dalton Maag Ltd.
</metadata>
<defs>
<font id="AktivGroteskCorp-Medium" horiz-adv-x="592" >
  <font-face 
    font-family="Aktiv Grotesk Corp"
    font-weight="500"
    font-stretch="normal"
    units-per-em="1000"
    panose-1="2 11 6 4 2 2 2 2 2 4"
    ascent="800"
    descent="-200"
    x-height="520"
    cap-height="714"
    bbox="-180 -223 1320 959.003"
    underline-thickness="80"
    underline-position="-53"
    unicode-range="U+0008-U+FB04"
  />
<missing-glyph horiz-adv-x="500" 
d="M50 0v750h400v-750h-400zM400 50v650h-300v-650h300z" />
    <glyph glyph-name="f_f" unicode="ff" horiz-adv-x="712" 
d="M372 430l-0.000976562 89.999h81v30c0 28 4 52.5 12 73.5s19.167 38.667 33.5 53s31.333 25.166 51 32.499s41.167 11.333 64.5 12c4 0.666992 8 0.833984 12 0.500977s8.66699 -0.5 14 -0.5c14 -1.33301 27.333 -2.66602 40 -3.99902s26.334 -4.33301 41.001 -9l-17 -85
c-21.333 6 -41.333 9 -60 9c-21.333 0 -39.5 -6 -54.5 -18s-22.5 -32.333 -22.5 -61v-33h126v-90h-126v-430h-114v430h-81zM15.999 429.999l-0.000976562 89.999h81v30c0 28 4 52.5 12 73.5s19.167 38.667 33.5 53s31.333 25.166 51 32.499s41.167 11.333 64.5 12
c4 0.666992 8 0.833984 12 0.500977s8.66699 -0.5 14 -0.5c14 -1.33301 27.333 -2.66602 40 -3.99902s26.334 -4.33301 41.001 -9l-17 -85c-21.333 6 -41.333 9 -60 9c-21.333 0 -39.5 -6 -54.5 -18s-22.5 -32.333 -22.5 -61v-33h126v-90h-126v-430h-114v430h-81z" />
    <glyph glyph-name="f_i" unicode="fi" horiz-adv-x="602" 
d="M16 430l-0.000976562 89.999h81v30c0 28 4 52.5 12 73.5s19.167 38.667 33.5 53s31.333 25.166 51 32.499s41.167 11.333 64.5 12c4 0.666992 8 0.833984 12 0.500977s8.66699 -0.5 14 -0.5c14 -1.33301 27.333 -2.66602 40 -3.99902s26.334 -4.33301 41.001 -9l-17 -85
c-21.333 6 -41.333 9 -60 9c-21.333 0 -39.5 -6 -54.5 -18s-22.5 -32.333 -22.5 -61v-33h126v-90h-126v-430h-114v430h-81zM537.999 713.999v-113h-118v113h118zM535.999 519.999v-520h-114v520h114z" />
    <glyph glyph-name="f_l" unicode="fl" horiz-adv-x="602" 
d="M16 430l-0.000976562 89.999h81v30c0 28 4 52.5 12 73.5s19.167 38.667 33.5 53s31.333 25.166 51 32.499s41.167 11.333 64.5 12c4 0.666992 8 0.833984 12 0.500977s8.66699 -0.5 14 -0.5c14 -1.33301 27.333 -2.66602 40 -3.99902s26.334 -4.33301 41.001 -9l-17 -85
c-21.333 6 -41.333 9 -60 9c-21.333 0 -39.5 -6 -54.5 -18s-22.5 -32.333 -22.5 -61v-33h126v-90h-126v-430h-114v430h-81zM535.999 713.999v-714h-114v714h114z" />
    <glyph glyph-name="f_f_i" unicode="ffi" horiz-adv-x="958" 
d="M372 430l-0.000976562 89.999h81v30c0 28 4 52.5 12 73.5s19.167 38.667 33.5 53s31.333 25.166 51 32.499s41.167 11.333 64.5 12c4 0.666992 8 0.833984 12 0.500977s8.66699 -0.5 14 -0.5c14 -1.33301 27.333 -2.66602 40 -3.99902s26.334 -4.33301 41.001 -9l-17 -85
c-21.333 6 -41.333 9 -60 9c-21.333 0 -39.5 -6 -54.5 -18s-22.5 -32.333 -22.5 -61v-33h126v-90h-126v-430h-114v430h-81zM15.999 429.999l-0.000976562 89.999h81v30c0 28 4 52.5 12 73.5s19.167 38.667 33.5 53s31.333 25.166 51 32.499s41.167 11.333 64.5 12
c4 0.666992 8 0.833984 12 0.500977s8.66699 -0.5 14 -0.5c14 -1.33301 27.333 -2.66602 40 -3.99902s26.334 -4.33301 41.001 -9l-17 -85c-21.333 6 -41.333 9 -60 9c-21.333 0 -39.5 -6 -54.5 -18s-22.5 -32.333 -22.5 -61v-33h126v-90h-126v-430h-114v430h-81z
M893.998 713.998v-113h-118v113h118zM891.998 519.998v-520h-114v520h114z" />
    <glyph glyph-name="f_f_l" unicode="ffl" horiz-adv-x="958" 
d="M372 430l-0.000976562 89.999h81v30c0 28 4 52.5 12 73.5s19.167 38.667 33.5 53s31.333 25.166 51 32.499s41.167 11.333 64.5 12c4 0.666992 8 0.833984 12 0.500977s8.66699 -0.5 14 -0.5c14 -1.33301 27.333 -2.66602 40 -3.99902s26.334 -4.33301 41.001 -9l-17 -85
c-21.333 6 -41.333 9 -60 9c-21.333 0 -39.5 -6 -54.5 -18s-22.5 -32.333 -22.5 -61v-33h126v-90h-126v-430h-114v430h-81zM15.999 429.999l-0.000976562 89.999h81v30c0 28 4 52.5 12 73.5s19.167 38.667 33.5 53s31.333 25.166 51 32.499s41.167 11.333 64.5 12
c4 0.666992 8 0.833984 12 0.500977s8.66699 -0.5 14 -0.5c14 -1.33301 27.333 -2.66602 40 -3.99902s26.334 -4.33301 41.001 -9l-17 -85c-21.333 6 -41.333 9 -60 9c-21.333 0 -39.5 -6 -54.5 -18s-22.5 -32.333 -22.5 -61v-33h126v-90h-126v-430h-114v430h-81z
M891.998 713.998v-714h-114v714h114z" />
    <glyph glyph-name=".notdef" horiz-adv-x="500" 
d="M50 0v750h400v-750h-400zM400 50v650h-300v-650h300z" />
    <glyph glyph-name=".null" horiz-adv-x="0" 
 />
    <glyph glyph-name=".null" horiz-adv-x="0" 
 />
    <glyph glyph-name=".null" horiz-adv-x="0" 
 />
    <glyph glyph-name="nonmarkingreturn" unicode="&#x9;" horiz-adv-x="223" 
 />
    <glyph glyph-name="nonmarkingreturn" unicode="&#xd;" horiz-adv-x="223" 
 />
    <glyph glyph-name="space" unicode=" " horiz-adv-x="223" 
 />
    <glyph glyph-name="exclam" unicode="!" horiz-adv-x="252" 
d="M184 137v-137h-116v137h116zM187 714l-8 -499h-105l-8 499h121z" />
    <glyph glyph-name="quotedbl" unicode="&#x22;" horiz-adv-x="356" 
d="M319 711l-7 -262h-92l-7 262h106zM144 711l-7 -262h-93l-7 262h107z" />
    <glyph glyph-name="numbersign" unicode="#" 
d="M381 427h-133l-30 -176h133zM19 167v84h101l29 176h-97v84h111l27 167h99l-28 -167h133l27 167h98l-27 -167h79v-84h-92l-29 -176h86v-84h-101l-27 -167h-98l27 167h-133l-27 -167h-98l27 167h-87z" />
    <glyph glyph-name="dollar" unicode="$" 
d="M263 619c-36.667 -4 -63.167 -14.833 -79.5 -32.5s-24.5 -36.5 -24.5 -56.5v-16c1.33301 -28 9.5 -49.833 24.5 -65.5s41.5 -27.167 79.5 -34.5v205zM323 77c38 3.33301 65.167 14.667 81.5 34s24.5 44.333 24.5 75c0 10.667 -1.5 21.5 -4.5 32.5s-8.5 21.333 -16.5 31
s-18.833 18.167 -32.5 25.5s-31.167 13 -52.5 17v-215zM263 -14.999c-39.333 2.66699 -73.001 10.002 -101.001 22.002s-51.333 27.5 -70 46.5s-32.667 41.333 -42 67s-14.666 54.167 -15.999 85.5h112c3.33301 -41.333 14.5 -71.833 33.5 -91.5
s46.833 -31.834 83.5 -36.501v225c-34.667 6 -65.167 13.833 -91.5 23.5s-48.5 22.5 -66.5 38.5s-32 35.333 -42 58s-15.333 49.667 -16 81c0 6 0.166992 12 0.5 18s0.833008 12 1.5 18c5.33301 46 26.166 84.333 62.499 115s86.833 48.334 151.5 53.001v87h60v-87
c40 -3.33301 73.167 -11.333 99.5 -24s47.5 -28 63.5 -46s27.833 -37.833 35.5 -59.5s13.167 -42.834 16.5 -63.501l-108 -16c-8 36 -19.5 63.833 -34.5 83.5s-39.167 31.5 -72.5 35.5v-216l24 -4c66.667 -12.667 116.334 -35.167 149.001 -67.5s49 -79.5 49 -141.5
c0 -26 -4.5 -50.833 -13.5 -74.5s-22.5 -44.834 -40.5 -63.501s-41 -34 -69 -46s-61 -19 -99 -21v-100h-60v101z" />
    <glyph glyph-name="percent" unicode="%" horiz-adv-x="944" 
d="M731 64c27.333 0 48.166 10.001 62.499 30.001s21.5 54.333 21.5 103c0 48 -7.16699 82.5 -21.5 103.5s-35.166 31.5 -62.499 31.5c-26.667 0 -47 -10.333 -61 -31s-21 -55.334 -21 -104.001c0 -49.333 7 -83.833 21 -103.5s34.333 -29.5 61 -29.5zM731 -17.999
c-56 0 -99.833 18 -131.5 54s-47.5 89.667 -47.5 161c0 36.667 4.5 68.667 13.5 96s21.5 50 37.5 68s35 31.5 57 40.5s45.667 13.5 71 13.5c53.333 0 96.666 -18.167 129.999 -54.5s50 -90.833 50 -163.5c0 -38.667 -4.66699 -71.667 -14 -99s-22.166 -49.5 -38.499 -66.5
s-35.5 -29.5 -57.5 -37.5s-45.333 -12 -70 -12zM241 0.000976562l349 691h112l-350 -691h-111zM212 356.001c27.333 0 48 10.167 62 30.5s21 54.833 21 103.5c0 48 -7 82.5 -21 103.5s-34.667 31.5 -62 31.5c-26.667 0 -47 -10.5 -61 -31.5s-21 -55.5 -21 -103.5
c0 -49.333 6.83301 -84 20.5 -104s34.167 -30 61.5 -30zM212 274.001c-55.333 0 -98.999 17.832 -130.999 53.499s-48 89.834 -48 162.501c0 36.667 4.5 68.667 13.5 96s21.5 50 37.5 68s35 31.5 57 40.5s45.667 13.5 71 13.5c53.333 0 96.666 -18.167 129.999 -54.5
s50 -90.833 50 -163.5c0 -40 -4.83301 -73.667 -14.5 -101s-22.667 -49.5 -39 -66.5s-35.5 -29.333 -57.5 -37s-45 -11.5 -69 -11.5z" />
    <glyph glyph-name="ampersand" unicode="&#x26;" horiz-adv-x="653" 
d="M286 444c10.667 6 20.834 12.835 30.501 20.502s18.167 16.167 25.5 25.5s13.333 19.666 18 30.999s7 24 7 38c0 25.333 -6.66699 44.666 -20 57.999s-31.333 20 -54 20c-50.667 0 -76 -27.333 -76 -82c0 -12.667 2.16699 -24.667 6.5 -36s9.66602 -21.833 15.999 -31.5
s13 -18.5 20 -26.5l18.5 -21zM238 331.002c-24.667 -14 -45.999 -31.167 -63.999 -51.5s-27 -45.166 -27 -74.499c0 -18.667 2.5 -36 7.5 -52s13.333 -29.667 25 -41s27 -20.333 46 -27s42.833 -10 71.5 -10c28 0 51.667 4.16699 71 12.5s35.666 19.166 48.999 32.499z
M476.001 53.002c-22.667 -20 -49.3311 -36.5029 -79.998 -49.5029s-66.667 -19.5 -108 -19.5c-50 0 -91.333 6 -124 18s-58.834 27.667 -78.501 47s-33.334 41.333 -41.001 66s-11.5 49.667 -11.5 75c0 26.667 4.33301 50.5 13 71.5s20.167 39.667 34.5 56
s30.666 30.833 48.999 43.5s37.166 24.667 56.499 36c-18 20 -34.667 43.667 -50 71s-23 57 -23 89c0 23.333 4.33301 45 13 65s20.667 37.167 36 51.5s34 25.666 56 33.999s46 12.5 72 12.5c50 0 90.167 -12.167 120.5 -36.5s48.166 -56.166 53.499 -95.499
c1.33301 -5.33301 2 -10.666 2 -15.999v-16c-1.33301 -21.333 -6 -40.666 -14 -57.999s-18.167 -33 -30.5 -47s-26.666 -26.667 -42.999 -38s-32.833 -22 -49.5 -32l150 -177c9.33301 23.333 15.833 46.666 19.5 69.999s5.83398 48 6.50098 74h103
c-0.666992 -41.333 -6.66699 -80.666 -18 -117.999s-26.666 -71.666 -45.999 -102.999l109 -127h-132z" />
    <glyph glyph-name="quotesingle" unicode="'" horiz-adv-x="187" 
d="M150 711l-7 -262h-99l-7 262h113z" />
    <glyph glyph-name="parenleft" unicode="(" horiz-adv-x="281" 
d="M165 -124c-38 58 -67.333 123.829 -88 197.496s-31 150.834 -31 231.501c0 36.667 2.33301 74 7 112s12 75.333 22 112s22.5 72.334 37.5 107.001s32.5 67.334 52.5 98.001h107c-39.333 -69.333 -67 -139 -83 -209s-24 -143.333 -24 -220c0 -78 8 -151.667 24 -221
s43.667 -138.666 83 -207.999h-107z" />
    <glyph glyph-name="parenright" unicode=")" horiz-adv-x="281" 
d="M8 -124c38.667 69.333 66.333 138.668 83 208.001s25 143 25 221c0 77.333 -8.5 150.666 -25.5 219.999s-44.5 139 -82.5 209h108c39.333 -62 68.833 -130 88.5 -204s29.5 -149 29.5 -225c0 -82 -10.5 -159.5 -31.5 -232.5s-49.833 -138.5 -86.5 -196.5h-108z" />
    <glyph glyph-name="asterisk" unicode="*" horiz-adv-x="403" 
d="M25 555l39 91l105 -58l-20 126h106l-20 -126l105 58l38 -91l-122 -32l97 -101l-82 -58l-69 111l-69 -111l-82 58l97 101z" />
    <glyph glyph-name="plus" unicode="+" 
d="M61 291v99h184v198h102v-198h184v-99h-184v-198h-102v198h-184z" />
    <glyph glyph-name="comma" unicode="," horiz-adv-x="231" 
d="M182 140l-58 -235h-88l32 235h114z" />
    <glyph glyph-name="hyphen" unicode="-" horiz-adv-x="390" 
d="M343 352v-113h-296v113h296z" />
    <glyph glyph-name="period" unicode="." horiz-adv-x="231" 
d="M176 139v-139h-121v139h121z" />
    <glyph glyph-name="slash" unicode="/" horiz-adv-x="357" 
d="M7 0l229 734h114l-229 -734h-114z" />
    <glyph glyph-name="zero" unicode="0" 
d="M295 82c26 0 47.835 6.16406 65.502 18.4971s32 29.833 43 52.5s19 50.334 24 83.001s7.5 69.334 7.5 110.001c0 40 -2.5 76.333 -7.5 109s-13 60.5 -24 83.5s-25.333 40.667 -43 53s-39.5 18.5 -65.5 18.5s-47.833 -6.33301 -65.5 -19s-31.834 -30.5 -42.501 -53.5
s-18.334 -50.667 -23.001 -83s-7 -68.5 -7 -108.5c0 -85.333 10.5 -150.666 31.5 -195.999s56.5 -68 106.5 -68zM294.002 -18.0029c-40 0 -75.834 7.00098 -107.501 21.001s-58.5 35.833 -80.5 65.5s-38.833 67.5 -50.5 113.5s-17.5 100.667 -17.5 164
c0 122 22.5 213.167 67.5 273.5s109.167 90.5 192.5 90.5c80.667 0 143.5 -29.5 188.5 -88.5s67.5 -150.833 67.5 -275.5c0 -63.333 -5.83301 -117.833 -17.5 -163.5s-28.667 -83.334 -51 -113.001s-49.666 -51.667 -81.999 -66s-68.833 -21.5 -109.5 -21.5z" />
    <glyph glyph-name="one" unicode="1" 
d="M138 473l-50 84l214 134h100v-691h-116v562z" />
    <glyph glyph-name="two" unicode="2" 
d="M56 89l140.499 119.503c43 35 80 68 111 99s55.333 61.333 73 91s26.5 62.167 26.5 97.5s-9.83301 63.166 -29.5 83.499s-46.5 30.5 -80.5 30.5c-41.333 0 -72.333 -8.83301 -93 -26.5s-36 -47.5 -46 -89.5l-109 15c6 26.667 14.5 52.167 25.5 76.5
s26.333 45.666 46 63.999s44 33 73 44s64.167 16.5 105.5 16.5c74 0 130.333 -18.833 169 -56.5s58 -87.834 58 -150.501c0 -39.333 -7.16699 -74.5 -21.5 -105.5s-34.666 -61.5 -60.999 -91.5s-58 -61.167 -95 -93.5l-124.5 -111.5h311l-14 -101h-465v71v18z" />
    <glyph glyph-name="three" unicode="3" 
d="M158 205c4.66699 -45.333 17.165 -77.5 37.498 -96.5s52.833 -28.5 97.5 -28.5c39.333 0 70.333 9.33301 93 28s34 48.334 34 89.001c0 39.333 -10.5 67.666 -31.5 84.999s-51.833 26 -92.5 26h-75v101h80c57.333 0 90 25.333 98 76c4.66699 14 6 30.667 4 50
c-4 26.667 -15.667 46.167 -35 58.5s-44.333 18.5 -75 18.5c-40 0 -70.167 -8.5 -90.5 -25.5s-35.5 -44.5 -45.5 -82.5l-108 15c5.33301 26 13.5 50.5 24.5 73.5s26.167 43.333 45.5 61s43.166 31.5 71.499 41.5s62.833 15 103.5 15c38.667 0 72.334 -5 101.001 -15
s52.334 -23.333 71.001 -40s32.5 -36 41.5 -58s13.5 -45.333 13.5 -70c0 -73.333 -32 -126.666 -96 -159.999c40 -16.667 68.667 -39.5 86 -68.5s26 -61.5 26 -97.5c0 -68 -20.167 -121.5 -60.5 -160.5s-100.833 -58.5 -181.5 -58.5c-48 0 -88 6.66699 -120 20
s-57.5 30.666 -76.5 51.999s-32.667 45.333 -41 72s-13.166 53 -14.499 79h115z" />
    <glyph glyph-name="four" unicode="4" 
d="M353 542l-203 -287h203v287zM355 691h107v-436h91l-14 -92h-77v-163h-109v163h-321v81z" />
    <glyph glyph-name="five" unicode="5" 
d="M172 189c2.66699 -18 6.83398 -33.835 12.501 -47.502s13.334 -25 23.001 -34s22 -15.667 37 -20s33.167 -6.5 54.5 -6.5c38 0 67.833 11.167 89.5 33.5s32.5 58.5 32.5 108.5c0 43.333 -10.167 76.333 -30.5 99s-51.5 34 -93.5 34c-28 0 -52 -4.5 -72 -13.5
s-38 -22.167 -54 -39.5h-97l33 388h387v-100h-293l-16 -181c18.667 12.667 39.5 22.334 62.5 29.001s46.833 10 71.5 10c39.333 0 72.666 -6.5 99.999 -19.5s49.5 -30 66.5 -51s29.333 -45 37 -72s11.5 -54.167 11.5 -81.5c0 -42 -5.83301 -78.167 -17.5 -108.5
s-27.834 -55.5 -48.501 -75.5s-45.167 -34.833 -73.5 -44.5s-58.833 -14.5 -91.5 -14.5c-76 0 -134.333 16.833 -175 50.5s-63.667 85.834 -69 156.501h113z" />
    <glyph glyph-name="six" unicode="6" 
d="M301 75c38.667 0 70.3359 11.834 95.0029 35.501s37 59.167 37 106.5c0 40.667 -9.5 73.834 -28.5 99.501s-50.833 38.5 -95.5 38.5c-19.333 0 -37.333 -2.83301 -54 -8.5s-31.167 -14.5 -43.5 -26.5s-21.833 -26.833 -28.5 -44.5s-9 -38.5 -7 -62.5
c0 -18 2.66699 -35.333 8 -52s13.166 -31.334 23.499 -44.001s23.166 -22.834 38.499 -30.501s33.666 -11.5 54.999 -11.5zM426.002 538.001c-4.66699 11.333 -9.16602 20.999 -13.499 28.999s-9.5 14.833 -15.5 20.5s-13 10.334 -21 14.001s-17.667 6.5 -29 8.5
c-13.333 2.66699 -29 3 -47 1c-42.667 -3.33301 -75 -25.333 -97 -66s-34.333 -98.334 -37 -173.001c20.667 25.333 44.834 44 72.501 56s59.5 18.333 95.5 19c35.333 0 66.166 -5.33301 92.499 -16s48.166 -26 65.499 -46s30.333 -44 39 -72s13 -59.333 13 -94
c0 -38.667 -6.33301 -72.834 -19 -102.501s-30 -54.5 -52 -74.5s-47.667 -35 -77 -45s-61 -15 -95 -15c-50 0 -90.833 9.66699 -122.5 29s-56.667 44.333 -75 75s-31 64.834 -38 102.501s-10.5 74.834 -10.5 111.501c0 76.667 7 141.167 21 193.5s33 94.5 57 126.5
s52.167 55 84.5 69s66.833 21 103.5 21c66 0 115.5 -13.667 148.5 -41s54.833 -69.333 65.5 -126l-105 -15z" />
    <glyph glyph-name="seven" unicode="7" 
d="M157 0c62.667 210 142 407.001 238 591.001h-351v100h479v-91c-52.667 -96.667 -98.5 -193.834 -137.5 -291.501s-72.833 -200.5 -101.5 -308.5h-127z" />
    <glyph glyph-name="eight" unicode="8" 
d="M151 191c0 -36.667 11.501 -65.5029 34.501 -86.5029s59.833 -31.5 110.5 -31.5c50 0 86.833 10.833 110.5 32.5s35.5 50.834 35.5 87.501c0 16.667 -2.5 31.834 -7.5 45.501s-13.167 25.5 -24.5 35.5s-26.333 17.833 -45 23.5s-41.667 8.5 -69 8.5
c-28.667 0 -52.334 -3.16699 -71.001 -9.5s-33.5 -14.666 -44.5 -24.999s-18.667 -22.5 -23 -36.5s-6.5 -28.667 -6.5 -44zM164.001 508.997c0 -38 10.498 -65.835 31.498 -83.502s54.5 -26.5 100.5 -26.5s79 9.33301 99 28s30 46.667 30 84
c0 14.667 -2.16699 28.667 -6.5 42s-11.666 25 -21.999 35s-23.666 18 -39.999 24s-36.5 9 -60.5 9s-44.5 -3.16699 -61.5 -9.5s-30.667 -14.666 -41 -24.999s-17.833 -22.166 -22.5 -35.499s-7 -27.333 -7 -42zM151.999 354.995
c-29.333 13.333 -52.6689 33.5029 -70.002 60.5029s-26 60.5 -26 100.5c0 26.667 4.66699 51.834 14 75.501s23.833 44.167 43.5 61.5s44.5 31.166 74.5 41.499s65.667 15.5 107 15.5c42.667 0 79.167 -5.16699 109.5 -15.5s55.166 -24.333 74.499 -42
s33.333 -38.334 42 -62.001s13 -48.834 13 -75.501c0 -40 -8.66699 -73 -26 -99s-40.666 -45.667 -69.999 -59c14.667 -6.66699 29 -15 43 -25s26.5 -21.833 37.5 -35.5s19.667 -29.167 26 -46.5s9.5 -37 9.5 -59c0 -63.333 -21.5 -114 -64.5 -152s-107.833 -57 -194.5 -57
c-87.333 0 -152 19 -194 57s-63 88.667 -63 152c0 21.333 3.33301 40.666 10 57.999s15.334 32.833 26.001 46.5s22.834 25.5 36.501 35.5s27.5 18 41.5 24z" />
    <glyph glyph-name="nine" unicode="9" 
d="M281 335c18.667 0 35.999 2.66699 51.999 8s30 13.833 42 25.5s21.333 26.334 28 44.001s10 38.5 10 62.5c-0.666992 19.333 -3.83398 37.666 -9.50098 54.999s-13.667 32.5 -24 45.5s-23.166 23.167 -38.499 30.5s-33 11 -53 11
c-39.333 0 -71.166 -12.167 -95.499 -36.5s-36.5 -59.5 -36.5 -105.5c0 -19.333 2.16699 -37.5 6.5 -54.5s11.333 -31.833 21 -44.5s22.5 -22.667 38.5 -30s35.667 -11 59 -11zM166.999 163c6 -30 17.168 -51.832 33.501 -65.499s43.166 -20.5 80.499 -20.5
c49.333 0 85 19.333 107 58s33.333 100.667 34 186c-41.333 -52 -97 -78 -167 -78c-71.333 0 -124.5 20.833 -159.5 62.5s-52.5 97.5 -52.5 167.5c0 34.667 5.66699 66.5 17 95.5s27.666 54 48.999 75s47 37.333 77 49s64 17.5 102 17.5c50 0 90.833 -10.333 122.5 -31
s56.667 -47 75 -79s31 -67.333 38 -106s10.5 -76 10.5 -112c0 -72.667 -5.33301 -134.334 -16 -185.001s-26.5 -92 -47.5 -124s-47 -55.167 -78 -69.5s-67.167 -21.5 -108.5 -21.5c-70.667 0 -124.667 14.5 -162 43.5s-58.666 74.833 -63.999 137.5h109z" />
    <glyph glyph-name="colon" unicode=":" horiz-adv-x="231" 
d="M176 520v-139h-121v139h121zM176 139v-139h-121v139h121z" />
    <glyph glyph-name="semicolon" unicode=";" horiz-adv-x="231" 
d="M182 140l-58 -235h-88l32 235h114zM176 520v-139h-121v139h121z" />
    <glyph glyph-name="less" unicode="&#x3c;" 
d="M528 588v-107l-321 -141l321 -141v-109l-453 205v88z" />
    <glyph glyph-name="equal" unicode="=" 
d="M514 502v-100h-436v100h436zM514 280v-100h-436v100h436z" />
    <glyph glyph-name="greater" unicode="&#x3e;" 
d="M384 337l-320 143v108l453 -205v-88l-453 -205v108z" />
    <glyph glyph-name="question" unicode="?" horiz-adv-x="507" 
d="M303 137v-137h-117v137h117zM189 235c0 18 2.5 34.502 7.5 49.502s11.667 28.667 20 41s17.666 24.166 27.999 35.499l32.5 34l29 29c13.333 13.333 24.666 28 33.999 44s14 36.333 14 61c0 32 -8.83301 56.833 -26.5 74.5s-42.5 26.5 -74.5 26.5
c-39.333 0 -69 -8.83301 -89 -26.5s-34.667 -46.5 -44 -86.5l-105 14c4.66699 26 12.667 50.833 24 74.5s26.5 44.5 45.5 62.5s42.333 32.167 70 42.5s60.834 15.5 99.501 15.5c69.333 0 123 -16.833 161 -50.5s57 -77.834 57 -132.501c0 -32 -4.83301 -59 -14.5 -81
s-21.5 -40.667 -35.5 -56l-61 -61c-17.333 -17.333 -31.666 -35 -42.999 -53s-17 -38.667 -17 -62v-15h-112v20z" />
    <glyph glyph-name="at" unicode="@" horiz-adv-x="979" 
d="M583 246c0.666992 4.66699 1.33398 8.5 2.00098 11.5s0.333984 2.83301 -0.999023 -0.5l1 21c0 4 0.166992 8.16699 0.5 12.5s0.166016 8.5 -0.500977 12.5c-2.66699 25.333 -11.334 44.666 -26.001 57.999s-34 20 -58 20c-18.667 0 -36 -4.33301 -52 -13
s-30 -21.167 -42 -37.5s-21.333 -36.166 -28 -59.499s-10 -50 -10 -80c0 -38.667 7.5 -67.167 22.5 -85.5s34.5 -27.5 58.5 -27.5c20 0 37.333 3.66699 52 11s27 17 37 29s18 26 24 42s10.667 33 14 51zM815 -51c-12 -23.333 -28.335 -44.9941 -49.002 -64.9941
s-45.167 -37.5 -73.5 -52.5s-60.833 -26.833 -97.5 -35.5s-77 -13 -121 -13c-68 0 -128.5 10.333 -181.5 31s-97.5 49.334 -133.5 86.001s-63.5 80.5 -82.5 131.5s-28.5 106.5 -28.5 166.5c0 80 14.167 150.333 42.5 211s64.833 111.334 109.5 152.001
s94.834 71.167 150.501 91.5s110.834 30.5 165.501 30.5c60 0 115.5 -8.16699 166.5 -24.5s95.333 -40.333 133 -72s67.167 -70.834 88.5 -117.501s32 -100.334 32 -161.001c0 -54 -6.66699 -100.667 -20 -140s-31 -71.666 -53 -96.999s-47 -44.166 -75 -56.499
s-56.333 -18.5 -85 -18.5c-33.333 0 -60.833 5.5 -82.5 16.5s-35.167 31.5 -40.5 61.5c-22 -32 -45.333 -54.167 -70 -66.5s-52 -18.5 -82 -18.5c-28.667 0 -53.5 5.16699 -74.5 15.5s-38.5 24.166 -52.5 41.499s-24.333 37.666 -31 60.999s-10 47.666 -10 72.999
c0 40.667 5.66699 78.5 17 113.5s27.166 65.167 47.499 90.5s44.833 45.166 73.5 59.499s60 21.5 94 21.5c24.667 0 47.334 -5.5 68.001 -16.5s38.667 -28.833 54 -53.5c1.33301 9.33301 3.16602 19.166 5.49902 29.499s4.16602 20.166 5.49902 29.499h102l-57 -325
c-0.666992 -2.66699 -1 -7.33398 -1 -14.001c0 -28 13.333 -42 40 -42c16.667 0 33.334 4.33301 50.001 13s31.334 22.5 44.001 41.5s23 43 31 72s12 64.167 12 105.5c0 50 -8 93.667 -24 131s-38.5 68.166 -67.5 92.499s-63.833 42.666 -104.5 54.999
s-85.334 18.5 -134.001 18.5c-53.333 0 -102.666 -9.83301 -147.999 -29.5s-84.666 -47 -117.999 -82s-59.5 -77.167 -78.5 -126.5s-28.5 -103.333 -28.5 -162c0 -49.333 7.16699 -94.666 21.5 -135.999s35.666 -77 63.999 -107s63.5 -53.333 105.5 -70s90.333 -25 145 -25
c30 0 56.833 2 80.5 6s44.5 9.83301 62.5 17.5s33.833 16.667 47.5 27s26.167 21.833 37.5 34.5h108z" />
    <glyph glyph-name="A" unicode="A" horiz-adv-x="686" 
d="M283 714h120l272 -714h-129l-67 182h-277l-66 -182h-125zM446 283l-106 294l-105 -294h211z" />
    <glyph glyph-name="B" unicode="B" horiz-adv-x="640" 
d="M76 714l246.997 0.000976562c52 0 94.667 -4.83301 128 -14.5s59.833 -23 79.5 -40s33.167 -37 40.5 -60s11 -47.5 11 -73.5c0 -30 -6.66699 -57.833 -20 -83.5s-37.666 -46.834 -72.999 -63.501c22.667 -10 41.334 -21.333 56.001 -34s26.334 -26.167 35.001 -40.5
s14.667 -29.333 18 -45s5 -31.5 5 -47.5c0 -29.333 -4.5 -57 -13.5 -83s-23.833 -48.5 -44.5 -67.5s-47.667 -34 -81 -45s-74.333 -16.5 -123 -16.5h-265v714zM336.997 421.001c47.333 0 80.333 8.66699 99 26s28 42.333 28 75c0 34 -10.833 58.5 -32.5 73.5
s-59.167 22.5 -112.5 22.5h-126v-197h144zM336.997 97.001c28.667 0 52.5 2.66699 71.5 8s34 13 45 23s18.833 22 23.5 36s7 29.667 7 47c0 36 -10.167 63.5 -30.5 82.5s-55.5 28.5 -105.5 28.5h-155v-225h144z" />
    <glyph glyph-name="C" unicode="C" horiz-adv-x="712" 
d="M674 241c-4 -37.333 -13.002 -71.665 -27.002 -102.998s-33.333 -58.666 -58 -81.999s-54.667 -41.5 -90 -54.5s-76.333 -19.5 -123 -19.5c-51.333 0 -97.166 8.66699 -137.499 26s-74.333 42.166 -102 74.499s-48.667 71.666 -63 117.999s-21.5 98.166 -21.5 155.499
c0 58.667 7.83301 111.334 23.5 158.001s37.834 86.167 66.501 118.5s63 57 103 74s84 25.5 132 25.5c44.667 0 83.334 -5.66699 116.001 -17s60.5 -27.5 83.5 -48.5s41.333 -46.167 55 -75.5s23.834 -62 30.501 -98l-119 -17c-5.33301 24 -12 45.333 -20 64
s-18.5 34.5 -31.5 47.5s-28.833 23 -47.5 30s-41 10.5 -67 10.5c-32 0 -60.333 -6.33301 -85 -19s-45.5 -30.834 -62.5 -54.501s-29.833 -52.167 -38.5 -85.5s-13 -70.666 -13 -111.999c0 -42 4.5 -79.667 13.5 -113s22.167 -61.833 39.5 -85.5s38.166 -41.667 62.499 -54
s52.166 -18.5 83.499 -18.5c28 0 51.833 3.66699 71.5 11s36.167 17.666 49.5 30.999s23.833 29.5 31.5 48.5s13.167 40.5 16.5 64.5h128z" />
    <glyph glyph-name="D" unicode="D" horiz-adv-x="726" 
d="M314 103c42 0 77.833 6.00098 107.5 18.001s54 29.333 73 52s32.833 49.667 41.5 81s13 66.666 13 105.999c0 78.667 -16.667 140.167 -50 184.5s-88 66.5 -164 66.5h-138v-508h117zM334 714.001c52.667 0 100 -7.1709 142 -21.5039s77.667 -36.166 107 -65.499
s51.833 -66.166 67.5 -110.499s23.5 -96.166 23.5 -155.499s-8.33301 -111.5 -25 -156.5s-40.667 -82.667 -72 -113s-69.5 -53.166 -114.5 -68.499s-95.833 -23 -152.5 -23h-234v714h258z" />
    <glyph glyph-name="E" unicode="E" horiz-adv-x="599" 
d="M76 714h475v-104h-354v-190h334v-105h-334v-211h373l-14 -104h-480v714z" />
    <glyph glyph-name="F" unicode="F" horiz-adv-x="574" 
d="M532 714v-104h-335v-202h315v-105h-315v-303h-121v714h456z" />
    <glyph glyph-name="G" unicode="G" horiz-adv-x="721" 
d="M667 379l0.00292969 -294.001c-36.667 -34 -80 -59.667 -130 -77s-100.333 -26 -151 -26c-55.333 0 -103.833 8.83301 -145.5 26.5s-76.5 42.667 -104.5 75s-49 71.5 -63 117.5s-21 97.667 -21 155c0 58 7.66699 110.167 23 156.5s37 85.833 65 118.5s62 57.667 102 75
s84.667 26 134 26c43.333 0 81.166 -5.5 113.499 -16.5s59.666 -26.167 81.999 -45.5s40.333 -41.833 54 -67.5s23.5 -53.167 29.5 -82.5l-119 -17c-5.33301 20 -11.833 37.833 -19.5 53.5s-17.667 28.834 -30 39.501s-27.5 18.834 -45.5 24.501s-39.667 8.5 -65 8.5
c-33.333 0 -62.5 -6.5 -87.5 -19.5s-45.833 -31.5 -62.5 -55.5s-29 -52.667 -37 -86s-12 -70.333 -12 -111c0 -42 4 -79.667 12 -113s20.667 -61.833 38 -85.5s39.166 -41.834 65.499 -54.501s58.166 -19 95.499 -19c33.333 0 63.333 3.5 90 10.5s52.334 19.167 77.001 36.5
v145h-158v102h270z" />
    <glyph glyph-name="H" unicode="H" horiz-adv-x="715" 
d="M76 714h121v-289h321v289h121v-714h-121v313h-321v-313h-121v714z" />
    <glyph glyph-name="I" unicode="I" horiz-adv-x="272" 
d="M76 714h121v-714h-121v714z" />
    <glyph glyph-name="J" unicode="J" horiz-adv-x="617" 
d="M149 230c2.66699 -22 6.83203 -41.834 12.499 -59.501s14 -32.667 25 -45s25 -22 42 -29s38.167 -10.5 63.5 -10.5c48.667 0 83.334 14 104.001 42s31 68 31 120v466h121v-474c0 -85.333 -22.833 -149.666 -68.5 -192.999s-107.5 -65 -185.5 -65
c-82 0 -145.333 20 -190 60s-70 102.667 -76 188h121z" />
    <glyph glyph-name="K" unicode="K" horiz-adv-x="662" 
d="M76 714h121v-314l299 314h134l-246 -268l273 -446h-137l-221 368l-102 -103v-265h-121v714z" />
    <glyph glyph-name="L" unicode="L" horiz-adv-x="573" 
d="M197 714v-609h354l-15 -105h-460v714h121z" />
    <glyph glyph-name="M" unicode="M" horiz-adv-x="853" 
d="M76 714h147l203 -568l209 568h142v-714h-111v519l-196 -519h-96l-189 518v-518h-109v714z" />
    <glyph glyph-name="N" unicode="N" horiz-adv-x="710" 
d="M76 714h112l328 -516v516h118v-714h-112l-329 514v-514h-117v714z" />
    <glyph glyph-name="O" unicode="O" horiz-adv-x="772" 
d="M387 -18c-51.333 0 -97.5 8.49707 -138.5 25.4971s-76.167 41.5 -105.5 73.5s-51.833 71.167 -67.5 117.5s-23.5 98.833 -23.5 157.5s8 111.334 24 158.001s38.667 86.167 68 118.5s64.666 57 105.999 74s87 25.5 137 25.5c50.667 0 96.667 -8.5 138 -25.5
s76.333 -41.5 105 -73.5s50.834 -71.167 66.501 -117.5s23.5 -98.833 23.5 -157.5c0 -59.333 -7.66699 -112.166 -23 -158.499s-37.333 -85.666 -66 -117.999s-63.5 -57 -104.5 -74s-87.5 -25.5 -139.5 -25.5zM386 85.9971c68.667 0 120.668 24.167 156.001 72.5
s53 114.5 53 198.5c0 42 -4.5 79.667 -13.5 113s-22.167 61.666 -39.5 84.999s-39 41.333 -65 54s-56.333 19 -91 19s-65 -6.33301 -91 -19s-47.833 -30.667 -65.5 -54s-30.834 -51.666 -39.501 -84.999s-13 -71 -13 -113c0 -84 17.5 -150.167 52.5 -198.5
s87.167 -72.5 156.5 -72.5z" />
    <glyph glyph-name="P" unicode="P" horiz-adv-x="633" 
d="M76 714h247.001c54 0 98.5 -6 133.5 -18s62.5 -28 82.5 -48s34 -43.167 42 -69.5s12 -53.833 12 -82.5c0 -30.667 -4 -60 -12 -88s-22.167 -52.5 -42.5 -73.5s-47.833 -37.667 -82.5 -50s-78.334 -18.5 -131.001 -18.5h-130v-266h-119v714zM322.001 367
c30.667 0 55.8359 3.00098 75.5029 9.00098s35.167 14.5 46.5 25.5s19.166 24.167 23.499 39.5s6.5 32.666 6.5 51.999c0 20 -2.33301 37.5 -7 52.5s-12.834 27.5 -24.501 37.5s-27.334 17.667 -47.001 23s-44.5 8 -74.5 8h-126v-247h127z" />
    <glyph glyph-name="Q" unicode="Q" horiz-adv-x="773" 
d="M467 274l83.998 -103.001c29.333 44.667 44 106.667 44 186c0 41.333 -4.33301 78.666 -13 111.999s-21.667 61.833 -39 85.5s-39 41.834 -65 54.501s-56.333 19 -91 19c-35.333 0 -66.166 -6.33301 -92.499 -19s-48.166 -30.834 -65.499 -54.501
s-30.333 -52.167 -39 -85.5s-13 -70.666 -13 -111.999c0 -89.333 18 -157.166 54 -203.499s92 -69.5 168 -69.5c15.333 0 29.833 1.83301 43.5 5.5s26.167 8.5 37.5 14.5l-88 107zM548.998 18.999c-24.667 -12 -50.3301 -21.167 -76.9971 -27.5s-55 -9.5 -85 -9.5
c-52 0 -98.833 8.66699 -140.5 26s-76.834 42.166 -105.501 74.499s-50.667 71.666 -66 117.999s-23 98.166 -23 155.499c0 58 7.83301 110.333 23.5 157s38.167 86.167 67.5 118.5s64.5 57.166 105.5 74.499s87.167 26 138.5 26c52 0 98.667 -8.66699 140 -26
s76.166 -42.166 104.499 -74.499s50.166 -71.666 65.499 -117.999s23 -98.166 23 -155.499c0 -61.333 -8 -115.166 -24 -161.499s-39.333 -85.5 -70 -117.5l87 -106l-74 -64z" />
    <glyph glyph-name="R" unicode="R" horiz-adv-x="643" 
d="M329 384c27.333 0 50.001 2.83105 68.001 8.49805s32.167 13.667 42.5 24s17.666 22.833 21.999 37.5s6.5 31 6.5 49c0 16.667 -2.5 31.834 -7.5 45.501s-13.333 25.334 -25 35.001s-27.167 17.167 -46.5 22.5s-43.333 8 -72 8h-122v-230h134zM320.001 713.998
c54 0 98.5 -6.33398 133.5 -19.001s62.667 -29.167 83 -49.5s34.5 -42.833 42.5 -67.5s12 -49 12 -73c0 -46.667 -9.16699 -85.667 -27.5 -117s-47.833 -56.666 -88.5 -75.999l148 -312h-132l-128 284c-6 -0.666992 -12.333 -1.16699 -19 -1.5s-13.667 -0.5 -21 -0.5h-128
v-282h-119v714h244z" />
    <glyph glyph-name="S" unicode="S" horiz-adv-x="644" 
d="M155 218c5.33301 -46.667 22.1719 -80.668 50.5049 -102.001s70.5 -32 126.5 -32c27.333 0 50.333 3 69 9s33.667 14 45 24s19.333 21.833 24 35.5s7 28.167 7 43.5c0 11.333 -1.66699 22.5 -5 33.5s-9.33301 21.167 -18 30.5s-20.334 17.5 -35.001 24.5
s-33.334 12.5 -56.001 16.5l-91 17c-36 6.66699 -68 15 -96 25s-51.5 23.167 -70.5 39.5s-33.333 36.333 -43 60s-14.5 52.5 -14.5 86.5s6.83301 63.667 20.5 89s32.5 46.5 56.5 63.5s52.5 29.667 85.5 38s68.833 12.5 107.5 12.5c49.333 0 90.666 -5.66699 123.999 -17
s60.333 -26.166 81 -44.499s36.334 -39.5 47.001 -63.5s18 -49 22 -75l-114 -18c-9.33301 40 -25.5 69.667 -48.5 89s-59.5 29 -109.5 29c-28.667 0 -52.5 -2.5 -71.5 -7.5s-34.333 -12 -46 -21s-20 -19.333 -25 -31s-7.5 -23.834 -7.5 -36.501
c0 -31.333 8.5 -54.666 25.5 -69.999s46.833 -27.333 89.5 -36l99 -19c75.333 -14 130.666 -37.833 165.999 -71.5s53 -82.167 53 -145.5c0 -30 -5.5 -57.833 -16.5 -83.5s-27.833 -48 -50.5 -67s-50.834 -34 -84.501 -45s-72.834 -16.5 -117.501 -16.5
c-91.333 0 -163 19.167 -215 57.5s-80.667 97.833 -86 178.5h122z" />
    <glyph glyph-name="T" unicode="T" horiz-adv-x="610" 
d="M245 609h-226v105h572v-105h-225v-609h-121v609z" />
    <glyph glyph-name="U" unicode="U" horiz-adv-x="688" 
d="M185 714l-0.000976562 -428.002c0 -67.333 12.167 -117.5 36.5 -150.5s65.5 -49.5 123.5 -49.5c57.333 0 97.833 16.5 121.5 49.5s35.5 83.167 35.5 150.5v428h121v-428c0 -55.333 -6.66699 -102.166 -20 -140.499s-32.333 -69.666 -57 -93.999s-54 -42 -88 -53
s-72 -16.5 -114 -16.5c-91.333 0 -160.666 24.5 -207.999 73.5s-71 126.833 -71 233.5v425h120z" />
    <glyph glyph-name="V" unicode="V" horiz-adv-x="682" 
d="M146 714l196 -550l199 550h129l-271 -714h-116l-272 714h135z" />
    <glyph glyph-name="W" unicode="W" horiz-adv-x="950" 
d="M147 714l132 -542l136 538h129l138 -537l128 541h129l-197 -714h-121l-145 562l-143 -562h-117l-205 714h136z" />
    <glyph glyph-name="X" unicode="X" horiz-adv-x="661" 
d="M259 377l-232 337h138l164 -250l166 250h130l-230 -342l258 -372h-139l-190 282l-184 -282h-131z" />
    <glyph glyph-name="Y" unicode="Y" horiz-adv-x="635" 
d="M260 297l-248 417h135l172 -310l176 310h128l-243 -417v-297h-120v297z" />
    <glyph glyph-name="Z" unicode="Z" horiz-adv-x="586" 
d="M27 90l384 520h-377v104h520v-91l-383 -518h397l-14 -105h-527v90z" />
    <glyph glyph-name="bracketleft" unicode="[" horiz-adv-x="308" 
d="M298 734v-97h-109v-664h109v-97h-224v858h224z" />
    <glyph glyph-name="backslash" unicode="\" horiz-adv-x="357" 
d="M350 0h-113l-230 734h112z" />
    <glyph glyph-name="bracketright" unicode="]" horiz-adv-x="308" 
d="M120 -27v664h-110v97h225v-858h-225v97h110z" />
    <glyph glyph-name="asciicircum" unicode="^" 
d="M342 712l203 -413h-119l-131 279l-132 -279h-117l203 413h93z" />
    <glyph glyph-name="underscore" unicode="_" horiz-adv-x="500" 
d="M500 -123v-52h-500v52h500z" />
    <glyph glyph-name="grave" unicode="`" horiz-adv-x="403" 
d="M209 741l117 -148h-107l-143 148h133z" />
    <glyph glyph-name="a" unicode="a" horiz-adv-x="549" 
d="M305 243c-34 -2 -61.5 -5.66602 -82.5 -10.999s-37.167 -12.166 -48.5 -20.499s-18.833 -18 -22.5 -29s-5.5 -22.833 -5.5 -35.5c0 -22.667 7.16699 -40.334 21.5 -53.001s35.5 -19 63.5 -19c50 0 87 12.667 111 38s36 59.666 36 102.999v30zM380 68.001
c-19.333 -23.333 -43 -42.666 -71 -57.999s-62 -23 -102 -23c-24.667 0 -47.667 3.16699 -69 9.5s-39.833 15.833 -55.5 28.5s-28 28.834 -37 48.501s-13.5 42.834 -13.5 69.501c0 36 8 65.167 24 87.5s36.833 39.833 62.5 52.5s54.5 21.5 86.5 26.5s64 8.16699 96 9.5l77 4
v22c0 39.333 -9.5 66.5 -28.5 81.5s-43.833 22.5 -74.5 22.5c-35.333 0 -61.5 -6 -78.5 -18s-28.167 -29.333 -33.5 -52l-104 11c9.33301 50.667 32.333 87.667 69 111s87 35 151 35c41.333 0 75.5 -5.33301 102.5 -16s48.5 -25.334 64.5 -44.001
s27.167 -40.834 33.5 -66.501s9.5 -53.834 9.5 -84.501v-325h-109v68z" />
    <glyph glyph-name="b" unicode="b" horiz-adv-x="610" 
d="M177 243c0.666992 -33.333 4.83398 -60.665 12.501 -81.998s17.667 -38.333 30 -51s26.5 -21.334 42.5 -26.001s32.667 -7 50 -7c18.667 0 36 3.33301 52 10s30 17.167 42 31.5s21.333 33.166 28 56.499s10 52 10 86c0 32.667 -3.5 60.5 -10.5 83.5
s-16.167 41.667 -27.5 56s-24.833 24.833 -40.5 31.5s-31.834 10 -48.501 10c-24.667 0 -45.834 -4 -63.501 -12s-32.167 -19.333 -43.5 -34s-19.666 -32.167 -24.999 -52.5s-8 -42.833 -8 -67.5v-25v-8zM178 714.001l0.000976562 -261.998
c20.667 27.333 44.5 48.166 71.5 62.499s58.5 21.5 94.5 21.5c37.333 0 69.666 -6.66699 96.999 -20s50 -32 68 -56s31.5 -52.833 40.5 -86.5s13.5 -70.834 13.5 -111.501c0 -42.667 -5.33301 -81.167 -16 -115.5s-26 -63.5 -46 -87.5s-44 -42.5 -72 -55.5
s-59.333 -19.5 -94 -19.5c-31.333 0 -60.333 6 -87 18s-51 32 -73 60v-62h-110v714h113z" />
    <glyph glyph-name="c" unicode="c" horiz-adv-x="564" 
d="M523 182c-6.66699 -62 -28.833 -110.498 -66.5 -145.498s-91.5 -52.5 -161.5 -52.5c-42 0 -78.5 6.5 -109.5 19.5s-56.833 31.5 -77.5 55.5s-36 52.833 -46 86.5s-15 71.167 -15 112.5s5.66699 79.166 17 113.499s27.833 63.666 49.5 87.999s48.167 43.166 79.5 56.499
s67 20 107 20c36.667 0 67.667 -4.83301 93 -14.5s46.333 -22.667 63 -39s29.667 -35.166 39 -56.499s16 -43.666 20 -66.999l-113 -17c-5.33301 29.333 -15.5 53.666 -30.5 72.999s-40.167 29 -75.5 29c-25.333 0 -46.333 -5.33301 -63 -16s-30 -24.5 -40 -41.5
s-17.167 -36.5 -21.5 -58.5s-6.5 -44.333 -6.5 -67c0 -26 2.33301 -50.333 7 -73s12 -42.167 22 -58.5s23.333 -29.333 40 -39s37 -14.5 61 -14.5c34.667 0 61 9.16699 79 27.5s29.333 44.5 34 78.5h115z" />
    <glyph glyph-name="d" unicode="d" horiz-adv-x="609" 
d="M432 271c0 32.667 -3.50098 60.167 -10.501 82.5s-16.667 40 -29 53s-26.666 22.333 -42.999 28s-33.5 8.5 -51.5 8.5c-42 0 -74.5 -15 -97.5 -45s-34.5 -75.667 -34.5 -137c0 -33.333 3.16699 -61.666 9.5 -84.999s15.333 -42.333 27 -57s25.167 -25.334 40.5 -32.001
s32 -10 50 -10c41.333 0 74.833 13.5 100.5 40.5s38.5 69.167 38.5 126.5v27zM432.999 72c-21.333 -29.333 -45.502 -51.334 -72.502 -66.001s-58.5 -22 -94.5 -22c-37.333 0 -69.666 6.66699 -96.999 20s-50 32.166 -68 56.499s-31.5 53.333 -40.5 87
s-13.5 70.834 -13.5 111.501c0 38 4.66699 73.5 14 106.5s23 61.667 41 86s40.167 43.833 66.5 58.5s56.833 22.667 91.5 24c6.66699 0.666992 13.334 0.833984 20.001 0.500977s13.667 -0.833008 21 -1.5c23.333 -2.66699 45.833 -9.16699 67.5 -19.5
s42.5 -27.5 62.5 -51.5v252h113v-714h-111v72z" />
    <glyph glyph-name="e" unicode="e" horiz-adv-x="580" 
d="M527 154c-9.33301 -54 -32.3291 -95.8379 -68.9961 -125.505s-89.334 -44.5 -158.001 -44.5c-82.667 0 -145.5 23.833 -188.5 71.5s-64.5 114.834 -64.5 201.501c0 44.667 6.16699 84.334 18.5 119.001s29.666 63.834 51.999 87.501s49 41.667 80 54
s65.167 18.5 102.5 18.5c40 0 74.667 -6.16699 104 -18.5s53.666 -29.666 72.999 -51.999s33.666 -49 42.999 -80s14 -65.5 14 -103.5v-50h-373c1.33301 -47.333 13.333 -85.666 36 -114.999s57 -44 103 -44c36 0 63 7 81 21s30 34 36 60h110zM423.004 310.995
c0 42.667 -10 76.333 -30 101s-52 37 -96 37c-42 0 -74 -12.5 -96 -37.5s-34.667 -58.5 -38 -100.5h260z" />
    <glyph glyph-name="f" unicode="f" horiz-adv-x="356" 
d="M16 430l-0.000976562 89.999h81v30c0 28 4 52.5 12 73.5s19.167 38.667 33.5 53s31.333 25.166 51 32.499s41.167 11.333 64.5 12c4 0.666992 8 0.833984 12 0.500977s8.66699 -0.5 14 -0.5c14 -1.33301 27.333 -2.66602 40 -3.99902s26.334 -4.33301 41.001 -9l-17 -85
c-21.333 6 -41.333 9 -60 9c-21.333 0 -39.5 -6 -54.5 -18s-22.5 -32.333 -22.5 -61v-33h126v-90h-126v-430h-114v430h-81z" />
    <glyph glyph-name="g" unicode="g" horiz-adv-x="609" 
d="M432 279c0 32 -3.83203 58.668 -11.499 80.001s-17.667 38.166 -30 50.499s-26.666 21 -42.999 26s-32.833 7.5 -49.5 7.5c-42 0 -74.5 -14.333 -97.5 -43s-34.5 -70.667 -34.5 -126c0 -31.333 3.5 -57.833 10.5 -79.5s16.167 -39.167 27.5 -52.5s24.666 -23 39.999 -29
s31.666 -9 48.999 -9c48.667 0 84 14.667 106 44s33 71 33 125v6zM182.001 -39.999c8 -50 43.335 -75.0029 106.002 -75.0029h26c25.333 0.666992 45.666 5.83398 60.999 15.501s27.166 22.5 35.499 38.5s13.833 34.333 16.5 55s4 42.667 4 66v35
c-38.667 -54.667 -93.667 -82 -165 -82c-37.333 0 -69.833 6.5 -97.5 19.5s-50.5 31 -68.5 54s-31.333 50.5 -40 82.5s-13 66.667 -13 104c0 36 4.83301 69.833 14.5 101.5s23.834 59.334 42.501 83.001s41.667 42.334 69 56.001s58.666 20.834 93.999 21.501
c10.667 0.666992 22.667 0 36 -2c24 -3.33301 47 -10.5 69 -21.5s42.667 -29.167 62 -54.5v63h111v-448c0 -44.667 -4.33301 -84.167 -13 -118.5s-22.5 -63.333 -41.5 -87s-43.833 -41.5 -74.5 -53.5s-68 -18 -112 -18c-78 0 -135.333 13.667 -172 41
s-58 68.666 -64 123.999h114z" />
    <glyph glyph-name="h" unicode="h" horiz-adv-x="581" 
d="M178 714v-265.999c22 30 47.5 52.167 76.5 66.5s59.833 21.5 92.5 21.5c116 0 174 -64 174 -192v-344h-114v326c0 42 -7.66699 71.5 -23 88.5s-38 25.5 -68 25.5c-20.667 0 -39.5 -3.66699 -56.5 -11s-31.5 -17 -43.5 -29s-21.333 -25.833 -28 -41.5
s-10 -31.834 -10 -48.501v-310h-113v714h113z" />
    <glyph glyph-name="i" unicode="i" horiz-adv-x="246" 
d="M182 714v-113h-118v113h118zM180 520v-520h-114v520h114z" />
    <glyph glyph-name="j" unicode="j" horiz-adv-x="246" 
d="M-61 -82c20 -6 41.334 -9 64.001 -9c25.333 0 42.166 8.33301 50.499 25s12.5 41 12.5 73v513h114v-524c0 -58.667 -12.167 -103.5 -36.5 -134.5s-64.5 -46.5 -120.5 -46.5c-35.333 0 -69 5.33301 -101 16zM182.001 714v-113h-118v113h118z" />
    <glyph glyph-name="k" unicode="k" horiz-adv-x="550" 
d="M176 714v-395l222 201h133l-188 -177l205 -343h-125l-162 278l-85 -76v-202h-111v714h111z" />
    <glyph glyph-name="l" unicode="l" horiz-adv-x="246" 
d="M180 714v-714h-114v714h114z" />
    <glyph glyph-name="m" unicode="m" horiz-adv-x="868" 
d="M175 520l-0.00292969 -75.0039c36 50 78.667 79 128 87c12.667 2 26 3 40 3c35.333 -1.33301 64 -10.166 86 -26.499s38 -38.5 48 -66.5c46 62.667 102.667 94 170 94c55.333 0 96 -15.333 122 -46s39 -79.667 39 -147v-343h-114v312c0 25.333 -1.66699 46.333 -5 63
s-8.16602 29.834 -14.499 39.501s-14.5 16.334 -24.5 20.001s-21.333 5.5 -34 5.5c-20 0 -37.667 -3.66699 -53 -11s-28.166 -17 -38.499 -29s-18.166 -25.5 -23.499 -40.5s-8 -30.5 -8 -46.5v-313h-114v323c0 44.667 -6.83301 75.334 -20.5 92.001s-32.5 25 -56.5 25
c-10 0 -22 -2.16699 -36 -6.5s-27.5 -11.5 -40.5 -21.5s-24.167 -23.333 -33.5 -40s-14 -37 -14 -61v-311h-113v520h110z" />
    <glyph glyph-name="n" unicode="n" horiz-adv-x="581" 
d="M175 520v-76c23.333 32 49.5 55.333 78.5 70s60.167 22 93.5 22c116 0 174 -64 174 -192v-344h-114v326c0 42 -7.66699 71.5 -23 88.5s-38 25.5 -68 25.5c-20 0 -38.5 -3.5 -55.5 -10.5s-31.5 -16.5 -43.5 -28.5s-21.5 -25.833 -28.5 -41.5s-10.5 -32.167 -10.5 -49.5
v-310h-113v520h110z" />
    <glyph glyph-name="o" unicode="o" horiz-adv-x="609" 
d="M304 76c48 0 83.167 16.499 105.5 49.499s33.5 78.167 33.5 135.5c0 56.667 -11.167 101.334 -33.5 134.001s-57.5 49 -105.5 49s-83.167 -16.5 -105.5 -49.5s-33.5 -77.5 -33.5 -133.5c0 -56.667 10.833 -101.667 32.5 -135s57.167 -50 106.5 -50zM303 -16.001
c-81.333 0 -144.333 23.999 -189 71.999s-67 116 -67 204c0 41.333 5.83301 79 17.5 113s28.5 63 50.5 87s49 42.667 81 56s68.333 20 109 20c41.333 0 78 -6.83301 110 -20.5s58.833 -32.5 80.5 -56.5s38 -52.833 49 -86.5s16.5 -70.5 16.5 -110.5
c0 -45.333 -6.33301 -85.166 -19 -119.499s-30.5 -63.333 -53.5 -87s-50.167 -41.5 -81.5 -53.5s-66 -18 -104 -18z" />
    <glyph glyph-name="p" unicode="p" horiz-adv-x="610" 
d="M64 520l111.002 -0.00195312v-72c21.333 28.667 45.833 50.5 73.5 65.5s59.5 22.5 95.5 22.5c36.667 0 68.667 -6.5 96 -19.5s50.166 -31.5 68.499 -55.5s32 -52.833 41 -86.5s13.5 -71.167 13.5 -112.5c0 -42 -5.33301 -80.167 -16 -114.5
s-25.834 -63.666 -45.501 -87.999s-43.5 -43 -71.5 -56s-59.667 -19.5 -95 -19.5c-28 0 -55.333 5.33301 -82 16s-51.667 30.334 -75 59.001v-253h-114v714zM177.002 250.998c0 -34 3.66895 -62.1689 11.002 -84.502s17.166 -40.166 29.499 -53.499
s26.666 -22.666 42.999 -27.999s33.5 -8 51.5 -8c18.667 0 36 3.33301 52 10s30 17.334 42 32.001s21.333 33.667 28 57s10 51.666 10 84.999c0 34 -3.5 62.5 -10.5 85.5s-16.333 41.667 -28 56s-25.167 24.5 -40.5 30.5s-31.333 9 -48 9
c-40.667 0 -74.167 -13.333 -100.5 -40s-39.5 -68.667 -39.5 -126v-25z" />
    <glyph glyph-name="q" unicode="q" horiz-adv-x="610" 
d="M433 271c0 32.667 -3.49805 60.167 -10.498 82.5s-16.667 40 -29 53s-26.833 22.333 -43.5 28s-34 8.5 -52 8.5c-41.333 0 -73.5 -15 -96.5 -45s-34.5 -75.667 -34.5 -137c0 -33.333 3.16699 -61.666 9.5 -84.999s15.166 -42.333 26.499 -57
s24.666 -25.334 39.999 -32.001s32 -10 50 -10c42 0 75.833 13.5 101.5 40.5s38.5 69.167 38.5 126.5v27zM431.002 69c-16.667 -23.333 -36.333 -42.001 -59 -56.001s-48 -22.667 -76 -26c-8 -1.33301 -15.833 -2 -23.5 -2s-15.5 0.333008 -23.5 1c-34 2 -63.667 10 -89 24
s-46.333 32.833 -63 56.5s-29.167 51.834 -37.5 84.501s-12.5 68.667 -12.5 108c0 38 4.5 73.5 13.5 106.5s22.5 61.667 40.5 86s40.333 43.833 67 58.5s57.667 22.667 93 24c15.333 1.33301 29.333 1 42 -1c24 -3.33301 47 -10.5 69 -21.5s42.667 -29.167 62 -54.5v63h111
v-714h-114v263z" />
    <glyph glyph-name="r" unicode="r" horiz-adv-x="393" 
d="M175 520v-77.001c18 27.333 39.667 48.333 65 63s52.333 22 81 22c11.333 0 20.833 -0.333008 28.5 -1s15.167 -1.66699 22.5 -3l-13 -104c-7.33301 2 -15.333 3.33301 -24 4s-17.667 1 -27 1c-21.333 0 -40 -3.5 -56 -10.5s-29.5 -16.167 -40.5 -27.5
s-19.333 -24.166 -25 -38.499s-8.5 -28.833 -8.5 -43.5v-305h-113v520h110z" />
    <glyph glyph-name="s" unicode="s" horiz-adv-x="530" 
d="M143 159c2 -17.333 6.66211 -31.5029 13.9951 -42.5029s16.5 -19.833 27.5 -26.5s23.833 -11.167 38.5 -13.5s30.334 -3.5 47.001 -3.5c38 0 65.333 5.66699 82 17s25 28 25 50c0 17.333 -5.16699 32 -15.5 44s-31.5 20.667 -63.5 26
c-41.333 7.33301 -77.666 14.333 -108.999 21s-57.666 15.834 -78.999 27.501s-37.333 26.667 -48 45s-16 43.166 -16 74.499c0 24 5.33301 45.833 16 65.5s25.5 36.334 44.5 50.001s41.667 24.167 68 31.5s55.166 11 86.499 11c40 0 73.333 -4 100 -12
s48.334 -19 65.001 -33s29.334 -30 38.001 -48s15.334 -37 20.001 -57l-102 -14c-8 26 -20.167 45.333 -36.5 58s-43.5 19 -81.5 19c-22 0 -40 -2 -54 -6s-25.167 -9 -33.5 -15s-14 -12.667 -17 -20s-4.5 -14.666 -4.5 -21.999c0 -11.333 1.33301 -20.666 4 -27.999
s7.5 -13.333 14.5 -18s16.5 -8.66699 28.5 -12s27 -6.66602 45 -9.99902l65 -11c34.667 -6 63.5 -13.667 86.5 -23s41.333 -20.833 55 -34.5s23.167 -29.5 28.5 -47.5s8 -38 8 -60c0 -47.333 -18 -85.5 -54 -114.5s-90.667 -43.5 -164 -43.5
c-30 0 -58.833 2.83301 -86.5 8.5s-52.5 15.167 -74.5 28.5s-39.833 31.166 -53.5 53.499s-21.5 50.5 -23.5 84.5h109z" />
    <glyph glyph-name="t" unicode="t" horiz-adv-x="363" 
d="M14 430l0.000976562 90.001h82v140h113v-140h129v-90h-129v-272c0 -26.667 5.5 -46 16.5 -58s27.167 -18 48.5 -18c11.333 0 22.166 0.666992 32.499 2s20.5 3.66602 30.5 6.99902l17 -85c-32 -10.667 -66.667 -16 -104 -16c-57.333 0 -97.333 14.833 -120 44.5
s-34 74.167 -34 133.5v262h-82z" />
    <glyph glyph-name="u" unicode="u" horiz-adv-x="574" 
d="M174 520l0.000976562 -327c0 -43.333 7.16699 -73 21.5 -89s36.166 -24 65.499 -24c16 0 32.167 3 48.5 9s30.833 14.667 43.5 26s23 25 31 41s12 34 12 54v310h114v-520h-111v76c-24 -32 -50 -55.333 -78 -70s-58 -22 -90 -22c-60.667 0 -104.167 15.667 -130.5 47
s-39.5 79.333 -39.5 144v345h113z" />
    <glyph glyph-name="v" unicode="v" horiz-adv-x="544" 
d="M139 520l135 -392l137 392h126l-207 -520h-117l-206 520h132z" />
    <glyph glyph-name="w" unicode="w" horiz-adv-x="753" 
d="M131 520l88 -380l110 376h104l106 -376l88 380h119l-152 -520h-113l-105 378l-106 -378h-112l-151 520h124z" />
    <glyph glyph-name="x" unicode="x" horiz-adv-x="525" 
d="M27 520h134l106 -166l114 166h119l-169 -245l185 -275h-132l-124 190l-126 -190h-124l189 270z" />
    <glyph glyph-name="y" unicode="y" horiz-adv-x="545" 
d="M71 -92c16.667 -6 35.667 -9 57 -9c20 0 35.667 4.83301 47 14.5s22 27.834 32 54.501l19 50l-219 502h132l143 -375l131 375h124l-207 -525c-12 -30.667 -23.333 -57.667 -34 -81s-22.667 -43 -36 -59s-29.166 -28.167 -47.499 -36.5s-40.833 -12.5 -67.5 -12.5
c-17.333 0 -33.333 1.16699 -48 3.5s-30.334 6.16602 -47.001 11.499z" />
    <glyph glyph-name="z" unicode="z" horiz-adv-x="484" 
d="M310 430h-272v90h415v-80l-277 -350h291l-13 -90h-422v80z" />
    <glyph glyph-name="braceleft" unicode="{" horiz-adv-x="310" 
d="M96 598c0 28 3.83301 50.833 11.5 68.5s18.834 31.5 33.501 41.5s32 16.833 52 20.5s42.667 5.5 68 5.5h44v-95h-46c-22.667 0 -37.5 -6.66699 -44.5 -20s-10.5 -29.666 -10.5 -48.999v-158c0 -25.333 -3.83301 -47.333 -11.5 -66s-24.167 -32.334 -49.5 -41.001
c22.667 -7.33301 38.5 -19.5 47.5 -36.5s13.5 -36.167 13.5 -57.5v-171c0 -19.333 3.5 -35.666 10.5 -48.999s21.833 -20 44.5 -20h46v-95h-44c-25.333 0 -48 1.83301 -68 5.5s-37.333 10.5 -52 20.5s-25.834 23.833 -33.501 41.5s-11.5 40.5 -11.5 68.5v167
c0 25.333 -4.83301 44.666 -14.5 57.999s-26.5 20 -50.5 20h-6v96h6c23.333 0 40 6.5 50 19.5s15 30.5 15 52.5v173z" />
    <glyph glyph-name="bar" unicode="|" horiz-adv-x="252" 
d="M180 734v-858h-108v858h108z" />
    <glyph glyph-name="braceright" unicode="}" horiz-adv-x="310" 
d="M214 425c0 -22 5 -39.5 15 -52.5s26.667 -19.5 50 -19.5h6v-96h-6c-24 0 -40.833 -6.66699 -50.5 -20s-14.5 -32.666 -14.5 -57.999v-167c0 -28 -3.83301 -50.833 -11.5 -68.5s-18.834 -31.5 -33.501 -41.5s-32.167 -16.833 -52.5 -20.5s-42.833 -5.5 -67.5 -5.5h-44v95
h46c22.667 0 37.5 6.66699 44.5 20s10.5 29.666 10.5 48.999v171c0 21.333 4.5 40.5 13.5 57.5s24.833 29.167 47.5 36.5c-25.333 8.66699 -41.833 22.334 -49.5 41.001s-11.5 40.667 -11.5 66v158c0 19.333 -3.5 35.666 -10.5 48.999s-21.833 20 -44.5 20h-46v95h44
c24.667 0 47.167 -1.83301 67.5 -5.5s37.833 -10.5 52.5 -20.5s25.834 -23.833 33.501 -41.5s11.5 -40.5 11.5 -68.5v-173z" />
    <glyph glyph-name="asciitilde" unicode="~" 
d="M36 238c0 69.333 13 118.833 39 148.5s64 44.5 114 44.5c20 0 39 -4.66699 57 -14s35.333 -19.5 52 -30.5l48 -30.5c15.333 -9.33301 30.666 -14 45.999 -14c20.667 0 36 6.5 46 19.5s15 33.833 15 62.5h101c0 -70 -13 -119.667 -39 -149s-63.333 -44 -112 -44
c-18 0 -35.5 4.16699 -52.5 12.5s-33.5 17.666 -49.5 27.999l-46 29.5c-14.667 9.33301 -28.667 15.333 -42 18c-10 2 -19.333 1.33301 -28 -2c-27.333 -2 -41.666 -21 -42.999 -57c-15.333 -2.66699 -30.5 -5.66699 -45.5 -9s-29.5 -7.66602 -43.5 -12.999h-17z" />
    <glyph glyph-name="uni00A0" unicode="&#xa0;" horiz-adv-x="223" 
 />
    <glyph glyph-name="exclamdown" unicode="&#xa1;" horiz-adv-x="252" 
d="M184 520v-138h-116v138h116zM178 304l9 -498h-122l8 498h105z" />
    <glyph glyph-name="cent" unicode="&#xa2;" 
d="M280 528c-20 -4 -36.332 -11.6689 -48.999 -23.002s-22.834 -25 -30.501 -41s-13 -33.667 -16 -53s-4.5 -39 -4.5 -59c0 -19.333 1.5 -38.666 4.5 -57.999s8.16699 -37.166 15.5 -53.499s17.5 -30.333 30.5 -42s29.5 -19.5 49.5 -23.5v353zM280.001 80.998
c-73.333 7.33301 -127.668 34.5 -163.001 81.5s-53 109.167 -53 186.5c0 36.667 4.66699 70.667 14 102s23.166 59 41.499 83s41 43.667 68 59s57.833 25 92.5 29v91h60v-90c32 -2 59.333 -8 82 -18s41.834 -22.667 57.501 -38s27.834 -33.166 36.501 -53.499
s15 -41.833 19 -64.5l-112 -19c-4 25.333 -12.333 46.833 -25 64.5s-32 29.167 -58 34.5v-355c34 6 55 28 63 66c17.333 3.33301 33.166 8.16602 47.499 14.499s27.833 13.5 40.5 21.5h51c-7.33301 -57.333 -27.166 -103.333 -59.499 -138s-79.833 -54 -142.5 -58v-90h-60
v91z" />
    <glyph glyph-name="sterling" unicode="&#xa3;" 
d="M82 85c21.333 24.667 36.3291 50.001 44.9961 76.001s13 55 13 87c0 8.66699 -0.5 17 -1.5 25l-3.5 29h-75v90h64c-2.66699 14.667 -5 29.667 -7 45s-3 32.666 -3 51.999c0 37.333 5.66699 69.833 17 97.5s26.833 50.667 46.5 69s42.5 32 68.5 41s54 13.5 84 13.5
c39.333 0 71.833 -4.83301 97.5 -14.5s46.334 -22.5 62.001 -38.5s27.334 -34 35.001 -54s13.5 -40.333 17.5 -61l-98 -17c-4 14.667 -8.66699 27.834 -14 39.501s-12.166 21.167 -20.499 28.5s-18.5 13 -30.5 17s-26.667 6 -44 6c-40 0 -69 -11.333 -87 -34
s-27 -52.334 -27 -89.001c0 -12.667 0.333008 -24.167 1 -34.5s1.66699 -19.166 3 -26.499l6 -40h218v-90h-206c0.666992 -6 1.33398 -11.667 2.00098 -17s1 -10.333 1 -15c0 -30 -2.83301 -59.833 -8.5 -89.5s-18.167 -56.834 -37.5 -81.501h358l-14 -99h-463
c0 14 0.166992 28.167 0.5 42.5s0.5 28.5 0.5 42.5z" />
    <glyph glyph-name="currency" unicode="&#xa4;" 
d="M295 181c46 0 78.999 14.666 98.999 43.999s30 67 30 113c0 46.667 -10 84.667 -30 114s-53 44 -99 44c-24 0 -44.333 -4.16699 -61 -12.5s-30.167 -19.666 -40.5 -33.999s-17.666 -31 -21.999 -50s-6.5 -39.5 -6.5 -61.5c0 -46.667 10 -84.5 30 -113.5
s53.333 -43.5 100 -43.5zM108.999 190.999c-26.667 42 -40.001 90.668 -40.001 146.001c0 28 3.5 54.333 10.5 79s17.167 47.667 30.5 69l-60 61l70 67l61 -67c16 10 33.5 18 52.5 24s40.167 9 63.5 9c20.667 0 40.667 -2.83301 60 -8.5s37.333 -13.834 54 -24.501l61 67
l69 -67l-59 -61c12.667 -21.333 22.334 -44 29.001 -68s10 -49.667 10 -77c0 -28.667 -3.5 -55.5 -10.5 -80.5s-16.833 -47.167 -29.5 -66.5l60 -63l-69 -66l-61 66c-16.667 -10 -34.667 -17.833 -54 -23.5s-39.666 -8.5 -60.999 -8.5c-23.333 0 -44.333 2.66699 -63 8
s-36.334 13 -53.001 23l-60 -65l-70 66z" />
    <glyph glyph-name="yen" unicode="&#xa5;" 
d="M242 228v68l-7 14h-168v83h117l-167 298h122l160 -305l162 305h114l-166 -298h120v-83h-170l-6 -14v-68h176v-82h-176v-146h-111v146h-175v82h175z" />
    <glyph glyph-name="brokenbar" unicode="&#xa6;" horiz-adv-x="252" 
d="M180 229v-353h-108v353h108zM180 734v-336h-108v336h108z" />
    <glyph glyph-name="section" unicode="&#xa7;" horiz-adv-x="543" 
d="M259 223c5.33301 -1.33301 10.668 -2.83398 16.001 -4.50098s11 -2.5 17 -2.5c6.66699 -1.33301 13.667 -1.33301 21 0c23.333 0.666992 44.166 7.33398 62.499 20.001s27.5 33.334 27.5 62.001c0 20 -6 37.667 -18 53s-34.667 27.666 -68 36.999l-47 12
c-7.33301 1.33301 -14.5 2.5 -21.5 3.5s-14.167 1.16699 -21.5 0.5c-23.333 -1.33301 -42.666 -9.33301 -57.999 -24s-23 -35 -23 -61c0 -15.333 2.16699 -28 6.5 -38s11.166 -18.5 20.499 -25.5s21 -13 35 -18s31 -9.83301 51 -14.5zM150.002 69.999
c4.66699 -40 18.165 -66.667 40.498 -80s51.833 -20 88.5 -20c41.333 0 69.833 6.33301 85.5 19s23.5 29.667 23.5 51c0 8.66699 -1 16.834 -3 24.501s-6 14.834 -12 21.501s-14.667 13 -26 19s-26.333 11.667 -45 17l-89 22c-32 7.33301 -58.5 16.166 -79.5 26.499
s-38 22.5 -51 36.5s-22.167 30 -27.5 48s-8 38 -8 60c0 28.667 7.83301 53.834 23.5 75.501s38.5 39.167 68.5 52.5c-28 11.333 -49.833 27.5 -65.5 48.5s-23.5 49.167 -23.5 84.5c0 24 5.33301 45.667 16 65s25.667 35.833 45 49.5s42.833 24 70.5 31s58.5 10.5 92.5 10.5
c40 0 73.333 -4.33301 100 -13s48.667 -20.167 66 -34.5s30.5 -30.5 39.5 -48.5s16.167 -36 21.5 -54l-103 -24c-10.667 30 -25.167 51.167 -43.5 63.5s-45.166 18.5 -80.499 18.5c-36 0 -62 -5 -78 -15s-25.667 -22 -29 -36c-4 -8.66699 -5.33301 -18.334 -4 -29.001
c0.666992 -10.667 4.5 -20.5 11.5 -29.5s18.167 -16.167 33.5 -21.5l40 -13l102 -26c53.333 -14 91.666 -33 114.999 -57s35.666 -54.333 36.999 -91v-13.5c0 -4.33301 -0.333008 -8.83301 -1 -13.5c-3.33301 -27.333 -12.166 -50.833 -26.499 -70.5
s-36.166 -35.834 -65.499 -48.501c28.667 -14 50.834 -31.667 66.501 -53s23.5 -49 23.5 -83c0 -28 -5.5 -52 -16.5 -72s-26.167 -36.667 -45.5 -50s-42.333 -23.166 -69 -29.499s-55.334 -9.5 -86.001 -9.5c-35.333 0 -67.166 3.33301 -95.499 10s-53 17.5 -74 32.5
s-37.833 34.667 -50.5 59s-20.667 54.166 -24 89.499h112z" />
    <glyph glyph-name="dieresis" unicode="&#xa8;" horiz-adv-x="403" 
d="M350 724v-112h-109v112h109zM161 724v-112h-109v112h109z" />
    <glyph glyph-name="copyright" unicode="&#xa9;" horiz-adv-x="775" 
d="M563 303c-4.66699 -47.333 -21.501 -84.332 -50.501 -110.999s-70.167 -40 -123.5 -40c-32 0 -59.833 5.16699 -83.5 15.5s-43.167 24.5 -58.5 42.5s-26.666 39.5 -33.999 64.5s-11 52.167 -11 81.5c0 30 4.33301 57.5 13 82.5s21.167 46.5 37.5 64.5
s36.333 32.167 60 42.5s50.834 15.5 81.501 15.5c50 0 88.167 -12.167 114.5 -36.5s42.833 -56.5 49.5 -96.5l-88 -15c-5.33301 22 -13.5 40.333 -24.5 55s-29.167 22 -54.5 22c-19.333 0 -35.333 -4 -48 -12s-22.667 -18.333 -30 -31s-12.5 -26.834 -15.5 -42.501
s-4.5 -31.5 -4.5 -47.5c0 -18 1.66699 -35 5 -51s8.66602 -30 15.999 -42s17.333 -21.667 30 -29s28 -11 46 -11c49.333 0 77 26.333 83 79h90zM387.999 65.001c37.333 0 72.334 6.66699 105.001 20s61 32.5 85 57.5s43 55.5 57 91.5s21 77 21 123
c0 44 -6.83301 84 -20.5 120s-32.5 66.667 -56.5 92s-52.333 44.833 -85 58.5s-68 20.5 -106 20.5c-42.667 0 -80.834 -7.5 -114.501 -22.5s-62 -35.5 -85 -61.5s-40.5 -56.833 -52.5 -92.5s-18 -73.834 -18 -114.501c0 -45.333 6.66699 -86.166 20 -122.499s32 -67 56 -92
s52.5 -44.167 85.5 -57.5s69.167 -20 108.5 -20zM388 0.000976562c-52 0 -99.168 8.66211 -141.501 25.9951s-78.5 41.833 -108.5 73.5s-53 69.334 -69 113.001s-24 91.834 -24 144.501c0 54 9 103 27 147s42.667 81.5 74 112.5s67.666 55 108.999 72
s85.666 25.5 132.999 25.5c51.333 0 98 -8.66699 140 -26s77.833 -41.666 107.5 -72.999s52.667 -69 69 -113s24.5 -92.333 24.5 -145c0 -56 -9.16699 -106.167 -27.5 -150.5s-43.166 -81.666 -74.499 -111.999s-67.666 -53.666 -108.999 -69.999
s-84.666 -24.5 -129.999 -24.5z" />
    <glyph glyph-name="ordfeminine" unicode="&#xaa;" horiz-adv-x="425" 
d="M239 517c-23.333 -2 -42.3311 -4.5 -56.998 -7.5s-26.334 -7 -35.001 -12s-14.667 -11 -18 -18s-5 -14.833 -5 -23.5c-0.666992 -7.33301 0.666016 -15 3.99902 -23c4 -22.667 22.667 -34 56 -34c32 0 57.667 8 77 24s29 39.667 29 71v26zM291.002 387
c-15.333 -18 -32.999 -32 -52.999 -42s-44 -15 -72 -15c-40 0 -72 9.83301 -96 29.5s-36 48.5 -36 86.5c0 27.333 6.16699 49.333 18.5 66s28.166 29.667 47.499 39s41 15.833 65 19.5s47.667 6.16699 71 7.5l53 2v11c0 26 -6.16699 44.833 -18.5 56.5
s-30.833 17.5 -55.5 17.5c-28 0 -47.5 -5 -58.5 -15s-18.167 -22 -21.5 -36l-80 9c7.33301 38 24.5 65.667 51.5 83s64.5 26 112.5 26c31.333 0 57.166 -4 77.499 -12s36.333 -18.833 48 -32.5s19.834 -30 24.501 -49s7 -39.5 7 -61.5v-237h-85v47z" />
    <glyph glyph-name="guillemotleft" unicode="&#xab;" horiz-adv-x="522" 
d="M384 481h113l-120 -222l120 -228h-115l-129 227zM172 481h113l-121 -222l121 -228h-115l-131 227z" />
    <glyph glyph-name="logicalnot" unicode="&#xac;" 
d="M510 436v-268h-102v170h-339v98h441z" />
    <glyph glyph-name="uni00AD" unicode="&#xad;" horiz-adv-x="390" 
d="M343 352v-113h-296v113h296z" />
    <glyph glyph-name="registered" unicode="&#xae;" horiz-adv-x="486" 
d="M242 342c46.667 0 84.667 14.667 114 44s44 72 44 128c0 54 -14.333 96.167 -43 126.5s-67 45.5 -115 45.5s-86.167 -15.167 -114.5 -45.5s-42.5 -72.5 -42.5 -126.5c0 -55.333 14.167 -97.833 42.5 -127.5s66.5 -44.5 114.5 -44.5zM242 296
c-32.667 0 -61.999 5.33203 -87.999 15.999s-48 25.5 -66 44.5s-31.833 41.833 -41.5 68.5s-14.5 56.334 -14.5 89.001c0 34 5.5 64.5 16.5 91.5s26 49.833 45 68.5s41.333 33 67 43s52.834 15 81.501 15c31.333 0 60 -5.16699 86 -15.5s48.333 -25 67 -44
s33.167 -41.833 43.5 -68.5s15.5 -56.667 15.5 -90c0 -36 -5.83301 -67.667 -17.5 -95s-27.334 -50 -47.001 -68s-42.334 -31.667 -68.001 -41s-52.167 -14 -79.5 -14zM244.001 528.999c15.333 0 25.167 2.83301 29.5 8.5s6.5 12.5 6.5 20.5c0 7.33301 -3 13.333 -9 18
s-17 7 -33 7h-30v-54h36zM239.002 621.999c18.667 0 34 -1.83203 46 -5.49902s21.333 -8.5 28 -14.5s11.167 -12.833 13.5 -20.5s3.5 -15.167 3.5 -22.5c0 -15.333 -2.5 -27.333 -7.5 -36s-13.833 -16.334 -26.5 -23.001l44 -86h-55l-36 75h-41v-75h-49v208h80z" />
    <glyph glyph-name="macron" unicode="&#xaf;" horiz-adv-x="403" 
d="M339 706v-89h-276v89h276z" />
    <glyph glyph-name="degree" unicode="&#xb0;" horiz-adv-x="340" 
d="M171 498c20 0 36.167 6.50098 48.5 19.501s18.5 30.5 18.5 52.5c0 20.667 -6.16699 37.667 -18.5 51s-28.5 20 -48.5 20c-21.333 0 -38.166 -6.66699 -50.499 -20s-18.5 -30.333 -18.5 -51c0 -22.667 6.16699 -40.334 18.5 -53.001s29.166 -19 50.499 -19zM28 570.001
c0 20 3.49805 38.501 10.498 55.501s16.833 31.667 29.5 44s27.834 22.166 45.501 29.499s36.834 11 57.501 11c20 0 38.5 -3.5 55.5 -10.5s31.833 -16.833 44.5 -29.5s22.667 -27.5 30 -44.5s11 -35.5 11 -55.5c0 -22 -3.83301 -41.833 -11.5 -59.5s-18 -32.5 -31 -44.5
s-28 -21.333 -45 -28s-34.833 -10 -53.5 -10c-22 0 -41.833 3.83301 -59.5 11.5s-32.667 18 -45 31s-21.833 28 -28.5 45s-10 35.167 -10 54.5z" />
    <glyph glyph-name="plusminus" unicode="&#xb1;" 
d="M67 54h458v-54h-458v54zM269 314h-201v53h201v214h54v-214h201v-53h-201v-215h-54v215z" />
    <glyph glyph-name="twosuperior" unicode="&#xb2;" horiz-adv-x="412" 
d="M67 362c10 8.66699 21.834 18.334 35.501 29.001l58.5 48l41 35c19.333 17.333 34.166 33.666 44.499 48.999s15.5 33.666 15.5 54.999c0 16.667 -5 30 -15 40s-23.667 15 -41 15c-20.667 0 -36.834 -5.16699 -48.501 -15.5s-20.167 -28.166 -25.5 -53.499l-86 11
c4 16 9.33301 32 16 48s16.334 30.167 29.001 42.5s28.667 22.5 48 30.5s43 12 71 12c46 0 81.333 -11.667 106 -35s37 -53.333 37 -90c0 -32.667 -9.5 -62.5 -28.5 -89.5s-46.167 -55.167 -81.5 -84.5l-21 -16l-33 -27h169l-11 -76h-289v64z" />
    <glyph glyph-name="threesuperior" unicode="&#xb3;" horiz-adv-x="412" 
d="M132 416c2.66699 -26 10.3359 -44.833 23.0029 -56.5s30.667 -17.5 54 -17.5c22 0 39.667 4.66699 53 14s20 26 20 50c0 21.333 -7.33301 36 -22 44s-31.667 12 -51 12h-41v68h45c19.333 0 34.5 5 45.5 15s16.5 24 16.5 42c0 35.333 -22 53 -66 53
c-21.333 0 -37.833 -5.16699 -49.5 -15.5s-20.167 -26.833 -25.5 -49.5l-79 12c2.66699 16 7.66699 31.167 15 45.5s17.166 27.166 29.499 38.499s27.666 20.333 45.999 27s40.166 10 65.499 10c50 0 86.667 -10.833 110 -32.5s35 -48.834 35 -81.501
c0 -21.333 -5 -39.166 -15 -53.499s-23 -27.166 -39 -38.499c21.333 -9.33301 37.333 -22.5 48 -39.5s16 -35.5 16 -55.5c0 -40 -12.167 -72.167 -36.5 -96.5s-63.5 -36.5 -117.5 -36.5c-30 0 -55 4.33301 -75 13s-36.167 19.667 -48.5 33s-21.333 28.5 -27 45.5
s-8.5 33.833 -8.5 50.5h79z" />
    <glyph glyph-name="acute" unicode="&#xb4;" horiz-adv-x="403" 
d="M326 741l-143 -148h-107l117 148h133z" />
    <glyph glyph-name="mu" unicode="&#xb5;" horiz-adv-x="578" 
d="M178 520l-0.000976562 -322.001c0 -42 6.5 -72.167 19.5 -90.5s36.5 -27.5 70.5 -27.5c10 0 19.333 0.833008 28 2.5s17.334 4.83398 26.001 9.50098c8 4 16.5 9.33301 25.5 16s17.5 14.667 25.5 24s14.5 20 19.5 32s7.5 25.667 7.5 41v315h114v-520h-111v75
c-38.667 -58.667 -86.667 -88 -144 -88c-15.333 0 -30 1.66699 -44 5s-26.333 11.333 -37 24v-210h-113v714h113z" />
    <glyph glyph-name="paragraph" unicode="&#xb6;" horiz-adv-x="632" 
d="M243 279c-42 2.66699 -77.3301 10.334 -105.997 23.001s-51.834 28.667 -69.501 48s-30.334 41.5 -38.001 66.5s-11.5 51.5 -11.5 79.5s4.33301 55 13 81s24 49.167 46 69.5s51.667 36.666 89 48.999s84.666 18.5 141.999 18.5h256v-853h-110v759h-102v-759h-109v418z
" />
    <glyph glyph-name="periodcentered" unicode="&#xb7;" horiz-adv-x="231" 
d="M176 442v-139h-121v139h121z" />
    <glyph glyph-name="cedilla" unicode="&#xb8;" horiz-adv-x="403" 
d="M108 -147c11.333 -1.33301 20.668 -2.33398 28.001 -3.00098s14.666 -1 21.999 -1h15c30 0 45 10.333 45 31c0 10.667 -4.33301 18.167 -13 22.5s-23.334 6.83301 -44.001 7.5h-34l36 96h67l-20 -54c33.333 -3.33301 56.833 -12.666 70.5 -27.999s20.5 -33 20.5 -53
c0 -30.667 -12.167 -52.167 -36.5 -64.5s-56.166 -18.5 -95.499 -18.5c-10 0 -20.5 0.333008 -31.5 1s-23.167 2 -36.5 4v61z" />
    <glyph glyph-name="onesuperior" unicode="&#xb9;" horiz-adv-x="412" 
d="M89 554l-34 63l133 75h86v-402h-91v314z" />
    <glyph glyph-name="ordmasculine" unicode="&#xba;" horiz-adv-x="425" 
d="M212 401c35.333 0 60.666 11.667 75.999 35s23 54.333 23 93s-7.66699 69.5 -23 92.5s-40.666 34.5 -75.999 34.5s-60.666 -11.833 -75.999 -35.5s-23 -54.167 -23 -91.5c0 -40 7.66699 -71.333 23 -94s40.666 -34 75.999 -34zM211 325
c-60 0 -106.831 17.832 -140.498 53.499s-50.5 85.834 -50.5 150.501c0 31.333 4.5 59.5 13.5 84.5s22 46.333 39 64s37.167 31.167 60.5 40.5s49.666 14 78.999 14c59.333 0 106.166 -18 140.499 -54s51.5 -85.333 51.5 -148c0 -34 -5 -63.833 -15 -89.5
s-23.833 -47 -41.5 -64s-38.167 -29.833 -61.5 -38.5s-48.333 -13 -75 -13z" />
    <glyph glyph-name="guillemotright" unicode="&#xbb;" horiz-adv-x="525" 
d="M25 481h115l130 -226l-132 -224h-113l120 223zM240 481h116l130 -226l-132 -224h-114l122 223z" />
    <glyph glyph-name="onequarter" unicode="&#xbc;" horiz-adv-x="924" 
d="M213 0l349 691h111l-349 -691h-111zM57 554l-34 63l133 75h86v-402h-91v314zM741 301l-109 -144h109v144zM743 403h79v-246h52l-10 -69h-42v-87h-81v87h-196v55z" />
    <glyph glyph-name="onehalf" unicode="&#xbd;" horiz-adv-x="924" 
d="M186 0l349 691h111l-349 -691h-111zM57 554l-34 63l133 75h86v-402h-91v314zM572 73c10 8.66699 21.834 18.334 35.501 29.001l58.5 48l41 35c19.333 17.333 34.166 33.666 44.499 48.999s15.5 33.666 15.5 54.999c0 16.667 -5 30 -15 40s-23.667 15 -41 15
c-20.667 0 -36.834 -5.16699 -48.501 -15.5s-20.167 -28.166 -25.5 -53.499l-86 11c4 16 9.33301 32 16 48s16.334 30.167 29.001 42.5s28.667 22.5 48 30.5s43 12 71 12c46 0 81.333 -11.667 106 -35s37 -53.333 37 -90c0 -32.667 -9.5 -62.5 -28.5 -89.5
s-46.167 -55.167 -81.5 -84.5l-21 -16l-33 -27h169l-11 -76h-289v64z" />
    <glyph glyph-name="threequarters" unicode="&#xbe;" horiz-adv-x="924" 
d="M260 0l349 691h111l-349 -691h-111zM741 301l-109 -144h109v144zM743 403h79v-246h52l-10 -69h-42v-87h-81v87h-196v55zM132 416c2.66699 -26 10.3359 -44.833 23.0029 -56.5s30.667 -17.5 54 -17.5c22 0 39.667 4.66699 53 14s20 26 20 50c0 21.333 -7.33301 36 -22 44
s-31.667 12 -51 12h-41v68h45c19.333 0 34.5 5 45.5 15s16.5 24 16.5 42c0 35.333 -22 53 -66 53c-21.333 0 -37.833 -5.16699 -49.5 -15.5s-20.167 -26.833 -25.5 -49.5l-79 12c2.66699 16 7.66699 31.167 15 45.5s17.166 27.166 29.499 38.499s27.666 20.333 45.999 27
s40.166 10 65.499 10c50 0 86.667 -10.833 110 -32.5s35 -48.834 35 -81.501c0 -21.333 -5 -39.166 -15 -53.499s-23 -27.166 -39 -38.499c21.333 -9.33301 37.333 -22.5 48 -39.5s16 -35.5 16 -55.5c0 -40 -12.167 -72.167 -36.5 -96.5s-63.5 -36.5 -117.5 -36.5
c-30 0 -55 4.33301 -75 13s-36.167 19.667 -48.5 33s-21.333 28.5 -27 45.5s-8.5 33.833 -8.5 50.5h79z" />
    <glyph glyph-name="questiondown" unicode="&#xbf;" horiz-adv-x="497" 
d="M307 520v-138h-117v138h117zM476 -15c-6 -26 -14.666 -50.501 -25.999 -73.501s-26.166 -43.167 -44.499 -60.5s-41.166 -31 -68.499 -41s-60 -15 -98 -15c-70 0 -124 16.667 -162 50s-57 77.666 -57 132.999c0 20.667 2 38.834 6 54.501s9.66699 29.834 17 42.501
s15.666 24.334 24.999 35.001s19.666 21.667 30.999 33l35 34c16 16 29.667 32.833 41 50.5s17 38.167 17 61.5v15h112v-19c0 -28 -5.5 -51.833 -16.5 -71.5s-24.5 -38.167 -40.5 -55.5l-42.5 -43c-13 -12.667 -24.333 -25 -34 -37s-17.5 -24.833 -23.5 -38.5
s-9 -29.834 -9 -48.501c-0.666992 -31.333 8 -55.833 26 -73.5s43.333 -26.5 76 -26.5c38.667 0 68.167 8.83301 88.5 26.5s35.166 46.5 44.499 86.5l104 -14z" />
    <glyph glyph-name="Agrave" unicode="&#xc0;" horiz-adv-x="686" 
d="M283 714h120l272 -714h-129l-67 182h-277l-66 -182h-125zM446 283l-106 294l-105 -294h211zM427 773h-109l-149 139h136z" />
    <glyph glyph-name="Aacute" unicode="&#xc1;" horiz-adv-x="686" 
d="M283 714h120l272 -714h-129l-67 182h-277l-66 -182h-125zM446 283l-106 294l-105 -294h211zM516 912l-149 -139h-109l123 139h135z" />
    <glyph glyph-name="Acircumflex" unicode="&#xc2;" horiz-adv-x="686" 
d="M283 714h120l272 -714h-129l-67 182h-277l-66 -182h-125zM446 283l-106 294l-105 -294h211zM399 912l118 -139h-101l-74 75l-74 -75h-101l118 139h114z" />
    <glyph glyph-name="Atilde" unicode="&#xc3;" horiz-adv-x="686" 
d="M283 714h120l272 -714h-129l-67 182h-277l-66 -182h-125zM446 283l-106 294l-105 -294h211zM154 776c0 44.667 10.1631 77.5 30.4961 98.5s48.5 31.5 84.5 31.5c13.333 0 25.833 -2.5 37.5 -7.5s22.834 -10.667 33.501 -17s21.334 -12 32.001 -17s21.667 -7.5 33 -7.5
c28.667 0 43 15.333 43 46h82c0 -45.333 -10.167 -78.166 -30.5 -98.499s-48.166 -30.5 -83.499 -30.5c-13.333 0 -25.666 2 -36.999 6s-22.333 9 -33 15l-26 15c-7.33301 3.33301 -13.833 6.16602 -19.5 8.49902s-12.167 3.5 -19.5 3.5c-16 0 -27.5 -3.83301 -34.5 -11.5
s-10.5 -19.167 -10.5 -34.5h-82z" />
    <glyph glyph-name="Adieresis" unicode="&#xc4;" horiz-adv-x="686" 
d="M283 714h120l272 -714h-129l-67 182h-277l-66 -182h-125zM446 283l-106 294l-105 -294h211zM495 902v-116h-112v116h112zM301 902v-116h-112v116h112z" />
    <glyph glyph-name="Aring" unicode="&#xc5;" horiz-adv-x="686" 
d="M342 737c31.333 0 47 16.668 47 50.001c0 17.333 -4.33301 30.166 -13 38.499s-20 12.5 -34 12.5c-31.333 0 -47 -17 -47 -51c0 -18 4.16699 -30.833 12.5 -38.5s19.833 -11.5 34.5 -11.5zM340 577.001l-105 -294h211zM276 694.001
c-9.33301 5.33301 -17.332 12.332 -23.999 20.999s-11.334 19.334 -14.001 32.001c-5.33301 10 -8 23.333 -8 40c0 36 10.667 63.5 32 82.5s48 28.5 80 28.5c14 0 27.833 -2.33301 41.5 -7s25.667 -11.667 36 -21s18.666 -20.833 24.999 -34.5s9.5 -29.834 9.5 -48.501
c0 -21.333 -4.16699 -39.666 -12.5 -54.999s-19.166 -27.333 -32.499 -36l266 -696h-129l-67 182h-277l-66 -182h-125z" />
    <glyph glyph-name="AE" unicode="&#xc6;" horiz-adv-x="1039" 
d="M424 714h568v-104h-332v-190h312v-105h-312v-211h351l-14 -104h-454v225h-280l-128 -225h-136zM543 327v283h-59l-162 -283h221z" />
    <glyph glyph-name="Ccedilla" unicode="&#xc7;" horiz-adv-x="712" 
d="M273 -151c15.333 -2.66699 28.1689 -4.33398 38.502 -5.00098s20.166 -1 29.499 -1c18.667 0 31.667 2.66699 39 8s11 12.666 11 21.999s-4.33301 16.666 -13 21.999s-25.334 8 -50.001 8h-29l30 82c-44 4.66699 -83.333 16.834 -118 36.501s-63.667 45.334 -87 77.001
s-41.166 69.167 -53.499 112.5s-18.5 91.666 -18.5 144.999c0 58.667 7.83301 111.334 23.5 158.001s37.834 86.167 66.501 118.5s63 57 103 74s84 25.5 132 25.5c44.667 0 83.334 -5.66699 116.001 -17s60.5 -27.5 83.5 -48.5s41.333 -46.167 55 -75.5
s23.834 -62 30.501 -98l-119 -17c-5.33301 24 -12 45.333 -20 64s-18.5 34.5 -31.5 47.5s-28.833 23 -47.5 30s-41 10.5 -67 10.5c-32 0 -60.333 -6.33301 -85 -19s-45.5 -30.834 -62.5 -54.501s-29.833 -52.167 -38.5 -85.5s-13 -70.666 -13 -111.999
c0 -42 4.5 -79.667 13.5 -113s22.167 -61.833 39.5 -85.5s38.166 -41.667 62.499 -54s52.166 -18.5 83.499 -18.5c28 0 51.833 3.66699 71.5 11s36.167 17.666 49.5 30.999s23.833 29.5 31.5 48.5s13.167 40.5 16.5 64.5h128c-4 -35.333 -12.667 -68.333 -26 -99
s-31.333 -57.5 -54 -80.5s-50.334 -41.333 -83.001 -55s-70.334 -21.5 -113.001 -23.5l-13 -36c19.333 -2 35.333 -5.66699 48 -11s22.5 -11.666 29.5 -18.999s11.833 -15.5 14.5 -24.5s4 -18.5 4 -28.5c0 -31.333 -12.5 -53.666 -37.5 -66.999s-58.833 -20 -101.5 -20
c-9.33301 0 -19.5 0.333008 -30.5 1s-23.833 2 -38.5 4v67z" />
    <glyph glyph-name="Egrave" unicode="&#xc8;" horiz-adv-x="599" 
d="M76 714h475v-104h-354v-190h334v-105h-334v-211h373l-14 -104h-480v714zM413 773h-109l-149 139h136z" />
    <glyph glyph-name="Eacute" unicode="&#xc9;" horiz-adv-x="599" 
d="M76 714h475v-104h-354v-190h334v-105h-334v-211h373l-14 -104h-480v714zM482 912l-149 -139h-109l123 139h135z" />
    <glyph glyph-name="Ecircumflex" unicode="&#xca;" horiz-adv-x="599" 
d="M76 714h475v-104h-354v-190h334v-105h-334v-211h373l-14 -104h-480v714zM372 912l118 -139h-101l-74 75l-74 -75h-101l118 139h114z" />
    <glyph glyph-name="Edieresis" unicode="&#xcb;" horiz-adv-x="599" 
d="M76 714h475v-104h-354v-190h334v-105h-334v-211h373l-14 -104h-480v714zM468 902v-116h-112v116h112zM274 902v-116h-112v116h112z" />
    <glyph glyph-name="Igrave" unicode="&#xcc;" horiz-adv-x="272" 
d="M76 714h121v-714h-121v714zM223 773h-109l-149 139h136z" />
    <glyph glyph-name="Iacute" unicode="&#xcd;" horiz-adv-x="272" 
d="M76 714h121v-714h-121v714zM311 912l-149 -139h-109l123 139h135z" />
    <glyph glyph-name="Icircumflex" unicode="&#xce;" horiz-adv-x="272" 
d="M76 714h121v-714h-121v714zM194 912l118 -139h-101l-74 75l-74 -75h-101l118 139h114z" />
    <glyph glyph-name="Idieresis" unicode="&#xcf;" horiz-adv-x="272" 
d="M76 714h121v-714h-121v714zM290 902v-116h-112v116h112zM96 902v-116h-112v116h112z" />
    <glyph glyph-name="Eth" unicode="&#xd0;" horiz-adv-x="741" 
d="M329 103c82 0 141.666 22.833 178.999 68.5s56 108.5 56 188.5c0 39.333 -4.16699 74.5 -12.5 105.5s-21.166 57.333 -38.499 79s-39.5 38.167 -66.5 49.5s-59.167 17 -96.5 17h-138v-192h167v-101h-167v-215h117zM9.99902 318l0.00195312 101h81v295h259
c106 0 189 -29.667 249 -89s90 -147.333 90 -264c0 -61.333 -8.83301 -114.666 -26.5 -159.999s-42.334 -82.833 -74.001 -112.5s-69.834 -51.834 -114.501 -66.501s-94 -22 -148 -22h-235v318h-81z" />
    <glyph glyph-name="Ntilde" unicode="&#xd1;" horiz-adv-x="710" 
d="M76 714h112l328 -516v516h118v-714h-112l-329 514v-514h-117v714zM167 776c0 44.667 10.1631 77.5 30.4961 98.5s48.5 31.5 84.5 31.5c13.333 0 25.833 -2.5 37.5 -7.5s22.834 -10.667 33.501 -17s21.334 -12 32.001 -17s21.667 -7.5 33 -7.5c28.667 0 43 15.333 43 46
h82c0 -45.333 -10.167 -78.166 -30.5 -98.499s-48.166 -30.5 -83.499 -30.5c-13.333 0 -25.666 2 -36.999 6s-22.333 9 -33 15l-26 15c-7.33301 3.33301 -13.833 6.16602 -19.5 8.49902s-12.167 3.5 -19.5 3.5c-16 0 -27.5 -3.83301 -34.5 -11.5s-10.5 -19.167 -10.5 -34.5
h-82z" />
    <glyph glyph-name="Ograve" unicode="&#xd2;" horiz-adv-x="772" 
d="M387 -18c-51.333 0 -97.5 8.49707 -138.5 25.4971s-76.167 41.5 -105.5 73.5s-51.833 71.167 -67.5 117.5s-23.5 98.833 -23.5 157.5s8 111.334 24 158.001s38.667 86.167 68 118.5s64.666 57 105.999 74s87 25.5 137 25.5c50.667 0 96.667 -8.5 138 -25.5
s76.333 -41.5 105 -73.5s50.834 -71.167 66.501 -117.5s23.5 -98.833 23.5 -157.5c0 -59.333 -7.66699 -112.166 -23 -158.499s-37.333 -85.666 -66 -117.999s-63.5 -57 -104.5 -74s-87.5 -25.5 -139.5 -25.5zM386 85.9971c68.667 0 120.668 24.167 156.001 72.5
s53 114.5 53 198.5c0 42 -4.5 79.667 -13.5 113s-22.167 61.666 -39.5 84.999s-39 41.333 -65 54s-56.333 19 -91 19s-65 -6.33301 -91 -19s-47.833 -30.667 -65.5 -54s-30.834 -51.666 -39.501 -84.999s-13 -71 -13 -113c0 -84 17.5 -150.167 52.5 -198.5
s87.167 -72.5 156.5 -72.5zM486.001 772.997h-109l-149 139h136z" />
    <glyph glyph-name="Oacute" unicode="&#xd3;" horiz-adv-x="772" 
d="M387 -18c-51.333 0 -97.5 8.49707 -138.5 25.4971s-76.167 41.5 -105.5 73.5s-51.833 71.167 -67.5 117.5s-23.5 98.833 -23.5 157.5s8 111.334 24 158.001s38.667 86.167 68 118.5s64.666 57 105.999 74s87 25.5 137 25.5c50.667 0 96.667 -8.5 138 -25.5
s76.333 -41.5 105 -73.5s50.834 -71.167 66.501 -117.5s23.5 -98.833 23.5 -157.5c0 -59.333 -7.66699 -112.166 -23 -158.499s-37.333 -85.666 -66 -117.999s-63.5 -57 -104.5 -74s-87.5 -25.5 -139.5 -25.5zM386 85.9971c68.667 0 120.668 24.167 156.001 72.5
s53 114.5 53 198.5c0 42 -4.5 79.667 -13.5 113s-22.167 61.666 -39.5 84.999s-39 41.333 -65 54s-56.333 19 -91 19s-65 -6.33301 -91 -19s-47.833 -30.667 -65.5 -54s-30.834 -51.666 -39.501 -84.999s-13 -71 -13 -113c0 -84 17.5 -150.167 52.5 -198.5
s87.167 -72.5 156.5 -72.5zM551.001 911.997l-149 -139h-109l123 139h135z" />
    <glyph glyph-name="Ocircumflex" unicode="&#xd4;" horiz-adv-x="772" 
d="M387 -18c-51.333 0 -97.5 8.49707 -138.5 25.4971s-76.167 41.5 -105.5 73.5s-51.833 71.167 -67.5 117.5s-23.5 98.833 -23.5 157.5s8 111.334 24 158.001s38.667 86.167 68 118.5s64.666 57 105.999 74s87 25.5 137 25.5c50.667 0 96.667 -8.5 138 -25.5
s76.333 -41.5 105 -73.5s50.834 -71.167 66.501 -117.5s23.5 -98.833 23.5 -157.5c0 -59.333 -7.66699 -112.166 -23 -158.499s-37.333 -85.666 -66 -117.999s-63.5 -57 -104.5 -74s-87.5 -25.5 -139.5 -25.5zM386 85.9971c68.667 0 120.668 24.167 156.001 72.5
s53 114.5 53 198.5c0 42 -4.5 79.667 -13.5 113s-22.167 61.666 -39.5 84.999s-39 41.333 -65 54s-56.333 19 -91 19s-65 -6.33301 -91 -19s-47.833 -30.667 -65.5 -54s-30.834 -51.666 -39.501 -84.999s-13 -71 -13 -113c0 -84 17.5 -150.167 52.5 -198.5
s87.167 -72.5 156.5 -72.5zM443.001 911.997l118 -139h-101l-74 75l-74 -75h-101l118 139h114z" />
    <glyph glyph-name="Otilde" unicode="&#xd5;" horiz-adv-x="772" 
d="M387 -18c-51.333 0 -97.5 8.49707 -138.5 25.4971s-76.167 41.5 -105.5 73.5s-51.833 71.167 -67.5 117.5s-23.5 98.833 -23.5 157.5s8 111.334 24 158.001s38.667 86.167 68 118.5s64.666 57 105.999 74s87 25.5 137 25.5c50.667 0 96.667 -8.5 138 -25.5
s76.333 -41.5 105 -73.5s50.834 -71.167 66.501 -117.5s23.5 -98.833 23.5 -157.5c0 -59.333 -7.66699 -112.166 -23 -158.499s-37.333 -85.666 -66 -117.999s-63.5 -57 -104.5 -74s-87.5 -25.5 -139.5 -25.5zM386 85.9971c68.667 0 120.668 24.167 156.001 72.5
s53 114.5 53 198.5c0 42 -4.5 79.667 -13.5 113s-22.167 61.666 -39.5 84.999s-39 41.333 -65 54s-56.333 19 -91 19s-65 -6.33301 -91 -19s-47.833 -30.667 -65.5 -54s-30.834 -51.666 -39.501 -84.999s-13 -71 -13 -113c0 -84 17.5 -150.167 52.5 -198.5
s87.167 -72.5 156.5 -72.5zM198.001 775.997c0 44.667 10.1631 77.5 30.4961 98.5s48.5 31.5 84.5 31.5c13.333 0 25.833 -2.5 37.5 -7.5s22.834 -10.667 33.501 -17s21.334 -12 32.001 -17s21.667 -7.5 33 -7.5c28.667 0 43 15.333 43 46h82
c0 -45.333 -10.167 -78.166 -30.5 -98.499s-48.166 -30.5 -83.499 -30.5c-13.333 0 -25.666 2 -36.999 6s-22.333 9 -33 15l-26 15c-7.33301 3.33301 -13.833 6.16602 -19.5 8.49902s-12.167 3.5 -19.5 3.5c-16 0 -27.5 -3.83301 -34.5 -11.5s-10.5 -19.167 -10.5 -34.5h-82
z" />
    <glyph glyph-name="Odieresis" unicode="&#xd6;" horiz-adv-x="772" 
d="M387 -18c-51.333 0 -97.5 8.49707 -138.5 25.4971s-76.167 41.5 -105.5 73.5s-51.833 71.167 -67.5 117.5s-23.5 98.833 -23.5 157.5s8 111.334 24 158.001s38.667 86.167 68 118.5s64.666 57 105.999 74s87 25.5 137 25.5c50.667 0 96.667 -8.5 138 -25.5
s76.333 -41.5 105 -73.5s50.834 -71.167 66.501 -117.5s23.5 -98.833 23.5 -157.5c0 -59.333 -7.66699 -112.166 -23 -158.499s-37.333 -85.666 -66 -117.999s-63.5 -57 -104.5 -74s-87.5 -25.5 -139.5 -25.5zM386 85.9971c68.667 0 120.668 24.167 156.001 72.5
s53 114.5 53 198.5c0 42 -4.5 79.667 -13.5 113s-22.167 61.666 -39.5 84.999s-39 41.333 -65 54s-56.333 19 -91 19s-65 -6.33301 -91 -19s-47.833 -30.667 -65.5 -54s-30.834 -51.666 -39.501 -84.999s-13 -71 -13 -113c0 -84 17.5 -150.167 52.5 -198.5
s87.167 -72.5 156.5 -72.5zM539.001 901.997v-116h-112v116h112zM345.001 901.997v-116h-112v116h112z" />
    <glyph glyph-name="multiply" unicode="&#xd7;" 
d="M76 490l69 70l151 -151l151 151l69 -70l-150 -151l147 -148l-70 -70l-147 148l-148 -148l-69 70l147 148z" />
    <glyph glyph-name="Oslash" unicode="&#xd8;" horiz-adv-x="772" 
d="M496 597c-16 10 -33.0029 17.667 -51.0029 23s-37.667 8 -59 8c-35.333 0 -66.166 -6.33301 -92.499 -19s-48.166 -30.834 -65.499 -54.501s-30.166 -52.167 -38.499 -85.5s-12.5 -70.666 -12.5 -111.999c0 -37.333 3.33301 -71 10 -101s17 -56.333 31 -79zM266.997 121
c31.333 -23.333 71 -34.999 119 -34.999c69.333 0 121.5 23.833 156.5 71.5s52.5 114.167 52.5 199.5c0 79.333 -15.667 142.666 -47 189.999zM148.997 73.001c-64.667 64.667 -96.999 158.999 -96.999 282.999c0 59.333 8 112.333 24 159s38.667 86 68 118
s64.666 56.5 105.999 73.5s87 25.5 137 25.5c32 0 62.167 -3.66699 90.5 -11s54.833 -17.666 79.5 -30.999l52 78l59 -39l-53 -81c34 -32.667 60 -73.5 78 -122.5s27 -104.833 27 -167.5c0 -60 -7.83301 -113.333 -23.5 -160s-38 -86 -67 -118s-64 -56.333 -105 -73
s-86.833 -25 -137.5 -25c-36 0 -68.833 4 -98.5 12s-57.167 19.667 -82.5 35l-55 -83l-60 39z" />
    <glyph glyph-name="Ugrave" unicode="&#xd9;" horiz-adv-x="688" 
d="M185 714l-0.000976562 -428.002c0 -67.333 12.167 -117.5 36.5 -150.5s65.5 -49.5 123.5 -49.5c57.333 0 97.833 16.5 121.5 49.5s35.5 83.167 35.5 150.5v428h121v-428c0 -55.333 -6.66699 -102.166 -20 -140.499s-32.333 -69.666 -57 -93.999s-54 -42 -88 -53
s-72 -16.5 -114 -16.5c-91.333 0 -160.666 24.5 -207.999 73.5s-71 126.833 -71 233.5v425h120zM434.999 772.998h-109l-149 139h136z" />
    <glyph glyph-name="Uacute" unicode="&#xda;" horiz-adv-x="688" 
d="M185 714l-0.000976562 -428.002c0 -67.333 12.167 -117.5 36.5 -150.5s65.5 -49.5 123.5 -49.5c57.333 0 97.833 16.5 121.5 49.5s35.5 83.167 35.5 150.5v428h121v-428c0 -55.333 -6.66699 -102.166 -20 -140.499s-32.333 -69.666 -57 -93.999s-54 -42 -88 -53
s-72 -16.5 -114 -16.5c-91.333 0 -160.666 24.5 -207.999 73.5s-71 126.833 -71 233.5v425h120zM516.999 911.998l-149 -139h-109l123 139h135z" />
    <glyph glyph-name="Ucircumflex" unicode="&#xdb;" horiz-adv-x="688" 
d="M185 714l-0.000976562 -428.002c0 -67.333 12.167 -117.5 36.5 -150.5s65.5 -49.5 123.5 -49.5c57.333 0 97.833 16.5 121.5 49.5s35.5 83.167 35.5 150.5v428h121v-428c0 -55.333 -6.66699 -102.166 -20 -140.499s-32.333 -69.666 -57 -93.999s-54 -42 -88 -53
s-72 -16.5 -114 -16.5c-91.333 0 -160.666 24.5 -207.999 73.5s-71 126.833 -71 233.5v425h120zM399.999 911.998l118 -139h-101l-74 75l-74 -75h-101l118 139h114z" />
    <glyph glyph-name="Udieresis" unicode="&#xdc;" horiz-adv-x="688" 
d="M185 714l-0.000976562 -428.002c0 -67.333 12.167 -117.5 36.5 -150.5s65.5 -49.5 123.5 -49.5c57.333 0 97.833 16.5 121.5 49.5s35.5 83.167 35.5 150.5v428h121v-428c0 -55.333 -6.66699 -102.166 -20 -140.499s-32.333 -69.666 -57 -93.999s-54 -42 -88 -53
s-72 -16.5 -114 -16.5c-91.333 0 -160.666 24.5 -207.999 73.5s-71 126.833 -71 233.5v425h120zM495.999 901.998v-116h-112v116h112zM301.999 901.998v-116h-112v116h112z" />
    <glyph glyph-name="Yacute" unicode="&#xdd;" horiz-adv-x="635" 
d="M260 297l-248 417h135l172 -310l176 310h128l-243 -417v-297h-120v297zM493 912l-149 -139h-109l123 139h135z" />
    <glyph glyph-name="Thorn" unicode="&#xde;" horiz-adv-x="633" 
d="M322 239c30.667 0 55.834 3.00098 75.501 9.00098s35.167 14.5 46.5 25.5s19.166 24.167 23.499 39.5s6.5 32.666 6.5 51.999s-2.33301 36.5 -7 51.5s-12.667 27.5 -24 37.5s-27 17.667 -47 23s-45 8 -75 8h-126v-246h127zM195 714.001v-128h128
c53.333 0 97.5 -6 132.5 -18s62.667 -28 83 -48s34.5 -43.167 42.5 -69.5s12 -53.833 12 -82.5c0 -32 -4.33301 -62 -13 -90s-23.334 -52.333 -44.001 -73s-48.167 -37 -82.5 -49s-77.166 -18 -128.499 -18h-130v-138h-119v714h119z" />
    <glyph glyph-name="germandbls" unicode="&#xdf;" horiz-adv-x="590" 
d="M65 509c0 34 5.33105 64.166 15.998 90.499s25.667 48.666 45 66.999s42.5 32.166 69.5 41.499s56.5 14 88.5 14c68 0 121 -15.167 159 -45.5s57 -73.833 57 -130.5c0 -35.333 -7 -65.166 -21 -89.499s-36 -44.833 -66 -61.5c44 -11.333 78.667 -33 104 -65
s38 -75 38 -129c0 -63.333 -17 -113.5 -51 -150.5s-84.333 -56.833 -151 -59.5c-10 -0.666992 -20.333 -0.666992 -31 0c-15.333 0 -31 1.33301 -47 4s-30.333 6.33398 -43 11.001l17 86c7.33301 -3.33301 17.333 -6.16602 30 -8.49902s24.334 -3.5 35.001 -3.5
c48.667 0 82.334 10.5 101.001 31.5s28 53.167 28 96.5c0 46 -13.667 78.333 -41 97s-65.666 28 -114.999 28h-39v89h25c38 0 66.833 8.16699 86.5 24.5s29.5 45.833 29.5 88.5c0 28.667 -7.83301 52.5 -23.5 71.5s-41.834 28.5 -78.501 28.5c-43.333 0 -73 -13.5 -89 -40.5
s-24 -65.833 -24 -116.5v-478h-109v509z" />
    <glyph glyph-name="agrave" unicode="&#xe0;" horiz-adv-x="549" 
d="M305 243c-34 -2 -61.5 -5.66602 -82.5 -10.999s-37.167 -12.166 -48.5 -20.499s-18.833 -18 -22.5 -29s-5.5 -22.833 -5.5 -35.5c0 -22.667 7.16699 -40.334 21.5 -53.001s35.5 -19 63.5 -19c50 0 87 12.667 111 38s36 59.666 36 102.999v30zM380 68.001
c-19.333 -23.333 -43 -42.666 -71 -57.999s-62 -23 -102 -23c-24.667 0 -47.667 3.16699 -69 9.5s-39.833 15.833 -55.5 28.5s-28 28.834 -37 48.501s-13.5 42.834 -13.5 69.501c0 36 8 65.167 24 87.5s36.833 39.833 62.5 52.5s54.5 21.5 86.5 26.5s64 8.16699 96 9.5l77 4
v22c0 39.333 -9.5 66.5 -28.5 81.5s-43.833 22.5 -74.5 22.5c-35.333 0 -61.5 -6 -78.5 -18s-28.167 -29.333 -33.5 -52l-104 11c9.33301 50.667 32.333 87.667 69 111s87 35 151 35c41.333 0 75.5 -5.33301 102.5 -16s48.5 -25.334 64.5 -44.001
s27.167 -40.834 33.5 -66.501s9.5 -53.834 9.5 -84.501v-325h-109v68zM257 741.001l117 -148h-107l-143 148h133z" />
    <glyph glyph-name="aacute" unicode="&#xe1;" horiz-adv-x="549" 
d="M305 243c-34 -2 -61.5 -5.66602 -82.5 -10.999s-37.167 -12.166 -48.5 -20.499s-18.833 -18 -22.5 -29s-5.5 -22.833 -5.5 -35.5c0 -22.667 7.16699 -40.334 21.5 -53.001s35.5 -19 63.5 -19c50 0 87 12.667 111 38s36 59.666 36 102.999v30zM380 68.001
c-19.333 -23.333 -43 -42.666 -71 -57.999s-62 -23 -102 -23c-24.667 0 -47.667 3.16699 -69 9.5s-39.833 15.833 -55.5 28.5s-28 28.834 -37 48.501s-13.5 42.834 -13.5 69.501c0 36 8 65.167 24 87.5s36.833 39.833 62.5 52.5s54.5 21.5 86.5 26.5s64 8.16699 96 9.5l77 4
v22c0 39.333 -9.5 66.5 -28.5 81.5s-43.833 22.5 -74.5 22.5c-35.333 0 -61.5 -6 -78.5 -18s-28.167 -29.333 -33.5 -52l-104 11c9.33301 50.667 32.333 87.667 69 111s87 35 151 35c41.333 0 75.5 -5.33301 102.5 -16s48.5 -25.334 64.5 -44.001
s27.167 -40.834 33.5 -66.501s9.5 -53.834 9.5 -84.501v-325h-109v68zM442 741.001l-143 -148h-107l117 148h133z" />
    <glyph glyph-name="acircumflex" unicode="&#xe2;" horiz-adv-x="549" 
d="M305 243c-34 -2 -61.5 -5.66602 -82.5 -10.999s-37.167 -12.166 -48.5 -20.499s-18.833 -18 -22.5 -29s-5.5 -22.833 -5.5 -35.5c0 -22.667 7.16699 -40.334 21.5 -53.001s35.5 -19 63.5 -19c50 0 87 12.667 111 38s36 59.666 36 102.999v30zM380 68.001
c-19.333 -23.333 -43 -42.666 -71 -57.999s-62 -23 -102 -23c-24.667 0 -47.667 3.16699 -69 9.5s-39.833 15.833 -55.5 28.5s-28 28.834 -37 48.501s-13.5 42.834 -13.5 69.501c0 36 8 65.167 24 87.5s36.833 39.833 62.5 52.5s54.5 21.5 86.5 26.5s64 8.16699 96 9.5l77 4
v22c0 39.333 -9.5 66.5 -28.5 81.5s-43.833 22.5 -74.5 22.5c-35.333 0 -61.5 -6 -78.5 -18s-28.167 -29.333 -33.5 -52l-104 11c9.33301 50.667 32.333 87.667 69 111s87 35 151 35c41.333 0 75.5 -5.33301 102.5 -16s48.5 -25.334 64.5 -44.001
s27.167 -40.834 33.5 -66.501s9.5 -53.834 9.5 -84.501v-325h-109v68zM330 741.001l117 -148h-100l-74 85l-74 -85h-101l118 148h114z" />
    <glyph glyph-name="atilde" unicode="&#xe3;" horiz-adv-x="549" 
d="M305 243c-34 -2 -61.5 -5.66602 -82.5 -10.999s-37.167 -12.166 -48.5 -20.499s-18.833 -18 -22.5 -29s-5.5 -22.833 -5.5 -35.5c0 -22.667 7.16699 -40.334 21.5 -53.001s35.5 -19 63.5 -19c50 0 87 12.667 111 38s36 59.666 36 102.999v30zM380 68.001
c-19.333 -23.333 -43 -42.666 -71 -57.999s-62 -23 -102 -23c-24.667 0 -47.667 3.16699 -69 9.5s-39.833 15.833 -55.5 28.5s-28 28.834 -37 48.501s-13.5 42.834 -13.5 69.501c0 36 8 65.167 24 87.5s36.833 39.833 62.5 52.5s54.5 21.5 86.5 26.5s64 8.16699 96 9.5l77 4
v22c0 39.333 -9.5 66.5 -28.5 81.5s-43.833 22.5 -74.5 22.5c-35.333 0 -61.5 -6 -78.5 -18s-28.167 -29.333 -33.5 -52l-104 11c9.33301 50.667 32.333 87.667 69 111s87 35 151 35c41.333 0 75.5 -5.33301 102.5 -16s48.5 -25.334 64.5 -44.001
s27.167 -40.834 33.5 -66.501s9.5 -53.834 9.5 -84.501v-325h-109v68zM90 603.001c0 44 9.83398 76.666 29.501 97.999s46.834 32 81.501 32c12 0 23.667 -2.5 35 -7.5s22.5 -10.5 33.5 -16.5s21.833 -11.5 32.5 -16.5s21.667 -7.5 33 -7.5c28 0 42 15 42 45h79
c0 -45.333 -9.83301 -78.166 -29.5 -98.499s-46.5 -30.5 -80.5 -30.5c-12.667 0 -24.667 2 -36 6s-22 8.66699 -32 14l-29 17c-6.66699 3.33301 -12.834 6 -18.501 8s-11.834 3 -18.501 3c-28.667 0 -43 -15.333 -43 -46h-79z" />
    <glyph glyph-name="adieresis" unicode="&#xe4;" horiz-adv-x="549" 
d="M305 243c-34 -2 -61.5 -5.66602 -82.5 -10.999s-37.167 -12.166 -48.5 -20.499s-18.833 -18 -22.5 -29s-5.5 -22.833 -5.5 -35.5c0 -22.667 7.16699 -40.334 21.5 -53.001s35.5 -19 63.5 -19c50 0 87 12.667 111 38s36 59.666 36 102.999v30zM380 68.001
c-19.333 -23.333 -43 -42.666 -71 -57.999s-62 -23 -102 -23c-24.667 0 -47.667 3.16699 -69 9.5s-39.833 15.833 -55.5 28.5s-28 28.834 -37 48.501s-13.5 42.834 -13.5 69.501c0 36 8 65.167 24 87.5s36.833 39.833 62.5 52.5s54.5 21.5 86.5 26.5s64 8.16699 96 9.5l77 4
v22c0 39.333 -9.5 66.5 -28.5 81.5s-43.833 22.5 -74.5 22.5c-35.333 0 -61.5 -6 -78.5 -18s-28.167 -29.333 -33.5 -52l-104 11c9.33301 50.667 32.333 87.667 69 111s87 35 151 35c41.333 0 75.5 -5.33301 102.5 -16s48.5 -25.334 64.5 -44.001
s27.167 -40.834 33.5 -66.501s9.5 -53.834 9.5 -84.501v-325h-109v68zM422 724.001v-112h-109v112h109zM233 724.001v-112h-109v112h109z" />
    <glyph glyph-name="aring" unicode="&#xe5;" horiz-adv-x="549" 
d="M305 243c-34 -2 -61.5 -5.66602 -82.5 -10.999s-37.167 -12.166 -48.5 -20.499s-18.833 -18 -22.5 -29s-5.5 -22.833 -5.5 -35.5c0 -22.667 7.16699 -40.334 21.5 -53.001s35.5 -19 63.5 -19c50 0 87 12.667 111 38s36 59.666 36 102.999v30zM380 68.001
c-19.333 -23.333 -43 -42.666 -71 -57.999s-62 -23 -102 -23c-24.667 0 -47.667 3.16699 -69 9.5s-39.833 15.833 -55.5 28.5s-28 28.834 -37 48.501s-13.5 42.834 -13.5 69.501c0 36 8 65.167 24 87.5s36.833 39.833 62.5 52.5s54.5 21.5 86.5 26.5s64 8.16699 96 9.5l77 4
v22c0 39.333 -9.5 66.5 -28.5 81.5s-43.833 22.5 -74.5 22.5c-35.333 0 -61.5 -6 -78.5 -18s-28.167 -29.333 -33.5 -52l-104 11c9.33301 50.667 32.333 87.667 69 111s87 35 151 35c41.333 0 75.5 -5.33301 102.5 -16s48.5 -25.334 64.5 -44.001
s27.167 -40.834 33.5 -66.501s9.5 -53.834 9.5 -84.501v-325h-109v68zM273 646.001c13.333 0 24.167 4 32.5 12s12.5 20.333 12.5 37s-4 29 -12 37s-19 12 -33 12c-30.667 0 -46 -16.333 -46 -49s15.333 -49 46 -49zM164.001 695.001
c0 17.333 2.83203 32.665 8.49902 45.998s13.5 24.5 23.5 33.5s21.667 15.833 35 20.5s27.333 7 42 7c30 0 55.667 -9.5 77 -28.5s32 -45.167 32 -78.5c0 -19.333 -3.16699 -35.666 -9.5 -48.999s-14.666 -24.166 -24.999 -32.499s-22 -14.5 -35 -18.5s-26.167 -6 -39.5 -6
c-30.667 0 -56.5 8.66699 -77.5 26s-31.5 44 -31.5 80z" />
    <glyph glyph-name="ae" unicode="&#xe6;" horiz-adv-x="895" 
d="M738 311c0 42.667 -9.83398 76.332 -29.501 100.999s-50.5 37 -92.5 37s-73.667 -12.667 -95 -38s-33.666 -58.666 -36.999 -99.999h254zM298.999 242.998c-33.333 -2 -59.999 -5.66699 -79.999 -11s-35.333 -12 -46 -20s-17.834 -17.5 -21.501 -28.5
s-5.5 -23.167 -5.5 -36.5c0 -23.333 7.16699 -41.166 21.5 -53.499s34.833 -18.5 61.5 -18.5c46 0 81.333 12.167 106 36.5s37 58.166 37 101.499v33zM59 389.998c9.33301 50.667 32.334 87.6689 69.001 111.002s86 35 148 35c41.333 0 75.333 -6.66699 102 -20
s48.667 -36 66 -68c23.333 32 49.666 54.667 78.999 68s61 20 95 20c39.333 0 73.5 -6.16699 102.5 -18.5s53 -29.666 72 -51.999s33.167 -49 42.5 -80s14 -65.5 14 -103.5v-50h-367c1.33301 -46.667 13.166 -84.834 35.499 -114.501s55.833 -44.5 100.5 -44.5
c34 0 60 7 78 21s30 34 36 60h110c-10 -56 -33.167 -98.333 -69.5 -127s-87.833 -43 -154.5 -43c-44 0 -83.5 8.83301 -118.5 26.5s-61.833 44.5 -80.5 80.5c-9.33301 -13.333 -20 -26.333 -32 -39s-26 -23.834 -42 -33.501s-34.5 -17.334 -55.5 -23.001
s-44.5 -8.5 -70.5 -8.5c-56 0 -101.167 12.5 -135.5 37.5s-51.5 64.5 -51.5 118.5c0 36 8 65.333 24 88s36.667 40.167 62 52.5s53.5 21 84.5 26s61.833 8.16699 92.5 9.5l77 4v22c0 40 -9.16699 67.333 -27.5 82s-42.5 22 -72.5 22c-53.333 0 -86.333 -17.333 -99 -52
c-33.333 -2 -65.666 -5 -96.999 -9z" />
    <glyph glyph-name="ccedilla" unicode="&#xe7;" horiz-adv-x="564" 
d="M194 -147l20.998 -1.99512c6.66699 -0.666992 13 -1.33398 19 -2.00098c22 0 35.667 4 41 12c20.667 1.33301 30.334 9 29.001 23c-1.33301 9.33301 -6.66602 16 -15.999 20s-24.666 6 -45.999 6h-29l29 78c-67.333 10.667 -116.666 39.667 -147.999 87
s-47 108.333 -47 183c0 41.333 5.66699 79.166 17 113.499s27.833 63.666 49.5 87.999s48.167 43.166 79.5 56.499s67 20 107 20c35.333 0 65.666 -4.66699 90.999 -14s46.5 -22 63.5 -38s30.333 -34.667 40 -56s16.5 -44.333 20.5 -69l-113 -17
c-5.33301 29.333 -15.5 53.666 -30.5 72.999s-40.167 29 -75.5 29c-25.333 0 -46.5 -5.33301 -63.5 -16s-30.5 -24.667 -40.5 -42s-17 -36.833 -21 -58.5s-6 -43.834 -6 -66.501c0 -26 2.16699 -50.333 6.5 -73s11.666 -42.167 21.999 -58.5s23.833 -29.333 40.5 -39
s37 -14.5 61 -14.5c34.667 0 60.834 9.16699 78.501 27.5s29.167 44.5 34.5 78.5h115c-7.33301 -60.667 -28.333 -108 -63 -142s-85.334 -52.333 -152.001 -55l-11 -33c32.667 -3.33301 55.167 -11.666 67.5 -24.999s19.833 -29 22.5 -47v-15
c-2 -30 -15.833 -50.333 -41.5 -61s-59.167 -16 -100.5 -16c-8.66699 0 -17.5 0.5 -26.5 1.5l-30.5 3.5v61z" />
    <glyph glyph-name="egrave" unicode="&#xe8;" horiz-adv-x="580" 
d="M527 154c-9.33301 -54 -32.3291 -95.8379 -68.9961 -125.505s-89.334 -44.5 -158.001 -44.5c-82.667 0 -145.5 23.833 -188.5 71.5s-64.5 114.834 -64.5 201.501c0 44.667 6.16699 84.334 18.5 119.001s29.666 63.834 51.999 87.501s49 41.667 80 54
s65.167 18.5 102.5 18.5c40 0 74.667 -6.16699 104 -18.5s53.666 -29.666 72.999 -51.999s33.666 -49 42.999 -80s14 -65.5 14 -103.5v-50h-373c1.33301 -47.333 13.333 -85.666 36 -114.999s57 -44 103 -44c36 0 63 7 81 21s30 34 36 60h110zM423.004 310.995
c0 42.667 -10 76.333 -30 101s-52 37 -96 37c-42 0 -74 -12.5 -96 -37.5s-34.667 -58.5 -38 -100.5h260zM273.004 740.994l117 -148h-107l-143 148h133z" />
    <glyph glyph-name="eacute" unicode="&#xe9;" horiz-adv-x="580" 
d="M527 154c-9.33301 -54 -32.3291 -95.8379 -68.9961 -125.505s-89.334 -44.5 -158.001 -44.5c-82.667 0 -145.5 23.833 -188.5 71.5s-64.5 114.834 -64.5 201.501c0 44.667 6.16699 84.334 18.5 119.001s29.666 63.834 51.999 87.501s49 41.667 80 54
s65.167 18.5 102.5 18.5c40 0 74.667 -6.16699 104 -18.5s53.666 -29.666 72.999 -51.999s33.666 -49 42.999 -80s14 -65.5 14 -103.5v-50h-373c1.33301 -47.333 13.333 -85.666 36 -114.999s57 -44 103 -44c36 0 63 7 81 21s30 34 36 60h110zM423.004 310.995
c0 42.667 -10 76.333 -30 101s-52 37 -96 37c-42 0 -74 -12.5 -96 -37.5s-34.667 -58.5 -38 -100.5h260zM461.004 740.994l-143 -148h-107l117 148h133z" />
    <glyph glyph-name="ecircumflex" unicode="&#xea;" horiz-adv-x="580" 
d="M527 154c-9.33301 -54 -32.3291 -95.8379 -68.9961 -125.505s-89.334 -44.5 -158.001 -44.5c-82.667 0 -145.5 23.833 -188.5 71.5s-64.5 114.834 -64.5 201.501c0 44.667 6.16699 84.334 18.5 119.001s29.666 63.834 51.999 87.501s49 41.667 80 54
s65.167 18.5 102.5 18.5c40 0 74.667 -6.16699 104 -18.5s53.666 -29.666 72.999 -51.999s33.666 -49 42.999 -80s14 -65.5 14 -103.5v-50h-373c1.33301 -47.333 13.333 -85.666 36 -114.999s57 -44 103 -44c36 0 63 7 81 21s30 34 36 60h110zM423.004 310.995
c0 42.667 -10 76.333 -30 101s-52 37 -96 37c-42 0 -74 -12.5 -96 -37.5s-34.667 -58.5 -38 -100.5h260zM354.004 740.994l117 -148h-100l-74 85l-74 -85h-101l118 148h114z" />
    <glyph glyph-name="edieresis" unicode="&#xeb;" horiz-adv-x="580" 
d="M527 154c-9.33301 -54 -32.3291 -95.8379 -68.9961 -125.505s-89.334 -44.5 -158.001 -44.5c-82.667 0 -145.5 23.833 -188.5 71.5s-64.5 114.834 -64.5 201.501c0 44.667 6.16699 84.334 18.5 119.001s29.666 63.834 51.999 87.501s49 41.667 80 54
s65.167 18.5 102.5 18.5c40 0 74.667 -6.16699 104 -18.5s53.666 -29.666 72.999 -51.999s33.666 -49 42.999 -80s14 -65.5 14 -103.5v-50h-373c1.33301 -47.333 13.333 -85.666 36 -114.999s57 -44 103 -44c36 0 63 7 81 21s30 34 36 60h110zM423.004 310.995
c0 42.667 -10 76.333 -30 101s-52 37 -96 37c-42 0 -74 -12.5 -96 -37.5s-34.667 -58.5 -38 -100.5h260zM446.004 723.994v-112h-109v112h109zM257.004 723.994v-112h-109v112h109z" />
    <glyph glyph-name="igrave" unicode="&#xec;" horiz-adv-x="246" 
d="M180 520v-520h-114v520h114zM79 741l117 -148h-107l-143 148h133z" />
    <glyph glyph-name="iacute" unicode="&#xed;" horiz-adv-x="246" 
d="M180 520v-520h-114v520h114zM304 741l-143 -148h-107l117 148h133z" />
    <glyph glyph-name="icircumflex" unicode="&#xee;" horiz-adv-x="246" 
d="M180 520v-520h-114v520h114zM180 741l117 -148h-100l-74 85l-74 -85h-101l118 148h114z" />
    <glyph glyph-name="idieresis" unicode="&#xef;" horiz-adv-x="246" 
d="M180 520v-520h-114v520h114zM272 724v-112h-109v112h109zM83 724v-112h-109v112h109z" />
    <glyph glyph-name="eth" unicode="&#xf0;" horiz-adv-x="609" 
d="M443 247c0 30 -4 54.832 -12 74.499s-18.833 35.334 -32.5 47.001s-29.167 19.834 -46.5 24.501s-35.333 7 -54 7c-41.333 0 -73.833 -15 -97.5 -45s-35.5 -69 -35.5 -117c0 -48.667 11.833 -87.834 35.5 -117.501s58.167 -44.5 103.5 -44.5c44.667 0 79 15 103 45
s36 70 36 120v6zM233 629.999c-15.333 4.66699 -31.501 8.33301 -48.501 11s-34.833 4.66699 -53.5 6l17 88c29.333 -3.33301 56.833 -7.5 82.5 -12.5s50.834 -11.5 75.501 -19.5l62 61l46 -48l-42 -42c62.667 -34 109.834 -82.833 141.501 -146.5
s47.5 -145.834 47.5 -246.501c0 -50 -6.66699 -93.667 -20 -131s-31.5 -68.166 -54.5 -92.499s-50.167 -42.666 -81.5 -54.999s-65.333 -18.5 -102 -18.5c-40.667 0 -76.834 6.16699 -108.501 18.5s-58.5 29.666 -80.5 51.999s-38.667 49 -50 80s-17 65.167 -17 102.5
c0 38.667 6.33301 73.667 19 105s29.667 58.166 51 80.499s46.5 39.5 75.5 51.5s60.167 18 93.5 18c35.333 0 65.5 -5.66699 90.5 -17s46.833 -28.333 65.5 -51c-8.66699 40.667 -23.5 76.334 -44.5 107.001s-52.167 55.667 -93.5 75l-74 -74l-47 49z" />
    <glyph glyph-name="ntilde" unicode="&#xf1;" horiz-adv-x="581" 
d="M175 520v-76c23.333 32 49.5 55.333 78.5 70s60.167 22 93.5 22c116 0 174 -64 174 -192v-344h-114v326c0 42 -7.66699 71.5 -23 88.5s-38 25.5 -68 25.5c-20 0 -38.5 -3.5 -55.5 -10.5s-31.5 -16.5 -43.5 -28.5s-21.5 -25.833 -28.5 -41.5s-10.5 -32.167 -10.5 -49.5
v-310h-113v520h110zM110 603c0 44 9.83398 76.666 29.501 97.999s46.834 32 81.501 32c12 0 23.667 -2.5 35 -7.5s22.5 -10.5 33.5 -16.5s21.833 -11.5 32.5 -16.5s21.667 -7.5 33 -7.5c28 0 42 15 42 45h79c0 -45.333 -9.83301 -78.166 -29.5 -98.499
s-46.5 -30.5 -80.5 -30.5c-12.667 0 -24.667 2 -36 6s-22 8.66699 -32 14l-29 17c-6.66699 3.33301 -12.834 6 -18.501 8s-11.834 3 -18.501 3c-28.667 0 -43 -15.333 -43 -46h-79z" />
    <glyph glyph-name="ograve" unicode="&#xf2;" horiz-adv-x="609" 
d="M304 76c48 0 83.167 16.499 105.5 49.499s33.5 78.167 33.5 135.5c0 56.667 -11.167 101.334 -33.5 134.001s-57.5 49 -105.5 49s-83.167 -16.5 -105.5 -49.5s-33.5 -77.5 -33.5 -133.5c0 -56.667 10.833 -101.667 32.5 -135s57.167 -50 106.5 -50zM303 -16.001
c-81.333 0 -144.333 23.999 -189 71.999s-67 116 -67 204c0 41.333 5.83301 79 17.5 113s28.5 63 50.5 87s49 42.667 81 56s68.333 20 109 20c41.333 0 78 -6.83301 110 -20.5s58.833 -32.5 80.5 -56.5s38 -52.833 49 -86.5s16.5 -70.5 16.5 -110.5
c0 -45.333 -6.33301 -85.166 -19 -119.499s-30.5 -63.333 -53.5 -87s-50.167 -41.5 -81.5 -53.5s-66 -18 -104 -18zM284 740.998l117 -148h-107l-143 148h133z" />
    <glyph glyph-name="oacute" unicode="&#xf3;" horiz-adv-x="609" 
d="M304 76c48 0 83.167 16.499 105.5 49.499s33.5 78.167 33.5 135.5c0 56.667 -11.167 101.334 -33.5 134.001s-57.5 49 -105.5 49s-83.167 -16.5 -105.5 -49.5s-33.5 -77.5 -33.5 -133.5c0 -56.667 10.833 -101.667 32.5 -135s57.167 -50 106.5 -50zM303 -16.001
c-81.333 0 -144.333 23.999 -189 71.999s-67 116 -67 204c0 41.333 5.83301 79 17.5 113s28.5 63 50.5 87s49 42.667 81 56s68.333 20 109 20c41.333 0 78 -6.83301 110 -20.5s58.833 -32.5 80.5 -56.5s38 -52.833 49 -86.5s16.5 -70.5 16.5 -110.5
c0 -45.333 -6.33301 -85.166 -19 -119.499s-30.5 -63.333 -53.5 -87s-50.167 -41.5 -81.5 -53.5s-66 -18 -104 -18zM469 740.998l-143 -148h-107l117 148h133z" />
    <glyph glyph-name="ocircumflex" unicode="&#xf4;" horiz-adv-x="609" 
d="M304 76c48 0 83.167 16.499 105.5 49.499s33.5 78.167 33.5 135.5c0 56.667 -11.167 101.334 -33.5 134.001s-57.5 49 -105.5 49s-83.167 -16.5 -105.5 -49.5s-33.5 -77.5 -33.5 -133.5c0 -56.667 10.833 -101.667 32.5 -135s57.167 -50 106.5 -50zM303 -16.001
c-81.333 0 -144.333 23.999 -189 71.999s-67 116 -67 204c0 41.333 5.83301 79 17.5 113s28.5 63 50.5 87s49 42.667 81 56s68.333 20 109 20c41.333 0 78 -6.83301 110 -20.5s58.833 -32.5 80.5 -56.5s38 -52.833 49 -86.5s16.5 -70.5 16.5 -110.5
c0 -45.333 -6.33301 -85.166 -19 -119.499s-30.5 -63.333 -53.5 -87s-50.167 -41.5 -81.5 -53.5s-66 -18 -104 -18zM361 740.998l117 -148h-100l-74 85l-74 -85h-101l118 148h114z" />
    <glyph glyph-name="otilde" unicode="&#xf5;" horiz-adv-x="609" 
d="M304 76c48 0 83.167 16.499 105.5 49.499s33.5 78.167 33.5 135.5c0 56.667 -11.167 101.334 -33.5 134.001s-57.5 49 -105.5 49s-83.167 -16.5 -105.5 -49.5s-33.5 -77.5 -33.5 -133.5c0 -56.667 10.833 -101.667 32.5 -135s57.167 -50 106.5 -50zM303 -16.001
c-81.333 0 -144.333 23.999 -189 71.999s-67 116 -67 204c0 41.333 5.83301 79 17.5 113s28.5 63 50.5 87s49 42.667 81 56s68.333 20 109 20c41.333 0 78 -6.83301 110 -20.5s58.833 -32.5 80.5 -56.5s38 -52.833 49 -86.5s16.5 -70.5 16.5 -110.5
c0 -45.333 -6.33301 -85.166 -19 -119.499s-30.5 -63.333 -53.5 -87s-50.167 -41.5 -81.5 -53.5s-66 -18 -104 -18zM121 602.998c0 44 9.83398 76.666 29.501 97.999s46.834 32 81.501 32c12 0 23.667 -2.5 35 -7.5s22.5 -10.5 33.5 -16.5s21.833 -11.5 32.5 -16.5
s21.667 -7.5 33 -7.5c28 0 42 15 42 45h79c0 -45.333 -9.83301 -78.166 -29.5 -98.499s-46.5 -30.5 -80.5 -30.5c-12.667 0 -24.667 2 -36 6s-22 8.66699 -32 14l-29 17c-6.66699 3.33301 -12.834 6 -18.501 8s-11.834 3 -18.501 3c-28.667 0 -43 -15.333 -43 -46h-79z" />
    <glyph glyph-name="odieresis" unicode="&#xf6;" horiz-adv-x="609" 
d="M304 76c48 0 83.167 16.499 105.5 49.499s33.5 78.167 33.5 135.5c0 56.667 -11.167 101.334 -33.5 134.001s-57.5 49 -105.5 49s-83.167 -16.5 -105.5 -49.5s-33.5 -77.5 -33.5 -133.5c0 -56.667 10.833 -101.667 32.5 -135s57.167 -50 106.5 -50zM303 -16.001
c-81.333 0 -144.333 23.999 -189 71.999s-67 116 -67 204c0 41.333 5.83301 79 17.5 113s28.5 63 50.5 87s49 42.667 81 56s68.333 20 109 20c41.333 0 78 -6.83301 110 -20.5s58.833 -32.5 80.5 -56.5s38 -52.833 49 -86.5s16.5 -70.5 16.5 -110.5
c0 -45.333 -6.33301 -85.166 -19 -119.499s-30.5 -63.333 -53.5 -87s-50.167 -41.5 -81.5 -53.5s-66 -18 -104 -18zM453 723.998v-112h-109v112h109zM264 723.998v-112h-109v112h109z" />
    <glyph glyph-name="divide" unicode="&#xf7;" 
d="M514 390v-99h-436v99h436zM349 213v-120h-108v120h108zM349 583v-120h-108v120h108z" />
    <glyph glyph-name="oslash" unicode="&#xf8;" horiz-adv-x="609" 
d="M375 426c-10 5.33301 -20.667 9.66797 -32 13.001s-24.333 5 -39 5c-48.667 0 -84 -16.5 -106 -49.5s-33 -77.5 -33 -133.5c0 -22.667 1.66699 -43.334 5 -62.001s9.33301 -35.667 18 -51zM233 93.002c9.33301 -5.33301 19.668 -9.5 31.001 -12.5
s24.666 -4.5 39.999 -4.5c48 0 83.167 16.667 105.5 50s33.5 78.333 33.5 135c0 20.667 -1.83301 40.667 -5.5 60s-9.16699 36.333 -16.5 51zM121.002 49.002c-49.333 48 -73.998 118.333 -73.998 211c0 42 6 80 18 114s29 63 51 87s49 42.5 81 55.5s68 19.5 108 19.5
c44.667 0 86.667 -9.33301 126 -28l43 64l56 -38l-44 -65c24 -24 42.5 -53.5 55.5 -88.5s19.5 -74.5 19.5 -118.5s-6.33301 -83.333 -19 -118s-30.334 -63.834 -53.001 -87.501s-49.834 -41.667 -81.501 -54s-66.5 -18.5 -104.5 -18.5c-24 0 -46.5 2.33301 -67.5 7
s-40.833 11.334 -59.5 20.001l-47 -71l-56 38z" />
    <glyph glyph-name="ugrave" unicode="&#xf9;" horiz-adv-x="574" 
d="M174 520l0.000976562 -327c0 -43.333 7.16699 -73 21.5 -89s36.166 -24 65.499 -24c16 0 32.167 3 48.5 9s30.833 14.667 43.5 26s23 25 31 41s12 34 12 54v310h114v-520h-111v76c-24 -32 -50 -55.333 -78 -70s-58 -22 -90 -22c-60.667 0 -104.167 15.667 -130.5 47
s-39.5 79.333 -39.5 144v345h113zM262.001 741l117 -148h-107l-143 148h133z" />
    <glyph glyph-name="uacute" unicode="&#xfa;" horiz-adv-x="574" 
d="M174 520l0.000976562 -327c0 -43.333 7.16699 -73 21.5 -89s36.166 -24 65.499 -24c16 0 32.167 3 48.5 9s30.833 14.667 43.5 26s23 25 31 41s12 34 12 54v310h114v-520h-111v76c-24 -32 -50 -55.333 -78 -70s-58 -22 -90 -22c-60.667 0 -104.167 15.667 -130.5 47
s-39.5 79.333 -39.5 144v345h113zM450.001 741l-143 -148h-107l117 148h133z" />
    <glyph glyph-name="ucircumflex" unicode="&#xfb;" horiz-adv-x="574" 
d="M174 520l0.000976562 -327c0 -43.333 7.16699 -73 21.5 -89s36.166 -24 65.499 -24c16 0 32.167 3 48.5 9s30.833 14.667 43.5 26s23 25 31 41s12 34 12 54v310h114v-520h-111v76c-24 -32 -50 -55.333 -78 -70s-58 -22 -90 -22c-60.667 0 -104.167 15.667 -130.5 47
s-39.5 79.333 -39.5 144v345h113zM344.001 741l117 -148h-100l-74 85l-74 -85h-101l118 148h114z" />
    <glyph glyph-name="udieresis" unicode="&#xfc;" horiz-adv-x="574" 
d="M174 520l0.000976562 -327c0 -43.333 7.16699 -73 21.5 -89s36.166 -24 65.499 -24c16 0 32.167 3 48.5 9s30.833 14.667 43.5 26s23 25 31 41s12 34 12 54v310h114v-520h-111v76c-24 -32 -50 -55.333 -78 -70s-58 -22 -90 -22c-60.667 0 -104.167 15.667 -130.5 47
s-39.5 79.333 -39.5 144v345h113zM435.001 724v-112h-109v112h109zM246.001 724v-112h-109v112h109z" />
    <glyph glyph-name="yacute" unicode="&#xfd;" horiz-adv-x="545" 
d="M71 -92c16.667 -6 35.667 -9 57 -9c20 0 35.667 4.83301 47 14.5s22 27.834 32 54.501l19 50l-219 502h132l143 -375l131 375h124l-207 -525c-12 -30.667 -23.333 -57.667 -34 -81s-22.667 -43 -36 -59s-29.166 -28.167 -47.499 -36.5s-40.833 -12.5 -67.5 -12.5
c-17.333 0 -33.333 1.16699 -48 3.5s-30.334 6.16602 -47.001 11.499zM434 741l-143 -148h-107l117 148h133z" />
    <glyph glyph-name="thorn" unicode="&#xfe;" horiz-adv-x="610" 
d="M177 243c0.666992 -33.333 4.83398 -60.665 12.501 -81.998s17.667 -38.333 30 -51s26.5 -21.334 42.5 -26.001s32.667 -7 50 -7c18.667 0 36 3.33301 52 10s30 17.167 42 31.5s21.333 33.166 28 56.499s10 52 10 86c0 32.667 -3.5 60.5 -10.5 83.5
s-16.167 41.667 -27.5 56s-24.833 24.833 -40.5 31.5s-31.834 10 -48.501 10c-24.667 0 -45.834 -4 -63.501 -12s-32.167 -19.333 -43.5 -34s-19.666 -32.167 -24.999 -52.5s-8 -42.833 -8 -67.5v-25v-8zM178 714.001l-0.000976562 -261.999
c20.667 27.333 44.834 48.166 72.501 62.499s58.834 21.5 93.501 21.5c37.333 0 69.666 -6.66699 96.999 -20s50 -32 68 -56s31.5 -52.833 40.5 -86.5s13.5 -70.834 13.5 -111.501c0 -42.667 -5.33301 -81.167 -16 -115.5s-26 -63.5 -46 -87.5s-44 -42.5 -72 -55.5
s-59.333 -19.5 -94 -19.5c-30 0 -58.167 5.33301 -84.5 16s-50.5 30.334 -72.5 59.001v-253h-113v908h113z" />
    <glyph glyph-name="ydieresis" unicode="&#xff;" horiz-adv-x="545" 
d="M71 -92c16.667 -6 35.667 -9 57 -9c20 0 35.667 4.83301 47 14.5s22 27.834 32 54.501l19 50l-219 502h132l143 -375l131 375h124l-207 -525c-12 -30.667 -23.333 -57.667 -34 -81s-22.667 -43 -36 -59s-29.166 -28.167 -47.499 -36.5s-40.833 -12.5 -67.5 -12.5
c-17.333 0 -33.333 1.16699 -48 3.5s-30.334 6.16602 -47.001 11.499zM422 724v-112h-109v112h109zM233 724v-112h-109v112h109z" />
    <glyph glyph-name="Amacron" unicode="&#x100;" horiz-adv-x="686" 
d="M283 714h120l272 -714h-129l-67 182h-277l-66 -182h-125zM446 283l-106 294l-105 -294h211zM493 885v-92h-301v92h301z" />
    <glyph glyph-name="amacron" unicode="&#x101;" horiz-adv-x="549" 
d="M305 243c-34 -2 -61.5 -5.66602 -82.5 -10.999s-37.167 -12.166 -48.5 -20.499s-18.833 -18 -22.5 -29s-5.5 -22.833 -5.5 -35.5c0 -22.667 7.16699 -40.334 21.5 -53.001s35.5 -19 63.5 -19c50 0 87 12.667 111 38s36 59.666 36 102.999v30zM380 68.001
c-19.333 -23.333 -43 -42.666 -71 -57.999s-62 -23 -102 -23c-24.667 0 -47.667 3.16699 -69 9.5s-39.833 15.833 -55.5 28.5s-28 28.834 -37 48.501s-13.5 42.834 -13.5 69.501c0 36 8 65.167 24 87.5s36.833 39.833 62.5 52.5s54.5 21.5 86.5 26.5s64 8.16699 96 9.5l77 4
v22c0 39.333 -9.5 66.5 -28.5 81.5s-43.833 22.5 -74.5 22.5c-35.333 0 -61.5 -6 -78.5 -18s-28.167 -29.333 -33.5 -52l-104 11c9.33301 50.667 32.333 87.667 69 111s87 35 151 35c41.333 0 75.5 -5.33301 102.5 -16s48.5 -25.334 64.5 -44.001
s27.167 -40.834 33.5 -66.501s9.5 -53.834 9.5 -84.501v-325h-109v68zM407 706.001v-89h-276v89h276z" />
    <glyph glyph-name="Abreve" unicode="&#x102;" horiz-adv-x="686" 
d="M283 714h120l272 -714h-129l-67 182h-277l-66 -182h-125zM446 283l-106 294l-105 -294h211zM277 919c0 -26.667 6.49805 -45.667 19.498 -57s28.167 -17 45.5 -17s32.333 5.5 45 16.5s19 30.167 19 57.5h86c0 -49.333 -13.667 -86 -41 -110s-63.666 -36 -108.999 -36
c-47.333 0 -84.166 12.333 -110.499 37s-39.5 61 -39.5 109h85z" />
    <glyph glyph-name="abreve" unicode="&#x103;" horiz-adv-x="549" 
d="M305 243c-34 -2 -61.5 -5.66602 -82.5 -10.999s-37.167 -12.166 -48.5 -20.499s-18.833 -18 -22.5 -29s-5.5 -22.833 -5.5 -35.5c0 -22.667 7.16699 -40.334 21.5 -53.001s35.5 -19 63.5 -19c50 0 87 12.667 111 38s36 59.666 36 102.999v30zM380 68.001
c-19.333 -23.333 -43 -42.666 -71 -57.999s-62 -23 -102 -23c-24.667 0 -47.667 3.16699 -69 9.5s-39.833 15.833 -55.5 28.5s-28 28.834 -37 48.501s-13.5 42.834 -13.5 69.501c0 36 8 65.167 24 87.5s36.833 39.833 62.5 52.5s54.5 21.5 86.5 26.5s64 8.16699 96 9.5l77 4
v22c0 39.333 -9.5 66.5 -28.5 81.5s-43.833 22.5 -74.5 22.5c-35.333 0 -61.5 -6 -78.5 -18s-28.167 -29.333 -33.5 -52l-104 11c9.33301 50.667 32.333 87.667 69 111s87 35 151 35c41.333 0 75.5 -5.33301 102.5 -16s48.5 -25.334 64.5 -44.001
s27.167 -40.834 33.5 -66.501s9.5 -53.834 9.5 -84.501v-325h-109v68zM208 738.001c0 -27.333 6.33301 -46.666 19 -57.999s27.667 -17 45 -17c16.667 0 31.334 5.66699 44.001 17s19 30.666 19 57.999h84c0 -49.333 -13.333 -86.333 -40 -111s-62.334 -37 -107.001 -37
c-46 0 -81.667 12.5 -107 37.5s-38 61.833 -38 110.5h81z" />
    <glyph glyph-name="Aogonek" unicode="&#x104;" horiz-adv-x="686" 
d="M340 577l-105 -294h211zM403 714l271.999 -713.999c-18.667 -11.333 -34.334 -23.333 -47.001 -36s-19.667 -25.667 -21 -39c-2 -12 -0.333008 -21 5 -27c5.33301 -11.333 16.333 -17 33 -17c5.33301 0 9.83301 0.166992 13.5 0.5s9.16699 1.16602 16.5 2.49902v-75
c-7.33301 -1.33301 -14.166 -2 -20.499 -2h-20.5c-40.667 0 -70.5 5.16699 -89.5 15.5s-30.833 25.833 -35.5 46.5c-2 8 -3 15.667 -3 23c0 20.667 6.33301 39.5 19 56.5s31.334 34.167 56.001 51.5h-35l-67 182h-277l-66 -182h-125l272 714h120z" />
    <glyph glyph-name="aogonek" unicode="&#x105;" horiz-adv-x="549" 
d="M305 243c-34 -2 -61.5 -5.66602 -82.5 -10.999s-37.167 -12.166 -48.5 -20.499s-18.833 -18 -22.5 -29s-5.5 -22.833 -5.5 -35.5c0 -22.667 7.16699 -40.334 21.5 -53.001s35.5 -19 63.5 -19c50 0 87 12.667 111 38s36 59.666 36 102.999v30zM374 61.001
c-20 -21.333 -43.1719 -38.998 -69.5049 -52.998s-58.833 -21 -97.5 -21c-24.667 0 -47.667 3.16699 -69 9.5s-39.833 15.833 -55.5 28.5s-28 28.834 -37 48.501s-13.5 42.834 -13.5 69.501c0 36 8 65.167 24 87.5s36.667 39.833 62 52.5s54.166 21.5 86.499 26.5
s64.5 8.16699 96.5 9.5l77 4v22c0 38.667 -9.16699 65.667 -27.5 81s-43.5 23 -75.5 23c-35.333 0 -61.5 -6 -78.5 -18s-28.167 -29.333 -33.5 -52l-104 11c9.33301 50.667 32.333 87.667 69 111s87 35 151 35c39.333 0 72.333 -4.83301 99 -14.5
s48.334 -23.334 65.001 -41.001s28.5 -39 35.5 -64s10.5 -52.833 10.5 -83.5v-333c-19.333 -11.333 -35.166 -23.666 -47.499 -36.999s-19.166 -27 -20.499 -41c0 -6.66699 0.333008 -11.334 1 -14.001c2.66699 -7.33301 6.83398 -12.666 12.501 -15.999
s12.167 -5.33301 19.5 -6c3.33301 -0.666992 6.33301 -0.833984 9 -0.500977s5.33398 0.5 8.00098 0.5c2 0 4.5 0.166992 7.5 0.5s6.16699 0.5 9.5 0.5v-72c-5.33301 -0.666992 -10.166 -1.16699 -14.499 -1.5s-8.83301 -0.5 -13.5 -0.5h-18c-6 0 -12.667 0.333008 -20 1
c-30.667 1.33301 -52.667 7.66602 -66 18.999s-22 24.666 -26 39.999c-2 11.333 -2.66699 21.666 -2 30.999c1.33301 18.667 8 36 20 52s28.667 30.667 50 44l-18 9v59z" />
    <glyph glyph-name="Cacute" unicode="&#x106;" horiz-adv-x="712" 
d="M674 241c-4 -37.333 -13.002 -71.665 -27.002 -102.998s-33.333 -58.666 -58 -81.999s-54.667 -41.5 -90 -54.5s-76.333 -19.5 -123 -19.5c-51.333 0 -97.166 8.66699 -137.499 26s-74.333 42.166 -102 74.499s-48.667 71.666 -63 117.999s-21.5 98.166 -21.5 155.499
c0 58.667 7.83301 111.334 23.5 158.001s37.834 86.167 66.501 118.5s63 57 103 74s84 25.5 132 25.5c44.667 0 83.334 -5.66699 116.001 -17s60.5 -27.5 83.5 -48.5s41.333 -46.167 55 -75.5s23.834 -62 30.501 -98l-119 -17c-5.33301 24 -12 45.333 -20 64
s-18.5 34.5 -31.5 47.5s-28.833 23 -47.5 30s-41 10.5 -67 10.5c-32 0 -60.333 -6.33301 -85 -19s-45.5 -30.834 -62.5 -54.501s-29.833 -52.167 -38.5 -85.5s-13 -70.666 -13 -111.999c0 -42 4.5 -79.667 13.5 -113s22.167 -61.833 39.5 -85.5s38.166 -41.667 62.499 -54
s52.166 -18.5 83.499 -18.5c28 0 51.833 3.66699 71.5 11s36.167 17.666 49.5 30.999s23.833 29.5 31.5 48.5s13.167 40.5 16.5 64.5h128zM545.998 912.001l-149 -139h-109l123 139h135z" />
    <glyph glyph-name="cacute" unicode="&#x107;" horiz-adv-x="564" 
d="M523 182c-6.66699 -62 -28.833 -110.498 -66.5 -145.498s-91.5 -52.5 -161.5 -52.5c-42 0 -78.5 6.5 -109.5 19.5s-56.833 31.5 -77.5 55.5s-36 52.833 -46 86.5s-15 71.167 -15 112.5s5.66699 79.166 17 113.499s27.833 63.666 49.5 87.999s48.167 43.166 79.5 56.499
s67 20 107 20c36.667 0 67.667 -4.83301 93 -14.5s46.333 -22.667 63 -39s29.667 -35.166 39 -56.499s16 -43.666 20 -66.999l-113 -17c-5.33301 29.333 -15.5 53.666 -30.5 72.999s-40.167 29 -75.5 29c-25.333 0 -46.333 -5.33301 -63 -16s-30 -24.5 -40 -41.5
s-17.167 -36.5 -21.5 -58.5s-6.5 -44.333 -6.5 -67c0 -26 2.33301 -50.333 7 -73s12 -42.167 22 -58.5s23.333 -29.333 40 -39s37 -14.5 61 -14.5c34.667 0 61 9.16699 79 27.5s29.333 44.5 34 78.5h115zM456.001 741.002l-143 -148h-107l117 148h133z" />
    <glyph glyph-name="Ccircumflex" unicode="&#x108;" horiz-adv-x="712" 
d="M674 241c-4 -37.333 -13.002 -71.665 -27.002 -102.998s-33.333 -58.666 -58 -81.999s-54.667 -41.5 -90 -54.5s-76.333 -19.5 -123 -19.5c-51.333 0 -97.166 8.66699 -137.499 26s-74.333 42.166 -102 74.499s-48.667 71.666 -63 117.999s-21.5 98.166 -21.5 155.499
c0 58.667 7.83301 111.334 23.5 158.001s37.834 86.167 66.501 118.5s63 57 103 74s84 25.5 132 25.5c44.667 0 83.334 -5.66699 116.001 -17s60.5 -27.5 83.5 -48.5s41.333 -46.167 55 -75.5s23.834 -62 30.501 -98l-119 -17c-5.33301 24 -12 45.333 -20 64
s-18.5 34.5 -31.5 47.5s-28.833 23 -47.5 30s-41 10.5 -67 10.5c-32 0 -60.333 -6.33301 -85 -19s-45.5 -30.834 -62.5 -54.501s-29.833 -52.167 -38.5 -85.5s-13 -70.666 -13 -111.999c0 -42 4.5 -79.667 13.5 -113s22.167 -61.833 39.5 -85.5s38.166 -41.667 62.499 -54
s52.166 -18.5 83.499 -18.5c28 0 51.833 3.66699 71.5 11s36.167 17.666 49.5 30.999s23.833 29.5 31.5 48.5s13.167 40.5 16.5 64.5h128zM431.998 912.001l118 -139h-101l-74 75l-74 -75h-101l118 139h114z" />
    <glyph glyph-name="ccircumflex" unicode="&#x109;" horiz-adv-x="564" 
d="M523 182c-6.66699 -62 -28.833 -110.498 -66.5 -145.498s-91.5 -52.5 -161.5 -52.5c-42 0 -78.5 6.5 -109.5 19.5s-56.833 31.5 -77.5 55.5s-36 52.833 -46 86.5s-15 71.167 -15 112.5s5.66699 79.166 17 113.499s27.833 63.666 49.5 87.999s48.167 43.166 79.5 56.499
s67 20 107 20c36.667 0 67.667 -4.83301 93 -14.5s46.333 -22.667 63 -39s29.667 -35.166 39 -56.499s16 -43.666 20 -66.999l-113 -17c-5.33301 29.333 -15.5 53.666 -30.5 72.999s-40.167 29 -75.5 29c-25.333 0 -46.333 -5.33301 -63 -16s-30 -24.5 -40 -41.5
s-17.167 -36.5 -21.5 -58.5s-6.5 -44.333 -6.5 -67c0 -26 2.33301 -50.333 7 -73s12 -42.167 22 -58.5s23.333 -29.333 40 -39s37 -14.5 61 -14.5c34.667 0 61 9.16699 79 27.5s29.333 44.5 34 78.5h115zM353.001 741.002l117 -148h-100l-74 85l-74 -85h-101l118 148h114z
" />
    <glyph glyph-name="Cdotaccent" unicode="&#x10a;" horiz-adv-x="712" 
d="M674 241c-4 -37.333 -13.002 -71.665 -27.002 -102.998s-33.333 -58.666 -58 -81.999s-54.667 -41.5 -90 -54.5s-76.333 -19.5 -123 -19.5c-51.333 0 -97.166 8.66699 -137.499 26s-74.333 42.166 -102 74.499s-48.667 71.666 -63 117.999s-21.5 98.166 -21.5 155.499
c0 58.667 7.83301 111.334 23.5 158.001s37.834 86.167 66.501 118.5s63 57 103 74s84 25.5 132 25.5c44.667 0 83.334 -5.66699 116.001 -17s60.5 -27.5 83.5 -48.5s41.333 -46.167 55 -75.5s23.834 -62 30.501 -98l-119 -17c-5.33301 24 -12 45.333 -20 64
s-18.5 34.5 -31.5 47.5s-28.833 23 -47.5 30s-41 10.5 -67 10.5c-32 0 -60.333 -6.33301 -85 -19s-45.5 -30.834 -62.5 -54.501s-29.833 -52.167 -38.5 -85.5s-13 -70.666 -13 -111.999c0 -42 4.5 -79.667 13.5 -113s22.167 -61.833 39.5 -85.5s38.166 -41.667 62.499 -54
s52.166 -18.5 83.499 -18.5c28 0 51.833 3.66699 71.5 11s36.167 17.666 49.5 30.999s23.833 29.5 31.5 48.5s13.167 40.5 16.5 64.5h128zM433.998 904.001v-120h-117v120h117z" />
    <glyph glyph-name="cdotaccent" unicode="&#x10b;" horiz-adv-x="564" 
d="M523 182c-6.66699 -62 -28.833 -110.498 -66.5 -145.498s-91.5 -52.5 -161.5 -52.5c-42 0 -78.5 6.5 -109.5 19.5s-56.833 31.5 -77.5 55.5s-36 52.833 -46 86.5s-15 71.167 -15 112.5s5.66699 79.166 17 113.499s27.833 63.666 49.5 87.999s48.167 43.166 79.5 56.499
s67 20 107 20c36.667 0 67.667 -4.83301 93 -14.5s46.333 -22.667 63 -39s29.667 -35.166 39 -56.499s16 -43.666 20 -66.999l-113 -17c-5.33301 29.333 -15.5 53.666 -30.5 72.999s-40.167 29 -75.5 29c-25.333 0 -46.333 -5.33301 -63 -16s-30 -24.5 -40 -41.5
s-17.167 -36.5 -21.5 -58.5s-6.5 -44.333 -6.5 -67c0 -26 2.33301 -50.333 7 -73s12 -42.167 22 -58.5s23.333 -29.333 40 -39s37 -14.5 61 -14.5c34.667 0 61 9.16699 79 27.5s29.333 44.5 34 78.5h115zM352.001 725.002v-114h-111v114h111z" />
    <glyph glyph-name="Ccaron" unicode="&#x10c;" horiz-adv-x="712" 
d="M674 241c-4 -37.333 -13.002 -71.665 -27.002 -102.998s-33.333 -58.666 -58 -81.999s-54.667 -41.5 -90 -54.5s-76.333 -19.5 -123 -19.5c-51.333 0 -97.166 8.66699 -137.499 26s-74.333 42.166 -102 74.499s-48.667 71.666 -63 117.999s-21.5 98.166 -21.5 155.499
c0 58.667 7.83301 111.334 23.5 158.001s37.834 86.167 66.501 118.5s63 57 103 74s84 25.5 132 25.5c44.667 0 83.334 -5.66699 116.001 -17s60.5 -27.5 83.5 -48.5s41.333 -46.167 55 -75.5s23.834 -62 30.501 -98l-119 -17c-5.33301 24 -12 45.333 -20 64
s-18.5 34.5 -31.5 47.5s-28.833 23 -47.5 30s-41 10.5 -67 10.5c-32 0 -60.333 -6.33301 -85 -19s-45.5 -30.834 -62.5 -54.501s-29.833 -52.167 -38.5 -85.5s-13 -70.666 -13 -111.999c0 -42 4.5 -79.667 13.5 -113s22.167 -61.833 39.5 -85.5s38.166 -41.667 62.499 -54
s52.166 -18.5 83.499 -18.5c28 0 51.833 3.66699 71.5 11s36.167 17.666 49.5 30.999s23.833 29.5 31.5 48.5s13.167 40.5 16.5 64.5h128zM300.998 916.001l75 -76l73 76h101l-118 -140h-114l-118 140h101z" />
    <glyph glyph-name="ccaron" unicode="&#x10d;" horiz-adv-x="564" 
d="M523 182c-6.66699 -62 -28.833 -110.498 -66.5 -145.498s-91.5 -52.5 -161.5 -52.5c-42 0 -78.5 6.5 -109.5 19.5s-56.833 31.5 -77.5 55.5s-36 52.833 -46 86.5s-15 71.167 -15 112.5s5.66699 79.166 17 113.499s27.833 63.666 49.5 87.999s48.167 43.166 79.5 56.499
s67 20 107 20c36.667 0 67.667 -4.83301 93 -14.5s46.333 -22.667 63 -39s29.667 -35.166 39 -56.499s16 -43.666 20 -66.999l-113 -17c-5.33301 29.333 -15.5 53.666 -30.5 72.999s-40.167 29 -75.5 29c-25.333 0 -46.333 -5.33301 -63 -16s-30 -24.5 -40 -41.5
s-17.167 -36.5 -21.5 -58.5s-6.5 -44.333 -6.5 -67c0 -26 2.33301 -50.333 7 -73s12 -42.167 22 -58.5s23.333 -29.333 40 -39s37 -14.5 61 -14.5c34.667 0 61 9.16699 79 27.5s29.333 44.5 34 78.5h115zM239.001 593.002l-118 149h101l74 -86l74 86h100l-117 -149h-114z
" />
    <glyph glyph-name="Dcaron" unicode="&#x10e;" horiz-adv-x="726" 
d="M314 103c42 0 77.833 6.00098 107.5 18.001s54 29.333 73 52s32.833 49.667 41.5 81s13 66.666 13 105.999c0 78.667 -16.667 140.167 -50 184.5s-88 66.5 -164 66.5h-138v-508h117zM334 714.001c52.667 0 100 -7.1709 142 -21.5039s77.667 -36.166 107 -65.499
s51.833 -66.166 67.5 -110.499s23.5 -96.166 23.5 -155.499s-8.33301 -111.5 -25 -156.5s-40.667 -82.667 -72 -113s-69.5 -53.166 -114.5 -68.499s-95.833 -23 -152.5 -23h-234v714h258zM237 915.997l75 -76l73 76h101l-118 -140h-114l-118 140h101z" />
    <glyph glyph-name="dcaron" unicode="&#x10f;" horiz-adv-x="609" 
d="M432 271c0 32.667 -3.50098 60.167 -10.501 82.5s-16.667 40 -29 53s-26.666 22.333 -42.999 28s-33.5 8.5 -51.5 8.5c-42 0 -74.5 -15 -97.5 -45s-34.5 -75.667 -34.5 -137c0 -33.333 3.16699 -61.666 9.5 -84.999s15.333 -42.333 27 -57s25.167 -25.334 40.5 -32.001
s32 -10 50 -10c41.333 0 74.833 13.5 100.5 40.5s38.5 69.167 38.5 126.5v27zM432.999 72c-21.333 -29.333 -45.502 -51.334 -72.502 -66.001s-58.5 -22 -94.5 -22c-37.333 0 -69.666 6.66699 -96.999 20s-50 32.166 -68 56.499s-31.5 53.333 -40.5 87
s-13.5 70.834 -13.5 111.501c0 38 4.66699 73.5 14 106.5s23 61.667 41 86s40.167 43.833 66.5 58.5s56.833 22.667 91.5 24c6.66699 0.666992 13.334 0.833984 20.001 0.500977s13.667 -0.833008 21 -1.5c23.333 -2.66699 45.833 -9.16699 67.5 -19.5
s42.5 -27.5 62.5 -51.5v252h113v-714h-111v72zM747.997 713.999l-53 -224h-85l30 224h108z" />
    <glyph glyph-name="Dcroat" unicode="&#x110;" horiz-adv-x="741" 
d="M329 103c82 0 141.666 22.833 178.999 68.5s56 108.5 56 188.5c0 39.333 -4.16699 74.5 -12.5 105.5s-21.166 57.333 -38.499 79s-39.5 38.167 -66.5 49.5s-59.167 17 -96.5 17h-138v-192h167v-101h-167v-215h117zM9.99902 318l0.00195312 101h81v295h259
c106 0 189 -29.667 249 -89s90 -147.333 90 -264c0 -61.333 -8.83301 -114.666 -26.5 -159.999s-42.334 -82.833 -74.001 -112.5s-69.834 -51.834 -114.501 -66.501s-94 -22 -148 -22h-235v318h-81z" />
    <glyph glyph-name="dcroat" unicode="&#x111;" horiz-adv-x="616" 
d="M433 253c0 28.667 -3.49609 53.333 -10.4961 74s-16.5 37.5 -28.5 50.5s-26.333 22.667 -43 29s-34.334 9.5 -53.001 9.5c-38.667 0 -70.334 -14 -95.001 -42s-37 -70.667 -37 -128c0 -30.667 3.5 -56.667 10.5 -78s16.167 -38.833 27.5 -52.5s24.666 -23.5 39.999 -29.5
s31.666 -9 48.999 -9c46 0 80.833 15 104.5 45s35.5 70 35.5 120v11zM434.004 71.999c-21.333 -28.667 -45.5 -50.502 -72.5 -65.502s-58.5 -22.5 -94.5 -22.5c-39.333 0 -72.833 7 -100.5 21s-50.334 33 -68.001 57s-30.667 51.833 -39 83.5s-12.5 64.834 -12.5 99.501
c0 35.333 4.83301 69 14.5 101s24.167 60 43.5 84s43.333 43.167 72 57.5s61.667 21.5 99 21.5c26.667 0 53.334 -5.16699 80.001 -15.5s51.667 -30.166 75 -59.499v135h-162v74h162v71h114v-71h68v-74h-68v-569h-111v72z" />
    <glyph glyph-name="Emacron" unicode="&#x112;" horiz-adv-x="599" 
d="M76 714h475v-104h-354v-190h334v-105h-334v-211h373l-14 -104h-480v714zM469 885v-92h-301v92h301z" />
    <glyph glyph-name="emacron" unicode="&#x113;" horiz-adv-x="580" 
d="M527 154c-9.33301 -54 -32.3291 -95.8379 -68.9961 -125.505s-89.334 -44.5 -158.001 -44.5c-82.667 0 -145.5 23.833 -188.5 71.5s-64.5 114.834 -64.5 201.501c0 44.667 6.16699 84.334 18.5 119.001s29.666 63.834 51.999 87.501s49 41.667 80 54
s65.167 18.5 102.5 18.5c40 0 74.667 -6.16699 104 -18.5s53.666 -29.666 72.999 -51.999s33.666 -49 42.999 -80s14 -65.5 14 -103.5v-50h-373c1.33301 -47.333 13.333 -85.666 36 -114.999s57 -44 103 -44c36 0 63 7 81 21s30 34 36 60h110zM423.004 310.995
c0 42.667 -10 76.333 -30 101s-52 37 -96 37c-42 0 -74 -12.5 -96 -37.5s-34.667 -58.5 -38 -100.5h260zM438.004 705.994v-89h-276v89h276z" />
    <glyph glyph-name="Ebreve" unicode="&#x114;" horiz-adv-x="599" 
d="M76 714h475v-104h-354v-190h334v-105h-334v-211h373l-14 -104h-480v714zM253 919c0 -26.667 6.49805 -45.667 19.498 -57s28.167 -17 45.5 -17s32.333 5.5 45 16.5s19 30.167 19 57.5h86c0 -49.333 -13.667 -86 -41 -110s-63.666 -36 -108.999 -36
c-47.333 0 -84.166 12.333 -110.499 37s-39.5 61 -39.5 109h85z" />
    <glyph glyph-name="ebreve" unicode="&#x115;" horiz-adv-x="580" 
d="M527 154c-9.33301 -54 -32.3291 -95.8379 -68.9961 -125.505s-89.334 -44.5 -158.001 -44.5c-82.667 0 -145.5 23.833 -188.5 71.5s-64.5 114.834 -64.5 201.501c0 44.667 6.16699 84.334 18.5 119.001s29.666 63.834 51.999 87.501s49 41.667 80 54
s65.167 18.5 102.5 18.5c40 0 74.667 -6.16699 104 -18.5s53.666 -29.666 72.999 -51.999s33.666 -49 42.999 -80s14 -65.5 14 -103.5v-50h-373c1.33301 -47.333 13.333 -85.666 36 -114.999s57 -44 103 -44c36 0 63 7 81 21s30 34 36 60h110zM423.004 310.995
c0 42.667 -10 76.333 -30 101s-52 37 -96 37c-42 0 -74 -12.5 -96 -37.5s-34.667 -58.5 -38 -100.5h260zM235.004 737.994c0 -27.333 6.33301 -46.666 19 -57.999s27.667 -17 45 -17c16.667 0 31.334 5.66699 44.001 17s19 30.666 19 57.999h84
c0 -49.333 -13.333 -86.333 -40 -111s-62.334 -37 -107.001 -37c-46 0 -81.667 12.5 -107 37.5s-38 61.833 -38 110.5h81z" />
    <glyph glyph-name="Edotaccent" unicode="&#x116;" horiz-adv-x="599" 
d="M76 714h475v-104h-354v-190h334v-105h-334v-211h373l-14 -104h-480v714zM377 904v-120h-117v120h117z" />
    <glyph glyph-name="edotaccent" unicode="&#x117;" horiz-adv-x="580" 
d="M527 154c-9.33301 -54 -32.3291 -95.8379 -68.9961 -125.505s-89.334 -44.5 -158.001 -44.5c-82.667 0 -145.5 23.833 -188.5 71.5s-64.5 114.834 -64.5 201.501c0 44.667 6.16699 84.334 18.5 119.001s29.666 63.834 51.999 87.501s49 41.667 80 54
s65.167 18.5 102.5 18.5c40 0 74.667 -6.16699 104 -18.5s53.666 -29.666 72.999 -51.999s33.666 -49 42.999 -80s14 -65.5 14 -103.5v-50h-373c1.33301 -47.333 13.333 -85.666 36 -114.999s57 -44 103 -44c36 0 63 7 81 21s30 34 36 60h110zM423.004 310.995
c0 42.667 -10 76.333 -30 101s-52 37 -96 37c-42 0 -74 -12.5 -96 -37.5s-34.667 -58.5 -38 -100.5h260zM356.004 724.994v-114h-111v114h111z" />
    <glyph glyph-name="Eogonek" unicode="&#x118;" horiz-adv-x="599" 
d="M551 714l-0.00195312 -103.999h-354v-190h334v-105h-334v-211h373l-14 -104c-18.667 -11.333 -34.334 -23.333 -47.001 -36s-20 -25.667 -22 -39c-1.33301 -12.667 0.333984 -21.667 5.00098 -27c5.33301 -11.333 16.333 -17 33 -17c5.33301 0 9.83301 0.166992 13.5 0.5
s9.16699 1.16602 16.5 2.49902v-75c-7.33301 -1.33301 -14.166 -2 -20.499 -2h-19.5c-41.333 0 -71.5 5.16699 -90.5 15.5s-30.5 25.833 -34.5 46.5c-2.66699 7.33301 -4 15 -4 23c0 20.667 6.33301 39.5 19 56.5s31.334 34.167 56.001 51.5h-385v714h475z" />
    <glyph glyph-name="eogonek" unicode="&#x119;" horiz-adv-x="580" 
d="M423 311c0 42 -10 75.5 -30 100.5s-52 37.5 -96 37.5c-40 0 -71.833 -12.5 -95.5 -37.5s-36.5 -58.5 -38.5 -100.5h260zM405 -185c-6.66699 -1.33301 -12.666 -2 -17.999 -2h-20c-14.667 0 -29.334 1.33301 -44.001 4s-27.834 7.16699 -39.501 13.5
s-21.167 14.5 -28.5 24.5s-11 22.333 -11 37c0 21.333 5 39.5 15 54.5s21.667 27.833 35 38.5c-8 0 -15.833 0.333008 -23.5 1s-15.167 1.66699 -22.5 3c-67.333 9.33301 -117.666 36.833 -150.999 82.5s-50 107.5 -50 185.5c0 45.333 6.33301 85.333 19 120
s30.167 63.834 52.5 87.501s49 41.5 80 53.5s64.833 18 101.5 18c40 0 74.667 -6.16699 104 -18.5s53.666 -29.833 72.999 -52.5s33.666 -49.5 42.999 -80.5s14 -65.167 14 -102.5v-50h-373c0.666992 -48 12.5 -86.5 35.5 -115.5s57.5 -43.5 103.5 -43.5
c36 0 63 7.16699 81 21.5s30 34.166 36 59.499h110c-7.33301 -39.333 -20 -71 -38 -95c-11.333 -14.667 -25.666 -27 -42.999 -37l-50 -29.5c-16 -9.66699 -29.833 -20.167 -41.5 -31.5s-17.5 -25.333 -17.5 -42c0 -14 3.83301 -23.167 11.5 -27.5s16.834 -6.5 27.501 -6.5
c4.66699 0 9 0.333008 13 1s9.33301 1 16 1v-72z" />
    <glyph glyph-name="Ecaron" unicode="&#x11a;" horiz-adv-x="599" 
d="M76 714h475v-104h-354v-190h334v-105h-334v-211h373l-14 -104h-480v714zM244 916l75 -76l73 76h101l-118 -140h-114l-118 140h101z" />
    <glyph glyph-name="ecaron" unicode="&#x11b;" horiz-adv-x="580" 
d="M527 154c-9.33301 -54 -32.3291 -95.8379 -68.9961 -125.505s-89.334 -44.5 -158.001 -44.5c-82.667 0 -145.5 23.833 -188.5 71.5s-64.5 114.834 -64.5 201.501c0 44.667 6.16699 84.334 18.5 119.001s29.666 63.834 51.999 87.501s49 41.667 80 54
s65.167 18.5 102.5 18.5c40 0 74.667 -6.16699 104 -18.5s53.666 -29.666 72.999 -51.999s33.666 -49 42.999 -80s14 -65.5 14 -103.5v-50h-373c1.33301 -47.333 13.333 -85.666 36 -114.999s57 -44 103 -44c36 0 63 7 81 21s30 34 36 60h110zM423.004 310.995
c0 42.667 -10 76.333 -30 101s-52 37 -96 37c-42 0 -74 -12.5 -96 -37.5s-34.667 -58.5 -38 -100.5h260zM243.004 592.994l-118 149h101l74 -86l74 86h100l-117 -149h-114z" />
    <glyph glyph-name="Gcircumflex" unicode="&#x11c;" horiz-adv-x="721" 
d="M667 379l0.00292969 -294.001c-36.667 -34 -80 -59.667 -130 -77s-100.333 -26 -151 -26c-55.333 0 -103.833 8.83301 -145.5 26.5s-76.5 42.667 -104.5 75s-49 71.5 -63 117.5s-21 97.667 -21 155c0 58 7.66699 110.167 23 156.5s37 85.833 65 118.5s62 57.667 102 75
s84.667 26 134 26c43.333 0 81.166 -5.5 113.499 -16.5s59.666 -26.167 81.999 -45.5s40.333 -41.833 54 -67.5s23.5 -53.167 29.5 -82.5l-119 -17c-5.33301 20 -11.833 37.833 -19.5 53.5s-17.667 28.834 -30 39.501s-27.5 18.834 -45.5 24.501s-39.667 8.5 -65 8.5
c-33.333 0 -62.5 -6.5 -87.5 -19.5s-45.833 -31.5 -62.5 -55.5s-29 -52.667 -37 -86s-12 -70.333 -12 -111c0 -42 4 -79.667 12 -113s20.667 -61.833 38 -85.5s39.166 -41.834 65.499 -54.501s58.166 -19 95.499 -19c33.333 0 63.333 3.5 90 10.5s52.334 19.167 77.001 36.5
v145h-158v102h270zM437.003 911.999l118 -139h-101l-74 75l-74 -75h-101l118 139h114z" />
    <glyph glyph-name="gcircumflex" unicode="&#x11d;" horiz-adv-x="609" 
d="M432 279c0 32 -3.83203 58.668 -11.499 80.001s-17.667 38.166 -30 50.499s-26.666 21 -42.999 26s-32.833 7.5 -49.5 7.5c-42 0 -74.5 -14.333 -97.5 -43s-34.5 -70.667 -34.5 -126c0 -31.333 3.5 -57.833 10.5 -79.5s16.167 -39.167 27.5 -52.5s24.666 -23 39.999 -29
s31.666 -9 48.999 -9c48.667 0 84 14.667 106 44s33 71 33 125v6zM182.001 -39.999c8 -50 43.335 -75.0029 106.002 -75.0029h26c25.333 0.666992 45.666 5.83398 60.999 15.501s27.166 22.5 35.499 38.5s13.833 34.333 16.5 55s4 42.667 4 66v35
c-38.667 -54.667 -93.667 -82 -165 -82c-37.333 0 -69.833 6.5 -97.5 19.5s-50.5 31 -68.5 54s-31.333 50.5 -40 82.5s-13 66.667 -13 104c0 36 4.83301 69.833 14.5 101.5s23.834 59.334 42.501 83.001s41.667 42.334 69 56.001s58.666 20.834 93.999 21.501
c10.667 0.666992 22.667 0 36 -2c24 -3.33301 47 -10.5 69 -21.5s42.667 -29.167 62 -54.5v63h111v-448c0 -44.667 -4.33301 -84.167 -13 -118.5s-22.5 -63.333 -41.5 -87s-43.833 -41.5 -74.5 -53.5s-68 -18 -112 -18c-78 0 -135.333 13.667 -172 41
s-58 68.666 -64 123.999h114zM369.003 740.998l117 -148h-100l-74 85l-74 -85h-101l118 148h114z" />
    <glyph glyph-name="Gbreve" unicode="&#x11e;" horiz-adv-x="721" 
d="M667 379l0.00292969 -294.001c-36.667 -34 -80 -59.667 -130 -77s-100.333 -26 -151 -26c-55.333 0 -103.833 8.83301 -145.5 26.5s-76.5 42.667 -104.5 75s-49 71.5 -63 117.5s-21 97.667 -21 155c0 58 7.66699 110.167 23 156.5s37 85.833 65 118.5s62 57.667 102 75
s84.667 26 134 26c43.333 0 81.166 -5.5 113.499 -16.5s59.666 -26.167 81.999 -45.5s40.333 -41.833 54 -67.5s23.5 -53.167 29.5 -82.5l-119 -17c-5.33301 20 -11.833 37.833 -19.5 53.5s-17.667 28.834 -30 39.501s-27.5 18.834 -45.5 24.501s-39.667 8.5 -65 8.5
c-33.333 0 -62.5 -6.5 -87.5 -19.5s-45.833 -31.5 -62.5 -55.5s-29 -52.667 -37 -86s-12 -70.333 -12 -111c0 -42 4 -79.667 12 -113s20.667 -61.833 38 -85.5s39.166 -41.834 65.499 -54.501s58.166 -19 95.499 -19c33.333 0 63.333 3.5 90 10.5s52.334 19.167 77.001 36.5
v145h-158v102h270zM315.003 918.999c0 -26.667 6.49805 -45.667 19.498 -57s28.167 -17 45.5 -17s32.333 5.5 45 16.5s19 30.167 19 57.5h86c0 -49.333 -13.667 -86 -41 -110s-63.666 -36 -108.999 -36c-47.333 0 -84.166 12.333 -110.499 37s-39.5 61 -39.5 109h85z" />
    <glyph glyph-name="gbreve" unicode="&#x11f;" horiz-adv-x="609" 
d="M432 279c0 32 -3.83203 58.668 -11.499 80.001s-17.667 38.166 -30 50.499s-26.666 21 -42.999 26s-32.833 7.5 -49.5 7.5c-42 0 -74.5 -14.333 -97.5 -43s-34.5 -70.667 -34.5 -126c0 -31.333 3.5 -57.833 10.5 -79.5s16.167 -39.167 27.5 -52.5s24.666 -23 39.999 -29
s31.666 -9 48.999 -9c48.667 0 84 14.667 106 44s33 71 33 125v6zM182.001 -39.999c8 -50 43.335 -75.0029 106.002 -75.0029h26c25.333 0.666992 45.666 5.83398 60.999 15.501s27.166 22.5 35.499 38.5s13.833 34.333 16.5 55s4 42.667 4 66v35
c-38.667 -54.667 -93.667 -82 -165 -82c-37.333 0 -69.833 6.5 -97.5 19.5s-50.5 31 -68.5 54s-31.333 50.5 -40 82.5s-13 66.667 -13 104c0 36 4.83301 69.833 14.5 101.5s23.834 59.334 42.501 83.001s41.667 42.334 69 56.001s58.666 20.834 93.999 21.501
c10.667 0.666992 22.667 0 36 -2c24 -3.33301 47 -10.5 69 -21.5s42.667 -29.167 62 -54.5v63h111v-448c0 -44.667 -4.33301 -84.167 -13 -118.5s-22.5 -63.333 -41.5 -87s-43.833 -41.5 -74.5 -53.5s-68 -18 -112 -18c-78 0 -135.333 13.667 -172 41
s-58 68.666 -64 123.999h114zM248.003 737.998c0 -27.333 6.33301 -46.666 19 -57.999s27.667 -17 45 -17c16.667 0 31.334 5.66699 44.001 17s19 30.666 19 57.999h84c0 -49.333 -13.333 -86.333 -40 -111s-62.334 -37 -107.001 -37c-46 0 -81.667 12.5 -107 37.5
s-38 61.833 -38 110.5h81z" />
    <glyph glyph-name="Gdotaccent" unicode="&#x120;" horiz-adv-x="721" 
d="M667 379l0.00292969 -294.001c-36.667 -34 -80 -59.667 -130 -77s-100.333 -26 -151 -26c-55.333 0 -103.833 8.83301 -145.5 26.5s-76.5 42.667 -104.5 75s-49 71.5 -63 117.5s-21 97.667 -21 155c0 58 7.66699 110.167 23 156.5s37 85.833 65 118.5s62 57.667 102 75
s84.667 26 134 26c43.333 0 81.166 -5.5 113.499 -16.5s59.666 -26.167 81.999 -45.5s40.333 -41.833 54 -67.5s23.5 -53.167 29.5 -82.5l-119 -17c-5.33301 20 -11.833 37.833 -19.5 53.5s-17.667 28.834 -30 39.501s-27.5 18.834 -45.5 24.501s-39.667 8.5 -65 8.5
c-33.333 0 -62.5 -6.5 -87.5 -19.5s-45.833 -31.5 -62.5 -55.5s-29 -52.667 -37 -86s-12 -70.333 -12 -111c0 -42 4 -79.667 12 -113s20.667 -61.833 38 -85.5s39.166 -41.834 65.499 -54.501s58.166 -19 95.499 -19c33.333 0 63.333 3.5 90 10.5s52.334 19.167 77.001 36.5
v145h-158v102h270zM439.003 903.999v-120h-117v120h117z" />
    <glyph glyph-name="gdotaccent" unicode="&#x121;" horiz-adv-x="609" 
d="M432 279c0 32 -3.83203 58.668 -11.499 80.001s-17.667 38.166 -30 50.499s-26.666 21 -42.999 26s-32.833 7.5 -49.5 7.5c-42 0 -74.5 -14.333 -97.5 -43s-34.5 -70.667 -34.5 -126c0 -31.333 3.5 -57.833 10.5 -79.5s16.167 -39.167 27.5 -52.5s24.666 -23 39.999 -29
s31.666 -9 48.999 -9c48.667 0 84 14.667 106 44s33 71 33 125v6zM182.001 -39.999c8 -50 43.335 -75.0029 106.002 -75.0029h26c25.333 0.666992 45.666 5.83398 60.999 15.501s27.166 22.5 35.499 38.5s13.833 34.333 16.5 55s4 42.667 4 66v35
c-38.667 -54.667 -93.667 -82 -165 -82c-37.333 0 -69.833 6.5 -97.5 19.5s-50.5 31 -68.5 54s-31.333 50.5 -40 82.5s-13 66.667 -13 104c0 36 4.83301 69.833 14.5 101.5s23.834 59.334 42.501 83.001s41.667 42.334 69 56.001s58.666 20.834 93.999 21.501
c10.667 0.666992 22.667 0 36 -2c24 -3.33301 47 -10.5 69 -21.5s42.667 -29.167 62 -54.5v63h111v-448c0 -44.667 -4.33301 -84.167 -13 -118.5s-22.5 -63.333 -41.5 -87s-43.833 -41.5 -74.5 -53.5s-68 -18 -112 -18c-78 0 -135.333 13.667 -172 41
s-58 68.666 -64 123.999h114zM361.003 724.998v-114h-111v114h111z" />
    <glyph glyph-name="Gcommaaccent" unicode="&#x122;" horiz-adv-x="721" 
d="M667 379l0.00292969 -294.001c-36.667 -34 -80 -59.667 -130 -77s-100.333 -26 -151 -26c-55.333 0 -103.833 8.83301 -145.5 26.5s-76.5 42.667 -104.5 75s-49 71.5 -63 117.5s-21 97.667 -21 155c0 58 7.66699 110.167 23 156.5s37 85.833 65 118.5s62 57.667 102 75
s84.667 26 134 26c43.333 0 81.166 -5.5 113.499 -16.5s59.666 -26.167 81.999 -45.5s40.333 -41.833 54 -67.5s23.5 -53.167 29.5 -82.5l-119 -17c-5.33301 20 -11.833 37.833 -19.5 53.5s-17.667 28.834 -30 39.501s-27.5 18.834 -45.5 24.501s-39.667 8.5 -65 8.5
c-33.333 0 -62.5 -6.5 -87.5 -19.5s-45.833 -31.5 -62.5 -55.5s-29 -52.667 -37 -86s-12 -70.333 -12 -111c0 -42 4 -79.667 12 -113s20.667 -61.833 38 -85.5s39.166 -41.834 65.499 -54.501s58.166 -19 95.499 -19c33.333 0 63.333 3.5 90 10.5s52.334 19.167 77.001 36.5
v145h-158v102h270zM457.003 -67.001l-103 -155h-105l79 155h129z" />
    <glyph glyph-name="gcommaaccent" unicode="&#x123;" horiz-adv-x="609" 
d="M432 279c0 32 -3.83203 58.668 -11.499 80.001s-17.667 38.166 -30 50.499s-26.666 21 -42.999 26s-32.833 7.5 -49.5 7.5c-42 0 -74.5 -14.333 -97.5 -43s-34.5 -70.667 -34.5 -126c0 -31.333 3.5 -57.833 10.5 -79.5s16.167 -39.167 27.5 -52.5s24.666 -23 39.999 -29
s31.666 -9 48.999 -9c48.667 0 84 14.667 106 44s33 71 33 125v6zM182.001 -39.999c8 -50 43.335 -75.0029 106.002 -75.0029h26c25.333 0.666992 45.666 5.83398 60.999 15.501s27.166 22.5 35.499 38.5s13.833 34.333 16.5 55s4 42.667 4 66v35
c-38.667 -54.667 -93.667 -82 -165 -82c-37.333 0 -69.833 6.5 -97.5 19.5s-50.5 31 -68.5 54s-31.333 50.5 -40 82.5s-13 66.667 -13 104c0 36 4.83301 69.833 14.5 101.5s23.834 59.334 42.501 83.001s41.667 42.334 69 56.001s58.666 20.834 93.999 21.501
c10.667 0.666992 22.667 0 36 -2c24 -3.33301 47 -10.5 69 -21.5s42.667 -29.167 62 -54.5v63h111v-448c0 -44.667 -4.33301 -84.167 -13 -118.5s-22.5 -63.333 -41.5 -87s-43.833 -41.5 -74.5 -53.5s-68 -18 -112 -18c-78 0 -135.333 13.667 -172 41
s-58 68.666 -64 123.999h114zM433.003 740.998l-76 -150h-124l100 150h100z" />
    <glyph glyph-name="Hcircumflex" unicode="&#x124;" horiz-adv-x="715" 
d="M76 714h121v-289h321v289h121v-714h-121v313h-321v-313h-121v714zM415 912l118 -139h-101l-74 75l-74 -75h-101l118 139h114z" />
    <glyph glyph-name="hcircumflex" unicode="&#x125;" horiz-adv-x="581" 
d="M178 714v-265.999c22 30 47.5 52.167 76.5 66.5s59.833 21.5 92.5 21.5c116 0 174 -64 174 -192v-344h-114v326c0 42 -7.66699 71.5 -23 88.5s-38 25.5 -68 25.5c-20.667 0 -39.5 -3.66699 -56.5 -11s-31.5 -17 -43.5 -29s-21.333 -25.833 -28 -41.5
s-10 -31.834 -10 -48.501v-310h-113v714h113zM302 912.001l118 -139h-101l-74 75l-74 -75h-101l118 139h114z" />
    <glyph glyph-name="Hbar" unicode="&#x126;" horiz-adv-x="746" 
d="M534 519h-322v-107h322v107zM10 519v94h81v101h121v-101h322v101h121v-101h81v-94h-81v-519h-121v300h-322v-300h-121v519h-81z" />
    <glyph glyph-name="hbar" unicode="&#x127;" horiz-adv-x="587" 
d="M3 569l-0.000976562 74.001h68v71h113v-71h164v-74h-164v-149c22.667 30 48.334 52.333 77.001 67s59.334 22 92.001 22c59.333 0 103.166 -15.833 131.499 -47.5s42.5 -79.5 42.5 -143.5v-318h-114v300c0 41.333 -7.66699 70.5 -23 87.5s-38 25.5 -68 25.5
c-20.667 0 -39.5 -3.66699 -56.5 -11s-31.5 -17 -43.5 -29s-21.333 -25.833 -28 -41.5s-10 -31.834 -10 -48.501v-283h-113v569h-68z" />
    <glyph glyph-name="Itilde" unicode="&#x128;" horiz-adv-x="272" 
d="M76 714h121v-714h-121v714zM-51 776c0 44.667 10.1631 77.5 30.4961 98.5s48.5 31.5 84.5 31.5c13.333 0 25.833 -2.5 37.5 -7.5s22.834 -10.667 33.501 -17s21.334 -12 32.001 -17s21.667 -7.5 33 -7.5c28.667 0 43 15.333 43 46h82
c0 -45.333 -10.167 -78.166 -30.5 -98.499s-48.166 -30.5 -83.499 -30.5c-13.333 0 -25.666 2 -36.999 6s-22.333 9 -33 15l-26 15c-7.33301 3.33301 -13.833 6.16602 -19.5 8.49902s-12.167 3.5 -19.5 3.5c-16 0 -27.5 -3.83301 -34.5 -11.5s-10.5 -19.167 -10.5 -34.5h-82
z" />
    <glyph glyph-name="itilde" unicode="&#x129;" horiz-adv-x="246" 
d="M180 520v-520h-114v520h114zM-60 603c0 44 9.83398 76.666 29.501 97.999s46.834 32 81.501 32c12 0 23.667 -2.5 35 -7.5s22.5 -10.5 33.5 -16.5s21.833 -11.5 32.5 -16.5s21.667 -7.5 33 -7.5c28 0 42 15 42 45h79c0 -45.333 -9.83301 -78.166 -29.5 -98.499
s-46.5 -30.5 -80.5 -30.5c-12.667 0 -24.667 2 -36 6s-22 8.66699 -32 14l-29 17c-6.66699 3.33301 -12.834 6 -18.501 8s-11.834 3 -18.501 3c-28.667 0 -43 -15.333 -43 -46h-79z" />
    <glyph glyph-name="Imacron" unicode="&#x12a;" horiz-adv-x="272" 
d="M76 714h121v-714h-121v714zM288 885v-92h-301v92h301z" />
    <glyph glyph-name="imacron" unicode="&#x12b;" horiz-adv-x="246" 
d="M180 520v-520h-114v520h114zM261 706v-89h-276v89h276z" />
    <glyph glyph-name="Ibreve" unicode="&#x12c;" horiz-adv-x="272" 
d="M76 714h121v-714h-121v714zM72 919c0 -26.667 6.49805 -45.667 19.498 -57s28.167 -17 45.5 -17s32.333 5.5 45 16.5s19 30.167 19 57.5h86c0 -49.333 -13.667 -86 -41 -110s-63.666 -36 -108.999 -36c-47.333 0 -84.166 12.333 -110.499 37s-39.5 61 -39.5 109h85z" />
    <glyph glyph-name="ibreve" unicode="&#x12d;" horiz-adv-x="246" 
d="M180 520v-520h-114v520h114zM59 738c0 -27.333 6.33301 -46.666 19 -57.999s27.667 -17 45 -17c16.667 0 31.334 5.66699 44.001 17s19 30.666 19 57.999h84c0 -49.333 -13.333 -86.333 -40 -111s-62.334 -37 -107.001 -37c-46 0 -81.667 12.5 -107 37.5
s-38 61.833 -38 110.5h81z" />
    <glyph glyph-name="Iogonek" unicode="&#x12e;" horiz-adv-x="272" 
d="M197 714l-0.00195312 -713.999c-21.333 -13.333 -38.5 -27 -51.5 -41s-19.5 -28.333 -19.5 -43s4 -24.167 12 -28.5s17.333 -6.5 28 -6.5c5.33301 0 9.83301 0.166992 13.5 0.5s9.16699 1.16602 16.5 2.49902v-75c-9.33301 -1.33301 -18 -2 -26 -2h-29
c-23.333 0 -42.333 2.5 -57 7.5s-26.167 11.5 -34.5 19.5s-14.166 17 -17.499 27s-5 20.333 -5 31c0 20.667 6.33301 39.5 19 56.5s31.334 34.167 56.001 51.5l-26 33v681h121z" />
    <glyph glyph-name="iogonek" unicode="&#x12f;" horiz-adv-x="246" 
d="M182 714v-113h-118v113h118zM180 520v-519.998c-20 -12.667 -36.167 -25.834 -48.5 -39.501s-18.5 -27.5 -18.5 -41.5s3.83301 -23.167 11.5 -27.5s16.5 -6.5 26.5 -6.5c5.33301 0 9.83301 0.333008 13.5 1s8.83398 1 15.501 1v-72c-14 -2 -27 -3 -39 -3
c-24.667 0 -44.834 2 -60.501 6s-28.167 9.66699 -37.5 17s-15.833 16.166 -19.5 26.499s-5.5 21.5 -5.5 33.5c0 38.667 24 73.667 72 105h-24v520h114z" />
    <glyph glyph-name="Idotaccent" unicode="&#x130;" horiz-adv-x="272" 
d="M76 714h121v-714h-121v714zM196 904v-120h-117v120h117z" />
    <glyph glyph-name="dotlessi" unicode="&#x131;" horiz-adv-x="246" 
d="M180 520v-520h-114v520h114z" />
    <glyph glyph-name="IJ" unicode="&#x132;" horiz-adv-x="891" 
d="M76 714h121v-714h-121v714zM423 230c2.66699 -22 6.83203 -41.834 12.499 -59.501s14 -32.667 25 -45s25 -22 42 -29s38.167 -10.5 63.5 -10.5c48.667 0 83.334 14 104.001 42s31 68 31 120v466h121v-474c0 -85.333 -22.833 -149.666 -68.5 -192.999
s-107.5 -65 -185.5 -65c-82 0 -145.333 20 -190 60s-70 102.667 -76 188h121z" />
    <glyph glyph-name="ij" unicode="&#x133;" horiz-adv-x="492" 
d="M182 714v-113h-118v113h118zM180 520v-520h-114v520h114zM185 -82c20 -6 41.334 -9 64.001 -9c25.333 0 42.166 8.33301 50.499 25s12.5 41 12.5 73v513h114v-524c0 -58.667 -12.167 -103.5 -36.5 -134.5s-64.5 -46.5 -120.5 -46.5c-35.333 0 -69 5.33301 -101 16z
M428.001 714v-113h-118v113h118z" />
    <glyph glyph-name="Jcircumflex" unicode="&#x134;" horiz-adv-x="617" 
d="M149 230c2.66699 -22 6.83203 -41.834 12.499 -59.501s14 -32.667 25 -45s25 -22 42 -29s38.167 -10.5 63.5 -10.5c48.667 0 83.334 14 104.001 42s31 68 31 120v466h121v-474c0 -85.333 -22.833 -149.666 -68.5 -192.999s-107.5 -65 -185.5 -65
c-82 0 -145.333 20 -190 60s-70 102.667 -76 188h121zM543.998 911.999l118 -139h-101l-74 75l-74 -75h-101l118 139h114z" />
    <glyph glyph-name="jcircumflex" unicode="&#x135;" horiz-adv-x="246" 
d="M-61 -82c20 -6 41.334 -9 64.001 -9c25.333 0 42.166 8.33301 50.499 25s12.5 41 12.5 73v513h114v-524c0 -58.667 -12.167 -103.5 -36.5 -134.5s-64.5 -46.5 -120.5 -46.5c-35.333 0 -69 5.33301 -101 16zM180.001 741l117 -148h-100l-74 85l-74 -85h-101l118 148h114z
" />
    <glyph glyph-name="Kcommaaccent" unicode="&#x136;" horiz-adv-x="662" 
d="M76 714h121v-314l299 314h134l-246 -268l273 -446h-137l-221 368l-102 -103v-265h-121v714zM420 -67l-103 -155h-105l79 155h129z" />
    <glyph glyph-name="kcommaaccent" unicode="&#x137;" horiz-adv-x="550" 
d="M176 714v-395l222 201h133l-188 -177l205 -343h-125l-162 278l-85 -76v-202h-111v714h111zM359 -67l-99 -150h-101l76 150h124z" />
    <glyph glyph-name="kgreenlandic" unicode="&#x138;" horiz-adv-x="550" 
d="M176 520v-225l223 225h131l-185 -191l203 -329h-125l-158 262l-89 -87v-175h-111v520h111z" />
    <glyph glyph-name="Lacute" unicode="&#x139;" horiz-adv-x="573" 
d="M197 714v-609h354l-15 -105h-460v714h121zM323 912l-149 -139h-109l123 139h135z" />
    <glyph glyph-name="lacute" unicode="&#x13a;" horiz-adv-x="246" 
d="M180 714v-714h-114v714h114zM311 912l-149 -139h-109l123 139h135z" />
    <glyph glyph-name="Lcommaaccent" unicode="&#x13b;" horiz-adv-x="573" 
d="M197 714v-609h354l-15 -105h-460v714h121zM381 -67l-103 -155h-105l79 155h129z" />
    <glyph glyph-name="lcommaaccent" unicode="&#x13c;" horiz-adv-x="246" 
d="M180 714v-714h-114v714h114zM186 -67l-99 -150h-101l76 150h124z" />
    <glyph glyph-name="Lcaron" unicode="&#x13d;" horiz-adv-x="573" 
d="M197 714v-609h354l-15 -105h-460v714h121zM477.351 715.505l-53.8545 -227.609h-86.3691l30.4834 227.609h109.74z" />
    <glyph glyph-name="lcaron" unicode="&#x13e;" horiz-adv-x="246" 
d="M180 714v-714h-114v714h114zM382 714l-53 -224h-85l30 224h108z" />
    <glyph glyph-name="Ldot" unicode="&#x13f;" horiz-adv-x="573" 
d="M197 714v-609h354l-15 -105h-460v714h121zM472 469v-139h-121v139h121z" />
    <glyph glyph-name="ldot" unicode="&#x140;" horiz-adv-x="389" 
d="M180 714v-714h-114v714h114zM379 442v-139h-121v139h121z" />
    <glyph glyph-name="Lslash" unicode="&#x141;" horiz-adv-x="588" 
d="M10 178v108l81 56v372h121v-291l180 124v-107l-180 -124v-211h354l-15 -105h-460v234z" />
    <glyph glyph-name="lslash" unicode="&#x142;" horiz-adv-x="298" 
d="M2 248v96l91 58v312h113v-244l91 59v-95l-91 -59v-375h-113v308z" />
    <glyph glyph-name="Nacute" unicode="&#x143;" horiz-adv-x="710" 
d="M76 714h112l328 -516v516h118v-714h-112l-329 514v-514h-117v714zM524 912l-149 -139h-109l123 139h135z" />
    <glyph glyph-name="nacute" unicode="&#x144;" horiz-adv-x="581" 
d="M175 520v-76c23.333 32 49.5 55.333 78.5 70s60.167 22 93.5 22c116 0 174 -64 174 -192v-344h-114v326c0 42 -7.66699 71.5 -23 88.5s-38 25.5 -68 25.5c-20 0 -38.5 -3.5 -55.5 -10.5s-31.5 -16.5 -43.5 -28.5s-21.5 -25.833 -28.5 -41.5s-10.5 -32.167 -10.5 -49.5
v-310h-113v520h110zM446 741l-143 -148h-107l117 148h133z" />
    <glyph glyph-name="Ncommaaccent" unicode="&#x145;" horiz-adv-x="710" 
d="M76 714h112l328 -516v516h118v-714h-112l-329 514v-514h-117v714zM434 -67l-103 -155h-105l79 155h129z" />
    <glyph glyph-name="ncommaaccent" unicode="&#x146;" horiz-adv-x="581" 
d="M175 520v-76c23.333 32 49.5 55.333 78.5 70s60.167 22 93.5 22c116 0 174 -64 174 -192v-344h-114v326c0 42 -7.66699 71.5 -23 88.5s-38 25.5 -68 25.5c-20 0 -38.5 -3.5 -55.5 -10.5s-31.5 -16.5 -43.5 -28.5s-21.5 -25.833 -28.5 -41.5s-10.5 -32.167 -10.5 -49.5
v-310h-113v520h110zM363 -67l-99 -150h-101l76 150h124z" />
    <glyph glyph-name="Ncaron" unicode="&#x147;" horiz-adv-x="710" 
d="M76 714h112l328 -516v516h118v-714h-112l-329 514v-514h-117v714zM277 916l75 -76l73 76h101l-118 -140h-114l-118 140h101z" />
    <glyph glyph-name="ncaron" unicode="&#x148;" horiz-adv-x="581" 
d="M175 520v-76c23.333 32 49.5 55.333 78.5 70s60.167 22 93.5 22c116 0 174 -64 174 -192v-344h-114v326c0 42 -7.66699 71.5 -23 88.5s-38 25.5 -68 25.5c-20 0 -38.5 -3.5 -55.5 -10.5s-31.5 -16.5 -43.5 -28.5s-21.5 -25.833 -28.5 -41.5s-10.5 -32.167 -10.5 -49.5
v-310h-113v520h110zM236 593l-118 149h101l74 -86l74 86h100l-117 -149h-114z" />
    <glyph glyph-name="napostrophe" unicode="&#x149;" horiz-adv-x="671" 
d="M265 520v-76c23.333 32 49.5 55.333 78.5 70s60.167 22 93.5 22c116 0 174 -64 174 -192v-344h-114v326c0 42 -7.66699 71.5 -23 88.5s-38 25.5 -68 25.5c-20 0 -38.5 -3.5 -55.5 -10.5s-31.5 -16.5 -43.5 -28.5s-21.5 -25.833 -28.5 -41.5s-10.5 -32.167 -10.5 -49.5
v-310h-113v520h110zM145 714l-57 -232h-87l31 232h113z" />
    <glyph glyph-name="Eng" unicode="&#x14a;" horiz-adv-x="710" 
d="M188 714l327.999 -516.003v516h118v-690c0 -42.667 -6 -78.667 -18 -108s-28.667 -53 -50 -71s-46.5 -30.833 -75.5 -38.5s-60.5 -11.5 -94.5 -11.5c-24 0 -47.167 1.33301 -69.5 4s-44.166 8.33398 -65.499 17.001l26 101c14 -5.33301 29 -9.66602 45 -12.999
s35.667 -5 59 -5c36 0 64.833 8.83301 86.5 26.5s32.5 48.834 32.5 93.501l-317 495v-514h-117v714h112z" />
    <glyph glyph-name="eng" unicode="&#x14b;" horiz-adv-x="581" 
d="M175 520l0.000976562 -76.001c22.667 32 48.667 55.333 78 70s60.666 22 93.999 22c116 0 174 -64 174 -192v-351c0 -58 -12.167 -102.167 -36.5 -132.5s-64.166 -45.5 -119.499 -45.5c-20 0 -38 1.33301 -54 4s-31.667 6.66699 -47 12l17 87
c10 -3.33301 20 -5.66602 30 -6.99902s21 -2 33 -2c23.333 0 39.666 6.66699 48.999 20s14 35.333 14 66v331c0 42.667 -7.66699 72.334 -23 89.001s-38 25 -68 25c-20.667 0 -39.5 -3.66699 -56.5 -11s-31.5 -17 -43.5 -29s-21.333 -25.833 -28 -41.5
s-10 -31.834 -10 -48.501v-310h-113v520h110z" />
    <glyph glyph-name="Omacron" unicode="&#x14c;" horiz-adv-x="772" 
d="M387 -18c-51.333 0 -97.5 8.49707 -138.5 25.4971s-76.167 41.5 -105.5 73.5s-51.833 71.167 -67.5 117.5s-23.5 98.833 -23.5 157.5s8 111.334 24 158.001s38.667 86.167 68 118.5s64.666 57 105.999 74s87 25.5 137 25.5c50.667 0 96.667 -8.5 138 -25.5
s76.333 -41.5 105 -73.5s50.834 -71.167 66.501 -117.5s23.5 -98.833 23.5 -157.5c0 -59.333 -7.66699 -112.166 -23 -158.499s-37.333 -85.666 -66 -117.999s-63.5 -57 -104.5 -74s-87.5 -25.5 -139.5 -25.5zM386 85.9971c68.667 0 120.668 24.167 156.001 72.5
s53 114.5 53 198.5c0 42 -4.5 79.667 -13.5 113s-22.167 61.666 -39.5 84.999s-39 41.333 -65 54s-56.333 19 -91 19s-65 -6.33301 -91 -19s-47.833 -30.667 -65.5 -54s-30.834 -51.666 -39.501 -84.999s-13 -71 -13 -113c0 -84 17.5 -150.167 52.5 -198.5
s87.167 -72.5 156.5 -72.5zM537.001 884.997v-92h-301v92h301z" />
    <glyph glyph-name="omacron" unicode="&#x14d;" horiz-adv-x="609" 
d="M304 76c48 0 83.167 16.499 105.5 49.499s33.5 78.167 33.5 135.5c0 56.667 -11.167 101.334 -33.5 134.001s-57.5 49 -105.5 49s-83.167 -16.5 -105.5 -49.5s-33.5 -77.5 -33.5 -133.5c0 -56.667 10.833 -101.667 32.5 -135s57.167 -50 106.5 -50zM303 -16.001
c-81.333 0 -144.333 23.999 -189 71.999s-67 116 -67 204c0 41.333 5.83301 79 17.5 113s28.5 63 50.5 87s49 42.667 81 56s68.333 20 109 20c41.333 0 78 -6.83301 110 -20.5s58.833 -32.5 80.5 -56.5s38 -52.833 49 -86.5s16.5 -70.5 16.5 -110.5
c0 -45.333 -6.33301 -85.166 -19 -119.499s-30.5 -63.333 -53.5 -87s-50.167 -41.5 -81.5 -53.5s-66 -18 -104 -18zM442 705.998v-89h-276v89h276z" />
    <glyph glyph-name="Obreve" unicode="&#x14e;" horiz-adv-x="772" 
d="M387 -18c-51.333 0 -97.5 8.49707 -138.5 25.4971s-76.167 41.5 -105.5 73.5s-51.833 71.167 -67.5 117.5s-23.5 98.833 -23.5 157.5s8 111.334 24 158.001s38.667 86.167 68 118.5s64.666 57 105.999 74s87 25.5 137 25.5c50.667 0 96.667 -8.5 138 -25.5
s76.333 -41.5 105 -73.5s50.834 -71.167 66.501 -117.5s23.5 -98.833 23.5 -157.5c0 -59.333 -7.66699 -112.166 -23 -158.499s-37.333 -85.666 -66 -117.999s-63.5 -57 -104.5 -74s-87.5 -25.5 -139.5 -25.5zM386 85.9971c68.667 0 120.668 24.167 156.001 72.5
s53 114.5 53 198.5c0 42 -4.5 79.667 -13.5 113s-22.167 61.666 -39.5 84.999s-39 41.333 -65 54s-56.333 19 -91 19s-65 -6.33301 -91 -19s-47.833 -30.667 -65.5 -54s-30.834 -51.666 -39.501 -84.999s-13 -71 -13 -113c0 -84 17.5 -150.167 52.5 -198.5
s87.167 -72.5 156.5 -72.5zM321.001 918.997c0 -26.667 6.49805 -45.667 19.498 -57s28.167 -17 45.5 -17s32.333 5.5 45 16.5s19 30.167 19 57.5h86c0 -49.333 -13.667 -86 -41 -110s-63.666 -36 -108.999 -36c-47.333 0 -84.166 12.333 -110.499 37s-39.5 61 -39.5 109h85
z" />
    <glyph glyph-name="obreve" unicode="&#x14f;" horiz-adv-x="609" 
d="M304 76c48 0 83.167 16.499 105.5 49.499s33.5 78.167 33.5 135.5c0 56.667 -11.167 101.334 -33.5 134.001s-57.5 49 -105.5 49s-83.167 -16.5 -105.5 -49.5s-33.5 -77.5 -33.5 -133.5c0 -56.667 10.833 -101.667 32.5 -135s57.167 -50 106.5 -50zM303 -16.001
c-81.333 0 -144.333 23.999 -189 71.999s-67 116 -67 204c0 41.333 5.83301 79 17.5 113s28.5 63 50.5 87s49 42.667 81 56s68.333 20 109 20c41.333 0 78 -6.83301 110 -20.5s58.833 -32.5 80.5 -56.5s38 -52.833 49 -86.5s16.5 -70.5 16.5 -110.5
c0 -45.333 -6.33301 -85.166 -19 -119.499s-30.5 -63.333 -53.5 -87s-50.167 -41.5 -81.5 -53.5s-66 -18 -104 -18zM240 737.998c0 -27.333 6.33301 -46.666 19 -57.999s27.667 -17 45 -17c16.667 0 31.334 5.66699 44.001 17s19 30.666 19 57.999h84
c0 -49.333 -13.333 -86.333 -40 -111s-62.334 -37 -107.001 -37c-46 0 -81.667 12.5 -107 37.5s-38 61.833 -38 110.5h81z" />
    <glyph glyph-name="Ohungarumlaut" unicode="&#x150;" horiz-adv-x="772" 
d="M387 -18c-51.333 0 -97.5 8.49707 -138.5 25.4971s-76.167 41.5 -105.5 73.5s-51.833 71.167 -67.5 117.5s-23.5 98.833 -23.5 157.5s8 111.334 24 158.001s38.667 86.167 68 118.5s64.666 57 105.999 74s87 25.5 137 25.5c50.667 0 96.667 -8.5 138 -25.5
s76.333 -41.5 105 -73.5s50.834 -71.167 66.501 -117.5s23.5 -98.833 23.5 -157.5c0 -59.333 -7.66699 -112.166 -23 -158.499s-37.333 -85.666 -66 -117.999s-63.5 -57 -104.5 -74s-87.5 -25.5 -139.5 -25.5zM386 85.9971c68.667 0 120.668 24.167 156.001 72.5
s53 114.5 53 198.5c0 42 -4.5 79.667 -13.5 113s-22.167 61.666 -39.5 84.999s-39 41.333 -65 54s-56.333 19 -91 19s-65 -6.33301 -91 -19s-47.833 -30.667 -65.5 -54s-30.834 -51.666 -39.501 -84.999s-13 -71 -13 -113c0 -84 17.5 -150.167 52.5 -198.5
s87.167 -72.5 156.5 -72.5zM476.001 911.997l-144 -139h-102l118 139h128zM671.001 911.997l-144 -139h-101l117 139h128z" />
    <glyph glyph-name="ohungarumlaut" unicode="&#x151;" horiz-adv-x="609" 
d="M304 76c48 0 83.167 16.499 105.5 49.499s33.5 78.167 33.5 135.5c0 56.667 -11.167 101.334 -33.5 134.001s-57.5 49 -105.5 49s-83.167 -16.5 -105.5 -49.5s-33.5 -77.5 -33.5 -133.5c0 -56.667 10.833 -101.667 32.5 -135s57.167 -50 106.5 -50zM303 -16.001
c-81.333 0 -144.333 23.999 -189 71.999s-67 116 -67 204c0 41.333 5.83301 79 17.5 113s28.5 63 50.5 87s49 42.667 81 56s68.333 20 109 20c41.333 0 78 -6.83301 110 -20.5s58.833 -32.5 80.5 -56.5s38 -52.833 49 -86.5s16.5 -70.5 16.5 -110.5
c0 -45.333 -6.33301 -85.166 -19 -119.499s-30.5 -63.333 -53.5 -87s-50.167 -41.5 -81.5 -53.5s-66 -18 -104 -18zM562 740.998l-128 -148h-97l103 148h122zM377 740.998l-128 -148h-97l103 148h122z" />
    <glyph glyph-name="OE" unicode="&#x152;" horiz-adv-x="1069" 
d="M572 364c-0.666992 40 -4.99805 76.1689 -12.998 108.502s-20.167 60 -36.5 83s-36.833 40.833 -61.5 53.5s-53.334 19 -86.001 19c-32 0 -60.333 -6.5 -85 -19.5s-45.334 -31.167 -62.001 -54.5s-29.167 -51.833 -37.5 -85.5s-12.5 -70.834 -12.5 -111.501
c0 -84.667 16.833 -151 50.5 -199s82.5 -72 146.5 -72c34 0 63.5 6.33301 88.5 19s45.5 31 61.5 55s27.833 53.167 35.5 87.5s11.5 73.166 11.5 116.499zM572.002 86.002c-23.333 -33.333 -51 -58.999 -83 -76.999s-72.333 -27 -121 -27c-47.333 0 -90.333 8.5 -129 25.5
s-71.834 41.667 -99.501 74s-49.167 71.666 -64.5 117.999s-23 98.5 -23 156.5c0 56 7.5 107.167 22.5 153.5s36.333 86 64 119s60.834 58.5 99.501 76.5s82 27 130 27s88 -8.83301 120 -26.5s60 -43.167 84 -76.5v85h449v-104h-332v-190h312v-105h-312v-211h351l-14 -104
h-454v86z" />
    <glyph glyph-name="oe" unicode="&#x153;" horiz-adv-x="964" 
d="M808 311c0 42.667 -10 76.332 -30 100.999s-51 37 -93 37c-41.333 0 -72.833 -12.667 -94.5 -38s-34.167 -58.666 -37.5 -99.999h255zM437 260.998c0 56.667 -10.833 101.333 -32.5 134s-56.167 49 -103.5 49s-81.833 -16.5 -103.5 -49.5s-32.5 -77.5 -32.5 -133.5
c0 -57.333 10.667 -102.5 32 -135.5s56 -49.5 104 -49.5c46.667 0 81 16.667 103 50s33 78.333 33 135zM912 153.997c-10 -56 -33.3311 -98.3311 -69.998 -126.998s-88.334 -43 -155.001 -43c-48.667 0 -88.334 9.5 -119.001 28.5s-56 46.5 -76 82.5
c-21.333 -36 -47.166 -63.5 -77.499 -82.5s-68.5 -28.5 -114.5 -28.5c-80 0 -142.167 24 -186.5 72s-66.5 116 -66.5 204c0 42 6 80 18 114s29 63 51 87s48.667 42.5 80 55.5s66.666 19.5 105.999 19.5c46 0 84.5 -9.5 115.5 -28.5s56.5 -46.5 76.5 -82.5
c21.333 36 47.833 63.5 79.5 82.5s69.5 28.5 113.5 28.5c38.667 0 72.667 -6.16699 102 -18.5s53.5 -29.833 72.5 -52.5s33.333 -49.5 43 -80.5s14.5 -65.167 14.5 -102.5v-50h-367c0.666992 -40 9.16699 -72.5 25.5 -97.5s41.5 -40.833 75.5 -47.5
c21.333 -4.66699 40.333 -4.33398 57 0.999023s30.667 16.333 42 33c32 0 59.167 3.16699 81.5 9.5s42.5 14.166 60.5 23.499h18z" />
    <glyph glyph-name="Racute" unicode="&#x154;" horiz-adv-x="643" 
d="M329 384c27.333 0 50.001 2.83105 68.001 8.49805s32.167 13.667 42.5 24s17.666 22.833 21.999 37.5s6.5 31 6.5 49c0 16.667 -2.5 31.834 -7.5 45.501s-13.333 25.334 -25 35.001s-27.167 17.167 -46.5 22.5s-43.333 8 -72 8h-122v-230h134zM320.001 713.998
c54 0 98.5 -6.33398 133.5 -19.001s62.667 -29.167 83 -49.5s34.5 -42.833 42.5 -67.5s12 -49 12 -73c0 -46.667 -9.16699 -85.667 -27.5 -117s-47.833 -56.666 -88.5 -75.999l148 -312h-132l-128 284c-6 -0.666992 -12.333 -1.16699 -19 -1.5s-13.667 -0.5 -21 -0.5h-128
v-282h-119v714h244zM470.001 911.997l-149 -139h-109l123 139h135z" />
    <glyph glyph-name="racute" unicode="&#x155;" horiz-adv-x="393" 
d="M175 520v-77.001c18 27.333 39.667 48.333 65 63s52.333 22 81 22c11.333 0 20.833 -0.333008 28.5 -1s15.167 -1.66699 22.5 -3l-13 -104c-7.33301 2 -15.333 3.33301 -24 4s-17.667 1 -27 1c-21.333 0 -40 -3.5 -56 -10.5s-29.5 -16.167 -40.5 -27.5
s-19.333 -24.166 -25 -38.499s-8.5 -28.833 -8.5 -43.5v-305h-113v520h110zM390 740.999l-143 -148h-107l117 148h133z" />
    <glyph glyph-name="Rcommaaccent" unicode="&#x156;" horiz-adv-x="643" 
d="M329 384c27.333 0 50.001 2.83105 68.001 8.49805s32.167 13.667 42.5 24s17.666 22.833 21.999 37.5s6.5 31 6.5 49c0 16.667 -2.5 31.834 -7.5 45.501s-13.333 25.334 -25 35.001s-27.167 17.167 -46.5 22.5s-43.333 8 -72 8h-122v-230h134zM320.001 713.998
c54 0 98.5 -6.33398 133.5 -19.001s62.667 -29.167 83 -49.5s34.5 -42.833 42.5 -67.5s12 -49 12 -73c0 -46.667 -9.16699 -85.667 -27.5 -117s-47.833 -56.666 -88.5 -75.999l148 -312h-132l-128 284c-6 -0.666992 -12.333 -1.16699 -19 -1.5s-13.667 -0.5 -21 -0.5h-128
v-282h-119v714h244zM405.001 -67.0029l-103 -155h-105l79 155h129z" />
    <glyph glyph-name="rcommaaccent" unicode="&#x157;" horiz-adv-x="393" 
d="M175 520v-77.001c18 27.333 39.667 48.333 65 63s52.333 22 81 22c11.333 0 20.833 -0.333008 28.5 -1s15.167 -1.66699 22.5 -3l-13 -104c-7.33301 2 -15.333 3.33301 -24 4s-17.667 1 -27 1c-21.333 0 -40 -3.5 -56 -10.5s-29.5 -16.167 -40.5 -27.5
s-19.333 -24.166 -25 -38.499s-8.5 -28.833 -8.5 -43.5v-305h-113v520h110zM190 -67.001l-99 -150h-101l76 150h124z" />
    <glyph glyph-name="Rcaron" unicode="&#x158;" horiz-adv-x="643" 
d="M329 384c27.333 0 50.001 2.83105 68.001 8.49805s32.167 13.667 42.5 24s17.666 22.833 21.999 37.5s6.5 31 6.5 49c0 16.667 -2.5 31.834 -7.5 45.501s-13.333 25.334 -25 35.001s-27.167 17.167 -46.5 22.5s-43.333 8 -72 8h-122v-230h134zM320.001 713.998
c54 0 98.5 -6.33398 133.5 -19.001s62.667 -29.167 83 -49.5s34.5 -42.833 42.5 -67.5s12 -49 12 -73c0 -46.667 -9.16699 -85.667 -27.5 -117s-47.833 -56.666 -88.5 -75.999l148 -312h-132l-128 284c-6 -0.666992 -12.333 -1.16699 -19 -1.5s-13.667 -0.5 -21 -0.5h-128
v-282h-119v714h244zM223.001 915.997l75 -76l73 76h101l-118 -140h-114l-118 140h101z" />
    <glyph glyph-name="rcaron" unicode="&#x159;" horiz-adv-x="393" 
d="M175 520v-77.001c18 27.333 39.667 48.333 65 63s52.333 22 81 22c11.333 0 20.833 -0.333008 28.5 -1s15.167 -1.66699 22.5 -3l-13 -104c-7.33301 2 -15.333 3.33301 -24 4s-17.667 1 -27 1c-21.333 0 -40 -3.5 -56 -10.5s-29.5 -16.167 -40.5 -27.5
s-19.333 -24.166 -25 -38.499s-8.5 -28.833 -8.5 -43.5v-305h-113v520h110zM156 592.999l-118 149h101l74 -86l74 86h100l-117 -149h-114z" />
    <glyph glyph-name="Sacute" unicode="&#x15a;" horiz-adv-x="644" 
d="M155 218c5.33301 -46.667 22.1719 -80.668 50.5049 -102.001s70.5 -32 126.5 -32c27.333 0 50.333 3 69 9s33.667 14 45 24s19.333 21.833 24 35.5s7 28.167 7 43.5c0 11.333 -1.66699 22.5 -5 33.5s-9.33301 21.167 -18 30.5s-20.334 17.5 -35.001 24.5
s-33.334 12.5 -56.001 16.5l-91 17c-36 6.66699 -68 15 -96 25s-51.5 23.167 -70.5 39.5s-33.333 36.333 -43 60s-14.5 52.5 -14.5 86.5s6.83301 63.667 20.5 89s32.5 46.5 56.5 63.5s52.5 29.667 85.5 38s68.833 12.5 107.5 12.5c49.333 0 90.666 -5.66699 123.999 -17
s60.333 -26.166 81 -44.499s36.334 -39.5 47.001 -63.5s18 -49 22 -75l-114 -18c-9.33301 40 -25.5 69.667 -48.5 89s-59.5 29 -109.5 29c-28.667 0 -52.5 -2.5 -71.5 -7.5s-34.333 -12 -46 -21s-20 -19.333 -25 -31s-7.5 -23.834 -7.5 -36.501
c0 -31.333 8.5 -54.666 25.5 -69.999s46.833 -27.333 89.5 -36l99 -19c75.333 -14 130.666 -37.833 165.999 -71.5s53 -82.167 53 -145.5c0 -30 -5.5 -57.833 -16.5 -83.5s-27.833 -48 -50.5 -67s-50.834 -34 -84.501 -45s-72.834 -16.5 -117.501 -16.5
c-91.333 0 -163 19.167 -215 57.5s-80.667 97.833 -86 178.5h122zM487.006 911.999l-149 -139h-109l123 139h135z" />
    <glyph glyph-name="sacute" unicode="&#x15b;" horiz-adv-x="530" 
d="M143 159c2 -17.333 6.66211 -31.5029 13.9951 -42.5029s16.5 -19.833 27.5 -26.5s23.833 -11.167 38.5 -13.5s30.334 -3.5 47.001 -3.5c38 0 65.333 5.66699 82 17s25 28 25 50c0 17.333 -5.16699 32 -15.5 44s-31.5 20.667 -63.5 26
c-41.333 7.33301 -77.666 14.333 -108.999 21s-57.666 15.834 -78.999 27.501s-37.333 26.667 -48 45s-16 43.166 -16 74.499c0 24 5.33301 45.833 16 65.5s25.5 36.334 44.5 50.001s41.667 24.167 68 31.5s55.166 11 86.499 11c40 0 73.333 -4 100 -12
s48.334 -19 65.001 -33s29.334 -30 38.001 -48s15.334 -37 20.001 -57l-102 -14c-8 26 -20.167 45.333 -36.5 58s-43.5 19 -81.5 19c-22 0 -40 -2 -54 -6s-25.167 -9 -33.5 -15s-14 -12.667 -17 -20s-4.5 -14.666 -4.5 -21.999c0 -11.333 1.33301 -20.666 4 -27.999
s7.5 -13.333 14.5 -18s16.5 -8.66699 28.5 -12s27 -6.66602 45 -9.99902l65 -11c34.667 -6 63.5 -13.667 86.5 -23s41.333 -20.833 55 -34.5s23.167 -29.5 28.5 -47.5s8 -38 8 -60c0 -47.333 -18 -85.5 -54 -114.5s-90.667 -43.5 -164 -43.5
c-30 0 -58.833 2.83301 -86.5 8.5s-52.5 15.167 -74.5 28.5s-39.833 31.166 -53.5 53.499s-21.5 50.5 -23.5 84.5h109zM434.995 740.997l-143 -148h-107l117 148h133z" />
    <glyph glyph-name="Scircumflex" unicode="&#x15c;" horiz-adv-x="644" 
d="M155 218c5.33301 -46.667 22.1719 -80.668 50.5049 -102.001s70.5 -32 126.5 -32c27.333 0 50.333 3 69 9s33.667 14 45 24s19.333 21.833 24 35.5s7 28.167 7 43.5c0 11.333 -1.66699 22.5 -5 33.5s-9.33301 21.167 -18 30.5s-20.334 17.5 -35.001 24.5
s-33.334 12.5 -56.001 16.5l-91 17c-36 6.66699 -68 15 -96 25s-51.5 23.167 -70.5 39.5s-33.333 36.333 -43 60s-14.5 52.5 -14.5 86.5s6.83301 63.667 20.5 89s32.5 46.5 56.5 63.5s52.5 29.667 85.5 38s68.833 12.5 107.5 12.5c49.333 0 90.666 -5.66699 123.999 -17
s60.333 -26.166 81 -44.499s36.334 -39.5 47.001 -63.5s18 -49 22 -75l-114 -18c-9.33301 40 -25.5 69.667 -48.5 89s-59.5 29 -109.5 29c-28.667 0 -52.5 -2.5 -71.5 -7.5s-34.333 -12 -46 -21s-20 -19.333 -25 -31s-7.5 -23.834 -7.5 -36.501
c0 -31.333 8.5 -54.666 25.5 -69.999s46.833 -27.333 89.5 -36l99 -19c75.333 -14 130.666 -37.833 165.999 -71.5s53 -82.167 53 -145.5c0 -30 -5.5 -57.833 -16.5 -83.5s-27.833 -48 -50.5 -67s-50.834 -34 -84.501 -45s-72.834 -16.5 -117.501 -16.5
c-91.333 0 -163 19.167 -215 57.5s-80.667 97.833 -86 178.5h122zM378.006 911.999l118 -139h-101l-74 75l-74 -75h-101l118 139h114z" />
    <glyph glyph-name="scircumflex" unicode="&#x15d;" horiz-adv-x="530" 
d="M143 159c2 -17.333 6.66211 -31.5029 13.9951 -42.5029s16.5 -19.833 27.5 -26.5s23.833 -11.167 38.5 -13.5s30.334 -3.5 47.001 -3.5c38 0 65.333 5.66699 82 17s25 28 25 50c0 17.333 -5.16699 32 -15.5 44s-31.5 20.667 -63.5 26
c-41.333 7.33301 -77.666 14.333 -108.999 21s-57.666 15.834 -78.999 27.501s-37.333 26.667 -48 45s-16 43.166 -16 74.499c0 24 5.33301 45.833 16 65.5s25.5 36.334 44.5 50.001s41.667 24.167 68 31.5s55.166 11 86.499 11c40 0 73.333 -4 100 -12
s48.334 -19 65.001 -33s29.334 -30 38.001 -48s15.334 -37 20.001 -57l-102 -14c-8 26 -20.167 45.333 -36.5 58s-43.5 19 -81.5 19c-22 0 -40 -2 -54 -6s-25.167 -9 -33.5 -15s-14 -12.667 -17 -20s-4.5 -14.666 -4.5 -21.999c0 -11.333 1.33301 -20.666 4 -27.999
s7.5 -13.333 14.5 -18s16.5 -8.66699 28.5 -12s27 -6.66602 45 -9.99902l65 -11c34.667 -6 63.5 -13.667 86.5 -23s41.333 -20.833 55 -34.5s23.167 -29.5 28.5 -47.5s8 -38 8 -60c0 -47.333 -18 -85.5 -54 -114.5s-90.667 -43.5 -164 -43.5
c-30 0 -58.833 2.83301 -86.5 8.5s-52.5 15.167 -74.5 28.5s-39.833 31.166 -53.5 53.499s-21.5 50.5 -23.5 84.5h109zM321.995 740.997l117 -148h-100l-74 85l-74 -85h-101l118 148h114z" />
    <glyph glyph-name="Scedilla" unicode="&#x15e;" horiz-adv-x="644" 
d="M222 -154c20.667 -4 38 -6.00293 52 -6.00293c22 0 38 2.5 48 7.5s15 13.5 15 25.5c0 11.333 -5 19.5 -15 24.5s-27 7.5 -51 7.5h-29l30 80c-72.667 8 -129.334 30.833 -170.001 68.5s-63.667 92.5 -69 164.5h122c5.33301 -48 22.166 -82.333 50.499 -103
s70.5 -31 126.5 -31c52 0 89.167 10.167 111.5 30.5s33.5 47.5 33.5 81.5c0 26.667 -9 48.834 -27 66.501s-50.667 31.167 -98 40.5l-80 15c-34 4.66699 -64.833 11.834 -92.5 21.501s-51.334 22.834 -71.001 39.501s-34.667 37.334 -45 62.001s-15.5 54 -15.5 88
s6.83301 63.667 20.5 89s32.667 46.5 57 63.5s53 29.667 86 38s68.5 12.5 106.5 12.5c50 0 91.5 -5.66699 124.5 -17s59.667 -26.333 80 -45s35.833 -40 46.5 -64s18.334 -48.667 23.001 -74l-114 -18c-4.66699 20 -10.834 37.333 -18.501 52s-17.667 27 -30 37
s-27.333 17.333 -45 22s-39.167 7 -64.5 7c-28.667 0 -52.667 -2.66699 -72 -8s-34.666 -12.333 -45.999 -21s-19.5 -18.834 -24.5 -30.501s-7.5 -23.834 -7.5 -36.501c0 -32.667 9 -56.834 27 -72.501s49.333 -27.167 94 -34.5l93 -18
c74.667 -14 129.834 -37.833 165.501 -71.5s53.5 -82.167 53.5 -145.5c0 -32 -6.16699 -61 -18.5 -87s-29.833 -48.167 -52.5 -66.5s-50.167 -32.666 -82.5 -42.999s-68.833 -15.5 -109.5 -15.5l-12 -35c17.333 -2 31.833 -5.33301 43.5 -10s21 -10.167 28 -16.5
s12.167 -13.5 15.5 -21.5s5.66602 -16.333 6.99902 -25v-16c-1.33301 -15.333 -5.66602 -28.166 -12.999 -38.499s-17.5 -18.5 -30.5 -24.5s-28.333 -10.167 -46 -12.5s-36.834 -3.5 -57.501 -3.5c-9.33301 0 -18.666 0.5 -27.999 1.5s-19.666 2.16699 -30.999 3.5v62h6z
" />
    <glyph glyph-name="scedilla" unicode="&#x15f;" horiz-adv-x="530" 
d="M169 -147c11.333 -1.33301 20.9961 -2.33594 28.9961 -3.00293s15.667 -1 23 -1c20 0 35.167 2 45.5 6s15.5 12.333 15.5 25c0 10.667 -4.83301 18.334 -14.5 23.001s-26.167 7 -49.5 7h-28l29 77c-26 2.66699 -49.833 7.83398 -71.5 15.501s-40.667 18.5 -57 32.5
s-29.333 31.167 -39 51.5s-15.5 44.5 -17.5 72.5h109c5.33301 -34.667 19.333 -57.667 42 -69s51 -17 85 -17c38 0 65.333 5.66699 82 17s25 28 25 50c0 17.333 -5.16699 32 -15.5 44s-31.5 20.667 -63.5 26c-41.333 7.33301 -77.666 14.333 -108.999 21
s-57.666 15.834 -78.999 27.501s-37.333 26.667 -48 45s-16 43.166 -16 74.499c0 24 5.16699 45.667 15.5 65s25 36 44 50s41.667 24.667 68 32s55.5 11 87.5 11c40.667 0 74.334 -4.16699 101.001 -12.5s48.167 -19.333 64.5 -33s28.833 -29.5 37.5 -47.5
s15.334 -37 20.001 -57l-102 -14c-4 12.667 -8.83301 23.834 -14.5 33.501s-13 17.834 -22 24.501s-20 11.5 -33 14.5s-29.167 4.5 -48.5 4.5c-21.333 0 -39 -1.83301 -53 -5.5s-25.167 -8.5 -33.5 -14.5s-14.166 -12.667 -17.499 -20s-5 -15 -5 -23
c0 -11.333 1.33301 -20.666 4 -27.999s7.5 -13.5 14.5 -18.5s16.5 -9.16699 28.5 -12.5s27 -6.33301 45 -9l65 -11c35.333 -6 64.5 -13.833 87.5 -23.5s41.167 -21.334 54.5 -35.001s22.666 -29.334 27.999 -47.001s8 -37.5 8 -59.5c0 -47.333 -17 -84.5 -51 -111.5
s-85.333 -42.167 -154 -45.5l-11 -33c34 -4 57.5 -13.5 70.5 -28.5s19.5 -32.5 19.5 -52.5c0 -30.667 -12 -52.167 -36 -64.5s-56 -18.5 -96 -18.5c-10 0 -20.333 0.333008 -31 1s-22.667 2 -36 4v61z" />
    <glyph glyph-name="Scaron" unicode="&#x160;" horiz-adv-x="644" 
d="M155 218c5.33301 -46.667 22.1719 -80.668 50.5049 -102.001s70.5 -32 126.5 -32c27.333 0 50.333 3 69 9s33.667 14 45 24s19.333 21.833 24 35.5s7 28.167 7 43.5c0 11.333 -1.66699 22.5 -5 33.5s-9.33301 21.167 -18 30.5s-20.334 17.5 -35.001 24.5
s-33.334 12.5 -56.001 16.5l-91 17c-36 6.66699 -68 15 -96 25s-51.5 23.167 -70.5 39.5s-33.333 36.333 -43 60s-14.5 52.5 -14.5 86.5s6.83301 63.667 20.5 89s32.5 46.5 56.5 63.5s52.5 29.667 85.5 38s68.833 12.5 107.5 12.5c49.333 0 90.666 -5.66699 123.999 -17
s60.333 -26.166 81 -44.499s36.334 -39.5 47.001 -63.5s18 -49 22 -75l-114 -18c-9.33301 40 -25.5 69.667 -48.5 89s-59.5 29 -109.5 29c-28.667 0 -52.5 -2.5 -71.5 -7.5s-34.333 -12 -46 -21s-20 -19.333 -25 -31s-7.5 -23.834 -7.5 -36.501
c0 -31.333 8.5 -54.666 25.5 -69.999s46.833 -27.333 89.5 -36l99 -19c75.333 -14 130.666 -37.833 165.999 -71.5s53 -82.167 53 -145.5c0 -30 -5.5 -57.833 -16.5 -83.5s-27.833 -48 -50.5 -67s-50.834 -34 -84.501 -45s-72.834 -16.5 -117.501 -16.5
c-91.333 0 -163 19.167 -215 57.5s-80.667 97.833 -86 178.5h122zM249.006 915.999l75 -76l73 76h101l-118 -140h-114l-118 140h101z" />
    <glyph glyph-name="scaron" unicode="&#x161;" horiz-adv-x="530" 
d="M143 159c2 -17.333 6.66211 -31.5029 13.9951 -42.5029s16.5 -19.833 27.5 -26.5s23.833 -11.167 38.5 -13.5s30.334 -3.5 47.001 -3.5c38 0 65.333 5.66699 82 17s25 28 25 50c0 17.333 -5.16699 32 -15.5 44s-31.5 20.667 -63.5 26
c-41.333 7.33301 -77.666 14.333 -108.999 21s-57.666 15.834 -78.999 27.501s-37.333 26.667 -48 45s-16 43.166 -16 74.499c0 24 5.33301 45.833 16 65.5s25.5 36.334 44.5 50.001s41.667 24.167 68 31.5s55.166 11 86.499 11c40 0 73.333 -4 100 -12
s48.334 -19 65.001 -33s29.334 -30 38.001 -48s15.334 -37 20.001 -57l-102 -14c-8 26 -20.167 45.333 -36.5 58s-43.5 19 -81.5 19c-22 0 -40 -2 -54 -6s-25.167 -9 -33.5 -15s-14 -12.667 -17 -20s-4.5 -14.666 -4.5 -21.999c0 -11.333 1.33301 -20.666 4 -27.999
s7.5 -13.333 14.5 -18s16.5 -8.66699 28.5 -12s27 -6.66602 45 -9.99902l65 -11c34.667 -6 63.5 -13.667 86.5 -23s41.333 -20.833 55 -34.5s23.167 -29.5 28.5 -47.5s8 -38 8 -60c0 -47.333 -18 -85.5 -54 -114.5s-90.667 -43.5 -164 -43.5
c-30 0 -58.833 2.83301 -86.5 8.5s-52.5 15.167 -74.5 28.5s-39.833 31.166 -53.5 53.499s-21.5 50.5 -23.5 84.5h109zM208.995 592.997l-118 149h101l74 -86l74 86h100l-117 -149h-114z" />
    <glyph glyph-name="uni0162" unicode="&#x162;" horiz-adv-x="610" 
d="M245 609l-225.998 -0.000976562v105h572v-105h-225v-609h-27l-18 -48c33.333 -3.33301 56.833 -12.666 70.5 -27.999s20.5 -33 20.5 -53c0 -30.667 -12.167 -52.167 -36.5 -64.5s-56.166 -18.5 -95.499 -18.5c-10 0 -20.5 0.333008 -31.5 1s-23.167 2 -36.5 4v61l7 -1
c11.333 -1.33301 20.666 -2.33301 27.999 -3s14.666 -1 21.999 -1h15c30 0 45 10.333 45 31c0 10.667 -4.33301 18.167 -13 22.5s-23.334 6.83301 -44.001 7.5h-34l33 90h-26v609z" />
    <glyph glyph-name="uni0163" unicode="&#x163;" horiz-adv-x="363" 
d="M142 -147c11.333 -1.33301 20.6689 -2.33301 28.002 -3s14.666 -1 21.999 -1h15c30 0 45 10.333 45 31c0 10.667 -4.33301 18.167 -13 22.5s-23.334 6.83301 -44.001 7.5h-34l32 86c-36 9.33301 -61.167 28.166 -75.5 56.499s-21.5 66.833 -21.5 115.5v262h-82v90h82v140
h113v-140h129v-90h-129v-272c0 -26.667 5.5 -46 16.5 -58s27.167 -18 48.5 -18c11.333 0 22.166 0.666992 32.499 2s20.5 3.66602 30.5 6.99902l17 -85c-30 -9.33301 -62 -14.666 -96 -15.999l-14 -38c33.333 -3.33301 56.833 -12.666 70.5 -27.999s20.5 -33 20.5 -53
c0 -30.667 -12.167 -52.167 -36.5 -64.5s-56.166 -18.5 -95.499 -18.5c-10 0 -20.5 0.333008 -31.5 1s-23.167 2 -36.5 4v61z" />
    <glyph glyph-name="Tcaron" unicode="&#x164;" horiz-adv-x="610" 
d="M245 609h-226v105h572v-105h-225v-609h-121v609zM231 916l75 -76l73 76h101l-118 -140h-114l-118 140h101z" />
    <glyph glyph-name="tcaron" unicode="&#x165;" horiz-adv-x="363" 
d="M14 430l0.000976562 90.001h82v140h113v-140h129v-90h-129v-272c0 -26.667 5.5 -46 16.5 -58s27.167 -18 48.5 -18c11.333 0 22.166 0.666992 32.499 2s20.5 3.66602 30.5 6.99902l17 -85c-32 -10.667 -66.667 -16 -104 -16c-57.333 0 -97.333 14.833 -120 44.5
s-34 74.167 -34 133.5v262h-82zM388.001 742.001l-49 -165h-77l27 165h99z" />
    <glyph glyph-name="Tbar" unicode="&#x166;" horiz-adv-x="610" 
d="M101 294v101h144v214h-226v105h572v-105h-225v-214h144v-101h-144v-294h-121v294h-144z" />
    <glyph glyph-name="tbar" unicode="&#x167;" horiz-adv-x="363" 
d="M96 317l0.000976562 113.001h-82v90h82v140h113v-140h129v-90h-129v-113h129v-90h-129v-69c0 -27.333 5.5 -46.833 16.5 -58.5s27.167 -17.5 48.5 -17.5c11.333 0 22.166 0.666992 32.499 2s20.5 3.66602 30.5 6.99902l17 -85c-32 -10.667 -66.667 -16 -104 -16
c-57.333 0 -97.333 14.833 -120 44.5s-34 74.167 -34 133.5v59h-82v90h82z" />
    <glyph glyph-name="Utilde" unicode="&#x168;" horiz-adv-x="688" 
d="M185 714l-0.000976562 -428.002c0 -67.333 12.167 -117.5 36.5 -150.5s65.5 -49.5 123.5 -49.5c57.333 0 97.833 16.5 121.5 49.5s35.5 83.167 35.5 150.5v428h121v-428c0 -55.333 -6.66699 -102.166 -20 -140.499s-32.333 -69.666 -57 -93.999s-54 -42 -88 -53
s-72 -16.5 -114 -16.5c-91.333 0 -160.666 24.5 -207.999 73.5s-71 126.833 -71 233.5v425h120zM156.999 775.998c0 44.667 10.1631 77.5 30.4961 98.5s48.5 31.5 84.5 31.5c13.333 0 25.833 -2.5 37.5 -7.5s22.834 -10.667 33.501 -17s21.334 -12 32.001 -17
s21.667 -7.5 33 -7.5c28.667 0 43 15.333 43 46h82c0 -45.333 -10.167 -78.166 -30.5 -98.499s-48.166 -30.5 -83.499 -30.5c-13.333 0 -25.666 2 -36.999 6s-22.333 9 -33 15l-26 15c-7.33301 3.33301 -13.833 6.16602 -19.5 8.49902s-12.167 3.5 -19.5 3.5
c-16 0 -27.5 -3.83301 -34.5 -11.5s-10.5 -19.167 -10.5 -34.5h-82z" />
    <glyph glyph-name="utilde" unicode="&#x169;" horiz-adv-x="574" 
d="M174 520l0.000976562 -327c0 -43.333 7.16699 -73 21.5 -89s36.166 -24 65.499 -24c16 0 32.167 3 48.5 9s30.833 14.667 43.5 26s23 25 31 41s12 34 12 54v310h114v-520h-111v76c-24 -32 -50 -55.333 -78 -70s-58 -22 -90 -22c-60.667 0 -104.167 15.667 -130.5 47
s-39.5 79.333 -39.5 144v345h113zM104.001 603c0 44 9.83398 76.666 29.501 97.999s46.834 32 81.501 32c12 0 23.667 -2.5 35 -7.5s22.5 -10.5 33.5 -16.5s21.833 -11.5 32.5 -16.5s21.667 -7.5 33 -7.5c28 0 42 15 42 45h79c0 -45.333 -9.83301 -78.166 -29.5 -98.499
s-46.5 -30.5 -80.5 -30.5c-12.667 0 -24.667 2 -36 6s-22 8.66699 -32 14l-29 17c-6.66699 3.33301 -12.834 6 -18.501 8s-11.834 3 -18.501 3c-28.667 0 -43 -15.333 -43 -46h-79z" />
    <glyph glyph-name="Umacron" unicode="&#x16a;" horiz-adv-x="688" 
d="M185 714l-0.000976562 -428.002c0 -67.333 12.167 -117.5 36.5 -150.5s65.5 -49.5 123.5 -49.5c57.333 0 97.833 16.5 121.5 49.5s35.5 83.167 35.5 150.5v428h121v-428c0 -55.333 -6.66699 -102.166 -20 -140.499s-32.333 -69.666 -57 -93.999s-54 -42 -88 -53
s-72 -16.5 -114 -16.5c-91.333 0 -160.666 24.5 -207.999 73.5s-71 126.833 -71 233.5v425h120zM493.999 884.998v-92h-301v92h301z" />
    <glyph glyph-name="umacron" unicode="&#x16b;" horiz-adv-x="574" 
d="M174 520l0.000976562 -327c0 -43.333 7.16699 -73 21.5 -89s36.166 -24 65.499 -24c16 0 32.167 3 48.5 9s30.833 14.667 43.5 26s23 25 31 41s12 34 12 54v310h114v-520h-111v76c-24 -32 -50 -55.333 -78 -70s-58 -22 -90 -22c-60.667 0 -104.167 15.667 -130.5 47
s-39.5 79.333 -39.5 144v345h113zM425.001 706v-89h-276v89h276z" />
    <glyph glyph-name="Ubreve" unicode="&#x16c;" horiz-adv-x="688" 
d="M185 714l-0.000976562 -428.002c0 -67.333 12.167 -117.5 36.5 -150.5s65.5 -49.5 123.5 -49.5c57.333 0 97.833 16.5 121.5 49.5s35.5 83.167 35.5 150.5v428h121v-428c0 -55.333 -6.66699 -102.166 -20 -140.499s-32.333 -69.666 -57 -93.999s-54 -42 -88 -53
s-72 -16.5 -114 -16.5c-91.333 0 -160.666 24.5 -207.999 73.5s-71 126.833 -71 233.5v425h120zM277.999 918.998c0 -26.667 6.49805 -45.667 19.498 -57s28.167 -17 45.5 -17s32.333 5.5 45 16.5s19 30.167 19 57.5h86c0 -49.333 -13.667 -86 -41 -110
s-63.666 -36 -108.999 -36c-47.333 0 -84.166 12.333 -110.499 37s-39.5 61 -39.5 109h85z" />
    <glyph glyph-name="ubreve" unicode="&#x16d;" horiz-adv-x="574" 
d="M174 520l0.000976562 -327c0 -43.333 7.16699 -73 21.5 -89s36.166 -24 65.499 -24c16 0 32.167 3 48.5 9s30.833 14.667 43.5 26s23 25 31 41s12 34 12 54v310h114v-520h-111v76c-24 -32 -50 -55.333 -78 -70s-58 -22 -90 -22c-60.667 0 -104.167 15.667 -130.5 47
s-39.5 79.333 -39.5 144v345h113zM223.001 738c0 -27.333 6.33301 -46.666 19 -57.999s27.667 -17 45 -17c16.667 0 31.334 5.66699 44.001 17s19 30.666 19 57.999h84c0 -49.333 -13.333 -86.333 -40 -111s-62.334 -37 -107.001 -37c-46 0 -81.667 12.5 -107 37.5
s-38 61.833 -38 110.5h81z" />
    <glyph glyph-name="Uring" unicode="&#x16e;" horiz-adv-x="688" 
d="M185 714l-0.000976562 -428.002c0 -67.333 12.167 -117.5 36.5 -150.5s65.5 -49.5 123.5 -49.5c57.333 0 97.833 16.5 121.5 49.5s35.5 83.167 35.5 150.5v428h121v-428c0 -55.333 -6.66699 -102.166 -20 -140.499s-32.333 -69.666 -57 -93.999s-54 -42 -88 -53
s-72 -16.5 -114 -16.5c-91.333 0 -160.666 24.5 -207.999 73.5s-71 126.833 -71 233.5v425h120zM342.999 797.998c31.333 0 47 16.668 47 50.001c0 17.333 -4.33301 30.166 -13 38.499s-20 12.5 -34 12.5c-31.333 0 -47 -17 -47 -51c0 -18 4.16699 -30.833 12.5 -38.5
s19.833 -11.5 34.5 -11.5zM230.999 847.999c0 36 10.666 63.502 31.999 82.502s48 28.5 80 28.5c14.667 0 28.834 -2.33301 42.501 -7s25.667 -11.834 36 -21.501s18.5 -21.334 24.5 -35.001s9 -29.5 9 -47.5c0 -20 -3.33301 -37 -10 -51s-15.334 -25.333 -26.001 -34
s-22.667 -15 -36 -19s-26.666 -6 -39.999 -6c-31.333 0 -57.833 9 -79.5 27s-32.5 45.667 -32.5 83z" />
    <glyph glyph-name="uring" unicode="&#x16f;" horiz-adv-x="574" 
d="M174 520l0.000976562 -327c0 -43.333 7.16699 -73 21.5 -89s36.166 -24 65.499 -24c16 0 32.167 3 48.5 9s30.833 14.667 43.5 26s23 25 31 41s12 34 12 54v310h114v-520h-111v76c-24 -32 -50 -55.333 -78 -70s-58 -22 -90 -22c-60.667 0 -104.167 15.667 -130.5 47
s-39.5 79.333 -39.5 144v345h113zM287.001 646c13.333 0 24.167 4 32.5 12s12.5 20.333 12.5 37s-4 29 -12 37s-19 12 -33 12c-30.667 0 -46 -16.333 -46 -49s15.333 -49 46 -49zM178.002 695c0 17.333 2.83203 32.665 8.49902 45.998s13.5 24.5 23.5 33.5
s21.667 15.833 35 20.5s27.333 7 42 7c30 0 55.667 -9.5 77 -28.5s32 -45.167 32 -78.5c0 -19.333 -3.16699 -35.666 -9.5 -48.999s-14.666 -24.166 -24.999 -32.499s-22 -14.5 -35 -18.5s-26.167 -6 -39.5 -6c-30.667 0 -56.5 8.66699 -77.5 26s-31.5 44 -31.5 80z" />
    <glyph glyph-name="Uhungarumlaut" unicode="&#x170;" horiz-adv-x="688" 
d="M185 714l-0.000976562 -428.002c0 -67.333 12.167 -117.5 36.5 -150.5s65.5 -49.5 123.5 -49.5c57.333 0 97.833 16.5 121.5 49.5s35.5 83.167 35.5 150.5v428h121v-428c0 -55.333 -6.66699 -102.166 -20 -140.499s-32.333 -69.666 -57 -93.999s-54 -42 -88 -53
s-72 -16.5 -114 -16.5c-91.333 0 -160.666 24.5 -207.999 73.5s-71 126.833 -71 233.5v425h120zM413.999 911.998l-144 -139h-102l118 139h128zM608.999 911.998l-144 -139h-101l117 139h128z" />
    <glyph glyph-name="uhungarumlaut" unicode="&#x171;" horiz-adv-x="574" 
d="M174 520l0.000976562 -327c0 -43.333 7.16699 -73 21.5 -89s36.166 -24 65.499 -24c16 0 32.167 3 48.5 9s30.833 14.667 43.5 26s23 25 31 41s12 34 12 54v310h114v-520h-111v76c-24 -32 -50 -55.333 -78 -70s-58 -22 -90 -22c-60.667 0 -104.167 15.667 -130.5 47
s-39.5 79.333 -39.5 144v345h113zM539.001 741l-128 -148h-97l103 148h122zM354.001 741l-128 -148h-97l103 148h122z" />
    <glyph glyph-name="Uogonek" unicode="&#x172;" horiz-adv-x="688" 
d="M185 714l-0.00292969 -428c0 -67.333 12.167 -117.5 36.5 -150.5s65.5 -49.5 123.5 -49.5c57.333 0 97.833 16.5 121.5 49.5s35.5 83.167 35.5 150.5v428h121v-428c0 -80.667 -14 -144 -42 -190s-67.333 -78 -118 -96c-21.333 -13.333 -38.5 -27 -51.5 -41
s-19.5 -28.333 -19.5 -43s4 -24.167 12 -28.5s17.333 -6.5 28 -6.5c5.33301 0 9.83301 0.166992 13.5 0.5s9.16699 1.16602 16.5 2.49902v-75c-5.33301 -0.666992 -10.333 -1.16699 -15 -1.5s-9.33398 -0.5 -14.001 -0.5h-17.5c-6.33301 0 -13.166 0.333008 -20.499 1
c-32 1.33301 -55.5 7.83301 -70.5 19.5s-24.5 25.5 -28.5 41.5c-2 8 -3 15.667 -3 23c0 18 4.5 34.167 13.5 48.5s21.833 28.166 38.5 41.499c-8 0.666992 -15.667 1 -23 1s-14.666 0.666992 -21.999 2c-39.333 4 -73.666 12.833 -102.999 26.5
s-53.666 33.334 -72.999 59.001s-34 57.334 -44 95.001s-15 82.167 -15 133.5v415h120z" />
    <glyph glyph-name="uogonek" unicode="&#x173;" horiz-adv-x="574" 
d="M174 520l-0.000976562 -326.999c0 -43.333 7 -73 21 -89s36 -24 66 -24c16 0 32.167 3 48.5 9s30.833 14.667 43.5 26s23 25 31 41s12 34 12 54v310h114v-520c-20.667 -12.667 -37.167 -25.667 -49.5 -39s-18.5 -27.333 -18.5 -42c0 -14 4 -23.167 12 -27.5
s17 -6.5 27 -6.5c5.33301 0 9.83301 0.333008 13.5 1s8.83398 1 15.501 1v-72c-14 -2 -27 -3 -39 -3c-20.667 0 -38 1.33301 -52 4s-25.667 6.66699 -35 12s-16.5 11.833 -21.5 19.5s-8.5 16.167 -10.5 25.5c-2.66699 8.66699 -3.66699 18 -3 28
c1.33301 19.333 8 37.166 20 53.499s28.667 31.5 50 45.5h-20v76c-24 -32 -50 -55.333 -78 -70s-58 -22 -90 -22c-62.667 0 -106.667 16.333 -132 49s-38 82.667 -38 150v337h113z" />
    <glyph glyph-name="Wcircumflex" unicode="&#x174;" horiz-adv-x="950" 
d="M147 714l132 -542l136 538h129l138 -537l128 541h129l-197 -714h-121l-145 562l-143 -562h-117l-205 714h136zM532 912l118 -139h-101l-74 75l-74 -75h-101l118 139h114z" />
    <glyph glyph-name="wcircumflex" unicode="&#x175;" horiz-adv-x="753" 
d="M131 520l88 -380l110 376h104l106 -376l88 380h119l-152 -520h-113l-105 378l-106 -378h-112l-151 520h124zM433 741l117 -148h-100l-74 85l-74 -85h-101l118 148h114z" />
    <glyph glyph-name="Ycircumflex" unicode="&#x176;" horiz-adv-x="635" 
d="M260 297l-248 417h135l172 -310l176 310h128l-243 -417v-297h-120v297zM374 912l118 -139h-101l-74 75l-74 -75h-101l118 139h114z" />
    <glyph glyph-name="ycircumflex" unicode="&#x177;" horiz-adv-x="545" 
d="M71 -92c16.667 -6 35.667 -9 57 -9c20 0 35.667 4.83301 47 14.5s22 27.834 32 54.501l19 50l-219 502h132l143 -375l131 375h124l-207 -525c-12 -30.667 -23.333 -57.667 -34 -81s-22.667 -43 -36 -59s-29.166 -28.167 -47.499 -36.5s-40.833 -12.5 -67.5 -12.5
c-17.333 0 -33.333 1.16699 -48 3.5s-30.334 6.16602 -47.001 11.499zM330 741l117 -148h-100l-74 85l-74 -85h-101l118 148h114z" />
    <glyph glyph-name="Ydieresis" unicode="&#x178;" horiz-adv-x="635" 
d="M260 297l-248 417h135l172 -310l176 310h128l-243 -417v-297h-120v297zM467 902v-116h-112v116h112zM273 902v-116h-112v116h112z" />
    <glyph glyph-name="Zacute" unicode="&#x179;" horiz-adv-x="586" 
d="M27 90l384 520h-377v104h520v-91l-383 -518h397l-14 -105h-527v90zM454 912l-149 -139h-109l123 139h135z" />
    <glyph glyph-name="zacute" unicode="&#x17a;" horiz-adv-x="484" 
d="M310 430h-272v90h415v-80l-277 -350h291l-13 -90h-422v80zM423 741l-143 -148h-107l117 148h133z" />
    <glyph glyph-name="Zdotaccent" unicode="&#x17b;" horiz-adv-x="586" 
d="M27 90l384 520h-377v104h520v-91l-383 -518h397l-14 -105h-527v90zM353 904v-120h-117v120h117z" />
    <glyph glyph-name="zdotaccent" unicode="&#x17c;" horiz-adv-x="484" 
d="M310 430h-272v90h415v-80l-277 -350h291l-13 -90h-422v80zM306 725v-114h-111v114h111z" />
    <glyph glyph-name="Zcaron" unicode="&#x17d;" horiz-adv-x="586" 
d="M27 90l384 520h-377v104h520v-91l-383 -518h397l-14 -105h-527v90zM217 916l75 -76l73 76h101l-118 -140h-114l-118 140h101z" />
    <glyph glyph-name="zcaron" unicode="&#x17e;" horiz-adv-x="484" 
d="M310 430h-272v90h415v-80l-277 -350h291l-13 -90h-422v80zM193 593l-118 149h101l74 -86l74 86h100l-117 -149h-114z" />
    <glyph glyph-name="longs" unicode="&#x17f;" horiz-adv-x="250" 
d="M66 550c0 29.333 4.33301 54.833 13 76.5s20.667 39.5 36 53.5s33.333 24.5 54 31.5s43 10.5 67 10.5c16.667 0 33 -1 49 -3s32.333 -5.66699 49 -11l-16 -85c-21.333 6 -41.333 9 -60 9c-24 0 -43 -6.16699 -57 -18.5s-21 -32.5 -21 -60.5v-553h-114v550z" />
    <glyph glyph-name="florin" unicode="&#x192;" 
d="M0 -68c7.33301 -3.33301 14.502 -5.83301 21.502 -7.5s13.833 -2.83398 20.5 -3.50098c12.667 -2 24.667 -2 36 0c20.667 2 36.167 10.333 46.5 25s18.5 37 24.5 67l78 397h-80l14 94h83l10 48c10.667 50 30 88.333 58 115s69 40.667 123 42h14.5
c4.33301 0 9.16602 -0.333008 14.499 -1c16.667 -1.33301 31.5 -3.5 44.5 -6.5s26.167 -7.16699 39.5 -12.5l-30 -86c-7.33301 2.66699 -14.5 5 -21.5 7s-14.167 3.33301 -21.5 4c-6 0.666992 -12.167 1.16699 -18.5 1.5s-12.833 0.166016 -19.5 -0.500977
c-14 -1.33301 -25.167 -4.66602 -33.5 -9.99902s-15.333 -12.5 -21 -21.5s-10.334 -20.167 -14.001 -33.5s-7.5 -28.666 -11.5 -45.999h126l-14 -94h-131l-83 -427c-10.667 -50 -29.167 -88.5 -55.5 -115.5s-65.833 -41.167 -118.5 -42.5h-15
c-4.66699 0 -9.66699 0.333008 -15 1c-28 2 -54.667 8 -80 18z" />
    <glyph glyph-name="Scommaaccent" unicode="&#x218;" horiz-adv-x="644" 
d="M155 218c5.33301 -46.667 22.1719 -80.668 50.5049 -102.001s70.5 -32 126.5 -32c27.333 0 50.333 3 69 9s33.667 14 45 24s19.333 21.833 24 35.5s7 28.167 7 43.5c0 11.333 -1.66699 22.5 -5 33.5s-9.33301 21.167 -18 30.5s-20.334 17.5 -35.001 24.5
s-33.334 12.5 -56.001 16.5l-91 17c-36 6.66699 -68 15 -96 25s-51.5 23.167 -70.5 39.5s-33.333 36.333 -43 60s-14.5 52.5 -14.5 86.5s6.83301 63.667 20.5 89s32.5 46.5 56.5 63.5s52.5 29.667 85.5 38s68.833 12.5 107.5 12.5c49.333 0 90.666 -5.66699 123.999 -17
s60.333 -26.166 81 -44.499s36.334 -39.5 47.001 -63.5s18 -49 22 -75l-114 -18c-9.33301 40 -25.5 69.667 -48.5 89s-59.5 29 -109.5 29c-28.667 0 -52.5 -2.5 -71.5 -7.5s-34.333 -12 -46 -21s-20 -19.333 -25 -31s-7.5 -23.834 -7.5 -36.501
c0 -31.333 8.5 -54.666 25.5 -69.999s46.833 -27.333 89.5 -36l99 -19c75.333 -14 130.666 -37.833 165.999 -71.5s53 -82.167 53 -145.5c0 -30 -5.5 -57.833 -16.5 -83.5s-27.833 -48 -50.5 -67s-50.834 -34 -84.501 -45s-72.834 -16.5 -117.501 -16.5
c-91.333 0 -163 19.167 -215 57.5s-80.667 97.833 -86 178.5h122zM400.006 -67.001l-103 -155h-105l79 155h129z" />
    <glyph glyph-name="scommaaccent" unicode="&#x219;" horiz-adv-x="530" 
d="M143 159c2 -17.333 6.66211 -31.5029 13.9951 -42.5029s16.5 -19.833 27.5 -26.5s23.833 -11.167 38.5 -13.5s30.334 -3.5 47.001 -3.5c38 0 65.333 5.66699 82 17s25 28 25 50c0 17.333 -5.16699 32 -15.5 44s-31.5 20.667 -63.5 26
c-41.333 7.33301 -77.666 14.333 -108.999 21s-57.666 15.834 -78.999 27.501s-37.333 26.667 -48 45s-16 43.166 -16 74.499c0 24 5.33301 45.833 16 65.5s25.5 36.334 44.5 50.001s41.667 24.167 68 31.5s55.166 11 86.499 11c40 0 73.333 -4 100 -12
s48.334 -19 65.001 -33s29.334 -30 38.001 -48s15.334 -37 20.001 -57l-102 -14c-8 26 -20.167 45.333 -36.5 58s-43.5 19 -81.5 19c-22 0 -40 -2 -54 -6s-25.167 -9 -33.5 -15s-14 -12.667 -17 -20s-4.5 -14.666 -4.5 -21.999c0 -11.333 1.33301 -20.666 4 -27.999
s7.5 -13.333 14.5 -18s16.5 -8.66699 28.5 -12s27 -6.66602 45 -9.99902l65 -11c34.667 -6 63.5 -13.667 86.5 -23s41.333 -20.833 55 -34.5s23.167 -29.5 28.5 -47.5s8 -38 8 -60c0 -47.333 -18 -85.5 -54 -114.5s-90.667 -43.5 -164 -43.5
c-30 0 -58.833 2.83301 -86.5 8.5s-52.5 15.167 -74.5 28.5s-39.833 31.166 -53.5 53.499s-21.5 50.5 -23.5 84.5h109zM339.995 -67.0029l-99 -150h-101l76 150h124z" />
    <glyph glyph-name="uni021A" unicode="&#x21a;" horiz-adv-x="610" 
d="M245 609h-226v105h572v-105h-225v-609h-121v609zM373 -67l-103 -155h-105l79 155h129z" />
    <glyph glyph-name="uni021B" unicode="&#x21b;" horiz-adv-x="363" 
d="M14 430l0.000976562 90.001h82v140h113v-140h129v-90h-129v-272c0 -26.667 5.5 -46 16.5 -58s27.167 -18 48.5 -18c11.333 0 22.166 0.666992 32.499 2s20.5 3.66602 30.5 6.99902l17 -85c-32 -10.667 -66.667 -16 -104 -16c-57.333 0 -97.333 14.833 -120 44.5
s-34 74.167 -34 133.5v262h-82zM291.001 -66.999l-99 -150h-101l76 150h124z" />
    <glyph glyph-name="dotlessj" unicode="&#x237;" horiz-adv-x="246" 
d="M-61 -82c20 -6 41.334 -9 64.001 -9c25.333 0 42.166 8.33301 50.499 25s12.5 41 12.5 73v513h114v-524c0 -58.667 -12.167 -103.5 -36.5 -134.5s-64.5 -46.5 -120.5 -46.5c-35.333 0 -69 5.33301 -101 16z" />
    <glyph glyph-name="apostrophe" unicode="&#x2bc;" horiz-adv-x="339" 
d="M178 714l-57 -232h-87l31 232h113z" />
    <glyph glyph-name="circumflex" unicode="&#x2c6;" horiz-adv-x="403" 
d="M258 741l117 -148h-100l-74 85l-74 -85h-101l118 148h114z" />
    <glyph glyph-name="caron" unicode="&#x2c7;" horiz-adv-x="403" 
d="M144 593l-118 149h101l74 -86l74 86h100l-117 -149h-114z" />
    <glyph glyph-name="uni02C9" unicode="&#x2c9;" horiz-adv-x="403" 
d="M339 706v-89h-276v89h276z" />
    <glyph glyph-name="breve" unicode="&#x2d8;" horiz-adv-x="403" 
d="M137 738c0 -27.333 6.33301 -46.666 19 -57.999s27.667 -17 45 -17c16.667 0 31.334 5.66699 44.001 17s19 30.666 19 57.999h84c0 -49.333 -13.333 -86.333 -40 -111s-62.334 -37 -107.001 -37c-46 0 -81.667 12.5 -107 37.5s-38 61.833 -38 110.5h81z" />
    <glyph glyph-name="dotaccent" unicode="&#x2d9;" horiz-adv-x="403" 
d="M257 725v-114h-111v114h111z" />
    <glyph glyph-name="ring" unicode="&#x2da;" horiz-adv-x="403" 
d="M201 646c13.333 0 24.167 4 32.5 12s12.5 20.333 12.5 37s-4 29 -12 37s-19 12 -33 12c-30.667 0 -46 -16.333 -46 -49s15.333 -49 46 -49zM92.001 695c0 17.333 2.83203 32.665 8.49902 45.998s13.5 24.5 23.5 33.5s21.667 15.833 35 20.5s27.333 7 42 7
c30 0 55.667 -9.5 77 -28.5s32 -45.167 32 -78.5c0 -19.333 -3.16699 -35.666 -9.5 -48.999s-14.666 -24.166 -24.999 -32.499s-22 -14.5 -35 -18.5s-26.167 -6 -39.5 -6c-30.667 0 -56.5 8.66699 -77.5 26s-31.5 44 -31.5 80z" />
    <glyph glyph-name="ogonek" unicode="&#x2db;" horiz-adv-x="403" 
d="M281 -185c-5.33301 -1.33301 -10.335 -2.00293 -15.002 -2.00293h-14c-4.66699 0 -9.5 -0.166992 -14.5 -0.5s-10.5 -0.166016 -16.5 0.500977c-20.667 0.666992 -37.667 3.33398 -51 8.00098s-23.666 10.834 -30.999 18.501s-12.5 16.334 -15.5 26.001
s-4.5 19.5 -4.5 29.5c0 39.333 23.667 74.333 71 105h91c-20 -12.667 -36.167 -25.667 -48.5 -39s-18.5 -27.333 -18.5 -42c0 -12.667 3.16699 -21.167 9.5 -25.5s13.833 -6.83301 22.5 -7.5c3.33301 -0.666992 6.33301 -0.833984 9 -0.500977s5.66699 0.5 9 0.5
c2.66699 0 5.33398 0.166992 8.00098 0.5s5.66699 0.5 9 0.5v-72z" />
    <glyph glyph-name="tilde" unicode="&#x2dc;" horiz-adv-x="403" 
d="M18 603c0 44 9.83398 76.666 29.501 97.999s46.834 32 81.501 32c12 0 23.667 -2.5 35 -7.5s22.5 -10.5 33.5 -16.5s21.833 -11.5 32.5 -16.5s21.667 -7.5 33 -7.5c28 0 42 15 42 45h79c0 -45.333 -9.83301 -78.166 -29.5 -98.499s-46.5 -30.5 -80.5 -30.5
c-12.667 0 -24.667 2 -36 6s-22 8.66699 -32 14l-29 17c-6.66699 3.33301 -12.834 6 -18.501 8s-11.834 3 -18.501 3c-28.667 0 -43 -15.333 -43 -46h-79z" />
    <glyph glyph-name="hungarumlaut" unicode="&#x2dd;" horiz-adv-x="403" 
d="M406 741l-128 -148h-97l103 148h122zM221 741l-128 -148h-97l103 148h122z" />
    <glyph glyph-name="tonos" unicode="&#x384;" horiz-adv-x="403" 
d="M288 754l-95 -161h-91l70 161h116z" />
    <glyph glyph-name="dieresistonos" unicode="&#x385;" horiz-adv-x="363" 
d="M253 746l-55 -146h-86l35 146h106zM72 716v-96h-94v96h94zM373 716v-96h-94v96h94z" />
    <glyph glyph-name="Alphatonos" unicode="&#x386;" horiz-adv-x="694" 
d="M290 714h120l272 -714h-129l-67 182h-277l-66 -182h-125zM453 283l-106 294l-105 -294h211zM196 714l-83 -154h-91l58 154h116z" />
    <glyph glyph-name="Epsilontonos" unicode="&#x388;" horiz-adv-x="768" 
d="M245 714h475v-104h-354v-190h334v-105h-334v-211h373l-14 -104h-480v714zM177 714l-83 -154h-91l58 154h116z" />
    <glyph glyph-name="Etatonos" unicode="&#x389;" horiz-adv-x="884" 
d="M245 714h121v-289h321v289h121v-714h-121v313h-321v-313h-121v714zM177 714l-83 -154h-91l58 154h116z" />
    <glyph glyph-name="Iotatonos" unicode="&#x38a;" horiz-adv-x="442" 
d="M245 714h121v-714h-121v714zM177 714l-83 -154h-91l58 154h116z" />
    <glyph glyph-name="Omicrontonos" unicode="&#x38c;" horiz-adv-x="882" 
d="M497 -18c-51.333 0 -97.5 8.49707 -138.5 25.4971s-76.167 41.5 -105.5 73.5s-51.833 71.167 -67.5 117.5s-23.5 98.833 -23.5 157.5s8 111.334 24 158.001s38.667 86.167 68 118.5s64.666 57 105.999 74s87 25.5 137 25.5c50.667 0 96.667 -8.5 138 -25.5
s76.333 -41.5 105 -73.5s50.834 -71.167 66.501 -117.5s23.5 -98.833 23.5 -157.5c0 -59.333 -7.66699 -112.166 -23 -158.499s-37.333 -85.666 -66 -117.999s-63.5 -57 -104.5 -74s-87.5 -25.5 -139.5 -25.5zM496 85.9971c68.667 0 120.668 24.167 156.001 72.5
s53 114.5 53 198.5c0 42 -4.5 79.667 -13.5 113s-22.167 61.666 -39.5 84.999s-39 41.333 -65 54s-56.333 19 -91 19s-65 -6.33301 -91 -19s-47.833 -30.667 -65.5 -54s-30.834 -51.666 -39.501 -84.999s-13 -71 -13 -113c0 -84 17.5 -150.167 52.5 -198.5
s87.167 -72.5 156.5 -72.5zM180.001 713.997l-83 -154h-91l58 154h116z" />
    <glyph glyph-name="Upsilontonos" unicode="&#x38e;" horiz-adv-x="838" 
d="M463 297l-248 417h135l172 -310l176 310h128l-243 -417v-297h-120v297zM177 714l-83 -154h-91l58 154h116z" />
    <glyph glyph-name="Omegatonos" unicode="&#x38f;" horiz-adv-x="837" 
d="M270 99c-34 35.333 -60.833 75.665 -80.5 120.998s-29.5 98.666 -29.5 159.999c0 57.333 7.66699 108 23 152s36.833 80.833 64.5 110.5s60.667 52 99 67s80.5 22.5 126.5 22.5s87.833 -7.33301 125.5 -22s70 -36.5 97 -65.5s47.833 -65.167 62.5 -108.5
s22 -93.666 22 -150.999c0 -63.333 -9.83301 -117.666 -29.5 -162.999s-47.5 -86.333 -83.5 -123h139l-14 -99h-257v91c46 32 78 72.833 96 122.5s27 105.834 27 168.501c0 80 -15 142 -45 186s-76.667 66 -140 66c-66.667 0 -115.334 -22 -146.001 -66s-46 -106 -46 -186
c0 -63.333 9.33301 -119.333 28 -168s50.334 -89.667 95.001 -123v-91h-269v99h135zM177 713.999l-83 -154h-91l58 154h116z" />
    <glyph glyph-name="iotadieresistonos" unicode="&#x390;" horiz-adv-x="297" 
d="M67 520h114.002v-363c0 -25.333 3.66699 -44.333 11 -57s21.666 -19 42.999 -19c9.33301 0 18.333 0.833008 27 2.5s15.667 3.16699 21 4.5l16 -85c-8.66699 -3.33301 -21.834 -6.5 -39.501 -9.5s-37.167 -4.5 -58.5 -4.5c-47.333 0 -81.5 13 -102.5 39
s-31.5 62.667 -31.5 110v382zM228.002 746l-55 -146h-86l35 146h106zM47.002 716v-96h-94v96h94zM348.002 716v-96h-94v96h94z" />
    <glyph glyph-name="Alpha" unicode="&#x391;" horiz-adv-x="686" 
d="M283 714h120l272 -714h-129l-67 182h-277l-66 -182h-125zM446 283l-106 294l-105 -294h211z" />
    <glyph glyph-name="Beta" unicode="&#x392;" horiz-adv-x="640" 
d="M76 714l246.997 0.000976562c52 0 94.667 -4.83301 128 -14.5s59.833 -23 79.5 -40s33.167 -37 40.5 -60s11 -47.5 11 -73.5c0 -30 -6.66699 -57.833 -20 -83.5s-37.666 -46.834 -72.999 -63.501c22.667 -10 41.334 -21.333 56.001 -34s26.334 -26.167 35.001 -40.5
s14.667 -29.333 18 -45s5 -31.5 5 -47.5c0 -29.333 -4.5 -57 -13.5 -83s-23.833 -48.5 -44.5 -67.5s-47.667 -34 -81 -45s-74.333 -16.5 -123 -16.5h-265v714zM336.997 421.001c47.333 0 80.333 8.66699 99 26s28 42.333 28 75c0 34 -10.833 58.5 -32.5 73.5
s-59.167 22.5 -112.5 22.5h-126v-197h144zM336.997 97.001c28.667 0 52.5 2.66699 71.5 8s34 13 45 23s18.833 22 23.5 36s7 29.667 7 47c0 36 -10.167 63.5 -30.5 82.5s-55.5 28.5 -105.5 28.5h-155v-225h144z" />
    <glyph glyph-name="Gamma" unicode="&#x393;" horiz-adv-x="534" 
d="M76 714h446v-105h-325v-609h-121v714z" />
    <glyph glyph-name="uni0394" unicode="&#x394;" horiz-adv-x="672" 
d="M334 582l-171 -478h341zM278 714h118l266 -714h-651z" />
    <glyph glyph-name="Epsilon" unicode="&#x395;" horiz-adv-x="599" 
d="M76 714h475v-104h-354v-190h334v-105h-334v-211h373l-14 -104h-480v714z" />
    <glyph glyph-name="Zeta" unicode="&#x396;" horiz-adv-x="586" 
d="M27 90l384 520h-377v104h520v-91l-383 -518h397l-14 -105h-527v90z" />
    <glyph glyph-name="Eta" unicode="&#x397;" horiz-adv-x="715" 
d="M76 714h121v-289h321v289h121v-714h-121v313h-321v-313h-121v714z" />
    <glyph glyph-name="Theta" unicode="&#x398;" horiz-adv-x="772" 
d="M250 418h275v-103h-275v103zM387 -18c-51.333 0 -97.5 8.49707 -138.5 25.4971s-76.167 41.5 -105.5 73.5s-51.833 71.167 -67.5 117.5s-23.5 98.833 -23.5 157.5s8 111.334 24 158.001s38.667 86.167 68 118.5s64.666 57 105.999 74s87 25.5 137 25.5
c50.667 0 96.667 -8.5 138 -25.5s76.333 -41.5 105 -73.5s50.834 -71.167 66.501 -117.5s23.5 -98.833 23.5 -157.5c0 -59.333 -7.66699 -112.166 -23 -158.499s-37.333 -85.666 -66 -117.999s-63.5 -57 -104.5 -74s-87.5 -25.5 -139.5 -25.5zM386 85.9971
c68.667 0 120.668 24.167 156.001 72.5s53 114.5 53 198.5c0 42 -4.5 79.667 -13.5 113s-22.167 61.666 -39.5 84.999s-39 41.333 -65 54s-56.333 19 -91 19s-65 -6.33301 -91 -19s-47.833 -30.667 -65.5 -54s-30.834 -51.666 -39.501 -84.999s-13 -71 -13 -113
c0 -84 17.5 -150.167 52.5 -198.5s87.167 -72.5 156.5 -72.5z" />
    <glyph glyph-name="Iota" unicode="&#x399;" horiz-adv-x="272" 
d="M76 714h121v-714h-121v714z" />
    <glyph glyph-name="Kappa" unicode="&#x39a;" horiz-adv-x="662" 
d="M76 714h121v-314l299 314h134l-246 -268l273 -446h-137l-221 368l-102 -103v-265h-121v714z" />
    <glyph glyph-name="Lambda" unicode="&#x39b;" horiz-adv-x="680" 
d="M669 0h-135l-196 556l-198 -556h-129l270 714h117z" />
    <glyph glyph-name="Mu" unicode="&#x39c;" horiz-adv-x="853" 
d="M76 714h147l203 -568l209 568h142v-714h-111v519l-196 -519h-96l-189 518v-518h-109v714z" />
    <glyph glyph-name="Nu" unicode="&#x39d;" horiz-adv-x="710" 
d="M76 714h112l328 -516v516h118v-714h-112l-329 514v-514h-117v714z" />
    <glyph glyph-name="Xi" unicode="&#x39e;" horiz-adv-x="567" 
d="M65 423h436v-110h-436v110zM45 714h476v-110h-476v110zM533 110l-15 -110h-478v110h493z" />
    <glyph glyph-name="Omicron" unicode="&#x39f;" horiz-adv-x="772" 
d="M387 -18c-51.333 0 -97.5 8.49707 -138.5 25.4971s-76.167 41.5 -105.5 73.5s-51.833 71.167 -67.5 117.5s-23.5 98.833 -23.5 157.5s8 111.334 24 158.001s38.667 86.167 68 118.5s64.666 57 105.999 74s87 25.5 137 25.5c50.667 0 96.667 -8.5 138 -25.5
s76.333 -41.5 105 -73.5s50.834 -71.167 66.501 -117.5s23.5 -98.833 23.5 -157.5c0 -59.333 -7.66699 -112.166 -23 -158.499s-37.333 -85.666 -66 -117.999s-63.5 -57 -104.5 -74s-87.5 -25.5 -139.5 -25.5zM386 85.9971c68.667 0 120.668 24.167 156.001 72.5
s53 114.5 53 198.5c0 42 -4.5 79.667 -13.5 113s-22.167 61.666 -39.5 84.999s-39 41.333 -65 54s-56.333 19 -91 19s-65 -6.33301 -91 -19s-47.833 -30.667 -65.5 -54s-30.834 -51.666 -39.501 -84.999s-13 -71 -13 -113c0 -84 17.5 -150.167 52.5 -198.5
s87.167 -72.5 156.5 -72.5z" />
    <glyph glyph-name="Pi" unicode="&#x3a0;" horiz-adv-x="700" 
d="M503 609h-306v-609h-121v714h548v-714h-121v609z" />
    <glyph glyph-name="Rho" unicode="&#x3a1;" horiz-adv-x="633" 
d="M76 714h247.001c54 0 98.5 -6 133.5 -18s62.5 -28 82.5 -48s34 -43.167 42 -69.5s12 -53.833 12 -82.5c0 -30.667 -4 -60 -12 -88s-22.167 -52.5 -42.5 -73.5s-47.833 -37.667 -82.5 -50s-78.334 -18.5 -131.001 -18.5h-130v-266h-119v714zM322.001 367
c30.667 0 55.8359 3.00098 75.5029 9.00098s35.167 14.5 46.5 25.5s19.166 24.167 23.499 39.5s6.5 32.666 6.5 51.999c0 20 -2.33301 37.5 -7 52.5s-12.834 27.5 -24.501 37.5s-27.334 17.667 -47.001 23s-44.5 8 -74.5 8h-126v-247h127z" />
    <glyph glyph-name="Sigma" unicode="&#x3a3;" horiz-adv-x="581" 
d="M261 357l-227 266v91h514v-105h-360l206 -247l-222 -257h390l-14 -105h-521v90z" />
    <glyph glyph-name="Tau" unicode="&#x3a4;" horiz-adv-x="610" 
d="M245 609h-226v105h572v-105h-225v-609h-121v609z" />
    <glyph glyph-name="Upsilon" unicode="&#x3a5;" horiz-adv-x="635" 
d="M260 297l-248 417h135l172 -310l176 310h128l-243 -417v-297h-120v297z" />
    <glyph glyph-name="Phi" unicode="&#x3a6;" horiz-adv-x="850" 
d="M367 89c-47.333 4 -90.666 12.499 -129.999 25.499s-73 31.5 -101 55.5s-49.833 53.5 -65.5 88.5s-23.5 76.167 -23.5 123.5c0 48.667 7.83301 91.167 23.5 127.5s37.5 67 65.5 92s61.667 44.333 101 58s82.666 22.167 129.999 25.5v79h116v-79
c46.667 -3.33301 89.5 -11.666 128.5 -24.999s72.667 -32.333 101 -57s50.5 -55 66.5 -91s24 -78.333 24 -127c0 -48 -8.33301 -89.667 -25 -125s-39.5 -65 -68.5 -89s-63 -42.5 -102 -55.5s-80.5 -21.5 -124.5 -25.5v-90h-116v89zM681 384.999
c0 60.667 -16.1689 108.169 -48.502 142.502s-82.166 54.833 -149.499 61.5v-404c66.667 7.33301 116.334 27.166 149.001 59.499s49 79.166 49 140.499zM168.998 386.001c0 -64.667 16.999 -112.5 50.999 -143.5s83 -50.167 147 -57.5v404
c-67.333 -6.66699 -117.166 -27 -149.499 -61s-48.5 -81.333 -48.5 -142z" />
    <glyph glyph-name="Chi" unicode="&#x3a7;" horiz-adv-x="661" 
d="M259 377l-232 337h138l164 -250l166 250h130l-230 -342l258 -372h-139l-190 282l-184 -282h-131z" />
    <glyph glyph-name="Psi" unicode="&#x3a8;" horiz-adv-x="838" 
d="M182 714v-217.997c0 -70.667 15 -122.834 45 -156.501s74.333 -52.5 133 -56.5v431h120v-430c57.333 4 101.166 22.833 131.499 56.5s45.5 85.5 45.5 155.5v218h119v-211c0 -50 -7 -94.167 -21 -132.5s-33.833 -70.666 -59.5 -96.999s-56.667 -46.833 -93 -61.5
s-77.166 -23.334 -122.499 -26.001v-186h-120v185c-44 2.66699 -84.167 10.667 -120.5 24s-67.5 32.666 -93.5 57.999s-46.333 57.666 -61 96.999s-22 86.333 -22 141v209h119z" />
    <glyph glyph-name="Omega" unicode="&#x3a9;" horiz-adv-x="740" 
d="M170 99c-34 35.333 -60.833 75.665 -80.5 120.998s-29.5 98.666 -29.5 159.999c0 57.333 7.66699 108 23 152s36.833 80.833 64.5 110.5s60.667 52 99 67s80.5 22.5 126.5 22.5s87.833 -7.33301 125.5 -22s70 -36.5 97 -65.5s47.833 -65.167 62.5 -108.5
s22 -93.666 22 -150.999c0 -63.333 -9.83301 -117.666 -29.5 -162.999s-47.5 -86.333 -83.5 -123h139l-14 -99h-257v91c46 32 78 72.833 96 122.5s27 105.834 27 168.501c0 80 -15 142 -45 186s-76.667 66 -140 66c-66.667 0 -115.334 -22 -146.001 -66s-46 -106 -46 -186
c0 -63.333 9.33301 -119.333 28 -168s50.334 -89.667 95.001 -123v-91h-269v99h135z" />
    <glyph glyph-name="Iotadieresis" unicode="&#x3aa;" horiz-adv-x="272" 
d="M76 714h121v-714h-121v714zM290 914v-116h-112v116h112zM96 914v-116h-112v116h112z" />
    <glyph glyph-name="Upsilondieresis" unicode="&#x3ab;" horiz-adv-x="635" 
d="M260 297l-248 417h135l172 -310l176 310h128l-243 -417v-297h-120v297zM471 914v-116h-112v116h112zM277 914v-116h-112v116h112z" />
    <glyph glyph-name="alphatonos" unicode="&#x3ac;" horiz-adv-x="689" 
d="M535 253l32.001 -108.002c7.33301 -25.333 15.166 -43 23.499 -53s21.166 -15 38.499 -15c6.66699 0 13.5 0.833008 20.5 2.5s13.167 3.5 18.5 5.5l20 -82c-12 -5.33301 -25.167 -9.66602 -39.5 -12.999s-28.166 -5 -41.499 -5s-25.666 1.33301 -36.999 4
s-21.833 7.5 -31.5 14.5s-18.5 16.5 -26.5 28.5s-15 27.667 -21 47l-23 70c-8 -19.333 -17.5 -38.833 -28.5 -58.5s-24.167 -37.334 -39.5 -53.001s-33.5 -28.5 -54.5 -38.5s-45.5 -15 -73.5 -15c-38 0 -71.333 6.83301 -100 20.5s-52.5 32.5 -71.5 56.5
s-33.167 52.5 -42.5 85.5s-14 68.833 -14 107.5c0 42 5 80.333 15 115s25.167 64.334 45.5 89.001s45.666 43.834 75.999 57.501s65.833 20.5 106.5 20.5c26.667 0 50 -3.66699 70 -11s37.5 -18.333 52.5 -33s28.167 -32.667 39.5 -54s22 -46 32 -74l55 156h112z
M280.001 75.998c16.667 0 31.6641 3.50098 44.9971 10.501s25.833 17.667 37.5 32s23.167 33 34.5 56s23 50.5 35 82.5c-9.33301 32 -18.5 59.667 -27.5 83s-19.167 42.666 -30.5 57.999s-24.166 26.833 -38.499 34.5s-31.166 11.5 -50.499 11.5
c-42 0 -72.833 -17 -92.5 -51s-29.5 -80.333 -29.5 -139c0 -25.333 2.5 -48.833 7.5 -70.5s12.333 -40.5 22 -56.5s21.834 -28.5 36.501 -37.5s31.667 -13.5 51 -13.5zM427.998 753.999l-95 -161h-91l70 161h116z" />
    <glyph glyph-name="epsilontonos" unicode="&#x3ad;" horiz-adv-x="545" 
d="M64 388c0 44.667 18.665 80.499 55.998 107.499s93 40.5 167 40.5c126.667 0 199 -50.333 217 -151l-103 -18c-5.33301 24.667 -16.166 44.334 -32.499 59.001s-43.833 22 -82.5 22c-38 0 -66 -6.33301 -84 -19s-27 -30 -27 -52c0 -45.333 29.667 -68 89 -68h101v-87h-99
c-34 0 -59.667 -5.66699 -77 -17s-26 -29.666 -26 -54.999c0 -26 9.33301 -45.333 28 -58s49.334 -19 92.001 -19c44 0 74.833 7.16699 92.5 21.5s27.5 36.166 29.5 65.499h108c-1.33301 -55.333 -21 -98.5 -59 -129.5s-95.667 -46.5 -173 -46.5
c-76 0 -133.667 14.167 -173 42.5s-59 68.5 -59 120.5c0 35.333 9.33301 63.333 28 84s41 34.667 67 42c-25.333 10 -45 24.667 -59 44s-21 43 -21 71zM410.998 753.999l-95 -161h-91l70 161h116z" />
    <glyph glyph-name="etatonos" unicode="&#x3ae;" horiz-adv-x="582" 
d="M65 520h111v-76c23.333 32 49.666 55.333 78.999 70s60 22 92 22c116 0 174 -64 174 -192v-538h-114v520c0 42.667 -7.66699 72.334 -23 89.001s-38 25 -68 25c-35.333 0 -67 -12.333 -95 -37c-13.333 -12 -23.666 -25.333 -30.999 -40s-11 -32.334 -11 -53.001v-310
h-114v520zM452 754l-95 -161h-91l70 161h116z" />
    <glyph glyph-name="iotatonos" unicode="&#x3af;" horiz-adv-x="297" 
d="M67 520h114.002v-363c0 -25.333 3.66699 -44.333 11 -57s21.666 -19 42.999 -19c9.33301 0 18.333 0.833008 27 2.5s15.667 3.16699 21 4.5l16 -85c-8.66699 -3.33301 -21.834 -6.5 -39.501 -9.5s-37.167 -4.5 -58.5 -4.5c-47.333 0 -81.5 13 -102.5 39
s-31.5 62.667 -31.5 110v382zM266.002 754l-95 -161h-91l70 161h116z" />
    <glyph glyph-name="upsilondieresistonos" unicode="&#x3b0;" horiz-adv-x="560" 
d="M280 -16c-35.333 0 -66.833 4.16699 -94.5 12.5s-51.167 22 -70.5 41s-34 43.833 -44 74.5s-15 68 -15 112v296h114v-296c0 -49.333 8.83301 -85.833 26.5 -109.5s45.5 -35.5 83.5 -35.5c38.667 0 66.667 11.833 84 35.5s26 60.167 26 109.5v296h114v-296
c0 -44 -5.16699 -81.333 -15.5 -112s-25.166 -55.5 -44.499 -74.5s-42.833 -32.667 -70.5 -41s-58.834 -12.5 -93.501 -12.5zM356 746l-55 -146h-86l35 146h106zM175 716v-96h-94v96h94zM476 716v-96h-94v96h94z" />
    <glyph glyph-name="alpha" unicode="&#x3b1;" horiz-adv-x="689" 
d="M535 253l32.001 -108.002c7.33301 -25.333 15.166 -43 23.499 -53s21.166 -15 38.499 -15c6.66699 0 13.5 0.833008 20.5 2.5s13.167 3.5 18.5 5.5l20 -82c-12 -5.33301 -25.167 -9.66602 -39.5 -12.999s-28.166 -5 -41.499 -5s-25.666 1.33301 -36.999 4
s-21.833 7.5 -31.5 14.5s-18.5 16.5 -26.5 28.5s-15 27.667 -21 47l-23 70c-8 -19.333 -17.5 -38.833 -28.5 -58.5s-24.167 -37.334 -39.5 -53.001s-33.5 -28.5 -54.5 -38.5s-45.5 -15 -73.5 -15c-38 0 -71.333 6.83301 -100 20.5s-52.5 32.5 -71.5 56.5
s-33.167 52.5 -42.5 85.5s-14 68.833 -14 107.5c0 42 5 80.333 15 115s25.167 64.334 45.5 89.001s45.666 43.834 75.999 57.501s65.833 20.5 106.5 20.5c26.667 0 50 -3.66699 70 -11s37.5 -18.333 52.5 -33s28.167 -32.667 39.5 -54s22 -46 32 -74l55 156h112z
M280.001 75.998c16.667 0 31.6641 3.50098 44.9971 10.501s25.833 17.667 37.5 32s23.167 33 34.5 56s23 50.5 35 82.5c-9.33301 32 -18.5 59.667 -27.5 83s-19.167 42.666 -30.5 57.999s-24.166 26.833 -38.499 34.5s-31.166 11.5 -50.499 11.5
c-42 0 -72.833 -17 -92.5 -51s-29.5 -80.333 -29.5 -139c0 -25.333 2.5 -48.833 7.5 -70.5s12.333 -40.5 22 -56.5s21.834 -28.5 36.501 -37.5s31.667 -13.5 51 -13.5z" />
    <glyph glyph-name="beta" unicode="&#x3b2;" horiz-adv-x="598" 
d="M65 506c0 70.667 20.168 124.333 60.501 161s95.833 55 166.5 55c36 0 67.333 -4.5 94 -13.5s48.667 -21.333 66 -37s30.333 -34.334 39 -56.001s13 -45.167 13 -70.5c0 -37.333 -8.16699 -68.166 -24.5 -92.499s-37.833 -43.5 -64.5 -57.5
c42 -12 75.833 -33.833 101.5 -65.5s38.5 -74.167 38.5 -127.5c0 -38.667 -6.33301 -71.667 -19 -99s-29.167 -49.5 -49.5 -66.5s-43.333 -29.5 -69 -37.5s-51.834 -12 -78.501 -12c-32 0 -62.667 6 -92 18s-54 31 -74 57v-256h-108v700zM173.001 236.999
c0 -31.333 4.50098 -57.333 13.501 -78s20.667 -37.167 35 -49.5s30.166 -21 47.499 -26s34.333 -7.5 51 -7.5c38.667 0 68.834 10.5 90.501 31.5s32.5 53.5 32.5 97.5c0 42 -12.333 73.833 -37 95.5s-63.334 32.5 -116.001 32.5h-38v88h29c35.333 0 62.833 9.33301 82.5 28
s29.5 46.667 29.5 84c0 32 -8.5 56.667 -25.5 74s-42.167 26 -75.5 26c-42 0 -72.333 -12 -91 -36s-28 -59.333 -28 -106v-254z" />
    <glyph glyph-name="gamma" unicode="&#x3b3;" horiz-adv-x="544" 
d="M214 23l-207 497h132l135 -371l137 371h126l-209 -500v-214h-114v217z" />
    <glyph glyph-name="delta" unicode="&#x3b4;" horiz-adv-x="587" 
d="M45 224c0 56 15.335 103.495 46.002 142.495s70.334 67.833 119.001 86.5c-16.667 10 -30.834 19.667 -42.501 29s-21.334 19 -29.001 29s-13.167 20.833 -16.5 32.5s-5 24.834 -5 39.501c0 18.667 4 36.334 12 53.001s20 31.334 36 44.001s36.167 22.834 60.5 30.501
s53.166 11.5 86.499 11.5c66.667 0 117 -13.833 151 -41.5s54 -65.834 60 -114.501l-103 -12c-6 30 -18.167 51.167 -36.5 63.5s-42.5 18.5 -72.5 18.5s-52.167 -4.5 -66.5 -13.5s-21.5 -21.167 -21.5 -36.5c0 -12.667 3.33301 -22.667 10 -30
s19.334 -16.666 38.001 -27.999l119 -69c24 -14 45.5 -28.5 64.5 -43.5s35.167 -31.667 48.5 -50s23.5 -39 30.5 -62s10.5 -48.833 10.5 -77.5c0 -32 -5.16699 -62.5 -15.5 -91.5s-26 -54.667 -47 -77s-47.333 -40.166 -79 -53.499s-68.834 -20 -111.501 -20
c-35.333 0 -68 5.33301 -98 16s-56 26.167 -78 46.5s-39.167 45.5 -51.5 75.5s-18.5 64 -18.5 102zM279.002 410.995c-40 -17.333 -69.333 -42.333 -88 -75s-28 -69.667 -28 -111c0 -51.333 12.5 -89 37.5 -113s56.167 -36 93.5 -36c44 0 77 13.667 99 41s33 62.333 33 105
s-9.16699 77 -27.5 103s-48.5 49.667 -90.5 71z" />
    <glyph glyph-name="epsilon" unicode="&#x3b5;" horiz-adv-x="545" 
d="M64 388c0 44.667 18.665 80.499 55.998 107.499s93 40.5 167 40.5c126.667 0 199 -50.333 217 -151l-103 -18c-5.33301 24.667 -16.166 44.334 -32.499 59.001s-43.833 22 -82.5 22c-38 0 -66 -6.33301 -84 -19s-27 -30 -27 -52c0 -45.333 29.667 -68 89 -68h101v-87h-99
c-34 0 -59.667 -5.66699 -77 -17s-26 -29.666 -26 -54.999c0 -26 9.33301 -45.333 28 -58s49.334 -19 92.001 -19c44 0 74.833 7.16699 92.5 21.5s27.5 36.166 29.5 65.499h108c-1.33301 -55.333 -21 -98.5 -59 -129.5s-95.667 -46.5 -173 -46.5
c-76 0 -133.667 14.167 -173 42.5s-59 68.5 -59 120.5c0 35.333 9.33301 63.333 28 84s41 34.667 67 42c-25.333 10 -45 24.667 -59 44s-21 43 -21 71z" />
    <glyph glyph-name="zeta" unicode="&#x3b6;" horiz-adv-x="487" 
d="M45 238c0 36.667 7.49902 72.499 22.499 107.499s35 68.833 60 101.5s53.667 63.667 86 93s65.5 57 99.5 83h-240v91h397v-78c-40.667 -28.667 -79.5 -58.834 -116.5 -90.501s-69.667 -64.334 -98 -98.001s-50.833 -67.667 -67.5 -102s-25 -68.5 -25 -102.5
c0 -20.667 2.16699 -38.667 6.5 -54s11.5 -28.666 21.5 -39.999s22.833 -21.166 38.5 -29.499s34.834 -15.833 57.501 -22.5l65 -20c52 -16 88.833 -34.833 110.5 -56.5s32.5 -50.167 32.5 -85.5c0 -30 -8 -57.167 -24 -81.5s-33 -43.833 -51 -58.5l-67 57
c10 10 18.667 20.5 26 31.5s11 23.167 11 36.5c0 15.333 -6.66699 27.833 -20 37.5s-34.333 18.834 -63 27.501l-74 22c-35.333 10 -64.833 22.333 -88.5 37s-43 31.5 -58 50.5s-25.667 40.5 -32 64.5s-9.5 50.333 -9.5 79z" />
    <glyph glyph-name="eta" unicode="&#x3b7;" horiz-adv-x="582" 
d="M65 520h111v-76c23.333 32 49.666 55.333 78.999 70s60 22 92 22c116 0 174 -64 174 -192v-538h-114v520c0 42.667 -7.66699 72.334 -23 89.001s-38 25 -68 25c-35.333 0 -67 -12.333 -95 -37c-13.333 -12 -23.666 -25.333 -30.999 -40s-11 -32.334 -11 -53.001v-310
h-114v520z" />
    <glyph glyph-name="theta" unicode="&#x3b8;" horiz-adv-x="598" 
d="M298 -17c-80.667 0 -142.999 29.833 -186.999 89.5s-66 151.834 -66 276.501s22.667 218 68 280s108.333 93 189 93c82.667 0 145.167 -30.667 187.5 -92s63.5 -155 63.5 -281c0 -124.667 -22.333 -216.834 -67 -276.501s-107.334 -89.5 -188.001 -89.5zM300.001 630
c-25.333 0 -46.501 -5.5 -63.501 -16.5s-31 -26.667 -42 -47s-19.333 -44.666 -25 -72.999s-9.16699 -59.833 -10.5 -94.5h279c-1.33301 34.667 -4.66602 66.167 -9.99902 94.5s-13.333 52.666 -24 72.999s-24.5 36 -41.5 47s-37.833 16.5 -62.5 16.5zM301 75
c24.667 0 45.334 5.5 62.001 16.5s30.334 26.5 41.001 46.5s18.667 44.333 24 73s8.66602 60.667 9.99902 96h-279c2 -35.333 5.83301 -67.333 11.5 -96s14.167 -53 25.5 -73s25.666 -35.5 42.999 -46.5s38 -16.5 62 -16.5z" />
    <glyph glyph-name="iota" unicode="&#x3b9;" horiz-adv-x="297" 
d="M67 520h114.002v-363c0 -25.333 3.66699 -44.333 11 -57s21.666 -19 42.999 -19c9.33301 0 18.333 0.833008 27 2.5s15.667 3.16699 21 4.5l16 -85c-8.66699 -3.33301 -21.834 -6.5 -39.501 -9.5s-37.167 -4.5 -58.5 -4.5c-47.333 0 -81.5 13 -102.5 39
s-31.5 62.667 -31.5 110v382z" />
    <glyph glyph-name="kappa" unicode="&#x3ba;" horiz-adv-x="549" 
d="M65 520h111v-226l222 226h131l-184 -191l202 -329h-125l-157 261l-89 -88v-173h-111v520z" />
    <glyph glyph-name="lambda" unicode="&#x3bb;" horiz-adv-x="545" 
d="M537 0h-129l-133 394l-143 -394h-125l219 520l-18 45c-9.33301 25.333 -20 42.333 -32 51s-26.333 13 -43 13c-8 0 -16.5 -0.833008 -25.5 -2.5s-18.167 -4.16699 -27.5 -7.5l-25 85c13.333 5.33301 28 10 44 14s32.667 6 50 6c37.333 0 69 -8.66699 95 -26
s47.667 -49 65 -95z" />
    <glyph glyph-name="uni03BC" unicode="&#x3bc;" horiz-adv-x="578" 
d="M178 520l-0.000976562 -322.001c0 -42 6.5 -72.167 19.5 -90.5s36.5 -27.5 70.5 -27.5c10 0 19.333 0.833008 28 2.5s17.334 4.83398 26.001 9.50098c8 4 16.5 9.33301 25.5 16s17.5 14.667 25.5 24s14.5 20 19.5 32s7.5 25.667 7.5 41v315h114v-520h-111v75
c-38.667 -58.667 -86.667 -88 -144 -88c-15.333 0 -30 1.66699 -44 5s-26.333 11.333 -37 24v-210h-113v714h113z" />
    <glyph glyph-name="nu" unicode="&#x3bd;" horiz-adv-x="544" 
d="M139 520l135 -392l137 392h126l-207 -520h-117l-206 520h132z" />
    </font>
</defs>
</svg>
