<svg xmlns="http://www.w3.org/2000/svg" xmlns:xlink="http://www.w3.org/1999/xlink"  width="100%" height="100%"  viewBox="0 0 130 130">
    <defs>
        <path id="a" d="M0 0h130v130H0z"/>
        <rect id="c" width="136" height="135.954" rx="67.977"/>
        <rect id="d" width="112.985" height="112.947" x="12.554" y="12.55" rx="56.473"/>
    </defs>
    <g fill="none" fill-rule="evenodd">
        <mask id="b" fill="#fff">
            <use xlink:href="#a"/>
        </mask>
        <use fill="#FFF" fill-rule="nonzero" xlink:href="#a"/>
        <g mask="url(#b)">
            <g transform="translate(-3 -3)">
                <use fill="#FFF" fill-rule="nonzero" xlink:href="#c"/>
                <mask id="e" fill="#fff">
                    <use xlink:href="#d"/>
                </mask>
                <use fill="#EFF5FE" fill-rule="nonzero" xlink:href="#d"/>
                <path fill="#FFF" fill-rule="nonzero" d="M44.181 40.142L68.41 23.56l20.197 8.291 4.791 9.397v11.697l-7.033 13.084-9.638 8.3v5.512h18.635l10.373 8.73L111 96.564l-3.981 8.394-11.658 10.55-31.925 7.545-20.245-6.298-17.139-12.826v-5.912l7.756-13.415 13.545-3.849 12.949-.912V74.33l-8.907-6.377-7.214-17.711z" mask="url(#e)"/>
                <g fill-rule="nonzero" mask="url(#e)">
                    <g transform="translate(3.138 6.275)">
                        <path fill="#4285F4" stroke="#4285F4" stroke-width=".905" d="M118.97 64.871c0-29.808-24.234-57.9-54.053-57.9-29.818 0-54.872 25.139-54.872 54.947 0 11.068 4.12 24.32 9.852 32.898l.37.584c.324.474.674.923 1.012 1.384.137.188.273.377.413.564a54.55 54.55 0 0 0 1.713 2.15 54.088 54.088 0 0 0 6.837 6.837c.15.124.297.25.449.374.537.438 1.08.867 1.633 1.283.223.17.45.334.676.5.526.385 1.053.767 1.593 1.133.289.196.588.38.88.571.75.487 1.507.957 2.279 1.404.537.314 1.076.625 1.625.92.332.18.671.345 1.006.516a51.863 51.863 0 0 0 2.675 1.276c.69.306 1.39.596 2.095.874.218.086.434.175.654.26a53.57 53.57 0 0 0 5.952 1.866c1.149.278 2.055.474 2.971.649.243.047.487.088.73.132l1.053.187c.216.034.432.06.649.09.407.05.506.063.604.076.295.04.589.077.885.113.715.083 1.435.148 2.16.202.15.01.302.029.452.04.173.01.347.023.52.034 1.032.058 2.066.095 3.11.095a55.49 55.49 0 0 0 3.108-.095c.178-.01.357-.023.535-.036.151-.01.303-.029.456-.04a56.001 56.001 0 0 0 2.143-.2c.296-.034.592-.074.885-.113.118-.017.235-.03.35-.045.496-.065.701-.09.903-.123l1.011-.142c.287-.09.53-.132.774-.179a53.769 53.769 0 0 0 8.923-2.516c.22-.082.438-.172.658-.259a56.19 56.19 0 0 0 2.997-1.28 51.863 51.863 0 0 0 1.77-.868c.337-.17.674-.338 1.006-.515a55.4 55.4 0 0 0 1.626-.92c.772-.45 1.53-.918 2.279-1.405.293-.19.59-.374.88-.57a54.322 54.322 0 0 0 1.593-1.134c.225-.166.452-.33.676-.5a55.489 55.489 0 0 0 1.633-1.282l.449-.375a54.235 54.235 0 0 0 7.228-7.309c.449-.55.89-1.108 1.32-1.678.14-.185.274-.374.412-.564.34-.461.689-.91 1.013-1.384l.373-.546c5.727-8.615 9.077-18.913 9.077-29.98zm-1.1 0c0 7.961-3.778 17.976-7.52 24.678-.469.84-1-.815-1.458-.002-2.896-9.6-11.403-16.56-21.604-17.374l-2.006-.094H74.566a.66.66 0 0 1-.66-.658V70.26c0-.33.269-.546.497-.634 11.607-4.363 18.846-22.46 17.329-35.117-.792-6.592-4.056-12.482-8.802-16.75-5.567-4.955-15.984-4.955-15.984-10.787 0-5.832 22.121 6.132 24.136 7.74 6.044 4.823 16.825 12.585 22.163 22.446 4.901 9.052 4.625 20.082 4.625 27.714zm-12.35 29.895c-.146.196-.292.391-.44.586a51.516 51.516 0 0 1-1.23 1.564c-.043.052-.088.102-.131.155a51.026 51.026 0 0 1-4.707 4.942c-.099.092-.198.186-.299.276a50.914 50.914 0 0 1-2.019 1.726c-.503.41-1.01.811-1.527 1.2-.174.132-.355.256-.531.386-.298.218-.599.43-.902.64v-8.934H90.13v11.231a47.454 47.454 0 0 1-1.599.894c-.319.17-.643.334-.968.498-.544.273-1.092.538-1.645.792-.27.125-.54.25-.812.368-.694.303-1.395.591-2.101.863-.146.056-.289.117-.435.171a50.32 50.32 0 0 1-5.521 1.712c-.135.034-.272.062-.408.094-.776.186-1.559.355-2.347.503-.183.034-.37.066-.555.099l-3.145-20.83h1.51v-4.441l8.06 5.37 7.522-18.798c9.516 1.072 17.168 8.42 18.47 18.041-.21.3-.417.598-.635.892zm-52.376 19.166c-.135-.033-.27-.062-.406-.094a50.743 50.743 0 0 1-5.523-1.712c-.146-.054-.29-.115-.434-.171a46.82 46.82 0 0 1-2.913-1.23 51.105 51.105 0 0 1-1.646-.794c-.325-.164-.649-.326-.968-.497-.467-.247-.927-.51-1.386-.771-.07-.042-.143-.081-.213-.123V97.307H36.05v8.934a62.7 62.7 0 0 1-.901-.64c-.177-.13-.357-.254-.532-.385a51.834 51.834 0 0 1-1.525-1.199c-.166-.133-.33-.268-.494-.403a46.32 46.32 0 0 1-1.525-1.323c-.103-.092-.202-.187-.303-.28a50.771 50.771 0 0 1-4.705-4.94c-.043-.053-.088-.103-.131-.155a51.516 51.516 0 0 1-1.23-1.564 45.1 45.1 0 0 1-.44-.586c-.216-.294-.423-.593-.634-.892 1.305-9.62 8.955-16.97 18.471-18.041l7.522 18.798 8.06-5.37v4.442h1.514l-3.1 20.841c-.202-.036-.404-.07-.604-.108a51.297 51.297 0 0 1-2.35-.504zm3.621-47.635c-8.62-3.188-15.306-17.914-15.306-28.455 0-.231.027-.456.035-.685l1.32-1.627c2.975-3.54 8.055-4.552 12.639-2.523a14.283 14.283 0 0 0 5.835 1.23c5.355 0 10.166-2.91 12.668-7.539 5.736 1.883 10.856 5.433 14.318 9.907.528 10.992-5.937 26.188-15.138 29.646-1.723.65-2.835 2.222-2.835 4.008v1.162a4.27 4.27 0 0 0 3.432 4.18l-3.075 3.686h-11.53l-3.075-3.689a4.268 4.268 0 0 0 3.432-4.177v-1.144c0-1.777-1.09-3.377-2.72-3.98zm15.338 16.886l6.253-7.5h5.506l-5.396 13.486-6.363-4.238v-1.748zm-2.947 31.942c-.487.041-.975.088-1.458.117-.927.05-1.859.084-2.792.084-.062 0-.125-.005-.186-.005a50.382 50.382 0 0 1-2.614-.08c-.476-.026-.955-.073-1.435-.113-.335-.029-.668-.056-1.002-.092l3.173-21.333h4.104l3.22 21.33c-.336.034-.673.063-1.01.092zm-.658-25.026h-7.21V82.89h7.21v7.208zm-10.815-6.916v1.748l-6.362 4.24-5.395-13.488h5.505l6.252 7.5zm5.159-75.52c-.088.079 1.62.879 0 1.923-4.782 3.083-16.799 8.875-17.05 9.124-5.119 5.109-7.938 11.9-7.938 19.132 0 11.945 7.553 28.098 17.66 31.833.215.081.366.328.366.602v1.144a.66.66 0 0 1-.658.658H43.523a1.9 1.9 0 0 0-.506.07c-10.428.618-19.176 7.639-22.121 17.4-.553-.98-1.528.065-2.1-.954-3.692-6.573-7.087-15.968-7.087-23.724 0-9.714 2.09-22.781 8.557-31.864C35.473 11.647 51.321 8.73 62.842 7.663z"/>
                        <path stroke="#4285F4" stroke-linecap="square" stroke-width="4.708" d="M61.33 92.684l-3.66 21.962M68.392 92.684l3.662 21.962M37.923 98.937v8.672M92.062 98.937v8.672"/>
                        <ellipse cx="64.893" cy="62.968" stroke="#FFF" stroke-width="6.277" rx="54.078" ry="54.059"/>
                        <path fill="#4285F4" stroke="#4285F4" stroke-width=".905" d="M64.965 10.488c.941.005 1.808.054 2.637.15 8.94.996 18.378 7.293 21.31 15.554-3.813-3.32-10.415-5.952-15.442-7.334l-1.55-.425-.6 1.488a10.774 10.774 0 0 1-10.032 6.781c-1.523 0-2.996-.31-4.375-.92-4.986-2.206-12.703-1.275-16.725 1.65 1.105-3.652 3.995-7.318 6.772-10.09 4.424-4.413 11.678-6.854 18.005-6.854z"/>
                        <rect width="4.916" height="3.66" x="55.061" y="45.213" fill="#4285F4" rx="1.83"/>
                        <path stroke="#4285F4" stroke-linecap="round" stroke-width="2.95" d="M60.363 58.679c1.592.482 3.103.723 4.535.723s2.953-.241 4.565-.723"/>
                        <rect width="4.916" height="3.66" x="68.826" y="45.213" fill="#4285F4" rx="1.83"/>
                        <path fill="#4285F4" d="M87.962 76.319a9.288 9.288 0 0 0-1.233-.108c-.311 0-1.494-.028-3.548-.084L78.24 88.51l-6.432-4.306 6.748-8.077c-1.58-.053-2.89-.105-3.933-.158-1.043-.054-1.602-.096-1.677-.128l-3.037 3.59.535 9.386 9.957 6.566 7.562-19.064zM41.662 76.319a9.556 9.556 0 0 1 1.25-.108c.316 0 1.516-.028 3.6-.084l5.014 12.383 6.524-4.306-6.846-8.077c1.603-.053 2.933-.105 3.991-.158 1.058-.054 1.625-.096 1.7-.128l3.082 3.59-.543 9.386-10.101 6.566-7.671-19.064z"/>
                        <path fill="#FFF" stroke="#4285F4" stroke-width="4.708" d="M59.369 81.05h10.985v10.979H59.369z"/>
                    </g>
                </g>
                <ellipse cx="68.101" cy="68.568" stroke="#BCD6FF" stroke-width="3.662" rx="57.758" ry="57.739" transform="rotate(-104 68.101 68.568)"/>
            </g>
        </g>
    </g>
</svg>
