<svg xmlns="http://www.w3.org/2000/svg" width="100%" height="100%"  viewBox="0 0 131 131">
    <g fill="none" fill-rule="nonzero">
        <path fill="#FFF" d="M0 0h130v130H0z"/>
        <g transform="translate(15 14)">
            <ellipse cx="48.814" cy="50.66" fill="#4285F4" opacity=".082" rx="48.305" ry="48.45"/>
            <path fill="#FFF" d="M11.623 1.843v55.841l-5.09 6.929-3.816 8.845 1.13 6.89 6.2 2.698 1.576 2.184v6.959h84.574V47.016h-8.061v-8.774H66.008V10.734L11.623.504z"/>
            <path stroke="#96C823" stroke-linecap="square" stroke-width="3.39" d="M11.158 91.504V75.93"/>
            <path stroke="#5F6C8E" stroke-width="3.39" d="M.293 92.531h99.702M9.293 99.695h79.702"/>
            <path stroke="#5F6C8E" stroke-linecap="square" stroke-width="3.39" d="M11.158 48.154V.28l54.867 10.156v20.79"/>
            <path stroke="#96C823" stroke-linecap="square" stroke-width="3.39" d="M11.017 84.049c4.812 0 8.713-3.913 8.713-8.739 0-3.218-2.905-9.371-8.713-18.461-5.809 9.09-8.713 15.243-8.713 18.461 0 4.826 3.901 8.739 8.713 8.739z"/>
            <path stroke="#4285F4" stroke-width="3.39" d="M17.797 55.42h3.39M17.797 11.05h3.39M17.797 25.84h3.39M17.797 18.445h3.39M17.797 33.235h3.39M17.797 40.63h3.39M17.797 48.025h3.39M25.424 55.42h3.39M25.424 11.05h3.39M25.424 62.815h3.39M25.424 25.84h3.39M25.424 18.445h3.39M25.424 70.21h3.39M25.424 33.235h3.39M25.424 77.605h3.39M25.424 40.63h3.39M25.424 85h3.39M25.424 48.025h3.39M33.05 55.42h3.39M33.05 62.815h3.39M33.05 25.84h3.39M33.05 18.445h3.39M33.05 70.21h3.39M33.05 33.235h3.39M33.05 77.605h3.39M33.05 40.63h3.39M33.05 85h3.39M33.05 48.025h3.39"/>
            <path fill="#4285F4" d="M40.678 57.115v-3.39h3.39v3.39zM40.678 64.51v-3.39h3.39v3.39zM40.678 27.535v-3.39h3.39v3.39zM40.678 20.14v-3.39h3.39v3.39zM40.678 71.905v-3.39h3.39v3.39zM40.678 34.93v-3.39h3.39v3.39zM40.678 79.3v-3.39h3.39v3.39zM40.678 42.325v-3.39h3.39v3.39zM40.678 86.695v-3.39h3.39v3.39zM40.678 49.72v-3.39h3.39v3.39zM48.678 57.115v-3.39h3.39v3.39zM48.678 64.51v-3.39h3.39v3.39zM48.678 27.535v-3.39h3.39v3.39zM48.678 20.14v-3.39h3.39v3.39zM48.678 71.905v-3.39h3.39v3.39zM48.678 34.93v-3.39h3.39v3.39zM48.678 79.3v-3.39h3.39v3.39zM48.678 42.325v-3.39h3.39v3.39zM56.678 27.535v-3.39h3.39v3.39zM56.678 20.14v-3.39h3.39v3.39zM56.678 34.93v-3.39h3.39v3.39zM56.678 42.325v-3.39h3.39v3.39zM48.678 86.695v-3.39h3.39v3.39zM48.678 49.72v-3.39h3.39v3.39z"/>
            <path stroke="#5F6C8E" stroke-linecap="square" stroke-width="3.39" d="M58.39 91.8V47.6h34.746v44.2M66.017 38.25h19.492v8.5H66.017z"/>
            <path stroke="#4285F4" stroke-width="2.7" d="M66.017 56.1h19.491M66.017 62.9h19.491M66.017 69.7h19.491M66.017 76.5h19.491M66.017 83.3h19.491"/>
        </g>
    </g>
</svg>
