<?xml version="1.0" encoding="utf-8"?>
<!-- Generator: Adobe Illustrator 22.1.0, SVG Export Plug-In . SVG Version: 6.00 Build 0)  -->
<svg version="1.1" id="Слой_1" xmlns="http://www.w3.org/2000/svg" xmlns:xlink="http://www.w3.org/1999/xlink" x="0px" y="0px"
	 viewBox="0 0 15 15" width="15" height="15" style="enable-background:new 0 0 15 15;" xml:space="preserve">
<g>
	<path d="M7.5,7.5c2.1,0,3.8-1.7,3.8-3.8C11.3,1.6,9.6,0,7.5,0S3.7,1.7,3.7,3.8C3.7,5.9,5.4,7.5,7.5,7.5z"/>
	<path d="M14.9,13.4c-0.8-1.9-2.3-3.4-4.2-4.2C6.6,7.5,1.8,9.4,0.1,13.5C0,13.6,0,13.7,0,13.9C0,14.5,0.5,15,1.1,15h12.8
		c0.2,0,0.3,0,0.4-0.1C14.9,14.7,15.2,14,14.9,13.4z"/>
</g>
</svg>
