<?xml version="1.0" encoding="utf-8"?>
<!-- Generator: Adobe Illustrator 22.1.0, SVG Export Plug-In . SVG Version: 6.00 Build 0)  -->
<svg version="1.1" id="Слой_1" xmlns="http://www.w3.org/2000/svg" xmlns:xlink="http://www.w3.org/1999/xlink" x="0px" y="0px"
	 viewBox="0 0 11 15" width="11" height="15" style="enable-background:new 0 0 11 15;" xml:space="preserve">
<path d="M8.9,0H2.1C0.9,0,0,0.9,0,2.1h0v10.8C0,14.1,0.9,15,2.1,15h6.8c1.1,0,2.1-0.9,2.1-2.1V2.1C11,0.9,10.1,0,8.9,0z M4.4,12.2
	c0,0.3-0.2,0.5-0.5,0.5H2.6c-0.3,0-0.5-0.2-0.5-0.5v-1.3c0-0.3,0.2-0.5,0.5-0.5h1.3c0.3,0,0.5,0.2,0.5,0.5V12.2z M4.4,8.2
	c0,0.3-0.2,0.5-0.5,0.5H2.7c-0.3,0-0.5-0.2-0.5-0.5V6.9c0-0.3,0.2-0.5,0.5-0.5h1.3c0.3,0,0.5,0.2,0.5,0.5V8.2z M4.4,4
	c0,0.3-0.2,0.5-0.5,0.5H2.7C2.4,4.5,2.2,4.3,2.2,4V2.8c0-0.3,0.2-0.5,0.5-0.5h1.3c0.3,0,0.5,0.2,0.5,0.5V4z M8.7,12.2
	c0,0.3-0.2,0.5-0.5,0.5H7c-0.3,0-0.5-0.2-0.5-0.5v-1.3c0-0.3,0.2-0.5,0.5-0.5h1.3c0.3,0,0.5,0.2,0.5,0.5V12.2z M8.7,8.2
	c0,0.3-0.2,0.5-0.5,0.5H7c-0.3,0-0.5-0.2-0.5-0.5V6.9c0-0.3,0.2-0.5,0.5-0.5h1.3c0.3,0,0.5,0.2,0.5,0.5V8.2z M8.3,4.5
	C8.3,4.5,8.3,4.5,8.3,4.5L8.3,4.5H7C6.7,4.5,6.5,4.3,6.5,4V2.8c0-0.3,0.2-0.5,0.5-0.5h1.3c0.3,0,0.5,0.2,0.5,0.5l0,1.3
	C8.8,4.3,8.5,4.5,8.3,4.5z"/>
</svg>
