<svg xmlns="http://www.w3.org/2000/svg" width="24" height="24" viewBox="0 0 24 24">
    <g fill="none" fill-rule="evenodd">
        <path fill="#FFF" fill-opacity=".01" d="M0 0h24v24H0z"/>
        <path fill="#B4B8BD" fill-rule="nonzero" d="M14.818 5.886a.572.572 0 0 1-.58-.564c0-.312.26-.563.58-.563.32 0 .58.25.58.563 0 .312-.26.564-.58.564zm-4.636 0a.572.572 0 0 1-.58-.564c0-.312.26-.563.58-.563.32 0 .58.25.58.563 0 .312-.26.564-.58.564zm4.979-2.26l.216-.317.216-.313.48-.704a.184.184 0 0 0-.053-.26.194.194 0 0 0-.266.052l-.735 1.07-.22.323a6.504 6.504 0 0 0-2.299-.411c-.82 0-1.6.147-2.298.41l-.22-.321-.217-.317-.516-.754a.198.198 0 0 0-.269-.052.186.186 0 0 0-.054.26l.481.704.216.313.217.318C8.2 4.37 7.092 5.779 7.092 7.39h10.816c0-1.612-1.109-3.02-2.747-3.764zM7.175 8.143h-.083v8.273c0 .657.548 1.191 1.224 1.191h.882c-.03.1-.047.204-.047.313v2.382c0 .623.52 1.128 1.16 1.128.64 0 1.16-.505 1.16-1.128V17.92c0-.11-.018-.213-.047-.313h2.152c-.03.1-.045.204-.045.313v2.382c0 .623.518 1.128 1.158 1.128.64 0 1.16-.505 1.16-1.128V17.92c0-.11-.017-.213-.047-.313h.883c.677 0 1.223-.534 1.223-1.191V8.142H7.175zm-2.015 0C4.519 8.142 4 8.647 4 9.27v4.826c0 .623.519 1.127 1.16 1.127.64 0 1.158-.504 1.158-1.127V9.27c0-.623-.519-1.128-1.158-1.128zm14.682 0c-.641 0-1.16.505-1.16 1.128v4.826c0 .623.519 1.127 1.16 1.127.64 0 1.158-.504 1.158-1.127V9.27c0-.623-.519-1.128-1.158-1.128z"/>
    </g>
</svg>
