<svg xmlns="http://www.w3.org/2000/svg" width="139" height="45" viewBox="0 0 139 45">
    <g fill="none" fill-rule="evenodd">
        <path fill="#000" d="M8.926 44.998c-.36 0-.71-.005-1.066-.013a14.985 14.985 0 0 1-2.204-.192 6.945 6.945 0 0 1-1.953-.644 6.372 6.372 0 0 1-1.646-1.196A6.26 6.26 0 0 1 .854 41.31a6.722 6.722 0 0 1-.64-1.95 14.575 14.575 0 0 1-.197-2.205C.01 36.906 0 36.08 0 36.08V8.905s.01-.814.017-1.053c.01-.738.075-1.474.195-2.202.113-.68.329-1.34.641-1.955A6.56 6.56 0 0 1 3.703.848a6.874 6.874 0 0 1 1.949-.64c.73-.12 1.47-.184 2.21-.194L8.926 0h121.142l1.076.015c.734.009 1.467.073 2.191.191a7.01 7.01 0 0 1 1.97.645 6.587 6.587 0 0 1 2.847 2.847 6.77 6.77 0 0 1 .63 1.94c.123.733.191 1.475.205 2.22.004.333.004.69.004 1.047.009.44.009.86.009 1.284v24.62c0 .428 0 .845-.01 1.266 0 .382 0 .733-.004 1.093-.014.731-.081 1.46-.201 2.18a6.742 6.742 0 0 1-.637 1.965 6.448 6.448 0 0 1-1.197 1.63 6.38 6.38 0 0 1-1.65 1.203 6.92 6.92 0 0 1-1.966.647c-.729.119-1.465.183-2.203.192-.346.008-.707.013-1.058.013l-1.278.002-119.87-.002z"/>
        <g fill="#FFF">
            <path d="M27.999 22.856a5.867 5.867 0 0 1 2.776-4.917 5.959 5.959 0 0 0-4.702-2.555c-1.978-.209-3.895 1.19-4.903 1.19-1.028 0-2.58-1.17-4.251-1.135a6.257 6.257 0 0 0-5.269 3.23c-2.278 3.966-.579 9.793 1.603 12.999 1.092 1.57 2.368 3.322 4.038 3.26 1.634-.068 2.244-1.047 4.217-1.047 1.953 0 2.526 1.047 4.23 1.008 1.753-.029 2.858-1.577 3.911-3.161a13.01 13.01 0 0 0 1.789-3.662 5.664 5.664 0 0 1-3.44-5.21zM24.781 13.276a5.79 5.79 0 0 0 1.313-4.134 5.83 5.83 0 0 0-3.778 1.966 5.509 5.509 0 0 0-1.348 3.98 4.819 4.819 0 0 0 3.813-1.812z"/>
            <g>
                <path fill-rule="nonzero" d="M48.653 30.955h-5.576l-1.34 3.975h-2.36l5.28-14.706h2.454l5.281 14.706h-2.401l-1.338-3.975zm-4.999-1.834h4.42l-2.179-6.451h-.06l-2.18 6.45zM63.798 29.57c0 3.331-1.774 5.472-4.45 5.472a3.612 3.612 0 0 1-3.356-1.876h-.05v5.31h-2.19V24.208h2.12v1.783h.04a3.779 3.779 0 0 1 3.395-1.895c2.707 0 4.491 2.15 4.491 5.473zm-2.25 0c0-2.171-1.116-3.598-2.818-3.598-1.673 0-2.798 1.457-2.798 3.597 0 2.16 1.125 3.607 2.798 3.607 1.702 0 2.818-1.416 2.818-3.607zM75.537 29.57c0 3.331-1.774 5.472-4.451 5.472a3.612 3.612 0 0 1-3.356-1.876h-.05v5.31h-2.19V24.208h2.12v1.783h.04a3.779 3.779 0 0 1 3.395-1.895c2.707 0 4.492 2.15 4.492 5.473zm-2.25 0c0-2.171-1.116-3.598-2.819-3.598-1.673 0-2.798 1.457-2.798 3.597 0 2.16 1.125 3.607 2.798 3.607 1.703 0 2.818-1.416 2.818-3.607z"/>
                <path d="M83.295 30.832c.162 1.459 1.57 2.416 3.497 2.416 1.845 0 3.172-.957 3.172-2.272 0-1.142-.8-1.825-2.696-2.294l-1.896-.459c-2.686-.652-3.933-1.915-3.933-3.964 0-2.537 2.2-4.28 5.323-4.28 3.09 0 5.21 1.743 5.281 4.28h-2.21c-.132-1.468-1.339-2.353-3.102-2.353-1.764 0-2.97.896-2.97 2.2 0 1.04.77 1.652 2.656 2.12l1.611.398c3.002.713 4.249 1.925 4.249 4.076 0 2.752-2.18 4.475-5.648 4.475-3.244 0-5.434-1.683-5.575-4.343h2.24zM97.001 21.67v2.538h2.028v1.743h-2.028v5.91c0 .919.406 1.347 1.298 1.347.24-.005.48-.022.72-.051v1.732c-.401.075-.808.11-1.216.102-2.16 0-3.001-.815-3.001-2.895v-6.145H93.25v-1.743h1.55v-2.537h2.2z"/>
                <path fill-rule="nonzero" d="M100.204 29.57c0-3.374 1.976-5.494 5.058-5.494 3.092 0 5.06 2.12 5.06 5.493 0 3.383-1.958 5.494-5.06 5.494-3.102 0-5.058-2.111-5.058-5.494zm7.887 0c0-2.315-1.055-3.68-2.83-3.68-1.773 0-2.827 1.376-2.827 3.68 0 2.323 1.054 3.678 2.828 3.678 1.774 0 2.828-1.355 2.828-3.679z"/>
                <path d="M112.126 24.208h2.088v1.825h.05a2.546 2.546 0 0 1 2.566-1.937c.252-.001.504.027.75.082v2.058a3.045 3.045 0 0 0-.984-.132 2.2 2.2 0 0 0-1.705.705 2.225 2.225 0 0 0-.576 1.761v6.36h-2.19l.001-10.722z"/>
                <path fill-rule="nonzero" d="M127.673 31.78c-.294 1.947-2.18 3.283-4.592 3.283-3.103 0-5.028-2.09-5.028-5.443 0-3.363 1.936-5.544 4.936-5.544 2.95 0 4.806 2.038 4.806 5.289v.754h-7.533v.133c-.07.798.204 1.588.753 2.169a2.77 2.77 0 0 0 2.116.868 2.412 2.412 0 0 0 2.463-1.508h2.079zm-7.4-3.2h5.332a2.586 2.586 0 0 0-.717-1.935 2.558 2.558 0 0 0-1.9-.786 2.693 2.693 0 0 0-1.921.792 2.722 2.722 0 0 0-.794 1.93z"/>
            </g>
        </g>
        <g fill="#FFF">
            <path fill-rule="nonzero" d="M43.38 9.155a3.1 3.1 0 0 1 2.48.969c.641.68.944 1.613.827 2.542 0 2.258-1.213 3.555-3.307 3.555h-2.539V9.155h2.539zm-1.447 6.067h1.325c.664.04 1.31-.223 1.76-.716a2.23 2.23 0 0 0 .558-1.825 2.235 2.235 0 0 0-.566-1.813 2.21 2.21 0 0 0-1.752-.714h-1.325v5.068zM47.92 13.553a2.53 2.53 0 0 1 1.177-2.388 2.502 2.502 0 0 1 2.65 0 2.53 2.53 0 0 1 1.176 2.388 2.53 2.53 0 0 1-1.175 2.39 2.502 2.502 0 0 1-2.652 0 2.53 2.53 0 0 1-1.176-2.39zm3.927 0c0-1.156-.517-1.832-1.423-1.832-.91 0-1.422.676-1.422 1.832 0 1.165.512 1.835 1.422 1.835.906 0 1.423-.675 1.423-1.835z"/>
            <path d="M59.574 16.221h-1.086l-1.097-3.927h-.082l-1.092 3.927H55.14l-1.462-5.332h1.062l.95 4.069h.078l1.09-4.07h1.005l1.09 4.07h.084l.945-4.07h1.047zM62.26 10.889h1.007v.847h.079a1.587 1.587 0 0 1 1.583-.95 1.72 1.72 0 0 1 1.392.548c.357.385.52.914.443 1.435v3.452h-1.046v-3.188c0-.857-.37-1.283-1.145-1.283a1.213 1.213 0 0 0-.942.383c-.244.26-.362.614-.325.968v3.12H62.26v-5.332zM68.432 8.807h1.047v7.414h-1.047z"/>
            <path fill-rule="nonzero" d="M70.935 13.553a2.53 2.53 0 0 1 1.176-2.388 2.502 2.502 0 0 1 2.65 0 2.53 2.53 0 0 1 1.177 2.388 2.531 2.531 0 0 1-1.175 2.39 2.502 2.502 0 0 1-2.653 0 2.531 2.531 0 0 1-1.175-2.39zm3.926 0c0-1.156-.517-1.832-1.423-1.832-.91 0-1.422.676-1.422 1.832 0 1.165.512 1.835 1.422 1.835.906 0 1.423-.675 1.423-1.835zM77.04 14.713c0-.96.711-1.513 1.973-1.592l1.437-.083v-.46c0-.564-.37-.882-1.086-.882-.585 0-.99.216-1.106.593h-1.013c.107-.916.964-1.503 2.167-1.503 1.33 0 2.08.665 2.08 1.792v3.643h-1.008v-.75h-.083c-.342.548-.95.868-1.593.838-.45.047-.9-.1-1.236-.404a1.615 1.615 0 0 1-.532-1.192zm3.41-.456v-.445l-1.296.083c-.73.049-1.061.299-1.061.769 0 .48.414.76.983.76.337.033.674-.071.933-.291a1.26 1.26 0 0 0 .44-.876zM82.868 13.553c0-1.685.861-2.753 2.202-2.753a1.746 1.746 0 0 1 1.626.936h.078V8.807h1.047v7.414h-1.003v-.842h-.083c-.34.597-.981.955-1.665.93-1.35 0-2.202-1.067-2.202-2.756zm1.081 0c0 1.13.53 1.811 1.417 1.811.883 0 1.428-.69 1.428-1.807 0-1.111-.551-1.811-1.428-1.811-.88 0-1.417.685-1.417 1.807zM92.152 13.553a2.53 2.53 0 0 1 1.177-2.388 2.502 2.502 0 0 1 2.65 0 2.53 2.53 0 0 1 1.176 2.388 2.53 2.53 0 0 1-1.175 2.39 2.502 2.502 0 0 1-2.653 0 2.53 2.53 0 0 1-1.175-2.39zm3.926 0c0-1.156-.516-1.832-1.423-1.832-.91 0-1.421.676-1.421 1.832 0 1.165.512 1.835 1.421 1.835.907 0 1.423-.675 1.423-1.835z"/>
            <path d="M98.56 10.889h1.007v.847h.079a1.587 1.587 0 0 1 1.583-.95 1.72 1.72 0 0 1 1.392.548c.357.385.52.914.444 1.435v3.452h-1.047v-3.188c0-.857-.37-1.283-1.145-1.283a1.213 1.213 0 0 0-.942.383c-.243.26-.362.614-.324.968v3.12H98.56v-5.332zM108.98 9.561v1.352h1.149v.886h-1.15v2.742c0 .559.23.803.75.803.134 0 .267-.008.4-.024v.877a3.417 3.417 0 0 1-.57.054c-1.164 0-1.627-.412-1.627-1.44v-3.012h-.842v-.886h.842V9.56h1.048zM111.559 8.807h1.037v2.939h.083a1.631 1.631 0 0 1 1.618-.956 1.743 1.743 0 0 1 1.378.562c.353.385.518.908.448 1.426v3.443h-1.047v-3.183c0-.852-.395-1.283-1.135-1.283a1.235 1.235 0 0 0-.98.363 1.25 1.25 0 0 0-.355.989v3.114h-1.047V8.807z"/>
            <path fill-rule="nonzero" d="M122.227 14.781a2.154 2.154 0 0 1-2.298 1.543 2.403 2.403 0 0 1-1.86-.806 2.43 2.43 0 0 1-.59-1.946 2.468 2.468 0 0 1 .59-1.954 2.44 2.44 0 0 1 1.855-.832c1.476 0 2.367 1.013 2.367 2.688v.367h-3.746v.059c-.033.396.101.787.37 1.078.27.29.648.454 1.043.45a1.27 1.27 0 0 0 1.262-.647h1.007zm-3.682-1.718h2.68a1.29 1.29 0 0 0-.35-.982 1.276 1.276 0 0 0-.957-.4 1.353 1.353 0 0 0-.976.4c-.259.26-.402.614-.397.982z"/>
        </g>
    </g>
</svg>
