<svg xmlns="http://www.w3.org/2000/svg" width="24" height="24" viewBox="0 0 24 24">
    <g fill="none" fill-rule="evenodd">
        <path fill="#FFF" fill-opacity=".01" d="M0 0h24v24H0z"/>
        <path fill="#B4B8BD" fill-rule="nonzero" d="M14.605 4.041c.61-.789 1.074-1.903.906-3.041-.998.07-2.165.708-2.846 1.54-.621.755-1.131 1.878-.932 2.967 1.092.034 2.218-.62 2.872-1.466zM20 14.743c-.437.974-.647 1.409-1.21 2.271-.785 1.204-1.892 2.703-3.264 2.714-1.219.013-1.533-.798-3.187-.788-1.655.008-2 .804-3.22.792-1.372-.013-2.42-1.365-3.206-2.569C3.717 13.8 3.486 9.851 4.84 7.751c.964-1.492 2.483-2.364 3.91-2.364 1.454 0 2.368.802 3.571.802 1.167 0 1.878-.804 3.558-.804 1.272 0 2.62.697 3.58 1.9-3.145 1.733-2.636 6.25.541 7.458z"/>
    </g>
</svg>
