<svg width="21" height="21" viewBox="0 0 20 20" xmlns="http://www.w3.org/2000/svg">
    <g fill="none" fill-rule="evenodd">
        <path fill="#000" d="M13.6283 0.538543C13.4656 0.375824 13.2018 0.375824 13.039 0.538543L12.224 1.35361C11.5542 1.02049 10.7991 0.833171 10.0003 0.833171C9.20152 0.833171 8.44646 1.02049 7.77669 1.35361L6.96162 0.538543C6.7989 0.375824 6.53508 0.375824 6.37236 0.538543C6.20965 0.701261 6.20965 0.96508 6.37236 1.1278L7.04454 1.79997C5.80498 2.70994 5.00033 4.17759 5.00033 5.83317H15.0003C15.0003 4.17759 14.1957 2.70994 12.9561 1.79997L13.6283 1.1278C13.791 0.96508 13.791 0.701261 13.6283 0.538543ZM8.33366 3.33317H7.50033V4.1665H8.33366V3.33317ZM11.667 3.33317H12.5003V4.1665H11.667V3.33317ZM1.66699 7.9165C1.66699 7.22615 2.22664 6.6665 2.91699 6.6665C3.60735 6.6665 4.16699 7.22615 4.16699 7.9165V12.0832C4.16699 12.7735 3.60735 13.3332 2.91699 13.3332C2.22664 13.3332 1.66699 12.7735 1.66699 12.0832V7.9165ZM15.0003 13.3332V6.6665H5.00033V13.3332C5.00033 14.2536 5.74652 14.9998 6.66699 14.9998V17.9165C6.66699 18.6069 7.22664 19.1665 7.91699 19.1665C8.60735 19.1665 9.16699 18.6069 9.16699 17.9165V14.9998H10.8337V17.9165C10.8337 18.6069 11.3933 19.1665 12.0837 19.1665C12.774 19.1665 13.3337 18.6069 13.3337 17.9165V14.9998C14.2541 14.9998 15.0003 14.2536 15.0003 13.3332ZM17.0837 6.6665C16.3933 6.6665 15.8337 7.22615 15.8337 7.9165V12.0832C15.8337 12.7735 16.3933 13.3332 17.0837 13.3332C17.774 13.3332 18.3337 12.7735 18.3337 12.0832V7.9165C18.3337 7.22615 17.774 6.6665 17.0837 6.6665Z"/>
    </g>
</svg>
