<svg xmlns="http://www.w3.org/2000/svg" width="22" height="22" viewBox="0 0 22 22">
    <g fill="none" fill-rule="evenodd" opacity=".25">
        <path fill="#FFF" fill-opacity=".01" d="M0 0h22v22H0z"/>
        <path fill="#000" fill-rule="nonzero" d="M7.7 2.75a4.397 4.397 0 0 0-4.4 4.4c0 2.432 1.968 4.4 4.4 4.4 2.432 0 4.4-1.968 4.4-4.4 0-2.432-1.968-4.4-4.4-4.4zm0 2.2c1.216 0 2.2.984 2.2 2.2 0 1.216-.984 2.2-2.2 2.2-1.216 0-2.2-.984-2.2-2.2 0-1.216.984-2.2 2.2-2.2zm8.25 0A2.753 2.753 0 0 0 13.2 7.7a2.753 2.753 0 0 0 2.75 2.75A2.753 2.753 0 0 0 18.7 7.7a2.753 2.753 0 0 0-2.75-2.75zm.55 6.6c-1.646 0-2.857.58-3.713 1.272 2.579 1.457 3.584 3.678 3.644 3.816l.069.206v.206H22v-1.822s-1.323-3.678-5.5-3.678zm-8.8 1.1c-5.848 0-7.7 4.4-7.7 4.4v2.2h15.4v-2.2s-1.852-4.4-7.7-4.4zm0 2.2c3.777 0 4.984 2.2 4.984 2.2H2.716s1.254-2.2 4.984-2.2z"/>
    </g>
</svg>
