<svg width="24" height="24" viewBox="0 0 24 24" fill="none" xmlns="http://www.w3.org/2000/svg">
<g clip-path="url(#clip0)">
<path fill-rule="evenodd" clip-rule="evenodd" d="M12.0118 3.50006C12.7931 3.50006 13.0208 3.50649 13.2243 3.55532C13.4283 3.60432 13.6234 3.68513 13.8024 3.79478C13.9807 3.90408 14.1463 4.06055 14.6988 4.61306L17.887 7.80128C18.4395 8.35379 18.596 8.51935 18.7053 8.69771C18.8149 8.87665 18.8957 9.07174 18.9447 9.27581C18.9936 9.47922 19 9.70692 19 10.4883V16.7001C19 17.5566 18.9992 18.1389 18.9624 18.589C18.9266 19.0274 18.8617 19.2516 18.782 19.408C18.5903 19.7844 18.2843 20.0903 17.908 20.2821C17.7516 20.3618 17.5274 20.4267 17.089 20.4625C16.6389 20.4993 16.0566 20.5001 15.2 20.5001H8.8C7.94342 20.5001 7.36113 20.4993 6.91104 20.4625C6.47262 20.4267 6.24842 20.3618 6.09202 20.2821C5.7157 20.0903 5.40973 19.7844 5.21799 19.408C5.1383 19.2516 5.07337 19.0274 5.03755 18.589C5.00078 18.1389 5 17.5566 5 16.7001V7.30006C5 6.44348 5.00078 5.86119 5.03755 5.4111C5.07337 4.97269 5.1383 4.74848 5.21799 4.59208C5.40973 4.21576 5.7157 3.9098 6.09202 3.71805C6.24842 3.63836 6.47262 3.57343 6.91104 3.53761C7.36113 3.50084 7.94342 3.50006 8.8 3.50006H12.0118ZM13.6911 1.61058C13.2284 1.4995 12.7487 1.49973 12.1137 1.50003L12.0118 1.50006L8.7587 1.50006C7.95373 1.50005 7.28937 1.50004 6.74818 1.54426C6.18608 1.59018 5.66937 1.68875 5.18404 1.93604C4.43139 2.31953 3.81947 2.93145 3.43598 3.6841C3.18868 4.16944 3.09012 4.68614 3.04419 5.24824C2.99998 5.78943 2.99999 6.45378 3 7.25875V7.25876V16.7414V16.7414C2.99999 17.5463 2.99998 18.2107 3.04419 18.7519C3.09012 19.314 3.18868 19.8307 3.43598 20.316C3.81947 21.0687 4.43139 21.6806 5.18404 22.0641C5.66937 22.3114 6.18608 22.4099 6.74818 22.4559C7.28937 22.5001 7.95372 22.5001 8.75868 22.5001H15.2413C16.0463 22.5001 16.7106 22.5001 17.2518 22.4559C17.8139 22.4099 18.3306 22.3114 18.816 22.0641C19.5686 21.6806 20.1805 21.0687 20.564 20.316C20.8113 19.8307 20.9099 19.314 20.9558 18.7519C21 18.2107 21 17.5463 21 16.7414V10.4883L21 10.3864C21.0003 9.75142 21.0006 9.27162 20.8895 8.80892C20.7915 8.40078 20.6299 8.0106 20.4106 7.65271C20.1619 7.24699 19.8225 6.90789 19.3733 6.4591L19.3012 6.38707L16.113 3.19884L16.041 3.12678C15.5922 2.67756 15.2531 2.33813 14.8474 2.0895C14.4895 1.87019 14.0993 1.70857 13.6911 1.61058ZM13 9.50006V5.50006L17 9.50006H13Z" fill="#676D7A"/>
</g>
<defs>
<clipPath id="clip0">
<rect width="24" height="24" fill="white"/>
</clipPath>
</defs>
</svg>
