<svg xmlns="http://www.w3.org/2000/svg" width="22" height="22" viewBox="0 0 22 22">
    <g fill="none" fill-rule="evenodd">
        <path fill="#FFF" fill-opacity=".01" fill-rule="nonzero" d="M0 0h22v22H0z"/>
        <path fill="#83D252" d="M15.912 7.593h-.82V5.947c0-2.27-1.835-4.114-4.096-4.114-2.26 0-4.096 1.843-4.096 4.114v1.646h-.82c-.9 0-1.638.74-1.638 1.646v8.228c0 .905.738 1.645 1.639 1.645h9.83c.902 0 1.64-.74 1.64-1.645V9.239c0-.906-.738-1.646-1.64-1.646zm-4.916 7.405c-.9 0-1.638-.74-1.638-1.645 0-.906.737-1.646 1.638-1.646a1.647 1.647 0 0 1 0 3.291zm2.54-7.405h-5.08V5.947a2.547 2.547 0 0 1 2.54-2.55c1.401 0 2.54 1.143 2.54 2.55v1.646z"/>
    </g>
</svg>
