<svg xmlns="http://www.w3.org/2000/svg" width="14" height="16" viewBox="0 0 14 16">
    <path fill="#FFF" fill-rule="nonzero" d="M9.058 2.597C9.58 1.924 9.976.972 9.833 0 8.98.06 7.983.605 7.4 1.316c-.53.645-.966 1.603-.796 2.534.933.029 1.895-.53 2.453-1.253zm4.609 9.142c-.373.832-.553 1.203-1.034 1.94-.67 1.028-1.616 2.309-2.788 2.318-1.041.011-1.31-.682-2.723-.674-1.413.008-1.707.687-2.75.677-1.172-.01-2.067-1.166-2.738-2.194C-.242 10.933-.439 7.56.718 5.766c.823-1.274 2.12-2.019 3.34-2.019 1.24 0 2.022.685 3.05.685.996 0 1.603-.687 3.039-.687 1.086 0 2.238.596 3.057 1.623-2.686 1.48-2.251 5.339.463 6.371z"/>
</svg>
