<svg xmlns="http://www.w3.org/2000/svg" width="18" height="18" viewBox="0 0 18 18">
    <g fill="none" fill-rule="evenodd">
        <path d="M-1-1h20v20H-1z"/>
        <path fill="#1790FF" fill-rule="nonzero" d="M9 .667a8.334 8.334 0 1 1-.001 16.668 8.334 8.334 0 0 1 0-16.668zm1.53 12.82l.137-.574a2.33 2.33 0 0 1-.34.118 1.556 1.556 0 0 1-.42.068c-.262 0-.448-.045-.554-.135-.107-.09-.16-.258-.16-.506 0-.098.016-.244.049-.435.034-.19.07-.362.112-.511l.507-1.862c.05-.172.084-.359.102-.564.018-.204.028-.347.028-.428 0-.392-.134-.711-.398-.956-.267-.245-.645-.369-1.135-.369-.271 0-.56.05-.865.152-.305.1-.624.22-.958.362l-.135.575c.098-.039.217-.078.355-.122.138-.043.274-.063.405-.063.27 0 .45.046.545.14.095.094.142.26.142.498 0 .134-.014.28-.045.44-.031.158-.07.329-.115.508l-.51 1.867a5.904 5.904 0 0 0-.099.528c-.02.155-.03.308-.03.458 0 .384.136.7.41.95.273.249.658.374 1.151.374.321 0 .603-.044.846-.131.243-.088.568-.214.976-.381zm-.23-7.351a1.2 1.2 0 0 0 .367-.883c0-.344-.123-.64-.367-.885A1.195 1.195 0 0 0 9.42 4c-.343 0-.639.122-.885.368a1.213 1.213 0 0 0-.368.885c0 .345.123.64.368.883.246.243.542.364.884.364.344 0 .638-.121.881-.364z"/>
    </g>
</svg>
