<svg width="24" height="24" viewBox="0 0 24 24" fill="none" xmlns="http://www.w3.org/2000/svg">
<g clip-path="url(#clip0)">
<path fill-rule="evenodd" clip-rule="evenodd" d="M12 2.5C10.0523 2.5 8.5 4.05228 8.5 6V8H15.5V6C15.5 4.05228 13.9477 2.5 12 2.5ZM17.5 8.00454V6C17.5 2.94772 15.0523 0.5 12 0.5C8.94772 0.5 6.5 2.94772 6.5 6V8.00454C6.23999 8.0086 6.00406 8.01629 5.79046 8.03086C5.32118 8.06288 4.88708 8.13142 4.46927 8.30448C3.48915 8.71046 2.71046 9.48915 2.30448 10.4693C2.13142 10.8871 2.06288 11.3212 2.03086 11.7905C1.99998 12.2431 1.99999 12.7959 2 13.4657L2 16.2413C1.99999 17.0463 1.99998 17.7106 2.04419 18.2518C2.09012 18.8139 2.18868 19.3306 2.43597 19.816C2.81947 20.5686 3.43139 21.1805 4.18404 21.564C4.66937 21.8113 5.18608 21.9099 5.74817 21.9558C6.28936 22 6.95372 22 7.75868 22H16.2413C17.0463 22 17.7106 22 18.2518 21.9558C18.8139 21.9099 19.3306 21.8113 19.816 21.564C20.5686 21.1805 21.1805 20.5686 21.564 19.816C21.8113 19.3306 21.9099 18.8139 21.9558 18.2518C22 17.7106 22 17.0463 22 16.2413V13.4657C22 12.7959 22 12.2431 21.9691 11.7905C21.9371 11.3212 21.8686 10.8871 21.6955 10.4693C21.2895 9.48915 20.5108 8.71046 19.5307 8.30448C19.1129 8.13142 18.6788 8.06288 18.2095 8.03086C17.9959 8.01629 17.76 8.0086 17.5 8.00454ZM5.9266 10.0262C5.55915 10.0513 5.36813 10.0969 5.23463 10.1522C4.74458 10.3552 4.35523 10.7446 4.15224 11.2346C4.09694 11.3681 4.0513 11.5591 4.02623 11.9266C4.00054 12.303 4 12.7874 4 13.5V16.2C4 17.0566 4.00078 17.6389 4.03755 18.089C4.07337 18.5274 4.1383 18.7516 4.21799 18.908C4.40973 19.2843 4.71569 19.5903 5.09202 19.782C5.24842 19.8617 5.47262 19.9266 5.91104 19.9624C6.36113 19.9992 6.94342 20 7.8 20H16.2C17.0566 20 17.6389 19.9992 18.089 19.9624C18.5274 19.9266 18.7516 19.8617 18.908 19.782C19.2843 19.5903 19.5903 19.2843 19.782 18.908C19.8617 18.7516 19.9266 18.5274 19.9624 18.089C19.9992 17.6389 20 17.0566 20 16.2V13.5C20 12.7874 19.9995 12.303 19.9738 11.9266C19.9487 11.5591 19.9031 11.3681 19.8478 11.2346C19.6448 10.7446 19.2554 10.3552 18.7654 10.1522C18.6319 10.0969 18.4409 10.0513 18.0734 10.0262C17.697 10.0005 17.2126 10 16.5 10H7.5C6.78741 10 6.30304 10.0005 5.9266 10.0262Z" fill="black"/>
</g>
<defs>
<clipPath id="clip0">
<path d="M0 0H24V24H0V0Z" fill="white"/>
</clipPath>
</defs>
</svg>
