<?xml version="1.0" encoding="UTF-8"?>
<svg width="20px" height="20px" viewBox="0 0 20 20" version="1.1" xmlns="http://www.w3.org/2000/svg" xmlns:xlink="http://www.w3.org/1999/xlink">
    <!-- Generator: Sketch 54.1 (76490) - https://sketchapp.com -->
    <title>ic_reaction_thumbsup_20</title>
    <desc>Created with Sketch.</desc>
    <defs>
        <rect id="path-1" x="0" y="0" width="19.9829459" height="20"></rect>
        <linearGradient x1="50%" y1="0%" x2="50%" y2="100%" id="linearGradient-3">
            <stop stop-color="#D8A744" offset="0%"></stop>
            <stop stop-color="#C19133" offset="100%"></stop>
        </linearGradient>
        <linearGradient x1="59.8313401%" y1="0%" x2="50%" y2="100%" id="linearGradient-4">
            <stop stop-color="#FFCC66" offset="0%"></stop>
            <stop stop-color="#F3BB4C" offset="100%"></stop>
        </linearGradient>
        <linearGradient x1="50%" y1="0%" x2="50%" y2="100%" id="linearGradient-5">
            <stop stop-color="#D8A744" offset="0%"></stop>
            <stop stop-color="#C19133" offset="100%"></stop>
        </linearGradient>
    </defs>
    <g id="Design-System" stroke="none" stroke-width="1" fill="none" fill-rule="evenodd">
        <g id="Artboard" transform="translate(-68.000000, -75.000000)">
            <g id="Group-2" transform="translate(44.000000, 75.000000)">
                <g id="ic_reaction_thumbsup_20" transform="translate(24.000000, 0.000000)">
                    <mask id="mask-2" fill="white">
                        <use xlink:href="#path-1"></use>
                    </mask>
                    <use id="Rectangle" fill-opacity="0.01" fill="#FFFFFF" fill-rule="nonzero" xlink:href="#path-1"></use>
                    <g id="Group-3" mask="url(#mask-2)" fill-rule="nonzero">
                        <g transform="translate(2.522523, 1.226667)">
                            <path d="M11.1868249,17.3988615 C10.0162658,17.3988615 8.43337784,17.1894177 7.07959614,16.8611073 C6.13172001,16.6312345 5.26778276,16.3632001 4.48227386,16.0825221 L4.48035986,16.0818338 C4.33238898,16.0282822 4.18895531,15.9694177 4.02631694,15.8971678 C3.94047733,15.8590347 3.67038528,15.7349914 3.62892404,15.716379 C3.49372978,15.6556887 3.39332496,15.6144702 3.30024019,15.5824572 C3.14278686,15.528307 3.01079781,15.5029554 2.88000877,15.5029554 L1.69950269,15.5029554 C1.14852285,15.5029554 0.745838673,15.3960121 0.450292422,15.1201405 C0.143443026,14.8337182 0.0181663122,14.4252357 0.0181663132,13.8727879 L0.0184960994,8.64016094 C0.0184960994,7.60014965 0.657538599,6.92260992 1.69950269,6.92260992 C1.92414284,6.92260992 2.27333862,6.88627304 2.62004261,6.81307128 C3.07859884,6.71625348 3.49394231,6.56566846 3.82411797,6.3612574 C5.10324948,5.43244017 5.74613044,4.71802381 6.29087198,3.62116008 C6.73915898,2.7196467 6.91142376,2.19971616 7.0433669,1.46305673 C7.04368541,1.46089391 7.04403227,1.45857054 7.04440793,1.45608966 C7.04629261,1.44364328 7.04854096,1.42964591 7.05117184,1.41421423 C7.05841978,1.37170084 7.06741319,1.3249771 7.07832752,1.27494368 C7.10971714,1.13104751 7.15087479,0.986562484 7.20434754,0.84764795 C7.2798148,0.651594818 7.37390583,0.481068591 7.49752296,0.341468128 C7.67877408,0.136781766 7.91490989,0.0116600793 8.19235213,0.0117698801 C8.42528908,0.0117698801 8.6090941,0.0284006256 8.78975661,0.0762450205 C9.03235763,0.140492436 9.24331884,0.258440919 9.41694957,0.440807887 C9.76809215,0.809618238 9.92492492,1.39507953 9.92492492,2.26632653 C9.92492492,3.37389764 9.74861818,4.45232012 9.45486818,5.4612048 C9.38387219,5.70504062 9.30927097,5.93304492 9.23340198,6.14354472 L11.471384,6.3994277 C12.4214993,6.45334677 13.1040481,7.32127362 13.0628111,8.30953197 C13.0416148,8.81751074 12.8174685,9.26920685 12.4733922,9.58192812 C12.7894077,9.92465482 12.9744531,10.3948647 12.9533365,10.9031059 C12.9269128,11.5019882 12.6197483,12.0223437 12.1664575,12.3291814 C12.3751002,12.613949 12.4972647,12.9658791 12.4972647,13.3553741 C12.4972647,13.9061657 12.2849541,14.3902151 11.9111657,14.7298581 C11.8551818,14.780728 11.7962141,14.8277152 11.7347126,14.870674 C12.0221872,15.1028977 12.7287526,16.4833332 11.1868249,17.3988615 Z" id="Path" fill="url(#linearGradient-3)"></path>
                            <path d="M12.2221783,15.7941375 C12.2431528,15.3076069 11.9823446,14.9323119 11.4397537,14.6682523 C12.122611,14.7003612 13.0645839,14.4698314 13.0645839,13.6070422 C13.0645839,12.8916001 12.7527598,12.1353741 12.0721451,12.1010204 L12.852147,12.1010204 C13.5349383,12.1319728 13.9281334,11.6789357 13.959727,10.9628812 C13.9894738,10.2468948 13.7469135,9.5430915 13.0645839,9.51091463 C13.7469135,9.54302347 14.1377033,9.25820154 14.167582,8.54214711 C14.1802164,8.23935965 13.9901469,7.51173604 13.8457169,7.23319265 C13.648588,6.85301582 11.8338611,6.70999876 11.4397537,6.69213476 L8.5670221,6.42543644 C8.5670221,6.42543644 9.42442442,4.68108844 9.42442442,2.26632653 C9.42442442,0.656598639 8.8481009,0.51176988 8.19235213,0.51176988 C7.67649906,0.511565798 7.53759272,1.54245015 7.53759272,1.54245015 C7.41972679,2.20347056 7.26762895,2.78074947 6.73911206,3.84360661 C6.14747391,5.03489913 5.43917801,5.80849843 4.10403855,6.776115 C3.24249949,7.31718855 2.0857494,7.42260992 1.69950269,7.42260992 C0.924766711,7.42260992 0.5189966,7.88689563 0.5189966,8.64016094 L0.518666813,13.8728194 C0.518666813,14.7179214 0.853928431,15.0029554 1.69950269,15.0029554 L2.88000877,15.0029554 C3.47435118,15.0029554 3.93974681,15.354384 4.65083386,15.611731 C5.62482724,15.9597582 8.38757362,16.8776871 10.8932964,16.8776871 C10.9993766,16.8776871 11.8434844,16.877536 11.8845443,16.8776871 C12.1103372,16.1702414 12.2228818,15.8090582 12.2221783,15.7941375 Z" id="Path" fill="url(#linearGradient-4)"></path>
                            <path d="M12.9986034,15.6721216 L12.9986034,15.8271318 C12.9986034,16.6437696 12.335925,17.3057853 11.5184697,17.3057853 L8.79475849,17.3057853 C7.97730324,17.3057853 7.31462483,16.6437696 7.31462483,15.8271318 L7.31462483,15.4085558 C7.31462483,15.1073229 7.4403949,14.8354359 7.64233801,14.6424421 C7.20559738,14.3447795 6.91888025,13.8436605 6.91888025,13.2756422 C6.91888025,12.7506683 7.16378902,12.2828387 7.54569343,11.9799587 C7.05256366,11.6936731 6.72100795,11.1602138 6.72100795,10.5493931 C6.72100795,9.88892476 7.10865182,9.31890497 7.66904904,9.05400933 C7.44912894,8.81772049 7.31462483,8.50100891 7.31462483,8.15291364 L7.31462483,7.82314396 C7.31462483,6.90998913 8.05562408,6.16973087 8.96969298,6.16973087 L12.3988541,6.16973087 C13.312923,6.16973087 14.0539223,6.90998913 14.0539223,7.82314396 C14.0539223,8.37474198 13.7835424,8.86325256 13.3679611,9.16362248 C13.8206639,9.45867508 14.1198797,9.96912623 14.1198797,10.5493931 C14.1198797,11.2618137 13.6688533,11.8689969 13.0364943,12.1015185 C13.3389457,12.4011128 13.5262628,12.8165242 13.5262628,13.2756422 C13.5262628,13.9183095 13.1592331,14.4753381 12.6231528,14.7489467 C12.8554957,14.9874013 12.9986034,15.3130659 12.9986034,15.6721216 Z M11.7143936,14.8608239 L8.56557776,14.8494935 C8.43078316,14.8494935 8.32130187,14.8450868 8.18267682,14.8825809 C7.96817493,14.9611911 7.81512533,15.167018 7.81512533,15.4085558 L7.81512533,15.8271318 C7.81512533,16.3676272 8.25372203,16.8057853 8.79475849,16.8057853 C9.46868424,16.8402374 9.97315597,16.8574634 10.3081737,16.8574634 C10.5784251,16.8574634 10.9715924,16.8362892 11.4876754,16.7939409 C12.0287118,16.7939409 12.4981029,16.3676272 12.4981029,15.8271318 L12.4981029,15.6721216 C12.4981029,15.3393929 12.3006099,15.052745 12.0163414,14.9227847 C11.936268,14.8873378 11.8636899,14.8697119 11.7143936,14.8608239 Z M13.0257623,13.2756422 C13.0257623,12.7884804 12.7234388,12.3718593 12.2959959,12.2028062 C12.1267071,12.1800097 12.0042255,12.1682056 11.9285512,12.167394 C11.1366267,12.1589008 9.95770998,12.1567477 8.39180114,12.1609347 C8.3233742,12.1622614 8.25498304,12.1753005 8.17956263,12.1912729 C7.73611653,12.3522687 7.41938075,12.7770036 7.41938075,13.2756422 C7.41938075,13.7788381 7.74193259,14.2067732 8.19175286,14.3643596 C8.26591346,14.3964677 8.33016894,14.4227432 8.39292735,14.4227432 L11.6907989,14.4227432 C11.8313386,14.4227432 11.9372772,14.4254776 12.0767015,14.4108381 C12.616308,14.3139923 13.0257623,13.842586 13.0257623,13.2756422 Z M8.58231905,11.7017909 L11.8795653,11.7017909 C12.058195,11.7017909 12.2449168,11.7173065 12.3830167,11.7028062 L12.4648115,11.7028062 C13.1024616,11.7028062 13.6193792,11.1864055 13.6193792,10.5493931 C13.6193792,10.0165552 13.2577066,9.56810596 12.7662286,9.43568092 C12.6480703,9.46243327 12.5188352,9.41688574 12.3925761,9.41688574 L8.63331522,9.41688574 C8.48479776,9.41688574 8.34826556,9.45214576 8.21496376,9.40712049 C7.65358066,9.4854239 7.22150846,9.96700101 7.22150846,10.5493931 C7.22150846,11.1063004 7.61659419,11.5710229 8.14203568,11.6790951 C8.32260298,11.694552 8.43289634,11.7017909 8.58231905,11.7017909 Z M13.5534218,7.82314396 C13.5534218,7.1861315 13.0365042,6.66973087 12.3988541,6.66973087 L8.96969298,6.66973087 C8.33204288,6.66973087 7.81512533,7.1861315 7.81512533,7.82314396 L7.81512533,8.15291364 C7.81512533,8.48228222 8.00864958,8.76649599 8.28830112,8.89826537 C8.31736721,8.89674811 8.34663187,8.89597999 8.37607611,8.89597999 L12.4648115,8.89597999 C12.5633405,8.89597999 12.6598586,8.90458108 12.7536545,8.92107267 C13.2177159,8.77152153 13.5534218,8.33649769 13.5534218,7.82314396 Z" id="Combined-Shape" fill="url(#linearGradient-5)" transform="translate(10.420444, 11.737758) rotate(6.000000) translate(-10.420444, -11.737758) "></path>
                        </g>
                    </g>
                </g>
            </g>
        </g>
    </g>
</svg>