<?xml version="1.0" encoding="utf-8"?>
<!-- Generator: Adobe Illustrator 22.1.0, SVG Export Plug-In . SVG Version: 6.00 Build 0)  -->
<svg version="1.1" id="Слой_1" xmlns="http://www.w3.org/2000/svg" xmlns:xlink="http://www.w3.org/1999/xlink" x="0px" y="0px"
	 viewBox="0 0 11 10" width="11" height="10" style="enable-background:new 0 0 11 10;" xml:space="preserve">
<path d="M10.6,3.9c0-0.1,0-0.1-0.1-0.1L7.1,3.3L5.6,0.2c0,0,0,0,0,0c0,0-0.1,0-0.1,0L3.9,3.3L0.5,3.8c0,0,0,0-0.1,0
	c0,0,0,0.1,0,0.1l2.5,2.4L2.3,9.8c0,0,0,0,0,0.1c0,0,0.1,0.1,0.1,0l3.1-1.6l3.1,1.6c0,0,0,0,0.1,0c0.1,0,0.1-0.1,0.1-0.1L8.1,6.3
	L10.6,3.9C10.6,3.9,10.6,3.9,10.6,3.9z"/>
</svg>
