<svg width="300" height="300" viewBox="0 0 300 300" fill="none" xmlns="http://www.w3.org/2000/svg">
<rect width="300" height="300" fill="white" fill-opacity="0.01"/>
<mask id="mask0" mask-type="alpha" maskUnits="userSpaceOnUse" x="0" y="0" width="300" height="300">
<rect width="300" height="300" fill="white"/>
</mask>
<g mask="url(#mask0)">
<g opacity="0.5" filter="url(#filter0_i)">
<path fill-rule="evenodd" clip-rule="evenodd" d="M68.2459 94.6799C67.9808 87.0709 48.177 88.7861 40.5377 89.5201C32.8983 90.2541 32.2047 79.8304 38.796 78.281C45.3871 76.7316 57.3397 77.5312 63.5326 76.101C69.7256 74.6707 61.8917 67.0002 70.3299 66.0756C78.7681 65.1511 96.2162 66.0071 101.418 65.8193C109.588 65.5242 113.78 75.3709 99.4659 75.8178C95.5185 75.9409 94.7267 84.6886 108.051 82.2857C116.412 80.7778 132.818 80.743 136.23 84.5928C138.188 86.8017 137.51 92.736 134.144 96.0129C131.643 98.4472 123.69 98.9219 120.575 99.4845C113.266 100.805 114.711 107.889 117.203 109.348C123.1 112.8 139.286 106.285 139.72 115.764C139.912 119.953 125.185 120.629 119.146 120.578C104.336 120.452 94.6056 121.773 93.9227 116.716C93.2372 111.638 103.126 115.065 102.638 108.823C102.383 105.562 103.066 98.6308 96.722 98.9946C105.408 98.4965 68.6039 104.957 68.2459 94.6799Z" fill="url(#paint0_linear)"/>
</g>
<g opacity="0.5" filter="url(#filter1_i)">
<path fill-rule="evenodd" clip-rule="evenodd" d="M170.83 53.4756C170.849 45.862 150.996 46.8337 143.334 47.2809C135.673 47.7281 135.369 37.2857 142.014 35.9844C148.658 34.6831 160.573 35.9302 166.815 34.7331C173.057 33.536 165.515 25.5772 173.982 24.9696C182.449 24.362 199.853 25.8714 205.058 25.8787C213.233 25.8901 217.054 35.887 202.733 35.797C198.784 35.7722 197.666 44.4839 211.07 42.5822C219.482 41.3888 235.878 41.9689 239.144 45.9439C241.018 48.2247 240.118 54.1293 236.631 57.2778C234.041 59.6167 226.077 59.7929 222.942 60.2384C215.589 61.2837 216.768 68.4175 219.204 69.9686C224.968 73.6391 241.386 67.7357 241.465 77.224C241.5 81.4169 226.758 81.5406 220.726 81.2631C205.931 80.5826 196.158 81.5379 195.664 76.4584C195.169 71.3589 204.923 75.1542 204.669 68.8984C204.536 65.6294 205.478 58.729 199.125 58.8547C207.823 58.6826 170.803 63.7585 170.83 53.4756Z" fill="url(#paint1_linear)"/>
</g>
<path fill-rule="evenodd" clip-rule="evenodd" d="M351.648 207.811C336.379 202.01 297.484 188.209 263.281 188.209C229.077 188.209 186.678 210.547 159.316 213.082C131.955 215.616 61.571 217.372 61.571 217.372V251.418H351.648C351.648 251.418 351.648 230.048 351.648 207.811Z" fill="url(#paint2_linear)"/>
<path d="M232.428 206.527C232.428 196.43 240.859 165.182 252.239 148.084" stroke="url(#paint3_linear)" stroke-width="0.99136" stroke-linecap="round"/>
<path fill-rule="evenodd" clip-rule="evenodd" d="M246.966 152.839C246.966 152.839 247.446 147.811 244.914 143.416C242.381 139.022 239.194 136.115 237.795 136.924C236.396 137.733 237.315 141.952 239.848 146.347C242.38 150.742 246.966 152.839 246.966 152.839Z" fill="url(#paint4_linear)"/>
<path fill-rule="evenodd" clip-rule="evenodd" d="M249.892 154.578C249.892 154.578 254.098 157.363 259.16 157.186C264.222 157.009 268.279 155.554 268.223 153.936C268.167 152.319 264.018 151.151 258.956 151.328C253.894 151.505 249.892 154.578 249.892 154.578Z" fill="url(#paint5_linear)"/>
<path fill-rule="evenodd" clip-rule="evenodd" d="M244.442 167.425C244.442 167.425 248.496 170.427 253.56 170.515C258.624 170.604 262.753 169.364 262.781 167.745C262.809 166.127 258.726 164.743 253.662 164.655C248.598 164.566 244.442 167.425 244.442 167.425Z" fill="url(#paint6_linear)"/>
<path fill-rule="evenodd" clip-rule="evenodd" d="M240.003 180.349C240.003 180.349 244.057 183.351 249.122 183.44C254.186 183.528 258.314 182.288 258.342 180.67C258.37 179.052 254.288 177.668 249.224 177.58C244.16 177.491 240.003 180.349 240.003 180.349Z" fill="url(#paint7_linear)"/>
<path fill-rule="evenodd" clip-rule="evenodd" d="M253.208 146.16C253.208 146.16 257.897 144.306 260.656 140.05C263.414 135.794 264.552 131.629 263.197 130.748C261.843 129.866 258.508 132.602 255.749 136.858C252.991 141.114 253.208 146.16 253.208 146.16Z" fill="url(#paint8_linear)"/>
<path fill-rule="evenodd" clip-rule="evenodd" d="M241.141 165.916C241.141 165.916 240.654 160.889 237.332 157.059C234.009 153.229 230.327 150.985 229.107 152.047C227.888 153.109 229.594 157.074 232.917 160.904C236.239 164.734 241.141 165.916 241.141 165.916Z" fill="url(#paint9_linear)"/>
<path fill-rule="evenodd" clip-rule="evenodd" d="M236.385 179.384C236.385 179.384 235.377 174.435 231.672 170.974C227.968 167.513 224.072 165.667 222.97 166.851C221.869 168.034 223.978 171.8 227.683 175.261C231.387 178.721 236.385 179.384 236.385 179.384Z" fill="url(#paint10_linear)"/>
<path opacity="0.084933" fill-rule="evenodd" clip-rule="evenodd" d="M221.436 209.615C231.296 209.615 239.289 209.163 239.289 208.605C239.289 208.048 231.296 207.596 221.436 207.596C211.577 207.596 203.584 208.048 203.584 208.605C203.584 209.163 211.577 209.615 221.436 209.615Z" fill="#8699BF"/>
<path fill-rule="evenodd" clip-rule="evenodd" d="M-55.9889 233.383C-45.9202 212.96 61.2867 192.652 102.507 192.652C143.727 192.652 194.824 214.989 227.799 217.524C260.774 220.059 345.596 221.814 345.596 221.814V323.2H-55.9889C-55.9889 323.2 -55.9889 255.62 -55.9889 233.383Z" fill="url(#paint11_linear)"/>
<rect y="170" width="24" height="109.6" fill="url(#paint12_linear)"/>
<g opacity="0.3">
<path d="M230.888 207.142C233.228 199.94 234.43 175.689 230.241 160.844" stroke="url(#paint13_linear)" stroke-width="0.74352" stroke-linecap="round"/>
<path fill-rule="evenodd" clip-rule="evenodd" d="M232.93 165.468C232.93 165.468 233.747 161.763 236.572 159.216C239.397 156.668 242.347 155.336 243.16 156.242C243.974 157.147 242.344 159.946 239.519 162.494C236.694 165.042 232.93 165.468 232.93 165.468Z" fill="url(#paint14_linear)"/>
<path fill-rule="evenodd" clip-rule="evenodd" d="M230.39 166.013C230.39 166.013 226.742 167.034 223.172 165.735C219.602 164.435 217.047 162.453 217.464 161.308C217.88 160.162 221.112 160.287 224.682 161.586C228.251 162.886 230.39 166.013 230.39 166.013Z" fill="url(#paint15_linear)"/>
<path fill-rule="evenodd" clip-rule="evenodd" d="M231.317 176.446C231.317 176.446 227.727 177.657 224.094 176.546C220.461 175.436 217.805 173.59 218.161 172.425C218.518 171.259 221.752 171.214 225.385 172.324C229.017 173.435 231.317 176.446 231.317 176.446Z" fill="url(#paint16_linear)"/>
<path fill-rule="evenodd" clip-rule="evenodd" d="M231.5 186.698C231.5 186.698 227.91 187.909 224.277 186.798C220.645 185.688 217.989 183.842 218.345 182.676C218.701 181.511 221.935 181.466 225.568 182.576C229.201 183.687 231.5 186.698 231.5 186.698Z" fill="url(#paint17_linear)"/>
<path fill-rule="evenodd" clip-rule="evenodd" d="M229.978 159.241C229.978 159.241 227.054 156.834 226.072 153.159C225.091 149.484 225.249 146.249 226.424 145.933C227.6 145.617 229.348 148.34 230.33 152.015C231.311 155.69 229.978 159.241 229.978 159.241Z" fill="url(#paint18_linear)"/>
<path fill-rule="evenodd" clip-rule="evenodd" d="M234.077 176.153C234.077 176.153 235.584 172.672 238.842 170.71C242.1 168.749 245.249 168.005 245.875 169.049C246.501 170.094 244.368 172.531 241.11 174.492C237.852 176.454 234.077 176.153 234.077 176.153Z" fill="url(#paint19_linear)"/>
<path fill-rule="evenodd" clip-rule="evenodd" d="M234.365 186.867C234.365 186.867 236.227 183.562 239.671 181.952C243.115 180.342 246.324 179.932 246.838 181.036C247.351 182.141 244.976 184.341 241.531 185.951C238.087 187.561 234.365 186.867 234.365 186.867Z" fill="url(#paint20_linear)"/>
</g>
<path opacity="0.5" fill-rule="evenodd" clip-rule="evenodd" d="M27.468 259.4L111.387 213.452H197.533L129.644 266.189L27.468 259.4Z" fill="url(#paint21_linear)"/>
<path fill-rule="evenodd" clip-rule="evenodd" d="M156.987 217.087C179.714 217.087 198.138 215.641 198.138 213.856C198.138 212.072 179.714 210.625 156.987 210.625C134.259 210.625 115.835 212.072 115.835 213.856C115.835 215.641 134.259 217.087 156.987 217.087Z" fill="#8699BF"/>
<path fill-rule="evenodd" clip-rule="evenodd" d="M112.324 57.6069C112.324 51.2192 117.502 46.041 123.889 46.041H192.138C198.526 46.041 203.704 51.2192 203.704 57.6069V203.3C203.704 209.687 198.526 214.866 192.138 214.866H123.889C117.502 214.866 112.324 209.687 112.324 203.3V57.6069Z" fill="url(#paint22_linear)" fill-opacity="0.98"/>
<path fill-rule="evenodd" clip-rule="evenodd" d="M107.766 57.6069C107.766 51.2192 112.944 46.041 119.332 46.041H187.581C193.968 46.041 199.147 51.2192 199.147 57.6069V203.3C199.147 209.687 193.968 214.866 187.581 214.866H119.332C112.944 214.866 107.766 209.687 107.766 203.3V57.6069Z" fill="url(#paint23_linear)"/>
<rect opacity="0.6" x="129.552" y="56.9458" width="48.01" height="3.02915" rx="1.2392" fill="url(#paint24_linear)"/>
<path fill-rule="evenodd" clip-rule="evenodd" d="M153.355 211.231C158.034 211.231 161.827 207.433 161.827 202.749C161.827 198.065 158.034 194.268 153.355 194.268C148.676 194.268 144.883 198.065 144.883 202.749C144.883 207.433 148.676 211.231 153.355 211.231Z" fill="url(#paint25_linear)"/>
<g filter="url(#filter2_d)">
<rect x="111.599" y="70.2739" width="83.9166" height="120.358" rx="1.98272" fill="white"/>
</g>
<mask id="mask1" mask-type="alpha" maskUnits="userSpaceOnUse" x="111" y="70" width="85" height="121">
<rect x="111.599" y="70.2739" width="83.9166" height="120.358" rx="1.98272" fill="white"/>
</mask>
<g mask="url(#mask1)">
</g>
<g opacity="0.6">
<rect x="116.759" y="160.313" width="74.5679" height="22.5923" rx="3.23763" fill="url(#paint26_linear)"/>
<path fill-rule="evenodd" clip-rule="evenodd" d="M128.063 179.933C132.663 179.933 136.392 176.206 136.392 171.609C136.392 167.012 132.663 163.286 128.063 163.286C123.463 163.286 119.733 167.012 119.733 171.609C119.733 176.206 123.463 179.933 128.063 179.933Z" fill="#A1B8E3"/>
<rect x="139.367" y="164.276" width="46.2083" height="3.36902" rx="1.37599" fill="#A1B8E3"/>
<rect x="139.367" y="169.825" width="35.3007" height="3.36902" rx="1.37599" fill="#A1B8E3"/>
<rect opacity="0.5" x="139.367" y="176.563" width="13.089" height="2.37813" rx="1.18907" fill="#A1B8E3"/>
</g>
<g opacity="0.6">
<rect x="116.759" y="132.964" width="74.5679" height="22.5923" rx="3.23763" fill="url(#paint27_linear)"/>
<path fill-rule="evenodd" clip-rule="evenodd" d="M128.063 152.584C132.663 152.584 136.392 148.857 136.392 144.26C136.392 139.664 132.663 135.937 128.063 135.937C123.463 135.937 119.733 139.664 119.733 144.26C119.733 148.857 123.463 152.584 128.063 152.584Z" fill="#A1B8E3"/>
<rect x="139.367" y="136.928" width="46.2083" height="3.36902" rx="1.37599" fill="#A1B8E3"/>
<rect x="139.367" y="142.477" width="35.3007" height="3.36902" rx="1.37599" fill="#A1B8E3"/>
<rect opacity="0.5" x="139.367" y="149.215" width="13.089" height="2.37813" rx="1.18907" fill="#A1B8E3"/>
</g>
<g opacity="0.6">
<rect x="116.759" y="75.8892" width="74.5679" height="22.5923" rx="3.23763" fill="url(#paint28_linear)"/>
<path fill-rule="evenodd" clip-rule="evenodd" d="M128.063 95.5087C132.663 95.5087 136.392 91.7822 136.392 87.1853C136.392 82.5884 132.663 78.8618 128.063 78.8618C123.463 78.8618 119.733 82.5884 119.733 87.1853C119.733 91.7822 123.463 95.5087 128.063 95.5087Z" fill="#A1B8E3"/>
<rect x="139.367" y="79.8525" width="46.2083" height="3.36902" rx="1.37599" fill="#A1B8E3"/>
<rect x="139.367" y="85.4019" width="35.3007" height="3.36902" rx="1.37599" fill="#A1B8E3"/>
<rect opacity="0.5" x="139.367" y="92.1396" width="13.089" height="2.37813" rx="1.18907" fill="#A1B8E3"/>
</g>
<g filter="url(#filter3_d)">
<rect x="104.86" y="102.643" width="74.5679" height="22.5923" rx="3.23763" fill="url(#paint29_linear)"/>
<path fill-rule="evenodd" clip-rule="evenodd" d="M116.164 122.263C120.764 122.263 124.493 118.536 124.493 113.939C124.493 109.342 120.764 105.616 116.164 105.616C111.563 105.616 107.834 109.342 107.834 113.939C107.834 118.536 111.563 122.263 116.164 122.263Z" fill="#FFB417"/>
<rect x="127.468" y="106.606" width="46.2083" height="3.36902" rx="1.37599" fill="#FFB417"/>
<rect x="127.468" y="112.156" width="35.3007" height="3.36902" rx="1.37599" fill="#FFB417"/>
<rect opacity="0.5" x="127.468" y="118.894" width="13.089" height="2.37813" rx="1.18907" fill="#FFB417"/>
</g>
<path opacity="0.5" fill-rule="evenodd" clip-rule="evenodd" d="M52.3436 257.872L134.185 252.614C132.29 254.304 129.925 255.376 127.404 255.69L67.5297 263.13" fill="url(#paint30_linear)"/>
<path opacity="0.5" fill-rule="evenodd" clip-rule="evenodd" d="M17.9805 249.941H98.738C97.3544 251.237 95.5493 251.99 93.6546 252.062L37.596 254.17" fill="url(#paint31_linear)"/>
<path fill-rule="evenodd" clip-rule="evenodd" d="M77.9313 163.274C77.9313 166.882 74.9621 173.954 78.8339 175.787C82.7057 177.621 86.1296 168.098 86.1296 168.098C86.1296 168.098 85.8345 161.106 82.3342 161.106C78.8339 161.106 77.9313 159.665 77.9313 163.274Z" fill="url(#paint32_linear)"/>
<mask id="mask2" mask-type="alpha" maskUnits="userSpaceOnUse" x="76" y="160" width="11" height="17">
<path fill-rule="evenodd" clip-rule="evenodd" d="M77.9313 163.274C77.9313 166.882 74.9621 173.954 78.8339 175.787C82.7057 177.621 86.1296 168.098 86.1296 168.098C86.1296 168.098 85.8345 161.106 82.3342 161.106C78.8339 161.106 77.9313 159.665 77.9313 163.274Z" fill="white"/>
</mask>
<g mask="url(#mask2)">
<g opacity="0.5">
<path fill-rule="evenodd" clip-rule="evenodd" d="M77.7085 164.89C78.0207 165.525 82.2756 168.885 82.9791 169.679C83.6827 170.474 83.8436 172.551 84.2476 172.336C84.6516 172.122 84.2476 166.03 84.2476 166.03C84.2476 166.03 77.3963 164.254 77.7085 164.89Z" fill="#3D82F0" style="mix-blend-mode:multiply"/>
</g>
</g>
<path fill-rule="evenodd" clip-rule="evenodd" d="M84.8566 245.096C84.7915 246.96 84.2293 249.272 84.6779 250.215C85.1265 251.157 87.4934 251.727 88.2798 251.754C89.0663 251.782 89.3757 250.463 90.5732 251.189C91.7707 251.915 98.7331 252.119 99.2822 249.363C99.8312 246.608 96.3022 246.484 94.7326 246.43C93.163 246.375 91.5275 245.552 89.2663 243.483C87.005 241.415 84.9217 243.233 84.8566 245.096Z" fill="url(#paint33_linear)"/>
<path d="M93.6201 247.795C94.0345 246.866 92.9057 245.792 92.6192 245.756" stroke="white" stroke-width="0.531387" stroke-linecap="round"/>
<path d="M95.511 247.771C95.6471 246.661 94.8659 246.272 94.5535 246.234" stroke="white" stroke-width="0.531387" stroke-linecap="round"/>
<path fill-rule="evenodd" clip-rule="evenodd" d="M119.732 249.017C119.895 250.875 119.619 253.238 120.179 254.119C120.739 254.999 123.157 255.277 123.941 255.208C124.725 255.139 124.872 253.793 126.149 254.367C127.426 254.942 134.361 254.296 134.57 251.494C134.78 248.692 131.262 249 129.697 249.137C128.133 249.274 126.409 248.656 123.913 246.878C121.416 245.101 119.57 247.159 119.732 249.017Z" fill="url(#paint34_linear)"/>
<path d="M128.758 250.627C129.056 249.654 127.805 248.726 127.516 248.725" stroke="white" stroke-width="0.531387" stroke-linecap="round"/>
<path d="M130.632 250.373C130.632 249.255 129.809 248.964 129.495 248.964" stroke="white" stroke-width="0.531387" stroke-linecap="round"/>
<path fill-rule="evenodd" clip-rule="evenodd" d="M113.409 182.267C113.409 182.267 121.013 210.16 122.003 216.507C122.993 222.854 125.416 244.307 125.074 247.767C123.419 249.456 120.438 248.445 119.919 248.135C119.399 247.825 116.2 230.174 113.409 223.327C110.617 216.479 104.336 210.178 100.197 203.288C100.197 207.772 97.0013 219.772 97.0013 219.772C97.0013 219.772 92.341 240.963 90.7551 244.393C90.0026 245.61 86.2037 244.717 84.7302 244.393C84.7302 241.179 87.9072 224.941 87.9072 219.304C87.9072 213.667 87.0286 203.452 86.7003 199.264C86.3721 195.076 85.57 186.951 86.7003 182.267C89.5655 182.267 113.409 182.267 113.409 182.267Z" fill="url(#paint35_linear)"/>
<mask id="mask3" mask-type="alpha" maskUnits="userSpaceOnUse" x="84" y="182" width="42" height="67">
<path fill-rule="evenodd" clip-rule="evenodd" d="M113.409 182.267C113.409 182.267 121.013 210.16 122.003 216.507C122.993 222.854 125.416 244.307 125.074 247.767C123.419 249.456 120.438 248.445 119.919 248.135C119.399 247.825 116.2 230.174 113.409 223.327C110.617 216.479 104.336 210.178 100.197 203.288C100.197 207.772 97.0013 219.772 97.0013 219.772C97.0013 219.772 92.341 240.963 90.7551 244.393C90.0026 245.61 86.2037 244.717 84.7302 244.393C84.7302 241.179 87.9072 224.941 87.9072 219.304C87.9072 213.667 87.0286 203.452 86.7003 199.264C86.3721 195.076 85.57 186.951 86.7003 182.267C89.5655 182.267 113.409 182.267 113.409 182.267Z" fill="white"/>
</mask>
<g mask="url(#mask3)">
<g opacity="0.5">
<path fill-rule="evenodd" clip-rule="evenodd" d="M96.1866 223.029C96.1866 220.299 97.5917 197.99 97.9145 198.905C98.2373 199.821 100.751 204.765 100.751 204.765C100.751 204.765 96.1866 225.759 96.1866 223.029Z" fill="#A1B8E3" style="mix-blend-mode:multiply"/>
</g>
<g opacity="0.5">
<path fill-rule="evenodd" clip-rule="evenodd" d="M88.46 186.927C90.2377 187.884 97.199 191.958 106.169 190.326C110.601 189.519 113.452 188.463 114.731 186.927C114.731 186.171 113.656 182.988 113.355 181.771C113.055 180.553 86.2831 185.755 88.46 186.927Z" fill="url(#paint36_linear)" style="mix-blend-mode:multiply"/>
</g>
</g>
<path fill-rule="evenodd" clip-rule="evenodd" d="M99.9583 122.976C99.9583 122.976 100.986 124.968 102.726 125.814C104.467 126.66 105.337 127.074 105.337 127.074L104.597 129.947C104.597 129.947 105.976 134.172 105.337 135.597C104.697 137.021 102.726 137.968 101.579 139.238C100.432 140.508 99.3712 144.816 99.3712 144.816H91.8099L91.4675 139.238C91.4675 139.238 89.4509 131.188 92.8723 127.074C96.2936 122.961 99.9583 122.976 99.9583 122.976Z" fill="url(#paint37_linear)"/>
<mask id="mask4" mask-type="alpha" maskUnits="userSpaceOnUse" x="90" y="122" width="16" height="23">
<path fill-rule="evenodd" clip-rule="evenodd" d="M99.9583 122.976C99.9583 122.976 100.986 124.968 102.726 125.814C104.467 126.66 105.337 127.074 105.337 127.074L104.597 129.947C104.597 129.947 105.976 134.172 105.337 135.597C104.697 137.021 102.726 137.968 101.579 139.238C100.432 140.508 99.3712 144.816 99.3712 144.816H91.8099L91.4675 139.238C91.4675 139.238 89.4509 131.188 92.8723 127.074C96.2936 122.961 99.9583 122.976 99.9583 122.976Z" fill="white"/>
</mask>
<g mask="url(#mask4)">
<g opacity="0.5">
<path fill-rule="evenodd" clip-rule="evenodd" d="M102.521 138.479C100.613 138.479 97.6353 136.788 97.0622 136.21C96.4892 135.631 101.834 141.885 101.388 142.881C101.036 143.666 99.7792 143.907 100.572 143.907C103.43 143.907 104.43 138.479 102.521 138.479Z" fill="#3D82F0" style="mix-blend-mode:multiply"/>
</g>
</g>
<path fill-rule="evenodd" clip-rule="evenodd" d="M91.4684 139.002C84.8016 132.764 79.5226 127.44 84.0754 120.022C88.6281 112.604 99.2214 110.11 101.201 119.127C101.201 122.997 98.3478 125.063 98.3478 125.063C98.3478 125.063 97.8139 126.151 99.2214 127.305C100.629 128.458 99.2214 129.412 99.2214 129.412C99.2214 129.412 96.4421 127.622 95.7163 130.005C94.9905 132.389 97.6695 133.242 97.6695 133.838C98.5929 136.03 96.6872 138.036 96.6872 138.036C96.6872 138.036 95.7116 139.002 91.4684 139.002Z" fill="url(#paint38_linear)"/>
<path fill-rule="evenodd" clip-rule="evenodd" d="M84.5916 147.417C84.5916 147.417 77.4549 159.95 76.5939 162.708C75.7328 165.466 84.5916 167.061 84.5916 167.061L88.2884 151.295L84.5916 147.417Z" fill="url(#paint39_linear)"/>
<path fill-rule="evenodd" clip-rule="evenodd" d="M100.009 143.102C100.009 143.102 105.384 144.522 108.551 148.275C111.719 152.027 111.013 163.316 111.91 170.035C112.807 176.753 116.711 181.637 110.681 185.429C104.652 189.221 87.6044 188.36 86.2102 185.429C84.8161 182.498 83.227 164.486 83.227 164.486C83.227 164.486 83.227 148.275 85.1313 146.908C87.0355 145.541 91.4809 142.9 91.4809 142.9C91.4809 142.9 91.3813 143.302 93.5257 143.7C95.6701 144.099 100.009 143.102 100.009 143.102Z" fill="#D6E3FA"/>
<mask id="mask5" mask-type="alpha" maskUnits="userSpaceOnUse" x="83" y="142" width="31" height="46">
<path fill-rule="evenodd" clip-rule="evenodd" d="M100.009 143.102C100.009 143.102 105.384 144.522 108.551 148.275C111.719 152.027 111.013 163.316 111.91 170.035C112.807 176.753 116.711 181.637 110.681 185.429C104.652 189.221 87.6044 188.36 86.2102 185.429C84.8161 182.498 83.227 164.486 83.227 164.486C83.227 164.486 83.227 148.275 85.1313 146.908C87.0355 145.541 91.4809 142.9 91.4809 142.9C91.4809 142.9 91.3813 143.302 93.5257 143.7C95.6701 144.099 100.009 143.102 100.009 143.102Z" fill="white"/>
</mask>
<g mask="url(#mask5)">
<path opacity="0.5" fill-rule="evenodd" clip-rule="evenodd" d="M104.473 155.927C104.473 155.927 107.373 169.494 109.117 172.037C110.862 174.58 111.996 182.275 113.393 183.192C114.789 184.11 116.795 173.613 115.792 170.019C114.789 166.425 110.268 157.622 110.268 157.622L104.473 155.927Z" fill="url(#paint40_linear)"/>
<path opacity="0.5" fill-rule="evenodd" clip-rule="evenodd" d="M92.7578 143.83C94.0481 144.687 97.4103 145.151 100.236 145.151C103.063 145.151 103.946 145.18 105.299 144.768C106.651 144.356 106.127 143.83 105.299 143.83C104.471 143.83 101.903 143.226 100.521 143.226C99.1385 143.226 91.4674 142.973 92.7578 143.83Z" fill="url(#paint41_linear)"/>
</g>
<path fill-rule="evenodd" clip-rule="evenodd" d="M91.2367 143.102C91.2367 143.102 91.0704 141.027 91.0704 140.358C91.0704 139.689 96.6378 140.634 100.644 141.009C101.079 142.678 101.002 142.789 101.002 143.102C101.002 143.259 100.001 144.602 94.6183 144.167C92.6533 144.008 91.2367 143.102 91.2367 143.102Z" fill="#E1ECFF"/>
<path fill-rule="evenodd" clip-rule="evenodd" d="M119.076 159.157C120.276 156.457 120.953 152.286 119.681 151.718C118.409 151.15 116.607 154.027 115.407 156.727C114.208 159.427 114.955 161.177 115.691 161.906C116.517 162.077 117.877 161.858 119.076 159.157Z" fill="#A1B8E3"/>
<path fill-rule="evenodd" clip-rule="evenodd" d="M117.657 151.084L123.29 153.407C123.29 153.407 128.278 140.076 128.58 138.346C128.882 136.615 127.538 134.172 127.32 133.302C127.103 132.431 127.137 130.382 127.743 129.633C128.349 128.883 128.509 129.151 128.962 129.038C129.414 128.926 132.099 123.16 132.403 122.436C132.708 121.711 133.251 121.257 133.804 121.499C134.357 121.74 134.306 122.385 134.088 122.955C133.87 123.525 132.645 126.723 132.784 127.28C132.924 127.837 135.083 128.558 135.686 128.928C136.289 129.299 137.316 130.515 136.804 132.274C136.292 134.033 133.927 137.22 134.096 137.898C134.265 138.576 131.882 150.067 131.123 154.663C130.365 159.258 129.373 162.481 125.49 162.213C121.606 161.945 113.557 157.621 113.557 157.621C113.557 157.621 114.081 154.265 115.085 153C116.09 151.735 117.657 151.084 117.657 151.084Z" fill="url(#paint42_linear)"/>
<mask id="mask6" mask-type="alpha" maskUnits="userSpaceOnUse" x="106" y="121" width="38" height="45">
<path fill-rule="evenodd" clip-rule="evenodd" d="M117.657 151.084L123.29 153.407C123.29 153.407 128.278 140.076 128.58 138.346C128.882 136.615 127.538 134.172 127.32 133.302C127.103 132.431 127.137 130.382 127.743 129.633C128.349 128.883 128.509 129.151 128.962 129.038C129.414 128.926 132.099 123.16 132.403 122.436C132.708 121.711 133.251 121.257 133.804 121.499C134.357 121.74 134.306 122.385 134.088 122.955C133.87 123.525 132.645 126.723 132.784 127.28C132.924 127.837 135.083 128.558 135.686 128.928C136.289 129.299 137.316 130.515 136.804 132.274C136.292 134.033 133.927 137.22 134.096 137.898C134.265 138.576 131.882 150.067 131.123 154.663C130.365 159.258 129.373 162.481 125.49 162.213C121.606 161.945 113.557 157.621 113.557 157.621C113.557 157.621 114.081 154.265 115.085 153C116.09 151.735 117.657 151.084 117.657 151.084Z" fill="white"/>
</mask>
<g mask="url(#mask6)">
<g opacity="0.5">
<path fill-rule="evenodd" clip-rule="evenodd" d="M119.505 151.704C119.505 151.704 118.314 158.69 119.064 160.746C119.814 162.802 115.705 159.9 115.705 159.9C115.705 159.9 115.784 156.906 116.415 155.546C117.045 154.185 119.505 151.704 119.505 151.704Z" fill="#3D82F0" style="mix-blend-mode:multiply"/>
</g>
<path opacity="0.4" d="M123.171 153.242C123.488 153.388 124.089 153.615 124.628 154.362" stroke="#223762" stroke-width="0.531387" stroke-linecap="round"/>
</g>
<path fill-rule="evenodd" clip-rule="evenodd" d="M115.64 161.883C116.273 158.707 117.185 154.338 119.724 151.723C110.661 147.809 107.805 146.422 104.955 145.203C102.106 143.984 99.5172 152.004 104.96 155.996C110.403 159.988 114.128 161.214 115.64 161.883Z" fill="url(#paint43_linear)"/>
<path fill-rule="evenodd" clip-rule="evenodd" d="M163.048 266.102H250.621V268.251C250.621 270.076 249.142 271.555 247.317 271.555H166.352C164.527 271.555 163.048 270.076 163.048 268.251V266.102Z" fill="#CAD7F1"/>
<path fill-rule="evenodd" clip-rule="evenodd" d="M173.366 249.287H240.7C242.913 249.287 245.274 250.782 245.972 252.627L250.651 264.986C251.35 266.831 249.778 268.326 247.141 268.326H166.925C164.288 268.326 162.717 266.831 163.415 264.986L168.094 252.627C168.792 250.782 171.153 249.287 173.366 249.287Z" fill="#EBF1FD"/>
<mask id="mask7" mask-type="alpha" maskUnits="userSpaceOnUse" x="163" y="249" width="88" height="20">
<path fill-rule="evenodd" clip-rule="evenodd" d="M173.366 249.287H240.7C242.913 249.287 245.274 250.782 245.972 252.627L250.651 264.986C251.35 266.831 249.778 268.326 247.141 268.326H166.925C164.288 268.326 162.717 266.831 163.415 264.986L168.094 252.627C168.792 250.782 171.153 249.287 173.366 249.287Z" fill="white"/>
</mask>
<g mask="url(#mask7)">
<path fill-rule="evenodd" clip-rule="evenodd" d="M176.332 265.816C181.753 265.816 186.71 262.675 187.405 258.801C188.099 254.927 184.799 251.787 180.033 251.787C175.268 251.787 170.311 254.927 168.961 258.801C167.611 262.675 170.912 265.816 176.332 265.816Z" fill="#CAD7F1"/>
<path fill-rule="evenodd" clip-rule="evenodd" d="M193.489 252.695H238.227C239.2 252.695 240.191 253.33 240.442 254.114C240.693 254.898 240.087 255.534 239.088 255.534H193.114C192.115 255.534 191.4 254.898 191.517 254.114C191.633 253.33 192.516 252.695 193.489 252.695Z" fill="#CAD7F1"/>
<path fill-rule="evenodd" clip-rule="evenodd" d="M192.767 257.467H227.63C228.646 257.467 229.603 258.102 229.768 258.886C229.932 259.67 229.219 260.306 228.176 260.306H192.392C191.349 260.306 190.598 259.67 190.715 258.886C190.832 258.102 191.75 257.467 192.767 257.467Z" fill="#CAD7F1"/>
<path opacity="0.5" fill-rule="evenodd" clip-rule="evenodd" d="M191.627 263.148H203.938C204.693 263.148 205.298 263.597 205.289 264.15C205.28 264.703 204.65 265.152 203.881 265.152H191.353C190.584 265.152 190.027 264.703 190.11 264.15C190.192 263.597 190.872 263.148 191.627 263.148Z" fill="#CAD7F1"/>
</g>
<g filter="url(#filter4_d)">
<path fill-rule="evenodd" clip-rule="evenodd" d="M159.848 258.446L247.408 259.974L247.371 262.123C247.339 263.948 245.834 265.401 244.009 265.369L163.057 263.956C161.232 263.924 159.779 262.419 159.81 260.594L159.848 258.446Z" fill="#CAD7F1"/>
<path fill-rule="evenodd" clip-rule="evenodd" d="M170.458 241.813L237.781 242.988C239.994 243.027 242.328 244.564 242.994 246.42L247.457 258.859C248.123 260.716 246.525 262.184 243.889 262.138L163.685 260.738C161.049 260.692 159.503 259.169 160.234 257.337L165.128 245.061C165.858 243.229 168.245 241.775 170.458 241.813Z" fill="#EBF1FD"/>
<mask id="mask8" mask-type="alpha" maskUnits="userSpaceOnUse" x="160" y="241" width="88" height="22">
<path fill-rule="evenodd" clip-rule="evenodd" d="M170.458 241.813L237.781 242.988C239.994 243.027 242.328 244.564 242.994 246.42L247.457 258.859C248.123 260.716 246.525 262.184 243.889 262.138L163.685 260.738C161.049 260.692 159.503 259.169 160.234 257.337L165.128 245.061C165.858 243.229 168.245 241.775 170.458 241.813Z" fill="white"/>
</mask>
<g mask="url(#mask8)">
<path fill-rule="evenodd" clip-rule="evenodd" d="M173.135 258.391C178.555 258.486 183.566 255.432 184.328 251.571C185.09 247.71 181.845 244.512 177.08 244.429C172.316 244.346 167.304 247.399 165.887 251.249C164.47 255.099 167.715 258.297 173.135 258.391Z" fill="#CAD7F1"/>
<path fill-rule="evenodd" clip-rule="evenodd" d="M190.518 245.573L235.25 246.354C236.222 246.37 237.202 247.023 237.44 247.812C237.677 248.6 237.059 249.225 236.06 249.207L190.094 248.405C189.095 248.388 188.391 247.74 188.521 246.958C188.652 246.176 189.546 245.556 190.518 245.573Z" fill="#CAD7F1"/>
<path fill-rule="evenodd" clip-rule="evenodd" d="M189.712 250.331L224.57 250.94C225.586 250.958 226.532 251.61 226.683 252.397C226.833 253.183 226.11 253.806 225.066 253.788L189.288 253.164C188.245 253.145 187.505 252.497 187.636 251.715C187.766 250.933 188.696 250.314 189.712 250.331Z" fill="#CAD7F1"/>
<path opacity="0.5" fill-rule="evenodd" clip-rule="evenodd" d="M188.474 255.991L200.782 256.206C201.538 256.219 202.135 256.678 202.116 257.231C202.098 257.785 201.46 258.222 200.691 258.209L188.164 257.99C187.395 257.977 186.847 257.518 186.939 256.966C187.031 256.415 187.718 255.978 188.474 255.991Z" fill="#CAD7F1"/>
</g>
</g>
<g filter="url(#filter5_d)">
<path fill-rule="evenodd" clip-rule="evenodd" d="M164.97 253.506L252.49 250.45L252.565 252.597C252.629 254.421 251.202 255.951 249.378 256.015L168.463 258.841C166.639 258.904 165.108 257.477 165.045 255.654L164.97 253.506Z" fill="#CAD7F1"/>
<path fill-rule="evenodd" clip-rule="evenodd" d="M174.695 236.341L241.987 233.991C244.2 233.914 246.611 235.326 247.373 237.146L252.481 249.334C253.243 251.153 251.725 252.703 249.089 252.795L168.922 255.594C166.287 255.686 164.664 254.246 165.298 252.378L169.542 239.864C170.176 237.995 172.483 236.419 174.695 236.341Z" fill="#EBF1FD"/>
<mask id="mask9" mask-type="alpha" maskUnits="userSpaceOnUse" x="164" y="233" width="89" height="23">
<path fill-rule="evenodd" clip-rule="evenodd" d="M174.695 236.341L241.987 233.991C244.2 233.914 246.611 235.326 247.373 237.146L252.481 249.334C253.243 251.153 251.725 252.703 249.089 252.795L168.922 255.594C166.287 255.686 164.664 254.246 165.298 252.378L169.542 239.864C170.176 237.995 172.483 236.419 174.695 236.341Z" fill="white"/>
</mask>
<g mask="url(#mask9)">
<path fill-rule="evenodd" clip-rule="evenodd" d="M178.236 252.756C183.653 252.567 188.498 249.255 189.057 245.36C189.615 241.464 186.207 238.44 181.445 238.606C176.682 238.773 171.838 242.084 170.624 246.003C169.411 249.922 172.818 252.945 178.236 252.756Z" fill="#CAD7F1"/>
<path fill-rule="evenodd" clip-rule="evenodd" d="M194.925 239.045L239.636 237.484C240.608 237.45 241.621 238.051 241.899 238.826C242.177 239.6 241.593 240.257 240.595 240.292L194.649 241.896C193.651 241.931 192.914 241.321 193.003 240.533C193.093 239.745 193.953 239.079 194.925 239.045Z" fill="#CAD7F1"/>
<path fill-rule="evenodd" clip-rule="evenodd" d="M194.369 243.839L229.211 242.622C230.227 242.587 231.205 243.189 231.397 243.967C231.588 244.744 230.898 245.404 229.855 245.441L194.094 246.69C193.051 246.726 192.278 246.117 192.368 245.329C192.457 244.542 193.353 243.875 194.369 243.839Z" fill="#CAD7F1"/>
<path opacity="0.5" fill-rule="evenodd" clip-rule="evenodd" d="M193.428 249.556L205.731 249.127C206.486 249.1 207.107 249.527 207.117 250.081C207.127 250.634 206.513 251.105 205.745 251.131L193.224 251.569C192.455 251.595 191.884 251.167 191.947 250.611C192.01 250.055 192.673 249.583 193.428 249.556Z" fill="#CAD7F1"/>
</g>
</g>
<path fill-rule="evenodd" clip-rule="evenodd" d="M156.913 245.449H244.452V247.634C244.452 249.459 242.972 250.939 241.147 250.939H160.217C158.392 250.939 156.913 249.459 156.913 247.634V245.449Z" fill="#C6D5EF"/>
<path fill-rule="evenodd" clip-rule="evenodd" d="M167.227 228.523H234.534C236.747 228.523 239.106 230.028 239.805 231.885L244.482 244.326C245.18 246.183 243.609 247.688 240.973 247.688H160.788C158.152 247.688 156.581 246.183 157.28 244.326L161.957 231.885C162.655 230.028 165.014 228.523 167.227 228.523Z" fill="#EBF1FD"/>
<mask id="mask10" mask-type="alpha" maskUnits="userSpaceOnUse" x="157" y="228" width="88" height="20">
<path fill-rule="evenodd" clip-rule="evenodd" d="M167.227 228.523H234.534C236.747 228.523 239.106 230.028 239.805 231.885L244.482 244.326C245.18 246.183 243.609 247.688 240.973 247.688H160.788C158.152 247.688 156.581 246.183 157.28 244.326L161.957 231.885C162.655 230.028 165.014 228.523 167.227 228.523Z" fill="white"/>
</mask>
<g mask="url(#mask10)">
<path opacity="0.5" fill-rule="evenodd" clip-rule="evenodd" d="M170.192 245.161C175.61 245.161 180.566 242 181.26 238.1C181.954 234.2 178.655 231.039 173.891 231.039C169.128 231.039 164.172 234.2 162.823 238.1C161.474 242 164.773 245.161 170.192 245.161Z" fill="#AABFE5"/>
<path opacity="0.5" fill-rule="evenodd" clip-rule="evenodd" d="M187.342 231.954H232.063C233.035 231.954 234.026 232.594 234.277 233.383C234.528 234.172 233.922 234.812 232.923 234.812H186.967C185.969 234.812 185.254 234.172 185.37 233.383C185.487 232.594 186.37 231.954 187.342 231.954Z" fill="#AABFE5"/>
<path opacity="0.5" fill-rule="evenodd" clip-rule="evenodd" d="M186.62 236.757H221.469C222.485 236.757 223.442 237.397 223.606 238.186C223.77 238.976 223.058 239.615 222.015 239.615H186.245C185.203 239.615 184.452 238.976 184.568 238.186C184.685 237.397 185.604 236.757 186.62 236.757Z" fill="#AABFE5"/>
<path opacity="0.3" fill-rule="evenodd" clip-rule="evenodd" d="M185.48 242.476H197.786C198.541 242.476 199.146 242.927 199.137 243.484C199.128 244.041 198.498 244.493 197.73 244.493H185.206C184.437 244.493 183.881 244.041 183.964 243.484C184.046 242.927 184.725 242.476 185.48 242.476Z" fill="#A1B8E3"/>
</g>
<path opacity="0.7" fill-rule="evenodd" clip-rule="evenodd" d="M47.8538 209.01C54.5383 209.01 59.9572 210.185 59.9572 211.635C59.9572 213.085 54.5383 214.26 47.8538 214.26C41.1693 214.26 35.7504 213.085 35.7504 211.635C35.7504 210.185 41.1693 209.01 47.8538 209.01Z" fill="url(#paint44_linear)"/>
<path fill-rule="evenodd" clip-rule="evenodd" d="M63.9827 196.362C64.8933 197.96 65.4034 199.749 65.4034 201.639C65.4034 208.387 58.9008 213.857 50.8794 213.857C42.8579 213.857 36.3553 208.387 36.3553 201.639C36.3553 199.639 36.9265 197.752 37.9391 196.085C44.3732 197.105 57.1798 197.039 63.9827 196.362Z" fill="url(#paint45_linear)"/>
<mask id="mask11" mask-type="alpha" maskUnits="userSpaceOnUse" x="36" y="196" width="30" height="18">
<path fill-rule="evenodd" clip-rule="evenodd" d="M63.9827 196.362C64.8933 197.96 65.4034 199.749 65.4034 201.639C65.4034 208.387 58.9008 213.857 50.8794 213.857C42.8579 213.857 36.3553 208.387 36.3553 201.639C36.3553 199.639 36.9265 197.752 37.9391 196.085C44.3732 197.105 57.1798 197.039 63.9827 196.362Z" fill="white"/>
</mask>
<g mask="url(#mask11)">
</g>
<path fill-rule="evenodd" clip-rule="evenodd" d="M50.9805 193.662C58.2778 193.662 64.1934 195.063 64.1934 196.792C64.1934 198.521 58.2778 199.922 50.9805 199.922C43.6833 199.922 37.7677 198.521 37.7677 196.792C37.7677 195.063 43.6833 193.662 50.9805 193.662Z" fill="url(#paint46_linear)"/>
<mask id="mask12" mask-type="alpha" maskUnits="userSpaceOnUse" x="37" y="193" width="28" height="7">
<path fill-rule="evenodd" clip-rule="evenodd" d="M50.9805 193.662C58.2778 193.662 64.1934 195.063 64.1934 196.792C64.1934 198.521 58.2778 199.922 50.9805 199.922C43.6833 199.922 37.7677 198.521 37.7677 196.792C37.7677 195.063 43.6833 193.662 50.9805 193.662Z" fill="white"/>
</mask>
<g mask="url(#mask12)">
</g>
<g filter="url(#filter6_i)">
<path fill-rule="evenodd" clip-rule="evenodd" d="M49.8713 194.47C49.1498 189.471 47.1648 182.252 41.1973 174.477C37.682 169.897 37.6705 158.744 37.1628 157.514C39.9212 158.464 44.8764 160.911 49.8713 167.813C55.1075 175.048 51.7857 189.803 49.8713 194.47Z" fill="url(#paint47_linear)"/>
</g>
<mask id="mask13" mask-type="alpha" maskUnits="userSpaceOnUse" x="37" y="157" width="16" height="38">
<path fill-rule="evenodd" clip-rule="evenodd" d="M49.8713 194.47C49.1498 189.471 47.1648 182.252 41.1973 174.477C37.682 169.897 37.6705 158.744 37.1628 157.514C39.9212 158.464 44.8764 160.911 49.8713 167.813C55.1075 175.048 51.7857 189.803 49.8713 194.47Z" fill="white"/>
</mask>
<g mask="url(#mask13)">
<g style="mix-blend-mode:multiply" opacity="0.5">
<path d="M49.4819 192.291L44.5259 168.813C48.3494 175.19 49.7412 182.086 49.4819 192.291Z" fill="black" fill-opacity="0.01"/>
<path d="M49.4819 192.291L44.5259 168.813C48.3494 175.19 49.7412 182.086 49.4819 192.291Z" stroke="#489C71" stroke-width="0.531387"/>
</g>
</g>
<g filter="url(#filter7_i)">
<path fill-rule="evenodd" clip-rule="evenodd" d="M49.8936 199.601C47.6644 196.031 43.7257 191.194 36.5613 187.272C32.3409 184.961 28.5869 176.46 27.7865 175.692C30.2102 175.489 34.8133 175.689 40.9424 179.272C47.3674 183.029 49.7873 195.398 49.8936 199.601Z" fill="url(#paint48_linear)"/>
</g>
<mask id="mask14" mask-type="alpha" maskUnits="userSpaceOnUse" x="27" y="175" width="23" height="25">
<path fill-rule="evenodd" clip-rule="evenodd" d="M49.8936 199.601C47.6644 196.031 43.7257 191.194 36.5613 187.272C32.3409 184.961 28.5869 176.46 27.7865 175.692C30.2102 175.489 34.8133 175.689 40.9424 179.272C47.3674 183.029 49.7873 195.398 49.8936 199.601Z" fill="white"/>
</mask>
<g mask="url(#mask14)">
<g style="mix-blend-mode:multiply" opacity="0.5">
<path d="M48.6785 197.737L37.3901 182.024C42.2453 185.524 45.5414 190.191 48.6785 197.737Z" fill="black" fill-opacity="0.01"/>
<path d="M48.6785 197.737L37.3901 182.024C42.2453 185.524 45.5414 190.191 48.6785 197.737Z" stroke="#489C71" stroke-width="0.531387"/>
</g>
</g>
<g filter="url(#filter8_i)">
<path fill-rule="evenodd" clip-rule="evenodd" d="M51.4949 200.09C53.2526 196.248 56.5486 190.922 63.1764 186.092C67.0807 183.247 69.7178 174.297 70.4156 173.429C67.975 173.539 63.416 174.333 57.7755 178.692C51.8628 183.262 51.0559 195.891 51.4949 200.09Z" fill="url(#paint49_linear)"/>
</g>
<mask id="mask15" mask-type="alpha" maskUnits="userSpaceOnUse" x="51" y="173" width="20" height="28">
<path fill-rule="evenodd" clip-rule="evenodd" d="M51.4949 200.09C53.2526 196.248 56.5486 190.922 63.1764 186.092C67.0807 183.247 69.7178 174.297 70.4156 173.429C67.975 173.539 63.416 174.333 57.7755 178.692C51.8628 183.262 51.0559 195.891 51.4949 200.09Z" fill="white"/>
</mask>
<g mask="url(#mask15)">
<g style="mix-blend-mode:multiply" opacity="0.5">
<path d="M61.0017 180.912L51.7861 198.031C53.9342 190.103 56.6141 185.027 61.0017 180.912Z" fill="black" fill-opacity="0.01"/>
<path d="M61.0017 180.912L51.7861 198.031C53.9342 190.103 56.6141 185.027 61.0017 180.912Z" stroke="#489C71" stroke-width="0.531387"/>
</g>
</g>
<rect width="24" height="109.6" transform="matrix(-1 0 0 1 300 170)" fill="url(#paint50_linear)"/>
</g>
<defs>
<filter id="filter0_i" x="34.2913" y="63.2377" width="105.43" height="57.4075" filterUnits="userSpaceOnUse" color-interpolation-filters="sRGB">
<feFlood flood-opacity="0" result="BackgroundImageFix"/>
<feBlend mode="normal" in="SourceGraphic" in2="BackgroundImageFix" result="shape"/>
<feColorMatrix in="SourceAlpha" type="matrix" values="0 0 0 0 0 0 0 0 0 0 0 0 0 0 0 0 0 0 127 0" result="hardAlpha"/>
<feOffset dy="-2.4"/>
<feGaussianBlur stdDeviation="2"/>
<feComposite in2="hardAlpha" operator="arithmetic" k2="-1" k3="1"/>
<feColorMatrix type="matrix" values="0 0 0 0 0.788056 0 0 0 0 0.827193 0 0 0 0 0.89764 0 0 0 0.337126 0"/>
<feBlend mode="normal" in2="shape" result="effect1_innerShadow"/>
</filter>
<filter id="filter1_i" x="137.292" y="22.4257" width="104.173" height="58.9272" filterUnits="userSpaceOnUse" color-interpolation-filters="sRGB">
<feFlood flood-opacity="0" result="BackgroundImageFix"/>
<feBlend mode="normal" in="SourceGraphic" in2="BackgroundImageFix" result="shape"/>
<feColorMatrix in="SourceAlpha" type="matrix" values="0 0 0 0 0 0 0 0 0 0 0 0 0 0 0 0 0 0 127 0" result="hardAlpha"/>
<feOffset dy="-2.4"/>
<feGaussianBlur stdDeviation="2"/>
<feComposite in2="hardAlpha" operator="arithmetic" k2="-1" k3="1"/>
<feColorMatrix type="matrix" values="0 0 0 0 0.788056 0 0 0 0 0.827193 0 0 0 0 0.89764 0 0 0 0.337126 0"/>
<feBlend mode="normal" in2="shape" result="effect1_innerShadow"/>
</filter>
<filter id="filter2_d" x="15.5989" y="-25.7261" width="275.917" height="312.358" filterUnits="userSpaceOnUse" color-interpolation-filters="sRGB">
<feFlood flood-opacity="0" result="BackgroundImageFix"/>
<feColorMatrix in="SourceAlpha" type="matrix" values="0 0 0 0 0 0 0 0 0 0 0 0 0 0 0 0 0 0 127 0"/>
<feOffset/>
<feGaussianBlur stdDeviation="48"/>
<feColorMatrix type="matrix" values="0 0 0 0 1 0 0 0 0 1 0 0 0 0 1 0 0 0 1 0"/>
<feBlend mode="normal" in2="BackgroundImageFix" result="effect1_dropShadow"/>
<feBlend mode="normal" in="SourceGraphic" in2="effect1_dropShadow" result="shape"/>
</filter>
<filter id="filter3_d" x="104.86" y="102.643" width="76.9679" height="24.9923" filterUnits="userSpaceOnUse" color-interpolation-filters="sRGB">
<feFlood flood-opacity="0" result="BackgroundImageFix"/>
<feColorMatrix in="SourceAlpha" type="matrix" values="0 0 0 0 0 0 0 0 0 0 0 0 0 0 0 0 0 0 127 0"/>
<feOffset dx="2.4" dy="2.4"/>
<feColorMatrix type="matrix" values="0 0 0 0 1 0 0 0 0 0.706613 0 0 0 0 0.0893703 0 0 0 0.173347 0"/>
<feBlend mode="normal" in2="BackgroundImageFix" result="effect1_dropShadow"/>
<feBlend mode="normal" in="SourceGraphic" in2="effect1_dropShadow" result="shape"/>
</filter>
<filter id="filter4_d" x="156.553" y="240.037" width="92.9438" height="28.5902" filterUnits="userSpaceOnUse" color-interpolation-filters="sRGB">
<feFlood flood-opacity="0" result="BackgroundImageFix"/>
<feColorMatrix in="SourceAlpha" type="matrix" values="0 0 0 0 0 0 0 0 0 0 0 0 0 0 0 0 0 0 127 0"/>
<feOffset dx="-0.8" dy="0.8"/>
<feGaussianBlur stdDeviation="1.2"/>
<feColorMatrix type="matrix" values="0 0 0 0 0.260846 0 0 0 0 0.436705 0 0 0 0 0.80195 0 0 0 0.186 0"/>
<feBlend mode="normal" in2="BackgroundImageFix" result="effect1_dropShadow"/>
<feBlend mode="normal" in="SourceGraphic" in2="effect1_dropShadow" result="shape"/>
</filter>
<filter id="filter5_d" x="161.384" y="232.038" width="92.9789" height="30.118" filterUnits="userSpaceOnUse" color-interpolation-filters="sRGB">
<feFlood flood-opacity="0" result="BackgroundImageFix"/>
<feColorMatrix in="SourceAlpha" type="matrix" values="0 0 0 0 0 0 0 0 0 0 0 0 0 0 0 0 0 0 127 0"/>
<feOffset dx="-0.8" dy="0.8"/>
<feGaussianBlur stdDeviation="1.2"/>
<feColorMatrix type="matrix" values="0 0 0 0 0.260846 0 0 0 0 0.436705 0 0 0 0 0.80195 0 0 0 0.186 0"/>
<feBlend mode="normal" in2="BackgroundImageFix" result="effect1_dropShadow"/>
<feBlend mode="normal" in="SourceGraphic" in2="effect1_dropShadow" result="shape"/>
</filter>
<filter id="filter6_i" x="37.1628" y="155.114" width="15.5219" height="39.3556" filterUnits="userSpaceOnUse" color-interpolation-filters="sRGB">
<feFlood flood-opacity="0" result="BackgroundImageFix"/>
<feBlend mode="normal" in="SourceGraphic" in2="BackgroundImageFix" result="shape"/>
<feColorMatrix in="SourceAlpha" type="matrix" values="0 0 0 0 0 0 0 0 0 0 0 0 0 0 0 0 0 0 127 0" result="hardAlpha"/>
<feOffset dy="-2.4"/>
<feGaussianBlur stdDeviation="1.6"/>
<feComposite in2="hardAlpha" operator="arithmetic" k2="-1" k3="1"/>
<feColorMatrix type="matrix" values="0 0 0 0 0.221483 0 0 0 0 0.77854 0 0 0 0 0.610041 0 0 0 1 0"/>
<feBlend mode="normal" in2="shape" result="effect1_innerShadow"/>
</filter>
<filter id="filter7_i" x="27.7865" y="173.238" width="22.1071" height="26.363" filterUnits="userSpaceOnUse" color-interpolation-filters="sRGB">
<feFlood flood-opacity="0" result="BackgroundImageFix"/>
<feBlend mode="normal" in="SourceGraphic" in2="BackgroundImageFix" result="shape"/>
<feColorMatrix in="SourceAlpha" type="matrix" values="0 0 0 0 0 0 0 0 0 0 0 0 0 0 0 0 0 0 127 0" result="hardAlpha"/>
<feOffset dy="-2.4"/>
<feGaussianBlur stdDeviation="1.6"/>
<feComposite in2="hardAlpha" operator="arithmetic" k2="-1" k3="1"/>
<feColorMatrix type="matrix" values="0 0 0 0 0.221483 0 0 0 0 0.77854 0 0 0 0 0.610041 0 0 0 1 0"/>
<feBlend mode="normal" in2="shape" result="effect1_innerShadow"/>
</filter>
<filter id="filter8_i" x="51.3943" y="171.029" width="19.0213" height="29.0604" filterUnits="userSpaceOnUse" color-interpolation-filters="sRGB">
<feFlood flood-opacity="0" result="BackgroundImageFix"/>
<feBlend mode="normal" in="SourceGraphic" in2="BackgroundImageFix" result="shape"/>
<feColorMatrix in="SourceAlpha" type="matrix" values="0 0 0 0 0 0 0 0 0 0 0 0 0 0 0 0 0 0 127 0" result="hardAlpha"/>
<feOffset dy="-2.4"/>
<feGaussianBlur stdDeviation="1.6"/>
<feComposite in2="hardAlpha" operator="arithmetic" k2="-1" k3="1"/>
<feColorMatrix type="matrix" values="0 0 0 0 0.221483 0 0 0 0 0.77854 0 0 0 0 0.610041 0 0 0 1 0"/>
<feBlend mode="normal" in2="shape" result="effect1_innerShadow"/>
</filter>
<linearGradient id="paint0_linear" x1="104.375" y1="113.397" x2="109.953" y2="75.923" gradientUnits="userSpaceOnUse">
<stop stop-color="#ECF1FF"/>
<stop offset="1" stop-color="white"/>
</linearGradient>
<linearGradient id="paint1_linear" x1="206.475" y1="72.9712" x2="212.212" y2="35.2704" gradientUnits="userSpaceOnUse">
<stop stop-color="#ECF1FF"/>
<stop offset="1" stop-color="white"/>
</linearGradient>
<linearGradient id="paint2_linear" x1="474.274" y1="183.171" x2="473.599" y2="256.02" gradientUnits="userSpaceOnUse">
<stop stop-color="white"/>
<stop offset="0.746819" stop-color="#E0EAFB"/>
<stop offset="1" stop-color="#D6E3FA" stop-opacity="0.01"/>
</linearGradient>
<linearGradient id="paint3_linear" x1="232.428" y1="148.084" x2="232.428" y2="206.527" gradientUnits="userSpaceOnUse">
<stop stop-color="#CFDDF3"/>
<stop offset="1" stop-color="#A1B8E3"/>
</linearGradient>
<linearGradient id="paint4_linear" x1="232.554" y1="114.696" x2="221.198" y2="125.344" gradientUnits="userSpaceOnUse">
<stop stop-color="#CFDDF3"/>
<stop offset="1" stop-color="#A1B8E3"/>
</linearGradient>
<linearGradient id="paint5_linear" x1="290.279" y1="159.763" x2="286.195" y2="144.72" gradientUnits="userSpaceOnUse">
<stop stop-color="#CFDDF3"/>
<stop offset="1" stop-color="#A1B8E3"/>
</linearGradient>
<linearGradient id="paint6_linear" x1="284.502" y1="174.717" x2="281.21" y2="159.482" gradientUnits="userSpaceOnUse">
<stop stop-color="#CFDDF3"/>
<stop offset="1" stop-color="#A1B8E3"/>
</linearGradient>
<linearGradient id="paint7_linear" x1="280.063" y1="187.642" x2="276.772" y2="172.406" gradientUnits="userSpaceOnUse">
<stop stop-color="#CFDDF3"/>
<stop offset="1" stop-color="#A1B8E3"/>
</linearGradient>
<linearGradient id="paint8_linear" x1="280.636" y1="115.997" x2="265.992" y2="110.712" gradientUnits="userSpaceOnUse">
<stop stop-color="#CFDDF3"/>
<stop offset="1" stop-color="#A1B8E3"/>
</linearGradient>
<linearGradient id="paint9_linear" x1="219.727" y1="131.232" x2="210.61" y2="143.856" gradientUnits="userSpaceOnUse">
<stop stop-color="#CFDDF3"/>
<stop offset="1" stop-color="#A1B8E3"/>
</linearGradient>
<linearGradient id="paint10_linear" x1="211.47" y1="147.133" x2="203.722" y2="160.644" gradientUnits="userSpaceOnUse">
<stop stop-color="#CFDDF3"/>
<stop offset="1" stop-color="#A1B8E3"/>
</linearGradient>
<linearGradient id="paint11_linear" x1="423.874" y1="289.79" x2="423.557" y2="110.29" gradientUnits="userSpaceOnUse">
<stop stop-color="white" stop-opacity="0.01"/>
<stop offset="0.325613" stop-color="#F2F6FD"/>
<stop offset="1" stop-color="#D6E3FA"/>
</linearGradient>
<linearGradient id="paint12_linear" x1="0" y1="276.529" x2="24" y2="276.529" gradientUnits="userSpaceOnUse">
<stop stop-color="white"/>
<stop offset="1" stop-color="white" stop-opacity="0.01"/>
</linearGradient>
<linearGradient id="paint13_linear" x1="244.433" y1="165.456" x2="230.888" y2="207.142" gradientUnits="userSpaceOnUse">
<stop stop-color="#CFDDF3"/>
<stop offset="1" stop-color="#A1B8E3"/>
</linearGradient>
<linearGradient id="paint14_linear" x1="252.036" y1="141.586" x2="257.682" y2="151.859" gradientUnits="userSpaceOnUse">
<stop stop-color="#CFDDF3"/>
<stop offset="1" stop-color="#A1B8E3"/>
</linearGradient>
<linearGradient id="paint15_linear" x1="200.374" y1="160.372" x2="206.808" y2="150.555" gradientUnits="userSpaceOnUse">
<stop stop-color="#CFDDF3"/>
<stop offset="1" stop-color="#A1B8E3"/>
</linearGradient>
<linearGradient id="paint16_linear" x1="201.046" y1="172.384" x2="206.958" y2="162.244" gradientUnits="userSpaceOnUse">
<stop stop-color="#CFDDF3"/>
<stop offset="1" stop-color="#A1B8E3"/>
</linearGradient>
<linearGradient id="paint17_linear" x1="201.23" y1="182.636" x2="207.142" y2="172.496" gradientUnits="userSpaceOnUse">
<stop stop-color="#CFDDF3"/>
<stop offset="1" stop-color="#A1B8E3"/>
</linearGradient>
<linearGradient id="paint18_linear" x1="217.384" y1="131.375" x2="229.102" y2="131.009" gradientUnits="userSpaceOnUse">
<stop stop-color="#CFDDF3"/>
<stop offset="1" stop-color="#A1B8E3"/>
</linearGradient>
<linearGradient id="paint19_linear" x1="257.379" y1="156.358" x2="260.96" y2="167.524" gradientUnits="userSpaceOnUse">
<stop stop-color="#CFDDF3"/>
<stop offset="1" stop-color="#A1B8E3"/>
</linearGradient>
<linearGradient id="paint20_linear" x1="259.602" y1="169.618" x2="261.996" y2="181.099" gradientUnits="userSpaceOnUse">
<stop stop-color="#CFDDF3"/>
<stop offset="1" stop-color="#A1B8E3"/>
</linearGradient>
<linearGradient id="paint21_linear" x1="54.6743" y1="216.258" x2="54.1736" y2="265.431" gradientUnits="userSpaceOnUse">
<stop stop-color="#D0DCF1"/>
<stop offset="1" stop-color="white" stop-opacity="0.01"/>
</linearGradient>
<linearGradient id="paint22_linear" x1="180.544" y1="289.452" x2="320.566" y2="247.091" gradientUnits="userSpaceOnUse">
<stop stop-color="#20355E"/>
<stop offset="1" stop-color="#3E5B8C"/>
</linearGradient>
<linearGradient id="paint23_linear" x1="149.752" y1="-82.8429" x2="-43.2822" y2="21.7959" gradientUnits="userSpaceOnUse">
<stop stop-color="#47689B"/>
<stop offset="1" stop-color="#223762"/>
</linearGradient>
<linearGradient id="paint24_linear" x1="137.136" y1="62.6438" x2="200.961" y2="62.6439" gradientUnits="userSpaceOnUse">
<stop stop-color="#365383"/>
<stop offset="1" stop-color="#1C2C4C"/>
</linearGradient>
<linearGradient id="paint25_linear" x1="157.865" y1="225.819" x2="179.699" y2="205.209" gradientUnits="userSpaceOnUse">
<stop stop-color="#365383"/>
<stop offset="1" stop-color="#1C2C4C"/>
</linearGradient>
<linearGradient id="paint26_linear" x1="212.284" y1="207.991" x2="210.003" y2="173.583" gradientUnits="userSpaceOnUse">
<stop stop-color="#EDF3FD"/>
<stop offset="1" stop-color="#D6E3FA"/>
</linearGradient>
<linearGradient id="paint27_linear" x1="212.284" y1="180.642" x2="210.003" y2="146.234" gradientUnits="userSpaceOnUse">
<stop stop-color="#EDF3FD"/>
<stop offset="1" stop-color="#D6E3FA"/>
</linearGradient>
<linearGradient id="paint28_linear" x1="212.284" y1="123.567" x2="210.003" y2="89.1588" gradientUnits="userSpaceOnUse">
<stop stop-color="#EDF3FD"/>
<stop offset="1" stop-color="#D6E3FA"/>
</linearGradient>
<linearGradient id="paint29_linear" x1="218.185" y1="135.155" x2="213.463" y2="101.981" gradientUnits="userSpaceOnUse">
<stop stop-color="#FFE883"/>
<stop offset="1" stop-color="#FECC4C"/>
</linearGradient>
<linearGradient id="paint30_linear" x1="127.714" y1="247.04" x2="14.6724" y2="247.04" gradientUnits="userSpaceOnUse">
<stop stop-color="#D0DCF1"/>
<stop offset="1" stop-color="white" stop-opacity="0.01"/>
</linearGradient>
<linearGradient id="paint31_linear" x1="92.3521" y1="247.699" x2="-19.1915" y2="247.699" gradientUnits="userSpaceOnUse">
<stop stop-color="#D0DCF1"/>
<stop offset="1" stop-color="white" stop-opacity="0.01"/>
</linearGradient>
<linearGradient id="paint32_linear" x1="84.234" y1="180.982" x2="89.0082" y2="173.642" gradientUnits="userSpaceOnUse">
<stop stop-color="#70B8F9"/>
<stop offset="1" stop-color="#3D82F0"/>
</linearGradient>
<linearGradient id="paint33_linear" x1="85.6364" y1="254.786" x2="91.4858" y2="245.846" gradientUnits="userSpaceOnUse">
<stop stop-color="#47689B"/>
<stop offset="1" stop-color="#223762"/>
</linearGradient>
<linearGradient id="paint34_linear" x1="121.687" y1="258.539" x2="126.404" y2="248.953" gradientUnits="userSpaceOnUse">
<stop stop-color="#47689B"/>
<stop offset="1" stop-color="#223762"/>
</linearGradient>
<linearGradient id="paint35_linear" x1="106.284" y1="262.7" x2="134.315" y2="199.018" gradientUnits="userSpaceOnUse">
<stop stop-color="#CFDDF3"/>
<stop offset="1" stop-color="#A1B8E3"/>
</linearGradient>
<linearGradient id="paint36_linear" x1="119.491" y1="188.748" x2="119.188" y2="183.377" gradientUnits="userSpaceOnUse">
<stop stop-color="#CFDDF3" stop-opacity="0.477723"/>
<stop offset="1" stop-color="#A1B8E3"/>
</linearGradient>
<linearGradient id="paint37_linear" x1="104.62" y1="117.477" x2="94.4284" y2="124.345" gradientUnits="userSpaceOnUse">
<stop stop-color="#70B8F9"/>
<stop offset="1" stop-color="#3D82F0"/>
</linearGradient>
<linearGradient id="paint38_linear" x1="86.4741" y1="117.38" x2="95.6095" y2="129.411" gradientUnits="userSpaceOnUse">
<stop stop-color="#164898"/>
<stop offset="1" stop-color="#223762"/>
</linearGradient>
<linearGradient id="paint39_linear" x1="77.4905" y1="164.656" x2="86.6474" y2="163.455" gradientUnits="userSpaceOnUse">
<stop stop-color="#EDF3FD"/>
<stop offset="1" stop-color="#D6E3FA"/>
</linearGradient>
<linearGradient id="paint40_linear" x1="111.632" y1="174.813" x2="117.72" y2="170.936" gradientUnits="userSpaceOnUse">
<stop stop-color="#CFDDF3"/>
<stop offset="1" stop-color="#A1B8E3"/>
</linearGradient>
<linearGradient id="paint41_linear" x1="123.779" y1="147.444" x2="123.695" y2="141.727" gradientUnits="userSpaceOnUse">
<stop stop-color="#CFDDF3"/>
<stop offset="1" stop-color="#A1B8E3"/>
</linearGradient>
<linearGradient id="paint42_linear" x1="156.363" y1="180.908" x2="142.929" y2="127.03" gradientUnits="userSpaceOnUse">
<stop stop-color="#70B8F9"/>
<stop offset="1" stop-color="#3D82F0"/>
</linearGradient>
<linearGradient id="paint43_linear" x1="98.9107" y1="150.096" x2="104.965" y2="162.509" gradientUnits="userSpaceOnUse">
<stop stop-color="#D6E3FA"/>
<stop offset="1" stop-color="#E3EDFE"/>
</linearGradient>
<linearGradient id="paint44_linear" x1="60.3606" y1="208.808" x2="35.5487" y2="208.808" gradientUnits="userSpaceOnUse">
<stop stop-color="#D9E5F6" stop-opacity="0.712636"/>
<stop offset="1" stop-color="#B2C6EA"/>
</linearGradient>
<linearGradient id="paint45_linear" x1="60.8573" y1="221.113" x2="64.9269" y2="205.583" gradientUnits="userSpaceOnUse">
<stop stop-color="#ACC5E9"/>
<stop offset="0.627469" stop-color="#D3E3FB"/>
<stop offset="1" stop-color="#EAF2FF"/>
</linearGradient>
<linearGradient id="paint46_linear" x1="38.5759" y1="192.216" x2="37.93" y2="202.56" gradientUnits="userSpaceOnUse">
<stop stop-color="#86A8D9"/>
<stop offset="1" stop-color="#BCD0F2"/>
</linearGradient>
<linearGradient id="paint47_linear" x1="34.5295" y1="167.539" x2="56.2349" y2="190.241" gradientUnits="userSpaceOnUse">
<stop stop-color="#B1FFBC"/>
<stop offset="0.444207" stop-color="#5CDB6C"/>
<stop offset="1" stop-color="#14962B"/>
</linearGradient>
<linearGradient id="paint48_linear" x1="24.4607" y1="181.993" x2="35.9298" y2="204.703" gradientUnits="userSpaceOnUse">
<stop stop-color="#B1FFBC"/>
<stop offset="0.444207" stop-color="#5CDB6C"/>
<stop offset="1" stop-color="#14962B"/>
</linearGradient>
<linearGradient id="paint49_linear" x1="48.0332" y1="180.486" x2="62.3329" y2="202.905" gradientUnits="userSpaceOnUse">
<stop stop-color="#B1FFBC"/>
<stop offset="0.444207" stop-color="#5CDB6C"/>
<stop offset="1" stop-color="#14962B"/>
</linearGradient>
<linearGradient id="paint50_linear" x1="0" y1="106.529" x2="24" y2="106.529" gradientUnits="userSpaceOnUse">
<stop stop-color="white"/>
<stop offset="1" stop-color="white" stop-opacity="0.01"/>
</linearGradient>
</defs>
</svg>
