<?xml version="1.0" encoding="utf-8"?>
<!-- Generator: Adobe Illustrator 22.1.0, SVG Export Plug-In . SVG Version: 6.00 Build 0)  -->
<svg version="1.1" id="Слой_1" xmlns="http://www.w3.org/2000/svg" xmlns:xlink="http://www.w3.org/1999/xlink" x="0px" y="0px"
	 viewBox="0 0 11 10" style="enable-background:new 0 0 11 10;" xml:space="preserve" width="15" height="14">
<g>
	<path fill="#0374b3" d="M1.3,0C0.5,0,0,0.5,0,1.2c0,0.7,0.5,1.2,1.3,1.2h0c0.8,0,1.3-0.5,1.3-1.2C2.6,0.5,2.1,0,1.3,0z"/>
	<rect x="0.3" y="3.2" fill="#0374b3" width="2.1" height="6.8"/>
	<path fill="#0374b3" d="M8.3,3.1c-1.2,0-2,0.7-2.1,1.1V3.2H3.7c0,0.6,0,6.8,0,6.8h2.4V6.3c0-0.2,0-0.4,0.1-0.6
		c0.2-0.4,0.5-0.8,1.2-0.8c0.8,0,1.2,0.6,1.2,1.5V10H11V6.2C11,4.1,9.8,3.1,8.3,3.1z"/>
</g>
</svg>
