<svg width="18" height="20" viewBox="0 0 18 20" fill="none" xmlns="http://www.w3.org/2000/svg">
<path d="M13.25 1H4.75C3.58515 1 3.00272 1 2.54329 1.1903C1.93072 1.44404 1.44404 1.93072 1.1903 2.54329C1 3.00272 1 3.58515 1 4.75V10.25C1 11.4149 1 11.9973 1.1903 12.4567C1.44404 13.0693 1.93072 13.556 2.54329 13.8097C3.00272 14 3.58515 14 4.75 14H4.985C4.98966 14 4.99199 14 4.99383 14.0008C4.99628 14.0018 4.99822 14.0037 4.99924 14.0062C5 14.008 5 14.0103 5 14.015V18.0947C5 18.3464 5 18.4723 5.04213 18.5353C5.09831 18.6194 5.1996 18.6614 5.29877 18.6416C5.37315 18.6268 5.46216 18.5378 5.64016 18.3598L9.12132 14.8787C9.40944 14.5906 9.5535 14.4465 9.71729 14.3371C9.93567 14.1911 10.1806 14.0897 10.4382 14.0384C10.6314 14 10.8352 14 11.2426 14H13.25C14.4149 14 14.9973 14 15.4567 13.8097C16.0693 13.556 16.556 13.0693 16.8097 12.4567C17 11.9973 17 11.4149 17 10.25V4.75C17 3.58515 17 3.00272 16.8097 2.54329C16.556 1.93072 16.0693 1.44404 15.4567 1.1903C14.9973 1 14.4149 1 13.25 1Z" fill="#0C7FF2" stroke="#0C7FF2" stroke-width="2" stroke-linecap="round" stroke-linejoin="round"/>
</svg>
