<svg width="348" height="196" viewBox="0 0 348 196" fill="none" xmlns="http://www.w3.org/2000/svg">
<g opacity="0.72">
<g filter="url(#filter0_f)">
<ellipse cx="92" cy="16" rx="160" ry="84" fill="black" fill-opacity="0.16"/>
</g>
<path d="M78.288 36.36C78.288 37.64 78.08 38.82 77.664 39.9C77.248 40.98 76.66 41.912 75.9 42.696C75.148 43.472 74.24 44.08 73.176 44.52C72.12 44.96 70.944 45.18 69.648 45.18C68.36 45.18 67.184 44.96 66.12 44.52C65.064 44.08 64.156 43.472 63.396 42.696C62.636 41.912 62.048 40.98 61.632 39.9C61.216 38.82 61.008 37.64 61.008 36.36C61.008 35.08 61.216 33.9 61.632 32.82C62.048 31.74 62.636 30.808 63.396 30.024C64.156 29.24 65.064 28.628 66.12 28.188C67.184 27.748 68.36 27.528 69.648 27.528C70.944 27.528 72.12 27.748 73.176 28.188C74.24 28.628 75.148 29.24 75.9 30.024C76.66 30.808 77.248 31.74 77.664 32.82C78.08 33.9 78.288 35.08 78.288 36.36ZM75.42 36.36C75.42 35.368 75.284 34.476 75.012 33.684C74.748 32.892 74.364 32.22 73.86 31.668C73.364 31.116 72.76 30.692 72.048 30.396C71.336 30.1 70.536 29.952 69.648 29.952C68.768 29.952 67.972 30.1 67.26 30.396C66.548 30.692 65.94 31.116 65.436 31.668C64.932 32.22 64.544 32.892 64.272 33.684C64 34.476 63.864 35.368 63.864 36.36C63.864 37.36 64 38.256 64.272 39.048C64.544 39.84 64.932 40.512 65.436 41.064C65.94 41.608 66.548 42.028 67.26 42.324C67.972 42.612 68.768 42.756 69.648 42.756C70.536 42.756 71.336 42.612 72.048 42.324C72.76 42.028 73.364 41.608 73.86 41.064C74.364 40.512 74.748 39.84 75.012 39.048C75.284 38.256 75.42 37.36 75.42 36.36ZM83.2536 41.928C83.6136 42.392 84.0056 42.72 84.4296 42.912C84.8616 43.096 85.3376 43.188 85.8576 43.188C86.8656 43.188 87.6496 42.82 88.2096 42.084C88.7776 41.348 89.0616 40.252 89.0616 38.796C89.0616 38.044 88.9976 37.404 88.8696 36.876C88.7416 36.34 88.5576 35.904 88.3176 35.568C88.0776 35.232 87.7856 34.988 87.4416 34.836C87.0976 34.684 86.7096 34.608 86.2776 34.608C85.6216 34.608 85.0536 34.752 84.5736 35.04C84.1016 35.32 83.6616 35.724 83.2536 36.252V41.928ZM83.1216 34.536C83.6336 33.936 84.2136 33.452 84.8616 33.084C85.5176 32.716 86.2776 32.532 87.1416 32.532C87.8296 32.532 88.4536 32.672 89.0136 32.952C89.5736 33.224 90.0536 33.624 90.4536 34.152C90.8536 34.68 91.1616 35.336 91.3776 36.12C91.6016 36.896 91.7136 37.788 91.7136 38.796C91.7136 39.7 91.5896 40.544 91.3416 41.328C91.1016 42.104 90.7536 42.78 90.2976 43.356C89.8416 43.924 89.2896 44.372 88.6416 44.7C87.9936 45.02 87.2616 45.18 86.4456 45.18C85.7256 45.18 85.1136 45.064 84.6096 44.832C84.1136 44.6 83.6616 44.28 83.2536 43.872V49.068H80.6736V32.76H82.2336C82.5856 32.76 82.8096 32.924 82.9056 33.252L83.1216 34.536ZM102.248 37.5C102.248 37.068 102.184 36.668 102.056 36.3C101.936 35.924 101.756 35.6 101.516 35.328C101.276 35.048 100.976 34.832 100.616 34.68C100.264 34.52 99.8564 34.44 99.3924 34.44C98.4564 34.44 97.7204 34.708 97.1844 35.244C96.6484 35.78 96.3084 36.532 96.1644 37.5H102.248ZM96.0924 39.084C96.1244 39.78 96.2324 40.384 96.4164 40.896C96.6004 41.4 96.8444 41.82 97.1484 42.156C97.4604 42.492 97.8284 42.744 98.2524 42.912C98.6844 43.072 99.1644 43.152 99.6924 43.152C100.196 43.152 100.632 43.096 101 42.984C101.368 42.864 101.688 42.736 101.96 42.6C102.232 42.456 102.464 42.328 102.656 42.216C102.848 42.096 103.024 42.036 103.184 42.036C103.392 42.036 103.552 42.116 103.664 42.276L104.396 43.224C104.092 43.584 103.748 43.888 103.364 44.136C102.98 44.384 102.572 44.588 102.14 44.748C101.708 44.9 101.264 45.008 100.808 45.072C100.352 45.144 99.9084 45.18 99.4764 45.18C98.6284 45.18 97.8404 45.04 97.1124 44.76C96.3924 44.472 95.7644 44.052 95.2284 43.5C94.7004 42.948 94.2844 42.264 93.9804 41.448C93.6844 40.632 93.5364 39.692 93.5364 38.628C93.5364 37.78 93.6684 36.988 93.9324 36.252C94.2044 35.516 94.5884 34.876 95.0844 34.332C95.5884 33.788 96.1964 33.36 96.9084 33.048C97.6284 32.728 98.4404 32.568 99.3444 32.568C100.096 32.568 100.792 32.692 101.432 32.94C102.072 33.18 102.624 33.536 103.088 34.008C103.552 34.48 103.912 35.06 104.168 35.748C104.432 36.428 104.564 37.204 104.564 38.076C104.564 38.476 104.52 38.744 104.432 38.88C104.344 39.016 104.184 39.084 103.952 39.084H96.0924ZM109.382 34.38C109.646 34.108 109.918 33.864 110.198 33.648C110.486 33.424 110.79 33.232 111.11 33.072C111.43 32.912 111.77 32.788 112.13 32.7C112.49 32.612 112.882 32.568 113.306 32.568C113.978 32.568 114.566 32.68 115.07 32.904C115.582 33.128 116.01 33.444 116.354 33.852C116.706 34.26 116.97 34.752 117.146 35.328C117.322 35.896 117.41 36.524 117.41 37.212V45H114.842V37.212C114.842 36.388 114.65 35.748 114.266 35.292C113.89 34.836 113.314 34.608 112.538 34.608C111.962 34.608 111.426 34.74 110.93 35.004C110.442 35.268 109.982 35.628 109.55 36.084V45H106.97V32.76H108.53C108.882 32.76 109.106 32.924 109.202 33.252L109.382 34.38ZM123.052 27.24V45H120.472V27.24H123.052ZM132.776 39.648C131.856 39.68 131.08 39.756 130.448 39.876C129.816 39.988 129.304 40.136 128.912 40.32C128.52 40.496 128.236 40.708 128.06 40.956C127.892 41.204 127.808 41.476 127.808 41.772C127.808 42.06 127.852 42.308 127.94 42.516C128.036 42.716 128.164 42.884 128.324 43.02C128.492 43.148 128.684 43.244 128.9 43.308C129.124 43.364 129.368 43.392 129.632 43.392C130.304 43.392 130.88 43.268 131.36 43.02C131.848 42.764 132.32 42.396 132.776 41.916V39.648ZM125.936 34.464C127.32 33.176 128.968 32.532 130.88 32.532C131.584 32.532 132.208 32.648 132.752 32.88C133.304 33.104 133.764 33.424 134.132 33.84C134.508 34.256 134.792 34.752 134.984 35.328C135.184 35.896 135.284 36.528 135.284 37.224V45H134.132C133.884 45 133.696 44.964 133.568 44.892C133.44 44.812 133.332 44.656 133.244 44.424L132.992 43.428C132.68 43.708 132.372 43.96 132.068 44.184C131.764 44.4 131.448 44.584 131.12 44.736C130.8 44.888 130.452 45 130.076 45.072C129.708 45.152 129.3 45.192 128.852 45.192C128.356 45.192 127.892 45.124 127.46 44.988C127.036 44.852 126.668 44.648 126.356 44.376C126.044 44.096 125.796 43.752 125.612 43.344C125.436 42.936 125.348 42.456 125.348 41.904C125.348 41.432 125.472 40.972 125.72 40.524C125.976 40.076 126.392 39.676 126.968 39.324C127.552 38.964 128.316 38.668 129.26 38.436C130.212 38.204 131.384 38.072 132.776 38.04V37.224C132.776 36.344 132.588 35.688 132.212 35.256C131.836 34.824 131.284 34.608 130.556 34.608C130.06 34.608 129.644 34.672 129.308 34.8C128.972 34.92 128.68 35.052 128.432 35.196C128.184 35.34 127.964 35.476 127.772 35.604C127.58 35.724 127.376 35.784 127.16 35.784C126.984 35.784 126.832 35.74 126.704 35.652C126.584 35.556 126.484 35.44 126.404 35.304L125.936 34.464ZM140.718 34.38C140.982 34.108 141.254 33.864 141.534 33.648C141.822 33.424 142.126 33.232 142.446 33.072C142.766 32.912 143.106 32.788 143.466 32.7C143.826 32.612 144.218 32.568 144.642 32.568C145.314 32.568 145.902 32.68 146.406 32.904C146.918 33.128 147.346 33.444 147.69 33.852C148.042 34.26 148.306 34.752 148.482 35.328C148.658 35.896 148.746 36.524 148.746 37.212V45H146.178V37.212C146.178 36.388 145.986 35.748 145.602 35.292C145.226 34.836 144.65 34.608 143.874 34.608C143.298 34.608 142.762 34.74 142.266 35.004C141.778 35.268 141.318 35.628 140.886 36.084V45H138.306V32.76H139.866C140.218 32.76 140.442 32.924 140.538 33.252L140.718 34.38ZM159.572 35.772C159.212 35.308 158.816 34.984 158.384 34.8C157.952 34.616 157.484 34.524 156.98 34.524C155.972 34.524 155.184 34.896 154.616 35.64C154.048 36.376 153.764 37.468 153.764 38.916C153.764 39.668 153.828 40.312 153.956 40.848C154.084 41.376 154.268 41.808 154.508 42.144C154.748 42.48 155.04 42.724 155.384 42.876C155.728 43.028 156.116 43.104 156.548 43.104C157.204 43.104 157.768 42.964 158.24 42.684C158.72 42.396 159.164 41.992 159.572 41.472V35.772ZM162.152 27.24V45H160.592C160.248 45 160.028 44.836 159.932 44.508L159.704 43.176C159.192 43.776 158.608 44.26 157.952 44.628C157.304 44.996 156.548 45.18 155.684 45.18C154.996 45.18 154.372 45.044 153.812 44.772C153.252 44.492 152.772 44.088 152.372 43.56C151.972 43.032 151.66 42.38 151.436 41.604C151.22 40.82 151.112 39.924 151.112 38.916C151.112 38.004 151.232 37.16 151.472 36.384C151.72 35.608 152.072 34.936 152.528 34.368C152.984 33.792 153.536 33.344 154.184 33.024C154.84 32.696 155.572 32.532 156.38 32.532C157.1 32.532 157.712 32.648 158.216 32.88C158.72 33.104 159.172 33.42 159.572 33.828V27.24H162.152Z" fill="white"/>
<path d="M77.664 39.9L78.1306 40.0797L77.664 39.9ZM75.9 42.696L75.541 42.348L75.5409 42.348L75.9 42.696ZM73.176 44.52L72.9849 44.0579L72.9837 44.0585L73.176 44.52ZM66.12 44.52L65.9277 44.9815L65.9289 44.9821L66.12 44.52ZM63.396 42.696L63.037 43.044L63.0388 43.0459L63.396 42.696ZM61.632 32.82L61.1654 32.6403H61.1654L61.632 32.82ZM63.396 30.024L63.755 30.372H63.755L63.396 30.024ZM66.12 28.188L65.9289 27.7259L65.9277 27.7265L66.12 28.188ZM73.176 28.188L72.9837 28.6495L72.9849 28.6501L73.176 28.188ZM75.9 30.024L75.5392 30.3701L75.541 30.372L75.9 30.024ZM77.664 32.82L78.1306 32.6403L77.664 32.82ZM75.012 33.684L74.5376 33.8421L74.5391 33.8464L75.012 33.684ZM73.86 31.668L73.4881 32.0022L73.4908 32.0051L73.86 31.668ZM72.048 30.396L71.8561 30.8577L71.8561 30.8577L72.048 30.396ZM67.26 30.396L67.4519 30.8577L67.4519 30.8577L67.26 30.396ZM65.436 31.668L65.0668 31.3309L65.436 31.668ZM64.272 33.684L63.7991 33.5216L64.272 33.684ZM64.272 39.048L63.7991 39.2104L64.272 39.048ZM65.436 41.064L65.0667 41.4011L65.0692 41.4038L65.436 41.064ZM67.26 42.324L67.0681 42.7857L67.0725 42.7875L67.26 42.324ZM72.048 42.324L72.2355 42.7875L72.2399 42.7857L72.048 42.324ZM73.86 41.064L73.4908 40.7269L73.4905 40.7271L73.86 41.064ZM75.012 39.048L74.5391 38.8856L74.5377 38.8899L75.012 39.048ZM77.788 36.36C77.788 37.5851 77.5891 38.7034 77.1974 39.7203L78.1306 40.0797C78.5709 38.9366 78.788 37.6949 78.788 36.36H77.788ZM77.1974 39.7203C76.8041 40.7413 76.2514 41.6151 75.541 42.348L76.259 43.044C77.0686 42.2089 77.6919 41.2187 78.1306 40.0797L77.1974 39.7203ZM75.5409 42.348C74.8396 43.0718 73.9899 43.6424 72.9849 44.0579L73.3671 44.9821C74.4901 44.5177 75.4564 43.8722 76.2591 43.044L75.5409 42.348ZM72.9837 44.0585C71.9962 44.4699 70.8867 44.68 69.648 44.68V45.68C71.0013 45.68 72.2438 45.4501 73.3683 44.9815L72.9837 44.0585ZM69.648 44.68C68.4178 44.68 67.3077 44.4701 66.3111 44.0579L65.9289 44.9821C67.0603 45.4499 68.3022 45.68 69.648 45.68V44.68ZM66.3123 44.0585C65.3149 43.6429 64.4638 43.0717 63.7532 42.3461L63.0388 43.0459C63.8482 43.8723 64.8131 44.5171 65.9277 44.9815L66.3123 44.0585ZM63.755 42.348C63.0446 41.6151 62.4919 40.7413 62.0986 39.7203L61.1654 40.0797C61.6041 41.2187 62.2274 42.2089 63.037 43.044L63.755 42.348ZM62.0986 39.7203C61.7069 38.7034 61.508 37.5851 61.508 36.36H60.508C60.508 37.6949 60.7251 38.9366 61.1654 40.0797L62.0986 39.7203ZM61.508 36.36C61.508 35.1349 61.7069 34.0166 62.0986 32.9997L61.1654 32.6403C60.7251 33.7834 60.508 35.0251 60.508 36.36H61.508ZM62.0986 32.9997C62.4919 31.9787 63.0446 31.1049 63.755 30.372L63.037 29.676C62.2274 30.5111 61.6041 31.5013 61.1654 32.6403L62.0986 32.9997ZM63.755 30.372C64.4655 29.6391 65.316 29.0647 66.3123 28.6495L65.9277 27.7265C64.812 28.1913 63.8465 28.8409 63.037 29.676L63.755 30.372ZM66.3111 28.6501C67.3077 28.2379 68.4178 28.028 69.648 28.028V27.028C68.3022 27.028 67.0603 27.2581 65.9289 27.7259L66.3111 28.6501ZM69.648 28.028C70.8867 28.028 71.9962 28.2381 72.9837 28.6495L73.3683 27.7265C72.2438 27.2579 71.0013 27.028 69.648 27.028V28.028ZM72.9849 28.6501C73.9888 29.0652 74.8379 29.6391 75.5392 30.3701L76.2608 29.6779C75.4581 28.8409 74.4912 28.1908 73.3671 27.7259L72.9849 28.6501ZM75.541 30.372C76.2514 31.1049 76.8041 31.9787 77.1974 32.9997L78.1306 32.6403C77.6919 31.5013 77.0686 30.5111 76.259 29.676L75.541 30.372ZM77.1974 32.9997C77.5891 34.0166 77.788 35.1349 77.788 36.36H78.788C78.788 35.0251 78.5709 33.7834 78.1306 32.6403L77.1974 32.9997ZM75.92 36.36C75.92 35.3227 75.7778 34.3745 75.4849 33.5216L74.5391 33.8464C74.7902 34.5775 74.92 35.4133 74.92 36.36H75.92ZM75.4863 33.5259C75.2028 32.6753 74.7857 31.9403 74.2292 31.3309L73.4908 32.0051C73.9424 32.4997 74.2932 33.1087 74.5377 33.8421L75.4863 33.5259ZM74.2319 31.3338C73.6842 30.7243 73.0179 30.2577 72.2399 29.9343L71.8561 30.8577C72.5021 31.1263 73.0438 31.5077 73.4881 32.0022L74.2319 31.3338ZM72.2399 29.9343C71.4586 29.6095 70.592 29.452 69.648 29.452V30.452C70.48 30.452 71.2134 30.5905 71.8561 30.8577L72.2399 29.9343ZM69.648 29.452C68.7114 29.452 67.8489 29.6097 67.0681 29.9343L67.4519 30.8577C68.0951 30.5903 68.8246 30.452 69.648 30.452V29.452ZM67.0681 29.9343C66.2908 30.2575 65.6216 30.7232 65.0668 31.3309L65.8052 32.0051C66.2584 31.5088 66.8052 31.1265 67.4519 30.8577L67.0681 29.9343ZM65.0668 31.3309C64.5114 31.9392 64.0907 32.6727 63.7991 33.5216L64.7449 33.8464C64.9973 33.1113 65.3526 32.5008 65.8052 32.0051L65.0668 31.3309ZM63.7991 33.5216C63.5062 34.3745 63.364 35.3227 63.364 36.36H64.364C64.364 35.4133 64.4938 34.5775 64.7449 33.8464L63.7991 33.5216ZM63.364 36.36C63.364 37.4048 63.5061 38.3571 63.7991 39.2104L64.7449 38.8856C64.4939 38.1549 64.364 37.3152 64.364 36.36H63.364ZM63.7991 39.2104C64.0907 40.0593 64.5114 40.7928 65.0668 41.4011L65.8052 40.7269C65.3526 40.2312 64.9973 39.6207 64.7449 38.8856L63.7991 39.2104ZM65.0692 41.4038C65.624 42.0026 66.2924 42.4632 67.0681 42.7857L67.4519 41.8623C66.8036 41.5928 66.256 41.2134 65.8028 40.7242L65.0692 41.4038ZM67.0725 42.7875C67.8521 43.1029 68.713 43.256 69.648 43.256V42.256C68.823 42.256 68.0919 42.1211 67.4475 41.8605L67.0725 42.7875ZM69.648 43.256C70.5903 43.256 71.4554 43.1031 72.2355 42.7875L71.8605 41.8605C71.2166 42.1209 70.4817 42.256 69.648 42.256V43.256ZM72.2399 42.7857C73.0163 42.463 73.6818 42.0015 74.2295 41.4009L73.4905 40.7271C73.0462 41.2145 72.5037 41.593 71.8561 41.8623L72.2399 42.7857ZM74.2292 41.4011C74.7857 40.7917 75.2028 40.0567 75.4863 39.2061L74.5377 38.8899C74.2932 39.6233 73.9424 40.2323 73.4908 40.7269L74.2292 41.4011ZM75.4849 39.2104C75.7779 38.3571 75.92 37.4048 75.92 36.36H74.92C74.92 37.3152 74.7901 38.1549 74.5391 38.8856L75.4849 39.2104ZM83.2536 41.928H82.7536C82.7536 42.039 82.7905 42.1468 82.8585 42.2345L83.2536 41.928ZM84.4296 42.912L84.2233 43.3676L84.2336 43.372L84.4296 42.912ZM88.2096 42.084L87.8137 41.7785L87.8116 41.7812L88.2096 42.084ZM88.8696 36.876L88.3832 36.9921L88.3836 36.9938L88.8696 36.876ZM88.3176 35.568L87.9107 35.8586V35.8586L88.3176 35.568ZM87.4416 34.836L87.6436 34.3787L87.4416 34.836ZM84.5736 35.04L84.8287 35.47L84.8308 35.4687L84.5736 35.04ZM83.2536 36.252L82.8579 35.9463C82.7903 36.0338 82.7536 36.1414 82.7536 36.252H83.2536ZM83.1216 34.536L82.6285 34.6189C82.6607 34.8105 82.801 34.9661 82.9883 35.0179C83.1755 35.0697 83.3758 35.0083 83.5019 34.8606L83.1216 34.536ZM84.8616 33.084L84.6169 32.6479L84.6147 32.6492L84.8616 33.084ZM89.0136 32.952L88.7899 33.3992L88.7951 33.4018L89.0136 32.952ZM91.3776 36.12L90.8955 36.2528L90.8972 36.2587L91.3776 36.12ZM91.3416 41.328L90.8648 41.1772L90.8639 41.1803L91.3416 41.328ZM90.2976 43.356L90.6875 43.669L90.6896 43.6664L90.2976 43.356ZM88.6416 44.7L88.863 45.1483L88.8674 45.1461L88.6416 44.7ZM84.6096 44.832L84.3977 45.2849L84.4005 45.2862L84.6096 44.832ZM83.2536 43.872L83.6071 43.5184C83.4641 43.3754 83.2491 43.3327 83.0622 43.4101C82.8754 43.4875 82.7536 43.6698 82.7536 43.872H83.2536ZM83.2536 49.068V49.568C83.5297 49.568 83.7536 49.3441 83.7536 49.068H83.2536ZM80.6736 49.068H80.1736C80.1736 49.3441 80.3974 49.568 80.6736 49.568V49.068ZM80.6736 32.76V32.26C80.3974 32.26 80.1736 32.4839 80.1736 32.76H80.6736ZM82.9056 33.252L83.3986 33.1691C83.3954 33.1496 83.391 33.1304 83.3854 33.1116L82.9056 33.252ZM82.8585 42.2345C83.2556 42.7463 83.7083 43.1343 84.2233 43.3675L84.6358 42.4565C84.3028 42.3057 83.9715 42.0377 83.6486 41.6215L82.8585 42.2345ZM84.2336 43.372C84.7339 43.5851 85.2775 43.688 85.8576 43.688V42.688C85.3976 42.688 84.9892 42.6069 84.6255 42.452L84.2336 43.372ZM85.8576 43.688C87.0055 43.688 87.9435 43.2594 88.6075 42.3868L87.8116 41.7812C87.3556 42.3806 86.7256 42.688 85.8576 42.688V43.688ZM88.6054 42.3895C89.2697 41.5287 89.5616 40.3039 89.5616 38.796H88.5616C88.5616 40.2001 88.2855 41.1673 87.8137 41.7785L88.6054 42.3895ZM89.5616 38.796C89.5616 38.0183 89.4956 37.3363 89.3555 36.7582L88.3836 36.9938C88.4995 37.4717 88.5616 38.0697 88.5616 38.796H89.5616ZM89.3559 36.7599C89.2176 36.1809 89.0122 35.6802 88.7244 35.2774L87.9107 35.8586C88.1029 36.1278 88.2655 36.4991 88.3832 36.9921L89.3559 36.7599ZM88.7244 35.2774C88.4376 34.8758 88.0775 34.5704 87.6436 34.3787L87.2395 35.2933C87.4936 35.4056 87.7175 35.5882 87.9107 35.8586L88.7244 35.2774ZM87.6436 34.3787C87.2272 34.1946 86.7689 34.108 86.2776 34.108V35.108C86.6503 35.108 86.9679 35.1734 87.2395 35.2933L87.6436 34.3787ZM86.2776 34.108C85.5467 34.108 84.8865 34.2691 84.3163 34.6113L84.8308 35.4687C85.2206 35.2349 85.6964 35.108 86.2776 35.108V34.108ZM84.3185 34.61C83.7819 34.9283 83.2964 35.3788 82.8579 35.9463L83.6492 36.5577C84.0267 36.0692 84.4213 35.7117 84.8287 35.47L84.3185 34.61ZM82.7536 36.252V41.928H83.7536V36.252H82.7536ZM83.5019 34.8606C83.9784 34.3022 84.5139 33.8564 85.1085 33.5188L84.6147 32.6492C83.9132 33.0476 83.2887 33.5698 82.7412 34.2114L83.5019 34.8606ZM85.1062 33.5201C85.677 33.1999 86.3503 33.032 87.1416 33.032V32.032C86.2048 32.032 85.3581 32.2321 84.6169 32.6479L85.1062 33.5201ZM87.1416 33.032C87.7597 33.032 88.306 33.1573 88.79 33.3992L89.2372 32.5048C88.6011 32.1867 87.8994 32.032 87.1416 32.032V33.032ZM88.7951 33.4018C89.2798 33.6372 89.6994 33.9846 90.055 34.4539L90.8521 33.8501C90.4077 33.2634 89.8674 32.8108 89.232 32.5022L88.7951 33.4018ZM90.055 34.4539C90.4091 34.9213 90.6927 35.5165 90.8955 36.2528L91.8596 35.9872C91.6305 35.1555 91.298 34.4387 90.8521 33.8501L90.055 34.4539ZM90.8972 36.2587C91.1054 36.9801 91.2136 37.8238 91.2136 38.796H92.2136C92.2136 37.7522 92.0977 36.8119 91.8579 35.9813L90.8972 36.2587ZM91.2136 38.796C91.2136 39.6539 91.096 40.4466 90.8648 41.1772L91.8183 41.4788C92.0832 40.6414 92.2136 39.7461 92.2136 38.796H91.2136ZM90.8639 41.1803C90.6402 41.9035 90.3193 42.523 89.9055 43.0456L90.6896 43.6664C91.1878 43.037 91.5629 42.3045 91.8192 41.4757L90.8639 41.1803ZM89.9077 43.043C89.4961 43.5556 89 43.9582 88.4158 44.2539L88.8674 45.1461C89.5791 44.7858 90.187 44.2924 90.6875 43.669L89.9077 43.043ZM88.4202 44.2517C87.8494 44.5335 87.1948 44.68 86.4456 44.68V45.68C87.3284 45.68 88.1377 45.5065 88.863 45.1483L88.4202 44.2517ZM86.4456 44.68C85.7771 44.68 85.2406 44.5721 84.8186 44.3778L84.4005 45.2862C84.9865 45.5559 85.674 45.68 86.4456 45.68V44.68ZM84.8214 44.3791C84.3808 44.173 83.9762 43.8876 83.6071 43.5184L82.9 44.2256C83.3469 44.6724 83.8463 45.027 84.3977 45.2849L84.8214 44.3791ZM82.7536 43.872V49.068H83.7536V43.872H82.7536ZM83.2536 48.568H80.6736V49.568H83.2536V48.568ZM81.1736 49.068V32.76H80.1736V49.068H81.1736ZM80.6736 33.26H82.2336V32.26H80.6736V33.26ZM82.2336 33.26C82.332 33.26 82.3644 33.2822 82.3702 33.2864C82.3745 33.2896 82.4013 33.3091 82.4257 33.3924L83.3854 33.1116C83.3138 32.8669 83.1806 32.6404 82.9609 32.4796C82.7427 32.3198 82.4871 32.26 82.2336 32.26V33.26ZM82.4125 33.3349L82.6285 34.6189L83.6146 34.4531L83.3986 33.1691L82.4125 33.3349ZM102.248 37.5V38C102.525 38 102.748 37.7761 102.748 37.5H102.248ZM102.056 36.3L101.58 36.4521L101.584 36.4643L102.056 36.3ZM101.516 35.328L101.137 35.6534L101.142 35.6588L101.516 35.328ZM100.616 34.68L100.409 35.1354L100.422 35.1406L100.616 34.68ZM97.1844 35.244L97.538 35.5976L97.1844 35.244ZM96.1644 37.5L95.6699 37.4264C95.6485 37.5703 95.6908 37.7164 95.7858 37.8265C95.8807 37.9367 96.019 38 96.1644 38V37.5ZM96.0924 39.084V38.584C95.9558 38.584 95.8252 38.6399 95.7309 38.7387C95.6365 38.8374 95.5867 38.9705 95.593 39.107L96.0924 39.084ZM96.4164 40.896L95.9459 41.0651L95.9468 41.0675L96.4164 40.896ZM97.1484 42.156L96.7776 42.4915L96.782 42.4962L97.1484 42.156ZM98.2524 42.912L98.0682 43.377L98.0788 43.3809L98.2524 42.912ZM101 42.984L101.146 43.4624L101.155 43.4594L101 42.984ZM101.96 42.6L102.184 43.0473L102.194 43.0419L101.96 42.6ZM102.656 42.216L102.908 42.6479C102.913 42.6453 102.917 42.6427 102.921 42.64L102.656 42.216ZM103.664 42.276L103.255 42.5627C103.259 42.5691 103.264 42.5754 103.269 42.5816L103.664 42.276ZM104.396 43.224L104.778 43.5466C104.93 43.3666 104.936 43.1049 104.792 42.9184L104.396 43.224ZM103.364 44.136L103.636 44.556L103.364 44.136ZM102.14 44.748L102.306 45.2197L102.314 45.2169L102.14 44.748ZM100.808 45.072L100.739 44.5768L100.73 44.5781L100.808 45.072ZM97.1124 44.76L96.9267 45.2243L96.9329 45.2267L97.1124 44.76ZM95.2284 43.5L94.8671 43.8456L94.8697 43.8483L95.2284 43.5ZM93.9804 41.448L93.5104 41.6185L93.5119 41.6226L93.9804 41.448ZM93.9324 36.252L93.4634 36.0787L93.4618 36.0832L93.9324 36.252ZM95.0844 34.332L94.7176 33.9922L94.715 33.9951L95.0844 34.332ZM96.9084 33.048L97.1091 33.506L97.1115 33.5049L96.9084 33.048ZM101.432 32.94L101.252 33.4062L101.257 33.4082L101.432 32.94ZM103.088 34.008L103.445 33.6575L103.088 34.008ZM104.168 35.748L103.7 35.9224L103.702 35.929L104.168 35.748ZM104.432 38.88L104.013 38.6084L104.432 38.88ZM102.748 37.5C102.748 37.0181 102.677 36.562 102.529 36.1357L101.584 36.4643C101.692 36.774 101.748 37.1179 101.748 37.5H102.748ZM102.533 36.148C102.394 35.7119 102.181 35.3255 101.891 34.9972L101.142 35.6588C101.332 35.8745 101.479 36.1361 101.58 36.452L102.533 36.148ZM101.896 35.0026C101.603 34.6603 101.238 34.3997 100.811 34.2194L100.422 35.1406C100.715 35.2643 100.95 35.4357 101.137 35.6534L101.896 35.0026ZM100.823 34.2248C100.395 34.03 99.9138 33.94 99.3924 33.94V34.94C99.7991 34.94 100.134 35.01 100.41 35.1352L100.823 34.2248ZM99.3924 33.94C98.3568 33.94 97.4817 34.2397 96.8309 34.8904L97.538 35.5976C97.9592 35.1763 98.556 34.94 99.3924 34.94V33.94ZM96.8309 34.8904C96.1996 35.5217 95.8251 36.3833 95.6699 37.4264L96.659 37.5736C96.7918 36.6807 97.0973 36.0383 97.538 35.5976L96.8309 34.8904ZM96.1644 38H102.248V37H96.1644V38ZM95.593 39.107C95.6266 39.8396 95.741 40.4951 95.9459 41.0651L96.887 40.7269C96.7238 40.2729 96.6222 39.7204 96.5919 39.061L95.593 39.107ZM95.9468 41.0675C96.1489 41.6211 96.4233 42.0997 96.7777 42.4915L97.5192 41.8205C97.2656 41.5403 97.052 41.1789 96.8861 40.7245L95.9468 41.0675ZM96.782 42.4962C97.1445 42.8865 97.5746 43.1812 98.0683 43.3768L98.4366 42.4472C98.0823 42.3068 97.7764 42.0975 97.5148 41.8158L96.782 42.4962ZM98.0788 43.3809C98.5739 43.5642 99.1137 43.652 99.6924 43.652V42.652C99.2152 42.652 98.795 42.5798 98.4261 42.4431L98.0788 43.3809ZM99.6924 43.652C100.231 43.652 100.719 43.5924 101.146 43.4623L100.855 42.5057C100.546 42.5996 100.161 42.652 99.6924 42.652V43.652ZM101.155 43.4594C101.541 43.3337 101.885 43.1968 102.184 43.0472L101.737 42.1528C101.492 42.2752 101.196 42.3943 100.845 42.5086L101.155 43.4594ZM102.194 43.0419C102.47 42.8958 102.709 42.7644 102.908 42.6479L102.405 41.7841C102.22 41.8916 101.995 42.0162 101.726 42.1581L102.194 43.0419ZM102.921 42.64C103.065 42.55 103.149 42.536 103.184 42.536V41.536C102.9 41.536 102.631 41.642 102.391 41.792L102.921 42.64ZM103.184 42.536C103.223 42.536 103.237 42.5432 103.237 42.5432C103.238 42.5436 103.239 42.5442 103.241 42.5459C103.243 42.5478 103.248 42.5527 103.255 42.5627L104.074 41.9893C103.862 41.6857 103.543 41.536 103.184 41.536V42.536ZM103.269 42.5816L104.001 43.5296L104.792 42.9184L104.06 41.9704L103.269 42.5816ZM104.014 42.9014C103.741 43.2248 103.434 43.4956 103.093 43.716L103.636 44.556C104.062 44.2804 104.444 43.9432 104.778 43.5466L104.014 42.9014ZM103.093 43.716C102.74 43.944 102.365 44.1317 101.967 44.2791L102.314 45.2169C102.78 45.0443 103.221 44.824 103.636 44.556L103.093 43.716ZM101.974 44.2763C101.574 44.4173 101.162 44.5174 100.739 44.5769L100.878 45.5671C101.367 45.4986 101.843 45.3827 102.306 45.2197L101.974 44.2763ZM100.73 44.5781C100.299 44.6463 99.8806 44.68 99.4764 44.68V45.68C99.9363 45.68 100.406 45.6417 100.886 45.5659L100.73 44.5781ZM99.4764 44.68C98.6844 44.68 97.9578 44.5494 97.2919 44.2933L96.9329 45.2267C97.723 45.5306 98.5724 45.68 99.4764 45.68V44.68ZM97.2981 44.2958C96.6428 44.0336 96.0739 43.6529 95.5872 43.1517L94.8697 43.8483C95.455 44.4511 96.1421 44.9104 96.9267 45.2242L97.2981 44.2958ZM95.5898 43.1544C95.1149 42.6579 94.7326 42.0346 94.449 41.2734L93.5119 41.6226C93.8363 42.4934 94.286 43.2381 94.8671 43.8456L95.5898 43.1544ZM94.4505 41.2775C94.1782 40.5269 94.0364 39.6465 94.0364 38.628H93.0364C93.0364 39.7375 93.1907 40.7371 93.5104 41.6185L94.4505 41.2775ZM94.0364 38.628C94.0364 37.8327 94.1601 37.0983 94.4031 36.4208L93.4618 36.0832C93.1768 36.8777 93.0364 37.7273 93.0364 38.628H94.0364ZM94.4014 36.4253C94.6526 35.7457 95.0041 35.1622 95.4539 34.6689L94.715 33.9951C94.1728 34.5898 93.7563 35.2863 93.4634 36.0787L94.4014 36.4253ZM95.4512 34.6718C95.9063 34.1806 96.4569 33.7918 97.1091 33.506L96.7078 32.59C95.936 32.9282 95.2706 33.3954 94.7177 33.9922L95.4512 34.6718ZM97.1115 33.5049C97.7588 33.2172 98.5001 33.068 99.3444 33.068V32.068C98.3807 32.068 97.4981 32.2388 96.7054 32.5911L97.1115 33.5049ZM99.3444 33.068C100.041 33.068 100.675 33.1826 101.252 33.4062L101.613 32.4738C100.91 32.2014 100.152 32.068 99.3444 32.068V33.068ZM101.257 33.4082C101.831 33.6235 102.321 33.9402 102.732 34.3585L103.445 33.6575C102.928 33.1318 102.314 32.7365 101.608 32.4718L101.257 33.4082ZM102.732 34.3585C103.141 34.7751 103.466 35.2931 103.7 35.9224L104.637 35.5736C104.359 34.8269 103.963 34.1849 103.445 33.6575L102.732 34.3585ZM103.702 35.929C103.94 36.5412 104.064 37.2541 104.064 38.076H105.064C105.064 37.1539 104.925 36.3148 104.635 35.567L103.702 35.929ZM104.064 38.076C104.064 38.2603 104.054 38.3981 104.038 38.496C104.021 38.6019 104.002 38.6245 104.013 38.6084L104.852 39.1516C104.951 38.9995 104.998 38.82 105.025 38.658C105.053 38.4879 105.064 38.2917 105.064 38.076H104.064ZM104.013 38.6084C104.018 38.5996 104.026 38.5906 104.035 38.5831C104.044 38.5758 104.05 38.573 104.051 38.5728C104.051 38.5728 104.049 38.5736 104.045 38.5747C104.042 38.5758 104.036 38.5772 104.027 38.5786C104.011 38.5815 103.986 38.584 103.952 38.584V39.584C104.275 39.584 104.636 39.4859 104.852 39.1516L104.013 38.6084ZM103.952 38.584H96.0924V39.584H103.952V38.584ZM109.382 34.38L108.889 34.4588C108.919 34.6457 109.051 34.7997 109.232 34.8568C109.412 34.9138 109.609 34.864 109.741 34.7282L109.382 34.38ZM110.198 33.648L110.504 34.0439L110.505 34.0427L110.198 33.648ZM111.11 33.072L111.334 33.5192L111.11 33.072ZM112.13 32.7L112.012 32.2143V32.2143L112.13 32.7ZM115.07 32.904L114.867 33.3609L114.87 33.3621L115.07 32.904ZM116.354 33.852L115.972 34.1743L115.976 34.1786L116.354 33.852ZM117.146 35.328L116.668 35.4741L116.669 35.476L117.146 35.328ZM117.41 45V45.5C117.687 45.5 117.91 45.2761 117.91 45H117.41ZM114.842 45H114.342C114.342 45.2761 114.566 45.5 114.842 45.5V45ZM114.266 35.292L113.881 35.6101L113.884 35.6141L114.266 35.292ZM110.93 35.004L110.696 34.5626L110.693 34.5642L110.93 35.004ZM109.55 36.084L109.187 35.7401C109.099 35.833 109.05 35.9561 109.05 36.084H109.55ZM109.55 45V45.5C109.827 45.5 110.05 45.2761 110.05 45H109.55ZM106.97 45H106.47C106.47 45.2761 106.694 45.5 106.97 45.5V45ZM106.97 32.76V32.26C106.694 32.26 106.47 32.4839 106.47 32.76H106.97ZM109.202 33.252L109.696 33.1732C109.693 33.1524 109.688 33.1318 109.682 33.1116L109.202 33.252ZM109.741 34.7282C109.99 34.4722 110.244 34.2443 110.504 34.0439L109.893 33.2521C109.593 33.4837 109.303 33.7438 109.024 34.0318L109.741 34.7282ZM110.505 34.0427C110.768 33.8385 111.044 33.6642 111.334 33.5192L110.887 32.6248C110.537 32.7998 110.205 33.0095 109.891 33.2533L110.505 34.0427ZM111.334 33.5192C111.619 33.3765 111.924 33.2651 112.249 33.1857L112.012 32.2143C111.617 32.3109 111.241 32.4475 110.887 32.6248L111.334 33.5192ZM112.249 33.1857C112.565 33.1084 112.917 33.068 113.306 33.068V32.068C112.848 32.068 112.416 32.1156 112.012 32.2143L112.249 33.1857ZM113.306 33.068C113.923 33.068 114.44 33.1708 114.867 33.3609L115.274 32.4471C114.693 32.1892 114.033 32.068 113.306 32.068V33.068ZM114.87 33.3621C115.315 33.5568 115.68 33.8277 115.972 34.1743L116.737 33.5297C116.341 33.0603 115.85 32.6992 115.271 32.4459L114.87 33.3621ZM115.976 34.1786C116.277 34.5281 116.51 34.9567 116.668 35.4741L117.625 35.1819C117.431 34.5473 117.135 33.9919 116.733 33.5254L115.976 34.1786ZM116.669 35.476C116.828 35.9892 116.91 36.5665 116.91 37.212H117.91C117.91 36.4815 117.817 35.8028 117.624 35.18L116.669 35.476ZM116.91 37.212V45H117.91V37.212H116.91ZM117.41 44.5H114.842V45.5H117.41V44.5ZM115.342 45V37.212H114.342V45H115.342ZM115.342 37.212C115.342 36.315 115.133 35.5453 114.649 34.9699L113.884 35.6141C114.167 35.9507 114.342 36.461 114.342 37.212H115.342ZM114.652 34.9739C114.153 34.369 113.414 34.108 112.538 34.108V35.108C113.215 35.108 113.627 35.303 113.881 35.6101L114.652 34.9739ZM112.538 34.108C111.883 34.108 111.266 34.2591 110.696 34.5626L111.165 35.4454C111.587 35.2209 112.042 35.108 112.538 35.108V34.108ZM110.693 34.5642C110.152 34.8565 109.651 35.2507 109.187 35.7401L109.913 36.4279C110.314 36.0053 110.733 35.6795 111.168 35.4438L110.693 34.5642ZM109.05 36.084V45H110.05V36.084H109.05ZM109.55 44.5H106.97V45.5H109.55V44.5ZM107.47 45V32.76H106.47V45H107.47ZM106.97 33.26H108.53V32.26H106.97V33.26ZM108.53 33.26C108.629 33.26 108.661 33.2822 108.667 33.2864C108.671 33.2896 108.698 33.3091 108.723 33.3924L109.682 33.1116C109.611 32.8669 109.477 32.6404 109.258 32.4796C109.04 32.3198 108.784 32.26 108.53 32.26V33.26ZM108.709 33.3308L108.889 34.4588L109.876 34.3012L109.696 33.1732L108.709 33.3308ZM123.052 27.24H123.552C123.552 26.9639 123.328 26.74 123.052 26.74V27.24ZM123.052 45V45.5C123.328 45.5 123.552 45.2761 123.552 45H123.052ZM120.472 45H119.972C119.972 45.2761 120.195 45.5 120.472 45.5V45ZM120.472 27.24V26.74C120.195 26.74 119.972 26.9639 119.972 27.24H120.472ZM122.552 27.24V45H123.552V27.24H122.552ZM123.052 44.5H120.472V45.5H123.052V44.5ZM120.972 45V27.24H119.972V45H120.972ZM120.472 27.74H123.052V26.74H120.472V27.74ZM132.776 39.648H133.276C133.276 39.5124 133.221 39.3826 133.123 39.2884C133.026 39.1941 132.894 39.1436 132.759 39.1483L132.776 39.648ZM130.448 39.876L130.535 40.3684L130.541 40.3672L130.448 39.876ZM128.912 40.32L129.117 40.7762L129.125 40.7726L128.912 40.32ZM128.06 40.956L127.652 40.6666L127.646 40.6756L128.06 40.956ZM127.94 42.516L127.48 42.7108C127.483 42.7181 127.486 42.7253 127.489 42.7324L127.94 42.516ZM128.324 43.02L128 43.401C128.007 43.4067 128.014 43.4123 128.021 43.4177L128.324 43.02ZM128.9 43.308L128.758 43.7874C128.765 43.7894 128.772 43.7913 128.779 43.7931L128.9 43.308ZM131.36 43.02L131.59 43.4642L131.592 43.4628L131.36 43.02ZM132.776 41.916L133.139 42.2604C133.227 42.1674 133.276 42.0442 133.276 41.916H132.776ZM125.936 34.464L125.595 34.098C125.427 34.2548 125.387 34.5063 125.499 34.7074L125.936 34.464ZM132.752 32.88L132.556 33.34L132.564 33.3433L132.752 32.88ZM134.132 33.84L133.758 34.1713L133.761 34.1753L134.132 33.84ZM134.984 35.328L134.51 35.4861L134.512 35.4941L134.984 35.328ZM135.284 45V45.5C135.56 45.5 135.784 45.2761 135.784 45H135.284ZM133.568 44.892L133.303 45.316C133.31 45.3201 133.316 45.324 133.323 45.3278L133.568 44.892ZM133.244 44.424L132.759 44.5466C132.764 44.5652 132.77 44.5834 132.777 44.6013L133.244 44.424ZM132.992 43.428L133.477 43.3054C133.434 43.1356 133.305 43.0007 133.138 42.9497C132.97 42.8987 132.788 42.939 132.658 43.0559L132.992 43.428ZM132.068 44.184L132.358 44.5917L132.365 44.5865L132.068 44.184ZM131.12 44.736L130.91 44.2823L130.906 44.2844L131.12 44.736ZM130.076 45.072L129.982 44.5808L129.97 44.5834L130.076 45.072ZM127.46 44.988L127.307 45.4641L127.31 45.4649L127.46 44.988ZM126.356 44.376L126.022 44.7482L126.027 44.7529L126.356 44.376ZM125.612 43.344L125.153 43.5421L125.156 43.5496L125.612 43.344ZM125.72 40.524L125.286 40.2759L125.283 40.2818L125.72 40.524ZM126.968 39.324L127.229 39.7506L127.23 39.7496L126.968 39.324ZM129.26 38.436L129.142 37.9502L129.141 37.9504L129.26 38.436ZM132.776 38.04L132.788 38.5399C133.059 38.5336 133.276 38.3117 133.276 38.04H132.776ZM132.212 35.256L131.835 35.5843V35.5843L132.212 35.256ZM129.308 34.8L129.476 35.271L129.486 35.2672L129.308 34.8ZM128.432 35.196L128.181 34.7636L128.432 35.196ZM127.772 35.604L128.037 36.028C128.041 36.0254 128.045 36.0227 128.049 36.02L127.772 35.604ZM126.704 35.652L126.392 36.0424C126.401 36.05 126.411 36.0572 126.421 36.064L126.704 35.652ZM126.404 35.304L125.967 35.5474L125.973 35.5575L126.404 35.304ZM132.759 39.1483C131.823 39.1808 131.02 39.2585 130.355 39.3848L130.541 40.3672C131.14 40.2535 131.889 40.1792 132.793 40.1477L132.759 39.1483ZM130.361 39.3837C129.704 39.5 129.146 39.6581 128.7 39.8674L129.125 40.7726C129.463 40.6139 129.928 40.476 130.535 40.3683L130.361 39.3837ZM128.707 39.8639C128.266 40.0621 127.897 40.322 127.652 40.6666L128.468 41.2454C128.575 41.094 128.774 40.9299 129.117 40.7761L128.707 39.8639ZM127.646 40.6756C127.423 41.0053 127.308 41.3748 127.308 41.772H128.308C128.308 41.5772 128.361 41.4027 128.474 41.2364L127.646 40.6756ZM127.308 41.772C127.308 42.1092 127.359 42.4267 127.48 42.7108L128.401 42.3212C128.345 42.1893 128.308 42.0108 128.308 41.772H127.308ZM127.489 42.7324C127.614 42.9919 127.784 43.2171 128 43.401L128.648 42.639C128.544 42.5509 128.458 42.4401 128.391 42.2996L127.489 42.7324ZM128.021 43.4177C128.24 43.5849 128.488 43.7073 128.758 43.7874L129.042 42.8286C128.88 42.7807 128.744 42.7111 128.627 42.6223L128.021 43.4177ZM128.779 43.7931C129.048 43.8603 129.333 43.892 129.632 43.892V42.892C129.403 42.892 129.2 42.8677 129.021 42.8229L128.779 43.7931ZM129.632 43.892C130.365 43.892 131.023 43.7567 131.59 43.4642L131.131 42.5758C130.737 42.7793 130.243 42.892 129.632 42.892V43.892ZM131.592 43.4628C132.137 43.1768 132.652 42.7723 133.139 42.2604L132.414 41.5716C131.988 42.0197 131.559 42.3512 131.128 42.5772L131.592 43.4628ZM133.276 41.916V39.648H132.276V41.916H133.276ZM126.277 34.83C127.567 33.6292 129.093 33.032 130.88 33.032V32.032C128.843 32.032 127.073 32.7228 125.595 34.098L126.277 34.83ZM130.88 33.032C131.529 33.032 132.085 33.1389 132.556 33.3399L132.948 32.4201C132.332 32.1571 131.639 32.032 130.88 32.032V33.032ZM132.564 33.3433C133.05 33.5404 133.444 33.8172 133.758 34.1713L134.507 33.5087C134.084 33.0308 133.558 32.6676 132.94 32.4167L132.564 33.3433ZM133.761 34.1753C134.087 34.5359 134.338 34.9702 134.51 35.4861L135.458 35.1699C135.246 34.5338 134.929 33.9761 134.503 33.5047L133.761 34.1753ZM134.512 35.4941C134.691 36.0011 134.784 36.5759 134.784 37.224H135.784C135.784 36.4801 135.677 35.7909 135.456 35.1619L134.512 35.4941ZM134.784 37.224V45H135.784V37.224H134.784ZM135.284 44.5H134.132V45.5H135.284V44.5ZM134.132 44.5C133.918 44.5 133.831 44.4664 133.813 44.4562L133.323 45.3278C133.561 45.4616 133.85 45.5 134.132 45.5V44.5ZM133.833 44.468C133.84 44.472 133.827 44.4664 133.802 44.4304C133.777 44.3941 133.745 44.3357 133.712 44.2467L132.777 44.6013C132.88 44.8752 133.04 45.1513 133.303 45.316L133.833 44.468ZM133.729 44.3014L133.477 43.3054L132.507 43.5506L132.759 44.5466L133.729 44.3014ZM132.658 43.0559C132.357 43.3263 132.061 43.568 131.771 43.7815L132.365 44.5865C132.683 44.352 133.003 44.0897 133.326 43.8001L132.658 43.0559ZM131.778 43.7764C131.499 43.9752 131.209 44.1436 130.91 44.2823L131.33 45.1897C131.687 45.0244 132.029 44.8248 132.358 44.5916L131.778 43.7764ZM130.906 44.2844C130.627 44.4168 130.32 44.5163 129.982 44.5809L130.17 45.5631C130.584 45.4837 130.973 45.3592 131.335 45.1876L130.906 44.2844ZM129.97 44.5834C129.643 44.6546 129.271 44.692 128.852 44.692V45.692C129.329 45.692 129.774 45.6494 130.182 45.5606L129.97 44.5834ZM128.852 44.692C128.402 44.692 127.989 44.6304 127.61 44.5111L127.31 45.4649C127.795 45.6176 128.31 45.692 128.852 45.692V44.692ZM127.613 44.5119C127.249 44.3951 126.942 44.2231 126.685 43.9991L126.027 44.7529C126.395 45.0729 126.824 45.3089 127.307 45.4641L127.613 44.5119ZM126.69 44.0039C126.433 43.7734 126.225 43.4874 126.068 43.1384L125.156 43.5496C125.367 44.0166 125.655 44.4186 126.022 44.7481L126.69 44.0039ZM126.071 43.146C125.928 42.8137 125.848 42.4039 125.848 41.904H124.848C124.848 42.5081 124.944 43.0583 125.153 43.542L126.071 43.146ZM125.848 41.904C125.848 41.5238 125.947 41.1465 126.158 40.7662L125.283 40.2818C124.997 40.7975 124.848 41.3402 124.848 41.904H125.848ZM126.154 40.7721C126.357 40.4164 126.703 40.0718 127.229 39.7506L126.707 38.8974C126.081 39.2802 125.595 39.7356 125.286 40.2759L126.154 40.7721ZM127.23 39.7496C127.756 39.4257 128.467 39.1459 129.379 38.9216L129.141 37.9504C128.165 38.1901 127.348 38.5023 126.706 38.8984L127.23 39.7496ZM129.378 38.9218C130.284 38.701 131.418 38.5714 132.788 38.5399L132.765 37.5401C131.35 37.5726 130.14 37.7069 129.142 37.9502L129.378 38.9218ZM133.276 38.04V37.224H132.276V38.04H133.276ZM133.276 37.224C133.276 36.2854 133.077 35.4886 132.589 34.9277L131.835 35.5843C132.099 35.8874 132.276 36.4026 132.276 37.224H133.276ZM132.589 34.9277C132.094 34.3584 131.387 34.108 130.556 34.108V35.108C131.182 35.108 131.578 35.2896 131.835 35.5843L132.589 34.9277ZM130.556 34.108C130.021 34.108 129.54 34.1766 129.13 34.3328L129.486 35.2672C129.748 35.1674 130.099 35.108 130.556 35.108V34.108ZM129.14 34.3291C128.782 34.457 128.461 34.6011 128.181 34.7636L128.683 35.6284C128.899 35.5029 129.162 35.383 129.476 35.2709L129.14 34.3291ZM128.181 34.7636C127.926 34.9116 127.697 35.0531 127.495 35.188L128.049 36.02C128.231 35.8989 128.442 35.7684 128.683 35.6284L128.181 34.7636ZM127.507 35.18C127.391 35.2528 127.278 35.284 127.16 35.284V36.284C127.474 36.284 127.77 36.1952 128.037 36.028L127.507 35.18ZM127.16 35.284C127.071 35.284 127.021 35.2633 126.987 35.24L126.421 36.064C126.643 36.2167 126.897 36.284 127.16 36.284V35.284ZM127.016 35.2616C126.945 35.2046 126.885 35.1354 126.835 35.0505L125.973 35.5575C126.083 35.7446 126.223 35.9074 126.392 36.0424L127.016 35.2616ZM126.841 35.0606L126.373 34.2206L125.499 34.7074L125.967 35.5473L126.841 35.0606ZM140.718 34.38L140.225 34.4588C140.254 34.6457 140.387 34.7997 140.568 34.8568C140.748 34.9138 140.945 34.864 141.077 34.7282L140.718 34.38ZM141.534 33.648L141.84 34.0439L141.841 34.0427L141.534 33.648ZM142.446 33.072L142.67 33.5192L142.446 33.072ZM143.466 32.7L143.348 32.2143V32.2143L143.466 32.7ZM146.406 32.904L146.203 33.3609L146.206 33.3621L146.406 32.904ZM147.69 33.852L147.308 34.1743L147.312 34.1786L147.69 33.852ZM148.482 35.328L148.004 35.4741L148.005 35.476L148.482 35.328ZM148.746 45V45.5C149.023 45.5 149.246 45.2761 149.246 45H148.746ZM146.178 45H145.678C145.678 45.2761 145.902 45.5 146.178 45.5V45ZM145.602 35.292L145.217 35.6101L145.22 35.6141L145.602 35.292ZM142.266 35.004L142.031 34.5626L142.028 34.5642L142.266 35.004ZM140.886 36.084L140.523 35.7401C140.435 35.833 140.386 35.9561 140.386 36.084H140.886ZM140.886 45V45.5C141.163 45.5 141.386 45.2761 141.386 45H140.886ZM138.306 45H137.806C137.806 45.2761 138.03 45.5 138.306 45.5V45ZM138.306 32.76V32.26C138.03 32.26 137.806 32.4839 137.806 32.76H138.306ZM140.538 33.252L141.032 33.1732C141.029 33.1524 141.024 33.1318 141.018 33.1116L140.538 33.252ZM141.077 34.7282C141.326 34.4722 141.58 34.2443 141.84 34.0439L141.229 33.2521C140.929 33.4837 140.639 33.7438 140.36 34.0318L141.077 34.7282ZM141.841 34.0427C142.104 33.8385 142.38 33.6642 142.67 33.5192L142.223 32.6248C141.873 32.7998 141.541 33.0095 141.227 33.2533L141.841 34.0427ZM142.67 33.5192C142.955 33.3765 143.26 33.2651 143.585 33.1857L143.348 32.2143C142.953 32.3109 142.577 32.4475 142.223 32.6248L142.67 33.5192ZM143.585 33.1857C143.901 33.1084 144.253 33.068 144.642 33.068V32.068C144.184 32.068 143.752 32.1156 143.348 32.2143L143.585 33.1857ZM144.642 33.068C145.259 33.068 145.776 33.1708 146.203 33.3609L146.609 32.4471C146.029 32.1892 145.369 32.068 144.642 32.068V33.068ZM146.206 33.3621C146.651 33.5568 147.016 33.8277 147.308 34.1743L148.073 33.5297C147.677 33.0603 147.186 32.6992 146.607 32.4459L146.206 33.3621ZM147.312 34.1786C147.613 34.5281 147.846 34.9567 148.004 35.4741L148.961 35.1819C148.767 34.5473 148.471 33.9919 148.069 33.5254L147.312 34.1786ZM148.005 35.476C148.164 35.9892 148.246 36.5665 148.246 37.212H149.246C149.246 36.4815 149.153 35.8028 148.96 35.18L148.005 35.476ZM148.246 37.212V45H149.246V37.212H148.246ZM148.746 44.5H146.178V45.5H148.746V44.5ZM146.678 45V37.212H145.678V45H146.678ZM146.678 37.212C146.678 36.315 146.469 35.5453 145.985 34.9699L145.22 35.6141C145.503 35.9507 145.678 36.461 145.678 37.212H146.678ZM145.988 34.9739C145.489 34.369 144.75 34.108 143.874 34.108V35.108C144.551 35.108 144.963 35.303 145.217 35.6101L145.988 34.9739ZM143.874 34.108C143.219 34.108 142.602 34.2591 142.031 34.5626L142.501 35.4454C142.923 35.2209 143.378 35.108 143.874 35.108V34.108ZM142.028 34.5642C141.488 34.8565 140.987 35.2507 140.523 35.7401L141.249 36.4279C141.65 36.0053 142.068 35.6795 142.504 35.4438L142.028 34.5642ZM140.386 36.084V45H141.386V36.084H140.386ZM140.886 44.5H138.306V45.5H140.886V44.5ZM138.806 45V32.76H137.806V45H138.806ZM138.306 33.26H139.866V32.26H138.306V33.26ZM139.866 33.26C139.965 33.26 139.997 33.2822 140.003 33.2864C140.007 33.2896 140.034 33.3091 140.059 33.3924L141.018 33.1116C140.947 32.8669 140.813 32.6404 140.594 32.4796C140.375 32.3198 140.12 32.26 139.866 32.26V33.26ZM140.045 33.3308L140.225 34.4588L141.212 34.3012L141.032 33.1732L140.045 33.3308ZM159.572 35.772H160.072C160.072 35.661 160.035 35.5532 159.967 35.4655L159.572 35.772ZM154.616 35.64L155.011 35.9455L155.013 35.9434L154.616 35.64ZM153.955 40.848L153.469 40.9641L153.47 40.9658L153.955 40.848ZM155.383 42.876L155.181 43.3333L155.383 42.876ZM158.24 42.684L158.495 43.114L158.497 43.1127L158.24 42.684ZM159.572 41.472L159.965 41.7806C160.034 41.6926 160.072 41.5839 160.072 41.472H159.572ZM162.151 27.24H162.651C162.651 26.9639 162.428 26.74 162.151 26.74V27.24ZM162.151 45V45.5C162.428 45.5 162.651 45.2761 162.651 45H162.151ZM159.932 44.508L159.439 44.5924C159.442 44.6113 159.446 44.63 159.452 44.6484L159.932 44.508ZM159.703 43.176L160.196 43.0916C160.164 42.9004 160.023 42.7454 159.836 42.6939C159.649 42.6424 159.449 42.7039 159.323 42.8514L159.703 43.176ZM157.951 44.628L157.707 44.1919L157.705 44.1932L157.951 44.628ZM153.812 44.772L153.588 45.2192L153.593 45.2218L153.812 44.772ZM152.371 43.56L152.77 43.2581L152.371 43.56ZM151.436 41.604L150.953 41.7368L150.955 41.7427L151.436 41.604ZM151.471 36.384L150.995 36.2318L150.994 36.2363L151.471 36.384ZM152.527 34.368L152.917 34.681L152.92 34.6784L152.527 34.368ZM154.184 33.024L154.405 33.4723L154.407 33.4712L154.184 33.024ZM158.215 32.88L158.006 33.3342L158.012 33.3369L158.215 32.88ZM159.572 33.828L159.214 34.178C159.357 34.3231 159.573 34.3677 159.761 34.2909C159.949 34.2141 160.072 34.0311 160.072 33.828H159.572ZM159.572 27.24V26.74C159.295 26.74 159.072 26.9639 159.072 27.24H159.572ZM159.967 35.4655C159.567 34.9508 159.107 34.5647 158.579 34.34L158.188 35.26C158.524 35.4033 158.856 35.6652 159.176 36.0785L159.967 35.4655ZM158.579 34.34C158.081 34.1277 157.546 34.024 156.979 34.024V35.024C157.421 35.024 157.822 35.1043 158.188 35.26L158.579 34.34ZM156.979 34.024C155.829 34.024 154.889 34.4581 154.218 35.3366L155.013 35.9434C155.478 35.3339 156.114 35.024 156.979 35.024V34.024ZM154.22 35.3345C153.556 36.1949 153.263 37.4154 153.263 38.916H154.263C154.263 37.5206 154.539 36.5571 155.011 35.9455L154.22 35.3345ZM153.263 38.916C153.263 39.694 153.329 40.3792 153.469 40.9641L154.442 40.7319C154.326 40.2448 154.263 39.642 154.263 38.916H153.263ZM153.47 40.9658C153.608 41.5373 153.814 42.033 154.101 42.4346L154.914 41.8534C154.721 41.583 154.559 41.2147 154.441 40.7302L153.47 40.9658ZM154.101 42.4346C154.387 42.8362 154.748 43.1416 155.181 43.3333L155.586 42.4187C155.331 42.3064 155.108 42.1238 154.914 41.8534L154.101 42.4346ZM155.181 43.3333C155.598 43.5174 156.056 43.604 156.548 43.604V42.604C156.175 42.604 155.857 42.5386 155.586 42.4187L155.181 43.3333ZM156.548 43.604C157.276 43.604 157.932 43.4481 158.495 43.114L157.984 42.254C157.603 42.4799 157.131 42.604 156.548 42.604V43.604ZM158.497 43.1127C159.038 42.7882 159.526 42.3402 159.965 41.7806L159.178 41.1634C158.801 41.6439 158.401 42.0038 157.982 42.2553L158.497 43.1127ZM160.072 41.472V35.772H159.072V41.472H160.072ZM161.651 27.24V45H162.651V27.24H161.651ZM162.151 44.5H160.591V45.5H162.151V44.5ZM160.591 44.5C160.5 44.5 160.471 44.479 160.467 44.4761C160.464 44.4735 160.436 44.4534 160.411 44.3675L159.452 44.6484C159.523 44.8906 159.653 45.1165 159.87 45.2779C160.086 45.439 160.339 45.5 160.591 45.5V44.5ZM160.424 44.4236L160.196 43.0916L159.211 43.2604L159.439 44.5924L160.424 44.4236ZM159.323 42.8514C158.848 43.4088 158.309 43.8542 157.707 44.1919L158.196 45.0641C158.906 44.6658 159.535 44.1432 160.084 43.5006L159.323 42.8514ZM157.705 44.1932C157.143 44.5121 156.475 44.68 155.684 44.68V45.68C156.62 45.68 157.464 45.4799 158.198 45.0628L157.705 44.1932ZM155.684 44.68C155.063 44.68 154.515 44.5578 154.03 44.3222L153.593 45.2218C154.228 45.5302 154.928 45.68 155.684 45.68V44.68ZM154.035 44.3248C153.548 44.0811 153.126 43.7285 152.77 43.2581L151.973 43.8619C152.417 44.4475 152.955 44.9029 153.588 45.2192L154.035 44.3248ZM152.77 43.2581C152.414 42.7884 152.126 42.1949 151.916 41.4653L150.955 41.7427C151.193 42.5651 151.529 43.2756 151.973 43.8619L152.77 43.2581ZM151.918 41.4712C151.716 40.7393 151.612 39.8894 151.612 38.916H150.612C150.612 39.9586 150.723 40.9007 150.953 41.7368L151.918 41.4712ZM151.612 38.916C151.612 38.048 151.726 37.2544 151.949 36.5317L150.994 36.2363C150.737 37.0656 150.612 37.96 150.612 38.916H151.612ZM151.948 36.5362C152.179 35.8118 152.504 35.1958 152.917 34.681L152.138 34.055C151.639 34.6762 151.26 35.4042 150.995 36.2318L151.948 36.5362ZM152.92 34.6784C153.33 34.1594 153.824 33.759 154.405 33.4723L153.962 32.5757C153.247 32.929 152.637 33.4246 152.135 34.0576L152.92 34.6784ZM154.407 33.4712C154.987 33.1813 155.641 33.032 156.38 33.032V32.032C155.502 32.032 154.692 32.2107 153.96 32.5768L154.407 33.4712ZM156.38 33.032C157.048 33.032 157.584 33.1399 158.006 33.3342L158.425 32.4258C157.839 32.1561 157.151 32.032 156.38 32.032V33.032ZM158.012 33.3369C158.457 33.5344 158.857 33.8134 159.214 34.178L159.929 33.478C159.486 33.0266 158.982 32.6736 158.419 32.4231L158.012 33.3369ZM160.072 33.828V27.24H159.072V33.828H160.072ZM159.572 27.74H162.151V26.74H159.572V27.74Z" fill="black" fill-opacity="0.08"/>
<mask id="path-6-outside-1" maskUnits="userSpaceOnUse" x="20.3281" y="15.3833" width="32" height="40" fill="black">
<rect fill="white" x="20.3281" y="15.3833" width="32" height="40"/>
<path fill-rule="evenodd" clip-rule="evenodd" d="M38.1094 21.2813C28.8413 21.2813 21.3281 28.7946 21.3281 38.0626C21.3281 47.3306 28.8413 54.8439 38.1094 54.8439C38.8176 54.8439 39.4173 54.8115 40.1016 54.7267C40.0995 54.726 40.0975 54.7253 40.0955 54.7247C39.6446 54.3229 39.1898 53.8792 38.7497 53.3937C37.4679 51.9797 36.2468 50.1392 35.6805 47.8841C35.1208 45.6555 35.2373 43.1603 36.3674 40.4881C36.3121 40.4706 36.2498 40.4504 36.1814 40.4272C35.9232 40.3397 35.5717 40.2085 35.1645 40.0242C29.8443 37.6159 29.8158 33.5394 32.1964 28.8851C32.1976 28.8833 32.1989 28.8815 32.2001 28.8796C29.7671 36.4695 37.2191 38.3938 37.2191 38.3938L37.2862 38.4147L37.2863 38.4146L37.2194 38.3938C37.2194 38.3938 29.7668 36.4694 32.2006 28.8788C32.2015 28.8776 32.2023 28.8763 32.2031 28.8751C29.7656 36.4689 37.2207 38.3939 37.2207 38.3939L46.7982 41.3766C48.089 41.7814 48.9301 41.6851 49.4685 41.4907C50.0214 41.2912 50.4761 40.9075 50.8442 40.3817L50.8504 40.3729L50.8566 40.3642C51.1927 39.8937 51.3951 39.3201 51.3842 38.7125C51.3737 38.1288 51.1645 37.3706 50.4415 36.5008C48.225 33.834 46.0353 31.1448 43.8457 28.4557C43.4402 27.9577 43.0347 27.4597 42.629 26.9618L51.7176 16.3833L39.4688 23.5314L40.125 21.4009C39.4648 21.322 38.7922 21.2813 38.1094 21.2813ZM39.2344 28.4064C38.1018 28.2176 37.1719 28.7814 36.8906 29.9064C38.3906 29.7189 39.8437 30.2814 40.7812 31.0314C41.0625 29.7189 40.3594 28.5939 39.2344 28.4064Z"/>
</mask>
<path fill-rule="evenodd" clip-rule="evenodd" d="M38.1094 21.2813C28.8413 21.2813 21.3281 28.7946 21.3281 38.0626C21.3281 47.3306 28.8413 54.8439 38.1094 54.8439C38.8176 54.8439 39.4173 54.8115 40.1016 54.7267C40.0995 54.726 40.0975 54.7253 40.0955 54.7247C39.6446 54.3229 39.1898 53.8792 38.7497 53.3937C37.4679 51.9797 36.2468 50.1392 35.6805 47.8841C35.1208 45.6555 35.2373 43.1603 36.3674 40.4881C36.3121 40.4706 36.2498 40.4504 36.1814 40.4272C35.9232 40.3397 35.5717 40.2085 35.1645 40.0242C29.8443 37.6159 29.8158 33.5394 32.1964 28.8851C32.1976 28.8833 32.1989 28.8815 32.2001 28.8796C29.7671 36.4695 37.2191 38.3938 37.2191 38.3938L37.2862 38.4147L37.2863 38.4146L37.2194 38.3938C37.2194 38.3938 29.7668 36.4694 32.2006 28.8788C32.2015 28.8776 32.2023 28.8763 32.2031 28.8751C29.7656 36.4689 37.2207 38.3939 37.2207 38.3939L46.7982 41.3766C48.089 41.7814 48.9301 41.6851 49.4685 41.4907C50.0214 41.2912 50.4761 40.9075 50.8442 40.3817L50.8504 40.3729L50.8566 40.3642C51.1927 39.8937 51.3951 39.3201 51.3842 38.7125C51.3737 38.1288 51.1645 37.3706 50.4415 36.5008C48.225 33.834 46.0353 31.1448 43.8457 28.4557C43.4402 27.9577 43.0347 27.4597 42.629 26.9618L51.7176 16.3833L39.4688 23.5314L40.125 21.4009C39.4648 21.322 38.7922 21.2813 38.1094 21.2813ZM39.2344 28.4064C38.1018 28.2176 37.1719 28.7814 36.8906 29.9064C38.3906 29.7189 39.8437 30.2814 40.7812 31.0314C41.0625 29.7189 40.3594 28.5939 39.2344 28.4064Z" fill="white"/>
<path d="M40.1016 54.7267L40.1631 55.2229C40.3951 55.1941 40.5761 55.0085 40.5991 54.7759C40.6221 54.5433 40.481 54.3258 40.2591 54.2521L40.1016 54.7267ZM40.0955 54.7247L39.7629 55.098C39.8137 55.1432 39.8732 55.1777 39.9378 55.1991L40.0955 54.7247ZM38.7497 53.3937L39.1201 53.0579L38.7497 53.3937ZM35.6805 47.8841L35.1956 48.0059V48.0059L35.6805 47.8841ZM36.3674 40.4881L36.8279 40.6828C36.8828 40.5531 36.8804 40.4062 36.8213 40.2784C36.7622 40.1505 36.652 40.0535 36.5176 40.0112L36.3674 40.4881ZM36.1814 40.4272L36.0209 40.9008L36.0209 40.9008L36.1814 40.4272ZM35.1645 40.0242L35.3707 39.5686H35.3707L35.1645 40.0242ZM32.1964 28.8851L31.7813 28.6064C31.7703 28.6228 31.7602 28.6398 31.7512 28.6574L32.1964 28.8851ZM32.2001 28.8796L32.6762 29.0322C32.7522 28.7951 32.6421 28.5381 32.418 28.4296C32.1939 28.3211 31.924 28.394 31.7851 28.6007L32.2001 28.8796ZM37.2191 38.3938L37.3678 37.9164C37.36 37.914 37.3521 37.9117 37.3442 37.9097L37.2191 38.3938ZM37.2862 38.4147L37.1376 38.8921C37.3791 38.9673 37.6388 38.8503 37.7424 38.6195L37.2862 38.4147ZM37.2863 38.4146L37.7424 38.6194C37.801 38.4889 37.8009 38.3396 37.7421 38.2092C37.6833 38.0787 37.5715 37.9798 37.435 37.9372L37.2863 38.4146ZM37.2194 38.3938L37.3681 37.9164C37.3603 37.914 37.3524 37.9117 37.3444 37.9097L37.2194 38.3938ZM32.2006 28.8788L31.7856 28.6C31.7594 28.639 31.7388 28.6814 31.7245 28.7261L32.2006 28.8788ZM32.2031 28.8751L32.6792 29.0279C32.7553 28.7908 32.6453 28.5338 32.4212 28.4252C32.1971 28.3165 31.9272 28.3894 31.7882 28.5961L32.2031 28.8751ZM37.2207 38.3939L37.3694 37.9165C37.3615 37.9141 37.3536 37.9118 37.3457 37.9098L37.2207 38.3939ZM46.7982 41.3766L46.9478 40.8995L46.9469 40.8992L46.7982 41.3766ZM49.4685 41.4907L49.6382 41.961H49.6382L49.4685 41.4907ZM50.8442 40.3817L51.2538 40.6684L51.2539 40.6684L50.8442 40.3817ZM50.8504 40.3729L50.4435 40.0822L50.4407 40.0862L50.8504 40.3729ZM50.8566 40.3642L51.2634 40.6549L51.2635 40.6548L50.8566 40.3642ZM51.3842 38.7125L50.8842 38.7215L51.3842 38.7125ZM50.4415 36.5008L50.057 36.8204L50.4415 36.5008ZM43.8457 28.4557L44.2334 28.14V28.14L43.8457 28.4557ZM42.629 26.9618L42.2498 26.636C42.092 26.8196 42.0885 27.09 42.2414 27.2777L42.629 26.9618ZM51.7176 16.3833L52.0969 16.7091C52.256 16.5239 52.2581 16.2509 52.1017 16.0632C51.9454 15.8756 51.6765 15.8284 51.4656 15.9515L51.7176 16.3833ZM39.4688 23.5314L38.9909 23.3842C38.9303 23.5811 38.9966 23.795 39.158 23.923C39.3194 24.0511 39.5428 24.067 39.7208 23.9632L39.4688 23.5314ZM40.125 21.4009L40.6028 21.5481C40.6465 21.4064 40.625 21.2527 40.5442 21.1284C40.4634 21.0041 40.3316 20.9221 40.1843 20.9045L40.125 21.4009ZM36.8906 29.9064L36.4056 29.7851C36.3656 29.9451 36.407 30.1145 36.5164 30.238C36.6258 30.3614 36.789 30.423 36.9526 30.4025L36.8906 29.9064ZM39.2344 28.4064L39.3166 27.9132L39.2344 28.4064ZM40.7812 31.0314L40.4689 31.4218C40.6042 31.5301 40.7859 31.5605 40.9491 31.5023C41.1124 31.4441 41.2338 31.3056 41.2701 31.1361L40.7812 31.0314ZM21.8281 38.0626C21.8281 29.0707 29.1175 21.7813 38.1094 21.7813V20.7813C28.5652 20.7813 20.8281 28.5184 20.8281 38.0626H21.8281ZM38.1094 54.3439C29.1175 54.3439 21.8281 47.0545 21.8281 38.0626H20.8281C20.8281 47.6068 28.5652 55.3439 38.1094 55.3439V54.3439ZM40.04 54.2305C39.3788 54.3125 38.7998 54.3439 38.1094 54.3439V55.3439C38.8353 55.3439 39.4558 55.3106 40.1631 55.2229L40.04 54.2305ZM39.9378 55.1991C39.9398 55.1998 39.9419 55.2005 39.944 55.2012L40.2591 54.2521C40.2572 54.2515 40.2552 54.2509 40.2532 54.2502L39.9378 55.1991ZM38.3792 53.7295C38.8326 54.2296 39.3003 54.6858 39.7629 55.098L40.4281 54.3514C39.989 53.96 39.547 53.5288 39.1201 53.0579L38.3792 53.7295ZM35.1956 48.0059C35.7876 50.3635 37.0607 52.2749 38.3792 53.7295L39.1201 53.0579C37.8751 51.6844 36.706 49.9148 36.1655 47.7623L35.1956 48.0059ZM35.9069 40.2933C34.7355 43.063 34.6087 45.6692 35.1956 48.0059L36.1655 47.7623C35.6329 45.6418 35.739 43.2576 36.8279 40.6828L35.9069 40.2933ZM36.0209 40.9008C36.0929 40.9252 36.1585 40.9465 36.2172 40.965L36.5176 40.0112C36.4656 39.9948 36.4068 39.9757 36.3419 39.9537L36.0209 40.9008ZM34.9583 40.4797C35.3826 40.6717 35.7495 40.8088 36.0209 40.9008L36.3419 39.9537C36.0968 39.8706 35.7608 39.7452 35.3707 39.5686L34.9583 40.4797ZM31.7512 28.6574C30.5419 31.0219 29.8953 33.328 30.3021 35.3935C30.7164 37.4971 32.1961 39.2293 34.9583 40.4797L35.3707 39.5686C32.8127 38.4107 31.6181 36.9006 31.2832 35.2003C30.9408 33.4619 31.4703 31.4027 32.6415 29.1128L31.7512 28.6574ZM31.7851 28.6007C31.7838 28.6026 31.7825 28.6045 31.7813 28.6064L32.6115 29.1639C32.6127 29.1621 32.6139 29.1603 32.6151 29.1585L31.7851 28.6007ZM31.724 28.727C31.0902 30.7039 31.0896 32.349 31.4771 33.7056C31.8641 35.0599 32.627 36.088 33.4593 36.8514C34.2892 37.6127 35.1943 38.1167 35.8866 38.4301C36.234 38.5873 36.5311 38.698 36.7432 38.7698C36.8494 38.8058 36.9345 38.8322 36.9944 38.8499C37.0243 38.8587 37.048 38.8654 37.0648 38.87C37.0732 38.8723 37.0799 38.8741 37.0848 38.8755C37.0872 38.8761 37.0892 38.8766 37.0908 38.8771C37.0916 38.8773 37.0923 38.8774 37.0928 38.8776C37.0931 38.8777 37.0934 38.8777 37.0936 38.8778C37.0939 38.8779 37.0941 38.8779 37.2191 38.3938C37.3442 37.9097 37.3444 37.9097 37.3446 37.9098C37.3446 37.9098 37.3447 37.9098 37.3448 37.9098C37.3449 37.9099 37.3449 37.9099 37.3448 37.9098C37.3445 37.9098 37.3438 37.9096 37.3427 37.9093C37.3405 37.9087 37.3365 37.9076 37.3309 37.9061C37.3197 37.903 37.3017 37.8979 37.2777 37.8908C37.2296 37.8766 37.157 37.8542 37.0642 37.8227C36.8783 37.7598 36.6122 37.6608 36.2989 37.519C35.67 37.2344 34.8641 36.783 34.1352 36.1145C33.4086 35.448 32.7647 34.572 32.4387 33.4309C32.1133 32.2919 32.0934 30.8503 32.6762 29.0322L31.724 28.727ZM37.0705 38.8712L37.1376 38.8921L37.4349 37.9373L37.3678 37.9164L37.0705 38.8712ZM37.7424 38.6195L37.7424 38.6194L36.8301 38.2098L36.8301 38.2099L37.7424 38.6195ZM37.435 37.9372L37.3681 37.9164L37.0707 38.8712L37.1376 38.892L37.435 37.9372ZM37.2194 38.3938C37.3444 37.9097 37.3446 37.9097 37.3448 37.9098C37.3449 37.9098 37.345 37.9098 37.3451 37.9098C37.3452 37.9099 37.3452 37.9099 37.345 37.9098C37.3448 37.9098 37.3441 37.9096 37.343 37.9093C37.3408 37.9087 37.3368 37.9076 37.3312 37.9061C37.3199 37.903 37.302 37.8979 37.278 37.8908C37.2298 37.8766 37.1573 37.8542 37.0644 37.8227C36.8785 37.7597 36.6124 37.6608 36.2992 37.519C35.6702 37.2343 34.8643 36.7829 34.1353 36.1143C33.4087 35.4478 32.7648 34.5717 32.4388 33.4305C32.1135 32.2914 32.0938 30.8497 32.6768 29.0315L31.7245 28.7261C31.0906 30.7032 31.0898 32.3485 31.4773 33.7051C31.8642 35.0596 32.627 36.0878 33.4594 36.8512C34.2894 37.6125 35.1945 38.1167 35.8868 38.43C36.2342 38.5872 36.5313 38.6979 36.7435 38.7698C36.8496 38.8058 36.9348 38.8322 36.9947 38.8498C37.0246 38.8587 37.0482 38.8654 37.065 38.87C37.0734 38.8723 37.0801 38.8741 37.085 38.8754C37.0875 38.8761 37.0895 38.8766 37.0911 38.877C37.0919 38.8772 37.0925 38.8774 37.0931 38.8776C37.0934 38.8776 37.0937 38.8777 37.0938 38.8778C37.0941 38.8778 37.0944 38.8779 37.2194 38.3938ZM31.7882 28.5961C31.7873 28.5974 31.7864 28.5988 31.7856 28.6L32.6157 29.1576C32.6165 29.1564 32.6173 29.1553 32.618 29.1541L31.7882 28.5961ZM37.2207 38.3939C37.3457 37.9098 37.3459 37.9098 37.3461 37.9099C37.3461 37.9099 37.3463 37.9099 37.3463 37.9099C37.3464 37.91 37.3464 37.91 37.3463 37.9099C37.3461 37.9099 37.3454 37.9097 37.3443 37.9094C37.342 37.9088 37.3381 37.9077 37.3324 37.9062C37.3212 37.9031 37.3033 37.898 37.2792 37.8909C37.2311 37.8767 37.1585 37.8543 37.0656 37.8228C36.8796 37.7598 36.6135 37.6608 36.3001 37.5189C35.671 37.2342 34.8649 36.7826 34.1359 36.1137C33.4092 35.447 32.7653 34.5705 32.4396 33.4289C32.1145 32.2893 32.0953 30.847 32.6792 29.0279L31.727 28.7223C31.0922 30.7001 31.0908 32.346 31.478 33.7032C31.8646 35.0582 32.6274 36.0868 33.4598 36.8506C34.2899 37.6122 35.1952 38.1165 35.8877 38.43C36.2352 38.5872 36.5324 38.698 36.7446 38.7699C36.8508 38.8059 36.936 38.8322 36.9959 38.8499C37.0259 38.8588 37.0495 38.8655 37.0663 38.8701C37.0747 38.8724 37.0814 38.8742 37.0863 38.8755C37.0888 38.8762 37.0908 38.8767 37.0923 38.8771C37.0931 38.8773 37.0938 38.8775 37.0944 38.8777C37.0946 38.8777 37.095 38.8778 37.0951 38.8779C37.0954 38.8779 37.0957 38.878 37.2207 38.3939ZM46.9469 40.8992L37.3694 37.9165L37.072 38.8713L46.6495 41.854L46.9469 40.8992ZM49.2987 41.0205C48.88 41.1716 48.1527 41.2773 46.9478 40.8995L46.6486 41.8537C48.0254 42.2854 48.9803 42.1985 49.6382 41.961L49.2987 41.0205ZM50.4346 40.095C50.1127 40.5549 49.7354 40.8628 49.2987 41.0205L49.6382 41.961C50.3074 41.7195 50.8396 41.2602 51.2538 40.6684L50.4346 40.095ZM50.4407 40.0862L50.4346 40.095L51.2539 40.6684L51.26 40.6596L50.4407 40.0862ZM50.4498 40.0735L50.4435 40.0822L51.2572 40.6636L51.2634 40.6549L50.4498 40.0735ZM50.8842 38.7215C50.893 39.2109 50.7301 39.6811 50.4497 40.0736L51.2635 40.6548C51.6553 40.1063 51.8971 39.4292 51.8841 38.7035L50.8842 38.7215ZM50.057 36.8204C50.7139 37.6107 50.876 38.2613 50.8842 38.7215L51.8841 38.7035C51.8714 37.9964 51.6151 37.1306 50.8261 36.1812L50.057 36.8204ZM43.458 28.7714C45.6473 31.4601 47.8386 34.1514 50.057 36.8204L50.8261 36.1812C48.6114 33.5167 46.4232 30.8294 44.2334 28.14L43.458 28.7714ZM42.2414 27.2777C42.647 27.7754 43.0524 28.2734 43.458 28.7714L44.2334 28.14C43.8279 27.642 43.4224 27.1439 43.0166 26.646L42.2414 27.2777ZM51.3384 16.0575L42.2498 26.636L43.0083 27.2877L52.0969 16.7091L51.3384 16.0575ZM39.7208 23.9632L51.9696 16.8151L51.4656 15.9515L39.2167 23.0995L39.7208 23.9632ZM39.6472 21.2537L38.9909 23.3842L39.9466 23.6785L40.6028 21.5481L39.6472 21.2537ZM38.1094 21.7813C38.7724 21.7813 39.4251 21.8208 40.0657 21.8974L40.1843 20.9045C39.5045 20.8232 38.8121 20.7813 38.1094 20.7813V21.7813ZM37.3757 30.0276C37.4886 29.5758 37.7215 29.2685 38.0099 29.0867C38.3005 28.9035 38.6883 28.8223 39.1522 28.8996L39.3166 27.9132C38.6478 27.8017 38.0044 27.908 37.4766 28.2408C36.9466 28.5749 36.5739 29.1119 36.4056 29.7851L37.3757 30.0276ZM41.0936 30.6409C40.0686 29.821 38.4838 29.2033 36.8286 29.4102L36.9526 30.4025C38.2975 30.2344 39.6188 30.7418 40.4689 31.4218L41.0936 30.6409ZM39.1522 28.8996C39.9432 29.0314 40.5256 29.8379 40.2923 30.9266L41.2701 31.1361C41.5993 29.5999 40.7755 28.1563 39.3166 27.9132L39.1522 28.8996Z" fill="black" fill-opacity="0.08" mask="url(#path-6-outside-1)"/>
</g>
<defs>
<filter id="filter0_f" x="-164" y="-164" width="512" height="360" filterUnits="userSpaceOnUse" color-interpolation-filters="sRGB">
<feFlood flood-opacity="0" result="BackgroundImageFix"/>
<feBlend mode="normal" in="SourceGraphic" in2="BackgroundImageFix" result="shape"/>
<feGaussianBlur stdDeviation="48" result="effect1_foregroundBlur"/>
</filter>
</defs>
</svg>
