<svg width="24" height="24" viewBox="0 0 24 24" fill="none" xmlns="http://www.w3.org/2000/svg">
<path fill-rule="evenodd" clip-rule="evenodd" d="M14.0786 3.55739L14.5574 3.07861C14.9302 2.70585 15.2517 2.38427 15.5382 2.14105C15.8406 1.88434 16.1691 1.65672 16.573 1.52549C17.1755 1.32972 17.8245 1.32972 18.4271 1.52549C18.8309 1.65672 19.1594 1.88434 19.4618 2.14105C19.7483 2.38428 20.0699 2.70586 20.4426 3.07863L20.9214 3.55737C21.2941 3.93012 21.6157 4.25168 21.8589 4.53818C22.1157 4.84058 22.3433 5.16905 22.4745 5.57293C22.6703 6.17546 22.6703 6.8245 22.4745 7.42703C22.3433 7.83091 22.1157 8.15939 21.8589 8.46178C21.6157 8.74828 21.2941 9.06984 20.9214 9.44257L20.9214 9.44259L20.4426 9.92133L20.4426 9.92135L20.4425 9.92146C20.0698 10.2942 19.7483 10.6157 19.4618 10.8589C19.1594 11.1156 18.8309 11.3432 18.4271 11.4745C17.8245 11.6702 17.1755 11.6702 16.573 11.4745C16.1691 11.3432 15.8406 11.1156 15.5382 10.8589C15.2517 10.6157 14.9302 10.2941 14.5574 9.92135L14.0786 9.44258C13.7059 9.06984 13.3843 8.74828 13.1411 8.46178C12.8844 8.15939 12.6568 7.83091 12.5255 7.42703C12.3297 6.8245 12.3297 6.17546 12.5255 5.57293C12.6568 5.16905 12.8844 4.84057 13.1411 4.53818C13.3843 4.25169 13.7059 3.93014 14.0786 3.55742L14.0786 3.55741L14.0786 3.55739ZM14.6658 5.83254C14.4894 6.04033 14.4448 6.13819 14.4276 6.19097C14.3624 6.39181 14.3624 6.60816 14.4276 6.809C14.4448 6.86178 14.4894 6.95964 14.6658 7.16743C14.8497 7.38415 15.1124 7.64793 15.5201 8.05562L15.9444 8.47988C16.3521 8.88757 16.6158 9.15025 16.8326 9.33423C17.0404 9.51063 17.1382 9.55521 17.191 9.57236C17.3918 9.63762 17.6082 9.63762 17.809 9.57236C17.8618 9.55521 17.9597 9.51063 18.1675 9.33423C18.3842 9.15025 18.648 8.88757 19.0556 8.47988L19.4799 8.05562C19.8876 7.64793 20.1503 7.38415 20.3343 7.16743C20.5107 6.95964 20.5552 6.86178 20.5724 6.809C20.6376 6.60816 20.6376 6.39181 20.5724 6.19097C20.5552 6.13819 20.5107 6.04033 20.3343 5.83254C20.1503 5.61582 19.8876 5.35203 19.4799 4.94435L19.0556 4.52008C18.648 4.1124 18.3842 3.84971 18.1675 3.66573C17.9597 3.48933 17.8618 3.44475 17.809 3.42761C17.6082 3.36235 17.3918 3.36235 17.191 3.42761C17.1382 3.44475 17.0404 3.48933 16.8326 3.66573C16.6158 3.84971 16.3521 4.1124 15.9444 4.52008L15.5201 4.94435C15.1124 5.35203 14.8497 5.61582 14.6658 5.83254ZM6.83855 13H6.16146C5.63431 13 5.17955 13 4.80497 13.0306C4.40963 13.0629 4.01641 13.1342 3.63803 13.327C3.07354 13.6146 2.6146 14.0735 2.32698 14.638C2.13419 15.0164 2.06287 15.4096 2.03057 15.805C1.99997 16.1795 1.99998 16.6343 2 17.1614V17.1614V17.8385V17.8386C1.99998 18.3657 1.99997 18.8204 2.03057 19.195C2.06287 19.5904 2.13419 19.9836 2.32698 20.362C2.6146 20.9264 3.07354 21.3854 3.63803 21.673C4.01641 21.8658 4.40963 21.9371 4.80497 21.9694C5.17955 22 5.63432 22 6.16148 22H6.83852C7.36568 22 7.82045 22 8.19503 21.9694C8.59038 21.9371 8.98359 21.8658 9.36197 21.673C9.92646 21.3854 10.3854 20.9264 10.673 20.362C10.8658 19.9836 10.9371 19.5904 10.9694 19.195C11 18.8204 11 18.3657 11 17.8385V17.1615C11 16.6343 11 16.1795 10.9694 15.805C10.9371 15.4096 10.8658 15.0164 10.673 14.638C10.3854 14.0735 9.92646 13.6146 9.36197 13.327C8.98359 13.1342 8.59038 13.0629 8.19503 13.0306C7.82046 13 7.3657 13 6.83855 13ZM4.54601 15.109C4.59546 15.0838 4.69618 15.0461 4.96784 15.0239C5.25118 15.0008 5.62345 15 6.2 15H6.8C7.37656 15 7.74883 15.0008 8.03217 15.0239C8.30383 15.0461 8.40455 15.0838 8.45399 15.109C8.64216 15.2049 8.79514 15.3578 8.89101 15.546C8.9162 15.5954 8.95388 15.6962 8.97608 15.9678C8.99923 16.2512 9 16.6234 9 17.2V17.8C9 18.3765 8.99923 18.7488 8.97608 19.0321C8.95388 19.3038 8.9162 19.4045 8.89101 19.454C8.79514 19.6421 8.64216 19.7951 8.45399 19.891C8.40455 19.9162 8.30383 19.9539 8.03217 19.9761C7.74883 19.9992 7.37656 20 6.8 20H6.2C5.62345 20 5.25118 19.9992 4.96784 19.9761C4.69618 19.9539 4.59546 19.9162 4.54601 19.891C4.35785 19.7951 4.20487 19.6421 4.109 19.454C4.0838 19.4045 4.04613 19.3038 4.02393 19.0321C4.00078 18.7488 4 18.3765 4 17.8V17.2C4 16.6234 4.00078 16.2512 4.02393 15.9678C4.04613 15.6962 4.0838 15.5954 4.109 15.546C4.20487 15.3578 4.35785 15.2049 4.54601 15.109ZM17.8385 13H17.1615C16.6343 13 16.1795 13 15.805 13.0306C15.4096 13.0629 15.0164 13.1342 14.638 13.327C14.0735 13.6146 13.6146 14.0735 13.327 14.638C13.1342 15.0164 13.0629 15.4096 13.0306 15.805C13 16.1795 13 16.6343 13 17.1614V17.8385C13 18.3657 13 18.8204 13.0306 19.195C13.0629 19.5904 13.1342 19.9836 13.327 20.362C13.6146 20.9264 14.0735 21.3854 14.638 21.673C15.0164 21.8658 15.4096 21.9371 15.805 21.9694C16.1796 22 16.6343 22 17.1615 22H17.8385C18.3657 22 18.8205 22 19.195 21.9694C19.5904 21.9371 19.9836 21.8658 20.362 21.673C20.9265 21.3854 21.3854 20.9264 21.673 20.362C21.8658 19.9836 21.9371 19.5904 21.9694 19.195C22 18.8205 22 18.3658 22 17.8387V17.8386V17.8386V17.8385V17.1615V17.1613V17.1613V17.1613C22 16.6342 22 16.1795 21.9694 15.805C21.9371 15.4096 21.8658 15.0164 21.673 14.638C21.3854 14.0735 20.9265 13.6146 20.362 13.327C19.9836 13.1342 19.5904 13.0629 19.195 13.0306C18.8205 13 18.3657 13 17.8385 13ZM15.546 15.109C15.5955 15.0838 15.6962 15.0461 15.9678 15.0239C16.2512 15.0008 16.6234 15 17.2 15H17.8C18.3766 15 18.7488 15.0008 19.0322 15.0239C19.3038 15.0461 19.4045 15.0838 19.454 15.109C19.6422 15.2049 19.7951 15.3578 19.891 15.546C19.9162 15.5954 19.9539 15.6962 19.9761 15.9678C19.9992 16.2512 20 16.6234 20 17.2V17.8C20 18.3765 19.9992 18.7488 19.9761 19.0321C19.9539 19.3038 19.9162 19.4045 19.891 19.454C19.7951 19.6421 19.6422 19.7951 19.454 19.891C19.4045 19.9162 19.3038 19.9539 19.0322 19.9761C18.7488 19.9992 18.3766 20 17.8 20H17.2C16.6234 20 16.2512 19.9992 15.9678 19.9761C15.6962 19.9539 15.5955 19.9162 15.546 19.891C15.3579 19.7951 15.2049 19.6421 15.109 19.454C15.0838 19.4045 15.0461 19.3038 15.0239 19.0321C15.0008 18.7488 15 18.3765 15 17.8V17.2C15 16.6234 15.0008 16.2512 15.0239 15.9678C15.0461 15.6962 15.0838 15.5954 15.109 15.546C15.2049 15.3578 15.3579 15.2049 15.546 15.109ZM6.83855 1.99998H6.16146H6.16145C5.63431 1.99997 5.17955 1.99995 4.80497 2.03055C4.40963 2.06285 4.01641 2.13417 3.63803 2.32696C3.07354 2.61458 2.6146 3.07353 2.32698 3.63801C2.13419 4.01639 2.06287 4.40961 2.03057 4.80496C1.99997 5.17952 1.99998 5.63427 2 6.1614V6.16144V6.83853V6.83857C1.99998 7.3657 1.99997 7.82045 2.03057 8.19501C2.06287 8.59036 2.13419 8.98358 2.32698 9.36196C2.6146 9.92644 3.07354 10.3854 3.63803 10.673C4.01641 10.8658 4.40963 10.9371 4.80497 10.9694C5.17955 11 5.63432 11 6.16148 11H6.83852C7.36568 11 7.82045 11 8.19503 10.9694C8.59038 10.9371 8.98359 10.8658 9.36197 10.673C9.92646 10.3854 10.3854 9.92644 10.673 9.36196C10.8658 8.98358 10.9371 8.59036 10.9694 8.19501C11 7.82044 11 7.36566 11 6.83851V6.16146C11 5.6343 11 5.17953 10.9694 4.80496C10.9371 4.40961 10.8658 4.01639 10.673 3.63801C10.3854 3.07353 9.92646 2.61458 9.36197 2.32696C8.98359 2.13417 8.59038 2.06285 8.19503 2.03055C7.82046 1.99995 7.3657 1.99997 6.83855 1.99998H6.83855ZM4.54601 4.10898C4.59546 4.08378 4.69618 4.04611 4.96784 4.02391C5.25118 4.00076 5.62345 3.99998 6.2 3.99998H6.8C7.37656 3.99998 7.74883 4.00076 8.03217 4.02391C8.30383 4.04611 8.40455 4.08378 8.45399 4.10898C8.64216 4.20485 8.79514 4.35783 8.89101 4.54599C8.9162 4.59544 8.95388 4.69616 8.97608 4.96782C8.99923 5.25116 9 5.62343 9 6.19998V6.79998C9 7.37654 8.99923 7.74881 8.97608 8.03215C8.95388 8.30381 8.9162 8.40453 8.89101 8.45397C8.79514 8.64214 8.64216 8.79512 8.45399 8.89099C8.40455 8.91618 8.30383 8.95386 8.03217 8.97606C7.74883 8.99921 7.37656 8.99998 6.8 8.99998H6.2C5.62345 8.99998 5.25118 8.99921 4.96784 8.97606C4.69618 8.95386 4.59546 8.91618 4.54601 8.89099C4.35785 8.79512 4.20487 8.64214 4.109 8.45397C4.0838 8.40453 4.04613 8.30381 4.02393 8.03215C4.00078 7.74881 4 7.37654 4 6.79998V6.19998C4 5.62343 4.00078 5.25116 4.02393 4.96782C4.04613 4.69616 4.0838 4.59544 4.109 4.54599C4.20487 4.35783 4.35785 4.20485 4.54601 4.10898Z" fill="#71747A"/>
</svg>
